G75*
%MOIN*%
%OFA0B0*%
%FSLAX25Y25*%
%IPPOS*%
%LPD*%
%AMOC8*
5,1,8,0,0,1.08239X$1,22.5*
%
%ADD10R,0.05906X0.05906*%
%ADD11C,0.05906*%
%ADD12C,0.07400*%
%ADD13C,0.07000*%
%ADD14C,0.18898*%
%ADD15C,0.16535*%
%ADD16C,0.01000*%
%ADD17C,0.07480*%
%ADD18C,0.10000*%
%ADD19C,0.07000*%
%ADD20C,0.04800*%
%ADD21OC8,0.04800*%
%ADD22R,0.07400X0.07400*%
%ADD23C,0.06600*%
%ADD24C,0.16800*%
%ADD25C,0.06000*%
%ADD26C,0.00600*%
%ADD27C,0.03000*%
%ADD28C,0.02000*%
D10*
X0037595Y0081300D03*
D11*
X0037595Y0021300D03*
X0047595Y0021300D03*
X0057595Y0021300D03*
X0067595Y0021300D03*
X0077595Y0021300D03*
X0087595Y0021300D03*
X0097595Y0021300D03*
X0107595Y0021300D03*
X0117595Y0021300D03*
X0127595Y0021300D03*
X0137595Y0021300D03*
X0147595Y0021300D03*
X0157595Y0021300D03*
X0167595Y0021300D03*
X0177595Y0021300D03*
X0187595Y0021300D03*
X0197595Y0021300D03*
X0207595Y0021300D03*
X0217595Y0021300D03*
X0227595Y0021300D03*
X0237595Y0021300D03*
X0247595Y0021300D03*
X0257595Y0021300D03*
X0267595Y0021300D03*
X0267595Y0041300D03*
X0257595Y0041300D03*
X0247595Y0041300D03*
X0237595Y0041300D03*
X0227595Y0041300D03*
X0217595Y0041300D03*
X0207595Y0041300D03*
X0197595Y0041300D03*
X0187595Y0041300D03*
X0187595Y0051300D03*
X0197595Y0051300D03*
X0207595Y0051300D03*
X0217595Y0051300D03*
X0227595Y0051300D03*
X0237595Y0051300D03*
X0247595Y0051300D03*
X0257595Y0051300D03*
X0267595Y0051300D03*
X0217595Y0061300D03*
X0217595Y0071300D03*
X0217595Y0081300D03*
X0207595Y0081300D03*
X0197595Y0081300D03*
X0187595Y0081300D03*
X0177595Y0081300D03*
X0167595Y0081300D03*
X0157595Y0081300D03*
X0147595Y0081300D03*
X0137595Y0081300D03*
X0127595Y0081300D03*
X0117595Y0081300D03*
X0107595Y0081300D03*
X0097595Y0081300D03*
X0087595Y0081300D03*
X0077595Y0081300D03*
X0067595Y0081300D03*
X0057595Y0081300D03*
X0047595Y0081300D03*
X0062595Y0068800D03*
X0072595Y0068800D03*
X0082595Y0068800D03*
X0092595Y0068800D03*
X0102595Y0068800D03*
X0097595Y0051300D03*
X0107595Y0051300D03*
X0107595Y0041300D03*
X0097595Y0041300D03*
X0087595Y0031300D03*
X0077595Y0031300D03*
X0067595Y0031300D03*
X0047595Y0031300D03*
X0117595Y0041300D03*
X0127595Y0041300D03*
X0127595Y0051300D03*
X0117595Y0051300D03*
X0217595Y0031300D03*
X0227595Y0081300D03*
X0237595Y0081300D03*
X0247595Y0081300D03*
X0257595Y0081300D03*
X0267595Y0081300D03*
D12*
X0305095Y0088800D03*
X0315095Y0088800D03*
X0325095Y0088800D03*
X0335095Y0088800D03*
X0350095Y0088800D03*
X0360095Y0088800D03*
X0370095Y0088800D03*
X0380095Y0088800D03*
X0380095Y0058800D03*
X0370095Y0058800D03*
X0360095Y0058800D03*
X0350095Y0058800D03*
X0335095Y0058800D03*
X0325095Y0058800D03*
X0315095Y0058800D03*
X0305095Y0058800D03*
X0327595Y0044800D03*
X0337595Y0044800D03*
X0347595Y0044800D03*
X0357595Y0044800D03*
X0357595Y0014800D03*
X0347595Y0014800D03*
X0337595Y0014800D03*
X0327595Y0014800D03*
X0481595Y0023300D03*
X0481595Y0032300D03*
X0511595Y0032300D03*
X0511595Y0023300D03*
X0512595Y0010800D03*
X0522595Y0011800D03*
X0532595Y0010800D03*
X0561895Y0011300D03*
X0573295Y0011300D03*
X0586895Y0011300D03*
X0598295Y0011300D03*
X0646895Y0071300D03*
X0658295Y0071300D03*
X0672095Y0171300D03*
X0673095Y0181300D03*
X0672095Y0191300D03*
X0672095Y0206300D03*
X0673095Y0216300D03*
X0672095Y0226300D03*
X0138595Y0125300D03*
X0118595Y0125300D03*
X0098095Y0125300D03*
X0079095Y0125300D03*
X0079095Y0095300D03*
X0098095Y0095300D03*
X0118595Y0095300D03*
X0138595Y0095300D03*
D13*
X0191095Y0191272D03*
X0201095Y0191272D03*
X0211095Y0191272D03*
X0251095Y0191272D03*
X0261095Y0191272D03*
X0271095Y0191272D03*
X0316095Y0191272D03*
X0326095Y0191272D03*
X0336095Y0191272D03*
X0376095Y0191272D03*
X0386095Y0191272D03*
X0396095Y0191272D03*
X0441095Y0191272D03*
X0451095Y0191272D03*
X0461095Y0191272D03*
X0501095Y0191272D03*
X0511095Y0191272D03*
X0521095Y0191272D03*
X0562595Y0161300D03*
X0562595Y0151300D03*
X0562595Y0141300D03*
X0562595Y0131300D03*
X0562595Y0121300D03*
X0562595Y0111300D03*
X0562595Y0101300D03*
X0562595Y0091300D03*
X0622595Y0091300D03*
X0622595Y0101300D03*
X0622595Y0111300D03*
X0622595Y0121300D03*
X0622595Y0131300D03*
X0622595Y0141300D03*
X0622595Y0151300D03*
X0622595Y0161300D03*
X0607595Y0196300D03*
X0597595Y0196300D03*
X0587595Y0196300D03*
X0557595Y0226300D03*
X0557595Y0236300D03*
X0557595Y0246300D03*
X0521095Y0251272D03*
X0511095Y0251272D03*
X0501095Y0251272D03*
X0461095Y0251272D03*
X0451095Y0251272D03*
X0441095Y0251272D03*
X0396095Y0251272D03*
X0386095Y0251272D03*
X0376095Y0251272D03*
X0336095Y0251272D03*
X0326095Y0251272D03*
X0316095Y0251272D03*
X0271095Y0251272D03*
X0261095Y0251272D03*
X0251095Y0251272D03*
X0211095Y0251272D03*
X0201095Y0251272D03*
X0191095Y0251272D03*
X0122595Y0196300D03*
X0112595Y0196300D03*
X0102595Y0196300D03*
X0072595Y0226300D03*
X0072595Y0236300D03*
X0072595Y0246300D03*
D14*
X0629052Y0031300D03*
D15*
X0653658Y0031300D03*
X0640272Y0012402D03*
D16*
X0642595Y0111300D02*
X0662595Y0111300D01*
X0662595Y0121300D02*
X0642595Y0121300D01*
X0642595Y0131300D02*
X0662595Y0131300D01*
X0662595Y0141300D02*
X0642595Y0141300D01*
D17*
X0642595Y0141300D03*
X0642595Y0131300D03*
X0642595Y0121300D03*
X0642595Y0111300D03*
X0662595Y0111300D03*
X0662595Y0121300D03*
X0662595Y0131300D03*
X0662595Y0141300D03*
D18*
X0627595Y0210050D03*
X0567595Y0210050D03*
X0567595Y0262550D03*
X0627595Y0262550D03*
X0142595Y0262550D03*
X0082595Y0262550D03*
X0082595Y0210050D03*
X0142595Y0210050D03*
D19*
X0128595Y0266300D02*
X0121595Y0266300D01*
X0103595Y0266300D02*
X0096595Y0266300D01*
X0096595Y0284017D02*
X0103595Y0284017D01*
X0121595Y0284017D02*
X0128595Y0284017D01*
X0581595Y0284017D02*
X0588595Y0284017D01*
X0606595Y0284017D02*
X0613595Y0284017D01*
X0613595Y0266300D02*
X0606595Y0266300D01*
X0588595Y0266300D02*
X0581595Y0266300D01*
D20*
X0577595Y0078700D02*
X0577595Y0073900D01*
X0587595Y0073900D02*
X0587595Y0078700D01*
X0567595Y0078700D02*
X0567595Y0073900D01*
X0557595Y0073900D02*
X0557595Y0078700D01*
X0547595Y0078700D02*
X0547595Y0073900D01*
X0537595Y0073900D02*
X0537595Y0078700D01*
X0527595Y0078700D02*
X0527595Y0073900D01*
X0517595Y0073900D02*
X0517595Y0078700D01*
X0507595Y0078700D02*
X0507595Y0073900D01*
X0482595Y0073900D02*
X0482595Y0078700D01*
X0472595Y0078700D02*
X0472595Y0073900D01*
X0462595Y0073900D02*
X0462595Y0078700D01*
X0452595Y0078700D02*
X0452595Y0073900D01*
X0442595Y0073900D02*
X0442595Y0078700D01*
X0432595Y0078700D02*
X0432595Y0073900D01*
X0422595Y0073900D02*
X0422595Y0078700D01*
X0412595Y0078700D02*
X0412595Y0073900D01*
X0402595Y0073900D02*
X0402595Y0078700D01*
X0402595Y0048700D02*
X0402595Y0043900D01*
X0412595Y0043900D02*
X0412595Y0048700D01*
X0422595Y0048700D02*
X0422595Y0043900D01*
X0432595Y0043900D02*
X0432595Y0048700D01*
X0442595Y0048700D02*
X0442595Y0043900D01*
X0452595Y0043900D02*
X0452595Y0048700D01*
X0462595Y0048700D02*
X0462595Y0043900D01*
X0472595Y0043900D02*
X0472595Y0048700D01*
X0482595Y0048700D02*
X0482595Y0043900D01*
X0507595Y0043900D02*
X0507595Y0048700D01*
X0517595Y0048700D02*
X0517595Y0043900D01*
X0527595Y0043900D02*
X0527595Y0048700D01*
X0537595Y0048700D02*
X0537595Y0043900D01*
X0547595Y0043900D02*
X0547595Y0048700D01*
X0557595Y0048700D02*
X0557595Y0043900D01*
X0567595Y0043900D02*
X0567595Y0048700D01*
X0577595Y0048700D02*
X0577595Y0043900D01*
X0587595Y0043900D02*
X0587595Y0048700D01*
D21*
X0138595Y0135800D03*
X0138595Y0145800D03*
X0118595Y0145800D03*
X0118595Y0135800D03*
X0098595Y0135800D03*
X0098595Y0145800D03*
X0078595Y0145800D03*
X0078595Y0135800D03*
D22*
X0542595Y0011800D03*
D23*
X0521095Y0107300D03*
X0511095Y0107300D03*
X0501095Y0107300D03*
X0461595Y0106800D03*
X0451595Y0106800D03*
X0441595Y0106800D03*
X0441595Y0126800D03*
X0451595Y0126800D03*
X0461595Y0126800D03*
X0501095Y0127300D03*
X0511095Y0127300D03*
X0521095Y0127300D03*
X0521095Y0147300D03*
X0511095Y0147300D03*
X0501095Y0147300D03*
X0461595Y0146800D03*
X0451595Y0146800D03*
X0441595Y0146800D03*
X0441595Y0166800D03*
X0451595Y0166800D03*
X0461595Y0166800D03*
X0501095Y0167300D03*
X0511095Y0167300D03*
X0521095Y0167300D03*
X0396595Y0167800D03*
X0386595Y0167800D03*
X0376595Y0167800D03*
X0376595Y0147800D03*
X0386595Y0147800D03*
X0396595Y0147800D03*
X0396595Y0127800D03*
X0386595Y0127800D03*
X0376595Y0127800D03*
X0376595Y0107800D03*
X0386595Y0107800D03*
X0396595Y0107800D03*
X0336095Y0107300D03*
X0326095Y0107300D03*
X0316095Y0107300D03*
X0316095Y0127300D03*
X0326095Y0127300D03*
X0336095Y0127300D03*
X0336095Y0147300D03*
X0326095Y0147300D03*
X0316095Y0147300D03*
X0316095Y0167300D03*
X0326095Y0167300D03*
X0336095Y0167300D03*
X0271095Y0167800D03*
X0261095Y0167800D03*
X0251095Y0167800D03*
X0251095Y0147800D03*
X0261095Y0147800D03*
X0271095Y0147800D03*
X0271095Y0127800D03*
X0261095Y0127800D03*
X0251095Y0127800D03*
X0251095Y0107800D03*
X0261095Y0107800D03*
X0271095Y0107800D03*
X0211095Y0107800D03*
X0201095Y0107800D03*
X0191095Y0107800D03*
X0191095Y0127800D03*
X0201095Y0127800D03*
X0211095Y0127800D03*
X0211095Y0147800D03*
X0201095Y0147800D03*
X0191095Y0147800D03*
X0191095Y0167800D03*
X0201095Y0167800D03*
X0211095Y0167800D03*
D24*
X0219993Y0220800D03*
X0242198Y0220800D03*
X0279993Y0220800D03*
X0307198Y0220800D03*
X0344993Y0220800D03*
X0367198Y0220800D03*
X0404993Y0220800D03*
X0432198Y0220800D03*
X0469993Y0220800D03*
X0492198Y0220800D03*
X0529993Y0220800D03*
X0529993Y0280800D03*
X0492198Y0280800D03*
X0469993Y0280800D03*
X0432198Y0280800D03*
X0404993Y0280800D03*
X0367198Y0280800D03*
X0344993Y0280800D03*
X0307198Y0280800D03*
X0279993Y0280800D03*
X0242198Y0280800D03*
X0219993Y0280800D03*
X0182198Y0280800D03*
X0182198Y0220800D03*
D25*
X0191095Y0305800D03*
X0201095Y0305800D03*
X0211095Y0305800D03*
X0251095Y0306300D03*
X0261095Y0306300D03*
X0271095Y0306300D03*
X0316095Y0306300D03*
X0326095Y0306300D03*
X0336095Y0306300D03*
X0376095Y0306300D03*
X0386095Y0306300D03*
X0396095Y0306300D03*
X0441095Y0306300D03*
X0451095Y0306300D03*
X0461095Y0306300D03*
X0501095Y0306300D03*
X0511095Y0306300D03*
X0521095Y0306300D03*
D26*
X0572595Y0271300D02*
X0585095Y0283800D01*
X0585095Y0284017D01*
X0572595Y0271300D02*
X0260095Y0271300D01*
X0245095Y0256300D01*
X0057595Y0256300D01*
X0057595Y0081300D01*
X0062595Y0076300D02*
X0072595Y0076300D01*
X0077595Y0081300D01*
X0087595Y0081300D02*
X0092595Y0076300D01*
X0101345Y0076300D01*
X0110095Y0067550D01*
X0212595Y0067550D01*
X0212595Y0082550D01*
X0216345Y0086300D01*
X0268845Y0086300D01*
X0272595Y0082550D01*
X0312595Y0082550D01*
X0325095Y0070050D01*
X0457595Y0070050D01*
X0458845Y0068800D01*
X0462595Y0066300D02*
X0391345Y0066300D01*
X0388845Y0068800D01*
X0322595Y0068800D01*
X0317595Y0073800D02*
X0258845Y0073800D01*
X0257595Y0072550D01*
X0255095Y0071300D02*
X0248845Y0065050D01*
X0246345Y0063800D02*
X0247595Y0062550D01*
X0273845Y0062550D01*
X0282595Y0053800D01*
X0382595Y0053800D01*
X0386345Y0057550D01*
X0521345Y0057550D01*
X0521345Y0045050D01*
X0526345Y0040050D01*
X0561345Y0040050D01*
X0567595Y0046300D01*
X0557595Y0046300D02*
X0541345Y0062550D01*
X0392595Y0062550D01*
X0388845Y0066300D01*
X0272595Y0066300D01*
X0268845Y0070050D01*
X0256345Y0070050D01*
X0255095Y0071300D01*
X0255095Y0076300D01*
X0262595Y0076300D01*
X0267595Y0081300D01*
X0257595Y0081300D02*
X0252595Y0076300D01*
X0246345Y0076300D01*
X0246345Y0063800D01*
X0235095Y0076300D02*
X0222595Y0063800D01*
X0217595Y0061300D02*
X0272595Y0061300D01*
X0272595Y0046300D01*
X0267595Y0041300D01*
X0262595Y0046300D02*
X0222595Y0046300D01*
X0217595Y0051300D01*
X0215095Y0053800D01*
X0211345Y0053800D01*
X0208845Y0056300D01*
X0102595Y0056300D01*
X0097595Y0051300D01*
X0122595Y0046300D02*
X0128845Y0046300D01*
X0133845Y0041300D01*
X0187595Y0041300D01*
X0177595Y0061300D02*
X0177595Y0065050D01*
X0177595Y0061300D02*
X0057595Y0061300D01*
X0057595Y0021300D01*
X0052595Y0020050D02*
X0052595Y0063800D01*
X0116345Y0063800D01*
X0112595Y0070050D02*
X0102595Y0080050D01*
X0102595Y0083800D01*
X0101345Y0083800D01*
X0097595Y0087550D01*
X0087595Y0087550D01*
X0080095Y0095050D01*
X0079095Y0095300D01*
X0076345Y0100050D02*
X0073845Y0097550D01*
X0073845Y0087550D01*
X0085095Y0087550D01*
X0086345Y0086300D01*
X0092595Y0086300D01*
X0097595Y0081300D01*
X0100095Y0088800D02*
X0107595Y0081300D01*
X0112595Y0080050D02*
X0116345Y0076300D01*
X0188845Y0076300D01*
X0192595Y0072550D01*
X0202595Y0070050D02*
X0112595Y0070050D01*
X0112595Y0080050D02*
X0112595Y0095050D01*
X0098845Y0095050D01*
X0098095Y0095300D01*
X0095095Y0100050D02*
X0092595Y0097550D01*
X0092595Y0088800D01*
X0100095Y0088800D01*
X0095095Y0100050D02*
X0120095Y0100050D01*
X0142595Y0122550D01*
X0212595Y0122550D01*
X0225095Y0135050D01*
X0446345Y0135050D01*
X0446345Y0123800D01*
X0451595Y0126800D02*
X0452595Y0127550D01*
X0456345Y0131300D01*
X0496345Y0131300D01*
X0500095Y0127550D01*
X0501095Y0127300D01*
X0500095Y0138800D02*
X0528845Y0138800D01*
X0556345Y0111300D01*
X0562595Y0111300D01*
X0563845Y0116300D02*
X0557595Y0116300D01*
X0557595Y0132550D01*
X0561345Y0136300D01*
X0567595Y0136300D01*
X0567595Y0162550D01*
X0552595Y0177550D01*
X0106345Y0177550D01*
X0091345Y0162550D01*
X0087595Y0160050D02*
X0062595Y0135050D01*
X0062595Y0076300D01*
X0067595Y0081300D02*
X0067595Y0130050D01*
X0090095Y0152550D01*
X0240095Y0152550D01*
X0250095Y0142550D01*
X0301345Y0142550D01*
X0311345Y0152550D01*
X0480095Y0152550D01*
X0481345Y0153800D01*
X0490095Y0151300D02*
X0501345Y0140050D01*
X0548845Y0140050D01*
X0540095Y0131300D01*
X0548845Y0140050D02*
X0550095Y0141300D01*
X0562595Y0141300D01*
X0562595Y0151300D02*
X0543845Y0151300D01*
X0535095Y0142550D01*
X0526345Y0137550D02*
X0238845Y0137550D01*
X0240095Y0140050D02*
X0218845Y0140050D01*
X0211345Y0132550D01*
X0140095Y0132550D01*
X0137595Y0130050D01*
X0110095Y0130050D01*
X0080095Y0100050D01*
X0076345Y0100050D01*
X0047595Y0081300D02*
X0047595Y0283800D01*
X0100095Y0283800D01*
X0100095Y0284017D01*
X0072595Y0246300D02*
X0091345Y0227550D01*
X0097595Y0227550D01*
X0135095Y0190050D01*
X0108845Y0190050D01*
X0102595Y0196300D01*
X0135095Y0190050D02*
X0190095Y0190050D01*
X0191095Y0191272D01*
X0191345Y0190050D01*
X0195095Y0186300D01*
X0246345Y0186300D01*
X0250095Y0190050D01*
X0251095Y0191272D01*
X0246345Y0172550D02*
X0251095Y0167800D01*
X0247595Y0165050D02*
X0245095Y0165050D01*
X0242595Y0162550D01*
X0246345Y0162550D02*
X0247595Y0161300D01*
X0430095Y0161300D01*
X0441345Y0172550D01*
X0515095Y0172550D01*
X0520095Y0167550D01*
X0521095Y0167300D01*
X0501095Y0167300D02*
X0500095Y0167550D01*
X0496345Y0171300D01*
X0456345Y0171300D01*
X0452595Y0167550D01*
X0451595Y0166800D01*
X0465095Y0160050D02*
X0087595Y0160050D01*
X0108845Y0162550D02*
X0122595Y0176300D01*
X0547595Y0176300D01*
X0562595Y0161300D01*
X0526345Y0137550D02*
X0526345Y0121300D01*
X0561345Y0086300D01*
X0591345Y0086300D01*
X0591345Y0072550D01*
X0588845Y0070050D01*
X0587595Y0070050D01*
X0587595Y0046300D01*
X0577595Y0046300D02*
X0560095Y0063800D01*
X0502595Y0063800D01*
X0468845Y0097550D01*
X0338845Y0097550D01*
X0331345Y0105050D01*
X0331345Y0112550D01*
X0257595Y0112550D01*
X0261095Y0107800D02*
X0267595Y0101300D01*
X0322595Y0101300D01*
X0335095Y0088800D01*
X0338845Y0085050D02*
X0327595Y0073800D01*
X0318845Y0083800D02*
X0302595Y0083800D01*
X0298845Y0087550D01*
X0213845Y0087550D01*
X0207595Y0081300D01*
X0197595Y0081300D02*
X0210095Y0093800D01*
X0253845Y0093800D01*
X0263845Y0096300D02*
X0271345Y0088800D01*
X0305095Y0088800D01*
X0313845Y0100050D02*
X0325095Y0088800D01*
X0338845Y0085050D02*
X0341345Y0085050D01*
X0342595Y0083800D01*
X0455095Y0083800D01*
X0462595Y0076300D01*
X0462595Y0066300D02*
X0472595Y0076300D01*
X0452595Y0076300D02*
X0446345Y0082550D01*
X0340095Y0082550D01*
X0338845Y0093800D02*
X0365095Y0093800D01*
X0370095Y0088800D01*
X0338845Y0093800D02*
X0326345Y0106300D01*
X0326095Y0107300D01*
X0313845Y0100050D02*
X0273845Y0100050D01*
X0272595Y0098800D01*
X0210095Y0098800D01*
X0201095Y0107800D01*
X0196345Y0106300D02*
X0196345Y0115050D01*
X0197595Y0115050D01*
X0198845Y0120050D02*
X0196345Y0120050D01*
X0157595Y0081300D01*
X0147595Y0091300D02*
X0137595Y0081300D01*
X0177595Y0061300D02*
X0217595Y0061300D01*
X0235095Y0076300D02*
X0242595Y0076300D01*
X0247595Y0081300D01*
X0263845Y0096300D02*
X0202595Y0096300D01*
X0196345Y0102550D01*
X0196345Y0106300D02*
X0192595Y0102550D01*
X0187595Y0102550D01*
X0187595Y0081300D01*
X0232595Y0101300D02*
X0247595Y0116300D01*
X0405095Y0116300D01*
X0396595Y0127800D02*
X0396345Y0128800D01*
X0391345Y0133800D01*
X0246345Y0133800D01*
X0235095Y0122550D01*
X0230095Y0113800D02*
X0248845Y0132550D01*
X0330095Y0132550D01*
X0335095Y0127550D01*
X0336095Y0127300D01*
X0330095Y0122550D02*
X0326345Y0126300D01*
X0326095Y0127300D01*
X0330095Y0122550D02*
X0266345Y0122550D01*
X0261095Y0127800D01*
X0275095Y0118800D02*
X0277595Y0121300D01*
X0456345Y0121300D01*
X0461345Y0126300D01*
X0461595Y0126800D01*
X0455095Y0138800D02*
X0241345Y0138800D01*
X0240095Y0140050D01*
X0246345Y0141300D02*
X0247595Y0140050D01*
X0452595Y0140050D01*
X0455095Y0142550D01*
X0496345Y0142550D01*
X0500095Y0138800D01*
X0490095Y0151300D02*
X0440095Y0151300D01*
X0430095Y0141300D01*
X0248845Y0141300D01*
X0247595Y0142550D01*
X0193845Y0142550D01*
X0186345Y0135050D01*
X0190095Y0128800D02*
X0191095Y0127800D01*
X0191345Y0127550D01*
X0200095Y0127550D01*
X0201095Y0127800D01*
X0190095Y0128800D02*
X0145095Y0128800D01*
X0138595Y0135800D02*
X0137595Y0136300D01*
X0118845Y0136300D01*
X0118595Y0135800D01*
X0117595Y0136300D01*
X0098845Y0136300D01*
X0098595Y0135800D01*
X0097595Y0136300D01*
X0078845Y0136300D01*
X0078595Y0135800D01*
X0170095Y0162550D02*
X0181345Y0173800D01*
X0265095Y0173800D01*
X0271095Y0167800D01*
X0250095Y0162550D02*
X0391345Y0162550D01*
X0396595Y0167800D01*
X0376595Y0167800D02*
X0376345Y0168800D01*
X0372595Y0172550D01*
X0331345Y0172550D01*
X0326095Y0167300D01*
X0308845Y0153800D02*
X0266345Y0153800D01*
X0261345Y0148800D01*
X0261095Y0147800D01*
X0246345Y0141300D02*
X0216345Y0141300D01*
X0215095Y0140050D01*
X0247595Y0165050D02*
X0250095Y0162550D01*
X0246345Y0172550D02*
X0205095Y0172550D01*
X0201345Y0168800D01*
X0201095Y0167800D01*
X0168845Y0211300D02*
X0150095Y0192550D01*
X0147595Y0200050D02*
X0178845Y0231300D01*
X0666345Y0231300D01*
X0671345Y0226300D01*
X0672095Y0226300D01*
X0646345Y0216300D02*
X0671345Y0191300D01*
X0672095Y0191300D01*
X0672095Y0171300D02*
X0632595Y0171300D01*
X0622595Y0161300D01*
X0622595Y0151300D02*
X0602595Y0131300D01*
X0562595Y0131300D01*
X0563845Y0116300D02*
X0567595Y0112550D01*
X0567595Y0101300D01*
X0562595Y0101300D01*
X0587595Y0076300D02*
X0577595Y0066300D01*
X0503845Y0066300D01*
X0501345Y0052550D02*
X0507595Y0046300D01*
X0501345Y0052550D02*
X0408845Y0052550D01*
X0402595Y0046300D01*
X0405095Y0038800D02*
X0321345Y0038800D01*
X0327595Y0036300D02*
X0338845Y0036300D01*
X0340095Y0037550D01*
X0481345Y0037550D01*
X0487595Y0043800D01*
X0467595Y0030050D02*
X0480095Y0017550D01*
X0501345Y0017550D01*
X0506345Y0022550D01*
X0511345Y0022550D01*
X0511595Y0023300D01*
X0503845Y0017550D02*
X0501345Y0015050D01*
X0357595Y0015050D01*
X0357595Y0014800D01*
X0346345Y0005050D02*
X0337595Y0013800D01*
X0337595Y0014800D01*
X0346345Y0005050D02*
X0555095Y0005050D01*
X0552595Y0006300D02*
X0557595Y0011300D01*
X0561895Y0011300D01*
X0562595Y0011300D01*
X0567595Y0006300D01*
X0592595Y0006300D01*
X0597595Y0011300D01*
X0598295Y0011300D01*
X0552595Y0006300D02*
X0536345Y0006300D01*
X0532595Y0010050D01*
X0532595Y0010800D01*
X0522595Y0011800D02*
X0522595Y0012550D01*
X0518845Y0016300D01*
X0511345Y0016300D01*
X0508845Y0013800D01*
X0475095Y0013800D01*
X0473845Y0012550D01*
X0467595Y0030050D02*
X0258845Y0030050D01*
X0247595Y0041300D01*
X0257595Y0041300D02*
X0266345Y0032550D01*
X0453845Y0032550D01*
X0412595Y0046300D02*
X0405095Y0038800D01*
X0403845Y0027550D02*
X0220095Y0027550D01*
X0218845Y0026300D01*
X0135095Y0026300D01*
X0056345Y0016300D02*
X0052595Y0020050D01*
X0056345Y0016300D02*
X0268845Y0016300D01*
X0272595Y0020050D01*
X0406345Y0020050D01*
X0411345Y0025050D01*
X0375095Y0051300D02*
X0373845Y0050050D01*
X0332595Y0050050D01*
X0327595Y0045050D01*
X0327595Y0044800D01*
X0267595Y0051300D02*
X0262595Y0046300D01*
X0398845Y0100050D02*
X0445095Y0100050D01*
X0451345Y0106300D01*
X0451595Y0106800D01*
X0455095Y0138800D02*
X0456345Y0140050D01*
X0465095Y0160050D02*
X0466345Y0161300D01*
X0513845Y0120050D02*
X0521095Y0127300D01*
X0513845Y0120050D02*
X0348845Y0120050D01*
X0347595Y0118800D01*
X0330095Y0122550D02*
X0371345Y0122550D01*
X0376595Y0127800D01*
X0371345Y0186300D02*
X0320095Y0186300D01*
X0316345Y0190050D01*
X0316095Y0191272D01*
X0371345Y0186300D02*
X0375095Y0190050D01*
X0376095Y0191272D01*
X0380095Y0246300D02*
X0445095Y0246300D01*
X0505095Y0246300D01*
X0501345Y0250050D01*
X0501095Y0251272D01*
X0505095Y0246300D02*
X0557595Y0246300D01*
X0565095Y0216300D02*
X0646345Y0216300D01*
X0565095Y0216300D02*
X0560095Y0211300D01*
X0168845Y0211300D01*
X0251345Y0250050D02*
X0251095Y0251272D01*
X0251345Y0250050D02*
X0255095Y0246300D01*
X0311345Y0246300D01*
X0315095Y0250050D01*
X0316095Y0251272D01*
X0376095Y0251272D02*
X0376345Y0250050D01*
X0380095Y0246300D01*
X0441095Y0251272D02*
X0441345Y0250050D01*
X0445095Y0246300D01*
X0092595Y0068800D02*
X0087595Y0073800D01*
X0045095Y0073800D01*
X0037595Y0081300D01*
X0503845Y0017550D02*
X0536345Y0017550D01*
X0551345Y0032550D01*
D27*
X0551345Y0032550D03*
X0507595Y0055050D03*
X0503845Y0066300D03*
X0487595Y0043800D03*
X0453845Y0032550D03*
X0473845Y0012550D03*
X0411345Y0025050D03*
X0403845Y0027550D03*
X0375095Y0051300D03*
X0402595Y0055050D03*
X0458845Y0068800D03*
X0398845Y0100050D03*
X0405095Y0116300D03*
X0446345Y0123800D03*
X0456345Y0140050D03*
X0481345Y0153800D03*
X0466345Y0161300D03*
X0535095Y0142550D03*
X0540095Y0131300D03*
X0347595Y0118800D03*
X0297595Y0097550D03*
X0275095Y0091300D03*
X0253845Y0093800D03*
X0232595Y0101300D03*
X0230095Y0113800D03*
X0235095Y0122550D03*
X0257595Y0112550D03*
X0275095Y0118800D03*
X0238845Y0137550D03*
X0215095Y0140050D03*
X0186345Y0135050D03*
X0198845Y0120050D03*
X0197595Y0115050D03*
X0196345Y0102550D03*
X0147595Y0091300D03*
X0192595Y0072550D03*
X0202595Y0070050D03*
X0205095Y0058800D03*
X0222595Y0063800D03*
X0248845Y0065050D03*
X0257595Y0072550D03*
X0317595Y0073800D03*
X0322595Y0068800D03*
X0327595Y0073800D03*
X0318845Y0083800D03*
X0340095Y0082550D03*
X0321345Y0038800D03*
X0327595Y0036300D03*
X0293845Y0025050D03*
X0293845Y0017550D03*
X0290095Y0013800D03*
X0210095Y0013800D03*
X0206345Y0012550D03*
X0161345Y0036300D03*
X0166345Y0046300D03*
X0177595Y0065050D03*
X0122595Y0046300D03*
X0116345Y0063800D03*
X0135095Y0026300D03*
X0065095Y0026300D03*
X0145095Y0128800D03*
X0170095Y0162550D03*
X0218845Y0155050D03*
X0242595Y0162550D03*
X0246345Y0162550D03*
X0275095Y0173800D03*
X0293845Y0165050D03*
X0308845Y0153800D03*
X0336345Y0157550D03*
X0278845Y0186300D03*
X0241345Y0188800D03*
X0177595Y0192550D03*
X0150095Y0192550D03*
X0147595Y0200050D03*
X0135095Y0236300D03*
X0108845Y0162550D03*
X0091345Y0162550D03*
X0062595Y0138800D03*
X0288845Y0248800D03*
X0318845Y0203800D03*
X0555095Y0005050D03*
D28*
X0573295Y0011300D02*
X0575095Y0013800D01*
X0552595Y0036300D01*
X0515095Y0036300D01*
X0512595Y0038800D01*
X0488845Y0038800D01*
X0482595Y0032550D01*
X0481595Y0032300D01*
X0512595Y0038800D02*
X0512595Y0050050D01*
X0507595Y0055050D01*
X0402595Y0055050D01*
X0297595Y0097550D02*
X0281345Y0097550D01*
X0275095Y0091300D01*
X0205095Y0058800D02*
X0077595Y0058800D01*
X0077595Y0031300D01*
X0087595Y0031300D02*
X0092595Y0036300D01*
X0161345Y0036300D01*
X0166345Y0046300D02*
X0192595Y0046300D01*
X0192595Y0038800D01*
X0186345Y0032550D01*
X0131345Y0032550D01*
X0131345Y0025050D01*
X0133845Y0022550D01*
X0136345Y0022550D01*
X0137595Y0021300D01*
X0097595Y0021300D02*
X0092595Y0026300D01*
X0065095Y0026300D01*
X0206345Y0012550D02*
X0208845Y0010050D01*
X0286345Y0010050D01*
X0290095Y0013800D01*
X0288845Y0017550D02*
X0293845Y0017550D01*
X0288845Y0017550D02*
X0285095Y0013800D01*
X0210095Y0013800D01*
X0267595Y0021300D02*
X0271345Y0025050D01*
X0293845Y0025050D01*
X0106345Y0182550D02*
X0062595Y0138800D01*
X0106345Y0182550D02*
X0583845Y0182550D01*
X0597595Y0196300D01*
X0557595Y0236300D02*
X0135095Y0236300D01*
X0122595Y0196300D02*
X0093845Y0225050D01*
X0073845Y0225050D01*
X0072595Y0226300D01*
X0100095Y0266300D02*
X0112595Y0278800D01*
X0165095Y0278800D01*
X0186345Y0300050D01*
X0205095Y0300050D01*
X0210095Y0305050D01*
X0211095Y0305800D01*
X0211345Y0305050D01*
X0215095Y0301300D01*
X0265095Y0301300D01*
X0265720Y0301925D01*
X0266345Y0301300D01*
X0330095Y0301300D01*
X0330720Y0301925D01*
X0331345Y0301300D01*
X0390095Y0301300D01*
X0390720Y0301925D01*
X0391345Y0301300D01*
X0455095Y0301300D01*
X0455720Y0301925D01*
X0456345Y0301300D01*
X0515095Y0301300D01*
X0520095Y0306300D01*
X0521095Y0306300D01*
X0461095Y0306300D02*
X0460095Y0306300D01*
X0455720Y0301925D01*
X0396095Y0306300D02*
X0395095Y0306300D01*
X0390720Y0301925D01*
X0336095Y0306300D02*
X0335095Y0306300D01*
X0330720Y0301925D01*
X0271095Y0306300D02*
X0270095Y0306300D01*
X0265720Y0301925D01*
X0297595Y0257550D02*
X0378845Y0257550D01*
X0385095Y0251300D01*
X0386095Y0251272D01*
X0297595Y0257550D02*
X0288845Y0248800D01*
X0260095Y0207550D02*
X0493845Y0207550D01*
X0510095Y0191300D01*
X0511095Y0191272D01*
X0622595Y0141300D02*
X0642595Y0141300D01*
X0642595Y0131300D02*
X0622595Y0131300D01*
X0622595Y0121300D02*
X0642595Y0121300D01*
X0642595Y0111300D02*
X0622595Y0111300D01*
X0622595Y0091300D02*
X0626345Y0091300D01*
X0646345Y0071300D01*
X0646895Y0071300D01*
X0622595Y0091300D02*
X0562595Y0091300D01*
X0593845Y0031300D02*
X0629052Y0031300D01*
X0593845Y0031300D02*
X0573845Y0011300D01*
X0573295Y0011300D01*
X0336345Y0157550D02*
X0221345Y0157550D01*
X0218845Y0155050D01*
X0241345Y0188800D02*
X0260095Y0207550D01*
X0278845Y0186300D02*
X0296345Y0203800D01*
X0318845Y0203800D01*
X0285095Y0173800D02*
X0275095Y0173800D01*
X0285095Y0173800D02*
X0293845Y0165050D01*
X0201095Y0191272D02*
X0200095Y0191300D01*
X0193845Y0197550D01*
X0182595Y0197550D01*
X0177595Y0192550D01*
M02*
