G75*
%MOIN*%
%OFA0B0*%
%FSLAX25Y25*%
%IPPOS*%
%LPD*%
%AMOC8*
5,1,8,0,0,1.08239X$1,22.5*
%
%ADD10C,0.00800*%
%ADD11C,0.01200*%
%ADD12C,0.00500*%
%ADD13C,0.01300*%
%ADD14C,0.00600*%
%ADD15C,0.01000*%
%ADD16C,0.00300*%
D10*
X0071103Y0021128D02*
X0071105Y0021269D01*
X0071111Y0021410D01*
X0071121Y0021550D01*
X0071135Y0021690D01*
X0071153Y0021830D01*
X0071174Y0021969D01*
X0071200Y0022108D01*
X0071229Y0022246D01*
X0071263Y0022382D01*
X0071300Y0022518D01*
X0071341Y0022653D01*
X0071386Y0022787D01*
X0071435Y0022919D01*
X0071487Y0023050D01*
X0071543Y0023179D01*
X0071603Y0023306D01*
X0071666Y0023432D01*
X0071732Y0023556D01*
X0071803Y0023679D01*
X0071876Y0023799D01*
X0071953Y0023917D01*
X0072033Y0024033D01*
X0072117Y0024146D01*
X0072203Y0024257D01*
X0072293Y0024366D01*
X0072386Y0024472D01*
X0072481Y0024575D01*
X0072580Y0024676D01*
X0072681Y0024774D01*
X0072785Y0024869D01*
X0072892Y0024961D01*
X0073001Y0025050D01*
X0073113Y0025135D01*
X0073227Y0025218D01*
X0073343Y0025298D01*
X0073462Y0025374D01*
X0073583Y0025446D01*
X0073705Y0025516D01*
X0073830Y0025581D01*
X0073956Y0025644D01*
X0074084Y0025702D01*
X0074214Y0025757D01*
X0074345Y0025809D01*
X0074478Y0025856D01*
X0074612Y0025900D01*
X0074747Y0025941D01*
X0074883Y0025977D01*
X0075020Y0026009D01*
X0075158Y0026038D01*
X0075296Y0026063D01*
X0075436Y0026083D01*
X0075576Y0026100D01*
X0075716Y0026113D01*
X0075857Y0026122D01*
X0075997Y0026127D01*
X0076138Y0026128D01*
X0076279Y0026125D01*
X0076420Y0026118D01*
X0076560Y0026107D01*
X0076700Y0026092D01*
X0076840Y0026073D01*
X0076979Y0026051D01*
X0077117Y0026024D01*
X0077255Y0025994D01*
X0077391Y0025959D01*
X0077527Y0025921D01*
X0077661Y0025879D01*
X0077795Y0025833D01*
X0077927Y0025784D01*
X0078057Y0025730D01*
X0078186Y0025673D01*
X0078313Y0025613D01*
X0078439Y0025549D01*
X0078562Y0025481D01*
X0078684Y0025410D01*
X0078804Y0025336D01*
X0078921Y0025258D01*
X0079036Y0025177D01*
X0079149Y0025093D01*
X0079260Y0025006D01*
X0079368Y0024915D01*
X0079473Y0024822D01*
X0079576Y0024725D01*
X0079676Y0024626D01*
X0079773Y0024524D01*
X0079867Y0024419D01*
X0079958Y0024312D01*
X0080046Y0024202D01*
X0080131Y0024090D01*
X0080213Y0023975D01*
X0080292Y0023858D01*
X0080367Y0023739D01*
X0080439Y0023618D01*
X0080507Y0023495D01*
X0080572Y0023370D01*
X0080634Y0023243D01*
X0080691Y0023114D01*
X0080746Y0022984D01*
X0080796Y0022853D01*
X0080843Y0022720D01*
X0080886Y0022586D01*
X0080925Y0022450D01*
X0080960Y0022314D01*
X0080992Y0022177D01*
X0081019Y0022039D01*
X0081043Y0021900D01*
X0081063Y0021760D01*
X0081079Y0021620D01*
X0081091Y0021480D01*
X0081099Y0021339D01*
X0081103Y0021198D01*
X0081103Y0021058D01*
X0081099Y0020917D01*
X0081091Y0020776D01*
X0081079Y0020636D01*
X0081063Y0020496D01*
X0081043Y0020356D01*
X0081019Y0020217D01*
X0080992Y0020079D01*
X0080960Y0019942D01*
X0080925Y0019806D01*
X0080886Y0019670D01*
X0080843Y0019536D01*
X0080796Y0019403D01*
X0080746Y0019272D01*
X0080691Y0019142D01*
X0080634Y0019013D01*
X0080572Y0018886D01*
X0080507Y0018761D01*
X0080439Y0018638D01*
X0080367Y0018517D01*
X0080292Y0018398D01*
X0080213Y0018281D01*
X0080131Y0018166D01*
X0080046Y0018054D01*
X0079958Y0017944D01*
X0079867Y0017837D01*
X0079773Y0017732D01*
X0079676Y0017630D01*
X0079576Y0017531D01*
X0079473Y0017434D01*
X0079368Y0017341D01*
X0079260Y0017250D01*
X0079149Y0017163D01*
X0079036Y0017079D01*
X0078921Y0016998D01*
X0078804Y0016920D01*
X0078684Y0016846D01*
X0078562Y0016775D01*
X0078439Y0016707D01*
X0078313Y0016643D01*
X0078186Y0016583D01*
X0078057Y0016526D01*
X0077927Y0016472D01*
X0077795Y0016423D01*
X0077661Y0016377D01*
X0077527Y0016335D01*
X0077391Y0016297D01*
X0077255Y0016262D01*
X0077117Y0016232D01*
X0076979Y0016205D01*
X0076840Y0016183D01*
X0076700Y0016164D01*
X0076560Y0016149D01*
X0076420Y0016138D01*
X0076279Y0016131D01*
X0076138Y0016128D01*
X0075997Y0016129D01*
X0075857Y0016134D01*
X0075716Y0016143D01*
X0075576Y0016156D01*
X0075436Y0016173D01*
X0075296Y0016193D01*
X0075158Y0016218D01*
X0075020Y0016247D01*
X0074883Y0016279D01*
X0074747Y0016315D01*
X0074612Y0016356D01*
X0074478Y0016400D01*
X0074345Y0016447D01*
X0074214Y0016499D01*
X0074084Y0016554D01*
X0073956Y0016612D01*
X0073830Y0016675D01*
X0073705Y0016740D01*
X0073583Y0016810D01*
X0073462Y0016882D01*
X0073343Y0016958D01*
X0073227Y0017038D01*
X0073113Y0017121D01*
X0073001Y0017206D01*
X0072892Y0017295D01*
X0072785Y0017387D01*
X0072681Y0017482D01*
X0072580Y0017580D01*
X0072481Y0017681D01*
X0072386Y0017784D01*
X0072293Y0017890D01*
X0072203Y0017999D01*
X0072117Y0018110D01*
X0072033Y0018223D01*
X0071953Y0018339D01*
X0071876Y0018457D01*
X0071803Y0018577D01*
X0071732Y0018700D01*
X0071666Y0018824D01*
X0071603Y0018950D01*
X0071543Y0019077D01*
X0071487Y0019206D01*
X0071435Y0019337D01*
X0071386Y0019469D01*
X0071341Y0019603D01*
X0071300Y0019738D01*
X0071263Y0019874D01*
X0071229Y0020010D01*
X0071200Y0020148D01*
X0071174Y0020287D01*
X0071153Y0020426D01*
X0071135Y0020566D01*
X0071121Y0020706D01*
X0071111Y0020846D01*
X0071105Y0020987D01*
X0071103Y0021128D01*
X0126221Y0021128D02*
X0126223Y0021269D01*
X0126229Y0021410D01*
X0126239Y0021550D01*
X0126253Y0021690D01*
X0126271Y0021830D01*
X0126292Y0021969D01*
X0126318Y0022108D01*
X0126347Y0022246D01*
X0126381Y0022382D01*
X0126418Y0022518D01*
X0126459Y0022653D01*
X0126504Y0022787D01*
X0126553Y0022919D01*
X0126605Y0023050D01*
X0126661Y0023179D01*
X0126721Y0023306D01*
X0126784Y0023432D01*
X0126850Y0023556D01*
X0126921Y0023679D01*
X0126994Y0023799D01*
X0127071Y0023917D01*
X0127151Y0024033D01*
X0127235Y0024146D01*
X0127321Y0024257D01*
X0127411Y0024366D01*
X0127504Y0024472D01*
X0127599Y0024575D01*
X0127698Y0024676D01*
X0127799Y0024774D01*
X0127903Y0024869D01*
X0128010Y0024961D01*
X0128119Y0025050D01*
X0128231Y0025135D01*
X0128345Y0025218D01*
X0128461Y0025298D01*
X0128580Y0025374D01*
X0128701Y0025446D01*
X0128823Y0025516D01*
X0128948Y0025581D01*
X0129074Y0025644D01*
X0129202Y0025702D01*
X0129332Y0025757D01*
X0129463Y0025809D01*
X0129596Y0025856D01*
X0129730Y0025900D01*
X0129865Y0025941D01*
X0130001Y0025977D01*
X0130138Y0026009D01*
X0130276Y0026038D01*
X0130414Y0026063D01*
X0130554Y0026083D01*
X0130694Y0026100D01*
X0130834Y0026113D01*
X0130975Y0026122D01*
X0131115Y0026127D01*
X0131256Y0026128D01*
X0131397Y0026125D01*
X0131538Y0026118D01*
X0131678Y0026107D01*
X0131818Y0026092D01*
X0131958Y0026073D01*
X0132097Y0026051D01*
X0132235Y0026024D01*
X0132373Y0025994D01*
X0132509Y0025959D01*
X0132645Y0025921D01*
X0132779Y0025879D01*
X0132913Y0025833D01*
X0133045Y0025784D01*
X0133175Y0025730D01*
X0133304Y0025673D01*
X0133431Y0025613D01*
X0133557Y0025549D01*
X0133680Y0025481D01*
X0133802Y0025410D01*
X0133922Y0025336D01*
X0134039Y0025258D01*
X0134154Y0025177D01*
X0134267Y0025093D01*
X0134378Y0025006D01*
X0134486Y0024915D01*
X0134591Y0024822D01*
X0134694Y0024725D01*
X0134794Y0024626D01*
X0134891Y0024524D01*
X0134985Y0024419D01*
X0135076Y0024312D01*
X0135164Y0024202D01*
X0135249Y0024090D01*
X0135331Y0023975D01*
X0135410Y0023858D01*
X0135485Y0023739D01*
X0135557Y0023618D01*
X0135625Y0023495D01*
X0135690Y0023370D01*
X0135752Y0023243D01*
X0135809Y0023114D01*
X0135864Y0022984D01*
X0135914Y0022853D01*
X0135961Y0022720D01*
X0136004Y0022586D01*
X0136043Y0022450D01*
X0136078Y0022314D01*
X0136110Y0022177D01*
X0136137Y0022039D01*
X0136161Y0021900D01*
X0136181Y0021760D01*
X0136197Y0021620D01*
X0136209Y0021480D01*
X0136217Y0021339D01*
X0136221Y0021198D01*
X0136221Y0021058D01*
X0136217Y0020917D01*
X0136209Y0020776D01*
X0136197Y0020636D01*
X0136181Y0020496D01*
X0136161Y0020356D01*
X0136137Y0020217D01*
X0136110Y0020079D01*
X0136078Y0019942D01*
X0136043Y0019806D01*
X0136004Y0019670D01*
X0135961Y0019536D01*
X0135914Y0019403D01*
X0135864Y0019272D01*
X0135809Y0019142D01*
X0135752Y0019013D01*
X0135690Y0018886D01*
X0135625Y0018761D01*
X0135557Y0018638D01*
X0135485Y0018517D01*
X0135410Y0018398D01*
X0135331Y0018281D01*
X0135249Y0018166D01*
X0135164Y0018054D01*
X0135076Y0017944D01*
X0134985Y0017837D01*
X0134891Y0017732D01*
X0134794Y0017630D01*
X0134694Y0017531D01*
X0134591Y0017434D01*
X0134486Y0017341D01*
X0134378Y0017250D01*
X0134267Y0017163D01*
X0134154Y0017079D01*
X0134039Y0016998D01*
X0133922Y0016920D01*
X0133802Y0016846D01*
X0133680Y0016775D01*
X0133557Y0016707D01*
X0133431Y0016643D01*
X0133304Y0016583D01*
X0133175Y0016526D01*
X0133045Y0016472D01*
X0132913Y0016423D01*
X0132779Y0016377D01*
X0132645Y0016335D01*
X0132509Y0016297D01*
X0132373Y0016262D01*
X0132235Y0016232D01*
X0132097Y0016205D01*
X0131958Y0016183D01*
X0131818Y0016164D01*
X0131678Y0016149D01*
X0131538Y0016138D01*
X0131397Y0016131D01*
X0131256Y0016128D01*
X0131115Y0016129D01*
X0130975Y0016134D01*
X0130834Y0016143D01*
X0130694Y0016156D01*
X0130554Y0016173D01*
X0130414Y0016193D01*
X0130276Y0016218D01*
X0130138Y0016247D01*
X0130001Y0016279D01*
X0129865Y0016315D01*
X0129730Y0016356D01*
X0129596Y0016400D01*
X0129463Y0016447D01*
X0129332Y0016499D01*
X0129202Y0016554D01*
X0129074Y0016612D01*
X0128948Y0016675D01*
X0128823Y0016740D01*
X0128701Y0016810D01*
X0128580Y0016882D01*
X0128461Y0016958D01*
X0128345Y0017038D01*
X0128231Y0017121D01*
X0128119Y0017206D01*
X0128010Y0017295D01*
X0127903Y0017387D01*
X0127799Y0017482D01*
X0127698Y0017580D01*
X0127599Y0017681D01*
X0127504Y0017784D01*
X0127411Y0017890D01*
X0127321Y0017999D01*
X0127235Y0018110D01*
X0127151Y0018223D01*
X0127071Y0018339D01*
X0126994Y0018457D01*
X0126921Y0018577D01*
X0126850Y0018700D01*
X0126784Y0018824D01*
X0126721Y0018950D01*
X0126661Y0019077D01*
X0126605Y0019206D01*
X0126553Y0019337D01*
X0126504Y0019469D01*
X0126459Y0019603D01*
X0126418Y0019738D01*
X0126381Y0019874D01*
X0126347Y0020010D01*
X0126318Y0020148D01*
X0126292Y0020287D01*
X0126271Y0020426D01*
X0126253Y0020566D01*
X0126239Y0020706D01*
X0126229Y0020846D01*
X0126223Y0020987D01*
X0126221Y0021128D01*
X0155909Y0089772D02*
X0155909Y0093975D01*
X0156609Y0091873D02*
X0158711Y0089772D01*
X0160513Y0089772D02*
X0160513Y0093975D01*
X0163315Y0089772D01*
X0163315Y0093975D01*
X0165117Y0093275D02*
X0165117Y0090472D01*
X0165817Y0089772D01*
X0167218Y0089772D01*
X0167919Y0090472D01*
X0167919Y0093275D01*
X0167218Y0093975D01*
X0165817Y0093975D01*
X0165117Y0093275D01*
X0169720Y0093975D02*
X0171822Y0093975D01*
X0172523Y0093275D01*
X0172523Y0092574D01*
X0171822Y0091873D01*
X0169720Y0091873D01*
X0169720Y0089772D02*
X0169720Y0093975D01*
X0171822Y0091873D02*
X0172523Y0091173D01*
X0172523Y0090472D01*
X0171822Y0089772D01*
X0169720Y0089772D01*
X0174324Y0089772D02*
X0177127Y0092574D01*
X0177127Y0093275D01*
X0176426Y0093975D01*
X0175025Y0093975D01*
X0174324Y0093275D01*
X0174324Y0089772D02*
X0177127Y0089772D01*
X0158711Y0093975D02*
X0155909Y0091173D01*
X0126162Y0094305D02*
X0121162Y0094305D01*
X0050394Y0090272D02*
X0047592Y0090272D01*
X0048993Y0090272D02*
X0048993Y0094475D01*
X0047592Y0093074D01*
X0045791Y0093074D02*
X0045090Y0092373D01*
X0042988Y0092373D01*
X0045090Y0092373D02*
X0045791Y0091673D01*
X0045791Y0090972D01*
X0045090Y0090272D01*
X0042988Y0090272D01*
X0042988Y0094475D01*
X0045090Y0094475D01*
X0045791Y0093775D01*
X0045791Y0093074D01*
X0041187Y0093775D02*
X0041187Y0090972D01*
X0040486Y0090272D01*
X0039085Y0090272D01*
X0038384Y0090972D01*
X0038384Y0093775D01*
X0039085Y0094475D01*
X0040486Y0094475D01*
X0041187Y0093775D01*
X0036583Y0094475D02*
X0036583Y0090272D01*
X0033780Y0094475D01*
X0033780Y0090272D01*
X0031979Y0090272D02*
X0029877Y0092373D01*
X0029176Y0091673D02*
X0031979Y0094475D01*
X0029176Y0094475D02*
X0029176Y0090272D01*
D11*
X0073603Y0023628D02*
X0076103Y0018628D01*
X0073603Y0018628D01*
X0076103Y0018628D02*
X0078603Y0018628D01*
X0076103Y0018628D02*
X0078603Y0023628D01*
X0073603Y0023628D01*
X0128721Y0023628D02*
X0131221Y0018628D01*
X0128721Y0018628D01*
X0131221Y0018628D02*
X0133721Y0018628D01*
X0131221Y0018628D02*
X0133721Y0023628D01*
X0128721Y0023628D01*
D12*
X0120721Y0026128D02*
X0120723Y0026172D01*
X0120729Y0026216D01*
X0120739Y0026259D01*
X0120752Y0026301D01*
X0120769Y0026342D01*
X0120790Y0026381D01*
X0120814Y0026418D01*
X0120841Y0026453D01*
X0120871Y0026485D01*
X0120904Y0026515D01*
X0120940Y0026541D01*
X0120977Y0026565D01*
X0121017Y0026584D01*
X0121058Y0026601D01*
X0121101Y0026613D01*
X0121144Y0026622D01*
X0121188Y0026627D01*
X0121232Y0026628D01*
X0121276Y0026625D01*
X0121320Y0026618D01*
X0121363Y0026607D01*
X0121405Y0026593D01*
X0121445Y0026575D01*
X0121484Y0026553D01*
X0121520Y0026529D01*
X0121554Y0026501D01*
X0121586Y0026470D01*
X0121615Y0026436D01*
X0121641Y0026400D01*
X0121663Y0026362D01*
X0121682Y0026322D01*
X0121697Y0026280D01*
X0121709Y0026238D01*
X0121717Y0026194D01*
X0121721Y0026150D01*
X0121721Y0026106D01*
X0121717Y0026062D01*
X0121709Y0026018D01*
X0121697Y0025976D01*
X0121682Y0025934D01*
X0121663Y0025894D01*
X0121641Y0025856D01*
X0121615Y0025820D01*
X0121586Y0025786D01*
X0121554Y0025755D01*
X0121520Y0025727D01*
X0121484Y0025703D01*
X0121445Y0025681D01*
X0121405Y0025663D01*
X0121363Y0025649D01*
X0121320Y0025638D01*
X0121276Y0025631D01*
X0121232Y0025628D01*
X0121188Y0025629D01*
X0121144Y0025634D01*
X0121101Y0025643D01*
X0121058Y0025655D01*
X0121017Y0025672D01*
X0120977Y0025691D01*
X0120940Y0025715D01*
X0120904Y0025741D01*
X0120871Y0025771D01*
X0120841Y0025803D01*
X0120814Y0025838D01*
X0120790Y0025875D01*
X0120769Y0025914D01*
X0120752Y0025955D01*
X0120739Y0025997D01*
X0120729Y0026040D01*
X0120723Y0026084D01*
X0120721Y0026128D01*
X0121221Y0026128D02*
X0121221Y0016128D01*
X0120721Y0016128D02*
X0120723Y0016172D01*
X0120729Y0016216D01*
X0120739Y0016259D01*
X0120752Y0016301D01*
X0120769Y0016342D01*
X0120790Y0016381D01*
X0120814Y0016418D01*
X0120841Y0016453D01*
X0120871Y0016485D01*
X0120904Y0016515D01*
X0120940Y0016541D01*
X0120977Y0016565D01*
X0121017Y0016584D01*
X0121058Y0016601D01*
X0121101Y0016613D01*
X0121144Y0016622D01*
X0121188Y0016627D01*
X0121232Y0016628D01*
X0121276Y0016625D01*
X0121320Y0016618D01*
X0121363Y0016607D01*
X0121405Y0016593D01*
X0121445Y0016575D01*
X0121484Y0016553D01*
X0121520Y0016529D01*
X0121554Y0016501D01*
X0121586Y0016470D01*
X0121615Y0016436D01*
X0121641Y0016400D01*
X0121663Y0016362D01*
X0121682Y0016322D01*
X0121697Y0016280D01*
X0121709Y0016238D01*
X0121717Y0016194D01*
X0121721Y0016150D01*
X0121721Y0016106D01*
X0121717Y0016062D01*
X0121709Y0016018D01*
X0121697Y0015976D01*
X0121682Y0015934D01*
X0121663Y0015894D01*
X0121641Y0015856D01*
X0121615Y0015820D01*
X0121586Y0015786D01*
X0121554Y0015755D01*
X0121520Y0015727D01*
X0121484Y0015703D01*
X0121445Y0015681D01*
X0121405Y0015663D01*
X0121363Y0015649D01*
X0121320Y0015638D01*
X0121276Y0015631D01*
X0121232Y0015628D01*
X0121188Y0015629D01*
X0121144Y0015634D01*
X0121101Y0015643D01*
X0121058Y0015655D01*
X0121017Y0015672D01*
X0120977Y0015691D01*
X0120940Y0015715D01*
X0120904Y0015741D01*
X0120871Y0015771D01*
X0120841Y0015803D01*
X0120814Y0015838D01*
X0120790Y0015875D01*
X0120769Y0015914D01*
X0120752Y0015955D01*
X0120739Y0015997D01*
X0120729Y0016040D01*
X0120723Y0016084D01*
X0120721Y0016128D01*
X0116221Y0006128D02*
X0146221Y0006128D01*
X0146221Y0036128D01*
X0136221Y0036128D01*
X0136221Y0041128D02*
X0126221Y0036128D01*
X0116221Y0036128D01*
X0116221Y0006128D01*
X0140721Y0016128D02*
X0140723Y0016172D01*
X0140729Y0016216D01*
X0140739Y0016259D01*
X0140752Y0016301D01*
X0140769Y0016342D01*
X0140790Y0016381D01*
X0140814Y0016418D01*
X0140841Y0016453D01*
X0140871Y0016485D01*
X0140904Y0016515D01*
X0140940Y0016541D01*
X0140977Y0016565D01*
X0141017Y0016584D01*
X0141058Y0016601D01*
X0141101Y0016613D01*
X0141144Y0016622D01*
X0141188Y0016627D01*
X0141232Y0016628D01*
X0141276Y0016625D01*
X0141320Y0016618D01*
X0141363Y0016607D01*
X0141405Y0016593D01*
X0141445Y0016575D01*
X0141484Y0016553D01*
X0141520Y0016529D01*
X0141554Y0016501D01*
X0141586Y0016470D01*
X0141615Y0016436D01*
X0141641Y0016400D01*
X0141663Y0016362D01*
X0141682Y0016322D01*
X0141697Y0016280D01*
X0141709Y0016238D01*
X0141717Y0016194D01*
X0141721Y0016150D01*
X0141721Y0016106D01*
X0141717Y0016062D01*
X0141709Y0016018D01*
X0141697Y0015976D01*
X0141682Y0015934D01*
X0141663Y0015894D01*
X0141641Y0015856D01*
X0141615Y0015820D01*
X0141586Y0015786D01*
X0141554Y0015755D01*
X0141520Y0015727D01*
X0141484Y0015703D01*
X0141445Y0015681D01*
X0141405Y0015663D01*
X0141363Y0015649D01*
X0141320Y0015638D01*
X0141276Y0015631D01*
X0141232Y0015628D01*
X0141188Y0015629D01*
X0141144Y0015634D01*
X0141101Y0015643D01*
X0141058Y0015655D01*
X0141017Y0015672D01*
X0140977Y0015691D01*
X0140940Y0015715D01*
X0140904Y0015741D01*
X0140871Y0015771D01*
X0140841Y0015803D01*
X0140814Y0015838D01*
X0140790Y0015875D01*
X0140769Y0015914D01*
X0140752Y0015955D01*
X0140739Y0015997D01*
X0140729Y0016040D01*
X0140723Y0016084D01*
X0140721Y0016128D01*
X0141221Y0016128D02*
X0141221Y0026128D01*
X0140721Y0026128D02*
X0140723Y0026172D01*
X0140729Y0026216D01*
X0140739Y0026259D01*
X0140752Y0026301D01*
X0140769Y0026342D01*
X0140790Y0026381D01*
X0140814Y0026418D01*
X0140841Y0026453D01*
X0140871Y0026485D01*
X0140904Y0026515D01*
X0140940Y0026541D01*
X0140977Y0026565D01*
X0141017Y0026584D01*
X0141058Y0026601D01*
X0141101Y0026613D01*
X0141144Y0026622D01*
X0141188Y0026627D01*
X0141232Y0026628D01*
X0141276Y0026625D01*
X0141320Y0026618D01*
X0141363Y0026607D01*
X0141405Y0026593D01*
X0141445Y0026575D01*
X0141484Y0026553D01*
X0141520Y0026529D01*
X0141554Y0026501D01*
X0141586Y0026470D01*
X0141615Y0026436D01*
X0141641Y0026400D01*
X0141663Y0026362D01*
X0141682Y0026322D01*
X0141697Y0026280D01*
X0141709Y0026238D01*
X0141717Y0026194D01*
X0141721Y0026150D01*
X0141721Y0026106D01*
X0141717Y0026062D01*
X0141709Y0026018D01*
X0141697Y0025976D01*
X0141682Y0025934D01*
X0141663Y0025894D01*
X0141641Y0025856D01*
X0141615Y0025820D01*
X0141586Y0025786D01*
X0141554Y0025755D01*
X0141520Y0025727D01*
X0141484Y0025703D01*
X0141445Y0025681D01*
X0141405Y0025663D01*
X0141363Y0025649D01*
X0141320Y0025638D01*
X0141276Y0025631D01*
X0141232Y0025628D01*
X0141188Y0025629D01*
X0141144Y0025634D01*
X0141101Y0025643D01*
X0141058Y0025655D01*
X0141017Y0025672D01*
X0140977Y0025691D01*
X0140940Y0025715D01*
X0140904Y0025741D01*
X0140871Y0025771D01*
X0140841Y0025803D01*
X0140814Y0025838D01*
X0140790Y0025875D01*
X0140769Y0025914D01*
X0140752Y0025955D01*
X0140739Y0025997D01*
X0140729Y0026040D01*
X0140723Y0026084D01*
X0140721Y0026128D01*
X0155778Y0043872D02*
X0155778Y0058372D01*
X0166528Y0068372D02*
X0166530Y0068568D01*
X0166538Y0068765D01*
X0166550Y0068961D01*
X0166567Y0069156D01*
X0166588Y0069351D01*
X0166615Y0069546D01*
X0166646Y0069740D01*
X0166682Y0069933D01*
X0166722Y0070125D01*
X0166768Y0070316D01*
X0166818Y0070506D01*
X0166872Y0070694D01*
X0166932Y0070881D01*
X0166996Y0071067D01*
X0167064Y0071251D01*
X0167137Y0071433D01*
X0167214Y0071614D01*
X0167296Y0071792D01*
X0167382Y0071969D01*
X0167473Y0072143D01*
X0167567Y0072315D01*
X0167666Y0072485D01*
X0167769Y0072652D01*
X0167876Y0072817D01*
X0167987Y0072978D01*
X0168102Y0073138D01*
X0168221Y0073294D01*
X0168344Y0073447D01*
X0168470Y0073597D01*
X0168600Y0073744D01*
X0168734Y0073888D01*
X0168871Y0074029D01*
X0169012Y0074166D01*
X0169156Y0074300D01*
X0169303Y0074430D01*
X0169453Y0074556D01*
X0169606Y0074679D01*
X0169762Y0074798D01*
X0169922Y0074913D01*
X0170083Y0075024D01*
X0170248Y0075131D01*
X0170415Y0075234D01*
X0170585Y0075333D01*
X0170757Y0075427D01*
X0170931Y0075518D01*
X0171108Y0075604D01*
X0171286Y0075686D01*
X0171467Y0075763D01*
X0171649Y0075836D01*
X0171833Y0075904D01*
X0172019Y0075968D01*
X0172206Y0076028D01*
X0172394Y0076082D01*
X0172584Y0076132D01*
X0172775Y0076178D01*
X0172967Y0076218D01*
X0173160Y0076254D01*
X0173354Y0076285D01*
X0173549Y0076312D01*
X0173744Y0076333D01*
X0173939Y0076350D01*
X0174135Y0076362D01*
X0174332Y0076370D01*
X0174528Y0076372D01*
X0174724Y0076370D01*
X0174921Y0076362D01*
X0175117Y0076350D01*
X0175312Y0076333D01*
X0175507Y0076312D01*
X0175702Y0076285D01*
X0175896Y0076254D01*
X0176089Y0076218D01*
X0176281Y0076178D01*
X0176472Y0076132D01*
X0176662Y0076082D01*
X0176850Y0076028D01*
X0177037Y0075968D01*
X0177223Y0075904D01*
X0177407Y0075836D01*
X0177589Y0075763D01*
X0177770Y0075686D01*
X0177948Y0075604D01*
X0178125Y0075518D01*
X0178299Y0075427D01*
X0178471Y0075333D01*
X0178641Y0075234D01*
X0178808Y0075131D01*
X0178973Y0075024D01*
X0179134Y0074913D01*
X0179294Y0074798D01*
X0179450Y0074679D01*
X0179603Y0074556D01*
X0179753Y0074430D01*
X0179900Y0074300D01*
X0180044Y0074166D01*
X0180185Y0074029D01*
X0180322Y0073888D01*
X0180456Y0073744D01*
X0180586Y0073597D01*
X0180712Y0073447D01*
X0180835Y0073294D01*
X0180954Y0073138D01*
X0181069Y0072978D01*
X0181180Y0072817D01*
X0181287Y0072652D01*
X0181390Y0072485D01*
X0181489Y0072315D01*
X0181583Y0072143D01*
X0181674Y0071969D01*
X0181760Y0071792D01*
X0181842Y0071614D01*
X0181919Y0071433D01*
X0181992Y0071251D01*
X0182060Y0071067D01*
X0182124Y0070881D01*
X0182184Y0070694D01*
X0182238Y0070506D01*
X0182288Y0070316D01*
X0182334Y0070125D01*
X0182374Y0069933D01*
X0182410Y0069740D01*
X0182441Y0069546D01*
X0182468Y0069351D01*
X0182489Y0069156D01*
X0182506Y0068961D01*
X0182518Y0068765D01*
X0182526Y0068568D01*
X0182528Y0068372D01*
X0182526Y0068176D01*
X0182518Y0067979D01*
X0182506Y0067783D01*
X0182489Y0067588D01*
X0182468Y0067393D01*
X0182441Y0067198D01*
X0182410Y0067004D01*
X0182374Y0066811D01*
X0182334Y0066619D01*
X0182288Y0066428D01*
X0182238Y0066238D01*
X0182184Y0066050D01*
X0182124Y0065863D01*
X0182060Y0065677D01*
X0181992Y0065493D01*
X0181919Y0065311D01*
X0181842Y0065130D01*
X0181760Y0064952D01*
X0181674Y0064775D01*
X0181583Y0064601D01*
X0181489Y0064429D01*
X0181390Y0064259D01*
X0181287Y0064092D01*
X0181180Y0063927D01*
X0181069Y0063766D01*
X0180954Y0063606D01*
X0180835Y0063450D01*
X0180712Y0063297D01*
X0180586Y0063147D01*
X0180456Y0063000D01*
X0180322Y0062856D01*
X0180185Y0062715D01*
X0180044Y0062578D01*
X0179900Y0062444D01*
X0179753Y0062314D01*
X0179603Y0062188D01*
X0179450Y0062065D01*
X0179294Y0061946D01*
X0179134Y0061831D01*
X0178973Y0061720D01*
X0178808Y0061613D01*
X0178641Y0061510D01*
X0178471Y0061411D01*
X0178299Y0061317D01*
X0178125Y0061226D01*
X0177948Y0061140D01*
X0177770Y0061058D01*
X0177589Y0060981D01*
X0177407Y0060908D01*
X0177223Y0060840D01*
X0177037Y0060776D01*
X0176850Y0060716D01*
X0176662Y0060662D01*
X0176472Y0060612D01*
X0176281Y0060566D01*
X0176089Y0060526D01*
X0175896Y0060490D01*
X0175702Y0060459D01*
X0175507Y0060432D01*
X0175312Y0060411D01*
X0175117Y0060394D01*
X0174921Y0060382D01*
X0174724Y0060374D01*
X0174528Y0060372D01*
X0174332Y0060374D01*
X0174135Y0060382D01*
X0173939Y0060394D01*
X0173744Y0060411D01*
X0173549Y0060432D01*
X0173354Y0060459D01*
X0173160Y0060490D01*
X0172967Y0060526D01*
X0172775Y0060566D01*
X0172584Y0060612D01*
X0172394Y0060662D01*
X0172206Y0060716D01*
X0172019Y0060776D01*
X0171833Y0060840D01*
X0171649Y0060908D01*
X0171467Y0060981D01*
X0171286Y0061058D01*
X0171108Y0061140D01*
X0170931Y0061226D01*
X0170757Y0061317D01*
X0170585Y0061411D01*
X0170415Y0061510D01*
X0170248Y0061613D01*
X0170083Y0061720D01*
X0169922Y0061831D01*
X0169762Y0061946D01*
X0169606Y0062065D01*
X0169453Y0062188D01*
X0169303Y0062314D01*
X0169156Y0062444D01*
X0169012Y0062578D01*
X0168871Y0062715D01*
X0168734Y0062856D01*
X0168600Y0063000D01*
X0168470Y0063147D01*
X0168344Y0063297D01*
X0168221Y0063450D01*
X0168102Y0063606D01*
X0167987Y0063766D01*
X0167876Y0063927D01*
X0167769Y0064092D01*
X0167666Y0064259D01*
X0167567Y0064429D01*
X0167473Y0064601D01*
X0167382Y0064775D01*
X0167296Y0064952D01*
X0167214Y0065130D01*
X0167137Y0065311D01*
X0167064Y0065493D01*
X0166996Y0065677D01*
X0166932Y0065863D01*
X0166872Y0066050D01*
X0166818Y0066238D01*
X0166768Y0066428D01*
X0166722Y0066619D01*
X0166682Y0066811D01*
X0166646Y0067004D01*
X0166615Y0067198D01*
X0166588Y0067393D01*
X0166567Y0067588D01*
X0166550Y0067783D01*
X0166538Y0067979D01*
X0166530Y0068176D01*
X0166528Y0068372D01*
X0155778Y0078372D02*
X0155778Y0087122D01*
X0155778Y0087372D02*
X0193278Y0087372D01*
X0193278Y0087122D02*
X0193278Y0078372D01*
X0193278Y0058372D02*
X0193278Y0043872D01*
X0155778Y0043872D01*
X0091103Y0036128D02*
X0091103Y0006128D01*
X0061103Y0006128D01*
X0061103Y0036128D01*
X0071103Y0036128D01*
X0081103Y0041128D01*
X0081103Y0036128D02*
X0091103Y0036128D01*
X0085603Y0026128D02*
X0085605Y0026172D01*
X0085611Y0026216D01*
X0085621Y0026259D01*
X0085634Y0026301D01*
X0085651Y0026342D01*
X0085672Y0026381D01*
X0085696Y0026418D01*
X0085723Y0026453D01*
X0085753Y0026485D01*
X0085786Y0026515D01*
X0085822Y0026541D01*
X0085859Y0026565D01*
X0085899Y0026584D01*
X0085940Y0026601D01*
X0085983Y0026613D01*
X0086026Y0026622D01*
X0086070Y0026627D01*
X0086114Y0026628D01*
X0086158Y0026625D01*
X0086202Y0026618D01*
X0086245Y0026607D01*
X0086287Y0026593D01*
X0086327Y0026575D01*
X0086366Y0026553D01*
X0086402Y0026529D01*
X0086436Y0026501D01*
X0086468Y0026470D01*
X0086497Y0026436D01*
X0086523Y0026400D01*
X0086545Y0026362D01*
X0086564Y0026322D01*
X0086579Y0026280D01*
X0086591Y0026238D01*
X0086599Y0026194D01*
X0086603Y0026150D01*
X0086603Y0026106D01*
X0086599Y0026062D01*
X0086591Y0026018D01*
X0086579Y0025976D01*
X0086564Y0025934D01*
X0086545Y0025894D01*
X0086523Y0025856D01*
X0086497Y0025820D01*
X0086468Y0025786D01*
X0086436Y0025755D01*
X0086402Y0025727D01*
X0086366Y0025703D01*
X0086327Y0025681D01*
X0086287Y0025663D01*
X0086245Y0025649D01*
X0086202Y0025638D01*
X0086158Y0025631D01*
X0086114Y0025628D01*
X0086070Y0025629D01*
X0086026Y0025634D01*
X0085983Y0025643D01*
X0085940Y0025655D01*
X0085899Y0025672D01*
X0085859Y0025691D01*
X0085822Y0025715D01*
X0085786Y0025741D01*
X0085753Y0025771D01*
X0085723Y0025803D01*
X0085696Y0025838D01*
X0085672Y0025875D01*
X0085651Y0025914D01*
X0085634Y0025955D01*
X0085621Y0025997D01*
X0085611Y0026040D01*
X0085605Y0026084D01*
X0085603Y0026128D01*
X0086103Y0026128D02*
X0086103Y0016128D01*
X0085603Y0016128D02*
X0085605Y0016172D01*
X0085611Y0016216D01*
X0085621Y0016259D01*
X0085634Y0016301D01*
X0085651Y0016342D01*
X0085672Y0016381D01*
X0085696Y0016418D01*
X0085723Y0016453D01*
X0085753Y0016485D01*
X0085786Y0016515D01*
X0085822Y0016541D01*
X0085859Y0016565D01*
X0085899Y0016584D01*
X0085940Y0016601D01*
X0085983Y0016613D01*
X0086026Y0016622D01*
X0086070Y0016627D01*
X0086114Y0016628D01*
X0086158Y0016625D01*
X0086202Y0016618D01*
X0086245Y0016607D01*
X0086287Y0016593D01*
X0086327Y0016575D01*
X0086366Y0016553D01*
X0086402Y0016529D01*
X0086436Y0016501D01*
X0086468Y0016470D01*
X0086497Y0016436D01*
X0086523Y0016400D01*
X0086545Y0016362D01*
X0086564Y0016322D01*
X0086579Y0016280D01*
X0086591Y0016238D01*
X0086599Y0016194D01*
X0086603Y0016150D01*
X0086603Y0016106D01*
X0086599Y0016062D01*
X0086591Y0016018D01*
X0086579Y0015976D01*
X0086564Y0015934D01*
X0086545Y0015894D01*
X0086523Y0015856D01*
X0086497Y0015820D01*
X0086468Y0015786D01*
X0086436Y0015755D01*
X0086402Y0015727D01*
X0086366Y0015703D01*
X0086327Y0015681D01*
X0086287Y0015663D01*
X0086245Y0015649D01*
X0086202Y0015638D01*
X0086158Y0015631D01*
X0086114Y0015628D01*
X0086070Y0015629D01*
X0086026Y0015634D01*
X0085983Y0015643D01*
X0085940Y0015655D01*
X0085899Y0015672D01*
X0085859Y0015691D01*
X0085822Y0015715D01*
X0085786Y0015741D01*
X0085753Y0015771D01*
X0085723Y0015803D01*
X0085696Y0015838D01*
X0085672Y0015875D01*
X0085651Y0015914D01*
X0085634Y0015955D01*
X0085621Y0015997D01*
X0085611Y0016040D01*
X0085605Y0016084D01*
X0085603Y0016128D01*
X0065603Y0016128D02*
X0065605Y0016172D01*
X0065611Y0016216D01*
X0065621Y0016259D01*
X0065634Y0016301D01*
X0065651Y0016342D01*
X0065672Y0016381D01*
X0065696Y0016418D01*
X0065723Y0016453D01*
X0065753Y0016485D01*
X0065786Y0016515D01*
X0065822Y0016541D01*
X0065859Y0016565D01*
X0065899Y0016584D01*
X0065940Y0016601D01*
X0065983Y0016613D01*
X0066026Y0016622D01*
X0066070Y0016627D01*
X0066114Y0016628D01*
X0066158Y0016625D01*
X0066202Y0016618D01*
X0066245Y0016607D01*
X0066287Y0016593D01*
X0066327Y0016575D01*
X0066366Y0016553D01*
X0066402Y0016529D01*
X0066436Y0016501D01*
X0066468Y0016470D01*
X0066497Y0016436D01*
X0066523Y0016400D01*
X0066545Y0016362D01*
X0066564Y0016322D01*
X0066579Y0016280D01*
X0066591Y0016238D01*
X0066599Y0016194D01*
X0066603Y0016150D01*
X0066603Y0016106D01*
X0066599Y0016062D01*
X0066591Y0016018D01*
X0066579Y0015976D01*
X0066564Y0015934D01*
X0066545Y0015894D01*
X0066523Y0015856D01*
X0066497Y0015820D01*
X0066468Y0015786D01*
X0066436Y0015755D01*
X0066402Y0015727D01*
X0066366Y0015703D01*
X0066327Y0015681D01*
X0066287Y0015663D01*
X0066245Y0015649D01*
X0066202Y0015638D01*
X0066158Y0015631D01*
X0066114Y0015628D01*
X0066070Y0015629D01*
X0066026Y0015634D01*
X0065983Y0015643D01*
X0065940Y0015655D01*
X0065899Y0015672D01*
X0065859Y0015691D01*
X0065822Y0015715D01*
X0065786Y0015741D01*
X0065753Y0015771D01*
X0065723Y0015803D01*
X0065696Y0015838D01*
X0065672Y0015875D01*
X0065651Y0015914D01*
X0065634Y0015955D01*
X0065621Y0015997D01*
X0065611Y0016040D01*
X0065605Y0016084D01*
X0065603Y0016128D01*
X0066103Y0016128D02*
X0066103Y0026128D01*
X0065603Y0026128D02*
X0065605Y0026172D01*
X0065611Y0026216D01*
X0065621Y0026259D01*
X0065634Y0026301D01*
X0065651Y0026342D01*
X0065672Y0026381D01*
X0065696Y0026418D01*
X0065723Y0026453D01*
X0065753Y0026485D01*
X0065786Y0026515D01*
X0065822Y0026541D01*
X0065859Y0026565D01*
X0065899Y0026584D01*
X0065940Y0026601D01*
X0065983Y0026613D01*
X0066026Y0026622D01*
X0066070Y0026627D01*
X0066114Y0026628D01*
X0066158Y0026625D01*
X0066202Y0026618D01*
X0066245Y0026607D01*
X0066287Y0026593D01*
X0066327Y0026575D01*
X0066366Y0026553D01*
X0066402Y0026529D01*
X0066436Y0026501D01*
X0066468Y0026470D01*
X0066497Y0026436D01*
X0066523Y0026400D01*
X0066545Y0026362D01*
X0066564Y0026322D01*
X0066579Y0026280D01*
X0066591Y0026238D01*
X0066599Y0026194D01*
X0066603Y0026150D01*
X0066603Y0026106D01*
X0066599Y0026062D01*
X0066591Y0026018D01*
X0066579Y0025976D01*
X0066564Y0025934D01*
X0066545Y0025894D01*
X0066523Y0025856D01*
X0066497Y0025820D01*
X0066468Y0025786D01*
X0066436Y0025755D01*
X0066402Y0025727D01*
X0066366Y0025703D01*
X0066327Y0025681D01*
X0066287Y0025663D01*
X0066245Y0025649D01*
X0066202Y0025638D01*
X0066158Y0025631D01*
X0066114Y0025628D01*
X0066070Y0025629D01*
X0066026Y0025634D01*
X0065983Y0025643D01*
X0065940Y0025655D01*
X0065899Y0025672D01*
X0065859Y0025691D01*
X0065822Y0025715D01*
X0065786Y0025741D01*
X0065753Y0025771D01*
X0065723Y0025803D01*
X0065696Y0025838D01*
X0065672Y0025875D01*
X0065651Y0025914D01*
X0065634Y0025955D01*
X0065621Y0025997D01*
X0065611Y0026040D01*
X0065605Y0026084D01*
X0065603Y0026128D01*
X0051546Y0043872D02*
X0051546Y0058372D01*
X0024796Y0068372D02*
X0024798Y0068568D01*
X0024806Y0068765D01*
X0024818Y0068961D01*
X0024835Y0069156D01*
X0024856Y0069351D01*
X0024883Y0069546D01*
X0024914Y0069740D01*
X0024950Y0069933D01*
X0024990Y0070125D01*
X0025036Y0070316D01*
X0025086Y0070506D01*
X0025140Y0070694D01*
X0025200Y0070881D01*
X0025264Y0071067D01*
X0025332Y0071251D01*
X0025405Y0071433D01*
X0025482Y0071614D01*
X0025564Y0071792D01*
X0025650Y0071969D01*
X0025741Y0072143D01*
X0025835Y0072315D01*
X0025934Y0072485D01*
X0026037Y0072652D01*
X0026144Y0072817D01*
X0026255Y0072978D01*
X0026370Y0073138D01*
X0026489Y0073294D01*
X0026612Y0073447D01*
X0026738Y0073597D01*
X0026868Y0073744D01*
X0027002Y0073888D01*
X0027139Y0074029D01*
X0027280Y0074166D01*
X0027424Y0074300D01*
X0027571Y0074430D01*
X0027721Y0074556D01*
X0027874Y0074679D01*
X0028030Y0074798D01*
X0028190Y0074913D01*
X0028351Y0075024D01*
X0028516Y0075131D01*
X0028683Y0075234D01*
X0028853Y0075333D01*
X0029025Y0075427D01*
X0029199Y0075518D01*
X0029376Y0075604D01*
X0029554Y0075686D01*
X0029735Y0075763D01*
X0029917Y0075836D01*
X0030101Y0075904D01*
X0030287Y0075968D01*
X0030474Y0076028D01*
X0030662Y0076082D01*
X0030852Y0076132D01*
X0031043Y0076178D01*
X0031235Y0076218D01*
X0031428Y0076254D01*
X0031622Y0076285D01*
X0031817Y0076312D01*
X0032012Y0076333D01*
X0032207Y0076350D01*
X0032403Y0076362D01*
X0032600Y0076370D01*
X0032796Y0076372D01*
X0032992Y0076370D01*
X0033189Y0076362D01*
X0033385Y0076350D01*
X0033580Y0076333D01*
X0033775Y0076312D01*
X0033970Y0076285D01*
X0034164Y0076254D01*
X0034357Y0076218D01*
X0034549Y0076178D01*
X0034740Y0076132D01*
X0034930Y0076082D01*
X0035118Y0076028D01*
X0035305Y0075968D01*
X0035491Y0075904D01*
X0035675Y0075836D01*
X0035857Y0075763D01*
X0036038Y0075686D01*
X0036216Y0075604D01*
X0036393Y0075518D01*
X0036567Y0075427D01*
X0036739Y0075333D01*
X0036909Y0075234D01*
X0037076Y0075131D01*
X0037241Y0075024D01*
X0037402Y0074913D01*
X0037562Y0074798D01*
X0037718Y0074679D01*
X0037871Y0074556D01*
X0038021Y0074430D01*
X0038168Y0074300D01*
X0038312Y0074166D01*
X0038453Y0074029D01*
X0038590Y0073888D01*
X0038724Y0073744D01*
X0038854Y0073597D01*
X0038980Y0073447D01*
X0039103Y0073294D01*
X0039222Y0073138D01*
X0039337Y0072978D01*
X0039448Y0072817D01*
X0039555Y0072652D01*
X0039658Y0072485D01*
X0039757Y0072315D01*
X0039851Y0072143D01*
X0039942Y0071969D01*
X0040028Y0071792D01*
X0040110Y0071614D01*
X0040187Y0071433D01*
X0040260Y0071251D01*
X0040328Y0071067D01*
X0040392Y0070881D01*
X0040452Y0070694D01*
X0040506Y0070506D01*
X0040556Y0070316D01*
X0040602Y0070125D01*
X0040642Y0069933D01*
X0040678Y0069740D01*
X0040709Y0069546D01*
X0040736Y0069351D01*
X0040757Y0069156D01*
X0040774Y0068961D01*
X0040786Y0068765D01*
X0040794Y0068568D01*
X0040796Y0068372D01*
X0040794Y0068176D01*
X0040786Y0067979D01*
X0040774Y0067783D01*
X0040757Y0067588D01*
X0040736Y0067393D01*
X0040709Y0067198D01*
X0040678Y0067004D01*
X0040642Y0066811D01*
X0040602Y0066619D01*
X0040556Y0066428D01*
X0040506Y0066238D01*
X0040452Y0066050D01*
X0040392Y0065863D01*
X0040328Y0065677D01*
X0040260Y0065493D01*
X0040187Y0065311D01*
X0040110Y0065130D01*
X0040028Y0064952D01*
X0039942Y0064775D01*
X0039851Y0064601D01*
X0039757Y0064429D01*
X0039658Y0064259D01*
X0039555Y0064092D01*
X0039448Y0063927D01*
X0039337Y0063766D01*
X0039222Y0063606D01*
X0039103Y0063450D01*
X0038980Y0063297D01*
X0038854Y0063147D01*
X0038724Y0063000D01*
X0038590Y0062856D01*
X0038453Y0062715D01*
X0038312Y0062578D01*
X0038168Y0062444D01*
X0038021Y0062314D01*
X0037871Y0062188D01*
X0037718Y0062065D01*
X0037562Y0061946D01*
X0037402Y0061831D01*
X0037241Y0061720D01*
X0037076Y0061613D01*
X0036909Y0061510D01*
X0036739Y0061411D01*
X0036567Y0061317D01*
X0036393Y0061226D01*
X0036216Y0061140D01*
X0036038Y0061058D01*
X0035857Y0060981D01*
X0035675Y0060908D01*
X0035491Y0060840D01*
X0035305Y0060776D01*
X0035118Y0060716D01*
X0034930Y0060662D01*
X0034740Y0060612D01*
X0034549Y0060566D01*
X0034357Y0060526D01*
X0034164Y0060490D01*
X0033970Y0060459D01*
X0033775Y0060432D01*
X0033580Y0060411D01*
X0033385Y0060394D01*
X0033189Y0060382D01*
X0032992Y0060374D01*
X0032796Y0060372D01*
X0032600Y0060374D01*
X0032403Y0060382D01*
X0032207Y0060394D01*
X0032012Y0060411D01*
X0031817Y0060432D01*
X0031622Y0060459D01*
X0031428Y0060490D01*
X0031235Y0060526D01*
X0031043Y0060566D01*
X0030852Y0060612D01*
X0030662Y0060662D01*
X0030474Y0060716D01*
X0030287Y0060776D01*
X0030101Y0060840D01*
X0029917Y0060908D01*
X0029735Y0060981D01*
X0029554Y0061058D01*
X0029376Y0061140D01*
X0029199Y0061226D01*
X0029025Y0061317D01*
X0028853Y0061411D01*
X0028683Y0061510D01*
X0028516Y0061613D01*
X0028351Y0061720D01*
X0028190Y0061831D01*
X0028030Y0061946D01*
X0027874Y0062065D01*
X0027721Y0062188D01*
X0027571Y0062314D01*
X0027424Y0062444D01*
X0027280Y0062578D01*
X0027139Y0062715D01*
X0027002Y0062856D01*
X0026868Y0063000D01*
X0026738Y0063147D01*
X0026612Y0063297D01*
X0026489Y0063450D01*
X0026370Y0063606D01*
X0026255Y0063766D01*
X0026144Y0063927D01*
X0026037Y0064092D01*
X0025934Y0064259D01*
X0025835Y0064429D01*
X0025741Y0064601D01*
X0025650Y0064775D01*
X0025564Y0064952D01*
X0025482Y0065130D01*
X0025405Y0065311D01*
X0025332Y0065493D01*
X0025264Y0065677D01*
X0025200Y0065863D01*
X0025140Y0066050D01*
X0025086Y0066238D01*
X0025036Y0066428D01*
X0024990Y0066619D01*
X0024950Y0066811D01*
X0024914Y0067004D01*
X0024883Y0067198D01*
X0024856Y0067393D01*
X0024835Y0067588D01*
X0024818Y0067783D01*
X0024806Y0067979D01*
X0024798Y0068176D01*
X0024796Y0068372D01*
X0014046Y0078372D02*
X0014046Y0087122D01*
X0014046Y0087372D02*
X0051546Y0087372D01*
X0051546Y0087122D02*
X0051546Y0078372D01*
X0014046Y0058372D02*
X0014046Y0043872D01*
X0051546Y0043872D01*
D13*
X0070755Y0036376D02*
X0070757Y0036425D01*
X0070763Y0036473D01*
X0070773Y0036521D01*
X0070787Y0036568D01*
X0070804Y0036614D01*
X0070825Y0036658D01*
X0070850Y0036700D01*
X0070878Y0036740D01*
X0070910Y0036778D01*
X0070944Y0036813D01*
X0070981Y0036845D01*
X0071020Y0036874D01*
X0071062Y0036900D01*
X0071106Y0036922D01*
X0071151Y0036940D01*
X0071198Y0036955D01*
X0071245Y0036966D01*
X0071294Y0036973D01*
X0071343Y0036976D01*
X0071392Y0036975D01*
X0071440Y0036970D01*
X0071489Y0036961D01*
X0071536Y0036948D01*
X0071582Y0036931D01*
X0071626Y0036911D01*
X0071669Y0036887D01*
X0071710Y0036860D01*
X0071748Y0036829D01*
X0071784Y0036796D01*
X0071816Y0036760D01*
X0071846Y0036721D01*
X0071873Y0036680D01*
X0071896Y0036636D01*
X0071915Y0036591D01*
X0071931Y0036545D01*
X0071943Y0036498D01*
X0071951Y0036449D01*
X0071955Y0036400D01*
X0071955Y0036352D01*
X0071951Y0036303D01*
X0071943Y0036254D01*
X0071931Y0036207D01*
X0071915Y0036161D01*
X0071896Y0036116D01*
X0071873Y0036072D01*
X0071846Y0036031D01*
X0071816Y0035992D01*
X0071784Y0035956D01*
X0071748Y0035923D01*
X0071710Y0035892D01*
X0071669Y0035865D01*
X0071626Y0035841D01*
X0071582Y0035821D01*
X0071536Y0035804D01*
X0071489Y0035791D01*
X0071440Y0035782D01*
X0071392Y0035777D01*
X0071343Y0035776D01*
X0071294Y0035779D01*
X0071245Y0035786D01*
X0071198Y0035797D01*
X0071151Y0035812D01*
X0071106Y0035830D01*
X0071062Y0035852D01*
X0071020Y0035878D01*
X0070981Y0035907D01*
X0070944Y0035939D01*
X0070910Y0035974D01*
X0070878Y0036012D01*
X0070850Y0036052D01*
X0070825Y0036094D01*
X0070804Y0036138D01*
X0070787Y0036184D01*
X0070773Y0036231D01*
X0070763Y0036279D01*
X0070757Y0036327D01*
X0070755Y0036376D01*
X0080755Y0036376D02*
X0080757Y0036425D01*
X0080763Y0036473D01*
X0080773Y0036521D01*
X0080787Y0036568D01*
X0080804Y0036614D01*
X0080825Y0036658D01*
X0080850Y0036700D01*
X0080878Y0036740D01*
X0080910Y0036778D01*
X0080944Y0036813D01*
X0080981Y0036845D01*
X0081020Y0036874D01*
X0081062Y0036900D01*
X0081106Y0036922D01*
X0081151Y0036940D01*
X0081198Y0036955D01*
X0081245Y0036966D01*
X0081294Y0036973D01*
X0081343Y0036976D01*
X0081392Y0036975D01*
X0081440Y0036970D01*
X0081489Y0036961D01*
X0081536Y0036948D01*
X0081582Y0036931D01*
X0081626Y0036911D01*
X0081669Y0036887D01*
X0081710Y0036860D01*
X0081748Y0036829D01*
X0081784Y0036796D01*
X0081816Y0036760D01*
X0081846Y0036721D01*
X0081873Y0036680D01*
X0081896Y0036636D01*
X0081915Y0036591D01*
X0081931Y0036545D01*
X0081943Y0036498D01*
X0081951Y0036449D01*
X0081955Y0036400D01*
X0081955Y0036352D01*
X0081951Y0036303D01*
X0081943Y0036254D01*
X0081931Y0036207D01*
X0081915Y0036161D01*
X0081896Y0036116D01*
X0081873Y0036072D01*
X0081846Y0036031D01*
X0081816Y0035992D01*
X0081784Y0035956D01*
X0081748Y0035923D01*
X0081710Y0035892D01*
X0081669Y0035865D01*
X0081626Y0035841D01*
X0081582Y0035821D01*
X0081536Y0035804D01*
X0081489Y0035791D01*
X0081440Y0035782D01*
X0081392Y0035777D01*
X0081343Y0035776D01*
X0081294Y0035779D01*
X0081245Y0035786D01*
X0081198Y0035797D01*
X0081151Y0035812D01*
X0081106Y0035830D01*
X0081062Y0035852D01*
X0081020Y0035878D01*
X0080981Y0035907D01*
X0080944Y0035939D01*
X0080910Y0035974D01*
X0080878Y0036012D01*
X0080850Y0036052D01*
X0080825Y0036094D01*
X0080804Y0036138D01*
X0080787Y0036184D01*
X0080773Y0036231D01*
X0080763Y0036279D01*
X0080757Y0036327D01*
X0080755Y0036376D01*
X0125873Y0036376D02*
X0125875Y0036425D01*
X0125881Y0036473D01*
X0125891Y0036521D01*
X0125905Y0036568D01*
X0125922Y0036614D01*
X0125943Y0036658D01*
X0125968Y0036700D01*
X0125996Y0036740D01*
X0126028Y0036778D01*
X0126062Y0036813D01*
X0126099Y0036845D01*
X0126138Y0036874D01*
X0126180Y0036900D01*
X0126224Y0036922D01*
X0126269Y0036940D01*
X0126316Y0036955D01*
X0126363Y0036966D01*
X0126412Y0036973D01*
X0126461Y0036976D01*
X0126510Y0036975D01*
X0126558Y0036970D01*
X0126607Y0036961D01*
X0126654Y0036948D01*
X0126700Y0036931D01*
X0126744Y0036911D01*
X0126787Y0036887D01*
X0126828Y0036860D01*
X0126866Y0036829D01*
X0126902Y0036796D01*
X0126934Y0036760D01*
X0126964Y0036721D01*
X0126991Y0036680D01*
X0127014Y0036636D01*
X0127033Y0036591D01*
X0127049Y0036545D01*
X0127061Y0036498D01*
X0127069Y0036449D01*
X0127073Y0036400D01*
X0127073Y0036352D01*
X0127069Y0036303D01*
X0127061Y0036254D01*
X0127049Y0036207D01*
X0127033Y0036161D01*
X0127014Y0036116D01*
X0126991Y0036072D01*
X0126964Y0036031D01*
X0126934Y0035992D01*
X0126902Y0035956D01*
X0126866Y0035923D01*
X0126828Y0035892D01*
X0126787Y0035865D01*
X0126744Y0035841D01*
X0126700Y0035821D01*
X0126654Y0035804D01*
X0126607Y0035791D01*
X0126558Y0035782D01*
X0126510Y0035777D01*
X0126461Y0035776D01*
X0126412Y0035779D01*
X0126363Y0035786D01*
X0126316Y0035797D01*
X0126269Y0035812D01*
X0126224Y0035830D01*
X0126180Y0035852D01*
X0126138Y0035878D01*
X0126099Y0035907D01*
X0126062Y0035939D01*
X0126028Y0035974D01*
X0125996Y0036012D01*
X0125968Y0036052D01*
X0125943Y0036094D01*
X0125922Y0036138D01*
X0125905Y0036184D01*
X0125891Y0036231D01*
X0125881Y0036279D01*
X0125875Y0036327D01*
X0125873Y0036376D01*
X0135873Y0036376D02*
X0135875Y0036425D01*
X0135881Y0036473D01*
X0135891Y0036521D01*
X0135905Y0036568D01*
X0135922Y0036614D01*
X0135943Y0036658D01*
X0135968Y0036700D01*
X0135996Y0036740D01*
X0136028Y0036778D01*
X0136062Y0036813D01*
X0136099Y0036845D01*
X0136138Y0036874D01*
X0136180Y0036900D01*
X0136224Y0036922D01*
X0136269Y0036940D01*
X0136316Y0036955D01*
X0136363Y0036966D01*
X0136412Y0036973D01*
X0136461Y0036976D01*
X0136510Y0036975D01*
X0136558Y0036970D01*
X0136607Y0036961D01*
X0136654Y0036948D01*
X0136700Y0036931D01*
X0136744Y0036911D01*
X0136787Y0036887D01*
X0136828Y0036860D01*
X0136866Y0036829D01*
X0136902Y0036796D01*
X0136934Y0036760D01*
X0136964Y0036721D01*
X0136991Y0036680D01*
X0137014Y0036636D01*
X0137033Y0036591D01*
X0137049Y0036545D01*
X0137061Y0036498D01*
X0137069Y0036449D01*
X0137073Y0036400D01*
X0137073Y0036352D01*
X0137069Y0036303D01*
X0137061Y0036254D01*
X0137049Y0036207D01*
X0137033Y0036161D01*
X0137014Y0036116D01*
X0136991Y0036072D01*
X0136964Y0036031D01*
X0136934Y0035992D01*
X0136902Y0035956D01*
X0136866Y0035923D01*
X0136828Y0035892D01*
X0136787Y0035865D01*
X0136744Y0035841D01*
X0136700Y0035821D01*
X0136654Y0035804D01*
X0136607Y0035791D01*
X0136558Y0035782D01*
X0136510Y0035777D01*
X0136461Y0035776D01*
X0136412Y0035779D01*
X0136363Y0035786D01*
X0136316Y0035797D01*
X0136269Y0035812D01*
X0136224Y0035830D01*
X0136180Y0035852D01*
X0136138Y0035878D01*
X0136099Y0035907D01*
X0136062Y0035939D01*
X0136028Y0035974D01*
X0135996Y0036012D01*
X0135968Y0036052D01*
X0135943Y0036094D01*
X0135922Y0036138D01*
X0135905Y0036184D01*
X0135891Y0036231D01*
X0135881Y0036279D01*
X0135875Y0036327D01*
X0135873Y0036376D01*
D14*
X0054470Y0032428D02*
X0053903Y0032995D01*
X0054470Y0032428D02*
X0055605Y0032428D01*
X0056172Y0032995D01*
X0056172Y0033562D01*
X0055605Y0034129D01*
X0054470Y0034129D01*
X0053903Y0034696D01*
X0053903Y0035263D01*
X0054470Y0035830D01*
X0055605Y0035830D01*
X0056172Y0035263D01*
X0057586Y0034696D02*
X0058721Y0035830D01*
X0058721Y0032428D01*
X0059855Y0032428D02*
X0057586Y0032428D01*
X0103662Y0074372D02*
X0103816Y0074370D01*
X0103970Y0074364D01*
X0104124Y0074354D01*
X0104278Y0074340D01*
X0104431Y0074323D01*
X0104583Y0074301D01*
X0104735Y0074275D01*
X0104887Y0074246D01*
X0105037Y0074212D01*
X0105187Y0074175D01*
X0105335Y0074134D01*
X0105483Y0074089D01*
X0105629Y0074040D01*
X0105774Y0073988D01*
X0105917Y0073932D01*
X0106060Y0073872D01*
X0106200Y0073809D01*
X0106339Y0073742D01*
X0106476Y0073671D01*
X0106611Y0073597D01*
X0106744Y0073520D01*
X0106876Y0073439D01*
X0107005Y0073355D01*
X0107132Y0073267D01*
X0107256Y0073176D01*
X0107378Y0073083D01*
X0107498Y0072985D01*
X0107615Y0072885D01*
X0107730Y0072782D01*
X0107842Y0072676D01*
X0107951Y0072568D01*
X0108057Y0072456D01*
X0108161Y0072342D01*
X0108261Y0072225D01*
X0108359Y0072106D01*
X0108453Y0071984D01*
X0108544Y0071859D01*
X0103662Y0062372D02*
X0103510Y0062374D01*
X0103359Y0062380D01*
X0103208Y0062389D01*
X0103056Y0062403D01*
X0102906Y0062420D01*
X0102756Y0062441D01*
X0102606Y0062466D01*
X0102457Y0062494D01*
X0102309Y0062527D01*
X0102162Y0062563D01*
X0102015Y0062602D01*
X0101870Y0062646D01*
X0101726Y0062693D01*
X0101583Y0062744D01*
X0101442Y0062798D01*
X0101301Y0062856D01*
X0101163Y0062917D01*
X0101026Y0062982D01*
X0100890Y0063051D01*
X0100757Y0063122D01*
X0100625Y0063197D01*
X0100495Y0063276D01*
X0100368Y0063357D01*
X0100242Y0063442D01*
X0100118Y0063530D01*
X0099997Y0063621D01*
X0099878Y0063715D01*
X0099762Y0063813D01*
X0099648Y0063913D01*
X0099536Y0064015D01*
X0099428Y0064121D01*
X0099322Y0064229D01*
X0099218Y0064340D01*
X0099118Y0064454D01*
X0099020Y0064570D01*
X0098926Y0064689D01*
X0103662Y0062372D02*
X0103814Y0062374D01*
X0103965Y0062380D01*
X0104116Y0062389D01*
X0104268Y0062403D01*
X0104418Y0062420D01*
X0104568Y0062441D01*
X0104718Y0062466D01*
X0104867Y0062494D01*
X0105015Y0062527D01*
X0105162Y0062563D01*
X0105309Y0062602D01*
X0105454Y0062646D01*
X0105598Y0062693D01*
X0105741Y0062744D01*
X0105882Y0062798D01*
X0106023Y0062856D01*
X0106161Y0062917D01*
X0106298Y0062982D01*
X0106434Y0063051D01*
X0106567Y0063122D01*
X0106699Y0063197D01*
X0106829Y0063276D01*
X0106956Y0063357D01*
X0107082Y0063442D01*
X0107206Y0063530D01*
X0107327Y0063621D01*
X0107446Y0063715D01*
X0107562Y0063813D01*
X0107676Y0063913D01*
X0107788Y0064015D01*
X0107896Y0064121D01*
X0108002Y0064229D01*
X0108106Y0064340D01*
X0108206Y0064454D01*
X0108304Y0064570D01*
X0108398Y0064689D01*
X0103662Y0074372D02*
X0103512Y0074370D01*
X0103361Y0074364D01*
X0103211Y0074355D01*
X0103062Y0074342D01*
X0102912Y0074325D01*
X0102763Y0074304D01*
X0102615Y0074280D01*
X0102467Y0074252D01*
X0102320Y0074220D01*
X0102174Y0074185D01*
X0102029Y0074145D01*
X0101885Y0074103D01*
X0101742Y0074056D01*
X0101600Y0074006D01*
X0101459Y0073953D01*
X0101320Y0073896D01*
X0101182Y0073836D01*
X0101046Y0073772D01*
X0100912Y0073705D01*
X0100779Y0073634D01*
X0100648Y0073560D01*
X0100519Y0073483D01*
X0100392Y0073402D01*
X0100267Y0073319D01*
X0100144Y0073232D01*
X0100023Y0073143D01*
X0099905Y0073050D01*
X0099789Y0072954D01*
X0099675Y0072856D01*
X0099564Y0072755D01*
X0099455Y0072650D01*
X0099350Y0072544D01*
X0099246Y0072434D01*
X0099146Y0072322D01*
X0099048Y0072208D01*
X0098954Y0072091D01*
X0098862Y0071972D01*
X0099231Y0077672D02*
X0096962Y0077672D01*
X0096962Y0081075D01*
X0100645Y0081075D02*
X0100645Y0077672D01*
X0102914Y0077672D01*
X0104328Y0077672D02*
X0106030Y0077672D01*
X0106597Y0078239D01*
X0106597Y0080507D01*
X0106030Y0081075D01*
X0104328Y0081075D01*
X0104328Y0077672D01*
X0101780Y0079373D02*
X0100645Y0079373D01*
X0100645Y0081075D02*
X0102914Y0081075D01*
X0108012Y0079940D02*
X0109146Y0081075D01*
X0109146Y0077672D01*
X0108012Y0077672D02*
X0110280Y0077672D01*
X0148088Y0034830D02*
X0147521Y0034263D01*
X0147521Y0033696D01*
X0148088Y0033129D01*
X0149223Y0033129D01*
X0149790Y0032562D01*
X0149790Y0031995D01*
X0149223Y0031428D01*
X0148088Y0031428D01*
X0147521Y0031995D01*
X0151204Y0031428D02*
X0153473Y0033696D01*
X0153473Y0034263D01*
X0152906Y0034830D01*
X0151772Y0034830D01*
X0151204Y0034263D01*
X0149790Y0034263D02*
X0149223Y0034830D01*
X0148088Y0034830D01*
X0151204Y0031428D02*
X0153473Y0031428D01*
D15*
X0103662Y0076372D02*
X0103470Y0076370D01*
X0103278Y0076363D01*
X0103086Y0076351D01*
X0102894Y0076335D01*
X0102703Y0076314D01*
X0102513Y0076289D01*
X0102323Y0076259D01*
X0102134Y0076225D01*
X0101946Y0076186D01*
X0101759Y0076142D01*
X0101573Y0076094D01*
X0101388Y0076042D01*
X0101204Y0075985D01*
X0101022Y0075924D01*
X0100842Y0075858D01*
X0100663Y0075788D01*
X0100485Y0075714D01*
X0100310Y0075636D01*
X0100136Y0075553D01*
X0099965Y0075466D01*
X0099796Y0075376D01*
X0099629Y0075281D01*
X0099464Y0075182D01*
X0099301Y0075079D01*
X0099142Y0074972D01*
X0098984Y0074862D01*
X0098830Y0074748D01*
X0098678Y0074630D01*
X0098529Y0074508D01*
X0098383Y0074383D01*
X0098241Y0074255D01*
X0098101Y0074123D01*
X0097964Y0073988D01*
X0097831Y0073849D01*
X0097701Y0073708D01*
X0097575Y0073563D01*
X0097452Y0073415D01*
X0097333Y0073265D01*
X0097217Y0073111D01*
X0097105Y0072955D01*
X0096997Y0072796D01*
X0096892Y0072635D01*
X0096792Y0072471D01*
X0096696Y0072305D01*
X0096603Y0072137D01*
X0096716Y0064403D02*
X0096815Y0064234D01*
X0096919Y0064068D01*
X0097026Y0063904D01*
X0097137Y0063743D01*
X0097252Y0063585D01*
X0097371Y0063430D01*
X0097494Y0063277D01*
X0097620Y0063128D01*
X0097750Y0062982D01*
X0097884Y0062839D01*
X0098021Y0062699D01*
X0098161Y0062563D01*
X0098305Y0062430D01*
X0098452Y0062301D01*
X0098602Y0062175D01*
X0098755Y0062054D01*
X0098911Y0061935D01*
X0099070Y0061821D01*
X0099231Y0061711D01*
X0099396Y0061605D01*
X0099562Y0061502D01*
X0099732Y0061404D01*
X0099903Y0061310D01*
X0100077Y0061220D01*
X0100253Y0061135D01*
X0100431Y0061053D01*
X0100611Y0060977D01*
X0100793Y0060904D01*
X0100976Y0060836D01*
X0101161Y0060773D01*
X0101348Y0060714D01*
X0101536Y0060660D01*
X0101725Y0060610D01*
X0101915Y0060565D01*
X0102107Y0060525D01*
X0102299Y0060489D01*
X0102492Y0060458D01*
X0102686Y0060432D01*
X0102881Y0060410D01*
X0103076Y0060394D01*
X0103271Y0060382D01*
X0103467Y0060374D01*
X0103662Y0060372D01*
X0103855Y0060374D01*
X0104048Y0060381D01*
X0104240Y0060393D01*
X0104433Y0060409D01*
X0104625Y0060430D01*
X0104816Y0060456D01*
X0105006Y0060486D01*
X0105196Y0060521D01*
X0105385Y0060560D01*
X0105573Y0060604D01*
X0105760Y0060652D01*
X0105946Y0060705D01*
X0106130Y0060762D01*
X0106313Y0060824D01*
X0106494Y0060890D01*
X0106674Y0060961D01*
X0106852Y0061035D01*
X0107028Y0061114D01*
X0107202Y0061198D01*
X0107374Y0061285D01*
X0107544Y0061377D01*
X0107711Y0061473D01*
X0107877Y0061572D01*
X0108040Y0061676D01*
X0108200Y0061783D01*
X0108357Y0061895D01*
X0108512Y0062010D01*
X0108664Y0062129D01*
X0108813Y0062251D01*
X0108960Y0062377D01*
X0109103Y0062507D01*
X0109243Y0062640D01*
X0109379Y0062776D01*
X0109513Y0062916D01*
X0109642Y0063058D01*
X0109769Y0063204D01*
X0109808Y0073494D02*
X0109681Y0073642D01*
X0109551Y0073787D01*
X0109418Y0073928D01*
X0109281Y0074067D01*
X0109141Y0074202D01*
X0108997Y0074333D01*
X0108850Y0074461D01*
X0108701Y0074586D01*
X0108548Y0074707D01*
X0108393Y0074824D01*
X0108234Y0074937D01*
X0108073Y0075046D01*
X0107909Y0075151D01*
X0107743Y0075253D01*
X0107574Y0075350D01*
X0107404Y0075443D01*
X0107230Y0075532D01*
X0107055Y0075617D01*
X0106878Y0075697D01*
X0106699Y0075773D01*
X0106518Y0075845D01*
X0106335Y0075912D01*
X0106151Y0075975D01*
X0105965Y0076033D01*
X0105778Y0076087D01*
X0105590Y0076136D01*
X0105400Y0076181D01*
X0105210Y0076221D01*
X0105018Y0076256D01*
X0104826Y0076287D01*
X0104633Y0076313D01*
X0104439Y0076334D01*
X0104245Y0076351D01*
X0104051Y0076363D01*
X0103857Y0076370D01*
X0103662Y0076372D01*
D16*
X0095685Y0069490D02*
X0094451Y0070725D01*
X0095685Y0069490D02*
X0095685Y0068256D01*
X0094451Y0067022D01*
X0093236Y0068873D02*
X0090768Y0068873D01*
X0092002Y0070108D02*
X0092002Y0067639D01*
X0089547Y0067022D02*
X0088312Y0068256D01*
X0088312Y0069490D01*
X0089547Y0070725D01*
X0111812Y0068990D02*
X0111812Y0067756D01*
X0113047Y0066522D01*
X0114268Y0068373D02*
X0116736Y0068373D01*
X0117951Y0066522D02*
X0119185Y0067756D01*
X0119185Y0068990D01*
X0117951Y0070225D01*
X0113047Y0070225D02*
X0111812Y0068990D01*
M02*
