G75*
%MOIN*%
%OFA0B0*%
%FSLAX25Y25*%
%IPPOS*%
%LPD*%
%AMOC8*
5,1,8,0,0,1.08239X$1,22.5*
%
%ADD10C,0.07400*%
%ADD11C,0.06600*%
%ADD12C,0.06000*%
%ADD13OC8,0.05200*%
%ADD14C,0.07000*%
%ADD15C,0.11811*%
%ADD16C,0.00600*%
%ADD17C,0.01600*%
%ADD18C,0.02978*%
D10*
X0083662Y0099879D03*
X0093662Y0099879D03*
X0103662Y0099879D03*
X0113662Y0099879D03*
X0123662Y0099879D03*
X0123662Y0110879D03*
X0113662Y0110879D03*
X0103662Y0110879D03*
X0093662Y0110879D03*
X0083662Y0110879D03*
D11*
X0086103Y0031128D03*
X0076103Y0031128D03*
X0066103Y0031128D03*
X0066103Y0011128D03*
X0076103Y0011128D03*
X0086103Y0011128D03*
X0121221Y0011128D03*
X0131221Y0011128D03*
X0141221Y0011128D03*
X0141221Y0031128D03*
X0131221Y0031128D03*
X0121221Y0031128D03*
D12*
X0149568Y0115734D03*
X0159568Y0115734D03*
X0169568Y0115734D03*
X0057993Y0115734D03*
X0047993Y0115734D03*
X0037993Y0115734D03*
D13*
X0076103Y0079435D03*
X0098662Y0068372D03*
X0108662Y0068372D03*
X0131221Y0079435D03*
X0131221Y0049435D03*
X0103662Y0040065D03*
X0076103Y0049435D03*
X0103662Y0010065D03*
D14*
X0022796Y0038844D03*
X0032796Y0038844D03*
X0042796Y0038844D03*
X0164528Y0038844D03*
X0174528Y0038844D03*
X0184528Y0038844D03*
D15*
X0193426Y0068372D03*
X0155631Y0068372D03*
X0051694Y0068372D03*
X0013898Y0068372D03*
D16*
X0022900Y0066842D02*
X0056350Y0100292D01*
X0041200Y0115442D01*
X0038200Y0115442D01*
X0037993Y0115734D01*
X0056350Y0100292D02*
X0056500Y0100142D01*
X0083500Y0100142D01*
X0083662Y0099879D01*
X0083800Y0100142D01*
X0088300Y0104642D01*
X0095500Y0104642D01*
X0098500Y0101642D01*
X0098500Y0098342D01*
X0112300Y0084542D01*
X0112300Y0063242D01*
X0129700Y0045842D01*
X0164500Y0045842D01*
X0164500Y0069242D01*
X0149500Y0084242D01*
X0149500Y0115442D01*
X0149568Y0115734D01*
X0108400Y0106142D02*
X0108400Y0097142D01*
X0131200Y0074342D01*
X0131200Y0049442D01*
X0131221Y0049435D01*
X0108700Y0037442D02*
X0108700Y0068342D01*
X0108662Y0068372D01*
X0093700Y0044942D02*
X0093700Y0099842D01*
X0093662Y0099879D01*
X0103900Y0110642D02*
X0108400Y0106142D01*
X0103900Y0110642D02*
X0103662Y0110879D01*
X0022900Y0066842D02*
X0022900Y0038942D01*
X0022796Y0038844D01*
X0093700Y0044942D02*
X0103600Y0035042D01*
X0103600Y0010142D01*
X0103662Y0010065D01*
X0131200Y0011342D02*
X0131221Y0011128D01*
X0131200Y0011342D02*
X0131200Y0014942D01*
X0108700Y0037442D01*
X0164500Y0038942D02*
X0164528Y0038844D01*
X0164500Y0038942D02*
X0164500Y0045842D01*
D17*
X0169600Y0053642D02*
X0184300Y0038942D01*
X0184528Y0038844D01*
X0169600Y0053642D02*
X0169600Y0110042D01*
X0153100Y0110042D01*
X0169600Y0110042D02*
X0169600Y0115442D01*
X0169568Y0115734D01*
X0130000Y0113342D02*
X0130000Y0108542D01*
X0123700Y0102242D01*
X0123700Y0100142D01*
X0123662Y0099879D01*
X0130000Y0113342D02*
X0126100Y0117242D01*
X0067300Y0117242D01*
X0060100Y0110042D01*
X0053500Y0110042D01*
X0048100Y0115442D01*
X0047993Y0115734D01*
D18*
X0153100Y0110042D03*
M02*
