G75*
%MOIN*%
%OFA0B0*%
%FSLAX25Y25*%
%IPPOS*%
%LPD*%
%AMOC8*
5,1,8,0,0,1.08239X$1,22.5*
%
%ADD10C,0.00000*%
%ADD11C,0.00600*%
D10*
X0009174Y0017191D02*
X0009176Y0017384D01*
X0009183Y0017577D01*
X0009195Y0017770D01*
X0009212Y0017963D01*
X0009233Y0018155D01*
X0009259Y0018346D01*
X0009290Y0018537D01*
X0009325Y0018727D01*
X0009365Y0018916D01*
X0009410Y0019104D01*
X0009459Y0019291D01*
X0009513Y0019477D01*
X0009571Y0019661D01*
X0009634Y0019844D01*
X0009702Y0020025D01*
X0009773Y0020204D01*
X0009850Y0020382D01*
X0009930Y0020558D01*
X0010015Y0020731D01*
X0010104Y0020903D01*
X0010197Y0021072D01*
X0010294Y0021239D01*
X0010396Y0021404D01*
X0010501Y0021566D01*
X0010610Y0021725D01*
X0010724Y0021882D01*
X0010841Y0022035D01*
X0010961Y0022186D01*
X0011086Y0022334D01*
X0011214Y0022479D01*
X0011345Y0022620D01*
X0011480Y0022759D01*
X0011619Y0022894D01*
X0011760Y0023025D01*
X0011905Y0023153D01*
X0012053Y0023278D01*
X0012204Y0023398D01*
X0012357Y0023515D01*
X0012514Y0023629D01*
X0012673Y0023738D01*
X0012835Y0023843D01*
X0013000Y0023945D01*
X0013167Y0024042D01*
X0013336Y0024135D01*
X0013508Y0024224D01*
X0013681Y0024309D01*
X0013857Y0024389D01*
X0014035Y0024466D01*
X0014214Y0024537D01*
X0014395Y0024605D01*
X0014578Y0024668D01*
X0014762Y0024726D01*
X0014948Y0024780D01*
X0015135Y0024829D01*
X0015323Y0024874D01*
X0015512Y0024914D01*
X0015702Y0024949D01*
X0015893Y0024980D01*
X0016084Y0025006D01*
X0016276Y0025027D01*
X0016469Y0025044D01*
X0016662Y0025056D01*
X0016855Y0025063D01*
X0017048Y0025065D01*
X0017241Y0025063D01*
X0017434Y0025056D01*
X0017627Y0025044D01*
X0017820Y0025027D01*
X0018012Y0025006D01*
X0018203Y0024980D01*
X0018394Y0024949D01*
X0018584Y0024914D01*
X0018773Y0024874D01*
X0018961Y0024829D01*
X0019148Y0024780D01*
X0019334Y0024726D01*
X0019518Y0024668D01*
X0019701Y0024605D01*
X0019882Y0024537D01*
X0020061Y0024466D01*
X0020239Y0024389D01*
X0020415Y0024309D01*
X0020588Y0024224D01*
X0020760Y0024135D01*
X0020929Y0024042D01*
X0021096Y0023945D01*
X0021261Y0023843D01*
X0021423Y0023738D01*
X0021582Y0023629D01*
X0021739Y0023515D01*
X0021892Y0023398D01*
X0022043Y0023278D01*
X0022191Y0023153D01*
X0022336Y0023025D01*
X0022477Y0022894D01*
X0022616Y0022759D01*
X0022751Y0022620D01*
X0022882Y0022479D01*
X0023010Y0022334D01*
X0023135Y0022186D01*
X0023255Y0022035D01*
X0023372Y0021882D01*
X0023486Y0021725D01*
X0023595Y0021566D01*
X0023700Y0021404D01*
X0023802Y0021239D01*
X0023899Y0021072D01*
X0023992Y0020903D01*
X0024081Y0020731D01*
X0024166Y0020558D01*
X0024246Y0020382D01*
X0024323Y0020204D01*
X0024394Y0020025D01*
X0024462Y0019844D01*
X0024525Y0019661D01*
X0024583Y0019477D01*
X0024637Y0019291D01*
X0024686Y0019104D01*
X0024731Y0018916D01*
X0024771Y0018727D01*
X0024806Y0018537D01*
X0024837Y0018346D01*
X0024863Y0018155D01*
X0024884Y0017963D01*
X0024901Y0017770D01*
X0024913Y0017577D01*
X0024920Y0017384D01*
X0024922Y0017191D01*
X0024920Y0016998D01*
X0024913Y0016805D01*
X0024901Y0016612D01*
X0024884Y0016419D01*
X0024863Y0016227D01*
X0024837Y0016036D01*
X0024806Y0015845D01*
X0024771Y0015655D01*
X0024731Y0015466D01*
X0024686Y0015278D01*
X0024637Y0015091D01*
X0024583Y0014905D01*
X0024525Y0014721D01*
X0024462Y0014538D01*
X0024394Y0014357D01*
X0024323Y0014178D01*
X0024246Y0014000D01*
X0024166Y0013824D01*
X0024081Y0013651D01*
X0023992Y0013479D01*
X0023899Y0013310D01*
X0023802Y0013143D01*
X0023700Y0012978D01*
X0023595Y0012816D01*
X0023486Y0012657D01*
X0023372Y0012500D01*
X0023255Y0012347D01*
X0023135Y0012196D01*
X0023010Y0012048D01*
X0022882Y0011903D01*
X0022751Y0011762D01*
X0022616Y0011623D01*
X0022477Y0011488D01*
X0022336Y0011357D01*
X0022191Y0011229D01*
X0022043Y0011104D01*
X0021892Y0010984D01*
X0021739Y0010867D01*
X0021582Y0010753D01*
X0021423Y0010644D01*
X0021261Y0010539D01*
X0021096Y0010437D01*
X0020929Y0010340D01*
X0020760Y0010247D01*
X0020588Y0010158D01*
X0020415Y0010073D01*
X0020239Y0009993D01*
X0020061Y0009916D01*
X0019882Y0009845D01*
X0019701Y0009777D01*
X0019518Y0009714D01*
X0019334Y0009656D01*
X0019148Y0009602D01*
X0018961Y0009553D01*
X0018773Y0009508D01*
X0018584Y0009468D01*
X0018394Y0009433D01*
X0018203Y0009402D01*
X0018012Y0009376D01*
X0017820Y0009355D01*
X0017627Y0009338D01*
X0017434Y0009326D01*
X0017241Y0009319D01*
X0017048Y0009317D01*
X0016855Y0009319D01*
X0016662Y0009326D01*
X0016469Y0009338D01*
X0016276Y0009355D01*
X0016084Y0009376D01*
X0015893Y0009402D01*
X0015702Y0009433D01*
X0015512Y0009468D01*
X0015323Y0009508D01*
X0015135Y0009553D01*
X0014948Y0009602D01*
X0014762Y0009656D01*
X0014578Y0009714D01*
X0014395Y0009777D01*
X0014214Y0009845D01*
X0014035Y0009916D01*
X0013857Y0009993D01*
X0013681Y0010073D01*
X0013508Y0010158D01*
X0013336Y0010247D01*
X0013167Y0010340D01*
X0013000Y0010437D01*
X0012835Y0010539D01*
X0012673Y0010644D01*
X0012514Y0010753D01*
X0012357Y0010867D01*
X0012204Y0010984D01*
X0012053Y0011104D01*
X0011905Y0011229D01*
X0011760Y0011357D01*
X0011619Y0011488D01*
X0011480Y0011623D01*
X0011345Y0011762D01*
X0011214Y0011903D01*
X0011086Y0012048D01*
X0010961Y0012196D01*
X0010841Y0012347D01*
X0010724Y0012500D01*
X0010610Y0012657D01*
X0010501Y0012816D01*
X0010396Y0012978D01*
X0010294Y0013143D01*
X0010197Y0013310D01*
X0010104Y0013479D01*
X0010015Y0013651D01*
X0009930Y0013824D01*
X0009850Y0014000D01*
X0009773Y0014178D01*
X0009702Y0014357D01*
X0009634Y0014538D01*
X0009571Y0014721D01*
X0009513Y0014905D01*
X0009459Y0015091D01*
X0009410Y0015278D01*
X0009365Y0015466D01*
X0009325Y0015655D01*
X0009290Y0015845D01*
X0009259Y0016036D01*
X0009233Y0016227D01*
X0009212Y0016419D01*
X0009195Y0016612D01*
X0009183Y0016805D01*
X0009176Y0016998D01*
X0009174Y0017191D01*
X0009174Y0107742D02*
X0009176Y0107935D01*
X0009183Y0108128D01*
X0009195Y0108321D01*
X0009212Y0108514D01*
X0009233Y0108706D01*
X0009259Y0108897D01*
X0009290Y0109088D01*
X0009325Y0109278D01*
X0009365Y0109467D01*
X0009410Y0109655D01*
X0009459Y0109842D01*
X0009513Y0110028D01*
X0009571Y0110212D01*
X0009634Y0110395D01*
X0009702Y0110576D01*
X0009773Y0110755D01*
X0009850Y0110933D01*
X0009930Y0111109D01*
X0010015Y0111282D01*
X0010104Y0111454D01*
X0010197Y0111623D01*
X0010294Y0111790D01*
X0010396Y0111955D01*
X0010501Y0112117D01*
X0010610Y0112276D01*
X0010724Y0112433D01*
X0010841Y0112586D01*
X0010961Y0112737D01*
X0011086Y0112885D01*
X0011214Y0113030D01*
X0011345Y0113171D01*
X0011480Y0113310D01*
X0011619Y0113445D01*
X0011760Y0113576D01*
X0011905Y0113704D01*
X0012053Y0113829D01*
X0012204Y0113949D01*
X0012357Y0114066D01*
X0012514Y0114180D01*
X0012673Y0114289D01*
X0012835Y0114394D01*
X0013000Y0114496D01*
X0013167Y0114593D01*
X0013336Y0114686D01*
X0013508Y0114775D01*
X0013681Y0114860D01*
X0013857Y0114940D01*
X0014035Y0115017D01*
X0014214Y0115088D01*
X0014395Y0115156D01*
X0014578Y0115219D01*
X0014762Y0115277D01*
X0014948Y0115331D01*
X0015135Y0115380D01*
X0015323Y0115425D01*
X0015512Y0115465D01*
X0015702Y0115500D01*
X0015893Y0115531D01*
X0016084Y0115557D01*
X0016276Y0115578D01*
X0016469Y0115595D01*
X0016662Y0115607D01*
X0016855Y0115614D01*
X0017048Y0115616D01*
X0017241Y0115614D01*
X0017434Y0115607D01*
X0017627Y0115595D01*
X0017820Y0115578D01*
X0018012Y0115557D01*
X0018203Y0115531D01*
X0018394Y0115500D01*
X0018584Y0115465D01*
X0018773Y0115425D01*
X0018961Y0115380D01*
X0019148Y0115331D01*
X0019334Y0115277D01*
X0019518Y0115219D01*
X0019701Y0115156D01*
X0019882Y0115088D01*
X0020061Y0115017D01*
X0020239Y0114940D01*
X0020415Y0114860D01*
X0020588Y0114775D01*
X0020760Y0114686D01*
X0020929Y0114593D01*
X0021096Y0114496D01*
X0021261Y0114394D01*
X0021423Y0114289D01*
X0021582Y0114180D01*
X0021739Y0114066D01*
X0021892Y0113949D01*
X0022043Y0113829D01*
X0022191Y0113704D01*
X0022336Y0113576D01*
X0022477Y0113445D01*
X0022616Y0113310D01*
X0022751Y0113171D01*
X0022882Y0113030D01*
X0023010Y0112885D01*
X0023135Y0112737D01*
X0023255Y0112586D01*
X0023372Y0112433D01*
X0023486Y0112276D01*
X0023595Y0112117D01*
X0023700Y0111955D01*
X0023802Y0111790D01*
X0023899Y0111623D01*
X0023992Y0111454D01*
X0024081Y0111282D01*
X0024166Y0111109D01*
X0024246Y0110933D01*
X0024323Y0110755D01*
X0024394Y0110576D01*
X0024462Y0110395D01*
X0024525Y0110212D01*
X0024583Y0110028D01*
X0024637Y0109842D01*
X0024686Y0109655D01*
X0024731Y0109467D01*
X0024771Y0109278D01*
X0024806Y0109088D01*
X0024837Y0108897D01*
X0024863Y0108706D01*
X0024884Y0108514D01*
X0024901Y0108321D01*
X0024913Y0108128D01*
X0024920Y0107935D01*
X0024922Y0107742D01*
X0024920Y0107549D01*
X0024913Y0107356D01*
X0024901Y0107163D01*
X0024884Y0106970D01*
X0024863Y0106778D01*
X0024837Y0106587D01*
X0024806Y0106396D01*
X0024771Y0106206D01*
X0024731Y0106017D01*
X0024686Y0105829D01*
X0024637Y0105642D01*
X0024583Y0105456D01*
X0024525Y0105272D01*
X0024462Y0105089D01*
X0024394Y0104908D01*
X0024323Y0104729D01*
X0024246Y0104551D01*
X0024166Y0104375D01*
X0024081Y0104202D01*
X0023992Y0104030D01*
X0023899Y0103861D01*
X0023802Y0103694D01*
X0023700Y0103529D01*
X0023595Y0103367D01*
X0023486Y0103208D01*
X0023372Y0103051D01*
X0023255Y0102898D01*
X0023135Y0102747D01*
X0023010Y0102599D01*
X0022882Y0102454D01*
X0022751Y0102313D01*
X0022616Y0102174D01*
X0022477Y0102039D01*
X0022336Y0101908D01*
X0022191Y0101780D01*
X0022043Y0101655D01*
X0021892Y0101535D01*
X0021739Y0101418D01*
X0021582Y0101304D01*
X0021423Y0101195D01*
X0021261Y0101090D01*
X0021096Y0100988D01*
X0020929Y0100891D01*
X0020760Y0100798D01*
X0020588Y0100709D01*
X0020415Y0100624D01*
X0020239Y0100544D01*
X0020061Y0100467D01*
X0019882Y0100396D01*
X0019701Y0100328D01*
X0019518Y0100265D01*
X0019334Y0100207D01*
X0019148Y0100153D01*
X0018961Y0100104D01*
X0018773Y0100059D01*
X0018584Y0100019D01*
X0018394Y0099984D01*
X0018203Y0099953D01*
X0018012Y0099927D01*
X0017820Y0099906D01*
X0017627Y0099889D01*
X0017434Y0099877D01*
X0017241Y0099870D01*
X0017048Y0099868D01*
X0016855Y0099870D01*
X0016662Y0099877D01*
X0016469Y0099889D01*
X0016276Y0099906D01*
X0016084Y0099927D01*
X0015893Y0099953D01*
X0015702Y0099984D01*
X0015512Y0100019D01*
X0015323Y0100059D01*
X0015135Y0100104D01*
X0014948Y0100153D01*
X0014762Y0100207D01*
X0014578Y0100265D01*
X0014395Y0100328D01*
X0014214Y0100396D01*
X0014035Y0100467D01*
X0013857Y0100544D01*
X0013681Y0100624D01*
X0013508Y0100709D01*
X0013336Y0100798D01*
X0013167Y0100891D01*
X0013000Y0100988D01*
X0012835Y0101090D01*
X0012673Y0101195D01*
X0012514Y0101304D01*
X0012357Y0101418D01*
X0012204Y0101535D01*
X0012053Y0101655D01*
X0011905Y0101780D01*
X0011760Y0101908D01*
X0011619Y0102039D01*
X0011480Y0102174D01*
X0011345Y0102313D01*
X0011214Y0102454D01*
X0011086Y0102599D01*
X0010961Y0102747D01*
X0010841Y0102898D01*
X0010724Y0103051D01*
X0010610Y0103208D01*
X0010501Y0103367D01*
X0010396Y0103529D01*
X0010294Y0103694D01*
X0010197Y0103861D01*
X0010104Y0104030D01*
X0010015Y0104202D01*
X0009930Y0104375D01*
X0009850Y0104551D01*
X0009773Y0104729D01*
X0009702Y0104908D01*
X0009634Y0105089D01*
X0009571Y0105272D01*
X0009513Y0105456D01*
X0009459Y0105642D01*
X0009410Y0105829D01*
X0009365Y0106017D01*
X0009325Y0106206D01*
X0009290Y0106396D01*
X0009259Y0106587D01*
X0009233Y0106778D01*
X0009212Y0106970D01*
X0009195Y0107163D01*
X0009183Y0107356D01*
X0009176Y0107549D01*
X0009174Y0107742D01*
X0182402Y0107742D02*
X0182404Y0107935D01*
X0182411Y0108128D01*
X0182423Y0108321D01*
X0182440Y0108514D01*
X0182461Y0108706D01*
X0182487Y0108897D01*
X0182518Y0109088D01*
X0182553Y0109278D01*
X0182593Y0109467D01*
X0182638Y0109655D01*
X0182687Y0109842D01*
X0182741Y0110028D01*
X0182799Y0110212D01*
X0182862Y0110395D01*
X0182930Y0110576D01*
X0183001Y0110755D01*
X0183078Y0110933D01*
X0183158Y0111109D01*
X0183243Y0111282D01*
X0183332Y0111454D01*
X0183425Y0111623D01*
X0183522Y0111790D01*
X0183624Y0111955D01*
X0183729Y0112117D01*
X0183838Y0112276D01*
X0183952Y0112433D01*
X0184069Y0112586D01*
X0184189Y0112737D01*
X0184314Y0112885D01*
X0184442Y0113030D01*
X0184573Y0113171D01*
X0184708Y0113310D01*
X0184847Y0113445D01*
X0184988Y0113576D01*
X0185133Y0113704D01*
X0185281Y0113829D01*
X0185432Y0113949D01*
X0185585Y0114066D01*
X0185742Y0114180D01*
X0185901Y0114289D01*
X0186063Y0114394D01*
X0186228Y0114496D01*
X0186395Y0114593D01*
X0186564Y0114686D01*
X0186736Y0114775D01*
X0186909Y0114860D01*
X0187085Y0114940D01*
X0187263Y0115017D01*
X0187442Y0115088D01*
X0187623Y0115156D01*
X0187806Y0115219D01*
X0187990Y0115277D01*
X0188176Y0115331D01*
X0188363Y0115380D01*
X0188551Y0115425D01*
X0188740Y0115465D01*
X0188930Y0115500D01*
X0189121Y0115531D01*
X0189312Y0115557D01*
X0189504Y0115578D01*
X0189697Y0115595D01*
X0189890Y0115607D01*
X0190083Y0115614D01*
X0190276Y0115616D01*
X0190469Y0115614D01*
X0190662Y0115607D01*
X0190855Y0115595D01*
X0191048Y0115578D01*
X0191240Y0115557D01*
X0191431Y0115531D01*
X0191622Y0115500D01*
X0191812Y0115465D01*
X0192001Y0115425D01*
X0192189Y0115380D01*
X0192376Y0115331D01*
X0192562Y0115277D01*
X0192746Y0115219D01*
X0192929Y0115156D01*
X0193110Y0115088D01*
X0193289Y0115017D01*
X0193467Y0114940D01*
X0193643Y0114860D01*
X0193816Y0114775D01*
X0193988Y0114686D01*
X0194157Y0114593D01*
X0194324Y0114496D01*
X0194489Y0114394D01*
X0194651Y0114289D01*
X0194810Y0114180D01*
X0194967Y0114066D01*
X0195120Y0113949D01*
X0195271Y0113829D01*
X0195419Y0113704D01*
X0195564Y0113576D01*
X0195705Y0113445D01*
X0195844Y0113310D01*
X0195979Y0113171D01*
X0196110Y0113030D01*
X0196238Y0112885D01*
X0196363Y0112737D01*
X0196483Y0112586D01*
X0196600Y0112433D01*
X0196714Y0112276D01*
X0196823Y0112117D01*
X0196928Y0111955D01*
X0197030Y0111790D01*
X0197127Y0111623D01*
X0197220Y0111454D01*
X0197309Y0111282D01*
X0197394Y0111109D01*
X0197474Y0110933D01*
X0197551Y0110755D01*
X0197622Y0110576D01*
X0197690Y0110395D01*
X0197753Y0110212D01*
X0197811Y0110028D01*
X0197865Y0109842D01*
X0197914Y0109655D01*
X0197959Y0109467D01*
X0197999Y0109278D01*
X0198034Y0109088D01*
X0198065Y0108897D01*
X0198091Y0108706D01*
X0198112Y0108514D01*
X0198129Y0108321D01*
X0198141Y0108128D01*
X0198148Y0107935D01*
X0198150Y0107742D01*
X0198148Y0107549D01*
X0198141Y0107356D01*
X0198129Y0107163D01*
X0198112Y0106970D01*
X0198091Y0106778D01*
X0198065Y0106587D01*
X0198034Y0106396D01*
X0197999Y0106206D01*
X0197959Y0106017D01*
X0197914Y0105829D01*
X0197865Y0105642D01*
X0197811Y0105456D01*
X0197753Y0105272D01*
X0197690Y0105089D01*
X0197622Y0104908D01*
X0197551Y0104729D01*
X0197474Y0104551D01*
X0197394Y0104375D01*
X0197309Y0104202D01*
X0197220Y0104030D01*
X0197127Y0103861D01*
X0197030Y0103694D01*
X0196928Y0103529D01*
X0196823Y0103367D01*
X0196714Y0103208D01*
X0196600Y0103051D01*
X0196483Y0102898D01*
X0196363Y0102747D01*
X0196238Y0102599D01*
X0196110Y0102454D01*
X0195979Y0102313D01*
X0195844Y0102174D01*
X0195705Y0102039D01*
X0195564Y0101908D01*
X0195419Y0101780D01*
X0195271Y0101655D01*
X0195120Y0101535D01*
X0194967Y0101418D01*
X0194810Y0101304D01*
X0194651Y0101195D01*
X0194489Y0101090D01*
X0194324Y0100988D01*
X0194157Y0100891D01*
X0193988Y0100798D01*
X0193816Y0100709D01*
X0193643Y0100624D01*
X0193467Y0100544D01*
X0193289Y0100467D01*
X0193110Y0100396D01*
X0192929Y0100328D01*
X0192746Y0100265D01*
X0192562Y0100207D01*
X0192376Y0100153D01*
X0192189Y0100104D01*
X0192001Y0100059D01*
X0191812Y0100019D01*
X0191622Y0099984D01*
X0191431Y0099953D01*
X0191240Y0099927D01*
X0191048Y0099906D01*
X0190855Y0099889D01*
X0190662Y0099877D01*
X0190469Y0099870D01*
X0190276Y0099868D01*
X0190083Y0099870D01*
X0189890Y0099877D01*
X0189697Y0099889D01*
X0189504Y0099906D01*
X0189312Y0099927D01*
X0189121Y0099953D01*
X0188930Y0099984D01*
X0188740Y0100019D01*
X0188551Y0100059D01*
X0188363Y0100104D01*
X0188176Y0100153D01*
X0187990Y0100207D01*
X0187806Y0100265D01*
X0187623Y0100328D01*
X0187442Y0100396D01*
X0187263Y0100467D01*
X0187085Y0100544D01*
X0186909Y0100624D01*
X0186736Y0100709D01*
X0186564Y0100798D01*
X0186395Y0100891D01*
X0186228Y0100988D01*
X0186063Y0101090D01*
X0185901Y0101195D01*
X0185742Y0101304D01*
X0185585Y0101418D01*
X0185432Y0101535D01*
X0185281Y0101655D01*
X0185133Y0101780D01*
X0184988Y0101908D01*
X0184847Y0102039D01*
X0184708Y0102174D01*
X0184573Y0102313D01*
X0184442Y0102454D01*
X0184314Y0102599D01*
X0184189Y0102747D01*
X0184069Y0102898D01*
X0183952Y0103051D01*
X0183838Y0103208D01*
X0183729Y0103367D01*
X0183624Y0103529D01*
X0183522Y0103694D01*
X0183425Y0103861D01*
X0183332Y0104030D01*
X0183243Y0104202D01*
X0183158Y0104375D01*
X0183078Y0104551D01*
X0183001Y0104729D01*
X0182930Y0104908D01*
X0182862Y0105089D01*
X0182799Y0105272D01*
X0182741Y0105456D01*
X0182687Y0105642D01*
X0182638Y0105829D01*
X0182593Y0106017D01*
X0182553Y0106206D01*
X0182518Y0106396D01*
X0182487Y0106587D01*
X0182461Y0106778D01*
X0182440Y0106970D01*
X0182423Y0107163D01*
X0182411Y0107356D01*
X0182404Y0107549D01*
X0182402Y0107742D01*
X0182402Y0017191D02*
X0182404Y0017384D01*
X0182411Y0017577D01*
X0182423Y0017770D01*
X0182440Y0017963D01*
X0182461Y0018155D01*
X0182487Y0018346D01*
X0182518Y0018537D01*
X0182553Y0018727D01*
X0182593Y0018916D01*
X0182638Y0019104D01*
X0182687Y0019291D01*
X0182741Y0019477D01*
X0182799Y0019661D01*
X0182862Y0019844D01*
X0182930Y0020025D01*
X0183001Y0020204D01*
X0183078Y0020382D01*
X0183158Y0020558D01*
X0183243Y0020731D01*
X0183332Y0020903D01*
X0183425Y0021072D01*
X0183522Y0021239D01*
X0183624Y0021404D01*
X0183729Y0021566D01*
X0183838Y0021725D01*
X0183952Y0021882D01*
X0184069Y0022035D01*
X0184189Y0022186D01*
X0184314Y0022334D01*
X0184442Y0022479D01*
X0184573Y0022620D01*
X0184708Y0022759D01*
X0184847Y0022894D01*
X0184988Y0023025D01*
X0185133Y0023153D01*
X0185281Y0023278D01*
X0185432Y0023398D01*
X0185585Y0023515D01*
X0185742Y0023629D01*
X0185901Y0023738D01*
X0186063Y0023843D01*
X0186228Y0023945D01*
X0186395Y0024042D01*
X0186564Y0024135D01*
X0186736Y0024224D01*
X0186909Y0024309D01*
X0187085Y0024389D01*
X0187263Y0024466D01*
X0187442Y0024537D01*
X0187623Y0024605D01*
X0187806Y0024668D01*
X0187990Y0024726D01*
X0188176Y0024780D01*
X0188363Y0024829D01*
X0188551Y0024874D01*
X0188740Y0024914D01*
X0188930Y0024949D01*
X0189121Y0024980D01*
X0189312Y0025006D01*
X0189504Y0025027D01*
X0189697Y0025044D01*
X0189890Y0025056D01*
X0190083Y0025063D01*
X0190276Y0025065D01*
X0190469Y0025063D01*
X0190662Y0025056D01*
X0190855Y0025044D01*
X0191048Y0025027D01*
X0191240Y0025006D01*
X0191431Y0024980D01*
X0191622Y0024949D01*
X0191812Y0024914D01*
X0192001Y0024874D01*
X0192189Y0024829D01*
X0192376Y0024780D01*
X0192562Y0024726D01*
X0192746Y0024668D01*
X0192929Y0024605D01*
X0193110Y0024537D01*
X0193289Y0024466D01*
X0193467Y0024389D01*
X0193643Y0024309D01*
X0193816Y0024224D01*
X0193988Y0024135D01*
X0194157Y0024042D01*
X0194324Y0023945D01*
X0194489Y0023843D01*
X0194651Y0023738D01*
X0194810Y0023629D01*
X0194967Y0023515D01*
X0195120Y0023398D01*
X0195271Y0023278D01*
X0195419Y0023153D01*
X0195564Y0023025D01*
X0195705Y0022894D01*
X0195844Y0022759D01*
X0195979Y0022620D01*
X0196110Y0022479D01*
X0196238Y0022334D01*
X0196363Y0022186D01*
X0196483Y0022035D01*
X0196600Y0021882D01*
X0196714Y0021725D01*
X0196823Y0021566D01*
X0196928Y0021404D01*
X0197030Y0021239D01*
X0197127Y0021072D01*
X0197220Y0020903D01*
X0197309Y0020731D01*
X0197394Y0020558D01*
X0197474Y0020382D01*
X0197551Y0020204D01*
X0197622Y0020025D01*
X0197690Y0019844D01*
X0197753Y0019661D01*
X0197811Y0019477D01*
X0197865Y0019291D01*
X0197914Y0019104D01*
X0197959Y0018916D01*
X0197999Y0018727D01*
X0198034Y0018537D01*
X0198065Y0018346D01*
X0198091Y0018155D01*
X0198112Y0017963D01*
X0198129Y0017770D01*
X0198141Y0017577D01*
X0198148Y0017384D01*
X0198150Y0017191D01*
X0198148Y0016998D01*
X0198141Y0016805D01*
X0198129Y0016612D01*
X0198112Y0016419D01*
X0198091Y0016227D01*
X0198065Y0016036D01*
X0198034Y0015845D01*
X0197999Y0015655D01*
X0197959Y0015466D01*
X0197914Y0015278D01*
X0197865Y0015091D01*
X0197811Y0014905D01*
X0197753Y0014721D01*
X0197690Y0014538D01*
X0197622Y0014357D01*
X0197551Y0014178D01*
X0197474Y0014000D01*
X0197394Y0013824D01*
X0197309Y0013651D01*
X0197220Y0013479D01*
X0197127Y0013310D01*
X0197030Y0013143D01*
X0196928Y0012978D01*
X0196823Y0012816D01*
X0196714Y0012657D01*
X0196600Y0012500D01*
X0196483Y0012347D01*
X0196363Y0012196D01*
X0196238Y0012048D01*
X0196110Y0011903D01*
X0195979Y0011762D01*
X0195844Y0011623D01*
X0195705Y0011488D01*
X0195564Y0011357D01*
X0195419Y0011229D01*
X0195271Y0011104D01*
X0195120Y0010984D01*
X0194967Y0010867D01*
X0194810Y0010753D01*
X0194651Y0010644D01*
X0194489Y0010539D01*
X0194324Y0010437D01*
X0194157Y0010340D01*
X0193988Y0010247D01*
X0193816Y0010158D01*
X0193643Y0010073D01*
X0193467Y0009993D01*
X0193289Y0009916D01*
X0193110Y0009845D01*
X0192929Y0009777D01*
X0192746Y0009714D01*
X0192562Y0009656D01*
X0192376Y0009602D01*
X0192189Y0009553D01*
X0192001Y0009508D01*
X0191812Y0009468D01*
X0191622Y0009433D01*
X0191431Y0009402D01*
X0191240Y0009376D01*
X0191048Y0009355D01*
X0190855Y0009338D01*
X0190662Y0009326D01*
X0190469Y0009319D01*
X0190276Y0009317D01*
X0190083Y0009319D01*
X0189890Y0009326D01*
X0189697Y0009338D01*
X0189504Y0009355D01*
X0189312Y0009376D01*
X0189121Y0009402D01*
X0188930Y0009433D01*
X0188740Y0009468D01*
X0188551Y0009508D01*
X0188363Y0009553D01*
X0188176Y0009602D01*
X0187990Y0009656D01*
X0187806Y0009714D01*
X0187623Y0009777D01*
X0187442Y0009845D01*
X0187263Y0009916D01*
X0187085Y0009993D01*
X0186909Y0010073D01*
X0186736Y0010158D01*
X0186564Y0010247D01*
X0186395Y0010340D01*
X0186228Y0010437D01*
X0186063Y0010539D01*
X0185901Y0010644D01*
X0185742Y0010753D01*
X0185585Y0010867D01*
X0185432Y0010984D01*
X0185281Y0011104D01*
X0185133Y0011229D01*
X0184988Y0011357D01*
X0184847Y0011488D01*
X0184708Y0011623D01*
X0184573Y0011762D01*
X0184442Y0011903D01*
X0184314Y0012048D01*
X0184189Y0012196D01*
X0184069Y0012347D01*
X0183952Y0012500D01*
X0183838Y0012657D01*
X0183729Y0012816D01*
X0183624Y0012978D01*
X0183522Y0013143D01*
X0183425Y0013310D01*
X0183332Y0013479D01*
X0183243Y0013651D01*
X0183158Y0013824D01*
X0183078Y0014000D01*
X0183001Y0014178D01*
X0182930Y0014357D01*
X0182862Y0014538D01*
X0182799Y0014721D01*
X0182741Y0014905D01*
X0182687Y0015091D01*
X0182638Y0015278D01*
X0182593Y0015466D01*
X0182553Y0015655D01*
X0182518Y0015845D01*
X0182487Y0016036D01*
X0182461Y0016227D01*
X0182440Y0016419D01*
X0182423Y0016612D01*
X0182411Y0016805D01*
X0182404Y0016998D01*
X0182402Y0017191D01*
D11*
X0190237Y0001442D02*
X0016300Y0001442D01*
X0001300Y0013254D02*
X0001300Y0111679D01*
X0001300Y0111678D02*
X0001343Y0112002D01*
X0001393Y0112324D01*
X0001451Y0112645D01*
X0001517Y0112965D01*
X0001590Y0113283D01*
X0001672Y0113599D01*
X0001760Y0113913D01*
X0001857Y0114224D01*
X0001960Y0114534D01*
X0002072Y0114840D01*
X0002190Y0115144D01*
X0002316Y0115445D01*
X0002449Y0115743D01*
X0002590Y0116037D01*
X0002737Y0116329D01*
X0002891Y0116616D01*
X0003053Y0116899D01*
X0003221Y0117179D01*
X0003396Y0117455D01*
X0003577Y0117726D01*
X0003765Y0117992D01*
X0003959Y0118254D01*
X0004160Y0118512D01*
X0004366Y0118764D01*
X0004579Y0119011D01*
X0004798Y0119254D01*
X0005022Y0119490D01*
X0005253Y0119722D01*
X0005488Y0119947D01*
X0005729Y0120167D01*
X0005975Y0120381D01*
X0006227Y0120589D01*
X0006483Y0120791D01*
X0006744Y0120986D01*
X0007010Y0121176D01*
X0007280Y0121358D01*
X0007555Y0121534D01*
X0007834Y0121704D01*
X0008116Y0121866D01*
X0008403Y0122022D01*
X0008693Y0122171D01*
X0008987Y0122313D01*
X0009284Y0122447D01*
X0009585Y0122575D01*
X0009888Y0122695D01*
X0010194Y0122808D01*
X0010503Y0122913D01*
X0010814Y0123011D01*
X0011128Y0123101D01*
X0011443Y0123184D01*
X0011761Y0123259D01*
X0012080Y0123326D01*
X0012401Y0123386D01*
X0012723Y0123438D01*
X0013046Y0123482D01*
X0013370Y0123518D01*
X0013695Y0123546D01*
X0014021Y0123567D01*
X0014347Y0123579D01*
X0014673Y0123584D01*
X0014999Y0123581D01*
X0015325Y0123570D01*
X0015651Y0123551D01*
X0015976Y0123524D01*
X0016300Y0123490D01*
X0190237Y0123490D01*
X0206024Y0111679D02*
X0206024Y0013254D01*
X0206025Y0013254D02*
X0205972Y0012921D01*
X0205912Y0012589D01*
X0205844Y0012259D01*
X0205768Y0011931D01*
X0205684Y0011605D01*
X0205592Y0011281D01*
X0205493Y0010959D01*
X0205385Y0010640D01*
X0205270Y0010323D01*
X0205148Y0010009D01*
X0205017Y0009698D01*
X0204880Y0009391D01*
X0204735Y0009087D01*
X0204582Y0008786D01*
X0204423Y0008490D01*
X0204256Y0008197D01*
X0204082Y0007908D01*
X0203902Y0007624D01*
X0203714Y0007344D01*
X0203520Y0007069D01*
X0203319Y0006798D01*
X0203112Y0006532D01*
X0202898Y0006272D01*
X0202678Y0006017D01*
X0202452Y0005767D01*
X0202220Y0005522D01*
X0201983Y0005284D01*
X0201739Y0005051D01*
X0201490Y0004824D01*
X0201236Y0004603D01*
X0200976Y0004388D01*
X0200711Y0004180D01*
X0200441Y0003978D01*
X0200167Y0003783D01*
X0199888Y0003594D01*
X0199604Y0003413D01*
X0199316Y0003238D01*
X0199024Y0003070D01*
X0198728Y0002909D01*
X0198428Y0002756D01*
X0198124Y0002610D01*
X0197817Y0002471D01*
X0197507Y0002339D01*
X0197194Y0002215D01*
X0196877Y0002099D01*
X0196559Y0001991D01*
X0196237Y0001890D01*
X0195913Y0001797D01*
X0195587Y0001711D01*
X0195259Y0001634D01*
X0194930Y0001565D01*
X0194598Y0001503D01*
X0194266Y0001450D01*
X0193932Y0001405D01*
X0193597Y0001368D01*
X0193261Y0001339D01*
X0192925Y0001318D01*
X0192588Y0001305D01*
X0192252Y0001300D01*
X0191915Y0001303D01*
X0191578Y0001315D01*
X0191242Y0001335D01*
X0190906Y0001363D01*
X0190571Y0001398D01*
X0190237Y0001442D01*
X0016300Y0001442D02*
X0015971Y0001407D01*
X0015641Y0001380D01*
X0015310Y0001362D01*
X0014979Y0001351D01*
X0014648Y0001348D01*
X0014316Y0001354D01*
X0013985Y0001367D01*
X0013655Y0001389D01*
X0013325Y0001419D01*
X0012995Y0001457D01*
X0012667Y0001503D01*
X0012340Y0001557D01*
X0012015Y0001619D01*
X0011691Y0001689D01*
X0011369Y0001767D01*
X0011049Y0001853D01*
X0010731Y0001946D01*
X0010416Y0002048D01*
X0010103Y0002157D01*
X0009793Y0002274D01*
X0009486Y0002398D01*
X0009182Y0002530D01*
X0008881Y0002669D01*
X0008584Y0002816D01*
X0008291Y0002970D01*
X0008001Y0003131D01*
X0007716Y0003299D01*
X0007434Y0003474D01*
X0007157Y0003656D01*
X0006885Y0003844D01*
X0006617Y0004040D01*
X0006354Y0004241D01*
X0006097Y0004450D01*
X0005844Y0004664D01*
X0005597Y0004885D01*
X0005355Y0005111D01*
X0005119Y0005344D01*
X0004888Y0005582D01*
X0004664Y0005825D01*
X0004446Y0006075D01*
X0004233Y0006329D01*
X0004027Y0006589D01*
X0003828Y0006853D01*
X0003635Y0007122D01*
X0003449Y0007396D01*
X0003269Y0007675D01*
X0003097Y0007958D01*
X0002931Y0008245D01*
X0002773Y0008536D01*
X0002621Y0008831D01*
X0002477Y0009129D01*
X0002341Y0009431D01*
X0002211Y0009736D01*
X0002090Y0010044D01*
X0001976Y0010355D01*
X0001869Y0010669D01*
X0001770Y0010985D01*
X0001680Y0011304D01*
X0001596Y0011625D01*
X0001521Y0011947D01*
X0001454Y0012272D01*
X0001395Y0012598D01*
X0001344Y0012925D01*
X0001300Y0013254D01*
X0190237Y0123491D02*
X0190576Y0123535D01*
X0190916Y0123571D01*
X0191257Y0123599D01*
X0191599Y0123619D01*
X0191941Y0123630D01*
X0192283Y0123633D01*
X0192625Y0123627D01*
X0192967Y0123613D01*
X0193309Y0123591D01*
X0193649Y0123560D01*
X0193989Y0123521D01*
X0194328Y0123473D01*
X0194666Y0123418D01*
X0195002Y0123354D01*
X0195336Y0123281D01*
X0195669Y0123201D01*
X0195999Y0123112D01*
X0196328Y0123016D01*
X0196653Y0122911D01*
X0196977Y0122798D01*
X0197297Y0122678D01*
X0197614Y0122549D01*
X0197928Y0122413D01*
X0198238Y0122269D01*
X0198545Y0122118D01*
X0198848Y0121959D01*
X0199147Y0121793D01*
X0199442Y0121619D01*
X0199733Y0121439D01*
X0200019Y0121251D01*
X0200300Y0121056D01*
X0200577Y0120855D01*
X0200848Y0120646D01*
X0201115Y0120431D01*
X0201375Y0120210D01*
X0201631Y0119982D01*
X0201881Y0119748D01*
X0202124Y0119508D01*
X0202362Y0119262D01*
X0202594Y0119011D01*
X0202820Y0118753D01*
X0203039Y0118491D01*
X0203252Y0118223D01*
X0203458Y0117950D01*
X0203657Y0117671D01*
X0203850Y0117388D01*
X0204035Y0117101D01*
X0204213Y0116809D01*
X0204384Y0116512D01*
X0204548Y0116212D01*
X0204704Y0115908D01*
X0204853Y0115599D01*
X0204994Y0115288D01*
X0205128Y0114973D01*
X0205254Y0114654D01*
X0205371Y0114333D01*
X0205481Y0114009D01*
X0205583Y0113683D01*
X0205677Y0113353D01*
X0205763Y0113022D01*
X0205841Y0112689D01*
X0205910Y0112354D01*
X0205972Y0112017D01*
X0206025Y0111679D01*
M02*
