%
M48
M72
T01C0.0138
T02C0.0315
T03C0.0320
T04C0.0354
T05C0.0400
T06C0.0709
T07C0.1575
%
T01
X15310Y11004
T02
X14122Y3113
X13122Y3113
X12122Y3113
X12122Y1113
X13122Y1113
X14122Y1113
X8610Y1113
X7610Y1113
X6610Y1113
X6610Y3113
X7610Y3113
X8610Y3113
T03
X10366Y4006
X7610Y4943
X9866Y6837
X10866Y6837
X13122Y7943
X13122Y4943
X7610Y7943
X10366Y1006
T04
X4280Y3884
X3280Y3884
X2280Y3884
X16453Y3884
X17453Y3884
X18453Y3884
T05
X12366Y9988
X11366Y9988
X10366Y9988
X9366Y9988
X8366Y9988
X8366Y11088
X9366Y11088
X10366Y11088
X11366Y11088
X12366Y11088
X14957Y11573
X15957Y11573
X16957Y11573
X5799Y11573
X4799Y11573
X3799Y11573
T06
X5169Y6837
X1390Y6837
X15563Y6837
X19343Y6837
T07
X1705Y1719
X1705Y10774
X19028Y10774
X19028Y1719
M30
