G75*
%MOIN*%
%OFA0B0*%
%FSLAX25Y25*%
%IPPOS*%
%LPD*%
%AMOC8*
5,1,8,0,0,1.08239X$1,22.5*
%
%ADD10C,0.07400*%
%ADD11C,0.06600*%
%ADD12C,0.06000*%
%ADD13OC8,0.05200*%
%ADD14C,0.07000*%
%ADD15C,0.11811*%
%ADD16C,0.00600*%
%ADD17C,0.01600*%
%ADD18C,0.02978*%
D10*
X0083662Y0099879D03*
X0093662Y0099879D03*
X0103662Y0099879D03*
X0113662Y0099879D03*
X0123662Y0099879D03*
X0123662Y0110879D03*
X0113662Y0110879D03*
X0103662Y0110879D03*
X0093662Y0110879D03*
X0083662Y0110879D03*
D11*
X0086103Y0031128D03*
X0076103Y0031128D03*
X0066103Y0031128D03*
X0066103Y0011128D03*
X0076103Y0011128D03*
X0086103Y0011128D03*
X0121221Y0011128D03*
X0131221Y0011128D03*
X0141221Y0011128D03*
X0141221Y0031128D03*
X0131221Y0031128D03*
X0121221Y0031128D03*
D12*
X0149568Y0115734D03*
X0159568Y0115734D03*
X0169568Y0115734D03*
X0057993Y0115734D03*
X0047993Y0115734D03*
X0037993Y0115734D03*
D13*
X0076103Y0079435D03*
X0098662Y0068372D03*
X0108662Y0068372D03*
X0131221Y0079435D03*
X0131221Y0049435D03*
X0103662Y0040065D03*
X0076103Y0049435D03*
X0103662Y0010065D03*
D14*
X0022796Y0038844D03*
X0032796Y0038844D03*
X0042796Y0038844D03*
X0164528Y0038844D03*
X0174528Y0038844D03*
X0184528Y0038844D03*
D15*
X0193426Y0068372D03*
X0155631Y0068372D03*
X0051694Y0068372D03*
X0013898Y0068372D03*
D16*
X0076103Y0079435D02*
X0076300Y0079442D01*
X0083200Y0079442D01*
X0103600Y0099842D01*
X0103662Y0099879D01*
X0108400Y0101942D02*
X0105100Y0105242D01*
X0089200Y0105242D01*
X0083800Y0110642D01*
X0083662Y0110879D01*
X0108400Y0101942D02*
X0108400Y0068642D01*
X0108662Y0068372D01*
X0098800Y0068342D02*
X0098662Y0068372D01*
X0098800Y0068342D02*
X0098800Y0044942D01*
X0103600Y0040142D01*
X0103662Y0040065D01*
X0076300Y0031142D02*
X0076103Y0031128D01*
X0076300Y0031142D02*
X0076300Y0049142D01*
X0076103Y0049435D01*
X0074500Y0015542D02*
X0113800Y0015542D01*
X0113800Y0099842D01*
X0113662Y0099879D01*
X0131221Y0079435D02*
X0131500Y0079142D01*
X0131500Y0054242D01*
X0134800Y0050942D01*
X0134800Y0034442D01*
X0131500Y0031142D01*
X0131221Y0031128D01*
X0116800Y0015542D02*
X0113800Y0015542D01*
X0116800Y0015542D02*
X0121000Y0011342D01*
X0121221Y0011128D01*
X0126700Y0006542D02*
X0131200Y0011042D01*
X0131221Y0011128D01*
X0131500Y0011342D01*
X0141100Y0011342D01*
X0141221Y0011128D01*
X0126700Y0006542D02*
X0102100Y0006542D01*
X0097600Y0011042D01*
X0086200Y0011042D01*
X0086103Y0011128D01*
X0085900Y0011342D01*
X0076300Y0011342D01*
X0076103Y0011128D01*
X0074500Y0015542D02*
X0070300Y0011342D01*
X0066400Y0011342D01*
X0066103Y0011128D01*
D17*
X0043000Y0038942D02*
X0042796Y0038844D01*
X0043000Y0038942D02*
X0043000Y0098042D01*
X0057700Y0112742D01*
X0057700Y0115142D01*
X0057993Y0115734D01*
X0058000Y0115742D01*
X0079600Y0115742D01*
X0081100Y0117242D01*
X0087100Y0117242D01*
X0093400Y0110942D01*
X0093662Y0110879D01*
X0094300Y0111242D01*
X0100300Y0117242D01*
X0126100Y0117242D01*
X0133300Y0110042D01*
X0153100Y0110042D01*
X0154900Y0106142D02*
X0155200Y0105542D01*
X0174400Y0086342D01*
X0174400Y0038942D01*
X0174528Y0038844D01*
X0154900Y0106142D02*
X0128200Y0106142D01*
X0123700Y0110642D01*
X0123662Y0110879D01*
X0154900Y0106142D02*
X0159400Y0110642D01*
X0159400Y0115442D01*
X0159568Y0115734D01*
X0047993Y0115734D02*
X0047800Y0115442D01*
X0047800Y0107642D01*
X0032800Y0092642D01*
X0032800Y0038942D01*
X0032796Y0038844D01*
D18*
X0153100Y0110042D03*
M02*
