G75*
%MOIN*%
%OFA0B0*%
%FSLAX25Y25*%
%IPPOS*%
%LPD*%
%AMOC8*
5,1,8,0,0,1.08239X$1,22.5*
%
%ADD10R,0.02362X0.05906*%
%ADD11R,0.09000X0.02362*%
%ADD12R,0.06299X0.05118*%
%ADD13R,0.05118X0.05906*%
D10*
X0196083Y0179961D03*
X0201083Y0179961D03*
X0206083Y0179961D03*
X0211083Y0179961D03*
X0216083Y0179961D03*
X0221083Y0179961D03*
X0226083Y0179961D03*
X0231083Y0179961D03*
X0236083Y0179961D03*
X0241083Y0179961D03*
X0241083Y0217757D03*
X0236083Y0217757D03*
X0231083Y0217757D03*
X0226083Y0217757D03*
X0221083Y0217757D03*
X0216083Y0217757D03*
X0211083Y0217757D03*
X0206083Y0217757D03*
X0201083Y0217757D03*
X0196083Y0217757D03*
X0244981Y0085158D03*
X0249981Y0085158D03*
X0254981Y0085158D03*
X0259981Y0085158D03*
X0264981Y0085158D03*
X0269981Y0085158D03*
X0274981Y0085158D03*
X0279981Y0085158D03*
X0284981Y0085158D03*
X0289981Y0085158D03*
X0289981Y0047363D03*
X0284981Y0047363D03*
X0279981Y0047363D03*
X0274981Y0047363D03*
X0269981Y0047363D03*
X0264981Y0047363D03*
X0259981Y0047363D03*
X0254981Y0047363D03*
X0249981Y0047363D03*
X0244981Y0047363D03*
D11*
X0305946Y0049076D03*
X0305946Y0044076D03*
X0305946Y0054076D03*
X0305946Y0059076D03*
X0332166Y0059076D03*
X0332166Y0054076D03*
X0332166Y0049076D03*
X0332166Y0044076D03*
D12*
X0335855Y0023520D03*
X0335855Y0016040D03*
X0319229Y0015965D03*
X0319229Y0023446D03*
X0300902Y0022926D03*
X0300902Y0015446D03*
D13*
X0316143Y0080276D03*
X0323623Y0080276D03*
M02*
