G75*
%MOIN*%
%OFA0B0*%
%FSLAX25Y25*%
%IPPOS*%
%LPD*%
%AMOC8*
5,1,8,0,0,1.08239X$1,22.5*
%
%ADD10C,0.00600*%
%ADD11C,0.00000*%
D10*
X0016378Y0003157D02*
X0599646Y0003157D01*
X0600199Y0003164D01*
X0600751Y0003184D01*
X0601303Y0003217D01*
X0601854Y0003264D01*
X0602403Y0003324D01*
X0602951Y0003397D01*
X0603497Y0003484D01*
X0604041Y0003583D01*
X0604582Y0003696D01*
X0605120Y0003822D01*
X0605655Y0003960D01*
X0606187Y0004112D01*
X0606714Y0004277D01*
X0607238Y0004454D01*
X0607757Y0004643D01*
X0608272Y0004846D01*
X0608781Y0005060D01*
X0609285Y0005287D01*
X0609784Y0005526D01*
X0610276Y0005777D01*
X0610762Y0006040D01*
X0611242Y0006314D01*
X0611715Y0006600D01*
X0612181Y0006898D01*
X0612640Y0007206D01*
X0613091Y0007526D01*
X0613534Y0007856D01*
X0613969Y0008197D01*
X0614396Y0008548D01*
X0614814Y0008910D01*
X0615224Y0009281D01*
X0615624Y0009662D01*
X0616015Y0010053D01*
X0616396Y0010453D01*
X0616767Y0010863D01*
X0617129Y0011281D01*
X0617480Y0011708D01*
X0617821Y0012143D01*
X0618151Y0012586D01*
X0618471Y0013037D01*
X0618779Y0013496D01*
X0619077Y0013962D01*
X0619363Y0014435D01*
X0619637Y0014915D01*
X0619900Y0015401D01*
X0620151Y0015893D01*
X0620390Y0016392D01*
X0620617Y0016896D01*
X0620831Y0017405D01*
X0621034Y0017920D01*
X0621223Y0018439D01*
X0621400Y0018963D01*
X0621565Y0019490D01*
X0621717Y0020022D01*
X0621855Y0020557D01*
X0621981Y0021095D01*
X0622094Y0021636D01*
X0622193Y0022180D01*
X0622280Y0022726D01*
X0622353Y0023274D01*
X0622413Y0023823D01*
X0622460Y0024374D01*
X0622493Y0024926D01*
X0622513Y0025478D01*
X0622520Y0026031D01*
X0622520Y0181346D01*
X0622520Y0181347D02*
X0622467Y0181788D01*
X0622403Y0182228D01*
X0622328Y0182667D01*
X0622243Y0183103D01*
X0622147Y0183537D01*
X0622041Y0183969D01*
X0621924Y0184398D01*
X0621797Y0184825D01*
X0621660Y0185248D01*
X0621512Y0185667D01*
X0621355Y0186083D01*
X0621187Y0186495D01*
X0621009Y0186902D01*
X0620821Y0187306D01*
X0620624Y0187704D01*
X0620417Y0188098D01*
X0620201Y0188486D01*
X0619975Y0188869D01*
X0619740Y0189247D01*
X0619495Y0189619D01*
X0619242Y0189984D01*
X0618980Y0190344D01*
X0618710Y0190697D01*
X0618431Y0191043D01*
X0618143Y0191382D01*
X0617848Y0191715D01*
X0617544Y0192040D01*
X0617233Y0192357D01*
X0616914Y0192667D01*
X0616588Y0192969D01*
X0616254Y0193263D01*
X0615913Y0193549D01*
X0615566Y0193827D01*
X0615212Y0194096D01*
X0614851Y0194356D01*
X0614484Y0194608D01*
X0614111Y0194850D01*
X0613733Y0195084D01*
X0613349Y0195308D01*
X0612959Y0195523D01*
X0612565Y0195728D01*
X0612165Y0195923D01*
X0611761Y0196109D01*
X0611353Y0196285D01*
X0610940Y0196451D01*
X0610524Y0196607D01*
X0610104Y0196753D01*
X0609680Y0196888D01*
X0609253Y0197014D01*
X0608824Y0197128D01*
X0608391Y0197233D01*
X0607957Y0197327D01*
X0607520Y0197410D01*
X0607520Y0197409D02*
X0024252Y0197409D01*
X0023652Y0197354D01*
X0023054Y0197285D01*
X0022457Y0197201D01*
X0021863Y0197103D01*
X0021271Y0196991D01*
X0020683Y0196864D01*
X0020097Y0196723D01*
X0019515Y0196568D01*
X0018937Y0196399D01*
X0018364Y0196216D01*
X0017794Y0196019D01*
X0017230Y0195809D01*
X0016671Y0195585D01*
X0016118Y0195348D01*
X0015570Y0195097D01*
X0015029Y0194833D01*
X0014494Y0194556D01*
X0013966Y0194266D01*
X0013446Y0193964D01*
X0012932Y0193649D01*
X0012427Y0193322D01*
X0011929Y0192982D01*
X0011440Y0192631D01*
X0010960Y0192268D01*
X0010488Y0191893D01*
X0010026Y0191508D01*
X0009573Y0191111D01*
X0009129Y0190703D01*
X0008696Y0190285D01*
X0008273Y0189856D01*
X0007861Y0189418D01*
X0007459Y0188969D01*
X0007068Y0188511D01*
X0006688Y0188043D01*
X0006320Y0187567D01*
X0005963Y0187082D01*
X0005619Y0186588D01*
X0005286Y0186086D01*
X0004965Y0185576D01*
X0004657Y0185059D01*
X0004362Y0184534D01*
X0004079Y0184003D01*
X0003809Y0183464D01*
X0003552Y0182919D01*
X0003309Y0182369D01*
X0003078Y0181812D01*
X0002862Y0181250D01*
X0002659Y0180683D01*
X0002470Y0180112D01*
X0002294Y0179536D01*
X0002133Y0178955D01*
X0001985Y0178372D01*
X0001852Y0177784D01*
X0001733Y0177194D01*
X0001629Y0176601D01*
X0001538Y0176005D01*
X0001462Y0175408D01*
X0001401Y0174809D01*
X0001354Y0174209D01*
X0001322Y0173607D01*
X0001304Y0173005D01*
X0001301Y0172403D01*
X0001312Y0171801D01*
X0001338Y0171199D01*
X0001378Y0170599D01*
X0001378Y0170598D02*
X0001378Y0018157D01*
X0001382Y0017795D01*
X0001396Y0017432D01*
X0001417Y0017070D01*
X0001448Y0016709D01*
X0001487Y0016349D01*
X0001535Y0015990D01*
X0001592Y0015632D01*
X0001657Y0015275D01*
X0001731Y0014920D01*
X0001814Y0014567D01*
X0001905Y0014216D01*
X0002004Y0013868D01*
X0002112Y0013522D01*
X0002228Y0013178D01*
X0002353Y0012838D01*
X0002485Y0012501D01*
X0002626Y0012167D01*
X0002775Y0011836D01*
X0002932Y0011509D01*
X0003096Y0011186D01*
X0003268Y0010867D01*
X0003448Y0010553D01*
X0003636Y0010242D01*
X0003831Y0009937D01*
X0004033Y0009636D01*
X0004243Y0009340D01*
X0004459Y0009050D01*
X0004683Y0008764D01*
X0004913Y0008484D01*
X0005150Y0008210D01*
X0005394Y0007942D01*
X0005644Y0007679D01*
X0005900Y0007423D01*
X0006163Y0007173D01*
X0006431Y0006929D01*
X0006705Y0006692D01*
X0006985Y0006462D01*
X0007271Y0006238D01*
X0007561Y0006022D01*
X0007857Y0005812D01*
X0008158Y0005610D01*
X0008463Y0005415D01*
X0008774Y0005227D01*
X0009088Y0005047D01*
X0009407Y0004875D01*
X0009730Y0004711D01*
X0010057Y0004554D01*
X0010388Y0004405D01*
X0010722Y0004264D01*
X0011059Y0004132D01*
X0011399Y0004007D01*
X0011743Y0003891D01*
X0012089Y0003783D01*
X0012437Y0003684D01*
X0012788Y0003593D01*
X0013141Y0003510D01*
X0013496Y0003436D01*
X0013853Y0003371D01*
X0014211Y0003314D01*
X0014570Y0003266D01*
X0014930Y0003227D01*
X0015291Y0003196D01*
X0015653Y0003175D01*
X0016016Y0003161D01*
X0016378Y0003157D01*
D11*
X0161378Y0164220D02*
X0161380Y0164317D01*
X0161386Y0164414D01*
X0161396Y0164510D01*
X0161410Y0164606D01*
X0161428Y0164702D01*
X0161449Y0164796D01*
X0161475Y0164890D01*
X0161504Y0164982D01*
X0161538Y0165073D01*
X0161574Y0165163D01*
X0161615Y0165251D01*
X0161659Y0165337D01*
X0161707Y0165422D01*
X0161758Y0165504D01*
X0161812Y0165585D01*
X0161870Y0165663D01*
X0161931Y0165738D01*
X0161994Y0165811D01*
X0162061Y0165882D01*
X0162131Y0165949D01*
X0162203Y0166014D01*
X0162278Y0166075D01*
X0162356Y0166134D01*
X0162435Y0166189D01*
X0162517Y0166241D01*
X0162601Y0166289D01*
X0162687Y0166334D01*
X0162775Y0166376D01*
X0162864Y0166414D01*
X0162955Y0166448D01*
X0163047Y0166478D01*
X0163140Y0166505D01*
X0163235Y0166527D01*
X0163330Y0166546D01*
X0163426Y0166561D01*
X0163522Y0166572D01*
X0163619Y0166579D01*
X0163716Y0166582D01*
X0163813Y0166581D01*
X0163910Y0166576D01*
X0164006Y0166567D01*
X0164102Y0166554D01*
X0164198Y0166537D01*
X0164293Y0166516D01*
X0164386Y0166492D01*
X0164479Y0166463D01*
X0164571Y0166431D01*
X0164661Y0166395D01*
X0164749Y0166356D01*
X0164836Y0166312D01*
X0164921Y0166266D01*
X0165004Y0166215D01*
X0165085Y0166162D01*
X0165163Y0166105D01*
X0165240Y0166045D01*
X0165313Y0165982D01*
X0165384Y0165916D01*
X0165452Y0165847D01*
X0165518Y0165775D01*
X0165580Y0165701D01*
X0165639Y0165624D01*
X0165695Y0165545D01*
X0165748Y0165463D01*
X0165798Y0165380D01*
X0165843Y0165294D01*
X0165886Y0165207D01*
X0165925Y0165118D01*
X0165960Y0165028D01*
X0165991Y0164936D01*
X0166018Y0164843D01*
X0166042Y0164749D01*
X0166062Y0164654D01*
X0166078Y0164558D01*
X0166090Y0164462D01*
X0166098Y0164365D01*
X0166102Y0164268D01*
X0166102Y0164172D01*
X0166098Y0164075D01*
X0166090Y0163978D01*
X0166078Y0163882D01*
X0166062Y0163786D01*
X0166042Y0163691D01*
X0166018Y0163597D01*
X0165991Y0163504D01*
X0165960Y0163412D01*
X0165925Y0163322D01*
X0165886Y0163233D01*
X0165843Y0163146D01*
X0165798Y0163060D01*
X0165748Y0162977D01*
X0165695Y0162895D01*
X0165639Y0162816D01*
X0165580Y0162739D01*
X0165518Y0162665D01*
X0165452Y0162593D01*
X0165384Y0162524D01*
X0165313Y0162458D01*
X0165240Y0162395D01*
X0165163Y0162335D01*
X0165085Y0162278D01*
X0165004Y0162225D01*
X0164921Y0162174D01*
X0164836Y0162128D01*
X0164749Y0162084D01*
X0164661Y0162045D01*
X0164571Y0162009D01*
X0164479Y0161977D01*
X0164386Y0161948D01*
X0164293Y0161924D01*
X0164198Y0161903D01*
X0164102Y0161886D01*
X0164006Y0161873D01*
X0163910Y0161864D01*
X0163813Y0161859D01*
X0163716Y0161858D01*
X0163619Y0161861D01*
X0163522Y0161868D01*
X0163426Y0161879D01*
X0163330Y0161894D01*
X0163235Y0161913D01*
X0163140Y0161935D01*
X0163047Y0161962D01*
X0162955Y0161992D01*
X0162864Y0162026D01*
X0162775Y0162064D01*
X0162687Y0162106D01*
X0162601Y0162151D01*
X0162517Y0162199D01*
X0162435Y0162251D01*
X0162356Y0162306D01*
X0162278Y0162365D01*
X0162203Y0162426D01*
X0162131Y0162491D01*
X0162061Y0162558D01*
X0161994Y0162629D01*
X0161931Y0162702D01*
X0161870Y0162777D01*
X0161812Y0162855D01*
X0161758Y0162936D01*
X0161707Y0163018D01*
X0161659Y0163103D01*
X0161615Y0163189D01*
X0161574Y0163277D01*
X0161538Y0163367D01*
X0161504Y0163458D01*
X0161475Y0163550D01*
X0161449Y0163644D01*
X0161428Y0163738D01*
X0161410Y0163834D01*
X0161396Y0163930D01*
X0161386Y0164026D01*
X0161380Y0164123D01*
X0161378Y0164220D01*
X0176299Y0168709D02*
X0176301Y0168840D01*
X0176307Y0168972D01*
X0176317Y0169103D01*
X0176331Y0169234D01*
X0176349Y0169364D01*
X0176371Y0169493D01*
X0176396Y0169622D01*
X0176426Y0169750D01*
X0176460Y0169877D01*
X0176497Y0170004D01*
X0176538Y0170128D01*
X0176583Y0170252D01*
X0176632Y0170374D01*
X0176684Y0170495D01*
X0176740Y0170613D01*
X0176800Y0170731D01*
X0176863Y0170846D01*
X0176930Y0170959D01*
X0177000Y0171071D01*
X0177073Y0171180D01*
X0177149Y0171286D01*
X0177229Y0171391D01*
X0177312Y0171493D01*
X0177398Y0171592D01*
X0177487Y0171689D01*
X0177579Y0171783D01*
X0177674Y0171874D01*
X0177771Y0171963D01*
X0177871Y0172048D01*
X0177974Y0172130D01*
X0178079Y0172209D01*
X0178186Y0172285D01*
X0178296Y0172357D01*
X0178408Y0172426D01*
X0178522Y0172492D01*
X0178637Y0172554D01*
X0178755Y0172613D01*
X0178874Y0172668D01*
X0178995Y0172720D01*
X0179118Y0172767D01*
X0179242Y0172811D01*
X0179367Y0172852D01*
X0179493Y0172888D01*
X0179621Y0172921D01*
X0179749Y0172949D01*
X0179878Y0172974D01*
X0180008Y0172995D01*
X0180138Y0173012D01*
X0180269Y0173025D01*
X0180400Y0173034D01*
X0180531Y0173039D01*
X0180663Y0173040D01*
X0180794Y0173037D01*
X0180926Y0173030D01*
X0181057Y0173019D01*
X0181187Y0173004D01*
X0181317Y0172985D01*
X0181447Y0172962D01*
X0181575Y0172936D01*
X0181703Y0172905D01*
X0181830Y0172870D01*
X0181956Y0172832D01*
X0182080Y0172790D01*
X0182204Y0172744D01*
X0182325Y0172694D01*
X0182445Y0172641D01*
X0182564Y0172584D01*
X0182681Y0172524D01*
X0182795Y0172460D01*
X0182908Y0172392D01*
X0183019Y0172321D01*
X0183128Y0172247D01*
X0183234Y0172170D01*
X0183338Y0172089D01*
X0183439Y0172006D01*
X0183538Y0171919D01*
X0183634Y0171829D01*
X0183727Y0171736D01*
X0183818Y0171641D01*
X0183905Y0171543D01*
X0183990Y0171442D01*
X0184071Y0171339D01*
X0184149Y0171233D01*
X0184224Y0171125D01*
X0184296Y0171015D01*
X0184364Y0170903D01*
X0184429Y0170789D01*
X0184490Y0170672D01*
X0184548Y0170554D01*
X0184602Y0170434D01*
X0184653Y0170313D01*
X0184700Y0170190D01*
X0184743Y0170066D01*
X0184782Y0169941D01*
X0184818Y0169814D01*
X0184849Y0169686D01*
X0184877Y0169558D01*
X0184901Y0169429D01*
X0184921Y0169299D01*
X0184937Y0169168D01*
X0184949Y0169037D01*
X0184957Y0168906D01*
X0184961Y0168775D01*
X0184961Y0168643D01*
X0184957Y0168512D01*
X0184949Y0168381D01*
X0184937Y0168250D01*
X0184921Y0168119D01*
X0184901Y0167989D01*
X0184877Y0167860D01*
X0184849Y0167732D01*
X0184818Y0167604D01*
X0184782Y0167477D01*
X0184743Y0167352D01*
X0184700Y0167228D01*
X0184653Y0167105D01*
X0184602Y0166984D01*
X0184548Y0166864D01*
X0184490Y0166746D01*
X0184429Y0166629D01*
X0184364Y0166515D01*
X0184296Y0166403D01*
X0184224Y0166293D01*
X0184149Y0166185D01*
X0184071Y0166079D01*
X0183990Y0165976D01*
X0183905Y0165875D01*
X0183818Y0165777D01*
X0183727Y0165682D01*
X0183634Y0165589D01*
X0183538Y0165499D01*
X0183439Y0165412D01*
X0183338Y0165329D01*
X0183234Y0165248D01*
X0183128Y0165171D01*
X0183019Y0165097D01*
X0182908Y0165026D01*
X0182796Y0164958D01*
X0182681Y0164894D01*
X0182564Y0164834D01*
X0182445Y0164777D01*
X0182325Y0164724D01*
X0182204Y0164674D01*
X0182080Y0164628D01*
X0181956Y0164586D01*
X0181830Y0164548D01*
X0181703Y0164513D01*
X0181575Y0164482D01*
X0181447Y0164456D01*
X0181317Y0164433D01*
X0181187Y0164414D01*
X0181057Y0164399D01*
X0180926Y0164388D01*
X0180794Y0164381D01*
X0180663Y0164378D01*
X0180531Y0164379D01*
X0180400Y0164384D01*
X0180269Y0164393D01*
X0180138Y0164406D01*
X0180008Y0164423D01*
X0179878Y0164444D01*
X0179749Y0164469D01*
X0179621Y0164497D01*
X0179493Y0164530D01*
X0179367Y0164566D01*
X0179242Y0164607D01*
X0179118Y0164651D01*
X0178995Y0164698D01*
X0178874Y0164750D01*
X0178755Y0164805D01*
X0178637Y0164864D01*
X0178522Y0164926D01*
X0178408Y0164992D01*
X0178296Y0165061D01*
X0178186Y0165133D01*
X0178079Y0165209D01*
X0177974Y0165288D01*
X0177871Y0165370D01*
X0177771Y0165455D01*
X0177674Y0165544D01*
X0177579Y0165635D01*
X0177487Y0165729D01*
X0177398Y0165826D01*
X0177312Y0165925D01*
X0177229Y0166027D01*
X0177149Y0166132D01*
X0177073Y0166238D01*
X0177000Y0166347D01*
X0176930Y0166459D01*
X0176863Y0166572D01*
X0176800Y0166687D01*
X0176740Y0166805D01*
X0176684Y0166923D01*
X0176632Y0167044D01*
X0176583Y0167166D01*
X0176538Y0167290D01*
X0176497Y0167414D01*
X0176460Y0167541D01*
X0176426Y0167668D01*
X0176396Y0167796D01*
X0176371Y0167925D01*
X0176349Y0168054D01*
X0176331Y0168184D01*
X0176317Y0168315D01*
X0176307Y0168446D01*
X0176301Y0168578D01*
X0176299Y0168709D01*
X0161378Y0172843D02*
X0161380Y0172940D01*
X0161386Y0173037D01*
X0161396Y0173133D01*
X0161410Y0173229D01*
X0161428Y0173325D01*
X0161449Y0173419D01*
X0161475Y0173513D01*
X0161504Y0173605D01*
X0161538Y0173696D01*
X0161574Y0173786D01*
X0161615Y0173874D01*
X0161659Y0173960D01*
X0161707Y0174045D01*
X0161758Y0174127D01*
X0161812Y0174208D01*
X0161870Y0174286D01*
X0161931Y0174361D01*
X0161994Y0174434D01*
X0162061Y0174505D01*
X0162131Y0174572D01*
X0162203Y0174637D01*
X0162278Y0174698D01*
X0162356Y0174757D01*
X0162435Y0174812D01*
X0162517Y0174864D01*
X0162601Y0174912D01*
X0162687Y0174957D01*
X0162775Y0174999D01*
X0162864Y0175037D01*
X0162955Y0175071D01*
X0163047Y0175101D01*
X0163140Y0175128D01*
X0163235Y0175150D01*
X0163330Y0175169D01*
X0163426Y0175184D01*
X0163522Y0175195D01*
X0163619Y0175202D01*
X0163716Y0175205D01*
X0163813Y0175204D01*
X0163910Y0175199D01*
X0164006Y0175190D01*
X0164102Y0175177D01*
X0164198Y0175160D01*
X0164293Y0175139D01*
X0164386Y0175115D01*
X0164479Y0175086D01*
X0164571Y0175054D01*
X0164661Y0175018D01*
X0164749Y0174979D01*
X0164836Y0174935D01*
X0164921Y0174889D01*
X0165004Y0174838D01*
X0165085Y0174785D01*
X0165163Y0174728D01*
X0165240Y0174668D01*
X0165313Y0174605D01*
X0165384Y0174539D01*
X0165452Y0174470D01*
X0165518Y0174398D01*
X0165580Y0174324D01*
X0165639Y0174247D01*
X0165695Y0174168D01*
X0165748Y0174086D01*
X0165798Y0174003D01*
X0165843Y0173917D01*
X0165886Y0173830D01*
X0165925Y0173741D01*
X0165960Y0173651D01*
X0165991Y0173559D01*
X0166018Y0173466D01*
X0166042Y0173372D01*
X0166062Y0173277D01*
X0166078Y0173181D01*
X0166090Y0173085D01*
X0166098Y0172988D01*
X0166102Y0172891D01*
X0166102Y0172795D01*
X0166098Y0172698D01*
X0166090Y0172601D01*
X0166078Y0172505D01*
X0166062Y0172409D01*
X0166042Y0172314D01*
X0166018Y0172220D01*
X0165991Y0172127D01*
X0165960Y0172035D01*
X0165925Y0171945D01*
X0165886Y0171856D01*
X0165843Y0171769D01*
X0165798Y0171683D01*
X0165748Y0171600D01*
X0165695Y0171518D01*
X0165639Y0171439D01*
X0165580Y0171362D01*
X0165518Y0171288D01*
X0165452Y0171216D01*
X0165384Y0171147D01*
X0165313Y0171081D01*
X0165240Y0171018D01*
X0165163Y0170958D01*
X0165085Y0170901D01*
X0165004Y0170848D01*
X0164921Y0170797D01*
X0164836Y0170751D01*
X0164749Y0170707D01*
X0164661Y0170668D01*
X0164571Y0170632D01*
X0164479Y0170600D01*
X0164386Y0170571D01*
X0164293Y0170547D01*
X0164198Y0170526D01*
X0164102Y0170509D01*
X0164006Y0170496D01*
X0163910Y0170487D01*
X0163813Y0170482D01*
X0163716Y0170481D01*
X0163619Y0170484D01*
X0163522Y0170491D01*
X0163426Y0170502D01*
X0163330Y0170517D01*
X0163235Y0170536D01*
X0163140Y0170558D01*
X0163047Y0170585D01*
X0162955Y0170615D01*
X0162864Y0170649D01*
X0162775Y0170687D01*
X0162687Y0170729D01*
X0162601Y0170774D01*
X0162517Y0170822D01*
X0162435Y0170874D01*
X0162356Y0170929D01*
X0162278Y0170988D01*
X0162203Y0171049D01*
X0162131Y0171114D01*
X0162061Y0171181D01*
X0161994Y0171252D01*
X0161931Y0171325D01*
X0161870Y0171400D01*
X0161812Y0171478D01*
X0161758Y0171559D01*
X0161707Y0171641D01*
X0161659Y0171726D01*
X0161615Y0171812D01*
X0161574Y0171900D01*
X0161538Y0171990D01*
X0161504Y0172081D01*
X0161475Y0172173D01*
X0161449Y0172267D01*
X0161428Y0172361D01*
X0161410Y0172457D01*
X0161396Y0172553D01*
X0161386Y0172649D01*
X0161380Y0172746D01*
X0161378Y0172843D01*
X0196811Y0172843D02*
X0196813Y0172940D01*
X0196819Y0173037D01*
X0196829Y0173133D01*
X0196843Y0173229D01*
X0196861Y0173325D01*
X0196882Y0173419D01*
X0196908Y0173513D01*
X0196937Y0173605D01*
X0196971Y0173696D01*
X0197007Y0173786D01*
X0197048Y0173874D01*
X0197092Y0173960D01*
X0197140Y0174045D01*
X0197191Y0174127D01*
X0197245Y0174208D01*
X0197303Y0174286D01*
X0197364Y0174361D01*
X0197427Y0174434D01*
X0197494Y0174505D01*
X0197564Y0174572D01*
X0197636Y0174637D01*
X0197711Y0174698D01*
X0197789Y0174757D01*
X0197868Y0174812D01*
X0197950Y0174864D01*
X0198034Y0174912D01*
X0198120Y0174957D01*
X0198208Y0174999D01*
X0198297Y0175037D01*
X0198388Y0175071D01*
X0198480Y0175101D01*
X0198573Y0175128D01*
X0198668Y0175150D01*
X0198763Y0175169D01*
X0198859Y0175184D01*
X0198955Y0175195D01*
X0199052Y0175202D01*
X0199149Y0175205D01*
X0199246Y0175204D01*
X0199343Y0175199D01*
X0199439Y0175190D01*
X0199535Y0175177D01*
X0199631Y0175160D01*
X0199726Y0175139D01*
X0199819Y0175115D01*
X0199912Y0175086D01*
X0200004Y0175054D01*
X0200094Y0175018D01*
X0200182Y0174979D01*
X0200269Y0174935D01*
X0200354Y0174889D01*
X0200437Y0174838D01*
X0200518Y0174785D01*
X0200596Y0174728D01*
X0200673Y0174668D01*
X0200746Y0174605D01*
X0200817Y0174539D01*
X0200885Y0174470D01*
X0200951Y0174398D01*
X0201013Y0174324D01*
X0201072Y0174247D01*
X0201128Y0174168D01*
X0201181Y0174086D01*
X0201231Y0174003D01*
X0201276Y0173917D01*
X0201319Y0173830D01*
X0201358Y0173741D01*
X0201393Y0173651D01*
X0201424Y0173559D01*
X0201451Y0173466D01*
X0201475Y0173372D01*
X0201495Y0173277D01*
X0201511Y0173181D01*
X0201523Y0173085D01*
X0201531Y0172988D01*
X0201535Y0172891D01*
X0201535Y0172795D01*
X0201531Y0172698D01*
X0201523Y0172601D01*
X0201511Y0172505D01*
X0201495Y0172409D01*
X0201475Y0172314D01*
X0201451Y0172220D01*
X0201424Y0172127D01*
X0201393Y0172035D01*
X0201358Y0171945D01*
X0201319Y0171856D01*
X0201276Y0171769D01*
X0201231Y0171683D01*
X0201181Y0171600D01*
X0201128Y0171518D01*
X0201072Y0171439D01*
X0201013Y0171362D01*
X0200951Y0171288D01*
X0200885Y0171216D01*
X0200817Y0171147D01*
X0200746Y0171081D01*
X0200673Y0171018D01*
X0200596Y0170958D01*
X0200518Y0170901D01*
X0200437Y0170848D01*
X0200354Y0170797D01*
X0200269Y0170751D01*
X0200182Y0170707D01*
X0200094Y0170668D01*
X0200004Y0170632D01*
X0199912Y0170600D01*
X0199819Y0170571D01*
X0199726Y0170547D01*
X0199631Y0170526D01*
X0199535Y0170509D01*
X0199439Y0170496D01*
X0199343Y0170487D01*
X0199246Y0170482D01*
X0199149Y0170481D01*
X0199052Y0170484D01*
X0198955Y0170491D01*
X0198859Y0170502D01*
X0198763Y0170517D01*
X0198668Y0170536D01*
X0198573Y0170558D01*
X0198480Y0170585D01*
X0198388Y0170615D01*
X0198297Y0170649D01*
X0198208Y0170687D01*
X0198120Y0170729D01*
X0198034Y0170774D01*
X0197950Y0170822D01*
X0197868Y0170874D01*
X0197789Y0170929D01*
X0197711Y0170988D01*
X0197636Y0171049D01*
X0197564Y0171114D01*
X0197494Y0171181D01*
X0197427Y0171252D01*
X0197364Y0171325D01*
X0197303Y0171400D01*
X0197245Y0171478D01*
X0197191Y0171559D01*
X0197140Y0171641D01*
X0197092Y0171726D01*
X0197048Y0171812D01*
X0197007Y0171900D01*
X0196971Y0171990D01*
X0196937Y0172081D01*
X0196908Y0172173D01*
X0196882Y0172267D01*
X0196861Y0172361D01*
X0196843Y0172457D01*
X0196829Y0172553D01*
X0196819Y0172649D01*
X0196813Y0172746D01*
X0196811Y0172843D01*
X0211732Y0168709D02*
X0211734Y0168840D01*
X0211740Y0168972D01*
X0211750Y0169103D01*
X0211764Y0169234D01*
X0211782Y0169364D01*
X0211804Y0169493D01*
X0211829Y0169622D01*
X0211859Y0169750D01*
X0211893Y0169877D01*
X0211930Y0170004D01*
X0211971Y0170128D01*
X0212016Y0170252D01*
X0212065Y0170374D01*
X0212117Y0170495D01*
X0212173Y0170613D01*
X0212233Y0170731D01*
X0212296Y0170846D01*
X0212363Y0170959D01*
X0212433Y0171071D01*
X0212506Y0171180D01*
X0212582Y0171286D01*
X0212662Y0171391D01*
X0212745Y0171493D01*
X0212831Y0171592D01*
X0212920Y0171689D01*
X0213012Y0171783D01*
X0213107Y0171874D01*
X0213204Y0171963D01*
X0213304Y0172048D01*
X0213407Y0172130D01*
X0213512Y0172209D01*
X0213619Y0172285D01*
X0213729Y0172357D01*
X0213841Y0172426D01*
X0213955Y0172492D01*
X0214070Y0172554D01*
X0214188Y0172613D01*
X0214307Y0172668D01*
X0214428Y0172720D01*
X0214551Y0172767D01*
X0214675Y0172811D01*
X0214800Y0172852D01*
X0214926Y0172888D01*
X0215054Y0172921D01*
X0215182Y0172949D01*
X0215311Y0172974D01*
X0215441Y0172995D01*
X0215571Y0173012D01*
X0215702Y0173025D01*
X0215833Y0173034D01*
X0215964Y0173039D01*
X0216096Y0173040D01*
X0216227Y0173037D01*
X0216359Y0173030D01*
X0216490Y0173019D01*
X0216620Y0173004D01*
X0216750Y0172985D01*
X0216880Y0172962D01*
X0217008Y0172936D01*
X0217136Y0172905D01*
X0217263Y0172870D01*
X0217389Y0172832D01*
X0217513Y0172790D01*
X0217637Y0172744D01*
X0217758Y0172694D01*
X0217878Y0172641D01*
X0217997Y0172584D01*
X0218114Y0172524D01*
X0218228Y0172460D01*
X0218341Y0172392D01*
X0218452Y0172321D01*
X0218561Y0172247D01*
X0218667Y0172170D01*
X0218771Y0172089D01*
X0218872Y0172006D01*
X0218971Y0171919D01*
X0219067Y0171829D01*
X0219160Y0171736D01*
X0219251Y0171641D01*
X0219338Y0171543D01*
X0219423Y0171442D01*
X0219504Y0171339D01*
X0219582Y0171233D01*
X0219657Y0171125D01*
X0219729Y0171015D01*
X0219797Y0170903D01*
X0219862Y0170789D01*
X0219923Y0170672D01*
X0219981Y0170554D01*
X0220035Y0170434D01*
X0220086Y0170313D01*
X0220133Y0170190D01*
X0220176Y0170066D01*
X0220215Y0169941D01*
X0220251Y0169814D01*
X0220282Y0169686D01*
X0220310Y0169558D01*
X0220334Y0169429D01*
X0220354Y0169299D01*
X0220370Y0169168D01*
X0220382Y0169037D01*
X0220390Y0168906D01*
X0220394Y0168775D01*
X0220394Y0168643D01*
X0220390Y0168512D01*
X0220382Y0168381D01*
X0220370Y0168250D01*
X0220354Y0168119D01*
X0220334Y0167989D01*
X0220310Y0167860D01*
X0220282Y0167732D01*
X0220251Y0167604D01*
X0220215Y0167477D01*
X0220176Y0167352D01*
X0220133Y0167228D01*
X0220086Y0167105D01*
X0220035Y0166984D01*
X0219981Y0166864D01*
X0219923Y0166746D01*
X0219862Y0166629D01*
X0219797Y0166515D01*
X0219729Y0166403D01*
X0219657Y0166293D01*
X0219582Y0166185D01*
X0219504Y0166079D01*
X0219423Y0165976D01*
X0219338Y0165875D01*
X0219251Y0165777D01*
X0219160Y0165682D01*
X0219067Y0165589D01*
X0218971Y0165499D01*
X0218872Y0165412D01*
X0218771Y0165329D01*
X0218667Y0165248D01*
X0218561Y0165171D01*
X0218452Y0165097D01*
X0218341Y0165026D01*
X0218229Y0164958D01*
X0218114Y0164894D01*
X0217997Y0164834D01*
X0217878Y0164777D01*
X0217758Y0164724D01*
X0217637Y0164674D01*
X0217513Y0164628D01*
X0217389Y0164586D01*
X0217263Y0164548D01*
X0217136Y0164513D01*
X0217008Y0164482D01*
X0216880Y0164456D01*
X0216750Y0164433D01*
X0216620Y0164414D01*
X0216490Y0164399D01*
X0216359Y0164388D01*
X0216227Y0164381D01*
X0216096Y0164378D01*
X0215964Y0164379D01*
X0215833Y0164384D01*
X0215702Y0164393D01*
X0215571Y0164406D01*
X0215441Y0164423D01*
X0215311Y0164444D01*
X0215182Y0164469D01*
X0215054Y0164497D01*
X0214926Y0164530D01*
X0214800Y0164566D01*
X0214675Y0164607D01*
X0214551Y0164651D01*
X0214428Y0164698D01*
X0214307Y0164750D01*
X0214188Y0164805D01*
X0214070Y0164864D01*
X0213955Y0164926D01*
X0213841Y0164992D01*
X0213729Y0165061D01*
X0213619Y0165133D01*
X0213512Y0165209D01*
X0213407Y0165288D01*
X0213304Y0165370D01*
X0213204Y0165455D01*
X0213107Y0165544D01*
X0213012Y0165635D01*
X0212920Y0165729D01*
X0212831Y0165826D01*
X0212745Y0165925D01*
X0212662Y0166027D01*
X0212582Y0166132D01*
X0212506Y0166238D01*
X0212433Y0166347D01*
X0212363Y0166459D01*
X0212296Y0166572D01*
X0212233Y0166687D01*
X0212173Y0166805D01*
X0212117Y0166923D01*
X0212065Y0167044D01*
X0212016Y0167166D01*
X0211971Y0167290D01*
X0211930Y0167414D01*
X0211893Y0167541D01*
X0211859Y0167668D01*
X0211829Y0167796D01*
X0211804Y0167925D01*
X0211782Y0168054D01*
X0211764Y0168184D01*
X0211750Y0168315D01*
X0211740Y0168446D01*
X0211734Y0168578D01*
X0211732Y0168709D01*
X0196811Y0164220D02*
X0196813Y0164317D01*
X0196819Y0164414D01*
X0196829Y0164510D01*
X0196843Y0164606D01*
X0196861Y0164702D01*
X0196882Y0164796D01*
X0196908Y0164890D01*
X0196937Y0164982D01*
X0196971Y0165073D01*
X0197007Y0165163D01*
X0197048Y0165251D01*
X0197092Y0165337D01*
X0197140Y0165422D01*
X0197191Y0165504D01*
X0197245Y0165585D01*
X0197303Y0165663D01*
X0197364Y0165738D01*
X0197427Y0165811D01*
X0197494Y0165882D01*
X0197564Y0165949D01*
X0197636Y0166014D01*
X0197711Y0166075D01*
X0197789Y0166134D01*
X0197868Y0166189D01*
X0197950Y0166241D01*
X0198034Y0166289D01*
X0198120Y0166334D01*
X0198208Y0166376D01*
X0198297Y0166414D01*
X0198388Y0166448D01*
X0198480Y0166478D01*
X0198573Y0166505D01*
X0198668Y0166527D01*
X0198763Y0166546D01*
X0198859Y0166561D01*
X0198955Y0166572D01*
X0199052Y0166579D01*
X0199149Y0166582D01*
X0199246Y0166581D01*
X0199343Y0166576D01*
X0199439Y0166567D01*
X0199535Y0166554D01*
X0199631Y0166537D01*
X0199726Y0166516D01*
X0199819Y0166492D01*
X0199912Y0166463D01*
X0200004Y0166431D01*
X0200094Y0166395D01*
X0200182Y0166356D01*
X0200269Y0166312D01*
X0200354Y0166266D01*
X0200437Y0166215D01*
X0200518Y0166162D01*
X0200596Y0166105D01*
X0200673Y0166045D01*
X0200746Y0165982D01*
X0200817Y0165916D01*
X0200885Y0165847D01*
X0200951Y0165775D01*
X0201013Y0165701D01*
X0201072Y0165624D01*
X0201128Y0165545D01*
X0201181Y0165463D01*
X0201231Y0165380D01*
X0201276Y0165294D01*
X0201319Y0165207D01*
X0201358Y0165118D01*
X0201393Y0165028D01*
X0201424Y0164936D01*
X0201451Y0164843D01*
X0201475Y0164749D01*
X0201495Y0164654D01*
X0201511Y0164558D01*
X0201523Y0164462D01*
X0201531Y0164365D01*
X0201535Y0164268D01*
X0201535Y0164172D01*
X0201531Y0164075D01*
X0201523Y0163978D01*
X0201511Y0163882D01*
X0201495Y0163786D01*
X0201475Y0163691D01*
X0201451Y0163597D01*
X0201424Y0163504D01*
X0201393Y0163412D01*
X0201358Y0163322D01*
X0201319Y0163233D01*
X0201276Y0163146D01*
X0201231Y0163060D01*
X0201181Y0162977D01*
X0201128Y0162895D01*
X0201072Y0162816D01*
X0201013Y0162739D01*
X0200951Y0162665D01*
X0200885Y0162593D01*
X0200817Y0162524D01*
X0200746Y0162458D01*
X0200673Y0162395D01*
X0200596Y0162335D01*
X0200518Y0162278D01*
X0200437Y0162225D01*
X0200354Y0162174D01*
X0200269Y0162128D01*
X0200182Y0162084D01*
X0200094Y0162045D01*
X0200004Y0162009D01*
X0199912Y0161977D01*
X0199819Y0161948D01*
X0199726Y0161924D01*
X0199631Y0161903D01*
X0199535Y0161886D01*
X0199439Y0161873D01*
X0199343Y0161864D01*
X0199246Y0161859D01*
X0199149Y0161858D01*
X0199052Y0161861D01*
X0198955Y0161868D01*
X0198859Y0161879D01*
X0198763Y0161894D01*
X0198668Y0161913D01*
X0198573Y0161935D01*
X0198480Y0161962D01*
X0198388Y0161992D01*
X0198297Y0162026D01*
X0198208Y0162064D01*
X0198120Y0162106D01*
X0198034Y0162151D01*
X0197950Y0162199D01*
X0197868Y0162251D01*
X0197789Y0162306D01*
X0197711Y0162365D01*
X0197636Y0162426D01*
X0197564Y0162491D01*
X0197494Y0162558D01*
X0197427Y0162629D01*
X0197364Y0162702D01*
X0197303Y0162777D01*
X0197245Y0162855D01*
X0197191Y0162936D01*
X0197140Y0163018D01*
X0197092Y0163103D01*
X0197048Y0163189D01*
X0197007Y0163277D01*
X0196971Y0163367D01*
X0196937Y0163458D01*
X0196908Y0163550D01*
X0196882Y0163644D01*
X0196861Y0163738D01*
X0196843Y0163834D01*
X0196829Y0163930D01*
X0196819Y0164026D01*
X0196813Y0164123D01*
X0196811Y0164220D01*
X0326732Y0164220D02*
X0326734Y0164317D01*
X0326740Y0164414D01*
X0326750Y0164510D01*
X0326764Y0164606D01*
X0326782Y0164702D01*
X0326803Y0164796D01*
X0326829Y0164890D01*
X0326858Y0164982D01*
X0326892Y0165073D01*
X0326928Y0165163D01*
X0326969Y0165251D01*
X0327013Y0165337D01*
X0327061Y0165422D01*
X0327112Y0165504D01*
X0327166Y0165585D01*
X0327224Y0165663D01*
X0327285Y0165738D01*
X0327348Y0165811D01*
X0327415Y0165882D01*
X0327485Y0165949D01*
X0327557Y0166014D01*
X0327632Y0166075D01*
X0327710Y0166134D01*
X0327789Y0166189D01*
X0327871Y0166241D01*
X0327955Y0166289D01*
X0328041Y0166334D01*
X0328129Y0166376D01*
X0328218Y0166414D01*
X0328309Y0166448D01*
X0328401Y0166478D01*
X0328494Y0166505D01*
X0328589Y0166527D01*
X0328684Y0166546D01*
X0328780Y0166561D01*
X0328876Y0166572D01*
X0328973Y0166579D01*
X0329070Y0166582D01*
X0329167Y0166581D01*
X0329264Y0166576D01*
X0329360Y0166567D01*
X0329456Y0166554D01*
X0329552Y0166537D01*
X0329647Y0166516D01*
X0329740Y0166492D01*
X0329833Y0166463D01*
X0329925Y0166431D01*
X0330015Y0166395D01*
X0330103Y0166356D01*
X0330190Y0166312D01*
X0330275Y0166266D01*
X0330358Y0166215D01*
X0330439Y0166162D01*
X0330517Y0166105D01*
X0330594Y0166045D01*
X0330667Y0165982D01*
X0330738Y0165916D01*
X0330806Y0165847D01*
X0330872Y0165775D01*
X0330934Y0165701D01*
X0330993Y0165624D01*
X0331049Y0165545D01*
X0331102Y0165463D01*
X0331152Y0165380D01*
X0331197Y0165294D01*
X0331240Y0165207D01*
X0331279Y0165118D01*
X0331314Y0165028D01*
X0331345Y0164936D01*
X0331372Y0164843D01*
X0331396Y0164749D01*
X0331416Y0164654D01*
X0331432Y0164558D01*
X0331444Y0164462D01*
X0331452Y0164365D01*
X0331456Y0164268D01*
X0331456Y0164172D01*
X0331452Y0164075D01*
X0331444Y0163978D01*
X0331432Y0163882D01*
X0331416Y0163786D01*
X0331396Y0163691D01*
X0331372Y0163597D01*
X0331345Y0163504D01*
X0331314Y0163412D01*
X0331279Y0163322D01*
X0331240Y0163233D01*
X0331197Y0163146D01*
X0331152Y0163060D01*
X0331102Y0162977D01*
X0331049Y0162895D01*
X0330993Y0162816D01*
X0330934Y0162739D01*
X0330872Y0162665D01*
X0330806Y0162593D01*
X0330738Y0162524D01*
X0330667Y0162458D01*
X0330594Y0162395D01*
X0330517Y0162335D01*
X0330439Y0162278D01*
X0330358Y0162225D01*
X0330275Y0162174D01*
X0330190Y0162128D01*
X0330103Y0162084D01*
X0330015Y0162045D01*
X0329925Y0162009D01*
X0329833Y0161977D01*
X0329740Y0161948D01*
X0329647Y0161924D01*
X0329552Y0161903D01*
X0329456Y0161886D01*
X0329360Y0161873D01*
X0329264Y0161864D01*
X0329167Y0161859D01*
X0329070Y0161858D01*
X0328973Y0161861D01*
X0328876Y0161868D01*
X0328780Y0161879D01*
X0328684Y0161894D01*
X0328589Y0161913D01*
X0328494Y0161935D01*
X0328401Y0161962D01*
X0328309Y0161992D01*
X0328218Y0162026D01*
X0328129Y0162064D01*
X0328041Y0162106D01*
X0327955Y0162151D01*
X0327871Y0162199D01*
X0327789Y0162251D01*
X0327710Y0162306D01*
X0327632Y0162365D01*
X0327557Y0162426D01*
X0327485Y0162491D01*
X0327415Y0162558D01*
X0327348Y0162629D01*
X0327285Y0162702D01*
X0327224Y0162777D01*
X0327166Y0162855D01*
X0327112Y0162936D01*
X0327061Y0163018D01*
X0327013Y0163103D01*
X0326969Y0163189D01*
X0326928Y0163277D01*
X0326892Y0163367D01*
X0326858Y0163458D01*
X0326829Y0163550D01*
X0326803Y0163644D01*
X0326782Y0163738D01*
X0326764Y0163834D01*
X0326750Y0163930D01*
X0326740Y0164026D01*
X0326734Y0164123D01*
X0326732Y0164220D01*
X0341653Y0168709D02*
X0341655Y0168840D01*
X0341661Y0168972D01*
X0341671Y0169103D01*
X0341685Y0169234D01*
X0341703Y0169364D01*
X0341725Y0169493D01*
X0341750Y0169622D01*
X0341780Y0169750D01*
X0341814Y0169877D01*
X0341851Y0170004D01*
X0341892Y0170128D01*
X0341937Y0170252D01*
X0341986Y0170374D01*
X0342038Y0170495D01*
X0342094Y0170613D01*
X0342154Y0170731D01*
X0342217Y0170846D01*
X0342284Y0170959D01*
X0342354Y0171071D01*
X0342427Y0171180D01*
X0342503Y0171286D01*
X0342583Y0171391D01*
X0342666Y0171493D01*
X0342752Y0171592D01*
X0342841Y0171689D01*
X0342933Y0171783D01*
X0343028Y0171874D01*
X0343125Y0171963D01*
X0343225Y0172048D01*
X0343328Y0172130D01*
X0343433Y0172209D01*
X0343540Y0172285D01*
X0343650Y0172357D01*
X0343762Y0172426D01*
X0343876Y0172492D01*
X0343991Y0172554D01*
X0344109Y0172613D01*
X0344228Y0172668D01*
X0344349Y0172720D01*
X0344472Y0172767D01*
X0344596Y0172811D01*
X0344721Y0172852D01*
X0344847Y0172888D01*
X0344975Y0172921D01*
X0345103Y0172949D01*
X0345232Y0172974D01*
X0345362Y0172995D01*
X0345492Y0173012D01*
X0345623Y0173025D01*
X0345754Y0173034D01*
X0345885Y0173039D01*
X0346017Y0173040D01*
X0346148Y0173037D01*
X0346280Y0173030D01*
X0346411Y0173019D01*
X0346541Y0173004D01*
X0346671Y0172985D01*
X0346801Y0172962D01*
X0346929Y0172936D01*
X0347057Y0172905D01*
X0347184Y0172870D01*
X0347310Y0172832D01*
X0347434Y0172790D01*
X0347558Y0172744D01*
X0347679Y0172694D01*
X0347799Y0172641D01*
X0347918Y0172584D01*
X0348035Y0172524D01*
X0348149Y0172460D01*
X0348262Y0172392D01*
X0348373Y0172321D01*
X0348482Y0172247D01*
X0348588Y0172170D01*
X0348692Y0172089D01*
X0348793Y0172006D01*
X0348892Y0171919D01*
X0348988Y0171829D01*
X0349081Y0171736D01*
X0349172Y0171641D01*
X0349259Y0171543D01*
X0349344Y0171442D01*
X0349425Y0171339D01*
X0349503Y0171233D01*
X0349578Y0171125D01*
X0349650Y0171015D01*
X0349718Y0170903D01*
X0349783Y0170789D01*
X0349844Y0170672D01*
X0349902Y0170554D01*
X0349956Y0170434D01*
X0350007Y0170313D01*
X0350054Y0170190D01*
X0350097Y0170066D01*
X0350136Y0169941D01*
X0350172Y0169814D01*
X0350203Y0169686D01*
X0350231Y0169558D01*
X0350255Y0169429D01*
X0350275Y0169299D01*
X0350291Y0169168D01*
X0350303Y0169037D01*
X0350311Y0168906D01*
X0350315Y0168775D01*
X0350315Y0168643D01*
X0350311Y0168512D01*
X0350303Y0168381D01*
X0350291Y0168250D01*
X0350275Y0168119D01*
X0350255Y0167989D01*
X0350231Y0167860D01*
X0350203Y0167732D01*
X0350172Y0167604D01*
X0350136Y0167477D01*
X0350097Y0167352D01*
X0350054Y0167228D01*
X0350007Y0167105D01*
X0349956Y0166984D01*
X0349902Y0166864D01*
X0349844Y0166746D01*
X0349783Y0166629D01*
X0349718Y0166515D01*
X0349650Y0166403D01*
X0349578Y0166293D01*
X0349503Y0166185D01*
X0349425Y0166079D01*
X0349344Y0165976D01*
X0349259Y0165875D01*
X0349172Y0165777D01*
X0349081Y0165682D01*
X0348988Y0165589D01*
X0348892Y0165499D01*
X0348793Y0165412D01*
X0348692Y0165329D01*
X0348588Y0165248D01*
X0348482Y0165171D01*
X0348373Y0165097D01*
X0348262Y0165026D01*
X0348150Y0164958D01*
X0348035Y0164894D01*
X0347918Y0164834D01*
X0347799Y0164777D01*
X0347679Y0164724D01*
X0347558Y0164674D01*
X0347434Y0164628D01*
X0347310Y0164586D01*
X0347184Y0164548D01*
X0347057Y0164513D01*
X0346929Y0164482D01*
X0346801Y0164456D01*
X0346671Y0164433D01*
X0346541Y0164414D01*
X0346411Y0164399D01*
X0346280Y0164388D01*
X0346148Y0164381D01*
X0346017Y0164378D01*
X0345885Y0164379D01*
X0345754Y0164384D01*
X0345623Y0164393D01*
X0345492Y0164406D01*
X0345362Y0164423D01*
X0345232Y0164444D01*
X0345103Y0164469D01*
X0344975Y0164497D01*
X0344847Y0164530D01*
X0344721Y0164566D01*
X0344596Y0164607D01*
X0344472Y0164651D01*
X0344349Y0164698D01*
X0344228Y0164750D01*
X0344109Y0164805D01*
X0343991Y0164864D01*
X0343876Y0164926D01*
X0343762Y0164992D01*
X0343650Y0165061D01*
X0343540Y0165133D01*
X0343433Y0165209D01*
X0343328Y0165288D01*
X0343225Y0165370D01*
X0343125Y0165455D01*
X0343028Y0165544D01*
X0342933Y0165635D01*
X0342841Y0165729D01*
X0342752Y0165826D01*
X0342666Y0165925D01*
X0342583Y0166027D01*
X0342503Y0166132D01*
X0342427Y0166238D01*
X0342354Y0166347D01*
X0342284Y0166459D01*
X0342217Y0166572D01*
X0342154Y0166687D01*
X0342094Y0166805D01*
X0342038Y0166923D01*
X0341986Y0167044D01*
X0341937Y0167166D01*
X0341892Y0167290D01*
X0341851Y0167414D01*
X0341814Y0167541D01*
X0341780Y0167668D01*
X0341750Y0167796D01*
X0341725Y0167925D01*
X0341703Y0168054D01*
X0341685Y0168184D01*
X0341671Y0168315D01*
X0341661Y0168446D01*
X0341655Y0168578D01*
X0341653Y0168709D01*
X0326732Y0172843D02*
X0326734Y0172940D01*
X0326740Y0173037D01*
X0326750Y0173133D01*
X0326764Y0173229D01*
X0326782Y0173325D01*
X0326803Y0173419D01*
X0326829Y0173513D01*
X0326858Y0173605D01*
X0326892Y0173696D01*
X0326928Y0173786D01*
X0326969Y0173874D01*
X0327013Y0173960D01*
X0327061Y0174045D01*
X0327112Y0174127D01*
X0327166Y0174208D01*
X0327224Y0174286D01*
X0327285Y0174361D01*
X0327348Y0174434D01*
X0327415Y0174505D01*
X0327485Y0174572D01*
X0327557Y0174637D01*
X0327632Y0174698D01*
X0327710Y0174757D01*
X0327789Y0174812D01*
X0327871Y0174864D01*
X0327955Y0174912D01*
X0328041Y0174957D01*
X0328129Y0174999D01*
X0328218Y0175037D01*
X0328309Y0175071D01*
X0328401Y0175101D01*
X0328494Y0175128D01*
X0328589Y0175150D01*
X0328684Y0175169D01*
X0328780Y0175184D01*
X0328876Y0175195D01*
X0328973Y0175202D01*
X0329070Y0175205D01*
X0329167Y0175204D01*
X0329264Y0175199D01*
X0329360Y0175190D01*
X0329456Y0175177D01*
X0329552Y0175160D01*
X0329647Y0175139D01*
X0329740Y0175115D01*
X0329833Y0175086D01*
X0329925Y0175054D01*
X0330015Y0175018D01*
X0330103Y0174979D01*
X0330190Y0174935D01*
X0330275Y0174889D01*
X0330358Y0174838D01*
X0330439Y0174785D01*
X0330517Y0174728D01*
X0330594Y0174668D01*
X0330667Y0174605D01*
X0330738Y0174539D01*
X0330806Y0174470D01*
X0330872Y0174398D01*
X0330934Y0174324D01*
X0330993Y0174247D01*
X0331049Y0174168D01*
X0331102Y0174086D01*
X0331152Y0174003D01*
X0331197Y0173917D01*
X0331240Y0173830D01*
X0331279Y0173741D01*
X0331314Y0173651D01*
X0331345Y0173559D01*
X0331372Y0173466D01*
X0331396Y0173372D01*
X0331416Y0173277D01*
X0331432Y0173181D01*
X0331444Y0173085D01*
X0331452Y0172988D01*
X0331456Y0172891D01*
X0331456Y0172795D01*
X0331452Y0172698D01*
X0331444Y0172601D01*
X0331432Y0172505D01*
X0331416Y0172409D01*
X0331396Y0172314D01*
X0331372Y0172220D01*
X0331345Y0172127D01*
X0331314Y0172035D01*
X0331279Y0171945D01*
X0331240Y0171856D01*
X0331197Y0171769D01*
X0331152Y0171683D01*
X0331102Y0171600D01*
X0331049Y0171518D01*
X0330993Y0171439D01*
X0330934Y0171362D01*
X0330872Y0171288D01*
X0330806Y0171216D01*
X0330738Y0171147D01*
X0330667Y0171081D01*
X0330594Y0171018D01*
X0330517Y0170958D01*
X0330439Y0170901D01*
X0330358Y0170848D01*
X0330275Y0170797D01*
X0330190Y0170751D01*
X0330103Y0170707D01*
X0330015Y0170668D01*
X0329925Y0170632D01*
X0329833Y0170600D01*
X0329740Y0170571D01*
X0329647Y0170547D01*
X0329552Y0170526D01*
X0329456Y0170509D01*
X0329360Y0170496D01*
X0329264Y0170487D01*
X0329167Y0170482D01*
X0329070Y0170481D01*
X0328973Y0170484D01*
X0328876Y0170491D01*
X0328780Y0170502D01*
X0328684Y0170517D01*
X0328589Y0170536D01*
X0328494Y0170558D01*
X0328401Y0170585D01*
X0328309Y0170615D01*
X0328218Y0170649D01*
X0328129Y0170687D01*
X0328041Y0170729D01*
X0327955Y0170774D01*
X0327871Y0170822D01*
X0327789Y0170874D01*
X0327710Y0170929D01*
X0327632Y0170988D01*
X0327557Y0171049D01*
X0327485Y0171114D01*
X0327415Y0171181D01*
X0327348Y0171252D01*
X0327285Y0171325D01*
X0327224Y0171400D01*
X0327166Y0171478D01*
X0327112Y0171559D01*
X0327061Y0171641D01*
X0327013Y0171726D01*
X0326969Y0171812D01*
X0326928Y0171900D01*
X0326892Y0171990D01*
X0326858Y0172081D01*
X0326829Y0172173D01*
X0326803Y0172267D01*
X0326782Y0172361D01*
X0326764Y0172457D01*
X0326750Y0172553D01*
X0326740Y0172649D01*
X0326734Y0172746D01*
X0326732Y0172843D01*
X0362165Y0172843D02*
X0362167Y0172940D01*
X0362173Y0173037D01*
X0362183Y0173133D01*
X0362197Y0173229D01*
X0362215Y0173325D01*
X0362236Y0173419D01*
X0362262Y0173513D01*
X0362291Y0173605D01*
X0362325Y0173696D01*
X0362361Y0173786D01*
X0362402Y0173874D01*
X0362446Y0173960D01*
X0362494Y0174045D01*
X0362545Y0174127D01*
X0362599Y0174208D01*
X0362657Y0174286D01*
X0362718Y0174361D01*
X0362781Y0174434D01*
X0362848Y0174505D01*
X0362918Y0174572D01*
X0362990Y0174637D01*
X0363065Y0174698D01*
X0363143Y0174757D01*
X0363222Y0174812D01*
X0363304Y0174864D01*
X0363388Y0174912D01*
X0363474Y0174957D01*
X0363562Y0174999D01*
X0363651Y0175037D01*
X0363742Y0175071D01*
X0363834Y0175101D01*
X0363927Y0175128D01*
X0364022Y0175150D01*
X0364117Y0175169D01*
X0364213Y0175184D01*
X0364309Y0175195D01*
X0364406Y0175202D01*
X0364503Y0175205D01*
X0364600Y0175204D01*
X0364697Y0175199D01*
X0364793Y0175190D01*
X0364889Y0175177D01*
X0364985Y0175160D01*
X0365080Y0175139D01*
X0365173Y0175115D01*
X0365266Y0175086D01*
X0365358Y0175054D01*
X0365448Y0175018D01*
X0365536Y0174979D01*
X0365623Y0174935D01*
X0365708Y0174889D01*
X0365791Y0174838D01*
X0365872Y0174785D01*
X0365950Y0174728D01*
X0366027Y0174668D01*
X0366100Y0174605D01*
X0366171Y0174539D01*
X0366239Y0174470D01*
X0366305Y0174398D01*
X0366367Y0174324D01*
X0366426Y0174247D01*
X0366482Y0174168D01*
X0366535Y0174086D01*
X0366585Y0174003D01*
X0366630Y0173917D01*
X0366673Y0173830D01*
X0366712Y0173741D01*
X0366747Y0173651D01*
X0366778Y0173559D01*
X0366805Y0173466D01*
X0366829Y0173372D01*
X0366849Y0173277D01*
X0366865Y0173181D01*
X0366877Y0173085D01*
X0366885Y0172988D01*
X0366889Y0172891D01*
X0366889Y0172795D01*
X0366885Y0172698D01*
X0366877Y0172601D01*
X0366865Y0172505D01*
X0366849Y0172409D01*
X0366829Y0172314D01*
X0366805Y0172220D01*
X0366778Y0172127D01*
X0366747Y0172035D01*
X0366712Y0171945D01*
X0366673Y0171856D01*
X0366630Y0171769D01*
X0366585Y0171683D01*
X0366535Y0171600D01*
X0366482Y0171518D01*
X0366426Y0171439D01*
X0366367Y0171362D01*
X0366305Y0171288D01*
X0366239Y0171216D01*
X0366171Y0171147D01*
X0366100Y0171081D01*
X0366027Y0171018D01*
X0365950Y0170958D01*
X0365872Y0170901D01*
X0365791Y0170848D01*
X0365708Y0170797D01*
X0365623Y0170751D01*
X0365536Y0170707D01*
X0365448Y0170668D01*
X0365358Y0170632D01*
X0365266Y0170600D01*
X0365173Y0170571D01*
X0365080Y0170547D01*
X0364985Y0170526D01*
X0364889Y0170509D01*
X0364793Y0170496D01*
X0364697Y0170487D01*
X0364600Y0170482D01*
X0364503Y0170481D01*
X0364406Y0170484D01*
X0364309Y0170491D01*
X0364213Y0170502D01*
X0364117Y0170517D01*
X0364022Y0170536D01*
X0363927Y0170558D01*
X0363834Y0170585D01*
X0363742Y0170615D01*
X0363651Y0170649D01*
X0363562Y0170687D01*
X0363474Y0170729D01*
X0363388Y0170774D01*
X0363304Y0170822D01*
X0363222Y0170874D01*
X0363143Y0170929D01*
X0363065Y0170988D01*
X0362990Y0171049D01*
X0362918Y0171114D01*
X0362848Y0171181D01*
X0362781Y0171252D01*
X0362718Y0171325D01*
X0362657Y0171400D01*
X0362599Y0171478D01*
X0362545Y0171559D01*
X0362494Y0171641D01*
X0362446Y0171726D01*
X0362402Y0171812D01*
X0362361Y0171900D01*
X0362325Y0171990D01*
X0362291Y0172081D01*
X0362262Y0172173D01*
X0362236Y0172267D01*
X0362215Y0172361D01*
X0362197Y0172457D01*
X0362183Y0172553D01*
X0362173Y0172649D01*
X0362167Y0172746D01*
X0362165Y0172843D01*
X0377086Y0168709D02*
X0377088Y0168840D01*
X0377094Y0168972D01*
X0377104Y0169103D01*
X0377118Y0169234D01*
X0377136Y0169364D01*
X0377158Y0169493D01*
X0377183Y0169622D01*
X0377213Y0169750D01*
X0377247Y0169877D01*
X0377284Y0170004D01*
X0377325Y0170128D01*
X0377370Y0170252D01*
X0377419Y0170374D01*
X0377471Y0170495D01*
X0377527Y0170613D01*
X0377587Y0170731D01*
X0377650Y0170846D01*
X0377717Y0170959D01*
X0377787Y0171071D01*
X0377860Y0171180D01*
X0377936Y0171286D01*
X0378016Y0171391D01*
X0378099Y0171493D01*
X0378185Y0171592D01*
X0378274Y0171689D01*
X0378366Y0171783D01*
X0378461Y0171874D01*
X0378558Y0171963D01*
X0378658Y0172048D01*
X0378761Y0172130D01*
X0378866Y0172209D01*
X0378973Y0172285D01*
X0379083Y0172357D01*
X0379195Y0172426D01*
X0379309Y0172492D01*
X0379424Y0172554D01*
X0379542Y0172613D01*
X0379661Y0172668D01*
X0379782Y0172720D01*
X0379905Y0172767D01*
X0380029Y0172811D01*
X0380154Y0172852D01*
X0380280Y0172888D01*
X0380408Y0172921D01*
X0380536Y0172949D01*
X0380665Y0172974D01*
X0380795Y0172995D01*
X0380925Y0173012D01*
X0381056Y0173025D01*
X0381187Y0173034D01*
X0381318Y0173039D01*
X0381450Y0173040D01*
X0381581Y0173037D01*
X0381713Y0173030D01*
X0381844Y0173019D01*
X0381974Y0173004D01*
X0382104Y0172985D01*
X0382234Y0172962D01*
X0382362Y0172936D01*
X0382490Y0172905D01*
X0382617Y0172870D01*
X0382743Y0172832D01*
X0382867Y0172790D01*
X0382991Y0172744D01*
X0383112Y0172694D01*
X0383232Y0172641D01*
X0383351Y0172584D01*
X0383468Y0172524D01*
X0383582Y0172460D01*
X0383695Y0172392D01*
X0383806Y0172321D01*
X0383915Y0172247D01*
X0384021Y0172170D01*
X0384125Y0172089D01*
X0384226Y0172006D01*
X0384325Y0171919D01*
X0384421Y0171829D01*
X0384514Y0171736D01*
X0384605Y0171641D01*
X0384692Y0171543D01*
X0384777Y0171442D01*
X0384858Y0171339D01*
X0384936Y0171233D01*
X0385011Y0171125D01*
X0385083Y0171015D01*
X0385151Y0170903D01*
X0385216Y0170789D01*
X0385277Y0170672D01*
X0385335Y0170554D01*
X0385389Y0170434D01*
X0385440Y0170313D01*
X0385487Y0170190D01*
X0385530Y0170066D01*
X0385569Y0169941D01*
X0385605Y0169814D01*
X0385636Y0169686D01*
X0385664Y0169558D01*
X0385688Y0169429D01*
X0385708Y0169299D01*
X0385724Y0169168D01*
X0385736Y0169037D01*
X0385744Y0168906D01*
X0385748Y0168775D01*
X0385748Y0168643D01*
X0385744Y0168512D01*
X0385736Y0168381D01*
X0385724Y0168250D01*
X0385708Y0168119D01*
X0385688Y0167989D01*
X0385664Y0167860D01*
X0385636Y0167732D01*
X0385605Y0167604D01*
X0385569Y0167477D01*
X0385530Y0167352D01*
X0385487Y0167228D01*
X0385440Y0167105D01*
X0385389Y0166984D01*
X0385335Y0166864D01*
X0385277Y0166746D01*
X0385216Y0166629D01*
X0385151Y0166515D01*
X0385083Y0166403D01*
X0385011Y0166293D01*
X0384936Y0166185D01*
X0384858Y0166079D01*
X0384777Y0165976D01*
X0384692Y0165875D01*
X0384605Y0165777D01*
X0384514Y0165682D01*
X0384421Y0165589D01*
X0384325Y0165499D01*
X0384226Y0165412D01*
X0384125Y0165329D01*
X0384021Y0165248D01*
X0383915Y0165171D01*
X0383806Y0165097D01*
X0383695Y0165026D01*
X0383583Y0164958D01*
X0383468Y0164894D01*
X0383351Y0164834D01*
X0383232Y0164777D01*
X0383112Y0164724D01*
X0382991Y0164674D01*
X0382867Y0164628D01*
X0382743Y0164586D01*
X0382617Y0164548D01*
X0382490Y0164513D01*
X0382362Y0164482D01*
X0382234Y0164456D01*
X0382104Y0164433D01*
X0381974Y0164414D01*
X0381844Y0164399D01*
X0381713Y0164388D01*
X0381581Y0164381D01*
X0381450Y0164378D01*
X0381318Y0164379D01*
X0381187Y0164384D01*
X0381056Y0164393D01*
X0380925Y0164406D01*
X0380795Y0164423D01*
X0380665Y0164444D01*
X0380536Y0164469D01*
X0380408Y0164497D01*
X0380280Y0164530D01*
X0380154Y0164566D01*
X0380029Y0164607D01*
X0379905Y0164651D01*
X0379782Y0164698D01*
X0379661Y0164750D01*
X0379542Y0164805D01*
X0379424Y0164864D01*
X0379309Y0164926D01*
X0379195Y0164992D01*
X0379083Y0165061D01*
X0378973Y0165133D01*
X0378866Y0165209D01*
X0378761Y0165288D01*
X0378658Y0165370D01*
X0378558Y0165455D01*
X0378461Y0165544D01*
X0378366Y0165635D01*
X0378274Y0165729D01*
X0378185Y0165826D01*
X0378099Y0165925D01*
X0378016Y0166027D01*
X0377936Y0166132D01*
X0377860Y0166238D01*
X0377787Y0166347D01*
X0377717Y0166459D01*
X0377650Y0166572D01*
X0377587Y0166687D01*
X0377527Y0166805D01*
X0377471Y0166923D01*
X0377419Y0167044D01*
X0377370Y0167166D01*
X0377325Y0167290D01*
X0377284Y0167414D01*
X0377247Y0167541D01*
X0377213Y0167668D01*
X0377183Y0167796D01*
X0377158Y0167925D01*
X0377136Y0168054D01*
X0377118Y0168184D01*
X0377104Y0168315D01*
X0377094Y0168446D01*
X0377088Y0168578D01*
X0377086Y0168709D01*
X0362165Y0164220D02*
X0362167Y0164317D01*
X0362173Y0164414D01*
X0362183Y0164510D01*
X0362197Y0164606D01*
X0362215Y0164702D01*
X0362236Y0164796D01*
X0362262Y0164890D01*
X0362291Y0164982D01*
X0362325Y0165073D01*
X0362361Y0165163D01*
X0362402Y0165251D01*
X0362446Y0165337D01*
X0362494Y0165422D01*
X0362545Y0165504D01*
X0362599Y0165585D01*
X0362657Y0165663D01*
X0362718Y0165738D01*
X0362781Y0165811D01*
X0362848Y0165882D01*
X0362918Y0165949D01*
X0362990Y0166014D01*
X0363065Y0166075D01*
X0363143Y0166134D01*
X0363222Y0166189D01*
X0363304Y0166241D01*
X0363388Y0166289D01*
X0363474Y0166334D01*
X0363562Y0166376D01*
X0363651Y0166414D01*
X0363742Y0166448D01*
X0363834Y0166478D01*
X0363927Y0166505D01*
X0364022Y0166527D01*
X0364117Y0166546D01*
X0364213Y0166561D01*
X0364309Y0166572D01*
X0364406Y0166579D01*
X0364503Y0166582D01*
X0364600Y0166581D01*
X0364697Y0166576D01*
X0364793Y0166567D01*
X0364889Y0166554D01*
X0364985Y0166537D01*
X0365080Y0166516D01*
X0365173Y0166492D01*
X0365266Y0166463D01*
X0365358Y0166431D01*
X0365448Y0166395D01*
X0365536Y0166356D01*
X0365623Y0166312D01*
X0365708Y0166266D01*
X0365791Y0166215D01*
X0365872Y0166162D01*
X0365950Y0166105D01*
X0366027Y0166045D01*
X0366100Y0165982D01*
X0366171Y0165916D01*
X0366239Y0165847D01*
X0366305Y0165775D01*
X0366367Y0165701D01*
X0366426Y0165624D01*
X0366482Y0165545D01*
X0366535Y0165463D01*
X0366585Y0165380D01*
X0366630Y0165294D01*
X0366673Y0165207D01*
X0366712Y0165118D01*
X0366747Y0165028D01*
X0366778Y0164936D01*
X0366805Y0164843D01*
X0366829Y0164749D01*
X0366849Y0164654D01*
X0366865Y0164558D01*
X0366877Y0164462D01*
X0366885Y0164365D01*
X0366889Y0164268D01*
X0366889Y0164172D01*
X0366885Y0164075D01*
X0366877Y0163978D01*
X0366865Y0163882D01*
X0366849Y0163786D01*
X0366829Y0163691D01*
X0366805Y0163597D01*
X0366778Y0163504D01*
X0366747Y0163412D01*
X0366712Y0163322D01*
X0366673Y0163233D01*
X0366630Y0163146D01*
X0366585Y0163060D01*
X0366535Y0162977D01*
X0366482Y0162895D01*
X0366426Y0162816D01*
X0366367Y0162739D01*
X0366305Y0162665D01*
X0366239Y0162593D01*
X0366171Y0162524D01*
X0366100Y0162458D01*
X0366027Y0162395D01*
X0365950Y0162335D01*
X0365872Y0162278D01*
X0365791Y0162225D01*
X0365708Y0162174D01*
X0365623Y0162128D01*
X0365536Y0162084D01*
X0365448Y0162045D01*
X0365358Y0162009D01*
X0365266Y0161977D01*
X0365173Y0161948D01*
X0365080Y0161924D01*
X0364985Y0161903D01*
X0364889Y0161886D01*
X0364793Y0161873D01*
X0364697Y0161864D01*
X0364600Y0161859D01*
X0364503Y0161858D01*
X0364406Y0161861D01*
X0364309Y0161868D01*
X0364213Y0161879D01*
X0364117Y0161894D01*
X0364022Y0161913D01*
X0363927Y0161935D01*
X0363834Y0161962D01*
X0363742Y0161992D01*
X0363651Y0162026D01*
X0363562Y0162064D01*
X0363474Y0162106D01*
X0363388Y0162151D01*
X0363304Y0162199D01*
X0363222Y0162251D01*
X0363143Y0162306D01*
X0363065Y0162365D01*
X0362990Y0162426D01*
X0362918Y0162491D01*
X0362848Y0162558D01*
X0362781Y0162629D01*
X0362718Y0162702D01*
X0362657Y0162777D01*
X0362599Y0162855D01*
X0362545Y0162936D01*
X0362494Y0163018D01*
X0362446Y0163103D01*
X0362402Y0163189D01*
X0362361Y0163277D01*
X0362325Y0163367D01*
X0362291Y0163458D01*
X0362262Y0163550D01*
X0362236Y0163644D01*
X0362215Y0163738D01*
X0362197Y0163834D01*
X0362183Y0163930D01*
X0362173Y0164026D01*
X0362167Y0164123D01*
X0362165Y0164220D01*
M02*
