G75*
%MOIN*%
%OFA0B0*%
%FSLAX25Y25*%
%IPPOS*%
%LPD*%
%AMOC8*
5,1,8,0,0,1.08239X$1,22.5*
%
%ADD10C,0.08200*%
%ADD11C,0.07800*%
%ADD12C,0.17005*%
%ADD13C,0.17398*%
%ADD14C,0.15824*%
%ADD15OC8,0.06000*%
%ADD16C,0.06737*%
%ADD17R,0.06737X0.06737*%
%ADD18C,0.07400*%
%ADD19C,0.09461*%
%ADD20C,0.05524*%
%ADD21C,0.04572*%
%ADD22C,0.06540*%
%ADD23C,0.10544*%
%ADD24C,0.03900*%
D10*
X0024685Y0025177D03*
X0034685Y0025177D03*
X0044685Y0025177D03*
X0054685Y0025177D03*
X0064685Y0025177D03*
X0064685Y0036177D03*
X0054685Y0036177D03*
X0044685Y0036177D03*
X0034685Y0036177D03*
X0024685Y0036177D03*
X0153161Y0030598D03*
X0163201Y0030953D03*
X0164201Y0040953D03*
X0154161Y0040598D03*
X0197874Y0036177D03*
X0207874Y0036177D03*
X0217874Y0036177D03*
X0227874Y0036177D03*
X0237874Y0036177D03*
X0237874Y0025177D03*
X0227874Y0025177D03*
X0217874Y0025177D03*
X0207874Y0025177D03*
X0197874Y0025177D03*
X0164201Y0020953D03*
X0154161Y0020598D03*
X0064685Y0084311D03*
X0054685Y0084311D03*
X0044685Y0084311D03*
X0034685Y0084311D03*
X0024685Y0084311D03*
X0024685Y0095311D03*
X0034685Y0095311D03*
X0044685Y0095311D03*
X0054685Y0095311D03*
X0064685Y0095311D03*
X0064634Y0143287D03*
X0054634Y0143287D03*
X0044634Y0143287D03*
X0034634Y0143287D03*
X0024634Y0143287D03*
X0024634Y0154287D03*
X0034634Y0154287D03*
X0044634Y0154287D03*
X0054634Y0154287D03*
X0064634Y0154287D03*
X0065984Y0183752D03*
X0075984Y0184752D03*
X0095236Y0184681D03*
X0105236Y0183681D03*
X0115236Y0184681D03*
X0125236Y0183681D03*
X0135236Y0184681D03*
X0055984Y0184752D03*
X0040787Y0184831D03*
X0030787Y0183831D03*
X0020787Y0184831D03*
X0406260Y0184760D03*
X0416260Y0183760D03*
X0426260Y0184760D03*
X0436260Y0183760D03*
X0446260Y0184760D03*
X0467795Y0184339D03*
X0477795Y0184102D03*
X0476795Y0174102D03*
X0466795Y0174339D03*
X0467795Y0164339D03*
X0477795Y0164102D03*
X0508937Y0166909D03*
X0518937Y0166909D03*
X0528937Y0166909D03*
X0538937Y0166909D03*
X0548937Y0166909D03*
X0548937Y0177909D03*
X0538937Y0177909D03*
X0528937Y0177909D03*
X0518937Y0177909D03*
X0508937Y0177909D03*
X0608976Y0141574D03*
X0608976Y0130174D03*
X0548622Y0112634D03*
X0538622Y0112634D03*
X0528622Y0112634D03*
X0518622Y0112634D03*
X0508622Y0112634D03*
X0508622Y0101634D03*
X0518622Y0101634D03*
X0528622Y0101634D03*
X0538622Y0101634D03*
X0548622Y0101634D03*
X0478150Y0099181D03*
X0468110Y0099535D03*
X0477150Y0109181D03*
X0467110Y0109535D03*
X0478150Y0119181D03*
X0468110Y0119535D03*
X0467823Y0037370D03*
X0477980Y0037252D03*
X0476980Y0027252D03*
X0466823Y0027370D03*
X0467823Y0017370D03*
X0477980Y0017252D03*
X0508898Y0021201D03*
X0518898Y0021201D03*
X0528898Y0021201D03*
X0538898Y0021201D03*
X0548898Y0021201D03*
X0548898Y0032201D03*
X0538898Y0032201D03*
X0528898Y0032201D03*
X0518898Y0032201D03*
X0508898Y0032201D03*
D11*
X0436626Y0064181D03*
X0426626Y0064181D03*
X0416626Y0064181D03*
X0416535Y0154772D03*
X0426535Y0154772D03*
X0436535Y0154772D03*
X0125551Y0154693D03*
X0115551Y0154693D03*
X0105551Y0154693D03*
X0105551Y0064181D03*
X0115551Y0064181D03*
X0125551Y0064181D03*
D12*
X0134449Y0034654D03*
X0096653Y0034654D03*
X0114764Y0014969D03*
X0114764Y0105480D03*
X0096653Y0125165D03*
X0134449Y0125165D03*
X0407638Y0125244D03*
X0445433Y0125244D03*
X0425748Y0105559D03*
X0407728Y0034654D03*
X0445523Y0034654D03*
X0425838Y0014969D03*
D13*
X0580315Y0034890D03*
X0580165Y0092819D03*
X0579409Y0176701D03*
D14*
X0604016Y0176701D03*
X0590630Y0157803D03*
X0604772Y0092819D03*
X0591386Y0073921D03*
X0604921Y0034890D03*
X0591535Y0015992D03*
D15*
X0275488Y0083744D03*
X0275488Y0093744D03*
D16*
X0295527Y0097567D03*
X0305527Y0097567D03*
X0315527Y0097567D03*
X0325527Y0097567D03*
X0325527Y0107567D03*
X0315527Y0107567D03*
X0305527Y0107567D03*
X0295527Y0107567D03*
X0335527Y0117567D03*
X0345527Y0117567D03*
X0355527Y0117567D03*
X0375527Y0117567D03*
X0375527Y0127567D03*
X0365527Y0127567D03*
X0355527Y0127567D03*
X0345527Y0127567D03*
X0335527Y0127567D03*
X0325527Y0127567D03*
X0315527Y0127567D03*
X0305527Y0127567D03*
X0295527Y0127567D03*
X0285527Y0127567D03*
X0275527Y0127567D03*
X0265527Y0127567D03*
X0255527Y0127567D03*
X0245527Y0127567D03*
X0235527Y0127567D03*
X0225527Y0127567D03*
X0215527Y0127567D03*
X0205527Y0127567D03*
X0195527Y0127567D03*
X0185527Y0127567D03*
X0175527Y0127567D03*
X0165527Y0127567D03*
X0155527Y0127567D03*
X0205527Y0117567D03*
X0205527Y0107567D03*
X0215527Y0107567D03*
X0225527Y0107567D03*
X0235527Y0107567D03*
X0235527Y0097567D03*
X0225527Y0097567D03*
X0215527Y0097567D03*
X0205527Y0097567D03*
X0195527Y0097567D03*
X0185527Y0097567D03*
X0175527Y0097567D03*
X0165527Y0097567D03*
X0155527Y0097567D03*
X0155527Y0107567D03*
X0165527Y0107567D03*
X0175527Y0107567D03*
X0185527Y0107567D03*
X0195527Y0107567D03*
X0205527Y0087567D03*
X0205527Y0077567D03*
X0205527Y0067567D03*
X0215527Y0067567D03*
X0225527Y0067567D03*
X0235527Y0067567D03*
X0245527Y0067567D03*
X0255527Y0067567D03*
X0265527Y0067567D03*
X0275527Y0067567D03*
X0285527Y0067567D03*
X0295527Y0067567D03*
X0305527Y0067567D03*
X0315527Y0067567D03*
X0325527Y0067567D03*
X0335527Y0067567D03*
X0345527Y0067567D03*
X0355527Y0067567D03*
X0365527Y0067567D03*
X0375527Y0067567D03*
X0195527Y0067567D03*
X0185527Y0067567D03*
X0175527Y0067567D03*
X0165527Y0067567D03*
X0155527Y0067567D03*
X0385527Y0127567D03*
D17*
X0385527Y0067567D03*
D18*
X0381457Y0158512D03*
X0371457Y0158512D03*
X0361457Y0158512D03*
X0346024Y0158512D03*
X0336024Y0158512D03*
X0326024Y0158512D03*
X0326024Y0178512D03*
X0336024Y0178512D03*
X0346024Y0178512D03*
X0361457Y0178512D03*
X0371457Y0178512D03*
X0381457Y0178512D03*
X0216102Y0178512D03*
X0206102Y0178512D03*
X0196102Y0178512D03*
X0180669Y0178512D03*
X0170669Y0178512D03*
X0160669Y0178512D03*
X0160669Y0158512D03*
X0170669Y0158512D03*
X0180669Y0158512D03*
X0196102Y0158512D03*
X0206102Y0158512D03*
X0216102Y0158512D03*
D19*
X0216063Y0168709D03*
X0180630Y0168709D03*
X0345984Y0168709D03*
X0381417Y0168709D03*
D20*
X0364527Y0172843D03*
X0364527Y0164220D03*
X0329094Y0164220D03*
X0329094Y0172843D03*
X0199173Y0172843D03*
X0199173Y0164220D03*
X0163740Y0164220D03*
X0163740Y0172843D03*
D21*
X0521968Y0132606D03*
X0531968Y0132606D03*
D22*
X0561968Y0132606D03*
X0591968Y0132606D03*
D23*
X0275472Y0052134D03*
X0275472Y0033630D03*
X0275472Y0015126D03*
D24*
X0023253Y0018782D03*
X0093253Y0018157D03*
X0125128Y0011907D03*
X0137003Y0006907D03*
X0162003Y0011907D03*
X0166378Y0012532D03*
X0112003Y0032532D03*
X0117003Y0046907D03*
X0101378Y0059407D03*
X0138878Y0067532D03*
X0146378Y0071282D03*
X0122003Y0073782D03*
X0114503Y0076907D03*
X0133878Y0084407D03*
X0129503Y0086282D03*
X0114503Y0092532D03*
X0121378Y0095657D03*
X0137003Y0097532D03*
X0138253Y0101907D03*
X0130753Y0109407D03*
X0147003Y0112532D03*
X0147003Y0116907D03*
X0162628Y0120657D03*
X0186378Y0116907D03*
X0182628Y0101907D03*
X0188878Y0091907D03*
X0157003Y0089407D03*
X0175128Y0073157D03*
X0153878Y0061282D03*
X0160128Y0058782D03*
X0164503Y0058157D03*
X0174503Y0050657D03*
X0204503Y0053157D03*
X0210753Y0055032D03*
X0221378Y0058157D03*
X0226378Y0044407D03*
X0234503Y0041282D03*
X0267628Y0024407D03*
X0292003Y0026907D03*
X0295128Y0022532D03*
X0310753Y0020032D03*
X0283878Y0015032D03*
X0308878Y0037532D03*
X0313878Y0037532D03*
X0295128Y0042532D03*
X0292003Y0038157D03*
X0344503Y0046282D03*
X0349503Y0046282D03*
X0334503Y0057532D03*
X0341378Y0060032D03*
X0318878Y0060032D03*
X0308253Y0056282D03*
X0289503Y0063782D03*
X0311378Y0078782D03*
X0295753Y0083782D03*
X0287003Y0083157D03*
X0283253Y0092532D03*
X0274503Y0101282D03*
X0245753Y0101907D03*
X0230128Y0094407D03*
X0243253Y0090657D03*
X0243253Y0086282D03*
X0220128Y0078782D03*
X0248878Y0111907D03*
X0250128Y0124407D03*
X0295753Y0137532D03*
X0282003Y0146282D03*
X0282003Y0150657D03*
X0276378Y0153157D03*
X0272003Y0152532D03*
X0299503Y0155657D03*
X0302628Y0158782D03*
X0302628Y0163782D03*
X0302628Y0168157D03*
X0317628Y0183157D03*
X0325128Y0186907D03*
X0320753Y0187532D03*
X0377003Y0190657D03*
X0417003Y0174407D03*
X0442003Y0174407D03*
X0448878Y0178157D03*
X0464503Y0190032D03*
X0435128Y0193782D03*
X0502003Y0181907D03*
X0495128Y0164407D03*
X0522003Y0158157D03*
X0523253Y0150657D03*
X0511378Y0147532D03*
X0487628Y0146907D03*
X0468253Y0141282D03*
X0458878Y0146907D03*
X0433878Y0149407D03*
X0403253Y0141282D03*
X0392628Y0137532D03*
X0396378Y0133782D03*
X0400753Y0133782D03*
X0385753Y0145032D03*
X0378253Y0151907D03*
X0371378Y0151907D03*
X0357628Y0148157D03*
X0352628Y0148157D03*
X0357628Y0137532D03*
X0319503Y0148782D03*
X0274503Y0140657D03*
X0268253Y0141282D03*
X0227628Y0140657D03*
X0223878Y0143782D03*
X0212628Y0143782D03*
X0199503Y0146907D03*
X0192003Y0150657D03*
X0211378Y0155032D03*
X0210753Y0161907D03*
X0175128Y0163157D03*
X0149503Y0165657D03*
X0145128Y0165032D03*
X0163878Y0148782D03*
X0153878Y0143782D03*
X0149503Y0133782D03*
X0122628Y0137532D03*
X0116378Y0145657D03*
X0125753Y0148157D03*
X0080753Y0152532D03*
X0074503Y0141282D03*
X0068253Y0133782D03*
X0052628Y0131282D03*
X0068253Y0101282D03*
X0061378Y0054407D03*
X0061378Y0044407D03*
X0348878Y0104407D03*
X0355128Y0108157D03*
X0382003Y0115032D03*
X0400128Y0111282D03*
X0411378Y0114407D03*
X0400753Y0115657D03*
X0389503Y0121907D03*
X0378878Y0122532D03*
X0433878Y0131907D03*
X0457003Y0121907D03*
X0484503Y0118782D03*
X0502003Y0125032D03*
X0487628Y0131907D03*
X0460128Y0107532D03*
X0433253Y0096907D03*
X0413253Y0097532D03*
X0403253Y0095032D03*
X0385753Y0096907D03*
X0368878Y0097532D03*
X0389503Y0104407D03*
X0365753Y0087532D03*
X0389503Y0083782D03*
X0385128Y0079407D03*
X0406378Y0075032D03*
X0392628Y0071282D03*
X0382628Y0061907D03*
X0373253Y0057532D03*
X0383253Y0053782D03*
X0396378Y0053782D03*
X0400753Y0050657D03*
X0396378Y0049407D03*
X0387003Y0046282D03*
X0399503Y0041282D03*
X0396378Y0033782D03*
X0437628Y0041907D03*
X0464503Y0050032D03*
X0468253Y0053782D03*
X0460753Y0057532D03*
X0482003Y0052532D03*
X0432003Y0068157D03*
X0423878Y0075032D03*
X0413253Y0085657D03*
X0437628Y0087532D03*
X0452003Y0085657D03*
X0467003Y0082532D03*
X0478253Y0080657D03*
X0497628Y0071282D03*
X0538878Y0066282D03*
X0502003Y0091282D03*
X0403253Y0058157D03*
X0493878Y0033157D03*
X0450753Y0025032D03*
X0440128Y0022532D03*
X0415128Y0011282D03*
X0475753Y0008782D03*
X0520128Y0015032D03*
X0393878Y0158157D03*
X0407628Y0165032D03*
X0233878Y0176282D03*
X0200753Y0181907D03*
X0221378Y0187532D03*
X0171378Y0184407D03*
X0153253Y0182532D03*
X0146378Y0190657D03*
X0139503Y0193782D03*
X0029503Y0172532D03*
M02*
