G75*
%MOIN*%
%OFA0B0*%
%FSLAX25Y25*%
%IPPOS*%
%LPD*%
%AMOC8*
5,1,8,0,0,1.08239X$1,22.5*
%
%ADD10C,0.00600*%
%ADD11C,0.00000*%
D10*
X0001727Y0013111D02*
X0001727Y0383190D01*
X0001730Y0383475D01*
X0001741Y0383761D01*
X0001758Y0384046D01*
X0001782Y0384330D01*
X0001813Y0384614D01*
X0001851Y0384897D01*
X0001896Y0385178D01*
X0001947Y0385459D01*
X0002005Y0385739D01*
X0002070Y0386017D01*
X0002142Y0386293D01*
X0002220Y0386567D01*
X0002305Y0386840D01*
X0002397Y0387110D01*
X0002495Y0387378D01*
X0002599Y0387644D01*
X0002710Y0387907D01*
X0002827Y0388167D01*
X0002950Y0388425D01*
X0003080Y0388679D01*
X0003216Y0388930D01*
X0003357Y0389178D01*
X0003505Y0389422D01*
X0003658Y0389663D01*
X0003818Y0389899D01*
X0003983Y0390132D01*
X0004153Y0390361D01*
X0004329Y0390586D01*
X0004511Y0390806D01*
X0004697Y0391022D01*
X0004889Y0391233D01*
X0005086Y0391440D01*
X0005288Y0391642D01*
X0005495Y0391839D01*
X0005706Y0392031D01*
X0005922Y0392217D01*
X0006142Y0392399D01*
X0006367Y0392575D01*
X0006596Y0392745D01*
X0006829Y0392910D01*
X0007065Y0393070D01*
X0007306Y0393223D01*
X0007550Y0393371D01*
X0007798Y0393512D01*
X0008049Y0393648D01*
X0008303Y0393778D01*
X0008561Y0393901D01*
X0008821Y0394018D01*
X0009084Y0394129D01*
X0009350Y0394233D01*
X0009618Y0394331D01*
X0009888Y0394423D01*
X0010161Y0394508D01*
X0010435Y0394586D01*
X0010711Y0394658D01*
X0010989Y0394723D01*
X0011269Y0394781D01*
X0011550Y0394832D01*
X0011831Y0394877D01*
X0012114Y0394915D01*
X0012398Y0394946D01*
X0012682Y0394970D01*
X0012967Y0394987D01*
X0013253Y0394998D01*
X0013538Y0395001D01*
X0383617Y0395001D01*
X0383616Y0395000D02*
X0383950Y0394948D01*
X0384283Y0394888D01*
X0384614Y0394820D01*
X0384943Y0394744D01*
X0385271Y0394660D01*
X0385596Y0394568D01*
X0385919Y0394469D01*
X0386239Y0394361D01*
X0386557Y0394246D01*
X0386872Y0394123D01*
X0387184Y0393992D01*
X0387492Y0393854D01*
X0387797Y0393708D01*
X0388098Y0393555D01*
X0388396Y0393395D01*
X0388690Y0393227D01*
X0388979Y0393053D01*
X0389264Y0392871D01*
X0389545Y0392683D01*
X0389821Y0392488D01*
X0390092Y0392286D01*
X0390358Y0392078D01*
X0390619Y0391863D01*
X0390875Y0391642D01*
X0391125Y0391415D01*
X0391370Y0391182D01*
X0391609Y0390943D01*
X0391842Y0390698D01*
X0392069Y0390448D01*
X0392290Y0390192D01*
X0392505Y0389931D01*
X0392713Y0389665D01*
X0392915Y0389394D01*
X0393110Y0389118D01*
X0393298Y0388837D01*
X0393480Y0388552D01*
X0393654Y0388263D01*
X0393822Y0387969D01*
X0393982Y0387671D01*
X0394135Y0387370D01*
X0394281Y0387065D01*
X0394419Y0386757D01*
X0394550Y0386445D01*
X0394673Y0386130D01*
X0394788Y0385812D01*
X0394896Y0385492D01*
X0394995Y0385169D01*
X0395087Y0384844D01*
X0395171Y0384516D01*
X0395247Y0384187D01*
X0395315Y0383856D01*
X0395375Y0383523D01*
X0395427Y0383189D01*
X0395428Y0383190D02*
X0395428Y0013111D01*
X0395425Y0012826D01*
X0395414Y0012540D01*
X0395397Y0012255D01*
X0395373Y0011971D01*
X0395342Y0011687D01*
X0395304Y0011404D01*
X0395259Y0011123D01*
X0395208Y0010842D01*
X0395150Y0010562D01*
X0395085Y0010284D01*
X0395013Y0010008D01*
X0394935Y0009734D01*
X0394850Y0009461D01*
X0394758Y0009191D01*
X0394660Y0008923D01*
X0394556Y0008657D01*
X0394445Y0008394D01*
X0394328Y0008134D01*
X0394205Y0007876D01*
X0394075Y0007622D01*
X0393939Y0007371D01*
X0393798Y0007123D01*
X0393650Y0006879D01*
X0393497Y0006638D01*
X0393337Y0006402D01*
X0393172Y0006169D01*
X0393002Y0005940D01*
X0392826Y0005715D01*
X0392644Y0005495D01*
X0392458Y0005279D01*
X0392266Y0005068D01*
X0392069Y0004861D01*
X0391867Y0004659D01*
X0391660Y0004462D01*
X0391449Y0004270D01*
X0391233Y0004084D01*
X0391013Y0003902D01*
X0390788Y0003726D01*
X0390559Y0003556D01*
X0390326Y0003391D01*
X0390090Y0003231D01*
X0389849Y0003078D01*
X0389605Y0002930D01*
X0389357Y0002789D01*
X0389106Y0002653D01*
X0388852Y0002523D01*
X0388594Y0002400D01*
X0388334Y0002283D01*
X0388071Y0002172D01*
X0387805Y0002068D01*
X0387537Y0001970D01*
X0387267Y0001878D01*
X0386994Y0001793D01*
X0386720Y0001715D01*
X0386444Y0001643D01*
X0386166Y0001578D01*
X0385886Y0001520D01*
X0385605Y0001469D01*
X0385324Y0001424D01*
X0385041Y0001386D01*
X0384757Y0001355D01*
X0384473Y0001331D01*
X0384188Y0001314D01*
X0383902Y0001303D01*
X0383617Y0001300D01*
X0013538Y0001300D01*
X0013253Y0001303D01*
X0012967Y0001314D01*
X0012682Y0001331D01*
X0012398Y0001355D01*
X0012114Y0001386D01*
X0011831Y0001424D01*
X0011550Y0001469D01*
X0011269Y0001520D01*
X0010989Y0001578D01*
X0010711Y0001643D01*
X0010435Y0001715D01*
X0010161Y0001793D01*
X0009888Y0001878D01*
X0009618Y0001970D01*
X0009350Y0002068D01*
X0009084Y0002172D01*
X0008821Y0002283D01*
X0008561Y0002400D01*
X0008303Y0002523D01*
X0008049Y0002653D01*
X0007798Y0002789D01*
X0007550Y0002930D01*
X0007306Y0003078D01*
X0007065Y0003231D01*
X0006829Y0003391D01*
X0006596Y0003556D01*
X0006367Y0003726D01*
X0006142Y0003902D01*
X0005922Y0004084D01*
X0005706Y0004270D01*
X0005495Y0004462D01*
X0005288Y0004659D01*
X0005086Y0004861D01*
X0004889Y0005068D01*
X0004697Y0005279D01*
X0004511Y0005495D01*
X0004329Y0005715D01*
X0004153Y0005940D01*
X0003983Y0006169D01*
X0003818Y0006402D01*
X0003658Y0006638D01*
X0003505Y0006879D01*
X0003357Y0007123D01*
X0003216Y0007371D01*
X0003080Y0007622D01*
X0002950Y0007876D01*
X0002827Y0008134D01*
X0002710Y0008394D01*
X0002599Y0008657D01*
X0002495Y0008923D01*
X0002397Y0009191D01*
X0002305Y0009461D01*
X0002220Y0009734D01*
X0002142Y0010008D01*
X0002070Y0010284D01*
X0002005Y0010562D01*
X0001947Y0010842D01*
X0001896Y0011123D01*
X0001851Y0011404D01*
X0001813Y0011687D01*
X0001782Y0011971D01*
X0001758Y0012255D01*
X0001741Y0012540D01*
X0001730Y0012826D01*
X0001727Y0013111D01*
D11*
X0013538Y0020985D02*
X0013540Y0021178D01*
X0013547Y0021371D01*
X0013559Y0021564D01*
X0013576Y0021757D01*
X0013597Y0021949D01*
X0013623Y0022140D01*
X0013654Y0022331D01*
X0013689Y0022521D01*
X0013729Y0022710D01*
X0013774Y0022898D01*
X0013823Y0023085D01*
X0013877Y0023271D01*
X0013935Y0023455D01*
X0013998Y0023638D01*
X0014066Y0023819D01*
X0014137Y0023998D01*
X0014214Y0024176D01*
X0014294Y0024352D01*
X0014379Y0024525D01*
X0014468Y0024697D01*
X0014561Y0024866D01*
X0014658Y0025033D01*
X0014760Y0025198D01*
X0014865Y0025360D01*
X0014974Y0025519D01*
X0015088Y0025676D01*
X0015205Y0025829D01*
X0015325Y0025980D01*
X0015450Y0026128D01*
X0015578Y0026273D01*
X0015709Y0026414D01*
X0015844Y0026553D01*
X0015983Y0026688D01*
X0016124Y0026819D01*
X0016269Y0026947D01*
X0016417Y0027072D01*
X0016568Y0027192D01*
X0016721Y0027309D01*
X0016878Y0027423D01*
X0017037Y0027532D01*
X0017199Y0027637D01*
X0017364Y0027739D01*
X0017531Y0027836D01*
X0017700Y0027929D01*
X0017872Y0028018D01*
X0018045Y0028103D01*
X0018221Y0028183D01*
X0018399Y0028260D01*
X0018578Y0028331D01*
X0018759Y0028399D01*
X0018942Y0028462D01*
X0019126Y0028520D01*
X0019312Y0028574D01*
X0019499Y0028623D01*
X0019687Y0028668D01*
X0019876Y0028708D01*
X0020066Y0028743D01*
X0020257Y0028774D01*
X0020448Y0028800D01*
X0020640Y0028821D01*
X0020833Y0028838D01*
X0021026Y0028850D01*
X0021219Y0028857D01*
X0021412Y0028859D01*
X0021605Y0028857D01*
X0021798Y0028850D01*
X0021991Y0028838D01*
X0022184Y0028821D01*
X0022376Y0028800D01*
X0022567Y0028774D01*
X0022758Y0028743D01*
X0022948Y0028708D01*
X0023137Y0028668D01*
X0023325Y0028623D01*
X0023512Y0028574D01*
X0023698Y0028520D01*
X0023882Y0028462D01*
X0024065Y0028399D01*
X0024246Y0028331D01*
X0024425Y0028260D01*
X0024603Y0028183D01*
X0024779Y0028103D01*
X0024952Y0028018D01*
X0025124Y0027929D01*
X0025293Y0027836D01*
X0025460Y0027739D01*
X0025625Y0027637D01*
X0025787Y0027532D01*
X0025946Y0027423D01*
X0026103Y0027309D01*
X0026256Y0027192D01*
X0026407Y0027072D01*
X0026555Y0026947D01*
X0026700Y0026819D01*
X0026841Y0026688D01*
X0026980Y0026553D01*
X0027115Y0026414D01*
X0027246Y0026273D01*
X0027374Y0026128D01*
X0027499Y0025980D01*
X0027619Y0025829D01*
X0027736Y0025676D01*
X0027850Y0025519D01*
X0027959Y0025360D01*
X0028064Y0025198D01*
X0028166Y0025033D01*
X0028263Y0024866D01*
X0028356Y0024697D01*
X0028445Y0024525D01*
X0028530Y0024352D01*
X0028610Y0024176D01*
X0028687Y0023998D01*
X0028758Y0023819D01*
X0028826Y0023638D01*
X0028889Y0023455D01*
X0028947Y0023271D01*
X0029001Y0023085D01*
X0029050Y0022898D01*
X0029095Y0022710D01*
X0029135Y0022521D01*
X0029170Y0022331D01*
X0029201Y0022140D01*
X0029227Y0021949D01*
X0029248Y0021757D01*
X0029265Y0021564D01*
X0029277Y0021371D01*
X0029284Y0021178D01*
X0029286Y0020985D01*
X0029284Y0020792D01*
X0029277Y0020599D01*
X0029265Y0020406D01*
X0029248Y0020213D01*
X0029227Y0020021D01*
X0029201Y0019830D01*
X0029170Y0019639D01*
X0029135Y0019449D01*
X0029095Y0019260D01*
X0029050Y0019072D01*
X0029001Y0018885D01*
X0028947Y0018699D01*
X0028889Y0018515D01*
X0028826Y0018332D01*
X0028758Y0018151D01*
X0028687Y0017972D01*
X0028610Y0017794D01*
X0028530Y0017618D01*
X0028445Y0017445D01*
X0028356Y0017273D01*
X0028263Y0017104D01*
X0028166Y0016937D01*
X0028064Y0016772D01*
X0027959Y0016610D01*
X0027850Y0016451D01*
X0027736Y0016294D01*
X0027619Y0016141D01*
X0027499Y0015990D01*
X0027374Y0015842D01*
X0027246Y0015697D01*
X0027115Y0015556D01*
X0026980Y0015417D01*
X0026841Y0015282D01*
X0026700Y0015151D01*
X0026555Y0015023D01*
X0026407Y0014898D01*
X0026256Y0014778D01*
X0026103Y0014661D01*
X0025946Y0014547D01*
X0025787Y0014438D01*
X0025625Y0014333D01*
X0025460Y0014231D01*
X0025293Y0014134D01*
X0025124Y0014041D01*
X0024952Y0013952D01*
X0024779Y0013867D01*
X0024603Y0013787D01*
X0024425Y0013710D01*
X0024246Y0013639D01*
X0024065Y0013571D01*
X0023882Y0013508D01*
X0023698Y0013450D01*
X0023512Y0013396D01*
X0023325Y0013347D01*
X0023137Y0013302D01*
X0022948Y0013262D01*
X0022758Y0013227D01*
X0022567Y0013196D01*
X0022376Y0013170D01*
X0022184Y0013149D01*
X0021991Y0013132D01*
X0021798Y0013120D01*
X0021605Y0013113D01*
X0021412Y0013111D01*
X0021219Y0013113D01*
X0021026Y0013120D01*
X0020833Y0013132D01*
X0020640Y0013149D01*
X0020448Y0013170D01*
X0020257Y0013196D01*
X0020066Y0013227D01*
X0019876Y0013262D01*
X0019687Y0013302D01*
X0019499Y0013347D01*
X0019312Y0013396D01*
X0019126Y0013450D01*
X0018942Y0013508D01*
X0018759Y0013571D01*
X0018578Y0013639D01*
X0018399Y0013710D01*
X0018221Y0013787D01*
X0018045Y0013867D01*
X0017872Y0013952D01*
X0017700Y0014041D01*
X0017531Y0014134D01*
X0017364Y0014231D01*
X0017199Y0014333D01*
X0017037Y0014438D01*
X0016878Y0014547D01*
X0016721Y0014661D01*
X0016568Y0014778D01*
X0016417Y0014898D01*
X0016269Y0015023D01*
X0016124Y0015151D01*
X0015983Y0015282D01*
X0015844Y0015417D01*
X0015709Y0015556D01*
X0015578Y0015697D01*
X0015450Y0015842D01*
X0015325Y0015990D01*
X0015205Y0016141D01*
X0015088Y0016294D01*
X0014974Y0016451D01*
X0014865Y0016610D01*
X0014760Y0016772D01*
X0014658Y0016937D01*
X0014561Y0017104D01*
X0014468Y0017273D01*
X0014379Y0017445D01*
X0014294Y0017618D01*
X0014214Y0017794D01*
X0014137Y0017972D01*
X0014066Y0018151D01*
X0013998Y0018332D01*
X0013935Y0018515D01*
X0013877Y0018699D01*
X0013823Y0018885D01*
X0013774Y0019072D01*
X0013729Y0019260D01*
X0013689Y0019449D01*
X0013654Y0019639D01*
X0013623Y0019830D01*
X0013597Y0020021D01*
X0013576Y0020213D01*
X0013559Y0020406D01*
X0013547Y0020599D01*
X0013540Y0020792D01*
X0013538Y0020985D01*
X0106904Y0083623D02*
X0106906Y0083714D01*
X0106912Y0083804D01*
X0106922Y0083895D01*
X0106936Y0083984D01*
X0106954Y0084073D01*
X0106975Y0084162D01*
X0107001Y0084249D01*
X0107030Y0084335D01*
X0107064Y0084419D01*
X0107100Y0084502D01*
X0107141Y0084584D01*
X0107185Y0084663D01*
X0107232Y0084741D01*
X0107283Y0084816D01*
X0107337Y0084889D01*
X0107394Y0084959D01*
X0107454Y0085027D01*
X0107517Y0085093D01*
X0107583Y0085155D01*
X0107652Y0085214D01*
X0107723Y0085271D01*
X0107797Y0085324D01*
X0107873Y0085374D01*
X0107951Y0085421D01*
X0108031Y0085464D01*
X0108112Y0085503D01*
X0108196Y0085539D01*
X0108281Y0085571D01*
X0108367Y0085600D01*
X0108454Y0085624D01*
X0108543Y0085645D01*
X0108632Y0085662D01*
X0108722Y0085675D01*
X0108812Y0085684D01*
X0108903Y0085689D01*
X0108994Y0085690D01*
X0109084Y0085687D01*
X0109175Y0085680D01*
X0109265Y0085669D01*
X0109355Y0085654D01*
X0109444Y0085635D01*
X0109532Y0085613D01*
X0109618Y0085586D01*
X0109704Y0085556D01*
X0109788Y0085522D01*
X0109871Y0085484D01*
X0109952Y0085443D01*
X0110031Y0085398D01*
X0110108Y0085349D01*
X0110182Y0085298D01*
X0110255Y0085243D01*
X0110325Y0085185D01*
X0110392Y0085124D01*
X0110456Y0085060D01*
X0110518Y0084994D01*
X0110577Y0084924D01*
X0110632Y0084853D01*
X0110685Y0084778D01*
X0110734Y0084702D01*
X0110780Y0084624D01*
X0110822Y0084543D01*
X0110861Y0084461D01*
X0110896Y0084377D01*
X0110927Y0084292D01*
X0110954Y0084205D01*
X0110978Y0084118D01*
X0110998Y0084029D01*
X0111014Y0083940D01*
X0111026Y0083850D01*
X0111034Y0083759D01*
X0111038Y0083668D01*
X0111038Y0083578D01*
X0111034Y0083487D01*
X0111026Y0083396D01*
X0111014Y0083306D01*
X0110998Y0083217D01*
X0110978Y0083128D01*
X0110954Y0083041D01*
X0110927Y0082954D01*
X0110896Y0082869D01*
X0110861Y0082785D01*
X0110822Y0082703D01*
X0110780Y0082622D01*
X0110734Y0082544D01*
X0110685Y0082468D01*
X0110632Y0082393D01*
X0110577Y0082322D01*
X0110518Y0082252D01*
X0110456Y0082186D01*
X0110392Y0082122D01*
X0110325Y0082061D01*
X0110255Y0082003D01*
X0110182Y0081948D01*
X0110108Y0081897D01*
X0110031Y0081848D01*
X0109952Y0081803D01*
X0109871Y0081762D01*
X0109788Y0081724D01*
X0109704Y0081690D01*
X0109618Y0081660D01*
X0109532Y0081633D01*
X0109444Y0081611D01*
X0109355Y0081592D01*
X0109265Y0081577D01*
X0109175Y0081566D01*
X0109084Y0081559D01*
X0108994Y0081556D01*
X0108903Y0081557D01*
X0108812Y0081562D01*
X0108722Y0081571D01*
X0108632Y0081584D01*
X0108543Y0081601D01*
X0108454Y0081622D01*
X0108367Y0081646D01*
X0108281Y0081675D01*
X0108196Y0081707D01*
X0108112Y0081743D01*
X0108031Y0081782D01*
X0107951Y0081825D01*
X0107873Y0081872D01*
X0107797Y0081922D01*
X0107723Y0081975D01*
X0107652Y0082032D01*
X0107583Y0082091D01*
X0107517Y0082153D01*
X0107454Y0082219D01*
X0107394Y0082287D01*
X0107337Y0082357D01*
X0107283Y0082430D01*
X0107232Y0082505D01*
X0107185Y0082583D01*
X0107141Y0082662D01*
X0107100Y0082744D01*
X0107064Y0082827D01*
X0107030Y0082911D01*
X0107001Y0082997D01*
X0106975Y0083084D01*
X0106954Y0083173D01*
X0106936Y0083262D01*
X0106922Y0083351D01*
X0106912Y0083442D01*
X0106906Y0083532D01*
X0106904Y0083623D01*
X0106904Y0092245D02*
X0106906Y0092336D01*
X0106912Y0092426D01*
X0106922Y0092517D01*
X0106936Y0092606D01*
X0106954Y0092695D01*
X0106975Y0092784D01*
X0107001Y0092871D01*
X0107030Y0092957D01*
X0107064Y0093041D01*
X0107100Y0093124D01*
X0107141Y0093206D01*
X0107185Y0093285D01*
X0107232Y0093363D01*
X0107283Y0093438D01*
X0107337Y0093511D01*
X0107394Y0093581D01*
X0107454Y0093649D01*
X0107517Y0093715D01*
X0107583Y0093777D01*
X0107652Y0093836D01*
X0107723Y0093893D01*
X0107797Y0093946D01*
X0107873Y0093996D01*
X0107951Y0094043D01*
X0108031Y0094086D01*
X0108112Y0094125D01*
X0108196Y0094161D01*
X0108281Y0094193D01*
X0108367Y0094222D01*
X0108454Y0094246D01*
X0108543Y0094267D01*
X0108632Y0094284D01*
X0108722Y0094297D01*
X0108812Y0094306D01*
X0108903Y0094311D01*
X0108994Y0094312D01*
X0109084Y0094309D01*
X0109175Y0094302D01*
X0109265Y0094291D01*
X0109355Y0094276D01*
X0109444Y0094257D01*
X0109532Y0094235D01*
X0109618Y0094208D01*
X0109704Y0094178D01*
X0109788Y0094144D01*
X0109871Y0094106D01*
X0109952Y0094065D01*
X0110031Y0094020D01*
X0110108Y0093971D01*
X0110182Y0093920D01*
X0110255Y0093865D01*
X0110325Y0093807D01*
X0110392Y0093746D01*
X0110456Y0093682D01*
X0110518Y0093616D01*
X0110577Y0093546D01*
X0110632Y0093475D01*
X0110685Y0093400D01*
X0110734Y0093324D01*
X0110780Y0093246D01*
X0110822Y0093165D01*
X0110861Y0093083D01*
X0110896Y0092999D01*
X0110927Y0092914D01*
X0110954Y0092827D01*
X0110978Y0092740D01*
X0110998Y0092651D01*
X0111014Y0092562D01*
X0111026Y0092472D01*
X0111034Y0092381D01*
X0111038Y0092290D01*
X0111038Y0092200D01*
X0111034Y0092109D01*
X0111026Y0092018D01*
X0111014Y0091928D01*
X0110998Y0091839D01*
X0110978Y0091750D01*
X0110954Y0091663D01*
X0110927Y0091576D01*
X0110896Y0091491D01*
X0110861Y0091407D01*
X0110822Y0091325D01*
X0110780Y0091244D01*
X0110734Y0091166D01*
X0110685Y0091090D01*
X0110632Y0091015D01*
X0110577Y0090944D01*
X0110518Y0090874D01*
X0110456Y0090808D01*
X0110392Y0090744D01*
X0110325Y0090683D01*
X0110255Y0090625D01*
X0110182Y0090570D01*
X0110108Y0090519D01*
X0110031Y0090470D01*
X0109952Y0090425D01*
X0109871Y0090384D01*
X0109788Y0090346D01*
X0109704Y0090312D01*
X0109618Y0090282D01*
X0109532Y0090255D01*
X0109444Y0090233D01*
X0109355Y0090214D01*
X0109265Y0090199D01*
X0109175Y0090188D01*
X0109084Y0090181D01*
X0108994Y0090178D01*
X0108903Y0090179D01*
X0108812Y0090184D01*
X0108722Y0090193D01*
X0108632Y0090206D01*
X0108543Y0090223D01*
X0108454Y0090244D01*
X0108367Y0090268D01*
X0108281Y0090297D01*
X0108196Y0090329D01*
X0108112Y0090365D01*
X0108031Y0090404D01*
X0107951Y0090447D01*
X0107873Y0090494D01*
X0107797Y0090544D01*
X0107723Y0090597D01*
X0107652Y0090654D01*
X0107583Y0090713D01*
X0107517Y0090775D01*
X0107454Y0090841D01*
X0107394Y0090909D01*
X0107337Y0090979D01*
X0107283Y0091052D01*
X0107232Y0091127D01*
X0107185Y0091205D01*
X0107141Y0091284D01*
X0107100Y0091366D01*
X0107064Y0091449D01*
X0107030Y0091533D01*
X0107001Y0091619D01*
X0106975Y0091706D01*
X0106954Y0091795D01*
X0106936Y0091884D01*
X0106922Y0091973D01*
X0106912Y0092064D01*
X0106906Y0092154D01*
X0106904Y0092245D01*
X0121530Y0088111D02*
X0121532Y0088242D01*
X0121538Y0088374D01*
X0121548Y0088505D01*
X0121562Y0088636D01*
X0121580Y0088766D01*
X0121602Y0088895D01*
X0121627Y0089024D01*
X0121657Y0089152D01*
X0121691Y0089279D01*
X0121728Y0089406D01*
X0121769Y0089530D01*
X0121814Y0089654D01*
X0121863Y0089776D01*
X0121915Y0089897D01*
X0121971Y0090015D01*
X0122031Y0090133D01*
X0122094Y0090248D01*
X0122161Y0090361D01*
X0122231Y0090473D01*
X0122304Y0090582D01*
X0122380Y0090688D01*
X0122460Y0090793D01*
X0122543Y0090895D01*
X0122629Y0090994D01*
X0122718Y0091091D01*
X0122810Y0091185D01*
X0122905Y0091276D01*
X0123002Y0091365D01*
X0123102Y0091450D01*
X0123205Y0091532D01*
X0123310Y0091611D01*
X0123417Y0091687D01*
X0123527Y0091759D01*
X0123639Y0091828D01*
X0123753Y0091894D01*
X0123868Y0091956D01*
X0123986Y0092015D01*
X0124105Y0092070D01*
X0124226Y0092122D01*
X0124349Y0092169D01*
X0124473Y0092213D01*
X0124598Y0092254D01*
X0124724Y0092290D01*
X0124852Y0092323D01*
X0124980Y0092351D01*
X0125109Y0092376D01*
X0125239Y0092397D01*
X0125369Y0092414D01*
X0125500Y0092427D01*
X0125631Y0092436D01*
X0125762Y0092441D01*
X0125894Y0092442D01*
X0126025Y0092439D01*
X0126157Y0092432D01*
X0126288Y0092421D01*
X0126418Y0092406D01*
X0126548Y0092387D01*
X0126678Y0092364D01*
X0126806Y0092338D01*
X0126934Y0092307D01*
X0127061Y0092272D01*
X0127187Y0092234D01*
X0127311Y0092192D01*
X0127435Y0092146D01*
X0127556Y0092096D01*
X0127676Y0092043D01*
X0127795Y0091986D01*
X0127912Y0091926D01*
X0128026Y0091862D01*
X0128139Y0091794D01*
X0128250Y0091723D01*
X0128359Y0091649D01*
X0128465Y0091572D01*
X0128569Y0091491D01*
X0128670Y0091408D01*
X0128769Y0091321D01*
X0128865Y0091231D01*
X0128958Y0091138D01*
X0129049Y0091043D01*
X0129136Y0090945D01*
X0129221Y0090844D01*
X0129302Y0090741D01*
X0129380Y0090635D01*
X0129455Y0090527D01*
X0129527Y0090417D01*
X0129595Y0090305D01*
X0129660Y0090191D01*
X0129721Y0090074D01*
X0129779Y0089956D01*
X0129833Y0089836D01*
X0129884Y0089715D01*
X0129931Y0089592D01*
X0129974Y0089468D01*
X0130013Y0089343D01*
X0130049Y0089216D01*
X0130080Y0089088D01*
X0130108Y0088960D01*
X0130132Y0088831D01*
X0130152Y0088701D01*
X0130168Y0088570D01*
X0130180Y0088439D01*
X0130188Y0088308D01*
X0130192Y0088177D01*
X0130192Y0088045D01*
X0130188Y0087914D01*
X0130180Y0087783D01*
X0130168Y0087652D01*
X0130152Y0087521D01*
X0130132Y0087391D01*
X0130108Y0087262D01*
X0130080Y0087134D01*
X0130049Y0087006D01*
X0130013Y0086879D01*
X0129974Y0086754D01*
X0129931Y0086630D01*
X0129884Y0086507D01*
X0129833Y0086386D01*
X0129779Y0086266D01*
X0129721Y0086148D01*
X0129660Y0086031D01*
X0129595Y0085917D01*
X0129527Y0085805D01*
X0129455Y0085695D01*
X0129380Y0085587D01*
X0129302Y0085481D01*
X0129221Y0085378D01*
X0129136Y0085277D01*
X0129049Y0085179D01*
X0128958Y0085084D01*
X0128865Y0084991D01*
X0128769Y0084901D01*
X0128670Y0084814D01*
X0128569Y0084731D01*
X0128465Y0084650D01*
X0128359Y0084573D01*
X0128250Y0084499D01*
X0128139Y0084428D01*
X0128027Y0084360D01*
X0127912Y0084296D01*
X0127795Y0084236D01*
X0127676Y0084179D01*
X0127556Y0084126D01*
X0127435Y0084076D01*
X0127311Y0084030D01*
X0127187Y0083988D01*
X0127061Y0083950D01*
X0126934Y0083915D01*
X0126806Y0083884D01*
X0126678Y0083858D01*
X0126548Y0083835D01*
X0126418Y0083816D01*
X0126288Y0083801D01*
X0126157Y0083790D01*
X0126025Y0083783D01*
X0125894Y0083780D01*
X0125762Y0083781D01*
X0125631Y0083786D01*
X0125500Y0083795D01*
X0125369Y0083808D01*
X0125239Y0083825D01*
X0125109Y0083846D01*
X0124980Y0083871D01*
X0124852Y0083899D01*
X0124724Y0083932D01*
X0124598Y0083968D01*
X0124473Y0084009D01*
X0124349Y0084053D01*
X0124226Y0084100D01*
X0124105Y0084152D01*
X0123986Y0084207D01*
X0123868Y0084266D01*
X0123753Y0084328D01*
X0123639Y0084394D01*
X0123527Y0084463D01*
X0123417Y0084535D01*
X0123310Y0084611D01*
X0123205Y0084690D01*
X0123102Y0084772D01*
X0123002Y0084857D01*
X0122905Y0084946D01*
X0122810Y0085037D01*
X0122718Y0085131D01*
X0122629Y0085228D01*
X0122543Y0085327D01*
X0122460Y0085429D01*
X0122380Y0085534D01*
X0122304Y0085640D01*
X0122231Y0085749D01*
X0122161Y0085861D01*
X0122094Y0085974D01*
X0122031Y0086089D01*
X0121971Y0086207D01*
X0121915Y0086325D01*
X0121863Y0086446D01*
X0121814Y0086568D01*
X0121769Y0086692D01*
X0121728Y0086816D01*
X0121691Y0086943D01*
X0121657Y0087070D01*
X0121627Y0087198D01*
X0121602Y0087327D01*
X0121580Y0087456D01*
X0121562Y0087586D01*
X0121548Y0087717D01*
X0121538Y0087848D01*
X0121532Y0087980D01*
X0121530Y0088111D01*
X0225014Y0092245D02*
X0225016Y0092336D01*
X0225022Y0092426D01*
X0225032Y0092517D01*
X0225046Y0092606D01*
X0225064Y0092695D01*
X0225085Y0092784D01*
X0225111Y0092871D01*
X0225140Y0092957D01*
X0225174Y0093041D01*
X0225210Y0093124D01*
X0225251Y0093206D01*
X0225295Y0093285D01*
X0225342Y0093363D01*
X0225393Y0093438D01*
X0225447Y0093511D01*
X0225504Y0093581D01*
X0225564Y0093649D01*
X0225627Y0093715D01*
X0225693Y0093777D01*
X0225762Y0093836D01*
X0225833Y0093893D01*
X0225907Y0093946D01*
X0225983Y0093996D01*
X0226061Y0094043D01*
X0226141Y0094086D01*
X0226222Y0094125D01*
X0226306Y0094161D01*
X0226391Y0094193D01*
X0226477Y0094222D01*
X0226564Y0094246D01*
X0226653Y0094267D01*
X0226742Y0094284D01*
X0226832Y0094297D01*
X0226922Y0094306D01*
X0227013Y0094311D01*
X0227104Y0094312D01*
X0227194Y0094309D01*
X0227285Y0094302D01*
X0227375Y0094291D01*
X0227465Y0094276D01*
X0227554Y0094257D01*
X0227642Y0094235D01*
X0227728Y0094208D01*
X0227814Y0094178D01*
X0227898Y0094144D01*
X0227981Y0094106D01*
X0228062Y0094065D01*
X0228141Y0094020D01*
X0228218Y0093971D01*
X0228292Y0093920D01*
X0228365Y0093865D01*
X0228435Y0093807D01*
X0228502Y0093746D01*
X0228566Y0093682D01*
X0228628Y0093616D01*
X0228687Y0093546D01*
X0228742Y0093475D01*
X0228795Y0093400D01*
X0228844Y0093324D01*
X0228890Y0093246D01*
X0228932Y0093165D01*
X0228971Y0093083D01*
X0229006Y0092999D01*
X0229037Y0092914D01*
X0229064Y0092827D01*
X0229088Y0092740D01*
X0229108Y0092651D01*
X0229124Y0092562D01*
X0229136Y0092472D01*
X0229144Y0092381D01*
X0229148Y0092290D01*
X0229148Y0092200D01*
X0229144Y0092109D01*
X0229136Y0092018D01*
X0229124Y0091928D01*
X0229108Y0091839D01*
X0229088Y0091750D01*
X0229064Y0091663D01*
X0229037Y0091576D01*
X0229006Y0091491D01*
X0228971Y0091407D01*
X0228932Y0091325D01*
X0228890Y0091244D01*
X0228844Y0091166D01*
X0228795Y0091090D01*
X0228742Y0091015D01*
X0228687Y0090944D01*
X0228628Y0090874D01*
X0228566Y0090808D01*
X0228502Y0090744D01*
X0228435Y0090683D01*
X0228365Y0090625D01*
X0228292Y0090570D01*
X0228218Y0090519D01*
X0228141Y0090470D01*
X0228062Y0090425D01*
X0227981Y0090384D01*
X0227898Y0090346D01*
X0227814Y0090312D01*
X0227728Y0090282D01*
X0227642Y0090255D01*
X0227554Y0090233D01*
X0227465Y0090214D01*
X0227375Y0090199D01*
X0227285Y0090188D01*
X0227194Y0090181D01*
X0227104Y0090178D01*
X0227013Y0090179D01*
X0226922Y0090184D01*
X0226832Y0090193D01*
X0226742Y0090206D01*
X0226653Y0090223D01*
X0226564Y0090244D01*
X0226477Y0090268D01*
X0226391Y0090297D01*
X0226306Y0090329D01*
X0226222Y0090365D01*
X0226141Y0090404D01*
X0226061Y0090447D01*
X0225983Y0090494D01*
X0225907Y0090544D01*
X0225833Y0090597D01*
X0225762Y0090654D01*
X0225693Y0090713D01*
X0225627Y0090775D01*
X0225564Y0090841D01*
X0225504Y0090909D01*
X0225447Y0090979D01*
X0225393Y0091052D01*
X0225342Y0091127D01*
X0225295Y0091205D01*
X0225251Y0091284D01*
X0225210Y0091366D01*
X0225174Y0091449D01*
X0225140Y0091533D01*
X0225111Y0091619D01*
X0225085Y0091706D01*
X0225064Y0091795D01*
X0225046Y0091884D01*
X0225032Y0091973D01*
X0225022Y0092064D01*
X0225016Y0092154D01*
X0225014Y0092245D01*
X0225014Y0083623D02*
X0225016Y0083714D01*
X0225022Y0083804D01*
X0225032Y0083895D01*
X0225046Y0083984D01*
X0225064Y0084073D01*
X0225085Y0084162D01*
X0225111Y0084249D01*
X0225140Y0084335D01*
X0225174Y0084419D01*
X0225210Y0084502D01*
X0225251Y0084584D01*
X0225295Y0084663D01*
X0225342Y0084741D01*
X0225393Y0084816D01*
X0225447Y0084889D01*
X0225504Y0084959D01*
X0225564Y0085027D01*
X0225627Y0085093D01*
X0225693Y0085155D01*
X0225762Y0085214D01*
X0225833Y0085271D01*
X0225907Y0085324D01*
X0225983Y0085374D01*
X0226061Y0085421D01*
X0226141Y0085464D01*
X0226222Y0085503D01*
X0226306Y0085539D01*
X0226391Y0085571D01*
X0226477Y0085600D01*
X0226564Y0085624D01*
X0226653Y0085645D01*
X0226742Y0085662D01*
X0226832Y0085675D01*
X0226922Y0085684D01*
X0227013Y0085689D01*
X0227104Y0085690D01*
X0227194Y0085687D01*
X0227285Y0085680D01*
X0227375Y0085669D01*
X0227465Y0085654D01*
X0227554Y0085635D01*
X0227642Y0085613D01*
X0227728Y0085586D01*
X0227814Y0085556D01*
X0227898Y0085522D01*
X0227981Y0085484D01*
X0228062Y0085443D01*
X0228141Y0085398D01*
X0228218Y0085349D01*
X0228292Y0085298D01*
X0228365Y0085243D01*
X0228435Y0085185D01*
X0228502Y0085124D01*
X0228566Y0085060D01*
X0228628Y0084994D01*
X0228687Y0084924D01*
X0228742Y0084853D01*
X0228795Y0084778D01*
X0228844Y0084702D01*
X0228890Y0084624D01*
X0228932Y0084543D01*
X0228971Y0084461D01*
X0229006Y0084377D01*
X0229037Y0084292D01*
X0229064Y0084205D01*
X0229088Y0084118D01*
X0229108Y0084029D01*
X0229124Y0083940D01*
X0229136Y0083850D01*
X0229144Y0083759D01*
X0229148Y0083668D01*
X0229148Y0083578D01*
X0229144Y0083487D01*
X0229136Y0083396D01*
X0229124Y0083306D01*
X0229108Y0083217D01*
X0229088Y0083128D01*
X0229064Y0083041D01*
X0229037Y0082954D01*
X0229006Y0082869D01*
X0228971Y0082785D01*
X0228932Y0082703D01*
X0228890Y0082622D01*
X0228844Y0082544D01*
X0228795Y0082468D01*
X0228742Y0082393D01*
X0228687Y0082322D01*
X0228628Y0082252D01*
X0228566Y0082186D01*
X0228502Y0082122D01*
X0228435Y0082061D01*
X0228365Y0082003D01*
X0228292Y0081948D01*
X0228218Y0081897D01*
X0228141Y0081848D01*
X0228062Y0081803D01*
X0227981Y0081762D01*
X0227898Y0081724D01*
X0227814Y0081690D01*
X0227728Y0081660D01*
X0227642Y0081633D01*
X0227554Y0081611D01*
X0227465Y0081592D01*
X0227375Y0081577D01*
X0227285Y0081566D01*
X0227194Y0081559D01*
X0227104Y0081556D01*
X0227013Y0081557D01*
X0226922Y0081562D01*
X0226832Y0081571D01*
X0226742Y0081584D01*
X0226653Y0081601D01*
X0226564Y0081622D01*
X0226477Y0081646D01*
X0226391Y0081675D01*
X0226306Y0081707D01*
X0226222Y0081743D01*
X0226141Y0081782D01*
X0226061Y0081825D01*
X0225983Y0081872D01*
X0225907Y0081922D01*
X0225833Y0081975D01*
X0225762Y0082032D01*
X0225693Y0082091D01*
X0225627Y0082153D01*
X0225564Y0082219D01*
X0225504Y0082287D01*
X0225447Y0082357D01*
X0225393Y0082430D01*
X0225342Y0082505D01*
X0225295Y0082583D01*
X0225251Y0082662D01*
X0225210Y0082744D01*
X0225174Y0082827D01*
X0225140Y0082911D01*
X0225111Y0082997D01*
X0225085Y0083084D01*
X0225064Y0083173D01*
X0225046Y0083262D01*
X0225032Y0083351D01*
X0225022Y0083442D01*
X0225016Y0083532D01*
X0225014Y0083623D01*
X0239640Y0088111D02*
X0239642Y0088242D01*
X0239648Y0088374D01*
X0239658Y0088505D01*
X0239672Y0088636D01*
X0239690Y0088766D01*
X0239712Y0088895D01*
X0239737Y0089024D01*
X0239767Y0089152D01*
X0239801Y0089279D01*
X0239838Y0089406D01*
X0239879Y0089530D01*
X0239924Y0089654D01*
X0239973Y0089776D01*
X0240025Y0089897D01*
X0240081Y0090015D01*
X0240141Y0090133D01*
X0240204Y0090248D01*
X0240271Y0090361D01*
X0240341Y0090473D01*
X0240414Y0090582D01*
X0240490Y0090688D01*
X0240570Y0090793D01*
X0240653Y0090895D01*
X0240739Y0090994D01*
X0240828Y0091091D01*
X0240920Y0091185D01*
X0241015Y0091276D01*
X0241112Y0091365D01*
X0241212Y0091450D01*
X0241315Y0091532D01*
X0241420Y0091611D01*
X0241527Y0091687D01*
X0241637Y0091759D01*
X0241749Y0091828D01*
X0241863Y0091894D01*
X0241978Y0091956D01*
X0242096Y0092015D01*
X0242215Y0092070D01*
X0242336Y0092122D01*
X0242459Y0092169D01*
X0242583Y0092213D01*
X0242708Y0092254D01*
X0242834Y0092290D01*
X0242962Y0092323D01*
X0243090Y0092351D01*
X0243219Y0092376D01*
X0243349Y0092397D01*
X0243479Y0092414D01*
X0243610Y0092427D01*
X0243741Y0092436D01*
X0243872Y0092441D01*
X0244004Y0092442D01*
X0244135Y0092439D01*
X0244267Y0092432D01*
X0244398Y0092421D01*
X0244528Y0092406D01*
X0244658Y0092387D01*
X0244788Y0092364D01*
X0244916Y0092338D01*
X0245044Y0092307D01*
X0245171Y0092272D01*
X0245297Y0092234D01*
X0245421Y0092192D01*
X0245545Y0092146D01*
X0245666Y0092096D01*
X0245786Y0092043D01*
X0245905Y0091986D01*
X0246022Y0091926D01*
X0246136Y0091862D01*
X0246249Y0091794D01*
X0246360Y0091723D01*
X0246469Y0091649D01*
X0246575Y0091572D01*
X0246679Y0091491D01*
X0246780Y0091408D01*
X0246879Y0091321D01*
X0246975Y0091231D01*
X0247068Y0091138D01*
X0247159Y0091043D01*
X0247246Y0090945D01*
X0247331Y0090844D01*
X0247412Y0090741D01*
X0247490Y0090635D01*
X0247565Y0090527D01*
X0247637Y0090417D01*
X0247705Y0090305D01*
X0247770Y0090191D01*
X0247831Y0090074D01*
X0247889Y0089956D01*
X0247943Y0089836D01*
X0247994Y0089715D01*
X0248041Y0089592D01*
X0248084Y0089468D01*
X0248123Y0089343D01*
X0248159Y0089216D01*
X0248190Y0089088D01*
X0248218Y0088960D01*
X0248242Y0088831D01*
X0248262Y0088701D01*
X0248278Y0088570D01*
X0248290Y0088439D01*
X0248298Y0088308D01*
X0248302Y0088177D01*
X0248302Y0088045D01*
X0248298Y0087914D01*
X0248290Y0087783D01*
X0248278Y0087652D01*
X0248262Y0087521D01*
X0248242Y0087391D01*
X0248218Y0087262D01*
X0248190Y0087134D01*
X0248159Y0087006D01*
X0248123Y0086879D01*
X0248084Y0086754D01*
X0248041Y0086630D01*
X0247994Y0086507D01*
X0247943Y0086386D01*
X0247889Y0086266D01*
X0247831Y0086148D01*
X0247770Y0086031D01*
X0247705Y0085917D01*
X0247637Y0085805D01*
X0247565Y0085695D01*
X0247490Y0085587D01*
X0247412Y0085481D01*
X0247331Y0085378D01*
X0247246Y0085277D01*
X0247159Y0085179D01*
X0247068Y0085084D01*
X0246975Y0084991D01*
X0246879Y0084901D01*
X0246780Y0084814D01*
X0246679Y0084731D01*
X0246575Y0084650D01*
X0246469Y0084573D01*
X0246360Y0084499D01*
X0246249Y0084428D01*
X0246137Y0084360D01*
X0246022Y0084296D01*
X0245905Y0084236D01*
X0245786Y0084179D01*
X0245666Y0084126D01*
X0245545Y0084076D01*
X0245421Y0084030D01*
X0245297Y0083988D01*
X0245171Y0083950D01*
X0245044Y0083915D01*
X0244916Y0083884D01*
X0244788Y0083858D01*
X0244658Y0083835D01*
X0244528Y0083816D01*
X0244398Y0083801D01*
X0244267Y0083790D01*
X0244135Y0083783D01*
X0244004Y0083780D01*
X0243872Y0083781D01*
X0243741Y0083786D01*
X0243610Y0083795D01*
X0243479Y0083808D01*
X0243349Y0083825D01*
X0243219Y0083846D01*
X0243090Y0083871D01*
X0242962Y0083899D01*
X0242834Y0083932D01*
X0242708Y0083968D01*
X0242583Y0084009D01*
X0242459Y0084053D01*
X0242336Y0084100D01*
X0242215Y0084152D01*
X0242096Y0084207D01*
X0241978Y0084266D01*
X0241863Y0084328D01*
X0241749Y0084394D01*
X0241637Y0084463D01*
X0241527Y0084535D01*
X0241420Y0084611D01*
X0241315Y0084690D01*
X0241212Y0084772D01*
X0241112Y0084857D01*
X0241015Y0084946D01*
X0240920Y0085037D01*
X0240828Y0085131D01*
X0240739Y0085228D01*
X0240653Y0085327D01*
X0240570Y0085429D01*
X0240490Y0085534D01*
X0240414Y0085640D01*
X0240341Y0085749D01*
X0240271Y0085861D01*
X0240204Y0085974D01*
X0240141Y0086089D01*
X0240081Y0086207D01*
X0240025Y0086325D01*
X0239973Y0086446D01*
X0239924Y0086568D01*
X0239879Y0086692D01*
X0239838Y0086816D01*
X0239801Y0086943D01*
X0239767Y0087070D01*
X0239737Y0087198D01*
X0239712Y0087327D01*
X0239690Y0087456D01*
X0239672Y0087586D01*
X0239658Y0087717D01*
X0239648Y0087848D01*
X0239642Y0087980D01*
X0239640Y0088111D01*
X0371806Y0017048D02*
X0371808Y0017241D01*
X0371815Y0017434D01*
X0371827Y0017627D01*
X0371844Y0017820D01*
X0371865Y0018012D01*
X0371891Y0018203D01*
X0371922Y0018394D01*
X0371957Y0018584D01*
X0371997Y0018773D01*
X0372042Y0018961D01*
X0372091Y0019148D01*
X0372145Y0019334D01*
X0372203Y0019518D01*
X0372266Y0019701D01*
X0372334Y0019882D01*
X0372405Y0020061D01*
X0372482Y0020239D01*
X0372562Y0020415D01*
X0372647Y0020588D01*
X0372736Y0020760D01*
X0372829Y0020929D01*
X0372926Y0021096D01*
X0373028Y0021261D01*
X0373133Y0021423D01*
X0373242Y0021582D01*
X0373356Y0021739D01*
X0373473Y0021892D01*
X0373593Y0022043D01*
X0373718Y0022191D01*
X0373846Y0022336D01*
X0373977Y0022477D01*
X0374112Y0022616D01*
X0374251Y0022751D01*
X0374392Y0022882D01*
X0374537Y0023010D01*
X0374685Y0023135D01*
X0374836Y0023255D01*
X0374989Y0023372D01*
X0375146Y0023486D01*
X0375305Y0023595D01*
X0375467Y0023700D01*
X0375632Y0023802D01*
X0375799Y0023899D01*
X0375968Y0023992D01*
X0376140Y0024081D01*
X0376313Y0024166D01*
X0376489Y0024246D01*
X0376667Y0024323D01*
X0376846Y0024394D01*
X0377027Y0024462D01*
X0377210Y0024525D01*
X0377394Y0024583D01*
X0377580Y0024637D01*
X0377767Y0024686D01*
X0377955Y0024731D01*
X0378144Y0024771D01*
X0378334Y0024806D01*
X0378525Y0024837D01*
X0378716Y0024863D01*
X0378908Y0024884D01*
X0379101Y0024901D01*
X0379294Y0024913D01*
X0379487Y0024920D01*
X0379680Y0024922D01*
X0379873Y0024920D01*
X0380066Y0024913D01*
X0380259Y0024901D01*
X0380452Y0024884D01*
X0380644Y0024863D01*
X0380835Y0024837D01*
X0381026Y0024806D01*
X0381216Y0024771D01*
X0381405Y0024731D01*
X0381593Y0024686D01*
X0381780Y0024637D01*
X0381966Y0024583D01*
X0382150Y0024525D01*
X0382333Y0024462D01*
X0382514Y0024394D01*
X0382693Y0024323D01*
X0382871Y0024246D01*
X0383047Y0024166D01*
X0383220Y0024081D01*
X0383392Y0023992D01*
X0383561Y0023899D01*
X0383728Y0023802D01*
X0383893Y0023700D01*
X0384055Y0023595D01*
X0384214Y0023486D01*
X0384371Y0023372D01*
X0384524Y0023255D01*
X0384675Y0023135D01*
X0384823Y0023010D01*
X0384968Y0022882D01*
X0385109Y0022751D01*
X0385248Y0022616D01*
X0385383Y0022477D01*
X0385514Y0022336D01*
X0385642Y0022191D01*
X0385767Y0022043D01*
X0385887Y0021892D01*
X0386004Y0021739D01*
X0386118Y0021582D01*
X0386227Y0021423D01*
X0386332Y0021261D01*
X0386434Y0021096D01*
X0386531Y0020929D01*
X0386624Y0020760D01*
X0386713Y0020588D01*
X0386798Y0020415D01*
X0386878Y0020239D01*
X0386955Y0020061D01*
X0387026Y0019882D01*
X0387094Y0019701D01*
X0387157Y0019518D01*
X0387215Y0019334D01*
X0387269Y0019148D01*
X0387318Y0018961D01*
X0387363Y0018773D01*
X0387403Y0018584D01*
X0387438Y0018394D01*
X0387469Y0018203D01*
X0387495Y0018012D01*
X0387516Y0017820D01*
X0387533Y0017627D01*
X0387545Y0017434D01*
X0387552Y0017241D01*
X0387554Y0017048D01*
X0387552Y0016855D01*
X0387545Y0016662D01*
X0387533Y0016469D01*
X0387516Y0016276D01*
X0387495Y0016084D01*
X0387469Y0015893D01*
X0387438Y0015702D01*
X0387403Y0015512D01*
X0387363Y0015323D01*
X0387318Y0015135D01*
X0387269Y0014948D01*
X0387215Y0014762D01*
X0387157Y0014578D01*
X0387094Y0014395D01*
X0387026Y0014214D01*
X0386955Y0014035D01*
X0386878Y0013857D01*
X0386798Y0013681D01*
X0386713Y0013508D01*
X0386624Y0013336D01*
X0386531Y0013167D01*
X0386434Y0013000D01*
X0386332Y0012835D01*
X0386227Y0012673D01*
X0386118Y0012514D01*
X0386004Y0012357D01*
X0385887Y0012204D01*
X0385767Y0012053D01*
X0385642Y0011905D01*
X0385514Y0011760D01*
X0385383Y0011619D01*
X0385248Y0011480D01*
X0385109Y0011345D01*
X0384968Y0011214D01*
X0384823Y0011086D01*
X0384675Y0010961D01*
X0384524Y0010841D01*
X0384371Y0010724D01*
X0384214Y0010610D01*
X0384055Y0010501D01*
X0383893Y0010396D01*
X0383728Y0010294D01*
X0383561Y0010197D01*
X0383392Y0010104D01*
X0383220Y0010015D01*
X0383047Y0009930D01*
X0382871Y0009850D01*
X0382693Y0009773D01*
X0382514Y0009702D01*
X0382333Y0009634D01*
X0382150Y0009571D01*
X0381966Y0009513D01*
X0381780Y0009459D01*
X0381593Y0009410D01*
X0381405Y0009365D01*
X0381216Y0009325D01*
X0381026Y0009290D01*
X0380835Y0009259D01*
X0380644Y0009233D01*
X0380452Y0009212D01*
X0380259Y0009195D01*
X0380066Y0009183D01*
X0379873Y0009176D01*
X0379680Y0009174D01*
X0379487Y0009176D01*
X0379294Y0009183D01*
X0379101Y0009195D01*
X0378908Y0009212D01*
X0378716Y0009233D01*
X0378525Y0009259D01*
X0378334Y0009290D01*
X0378144Y0009325D01*
X0377955Y0009365D01*
X0377767Y0009410D01*
X0377580Y0009459D01*
X0377394Y0009513D01*
X0377210Y0009571D01*
X0377027Y0009634D01*
X0376846Y0009702D01*
X0376667Y0009773D01*
X0376489Y0009850D01*
X0376313Y0009930D01*
X0376140Y0010015D01*
X0375968Y0010104D01*
X0375799Y0010197D01*
X0375632Y0010294D01*
X0375467Y0010396D01*
X0375305Y0010501D01*
X0375146Y0010610D01*
X0374989Y0010724D01*
X0374836Y0010841D01*
X0374685Y0010961D01*
X0374537Y0011086D01*
X0374392Y0011214D01*
X0374251Y0011345D01*
X0374112Y0011480D01*
X0373977Y0011619D01*
X0373846Y0011760D01*
X0373718Y0011905D01*
X0373593Y0012053D01*
X0373473Y0012204D01*
X0373356Y0012357D01*
X0373242Y0012514D01*
X0373133Y0012673D01*
X0373028Y0012835D01*
X0372926Y0013000D01*
X0372829Y0013167D01*
X0372736Y0013336D01*
X0372647Y0013508D01*
X0372562Y0013681D01*
X0372482Y0013857D01*
X0372405Y0014035D01*
X0372334Y0014214D01*
X0372266Y0014395D01*
X0372203Y0014578D01*
X0372145Y0014762D01*
X0372091Y0014948D01*
X0372042Y0015135D01*
X0371997Y0015323D01*
X0371957Y0015512D01*
X0371922Y0015702D01*
X0371891Y0015893D01*
X0371865Y0016084D01*
X0371844Y0016276D01*
X0371827Y0016469D01*
X0371815Y0016662D01*
X0371808Y0016855D01*
X0371806Y0017048D01*
X0225014Y0233229D02*
X0225016Y0233320D01*
X0225022Y0233410D01*
X0225032Y0233501D01*
X0225046Y0233590D01*
X0225064Y0233679D01*
X0225085Y0233768D01*
X0225111Y0233855D01*
X0225140Y0233941D01*
X0225174Y0234025D01*
X0225210Y0234108D01*
X0225251Y0234190D01*
X0225295Y0234269D01*
X0225342Y0234347D01*
X0225393Y0234422D01*
X0225447Y0234495D01*
X0225504Y0234565D01*
X0225564Y0234633D01*
X0225627Y0234699D01*
X0225693Y0234761D01*
X0225762Y0234820D01*
X0225833Y0234877D01*
X0225907Y0234930D01*
X0225983Y0234980D01*
X0226061Y0235027D01*
X0226141Y0235070D01*
X0226222Y0235109D01*
X0226306Y0235145D01*
X0226391Y0235177D01*
X0226477Y0235206D01*
X0226564Y0235230D01*
X0226653Y0235251D01*
X0226742Y0235268D01*
X0226832Y0235281D01*
X0226922Y0235290D01*
X0227013Y0235295D01*
X0227104Y0235296D01*
X0227194Y0235293D01*
X0227285Y0235286D01*
X0227375Y0235275D01*
X0227465Y0235260D01*
X0227554Y0235241D01*
X0227642Y0235219D01*
X0227728Y0235192D01*
X0227814Y0235162D01*
X0227898Y0235128D01*
X0227981Y0235090D01*
X0228062Y0235049D01*
X0228141Y0235004D01*
X0228218Y0234955D01*
X0228292Y0234904D01*
X0228365Y0234849D01*
X0228435Y0234791D01*
X0228502Y0234730D01*
X0228566Y0234666D01*
X0228628Y0234600D01*
X0228687Y0234530D01*
X0228742Y0234459D01*
X0228795Y0234384D01*
X0228844Y0234308D01*
X0228890Y0234230D01*
X0228932Y0234149D01*
X0228971Y0234067D01*
X0229006Y0233983D01*
X0229037Y0233898D01*
X0229064Y0233811D01*
X0229088Y0233724D01*
X0229108Y0233635D01*
X0229124Y0233546D01*
X0229136Y0233456D01*
X0229144Y0233365D01*
X0229148Y0233274D01*
X0229148Y0233184D01*
X0229144Y0233093D01*
X0229136Y0233002D01*
X0229124Y0232912D01*
X0229108Y0232823D01*
X0229088Y0232734D01*
X0229064Y0232647D01*
X0229037Y0232560D01*
X0229006Y0232475D01*
X0228971Y0232391D01*
X0228932Y0232309D01*
X0228890Y0232228D01*
X0228844Y0232150D01*
X0228795Y0232074D01*
X0228742Y0231999D01*
X0228687Y0231928D01*
X0228628Y0231858D01*
X0228566Y0231792D01*
X0228502Y0231728D01*
X0228435Y0231667D01*
X0228365Y0231609D01*
X0228292Y0231554D01*
X0228218Y0231503D01*
X0228141Y0231454D01*
X0228062Y0231409D01*
X0227981Y0231368D01*
X0227898Y0231330D01*
X0227814Y0231296D01*
X0227728Y0231266D01*
X0227642Y0231239D01*
X0227554Y0231217D01*
X0227465Y0231198D01*
X0227375Y0231183D01*
X0227285Y0231172D01*
X0227194Y0231165D01*
X0227104Y0231162D01*
X0227013Y0231163D01*
X0226922Y0231168D01*
X0226832Y0231177D01*
X0226742Y0231190D01*
X0226653Y0231207D01*
X0226564Y0231228D01*
X0226477Y0231252D01*
X0226391Y0231281D01*
X0226306Y0231313D01*
X0226222Y0231349D01*
X0226141Y0231388D01*
X0226061Y0231431D01*
X0225983Y0231478D01*
X0225907Y0231528D01*
X0225833Y0231581D01*
X0225762Y0231638D01*
X0225693Y0231697D01*
X0225627Y0231759D01*
X0225564Y0231825D01*
X0225504Y0231893D01*
X0225447Y0231963D01*
X0225393Y0232036D01*
X0225342Y0232111D01*
X0225295Y0232189D01*
X0225251Y0232268D01*
X0225210Y0232350D01*
X0225174Y0232433D01*
X0225140Y0232517D01*
X0225111Y0232603D01*
X0225085Y0232690D01*
X0225064Y0232779D01*
X0225046Y0232868D01*
X0225032Y0232957D01*
X0225022Y0233048D01*
X0225016Y0233138D01*
X0225014Y0233229D01*
X0225014Y0241851D02*
X0225016Y0241942D01*
X0225022Y0242032D01*
X0225032Y0242123D01*
X0225046Y0242212D01*
X0225064Y0242301D01*
X0225085Y0242390D01*
X0225111Y0242477D01*
X0225140Y0242563D01*
X0225174Y0242647D01*
X0225210Y0242730D01*
X0225251Y0242812D01*
X0225295Y0242891D01*
X0225342Y0242969D01*
X0225393Y0243044D01*
X0225447Y0243117D01*
X0225504Y0243187D01*
X0225564Y0243255D01*
X0225627Y0243321D01*
X0225693Y0243383D01*
X0225762Y0243442D01*
X0225833Y0243499D01*
X0225907Y0243552D01*
X0225983Y0243602D01*
X0226061Y0243649D01*
X0226141Y0243692D01*
X0226222Y0243731D01*
X0226306Y0243767D01*
X0226391Y0243799D01*
X0226477Y0243828D01*
X0226564Y0243852D01*
X0226653Y0243873D01*
X0226742Y0243890D01*
X0226832Y0243903D01*
X0226922Y0243912D01*
X0227013Y0243917D01*
X0227104Y0243918D01*
X0227194Y0243915D01*
X0227285Y0243908D01*
X0227375Y0243897D01*
X0227465Y0243882D01*
X0227554Y0243863D01*
X0227642Y0243841D01*
X0227728Y0243814D01*
X0227814Y0243784D01*
X0227898Y0243750D01*
X0227981Y0243712D01*
X0228062Y0243671D01*
X0228141Y0243626D01*
X0228218Y0243577D01*
X0228292Y0243526D01*
X0228365Y0243471D01*
X0228435Y0243413D01*
X0228502Y0243352D01*
X0228566Y0243288D01*
X0228628Y0243222D01*
X0228687Y0243152D01*
X0228742Y0243081D01*
X0228795Y0243006D01*
X0228844Y0242930D01*
X0228890Y0242852D01*
X0228932Y0242771D01*
X0228971Y0242689D01*
X0229006Y0242605D01*
X0229037Y0242520D01*
X0229064Y0242433D01*
X0229088Y0242346D01*
X0229108Y0242257D01*
X0229124Y0242168D01*
X0229136Y0242078D01*
X0229144Y0241987D01*
X0229148Y0241896D01*
X0229148Y0241806D01*
X0229144Y0241715D01*
X0229136Y0241624D01*
X0229124Y0241534D01*
X0229108Y0241445D01*
X0229088Y0241356D01*
X0229064Y0241269D01*
X0229037Y0241182D01*
X0229006Y0241097D01*
X0228971Y0241013D01*
X0228932Y0240931D01*
X0228890Y0240850D01*
X0228844Y0240772D01*
X0228795Y0240696D01*
X0228742Y0240621D01*
X0228687Y0240550D01*
X0228628Y0240480D01*
X0228566Y0240414D01*
X0228502Y0240350D01*
X0228435Y0240289D01*
X0228365Y0240231D01*
X0228292Y0240176D01*
X0228218Y0240125D01*
X0228141Y0240076D01*
X0228062Y0240031D01*
X0227981Y0239990D01*
X0227898Y0239952D01*
X0227814Y0239918D01*
X0227728Y0239888D01*
X0227642Y0239861D01*
X0227554Y0239839D01*
X0227465Y0239820D01*
X0227375Y0239805D01*
X0227285Y0239794D01*
X0227194Y0239787D01*
X0227104Y0239784D01*
X0227013Y0239785D01*
X0226922Y0239790D01*
X0226832Y0239799D01*
X0226742Y0239812D01*
X0226653Y0239829D01*
X0226564Y0239850D01*
X0226477Y0239874D01*
X0226391Y0239903D01*
X0226306Y0239935D01*
X0226222Y0239971D01*
X0226141Y0240010D01*
X0226061Y0240053D01*
X0225983Y0240100D01*
X0225907Y0240150D01*
X0225833Y0240203D01*
X0225762Y0240260D01*
X0225693Y0240319D01*
X0225627Y0240381D01*
X0225564Y0240447D01*
X0225504Y0240515D01*
X0225447Y0240585D01*
X0225393Y0240658D01*
X0225342Y0240733D01*
X0225295Y0240811D01*
X0225251Y0240890D01*
X0225210Y0240972D01*
X0225174Y0241055D01*
X0225140Y0241139D01*
X0225111Y0241225D01*
X0225085Y0241312D01*
X0225064Y0241401D01*
X0225046Y0241490D01*
X0225032Y0241579D01*
X0225022Y0241670D01*
X0225016Y0241760D01*
X0225014Y0241851D01*
X0239640Y0237717D02*
X0239642Y0237848D01*
X0239648Y0237980D01*
X0239658Y0238111D01*
X0239672Y0238242D01*
X0239690Y0238372D01*
X0239712Y0238501D01*
X0239737Y0238630D01*
X0239767Y0238758D01*
X0239801Y0238885D01*
X0239838Y0239012D01*
X0239879Y0239136D01*
X0239924Y0239260D01*
X0239973Y0239382D01*
X0240025Y0239503D01*
X0240081Y0239621D01*
X0240141Y0239739D01*
X0240204Y0239854D01*
X0240271Y0239967D01*
X0240341Y0240079D01*
X0240414Y0240188D01*
X0240490Y0240294D01*
X0240570Y0240399D01*
X0240653Y0240501D01*
X0240739Y0240600D01*
X0240828Y0240697D01*
X0240920Y0240791D01*
X0241015Y0240882D01*
X0241112Y0240971D01*
X0241212Y0241056D01*
X0241315Y0241138D01*
X0241420Y0241217D01*
X0241527Y0241293D01*
X0241637Y0241365D01*
X0241749Y0241434D01*
X0241863Y0241500D01*
X0241978Y0241562D01*
X0242096Y0241621D01*
X0242215Y0241676D01*
X0242336Y0241728D01*
X0242459Y0241775D01*
X0242583Y0241819D01*
X0242708Y0241860D01*
X0242834Y0241896D01*
X0242962Y0241929D01*
X0243090Y0241957D01*
X0243219Y0241982D01*
X0243349Y0242003D01*
X0243479Y0242020D01*
X0243610Y0242033D01*
X0243741Y0242042D01*
X0243872Y0242047D01*
X0244004Y0242048D01*
X0244135Y0242045D01*
X0244267Y0242038D01*
X0244398Y0242027D01*
X0244528Y0242012D01*
X0244658Y0241993D01*
X0244788Y0241970D01*
X0244916Y0241944D01*
X0245044Y0241913D01*
X0245171Y0241878D01*
X0245297Y0241840D01*
X0245421Y0241798D01*
X0245545Y0241752D01*
X0245666Y0241702D01*
X0245786Y0241649D01*
X0245905Y0241592D01*
X0246022Y0241532D01*
X0246136Y0241468D01*
X0246249Y0241400D01*
X0246360Y0241329D01*
X0246469Y0241255D01*
X0246575Y0241178D01*
X0246679Y0241097D01*
X0246780Y0241014D01*
X0246879Y0240927D01*
X0246975Y0240837D01*
X0247068Y0240744D01*
X0247159Y0240649D01*
X0247246Y0240551D01*
X0247331Y0240450D01*
X0247412Y0240347D01*
X0247490Y0240241D01*
X0247565Y0240133D01*
X0247637Y0240023D01*
X0247705Y0239911D01*
X0247770Y0239797D01*
X0247831Y0239680D01*
X0247889Y0239562D01*
X0247943Y0239442D01*
X0247994Y0239321D01*
X0248041Y0239198D01*
X0248084Y0239074D01*
X0248123Y0238949D01*
X0248159Y0238822D01*
X0248190Y0238694D01*
X0248218Y0238566D01*
X0248242Y0238437D01*
X0248262Y0238307D01*
X0248278Y0238176D01*
X0248290Y0238045D01*
X0248298Y0237914D01*
X0248302Y0237783D01*
X0248302Y0237651D01*
X0248298Y0237520D01*
X0248290Y0237389D01*
X0248278Y0237258D01*
X0248262Y0237127D01*
X0248242Y0236997D01*
X0248218Y0236868D01*
X0248190Y0236740D01*
X0248159Y0236612D01*
X0248123Y0236485D01*
X0248084Y0236360D01*
X0248041Y0236236D01*
X0247994Y0236113D01*
X0247943Y0235992D01*
X0247889Y0235872D01*
X0247831Y0235754D01*
X0247770Y0235637D01*
X0247705Y0235523D01*
X0247637Y0235411D01*
X0247565Y0235301D01*
X0247490Y0235193D01*
X0247412Y0235087D01*
X0247331Y0234984D01*
X0247246Y0234883D01*
X0247159Y0234785D01*
X0247068Y0234690D01*
X0246975Y0234597D01*
X0246879Y0234507D01*
X0246780Y0234420D01*
X0246679Y0234337D01*
X0246575Y0234256D01*
X0246469Y0234179D01*
X0246360Y0234105D01*
X0246249Y0234034D01*
X0246137Y0233966D01*
X0246022Y0233902D01*
X0245905Y0233842D01*
X0245786Y0233785D01*
X0245666Y0233732D01*
X0245545Y0233682D01*
X0245421Y0233636D01*
X0245297Y0233594D01*
X0245171Y0233556D01*
X0245044Y0233521D01*
X0244916Y0233490D01*
X0244788Y0233464D01*
X0244658Y0233441D01*
X0244528Y0233422D01*
X0244398Y0233407D01*
X0244267Y0233396D01*
X0244135Y0233389D01*
X0244004Y0233386D01*
X0243872Y0233387D01*
X0243741Y0233392D01*
X0243610Y0233401D01*
X0243479Y0233414D01*
X0243349Y0233431D01*
X0243219Y0233452D01*
X0243090Y0233477D01*
X0242962Y0233505D01*
X0242834Y0233538D01*
X0242708Y0233574D01*
X0242583Y0233615D01*
X0242459Y0233659D01*
X0242336Y0233706D01*
X0242215Y0233758D01*
X0242096Y0233813D01*
X0241978Y0233872D01*
X0241863Y0233934D01*
X0241749Y0234000D01*
X0241637Y0234069D01*
X0241527Y0234141D01*
X0241420Y0234217D01*
X0241315Y0234296D01*
X0241212Y0234378D01*
X0241112Y0234463D01*
X0241015Y0234552D01*
X0240920Y0234643D01*
X0240828Y0234737D01*
X0240739Y0234834D01*
X0240653Y0234933D01*
X0240570Y0235035D01*
X0240490Y0235140D01*
X0240414Y0235246D01*
X0240341Y0235355D01*
X0240271Y0235467D01*
X0240204Y0235580D01*
X0240141Y0235695D01*
X0240081Y0235813D01*
X0240025Y0235931D01*
X0239973Y0236052D01*
X0239924Y0236174D01*
X0239879Y0236298D01*
X0239838Y0236422D01*
X0239801Y0236549D01*
X0239767Y0236676D01*
X0239737Y0236804D01*
X0239712Y0236933D01*
X0239690Y0237062D01*
X0239672Y0237192D01*
X0239658Y0237323D01*
X0239648Y0237454D01*
X0239642Y0237586D01*
X0239640Y0237717D01*
X0121530Y0237717D02*
X0121532Y0237848D01*
X0121538Y0237980D01*
X0121548Y0238111D01*
X0121562Y0238242D01*
X0121580Y0238372D01*
X0121602Y0238501D01*
X0121627Y0238630D01*
X0121657Y0238758D01*
X0121691Y0238885D01*
X0121728Y0239012D01*
X0121769Y0239136D01*
X0121814Y0239260D01*
X0121863Y0239382D01*
X0121915Y0239503D01*
X0121971Y0239621D01*
X0122031Y0239739D01*
X0122094Y0239854D01*
X0122161Y0239967D01*
X0122231Y0240079D01*
X0122304Y0240188D01*
X0122380Y0240294D01*
X0122460Y0240399D01*
X0122543Y0240501D01*
X0122629Y0240600D01*
X0122718Y0240697D01*
X0122810Y0240791D01*
X0122905Y0240882D01*
X0123002Y0240971D01*
X0123102Y0241056D01*
X0123205Y0241138D01*
X0123310Y0241217D01*
X0123417Y0241293D01*
X0123527Y0241365D01*
X0123639Y0241434D01*
X0123753Y0241500D01*
X0123868Y0241562D01*
X0123986Y0241621D01*
X0124105Y0241676D01*
X0124226Y0241728D01*
X0124349Y0241775D01*
X0124473Y0241819D01*
X0124598Y0241860D01*
X0124724Y0241896D01*
X0124852Y0241929D01*
X0124980Y0241957D01*
X0125109Y0241982D01*
X0125239Y0242003D01*
X0125369Y0242020D01*
X0125500Y0242033D01*
X0125631Y0242042D01*
X0125762Y0242047D01*
X0125894Y0242048D01*
X0126025Y0242045D01*
X0126157Y0242038D01*
X0126288Y0242027D01*
X0126418Y0242012D01*
X0126548Y0241993D01*
X0126678Y0241970D01*
X0126806Y0241944D01*
X0126934Y0241913D01*
X0127061Y0241878D01*
X0127187Y0241840D01*
X0127311Y0241798D01*
X0127435Y0241752D01*
X0127556Y0241702D01*
X0127676Y0241649D01*
X0127795Y0241592D01*
X0127912Y0241532D01*
X0128026Y0241468D01*
X0128139Y0241400D01*
X0128250Y0241329D01*
X0128359Y0241255D01*
X0128465Y0241178D01*
X0128569Y0241097D01*
X0128670Y0241014D01*
X0128769Y0240927D01*
X0128865Y0240837D01*
X0128958Y0240744D01*
X0129049Y0240649D01*
X0129136Y0240551D01*
X0129221Y0240450D01*
X0129302Y0240347D01*
X0129380Y0240241D01*
X0129455Y0240133D01*
X0129527Y0240023D01*
X0129595Y0239911D01*
X0129660Y0239797D01*
X0129721Y0239680D01*
X0129779Y0239562D01*
X0129833Y0239442D01*
X0129884Y0239321D01*
X0129931Y0239198D01*
X0129974Y0239074D01*
X0130013Y0238949D01*
X0130049Y0238822D01*
X0130080Y0238694D01*
X0130108Y0238566D01*
X0130132Y0238437D01*
X0130152Y0238307D01*
X0130168Y0238176D01*
X0130180Y0238045D01*
X0130188Y0237914D01*
X0130192Y0237783D01*
X0130192Y0237651D01*
X0130188Y0237520D01*
X0130180Y0237389D01*
X0130168Y0237258D01*
X0130152Y0237127D01*
X0130132Y0236997D01*
X0130108Y0236868D01*
X0130080Y0236740D01*
X0130049Y0236612D01*
X0130013Y0236485D01*
X0129974Y0236360D01*
X0129931Y0236236D01*
X0129884Y0236113D01*
X0129833Y0235992D01*
X0129779Y0235872D01*
X0129721Y0235754D01*
X0129660Y0235637D01*
X0129595Y0235523D01*
X0129527Y0235411D01*
X0129455Y0235301D01*
X0129380Y0235193D01*
X0129302Y0235087D01*
X0129221Y0234984D01*
X0129136Y0234883D01*
X0129049Y0234785D01*
X0128958Y0234690D01*
X0128865Y0234597D01*
X0128769Y0234507D01*
X0128670Y0234420D01*
X0128569Y0234337D01*
X0128465Y0234256D01*
X0128359Y0234179D01*
X0128250Y0234105D01*
X0128139Y0234034D01*
X0128027Y0233966D01*
X0127912Y0233902D01*
X0127795Y0233842D01*
X0127676Y0233785D01*
X0127556Y0233732D01*
X0127435Y0233682D01*
X0127311Y0233636D01*
X0127187Y0233594D01*
X0127061Y0233556D01*
X0126934Y0233521D01*
X0126806Y0233490D01*
X0126678Y0233464D01*
X0126548Y0233441D01*
X0126418Y0233422D01*
X0126288Y0233407D01*
X0126157Y0233396D01*
X0126025Y0233389D01*
X0125894Y0233386D01*
X0125762Y0233387D01*
X0125631Y0233392D01*
X0125500Y0233401D01*
X0125369Y0233414D01*
X0125239Y0233431D01*
X0125109Y0233452D01*
X0124980Y0233477D01*
X0124852Y0233505D01*
X0124724Y0233538D01*
X0124598Y0233574D01*
X0124473Y0233615D01*
X0124349Y0233659D01*
X0124226Y0233706D01*
X0124105Y0233758D01*
X0123986Y0233813D01*
X0123868Y0233872D01*
X0123753Y0233934D01*
X0123639Y0234000D01*
X0123527Y0234069D01*
X0123417Y0234141D01*
X0123310Y0234217D01*
X0123205Y0234296D01*
X0123102Y0234378D01*
X0123002Y0234463D01*
X0122905Y0234552D01*
X0122810Y0234643D01*
X0122718Y0234737D01*
X0122629Y0234834D01*
X0122543Y0234933D01*
X0122460Y0235035D01*
X0122380Y0235140D01*
X0122304Y0235246D01*
X0122231Y0235355D01*
X0122161Y0235467D01*
X0122094Y0235580D01*
X0122031Y0235695D01*
X0121971Y0235813D01*
X0121915Y0235931D01*
X0121863Y0236052D01*
X0121814Y0236174D01*
X0121769Y0236298D01*
X0121728Y0236422D01*
X0121691Y0236549D01*
X0121657Y0236676D01*
X0121627Y0236804D01*
X0121602Y0236933D01*
X0121580Y0237062D01*
X0121562Y0237192D01*
X0121548Y0237323D01*
X0121538Y0237454D01*
X0121532Y0237586D01*
X0121530Y0237717D01*
X0106904Y0241851D02*
X0106906Y0241942D01*
X0106912Y0242032D01*
X0106922Y0242123D01*
X0106936Y0242212D01*
X0106954Y0242301D01*
X0106975Y0242390D01*
X0107001Y0242477D01*
X0107030Y0242563D01*
X0107064Y0242647D01*
X0107100Y0242730D01*
X0107141Y0242812D01*
X0107185Y0242891D01*
X0107232Y0242969D01*
X0107283Y0243044D01*
X0107337Y0243117D01*
X0107394Y0243187D01*
X0107454Y0243255D01*
X0107517Y0243321D01*
X0107583Y0243383D01*
X0107652Y0243442D01*
X0107723Y0243499D01*
X0107797Y0243552D01*
X0107873Y0243602D01*
X0107951Y0243649D01*
X0108031Y0243692D01*
X0108112Y0243731D01*
X0108196Y0243767D01*
X0108281Y0243799D01*
X0108367Y0243828D01*
X0108454Y0243852D01*
X0108543Y0243873D01*
X0108632Y0243890D01*
X0108722Y0243903D01*
X0108812Y0243912D01*
X0108903Y0243917D01*
X0108994Y0243918D01*
X0109084Y0243915D01*
X0109175Y0243908D01*
X0109265Y0243897D01*
X0109355Y0243882D01*
X0109444Y0243863D01*
X0109532Y0243841D01*
X0109618Y0243814D01*
X0109704Y0243784D01*
X0109788Y0243750D01*
X0109871Y0243712D01*
X0109952Y0243671D01*
X0110031Y0243626D01*
X0110108Y0243577D01*
X0110182Y0243526D01*
X0110255Y0243471D01*
X0110325Y0243413D01*
X0110392Y0243352D01*
X0110456Y0243288D01*
X0110518Y0243222D01*
X0110577Y0243152D01*
X0110632Y0243081D01*
X0110685Y0243006D01*
X0110734Y0242930D01*
X0110780Y0242852D01*
X0110822Y0242771D01*
X0110861Y0242689D01*
X0110896Y0242605D01*
X0110927Y0242520D01*
X0110954Y0242433D01*
X0110978Y0242346D01*
X0110998Y0242257D01*
X0111014Y0242168D01*
X0111026Y0242078D01*
X0111034Y0241987D01*
X0111038Y0241896D01*
X0111038Y0241806D01*
X0111034Y0241715D01*
X0111026Y0241624D01*
X0111014Y0241534D01*
X0110998Y0241445D01*
X0110978Y0241356D01*
X0110954Y0241269D01*
X0110927Y0241182D01*
X0110896Y0241097D01*
X0110861Y0241013D01*
X0110822Y0240931D01*
X0110780Y0240850D01*
X0110734Y0240772D01*
X0110685Y0240696D01*
X0110632Y0240621D01*
X0110577Y0240550D01*
X0110518Y0240480D01*
X0110456Y0240414D01*
X0110392Y0240350D01*
X0110325Y0240289D01*
X0110255Y0240231D01*
X0110182Y0240176D01*
X0110108Y0240125D01*
X0110031Y0240076D01*
X0109952Y0240031D01*
X0109871Y0239990D01*
X0109788Y0239952D01*
X0109704Y0239918D01*
X0109618Y0239888D01*
X0109532Y0239861D01*
X0109444Y0239839D01*
X0109355Y0239820D01*
X0109265Y0239805D01*
X0109175Y0239794D01*
X0109084Y0239787D01*
X0108994Y0239784D01*
X0108903Y0239785D01*
X0108812Y0239790D01*
X0108722Y0239799D01*
X0108632Y0239812D01*
X0108543Y0239829D01*
X0108454Y0239850D01*
X0108367Y0239874D01*
X0108281Y0239903D01*
X0108196Y0239935D01*
X0108112Y0239971D01*
X0108031Y0240010D01*
X0107951Y0240053D01*
X0107873Y0240100D01*
X0107797Y0240150D01*
X0107723Y0240203D01*
X0107652Y0240260D01*
X0107583Y0240319D01*
X0107517Y0240381D01*
X0107454Y0240447D01*
X0107394Y0240515D01*
X0107337Y0240585D01*
X0107283Y0240658D01*
X0107232Y0240733D01*
X0107185Y0240811D01*
X0107141Y0240890D01*
X0107100Y0240972D01*
X0107064Y0241055D01*
X0107030Y0241139D01*
X0107001Y0241225D01*
X0106975Y0241312D01*
X0106954Y0241401D01*
X0106936Y0241490D01*
X0106922Y0241579D01*
X0106912Y0241670D01*
X0106906Y0241760D01*
X0106904Y0241851D01*
X0106904Y0233229D02*
X0106906Y0233320D01*
X0106912Y0233410D01*
X0106922Y0233501D01*
X0106936Y0233590D01*
X0106954Y0233679D01*
X0106975Y0233768D01*
X0107001Y0233855D01*
X0107030Y0233941D01*
X0107064Y0234025D01*
X0107100Y0234108D01*
X0107141Y0234190D01*
X0107185Y0234269D01*
X0107232Y0234347D01*
X0107283Y0234422D01*
X0107337Y0234495D01*
X0107394Y0234565D01*
X0107454Y0234633D01*
X0107517Y0234699D01*
X0107583Y0234761D01*
X0107652Y0234820D01*
X0107723Y0234877D01*
X0107797Y0234930D01*
X0107873Y0234980D01*
X0107951Y0235027D01*
X0108031Y0235070D01*
X0108112Y0235109D01*
X0108196Y0235145D01*
X0108281Y0235177D01*
X0108367Y0235206D01*
X0108454Y0235230D01*
X0108543Y0235251D01*
X0108632Y0235268D01*
X0108722Y0235281D01*
X0108812Y0235290D01*
X0108903Y0235295D01*
X0108994Y0235296D01*
X0109084Y0235293D01*
X0109175Y0235286D01*
X0109265Y0235275D01*
X0109355Y0235260D01*
X0109444Y0235241D01*
X0109532Y0235219D01*
X0109618Y0235192D01*
X0109704Y0235162D01*
X0109788Y0235128D01*
X0109871Y0235090D01*
X0109952Y0235049D01*
X0110031Y0235004D01*
X0110108Y0234955D01*
X0110182Y0234904D01*
X0110255Y0234849D01*
X0110325Y0234791D01*
X0110392Y0234730D01*
X0110456Y0234666D01*
X0110518Y0234600D01*
X0110577Y0234530D01*
X0110632Y0234459D01*
X0110685Y0234384D01*
X0110734Y0234308D01*
X0110780Y0234230D01*
X0110822Y0234149D01*
X0110861Y0234067D01*
X0110896Y0233983D01*
X0110927Y0233898D01*
X0110954Y0233811D01*
X0110978Y0233724D01*
X0110998Y0233635D01*
X0111014Y0233546D01*
X0111026Y0233456D01*
X0111034Y0233365D01*
X0111038Y0233274D01*
X0111038Y0233184D01*
X0111034Y0233093D01*
X0111026Y0233002D01*
X0111014Y0232912D01*
X0110998Y0232823D01*
X0110978Y0232734D01*
X0110954Y0232647D01*
X0110927Y0232560D01*
X0110896Y0232475D01*
X0110861Y0232391D01*
X0110822Y0232309D01*
X0110780Y0232228D01*
X0110734Y0232150D01*
X0110685Y0232074D01*
X0110632Y0231999D01*
X0110577Y0231928D01*
X0110518Y0231858D01*
X0110456Y0231792D01*
X0110392Y0231728D01*
X0110325Y0231667D01*
X0110255Y0231609D01*
X0110182Y0231554D01*
X0110108Y0231503D01*
X0110031Y0231454D01*
X0109952Y0231409D01*
X0109871Y0231368D01*
X0109788Y0231330D01*
X0109704Y0231296D01*
X0109618Y0231266D01*
X0109532Y0231239D01*
X0109444Y0231217D01*
X0109355Y0231198D01*
X0109265Y0231183D01*
X0109175Y0231172D01*
X0109084Y0231165D01*
X0108994Y0231162D01*
X0108903Y0231163D01*
X0108812Y0231168D01*
X0108722Y0231177D01*
X0108632Y0231190D01*
X0108543Y0231207D01*
X0108454Y0231228D01*
X0108367Y0231252D01*
X0108281Y0231281D01*
X0108196Y0231313D01*
X0108112Y0231349D01*
X0108031Y0231388D01*
X0107951Y0231431D01*
X0107873Y0231478D01*
X0107797Y0231528D01*
X0107723Y0231581D01*
X0107652Y0231638D01*
X0107583Y0231697D01*
X0107517Y0231759D01*
X0107454Y0231825D01*
X0107394Y0231893D01*
X0107337Y0231963D01*
X0107283Y0232036D01*
X0107232Y0232111D01*
X0107185Y0232189D01*
X0107141Y0232268D01*
X0107100Y0232350D01*
X0107064Y0232433D01*
X0107030Y0232517D01*
X0107001Y0232603D01*
X0106975Y0232690D01*
X0106954Y0232779D01*
X0106936Y0232868D01*
X0106922Y0232957D01*
X0106912Y0233048D01*
X0106906Y0233138D01*
X0106904Y0233229D01*
X0013538Y0375316D02*
X0013540Y0375509D01*
X0013547Y0375702D01*
X0013559Y0375895D01*
X0013576Y0376088D01*
X0013597Y0376280D01*
X0013623Y0376471D01*
X0013654Y0376662D01*
X0013689Y0376852D01*
X0013729Y0377041D01*
X0013774Y0377229D01*
X0013823Y0377416D01*
X0013877Y0377602D01*
X0013935Y0377786D01*
X0013998Y0377969D01*
X0014066Y0378150D01*
X0014137Y0378329D01*
X0014214Y0378507D01*
X0014294Y0378683D01*
X0014379Y0378856D01*
X0014468Y0379028D01*
X0014561Y0379197D01*
X0014658Y0379364D01*
X0014760Y0379529D01*
X0014865Y0379691D01*
X0014974Y0379850D01*
X0015088Y0380007D01*
X0015205Y0380160D01*
X0015325Y0380311D01*
X0015450Y0380459D01*
X0015578Y0380604D01*
X0015709Y0380745D01*
X0015844Y0380884D01*
X0015983Y0381019D01*
X0016124Y0381150D01*
X0016269Y0381278D01*
X0016417Y0381403D01*
X0016568Y0381523D01*
X0016721Y0381640D01*
X0016878Y0381754D01*
X0017037Y0381863D01*
X0017199Y0381968D01*
X0017364Y0382070D01*
X0017531Y0382167D01*
X0017700Y0382260D01*
X0017872Y0382349D01*
X0018045Y0382434D01*
X0018221Y0382514D01*
X0018399Y0382591D01*
X0018578Y0382662D01*
X0018759Y0382730D01*
X0018942Y0382793D01*
X0019126Y0382851D01*
X0019312Y0382905D01*
X0019499Y0382954D01*
X0019687Y0382999D01*
X0019876Y0383039D01*
X0020066Y0383074D01*
X0020257Y0383105D01*
X0020448Y0383131D01*
X0020640Y0383152D01*
X0020833Y0383169D01*
X0021026Y0383181D01*
X0021219Y0383188D01*
X0021412Y0383190D01*
X0021605Y0383188D01*
X0021798Y0383181D01*
X0021991Y0383169D01*
X0022184Y0383152D01*
X0022376Y0383131D01*
X0022567Y0383105D01*
X0022758Y0383074D01*
X0022948Y0383039D01*
X0023137Y0382999D01*
X0023325Y0382954D01*
X0023512Y0382905D01*
X0023698Y0382851D01*
X0023882Y0382793D01*
X0024065Y0382730D01*
X0024246Y0382662D01*
X0024425Y0382591D01*
X0024603Y0382514D01*
X0024779Y0382434D01*
X0024952Y0382349D01*
X0025124Y0382260D01*
X0025293Y0382167D01*
X0025460Y0382070D01*
X0025625Y0381968D01*
X0025787Y0381863D01*
X0025946Y0381754D01*
X0026103Y0381640D01*
X0026256Y0381523D01*
X0026407Y0381403D01*
X0026555Y0381278D01*
X0026700Y0381150D01*
X0026841Y0381019D01*
X0026980Y0380884D01*
X0027115Y0380745D01*
X0027246Y0380604D01*
X0027374Y0380459D01*
X0027499Y0380311D01*
X0027619Y0380160D01*
X0027736Y0380007D01*
X0027850Y0379850D01*
X0027959Y0379691D01*
X0028064Y0379529D01*
X0028166Y0379364D01*
X0028263Y0379197D01*
X0028356Y0379028D01*
X0028445Y0378856D01*
X0028530Y0378683D01*
X0028610Y0378507D01*
X0028687Y0378329D01*
X0028758Y0378150D01*
X0028826Y0377969D01*
X0028889Y0377786D01*
X0028947Y0377602D01*
X0029001Y0377416D01*
X0029050Y0377229D01*
X0029095Y0377041D01*
X0029135Y0376852D01*
X0029170Y0376662D01*
X0029201Y0376471D01*
X0029227Y0376280D01*
X0029248Y0376088D01*
X0029265Y0375895D01*
X0029277Y0375702D01*
X0029284Y0375509D01*
X0029286Y0375316D01*
X0029284Y0375123D01*
X0029277Y0374930D01*
X0029265Y0374737D01*
X0029248Y0374544D01*
X0029227Y0374352D01*
X0029201Y0374161D01*
X0029170Y0373970D01*
X0029135Y0373780D01*
X0029095Y0373591D01*
X0029050Y0373403D01*
X0029001Y0373216D01*
X0028947Y0373030D01*
X0028889Y0372846D01*
X0028826Y0372663D01*
X0028758Y0372482D01*
X0028687Y0372303D01*
X0028610Y0372125D01*
X0028530Y0371949D01*
X0028445Y0371776D01*
X0028356Y0371604D01*
X0028263Y0371435D01*
X0028166Y0371268D01*
X0028064Y0371103D01*
X0027959Y0370941D01*
X0027850Y0370782D01*
X0027736Y0370625D01*
X0027619Y0370472D01*
X0027499Y0370321D01*
X0027374Y0370173D01*
X0027246Y0370028D01*
X0027115Y0369887D01*
X0026980Y0369748D01*
X0026841Y0369613D01*
X0026700Y0369482D01*
X0026555Y0369354D01*
X0026407Y0369229D01*
X0026256Y0369109D01*
X0026103Y0368992D01*
X0025946Y0368878D01*
X0025787Y0368769D01*
X0025625Y0368664D01*
X0025460Y0368562D01*
X0025293Y0368465D01*
X0025124Y0368372D01*
X0024952Y0368283D01*
X0024779Y0368198D01*
X0024603Y0368118D01*
X0024425Y0368041D01*
X0024246Y0367970D01*
X0024065Y0367902D01*
X0023882Y0367839D01*
X0023698Y0367781D01*
X0023512Y0367727D01*
X0023325Y0367678D01*
X0023137Y0367633D01*
X0022948Y0367593D01*
X0022758Y0367558D01*
X0022567Y0367527D01*
X0022376Y0367501D01*
X0022184Y0367480D01*
X0021991Y0367463D01*
X0021798Y0367451D01*
X0021605Y0367444D01*
X0021412Y0367442D01*
X0021219Y0367444D01*
X0021026Y0367451D01*
X0020833Y0367463D01*
X0020640Y0367480D01*
X0020448Y0367501D01*
X0020257Y0367527D01*
X0020066Y0367558D01*
X0019876Y0367593D01*
X0019687Y0367633D01*
X0019499Y0367678D01*
X0019312Y0367727D01*
X0019126Y0367781D01*
X0018942Y0367839D01*
X0018759Y0367902D01*
X0018578Y0367970D01*
X0018399Y0368041D01*
X0018221Y0368118D01*
X0018045Y0368198D01*
X0017872Y0368283D01*
X0017700Y0368372D01*
X0017531Y0368465D01*
X0017364Y0368562D01*
X0017199Y0368664D01*
X0017037Y0368769D01*
X0016878Y0368878D01*
X0016721Y0368992D01*
X0016568Y0369109D01*
X0016417Y0369229D01*
X0016269Y0369354D01*
X0016124Y0369482D01*
X0015983Y0369613D01*
X0015844Y0369748D01*
X0015709Y0369887D01*
X0015578Y0370028D01*
X0015450Y0370173D01*
X0015325Y0370321D01*
X0015205Y0370472D01*
X0015088Y0370625D01*
X0014974Y0370782D01*
X0014865Y0370941D01*
X0014760Y0371103D01*
X0014658Y0371268D01*
X0014561Y0371435D01*
X0014468Y0371604D01*
X0014379Y0371776D01*
X0014294Y0371949D01*
X0014214Y0372125D01*
X0014137Y0372303D01*
X0014066Y0372482D01*
X0013998Y0372663D01*
X0013935Y0372846D01*
X0013877Y0373030D01*
X0013823Y0373216D01*
X0013774Y0373403D01*
X0013729Y0373591D01*
X0013689Y0373780D01*
X0013654Y0373970D01*
X0013623Y0374161D01*
X0013597Y0374352D01*
X0013576Y0374544D01*
X0013559Y0374737D01*
X0013547Y0374930D01*
X0013540Y0375123D01*
X0013538Y0375316D01*
X0371806Y0379253D02*
X0371808Y0379446D01*
X0371815Y0379639D01*
X0371827Y0379832D01*
X0371844Y0380025D01*
X0371865Y0380217D01*
X0371891Y0380408D01*
X0371922Y0380599D01*
X0371957Y0380789D01*
X0371997Y0380978D01*
X0372042Y0381166D01*
X0372091Y0381353D01*
X0372145Y0381539D01*
X0372203Y0381723D01*
X0372266Y0381906D01*
X0372334Y0382087D01*
X0372405Y0382266D01*
X0372482Y0382444D01*
X0372562Y0382620D01*
X0372647Y0382793D01*
X0372736Y0382965D01*
X0372829Y0383134D01*
X0372926Y0383301D01*
X0373028Y0383466D01*
X0373133Y0383628D01*
X0373242Y0383787D01*
X0373356Y0383944D01*
X0373473Y0384097D01*
X0373593Y0384248D01*
X0373718Y0384396D01*
X0373846Y0384541D01*
X0373977Y0384682D01*
X0374112Y0384821D01*
X0374251Y0384956D01*
X0374392Y0385087D01*
X0374537Y0385215D01*
X0374685Y0385340D01*
X0374836Y0385460D01*
X0374989Y0385577D01*
X0375146Y0385691D01*
X0375305Y0385800D01*
X0375467Y0385905D01*
X0375632Y0386007D01*
X0375799Y0386104D01*
X0375968Y0386197D01*
X0376140Y0386286D01*
X0376313Y0386371D01*
X0376489Y0386451D01*
X0376667Y0386528D01*
X0376846Y0386599D01*
X0377027Y0386667D01*
X0377210Y0386730D01*
X0377394Y0386788D01*
X0377580Y0386842D01*
X0377767Y0386891D01*
X0377955Y0386936D01*
X0378144Y0386976D01*
X0378334Y0387011D01*
X0378525Y0387042D01*
X0378716Y0387068D01*
X0378908Y0387089D01*
X0379101Y0387106D01*
X0379294Y0387118D01*
X0379487Y0387125D01*
X0379680Y0387127D01*
X0379873Y0387125D01*
X0380066Y0387118D01*
X0380259Y0387106D01*
X0380452Y0387089D01*
X0380644Y0387068D01*
X0380835Y0387042D01*
X0381026Y0387011D01*
X0381216Y0386976D01*
X0381405Y0386936D01*
X0381593Y0386891D01*
X0381780Y0386842D01*
X0381966Y0386788D01*
X0382150Y0386730D01*
X0382333Y0386667D01*
X0382514Y0386599D01*
X0382693Y0386528D01*
X0382871Y0386451D01*
X0383047Y0386371D01*
X0383220Y0386286D01*
X0383392Y0386197D01*
X0383561Y0386104D01*
X0383728Y0386007D01*
X0383893Y0385905D01*
X0384055Y0385800D01*
X0384214Y0385691D01*
X0384371Y0385577D01*
X0384524Y0385460D01*
X0384675Y0385340D01*
X0384823Y0385215D01*
X0384968Y0385087D01*
X0385109Y0384956D01*
X0385248Y0384821D01*
X0385383Y0384682D01*
X0385514Y0384541D01*
X0385642Y0384396D01*
X0385767Y0384248D01*
X0385887Y0384097D01*
X0386004Y0383944D01*
X0386118Y0383787D01*
X0386227Y0383628D01*
X0386332Y0383466D01*
X0386434Y0383301D01*
X0386531Y0383134D01*
X0386624Y0382965D01*
X0386713Y0382793D01*
X0386798Y0382620D01*
X0386878Y0382444D01*
X0386955Y0382266D01*
X0387026Y0382087D01*
X0387094Y0381906D01*
X0387157Y0381723D01*
X0387215Y0381539D01*
X0387269Y0381353D01*
X0387318Y0381166D01*
X0387363Y0380978D01*
X0387403Y0380789D01*
X0387438Y0380599D01*
X0387469Y0380408D01*
X0387495Y0380217D01*
X0387516Y0380025D01*
X0387533Y0379832D01*
X0387545Y0379639D01*
X0387552Y0379446D01*
X0387554Y0379253D01*
X0387552Y0379060D01*
X0387545Y0378867D01*
X0387533Y0378674D01*
X0387516Y0378481D01*
X0387495Y0378289D01*
X0387469Y0378098D01*
X0387438Y0377907D01*
X0387403Y0377717D01*
X0387363Y0377528D01*
X0387318Y0377340D01*
X0387269Y0377153D01*
X0387215Y0376967D01*
X0387157Y0376783D01*
X0387094Y0376600D01*
X0387026Y0376419D01*
X0386955Y0376240D01*
X0386878Y0376062D01*
X0386798Y0375886D01*
X0386713Y0375713D01*
X0386624Y0375541D01*
X0386531Y0375372D01*
X0386434Y0375205D01*
X0386332Y0375040D01*
X0386227Y0374878D01*
X0386118Y0374719D01*
X0386004Y0374562D01*
X0385887Y0374409D01*
X0385767Y0374258D01*
X0385642Y0374110D01*
X0385514Y0373965D01*
X0385383Y0373824D01*
X0385248Y0373685D01*
X0385109Y0373550D01*
X0384968Y0373419D01*
X0384823Y0373291D01*
X0384675Y0373166D01*
X0384524Y0373046D01*
X0384371Y0372929D01*
X0384214Y0372815D01*
X0384055Y0372706D01*
X0383893Y0372601D01*
X0383728Y0372499D01*
X0383561Y0372402D01*
X0383392Y0372309D01*
X0383220Y0372220D01*
X0383047Y0372135D01*
X0382871Y0372055D01*
X0382693Y0371978D01*
X0382514Y0371907D01*
X0382333Y0371839D01*
X0382150Y0371776D01*
X0381966Y0371718D01*
X0381780Y0371664D01*
X0381593Y0371615D01*
X0381405Y0371570D01*
X0381216Y0371530D01*
X0381026Y0371495D01*
X0380835Y0371464D01*
X0380644Y0371438D01*
X0380452Y0371417D01*
X0380259Y0371400D01*
X0380066Y0371388D01*
X0379873Y0371381D01*
X0379680Y0371379D01*
X0379487Y0371381D01*
X0379294Y0371388D01*
X0379101Y0371400D01*
X0378908Y0371417D01*
X0378716Y0371438D01*
X0378525Y0371464D01*
X0378334Y0371495D01*
X0378144Y0371530D01*
X0377955Y0371570D01*
X0377767Y0371615D01*
X0377580Y0371664D01*
X0377394Y0371718D01*
X0377210Y0371776D01*
X0377027Y0371839D01*
X0376846Y0371907D01*
X0376667Y0371978D01*
X0376489Y0372055D01*
X0376313Y0372135D01*
X0376140Y0372220D01*
X0375968Y0372309D01*
X0375799Y0372402D01*
X0375632Y0372499D01*
X0375467Y0372601D01*
X0375305Y0372706D01*
X0375146Y0372815D01*
X0374989Y0372929D01*
X0374836Y0373046D01*
X0374685Y0373166D01*
X0374537Y0373291D01*
X0374392Y0373419D01*
X0374251Y0373550D01*
X0374112Y0373685D01*
X0373977Y0373824D01*
X0373846Y0373965D01*
X0373718Y0374110D01*
X0373593Y0374258D01*
X0373473Y0374409D01*
X0373356Y0374562D01*
X0373242Y0374719D01*
X0373133Y0374878D01*
X0373028Y0375040D01*
X0372926Y0375205D01*
X0372829Y0375372D01*
X0372736Y0375541D01*
X0372647Y0375713D01*
X0372562Y0375886D01*
X0372482Y0376062D01*
X0372405Y0376240D01*
X0372334Y0376419D01*
X0372266Y0376600D01*
X0372203Y0376783D01*
X0372145Y0376967D01*
X0372091Y0377153D01*
X0372042Y0377340D01*
X0371997Y0377528D01*
X0371957Y0377717D01*
X0371922Y0377907D01*
X0371891Y0378098D01*
X0371865Y0378289D01*
X0371844Y0378481D01*
X0371827Y0378674D01*
X0371815Y0378867D01*
X0371808Y0379060D01*
X0371806Y0379253D01*
M02*
