G75*
%MOIN*%
%OFA0B0*%
%FSLAX25Y25*%
%IPPOS*%
%LPD*%
%AMOC8*
5,1,8,0,0,1.08239X$1,22.5*
%
%ADD10C,0.01700*%
%ADD11C,0.00600*%
%ADD12C,0.00800*%
%ADD13C,0.00400*%
%ADD14C,0.00500*%
%ADD15C,0.00300*%
%ADD16R,0.02000X0.01500*%
%ADD17C,0.01200*%
D10*
X0126426Y0037563D02*
X0127577Y0038714D01*
X0127577Y0043318D01*
X0128728Y0042167D02*
X0126426Y0042167D01*
X0132043Y0042167D02*
X0132043Y0037563D01*
X0135496Y0037563D01*
X0136647Y0038714D01*
X0136647Y0042167D01*
X0139962Y0041016D02*
X0139962Y0038714D01*
X0141113Y0037563D01*
X0143415Y0037563D01*
X0144566Y0038714D01*
X0144566Y0041016D01*
X0143415Y0042167D01*
X0141113Y0042167D01*
X0139962Y0041016D01*
X0147712Y0042167D02*
X0151165Y0039865D01*
X0147712Y0037563D01*
X0151165Y0037563D02*
X0151165Y0044469D01*
X0154479Y0041016D02*
X0154479Y0037563D01*
X0157932Y0037563D01*
X0159083Y0038714D01*
X0157932Y0039865D01*
X0154479Y0039865D01*
X0154479Y0041016D02*
X0155630Y0042167D01*
X0157932Y0042167D01*
X0162398Y0041016D02*
X0162398Y0039865D01*
X0167002Y0039865D01*
X0167002Y0038714D02*
X0167002Y0041016D01*
X0165851Y0042167D01*
X0163549Y0042167D01*
X0162398Y0041016D01*
X0163549Y0037563D02*
X0165851Y0037563D01*
X0167002Y0038714D01*
X0170148Y0042167D02*
X0171299Y0042167D01*
X0173601Y0039865D01*
X0173601Y0037563D02*
X0173601Y0042167D01*
X0176916Y0042167D02*
X0178067Y0041016D01*
X0181520Y0041016D01*
X0181520Y0037563D02*
X0181520Y0044469D01*
X0178067Y0044469D01*
X0176916Y0043318D01*
X0176916Y0042167D01*
X0178067Y0041016D02*
X0176916Y0039865D01*
X0176916Y0038714D01*
X0178067Y0037563D01*
X0181520Y0037563D01*
X0192753Y0037563D02*
X0196206Y0037563D01*
X0197357Y0038714D01*
X0197357Y0042167D01*
X0200672Y0042167D02*
X0204125Y0042167D01*
X0205276Y0041016D01*
X0204125Y0039865D01*
X0201823Y0039865D01*
X0200672Y0038714D01*
X0201823Y0037563D01*
X0205276Y0037563D01*
X0208591Y0037563D02*
X0208591Y0041016D01*
X0209742Y0042167D01*
X0213195Y0042167D01*
X0213195Y0037563D01*
X0216510Y0039865D02*
X0216510Y0041016D01*
X0217661Y0042167D01*
X0219963Y0042167D01*
X0221114Y0041016D01*
X0221114Y0038714D01*
X0219963Y0037563D01*
X0217661Y0037563D01*
X0216510Y0039865D02*
X0221114Y0039865D01*
X0224429Y0039865D02*
X0224429Y0041016D01*
X0225579Y0042167D01*
X0227881Y0042167D01*
X0229032Y0041016D01*
X0229032Y0038714D01*
X0227881Y0037563D01*
X0225579Y0037563D01*
X0224429Y0039865D02*
X0229032Y0039865D01*
X0232347Y0044469D02*
X0236951Y0044469D01*
X0234649Y0044469D02*
X0234649Y0037563D01*
X0248185Y0038714D02*
X0248185Y0043318D01*
X0249336Y0044469D01*
X0251638Y0044469D01*
X0252789Y0043318D01*
X0252789Y0038714D01*
X0251638Y0037563D01*
X0249336Y0037563D01*
X0248185Y0038714D01*
X0256104Y0037563D02*
X0256104Y0044469D01*
X0258406Y0042167D01*
X0260707Y0044469D01*
X0260707Y0037563D01*
X0195055Y0035261D02*
X0193904Y0035261D01*
X0192753Y0036412D01*
X0192753Y0042167D01*
D11*
X0188283Y0025251D02*
X0188283Y0024684D01*
X0188283Y0023550D02*
X0188283Y0021281D01*
X0188850Y0021281D02*
X0187716Y0021281D01*
X0186394Y0021281D02*
X0186394Y0023550D01*
X0184693Y0023550D01*
X0184126Y0022983D01*
X0184126Y0021281D01*
X0182711Y0021848D02*
X0182711Y0022983D01*
X0182144Y0023550D01*
X0181010Y0023550D01*
X0180443Y0022983D01*
X0180443Y0022415D01*
X0182711Y0022415D01*
X0182711Y0021848D02*
X0182144Y0021281D01*
X0181010Y0021281D01*
X0179028Y0021848D02*
X0179028Y0022983D01*
X0178461Y0023550D01*
X0176760Y0023550D01*
X0176760Y0024684D02*
X0176760Y0021281D01*
X0178461Y0021281D01*
X0179028Y0021848D01*
X0171662Y0021281D02*
X0170528Y0021281D01*
X0171095Y0021281D02*
X0171095Y0023550D01*
X0171662Y0023550D01*
X0171095Y0024684D02*
X0171095Y0025251D01*
X0169206Y0023550D02*
X0167505Y0023550D01*
X0166938Y0022983D01*
X0166938Y0021281D01*
X0169206Y0021281D02*
X0169206Y0023550D01*
X0161840Y0024684D02*
X0161840Y0021281D01*
X0161840Y0022415D02*
X0160139Y0022415D01*
X0159572Y0022983D01*
X0159572Y0024117D01*
X0160139Y0024684D01*
X0161840Y0024684D01*
X0158157Y0023550D02*
X0157590Y0023550D01*
X0157590Y0021281D01*
X0158157Y0021281D02*
X0157023Y0021281D01*
X0155134Y0021848D02*
X0154567Y0021281D01*
X0155134Y0021848D02*
X0155134Y0024117D01*
X0154567Y0023550D02*
X0155702Y0023550D01*
X0157590Y0024684D02*
X0157590Y0025251D01*
X0153246Y0023550D02*
X0152112Y0023550D01*
X0152679Y0024117D02*
X0152679Y0021848D01*
X0152112Y0021281D01*
X0150791Y0021281D02*
X0149089Y0021281D01*
X0148522Y0021848D01*
X0149089Y0022415D01*
X0150224Y0022415D01*
X0150791Y0022983D01*
X0150224Y0023550D01*
X0148522Y0023550D01*
X0147108Y0023550D02*
X0145406Y0023550D01*
X0144839Y0022983D01*
X0144839Y0021848D01*
X0145406Y0021281D01*
X0147108Y0021281D01*
X0147108Y0024684D01*
X0143424Y0023550D02*
X0143424Y0021848D01*
X0142857Y0021281D01*
X0141156Y0021281D01*
X0141156Y0023550D01*
X0139741Y0023550D02*
X0139741Y0021281D01*
X0139741Y0022415D02*
X0138607Y0023550D01*
X0138040Y0023550D01*
X0136672Y0022983D02*
X0136672Y0021848D01*
X0136105Y0021281D01*
X0134403Y0021281D01*
X0134403Y0020714D02*
X0134403Y0023550D01*
X0136105Y0023550D01*
X0136672Y0022983D01*
X0135538Y0020147D02*
X0134971Y0020147D01*
X0134403Y0020714D01*
X0132989Y0021281D02*
X0132989Y0024684D01*
X0132422Y0023550D02*
X0131287Y0023550D01*
X0130720Y0022983D01*
X0130720Y0021281D01*
X0132989Y0022983D02*
X0132422Y0023550D01*
X0097745Y0019098D02*
X0097178Y0019665D01*
X0096043Y0019665D01*
X0095476Y0019098D01*
X0096043Y0017964D02*
X0097178Y0017964D01*
X0097745Y0018531D01*
X0097745Y0019098D01*
X0096043Y0017964D02*
X0095476Y0017397D01*
X0095476Y0016830D01*
X0096043Y0016262D01*
X0097178Y0016262D01*
X0097745Y0016830D01*
X0094062Y0016830D02*
X0093494Y0016262D01*
X0091793Y0016262D01*
X0091793Y0019665D01*
X0091793Y0018531D02*
X0093494Y0018531D01*
X0094062Y0017964D01*
X0094062Y0016830D01*
X0092927Y0018531D02*
X0094062Y0019665D01*
X0090378Y0019098D02*
X0090378Y0016830D01*
X0089811Y0016262D01*
X0088677Y0016262D01*
X0088110Y0016830D01*
X0088110Y0019098D01*
X0088677Y0019665D01*
X0089811Y0019665D01*
X0090378Y0019098D01*
X0086695Y0016262D02*
X0084427Y0016262D01*
X0085561Y0016262D02*
X0085561Y0019665D01*
X0083012Y0019665D02*
X0083012Y0017397D01*
X0081878Y0016262D01*
X0080744Y0017397D01*
X0080744Y0019665D01*
X0079329Y0019098D02*
X0079329Y0016262D01*
X0080744Y0017964D02*
X0083012Y0017964D01*
X0079329Y0019098D02*
X0078762Y0019665D01*
X0077628Y0019665D01*
X0077060Y0019098D01*
X0077060Y0016262D01*
X0075646Y0016262D02*
X0073377Y0016262D01*
X0074512Y0016262D02*
X0074512Y0019665D01*
X0071963Y0019098D02*
X0071396Y0019665D01*
X0070261Y0019665D01*
X0069694Y0019098D01*
X0069694Y0016830D01*
X0070261Y0016262D01*
X0071396Y0016262D01*
X0071963Y0016830D01*
X0068280Y0017397D02*
X0068280Y0019665D01*
X0068280Y0017964D02*
X0066011Y0017964D01*
X0066011Y0017397D02*
X0067145Y0016262D01*
X0068280Y0017397D01*
X0066011Y0017397D02*
X0066011Y0019665D01*
X0006926Y0064458D02*
X0006359Y0063891D01*
X0005791Y0063891D01*
X0005224Y0064458D01*
X0005224Y0065592D01*
X0004657Y0066159D01*
X0004090Y0066159D01*
X0003523Y0065592D01*
X0003523Y0064458D01*
X0004090Y0063891D01*
X0006926Y0064458D02*
X0006926Y0065592D01*
X0006359Y0066159D01*
X0006926Y0067574D02*
X0003523Y0067574D01*
X0003523Y0069843D01*
X0003523Y0071257D02*
X0006926Y0071257D01*
X0006926Y0072959D01*
X0006359Y0073526D01*
X0005224Y0073526D01*
X0004657Y0072959D01*
X0004657Y0071257D01*
X0004657Y0072391D02*
X0003523Y0073526D01*
X0004657Y0074940D02*
X0003523Y0076075D01*
X0004657Y0077209D01*
X0006926Y0077209D01*
X0006359Y0078623D02*
X0004090Y0078623D01*
X0003523Y0079191D01*
X0003523Y0080325D01*
X0004090Y0080892D01*
X0006359Y0080892D01*
X0006926Y0080325D01*
X0006926Y0079191D01*
X0006359Y0078623D01*
X0006359Y0082307D02*
X0006926Y0082874D01*
X0006926Y0084008D01*
X0006359Y0084575D01*
X0005791Y0084575D01*
X0003523Y0082307D01*
X0003523Y0084575D01*
X0004657Y0074940D02*
X0006926Y0074940D01*
X0006926Y0069843D02*
X0006926Y0067574D01*
X0005224Y0067574D02*
X0005224Y0068708D01*
X0005992Y0094796D02*
X0005425Y0095364D01*
X0005425Y0096498D01*
X0004858Y0097065D01*
X0004291Y0097065D01*
X0003724Y0096498D01*
X0003724Y0095364D01*
X0004291Y0094796D01*
X0005992Y0094796D02*
X0006559Y0094796D01*
X0007127Y0095364D01*
X0007127Y0096498D01*
X0006559Y0097065D01*
X0007127Y0098480D02*
X0003724Y0098480D01*
X0003724Y0100748D01*
X0003724Y0102163D02*
X0007127Y0102163D01*
X0007127Y0103864D01*
X0006559Y0104431D01*
X0005425Y0104431D01*
X0004858Y0103864D01*
X0004858Y0102163D01*
X0004858Y0103297D02*
X0003724Y0104431D01*
X0004858Y0105846D02*
X0003724Y0106980D01*
X0004858Y0108114D01*
X0007127Y0108114D01*
X0006559Y0109529D02*
X0004291Y0109529D01*
X0003724Y0110096D01*
X0003724Y0111230D01*
X0004291Y0111798D01*
X0006559Y0111798D01*
X0007127Y0111230D01*
X0007127Y0110096D01*
X0006559Y0109529D01*
X0005992Y0113212D02*
X0007127Y0114346D01*
X0003724Y0114346D01*
X0003724Y0113212D02*
X0003724Y0115481D01*
X0004858Y0105846D02*
X0007127Y0105846D01*
X0007127Y0100748D02*
X0007127Y0098480D01*
X0005425Y0098480D02*
X0005425Y0099614D01*
X0003267Y0160281D02*
X0002700Y0160848D01*
X0002700Y0161415D01*
X0003267Y0161982D01*
X0006103Y0161982D01*
X0006103Y0161415D02*
X0006103Y0162549D01*
X0005536Y0163964D02*
X0003267Y0163964D01*
X0002700Y0164531D01*
X0002700Y0165665D01*
X0003267Y0166233D01*
X0005536Y0166233D01*
X0006103Y0165665D01*
X0006103Y0164531D01*
X0005536Y0163964D01*
X0005536Y0167647D02*
X0004401Y0168781D01*
X0002700Y0168781D01*
X0004401Y0168781D02*
X0005536Y0169916D01*
X0006103Y0169916D01*
X0004969Y0171330D02*
X0006103Y0172465D01*
X0002700Y0172465D01*
X0002700Y0173599D02*
X0002700Y0171330D01*
X0005536Y0167647D02*
X0006103Y0167647D01*
X0066448Y0178412D02*
X0066448Y0178979D01*
X0067015Y0179547D01*
X0068149Y0179547D01*
X0068717Y0180114D01*
X0068717Y0180681D01*
X0068149Y0181248D01*
X0067015Y0181248D01*
X0066448Y0180681D01*
X0066448Y0178412D02*
X0067015Y0177845D01*
X0068149Y0177845D01*
X0068717Y0178412D01*
X0070131Y0177845D02*
X0072400Y0177845D01*
X0071265Y0177845D02*
X0071265Y0181248D01*
X0073814Y0181248D02*
X0073814Y0177845D01*
X0075516Y0177845D01*
X0076083Y0178412D01*
X0076083Y0179547D01*
X0075516Y0180114D01*
X0073814Y0180114D01*
X0074949Y0180114D02*
X0076083Y0181248D01*
X0077497Y0181248D02*
X0078632Y0181248D01*
X0078065Y0181248D02*
X0078065Y0177845D01*
X0078632Y0177845D02*
X0077497Y0177845D01*
X0079953Y0177845D02*
X0079953Y0181248D01*
X0079953Y0180114D02*
X0081654Y0180114D01*
X0082221Y0179547D01*
X0082221Y0178412D01*
X0081654Y0177845D01*
X0079953Y0177845D01*
X0083636Y0179547D02*
X0085337Y0179547D01*
X0085905Y0180114D01*
X0085905Y0180681D01*
X0085337Y0181248D01*
X0084203Y0181248D01*
X0083636Y0180681D01*
X0083636Y0179547D01*
X0084770Y0178412D01*
X0085905Y0177845D01*
X0085069Y0256967D02*
X0085069Y0258669D01*
X0086203Y0258101D01*
X0086771Y0258101D01*
X0087338Y0258669D01*
X0087338Y0259803D01*
X0086771Y0260370D01*
X0085636Y0260370D01*
X0085069Y0259803D01*
X0083655Y0258669D02*
X0083087Y0259236D01*
X0081386Y0259236D01*
X0081386Y0260370D02*
X0081386Y0256967D01*
X0083087Y0256967D01*
X0083655Y0257534D01*
X0083655Y0258669D01*
X0085069Y0256967D02*
X0087338Y0256967D01*
X0080065Y0256967D02*
X0078931Y0256967D01*
X0079498Y0256967D02*
X0079498Y0260370D01*
X0078931Y0260370D02*
X0080065Y0260370D01*
X0077516Y0260370D02*
X0076382Y0259236D01*
X0076949Y0259236D02*
X0075247Y0259236D01*
X0075247Y0260370D02*
X0075247Y0256967D01*
X0076949Y0256967D01*
X0077516Y0257534D01*
X0077516Y0258669D01*
X0076949Y0259236D01*
X0073833Y0256967D02*
X0071564Y0256967D01*
X0072699Y0256967D02*
X0072699Y0260370D01*
X0070150Y0259803D02*
X0069583Y0260370D01*
X0068448Y0260370D01*
X0067881Y0259803D01*
X0068448Y0258669D02*
X0069583Y0258669D01*
X0070150Y0259236D01*
X0070150Y0259803D01*
X0068448Y0258669D02*
X0067881Y0258101D01*
X0067881Y0257534D01*
X0068448Y0256967D01*
X0069583Y0256967D01*
X0070150Y0257534D01*
X0233180Y0181812D02*
X0233180Y0141812D01*
X0256180Y0141812D01*
X0256180Y0181812D01*
X0248680Y0181812D01*
X0248678Y0181686D01*
X0248672Y0181561D01*
X0248662Y0181436D01*
X0248648Y0181311D01*
X0248631Y0181186D01*
X0248609Y0181062D01*
X0248584Y0180939D01*
X0248554Y0180817D01*
X0248521Y0180696D01*
X0248484Y0180576D01*
X0248444Y0180457D01*
X0248399Y0180340D01*
X0248351Y0180223D01*
X0248299Y0180109D01*
X0248244Y0179996D01*
X0248185Y0179885D01*
X0248123Y0179776D01*
X0248057Y0179669D01*
X0247988Y0179564D01*
X0247916Y0179461D01*
X0247841Y0179360D01*
X0247762Y0179262D01*
X0247680Y0179167D01*
X0247596Y0179074D01*
X0247508Y0178984D01*
X0247418Y0178896D01*
X0247325Y0178812D01*
X0247230Y0178730D01*
X0247132Y0178651D01*
X0247031Y0178576D01*
X0246928Y0178504D01*
X0246823Y0178435D01*
X0246716Y0178369D01*
X0246607Y0178307D01*
X0246496Y0178248D01*
X0246383Y0178193D01*
X0246269Y0178141D01*
X0246152Y0178093D01*
X0246035Y0178048D01*
X0245916Y0178008D01*
X0245796Y0177971D01*
X0245675Y0177938D01*
X0245553Y0177908D01*
X0245430Y0177883D01*
X0245306Y0177861D01*
X0245181Y0177844D01*
X0245056Y0177830D01*
X0244931Y0177820D01*
X0244806Y0177814D01*
X0244680Y0177812D01*
X0244554Y0177814D01*
X0244429Y0177820D01*
X0244304Y0177830D01*
X0244179Y0177844D01*
X0244054Y0177861D01*
X0243930Y0177883D01*
X0243807Y0177908D01*
X0243685Y0177938D01*
X0243564Y0177971D01*
X0243444Y0178008D01*
X0243325Y0178048D01*
X0243208Y0178093D01*
X0243091Y0178141D01*
X0242977Y0178193D01*
X0242864Y0178248D01*
X0242753Y0178307D01*
X0242644Y0178369D01*
X0242537Y0178435D01*
X0242432Y0178504D01*
X0242329Y0178576D01*
X0242228Y0178651D01*
X0242130Y0178730D01*
X0242035Y0178812D01*
X0241942Y0178896D01*
X0241852Y0178984D01*
X0241764Y0179074D01*
X0241680Y0179167D01*
X0241598Y0179262D01*
X0241519Y0179360D01*
X0241444Y0179461D01*
X0241372Y0179564D01*
X0241303Y0179669D01*
X0241237Y0179776D01*
X0241175Y0179885D01*
X0241116Y0179996D01*
X0241061Y0180109D01*
X0241009Y0180223D01*
X0240961Y0180340D01*
X0240916Y0180457D01*
X0240876Y0180576D01*
X0240839Y0180696D01*
X0240806Y0180817D01*
X0240776Y0180939D01*
X0240751Y0181062D01*
X0240729Y0181186D01*
X0240712Y0181311D01*
X0240698Y0181436D01*
X0240688Y0181561D01*
X0240682Y0181686D01*
X0240680Y0181812D01*
X0233180Y0181812D01*
X0310365Y0180362D02*
X0310933Y0180929D01*
X0312067Y0180929D01*
X0312634Y0180362D01*
X0312634Y0179795D01*
X0312067Y0179228D01*
X0310933Y0179228D01*
X0310365Y0178661D01*
X0310365Y0178093D01*
X0310933Y0177526D01*
X0312067Y0177526D01*
X0312634Y0178093D01*
X0314048Y0177526D02*
X0316317Y0177526D01*
X0315183Y0177526D02*
X0315183Y0180929D01*
X0317732Y0180929D02*
X0317732Y0177526D01*
X0319433Y0177526D01*
X0320000Y0178093D01*
X0320000Y0179228D01*
X0319433Y0179795D01*
X0317732Y0179795D01*
X0318866Y0179795D02*
X0320000Y0180929D01*
X0321415Y0180929D02*
X0322549Y0180929D01*
X0321982Y0180929D02*
X0321982Y0177526D01*
X0321415Y0177526D02*
X0322549Y0177526D01*
X0323870Y0177526D02*
X0325572Y0177526D01*
X0326139Y0178093D01*
X0326139Y0179228D01*
X0325572Y0179795D01*
X0323870Y0179795D01*
X0323870Y0180929D02*
X0323870Y0177526D01*
X0327553Y0178093D02*
X0328121Y0177526D01*
X0329255Y0177526D01*
X0329822Y0178093D01*
X0329822Y0178661D01*
X0329255Y0179228D01*
X0329822Y0179795D01*
X0329822Y0180362D01*
X0329255Y0180929D01*
X0328121Y0180929D01*
X0327553Y0180362D01*
X0328688Y0179228D02*
X0329255Y0179228D01*
X0330334Y0129555D02*
X0328065Y0129555D01*
X0330334Y0127287D01*
X0330334Y0126719D01*
X0329767Y0126152D01*
X0328632Y0126152D01*
X0328065Y0126719D01*
X0326651Y0126719D02*
X0326651Y0127854D01*
X0326083Y0128421D01*
X0324382Y0128421D01*
X0324382Y0129555D02*
X0324382Y0126152D01*
X0326083Y0126152D01*
X0326651Y0126719D01*
X0323061Y0126152D02*
X0321927Y0126152D01*
X0322494Y0126152D02*
X0322494Y0129555D01*
X0321927Y0129555D02*
X0323061Y0129555D01*
X0320512Y0129555D02*
X0319378Y0128421D01*
X0319945Y0128421D02*
X0318243Y0128421D01*
X0318243Y0129555D02*
X0318243Y0126152D01*
X0319945Y0126152D01*
X0320512Y0126719D01*
X0320512Y0127854D01*
X0319945Y0128421D01*
X0316829Y0126152D02*
X0314560Y0126152D01*
X0315695Y0126152D02*
X0315695Y0129555D01*
X0313146Y0128988D02*
X0312579Y0129555D01*
X0311444Y0129555D01*
X0310877Y0128988D01*
X0311444Y0127854D02*
X0312579Y0127854D01*
X0313146Y0128421D01*
X0313146Y0128988D01*
X0311444Y0127854D02*
X0310877Y0127287D01*
X0310877Y0126719D01*
X0311444Y0126152D01*
X0312579Y0126152D01*
X0313146Y0126719D01*
X0312634Y0228881D02*
X0311499Y0228881D01*
X0310932Y0229448D01*
X0310932Y0230015D01*
X0311499Y0230582D01*
X0312634Y0230582D01*
X0313201Y0231149D01*
X0313201Y0231716D01*
X0312634Y0232283D01*
X0311499Y0232283D01*
X0310932Y0231716D01*
X0313201Y0229448D02*
X0312634Y0228881D01*
X0314615Y0228881D02*
X0316884Y0228881D01*
X0315750Y0228881D02*
X0315750Y0232283D01*
X0318299Y0232283D02*
X0318299Y0228881D01*
X0320000Y0228881D01*
X0320567Y0229448D01*
X0320567Y0230582D01*
X0320000Y0231149D01*
X0318299Y0231149D01*
X0319433Y0231149D02*
X0320567Y0232283D01*
X0321982Y0232283D02*
X0323116Y0232283D01*
X0322549Y0232283D02*
X0322549Y0228881D01*
X0321982Y0228881D02*
X0323116Y0228881D01*
X0324437Y0228881D02*
X0326139Y0228881D01*
X0326706Y0229448D01*
X0326706Y0230582D01*
X0326139Y0231149D01*
X0324437Y0231149D01*
X0324437Y0232283D02*
X0324437Y0228881D01*
X0328120Y0230582D02*
X0330389Y0230582D01*
X0329822Y0228881D02*
X0328120Y0230582D01*
X0329822Y0232283D02*
X0329822Y0228881D01*
X0195203Y0078666D02*
X0195203Y0065666D01*
X0195201Y0065579D01*
X0195195Y0065492D01*
X0195186Y0065405D01*
X0195173Y0065319D01*
X0195156Y0065233D01*
X0195135Y0065148D01*
X0195110Y0065065D01*
X0195082Y0064982D01*
X0195051Y0064901D01*
X0195016Y0064821D01*
X0194977Y0064743D01*
X0194935Y0064666D01*
X0194890Y0064591D01*
X0194841Y0064519D01*
X0194790Y0064448D01*
X0194735Y0064380D01*
X0194678Y0064315D01*
X0194617Y0064252D01*
X0194554Y0064191D01*
X0194489Y0064134D01*
X0194421Y0064079D01*
X0194350Y0064028D01*
X0194278Y0063979D01*
X0194203Y0063934D01*
X0194126Y0063892D01*
X0194048Y0063853D01*
X0193968Y0063818D01*
X0193887Y0063787D01*
X0193804Y0063759D01*
X0193721Y0063734D01*
X0193636Y0063713D01*
X0193550Y0063696D01*
X0193464Y0063683D01*
X0193377Y0063674D01*
X0193290Y0063668D01*
X0193203Y0063666D01*
X0190703Y0067166D02*
X0190703Y0070866D01*
X0190703Y0073366D02*
X0190703Y0077166D01*
X0188203Y0080666D02*
X0188116Y0080664D01*
X0188029Y0080658D01*
X0187942Y0080649D01*
X0187856Y0080636D01*
X0187770Y0080619D01*
X0187685Y0080598D01*
X0187602Y0080573D01*
X0187519Y0080545D01*
X0187438Y0080514D01*
X0187358Y0080479D01*
X0187280Y0080440D01*
X0187203Y0080398D01*
X0187128Y0080353D01*
X0187056Y0080304D01*
X0186985Y0080253D01*
X0186917Y0080198D01*
X0186852Y0080141D01*
X0186789Y0080080D01*
X0186728Y0080017D01*
X0186671Y0079952D01*
X0186616Y0079884D01*
X0186565Y0079813D01*
X0186516Y0079741D01*
X0186471Y0079666D01*
X0186429Y0079589D01*
X0186390Y0079511D01*
X0186355Y0079431D01*
X0186324Y0079350D01*
X0186296Y0079267D01*
X0186271Y0079184D01*
X0186250Y0079099D01*
X0186233Y0079013D01*
X0186220Y0078927D01*
X0186211Y0078840D01*
X0186205Y0078753D01*
X0186203Y0078666D01*
X0186203Y0065666D01*
X0186205Y0065579D01*
X0186211Y0065492D01*
X0186220Y0065405D01*
X0186233Y0065319D01*
X0186250Y0065233D01*
X0186271Y0065148D01*
X0186296Y0065065D01*
X0186324Y0064982D01*
X0186355Y0064901D01*
X0186390Y0064821D01*
X0186429Y0064743D01*
X0186471Y0064666D01*
X0186516Y0064591D01*
X0186565Y0064519D01*
X0186616Y0064448D01*
X0186671Y0064380D01*
X0186728Y0064315D01*
X0186789Y0064252D01*
X0186852Y0064191D01*
X0186917Y0064134D01*
X0186985Y0064079D01*
X0187056Y0064028D01*
X0187128Y0063979D01*
X0187203Y0063934D01*
X0187280Y0063892D01*
X0187358Y0063853D01*
X0187438Y0063818D01*
X0187519Y0063787D01*
X0187602Y0063759D01*
X0187685Y0063734D01*
X0187770Y0063713D01*
X0187856Y0063696D01*
X0187942Y0063683D01*
X0188029Y0063674D01*
X0188116Y0063668D01*
X0188203Y0063666D01*
X0182892Y0063166D02*
X0182892Y0064666D01*
X0182392Y0065166D01*
X0182392Y0079166D01*
X0182892Y0079666D01*
X0182892Y0081166D01*
X0182890Y0081226D01*
X0182885Y0081287D01*
X0182876Y0081346D01*
X0182863Y0081405D01*
X0182847Y0081464D01*
X0182827Y0081521D01*
X0182804Y0081576D01*
X0182777Y0081631D01*
X0182748Y0081683D01*
X0182715Y0081734D01*
X0182679Y0081783D01*
X0182641Y0081829D01*
X0182599Y0081873D01*
X0182555Y0081915D01*
X0182509Y0081953D01*
X0182460Y0081989D01*
X0182409Y0082022D01*
X0182357Y0082051D01*
X0182302Y0082078D01*
X0182247Y0082101D01*
X0182190Y0082121D01*
X0182131Y0082137D01*
X0182072Y0082150D01*
X0182013Y0082159D01*
X0181952Y0082164D01*
X0181892Y0082166D01*
X0175892Y0082166D01*
X0175832Y0082164D01*
X0175771Y0082159D01*
X0175712Y0082150D01*
X0175653Y0082137D01*
X0175594Y0082121D01*
X0175537Y0082101D01*
X0175482Y0082078D01*
X0175427Y0082051D01*
X0175375Y0082022D01*
X0175324Y0081989D01*
X0175275Y0081953D01*
X0175229Y0081915D01*
X0175185Y0081873D01*
X0175143Y0081829D01*
X0175105Y0081783D01*
X0175069Y0081734D01*
X0175036Y0081683D01*
X0175007Y0081631D01*
X0174980Y0081576D01*
X0174957Y0081521D01*
X0174937Y0081464D01*
X0174921Y0081405D01*
X0174908Y0081346D01*
X0174899Y0081287D01*
X0174894Y0081226D01*
X0174892Y0081166D01*
X0174892Y0079666D01*
X0175392Y0079166D01*
X0175392Y0065166D01*
X0174892Y0064666D01*
X0174892Y0063166D01*
X0174894Y0063106D01*
X0174899Y0063045D01*
X0174908Y0062986D01*
X0174921Y0062927D01*
X0174937Y0062868D01*
X0174957Y0062811D01*
X0174980Y0062756D01*
X0175007Y0062701D01*
X0175036Y0062649D01*
X0175069Y0062598D01*
X0175105Y0062549D01*
X0175143Y0062503D01*
X0175185Y0062459D01*
X0175229Y0062417D01*
X0175275Y0062379D01*
X0175324Y0062343D01*
X0175375Y0062310D01*
X0175427Y0062281D01*
X0175482Y0062254D01*
X0175537Y0062231D01*
X0175594Y0062211D01*
X0175653Y0062195D01*
X0175712Y0062182D01*
X0175771Y0062173D01*
X0175832Y0062168D01*
X0175892Y0062166D01*
X0181892Y0062166D01*
X0181952Y0062168D01*
X0182013Y0062173D01*
X0182072Y0062182D01*
X0182131Y0062195D01*
X0182190Y0062211D01*
X0182247Y0062231D01*
X0182302Y0062254D01*
X0182357Y0062281D01*
X0182409Y0062310D01*
X0182460Y0062343D01*
X0182509Y0062379D01*
X0182555Y0062417D01*
X0182599Y0062459D01*
X0182641Y0062503D01*
X0182679Y0062549D01*
X0182715Y0062598D01*
X0182748Y0062649D01*
X0182777Y0062701D01*
X0182804Y0062756D01*
X0182827Y0062811D01*
X0182847Y0062868D01*
X0182863Y0062927D01*
X0182876Y0062986D01*
X0182885Y0063045D01*
X0182890Y0063106D01*
X0182892Y0063166D01*
X0171081Y0063166D02*
X0171081Y0064666D01*
X0170581Y0065166D01*
X0170581Y0079166D01*
X0171081Y0079666D01*
X0171081Y0081166D01*
X0171079Y0081226D01*
X0171074Y0081287D01*
X0171065Y0081346D01*
X0171052Y0081405D01*
X0171036Y0081464D01*
X0171016Y0081521D01*
X0170993Y0081576D01*
X0170966Y0081631D01*
X0170937Y0081683D01*
X0170904Y0081734D01*
X0170868Y0081783D01*
X0170830Y0081829D01*
X0170788Y0081873D01*
X0170744Y0081915D01*
X0170698Y0081953D01*
X0170649Y0081989D01*
X0170598Y0082022D01*
X0170546Y0082051D01*
X0170491Y0082078D01*
X0170436Y0082101D01*
X0170379Y0082121D01*
X0170320Y0082137D01*
X0170261Y0082150D01*
X0170202Y0082159D01*
X0170141Y0082164D01*
X0170081Y0082166D01*
X0164081Y0082166D01*
X0164021Y0082164D01*
X0163960Y0082159D01*
X0163901Y0082150D01*
X0163842Y0082137D01*
X0163783Y0082121D01*
X0163726Y0082101D01*
X0163671Y0082078D01*
X0163616Y0082051D01*
X0163564Y0082022D01*
X0163513Y0081989D01*
X0163464Y0081953D01*
X0163418Y0081915D01*
X0163374Y0081873D01*
X0163332Y0081829D01*
X0163294Y0081783D01*
X0163258Y0081734D01*
X0163225Y0081683D01*
X0163196Y0081631D01*
X0163169Y0081576D01*
X0163146Y0081521D01*
X0163126Y0081464D01*
X0163110Y0081405D01*
X0163097Y0081346D01*
X0163088Y0081287D01*
X0163083Y0081226D01*
X0163081Y0081166D01*
X0163081Y0079666D01*
X0163581Y0079166D01*
X0163581Y0065166D01*
X0163081Y0064666D01*
X0163081Y0063166D01*
X0163083Y0063106D01*
X0163088Y0063045D01*
X0163097Y0062986D01*
X0163110Y0062927D01*
X0163126Y0062868D01*
X0163146Y0062811D01*
X0163169Y0062756D01*
X0163196Y0062701D01*
X0163225Y0062649D01*
X0163258Y0062598D01*
X0163294Y0062549D01*
X0163332Y0062503D01*
X0163374Y0062459D01*
X0163418Y0062417D01*
X0163464Y0062379D01*
X0163513Y0062343D01*
X0163564Y0062310D01*
X0163616Y0062281D01*
X0163671Y0062254D01*
X0163726Y0062231D01*
X0163783Y0062211D01*
X0163842Y0062195D01*
X0163901Y0062182D01*
X0163960Y0062173D01*
X0164021Y0062168D01*
X0164081Y0062166D01*
X0170081Y0062166D01*
X0170141Y0062168D01*
X0170202Y0062173D01*
X0170261Y0062182D01*
X0170320Y0062195D01*
X0170379Y0062211D01*
X0170436Y0062231D01*
X0170491Y0062254D01*
X0170546Y0062281D01*
X0170598Y0062310D01*
X0170649Y0062343D01*
X0170698Y0062379D01*
X0170744Y0062417D01*
X0170788Y0062459D01*
X0170830Y0062503D01*
X0170868Y0062549D01*
X0170904Y0062598D01*
X0170937Y0062649D01*
X0170966Y0062701D01*
X0170993Y0062756D01*
X0171016Y0062811D01*
X0171036Y0062868D01*
X0171052Y0062927D01*
X0171065Y0062986D01*
X0171074Y0063045D01*
X0171079Y0063106D01*
X0171081Y0063166D01*
X0159270Y0063166D02*
X0159270Y0064666D01*
X0158770Y0065166D01*
X0158770Y0079166D01*
X0159270Y0079666D01*
X0159270Y0081166D01*
X0159268Y0081226D01*
X0159263Y0081287D01*
X0159254Y0081346D01*
X0159241Y0081405D01*
X0159225Y0081464D01*
X0159205Y0081521D01*
X0159182Y0081576D01*
X0159155Y0081631D01*
X0159126Y0081683D01*
X0159093Y0081734D01*
X0159057Y0081783D01*
X0159019Y0081829D01*
X0158977Y0081873D01*
X0158933Y0081915D01*
X0158887Y0081953D01*
X0158838Y0081989D01*
X0158787Y0082022D01*
X0158735Y0082051D01*
X0158680Y0082078D01*
X0158625Y0082101D01*
X0158568Y0082121D01*
X0158509Y0082137D01*
X0158450Y0082150D01*
X0158391Y0082159D01*
X0158330Y0082164D01*
X0158270Y0082166D01*
X0152270Y0082166D01*
X0152210Y0082164D01*
X0152149Y0082159D01*
X0152090Y0082150D01*
X0152031Y0082137D01*
X0151972Y0082121D01*
X0151915Y0082101D01*
X0151860Y0082078D01*
X0151805Y0082051D01*
X0151753Y0082022D01*
X0151702Y0081989D01*
X0151653Y0081953D01*
X0151607Y0081915D01*
X0151563Y0081873D01*
X0151521Y0081829D01*
X0151483Y0081783D01*
X0151447Y0081734D01*
X0151414Y0081683D01*
X0151385Y0081631D01*
X0151358Y0081576D01*
X0151335Y0081521D01*
X0151315Y0081464D01*
X0151299Y0081405D01*
X0151286Y0081346D01*
X0151277Y0081287D01*
X0151272Y0081226D01*
X0151270Y0081166D01*
X0151270Y0079666D01*
X0151770Y0079166D01*
X0151770Y0065166D01*
X0151270Y0064666D01*
X0151270Y0063166D01*
X0151272Y0063106D01*
X0151277Y0063045D01*
X0151286Y0062986D01*
X0151299Y0062927D01*
X0151315Y0062868D01*
X0151335Y0062811D01*
X0151358Y0062756D01*
X0151385Y0062701D01*
X0151414Y0062649D01*
X0151447Y0062598D01*
X0151483Y0062549D01*
X0151521Y0062503D01*
X0151563Y0062459D01*
X0151607Y0062417D01*
X0151653Y0062379D01*
X0151702Y0062343D01*
X0151753Y0062310D01*
X0151805Y0062281D01*
X0151860Y0062254D01*
X0151915Y0062231D01*
X0151972Y0062211D01*
X0152031Y0062195D01*
X0152090Y0062182D01*
X0152149Y0062173D01*
X0152210Y0062168D01*
X0152270Y0062166D01*
X0158270Y0062166D01*
X0158330Y0062168D01*
X0158391Y0062173D01*
X0158450Y0062182D01*
X0158509Y0062195D01*
X0158568Y0062211D01*
X0158625Y0062231D01*
X0158680Y0062254D01*
X0158735Y0062281D01*
X0158787Y0062310D01*
X0158838Y0062343D01*
X0158887Y0062379D01*
X0158933Y0062417D01*
X0158977Y0062459D01*
X0159019Y0062503D01*
X0159057Y0062549D01*
X0159093Y0062598D01*
X0159126Y0062649D01*
X0159155Y0062701D01*
X0159182Y0062756D01*
X0159205Y0062811D01*
X0159225Y0062868D01*
X0159241Y0062927D01*
X0159254Y0062986D01*
X0159263Y0063045D01*
X0159268Y0063106D01*
X0159270Y0063166D01*
X0193203Y0080666D02*
X0193290Y0080664D01*
X0193377Y0080658D01*
X0193464Y0080649D01*
X0193550Y0080636D01*
X0193636Y0080619D01*
X0193721Y0080598D01*
X0193804Y0080573D01*
X0193887Y0080545D01*
X0193968Y0080514D01*
X0194048Y0080479D01*
X0194126Y0080440D01*
X0194203Y0080398D01*
X0194278Y0080353D01*
X0194350Y0080304D01*
X0194421Y0080253D01*
X0194489Y0080198D01*
X0194554Y0080141D01*
X0194617Y0080080D01*
X0194678Y0080017D01*
X0194735Y0079952D01*
X0194790Y0079884D01*
X0194841Y0079813D01*
X0194890Y0079741D01*
X0194935Y0079666D01*
X0194977Y0079589D01*
X0195016Y0079511D01*
X0195051Y0079431D01*
X0195082Y0079350D01*
X0195110Y0079267D01*
X0195135Y0079184D01*
X0195156Y0079099D01*
X0195173Y0079013D01*
X0195186Y0078927D01*
X0195195Y0078840D01*
X0195201Y0078753D01*
X0195203Y0078666D01*
X0201881Y0024684D02*
X0203582Y0024684D01*
X0203582Y0021281D01*
X0201881Y0021281D01*
X0201314Y0021848D01*
X0201314Y0024117D01*
X0201881Y0024684D01*
X0199899Y0022983D02*
X0199332Y0023550D01*
X0198198Y0023550D01*
X0197631Y0022983D01*
X0197631Y0022415D01*
X0199899Y0022415D01*
X0199899Y0021848D02*
X0199899Y0022983D01*
X0199899Y0021848D02*
X0199332Y0021281D01*
X0198198Y0021281D01*
X0196216Y0021281D02*
X0194515Y0021281D01*
X0193948Y0021848D01*
X0194515Y0022415D01*
X0195649Y0022415D01*
X0196216Y0022983D01*
X0195649Y0023550D01*
X0193948Y0023550D01*
X0192533Y0022983D02*
X0192533Y0021848D01*
X0191966Y0021281D01*
X0190264Y0021281D01*
X0190264Y0020714D02*
X0190264Y0023550D01*
X0191966Y0023550D01*
X0192533Y0022983D01*
X0191399Y0020147D02*
X0190832Y0020147D01*
X0190264Y0020714D01*
X0188850Y0023550D02*
X0188283Y0023550D01*
X0208587Y0021848D02*
X0209154Y0021848D01*
X0209154Y0021281D01*
X0208587Y0021281D01*
X0208587Y0021848D01*
X0208587Y0021281D02*
X0209721Y0020147D01*
X0211042Y0021281D02*
X0212176Y0021281D01*
X0211609Y0021281D02*
X0211609Y0023550D01*
X0212176Y0023550D01*
X0211609Y0024684D02*
X0211609Y0025251D01*
X0213591Y0022983D02*
X0213591Y0021281D01*
X0213591Y0022983D02*
X0214158Y0023550D01*
X0215860Y0023550D01*
X0215860Y0021281D01*
X0217274Y0022415D02*
X0219543Y0022415D01*
X0219543Y0021848D02*
X0219543Y0022983D01*
X0218976Y0023550D01*
X0217841Y0023550D01*
X0217274Y0022983D01*
X0217274Y0022415D01*
X0217841Y0021281D02*
X0218976Y0021281D01*
X0219543Y0021848D01*
X0220957Y0021281D02*
X0220957Y0022983D01*
X0221524Y0023550D01*
X0222092Y0022983D01*
X0222092Y0021281D01*
X0223226Y0021281D02*
X0223226Y0023550D01*
X0222659Y0023550D01*
X0222092Y0022983D01*
X0224640Y0022983D02*
X0225208Y0023550D01*
X0226342Y0023550D01*
X0226909Y0022983D01*
X0226909Y0021848D01*
X0226342Y0021281D01*
X0225208Y0021281D01*
X0224640Y0021848D01*
X0224640Y0022983D01*
X0228324Y0024684D02*
X0228324Y0021281D01*
X0230592Y0021281D02*
X0230592Y0024684D01*
X0229458Y0023550D01*
X0228324Y0024684D01*
X0236164Y0024684D02*
X0236164Y0025251D01*
X0236164Y0023550D02*
X0236164Y0021281D01*
X0236731Y0021281D02*
X0235596Y0021281D01*
X0236164Y0023550D02*
X0236731Y0023550D01*
X0238619Y0024684D02*
X0238619Y0021281D01*
X0239186Y0021281D02*
X0238052Y0021281D01*
X0240601Y0021281D02*
X0240601Y0023550D01*
X0241735Y0024684D01*
X0242869Y0023550D01*
X0242869Y0021281D01*
X0242869Y0022983D02*
X0240601Y0022983D01*
X0239186Y0024684D02*
X0238619Y0024684D01*
X0247967Y0024684D02*
X0247967Y0024117D01*
X0250236Y0021848D01*
X0250236Y0021281D01*
X0251650Y0021281D02*
X0253919Y0021281D01*
X0252784Y0021281D02*
X0252784Y0024684D01*
X0253919Y0023550D01*
X0255333Y0024117D02*
X0255900Y0024684D01*
X0257035Y0024684D01*
X0257602Y0024117D01*
X0257602Y0021848D01*
X0255333Y0024117D01*
X0255333Y0021848D01*
X0255900Y0021281D01*
X0257035Y0021281D01*
X0257602Y0021848D01*
X0259016Y0021281D02*
X0261285Y0021281D01*
X0259016Y0023550D01*
X0259016Y0024117D01*
X0259584Y0024684D01*
X0260718Y0024684D01*
X0261285Y0024117D01*
X0250236Y0024684D02*
X0247967Y0024684D01*
X0299255Y0019145D02*
X0299822Y0019713D01*
X0300957Y0019713D01*
X0301524Y0019145D01*
X0301524Y0018578D01*
X0300957Y0018011D01*
X0299822Y0018011D01*
X0299255Y0017444D01*
X0299255Y0016877D01*
X0299822Y0016310D01*
X0300957Y0016310D01*
X0301524Y0016877D01*
X0302938Y0016310D02*
X0305207Y0016310D01*
X0304073Y0016310D02*
X0304073Y0019713D01*
X0306621Y0019713D02*
X0306621Y0016310D01*
X0308323Y0016310D01*
X0308890Y0016877D01*
X0308890Y0018011D01*
X0308323Y0018578D01*
X0306621Y0018578D01*
X0307756Y0018578D02*
X0308890Y0019713D01*
X0310305Y0019713D02*
X0311439Y0019713D01*
X0310872Y0019713D02*
X0310872Y0016310D01*
X0310305Y0016310D02*
X0311439Y0016310D01*
X0312760Y0016310D02*
X0314461Y0016310D01*
X0315029Y0016877D01*
X0315029Y0018011D01*
X0314461Y0018578D01*
X0312760Y0018578D01*
X0312760Y0019713D02*
X0312760Y0016310D01*
X0316443Y0017444D02*
X0317577Y0016310D01*
X0317577Y0019713D01*
X0316443Y0019713D02*
X0318712Y0019713D01*
D12*
X0040703Y0022954D02*
X0040703Y0058387D01*
X0120231Y0058387D01*
X0120231Y0057993D02*
X0120231Y0022954D01*
X0089128Y0022954D01*
X0089128Y0028859D01*
X0071806Y0028859D01*
X0071806Y0022954D01*
X0089128Y0022954D01*
X0097967Y0029745D02*
X0102967Y0029745D01*
X0071806Y0022954D02*
X0040703Y0022954D01*
X0016550Y0059910D02*
X0011550Y0059910D01*
X0009050Y0062410D01*
X0009050Y0067410D01*
X0011550Y0069910D01*
X0009050Y0072410D01*
X0009050Y0077410D01*
X0011550Y0079910D01*
X0009050Y0082410D01*
X0009050Y0087410D01*
X0011550Y0089910D01*
X0016550Y0089910D01*
X0019050Y0087410D01*
X0019050Y0082410D01*
X0016550Y0079910D01*
X0019050Y0077410D01*
X0019050Y0072410D01*
X0016550Y0069910D01*
X0019050Y0067410D01*
X0019050Y0062410D01*
X0016550Y0059910D01*
X0016424Y0089973D02*
X0011424Y0089973D01*
X0008924Y0092473D01*
X0008924Y0097473D01*
X0011424Y0099973D01*
X0008924Y0102473D01*
X0008924Y0107473D01*
X0011424Y0109973D01*
X0008924Y0112473D01*
X0008924Y0117473D01*
X0011424Y0119973D01*
X0016424Y0119973D01*
X0018924Y0117473D01*
X0018924Y0112473D01*
X0016424Y0109973D01*
X0018924Y0107473D01*
X0018924Y0102473D01*
X0016424Y0099973D01*
X0018924Y0097473D01*
X0018924Y0092473D01*
X0016424Y0089973D01*
X0015294Y0138509D02*
X0010294Y0138509D01*
X0007794Y0141009D01*
X0007794Y0146009D01*
X0010294Y0148509D01*
X0007794Y0151009D01*
X0007794Y0156009D01*
X0010294Y0158509D01*
X0007794Y0161009D01*
X0007794Y0166009D01*
X0010294Y0168509D01*
X0007794Y0171009D01*
X0007794Y0176009D01*
X0010294Y0178509D01*
X0007794Y0181009D01*
X0007794Y0186009D01*
X0010294Y0188509D01*
X0015294Y0188509D01*
X0017794Y0186009D01*
X0017794Y0181009D01*
X0015294Y0178509D01*
X0017794Y0176009D01*
X0017794Y0171009D01*
X0015294Y0168509D01*
X0017794Y0166009D01*
X0017794Y0161009D01*
X0015294Y0158509D01*
X0017794Y0156009D01*
X0017794Y0151009D01*
X0015294Y0148509D01*
X0017794Y0146009D01*
X0017794Y0141009D01*
X0015294Y0138509D01*
X0036766Y0184331D02*
X0036766Y0219765D01*
X0116294Y0219765D01*
X0116294Y0219371D02*
X0116294Y0184331D01*
X0085191Y0184331D01*
X0085191Y0190237D01*
X0067869Y0190237D01*
X0067869Y0184331D01*
X0085191Y0184331D01*
X0094030Y0191123D02*
X0099030Y0191123D01*
X0067869Y0184331D02*
X0036766Y0184331D01*
X0015557Y0206820D02*
X0018057Y0209320D01*
X0018057Y0214320D01*
X0015557Y0216820D01*
X0018057Y0219320D01*
X0018057Y0224320D01*
X0015557Y0226820D01*
X0018057Y0229320D01*
X0018057Y0234320D01*
X0015557Y0236820D01*
X0010557Y0236820D01*
X0008057Y0234320D01*
X0008057Y0229320D01*
X0010557Y0226820D01*
X0008057Y0224320D01*
X0008057Y0219320D01*
X0010557Y0216820D01*
X0008057Y0214320D01*
X0008057Y0209320D01*
X0010557Y0206820D01*
X0015557Y0206820D01*
X0015380Y0236891D02*
X0010380Y0236891D01*
X0007880Y0239391D01*
X0007880Y0244391D01*
X0010380Y0246891D01*
X0007880Y0249391D01*
X0007880Y0254391D01*
X0010380Y0256891D01*
X0007880Y0259391D01*
X0007880Y0264391D01*
X0010380Y0266891D01*
X0015380Y0266891D01*
X0017880Y0264391D01*
X0017880Y0259391D01*
X0015380Y0256891D01*
X0017880Y0254391D01*
X0017880Y0249391D01*
X0015380Y0246891D01*
X0017880Y0244391D01*
X0017880Y0239391D01*
X0015380Y0236891D01*
X0037514Y0263111D02*
X0037514Y0298544D01*
X0117042Y0298544D01*
X0117042Y0298150D02*
X0117042Y0263111D01*
X0085939Y0263111D01*
X0085939Y0269017D01*
X0068617Y0269017D01*
X0068617Y0263111D01*
X0085939Y0263111D01*
X0094778Y0269902D02*
X0099778Y0269902D01*
X0068617Y0263111D02*
X0037514Y0263111D01*
X0017329Y0278131D02*
X0017329Y0283131D01*
X0014829Y0285631D01*
X0017329Y0288131D01*
X0017329Y0293131D01*
X0014829Y0295631D01*
X0017329Y0298131D01*
X0017329Y0303131D01*
X0014829Y0305631D01*
X0009829Y0305631D01*
X0007329Y0303131D01*
X0007329Y0298131D01*
X0009829Y0295631D01*
X0007329Y0293131D01*
X0007329Y0288131D01*
X0009829Y0285631D01*
X0007329Y0283131D01*
X0007329Y0278131D01*
X0009829Y0275631D01*
X0014829Y0275631D01*
X0017329Y0278131D01*
X0015026Y0305800D02*
X0010026Y0305800D01*
X0007526Y0308300D01*
X0007526Y0313300D01*
X0010026Y0315800D01*
X0007526Y0318300D01*
X0007526Y0323300D01*
X0010026Y0325800D01*
X0007526Y0328300D01*
X0007526Y0333300D01*
X0010026Y0335800D01*
X0015026Y0335800D01*
X0017526Y0333300D01*
X0017526Y0328300D01*
X0015026Y0325800D01*
X0017526Y0323300D01*
X0017526Y0318300D01*
X0015026Y0315800D01*
X0017526Y0313300D01*
X0017526Y0308300D01*
X0015026Y0305800D01*
X0051900Y0377477D02*
X0049400Y0379977D01*
X0049400Y0384977D01*
X0051900Y0387477D01*
X0056900Y0387477D01*
X0059400Y0384977D01*
X0061900Y0387477D01*
X0066900Y0387477D01*
X0069400Y0384977D01*
X0069400Y0379977D01*
X0066900Y0377477D01*
X0061900Y0377477D01*
X0059400Y0379977D01*
X0056900Y0377477D01*
X0051900Y0377477D01*
X0086609Y0389883D02*
X0086609Y0346969D01*
X0094089Y0346969D01*
X0113774Y0346969D02*
X0122042Y0346969D01*
X0122042Y0351300D01*
X0122042Y0369804D02*
X0122042Y0389883D01*
X0086609Y0389883D01*
X0221569Y0389883D02*
X0221569Y0346969D01*
X0229050Y0346969D01*
X0248735Y0346969D02*
X0257002Y0346969D01*
X0257002Y0351300D01*
X0257002Y0369804D02*
X0257002Y0389883D01*
X0221569Y0389883D01*
X0321077Y0389883D02*
X0321077Y0346969D01*
X0328557Y0346969D01*
X0348243Y0346969D02*
X0356510Y0346969D01*
X0356510Y0351300D01*
X0356510Y0369804D02*
X0356510Y0389883D01*
X0321077Y0389883D01*
X0378660Y0351603D02*
X0378660Y0346603D01*
X0381160Y0344103D01*
X0378660Y0341603D01*
X0378660Y0336603D01*
X0381160Y0334103D01*
X0378660Y0331603D01*
X0378660Y0326603D01*
X0381160Y0324103D01*
X0386160Y0324103D01*
X0388660Y0326603D01*
X0388660Y0331603D01*
X0386160Y0334103D01*
X0388660Y0336603D01*
X0388660Y0341603D01*
X0386160Y0344103D01*
X0388660Y0346603D01*
X0388660Y0351603D01*
X0386160Y0354103D01*
X0381160Y0354103D01*
X0378660Y0351603D01*
X0381117Y0324131D02*
X0386117Y0324131D01*
X0388617Y0321631D01*
X0388617Y0316631D01*
X0386117Y0314131D01*
X0388617Y0311631D01*
X0388617Y0306631D01*
X0386117Y0304131D01*
X0388617Y0301631D01*
X0388617Y0296631D01*
X0386117Y0294131D01*
X0381117Y0294131D01*
X0378617Y0296631D01*
X0378617Y0301631D01*
X0381117Y0304131D01*
X0378617Y0306631D01*
X0378617Y0311631D01*
X0381117Y0314131D01*
X0378617Y0316631D01*
X0378617Y0321631D01*
X0381117Y0324131D01*
X0381180Y0290182D02*
X0386180Y0290182D01*
X0388680Y0287682D01*
X0388680Y0282682D01*
X0386180Y0280182D01*
X0388680Y0277682D01*
X0388680Y0272682D01*
X0386180Y0270182D01*
X0388680Y0267682D01*
X0388680Y0262682D01*
X0386180Y0260182D01*
X0381180Y0260182D01*
X0378680Y0262682D01*
X0378680Y0267682D01*
X0381180Y0270182D01*
X0378680Y0272682D01*
X0378680Y0277682D01*
X0381180Y0280182D01*
X0378680Y0282682D01*
X0378680Y0287682D01*
X0381180Y0290182D01*
X0360388Y0271186D02*
X0280861Y0271186D01*
X0280861Y0235753D01*
X0311963Y0235753D01*
X0311963Y0241658D01*
X0329286Y0241658D01*
X0329286Y0235753D01*
X0360388Y0235753D01*
X0360388Y0270792D01*
X0378782Y0257702D02*
X0378782Y0252702D01*
X0381282Y0250202D01*
X0378782Y0247702D01*
X0378782Y0242702D01*
X0381282Y0240202D01*
X0378782Y0237702D01*
X0378782Y0232702D01*
X0381282Y0230202D01*
X0386282Y0230202D01*
X0388782Y0232702D01*
X0388782Y0237702D01*
X0386282Y0240202D01*
X0388782Y0242702D01*
X0388782Y0247702D01*
X0386282Y0250202D01*
X0388782Y0252702D01*
X0388782Y0257702D01*
X0386282Y0260202D01*
X0381282Y0260202D01*
X0378782Y0257702D01*
X0381353Y0226190D02*
X0386353Y0226190D01*
X0388853Y0223690D01*
X0388853Y0218690D01*
X0386353Y0216190D01*
X0388853Y0213690D01*
X0388853Y0208690D01*
X0386353Y0206190D01*
X0388853Y0203690D01*
X0388853Y0198690D01*
X0386353Y0196190D01*
X0381353Y0196190D01*
X0378853Y0198690D01*
X0378853Y0203690D01*
X0381353Y0206190D01*
X0378853Y0208690D01*
X0378853Y0213690D01*
X0381353Y0216190D01*
X0378853Y0218690D01*
X0378853Y0223690D01*
X0381353Y0226190D01*
X0360388Y0219646D02*
X0280861Y0219646D01*
X0280861Y0184213D01*
X0311963Y0184213D01*
X0311963Y0190119D01*
X0329286Y0190119D01*
X0329286Y0184213D01*
X0360388Y0184213D01*
X0360388Y0219253D01*
X0381431Y0196221D02*
X0386431Y0196221D01*
X0388931Y0193721D01*
X0388931Y0188721D01*
X0386431Y0186221D01*
X0388931Y0183721D01*
X0388931Y0178721D01*
X0386431Y0176221D01*
X0388931Y0173721D01*
X0388931Y0168721D01*
X0386431Y0166221D01*
X0381431Y0166221D01*
X0378931Y0168721D01*
X0378931Y0173721D01*
X0381431Y0176221D01*
X0378931Y0178721D01*
X0378931Y0183721D01*
X0381431Y0186221D01*
X0378931Y0188721D01*
X0378931Y0193721D01*
X0381431Y0196221D01*
X0360388Y0168662D02*
X0280861Y0168662D01*
X0280861Y0133229D01*
X0311963Y0133229D01*
X0311963Y0139135D01*
X0329286Y0139135D01*
X0329286Y0133229D01*
X0360388Y0133229D01*
X0360388Y0168269D01*
X0378869Y0160001D02*
X0378869Y0155001D01*
X0381369Y0152501D01*
X0378869Y0150001D01*
X0378869Y0145001D01*
X0381369Y0142501D01*
X0378869Y0140001D01*
X0378869Y0135001D01*
X0381369Y0132501D01*
X0378869Y0130001D01*
X0378869Y0125001D01*
X0381369Y0122501D01*
X0378869Y0120001D01*
X0378869Y0115001D01*
X0381369Y0112501D01*
X0386369Y0112501D01*
X0388869Y0115001D01*
X0388869Y0120001D01*
X0386369Y0122501D01*
X0388869Y0125001D01*
X0388869Y0130001D01*
X0386369Y0132501D01*
X0388869Y0135001D01*
X0388869Y0140001D01*
X0386369Y0142501D01*
X0388869Y0145001D01*
X0388869Y0150001D01*
X0386369Y0152501D01*
X0388869Y0155001D01*
X0388869Y0160001D01*
X0386369Y0162501D01*
X0381369Y0162501D01*
X0378869Y0160001D01*
X0390722Y0135273D02*
X0390722Y0134206D01*
X0390722Y0134740D02*
X0393391Y0134740D01*
X0393925Y0135273D01*
X0393925Y0135807D01*
X0393391Y0136341D01*
X0393391Y0132658D02*
X0393925Y0132124D01*
X0393925Y0131056D01*
X0393391Y0130523D01*
X0391256Y0130523D01*
X0390722Y0131056D01*
X0390722Y0132124D01*
X0391256Y0132658D01*
X0393391Y0132658D01*
X0391256Y0128975D02*
X0392324Y0127907D01*
X0393925Y0127907D01*
X0392324Y0127907D02*
X0391256Y0126840D01*
X0390722Y0126840D01*
X0391256Y0125292D02*
X0390722Y0124758D01*
X0390722Y0123690D01*
X0391256Y0123156D01*
X0391790Y0123156D01*
X0393925Y0125292D01*
X0393925Y0123156D01*
X0391256Y0128975D02*
X0390722Y0128975D01*
X0386514Y0108485D02*
X0381514Y0108485D01*
X0379014Y0105985D01*
X0379014Y0100985D01*
X0381514Y0098485D01*
X0379014Y0095985D01*
X0379014Y0090985D01*
X0381514Y0088485D01*
X0379014Y0085985D01*
X0379014Y0080985D01*
X0381514Y0078485D01*
X0386514Y0078485D01*
X0389014Y0080985D01*
X0389014Y0085985D01*
X0386514Y0088485D01*
X0389014Y0090985D01*
X0389014Y0095985D01*
X0386514Y0098485D01*
X0389014Y0100985D01*
X0389014Y0105985D01*
X0386514Y0108485D01*
X0386424Y0078434D02*
X0381424Y0078434D01*
X0378924Y0075934D01*
X0378924Y0070934D01*
X0381424Y0068434D01*
X0378924Y0065934D01*
X0378924Y0060934D01*
X0381424Y0058434D01*
X0378924Y0055934D01*
X0378924Y0050934D01*
X0381424Y0048434D01*
X0386424Y0048434D01*
X0388924Y0050934D01*
X0388924Y0055934D01*
X0386424Y0058434D01*
X0388924Y0060934D01*
X0388924Y0065934D01*
X0386424Y0068434D01*
X0388924Y0070934D01*
X0388924Y0075934D01*
X0386424Y0078434D01*
X0348577Y0058387D02*
X0269050Y0058387D01*
X0269050Y0022954D01*
X0300152Y0022954D01*
X0300152Y0028859D01*
X0317475Y0028859D01*
X0317475Y0022954D01*
X0348577Y0022954D01*
X0348577Y0057993D01*
X0331313Y0029745D02*
X0326313Y0029745D01*
X0317475Y0022954D02*
X0300152Y0022954D01*
X0311963Y0133229D02*
X0329286Y0133229D01*
X0338124Y0140020D02*
X0343124Y0140020D01*
X0329286Y0184213D02*
X0311963Y0184213D01*
X0338124Y0191005D02*
X0343124Y0191005D01*
X0329286Y0235753D02*
X0311963Y0235753D01*
X0338124Y0242544D02*
X0343124Y0242544D01*
D13*
X0374807Y0242604D02*
X0374807Y0241425D01*
X0375200Y0241032D01*
X0376772Y0241032D01*
X0377165Y0241425D01*
X0377165Y0242604D01*
X0374807Y0242604D01*
X0374807Y0243569D02*
X0377165Y0243569D01*
X0374807Y0245141D01*
X0377165Y0245141D01*
X0376772Y0246107D02*
X0375986Y0246107D01*
X0375986Y0246893D01*
X0376772Y0247679D02*
X0377165Y0247286D01*
X0377165Y0246500D01*
X0376772Y0246107D01*
X0376772Y0247679D02*
X0375200Y0247679D01*
X0374807Y0247286D01*
X0374807Y0246500D01*
X0375200Y0246107D01*
X0374649Y0251819D02*
X0374649Y0253391D01*
X0375828Y0253391D01*
X0375435Y0252605D01*
X0375435Y0252212D01*
X0375828Y0251819D01*
X0376614Y0251819D01*
X0377007Y0252212D01*
X0377007Y0252998D01*
X0376614Y0253391D01*
X0377007Y0254357D02*
X0374649Y0254357D01*
X0374649Y0255929D02*
X0377007Y0254357D01*
X0377007Y0255929D02*
X0374649Y0255929D01*
X0375435Y0256894D02*
X0377007Y0256894D01*
X0375828Y0256894D02*
X0375828Y0258466D01*
X0375435Y0258466D02*
X0374649Y0257680D01*
X0375435Y0256894D01*
X0375435Y0258466D02*
X0377007Y0258466D01*
X0376496Y0261606D02*
X0376889Y0261999D01*
X0376889Y0262785D01*
X0376496Y0263178D01*
X0374924Y0263178D01*
X0374531Y0262785D01*
X0374531Y0261999D01*
X0374924Y0261606D01*
X0374924Y0264144D02*
X0374531Y0264537D01*
X0374531Y0265323D01*
X0374924Y0265716D01*
X0376496Y0265716D01*
X0376889Y0265323D01*
X0376889Y0264537D01*
X0376496Y0264144D01*
X0376103Y0266682D02*
X0374531Y0266682D01*
X0374531Y0268254D02*
X0376103Y0268254D01*
X0376889Y0267468D01*
X0376103Y0266682D01*
X0376500Y0271390D02*
X0374928Y0271390D01*
X0374535Y0271783D01*
X0374535Y0272962D01*
X0376893Y0272962D01*
X0376893Y0271783D01*
X0376500Y0271390D01*
X0376893Y0273927D02*
X0374535Y0273927D01*
X0374535Y0275499D02*
X0376893Y0273927D01*
X0376893Y0275499D02*
X0374535Y0275499D01*
X0374928Y0276465D02*
X0374535Y0276858D01*
X0374535Y0277644D01*
X0374928Y0278037D01*
X0376500Y0278037D01*
X0376893Y0277644D01*
X0376893Y0276858D01*
X0376500Y0276465D01*
X0375714Y0276465D01*
X0375714Y0277251D01*
X0376343Y0281776D02*
X0375950Y0282169D01*
X0375950Y0283348D01*
X0376736Y0283348D01*
X0377129Y0282955D01*
X0377129Y0282169D01*
X0376736Y0281776D01*
X0376343Y0281776D01*
X0375164Y0282562D02*
X0375950Y0283348D01*
X0375164Y0282562D02*
X0374771Y0281776D01*
X0374771Y0284313D02*
X0377129Y0284313D01*
X0374771Y0285885D01*
X0377129Y0285885D01*
X0377129Y0286851D02*
X0375557Y0286851D01*
X0374771Y0287637D01*
X0375557Y0288423D01*
X0377129Y0288423D01*
X0375950Y0288423D02*
X0375950Y0286851D01*
X0376728Y0295425D02*
X0377121Y0295818D01*
X0377121Y0296604D01*
X0376728Y0296997D01*
X0375156Y0296997D01*
X0374763Y0296604D01*
X0374763Y0295818D01*
X0375156Y0295425D01*
X0375156Y0297963D02*
X0374763Y0298356D01*
X0374763Y0299142D01*
X0375156Y0299535D01*
X0376728Y0299535D01*
X0377121Y0299142D01*
X0377121Y0298356D01*
X0376728Y0297963D01*
X0376335Y0300501D02*
X0374763Y0300501D01*
X0374763Y0302072D02*
X0376335Y0302072D01*
X0377121Y0301286D01*
X0376335Y0300501D01*
X0376484Y0304886D02*
X0374912Y0304886D01*
X0374519Y0305279D01*
X0374519Y0306458D01*
X0376877Y0306458D01*
X0376877Y0305279D01*
X0376484Y0304886D01*
X0376877Y0307424D02*
X0374519Y0307424D01*
X0374519Y0308995D02*
X0376877Y0307424D01*
X0376877Y0308995D02*
X0374519Y0308995D01*
X0374912Y0309961D02*
X0374519Y0310354D01*
X0374519Y0311140D01*
X0374912Y0311533D01*
X0376484Y0311533D01*
X0376877Y0311140D01*
X0376877Y0310354D01*
X0376484Y0309961D01*
X0375698Y0309961D01*
X0375698Y0310747D01*
X0375082Y0315469D02*
X0376653Y0317041D01*
X0377046Y0317041D01*
X0377046Y0318006D02*
X0374689Y0318006D01*
X0374689Y0317041D02*
X0374689Y0315469D01*
X0375082Y0315469D01*
X0377046Y0318006D02*
X0374689Y0319578D01*
X0377046Y0319578D01*
X0377046Y0320544D02*
X0375475Y0320544D01*
X0374689Y0321330D01*
X0375475Y0322116D01*
X0377046Y0322116D01*
X0375868Y0322116D02*
X0375868Y0320544D01*
X0375251Y0325173D02*
X0374858Y0325566D01*
X0374858Y0326352D01*
X0375251Y0326745D01*
X0376823Y0326745D01*
X0377216Y0326352D01*
X0377216Y0325566D01*
X0376823Y0325173D01*
X0376823Y0327711D02*
X0377216Y0328104D01*
X0377216Y0328890D01*
X0376823Y0329283D01*
X0375251Y0329283D01*
X0374858Y0328890D01*
X0374858Y0328104D01*
X0375251Y0327711D01*
X0374858Y0330249D02*
X0376430Y0330249D01*
X0377216Y0331035D01*
X0376430Y0331820D01*
X0374858Y0331820D01*
X0375137Y0334772D02*
X0374744Y0335165D01*
X0374744Y0336344D01*
X0377102Y0336344D01*
X0377102Y0335165D01*
X0376709Y0334772D01*
X0375137Y0334772D01*
X0374744Y0337309D02*
X0377102Y0337309D01*
X0374744Y0338881D01*
X0377102Y0338881D01*
X0376709Y0339847D02*
X0375923Y0339847D01*
X0375923Y0340633D01*
X0376709Y0341419D02*
X0377102Y0341026D01*
X0377102Y0340240D01*
X0376709Y0339847D01*
X0376709Y0341419D02*
X0375137Y0341419D01*
X0374744Y0341026D01*
X0374744Y0340240D01*
X0375137Y0339847D01*
X0375223Y0345272D02*
X0375616Y0345272D01*
X0376009Y0345665D01*
X0376009Y0346451D01*
X0375616Y0346844D01*
X0375223Y0346844D01*
X0374830Y0346451D01*
X0374830Y0345665D01*
X0375223Y0345272D01*
X0376009Y0345665D02*
X0376402Y0345272D01*
X0376795Y0345272D01*
X0377188Y0345665D01*
X0377188Y0346451D01*
X0376795Y0346844D01*
X0376402Y0346844D01*
X0376009Y0346451D01*
X0377188Y0347809D02*
X0374830Y0347809D01*
X0374830Y0349381D02*
X0377188Y0347809D01*
X0377188Y0349381D02*
X0374830Y0349381D01*
X0375616Y0350347D02*
X0377188Y0350347D01*
X0376009Y0350347D02*
X0376009Y0351919D01*
X0375616Y0351919D02*
X0374830Y0351133D01*
X0375616Y0350347D01*
X0375616Y0351919D02*
X0377188Y0351919D01*
X0376497Y0238238D02*
X0377283Y0237452D01*
X0376497Y0236666D01*
X0374925Y0236666D01*
X0375318Y0235700D02*
X0376890Y0235700D01*
X0377283Y0235307D01*
X0377283Y0234521D01*
X0376890Y0234128D01*
X0376890Y0233163D02*
X0377283Y0232770D01*
X0377283Y0231984D01*
X0376890Y0231591D01*
X0376890Y0233163D02*
X0375318Y0233163D01*
X0374925Y0232770D01*
X0374925Y0231984D01*
X0375318Y0231591D01*
X0375318Y0234128D02*
X0374925Y0234521D01*
X0374925Y0235307D01*
X0375318Y0235700D01*
X0374925Y0238238D02*
X0376497Y0238238D01*
X0376084Y0224202D02*
X0376084Y0222630D01*
X0375691Y0222630D02*
X0377263Y0222630D01*
X0377263Y0221665D02*
X0374905Y0221665D01*
X0377263Y0220093D01*
X0374905Y0220093D01*
X0376084Y0219127D02*
X0376084Y0217555D01*
X0374905Y0217948D02*
X0376084Y0219127D01*
X0377263Y0217948D02*
X0374905Y0217948D01*
X0375298Y0214155D02*
X0376870Y0214155D01*
X0377263Y0213762D01*
X0377263Y0212976D01*
X0376870Y0212583D01*
X0376084Y0212583D01*
X0376084Y0213369D01*
X0375298Y0212583D02*
X0374905Y0212976D01*
X0374905Y0213762D01*
X0375298Y0214155D01*
X0374905Y0211618D02*
X0377263Y0210046D01*
X0374905Y0210046D01*
X0374905Y0209080D02*
X0374905Y0207901D01*
X0375298Y0207508D01*
X0376870Y0207508D01*
X0377263Y0207901D01*
X0377263Y0209080D01*
X0374905Y0209080D01*
X0374905Y0211618D02*
X0377263Y0211618D01*
X0376477Y0203628D02*
X0377263Y0202842D01*
X0376477Y0202056D01*
X0374905Y0202056D01*
X0375298Y0201090D02*
X0376870Y0201090D01*
X0377263Y0200697D01*
X0377263Y0199911D01*
X0376870Y0199518D01*
X0376870Y0198552D02*
X0377263Y0198159D01*
X0377263Y0197373D01*
X0376870Y0196980D01*
X0375298Y0196980D02*
X0374905Y0197373D01*
X0374905Y0198159D01*
X0375298Y0198552D01*
X0376870Y0198552D01*
X0375298Y0199518D02*
X0374905Y0199911D01*
X0374905Y0200697D01*
X0375298Y0201090D01*
X0374905Y0203628D02*
X0376477Y0203628D01*
X0377019Y0194722D02*
X0375447Y0194722D01*
X0374661Y0193936D01*
X0375447Y0193150D01*
X0377019Y0193150D01*
X0377019Y0192184D02*
X0374661Y0192184D01*
X0377019Y0190613D01*
X0374661Y0190613D01*
X0375054Y0189647D02*
X0374661Y0189254D01*
X0374661Y0188468D01*
X0375054Y0188075D01*
X0375447Y0188075D01*
X0375840Y0188468D01*
X0376233Y0188075D01*
X0376626Y0188075D01*
X0377019Y0188468D01*
X0377019Y0189254D01*
X0376626Y0189647D01*
X0375840Y0188861D02*
X0375840Y0188468D01*
X0376465Y0184998D02*
X0376857Y0184605D01*
X0376857Y0183819D01*
X0376465Y0183426D01*
X0375679Y0183426D01*
X0375679Y0184212D01*
X0374893Y0184998D02*
X0376465Y0184998D01*
X0374893Y0184998D02*
X0374500Y0184605D01*
X0374500Y0183819D01*
X0374893Y0183426D01*
X0374500Y0182460D02*
X0376857Y0180888D01*
X0374500Y0180888D01*
X0374500Y0179922D02*
X0374500Y0178743D01*
X0374893Y0178351D01*
X0376465Y0178351D01*
X0376857Y0178743D01*
X0376857Y0179922D01*
X0374500Y0179922D01*
X0374500Y0182460D02*
X0376857Y0182460D01*
X0376194Y0175214D02*
X0376980Y0174428D01*
X0376194Y0173642D01*
X0374622Y0173642D01*
X0375015Y0172677D02*
X0376587Y0172677D01*
X0376980Y0172284D01*
X0376980Y0171498D01*
X0376587Y0171105D01*
X0376587Y0170139D02*
X0376980Y0169746D01*
X0376980Y0168960D01*
X0376587Y0168567D01*
X0376587Y0170139D02*
X0375015Y0170139D01*
X0374622Y0169746D01*
X0374622Y0168960D01*
X0375015Y0168567D01*
X0375015Y0171105D02*
X0374622Y0171498D01*
X0374622Y0172284D01*
X0375015Y0172677D01*
X0374622Y0175214D02*
X0376194Y0175214D01*
X0375718Y0157919D02*
X0375718Y0156740D01*
X0376111Y0156347D01*
X0376504Y0156347D01*
X0376897Y0156740D01*
X0376897Y0157919D01*
X0374539Y0157919D01*
X0374539Y0156740D01*
X0374932Y0156347D01*
X0375325Y0156347D01*
X0375718Y0156740D01*
X0375906Y0147789D02*
X0376692Y0147003D01*
X0375906Y0146217D01*
X0374334Y0146217D01*
X0374334Y0147789D02*
X0375906Y0147789D01*
X0375497Y0137817D02*
X0375497Y0136245D01*
X0374318Y0136245D02*
X0376676Y0136245D01*
X0376676Y0137817D02*
X0374318Y0137817D01*
X0374837Y0131234D02*
X0376409Y0131234D01*
X0376802Y0130841D01*
X0376802Y0130055D01*
X0376409Y0129662D01*
X0375623Y0129662D01*
X0375623Y0130448D01*
X0374837Y0131234D02*
X0374444Y0130841D01*
X0374444Y0130055D01*
X0374837Y0129662D01*
X0374444Y0128696D02*
X0376802Y0127124D01*
X0374444Y0127124D01*
X0374444Y0126159D02*
X0374444Y0124980D01*
X0374837Y0124587D01*
X0376409Y0124587D01*
X0376802Y0124980D01*
X0376802Y0126159D01*
X0374444Y0126159D01*
X0374444Y0128696D02*
X0376802Y0128696D01*
X0376115Y0120458D02*
X0376901Y0119672D01*
X0376115Y0118886D01*
X0374543Y0118886D01*
X0374936Y0117921D02*
X0376508Y0117921D01*
X0376901Y0117528D01*
X0376901Y0116742D01*
X0376508Y0116349D01*
X0376508Y0115383D02*
X0376901Y0114990D01*
X0376901Y0114204D01*
X0376508Y0113811D01*
X0376508Y0115383D02*
X0374936Y0115383D01*
X0374543Y0114990D01*
X0374543Y0114204D01*
X0374936Y0113811D01*
X0374936Y0116349D02*
X0374543Y0116742D01*
X0374543Y0117528D01*
X0374936Y0117921D01*
X0374543Y0120458D02*
X0376115Y0120458D01*
X0376234Y0106506D02*
X0375448Y0105720D01*
X0376234Y0104934D01*
X0377806Y0104934D01*
X0377806Y0103968D02*
X0375448Y0103968D01*
X0377806Y0102396D01*
X0375448Y0102396D01*
X0375841Y0101430D02*
X0375448Y0101037D01*
X0375448Y0100251D01*
X0375841Y0099858D01*
X0376234Y0099858D01*
X0377806Y0101430D01*
X0377806Y0099858D01*
X0377043Y0096293D02*
X0377436Y0095900D01*
X0377436Y0095114D01*
X0377043Y0094721D01*
X0376257Y0094721D01*
X0376257Y0095507D01*
X0375471Y0096293D02*
X0377043Y0096293D01*
X0375471Y0096293D02*
X0375078Y0095900D01*
X0375078Y0095114D01*
X0375471Y0094721D01*
X0375078Y0093755D02*
X0377436Y0092183D01*
X0375078Y0092183D01*
X0375078Y0091218D02*
X0375078Y0090039D01*
X0375471Y0089646D01*
X0377043Y0089646D01*
X0377436Y0090039D01*
X0377436Y0091218D01*
X0375078Y0091218D01*
X0375078Y0093755D02*
X0377436Y0093755D01*
X0377020Y0086324D02*
X0377806Y0085538D01*
X0377020Y0084752D01*
X0375448Y0084752D01*
X0375841Y0083787D02*
X0377413Y0083787D01*
X0377806Y0083394D01*
X0377806Y0082608D01*
X0377413Y0082215D01*
X0377413Y0081249D02*
X0377806Y0080856D01*
X0377806Y0080070D01*
X0377413Y0079677D01*
X0375841Y0079677D02*
X0375448Y0080070D01*
X0375448Y0080856D01*
X0375841Y0081249D01*
X0377413Y0081249D01*
X0375841Y0082215D02*
X0375448Y0082608D01*
X0375448Y0083394D01*
X0375841Y0083787D01*
X0375448Y0086324D02*
X0377020Y0086324D01*
X0376655Y0076210D02*
X0376655Y0074638D01*
X0376262Y0074638D02*
X0377834Y0074638D01*
X0377834Y0073673D02*
X0375476Y0073673D01*
X0377834Y0072101D01*
X0375476Y0072101D01*
X0376262Y0071135D02*
X0375476Y0070349D01*
X0377834Y0070349D01*
X0377834Y0071135D02*
X0377834Y0069563D01*
X0377323Y0066486D02*
X0377716Y0066093D01*
X0377716Y0065307D01*
X0377323Y0064914D01*
X0376537Y0064914D01*
X0376537Y0065700D01*
X0375751Y0066486D02*
X0377323Y0066486D01*
X0375751Y0066486D02*
X0375358Y0066093D01*
X0375358Y0065307D01*
X0375751Y0064914D01*
X0375358Y0063948D02*
X0377716Y0062376D01*
X0375358Y0062376D01*
X0375358Y0061411D02*
X0375358Y0060232D01*
X0375751Y0059839D01*
X0377323Y0059839D01*
X0377716Y0060232D01*
X0377716Y0061411D01*
X0375358Y0061411D01*
X0375358Y0063948D02*
X0377716Y0063948D01*
X0376930Y0056765D02*
X0377716Y0055979D01*
X0376930Y0055193D01*
X0375358Y0055193D01*
X0375751Y0054228D02*
X0377323Y0054228D01*
X0377716Y0053835D01*
X0377716Y0053049D01*
X0377323Y0052656D01*
X0377323Y0051690D02*
X0377716Y0051297D01*
X0377716Y0050511D01*
X0377323Y0050118D01*
X0377323Y0051690D02*
X0375751Y0051690D01*
X0375358Y0051297D01*
X0375358Y0050511D01*
X0375751Y0050118D01*
X0375751Y0052656D02*
X0375358Y0053049D01*
X0375358Y0053835D01*
X0375751Y0054228D01*
X0375358Y0056765D02*
X0376930Y0056765D01*
X0376262Y0074638D02*
X0375476Y0075424D01*
X0376262Y0076210D01*
X0377834Y0076210D01*
X0376627Y0104934D02*
X0376627Y0106506D01*
X0376234Y0106506D02*
X0377806Y0106506D01*
X0375840Y0193150D02*
X0375840Y0194722D01*
X0375691Y0222630D02*
X0374905Y0223416D01*
X0375691Y0224202D01*
X0377263Y0224202D01*
X0248159Y0170816D02*
X0248159Y0169244D01*
X0246981Y0169244D01*
X0247374Y0170030D01*
X0247374Y0170423D01*
X0246981Y0170816D01*
X0246195Y0170816D01*
X0245802Y0170423D01*
X0245802Y0169637D01*
X0246195Y0169244D01*
X0246195Y0168278D02*
X0245802Y0167885D01*
X0245802Y0167099D01*
X0246195Y0166706D01*
X0246588Y0166706D01*
X0246981Y0167099D01*
X0246981Y0167885D01*
X0246588Y0168278D01*
X0246195Y0168278D01*
X0246981Y0167885D02*
X0247374Y0168278D01*
X0247766Y0168278D01*
X0248159Y0167885D01*
X0248159Y0167099D01*
X0247766Y0166706D01*
X0247374Y0166706D01*
X0246981Y0167099D01*
X0247766Y0165741D02*
X0248159Y0165741D01*
X0247766Y0165741D02*
X0246981Y0164955D01*
X0245802Y0164955D01*
X0246981Y0164955D02*
X0247766Y0164169D01*
X0248159Y0164169D01*
X0248159Y0163203D02*
X0245802Y0163203D01*
X0248159Y0161631D01*
X0245802Y0161631D01*
X0245802Y0160726D02*
X0245802Y0159940D01*
X0245802Y0160333D02*
X0248159Y0160333D01*
X0248159Y0159940D02*
X0248159Y0160726D01*
X0248159Y0158974D02*
X0248159Y0157402D01*
X0248159Y0158188D02*
X0245802Y0158188D01*
X0245802Y0155650D02*
X0248159Y0155650D01*
X0248159Y0154864D02*
X0248159Y0156436D01*
X0247374Y0153899D02*
X0245802Y0153899D01*
X0246981Y0153899D02*
X0246981Y0152327D01*
X0247374Y0152327D02*
X0248159Y0153113D01*
X0247374Y0153899D01*
X0247374Y0152327D02*
X0245802Y0152327D01*
X0171231Y0240987D02*
X0171231Y0244056D01*
X0171231Y0242522D02*
X0166628Y0242522D01*
X0167395Y0245591D02*
X0166628Y0246358D01*
X0166628Y0247893D01*
X0168162Y0248660D02*
X0168162Y0245591D01*
X0167395Y0245591D02*
X0168930Y0245591D01*
X0169697Y0246358D01*
X0169697Y0247893D01*
X0168930Y0248660D01*
X0168162Y0248660D01*
X0168162Y0250195D02*
X0168162Y0253264D01*
X0168930Y0253264D01*
X0169697Y0252497D01*
X0169697Y0250962D01*
X0168930Y0250195D01*
X0167395Y0250195D01*
X0166628Y0250962D01*
X0166628Y0252497D01*
X0166628Y0254799D02*
X0169697Y0254799D01*
X0169697Y0257101D01*
X0168930Y0257868D01*
X0166628Y0257868D01*
X0166628Y0259403D02*
X0166628Y0261705D01*
X0167395Y0262472D01*
X0168162Y0261705D01*
X0168162Y0260170D01*
X0168930Y0259403D01*
X0169697Y0260170D01*
X0169697Y0262472D01*
X0169697Y0264007D02*
X0167395Y0264007D01*
X0166628Y0264774D01*
X0166628Y0267076D01*
X0165860Y0267076D02*
X0165093Y0266309D01*
X0165093Y0265541D01*
X0165860Y0267076D02*
X0169697Y0267076D01*
X0170464Y0273215D02*
X0171231Y0273982D01*
X0171231Y0275516D01*
X0170464Y0276284D01*
X0169697Y0276284D01*
X0168930Y0275516D01*
X0168162Y0276284D01*
X0167395Y0276284D01*
X0166628Y0275516D01*
X0166628Y0273982D01*
X0167395Y0273215D01*
X0168930Y0274749D02*
X0168930Y0275516D01*
X0167395Y0277818D02*
X0166628Y0277818D01*
X0166628Y0278586D01*
X0167395Y0278586D01*
X0167395Y0277818D01*
X0167395Y0280120D02*
X0166628Y0280888D01*
X0166628Y0282422D01*
X0167395Y0283190D01*
X0168162Y0283190D01*
X0168930Y0282422D01*
X0168930Y0280120D01*
X0167395Y0280120D01*
X0168930Y0280120D02*
X0170464Y0281655D01*
X0171231Y0283190D01*
X0117680Y0175584D02*
X0117680Y0171748D01*
X0116913Y0170980D01*
X0115378Y0170980D01*
X0114611Y0171748D01*
X0114611Y0175584D01*
X0113076Y0174817D02*
X0112309Y0175584D01*
X0110774Y0175584D01*
X0110007Y0174817D01*
X0108472Y0174817D02*
X0107705Y0175584D01*
X0106171Y0175584D01*
X0105403Y0174817D01*
X0105403Y0174050D01*
X0108472Y0170980D01*
X0105403Y0170980D01*
X0110007Y0171748D02*
X0110007Y0172515D01*
X0110774Y0173282D01*
X0112309Y0173282D01*
X0113076Y0174050D01*
X0113076Y0174817D01*
X0111542Y0176352D02*
X0111542Y0170213D01*
X0112309Y0170980D02*
X0110774Y0170980D01*
X0110007Y0171748D01*
X0112309Y0170980D02*
X0113076Y0171748D01*
X0105417Y0163946D02*
X0106184Y0163178D01*
X0106184Y0161644D01*
X0105417Y0160876D01*
X0105417Y0159342D02*
X0104650Y0159342D01*
X0103882Y0158574D01*
X0103882Y0157040D01*
X0104650Y0156272D01*
X0105417Y0156272D01*
X0106184Y0157040D01*
X0106184Y0158574D01*
X0105417Y0159342D01*
X0103882Y0158574D02*
X0103115Y0159342D01*
X0102348Y0159342D01*
X0101580Y0158574D01*
X0101580Y0157040D01*
X0102348Y0156272D01*
X0103115Y0156272D01*
X0103882Y0157040D01*
X0103882Y0154738D02*
X0103882Y0152436D01*
X0104650Y0151668D01*
X0105417Y0151668D01*
X0106184Y0152436D01*
X0106184Y0153970D01*
X0105417Y0154738D01*
X0102348Y0154738D01*
X0101580Y0153970D01*
X0101580Y0152436D01*
X0102348Y0151668D01*
X0101580Y0150134D02*
X0101580Y0147065D01*
X0104650Y0150134D01*
X0105417Y0150134D01*
X0106184Y0149367D01*
X0106184Y0147832D01*
X0105417Y0147065D01*
X0104650Y0145530D02*
X0101580Y0145530D01*
X0103882Y0145530D02*
X0103882Y0142461D01*
X0104650Y0142461D02*
X0106184Y0143995D01*
X0104650Y0145530D01*
X0104650Y0142461D02*
X0101580Y0142461D01*
X0101580Y0160876D02*
X0104650Y0163946D01*
X0105417Y0163946D01*
X0101580Y0163946D02*
X0101580Y0160876D01*
X0022702Y0163191D02*
X0020344Y0163191D01*
X0021523Y0163191D02*
X0021523Y0164763D01*
X0022702Y0164763D02*
X0020344Y0164763D01*
X0020339Y0170844D02*
X0019946Y0171237D01*
X0019946Y0172023D01*
X0020339Y0172416D01*
X0021125Y0172416D01*
X0021125Y0171630D01*
X0021911Y0170844D02*
X0020339Y0170844D01*
X0021911Y0170844D02*
X0022304Y0171237D01*
X0022304Y0172023D01*
X0021911Y0172416D01*
X0022304Y0173381D02*
X0019946Y0174953D01*
X0022304Y0174953D01*
X0022304Y0175919D02*
X0022304Y0177098D01*
X0021911Y0177491D01*
X0020339Y0177491D01*
X0019946Y0177098D01*
X0019946Y0175919D01*
X0022304Y0175919D01*
X0022304Y0173381D02*
X0019946Y0173381D01*
X0020602Y0180954D02*
X0019817Y0181740D01*
X0020602Y0182526D01*
X0022174Y0182526D01*
X0021781Y0183492D02*
X0020210Y0183492D01*
X0019817Y0183885D01*
X0019817Y0184671D01*
X0020210Y0185064D01*
X0020210Y0186029D02*
X0019817Y0186422D01*
X0019817Y0187208D01*
X0020210Y0187601D01*
X0021781Y0187601D02*
X0022174Y0187208D01*
X0022174Y0186422D01*
X0021781Y0186029D01*
X0020210Y0186029D01*
X0021781Y0185064D02*
X0022174Y0184671D01*
X0022174Y0183885D01*
X0021781Y0183492D01*
X0022174Y0180954D02*
X0020602Y0180954D01*
X0020563Y0207276D02*
X0019777Y0208062D01*
X0020563Y0208848D01*
X0022135Y0208848D01*
X0021742Y0209813D02*
X0020170Y0209813D01*
X0019777Y0210206D01*
X0019777Y0210992D01*
X0020170Y0211385D01*
X0020170Y0212351D02*
X0019777Y0212744D01*
X0019777Y0213530D01*
X0020170Y0213923D01*
X0021742Y0213923D02*
X0022135Y0213530D01*
X0022135Y0212744D01*
X0021742Y0212351D01*
X0020170Y0212351D01*
X0021742Y0211385D02*
X0022135Y0210992D01*
X0022135Y0210206D01*
X0021742Y0209813D01*
X0022135Y0207276D02*
X0020563Y0207276D01*
X0019958Y0218374D02*
X0019565Y0218767D01*
X0019565Y0219553D01*
X0019958Y0219946D01*
X0020744Y0219946D01*
X0020744Y0219160D01*
X0021529Y0219946D02*
X0021922Y0219553D01*
X0021922Y0218767D01*
X0021529Y0218374D01*
X0019958Y0218374D01*
X0019565Y0220912D02*
X0021922Y0220912D01*
X0019565Y0222484D01*
X0021922Y0222484D01*
X0021922Y0223449D02*
X0021922Y0224628D01*
X0021529Y0225021D01*
X0019958Y0225021D01*
X0019565Y0224628D01*
X0019565Y0223449D01*
X0021922Y0223449D01*
X0021329Y0228713D02*
X0019757Y0228713D01*
X0020936Y0228713D02*
X0020936Y0230285D01*
X0021329Y0230285D02*
X0019757Y0230285D01*
X0019757Y0231250D02*
X0022115Y0231250D01*
X0019757Y0232822D01*
X0022115Y0232822D01*
X0021329Y0233788D02*
X0022115Y0234574D01*
X0019757Y0234574D01*
X0019757Y0233788D02*
X0019757Y0235360D01*
X0019757Y0236325D02*
X0021329Y0237897D01*
X0021722Y0237897D01*
X0022115Y0237504D01*
X0022115Y0236718D01*
X0021722Y0236325D01*
X0021482Y0237591D02*
X0019910Y0237591D01*
X0019124Y0238377D01*
X0019910Y0239162D01*
X0021482Y0239162D01*
X0021089Y0240128D02*
X0019517Y0240128D01*
X0019124Y0240521D01*
X0019124Y0241307D01*
X0019517Y0241700D01*
X0019517Y0242666D02*
X0019124Y0243059D01*
X0019124Y0243845D01*
X0019517Y0244238D01*
X0021089Y0244238D02*
X0021482Y0243845D01*
X0021482Y0243059D01*
X0021089Y0242666D01*
X0019517Y0242666D01*
X0021089Y0241700D02*
X0021482Y0241307D01*
X0021482Y0240521D01*
X0021089Y0240128D01*
X0019757Y0237897D02*
X0019757Y0236325D01*
X0021329Y0230285D02*
X0022115Y0229499D01*
X0021329Y0228713D01*
X0020994Y0248953D02*
X0019422Y0248953D01*
X0019029Y0249346D01*
X0019029Y0250132D01*
X0019422Y0250525D01*
X0020208Y0250525D01*
X0020208Y0249739D01*
X0020994Y0250525D02*
X0021387Y0250132D01*
X0021387Y0249346D01*
X0020994Y0248953D01*
X0021387Y0251490D02*
X0019029Y0253062D01*
X0021387Y0253062D01*
X0021387Y0254028D02*
X0021387Y0255207D01*
X0020994Y0255600D01*
X0019422Y0255600D01*
X0019029Y0255207D01*
X0019029Y0254028D01*
X0021387Y0254028D01*
X0021387Y0251490D02*
X0019029Y0251490D01*
X0019120Y0258642D02*
X0020692Y0258642D01*
X0021478Y0259428D01*
X0020692Y0260214D01*
X0019120Y0260214D01*
X0019120Y0261179D02*
X0021478Y0261179D01*
X0019120Y0262751D01*
X0021478Y0262751D01*
X0020692Y0263717D02*
X0021478Y0264503D01*
X0019120Y0264503D01*
X0019120Y0263717D02*
X0019120Y0265289D01*
X0019120Y0266255D02*
X0019120Y0267826D01*
X0019120Y0267040D02*
X0021478Y0267040D01*
X0020692Y0266255D01*
X0020299Y0260214D02*
X0020299Y0258642D01*
X0019606Y0277130D02*
X0018820Y0277916D01*
X0019606Y0278702D01*
X0021178Y0278702D01*
X0020785Y0279668D02*
X0019213Y0279668D01*
X0018820Y0280060D01*
X0018820Y0280846D01*
X0019213Y0281239D01*
X0019213Y0282205D02*
X0018820Y0282598D01*
X0018820Y0283384D01*
X0019213Y0283777D01*
X0019213Y0282205D02*
X0020785Y0282205D01*
X0021178Y0282598D01*
X0021178Y0283384D01*
X0020785Y0283777D01*
X0020785Y0281239D02*
X0021178Y0280846D01*
X0021178Y0280060D01*
X0020785Y0279668D01*
X0021178Y0277130D02*
X0019606Y0277130D01*
X0019639Y0287098D02*
X0019246Y0287491D01*
X0019246Y0288277D01*
X0019639Y0288670D01*
X0020425Y0288670D01*
X0020425Y0287884D01*
X0021211Y0287098D02*
X0019639Y0287098D01*
X0021211Y0287098D02*
X0021604Y0287491D01*
X0021604Y0288277D01*
X0021211Y0288670D01*
X0021604Y0289636D02*
X0019246Y0291208D01*
X0021604Y0291208D01*
X0021604Y0292174D02*
X0021604Y0293353D01*
X0021211Y0293746D01*
X0019639Y0293746D01*
X0019246Y0293353D01*
X0019246Y0292174D01*
X0021604Y0292174D01*
X0021604Y0289636D02*
X0019246Y0289636D01*
X0019191Y0297398D02*
X0020762Y0297398D01*
X0021548Y0298184D01*
X0020762Y0298970D01*
X0019191Y0298970D01*
X0019191Y0299935D02*
X0021548Y0299935D01*
X0019191Y0301507D01*
X0021548Y0301507D01*
X0021155Y0302473D02*
X0020762Y0302473D01*
X0020370Y0302866D01*
X0020370Y0304045D01*
X0021155Y0304045D02*
X0021548Y0303652D01*
X0021548Y0302866D01*
X0021155Y0302473D01*
X0019584Y0302473D02*
X0019191Y0302866D01*
X0019191Y0303652D01*
X0019584Y0304045D01*
X0021155Y0304045D01*
X0021253Y0306776D02*
X0019681Y0306776D01*
X0018895Y0307562D01*
X0019681Y0308348D01*
X0021253Y0308348D01*
X0020860Y0309313D02*
X0019288Y0309313D01*
X0018895Y0309706D01*
X0018895Y0310492D01*
X0019288Y0310885D01*
X0019288Y0311851D02*
X0018895Y0312244D01*
X0018895Y0313030D01*
X0019288Y0313423D01*
X0020860Y0313423D02*
X0021253Y0313030D01*
X0021253Y0312244D01*
X0020860Y0311851D01*
X0019288Y0311851D01*
X0020860Y0310885D02*
X0021253Y0310492D01*
X0021253Y0309706D01*
X0020860Y0309313D01*
X0020801Y0317079D02*
X0019229Y0317079D01*
X0018836Y0317472D01*
X0018836Y0318258D01*
X0019229Y0318651D01*
X0020015Y0318651D01*
X0020015Y0317865D01*
X0020801Y0318651D02*
X0021194Y0318258D01*
X0021194Y0317472D01*
X0020801Y0317079D01*
X0021194Y0319616D02*
X0018836Y0321188D01*
X0021194Y0321188D01*
X0021194Y0322154D02*
X0021194Y0323333D01*
X0020801Y0323726D01*
X0019229Y0323726D01*
X0018836Y0323333D01*
X0018836Y0322154D01*
X0021194Y0322154D01*
X0021194Y0319616D02*
X0018836Y0319616D01*
X0019029Y0326780D02*
X0020601Y0326780D01*
X0021387Y0327565D01*
X0020601Y0328351D01*
X0019029Y0328351D01*
X0019029Y0329317D02*
X0021387Y0329317D01*
X0019029Y0330889D01*
X0021387Y0330889D01*
X0020601Y0331855D02*
X0021387Y0332641D01*
X0019029Y0332641D01*
X0019029Y0331855D02*
X0019029Y0333427D01*
X0019422Y0334392D02*
X0020994Y0335964D01*
X0019422Y0335964D01*
X0019029Y0335571D01*
X0019029Y0334785D01*
X0019422Y0334392D01*
X0020994Y0334392D01*
X0021387Y0334785D01*
X0021387Y0335571D01*
X0020994Y0335964D01*
X0020208Y0328351D02*
X0020208Y0326780D01*
X0020370Y0298970D02*
X0020370Y0297398D01*
X0020866Y0154523D02*
X0022438Y0154523D01*
X0020866Y0154523D02*
X0020080Y0153737D01*
X0020866Y0152951D01*
X0022438Y0152951D01*
X0021652Y0144286D02*
X0021259Y0144286D01*
X0020866Y0143893D01*
X0020866Y0142714D01*
X0022045Y0142714D02*
X0022045Y0143893D01*
X0021652Y0144286D01*
X0020866Y0143893D02*
X0020473Y0144286D01*
X0020080Y0144286D01*
X0019687Y0143893D01*
X0019687Y0142714D01*
X0022045Y0142714D01*
X0021900Y0119084D02*
X0022293Y0118691D01*
X0022293Y0117905D01*
X0022686Y0117512D01*
X0023079Y0117512D01*
X0023472Y0117905D01*
X0023472Y0118691D01*
X0023079Y0119084D01*
X0021900Y0119084D02*
X0021507Y0119084D01*
X0021114Y0118691D01*
X0021114Y0117905D01*
X0021507Y0117512D01*
X0021114Y0116547D02*
X0021114Y0115761D01*
X0021114Y0116154D02*
X0023472Y0116154D01*
X0023472Y0116547D02*
X0023472Y0115761D01*
X0023079Y0114855D02*
X0023472Y0114462D01*
X0023472Y0113676D01*
X0023079Y0113283D01*
X0022293Y0113283D01*
X0022293Y0114069D01*
X0021507Y0114855D02*
X0023079Y0114855D01*
X0021507Y0114855D02*
X0021114Y0114462D01*
X0021114Y0113676D01*
X0021507Y0113283D01*
X0022104Y0109525D02*
X0022104Y0107953D01*
X0022104Y0106988D02*
X0021711Y0106202D01*
X0021711Y0105809D01*
X0022104Y0105416D01*
X0022890Y0105416D01*
X0023283Y0105809D01*
X0023283Y0106595D01*
X0022890Y0106988D01*
X0022104Y0106988D02*
X0020925Y0106988D01*
X0020925Y0105416D01*
X0020925Y0104450D02*
X0022497Y0104450D01*
X0023283Y0103664D01*
X0022497Y0102878D01*
X0020925Y0102878D01*
X0020967Y0098348D02*
X0022539Y0098348D01*
X0022932Y0097955D01*
X0022932Y0097169D01*
X0022539Y0096776D01*
X0021753Y0096776D01*
X0021753Y0097562D01*
X0020967Y0096776D02*
X0020574Y0097169D01*
X0020574Y0097955D01*
X0020967Y0098348D01*
X0020574Y0095810D02*
X0022932Y0094238D01*
X0020574Y0094238D01*
X0020574Y0093273D02*
X0020574Y0092094D01*
X0020967Y0091701D01*
X0022539Y0091701D01*
X0022932Y0092094D01*
X0022932Y0093273D01*
X0020574Y0093273D01*
X0020574Y0095810D02*
X0022932Y0095810D01*
X0023268Y0088411D02*
X0023661Y0088018D01*
X0023661Y0087232D01*
X0023268Y0086839D01*
X0022875Y0086839D01*
X0022482Y0087232D01*
X0022482Y0088018D01*
X0022089Y0088411D01*
X0021696Y0088411D01*
X0021303Y0088018D01*
X0021303Y0087232D01*
X0021696Y0086839D01*
X0021303Y0085873D02*
X0021303Y0085087D01*
X0021303Y0085480D02*
X0023661Y0085480D01*
X0023661Y0085873D02*
X0023661Y0085087D01*
X0023268Y0084182D02*
X0023661Y0083789D01*
X0023661Y0083003D01*
X0023268Y0082610D01*
X0022482Y0082610D01*
X0022482Y0083396D01*
X0021696Y0084182D02*
X0023268Y0084182D01*
X0021696Y0084182D02*
X0021303Y0083789D01*
X0021303Y0083003D01*
X0021696Y0082610D01*
X0022371Y0079502D02*
X0022371Y0077930D01*
X0022371Y0076964D02*
X0021978Y0076178D01*
X0021978Y0075785D01*
X0022371Y0075392D01*
X0023157Y0075392D01*
X0023550Y0075785D01*
X0023550Y0076571D01*
X0023157Y0076964D01*
X0022371Y0076964D02*
X0021192Y0076964D01*
X0021192Y0075392D01*
X0021192Y0074426D02*
X0022764Y0074426D01*
X0023550Y0073640D01*
X0022764Y0072854D01*
X0021192Y0072854D01*
X0021763Y0068084D02*
X0023335Y0068084D01*
X0023728Y0067691D01*
X0023728Y0066905D01*
X0023335Y0066512D01*
X0022549Y0066512D01*
X0022549Y0067298D01*
X0021763Y0066512D02*
X0021370Y0066905D01*
X0021370Y0067691D01*
X0021763Y0068084D01*
X0021370Y0065547D02*
X0023728Y0063975D01*
X0021370Y0063975D01*
X0021370Y0063009D02*
X0021370Y0061830D01*
X0021763Y0061437D01*
X0023335Y0061437D01*
X0023728Y0061830D01*
X0023728Y0063009D01*
X0021370Y0063009D01*
X0021370Y0065547D02*
X0023728Y0065547D01*
X0023157Y0078716D02*
X0021585Y0078716D01*
X0021318Y0108739D02*
X0022890Y0108739D01*
D14*
X0101018Y0168977D02*
X0101028Y0168881D01*
X0101042Y0168786D01*
X0101060Y0168691D01*
X0101081Y0168596D01*
X0101107Y0168503D01*
X0101136Y0168411D01*
X0101169Y0168320D01*
X0101206Y0168231D01*
X0101246Y0168143D01*
X0101290Y0168057D01*
X0101337Y0167973D01*
X0101388Y0167891D01*
X0101442Y0167811D01*
X0101499Y0167733D01*
X0101559Y0167657D01*
X0101622Y0167584D01*
X0101689Y0167514D01*
X0101758Y0167446D01*
X0101829Y0167382D01*
X0101904Y0167320D01*
X0101980Y0167261D01*
X0102059Y0167206D01*
X0102141Y0167154D01*
X0102224Y0167105D01*
X0102309Y0167060D01*
X0102396Y0167018D01*
X0102485Y0166979D01*
X0102575Y0166945D01*
X0102667Y0166914D01*
X0102759Y0166887D01*
X0102853Y0166863D01*
X0102948Y0166844D01*
X0103043Y0166828D01*
X0103139Y0166816D01*
X0103235Y0166808D01*
X0103332Y0166804D01*
X0103428Y0166804D01*
X0103525Y0166808D01*
X0103621Y0166816D01*
X0103717Y0166828D01*
X0103812Y0166844D01*
X0103907Y0166863D01*
X0104001Y0166887D01*
X0104093Y0166914D01*
X0104185Y0166945D01*
X0104275Y0166979D01*
X0104364Y0167018D01*
X0104451Y0167060D01*
X0104536Y0167105D01*
X0104619Y0167154D01*
X0104701Y0167206D01*
X0104780Y0167261D01*
X0104856Y0167320D01*
X0104931Y0167382D01*
X0105002Y0167446D01*
X0105071Y0167514D01*
X0105138Y0167584D01*
X0105201Y0167657D01*
X0105261Y0167733D01*
X0105318Y0167811D01*
X0105372Y0167891D01*
X0105423Y0167973D01*
X0105470Y0168057D01*
X0105514Y0168143D01*
X0105554Y0168231D01*
X0105591Y0168320D01*
X0105624Y0168411D01*
X0105653Y0168503D01*
X0105679Y0168596D01*
X0105700Y0168691D01*
X0105718Y0168786D01*
X0105732Y0168881D01*
X0105742Y0168977D01*
X0136428Y0154524D02*
X0136428Y0394524D01*
X0156428Y0394524D01*
X0156428Y0399524D01*
X0181428Y0399524D01*
X0181428Y0394524D01*
X0206428Y0394524D01*
X0206428Y0154524D01*
X0136428Y0154524D01*
X0189294Y0090659D02*
X0189294Y0087956D01*
X0190195Y0087956D02*
X0188393Y0087956D01*
X0190195Y0089758D02*
X0189294Y0090659D01*
X0191340Y0090208D02*
X0191790Y0090659D01*
X0192691Y0090659D01*
X0193141Y0090208D01*
X0193141Y0088407D01*
X0192691Y0087956D01*
X0191790Y0087956D01*
X0191340Y0088407D01*
X0181378Y0079922D02*
X0181378Y0077220D01*
X0181378Y0078121D02*
X0180027Y0078121D01*
X0179576Y0078571D01*
X0179576Y0079472D01*
X0180027Y0079922D01*
X0181378Y0079922D01*
X0180477Y0078121D02*
X0179576Y0077220D01*
X0178431Y0077670D02*
X0177981Y0077220D01*
X0177080Y0077220D01*
X0176630Y0077670D01*
X0176630Y0078121D01*
X0177080Y0078571D01*
X0177530Y0078571D01*
X0177080Y0078571D02*
X0176630Y0079022D01*
X0176630Y0079472D01*
X0177080Y0079922D01*
X0177981Y0079922D01*
X0178431Y0079472D01*
X0177315Y0074663D02*
X0178666Y0073312D01*
X0178216Y0072861D02*
X0180018Y0074663D01*
X0180018Y0072861D02*
X0177315Y0072861D01*
X0177766Y0071716D02*
X0177315Y0071266D01*
X0177315Y0070365D01*
X0177766Y0069915D01*
X0177766Y0068892D02*
X0177315Y0068892D01*
X0177315Y0068441D01*
X0177766Y0068441D01*
X0177766Y0068892D01*
X0177766Y0067296D02*
X0177315Y0066846D01*
X0177315Y0065945D01*
X0177766Y0065495D01*
X0178666Y0066396D02*
X0178666Y0066846D01*
X0178216Y0067296D01*
X0177766Y0067296D01*
X0178666Y0066846D02*
X0179117Y0067296D01*
X0179567Y0067296D01*
X0180018Y0066846D01*
X0180018Y0065945D01*
X0179567Y0065495D01*
X0179567Y0069915D02*
X0180018Y0070365D01*
X0180018Y0071266D01*
X0179567Y0071716D01*
X0179117Y0071716D01*
X0178666Y0071266D01*
X0178216Y0071716D01*
X0177766Y0071716D01*
X0178666Y0071266D02*
X0178666Y0070815D01*
X0168722Y0070814D02*
X0168272Y0070363D01*
X0168722Y0070814D02*
X0168722Y0071715D01*
X0168272Y0072165D01*
X0167822Y0072165D01*
X0166020Y0070363D01*
X0166020Y0072165D01*
X0166020Y0073310D02*
X0168722Y0073310D01*
X0167371Y0073760D02*
X0166020Y0075112D01*
X0166921Y0073310D02*
X0168722Y0075112D01*
X0169472Y0077496D02*
X0169472Y0080198D01*
X0168121Y0080198D01*
X0167671Y0079748D01*
X0167671Y0078847D01*
X0168121Y0078396D01*
X0169472Y0078396D01*
X0168571Y0078396D02*
X0167671Y0077496D01*
X0166526Y0077496D02*
X0164724Y0079297D01*
X0164724Y0079748D01*
X0165175Y0080198D01*
X0166075Y0080198D01*
X0166526Y0079748D01*
X0166526Y0077496D02*
X0164724Y0077496D01*
X0166020Y0069341D02*
X0166020Y0068890D01*
X0166470Y0068890D01*
X0166470Y0069341D01*
X0166020Y0069341D01*
X0166020Y0067745D02*
X0166020Y0065944D01*
X0167822Y0067745D01*
X0168272Y0067745D01*
X0168722Y0067295D01*
X0168722Y0066394D01*
X0168272Y0065944D01*
X0156766Y0067205D02*
X0156766Y0068106D01*
X0156315Y0068556D01*
X0155865Y0068556D01*
X0155415Y0068106D01*
X0154964Y0068556D01*
X0154514Y0068556D01*
X0154063Y0068106D01*
X0154063Y0067205D01*
X0154514Y0066755D01*
X0155415Y0067655D02*
X0155415Y0068106D01*
X0156315Y0066755D02*
X0156766Y0067205D01*
X0156315Y0069701D02*
X0156766Y0070152D01*
X0156766Y0071052D01*
X0156315Y0071503D01*
X0155865Y0071503D01*
X0155415Y0071052D01*
X0154964Y0071503D01*
X0154514Y0071503D01*
X0154063Y0071052D01*
X0154063Y0070152D01*
X0154514Y0069701D01*
X0155415Y0070602D02*
X0155415Y0071052D01*
X0156315Y0072648D02*
X0156766Y0073098D01*
X0156766Y0073999D01*
X0156315Y0074449D01*
X0154514Y0072648D01*
X0154063Y0073098D01*
X0154063Y0073999D01*
X0154514Y0074449D01*
X0156315Y0074449D01*
X0156315Y0072648D02*
X0154514Y0072648D01*
X0154585Y0077803D02*
X0152783Y0077803D01*
X0153684Y0077803D02*
X0153684Y0080505D01*
X0154585Y0079604D01*
X0155730Y0079154D02*
X0156180Y0078704D01*
X0157531Y0078704D01*
X0156630Y0078704D02*
X0155730Y0077803D01*
X0155730Y0079154D02*
X0155730Y0080055D01*
X0156180Y0080505D01*
X0157531Y0080505D01*
X0157531Y0077803D01*
X0186476Y0057163D02*
X0188278Y0057163D01*
X0188278Y0054460D01*
X0189423Y0054460D02*
X0189423Y0056262D01*
X0188278Y0055811D02*
X0187377Y0055811D01*
X0189423Y0054460D02*
X0190774Y0054460D01*
X0191224Y0054911D01*
X0191224Y0056262D01*
X0192369Y0056712D02*
X0194171Y0054911D01*
X0193720Y0054460D01*
X0192820Y0054460D01*
X0192369Y0054911D01*
X0192369Y0056712D01*
X0192820Y0057163D01*
X0193720Y0057163D01*
X0194171Y0056712D01*
X0194171Y0054911D01*
X0195316Y0054460D02*
X0197117Y0054460D01*
X0196216Y0054460D02*
X0196216Y0057163D01*
X0197117Y0056262D01*
X0238896Y0158338D02*
X0238446Y0158788D01*
X0238446Y0159689D01*
X0238896Y0160140D01*
X0241148Y0160140D01*
X0240248Y0161285D02*
X0241148Y0162185D01*
X0238446Y0162185D01*
X0238446Y0161285D02*
X0238446Y0163086D01*
X0238896Y0158338D02*
X0241148Y0158338D01*
X0241518Y0283241D02*
X0241508Y0283337D01*
X0241494Y0283432D01*
X0241476Y0283527D01*
X0241455Y0283622D01*
X0241429Y0283715D01*
X0241400Y0283807D01*
X0241367Y0283898D01*
X0241330Y0283987D01*
X0241290Y0284075D01*
X0241246Y0284161D01*
X0241199Y0284245D01*
X0241148Y0284327D01*
X0241094Y0284407D01*
X0241037Y0284485D01*
X0240977Y0284561D01*
X0240914Y0284634D01*
X0240847Y0284704D01*
X0240778Y0284772D01*
X0240707Y0284836D01*
X0240632Y0284898D01*
X0240556Y0284957D01*
X0240477Y0285012D01*
X0240395Y0285064D01*
X0240312Y0285113D01*
X0240227Y0285158D01*
X0240140Y0285200D01*
X0240051Y0285239D01*
X0239961Y0285273D01*
X0239869Y0285304D01*
X0239777Y0285331D01*
X0239683Y0285355D01*
X0239588Y0285374D01*
X0239493Y0285390D01*
X0239397Y0285402D01*
X0239301Y0285410D01*
X0239204Y0285414D01*
X0239108Y0285414D01*
X0239011Y0285410D01*
X0238915Y0285402D01*
X0238819Y0285390D01*
X0238724Y0285374D01*
X0238629Y0285355D01*
X0238535Y0285331D01*
X0238443Y0285304D01*
X0238351Y0285273D01*
X0238261Y0285239D01*
X0238172Y0285200D01*
X0238085Y0285158D01*
X0238000Y0285113D01*
X0237917Y0285064D01*
X0237835Y0285012D01*
X0237756Y0284957D01*
X0237680Y0284898D01*
X0237605Y0284836D01*
X0237534Y0284772D01*
X0237465Y0284704D01*
X0237398Y0284634D01*
X0237335Y0284561D01*
X0237275Y0284485D01*
X0237218Y0284407D01*
X0237164Y0284327D01*
X0237113Y0284245D01*
X0237066Y0284161D01*
X0237022Y0284075D01*
X0236982Y0283987D01*
X0236945Y0283898D01*
X0236912Y0283807D01*
X0236883Y0283715D01*
X0236857Y0283622D01*
X0236836Y0283527D01*
X0236818Y0283432D01*
X0236804Y0283337D01*
X0236794Y0283241D01*
X0245181Y0301353D02*
X0246983Y0301353D01*
X0247884Y0302254D01*
X0246983Y0303155D01*
X0245181Y0303155D01*
X0245181Y0304300D02*
X0246983Y0306101D01*
X0247433Y0306101D01*
X0247884Y0305651D01*
X0247884Y0304750D01*
X0247433Y0304300D01*
X0246533Y0303155D02*
X0246533Y0301353D01*
X0245181Y0304300D02*
X0245181Y0306101D01*
X0245632Y0307246D02*
X0245181Y0307697D01*
X0245181Y0308597D01*
X0245632Y0309048D01*
X0247433Y0309048D01*
X0247884Y0308597D01*
X0247884Y0307697D01*
X0247433Y0307246D01*
X0246983Y0307246D01*
X0246533Y0307697D01*
X0246533Y0309048D01*
X0246983Y0310193D02*
X0247433Y0310193D01*
X0247884Y0310643D01*
X0247884Y0311544D01*
X0247433Y0311994D01*
X0246983Y0311994D01*
X0246533Y0311544D01*
X0246533Y0310643D01*
X0246983Y0310193D01*
X0246533Y0310643D02*
X0246082Y0310193D01*
X0245632Y0310193D01*
X0245181Y0310643D01*
X0245181Y0311544D01*
X0245632Y0311994D01*
X0246082Y0311994D01*
X0246533Y0311544D01*
X0247433Y0313139D02*
X0247884Y0313590D01*
X0247884Y0314490D01*
X0247433Y0314941D01*
X0246983Y0314941D01*
X0245181Y0313139D01*
X0245181Y0314941D01*
X0233112Y0309985D02*
X0233112Y0309085D01*
X0232662Y0308634D01*
X0233112Y0307489D02*
X0230860Y0307489D01*
X0230410Y0307039D01*
X0230410Y0306138D01*
X0230860Y0305688D01*
X0233112Y0305688D01*
X0230410Y0308634D02*
X0232211Y0310436D01*
X0232662Y0310436D01*
X0233112Y0309985D01*
X0230410Y0310436D02*
X0230410Y0308634D01*
X0251943Y0357720D02*
X0251943Y0358170D01*
X0250141Y0359972D01*
X0250141Y0360422D01*
X0251943Y0360422D01*
X0253989Y0360422D02*
X0253989Y0357720D01*
X0254889Y0357720D02*
X0253088Y0357720D01*
X0254889Y0359522D02*
X0253989Y0360422D01*
X0256034Y0360422D02*
X0256935Y0360422D01*
X0256485Y0360422D02*
X0256485Y0358170D01*
X0256935Y0357720D01*
X0257386Y0357720D01*
X0257836Y0358170D01*
X0219432Y0365812D02*
X0218081Y0365812D01*
X0218531Y0366713D01*
X0218531Y0367164D01*
X0218081Y0367614D01*
X0217180Y0367614D01*
X0216730Y0367164D01*
X0216730Y0366263D01*
X0217180Y0365812D01*
X0218081Y0364668D02*
X0218081Y0362866D01*
X0218981Y0363767D02*
X0217180Y0363767D01*
X0219432Y0365812D02*
X0219432Y0367614D01*
X0219432Y0368759D02*
X0217630Y0368759D01*
X0216730Y0369660D01*
X0217630Y0370561D01*
X0219432Y0370561D01*
X0218531Y0374652D02*
X0219432Y0375553D01*
X0219432Y0376616D02*
X0218531Y0377517D01*
X0219432Y0378418D01*
X0216730Y0378418D01*
X0217180Y0379563D02*
X0217630Y0380013D01*
X0217630Y0381364D01*
X0218081Y0381364D02*
X0216730Y0381364D01*
X0216730Y0380013D01*
X0217180Y0379563D01*
X0218531Y0380013D02*
X0218531Y0380914D01*
X0218081Y0381364D01*
X0218531Y0382509D02*
X0218531Y0382960D01*
X0216730Y0382960D01*
X0216730Y0383410D02*
X0216730Y0382509D01*
X0216730Y0384474D02*
X0218531Y0384474D01*
X0218531Y0385825D01*
X0218081Y0386275D01*
X0216730Y0386275D01*
X0216730Y0387420D02*
X0217630Y0388321D01*
X0218531Y0388321D01*
X0219432Y0387420D01*
X0219432Y0382960D02*
X0219882Y0382960D01*
X0219432Y0376616D02*
X0216730Y0376616D01*
X0216730Y0375553D02*
X0217630Y0374652D01*
X0218531Y0374652D01*
X0181428Y0394524D02*
X0156428Y0394524D01*
X0127284Y0386375D02*
X0126833Y0386375D01*
X0125933Y0386375D02*
X0124131Y0386375D01*
X0124131Y0386825D02*
X0124131Y0385924D01*
X0125482Y0384779D02*
X0125032Y0384329D01*
X0125032Y0382978D01*
X0124131Y0382978D02*
X0126833Y0382978D01*
X0126833Y0384329D01*
X0126383Y0384779D01*
X0125482Y0384779D01*
X0125933Y0385924D02*
X0125933Y0386375D01*
X0126383Y0378886D02*
X0126833Y0378436D01*
X0126833Y0377535D01*
X0126383Y0377085D01*
X0124581Y0377085D01*
X0124131Y0377535D01*
X0124131Y0378436D01*
X0124581Y0378886D01*
X0126383Y0378886D01*
X0126833Y0375940D02*
X0126833Y0374138D01*
X0126833Y0375039D02*
X0124131Y0375039D01*
X0120249Y0344832D02*
X0119348Y0344832D01*
X0119798Y0344832D02*
X0119798Y0342580D01*
X0120249Y0342130D01*
X0120699Y0342130D01*
X0121149Y0342580D01*
X0118203Y0342580D02*
X0117752Y0342130D01*
X0116852Y0342130D01*
X0116401Y0342580D01*
X0116401Y0343030D01*
X0116852Y0343481D01*
X0117302Y0343481D01*
X0116852Y0343481D02*
X0116401Y0343931D01*
X0116401Y0344381D01*
X0116852Y0344832D01*
X0117752Y0344832D01*
X0118203Y0344381D01*
X0072683Y0380570D02*
X0072683Y0381204D01*
X0072683Y0380887D02*
X0071098Y0380887D01*
X0070781Y0380570D01*
X0070781Y0380253D01*
X0071098Y0379936D01*
X0070781Y0382146D02*
X0070781Y0383414D01*
X0070781Y0382780D02*
X0072683Y0382780D01*
X0072049Y0382146D01*
X0072366Y0384356D02*
X0072683Y0384673D01*
X0072683Y0385307D01*
X0072366Y0385624D01*
X0072049Y0385624D01*
X0070781Y0384356D01*
X0070781Y0385624D01*
X0071011Y0389412D02*
X0071328Y0389729D01*
X0071328Y0390680D01*
X0070060Y0390680D02*
X0070060Y0389412D01*
X0071011Y0389412D01*
X0069118Y0389412D02*
X0069118Y0390363D01*
X0068801Y0390680D01*
X0068484Y0390363D01*
X0068167Y0390680D01*
X0067850Y0390363D01*
X0067850Y0389412D01*
X0066908Y0389729D02*
X0066591Y0389412D01*
X0065957Y0389412D01*
X0065640Y0389729D01*
X0065640Y0390363D01*
X0065957Y0390680D01*
X0066591Y0390680D01*
X0066908Y0390363D01*
X0066908Y0389729D01*
X0064698Y0389412D02*
X0063748Y0389412D01*
X0063431Y0389729D01*
X0063431Y0390363D01*
X0063748Y0390680D01*
X0064698Y0390680D01*
X0064698Y0388778D01*
X0062591Y0389412D02*
X0061957Y0389412D01*
X0062274Y0389095D02*
X0062274Y0390363D01*
X0062591Y0390680D01*
X0061015Y0390680D02*
X0061015Y0389412D01*
X0059747Y0389412D02*
X0059747Y0390363D01*
X0060064Y0390680D01*
X0061015Y0390680D01*
X0058805Y0390680D02*
X0058805Y0389729D01*
X0058488Y0389412D01*
X0057855Y0389412D01*
X0057538Y0389729D01*
X0057538Y0388778D02*
X0057538Y0390680D01*
X0056595Y0390363D02*
X0056279Y0390680D01*
X0055645Y0390680D01*
X0055328Y0390363D01*
X0055645Y0389729D02*
X0056279Y0389729D01*
X0056595Y0390046D01*
X0056595Y0390363D01*
X0055645Y0389729D02*
X0055328Y0389412D01*
X0055328Y0389095D01*
X0055645Y0388778D01*
X0056279Y0388778D01*
X0056595Y0389095D01*
X0054386Y0389729D02*
X0053118Y0389729D01*
X0051961Y0389412D02*
X0051961Y0390680D01*
X0051645Y0390680D02*
X0052278Y0390680D01*
X0051961Y0389412D02*
X0051645Y0389412D01*
X0051961Y0388778D02*
X0051961Y0388461D01*
X0050702Y0389095D02*
X0050702Y0389729D01*
X0050385Y0390046D01*
X0049435Y0390046D01*
X0049435Y0390680D02*
X0049435Y0388778D01*
X0050385Y0388778D01*
X0050702Y0389095D01*
X0048493Y0389095D02*
X0048493Y0389729D01*
X0048176Y0390046D01*
X0047225Y0390046D01*
X0047859Y0390046D02*
X0048493Y0390680D01*
X0047225Y0390680D02*
X0047225Y0388778D01*
X0048176Y0388778D01*
X0048493Y0389095D01*
X0050978Y0376302D02*
X0050528Y0375852D01*
X0050978Y0376302D02*
X0051879Y0376302D01*
X0052329Y0375852D01*
X0052329Y0375401D01*
X0051879Y0374951D01*
X0050978Y0374951D01*
X0050528Y0374500D01*
X0050528Y0374050D01*
X0050978Y0373600D01*
X0051879Y0373600D01*
X0052329Y0374050D01*
X0053474Y0373600D02*
X0054375Y0373600D01*
X0053925Y0373600D02*
X0053925Y0376302D01*
X0054375Y0376302D02*
X0053474Y0376302D01*
X0055439Y0375852D02*
X0055889Y0376302D01*
X0056790Y0376302D01*
X0057240Y0375852D01*
X0057240Y0374951D01*
X0056340Y0374951D01*
X0057240Y0374050D02*
X0056790Y0373600D01*
X0055889Y0373600D01*
X0055439Y0374050D01*
X0055439Y0375852D01*
X0060670Y0375883D02*
X0060670Y0374082D01*
X0061120Y0373631D01*
X0062021Y0373631D01*
X0062471Y0374082D01*
X0062471Y0374982D02*
X0061570Y0374982D01*
X0062471Y0374982D02*
X0062471Y0375883D01*
X0062021Y0376333D01*
X0061120Y0376333D01*
X0060670Y0375883D01*
X0063616Y0376333D02*
X0063616Y0373631D01*
X0065418Y0376333D01*
X0065418Y0373631D01*
X0066563Y0373631D02*
X0067914Y0373631D01*
X0068364Y0374082D01*
X0068364Y0375883D01*
X0067914Y0376333D01*
X0066563Y0376333D01*
X0066563Y0373631D01*
X0005815Y0327955D02*
X0005364Y0328406D01*
X0003563Y0326604D01*
X0003112Y0327055D01*
X0003112Y0327955D01*
X0003563Y0328406D01*
X0005364Y0328406D01*
X0005815Y0327955D02*
X0005815Y0327055D01*
X0005364Y0326604D01*
X0003563Y0326604D01*
X0003112Y0325459D02*
X0003112Y0323658D01*
X0003112Y0324559D02*
X0005815Y0324559D01*
X0004914Y0323658D01*
X0004914Y0322513D02*
X0003112Y0322513D01*
X0004463Y0322513D02*
X0004463Y0320711D01*
X0004914Y0320711D02*
X0005815Y0321612D01*
X0004914Y0322513D01*
X0004914Y0320711D02*
X0003112Y0320711D01*
X0003563Y0319566D02*
X0003112Y0319116D01*
X0003112Y0318215D01*
X0003563Y0317765D01*
X0004463Y0317765D02*
X0004914Y0318665D01*
X0004914Y0319116D01*
X0004463Y0319566D01*
X0003563Y0319566D01*
X0004463Y0317765D02*
X0005815Y0317765D01*
X0005815Y0319566D01*
X0005364Y0316620D02*
X0005815Y0316169D01*
X0005815Y0315269D01*
X0005364Y0314818D01*
X0004914Y0314818D01*
X0004463Y0315269D01*
X0004463Y0316169D01*
X0004013Y0316620D01*
X0003563Y0316620D01*
X0003112Y0316169D01*
X0003112Y0315269D01*
X0003563Y0314818D01*
X0003484Y0296457D02*
X0005285Y0296457D01*
X0005736Y0296007D01*
X0005736Y0295106D01*
X0005285Y0294655D01*
X0004835Y0294655D01*
X0004385Y0295106D01*
X0004385Y0296457D01*
X0003484Y0296457D02*
X0003033Y0296007D01*
X0003033Y0295106D01*
X0003484Y0294655D01*
X0003033Y0293510D02*
X0004835Y0293510D01*
X0005736Y0292610D01*
X0004835Y0291709D01*
X0003033Y0291709D01*
X0003484Y0290564D02*
X0003033Y0290114D01*
X0003033Y0289213D01*
X0003484Y0288762D01*
X0004385Y0288762D02*
X0004835Y0289663D01*
X0004835Y0290114D01*
X0004385Y0290564D01*
X0003484Y0290564D01*
X0004385Y0291709D02*
X0004385Y0293510D01*
X0005736Y0290564D02*
X0005736Y0288762D01*
X0004385Y0288762D01*
X0003934Y0287617D02*
X0004385Y0287167D01*
X0004385Y0286266D01*
X0004835Y0285816D01*
X0005285Y0285816D01*
X0005736Y0286266D01*
X0005736Y0287167D01*
X0005285Y0287617D01*
X0003934Y0287617D02*
X0003484Y0287617D01*
X0003033Y0287167D01*
X0003033Y0286266D01*
X0003484Y0285816D01*
X0003411Y0259555D02*
X0003411Y0257754D01*
X0003411Y0258655D02*
X0006114Y0258655D01*
X0005213Y0257754D01*
X0003411Y0256609D02*
X0003411Y0254807D01*
X0003411Y0255708D02*
X0006114Y0255708D01*
X0005213Y0254807D01*
X0005213Y0253662D02*
X0003411Y0253662D01*
X0004763Y0253662D02*
X0004763Y0251861D01*
X0005213Y0251861D02*
X0006114Y0252762D01*
X0005213Y0253662D01*
X0005213Y0251861D02*
X0003411Y0251861D01*
X0003862Y0250716D02*
X0004312Y0250716D01*
X0004763Y0250265D01*
X0004763Y0248914D01*
X0003862Y0248914D01*
X0003411Y0249365D01*
X0003411Y0250265D01*
X0003862Y0250716D01*
X0005663Y0249815D02*
X0004763Y0248914D01*
X0004312Y0247769D02*
X0003862Y0247769D01*
X0003411Y0247319D01*
X0003411Y0246418D01*
X0003862Y0245968D01*
X0004763Y0246418D02*
X0004763Y0247319D01*
X0004312Y0247769D01*
X0005663Y0247769D02*
X0006114Y0247319D01*
X0006114Y0246418D01*
X0005663Y0245968D01*
X0005213Y0245968D01*
X0004763Y0246418D01*
X0005663Y0249815D02*
X0006114Y0250716D01*
X0005982Y0229492D02*
X0006433Y0229042D01*
X0006433Y0228141D01*
X0005982Y0227691D01*
X0005982Y0229492D02*
X0005532Y0229492D01*
X0003730Y0227691D01*
X0003730Y0229492D01*
X0003730Y0226546D02*
X0003730Y0224744D01*
X0003730Y0225645D02*
X0006433Y0225645D01*
X0005532Y0224744D01*
X0005532Y0223599D02*
X0003730Y0223599D01*
X0005081Y0223599D02*
X0005081Y0221798D01*
X0005532Y0221798D02*
X0006433Y0222699D01*
X0005532Y0223599D01*
X0005532Y0221798D02*
X0003730Y0221798D01*
X0004181Y0220653D02*
X0003730Y0220202D01*
X0003730Y0219302D01*
X0004181Y0218851D01*
X0005081Y0218851D01*
X0005081Y0220202D01*
X0004631Y0220653D01*
X0004181Y0220653D01*
X0005982Y0219752D02*
X0006433Y0220653D01*
X0005982Y0219752D02*
X0005081Y0218851D01*
X0004631Y0217706D02*
X0004181Y0217706D01*
X0003730Y0217256D01*
X0003730Y0216355D01*
X0004181Y0215905D01*
X0005081Y0216355D02*
X0005532Y0215905D01*
X0005982Y0215905D01*
X0006433Y0216355D01*
X0006433Y0217256D01*
X0005982Y0217706D01*
X0005081Y0217256D02*
X0004631Y0217706D01*
X0005081Y0217256D02*
X0005081Y0216355D01*
X0280904Y0285276D02*
X0280904Y0304961D01*
X0359644Y0304961D01*
X0359644Y0285276D01*
X0280904Y0285276D01*
X0350895Y0357488D02*
X0351796Y0357488D01*
X0352246Y0357938D01*
X0352246Y0358839D02*
X0351345Y0359289D01*
X0350895Y0359289D01*
X0350445Y0358839D01*
X0350445Y0357938D01*
X0350895Y0357488D01*
X0352246Y0358839D02*
X0352246Y0360190D01*
X0350445Y0360190D01*
X0353391Y0360190D02*
X0354292Y0360190D01*
X0353841Y0360190D02*
X0353841Y0357938D01*
X0354292Y0357488D01*
X0354742Y0357488D01*
X0355193Y0357938D01*
X0360136Y0368767D02*
X0360136Y0370568D01*
X0360136Y0371713D02*
X0360586Y0372614D01*
X0360586Y0373065D01*
X0360136Y0373515D01*
X0359235Y0373515D01*
X0358785Y0373065D01*
X0358785Y0372164D01*
X0359235Y0371713D01*
X0360136Y0371713D02*
X0361487Y0371713D01*
X0361487Y0373515D01*
X0361487Y0374660D02*
X0359685Y0374660D01*
X0358785Y0375561D01*
X0359685Y0376461D01*
X0361487Y0376461D01*
X0360586Y0380553D02*
X0361487Y0381454D01*
X0361487Y0382517D02*
X0361487Y0383868D01*
X0361037Y0384319D01*
X0360136Y0384319D01*
X0359685Y0383868D01*
X0359685Y0382517D01*
X0358785Y0382517D02*
X0361487Y0382517D01*
X0360586Y0380553D02*
X0359685Y0380553D01*
X0358785Y0381454D01*
X0358785Y0385464D02*
X0358785Y0386365D01*
X0358785Y0385914D02*
X0360586Y0385914D01*
X0360586Y0385464D01*
X0361487Y0385914D02*
X0361937Y0385914D01*
X0361487Y0387428D02*
X0360586Y0388329D01*
X0359685Y0388329D01*
X0358785Y0387428D01*
X0359235Y0369668D02*
X0361037Y0369668D01*
X0390901Y0346608D02*
X0391352Y0347059D01*
X0391802Y0347059D01*
X0392252Y0346608D01*
X0392252Y0345708D01*
X0392703Y0345257D01*
X0393153Y0345257D01*
X0393604Y0345708D01*
X0393604Y0346608D01*
X0393153Y0347059D01*
X0390901Y0346608D02*
X0390901Y0345708D01*
X0391352Y0345257D01*
X0392252Y0344112D02*
X0392252Y0342311D01*
X0392252Y0341166D02*
X0392252Y0339364D01*
X0391802Y0339364D02*
X0393604Y0339364D01*
X0393153Y0338219D02*
X0392703Y0338219D01*
X0392252Y0337769D01*
X0392252Y0336868D01*
X0392703Y0336418D01*
X0393153Y0336418D01*
X0393604Y0336868D01*
X0393604Y0337769D01*
X0393153Y0338219D01*
X0392252Y0337769D02*
X0391802Y0338219D01*
X0391352Y0338219D01*
X0390901Y0337769D01*
X0390901Y0336868D01*
X0391352Y0336418D01*
X0391802Y0336418D01*
X0392252Y0336868D01*
X0391802Y0339364D02*
X0390901Y0340265D01*
X0391802Y0341166D01*
X0393604Y0341166D01*
X0393604Y0342761D02*
X0390901Y0342761D01*
X0392252Y0344112D01*
X0391605Y0315854D02*
X0392056Y0315404D01*
X0392056Y0314503D01*
X0392506Y0314052D01*
X0392956Y0314052D01*
X0393407Y0314503D01*
X0393407Y0315404D01*
X0392956Y0315854D01*
X0391605Y0315854D02*
X0391155Y0315854D01*
X0390704Y0315404D01*
X0390704Y0314503D01*
X0391155Y0314052D01*
X0392056Y0312907D02*
X0392056Y0311106D01*
X0392056Y0309961D02*
X0392056Y0308159D01*
X0391605Y0308159D02*
X0393407Y0308159D01*
X0393407Y0307014D02*
X0392956Y0307014D01*
X0391155Y0305213D01*
X0390704Y0305213D01*
X0390704Y0307014D01*
X0391605Y0308159D02*
X0390704Y0309060D01*
X0391605Y0309961D01*
X0393407Y0309961D01*
X0393407Y0311556D02*
X0390704Y0311556D01*
X0392056Y0312907D01*
X0391625Y0283102D02*
X0392075Y0282652D01*
X0392075Y0281751D01*
X0392526Y0281300D01*
X0392976Y0281300D01*
X0393426Y0281751D01*
X0393426Y0282652D01*
X0392976Y0283102D01*
X0391625Y0283102D02*
X0391174Y0283102D01*
X0390724Y0282652D01*
X0390724Y0281751D01*
X0391174Y0281300D01*
X0391174Y0280155D02*
X0390724Y0279705D01*
X0390724Y0278804D01*
X0391174Y0278354D01*
X0391625Y0278354D01*
X0392075Y0278804D01*
X0392526Y0278354D01*
X0392976Y0278354D01*
X0393426Y0278804D01*
X0393426Y0279705D01*
X0392976Y0280155D01*
X0392075Y0279255D02*
X0392075Y0278804D01*
X0392075Y0277209D02*
X0392075Y0275407D01*
X0391625Y0275407D02*
X0393426Y0275407D01*
X0392976Y0274262D02*
X0393426Y0273812D01*
X0393426Y0272911D01*
X0392976Y0272461D01*
X0392526Y0272461D01*
X0392075Y0272911D01*
X0392075Y0274262D01*
X0392976Y0274262D01*
X0392075Y0274262D02*
X0391174Y0273362D01*
X0390724Y0272461D01*
X0391625Y0275407D02*
X0390724Y0276308D01*
X0391625Y0277209D01*
X0393426Y0277209D01*
X0393263Y0252267D02*
X0393714Y0251817D01*
X0393714Y0250916D01*
X0393263Y0250466D01*
X0392813Y0250466D01*
X0392363Y0250916D01*
X0392363Y0251817D01*
X0391912Y0252267D01*
X0391462Y0252267D01*
X0391011Y0251817D01*
X0391011Y0250916D01*
X0391462Y0250466D01*
X0391462Y0249321D02*
X0391011Y0248870D01*
X0391011Y0247970D01*
X0391462Y0247519D01*
X0391912Y0247519D01*
X0392363Y0247970D01*
X0392813Y0247519D01*
X0393263Y0247519D01*
X0393714Y0247970D01*
X0393714Y0248870D01*
X0393263Y0249321D01*
X0392363Y0248420D02*
X0392363Y0247970D01*
X0392363Y0246374D02*
X0392363Y0244573D01*
X0391912Y0244573D02*
X0393714Y0244573D01*
X0393263Y0243428D02*
X0393714Y0242977D01*
X0393714Y0242077D01*
X0393263Y0241626D01*
X0392363Y0241626D01*
X0391912Y0242077D01*
X0391912Y0242527D01*
X0392363Y0243428D01*
X0391011Y0243428D01*
X0391011Y0241626D01*
X0391912Y0244573D02*
X0391011Y0245474D01*
X0391912Y0246374D01*
X0393714Y0246374D01*
X0392630Y0219874D02*
X0393080Y0219423D01*
X0393080Y0218522D01*
X0392630Y0218072D01*
X0392179Y0218072D01*
X0391729Y0218522D01*
X0391729Y0219423D01*
X0391278Y0219874D01*
X0390828Y0219874D01*
X0390378Y0219423D01*
X0390378Y0218522D01*
X0390828Y0218072D01*
X0390828Y0216927D02*
X0390378Y0216477D01*
X0390378Y0215576D01*
X0390828Y0215126D01*
X0391278Y0215126D01*
X0393080Y0216927D01*
X0393080Y0215126D01*
X0393080Y0213981D02*
X0391278Y0213981D01*
X0390378Y0213080D01*
X0391278Y0212179D01*
X0393080Y0212179D01*
X0391729Y0212179D02*
X0391729Y0213981D01*
X0391729Y0211034D02*
X0391729Y0209233D01*
X0393080Y0209683D02*
X0390378Y0209683D01*
X0391729Y0211034D01*
X0392291Y0186866D02*
X0392741Y0186415D01*
X0392741Y0185515D01*
X0392291Y0185064D01*
X0391841Y0185064D01*
X0391390Y0185515D01*
X0391390Y0186415D01*
X0390940Y0186866D01*
X0390489Y0186866D01*
X0390039Y0186415D01*
X0390039Y0185515D01*
X0390489Y0185064D01*
X0390489Y0183919D02*
X0390039Y0183469D01*
X0390039Y0182568D01*
X0390489Y0182118D01*
X0390940Y0182118D01*
X0392741Y0183919D01*
X0392741Y0182118D01*
X0392741Y0180973D02*
X0390940Y0180973D01*
X0390039Y0180072D01*
X0390940Y0179171D01*
X0392741Y0179171D01*
X0392291Y0178026D02*
X0392741Y0177576D01*
X0392741Y0176675D01*
X0392291Y0176225D01*
X0391841Y0176225D01*
X0391390Y0176675D01*
X0391390Y0177125D01*
X0391390Y0176675D02*
X0390940Y0176225D01*
X0390489Y0176225D01*
X0390039Y0176675D01*
X0390039Y0177576D01*
X0390489Y0178026D01*
X0391390Y0179171D02*
X0391390Y0180973D01*
X0391359Y0099641D02*
X0391810Y0099641D01*
X0392260Y0099191D01*
X0392260Y0098290D01*
X0392711Y0097840D01*
X0393161Y0097840D01*
X0393611Y0098290D01*
X0393611Y0099191D01*
X0393161Y0099641D01*
X0391359Y0099641D02*
X0390909Y0099191D01*
X0390909Y0098290D01*
X0391359Y0097840D01*
X0391810Y0096695D02*
X0390909Y0095794D01*
X0393611Y0095794D01*
X0393611Y0096695D02*
X0393611Y0094893D01*
X0393611Y0093748D02*
X0391810Y0093748D01*
X0390909Y0092848D01*
X0391810Y0091947D01*
X0393611Y0091947D01*
X0393611Y0090802D02*
X0393611Y0089000D01*
X0393611Y0089901D02*
X0390909Y0089901D01*
X0391810Y0090802D01*
X0392260Y0091947D02*
X0392260Y0093748D01*
X0392428Y0073070D02*
X0392878Y0072620D01*
X0392878Y0071719D01*
X0393329Y0071269D01*
X0393779Y0071269D01*
X0394230Y0071719D01*
X0394230Y0072620D01*
X0393779Y0073070D01*
X0392428Y0073070D02*
X0391978Y0073070D01*
X0391527Y0072620D01*
X0391527Y0071719D01*
X0391978Y0071269D01*
X0392428Y0070124D02*
X0391527Y0069223D01*
X0394230Y0069223D01*
X0394230Y0070124D02*
X0394230Y0068322D01*
X0394230Y0067177D02*
X0392428Y0067177D01*
X0391527Y0066277D01*
X0392428Y0065376D01*
X0394230Y0065376D01*
X0394230Y0064231D02*
X0392428Y0062429D01*
X0391978Y0062429D01*
X0391527Y0062880D01*
X0391527Y0063781D01*
X0391978Y0064231D01*
X0392878Y0065376D02*
X0392878Y0067177D01*
X0394230Y0064231D02*
X0394230Y0062429D01*
D15*
X0358069Y0300564D02*
X0358069Y0303467D01*
X0356618Y0303467D01*
X0356134Y0302983D01*
X0356134Y0302015D01*
X0356618Y0301532D01*
X0358069Y0301532D01*
X0357101Y0301532D02*
X0356134Y0300564D01*
X0355122Y0300564D02*
X0353187Y0300564D01*
X0352176Y0300564D02*
X0350241Y0300564D01*
X0349229Y0300564D02*
X0349229Y0302499D01*
X0348262Y0303467D01*
X0347294Y0302499D01*
X0347294Y0300564D01*
X0347294Y0302015D02*
X0349229Y0302015D01*
X0346283Y0302983D02*
X0345315Y0302015D01*
X0345315Y0300564D01*
X0345315Y0302015D02*
X0344348Y0302983D01*
X0344348Y0303467D01*
X0343336Y0302499D02*
X0342369Y0303467D01*
X0342369Y0300564D01*
X0343336Y0300564D02*
X0341401Y0300564D01*
X0346283Y0302983D02*
X0346283Y0303467D01*
X0352176Y0303467D02*
X0352176Y0300564D01*
X0354155Y0302015D02*
X0355122Y0302015D01*
X0355122Y0300564D02*
X0355122Y0303467D01*
X0353187Y0303467D01*
D16*
X0178892Y0082916D03*
X0167081Y0082916D03*
X0155270Y0082916D03*
X0155270Y0061416D03*
X0167081Y0061416D03*
X0178892Y0061416D03*
D17*
X0187703Y0070866D02*
X0190703Y0070866D01*
X0193703Y0070866D01*
X0193703Y0073366D02*
X0190703Y0073366D01*
X0187703Y0073366D01*
M02*
