  0
SECTION
  2
HEADER
  9
$ACADVER
  1
AC1009
  9
$FILLMODE
 70
1
  9
$EXTMIN
 10
-11.8000
 20
-5.9220
 30
0.0000
  9
$EXTMAX
 10
63.8000
 20
37.1950
 30
0.0000
  0
ENDSEC
  0
SECTION
  2
TABLES
  0
TABLE
  2
LTYPE
 70
1
  0
LTYPE
  2
CONTINUOUS
 70
64
  3
Solid line
 72
65
 73
0
 40
0
  0
ENDTAB
  0
TABLE
  2
LAYER
 70
255
  0
LAYER
  2
20
 70
64
 62
7
  6
CONTINUOUS
  0
LAYER
  2
21
 70
64
 62
253
  6
CONTINUOUS
  0
LAYER
  2
23
 70
64
 62
7
  6
CONTINUOUS
  0
LAYER
  2
24
 70
64
 62
7
  6
CONTINUOUS
  0
LAYER
  2
44
 70
64
 62
253
  6
CONTINUOUS
  0
LAYER
  2
45
 70
64
 62
253
  6
CONTINUOUS
  0
ENDTAB
  0
ENDSEC
  0
SECTION
  2
BLOCKS
  0
BLOCK
  8
0
  2
RECT
 70
64
 10
0.0000
 20
0.0000
 30
0.0000
  3
RECT
  0
SOLID
  8
0
 10
-0.5000
 20
-0.5000
 30
0.0000
 11
0.5000
 21
-0.5000
 31
0.0000
 12
-0.5000
 22
0.5000
 32
0.0000
 13
0.5000
 23
0.5000
 33
0.0000
  0
ENDBLK
  8
0
  0
BLOCK
  8
0
  2
PIE
 70
64
 10
0.0000
 20
0.0000
 30
0.0000
  3
PIE
  0
POLYLINE
  8
0
 66
1
 10
0.0000
 20
0.0000
 30
0.0000
 40
0.5000
 41
0.5000
 70
0
  0
VERTEX
  8
0
 10
0.0000
 20
-0.2500
 30
0.0000
 42
1.0000
  0
VERTEX
  8
0
 10
0.0000
 20
0.2500
 30
0.0000
 42
1.0000
  0
VERTEX
  8
0
 10
0.0000
 20
-0.2500
 30
0.0000
  0
SEQEND
  8
0
  0
ENDBLK
  8
0
  0
BLOCK
  8
0
  2
OCTAGONP
 70
64
 10
0.0000
 20
0.0000
 30
0.0000
  3
OCTAGONP
  0
POLYLINE
  8
0
 66
1
 10
0.0000
 20
0.0000
 30
0.0000
 40
0.5000
 41
0.5000
 70
0
  0
VERTEX
  8
0
 10
-0.2500
 20
-0.1036
 30
0.0000
  0
VERTEX
  8
0
 10
-0.2500
 20
0.1036
 30
0.0000
  0
VERTEX
  8
0
 10
-0.1036
 20
0.2500
 30
0.0000
  0
VERTEX
  8
0
 10
0.1036
 20
0.2500
 30
0.0000
  0
VERTEX
  8
0
 10
0.2500
 20
0.1036
 30
0.0000
  0
VERTEX
  8
0
 10
0.2500
 20
-0.1036
 30
0.0000
  0
VERTEX
  8
0
 10
0.1036
 20
-0.2500
 30
0.0000
  0
VERTEX
  8
0
 10
-0.1036
 20
-0.2500
 30
0.0000
  0
VERTEX
  8
0
 10
-0.2500
 20
-0.1036
 30
0.0000
  0
VERTEX
  8
0
 10
-0.2500
 20
0.1036
 30
0.0000
  0
SEQEND
  8
0
  0
ENDBLK
  8
0
  0
BLOCK
  8
0
  2
SQUAREP
 70
64
 10
0.0000
 20
0.0000
 30
0.0000
  3
SQUAREP
  0
SOLID
  8
0
 10
-0.5000
 20
-0.5000
 30
0.0000
 11
0.5000
 21
-0.5000
 31
0.0000
 12
-0.5000
 22
0.5000
 32
0.0000
 13
0.5000
 23
0.5000
 33
0.0000
  0
ENDBLK
  8
0
  0
BLOCK
  8
0
  2
ROUNDP
 70
64
 10
0.0000
 20
0.0000
 30
0.0000
  3
ROUNDP
  0
POLYLINE
  8
0
 66
1
 10
0.0000
 20
0.0000
 30
0.0000
 40
0.5000
 41
0.5000
 70
0
  0
VERTEX
  8
0
 10
0.0000
 20
-0.2500
 30
0.0000
 42
1.0000
  0
VERTEX
  8
0
 10
0.0000
 20
0.2500
 30
0.0000
 42
1.0000
  0
VERTEX
  8
0
 10
0.0000
 20
-0.2500
 30
0.0000
  0
SEQEND
  8
0
  0
ENDBLK
  8
0
  0
BLOCK
  8
0
  2
ANNULUSP
 70
64
 10
0.0000
 20
0.0000
 30
0.0000
  3
ANNULUSP
  0
POLYLINE
  8
0
 66
1
 10
0.0000
 20
0.0000
 30
0.0000
 40
0.5000
 41
0.5000
 70
0
  0
VERTEX
  8
0
 10
0.0000
 20
-0.2500
 30
0.0000
 42
1.0000
  0
VERTEX
  8
0
 10
0.0000
 20
0.2500
 30
0.0000
 42
1.0000
  0
VERTEX
  8
0
 10
0.0000
 20
-0.2500
 30
0.0000
  0
SEQEND
  8
0
  0
ENDBLK
  8
0
  0
BLOCK
  8
0
  2
THERMALP
 70
64
 10
0.0000
 20
0.0000
 30
0.0000
  3
THERMALP
  0
POLYLINE
  8
0
 66
1
 10
0.0000
 20
0.0000
 30
0.0000
 40
0.1000
 41
0.1000
 70
0
  0
VERTEX
  8
0
 10
-0.2379
 20
0.4500
 30
0.0000
  0
VERTEX
  8
0
 10
0.2379
 20
0.4500
 30
0.0000
  0
SEQEND
  8
0
  0
POLYLINE
  8
0
 66
1
 10
0.0000
 20
0.0000
 30
0.0000
 40
0.0500
 41
0.0500
 70
0
  0
VERTEX
  8
0
 10
0.2379
 20
0.4250
 30
0.0000
 42
1.0000
  0
VERTEX
  8
0
 10
0.2379
 20
0.4750
 30
0.0000
  0
SEQEND
  8
0
  0
POLYLINE
  8
0
 66
1
 10
0.0000
 20
0.0000
 30
0.0000
 40
0.0500
 41
0.0500
 70
0
  0
VERTEX
  8
0
 10
-0.2379
 20
0.4750
 30
0.0000
 42
1.0000
  0
VERTEX
  8
0
 10
-0.2379
 20
0.4250
 30
0.0000
  0
SEQEND
  8
0
  0
POLYLINE
  8
0
 66
1
 10
0.0000
 20
0.0000
 30
0.0000
 40
0.1000
 41
0.1000
 70
0
  0
VERTEX
  8
0
 10
0.4500
 20
0.2379
 30
0.0000
  0
VERTEX
  8
0
 10
0.4500
 20
-0.2379
 30
0.0000
  0
SEQEND
  8
0
  0
POLYLINE
  8
0
 66
1
 10
0.0000
 20
0.0000
 30
0.0000
 40
0.0500
 41
0.0500
 70
0
  0
VERTEX
  8
0
 10
0.4250
 20
-0.2379
 30
0.0000
 42
1.0000
  0
VERTEX
  8
0
 10
0.4750
 20
-0.2379
 30
0.0000
  0
SEQEND
  8
0
  0
POLYLINE
  8
0
 66
1
 10
0.0000
 20
0.0000
 30
0.0000
 40
0.0500
 41
0.0500
 70
0
  0
VERTEX
  8
0
 10
0.4750
 20
0.2379
 30
0.0000
 42
1.0000
  0
VERTEX
  8
0
 10
0.4250
 20
0.2379
 30
0.0000
  0
SEQEND
  8
0
  0
POLYLINE
  8
0
 66
1
 10
0.0000
 20
0.0000
 30
0.0000
 40
0.1000
 41
0.1000
 70
0
  0
VERTEX
  8
0
 10
0.2379
 20
-0.4500
 30
0.0000
  0
VERTEX
  8
0
 10
-0.2379
 20
-0.4500
 30
0.0000
  0
SEQEND
  8
0
  0
POLYLINE
  8
0
 66
1
 10
0.0000
 20
0.0000
 30
0.0000
 40
0.0500
 41
0.0500
 70
0
  0
VERTEX
  8
0
 10
-0.2379
 20
-0.4250
 30
0.0000
 42
1.0000
  0
VERTEX
  8
0
 10
-0.2379
 20
-0.4750
 30
0.0000
  0
SEQEND
  8
0
  0
POLYLINE
  8
0
 66
1
 10
0.0000
 20
0.0000
 30
0.0000
 40
0.0500
 41
0.0500
 70
0
  0
VERTEX
  8
0
 10
0.2379
 20
-0.4750
 30
0.0000
 42
1.0000
  0
VERTEX
  8
0
 10
0.2379
 20
-0.4250
 30
0.0000
  0
SEQEND
  8
0
  0
POLYLINE
  8
0
 66
1
 10
0.0000
 20
0.0000
 30
0.0000
 40
0.1000
 41
0.1000
 70
0
  0
VERTEX
  8
0
 10
-0.4500
 20
-0.2379
 30
0.0000
  0
VERTEX
  8
0
 10
-0.4500
 20
0.2379
 30
0.0000
  0
SEQEND
  8
0
  0
POLYLINE
  8
0
 66
1
 10
0.0000
 20
0.0000
 30
0.0000
 40
0.0500
 41
0.0500
 70
0
  0
VERTEX
  8
0
 10
-0.4250
 20
0.2379
 30
0.0000
 42
1.0000
  0
VERTEX
  8
0
 10
-0.4750
 20
0.2379
 30
0.0000
  0
SEQEND
  8
0
  0
POLYLINE
  8
0
 66
1
 10
0.0000
 20
0.0000
 30
0.0000
 40
0.0500
 41
0.0500
 70
0
  0
VERTEX
  8
0
 10
-0.4750
 20
-0.2379
 30
0.0000
 42
1.0000
  0
VERTEX
  8
0
 10
-0.4250
 20
-0.2379
 30
0.0000
  0
SEQEND
  8
0
  0
ENDBLK
  8
0
  0
BLOCK
  8
0
  2
OCTAGONV
 70
64
 10
0.0000
 20
0.0000
 30
0.0000
  3
OCTAGONV
  0
POLYLINE
  8
0
 66
1
 10
0.0000
 20
0.0000
 30
0.0000
 40
0.5000
 41
0.5000
 70
0
  0
VERTEX
  8
0
 10
-0.2500
 20
-0.1036
 30
0.0000
  0
VERTEX
  8
0
 10
-0.2500
 20
0.1036
 30
0.0000
  0
VERTEX
  8
0
 10
-0.1036
 20
0.2500
 30
0.0000
  0
VERTEX
  8
0
 10
0.1036
 20
0.2500
 30
0.0000
  0
VERTEX
  8
0
 10
0.2500
 20
0.1036
 30
0.0000
  0
VERTEX
  8
0
 10
0.2500
 20
-0.1036
 30
0.0000
  0
VERTEX
  8
0
 10
0.1036
 20
-0.2500
 30
0.0000
  0
VERTEX
  8
0
 10
-0.1036
 20
-0.2500
 30
0.0000
  0
VERTEX
  8
0
 10
-0.2500
 20
-0.1036
 30
0.0000
  0
VERTEX
  8
0
 10
-0.2500
 20
0.1036
 30
0.0000
  0
SEQEND
  8
0
  0
ENDBLK
  8
0
  0
BLOCK
  8
0
  2
SQUAREV
 70
64
 10
0.0000
 20
0.0000
 30
0.0000
  3
SQUAREV
  0
SOLID
  8
0
 10
-0.5000
 20
-0.5000
 30
0.0000
 11
0.5000
 21
-0.5000
 31
0.0000
 12
-0.5000
 22
0.5000
 32
0.0000
 13
0.5000
 23
0.5000
 33
0.0000
  0
ENDBLK
  8
0
  0
BLOCK
  8
0
  2
ROUNDV
 70
64
 10
0.0000
 20
0.0000
 30
0.0000
  3
ROUNDV
  0
POLYLINE
  8
0
 66
1
 10
0.0000
 20
0.0000
 30
0.0000
 40
0.5000
 41
0.5000
 70
0
  0
VERTEX
  8
0
 10
0.0000
 20
-0.2500
 30
0.0000
 42
1.0000
  0
VERTEX
  8
0
 10
0.0000
 20
0.2500
 30
0.0000
 42
1.0000
  0
VERTEX
  8
0
 10
0.0000
 20
-0.2500
 30
0.0000
  0
SEQEND
  8
0
  0
ENDBLK
  8
0
  0
BLOCK
  8
0
  2
ANNULUSV
 70
64
 10
0.0000
 20
0.0000
 30
0.0000
  3
ANNULUSV
  0
POLYLINE
  8
0
 66
1
 10
0.0000
 20
0.0000
 30
0.0000
 40
0.5000
 41
0.5000
 70
0
  0
VERTEX
  8
0
 10
0.0000
 20
-0.2500
 30
0.0000
 42
1.0000
  0
VERTEX
  8
0
 10
0.0000
 20
0.2500
 30
0.0000
 42
1.0000
  0
VERTEX
  8
0
 10
0.0000
 20
-0.2500
 30
0.0000
  0
SEQEND
  8
0
  0
ENDBLK
  8
0
  0
BLOCK
  8
0
  2
THERMALV
 70
64
 10
0.0000
 20
0.0000
 30
0.0000
  3
THERMALV
  0
POLYLINE
  8
0
 66
1
 10
0.0000
 20
0.0000
 30
0.0000
 40
0.1000
 41
0.1000
 70
0
  0
VERTEX
  8
0
 10
-0.2379
 20
0.4500
 30
0.0000
  0
VERTEX
  8
0
 10
0.2379
 20
0.4500
 30
0.0000
  0
SEQEND
  8
0
  0
POLYLINE
  8
0
 66
1
 10
0.0000
 20
0.0000
 30
0.0000
 40
0.0500
 41
0.0500
 70
0
  0
VERTEX
  8
0
 10
0.2379
 20
0.4250
 30
0.0000
 42
1.0000
  0
VERTEX
  8
0
 10
0.2379
 20
0.4750
 30
0.0000
  0
SEQEND
  8
0
  0
POLYLINE
  8
0
 66
1
 10
0.0000
 20
0.0000
 30
0.0000
 40
0.0500
 41
0.0500
 70
0
  0
VERTEX
  8
0
 10
-0.2379
 20
0.4750
 30
0.0000
 42
1.0000
  0
VERTEX
  8
0
 10
-0.2379
 20
0.4250
 30
0.0000
  0
SEQEND
  8
0
  0
POLYLINE
  8
0
 66
1
 10
0.0000
 20
0.0000
 30
0.0000
 40
0.1000
 41
0.1000
 70
0
  0
VERTEX
  8
0
 10
0.4500
 20
0.2379
 30
0.0000
  0
VERTEX
  8
0
 10
0.4500
 20
-0.2379
 30
0.0000
  0
SEQEND
  8
0
  0
POLYLINE
  8
0
 66
1
 10
0.0000
 20
0.0000
 30
0.0000
 40
0.0500
 41
0.0500
 70
0
  0
VERTEX
  8
0
 10
0.4250
 20
-0.2379
 30
0.0000
 42
1.0000
  0
VERTEX
  8
0
 10
0.4750
 20
-0.2379
 30
0.0000
  0
SEQEND
  8
0
  0
POLYLINE
  8
0
 66
1
 10
0.0000
 20
0.0000
 30
0.0000
 40
0.0500
 41
0.0500
 70
0
  0
VERTEX
  8
0
 10
0.4750
 20
0.2379
 30
0.0000
 42
1.0000
  0
VERTEX
  8
0
 10
0.4250
 20
0.2379
 30
0.0000
  0
SEQEND
  8
0
  0
POLYLINE
  8
0
 66
1
 10
0.0000
 20
0.0000
 30
0.0000
 40
0.1000
 41
0.1000
 70
0
  0
VERTEX
  8
0
 10
0.2379
 20
-0.4500
 30
0.0000
  0
VERTEX
  8
0
 10
-0.2379
 20
-0.4500
 30
0.0000
  0
SEQEND
  8
0
  0
POLYLINE
  8
0
 66
1
 10
0.0000
 20
0.0000
 30
0.0000
 40
0.0500
 41
0.0500
 70
0
  0
VERTEX
  8
0
 10
-0.2379
 20
-0.4250
 30
0.0000
 42
1.0000
  0
VERTEX
  8
0
 10
-0.2379
 20
-0.4750
 30
0.0000
  0
SEQEND
  8
0
  0
POLYLINE
  8
0
 66
1
 10
0.0000
 20
0.0000
 30
0.0000
 40
0.0500
 41
0.0500
 70
0
  0
VERTEX
  8
0
 10
0.2379
 20
-0.4750
 30
0.0000
 42
1.0000
  0
VERTEX
  8
0
 10
0.2379
 20
-0.4250
 30
0.0000
  0
SEQEND
  8
0
  0
POLYLINE
  8
0
 66
1
 10
0.0000
 20
0.0000
 30
0.0000
 40
0.1000
 41
0.1000
 70
0
  0
VERTEX
  8
0
 10
-0.4500
 20
-0.2379
 30
0.0000
  0
VERTEX
  8
0
 10
-0.4500
 20
0.2379
 30
0.0000
  0
SEQEND
  8
0
  0
POLYLINE
  8
0
 66
1
 10
0.0000
 20
0.0000
 30
0.0000
 40
0.0500
 41
0.0500
 70
0
  0
VERTEX
  8
0
 10
-0.4250
 20
0.2379
 30
0.0000
 42
1.0000
  0
VERTEX
  8
0
 10
-0.4750
 20
0.2379
 30
0.0000
  0
SEQEND
  8
0
  0
POLYLINE
  8
0
 66
1
 10
0.0000
 20
0.0000
 30
0.0000
 40
0.0500
 41
0.0500
 70
0
  0
VERTEX
  8
0
 10
-0.4750
 20
-0.2379
 30
0.0000
 42
1.0000
  0
VERTEX
  8
0
 10
-0.4250
 20
-0.2379
 30
0.0000
  0
SEQEND
  8
0
  0
ENDBLK
  8
0
  0
ENDSEC
  0
SECTION
  2
ENTITIES
  0
POLYLINE
  8
20
 66
1
 10
0.0000
 20
0.0000
 30
0.0000
 40
0.1524
 41
0.1524
 70
0
  0
VERTEX
  8
20
 10
0.0000
 20
3.0000
 30
0.0000
 42
0.4142
  0
VERTEX
  8
20
 10
3.8100
 20
0.0000
 30
0.0000
  0
SEQEND
  8
0
  0
POLYLINE
  8
20
 66
1
 10
0.0000
 20
0.0000
 30
0.0000
 40
0.0762
 41
0.0762
 70
0
  0
VERTEX
  8
20
 10
0.0378
 20
3.0045
 30
0.0000
 42
1.0000
  0
VERTEX
  8
20
 10
-0.0378
 20
2.9955
 30
0.0000
  0
SEQEND
  8
0
  0
POLYLINE
  8
20
 66
1
 10
0.0000
 20
0.0000
 30
0.0000
 40
0.0762
 41
0.0762
 70
0
  0
VERTEX
  8
20
 10
3.8145
 20
-0.0378
 30
0.0000
 42
1.0000
  0
VERTEX
  8
20
 10
3.8055
 20
0.0378
 30
0.0000
  0
SEQEND
  8
0
  0
POLYLINE
  8
20
 66
1
 10
0.0000
 20
0.0000
 30
0.0000
 40
0.1524
 41
0.1524
 70
0
  0
VERTEX
  8
20
 10
3.8100
 20
0.0000
 30
0.0000
  0
VERTEX
  8
20
 10
47.9900
 20
0.0000
 30
0.0000
  0
SEQEND
  8
0
  0
POLYLINE
  8
20
 66
1
 10
0.0000
 20
0.0000
 30
0.0000
 40
0.0762
 41
0.0762
 70
0
  0
VERTEX
  8
20
 10
47.9900
 20
-0.0381
 30
0.0000
 42
1.0000
  0
VERTEX
  8
20
 10
47.9900
 20
0.0381
 30
0.0000
  0
SEQEND
  8
0
  0
POLYLINE
  8
20
 66
1
 10
0.0000
 20
0.0000
 30
0.0000
 40
0.0762
 41
0.0762
 70
0
  0
VERTEX
  8
20
 10
3.8100
 20
0.0381
 30
0.0000
 42
1.0000
  0
VERTEX
  8
20
 10
3.8100
 20
-0.0381
 30
0.0000
  0
SEQEND
  8
0
  0
POLYLINE
  8
20
 66
1
 10
0.0000
 20
0.0000
 30
0.0000
 40
0.1524
 41
0.1524
 70
0
  0
VERTEX
  8
20
 10
47.9900
 20
0.0000
 30
0.0000
 42
0.4142
  0
VERTEX
  8
20
 10
52.0000
 20
3.0000
 30
0.0000
  0
SEQEND
  8
0
  0
POLYLINE
  8
20
 66
1
 10
0.0000
 20
0.0000
 30
0.0000
 40
0.0762
 41
0.0762
 70
0
  0
VERTEX
  8
20
 10
47.9954
 20
0.0377
 30
0.0000
 42
1.0000
  0
VERTEX
  8
20
 10
47.9846
 20
-0.0377
 30
0.0000
  0
SEQEND
  8
0
  0
POLYLINE
  8
20
 66
1
 10
0.0000
 20
0.0000
 30
0.0000
 40
0.0762
 41
0.0762
 70
0
  0
VERTEX
  8
20
 10
52.0377
 20
2.9946
 30
0.0000
 42
1.0000
  0
VERTEX
  8
20
 10
51.9623
 20
3.0054
 30
0.0000
  0
SEQEND
  8
0
  0
POLYLINE
  8
20
 66
1
 10
0.0000
 20
0.0000
 30
0.0000
 40
0.1524
 41
0.1524
 70
0
  0
VERTEX
  8
20
 10
52.0000
 20
3.0000
 30
0.0000
  0
VERTEX
  8
20
 10
52.0000
 20
28.0000
 30
0.0000
  0
SEQEND
  8
0
  0
POLYLINE
  8
20
 66
1
 10
0.0000
 20
0.0000
 30
0.0000
 40
0.0762
 41
0.0762
 70
0
  0
VERTEX
  8
20
 10
52.0381
 20
28.0000
 30
0.0000
 42
1.0000
  0
VERTEX
  8
20
 10
51.9619
 20
28.0000
 30
0.0000
  0
SEQEND
  8
0
  0
POLYLINE
  8
20
 66
1
 10
0.0000
 20
0.0000
 30
0.0000
 40
0.0762
 41
0.0762
 70
0
  0
VERTEX
  8
20
 10
51.9619
 20
3.0000
 30
0.0000
 42
1.0000
  0
VERTEX
  8
20
 10
52.0381
 20
3.0000
 30
0.0000
  0
SEQEND
  8
0
  0
POLYLINE
  8
20
 66
1
 10
0.0000
 20
0.0000
 30
0.0000
 40
0.1524
 41
0.1524
 70
0
  0
VERTEX
  8
20
 10
52.0000
 20
28.0000
 30
0.0000
 42
0.4142
  0
VERTEX
  8
20
 10
47.9900
 20
31.0000
 30
0.0000
  0
SEQEND
  8
0
  0
POLYLINE
  8
20
 66
1
 10
0.0000
 20
0.0000
 30
0.0000
 40
0.0762
 41
0.0762
 70
0
  0
VERTEX
  8
20
 10
51.9623
 20
27.9946
 30
0.0000
 42
1.0000
  0
VERTEX
  8
20
 10
52.0377
 20
28.0054
 30
0.0000
  0
SEQEND
  8
0
  0
POLYLINE
  8
20
 66
1
 10
0.0000
 20
0.0000
 30
0.0000
 40
0.0762
 41
0.0762
 70
0
  0
VERTEX
  8
20
 10
47.9846
 20
31.0377
 30
0.0000
 42
1.0000
  0
VERTEX
  8
20
 10
47.9954
 20
30.9623
 30
0.0000
  0
SEQEND
  8
0
  0
POLYLINE
  8
20
 66
1
 10
0.0000
 20
0.0000
 30
0.0000
 40
0.1524
 41
0.1524
 70
0
  0
VERTEX
  8
20
 10
47.9900
 20
31.0000
 30
0.0000
  0
VERTEX
  8
20
 10
3.8100
 20
31.0000
 30
0.0000
  0
SEQEND
  8
0
  0
POLYLINE
  8
20
 66
1
 10
0.0000
 20
0.0000
 30
0.0000
 40
0.0762
 41
0.0762
 70
0
  0
VERTEX
  8
20
 10
3.8100
 20
31.0381
 30
0.0000
 42
1.0000
  0
VERTEX
  8
20
 10
3.8100
 20
30.9619
 30
0.0000
  0
SEQEND
  8
0
  0
POLYLINE
  8
20
 66
1
 10
0.0000
 20
0.0000
 30
0.0000
 40
0.0762
 41
0.0762
 70
0
  0
VERTEX
  8
20
 10
47.9900
 20
30.9619
 30
0.0000
 42
1.0000
  0
VERTEX
  8
20
 10
47.9900
 20
31.0381
 30
0.0000
  0
SEQEND
  8
0
  0
POLYLINE
  8
20
 66
1
 10
0.0000
 20
0.0000
 30
0.0000
 40
0.1524
 41
0.1524
 70
0
  0
VERTEX
  8
20
 10
3.8100
 20
31.0000
 30
0.0000
 42
0.4142
  0
VERTEX
  8
20
 10
0.0000
 20
28.0000
 30
0.0000
  0
SEQEND
  8
0
  0
POLYLINE
  8
20
 66
1
 10
0.0000
 20
0.0000
 30
0.0000
 40
0.0762
 41
0.0762
 70
0
  0
VERTEX
  8
20
 10
3.8055
 20
30.9622
 30
0.0000
 42
1.0000
  0
VERTEX
  8
20
 10
3.8145
 20
31.0378
 30
0.0000
  0
SEQEND
  8
0
  0
POLYLINE
  8
20
 66
1
 10
0.0000
 20
0.0000
 30
0.0000
 40
0.0762
 41
0.0762
 70
0
  0
VERTEX
  8
20
 10
-0.0378
 20
28.0045
 30
0.0000
 42
1.0000
  0
VERTEX
  8
20
 10
0.0378
 20
27.9955
 30
0.0000
  0
SEQEND
  8
0
  0
POLYLINE
  8
20
 66
1
 10
0.0000
 20
0.0000
 30
0.0000
 40
0.1524
 41
0.1524
 70
0
  0
VERTEX
  8
20
 10
0.0000
 20
28.0000
 30
0.0000
  0
VERTEX
  8
20
 10
0.0000
 20
3.0000
 30
0.0000
  0
SEQEND
  8
0
  0
POLYLINE
  8
20
 66
1
 10
0.0000
 20
0.0000
 30
0.0000
 40
0.0762
 41
0.0762
 70
0
  0
VERTEX
  8
20
 10
-0.0381
 20
3.0000
 30
0.0000
 42
1.0000
  0
VERTEX
  8
20
 10
0.0381
 20
3.0000
 30
0.0000
  0
SEQEND
  8
0
  0
POLYLINE
  8
20
 66
1
 10
0.0000
 20
0.0000
 30
0.0000
 40
0.0762
 41
0.0762
 70
0
  0
VERTEX
  8
20
 10
0.0381
 20
28.0000
 30
0.0000
 42
1.0000
  0
VERTEX
  8
20
 10
-0.0381
 20
28.0000
 30
0.0000
  0
SEQEND
  8
0
  0
CIRCLE
  8
20
 10
4.0000
 20
4.0000
 30
0.0000
 40
2.0000
  0
CIRCLE
  8
20
 10
48.0000
 20
4.0000
 30
0.0000
 40
2.0000
  0
CIRCLE
  8
20
 10
4.0000
 20
27.0000
 30
0.0000
 40
2.0000
  0
CIRCLE
  8
20
 10
48.0000
 20
27.0000
 30
0.0000
 40
2.0000
  0
POINT
  8
24
 10
9.3200
 20
29.0300
 30
0.0000
  0
POINT
  8
24
 10
37.6600
 20
29.0300
 30
0.0000
  0
POINT
  8
23
 10
8.0000
 20
17.0000
 30
0.0000
  0
POLYLINE
  8
21
 66
1
 10
0.0000
 20
0.0000
 30
0.0000
 40
0.1270
 41
0.1270
 70
0
  0
VERTEX
  8
21
 10
3.2375
 20
10.7770
 30
0.0000
  0
VERTEX
  8
21
 10
12.7625
 20
10.7770
 30
0.0000
  0
SEQEND
  8
0
  0
POLYLINE
  8
21
 66
1
 10
0.0000
 20
0.0000
 30
0.0000
 40
0.0635
 41
0.0635
 70
0
  0
VERTEX
  8
21
 10
12.7625
 20
10.7453
 30
0.0000
 42
1.0000
  0
VERTEX
  8
21
 10
12.7625
 20
10.8088
 30
0.0000
  0
SEQEND
  8
0
  0
POLYLINE
  8
21
 66
1
 10
0.0000
 20
0.0000
 30
0.0000
 40
0.0635
 41
0.0635
 70
0
  0
VERTEX
  8
21
 10
3.2375
 20
10.8088
 30
0.0000
 42
1.0000
  0
VERTEX
  8
21
 10
3.2375
 20
10.7453
 30
0.0000
  0
SEQEND
  8
0
  0
POLYLINE
  8
21
 66
1
 10
0.0000
 20
0.0000
 30
0.0000
 40
0.1270
 41
0.1270
 70
0
  0
VERTEX
  8
21
 10
12.7625
 20
21.8260
 30
0.0000
  0
VERTEX
  8
21
 10
3.2375
 20
21.8260
 30
0.0000
  0
SEQEND
  8
0
  0
POLYLINE
  8
21
 66
1
 10
0.0000
 20
0.0000
 30
0.0000
 40
0.0635
 41
0.0635
 70
0
  0
VERTEX
  8
21
 10
3.2375
 20
21.8577
 30
0.0000
 42
1.0000
  0
VERTEX
  8
21
 10
3.2375
 20
21.7943
 30
0.0000
  0
SEQEND
  8
0
  0
POLYLINE
  8
21
 66
1
 10
0.0000
 20
0.0000
 30
0.0000
 40
0.0635
 41
0.0635
 70
0
  0
VERTEX
  8
21
 10
12.7625
 20
21.7943
 30
0.0000
 42
1.0000
  0
VERTEX
  8
21
 10
12.7625
 20
21.8577
 30
0.0000
  0
SEQEND
  8
0
  0
POLYLINE
  8
21
 66
1
 10
0.0000
 20
0.0000
 30
0.0000
 40
0.1270
 41
0.1270
 70
0
  0
VERTEX
  8
21
 10
3.2375
 20
19.5400
 30
0.0000
  0
VERTEX
  8
21
 10
3.2375
 20
21.7625
 30
0.0000
  0
SEQEND
  8
0
  0
POLYLINE
  8
21
 66
1
 10
0.0000
 20
0.0000
 30
0.0000
 40
0.0635
 41
0.0635
 70
0
  0
VERTEX
  8
21
 10
3.2693
 20
21.7625
 30
0.0000
 42
1.0000
  0
VERTEX
  8
21
 10
3.2058
 20
21.7625
 30
0.0000
  0
SEQEND
  8
0
  0
POLYLINE
  8
21
 66
1
 10
0.0000
 20
0.0000
 30
0.0000
 40
0.0635
 41
0.0635
 70
0
  0
VERTEX
  8
21
 10
3.2058
 20
19.5400
 30
0.0000
 42
1.0000
  0
VERTEX
  8
21
 10
3.2693
 20
19.5400
 30
0.0000
  0
SEQEND
  8
0
  0
POLYLINE
  8
21
 66
1
 10
0.0000
 20
0.0000
 30
0.0000
 40
0.1270
 41
0.1270
 70
0
  0
VERTEX
  8
21
 10
12.7625
 20
19.5400
 30
0.0000
  0
VERTEX
  8
21
 10
12.7625
 20
21.7625
 30
0.0000
  0
SEQEND
  8
0
  0
POLYLINE
  8
21
 66
1
 10
0.0000
 20
0.0000
 30
0.0000
 40
0.0635
 41
0.0635
 70
0
  0
VERTEX
  8
21
 10
12.7943
 20
21.7625
 30
0.0000
 42
1.0000
  0
VERTEX
  8
21
 10
12.7308
 20
21.7625
 30
0.0000
  0
SEQEND
  8
0
  0
POLYLINE
  8
21
 66
1
 10
0.0000
 20
0.0000
 30
0.0000
 40
0.0635
 41
0.0635
 70
0
  0
VERTEX
  8
21
 10
12.7308
 20
19.5400
 30
0.0000
 42
1.0000
  0
VERTEX
  8
21
 10
12.7943
 20
19.5400
 30
0.0000
  0
SEQEND
  8
0
  0
POLYLINE
  8
21
 66
1
 10
0.0000
 20
0.0000
 30
0.0000
 40
0.1270
 41
0.1270
 70
0
  0
VERTEX
  8
21
 10
3.2375
 20
10.7770
 30
0.0000
  0
VERTEX
  8
21
 10
3.2375
 20
14.4600
 30
0.0000
  0
SEQEND
  8
0
  0
POLYLINE
  8
21
 66
1
 10
0.0000
 20
0.0000
 30
0.0000
 40
0.0635
 41
0.0635
 70
0
  0
VERTEX
  8
21
 10
3.2693
 20
14.4600
 30
0.0000
 42
1.0000
  0
VERTEX
  8
21
 10
3.2058
 20
14.4600
 30
0.0000
  0
SEQEND
  8
0
  0
POLYLINE
  8
21
 66
1
 10
0.0000
 20
0.0000
 30
0.0000
 40
0.0635
 41
0.0635
 70
0
  0
VERTEX
  8
21
 10
3.2058
 20
10.7770
 30
0.0000
 42
1.0000
  0
VERTEX
  8
21
 10
3.2693
 20
10.7770
 30
0.0000
  0
SEQEND
  8
0
  0
POLYLINE
  8
21
 66
1
 10
0.0000
 20
0.0000
 30
0.0000
 40
0.1270
 41
0.1270
 70
0
  0
VERTEX
  8
21
 10
12.7625
 20
10.7770
 30
0.0000
  0
VERTEX
  8
21
 10
12.7625
 20
14.4600
 30
0.0000
  0
SEQEND
  8
0
  0
POLYLINE
  8
21
 66
1
 10
0.0000
 20
0.0000
 30
0.0000
 40
0.0635
 41
0.0635
 70
0
  0
VERTEX
  8
21
 10
12.7943
 20
14.4600
 30
0.0000
 42
1.0000
  0
VERTEX
  8
21
 10
12.7308
 20
14.4600
 30
0.0000
  0
SEQEND
  8
0
  0
POLYLINE
  8
21
 66
1
 10
0.0000
 20
0.0000
 30
0.0000
 40
0.0635
 41
0.0635
 70
0
  0
VERTEX
  8
21
 10
12.7308
 20
10.7770
 30
0.0000
 42
1.0000
  0
VERTEX
  8
21
 10
12.7943
 20
10.7770
 30
0.0000
  0
SEQEND
  8
0
  0
POLYLINE
  8
21
 66
1
 10
0.0000
 20
0.0000
 30
0.0000
 40
0.1270
 41
0.1270
 70
0
  0
VERTEX
  8
21
 10
8.0000
 20
14.9680
 30
0.0000
 42
1.0000
  0
VERTEX
  8
21
 10
8.0000
 20
19.0320
 30
0.0000
 42
1.0000
  0
VERTEX
  8
21
 10
8.0000
 20
14.9680
 30
0.0000
  0
SEQEND
  8
0
  0
POINT
  8
23
 10
44.0000
 20
17.0000
 30
0.0000
  0
POLYLINE
  8
21
 66
1
 10
0.0000
 20
0.0000
 30
0.0000
 40
0.1270
 41
0.1270
 70
0
  0
VERTEX
  8
21
 10
39.2375
 20
10.7770
 30
0.0000
  0
VERTEX
  8
21
 10
48.7625
 20
10.7770
 30
0.0000
  0
SEQEND
  8
0
  0
POLYLINE
  8
21
 66
1
 10
0.0000
 20
0.0000
 30
0.0000
 40
0.0635
 41
0.0635
 70
0
  0
VERTEX
  8
21
 10
48.7625
 20
10.7453
 30
0.0000
 42
1.0000
  0
VERTEX
  8
21
 10
48.7625
 20
10.8088
 30
0.0000
  0
SEQEND
  8
0
  0
POLYLINE
  8
21
 66
1
 10
0.0000
 20
0.0000
 30
0.0000
 40
0.0635
 41
0.0635
 70
0
  0
VERTEX
  8
21
 10
39.2375
 20
10.8088
 30
0.0000
 42
1.0000
  0
VERTEX
  8
21
 10
39.2375
 20
10.7453
 30
0.0000
  0
SEQEND
  8
0
  0
POLYLINE
  8
21
 66
1
 10
0.0000
 20
0.0000
 30
0.0000
 40
0.1270
 41
0.1270
 70
0
  0
VERTEX
  8
21
 10
48.7625
 20
21.8260
 30
0.0000
  0
VERTEX
  8
21
 10
39.2375
 20
21.8260
 30
0.0000
  0
SEQEND
  8
0
  0
POLYLINE
  8
21
 66
1
 10
0.0000
 20
0.0000
 30
0.0000
 40
0.0635
 41
0.0635
 70
0
  0
VERTEX
  8
21
 10
39.2375
 20
21.8577
 30
0.0000
 42
1.0000
  0
VERTEX
  8
21
 10
39.2375
 20
21.7943
 30
0.0000
  0
SEQEND
  8
0
  0
POLYLINE
  8
21
 66
1
 10
0.0000
 20
0.0000
 30
0.0000
 40
0.0635
 41
0.0635
 70
0
  0
VERTEX
  8
21
 10
48.7625
 20
21.7943
 30
0.0000
 42
1.0000
  0
VERTEX
  8
21
 10
48.7625
 20
21.8577
 30
0.0000
  0
SEQEND
  8
0
  0
POLYLINE
  8
21
 66
1
 10
0.0000
 20
0.0000
 30
0.0000
 40
0.1270
 41
0.1270
 70
0
  0
VERTEX
  8
21
 10
39.2375
 20
19.5400
 30
0.0000
  0
VERTEX
  8
21
 10
39.2375
 20
21.7625
 30
0.0000
  0
SEQEND
  8
0
  0
POLYLINE
  8
21
 66
1
 10
0.0000
 20
0.0000
 30
0.0000
 40
0.0635
 41
0.0635
 70
0
  0
VERTEX
  8
21
 10
39.2693
 20
21.7625
 30
0.0000
 42
1.0000
  0
VERTEX
  8
21
 10
39.2058
 20
21.7625
 30
0.0000
  0
SEQEND
  8
0
  0
POLYLINE
  8
21
 66
1
 10
0.0000
 20
0.0000
 30
0.0000
 40
0.0635
 41
0.0635
 70
0
  0
VERTEX
  8
21
 10
39.2058
 20
19.5400
 30
0.0000
 42
1.0000
  0
VERTEX
  8
21
 10
39.2693
 20
19.5400
 30
0.0000
  0
SEQEND
  8
0
  0
POLYLINE
  8
21
 66
1
 10
0.0000
 20
0.0000
 30
0.0000
 40
0.1270
 41
0.1270
 70
0
  0
VERTEX
  8
21
 10
48.7625
 20
19.5400
 30
0.0000
  0
VERTEX
  8
21
 10
48.7625
 20
21.7625
 30
0.0000
  0
SEQEND
  8
0
  0
POLYLINE
  8
21
 66
1
 10
0.0000
 20
0.0000
 30
0.0000
 40
0.0635
 41
0.0635
 70
0
  0
VERTEX
  8
21
 10
48.7943
 20
21.7625
 30
0.0000
 42
1.0000
  0
VERTEX
  8
21
 10
48.7308
 20
21.7625
 30
0.0000
  0
SEQEND
  8
0
  0
POLYLINE
  8
21
 66
1
 10
0.0000
 20
0.0000
 30
0.0000
 40
0.0635
 41
0.0635
 70
0
  0
VERTEX
  8
21
 10
48.7308
 20
19.5400
 30
0.0000
 42
1.0000
  0
VERTEX
  8
21
 10
48.7943
 20
19.5400
 30
0.0000
  0
SEQEND
  8
0
  0
POLYLINE
  8
21
 66
1
 10
0.0000
 20
0.0000
 30
0.0000
 40
0.1270
 41
0.1270
 70
0
  0
VERTEX
  8
21
 10
39.2375
 20
10.7770
 30
0.0000
  0
VERTEX
  8
21
 10
39.2375
 20
14.4600
 30
0.0000
  0
SEQEND
  8
0
  0
POLYLINE
  8
21
 66
1
 10
0.0000
 20
0.0000
 30
0.0000
 40
0.0635
 41
0.0635
 70
0
  0
VERTEX
  8
21
 10
39.2693
 20
14.4600
 30
0.0000
 42
1.0000
  0
VERTEX
  8
21
 10
39.2058
 20
14.4600
 30
0.0000
  0
SEQEND
  8
0
  0
POLYLINE
  8
21
 66
1
 10
0.0000
 20
0.0000
 30
0.0000
 40
0.0635
 41
0.0635
 70
0
  0
VERTEX
  8
21
 10
39.2058
 20
10.7770
 30
0.0000
 42
1.0000
  0
VERTEX
  8
21
 10
39.2693
 20
10.7770
 30
0.0000
  0
SEQEND
  8
0
  0
POLYLINE
  8
21
 66
1
 10
0.0000
 20
0.0000
 30
0.0000
 40
0.1270
 41
0.1270
 70
0
  0
VERTEX
  8
21
 10
48.7625
 20
10.7770
 30
0.0000
  0
VERTEX
  8
21
 10
48.7625
 20
14.4600
 30
0.0000
  0
SEQEND
  8
0
  0
POLYLINE
  8
21
 66
1
 10
0.0000
 20
0.0000
 30
0.0000
 40
0.0635
 41
0.0635
 70
0
  0
VERTEX
  8
21
 10
48.7943
 20
14.4600
 30
0.0000
 42
1.0000
  0
VERTEX
  8
21
 10
48.7308
 20
14.4600
 30
0.0000
  0
SEQEND
  8
0
  0
POLYLINE
  8
21
 66
1
 10
0.0000
 20
0.0000
 30
0.0000
 40
0.0635
 41
0.0635
 70
0
  0
VERTEX
  8
21
 10
48.7308
 20
10.7770
 30
0.0000
 42
1.0000
  0
VERTEX
  8
21
 10
48.7943
 20
10.7770
 30
0.0000
  0
SEQEND
  8
0
  0
POLYLINE
  8
21
 66
1
 10
0.0000
 20
0.0000
 30
0.0000
 40
0.1270
 41
0.1270
 70
0
  0
VERTEX
  8
21
 10
44.0000
 20
14.9680
 30
0.0000
 42
1.0000
  0
VERTEX
  8
21
 10
44.0000
 20
19.0320
 30
0.0000
 42
1.0000
  0
VERTEX
  8
21
 10
44.0000
 20
14.9680
 30
0.0000
  0
SEQEND
  8
0
  0
POINT
  8
23
 10
26.0000
 20
17.0000
 30
0.0000
  0
POLYLINE
  8
21
 66
1
 10
0.0000
 20
0.0000
 30
0.0000
 40
0.1524
 41
0.1524
 70
0
  0
VERTEX
  8
21
 10
27.2401
 20
17.8858
 30
0.0000
 42
0.2422
  0
VERTEX
  8
21
 10
26.0000
 20
18.5240
 30
0.0000
  0
SEQEND
  8
0
  0
POLYLINE
  8
21
 66
1
 10
0.0000
 20
0.0000
 30
0.0000
 40
0.0762
 41
0.0762
 70
0
  0
VERTEX
  8
21
 10
27.2091
 20
17.8637
 30
0.0000
 42
1.0000
  0
VERTEX
  8
21
 10
27.2711
 20
17.9079
 30
0.0000
  0
SEQEND
  8
0
  0
POLYLINE
  8
21
 66
1
 10
0.0000
 20
0.0000
 30
0.0000
 40
0.0762
 41
0.0762
 70
0
  0
VERTEX
  8
21
 10
26.0000
 20
18.5621
 30
0.0000
 42
1.0000
  0
VERTEX
  8
21
 10
26.0000
 20
18.4859
 30
0.0000
  0
SEQEND
  8
0
  0
POLYLINE
  8
21
 66
1
 10
0.0000
 20
0.0000
 30
0.0000
 40
0.1524
 41
0.1524
 70
0
  0
VERTEX
  8
21
 10
26.0000
 20
18.5240
 30
0.0000
 42
0.2361
  0
VERTEX
  8
21
 10
24.7808
 20
17.9144
 30
0.0000
  0
SEQEND
  8
0
  0
POLYLINE
  8
21
 66
1
 10
0.0000
 20
0.0000
 30
0.0000
 40
0.0762
 41
0.0762
 70
0
  0
VERTEX
  8
21
 10
26.0000
 20
18.4859
 30
0.0000
 42
1.0000
  0
VERTEX
  8
21
 10
26.0000
 20
18.5621
 30
0.0000
  0
SEQEND
  8
0
  0
POLYLINE
  8
21
 66
1
 10
0.0000
 20
0.0000
 30
0.0000
 40
0.0762
 41
0.0762
 70
0
  0
VERTEX
  8
21
 10
24.7503
 20
17.9373
 30
0.0000
 42
1.0000
  0
VERTEX
  8
21
 10
24.8113
 20
17.8915
 30
0.0000
  0
SEQEND
  8
0
  0
POLYLINE
  8
21
 66
1
 10
0.0000
 20
0.0000
 30
0.0000
 40
0.1524
 41
0.1524
 70
0
  0
VERTEX
  8
21
 10
26.0000
 20
15.4760
 30
0.0000
 42
0.2315
  0
VERTEX
  8
21
 10
27.2030
 20
16.0644
 30
0.0000
  0
SEQEND
  8
0
  0
POLYLINE
  8
21
 66
1
 10
0.0000
 20
0.0000
 30
0.0000
 40
0.0762
 41
0.0762
 70
0
  0
VERTEX
  8
21
 10
26.0000
 20
15.5141
 30
0.0000
 42
1.0000
  0
VERTEX
  8
21
 10
26.0000
 20
15.4379
 30
0.0000
  0
SEQEND
  8
0
  0
POLYLINE
  8
21
 66
1
 10
0.0000
 20
0.0000
 30
0.0000
 40
0.0762
 41
0.0762
 70
0
  0
VERTEX
  8
21
 10
27.2331
 20
16.0410
 30
0.0000
 42
1.0000
  0
VERTEX
  8
21
 10
27.1729
 20
16.0878
 30
0.0000
  0
SEQEND
  8
0
  0
POLYLINE
  8
21
 66
1
 10
0.0000
 20
0.0000
 30
0.0000
 40
0.1524
 41
0.1524
 70
0
  0
VERTEX
  8
21
 10
24.7970
 20
16.0644
 30
0.0000
 42
0.2315
  0
VERTEX
  8
21
 10
26.0000
 20
15.4760
 30
0.0000
  0
SEQEND
  8
0
  0
POLYLINE
  8
21
 66
1
 10
0.0000
 20
0.0000
 30
0.0000
 40
0.0762
 41
0.0762
 70
0
  0
VERTEX
  8
21
 10
24.8271
 20
16.0878
 30
0.0000
 42
1.0000
  0
VERTEX
  8
21
 10
24.7669
 20
16.0410
 30
0.0000
  0
SEQEND
  8
0
  0
POLYLINE
  8
21
 66
1
 10
0.0000
 20
0.0000
 30
0.0000
 40
0.0762
 41
0.0762
 70
0
  0
VERTEX
  8
21
 10
26.0000
 20
15.4379
 30
0.0000
 42
1.0000
  0
VERTEX
  8
21
 10
26.0000
 20
15.5141
 30
0.0000
  0
SEQEND
  8
0
  0
POLYLINE
  8
21
 66
1
 10
0.0000
 20
0.0000
 30
0.0000
 40
0.2540
 41
0.2540
 70
0
  0
VERTEX
  8
21
 10
27.5610
 20
18.3009
 30
0.0000
 42
0.2226
  0
VERTEX
  8
21
 10
26.0000
 20
19.0320
 30
0.0000
  0
SEQEND
  8
0
  0
POLYLINE
  8
21
 66
1
 10
0.0000
 20
0.0000
 30
0.0000
 40
0.1270
 41
0.1270
 70
0
  0
VERTEX
  8
21
 10
27.5122
 20
18.2602
 30
0.0000
 42
1.0000
  0
VERTEX
  8
21
 10
27.6098
 20
18.3416
 30
0.0000
  0
SEQEND
  8
0
  0
POLYLINE
  8
21
 66
1
 10
0.0000
 20
0.0000
 30
0.0000
 40
0.1270
 41
0.1270
 70
0
  0
VERTEX
  8
21
 10
26.0000
 20
19.0955
 30
0.0000
 42
1.0000
  0
VERTEX
  8
21
 10
26.0000
 20
18.9685
 30
0.0000
  0
SEQEND
  8
0
  0
POLYLINE
  8
21
 66
1
 10
0.0000
 20
0.0000
 30
0.0000
 40
0.2540
 41
0.2540
 70
0
  0
VERTEX
  8
21
 10
26.0000
 20
19.0320
 30
0.0000
 42
0.2770
  0
VERTEX
  8
21
 10
24.2071
 20
17.9562
 30
0.0000
  0
SEQEND
  8
0
  0
POLYLINE
  8
21
 66
1
 10
0.0000
 20
0.0000
 30
0.0000
 40
0.1270
 41
0.1270
 70
0
  0
VERTEX
  8
21
 10
26.0000
 20
18.9685
 30
0.0000
 42
1.0000
  0
VERTEX
  8
21
 10
26.0000
 20
19.0955
 30
0.0000
  0
SEQEND
  8
0
  0
POLYLINE
  8
21
 66
1
 10
0.0000
 20
0.0000
 30
0.0000
 40
0.1270
 41
0.1270
 70
0
  0
VERTEX
  8
21
 10
24.1511
 20
17.9861
 30
0.0000
 42
1.0000
  0
VERTEX
  8
21
 10
24.2631
 20
17.9263
 30
0.0000
  0
SEQEND
  8
0
  0
POLYLINE
  8
21
 66
1
 10
0.0000
 20
0.0000
 30
0.0000
 40
0.2540
 41
0.2540
 70
0
  0
VERTEX
  8
21
 10
26.0000
 20
14.9680
 30
0.0000
 42
0.2206
  0
VERTEX
  8
21
 10
27.5512
 20
15.6874
 30
0.0000
  0
SEQEND
  8
0
  0
POLYLINE
  8
21
 66
1
 10
0.0000
 20
0.0000
 30
0.0000
 40
0.1270
 41
0.1270
 70
0
  0
VERTEX
  8
21
 10
26.0000
 20
15.0315
 30
0.0000
 42
1.0000
  0
VERTEX
  8
21
 10
26.0000
 20
14.9045
 30
0.0000
  0
SEQEND
  8
0
  0
POLYLINE
  8
21
 66
1
 10
0.0000
 20
0.0000
 30
0.0000
 40
0.1270
 41
0.1270
 70
0
  0
VERTEX
  8
21
 10
27.5997
 20
15.6464
 30
0.0000
 42
1.0000
  0
VERTEX
  8
21
 10
27.5027
 20
15.7284
 30
0.0000
  0
SEQEND
  8
0
  0
POLYLINE
  8
21
 66
1
 10
0.0000
 20
0.0000
 30
0.0000
 40
0.2540
 41
0.2540
 70
0
  0
VERTEX
  8
21
 10
24.2357
 20
15.9918
 30
0.0000
 42
0.2691
  0
VERTEX
  8
21
 10
26.0000
 20
14.9680
 30
0.0000
  0
SEQEND
  8
0
  0
POLYLINE
  8
21
 66
1
 10
0.0000
 20
0.0000
 30
0.0000
 40
0.1270
 41
0.1270
 70
0
  0
VERTEX
  8
21
 10
24.2908
 20
16.0233
 30
0.0000
 42
1.0000
  0
VERTEX
  8
21
 10
24.1806
 20
15.9603
 30
0.0000
  0
SEQEND
  8
0
  0
POLYLINE
  8
21
 66
1
 10
0.0000
 20
0.0000
 30
0.0000
 40
0.1270
 41
0.1270
 70
0
  0
VERTEX
  8
21
 10
26.0000
 20
14.9045
 30
0.0000
 42
1.0000
  0
VERTEX
  8
21
 10
26.0000
 20
15.0315
 30
0.0000
  0
SEQEND
  8
0
  0
POINT
  8
24
 10
19.0000
 20
16.0000
 30
0.0000
  0
POINT
  8
24
 10
33.0000
 20
16.0000
 30
0.0000
  0
POINT
  8
24
 10
26.0000
 20
6.0000
 30
0.0000
  0
POINT
  8
23
 10
19.0000
 20
5.0000
 30
0.0000
  0
POLYLINE
  8
21
 66
1
 10
0.0000
 20
0.0000
 30
0.0000
 40
0.3048
 41
0.3048
 70
0
  0
VERTEX
  8
21
 10
19.6350
 20
5.6350
 30
0.0000
  0
VERTEX
  8
21
 10
18.3650
 20
5.6350
 30
0.0000
  0
SEQEND
  8
0
  0
POLYLINE
  8
21
 66
1
 10
0.0000
 20
0.0000
 30
0.0000
 40
0.1524
 41
0.1524
 70
0
  0
VERTEX
  8
21
 10
18.3650
 20
5.7112
 30
0.0000
 42
1.0000
  0
VERTEX
  8
21
 10
18.3650
 20
5.5588
 30
0.0000
  0
SEQEND
  8
0
  0
POLYLINE
  8
21
 66
1
 10
0.0000
 20
0.0000
 30
0.0000
 40
0.1524
 41
0.1524
 70
0
  0
VERTEX
  8
21
 10
19.6350
 20
5.5588
 30
0.0000
 42
1.0000
  0
VERTEX
  8
21
 10
19.6350
 20
5.7112
 30
0.0000
  0
SEQEND
  8
0
  0
POLYLINE
  8
21
 66
1
 10
0.0000
 20
0.0000
 30
0.0000
 40
0.3048
 41
0.3048
 70
0
  0
VERTEX
  8
21
 10
18.3650
 20
5.6350
 30
0.0000
  0
VERTEX
  8
21
 10
19.0000
 20
4.3650
 30
0.0000
  0
SEQEND
  8
0
  0
POLYLINE
  8
21
 66
1
 10
0.0000
 20
0.0000
 30
0.0000
 40
0.1524
 41
0.1524
 70
0
  0
VERTEX
  8
21
 10
18.9318
 20
4.3309
 30
0.0000
 42
1.0000
  0
VERTEX
  8
21
 10
19.0682
 20
4.3991
 30
0.0000
  0
SEQEND
  8
0
  0
POLYLINE
  8
21
 66
1
 10
0.0000
 20
0.0000
 30
0.0000
 40
0.1524
 41
0.1524
 70
0
  0
VERTEX
  8
21
 10
18.4332
 20
5.6691
 30
0.0000
 42
1.0000
  0
VERTEX
  8
21
 10
18.2968
 20
5.6009
 30
0.0000
  0
SEQEND
  8
0
  0
POLYLINE
  8
21
 66
1
 10
0.0000
 20
0.0000
 30
0.0000
 40
0.3048
 41
0.3048
 70
0
  0
VERTEX
  8
21
 10
19.0000
 20
4.3650
 30
0.0000
  0
VERTEX
  8
21
 10
19.6350
 20
5.6350
 30
0.0000
  0
SEQEND
  8
0
  0
POLYLINE
  8
21
 66
1
 10
0.0000
 20
0.0000
 30
0.0000
 40
0.1524
 41
0.1524
 70
0
  0
VERTEX
  8
21
 10
19.7032
 20
5.6009
 30
0.0000
 42
1.0000
  0
VERTEX
  8
21
 10
19.5668
 20
5.6691
 30
0.0000
  0
SEQEND
  8
0
  0
POLYLINE
  8
21
 66
1
 10
0.0000
 20
0.0000
 30
0.0000
 40
0.1524
 41
0.1524
 70
0
  0
VERTEX
  8
21
 10
18.9318
 20
4.3991
 30
0.0000
 42
1.0000
  0
VERTEX
  8
21
 10
19.0682
 20
4.3309
 30
0.0000
  0
SEQEND
  8
0
  0
POLYLINE
  8
21
 66
1
 10
0.0000
 20
0.0000
 30
0.0000
 40
0.3048
 41
0.3048
 70
0
  0
VERTEX
  8
21
 10
19.6350
 20
4.3650
 30
0.0000
  0
VERTEX
  8
21
 10
19.0000
 20
4.3650
 30
0.0000
  0
SEQEND
  8
0
  0
POLYLINE
  8
21
 66
1
 10
0.0000
 20
0.0000
 30
0.0000
 40
0.1524
 41
0.1524
 70
0
  0
VERTEX
  8
21
 10
19.0000
 20
4.4412
 30
0.0000
 42
1.0000
  0
VERTEX
  8
21
 10
19.0000
 20
4.2888
 30
0.0000
  0
SEQEND
  8
0
  0
POLYLINE
  8
21
 66
1
 10
0.0000
 20
0.0000
 30
0.0000
 40
0.1524
 41
0.1524
 70
0
  0
VERTEX
  8
21
 10
19.6350
 20
4.2888
 30
0.0000
 42
1.0000
  0
VERTEX
  8
21
 10
19.6350
 20
4.4412
 30
0.0000
  0
SEQEND
  8
0
  0
POLYLINE
  8
21
 66
1
 10
0.0000
 20
0.0000
 30
0.0000
 40
0.3048
 41
0.3048
 70
0
  0
VERTEX
  8
21
 10
19.0000
 20
4.3650
 30
0.0000
  0
VERTEX
  8
21
 10
18.3650
 20
4.3650
 30
0.0000
  0
SEQEND
  8
0
  0
POLYLINE
  8
21
 66
1
 10
0.0000
 20
0.0000
 30
0.0000
 40
0.1524
 41
0.1524
 70
0
  0
VERTEX
  8
21
 10
18.3650
 20
4.4412
 30
0.0000
 42
1.0000
  0
VERTEX
  8
21
 10
18.3650
 20
4.2888
 30
0.0000
  0
SEQEND
  8
0
  0
POLYLINE
  8
21
 66
1
 10
0.0000
 20
0.0000
 30
0.0000
 40
0.1524
 41
0.1524
 70
0
  0
VERTEX
  8
21
 10
19.0000
 20
4.2888
 30
0.0000
 42
1.0000
  0
VERTEX
  8
21
 10
19.0000
 20
4.4412
 30
0.0000
  0
SEQEND
  8
0
  0
POLYLINE
  8
21
 66
1
 10
0.0000
 20
0.0000
 30
0.0000
 40
0.1270
 41
0.1270
 70
0
  0
VERTEX
  8
21
 10
15.1900
 20
8.8100
 30
0.0000
  0
VERTEX
  8
21
 10
15.1900
 20
1.1900
 30
0.0000
  0
SEQEND
  8
0
  0
POLYLINE
  8
21
 66
1
 10
0.0000
 20
0.0000
 30
0.0000
 40
0.0635
 41
0.0635
 70
0
  0
VERTEX
  8
21
 10
15.1583
 20
1.1900
 30
0.0000
 42
1.0000
  0
VERTEX
  8
21
 10
15.2218
 20
1.1900
 30
0.0000
  0
SEQEND
  8
0
  0
POLYLINE
  8
21
 66
1
 10
0.0000
 20
0.0000
 30
0.0000
 40
0.0635
 41
0.0635
 70
0
  0
VERTEX
  8
21
 10
15.2218
 20
8.8100
 30
0.0000
 42
1.0000
  0
VERTEX
  8
21
 10
15.1583
 20
8.8100
 30
0.0000
  0
SEQEND
  8
0
  0
POLYLINE
  8
21
 66
1
 10
0.0000
 20
0.0000
 30
0.0000
 40
0.1270
 41
0.1270
 70
0
  0
VERTEX
  8
21
 10
22.8100
 20
1.1900
 30
0.0000
  0
VERTEX
  8
21
 10
15.1900
 20
1.1900
 30
0.0000
  0
SEQEND
  8
0
  0
POLYLINE
  8
21
 66
1
 10
0.0000
 20
0.0000
 30
0.0000
 40
0.0635
 41
0.0635
 70
0
  0
VERTEX
  8
21
 10
15.1900
 20
1.2217
 30
0.0000
 42
1.0000
  0
VERTEX
  8
21
 10
15.1900
 20
1.1583
 30
0.0000
  0
SEQEND
  8
0
  0
POLYLINE
  8
21
 66
1
 10
0.0000
 20
0.0000
 30
0.0000
 40
0.0635
 41
0.0635
 70
0
  0
VERTEX
  8
21
 10
22.8100
 20
1.1583
 30
0.0000
 42
1.0000
  0
VERTEX
  8
21
 10
22.8100
 20
1.2217
 30
0.0000
  0
SEQEND
  8
0
  0
POLYLINE
  8
21
 66
1
 10
0.0000
 20
0.0000
 30
0.0000
 40
0.1270
 41
0.1270
 70
0
  0
VERTEX
  8
21
 10
22.8100
 20
1.1900
 30
0.0000
  0
VERTEX
  8
21
 10
22.8100
 20
8.8100
 30
0.0000
  0
SEQEND
  8
0
  0
POLYLINE
  8
21
 66
1
 10
0.0000
 20
0.0000
 30
0.0000
 40
0.0635
 41
0.0635
 70
0
  0
VERTEX
  8
21
 10
22.8418
 20
8.8100
 30
0.0000
 42
1.0000
  0
VERTEX
  8
21
 10
22.7783
 20
8.8100
 30
0.0000
  0
SEQEND
  8
0
  0
POLYLINE
  8
21
 66
1
 10
0.0000
 20
0.0000
 30
0.0000
 40
0.0635
 41
0.0635
 70
0
  0
VERTEX
  8
21
 10
22.7783
 20
1.1900
 30
0.0000
 42
1.0000
  0
VERTEX
  8
21
 10
22.8418
 20
1.1900
 30
0.0000
  0
SEQEND
  8
0
  0
POLYLINE
  8
21
 66
1
 10
0.0000
 20
0.0000
 30
0.0000
 40
0.1270
 41
0.1270
 70
0
  0
VERTEX
  8
21
 10
21.5400
 20
6.2700
 30
0.0000
  0
VERTEX
  8
21
 10
21.5400
 20
3.7300
 30
0.0000
  0
SEQEND
  8
0
  0
POLYLINE
  8
21
 66
1
 10
0.0000
 20
0.0000
 30
0.0000
 40
0.0635
 41
0.0635
 70
0
  0
VERTEX
  8
21
 10
21.5083
 20
3.7300
 30
0.0000
 42
1.0000
  0
VERTEX
  8
21
 10
21.5718
 20
3.7300
 30
0.0000
  0
SEQEND
  8
0
  0
POLYLINE
  8
21
 66
1
 10
0.0000
 20
0.0000
 30
0.0000
 40
0.0635
 41
0.0635
 70
0
  0
VERTEX
  8
21
 10
21.5718
 20
6.2700
 30
0.0000
 42
1.0000
  0
VERTEX
  8
21
 10
21.5083
 20
6.2700
 30
0.0000
  0
SEQEND
  8
0
  0
POLYLINE
  8
21
 66
1
 10
0.0000
 20
0.0000
 30
0.0000
 40
0.1270
 41
0.1270
 70
0
  0
VERTEX
  8
21
 10
16.4600
 20
6.2700
 30
0.0000
  0
VERTEX
  8
21
 10
16.4600
 20
3.7300
 30
0.0000
  0
SEQEND
  8
0
  0
POLYLINE
  8
21
 66
1
 10
0.0000
 20
0.0000
 30
0.0000
 40
0.0635
 41
0.0635
 70
0
  0
VERTEX
  8
21
 10
16.4283
 20
3.7300
 30
0.0000
 42
1.0000
  0
VERTEX
  8
21
 10
16.4917
 20
3.7300
 30
0.0000
  0
SEQEND
  8
0
  0
POLYLINE
  8
21
 66
1
 10
0.0000
 20
0.0000
 30
0.0000
 40
0.0635
 41
0.0635
 70
0
  0
VERTEX
  8
21
 10
16.4917
 20
6.2700
 30
0.0000
 42
1.0000
  0
VERTEX
  8
21
 10
16.4283
 20
6.2700
 30
0.0000
  0
SEQEND
  8
0
  0
POLYLINE
  8
21
 66
1
 10
0.0000
 20
0.0000
 30
0.0000
 40
0.1270
 41
0.1270
 70
0
  0
VERTEX
  8
21
 10
17.7300
 20
8.8100
 30
0.0000
  0
VERTEX
  8
21
 10
20.2700
 20
10.0800
 30
0.0000
  0
SEQEND
  8
0
  0
POLYLINE
  8
21
 66
1
 10
0.0000
 20
0.0000
 30
0.0000
 40
0.0635
 41
0.0635
 70
0
  0
VERTEX
  8
21
 10
20.2842
 20
10.0516
 30
0.0000
 42
1.0000
  0
VERTEX
  8
21
 10
20.2558
 20
10.1084
 30
0.0000
  0
SEQEND
  8
0
  0
POLYLINE
  8
21
 66
1
 10
0.0000
 20
0.0000
 30
0.0000
 40
0.0635
 41
0.0635
 70
0
  0
VERTEX
  8
21
 10
17.7158
 20
8.8384
 30
0.0000
 42
1.0000
  0
VERTEX
  8
21
 10
17.7442
 20
8.7816
 30
0.0000
  0
SEQEND
  8
0
  0
POLYLINE
  8
21
 66
1
 10
0.0000
 20
0.0000
 30
0.0000
 40
0.1270
 41
0.1270
 70
0
  0
VERTEX
  8
21
 10
15.1900
 20
8.8100
 30
0.0000
  0
VERTEX
  8
21
 10
17.7300
 20
8.8100
 30
0.0000
  0
SEQEND
  8
0
  0
POLYLINE
  8
21
 66
1
 10
0.0000
 20
0.0000
 30
0.0000
 40
0.0635
 41
0.0635
 70
0
  0
VERTEX
  8
21
 10
17.7300
 20
8.7782
 30
0.0000
 42
1.0000
  0
VERTEX
  8
21
 10
17.7300
 20
8.8418
 30
0.0000
  0
SEQEND
  8
0
  0
POLYLINE
  8
21
 66
1
 10
0.0000
 20
0.0000
 30
0.0000
 40
0.0635
 41
0.0635
 70
0
  0
VERTEX
  8
21
 10
15.1900
 20
8.8418
 30
0.0000
 42
1.0000
  0
VERTEX
  8
21
 10
15.1900
 20
8.7782
 30
0.0000
  0
SEQEND
  8
0
  0
POLYLINE
  8
21
 66
1
 10
0.0000
 20
0.0000
 30
0.0000
 40
0.1270
 41
0.1270
 70
0
  0
VERTEX
  8
21
 10
20.2700
 20
8.8100
 30
0.0000
  0
VERTEX
  8
21
 10
22.8100
 20
8.8100
 30
0.0000
  0
SEQEND
  8
0
  0
POLYLINE
  8
21
 66
1
 10
0.0000
 20
0.0000
 30
0.0000
 40
0.0635
 41
0.0635
 70
0
  0
VERTEX
  8
21
 10
22.8100
 20
8.7782
 30
0.0000
 42
1.0000
  0
VERTEX
  8
21
 10
22.8100
 20
8.8418
 30
0.0000
  0
SEQEND
  8
0
  0
POLYLINE
  8
21
 66
1
 10
0.0000
 20
0.0000
 30
0.0000
 40
0.0635
 41
0.0635
 70
0
  0
VERTEX
  8
21
 10
20.2700
 20
8.8418
 30
0.0000
 42
1.0000
  0
VERTEX
  8
21
 10
20.2700
 20
8.7782
 30
0.0000
  0
SEQEND
  8
0
  0
POLYLINE
  8
21
 66
1
 10
0.0000
 20
0.0000
 30
0.0000
 40
0.2032
 41
0.2032
 70
0
  0
VERTEX
  8
21
 10
19.0000
 20
3.7300
 30
0.0000
 42
1.0000
  0
VERTEX
  8
21
 10
19.0000
 20
6.2700
 30
0.0000
 42
1.0000
  0
VERTEX
  8
21
 10
19.0000
 20
3.7300
 30
0.0000
  0
SEQEND
  8
0
  0
POLYLINE
  8
21
 66
1
 10
0.0000
 20
0.0000
 30
0.0000
 40
0.3302
 41
0.3302
 70
0
  0
VERTEX
  8
21
 10
17.7940
 20
8.7206
 30
0.0000
 42
1.0000
  0
VERTEX
  8
21
 10
17.7940
 20
9.0254
 30
0.0000
 42
1.0000
  0
VERTEX
  8
21
 10
17.7940
 20
8.7206
 30
0.0000
  0
SEQEND
  8
0
  0
POLYLINE
  8
21
 66
1
 10
0.0000
 20
0.0000
 30
0.0000
 40
0.3302
 41
0.3302
 70
0
  0
VERTEX
  8
21
 10
20.3340
 20
8.7206
 30
0.0000
 42
1.0000
  0
VERTEX
  8
21
 10
20.3340
 20
9.0254
 30
0.0000
 42
1.0000
  0
VERTEX
  8
21
 10
20.3340
 20
8.7206
 30
0.0000
  0
SEQEND
  8
0
  0
POLYLINE
  8
21
 66
1
 10
0.0000
 20
0.0000
 30
0.0000
 40
0.1270
 41
0.1270
 70
0
  0
VERTEX
  8
21
 10
16.4600
 20
3.6030
 30
0.0000
 42
1.0000
  0
VERTEX
  8
21
 10
16.4600
 20
3.8570
 30
0.0000
 42
1.0000
  0
VERTEX
  8
21
 10
16.4600
 20
3.6030
 30
0.0000
  0
SEQEND
  8
0
  0
POLYLINE
  8
21
 66
1
 10
0.0000
 20
0.0000
 30
0.0000
 40
0.1270
 41
0.1270
 70
0
  0
VERTEX
  8
21
 10
16.4600
 20
6.1430
 30
0.0000
 42
1.0000
  0
VERTEX
  8
21
 10
16.4600
 20
6.3970
 30
0.0000
 42
1.0000
  0
VERTEX
  8
21
 10
16.4600
 20
6.1430
 30
0.0000
  0
SEQEND
  8
0
  0
POLYLINE
  8
21
 66
1
 10
0.0000
 20
0.0000
 30
0.0000
 40
0.1270
 41
0.1270
 70
0
  0
VERTEX
  8
21
 10
21.5400
 20
3.6030
 30
0.0000
 42
1.0000
  0
VERTEX
  8
21
 10
21.5400
 20
3.8570
 30
0.0000
 42
1.0000
  0
VERTEX
  8
21
 10
21.5400
 20
3.6030
 30
0.0000
  0
SEQEND
  8
0
  0
POLYLINE
  8
21
 66
1
 10
0.0000
 20
0.0000
 30
0.0000
 40
0.1270
 41
0.1270
 70
0
  0
VERTEX
  8
21
 10
21.5400
 20
6.1430
 30
0.0000
 42
1.0000
  0
VERTEX
  8
21
 10
21.5400
 20
6.3970
 30
0.0000
 42
1.0000
  0
VERTEX
  8
21
 10
21.5400
 20
6.1430
 30
0.0000
  0
SEQEND
  8
0
  0
CIRCLE
  8
20
 10
21.5300
 20
5.0500
 30
0.0000
 40
1.1000
  0
CIRCLE
  8
20
 10
17.2400
 20
6.1000
 30
0.0000
 40
0.5250
  0
CIRCLE
  8
20
 10
17.2400
 20
3.9100
 30
0.0000
 40
0.5250
  0
POINT
  8
23
 10
33.0000
 20
5.0000
 30
0.0000
  0
POLYLINE
  8
21
 66
1
 10
0.0000
 20
0.0000
 30
0.0000
 40
0.3048
 41
0.3048
 70
0
  0
VERTEX
  8
21
 10
33.6350
 20
5.6350
 30
0.0000
  0
VERTEX
  8
21
 10
32.3650
 20
5.6350
 30
0.0000
  0
SEQEND
  8
0
  0
POLYLINE
  8
21
 66
1
 10
0.0000
 20
0.0000
 30
0.0000
 40
0.1524
 41
0.1524
 70
0
  0
VERTEX
  8
21
 10
32.3650
 20
5.7112
 30
0.0000
 42
1.0000
  0
VERTEX
  8
21
 10
32.3650
 20
5.5588
 30
0.0000
  0
SEQEND
  8
0
  0
POLYLINE
  8
21
 66
1
 10
0.0000
 20
0.0000
 30
0.0000
 40
0.1524
 41
0.1524
 70
0
  0
VERTEX
  8
21
 10
33.6350
 20
5.5588
 30
0.0000
 42
1.0000
  0
VERTEX
  8
21
 10
33.6350
 20
5.7112
 30
0.0000
  0
SEQEND
  8
0
  0
POLYLINE
  8
21
 66
1
 10
0.0000
 20
0.0000
 30
0.0000
 40
0.3048
 41
0.3048
 70
0
  0
VERTEX
  8
21
 10
32.3650
 20
5.6350
 30
0.0000
  0
VERTEX
  8
21
 10
33.0000
 20
4.3650
 30
0.0000
  0
SEQEND
  8
0
  0
POLYLINE
  8
21
 66
1
 10
0.0000
 20
0.0000
 30
0.0000
 40
0.1524
 41
0.1524
 70
0
  0
VERTEX
  8
21
 10
32.9318
 20
4.3309
 30
0.0000
 42
1.0000
  0
VERTEX
  8
21
 10
33.0682
 20
4.3991
 30
0.0000
  0
SEQEND
  8
0
  0
POLYLINE
  8
21
 66
1
 10
0.0000
 20
0.0000
 30
0.0000
 40
0.1524
 41
0.1524
 70
0
  0
VERTEX
  8
21
 10
32.4332
 20
5.6691
 30
0.0000
 42
1.0000
  0
VERTEX
  8
21
 10
32.2968
 20
5.6009
 30
0.0000
  0
SEQEND
  8
0
  0
POLYLINE
  8
21
 66
1
 10
0.0000
 20
0.0000
 30
0.0000
 40
0.3048
 41
0.3048
 70
0
  0
VERTEX
  8
21
 10
33.0000
 20
4.3650
 30
0.0000
  0
VERTEX
  8
21
 10
33.6350
 20
5.6350
 30
0.0000
  0
SEQEND
  8
0
  0
POLYLINE
  8
21
 66
1
 10
0.0000
 20
0.0000
 30
0.0000
 40
0.1524
 41
0.1524
 70
0
  0
VERTEX
  8
21
 10
33.7032
 20
5.6009
 30
0.0000
 42
1.0000
  0
VERTEX
  8
21
 10
33.5668
 20
5.6691
 30
0.0000
  0
SEQEND
  8
0
  0
POLYLINE
  8
21
 66
1
 10
0.0000
 20
0.0000
 30
0.0000
 40
0.1524
 41
0.1524
 70
0
  0
VERTEX
  8
21
 10
32.9318
 20
4.3991
 30
0.0000
 42
1.0000
  0
VERTEX
  8
21
 10
33.0682
 20
4.3309
 30
0.0000
  0
SEQEND
  8
0
  0
POLYLINE
  8
21
 66
1
 10
0.0000
 20
0.0000
 30
0.0000
 40
0.3048
 41
0.3048
 70
0
  0
VERTEX
  8
21
 10
33.6350
 20
4.3650
 30
0.0000
  0
VERTEX
  8
21
 10
33.0000
 20
4.3650
 30
0.0000
  0
SEQEND
  8
0
  0
POLYLINE
  8
21
 66
1
 10
0.0000
 20
0.0000
 30
0.0000
 40
0.1524
 41
0.1524
 70
0
  0
VERTEX
  8
21
 10
33.0000
 20
4.4412
 30
0.0000
 42
1.0000
  0
VERTEX
  8
21
 10
33.0000
 20
4.2888
 30
0.0000
  0
SEQEND
  8
0
  0
POLYLINE
  8
21
 66
1
 10
0.0000
 20
0.0000
 30
0.0000
 40
0.1524
 41
0.1524
 70
0
  0
VERTEX
  8
21
 10
33.6350
 20
4.2888
 30
0.0000
 42
1.0000
  0
VERTEX
  8
21
 10
33.6350
 20
4.4412
 30
0.0000
  0
SEQEND
  8
0
  0
POLYLINE
  8
21
 66
1
 10
0.0000
 20
0.0000
 30
0.0000
 40
0.3048
 41
0.3048
 70
0
  0
VERTEX
  8
21
 10
33.0000
 20
4.3650
 30
0.0000
  0
VERTEX
  8
21
 10
32.3650
 20
4.3650
 30
0.0000
  0
SEQEND
  8
0
  0
POLYLINE
  8
21
 66
1
 10
0.0000
 20
0.0000
 30
0.0000
 40
0.1524
 41
0.1524
 70
0
  0
VERTEX
  8
21
 10
32.3650
 20
4.4412
 30
0.0000
 42
1.0000
  0
VERTEX
  8
21
 10
32.3650
 20
4.2888
 30
0.0000
  0
SEQEND
  8
0
  0
POLYLINE
  8
21
 66
1
 10
0.0000
 20
0.0000
 30
0.0000
 40
0.1524
 41
0.1524
 70
0
  0
VERTEX
  8
21
 10
33.0000
 20
4.2888
 30
0.0000
 42
1.0000
  0
VERTEX
  8
21
 10
33.0000
 20
4.4412
 30
0.0000
  0
SEQEND
  8
0
  0
POLYLINE
  8
21
 66
1
 10
0.0000
 20
0.0000
 30
0.0000
 40
0.1270
 41
0.1270
 70
0
  0
VERTEX
  8
21
 10
29.1900
 20
8.8100
 30
0.0000
  0
VERTEX
  8
21
 10
29.1900
 20
1.1900
 30
0.0000
  0
SEQEND
  8
0
  0
POLYLINE
  8
21
 66
1
 10
0.0000
 20
0.0000
 30
0.0000
 40
0.0635
 41
0.0635
 70
0
  0
VERTEX
  8
21
 10
29.1583
 20
1.1900
 30
0.0000
 42
1.0000
  0
VERTEX
  8
21
 10
29.2218
 20
1.1900
 30
0.0000
  0
SEQEND
  8
0
  0
POLYLINE
  8
21
 66
1
 10
0.0000
 20
0.0000
 30
0.0000
 40
0.0635
 41
0.0635
 70
0
  0
VERTEX
  8
21
 10
29.2218
 20
8.8100
 30
0.0000
 42
1.0000
  0
VERTEX
  8
21
 10
29.1583
 20
8.8100
 30
0.0000
  0
SEQEND
  8
0
  0
POLYLINE
  8
21
 66
1
 10
0.0000
 20
0.0000
 30
0.0000
 40
0.1270
 41
0.1270
 70
0
  0
VERTEX
  8
21
 10
36.8100
 20
1.1900
 30
0.0000
  0
VERTEX
  8
21
 10
29.1900
 20
1.1900
 30
0.0000
  0
SEQEND
  8
0
  0
POLYLINE
  8
21
 66
1
 10
0.0000
 20
0.0000
 30
0.0000
 40
0.0635
 41
0.0635
 70
0
  0
VERTEX
  8
21
 10
29.1900
 20
1.2217
 30
0.0000
 42
1.0000
  0
VERTEX
  8
21
 10
29.1900
 20
1.1583
 30
0.0000
  0
SEQEND
  8
0
  0
POLYLINE
  8
21
 66
1
 10
0.0000
 20
0.0000
 30
0.0000
 40
0.0635
 41
0.0635
 70
0
  0
VERTEX
  8
21
 10
36.8100
 20
1.1583
 30
0.0000
 42
1.0000
  0
VERTEX
  8
21
 10
36.8100
 20
1.2217
 30
0.0000
  0
SEQEND
  8
0
  0
POLYLINE
  8
21
 66
1
 10
0.0000
 20
0.0000
 30
0.0000
 40
0.1270
 41
0.1270
 70
0
  0
VERTEX
  8
21
 10
36.8100
 20
1.1900
 30
0.0000
  0
VERTEX
  8
21
 10
36.8100
 20
8.8100
 30
0.0000
  0
SEQEND
  8
0
  0
POLYLINE
  8
21
 66
1
 10
0.0000
 20
0.0000
 30
0.0000
 40
0.0635
 41
0.0635
 70
0
  0
VERTEX
  8
21
 10
36.8418
 20
8.8100
 30
0.0000
 42
1.0000
  0
VERTEX
  8
21
 10
36.7782
 20
8.8100
 30
0.0000
  0
SEQEND
  8
0
  0
POLYLINE
  8
21
 66
1
 10
0.0000
 20
0.0000
 30
0.0000
 40
0.0635
 41
0.0635
 70
0
  0
VERTEX
  8
21
 10
36.7782
 20
1.1900
 30
0.0000
 42
1.0000
  0
VERTEX
  8
21
 10
36.8418
 20
1.1900
 30
0.0000
  0
SEQEND
  8
0
  0
POLYLINE
  8
21
 66
1
 10
0.0000
 20
0.0000
 30
0.0000
 40
0.1270
 41
0.1270
 70
0
  0
VERTEX
  8
21
 10
35.5400
 20
6.2700
 30
0.0000
  0
VERTEX
  8
21
 10
35.5400
 20
3.7300
 30
0.0000
  0
SEQEND
  8
0
  0
POLYLINE
  8
21
 66
1
 10
0.0000
 20
0.0000
 30
0.0000
 40
0.0635
 41
0.0635
 70
0
  0
VERTEX
  8
21
 10
35.5082
 20
3.7300
 30
0.0000
 42
1.0000
  0
VERTEX
  8
21
 10
35.5718
 20
3.7300
 30
0.0000
  0
SEQEND
  8
0
  0
POLYLINE
  8
21
 66
1
 10
0.0000
 20
0.0000
 30
0.0000
 40
0.0635
 41
0.0635
 70
0
  0
VERTEX
  8
21
 10
35.5718
 20
6.2700
 30
0.0000
 42
1.0000
  0
VERTEX
  8
21
 10
35.5082
 20
6.2700
 30
0.0000
  0
SEQEND
  8
0
  0
POLYLINE
  8
21
 66
1
 10
0.0000
 20
0.0000
 30
0.0000
 40
0.1270
 41
0.1270
 70
0
  0
VERTEX
  8
21
 10
30.4600
 20
6.2700
 30
0.0000
  0
VERTEX
  8
21
 10
30.4600
 20
3.7300
 30
0.0000
  0
SEQEND
  8
0
  0
POLYLINE
  8
21
 66
1
 10
0.0000
 20
0.0000
 30
0.0000
 40
0.0635
 41
0.0635
 70
0
  0
VERTEX
  8
21
 10
30.4283
 20
3.7300
 30
0.0000
 42
1.0000
  0
VERTEX
  8
21
 10
30.4917
 20
3.7300
 30
0.0000
  0
SEQEND
  8
0
  0
POLYLINE
  8
21
 66
1
 10
0.0000
 20
0.0000
 30
0.0000
 40
0.0635
 41
0.0635
 70
0
  0
VERTEX
  8
21
 10
30.4917
 20
6.2700
 30
0.0000
 42
1.0000
  0
VERTEX
  8
21
 10
30.4283
 20
6.2700
 30
0.0000
  0
SEQEND
  8
0
  0
POLYLINE
  8
21
 66
1
 10
0.0000
 20
0.0000
 30
0.0000
 40
0.1270
 41
0.1270
 70
0
  0
VERTEX
  8
21
 10
31.7300
 20
8.8100
 30
0.0000
  0
VERTEX
  8
21
 10
34.2700
 20
10.0800
 30
0.0000
  0
SEQEND
  8
0
  0
POLYLINE
  8
21
 66
1
 10
0.0000
 20
0.0000
 30
0.0000
 40
0.0635
 41
0.0635
 70
0
  0
VERTEX
  8
21
 10
34.2842
 20
10.0516
 30
0.0000
 42
1.0000
  0
VERTEX
  8
21
 10
34.2558
 20
10.1084
 30
0.0000
  0
SEQEND
  8
0
  0
POLYLINE
  8
21
 66
1
 10
0.0000
 20
0.0000
 30
0.0000
 40
0.0635
 41
0.0635
 70
0
  0
VERTEX
  8
21
 10
31.7158
 20
8.8384
 30
0.0000
 42
1.0000
  0
VERTEX
  8
21
 10
31.7442
 20
8.7816
 30
0.0000
  0
SEQEND
  8
0
  0
POLYLINE
  8
21
 66
1
 10
0.0000
 20
0.0000
 30
0.0000
 40
0.1270
 41
0.1270
 70
0
  0
VERTEX
  8
21
 10
29.1900
 20
8.8100
 30
0.0000
  0
VERTEX
  8
21
 10
31.7300
 20
8.8100
 30
0.0000
  0
SEQEND
  8
0
  0
POLYLINE
  8
21
 66
1
 10
0.0000
 20
0.0000
 30
0.0000
 40
0.0635
 41
0.0635
 70
0
  0
VERTEX
  8
21
 10
31.7300
 20
8.7782
 30
0.0000
 42
1.0000
  0
VERTEX
  8
21
 10
31.7300
 20
8.8418
 30
0.0000
  0
SEQEND
  8
0
  0
POLYLINE
  8
21
 66
1
 10
0.0000
 20
0.0000
 30
0.0000
 40
0.0635
 41
0.0635
 70
0
  0
VERTEX
  8
21
 10
29.1900
 20
8.8418
 30
0.0000
 42
1.0000
  0
VERTEX
  8
21
 10
29.1900
 20
8.7782
 30
0.0000
  0
SEQEND
  8
0
  0
POLYLINE
  8
21
 66
1
 10
0.0000
 20
0.0000
 30
0.0000
 40
0.1270
 41
0.1270
 70
0
  0
VERTEX
  8
21
 10
34.2700
 20
8.8100
 30
0.0000
  0
VERTEX
  8
21
 10
36.8100
 20
8.8100
 30
0.0000
  0
SEQEND
  8
0
  0
POLYLINE
  8
21
 66
1
 10
0.0000
 20
0.0000
 30
0.0000
 40
0.0635
 41
0.0635
 70
0
  0
VERTEX
  8
21
 10
36.8100
 20
8.7782
 30
0.0000
 42
1.0000
  0
VERTEX
  8
21
 10
36.8100
 20
8.8418
 30
0.0000
  0
SEQEND
  8
0
  0
POLYLINE
  8
21
 66
1
 10
0.0000
 20
0.0000
 30
0.0000
 40
0.0635
 41
0.0635
 70
0
  0
VERTEX
  8
21
 10
34.2700
 20
8.8418
 30
0.0000
 42
1.0000
  0
VERTEX
  8
21
 10
34.2700
 20
8.7782
 30
0.0000
  0
SEQEND
  8
0
  0
POLYLINE
  8
21
 66
1
 10
0.0000
 20
0.0000
 30
0.0000
 40
0.2032
 41
0.2032
 70
0
  0
VERTEX
  8
21
 10
33.0000
 20
3.7300
 30
0.0000
 42
1.0000
  0
VERTEX
  8
21
 10
33.0000
 20
6.2700
 30
0.0000
 42
1.0000
  0
VERTEX
  8
21
 10
33.0000
 20
3.7300
 30
0.0000
  0
SEQEND
  8
0
  0
POLYLINE
  8
21
 66
1
 10
0.0000
 20
0.0000
 30
0.0000
 40
0.3302
 41
0.3302
 70
0
  0
VERTEX
  8
21
 10
31.7940
 20
8.7206
 30
0.0000
 42
1.0000
  0
VERTEX
  8
21
 10
31.7940
 20
9.0254
 30
0.0000
 42
1.0000
  0
VERTEX
  8
21
 10
31.7940
 20
8.7206
 30
0.0000
  0
SEQEND
  8
0
  0
POLYLINE
  8
21
 66
1
 10
0.0000
 20
0.0000
 30
0.0000
 40
0.3302
 41
0.3302
 70
0
  0
VERTEX
  8
21
 10
34.3340
 20
8.7206
 30
0.0000
 42
1.0000
  0
VERTEX
  8
21
 10
34.3340
 20
9.0254
 30
0.0000
 42
1.0000
  0
VERTEX
  8
21
 10
34.3340
 20
8.7206
 30
0.0000
  0
SEQEND
  8
0
  0
POLYLINE
  8
21
 66
1
 10
0.0000
 20
0.0000
 30
0.0000
 40
0.1270
 41
0.1270
 70
0
  0
VERTEX
  8
21
 10
30.4600
 20
3.6030
 30
0.0000
 42
1.0000
  0
VERTEX
  8
21
 10
30.4600
 20
3.8570
 30
0.0000
 42
1.0000
  0
VERTEX
  8
21
 10
30.4600
 20
3.6030
 30
0.0000
  0
SEQEND
  8
0
  0
POLYLINE
  8
21
 66
1
 10
0.0000
 20
0.0000
 30
0.0000
 40
0.1270
 41
0.1270
 70
0
  0
VERTEX
  8
21
 10
30.4600
 20
6.1430
 30
0.0000
 42
1.0000
  0
VERTEX
  8
21
 10
30.4600
 20
6.3970
 30
0.0000
 42
1.0000
  0
VERTEX
  8
21
 10
30.4600
 20
6.1430
 30
0.0000
  0
SEQEND
  8
0
  0
POLYLINE
  8
21
 66
1
 10
0.0000
 20
0.0000
 30
0.0000
 40
0.1270
 41
0.1270
 70
0
  0
VERTEX
  8
21
 10
35.5400
 20
3.6030
 30
0.0000
 42
1.0000
  0
VERTEX
  8
21
 10
35.5400
 20
3.8570
 30
0.0000
 42
1.0000
  0
VERTEX
  8
21
 10
35.5400
 20
3.6030
 30
0.0000
  0
SEQEND
  8
0
  0
POLYLINE
  8
21
 66
1
 10
0.0000
 20
0.0000
 30
0.0000
 40
0.1270
 41
0.1270
 70
0
  0
VERTEX
  8
21
 10
35.5400
 20
6.1430
 30
0.0000
 42
1.0000
  0
VERTEX
  8
21
 10
35.5400
 20
6.3970
 30
0.0000
 42
1.0000
  0
VERTEX
  8
21
 10
35.5400
 20
6.1430
 30
0.0000
  0
SEQEND
  8
0
  0
CIRCLE
  8
20
 10
35.5300
 20
5.0500
 30
0.0000
 40
1.1000
  0
CIRCLE
  8
20
 10
31.2400
 20
6.1000
 30
0.0000
 40
0.5250
  0
CIRCLE
  8
20
 10
31.2400
 20
3.9100
 30
0.0000
 40
0.5250
  0
POINT
  8
24
 10
26.0000
 20
26.4000
 30
0.0000
  0
POLYLINE
  8
21
 66
1
 10
0.0000
 20
0.0000
 30
0.0000
 40
0.2032
 41
0.2032
 70
0
  0
VERTEX
  8
21
 10
31.7150
 20
23.5870
 30
0.0000
  0
VERTEX
  8
21
 10
30.4450
 20
23.5870
 30
0.0000
  0
SEQEND
  8
0
  0
POLYLINE
  8
21
 66
1
 10
0.0000
 20
0.0000
 30
0.0000
 40
0.1016
 41
0.1016
 70
0
  0
VERTEX
  8
21
 10
30.4450
 20
23.6378
 30
0.0000
 42
1.0000
  0
VERTEX
  8
21
 10
30.4450
 20
23.5362
 30
0.0000
  0
SEQEND
  8
0
  0
POLYLINE
  8
21
 66
1
 10
0.0000
 20
0.0000
 30
0.0000
 40
0.1016
 41
0.1016
 70
0
  0
VERTEX
  8
21
 10
31.7150
 20
23.5362
 30
0.0000
 42
1.0000
  0
VERTEX
  8
21
 10
31.7150
 20
23.6378
 30
0.0000
  0
SEQEND
  8
0
  0
ENDSEC
  0
EOF
