%
M48
M72
T01C0.03150
T02C0.03200
T03C0.03543
T04C0.04000
T05C0.07087
T06C0.10000
%
T01
X72667Y6300
X82667Y6300
X92667Y6300
X92667Y26300
X82667Y26300
X72667Y26300
X132667Y26300
X142667Y26300
X152667Y26300
X152667Y6300
X142667Y6300
X132667Y6300
T02
X113167Y6300
X113167Y36300
X132667Y46300
X117667Y51300
X107667Y51300
X92667Y46300
X72667Y46300
X152667Y46300
T03
X172667Y26772
X182667Y26772
X192667Y26772
X52667Y26772
X42667Y26772
X32667Y26772
T04
X42667Y16300
X52667Y16300
X62667Y16300
X162667Y16300
X172667Y16300
X182667Y16300
X132667Y75800
X122667Y75800
X112667Y75800
X102667Y75800
X92667Y75800
X92667Y86800
X102667Y86800
X112667Y86800
X122667Y86800
X132667Y86800
T05
X163769Y56300
X201564Y56300
X61564Y56300
X23769Y56300
T06
X27667Y16300
X27667Y86300
X197667Y86300
X197667Y16300
M30
