G75*
%MOIN*%
%OFA0B0*%
%FSLAX25Y25*%
%IPPOS*%
%LPD*%
%AMOC8*
5,1,8,0,0,1.08239X$1,22.5*
%
%ADD10C,0.07400*%
%ADD11C,0.06600*%
%ADD12C,0.06000*%
%ADD13OC8,0.05200*%
%ADD14C,0.07000*%
%ADD15C,0.11811*%
%ADD16C,0.00600*%
%ADD17C,0.01500*%
D10*
X0092667Y0075800D03*
X0102667Y0075800D03*
X0112667Y0075800D03*
X0122667Y0075800D03*
X0132667Y0075800D03*
X0132667Y0086800D03*
X0122667Y0086800D03*
X0112667Y0086800D03*
X0102667Y0086800D03*
X0092667Y0086800D03*
D11*
X0092667Y0026300D03*
X0082667Y0026300D03*
X0072667Y0026300D03*
X0072667Y0006300D03*
X0082667Y0006300D03*
X0092667Y0006300D03*
X0132667Y0006300D03*
X0142667Y0006300D03*
X0152667Y0006300D03*
X0152667Y0026300D03*
X0142667Y0026300D03*
X0132667Y0026300D03*
D12*
X0162667Y0016300D03*
X0172667Y0016300D03*
X0182667Y0016300D03*
X0062667Y0016300D03*
X0052667Y0016300D03*
X0042667Y0016300D03*
D13*
X0072667Y0046300D03*
X0092667Y0046300D03*
X0107667Y0051300D03*
X0117667Y0051300D03*
X0132667Y0046300D03*
X0152667Y0046300D03*
X0113167Y0036300D03*
X0113167Y0006300D03*
D14*
X0172667Y0026772D03*
X0182667Y0026772D03*
X0192667Y0026772D03*
X0052667Y0026772D03*
X0042667Y0026772D03*
X0032667Y0026772D03*
D15*
X0023769Y0056300D03*
X0061564Y0056300D03*
X0163769Y0056300D03*
X0201564Y0056300D03*
D16*
X0042667Y0016300D02*
X0032467Y0026500D01*
X0032667Y0026772D01*
X0072667Y0036400D02*
X0082567Y0026500D01*
X0082667Y0026300D01*
X0072667Y0036400D02*
X0072667Y0046300D01*
X0092667Y0046300D02*
X0092767Y0046300D01*
X0092767Y0055900D01*
X0112667Y0075800D01*
X0117367Y0074500D02*
X0117367Y0077800D01*
X0114667Y0080500D01*
X0097267Y0080500D01*
X0092767Y0076000D01*
X0092667Y0075800D01*
X0112667Y0086800D02*
X0112867Y0086800D01*
X0117667Y0082000D01*
X0123067Y0082000D01*
X0127267Y0077800D01*
X0127267Y0073900D01*
X0152467Y0048700D01*
X0152467Y0046300D01*
X0152667Y0046300D01*
X0132667Y0046300D02*
X0132667Y0036400D01*
X0142567Y0026500D01*
X0142667Y0026300D01*
X0162667Y0016300D02*
X0169117Y0022750D01*
X0117367Y0074500D01*
X0117667Y0051300D02*
X0117667Y0035200D01*
X0142867Y0010000D01*
X0142867Y0006700D01*
X0142667Y0006300D01*
X0142867Y0006400D01*
X0152467Y0006400D01*
X0152667Y0006300D01*
X0132667Y0006400D02*
X0132667Y0006300D01*
X0132667Y0006400D02*
X0128467Y0010600D01*
X0080767Y0010600D01*
X0076567Y0006400D01*
X0072667Y0006400D01*
X0072667Y0006300D01*
X0082667Y0006300D02*
X0082867Y0006400D01*
X0092467Y0006400D01*
X0092667Y0006300D01*
X0113167Y0036300D02*
X0113167Y0036400D01*
X0107767Y0041800D01*
X0107767Y0051100D01*
X0107667Y0051300D01*
X0169117Y0022750D02*
X0172867Y0026500D01*
X0172667Y0026772D01*
D17*
X0181867Y0026800D02*
X0182667Y0026772D01*
X0182467Y0026500D01*
X0172867Y0016900D01*
X0172867Y0016300D01*
X0172667Y0016300D01*
X0182667Y0016300D02*
X0182767Y0016300D01*
X0192667Y0026200D01*
X0192667Y0026772D01*
X0192367Y0027400D01*
X0192367Y0038800D01*
X0138667Y0092500D01*
X0108667Y0092500D01*
X0103267Y0087100D01*
X0102667Y0086800D01*
X0100567Y0086800D01*
X0094867Y0092500D01*
X0090367Y0092500D01*
X0069367Y0071500D01*
X0069367Y0049300D01*
X0052867Y0032800D01*
X0052867Y0027400D01*
X0052667Y0026772D01*
X0052867Y0026500D01*
X0062467Y0016900D01*
X0062467Y0016300D01*
X0062667Y0016300D01*
X0052667Y0016300D02*
X0052567Y0016300D01*
X0042667Y0026200D01*
X0042667Y0026772D01*
X0132667Y0083800D02*
X0155767Y0060700D01*
X0155767Y0052900D01*
X0181867Y0026800D01*
X0132667Y0083800D02*
X0132667Y0086800D01*
M02*
