G75*
%MOIN*%
%OFA0B0*%
%FSLAX25Y25*%
%IPPOS*%
%LPD*%
%AMOC8*
5,1,8,0,0,1.08239X$1,22.5*
%
%ADD10C,0.02000*%
%ADD11C,0.00600*%
%ADD12C,0.00800*%
%ADD13C,0.01000*%
%ADD14C,0.00500*%
%ADD15C,0.01200*%
%ADD16C,0.01300*%
D10*
X0029847Y0297556D02*
X0029847Y0302160D01*
X0031382Y0300625D01*
X0032917Y0302160D01*
X0032917Y0297556D01*
X0035924Y0298323D02*
X0035924Y0301393D01*
X0036692Y0302160D01*
X0038226Y0302160D01*
X0038994Y0301393D01*
X0038994Y0298323D01*
X0038226Y0297556D01*
X0036692Y0297556D01*
X0035924Y0298323D01*
X0042002Y0297556D02*
X0045071Y0297556D01*
X0042002Y0297556D02*
X0042002Y0302160D01*
X0054156Y0300625D02*
X0055691Y0297556D01*
X0057225Y0300625D01*
X0060233Y0301393D02*
X0061001Y0302160D01*
X0062535Y0302160D01*
X0063302Y0301393D01*
X0063302Y0300625D01*
X0060233Y0297556D01*
X0063302Y0297556D01*
X0066310Y0299858D02*
X0069380Y0299858D01*
X0072388Y0301393D02*
X0073155Y0302160D01*
X0074690Y0302160D01*
X0075457Y0301393D01*
X0075457Y0300625D01*
X0074690Y0299858D01*
X0075457Y0299091D01*
X0075457Y0298323D01*
X0074690Y0297556D01*
X0073155Y0297556D01*
X0072388Y0298323D01*
X0073922Y0299858D02*
X0074690Y0299858D01*
D11*
X0078851Y0291094D02*
X0078851Y0290527D01*
X0078851Y0289392D02*
X0078283Y0289392D01*
X0078851Y0289392D02*
X0078851Y0287124D01*
X0079418Y0287124D02*
X0078283Y0287124D01*
X0076869Y0287124D02*
X0076869Y0288825D01*
X0076302Y0289392D01*
X0074600Y0289392D01*
X0074600Y0287124D01*
X0073186Y0288258D02*
X0070917Y0288258D01*
X0070917Y0288825D02*
X0071484Y0289392D01*
X0072619Y0289392D01*
X0073186Y0288825D01*
X0073186Y0288258D01*
X0072619Y0287124D02*
X0071484Y0287124D01*
X0070917Y0287691D01*
X0070917Y0288825D01*
X0069503Y0288825D02*
X0069503Y0287124D01*
X0068368Y0287124D02*
X0068368Y0288825D01*
X0068935Y0289392D01*
X0069503Y0288825D01*
X0068368Y0288825D02*
X0067801Y0289392D01*
X0067234Y0289392D01*
X0067234Y0287124D01*
X0065819Y0287691D02*
X0065819Y0288825D01*
X0065252Y0289392D01*
X0064118Y0289392D01*
X0063551Y0288825D01*
X0063551Y0287691D01*
X0064118Y0287124D01*
X0065252Y0287124D01*
X0065819Y0287691D01*
X0064779Y0284527D02*
X0064779Y0281124D01*
X0063364Y0281691D02*
X0063364Y0282825D01*
X0062230Y0282825D01*
X0063364Y0281691D02*
X0062797Y0281124D01*
X0061663Y0281124D01*
X0061095Y0281691D01*
X0061095Y0283959D01*
X0061663Y0284527D01*
X0062797Y0284527D01*
X0063364Y0283959D01*
X0064779Y0282825D02*
X0067047Y0282825D01*
X0067047Y0281124D02*
X0067047Y0284527D01*
X0062136Y0287124D02*
X0062136Y0290527D01*
X0061002Y0289392D01*
X0059868Y0290527D01*
X0059868Y0287124D01*
X0059114Y0284527D02*
X0057412Y0284527D01*
X0057412Y0281124D01*
X0057412Y0282258D02*
X0059114Y0282258D01*
X0059681Y0282825D01*
X0059681Y0283959D01*
X0059114Y0284527D01*
X0054863Y0287124D02*
X0053729Y0287124D01*
X0054296Y0287124D02*
X0054296Y0289392D01*
X0053729Y0289392D01*
X0054296Y0290527D02*
X0054296Y0291094D01*
X0051841Y0290527D02*
X0051841Y0287124D01*
X0051274Y0287124D02*
X0052408Y0287124D01*
X0049859Y0287124D02*
X0049859Y0289392D01*
X0048725Y0290527D01*
X0047591Y0289392D01*
X0047591Y0287124D01*
X0047591Y0288825D02*
X0049859Y0288825D01*
X0051274Y0290527D02*
X0051841Y0290527D01*
X0048158Y0285094D02*
X0048158Y0284527D01*
X0048158Y0283392D02*
X0048158Y0281124D01*
X0047591Y0281124D02*
X0048725Y0281124D01*
X0050046Y0281124D02*
X0050046Y0283392D01*
X0051747Y0283392D01*
X0052315Y0282825D01*
X0052315Y0281124D01*
X0048158Y0283392D02*
X0047591Y0283392D01*
X0042493Y0282825D02*
X0042493Y0282258D01*
X0040224Y0282258D01*
X0040224Y0282825D02*
X0040791Y0283392D01*
X0041926Y0283392D01*
X0042493Y0282825D01*
X0041926Y0281124D02*
X0040791Y0281124D01*
X0040224Y0281691D01*
X0040224Y0282825D01*
X0038810Y0283392D02*
X0037108Y0283392D01*
X0036541Y0282825D01*
X0036541Y0281691D01*
X0037108Y0281124D01*
X0038810Y0281124D01*
X0038810Y0284527D01*
X0038810Y0287124D02*
X0036541Y0287124D01*
X0037675Y0287124D02*
X0037675Y0290527D01*
X0036541Y0289392D01*
X0035127Y0289959D02*
X0035127Y0287691D01*
X0034559Y0287124D01*
X0033425Y0287124D01*
X0032858Y0287691D01*
X0035127Y0289959D01*
X0034559Y0290527D01*
X0033425Y0290527D01*
X0032858Y0289959D01*
X0032858Y0287691D01*
X0031443Y0287124D02*
X0029175Y0287124D01*
X0031443Y0289392D01*
X0031443Y0289959D01*
X0030876Y0290527D01*
X0029742Y0290527D01*
X0029175Y0289959D01*
X0029175Y0284527D02*
X0030309Y0283392D01*
X0031443Y0284527D01*
X0031443Y0281124D01*
X0032858Y0281691D02*
X0033425Y0282258D01*
X0035127Y0282258D01*
X0035127Y0282825D02*
X0035127Y0281124D01*
X0033425Y0281124D01*
X0032858Y0281691D01*
X0033425Y0283392D02*
X0034559Y0283392D01*
X0035127Y0282825D01*
X0029175Y0281124D02*
X0029175Y0284527D01*
X0040224Y0287124D02*
X0040224Y0287691D01*
X0042493Y0289959D01*
X0042493Y0290527D01*
X0040224Y0290527D01*
X0223835Y0127284D02*
X0223833Y0127132D01*
X0223827Y0126981D01*
X0223818Y0126830D01*
X0223804Y0126678D01*
X0223787Y0126528D01*
X0223766Y0126378D01*
X0223741Y0126228D01*
X0223713Y0126079D01*
X0223680Y0125931D01*
X0223644Y0125784D01*
X0223605Y0125637D01*
X0223561Y0125492D01*
X0223514Y0125348D01*
X0223463Y0125205D01*
X0223409Y0125064D01*
X0223351Y0124923D01*
X0223290Y0124785D01*
X0223225Y0124648D01*
X0223156Y0124512D01*
X0223085Y0124379D01*
X0223010Y0124247D01*
X0222931Y0124117D01*
X0222850Y0123990D01*
X0222765Y0123864D01*
X0222677Y0123740D01*
X0222586Y0123619D01*
X0222492Y0123500D01*
X0222394Y0123384D01*
X0222294Y0123270D01*
X0222192Y0123158D01*
X0222086Y0123050D01*
X0221978Y0122944D01*
X0221867Y0122840D01*
X0221753Y0122740D01*
X0221637Y0122642D01*
X0221518Y0122548D01*
X0211835Y0127284D02*
X0211837Y0127438D01*
X0211843Y0127592D01*
X0211853Y0127746D01*
X0211867Y0127900D01*
X0211884Y0128053D01*
X0211906Y0128205D01*
X0211932Y0128357D01*
X0211961Y0128509D01*
X0211995Y0128659D01*
X0212032Y0128809D01*
X0212073Y0128957D01*
X0212118Y0129105D01*
X0212167Y0129251D01*
X0212219Y0129396D01*
X0212275Y0129539D01*
X0212335Y0129682D01*
X0212398Y0129822D01*
X0212465Y0129961D01*
X0212536Y0130098D01*
X0212610Y0130233D01*
X0212687Y0130366D01*
X0212768Y0130498D01*
X0212852Y0130627D01*
X0212940Y0130754D01*
X0213031Y0130878D01*
X0213124Y0131000D01*
X0213222Y0131120D01*
X0213322Y0131237D01*
X0213425Y0131352D01*
X0213531Y0131464D01*
X0213639Y0131573D01*
X0213751Y0131679D01*
X0213865Y0131783D01*
X0213982Y0131883D01*
X0214101Y0131981D01*
X0214223Y0132075D01*
X0214348Y0132166D01*
X0211835Y0127284D02*
X0211837Y0127134D01*
X0211843Y0126983D01*
X0211852Y0126833D01*
X0211865Y0126684D01*
X0211882Y0126534D01*
X0211903Y0126385D01*
X0211927Y0126237D01*
X0211955Y0126089D01*
X0211987Y0125942D01*
X0212022Y0125796D01*
X0212062Y0125651D01*
X0212104Y0125507D01*
X0212151Y0125364D01*
X0212201Y0125222D01*
X0212254Y0125081D01*
X0212311Y0124942D01*
X0212371Y0124804D01*
X0212435Y0124668D01*
X0212502Y0124534D01*
X0212573Y0124401D01*
X0212647Y0124270D01*
X0212724Y0124141D01*
X0212805Y0124014D01*
X0212888Y0123889D01*
X0212975Y0123766D01*
X0213064Y0123645D01*
X0213157Y0123527D01*
X0213253Y0123411D01*
X0213351Y0123297D01*
X0213452Y0123186D01*
X0213557Y0123077D01*
X0213663Y0122972D01*
X0213773Y0122868D01*
X0213885Y0122768D01*
X0213999Y0122670D01*
X0214116Y0122576D01*
X0214235Y0122484D01*
X0223835Y0127284D02*
X0223833Y0127436D01*
X0223827Y0127587D01*
X0223818Y0127738D01*
X0223804Y0127890D01*
X0223787Y0128040D01*
X0223766Y0128190D01*
X0223741Y0128340D01*
X0223713Y0128489D01*
X0223680Y0128637D01*
X0223644Y0128784D01*
X0223605Y0128931D01*
X0223561Y0129076D01*
X0223514Y0129220D01*
X0223463Y0129363D01*
X0223409Y0129504D01*
X0223351Y0129645D01*
X0223290Y0129783D01*
X0223225Y0129920D01*
X0223156Y0130056D01*
X0223085Y0130189D01*
X0223010Y0130321D01*
X0222931Y0130451D01*
X0222850Y0130578D01*
X0222765Y0130704D01*
X0222677Y0130828D01*
X0222586Y0130949D01*
X0222492Y0131068D01*
X0222394Y0131184D01*
X0222294Y0131298D01*
X0222192Y0131410D01*
X0222086Y0131518D01*
X0221978Y0131624D01*
X0221867Y0131728D01*
X0221753Y0131828D01*
X0221637Y0131926D01*
X0221518Y0132020D01*
D12*
X0037615Y0061772D02*
X0037615Y0026733D01*
X0068717Y0026733D01*
X0068717Y0032639D01*
X0086040Y0032639D01*
X0086040Y0026733D01*
X0068717Y0026733D01*
X0059879Y0033524D02*
X0054879Y0033524D01*
X0086040Y0026733D02*
X0117143Y0026733D01*
X0117143Y0062166D01*
X0037615Y0062166D01*
X0035946Y0125276D02*
X0004843Y0125276D01*
X0004843Y0160316D01*
X0004843Y0160709D02*
X0084371Y0160709D01*
X0084371Y0125276D01*
X0053269Y0125276D01*
X0053269Y0131182D01*
X0035946Y0131182D01*
X0035946Y0125276D01*
X0053269Y0125276D01*
X0027107Y0132068D02*
X0022107Y0132068D01*
X0122284Y0202087D02*
X0122286Y0202228D01*
X0122292Y0202369D01*
X0122302Y0202509D01*
X0122316Y0202649D01*
X0122334Y0202789D01*
X0122355Y0202928D01*
X0122381Y0203067D01*
X0122410Y0203205D01*
X0122444Y0203341D01*
X0122481Y0203477D01*
X0122522Y0203612D01*
X0122567Y0203746D01*
X0122616Y0203878D01*
X0122668Y0204009D01*
X0122724Y0204138D01*
X0122784Y0204265D01*
X0122847Y0204391D01*
X0122913Y0204515D01*
X0122984Y0204638D01*
X0123057Y0204758D01*
X0123134Y0204876D01*
X0123214Y0204992D01*
X0123298Y0205105D01*
X0123384Y0205216D01*
X0123474Y0205325D01*
X0123567Y0205431D01*
X0123662Y0205534D01*
X0123761Y0205635D01*
X0123862Y0205733D01*
X0123966Y0205828D01*
X0124073Y0205920D01*
X0124182Y0206009D01*
X0124294Y0206094D01*
X0124408Y0206177D01*
X0124524Y0206257D01*
X0124643Y0206333D01*
X0124764Y0206405D01*
X0124886Y0206475D01*
X0125011Y0206540D01*
X0125137Y0206603D01*
X0125265Y0206661D01*
X0125395Y0206716D01*
X0125526Y0206768D01*
X0125659Y0206815D01*
X0125793Y0206859D01*
X0125928Y0206900D01*
X0126064Y0206936D01*
X0126201Y0206968D01*
X0126339Y0206997D01*
X0126477Y0207022D01*
X0126617Y0207042D01*
X0126757Y0207059D01*
X0126897Y0207072D01*
X0127038Y0207081D01*
X0127178Y0207086D01*
X0127319Y0207087D01*
X0127460Y0207084D01*
X0127601Y0207077D01*
X0127741Y0207066D01*
X0127881Y0207051D01*
X0128021Y0207032D01*
X0128160Y0207010D01*
X0128298Y0206983D01*
X0128436Y0206953D01*
X0128572Y0206918D01*
X0128708Y0206880D01*
X0128842Y0206838D01*
X0128976Y0206792D01*
X0129108Y0206743D01*
X0129238Y0206689D01*
X0129367Y0206632D01*
X0129494Y0206572D01*
X0129620Y0206508D01*
X0129743Y0206440D01*
X0129865Y0206369D01*
X0129985Y0206295D01*
X0130102Y0206217D01*
X0130217Y0206136D01*
X0130330Y0206052D01*
X0130441Y0205965D01*
X0130549Y0205874D01*
X0130654Y0205781D01*
X0130757Y0205684D01*
X0130857Y0205585D01*
X0130954Y0205483D01*
X0131048Y0205378D01*
X0131139Y0205271D01*
X0131227Y0205161D01*
X0131312Y0205049D01*
X0131394Y0204934D01*
X0131473Y0204817D01*
X0131548Y0204698D01*
X0131620Y0204577D01*
X0131688Y0204454D01*
X0131753Y0204329D01*
X0131815Y0204202D01*
X0131872Y0204073D01*
X0131927Y0203943D01*
X0131977Y0203812D01*
X0132024Y0203679D01*
X0132067Y0203545D01*
X0132106Y0203409D01*
X0132141Y0203273D01*
X0132173Y0203136D01*
X0132200Y0202998D01*
X0132224Y0202859D01*
X0132244Y0202719D01*
X0132260Y0202579D01*
X0132272Y0202439D01*
X0132280Y0202298D01*
X0132284Y0202157D01*
X0132284Y0202017D01*
X0132280Y0201876D01*
X0132272Y0201735D01*
X0132260Y0201595D01*
X0132244Y0201455D01*
X0132224Y0201315D01*
X0132200Y0201176D01*
X0132173Y0201038D01*
X0132141Y0200901D01*
X0132106Y0200765D01*
X0132067Y0200629D01*
X0132024Y0200495D01*
X0131977Y0200362D01*
X0131927Y0200231D01*
X0131872Y0200101D01*
X0131815Y0199972D01*
X0131753Y0199845D01*
X0131688Y0199720D01*
X0131620Y0199597D01*
X0131548Y0199476D01*
X0131473Y0199357D01*
X0131394Y0199240D01*
X0131312Y0199125D01*
X0131227Y0199013D01*
X0131139Y0198903D01*
X0131048Y0198796D01*
X0130954Y0198691D01*
X0130857Y0198589D01*
X0130757Y0198490D01*
X0130654Y0198393D01*
X0130549Y0198300D01*
X0130441Y0198209D01*
X0130330Y0198122D01*
X0130217Y0198038D01*
X0130102Y0197957D01*
X0129985Y0197879D01*
X0129865Y0197805D01*
X0129743Y0197734D01*
X0129620Y0197666D01*
X0129494Y0197602D01*
X0129367Y0197542D01*
X0129238Y0197485D01*
X0129108Y0197431D01*
X0128976Y0197382D01*
X0128842Y0197336D01*
X0128708Y0197294D01*
X0128572Y0197256D01*
X0128436Y0197221D01*
X0128298Y0197191D01*
X0128160Y0197164D01*
X0128021Y0197142D01*
X0127881Y0197123D01*
X0127741Y0197108D01*
X0127601Y0197097D01*
X0127460Y0197090D01*
X0127319Y0197087D01*
X0127178Y0197088D01*
X0127038Y0197093D01*
X0126897Y0197102D01*
X0126757Y0197115D01*
X0126617Y0197132D01*
X0126477Y0197152D01*
X0126339Y0197177D01*
X0126201Y0197206D01*
X0126064Y0197238D01*
X0125928Y0197274D01*
X0125793Y0197315D01*
X0125659Y0197359D01*
X0125526Y0197406D01*
X0125395Y0197458D01*
X0125265Y0197513D01*
X0125137Y0197571D01*
X0125011Y0197634D01*
X0124886Y0197699D01*
X0124764Y0197769D01*
X0124643Y0197841D01*
X0124524Y0197917D01*
X0124408Y0197997D01*
X0124294Y0198080D01*
X0124182Y0198165D01*
X0124073Y0198254D01*
X0123966Y0198346D01*
X0123862Y0198441D01*
X0123761Y0198539D01*
X0123662Y0198640D01*
X0123567Y0198743D01*
X0123474Y0198849D01*
X0123384Y0198958D01*
X0123298Y0199069D01*
X0123214Y0199182D01*
X0123134Y0199298D01*
X0123057Y0199416D01*
X0122984Y0199536D01*
X0122913Y0199659D01*
X0122847Y0199783D01*
X0122784Y0199909D01*
X0122724Y0200036D01*
X0122668Y0200165D01*
X0122616Y0200296D01*
X0122567Y0200428D01*
X0122522Y0200562D01*
X0122481Y0200697D01*
X0122444Y0200833D01*
X0122410Y0200969D01*
X0122381Y0201107D01*
X0122355Y0201246D01*
X0122334Y0201385D01*
X0122316Y0201525D01*
X0122302Y0201665D01*
X0122292Y0201805D01*
X0122286Y0201946D01*
X0122284Y0202087D01*
X0118572Y0235513D02*
X0087469Y0235513D01*
X0087469Y0270552D01*
X0087469Y0270946D02*
X0166997Y0270946D01*
X0166997Y0235513D01*
X0135894Y0235513D01*
X0135894Y0241418D01*
X0118572Y0241418D01*
X0118572Y0235513D01*
X0135894Y0235513D01*
X0109733Y0242304D02*
X0104733Y0242304D01*
X0084371Y0235591D02*
X0084371Y0271024D01*
X0004843Y0271024D01*
X0004843Y0270631D02*
X0004843Y0235591D01*
X0035946Y0235591D01*
X0035946Y0241497D01*
X0053269Y0241497D01*
X0053269Y0235591D01*
X0035946Y0235591D01*
X0027107Y0242383D02*
X0022107Y0242383D01*
X0053269Y0235591D02*
X0084371Y0235591D01*
X0161654Y0202087D02*
X0161656Y0202228D01*
X0161662Y0202369D01*
X0161672Y0202509D01*
X0161686Y0202649D01*
X0161704Y0202789D01*
X0161725Y0202928D01*
X0161751Y0203067D01*
X0161780Y0203205D01*
X0161814Y0203341D01*
X0161851Y0203477D01*
X0161892Y0203612D01*
X0161937Y0203746D01*
X0161986Y0203878D01*
X0162038Y0204009D01*
X0162094Y0204138D01*
X0162154Y0204265D01*
X0162217Y0204391D01*
X0162283Y0204515D01*
X0162354Y0204638D01*
X0162427Y0204758D01*
X0162504Y0204876D01*
X0162584Y0204992D01*
X0162668Y0205105D01*
X0162754Y0205216D01*
X0162844Y0205325D01*
X0162937Y0205431D01*
X0163032Y0205534D01*
X0163131Y0205635D01*
X0163232Y0205733D01*
X0163336Y0205828D01*
X0163443Y0205920D01*
X0163552Y0206009D01*
X0163664Y0206094D01*
X0163778Y0206177D01*
X0163894Y0206257D01*
X0164013Y0206333D01*
X0164134Y0206405D01*
X0164256Y0206475D01*
X0164381Y0206540D01*
X0164507Y0206603D01*
X0164635Y0206661D01*
X0164765Y0206716D01*
X0164896Y0206768D01*
X0165029Y0206815D01*
X0165163Y0206859D01*
X0165298Y0206900D01*
X0165434Y0206936D01*
X0165571Y0206968D01*
X0165709Y0206997D01*
X0165847Y0207022D01*
X0165987Y0207042D01*
X0166127Y0207059D01*
X0166267Y0207072D01*
X0166408Y0207081D01*
X0166548Y0207086D01*
X0166689Y0207087D01*
X0166830Y0207084D01*
X0166971Y0207077D01*
X0167111Y0207066D01*
X0167251Y0207051D01*
X0167391Y0207032D01*
X0167530Y0207010D01*
X0167668Y0206983D01*
X0167806Y0206953D01*
X0167942Y0206918D01*
X0168078Y0206880D01*
X0168212Y0206838D01*
X0168346Y0206792D01*
X0168478Y0206743D01*
X0168608Y0206689D01*
X0168737Y0206632D01*
X0168864Y0206572D01*
X0168990Y0206508D01*
X0169113Y0206440D01*
X0169235Y0206369D01*
X0169355Y0206295D01*
X0169472Y0206217D01*
X0169587Y0206136D01*
X0169700Y0206052D01*
X0169811Y0205965D01*
X0169919Y0205874D01*
X0170024Y0205781D01*
X0170127Y0205684D01*
X0170227Y0205585D01*
X0170324Y0205483D01*
X0170418Y0205378D01*
X0170509Y0205271D01*
X0170597Y0205161D01*
X0170682Y0205049D01*
X0170764Y0204934D01*
X0170843Y0204817D01*
X0170918Y0204698D01*
X0170990Y0204577D01*
X0171058Y0204454D01*
X0171123Y0204329D01*
X0171185Y0204202D01*
X0171242Y0204073D01*
X0171297Y0203943D01*
X0171347Y0203812D01*
X0171394Y0203679D01*
X0171437Y0203545D01*
X0171476Y0203409D01*
X0171511Y0203273D01*
X0171543Y0203136D01*
X0171570Y0202998D01*
X0171594Y0202859D01*
X0171614Y0202719D01*
X0171630Y0202579D01*
X0171642Y0202439D01*
X0171650Y0202298D01*
X0171654Y0202157D01*
X0171654Y0202017D01*
X0171650Y0201876D01*
X0171642Y0201735D01*
X0171630Y0201595D01*
X0171614Y0201455D01*
X0171594Y0201315D01*
X0171570Y0201176D01*
X0171543Y0201038D01*
X0171511Y0200901D01*
X0171476Y0200765D01*
X0171437Y0200629D01*
X0171394Y0200495D01*
X0171347Y0200362D01*
X0171297Y0200231D01*
X0171242Y0200101D01*
X0171185Y0199972D01*
X0171123Y0199845D01*
X0171058Y0199720D01*
X0170990Y0199597D01*
X0170918Y0199476D01*
X0170843Y0199357D01*
X0170764Y0199240D01*
X0170682Y0199125D01*
X0170597Y0199013D01*
X0170509Y0198903D01*
X0170418Y0198796D01*
X0170324Y0198691D01*
X0170227Y0198589D01*
X0170127Y0198490D01*
X0170024Y0198393D01*
X0169919Y0198300D01*
X0169811Y0198209D01*
X0169700Y0198122D01*
X0169587Y0198038D01*
X0169472Y0197957D01*
X0169355Y0197879D01*
X0169235Y0197805D01*
X0169113Y0197734D01*
X0168990Y0197666D01*
X0168864Y0197602D01*
X0168737Y0197542D01*
X0168608Y0197485D01*
X0168478Y0197431D01*
X0168346Y0197382D01*
X0168212Y0197336D01*
X0168078Y0197294D01*
X0167942Y0197256D01*
X0167806Y0197221D01*
X0167668Y0197191D01*
X0167530Y0197164D01*
X0167391Y0197142D01*
X0167251Y0197123D01*
X0167111Y0197108D01*
X0166971Y0197097D01*
X0166830Y0197090D01*
X0166689Y0197087D01*
X0166548Y0197088D01*
X0166408Y0197093D01*
X0166267Y0197102D01*
X0166127Y0197115D01*
X0165987Y0197132D01*
X0165847Y0197152D01*
X0165709Y0197177D01*
X0165571Y0197206D01*
X0165434Y0197238D01*
X0165298Y0197274D01*
X0165163Y0197315D01*
X0165029Y0197359D01*
X0164896Y0197406D01*
X0164765Y0197458D01*
X0164635Y0197513D01*
X0164507Y0197571D01*
X0164381Y0197634D01*
X0164256Y0197699D01*
X0164134Y0197769D01*
X0164013Y0197841D01*
X0163894Y0197917D01*
X0163778Y0197997D01*
X0163664Y0198080D01*
X0163552Y0198165D01*
X0163443Y0198254D01*
X0163336Y0198346D01*
X0163232Y0198441D01*
X0163131Y0198539D01*
X0163032Y0198640D01*
X0162937Y0198743D01*
X0162844Y0198849D01*
X0162754Y0198958D01*
X0162668Y0199069D01*
X0162584Y0199182D01*
X0162504Y0199298D01*
X0162427Y0199416D01*
X0162354Y0199536D01*
X0162283Y0199659D01*
X0162217Y0199783D01*
X0162154Y0199909D01*
X0162094Y0200036D01*
X0162038Y0200165D01*
X0161986Y0200296D01*
X0161937Y0200428D01*
X0161892Y0200562D01*
X0161851Y0200697D01*
X0161814Y0200833D01*
X0161780Y0200969D01*
X0161751Y0201107D01*
X0161725Y0201246D01*
X0161704Y0201385D01*
X0161686Y0201525D01*
X0161672Y0201665D01*
X0161662Y0201805D01*
X0161656Y0201946D01*
X0161654Y0202087D01*
X0170198Y0235513D02*
X0170198Y0270552D01*
X0170198Y0270946D02*
X0249725Y0270946D01*
X0249725Y0235513D01*
X0218623Y0235513D01*
X0218623Y0241418D01*
X0201300Y0241418D01*
X0201300Y0235513D01*
X0170198Y0235513D01*
X0187461Y0242304D02*
X0192461Y0242304D01*
X0201300Y0235513D02*
X0218623Y0235513D01*
X0253623Y0235552D02*
X0253623Y0270591D01*
X0253623Y0270985D02*
X0333150Y0270985D01*
X0333150Y0235552D01*
X0302048Y0235552D01*
X0302048Y0241457D01*
X0284725Y0241457D01*
X0284725Y0235552D01*
X0253623Y0235552D01*
X0270887Y0242343D02*
X0275887Y0242343D01*
X0284725Y0235552D02*
X0302048Y0235552D01*
X0303387Y0202087D02*
X0303389Y0202228D01*
X0303395Y0202369D01*
X0303405Y0202509D01*
X0303419Y0202649D01*
X0303437Y0202789D01*
X0303458Y0202928D01*
X0303484Y0203067D01*
X0303513Y0203205D01*
X0303547Y0203341D01*
X0303584Y0203477D01*
X0303625Y0203612D01*
X0303670Y0203746D01*
X0303719Y0203878D01*
X0303771Y0204009D01*
X0303827Y0204138D01*
X0303887Y0204265D01*
X0303950Y0204391D01*
X0304016Y0204515D01*
X0304087Y0204638D01*
X0304160Y0204758D01*
X0304237Y0204876D01*
X0304317Y0204992D01*
X0304401Y0205105D01*
X0304487Y0205216D01*
X0304577Y0205325D01*
X0304670Y0205431D01*
X0304765Y0205534D01*
X0304864Y0205635D01*
X0304965Y0205733D01*
X0305069Y0205828D01*
X0305176Y0205920D01*
X0305285Y0206009D01*
X0305397Y0206094D01*
X0305511Y0206177D01*
X0305627Y0206257D01*
X0305746Y0206333D01*
X0305867Y0206405D01*
X0305989Y0206475D01*
X0306114Y0206540D01*
X0306240Y0206603D01*
X0306368Y0206661D01*
X0306498Y0206716D01*
X0306629Y0206768D01*
X0306762Y0206815D01*
X0306896Y0206859D01*
X0307031Y0206900D01*
X0307167Y0206936D01*
X0307304Y0206968D01*
X0307442Y0206997D01*
X0307580Y0207022D01*
X0307720Y0207042D01*
X0307860Y0207059D01*
X0308000Y0207072D01*
X0308141Y0207081D01*
X0308281Y0207086D01*
X0308422Y0207087D01*
X0308563Y0207084D01*
X0308704Y0207077D01*
X0308844Y0207066D01*
X0308984Y0207051D01*
X0309124Y0207032D01*
X0309263Y0207010D01*
X0309401Y0206983D01*
X0309539Y0206953D01*
X0309675Y0206918D01*
X0309811Y0206880D01*
X0309945Y0206838D01*
X0310079Y0206792D01*
X0310211Y0206743D01*
X0310341Y0206689D01*
X0310470Y0206632D01*
X0310597Y0206572D01*
X0310723Y0206508D01*
X0310846Y0206440D01*
X0310968Y0206369D01*
X0311088Y0206295D01*
X0311205Y0206217D01*
X0311320Y0206136D01*
X0311433Y0206052D01*
X0311544Y0205965D01*
X0311652Y0205874D01*
X0311757Y0205781D01*
X0311860Y0205684D01*
X0311960Y0205585D01*
X0312057Y0205483D01*
X0312151Y0205378D01*
X0312242Y0205271D01*
X0312330Y0205161D01*
X0312415Y0205049D01*
X0312497Y0204934D01*
X0312576Y0204817D01*
X0312651Y0204698D01*
X0312723Y0204577D01*
X0312791Y0204454D01*
X0312856Y0204329D01*
X0312918Y0204202D01*
X0312975Y0204073D01*
X0313030Y0203943D01*
X0313080Y0203812D01*
X0313127Y0203679D01*
X0313170Y0203545D01*
X0313209Y0203409D01*
X0313244Y0203273D01*
X0313276Y0203136D01*
X0313303Y0202998D01*
X0313327Y0202859D01*
X0313347Y0202719D01*
X0313363Y0202579D01*
X0313375Y0202439D01*
X0313383Y0202298D01*
X0313387Y0202157D01*
X0313387Y0202017D01*
X0313383Y0201876D01*
X0313375Y0201735D01*
X0313363Y0201595D01*
X0313347Y0201455D01*
X0313327Y0201315D01*
X0313303Y0201176D01*
X0313276Y0201038D01*
X0313244Y0200901D01*
X0313209Y0200765D01*
X0313170Y0200629D01*
X0313127Y0200495D01*
X0313080Y0200362D01*
X0313030Y0200231D01*
X0312975Y0200101D01*
X0312918Y0199972D01*
X0312856Y0199845D01*
X0312791Y0199720D01*
X0312723Y0199597D01*
X0312651Y0199476D01*
X0312576Y0199357D01*
X0312497Y0199240D01*
X0312415Y0199125D01*
X0312330Y0199013D01*
X0312242Y0198903D01*
X0312151Y0198796D01*
X0312057Y0198691D01*
X0311960Y0198589D01*
X0311860Y0198490D01*
X0311757Y0198393D01*
X0311652Y0198300D01*
X0311544Y0198209D01*
X0311433Y0198122D01*
X0311320Y0198038D01*
X0311205Y0197957D01*
X0311088Y0197879D01*
X0310968Y0197805D01*
X0310846Y0197734D01*
X0310723Y0197666D01*
X0310597Y0197602D01*
X0310470Y0197542D01*
X0310341Y0197485D01*
X0310211Y0197431D01*
X0310079Y0197382D01*
X0309945Y0197336D01*
X0309811Y0197294D01*
X0309675Y0197256D01*
X0309539Y0197221D01*
X0309401Y0197191D01*
X0309263Y0197164D01*
X0309124Y0197142D01*
X0308984Y0197123D01*
X0308844Y0197108D01*
X0308704Y0197097D01*
X0308563Y0197090D01*
X0308422Y0197087D01*
X0308281Y0197088D01*
X0308141Y0197093D01*
X0308000Y0197102D01*
X0307860Y0197115D01*
X0307720Y0197132D01*
X0307580Y0197152D01*
X0307442Y0197177D01*
X0307304Y0197206D01*
X0307167Y0197238D01*
X0307031Y0197274D01*
X0306896Y0197315D01*
X0306762Y0197359D01*
X0306629Y0197406D01*
X0306498Y0197458D01*
X0306368Y0197513D01*
X0306240Y0197571D01*
X0306114Y0197634D01*
X0305989Y0197699D01*
X0305867Y0197769D01*
X0305746Y0197841D01*
X0305627Y0197917D01*
X0305511Y0197997D01*
X0305397Y0198080D01*
X0305285Y0198165D01*
X0305176Y0198254D01*
X0305069Y0198346D01*
X0304965Y0198441D01*
X0304864Y0198539D01*
X0304765Y0198640D01*
X0304670Y0198743D01*
X0304577Y0198849D01*
X0304487Y0198958D01*
X0304401Y0199069D01*
X0304317Y0199182D01*
X0304237Y0199298D01*
X0304160Y0199416D01*
X0304087Y0199536D01*
X0304016Y0199659D01*
X0303950Y0199783D01*
X0303887Y0199909D01*
X0303827Y0200036D01*
X0303771Y0200165D01*
X0303719Y0200296D01*
X0303670Y0200428D01*
X0303625Y0200562D01*
X0303584Y0200697D01*
X0303547Y0200833D01*
X0303513Y0200969D01*
X0303484Y0201107D01*
X0303458Y0201246D01*
X0303437Y0201385D01*
X0303419Y0201525D01*
X0303405Y0201665D01*
X0303395Y0201805D01*
X0303389Y0201946D01*
X0303387Y0202087D01*
X0264017Y0202087D02*
X0264019Y0202228D01*
X0264025Y0202369D01*
X0264035Y0202509D01*
X0264049Y0202649D01*
X0264067Y0202789D01*
X0264088Y0202928D01*
X0264114Y0203067D01*
X0264143Y0203205D01*
X0264177Y0203341D01*
X0264214Y0203477D01*
X0264255Y0203612D01*
X0264300Y0203746D01*
X0264349Y0203878D01*
X0264401Y0204009D01*
X0264457Y0204138D01*
X0264517Y0204265D01*
X0264580Y0204391D01*
X0264646Y0204515D01*
X0264717Y0204638D01*
X0264790Y0204758D01*
X0264867Y0204876D01*
X0264947Y0204992D01*
X0265031Y0205105D01*
X0265117Y0205216D01*
X0265207Y0205325D01*
X0265300Y0205431D01*
X0265395Y0205534D01*
X0265494Y0205635D01*
X0265595Y0205733D01*
X0265699Y0205828D01*
X0265806Y0205920D01*
X0265915Y0206009D01*
X0266027Y0206094D01*
X0266141Y0206177D01*
X0266257Y0206257D01*
X0266376Y0206333D01*
X0266497Y0206405D01*
X0266619Y0206475D01*
X0266744Y0206540D01*
X0266870Y0206603D01*
X0266998Y0206661D01*
X0267128Y0206716D01*
X0267259Y0206768D01*
X0267392Y0206815D01*
X0267526Y0206859D01*
X0267661Y0206900D01*
X0267797Y0206936D01*
X0267934Y0206968D01*
X0268072Y0206997D01*
X0268210Y0207022D01*
X0268350Y0207042D01*
X0268490Y0207059D01*
X0268630Y0207072D01*
X0268771Y0207081D01*
X0268911Y0207086D01*
X0269052Y0207087D01*
X0269193Y0207084D01*
X0269334Y0207077D01*
X0269474Y0207066D01*
X0269614Y0207051D01*
X0269754Y0207032D01*
X0269893Y0207010D01*
X0270031Y0206983D01*
X0270169Y0206953D01*
X0270305Y0206918D01*
X0270441Y0206880D01*
X0270575Y0206838D01*
X0270709Y0206792D01*
X0270841Y0206743D01*
X0270971Y0206689D01*
X0271100Y0206632D01*
X0271227Y0206572D01*
X0271353Y0206508D01*
X0271476Y0206440D01*
X0271598Y0206369D01*
X0271718Y0206295D01*
X0271835Y0206217D01*
X0271950Y0206136D01*
X0272063Y0206052D01*
X0272174Y0205965D01*
X0272282Y0205874D01*
X0272387Y0205781D01*
X0272490Y0205684D01*
X0272590Y0205585D01*
X0272687Y0205483D01*
X0272781Y0205378D01*
X0272872Y0205271D01*
X0272960Y0205161D01*
X0273045Y0205049D01*
X0273127Y0204934D01*
X0273206Y0204817D01*
X0273281Y0204698D01*
X0273353Y0204577D01*
X0273421Y0204454D01*
X0273486Y0204329D01*
X0273548Y0204202D01*
X0273605Y0204073D01*
X0273660Y0203943D01*
X0273710Y0203812D01*
X0273757Y0203679D01*
X0273800Y0203545D01*
X0273839Y0203409D01*
X0273874Y0203273D01*
X0273906Y0203136D01*
X0273933Y0202998D01*
X0273957Y0202859D01*
X0273977Y0202719D01*
X0273993Y0202579D01*
X0274005Y0202439D01*
X0274013Y0202298D01*
X0274017Y0202157D01*
X0274017Y0202017D01*
X0274013Y0201876D01*
X0274005Y0201735D01*
X0273993Y0201595D01*
X0273977Y0201455D01*
X0273957Y0201315D01*
X0273933Y0201176D01*
X0273906Y0201038D01*
X0273874Y0200901D01*
X0273839Y0200765D01*
X0273800Y0200629D01*
X0273757Y0200495D01*
X0273710Y0200362D01*
X0273660Y0200231D01*
X0273605Y0200101D01*
X0273548Y0199972D01*
X0273486Y0199845D01*
X0273421Y0199720D01*
X0273353Y0199597D01*
X0273281Y0199476D01*
X0273206Y0199357D01*
X0273127Y0199240D01*
X0273045Y0199125D01*
X0272960Y0199013D01*
X0272872Y0198903D01*
X0272781Y0198796D01*
X0272687Y0198691D01*
X0272590Y0198589D01*
X0272490Y0198490D01*
X0272387Y0198393D01*
X0272282Y0198300D01*
X0272174Y0198209D01*
X0272063Y0198122D01*
X0271950Y0198038D01*
X0271835Y0197957D01*
X0271718Y0197879D01*
X0271598Y0197805D01*
X0271476Y0197734D01*
X0271353Y0197666D01*
X0271227Y0197602D01*
X0271100Y0197542D01*
X0270971Y0197485D01*
X0270841Y0197431D01*
X0270709Y0197382D01*
X0270575Y0197336D01*
X0270441Y0197294D01*
X0270305Y0197256D01*
X0270169Y0197221D01*
X0270031Y0197191D01*
X0269893Y0197164D01*
X0269754Y0197142D01*
X0269614Y0197123D01*
X0269474Y0197108D01*
X0269334Y0197097D01*
X0269193Y0197090D01*
X0269052Y0197087D01*
X0268911Y0197088D01*
X0268771Y0197093D01*
X0268630Y0197102D01*
X0268490Y0197115D01*
X0268350Y0197132D01*
X0268210Y0197152D01*
X0268072Y0197177D01*
X0267934Y0197206D01*
X0267797Y0197238D01*
X0267661Y0197274D01*
X0267526Y0197315D01*
X0267392Y0197359D01*
X0267259Y0197406D01*
X0267128Y0197458D01*
X0266998Y0197513D01*
X0266870Y0197571D01*
X0266744Y0197634D01*
X0266619Y0197699D01*
X0266497Y0197769D01*
X0266376Y0197841D01*
X0266257Y0197917D01*
X0266141Y0197997D01*
X0266027Y0198080D01*
X0265915Y0198165D01*
X0265806Y0198254D01*
X0265699Y0198346D01*
X0265595Y0198441D01*
X0265494Y0198539D01*
X0265395Y0198640D01*
X0265300Y0198743D01*
X0265207Y0198849D01*
X0265117Y0198958D01*
X0265031Y0199069D01*
X0264947Y0199182D01*
X0264867Y0199298D01*
X0264790Y0199416D01*
X0264717Y0199536D01*
X0264646Y0199659D01*
X0264580Y0199783D01*
X0264517Y0199909D01*
X0264457Y0200036D01*
X0264401Y0200165D01*
X0264349Y0200296D01*
X0264300Y0200428D01*
X0264255Y0200562D01*
X0264214Y0200697D01*
X0264177Y0200833D01*
X0264143Y0200969D01*
X0264114Y0201107D01*
X0264088Y0201246D01*
X0264067Y0201385D01*
X0264049Y0201525D01*
X0264035Y0201665D01*
X0264025Y0201805D01*
X0264019Y0201946D01*
X0264017Y0202087D01*
X0225661Y0117085D02*
X0225661Y0112881D01*
X0224260Y0112881D02*
X0227062Y0112881D01*
X0224260Y0115683D02*
X0225661Y0117085D01*
X0222458Y0116384D02*
X0222458Y0113582D01*
X0221758Y0112881D01*
X0219656Y0112881D01*
X0219656Y0117085D01*
X0221758Y0117085D01*
X0222458Y0116384D01*
X0217854Y0117085D02*
X0215052Y0117085D01*
X0215052Y0112881D01*
X0217854Y0112881D01*
X0216453Y0114983D02*
X0215052Y0114983D01*
X0213250Y0112881D02*
X0210448Y0112881D01*
X0210448Y0117085D01*
X0184387Y0033733D02*
X0179387Y0033733D01*
D13*
X0221804Y0120338D02*
X0221973Y0120437D01*
X0222139Y0120541D01*
X0222303Y0120648D01*
X0222464Y0120759D01*
X0222622Y0120874D01*
X0222777Y0120993D01*
X0222930Y0121116D01*
X0223079Y0121242D01*
X0223225Y0121372D01*
X0223368Y0121506D01*
X0223508Y0121643D01*
X0223644Y0121783D01*
X0223777Y0121927D01*
X0223906Y0122074D01*
X0224032Y0122224D01*
X0224153Y0122377D01*
X0224272Y0122533D01*
X0224386Y0122692D01*
X0224496Y0122853D01*
X0224602Y0123018D01*
X0224705Y0123184D01*
X0224803Y0123354D01*
X0224897Y0123525D01*
X0224987Y0123699D01*
X0225072Y0123875D01*
X0225154Y0124053D01*
X0225230Y0124233D01*
X0225303Y0124415D01*
X0225371Y0124598D01*
X0225434Y0124783D01*
X0225493Y0124970D01*
X0225547Y0125158D01*
X0225597Y0125347D01*
X0225642Y0125537D01*
X0225682Y0125729D01*
X0225718Y0125921D01*
X0225749Y0126114D01*
X0225775Y0126308D01*
X0225797Y0126503D01*
X0225813Y0126698D01*
X0225825Y0126893D01*
X0225833Y0127089D01*
X0225835Y0127284D01*
X0214070Y0120225D02*
X0213902Y0120318D01*
X0213736Y0120414D01*
X0213572Y0120514D01*
X0213411Y0120619D01*
X0213252Y0120727D01*
X0213096Y0120839D01*
X0212942Y0120955D01*
X0212792Y0121074D01*
X0212644Y0121197D01*
X0212499Y0121323D01*
X0212358Y0121453D01*
X0212219Y0121586D01*
X0212084Y0121723D01*
X0211952Y0121863D01*
X0211824Y0122005D01*
X0211699Y0122151D01*
X0211577Y0122300D01*
X0211459Y0122452D01*
X0211345Y0122606D01*
X0211235Y0122764D01*
X0211128Y0122923D01*
X0211025Y0123086D01*
X0210926Y0123251D01*
X0210831Y0123418D01*
X0210741Y0123587D01*
X0210654Y0123758D01*
X0210571Y0123932D01*
X0210493Y0124107D01*
X0210419Y0124285D01*
X0210349Y0124464D01*
X0210283Y0124644D01*
X0210222Y0124826D01*
X0210165Y0125010D01*
X0210113Y0125195D01*
X0210065Y0125381D01*
X0210021Y0125568D01*
X0209982Y0125756D01*
X0209948Y0125945D01*
X0209918Y0126135D01*
X0209893Y0126325D01*
X0209872Y0126516D01*
X0209856Y0126708D01*
X0209844Y0126900D01*
X0209837Y0127092D01*
X0209835Y0127284D01*
X0223003Y0133391D02*
X0223149Y0133264D01*
X0223291Y0133135D01*
X0223431Y0133001D01*
X0223567Y0132865D01*
X0223700Y0132725D01*
X0223830Y0132582D01*
X0223956Y0132435D01*
X0224078Y0132286D01*
X0224197Y0132134D01*
X0224312Y0131979D01*
X0224424Y0131822D01*
X0224531Y0131662D01*
X0224635Y0131499D01*
X0224734Y0131333D01*
X0224830Y0131166D01*
X0224922Y0130996D01*
X0225009Y0130824D01*
X0225093Y0130650D01*
X0225172Y0130474D01*
X0225246Y0130296D01*
X0225317Y0130116D01*
X0225383Y0129935D01*
X0225445Y0129752D01*
X0225502Y0129568D01*
X0225555Y0129382D01*
X0225603Y0129195D01*
X0225647Y0129007D01*
X0225686Y0128818D01*
X0225721Y0128628D01*
X0225751Y0128438D01*
X0225777Y0128247D01*
X0225798Y0128055D01*
X0225814Y0127862D01*
X0225826Y0127670D01*
X0225833Y0127477D01*
X0225835Y0127284D01*
X0212713Y0133430D02*
X0212565Y0133303D01*
X0212420Y0133173D01*
X0212279Y0133040D01*
X0212140Y0132903D01*
X0212005Y0132763D01*
X0211874Y0132619D01*
X0211746Y0132472D01*
X0211621Y0132323D01*
X0211500Y0132170D01*
X0211383Y0132015D01*
X0211270Y0131856D01*
X0211161Y0131695D01*
X0211056Y0131531D01*
X0210954Y0131365D01*
X0210857Y0131196D01*
X0210764Y0131026D01*
X0210675Y0130852D01*
X0210590Y0130677D01*
X0210510Y0130500D01*
X0210434Y0130321D01*
X0210362Y0130140D01*
X0210295Y0129957D01*
X0210232Y0129773D01*
X0210174Y0129587D01*
X0210120Y0129400D01*
X0210071Y0129212D01*
X0210026Y0129022D01*
X0209986Y0128832D01*
X0209951Y0128640D01*
X0209920Y0128448D01*
X0209894Y0128255D01*
X0209873Y0128061D01*
X0209856Y0127867D01*
X0209844Y0127673D01*
X0209837Y0127479D01*
X0209835Y0127284D01*
D14*
X0226082Y0120325D02*
X0227883Y0120325D01*
X0226982Y0119424D02*
X0226982Y0121226D01*
X0226943Y0131944D02*
X0226943Y0133745D01*
X0230442Y0088253D02*
X0217410Y0088253D01*
X0217292Y0088253D02*
X0204339Y0088253D01*
X0204339Y0037505D01*
X0217253Y0037505D01*
X0217410Y0037517D02*
X0230410Y0037517D01*
X0230410Y0088017D01*
X0343797Y0087185D02*
X0346499Y0088987D01*
X0343797Y0088987D01*
X0344247Y0090132D02*
X0346048Y0090132D01*
X0346499Y0090582D01*
X0346499Y0091483D01*
X0346048Y0091934D01*
X0344247Y0091934D01*
X0343797Y0091483D01*
X0343797Y0090582D01*
X0344247Y0090132D01*
X0343797Y0087185D02*
X0346499Y0087185D01*
X0346499Y0086041D02*
X0345148Y0084689D01*
X0345598Y0084239D02*
X0343797Y0086041D01*
X0343797Y0084239D02*
X0346499Y0084239D01*
X0348692Y0083099D02*
X0348692Y0097599D01*
X0346499Y0097376D02*
X0343797Y0097376D01*
X0345148Y0096025D01*
X0345148Y0097827D01*
X0345598Y0094880D02*
X0346048Y0094880D01*
X0346499Y0094430D01*
X0346499Y0093079D01*
X0343797Y0093079D01*
X0343797Y0094430D01*
X0344247Y0094880D01*
X0344697Y0094880D01*
X0345148Y0094430D01*
X0345148Y0093079D01*
X0345148Y0094430D02*
X0345598Y0094880D01*
X0348692Y0083099D02*
X0386192Y0083099D01*
X0386192Y0097599D01*
X0359442Y0107599D02*
X0359444Y0107795D01*
X0359452Y0107992D01*
X0359464Y0108188D01*
X0359481Y0108383D01*
X0359502Y0108578D01*
X0359529Y0108773D01*
X0359560Y0108967D01*
X0359596Y0109160D01*
X0359636Y0109352D01*
X0359682Y0109543D01*
X0359732Y0109733D01*
X0359786Y0109921D01*
X0359846Y0110108D01*
X0359910Y0110294D01*
X0359978Y0110478D01*
X0360051Y0110660D01*
X0360128Y0110841D01*
X0360210Y0111019D01*
X0360296Y0111196D01*
X0360387Y0111370D01*
X0360481Y0111542D01*
X0360580Y0111712D01*
X0360683Y0111879D01*
X0360790Y0112044D01*
X0360901Y0112205D01*
X0361016Y0112365D01*
X0361135Y0112521D01*
X0361258Y0112674D01*
X0361384Y0112824D01*
X0361514Y0112971D01*
X0361648Y0113115D01*
X0361785Y0113256D01*
X0361926Y0113393D01*
X0362070Y0113527D01*
X0362217Y0113657D01*
X0362367Y0113783D01*
X0362520Y0113906D01*
X0362676Y0114025D01*
X0362836Y0114140D01*
X0362997Y0114251D01*
X0363162Y0114358D01*
X0363329Y0114461D01*
X0363499Y0114560D01*
X0363671Y0114654D01*
X0363845Y0114745D01*
X0364022Y0114831D01*
X0364200Y0114913D01*
X0364381Y0114990D01*
X0364563Y0115063D01*
X0364747Y0115131D01*
X0364933Y0115195D01*
X0365120Y0115255D01*
X0365308Y0115309D01*
X0365498Y0115359D01*
X0365689Y0115405D01*
X0365881Y0115445D01*
X0366074Y0115481D01*
X0366268Y0115512D01*
X0366463Y0115539D01*
X0366658Y0115560D01*
X0366853Y0115577D01*
X0367049Y0115589D01*
X0367246Y0115597D01*
X0367442Y0115599D01*
X0367638Y0115597D01*
X0367835Y0115589D01*
X0368031Y0115577D01*
X0368226Y0115560D01*
X0368421Y0115539D01*
X0368616Y0115512D01*
X0368810Y0115481D01*
X0369003Y0115445D01*
X0369195Y0115405D01*
X0369386Y0115359D01*
X0369576Y0115309D01*
X0369764Y0115255D01*
X0369951Y0115195D01*
X0370137Y0115131D01*
X0370321Y0115063D01*
X0370503Y0114990D01*
X0370684Y0114913D01*
X0370862Y0114831D01*
X0371039Y0114745D01*
X0371213Y0114654D01*
X0371385Y0114560D01*
X0371555Y0114461D01*
X0371722Y0114358D01*
X0371887Y0114251D01*
X0372048Y0114140D01*
X0372208Y0114025D01*
X0372364Y0113906D01*
X0372517Y0113783D01*
X0372667Y0113657D01*
X0372814Y0113527D01*
X0372958Y0113393D01*
X0373099Y0113256D01*
X0373236Y0113115D01*
X0373370Y0112971D01*
X0373500Y0112824D01*
X0373626Y0112674D01*
X0373749Y0112521D01*
X0373868Y0112365D01*
X0373983Y0112205D01*
X0374094Y0112044D01*
X0374201Y0111879D01*
X0374304Y0111712D01*
X0374403Y0111542D01*
X0374497Y0111370D01*
X0374588Y0111196D01*
X0374674Y0111019D01*
X0374756Y0110841D01*
X0374833Y0110660D01*
X0374906Y0110478D01*
X0374974Y0110294D01*
X0375038Y0110108D01*
X0375098Y0109921D01*
X0375152Y0109733D01*
X0375202Y0109543D01*
X0375248Y0109352D01*
X0375288Y0109160D01*
X0375324Y0108967D01*
X0375355Y0108773D01*
X0375382Y0108578D01*
X0375403Y0108383D01*
X0375420Y0108188D01*
X0375432Y0107992D01*
X0375440Y0107795D01*
X0375442Y0107599D01*
X0375440Y0107403D01*
X0375432Y0107206D01*
X0375420Y0107010D01*
X0375403Y0106815D01*
X0375382Y0106620D01*
X0375355Y0106425D01*
X0375324Y0106231D01*
X0375288Y0106038D01*
X0375248Y0105846D01*
X0375202Y0105655D01*
X0375152Y0105465D01*
X0375098Y0105277D01*
X0375038Y0105090D01*
X0374974Y0104904D01*
X0374906Y0104720D01*
X0374833Y0104538D01*
X0374756Y0104357D01*
X0374674Y0104179D01*
X0374588Y0104002D01*
X0374497Y0103828D01*
X0374403Y0103656D01*
X0374304Y0103486D01*
X0374201Y0103319D01*
X0374094Y0103154D01*
X0373983Y0102993D01*
X0373868Y0102833D01*
X0373749Y0102677D01*
X0373626Y0102524D01*
X0373500Y0102374D01*
X0373370Y0102227D01*
X0373236Y0102083D01*
X0373099Y0101942D01*
X0372958Y0101805D01*
X0372814Y0101671D01*
X0372667Y0101541D01*
X0372517Y0101415D01*
X0372364Y0101292D01*
X0372208Y0101173D01*
X0372048Y0101058D01*
X0371887Y0100947D01*
X0371722Y0100840D01*
X0371555Y0100737D01*
X0371385Y0100638D01*
X0371213Y0100544D01*
X0371039Y0100453D01*
X0370862Y0100367D01*
X0370684Y0100285D01*
X0370503Y0100208D01*
X0370321Y0100135D01*
X0370137Y0100067D01*
X0369951Y0100003D01*
X0369764Y0099943D01*
X0369576Y0099889D01*
X0369386Y0099839D01*
X0369195Y0099793D01*
X0369003Y0099753D01*
X0368810Y0099717D01*
X0368616Y0099686D01*
X0368421Y0099659D01*
X0368226Y0099638D01*
X0368031Y0099621D01*
X0367835Y0099609D01*
X0367638Y0099601D01*
X0367442Y0099599D01*
X0367246Y0099601D01*
X0367049Y0099609D01*
X0366853Y0099621D01*
X0366658Y0099638D01*
X0366463Y0099659D01*
X0366268Y0099686D01*
X0366074Y0099717D01*
X0365881Y0099753D01*
X0365689Y0099793D01*
X0365498Y0099839D01*
X0365308Y0099889D01*
X0365120Y0099943D01*
X0364933Y0100003D01*
X0364747Y0100067D01*
X0364563Y0100135D01*
X0364381Y0100208D01*
X0364200Y0100285D01*
X0364022Y0100367D01*
X0363845Y0100453D01*
X0363671Y0100544D01*
X0363499Y0100638D01*
X0363329Y0100737D01*
X0363162Y0100840D01*
X0362997Y0100947D01*
X0362836Y0101058D01*
X0362676Y0101173D01*
X0362520Y0101292D01*
X0362367Y0101415D01*
X0362217Y0101541D01*
X0362070Y0101671D01*
X0361926Y0101805D01*
X0361785Y0101942D01*
X0361648Y0102083D01*
X0361514Y0102227D01*
X0361384Y0102374D01*
X0361258Y0102524D01*
X0361135Y0102677D01*
X0361016Y0102833D01*
X0360901Y0102993D01*
X0360790Y0103154D01*
X0360683Y0103319D01*
X0360580Y0103486D01*
X0360481Y0103656D01*
X0360387Y0103828D01*
X0360296Y0104002D01*
X0360210Y0104179D01*
X0360128Y0104357D01*
X0360051Y0104538D01*
X0359978Y0104720D01*
X0359910Y0104904D01*
X0359846Y0105090D01*
X0359786Y0105277D01*
X0359732Y0105465D01*
X0359682Y0105655D01*
X0359636Y0105846D01*
X0359596Y0106038D01*
X0359560Y0106231D01*
X0359529Y0106425D01*
X0359502Y0106620D01*
X0359481Y0106815D01*
X0359464Y0107010D01*
X0359452Y0107206D01*
X0359444Y0107403D01*
X0359442Y0107599D01*
X0348692Y0117599D02*
X0348692Y0126349D01*
X0348692Y0126599D02*
X0386192Y0126599D01*
X0386192Y0126349D02*
X0386192Y0117599D01*
X0323387Y0187087D02*
X0293387Y0187087D01*
X0293387Y0217087D01*
X0303387Y0217087D01*
X0313387Y0222087D01*
X0313387Y0217087D02*
X0323387Y0217087D01*
X0323387Y0187087D01*
X0317887Y0197087D02*
X0317889Y0197131D01*
X0317895Y0197175D01*
X0317905Y0197218D01*
X0317918Y0197260D01*
X0317935Y0197301D01*
X0317956Y0197340D01*
X0317980Y0197377D01*
X0318007Y0197412D01*
X0318037Y0197444D01*
X0318070Y0197474D01*
X0318106Y0197500D01*
X0318143Y0197524D01*
X0318183Y0197543D01*
X0318224Y0197560D01*
X0318267Y0197572D01*
X0318310Y0197581D01*
X0318354Y0197586D01*
X0318398Y0197587D01*
X0318442Y0197584D01*
X0318486Y0197577D01*
X0318529Y0197566D01*
X0318571Y0197552D01*
X0318611Y0197534D01*
X0318650Y0197512D01*
X0318686Y0197488D01*
X0318720Y0197460D01*
X0318752Y0197429D01*
X0318781Y0197395D01*
X0318807Y0197359D01*
X0318829Y0197321D01*
X0318848Y0197281D01*
X0318863Y0197239D01*
X0318875Y0197197D01*
X0318883Y0197153D01*
X0318887Y0197109D01*
X0318887Y0197065D01*
X0318883Y0197021D01*
X0318875Y0196977D01*
X0318863Y0196935D01*
X0318848Y0196893D01*
X0318829Y0196853D01*
X0318807Y0196815D01*
X0318781Y0196779D01*
X0318752Y0196745D01*
X0318720Y0196714D01*
X0318686Y0196686D01*
X0318650Y0196662D01*
X0318611Y0196640D01*
X0318571Y0196622D01*
X0318529Y0196608D01*
X0318486Y0196597D01*
X0318442Y0196590D01*
X0318398Y0196587D01*
X0318354Y0196588D01*
X0318310Y0196593D01*
X0318267Y0196602D01*
X0318224Y0196614D01*
X0318183Y0196631D01*
X0318143Y0196650D01*
X0318106Y0196674D01*
X0318070Y0196700D01*
X0318037Y0196730D01*
X0318007Y0196762D01*
X0317980Y0196797D01*
X0317956Y0196834D01*
X0317935Y0196873D01*
X0317918Y0196914D01*
X0317905Y0196956D01*
X0317895Y0196999D01*
X0317889Y0197043D01*
X0317887Y0197087D01*
X0318387Y0197087D02*
X0318387Y0207087D01*
X0317887Y0207087D02*
X0317889Y0207131D01*
X0317895Y0207175D01*
X0317905Y0207218D01*
X0317918Y0207260D01*
X0317935Y0207301D01*
X0317956Y0207340D01*
X0317980Y0207377D01*
X0318007Y0207412D01*
X0318037Y0207444D01*
X0318070Y0207474D01*
X0318106Y0207500D01*
X0318143Y0207524D01*
X0318183Y0207543D01*
X0318224Y0207560D01*
X0318267Y0207572D01*
X0318310Y0207581D01*
X0318354Y0207586D01*
X0318398Y0207587D01*
X0318442Y0207584D01*
X0318486Y0207577D01*
X0318529Y0207566D01*
X0318571Y0207552D01*
X0318611Y0207534D01*
X0318650Y0207512D01*
X0318686Y0207488D01*
X0318720Y0207460D01*
X0318752Y0207429D01*
X0318781Y0207395D01*
X0318807Y0207359D01*
X0318829Y0207321D01*
X0318848Y0207281D01*
X0318863Y0207239D01*
X0318875Y0207197D01*
X0318883Y0207153D01*
X0318887Y0207109D01*
X0318887Y0207065D01*
X0318883Y0207021D01*
X0318875Y0206977D01*
X0318863Y0206935D01*
X0318848Y0206893D01*
X0318829Y0206853D01*
X0318807Y0206815D01*
X0318781Y0206779D01*
X0318752Y0206745D01*
X0318720Y0206714D01*
X0318686Y0206686D01*
X0318650Y0206662D01*
X0318611Y0206640D01*
X0318571Y0206622D01*
X0318529Y0206608D01*
X0318486Y0206597D01*
X0318442Y0206590D01*
X0318398Y0206587D01*
X0318354Y0206588D01*
X0318310Y0206593D01*
X0318267Y0206602D01*
X0318224Y0206614D01*
X0318183Y0206631D01*
X0318143Y0206650D01*
X0318106Y0206674D01*
X0318070Y0206700D01*
X0318037Y0206730D01*
X0318007Y0206762D01*
X0317980Y0206797D01*
X0317956Y0206834D01*
X0317935Y0206873D01*
X0317918Y0206914D01*
X0317905Y0206956D01*
X0317895Y0206999D01*
X0317889Y0207043D01*
X0317887Y0207087D01*
X0298387Y0207087D02*
X0298387Y0197087D01*
X0297887Y0197087D02*
X0297889Y0197131D01*
X0297895Y0197175D01*
X0297905Y0197218D01*
X0297918Y0197260D01*
X0297935Y0197301D01*
X0297956Y0197340D01*
X0297980Y0197377D01*
X0298007Y0197412D01*
X0298037Y0197444D01*
X0298070Y0197474D01*
X0298106Y0197500D01*
X0298143Y0197524D01*
X0298183Y0197543D01*
X0298224Y0197560D01*
X0298267Y0197572D01*
X0298310Y0197581D01*
X0298354Y0197586D01*
X0298398Y0197587D01*
X0298442Y0197584D01*
X0298486Y0197577D01*
X0298529Y0197566D01*
X0298571Y0197552D01*
X0298611Y0197534D01*
X0298650Y0197512D01*
X0298686Y0197488D01*
X0298720Y0197460D01*
X0298752Y0197429D01*
X0298781Y0197395D01*
X0298807Y0197359D01*
X0298829Y0197321D01*
X0298848Y0197281D01*
X0298863Y0197239D01*
X0298875Y0197197D01*
X0298883Y0197153D01*
X0298887Y0197109D01*
X0298887Y0197065D01*
X0298883Y0197021D01*
X0298875Y0196977D01*
X0298863Y0196935D01*
X0298848Y0196893D01*
X0298829Y0196853D01*
X0298807Y0196815D01*
X0298781Y0196779D01*
X0298752Y0196745D01*
X0298720Y0196714D01*
X0298686Y0196686D01*
X0298650Y0196662D01*
X0298611Y0196640D01*
X0298571Y0196622D01*
X0298529Y0196608D01*
X0298486Y0196597D01*
X0298442Y0196590D01*
X0298398Y0196587D01*
X0298354Y0196588D01*
X0298310Y0196593D01*
X0298267Y0196602D01*
X0298224Y0196614D01*
X0298183Y0196631D01*
X0298143Y0196650D01*
X0298106Y0196674D01*
X0298070Y0196700D01*
X0298037Y0196730D01*
X0298007Y0196762D01*
X0297980Y0196797D01*
X0297956Y0196834D01*
X0297935Y0196873D01*
X0297918Y0196914D01*
X0297905Y0196956D01*
X0297895Y0196999D01*
X0297889Y0197043D01*
X0297887Y0197087D01*
X0297887Y0207087D02*
X0297889Y0207131D01*
X0297895Y0207175D01*
X0297905Y0207218D01*
X0297918Y0207260D01*
X0297935Y0207301D01*
X0297956Y0207340D01*
X0297980Y0207377D01*
X0298007Y0207412D01*
X0298037Y0207444D01*
X0298070Y0207474D01*
X0298106Y0207500D01*
X0298143Y0207524D01*
X0298183Y0207543D01*
X0298224Y0207560D01*
X0298267Y0207572D01*
X0298310Y0207581D01*
X0298354Y0207586D01*
X0298398Y0207587D01*
X0298442Y0207584D01*
X0298486Y0207577D01*
X0298529Y0207566D01*
X0298571Y0207552D01*
X0298611Y0207534D01*
X0298650Y0207512D01*
X0298686Y0207488D01*
X0298720Y0207460D01*
X0298752Y0207429D01*
X0298781Y0207395D01*
X0298807Y0207359D01*
X0298829Y0207321D01*
X0298848Y0207281D01*
X0298863Y0207239D01*
X0298875Y0207197D01*
X0298883Y0207153D01*
X0298887Y0207109D01*
X0298887Y0207065D01*
X0298883Y0207021D01*
X0298875Y0206977D01*
X0298863Y0206935D01*
X0298848Y0206893D01*
X0298829Y0206853D01*
X0298807Y0206815D01*
X0298781Y0206779D01*
X0298752Y0206745D01*
X0298720Y0206714D01*
X0298686Y0206686D01*
X0298650Y0206662D01*
X0298611Y0206640D01*
X0298571Y0206622D01*
X0298529Y0206608D01*
X0298486Y0206597D01*
X0298442Y0206590D01*
X0298398Y0206587D01*
X0298354Y0206588D01*
X0298310Y0206593D01*
X0298267Y0206602D01*
X0298224Y0206614D01*
X0298183Y0206631D01*
X0298143Y0206650D01*
X0298106Y0206674D01*
X0298070Y0206700D01*
X0298037Y0206730D01*
X0298007Y0206762D01*
X0297980Y0206797D01*
X0297956Y0206834D01*
X0297935Y0206873D01*
X0297918Y0206914D01*
X0297905Y0206956D01*
X0297895Y0206999D01*
X0297889Y0207043D01*
X0297887Y0207087D01*
X0296752Y0219302D02*
X0295851Y0219302D01*
X0295400Y0219752D01*
X0295851Y0220653D02*
X0296752Y0220653D01*
X0297202Y0220203D01*
X0297202Y0219752D01*
X0296752Y0219302D01*
X0295851Y0220653D02*
X0295400Y0221104D01*
X0295400Y0221554D01*
X0295851Y0222004D01*
X0296752Y0222004D01*
X0297202Y0221554D01*
X0298347Y0220653D02*
X0300148Y0220653D01*
X0299698Y0219302D02*
X0299698Y0222004D01*
X0298347Y0220653D01*
X0284017Y0217087D02*
X0274017Y0217087D01*
X0274017Y0222087D02*
X0264017Y0217087D01*
X0254017Y0217087D01*
X0254017Y0187087D01*
X0284017Y0187087D01*
X0284017Y0217087D01*
X0278517Y0207087D02*
X0278519Y0207131D01*
X0278525Y0207175D01*
X0278535Y0207218D01*
X0278548Y0207260D01*
X0278565Y0207301D01*
X0278586Y0207340D01*
X0278610Y0207377D01*
X0278637Y0207412D01*
X0278667Y0207444D01*
X0278700Y0207474D01*
X0278736Y0207500D01*
X0278773Y0207524D01*
X0278813Y0207543D01*
X0278854Y0207560D01*
X0278897Y0207572D01*
X0278940Y0207581D01*
X0278984Y0207586D01*
X0279028Y0207587D01*
X0279072Y0207584D01*
X0279116Y0207577D01*
X0279159Y0207566D01*
X0279201Y0207552D01*
X0279241Y0207534D01*
X0279280Y0207512D01*
X0279316Y0207488D01*
X0279350Y0207460D01*
X0279382Y0207429D01*
X0279411Y0207395D01*
X0279437Y0207359D01*
X0279459Y0207321D01*
X0279478Y0207281D01*
X0279493Y0207239D01*
X0279505Y0207197D01*
X0279513Y0207153D01*
X0279517Y0207109D01*
X0279517Y0207065D01*
X0279513Y0207021D01*
X0279505Y0206977D01*
X0279493Y0206935D01*
X0279478Y0206893D01*
X0279459Y0206853D01*
X0279437Y0206815D01*
X0279411Y0206779D01*
X0279382Y0206745D01*
X0279350Y0206714D01*
X0279316Y0206686D01*
X0279280Y0206662D01*
X0279241Y0206640D01*
X0279201Y0206622D01*
X0279159Y0206608D01*
X0279116Y0206597D01*
X0279072Y0206590D01*
X0279028Y0206587D01*
X0278984Y0206588D01*
X0278940Y0206593D01*
X0278897Y0206602D01*
X0278854Y0206614D01*
X0278813Y0206631D01*
X0278773Y0206650D01*
X0278736Y0206674D01*
X0278700Y0206700D01*
X0278667Y0206730D01*
X0278637Y0206762D01*
X0278610Y0206797D01*
X0278586Y0206834D01*
X0278565Y0206873D01*
X0278548Y0206914D01*
X0278535Y0206956D01*
X0278525Y0206999D01*
X0278519Y0207043D01*
X0278517Y0207087D01*
X0279017Y0207087D02*
X0279017Y0197087D01*
X0278517Y0197087D02*
X0278519Y0197131D01*
X0278525Y0197175D01*
X0278535Y0197218D01*
X0278548Y0197260D01*
X0278565Y0197301D01*
X0278586Y0197340D01*
X0278610Y0197377D01*
X0278637Y0197412D01*
X0278667Y0197444D01*
X0278700Y0197474D01*
X0278736Y0197500D01*
X0278773Y0197524D01*
X0278813Y0197543D01*
X0278854Y0197560D01*
X0278897Y0197572D01*
X0278940Y0197581D01*
X0278984Y0197586D01*
X0279028Y0197587D01*
X0279072Y0197584D01*
X0279116Y0197577D01*
X0279159Y0197566D01*
X0279201Y0197552D01*
X0279241Y0197534D01*
X0279280Y0197512D01*
X0279316Y0197488D01*
X0279350Y0197460D01*
X0279382Y0197429D01*
X0279411Y0197395D01*
X0279437Y0197359D01*
X0279459Y0197321D01*
X0279478Y0197281D01*
X0279493Y0197239D01*
X0279505Y0197197D01*
X0279513Y0197153D01*
X0279517Y0197109D01*
X0279517Y0197065D01*
X0279513Y0197021D01*
X0279505Y0196977D01*
X0279493Y0196935D01*
X0279478Y0196893D01*
X0279459Y0196853D01*
X0279437Y0196815D01*
X0279411Y0196779D01*
X0279382Y0196745D01*
X0279350Y0196714D01*
X0279316Y0196686D01*
X0279280Y0196662D01*
X0279241Y0196640D01*
X0279201Y0196622D01*
X0279159Y0196608D01*
X0279116Y0196597D01*
X0279072Y0196590D01*
X0279028Y0196587D01*
X0278984Y0196588D01*
X0278940Y0196593D01*
X0278897Y0196602D01*
X0278854Y0196614D01*
X0278813Y0196631D01*
X0278773Y0196650D01*
X0278736Y0196674D01*
X0278700Y0196700D01*
X0278667Y0196730D01*
X0278637Y0196762D01*
X0278610Y0196797D01*
X0278586Y0196834D01*
X0278565Y0196873D01*
X0278548Y0196914D01*
X0278535Y0196956D01*
X0278525Y0196999D01*
X0278519Y0197043D01*
X0278517Y0197087D01*
X0258517Y0197087D02*
X0258519Y0197131D01*
X0258525Y0197175D01*
X0258535Y0197218D01*
X0258548Y0197260D01*
X0258565Y0197301D01*
X0258586Y0197340D01*
X0258610Y0197377D01*
X0258637Y0197412D01*
X0258667Y0197444D01*
X0258700Y0197474D01*
X0258736Y0197500D01*
X0258773Y0197524D01*
X0258813Y0197543D01*
X0258854Y0197560D01*
X0258897Y0197572D01*
X0258940Y0197581D01*
X0258984Y0197586D01*
X0259028Y0197587D01*
X0259072Y0197584D01*
X0259116Y0197577D01*
X0259159Y0197566D01*
X0259201Y0197552D01*
X0259241Y0197534D01*
X0259280Y0197512D01*
X0259316Y0197488D01*
X0259350Y0197460D01*
X0259382Y0197429D01*
X0259411Y0197395D01*
X0259437Y0197359D01*
X0259459Y0197321D01*
X0259478Y0197281D01*
X0259493Y0197239D01*
X0259505Y0197197D01*
X0259513Y0197153D01*
X0259517Y0197109D01*
X0259517Y0197065D01*
X0259513Y0197021D01*
X0259505Y0196977D01*
X0259493Y0196935D01*
X0259478Y0196893D01*
X0259459Y0196853D01*
X0259437Y0196815D01*
X0259411Y0196779D01*
X0259382Y0196745D01*
X0259350Y0196714D01*
X0259316Y0196686D01*
X0259280Y0196662D01*
X0259241Y0196640D01*
X0259201Y0196622D01*
X0259159Y0196608D01*
X0259116Y0196597D01*
X0259072Y0196590D01*
X0259028Y0196587D01*
X0258984Y0196588D01*
X0258940Y0196593D01*
X0258897Y0196602D01*
X0258854Y0196614D01*
X0258813Y0196631D01*
X0258773Y0196650D01*
X0258736Y0196674D01*
X0258700Y0196700D01*
X0258667Y0196730D01*
X0258637Y0196762D01*
X0258610Y0196797D01*
X0258586Y0196834D01*
X0258565Y0196873D01*
X0258548Y0196914D01*
X0258535Y0196956D01*
X0258525Y0196999D01*
X0258519Y0197043D01*
X0258517Y0197087D01*
X0259017Y0197087D02*
X0259017Y0207087D01*
X0258517Y0207087D02*
X0258519Y0207131D01*
X0258525Y0207175D01*
X0258535Y0207218D01*
X0258548Y0207260D01*
X0258565Y0207301D01*
X0258586Y0207340D01*
X0258610Y0207377D01*
X0258637Y0207412D01*
X0258667Y0207444D01*
X0258700Y0207474D01*
X0258736Y0207500D01*
X0258773Y0207524D01*
X0258813Y0207543D01*
X0258854Y0207560D01*
X0258897Y0207572D01*
X0258940Y0207581D01*
X0258984Y0207586D01*
X0259028Y0207587D01*
X0259072Y0207584D01*
X0259116Y0207577D01*
X0259159Y0207566D01*
X0259201Y0207552D01*
X0259241Y0207534D01*
X0259280Y0207512D01*
X0259316Y0207488D01*
X0259350Y0207460D01*
X0259382Y0207429D01*
X0259411Y0207395D01*
X0259437Y0207359D01*
X0259459Y0207321D01*
X0259478Y0207281D01*
X0259493Y0207239D01*
X0259505Y0207197D01*
X0259513Y0207153D01*
X0259517Y0207109D01*
X0259517Y0207065D01*
X0259513Y0207021D01*
X0259505Y0206977D01*
X0259493Y0206935D01*
X0259478Y0206893D01*
X0259459Y0206853D01*
X0259437Y0206815D01*
X0259411Y0206779D01*
X0259382Y0206745D01*
X0259350Y0206714D01*
X0259316Y0206686D01*
X0259280Y0206662D01*
X0259241Y0206640D01*
X0259201Y0206622D01*
X0259159Y0206608D01*
X0259116Y0206597D01*
X0259072Y0206590D01*
X0259028Y0206587D01*
X0258984Y0206588D01*
X0258940Y0206593D01*
X0258897Y0206602D01*
X0258854Y0206614D01*
X0258813Y0206631D01*
X0258773Y0206650D01*
X0258736Y0206674D01*
X0258700Y0206700D01*
X0258667Y0206730D01*
X0258637Y0206762D01*
X0258610Y0206797D01*
X0258586Y0206834D01*
X0258565Y0206873D01*
X0258548Y0206914D01*
X0258535Y0206956D01*
X0258525Y0206999D01*
X0258519Y0207043D01*
X0258517Y0207087D01*
X0258615Y0218987D02*
X0257715Y0218987D01*
X0257264Y0219437D01*
X0256119Y0219437D02*
X0255669Y0218987D01*
X0254768Y0218987D01*
X0254318Y0219437D01*
X0254768Y0220338D02*
X0255669Y0220338D01*
X0256119Y0219888D01*
X0256119Y0219437D01*
X0254768Y0220338D02*
X0254318Y0220789D01*
X0254318Y0221239D01*
X0254768Y0221689D01*
X0255669Y0221689D01*
X0256119Y0221239D01*
X0257264Y0221239D02*
X0257715Y0221689D01*
X0258615Y0221689D01*
X0259066Y0221239D01*
X0259066Y0220789D01*
X0258615Y0220338D01*
X0259066Y0219888D01*
X0259066Y0219437D01*
X0258615Y0218987D01*
X0258615Y0220338D02*
X0258165Y0220338D01*
X0181654Y0217087D02*
X0181654Y0187087D01*
X0151654Y0187087D01*
X0151654Y0217087D01*
X0161654Y0217087D01*
X0171654Y0222087D01*
X0171654Y0217087D02*
X0181654Y0217087D01*
X0176154Y0207087D02*
X0176156Y0207131D01*
X0176162Y0207175D01*
X0176172Y0207218D01*
X0176185Y0207260D01*
X0176202Y0207301D01*
X0176223Y0207340D01*
X0176247Y0207377D01*
X0176274Y0207412D01*
X0176304Y0207444D01*
X0176337Y0207474D01*
X0176373Y0207500D01*
X0176410Y0207524D01*
X0176450Y0207543D01*
X0176491Y0207560D01*
X0176534Y0207572D01*
X0176577Y0207581D01*
X0176621Y0207586D01*
X0176665Y0207587D01*
X0176709Y0207584D01*
X0176753Y0207577D01*
X0176796Y0207566D01*
X0176838Y0207552D01*
X0176878Y0207534D01*
X0176917Y0207512D01*
X0176953Y0207488D01*
X0176987Y0207460D01*
X0177019Y0207429D01*
X0177048Y0207395D01*
X0177074Y0207359D01*
X0177096Y0207321D01*
X0177115Y0207281D01*
X0177130Y0207239D01*
X0177142Y0207197D01*
X0177150Y0207153D01*
X0177154Y0207109D01*
X0177154Y0207065D01*
X0177150Y0207021D01*
X0177142Y0206977D01*
X0177130Y0206935D01*
X0177115Y0206893D01*
X0177096Y0206853D01*
X0177074Y0206815D01*
X0177048Y0206779D01*
X0177019Y0206745D01*
X0176987Y0206714D01*
X0176953Y0206686D01*
X0176917Y0206662D01*
X0176878Y0206640D01*
X0176838Y0206622D01*
X0176796Y0206608D01*
X0176753Y0206597D01*
X0176709Y0206590D01*
X0176665Y0206587D01*
X0176621Y0206588D01*
X0176577Y0206593D01*
X0176534Y0206602D01*
X0176491Y0206614D01*
X0176450Y0206631D01*
X0176410Y0206650D01*
X0176373Y0206674D01*
X0176337Y0206700D01*
X0176304Y0206730D01*
X0176274Y0206762D01*
X0176247Y0206797D01*
X0176223Y0206834D01*
X0176202Y0206873D01*
X0176185Y0206914D01*
X0176172Y0206956D01*
X0176162Y0206999D01*
X0176156Y0207043D01*
X0176154Y0207087D01*
X0176654Y0207087D02*
X0176654Y0197087D01*
X0176154Y0197087D02*
X0176156Y0197131D01*
X0176162Y0197175D01*
X0176172Y0197218D01*
X0176185Y0197260D01*
X0176202Y0197301D01*
X0176223Y0197340D01*
X0176247Y0197377D01*
X0176274Y0197412D01*
X0176304Y0197444D01*
X0176337Y0197474D01*
X0176373Y0197500D01*
X0176410Y0197524D01*
X0176450Y0197543D01*
X0176491Y0197560D01*
X0176534Y0197572D01*
X0176577Y0197581D01*
X0176621Y0197586D01*
X0176665Y0197587D01*
X0176709Y0197584D01*
X0176753Y0197577D01*
X0176796Y0197566D01*
X0176838Y0197552D01*
X0176878Y0197534D01*
X0176917Y0197512D01*
X0176953Y0197488D01*
X0176987Y0197460D01*
X0177019Y0197429D01*
X0177048Y0197395D01*
X0177074Y0197359D01*
X0177096Y0197321D01*
X0177115Y0197281D01*
X0177130Y0197239D01*
X0177142Y0197197D01*
X0177150Y0197153D01*
X0177154Y0197109D01*
X0177154Y0197065D01*
X0177150Y0197021D01*
X0177142Y0196977D01*
X0177130Y0196935D01*
X0177115Y0196893D01*
X0177096Y0196853D01*
X0177074Y0196815D01*
X0177048Y0196779D01*
X0177019Y0196745D01*
X0176987Y0196714D01*
X0176953Y0196686D01*
X0176917Y0196662D01*
X0176878Y0196640D01*
X0176838Y0196622D01*
X0176796Y0196608D01*
X0176753Y0196597D01*
X0176709Y0196590D01*
X0176665Y0196587D01*
X0176621Y0196588D01*
X0176577Y0196593D01*
X0176534Y0196602D01*
X0176491Y0196614D01*
X0176450Y0196631D01*
X0176410Y0196650D01*
X0176373Y0196674D01*
X0176337Y0196700D01*
X0176304Y0196730D01*
X0176274Y0196762D01*
X0176247Y0196797D01*
X0176223Y0196834D01*
X0176202Y0196873D01*
X0176185Y0196914D01*
X0176172Y0196956D01*
X0176162Y0196999D01*
X0176156Y0197043D01*
X0176154Y0197087D01*
X0156654Y0197087D02*
X0156654Y0207087D01*
X0156154Y0207087D02*
X0156156Y0207131D01*
X0156162Y0207175D01*
X0156172Y0207218D01*
X0156185Y0207260D01*
X0156202Y0207301D01*
X0156223Y0207340D01*
X0156247Y0207377D01*
X0156274Y0207412D01*
X0156304Y0207444D01*
X0156337Y0207474D01*
X0156373Y0207500D01*
X0156410Y0207524D01*
X0156450Y0207543D01*
X0156491Y0207560D01*
X0156534Y0207572D01*
X0156577Y0207581D01*
X0156621Y0207586D01*
X0156665Y0207587D01*
X0156709Y0207584D01*
X0156753Y0207577D01*
X0156796Y0207566D01*
X0156838Y0207552D01*
X0156878Y0207534D01*
X0156917Y0207512D01*
X0156953Y0207488D01*
X0156987Y0207460D01*
X0157019Y0207429D01*
X0157048Y0207395D01*
X0157074Y0207359D01*
X0157096Y0207321D01*
X0157115Y0207281D01*
X0157130Y0207239D01*
X0157142Y0207197D01*
X0157150Y0207153D01*
X0157154Y0207109D01*
X0157154Y0207065D01*
X0157150Y0207021D01*
X0157142Y0206977D01*
X0157130Y0206935D01*
X0157115Y0206893D01*
X0157096Y0206853D01*
X0157074Y0206815D01*
X0157048Y0206779D01*
X0157019Y0206745D01*
X0156987Y0206714D01*
X0156953Y0206686D01*
X0156917Y0206662D01*
X0156878Y0206640D01*
X0156838Y0206622D01*
X0156796Y0206608D01*
X0156753Y0206597D01*
X0156709Y0206590D01*
X0156665Y0206587D01*
X0156621Y0206588D01*
X0156577Y0206593D01*
X0156534Y0206602D01*
X0156491Y0206614D01*
X0156450Y0206631D01*
X0156410Y0206650D01*
X0156373Y0206674D01*
X0156337Y0206700D01*
X0156304Y0206730D01*
X0156274Y0206762D01*
X0156247Y0206797D01*
X0156223Y0206834D01*
X0156202Y0206873D01*
X0156185Y0206914D01*
X0156172Y0206956D01*
X0156162Y0206999D01*
X0156156Y0207043D01*
X0156154Y0207087D01*
X0156637Y0218641D02*
X0154835Y0218641D01*
X0156637Y0220442D01*
X0156637Y0220892D01*
X0156186Y0221343D01*
X0155285Y0221343D01*
X0154835Y0220892D01*
X0153690Y0220892D02*
X0153240Y0221343D01*
X0152339Y0221343D01*
X0151889Y0220892D01*
X0151889Y0220442D01*
X0152339Y0219992D01*
X0153240Y0219992D01*
X0153690Y0219541D01*
X0153690Y0219091D01*
X0153240Y0218641D01*
X0152339Y0218641D01*
X0151889Y0219091D01*
X0142284Y0217087D02*
X0132284Y0217087D01*
X0132284Y0222087D02*
X0122284Y0217087D01*
X0112284Y0217087D01*
X0112284Y0187087D01*
X0142284Y0187087D01*
X0142284Y0217087D01*
X0136784Y0207087D02*
X0136786Y0207131D01*
X0136792Y0207175D01*
X0136802Y0207218D01*
X0136815Y0207260D01*
X0136832Y0207301D01*
X0136853Y0207340D01*
X0136877Y0207377D01*
X0136904Y0207412D01*
X0136934Y0207444D01*
X0136967Y0207474D01*
X0137003Y0207500D01*
X0137040Y0207524D01*
X0137080Y0207543D01*
X0137121Y0207560D01*
X0137164Y0207572D01*
X0137207Y0207581D01*
X0137251Y0207586D01*
X0137295Y0207587D01*
X0137339Y0207584D01*
X0137383Y0207577D01*
X0137426Y0207566D01*
X0137468Y0207552D01*
X0137508Y0207534D01*
X0137547Y0207512D01*
X0137583Y0207488D01*
X0137617Y0207460D01*
X0137649Y0207429D01*
X0137678Y0207395D01*
X0137704Y0207359D01*
X0137726Y0207321D01*
X0137745Y0207281D01*
X0137760Y0207239D01*
X0137772Y0207197D01*
X0137780Y0207153D01*
X0137784Y0207109D01*
X0137784Y0207065D01*
X0137780Y0207021D01*
X0137772Y0206977D01*
X0137760Y0206935D01*
X0137745Y0206893D01*
X0137726Y0206853D01*
X0137704Y0206815D01*
X0137678Y0206779D01*
X0137649Y0206745D01*
X0137617Y0206714D01*
X0137583Y0206686D01*
X0137547Y0206662D01*
X0137508Y0206640D01*
X0137468Y0206622D01*
X0137426Y0206608D01*
X0137383Y0206597D01*
X0137339Y0206590D01*
X0137295Y0206587D01*
X0137251Y0206588D01*
X0137207Y0206593D01*
X0137164Y0206602D01*
X0137121Y0206614D01*
X0137080Y0206631D01*
X0137040Y0206650D01*
X0137003Y0206674D01*
X0136967Y0206700D01*
X0136934Y0206730D01*
X0136904Y0206762D01*
X0136877Y0206797D01*
X0136853Y0206834D01*
X0136832Y0206873D01*
X0136815Y0206914D01*
X0136802Y0206956D01*
X0136792Y0206999D01*
X0136786Y0207043D01*
X0136784Y0207087D01*
X0137284Y0207087D02*
X0137284Y0197087D01*
X0136784Y0197087D02*
X0136786Y0197131D01*
X0136792Y0197175D01*
X0136802Y0197218D01*
X0136815Y0197260D01*
X0136832Y0197301D01*
X0136853Y0197340D01*
X0136877Y0197377D01*
X0136904Y0197412D01*
X0136934Y0197444D01*
X0136967Y0197474D01*
X0137003Y0197500D01*
X0137040Y0197524D01*
X0137080Y0197543D01*
X0137121Y0197560D01*
X0137164Y0197572D01*
X0137207Y0197581D01*
X0137251Y0197586D01*
X0137295Y0197587D01*
X0137339Y0197584D01*
X0137383Y0197577D01*
X0137426Y0197566D01*
X0137468Y0197552D01*
X0137508Y0197534D01*
X0137547Y0197512D01*
X0137583Y0197488D01*
X0137617Y0197460D01*
X0137649Y0197429D01*
X0137678Y0197395D01*
X0137704Y0197359D01*
X0137726Y0197321D01*
X0137745Y0197281D01*
X0137760Y0197239D01*
X0137772Y0197197D01*
X0137780Y0197153D01*
X0137784Y0197109D01*
X0137784Y0197065D01*
X0137780Y0197021D01*
X0137772Y0196977D01*
X0137760Y0196935D01*
X0137745Y0196893D01*
X0137726Y0196853D01*
X0137704Y0196815D01*
X0137678Y0196779D01*
X0137649Y0196745D01*
X0137617Y0196714D01*
X0137583Y0196686D01*
X0137547Y0196662D01*
X0137508Y0196640D01*
X0137468Y0196622D01*
X0137426Y0196608D01*
X0137383Y0196597D01*
X0137339Y0196590D01*
X0137295Y0196587D01*
X0137251Y0196588D01*
X0137207Y0196593D01*
X0137164Y0196602D01*
X0137121Y0196614D01*
X0137080Y0196631D01*
X0137040Y0196650D01*
X0137003Y0196674D01*
X0136967Y0196700D01*
X0136934Y0196730D01*
X0136904Y0196762D01*
X0136877Y0196797D01*
X0136853Y0196834D01*
X0136832Y0196873D01*
X0136815Y0196914D01*
X0136802Y0196956D01*
X0136792Y0196999D01*
X0136786Y0197043D01*
X0136784Y0197087D01*
X0116784Y0197087D02*
X0116786Y0197131D01*
X0116792Y0197175D01*
X0116802Y0197218D01*
X0116815Y0197260D01*
X0116832Y0197301D01*
X0116853Y0197340D01*
X0116877Y0197377D01*
X0116904Y0197412D01*
X0116934Y0197444D01*
X0116967Y0197474D01*
X0117003Y0197500D01*
X0117040Y0197524D01*
X0117080Y0197543D01*
X0117121Y0197560D01*
X0117164Y0197572D01*
X0117207Y0197581D01*
X0117251Y0197586D01*
X0117295Y0197587D01*
X0117339Y0197584D01*
X0117383Y0197577D01*
X0117426Y0197566D01*
X0117468Y0197552D01*
X0117508Y0197534D01*
X0117547Y0197512D01*
X0117583Y0197488D01*
X0117617Y0197460D01*
X0117649Y0197429D01*
X0117678Y0197395D01*
X0117704Y0197359D01*
X0117726Y0197321D01*
X0117745Y0197281D01*
X0117760Y0197239D01*
X0117772Y0197197D01*
X0117780Y0197153D01*
X0117784Y0197109D01*
X0117784Y0197065D01*
X0117780Y0197021D01*
X0117772Y0196977D01*
X0117760Y0196935D01*
X0117745Y0196893D01*
X0117726Y0196853D01*
X0117704Y0196815D01*
X0117678Y0196779D01*
X0117649Y0196745D01*
X0117617Y0196714D01*
X0117583Y0196686D01*
X0117547Y0196662D01*
X0117508Y0196640D01*
X0117468Y0196622D01*
X0117426Y0196608D01*
X0117383Y0196597D01*
X0117339Y0196590D01*
X0117295Y0196587D01*
X0117251Y0196588D01*
X0117207Y0196593D01*
X0117164Y0196602D01*
X0117121Y0196614D01*
X0117080Y0196631D01*
X0117040Y0196650D01*
X0117003Y0196674D01*
X0116967Y0196700D01*
X0116934Y0196730D01*
X0116904Y0196762D01*
X0116877Y0196797D01*
X0116853Y0196834D01*
X0116832Y0196873D01*
X0116815Y0196914D01*
X0116802Y0196956D01*
X0116792Y0196999D01*
X0116786Y0197043D01*
X0116784Y0197087D01*
X0117284Y0197087D02*
X0117284Y0207087D01*
X0116784Y0207087D02*
X0116786Y0207131D01*
X0116792Y0207175D01*
X0116802Y0207218D01*
X0116815Y0207260D01*
X0116832Y0207301D01*
X0116853Y0207340D01*
X0116877Y0207377D01*
X0116904Y0207412D01*
X0116934Y0207444D01*
X0116967Y0207474D01*
X0117003Y0207500D01*
X0117040Y0207524D01*
X0117080Y0207543D01*
X0117121Y0207560D01*
X0117164Y0207572D01*
X0117207Y0207581D01*
X0117251Y0207586D01*
X0117295Y0207587D01*
X0117339Y0207584D01*
X0117383Y0207577D01*
X0117426Y0207566D01*
X0117468Y0207552D01*
X0117508Y0207534D01*
X0117547Y0207512D01*
X0117583Y0207488D01*
X0117617Y0207460D01*
X0117649Y0207429D01*
X0117678Y0207395D01*
X0117704Y0207359D01*
X0117726Y0207321D01*
X0117745Y0207281D01*
X0117760Y0207239D01*
X0117772Y0207197D01*
X0117780Y0207153D01*
X0117784Y0207109D01*
X0117784Y0207065D01*
X0117780Y0207021D01*
X0117772Y0206977D01*
X0117760Y0206935D01*
X0117745Y0206893D01*
X0117726Y0206853D01*
X0117704Y0206815D01*
X0117678Y0206779D01*
X0117649Y0206745D01*
X0117617Y0206714D01*
X0117583Y0206686D01*
X0117547Y0206662D01*
X0117508Y0206640D01*
X0117468Y0206622D01*
X0117426Y0206608D01*
X0117383Y0206597D01*
X0117339Y0206590D01*
X0117295Y0206587D01*
X0117251Y0206588D01*
X0117207Y0206593D01*
X0117164Y0206602D01*
X0117121Y0206614D01*
X0117080Y0206631D01*
X0117040Y0206650D01*
X0117003Y0206674D01*
X0116967Y0206700D01*
X0116934Y0206730D01*
X0116904Y0206762D01*
X0116877Y0206797D01*
X0116853Y0206834D01*
X0116832Y0206873D01*
X0116815Y0206914D01*
X0116802Y0206956D01*
X0116792Y0206999D01*
X0116786Y0207043D01*
X0116784Y0207087D01*
X0116815Y0219164D02*
X0116815Y0221866D01*
X0115914Y0220966D01*
X0114769Y0221416D02*
X0114318Y0221866D01*
X0113418Y0221866D01*
X0112967Y0221416D01*
X0112967Y0220966D01*
X0113418Y0220515D01*
X0114318Y0220515D01*
X0114769Y0220065D01*
X0114769Y0219615D01*
X0114318Y0219164D01*
X0113418Y0219164D01*
X0112967Y0219615D01*
X0115914Y0219164D02*
X0117715Y0219164D01*
X0086979Y0227835D02*
X0086979Y0236585D01*
X0086979Y0236835D02*
X0049479Y0236835D01*
X0049479Y0236585D02*
X0049479Y0227835D01*
X0060229Y0217835D02*
X0060231Y0218031D01*
X0060239Y0218228D01*
X0060251Y0218424D01*
X0060268Y0218619D01*
X0060289Y0218814D01*
X0060316Y0219009D01*
X0060347Y0219203D01*
X0060383Y0219396D01*
X0060423Y0219588D01*
X0060469Y0219779D01*
X0060519Y0219969D01*
X0060573Y0220157D01*
X0060633Y0220344D01*
X0060697Y0220530D01*
X0060765Y0220714D01*
X0060838Y0220896D01*
X0060915Y0221077D01*
X0060997Y0221255D01*
X0061083Y0221432D01*
X0061174Y0221606D01*
X0061268Y0221778D01*
X0061367Y0221948D01*
X0061470Y0222115D01*
X0061577Y0222280D01*
X0061688Y0222441D01*
X0061803Y0222601D01*
X0061922Y0222757D01*
X0062045Y0222910D01*
X0062171Y0223060D01*
X0062301Y0223207D01*
X0062435Y0223351D01*
X0062572Y0223492D01*
X0062713Y0223629D01*
X0062857Y0223763D01*
X0063004Y0223893D01*
X0063154Y0224019D01*
X0063307Y0224142D01*
X0063463Y0224261D01*
X0063623Y0224376D01*
X0063784Y0224487D01*
X0063949Y0224594D01*
X0064116Y0224697D01*
X0064286Y0224796D01*
X0064458Y0224890D01*
X0064632Y0224981D01*
X0064809Y0225067D01*
X0064987Y0225149D01*
X0065168Y0225226D01*
X0065350Y0225299D01*
X0065534Y0225367D01*
X0065720Y0225431D01*
X0065907Y0225491D01*
X0066095Y0225545D01*
X0066285Y0225595D01*
X0066476Y0225641D01*
X0066668Y0225681D01*
X0066861Y0225717D01*
X0067055Y0225748D01*
X0067250Y0225775D01*
X0067445Y0225796D01*
X0067640Y0225813D01*
X0067836Y0225825D01*
X0068033Y0225833D01*
X0068229Y0225835D01*
X0068425Y0225833D01*
X0068622Y0225825D01*
X0068818Y0225813D01*
X0069013Y0225796D01*
X0069208Y0225775D01*
X0069403Y0225748D01*
X0069597Y0225717D01*
X0069790Y0225681D01*
X0069982Y0225641D01*
X0070173Y0225595D01*
X0070363Y0225545D01*
X0070551Y0225491D01*
X0070738Y0225431D01*
X0070924Y0225367D01*
X0071108Y0225299D01*
X0071290Y0225226D01*
X0071471Y0225149D01*
X0071649Y0225067D01*
X0071826Y0224981D01*
X0072000Y0224890D01*
X0072172Y0224796D01*
X0072342Y0224697D01*
X0072509Y0224594D01*
X0072674Y0224487D01*
X0072835Y0224376D01*
X0072995Y0224261D01*
X0073151Y0224142D01*
X0073304Y0224019D01*
X0073454Y0223893D01*
X0073601Y0223763D01*
X0073745Y0223629D01*
X0073886Y0223492D01*
X0074023Y0223351D01*
X0074157Y0223207D01*
X0074287Y0223060D01*
X0074413Y0222910D01*
X0074536Y0222757D01*
X0074655Y0222601D01*
X0074770Y0222441D01*
X0074881Y0222280D01*
X0074988Y0222115D01*
X0075091Y0221948D01*
X0075190Y0221778D01*
X0075284Y0221606D01*
X0075375Y0221432D01*
X0075461Y0221255D01*
X0075543Y0221077D01*
X0075620Y0220896D01*
X0075693Y0220714D01*
X0075761Y0220530D01*
X0075825Y0220344D01*
X0075885Y0220157D01*
X0075939Y0219969D01*
X0075989Y0219779D01*
X0076035Y0219588D01*
X0076075Y0219396D01*
X0076111Y0219203D01*
X0076142Y0219009D01*
X0076169Y0218814D01*
X0076190Y0218619D01*
X0076207Y0218424D01*
X0076219Y0218228D01*
X0076227Y0218031D01*
X0076229Y0217835D01*
X0076227Y0217639D01*
X0076219Y0217442D01*
X0076207Y0217246D01*
X0076190Y0217051D01*
X0076169Y0216856D01*
X0076142Y0216661D01*
X0076111Y0216467D01*
X0076075Y0216274D01*
X0076035Y0216082D01*
X0075989Y0215891D01*
X0075939Y0215701D01*
X0075885Y0215513D01*
X0075825Y0215326D01*
X0075761Y0215140D01*
X0075693Y0214956D01*
X0075620Y0214774D01*
X0075543Y0214593D01*
X0075461Y0214415D01*
X0075375Y0214238D01*
X0075284Y0214064D01*
X0075190Y0213892D01*
X0075091Y0213722D01*
X0074988Y0213555D01*
X0074881Y0213390D01*
X0074770Y0213229D01*
X0074655Y0213069D01*
X0074536Y0212913D01*
X0074413Y0212760D01*
X0074287Y0212610D01*
X0074157Y0212463D01*
X0074023Y0212319D01*
X0073886Y0212178D01*
X0073745Y0212041D01*
X0073601Y0211907D01*
X0073454Y0211777D01*
X0073304Y0211651D01*
X0073151Y0211528D01*
X0072995Y0211409D01*
X0072835Y0211294D01*
X0072674Y0211183D01*
X0072509Y0211076D01*
X0072342Y0210973D01*
X0072172Y0210874D01*
X0072000Y0210780D01*
X0071826Y0210689D01*
X0071649Y0210603D01*
X0071471Y0210521D01*
X0071290Y0210444D01*
X0071108Y0210371D01*
X0070924Y0210303D01*
X0070738Y0210239D01*
X0070551Y0210179D01*
X0070363Y0210125D01*
X0070173Y0210075D01*
X0069982Y0210029D01*
X0069790Y0209989D01*
X0069597Y0209953D01*
X0069403Y0209922D01*
X0069208Y0209895D01*
X0069013Y0209874D01*
X0068818Y0209857D01*
X0068622Y0209845D01*
X0068425Y0209837D01*
X0068229Y0209835D01*
X0068033Y0209837D01*
X0067836Y0209845D01*
X0067640Y0209857D01*
X0067445Y0209874D01*
X0067250Y0209895D01*
X0067055Y0209922D01*
X0066861Y0209953D01*
X0066668Y0209989D01*
X0066476Y0210029D01*
X0066285Y0210075D01*
X0066095Y0210125D01*
X0065907Y0210179D01*
X0065720Y0210239D01*
X0065534Y0210303D01*
X0065350Y0210371D01*
X0065168Y0210444D01*
X0064987Y0210521D01*
X0064809Y0210603D01*
X0064632Y0210689D01*
X0064458Y0210780D01*
X0064286Y0210874D01*
X0064116Y0210973D01*
X0063949Y0211076D01*
X0063784Y0211183D01*
X0063623Y0211294D01*
X0063463Y0211409D01*
X0063307Y0211528D01*
X0063154Y0211651D01*
X0063004Y0211777D01*
X0062857Y0211907D01*
X0062713Y0212041D01*
X0062572Y0212178D01*
X0062435Y0212319D01*
X0062301Y0212463D01*
X0062171Y0212610D01*
X0062045Y0212760D01*
X0061922Y0212913D01*
X0061803Y0213069D01*
X0061688Y0213229D01*
X0061577Y0213390D01*
X0061470Y0213555D01*
X0061367Y0213722D01*
X0061268Y0213892D01*
X0061174Y0214064D01*
X0061083Y0214238D01*
X0060997Y0214415D01*
X0060915Y0214593D01*
X0060838Y0214774D01*
X0060765Y0214956D01*
X0060697Y0215140D01*
X0060633Y0215326D01*
X0060573Y0215513D01*
X0060519Y0215701D01*
X0060469Y0215891D01*
X0060423Y0216082D01*
X0060383Y0216274D01*
X0060347Y0216467D01*
X0060316Y0216661D01*
X0060289Y0216856D01*
X0060268Y0217051D01*
X0060251Y0217246D01*
X0060239Y0217442D01*
X0060231Y0217639D01*
X0060229Y0217835D01*
X0049479Y0207835D02*
X0049479Y0193335D01*
X0086979Y0193335D01*
X0086979Y0207835D01*
X0047160Y0207740D02*
X0047160Y0205938D01*
X0047160Y0206839D02*
X0044458Y0206839D01*
X0045359Y0205938D01*
X0045359Y0204793D02*
X0045809Y0204343D01*
X0045809Y0202992D01*
X0045809Y0204343D02*
X0046259Y0204793D01*
X0046710Y0204793D01*
X0047160Y0204343D01*
X0047160Y0202992D01*
X0044458Y0202992D01*
X0044458Y0204343D01*
X0044908Y0204793D01*
X0045359Y0204793D01*
X0044908Y0201847D02*
X0044458Y0201397D01*
X0044458Y0200496D01*
X0044908Y0200045D01*
X0046710Y0200045D01*
X0047160Y0200496D01*
X0047160Y0201397D01*
X0046710Y0201847D01*
X0044908Y0201847D01*
X0044458Y0198900D02*
X0047160Y0198900D01*
X0044458Y0197099D01*
X0047160Y0197099D01*
X0047160Y0195954D02*
X0045809Y0194603D01*
X0046259Y0194152D02*
X0044458Y0195954D01*
X0044458Y0194152D02*
X0047160Y0194152D01*
X0049479Y0122662D02*
X0086979Y0122662D01*
X0086979Y0122412D02*
X0086979Y0113662D01*
X0060229Y0103662D02*
X0060231Y0103858D01*
X0060239Y0104055D01*
X0060251Y0104251D01*
X0060268Y0104446D01*
X0060289Y0104641D01*
X0060316Y0104836D01*
X0060347Y0105030D01*
X0060383Y0105223D01*
X0060423Y0105415D01*
X0060469Y0105606D01*
X0060519Y0105796D01*
X0060573Y0105984D01*
X0060633Y0106171D01*
X0060697Y0106357D01*
X0060765Y0106541D01*
X0060838Y0106723D01*
X0060915Y0106904D01*
X0060997Y0107082D01*
X0061083Y0107259D01*
X0061174Y0107433D01*
X0061268Y0107605D01*
X0061367Y0107775D01*
X0061470Y0107942D01*
X0061577Y0108107D01*
X0061688Y0108268D01*
X0061803Y0108428D01*
X0061922Y0108584D01*
X0062045Y0108737D01*
X0062171Y0108887D01*
X0062301Y0109034D01*
X0062435Y0109178D01*
X0062572Y0109319D01*
X0062713Y0109456D01*
X0062857Y0109590D01*
X0063004Y0109720D01*
X0063154Y0109846D01*
X0063307Y0109969D01*
X0063463Y0110088D01*
X0063623Y0110203D01*
X0063784Y0110314D01*
X0063949Y0110421D01*
X0064116Y0110524D01*
X0064286Y0110623D01*
X0064458Y0110717D01*
X0064632Y0110808D01*
X0064809Y0110894D01*
X0064987Y0110976D01*
X0065168Y0111053D01*
X0065350Y0111126D01*
X0065534Y0111194D01*
X0065720Y0111258D01*
X0065907Y0111318D01*
X0066095Y0111372D01*
X0066285Y0111422D01*
X0066476Y0111468D01*
X0066668Y0111508D01*
X0066861Y0111544D01*
X0067055Y0111575D01*
X0067250Y0111602D01*
X0067445Y0111623D01*
X0067640Y0111640D01*
X0067836Y0111652D01*
X0068033Y0111660D01*
X0068229Y0111662D01*
X0068425Y0111660D01*
X0068622Y0111652D01*
X0068818Y0111640D01*
X0069013Y0111623D01*
X0069208Y0111602D01*
X0069403Y0111575D01*
X0069597Y0111544D01*
X0069790Y0111508D01*
X0069982Y0111468D01*
X0070173Y0111422D01*
X0070363Y0111372D01*
X0070551Y0111318D01*
X0070738Y0111258D01*
X0070924Y0111194D01*
X0071108Y0111126D01*
X0071290Y0111053D01*
X0071471Y0110976D01*
X0071649Y0110894D01*
X0071826Y0110808D01*
X0072000Y0110717D01*
X0072172Y0110623D01*
X0072342Y0110524D01*
X0072509Y0110421D01*
X0072674Y0110314D01*
X0072835Y0110203D01*
X0072995Y0110088D01*
X0073151Y0109969D01*
X0073304Y0109846D01*
X0073454Y0109720D01*
X0073601Y0109590D01*
X0073745Y0109456D01*
X0073886Y0109319D01*
X0074023Y0109178D01*
X0074157Y0109034D01*
X0074287Y0108887D01*
X0074413Y0108737D01*
X0074536Y0108584D01*
X0074655Y0108428D01*
X0074770Y0108268D01*
X0074881Y0108107D01*
X0074988Y0107942D01*
X0075091Y0107775D01*
X0075190Y0107605D01*
X0075284Y0107433D01*
X0075375Y0107259D01*
X0075461Y0107082D01*
X0075543Y0106904D01*
X0075620Y0106723D01*
X0075693Y0106541D01*
X0075761Y0106357D01*
X0075825Y0106171D01*
X0075885Y0105984D01*
X0075939Y0105796D01*
X0075989Y0105606D01*
X0076035Y0105415D01*
X0076075Y0105223D01*
X0076111Y0105030D01*
X0076142Y0104836D01*
X0076169Y0104641D01*
X0076190Y0104446D01*
X0076207Y0104251D01*
X0076219Y0104055D01*
X0076227Y0103858D01*
X0076229Y0103662D01*
X0076227Y0103466D01*
X0076219Y0103269D01*
X0076207Y0103073D01*
X0076190Y0102878D01*
X0076169Y0102683D01*
X0076142Y0102488D01*
X0076111Y0102294D01*
X0076075Y0102101D01*
X0076035Y0101909D01*
X0075989Y0101718D01*
X0075939Y0101528D01*
X0075885Y0101340D01*
X0075825Y0101153D01*
X0075761Y0100967D01*
X0075693Y0100783D01*
X0075620Y0100601D01*
X0075543Y0100420D01*
X0075461Y0100242D01*
X0075375Y0100065D01*
X0075284Y0099891D01*
X0075190Y0099719D01*
X0075091Y0099549D01*
X0074988Y0099382D01*
X0074881Y0099217D01*
X0074770Y0099056D01*
X0074655Y0098896D01*
X0074536Y0098740D01*
X0074413Y0098587D01*
X0074287Y0098437D01*
X0074157Y0098290D01*
X0074023Y0098146D01*
X0073886Y0098005D01*
X0073745Y0097868D01*
X0073601Y0097734D01*
X0073454Y0097604D01*
X0073304Y0097478D01*
X0073151Y0097355D01*
X0072995Y0097236D01*
X0072835Y0097121D01*
X0072674Y0097010D01*
X0072509Y0096903D01*
X0072342Y0096800D01*
X0072172Y0096701D01*
X0072000Y0096607D01*
X0071826Y0096516D01*
X0071649Y0096430D01*
X0071471Y0096348D01*
X0071290Y0096271D01*
X0071108Y0096198D01*
X0070924Y0096130D01*
X0070738Y0096066D01*
X0070551Y0096006D01*
X0070363Y0095952D01*
X0070173Y0095902D01*
X0069982Y0095856D01*
X0069790Y0095816D01*
X0069597Y0095780D01*
X0069403Y0095749D01*
X0069208Y0095722D01*
X0069013Y0095701D01*
X0068818Y0095684D01*
X0068622Y0095672D01*
X0068425Y0095664D01*
X0068229Y0095662D01*
X0068033Y0095664D01*
X0067836Y0095672D01*
X0067640Y0095684D01*
X0067445Y0095701D01*
X0067250Y0095722D01*
X0067055Y0095749D01*
X0066861Y0095780D01*
X0066668Y0095816D01*
X0066476Y0095856D01*
X0066285Y0095902D01*
X0066095Y0095952D01*
X0065907Y0096006D01*
X0065720Y0096066D01*
X0065534Y0096130D01*
X0065350Y0096198D01*
X0065168Y0096271D01*
X0064987Y0096348D01*
X0064809Y0096430D01*
X0064632Y0096516D01*
X0064458Y0096607D01*
X0064286Y0096701D01*
X0064116Y0096800D01*
X0063949Y0096903D01*
X0063784Y0097010D01*
X0063623Y0097121D01*
X0063463Y0097236D01*
X0063307Y0097355D01*
X0063154Y0097478D01*
X0063004Y0097604D01*
X0062857Y0097734D01*
X0062713Y0097868D01*
X0062572Y0098005D01*
X0062435Y0098146D01*
X0062301Y0098290D01*
X0062171Y0098437D01*
X0062045Y0098587D01*
X0061922Y0098740D01*
X0061803Y0098896D01*
X0061688Y0099056D01*
X0061577Y0099217D01*
X0061470Y0099382D01*
X0061367Y0099549D01*
X0061268Y0099719D01*
X0061174Y0099891D01*
X0061083Y0100065D01*
X0060997Y0100242D01*
X0060915Y0100420D01*
X0060838Y0100601D01*
X0060765Y0100783D01*
X0060697Y0100967D01*
X0060633Y0101153D01*
X0060573Y0101340D01*
X0060519Y0101528D01*
X0060469Y0101718D01*
X0060423Y0101909D01*
X0060383Y0102101D01*
X0060347Y0102294D01*
X0060316Y0102488D01*
X0060289Y0102683D01*
X0060268Y0102878D01*
X0060251Y0103073D01*
X0060239Y0103269D01*
X0060231Y0103466D01*
X0060229Y0103662D01*
X0049479Y0093662D02*
X0049479Y0079162D01*
X0086979Y0079162D01*
X0086979Y0093662D01*
X0049479Y0113662D02*
X0049479Y0122412D01*
X0047093Y0093496D02*
X0047093Y0091694D01*
X0045292Y0093496D01*
X0044841Y0093496D01*
X0044391Y0093045D01*
X0044391Y0092145D01*
X0044841Y0091694D01*
X0044841Y0090549D02*
X0045292Y0090549D01*
X0045742Y0090099D01*
X0045742Y0088748D01*
X0045742Y0090099D02*
X0046193Y0090549D01*
X0046643Y0090549D01*
X0047093Y0090099D01*
X0047093Y0088748D01*
X0044391Y0088748D01*
X0044391Y0090099D01*
X0044841Y0090549D01*
X0044841Y0087603D02*
X0044391Y0087152D01*
X0044391Y0086252D01*
X0044841Y0085801D01*
X0046643Y0085801D01*
X0047093Y0086252D01*
X0047093Y0087152D01*
X0046643Y0087603D01*
X0044841Y0087603D01*
X0044391Y0084656D02*
X0047093Y0084656D01*
X0044391Y0082855D01*
X0047093Y0082855D01*
X0047093Y0081710D02*
X0045742Y0080359D01*
X0046193Y0079908D02*
X0044391Y0081710D01*
X0044391Y0079908D02*
X0047093Y0079908D01*
X0156154Y0197087D02*
X0156156Y0197131D01*
X0156162Y0197175D01*
X0156172Y0197218D01*
X0156185Y0197260D01*
X0156202Y0197301D01*
X0156223Y0197340D01*
X0156247Y0197377D01*
X0156274Y0197412D01*
X0156304Y0197444D01*
X0156337Y0197474D01*
X0156373Y0197500D01*
X0156410Y0197524D01*
X0156450Y0197543D01*
X0156491Y0197560D01*
X0156534Y0197572D01*
X0156577Y0197581D01*
X0156621Y0197586D01*
X0156665Y0197587D01*
X0156709Y0197584D01*
X0156753Y0197577D01*
X0156796Y0197566D01*
X0156838Y0197552D01*
X0156878Y0197534D01*
X0156917Y0197512D01*
X0156953Y0197488D01*
X0156987Y0197460D01*
X0157019Y0197429D01*
X0157048Y0197395D01*
X0157074Y0197359D01*
X0157096Y0197321D01*
X0157115Y0197281D01*
X0157130Y0197239D01*
X0157142Y0197197D01*
X0157150Y0197153D01*
X0157154Y0197109D01*
X0157154Y0197065D01*
X0157150Y0197021D01*
X0157142Y0196977D01*
X0157130Y0196935D01*
X0157115Y0196893D01*
X0157096Y0196853D01*
X0157074Y0196815D01*
X0157048Y0196779D01*
X0157019Y0196745D01*
X0156987Y0196714D01*
X0156953Y0196686D01*
X0156917Y0196662D01*
X0156878Y0196640D01*
X0156838Y0196622D01*
X0156796Y0196608D01*
X0156753Y0196597D01*
X0156709Y0196590D01*
X0156665Y0196587D01*
X0156621Y0196588D01*
X0156577Y0196593D01*
X0156534Y0196602D01*
X0156491Y0196614D01*
X0156450Y0196631D01*
X0156410Y0196650D01*
X0156373Y0196674D01*
X0156337Y0196700D01*
X0156304Y0196730D01*
X0156274Y0196762D01*
X0156247Y0196797D01*
X0156223Y0196834D01*
X0156202Y0196873D01*
X0156185Y0196914D01*
X0156172Y0196956D01*
X0156162Y0196999D01*
X0156156Y0197043D01*
X0156154Y0197087D01*
X0343411Y0197410D02*
X0346113Y0199211D01*
X0343411Y0199211D01*
X0343861Y0200356D02*
X0345663Y0200356D01*
X0346113Y0200807D01*
X0346113Y0201708D01*
X0345663Y0202158D01*
X0343861Y0202158D01*
X0343411Y0201708D01*
X0343411Y0200807D01*
X0343861Y0200356D01*
X0343411Y0197410D02*
X0346113Y0197410D01*
X0346113Y0196265D02*
X0344762Y0194914D01*
X0345212Y0194463D02*
X0343411Y0196265D01*
X0343411Y0194463D02*
X0346113Y0194463D01*
X0348692Y0193335D02*
X0348692Y0207835D01*
X0346113Y0207601D02*
X0346113Y0206700D01*
X0345663Y0206249D01*
X0345663Y0205104D02*
X0346113Y0204654D01*
X0346113Y0203303D01*
X0343411Y0203303D01*
X0343411Y0204654D01*
X0343861Y0205104D01*
X0344311Y0205104D01*
X0344762Y0204654D01*
X0344762Y0203303D01*
X0344762Y0204654D02*
X0345212Y0205104D01*
X0345663Y0205104D01*
X0343861Y0206249D02*
X0343411Y0206700D01*
X0343411Y0207601D01*
X0343861Y0208051D01*
X0344311Y0208051D01*
X0344762Y0207601D01*
X0345212Y0208051D01*
X0345663Y0208051D01*
X0346113Y0207601D01*
X0344762Y0207601D02*
X0344762Y0207150D01*
X0348692Y0193335D02*
X0386192Y0193335D01*
X0386192Y0207835D01*
X0359442Y0217835D02*
X0359444Y0218031D01*
X0359452Y0218228D01*
X0359464Y0218424D01*
X0359481Y0218619D01*
X0359502Y0218814D01*
X0359529Y0219009D01*
X0359560Y0219203D01*
X0359596Y0219396D01*
X0359636Y0219588D01*
X0359682Y0219779D01*
X0359732Y0219969D01*
X0359786Y0220157D01*
X0359846Y0220344D01*
X0359910Y0220530D01*
X0359978Y0220714D01*
X0360051Y0220896D01*
X0360128Y0221077D01*
X0360210Y0221255D01*
X0360296Y0221432D01*
X0360387Y0221606D01*
X0360481Y0221778D01*
X0360580Y0221948D01*
X0360683Y0222115D01*
X0360790Y0222280D01*
X0360901Y0222441D01*
X0361016Y0222601D01*
X0361135Y0222757D01*
X0361258Y0222910D01*
X0361384Y0223060D01*
X0361514Y0223207D01*
X0361648Y0223351D01*
X0361785Y0223492D01*
X0361926Y0223629D01*
X0362070Y0223763D01*
X0362217Y0223893D01*
X0362367Y0224019D01*
X0362520Y0224142D01*
X0362676Y0224261D01*
X0362836Y0224376D01*
X0362997Y0224487D01*
X0363162Y0224594D01*
X0363329Y0224697D01*
X0363499Y0224796D01*
X0363671Y0224890D01*
X0363845Y0224981D01*
X0364022Y0225067D01*
X0364200Y0225149D01*
X0364381Y0225226D01*
X0364563Y0225299D01*
X0364747Y0225367D01*
X0364933Y0225431D01*
X0365120Y0225491D01*
X0365308Y0225545D01*
X0365498Y0225595D01*
X0365689Y0225641D01*
X0365881Y0225681D01*
X0366074Y0225717D01*
X0366268Y0225748D01*
X0366463Y0225775D01*
X0366658Y0225796D01*
X0366853Y0225813D01*
X0367049Y0225825D01*
X0367246Y0225833D01*
X0367442Y0225835D01*
X0367638Y0225833D01*
X0367835Y0225825D01*
X0368031Y0225813D01*
X0368226Y0225796D01*
X0368421Y0225775D01*
X0368616Y0225748D01*
X0368810Y0225717D01*
X0369003Y0225681D01*
X0369195Y0225641D01*
X0369386Y0225595D01*
X0369576Y0225545D01*
X0369764Y0225491D01*
X0369951Y0225431D01*
X0370137Y0225367D01*
X0370321Y0225299D01*
X0370503Y0225226D01*
X0370684Y0225149D01*
X0370862Y0225067D01*
X0371039Y0224981D01*
X0371213Y0224890D01*
X0371385Y0224796D01*
X0371555Y0224697D01*
X0371722Y0224594D01*
X0371887Y0224487D01*
X0372048Y0224376D01*
X0372208Y0224261D01*
X0372364Y0224142D01*
X0372517Y0224019D01*
X0372667Y0223893D01*
X0372814Y0223763D01*
X0372958Y0223629D01*
X0373099Y0223492D01*
X0373236Y0223351D01*
X0373370Y0223207D01*
X0373500Y0223060D01*
X0373626Y0222910D01*
X0373749Y0222757D01*
X0373868Y0222601D01*
X0373983Y0222441D01*
X0374094Y0222280D01*
X0374201Y0222115D01*
X0374304Y0221948D01*
X0374403Y0221778D01*
X0374497Y0221606D01*
X0374588Y0221432D01*
X0374674Y0221255D01*
X0374756Y0221077D01*
X0374833Y0220896D01*
X0374906Y0220714D01*
X0374974Y0220530D01*
X0375038Y0220344D01*
X0375098Y0220157D01*
X0375152Y0219969D01*
X0375202Y0219779D01*
X0375248Y0219588D01*
X0375288Y0219396D01*
X0375324Y0219203D01*
X0375355Y0219009D01*
X0375382Y0218814D01*
X0375403Y0218619D01*
X0375420Y0218424D01*
X0375432Y0218228D01*
X0375440Y0218031D01*
X0375442Y0217835D01*
X0375440Y0217639D01*
X0375432Y0217442D01*
X0375420Y0217246D01*
X0375403Y0217051D01*
X0375382Y0216856D01*
X0375355Y0216661D01*
X0375324Y0216467D01*
X0375288Y0216274D01*
X0375248Y0216082D01*
X0375202Y0215891D01*
X0375152Y0215701D01*
X0375098Y0215513D01*
X0375038Y0215326D01*
X0374974Y0215140D01*
X0374906Y0214956D01*
X0374833Y0214774D01*
X0374756Y0214593D01*
X0374674Y0214415D01*
X0374588Y0214238D01*
X0374497Y0214064D01*
X0374403Y0213892D01*
X0374304Y0213722D01*
X0374201Y0213555D01*
X0374094Y0213390D01*
X0373983Y0213229D01*
X0373868Y0213069D01*
X0373749Y0212913D01*
X0373626Y0212760D01*
X0373500Y0212610D01*
X0373370Y0212463D01*
X0373236Y0212319D01*
X0373099Y0212178D01*
X0372958Y0212041D01*
X0372814Y0211907D01*
X0372667Y0211777D01*
X0372517Y0211651D01*
X0372364Y0211528D01*
X0372208Y0211409D01*
X0372048Y0211294D01*
X0371887Y0211183D01*
X0371722Y0211076D01*
X0371555Y0210973D01*
X0371385Y0210874D01*
X0371213Y0210780D01*
X0371039Y0210689D01*
X0370862Y0210603D01*
X0370684Y0210521D01*
X0370503Y0210444D01*
X0370321Y0210371D01*
X0370137Y0210303D01*
X0369951Y0210239D01*
X0369764Y0210179D01*
X0369576Y0210125D01*
X0369386Y0210075D01*
X0369195Y0210029D01*
X0369003Y0209989D01*
X0368810Y0209953D01*
X0368616Y0209922D01*
X0368421Y0209895D01*
X0368226Y0209874D01*
X0368031Y0209857D01*
X0367835Y0209845D01*
X0367638Y0209837D01*
X0367442Y0209835D01*
X0367246Y0209837D01*
X0367049Y0209845D01*
X0366853Y0209857D01*
X0366658Y0209874D01*
X0366463Y0209895D01*
X0366268Y0209922D01*
X0366074Y0209953D01*
X0365881Y0209989D01*
X0365689Y0210029D01*
X0365498Y0210075D01*
X0365308Y0210125D01*
X0365120Y0210179D01*
X0364933Y0210239D01*
X0364747Y0210303D01*
X0364563Y0210371D01*
X0364381Y0210444D01*
X0364200Y0210521D01*
X0364022Y0210603D01*
X0363845Y0210689D01*
X0363671Y0210780D01*
X0363499Y0210874D01*
X0363329Y0210973D01*
X0363162Y0211076D01*
X0362997Y0211183D01*
X0362836Y0211294D01*
X0362676Y0211409D01*
X0362520Y0211528D01*
X0362367Y0211651D01*
X0362217Y0211777D01*
X0362070Y0211907D01*
X0361926Y0212041D01*
X0361785Y0212178D01*
X0361648Y0212319D01*
X0361514Y0212463D01*
X0361384Y0212610D01*
X0361258Y0212760D01*
X0361135Y0212913D01*
X0361016Y0213069D01*
X0360901Y0213229D01*
X0360790Y0213390D01*
X0360683Y0213555D01*
X0360580Y0213722D01*
X0360481Y0213892D01*
X0360387Y0214064D01*
X0360296Y0214238D01*
X0360210Y0214415D01*
X0360128Y0214593D01*
X0360051Y0214774D01*
X0359978Y0214956D01*
X0359910Y0215140D01*
X0359846Y0215326D01*
X0359786Y0215513D01*
X0359732Y0215701D01*
X0359682Y0215891D01*
X0359636Y0216082D01*
X0359596Y0216274D01*
X0359560Y0216467D01*
X0359529Y0216661D01*
X0359502Y0216856D01*
X0359481Y0217051D01*
X0359464Y0217246D01*
X0359452Y0217442D01*
X0359444Y0217639D01*
X0359442Y0217835D01*
X0348692Y0227835D02*
X0348692Y0236585D01*
X0348692Y0236835D02*
X0386192Y0236835D01*
X0386192Y0236585D02*
X0386192Y0227835D01*
D15*
X0310887Y0204587D02*
X0308387Y0199587D01*
X0305887Y0199587D01*
X0308387Y0199587D02*
X0310887Y0199587D01*
X0308387Y0199587D02*
X0305887Y0204587D01*
X0310887Y0204587D01*
X0271517Y0204587D02*
X0269017Y0199587D01*
X0266517Y0199587D01*
X0269017Y0199587D02*
X0271517Y0199587D01*
X0269017Y0199587D02*
X0266517Y0204587D01*
X0271517Y0204587D01*
X0169154Y0204587D02*
X0166654Y0199587D01*
X0164154Y0199587D01*
X0166654Y0199587D02*
X0169154Y0199587D01*
X0166654Y0199587D02*
X0164154Y0204587D01*
X0169154Y0204587D01*
X0129784Y0204587D02*
X0127284Y0199587D01*
X0124784Y0199587D01*
X0127284Y0199587D02*
X0129784Y0199587D01*
X0127284Y0199587D02*
X0124784Y0204587D01*
X0129784Y0204587D01*
D16*
X0131936Y0217335D02*
X0131938Y0217384D01*
X0131944Y0217432D01*
X0131954Y0217480D01*
X0131968Y0217527D01*
X0131985Y0217573D01*
X0132006Y0217617D01*
X0132031Y0217659D01*
X0132059Y0217699D01*
X0132091Y0217737D01*
X0132125Y0217772D01*
X0132162Y0217804D01*
X0132201Y0217833D01*
X0132243Y0217859D01*
X0132287Y0217881D01*
X0132332Y0217899D01*
X0132379Y0217914D01*
X0132426Y0217925D01*
X0132475Y0217932D01*
X0132524Y0217935D01*
X0132573Y0217934D01*
X0132621Y0217929D01*
X0132670Y0217920D01*
X0132717Y0217907D01*
X0132763Y0217890D01*
X0132807Y0217870D01*
X0132850Y0217846D01*
X0132891Y0217819D01*
X0132929Y0217788D01*
X0132965Y0217755D01*
X0132997Y0217719D01*
X0133027Y0217680D01*
X0133054Y0217639D01*
X0133077Y0217595D01*
X0133096Y0217550D01*
X0133112Y0217504D01*
X0133124Y0217457D01*
X0133132Y0217408D01*
X0133136Y0217359D01*
X0133136Y0217311D01*
X0133132Y0217262D01*
X0133124Y0217213D01*
X0133112Y0217166D01*
X0133096Y0217120D01*
X0133077Y0217075D01*
X0133054Y0217031D01*
X0133027Y0216990D01*
X0132997Y0216951D01*
X0132965Y0216915D01*
X0132929Y0216882D01*
X0132891Y0216851D01*
X0132850Y0216824D01*
X0132807Y0216800D01*
X0132763Y0216780D01*
X0132717Y0216763D01*
X0132670Y0216750D01*
X0132621Y0216741D01*
X0132573Y0216736D01*
X0132524Y0216735D01*
X0132475Y0216738D01*
X0132426Y0216745D01*
X0132379Y0216756D01*
X0132332Y0216771D01*
X0132287Y0216789D01*
X0132243Y0216811D01*
X0132201Y0216837D01*
X0132162Y0216866D01*
X0132125Y0216898D01*
X0132091Y0216933D01*
X0132059Y0216971D01*
X0132031Y0217011D01*
X0132006Y0217053D01*
X0131985Y0217097D01*
X0131968Y0217143D01*
X0131954Y0217190D01*
X0131944Y0217238D01*
X0131938Y0217286D01*
X0131936Y0217335D01*
X0121936Y0217335D02*
X0121938Y0217384D01*
X0121944Y0217432D01*
X0121954Y0217480D01*
X0121968Y0217527D01*
X0121985Y0217573D01*
X0122006Y0217617D01*
X0122031Y0217659D01*
X0122059Y0217699D01*
X0122091Y0217737D01*
X0122125Y0217772D01*
X0122162Y0217804D01*
X0122201Y0217833D01*
X0122243Y0217859D01*
X0122287Y0217881D01*
X0122332Y0217899D01*
X0122379Y0217914D01*
X0122426Y0217925D01*
X0122475Y0217932D01*
X0122524Y0217935D01*
X0122573Y0217934D01*
X0122621Y0217929D01*
X0122670Y0217920D01*
X0122717Y0217907D01*
X0122763Y0217890D01*
X0122807Y0217870D01*
X0122850Y0217846D01*
X0122891Y0217819D01*
X0122929Y0217788D01*
X0122965Y0217755D01*
X0122997Y0217719D01*
X0123027Y0217680D01*
X0123054Y0217639D01*
X0123077Y0217595D01*
X0123096Y0217550D01*
X0123112Y0217504D01*
X0123124Y0217457D01*
X0123132Y0217408D01*
X0123136Y0217359D01*
X0123136Y0217311D01*
X0123132Y0217262D01*
X0123124Y0217213D01*
X0123112Y0217166D01*
X0123096Y0217120D01*
X0123077Y0217075D01*
X0123054Y0217031D01*
X0123027Y0216990D01*
X0122997Y0216951D01*
X0122965Y0216915D01*
X0122929Y0216882D01*
X0122891Y0216851D01*
X0122850Y0216824D01*
X0122807Y0216800D01*
X0122763Y0216780D01*
X0122717Y0216763D01*
X0122670Y0216750D01*
X0122621Y0216741D01*
X0122573Y0216736D01*
X0122524Y0216735D01*
X0122475Y0216738D01*
X0122426Y0216745D01*
X0122379Y0216756D01*
X0122332Y0216771D01*
X0122287Y0216789D01*
X0122243Y0216811D01*
X0122201Y0216837D01*
X0122162Y0216866D01*
X0122125Y0216898D01*
X0122091Y0216933D01*
X0122059Y0216971D01*
X0122031Y0217011D01*
X0122006Y0217053D01*
X0121985Y0217097D01*
X0121968Y0217143D01*
X0121954Y0217190D01*
X0121944Y0217238D01*
X0121938Y0217286D01*
X0121936Y0217335D01*
X0161306Y0217335D02*
X0161308Y0217384D01*
X0161314Y0217432D01*
X0161324Y0217480D01*
X0161338Y0217527D01*
X0161355Y0217573D01*
X0161376Y0217617D01*
X0161401Y0217659D01*
X0161429Y0217699D01*
X0161461Y0217737D01*
X0161495Y0217772D01*
X0161532Y0217804D01*
X0161571Y0217833D01*
X0161613Y0217859D01*
X0161657Y0217881D01*
X0161702Y0217899D01*
X0161749Y0217914D01*
X0161796Y0217925D01*
X0161845Y0217932D01*
X0161894Y0217935D01*
X0161943Y0217934D01*
X0161991Y0217929D01*
X0162040Y0217920D01*
X0162087Y0217907D01*
X0162133Y0217890D01*
X0162177Y0217870D01*
X0162220Y0217846D01*
X0162261Y0217819D01*
X0162299Y0217788D01*
X0162335Y0217755D01*
X0162367Y0217719D01*
X0162397Y0217680D01*
X0162424Y0217639D01*
X0162447Y0217595D01*
X0162466Y0217550D01*
X0162482Y0217504D01*
X0162494Y0217457D01*
X0162502Y0217408D01*
X0162506Y0217359D01*
X0162506Y0217311D01*
X0162502Y0217262D01*
X0162494Y0217213D01*
X0162482Y0217166D01*
X0162466Y0217120D01*
X0162447Y0217075D01*
X0162424Y0217031D01*
X0162397Y0216990D01*
X0162367Y0216951D01*
X0162335Y0216915D01*
X0162299Y0216882D01*
X0162261Y0216851D01*
X0162220Y0216824D01*
X0162177Y0216800D01*
X0162133Y0216780D01*
X0162087Y0216763D01*
X0162040Y0216750D01*
X0161991Y0216741D01*
X0161943Y0216736D01*
X0161894Y0216735D01*
X0161845Y0216738D01*
X0161796Y0216745D01*
X0161749Y0216756D01*
X0161702Y0216771D01*
X0161657Y0216789D01*
X0161613Y0216811D01*
X0161571Y0216837D01*
X0161532Y0216866D01*
X0161495Y0216898D01*
X0161461Y0216933D01*
X0161429Y0216971D01*
X0161401Y0217011D01*
X0161376Y0217053D01*
X0161355Y0217097D01*
X0161338Y0217143D01*
X0161324Y0217190D01*
X0161314Y0217238D01*
X0161308Y0217286D01*
X0161306Y0217335D01*
X0171306Y0217335D02*
X0171308Y0217384D01*
X0171314Y0217432D01*
X0171324Y0217480D01*
X0171338Y0217527D01*
X0171355Y0217573D01*
X0171376Y0217617D01*
X0171401Y0217659D01*
X0171429Y0217699D01*
X0171461Y0217737D01*
X0171495Y0217772D01*
X0171532Y0217804D01*
X0171571Y0217833D01*
X0171613Y0217859D01*
X0171657Y0217881D01*
X0171702Y0217899D01*
X0171749Y0217914D01*
X0171796Y0217925D01*
X0171845Y0217932D01*
X0171894Y0217935D01*
X0171943Y0217934D01*
X0171991Y0217929D01*
X0172040Y0217920D01*
X0172087Y0217907D01*
X0172133Y0217890D01*
X0172177Y0217870D01*
X0172220Y0217846D01*
X0172261Y0217819D01*
X0172299Y0217788D01*
X0172335Y0217755D01*
X0172367Y0217719D01*
X0172397Y0217680D01*
X0172424Y0217639D01*
X0172447Y0217595D01*
X0172466Y0217550D01*
X0172482Y0217504D01*
X0172494Y0217457D01*
X0172502Y0217408D01*
X0172506Y0217359D01*
X0172506Y0217311D01*
X0172502Y0217262D01*
X0172494Y0217213D01*
X0172482Y0217166D01*
X0172466Y0217120D01*
X0172447Y0217075D01*
X0172424Y0217031D01*
X0172397Y0216990D01*
X0172367Y0216951D01*
X0172335Y0216915D01*
X0172299Y0216882D01*
X0172261Y0216851D01*
X0172220Y0216824D01*
X0172177Y0216800D01*
X0172133Y0216780D01*
X0172087Y0216763D01*
X0172040Y0216750D01*
X0171991Y0216741D01*
X0171943Y0216736D01*
X0171894Y0216735D01*
X0171845Y0216738D01*
X0171796Y0216745D01*
X0171749Y0216756D01*
X0171702Y0216771D01*
X0171657Y0216789D01*
X0171613Y0216811D01*
X0171571Y0216837D01*
X0171532Y0216866D01*
X0171495Y0216898D01*
X0171461Y0216933D01*
X0171429Y0216971D01*
X0171401Y0217011D01*
X0171376Y0217053D01*
X0171355Y0217097D01*
X0171338Y0217143D01*
X0171324Y0217190D01*
X0171314Y0217238D01*
X0171308Y0217286D01*
X0171306Y0217335D01*
X0263669Y0217335D02*
X0263671Y0217384D01*
X0263677Y0217432D01*
X0263687Y0217480D01*
X0263701Y0217527D01*
X0263718Y0217573D01*
X0263739Y0217617D01*
X0263764Y0217659D01*
X0263792Y0217699D01*
X0263824Y0217737D01*
X0263858Y0217772D01*
X0263895Y0217804D01*
X0263934Y0217833D01*
X0263976Y0217859D01*
X0264020Y0217881D01*
X0264065Y0217899D01*
X0264112Y0217914D01*
X0264159Y0217925D01*
X0264208Y0217932D01*
X0264257Y0217935D01*
X0264306Y0217934D01*
X0264354Y0217929D01*
X0264403Y0217920D01*
X0264450Y0217907D01*
X0264496Y0217890D01*
X0264540Y0217870D01*
X0264583Y0217846D01*
X0264624Y0217819D01*
X0264662Y0217788D01*
X0264698Y0217755D01*
X0264730Y0217719D01*
X0264760Y0217680D01*
X0264787Y0217639D01*
X0264810Y0217595D01*
X0264829Y0217550D01*
X0264845Y0217504D01*
X0264857Y0217457D01*
X0264865Y0217408D01*
X0264869Y0217359D01*
X0264869Y0217311D01*
X0264865Y0217262D01*
X0264857Y0217213D01*
X0264845Y0217166D01*
X0264829Y0217120D01*
X0264810Y0217075D01*
X0264787Y0217031D01*
X0264760Y0216990D01*
X0264730Y0216951D01*
X0264698Y0216915D01*
X0264662Y0216882D01*
X0264624Y0216851D01*
X0264583Y0216824D01*
X0264540Y0216800D01*
X0264496Y0216780D01*
X0264450Y0216763D01*
X0264403Y0216750D01*
X0264354Y0216741D01*
X0264306Y0216736D01*
X0264257Y0216735D01*
X0264208Y0216738D01*
X0264159Y0216745D01*
X0264112Y0216756D01*
X0264065Y0216771D01*
X0264020Y0216789D01*
X0263976Y0216811D01*
X0263934Y0216837D01*
X0263895Y0216866D01*
X0263858Y0216898D01*
X0263824Y0216933D01*
X0263792Y0216971D01*
X0263764Y0217011D01*
X0263739Y0217053D01*
X0263718Y0217097D01*
X0263701Y0217143D01*
X0263687Y0217190D01*
X0263677Y0217238D01*
X0263671Y0217286D01*
X0263669Y0217335D01*
X0273669Y0217335D02*
X0273671Y0217384D01*
X0273677Y0217432D01*
X0273687Y0217480D01*
X0273701Y0217527D01*
X0273718Y0217573D01*
X0273739Y0217617D01*
X0273764Y0217659D01*
X0273792Y0217699D01*
X0273824Y0217737D01*
X0273858Y0217772D01*
X0273895Y0217804D01*
X0273934Y0217833D01*
X0273976Y0217859D01*
X0274020Y0217881D01*
X0274065Y0217899D01*
X0274112Y0217914D01*
X0274159Y0217925D01*
X0274208Y0217932D01*
X0274257Y0217935D01*
X0274306Y0217934D01*
X0274354Y0217929D01*
X0274403Y0217920D01*
X0274450Y0217907D01*
X0274496Y0217890D01*
X0274540Y0217870D01*
X0274583Y0217846D01*
X0274624Y0217819D01*
X0274662Y0217788D01*
X0274698Y0217755D01*
X0274730Y0217719D01*
X0274760Y0217680D01*
X0274787Y0217639D01*
X0274810Y0217595D01*
X0274829Y0217550D01*
X0274845Y0217504D01*
X0274857Y0217457D01*
X0274865Y0217408D01*
X0274869Y0217359D01*
X0274869Y0217311D01*
X0274865Y0217262D01*
X0274857Y0217213D01*
X0274845Y0217166D01*
X0274829Y0217120D01*
X0274810Y0217075D01*
X0274787Y0217031D01*
X0274760Y0216990D01*
X0274730Y0216951D01*
X0274698Y0216915D01*
X0274662Y0216882D01*
X0274624Y0216851D01*
X0274583Y0216824D01*
X0274540Y0216800D01*
X0274496Y0216780D01*
X0274450Y0216763D01*
X0274403Y0216750D01*
X0274354Y0216741D01*
X0274306Y0216736D01*
X0274257Y0216735D01*
X0274208Y0216738D01*
X0274159Y0216745D01*
X0274112Y0216756D01*
X0274065Y0216771D01*
X0274020Y0216789D01*
X0273976Y0216811D01*
X0273934Y0216837D01*
X0273895Y0216866D01*
X0273858Y0216898D01*
X0273824Y0216933D01*
X0273792Y0216971D01*
X0273764Y0217011D01*
X0273739Y0217053D01*
X0273718Y0217097D01*
X0273701Y0217143D01*
X0273687Y0217190D01*
X0273677Y0217238D01*
X0273671Y0217286D01*
X0273669Y0217335D01*
X0303039Y0217335D02*
X0303041Y0217384D01*
X0303047Y0217432D01*
X0303057Y0217480D01*
X0303071Y0217527D01*
X0303088Y0217573D01*
X0303109Y0217617D01*
X0303134Y0217659D01*
X0303162Y0217699D01*
X0303194Y0217737D01*
X0303228Y0217772D01*
X0303265Y0217804D01*
X0303304Y0217833D01*
X0303346Y0217859D01*
X0303390Y0217881D01*
X0303435Y0217899D01*
X0303482Y0217914D01*
X0303529Y0217925D01*
X0303578Y0217932D01*
X0303627Y0217935D01*
X0303676Y0217934D01*
X0303724Y0217929D01*
X0303773Y0217920D01*
X0303820Y0217907D01*
X0303866Y0217890D01*
X0303910Y0217870D01*
X0303953Y0217846D01*
X0303994Y0217819D01*
X0304032Y0217788D01*
X0304068Y0217755D01*
X0304100Y0217719D01*
X0304130Y0217680D01*
X0304157Y0217639D01*
X0304180Y0217595D01*
X0304199Y0217550D01*
X0304215Y0217504D01*
X0304227Y0217457D01*
X0304235Y0217408D01*
X0304239Y0217359D01*
X0304239Y0217311D01*
X0304235Y0217262D01*
X0304227Y0217213D01*
X0304215Y0217166D01*
X0304199Y0217120D01*
X0304180Y0217075D01*
X0304157Y0217031D01*
X0304130Y0216990D01*
X0304100Y0216951D01*
X0304068Y0216915D01*
X0304032Y0216882D01*
X0303994Y0216851D01*
X0303953Y0216824D01*
X0303910Y0216800D01*
X0303866Y0216780D01*
X0303820Y0216763D01*
X0303773Y0216750D01*
X0303724Y0216741D01*
X0303676Y0216736D01*
X0303627Y0216735D01*
X0303578Y0216738D01*
X0303529Y0216745D01*
X0303482Y0216756D01*
X0303435Y0216771D01*
X0303390Y0216789D01*
X0303346Y0216811D01*
X0303304Y0216837D01*
X0303265Y0216866D01*
X0303228Y0216898D01*
X0303194Y0216933D01*
X0303162Y0216971D01*
X0303134Y0217011D01*
X0303109Y0217053D01*
X0303088Y0217097D01*
X0303071Y0217143D01*
X0303057Y0217190D01*
X0303047Y0217238D01*
X0303041Y0217286D01*
X0303039Y0217335D01*
X0313039Y0217335D02*
X0313041Y0217384D01*
X0313047Y0217432D01*
X0313057Y0217480D01*
X0313071Y0217527D01*
X0313088Y0217573D01*
X0313109Y0217617D01*
X0313134Y0217659D01*
X0313162Y0217699D01*
X0313194Y0217737D01*
X0313228Y0217772D01*
X0313265Y0217804D01*
X0313304Y0217833D01*
X0313346Y0217859D01*
X0313390Y0217881D01*
X0313435Y0217899D01*
X0313482Y0217914D01*
X0313529Y0217925D01*
X0313578Y0217932D01*
X0313627Y0217935D01*
X0313676Y0217934D01*
X0313724Y0217929D01*
X0313773Y0217920D01*
X0313820Y0217907D01*
X0313866Y0217890D01*
X0313910Y0217870D01*
X0313953Y0217846D01*
X0313994Y0217819D01*
X0314032Y0217788D01*
X0314068Y0217755D01*
X0314100Y0217719D01*
X0314130Y0217680D01*
X0314157Y0217639D01*
X0314180Y0217595D01*
X0314199Y0217550D01*
X0314215Y0217504D01*
X0314227Y0217457D01*
X0314235Y0217408D01*
X0314239Y0217359D01*
X0314239Y0217311D01*
X0314235Y0217262D01*
X0314227Y0217213D01*
X0314215Y0217166D01*
X0314199Y0217120D01*
X0314180Y0217075D01*
X0314157Y0217031D01*
X0314130Y0216990D01*
X0314100Y0216951D01*
X0314068Y0216915D01*
X0314032Y0216882D01*
X0313994Y0216851D01*
X0313953Y0216824D01*
X0313910Y0216800D01*
X0313866Y0216780D01*
X0313820Y0216763D01*
X0313773Y0216750D01*
X0313724Y0216741D01*
X0313676Y0216736D01*
X0313627Y0216735D01*
X0313578Y0216738D01*
X0313529Y0216745D01*
X0313482Y0216756D01*
X0313435Y0216771D01*
X0313390Y0216789D01*
X0313346Y0216811D01*
X0313304Y0216837D01*
X0313265Y0216866D01*
X0313228Y0216898D01*
X0313194Y0216933D01*
X0313162Y0216971D01*
X0313134Y0217011D01*
X0313109Y0217053D01*
X0313088Y0217097D01*
X0313071Y0217143D01*
X0313057Y0217190D01*
X0313047Y0217238D01*
X0313041Y0217286D01*
X0313039Y0217335D01*
M02*
