G75*
%MOIN*%
%OFA0B0*%
%FSLAX25Y25*%
%IPPOS*%
%LPD*%
%AMOC8*
5,1,8,0,0,1.08239X$1,22.5*
%
%ADD10C,0.07400*%
%ADD11C,0.16598*%
%ADD12C,0.15024*%
%ADD13OC8,0.05200*%
%ADD14C,0.05937*%
%ADD15R,0.05937X0.05937*%
%ADD16C,0.06600*%
%ADD17C,0.03772*%
%ADD18C,0.05740*%
%ADD19C,0.09744*%
%ADD20C,0.07000*%
%ADD21C,0.11811*%
%ADD22C,0.01000*%
%ADD23C,0.03100*%
%ADD24C,0.01500*%
D10*
X0045339Y0008670D03*
X0055339Y0007670D03*
X0065339Y0008670D03*
X0089820Y0008391D03*
X0099820Y0007391D03*
X0109820Y0008391D03*
X0133150Y0008394D03*
X0143150Y0007394D03*
X0153150Y0008394D03*
X0173178Y0008434D03*
X0183178Y0007434D03*
X0193178Y0008434D03*
X0181887Y0039308D03*
X0171887Y0039308D03*
X0161887Y0039308D03*
X0151887Y0039308D03*
X0141887Y0039308D03*
X0141887Y0050308D03*
X0151887Y0050308D03*
X0161887Y0050308D03*
X0171887Y0050308D03*
X0181887Y0050308D03*
X0097379Y0049950D03*
X0087379Y0049950D03*
X0077379Y0049950D03*
X0067379Y0049950D03*
X0057379Y0049950D03*
X0057379Y0038950D03*
X0067379Y0038950D03*
X0077379Y0038950D03*
X0087379Y0038950D03*
X0097379Y0038950D03*
X0010261Y0049654D03*
X0011261Y0059654D03*
X0010261Y0069654D03*
X0011261Y0079654D03*
X0010261Y0089654D03*
X0024607Y0137493D03*
X0034607Y0137493D03*
X0044607Y0137493D03*
X0054607Y0137493D03*
X0064607Y0137493D03*
X0064607Y0148493D03*
X0054607Y0148493D03*
X0044607Y0148493D03*
X0034607Y0148493D03*
X0024607Y0148493D03*
X0010080Y0177324D03*
X0011080Y0187324D03*
X0010080Y0197324D03*
X0011080Y0207324D03*
X0010080Y0217324D03*
X0024607Y0247808D03*
X0034607Y0247808D03*
X0044607Y0247808D03*
X0054607Y0247808D03*
X0064607Y0247808D03*
X0064607Y0258808D03*
X0054607Y0258808D03*
X0044607Y0258808D03*
X0034607Y0258808D03*
X0024607Y0258808D03*
X0096576Y0297855D03*
X0106576Y0296855D03*
X0116576Y0297855D03*
X0139595Y0297461D03*
X0149595Y0296461D03*
X0159595Y0297461D03*
X0179331Y0296930D03*
X0189331Y0297930D03*
X0199331Y0296930D03*
X0222206Y0296733D03*
X0232206Y0297733D03*
X0242206Y0296733D03*
X0260946Y0297284D03*
X0270946Y0298284D03*
X0280946Y0297284D03*
X0307954Y0296694D03*
X0317954Y0297694D03*
X0327954Y0296694D03*
X0348423Y0297961D03*
X0359823Y0297961D03*
X0313387Y0258769D03*
X0303387Y0258769D03*
X0293387Y0258769D03*
X0283387Y0258769D03*
X0273387Y0258769D03*
X0273387Y0247769D03*
X0283387Y0247769D03*
X0293387Y0247769D03*
X0303387Y0247769D03*
X0313387Y0247769D03*
X0229961Y0247729D03*
X0219961Y0247729D03*
X0209961Y0247729D03*
X0199961Y0247729D03*
X0189961Y0247729D03*
X0189961Y0258729D03*
X0199961Y0258729D03*
X0209961Y0258729D03*
X0219961Y0258729D03*
X0229961Y0258729D03*
X0147233Y0258729D03*
X0137233Y0258729D03*
X0127233Y0258729D03*
X0117233Y0258729D03*
X0107233Y0258729D03*
X0107233Y0247729D03*
X0117233Y0247729D03*
X0127233Y0247729D03*
X0137233Y0247729D03*
X0147233Y0247729D03*
D11*
X0353702Y0266418D03*
X0353339Y0164233D03*
X0353505Y0051143D03*
D12*
X0364725Y0032245D03*
X0378111Y0051143D03*
X0364560Y0145335D03*
X0377946Y0164233D03*
X0364922Y0247520D03*
X0378308Y0266418D03*
D13*
X0217835Y0132284D03*
X0217835Y0122284D03*
D14*
X0244269Y0127206D03*
X0254269Y0127206D03*
X0254269Y0137206D03*
X0244269Y0137206D03*
X0264269Y0137206D03*
X0274269Y0137206D03*
X0274269Y0127206D03*
X0264269Y0127206D03*
X0284269Y0147206D03*
X0284269Y0157206D03*
X0274269Y0157206D03*
X0264269Y0157206D03*
X0254269Y0157206D03*
X0244269Y0157206D03*
X0234269Y0157206D03*
X0224269Y0157206D03*
X0214269Y0157206D03*
X0204269Y0157206D03*
X0194269Y0157206D03*
X0184269Y0157206D03*
X0174269Y0157206D03*
X0164269Y0157206D03*
X0154269Y0157206D03*
X0154269Y0147206D03*
X0154269Y0137206D03*
X0164269Y0137206D03*
X0174269Y0137206D03*
X0184269Y0137206D03*
X0184269Y0127206D03*
X0174269Y0127206D03*
X0164269Y0127206D03*
X0154269Y0127206D03*
X0154269Y0117206D03*
X0144269Y0127206D03*
X0134269Y0127206D03*
X0124269Y0127206D03*
X0124269Y0137206D03*
X0134269Y0137206D03*
X0144269Y0137206D03*
X0144269Y0157206D03*
X0134269Y0157206D03*
X0124269Y0157206D03*
X0114269Y0157206D03*
X0104269Y0157206D03*
X0104269Y0137206D03*
X0114269Y0137206D03*
X0114269Y0127206D03*
X0104269Y0127206D03*
X0104269Y0097206D03*
X0114269Y0097206D03*
X0124269Y0097206D03*
X0134269Y0097206D03*
X0144269Y0097206D03*
X0154269Y0097206D03*
X0164269Y0097206D03*
X0174269Y0097206D03*
X0184269Y0097206D03*
X0194269Y0097206D03*
X0204269Y0097206D03*
X0214269Y0097206D03*
X0224269Y0097206D03*
X0234269Y0097206D03*
X0244269Y0097206D03*
X0254269Y0097206D03*
X0264269Y0097206D03*
X0274269Y0097206D03*
X0284269Y0097206D03*
X0294269Y0097206D03*
X0304269Y0097206D03*
X0314269Y0097206D03*
X0324269Y0097206D03*
X0324269Y0147206D03*
X0324269Y0157206D03*
X0314269Y0157206D03*
X0304269Y0157206D03*
X0294269Y0157206D03*
X0294269Y0147206D03*
X0304269Y0147206D03*
X0334269Y0157206D03*
X0154269Y0107206D03*
D15*
X0334269Y0097206D03*
D16*
X0318387Y0192087D03*
X0308387Y0192087D03*
X0298387Y0192087D03*
X0279017Y0192087D03*
X0269017Y0192087D03*
X0259017Y0192087D03*
X0259017Y0212087D03*
X0269017Y0212087D03*
X0279017Y0212087D03*
X0298387Y0212087D03*
X0308387Y0212087D03*
X0318387Y0212087D03*
X0176654Y0212087D03*
X0166654Y0212087D03*
X0156654Y0212087D03*
X0137284Y0212087D03*
X0127284Y0212087D03*
X0117284Y0212087D03*
X0117284Y0192087D03*
X0127284Y0192087D03*
X0137284Y0192087D03*
X0156654Y0192087D03*
X0166654Y0192087D03*
X0176654Y0192087D03*
D17*
X0213292Y0016898D03*
X0223292Y0016898D03*
D18*
X0253292Y0016898D03*
X0283292Y0016898D03*
D19*
X0217410Y0044513D03*
X0217410Y0063017D03*
X0217410Y0081520D03*
D20*
X0078229Y0074135D03*
X0068229Y0074135D03*
X0058229Y0074135D03*
X0058229Y0188308D03*
X0068229Y0188308D03*
X0078229Y0188308D03*
X0357442Y0188308D03*
X0367442Y0188308D03*
X0377442Y0188308D03*
X0377442Y0078072D03*
X0367442Y0078072D03*
X0357442Y0078072D03*
D21*
X0348544Y0107599D03*
X0386339Y0107599D03*
X0386339Y0217835D03*
X0348544Y0217835D03*
X0087127Y0217835D03*
X0049332Y0217835D03*
X0049332Y0103662D03*
X0087127Y0103662D03*
D22*
X0084100Y0115300D02*
X0084100Y0129300D01*
X0080900Y0132100D02*
X0099300Y0132100D01*
X0104100Y0127300D01*
X0104269Y0127206D01*
X0104500Y0127300D01*
X0108500Y0127300D01*
X0112500Y0131300D01*
X0136100Y0131300D01*
X0140100Y0127300D01*
X0140100Y0125300D01*
X0142500Y0122900D01*
X0150100Y0122900D01*
X0154100Y0126900D01*
X0154269Y0127206D01*
X0154900Y0132500D02*
X0142500Y0132500D01*
X0138900Y0136100D01*
X0138900Y0139300D01*
X0136100Y0142100D01*
X0080900Y0142100D01*
X0058900Y0120100D01*
X0030500Y0120100D01*
X0004500Y0146100D01*
X0004500Y0218900D01*
X0033300Y0247700D01*
X0034500Y0247700D01*
X0034607Y0247808D01*
X0034607Y0258808D02*
X0034900Y0258900D01*
X0078900Y0302900D01*
X0161300Y0302900D01*
X0168900Y0295300D01*
X0168900Y0250500D01*
X0132500Y0214100D01*
X0132500Y0210900D01*
X0130900Y0209300D01*
X0130900Y0202100D01*
X0122500Y0193700D01*
X0122500Y0176500D01*
X0125700Y0173300D01*
X0136500Y0173300D01*
X0148100Y0161700D01*
X0155700Y0161700D01*
X0158500Y0158900D01*
X0158500Y0156500D01*
X0174100Y0140900D01*
X0174100Y0137300D01*
X0174269Y0137206D01*
X0168500Y0136900D02*
X0174100Y0131300D01*
X0174100Y0127300D01*
X0174269Y0127206D01*
X0178500Y0127300D02*
X0178500Y0116100D01*
X0170500Y0108100D01*
X0165300Y0108100D01*
X0158500Y0101300D01*
X0158500Y0086500D01*
X0116100Y0044100D01*
X0092500Y0044100D01*
X0087700Y0039300D01*
X0087379Y0038950D01*
X0097300Y0038900D02*
X0097379Y0038950D01*
X0097300Y0038900D02*
X0086300Y0027900D01*
X0091300Y0022900D01*
X0086300Y0027900D02*
X0067300Y0008900D01*
X0065700Y0008900D01*
X0065339Y0008670D01*
X0064900Y0008900D01*
X0060500Y0013300D01*
X0054900Y0013300D01*
X0042500Y0025700D01*
X0042500Y0042900D01*
X0058100Y0058500D01*
X0058100Y0074100D01*
X0058229Y0074135D01*
X0067300Y0094500D02*
X0008100Y0094500D01*
X0004900Y0091300D01*
X0004900Y0054900D01*
X0010100Y0049700D01*
X0010261Y0049654D01*
X0067379Y0038950D02*
X0067700Y0039300D01*
X0072500Y0044100D01*
X0072500Y0054900D01*
X0108900Y0091300D01*
X0108900Y0098500D01*
X0131700Y0121300D01*
X0174500Y0121300D01*
X0178500Y0127300D02*
X0184100Y0132900D01*
X0184100Y0136900D01*
X0184269Y0137206D01*
X0188500Y0130500D02*
X0188500Y0146500D01*
X0179700Y0155300D01*
X0179700Y0188900D01*
X0199700Y0208900D01*
X0199700Y0247700D01*
X0199961Y0247729D01*
X0204900Y0249700D02*
X0204900Y0245700D01*
X0207700Y0242900D01*
X0222100Y0242900D01*
X0226900Y0247700D01*
X0229700Y0247700D01*
X0229961Y0247729D01*
X0234500Y0252900D02*
X0224900Y0252900D01*
X0220100Y0248100D01*
X0219961Y0247729D01*
X0234500Y0252900D02*
X0273700Y0213700D01*
X0273700Y0210500D01*
X0272500Y0209300D01*
X0272500Y0199700D01*
X0273700Y0198500D01*
X0273700Y0190500D01*
X0269700Y0186500D01*
X0269700Y0154900D01*
X0273300Y0151300D01*
X0279700Y0153700D02*
X0279700Y0176100D01*
X0292100Y0188500D01*
X0292100Y0222900D01*
X0303300Y0234100D01*
X0303300Y0247700D01*
X0303387Y0247769D01*
X0308500Y0249700D02*
X0312500Y0253700D01*
X0315300Y0253700D01*
X0318500Y0256900D01*
X0318500Y0260500D01*
X0312100Y0266900D01*
X0208100Y0266900D01*
X0200100Y0258900D01*
X0199961Y0258729D01*
X0201300Y0253300D02*
X0187700Y0253300D01*
X0179700Y0261300D01*
X0179700Y0296900D01*
X0179331Y0296930D01*
X0180100Y0296900D01*
X0186500Y0303300D01*
X0200500Y0303300D01*
X0206900Y0296900D01*
X0221700Y0296900D01*
X0222206Y0296733D01*
X0222500Y0296100D01*
X0222500Y0283700D01*
X0228900Y0277300D01*
X0311700Y0277300D01*
X0328900Y0260100D01*
X0328900Y0254100D01*
X0330500Y0252500D01*
X0341300Y0252500D01*
X0341300Y0254900D01*
X0308100Y0288100D01*
X0308100Y0296500D01*
X0307954Y0296694D01*
X0302900Y0298500D02*
X0302900Y0285700D01*
X0305300Y0283300D01*
X0302900Y0298500D02*
X0307700Y0303300D01*
X0350100Y0303300D01*
X0355300Y0298100D01*
X0359700Y0298100D01*
X0359823Y0297961D01*
X0360100Y0297700D01*
X0360100Y0284500D01*
X0378100Y0266500D01*
X0378308Y0266418D01*
X0373700Y0258500D02*
X0363300Y0268900D01*
X0363300Y0278900D01*
X0348500Y0293700D01*
X0348500Y0297700D01*
X0348423Y0297961D01*
X0353702Y0266418D02*
X0354100Y0266100D01*
X0354100Y0229700D01*
X0362100Y0244500D02*
X0364900Y0247300D01*
X0364922Y0247520D01*
X0362100Y0244500D02*
X0362100Y0186100D01*
X0365300Y0182900D01*
X0371700Y0182900D01*
X0386900Y0167700D01*
X0386900Y0160900D01*
X0373900Y0147900D01*
X0377300Y0144500D01*
X0377300Y0116900D01*
X0362100Y0101700D01*
X0362100Y0076100D01*
X0365300Y0072900D01*
X0365300Y0046500D01*
X0364900Y0046100D01*
X0364900Y0032500D01*
X0364725Y0032245D01*
X0363700Y0047300D02*
X0363700Y0065300D01*
X0352500Y0076500D01*
X0352500Y0094500D01*
X0374500Y0116500D01*
X0374500Y0143300D01*
X0371700Y0145700D02*
X0373900Y0147900D01*
X0371700Y0145700D02*
X0364900Y0145700D01*
X0364560Y0145335D01*
X0354500Y0143700D02*
X0341300Y0130500D01*
X0341300Y0091700D01*
X0320500Y0070900D01*
X0320500Y0062100D01*
X0283300Y0024900D01*
X0283300Y0016900D01*
X0283292Y0016898D01*
X0267300Y0012900D02*
X0312900Y0058500D01*
X0293700Y0056900D02*
X0293700Y0054500D01*
X0291700Y0052500D01*
X0287700Y0052500D01*
X0274500Y0039300D01*
X0222900Y0039300D01*
X0217700Y0044500D01*
X0217410Y0044513D01*
X0222900Y0039300D02*
X0222900Y0016900D01*
X0223292Y0016898D01*
X0219300Y0016500D02*
X0222900Y0012900D01*
X0267300Y0012900D01*
X0258500Y0016900D02*
X0330100Y0088500D01*
X0330100Y0140900D01*
X0353300Y0164100D01*
X0353339Y0164233D01*
X0370900Y0164100D02*
X0334500Y0127700D01*
X0334500Y0097300D01*
X0334269Y0097206D01*
X0334100Y0096900D01*
X0334100Y0090100D01*
X0329300Y0085300D01*
X0329300Y0083700D01*
X0314269Y0097206D02*
X0314100Y0097300D01*
X0314100Y0131300D01*
X0298900Y0146500D01*
X0298900Y0191300D01*
X0298500Y0191700D01*
X0298387Y0192087D01*
X0293700Y0187700D02*
X0293700Y0222100D01*
X0308500Y0236900D01*
X0308500Y0249700D01*
X0313387Y0247769D02*
X0313700Y0247700D01*
X0324100Y0237300D01*
X0341300Y0252500D02*
X0341300Y0195700D01*
X0348500Y0188500D01*
X0348500Y0188100D01*
X0357300Y0188100D01*
X0357442Y0188308D01*
X0348500Y0188100D02*
X0317700Y0157300D01*
X0314500Y0157300D01*
X0314269Y0157206D01*
X0282500Y0172500D02*
X0282500Y0176500D01*
X0293700Y0187700D01*
X0289300Y0189700D02*
X0287300Y0191700D01*
X0279300Y0191700D01*
X0279017Y0192087D01*
X0259700Y0191300D02*
X0259300Y0191700D01*
X0259017Y0192087D01*
X0259700Y0191300D02*
X0259700Y0155300D01*
X0264100Y0150900D01*
X0264100Y0137300D01*
X0264269Y0137206D01*
X0262500Y0132900D02*
X0266100Y0132900D01*
X0270100Y0136900D01*
X0270100Y0144100D01*
X0279700Y0153700D01*
X0262500Y0132900D02*
X0258500Y0136900D01*
X0254500Y0136900D01*
X0254269Y0137206D01*
X0244500Y0137300D02*
X0244269Y0137206D01*
X0244500Y0137300D02*
X0244500Y0151300D01*
X0248500Y0155300D01*
X0248500Y0164500D01*
X0225700Y0187300D01*
X0200900Y0187300D01*
X0201300Y0176100D02*
X0188100Y0176100D01*
X0201300Y0176100D02*
X0207300Y0170100D01*
X0213700Y0170100D01*
X0194500Y0156900D02*
X0194269Y0157206D01*
X0194500Y0156900D02*
X0217700Y0133700D01*
X0217700Y0132500D01*
X0217835Y0132284D01*
X0215300Y0140100D02*
X0215300Y0151700D01*
X0236100Y0161300D02*
X0238500Y0158900D01*
X0238500Y0143700D01*
X0244269Y0157206D02*
X0244100Y0157300D01*
X0241300Y0160100D01*
X0241300Y0167700D01*
X0236100Y0162500D02*
X0236100Y0161300D01*
X0244100Y0175300D02*
X0256900Y0175300D01*
X0244100Y0175300D02*
X0206900Y0212500D01*
X0211300Y0212500D02*
X0252900Y0212500D01*
X0256900Y0216500D01*
X0264500Y0216500D01*
X0268900Y0212100D01*
X0269017Y0212087D01*
X0295700Y0238500D02*
X0288500Y0245700D01*
X0288500Y0253700D01*
X0283700Y0258500D01*
X0283387Y0258769D01*
X0255300Y0291300D02*
X0260900Y0296900D01*
X0260946Y0297284D01*
X0255300Y0291300D02*
X0230900Y0291300D01*
X0225700Y0296500D01*
X0222500Y0296500D01*
X0222206Y0296733D01*
X0171700Y0293300D02*
X0171700Y0250900D01*
X0143700Y0222900D01*
X0143700Y0192100D01*
X0139700Y0192100D02*
X0144500Y0187300D01*
X0162100Y0187300D01*
X0166500Y0191700D01*
X0166654Y0192087D01*
X0166900Y0192100D01*
X0176500Y0192100D01*
X0176654Y0192087D01*
X0173700Y0191700D01*
X0173700Y0165700D01*
X0169700Y0161700D01*
X0169700Y0153700D01*
X0158500Y0142900D02*
X0164100Y0137300D01*
X0164269Y0137206D01*
X0168500Y0136900D02*
X0168500Y0138900D01*
X0154500Y0152900D01*
X0152500Y0152900D01*
X0148500Y0156900D01*
X0148500Y0158900D01*
X0135700Y0171700D01*
X0124900Y0171700D01*
X0118100Y0178500D01*
X0118100Y0186500D01*
X0112500Y0181700D02*
X0112500Y0227300D01*
X0116900Y0231700D01*
X0116900Y0247700D01*
X0117233Y0247729D01*
X0112100Y0245700D02*
X0112100Y0253700D01*
X0116900Y0258500D01*
X0117233Y0258729D01*
X0119700Y0263300D02*
X0122100Y0260900D01*
X0122100Y0252900D01*
X0126900Y0248100D01*
X0127233Y0247729D01*
X0112100Y0245700D02*
X0110500Y0244100D01*
X0110500Y0238900D01*
X0101300Y0229700D01*
X0101300Y0192900D01*
X0101300Y0188900D02*
X0105700Y0193300D01*
X0105700Y0209700D01*
X0109700Y0208100D02*
X0109700Y0219300D01*
X0108900Y0220100D01*
X0098500Y0206500D02*
X0087700Y0195700D01*
X0087700Y0171700D01*
X0094500Y0169700D02*
X0078900Y0154100D01*
X0040500Y0154100D01*
X0034900Y0148500D01*
X0034607Y0148493D01*
X0039700Y0142500D02*
X0034900Y0137700D01*
X0034607Y0137493D01*
X0039700Y0142500D02*
X0065700Y0142500D01*
X0071300Y0148100D01*
X0113300Y0148100D01*
X0116900Y0154100D02*
X0122500Y0148500D01*
X0139300Y0148500D01*
X0124269Y0157206D02*
X0124100Y0157300D01*
X0124100Y0170100D01*
X0112500Y0181700D01*
X0101300Y0177700D02*
X0101300Y0188900D01*
X0094500Y0169700D02*
X0117700Y0169700D01*
X0130100Y0183700D02*
X0144900Y0183700D01*
X0161700Y0166900D01*
X0170900Y0166900D01*
X0139700Y0192100D02*
X0137700Y0192100D01*
X0137284Y0192087D01*
X0136900Y0192100D01*
X0127300Y0192100D01*
X0127284Y0192087D01*
X0166654Y0212087D02*
X0166900Y0212100D01*
X0171300Y0216500D01*
X0178500Y0216500D01*
X0185300Y0209700D01*
X0189300Y0209700D01*
X0204900Y0249700D02*
X0201300Y0253300D01*
X0166100Y0263700D02*
X0156900Y0272900D01*
X0147300Y0272900D01*
X0147300Y0258900D01*
X0147233Y0258729D01*
X0147300Y0272900D02*
X0147300Y0281700D01*
X0159300Y0293700D01*
X0159300Y0297300D01*
X0159595Y0297461D01*
X0139595Y0297461D02*
X0139300Y0297300D01*
X0139300Y0289300D01*
X0119700Y0269700D01*
X0119700Y0263300D01*
X0087300Y0248100D02*
X0064900Y0248100D01*
X0064607Y0247808D01*
X0064500Y0247700D01*
X0034500Y0217700D01*
X0027300Y0217700D01*
X0027300Y0203700D01*
X0027300Y0217700D02*
X0010100Y0217700D01*
X0010080Y0217324D01*
X0042100Y0213300D02*
X0042100Y0200500D01*
X0061300Y0176500D02*
X0010900Y0176500D01*
X0010100Y0177300D01*
X0010080Y0177324D01*
X0061700Y0137300D02*
X0047300Y0122900D01*
X0061700Y0137300D02*
X0064500Y0137300D01*
X0064607Y0137493D01*
X0094900Y0122100D02*
X0067300Y0094500D01*
X0090500Y0090500D02*
X0096900Y0084100D01*
X0096900Y0083300D01*
X0102900Y0081300D02*
X0145700Y0081300D01*
X0146900Y0078500D02*
X0140500Y0078500D01*
X0143700Y0075700D02*
X0103300Y0075700D01*
X0118900Y0092500D02*
X0126500Y0084900D01*
X0148100Y0084900D01*
X0154100Y0085700D02*
X0146900Y0078500D01*
X0154100Y0085700D02*
X0154100Y0096900D01*
X0154269Y0097206D01*
X0154500Y0101300D02*
X0128500Y0101300D01*
X0124500Y0097300D01*
X0124269Y0097206D01*
X0123700Y0091700D02*
X0127700Y0087700D01*
X0135300Y0087700D01*
X0118900Y0092500D02*
X0118900Y0103300D01*
X0110100Y0112100D02*
X0102900Y0119300D01*
X0094900Y0122100D02*
X0125300Y0122100D01*
X0130100Y0126900D01*
X0134100Y0126900D01*
X0134269Y0127206D01*
X0154900Y0132500D02*
X0160100Y0127300D01*
X0164100Y0127300D01*
X0164269Y0127206D01*
X0166900Y0113700D02*
X0154500Y0101300D01*
X0164269Y0097206D02*
X0164500Y0096900D01*
X0164500Y0057700D01*
X0171700Y0050500D01*
X0171887Y0050308D01*
X0167300Y0044900D02*
X0162100Y0050100D01*
X0161887Y0050308D01*
X0167300Y0044900D02*
X0184100Y0044900D01*
X0193300Y0035700D01*
X0201300Y0038500D02*
X0181300Y0058500D01*
X0160900Y0058500D02*
X0137700Y0058500D01*
X0111700Y0032500D01*
X0118100Y0050100D02*
X0097700Y0050100D01*
X0097379Y0049950D01*
X0118100Y0050100D02*
X0122100Y0054100D01*
X0139700Y0021700D02*
X0152900Y0008500D01*
X0153150Y0008394D01*
X0202100Y0048100D02*
X0178900Y0071300D01*
X0178900Y0078500D01*
X0186900Y0082900D02*
X0202900Y0066900D01*
X0202900Y0071300D02*
X0194100Y0080100D01*
X0217700Y0068500D02*
X0217700Y0063300D01*
X0217410Y0063017D01*
X0217700Y0068500D02*
X0227700Y0078500D01*
X0230900Y0078500D01*
X0232500Y0076900D01*
X0232500Y0074100D01*
X0254100Y0052500D01*
X0256500Y0052500D01*
X0259700Y0055700D01*
X0290900Y0055700D01*
X0293700Y0056900D02*
X0290100Y0060500D01*
X0290100Y0097300D01*
X0274500Y0112900D01*
X0274500Y0126900D01*
X0274269Y0127206D01*
X0264500Y0121300D02*
X0262900Y0122900D01*
X0259700Y0122900D01*
X0254900Y0118100D01*
X0214500Y0118100D01*
X0200900Y0131700D01*
X0196100Y0131700D01*
X0188500Y0130500D02*
X0204100Y0114900D01*
X0204100Y0097300D01*
X0204269Y0097206D01*
X0194269Y0097206D02*
X0194100Y0097300D01*
X0190100Y0097300D01*
X0182100Y0105300D01*
X0166500Y0105300D01*
X0166900Y0113700D02*
X0172100Y0113700D01*
X0116900Y0154100D02*
X0116900Y0154500D01*
X0114500Y0156900D01*
X0114269Y0157206D01*
X0054607Y0247808D02*
X0054900Y0248100D01*
X0059700Y0252900D01*
X0066500Y0252900D01*
X0067300Y0252100D01*
X0076900Y0252100D01*
X0077700Y0258900D02*
X0116500Y0297700D01*
X0116576Y0297855D01*
X0077700Y0258900D02*
X0064900Y0258900D01*
X0064607Y0258808D01*
X0260100Y0113700D02*
X0264500Y0118100D01*
X0264500Y0121300D01*
X0260100Y0113700D02*
X0260100Y0096900D01*
X0255300Y0092100D01*
X0255300Y0055300D01*
X0241300Y0047700D02*
X0229300Y0059700D01*
X0226100Y0056900D02*
X0230500Y0052500D01*
X0205700Y0048100D02*
X0202100Y0048100D01*
X0213292Y0016898D02*
X0213300Y0016500D01*
X0219300Y0016500D01*
X0253292Y0016898D02*
X0253300Y0016900D01*
X0258500Y0016900D01*
X0327300Y0023700D02*
X0328100Y0023700D01*
X0332900Y0028500D01*
X0344900Y0028500D01*
X0363700Y0047300D01*
X0370900Y0164100D02*
X0377700Y0164100D01*
X0377946Y0164233D01*
X0386900Y0200900D02*
X0386900Y0207300D01*
X0373700Y0220500D01*
X0373700Y0258500D01*
X0318387Y0192087D02*
X0318100Y0192100D01*
X0308500Y0192100D01*
X0308387Y0192087D01*
D23*
X0320500Y0179300D03*
X0342100Y0157700D03*
X0354500Y0143700D03*
X0374500Y0143300D03*
X0366100Y0112900D03*
X0329300Y0083700D03*
X0312900Y0058500D03*
X0324900Y0048900D03*
X0332900Y0028500D03*
X0327300Y0023700D03*
X0308500Y0023300D03*
X0291700Y0015300D03*
X0286900Y0008500D03*
X0241300Y0047700D03*
X0230500Y0052500D03*
X0226100Y0056900D03*
X0229300Y0059700D03*
X0229300Y0075300D03*
X0202900Y0071300D03*
X0202900Y0066900D03*
X0198100Y0066900D03*
X0193300Y0062100D03*
X0198900Y0056500D03*
X0203300Y0051700D03*
X0205700Y0048100D03*
X0201300Y0038500D03*
X0193300Y0035700D03*
X0179700Y0028100D03*
X0182100Y0017300D03*
X0156500Y0020900D03*
X0154100Y0032900D03*
X0138900Y0031700D03*
X0138900Y0026500D03*
X0139700Y0021700D03*
X0111700Y0032500D03*
X0091300Y0022900D03*
X0088100Y0018100D03*
X0045700Y0027300D03*
X0080100Y0057300D03*
X0096500Y0074100D03*
X0103300Y0075700D03*
X0102900Y0081300D03*
X0096900Y0083300D03*
X0090500Y0090500D03*
X0071700Y0086900D03*
X0084100Y0115300D03*
X0084100Y0129300D03*
X0080900Y0132100D03*
X0102900Y0119300D03*
X0110100Y0112100D03*
X0118900Y0103300D03*
X0123700Y0091700D03*
X0135300Y0087700D03*
X0140500Y0078500D03*
X0143700Y0075700D03*
X0145700Y0081300D03*
X0148100Y0084900D03*
X0149300Y0072500D03*
X0167700Y0072500D03*
X0178900Y0078500D03*
X0186900Y0082900D03*
X0194100Y0080100D03*
X0181300Y0058500D03*
X0160900Y0058500D03*
X0122100Y0054100D03*
X0109300Y0061300D03*
X0166500Y0105300D03*
X0172100Y0113700D03*
X0174500Y0121300D03*
X0196100Y0131700D03*
X0209300Y0118500D03*
X0215300Y0140100D03*
X0215300Y0151700D03*
X0197700Y0162100D03*
X0199700Y0172900D03*
X0188100Y0176100D03*
X0188100Y0180500D03*
X0200900Y0187300D03*
X0213700Y0170100D03*
X0236100Y0162500D03*
X0241300Y0167700D03*
X0256900Y0175300D03*
X0282500Y0172500D03*
X0289300Y0189700D03*
X0298900Y0222500D03*
X0292900Y0228500D03*
X0295700Y0238500D03*
X0324100Y0237300D03*
X0327700Y0246500D03*
X0332100Y0255700D03*
X0308900Y0271300D03*
X0305300Y0283300D03*
X0267700Y0254900D03*
X0259700Y0271300D03*
X0236100Y0288100D03*
X0225700Y0285300D03*
X0193700Y0275700D03*
X0165700Y0278500D03*
X0150500Y0278500D03*
X0150500Y0269700D03*
X0166100Y0263700D03*
X0165700Y0254500D03*
X0130900Y0269700D03*
X0122900Y0268100D03*
X0120900Y0278500D03*
X0087300Y0248100D03*
X0076900Y0252100D03*
X0102500Y0235700D03*
X0113700Y0241300D03*
X0115700Y0224500D03*
X0108900Y0220100D03*
X0104500Y0219700D03*
X0105700Y0209700D03*
X0109700Y0208100D03*
X0098500Y0206500D03*
X0084500Y0208900D03*
X0073700Y0211700D03*
X0067700Y0205700D03*
X0062900Y0206500D03*
X0042100Y0200500D03*
X0040900Y0191300D03*
X0027300Y0203700D03*
X0042100Y0213300D03*
X0076900Y0228100D03*
X0101300Y0192900D03*
X0108500Y0179300D03*
X0101300Y0177700D03*
X0102100Y0166500D03*
X0087700Y0171700D03*
X0084500Y0189300D03*
X0061300Y0176500D03*
X0054900Y0164900D03*
X0009700Y0145700D03*
X0047300Y0122900D03*
X0052500Y0123300D03*
X0113300Y0148100D03*
X0139300Y0148500D03*
X0147700Y0152500D03*
X0158500Y0142900D03*
X0169700Y0153700D03*
X0154900Y0164900D03*
X0170900Y0166900D03*
X0143700Y0192100D03*
X0130100Y0183700D03*
X0125700Y0182900D03*
X0128500Y0179300D03*
X0118100Y0186500D03*
X0117700Y0169700D03*
X0134100Y0222900D03*
X0139300Y0225700D03*
X0189300Y0209700D03*
X0206900Y0212500D03*
X0211300Y0212500D03*
X0202900Y0227700D03*
X0171700Y0293300D03*
X0354100Y0229700D03*
X0386900Y0200900D03*
X0273300Y0151300D03*
X0238500Y0143700D03*
X0253300Y0121300D03*
X0261300Y0119700D03*
X0279300Y0120100D03*
X0243300Y0114900D03*
X0242900Y0110100D03*
X0239300Y0100500D03*
X0290900Y0055700D03*
X0287700Y0052500D03*
X0255300Y0055300D03*
X0217700Y0021700D03*
D24*
X0212500Y0021700D01*
X0184100Y0050100D01*
X0182100Y0050100D01*
X0181887Y0050308D01*
X0181887Y0039308D02*
X0181700Y0039300D01*
X0175300Y0032900D01*
X0154100Y0032900D01*
X0141300Y0029300D02*
X0138900Y0031700D01*
X0141300Y0029300D02*
X0175700Y0029300D01*
X0178100Y0031700D01*
X0182100Y0031700D01*
X0203300Y0010500D01*
X0283700Y0010500D01*
X0288100Y0014900D01*
X0288100Y0017300D01*
X0322900Y0052100D01*
X0322900Y0068500D01*
X0366100Y0111700D01*
X0366100Y0112900D01*
X0377700Y0113700D02*
X0389300Y0125300D01*
X0389300Y0176500D01*
X0377700Y0188100D01*
X0377442Y0188308D01*
X0342100Y0157700D02*
X0336500Y0152100D01*
X0312500Y0152100D01*
X0307700Y0156900D01*
X0304500Y0156900D01*
X0304269Y0157206D01*
X0284269Y0157206D02*
X0284100Y0156900D01*
X0284100Y0154100D01*
X0279300Y0149300D01*
X0279300Y0120100D01*
X0261300Y0119700D02*
X0260100Y0119700D01*
X0244500Y0104100D01*
X0214100Y0104100D01*
X0209300Y0099300D01*
X0209300Y0095300D01*
X0200500Y0086500D01*
X0181700Y0086500D01*
X0167700Y0072500D01*
X0149300Y0072500D02*
X0148100Y0072500D01*
X0111700Y0036100D01*
X0110100Y0036100D01*
X0090100Y0016100D01*
X0088100Y0018100D01*
X0090100Y0016100D02*
X0090100Y0008500D01*
X0089820Y0008391D01*
X0099820Y0007391D02*
X0100100Y0007700D01*
X0100900Y0007700D01*
X0107300Y0014100D01*
X0135300Y0014100D01*
X0135300Y0051700D01*
X0139700Y0056100D01*
X0144100Y0056100D01*
X0149700Y0050500D01*
X0151700Y0050500D01*
X0151887Y0050308D01*
X0176900Y0026500D02*
X0178500Y0028100D01*
X0179700Y0028100D01*
X0176900Y0026500D02*
X0138900Y0026500D01*
X0136500Y0014100D02*
X0135300Y0014100D01*
X0136500Y0014100D02*
X0142900Y0007700D01*
X0143150Y0007394D01*
X0156500Y0020900D02*
X0183700Y0020900D01*
X0185700Y0018900D01*
X0185700Y0015700D01*
X0186100Y0015300D01*
X0194500Y0015300D01*
X0204900Y0004900D01*
X0350900Y0004900D01*
X0374100Y0028100D01*
X0374100Y0036500D01*
X0368500Y0042100D01*
X0368500Y0054900D01*
X0376900Y0063300D01*
X0376900Y0077700D01*
X0377442Y0078072D01*
X0377700Y0078100D01*
X0377700Y0113700D01*
X0353505Y0051143D02*
X0353300Y0050900D01*
X0349300Y0050900D01*
X0336100Y0037700D01*
X0324900Y0048900D01*
X0336100Y0037700D02*
X0321700Y0023300D01*
X0308500Y0023300D01*
X0291700Y0015300D02*
X0291700Y0014500D01*
X0286900Y0009700D01*
X0286900Y0008500D01*
X0229300Y0065300D02*
X0215700Y0051700D01*
X0203300Y0051700D01*
X0198900Y0056500D02*
X0212500Y0070100D01*
X0215700Y0070100D01*
X0239300Y0093700D01*
X0239300Y0100500D01*
X0242900Y0110100D02*
X0212500Y0110100D01*
X0192500Y0130100D01*
X0192500Y0146100D01*
X0189300Y0149300D01*
X0189300Y0159300D01*
X0199700Y0169700D01*
X0199700Y0172900D01*
X0208500Y0180500D02*
X0188100Y0180500D01*
X0184500Y0190100D02*
X0202900Y0208500D01*
X0202900Y0227700D01*
X0165700Y0254500D02*
X0150500Y0269700D01*
X0150500Y0278500D02*
X0165700Y0278500D01*
X0149300Y0287300D02*
X0137700Y0275700D01*
X0137700Y0259300D01*
X0137233Y0258729D01*
X0137300Y0258500D01*
X0137300Y0248500D01*
X0137233Y0247729D01*
X0137300Y0247700D01*
X0139300Y0245700D01*
X0139300Y0225700D01*
X0134100Y0222900D02*
X0117300Y0222900D01*
X0115700Y0224500D01*
X0113700Y0232100D02*
X0104500Y0222900D01*
X0104500Y0219700D01*
X0113700Y0232100D02*
X0113700Y0241300D01*
X0102500Y0235700D02*
X0093700Y0235700D01*
X0073700Y0215700D01*
X0073700Y0211700D01*
X0070100Y0208500D02*
X0071300Y0207300D01*
X0071300Y0191300D01*
X0068500Y0188500D01*
X0068229Y0188308D01*
X0078100Y0188100D02*
X0078229Y0188308D01*
X0078100Y0188100D02*
X0054900Y0164900D01*
X0054500Y0164500D01*
X0028500Y0164500D01*
X0009700Y0145700D01*
X0018900Y0143300D02*
X0024500Y0137700D01*
X0024607Y0137493D01*
X0018900Y0143300D02*
X0018900Y0150900D01*
X0024500Y0156500D01*
X0077700Y0156500D01*
X0093300Y0172100D01*
X0101300Y0172100D01*
X0108500Y0179300D01*
X0112100Y0166500D02*
X0102100Y0166500D01*
X0112100Y0166500D02*
X0119300Y0159300D01*
X0119300Y0155300D01*
X0122500Y0152100D01*
X0146100Y0152100D01*
X0146500Y0152500D01*
X0147700Y0152500D01*
X0137300Y0144500D02*
X0079700Y0144500D01*
X0058500Y0123300D01*
X0052500Y0123300D01*
X0091700Y0096900D02*
X0074500Y0079700D01*
X0031300Y0079700D01*
X0011300Y0059700D01*
X0011261Y0059654D01*
X0010261Y0069654D02*
X0010500Y0069700D01*
X0027700Y0086900D01*
X0071700Y0086900D01*
X0091700Y0096900D02*
X0104100Y0096900D01*
X0104269Y0097206D01*
X0096500Y0074100D02*
X0109300Y0061300D01*
X0087379Y0049950D02*
X0087300Y0050100D01*
X0080100Y0057300D01*
X0057379Y0038950D02*
X0057300Y0038900D01*
X0045700Y0027300D01*
X0173178Y0008434D02*
X0173300Y0008500D01*
X0182100Y0017300D01*
X0185700Y0015700D02*
X0183300Y0013300D01*
X0183300Y0007700D01*
X0183178Y0007434D01*
X0193300Y0062100D02*
X0198100Y0066900D01*
X0229300Y0065300D02*
X0229300Y0075300D01*
X0243300Y0114900D02*
X0212900Y0114900D01*
X0209300Y0118500D01*
X0229300Y0145300D02*
X0242500Y0132100D01*
X0246500Y0132100D01*
X0249300Y0129300D01*
X0249300Y0125300D01*
X0253300Y0121300D01*
X0229300Y0145300D02*
X0229300Y0159700D01*
X0208500Y0180500D01*
X0216500Y0162100D02*
X0197700Y0162100D01*
X0184500Y0157300D02*
X0184269Y0157206D01*
X0184500Y0157300D02*
X0184500Y0190100D01*
X0154900Y0164900D02*
X0148500Y0164900D01*
X0137700Y0175700D01*
X0126900Y0175700D01*
X0124900Y0177700D01*
X0124900Y0182100D01*
X0125700Y0182900D01*
X0128500Y0179300D02*
X0145700Y0179300D01*
X0164100Y0160900D01*
X0164100Y0157300D01*
X0164269Y0157206D01*
X0144100Y0137300D02*
X0141300Y0140100D01*
X0141300Y0140500D01*
X0137300Y0144500D01*
X0144100Y0137300D02*
X0144269Y0137206D01*
X0084500Y0189300D02*
X0084500Y0208900D01*
X0070100Y0208500D02*
X0070100Y0216100D01*
X0090900Y0236900D01*
X0090900Y0250500D01*
X0118900Y0278500D01*
X0120900Y0278500D01*
X0124500Y0269700D02*
X0122900Y0268100D01*
X0124500Y0269700D02*
X0130900Y0269700D01*
X0149300Y0287300D02*
X0149300Y0296100D01*
X0149595Y0296461D01*
X0190100Y0287700D02*
X0199300Y0296900D01*
X0199331Y0296930D01*
X0190100Y0287700D02*
X0190100Y0258900D01*
X0189961Y0258729D01*
X0194500Y0274900D02*
X0193700Y0275700D01*
X0194500Y0274900D02*
X0310500Y0274900D01*
X0320900Y0264500D01*
X0320900Y0258500D01*
X0331300Y0248100D01*
X0331300Y0197700D01*
X0320500Y0186900D01*
X0320500Y0179300D01*
X0314500Y0222500D02*
X0298900Y0222500D01*
X0292900Y0228500D02*
X0284500Y0228500D01*
X0264100Y0248900D01*
X0264100Y0256500D01*
X0266100Y0258500D01*
X0273300Y0258500D01*
X0273387Y0258769D01*
X0267700Y0254900D02*
X0273300Y0249300D01*
X0273300Y0248100D01*
X0273387Y0247769D01*
X0297700Y0264500D02*
X0303300Y0258900D01*
X0303387Y0258769D01*
X0297700Y0264500D02*
X0227700Y0264500D01*
X0222100Y0258900D01*
X0220100Y0258900D01*
X0219961Y0258729D01*
X0239300Y0279700D02*
X0312900Y0279700D01*
X0332100Y0260500D01*
X0332100Y0255700D01*
X0327700Y0246500D02*
X0327700Y0235700D01*
X0314500Y0222500D01*
X0308900Y0271300D02*
X0259700Y0271300D01*
X0239300Y0279700D02*
X0233700Y0285300D01*
X0225700Y0285300D01*
X0236100Y0288100D02*
X0268900Y0288100D01*
X0277700Y0296900D01*
X0280900Y0296900D01*
X0280946Y0297284D01*
X0270946Y0298284D02*
X0270900Y0298500D01*
X0266500Y0302900D01*
X0240500Y0302900D01*
X0235700Y0298100D01*
X0232500Y0298100D01*
X0232206Y0297733D01*
X0076900Y0228100D02*
X0048500Y0228100D01*
X0030900Y0210500D01*
X0030900Y0202100D01*
X0026500Y0197700D01*
X0010100Y0197700D01*
X0010080Y0197324D01*
X0011300Y0187700D02*
X0011080Y0187324D01*
X0011300Y0187700D02*
X0049700Y0187700D01*
X0067700Y0205700D01*
X0062900Y0206500D02*
X0056100Y0206500D01*
X0040900Y0191300D01*
X0216500Y0162100D02*
X0221300Y0157300D01*
X0224100Y0157300D01*
X0224269Y0157206D01*
M02*
