G75*
%MOIN*%
%OFA0B0*%
%FSLAX25Y25*%
%IPPOS*%
%LPD*%
%AMOC8*
5,1,8,0,0,1.08239X$1,22.5*
%
%ADD10C,0.02000*%
%ADD11C,0.00600*%
%ADD12C,0.00800*%
%ADD13C,0.00500*%
%ADD14C,0.00400*%
%ADD15R,0.05984X0.01930*%
D10*
X0167677Y0141711D02*
X0168444Y0140943D01*
X0169979Y0140943D01*
X0170746Y0141711D01*
X0169212Y0143245D02*
X0168444Y0143245D01*
X0167677Y0142478D01*
X0167677Y0141711D01*
X0168444Y0143245D02*
X0167677Y0144013D01*
X0167677Y0144780D01*
X0168444Y0145547D01*
X0169979Y0145547D01*
X0170746Y0144780D01*
X0173754Y0143245D02*
X0176824Y0143245D01*
X0179832Y0144013D02*
X0182901Y0140943D01*
X0179832Y0140943D01*
X0185909Y0144013D02*
X0187443Y0140943D01*
X0188978Y0144013D01*
X0182901Y0144780D02*
X0182133Y0145547D01*
X0180599Y0145547D01*
X0179832Y0144780D01*
X0179832Y0144013D01*
X0198063Y0140943D02*
X0201132Y0140943D01*
X0201132Y0145547D01*
X0204140Y0144780D02*
X0204908Y0145547D01*
X0206442Y0145547D01*
X0207210Y0144780D01*
X0207210Y0141711D01*
X0206442Y0140943D01*
X0204908Y0140943D01*
X0204140Y0141711D01*
X0204140Y0144780D01*
X0210217Y0145547D02*
X0210217Y0140943D01*
X0213287Y0140943D02*
X0213287Y0145547D01*
X0211752Y0144013D01*
X0210217Y0145547D01*
D11*
X0330208Y0144261D02*
X0331342Y0144261D01*
X0330775Y0144261D02*
X0330775Y0146529D01*
X0331342Y0146529D01*
X0330775Y0147664D02*
X0330775Y0148231D01*
X0332757Y0145962D02*
X0332757Y0144261D01*
X0332757Y0145962D02*
X0333324Y0146529D01*
X0335026Y0146529D01*
X0335026Y0144261D01*
X0336440Y0145395D02*
X0338709Y0145395D01*
X0338709Y0145962D02*
X0338142Y0146529D01*
X0337007Y0146529D01*
X0336440Y0145962D01*
X0336440Y0145395D01*
X0337007Y0144261D02*
X0338142Y0144261D01*
X0338709Y0144828D01*
X0338709Y0145962D01*
X0340123Y0145962D02*
X0340123Y0144261D01*
X0341258Y0144261D02*
X0341258Y0145962D01*
X0340690Y0146529D01*
X0340123Y0145962D01*
X0341258Y0145962D02*
X0341825Y0146529D01*
X0342392Y0146529D01*
X0342392Y0144261D01*
X0343806Y0144828D02*
X0343806Y0145962D01*
X0344374Y0146529D01*
X0345508Y0146529D01*
X0346075Y0145962D01*
X0346075Y0144828D01*
X0345508Y0144261D01*
X0344374Y0144261D01*
X0343806Y0144828D01*
X0344847Y0141664D02*
X0344847Y0138261D01*
X0346262Y0138828D02*
X0346262Y0139962D01*
X0347396Y0139962D01*
X0346262Y0138828D02*
X0346829Y0138261D01*
X0347963Y0138261D01*
X0348530Y0138828D01*
X0348530Y0141096D01*
X0347963Y0141664D01*
X0346829Y0141664D01*
X0346262Y0141096D01*
X0344847Y0139962D02*
X0342579Y0139962D01*
X0342579Y0138261D02*
X0342579Y0141664D01*
X0347490Y0144261D02*
X0347490Y0147664D01*
X0348624Y0146529D01*
X0349758Y0147664D01*
X0349758Y0144261D01*
X0350512Y0141664D02*
X0349945Y0141096D01*
X0349945Y0139962D01*
X0350512Y0139395D01*
X0352214Y0139395D01*
X0352214Y0138261D02*
X0352214Y0141664D01*
X0350512Y0141664D01*
X0354762Y0144261D02*
X0355897Y0144261D01*
X0355330Y0144261D02*
X0355330Y0146529D01*
X0355897Y0146529D01*
X0355330Y0147664D02*
X0355330Y0148231D01*
X0357785Y0147664D02*
X0357785Y0144261D01*
X0358352Y0144261D02*
X0357218Y0144261D01*
X0359767Y0144261D02*
X0359767Y0146529D01*
X0360901Y0147664D01*
X0362035Y0146529D01*
X0362035Y0144261D01*
X0362035Y0145962D02*
X0359767Y0145962D01*
X0358352Y0147664D02*
X0357785Y0147664D01*
X0367133Y0147664D02*
X0367133Y0147096D01*
X0369402Y0144828D01*
X0369402Y0144261D01*
X0370816Y0144261D02*
X0373085Y0144261D01*
X0371950Y0144261D02*
X0371950Y0147664D01*
X0373085Y0146529D01*
X0374499Y0147096D02*
X0376768Y0144828D01*
X0376201Y0144261D01*
X0375066Y0144261D01*
X0374499Y0144828D01*
X0374499Y0147096D01*
X0375066Y0147664D01*
X0376201Y0147664D01*
X0376768Y0147096D01*
X0376768Y0144828D01*
X0378182Y0144261D02*
X0380451Y0144261D01*
X0378182Y0146529D01*
X0378182Y0147096D01*
X0378750Y0147664D01*
X0379884Y0147664D01*
X0380451Y0147096D01*
X0380451Y0141664D02*
X0379317Y0140529D01*
X0378182Y0141664D01*
X0378182Y0138261D01*
X0376768Y0138828D02*
X0376201Y0139395D01*
X0374499Y0139395D01*
X0374499Y0139962D02*
X0374499Y0138261D01*
X0376201Y0138261D01*
X0376768Y0138828D01*
X0376201Y0140529D02*
X0375066Y0140529D01*
X0374499Y0139962D01*
X0373085Y0139962D02*
X0372518Y0140529D01*
X0370816Y0140529D01*
X0370816Y0141664D02*
X0370816Y0138261D01*
X0372518Y0138261D01*
X0373085Y0138828D01*
X0373085Y0139962D01*
X0369402Y0139962D02*
X0369402Y0138828D01*
X0368834Y0138261D01*
X0367700Y0138261D01*
X0367133Y0139395D02*
X0369402Y0139395D01*
X0369402Y0139962D02*
X0368834Y0140529D01*
X0367700Y0140529D01*
X0367133Y0139962D01*
X0367133Y0139395D01*
X0362035Y0140529D02*
X0361468Y0140529D01*
X0361468Y0138261D01*
X0362035Y0138261D02*
X0360901Y0138261D01*
X0359580Y0138261D02*
X0359580Y0140529D01*
X0357878Y0140529D01*
X0357311Y0139962D01*
X0357311Y0138261D01*
X0361468Y0141664D02*
X0361468Y0142231D01*
X0367133Y0147664D02*
X0369402Y0147664D01*
X0380451Y0141664D02*
X0380451Y0138261D01*
X0404843Y0190406D02*
X0405977Y0190406D01*
X0406544Y0190973D01*
X0404276Y0193242D01*
X0404276Y0190973D01*
X0404843Y0190406D01*
X0406544Y0190973D02*
X0406544Y0193242D01*
X0405977Y0193809D01*
X0404843Y0193809D01*
X0404276Y0193242D01*
X0409093Y0193809D02*
X0410228Y0192675D01*
X0409093Y0193809D02*
X0409093Y0190406D01*
X0407959Y0190406D02*
X0410228Y0190406D01*
X0412209Y0190973D02*
X0412209Y0193809D01*
X0412776Y0193809D02*
X0411642Y0193809D01*
X0412209Y0190973D02*
X0412776Y0190406D01*
X0413344Y0190406D01*
X0413911Y0190973D01*
X0081192Y0190851D02*
X0080625Y0190284D01*
X0079491Y0190284D01*
X0078923Y0190851D01*
X0078923Y0191419D01*
X0079491Y0191986D01*
X0080625Y0191986D01*
X0081192Y0192553D01*
X0081192Y0193120D01*
X0080625Y0193687D01*
X0079491Y0193687D01*
X0078923Y0193120D01*
X0077509Y0193687D02*
X0077509Y0190284D01*
X0075240Y0190284D01*
X0073826Y0190284D02*
X0073826Y0193687D01*
X0072124Y0193687D01*
X0071557Y0193120D01*
X0071557Y0191986D01*
X0072124Y0191419D01*
X0073826Y0191419D01*
X0072691Y0191419D02*
X0071557Y0190284D01*
X0070143Y0191419D02*
X0069008Y0190284D01*
X0067874Y0191419D01*
X0067874Y0193687D01*
X0066459Y0193120D02*
X0066459Y0190851D01*
X0065892Y0190284D01*
X0064758Y0190284D01*
X0064191Y0190851D01*
X0064191Y0193120D01*
X0064758Y0193687D01*
X0065892Y0193687D01*
X0066459Y0193120D01*
X0062776Y0193120D02*
X0062209Y0193687D01*
X0061075Y0193687D01*
X0060508Y0193120D01*
X0060508Y0192553D01*
X0062776Y0190284D01*
X0060508Y0190284D01*
X0056873Y0191151D02*
X0056306Y0190583D01*
X0055739Y0190583D01*
X0055172Y0191151D01*
X0055172Y0193986D01*
X0055739Y0193986D02*
X0054605Y0193986D01*
X0053190Y0193419D02*
X0052623Y0193986D01*
X0051489Y0193986D01*
X0050921Y0193419D01*
X0050921Y0192852D01*
X0053190Y0190583D01*
X0050921Y0190583D01*
X0044668Y0191174D02*
X0044101Y0190607D01*
X0042967Y0190607D01*
X0042400Y0191174D01*
X0042400Y0191741D01*
X0042967Y0192309D01*
X0044101Y0192309D01*
X0044668Y0192876D01*
X0044668Y0193443D01*
X0044101Y0194010D01*
X0042967Y0194010D01*
X0042400Y0193443D01*
X0040985Y0194010D02*
X0040985Y0190607D01*
X0038717Y0190607D01*
X0037302Y0190607D02*
X0037302Y0194010D01*
X0035601Y0194010D01*
X0035034Y0193443D01*
X0035034Y0192309D01*
X0035601Y0191741D01*
X0037302Y0191741D01*
X0036168Y0191741D02*
X0035034Y0190607D01*
X0033619Y0191741D02*
X0032485Y0190607D01*
X0031350Y0191741D01*
X0031350Y0194010D01*
X0029936Y0193443D02*
X0029936Y0191174D01*
X0029369Y0190607D01*
X0028234Y0190607D01*
X0027667Y0191174D01*
X0027667Y0193443D01*
X0028234Y0194010D01*
X0029369Y0194010D01*
X0029936Y0193443D01*
X0033619Y0194010D02*
X0033619Y0191741D01*
X0038717Y0194010D02*
X0040985Y0194010D01*
X0040985Y0192309D02*
X0039851Y0192309D01*
X0026253Y0192876D02*
X0025118Y0194010D01*
X0025118Y0190607D01*
X0023984Y0190607D02*
X0026253Y0190607D01*
X0022688Y0192123D02*
X0022121Y0191556D01*
X0021554Y0191556D01*
X0020987Y0192123D01*
X0020987Y0194959D01*
X0021554Y0194959D02*
X0020420Y0194959D01*
X0019005Y0193825D02*
X0017871Y0194959D01*
X0017871Y0191556D01*
X0019005Y0191556D02*
X0016736Y0191556D01*
X0070143Y0191419D02*
X0070143Y0193687D01*
X0075240Y0193687D02*
X0077509Y0193687D01*
X0077509Y0191986D02*
X0076375Y0191986D01*
D12*
X0027185Y0019602D02*
X0022185Y0019602D01*
X0034643Y0050010D02*
X0036778Y0050010D01*
X0035710Y0050010D02*
X0035710Y0053213D01*
X0036778Y0052145D01*
X0038326Y0052679D02*
X0038326Y0051612D01*
X0038860Y0051078D01*
X0040461Y0051078D01*
X0040461Y0050010D02*
X0040461Y0053213D01*
X0038860Y0053213D01*
X0038326Y0052679D01*
X0041849Y0053213D02*
X0042917Y0053213D01*
X0042383Y0053213D02*
X0042383Y0050010D01*
X0042917Y0050010D02*
X0041849Y0050010D01*
X0044465Y0050010D02*
X0045532Y0051078D01*
X0044998Y0051078D02*
X0046600Y0051078D01*
X0046600Y0050010D02*
X0046600Y0053213D01*
X0044998Y0053213D01*
X0044465Y0052679D01*
X0044465Y0051612D01*
X0044998Y0051078D01*
X0048148Y0053213D02*
X0050283Y0053213D01*
X0049215Y0053213D02*
X0049215Y0050010D01*
X0051831Y0050544D02*
X0052365Y0050010D01*
X0053432Y0050010D01*
X0053966Y0050544D01*
X0053432Y0051612D02*
X0052365Y0051612D01*
X0051831Y0051078D01*
X0051831Y0050544D01*
X0053432Y0051612D02*
X0053966Y0052145D01*
X0053966Y0052679D01*
X0053432Y0053213D01*
X0052365Y0053213D01*
X0051831Y0052679D01*
X0027185Y0078736D02*
X0022185Y0078736D01*
X0034643Y0109144D02*
X0036778Y0109144D01*
X0034643Y0111279D01*
X0034643Y0111813D01*
X0035177Y0112347D01*
X0036244Y0112347D01*
X0036778Y0111813D01*
X0038326Y0111813D02*
X0038326Y0110745D01*
X0038860Y0110212D01*
X0040461Y0110212D01*
X0040461Y0109144D02*
X0040461Y0112347D01*
X0038860Y0112347D01*
X0038326Y0111813D01*
X0041849Y0112347D02*
X0042917Y0112347D01*
X0042383Y0112347D02*
X0042383Y0109144D01*
X0042917Y0109144D02*
X0041849Y0109144D01*
X0044465Y0109144D02*
X0045532Y0110212D01*
X0044998Y0110212D02*
X0046600Y0110212D01*
X0046600Y0109144D02*
X0046600Y0112347D01*
X0044998Y0112347D01*
X0044465Y0111813D01*
X0044465Y0110745D01*
X0044998Y0110212D01*
X0048148Y0112347D02*
X0050283Y0112347D01*
X0049215Y0112347D02*
X0049215Y0109144D01*
X0051831Y0109678D02*
X0052365Y0109144D01*
X0053432Y0109144D01*
X0053966Y0109678D01*
X0053432Y0110745D02*
X0052365Y0110745D01*
X0051831Y0110212D01*
X0051831Y0109678D01*
X0053432Y0110745D02*
X0053966Y0111279D01*
X0053966Y0111813D01*
X0053432Y0112347D01*
X0052365Y0112347D01*
X0051831Y0111813D01*
X0027134Y0137713D02*
X0022134Y0137713D01*
X0029667Y0166994D02*
X0030735Y0166994D01*
X0031269Y0167528D01*
X0030735Y0168596D02*
X0029667Y0168596D01*
X0029133Y0168062D01*
X0029133Y0167528D01*
X0029667Y0166994D01*
X0030735Y0168596D02*
X0031269Y0169130D01*
X0031269Y0169663D01*
X0030735Y0170197D01*
X0029667Y0170197D01*
X0029133Y0169663D01*
X0032817Y0169663D02*
X0032817Y0168596D01*
X0033350Y0168062D01*
X0034952Y0168062D01*
X0034952Y0166994D02*
X0034952Y0170197D01*
X0033350Y0170197D01*
X0032817Y0169663D01*
X0033884Y0168062D02*
X0032817Y0166994D01*
X0036500Y0167528D02*
X0037034Y0166994D01*
X0038101Y0166994D01*
X0038635Y0167528D01*
X0038635Y0169663D01*
X0038101Y0170197D01*
X0037034Y0170197D01*
X0036500Y0169663D01*
X0036500Y0167528D01*
X0040183Y0170197D02*
X0042318Y0170197D01*
X0041250Y0170197D02*
X0041250Y0166994D01*
X0043866Y0166994D02*
X0043866Y0169130D01*
X0044934Y0170197D01*
X0046001Y0169130D01*
X0046001Y0166994D01*
X0046001Y0168596D02*
X0043866Y0168596D01*
X0047549Y0167528D02*
X0048083Y0166994D01*
X0049151Y0166994D01*
X0049684Y0167528D01*
X0049684Y0170197D01*
X0051232Y0170197D02*
X0053367Y0170197D01*
X0052300Y0170197D02*
X0052300Y0166994D01*
X0054915Y0167528D02*
X0055449Y0166994D01*
X0056517Y0166994D01*
X0057051Y0167528D01*
X0057051Y0169663D01*
X0056517Y0170197D01*
X0055449Y0170197D01*
X0054915Y0169663D01*
X0058599Y0169130D02*
X0058599Y0166994D01*
X0058599Y0168596D02*
X0060734Y0168596D01*
X0060734Y0169130D02*
X0060734Y0166994D01*
X0060734Y0169130D02*
X0059666Y0170197D01*
X0058599Y0169130D01*
X0047549Y0170197D02*
X0047549Y0167528D01*
X0043287Y0179331D02*
X0038287Y0179331D01*
X0035787Y0181831D01*
X0033287Y0179331D01*
X0028287Y0179331D01*
X0025787Y0181831D01*
X0023287Y0179331D01*
X0018287Y0179331D01*
X0015787Y0181831D01*
X0015787Y0186831D01*
X0018287Y0189331D01*
X0023287Y0189331D01*
X0025787Y0186831D01*
X0028287Y0189331D01*
X0033287Y0189331D01*
X0035787Y0186831D01*
X0038287Y0189331D01*
X0043287Y0189331D01*
X0045787Y0186831D01*
X0045787Y0181831D01*
X0043287Y0179331D01*
X0050984Y0181752D02*
X0050984Y0186752D01*
X0053484Y0189252D01*
X0058484Y0189252D01*
X0060984Y0186752D01*
X0063484Y0189252D01*
X0068484Y0189252D01*
X0070984Y0186752D01*
X0073484Y0189252D01*
X0078484Y0189252D01*
X0080984Y0186752D01*
X0080984Y0181752D01*
X0078484Y0179252D01*
X0073484Y0179252D01*
X0070984Y0181752D01*
X0068484Y0179252D01*
X0063484Y0179252D01*
X0060984Y0181752D01*
X0058484Y0179252D01*
X0053484Y0179252D01*
X0050984Y0181752D01*
X0090236Y0181681D02*
X0092736Y0179181D01*
X0097736Y0179181D01*
X0100236Y0181681D01*
X0102736Y0179181D01*
X0107736Y0179181D01*
X0110236Y0181681D01*
X0112736Y0179181D01*
X0117736Y0179181D01*
X0120236Y0181681D01*
X0122736Y0179181D01*
X0127736Y0179181D01*
X0130236Y0181681D01*
X0132736Y0179181D01*
X0137736Y0179181D01*
X0140236Y0181681D01*
X0140236Y0186681D01*
X0137736Y0189181D01*
X0132736Y0189181D01*
X0130236Y0186681D01*
X0127736Y0189181D01*
X0122736Y0189181D01*
X0120236Y0186681D01*
X0117736Y0189181D01*
X0112736Y0189181D01*
X0110236Y0186681D01*
X0107736Y0189181D01*
X0102736Y0189181D01*
X0100236Y0186681D01*
X0097736Y0189181D01*
X0092736Y0189181D01*
X0090236Y0186681D01*
X0090236Y0181681D01*
X0091683Y0191270D02*
X0093818Y0191270D01*
X0091683Y0193405D01*
X0091683Y0193939D01*
X0092217Y0194473D01*
X0093284Y0194473D01*
X0093818Y0193939D01*
X0095366Y0193939D02*
X0095366Y0194473D01*
X0095366Y0193939D02*
X0096434Y0192871D01*
X0096434Y0191270D01*
X0096434Y0192871D02*
X0097501Y0193939D01*
X0097501Y0194473D01*
X0099049Y0193939D02*
X0099583Y0194473D01*
X0100651Y0194473D01*
X0101184Y0193939D01*
X0101184Y0191804D01*
X0100651Y0191270D01*
X0099583Y0191270D01*
X0099049Y0191804D01*
X0099049Y0193939D01*
X0102732Y0194473D02*
X0103800Y0194473D01*
X0103266Y0194473D02*
X0103266Y0191804D01*
X0103800Y0191270D01*
X0104334Y0191270D01*
X0104868Y0191804D01*
X0127882Y0191817D02*
X0130017Y0191817D01*
X0128950Y0191817D02*
X0128950Y0195020D01*
X0130017Y0193952D01*
X0131565Y0191817D02*
X0133700Y0191817D01*
X0132633Y0191817D02*
X0132633Y0195020D01*
X0133700Y0193952D01*
X0135248Y0195020D02*
X0136316Y0195020D01*
X0135782Y0195020D02*
X0135782Y0192351D01*
X0136316Y0191817D01*
X0136850Y0191817D01*
X0137383Y0192351D01*
X0291457Y0185165D02*
X0293425Y0185165D01*
X0306417Y0185165D01*
X0293425Y0185165D02*
X0293425Y0146268D01*
X0306417Y0146268D01*
X0293425Y0146268D02*
X0291457Y0146268D01*
X0401260Y0181760D02*
X0401260Y0186760D01*
X0403760Y0189260D01*
X0408760Y0189260D01*
X0411260Y0186760D01*
X0413760Y0189260D01*
X0418760Y0189260D01*
X0421260Y0186760D01*
X0423760Y0189260D01*
X0428760Y0189260D01*
X0431260Y0186760D01*
X0433760Y0189260D01*
X0438760Y0189260D01*
X0441260Y0186760D01*
X0443760Y0189260D01*
X0448760Y0189260D01*
X0451260Y0186760D01*
X0451260Y0181760D01*
X0448760Y0179260D01*
X0443760Y0179260D01*
X0441260Y0181760D01*
X0438760Y0179260D01*
X0433760Y0179260D01*
X0431260Y0181760D01*
X0428760Y0179260D01*
X0423760Y0179260D01*
X0421260Y0181760D01*
X0418760Y0179260D01*
X0413760Y0179260D01*
X0411260Y0181760D01*
X0408760Y0179260D01*
X0403760Y0179260D01*
X0401260Y0181760D01*
X0436860Y0190431D02*
X0438995Y0190431D01*
X0437928Y0190431D02*
X0437928Y0193634D01*
X0438995Y0192567D01*
X0440543Y0193100D02*
X0440543Y0193634D01*
X0440543Y0193100D02*
X0441611Y0192033D01*
X0441611Y0190431D01*
X0441611Y0192033D02*
X0442679Y0193100D01*
X0442679Y0193634D01*
X0444227Y0193100D02*
X0444760Y0193634D01*
X0445828Y0193634D01*
X0446362Y0193100D01*
X0446362Y0190965D01*
X0445828Y0190431D01*
X0444760Y0190431D01*
X0444227Y0190965D01*
X0444227Y0193100D01*
X0447910Y0193634D02*
X0448977Y0193634D01*
X0448443Y0193634D02*
X0448443Y0190965D01*
X0448977Y0190431D01*
X0449511Y0190431D01*
X0450045Y0190965D01*
X0462295Y0186839D02*
X0462295Y0181839D01*
X0464795Y0179339D01*
X0462295Y0176839D01*
X0462295Y0171839D01*
X0464795Y0169339D01*
X0462295Y0166839D01*
X0462295Y0161839D01*
X0464795Y0159339D01*
X0469795Y0159339D01*
X0472295Y0161839D01*
X0472295Y0166839D01*
X0469795Y0169339D01*
X0472295Y0171839D01*
X0472295Y0176839D01*
X0469795Y0179339D01*
X0472295Y0181839D01*
X0472295Y0186839D01*
X0469795Y0189339D01*
X0464795Y0189339D01*
X0462295Y0186839D01*
X0472295Y0186602D02*
X0472295Y0181602D01*
X0474795Y0179102D01*
X0472295Y0176602D01*
X0472295Y0171602D01*
X0474795Y0169102D01*
X0472295Y0166602D01*
X0472295Y0161602D01*
X0474795Y0159102D01*
X0479795Y0159102D01*
X0482295Y0161602D01*
X0482295Y0166602D01*
X0479795Y0169102D01*
X0482295Y0171602D01*
X0482295Y0176602D01*
X0479795Y0179102D01*
X0482295Y0181602D01*
X0482295Y0186602D01*
X0479795Y0189102D01*
X0474795Y0189102D01*
X0472295Y0186602D01*
X0490994Y0192890D02*
X0490994Y0193424D01*
X0491528Y0193958D01*
X0493130Y0193958D01*
X0493130Y0192890D01*
X0492596Y0192357D01*
X0491528Y0192357D01*
X0490994Y0192890D01*
X0492062Y0195026D02*
X0493130Y0193958D01*
X0492062Y0195026D02*
X0490994Y0195559D01*
X0494678Y0195026D02*
X0494678Y0193958D01*
X0495211Y0193424D01*
X0496813Y0193424D01*
X0496813Y0192357D02*
X0496813Y0195559D01*
X0495211Y0195559D01*
X0494678Y0195026D01*
X0498201Y0195559D02*
X0499268Y0195559D01*
X0498734Y0195559D02*
X0498734Y0192357D01*
X0498201Y0192357D02*
X0499268Y0192357D01*
X0500816Y0192357D02*
X0501884Y0193424D01*
X0501350Y0193424D02*
X0502951Y0193424D01*
X0502951Y0192357D02*
X0502951Y0195559D01*
X0501350Y0195559D01*
X0500816Y0195026D01*
X0500816Y0193958D01*
X0501350Y0193424D01*
X0504499Y0195559D02*
X0506634Y0195559D01*
X0505567Y0195559D02*
X0505567Y0192357D01*
X0508182Y0192890D02*
X0508716Y0192357D01*
X0509784Y0192357D01*
X0510318Y0192890D01*
X0509784Y0193958D02*
X0508716Y0193958D01*
X0508182Y0193424D01*
X0508182Y0192890D01*
X0509784Y0193958D02*
X0510318Y0194492D01*
X0510318Y0195026D01*
X0509784Y0195559D01*
X0508716Y0195559D01*
X0508182Y0195026D01*
X0577047Y0194417D02*
X0577047Y0186937D01*
X0577047Y0194417D02*
X0619961Y0194417D01*
X0619961Y0158984D01*
X0599882Y0158984D01*
X0581378Y0158984D02*
X0577047Y0158984D01*
X0577047Y0167252D01*
X0511437Y0161335D02*
X0506437Y0161335D01*
X0603976Y0143374D02*
X0603976Y0138374D01*
X0606476Y0135874D01*
X0603976Y0133374D01*
X0603976Y0128374D01*
X0606476Y0125874D01*
X0611476Y0125874D01*
X0613976Y0128374D01*
X0613976Y0133374D01*
X0611476Y0135874D01*
X0613976Y0138374D01*
X0613976Y0143374D01*
X0611476Y0145874D01*
X0606476Y0145874D01*
X0603976Y0143374D01*
X0509675Y0130356D02*
X0509675Y0129823D01*
X0509141Y0129289D01*
X0508073Y0129289D01*
X0507540Y0128755D01*
X0507540Y0128221D01*
X0508073Y0127687D01*
X0509141Y0127687D01*
X0509675Y0128221D01*
X0509675Y0130356D02*
X0509141Y0130890D01*
X0508073Y0130890D01*
X0507540Y0130356D01*
X0505992Y0130890D02*
X0503856Y0130890D01*
X0504924Y0130890D02*
X0504924Y0127687D01*
X0502308Y0127687D02*
X0502308Y0130890D01*
X0500707Y0130890D01*
X0500173Y0130356D01*
X0500173Y0129289D01*
X0500707Y0128755D01*
X0502308Y0128755D01*
X0501241Y0128755D02*
X0500173Y0127687D01*
X0498625Y0127687D02*
X0497558Y0127687D01*
X0498091Y0127687D02*
X0498091Y0130890D01*
X0497558Y0130890D02*
X0498625Y0130890D01*
X0496170Y0130890D02*
X0496170Y0127687D01*
X0496170Y0128755D02*
X0494568Y0128755D01*
X0494035Y0129289D01*
X0494035Y0130356D01*
X0494568Y0130890D01*
X0496170Y0130890D01*
X0492487Y0130890D02*
X0492487Y0129289D01*
X0491419Y0129823D01*
X0490885Y0129823D01*
X0490352Y0129289D01*
X0490352Y0128221D01*
X0490885Y0127687D01*
X0491953Y0127687D01*
X0492487Y0128221D01*
X0492487Y0130890D02*
X0490352Y0130890D01*
X0482650Y0121681D02*
X0480150Y0124181D01*
X0475150Y0124181D01*
X0472650Y0121681D01*
X0472650Y0116681D01*
X0475150Y0114181D01*
X0472650Y0111681D01*
X0472650Y0106681D01*
X0475150Y0104181D01*
X0472650Y0101681D01*
X0472650Y0096681D01*
X0475150Y0094181D01*
X0480150Y0094181D01*
X0482650Y0096681D01*
X0482650Y0101681D01*
X0480150Y0104181D01*
X0482650Y0106681D01*
X0482650Y0111681D01*
X0480150Y0114181D01*
X0482650Y0116681D01*
X0482650Y0121681D01*
X0472610Y0122035D02*
X0470110Y0124535D01*
X0465110Y0124535D01*
X0462610Y0122035D01*
X0462610Y0117035D01*
X0465110Y0114535D01*
X0462610Y0112035D01*
X0462610Y0107035D01*
X0465110Y0104535D01*
X0462610Y0102035D01*
X0462610Y0097035D01*
X0465110Y0094535D01*
X0470110Y0094535D01*
X0472610Y0097035D01*
X0472610Y0102035D01*
X0470110Y0104535D01*
X0472610Y0107035D01*
X0472610Y0112035D01*
X0470110Y0114535D01*
X0472610Y0117035D01*
X0472610Y0122035D01*
X0506122Y0096059D02*
X0511122Y0096059D01*
X0518891Y0083273D02*
X0521694Y0083273D01*
X0521694Y0079069D01*
X0523495Y0079069D02*
X0523495Y0081872D01*
X0521694Y0081171D02*
X0520292Y0081171D01*
X0523495Y0079069D02*
X0525597Y0079069D01*
X0526298Y0079770D01*
X0526298Y0081872D01*
X0528099Y0082572D02*
X0530902Y0079770D01*
X0530201Y0079069D01*
X0528800Y0079069D01*
X0528099Y0079770D01*
X0528099Y0082572D01*
X0528800Y0083273D01*
X0530201Y0083273D01*
X0530902Y0082572D01*
X0530902Y0079770D01*
X0532703Y0079069D02*
X0535505Y0079069D01*
X0534104Y0079069D02*
X0534104Y0083273D01*
X0535505Y0081872D01*
X0554910Y0076786D02*
X0557713Y0076786D01*
X0556311Y0076786D02*
X0556311Y0080989D01*
X0557713Y0079588D01*
X0559514Y0080289D02*
X0560215Y0080989D01*
X0561616Y0080989D01*
X0562316Y0080289D01*
X0562316Y0077486D01*
X0561616Y0076786D01*
X0560215Y0076786D01*
X0559514Y0077486D01*
X0577803Y0075102D02*
X0577803Y0083370D01*
X0577803Y0075102D02*
X0582134Y0075102D01*
X0565309Y0069533D02*
X0563207Y0069533D01*
X0562506Y0068832D01*
X0562506Y0067431D01*
X0563207Y0066730D01*
X0565309Y0066730D01*
X0565309Y0065329D02*
X0565309Y0069533D01*
X0563907Y0066730D02*
X0562506Y0065329D01*
X0560705Y0066030D02*
X0560004Y0065329D01*
X0558603Y0065329D01*
X0557902Y0066030D01*
X0557902Y0066730D01*
X0558603Y0067431D01*
X0559303Y0067431D01*
X0558603Y0067431D02*
X0557902Y0068132D01*
X0557902Y0068832D01*
X0558603Y0069533D01*
X0560004Y0069533D01*
X0560705Y0068832D01*
X0538813Y0069147D02*
X0538112Y0069848D01*
X0536711Y0069848D01*
X0536010Y0069147D01*
X0536010Y0068446D01*
X0536711Y0067746D01*
X0536010Y0067045D01*
X0536010Y0066345D01*
X0536711Y0065644D01*
X0538112Y0065644D01*
X0538813Y0066345D01*
X0537411Y0067746D02*
X0536711Y0067746D01*
X0534209Y0066345D02*
X0533508Y0066345D01*
X0533508Y0065644D01*
X0534209Y0065644D01*
X0534209Y0066345D01*
X0531907Y0066345D02*
X0531206Y0065644D01*
X0529805Y0065644D01*
X0529104Y0066345D01*
X0529104Y0067045D01*
X0529805Y0067746D01*
X0530505Y0067746D01*
X0529805Y0067746D02*
X0529104Y0068446D01*
X0529104Y0069147D01*
X0529805Y0069848D01*
X0531206Y0069848D01*
X0531907Y0069147D01*
X0527303Y0069848D02*
X0527303Y0065644D01*
X0527303Y0067045D02*
X0524500Y0069848D01*
X0526602Y0067746D02*
X0524500Y0065644D01*
X0514331Y0058669D02*
X0514331Y0079142D01*
X0511575Y0079142D01*
X0511575Y0058669D01*
X0514331Y0058669D01*
X0511575Y0058669D02*
X0493622Y0058669D01*
X0493622Y0079142D01*
X0511575Y0079142D01*
X0525338Y0056501D02*
X0528141Y0053699D01*
X0527440Y0054399D02*
X0525338Y0052298D01*
X0528141Y0052298D02*
X0528141Y0056501D01*
X0529942Y0055801D02*
X0530643Y0056501D01*
X0532044Y0056501D01*
X0532745Y0055801D01*
X0529942Y0055801D02*
X0529942Y0055100D01*
X0532745Y0052298D01*
X0529942Y0052298D01*
X0534346Y0052298D02*
X0535047Y0052298D01*
X0535047Y0052998D01*
X0534346Y0052998D01*
X0534346Y0052298D01*
X0536848Y0052298D02*
X0539651Y0052298D01*
X0536848Y0055100D01*
X0536848Y0055801D01*
X0537549Y0056501D01*
X0538950Y0056501D01*
X0539651Y0055801D01*
X0558488Y0055643D02*
X0559189Y0056344D01*
X0560590Y0056344D01*
X0561290Y0055643D01*
X0563092Y0055643D02*
X0563793Y0056344D01*
X0565894Y0056344D01*
X0565894Y0052140D01*
X0565894Y0053541D02*
X0563793Y0053541D01*
X0563092Y0054242D01*
X0563092Y0055643D01*
X0564493Y0053541D02*
X0563092Y0052140D01*
X0561290Y0052140D02*
X0558488Y0054943D01*
X0558488Y0055643D01*
X0558488Y0052140D02*
X0561290Y0052140D01*
X0577953Y0052606D02*
X0577953Y0045126D01*
X0577953Y0052606D02*
X0620866Y0052606D01*
X0620866Y0017173D01*
X0600787Y0017173D01*
X0582283Y0017173D02*
X0577953Y0017173D01*
X0577953Y0025441D01*
X0511398Y0015626D02*
X0506398Y0015626D01*
X0482480Y0014752D02*
X0479980Y0012252D01*
X0474980Y0012252D01*
X0472480Y0014752D01*
X0472480Y0019752D01*
X0474980Y0022252D01*
X0472480Y0024752D01*
X0472480Y0029752D01*
X0474980Y0032252D01*
X0472480Y0034752D01*
X0472480Y0039752D01*
X0474980Y0042252D01*
X0479980Y0042252D01*
X0482480Y0039752D01*
X0482480Y0034752D01*
X0479980Y0032252D01*
X0482480Y0029752D01*
X0482480Y0024752D01*
X0479980Y0022252D01*
X0482480Y0019752D01*
X0482480Y0014752D01*
X0472323Y0014870D02*
X0472323Y0019870D01*
X0469823Y0022370D01*
X0472323Y0024870D01*
X0472323Y0029870D01*
X0469823Y0032370D01*
X0472323Y0034870D01*
X0472323Y0039870D01*
X0469823Y0042370D01*
X0464823Y0042370D01*
X0462323Y0039870D01*
X0462323Y0034870D01*
X0464823Y0032370D01*
X0462323Y0029870D01*
X0462323Y0024870D01*
X0464823Y0022370D01*
X0462323Y0019870D01*
X0462323Y0014870D01*
X0464823Y0012370D01*
X0469823Y0012370D01*
X0472323Y0014870D01*
X0491843Y0046727D02*
X0491843Y0049930D01*
X0493444Y0048328D01*
X0491309Y0048328D01*
X0494992Y0048328D02*
X0495526Y0047794D01*
X0497128Y0047794D01*
X0497128Y0046727D02*
X0497128Y0049930D01*
X0495526Y0049930D01*
X0494992Y0049396D01*
X0494992Y0048328D01*
X0498515Y0046727D02*
X0499583Y0046727D01*
X0499049Y0046727D02*
X0499049Y0049930D01*
X0499583Y0049930D02*
X0498515Y0049930D01*
X0501131Y0049396D02*
X0501665Y0049930D01*
X0503266Y0049930D01*
X0503266Y0046727D01*
X0503266Y0047794D02*
X0501665Y0047794D01*
X0501131Y0048328D01*
X0501131Y0049396D01*
X0502199Y0047794D02*
X0501131Y0046727D01*
X0505882Y0046727D02*
X0505882Y0049930D01*
X0506949Y0049930D02*
X0504814Y0049930D01*
X0508497Y0049396D02*
X0509031Y0049930D01*
X0510099Y0049930D01*
X0510632Y0049396D01*
X0510632Y0048862D01*
X0510099Y0048328D01*
X0509031Y0048328D01*
X0508497Y0047794D01*
X0508497Y0047261D01*
X0509031Y0046727D01*
X0510099Y0046727D01*
X0510632Y0047261D01*
X0600638Y0075102D02*
X0620716Y0075102D01*
X0620716Y0110535D01*
X0577803Y0110535D01*
X0577803Y0103055D01*
X0444285Y0086934D02*
X0444285Y0082731D01*
X0444285Y0084132D02*
X0442183Y0084132D01*
X0441483Y0084833D01*
X0441483Y0086234D01*
X0442183Y0086934D01*
X0444285Y0086934D01*
X0442884Y0084132D02*
X0441483Y0082731D01*
X0439681Y0082731D02*
X0436879Y0082731D01*
X0438280Y0082731D02*
X0438280Y0086934D01*
X0439681Y0085533D01*
X0418498Y0085997D02*
X0417797Y0086698D01*
X0416396Y0086698D01*
X0415695Y0085997D01*
X0415695Y0085297D01*
X0416396Y0084596D01*
X0415695Y0083896D01*
X0415695Y0083195D01*
X0416396Y0082494D01*
X0417797Y0082494D01*
X0418498Y0083195D01*
X0417096Y0084596D02*
X0416396Y0084596D01*
X0413894Y0083195D02*
X0413193Y0082494D01*
X0411792Y0082494D01*
X0411091Y0083195D01*
X0411091Y0083896D01*
X0411792Y0084596D01*
X0412492Y0084596D01*
X0411792Y0084596D02*
X0411091Y0085297D01*
X0411091Y0085997D01*
X0411792Y0086698D01*
X0413193Y0086698D01*
X0413894Y0085997D01*
X0409290Y0085997D02*
X0408589Y0086698D01*
X0407188Y0086698D01*
X0406487Y0085997D01*
X0409290Y0083195D01*
X0408589Y0082494D01*
X0407188Y0082494D01*
X0406487Y0083195D01*
X0406487Y0085997D01*
X0409290Y0085997D02*
X0409290Y0083195D01*
X0319764Y0052291D02*
X0317795Y0052291D01*
X0317795Y0013394D01*
X0319764Y0013394D01*
X0317795Y0013394D02*
X0304803Y0013394D01*
X0200374Y0019602D02*
X0195374Y0019602D01*
X0168701Y0018453D02*
X0166201Y0015953D01*
X0161201Y0015953D01*
X0158701Y0018453D01*
X0158701Y0023453D01*
X0161201Y0025953D01*
X0158701Y0028453D01*
X0158701Y0033453D01*
X0161201Y0035953D01*
X0158701Y0038453D01*
X0158701Y0043453D01*
X0161201Y0045953D01*
X0166201Y0045953D01*
X0168701Y0043453D01*
X0168701Y0038453D01*
X0166201Y0035953D01*
X0168701Y0033453D01*
X0168701Y0028453D01*
X0166201Y0025953D01*
X0168701Y0023453D01*
X0168701Y0018453D01*
X0158661Y0018098D02*
X0156161Y0015598D01*
X0151161Y0015598D01*
X0148661Y0018098D01*
X0148661Y0023098D01*
X0151161Y0025598D01*
X0148661Y0028098D01*
X0148661Y0033098D01*
X0151161Y0035598D01*
X0148661Y0038098D01*
X0148661Y0043098D01*
X0151161Y0045598D01*
X0156161Y0045598D01*
X0158661Y0043098D01*
X0158661Y0038098D01*
X0156161Y0035598D01*
X0158661Y0033098D01*
X0158661Y0028098D01*
X0156161Y0025598D01*
X0158661Y0023098D01*
X0158661Y0018098D01*
X0207832Y0050544D02*
X0208366Y0050010D01*
X0209433Y0050010D01*
X0209967Y0050544D01*
X0208899Y0051612D02*
X0208366Y0051612D01*
X0207832Y0051078D01*
X0207832Y0050544D01*
X0208366Y0051612D02*
X0207832Y0052145D01*
X0207832Y0052679D01*
X0208366Y0053213D01*
X0209433Y0053213D01*
X0209967Y0052679D01*
X0211515Y0052679D02*
X0211515Y0051612D01*
X0212049Y0051078D01*
X0213650Y0051078D01*
X0213650Y0050010D02*
X0213650Y0053213D01*
X0212049Y0053213D01*
X0211515Y0052679D01*
X0215038Y0053213D02*
X0216106Y0053213D01*
X0215572Y0053213D02*
X0215572Y0050010D01*
X0216106Y0050010D02*
X0215038Y0050010D01*
X0217654Y0050010D02*
X0218721Y0051078D01*
X0218187Y0051078D02*
X0219789Y0051078D01*
X0219789Y0050010D02*
X0219789Y0053213D01*
X0218187Y0053213D01*
X0217654Y0052679D01*
X0217654Y0051612D01*
X0218187Y0051078D01*
X0221337Y0053213D02*
X0223472Y0053213D01*
X0222404Y0053213D02*
X0222404Y0050010D01*
X0225020Y0050544D02*
X0225554Y0050010D01*
X0226621Y0050010D01*
X0227155Y0050544D01*
X0226621Y0051612D02*
X0225554Y0051612D01*
X0225020Y0051078D01*
X0225020Y0050544D01*
X0226621Y0051612D02*
X0227155Y0052145D01*
X0227155Y0052679D01*
X0226621Y0053213D01*
X0225554Y0053213D01*
X0225020Y0052679D01*
X0304803Y0052291D02*
X0317795Y0052291D01*
D13*
X0328976Y0035047D02*
X0329072Y0035037D01*
X0329167Y0035023D01*
X0329262Y0035005D01*
X0329357Y0034984D01*
X0329450Y0034958D01*
X0329542Y0034929D01*
X0329633Y0034896D01*
X0329722Y0034859D01*
X0329810Y0034819D01*
X0329896Y0034775D01*
X0329980Y0034728D01*
X0330062Y0034677D01*
X0330142Y0034623D01*
X0330220Y0034566D01*
X0330296Y0034506D01*
X0330369Y0034443D01*
X0330439Y0034376D01*
X0330507Y0034307D01*
X0330571Y0034236D01*
X0330633Y0034161D01*
X0330692Y0034085D01*
X0330747Y0034006D01*
X0330799Y0033924D01*
X0330848Y0033841D01*
X0330893Y0033756D01*
X0330935Y0033669D01*
X0330974Y0033580D01*
X0331008Y0033490D01*
X0331039Y0033398D01*
X0331066Y0033306D01*
X0331090Y0033212D01*
X0331109Y0033117D01*
X0331125Y0033022D01*
X0331137Y0032926D01*
X0331145Y0032830D01*
X0331149Y0032733D01*
X0331149Y0032637D01*
X0331145Y0032540D01*
X0331137Y0032444D01*
X0331125Y0032348D01*
X0331109Y0032253D01*
X0331090Y0032158D01*
X0331066Y0032064D01*
X0331039Y0031972D01*
X0331008Y0031880D01*
X0330974Y0031790D01*
X0330935Y0031701D01*
X0330893Y0031614D01*
X0330848Y0031529D01*
X0330799Y0031446D01*
X0330747Y0031364D01*
X0330692Y0031285D01*
X0330633Y0031209D01*
X0330571Y0031134D01*
X0330507Y0031063D01*
X0330439Y0030994D01*
X0330369Y0030927D01*
X0330296Y0030864D01*
X0330220Y0030804D01*
X0330142Y0030747D01*
X0330062Y0030693D01*
X0329980Y0030642D01*
X0329896Y0030595D01*
X0329810Y0030551D01*
X0329722Y0030511D01*
X0329633Y0030474D01*
X0329542Y0030441D01*
X0329450Y0030412D01*
X0329357Y0030386D01*
X0329262Y0030365D01*
X0329167Y0030347D01*
X0329072Y0030333D01*
X0328976Y0030323D01*
X0390527Y0062567D02*
X0150527Y0062567D01*
X0150527Y0132567D01*
X0390527Y0132567D01*
X0390527Y0112567D01*
X0395527Y0112567D01*
X0395527Y0087567D01*
X0390527Y0087567D01*
X0390527Y0062567D01*
X0458006Y0040575D02*
X0458456Y0041025D01*
X0459357Y0041025D01*
X0459357Y0040125D01*
X0460258Y0041025D02*
X0460708Y0040575D01*
X0460708Y0039674D01*
X0460258Y0039224D01*
X0458456Y0039224D01*
X0458006Y0039674D01*
X0458006Y0040575D01*
X0458006Y0038160D02*
X0458006Y0037260D01*
X0458006Y0037710D02*
X0460708Y0037710D01*
X0460708Y0037260D02*
X0460708Y0038160D01*
X0460258Y0036115D02*
X0460708Y0035664D01*
X0460708Y0034763D01*
X0460258Y0034313D01*
X0459807Y0034313D01*
X0459357Y0034763D01*
X0459357Y0035664D01*
X0458907Y0036115D01*
X0458456Y0036115D01*
X0458006Y0035664D01*
X0458006Y0034763D01*
X0458456Y0034313D01*
X0458535Y0031220D02*
X0460336Y0031220D01*
X0460787Y0030770D01*
X0460787Y0029419D01*
X0458085Y0029419D01*
X0458085Y0030770D01*
X0458535Y0031220D01*
X0458085Y0028274D02*
X0460787Y0028274D01*
X0460787Y0026472D02*
X0458085Y0026472D01*
X0458535Y0025327D02*
X0459436Y0025327D01*
X0459436Y0024426D01*
X0460336Y0023526D02*
X0458535Y0023526D01*
X0458085Y0023976D01*
X0458085Y0024877D01*
X0458535Y0025327D01*
X0460336Y0025327D02*
X0460787Y0024877D01*
X0460787Y0023976D01*
X0460336Y0023526D01*
X0460140Y0021102D02*
X0460590Y0020652D01*
X0460590Y0019751D01*
X0460140Y0019301D01*
X0458338Y0019301D01*
X0457888Y0019751D01*
X0457888Y0020652D01*
X0458338Y0021102D01*
X0458338Y0018156D02*
X0457888Y0017705D01*
X0457888Y0016804D01*
X0458338Y0016354D01*
X0460140Y0016354D01*
X0460590Y0016804D01*
X0460590Y0017705D01*
X0460140Y0018156D01*
X0460590Y0015209D02*
X0458788Y0015209D01*
X0457888Y0014308D01*
X0458788Y0013407D01*
X0460590Y0013407D01*
X0466192Y0009301D02*
X0467994Y0011102D01*
X0468444Y0011102D01*
X0468444Y0009301D01*
X0468444Y0008156D02*
X0465742Y0008156D01*
X0468444Y0006354D01*
X0465742Y0006354D01*
X0465742Y0005209D02*
X0467544Y0005209D01*
X0468444Y0004308D01*
X0467544Y0003407D01*
X0465742Y0003407D01*
X0467093Y0003407D02*
X0467093Y0005209D01*
X0475742Y0005052D02*
X0477544Y0005052D01*
X0478444Y0004151D01*
X0477544Y0003250D01*
X0475742Y0003250D01*
X0477093Y0003250D02*
X0477093Y0005052D01*
X0475742Y0006197D02*
X0478444Y0006197D01*
X0475742Y0007998D01*
X0478444Y0007998D01*
X0477994Y0009143D02*
X0477544Y0009143D01*
X0477093Y0009593D01*
X0477093Y0010494D01*
X0476643Y0010945D01*
X0476192Y0010945D01*
X0475742Y0010494D01*
X0475742Y0009593D01*
X0476192Y0009143D01*
X0476643Y0009143D01*
X0477093Y0009593D01*
X0477093Y0010494D02*
X0477544Y0010945D01*
X0477994Y0010945D01*
X0478444Y0010494D01*
X0478444Y0009593D01*
X0477994Y0009143D01*
X0466192Y0009301D02*
X0465742Y0009301D01*
X0460787Y0026472D02*
X0458085Y0028274D01*
X0463829Y0044151D02*
X0464730Y0044151D01*
X0465180Y0044601D01*
X0465180Y0045502D02*
X0464280Y0045952D01*
X0463829Y0045952D01*
X0463379Y0045502D01*
X0463379Y0044601D01*
X0463829Y0044151D01*
X0465180Y0045502D02*
X0465180Y0046853D01*
X0463379Y0046853D01*
X0467226Y0046853D02*
X0467226Y0044151D01*
X0468127Y0044151D02*
X0466325Y0044151D01*
X0468127Y0045952D02*
X0467226Y0046853D01*
X0469272Y0046853D02*
X0470173Y0046853D01*
X0469722Y0046853D02*
X0469722Y0044601D01*
X0470173Y0044151D01*
X0470623Y0044151D01*
X0471074Y0044601D01*
X0474954Y0044680D02*
X0474954Y0045130D01*
X0475404Y0045581D01*
X0476755Y0045581D01*
X0476755Y0044680D01*
X0476305Y0044230D01*
X0475404Y0044230D01*
X0474954Y0044680D01*
X0475855Y0046481D02*
X0476755Y0045581D01*
X0475855Y0046481D02*
X0474954Y0046932D01*
X0478801Y0046932D02*
X0478801Y0044230D01*
X0479702Y0044230D02*
X0477900Y0044230D01*
X0479702Y0046031D02*
X0478801Y0046932D01*
X0480847Y0046932D02*
X0481748Y0046932D01*
X0481297Y0046932D02*
X0481297Y0044680D01*
X0481748Y0044230D01*
X0482198Y0044230D01*
X0482648Y0044680D01*
X0485460Y0051534D02*
X0487161Y0051534D01*
X0488012Y0052385D01*
X0488012Y0054086D02*
X0486310Y0054937D01*
X0485460Y0054937D01*
X0484609Y0054086D01*
X0484609Y0052385D01*
X0485460Y0051534D01*
X0489765Y0052385D02*
X0490616Y0051534D01*
X0492317Y0051534D01*
X0493168Y0052385D01*
X0493168Y0053236D01*
X0492317Y0054086D01*
X0490616Y0054086D01*
X0489765Y0053236D01*
X0489765Y0052385D01*
X0490616Y0054086D02*
X0489765Y0054937D01*
X0489765Y0055788D01*
X0490616Y0056639D01*
X0492317Y0056639D01*
X0493168Y0055788D01*
X0493168Y0054937D01*
X0492317Y0054086D01*
X0494922Y0055788D02*
X0496623Y0054086D01*
X0496623Y0051534D01*
X0500078Y0051534D02*
X0500078Y0056639D01*
X0498325Y0056639D02*
X0498325Y0055788D01*
X0496623Y0054086D01*
X0494922Y0055788D02*
X0494922Y0056639D01*
X0488012Y0056639D02*
X0488012Y0054086D01*
X0488012Y0056639D02*
X0484609Y0056639D01*
X0500078Y0051534D02*
X0503481Y0056639D01*
X0503481Y0051534D01*
X0505217Y0051534D02*
X0506919Y0051534D01*
X0506068Y0051534D02*
X0506068Y0056639D01*
X0506919Y0056639D02*
X0505217Y0056639D01*
X0508672Y0056639D02*
X0512075Y0056639D01*
X0510373Y0056639D02*
X0510373Y0051534D01*
X0515530Y0051534D02*
X0515530Y0056639D01*
X0517231Y0056639D02*
X0513828Y0056639D01*
X0518985Y0054937D02*
X0518985Y0051534D01*
X0522388Y0051534D02*
X0522388Y0054937D01*
X0520686Y0056639D01*
X0518985Y0054937D01*
X0518985Y0054086D02*
X0522388Y0054086D01*
X0577208Y0055647D02*
X0577208Y0056548D01*
X0578109Y0057448D01*
X0579254Y0056097D02*
X0579254Y0054746D01*
X0578109Y0054746D02*
X0577208Y0055647D01*
X0579254Y0056097D02*
X0579704Y0056548D01*
X0581056Y0056548D01*
X0581056Y0054746D01*
X0582119Y0054746D02*
X0583020Y0054746D01*
X0582570Y0054746D02*
X0582570Y0056548D01*
X0583020Y0056548D01*
X0582570Y0057448D02*
X0582570Y0057899D01*
X0584165Y0056097D02*
X0584165Y0054746D01*
X0585516Y0054746D01*
X0585966Y0055196D01*
X0585516Y0055647D01*
X0584165Y0055647D01*
X0584165Y0056097D02*
X0584615Y0056548D01*
X0585516Y0056548D01*
X0587111Y0057448D02*
X0587111Y0054746D01*
X0588913Y0054746D02*
X0588913Y0057448D01*
X0588012Y0056548D01*
X0587111Y0057448D01*
X0589977Y0057448D02*
X0590877Y0056548D01*
X0590877Y0055647D01*
X0589977Y0054746D01*
X0594969Y0054746D02*
X0596320Y0054746D01*
X0596770Y0055196D01*
X0596770Y0056548D01*
X0597875Y0056548D02*
X0598325Y0056548D01*
X0599226Y0055647D01*
X0599226Y0054746D02*
X0599226Y0056548D01*
X0600371Y0056097D02*
X0600371Y0055647D01*
X0602172Y0055647D01*
X0602172Y0056097D02*
X0602172Y0055196D01*
X0601722Y0054746D01*
X0600821Y0054746D01*
X0600371Y0056097D02*
X0600821Y0056548D01*
X0601722Y0056548D01*
X0602172Y0056097D01*
X0603236Y0056548D02*
X0604137Y0056548D01*
X0603686Y0056998D02*
X0603686Y0055196D01*
X0603236Y0054746D01*
X0605200Y0054746D02*
X0605651Y0055196D01*
X0605651Y0056998D01*
X0606101Y0056548D02*
X0605200Y0056548D01*
X0607246Y0056097D02*
X0607246Y0054746D01*
X0608597Y0054746D01*
X0609047Y0055196D01*
X0608597Y0055647D01*
X0607246Y0055647D01*
X0607246Y0056097D02*
X0607696Y0056548D01*
X0608597Y0056548D01*
X0610192Y0056548D02*
X0610643Y0056097D01*
X0611994Y0056097D01*
X0611994Y0054746D02*
X0611994Y0057448D01*
X0610643Y0057448D01*
X0610192Y0056998D01*
X0610192Y0056548D01*
X0610643Y0056097D02*
X0610192Y0055647D01*
X0610192Y0055196D01*
X0610643Y0054746D01*
X0611994Y0054746D01*
X0595870Y0053845D02*
X0595419Y0053845D01*
X0594969Y0054296D01*
X0594969Y0056548D01*
X0588772Y0076420D02*
X0588322Y0076870D01*
X0588322Y0077321D01*
X0588772Y0077771D01*
X0591024Y0077771D01*
X0591024Y0077321D02*
X0591024Y0078221D01*
X0591024Y0079366D02*
X0589673Y0079366D01*
X0590123Y0080267D01*
X0590123Y0080718D01*
X0589673Y0081168D01*
X0588772Y0081168D01*
X0588322Y0080718D01*
X0588322Y0079817D01*
X0588772Y0079366D01*
X0591024Y0079366D02*
X0591024Y0081168D01*
X0513976Y0073906D02*
X0508976Y0073906D01*
X0508976Y0078906D01*
X0496128Y0081372D02*
X0495277Y0080522D01*
X0493576Y0080522D01*
X0492725Y0081372D01*
X0492725Y0085626D01*
X0490971Y0083925D02*
X0489270Y0085626D01*
X0489270Y0080522D01*
X0490971Y0080522D02*
X0487569Y0080522D01*
X0496128Y0081372D02*
X0496128Y0085626D01*
X0482230Y0089159D02*
X0482230Y0090961D01*
X0481329Y0091862D01*
X0480429Y0090961D01*
X0480429Y0089159D01*
X0479284Y0089159D02*
X0479284Y0091862D01*
X0477482Y0089159D01*
X0477482Y0091862D01*
X0476337Y0091862D02*
X0476337Y0090511D01*
X0475436Y0090961D01*
X0474986Y0090961D01*
X0474536Y0090511D01*
X0474536Y0089610D01*
X0474986Y0089159D01*
X0475887Y0089159D01*
X0476337Y0089610D01*
X0476337Y0091862D02*
X0474536Y0091862D01*
X0471549Y0091366D02*
X0470648Y0092267D01*
X0469748Y0091366D01*
X0469748Y0089565D01*
X0468603Y0089565D02*
X0468603Y0092267D01*
X0466801Y0089565D01*
X0466801Y0092267D01*
X0465656Y0090916D02*
X0464305Y0090916D01*
X0463855Y0090466D01*
X0463855Y0090015D01*
X0464305Y0089565D01*
X0465206Y0089565D01*
X0465656Y0090015D01*
X0465656Y0090916D01*
X0464755Y0091817D01*
X0463855Y0092267D01*
X0469748Y0090916D02*
X0471549Y0090916D01*
X0471549Y0091366D02*
X0471549Y0089565D01*
X0480429Y0090511D02*
X0482230Y0090511D01*
X0461114Y0095612D02*
X0459312Y0095612D01*
X0458411Y0096513D01*
X0459312Y0097414D01*
X0461114Y0097414D01*
X0460663Y0098559D02*
X0458862Y0098559D01*
X0458411Y0099009D01*
X0458411Y0099910D01*
X0458862Y0100360D01*
X0458862Y0101505D02*
X0458411Y0101956D01*
X0458411Y0102856D01*
X0458862Y0103307D01*
X0460663Y0103307D02*
X0461114Y0102856D01*
X0461114Y0101956D01*
X0460663Y0101505D01*
X0458862Y0101505D01*
X0460663Y0100360D02*
X0461114Y0099910D01*
X0461114Y0099009D01*
X0460663Y0098559D01*
X0460742Y0105691D02*
X0458940Y0105691D01*
X0458490Y0106141D01*
X0458490Y0107042D01*
X0458940Y0107492D01*
X0459841Y0107492D01*
X0459841Y0106592D01*
X0460742Y0107492D02*
X0461192Y0107042D01*
X0461192Y0106141D01*
X0460742Y0105691D01*
X0461192Y0108637D02*
X0458490Y0108637D01*
X0458490Y0110439D02*
X0461192Y0110439D01*
X0461192Y0111584D02*
X0458490Y0111584D01*
X0458490Y0112935D01*
X0458940Y0113386D01*
X0460742Y0113386D01*
X0461192Y0112935D01*
X0461192Y0111584D01*
X0458490Y0110439D02*
X0461192Y0108637D01*
X0460624Y0116360D02*
X0460173Y0116360D01*
X0459723Y0116811D01*
X0459723Y0117711D01*
X0459273Y0118162D01*
X0458822Y0118162D01*
X0458372Y0117711D01*
X0458372Y0116811D01*
X0458822Y0116360D01*
X0460624Y0116360D02*
X0461074Y0116811D01*
X0461074Y0117711D01*
X0460624Y0118162D01*
X0461074Y0119307D02*
X0461074Y0120208D01*
X0461074Y0119757D02*
X0458372Y0119757D01*
X0458372Y0119307D02*
X0458372Y0120208D01*
X0458822Y0121271D02*
X0458372Y0121721D01*
X0458372Y0122622D01*
X0458822Y0123073D01*
X0459723Y0123073D01*
X0459723Y0122172D01*
X0460624Y0123073D02*
X0461074Y0122622D01*
X0461074Y0121721D01*
X0460624Y0121271D01*
X0458822Y0121271D01*
X0465950Y0127139D02*
X0465950Y0127589D01*
X0464148Y0129391D01*
X0464148Y0129841D01*
X0465950Y0129841D01*
X0467095Y0129841D02*
X0467996Y0129841D01*
X0467545Y0129841D02*
X0467545Y0127589D01*
X0467996Y0127139D01*
X0468446Y0127139D01*
X0468896Y0127589D01*
X0474849Y0127814D02*
X0474849Y0128264D01*
X0475299Y0128715D01*
X0476651Y0128715D01*
X0476651Y0127814D01*
X0476200Y0127363D01*
X0475299Y0127363D01*
X0474849Y0127814D01*
X0475750Y0129615D02*
X0476651Y0128715D01*
X0475750Y0129615D02*
X0474849Y0130066D01*
X0477796Y0130066D02*
X0478696Y0130066D01*
X0478246Y0130066D02*
X0478246Y0127814D01*
X0478696Y0127363D01*
X0479147Y0127363D01*
X0479597Y0127814D01*
X0516890Y0127370D02*
X0516890Y0147055D01*
X0595630Y0147055D01*
X0595630Y0127370D01*
X0516890Y0127370D01*
X0578353Y0114370D02*
X0579254Y0115271D01*
X0578353Y0114370D02*
X0578353Y0113470D01*
X0579254Y0112569D01*
X0580318Y0112569D02*
X0581218Y0112569D01*
X0580768Y0112569D02*
X0580768Y0114370D01*
X0581218Y0114370D01*
X0580768Y0115271D02*
X0580768Y0115722D01*
X0582363Y0114821D02*
X0582363Y0113920D01*
X0582814Y0113470D01*
X0584165Y0113470D01*
X0584165Y0112569D02*
X0584165Y0115271D01*
X0582814Y0115271D01*
X0582363Y0114821D01*
X0585229Y0115271D02*
X0586129Y0114370D01*
X0586129Y0113470D01*
X0585229Y0112569D01*
X0590221Y0112569D02*
X0591572Y0112569D01*
X0592022Y0113019D01*
X0592022Y0114370D01*
X0593127Y0114370D02*
X0593577Y0114370D01*
X0594478Y0113470D01*
X0594478Y0114370D02*
X0594478Y0112569D01*
X0595623Y0113470D02*
X0597424Y0113470D01*
X0597424Y0113920D02*
X0596974Y0114370D01*
X0596073Y0114370D01*
X0595623Y0113920D01*
X0595623Y0113470D01*
X0596073Y0112569D02*
X0596974Y0112569D01*
X0597424Y0113019D01*
X0597424Y0113920D01*
X0598488Y0114370D02*
X0599389Y0114370D01*
X0598938Y0114821D02*
X0598938Y0113019D01*
X0598488Y0112569D01*
X0600452Y0112569D02*
X0600903Y0113019D01*
X0600903Y0114821D01*
X0601353Y0114370D02*
X0600452Y0114370D01*
X0602498Y0113920D02*
X0602498Y0112569D01*
X0603849Y0112569D01*
X0604299Y0113019D01*
X0603849Y0113470D01*
X0602498Y0113470D01*
X0602498Y0113920D02*
X0602948Y0114370D01*
X0603849Y0114370D01*
X0605444Y0114370D02*
X0605895Y0113920D01*
X0607246Y0113920D01*
X0607246Y0112569D02*
X0607246Y0115271D01*
X0605895Y0115271D01*
X0605444Y0114821D01*
X0605444Y0114370D01*
X0605895Y0113920D02*
X0605444Y0113470D01*
X0605444Y0113019D01*
X0605895Y0112569D01*
X0607246Y0112569D01*
X0591122Y0111668D02*
X0590671Y0111668D01*
X0590221Y0112119D01*
X0590221Y0114370D01*
X0600439Y0122502D02*
X0602341Y0122502D01*
X0602341Y0123453D01*
X0602024Y0123770D01*
X0601390Y0123770D01*
X0601073Y0123453D01*
X0601073Y0122502D01*
X0601073Y0123136D02*
X0600439Y0123770D01*
X0600439Y0124712D02*
X0602341Y0124712D01*
X0602341Y0125663D01*
X0602024Y0125980D01*
X0601390Y0125980D01*
X0601073Y0125663D01*
X0601073Y0124712D01*
X0601707Y0126922D02*
X0601707Y0127239D01*
X0600439Y0127239D01*
X0600439Y0126922D02*
X0600439Y0127556D01*
X0601390Y0128395D02*
X0601390Y0129663D01*
X0601707Y0130605D02*
X0601390Y0130922D01*
X0601390Y0131556D01*
X0601073Y0131873D01*
X0600756Y0131873D01*
X0600439Y0131556D01*
X0600439Y0130922D01*
X0600756Y0130605D01*
X0601707Y0130605D02*
X0602024Y0130605D01*
X0602341Y0130922D01*
X0602341Y0131556D01*
X0602024Y0131873D01*
X0602341Y0132815D02*
X0600439Y0132815D01*
X0601390Y0132815D02*
X0601707Y0133132D01*
X0601707Y0133766D01*
X0601390Y0134082D01*
X0600439Y0134082D01*
X0600756Y0135025D02*
X0600439Y0135342D01*
X0600439Y0136292D01*
X0601707Y0136292D01*
X0601707Y0137234D02*
X0601707Y0137868D01*
X0602024Y0137551D02*
X0600756Y0137551D01*
X0600439Y0137868D01*
X0600756Y0138708D02*
X0600439Y0139025D01*
X0600439Y0139975D01*
X0602341Y0139975D01*
X0601707Y0139975D02*
X0601707Y0139025D01*
X0601390Y0138708D01*
X0600756Y0138708D01*
X0600756Y0140918D02*
X0600439Y0141235D01*
X0600439Y0141868D01*
X0600756Y0142185D01*
X0601390Y0142185D01*
X0601707Y0141868D01*
X0601707Y0141235D01*
X0601390Y0140918D01*
X0600756Y0140918D01*
X0600756Y0143128D02*
X0600439Y0143444D01*
X0600756Y0143761D01*
X0600439Y0144078D01*
X0600756Y0144395D01*
X0601707Y0144395D01*
X0601707Y0145337D02*
X0600439Y0145337D01*
X0601707Y0145337D02*
X0601707Y0146288D01*
X0601390Y0146605D01*
X0600439Y0146605D01*
X0600756Y0143128D02*
X0601707Y0143128D01*
X0616852Y0143536D02*
X0618120Y0144804D01*
X0618437Y0144804D01*
X0618754Y0144487D01*
X0618754Y0143853D01*
X0618437Y0143536D01*
X0616852Y0143536D02*
X0616852Y0144804D01*
X0616852Y0142594D02*
X0616852Y0141326D01*
X0616852Y0141960D02*
X0618754Y0141960D01*
X0618120Y0141326D01*
X0618754Y0140384D02*
X0618754Y0139750D01*
X0618754Y0140067D02*
X0617169Y0140067D01*
X0616852Y0139750D01*
X0616852Y0139433D01*
X0617169Y0139116D01*
X0601707Y0135025D02*
X0600756Y0135025D01*
X0602341Y0127239D02*
X0602657Y0127239D01*
X0608717Y0153959D02*
X0609617Y0153959D01*
X0609167Y0153959D02*
X0609167Y0155760D01*
X0609617Y0155760D01*
X0609167Y0156661D02*
X0609167Y0157111D01*
X0610762Y0156211D02*
X0610762Y0155310D01*
X0611213Y0154859D01*
X0612564Y0154859D01*
X0612564Y0153959D02*
X0612564Y0156661D01*
X0611213Y0156661D01*
X0610762Y0156211D01*
X0616655Y0156211D02*
X0616655Y0154409D01*
X0617106Y0153959D01*
X0618007Y0153959D01*
X0618457Y0154409D01*
X0618457Y0156211D01*
X0618007Y0156661D01*
X0617106Y0156661D01*
X0616655Y0156211D01*
X0619602Y0156661D02*
X0621403Y0156661D01*
X0620503Y0156661D02*
X0620503Y0153959D01*
X0574910Y0160777D02*
X0574910Y0161678D01*
X0574910Y0161228D02*
X0572658Y0161228D01*
X0572207Y0160777D01*
X0572207Y0160327D01*
X0572658Y0159877D01*
X0572658Y0162823D02*
X0572207Y0163274D01*
X0572207Y0164174D01*
X0572658Y0164625D01*
X0573108Y0164625D01*
X0573559Y0164174D01*
X0573559Y0163724D01*
X0573559Y0164174D02*
X0574009Y0164625D01*
X0574459Y0164625D01*
X0574910Y0164174D01*
X0574910Y0163274D01*
X0574459Y0162823D01*
X0481541Y0156800D02*
X0481541Y0154998D01*
X0481541Y0156349D02*
X0479740Y0156349D01*
X0479740Y0156800D02*
X0479740Y0154998D01*
X0478595Y0154998D02*
X0478595Y0157700D01*
X0476793Y0154998D01*
X0476793Y0157700D01*
X0475648Y0157250D02*
X0475648Y0156800D01*
X0475198Y0156349D01*
X0474297Y0156349D01*
X0473847Y0155899D01*
X0473847Y0155448D01*
X0474297Y0154998D01*
X0475198Y0154998D01*
X0475648Y0155448D01*
X0475648Y0155899D01*
X0475198Y0156349D01*
X0474297Y0156349D02*
X0473847Y0156800D01*
X0473847Y0157250D01*
X0474297Y0157700D01*
X0475198Y0157700D01*
X0475648Y0157250D01*
X0479740Y0156800D02*
X0480640Y0157700D01*
X0481541Y0156800D01*
X0470581Y0157020D02*
X0469680Y0157921D01*
X0468779Y0157020D01*
X0468779Y0155219D01*
X0467634Y0155219D02*
X0467634Y0157921D01*
X0465833Y0155219D01*
X0465833Y0157921D01*
X0464688Y0157921D02*
X0462886Y0157921D01*
X0462886Y0157470D01*
X0464688Y0155669D01*
X0464688Y0155219D01*
X0468779Y0156570D02*
X0470581Y0156570D01*
X0470581Y0157020D02*
X0470581Y0155219D01*
X0460366Y0160691D02*
X0458564Y0160691D01*
X0457663Y0161592D01*
X0458564Y0162492D01*
X0460366Y0162492D01*
X0459915Y0163637D02*
X0458114Y0163637D01*
X0457663Y0164088D01*
X0457663Y0164989D01*
X0458114Y0165439D01*
X0458114Y0166584D02*
X0457663Y0167034D01*
X0457663Y0167935D01*
X0458114Y0168386D01*
X0459915Y0168386D02*
X0460366Y0167935D01*
X0460366Y0167034D01*
X0459915Y0166584D01*
X0458114Y0166584D01*
X0459915Y0165439D02*
X0460366Y0164989D01*
X0460366Y0164088D01*
X0459915Y0163637D01*
X0459994Y0170415D02*
X0458192Y0170415D01*
X0457742Y0170866D01*
X0457742Y0171766D01*
X0458192Y0172217D01*
X0459093Y0172217D01*
X0459093Y0171316D01*
X0459994Y0170415D02*
X0460444Y0170866D01*
X0460444Y0171766D01*
X0459994Y0172217D01*
X0460444Y0173362D02*
X0457742Y0173362D01*
X0457742Y0175163D02*
X0460444Y0175163D01*
X0460444Y0176308D02*
X0460444Y0177660D01*
X0459994Y0178110D01*
X0458192Y0178110D01*
X0457742Y0177660D01*
X0457742Y0176308D01*
X0460444Y0176308D01*
X0457742Y0175163D02*
X0460444Y0173362D01*
X0460112Y0181163D02*
X0459662Y0181163D01*
X0459211Y0181614D01*
X0459211Y0182515D01*
X0458761Y0182965D01*
X0458311Y0182965D01*
X0457860Y0182515D01*
X0457860Y0181614D01*
X0458311Y0181163D01*
X0460112Y0181163D02*
X0460562Y0181614D01*
X0460562Y0182515D01*
X0460112Y0182965D01*
X0460562Y0184110D02*
X0460562Y0185011D01*
X0460562Y0184560D02*
X0457860Y0184560D01*
X0457860Y0184110D02*
X0457860Y0185011D01*
X0458311Y0186074D02*
X0457860Y0186525D01*
X0457860Y0187425D01*
X0458311Y0187876D01*
X0459211Y0187876D01*
X0459211Y0186975D01*
X0458311Y0186074D02*
X0460112Y0186074D01*
X0460562Y0186525D01*
X0460562Y0187425D01*
X0460112Y0187876D01*
X0464609Y0191408D02*
X0465059Y0190958D01*
X0465960Y0190958D01*
X0466410Y0191408D01*
X0466410Y0191859D01*
X0465960Y0192309D01*
X0465059Y0192309D01*
X0464609Y0191859D01*
X0464609Y0191408D01*
X0465059Y0192309D02*
X0464609Y0192759D01*
X0464609Y0193210D01*
X0465059Y0193660D01*
X0465960Y0193660D01*
X0466410Y0193210D01*
X0466410Y0192759D01*
X0465960Y0192309D01*
X0467555Y0193660D02*
X0468456Y0193660D01*
X0468006Y0193660D02*
X0468006Y0191408D01*
X0468456Y0190958D01*
X0468907Y0190958D01*
X0469357Y0191408D01*
X0474688Y0191302D02*
X0475138Y0190852D01*
X0476039Y0190852D01*
X0476489Y0191302D01*
X0476039Y0192203D02*
X0474688Y0192203D01*
X0474688Y0193103D02*
X0474688Y0191302D01*
X0476039Y0192203D02*
X0476489Y0192653D01*
X0476489Y0193103D01*
X0476039Y0193554D01*
X0475138Y0193554D01*
X0474688Y0193103D01*
X0477634Y0193554D02*
X0478535Y0193554D01*
X0478085Y0193554D02*
X0478085Y0191302D01*
X0478535Y0190852D01*
X0478985Y0190852D01*
X0479436Y0191302D01*
X0279291Y0167645D02*
X0279195Y0167635D01*
X0279100Y0167621D01*
X0279005Y0167603D01*
X0278910Y0167582D01*
X0278817Y0167556D01*
X0278725Y0167527D01*
X0278634Y0167494D01*
X0278545Y0167457D01*
X0278457Y0167417D01*
X0278371Y0167373D01*
X0278287Y0167326D01*
X0278205Y0167275D01*
X0278125Y0167221D01*
X0278047Y0167164D01*
X0277971Y0167104D01*
X0277898Y0167041D01*
X0277828Y0166974D01*
X0277760Y0166905D01*
X0277696Y0166834D01*
X0277634Y0166759D01*
X0277575Y0166683D01*
X0277520Y0166604D01*
X0277468Y0166522D01*
X0277419Y0166439D01*
X0277374Y0166354D01*
X0277332Y0166267D01*
X0277293Y0166178D01*
X0277259Y0166088D01*
X0277228Y0165996D01*
X0277201Y0165904D01*
X0277177Y0165810D01*
X0277158Y0165715D01*
X0277142Y0165620D01*
X0277130Y0165524D01*
X0277122Y0165428D01*
X0277118Y0165331D01*
X0277118Y0165235D01*
X0277122Y0165138D01*
X0277130Y0165042D01*
X0277142Y0164946D01*
X0277158Y0164851D01*
X0277177Y0164756D01*
X0277201Y0164662D01*
X0277228Y0164570D01*
X0277259Y0164478D01*
X0277293Y0164388D01*
X0277332Y0164299D01*
X0277374Y0164212D01*
X0277419Y0164127D01*
X0277468Y0164044D01*
X0277520Y0163962D01*
X0277575Y0163883D01*
X0277634Y0163807D01*
X0277696Y0163732D01*
X0277760Y0163661D01*
X0277828Y0163592D01*
X0277898Y0163525D01*
X0277971Y0163462D01*
X0278047Y0163402D01*
X0278125Y0163345D01*
X0278205Y0163291D01*
X0278287Y0163240D01*
X0278371Y0163193D01*
X0278457Y0163149D01*
X0278545Y0163109D01*
X0278634Y0163072D01*
X0278725Y0163039D01*
X0278817Y0163010D01*
X0278910Y0162984D01*
X0279005Y0162963D01*
X0279100Y0162945D01*
X0279195Y0162931D01*
X0279291Y0162921D01*
X0390527Y0112567D02*
X0390527Y0087567D01*
X0589154Y0022233D02*
X0590955Y0024034D01*
X0591406Y0024034D01*
X0591406Y0022233D01*
X0591406Y0020187D02*
X0588703Y0020187D01*
X0588703Y0019286D02*
X0588703Y0021088D01*
X0588703Y0022233D02*
X0589154Y0022233D01*
X0591406Y0020187D02*
X0590505Y0019286D01*
X0591406Y0018141D02*
X0591406Y0017240D01*
X0591406Y0017691D02*
X0589154Y0017691D01*
X0588703Y0017240D01*
X0588703Y0016790D01*
X0589154Y0016340D01*
X0164822Y0014252D02*
X0164372Y0013351D01*
X0163471Y0012450D01*
X0163471Y0013801D01*
X0163021Y0014252D01*
X0162570Y0014252D01*
X0162120Y0013801D01*
X0162120Y0012901D01*
X0162570Y0012450D01*
X0163471Y0012450D01*
X0162120Y0011305D02*
X0164822Y0011305D01*
X0164822Y0009504D02*
X0162120Y0011305D01*
X0162120Y0009504D02*
X0164822Y0009504D01*
X0163922Y0008359D02*
X0162120Y0008359D01*
X0163471Y0008359D02*
X0163471Y0006557D01*
X0163922Y0006557D02*
X0164822Y0007458D01*
X0163922Y0008359D01*
X0163922Y0006557D02*
X0162120Y0006557D01*
X0154665Y0007104D02*
X0153764Y0008004D01*
X0151963Y0008004D01*
X0151963Y0009149D02*
X0154665Y0009149D01*
X0151963Y0010951D01*
X0154665Y0010951D01*
X0154665Y0012096D02*
X0153314Y0012096D01*
X0153764Y0012997D01*
X0153764Y0013447D01*
X0153314Y0013897D01*
X0152413Y0013897D01*
X0151963Y0013447D01*
X0151963Y0012546D01*
X0152413Y0012096D01*
X0154665Y0012096D02*
X0154665Y0013897D01*
X0153314Y0008004D02*
X0153314Y0006203D01*
X0153764Y0006203D02*
X0151963Y0006203D01*
X0153764Y0006203D02*
X0154665Y0007104D01*
X0147165Y0016518D02*
X0145363Y0016518D01*
X0144463Y0017418D01*
X0145363Y0018319D01*
X0147165Y0018319D01*
X0146714Y0019464D02*
X0147165Y0019915D01*
X0147165Y0020815D01*
X0146714Y0021266D01*
X0146714Y0022411D02*
X0144913Y0022411D01*
X0144463Y0022861D01*
X0144463Y0023762D01*
X0144913Y0024212D01*
X0146714Y0024212D02*
X0147165Y0023762D01*
X0147165Y0022861D01*
X0146714Y0022411D01*
X0144913Y0021266D02*
X0144463Y0020815D01*
X0144463Y0019915D01*
X0144913Y0019464D01*
X0146714Y0019464D01*
X0146596Y0027108D02*
X0144795Y0027108D01*
X0144344Y0027559D01*
X0144344Y0028459D01*
X0144795Y0028910D01*
X0145696Y0028910D01*
X0145696Y0028009D01*
X0146596Y0027108D02*
X0147047Y0027559D01*
X0147047Y0028459D01*
X0146596Y0028910D01*
X0147047Y0030055D02*
X0144344Y0030055D01*
X0144344Y0031856D02*
X0147047Y0031856D01*
X0147047Y0033001D02*
X0147047Y0034352D01*
X0146596Y0034803D01*
X0144795Y0034803D01*
X0144344Y0034352D01*
X0144344Y0033001D01*
X0147047Y0033001D01*
X0144344Y0031856D02*
X0147047Y0030055D01*
X0146439Y0037896D02*
X0145988Y0037896D01*
X0145538Y0038346D01*
X0145538Y0039247D01*
X0145088Y0039697D01*
X0144637Y0039697D01*
X0144187Y0039247D01*
X0144187Y0038346D01*
X0144637Y0037896D01*
X0146439Y0037896D02*
X0146889Y0038346D01*
X0146889Y0039247D01*
X0146439Y0039697D01*
X0146889Y0040842D02*
X0146889Y0041743D01*
X0146889Y0041293D02*
X0144187Y0041293D01*
X0144187Y0041743D02*
X0144187Y0040842D01*
X0144637Y0042807D02*
X0144187Y0043257D01*
X0144187Y0044158D01*
X0144637Y0044608D01*
X0145538Y0044608D01*
X0145538Y0043707D01*
X0146439Y0042807D02*
X0144637Y0042807D01*
X0146439Y0042807D02*
X0146889Y0043257D01*
X0146889Y0044158D01*
X0146439Y0044608D01*
X0152726Y0046983D02*
X0152726Y0047433D01*
X0153176Y0047884D01*
X0155428Y0047884D01*
X0155428Y0048334D02*
X0155428Y0047433D01*
X0154527Y0049479D02*
X0155428Y0050380D01*
X0152726Y0050380D01*
X0152726Y0049479D02*
X0152726Y0051281D01*
X0153176Y0052426D02*
X0152726Y0052876D01*
X0152726Y0053777D01*
X0153176Y0054227D01*
X0153626Y0054227D01*
X0154077Y0053777D01*
X0154077Y0053326D01*
X0154077Y0053777D02*
X0154527Y0054227D01*
X0154977Y0054227D01*
X0155428Y0053777D01*
X0155428Y0052876D01*
X0154977Y0052426D01*
X0162765Y0051359D02*
X0162765Y0049558D01*
X0162765Y0050459D02*
X0165467Y0050459D01*
X0164566Y0049558D01*
X0165467Y0048413D02*
X0165467Y0047512D01*
X0165467Y0047963D02*
X0163215Y0047963D01*
X0162765Y0047512D01*
X0162765Y0047062D01*
X0163215Y0046611D01*
X0153176Y0046533D02*
X0152726Y0046983D01*
X0164116Y0052504D02*
X0164116Y0054306D01*
X0162765Y0053856D02*
X0165467Y0053856D01*
X0164116Y0052504D01*
D14*
X0254239Y0097000D02*
X0255006Y0096232D01*
X0255773Y0096232D01*
X0254239Y0097000D02*
X0254239Y0100836D01*
X0257308Y0100836D02*
X0257308Y0098534D01*
X0256541Y0097767D01*
X0254239Y0097767D01*
X0258842Y0098534D02*
X0259610Y0099302D01*
X0261144Y0099302D01*
X0261912Y0100069D01*
X0261144Y0100836D01*
X0258842Y0100836D01*
X0258842Y0098534D02*
X0259610Y0097767D01*
X0261912Y0097767D01*
X0263446Y0097767D02*
X0263446Y0100069D01*
X0264214Y0100836D01*
X0266516Y0100836D01*
X0266516Y0097767D01*
X0268050Y0099302D02*
X0271120Y0099302D01*
X0271120Y0100069D02*
X0271120Y0098534D01*
X0270352Y0097767D01*
X0268818Y0097767D01*
X0268050Y0099302D02*
X0268050Y0100069D01*
X0268818Y0100836D01*
X0270352Y0100836D01*
X0271120Y0100069D01*
X0272654Y0100069D02*
X0272654Y0099302D01*
X0275724Y0099302D01*
X0275724Y0100069D02*
X0275724Y0098534D01*
X0274956Y0097767D01*
X0273422Y0097767D01*
X0272654Y0100069D02*
X0273422Y0100836D01*
X0274956Y0100836D01*
X0275724Y0100069D01*
X0277258Y0102371D02*
X0280327Y0102371D01*
X0278793Y0102371D02*
X0278793Y0097767D01*
X0248100Y0098534D02*
X0247333Y0097767D01*
X0245798Y0097767D01*
X0245031Y0098534D01*
X0245031Y0099302D01*
X0245798Y0100069D01*
X0246565Y0100069D01*
X0245798Y0100069D02*
X0245031Y0100836D01*
X0245031Y0101604D01*
X0245798Y0102371D01*
X0247333Y0102371D01*
X0248100Y0101604D01*
X0241194Y0100069D02*
X0238892Y0100069D01*
X0238125Y0099302D01*
X0238125Y0098534D01*
X0238892Y0097767D01*
X0240427Y0097767D01*
X0241194Y0098534D01*
X0241194Y0100069D01*
X0239659Y0101604D01*
X0238125Y0102371D01*
X0242729Y0098534D02*
X0242729Y0097767D01*
X0243496Y0097767D01*
X0243496Y0098534D01*
X0242729Y0098534D01*
X0292772Y0140917D02*
X0295841Y0140917D01*
X0292772Y0143986D01*
X0292772Y0144753D01*
X0293539Y0145520D01*
X0295074Y0145520D01*
X0295841Y0144753D01*
X0297376Y0145520D02*
X0297376Y0140917D01*
X0300445Y0145520D01*
X0300445Y0140917D01*
X0301979Y0140917D02*
X0303514Y0142451D01*
X0302747Y0142451D02*
X0305049Y0142451D01*
X0305049Y0140917D02*
X0305049Y0145520D01*
X0302747Y0145520D01*
X0301979Y0144753D01*
X0301979Y0143218D01*
X0302747Y0142451D01*
X0285898Y0150983D02*
X0282062Y0150983D01*
X0281294Y0151751D01*
X0281294Y0153285D01*
X0282062Y0154053D01*
X0285898Y0154053D01*
X0285131Y0155587D02*
X0285898Y0156355D01*
X0285898Y0157889D01*
X0285131Y0158657D01*
X0285131Y0160191D02*
X0285898Y0160959D01*
X0285898Y0162493D01*
X0285131Y0163261D01*
X0284364Y0163261D01*
X0281294Y0160191D01*
X0281294Y0163261D01*
X0275394Y0162483D02*
X0275394Y0165553D01*
X0273860Y0167087D01*
X0272325Y0165553D01*
X0272325Y0162483D01*
X0270790Y0162483D02*
X0267721Y0165553D01*
X0267721Y0166320D01*
X0268489Y0167087D01*
X0270023Y0167087D01*
X0270790Y0166320D01*
X0272325Y0164785D02*
X0275394Y0164785D01*
X0270790Y0162483D02*
X0267721Y0162483D01*
X0266187Y0163251D02*
X0265419Y0162483D01*
X0263885Y0162483D01*
X0263117Y0163251D01*
X0263117Y0166320D01*
X0263885Y0167087D01*
X0265419Y0167087D01*
X0266187Y0166320D01*
X0266187Y0165553D01*
X0265419Y0164785D01*
X0263117Y0164785D01*
X0261583Y0164018D02*
X0260815Y0164785D01*
X0259281Y0164785D01*
X0258513Y0164018D01*
X0258513Y0163251D01*
X0259281Y0162483D01*
X0260815Y0162483D01*
X0261583Y0163251D01*
X0261583Y0164018D01*
X0260815Y0164785D02*
X0261583Y0165553D01*
X0261583Y0166320D01*
X0260815Y0167087D01*
X0259281Y0167087D01*
X0258513Y0166320D01*
X0258513Y0165553D01*
X0259281Y0164785D01*
X0256979Y0166320D02*
X0256211Y0167087D01*
X0254677Y0167087D01*
X0253909Y0166320D01*
X0253909Y0165553D01*
X0256979Y0162483D01*
X0253909Y0162483D01*
X0280527Y0157122D02*
X0286666Y0157122D01*
X0285131Y0155587D02*
X0284364Y0155587D01*
X0283596Y0156355D01*
X0283596Y0157889D01*
X0282829Y0158657D01*
X0282062Y0158657D01*
X0281294Y0157889D01*
X0281294Y0156355D01*
X0282062Y0155587D01*
X0566569Y0140515D02*
X0569639Y0140515D01*
X0568104Y0140515D02*
X0568104Y0145119D01*
X0569639Y0143584D01*
X0571173Y0144352D02*
X0571173Y0145119D01*
X0571173Y0144352D02*
X0572708Y0142817D01*
X0572708Y0140515D01*
X0572708Y0142817D02*
X0574242Y0144352D01*
X0574242Y0145119D01*
X0575777Y0143584D02*
X0575777Y0140515D01*
X0575777Y0142817D02*
X0578846Y0142817D01*
X0578846Y0143584D02*
X0578846Y0140515D01*
X0580381Y0140515D02*
X0583450Y0140515D01*
X0583450Y0145119D01*
X0584985Y0145119D02*
X0588054Y0145119D01*
X0588054Y0140515D01*
X0584985Y0140515D01*
X0586520Y0142817D02*
X0588054Y0142817D01*
X0589589Y0142817D02*
X0590356Y0142050D01*
X0592658Y0142050D01*
X0591124Y0142050D02*
X0589589Y0140515D01*
X0589589Y0142817D02*
X0589589Y0144352D01*
X0590356Y0145119D01*
X0592658Y0145119D01*
X0592658Y0140515D01*
X0578846Y0143584D02*
X0577312Y0145119D01*
X0575777Y0143584D01*
X0319583Y0057646D02*
X0317281Y0057646D01*
X0316514Y0056879D01*
X0316514Y0055344D01*
X0317281Y0054577D01*
X0319583Y0054577D01*
X0318049Y0054577D02*
X0316514Y0053043D01*
X0314979Y0053043D02*
X0314979Y0057646D01*
X0311910Y0053043D01*
X0311910Y0057646D01*
X0310376Y0056112D02*
X0308841Y0057646D01*
X0308841Y0053043D01*
X0310376Y0053043D02*
X0307306Y0053043D01*
X0319583Y0053043D02*
X0319583Y0057646D01*
X0322373Y0045850D02*
X0322373Y0042781D01*
X0322373Y0044316D02*
X0326977Y0044316D01*
X0325442Y0042781D01*
X0326210Y0041246D02*
X0326977Y0040479D01*
X0326977Y0038944D01*
X0326210Y0038177D01*
X0325442Y0038177D01*
X0324675Y0038944D01*
X0324675Y0040479D01*
X0323908Y0041246D01*
X0323140Y0041246D01*
X0322373Y0040479D01*
X0322373Y0038944D01*
X0323140Y0038177D01*
X0323140Y0036643D02*
X0326977Y0036643D01*
X0327744Y0039712D02*
X0321606Y0039712D01*
X0323140Y0036643D02*
X0322373Y0035875D01*
X0322373Y0034341D01*
X0323140Y0033573D01*
X0326977Y0033573D01*
X0334008Y0033954D02*
X0337077Y0030885D01*
X0334008Y0030885D01*
X0338612Y0031652D02*
X0338612Y0032420D01*
X0339379Y0033187D01*
X0340914Y0033187D01*
X0341681Y0033954D01*
X0341681Y0034722D01*
X0340914Y0035489D01*
X0339379Y0035489D01*
X0338612Y0034722D01*
X0338612Y0033954D01*
X0339379Y0033187D01*
X0340914Y0033187D02*
X0341681Y0032420D01*
X0341681Y0031652D01*
X0340914Y0030885D01*
X0339379Y0030885D01*
X0338612Y0031652D01*
X0343216Y0031652D02*
X0343216Y0034722D01*
X0343983Y0035489D01*
X0345518Y0035489D01*
X0346285Y0034722D01*
X0346285Y0033954D01*
X0345518Y0033187D01*
X0343216Y0033187D01*
X0343216Y0031652D02*
X0343983Y0030885D01*
X0345518Y0030885D01*
X0346285Y0031652D01*
X0347820Y0030885D02*
X0350889Y0030885D01*
X0347820Y0033954D01*
X0347820Y0034722D01*
X0348587Y0035489D01*
X0350122Y0035489D01*
X0350889Y0034722D01*
X0352424Y0033954D02*
X0352424Y0030885D01*
X0352424Y0033187D02*
X0355493Y0033187D01*
X0355493Y0033954D02*
X0355493Y0030885D01*
X0355493Y0033954D02*
X0353958Y0035489D01*
X0352424Y0033954D01*
X0337077Y0034722D02*
X0336310Y0035489D01*
X0334775Y0035489D01*
X0334008Y0034722D01*
X0334008Y0033954D01*
D15*
X0490630Y0061406D03*
X0490630Y0066406D03*
X0490630Y0071406D03*
X0490630Y0076406D03*
X0517323Y0076406D03*
X0517323Y0071406D03*
X0517323Y0066406D03*
X0517323Y0061406D03*
M02*
