%
M48
M72
T01C0.01500
T02C0.01772
T03C0.03150
T04C0.03200
T05C0.03543
T06C0.03740
T07C0.03937
T08C0.04000
T09C0.04724
T10C0.06496
T11C0.08661
T12C0.11024
T13C0.12205
T14C0.12598
%
T01
X23253Y18782
X93253Y18157
X125128Y11907
X137003Y6907
X162003Y11907
X166378Y12532
X112003Y32532
X117003Y46907
X101378Y59407
X138878Y67532
X146378Y71282
X122003Y73782
X114503Y76907
X133878Y84407
X129503Y86282
X114503Y92532
X121378Y95657
X137003Y97532
X138253Y101907
X130753Y109407
X147003Y112532
X147003Y116907
X162628Y120657
X186378Y116907
X182628Y101907
X188878Y91907
X157003Y89407
X175128Y73157
X153878Y61282
X160128Y58782
X164503Y58157
X174503Y50657
X204503Y53157
X210753Y55032
X221378Y58157
X226378Y44407
X234503Y41282
X267628Y24407
X292003Y26907
X295128Y22532
X310753Y20032
X283878Y15032
X308878Y37532
X313878Y37532
X295128Y42532
X292003Y38157
X344503Y46282
X349503Y46282
X334503Y57532
X341378Y60032
X318878Y60032
X308253Y56282
X289503Y63782
X311378Y78782
X295753Y83782
X287003Y83157
X283253Y92532
X274503Y101282
X245753Y101907
X230128Y94407
X243253Y90657
X243253Y86282
X220128Y78782
X248878Y111907
X250128Y124407
X295753Y137532
X282003Y146282
X282003Y150657
X276378Y153157
X272003Y152532
X299503Y155657
X302628Y158782
X302628Y163782
X302628Y168157
X317628Y183157
X325128Y186907
X320753Y187532
X377003Y190657
X417003Y174407
X442003Y174407
X448878Y178157
X464503Y190032
X435128Y193782
X502003Y181907
X495128Y164407
X522003Y158157
X523253Y150657
X511378Y147532
X487628Y146907
X468253Y141282
X458878Y146907
X433878Y149407
X403253Y141282
X392628Y137532
X396378Y133782
X400753Y133782
X385753Y145032
X378253Y151907
X371378Y151907
X357628Y148157
X352628Y148157
X357628Y137532
X319503Y148782
X274503Y140657
X268253Y141282
X227628Y140657
X223878Y143782
X212628Y143782
X199503Y146907
X192003Y150657
X211378Y155032
X210753Y161907
X175128Y163157
X149503Y165657
X145128Y165032
X163878Y148782
X153878Y143782
X149503Y133782
X122628Y137532
X116378Y145657
X125753Y148157
X80753Y152532
X74503Y141282
X68253Y133782
X52628Y131282
X68253Y101282
X61378Y54407
X61378Y44407
X348878Y104407
X355128Y108157
X382003Y115032
X400128Y111282
X411378Y114407
X400753Y115657
X389503Y121907
X378878Y122532
X433878Y131907
X457003Y121907
X484503Y118782
X502003Y125032
X487628Y131907
X460128Y107532
X433253Y96907
X413253Y97532
X403253Y95032
X385753Y96907
X368878Y97532
X389503Y104407
X365753Y87532
X389503Y83782
X385128Y79407
X406378Y75032
X392628Y71282
X382628Y61907
X373253Y57532
X383253Y53782
X396378Y53782
X400753Y50657
X396378Y49407
X387003Y46282
X399503Y41282
X396378Y33782
X437628Y41907
X464503Y50032
X468253Y53782
X460753Y57532
X482003Y52532
X432003Y68157
X423878Y75032
X413253Y85657
X437628Y87532
X452003Y85657
X467003Y82532
X478253Y80657
X497628Y71282
X538878Y66282
X502003Y91282
X403253Y58157
X493878Y33157
X450753Y25032
X440128Y22532
X415128Y11282
X475753Y8782
X520128Y15032
X393878Y158157
X407628Y165032
X233878Y176282
X200753Y181907
X221378Y187532
X171378Y184407
X153253Y182532
X146378Y190657
X139503Y193782
X29503Y172532
T02
X521968Y132606
X531968Y132606
T03
X381457Y158512
X371457Y158512
X361457Y158512
X346024Y158512
X336024Y158512
X326024Y158512
X326024Y178512
X336024Y178512
X346024Y178512
X361457Y178512
X371457Y178512
X381457Y178512
X216102Y178512
X206102Y178512
X196102Y178512
X180669Y178512
X170669Y178512
X160669Y178512
X160669Y158512
X170669Y158512
X180669Y158512
X196102Y158512
X206102Y158512
X216102Y158512
T04
X275488Y93744
X275488Y83744
T05
X416626Y64181
X426626Y64181
X436626Y64181
X436535Y154772
X426535Y154772
X416535Y154772
X125551Y154693
X115551Y154693
X105551Y154693
X105551Y64181
X115551Y64181
X125551Y64181
T06
X561968Y132606
X591968Y132606
T07
X385527Y127567
X375527Y127567
X365527Y127567
X355527Y127567
X345527Y127567
X335527Y127567
X325527Y127567
X315527Y127567
X305527Y127567
X295527Y127567
X285527Y127567
X275527Y127567
X265527Y127567
X255527Y127567
X245527Y127567
X235527Y127567
X225527Y127567
X215527Y127567
X205527Y127567
X195527Y127567
X185527Y127567
X175527Y127567
X165527Y127567
X155527Y127567
X205527Y117567
X205527Y107567
X215527Y107567
X225527Y107567
X235527Y107567
X235527Y97567
X225527Y97567
X215527Y97567
X205527Y97567
X195527Y97567
X185527Y97567
X175527Y97567
X165527Y97567
X155527Y97567
X155527Y107567
X165527Y107567
X175527Y107567
X185527Y107567
X195527Y107567
X205527Y87567
X205527Y77567
X205527Y67567
X215527Y67567
X225527Y67567
X235527Y67567
X245527Y67567
X255527Y67567
X265527Y67567
X275527Y67567
X285527Y67567
X295527Y67567
X305527Y67567
X315527Y67567
X325527Y67567
X335527Y67567
X345527Y67567
X355527Y67567
X365527Y67567
X375527Y67567
X385527Y67567
X325527Y97567
X315527Y97567
X305527Y97567
X295527Y97567
X295527Y107567
X305527Y107567
X315527Y107567
X325527Y107567
X335527Y117567
X345527Y117567
X355527Y117567
X375527Y117567
X195527Y67567
X185527Y67567
X175527Y67567
X165527Y67567
X155527Y67567
T08
X154161Y40598
X164201Y40953
X163201Y30953
X153161Y30598
X154161Y20598
X164201Y20953
X197874Y25177
X207874Y25177
X217874Y25177
X227874Y25177
X237874Y25177
X237874Y36177
X227874Y36177
X217874Y36177
X207874Y36177
X197874Y36177
X64685Y36177
X54685Y36177
X44685Y36177
X34685Y36177
X24685Y36177
X24685Y25177
X34685Y25177
X44685Y25177
X54685Y25177
X64685Y25177
X64685Y84311
X54685Y84311
X44685Y84311
X34685Y84311
X24685Y84311
X24685Y95311
X34685Y95311
X44685Y95311
X54685Y95311
X64685Y95311
X64634Y143287
X54634Y143287
X44634Y143287
X34634Y143287
X24634Y143287
X24634Y154287
X34634Y154287
X44634Y154287
X54634Y154287
X64634Y154287
X65984Y183752
X75984Y184752
X95236Y184681
X105236Y183681
X115236Y184681
X125236Y183681
X135236Y184681
X55984Y184752
X40787Y184831
X30787Y183831
X20787Y184831
X406260Y184760
X416260Y183760
X426260Y184760
X436260Y183760
X446260Y184760
X467795Y184339
X477795Y184102
X476795Y174102
X466795Y174339
X467795Y164339
X477795Y164102
X508937Y166909
X518937Y166909
X528937Y166909
X538937Y166909
X548937Y166909
X548937Y177909
X538937Y177909
X528937Y177909
X518937Y177909
X508937Y177909
X608976Y141574
X608976Y130174
X548622Y112634
X538622Y112634
X528622Y112634
X518622Y112634
X508622Y112634
X508622Y101634
X518622Y101634
X528622Y101634
X538622Y101634
X548622Y101634
X478150Y99181
X468110Y99535
X477150Y109181
X467110Y109535
X478150Y119181
X468110Y119535
X467823Y37370
X477980Y37252
X476980Y27252
X466823Y27370
X467823Y17370
X477980Y17252
X508898Y21201
X518898Y21201
X528898Y21201
X538898Y21201
X548898Y21201
X548898Y32201
X538898Y32201
X528898Y32201
X518898Y32201
X508898Y32201
T09
X364527Y164220
X364527Y172843
X329094Y172843
X329094Y164220
X199173Y164220
X199173Y172843
X163740Y172843
X163740Y164220
T10
X275472Y52134
X275472Y33630
X275472Y15126
T11
X216063Y168709
X180630Y168709
X345984Y168709
X381417Y168709
T12
X590630Y157803
X604016Y176701
X604772Y92819
X591386Y73921
X604921Y34890
X591535Y15992
T13
X445523Y34654
X407728Y34654
X425838Y14969
X134449Y34654
X96653Y34654
X114764Y14969
X114764Y105480
X96653Y125165
X134449Y125165
X407638Y125244
X445433Y125244
X425748Y105559
T14
X580165Y92819
X580315Y34890
X579409Y176701
M30
