%
M48
M72
T01C0.0150
T02C0.0177
T03C0.0315
T04C0.0320
T05C0.0354
T06C0.0374
T07C0.0394
T08C0.0400
T09C0.0413
T10C0.0650
T11C0.0709
T12C0.0866
T13C0.1102
T14C0.1260
T15C0.1575
%
T01
X8453Y8850
X9453Y7850
X11253Y10370
X11453Y11370
X9413Y11370
X9133Y13530
X9213Y14410
X7373Y16450
X7133Y16050
X7133Y15330
X6413Y14410
X5533Y15050
X5213Y14290
X4653Y15370
X2733Y16770
X2733Y18370
X2733Y19010
X2413Y19930
X2413Y20930
X1173Y20250
X813Y22690
X2773Y23410
X2653Y23850
X3853Y24090
X4893Y25450
X4293Y27650
X3853Y28250
X2653Y27610
X533Y29450
X4293Y31330
X6333Y29170
X7053Y30130
X7893Y29290
X8413Y31490
X7813Y32090
X8573Y32850
X9453Y31490
X11133Y33210
X11693Y33210
X12333Y31650
X12493Y30410
X12733Y29930
X12973Y29130
X11693Y30090
X10973Y29370
X10413Y28850
X10293Y27890
X10293Y26130
X11733Y26810
X12133Y26610
X12413Y27330
X13453Y25370
X15093Y27250
X15693Y27570
X16973Y28010
X18533Y28370
X18813Y29090
X19453Y28450
X19253Y28050
X17973Y29450
X17893Y32450
X21173Y35490
X22573Y34530
X22893Y33890
X23853Y32450
X24573Y32210
X25253Y31450
X26733Y32890
X27173Y33890
X26293Y33930
X25173Y35130
X22413Y38570
X19533Y36050
X18613Y37090
X17933Y36410
X18853Y38450
X22613Y30250
X21413Y27450
X22533Y26330
X23053Y26330
X25013Y26010
X27813Y27330
X29213Y26410
X28493Y25010
X29173Y24650
X27533Y22170
X26213Y22370
X26213Y20570
X26773Y19610
X28333Y20250
X29413Y19530
X30973Y18770
X28773Y17610
X28773Y15090
X26933Y13690
X26333Y13690
X25493Y13690
X25173Y14170
X24373Y13010
X24773Y12290
X25493Y12290
X27933Y12090
X28253Y11730
X28333Y6570
X33693Y2610
X34173Y3330
X35173Y14730
X36053Y17090
X35173Y17250
X36053Y18130
X35653Y20490
X34813Y20890
X33733Y21850
X32733Y23970
X34813Y24210
X37693Y24770
X37213Y27130
X36693Y27130
X36253Y27130
X37493Y27850
X31693Y27090
X29533Y29770
X27813Y29250
X21893Y23290
X20813Y23410
X20653Y22250
X21093Y22250
X19573Y22850
X19293Y23490
X18253Y21970
X18173Y20290
X18413Y19850
X19053Y19970
X19853Y20450
X21693Y19610
X22573Y20250
X23373Y20850
X23213Y21250
X24453Y18490
X24893Y18610
X25213Y18290
X24133Y17010
X23413Y17010
X21693Y18170
X21293Y17250
X20693Y18530
X18373Y17210
X17693Y17450
X17613Y18610
X17813Y15810
X18253Y15770
X19253Y15050
X19453Y13050
X19773Y11290
X19773Y9570
X18773Y7770
X17933Y7290
X16173Y8690
X15533Y9330
X17493Y9450
X16333Y12450
X15973Y13050
X15413Y13610
X15053Y14090
X15053Y15090
X15773Y15530
X15053Y16210
X13053Y14770
X12813Y15130
X12773Y13810
X13133Y13490
X13373Y13130
X14653Y12850
X15053Y12290
X13413Y10010
X14813Y6690
X11933Y4850
X11053Y4850
X14613Y2690
X21413Y7770
X22293Y11290
X13533Y19850
X12093Y18810
X11773Y19090
X11733Y18530
X11773Y17330
X10613Y17410
X9933Y18130
X9933Y19010
X10773Y20210
X11333Y19890
X12853Y21850
X13173Y22170
X10253Y24250
X9013Y23050
X9293Y22650
X5413Y22290
X4773Y20730
X5093Y18770
X5453Y17730
X6413Y17730
X8013Y18410
X11453Y16010
X3733Y18850
X3493Y22690
X1933Y15010
X1573Y13770
X15213Y25490
X17173Y24730
X17573Y25690
X18053Y25650
X14733Y29090
X5333Y33610
X32093Y16610
X37093Y21410
T02
X29598Y29051
X28598Y29051
T03
X24401Y24752
X23401Y24752
X22401Y24752
X22401Y22752
X23401Y22752
X24401Y22752
X12590Y22752
X11590Y22752
X10590Y22752
X10590Y24752
X11590Y24752
X12590Y24752
X12590Y9791
X11590Y9791
X10590Y9791
X10590Y7791
X11590Y7791
X12590Y7791
X22401Y7791
X23401Y7791
X24401Y7791
X24401Y9791
X23401Y9791
X22401Y9791
T04
X19070Y8217
X17889Y8717
X16708Y8717
X15527Y8717
X15527Y5717
X16708Y5717
X17889Y5717
X19070Y6217
X22968Y14681
X22968Y15681
X22968Y16681
X22968Y17681
X25968Y17681
X25968Y16681
X25968Y15681
X25968Y14681
X17496Y26795
X17496Y27795
T05
X28307Y31823
X29307Y31823
X30307Y31823
X6684Y31823
X5684Y31823
X4684Y31823
X4684Y7413
X5684Y7413
X6684Y7413
X28307Y7413
X29307Y7413
X30307Y7413
T06
X32598Y29051
X35598Y29051
T07
X20143Y28952
X20143Y27952
X20143Y26952
X20143Y25952
X20143Y24952
X20143Y23952
X20143Y22952
X20143Y21952
X20143Y20952
X19143Y20952
X18143Y20952
X17143Y20952
X17143Y21952
X16143Y21952
X16143Y20952
X15143Y20952
X14143Y20952
X14143Y21952
X14143Y22952
X14143Y23952
X14143Y24952
X14143Y25952
X14143Y26952
X14143Y27952
X14143Y28952
X14143Y29952
X14143Y30952
X14143Y31952
X14143Y32952
X14143Y33952
X14143Y34952
X15143Y34952
X15143Y33952
X16143Y32952
X16143Y31952
X16143Y30952
X16143Y29952
X17143Y29952
X17143Y30952
X17143Y31952
X17143Y32952
X20143Y32952
X20143Y31952
X20143Y30952
X20143Y29952
X20143Y33952
X20143Y34952
X20143Y35952
X20143Y36952
X20143Y37952
X20143Y38952
X15143Y37952
X14143Y37952
X14143Y38952
X14143Y36952
X14143Y35952
X15143Y35952
X16143Y23952
X16143Y22952
X17143Y22952
X17143Y23952
X17143Y19952
X17143Y18952
X17143Y17952
X17143Y16952
X17143Y15952
X16143Y15952
X16143Y16952
X16143Y17952
X16143Y18952
X16143Y19952
X14143Y19952
X14143Y18952
X14143Y17952
X14143Y16952
X14143Y15952
X20143Y15952
X20143Y16952
X20143Y17952
X20143Y18952
X20143Y19952
T08
X30062Y19643
X30062Y20743
X31062Y20743
X32062Y20743
X32062Y19643
X31062Y19643
X33062Y19643
X34062Y19643
X34062Y20743
X33062Y20743
X33062Y24797
X34062Y24797
X34062Y25897
X33062Y25897
X32062Y25897
X31062Y25897
X30062Y25897
X30062Y24797
X31062Y24797
X32062Y24797
X38328Y24520
X38428Y25520
X38418Y26518
X38318Y27518
X38418Y28518
X38412Y29913
X38312Y30913
X38412Y31913
X38416Y32910
X38316Y33910
X38416Y34910
X38428Y23520
X38435Y22119
X38335Y21119
X38435Y20119
X38443Y19122
X38343Y18122
X38443Y17122
X38437Y15750
X38337Y14750
X38437Y13750
X38337Y12750
X38437Y11750
X38451Y10349
X38351Y9349
X38451Y8349
X38442Y7343
X38342Y6343
X38442Y5343
X32881Y4617
X31881Y4617
X30881Y4617
X29881Y4617
X28881Y4617
X28881Y3517
X29881Y3517
X30881Y3517
X31881Y3517
X32881Y3517
X33062Y14545
X34062Y14545
X34062Y15645
X33062Y15645
X32062Y15645
X31062Y15645
X30062Y15645
X30062Y14545
X31062Y14545
X32062Y14545
X11085Y32020
X9945Y32020
X9728Y28633
X8728Y28633
X7728Y28633
X6728Y28633
X5728Y28633
X5728Y27533
X6728Y27533
X7728Y27533
X8728Y27533
X9728Y27533
X9653Y20755
X9653Y19655
X8653Y19655
X7653Y19655
X7653Y20755
X8653Y20755
X6653Y20755
X5653Y20755
X5653Y19655
X6653Y19655
X1356Y21182
X1256Y22182
X1356Y23182
X1338Y24189
X1238Y25189
X1338Y26189
X1283Y28063
X1183Y29063
X1283Y30063
X1303Y31080
X1203Y32080
X1303Y33080
X5370Y38248
X6510Y38248
X1229Y18351
X1329Y17351
X1229Y16351
X1329Y15351
X1229Y14351
X1442Y11497
X1342Y10497
X1442Y9497
X1455Y8491
X1355Y7491
X1455Y6491
X6047Y4617
X7047Y4617
X8047Y4617
X9047Y4617
X10047Y4617
X10047Y3517
X9047Y3517
X8047Y3517
X7047Y3517
X6047Y3517
T09
X10897Y8362
X10897Y9224
X22708Y9224
X22708Y8362
X22708Y23323
X22708Y24185
X10897Y24185
X10897Y23323
T10
X17496Y14579
X17496Y12728
X17496Y10878
T11
X27417Y10366
X31196Y10366
X7574Y10366
X3795Y10366
X3795Y34776
X7574Y34776
X27417Y34776
X31196Y34776
T12
X24397Y23772
X12586Y23772
X12586Y8811
X24397Y8811
T13
X25818Y36055
X23929Y37394
X33879Y37394
X35769Y36055
X12322Y36055
X10433Y37394
T14
X10433Y34933
X23929Y34933
X33879Y34933
T15
X2141Y2099
X2141Y37532
X37968Y37925
X37968Y1705
M30
