%
M48
M72
T01C0.0150
T02C0.0177
T03C0.0315
T04C0.0320
T05C0.0354
T06C0.0374
T07C0.0394
T08C0.0400
T09C0.0472
T10C0.0650
T11C0.0709
T12C0.0866
T13C0.1102
T14C0.1260
T15C0.1575
%
T01
X4570Y2730
X8810Y1810
X9130Y2290
X11170Y3250
X13890Y3170
X13890Y2650
X13970Y2170
X15650Y2090
X15410Y3290
X17970Y2810
X19330Y3570
X20130Y3850
X20570Y4810
X20330Y5170
X19890Y5650
X19330Y6210
X19810Y6690
X20290Y6690
X20290Y7130
X19410Y8010
X18690Y8290
X17890Y7850
X16770Y7250
X14930Y7250
X14370Y7570
X14050Y7850
X14570Y8130
X14810Y8490
X13530Y8770
X12370Y9170
X11890Y10330
X11010Y11210
X10290Y11930
X8410Y11530
X8410Y12930
X8090Y13210
X5250Y12330
X4730Y12290
X970Y14570
X5490Y16490
X6130Y17650
X4090Y19130
X4210Y20050
X4210Y21330
X2730Y20370
X6290Y20650
X6770Y20570
X7370Y21170
X8450Y20890
X9850Y20650
X10570Y20970
X10970Y20810
X10890Y22010
X10450Y21970
X11570Y22450
X10250Y23570
X11370Y24130
X8730Y24810
X7690Y25210
X7690Y22810
X10130Y19290
X10850Y17930
X10130Y17770
X10210Y16650
X8770Y17170
X8450Y18930
X11810Y18650
X12570Y18290
X13010Y18370
X12850Y17930
X11770Y16970
X11330Y14810
X13930Y14850
X14770Y15250
X15850Y14290
X16970Y15370
X15490Y16490
X17090Y16690
X18810Y17610
X18810Y18050
X19970Y17290
X21370Y17010
X19770Y16210
X21530Y15170
X21530Y14010
X19610Y13170
X20930Y11850
X24290Y11010
X24330Y11490
X25330Y12130
X26130Y11970
X27930Y12010
X23930Y10050
X22930Y7530
X22930Y5970
X22610Y5690
X23050Y5250
X24130Y4770
X25530Y5530
X28770Y5250
X29090Y5570
X31290Y5850
X32490Y4890
X33290Y2850
X32730Y2370
X30850Y2330
X29170Y1530
X28690Y850
X21770Y2170
X18210Y1730
X18130Y5850
X16090Y5850
X12210Y5410
X10930Y6130
X10330Y7570
X10290Y8130
X9690Y8330
X9050Y9050
X7170Y8690
X9650Y7410
X8010Y5730
X16650Y10530
X17210Y11370
X17450Y12130
X23850Y14370
X23610Y16250
X24130Y16770
X25690Y17530
X28250Y17250
X28930Y18970
X32050Y17930
X34210Y15770
X35450Y14370
X37450Y14330
X36610Y11290
X32930Y8370
X27330Y15130
X20090Y18730
X18930Y20970
X20690Y21250
X21130Y21250
X20290Y22770
X16570Y25450
X16610Y26370
X15050Y26970
X15050Y27850
X16570Y27850
X17170Y29330
X19370Y27570
X22570Y28530
X23610Y28810
X25970Y27130
X26770Y25490
X29570Y23850
X29290Y22850
X29890Y22250
X32410Y23730
X32770Y24650
X33210Y25570
X30890Y27130
X30530Y28330
X35410Y22970
X38690Y20090
X14370Y19210
X13410Y22290
X13930Y22570
X12290Y26810
X13090Y26970
X12090Y27850
T02
X21329Y1690
X22329Y1690
T03
X25902Y19209
X26902Y19209
X27902Y19209
X29839Y19209
X30839Y19209
X31839Y19209
X31839Y21209
X30839Y21209
X29839Y21209
X27902Y21209
X26902Y21209
X25902Y21209
X17665Y21209
X16665Y21209
X15665Y21209
X13728Y21209
X12728Y21209
X11728Y21209
X11728Y19209
X12728Y19209
X13728Y19209
X15665Y19209
X16665Y19209
X17665Y19209
T04
X21784Y13228
X21784Y12228
T05
X35744Y7807
X36744Y7807
X37744Y7807
X37744Y18831
X36744Y18831
X35744Y18831
X7823Y18831
X6823Y18831
X5823Y18831
X5823Y7413
X6823Y7413
X7823Y7413
T06
X25329Y1690
X28329Y1690
T07
X28427Y9721
X27427Y9721
X26427Y9721
X25427Y9721
X24427Y9721
X23427Y9721
X22427Y9721
X21427Y9721
X20427Y9721
X19427Y9721
X18427Y9721
X17427Y9721
X16427Y9721
X15427Y9721
X15427Y10721
X14427Y9721
X13427Y9721
X12427Y9721
X11427Y9721
X10427Y9721
X10427Y12721
X11427Y12721
X11427Y13721
X10427Y13721
X12427Y13721
X13427Y13721
X14427Y13721
X15427Y13721
X16427Y13721
X17427Y13721
X18427Y13721
X18427Y12721
X17427Y12721
X16427Y12721
X15427Y12721
X14427Y12721
X13427Y12721
X12427Y12721
X15427Y11721
X15427Y14721
X15427Y15721
X16427Y15721
X17427Y15721
X18427Y15721
X19427Y15721
X20427Y15721
X21427Y15721
X22427Y15721
X23427Y15721
X24427Y15721
X25427Y15721
X26427Y15721
X27427Y15721
X28427Y15721
X29427Y15721
X30427Y15721
X31427Y15721
X32427Y15721
X33427Y15721
X32427Y14721
X30427Y14721
X29427Y14721
X28427Y14721
X27427Y13721
X26427Y13721
X25427Y13721
X24427Y13721
X24427Y12721
X25427Y12721
X26427Y12721
X27427Y12721
X29427Y9721
X30427Y9721
X31427Y9721
X32427Y9721
X33427Y9721
X14427Y15721
X13427Y15721
X12427Y15721
X11427Y15721
X10427Y15721
T08
X6461Y14849
X5461Y14849
X4461Y14849
X3461Y14849
X2461Y14849
X2461Y13749
X3461Y13749
X4461Y13749
X5461Y13749
X6461Y13749
X1008Y17732
X1108Y18732
X1008Y19732
X1108Y20732
X1008Y21732
X2461Y24781
X3461Y24781
X4461Y24781
X5461Y24781
X6461Y24781
X6461Y25881
X5461Y25881
X4461Y25881
X3461Y25881
X2461Y25881
X9658Y29786
X10658Y29686
X11658Y29786
X13960Y29746
X14960Y29646
X15960Y29746
X17933Y29693
X18933Y29793
X19933Y29693
X22221Y29673
X23221Y29773
X24221Y29673
X26095Y29728
X27095Y29828
X28095Y29728
X30795Y29669
X31795Y29769
X32795Y29669
X34842Y29796
X35982Y29796
X31339Y25877
X30339Y25877
X29339Y25877
X28339Y25877
X27339Y25877
X27339Y24777
X28339Y24777
X29339Y24777
X30339Y24777
X31339Y24777
X22996Y24773
X21996Y24773
X20996Y24773
X19996Y24773
X18996Y24773
X18996Y25873
X19996Y25873
X20996Y25873
X21996Y25873
X22996Y25873
X14723Y25873
X13723Y25873
X12723Y25873
X11723Y25873
X10723Y25873
X10723Y24773
X11723Y24773
X12723Y24773
X13723Y24773
X14723Y24773
X1026Y8965
X1126Y7965
X1026Y6965
X1126Y5965
X1026Y4965
X5738Y4995
X6738Y4995
X7738Y4995
X8738Y4995
X9738Y4995
X9738Y3895
X8738Y3895
X7738Y3895
X6738Y3895
X5738Y3895
X6534Y867
X5534Y767
X4534Y867
X8982Y839
X9982Y739
X10982Y839
X13315Y839
X14315Y739
X15315Y839
X17318Y843
X18318Y743
X19318Y843
X18189Y3931
X17189Y3931
X16189Y3931
X15189Y3931
X14189Y3931
X14189Y5031
X15189Y5031
X16189Y5031
X17189Y5031
X18189Y5031
T09
X15973Y19780
X15973Y20642
X12036Y20642
X12036Y19780
X26209Y19780
X26209Y20642
X30146Y20642
X30146Y19780
T10
X21741Y8152
X21741Y6302
X21741Y4451
T11
X8713Y10366
X4933Y10366
X4933Y21784
X8713Y21784
X34854Y21784
X38634Y21784
X38634Y10760
X34854Y10760
T12
X31835Y20228
X27898Y20228
X17661Y20228
X13724Y20228
T13
X36492Y24752
X37831Y26642
X37795Y16423
X36456Y14534
X37811Y5114
X36473Y3224
T14
X35350Y5114
X35334Y16423
X35370Y26642
T15
X1705Y1705
X37925Y1705
X1705Y28870
M30
