G75*
%MOIN*%
%OFA0B0*%
%FSLAX25Y25*%
%IPPOS*%
%LPD*%
%AMOC8*
5,1,8,0,0,1.08239X$1,22.5*
%
%ADD10C,0.01700*%
%ADD11C,0.00600*%
%ADD12C,0.00800*%
%ADD13C,0.01000*%
%ADD14C,0.00500*%
%ADD15C,0.01200*%
%ADD16C,0.01300*%
D10*
X0124612Y0037563D02*
X0124612Y0044469D01*
X0126914Y0042167D01*
X0129216Y0044469D01*
X0129216Y0037563D01*
X0132531Y0038714D02*
X0132531Y0043318D01*
X0133682Y0044469D01*
X0135984Y0044469D01*
X0137135Y0043318D01*
X0137135Y0038714D01*
X0135984Y0037563D01*
X0133682Y0037563D01*
X0132531Y0038714D01*
X0148368Y0044469D02*
X0152972Y0044469D01*
X0150670Y0044469D02*
X0150670Y0037563D01*
X0156287Y0038714D02*
X0156287Y0041016D01*
X0157438Y0042167D01*
X0159740Y0042167D01*
X0160891Y0041016D01*
X0160891Y0039865D01*
X0156287Y0039865D01*
X0156287Y0038714D02*
X0157438Y0037563D01*
X0159740Y0037563D01*
X0164206Y0038714D02*
X0164206Y0041016D01*
X0165357Y0042167D01*
X0167659Y0042167D01*
X0168810Y0041016D01*
X0168810Y0039865D01*
X0164206Y0039865D01*
X0164206Y0038714D02*
X0165357Y0037563D01*
X0167659Y0037563D01*
X0172125Y0037563D02*
X0172125Y0042167D01*
X0175578Y0042167D01*
X0176729Y0041016D01*
X0176729Y0037563D01*
X0180044Y0037563D02*
X0183496Y0037563D01*
X0184647Y0038714D01*
X0183496Y0039865D01*
X0181195Y0039865D01*
X0180044Y0041016D01*
X0181195Y0042167D01*
X0184647Y0042167D01*
X0187962Y0042167D02*
X0187962Y0038714D01*
X0189113Y0037563D01*
X0192566Y0037563D01*
X0192566Y0036412D02*
X0191415Y0035261D01*
X0190264Y0035261D01*
X0192566Y0036412D02*
X0192566Y0042167D01*
X0203800Y0041016D02*
X0207253Y0041016D01*
X0208404Y0039865D01*
X0208404Y0038714D01*
X0207253Y0037563D01*
X0203800Y0037563D01*
X0203800Y0044469D01*
X0207253Y0044469D01*
X0208404Y0043318D01*
X0208404Y0042167D01*
X0207253Y0041016D01*
X0211719Y0039865D02*
X0214021Y0042167D01*
X0215172Y0042167D01*
X0218318Y0041016D02*
X0219469Y0042167D01*
X0221770Y0042167D01*
X0222921Y0041016D01*
X0222921Y0039865D01*
X0218318Y0039865D01*
X0218318Y0038714D02*
X0218318Y0041016D01*
X0218318Y0038714D02*
X0219469Y0037563D01*
X0221770Y0037563D01*
X0226236Y0038714D02*
X0227387Y0039865D01*
X0230840Y0039865D01*
X0230840Y0041016D02*
X0230840Y0037563D01*
X0227387Y0037563D01*
X0226236Y0038714D01*
X0227387Y0042167D02*
X0229689Y0042167D01*
X0230840Y0041016D01*
X0234155Y0039865D02*
X0237608Y0042167D01*
X0240754Y0041016D02*
X0240754Y0038714D01*
X0241905Y0037563D01*
X0244207Y0037563D01*
X0245358Y0038714D01*
X0245358Y0041016D01*
X0244207Y0042167D01*
X0241905Y0042167D01*
X0240754Y0041016D01*
X0237608Y0037563D02*
X0234155Y0039865D01*
X0234155Y0037563D02*
X0234155Y0044469D01*
X0248673Y0042167D02*
X0248673Y0038714D01*
X0249824Y0037563D01*
X0253277Y0037563D01*
X0253277Y0042167D01*
X0256592Y0042167D02*
X0258894Y0042167D01*
X0257743Y0043318D02*
X0257743Y0038714D01*
X0258894Y0037563D01*
X0211719Y0037563D02*
X0211719Y0042167D01*
D11*
X0214280Y0025251D02*
X0214280Y0024684D01*
X0214280Y0023550D02*
X0214280Y0021281D01*
X0213713Y0021281D02*
X0214847Y0021281D01*
X0216168Y0021281D02*
X0216168Y0023550D01*
X0217870Y0023550D01*
X0218437Y0022983D01*
X0218437Y0021281D01*
X0214280Y0023550D02*
X0213713Y0023550D01*
X0208615Y0023550D02*
X0206914Y0023550D01*
X0206347Y0022983D01*
X0206347Y0021848D01*
X0206914Y0021281D01*
X0208615Y0021281D01*
X0208615Y0024684D01*
X0204932Y0022983D02*
X0204932Y0022415D01*
X0202663Y0022415D01*
X0202663Y0021848D02*
X0202663Y0022983D01*
X0203231Y0023550D01*
X0204365Y0023550D01*
X0204932Y0022983D01*
X0204365Y0021281D02*
X0203231Y0021281D01*
X0202663Y0021848D01*
X0201249Y0021281D02*
X0201249Y0022983D01*
X0200682Y0023550D01*
X0198980Y0023550D01*
X0198980Y0021281D01*
X0197659Y0021281D02*
X0196525Y0021281D01*
X0197092Y0021281D02*
X0197092Y0023550D01*
X0196525Y0023550D01*
X0197092Y0024684D02*
X0197092Y0025251D01*
X0195110Y0023550D02*
X0193409Y0023550D01*
X0192842Y0022983D01*
X0192842Y0021848D01*
X0193409Y0021281D01*
X0195110Y0021281D01*
X0195110Y0020714D02*
X0195110Y0023550D01*
X0195110Y0020714D02*
X0194543Y0020147D01*
X0193976Y0020147D01*
X0191427Y0021848D02*
X0190860Y0022415D01*
X0189726Y0022415D01*
X0189159Y0022983D01*
X0189726Y0023550D01*
X0191427Y0023550D01*
X0191427Y0021848D02*
X0190860Y0021281D01*
X0189159Y0021281D01*
X0187744Y0022415D02*
X0185475Y0022415D01*
X0185475Y0021848D02*
X0185475Y0022983D01*
X0186043Y0023550D01*
X0187177Y0023550D01*
X0187744Y0022983D01*
X0187744Y0022415D01*
X0187177Y0021281D02*
X0186043Y0021281D01*
X0185475Y0021848D01*
X0184061Y0021848D02*
X0184061Y0024117D01*
X0183494Y0024684D01*
X0181792Y0024684D01*
X0181792Y0021281D01*
X0183494Y0021281D01*
X0184061Y0021848D01*
X0176788Y0021848D02*
X0176221Y0021848D01*
X0176221Y0021281D01*
X0176788Y0021281D01*
X0176788Y0021848D01*
X0176788Y0021281D02*
X0175654Y0020147D01*
X0174333Y0021281D02*
X0173198Y0021281D01*
X0173766Y0021281D02*
X0173766Y0023550D01*
X0173198Y0023550D01*
X0173766Y0024684D02*
X0173766Y0025251D01*
X0171784Y0022983D02*
X0171784Y0021281D01*
X0171784Y0022983D02*
X0171217Y0023550D01*
X0169515Y0023550D01*
X0169515Y0021281D01*
X0168101Y0022415D02*
X0165832Y0022415D01*
X0165832Y0021848D02*
X0165832Y0022983D01*
X0166399Y0023550D01*
X0167534Y0023550D01*
X0168101Y0022983D01*
X0168101Y0022415D01*
X0167534Y0021281D02*
X0166399Y0021281D01*
X0165832Y0021848D01*
X0164418Y0021281D02*
X0164418Y0022983D01*
X0163850Y0023550D01*
X0163283Y0022983D01*
X0163283Y0021281D01*
X0162149Y0021281D02*
X0162149Y0023550D01*
X0162716Y0023550D01*
X0163283Y0022983D01*
X0160734Y0022983D02*
X0160167Y0023550D01*
X0159033Y0023550D01*
X0158466Y0022983D01*
X0158466Y0021848D01*
X0159033Y0021281D01*
X0160167Y0021281D01*
X0160734Y0021848D01*
X0160734Y0022983D01*
X0157051Y0024684D02*
X0157051Y0021281D01*
X0154783Y0021281D02*
X0154783Y0024684D01*
X0155917Y0023550D01*
X0157051Y0024684D01*
X0149211Y0024684D02*
X0149211Y0025251D01*
X0149211Y0023550D02*
X0149211Y0021281D01*
X0148644Y0021281D02*
X0149778Y0021281D01*
X0149211Y0023550D02*
X0148644Y0023550D01*
X0146756Y0024684D02*
X0146756Y0021281D01*
X0146189Y0021281D02*
X0147323Y0021281D01*
X0144774Y0021281D02*
X0144774Y0023550D01*
X0143640Y0024684D01*
X0142505Y0023550D01*
X0142505Y0021281D01*
X0142505Y0022983D02*
X0144774Y0022983D01*
X0146189Y0024684D02*
X0146756Y0024684D01*
X0137408Y0024684D02*
X0137408Y0024117D01*
X0135139Y0021848D01*
X0135139Y0021281D01*
X0133725Y0021281D02*
X0131456Y0021281D01*
X0132590Y0021281D02*
X0132590Y0024684D01*
X0131456Y0023550D01*
X0130042Y0024117D02*
X0129474Y0024684D01*
X0128340Y0024684D01*
X0127773Y0024117D01*
X0127773Y0021848D01*
X0130042Y0024117D01*
X0130042Y0021848D01*
X0129474Y0021281D01*
X0128340Y0021281D01*
X0127773Y0021848D01*
X0126358Y0021281D02*
X0124090Y0021281D01*
X0126358Y0023550D01*
X0126358Y0024117D01*
X0125791Y0024684D01*
X0124657Y0024684D01*
X0124090Y0024117D01*
X0135139Y0024684D02*
X0137408Y0024684D01*
X0136841Y0012873D02*
X0137408Y0012306D01*
X0137408Y0011739D01*
X0136841Y0011172D01*
X0137408Y0010604D01*
X0137408Y0010037D01*
X0136841Y0009470D01*
X0135706Y0009470D01*
X0135139Y0010037D01*
X0136273Y0011172D02*
X0136841Y0011172D01*
X0136841Y0012873D02*
X0135706Y0012873D01*
X0135139Y0012306D01*
X0133725Y0011172D02*
X0131456Y0011172D01*
X0130042Y0011739D02*
X0130042Y0012306D01*
X0129474Y0012873D01*
X0128340Y0012873D01*
X0127773Y0012306D01*
X0126358Y0011739D02*
X0125224Y0009470D01*
X0124090Y0011739D01*
X0127773Y0009470D02*
X0130042Y0011739D01*
X0130042Y0009470D02*
X0127773Y0009470D01*
X0138822Y0010037D02*
X0139389Y0010604D01*
X0141091Y0010604D01*
X0141091Y0011172D02*
X0141091Y0009470D01*
X0139389Y0009470D01*
X0138822Y0010037D01*
X0139389Y0011739D02*
X0140524Y0011739D01*
X0141091Y0011172D01*
X0223535Y0021281D02*
X0223535Y0024684D01*
X0225236Y0024684D01*
X0225803Y0024117D01*
X0225803Y0022983D01*
X0225236Y0022415D01*
X0223535Y0022415D01*
X0227218Y0021281D02*
X0228352Y0021281D01*
X0227785Y0021281D02*
X0227785Y0023550D01*
X0227218Y0023550D01*
X0227785Y0024684D02*
X0227785Y0025251D01*
X0229673Y0023550D02*
X0230808Y0023550D01*
X0230240Y0024117D02*
X0230240Y0021848D01*
X0230808Y0021281D01*
X0232696Y0021848D02*
X0233263Y0021281D01*
X0232696Y0021848D02*
X0232696Y0024117D01*
X0232129Y0023550D02*
X0233263Y0023550D01*
X0234584Y0022983D02*
X0235151Y0023550D01*
X0236853Y0023550D01*
X0236286Y0022415D02*
X0235151Y0022415D01*
X0234584Y0022983D01*
X0234584Y0021281D02*
X0236286Y0021281D01*
X0236853Y0021848D01*
X0236286Y0022415D01*
X0238267Y0021281D02*
X0239969Y0021281D01*
X0240536Y0021848D01*
X0240536Y0022983D01*
X0239969Y0023550D01*
X0238267Y0023550D01*
X0238267Y0024684D02*
X0238267Y0021281D01*
X0241950Y0021848D02*
X0242518Y0021281D01*
X0244219Y0021281D01*
X0244219Y0023550D01*
X0245634Y0023550D02*
X0245634Y0021281D01*
X0245634Y0022415D02*
X0246768Y0023550D01*
X0247335Y0023550D01*
X0248703Y0022983D02*
X0248703Y0021848D01*
X0249270Y0021281D01*
X0250971Y0021281D01*
X0250971Y0020714D02*
X0250971Y0023550D01*
X0249270Y0023550D01*
X0248703Y0022983D01*
X0249837Y0020147D02*
X0250404Y0020147D01*
X0250971Y0020714D01*
X0252386Y0021281D02*
X0252386Y0024684D01*
X0252953Y0023550D02*
X0254087Y0023550D01*
X0254655Y0022983D01*
X0254655Y0021281D01*
X0252386Y0022983D02*
X0252953Y0023550D01*
X0241950Y0023550D02*
X0241950Y0021848D01*
X0168955Y0347757D02*
X0168957Y0347911D01*
X0168963Y0348065D01*
X0168973Y0348219D01*
X0168987Y0348373D01*
X0169004Y0348526D01*
X0169026Y0348678D01*
X0169052Y0348830D01*
X0169081Y0348982D01*
X0169115Y0349132D01*
X0169152Y0349282D01*
X0169193Y0349430D01*
X0169238Y0349578D01*
X0169287Y0349724D01*
X0169339Y0349869D01*
X0169395Y0350012D01*
X0169455Y0350155D01*
X0169518Y0350295D01*
X0169585Y0350434D01*
X0169656Y0350571D01*
X0169730Y0350706D01*
X0169807Y0350839D01*
X0169888Y0350971D01*
X0169972Y0351100D01*
X0170060Y0351227D01*
X0170151Y0351351D01*
X0170244Y0351473D01*
X0170342Y0351593D01*
X0170442Y0351710D01*
X0170545Y0351825D01*
X0170651Y0351937D01*
X0170759Y0352046D01*
X0170871Y0352152D01*
X0170985Y0352256D01*
X0171102Y0352356D01*
X0171221Y0352454D01*
X0171343Y0352548D01*
X0171468Y0352639D01*
X0180955Y0347757D02*
X0180953Y0347605D01*
X0180947Y0347454D01*
X0180938Y0347303D01*
X0180924Y0347151D01*
X0180907Y0347001D01*
X0180886Y0346851D01*
X0180861Y0346701D01*
X0180833Y0346552D01*
X0180800Y0346404D01*
X0180764Y0346257D01*
X0180725Y0346110D01*
X0180681Y0345965D01*
X0180634Y0345821D01*
X0180583Y0345678D01*
X0180529Y0345537D01*
X0180471Y0345396D01*
X0180410Y0345258D01*
X0180345Y0345121D01*
X0180276Y0344985D01*
X0180205Y0344852D01*
X0180130Y0344720D01*
X0180051Y0344590D01*
X0179970Y0344463D01*
X0179885Y0344337D01*
X0179797Y0344213D01*
X0179706Y0344092D01*
X0179612Y0343973D01*
X0179514Y0343857D01*
X0179414Y0343743D01*
X0179312Y0343631D01*
X0179206Y0343523D01*
X0179098Y0343417D01*
X0178987Y0343313D01*
X0178873Y0343213D01*
X0178757Y0343115D01*
X0178638Y0343021D01*
X0180955Y0347757D02*
X0180953Y0347909D01*
X0180947Y0348060D01*
X0180938Y0348211D01*
X0180924Y0348363D01*
X0180907Y0348513D01*
X0180886Y0348663D01*
X0180861Y0348813D01*
X0180833Y0348962D01*
X0180800Y0349110D01*
X0180764Y0349257D01*
X0180725Y0349404D01*
X0180681Y0349549D01*
X0180634Y0349693D01*
X0180583Y0349836D01*
X0180529Y0349977D01*
X0180471Y0350118D01*
X0180410Y0350256D01*
X0180345Y0350393D01*
X0180276Y0350529D01*
X0180205Y0350662D01*
X0180130Y0350794D01*
X0180051Y0350924D01*
X0179970Y0351051D01*
X0179885Y0351177D01*
X0179797Y0351301D01*
X0179706Y0351422D01*
X0179612Y0351541D01*
X0179514Y0351657D01*
X0179414Y0351771D01*
X0179312Y0351883D01*
X0179206Y0351991D01*
X0179098Y0352097D01*
X0178987Y0352201D01*
X0178873Y0352301D01*
X0178757Y0352399D01*
X0178638Y0352493D01*
X0168955Y0347757D02*
X0168957Y0347607D01*
X0168963Y0347456D01*
X0168972Y0347306D01*
X0168985Y0347157D01*
X0169002Y0347007D01*
X0169023Y0346858D01*
X0169047Y0346710D01*
X0169075Y0346562D01*
X0169107Y0346415D01*
X0169142Y0346269D01*
X0169182Y0346124D01*
X0169224Y0345980D01*
X0169271Y0345837D01*
X0169321Y0345695D01*
X0169374Y0345554D01*
X0169431Y0345415D01*
X0169491Y0345277D01*
X0169555Y0345141D01*
X0169622Y0345007D01*
X0169693Y0344874D01*
X0169767Y0344743D01*
X0169844Y0344614D01*
X0169925Y0344487D01*
X0170008Y0344362D01*
X0170095Y0344239D01*
X0170184Y0344118D01*
X0170277Y0344000D01*
X0170373Y0343884D01*
X0170471Y0343770D01*
X0170572Y0343659D01*
X0170677Y0343550D01*
X0170783Y0343445D01*
X0170893Y0343341D01*
X0171005Y0343241D01*
X0171119Y0343143D01*
X0171236Y0343049D01*
X0171355Y0342957D01*
D12*
X0036766Y0054056D02*
X0036766Y0019017D01*
X0067869Y0019017D01*
X0067869Y0024922D01*
X0085191Y0024922D01*
X0085191Y0019017D01*
X0067869Y0019017D01*
X0059030Y0025808D02*
X0054030Y0025808D01*
X0036766Y0054450D02*
X0116294Y0054450D01*
X0116294Y0019017D01*
X0085191Y0019017D01*
X0110900Y0087914D02*
X0110902Y0088055D01*
X0110908Y0088196D01*
X0110918Y0088336D01*
X0110932Y0088476D01*
X0110950Y0088616D01*
X0110971Y0088755D01*
X0110997Y0088894D01*
X0111026Y0089032D01*
X0111060Y0089168D01*
X0111097Y0089304D01*
X0111138Y0089439D01*
X0111183Y0089573D01*
X0111232Y0089705D01*
X0111284Y0089836D01*
X0111340Y0089965D01*
X0111400Y0090092D01*
X0111463Y0090218D01*
X0111529Y0090342D01*
X0111600Y0090465D01*
X0111673Y0090585D01*
X0111750Y0090703D01*
X0111830Y0090819D01*
X0111914Y0090932D01*
X0112000Y0091043D01*
X0112090Y0091152D01*
X0112183Y0091258D01*
X0112278Y0091361D01*
X0112377Y0091462D01*
X0112478Y0091560D01*
X0112582Y0091655D01*
X0112689Y0091747D01*
X0112798Y0091836D01*
X0112910Y0091921D01*
X0113024Y0092004D01*
X0113140Y0092084D01*
X0113259Y0092160D01*
X0113380Y0092232D01*
X0113502Y0092302D01*
X0113627Y0092367D01*
X0113753Y0092430D01*
X0113881Y0092488D01*
X0114011Y0092543D01*
X0114142Y0092595D01*
X0114275Y0092642D01*
X0114409Y0092686D01*
X0114544Y0092727D01*
X0114680Y0092763D01*
X0114817Y0092795D01*
X0114955Y0092824D01*
X0115093Y0092849D01*
X0115233Y0092869D01*
X0115373Y0092886D01*
X0115513Y0092899D01*
X0115654Y0092908D01*
X0115794Y0092913D01*
X0115935Y0092914D01*
X0116076Y0092911D01*
X0116217Y0092904D01*
X0116357Y0092893D01*
X0116497Y0092878D01*
X0116637Y0092859D01*
X0116776Y0092837D01*
X0116914Y0092810D01*
X0117052Y0092780D01*
X0117188Y0092745D01*
X0117324Y0092707D01*
X0117458Y0092665D01*
X0117592Y0092619D01*
X0117724Y0092570D01*
X0117854Y0092516D01*
X0117983Y0092459D01*
X0118110Y0092399D01*
X0118236Y0092335D01*
X0118359Y0092267D01*
X0118481Y0092196D01*
X0118601Y0092122D01*
X0118718Y0092044D01*
X0118833Y0091963D01*
X0118946Y0091879D01*
X0119057Y0091792D01*
X0119165Y0091701D01*
X0119270Y0091608D01*
X0119373Y0091511D01*
X0119473Y0091412D01*
X0119570Y0091310D01*
X0119664Y0091205D01*
X0119755Y0091098D01*
X0119843Y0090988D01*
X0119928Y0090876D01*
X0120010Y0090761D01*
X0120089Y0090644D01*
X0120164Y0090525D01*
X0120236Y0090404D01*
X0120304Y0090281D01*
X0120369Y0090156D01*
X0120431Y0090029D01*
X0120488Y0089900D01*
X0120543Y0089770D01*
X0120593Y0089639D01*
X0120640Y0089506D01*
X0120683Y0089372D01*
X0120722Y0089236D01*
X0120757Y0089100D01*
X0120789Y0088963D01*
X0120816Y0088825D01*
X0120840Y0088686D01*
X0120860Y0088546D01*
X0120876Y0088406D01*
X0120888Y0088266D01*
X0120896Y0088125D01*
X0120900Y0087984D01*
X0120900Y0087844D01*
X0120896Y0087703D01*
X0120888Y0087562D01*
X0120876Y0087422D01*
X0120860Y0087282D01*
X0120840Y0087142D01*
X0120816Y0087003D01*
X0120789Y0086865D01*
X0120757Y0086728D01*
X0120722Y0086592D01*
X0120683Y0086456D01*
X0120640Y0086322D01*
X0120593Y0086189D01*
X0120543Y0086058D01*
X0120488Y0085928D01*
X0120431Y0085799D01*
X0120369Y0085672D01*
X0120304Y0085547D01*
X0120236Y0085424D01*
X0120164Y0085303D01*
X0120089Y0085184D01*
X0120010Y0085067D01*
X0119928Y0084952D01*
X0119843Y0084840D01*
X0119755Y0084730D01*
X0119664Y0084623D01*
X0119570Y0084518D01*
X0119473Y0084416D01*
X0119373Y0084317D01*
X0119270Y0084220D01*
X0119165Y0084127D01*
X0119057Y0084036D01*
X0118946Y0083949D01*
X0118833Y0083865D01*
X0118718Y0083784D01*
X0118601Y0083706D01*
X0118481Y0083632D01*
X0118359Y0083561D01*
X0118236Y0083493D01*
X0118110Y0083429D01*
X0117983Y0083369D01*
X0117854Y0083312D01*
X0117724Y0083258D01*
X0117592Y0083209D01*
X0117458Y0083163D01*
X0117324Y0083121D01*
X0117188Y0083083D01*
X0117052Y0083048D01*
X0116914Y0083018D01*
X0116776Y0082991D01*
X0116637Y0082969D01*
X0116497Y0082950D01*
X0116357Y0082935D01*
X0116217Y0082924D01*
X0116076Y0082917D01*
X0115935Y0082914D01*
X0115794Y0082915D01*
X0115654Y0082920D01*
X0115513Y0082929D01*
X0115373Y0082942D01*
X0115233Y0082959D01*
X0115093Y0082979D01*
X0114955Y0083004D01*
X0114817Y0083033D01*
X0114680Y0083065D01*
X0114544Y0083101D01*
X0114409Y0083142D01*
X0114275Y0083186D01*
X0114142Y0083233D01*
X0114011Y0083285D01*
X0113881Y0083340D01*
X0113753Y0083398D01*
X0113627Y0083461D01*
X0113502Y0083526D01*
X0113380Y0083596D01*
X0113259Y0083668D01*
X0113140Y0083744D01*
X0113024Y0083824D01*
X0112910Y0083907D01*
X0112798Y0083992D01*
X0112689Y0084081D01*
X0112582Y0084173D01*
X0112478Y0084268D01*
X0112377Y0084366D01*
X0112278Y0084467D01*
X0112183Y0084570D01*
X0112090Y0084676D01*
X0112000Y0084785D01*
X0111914Y0084896D01*
X0111830Y0085009D01*
X0111750Y0085125D01*
X0111673Y0085243D01*
X0111600Y0085363D01*
X0111529Y0085486D01*
X0111463Y0085610D01*
X0111400Y0085736D01*
X0111340Y0085863D01*
X0111284Y0085992D01*
X0111232Y0086123D01*
X0111183Y0086255D01*
X0111138Y0086389D01*
X0111097Y0086524D01*
X0111060Y0086660D01*
X0111026Y0086796D01*
X0110997Y0086934D01*
X0110971Y0087073D01*
X0110950Y0087212D01*
X0110932Y0087352D01*
X0110918Y0087492D01*
X0110908Y0087632D01*
X0110902Y0087773D01*
X0110900Y0087914D01*
X0116294Y0184331D02*
X0085191Y0184331D01*
X0085191Y0190237D01*
X0067869Y0190237D01*
X0067869Y0184331D01*
X0036766Y0184331D01*
X0036766Y0219371D01*
X0036766Y0219765D02*
X0116294Y0219765D01*
X0116294Y0184331D01*
X0085191Y0184331D02*
X0067869Y0184331D01*
X0059030Y0191123D02*
X0054030Y0191123D01*
X0110900Y0237520D02*
X0110902Y0237661D01*
X0110908Y0237802D01*
X0110918Y0237942D01*
X0110932Y0238082D01*
X0110950Y0238222D01*
X0110971Y0238361D01*
X0110997Y0238500D01*
X0111026Y0238638D01*
X0111060Y0238774D01*
X0111097Y0238910D01*
X0111138Y0239045D01*
X0111183Y0239179D01*
X0111232Y0239311D01*
X0111284Y0239442D01*
X0111340Y0239571D01*
X0111400Y0239698D01*
X0111463Y0239824D01*
X0111529Y0239948D01*
X0111600Y0240071D01*
X0111673Y0240191D01*
X0111750Y0240309D01*
X0111830Y0240425D01*
X0111914Y0240538D01*
X0112000Y0240649D01*
X0112090Y0240758D01*
X0112183Y0240864D01*
X0112278Y0240967D01*
X0112377Y0241068D01*
X0112478Y0241166D01*
X0112582Y0241261D01*
X0112689Y0241353D01*
X0112798Y0241442D01*
X0112910Y0241527D01*
X0113024Y0241610D01*
X0113140Y0241690D01*
X0113259Y0241766D01*
X0113380Y0241838D01*
X0113502Y0241908D01*
X0113627Y0241973D01*
X0113753Y0242036D01*
X0113881Y0242094D01*
X0114011Y0242149D01*
X0114142Y0242201D01*
X0114275Y0242248D01*
X0114409Y0242292D01*
X0114544Y0242333D01*
X0114680Y0242369D01*
X0114817Y0242401D01*
X0114955Y0242430D01*
X0115093Y0242455D01*
X0115233Y0242475D01*
X0115373Y0242492D01*
X0115513Y0242505D01*
X0115654Y0242514D01*
X0115794Y0242519D01*
X0115935Y0242520D01*
X0116076Y0242517D01*
X0116217Y0242510D01*
X0116357Y0242499D01*
X0116497Y0242484D01*
X0116637Y0242465D01*
X0116776Y0242443D01*
X0116914Y0242416D01*
X0117052Y0242386D01*
X0117188Y0242351D01*
X0117324Y0242313D01*
X0117458Y0242271D01*
X0117592Y0242225D01*
X0117724Y0242176D01*
X0117854Y0242122D01*
X0117983Y0242065D01*
X0118110Y0242005D01*
X0118236Y0241941D01*
X0118359Y0241873D01*
X0118481Y0241802D01*
X0118601Y0241728D01*
X0118718Y0241650D01*
X0118833Y0241569D01*
X0118946Y0241485D01*
X0119057Y0241398D01*
X0119165Y0241307D01*
X0119270Y0241214D01*
X0119373Y0241117D01*
X0119473Y0241018D01*
X0119570Y0240916D01*
X0119664Y0240811D01*
X0119755Y0240704D01*
X0119843Y0240594D01*
X0119928Y0240482D01*
X0120010Y0240367D01*
X0120089Y0240250D01*
X0120164Y0240131D01*
X0120236Y0240010D01*
X0120304Y0239887D01*
X0120369Y0239762D01*
X0120431Y0239635D01*
X0120488Y0239506D01*
X0120543Y0239376D01*
X0120593Y0239245D01*
X0120640Y0239112D01*
X0120683Y0238978D01*
X0120722Y0238842D01*
X0120757Y0238706D01*
X0120789Y0238569D01*
X0120816Y0238431D01*
X0120840Y0238292D01*
X0120860Y0238152D01*
X0120876Y0238012D01*
X0120888Y0237872D01*
X0120896Y0237731D01*
X0120900Y0237590D01*
X0120900Y0237450D01*
X0120896Y0237309D01*
X0120888Y0237168D01*
X0120876Y0237028D01*
X0120860Y0236888D01*
X0120840Y0236748D01*
X0120816Y0236609D01*
X0120789Y0236471D01*
X0120757Y0236334D01*
X0120722Y0236198D01*
X0120683Y0236062D01*
X0120640Y0235928D01*
X0120593Y0235795D01*
X0120543Y0235664D01*
X0120488Y0235534D01*
X0120431Y0235405D01*
X0120369Y0235278D01*
X0120304Y0235153D01*
X0120236Y0235030D01*
X0120164Y0234909D01*
X0120089Y0234790D01*
X0120010Y0234673D01*
X0119928Y0234558D01*
X0119843Y0234446D01*
X0119755Y0234336D01*
X0119664Y0234229D01*
X0119570Y0234124D01*
X0119473Y0234022D01*
X0119373Y0233923D01*
X0119270Y0233826D01*
X0119165Y0233733D01*
X0119057Y0233642D01*
X0118946Y0233555D01*
X0118833Y0233471D01*
X0118718Y0233390D01*
X0118601Y0233312D01*
X0118481Y0233238D01*
X0118359Y0233167D01*
X0118236Y0233099D01*
X0118110Y0233035D01*
X0117983Y0232975D01*
X0117854Y0232918D01*
X0117724Y0232864D01*
X0117592Y0232815D01*
X0117458Y0232769D01*
X0117324Y0232727D01*
X0117188Y0232689D01*
X0117052Y0232654D01*
X0116914Y0232624D01*
X0116776Y0232597D01*
X0116637Y0232575D01*
X0116497Y0232556D01*
X0116357Y0232541D01*
X0116217Y0232530D01*
X0116076Y0232523D01*
X0115935Y0232520D01*
X0115794Y0232521D01*
X0115654Y0232526D01*
X0115513Y0232535D01*
X0115373Y0232548D01*
X0115233Y0232565D01*
X0115093Y0232585D01*
X0114955Y0232610D01*
X0114817Y0232639D01*
X0114680Y0232671D01*
X0114544Y0232707D01*
X0114409Y0232748D01*
X0114275Y0232792D01*
X0114142Y0232839D01*
X0114011Y0232891D01*
X0113881Y0232946D01*
X0113753Y0233004D01*
X0113627Y0233067D01*
X0113502Y0233132D01*
X0113380Y0233202D01*
X0113259Y0233274D01*
X0113140Y0233350D01*
X0113024Y0233430D01*
X0112910Y0233513D01*
X0112798Y0233598D01*
X0112689Y0233687D01*
X0112582Y0233779D01*
X0112478Y0233874D01*
X0112377Y0233972D01*
X0112278Y0234073D01*
X0112183Y0234176D01*
X0112090Y0234282D01*
X0112000Y0234391D01*
X0111914Y0234502D01*
X0111830Y0234615D01*
X0111750Y0234731D01*
X0111673Y0234849D01*
X0111600Y0234969D01*
X0111529Y0235092D01*
X0111463Y0235216D01*
X0111400Y0235342D01*
X0111340Y0235469D01*
X0111284Y0235598D01*
X0111232Y0235729D01*
X0111183Y0235861D01*
X0111138Y0235995D01*
X0111097Y0236130D01*
X0111060Y0236266D01*
X0111026Y0236402D01*
X0110997Y0236540D01*
X0110971Y0236679D01*
X0110950Y0236818D01*
X0110932Y0236958D01*
X0110918Y0237098D01*
X0110908Y0237238D01*
X0110902Y0237379D01*
X0110900Y0237520D01*
X0117042Y0263111D02*
X0085939Y0263111D01*
X0085939Y0269017D01*
X0068617Y0269017D01*
X0068617Y0263111D01*
X0037514Y0263111D01*
X0037514Y0298150D01*
X0037514Y0298544D02*
X0117042Y0298544D01*
X0117042Y0263111D01*
X0085939Y0263111D02*
X0068617Y0263111D01*
X0059778Y0269902D02*
X0054778Y0269902D01*
X0167568Y0333354D02*
X0170370Y0333354D01*
X0172172Y0333354D02*
X0172172Y0337557D01*
X0174974Y0337557D01*
X0176776Y0337557D02*
X0178877Y0337557D01*
X0179578Y0336857D01*
X0179578Y0334054D01*
X0178877Y0333354D01*
X0176776Y0333354D01*
X0176776Y0337557D01*
X0173573Y0335455D02*
X0172172Y0335455D01*
X0172172Y0333354D02*
X0174974Y0333354D01*
X0181379Y0333354D02*
X0184182Y0333354D01*
X0182781Y0333354D02*
X0182781Y0337557D01*
X0181379Y0336156D01*
X0167568Y0337557D02*
X0167568Y0333354D01*
X0229010Y0237520D02*
X0229012Y0237661D01*
X0229018Y0237802D01*
X0229028Y0237942D01*
X0229042Y0238082D01*
X0229060Y0238222D01*
X0229081Y0238361D01*
X0229107Y0238500D01*
X0229136Y0238638D01*
X0229170Y0238774D01*
X0229207Y0238910D01*
X0229248Y0239045D01*
X0229293Y0239179D01*
X0229342Y0239311D01*
X0229394Y0239442D01*
X0229450Y0239571D01*
X0229510Y0239698D01*
X0229573Y0239824D01*
X0229639Y0239948D01*
X0229710Y0240071D01*
X0229783Y0240191D01*
X0229860Y0240309D01*
X0229940Y0240425D01*
X0230024Y0240538D01*
X0230110Y0240649D01*
X0230200Y0240758D01*
X0230293Y0240864D01*
X0230388Y0240967D01*
X0230487Y0241068D01*
X0230588Y0241166D01*
X0230692Y0241261D01*
X0230799Y0241353D01*
X0230908Y0241442D01*
X0231020Y0241527D01*
X0231134Y0241610D01*
X0231250Y0241690D01*
X0231369Y0241766D01*
X0231490Y0241838D01*
X0231612Y0241908D01*
X0231737Y0241973D01*
X0231863Y0242036D01*
X0231991Y0242094D01*
X0232121Y0242149D01*
X0232252Y0242201D01*
X0232385Y0242248D01*
X0232519Y0242292D01*
X0232654Y0242333D01*
X0232790Y0242369D01*
X0232927Y0242401D01*
X0233065Y0242430D01*
X0233203Y0242455D01*
X0233343Y0242475D01*
X0233483Y0242492D01*
X0233623Y0242505D01*
X0233764Y0242514D01*
X0233904Y0242519D01*
X0234045Y0242520D01*
X0234186Y0242517D01*
X0234327Y0242510D01*
X0234467Y0242499D01*
X0234607Y0242484D01*
X0234747Y0242465D01*
X0234886Y0242443D01*
X0235024Y0242416D01*
X0235162Y0242386D01*
X0235298Y0242351D01*
X0235434Y0242313D01*
X0235568Y0242271D01*
X0235702Y0242225D01*
X0235834Y0242176D01*
X0235964Y0242122D01*
X0236093Y0242065D01*
X0236220Y0242005D01*
X0236346Y0241941D01*
X0236469Y0241873D01*
X0236591Y0241802D01*
X0236711Y0241728D01*
X0236828Y0241650D01*
X0236943Y0241569D01*
X0237056Y0241485D01*
X0237167Y0241398D01*
X0237275Y0241307D01*
X0237380Y0241214D01*
X0237483Y0241117D01*
X0237583Y0241018D01*
X0237680Y0240916D01*
X0237774Y0240811D01*
X0237865Y0240704D01*
X0237953Y0240594D01*
X0238038Y0240482D01*
X0238120Y0240367D01*
X0238199Y0240250D01*
X0238274Y0240131D01*
X0238346Y0240010D01*
X0238414Y0239887D01*
X0238479Y0239762D01*
X0238541Y0239635D01*
X0238598Y0239506D01*
X0238653Y0239376D01*
X0238703Y0239245D01*
X0238750Y0239112D01*
X0238793Y0238978D01*
X0238832Y0238842D01*
X0238867Y0238706D01*
X0238899Y0238569D01*
X0238926Y0238431D01*
X0238950Y0238292D01*
X0238970Y0238152D01*
X0238986Y0238012D01*
X0238998Y0237872D01*
X0239006Y0237731D01*
X0239010Y0237590D01*
X0239010Y0237450D01*
X0239006Y0237309D01*
X0238998Y0237168D01*
X0238986Y0237028D01*
X0238970Y0236888D01*
X0238950Y0236748D01*
X0238926Y0236609D01*
X0238899Y0236471D01*
X0238867Y0236334D01*
X0238832Y0236198D01*
X0238793Y0236062D01*
X0238750Y0235928D01*
X0238703Y0235795D01*
X0238653Y0235664D01*
X0238598Y0235534D01*
X0238541Y0235405D01*
X0238479Y0235278D01*
X0238414Y0235153D01*
X0238346Y0235030D01*
X0238274Y0234909D01*
X0238199Y0234790D01*
X0238120Y0234673D01*
X0238038Y0234558D01*
X0237953Y0234446D01*
X0237865Y0234336D01*
X0237774Y0234229D01*
X0237680Y0234124D01*
X0237583Y0234022D01*
X0237483Y0233923D01*
X0237380Y0233826D01*
X0237275Y0233733D01*
X0237167Y0233642D01*
X0237056Y0233555D01*
X0236943Y0233471D01*
X0236828Y0233390D01*
X0236711Y0233312D01*
X0236591Y0233238D01*
X0236469Y0233167D01*
X0236346Y0233099D01*
X0236220Y0233035D01*
X0236093Y0232975D01*
X0235964Y0232918D01*
X0235834Y0232864D01*
X0235702Y0232815D01*
X0235568Y0232769D01*
X0235434Y0232727D01*
X0235298Y0232689D01*
X0235162Y0232654D01*
X0235024Y0232624D01*
X0234886Y0232597D01*
X0234747Y0232575D01*
X0234607Y0232556D01*
X0234467Y0232541D01*
X0234327Y0232530D01*
X0234186Y0232523D01*
X0234045Y0232520D01*
X0233904Y0232521D01*
X0233764Y0232526D01*
X0233623Y0232535D01*
X0233483Y0232548D01*
X0233343Y0232565D01*
X0233203Y0232585D01*
X0233065Y0232610D01*
X0232927Y0232639D01*
X0232790Y0232671D01*
X0232654Y0232707D01*
X0232519Y0232748D01*
X0232385Y0232792D01*
X0232252Y0232839D01*
X0232121Y0232891D01*
X0231991Y0232946D01*
X0231863Y0233004D01*
X0231737Y0233067D01*
X0231612Y0233132D01*
X0231490Y0233202D01*
X0231369Y0233274D01*
X0231250Y0233350D01*
X0231134Y0233430D01*
X0231020Y0233513D01*
X0230908Y0233598D01*
X0230799Y0233687D01*
X0230692Y0233779D01*
X0230588Y0233874D01*
X0230487Y0233972D01*
X0230388Y0234073D01*
X0230293Y0234176D01*
X0230200Y0234282D01*
X0230110Y0234391D01*
X0230024Y0234502D01*
X0229940Y0234615D01*
X0229860Y0234731D01*
X0229783Y0234849D01*
X0229710Y0234969D01*
X0229639Y0235092D01*
X0229573Y0235216D01*
X0229510Y0235342D01*
X0229450Y0235469D01*
X0229394Y0235598D01*
X0229342Y0235729D01*
X0229293Y0235861D01*
X0229248Y0235995D01*
X0229207Y0236130D01*
X0229170Y0236266D01*
X0229136Y0236402D01*
X0229107Y0236540D01*
X0229081Y0236679D01*
X0229060Y0236818D01*
X0229042Y0236958D01*
X0229028Y0237098D01*
X0229018Y0237238D01*
X0229012Y0237379D01*
X0229010Y0237520D01*
X0269050Y0211772D02*
X0348577Y0211772D01*
X0348577Y0176339D01*
X0317475Y0176339D01*
X0317475Y0182245D01*
X0300152Y0182245D01*
X0300152Y0176339D01*
X0269050Y0176339D01*
X0269050Y0211379D01*
X0286313Y0183131D02*
X0291313Y0183131D01*
X0300152Y0176339D02*
X0317475Y0176339D01*
X0348577Y0168662D02*
X0348577Y0133229D01*
X0317475Y0133229D01*
X0317475Y0139135D01*
X0300152Y0139135D01*
X0300152Y0133229D01*
X0269050Y0133229D01*
X0269050Y0168269D01*
X0269050Y0168662D02*
X0348577Y0168662D01*
X0317475Y0133229D02*
X0300152Y0133229D01*
X0291313Y0140020D02*
X0286313Y0140020D01*
X0229010Y0087914D02*
X0229012Y0088055D01*
X0229018Y0088196D01*
X0229028Y0088336D01*
X0229042Y0088476D01*
X0229060Y0088616D01*
X0229081Y0088755D01*
X0229107Y0088894D01*
X0229136Y0089032D01*
X0229170Y0089168D01*
X0229207Y0089304D01*
X0229248Y0089439D01*
X0229293Y0089573D01*
X0229342Y0089705D01*
X0229394Y0089836D01*
X0229450Y0089965D01*
X0229510Y0090092D01*
X0229573Y0090218D01*
X0229639Y0090342D01*
X0229710Y0090465D01*
X0229783Y0090585D01*
X0229860Y0090703D01*
X0229940Y0090819D01*
X0230024Y0090932D01*
X0230110Y0091043D01*
X0230200Y0091152D01*
X0230293Y0091258D01*
X0230388Y0091361D01*
X0230487Y0091462D01*
X0230588Y0091560D01*
X0230692Y0091655D01*
X0230799Y0091747D01*
X0230908Y0091836D01*
X0231020Y0091921D01*
X0231134Y0092004D01*
X0231250Y0092084D01*
X0231369Y0092160D01*
X0231490Y0092232D01*
X0231612Y0092302D01*
X0231737Y0092367D01*
X0231863Y0092430D01*
X0231991Y0092488D01*
X0232121Y0092543D01*
X0232252Y0092595D01*
X0232385Y0092642D01*
X0232519Y0092686D01*
X0232654Y0092727D01*
X0232790Y0092763D01*
X0232927Y0092795D01*
X0233065Y0092824D01*
X0233203Y0092849D01*
X0233343Y0092869D01*
X0233483Y0092886D01*
X0233623Y0092899D01*
X0233764Y0092908D01*
X0233904Y0092913D01*
X0234045Y0092914D01*
X0234186Y0092911D01*
X0234327Y0092904D01*
X0234467Y0092893D01*
X0234607Y0092878D01*
X0234747Y0092859D01*
X0234886Y0092837D01*
X0235024Y0092810D01*
X0235162Y0092780D01*
X0235298Y0092745D01*
X0235434Y0092707D01*
X0235568Y0092665D01*
X0235702Y0092619D01*
X0235834Y0092570D01*
X0235964Y0092516D01*
X0236093Y0092459D01*
X0236220Y0092399D01*
X0236346Y0092335D01*
X0236469Y0092267D01*
X0236591Y0092196D01*
X0236711Y0092122D01*
X0236828Y0092044D01*
X0236943Y0091963D01*
X0237056Y0091879D01*
X0237167Y0091792D01*
X0237275Y0091701D01*
X0237380Y0091608D01*
X0237483Y0091511D01*
X0237583Y0091412D01*
X0237680Y0091310D01*
X0237774Y0091205D01*
X0237865Y0091098D01*
X0237953Y0090988D01*
X0238038Y0090876D01*
X0238120Y0090761D01*
X0238199Y0090644D01*
X0238274Y0090525D01*
X0238346Y0090404D01*
X0238414Y0090281D01*
X0238479Y0090156D01*
X0238541Y0090029D01*
X0238598Y0089900D01*
X0238653Y0089770D01*
X0238703Y0089639D01*
X0238750Y0089506D01*
X0238793Y0089372D01*
X0238832Y0089236D01*
X0238867Y0089100D01*
X0238899Y0088963D01*
X0238926Y0088825D01*
X0238950Y0088686D01*
X0238970Y0088546D01*
X0238986Y0088406D01*
X0238998Y0088266D01*
X0239006Y0088125D01*
X0239010Y0087984D01*
X0239010Y0087844D01*
X0239006Y0087703D01*
X0238998Y0087562D01*
X0238986Y0087422D01*
X0238970Y0087282D01*
X0238950Y0087142D01*
X0238926Y0087003D01*
X0238899Y0086865D01*
X0238867Y0086728D01*
X0238832Y0086592D01*
X0238793Y0086456D01*
X0238750Y0086322D01*
X0238703Y0086189D01*
X0238653Y0086058D01*
X0238598Y0085928D01*
X0238541Y0085799D01*
X0238479Y0085672D01*
X0238414Y0085547D01*
X0238346Y0085424D01*
X0238274Y0085303D01*
X0238199Y0085184D01*
X0238120Y0085067D01*
X0238038Y0084952D01*
X0237953Y0084840D01*
X0237865Y0084730D01*
X0237774Y0084623D01*
X0237680Y0084518D01*
X0237583Y0084416D01*
X0237483Y0084317D01*
X0237380Y0084220D01*
X0237275Y0084127D01*
X0237167Y0084036D01*
X0237056Y0083949D01*
X0236943Y0083865D01*
X0236828Y0083784D01*
X0236711Y0083706D01*
X0236591Y0083632D01*
X0236469Y0083561D01*
X0236346Y0083493D01*
X0236220Y0083429D01*
X0236093Y0083369D01*
X0235964Y0083312D01*
X0235834Y0083258D01*
X0235702Y0083209D01*
X0235568Y0083163D01*
X0235434Y0083121D01*
X0235298Y0083083D01*
X0235162Y0083048D01*
X0235024Y0083018D01*
X0234886Y0082991D01*
X0234747Y0082969D01*
X0234607Y0082950D01*
X0234467Y0082935D01*
X0234327Y0082924D01*
X0234186Y0082917D01*
X0234045Y0082914D01*
X0233904Y0082915D01*
X0233764Y0082920D01*
X0233623Y0082929D01*
X0233483Y0082942D01*
X0233343Y0082959D01*
X0233203Y0082979D01*
X0233065Y0083004D01*
X0232927Y0083033D01*
X0232790Y0083065D01*
X0232654Y0083101D01*
X0232519Y0083142D01*
X0232385Y0083186D01*
X0232252Y0083233D01*
X0232121Y0083285D01*
X0231991Y0083340D01*
X0231863Y0083398D01*
X0231737Y0083461D01*
X0231612Y0083526D01*
X0231490Y0083596D01*
X0231369Y0083668D01*
X0231250Y0083744D01*
X0231134Y0083824D01*
X0231020Y0083907D01*
X0230908Y0083992D01*
X0230799Y0084081D01*
X0230692Y0084173D01*
X0230588Y0084268D01*
X0230487Y0084366D01*
X0230388Y0084467D01*
X0230293Y0084570D01*
X0230200Y0084676D01*
X0230110Y0084785D01*
X0230024Y0084896D01*
X0229940Y0085009D01*
X0229860Y0085125D01*
X0229783Y0085243D01*
X0229710Y0085363D01*
X0229639Y0085486D01*
X0229573Y0085610D01*
X0229510Y0085736D01*
X0229450Y0085863D01*
X0229394Y0085992D01*
X0229342Y0086123D01*
X0229293Y0086255D01*
X0229248Y0086389D01*
X0229207Y0086524D01*
X0229170Y0086660D01*
X0229136Y0086796D01*
X0229107Y0086934D01*
X0229081Y0087073D01*
X0229060Y0087212D01*
X0229042Y0087352D01*
X0229028Y0087492D01*
X0229018Y0087632D01*
X0229012Y0087773D01*
X0229010Y0087914D01*
X0269050Y0054450D02*
X0348577Y0054450D01*
X0348577Y0019017D01*
X0317475Y0019017D01*
X0317475Y0024922D01*
X0300152Y0024922D01*
X0300152Y0019017D01*
X0269050Y0019017D01*
X0269050Y0054056D01*
X0286313Y0025808D02*
X0291313Y0025808D01*
X0300152Y0019017D02*
X0317475Y0019017D01*
X0326313Y0242394D02*
X0331313Y0242394D01*
D13*
X0178924Y0340810D02*
X0179093Y0340909D01*
X0179259Y0341013D01*
X0179423Y0341120D01*
X0179584Y0341231D01*
X0179742Y0341346D01*
X0179897Y0341465D01*
X0180050Y0341588D01*
X0180199Y0341714D01*
X0180345Y0341844D01*
X0180488Y0341978D01*
X0180628Y0342115D01*
X0180764Y0342255D01*
X0180897Y0342399D01*
X0181026Y0342546D01*
X0181152Y0342696D01*
X0181273Y0342849D01*
X0181392Y0343005D01*
X0181506Y0343164D01*
X0181616Y0343325D01*
X0181722Y0343490D01*
X0181825Y0343656D01*
X0181923Y0343826D01*
X0182017Y0343997D01*
X0182107Y0344171D01*
X0182192Y0344347D01*
X0182274Y0344525D01*
X0182350Y0344705D01*
X0182423Y0344887D01*
X0182491Y0345070D01*
X0182554Y0345255D01*
X0182613Y0345442D01*
X0182667Y0345630D01*
X0182717Y0345819D01*
X0182762Y0346009D01*
X0182802Y0346201D01*
X0182838Y0346393D01*
X0182869Y0346586D01*
X0182895Y0346780D01*
X0182917Y0346975D01*
X0182933Y0347170D01*
X0182945Y0347365D01*
X0182953Y0347561D01*
X0182955Y0347756D01*
X0171190Y0340698D02*
X0171022Y0340791D01*
X0170856Y0340887D01*
X0170692Y0340987D01*
X0170531Y0341092D01*
X0170372Y0341200D01*
X0170216Y0341312D01*
X0170062Y0341428D01*
X0169912Y0341547D01*
X0169764Y0341670D01*
X0169619Y0341796D01*
X0169478Y0341926D01*
X0169339Y0342059D01*
X0169204Y0342196D01*
X0169072Y0342336D01*
X0168944Y0342478D01*
X0168819Y0342624D01*
X0168697Y0342773D01*
X0168579Y0342925D01*
X0168465Y0343079D01*
X0168355Y0343237D01*
X0168248Y0343396D01*
X0168145Y0343559D01*
X0168046Y0343724D01*
X0167951Y0343891D01*
X0167861Y0344060D01*
X0167774Y0344231D01*
X0167691Y0344405D01*
X0167613Y0344580D01*
X0167539Y0344758D01*
X0167469Y0344937D01*
X0167403Y0345117D01*
X0167342Y0345299D01*
X0167285Y0345483D01*
X0167233Y0345668D01*
X0167185Y0345854D01*
X0167141Y0346041D01*
X0167102Y0346229D01*
X0167068Y0346418D01*
X0167038Y0346608D01*
X0167013Y0346798D01*
X0166992Y0346989D01*
X0166976Y0347181D01*
X0166964Y0347373D01*
X0166957Y0347565D01*
X0166955Y0347757D01*
X0180123Y0353864D02*
X0180269Y0353737D01*
X0180411Y0353608D01*
X0180551Y0353474D01*
X0180687Y0353338D01*
X0180820Y0353198D01*
X0180950Y0353055D01*
X0181076Y0352908D01*
X0181198Y0352759D01*
X0181317Y0352607D01*
X0181432Y0352452D01*
X0181544Y0352295D01*
X0181651Y0352135D01*
X0181755Y0351972D01*
X0181854Y0351806D01*
X0181950Y0351639D01*
X0182042Y0351469D01*
X0182129Y0351297D01*
X0182213Y0351123D01*
X0182292Y0350947D01*
X0182366Y0350769D01*
X0182437Y0350589D01*
X0182503Y0350408D01*
X0182565Y0350225D01*
X0182622Y0350041D01*
X0182675Y0349855D01*
X0182723Y0349668D01*
X0182767Y0349480D01*
X0182806Y0349291D01*
X0182841Y0349101D01*
X0182871Y0348911D01*
X0182897Y0348720D01*
X0182918Y0348528D01*
X0182934Y0348335D01*
X0182946Y0348143D01*
X0182953Y0347950D01*
X0182955Y0347757D01*
X0169833Y0353903D02*
X0169685Y0353776D01*
X0169540Y0353646D01*
X0169399Y0353513D01*
X0169260Y0353376D01*
X0169125Y0353236D01*
X0168994Y0353092D01*
X0168866Y0352945D01*
X0168741Y0352796D01*
X0168620Y0352643D01*
X0168503Y0352488D01*
X0168390Y0352329D01*
X0168281Y0352168D01*
X0168176Y0352004D01*
X0168074Y0351838D01*
X0167977Y0351669D01*
X0167884Y0351499D01*
X0167795Y0351325D01*
X0167710Y0351150D01*
X0167630Y0350973D01*
X0167554Y0350794D01*
X0167482Y0350613D01*
X0167415Y0350430D01*
X0167352Y0350246D01*
X0167294Y0350060D01*
X0167240Y0349873D01*
X0167191Y0349685D01*
X0167146Y0349495D01*
X0167106Y0349305D01*
X0167071Y0349113D01*
X0167040Y0348921D01*
X0167014Y0348728D01*
X0166993Y0348534D01*
X0166976Y0348340D01*
X0166964Y0348146D01*
X0166957Y0347952D01*
X0166955Y0347757D01*
D14*
X0183201Y0340797D02*
X0185003Y0340797D01*
X0184102Y0339896D02*
X0184102Y0341698D01*
X0184063Y0352416D02*
X0184063Y0354218D01*
X0269227Y0337140D02*
X0269227Y0336239D01*
X0269678Y0335789D01*
X0269678Y0334644D02*
X0270128Y0334644D01*
X0270578Y0334193D01*
X0270578Y0332842D01*
X0269227Y0332842D02*
X0271930Y0332842D01*
X0271930Y0334193D01*
X0271479Y0334644D01*
X0271029Y0334644D01*
X0270578Y0334193D01*
X0269678Y0334644D02*
X0269227Y0334193D01*
X0269227Y0332842D01*
X0269678Y0331697D02*
X0269227Y0331247D01*
X0269227Y0330346D01*
X0269678Y0329896D01*
X0271479Y0329896D01*
X0271930Y0330346D01*
X0271930Y0331247D01*
X0271479Y0331697D01*
X0269678Y0331697D01*
X0269227Y0328751D02*
X0271930Y0328751D01*
X0269227Y0326949D01*
X0271930Y0326949D01*
X0271930Y0325804D02*
X0270578Y0324453D01*
X0271029Y0324003D02*
X0269227Y0325804D01*
X0269227Y0324003D02*
X0271930Y0324003D01*
X0274315Y0323257D02*
X0274315Y0337757D01*
X0271930Y0337590D02*
X0271930Y0335789D01*
X0270128Y0337590D01*
X0269678Y0337590D01*
X0269227Y0337140D01*
X0274315Y0323257D02*
X0311815Y0323257D01*
X0311815Y0337757D01*
X0311815Y0357757D02*
X0311815Y0366507D01*
X0311815Y0366757D02*
X0274315Y0366757D01*
X0274315Y0366507D02*
X0274315Y0357757D01*
X0285065Y0347757D02*
X0285067Y0347953D01*
X0285075Y0348150D01*
X0285087Y0348346D01*
X0285104Y0348541D01*
X0285125Y0348736D01*
X0285152Y0348931D01*
X0285183Y0349125D01*
X0285219Y0349318D01*
X0285259Y0349510D01*
X0285305Y0349701D01*
X0285355Y0349891D01*
X0285409Y0350079D01*
X0285469Y0350266D01*
X0285533Y0350452D01*
X0285601Y0350636D01*
X0285674Y0350818D01*
X0285751Y0350999D01*
X0285833Y0351177D01*
X0285919Y0351354D01*
X0286010Y0351528D01*
X0286104Y0351700D01*
X0286203Y0351870D01*
X0286306Y0352037D01*
X0286413Y0352202D01*
X0286524Y0352363D01*
X0286639Y0352523D01*
X0286758Y0352679D01*
X0286881Y0352832D01*
X0287007Y0352982D01*
X0287137Y0353129D01*
X0287271Y0353273D01*
X0287408Y0353414D01*
X0287549Y0353551D01*
X0287693Y0353685D01*
X0287840Y0353815D01*
X0287990Y0353941D01*
X0288143Y0354064D01*
X0288299Y0354183D01*
X0288459Y0354298D01*
X0288620Y0354409D01*
X0288785Y0354516D01*
X0288952Y0354619D01*
X0289122Y0354718D01*
X0289294Y0354812D01*
X0289468Y0354903D01*
X0289645Y0354989D01*
X0289823Y0355071D01*
X0290004Y0355148D01*
X0290186Y0355221D01*
X0290370Y0355289D01*
X0290556Y0355353D01*
X0290743Y0355413D01*
X0290931Y0355467D01*
X0291121Y0355517D01*
X0291312Y0355563D01*
X0291504Y0355603D01*
X0291697Y0355639D01*
X0291891Y0355670D01*
X0292086Y0355697D01*
X0292281Y0355718D01*
X0292476Y0355735D01*
X0292672Y0355747D01*
X0292869Y0355755D01*
X0293065Y0355757D01*
X0293261Y0355755D01*
X0293458Y0355747D01*
X0293654Y0355735D01*
X0293849Y0355718D01*
X0294044Y0355697D01*
X0294239Y0355670D01*
X0294433Y0355639D01*
X0294626Y0355603D01*
X0294818Y0355563D01*
X0295009Y0355517D01*
X0295199Y0355467D01*
X0295387Y0355413D01*
X0295574Y0355353D01*
X0295760Y0355289D01*
X0295944Y0355221D01*
X0296126Y0355148D01*
X0296307Y0355071D01*
X0296485Y0354989D01*
X0296662Y0354903D01*
X0296836Y0354812D01*
X0297008Y0354718D01*
X0297178Y0354619D01*
X0297345Y0354516D01*
X0297510Y0354409D01*
X0297671Y0354298D01*
X0297831Y0354183D01*
X0297987Y0354064D01*
X0298140Y0353941D01*
X0298290Y0353815D01*
X0298437Y0353685D01*
X0298581Y0353551D01*
X0298722Y0353414D01*
X0298859Y0353273D01*
X0298993Y0353129D01*
X0299123Y0352982D01*
X0299249Y0352832D01*
X0299372Y0352679D01*
X0299491Y0352523D01*
X0299606Y0352363D01*
X0299717Y0352202D01*
X0299824Y0352037D01*
X0299927Y0351870D01*
X0300026Y0351700D01*
X0300120Y0351528D01*
X0300211Y0351354D01*
X0300297Y0351177D01*
X0300379Y0350999D01*
X0300456Y0350818D01*
X0300529Y0350636D01*
X0300597Y0350452D01*
X0300661Y0350266D01*
X0300721Y0350079D01*
X0300775Y0349891D01*
X0300825Y0349701D01*
X0300871Y0349510D01*
X0300911Y0349318D01*
X0300947Y0349125D01*
X0300978Y0348931D01*
X0301005Y0348736D01*
X0301026Y0348541D01*
X0301043Y0348346D01*
X0301055Y0348150D01*
X0301063Y0347953D01*
X0301065Y0347757D01*
X0301063Y0347561D01*
X0301055Y0347364D01*
X0301043Y0347168D01*
X0301026Y0346973D01*
X0301005Y0346778D01*
X0300978Y0346583D01*
X0300947Y0346389D01*
X0300911Y0346196D01*
X0300871Y0346004D01*
X0300825Y0345813D01*
X0300775Y0345623D01*
X0300721Y0345435D01*
X0300661Y0345248D01*
X0300597Y0345062D01*
X0300529Y0344878D01*
X0300456Y0344696D01*
X0300379Y0344515D01*
X0300297Y0344337D01*
X0300211Y0344160D01*
X0300120Y0343986D01*
X0300026Y0343814D01*
X0299927Y0343644D01*
X0299824Y0343477D01*
X0299717Y0343312D01*
X0299606Y0343151D01*
X0299491Y0342991D01*
X0299372Y0342835D01*
X0299249Y0342682D01*
X0299123Y0342532D01*
X0298993Y0342385D01*
X0298859Y0342241D01*
X0298722Y0342100D01*
X0298581Y0341963D01*
X0298437Y0341829D01*
X0298290Y0341699D01*
X0298140Y0341573D01*
X0297987Y0341450D01*
X0297831Y0341331D01*
X0297671Y0341216D01*
X0297510Y0341105D01*
X0297345Y0340998D01*
X0297178Y0340895D01*
X0297008Y0340796D01*
X0296836Y0340702D01*
X0296662Y0340611D01*
X0296485Y0340525D01*
X0296307Y0340443D01*
X0296126Y0340366D01*
X0295944Y0340293D01*
X0295760Y0340225D01*
X0295574Y0340161D01*
X0295387Y0340101D01*
X0295199Y0340047D01*
X0295009Y0339997D01*
X0294818Y0339951D01*
X0294626Y0339911D01*
X0294433Y0339875D01*
X0294239Y0339844D01*
X0294044Y0339817D01*
X0293849Y0339796D01*
X0293654Y0339779D01*
X0293458Y0339767D01*
X0293261Y0339759D01*
X0293065Y0339757D01*
X0292869Y0339759D01*
X0292672Y0339767D01*
X0292476Y0339779D01*
X0292281Y0339796D01*
X0292086Y0339817D01*
X0291891Y0339844D01*
X0291697Y0339875D01*
X0291504Y0339911D01*
X0291312Y0339951D01*
X0291121Y0339997D01*
X0290931Y0340047D01*
X0290743Y0340101D01*
X0290556Y0340161D01*
X0290370Y0340225D01*
X0290186Y0340293D01*
X0290004Y0340366D01*
X0289823Y0340443D01*
X0289645Y0340525D01*
X0289468Y0340611D01*
X0289294Y0340702D01*
X0289122Y0340796D01*
X0288952Y0340895D01*
X0288785Y0340998D01*
X0288620Y0341105D01*
X0288459Y0341216D01*
X0288299Y0341331D01*
X0288143Y0341450D01*
X0287990Y0341573D01*
X0287840Y0341699D01*
X0287693Y0341829D01*
X0287549Y0341963D01*
X0287408Y0342100D01*
X0287271Y0342241D01*
X0287137Y0342385D01*
X0287007Y0342532D01*
X0286881Y0342682D01*
X0286758Y0342835D01*
X0286639Y0342991D01*
X0286524Y0343151D01*
X0286413Y0343312D01*
X0286306Y0343477D01*
X0286203Y0343644D01*
X0286104Y0343814D01*
X0286010Y0343986D01*
X0285919Y0344160D01*
X0285833Y0344337D01*
X0285751Y0344515D01*
X0285674Y0344696D01*
X0285601Y0344878D01*
X0285533Y0345062D01*
X0285469Y0345248D01*
X0285409Y0345435D01*
X0285355Y0345623D01*
X0285305Y0345813D01*
X0285259Y0346004D01*
X0285219Y0346196D01*
X0285183Y0346389D01*
X0285152Y0346583D01*
X0285125Y0346778D01*
X0285104Y0346973D01*
X0285087Y0347168D01*
X0285075Y0347364D01*
X0285067Y0347561D01*
X0285065Y0347757D01*
X0239010Y0257520D02*
X0229010Y0252520D01*
X0219010Y0252520D01*
X0219010Y0222520D01*
X0249010Y0222520D01*
X0249010Y0252520D01*
X0239010Y0252520D01*
X0243510Y0242520D02*
X0243512Y0242564D01*
X0243518Y0242608D01*
X0243528Y0242651D01*
X0243541Y0242693D01*
X0243558Y0242734D01*
X0243579Y0242773D01*
X0243603Y0242810D01*
X0243630Y0242845D01*
X0243660Y0242877D01*
X0243693Y0242907D01*
X0243729Y0242933D01*
X0243766Y0242957D01*
X0243806Y0242976D01*
X0243847Y0242993D01*
X0243890Y0243005D01*
X0243933Y0243014D01*
X0243977Y0243019D01*
X0244021Y0243020D01*
X0244065Y0243017D01*
X0244109Y0243010D01*
X0244152Y0242999D01*
X0244194Y0242985D01*
X0244234Y0242967D01*
X0244273Y0242945D01*
X0244309Y0242921D01*
X0244343Y0242893D01*
X0244375Y0242862D01*
X0244404Y0242828D01*
X0244430Y0242792D01*
X0244452Y0242754D01*
X0244471Y0242714D01*
X0244486Y0242672D01*
X0244498Y0242630D01*
X0244506Y0242586D01*
X0244510Y0242542D01*
X0244510Y0242498D01*
X0244506Y0242454D01*
X0244498Y0242410D01*
X0244486Y0242368D01*
X0244471Y0242326D01*
X0244452Y0242286D01*
X0244430Y0242248D01*
X0244404Y0242212D01*
X0244375Y0242178D01*
X0244343Y0242147D01*
X0244309Y0242119D01*
X0244273Y0242095D01*
X0244234Y0242073D01*
X0244194Y0242055D01*
X0244152Y0242041D01*
X0244109Y0242030D01*
X0244065Y0242023D01*
X0244021Y0242020D01*
X0243977Y0242021D01*
X0243933Y0242026D01*
X0243890Y0242035D01*
X0243847Y0242047D01*
X0243806Y0242064D01*
X0243766Y0242083D01*
X0243729Y0242107D01*
X0243693Y0242133D01*
X0243660Y0242163D01*
X0243630Y0242195D01*
X0243603Y0242230D01*
X0243579Y0242267D01*
X0243558Y0242306D01*
X0243541Y0242347D01*
X0243528Y0242389D01*
X0243518Y0242432D01*
X0243512Y0242476D01*
X0243510Y0242520D01*
X0244010Y0242520D02*
X0244010Y0232520D01*
X0243510Y0232520D02*
X0243512Y0232564D01*
X0243518Y0232608D01*
X0243528Y0232651D01*
X0243541Y0232693D01*
X0243558Y0232734D01*
X0243579Y0232773D01*
X0243603Y0232810D01*
X0243630Y0232845D01*
X0243660Y0232877D01*
X0243693Y0232907D01*
X0243729Y0232933D01*
X0243766Y0232957D01*
X0243806Y0232976D01*
X0243847Y0232993D01*
X0243890Y0233005D01*
X0243933Y0233014D01*
X0243977Y0233019D01*
X0244021Y0233020D01*
X0244065Y0233017D01*
X0244109Y0233010D01*
X0244152Y0232999D01*
X0244194Y0232985D01*
X0244234Y0232967D01*
X0244273Y0232945D01*
X0244309Y0232921D01*
X0244343Y0232893D01*
X0244375Y0232862D01*
X0244404Y0232828D01*
X0244430Y0232792D01*
X0244452Y0232754D01*
X0244471Y0232714D01*
X0244486Y0232672D01*
X0244498Y0232630D01*
X0244506Y0232586D01*
X0244510Y0232542D01*
X0244510Y0232498D01*
X0244506Y0232454D01*
X0244498Y0232410D01*
X0244486Y0232368D01*
X0244471Y0232326D01*
X0244452Y0232286D01*
X0244430Y0232248D01*
X0244404Y0232212D01*
X0244375Y0232178D01*
X0244343Y0232147D01*
X0244309Y0232119D01*
X0244273Y0232095D01*
X0244234Y0232073D01*
X0244194Y0232055D01*
X0244152Y0232041D01*
X0244109Y0232030D01*
X0244065Y0232023D01*
X0244021Y0232020D01*
X0243977Y0232021D01*
X0243933Y0232026D01*
X0243890Y0232035D01*
X0243847Y0232047D01*
X0243806Y0232064D01*
X0243766Y0232083D01*
X0243729Y0232107D01*
X0243693Y0232133D01*
X0243660Y0232163D01*
X0243630Y0232195D01*
X0243603Y0232230D01*
X0243579Y0232267D01*
X0243558Y0232306D01*
X0243541Y0232347D01*
X0243528Y0232389D01*
X0243518Y0232432D01*
X0243512Y0232476D01*
X0243510Y0232520D01*
X0223510Y0232520D02*
X0223512Y0232564D01*
X0223518Y0232608D01*
X0223528Y0232651D01*
X0223541Y0232693D01*
X0223558Y0232734D01*
X0223579Y0232773D01*
X0223603Y0232810D01*
X0223630Y0232845D01*
X0223660Y0232877D01*
X0223693Y0232907D01*
X0223729Y0232933D01*
X0223766Y0232957D01*
X0223806Y0232976D01*
X0223847Y0232993D01*
X0223890Y0233005D01*
X0223933Y0233014D01*
X0223977Y0233019D01*
X0224021Y0233020D01*
X0224065Y0233017D01*
X0224109Y0233010D01*
X0224152Y0232999D01*
X0224194Y0232985D01*
X0224234Y0232967D01*
X0224273Y0232945D01*
X0224309Y0232921D01*
X0224343Y0232893D01*
X0224375Y0232862D01*
X0224404Y0232828D01*
X0224430Y0232792D01*
X0224452Y0232754D01*
X0224471Y0232714D01*
X0224486Y0232672D01*
X0224498Y0232630D01*
X0224506Y0232586D01*
X0224510Y0232542D01*
X0224510Y0232498D01*
X0224506Y0232454D01*
X0224498Y0232410D01*
X0224486Y0232368D01*
X0224471Y0232326D01*
X0224452Y0232286D01*
X0224430Y0232248D01*
X0224404Y0232212D01*
X0224375Y0232178D01*
X0224343Y0232147D01*
X0224309Y0232119D01*
X0224273Y0232095D01*
X0224234Y0232073D01*
X0224194Y0232055D01*
X0224152Y0232041D01*
X0224109Y0232030D01*
X0224065Y0232023D01*
X0224021Y0232020D01*
X0223977Y0232021D01*
X0223933Y0232026D01*
X0223890Y0232035D01*
X0223847Y0232047D01*
X0223806Y0232064D01*
X0223766Y0232083D01*
X0223729Y0232107D01*
X0223693Y0232133D01*
X0223660Y0232163D01*
X0223630Y0232195D01*
X0223603Y0232230D01*
X0223579Y0232267D01*
X0223558Y0232306D01*
X0223541Y0232347D01*
X0223528Y0232389D01*
X0223518Y0232432D01*
X0223512Y0232476D01*
X0223510Y0232520D01*
X0224010Y0232520D02*
X0224010Y0242520D01*
X0223510Y0242520D02*
X0223512Y0242564D01*
X0223518Y0242608D01*
X0223528Y0242651D01*
X0223541Y0242693D01*
X0223558Y0242734D01*
X0223579Y0242773D01*
X0223603Y0242810D01*
X0223630Y0242845D01*
X0223660Y0242877D01*
X0223693Y0242907D01*
X0223729Y0242933D01*
X0223766Y0242957D01*
X0223806Y0242976D01*
X0223847Y0242993D01*
X0223890Y0243005D01*
X0223933Y0243014D01*
X0223977Y0243019D01*
X0224021Y0243020D01*
X0224065Y0243017D01*
X0224109Y0243010D01*
X0224152Y0242999D01*
X0224194Y0242985D01*
X0224234Y0242967D01*
X0224273Y0242945D01*
X0224309Y0242921D01*
X0224343Y0242893D01*
X0224375Y0242862D01*
X0224404Y0242828D01*
X0224430Y0242792D01*
X0224452Y0242754D01*
X0224471Y0242714D01*
X0224486Y0242672D01*
X0224498Y0242630D01*
X0224506Y0242586D01*
X0224510Y0242542D01*
X0224510Y0242498D01*
X0224506Y0242454D01*
X0224498Y0242410D01*
X0224486Y0242368D01*
X0224471Y0242326D01*
X0224452Y0242286D01*
X0224430Y0242248D01*
X0224404Y0242212D01*
X0224375Y0242178D01*
X0224343Y0242147D01*
X0224309Y0242119D01*
X0224273Y0242095D01*
X0224234Y0242073D01*
X0224194Y0242055D01*
X0224152Y0242041D01*
X0224109Y0242030D01*
X0224065Y0242023D01*
X0224021Y0242020D01*
X0223977Y0242021D01*
X0223933Y0242026D01*
X0223890Y0242035D01*
X0223847Y0242047D01*
X0223806Y0242064D01*
X0223766Y0242083D01*
X0223729Y0242107D01*
X0223693Y0242133D01*
X0223660Y0242163D01*
X0223630Y0242195D01*
X0223603Y0242230D01*
X0223579Y0242267D01*
X0223558Y0242306D01*
X0223541Y0242347D01*
X0223528Y0242389D01*
X0223518Y0242432D01*
X0223512Y0242476D01*
X0223510Y0242520D01*
X0223609Y0254420D02*
X0222708Y0254420D01*
X0222258Y0254870D01*
X0221113Y0254870D02*
X0220663Y0254420D01*
X0219762Y0254420D01*
X0219311Y0254870D01*
X0219762Y0255771D02*
X0220663Y0255771D01*
X0221113Y0255321D01*
X0221113Y0254870D01*
X0219762Y0255771D02*
X0219311Y0256222D01*
X0219311Y0256672D01*
X0219762Y0257122D01*
X0220663Y0257122D01*
X0221113Y0256672D01*
X0222258Y0256672D02*
X0222708Y0257122D01*
X0223609Y0257122D01*
X0224059Y0256672D01*
X0224059Y0256222D01*
X0223609Y0255771D01*
X0224059Y0255321D01*
X0224059Y0254870D01*
X0223609Y0254420D01*
X0223609Y0255771D02*
X0223159Y0255771D01*
X0130900Y0252520D02*
X0130900Y0222520D01*
X0100900Y0222520D01*
X0100900Y0252520D01*
X0110900Y0252520D01*
X0120900Y0257520D01*
X0120900Y0252520D02*
X0130900Y0252520D01*
X0125400Y0242520D02*
X0125402Y0242564D01*
X0125408Y0242608D01*
X0125418Y0242651D01*
X0125431Y0242693D01*
X0125448Y0242734D01*
X0125469Y0242773D01*
X0125493Y0242810D01*
X0125520Y0242845D01*
X0125550Y0242877D01*
X0125583Y0242907D01*
X0125619Y0242933D01*
X0125656Y0242957D01*
X0125696Y0242976D01*
X0125737Y0242993D01*
X0125780Y0243005D01*
X0125823Y0243014D01*
X0125867Y0243019D01*
X0125911Y0243020D01*
X0125955Y0243017D01*
X0125999Y0243010D01*
X0126042Y0242999D01*
X0126084Y0242985D01*
X0126124Y0242967D01*
X0126163Y0242945D01*
X0126199Y0242921D01*
X0126233Y0242893D01*
X0126265Y0242862D01*
X0126294Y0242828D01*
X0126320Y0242792D01*
X0126342Y0242754D01*
X0126361Y0242714D01*
X0126376Y0242672D01*
X0126388Y0242630D01*
X0126396Y0242586D01*
X0126400Y0242542D01*
X0126400Y0242498D01*
X0126396Y0242454D01*
X0126388Y0242410D01*
X0126376Y0242368D01*
X0126361Y0242326D01*
X0126342Y0242286D01*
X0126320Y0242248D01*
X0126294Y0242212D01*
X0126265Y0242178D01*
X0126233Y0242147D01*
X0126199Y0242119D01*
X0126163Y0242095D01*
X0126124Y0242073D01*
X0126084Y0242055D01*
X0126042Y0242041D01*
X0125999Y0242030D01*
X0125955Y0242023D01*
X0125911Y0242020D01*
X0125867Y0242021D01*
X0125823Y0242026D01*
X0125780Y0242035D01*
X0125737Y0242047D01*
X0125696Y0242064D01*
X0125656Y0242083D01*
X0125619Y0242107D01*
X0125583Y0242133D01*
X0125550Y0242163D01*
X0125520Y0242195D01*
X0125493Y0242230D01*
X0125469Y0242267D01*
X0125448Y0242306D01*
X0125431Y0242347D01*
X0125418Y0242389D01*
X0125408Y0242432D01*
X0125402Y0242476D01*
X0125400Y0242520D01*
X0125900Y0242520D02*
X0125900Y0232520D01*
X0125400Y0232520D02*
X0125402Y0232564D01*
X0125408Y0232608D01*
X0125418Y0232651D01*
X0125431Y0232693D01*
X0125448Y0232734D01*
X0125469Y0232773D01*
X0125493Y0232810D01*
X0125520Y0232845D01*
X0125550Y0232877D01*
X0125583Y0232907D01*
X0125619Y0232933D01*
X0125656Y0232957D01*
X0125696Y0232976D01*
X0125737Y0232993D01*
X0125780Y0233005D01*
X0125823Y0233014D01*
X0125867Y0233019D01*
X0125911Y0233020D01*
X0125955Y0233017D01*
X0125999Y0233010D01*
X0126042Y0232999D01*
X0126084Y0232985D01*
X0126124Y0232967D01*
X0126163Y0232945D01*
X0126199Y0232921D01*
X0126233Y0232893D01*
X0126265Y0232862D01*
X0126294Y0232828D01*
X0126320Y0232792D01*
X0126342Y0232754D01*
X0126361Y0232714D01*
X0126376Y0232672D01*
X0126388Y0232630D01*
X0126396Y0232586D01*
X0126400Y0232542D01*
X0126400Y0232498D01*
X0126396Y0232454D01*
X0126388Y0232410D01*
X0126376Y0232368D01*
X0126361Y0232326D01*
X0126342Y0232286D01*
X0126320Y0232248D01*
X0126294Y0232212D01*
X0126265Y0232178D01*
X0126233Y0232147D01*
X0126199Y0232119D01*
X0126163Y0232095D01*
X0126124Y0232073D01*
X0126084Y0232055D01*
X0126042Y0232041D01*
X0125999Y0232030D01*
X0125955Y0232023D01*
X0125911Y0232020D01*
X0125867Y0232021D01*
X0125823Y0232026D01*
X0125780Y0232035D01*
X0125737Y0232047D01*
X0125696Y0232064D01*
X0125656Y0232083D01*
X0125619Y0232107D01*
X0125583Y0232133D01*
X0125550Y0232163D01*
X0125520Y0232195D01*
X0125493Y0232230D01*
X0125469Y0232267D01*
X0125448Y0232306D01*
X0125431Y0232347D01*
X0125418Y0232389D01*
X0125408Y0232432D01*
X0125402Y0232476D01*
X0125400Y0232520D01*
X0105400Y0232520D02*
X0105402Y0232564D01*
X0105408Y0232608D01*
X0105418Y0232651D01*
X0105431Y0232693D01*
X0105448Y0232734D01*
X0105469Y0232773D01*
X0105493Y0232810D01*
X0105520Y0232845D01*
X0105550Y0232877D01*
X0105583Y0232907D01*
X0105619Y0232933D01*
X0105656Y0232957D01*
X0105696Y0232976D01*
X0105737Y0232993D01*
X0105780Y0233005D01*
X0105823Y0233014D01*
X0105867Y0233019D01*
X0105911Y0233020D01*
X0105955Y0233017D01*
X0105999Y0233010D01*
X0106042Y0232999D01*
X0106084Y0232985D01*
X0106124Y0232967D01*
X0106163Y0232945D01*
X0106199Y0232921D01*
X0106233Y0232893D01*
X0106265Y0232862D01*
X0106294Y0232828D01*
X0106320Y0232792D01*
X0106342Y0232754D01*
X0106361Y0232714D01*
X0106376Y0232672D01*
X0106388Y0232630D01*
X0106396Y0232586D01*
X0106400Y0232542D01*
X0106400Y0232498D01*
X0106396Y0232454D01*
X0106388Y0232410D01*
X0106376Y0232368D01*
X0106361Y0232326D01*
X0106342Y0232286D01*
X0106320Y0232248D01*
X0106294Y0232212D01*
X0106265Y0232178D01*
X0106233Y0232147D01*
X0106199Y0232119D01*
X0106163Y0232095D01*
X0106124Y0232073D01*
X0106084Y0232055D01*
X0106042Y0232041D01*
X0105999Y0232030D01*
X0105955Y0232023D01*
X0105911Y0232020D01*
X0105867Y0232021D01*
X0105823Y0232026D01*
X0105780Y0232035D01*
X0105737Y0232047D01*
X0105696Y0232064D01*
X0105656Y0232083D01*
X0105619Y0232107D01*
X0105583Y0232133D01*
X0105550Y0232163D01*
X0105520Y0232195D01*
X0105493Y0232230D01*
X0105469Y0232267D01*
X0105448Y0232306D01*
X0105431Y0232347D01*
X0105418Y0232389D01*
X0105408Y0232432D01*
X0105402Y0232476D01*
X0105400Y0232520D01*
X0105900Y0232520D02*
X0105900Y0242520D01*
X0105400Y0242520D02*
X0105402Y0242564D01*
X0105408Y0242608D01*
X0105418Y0242651D01*
X0105431Y0242693D01*
X0105448Y0242734D01*
X0105469Y0242773D01*
X0105493Y0242810D01*
X0105520Y0242845D01*
X0105550Y0242877D01*
X0105583Y0242907D01*
X0105619Y0242933D01*
X0105656Y0242957D01*
X0105696Y0242976D01*
X0105737Y0242993D01*
X0105780Y0243005D01*
X0105823Y0243014D01*
X0105867Y0243019D01*
X0105911Y0243020D01*
X0105955Y0243017D01*
X0105999Y0243010D01*
X0106042Y0242999D01*
X0106084Y0242985D01*
X0106124Y0242967D01*
X0106163Y0242945D01*
X0106199Y0242921D01*
X0106233Y0242893D01*
X0106265Y0242862D01*
X0106294Y0242828D01*
X0106320Y0242792D01*
X0106342Y0242754D01*
X0106361Y0242714D01*
X0106376Y0242672D01*
X0106388Y0242630D01*
X0106396Y0242586D01*
X0106400Y0242542D01*
X0106400Y0242498D01*
X0106396Y0242454D01*
X0106388Y0242410D01*
X0106376Y0242368D01*
X0106361Y0242326D01*
X0106342Y0242286D01*
X0106320Y0242248D01*
X0106294Y0242212D01*
X0106265Y0242178D01*
X0106233Y0242147D01*
X0106199Y0242119D01*
X0106163Y0242095D01*
X0106124Y0242073D01*
X0106084Y0242055D01*
X0106042Y0242041D01*
X0105999Y0242030D01*
X0105955Y0242023D01*
X0105911Y0242020D01*
X0105867Y0242021D01*
X0105823Y0242026D01*
X0105780Y0242035D01*
X0105737Y0242047D01*
X0105696Y0242064D01*
X0105656Y0242083D01*
X0105619Y0242107D01*
X0105583Y0242133D01*
X0105550Y0242163D01*
X0105520Y0242195D01*
X0105493Y0242230D01*
X0105469Y0242267D01*
X0105448Y0242306D01*
X0105431Y0242347D01*
X0105418Y0242389D01*
X0105408Y0242432D01*
X0105402Y0242476D01*
X0105400Y0242520D01*
X0105430Y0254597D02*
X0105430Y0257300D01*
X0104530Y0256399D01*
X0103385Y0256849D02*
X0102934Y0257300D01*
X0102033Y0257300D01*
X0101583Y0256849D01*
X0101583Y0256399D01*
X0102033Y0255948D01*
X0102934Y0255948D01*
X0103385Y0255498D01*
X0103385Y0255048D01*
X0102934Y0254597D01*
X0102033Y0254597D01*
X0101583Y0255048D01*
X0104530Y0254597D02*
X0106331Y0254597D01*
X0075595Y0323257D02*
X0038095Y0323257D01*
X0038095Y0337757D01*
X0035902Y0337534D02*
X0033200Y0337534D01*
X0034551Y0336183D01*
X0034551Y0337984D01*
X0035001Y0335038D02*
X0035452Y0335038D01*
X0035902Y0334587D01*
X0035902Y0333236D01*
X0033200Y0333236D01*
X0033200Y0334587D01*
X0033650Y0335038D01*
X0034100Y0335038D01*
X0034551Y0334587D01*
X0034551Y0333236D01*
X0034551Y0334587D02*
X0035001Y0335038D01*
X0035452Y0332091D02*
X0033650Y0332091D01*
X0033200Y0331641D01*
X0033200Y0330740D01*
X0033650Y0330289D01*
X0035452Y0330289D01*
X0035902Y0330740D01*
X0035902Y0331641D01*
X0035452Y0332091D01*
X0035902Y0329145D02*
X0033200Y0329145D01*
X0033200Y0327343D02*
X0035902Y0329145D01*
X0035902Y0327343D02*
X0033200Y0327343D01*
X0033200Y0326198D02*
X0035001Y0324396D01*
X0034551Y0324847D02*
X0035902Y0326198D01*
X0035902Y0324396D02*
X0033200Y0324396D01*
X0048845Y0347757D02*
X0048847Y0347953D01*
X0048855Y0348150D01*
X0048867Y0348346D01*
X0048884Y0348541D01*
X0048905Y0348736D01*
X0048932Y0348931D01*
X0048963Y0349125D01*
X0048999Y0349318D01*
X0049039Y0349510D01*
X0049085Y0349701D01*
X0049135Y0349891D01*
X0049189Y0350079D01*
X0049249Y0350266D01*
X0049313Y0350452D01*
X0049381Y0350636D01*
X0049454Y0350818D01*
X0049531Y0350999D01*
X0049613Y0351177D01*
X0049699Y0351354D01*
X0049790Y0351528D01*
X0049884Y0351700D01*
X0049983Y0351870D01*
X0050086Y0352037D01*
X0050193Y0352202D01*
X0050304Y0352363D01*
X0050419Y0352523D01*
X0050538Y0352679D01*
X0050661Y0352832D01*
X0050787Y0352982D01*
X0050917Y0353129D01*
X0051051Y0353273D01*
X0051188Y0353414D01*
X0051329Y0353551D01*
X0051473Y0353685D01*
X0051620Y0353815D01*
X0051770Y0353941D01*
X0051923Y0354064D01*
X0052079Y0354183D01*
X0052239Y0354298D01*
X0052400Y0354409D01*
X0052565Y0354516D01*
X0052732Y0354619D01*
X0052902Y0354718D01*
X0053074Y0354812D01*
X0053248Y0354903D01*
X0053425Y0354989D01*
X0053603Y0355071D01*
X0053784Y0355148D01*
X0053966Y0355221D01*
X0054150Y0355289D01*
X0054336Y0355353D01*
X0054523Y0355413D01*
X0054711Y0355467D01*
X0054901Y0355517D01*
X0055092Y0355563D01*
X0055284Y0355603D01*
X0055477Y0355639D01*
X0055671Y0355670D01*
X0055866Y0355697D01*
X0056061Y0355718D01*
X0056256Y0355735D01*
X0056452Y0355747D01*
X0056649Y0355755D01*
X0056845Y0355757D01*
X0057041Y0355755D01*
X0057238Y0355747D01*
X0057434Y0355735D01*
X0057629Y0355718D01*
X0057824Y0355697D01*
X0058019Y0355670D01*
X0058213Y0355639D01*
X0058406Y0355603D01*
X0058598Y0355563D01*
X0058789Y0355517D01*
X0058979Y0355467D01*
X0059167Y0355413D01*
X0059354Y0355353D01*
X0059540Y0355289D01*
X0059724Y0355221D01*
X0059906Y0355148D01*
X0060087Y0355071D01*
X0060265Y0354989D01*
X0060442Y0354903D01*
X0060616Y0354812D01*
X0060788Y0354718D01*
X0060958Y0354619D01*
X0061125Y0354516D01*
X0061290Y0354409D01*
X0061451Y0354298D01*
X0061611Y0354183D01*
X0061767Y0354064D01*
X0061920Y0353941D01*
X0062070Y0353815D01*
X0062217Y0353685D01*
X0062361Y0353551D01*
X0062502Y0353414D01*
X0062639Y0353273D01*
X0062773Y0353129D01*
X0062903Y0352982D01*
X0063029Y0352832D01*
X0063152Y0352679D01*
X0063271Y0352523D01*
X0063386Y0352363D01*
X0063497Y0352202D01*
X0063604Y0352037D01*
X0063707Y0351870D01*
X0063806Y0351700D01*
X0063900Y0351528D01*
X0063991Y0351354D01*
X0064077Y0351177D01*
X0064159Y0350999D01*
X0064236Y0350818D01*
X0064309Y0350636D01*
X0064377Y0350452D01*
X0064441Y0350266D01*
X0064501Y0350079D01*
X0064555Y0349891D01*
X0064605Y0349701D01*
X0064651Y0349510D01*
X0064691Y0349318D01*
X0064727Y0349125D01*
X0064758Y0348931D01*
X0064785Y0348736D01*
X0064806Y0348541D01*
X0064823Y0348346D01*
X0064835Y0348150D01*
X0064843Y0347953D01*
X0064845Y0347757D01*
X0064843Y0347561D01*
X0064835Y0347364D01*
X0064823Y0347168D01*
X0064806Y0346973D01*
X0064785Y0346778D01*
X0064758Y0346583D01*
X0064727Y0346389D01*
X0064691Y0346196D01*
X0064651Y0346004D01*
X0064605Y0345813D01*
X0064555Y0345623D01*
X0064501Y0345435D01*
X0064441Y0345248D01*
X0064377Y0345062D01*
X0064309Y0344878D01*
X0064236Y0344696D01*
X0064159Y0344515D01*
X0064077Y0344337D01*
X0063991Y0344160D01*
X0063900Y0343986D01*
X0063806Y0343814D01*
X0063707Y0343644D01*
X0063604Y0343477D01*
X0063497Y0343312D01*
X0063386Y0343151D01*
X0063271Y0342991D01*
X0063152Y0342835D01*
X0063029Y0342682D01*
X0062903Y0342532D01*
X0062773Y0342385D01*
X0062639Y0342241D01*
X0062502Y0342100D01*
X0062361Y0341963D01*
X0062217Y0341829D01*
X0062070Y0341699D01*
X0061920Y0341573D01*
X0061767Y0341450D01*
X0061611Y0341331D01*
X0061451Y0341216D01*
X0061290Y0341105D01*
X0061125Y0340998D01*
X0060958Y0340895D01*
X0060788Y0340796D01*
X0060616Y0340702D01*
X0060442Y0340611D01*
X0060265Y0340525D01*
X0060087Y0340443D01*
X0059906Y0340366D01*
X0059724Y0340293D01*
X0059540Y0340225D01*
X0059354Y0340161D01*
X0059167Y0340101D01*
X0058979Y0340047D01*
X0058789Y0339997D01*
X0058598Y0339951D01*
X0058406Y0339911D01*
X0058213Y0339875D01*
X0058019Y0339844D01*
X0057824Y0339817D01*
X0057629Y0339796D01*
X0057434Y0339779D01*
X0057238Y0339767D01*
X0057041Y0339759D01*
X0056845Y0339757D01*
X0056649Y0339759D01*
X0056452Y0339767D01*
X0056256Y0339779D01*
X0056061Y0339796D01*
X0055866Y0339817D01*
X0055671Y0339844D01*
X0055477Y0339875D01*
X0055284Y0339911D01*
X0055092Y0339951D01*
X0054901Y0339997D01*
X0054711Y0340047D01*
X0054523Y0340101D01*
X0054336Y0340161D01*
X0054150Y0340225D01*
X0053966Y0340293D01*
X0053784Y0340366D01*
X0053603Y0340443D01*
X0053425Y0340525D01*
X0053248Y0340611D01*
X0053074Y0340702D01*
X0052902Y0340796D01*
X0052732Y0340895D01*
X0052565Y0340998D01*
X0052400Y0341105D01*
X0052239Y0341216D01*
X0052079Y0341331D01*
X0051923Y0341450D01*
X0051770Y0341573D01*
X0051620Y0341699D01*
X0051473Y0341829D01*
X0051329Y0341963D01*
X0051188Y0342100D01*
X0051051Y0342241D01*
X0050917Y0342385D01*
X0050787Y0342532D01*
X0050661Y0342682D01*
X0050538Y0342835D01*
X0050419Y0342991D01*
X0050304Y0343151D01*
X0050193Y0343312D01*
X0050086Y0343477D01*
X0049983Y0343644D01*
X0049884Y0343814D01*
X0049790Y0343986D01*
X0049699Y0344160D01*
X0049613Y0344337D01*
X0049531Y0344515D01*
X0049454Y0344696D01*
X0049381Y0344878D01*
X0049313Y0345062D01*
X0049249Y0345248D01*
X0049189Y0345435D01*
X0049135Y0345623D01*
X0049085Y0345813D01*
X0049039Y0346004D01*
X0048999Y0346196D01*
X0048963Y0346389D01*
X0048932Y0346583D01*
X0048905Y0346778D01*
X0048884Y0346973D01*
X0048867Y0347168D01*
X0048855Y0347364D01*
X0048847Y0347561D01*
X0048845Y0347757D01*
X0038095Y0357757D02*
X0038095Y0366507D01*
X0038095Y0366757D02*
X0075595Y0366757D01*
X0075595Y0366507D02*
X0075595Y0357757D01*
X0075595Y0337757D02*
X0075595Y0323257D01*
X0161884Y0152520D02*
X0161884Y0101772D01*
X0174798Y0101772D01*
X0174955Y0101784D02*
X0187955Y0101784D01*
X0187955Y0152284D01*
X0187987Y0152520D02*
X0174955Y0152520D01*
X0174837Y0152520D02*
X0161884Y0152520D01*
X0120900Y0107914D02*
X0110900Y0102914D01*
X0100900Y0102914D01*
X0100900Y0072914D01*
X0130900Y0072914D01*
X0130900Y0102914D01*
X0120900Y0102914D01*
X0125400Y0092914D02*
X0125402Y0092958D01*
X0125408Y0093002D01*
X0125418Y0093045D01*
X0125431Y0093087D01*
X0125448Y0093128D01*
X0125469Y0093167D01*
X0125493Y0093204D01*
X0125520Y0093239D01*
X0125550Y0093271D01*
X0125583Y0093301D01*
X0125619Y0093327D01*
X0125656Y0093351D01*
X0125696Y0093370D01*
X0125737Y0093387D01*
X0125780Y0093399D01*
X0125823Y0093408D01*
X0125867Y0093413D01*
X0125911Y0093414D01*
X0125955Y0093411D01*
X0125999Y0093404D01*
X0126042Y0093393D01*
X0126084Y0093379D01*
X0126124Y0093361D01*
X0126163Y0093339D01*
X0126199Y0093315D01*
X0126233Y0093287D01*
X0126265Y0093256D01*
X0126294Y0093222D01*
X0126320Y0093186D01*
X0126342Y0093148D01*
X0126361Y0093108D01*
X0126376Y0093066D01*
X0126388Y0093024D01*
X0126396Y0092980D01*
X0126400Y0092936D01*
X0126400Y0092892D01*
X0126396Y0092848D01*
X0126388Y0092804D01*
X0126376Y0092762D01*
X0126361Y0092720D01*
X0126342Y0092680D01*
X0126320Y0092642D01*
X0126294Y0092606D01*
X0126265Y0092572D01*
X0126233Y0092541D01*
X0126199Y0092513D01*
X0126163Y0092489D01*
X0126124Y0092467D01*
X0126084Y0092449D01*
X0126042Y0092435D01*
X0125999Y0092424D01*
X0125955Y0092417D01*
X0125911Y0092414D01*
X0125867Y0092415D01*
X0125823Y0092420D01*
X0125780Y0092429D01*
X0125737Y0092441D01*
X0125696Y0092458D01*
X0125656Y0092477D01*
X0125619Y0092501D01*
X0125583Y0092527D01*
X0125550Y0092557D01*
X0125520Y0092589D01*
X0125493Y0092624D01*
X0125469Y0092661D01*
X0125448Y0092700D01*
X0125431Y0092741D01*
X0125418Y0092783D01*
X0125408Y0092826D01*
X0125402Y0092870D01*
X0125400Y0092914D01*
X0125900Y0092914D02*
X0125900Y0082914D01*
X0125400Y0082914D02*
X0125402Y0082958D01*
X0125408Y0083002D01*
X0125418Y0083045D01*
X0125431Y0083087D01*
X0125448Y0083128D01*
X0125469Y0083167D01*
X0125493Y0083204D01*
X0125520Y0083239D01*
X0125550Y0083271D01*
X0125583Y0083301D01*
X0125619Y0083327D01*
X0125656Y0083351D01*
X0125696Y0083370D01*
X0125737Y0083387D01*
X0125780Y0083399D01*
X0125823Y0083408D01*
X0125867Y0083413D01*
X0125911Y0083414D01*
X0125955Y0083411D01*
X0125999Y0083404D01*
X0126042Y0083393D01*
X0126084Y0083379D01*
X0126124Y0083361D01*
X0126163Y0083339D01*
X0126199Y0083315D01*
X0126233Y0083287D01*
X0126265Y0083256D01*
X0126294Y0083222D01*
X0126320Y0083186D01*
X0126342Y0083148D01*
X0126361Y0083108D01*
X0126376Y0083066D01*
X0126388Y0083024D01*
X0126396Y0082980D01*
X0126400Y0082936D01*
X0126400Y0082892D01*
X0126396Y0082848D01*
X0126388Y0082804D01*
X0126376Y0082762D01*
X0126361Y0082720D01*
X0126342Y0082680D01*
X0126320Y0082642D01*
X0126294Y0082606D01*
X0126265Y0082572D01*
X0126233Y0082541D01*
X0126199Y0082513D01*
X0126163Y0082489D01*
X0126124Y0082467D01*
X0126084Y0082449D01*
X0126042Y0082435D01*
X0125999Y0082424D01*
X0125955Y0082417D01*
X0125911Y0082414D01*
X0125867Y0082415D01*
X0125823Y0082420D01*
X0125780Y0082429D01*
X0125737Y0082441D01*
X0125696Y0082458D01*
X0125656Y0082477D01*
X0125619Y0082501D01*
X0125583Y0082527D01*
X0125550Y0082557D01*
X0125520Y0082589D01*
X0125493Y0082624D01*
X0125469Y0082661D01*
X0125448Y0082700D01*
X0125431Y0082741D01*
X0125418Y0082783D01*
X0125408Y0082826D01*
X0125402Y0082870D01*
X0125400Y0082914D01*
X0105400Y0082914D02*
X0105402Y0082958D01*
X0105408Y0083002D01*
X0105418Y0083045D01*
X0105431Y0083087D01*
X0105448Y0083128D01*
X0105469Y0083167D01*
X0105493Y0083204D01*
X0105520Y0083239D01*
X0105550Y0083271D01*
X0105583Y0083301D01*
X0105619Y0083327D01*
X0105656Y0083351D01*
X0105696Y0083370D01*
X0105737Y0083387D01*
X0105780Y0083399D01*
X0105823Y0083408D01*
X0105867Y0083413D01*
X0105911Y0083414D01*
X0105955Y0083411D01*
X0105999Y0083404D01*
X0106042Y0083393D01*
X0106084Y0083379D01*
X0106124Y0083361D01*
X0106163Y0083339D01*
X0106199Y0083315D01*
X0106233Y0083287D01*
X0106265Y0083256D01*
X0106294Y0083222D01*
X0106320Y0083186D01*
X0106342Y0083148D01*
X0106361Y0083108D01*
X0106376Y0083066D01*
X0106388Y0083024D01*
X0106396Y0082980D01*
X0106400Y0082936D01*
X0106400Y0082892D01*
X0106396Y0082848D01*
X0106388Y0082804D01*
X0106376Y0082762D01*
X0106361Y0082720D01*
X0106342Y0082680D01*
X0106320Y0082642D01*
X0106294Y0082606D01*
X0106265Y0082572D01*
X0106233Y0082541D01*
X0106199Y0082513D01*
X0106163Y0082489D01*
X0106124Y0082467D01*
X0106084Y0082449D01*
X0106042Y0082435D01*
X0105999Y0082424D01*
X0105955Y0082417D01*
X0105911Y0082414D01*
X0105867Y0082415D01*
X0105823Y0082420D01*
X0105780Y0082429D01*
X0105737Y0082441D01*
X0105696Y0082458D01*
X0105656Y0082477D01*
X0105619Y0082501D01*
X0105583Y0082527D01*
X0105550Y0082557D01*
X0105520Y0082589D01*
X0105493Y0082624D01*
X0105469Y0082661D01*
X0105448Y0082700D01*
X0105431Y0082741D01*
X0105418Y0082783D01*
X0105408Y0082826D01*
X0105402Y0082870D01*
X0105400Y0082914D01*
X0105900Y0082914D02*
X0105900Y0092914D01*
X0105400Y0092914D02*
X0105402Y0092958D01*
X0105408Y0093002D01*
X0105418Y0093045D01*
X0105431Y0093087D01*
X0105448Y0093128D01*
X0105469Y0093167D01*
X0105493Y0093204D01*
X0105520Y0093239D01*
X0105550Y0093271D01*
X0105583Y0093301D01*
X0105619Y0093327D01*
X0105656Y0093351D01*
X0105696Y0093370D01*
X0105737Y0093387D01*
X0105780Y0093399D01*
X0105823Y0093408D01*
X0105867Y0093413D01*
X0105911Y0093414D01*
X0105955Y0093411D01*
X0105999Y0093404D01*
X0106042Y0093393D01*
X0106084Y0093379D01*
X0106124Y0093361D01*
X0106163Y0093339D01*
X0106199Y0093315D01*
X0106233Y0093287D01*
X0106265Y0093256D01*
X0106294Y0093222D01*
X0106320Y0093186D01*
X0106342Y0093148D01*
X0106361Y0093108D01*
X0106376Y0093066D01*
X0106388Y0093024D01*
X0106396Y0092980D01*
X0106400Y0092936D01*
X0106400Y0092892D01*
X0106396Y0092848D01*
X0106388Y0092804D01*
X0106376Y0092762D01*
X0106361Y0092720D01*
X0106342Y0092680D01*
X0106320Y0092642D01*
X0106294Y0092606D01*
X0106265Y0092572D01*
X0106233Y0092541D01*
X0106199Y0092513D01*
X0106163Y0092489D01*
X0106124Y0092467D01*
X0106084Y0092449D01*
X0106042Y0092435D01*
X0105999Y0092424D01*
X0105955Y0092417D01*
X0105911Y0092414D01*
X0105867Y0092415D01*
X0105823Y0092420D01*
X0105780Y0092429D01*
X0105737Y0092441D01*
X0105696Y0092458D01*
X0105656Y0092477D01*
X0105619Y0092501D01*
X0105583Y0092527D01*
X0105550Y0092557D01*
X0105520Y0092589D01*
X0105493Y0092624D01*
X0105469Y0092661D01*
X0105448Y0092700D01*
X0105431Y0092741D01*
X0105418Y0092783D01*
X0105408Y0092826D01*
X0105402Y0092870D01*
X0105400Y0092914D01*
X0105882Y0104467D02*
X0104081Y0104467D01*
X0105882Y0106269D01*
X0105882Y0106719D01*
X0105432Y0107170D01*
X0104531Y0107170D01*
X0104081Y0106719D01*
X0102936Y0106719D02*
X0102485Y0107170D01*
X0101585Y0107170D01*
X0101134Y0106719D01*
X0101134Y0106269D01*
X0101585Y0105818D01*
X0102485Y0105818D01*
X0102936Y0105368D01*
X0102936Y0104918D01*
X0102485Y0104467D01*
X0101585Y0104467D01*
X0101134Y0104918D01*
X0075595Y0113662D02*
X0075595Y0122412D01*
X0075595Y0122662D02*
X0038095Y0122662D01*
X0038095Y0122412D02*
X0038095Y0113662D01*
X0035066Y0093878D02*
X0035516Y0093427D01*
X0035516Y0092527D01*
X0035066Y0092076D01*
X0035066Y0090931D02*
X0035516Y0090481D01*
X0035516Y0089130D01*
X0032814Y0089130D01*
X0032814Y0090481D01*
X0033264Y0090931D01*
X0033715Y0090931D01*
X0034165Y0090481D01*
X0034165Y0089130D01*
X0034165Y0090481D02*
X0034615Y0090931D01*
X0035066Y0090931D01*
X0033264Y0092076D02*
X0032814Y0092527D01*
X0032814Y0093427D01*
X0033264Y0093878D01*
X0033715Y0093878D01*
X0034165Y0093427D01*
X0034615Y0093878D01*
X0035066Y0093878D01*
X0034165Y0093427D02*
X0034165Y0092977D01*
X0038095Y0093662D02*
X0038095Y0079162D01*
X0075595Y0079162D01*
X0075595Y0093662D01*
X0048845Y0103662D02*
X0048847Y0103858D01*
X0048855Y0104055D01*
X0048867Y0104251D01*
X0048884Y0104446D01*
X0048905Y0104641D01*
X0048932Y0104836D01*
X0048963Y0105030D01*
X0048999Y0105223D01*
X0049039Y0105415D01*
X0049085Y0105606D01*
X0049135Y0105796D01*
X0049189Y0105984D01*
X0049249Y0106171D01*
X0049313Y0106357D01*
X0049381Y0106541D01*
X0049454Y0106723D01*
X0049531Y0106904D01*
X0049613Y0107082D01*
X0049699Y0107259D01*
X0049790Y0107433D01*
X0049884Y0107605D01*
X0049983Y0107775D01*
X0050086Y0107942D01*
X0050193Y0108107D01*
X0050304Y0108268D01*
X0050419Y0108428D01*
X0050538Y0108584D01*
X0050661Y0108737D01*
X0050787Y0108887D01*
X0050917Y0109034D01*
X0051051Y0109178D01*
X0051188Y0109319D01*
X0051329Y0109456D01*
X0051473Y0109590D01*
X0051620Y0109720D01*
X0051770Y0109846D01*
X0051923Y0109969D01*
X0052079Y0110088D01*
X0052239Y0110203D01*
X0052400Y0110314D01*
X0052565Y0110421D01*
X0052732Y0110524D01*
X0052902Y0110623D01*
X0053074Y0110717D01*
X0053248Y0110808D01*
X0053425Y0110894D01*
X0053603Y0110976D01*
X0053784Y0111053D01*
X0053966Y0111126D01*
X0054150Y0111194D01*
X0054336Y0111258D01*
X0054523Y0111318D01*
X0054711Y0111372D01*
X0054901Y0111422D01*
X0055092Y0111468D01*
X0055284Y0111508D01*
X0055477Y0111544D01*
X0055671Y0111575D01*
X0055866Y0111602D01*
X0056061Y0111623D01*
X0056256Y0111640D01*
X0056452Y0111652D01*
X0056649Y0111660D01*
X0056845Y0111662D01*
X0057041Y0111660D01*
X0057238Y0111652D01*
X0057434Y0111640D01*
X0057629Y0111623D01*
X0057824Y0111602D01*
X0058019Y0111575D01*
X0058213Y0111544D01*
X0058406Y0111508D01*
X0058598Y0111468D01*
X0058789Y0111422D01*
X0058979Y0111372D01*
X0059167Y0111318D01*
X0059354Y0111258D01*
X0059540Y0111194D01*
X0059724Y0111126D01*
X0059906Y0111053D01*
X0060087Y0110976D01*
X0060265Y0110894D01*
X0060442Y0110808D01*
X0060616Y0110717D01*
X0060788Y0110623D01*
X0060958Y0110524D01*
X0061125Y0110421D01*
X0061290Y0110314D01*
X0061451Y0110203D01*
X0061611Y0110088D01*
X0061767Y0109969D01*
X0061920Y0109846D01*
X0062070Y0109720D01*
X0062217Y0109590D01*
X0062361Y0109456D01*
X0062502Y0109319D01*
X0062639Y0109178D01*
X0062773Y0109034D01*
X0062903Y0108887D01*
X0063029Y0108737D01*
X0063152Y0108584D01*
X0063271Y0108428D01*
X0063386Y0108268D01*
X0063497Y0108107D01*
X0063604Y0107942D01*
X0063707Y0107775D01*
X0063806Y0107605D01*
X0063900Y0107433D01*
X0063991Y0107259D01*
X0064077Y0107082D01*
X0064159Y0106904D01*
X0064236Y0106723D01*
X0064309Y0106541D01*
X0064377Y0106357D01*
X0064441Y0106171D01*
X0064501Y0105984D01*
X0064555Y0105796D01*
X0064605Y0105606D01*
X0064651Y0105415D01*
X0064691Y0105223D01*
X0064727Y0105030D01*
X0064758Y0104836D01*
X0064785Y0104641D01*
X0064806Y0104446D01*
X0064823Y0104251D01*
X0064835Y0104055D01*
X0064843Y0103858D01*
X0064845Y0103662D01*
X0064843Y0103466D01*
X0064835Y0103269D01*
X0064823Y0103073D01*
X0064806Y0102878D01*
X0064785Y0102683D01*
X0064758Y0102488D01*
X0064727Y0102294D01*
X0064691Y0102101D01*
X0064651Y0101909D01*
X0064605Y0101718D01*
X0064555Y0101528D01*
X0064501Y0101340D01*
X0064441Y0101153D01*
X0064377Y0100967D01*
X0064309Y0100783D01*
X0064236Y0100601D01*
X0064159Y0100420D01*
X0064077Y0100242D01*
X0063991Y0100065D01*
X0063900Y0099891D01*
X0063806Y0099719D01*
X0063707Y0099549D01*
X0063604Y0099382D01*
X0063497Y0099217D01*
X0063386Y0099056D01*
X0063271Y0098896D01*
X0063152Y0098740D01*
X0063029Y0098587D01*
X0062903Y0098437D01*
X0062773Y0098290D01*
X0062639Y0098146D01*
X0062502Y0098005D01*
X0062361Y0097868D01*
X0062217Y0097734D01*
X0062070Y0097604D01*
X0061920Y0097478D01*
X0061767Y0097355D01*
X0061611Y0097236D01*
X0061451Y0097121D01*
X0061290Y0097010D01*
X0061125Y0096903D01*
X0060958Y0096800D01*
X0060788Y0096701D01*
X0060616Y0096607D01*
X0060442Y0096516D01*
X0060265Y0096430D01*
X0060087Y0096348D01*
X0059906Y0096271D01*
X0059724Y0096198D01*
X0059540Y0096130D01*
X0059354Y0096066D01*
X0059167Y0096006D01*
X0058979Y0095952D01*
X0058789Y0095902D01*
X0058598Y0095856D01*
X0058406Y0095816D01*
X0058213Y0095780D01*
X0058019Y0095749D01*
X0057824Y0095722D01*
X0057629Y0095701D01*
X0057434Y0095684D01*
X0057238Y0095672D01*
X0057041Y0095664D01*
X0056845Y0095662D01*
X0056649Y0095664D01*
X0056452Y0095672D01*
X0056256Y0095684D01*
X0056061Y0095701D01*
X0055866Y0095722D01*
X0055671Y0095749D01*
X0055477Y0095780D01*
X0055284Y0095816D01*
X0055092Y0095856D01*
X0054901Y0095902D01*
X0054711Y0095952D01*
X0054523Y0096006D01*
X0054336Y0096066D01*
X0054150Y0096130D01*
X0053966Y0096198D01*
X0053784Y0096271D01*
X0053603Y0096348D01*
X0053425Y0096430D01*
X0053248Y0096516D01*
X0053074Y0096607D01*
X0052902Y0096701D01*
X0052732Y0096800D01*
X0052565Y0096903D01*
X0052400Y0097010D01*
X0052239Y0097121D01*
X0052079Y0097236D01*
X0051923Y0097355D01*
X0051770Y0097478D01*
X0051620Y0097604D01*
X0051473Y0097734D01*
X0051329Y0097868D01*
X0051188Y0098005D01*
X0051051Y0098146D01*
X0050917Y0098290D01*
X0050787Y0098437D01*
X0050661Y0098587D01*
X0050538Y0098740D01*
X0050419Y0098896D01*
X0050304Y0099056D01*
X0050193Y0099217D01*
X0050086Y0099382D01*
X0049983Y0099549D01*
X0049884Y0099719D01*
X0049790Y0099891D01*
X0049699Y0100065D01*
X0049613Y0100242D01*
X0049531Y0100420D01*
X0049454Y0100601D01*
X0049381Y0100783D01*
X0049313Y0100967D01*
X0049249Y0101153D01*
X0049189Y0101340D01*
X0049135Y0101528D01*
X0049085Y0101718D01*
X0049039Y0101909D01*
X0048999Y0102101D01*
X0048963Y0102294D01*
X0048932Y0102488D01*
X0048905Y0102683D01*
X0048884Y0102878D01*
X0048867Y0103073D01*
X0048855Y0103269D01*
X0048847Y0103466D01*
X0048845Y0103662D01*
X0035066Y0087985D02*
X0033264Y0087985D01*
X0032814Y0087534D01*
X0032814Y0086634D01*
X0033264Y0086183D01*
X0035066Y0086183D01*
X0035516Y0086634D01*
X0035516Y0087534D01*
X0035066Y0087985D01*
X0035516Y0085038D02*
X0032814Y0085038D01*
X0032814Y0083237D02*
X0035516Y0085038D01*
X0035516Y0083237D02*
X0032814Y0083237D01*
X0032814Y0082092D02*
X0034615Y0080290D01*
X0034165Y0080741D02*
X0035516Y0082092D01*
X0035516Y0080290D02*
X0032814Y0080290D01*
X0219010Y0072914D02*
X0249010Y0072914D01*
X0249010Y0102914D01*
X0239010Y0102914D01*
X0239010Y0107914D02*
X0229010Y0102914D01*
X0219010Y0102914D01*
X0219010Y0072914D01*
X0223510Y0082914D02*
X0223512Y0082958D01*
X0223518Y0083002D01*
X0223528Y0083045D01*
X0223541Y0083087D01*
X0223558Y0083128D01*
X0223579Y0083167D01*
X0223603Y0083204D01*
X0223630Y0083239D01*
X0223660Y0083271D01*
X0223693Y0083301D01*
X0223729Y0083327D01*
X0223766Y0083351D01*
X0223806Y0083370D01*
X0223847Y0083387D01*
X0223890Y0083399D01*
X0223933Y0083408D01*
X0223977Y0083413D01*
X0224021Y0083414D01*
X0224065Y0083411D01*
X0224109Y0083404D01*
X0224152Y0083393D01*
X0224194Y0083379D01*
X0224234Y0083361D01*
X0224273Y0083339D01*
X0224309Y0083315D01*
X0224343Y0083287D01*
X0224375Y0083256D01*
X0224404Y0083222D01*
X0224430Y0083186D01*
X0224452Y0083148D01*
X0224471Y0083108D01*
X0224486Y0083066D01*
X0224498Y0083024D01*
X0224506Y0082980D01*
X0224510Y0082936D01*
X0224510Y0082892D01*
X0224506Y0082848D01*
X0224498Y0082804D01*
X0224486Y0082762D01*
X0224471Y0082720D01*
X0224452Y0082680D01*
X0224430Y0082642D01*
X0224404Y0082606D01*
X0224375Y0082572D01*
X0224343Y0082541D01*
X0224309Y0082513D01*
X0224273Y0082489D01*
X0224234Y0082467D01*
X0224194Y0082449D01*
X0224152Y0082435D01*
X0224109Y0082424D01*
X0224065Y0082417D01*
X0224021Y0082414D01*
X0223977Y0082415D01*
X0223933Y0082420D01*
X0223890Y0082429D01*
X0223847Y0082441D01*
X0223806Y0082458D01*
X0223766Y0082477D01*
X0223729Y0082501D01*
X0223693Y0082527D01*
X0223660Y0082557D01*
X0223630Y0082589D01*
X0223603Y0082624D01*
X0223579Y0082661D01*
X0223558Y0082700D01*
X0223541Y0082741D01*
X0223528Y0082783D01*
X0223518Y0082826D01*
X0223512Y0082870D01*
X0223510Y0082914D01*
X0224010Y0082914D02*
X0224010Y0092914D01*
X0223510Y0092914D02*
X0223512Y0092958D01*
X0223518Y0093002D01*
X0223528Y0093045D01*
X0223541Y0093087D01*
X0223558Y0093128D01*
X0223579Y0093167D01*
X0223603Y0093204D01*
X0223630Y0093239D01*
X0223660Y0093271D01*
X0223693Y0093301D01*
X0223729Y0093327D01*
X0223766Y0093351D01*
X0223806Y0093370D01*
X0223847Y0093387D01*
X0223890Y0093399D01*
X0223933Y0093408D01*
X0223977Y0093413D01*
X0224021Y0093414D01*
X0224065Y0093411D01*
X0224109Y0093404D01*
X0224152Y0093393D01*
X0224194Y0093379D01*
X0224234Y0093361D01*
X0224273Y0093339D01*
X0224309Y0093315D01*
X0224343Y0093287D01*
X0224375Y0093256D01*
X0224404Y0093222D01*
X0224430Y0093186D01*
X0224452Y0093148D01*
X0224471Y0093108D01*
X0224486Y0093066D01*
X0224498Y0093024D01*
X0224506Y0092980D01*
X0224510Y0092936D01*
X0224510Y0092892D01*
X0224506Y0092848D01*
X0224498Y0092804D01*
X0224486Y0092762D01*
X0224471Y0092720D01*
X0224452Y0092680D01*
X0224430Y0092642D01*
X0224404Y0092606D01*
X0224375Y0092572D01*
X0224343Y0092541D01*
X0224309Y0092513D01*
X0224273Y0092489D01*
X0224234Y0092467D01*
X0224194Y0092449D01*
X0224152Y0092435D01*
X0224109Y0092424D01*
X0224065Y0092417D01*
X0224021Y0092414D01*
X0223977Y0092415D01*
X0223933Y0092420D01*
X0223890Y0092429D01*
X0223847Y0092441D01*
X0223806Y0092458D01*
X0223766Y0092477D01*
X0223729Y0092501D01*
X0223693Y0092527D01*
X0223660Y0092557D01*
X0223630Y0092589D01*
X0223603Y0092624D01*
X0223579Y0092661D01*
X0223558Y0092700D01*
X0223541Y0092741D01*
X0223528Y0092783D01*
X0223518Y0092826D01*
X0223512Y0092870D01*
X0223510Y0092914D01*
X0222375Y0105129D02*
X0221474Y0105129D01*
X0221024Y0105579D01*
X0221474Y0106480D02*
X0222375Y0106480D01*
X0222826Y0106030D01*
X0222826Y0105579D01*
X0222375Y0105129D01*
X0221474Y0106480D02*
X0221024Y0106930D01*
X0221024Y0107381D01*
X0221474Y0107831D01*
X0222375Y0107831D01*
X0222826Y0107381D01*
X0223971Y0106480D02*
X0225772Y0106480D01*
X0225322Y0107831D02*
X0223971Y0106480D01*
X0225322Y0105129D02*
X0225322Y0107831D01*
X0243510Y0092914D02*
X0243512Y0092958D01*
X0243518Y0093002D01*
X0243528Y0093045D01*
X0243541Y0093087D01*
X0243558Y0093128D01*
X0243579Y0093167D01*
X0243603Y0093204D01*
X0243630Y0093239D01*
X0243660Y0093271D01*
X0243693Y0093301D01*
X0243729Y0093327D01*
X0243766Y0093351D01*
X0243806Y0093370D01*
X0243847Y0093387D01*
X0243890Y0093399D01*
X0243933Y0093408D01*
X0243977Y0093413D01*
X0244021Y0093414D01*
X0244065Y0093411D01*
X0244109Y0093404D01*
X0244152Y0093393D01*
X0244194Y0093379D01*
X0244234Y0093361D01*
X0244273Y0093339D01*
X0244309Y0093315D01*
X0244343Y0093287D01*
X0244375Y0093256D01*
X0244404Y0093222D01*
X0244430Y0093186D01*
X0244452Y0093148D01*
X0244471Y0093108D01*
X0244486Y0093066D01*
X0244498Y0093024D01*
X0244506Y0092980D01*
X0244510Y0092936D01*
X0244510Y0092892D01*
X0244506Y0092848D01*
X0244498Y0092804D01*
X0244486Y0092762D01*
X0244471Y0092720D01*
X0244452Y0092680D01*
X0244430Y0092642D01*
X0244404Y0092606D01*
X0244375Y0092572D01*
X0244343Y0092541D01*
X0244309Y0092513D01*
X0244273Y0092489D01*
X0244234Y0092467D01*
X0244194Y0092449D01*
X0244152Y0092435D01*
X0244109Y0092424D01*
X0244065Y0092417D01*
X0244021Y0092414D01*
X0243977Y0092415D01*
X0243933Y0092420D01*
X0243890Y0092429D01*
X0243847Y0092441D01*
X0243806Y0092458D01*
X0243766Y0092477D01*
X0243729Y0092501D01*
X0243693Y0092527D01*
X0243660Y0092557D01*
X0243630Y0092589D01*
X0243603Y0092624D01*
X0243579Y0092661D01*
X0243558Y0092700D01*
X0243541Y0092741D01*
X0243528Y0092783D01*
X0243518Y0092826D01*
X0243512Y0092870D01*
X0243510Y0092914D01*
X0244010Y0092914D02*
X0244010Y0082914D01*
X0243510Y0082914D02*
X0243512Y0082958D01*
X0243518Y0083002D01*
X0243528Y0083045D01*
X0243541Y0083087D01*
X0243558Y0083128D01*
X0243579Y0083167D01*
X0243603Y0083204D01*
X0243630Y0083239D01*
X0243660Y0083271D01*
X0243693Y0083301D01*
X0243729Y0083327D01*
X0243766Y0083351D01*
X0243806Y0083370D01*
X0243847Y0083387D01*
X0243890Y0083399D01*
X0243933Y0083408D01*
X0243977Y0083413D01*
X0244021Y0083414D01*
X0244065Y0083411D01*
X0244109Y0083404D01*
X0244152Y0083393D01*
X0244194Y0083379D01*
X0244234Y0083361D01*
X0244273Y0083339D01*
X0244309Y0083315D01*
X0244343Y0083287D01*
X0244375Y0083256D01*
X0244404Y0083222D01*
X0244430Y0083186D01*
X0244452Y0083148D01*
X0244471Y0083108D01*
X0244486Y0083066D01*
X0244498Y0083024D01*
X0244506Y0082980D01*
X0244510Y0082936D01*
X0244510Y0082892D01*
X0244506Y0082848D01*
X0244498Y0082804D01*
X0244486Y0082762D01*
X0244471Y0082720D01*
X0244452Y0082680D01*
X0244430Y0082642D01*
X0244404Y0082606D01*
X0244375Y0082572D01*
X0244343Y0082541D01*
X0244309Y0082513D01*
X0244273Y0082489D01*
X0244234Y0082467D01*
X0244194Y0082449D01*
X0244152Y0082435D01*
X0244109Y0082424D01*
X0244065Y0082417D01*
X0244021Y0082414D01*
X0243977Y0082415D01*
X0243933Y0082420D01*
X0243890Y0082429D01*
X0243847Y0082441D01*
X0243806Y0082458D01*
X0243766Y0082477D01*
X0243729Y0082501D01*
X0243693Y0082527D01*
X0243660Y0082557D01*
X0243630Y0082589D01*
X0243603Y0082624D01*
X0243579Y0082661D01*
X0243558Y0082700D01*
X0243541Y0082741D01*
X0243528Y0082783D01*
X0243518Y0082826D01*
X0243512Y0082870D01*
X0243510Y0082914D01*
X0269294Y0082926D02*
X0271996Y0084727D01*
X0269294Y0084727D01*
X0269745Y0085872D02*
X0271546Y0085872D01*
X0271996Y0086323D01*
X0271996Y0087223D01*
X0271546Y0087674D01*
X0269745Y0087674D01*
X0269294Y0087223D01*
X0269294Y0086323D01*
X0269745Y0085872D01*
X0269294Y0082926D02*
X0271996Y0082926D01*
X0271996Y0081781D02*
X0270645Y0080430D01*
X0271096Y0079979D02*
X0269294Y0081781D01*
X0269294Y0079979D02*
X0271996Y0079979D01*
X0274315Y0079162D02*
X0274315Y0093662D01*
X0271996Y0093567D02*
X0271996Y0091765D01*
X0271996Y0092666D02*
X0269294Y0092666D01*
X0270195Y0091765D01*
X0270195Y0090620D02*
X0270645Y0090170D01*
X0270645Y0088819D01*
X0270645Y0090170D02*
X0271096Y0090620D01*
X0271546Y0090620D01*
X0271996Y0090170D01*
X0271996Y0088819D01*
X0269294Y0088819D01*
X0269294Y0090170D01*
X0269745Y0090620D01*
X0270195Y0090620D01*
X0274315Y0079162D02*
X0311815Y0079162D01*
X0311815Y0093662D01*
X0311815Y0113662D02*
X0311815Y0122412D01*
X0311815Y0122662D02*
X0274315Y0122662D01*
X0274315Y0122412D02*
X0274315Y0113662D01*
X0285065Y0103662D02*
X0285067Y0103858D01*
X0285075Y0104055D01*
X0285087Y0104251D01*
X0285104Y0104446D01*
X0285125Y0104641D01*
X0285152Y0104836D01*
X0285183Y0105030D01*
X0285219Y0105223D01*
X0285259Y0105415D01*
X0285305Y0105606D01*
X0285355Y0105796D01*
X0285409Y0105984D01*
X0285469Y0106171D01*
X0285533Y0106357D01*
X0285601Y0106541D01*
X0285674Y0106723D01*
X0285751Y0106904D01*
X0285833Y0107082D01*
X0285919Y0107259D01*
X0286010Y0107433D01*
X0286104Y0107605D01*
X0286203Y0107775D01*
X0286306Y0107942D01*
X0286413Y0108107D01*
X0286524Y0108268D01*
X0286639Y0108428D01*
X0286758Y0108584D01*
X0286881Y0108737D01*
X0287007Y0108887D01*
X0287137Y0109034D01*
X0287271Y0109178D01*
X0287408Y0109319D01*
X0287549Y0109456D01*
X0287693Y0109590D01*
X0287840Y0109720D01*
X0287990Y0109846D01*
X0288143Y0109969D01*
X0288299Y0110088D01*
X0288459Y0110203D01*
X0288620Y0110314D01*
X0288785Y0110421D01*
X0288952Y0110524D01*
X0289122Y0110623D01*
X0289294Y0110717D01*
X0289468Y0110808D01*
X0289645Y0110894D01*
X0289823Y0110976D01*
X0290004Y0111053D01*
X0290186Y0111126D01*
X0290370Y0111194D01*
X0290556Y0111258D01*
X0290743Y0111318D01*
X0290931Y0111372D01*
X0291121Y0111422D01*
X0291312Y0111468D01*
X0291504Y0111508D01*
X0291697Y0111544D01*
X0291891Y0111575D01*
X0292086Y0111602D01*
X0292281Y0111623D01*
X0292476Y0111640D01*
X0292672Y0111652D01*
X0292869Y0111660D01*
X0293065Y0111662D01*
X0293261Y0111660D01*
X0293458Y0111652D01*
X0293654Y0111640D01*
X0293849Y0111623D01*
X0294044Y0111602D01*
X0294239Y0111575D01*
X0294433Y0111544D01*
X0294626Y0111508D01*
X0294818Y0111468D01*
X0295009Y0111422D01*
X0295199Y0111372D01*
X0295387Y0111318D01*
X0295574Y0111258D01*
X0295760Y0111194D01*
X0295944Y0111126D01*
X0296126Y0111053D01*
X0296307Y0110976D01*
X0296485Y0110894D01*
X0296662Y0110808D01*
X0296836Y0110717D01*
X0297008Y0110623D01*
X0297178Y0110524D01*
X0297345Y0110421D01*
X0297510Y0110314D01*
X0297671Y0110203D01*
X0297831Y0110088D01*
X0297987Y0109969D01*
X0298140Y0109846D01*
X0298290Y0109720D01*
X0298437Y0109590D01*
X0298581Y0109456D01*
X0298722Y0109319D01*
X0298859Y0109178D01*
X0298993Y0109034D01*
X0299123Y0108887D01*
X0299249Y0108737D01*
X0299372Y0108584D01*
X0299491Y0108428D01*
X0299606Y0108268D01*
X0299717Y0108107D01*
X0299824Y0107942D01*
X0299927Y0107775D01*
X0300026Y0107605D01*
X0300120Y0107433D01*
X0300211Y0107259D01*
X0300297Y0107082D01*
X0300379Y0106904D01*
X0300456Y0106723D01*
X0300529Y0106541D01*
X0300597Y0106357D01*
X0300661Y0106171D01*
X0300721Y0105984D01*
X0300775Y0105796D01*
X0300825Y0105606D01*
X0300871Y0105415D01*
X0300911Y0105223D01*
X0300947Y0105030D01*
X0300978Y0104836D01*
X0301005Y0104641D01*
X0301026Y0104446D01*
X0301043Y0104251D01*
X0301055Y0104055D01*
X0301063Y0103858D01*
X0301065Y0103662D01*
X0301063Y0103466D01*
X0301055Y0103269D01*
X0301043Y0103073D01*
X0301026Y0102878D01*
X0301005Y0102683D01*
X0300978Y0102488D01*
X0300947Y0102294D01*
X0300911Y0102101D01*
X0300871Y0101909D01*
X0300825Y0101718D01*
X0300775Y0101528D01*
X0300721Y0101340D01*
X0300661Y0101153D01*
X0300597Y0100967D01*
X0300529Y0100783D01*
X0300456Y0100601D01*
X0300379Y0100420D01*
X0300297Y0100242D01*
X0300211Y0100065D01*
X0300120Y0099891D01*
X0300026Y0099719D01*
X0299927Y0099549D01*
X0299824Y0099382D01*
X0299717Y0099217D01*
X0299606Y0099056D01*
X0299491Y0098896D01*
X0299372Y0098740D01*
X0299249Y0098587D01*
X0299123Y0098437D01*
X0298993Y0098290D01*
X0298859Y0098146D01*
X0298722Y0098005D01*
X0298581Y0097868D01*
X0298437Y0097734D01*
X0298290Y0097604D01*
X0298140Y0097478D01*
X0297987Y0097355D01*
X0297831Y0097236D01*
X0297671Y0097121D01*
X0297510Y0097010D01*
X0297345Y0096903D01*
X0297178Y0096800D01*
X0297008Y0096701D01*
X0296836Y0096607D01*
X0296662Y0096516D01*
X0296485Y0096430D01*
X0296307Y0096348D01*
X0296126Y0096271D01*
X0295944Y0096198D01*
X0295760Y0096130D01*
X0295574Y0096066D01*
X0295387Y0096006D01*
X0295199Y0095952D01*
X0295009Y0095902D01*
X0294818Y0095856D01*
X0294626Y0095816D01*
X0294433Y0095780D01*
X0294239Y0095749D01*
X0294044Y0095722D01*
X0293849Y0095701D01*
X0293654Y0095684D01*
X0293458Y0095672D01*
X0293261Y0095664D01*
X0293065Y0095662D01*
X0292869Y0095664D01*
X0292672Y0095672D01*
X0292476Y0095684D01*
X0292281Y0095701D01*
X0292086Y0095722D01*
X0291891Y0095749D01*
X0291697Y0095780D01*
X0291504Y0095816D01*
X0291312Y0095856D01*
X0291121Y0095902D01*
X0290931Y0095952D01*
X0290743Y0096006D01*
X0290556Y0096066D01*
X0290370Y0096130D01*
X0290186Y0096198D01*
X0290004Y0096271D01*
X0289823Y0096348D01*
X0289645Y0096430D01*
X0289468Y0096516D01*
X0289294Y0096607D01*
X0289122Y0096701D01*
X0288952Y0096800D01*
X0288785Y0096903D01*
X0288620Y0097010D01*
X0288459Y0097121D01*
X0288299Y0097236D01*
X0288143Y0097355D01*
X0287990Y0097478D01*
X0287840Y0097604D01*
X0287693Y0097734D01*
X0287549Y0097868D01*
X0287408Y0098005D01*
X0287271Y0098146D01*
X0287137Y0098290D01*
X0287007Y0098437D01*
X0286881Y0098587D01*
X0286758Y0098740D01*
X0286639Y0098896D01*
X0286524Y0099056D01*
X0286413Y0099217D01*
X0286306Y0099382D01*
X0286203Y0099549D01*
X0286104Y0099719D01*
X0286010Y0099891D01*
X0285919Y0100065D01*
X0285833Y0100242D01*
X0285751Y0100420D01*
X0285674Y0100601D01*
X0285601Y0100783D01*
X0285533Y0100967D01*
X0285469Y0101153D01*
X0285409Y0101340D01*
X0285355Y0101528D01*
X0285305Y0101718D01*
X0285259Y0101909D01*
X0285219Y0102101D01*
X0285183Y0102294D01*
X0285152Y0102488D01*
X0285125Y0102683D01*
X0285104Y0102878D01*
X0285087Y0103073D01*
X0285075Y0103269D01*
X0285067Y0103466D01*
X0285065Y0103662D01*
D15*
X0236510Y0090414D02*
X0234010Y0085414D01*
X0231510Y0085414D01*
X0234010Y0085414D02*
X0236510Y0085414D01*
X0234010Y0085414D02*
X0231510Y0090414D01*
X0236510Y0090414D01*
X0118400Y0090414D02*
X0115900Y0085414D01*
X0113400Y0085414D01*
X0115900Y0085414D02*
X0118400Y0085414D01*
X0115900Y0085414D02*
X0113400Y0090414D01*
X0118400Y0090414D01*
X0118400Y0235020D02*
X0115900Y0235020D01*
X0113400Y0235020D01*
X0115900Y0235020D02*
X0113400Y0240020D01*
X0118400Y0240020D01*
X0115900Y0235020D01*
X0231510Y0235020D02*
X0234010Y0235020D01*
X0236510Y0235020D01*
X0234010Y0235020D02*
X0231510Y0240020D01*
X0236510Y0240020D01*
X0234010Y0235020D01*
D16*
X0228662Y0252769D02*
X0228664Y0252818D01*
X0228670Y0252866D01*
X0228680Y0252914D01*
X0228694Y0252961D01*
X0228711Y0253007D01*
X0228732Y0253051D01*
X0228757Y0253093D01*
X0228785Y0253133D01*
X0228817Y0253171D01*
X0228851Y0253206D01*
X0228888Y0253238D01*
X0228927Y0253267D01*
X0228969Y0253293D01*
X0229013Y0253315D01*
X0229058Y0253333D01*
X0229105Y0253348D01*
X0229152Y0253359D01*
X0229201Y0253366D01*
X0229250Y0253369D01*
X0229299Y0253368D01*
X0229347Y0253363D01*
X0229396Y0253354D01*
X0229443Y0253341D01*
X0229489Y0253324D01*
X0229533Y0253304D01*
X0229576Y0253280D01*
X0229617Y0253253D01*
X0229655Y0253222D01*
X0229691Y0253189D01*
X0229723Y0253153D01*
X0229753Y0253114D01*
X0229780Y0253073D01*
X0229803Y0253029D01*
X0229822Y0252984D01*
X0229838Y0252938D01*
X0229850Y0252891D01*
X0229858Y0252842D01*
X0229862Y0252793D01*
X0229862Y0252745D01*
X0229858Y0252696D01*
X0229850Y0252647D01*
X0229838Y0252600D01*
X0229822Y0252554D01*
X0229803Y0252509D01*
X0229780Y0252465D01*
X0229753Y0252424D01*
X0229723Y0252385D01*
X0229691Y0252349D01*
X0229655Y0252316D01*
X0229617Y0252285D01*
X0229576Y0252258D01*
X0229533Y0252234D01*
X0229489Y0252214D01*
X0229443Y0252197D01*
X0229396Y0252184D01*
X0229347Y0252175D01*
X0229299Y0252170D01*
X0229250Y0252169D01*
X0229201Y0252172D01*
X0229152Y0252179D01*
X0229105Y0252190D01*
X0229058Y0252205D01*
X0229013Y0252223D01*
X0228969Y0252245D01*
X0228927Y0252271D01*
X0228888Y0252300D01*
X0228851Y0252332D01*
X0228817Y0252367D01*
X0228785Y0252405D01*
X0228757Y0252445D01*
X0228732Y0252487D01*
X0228711Y0252531D01*
X0228694Y0252577D01*
X0228680Y0252624D01*
X0228670Y0252672D01*
X0228664Y0252720D01*
X0228662Y0252769D01*
X0238662Y0252769D02*
X0238664Y0252818D01*
X0238670Y0252866D01*
X0238680Y0252914D01*
X0238694Y0252961D01*
X0238711Y0253007D01*
X0238732Y0253051D01*
X0238757Y0253093D01*
X0238785Y0253133D01*
X0238817Y0253171D01*
X0238851Y0253206D01*
X0238888Y0253238D01*
X0238927Y0253267D01*
X0238969Y0253293D01*
X0239013Y0253315D01*
X0239058Y0253333D01*
X0239105Y0253348D01*
X0239152Y0253359D01*
X0239201Y0253366D01*
X0239250Y0253369D01*
X0239299Y0253368D01*
X0239347Y0253363D01*
X0239396Y0253354D01*
X0239443Y0253341D01*
X0239489Y0253324D01*
X0239533Y0253304D01*
X0239576Y0253280D01*
X0239617Y0253253D01*
X0239655Y0253222D01*
X0239691Y0253189D01*
X0239723Y0253153D01*
X0239753Y0253114D01*
X0239780Y0253073D01*
X0239803Y0253029D01*
X0239822Y0252984D01*
X0239838Y0252938D01*
X0239850Y0252891D01*
X0239858Y0252842D01*
X0239862Y0252793D01*
X0239862Y0252745D01*
X0239858Y0252696D01*
X0239850Y0252647D01*
X0239838Y0252600D01*
X0239822Y0252554D01*
X0239803Y0252509D01*
X0239780Y0252465D01*
X0239753Y0252424D01*
X0239723Y0252385D01*
X0239691Y0252349D01*
X0239655Y0252316D01*
X0239617Y0252285D01*
X0239576Y0252258D01*
X0239533Y0252234D01*
X0239489Y0252214D01*
X0239443Y0252197D01*
X0239396Y0252184D01*
X0239347Y0252175D01*
X0239299Y0252170D01*
X0239250Y0252169D01*
X0239201Y0252172D01*
X0239152Y0252179D01*
X0239105Y0252190D01*
X0239058Y0252205D01*
X0239013Y0252223D01*
X0238969Y0252245D01*
X0238927Y0252271D01*
X0238888Y0252300D01*
X0238851Y0252332D01*
X0238817Y0252367D01*
X0238785Y0252405D01*
X0238757Y0252445D01*
X0238732Y0252487D01*
X0238711Y0252531D01*
X0238694Y0252577D01*
X0238680Y0252624D01*
X0238670Y0252672D01*
X0238664Y0252720D01*
X0238662Y0252769D01*
X0120552Y0252769D02*
X0120554Y0252818D01*
X0120560Y0252866D01*
X0120570Y0252914D01*
X0120584Y0252961D01*
X0120601Y0253007D01*
X0120622Y0253051D01*
X0120647Y0253093D01*
X0120675Y0253133D01*
X0120707Y0253171D01*
X0120741Y0253206D01*
X0120778Y0253238D01*
X0120817Y0253267D01*
X0120859Y0253293D01*
X0120903Y0253315D01*
X0120948Y0253333D01*
X0120995Y0253348D01*
X0121042Y0253359D01*
X0121091Y0253366D01*
X0121140Y0253369D01*
X0121189Y0253368D01*
X0121237Y0253363D01*
X0121286Y0253354D01*
X0121333Y0253341D01*
X0121379Y0253324D01*
X0121423Y0253304D01*
X0121466Y0253280D01*
X0121507Y0253253D01*
X0121545Y0253222D01*
X0121581Y0253189D01*
X0121613Y0253153D01*
X0121643Y0253114D01*
X0121670Y0253073D01*
X0121693Y0253029D01*
X0121712Y0252984D01*
X0121728Y0252938D01*
X0121740Y0252891D01*
X0121748Y0252842D01*
X0121752Y0252793D01*
X0121752Y0252745D01*
X0121748Y0252696D01*
X0121740Y0252647D01*
X0121728Y0252600D01*
X0121712Y0252554D01*
X0121693Y0252509D01*
X0121670Y0252465D01*
X0121643Y0252424D01*
X0121613Y0252385D01*
X0121581Y0252349D01*
X0121545Y0252316D01*
X0121507Y0252285D01*
X0121466Y0252258D01*
X0121423Y0252234D01*
X0121379Y0252214D01*
X0121333Y0252197D01*
X0121286Y0252184D01*
X0121237Y0252175D01*
X0121189Y0252170D01*
X0121140Y0252169D01*
X0121091Y0252172D01*
X0121042Y0252179D01*
X0120995Y0252190D01*
X0120948Y0252205D01*
X0120903Y0252223D01*
X0120859Y0252245D01*
X0120817Y0252271D01*
X0120778Y0252300D01*
X0120741Y0252332D01*
X0120707Y0252367D01*
X0120675Y0252405D01*
X0120647Y0252445D01*
X0120622Y0252487D01*
X0120601Y0252531D01*
X0120584Y0252577D01*
X0120570Y0252624D01*
X0120560Y0252672D01*
X0120554Y0252720D01*
X0120552Y0252769D01*
X0110552Y0252769D02*
X0110554Y0252818D01*
X0110560Y0252866D01*
X0110570Y0252914D01*
X0110584Y0252961D01*
X0110601Y0253007D01*
X0110622Y0253051D01*
X0110647Y0253093D01*
X0110675Y0253133D01*
X0110707Y0253171D01*
X0110741Y0253206D01*
X0110778Y0253238D01*
X0110817Y0253267D01*
X0110859Y0253293D01*
X0110903Y0253315D01*
X0110948Y0253333D01*
X0110995Y0253348D01*
X0111042Y0253359D01*
X0111091Y0253366D01*
X0111140Y0253369D01*
X0111189Y0253368D01*
X0111237Y0253363D01*
X0111286Y0253354D01*
X0111333Y0253341D01*
X0111379Y0253324D01*
X0111423Y0253304D01*
X0111466Y0253280D01*
X0111507Y0253253D01*
X0111545Y0253222D01*
X0111581Y0253189D01*
X0111613Y0253153D01*
X0111643Y0253114D01*
X0111670Y0253073D01*
X0111693Y0253029D01*
X0111712Y0252984D01*
X0111728Y0252938D01*
X0111740Y0252891D01*
X0111748Y0252842D01*
X0111752Y0252793D01*
X0111752Y0252745D01*
X0111748Y0252696D01*
X0111740Y0252647D01*
X0111728Y0252600D01*
X0111712Y0252554D01*
X0111693Y0252509D01*
X0111670Y0252465D01*
X0111643Y0252424D01*
X0111613Y0252385D01*
X0111581Y0252349D01*
X0111545Y0252316D01*
X0111507Y0252285D01*
X0111466Y0252258D01*
X0111423Y0252234D01*
X0111379Y0252214D01*
X0111333Y0252197D01*
X0111286Y0252184D01*
X0111237Y0252175D01*
X0111189Y0252170D01*
X0111140Y0252169D01*
X0111091Y0252172D01*
X0111042Y0252179D01*
X0110995Y0252190D01*
X0110948Y0252205D01*
X0110903Y0252223D01*
X0110859Y0252245D01*
X0110817Y0252271D01*
X0110778Y0252300D01*
X0110741Y0252332D01*
X0110707Y0252367D01*
X0110675Y0252405D01*
X0110647Y0252445D01*
X0110622Y0252487D01*
X0110601Y0252531D01*
X0110584Y0252577D01*
X0110570Y0252624D01*
X0110560Y0252672D01*
X0110554Y0252720D01*
X0110552Y0252769D01*
X0110552Y0103162D02*
X0110554Y0103211D01*
X0110560Y0103259D01*
X0110570Y0103307D01*
X0110584Y0103354D01*
X0110601Y0103400D01*
X0110622Y0103444D01*
X0110647Y0103486D01*
X0110675Y0103526D01*
X0110707Y0103564D01*
X0110741Y0103599D01*
X0110778Y0103631D01*
X0110817Y0103660D01*
X0110859Y0103686D01*
X0110903Y0103708D01*
X0110948Y0103726D01*
X0110995Y0103741D01*
X0111042Y0103752D01*
X0111091Y0103759D01*
X0111140Y0103762D01*
X0111189Y0103761D01*
X0111237Y0103756D01*
X0111286Y0103747D01*
X0111333Y0103734D01*
X0111379Y0103717D01*
X0111423Y0103697D01*
X0111466Y0103673D01*
X0111507Y0103646D01*
X0111545Y0103615D01*
X0111581Y0103582D01*
X0111613Y0103546D01*
X0111643Y0103507D01*
X0111670Y0103466D01*
X0111693Y0103422D01*
X0111712Y0103377D01*
X0111728Y0103331D01*
X0111740Y0103284D01*
X0111748Y0103235D01*
X0111752Y0103186D01*
X0111752Y0103138D01*
X0111748Y0103089D01*
X0111740Y0103040D01*
X0111728Y0102993D01*
X0111712Y0102947D01*
X0111693Y0102902D01*
X0111670Y0102858D01*
X0111643Y0102817D01*
X0111613Y0102778D01*
X0111581Y0102742D01*
X0111545Y0102709D01*
X0111507Y0102678D01*
X0111466Y0102651D01*
X0111423Y0102627D01*
X0111379Y0102607D01*
X0111333Y0102590D01*
X0111286Y0102577D01*
X0111237Y0102568D01*
X0111189Y0102563D01*
X0111140Y0102562D01*
X0111091Y0102565D01*
X0111042Y0102572D01*
X0110995Y0102583D01*
X0110948Y0102598D01*
X0110903Y0102616D01*
X0110859Y0102638D01*
X0110817Y0102664D01*
X0110778Y0102693D01*
X0110741Y0102725D01*
X0110707Y0102760D01*
X0110675Y0102798D01*
X0110647Y0102838D01*
X0110622Y0102880D01*
X0110601Y0102924D01*
X0110584Y0102970D01*
X0110570Y0103017D01*
X0110560Y0103065D01*
X0110554Y0103113D01*
X0110552Y0103162D01*
X0120552Y0103162D02*
X0120554Y0103211D01*
X0120560Y0103259D01*
X0120570Y0103307D01*
X0120584Y0103354D01*
X0120601Y0103400D01*
X0120622Y0103444D01*
X0120647Y0103486D01*
X0120675Y0103526D01*
X0120707Y0103564D01*
X0120741Y0103599D01*
X0120778Y0103631D01*
X0120817Y0103660D01*
X0120859Y0103686D01*
X0120903Y0103708D01*
X0120948Y0103726D01*
X0120995Y0103741D01*
X0121042Y0103752D01*
X0121091Y0103759D01*
X0121140Y0103762D01*
X0121189Y0103761D01*
X0121237Y0103756D01*
X0121286Y0103747D01*
X0121333Y0103734D01*
X0121379Y0103717D01*
X0121423Y0103697D01*
X0121466Y0103673D01*
X0121507Y0103646D01*
X0121545Y0103615D01*
X0121581Y0103582D01*
X0121613Y0103546D01*
X0121643Y0103507D01*
X0121670Y0103466D01*
X0121693Y0103422D01*
X0121712Y0103377D01*
X0121728Y0103331D01*
X0121740Y0103284D01*
X0121748Y0103235D01*
X0121752Y0103186D01*
X0121752Y0103138D01*
X0121748Y0103089D01*
X0121740Y0103040D01*
X0121728Y0102993D01*
X0121712Y0102947D01*
X0121693Y0102902D01*
X0121670Y0102858D01*
X0121643Y0102817D01*
X0121613Y0102778D01*
X0121581Y0102742D01*
X0121545Y0102709D01*
X0121507Y0102678D01*
X0121466Y0102651D01*
X0121423Y0102627D01*
X0121379Y0102607D01*
X0121333Y0102590D01*
X0121286Y0102577D01*
X0121237Y0102568D01*
X0121189Y0102563D01*
X0121140Y0102562D01*
X0121091Y0102565D01*
X0121042Y0102572D01*
X0120995Y0102583D01*
X0120948Y0102598D01*
X0120903Y0102616D01*
X0120859Y0102638D01*
X0120817Y0102664D01*
X0120778Y0102693D01*
X0120741Y0102725D01*
X0120707Y0102760D01*
X0120675Y0102798D01*
X0120647Y0102838D01*
X0120622Y0102880D01*
X0120601Y0102924D01*
X0120584Y0102970D01*
X0120570Y0103017D01*
X0120560Y0103065D01*
X0120554Y0103113D01*
X0120552Y0103162D01*
X0228662Y0103162D02*
X0228664Y0103211D01*
X0228670Y0103259D01*
X0228680Y0103307D01*
X0228694Y0103354D01*
X0228711Y0103400D01*
X0228732Y0103444D01*
X0228757Y0103486D01*
X0228785Y0103526D01*
X0228817Y0103564D01*
X0228851Y0103599D01*
X0228888Y0103631D01*
X0228927Y0103660D01*
X0228969Y0103686D01*
X0229013Y0103708D01*
X0229058Y0103726D01*
X0229105Y0103741D01*
X0229152Y0103752D01*
X0229201Y0103759D01*
X0229250Y0103762D01*
X0229299Y0103761D01*
X0229347Y0103756D01*
X0229396Y0103747D01*
X0229443Y0103734D01*
X0229489Y0103717D01*
X0229533Y0103697D01*
X0229576Y0103673D01*
X0229617Y0103646D01*
X0229655Y0103615D01*
X0229691Y0103582D01*
X0229723Y0103546D01*
X0229753Y0103507D01*
X0229780Y0103466D01*
X0229803Y0103422D01*
X0229822Y0103377D01*
X0229838Y0103331D01*
X0229850Y0103284D01*
X0229858Y0103235D01*
X0229862Y0103186D01*
X0229862Y0103138D01*
X0229858Y0103089D01*
X0229850Y0103040D01*
X0229838Y0102993D01*
X0229822Y0102947D01*
X0229803Y0102902D01*
X0229780Y0102858D01*
X0229753Y0102817D01*
X0229723Y0102778D01*
X0229691Y0102742D01*
X0229655Y0102709D01*
X0229617Y0102678D01*
X0229576Y0102651D01*
X0229533Y0102627D01*
X0229489Y0102607D01*
X0229443Y0102590D01*
X0229396Y0102577D01*
X0229347Y0102568D01*
X0229299Y0102563D01*
X0229250Y0102562D01*
X0229201Y0102565D01*
X0229152Y0102572D01*
X0229105Y0102583D01*
X0229058Y0102598D01*
X0229013Y0102616D01*
X0228969Y0102638D01*
X0228927Y0102664D01*
X0228888Y0102693D01*
X0228851Y0102725D01*
X0228817Y0102760D01*
X0228785Y0102798D01*
X0228757Y0102838D01*
X0228732Y0102880D01*
X0228711Y0102924D01*
X0228694Y0102970D01*
X0228680Y0103017D01*
X0228670Y0103065D01*
X0228664Y0103113D01*
X0228662Y0103162D01*
X0238662Y0103162D02*
X0238664Y0103211D01*
X0238670Y0103259D01*
X0238680Y0103307D01*
X0238694Y0103354D01*
X0238711Y0103400D01*
X0238732Y0103444D01*
X0238757Y0103486D01*
X0238785Y0103526D01*
X0238817Y0103564D01*
X0238851Y0103599D01*
X0238888Y0103631D01*
X0238927Y0103660D01*
X0238969Y0103686D01*
X0239013Y0103708D01*
X0239058Y0103726D01*
X0239105Y0103741D01*
X0239152Y0103752D01*
X0239201Y0103759D01*
X0239250Y0103762D01*
X0239299Y0103761D01*
X0239347Y0103756D01*
X0239396Y0103747D01*
X0239443Y0103734D01*
X0239489Y0103717D01*
X0239533Y0103697D01*
X0239576Y0103673D01*
X0239617Y0103646D01*
X0239655Y0103615D01*
X0239691Y0103582D01*
X0239723Y0103546D01*
X0239753Y0103507D01*
X0239780Y0103466D01*
X0239803Y0103422D01*
X0239822Y0103377D01*
X0239838Y0103331D01*
X0239850Y0103284D01*
X0239858Y0103235D01*
X0239862Y0103186D01*
X0239862Y0103138D01*
X0239858Y0103089D01*
X0239850Y0103040D01*
X0239838Y0102993D01*
X0239822Y0102947D01*
X0239803Y0102902D01*
X0239780Y0102858D01*
X0239753Y0102817D01*
X0239723Y0102778D01*
X0239691Y0102742D01*
X0239655Y0102709D01*
X0239617Y0102678D01*
X0239576Y0102651D01*
X0239533Y0102627D01*
X0239489Y0102607D01*
X0239443Y0102590D01*
X0239396Y0102577D01*
X0239347Y0102568D01*
X0239299Y0102563D01*
X0239250Y0102562D01*
X0239201Y0102565D01*
X0239152Y0102572D01*
X0239105Y0102583D01*
X0239058Y0102598D01*
X0239013Y0102616D01*
X0238969Y0102638D01*
X0238927Y0102664D01*
X0238888Y0102693D01*
X0238851Y0102725D01*
X0238817Y0102760D01*
X0238785Y0102798D01*
X0238757Y0102838D01*
X0238732Y0102880D01*
X0238711Y0102924D01*
X0238694Y0102970D01*
X0238680Y0103017D01*
X0238670Y0103065D01*
X0238664Y0103113D01*
X0238662Y0103162D01*
M02*
