G75*
%MOIN*%
%OFA0B0*%
%FSLAX25Y25*%
%IPPOS*%
%LPD*%
%AMOC8*
5,1,8,0,0,1.08239X$1,22.5*
%
%ADD10C,0.07400*%
%ADD11C,0.16598*%
%ADD12C,0.15024*%
%ADD13OC8,0.05200*%
%ADD14C,0.05937*%
%ADD15R,0.05937X0.05937*%
%ADD16C,0.06600*%
%ADD17C,0.05200*%
%ADD18C,0.03772*%
%ADD19C,0.05740*%
%ADD20C,0.09744*%
%ADD21C,0.07000*%
%ADD22C,0.11811*%
%ADD23C,0.02400*%
%ADD24C,0.03100*%
%ADD25C,0.01000*%
%ADD26C,0.01600*%
D10*
X0014550Y0064910D03*
X0013550Y0074910D03*
X0014550Y0084910D03*
X0014424Y0094973D03*
X0013424Y0104973D03*
X0014424Y0114973D03*
X0012294Y0143509D03*
X0013294Y0153509D03*
X0012294Y0163509D03*
X0013294Y0173509D03*
X0012294Y0183509D03*
X0013557Y0211820D03*
X0012557Y0221820D03*
X0013557Y0231820D03*
X0013380Y0241891D03*
X0012380Y0251891D03*
X0013380Y0261891D03*
X0012829Y0280631D03*
X0011829Y0290631D03*
X0012829Y0300631D03*
X0013026Y0310800D03*
X0012026Y0320800D03*
X0013026Y0330800D03*
X0057278Y0286328D03*
X0067278Y0286328D03*
X0077278Y0286328D03*
X0087278Y0286328D03*
X0097278Y0286328D03*
X0097278Y0275328D03*
X0087278Y0275328D03*
X0077278Y0275328D03*
X0067278Y0275328D03*
X0057278Y0275328D03*
X0099452Y0320198D03*
X0110852Y0320198D03*
X0065100Y0382477D03*
X0053700Y0382477D03*
X0056530Y0207548D03*
X0066530Y0207548D03*
X0066530Y0196548D03*
X0056530Y0196548D03*
X0076530Y0196548D03*
X0086530Y0196548D03*
X0086530Y0207548D03*
X0076530Y0207548D03*
X0096530Y0207548D03*
X0096530Y0196548D03*
X0100467Y0046170D03*
X0090467Y0046170D03*
X0080467Y0046170D03*
X0070467Y0046170D03*
X0060467Y0046170D03*
X0060467Y0035170D03*
X0070467Y0035170D03*
X0080467Y0035170D03*
X0090467Y0035170D03*
X0100467Y0035170D03*
X0288813Y0035170D03*
X0298813Y0035170D03*
X0308813Y0035170D03*
X0318813Y0035170D03*
X0328813Y0035170D03*
X0328813Y0046170D03*
X0318813Y0046170D03*
X0308813Y0046170D03*
X0298813Y0046170D03*
X0288813Y0046170D03*
X0384424Y0053434D03*
X0383424Y0063434D03*
X0384424Y0073434D03*
X0384514Y0083485D03*
X0383514Y0093485D03*
X0384514Y0103485D03*
X0384369Y0117501D03*
X0383369Y0127501D03*
X0384369Y0137501D03*
X0383369Y0147501D03*
X0384369Y0157501D03*
X0384431Y0171221D03*
X0383431Y0181221D03*
X0384431Y0191221D03*
X0384353Y0201190D03*
X0383353Y0211190D03*
X0384353Y0221190D03*
X0384282Y0235202D03*
X0383282Y0245202D03*
X0384282Y0255202D03*
X0384180Y0265182D03*
X0383180Y0275182D03*
X0384180Y0285182D03*
X0384117Y0299131D03*
X0383117Y0309131D03*
X0384117Y0319131D03*
X0384160Y0329103D03*
X0383160Y0339103D03*
X0384160Y0349103D03*
X0340624Y0258969D03*
X0330624Y0258969D03*
X0320624Y0258969D03*
X0310624Y0258969D03*
X0300624Y0258969D03*
X0300624Y0247969D03*
X0310624Y0247969D03*
X0320624Y0247969D03*
X0330624Y0247969D03*
X0340624Y0247969D03*
X0340624Y0207430D03*
X0330624Y0207430D03*
X0330624Y0196430D03*
X0340624Y0196430D03*
X0320624Y0196430D03*
X0310624Y0196430D03*
X0310624Y0207430D03*
X0320624Y0207430D03*
X0300624Y0207430D03*
X0300624Y0196430D03*
X0300624Y0156446D03*
X0310624Y0156446D03*
X0320624Y0156446D03*
X0330624Y0156446D03*
X0340624Y0156446D03*
X0340624Y0145446D03*
X0330624Y0145446D03*
X0320624Y0145446D03*
X0310624Y0145446D03*
X0300624Y0145446D03*
D11*
X0338794Y0349331D03*
X0239286Y0349331D03*
X0104325Y0349331D03*
D12*
X0123223Y0360552D03*
X0104325Y0373938D03*
X0239286Y0373938D03*
X0258183Y0360552D03*
X0338794Y0373938D03*
X0357691Y0360552D03*
D13*
X0174955Y0277954D03*
X0174955Y0267954D03*
X0178892Y0087166D03*
X0190703Y0082166D03*
X0190703Y0062166D03*
X0178892Y0057166D03*
X0167081Y0057166D03*
X0155270Y0057166D03*
X0155270Y0087166D03*
X0167081Y0087166D03*
D14*
X0171428Y0159524D03*
X0171428Y0169524D03*
X0171428Y0179524D03*
X0171428Y0189524D03*
X0171428Y0199524D03*
X0171428Y0209524D03*
X0181428Y0209524D03*
X0171428Y0219524D03*
X0171428Y0229524D03*
X0171428Y0239524D03*
X0161428Y0239524D03*
X0161428Y0229524D03*
X0161428Y0219524D03*
X0161428Y0209524D03*
X0151428Y0209524D03*
X0141428Y0209524D03*
X0141428Y0219524D03*
X0141428Y0229524D03*
X0141428Y0239524D03*
X0141428Y0249524D03*
X0141428Y0259524D03*
X0141428Y0269524D03*
X0141428Y0279524D03*
X0141428Y0289524D03*
X0141428Y0299524D03*
X0141428Y0309524D03*
X0141428Y0319524D03*
X0141428Y0329524D03*
X0141428Y0339524D03*
X0141428Y0349524D03*
X0151428Y0349524D03*
X0151428Y0339524D03*
X0161428Y0329524D03*
X0161428Y0319524D03*
X0171428Y0319524D03*
X0171428Y0329524D03*
X0171428Y0309524D03*
X0171428Y0299524D03*
X0161428Y0299524D03*
X0161428Y0309524D03*
X0201428Y0309524D03*
X0201428Y0299524D03*
X0201428Y0289524D03*
X0201428Y0279524D03*
X0201428Y0269524D03*
X0201428Y0259524D03*
X0201428Y0249524D03*
X0201428Y0239524D03*
X0201428Y0229524D03*
X0201428Y0219524D03*
X0201428Y0209524D03*
X0191428Y0209524D03*
X0201428Y0199524D03*
X0201428Y0189524D03*
X0201428Y0179524D03*
X0201428Y0169524D03*
X0201428Y0159524D03*
X0161428Y0159524D03*
X0161428Y0169524D03*
X0161428Y0179524D03*
X0161428Y0189524D03*
X0161428Y0199524D03*
X0141428Y0199524D03*
X0141428Y0189524D03*
X0141428Y0179524D03*
X0141428Y0169524D03*
X0141428Y0159524D03*
X0201428Y0319524D03*
X0201428Y0329524D03*
X0201428Y0339524D03*
X0201428Y0349524D03*
X0201428Y0359524D03*
X0201428Y0369524D03*
X0201428Y0379524D03*
X0151428Y0379524D03*
X0141428Y0379524D03*
X0141428Y0389524D03*
X0141428Y0369524D03*
X0141428Y0359524D03*
X0151428Y0359524D03*
D15*
X0201428Y0389524D03*
D16*
X0224010Y0247520D03*
X0234010Y0247520D03*
X0244010Y0247520D03*
X0244010Y0227520D03*
X0234010Y0227520D03*
X0224010Y0227520D03*
X0125900Y0227520D03*
X0115900Y0227520D03*
X0105900Y0227520D03*
X0105900Y0247520D03*
X0115900Y0247520D03*
X0125900Y0247520D03*
X0125900Y0097914D03*
X0115900Y0097914D03*
X0105900Y0097914D03*
X0105900Y0077914D03*
X0115900Y0077914D03*
X0125900Y0077914D03*
X0224010Y0077914D03*
X0234010Y0077914D03*
X0244010Y0077914D03*
X0244010Y0097914D03*
X0234010Y0097914D03*
X0224010Y0097914D03*
D17*
X0224480Y0146812D02*
X0229680Y0146812D01*
X0229680Y0156812D02*
X0224480Y0156812D01*
X0224480Y0166812D02*
X0229680Y0166812D01*
X0229680Y0176812D02*
X0224480Y0176812D01*
X0259680Y0176812D02*
X0264880Y0176812D01*
X0264880Y0166812D02*
X0259680Y0166812D01*
X0259680Y0156812D02*
X0264880Y0156812D01*
X0264880Y0146812D02*
X0259680Y0146812D01*
D18*
X0285983Y0290513D03*
X0295983Y0290513D03*
D19*
X0325983Y0290513D03*
X0355983Y0290513D03*
D20*
X0174955Y0145788D03*
X0174955Y0127284D03*
X0174955Y0108780D03*
D21*
X0283065Y0074135D03*
X0293065Y0074135D03*
X0303065Y0074135D03*
X0066845Y0074135D03*
X0056845Y0074135D03*
X0046845Y0074135D03*
X0046845Y0318229D03*
X0056845Y0318229D03*
X0066845Y0318229D03*
X0283065Y0318229D03*
X0293065Y0318229D03*
X0303065Y0318229D03*
D22*
X0311963Y0347757D03*
X0274168Y0347757D03*
X0075742Y0347757D03*
X0037947Y0347757D03*
X0037947Y0103662D03*
X0075742Y0103662D03*
X0274168Y0103662D03*
X0311963Y0103662D03*
D23*
X0060127Y0046500D02*
X0041727Y0046500D01*
X0023327Y0064900D01*
X0014927Y0064900D01*
X0014550Y0064910D01*
X0014527Y0074100D02*
X0013550Y0074910D01*
X0013327Y0075300D01*
X0008127Y0080500D01*
X0008127Y0097700D01*
X0013327Y0102900D01*
X0013327Y0104900D01*
X0013424Y0104973D01*
X0014527Y0074100D02*
X0019327Y0074100D01*
X0030127Y0063300D01*
X0052527Y0063300D01*
X0069327Y0046500D01*
X0070467Y0046170D01*
X0070527Y0046100D01*
X0070527Y0035300D01*
X0070467Y0035170D01*
X0060467Y0046170D02*
X0060127Y0046500D01*
X0125900Y0077914D02*
X0126127Y0077700D01*
X0182127Y0077700D01*
X0186127Y0073700D01*
X0195727Y0073700D01*
X0195727Y0084500D01*
X0175327Y0104900D01*
X0175327Y0108500D01*
X0174955Y0108780D01*
X0174927Y0094500D02*
X0162527Y0094500D01*
X0156127Y0088100D01*
X0155270Y0087166D01*
X0154927Y0087300D01*
X0142127Y0100100D01*
X0134127Y0100100D01*
X0178927Y0057300D02*
X0178892Y0057166D01*
X0178927Y0057300D02*
X0185727Y0057300D01*
X0190527Y0062100D01*
X0190703Y0062166D01*
X0191727Y0062500D01*
X0195727Y0062500D01*
X0195727Y0073700D01*
X0195727Y0062500D02*
X0218127Y0062500D01*
X0232927Y0077300D01*
X0234010Y0077914D01*
X0234127Y0078100D01*
X0243727Y0078100D01*
X0244010Y0077914D01*
X0244927Y0077300D01*
X0275727Y0046500D01*
X0288527Y0046500D01*
X0288813Y0046170D01*
X0247727Y0122900D02*
X0247727Y0143300D01*
X0250927Y0146500D01*
X0258527Y0146500D01*
X0259680Y0146812D01*
X0259727Y0146900D01*
X0291327Y0146900D01*
X0300527Y0156100D01*
X0300624Y0156446D01*
X0300624Y0207430D02*
X0300527Y0207700D01*
X0283727Y0207700D01*
X0263727Y0227700D01*
X0244927Y0227700D01*
X0244010Y0227520D01*
X0243727Y0227700D01*
X0234127Y0227700D01*
X0234010Y0227520D01*
X0244527Y0184900D02*
X0220127Y0184900D01*
X0216927Y0181700D01*
X0183727Y0178100D02*
X0183727Y0172100D01*
X0183727Y0178100D02*
X0180127Y0181700D01*
X0180127Y0198500D01*
X0171727Y0206900D01*
X0171727Y0209300D01*
X0171428Y0209524D01*
X0136527Y0245700D02*
X0128927Y0253300D01*
X0126527Y0253300D01*
X0113327Y0266500D01*
X0113327Y0274100D01*
X0104127Y0283300D01*
X0104127Y0288500D01*
X0078927Y0292900D02*
X0070527Y0301300D01*
X0070527Y0313300D01*
X0078127Y0320900D01*
X0085727Y0328500D02*
X0085727Y0355300D01*
X0088927Y0358500D01*
X0065327Y0382100D01*
X0065100Y0382477D01*
X0088927Y0358500D02*
X0104127Y0373700D01*
X0104325Y0373938D01*
X0171428Y0329524D02*
X0171727Y0329300D01*
X0174127Y0329300D01*
X0178927Y0324500D01*
X0174955Y0277954D02*
X0174927Y0277700D01*
X0152127Y0254900D01*
X0141428Y0249524D02*
X0141327Y0249300D01*
X0140127Y0249300D01*
X0136527Y0245700D01*
X0132927Y0242100D01*
X0132927Y0234100D01*
X0126927Y0228100D01*
X0125900Y0227520D01*
X0125727Y0227700D01*
X0116127Y0227700D01*
X0115900Y0227520D01*
X0114927Y0226900D01*
X0109727Y0221700D01*
X0103327Y0221700D01*
X0094527Y0230500D01*
X0090127Y0230500D01*
X0064127Y0177300D02*
X0064127Y0144100D01*
X0026527Y0238500D02*
X0026527Y0276100D01*
X0239327Y0373700D02*
X0239286Y0373938D01*
X0239327Y0373700D02*
X0260127Y0373700D01*
X0282527Y0351300D01*
X0282527Y0344100D01*
X0267327Y0328900D01*
X0295327Y0297700D02*
X0295327Y0291300D01*
X0295727Y0290900D01*
X0295983Y0290513D01*
X0300624Y0258969D02*
X0300527Y0258900D01*
X0291727Y0250100D01*
X0291727Y0246500D01*
D24*
X0291727Y0246500D03*
X0284927Y0250100D03*
X0292127Y0264100D03*
X0278127Y0273300D03*
X0278127Y0292500D03*
X0295327Y0297700D03*
X0316927Y0270900D03*
X0327327Y0239700D03*
X0348127Y0242100D03*
X0337327Y0218500D03*
X0348127Y0208900D03*
X0356527Y0204900D03*
X0370927Y0214100D03*
X0376927Y0247700D03*
X0372127Y0271300D03*
X0366927Y0271300D03*
X0362527Y0271300D03*
X0374927Y0278500D03*
X0294127Y0195300D03*
X0283327Y0202500D03*
X0267727Y0196100D03*
X0262127Y0205700D03*
X0262127Y0223700D03*
X0275327Y0221700D03*
X0309727Y0187700D03*
X0287727Y0176100D03*
X0287727Y0150900D03*
X0269327Y0136900D03*
X0263327Y0136900D03*
X0254927Y0136900D03*
X0251727Y0141700D03*
X0243727Y0130100D03*
X0247727Y0122900D03*
X0254927Y0122900D03*
X0279327Y0120900D03*
X0282527Y0117300D03*
X0283327Y0065700D03*
X0336927Y0026100D03*
X0341727Y0033300D03*
X0351727Y0147300D03*
X0360527Y0170900D03*
X0351727Y0172500D03*
X0360527Y0181300D03*
X0320927Y0166100D03*
X0252127Y0182900D03*
X0248927Y0186100D03*
X0244527Y0184900D03*
X0241327Y0170100D03*
X0234127Y0170100D03*
X0216927Y0181700D03*
X0212927Y0172500D03*
X0206927Y0185300D03*
X0216927Y0196100D03*
X0225727Y0202500D03*
X0233727Y0208500D03*
X0232127Y0212500D03*
X0210927Y0222500D03*
X0206527Y0222500D03*
X0195727Y0228500D03*
X0192927Y0234900D03*
X0208127Y0234100D03*
X0218927Y0232900D03*
X0225327Y0263300D03*
X0230527Y0263300D03*
X0214127Y0274500D03*
X0194527Y0284500D03*
X0192527Y0280500D03*
X0185327Y0283700D03*
X0188127Y0290900D03*
X0179727Y0294500D03*
X0169727Y0280100D03*
X0156927Y0275700D03*
X0150927Y0272500D03*
X0152127Y0254900D03*
X0134527Y0253700D03*
X0121327Y0266100D03*
X0117327Y0268100D03*
X0124127Y0273300D03*
X0129727Y0291300D03*
X0127327Y0299300D03*
X0124927Y0304100D03*
X0116927Y0300900D03*
X0109727Y0293700D03*
X0104127Y0288500D03*
X0102927Y0278900D03*
X0102927Y0261300D03*
X0102527Y0242500D03*
X0090127Y0230500D03*
X0092927Y0226500D03*
X0107727Y0202100D03*
X0113327Y0198900D03*
X0117727Y0190900D03*
X0120927Y0188100D03*
X0117327Y0185300D03*
X0117727Y0173300D03*
X0106127Y0174100D03*
X0099327Y0181300D03*
X0099327Y0190100D03*
X0080127Y0184100D03*
X0064127Y0177300D03*
X0054527Y0177300D03*
X0050927Y0187700D03*
X0037327Y0188500D03*
X0027327Y0190100D03*
X0027327Y0183700D03*
X0024127Y0199300D03*
X0024127Y0209300D03*
X0011727Y0202500D03*
X0008127Y0226900D03*
X0027727Y0234100D03*
X0026527Y0238500D03*
X0038527Y0240900D03*
X0048927Y0254500D03*
X0042927Y0276500D03*
X0038527Y0282500D03*
X0026527Y0276100D03*
X0005327Y0294500D03*
X0042927Y0313300D03*
X0063327Y0291700D03*
X0070527Y0301300D03*
X0078927Y0292900D03*
X0084127Y0314900D03*
X0078127Y0320900D03*
X0085727Y0328500D03*
X0094527Y0314900D03*
X0111327Y0332100D03*
X0116927Y0332100D03*
X0123327Y0316500D03*
X0147327Y0290900D03*
X0178927Y0324500D03*
X0211727Y0354900D03*
X0225727Y0345300D03*
X0228927Y0338900D03*
X0238527Y0324500D03*
X0245727Y0322100D03*
X0252527Y0314500D03*
X0267327Y0328900D03*
X0271727Y0338900D03*
X0262927Y0339300D03*
X0251727Y0351300D03*
X0224127Y0385700D03*
X0195327Y0360500D03*
X0186127Y0370900D03*
X0179327Y0364100D03*
X0188527Y0384500D03*
X0226127Y0302500D03*
X0250127Y0260100D03*
X0198527Y0204500D03*
X0190527Y0199700D03*
X0184127Y0198500D03*
X0181727Y0202900D03*
X0182527Y0219700D03*
X0171727Y0247300D03*
X0175727Y0256900D03*
X0180527Y0256500D03*
X0131727Y0221700D03*
X0128527Y0218500D03*
X0135327Y0198500D03*
X0150527Y0162100D03*
X0157727Y0155300D03*
X0150527Y0150900D03*
X0150527Y0140900D03*
X0154127Y0136100D03*
X0159727Y0130500D03*
X0163327Y0124500D03*
X0150527Y0122900D03*
X0146527Y0128500D03*
X0133727Y0131300D03*
X0131327Y0134900D03*
X0127727Y0138100D03*
X0130527Y0147700D03*
X0128127Y0151300D03*
X0114527Y0160100D03*
X0092127Y0144100D03*
X0091327Y0135300D03*
X0071327Y0153300D03*
X0071327Y0160500D03*
X0073727Y0164500D03*
X0064127Y0144100D03*
X0055327Y0150500D03*
X0052127Y0142900D03*
X0046527Y0153700D03*
X0027327Y0167700D03*
X0019327Y0150100D03*
X0015727Y0137700D03*
X0047727Y0207300D03*
X0054127Y0222900D03*
X0034927Y0226900D03*
X0053327Y0336100D03*
X0176127Y0186100D03*
X0176927Y0174500D03*
X0183727Y0172100D03*
X0182527Y0157700D03*
X0178127Y0158100D03*
X0192527Y0150500D03*
X0194527Y0130500D03*
X0197727Y0112900D03*
X0197727Y0095700D03*
X0187727Y0077700D03*
X0179327Y0072900D03*
X0161727Y0086900D03*
X0155327Y0093300D03*
X0174927Y0094500D03*
X0148127Y0066900D03*
X0119327Y0048500D03*
X0110527Y0048500D03*
X0094527Y0078500D03*
X0084527Y0088500D03*
X0094127Y0113700D03*
X0114527Y0113700D03*
X0112527Y0103700D03*
X0134127Y0100100D03*
X0146127Y0026900D03*
X0214127Y0077700D03*
X0222927Y0112900D03*
D25*
X0236127Y0112900D01*
X0283327Y0065700D01*
X0313327Y0040500D02*
X0318527Y0035300D01*
X0318813Y0035170D01*
X0313327Y0040500D02*
X0189327Y0040500D01*
X0174527Y0055300D01*
X0174527Y0055700D01*
X0159727Y0070500D01*
X0106127Y0070500D01*
X0100927Y0075700D01*
X0100927Y0100100D01*
X0114527Y0113700D01*
X0112527Y0103700D02*
X0144927Y0103700D01*
X0155327Y0093300D01*
X0161727Y0086900D02*
X0162927Y0085700D01*
X0162927Y0085300D01*
X0167327Y0080900D01*
X0184527Y0080900D01*
X0187727Y0077700D01*
X0190703Y0082166D02*
X0190527Y0082500D01*
X0190527Y0083700D01*
X0159727Y0114500D01*
X0159727Y0125700D01*
X0174927Y0140900D01*
X0174927Y0145700D01*
X0174955Y0145788D01*
X0175327Y0146100D01*
X0185727Y0156500D01*
X0185727Y0160500D01*
X0199727Y0174500D01*
X0202927Y0174500D01*
X0204927Y0176500D01*
X0229327Y0176500D01*
X0229680Y0176812D01*
X0234127Y0178500D02*
X0231327Y0181300D01*
X0222927Y0181300D01*
X0219727Y0178100D01*
X0209727Y0178100D01*
X0203727Y0184100D01*
X0199327Y0184100D01*
X0184927Y0198500D01*
X0184127Y0198500D01*
X0187327Y0198500D02*
X0191727Y0194100D01*
X0214527Y0194100D01*
X0215727Y0192900D01*
X0291727Y0192900D01*
X0294127Y0195300D01*
X0296127Y0199300D02*
X0298527Y0201700D01*
X0324927Y0201700D01*
X0330527Y0207300D01*
X0330624Y0207430D01*
X0348127Y0208900D02*
X0348127Y0242100D01*
X0330927Y0238500D02*
X0330927Y0247700D01*
X0330624Y0247969D01*
X0330927Y0238500D02*
X0314127Y0221700D01*
X0275327Y0221700D01*
X0262127Y0223700D02*
X0248927Y0223700D01*
X0233727Y0208500D01*
X0232527Y0205300D02*
X0230527Y0207300D01*
X0230527Y0209700D01*
X0208127Y0232100D01*
X0208127Y0234100D01*
X0203727Y0234100D02*
X0228927Y0208900D01*
X0228927Y0206500D01*
X0232927Y0202500D01*
X0283327Y0202500D01*
X0296127Y0199300D02*
X0201727Y0199300D01*
X0201428Y0199524D01*
X0198527Y0204500D02*
X0223727Y0204500D01*
X0225727Y0202500D01*
X0232527Y0205300D02*
X0261727Y0205300D01*
X0262127Y0205700D01*
X0267727Y0196100D02*
X0216927Y0196100D01*
X0220127Y0189300D02*
X0301327Y0189300D01*
X0309327Y0181300D01*
X0360527Y0181300D01*
X0381527Y0168300D02*
X0390127Y0159700D01*
X0390127Y0126500D01*
X0384527Y0120900D01*
X0384527Y0117700D01*
X0384369Y0117501D01*
X0384527Y0117300D01*
X0384527Y0111300D01*
X0390127Y0105700D01*
X0390127Y0088900D01*
X0384927Y0083700D01*
X0384514Y0083485D01*
X0384527Y0083300D01*
X0390127Y0077700D01*
X0390127Y0062500D01*
X0384527Y0056900D01*
X0384527Y0053700D01*
X0384424Y0053434D01*
X0384127Y0053300D01*
X0360527Y0029700D01*
X0296927Y0029700D01*
X0291727Y0034900D01*
X0288927Y0034900D01*
X0288813Y0035170D01*
X0233727Y0092900D02*
X0233727Y0097700D01*
X0234010Y0097914D01*
X0233727Y0092900D02*
X0228927Y0088100D01*
X0225727Y0088100D01*
X0215327Y0077700D01*
X0214127Y0077700D01*
X0197727Y0095700D02*
X0197727Y0112900D01*
X0195727Y0127300D02*
X0175327Y0127300D01*
X0174955Y0127284D01*
X0192527Y0132500D02*
X0194527Y0130500D01*
X0192527Y0132500D02*
X0192527Y0150500D01*
X0182527Y0157700D02*
X0182527Y0158100D01*
X0180127Y0160500D01*
X0180127Y0177300D01*
X0173327Y0184100D01*
X0160127Y0184100D01*
X0154927Y0189300D01*
X0141727Y0189300D01*
X0141428Y0189524D01*
X0141428Y0199524D02*
X0141727Y0199700D01*
X0146527Y0204500D01*
X0163327Y0204500D01*
X0166127Y0201700D01*
X0166127Y0198500D01*
X0169727Y0194900D01*
X0172527Y0194900D01*
X0176127Y0191300D01*
X0176127Y0186100D01*
X0176927Y0174500D02*
X0169727Y0174500D01*
X0166927Y0171700D01*
X0166927Y0168500D01*
X0163327Y0164900D01*
X0160127Y0164900D01*
X0146527Y0151300D01*
X0128127Y0151300D01*
X0127327Y0154900D02*
X0143327Y0154900D01*
X0150527Y0162100D01*
X0147727Y0169300D02*
X0142527Y0164100D01*
X0122927Y0164100D01*
X0112127Y0153300D01*
X0071327Y0153300D01*
X0073727Y0164500D02*
X0091327Y0164500D01*
X0117727Y0190900D01*
X0120927Y0188100D02*
X0120927Y0198500D01*
X0092927Y0226500D01*
X0093327Y0223300D02*
X0091727Y0223300D01*
X0086527Y0228500D01*
X0086527Y0231700D01*
X0092527Y0237700D01*
X0112927Y0237700D01*
X0120927Y0245700D01*
X0120927Y0249300D01*
X0112127Y0258100D01*
X0094527Y0258100D01*
X0077327Y0275300D01*
X0077278Y0275328D01*
X0086927Y0286500D02*
X0087278Y0286328D01*
X0086927Y0286500D02*
X0084127Y0289300D01*
X0084127Y0314900D01*
X0094527Y0314900D02*
X0097327Y0314900D01*
X0116127Y0296100D01*
X0129727Y0296100D01*
X0131327Y0294500D01*
X0179727Y0294500D01*
X0169727Y0280100D02*
X0148527Y0258900D01*
X0148527Y0249700D01*
X0143327Y0244500D01*
X0139727Y0244500D01*
X0136527Y0241300D01*
X0136527Y0230900D01*
X0128527Y0222900D01*
X0128527Y0218500D01*
X0131727Y0221700D02*
X0131727Y0194500D01*
X0117727Y0180500D01*
X0117727Y0173300D01*
X0128527Y0174100D02*
X0114527Y0160100D01*
X0120527Y0159300D02*
X0099727Y0138500D01*
X0090127Y0138500D01*
X0088127Y0136500D01*
X0088127Y0066100D01*
X0088127Y0065700D01*
X0063727Y0065700D01*
X0061327Y0068100D01*
X0045727Y0068100D01*
X0041727Y0072100D01*
X0041727Y0084500D01*
X0014527Y0111700D01*
X0014527Y0114900D01*
X0014424Y0114973D01*
X0012294Y0143509D02*
X0012527Y0143700D01*
X0046527Y0143700D01*
X0053327Y0150500D01*
X0055327Y0150500D01*
X0058527Y0149300D02*
X0052127Y0142900D01*
X0050527Y0150100D02*
X0054127Y0153700D01*
X0058527Y0153700D01*
X0058527Y0149300D01*
X0058527Y0153700D02*
X0058527Y0180900D01*
X0081327Y0180900D01*
X0083327Y0182900D01*
X0083327Y0185300D01*
X0081327Y0187300D01*
X0068127Y0187300D01*
X0058927Y0196500D01*
X0056927Y0196500D01*
X0056530Y0196548D01*
X0066530Y0196548D02*
X0066927Y0196900D01*
X0072127Y0202100D01*
X0107727Y0202100D01*
X0108127Y0198900D02*
X0099327Y0190100D01*
X0099327Y0181300D02*
X0100127Y0181300D01*
X0116527Y0197700D01*
X0116527Y0200100D01*
X0093327Y0223300D01*
X0084927Y0232500D02*
X0084927Y0209300D01*
X0086527Y0207700D01*
X0086530Y0207548D01*
X0080127Y0184100D02*
X0050127Y0184100D01*
X0047727Y0186500D01*
X0047727Y0207300D01*
X0044527Y0208500D02*
X0057727Y0221700D01*
X0057727Y0274900D01*
X0057327Y0275300D01*
X0057278Y0275328D01*
X0042927Y0276500D02*
X0042927Y0313300D01*
X0046527Y0317700D02*
X0046845Y0318229D01*
X0046527Y0318100D01*
X0020527Y0318100D01*
X0013327Y0310900D01*
X0013026Y0310800D01*
X0046527Y0317700D02*
X0046527Y0256900D01*
X0048927Y0254500D01*
X0013380Y0241891D02*
X0013327Y0241700D01*
X0013327Y0239300D01*
X0008127Y0234100D01*
X0008127Y0226900D01*
X0011727Y0202500D02*
X0012127Y0202100D01*
X0012127Y0183700D01*
X0012294Y0183509D01*
X0044527Y0187300D02*
X0044527Y0208500D01*
X0050927Y0209700D02*
X0093727Y0252500D01*
X0110927Y0252500D01*
X0115727Y0247700D01*
X0115900Y0247520D01*
X0102527Y0242500D02*
X0094927Y0242500D01*
X0084927Y0232500D01*
X0102927Y0261300D02*
X0102927Y0278900D01*
X0121327Y0266100D02*
X0129327Y0274100D01*
X0142927Y0274100D01*
X0144527Y0275700D01*
X0156927Y0275700D01*
X0150927Y0272500D02*
X0142527Y0264100D01*
X0139327Y0264100D01*
X0134527Y0259300D01*
X0134527Y0253700D01*
X0125327Y0273300D02*
X0141327Y0289300D01*
X0141428Y0289524D01*
X0141327Y0299300D02*
X0127327Y0299300D01*
X0124927Y0304100D02*
X0142927Y0304100D01*
X0148127Y0309300D01*
X0161327Y0309300D01*
X0161428Y0309524D01*
X0170527Y0314100D02*
X0214527Y0314100D01*
X0226127Y0302500D01*
X0245727Y0322100D02*
X0228927Y0338900D01*
X0234927Y0339300D02*
X0228927Y0345300D01*
X0225727Y0345300D01*
X0234927Y0339300D02*
X0262927Y0339300D01*
X0251727Y0351300D02*
X0243327Y0359700D01*
X0216527Y0359700D01*
X0211727Y0354900D01*
X0186127Y0370900D02*
X0149327Y0370900D01*
X0146127Y0374100D01*
X0139327Y0374100D01*
X0126127Y0360900D01*
X0123327Y0360900D01*
X0123223Y0360552D01*
X0132527Y0357300D02*
X0132527Y0356900D01*
X0125327Y0349700D01*
X0104527Y0349700D01*
X0104325Y0349331D01*
X0102927Y0359300D02*
X0100127Y0359300D01*
X0094127Y0353300D01*
X0094127Y0325700D01*
X0099327Y0320500D01*
X0099452Y0320198D01*
X0132527Y0357300D02*
X0139727Y0364500D01*
X0143327Y0364500D01*
X0143727Y0364100D01*
X0179327Y0364100D01*
X0141327Y0389300D02*
X0141428Y0389524D01*
X0141327Y0389300D02*
X0132927Y0389300D01*
X0102927Y0359300D01*
X0053700Y0382477D02*
X0053327Y0382100D01*
X0053327Y0336100D01*
X0124127Y0273300D02*
X0125327Y0273300D01*
X0141327Y0299300D02*
X0141428Y0299524D01*
X0161428Y0319524D02*
X0161727Y0319300D01*
X0165327Y0319300D01*
X0170527Y0314100D01*
X0188127Y0269300D02*
X0175727Y0256900D01*
X0180527Y0256500D02*
X0188127Y0256500D01*
X0200527Y0244100D01*
X0203327Y0244100D01*
X0218927Y0228500D01*
X0218927Y0225700D01*
X0232127Y0212500D01*
X0210927Y0222500D02*
X0203327Y0214900D01*
X0200127Y0214900D01*
X0196927Y0211700D01*
X0196927Y0208500D01*
X0190527Y0202100D01*
X0190527Y0199700D01*
X0187327Y0199700D02*
X0187327Y0198500D01*
X0187327Y0199700D02*
X0186927Y0200100D01*
X0186927Y0220500D01*
X0171727Y0235700D01*
X0171727Y0239300D01*
X0171428Y0239524D01*
X0166927Y0237700D02*
X0171327Y0233300D01*
X0171327Y0229700D01*
X0171428Y0229524D01*
X0166927Y0237700D02*
X0166927Y0241700D01*
X0169327Y0244100D01*
X0175727Y0244100D01*
X0195727Y0224100D01*
X0204927Y0224100D01*
X0206527Y0222500D01*
X0201428Y0229524D02*
X0201327Y0229700D01*
X0201327Y0230900D01*
X0184927Y0247300D01*
X0171727Y0247300D01*
X0170527Y0250500D02*
X0184127Y0250500D01*
X0200527Y0234100D01*
X0203727Y0234100D01*
X0195727Y0232100D02*
X0192927Y0234900D01*
X0195727Y0232100D02*
X0195727Y0228500D01*
X0182527Y0219700D02*
X0171727Y0219700D01*
X0171428Y0219524D01*
X0166927Y0217700D02*
X0170127Y0214500D01*
X0173327Y0214500D01*
X0176927Y0210900D01*
X0176927Y0207700D01*
X0181727Y0202900D01*
X0166927Y0217700D02*
X0166927Y0220500D01*
X0161727Y0225700D01*
X0161727Y0229300D01*
X0161428Y0229524D01*
X0161428Y0239524D02*
X0161727Y0239700D01*
X0161727Y0241700D01*
X0170527Y0250500D01*
X0188127Y0269300D02*
X0201327Y0269300D01*
X0201428Y0269524D01*
X0220527Y0268500D02*
X0201727Y0249700D01*
X0201428Y0249524D01*
X0218927Y0261700D02*
X0218927Y0232900D01*
X0218927Y0261700D02*
X0224127Y0266900D01*
X0276127Y0266900D01*
X0285727Y0276500D01*
X0285727Y0290500D01*
X0285983Y0290513D01*
X0282927Y0292900D02*
X0270727Y0280700D01*
X0278127Y0273300D01*
X0270727Y0280700D02*
X0258527Y0268500D01*
X0220527Y0268500D01*
X0230527Y0263300D02*
X0286927Y0263300D01*
X0290927Y0267300D01*
X0322527Y0267300D01*
X0330527Y0259300D01*
X0330624Y0258969D01*
X0320624Y0247969D02*
X0320527Y0247700D01*
X0315327Y0242500D01*
X0290927Y0242500D01*
X0288127Y0245300D01*
X0288127Y0250900D01*
X0292127Y0254900D01*
X0292127Y0264100D01*
X0284927Y0250100D02*
X0274927Y0260100D01*
X0250127Y0260100D01*
X0278127Y0292500D02*
X0256127Y0314500D01*
X0252527Y0314500D01*
X0282927Y0318100D02*
X0282927Y0292900D01*
X0282927Y0318100D02*
X0283065Y0318229D01*
X0326127Y0336900D02*
X0326127Y0290900D01*
X0325983Y0290513D01*
X0326127Y0336900D02*
X0338527Y0349300D01*
X0338794Y0349331D01*
X0377327Y0322100D02*
X0384127Y0328900D01*
X0384160Y0329103D01*
X0377327Y0322100D02*
X0377327Y0306900D01*
X0383727Y0300500D01*
X0383727Y0299300D01*
X0384117Y0299131D01*
X0384282Y0235202D02*
X0384127Y0234900D01*
X0384127Y0232100D01*
X0382727Y0230700D01*
X0390127Y0223300D01*
X0390127Y0210100D01*
X0384527Y0204500D01*
X0384527Y0201300D01*
X0384353Y0201190D01*
X0384527Y0200900D01*
X0384527Y0198900D01*
X0390127Y0193300D01*
X0390127Y0177300D01*
X0384527Y0171700D01*
X0384431Y0171221D01*
X0384127Y0170900D01*
X0381527Y0168300D01*
X0364127Y0150900D01*
X0308527Y0150900D01*
X0303327Y0145700D01*
X0300927Y0145700D01*
X0300624Y0145446D01*
X0296927Y0141700D02*
X0298527Y0140100D01*
X0305327Y0140100D01*
X0310527Y0145300D01*
X0310624Y0145446D01*
X0296927Y0141700D02*
X0251727Y0141700D01*
X0254927Y0136900D02*
X0254927Y0122900D01*
X0263327Y0136900D02*
X0279327Y0120900D01*
X0282527Y0122100D02*
X0282527Y0117300D01*
X0282527Y0122100D02*
X0269327Y0135300D01*
X0269327Y0136900D01*
X0287727Y0150900D02*
X0287727Y0176100D01*
X0286527Y0179300D02*
X0307727Y0179300D01*
X0320927Y0166100D01*
X0308527Y0184500D02*
X0336527Y0184500D01*
X0356727Y0204700D01*
X0356527Y0204900D01*
X0356727Y0204700D02*
X0382727Y0230700D01*
X0310624Y0196430D02*
X0310527Y0196100D01*
X0309727Y0195300D01*
X0309727Y0187700D01*
X0308527Y0184500D02*
X0300927Y0192100D01*
X0300927Y0196100D01*
X0300624Y0196430D01*
X0286527Y0179300D02*
X0269727Y0162500D01*
X0222927Y0162500D01*
X0212927Y0172500D01*
X0216127Y0185300D02*
X0206927Y0185300D01*
X0216127Y0185300D02*
X0220127Y0189300D01*
X0234127Y0178500D02*
X0234127Y0170100D01*
X0229727Y0166900D02*
X0229680Y0166812D01*
X0229727Y0166900D02*
X0242527Y0166900D01*
X0252127Y0176500D01*
X0252127Y0182900D01*
X0248927Y0186100D02*
X0248927Y0177700D01*
X0241327Y0170100D01*
X0229680Y0146812D02*
X0229327Y0146500D01*
X0214927Y0146500D01*
X0195727Y0127300D01*
X0166127Y0146100D02*
X0178127Y0158100D01*
X0166127Y0146100D02*
X0151327Y0146100D01*
X0140127Y0134900D01*
X0131327Y0134900D01*
X0133727Y0131300D02*
X0140927Y0131300D01*
X0150527Y0140900D01*
X0154527Y0147700D02*
X0130527Y0147700D01*
X0127327Y0154900D02*
X0107727Y0135300D01*
X0091327Y0135300D01*
X0090527Y0114900D02*
X0090527Y0066100D01*
X0107327Y0049300D01*
X0107327Y0034500D01*
X0102527Y0029700D01*
X0095727Y0029700D01*
X0090527Y0034900D01*
X0090467Y0035170D01*
X0085727Y0040500D02*
X0080527Y0035300D01*
X0080467Y0035170D01*
X0085727Y0040500D02*
X0102527Y0040500D01*
X0105727Y0043700D01*
X0105727Y0048500D01*
X0088127Y0066100D01*
X0105900Y0077914D02*
X0106127Y0077700D01*
X0110927Y0072900D01*
X0179327Y0072900D01*
X0178892Y0087166D02*
X0178527Y0087300D01*
X0167327Y0087300D01*
X0167081Y0087166D01*
X0119327Y0048500D02*
X0110527Y0048500D01*
X0080467Y0046170D02*
X0080127Y0046500D01*
X0060127Y0066500D01*
X0044927Y0066500D01*
X0026527Y0084900D01*
X0014927Y0084900D01*
X0014550Y0084910D01*
X0019327Y0150100D02*
X0050527Y0150100D01*
X0050927Y0180900D02*
X0044527Y0187300D01*
X0050927Y0187700D02*
X0050927Y0209700D01*
X0050927Y0180900D02*
X0058527Y0180900D01*
X0108127Y0198900D02*
X0113327Y0198900D01*
X0128527Y0174100D02*
X0142527Y0174100D01*
X0147727Y0179300D01*
X0161327Y0179300D01*
X0161428Y0179524D01*
X0161428Y0169524D02*
X0161327Y0169300D01*
X0147727Y0169300D01*
X0141428Y0159524D02*
X0141327Y0159300D01*
X0120527Y0159300D01*
X0113727Y0138100D02*
X0090527Y0114900D01*
X0113727Y0138100D02*
X0127727Y0138100D01*
X0150527Y0150900D02*
X0153327Y0150900D01*
X0157727Y0155300D01*
X0161327Y0154500D02*
X0154527Y0147700D01*
X0161327Y0154500D02*
X0161327Y0159300D01*
X0161428Y0159524D01*
D26*
X0182127Y0147300D02*
X0182127Y0142900D01*
X0173727Y0134500D01*
X0172127Y0134500D01*
X0167727Y0130100D01*
X0167727Y0124500D01*
X0172927Y0119300D01*
X0275327Y0119300D01*
X0280927Y0113700D01*
X0360527Y0113700D01*
X0384127Y0137300D01*
X0384369Y0137501D01*
X0383369Y0127501D02*
X0383327Y0127300D01*
X0383327Y0124900D01*
X0378527Y0120100D01*
X0378527Y0098900D01*
X0383327Y0094100D01*
X0383514Y0093485D01*
X0383327Y0093300D01*
X0378527Y0088500D01*
X0378527Y0074100D01*
X0303727Y0074100D01*
X0303065Y0074135D01*
X0302927Y0074100D01*
X0302927Y0050500D01*
X0298927Y0046500D01*
X0298813Y0046170D01*
X0293065Y0074135D02*
X0292927Y0074500D01*
X0292127Y0074500D01*
X0250127Y0116500D01*
X0171327Y0116500D01*
X0163327Y0124500D01*
X0159727Y0130500D02*
X0156927Y0127700D01*
X0156927Y0124100D01*
X0152127Y0119300D01*
X0114927Y0119300D01*
X0109327Y0113700D01*
X0094127Y0113700D01*
X0072527Y0095300D02*
X0067727Y0100100D01*
X0067727Y0137700D01*
X0015727Y0137700D01*
X0013327Y0134100D02*
X0006527Y0140900D01*
X0006527Y0166900D01*
X0012927Y0173300D01*
X0013294Y0173509D01*
X0013727Y0174100D01*
X0013727Y0176500D01*
X0027327Y0190100D01*
X0030927Y0191700D02*
X0030927Y0169300D01*
X0046527Y0153700D01*
X0027327Y0167700D02*
X0013327Y0153700D01*
X0013294Y0153509D01*
X0012294Y0163509D02*
X0012527Y0163700D01*
X0027327Y0178500D01*
X0027327Y0183700D01*
X0030927Y0191700D02*
X0024127Y0198500D01*
X0024127Y0199300D01*
X0031327Y0201300D02*
X0037327Y0195300D01*
X0037327Y0188500D01*
X0033727Y0186900D02*
X0033727Y0194900D01*
X0022927Y0205700D01*
X0013727Y0205700D01*
X0013327Y0206100D01*
X0010927Y0206100D01*
X0004527Y0212500D01*
X0004527Y0293700D01*
X0005327Y0294500D01*
X0006927Y0298100D02*
X0006927Y0315700D01*
X0011727Y0320500D01*
X0012026Y0320800D01*
X0012527Y0321300D01*
X0015327Y0324100D01*
X0058927Y0324100D01*
X0064527Y0318500D01*
X0066127Y0318500D01*
X0066845Y0318229D01*
X0066927Y0318100D01*
X0066927Y0286500D01*
X0067278Y0286328D01*
X0063327Y0291700D02*
X0060127Y0291700D01*
X0059727Y0292100D01*
X0054927Y0292100D01*
X0051327Y0288500D01*
X0051327Y0257300D01*
X0052527Y0256100D01*
X0052527Y0249700D01*
X0031327Y0228500D01*
X0031327Y0201300D01*
X0024127Y0209300D02*
X0024127Y0225300D01*
X0031327Y0232500D01*
X0031327Y0279300D01*
X0012927Y0297700D01*
X0012927Y0300500D01*
X0012829Y0300631D01*
X0006927Y0298100D02*
X0011727Y0293300D01*
X0011727Y0290900D01*
X0011829Y0290631D01*
X0012127Y0290100D01*
X0019327Y0282900D01*
X0019327Y0259300D01*
X0012527Y0252500D01*
X0012380Y0251891D01*
X0012527Y0251700D01*
X0019327Y0244900D01*
X0019327Y0234100D01*
X0027727Y0234100D01*
X0019327Y0234100D02*
X0019327Y0229300D01*
X0012927Y0222900D01*
X0012927Y0222100D01*
X0012557Y0221820D01*
X0034927Y0226900D02*
X0038927Y0222900D01*
X0054127Y0222900D01*
X0038527Y0240900D02*
X0038527Y0282500D01*
X0013327Y0330500D02*
X0013026Y0330800D01*
X0013327Y0330500D02*
X0073727Y0330500D01*
X0107327Y0296900D01*
X0107727Y0297300D01*
X0111327Y0297300D01*
X0117327Y0291300D01*
X0129727Y0291300D01*
X0117327Y0286100D02*
X0109727Y0293700D01*
X0107327Y0296900D02*
X0096927Y0286500D01*
X0097278Y0286328D01*
X0117327Y0286100D02*
X0117327Y0268100D01*
X0141428Y0279524D02*
X0141727Y0279700D01*
X0164127Y0279700D01*
X0168127Y0283700D01*
X0185327Y0283700D01*
X0188927Y0284100D02*
X0199327Y0294500D01*
X0223327Y0294500D01*
X0267727Y0338900D01*
X0271727Y0338900D01*
X0285327Y0324100D02*
X0256927Y0324100D01*
X0217327Y0284500D01*
X0194527Y0284500D01*
X0193327Y0280500D02*
X0199327Y0274500D01*
X0214127Y0274500D01*
X0225327Y0263300D02*
X0235727Y0252900D01*
X0276927Y0252900D01*
X0290127Y0239700D01*
X0327327Y0239700D01*
X0340927Y0240100D02*
X0372127Y0271300D01*
X0366927Y0271300D02*
X0366927Y0270500D01*
X0344527Y0248100D01*
X0340927Y0248100D01*
X0340624Y0247969D01*
X0340927Y0240100D02*
X0340927Y0207700D01*
X0340624Y0207430D01*
X0340927Y0196500D02*
X0340624Y0196430D01*
X0340927Y0196500D02*
X0376927Y0232500D01*
X0376927Y0247700D01*
X0378127Y0252900D02*
X0378127Y0274900D01*
X0334527Y0274900D01*
X0327727Y0281700D01*
X0316927Y0270900D01*
X0327727Y0281700D02*
X0303327Y0306100D01*
X0303327Y0318100D01*
X0303065Y0318229D01*
X0293065Y0318229D02*
X0292927Y0318500D01*
X0290927Y0318500D01*
X0285327Y0324100D01*
X0238527Y0324500D02*
X0199327Y0324500D01*
X0195727Y0320900D01*
X0177327Y0320900D01*
X0173727Y0324500D01*
X0159327Y0324500D01*
X0149327Y0314500D01*
X0139327Y0314500D01*
X0136127Y0317700D01*
X0136127Y0331300D01*
X0141327Y0336500D01*
X0141327Y0339300D01*
X0141428Y0339524D01*
X0139327Y0344500D02*
X0123327Y0328500D01*
X0123327Y0316500D01*
X0116927Y0326500D02*
X0111327Y0332100D01*
X0138527Y0359300D01*
X0141327Y0359300D01*
X0141428Y0359524D01*
X0139327Y0354500D02*
X0116927Y0332100D01*
X0116927Y0326500D02*
X0116927Y0300900D01*
X0141428Y0319524D02*
X0141727Y0319700D01*
X0144527Y0319700D01*
X0179327Y0354500D01*
X0206127Y0354500D01*
X0235327Y0383700D01*
X0315327Y0383700D01*
X0339327Y0359700D01*
X0343327Y0359700D01*
X0370527Y0332500D01*
X0370527Y0298900D01*
X0384127Y0285300D01*
X0384180Y0285182D01*
X0382527Y0286100D01*
X0374927Y0278500D01*
X0378127Y0274900D02*
X0382927Y0274900D01*
X0383180Y0275182D01*
X0390127Y0287300D02*
X0390127Y0260900D01*
X0384527Y0255300D01*
X0384282Y0255202D01*
X0378127Y0252900D02*
X0382927Y0248100D01*
X0382927Y0245300D01*
X0383282Y0245202D01*
X0384353Y0221190D02*
X0384127Y0220900D01*
X0377327Y0214100D01*
X0370927Y0214100D01*
X0370527Y0213700D01*
X0370527Y0186100D01*
X0340927Y0156500D01*
X0340624Y0156446D01*
X0341727Y0162500D02*
X0351727Y0172500D01*
X0360527Y0170900D02*
X0373327Y0170900D01*
X0383327Y0180900D01*
X0383431Y0181221D01*
X0382927Y0181700D01*
X0378527Y0186100D01*
X0378527Y0203700D01*
X0383327Y0208500D01*
X0383327Y0210900D01*
X0383353Y0211190D01*
X0337327Y0218500D02*
X0323327Y0218500D01*
X0312527Y0207700D01*
X0310927Y0207700D01*
X0310624Y0207430D01*
X0318527Y0162500D02*
X0341727Y0162500D01*
X0351727Y0147300D02*
X0350127Y0145700D01*
X0340927Y0145700D01*
X0340624Y0145446D01*
X0318527Y0162500D02*
X0312527Y0156500D01*
X0310927Y0156500D01*
X0310624Y0156446D01*
X0243727Y0139300D02*
X0243727Y0130100D01*
X0243727Y0139300D02*
X0231327Y0151700D01*
X0222927Y0151700D01*
X0215327Y0159300D01*
X0201727Y0159300D01*
X0201428Y0159524D01*
X0201327Y0166500D02*
X0182127Y0147300D01*
X0201327Y0166500D02*
X0201327Y0169300D01*
X0201428Y0169524D01*
X0161327Y0199300D02*
X0161428Y0199524D01*
X0161327Y0199300D02*
X0148527Y0199300D01*
X0143727Y0194500D01*
X0139327Y0194500D01*
X0121327Y0176500D01*
X0121327Y0171700D01*
X0113327Y0163700D01*
X0094127Y0163700D01*
X0090927Y0160500D01*
X0071327Y0160500D01*
X0067727Y0163700D02*
X0096527Y0192500D01*
X0096527Y0196500D01*
X0096530Y0196548D01*
X0117327Y0185300D02*
X0106127Y0174100D01*
X0092127Y0144100D02*
X0084527Y0136500D01*
X0084527Y0088500D01*
X0094527Y0078500D02*
X0146127Y0026900D01*
X0162127Y0055300D02*
X0191327Y0026100D01*
X0336927Y0026100D01*
X0341727Y0033300D02*
X0328927Y0046100D01*
X0328813Y0046170D01*
X0378527Y0070900D02*
X0378527Y0074100D01*
X0378527Y0070900D02*
X0383327Y0066100D01*
X0383327Y0063700D01*
X0383424Y0063434D01*
X0340624Y0258969D02*
X0340927Y0259300D01*
X0352927Y0271300D01*
X0362527Y0271300D01*
X0384127Y0290900D02*
X0386527Y0290900D01*
X0390127Y0287300D01*
X0384127Y0290900D02*
X0373327Y0301700D01*
X0373327Y0358500D01*
X0345327Y0386500D01*
X0234127Y0386500D01*
X0212127Y0364500D01*
X0199327Y0364500D01*
X0195327Y0360500D01*
X0218127Y0374500D02*
X0149327Y0374500D01*
X0144527Y0379300D01*
X0141727Y0379300D01*
X0141428Y0379524D01*
X0139327Y0354500D02*
X0153727Y0354500D01*
X0156527Y0351700D01*
X0156527Y0347300D01*
X0151727Y0342500D01*
X0151727Y0339700D01*
X0151428Y0339524D01*
X0143727Y0344500D02*
X0148527Y0349300D01*
X0151327Y0349300D01*
X0151428Y0349524D01*
X0143727Y0344500D02*
X0139327Y0344500D01*
X0188527Y0384500D02*
X0222927Y0384500D01*
X0224127Y0385700D01*
X0232927Y0389300D02*
X0218127Y0374500D01*
X0232927Y0389300D02*
X0346527Y0389300D01*
X0376127Y0359700D01*
X0376127Y0348900D01*
X0382927Y0342100D01*
X0382927Y0339700D01*
X0383160Y0339103D01*
X0383327Y0338900D01*
X0390127Y0332100D01*
X0390127Y0316900D01*
X0383327Y0310100D01*
X0383327Y0309300D01*
X0383117Y0309131D01*
X0193327Y0280500D02*
X0192527Y0280500D01*
X0188927Y0284100D02*
X0188927Y0275300D01*
X0153327Y0239700D01*
X0141727Y0239700D01*
X0141428Y0239524D01*
X0141428Y0229524D02*
X0141327Y0229300D01*
X0141327Y0226500D01*
X0135327Y0220500D01*
X0135327Y0198500D01*
X0154127Y0136100D02*
X0159727Y0130500D01*
X0150527Y0122900D02*
X0146527Y0126900D01*
X0146527Y0128500D01*
X0148127Y0066900D02*
X0152127Y0066900D01*
X0162127Y0056900D01*
X0162127Y0055300D01*
X0072527Y0071700D02*
X0072527Y0095300D01*
X0066527Y0086500D02*
X0018927Y0134100D01*
X0013327Y0134100D01*
X0043327Y0177300D02*
X0033727Y0186900D01*
X0043327Y0177300D02*
X0054527Y0177300D01*
X0067727Y0163700D02*
X0067727Y0137700D01*
X0066527Y0086500D02*
X0066527Y0074500D01*
X0066845Y0074135D01*
X0064527Y0068500D02*
X0069327Y0068500D01*
X0072527Y0071700D01*
X0064527Y0068500D02*
X0058927Y0074100D01*
X0056927Y0074100D01*
X0056845Y0074135D01*
X0147327Y0290900D02*
X0188127Y0290900D01*
M02*
