%
M48
M72
T01C0.0150
T02C0.0177
T03C0.0315
T04C0.0320
T05C0.0354
T06C0.0374
T07C0.0394
T08C0.0400
T09C0.0472
T10C0.0650
T11C0.0709
T12C0.0866
T13C0.1102
T14C0.1260
T15C0.1575
%
T01
X5493Y5930
X3293Y7490
X7213Y8850
X8133Y7130
X10213Y8610
X9813Y10530
X9333Y11170
X9333Y12610
X9653Y13610
X10453Y12290
X11133Y12970
X12333Y12530
X13533Y12370
X14213Y12650
X14573Y13290
X14933Y13690
X14573Y14250
X14413Y14890
X13333Y15490
X12413Y14890
X13333Y14250
X14933Y12850
X14533Y11810
X13173Y11210
X16253Y12850
X16293Y13330
X15693Y14450
X17653Y15650
X19133Y15810
X19333Y17090
X20613Y17330
X20933Y18530
X22613Y18810
X24133Y18450
X24453Y18170
X23893Y20130
X23373Y21090
X25893Y21090
X26053Y20690
X27053Y19890
X29133Y21010
X30213Y22090
X29213Y23570
X28853Y23210
X28453Y22650
X26773Y23330
X26453Y23050
X26453Y24890
X26453Y25330
X25173Y25650
X23893Y25930
X26333Y28210
X26093Y29570
X24853Y28770
X24533Y30330
X22213Y31090
X24533Y33090
X26173Y33450
X25813Y34850
X26733Y35290
X27373Y31650
X28493Y29890
X31533Y27330
X31973Y27250
X34053Y26570
X35613Y28530
X35533Y28970
X35933Y22530
X35933Y21450
X33973Y21050
X33653Y20490
X33653Y21810
X33973Y18090
X38173Y16370
X38493Y11010
X35533Y7450
X35933Y6530
X32893Y5090
X27493Y8250
X26973Y7970
X22773Y10690
X20693Y13210
X19533Y12570
X18613Y11530
X16253Y8130
X13333Y7610
X13493Y6890
X10213Y4570
X10213Y3450
X5293Y12130
X2333Y11930
X3253Y16330
X2013Y17050
X4333Y19130
X3973Y19490
X4693Y20530
X6533Y21690
X6053Y23410
X6853Y23570
X6373Y24210
X8053Y24290
X10573Y25410
X12013Y27250
X11733Y27930
X12573Y27810
X11013Y28650
X12053Y29530
X14453Y28450
X15573Y29170
X15253Y29930
X14773Y30410
X17933Y31450
X18613Y32170
X18213Y33170
X19573Y35090
X19413Y37410
X20653Y37250
X17533Y36450
X15333Y26530
X14933Y25210
X14453Y24450
X13573Y22610
X15573Y22530
X17853Y24530
X19453Y24930
X19333Y19690
X17853Y19410
X17693Y17730
X16453Y17450
X15573Y17970
X15293Y17610
X14493Y18410
X14733Y18810
X13573Y18730
X13333Y17250
X12173Y18210
X11053Y18650
X10733Y18330
X10733Y17250
X10213Y16930
X11093Y16610
X11253Y15810
X8613Y15330
X7333Y15970
X5613Y16650
X2533Y21170
X4093Y25170
X5693Y26010
X4853Y27770
X4453Y28890
X4213Y29650
X3693Y30650
X3213Y30730
X3013Y30330
X2333Y29770
X2413Y29330
X1373Y26850
X5813Y31130
X6573Y30370
X6573Y29490
X7613Y30890
X7493Y32930
X3493Y32930
X9933Y21890
X9773Y21410
X10293Y20890
X11453Y20890
X12213Y20450
X10733Y19370
X21013Y6770
X21453Y6690
X21333Y4410
X26653Y13250
X24853Y14570
X30013Y13410
X27933Y25650
T02
X28417Y29051
X27417Y29051
T03
X24401Y24752
X23401Y24752
X22401Y24752
X22401Y22752
X23401Y22752
X24401Y22752
X12590Y22752
X11590Y22752
X10590Y22752
X10590Y24752
X11590Y24752
X12590Y24752
X12590Y9791
X11590Y9791
X10590Y9791
X10590Y7791
X11590Y7791
X12590Y7791
X22401Y7791
X23401Y7791
X24401Y7791
X24401Y9791
X23401Y9791
X22401Y9791
T04
X17496Y34276
X17496Y35276
T05
X28307Y31823
X29307Y31823
X30307Y31823
X6684Y31823
X5684Y31823
X4684Y31823
X4684Y7413
X5684Y7413
X6684Y7413
X28307Y7413
X29307Y7413
X30307Y7413
T06
X31417Y29051
X34417Y29051
T07
X20143Y28952
X20143Y27952
X20143Y26952
X20143Y25952
X20143Y24952
X20143Y23952
X20143Y22952
X20143Y21952
X20143Y20952
X19143Y20952
X18143Y20952
X17143Y20952
X17143Y21952
X16143Y21952
X16143Y20952
X15143Y20952
X14143Y20952
X14143Y21952
X14143Y22952
X14143Y23952
X14143Y24952
X14143Y25952
X14143Y26952
X14143Y27952
X14143Y28952
X14143Y29952
X14143Y30952
X14143Y31952
X14143Y32952
X14143Y33952
X14143Y34952
X15143Y34952
X15143Y33952
X16143Y32952
X16143Y31952
X16143Y30952
X16143Y29952
X17143Y29952
X17143Y30952
X17143Y31952
X17143Y32952
X20143Y32952
X20143Y31952
X20143Y30952
X20143Y29952
X20143Y33952
X20143Y34952
X20143Y35952
X20143Y36952
X20143Y37952
X20143Y38952
X15143Y37952
X14143Y37952
X14143Y38952
X14143Y36952
X14143Y35952
X15143Y35952
X16143Y23952
X16143Y22952
X17143Y22952
X17143Y23952
X17143Y19952
X17143Y18952
X17143Y17952
X17143Y16952
X17143Y15952
X16143Y15952
X16143Y16952
X16143Y17952
X16143Y18952
X16143Y19952
X14143Y19952
X14143Y18952
X14143Y17952
X14143Y16952
X14143Y15952
X20143Y15952
X20143Y16952
X20143Y17952
X20143Y18952
X20143Y19952
T08
X28881Y19956
X28881Y18856
X29881Y18856
X30881Y18856
X30881Y19956
X29881Y19956
X31881Y19956
X32881Y19956
X32881Y18856
X31881Y18856
X31881Y15645
X32881Y15645
X32881Y14545
X31881Y14545
X30881Y14545
X29881Y14545
X28881Y14545
X28881Y15645
X29881Y15645
X30881Y15645
X38337Y14750
X38437Y15750
X38443Y17122
X38343Y18122
X38443Y19122
X38435Y20119
X38335Y21119
X38435Y22119
X38428Y23520
X38328Y24520
X38428Y25520
X38418Y26518
X38318Y27518
X38418Y28518
X38412Y29913
X38312Y30913
X38412Y31913
X38416Y32910
X38316Y33910
X38416Y34910
X32881Y25897
X31881Y25897
X30881Y25897
X29881Y25897
X28881Y25897
X28881Y24797
X29881Y24797
X30881Y24797
X31881Y24797
X32881Y24797
X38437Y13750
X38337Y12750
X38437Y11750
X38451Y10349
X38351Y9349
X38451Y8349
X38442Y7343
X38342Y6343
X38442Y5343
X32881Y4223
X31881Y4223
X30881Y4223
X29881Y4223
X28881Y4223
X28881Y3123
X29881Y3123
X30881Y3123
X31881Y3123
X32881Y3123
X9653Y3123
X8653Y3123
X7653Y3123
X6653Y3123
X5653Y3123
X5653Y4223
X6653Y4223
X7653Y4223
X8653Y4223
X9653Y4223
X1455Y6491
X1355Y7491
X1455Y8491
X1442Y9497
X1342Y10497
X1442Y11497
X1229Y14351
X1329Y15351
X1229Y16351
X1329Y17351
X1229Y18351
X1356Y21182
X1256Y22182
X1356Y23182
X1338Y24189
X1238Y25189
X1338Y26189
X1303Y29387
X1203Y30387
X1303Y31387
X1283Y32394
X1183Y33394
X1283Y34394
X5370Y38248
X6510Y38248
X6728Y28633
X5728Y28633
X5728Y27533
X6728Y27533
X7728Y27533
X8728Y27533
X9728Y27533
X9728Y28633
X8728Y28633
X7728Y28633
X7653Y20755
X8653Y20755
X8653Y19655
X7653Y19655
X6653Y19655
X5653Y19655
X5653Y20755
X6653Y20755
X9653Y20755
X9653Y19655
T09
X10897Y23323
X10897Y24185
X22708Y24185
X22708Y23323
X22708Y9224
X22708Y8362
X10897Y8362
X10897Y9224
T10
X17496Y10878
X17496Y12728
X17496Y14579
T11
X27417Y10366
X31196Y10366
X7574Y10366
X3795Y10366
X3795Y34776
X7574Y34776
X27417Y34776
X31196Y34776
T12
X24397Y23772
X12586Y23772
X12586Y8811
X24397Y8811
T13
X25425Y36055
X23535Y37394
X33879Y37394
X35769Y36055
X12322Y36055
X10433Y37394
T14
X10433Y34933
X23535Y34933
X33879Y34933
T15
X1747Y1705
X1747Y37925
X37968Y37925
X37968Y1705
M30
