G75*
%MOIN*%
%OFA0B0*%
%FSLAX25Y25*%
%IPPOS*%
%LPD*%
%AMOC8*
5,1,8,0,0,1.08239X$1,22.5*
%
%ADD10R,0.02362X0.05906*%
%ADD11R,0.08661X0.02362*%
%ADD12R,0.09000X0.02362*%
%ADD13R,0.05118X0.06299*%
%ADD14R,0.05118X0.05906*%
D10*
X0331673Y0013787D03*
X0336673Y0013787D03*
X0341673Y0013787D03*
X0346673Y0013787D03*
X0351673Y0013787D03*
X0356673Y0013787D03*
X0361673Y0013787D03*
X0366673Y0013787D03*
X0371673Y0013787D03*
X0376673Y0013787D03*
X0376673Y0051583D03*
X0371673Y0051583D03*
X0366673Y0051583D03*
X0361673Y0051583D03*
X0356673Y0051583D03*
X0351673Y0051583D03*
X0346673Y0051583D03*
X0341673Y0051583D03*
X0336673Y0051583D03*
X0331673Y0051583D03*
X0276594Y0146386D03*
X0271594Y0146386D03*
X0266594Y0146386D03*
X0261594Y0146386D03*
X0256594Y0146386D03*
X0251594Y0146386D03*
X0246594Y0146386D03*
X0241594Y0146386D03*
X0236594Y0146386D03*
X0231594Y0146386D03*
X0231594Y0184181D03*
X0236594Y0184181D03*
X0241594Y0184181D03*
X0246594Y0184181D03*
X0251594Y0184181D03*
X0256594Y0184181D03*
X0261594Y0184181D03*
X0266594Y0184181D03*
X0271594Y0184181D03*
X0276594Y0184181D03*
D11*
X0302047Y0015343D03*
X0302047Y0020343D03*
X0302047Y0025343D03*
X0302047Y0030343D03*
X0302047Y0035343D03*
X0302047Y0040343D03*
X0302047Y0045343D03*
X0302047Y0050343D03*
X0322520Y0050343D03*
X0322520Y0045343D03*
X0322520Y0040343D03*
X0322520Y0035343D03*
X0322520Y0030343D03*
X0322520Y0025343D03*
X0322520Y0020343D03*
X0322520Y0015343D03*
X0309173Y0148217D03*
X0309173Y0153217D03*
X0309173Y0158217D03*
X0309173Y0163217D03*
X0309173Y0168217D03*
X0309173Y0173217D03*
X0309173Y0178217D03*
X0309173Y0183217D03*
X0288701Y0183217D03*
X0288701Y0178217D03*
X0288701Y0173217D03*
X0288701Y0168217D03*
X0288701Y0163217D03*
X0288701Y0158217D03*
X0288701Y0153217D03*
X0288701Y0148217D03*
D12*
X0490866Y0076406D03*
X0490866Y0071406D03*
X0490866Y0066406D03*
X0490866Y0061406D03*
X0517087Y0061406D03*
X0517087Y0066406D03*
X0517087Y0071406D03*
X0517087Y0076406D03*
D13*
X0544606Y0067016D03*
X0552087Y0067016D03*
X0552323Y0054142D03*
X0544842Y0054142D03*
X0431929Y0084457D03*
X0424449Y0084457D03*
D14*
X0544567Y0080087D03*
X0552047Y0080087D03*
M02*
