G75*
%MOIN*%
%OFA0B0*%
%FSLAX25Y25*%
%IPPOS*%
%LPD*%
%AMOC8*
5,1,8,0,0,1.08239X$1,22.5*
%
%ADD10C,0.07400*%
%ADD11C,0.07000*%
%ADD12C,0.16205*%
%ADD13C,0.16598*%
%ADD14C,0.15024*%
%ADD15OC8,0.05200*%
%ADD16C,0.05937*%
%ADD17R,0.05937X0.05937*%
%ADD18C,0.06600*%
%ADD19C,0.03772*%
%ADD20C,0.05740*%
%ADD21C,0.09744*%
%ADD22C,0.01000*%
%ADD23C,0.03100*%
%ADD24C,0.01500*%
D10*
X0024685Y0025177D03*
X0034685Y0025177D03*
X0044685Y0025177D03*
X0054685Y0025177D03*
X0064685Y0025177D03*
X0064685Y0036177D03*
X0054685Y0036177D03*
X0044685Y0036177D03*
X0034685Y0036177D03*
X0024685Y0036177D03*
X0153161Y0030598D03*
X0163201Y0030953D03*
X0164201Y0040953D03*
X0154161Y0040598D03*
X0197874Y0036177D03*
X0207874Y0036177D03*
X0217874Y0036177D03*
X0227874Y0036177D03*
X0237874Y0036177D03*
X0237874Y0025177D03*
X0227874Y0025177D03*
X0217874Y0025177D03*
X0207874Y0025177D03*
X0197874Y0025177D03*
X0164201Y0020953D03*
X0154161Y0020598D03*
X0064685Y0084311D03*
X0054685Y0084311D03*
X0044685Y0084311D03*
X0034685Y0084311D03*
X0024685Y0084311D03*
X0024685Y0095311D03*
X0034685Y0095311D03*
X0044685Y0095311D03*
X0054685Y0095311D03*
X0064685Y0095311D03*
X0064634Y0143287D03*
X0054634Y0143287D03*
X0044634Y0143287D03*
X0034634Y0143287D03*
X0024634Y0143287D03*
X0024634Y0154287D03*
X0034634Y0154287D03*
X0044634Y0154287D03*
X0054634Y0154287D03*
X0064634Y0154287D03*
X0065984Y0183752D03*
X0075984Y0184752D03*
X0095236Y0184681D03*
X0105236Y0183681D03*
X0115236Y0184681D03*
X0125236Y0183681D03*
X0135236Y0184681D03*
X0055984Y0184752D03*
X0040787Y0184831D03*
X0030787Y0183831D03*
X0020787Y0184831D03*
X0406260Y0184760D03*
X0416260Y0183760D03*
X0426260Y0184760D03*
X0436260Y0183760D03*
X0446260Y0184760D03*
X0467795Y0184339D03*
X0477795Y0184102D03*
X0476795Y0174102D03*
X0466795Y0174339D03*
X0467795Y0164339D03*
X0477795Y0164102D03*
X0508937Y0166909D03*
X0518937Y0166909D03*
X0528937Y0166909D03*
X0538937Y0166909D03*
X0548937Y0166909D03*
X0548937Y0177909D03*
X0538937Y0177909D03*
X0528937Y0177909D03*
X0518937Y0177909D03*
X0508937Y0177909D03*
X0608976Y0141574D03*
X0608976Y0130174D03*
X0548622Y0112634D03*
X0538622Y0112634D03*
X0528622Y0112634D03*
X0518622Y0112634D03*
X0508622Y0112634D03*
X0508622Y0101634D03*
X0518622Y0101634D03*
X0528622Y0101634D03*
X0538622Y0101634D03*
X0548622Y0101634D03*
X0478150Y0099181D03*
X0468110Y0099535D03*
X0477150Y0109181D03*
X0467110Y0109535D03*
X0478150Y0119181D03*
X0468110Y0119535D03*
X0467823Y0037370D03*
X0477980Y0037252D03*
X0476980Y0027252D03*
X0466823Y0027370D03*
X0467823Y0017370D03*
X0477980Y0017252D03*
X0508898Y0021201D03*
X0518898Y0021201D03*
X0528898Y0021201D03*
X0538898Y0021201D03*
X0548898Y0021201D03*
X0548898Y0032201D03*
X0538898Y0032201D03*
X0528898Y0032201D03*
X0518898Y0032201D03*
X0508898Y0032201D03*
D11*
X0436626Y0064181D03*
X0426626Y0064181D03*
X0416626Y0064181D03*
X0416535Y0154772D03*
X0426535Y0154772D03*
X0436535Y0154772D03*
X0125551Y0154693D03*
X0115551Y0154693D03*
X0105551Y0154693D03*
X0105551Y0064181D03*
X0115551Y0064181D03*
X0125551Y0064181D03*
D12*
X0134449Y0034654D03*
X0096653Y0034654D03*
X0114764Y0014969D03*
X0114764Y0105480D03*
X0096653Y0125165D03*
X0134449Y0125165D03*
X0407638Y0125244D03*
X0445433Y0125244D03*
X0425748Y0105559D03*
X0407728Y0034654D03*
X0445523Y0034654D03*
X0425838Y0014969D03*
D13*
X0580315Y0034890D03*
X0580165Y0092819D03*
X0579409Y0176701D03*
D14*
X0604016Y0176701D03*
X0590630Y0157803D03*
X0604772Y0092819D03*
X0591386Y0073921D03*
X0604921Y0034890D03*
X0591535Y0015992D03*
D15*
X0275488Y0083744D03*
X0275488Y0093744D03*
D16*
X0295527Y0097567D03*
X0305527Y0097567D03*
X0315527Y0097567D03*
X0325527Y0097567D03*
X0325527Y0107567D03*
X0315527Y0107567D03*
X0305527Y0107567D03*
X0295527Y0107567D03*
X0335527Y0117567D03*
X0345527Y0117567D03*
X0355527Y0117567D03*
X0375527Y0117567D03*
X0375527Y0127567D03*
X0365527Y0127567D03*
X0355527Y0127567D03*
X0345527Y0127567D03*
X0335527Y0127567D03*
X0325527Y0127567D03*
X0315527Y0127567D03*
X0305527Y0127567D03*
X0295527Y0127567D03*
X0285527Y0127567D03*
X0275527Y0127567D03*
X0265527Y0127567D03*
X0255527Y0127567D03*
X0245527Y0127567D03*
X0235527Y0127567D03*
X0225527Y0127567D03*
X0215527Y0127567D03*
X0205527Y0127567D03*
X0195527Y0127567D03*
X0185527Y0127567D03*
X0175527Y0127567D03*
X0165527Y0127567D03*
X0155527Y0127567D03*
X0205527Y0117567D03*
X0205527Y0107567D03*
X0215527Y0107567D03*
X0225527Y0107567D03*
X0235527Y0107567D03*
X0235527Y0097567D03*
X0225527Y0097567D03*
X0215527Y0097567D03*
X0205527Y0097567D03*
X0195527Y0097567D03*
X0185527Y0097567D03*
X0175527Y0097567D03*
X0165527Y0097567D03*
X0155527Y0097567D03*
X0155527Y0107567D03*
X0165527Y0107567D03*
X0175527Y0107567D03*
X0185527Y0107567D03*
X0195527Y0107567D03*
X0205527Y0087567D03*
X0205527Y0077567D03*
X0205527Y0067567D03*
X0215527Y0067567D03*
X0225527Y0067567D03*
X0235527Y0067567D03*
X0245527Y0067567D03*
X0255527Y0067567D03*
X0265527Y0067567D03*
X0275527Y0067567D03*
X0285527Y0067567D03*
X0295527Y0067567D03*
X0305527Y0067567D03*
X0315527Y0067567D03*
X0325527Y0067567D03*
X0335527Y0067567D03*
X0345527Y0067567D03*
X0355527Y0067567D03*
X0365527Y0067567D03*
X0375527Y0067567D03*
X0195527Y0067567D03*
X0185527Y0067567D03*
X0175527Y0067567D03*
X0165527Y0067567D03*
X0155527Y0067567D03*
X0385527Y0127567D03*
D17*
X0385527Y0067567D03*
D18*
X0381457Y0158512D03*
X0371457Y0158512D03*
X0361457Y0158512D03*
X0346024Y0158512D03*
X0336024Y0158512D03*
X0326024Y0158512D03*
X0326024Y0178512D03*
X0336024Y0178512D03*
X0346024Y0178512D03*
X0361457Y0178512D03*
X0371457Y0178512D03*
X0381457Y0178512D03*
X0216102Y0178512D03*
X0206102Y0178512D03*
X0196102Y0178512D03*
X0180669Y0178512D03*
X0170669Y0178512D03*
X0160669Y0178512D03*
X0160669Y0158512D03*
X0170669Y0158512D03*
X0180669Y0158512D03*
X0196102Y0158512D03*
X0206102Y0158512D03*
X0216102Y0158512D03*
D19*
X0521968Y0132606D03*
X0531968Y0132606D03*
D20*
X0561968Y0132606D03*
X0591968Y0132606D03*
D21*
X0275472Y0052134D03*
X0275472Y0033630D03*
X0275472Y0015126D03*
D22*
X0036378Y0005657D02*
X0023253Y0018782D01*
X0034685Y0025177D02*
X0035128Y0025032D01*
X0042003Y0018157D01*
X0093253Y0018157D01*
X0070753Y0024407D02*
X0066378Y0020032D01*
X0050128Y0020032D01*
X0045128Y0025032D01*
X0044685Y0025177D01*
X0050128Y0030032D02*
X0054503Y0025657D01*
X0054685Y0025177D01*
X0050128Y0030032D02*
X0039503Y0030032D01*
X0039503Y0038157D01*
X0052003Y0050657D01*
X0174503Y0050657D01*
X0174503Y0054407D02*
X0178878Y0050032D01*
X0232003Y0050032D01*
X0236378Y0045657D01*
X0300753Y0045657D01*
X0308878Y0037532D01*
X0313878Y0037532D02*
X0292628Y0058782D01*
X0224503Y0058782D01*
X0221378Y0061907D01*
X0158253Y0061907D01*
X0154503Y0058157D01*
X0102628Y0058157D01*
X0101378Y0059407D01*
X0063253Y0056282D02*
X0058878Y0060657D01*
X0036378Y0060657D01*
X0016378Y0080657D01*
X0016378Y0153782D01*
X0024503Y0153782D01*
X0024634Y0154287D01*
X0029503Y0153782D02*
X0034503Y0153782D01*
X0034634Y0154287D01*
X0029503Y0153782D02*
X0029503Y0141282D01*
X0057003Y0113782D01*
X0063878Y0113782D01*
X0088878Y0088782D01*
X0090128Y0088782D01*
X0090753Y0089407D01*
X0157003Y0089407D01*
X0145128Y0086282D02*
X0206378Y0086282D01*
X0205527Y0087567D01*
X0205753Y0087532D01*
X0207003Y0086282D01*
X0243253Y0086282D01*
X0245753Y0088782D01*
X0364503Y0088782D01*
X0365753Y0087532D01*
X0365128Y0088782D01*
X0436378Y0088782D01*
X0437628Y0087532D01*
X0452003Y0085657D02*
X0453878Y0087532D01*
X0541378Y0087532D01*
X0553878Y0100032D01*
X0553878Y0106907D01*
X0524503Y0106907D01*
X0518878Y0112532D01*
X0518622Y0112634D01*
X0548622Y0112634D02*
X0550128Y0113782D01*
X0555753Y0108157D01*
X0555753Y0077532D01*
X0426378Y0077532D01*
X0425128Y0078782D01*
X0395128Y0078782D01*
X0385753Y0069407D01*
X0385753Y0068157D01*
X0385527Y0067567D01*
X0382628Y0061907D02*
X0381378Y0061907D01*
X0375753Y0067532D01*
X0375527Y0067567D01*
X0370128Y0068782D02*
X0370128Y0059407D01*
X0369503Y0058782D01*
X0369503Y0053782D01*
X0383253Y0053782D01*
X0396378Y0049407D02*
X0361378Y0049407D01*
X0361378Y0067532D01*
X0355128Y0073782D01*
X0271378Y0073782D01*
X0265753Y0068157D01*
X0265527Y0067567D01*
X0267003Y0071907D02*
X0270753Y0075657D01*
X0363253Y0075657D01*
X0370128Y0068782D01*
X0341378Y0071907D02*
X0341378Y0060032D01*
X0334503Y0057532D02*
X0328878Y0063157D01*
X0300128Y0063157D01*
X0295753Y0067532D01*
X0295527Y0067567D01*
X0289503Y0063782D02*
X0288878Y0063157D01*
X0240128Y0063157D01*
X0235753Y0067532D01*
X0235527Y0067567D01*
X0232628Y0060657D02*
X0225753Y0067532D01*
X0225527Y0067567D01*
X0232628Y0060657D02*
X0300128Y0060657D01*
X0319503Y0041282D01*
X0399503Y0041282D01*
X0397628Y0043157D02*
X0399503Y0045032D01*
X0457003Y0045032D01*
X0458878Y0043157D01*
X0518253Y0043157D01*
X0528878Y0032532D01*
X0528898Y0032201D01*
X0548898Y0032201D02*
X0549503Y0031907D01*
X0574503Y0006907D01*
X0595128Y0006907D01*
X0604503Y0016282D01*
X0604503Y0034407D01*
X0604921Y0034890D01*
X0605128Y0035032D01*
X0605128Y0092532D01*
X0604772Y0092819D01*
X0591386Y0073921D02*
X0591378Y0073782D01*
X0591378Y0016282D01*
X0591535Y0015992D01*
X0538878Y0020657D02*
X0538898Y0021201D01*
X0538878Y0020657D02*
X0523878Y0005657D01*
X0420753Y0005657D01*
X0415128Y0011282D01*
X0420753Y0023157D02*
X0423253Y0025657D01*
X0441378Y0025657D01*
X0442003Y0025032D01*
X0450753Y0025032D01*
X0440128Y0022532D02*
X0450753Y0011907D01*
X0517003Y0011907D01*
X0520128Y0015032D01*
X0523253Y0014407D02*
X0523253Y0020657D01*
X0519503Y0020657D01*
X0518898Y0021201D01*
X0523253Y0014407D02*
X0518878Y0010032D01*
X0477003Y0010032D01*
X0475753Y0008782D01*
X0477980Y0017252D02*
X0477628Y0017532D01*
X0468253Y0017532D01*
X0467823Y0017370D01*
X0437003Y0041907D02*
X0420128Y0025032D01*
X0305128Y0025032D01*
X0292003Y0038157D01*
X0292628Y0041282D02*
X0300128Y0033782D01*
X0396378Y0033782D01*
X0397628Y0043157D02*
X0321378Y0043157D01*
X0308253Y0056282D01*
X0318878Y0060032D02*
X0327628Y0051282D01*
X0339503Y0051282D01*
X0344503Y0046282D01*
X0349503Y0046282D02*
X0328253Y0067532D01*
X0325753Y0067532D01*
X0325527Y0067567D01*
X0341378Y0071907D02*
X0309503Y0071907D01*
X0305753Y0068157D01*
X0305527Y0067567D01*
X0311378Y0078782D02*
X0315753Y0083157D01*
X0361378Y0083157D01*
X0363878Y0080657D01*
X0383878Y0080657D01*
X0385128Y0079407D01*
X0387003Y0082532D02*
X0388878Y0080657D01*
X0465128Y0080657D01*
X0466378Y0079407D01*
X0477003Y0079407D01*
X0478253Y0080657D01*
X0467003Y0082532D02*
X0390753Y0082532D01*
X0389503Y0083782D01*
X0387003Y0082532D02*
X0364503Y0082532D01*
X0362003Y0085032D01*
X0297003Y0085032D01*
X0295753Y0083782D01*
X0284503Y0086907D02*
X0281378Y0083782D01*
X0275753Y0083782D01*
X0275488Y0083744D01*
X0284503Y0086907D02*
X0362628Y0086907D01*
X0365128Y0084407D01*
X0366378Y0084407D01*
X0368878Y0086907D01*
X0412003Y0086907D01*
X0413253Y0085657D01*
X0417003Y0093782D02*
X0499503Y0093782D01*
X0502003Y0096282D01*
X0533253Y0096282D01*
X0538253Y0101282D01*
X0538622Y0101634D01*
X0548622Y0112634D02*
X0548878Y0113157D01*
X0563878Y0128157D01*
X0601378Y0128157D01*
X0603878Y0130657D01*
X0608878Y0130657D01*
X0608976Y0130174D01*
X0603878Y0130657D02*
X0603878Y0176282D01*
X0604016Y0176701D01*
X0579409Y0176701D02*
X0578878Y0176282D01*
X0575753Y0176282D01*
X0575753Y0148782D01*
X0591378Y0133157D01*
X0591968Y0132606D01*
X0553878Y0165032D02*
X0542628Y0153782D01*
X0461378Y0153782D01*
X0457628Y0150032D01*
X0434503Y0150032D01*
X0433878Y0149407D01*
X0428878Y0145032D02*
X0430753Y0143157D01*
X0465128Y0143157D01*
X0472628Y0150657D01*
X0523253Y0150657D01*
X0511378Y0147532D02*
X0498878Y0135032D01*
X0470128Y0135032D01*
X0457003Y0121907D01*
X0455128Y0118782D02*
X0459503Y0118782D01*
X0472628Y0131907D01*
X0487628Y0131907D01*
X0455128Y0118782D02*
X0433253Y0096907D01*
X0417003Y0093782D02*
X0413253Y0097532D01*
X0402628Y0100657D02*
X0433878Y0131907D01*
X0402003Y0145032D02*
X0398253Y0141282D01*
X0316378Y0141282D01*
X0316378Y0154407D01*
X0302628Y0168157D01*
X0302628Y0163782D02*
X0282628Y0183782D01*
X0220128Y0183782D01*
X0218878Y0185032D01*
X0177003Y0185032D01*
X0170753Y0178782D01*
X0170669Y0178512D01*
X0173878Y0175032D02*
X0175753Y0176907D01*
X0175753Y0181282D01*
X0177003Y0181282D01*
X0178878Y0183157D01*
X0199503Y0183157D01*
X0200753Y0181907D01*
X0206378Y0178782D02*
X0210753Y0183157D01*
X0218253Y0183157D01*
X0219503Y0181907D01*
X0279503Y0181907D01*
X0302628Y0158782D01*
X0299503Y0155657D02*
X0322628Y0132532D01*
X0327628Y0132532D01*
X0330753Y0129407D01*
X0330753Y0122532D01*
X0378878Y0122532D01*
X0382628Y0115657D02*
X0400753Y0115657D01*
X0382628Y0115657D02*
X0382003Y0115032D01*
X0402628Y0100657D02*
X0332628Y0100657D01*
X0325753Y0107532D01*
X0325527Y0107567D01*
X0321378Y0107532D02*
X0321378Y0103782D01*
X0323253Y0103782D01*
X0325128Y0101907D01*
X0328878Y0101907D01*
X0333253Y0097532D01*
X0368878Y0097532D01*
X0325527Y0097567D02*
X0325128Y0098157D01*
X0321378Y0101907D01*
X0283878Y0101907D01*
X0275753Y0093782D01*
X0275488Y0093744D01*
X0275128Y0093782D01*
X0267003Y0101907D01*
X0245753Y0101907D01*
X0213878Y0101907D01*
X0212003Y0100032D01*
X0207628Y0100032D01*
X0205753Y0098157D01*
X0205527Y0097567D01*
X0210128Y0101907D02*
X0182628Y0101907D01*
X0185128Y0097532D02*
X0185527Y0097567D01*
X0185128Y0097532D02*
X0180128Y0092532D01*
X0114503Y0092532D01*
X0121378Y0095657D02*
X0122628Y0094407D01*
X0144503Y0094407D01*
X0152003Y0101907D01*
X0169503Y0101907D01*
X0175128Y0107532D01*
X0175527Y0107567D01*
X0155527Y0107567D02*
X0155128Y0107532D01*
X0145128Y0097532D01*
X0137003Y0097532D01*
X0128878Y0086907D02*
X0068878Y0086907D01*
X0066378Y0089407D01*
X0060128Y0089407D01*
X0055128Y0084407D01*
X0054685Y0084311D01*
X0064685Y0084311D02*
X0065128Y0083782D01*
X0128253Y0083782D01*
X0128878Y0083157D01*
X0133878Y0083157D01*
X0133878Y0084407D01*
X0133878Y0083157D02*
X0142003Y0083157D01*
X0145128Y0086282D01*
X0129503Y0086282D02*
X0128878Y0086907D01*
X0175128Y0073157D02*
X0207003Y0073157D01*
X0207628Y0073782D01*
X0215128Y0073782D01*
X0220128Y0078782D01*
X0209503Y0071907D02*
X0267003Y0071907D01*
X0221378Y0058157D02*
X0164503Y0058157D01*
X0160128Y0058782D02*
X0157628Y0056282D01*
X0063253Y0056282D01*
X0061378Y0054407D02*
X0174503Y0054407D01*
X0153878Y0061282D02*
X0147628Y0067532D01*
X0138878Y0067532D01*
X0112003Y0032532D02*
X0100128Y0044407D01*
X0061378Y0044407D01*
X0034685Y0036177D02*
X0034503Y0036282D01*
X0028878Y0041907D01*
X0014503Y0041907D01*
X0014503Y0154407D01*
X0019503Y0159407D01*
X0039503Y0159407D01*
X0039503Y0152532D01*
X0043253Y0148782D01*
X0120128Y0148782D01*
X0125753Y0143157D01*
X0130128Y0143157D01*
X0134503Y0147532D01*
X0155128Y0147532D01*
X0157003Y0145657D01*
X0198253Y0145657D01*
X0199503Y0146907D01*
X0201378Y0153782D02*
X0193253Y0153782D01*
X0188878Y0158157D01*
X0180753Y0158157D01*
X0180669Y0158512D01*
X0180128Y0158782D01*
X0170753Y0158782D01*
X0170669Y0158512D01*
X0175128Y0163157D02*
X0175128Y0165032D01*
X0173878Y0166282D01*
X0173878Y0175032D01*
X0153253Y0182532D02*
X0143253Y0172532D01*
X0029503Y0172532D01*
X0040787Y0184831D02*
X0041378Y0185032D01*
X0046378Y0190032D01*
X0070753Y0190032D01*
X0075753Y0185032D01*
X0075984Y0184752D01*
X0076378Y0184407D01*
X0082628Y0178157D01*
X0145128Y0178157D01*
X0152628Y0185657D01*
X0170128Y0185657D01*
X0171378Y0184407D01*
X0206102Y0178512D02*
X0206378Y0178782D01*
X0216378Y0158782D02*
X0233878Y0176282D01*
X0210753Y0161907D02*
X0209503Y0163157D01*
X0204503Y0163157D01*
X0200128Y0158782D01*
X0196378Y0158782D01*
X0196102Y0158512D01*
X0201378Y0153782D02*
X0205753Y0158157D01*
X0206102Y0158512D01*
X0206378Y0158782D01*
X0215753Y0158782D01*
X0216102Y0158512D01*
X0216378Y0158782D01*
X0211378Y0155032D02*
X0212628Y0153782D01*
X0265128Y0153782D01*
X0275753Y0143157D01*
X0303878Y0143157D01*
X0314503Y0132532D01*
X0320128Y0132532D01*
X0320128Y0125657D01*
X0317003Y0122532D01*
X0310128Y0122532D01*
X0295753Y0108157D01*
X0295527Y0107567D01*
X0305527Y0107567D02*
X0305753Y0108157D01*
X0309503Y0111907D01*
X0317003Y0111907D01*
X0321378Y0107532D01*
X0255128Y0120657D02*
X0208253Y0120657D01*
X0207003Y0121907D01*
X0168253Y0121907D01*
X0167003Y0120657D01*
X0162628Y0120657D01*
X0163878Y0123157D02*
X0163253Y0123782D01*
X0157628Y0123782D01*
X0155753Y0121907D01*
X0144503Y0121907D01*
X0138253Y0115657D01*
X0062628Y0115657D01*
X0035128Y0143157D01*
X0034634Y0143287D01*
X0044634Y0143287D02*
X0045128Y0143157D01*
X0050753Y0137532D01*
X0097628Y0137532D01*
X0101378Y0133782D01*
X0123878Y0133782D01*
X0124503Y0134407D01*
X0138253Y0134407D01*
X0142628Y0130032D01*
X0153253Y0130032D01*
X0155128Y0128157D01*
X0155527Y0127567D01*
X0167003Y0123157D02*
X0167628Y0123782D01*
X0171378Y0123782D01*
X0175128Y0127532D01*
X0175527Y0127567D01*
X0167003Y0123157D02*
X0163878Y0123157D01*
X0205527Y0127567D02*
X0205753Y0127532D01*
X0210753Y0122532D01*
X0248253Y0122532D01*
X0250128Y0124407D01*
X0255128Y0127532D02*
X0255128Y0120657D01*
X0255128Y0127532D02*
X0255527Y0127567D01*
X0268878Y0140657D02*
X0274503Y0140657D01*
X0268878Y0140657D02*
X0268253Y0141282D01*
X0278253Y0146282D02*
X0282003Y0146282D01*
X0278253Y0146282D02*
X0272003Y0152532D01*
X0276378Y0153157D02*
X0278878Y0150657D01*
X0282003Y0150657D01*
X0319503Y0148782D02*
X0322628Y0151907D01*
X0371378Y0151907D01*
X0367003Y0153782D02*
X0371378Y0158157D01*
X0371457Y0158512D01*
X0372003Y0158782D01*
X0381378Y0158782D01*
X0381457Y0158512D01*
X0393878Y0158157D02*
X0395753Y0160032D01*
X0465128Y0160032D01*
X0467003Y0158157D01*
X0522003Y0158157D01*
X0538937Y0166909D02*
X0539503Y0167532D01*
X0543878Y0171907D01*
X0553878Y0171907D01*
X0553878Y0165032D01*
X0548937Y0166909D02*
X0548878Y0166907D01*
X0543253Y0161282D01*
X0480753Y0161282D01*
X0478253Y0163782D01*
X0477795Y0164102D01*
X0477628Y0164407D01*
X0468253Y0164407D01*
X0467795Y0164339D01*
X0495128Y0164407D02*
X0503253Y0172532D01*
X0513878Y0172532D01*
X0518878Y0177532D01*
X0518937Y0177909D01*
X0464503Y0190032D02*
X0434503Y0190032D01*
X0433878Y0190657D01*
X0405128Y0190657D01*
X0401378Y0186907D01*
X0325128Y0186907D01*
X0317628Y0183157D02*
X0400753Y0183157D01*
X0405753Y0178157D01*
X0448878Y0178157D01*
X0367003Y0153782D02*
X0350753Y0153782D01*
X0346024Y0158512D01*
X0345753Y0158782D01*
X0336378Y0158782D01*
X0336024Y0158512D01*
X0402003Y0145032D02*
X0428878Y0145032D01*
X0460128Y0107532D02*
X0467628Y0100032D01*
X0468110Y0099535D01*
X0468253Y0099407D01*
X0477628Y0099407D01*
X0478150Y0099181D01*
X0497628Y0071282D02*
X0435128Y0071282D01*
X0432003Y0068157D01*
X0475753Y0046282D02*
X0482003Y0052532D01*
X0475753Y0046282D02*
X0458253Y0046282D01*
X0457628Y0046907D01*
X0397628Y0046907D01*
X0397003Y0046282D01*
X0387003Y0046282D01*
X0437003Y0041907D02*
X0437628Y0041907D01*
X0420753Y0023157D02*
X0304503Y0023157D01*
X0302003Y0025657D01*
X0293253Y0025657D01*
X0292003Y0026907D01*
X0295128Y0022532D02*
X0293878Y0021282D01*
X0241378Y0021282D01*
X0240128Y0020032D01*
X0223253Y0020032D01*
X0218253Y0025032D01*
X0217874Y0025177D01*
X0232628Y0030657D02*
X0237628Y0025657D01*
X0237874Y0025177D01*
X0238253Y0035657D02*
X0249503Y0024407D01*
X0267628Y0024407D01*
X0277628Y0008782D02*
X0283878Y0015032D01*
X0277628Y0008782D02*
X0173878Y0008782D01*
X0167003Y0015657D01*
X0127628Y0015657D01*
X0118878Y0024407D01*
X0070753Y0024407D01*
X0122628Y0005657D02*
X0127003Y0010032D01*
X0137628Y0010032D01*
X0138878Y0008782D01*
X0162628Y0008782D01*
X0166378Y0012532D01*
X0162003Y0011907D02*
X0125128Y0011907D01*
X0137003Y0006907D02*
X0297628Y0006907D01*
X0310753Y0020032D01*
X0292628Y0041282D02*
X0234503Y0041282D01*
X0235753Y0043782D02*
X0235128Y0044407D01*
X0226378Y0044407D01*
X0235753Y0043782D02*
X0293878Y0043782D01*
X0295128Y0042532D01*
X0238253Y0035657D02*
X0237874Y0036177D01*
X0232628Y0030657D02*
X0173878Y0030657D01*
X0164503Y0021282D01*
X0164201Y0020953D01*
X0163878Y0020657D01*
X0154503Y0020657D01*
X0154161Y0020598D01*
X0122628Y0005657D02*
X0036378Y0005657D01*
X0204503Y0053157D02*
X0208878Y0053157D01*
X0210753Y0055032D01*
X0205527Y0067567D02*
X0205753Y0068157D01*
X0209503Y0071907D01*
X0235753Y0097532D02*
X0242628Y0090657D01*
X0243253Y0090657D01*
X0230128Y0094407D02*
X0227628Y0091907D01*
X0188878Y0091907D01*
X0210128Y0101907D02*
X0210128Y0108157D01*
X0213878Y0111907D01*
X0248878Y0111907D01*
X0235753Y0097532D02*
X0235527Y0097567D01*
X0116378Y0145657D02*
X0067003Y0145657D01*
X0065128Y0143782D01*
X0064634Y0143287D01*
X0050753Y0160032D02*
X0045128Y0154407D01*
X0044634Y0154287D01*
X0050753Y0160032D02*
X0152628Y0160032D01*
X0163878Y0148782D01*
D23*
X0163878Y0148782D03*
X0153878Y0143782D03*
X0149503Y0133782D03*
X0122628Y0137532D03*
X0116378Y0145657D03*
X0125753Y0148157D03*
X0080753Y0152532D03*
X0074503Y0141282D03*
X0068253Y0133782D03*
X0052628Y0131282D03*
X0130753Y0109407D03*
X0138253Y0101907D03*
X0137003Y0097532D03*
X0121378Y0095657D03*
X0114503Y0092532D03*
X0129503Y0086282D03*
X0133878Y0084407D03*
X0114503Y0076907D03*
X0122003Y0073782D03*
X0146378Y0071282D03*
X0138878Y0067532D03*
X0153878Y0061282D03*
X0160128Y0058782D03*
X0164503Y0058157D03*
X0174503Y0050657D03*
X0204503Y0053157D03*
X0210753Y0055032D03*
X0221378Y0058157D03*
X0226378Y0044407D03*
X0234503Y0041282D03*
X0267628Y0024407D03*
X0292003Y0026907D03*
X0295128Y0022532D03*
X0310753Y0020032D03*
X0283878Y0015032D03*
X0308878Y0037532D03*
X0313878Y0037532D03*
X0295128Y0042532D03*
X0292003Y0038157D03*
X0344503Y0046282D03*
X0349503Y0046282D03*
X0334503Y0057532D03*
X0341378Y0060032D03*
X0318878Y0060032D03*
X0308253Y0056282D03*
X0289503Y0063782D03*
X0311378Y0078782D03*
X0295753Y0083782D03*
X0287003Y0083157D03*
X0283253Y0092532D03*
X0274503Y0101282D03*
X0245753Y0101907D03*
X0230128Y0094407D03*
X0243253Y0090657D03*
X0243253Y0086282D03*
X0220128Y0078782D03*
X0188878Y0091907D03*
X0182628Y0101907D03*
X0147003Y0112532D03*
X0147003Y0116907D03*
X0162628Y0120657D03*
X0186378Y0116907D03*
X0248878Y0111907D03*
X0250128Y0124407D03*
X0295753Y0137532D03*
X0282003Y0146282D03*
X0282003Y0150657D03*
X0276378Y0153157D03*
X0272003Y0152532D03*
X0299503Y0155657D03*
X0302628Y0158782D03*
X0302628Y0163782D03*
X0302628Y0168157D03*
X0317628Y0183157D03*
X0325128Y0186907D03*
X0320753Y0187532D03*
X0377003Y0190657D03*
X0417003Y0174407D03*
X0442003Y0174407D03*
X0448878Y0178157D03*
X0464503Y0190032D03*
X0435128Y0193782D03*
X0502003Y0181907D03*
X0495128Y0164407D03*
X0522003Y0158157D03*
X0523253Y0150657D03*
X0511378Y0147532D03*
X0487628Y0146907D03*
X0468253Y0141282D03*
X0458878Y0146907D03*
X0433878Y0149407D03*
X0403253Y0141282D03*
X0392628Y0137532D03*
X0396378Y0133782D03*
X0400753Y0133782D03*
X0385753Y0145032D03*
X0378253Y0151907D03*
X0371378Y0151907D03*
X0357628Y0148157D03*
X0352628Y0148157D03*
X0357628Y0137532D03*
X0319503Y0148782D03*
X0274503Y0140657D03*
X0268253Y0141282D03*
X0227628Y0140657D03*
X0223878Y0143782D03*
X0212628Y0143782D03*
X0199503Y0146907D03*
X0192003Y0150657D03*
X0211378Y0155032D03*
X0210753Y0161907D03*
X0175128Y0163157D03*
X0149503Y0165657D03*
X0145128Y0165032D03*
X0153253Y0182532D03*
X0171378Y0184407D03*
X0146378Y0190657D03*
X0139503Y0193782D03*
X0200753Y0181907D03*
X0221378Y0187532D03*
X0233878Y0176282D03*
X0393878Y0158157D03*
X0407628Y0165032D03*
X0433878Y0131907D03*
X0457003Y0121907D03*
X0484503Y0118782D03*
X0502003Y0125032D03*
X0487628Y0131907D03*
X0460128Y0107532D03*
X0433253Y0096907D03*
X0413253Y0097532D03*
X0403253Y0095032D03*
X0385753Y0096907D03*
X0368878Y0097532D03*
X0348878Y0104407D03*
X0355128Y0108157D03*
X0382003Y0115032D03*
X0400128Y0111282D03*
X0411378Y0114407D03*
X0400753Y0115657D03*
X0389503Y0121907D03*
X0378878Y0122532D03*
X0389503Y0104407D03*
X0365753Y0087532D03*
X0389503Y0083782D03*
X0385128Y0079407D03*
X0406378Y0075032D03*
X0392628Y0071282D03*
X0382628Y0061907D03*
X0373253Y0057532D03*
X0383253Y0053782D03*
X0396378Y0053782D03*
X0400753Y0050657D03*
X0396378Y0049407D03*
X0387003Y0046282D03*
X0399503Y0041282D03*
X0396378Y0033782D03*
X0437628Y0041907D03*
X0464503Y0050032D03*
X0468253Y0053782D03*
X0460753Y0057532D03*
X0482003Y0052532D03*
X0432003Y0068157D03*
X0423878Y0075032D03*
X0413253Y0085657D03*
X0437628Y0087532D03*
X0452003Y0085657D03*
X0467003Y0082532D03*
X0478253Y0080657D03*
X0497628Y0071282D03*
X0538878Y0066282D03*
X0502003Y0091282D03*
X0403253Y0058157D03*
X0493878Y0033157D03*
X0450753Y0025032D03*
X0440128Y0022532D03*
X0415128Y0011282D03*
X0475753Y0008782D03*
X0520128Y0015032D03*
X0175128Y0073157D03*
X0157003Y0089407D03*
X0068253Y0101282D03*
X0101378Y0059407D03*
X0117003Y0046907D03*
X0112003Y0032532D03*
X0093253Y0018157D03*
X0125128Y0011907D03*
X0137003Y0006907D03*
X0162003Y0011907D03*
X0166378Y0012532D03*
X0061378Y0044407D03*
X0061378Y0054407D03*
X0023253Y0018782D03*
X0029503Y0172532D03*
D24*
X0021378Y0168782D02*
X0008878Y0156282D01*
X0008878Y0025657D01*
X0024503Y0025657D01*
X0024685Y0025177D01*
X0024685Y0036177D02*
X0024503Y0036282D01*
X0012003Y0036282D01*
X0012003Y0155657D01*
X0018878Y0162532D01*
X0142628Y0162532D01*
X0145128Y0165032D01*
X0146378Y0168782D02*
X0149503Y0165657D01*
X0146378Y0168782D02*
X0021378Y0168782D01*
X0032628Y0185032D02*
X0038878Y0178782D01*
X0061378Y0178782D01*
X0065753Y0183157D01*
X0065984Y0183752D01*
X0039503Y0192532D02*
X0031378Y0184407D01*
X0030787Y0183831D01*
X0032628Y0185032D01*
X0039503Y0192532D02*
X0135753Y0192532D01*
X0141378Y0186907D01*
X0147628Y0186907D01*
X0148878Y0188157D01*
X0220753Y0188157D01*
X0221378Y0187532D01*
X0320753Y0187532D01*
X0376378Y0191282D02*
X0147003Y0191282D01*
X0146378Y0190657D01*
X0140128Y0194407D02*
X0139503Y0193782D01*
X0140128Y0194407D02*
X0434503Y0194407D01*
X0435128Y0193782D01*
X0467795Y0184339D02*
X0468253Y0184407D01*
X0473878Y0190032D01*
X0493878Y0190032D01*
X0502003Y0181907D01*
X0508878Y0178157D02*
X0508937Y0177909D01*
X0508878Y0178157D02*
X0483878Y0178157D01*
X0478253Y0183782D01*
X0477795Y0184102D01*
X0476378Y0174407D02*
X0467003Y0174407D01*
X0466795Y0174339D01*
X0466378Y0174407D01*
X0442003Y0174407D01*
X0417003Y0174407D02*
X0407628Y0165032D01*
X0416535Y0154772D02*
X0416378Y0154407D01*
X0415128Y0153157D01*
X0379503Y0153157D01*
X0378253Y0151907D01*
X0383878Y0148157D02*
X0385128Y0149407D01*
X0421378Y0149407D01*
X0426378Y0154407D01*
X0426535Y0154772D01*
X0425128Y0152532D01*
X0432003Y0145657D01*
X0457628Y0145657D01*
X0458878Y0146907D01*
X0467628Y0140657D02*
X0468253Y0141282D01*
X0467628Y0140657D02*
X0403878Y0140657D01*
X0403253Y0141282D01*
X0392628Y0137532D02*
X0357628Y0137532D01*
X0341378Y0133782D02*
X0396378Y0133782D01*
X0400753Y0133782D02*
X0400753Y0133157D01*
X0389503Y0121907D01*
X0404503Y0107532D02*
X0411378Y0114407D01*
X0400128Y0111282D02*
X0380753Y0111282D01*
X0379503Y0112532D01*
X0325753Y0112532D01*
X0325753Y0127532D01*
X0325527Y0127567D01*
X0315527Y0127567D02*
X0315128Y0128157D01*
X0309503Y0133782D01*
X0149503Y0133782D01*
X0151378Y0136907D02*
X0150753Y0137532D01*
X0122628Y0137532D01*
X0124503Y0140657D02*
X0123878Y0141282D01*
X0074503Y0141282D01*
X0068253Y0133782D02*
X0065753Y0131282D01*
X0052628Y0131282D01*
X0080753Y0152532D02*
X0103253Y0152532D01*
X0105128Y0154407D01*
X0105551Y0154693D01*
X0115551Y0154693D02*
X0115753Y0154407D01*
X0118253Y0154407D01*
X0123878Y0148782D01*
X0125128Y0148782D01*
X0125753Y0148157D01*
X0124503Y0140657D02*
X0151378Y0140657D01*
X0152003Y0140032D01*
X0227003Y0140032D01*
X0227628Y0140657D01*
X0223878Y0143782D02*
X0217003Y0150657D01*
X0192003Y0150657D01*
X0212003Y0143157D02*
X0212628Y0143782D01*
X0212003Y0143157D02*
X0154503Y0143157D01*
X0153878Y0143782D01*
X0151378Y0136907D02*
X0295128Y0136907D01*
X0295753Y0137532D01*
X0335527Y0127567D02*
X0335753Y0128157D01*
X0341378Y0133782D01*
X0352628Y0148157D02*
X0356378Y0144407D01*
X0385128Y0144407D01*
X0385753Y0145032D01*
X0383878Y0148157D02*
X0357628Y0148157D01*
X0392628Y0137532D02*
X0478253Y0137532D01*
X0487628Y0146907D01*
X0502003Y0125032D02*
X0473253Y0125032D01*
X0468253Y0120032D01*
X0468110Y0119535D01*
X0478150Y0119181D02*
X0478253Y0118782D01*
X0495128Y0101907D01*
X0508253Y0101907D01*
X0508622Y0101634D01*
X0532628Y0118782D02*
X0538253Y0113157D01*
X0538622Y0112634D01*
X0538878Y0113157D01*
X0556378Y0130657D01*
X0556378Y0183782D01*
X0545128Y0183782D01*
X0539503Y0178157D01*
X0538937Y0177909D01*
X0476795Y0174102D02*
X0476378Y0174407D01*
X0377003Y0190657D02*
X0376378Y0191282D01*
X0484503Y0118782D02*
X0532628Y0118782D01*
X0477150Y0109181D02*
X0477003Y0109407D01*
X0467628Y0109407D01*
X0467110Y0109535D01*
X0502003Y0091282D02*
X0365753Y0091282D01*
X0364503Y0092532D01*
X0283253Y0092532D01*
X0274503Y0101282D02*
X0260128Y0115657D01*
X0210753Y0115657D01*
X0207628Y0112532D01*
X0181378Y0112532D01*
X0181065Y0112220D01*
X0185128Y0108157D01*
X0185527Y0107567D01*
X0181065Y0112220D02*
X0180753Y0112532D01*
X0147003Y0112532D01*
X0147003Y0116907D02*
X0186378Y0116907D01*
X0138253Y0101907D02*
X0130753Y0109407D01*
X0068253Y0101282D02*
X0060753Y0101282D01*
X0055128Y0095657D01*
X0054685Y0095311D01*
X0024685Y0095311D02*
X0024503Y0095032D01*
X0018878Y0095032D01*
X0018878Y0081907D01*
X0022628Y0078157D01*
X0067003Y0078157D01*
X0069503Y0080657D01*
X0143253Y0080657D01*
X0145128Y0082532D01*
X0221378Y0082532D01*
X0225128Y0078782D01*
X0282628Y0078782D01*
X0287003Y0083157D01*
X0348878Y0104407D02*
X0349503Y0103782D01*
X0388878Y0103782D01*
X0389503Y0104407D01*
X0398253Y0108157D02*
X0398878Y0107532D01*
X0404503Y0107532D01*
X0398253Y0108157D02*
X0355128Y0108157D01*
X0385753Y0096907D02*
X0387628Y0095032D01*
X0403253Y0095032D01*
X0406378Y0075032D02*
X0423878Y0075032D01*
X0529503Y0075032D01*
X0538253Y0066282D01*
X0538878Y0066282D01*
X0570128Y0035032D01*
X0580128Y0035032D01*
X0580315Y0034890D01*
X0538878Y0032532D02*
X0538898Y0032201D01*
X0538878Y0032532D02*
X0513878Y0057532D01*
X0460753Y0057532D01*
X0423253Y0057532D01*
X0417003Y0063782D01*
X0416626Y0064181D01*
X0419503Y0071282D02*
X0426378Y0064407D01*
X0426626Y0064181D01*
X0419503Y0071282D02*
X0392628Y0071282D01*
X0403253Y0058157D02*
X0373878Y0058157D01*
X0373253Y0057532D01*
X0396378Y0053782D02*
X0397003Y0054407D01*
X0458878Y0054407D01*
X0459503Y0053782D01*
X0468253Y0053782D01*
X0464503Y0050032D02*
X0401378Y0050032D01*
X0400753Y0050657D01*
X0466823Y0027370D02*
X0467003Y0027532D01*
X0476378Y0027532D01*
X0476980Y0027252D01*
X0493878Y0033157D02*
X0497003Y0033157D01*
X0508878Y0021282D01*
X0508898Y0021201D01*
X0508898Y0032201D02*
X0508878Y0032532D01*
X0504503Y0036907D01*
X0478253Y0036907D01*
X0477980Y0037252D01*
X0227874Y0036177D02*
X0227628Y0036282D01*
X0217003Y0046907D01*
X0152003Y0046907D01*
X0144190Y0039095D01*
X0138253Y0045032D01*
X0118878Y0045032D01*
X0117003Y0046907D01*
X0116378Y0046907D01*
X0115128Y0048157D01*
X0055128Y0048157D01*
X0055128Y0036282D01*
X0054685Y0036177D01*
X0115551Y0064181D02*
X0115753Y0064407D01*
X0117628Y0064407D01*
X0124503Y0071282D01*
X0146378Y0071282D01*
X0144503Y0074407D02*
X0122628Y0074407D01*
X0122003Y0073782D01*
X0115128Y0077532D02*
X0114503Y0076907D01*
X0115128Y0077532D02*
X0143878Y0077532D01*
X0144503Y0078157D01*
X0155128Y0078157D01*
X0165128Y0068157D01*
X0165527Y0067567D01*
X0155527Y0067567D02*
X0155128Y0068157D01*
X0148253Y0075032D01*
X0145128Y0075032D01*
X0144503Y0074407D01*
X0164201Y0040953D02*
X0164503Y0040657D01*
X0165128Y0040032D01*
X0193878Y0040032D01*
X0197628Y0036282D01*
X0197874Y0036177D01*
X0163201Y0030953D02*
X0162628Y0030657D01*
X0153878Y0030657D01*
X0153161Y0030598D01*
X0152628Y0030657D01*
X0144190Y0039095D01*
M02*
