G75*
%MOIN*%
%OFA0B0*%
%FSLAX25Y25*%
%IPPOS*%
%LPD*%
%AMOC8*
5,1,8,0,0,1.08239X$1,22.5*
%
%ADD10C,0.00600*%
%ADD11C,0.00000*%
D10*
X0012363Y0001300D02*
X0383032Y0001300D01*
X0383347Y0001351D01*
X0383660Y0001410D01*
X0383971Y0001477D01*
X0384281Y0001551D01*
X0384589Y0001632D01*
X0384895Y0001721D01*
X0385198Y0001817D01*
X0385499Y0001921D01*
X0385798Y0002032D01*
X0386094Y0002150D01*
X0386387Y0002275D01*
X0386676Y0002407D01*
X0386963Y0002546D01*
X0387246Y0002692D01*
X0387525Y0002845D01*
X0387801Y0003004D01*
X0388073Y0003170D01*
X0388340Y0003343D01*
X0388604Y0003522D01*
X0388863Y0003707D01*
X0389117Y0003899D01*
X0389367Y0004096D01*
X0389612Y0004300D01*
X0389852Y0004510D01*
X0390087Y0004725D01*
X0390316Y0004946D01*
X0390540Y0005172D01*
X0390759Y0005404D01*
X0390972Y0005640D01*
X0391179Y0005882D01*
X0391380Y0006129D01*
X0391575Y0006381D01*
X0391764Y0006637D01*
X0391947Y0006898D01*
X0392123Y0007163D01*
X0392293Y0007432D01*
X0392457Y0007706D01*
X0392613Y0007983D01*
X0392763Y0008264D01*
X0392907Y0008548D01*
X0393043Y0008836D01*
X0393172Y0009127D01*
X0393294Y0009421D01*
X0393409Y0009718D01*
X0393517Y0010018D01*
X0393618Y0010320D01*
X0393711Y0010625D01*
X0393797Y0010931D01*
X0393875Y0011240D01*
X0393946Y0011551D01*
X0394010Y0011863D01*
X0394066Y0012176D01*
X0394114Y0012491D01*
X0394155Y0012807D01*
X0394188Y0013124D01*
X0394213Y0013441D01*
X0394231Y0013759D01*
X0394241Y0014077D01*
X0394243Y0014396D01*
X0394237Y0014714D01*
X0394224Y0015033D01*
X0394204Y0015350D01*
X0394175Y0015668D01*
X0394139Y0015984D01*
X0394095Y0016299D01*
X0394095Y0016300D02*
X0394095Y0297599D01*
X0394077Y0297818D01*
X0394053Y0298036D01*
X0394023Y0298254D01*
X0393989Y0298471D01*
X0393949Y0298687D01*
X0393904Y0298902D01*
X0393854Y0299116D01*
X0393799Y0299328D01*
X0393738Y0299540D01*
X0393673Y0299749D01*
X0393602Y0299957D01*
X0393526Y0300163D01*
X0393446Y0300368D01*
X0393360Y0300570D01*
X0393269Y0300770D01*
X0393174Y0300968D01*
X0393074Y0301164D01*
X0392969Y0301357D01*
X0392860Y0301547D01*
X0392746Y0301735D01*
X0392627Y0301920D01*
X0392504Y0302102D01*
X0392376Y0302281D01*
X0392245Y0302456D01*
X0392109Y0302629D01*
X0391969Y0302798D01*
X0391824Y0302964D01*
X0391676Y0303126D01*
X0391524Y0303284D01*
X0391368Y0303439D01*
X0391209Y0303590D01*
X0391046Y0303737D01*
X0390879Y0303880D01*
X0390709Y0304019D01*
X0390535Y0304154D01*
X0390359Y0304284D01*
X0390179Y0304410D01*
X0389996Y0304532D01*
X0389810Y0304649D01*
X0389622Y0304762D01*
X0389430Y0304870D01*
X0389237Y0304974D01*
X0389040Y0305073D01*
X0388842Y0305166D01*
X0388641Y0305256D01*
X0388438Y0305340D01*
X0388233Y0305419D01*
X0388027Y0305493D01*
X0387818Y0305562D01*
X0387608Y0305627D01*
X0387396Y0305686D01*
X0387183Y0305739D01*
X0386969Y0305788D01*
X0012363Y0305788D01*
X0012096Y0305785D01*
X0011829Y0305775D01*
X0011562Y0305759D01*
X0011295Y0305736D01*
X0011030Y0305707D01*
X0010765Y0305672D01*
X0010500Y0305630D01*
X0010238Y0305582D01*
X0009976Y0305527D01*
X0009715Y0305467D01*
X0009457Y0305399D01*
X0009200Y0305326D01*
X0008944Y0305247D01*
X0008691Y0305161D01*
X0008440Y0305069D01*
X0008191Y0304971D01*
X0007945Y0304867D01*
X0007701Y0304758D01*
X0007460Y0304642D01*
X0007222Y0304521D01*
X0006987Y0304394D01*
X0006755Y0304261D01*
X0006526Y0304123D01*
X0006300Y0303979D01*
X0006078Y0303830D01*
X0005860Y0303675D01*
X0005646Y0303515D01*
X0005436Y0303351D01*
X0005229Y0303181D01*
X0005027Y0303006D01*
X0004829Y0302826D01*
X0004635Y0302642D01*
X0004446Y0302453D01*
X0004262Y0302259D01*
X0004082Y0302061D01*
X0003907Y0301859D01*
X0003737Y0301652D01*
X0003573Y0301442D01*
X0003413Y0301228D01*
X0003258Y0301010D01*
X0003109Y0300788D01*
X0002965Y0300562D01*
X0002827Y0300333D01*
X0002694Y0300101D01*
X0002567Y0299866D01*
X0002446Y0299628D01*
X0002330Y0299387D01*
X0002221Y0299143D01*
X0002117Y0298897D01*
X0002019Y0298648D01*
X0001927Y0298397D01*
X0001841Y0298144D01*
X0001762Y0297888D01*
X0001689Y0297631D01*
X0001621Y0297373D01*
X0001561Y0297112D01*
X0001506Y0296850D01*
X0001458Y0296588D01*
X0001416Y0296323D01*
X0001381Y0296058D01*
X0001352Y0295793D01*
X0001329Y0295526D01*
X0001313Y0295259D01*
X0001303Y0294992D01*
X0001300Y0294725D01*
X0001300Y0012363D01*
X0001303Y0012096D01*
X0001313Y0011829D01*
X0001329Y0011562D01*
X0001352Y0011295D01*
X0001381Y0011030D01*
X0001416Y0010765D01*
X0001458Y0010500D01*
X0001506Y0010238D01*
X0001561Y0009976D01*
X0001621Y0009715D01*
X0001689Y0009457D01*
X0001762Y0009200D01*
X0001841Y0008944D01*
X0001927Y0008691D01*
X0002019Y0008440D01*
X0002117Y0008191D01*
X0002221Y0007945D01*
X0002330Y0007701D01*
X0002446Y0007460D01*
X0002567Y0007222D01*
X0002694Y0006987D01*
X0002827Y0006755D01*
X0002965Y0006526D01*
X0003109Y0006300D01*
X0003258Y0006078D01*
X0003413Y0005860D01*
X0003573Y0005646D01*
X0003737Y0005436D01*
X0003907Y0005229D01*
X0004082Y0005027D01*
X0004262Y0004829D01*
X0004446Y0004635D01*
X0004635Y0004446D01*
X0004829Y0004262D01*
X0005027Y0004082D01*
X0005229Y0003907D01*
X0005436Y0003737D01*
X0005646Y0003573D01*
X0005860Y0003413D01*
X0006078Y0003258D01*
X0006300Y0003109D01*
X0006526Y0002965D01*
X0006755Y0002827D01*
X0006987Y0002694D01*
X0007222Y0002567D01*
X0007460Y0002446D01*
X0007701Y0002330D01*
X0007945Y0002221D01*
X0008191Y0002117D01*
X0008440Y0002019D01*
X0008691Y0001927D01*
X0008944Y0001841D01*
X0009200Y0001762D01*
X0009457Y0001689D01*
X0009715Y0001621D01*
X0009976Y0001561D01*
X0010238Y0001506D01*
X0010500Y0001458D01*
X0010765Y0001416D01*
X0011030Y0001381D01*
X0011295Y0001352D01*
X0011562Y0001329D01*
X0011829Y0001313D01*
X0012096Y0001303D01*
X0012363Y0001300D01*
D11*
X0009174Y0017048D02*
X0009176Y0017241D01*
X0009183Y0017434D01*
X0009195Y0017627D01*
X0009212Y0017820D01*
X0009233Y0018012D01*
X0009259Y0018203D01*
X0009290Y0018394D01*
X0009325Y0018584D01*
X0009365Y0018773D01*
X0009410Y0018961D01*
X0009459Y0019148D01*
X0009513Y0019334D01*
X0009571Y0019518D01*
X0009634Y0019701D01*
X0009702Y0019882D01*
X0009773Y0020061D01*
X0009850Y0020239D01*
X0009930Y0020415D01*
X0010015Y0020588D01*
X0010104Y0020760D01*
X0010197Y0020929D01*
X0010294Y0021096D01*
X0010396Y0021261D01*
X0010501Y0021423D01*
X0010610Y0021582D01*
X0010724Y0021739D01*
X0010841Y0021892D01*
X0010961Y0022043D01*
X0011086Y0022191D01*
X0011214Y0022336D01*
X0011345Y0022477D01*
X0011480Y0022616D01*
X0011619Y0022751D01*
X0011760Y0022882D01*
X0011905Y0023010D01*
X0012053Y0023135D01*
X0012204Y0023255D01*
X0012357Y0023372D01*
X0012514Y0023486D01*
X0012673Y0023595D01*
X0012835Y0023700D01*
X0013000Y0023802D01*
X0013167Y0023899D01*
X0013336Y0023992D01*
X0013508Y0024081D01*
X0013681Y0024166D01*
X0013857Y0024246D01*
X0014035Y0024323D01*
X0014214Y0024394D01*
X0014395Y0024462D01*
X0014578Y0024525D01*
X0014762Y0024583D01*
X0014948Y0024637D01*
X0015135Y0024686D01*
X0015323Y0024731D01*
X0015512Y0024771D01*
X0015702Y0024806D01*
X0015893Y0024837D01*
X0016084Y0024863D01*
X0016276Y0024884D01*
X0016469Y0024901D01*
X0016662Y0024913D01*
X0016855Y0024920D01*
X0017048Y0024922D01*
X0017241Y0024920D01*
X0017434Y0024913D01*
X0017627Y0024901D01*
X0017820Y0024884D01*
X0018012Y0024863D01*
X0018203Y0024837D01*
X0018394Y0024806D01*
X0018584Y0024771D01*
X0018773Y0024731D01*
X0018961Y0024686D01*
X0019148Y0024637D01*
X0019334Y0024583D01*
X0019518Y0024525D01*
X0019701Y0024462D01*
X0019882Y0024394D01*
X0020061Y0024323D01*
X0020239Y0024246D01*
X0020415Y0024166D01*
X0020588Y0024081D01*
X0020760Y0023992D01*
X0020929Y0023899D01*
X0021096Y0023802D01*
X0021261Y0023700D01*
X0021423Y0023595D01*
X0021582Y0023486D01*
X0021739Y0023372D01*
X0021892Y0023255D01*
X0022043Y0023135D01*
X0022191Y0023010D01*
X0022336Y0022882D01*
X0022477Y0022751D01*
X0022616Y0022616D01*
X0022751Y0022477D01*
X0022882Y0022336D01*
X0023010Y0022191D01*
X0023135Y0022043D01*
X0023255Y0021892D01*
X0023372Y0021739D01*
X0023486Y0021582D01*
X0023595Y0021423D01*
X0023700Y0021261D01*
X0023802Y0021096D01*
X0023899Y0020929D01*
X0023992Y0020760D01*
X0024081Y0020588D01*
X0024166Y0020415D01*
X0024246Y0020239D01*
X0024323Y0020061D01*
X0024394Y0019882D01*
X0024462Y0019701D01*
X0024525Y0019518D01*
X0024583Y0019334D01*
X0024637Y0019148D01*
X0024686Y0018961D01*
X0024731Y0018773D01*
X0024771Y0018584D01*
X0024806Y0018394D01*
X0024837Y0018203D01*
X0024863Y0018012D01*
X0024884Y0017820D01*
X0024901Y0017627D01*
X0024913Y0017434D01*
X0024920Y0017241D01*
X0024922Y0017048D01*
X0024920Y0016855D01*
X0024913Y0016662D01*
X0024901Y0016469D01*
X0024884Y0016276D01*
X0024863Y0016084D01*
X0024837Y0015893D01*
X0024806Y0015702D01*
X0024771Y0015512D01*
X0024731Y0015323D01*
X0024686Y0015135D01*
X0024637Y0014948D01*
X0024583Y0014762D01*
X0024525Y0014578D01*
X0024462Y0014395D01*
X0024394Y0014214D01*
X0024323Y0014035D01*
X0024246Y0013857D01*
X0024166Y0013681D01*
X0024081Y0013508D01*
X0023992Y0013336D01*
X0023899Y0013167D01*
X0023802Y0013000D01*
X0023700Y0012835D01*
X0023595Y0012673D01*
X0023486Y0012514D01*
X0023372Y0012357D01*
X0023255Y0012204D01*
X0023135Y0012053D01*
X0023010Y0011905D01*
X0022882Y0011760D01*
X0022751Y0011619D01*
X0022616Y0011480D01*
X0022477Y0011345D01*
X0022336Y0011214D01*
X0022191Y0011086D01*
X0022043Y0010961D01*
X0021892Y0010841D01*
X0021739Y0010724D01*
X0021582Y0010610D01*
X0021423Y0010501D01*
X0021261Y0010396D01*
X0021096Y0010294D01*
X0020929Y0010197D01*
X0020760Y0010104D01*
X0020588Y0010015D01*
X0020415Y0009930D01*
X0020239Y0009850D01*
X0020061Y0009773D01*
X0019882Y0009702D01*
X0019701Y0009634D01*
X0019518Y0009571D01*
X0019334Y0009513D01*
X0019148Y0009459D01*
X0018961Y0009410D01*
X0018773Y0009365D01*
X0018584Y0009325D01*
X0018394Y0009290D01*
X0018203Y0009259D01*
X0018012Y0009233D01*
X0017820Y0009212D01*
X0017627Y0009195D01*
X0017434Y0009183D01*
X0017241Y0009176D01*
X0017048Y0009174D01*
X0016855Y0009176D01*
X0016662Y0009183D01*
X0016469Y0009195D01*
X0016276Y0009212D01*
X0016084Y0009233D01*
X0015893Y0009259D01*
X0015702Y0009290D01*
X0015512Y0009325D01*
X0015323Y0009365D01*
X0015135Y0009410D01*
X0014948Y0009459D01*
X0014762Y0009513D01*
X0014578Y0009571D01*
X0014395Y0009634D01*
X0014214Y0009702D01*
X0014035Y0009773D01*
X0013857Y0009850D01*
X0013681Y0009930D01*
X0013508Y0010015D01*
X0013336Y0010104D01*
X0013167Y0010197D01*
X0013000Y0010294D01*
X0012835Y0010396D01*
X0012673Y0010501D01*
X0012514Y0010610D01*
X0012357Y0010724D01*
X0012204Y0010841D01*
X0012053Y0010961D01*
X0011905Y0011086D01*
X0011760Y0011214D01*
X0011619Y0011345D01*
X0011480Y0011480D01*
X0011345Y0011619D01*
X0011214Y0011760D01*
X0011086Y0011905D01*
X0010961Y0012053D01*
X0010841Y0012204D01*
X0010724Y0012357D01*
X0010610Y0012514D01*
X0010501Y0012673D01*
X0010396Y0012835D01*
X0010294Y0013000D01*
X0010197Y0013167D01*
X0010104Y0013336D01*
X0010015Y0013508D01*
X0009930Y0013681D01*
X0009850Y0013857D01*
X0009773Y0014035D01*
X0009702Y0014214D01*
X0009634Y0014395D01*
X0009571Y0014578D01*
X0009513Y0014762D01*
X0009459Y0014948D01*
X0009410Y0015135D01*
X0009365Y0015323D01*
X0009325Y0015512D01*
X0009290Y0015702D01*
X0009259Y0015893D01*
X0009233Y0016084D01*
X0009212Y0016276D01*
X0009195Y0016469D01*
X0009183Y0016662D01*
X0009176Y0016855D01*
X0009174Y0017048D01*
X0117993Y0197796D02*
X0117995Y0197893D01*
X0118001Y0197990D01*
X0118011Y0198086D01*
X0118025Y0198182D01*
X0118043Y0198278D01*
X0118064Y0198372D01*
X0118090Y0198466D01*
X0118119Y0198558D01*
X0118153Y0198649D01*
X0118189Y0198739D01*
X0118230Y0198827D01*
X0118274Y0198913D01*
X0118322Y0198998D01*
X0118373Y0199080D01*
X0118427Y0199161D01*
X0118485Y0199239D01*
X0118546Y0199314D01*
X0118609Y0199387D01*
X0118676Y0199458D01*
X0118746Y0199525D01*
X0118818Y0199590D01*
X0118893Y0199651D01*
X0118971Y0199710D01*
X0119050Y0199765D01*
X0119132Y0199817D01*
X0119216Y0199865D01*
X0119302Y0199910D01*
X0119390Y0199952D01*
X0119479Y0199990D01*
X0119570Y0200024D01*
X0119662Y0200054D01*
X0119755Y0200081D01*
X0119850Y0200103D01*
X0119945Y0200122D01*
X0120041Y0200137D01*
X0120137Y0200148D01*
X0120234Y0200155D01*
X0120331Y0200158D01*
X0120428Y0200157D01*
X0120525Y0200152D01*
X0120621Y0200143D01*
X0120717Y0200130D01*
X0120813Y0200113D01*
X0120908Y0200092D01*
X0121001Y0200068D01*
X0121094Y0200039D01*
X0121186Y0200007D01*
X0121276Y0199971D01*
X0121364Y0199932D01*
X0121451Y0199888D01*
X0121536Y0199842D01*
X0121619Y0199791D01*
X0121700Y0199738D01*
X0121778Y0199681D01*
X0121855Y0199621D01*
X0121928Y0199558D01*
X0121999Y0199492D01*
X0122067Y0199423D01*
X0122133Y0199351D01*
X0122195Y0199277D01*
X0122254Y0199200D01*
X0122310Y0199121D01*
X0122363Y0199039D01*
X0122413Y0198956D01*
X0122458Y0198870D01*
X0122501Y0198783D01*
X0122540Y0198694D01*
X0122575Y0198604D01*
X0122606Y0198512D01*
X0122633Y0198419D01*
X0122657Y0198325D01*
X0122677Y0198230D01*
X0122693Y0198134D01*
X0122705Y0198038D01*
X0122713Y0197941D01*
X0122717Y0197844D01*
X0122717Y0197748D01*
X0122713Y0197651D01*
X0122705Y0197554D01*
X0122693Y0197458D01*
X0122677Y0197362D01*
X0122657Y0197267D01*
X0122633Y0197173D01*
X0122606Y0197080D01*
X0122575Y0196988D01*
X0122540Y0196898D01*
X0122501Y0196809D01*
X0122458Y0196722D01*
X0122413Y0196636D01*
X0122363Y0196553D01*
X0122310Y0196471D01*
X0122254Y0196392D01*
X0122195Y0196315D01*
X0122133Y0196241D01*
X0122067Y0196169D01*
X0121999Y0196100D01*
X0121928Y0196034D01*
X0121855Y0195971D01*
X0121778Y0195911D01*
X0121700Y0195854D01*
X0121619Y0195801D01*
X0121536Y0195750D01*
X0121451Y0195704D01*
X0121364Y0195660D01*
X0121276Y0195621D01*
X0121186Y0195585D01*
X0121094Y0195553D01*
X0121001Y0195524D01*
X0120908Y0195500D01*
X0120813Y0195479D01*
X0120717Y0195462D01*
X0120621Y0195449D01*
X0120525Y0195440D01*
X0120428Y0195435D01*
X0120331Y0195434D01*
X0120234Y0195437D01*
X0120137Y0195444D01*
X0120041Y0195455D01*
X0119945Y0195470D01*
X0119850Y0195489D01*
X0119755Y0195511D01*
X0119662Y0195538D01*
X0119570Y0195568D01*
X0119479Y0195602D01*
X0119390Y0195640D01*
X0119302Y0195682D01*
X0119216Y0195727D01*
X0119132Y0195775D01*
X0119050Y0195827D01*
X0118971Y0195882D01*
X0118893Y0195941D01*
X0118818Y0196002D01*
X0118746Y0196067D01*
X0118676Y0196134D01*
X0118609Y0196205D01*
X0118546Y0196278D01*
X0118485Y0196353D01*
X0118427Y0196431D01*
X0118373Y0196512D01*
X0118322Y0196594D01*
X0118274Y0196679D01*
X0118230Y0196765D01*
X0118189Y0196853D01*
X0118153Y0196943D01*
X0118119Y0197034D01*
X0118090Y0197126D01*
X0118064Y0197220D01*
X0118043Y0197314D01*
X0118025Y0197410D01*
X0118011Y0197506D01*
X0118001Y0197602D01*
X0117995Y0197699D01*
X0117993Y0197796D01*
X0117993Y0206418D02*
X0117995Y0206515D01*
X0118001Y0206612D01*
X0118011Y0206708D01*
X0118025Y0206804D01*
X0118043Y0206900D01*
X0118064Y0206994D01*
X0118090Y0207088D01*
X0118119Y0207180D01*
X0118153Y0207271D01*
X0118189Y0207361D01*
X0118230Y0207449D01*
X0118274Y0207535D01*
X0118322Y0207620D01*
X0118373Y0207702D01*
X0118427Y0207783D01*
X0118485Y0207861D01*
X0118546Y0207936D01*
X0118609Y0208009D01*
X0118676Y0208080D01*
X0118746Y0208147D01*
X0118818Y0208212D01*
X0118893Y0208273D01*
X0118971Y0208332D01*
X0119050Y0208387D01*
X0119132Y0208439D01*
X0119216Y0208487D01*
X0119302Y0208532D01*
X0119390Y0208574D01*
X0119479Y0208612D01*
X0119570Y0208646D01*
X0119662Y0208676D01*
X0119755Y0208703D01*
X0119850Y0208725D01*
X0119945Y0208744D01*
X0120041Y0208759D01*
X0120137Y0208770D01*
X0120234Y0208777D01*
X0120331Y0208780D01*
X0120428Y0208779D01*
X0120525Y0208774D01*
X0120621Y0208765D01*
X0120717Y0208752D01*
X0120813Y0208735D01*
X0120908Y0208714D01*
X0121001Y0208690D01*
X0121094Y0208661D01*
X0121186Y0208629D01*
X0121276Y0208593D01*
X0121364Y0208554D01*
X0121451Y0208510D01*
X0121536Y0208464D01*
X0121619Y0208413D01*
X0121700Y0208360D01*
X0121778Y0208303D01*
X0121855Y0208243D01*
X0121928Y0208180D01*
X0121999Y0208114D01*
X0122067Y0208045D01*
X0122133Y0207973D01*
X0122195Y0207899D01*
X0122254Y0207822D01*
X0122310Y0207743D01*
X0122363Y0207661D01*
X0122413Y0207578D01*
X0122458Y0207492D01*
X0122501Y0207405D01*
X0122540Y0207316D01*
X0122575Y0207226D01*
X0122606Y0207134D01*
X0122633Y0207041D01*
X0122657Y0206947D01*
X0122677Y0206852D01*
X0122693Y0206756D01*
X0122705Y0206660D01*
X0122713Y0206563D01*
X0122717Y0206466D01*
X0122717Y0206370D01*
X0122713Y0206273D01*
X0122705Y0206176D01*
X0122693Y0206080D01*
X0122677Y0205984D01*
X0122657Y0205889D01*
X0122633Y0205795D01*
X0122606Y0205702D01*
X0122575Y0205610D01*
X0122540Y0205520D01*
X0122501Y0205431D01*
X0122458Y0205344D01*
X0122413Y0205258D01*
X0122363Y0205175D01*
X0122310Y0205093D01*
X0122254Y0205014D01*
X0122195Y0204937D01*
X0122133Y0204863D01*
X0122067Y0204791D01*
X0121999Y0204722D01*
X0121928Y0204656D01*
X0121855Y0204593D01*
X0121778Y0204533D01*
X0121700Y0204476D01*
X0121619Y0204423D01*
X0121536Y0204372D01*
X0121451Y0204326D01*
X0121364Y0204282D01*
X0121276Y0204243D01*
X0121186Y0204207D01*
X0121094Y0204175D01*
X0121001Y0204146D01*
X0120908Y0204122D01*
X0120813Y0204101D01*
X0120717Y0204084D01*
X0120621Y0204071D01*
X0120525Y0204062D01*
X0120428Y0204057D01*
X0120331Y0204056D01*
X0120234Y0204059D01*
X0120137Y0204066D01*
X0120041Y0204077D01*
X0119945Y0204092D01*
X0119850Y0204111D01*
X0119755Y0204133D01*
X0119662Y0204160D01*
X0119570Y0204190D01*
X0119479Y0204224D01*
X0119390Y0204262D01*
X0119302Y0204304D01*
X0119216Y0204349D01*
X0119132Y0204397D01*
X0119050Y0204449D01*
X0118971Y0204504D01*
X0118893Y0204563D01*
X0118818Y0204624D01*
X0118746Y0204689D01*
X0118676Y0204756D01*
X0118609Y0204827D01*
X0118546Y0204900D01*
X0118485Y0204975D01*
X0118427Y0205053D01*
X0118373Y0205134D01*
X0118322Y0205216D01*
X0118274Y0205301D01*
X0118230Y0205387D01*
X0118189Y0205475D01*
X0118153Y0205565D01*
X0118119Y0205656D01*
X0118090Y0205748D01*
X0118064Y0205842D01*
X0118043Y0205936D01*
X0118025Y0206032D01*
X0118011Y0206128D01*
X0118001Y0206224D01*
X0117995Y0206321D01*
X0117993Y0206418D01*
X0132914Y0202284D02*
X0132916Y0202415D01*
X0132922Y0202547D01*
X0132932Y0202678D01*
X0132946Y0202809D01*
X0132964Y0202939D01*
X0132986Y0203068D01*
X0133011Y0203197D01*
X0133041Y0203325D01*
X0133075Y0203452D01*
X0133112Y0203579D01*
X0133153Y0203703D01*
X0133198Y0203827D01*
X0133247Y0203949D01*
X0133299Y0204070D01*
X0133355Y0204188D01*
X0133415Y0204306D01*
X0133478Y0204421D01*
X0133545Y0204534D01*
X0133615Y0204646D01*
X0133688Y0204755D01*
X0133764Y0204861D01*
X0133844Y0204966D01*
X0133927Y0205068D01*
X0134013Y0205167D01*
X0134102Y0205264D01*
X0134194Y0205358D01*
X0134289Y0205449D01*
X0134386Y0205538D01*
X0134486Y0205623D01*
X0134589Y0205705D01*
X0134694Y0205784D01*
X0134801Y0205860D01*
X0134911Y0205932D01*
X0135023Y0206001D01*
X0135137Y0206067D01*
X0135252Y0206129D01*
X0135370Y0206188D01*
X0135489Y0206243D01*
X0135610Y0206295D01*
X0135733Y0206342D01*
X0135857Y0206386D01*
X0135982Y0206427D01*
X0136108Y0206463D01*
X0136236Y0206496D01*
X0136364Y0206524D01*
X0136493Y0206549D01*
X0136623Y0206570D01*
X0136753Y0206587D01*
X0136884Y0206600D01*
X0137015Y0206609D01*
X0137146Y0206614D01*
X0137278Y0206615D01*
X0137409Y0206612D01*
X0137541Y0206605D01*
X0137672Y0206594D01*
X0137802Y0206579D01*
X0137932Y0206560D01*
X0138062Y0206537D01*
X0138190Y0206511D01*
X0138318Y0206480D01*
X0138445Y0206445D01*
X0138571Y0206407D01*
X0138695Y0206365D01*
X0138819Y0206319D01*
X0138940Y0206269D01*
X0139060Y0206216D01*
X0139179Y0206159D01*
X0139296Y0206099D01*
X0139410Y0206035D01*
X0139523Y0205967D01*
X0139634Y0205896D01*
X0139743Y0205822D01*
X0139849Y0205745D01*
X0139953Y0205664D01*
X0140054Y0205581D01*
X0140153Y0205494D01*
X0140249Y0205404D01*
X0140342Y0205311D01*
X0140433Y0205216D01*
X0140520Y0205118D01*
X0140605Y0205017D01*
X0140686Y0204914D01*
X0140764Y0204808D01*
X0140839Y0204700D01*
X0140911Y0204590D01*
X0140979Y0204478D01*
X0141044Y0204364D01*
X0141105Y0204247D01*
X0141163Y0204129D01*
X0141217Y0204009D01*
X0141268Y0203888D01*
X0141315Y0203765D01*
X0141358Y0203641D01*
X0141397Y0203516D01*
X0141433Y0203389D01*
X0141464Y0203261D01*
X0141492Y0203133D01*
X0141516Y0203004D01*
X0141536Y0202874D01*
X0141552Y0202743D01*
X0141564Y0202612D01*
X0141572Y0202481D01*
X0141576Y0202350D01*
X0141576Y0202218D01*
X0141572Y0202087D01*
X0141564Y0201956D01*
X0141552Y0201825D01*
X0141536Y0201694D01*
X0141516Y0201564D01*
X0141492Y0201435D01*
X0141464Y0201307D01*
X0141433Y0201179D01*
X0141397Y0201052D01*
X0141358Y0200927D01*
X0141315Y0200803D01*
X0141268Y0200680D01*
X0141217Y0200559D01*
X0141163Y0200439D01*
X0141105Y0200321D01*
X0141044Y0200204D01*
X0140979Y0200090D01*
X0140911Y0199978D01*
X0140839Y0199868D01*
X0140764Y0199760D01*
X0140686Y0199654D01*
X0140605Y0199551D01*
X0140520Y0199450D01*
X0140433Y0199352D01*
X0140342Y0199257D01*
X0140249Y0199164D01*
X0140153Y0199074D01*
X0140054Y0198987D01*
X0139953Y0198904D01*
X0139849Y0198823D01*
X0139743Y0198746D01*
X0139634Y0198672D01*
X0139523Y0198601D01*
X0139411Y0198533D01*
X0139296Y0198469D01*
X0139179Y0198409D01*
X0139060Y0198352D01*
X0138940Y0198299D01*
X0138819Y0198249D01*
X0138695Y0198203D01*
X0138571Y0198161D01*
X0138445Y0198123D01*
X0138318Y0198088D01*
X0138190Y0198057D01*
X0138062Y0198031D01*
X0137932Y0198008D01*
X0137802Y0197989D01*
X0137672Y0197974D01*
X0137541Y0197963D01*
X0137409Y0197956D01*
X0137278Y0197953D01*
X0137146Y0197954D01*
X0137015Y0197959D01*
X0136884Y0197968D01*
X0136753Y0197981D01*
X0136623Y0197998D01*
X0136493Y0198019D01*
X0136364Y0198044D01*
X0136236Y0198072D01*
X0136108Y0198105D01*
X0135982Y0198141D01*
X0135857Y0198182D01*
X0135733Y0198226D01*
X0135610Y0198273D01*
X0135489Y0198325D01*
X0135370Y0198380D01*
X0135252Y0198439D01*
X0135137Y0198501D01*
X0135023Y0198567D01*
X0134911Y0198636D01*
X0134801Y0198708D01*
X0134694Y0198784D01*
X0134589Y0198863D01*
X0134486Y0198945D01*
X0134386Y0199030D01*
X0134289Y0199119D01*
X0134194Y0199210D01*
X0134102Y0199304D01*
X0134013Y0199401D01*
X0133927Y0199500D01*
X0133844Y0199602D01*
X0133764Y0199707D01*
X0133688Y0199813D01*
X0133615Y0199922D01*
X0133545Y0200034D01*
X0133478Y0200147D01*
X0133415Y0200262D01*
X0133355Y0200380D01*
X0133299Y0200498D01*
X0133247Y0200619D01*
X0133198Y0200741D01*
X0133153Y0200865D01*
X0133112Y0200989D01*
X0133075Y0201116D01*
X0133041Y0201243D01*
X0133011Y0201371D01*
X0132986Y0201500D01*
X0132964Y0201629D01*
X0132946Y0201759D01*
X0132932Y0201890D01*
X0132922Y0202021D01*
X0132916Y0202153D01*
X0132914Y0202284D01*
X0157363Y0206418D02*
X0157365Y0206515D01*
X0157371Y0206612D01*
X0157381Y0206708D01*
X0157395Y0206804D01*
X0157413Y0206900D01*
X0157434Y0206994D01*
X0157460Y0207088D01*
X0157489Y0207180D01*
X0157523Y0207271D01*
X0157559Y0207361D01*
X0157600Y0207449D01*
X0157644Y0207535D01*
X0157692Y0207620D01*
X0157743Y0207702D01*
X0157797Y0207783D01*
X0157855Y0207861D01*
X0157916Y0207936D01*
X0157979Y0208009D01*
X0158046Y0208080D01*
X0158116Y0208147D01*
X0158188Y0208212D01*
X0158263Y0208273D01*
X0158341Y0208332D01*
X0158420Y0208387D01*
X0158502Y0208439D01*
X0158586Y0208487D01*
X0158672Y0208532D01*
X0158760Y0208574D01*
X0158849Y0208612D01*
X0158940Y0208646D01*
X0159032Y0208676D01*
X0159125Y0208703D01*
X0159220Y0208725D01*
X0159315Y0208744D01*
X0159411Y0208759D01*
X0159507Y0208770D01*
X0159604Y0208777D01*
X0159701Y0208780D01*
X0159798Y0208779D01*
X0159895Y0208774D01*
X0159991Y0208765D01*
X0160087Y0208752D01*
X0160183Y0208735D01*
X0160278Y0208714D01*
X0160371Y0208690D01*
X0160464Y0208661D01*
X0160556Y0208629D01*
X0160646Y0208593D01*
X0160734Y0208554D01*
X0160821Y0208510D01*
X0160906Y0208464D01*
X0160989Y0208413D01*
X0161070Y0208360D01*
X0161148Y0208303D01*
X0161225Y0208243D01*
X0161298Y0208180D01*
X0161369Y0208114D01*
X0161437Y0208045D01*
X0161503Y0207973D01*
X0161565Y0207899D01*
X0161624Y0207822D01*
X0161680Y0207743D01*
X0161733Y0207661D01*
X0161783Y0207578D01*
X0161828Y0207492D01*
X0161871Y0207405D01*
X0161910Y0207316D01*
X0161945Y0207226D01*
X0161976Y0207134D01*
X0162003Y0207041D01*
X0162027Y0206947D01*
X0162047Y0206852D01*
X0162063Y0206756D01*
X0162075Y0206660D01*
X0162083Y0206563D01*
X0162087Y0206466D01*
X0162087Y0206370D01*
X0162083Y0206273D01*
X0162075Y0206176D01*
X0162063Y0206080D01*
X0162047Y0205984D01*
X0162027Y0205889D01*
X0162003Y0205795D01*
X0161976Y0205702D01*
X0161945Y0205610D01*
X0161910Y0205520D01*
X0161871Y0205431D01*
X0161828Y0205344D01*
X0161783Y0205258D01*
X0161733Y0205175D01*
X0161680Y0205093D01*
X0161624Y0205014D01*
X0161565Y0204937D01*
X0161503Y0204863D01*
X0161437Y0204791D01*
X0161369Y0204722D01*
X0161298Y0204656D01*
X0161225Y0204593D01*
X0161148Y0204533D01*
X0161070Y0204476D01*
X0160989Y0204423D01*
X0160906Y0204372D01*
X0160821Y0204326D01*
X0160734Y0204282D01*
X0160646Y0204243D01*
X0160556Y0204207D01*
X0160464Y0204175D01*
X0160371Y0204146D01*
X0160278Y0204122D01*
X0160183Y0204101D01*
X0160087Y0204084D01*
X0159991Y0204071D01*
X0159895Y0204062D01*
X0159798Y0204057D01*
X0159701Y0204056D01*
X0159604Y0204059D01*
X0159507Y0204066D01*
X0159411Y0204077D01*
X0159315Y0204092D01*
X0159220Y0204111D01*
X0159125Y0204133D01*
X0159032Y0204160D01*
X0158940Y0204190D01*
X0158849Y0204224D01*
X0158760Y0204262D01*
X0158672Y0204304D01*
X0158586Y0204349D01*
X0158502Y0204397D01*
X0158420Y0204449D01*
X0158341Y0204504D01*
X0158263Y0204563D01*
X0158188Y0204624D01*
X0158116Y0204689D01*
X0158046Y0204756D01*
X0157979Y0204827D01*
X0157916Y0204900D01*
X0157855Y0204975D01*
X0157797Y0205053D01*
X0157743Y0205134D01*
X0157692Y0205216D01*
X0157644Y0205301D01*
X0157600Y0205387D01*
X0157559Y0205475D01*
X0157523Y0205565D01*
X0157489Y0205656D01*
X0157460Y0205748D01*
X0157434Y0205842D01*
X0157413Y0205936D01*
X0157395Y0206032D01*
X0157381Y0206128D01*
X0157371Y0206224D01*
X0157365Y0206321D01*
X0157363Y0206418D01*
X0157363Y0197796D02*
X0157365Y0197893D01*
X0157371Y0197990D01*
X0157381Y0198086D01*
X0157395Y0198182D01*
X0157413Y0198278D01*
X0157434Y0198372D01*
X0157460Y0198466D01*
X0157489Y0198558D01*
X0157523Y0198649D01*
X0157559Y0198739D01*
X0157600Y0198827D01*
X0157644Y0198913D01*
X0157692Y0198998D01*
X0157743Y0199080D01*
X0157797Y0199161D01*
X0157855Y0199239D01*
X0157916Y0199314D01*
X0157979Y0199387D01*
X0158046Y0199458D01*
X0158116Y0199525D01*
X0158188Y0199590D01*
X0158263Y0199651D01*
X0158341Y0199710D01*
X0158420Y0199765D01*
X0158502Y0199817D01*
X0158586Y0199865D01*
X0158672Y0199910D01*
X0158760Y0199952D01*
X0158849Y0199990D01*
X0158940Y0200024D01*
X0159032Y0200054D01*
X0159125Y0200081D01*
X0159220Y0200103D01*
X0159315Y0200122D01*
X0159411Y0200137D01*
X0159507Y0200148D01*
X0159604Y0200155D01*
X0159701Y0200158D01*
X0159798Y0200157D01*
X0159895Y0200152D01*
X0159991Y0200143D01*
X0160087Y0200130D01*
X0160183Y0200113D01*
X0160278Y0200092D01*
X0160371Y0200068D01*
X0160464Y0200039D01*
X0160556Y0200007D01*
X0160646Y0199971D01*
X0160734Y0199932D01*
X0160821Y0199888D01*
X0160906Y0199842D01*
X0160989Y0199791D01*
X0161070Y0199738D01*
X0161148Y0199681D01*
X0161225Y0199621D01*
X0161298Y0199558D01*
X0161369Y0199492D01*
X0161437Y0199423D01*
X0161503Y0199351D01*
X0161565Y0199277D01*
X0161624Y0199200D01*
X0161680Y0199121D01*
X0161733Y0199039D01*
X0161783Y0198956D01*
X0161828Y0198870D01*
X0161871Y0198783D01*
X0161910Y0198694D01*
X0161945Y0198604D01*
X0161976Y0198512D01*
X0162003Y0198419D01*
X0162027Y0198325D01*
X0162047Y0198230D01*
X0162063Y0198134D01*
X0162075Y0198038D01*
X0162083Y0197941D01*
X0162087Y0197844D01*
X0162087Y0197748D01*
X0162083Y0197651D01*
X0162075Y0197554D01*
X0162063Y0197458D01*
X0162047Y0197362D01*
X0162027Y0197267D01*
X0162003Y0197173D01*
X0161976Y0197080D01*
X0161945Y0196988D01*
X0161910Y0196898D01*
X0161871Y0196809D01*
X0161828Y0196722D01*
X0161783Y0196636D01*
X0161733Y0196553D01*
X0161680Y0196471D01*
X0161624Y0196392D01*
X0161565Y0196315D01*
X0161503Y0196241D01*
X0161437Y0196169D01*
X0161369Y0196100D01*
X0161298Y0196034D01*
X0161225Y0195971D01*
X0161148Y0195911D01*
X0161070Y0195854D01*
X0160989Y0195801D01*
X0160906Y0195750D01*
X0160821Y0195704D01*
X0160734Y0195660D01*
X0160646Y0195621D01*
X0160556Y0195585D01*
X0160464Y0195553D01*
X0160371Y0195524D01*
X0160278Y0195500D01*
X0160183Y0195479D01*
X0160087Y0195462D01*
X0159991Y0195449D01*
X0159895Y0195440D01*
X0159798Y0195435D01*
X0159701Y0195434D01*
X0159604Y0195437D01*
X0159507Y0195444D01*
X0159411Y0195455D01*
X0159315Y0195470D01*
X0159220Y0195489D01*
X0159125Y0195511D01*
X0159032Y0195538D01*
X0158940Y0195568D01*
X0158849Y0195602D01*
X0158760Y0195640D01*
X0158672Y0195682D01*
X0158586Y0195727D01*
X0158502Y0195775D01*
X0158420Y0195827D01*
X0158341Y0195882D01*
X0158263Y0195941D01*
X0158188Y0196002D01*
X0158116Y0196067D01*
X0158046Y0196134D01*
X0157979Y0196205D01*
X0157916Y0196278D01*
X0157855Y0196353D01*
X0157797Y0196431D01*
X0157743Y0196512D01*
X0157692Y0196594D01*
X0157644Y0196679D01*
X0157600Y0196765D01*
X0157559Y0196853D01*
X0157523Y0196943D01*
X0157489Y0197034D01*
X0157460Y0197126D01*
X0157434Y0197220D01*
X0157413Y0197314D01*
X0157395Y0197410D01*
X0157381Y0197506D01*
X0157371Y0197602D01*
X0157365Y0197699D01*
X0157363Y0197796D01*
X0172284Y0202284D02*
X0172286Y0202415D01*
X0172292Y0202547D01*
X0172302Y0202678D01*
X0172316Y0202809D01*
X0172334Y0202939D01*
X0172356Y0203068D01*
X0172381Y0203197D01*
X0172411Y0203325D01*
X0172445Y0203452D01*
X0172482Y0203579D01*
X0172523Y0203703D01*
X0172568Y0203827D01*
X0172617Y0203949D01*
X0172669Y0204070D01*
X0172725Y0204188D01*
X0172785Y0204306D01*
X0172848Y0204421D01*
X0172915Y0204534D01*
X0172985Y0204646D01*
X0173058Y0204755D01*
X0173134Y0204861D01*
X0173214Y0204966D01*
X0173297Y0205068D01*
X0173383Y0205167D01*
X0173472Y0205264D01*
X0173564Y0205358D01*
X0173659Y0205449D01*
X0173756Y0205538D01*
X0173856Y0205623D01*
X0173959Y0205705D01*
X0174064Y0205784D01*
X0174171Y0205860D01*
X0174281Y0205932D01*
X0174393Y0206001D01*
X0174507Y0206067D01*
X0174622Y0206129D01*
X0174740Y0206188D01*
X0174859Y0206243D01*
X0174980Y0206295D01*
X0175103Y0206342D01*
X0175227Y0206386D01*
X0175352Y0206427D01*
X0175478Y0206463D01*
X0175606Y0206496D01*
X0175734Y0206524D01*
X0175863Y0206549D01*
X0175993Y0206570D01*
X0176123Y0206587D01*
X0176254Y0206600D01*
X0176385Y0206609D01*
X0176516Y0206614D01*
X0176648Y0206615D01*
X0176779Y0206612D01*
X0176911Y0206605D01*
X0177042Y0206594D01*
X0177172Y0206579D01*
X0177302Y0206560D01*
X0177432Y0206537D01*
X0177560Y0206511D01*
X0177688Y0206480D01*
X0177815Y0206445D01*
X0177941Y0206407D01*
X0178065Y0206365D01*
X0178189Y0206319D01*
X0178310Y0206269D01*
X0178430Y0206216D01*
X0178549Y0206159D01*
X0178666Y0206099D01*
X0178780Y0206035D01*
X0178893Y0205967D01*
X0179004Y0205896D01*
X0179113Y0205822D01*
X0179219Y0205745D01*
X0179323Y0205664D01*
X0179424Y0205581D01*
X0179523Y0205494D01*
X0179619Y0205404D01*
X0179712Y0205311D01*
X0179803Y0205216D01*
X0179890Y0205118D01*
X0179975Y0205017D01*
X0180056Y0204914D01*
X0180134Y0204808D01*
X0180209Y0204700D01*
X0180281Y0204590D01*
X0180349Y0204478D01*
X0180414Y0204364D01*
X0180475Y0204247D01*
X0180533Y0204129D01*
X0180587Y0204009D01*
X0180638Y0203888D01*
X0180685Y0203765D01*
X0180728Y0203641D01*
X0180767Y0203516D01*
X0180803Y0203389D01*
X0180834Y0203261D01*
X0180862Y0203133D01*
X0180886Y0203004D01*
X0180906Y0202874D01*
X0180922Y0202743D01*
X0180934Y0202612D01*
X0180942Y0202481D01*
X0180946Y0202350D01*
X0180946Y0202218D01*
X0180942Y0202087D01*
X0180934Y0201956D01*
X0180922Y0201825D01*
X0180906Y0201694D01*
X0180886Y0201564D01*
X0180862Y0201435D01*
X0180834Y0201307D01*
X0180803Y0201179D01*
X0180767Y0201052D01*
X0180728Y0200927D01*
X0180685Y0200803D01*
X0180638Y0200680D01*
X0180587Y0200559D01*
X0180533Y0200439D01*
X0180475Y0200321D01*
X0180414Y0200204D01*
X0180349Y0200090D01*
X0180281Y0199978D01*
X0180209Y0199868D01*
X0180134Y0199760D01*
X0180056Y0199654D01*
X0179975Y0199551D01*
X0179890Y0199450D01*
X0179803Y0199352D01*
X0179712Y0199257D01*
X0179619Y0199164D01*
X0179523Y0199074D01*
X0179424Y0198987D01*
X0179323Y0198904D01*
X0179219Y0198823D01*
X0179113Y0198746D01*
X0179004Y0198672D01*
X0178893Y0198601D01*
X0178781Y0198533D01*
X0178666Y0198469D01*
X0178549Y0198409D01*
X0178430Y0198352D01*
X0178310Y0198299D01*
X0178189Y0198249D01*
X0178065Y0198203D01*
X0177941Y0198161D01*
X0177815Y0198123D01*
X0177688Y0198088D01*
X0177560Y0198057D01*
X0177432Y0198031D01*
X0177302Y0198008D01*
X0177172Y0197989D01*
X0177042Y0197974D01*
X0176911Y0197963D01*
X0176779Y0197956D01*
X0176648Y0197953D01*
X0176516Y0197954D01*
X0176385Y0197959D01*
X0176254Y0197968D01*
X0176123Y0197981D01*
X0175993Y0197998D01*
X0175863Y0198019D01*
X0175734Y0198044D01*
X0175606Y0198072D01*
X0175478Y0198105D01*
X0175352Y0198141D01*
X0175227Y0198182D01*
X0175103Y0198226D01*
X0174980Y0198273D01*
X0174859Y0198325D01*
X0174740Y0198380D01*
X0174622Y0198439D01*
X0174507Y0198501D01*
X0174393Y0198567D01*
X0174281Y0198636D01*
X0174171Y0198708D01*
X0174064Y0198784D01*
X0173959Y0198863D01*
X0173856Y0198945D01*
X0173756Y0199030D01*
X0173659Y0199119D01*
X0173564Y0199210D01*
X0173472Y0199304D01*
X0173383Y0199401D01*
X0173297Y0199500D01*
X0173214Y0199602D01*
X0173134Y0199707D01*
X0173058Y0199813D01*
X0172985Y0199922D01*
X0172915Y0200034D01*
X0172848Y0200147D01*
X0172785Y0200262D01*
X0172725Y0200380D01*
X0172669Y0200498D01*
X0172617Y0200619D01*
X0172568Y0200741D01*
X0172523Y0200865D01*
X0172482Y0200989D01*
X0172445Y0201116D01*
X0172411Y0201243D01*
X0172381Y0201371D01*
X0172356Y0201500D01*
X0172334Y0201629D01*
X0172316Y0201759D01*
X0172302Y0201890D01*
X0172292Y0202021D01*
X0172286Y0202153D01*
X0172284Y0202284D01*
X0259725Y0206418D02*
X0259727Y0206515D01*
X0259733Y0206612D01*
X0259743Y0206708D01*
X0259757Y0206804D01*
X0259775Y0206900D01*
X0259796Y0206994D01*
X0259822Y0207088D01*
X0259851Y0207180D01*
X0259885Y0207271D01*
X0259921Y0207361D01*
X0259962Y0207449D01*
X0260006Y0207535D01*
X0260054Y0207620D01*
X0260105Y0207702D01*
X0260159Y0207783D01*
X0260217Y0207861D01*
X0260278Y0207936D01*
X0260341Y0208009D01*
X0260408Y0208080D01*
X0260478Y0208147D01*
X0260550Y0208212D01*
X0260625Y0208273D01*
X0260703Y0208332D01*
X0260782Y0208387D01*
X0260864Y0208439D01*
X0260948Y0208487D01*
X0261034Y0208532D01*
X0261122Y0208574D01*
X0261211Y0208612D01*
X0261302Y0208646D01*
X0261394Y0208676D01*
X0261487Y0208703D01*
X0261582Y0208725D01*
X0261677Y0208744D01*
X0261773Y0208759D01*
X0261869Y0208770D01*
X0261966Y0208777D01*
X0262063Y0208780D01*
X0262160Y0208779D01*
X0262257Y0208774D01*
X0262353Y0208765D01*
X0262449Y0208752D01*
X0262545Y0208735D01*
X0262640Y0208714D01*
X0262733Y0208690D01*
X0262826Y0208661D01*
X0262918Y0208629D01*
X0263008Y0208593D01*
X0263096Y0208554D01*
X0263183Y0208510D01*
X0263268Y0208464D01*
X0263351Y0208413D01*
X0263432Y0208360D01*
X0263510Y0208303D01*
X0263587Y0208243D01*
X0263660Y0208180D01*
X0263731Y0208114D01*
X0263799Y0208045D01*
X0263865Y0207973D01*
X0263927Y0207899D01*
X0263986Y0207822D01*
X0264042Y0207743D01*
X0264095Y0207661D01*
X0264145Y0207578D01*
X0264190Y0207492D01*
X0264233Y0207405D01*
X0264272Y0207316D01*
X0264307Y0207226D01*
X0264338Y0207134D01*
X0264365Y0207041D01*
X0264389Y0206947D01*
X0264409Y0206852D01*
X0264425Y0206756D01*
X0264437Y0206660D01*
X0264445Y0206563D01*
X0264449Y0206466D01*
X0264449Y0206370D01*
X0264445Y0206273D01*
X0264437Y0206176D01*
X0264425Y0206080D01*
X0264409Y0205984D01*
X0264389Y0205889D01*
X0264365Y0205795D01*
X0264338Y0205702D01*
X0264307Y0205610D01*
X0264272Y0205520D01*
X0264233Y0205431D01*
X0264190Y0205344D01*
X0264145Y0205258D01*
X0264095Y0205175D01*
X0264042Y0205093D01*
X0263986Y0205014D01*
X0263927Y0204937D01*
X0263865Y0204863D01*
X0263799Y0204791D01*
X0263731Y0204722D01*
X0263660Y0204656D01*
X0263587Y0204593D01*
X0263510Y0204533D01*
X0263432Y0204476D01*
X0263351Y0204423D01*
X0263268Y0204372D01*
X0263183Y0204326D01*
X0263096Y0204282D01*
X0263008Y0204243D01*
X0262918Y0204207D01*
X0262826Y0204175D01*
X0262733Y0204146D01*
X0262640Y0204122D01*
X0262545Y0204101D01*
X0262449Y0204084D01*
X0262353Y0204071D01*
X0262257Y0204062D01*
X0262160Y0204057D01*
X0262063Y0204056D01*
X0261966Y0204059D01*
X0261869Y0204066D01*
X0261773Y0204077D01*
X0261677Y0204092D01*
X0261582Y0204111D01*
X0261487Y0204133D01*
X0261394Y0204160D01*
X0261302Y0204190D01*
X0261211Y0204224D01*
X0261122Y0204262D01*
X0261034Y0204304D01*
X0260948Y0204349D01*
X0260864Y0204397D01*
X0260782Y0204449D01*
X0260703Y0204504D01*
X0260625Y0204563D01*
X0260550Y0204624D01*
X0260478Y0204689D01*
X0260408Y0204756D01*
X0260341Y0204827D01*
X0260278Y0204900D01*
X0260217Y0204975D01*
X0260159Y0205053D01*
X0260105Y0205134D01*
X0260054Y0205216D01*
X0260006Y0205301D01*
X0259962Y0205387D01*
X0259921Y0205475D01*
X0259885Y0205565D01*
X0259851Y0205656D01*
X0259822Y0205748D01*
X0259796Y0205842D01*
X0259775Y0205936D01*
X0259757Y0206032D01*
X0259743Y0206128D01*
X0259733Y0206224D01*
X0259727Y0206321D01*
X0259725Y0206418D01*
X0259725Y0197796D02*
X0259727Y0197893D01*
X0259733Y0197990D01*
X0259743Y0198086D01*
X0259757Y0198182D01*
X0259775Y0198278D01*
X0259796Y0198372D01*
X0259822Y0198466D01*
X0259851Y0198558D01*
X0259885Y0198649D01*
X0259921Y0198739D01*
X0259962Y0198827D01*
X0260006Y0198913D01*
X0260054Y0198998D01*
X0260105Y0199080D01*
X0260159Y0199161D01*
X0260217Y0199239D01*
X0260278Y0199314D01*
X0260341Y0199387D01*
X0260408Y0199458D01*
X0260478Y0199525D01*
X0260550Y0199590D01*
X0260625Y0199651D01*
X0260703Y0199710D01*
X0260782Y0199765D01*
X0260864Y0199817D01*
X0260948Y0199865D01*
X0261034Y0199910D01*
X0261122Y0199952D01*
X0261211Y0199990D01*
X0261302Y0200024D01*
X0261394Y0200054D01*
X0261487Y0200081D01*
X0261582Y0200103D01*
X0261677Y0200122D01*
X0261773Y0200137D01*
X0261869Y0200148D01*
X0261966Y0200155D01*
X0262063Y0200158D01*
X0262160Y0200157D01*
X0262257Y0200152D01*
X0262353Y0200143D01*
X0262449Y0200130D01*
X0262545Y0200113D01*
X0262640Y0200092D01*
X0262733Y0200068D01*
X0262826Y0200039D01*
X0262918Y0200007D01*
X0263008Y0199971D01*
X0263096Y0199932D01*
X0263183Y0199888D01*
X0263268Y0199842D01*
X0263351Y0199791D01*
X0263432Y0199738D01*
X0263510Y0199681D01*
X0263587Y0199621D01*
X0263660Y0199558D01*
X0263731Y0199492D01*
X0263799Y0199423D01*
X0263865Y0199351D01*
X0263927Y0199277D01*
X0263986Y0199200D01*
X0264042Y0199121D01*
X0264095Y0199039D01*
X0264145Y0198956D01*
X0264190Y0198870D01*
X0264233Y0198783D01*
X0264272Y0198694D01*
X0264307Y0198604D01*
X0264338Y0198512D01*
X0264365Y0198419D01*
X0264389Y0198325D01*
X0264409Y0198230D01*
X0264425Y0198134D01*
X0264437Y0198038D01*
X0264445Y0197941D01*
X0264449Y0197844D01*
X0264449Y0197748D01*
X0264445Y0197651D01*
X0264437Y0197554D01*
X0264425Y0197458D01*
X0264409Y0197362D01*
X0264389Y0197267D01*
X0264365Y0197173D01*
X0264338Y0197080D01*
X0264307Y0196988D01*
X0264272Y0196898D01*
X0264233Y0196809D01*
X0264190Y0196722D01*
X0264145Y0196636D01*
X0264095Y0196553D01*
X0264042Y0196471D01*
X0263986Y0196392D01*
X0263927Y0196315D01*
X0263865Y0196241D01*
X0263799Y0196169D01*
X0263731Y0196100D01*
X0263660Y0196034D01*
X0263587Y0195971D01*
X0263510Y0195911D01*
X0263432Y0195854D01*
X0263351Y0195801D01*
X0263268Y0195750D01*
X0263183Y0195704D01*
X0263096Y0195660D01*
X0263008Y0195621D01*
X0262918Y0195585D01*
X0262826Y0195553D01*
X0262733Y0195524D01*
X0262640Y0195500D01*
X0262545Y0195479D01*
X0262449Y0195462D01*
X0262353Y0195449D01*
X0262257Y0195440D01*
X0262160Y0195435D01*
X0262063Y0195434D01*
X0261966Y0195437D01*
X0261869Y0195444D01*
X0261773Y0195455D01*
X0261677Y0195470D01*
X0261582Y0195489D01*
X0261487Y0195511D01*
X0261394Y0195538D01*
X0261302Y0195568D01*
X0261211Y0195602D01*
X0261122Y0195640D01*
X0261034Y0195682D01*
X0260948Y0195727D01*
X0260864Y0195775D01*
X0260782Y0195827D01*
X0260703Y0195882D01*
X0260625Y0195941D01*
X0260550Y0196002D01*
X0260478Y0196067D01*
X0260408Y0196134D01*
X0260341Y0196205D01*
X0260278Y0196278D01*
X0260217Y0196353D01*
X0260159Y0196431D01*
X0260105Y0196512D01*
X0260054Y0196594D01*
X0260006Y0196679D01*
X0259962Y0196765D01*
X0259921Y0196853D01*
X0259885Y0196943D01*
X0259851Y0197034D01*
X0259822Y0197126D01*
X0259796Y0197220D01*
X0259775Y0197314D01*
X0259757Y0197410D01*
X0259743Y0197506D01*
X0259733Y0197602D01*
X0259727Y0197699D01*
X0259725Y0197796D01*
X0274646Y0202284D02*
X0274648Y0202415D01*
X0274654Y0202547D01*
X0274664Y0202678D01*
X0274678Y0202809D01*
X0274696Y0202939D01*
X0274718Y0203068D01*
X0274743Y0203197D01*
X0274773Y0203325D01*
X0274807Y0203452D01*
X0274844Y0203579D01*
X0274885Y0203703D01*
X0274930Y0203827D01*
X0274979Y0203949D01*
X0275031Y0204070D01*
X0275087Y0204188D01*
X0275147Y0204306D01*
X0275210Y0204421D01*
X0275277Y0204534D01*
X0275347Y0204646D01*
X0275420Y0204755D01*
X0275496Y0204861D01*
X0275576Y0204966D01*
X0275659Y0205068D01*
X0275745Y0205167D01*
X0275834Y0205264D01*
X0275926Y0205358D01*
X0276021Y0205449D01*
X0276118Y0205538D01*
X0276218Y0205623D01*
X0276321Y0205705D01*
X0276426Y0205784D01*
X0276533Y0205860D01*
X0276643Y0205932D01*
X0276755Y0206001D01*
X0276869Y0206067D01*
X0276984Y0206129D01*
X0277102Y0206188D01*
X0277221Y0206243D01*
X0277342Y0206295D01*
X0277465Y0206342D01*
X0277589Y0206386D01*
X0277714Y0206427D01*
X0277840Y0206463D01*
X0277968Y0206496D01*
X0278096Y0206524D01*
X0278225Y0206549D01*
X0278355Y0206570D01*
X0278485Y0206587D01*
X0278616Y0206600D01*
X0278747Y0206609D01*
X0278878Y0206614D01*
X0279010Y0206615D01*
X0279141Y0206612D01*
X0279273Y0206605D01*
X0279404Y0206594D01*
X0279534Y0206579D01*
X0279664Y0206560D01*
X0279794Y0206537D01*
X0279922Y0206511D01*
X0280050Y0206480D01*
X0280177Y0206445D01*
X0280303Y0206407D01*
X0280427Y0206365D01*
X0280551Y0206319D01*
X0280672Y0206269D01*
X0280792Y0206216D01*
X0280911Y0206159D01*
X0281028Y0206099D01*
X0281142Y0206035D01*
X0281255Y0205967D01*
X0281366Y0205896D01*
X0281475Y0205822D01*
X0281581Y0205745D01*
X0281685Y0205664D01*
X0281786Y0205581D01*
X0281885Y0205494D01*
X0281981Y0205404D01*
X0282074Y0205311D01*
X0282165Y0205216D01*
X0282252Y0205118D01*
X0282337Y0205017D01*
X0282418Y0204914D01*
X0282496Y0204808D01*
X0282571Y0204700D01*
X0282643Y0204590D01*
X0282711Y0204478D01*
X0282776Y0204364D01*
X0282837Y0204247D01*
X0282895Y0204129D01*
X0282949Y0204009D01*
X0283000Y0203888D01*
X0283047Y0203765D01*
X0283090Y0203641D01*
X0283129Y0203516D01*
X0283165Y0203389D01*
X0283196Y0203261D01*
X0283224Y0203133D01*
X0283248Y0203004D01*
X0283268Y0202874D01*
X0283284Y0202743D01*
X0283296Y0202612D01*
X0283304Y0202481D01*
X0283308Y0202350D01*
X0283308Y0202218D01*
X0283304Y0202087D01*
X0283296Y0201956D01*
X0283284Y0201825D01*
X0283268Y0201694D01*
X0283248Y0201564D01*
X0283224Y0201435D01*
X0283196Y0201307D01*
X0283165Y0201179D01*
X0283129Y0201052D01*
X0283090Y0200927D01*
X0283047Y0200803D01*
X0283000Y0200680D01*
X0282949Y0200559D01*
X0282895Y0200439D01*
X0282837Y0200321D01*
X0282776Y0200204D01*
X0282711Y0200090D01*
X0282643Y0199978D01*
X0282571Y0199868D01*
X0282496Y0199760D01*
X0282418Y0199654D01*
X0282337Y0199551D01*
X0282252Y0199450D01*
X0282165Y0199352D01*
X0282074Y0199257D01*
X0281981Y0199164D01*
X0281885Y0199074D01*
X0281786Y0198987D01*
X0281685Y0198904D01*
X0281581Y0198823D01*
X0281475Y0198746D01*
X0281366Y0198672D01*
X0281255Y0198601D01*
X0281143Y0198533D01*
X0281028Y0198469D01*
X0280911Y0198409D01*
X0280792Y0198352D01*
X0280672Y0198299D01*
X0280551Y0198249D01*
X0280427Y0198203D01*
X0280303Y0198161D01*
X0280177Y0198123D01*
X0280050Y0198088D01*
X0279922Y0198057D01*
X0279794Y0198031D01*
X0279664Y0198008D01*
X0279534Y0197989D01*
X0279404Y0197974D01*
X0279273Y0197963D01*
X0279141Y0197956D01*
X0279010Y0197953D01*
X0278878Y0197954D01*
X0278747Y0197959D01*
X0278616Y0197968D01*
X0278485Y0197981D01*
X0278355Y0197998D01*
X0278225Y0198019D01*
X0278096Y0198044D01*
X0277968Y0198072D01*
X0277840Y0198105D01*
X0277714Y0198141D01*
X0277589Y0198182D01*
X0277465Y0198226D01*
X0277342Y0198273D01*
X0277221Y0198325D01*
X0277102Y0198380D01*
X0276984Y0198439D01*
X0276869Y0198501D01*
X0276755Y0198567D01*
X0276643Y0198636D01*
X0276533Y0198708D01*
X0276426Y0198784D01*
X0276321Y0198863D01*
X0276218Y0198945D01*
X0276118Y0199030D01*
X0276021Y0199119D01*
X0275926Y0199210D01*
X0275834Y0199304D01*
X0275745Y0199401D01*
X0275659Y0199500D01*
X0275576Y0199602D01*
X0275496Y0199707D01*
X0275420Y0199813D01*
X0275347Y0199922D01*
X0275277Y0200034D01*
X0275210Y0200147D01*
X0275147Y0200262D01*
X0275087Y0200380D01*
X0275031Y0200498D01*
X0274979Y0200619D01*
X0274930Y0200741D01*
X0274885Y0200865D01*
X0274844Y0200989D01*
X0274807Y0201116D01*
X0274773Y0201243D01*
X0274743Y0201371D01*
X0274718Y0201500D01*
X0274696Y0201629D01*
X0274678Y0201759D01*
X0274664Y0201890D01*
X0274654Y0202021D01*
X0274648Y0202153D01*
X0274646Y0202284D01*
X0299095Y0206418D02*
X0299097Y0206515D01*
X0299103Y0206612D01*
X0299113Y0206708D01*
X0299127Y0206804D01*
X0299145Y0206900D01*
X0299166Y0206994D01*
X0299192Y0207088D01*
X0299221Y0207180D01*
X0299255Y0207271D01*
X0299291Y0207361D01*
X0299332Y0207449D01*
X0299376Y0207535D01*
X0299424Y0207620D01*
X0299475Y0207702D01*
X0299529Y0207783D01*
X0299587Y0207861D01*
X0299648Y0207936D01*
X0299711Y0208009D01*
X0299778Y0208080D01*
X0299848Y0208147D01*
X0299920Y0208212D01*
X0299995Y0208273D01*
X0300073Y0208332D01*
X0300152Y0208387D01*
X0300234Y0208439D01*
X0300318Y0208487D01*
X0300404Y0208532D01*
X0300492Y0208574D01*
X0300581Y0208612D01*
X0300672Y0208646D01*
X0300764Y0208676D01*
X0300857Y0208703D01*
X0300952Y0208725D01*
X0301047Y0208744D01*
X0301143Y0208759D01*
X0301239Y0208770D01*
X0301336Y0208777D01*
X0301433Y0208780D01*
X0301530Y0208779D01*
X0301627Y0208774D01*
X0301723Y0208765D01*
X0301819Y0208752D01*
X0301915Y0208735D01*
X0302010Y0208714D01*
X0302103Y0208690D01*
X0302196Y0208661D01*
X0302288Y0208629D01*
X0302378Y0208593D01*
X0302466Y0208554D01*
X0302553Y0208510D01*
X0302638Y0208464D01*
X0302721Y0208413D01*
X0302802Y0208360D01*
X0302880Y0208303D01*
X0302957Y0208243D01*
X0303030Y0208180D01*
X0303101Y0208114D01*
X0303169Y0208045D01*
X0303235Y0207973D01*
X0303297Y0207899D01*
X0303356Y0207822D01*
X0303412Y0207743D01*
X0303465Y0207661D01*
X0303515Y0207578D01*
X0303560Y0207492D01*
X0303603Y0207405D01*
X0303642Y0207316D01*
X0303677Y0207226D01*
X0303708Y0207134D01*
X0303735Y0207041D01*
X0303759Y0206947D01*
X0303779Y0206852D01*
X0303795Y0206756D01*
X0303807Y0206660D01*
X0303815Y0206563D01*
X0303819Y0206466D01*
X0303819Y0206370D01*
X0303815Y0206273D01*
X0303807Y0206176D01*
X0303795Y0206080D01*
X0303779Y0205984D01*
X0303759Y0205889D01*
X0303735Y0205795D01*
X0303708Y0205702D01*
X0303677Y0205610D01*
X0303642Y0205520D01*
X0303603Y0205431D01*
X0303560Y0205344D01*
X0303515Y0205258D01*
X0303465Y0205175D01*
X0303412Y0205093D01*
X0303356Y0205014D01*
X0303297Y0204937D01*
X0303235Y0204863D01*
X0303169Y0204791D01*
X0303101Y0204722D01*
X0303030Y0204656D01*
X0302957Y0204593D01*
X0302880Y0204533D01*
X0302802Y0204476D01*
X0302721Y0204423D01*
X0302638Y0204372D01*
X0302553Y0204326D01*
X0302466Y0204282D01*
X0302378Y0204243D01*
X0302288Y0204207D01*
X0302196Y0204175D01*
X0302103Y0204146D01*
X0302010Y0204122D01*
X0301915Y0204101D01*
X0301819Y0204084D01*
X0301723Y0204071D01*
X0301627Y0204062D01*
X0301530Y0204057D01*
X0301433Y0204056D01*
X0301336Y0204059D01*
X0301239Y0204066D01*
X0301143Y0204077D01*
X0301047Y0204092D01*
X0300952Y0204111D01*
X0300857Y0204133D01*
X0300764Y0204160D01*
X0300672Y0204190D01*
X0300581Y0204224D01*
X0300492Y0204262D01*
X0300404Y0204304D01*
X0300318Y0204349D01*
X0300234Y0204397D01*
X0300152Y0204449D01*
X0300073Y0204504D01*
X0299995Y0204563D01*
X0299920Y0204624D01*
X0299848Y0204689D01*
X0299778Y0204756D01*
X0299711Y0204827D01*
X0299648Y0204900D01*
X0299587Y0204975D01*
X0299529Y0205053D01*
X0299475Y0205134D01*
X0299424Y0205216D01*
X0299376Y0205301D01*
X0299332Y0205387D01*
X0299291Y0205475D01*
X0299255Y0205565D01*
X0299221Y0205656D01*
X0299192Y0205748D01*
X0299166Y0205842D01*
X0299145Y0205936D01*
X0299127Y0206032D01*
X0299113Y0206128D01*
X0299103Y0206224D01*
X0299097Y0206321D01*
X0299095Y0206418D01*
X0299095Y0197796D02*
X0299097Y0197893D01*
X0299103Y0197990D01*
X0299113Y0198086D01*
X0299127Y0198182D01*
X0299145Y0198278D01*
X0299166Y0198372D01*
X0299192Y0198466D01*
X0299221Y0198558D01*
X0299255Y0198649D01*
X0299291Y0198739D01*
X0299332Y0198827D01*
X0299376Y0198913D01*
X0299424Y0198998D01*
X0299475Y0199080D01*
X0299529Y0199161D01*
X0299587Y0199239D01*
X0299648Y0199314D01*
X0299711Y0199387D01*
X0299778Y0199458D01*
X0299848Y0199525D01*
X0299920Y0199590D01*
X0299995Y0199651D01*
X0300073Y0199710D01*
X0300152Y0199765D01*
X0300234Y0199817D01*
X0300318Y0199865D01*
X0300404Y0199910D01*
X0300492Y0199952D01*
X0300581Y0199990D01*
X0300672Y0200024D01*
X0300764Y0200054D01*
X0300857Y0200081D01*
X0300952Y0200103D01*
X0301047Y0200122D01*
X0301143Y0200137D01*
X0301239Y0200148D01*
X0301336Y0200155D01*
X0301433Y0200158D01*
X0301530Y0200157D01*
X0301627Y0200152D01*
X0301723Y0200143D01*
X0301819Y0200130D01*
X0301915Y0200113D01*
X0302010Y0200092D01*
X0302103Y0200068D01*
X0302196Y0200039D01*
X0302288Y0200007D01*
X0302378Y0199971D01*
X0302466Y0199932D01*
X0302553Y0199888D01*
X0302638Y0199842D01*
X0302721Y0199791D01*
X0302802Y0199738D01*
X0302880Y0199681D01*
X0302957Y0199621D01*
X0303030Y0199558D01*
X0303101Y0199492D01*
X0303169Y0199423D01*
X0303235Y0199351D01*
X0303297Y0199277D01*
X0303356Y0199200D01*
X0303412Y0199121D01*
X0303465Y0199039D01*
X0303515Y0198956D01*
X0303560Y0198870D01*
X0303603Y0198783D01*
X0303642Y0198694D01*
X0303677Y0198604D01*
X0303708Y0198512D01*
X0303735Y0198419D01*
X0303759Y0198325D01*
X0303779Y0198230D01*
X0303795Y0198134D01*
X0303807Y0198038D01*
X0303815Y0197941D01*
X0303819Y0197844D01*
X0303819Y0197748D01*
X0303815Y0197651D01*
X0303807Y0197554D01*
X0303795Y0197458D01*
X0303779Y0197362D01*
X0303759Y0197267D01*
X0303735Y0197173D01*
X0303708Y0197080D01*
X0303677Y0196988D01*
X0303642Y0196898D01*
X0303603Y0196809D01*
X0303560Y0196722D01*
X0303515Y0196636D01*
X0303465Y0196553D01*
X0303412Y0196471D01*
X0303356Y0196392D01*
X0303297Y0196315D01*
X0303235Y0196241D01*
X0303169Y0196169D01*
X0303101Y0196100D01*
X0303030Y0196034D01*
X0302957Y0195971D01*
X0302880Y0195911D01*
X0302802Y0195854D01*
X0302721Y0195801D01*
X0302638Y0195750D01*
X0302553Y0195704D01*
X0302466Y0195660D01*
X0302378Y0195621D01*
X0302288Y0195585D01*
X0302196Y0195553D01*
X0302103Y0195524D01*
X0302010Y0195500D01*
X0301915Y0195479D01*
X0301819Y0195462D01*
X0301723Y0195449D01*
X0301627Y0195440D01*
X0301530Y0195435D01*
X0301433Y0195434D01*
X0301336Y0195437D01*
X0301239Y0195444D01*
X0301143Y0195455D01*
X0301047Y0195470D01*
X0300952Y0195489D01*
X0300857Y0195511D01*
X0300764Y0195538D01*
X0300672Y0195568D01*
X0300581Y0195602D01*
X0300492Y0195640D01*
X0300404Y0195682D01*
X0300318Y0195727D01*
X0300234Y0195775D01*
X0300152Y0195827D01*
X0300073Y0195882D01*
X0299995Y0195941D01*
X0299920Y0196002D01*
X0299848Y0196067D01*
X0299778Y0196134D01*
X0299711Y0196205D01*
X0299648Y0196278D01*
X0299587Y0196353D01*
X0299529Y0196431D01*
X0299475Y0196512D01*
X0299424Y0196594D01*
X0299376Y0196679D01*
X0299332Y0196765D01*
X0299291Y0196853D01*
X0299255Y0196943D01*
X0299221Y0197034D01*
X0299192Y0197126D01*
X0299166Y0197220D01*
X0299145Y0197314D01*
X0299127Y0197410D01*
X0299113Y0197506D01*
X0299103Y0197602D01*
X0299097Y0197699D01*
X0299095Y0197796D01*
X0314016Y0202284D02*
X0314018Y0202415D01*
X0314024Y0202547D01*
X0314034Y0202678D01*
X0314048Y0202809D01*
X0314066Y0202939D01*
X0314088Y0203068D01*
X0314113Y0203197D01*
X0314143Y0203325D01*
X0314177Y0203452D01*
X0314214Y0203579D01*
X0314255Y0203703D01*
X0314300Y0203827D01*
X0314349Y0203949D01*
X0314401Y0204070D01*
X0314457Y0204188D01*
X0314517Y0204306D01*
X0314580Y0204421D01*
X0314647Y0204534D01*
X0314717Y0204646D01*
X0314790Y0204755D01*
X0314866Y0204861D01*
X0314946Y0204966D01*
X0315029Y0205068D01*
X0315115Y0205167D01*
X0315204Y0205264D01*
X0315296Y0205358D01*
X0315391Y0205449D01*
X0315488Y0205538D01*
X0315588Y0205623D01*
X0315691Y0205705D01*
X0315796Y0205784D01*
X0315903Y0205860D01*
X0316013Y0205932D01*
X0316125Y0206001D01*
X0316239Y0206067D01*
X0316354Y0206129D01*
X0316472Y0206188D01*
X0316591Y0206243D01*
X0316712Y0206295D01*
X0316835Y0206342D01*
X0316959Y0206386D01*
X0317084Y0206427D01*
X0317210Y0206463D01*
X0317338Y0206496D01*
X0317466Y0206524D01*
X0317595Y0206549D01*
X0317725Y0206570D01*
X0317855Y0206587D01*
X0317986Y0206600D01*
X0318117Y0206609D01*
X0318248Y0206614D01*
X0318380Y0206615D01*
X0318511Y0206612D01*
X0318643Y0206605D01*
X0318774Y0206594D01*
X0318904Y0206579D01*
X0319034Y0206560D01*
X0319164Y0206537D01*
X0319292Y0206511D01*
X0319420Y0206480D01*
X0319547Y0206445D01*
X0319673Y0206407D01*
X0319797Y0206365D01*
X0319921Y0206319D01*
X0320042Y0206269D01*
X0320162Y0206216D01*
X0320281Y0206159D01*
X0320398Y0206099D01*
X0320512Y0206035D01*
X0320625Y0205967D01*
X0320736Y0205896D01*
X0320845Y0205822D01*
X0320951Y0205745D01*
X0321055Y0205664D01*
X0321156Y0205581D01*
X0321255Y0205494D01*
X0321351Y0205404D01*
X0321444Y0205311D01*
X0321535Y0205216D01*
X0321622Y0205118D01*
X0321707Y0205017D01*
X0321788Y0204914D01*
X0321866Y0204808D01*
X0321941Y0204700D01*
X0322013Y0204590D01*
X0322081Y0204478D01*
X0322146Y0204364D01*
X0322207Y0204247D01*
X0322265Y0204129D01*
X0322319Y0204009D01*
X0322370Y0203888D01*
X0322417Y0203765D01*
X0322460Y0203641D01*
X0322499Y0203516D01*
X0322535Y0203389D01*
X0322566Y0203261D01*
X0322594Y0203133D01*
X0322618Y0203004D01*
X0322638Y0202874D01*
X0322654Y0202743D01*
X0322666Y0202612D01*
X0322674Y0202481D01*
X0322678Y0202350D01*
X0322678Y0202218D01*
X0322674Y0202087D01*
X0322666Y0201956D01*
X0322654Y0201825D01*
X0322638Y0201694D01*
X0322618Y0201564D01*
X0322594Y0201435D01*
X0322566Y0201307D01*
X0322535Y0201179D01*
X0322499Y0201052D01*
X0322460Y0200927D01*
X0322417Y0200803D01*
X0322370Y0200680D01*
X0322319Y0200559D01*
X0322265Y0200439D01*
X0322207Y0200321D01*
X0322146Y0200204D01*
X0322081Y0200090D01*
X0322013Y0199978D01*
X0321941Y0199868D01*
X0321866Y0199760D01*
X0321788Y0199654D01*
X0321707Y0199551D01*
X0321622Y0199450D01*
X0321535Y0199352D01*
X0321444Y0199257D01*
X0321351Y0199164D01*
X0321255Y0199074D01*
X0321156Y0198987D01*
X0321055Y0198904D01*
X0320951Y0198823D01*
X0320845Y0198746D01*
X0320736Y0198672D01*
X0320625Y0198601D01*
X0320513Y0198533D01*
X0320398Y0198469D01*
X0320281Y0198409D01*
X0320162Y0198352D01*
X0320042Y0198299D01*
X0319921Y0198249D01*
X0319797Y0198203D01*
X0319673Y0198161D01*
X0319547Y0198123D01*
X0319420Y0198088D01*
X0319292Y0198057D01*
X0319164Y0198031D01*
X0319034Y0198008D01*
X0318904Y0197989D01*
X0318774Y0197974D01*
X0318643Y0197963D01*
X0318511Y0197956D01*
X0318380Y0197953D01*
X0318248Y0197954D01*
X0318117Y0197959D01*
X0317986Y0197968D01*
X0317855Y0197981D01*
X0317725Y0197998D01*
X0317595Y0198019D01*
X0317466Y0198044D01*
X0317338Y0198072D01*
X0317210Y0198105D01*
X0317084Y0198141D01*
X0316959Y0198182D01*
X0316835Y0198226D01*
X0316712Y0198273D01*
X0316591Y0198325D01*
X0316472Y0198380D01*
X0316354Y0198439D01*
X0316239Y0198501D01*
X0316125Y0198567D01*
X0316013Y0198636D01*
X0315903Y0198708D01*
X0315796Y0198784D01*
X0315691Y0198863D01*
X0315588Y0198945D01*
X0315488Y0199030D01*
X0315391Y0199119D01*
X0315296Y0199210D01*
X0315204Y0199304D01*
X0315115Y0199401D01*
X0315029Y0199500D01*
X0314946Y0199602D01*
X0314866Y0199707D01*
X0314790Y0199813D01*
X0314717Y0199922D01*
X0314647Y0200034D01*
X0314580Y0200147D01*
X0314517Y0200262D01*
X0314457Y0200380D01*
X0314401Y0200498D01*
X0314349Y0200619D01*
X0314300Y0200741D01*
X0314255Y0200865D01*
X0314214Y0200989D01*
X0314177Y0201116D01*
X0314143Y0201243D01*
X0314113Y0201371D01*
X0314088Y0201500D01*
X0314066Y0201629D01*
X0314048Y0201759D01*
X0314034Y0201890D01*
X0314024Y0202021D01*
X0314018Y0202153D01*
X0314016Y0202284D01*
X0371379Y0017048D02*
X0371381Y0017241D01*
X0371388Y0017434D01*
X0371400Y0017627D01*
X0371417Y0017820D01*
X0371438Y0018012D01*
X0371464Y0018203D01*
X0371495Y0018394D01*
X0371530Y0018584D01*
X0371570Y0018773D01*
X0371615Y0018961D01*
X0371664Y0019148D01*
X0371718Y0019334D01*
X0371776Y0019518D01*
X0371839Y0019701D01*
X0371907Y0019882D01*
X0371978Y0020061D01*
X0372055Y0020239D01*
X0372135Y0020415D01*
X0372220Y0020588D01*
X0372309Y0020760D01*
X0372402Y0020929D01*
X0372499Y0021096D01*
X0372601Y0021261D01*
X0372706Y0021423D01*
X0372815Y0021582D01*
X0372929Y0021739D01*
X0373046Y0021892D01*
X0373166Y0022043D01*
X0373291Y0022191D01*
X0373419Y0022336D01*
X0373550Y0022477D01*
X0373685Y0022616D01*
X0373824Y0022751D01*
X0373965Y0022882D01*
X0374110Y0023010D01*
X0374258Y0023135D01*
X0374409Y0023255D01*
X0374562Y0023372D01*
X0374719Y0023486D01*
X0374878Y0023595D01*
X0375040Y0023700D01*
X0375205Y0023802D01*
X0375372Y0023899D01*
X0375541Y0023992D01*
X0375713Y0024081D01*
X0375886Y0024166D01*
X0376062Y0024246D01*
X0376240Y0024323D01*
X0376419Y0024394D01*
X0376600Y0024462D01*
X0376783Y0024525D01*
X0376967Y0024583D01*
X0377153Y0024637D01*
X0377340Y0024686D01*
X0377528Y0024731D01*
X0377717Y0024771D01*
X0377907Y0024806D01*
X0378098Y0024837D01*
X0378289Y0024863D01*
X0378481Y0024884D01*
X0378674Y0024901D01*
X0378867Y0024913D01*
X0379060Y0024920D01*
X0379253Y0024922D01*
X0379446Y0024920D01*
X0379639Y0024913D01*
X0379832Y0024901D01*
X0380025Y0024884D01*
X0380217Y0024863D01*
X0380408Y0024837D01*
X0380599Y0024806D01*
X0380789Y0024771D01*
X0380978Y0024731D01*
X0381166Y0024686D01*
X0381353Y0024637D01*
X0381539Y0024583D01*
X0381723Y0024525D01*
X0381906Y0024462D01*
X0382087Y0024394D01*
X0382266Y0024323D01*
X0382444Y0024246D01*
X0382620Y0024166D01*
X0382793Y0024081D01*
X0382965Y0023992D01*
X0383134Y0023899D01*
X0383301Y0023802D01*
X0383466Y0023700D01*
X0383628Y0023595D01*
X0383787Y0023486D01*
X0383944Y0023372D01*
X0384097Y0023255D01*
X0384248Y0023135D01*
X0384396Y0023010D01*
X0384541Y0022882D01*
X0384682Y0022751D01*
X0384821Y0022616D01*
X0384956Y0022477D01*
X0385087Y0022336D01*
X0385215Y0022191D01*
X0385340Y0022043D01*
X0385460Y0021892D01*
X0385577Y0021739D01*
X0385691Y0021582D01*
X0385800Y0021423D01*
X0385905Y0021261D01*
X0386007Y0021096D01*
X0386104Y0020929D01*
X0386197Y0020760D01*
X0386286Y0020588D01*
X0386371Y0020415D01*
X0386451Y0020239D01*
X0386528Y0020061D01*
X0386599Y0019882D01*
X0386667Y0019701D01*
X0386730Y0019518D01*
X0386788Y0019334D01*
X0386842Y0019148D01*
X0386891Y0018961D01*
X0386936Y0018773D01*
X0386976Y0018584D01*
X0387011Y0018394D01*
X0387042Y0018203D01*
X0387068Y0018012D01*
X0387089Y0017820D01*
X0387106Y0017627D01*
X0387118Y0017434D01*
X0387125Y0017241D01*
X0387127Y0017048D01*
X0387125Y0016855D01*
X0387118Y0016662D01*
X0387106Y0016469D01*
X0387089Y0016276D01*
X0387068Y0016084D01*
X0387042Y0015893D01*
X0387011Y0015702D01*
X0386976Y0015512D01*
X0386936Y0015323D01*
X0386891Y0015135D01*
X0386842Y0014948D01*
X0386788Y0014762D01*
X0386730Y0014578D01*
X0386667Y0014395D01*
X0386599Y0014214D01*
X0386528Y0014035D01*
X0386451Y0013857D01*
X0386371Y0013681D01*
X0386286Y0013508D01*
X0386197Y0013336D01*
X0386104Y0013167D01*
X0386007Y0013000D01*
X0385905Y0012835D01*
X0385800Y0012673D01*
X0385691Y0012514D01*
X0385577Y0012357D01*
X0385460Y0012204D01*
X0385340Y0012053D01*
X0385215Y0011905D01*
X0385087Y0011760D01*
X0384956Y0011619D01*
X0384821Y0011480D01*
X0384682Y0011345D01*
X0384541Y0011214D01*
X0384396Y0011086D01*
X0384248Y0010961D01*
X0384097Y0010841D01*
X0383944Y0010724D01*
X0383787Y0010610D01*
X0383628Y0010501D01*
X0383466Y0010396D01*
X0383301Y0010294D01*
X0383134Y0010197D01*
X0382965Y0010104D01*
X0382793Y0010015D01*
X0382620Y0009930D01*
X0382444Y0009850D01*
X0382266Y0009773D01*
X0382087Y0009702D01*
X0381906Y0009634D01*
X0381723Y0009571D01*
X0381539Y0009513D01*
X0381353Y0009459D01*
X0381166Y0009410D01*
X0380978Y0009365D01*
X0380789Y0009325D01*
X0380599Y0009290D01*
X0380408Y0009259D01*
X0380217Y0009233D01*
X0380025Y0009212D01*
X0379832Y0009195D01*
X0379639Y0009183D01*
X0379446Y0009176D01*
X0379253Y0009174D01*
X0379060Y0009176D01*
X0378867Y0009183D01*
X0378674Y0009195D01*
X0378481Y0009212D01*
X0378289Y0009233D01*
X0378098Y0009259D01*
X0377907Y0009290D01*
X0377717Y0009325D01*
X0377528Y0009365D01*
X0377340Y0009410D01*
X0377153Y0009459D01*
X0376967Y0009513D01*
X0376783Y0009571D01*
X0376600Y0009634D01*
X0376419Y0009702D01*
X0376240Y0009773D01*
X0376062Y0009850D01*
X0375886Y0009930D01*
X0375713Y0010015D01*
X0375541Y0010104D01*
X0375372Y0010197D01*
X0375205Y0010294D01*
X0375040Y0010396D01*
X0374878Y0010501D01*
X0374719Y0010610D01*
X0374562Y0010724D01*
X0374409Y0010841D01*
X0374258Y0010961D01*
X0374110Y0011086D01*
X0373965Y0011214D01*
X0373824Y0011345D01*
X0373685Y0011480D01*
X0373550Y0011619D01*
X0373419Y0011760D01*
X0373291Y0011905D01*
X0373166Y0012053D01*
X0373046Y0012204D01*
X0372929Y0012357D01*
X0372815Y0012514D01*
X0372706Y0012673D01*
X0372601Y0012835D01*
X0372499Y0013000D01*
X0372402Y0013167D01*
X0372309Y0013336D01*
X0372220Y0013508D01*
X0372135Y0013681D01*
X0372055Y0013857D01*
X0371978Y0014035D01*
X0371907Y0014214D01*
X0371839Y0014395D01*
X0371776Y0014578D01*
X0371718Y0014762D01*
X0371664Y0014948D01*
X0371615Y0015135D01*
X0371570Y0015323D01*
X0371530Y0015512D01*
X0371495Y0015702D01*
X0371464Y0015893D01*
X0371438Y0016084D01*
X0371417Y0016276D01*
X0371400Y0016469D01*
X0371388Y0016662D01*
X0371381Y0016855D01*
X0371379Y0017048D01*
X0009174Y0288702D02*
X0009176Y0288895D01*
X0009183Y0289088D01*
X0009195Y0289281D01*
X0009212Y0289474D01*
X0009233Y0289666D01*
X0009259Y0289857D01*
X0009290Y0290048D01*
X0009325Y0290238D01*
X0009365Y0290427D01*
X0009410Y0290615D01*
X0009459Y0290802D01*
X0009513Y0290988D01*
X0009571Y0291172D01*
X0009634Y0291355D01*
X0009702Y0291536D01*
X0009773Y0291715D01*
X0009850Y0291893D01*
X0009930Y0292069D01*
X0010015Y0292242D01*
X0010104Y0292414D01*
X0010197Y0292583D01*
X0010294Y0292750D01*
X0010396Y0292915D01*
X0010501Y0293077D01*
X0010610Y0293236D01*
X0010724Y0293393D01*
X0010841Y0293546D01*
X0010961Y0293697D01*
X0011086Y0293845D01*
X0011214Y0293990D01*
X0011345Y0294131D01*
X0011480Y0294270D01*
X0011619Y0294405D01*
X0011760Y0294536D01*
X0011905Y0294664D01*
X0012053Y0294789D01*
X0012204Y0294909D01*
X0012357Y0295026D01*
X0012514Y0295140D01*
X0012673Y0295249D01*
X0012835Y0295354D01*
X0013000Y0295456D01*
X0013167Y0295553D01*
X0013336Y0295646D01*
X0013508Y0295735D01*
X0013681Y0295820D01*
X0013857Y0295900D01*
X0014035Y0295977D01*
X0014214Y0296048D01*
X0014395Y0296116D01*
X0014578Y0296179D01*
X0014762Y0296237D01*
X0014948Y0296291D01*
X0015135Y0296340D01*
X0015323Y0296385D01*
X0015512Y0296425D01*
X0015702Y0296460D01*
X0015893Y0296491D01*
X0016084Y0296517D01*
X0016276Y0296538D01*
X0016469Y0296555D01*
X0016662Y0296567D01*
X0016855Y0296574D01*
X0017048Y0296576D01*
X0017241Y0296574D01*
X0017434Y0296567D01*
X0017627Y0296555D01*
X0017820Y0296538D01*
X0018012Y0296517D01*
X0018203Y0296491D01*
X0018394Y0296460D01*
X0018584Y0296425D01*
X0018773Y0296385D01*
X0018961Y0296340D01*
X0019148Y0296291D01*
X0019334Y0296237D01*
X0019518Y0296179D01*
X0019701Y0296116D01*
X0019882Y0296048D01*
X0020061Y0295977D01*
X0020239Y0295900D01*
X0020415Y0295820D01*
X0020588Y0295735D01*
X0020760Y0295646D01*
X0020929Y0295553D01*
X0021096Y0295456D01*
X0021261Y0295354D01*
X0021423Y0295249D01*
X0021582Y0295140D01*
X0021739Y0295026D01*
X0021892Y0294909D01*
X0022043Y0294789D01*
X0022191Y0294664D01*
X0022336Y0294536D01*
X0022477Y0294405D01*
X0022616Y0294270D01*
X0022751Y0294131D01*
X0022882Y0293990D01*
X0023010Y0293845D01*
X0023135Y0293697D01*
X0023255Y0293546D01*
X0023372Y0293393D01*
X0023486Y0293236D01*
X0023595Y0293077D01*
X0023700Y0292915D01*
X0023802Y0292750D01*
X0023899Y0292583D01*
X0023992Y0292414D01*
X0024081Y0292242D01*
X0024166Y0292069D01*
X0024246Y0291893D01*
X0024323Y0291715D01*
X0024394Y0291536D01*
X0024462Y0291355D01*
X0024525Y0291172D01*
X0024583Y0290988D01*
X0024637Y0290802D01*
X0024686Y0290615D01*
X0024731Y0290427D01*
X0024771Y0290238D01*
X0024806Y0290048D01*
X0024837Y0289857D01*
X0024863Y0289666D01*
X0024884Y0289474D01*
X0024901Y0289281D01*
X0024913Y0289088D01*
X0024920Y0288895D01*
X0024922Y0288702D01*
X0024920Y0288509D01*
X0024913Y0288316D01*
X0024901Y0288123D01*
X0024884Y0287930D01*
X0024863Y0287738D01*
X0024837Y0287547D01*
X0024806Y0287356D01*
X0024771Y0287166D01*
X0024731Y0286977D01*
X0024686Y0286789D01*
X0024637Y0286602D01*
X0024583Y0286416D01*
X0024525Y0286232D01*
X0024462Y0286049D01*
X0024394Y0285868D01*
X0024323Y0285689D01*
X0024246Y0285511D01*
X0024166Y0285335D01*
X0024081Y0285162D01*
X0023992Y0284990D01*
X0023899Y0284821D01*
X0023802Y0284654D01*
X0023700Y0284489D01*
X0023595Y0284327D01*
X0023486Y0284168D01*
X0023372Y0284011D01*
X0023255Y0283858D01*
X0023135Y0283707D01*
X0023010Y0283559D01*
X0022882Y0283414D01*
X0022751Y0283273D01*
X0022616Y0283134D01*
X0022477Y0282999D01*
X0022336Y0282868D01*
X0022191Y0282740D01*
X0022043Y0282615D01*
X0021892Y0282495D01*
X0021739Y0282378D01*
X0021582Y0282264D01*
X0021423Y0282155D01*
X0021261Y0282050D01*
X0021096Y0281948D01*
X0020929Y0281851D01*
X0020760Y0281758D01*
X0020588Y0281669D01*
X0020415Y0281584D01*
X0020239Y0281504D01*
X0020061Y0281427D01*
X0019882Y0281356D01*
X0019701Y0281288D01*
X0019518Y0281225D01*
X0019334Y0281167D01*
X0019148Y0281113D01*
X0018961Y0281064D01*
X0018773Y0281019D01*
X0018584Y0280979D01*
X0018394Y0280944D01*
X0018203Y0280913D01*
X0018012Y0280887D01*
X0017820Y0280866D01*
X0017627Y0280849D01*
X0017434Y0280837D01*
X0017241Y0280830D01*
X0017048Y0280828D01*
X0016855Y0280830D01*
X0016662Y0280837D01*
X0016469Y0280849D01*
X0016276Y0280866D01*
X0016084Y0280887D01*
X0015893Y0280913D01*
X0015702Y0280944D01*
X0015512Y0280979D01*
X0015323Y0281019D01*
X0015135Y0281064D01*
X0014948Y0281113D01*
X0014762Y0281167D01*
X0014578Y0281225D01*
X0014395Y0281288D01*
X0014214Y0281356D01*
X0014035Y0281427D01*
X0013857Y0281504D01*
X0013681Y0281584D01*
X0013508Y0281669D01*
X0013336Y0281758D01*
X0013167Y0281851D01*
X0013000Y0281948D01*
X0012835Y0282050D01*
X0012673Y0282155D01*
X0012514Y0282264D01*
X0012357Y0282378D01*
X0012204Y0282495D01*
X0012053Y0282615D01*
X0011905Y0282740D01*
X0011760Y0282868D01*
X0011619Y0282999D01*
X0011480Y0283134D01*
X0011345Y0283273D01*
X0011214Y0283414D01*
X0011086Y0283559D01*
X0010961Y0283707D01*
X0010841Y0283858D01*
X0010724Y0284011D01*
X0010610Y0284168D01*
X0010501Y0284327D01*
X0010396Y0284489D01*
X0010294Y0284654D01*
X0010197Y0284821D01*
X0010104Y0284990D01*
X0010015Y0285162D01*
X0009930Y0285335D01*
X0009850Y0285511D01*
X0009773Y0285689D01*
X0009702Y0285868D01*
X0009634Y0286049D01*
X0009571Y0286232D01*
X0009513Y0286416D01*
X0009459Y0286602D01*
X0009410Y0286789D01*
X0009365Y0286977D01*
X0009325Y0287166D01*
X0009290Y0287356D01*
X0009259Y0287547D01*
X0009233Y0287738D01*
X0009212Y0287930D01*
X0009195Y0288123D01*
X0009183Y0288316D01*
X0009176Y0288509D01*
X0009174Y0288702D01*
M02*
