G75*
%MOIN*%
%OFA0B0*%
%FSLAX25Y25*%
%IPPOS*%
%LPD*%
%AMOC8*
5,1,8,0,0,1.08239X$1,22.5*
%
%ADD10C,0.16548*%
%ADD11C,0.08200*%
%ADD12C,0.17398*%
%ADD13C,0.15824*%
%ADD14OC8,0.06000*%
%ADD15C,0.06737*%
%ADD16R,0.06737X0.06737*%
%ADD17R,0.06706X0.03162*%
%ADD18C,0.07400*%
%ADD19C,0.09461*%
%ADD20C,0.05524*%
%ADD21R,0.03162X0.09800*%
%ADD22C,0.04572*%
%ADD23C,0.06540*%
%ADD24C,0.10544*%
%ADD25R,0.07099X0.05918*%
%ADD26R,0.06706X0.05918*%
%ADD27C,0.07800*%
%ADD28C,0.12611*%
%ADD29C,0.03900*%
D10*
X0017475Y0017048D03*
X0017475Y0379253D03*
X0379680Y0379253D03*
X0379680Y0017048D03*
D11*
X0384424Y0053434D03*
X0383424Y0063434D03*
X0384424Y0073434D03*
X0384514Y0083485D03*
X0383514Y0093485D03*
X0384514Y0103485D03*
X0384369Y0117501D03*
X0383369Y0127501D03*
X0384369Y0137501D03*
X0383369Y0147501D03*
X0384369Y0157501D03*
X0384431Y0171221D03*
X0383431Y0181221D03*
X0384431Y0191221D03*
X0384353Y0201190D03*
X0383353Y0211190D03*
X0384353Y0221190D03*
X0384282Y0235202D03*
X0383282Y0245202D03*
X0384282Y0255202D03*
X0384180Y0265182D03*
X0383180Y0275182D03*
X0384180Y0285182D03*
X0384117Y0299131D03*
X0383117Y0309131D03*
X0384117Y0319131D03*
X0384160Y0329103D03*
X0383160Y0339103D03*
X0384160Y0349103D03*
X0328813Y0258969D03*
X0318813Y0258969D03*
X0308813Y0258969D03*
X0298813Y0258969D03*
X0288813Y0258969D03*
X0288813Y0247969D03*
X0298813Y0247969D03*
X0308813Y0247969D03*
X0318813Y0247969D03*
X0328813Y0247969D03*
X0328813Y0199556D03*
X0318813Y0199556D03*
X0318813Y0188556D03*
X0328813Y0188556D03*
X0308813Y0188556D03*
X0298813Y0188556D03*
X0298813Y0199556D03*
X0308813Y0199556D03*
X0288813Y0199556D03*
X0288813Y0188556D03*
X0288813Y0156446D03*
X0298813Y0156446D03*
X0308813Y0156446D03*
X0318813Y0156446D03*
X0328813Y0156446D03*
X0328813Y0145446D03*
X0318813Y0145446D03*
X0308813Y0145446D03*
X0298813Y0145446D03*
X0288813Y0145446D03*
X0288813Y0042233D03*
X0298813Y0042233D03*
X0308813Y0042233D03*
X0318813Y0042233D03*
X0328813Y0042233D03*
X0328813Y0031233D03*
X0318813Y0031233D03*
X0308813Y0031233D03*
X0298813Y0031233D03*
X0288813Y0031233D03*
X0096530Y0031233D03*
X0086530Y0031233D03*
X0076530Y0031233D03*
X0066530Y0031233D03*
X0056530Y0031233D03*
X0056530Y0042233D03*
X0066530Y0042233D03*
X0076530Y0042233D03*
X0086530Y0042233D03*
X0096530Y0042233D03*
X0014550Y0064910D03*
X0013550Y0074910D03*
X0014550Y0084910D03*
X0014424Y0094973D03*
X0013424Y0104973D03*
X0014424Y0114973D03*
X0012294Y0143509D03*
X0013294Y0153509D03*
X0012294Y0163509D03*
X0013294Y0173509D03*
X0012294Y0183509D03*
X0013557Y0211820D03*
X0012557Y0221820D03*
X0013557Y0231820D03*
X0013380Y0241891D03*
X0012380Y0251891D03*
X0013380Y0261891D03*
X0013026Y0293871D03*
X0012026Y0303871D03*
X0013026Y0313871D03*
X0012829Y0323938D03*
X0011829Y0333938D03*
X0012829Y0343938D03*
X0053700Y0382477D03*
X0065100Y0382477D03*
X0067278Y0286328D03*
X0057278Y0286328D03*
X0057278Y0275328D03*
X0067278Y0275328D03*
X0077278Y0275328D03*
X0087278Y0275328D03*
X0097278Y0275328D03*
X0097278Y0286328D03*
X0087278Y0286328D03*
X0077278Y0286328D03*
X0076530Y0207548D03*
X0086530Y0207548D03*
X0086530Y0196548D03*
X0076530Y0196548D03*
X0066530Y0196548D03*
X0056530Y0196548D03*
X0056530Y0207548D03*
X0066530Y0207548D03*
X0096530Y0207548D03*
X0096530Y0196548D03*
D12*
X0104325Y0349331D03*
X0235349Y0349331D03*
X0338794Y0349331D03*
D13*
X0357691Y0360552D03*
X0338794Y0373938D03*
X0254246Y0360552D03*
X0235349Y0373938D03*
X0123223Y0360552D03*
X0104325Y0373938D03*
D14*
X0174955Y0352757D03*
X0174955Y0342757D03*
D15*
X0171428Y0329524D03*
X0171428Y0319524D03*
X0171428Y0309524D03*
X0171428Y0299524D03*
X0161428Y0299524D03*
X0161428Y0309524D03*
X0161428Y0319524D03*
X0161428Y0329524D03*
X0151428Y0339524D03*
X0151428Y0349524D03*
X0151428Y0359524D03*
X0141428Y0359524D03*
X0141428Y0369524D03*
X0141428Y0379524D03*
X0141428Y0389524D03*
X0151428Y0379524D03*
X0141428Y0349524D03*
X0141428Y0339524D03*
X0141428Y0329524D03*
X0141428Y0319524D03*
X0141428Y0309524D03*
X0141428Y0299524D03*
X0141428Y0289524D03*
X0141428Y0279524D03*
X0141428Y0269524D03*
X0141428Y0259524D03*
X0141428Y0249524D03*
X0141428Y0239524D03*
X0141428Y0229524D03*
X0141428Y0219524D03*
X0141428Y0209524D03*
X0151428Y0209524D03*
X0161428Y0209524D03*
X0161428Y0219524D03*
X0171428Y0219524D03*
X0171428Y0209524D03*
X0181428Y0209524D03*
X0191428Y0209524D03*
X0201428Y0209524D03*
X0201428Y0219524D03*
X0201428Y0229524D03*
X0201428Y0239524D03*
X0201428Y0249524D03*
X0201428Y0259524D03*
X0201428Y0269524D03*
X0201428Y0279524D03*
X0201428Y0289524D03*
X0201428Y0299524D03*
X0201428Y0309524D03*
X0201428Y0319524D03*
X0201428Y0329524D03*
X0201428Y0339524D03*
X0201428Y0349524D03*
X0201428Y0359524D03*
X0201428Y0369524D03*
X0201428Y0379524D03*
X0171428Y0239524D03*
X0171428Y0229524D03*
X0161428Y0229524D03*
X0161428Y0239524D03*
X0161428Y0199524D03*
X0161428Y0189524D03*
X0161428Y0179524D03*
X0171428Y0179524D03*
X0171428Y0189524D03*
X0171428Y0199524D03*
X0201428Y0199524D03*
X0201428Y0189524D03*
X0201428Y0179524D03*
X0201428Y0169524D03*
X0201428Y0159524D03*
X0171428Y0159524D03*
X0171428Y0169524D03*
X0161428Y0169524D03*
X0161428Y0159524D03*
X0141428Y0159524D03*
X0141428Y0169524D03*
X0141428Y0179524D03*
X0141428Y0189524D03*
X0141428Y0199524D03*
D16*
X0201428Y0389524D03*
D17*
X0216321Y0330938D03*
X0216321Y0325938D03*
X0216321Y0320938D03*
X0216321Y0315938D03*
X0216321Y0310938D03*
X0216321Y0305938D03*
X0216321Y0300938D03*
X0216321Y0295938D03*
X0216321Y0290938D03*
X0216321Y0285938D03*
X0254117Y0285938D03*
X0254117Y0290938D03*
X0254117Y0295938D03*
X0254117Y0300938D03*
X0254117Y0305938D03*
X0254117Y0310938D03*
X0254117Y0315938D03*
X0254117Y0320938D03*
X0254117Y0325938D03*
X0254117Y0330938D03*
X0118341Y0174154D03*
X0118341Y0169154D03*
X0118341Y0164154D03*
X0118341Y0159154D03*
X0118341Y0154154D03*
X0118341Y0149154D03*
X0118341Y0144154D03*
X0118341Y0139154D03*
X0118341Y0134154D03*
X0118341Y0129154D03*
X0080546Y0129154D03*
X0080546Y0134154D03*
X0080546Y0139154D03*
X0080546Y0144154D03*
X0080546Y0149154D03*
X0080546Y0154154D03*
X0080546Y0159154D03*
X0080546Y0164154D03*
X0080546Y0169154D03*
X0080546Y0174154D03*
D18*
X0105900Y0227520D03*
X0115900Y0227520D03*
X0125900Y0227520D03*
X0125900Y0247520D03*
X0115900Y0247520D03*
X0105900Y0247520D03*
X0224010Y0247520D03*
X0234010Y0247520D03*
X0244010Y0247520D03*
X0244010Y0227520D03*
X0234010Y0227520D03*
X0224010Y0227520D03*
X0224010Y0097914D03*
X0234010Y0097914D03*
X0244010Y0097914D03*
X0244010Y0077914D03*
X0234010Y0077914D03*
X0224010Y0077914D03*
X0125900Y0077914D03*
X0115900Y0077914D03*
X0105900Y0077914D03*
X0105900Y0097914D03*
X0115900Y0097914D03*
X0125900Y0097914D03*
D19*
X0125861Y0088111D03*
X0243971Y0088111D03*
X0243971Y0237717D03*
X0125861Y0237717D03*
D20*
X0108971Y0241851D03*
X0108971Y0233229D03*
X0227081Y0233229D03*
X0227081Y0241851D03*
X0227081Y0092245D03*
X0227081Y0083623D03*
X0108971Y0083623D03*
X0108971Y0092245D03*
D21*
X0225605Y0135001D03*
X0230605Y0135001D03*
X0235605Y0135001D03*
X0240605Y0135001D03*
X0240605Y0161221D03*
X0235605Y0161221D03*
X0230605Y0161221D03*
X0225605Y0161221D03*
D22*
X0274172Y0290513D03*
X0284172Y0290513D03*
D23*
X0314172Y0290513D03*
X0344172Y0290513D03*
D24*
X0174955Y0145788D03*
X0174955Y0127284D03*
X0174955Y0108780D03*
D25*
X0178892Y0075906D03*
X0178892Y0068426D03*
X0167081Y0068426D03*
X0167081Y0075906D03*
X0155270Y0075906D03*
X0155270Y0068426D03*
D26*
X0190703Y0068426D03*
X0190703Y0075906D03*
D27*
X0283065Y0074135D03*
X0293065Y0074135D03*
X0303065Y0074135D03*
X0066845Y0074135D03*
X0056845Y0074135D03*
X0046845Y0074135D03*
X0046845Y0318229D03*
X0056845Y0318229D03*
X0066845Y0318229D03*
X0283065Y0318229D03*
X0293065Y0318229D03*
X0303065Y0318229D03*
D28*
X0311963Y0347757D03*
X0274168Y0347757D03*
X0075742Y0347757D03*
X0037947Y0347757D03*
X0037947Y0103662D03*
X0075742Y0103662D03*
X0274168Y0103662D03*
X0311963Y0103662D03*
D29*
X0300127Y0134100D03*
X0266527Y0132500D03*
X0248527Y0145700D03*
X0244527Y0181700D03*
X0241327Y0184500D03*
X0226127Y0188100D03*
X0209327Y0185300D03*
X0206127Y0173300D03*
X0193327Y0170900D03*
X0191327Y0158100D03*
X0176527Y0156500D03*
X0164527Y0174500D03*
X0155727Y0179700D03*
X0152927Y0176100D03*
X0144927Y0184100D03*
X0147327Y0188100D03*
X0135727Y0187300D03*
X0133327Y0172500D03*
X0121727Y0182100D03*
X0110527Y0186500D03*
X0107327Y0183300D03*
X0107327Y0172500D03*
X0102127Y0169300D03*
X0110927Y0166100D03*
X0112527Y0158100D03*
X0124127Y0148900D03*
X0133327Y0154900D03*
X0144127Y0148900D03*
X0145727Y0142500D03*
X0149327Y0136900D03*
X0145727Y0132900D03*
X0149327Y0128500D03*
X0142127Y0126500D03*
X0135327Y0123700D03*
X0145327Y0118100D03*
X0131727Y0112100D03*
X0123327Y0125300D03*
X0111327Y0129700D03*
X0104527Y0122900D03*
X0093327Y0126100D03*
X0096527Y0136100D03*
X0086127Y0153300D03*
X0073327Y0159700D03*
X0056127Y0166500D03*
X0032527Y0163300D03*
X0020127Y0170500D03*
X0043327Y0191300D03*
X0039727Y0194900D03*
X0046927Y0205300D03*
X0065327Y0216900D03*
X0060527Y0234100D03*
X0068527Y0235700D03*
X0063727Y0242100D03*
X0080527Y0242900D03*
X0105727Y0254100D03*
X0120127Y0272500D03*
X0117327Y0279300D03*
X0125727Y0278100D03*
X0110127Y0286500D03*
X0120527Y0295300D03*
X0144527Y0284500D03*
X0155727Y0291700D03*
X0152527Y0299300D03*
X0147727Y0304100D03*
X0179327Y0314500D03*
X0186127Y0321700D03*
X0182127Y0331700D03*
X0195727Y0350900D03*
X0194127Y0374100D03*
X0206527Y0372500D03*
X0175327Y0364500D03*
X0222127Y0310900D03*
X0245327Y0303300D03*
X0248527Y0287700D03*
X0260927Y0295700D03*
X0263327Y0282100D03*
X0284927Y0298900D03*
X0273727Y0316500D03*
X0261727Y0334500D03*
X0258127Y0348500D03*
X0267327Y0352900D03*
X0245327Y0330900D03*
X0238927Y0259300D03*
X0251727Y0256500D03*
X0264527Y0253300D03*
X0264527Y0248900D03*
X0267727Y0233300D03*
X0264527Y0230500D03*
X0258927Y0210900D03*
X0260527Y0206900D03*
X0270527Y0198900D03*
X0291327Y0210100D03*
X0302127Y0220900D03*
X0292127Y0235700D03*
X0288527Y0232100D03*
X0284527Y0226500D03*
X0279327Y0256500D03*
X0315327Y0273300D03*
X0319727Y0272500D03*
X0340527Y0265700D03*
X0356127Y0285300D03*
X0355327Y0289700D03*
X0359327Y0225300D03*
X0359327Y0214500D03*
X0339727Y0210500D03*
X0336527Y0204900D03*
X0336527Y0218100D03*
X0339727Y0180900D03*
X0381727Y0163700D03*
X0384927Y0110100D03*
X0355327Y0074500D03*
X0359327Y0065300D03*
X0328927Y0050900D03*
X0274927Y0082500D03*
X0269727Y0079700D03*
X0227727Y0106900D03*
X0206927Y0132100D03*
X0195327Y0125700D03*
X0186127Y0115300D03*
X0162527Y0128500D03*
X0162927Y0133300D03*
X0156927Y0144500D03*
X0133327Y0142500D03*
X0098127Y0105300D03*
X0093327Y0111700D03*
X0102127Y0086100D03*
X0081327Y0071300D03*
X0072127Y0088500D03*
X0054927Y0059300D03*
X0032927Y0074900D03*
X0023327Y0119300D03*
X0052927Y0121300D03*
X0102127Y0045700D03*
X0102127Y0034500D03*
X0134927Y0068900D03*
X0133327Y0076100D03*
X0162527Y0081300D03*
X0210127Y0067700D03*
X0214527Y0066900D03*
X0213327Y0044100D03*
X0176927Y0177300D03*
X0178527Y0194100D03*
X0193327Y0196900D03*
X0155727Y0225300D03*
X0144527Y0244500D03*
X0149327Y0252100D03*
X0153327Y0265300D03*
X0178527Y0245300D03*
X0194527Y0249300D03*
X0233727Y0210900D03*
X0238927Y0201300D03*
X0135727Y0226100D03*
X0122127Y0204500D03*
X0114527Y0208900D03*
X0102927Y0208900D03*
X0097727Y0214100D03*
X0099327Y0218900D03*
X0107327Y0193700D03*
X0056927Y0260100D03*
X0040927Y0251700D03*
X0048527Y0277700D03*
X0044527Y0288900D03*
X0042127Y0296500D03*
X0036927Y0306500D03*
X0032127Y0307300D03*
X0030127Y0303300D03*
X0023327Y0297700D03*
X0024127Y0293300D03*
X0013727Y0268500D03*
X0058127Y0311300D03*
X0065727Y0303700D03*
X0065727Y0294900D03*
X0076127Y0308900D03*
X0074927Y0329300D03*
X0034927Y0329300D03*
X0025327Y0211700D03*
M02*
