G75*
%MOIN*%
%OFA0B0*%
%FSLAX25Y25*%
%IPPOS*%
%LPD*%
%AMOC8*
5,1,8,0,0,1.08239X$1,22.5*
%
%ADD10C,0.07400*%
%ADD11C,0.16598*%
%ADD12C,0.15024*%
%ADD13OC8,0.05200*%
%ADD14C,0.05937*%
%ADD15R,0.05937X0.05937*%
%ADD16R,0.05906X0.02362*%
%ADD17C,0.06600*%
%ADD18R,0.02362X0.09000*%
%ADD19C,0.03772*%
%ADD20C,0.05740*%
%ADD21C,0.09744*%
%ADD22R,0.06299X0.05118*%
%ADD23R,0.05906X0.05118*%
%ADD24C,0.07000*%
%ADD25C,0.11811*%
%ADD26C,0.01000*%
%ADD27C,0.03100*%
%ADD28C,0.01500*%
D10*
X0056530Y0031233D03*
X0066530Y0031233D03*
X0076530Y0031233D03*
X0086530Y0031233D03*
X0096530Y0031233D03*
X0096530Y0042233D03*
X0086530Y0042233D03*
X0076530Y0042233D03*
X0066530Y0042233D03*
X0056530Y0042233D03*
X0014550Y0064910D03*
X0013550Y0074910D03*
X0014550Y0084910D03*
X0014424Y0094973D03*
X0013424Y0104973D03*
X0014424Y0114973D03*
X0012294Y0143509D03*
X0013294Y0153509D03*
X0012294Y0163509D03*
X0013294Y0173509D03*
X0012294Y0183509D03*
X0013557Y0211820D03*
X0012557Y0221820D03*
X0013557Y0231820D03*
X0013380Y0241891D03*
X0012380Y0251891D03*
X0013380Y0261891D03*
X0013026Y0293871D03*
X0012026Y0303871D03*
X0013026Y0313871D03*
X0012829Y0323938D03*
X0011829Y0333938D03*
X0012829Y0343938D03*
X0053700Y0382477D03*
X0065100Y0382477D03*
X0067278Y0286328D03*
X0057278Y0286328D03*
X0057278Y0275328D03*
X0067278Y0275328D03*
X0077278Y0275328D03*
X0087278Y0275328D03*
X0097278Y0275328D03*
X0097278Y0286328D03*
X0087278Y0286328D03*
X0077278Y0286328D03*
X0076530Y0207548D03*
X0086530Y0207548D03*
X0086530Y0196548D03*
X0076530Y0196548D03*
X0066530Y0196548D03*
X0056530Y0196548D03*
X0056530Y0207548D03*
X0066530Y0207548D03*
X0096530Y0207548D03*
X0096530Y0196548D03*
X0288813Y0199556D03*
X0288813Y0188556D03*
X0298813Y0188556D03*
X0308813Y0188556D03*
X0308813Y0199556D03*
X0298813Y0199556D03*
X0318813Y0199556D03*
X0328813Y0199556D03*
X0328813Y0188556D03*
X0318813Y0188556D03*
X0318813Y0156446D03*
X0328813Y0156446D03*
X0328813Y0145446D03*
X0318813Y0145446D03*
X0308813Y0145446D03*
X0298813Y0145446D03*
X0288813Y0145446D03*
X0288813Y0156446D03*
X0298813Y0156446D03*
X0308813Y0156446D03*
X0383369Y0147501D03*
X0384369Y0157501D03*
X0384431Y0171221D03*
X0383431Y0181221D03*
X0384431Y0191221D03*
X0384353Y0201190D03*
X0383353Y0211190D03*
X0384353Y0221190D03*
X0384282Y0235202D03*
X0383282Y0245202D03*
X0384282Y0255202D03*
X0384180Y0265182D03*
X0383180Y0275182D03*
X0384180Y0285182D03*
X0384117Y0299131D03*
X0383117Y0309131D03*
X0384117Y0319131D03*
X0384160Y0329103D03*
X0383160Y0339103D03*
X0384160Y0349103D03*
X0328813Y0258969D03*
X0318813Y0258969D03*
X0308813Y0258969D03*
X0298813Y0258969D03*
X0288813Y0258969D03*
X0288813Y0247969D03*
X0298813Y0247969D03*
X0308813Y0247969D03*
X0318813Y0247969D03*
X0328813Y0247969D03*
X0384369Y0137501D03*
X0383369Y0127501D03*
X0384369Y0117501D03*
X0384514Y0103485D03*
X0383514Y0093485D03*
X0384514Y0083485D03*
X0384424Y0073434D03*
X0383424Y0063434D03*
X0384424Y0053434D03*
X0328813Y0042233D03*
X0318813Y0042233D03*
X0308813Y0042233D03*
X0298813Y0042233D03*
X0288813Y0042233D03*
X0288813Y0031233D03*
X0298813Y0031233D03*
X0308813Y0031233D03*
X0318813Y0031233D03*
X0328813Y0031233D03*
D11*
X0338794Y0349331D03*
X0235349Y0349331D03*
X0104325Y0349331D03*
D12*
X0123223Y0360552D03*
X0104325Y0373938D03*
X0235349Y0373938D03*
X0254246Y0360552D03*
X0338794Y0373938D03*
X0357691Y0360552D03*
D13*
X0174955Y0352757D03*
X0174955Y0342757D03*
D14*
X0171428Y0329524D03*
X0171428Y0319524D03*
X0171428Y0309524D03*
X0171428Y0299524D03*
X0161428Y0299524D03*
X0161428Y0309524D03*
X0161428Y0319524D03*
X0161428Y0329524D03*
X0151428Y0339524D03*
X0151428Y0349524D03*
X0151428Y0359524D03*
X0141428Y0359524D03*
X0141428Y0369524D03*
X0141428Y0379524D03*
X0141428Y0389524D03*
X0151428Y0379524D03*
X0141428Y0349524D03*
X0141428Y0339524D03*
X0141428Y0329524D03*
X0141428Y0319524D03*
X0141428Y0309524D03*
X0141428Y0299524D03*
X0141428Y0289524D03*
X0141428Y0279524D03*
X0141428Y0269524D03*
X0141428Y0259524D03*
X0141428Y0249524D03*
X0141428Y0239524D03*
X0141428Y0229524D03*
X0141428Y0219524D03*
X0141428Y0209524D03*
X0151428Y0209524D03*
X0161428Y0209524D03*
X0161428Y0219524D03*
X0171428Y0219524D03*
X0171428Y0209524D03*
X0181428Y0209524D03*
X0191428Y0209524D03*
X0201428Y0209524D03*
X0201428Y0219524D03*
X0201428Y0229524D03*
X0201428Y0239524D03*
X0201428Y0249524D03*
X0201428Y0259524D03*
X0201428Y0269524D03*
X0201428Y0279524D03*
X0201428Y0289524D03*
X0201428Y0299524D03*
X0201428Y0309524D03*
X0201428Y0319524D03*
X0201428Y0329524D03*
X0201428Y0339524D03*
X0201428Y0349524D03*
X0201428Y0359524D03*
X0201428Y0369524D03*
X0201428Y0379524D03*
X0171428Y0239524D03*
X0171428Y0229524D03*
X0161428Y0229524D03*
X0161428Y0239524D03*
X0161428Y0199524D03*
X0161428Y0189524D03*
X0161428Y0179524D03*
X0171428Y0179524D03*
X0171428Y0189524D03*
X0171428Y0199524D03*
X0201428Y0199524D03*
X0201428Y0189524D03*
X0201428Y0179524D03*
X0201428Y0169524D03*
X0201428Y0159524D03*
X0171428Y0159524D03*
X0171428Y0169524D03*
X0161428Y0169524D03*
X0161428Y0159524D03*
X0141428Y0159524D03*
X0141428Y0169524D03*
X0141428Y0179524D03*
X0141428Y0189524D03*
X0141428Y0199524D03*
D15*
X0201428Y0389524D03*
D16*
X0216321Y0330938D03*
X0216321Y0325938D03*
X0216321Y0320938D03*
X0216321Y0315938D03*
X0216321Y0310938D03*
X0216321Y0305938D03*
X0216321Y0300938D03*
X0216321Y0295938D03*
X0216321Y0290938D03*
X0216321Y0285938D03*
X0254117Y0285938D03*
X0254117Y0290938D03*
X0254117Y0295938D03*
X0254117Y0300938D03*
X0254117Y0305938D03*
X0254117Y0310938D03*
X0254117Y0315938D03*
X0254117Y0320938D03*
X0254117Y0325938D03*
X0254117Y0330938D03*
X0118341Y0174154D03*
X0118341Y0169154D03*
X0118341Y0164154D03*
X0118341Y0159154D03*
X0118341Y0154154D03*
X0118341Y0149154D03*
X0118341Y0144154D03*
X0118341Y0139154D03*
X0118341Y0134154D03*
X0118341Y0129154D03*
X0080546Y0129154D03*
X0080546Y0134154D03*
X0080546Y0139154D03*
X0080546Y0144154D03*
X0080546Y0149154D03*
X0080546Y0154154D03*
X0080546Y0159154D03*
X0080546Y0164154D03*
X0080546Y0169154D03*
X0080546Y0174154D03*
D17*
X0105900Y0227520D03*
X0115900Y0227520D03*
X0125900Y0227520D03*
X0125900Y0247520D03*
X0115900Y0247520D03*
X0105900Y0247520D03*
X0224010Y0247520D03*
X0234010Y0247520D03*
X0244010Y0247520D03*
X0244010Y0227520D03*
X0234010Y0227520D03*
X0224010Y0227520D03*
X0224010Y0097914D03*
X0234010Y0097914D03*
X0244010Y0097914D03*
X0244010Y0077914D03*
X0234010Y0077914D03*
X0224010Y0077914D03*
X0125900Y0077914D03*
X0115900Y0077914D03*
X0105900Y0077914D03*
X0105900Y0097914D03*
X0115900Y0097914D03*
X0125900Y0097914D03*
D18*
X0225605Y0135001D03*
X0230605Y0135001D03*
X0235605Y0135001D03*
X0240605Y0135001D03*
X0240605Y0161221D03*
X0235605Y0161221D03*
X0230605Y0161221D03*
X0225605Y0161221D03*
D19*
X0274172Y0290513D03*
X0284172Y0290513D03*
D20*
X0314172Y0290513D03*
X0344172Y0290513D03*
D21*
X0174955Y0145788D03*
X0174955Y0127284D03*
X0174955Y0108780D03*
D22*
X0178892Y0075906D03*
X0178892Y0068426D03*
X0167081Y0068426D03*
X0167081Y0075906D03*
X0155270Y0075906D03*
X0155270Y0068426D03*
D23*
X0190703Y0068426D03*
X0190703Y0075906D03*
D24*
X0283065Y0074135D03*
X0293065Y0074135D03*
X0303065Y0074135D03*
X0066845Y0074135D03*
X0056845Y0074135D03*
X0046845Y0074135D03*
X0046845Y0318229D03*
X0056845Y0318229D03*
X0066845Y0318229D03*
X0283065Y0318229D03*
X0293065Y0318229D03*
X0303065Y0318229D03*
D25*
X0311963Y0347757D03*
X0274168Y0347757D03*
X0075742Y0347757D03*
X0037947Y0347757D03*
X0037947Y0103662D03*
X0075742Y0103662D03*
X0274168Y0103662D03*
X0311963Y0103662D03*
D26*
X0054127Y0036900D02*
X0020127Y0070900D01*
X0020127Y0109300D01*
X0014527Y0114900D01*
X0014424Y0114973D01*
X0046527Y0148900D02*
X0032527Y0162900D01*
X0032527Y0163300D01*
X0012527Y0183300D01*
X0012294Y0183509D01*
X0028527Y0196500D02*
X0028527Y0300100D01*
X0026927Y0301700D01*
X0026927Y0304900D01*
X0029327Y0307300D01*
X0032127Y0307300D01*
X0046527Y0318500D02*
X0046845Y0318229D01*
X0046927Y0318500D01*
X0054527Y0326100D01*
X0076527Y0326100D01*
X0078127Y0327700D01*
X0078127Y0337300D01*
X0100127Y0359300D01*
X0102527Y0359300D01*
X0112927Y0369700D01*
X0141327Y0369700D01*
X0141428Y0369524D01*
X0140127Y0364900D02*
X0171327Y0364900D01*
X0174127Y0367700D01*
X0196927Y0367700D01*
X0200527Y0364100D01*
X0229727Y0364100D01*
X0232927Y0360900D01*
X0254127Y0360900D01*
X0254246Y0360552D01*
X0254527Y0360500D01*
X0357327Y0360500D01*
X0357691Y0360552D01*
X0348927Y0364900D02*
X0353727Y0369700D01*
X0371327Y0369700D01*
X0392527Y0348500D01*
X0392527Y0117700D01*
X0384927Y0110100D01*
X0384127Y0113700D02*
X0378127Y0107700D01*
X0378127Y0089700D01*
X0384127Y0083700D01*
X0384514Y0083485D01*
X0359327Y0065300D02*
X0359327Y0214500D01*
X0359327Y0225300D02*
X0359327Y0290500D01*
X0356927Y0292900D01*
X0353727Y0292900D01*
X0330127Y0269300D01*
X0314527Y0269300D01*
X0284927Y0298900D01*
X0285327Y0294100D02*
X0285727Y0294100D01*
X0308527Y0271300D01*
X0308527Y0259300D01*
X0308813Y0258969D01*
X0303327Y0253300D02*
X0308527Y0248100D01*
X0308813Y0247969D01*
X0309727Y0242500D02*
X0313327Y0242500D01*
X0318527Y0247700D01*
X0318813Y0247969D01*
X0309727Y0242500D02*
X0265327Y0198100D01*
X0237727Y0198100D01*
X0226527Y0209300D01*
X0201727Y0209300D01*
X0201428Y0209524D01*
X0202527Y0214100D02*
X0199327Y0214100D01*
X0196927Y0211700D01*
X0196927Y0207700D01*
X0200527Y0204100D01*
X0229327Y0204100D01*
X0236927Y0196500D01*
X0268127Y0196500D01*
X0270527Y0198900D01*
X0271327Y0194900D02*
X0289727Y0213300D01*
X0292927Y0213300D01*
X0298527Y0207700D01*
X0298527Y0199700D01*
X0298813Y0199556D01*
X0271327Y0194900D02*
X0236127Y0194900D01*
X0231727Y0199300D01*
X0201727Y0199300D01*
X0201428Y0199524D01*
X0193327Y0201300D02*
X0193327Y0196900D01*
X0193327Y0201300D02*
X0186927Y0207700D01*
X0186927Y0241700D01*
X0194527Y0249300D01*
X0193327Y0252500D02*
X0198527Y0252500D01*
X0201327Y0249700D01*
X0201428Y0249524D01*
X0203327Y0254100D02*
X0206127Y0251300D01*
X0206127Y0217700D01*
X0202527Y0214100D01*
X0218927Y0225700D02*
X0218927Y0249300D01*
X0222127Y0252500D01*
X0228927Y0252500D01*
X0233727Y0247700D01*
X0234010Y0247520D01*
X0238927Y0241700D02*
X0237327Y0240100D01*
X0237327Y0231300D01*
X0238927Y0229700D01*
X0238927Y0201300D01*
X0233727Y0210900D02*
X0218927Y0225700D01*
X0238927Y0241700D02*
X0238927Y0259300D01*
X0242127Y0256500D02*
X0250527Y0248100D01*
X0250527Y0234100D01*
X0244127Y0227700D01*
X0244010Y0227520D01*
X0244127Y0227300D01*
X0244127Y0218900D01*
X0259327Y0203700D01*
X0261727Y0203700D01*
X0284527Y0226500D01*
X0286927Y0228900D02*
X0290127Y0228900D01*
X0298527Y0237300D01*
X0298527Y0247700D01*
X0298813Y0247969D01*
X0303327Y0253300D02*
X0286927Y0253300D01*
X0280527Y0259700D01*
X0280527Y0290900D01*
X0255727Y0315700D01*
X0254127Y0315700D01*
X0254117Y0315938D01*
X0254127Y0320900D02*
X0254117Y0320938D01*
X0254127Y0320900D02*
X0258527Y0320900D01*
X0285327Y0294100D01*
X0284527Y0290500D02*
X0284172Y0290513D01*
X0284527Y0290500D02*
X0284527Y0263300D01*
X0288527Y0259300D01*
X0288813Y0258969D01*
X0280127Y0256500D02*
X0288527Y0248100D01*
X0288813Y0247969D01*
X0280127Y0256500D02*
X0279327Y0256500D01*
X0270527Y0257300D02*
X0292127Y0235700D01*
X0286927Y0228900D02*
X0279327Y0236500D01*
X0266927Y0236500D01*
X0245327Y0258100D01*
X0245327Y0303300D01*
X0254117Y0300938D02*
X0254127Y0300900D01*
X0260127Y0300900D01*
X0266527Y0294500D01*
X0266527Y0255300D01*
X0264527Y0253300D01*
X0268127Y0252500D02*
X0264527Y0248900D01*
X0268127Y0252500D02*
X0268127Y0295300D01*
X0257727Y0305700D01*
X0254127Y0305700D01*
X0254117Y0305938D01*
X0254127Y0310900D02*
X0254117Y0310938D01*
X0254127Y0310900D02*
X0255727Y0310900D01*
X0270527Y0296100D01*
X0270527Y0257300D01*
X0267727Y0233300D02*
X0267727Y0214100D01*
X0260527Y0206900D01*
X0258927Y0210900D02*
X0264527Y0216500D01*
X0264527Y0230500D01*
X0242127Y0256500D02*
X0242127Y0264100D01*
X0156927Y0264100D01*
X0144127Y0251300D01*
X0144127Y0249700D01*
X0141428Y0249524D01*
X0141727Y0249300D01*
X0144127Y0249300D01*
X0158527Y0234900D01*
X0172527Y0234900D01*
X0176127Y0231300D01*
X0176127Y0217700D01*
X0171727Y0213300D01*
X0171727Y0209700D01*
X0171428Y0209524D01*
X0166927Y0207700D02*
X0170527Y0204100D01*
X0176127Y0204100D01*
X0195327Y0184900D01*
X0208927Y0184900D01*
X0209327Y0185300D01*
X0213327Y0184900D02*
X0237327Y0184900D01*
X0240127Y0187700D01*
X0249727Y0187700D01*
X0286527Y0150900D01*
X0313327Y0150900D01*
X0318527Y0145700D01*
X0318813Y0145446D01*
X0328527Y0145300D02*
X0328813Y0145446D01*
X0328527Y0145300D02*
X0274927Y0091700D01*
X0274927Y0082500D01*
X0282927Y0074500D01*
X0283065Y0074135D01*
X0266527Y0078100D02*
X0290527Y0054100D01*
X0330127Y0054100D01*
X0332127Y0052100D01*
X0332127Y0049700D01*
X0330127Y0047700D01*
X0304127Y0047700D01*
X0298927Y0042500D01*
X0298813Y0042233D01*
X0308813Y0042233D02*
X0308927Y0042100D01*
X0314127Y0036900D01*
X0330927Y0036900D01*
X0342927Y0048900D01*
X0342927Y0211700D01*
X0336527Y0218100D01*
X0339727Y0210500D02*
X0339727Y0180900D01*
X0336927Y0182500D02*
X0328927Y0174500D01*
X0328927Y0156900D01*
X0328813Y0156446D01*
X0328927Y0156100D01*
X0334127Y0150900D01*
X0334127Y0049300D01*
X0328927Y0044100D01*
X0328927Y0042500D01*
X0328813Y0042233D01*
X0328927Y0050900D02*
X0270927Y0050900D01*
X0244127Y0077700D01*
X0244010Y0077914D01*
X0243727Y0078100D01*
X0234527Y0078100D01*
X0234010Y0077914D01*
X0233727Y0077700D01*
X0233727Y0060100D01*
X0214527Y0040900D01*
X0212127Y0040900D01*
X0190927Y0062100D01*
X0190927Y0068100D01*
X0190703Y0068426D01*
X0190527Y0068500D01*
X0178927Y0068500D01*
X0178892Y0068426D01*
X0178527Y0068100D01*
X0177327Y0068100D01*
X0171727Y0062500D01*
X0162527Y0062500D01*
X0160127Y0064900D01*
X0159727Y0064900D01*
X0137327Y0042500D01*
X0105327Y0042500D01*
X0105327Y0030100D01*
X0099327Y0024100D01*
X0055727Y0024100D01*
X0014927Y0064900D01*
X0014550Y0064910D01*
X0046527Y0074500D02*
X0046845Y0074135D01*
X0046527Y0074500D02*
X0046527Y0148900D01*
X0059327Y0168100D02*
X0031727Y0195700D01*
X0031727Y0271300D01*
X0062527Y0302100D01*
X0062527Y0305300D01*
X0078527Y0321300D01*
X0126527Y0321300D01*
X0140127Y0334900D01*
X0156127Y0334900D01*
X0163727Y0342500D01*
X0174927Y0342500D01*
X0174955Y0342757D01*
X0175327Y0348500D02*
X0185327Y0338500D01*
X0185327Y0330100D01*
X0183727Y0328500D01*
X0172527Y0328500D01*
X0171727Y0329300D01*
X0171428Y0329524D01*
X0175327Y0348500D02*
X0175327Y0352500D01*
X0174955Y0352757D01*
X0175327Y0352900D01*
X0175327Y0364500D01*
X0201428Y0359524D02*
X0201727Y0359300D01*
X0209327Y0351700D01*
X0209327Y0326500D01*
X0214527Y0321300D01*
X0216127Y0321300D01*
X0216321Y0320938D01*
X0216127Y0316100D02*
X0214527Y0316100D01*
X0207727Y0322900D01*
X0207727Y0343300D01*
X0201727Y0349300D01*
X0201428Y0349524D01*
X0201428Y0339524D02*
X0201727Y0339300D01*
X0206127Y0334900D01*
X0206127Y0319700D01*
X0214527Y0311300D01*
X0216127Y0311300D01*
X0216321Y0310938D01*
X0216527Y0306100D02*
X0216321Y0305938D01*
X0216527Y0306100D02*
X0218127Y0306100D01*
X0222127Y0310100D01*
X0222127Y0310900D01*
X0216321Y0315938D02*
X0216127Y0316100D01*
X0206127Y0314900D02*
X0206127Y0309700D01*
X0214527Y0301300D01*
X0216127Y0301300D01*
X0216321Y0300938D01*
X0216127Y0296100D02*
X0214527Y0296100D01*
X0201327Y0309300D01*
X0201428Y0309524D01*
X0206127Y0314900D02*
X0201727Y0319300D01*
X0201428Y0319524D01*
X0201428Y0299524D02*
X0201727Y0299300D01*
X0209727Y0291300D01*
X0216127Y0291300D01*
X0216321Y0290938D01*
X0216127Y0286100D02*
X0216321Y0285938D01*
X0216127Y0286100D02*
X0204927Y0286100D01*
X0201727Y0289300D01*
X0201428Y0289524D01*
X0216127Y0296100D02*
X0216321Y0295938D01*
X0242127Y0315300D02*
X0242127Y0264100D01*
X0250127Y0286100D02*
X0248527Y0287700D01*
X0250127Y0286100D02*
X0253727Y0286100D01*
X0254117Y0285938D01*
X0254127Y0290900D02*
X0254117Y0290938D01*
X0254127Y0290900D02*
X0255727Y0290900D01*
X0263327Y0283300D01*
X0263327Y0282100D01*
X0260927Y0295700D02*
X0254127Y0295700D01*
X0254117Y0295938D01*
X0242127Y0315300D02*
X0252527Y0325700D01*
X0253727Y0325700D01*
X0254117Y0325938D01*
X0254127Y0326100D01*
X0254127Y0330900D01*
X0254117Y0330938D01*
X0245327Y0330900D02*
X0267327Y0352900D01*
X0250527Y0369700D02*
X0330127Y0369700D01*
X0334927Y0364900D01*
X0348927Y0364900D01*
X0338794Y0373938D02*
X0338527Y0374100D01*
X0235727Y0374100D01*
X0235349Y0373938D01*
X0235327Y0374100D01*
X0220127Y0389300D01*
X0201727Y0389300D01*
X0201428Y0389524D01*
X0201428Y0369524D02*
X0201727Y0369300D01*
X0226927Y0369300D01*
X0231327Y0364900D01*
X0245727Y0364900D01*
X0250527Y0369700D01*
X0283065Y0318229D02*
X0283327Y0318100D01*
X0285727Y0318100D01*
X0303327Y0300500D01*
X0382527Y0300500D01*
X0383727Y0299300D01*
X0384117Y0299131D01*
X0384527Y0298900D01*
X0389727Y0293700D01*
X0389727Y0274100D01*
X0384527Y0268900D01*
X0384527Y0265300D01*
X0384180Y0265182D01*
X0384117Y0299131D02*
X0382527Y0300900D01*
X0389727Y0308100D01*
X0389727Y0321300D01*
X0384527Y0326500D01*
X0384527Y0328900D01*
X0384160Y0329103D01*
X0336527Y0204900D02*
X0336527Y0203300D01*
X0336927Y0202900D01*
X0336927Y0182500D01*
X0377727Y0164500D02*
X0384127Y0170900D01*
X0384431Y0171221D01*
X0384527Y0171300D01*
X0390127Y0176900D01*
X0390127Y0193300D01*
X0384527Y0198900D01*
X0384527Y0200900D01*
X0384353Y0201190D01*
X0377727Y0164500D02*
X0377727Y0125300D01*
X0384127Y0118900D01*
X0384127Y0117700D01*
X0384369Y0117501D01*
X0384127Y0117300D01*
X0384127Y0113700D01*
X0266527Y0132500D02*
X0266527Y0078100D01*
X0243327Y0104100D02*
X0238927Y0099700D01*
X0238927Y0092100D01*
X0234127Y0087300D01*
X0234127Y0078100D01*
X0234010Y0077914D01*
X0234010Y0097914D02*
X0233727Y0098100D01*
X0227727Y0104100D01*
X0227727Y0106900D01*
X0243327Y0104100D02*
X0243327Y0140100D01*
X0242127Y0141300D01*
X0228927Y0141300D01*
X0225727Y0138100D01*
X0225727Y0135300D01*
X0225605Y0135001D01*
X0210127Y0127700D02*
X0235727Y0153300D01*
X0240527Y0153300D01*
X0244527Y0157300D01*
X0244527Y0181700D01*
X0241327Y0184500D02*
X0241327Y0170100D01*
X0235727Y0164500D01*
X0235727Y0161300D01*
X0235605Y0161221D01*
X0240527Y0160900D02*
X0240527Y0158100D01*
X0237327Y0154900D01*
X0234927Y0154900D01*
X0233327Y0153300D01*
X0223727Y0153300D01*
X0195927Y0125500D01*
X0195727Y0125700D01*
X0195327Y0125700D01*
X0195927Y0125500D02*
X0190927Y0120500D01*
X0190927Y0076100D01*
X0190703Y0075906D01*
X0178892Y0075906D02*
X0178527Y0076100D01*
X0174127Y0071700D01*
X0174127Y0067300D01*
X0170927Y0064100D01*
X0163327Y0064100D01*
X0162127Y0065300D01*
X0162127Y0071700D01*
X0166127Y0075700D01*
X0166927Y0075700D01*
X0167081Y0075906D01*
X0166127Y0076100D01*
X0166127Y0077700D01*
X0162527Y0081300D01*
X0160127Y0079300D02*
X0159327Y0080100D01*
X0159327Y0086500D01*
X0174927Y0102100D01*
X0174927Y0108500D01*
X0174955Y0108780D01*
X0172127Y0115300D02*
X0186127Y0115300D01*
X0189327Y0114100D02*
X0189327Y0124100D01*
X0220127Y0154900D01*
X0227327Y0154900D01*
X0230527Y0158100D01*
X0230527Y0160900D01*
X0230605Y0161221D01*
X0225605Y0161221D02*
X0225327Y0160900D01*
X0209327Y0160900D01*
X0175327Y0126900D01*
X0174955Y0127284D01*
X0171727Y0133300D02*
X0196527Y0158100D01*
X0196527Y0161300D01*
X0200127Y0164900D01*
X0203327Y0164900D01*
X0206127Y0167700D01*
X0206127Y0173300D01*
X0202527Y0174100D02*
X0213327Y0184900D01*
X0201428Y0179524D02*
X0201327Y0179700D01*
X0198127Y0179700D01*
X0183727Y0194100D01*
X0178527Y0194100D01*
X0176927Y0190500D02*
X0176927Y0177300D01*
X0170527Y0174100D02*
X0202527Y0174100D01*
X0193327Y0170900D02*
X0193327Y0168900D01*
X0177727Y0153300D01*
X0173327Y0153300D01*
X0159327Y0139300D01*
X0159327Y0127700D01*
X0146527Y0114900D01*
X0144127Y0114900D01*
X0143727Y0115300D01*
X0118927Y0115300D01*
X0106527Y0127700D01*
X0106527Y0166100D01*
X0109727Y0169300D01*
X0118127Y0169300D01*
X0118341Y0169154D01*
X0118127Y0164500D02*
X0112527Y0164500D01*
X0110927Y0166100D01*
X0107327Y0169300D02*
X0101327Y0163300D01*
X0101327Y0102900D01*
X0098927Y0100500D01*
X0098927Y0084900D01*
X0105727Y0078100D01*
X0105900Y0077914D01*
X0103727Y0072900D02*
X0110927Y0072900D01*
X0115727Y0077700D01*
X0115900Y0077914D01*
X0120927Y0076100D02*
X0120927Y0083700D01*
X0119327Y0085300D01*
X0119327Y0094500D01*
X0120927Y0096100D01*
X0120927Y0100100D01*
X0124527Y0103700D01*
X0160527Y0103700D01*
X0172127Y0115300D01*
X0162527Y0128500D02*
X0139327Y0105300D01*
X0106127Y0105300D01*
X0100927Y0100100D01*
X0100927Y0087300D01*
X0102127Y0086100D01*
X0097327Y0079300D02*
X0103727Y0072900D01*
X0102927Y0071300D02*
X0116127Y0071300D01*
X0120927Y0076100D01*
X0125900Y0077914D02*
X0126127Y0078100D01*
X0128127Y0080100D01*
X0159327Y0080100D01*
X0160127Y0079300D02*
X0160127Y0064900D01*
X0155270Y0068426D02*
X0154927Y0068100D01*
X0138927Y0068100D01*
X0136527Y0065700D01*
X0101327Y0065700D01*
X0059327Y0107700D01*
X0059327Y0168100D01*
X0060527Y0169300D02*
X0033327Y0196500D01*
X0033327Y0267300D01*
X0046927Y0280900D01*
X0071727Y0280900D01*
X0076927Y0286100D01*
X0077278Y0286328D01*
X0068927Y0288100D02*
X0067327Y0286500D01*
X0067278Y0286328D01*
X0068927Y0288100D02*
X0068927Y0306500D01*
X0074527Y0312100D01*
X0077727Y0312100D01*
X0084927Y0304900D01*
X0142527Y0304900D01*
X0155727Y0291700D01*
X0156927Y0288500D02*
X0148927Y0288500D01*
X0143327Y0294100D01*
X0139327Y0294100D01*
X0134927Y0289700D01*
X0134927Y0247300D01*
X0135727Y0246500D01*
X0135727Y0226100D01*
X0132527Y0231700D02*
X0134127Y0233300D01*
X0134127Y0245700D01*
X0133327Y0246500D01*
X0133327Y0291300D01*
X0141327Y0299300D01*
X0141428Y0299524D01*
X0147727Y0304100D02*
X0152527Y0299300D01*
X0161327Y0299300D02*
X0161327Y0292900D01*
X0156927Y0288500D01*
X0161327Y0299300D02*
X0161428Y0299524D01*
X0141428Y0289524D02*
X0141327Y0289300D01*
X0136527Y0284500D01*
X0136527Y0248100D01*
X0140127Y0244500D01*
X0144527Y0244500D01*
X0149327Y0252100D02*
X0156527Y0259300D01*
X0201327Y0259300D01*
X0201428Y0259524D01*
X0203327Y0254100D02*
X0179327Y0254100D01*
X0164927Y0239700D01*
X0161727Y0239700D01*
X0161428Y0239524D01*
X0167727Y0229300D02*
X0162527Y0224100D01*
X0159327Y0224100D01*
X0156927Y0221700D01*
X0156927Y0207700D01*
X0160527Y0204100D01*
X0163327Y0204100D01*
X0166927Y0200500D01*
X0166927Y0177700D01*
X0170527Y0174100D01*
X0164527Y0174500D02*
X0159727Y0174500D01*
X0156927Y0171700D01*
X0156927Y0144500D01*
X0149327Y0143700D02*
X0149327Y0136900D01*
X0149327Y0143700D02*
X0144127Y0148900D01*
X0143327Y0154900D02*
X0133327Y0154900D01*
X0141428Y0159524D02*
X0141327Y0159700D01*
X0141327Y0163300D01*
X0133327Y0171300D01*
X0133327Y0172500D01*
X0136927Y0177700D02*
X0140527Y0174100D01*
X0143327Y0174100D01*
X0146127Y0171300D01*
X0146127Y0157700D01*
X0143327Y0154900D01*
X0147727Y0156900D02*
X0133327Y0142500D01*
X0127327Y0146500D02*
X0127327Y0185300D01*
X0141327Y0199300D01*
X0141428Y0199524D01*
X0141428Y0189524D02*
X0141327Y0189300D01*
X0141327Y0186100D01*
X0136927Y0181700D01*
X0136927Y0177700D01*
X0141727Y0178100D02*
X0147727Y0172100D01*
X0147727Y0156900D01*
X0152527Y0169700D02*
X0152527Y0125300D01*
X0145327Y0118100D01*
X0141327Y0120500D02*
X0149327Y0128500D01*
X0141327Y0120500D02*
X0116127Y0120500D01*
X0108127Y0128500D01*
X0108127Y0135300D01*
X0116927Y0144100D01*
X0118127Y0144100D01*
X0118341Y0144154D01*
X0118527Y0148900D02*
X0118341Y0149154D01*
X0118527Y0148900D02*
X0124127Y0148900D01*
X0127327Y0146500D02*
X0120127Y0139300D01*
X0118527Y0139300D01*
X0118341Y0139154D01*
X0111327Y0129700D02*
X0118927Y0122100D01*
X0133727Y0122100D01*
X0135327Y0123700D01*
X0131727Y0112100D02*
X0115327Y0112100D01*
X0104527Y0122900D01*
X0093327Y0126100D02*
X0093327Y0111700D01*
X0090127Y0106500D02*
X0097327Y0099300D01*
X0097327Y0079300D01*
X0095727Y0078500D02*
X0102927Y0071300D01*
X0095727Y0078500D02*
X0095727Y0098500D01*
X0075727Y0118500D01*
X0075727Y0135700D01*
X0078927Y0138900D01*
X0080527Y0138900D01*
X0080546Y0139154D01*
X0080927Y0144100D02*
X0080546Y0144154D01*
X0080927Y0144100D02*
X0088527Y0144100D01*
X0096527Y0136100D01*
X0099727Y0137300D02*
X0099727Y0106900D01*
X0098127Y0105300D01*
X0090127Y0106500D02*
X0090127Y0126100D01*
X0082127Y0134100D01*
X0080927Y0134100D01*
X0080546Y0134154D01*
X0080927Y0148900D02*
X0080546Y0149154D01*
X0080927Y0148900D02*
X0088127Y0148900D01*
X0099727Y0137300D01*
X0086127Y0153300D02*
X0102127Y0169300D01*
X0107327Y0169300D02*
X0107327Y0172500D01*
X0102127Y0179300D02*
X0102127Y0198500D01*
X0098527Y0202100D01*
X0082127Y0202100D01*
X0076927Y0207300D01*
X0076530Y0207548D01*
X0076530Y0196548D02*
X0076927Y0196500D01*
X0085327Y0188100D01*
X0085327Y0167300D01*
X0082527Y0164500D01*
X0080927Y0164500D01*
X0080546Y0164154D01*
X0080927Y0159300D02*
X0080546Y0159154D01*
X0080927Y0159300D02*
X0082127Y0159300D01*
X0102127Y0179300D01*
X0107327Y0183300D02*
X0107327Y0193700D01*
X0110527Y0186500D02*
X0110527Y0207700D01*
X0099327Y0218900D01*
X0097727Y0214100D02*
X0102927Y0208900D01*
X0116927Y0206500D02*
X0120927Y0210500D01*
X0120927Y0233300D01*
X0116127Y0238100D01*
X0116127Y0247300D01*
X0115900Y0247520D01*
X0105727Y0254100D02*
X0086927Y0254100D01*
X0068527Y0235700D01*
X0065327Y0236900D02*
X0065327Y0216900D01*
X0057327Y0224500D02*
X0057327Y0255700D01*
X0076927Y0275300D01*
X0077278Y0275328D01*
X0096927Y0275300D02*
X0097278Y0275328D01*
X0096927Y0275300D02*
X0063727Y0242100D01*
X0065327Y0236900D02*
X0084127Y0255700D01*
X0098527Y0255700D01*
X0120527Y0277700D01*
X0120527Y0295300D01*
X0121727Y0298500D02*
X0117327Y0298500D01*
X0105327Y0286500D01*
X0097327Y0286500D01*
X0097278Y0286328D01*
X0121727Y0298500D02*
X0131727Y0288500D01*
X0131727Y0240100D01*
X0132527Y0239300D01*
X0132527Y0234100D01*
X0126127Y0227700D01*
X0125900Y0227520D01*
X0132527Y0231700D02*
X0132527Y0219700D01*
X0118527Y0205700D01*
X0118527Y0174500D01*
X0118341Y0174154D01*
X0122927Y0180900D02*
X0121727Y0182100D01*
X0122927Y0180900D02*
X0122927Y0157300D01*
X0120127Y0154500D01*
X0118527Y0154500D01*
X0118341Y0154154D01*
X0118127Y0158900D02*
X0113327Y0158900D01*
X0112527Y0158100D01*
X0118127Y0158900D02*
X0118341Y0159154D01*
X0118341Y0164154D02*
X0118127Y0164500D01*
X0116927Y0188500D02*
X0116927Y0206500D01*
X0116927Y0188500D02*
X0082927Y0154500D01*
X0080927Y0154500D01*
X0080546Y0154154D01*
X0080546Y0169154D02*
X0080527Y0169300D01*
X0060527Y0169300D01*
X0052927Y0172100D02*
X0028527Y0196500D01*
X0040927Y0202500D02*
X0040927Y0208100D01*
X0057327Y0224500D01*
X0040927Y0202500D02*
X0068927Y0174500D01*
X0080527Y0174500D01*
X0080546Y0174154D01*
X0052927Y0172100D02*
X0052927Y0121300D01*
X0072127Y0088500D02*
X0072127Y0072100D01*
X0059327Y0059300D01*
X0054927Y0059300D01*
X0054127Y0036900D02*
X0068527Y0036900D01*
X0074127Y0031300D01*
X0076527Y0031300D01*
X0076530Y0031233D01*
X0072127Y0025700D02*
X0066927Y0030900D01*
X0066530Y0031233D01*
X0072127Y0025700D02*
X0098527Y0025700D01*
X0102127Y0029300D01*
X0102127Y0034500D01*
X0105327Y0042500D02*
X0096927Y0042500D01*
X0096530Y0042233D01*
X0102127Y0045700D02*
X0081327Y0066500D01*
X0081327Y0071300D01*
X0162927Y0133300D02*
X0171727Y0133300D01*
X0169727Y0154900D02*
X0174927Y0154900D01*
X0176527Y0156500D01*
X0169727Y0154900D02*
X0165327Y0159300D01*
X0161727Y0159300D01*
X0161428Y0159524D01*
X0152527Y0169700D02*
X0161327Y0178500D01*
X0161327Y0179300D01*
X0161428Y0179524D01*
X0155727Y0179700D02*
X0147327Y0188100D01*
X0144927Y0184100D02*
X0152927Y0176100D01*
X0141727Y0178100D02*
X0141727Y0179300D01*
X0141428Y0179524D01*
X0166927Y0207700D02*
X0166927Y0210500D01*
X0161727Y0215700D01*
X0161727Y0219300D01*
X0161428Y0219524D01*
X0167727Y0229300D02*
X0171327Y0229300D01*
X0171428Y0229524D01*
X0181727Y0240900D02*
X0193327Y0252500D01*
X0181727Y0240900D02*
X0181727Y0209700D01*
X0181428Y0209524D01*
X0171727Y0199300D02*
X0171428Y0199524D01*
X0171727Y0199300D02*
X0171727Y0195700D01*
X0176927Y0190500D01*
X0206927Y0132100D02*
X0206927Y0050500D01*
X0213327Y0044100D01*
X0210127Y0067700D02*
X0210127Y0127700D01*
X0189327Y0114100D02*
X0174127Y0098900D01*
X0174127Y0074900D01*
X0170927Y0071700D01*
X0170527Y0071700D01*
X0167327Y0068500D01*
X0167081Y0068426D01*
X0240527Y0160900D02*
X0240605Y0161221D01*
X0136127Y0360900D02*
X0123327Y0360900D01*
X0123223Y0360552D01*
X0136127Y0360900D02*
X0140127Y0364900D01*
X0046527Y0318500D02*
X0041327Y0323700D01*
X0012927Y0323700D01*
X0012829Y0323938D01*
X0013026Y0293871D02*
X0013327Y0293700D01*
X0013327Y0268900D01*
X0013727Y0268500D01*
D27*
X0013727Y0268500D03*
X0024127Y0293300D03*
X0023327Y0297700D03*
X0030127Y0303300D03*
X0032127Y0307300D03*
X0036927Y0306500D03*
X0042127Y0296500D03*
X0044527Y0288900D03*
X0048527Y0277700D03*
X0065727Y0294900D03*
X0065727Y0303700D03*
X0058127Y0311300D03*
X0074927Y0329300D03*
X0076127Y0308900D03*
X0110127Y0286500D03*
X0117327Y0279300D03*
X0120127Y0272500D03*
X0125727Y0278100D03*
X0120527Y0295300D03*
X0144527Y0284500D03*
X0155727Y0291700D03*
X0152527Y0299300D03*
X0147727Y0304100D03*
X0179327Y0314500D03*
X0186127Y0321700D03*
X0182127Y0331700D03*
X0195727Y0350900D03*
X0194127Y0374100D03*
X0206527Y0372500D03*
X0175327Y0364500D03*
X0222127Y0310900D03*
X0245327Y0303300D03*
X0248527Y0287700D03*
X0260927Y0295700D03*
X0263327Y0282100D03*
X0284927Y0298900D03*
X0273727Y0316500D03*
X0261727Y0334500D03*
X0258127Y0348500D03*
X0267327Y0352900D03*
X0245327Y0330900D03*
X0238927Y0259300D03*
X0251727Y0256500D03*
X0264527Y0253300D03*
X0264527Y0248900D03*
X0267727Y0233300D03*
X0264527Y0230500D03*
X0258927Y0210900D03*
X0260527Y0206900D03*
X0270527Y0198900D03*
X0291327Y0210100D03*
X0302127Y0220900D03*
X0292127Y0235700D03*
X0288527Y0232100D03*
X0284527Y0226500D03*
X0279327Y0256500D03*
X0315327Y0273300D03*
X0319727Y0272500D03*
X0340527Y0265700D03*
X0356127Y0285300D03*
X0355327Y0289700D03*
X0359327Y0225300D03*
X0359327Y0214500D03*
X0339727Y0210500D03*
X0336527Y0204900D03*
X0336527Y0218100D03*
X0339727Y0180900D03*
X0381727Y0163700D03*
X0384927Y0110100D03*
X0355327Y0074500D03*
X0359327Y0065300D03*
X0328927Y0050900D03*
X0274927Y0082500D03*
X0269727Y0079700D03*
X0227727Y0106900D03*
X0206927Y0132100D03*
X0195327Y0125700D03*
X0186127Y0115300D03*
X0162527Y0128500D03*
X0162927Y0133300D03*
X0156927Y0144500D03*
X0149327Y0136900D03*
X0145727Y0132900D03*
X0149327Y0128500D03*
X0142127Y0126500D03*
X0135327Y0123700D03*
X0145327Y0118100D03*
X0131727Y0112100D03*
X0123327Y0125300D03*
X0111327Y0129700D03*
X0104527Y0122900D03*
X0093327Y0126100D03*
X0096527Y0136100D03*
X0086127Y0153300D03*
X0073327Y0159700D03*
X0056127Y0166500D03*
X0032527Y0163300D03*
X0020127Y0170500D03*
X0043327Y0191300D03*
X0039727Y0194900D03*
X0046927Y0205300D03*
X0065327Y0216900D03*
X0060527Y0234100D03*
X0068527Y0235700D03*
X0063727Y0242100D03*
X0080527Y0242900D03*
X0105727Y0254100D03*
X0135727Y0226100D03*
X0144527Y0244500D03*
X0149327Y0252100D03*
X0153327Y0265300D03*
X0178527Y0245300D03*
X0194527Y0249300D03*
X0155727Y0225300D03*
X0178527Y0194100D03*
X0193327Y0196900D03*
X0209327Y0185300D03*
X0206127Y0173300D03*
X0193327Y0170900D03*
X0191327Y0158100D03*
X0176527Y0156500D03*
X0164527Y0174500D03*
X0155727Y0179700D03*
X0152927Y0176100D03*
X0144927Y0184100D03*
X0147327Y0188100D03*
X0135727Y0187300D03*
X0133327Y0172500D03*
X0121727Y0182100D03*
X0110527Y0186500D03*
X0107327Y0183300D03*
X0107327Y0172500D03*
X0102127Y0169300D03*
X0110927Y0166100D03*
X0112527Y0158100D03*
X0124127Y0148900D03*
X0133327Y0154900D03*
X0144127Y0148900D03*
X0145727Y0142500D03*
X0133327Y0142500D03*
X0098127Y0105300D03*
X0093327Y0111700D03*
X0102127Y0086100D03*
X0081327Y0071300D03*
X0072127Y0088500D03*
X0054927Y0059300D03*
X0032927Y0074900D03*
X0023327Y0119300D03*
X0052927Y0121300D03*
X0102127Y0045700D03*
X0102127Y0034500D03*
X0134927Y0068900D03*
X0133327Y0076100D03*
X0162527Y0081300D03*
X0210127Y0067700D03*
X0214527Y0066900D03*
X0213327Y0044100D03*
X0266527Y0132500D03*
X0248527Y0145700D03*
X0244527Y0181700D03*
X0241327Y0184500D03*
X0226127Y0188100D03*
X0238927Y0201300D03*
X0233727Y0210900D03*
X0176927Y0177300D03*
X0122127Y0204500D03*
X0114527Y0208900D03*
X0102927Y0208900D03*
X0097727Y0214100D03*
X0099327Y0218900D03*
X0107327Y0193700D03*
X0056927Y0260100D03*
X0040927Y0251700D03*
X0025327Y0211700D03*
X0034927Y0329300D03*
X0300127Y0134100D03*
D28*
X0289327Y0144900D01*
X0288813Y0145446D01*
X0288527Y0145700D01*
X0248527Y0145700D01*
X0230605Y0135001D02*
X0230527Y0134900D01*
X0230527Y0114900D01*
X0214527Y0098900D01*
X0214527Y0066900D01*
X0269727Y0079700D02*
X0280927Y0068500D01*
X0285327Y0068500D01*
X0290927Y0074100D01*
X0292927Y0074100D01*
X0293065Y0074135D01*
X0288813Y0042233D02*
X0288527Y0042100D01*
X0282927Y0036500D01*
X0282927Y0028900D01*
X0289327Y0022500D01*
X0332127Y0022500D01*
X0382927Y0073300D01*
X0384127Y0073300D01*
X0384424Y0073434D01*
X0355327Y0074500D02*
X0355327Y0049700D01*
X0330927Y0025300D01*
X0294527Y0025300D01*
X0288927Y0030900D01*
X0288813Y0031233D01*
X0383369Y0147501D02*
X0383727Y0147700D01*
X0390127Y0154100D01*
X0390127Y0159700D01*
X0386127Y0163700D01*
X0381727Y0163700D01*
X0383431Y0181221D02*
X0383327Y0181300D01*
X0378527Y0186100D01*
X0378527Y0203300D01*
X0383327Y0208100D01*
X0383327Y0210900D01*
X0383353Y0211190D01*
X0382927Y0211700D01*
X0382927Y0214500D01*
X0378527Y0218900D01*
X0378527Y0221700D01*
X0334927Y0221700D01*
X0331327Y0218100D01*
X0331327Y0205700D01*
X0330927Y0205300D01*
X0324527Y0205300D01*
X0318927Y0199700D01*
X0318813Y0199556D01*
X0330927Y0205300D02*
X0334527Y0201700D01*
X0334527Y0186100D01*
X0318927Y0170500D01*
X0318927Y0156500D01*
X0318813Y0156446D01*
X0288813Y0156446D02*
X0288527Y0156500D01*
X0254927Y0190100D01*
X0237327Y0190100D01*
X0232927Y0194500D01*
X0226127Y0194500D01*
X0226127Y0188100D01*
X0226127Y0194500D02*
X0199327Y0194500D01*
X0198127Y0193300D01*
X0190527Y0193300D01*
X0176527Y0207300D01*
X0176527Y0211700D01*
X0178527Y0213700D01*
X0178527Y0245300D01*
X0155727Y0225300D02*
X0141727Y0239300D01*
X0141428Y0239524D01*
X0153327Y0265300D02*
X0162527Y0274500D01*
X0211727Y0274500D01*
X0225727Y0288500D01*
X0225727Y0316500D01*
X0243727Y0334500D01*
X0244127Y0334500D01*
X0258127Y0348500D01*
X0261727Y0334500D02*
X0369727Y0334500D01*
X0384127Y0348900D01*
X0384160Y0349103D01*
X0379327Y0323700D02*
X0383727Y0319300D01*
X0384117Y0319131D01*
X0379327Y0323700D02*
X0280927Y0323700D01*
X0273727Y0316500D01*
X0303065Y0318229D02*
X0303327Y0318100D01*
X0374127Y0318100D01*
X0382927Y0309300D01*
X0383117Y0309131D01*
X0364127Y0298100D02*
X0340127Y0298100D01*
X0315327Y0273300D01*
X0319727Y0272500D02*
X0339327Y0292100D01*
X0339327Y0292500D01*
X0342127Y0295300D01*
X0362927Y0295300D01*
X0382927Y0275300D01*
X0383180Y0275182D01*
X0382927Y0274500D01*
X0378527Y0270100D01*
X0378527Y0252900D01*
X0382927Y0248500D01*
X0382927Y0245300D01*
X0383282Y0245202D01*
X0382527Y0244900D01*
X0378527Y0240900D01*
X0378527Y0221700D01*
X0340527Y0251700D02*
X0340527Y0265700D01*
X0336927Y0267300D02*
X0354927Y0285300D01*
X0356127Y0285300D01*
X0355327Y0289700D02*
X0328927Y0263300D01*
X0328927Y0259300D01*
X0328813Y0258969D01*
X0328927Y0250900D02*
X0336927Y0258900D01*
X0336927Y0267300D01*
X0340527Y0251700D02*
X0309727Y0220900D01*
X0302127Y0220900D01*
X0291327Y0210100D02*
X0282927Y0201700D01*
X0282927Y0197300D01*
X0288527Y0191700D01*
X0288527Y0188900D01*
X0288813Y0188556D01*
X0288527Y0232100D02*
X0281727Y0238900D01*
X0269327Y0238900D01*
X0251727Y0256500D01*
X0218527Y0326100D02*
X0235327Y0342900D01*
X0235327Y0349300D01*
X0235349Y0349331D01*
X0218527Y0326100D02*
X0216527Y0326100D01*
X0216321Y0325938D01*
X0195727Y0336900D02*
X0195727Y0350900D01*
X0195727Y0336900D02*
X0182527Y0323700D01*
X0182527Y0320100D01*
X0182927Y0319700D01*
X0182927Y0312900D01*
X0174527Y0304500D01*
X0159327Y0304500D01*
X0154527Y0309300D01*
X0141727Y0309300D01*
X0141428Y0309524D01*
X0141727Y0319300D02*
X0141428Y0319524D01*
X0141727Y0319300D02*
X0154527Y0319300D01*
X0159327Y0314500D01*
X0179327Y0314500D01*
X0186127Y0307300D02*
X0186127Y0321700D01*
X0182127Y0331700D02*
X0179327Y0334500D01*
X0159327Y0334500D01*
X0154527Y0329700D01*
X0141727Y0329700D01*
X0141428Y0329524D01*
X0141327Y0359300D02*
X0138127Y0359300D01*
X0102527Y0323700D01*
X0062127Y0323700D01*
X0056927Y0318500D01*
X0056845Y0318229D01*
X0058127Y0311300D02*
X0046127Y0311300D01*
X0043727Y0313700D01*
X0013327Y0313700D01*
X0013026Y0313871D01*
X0018927Y0310900D02*
X0012527Y0304500D01*
X0012026Y0303871D01*
X0011727Y0303700D01*
X0011727Y0300500D01*
X0007327Y0296100D01*
X0007327Y0257300D01*
X0012127Y0252500D01*
X0012380Y0251891D01*
X0012127Y0251700D01*
X0007727Y0247300D01*
X0007727Y0229700D01*
X0012527Y0224900D01*
X0012527Y0222100D01*
X0012557Y0221820D01*
X0012127Y0221300D01*
X0012127Y0218500D01*
X0006527Y0212900D01*
X0006527Y0180500D01*
X0012927Y0174100D01*
X0013294Y0173509D01*
X0012927Y0173300D01*
X0006527Y0166900D01*
X0006527Y0130900D01*
X0022527Y0114900D01*
X0022527Y0090500D01*
X0044527Y0068500D01*
X0058927Y0068500D01*
X0064527Y0074100D01*
X0066527Y0074100D01*
X0066845Y0074135D01*
X0056845Y0074135D02*
X0056527Y0074500D01*
X0056527Y0166100D01*
X0056127Y0166500D01*
X0073327Y0159700D02*
X0073327Y0117300D01*
X0093327Y0097300D01*
X0093327Y0077300D01*
X0101727Y0068900D01*
X0134927Y0068900D01*
X0133327Y0076100D02*
X0154927Y0076100D01*
X0155270Y0075906D01*
X0123327Y0125300D02*
X0123327Y0131300D01*
X0120527Y0134100D01*
X0118527Y0134100D01*
X0118341Y0134154D01*
X0129727Y0138900D02*
X0142127Y0126500D01*
X0145727Y0132900D02*
X0145727Y0142500D01*
X0129727Y0138900D02*
X0129727Y0178100D01*
X0135727Y0184100D01*
X0135727Y0187300D01*
X0143327Y0204500D02*
X0122127Y0204500D01*
X0114527Y0208900D02*
X0080527Y0242900D01*
X0060527Y0234100D02*
X0060527Y0224100D01*
X0043327Y0206900D01*
X0043327Y0203700D01*
X0050127Y0196900D01*
X0056527Y0196900D01*
X0056530Y0196548D01*
X0046927Y0205300D02*
X0046927Y0206100D01*
X0054127Y0213300D01*
X0078927Y0213300D01*
X0084527Y0207700D01*
X0086527Y0207700D01*
X0086530Y0207548D01*
X0043727Y0214500D02*
X0043727Y0245700D01*
X0056927Y0258900D01*
X0056927Y0260100D01*
X0057278Y0275328D02*
X0056927Y0275700D01*
X0054927Y0277700D01*
X0048527Y0277700D01*
X0044527Y0288900D02*
X0030127Y0303300D01*
X0036927Y0301700D02*
X0042127Y0296500D01*
X0036927Y0301700D02*
X0036927Y0306500D01*
X0040927Y0307700D02*
X0037727Y0310900D01*
X0018927Y0310900D01*
X0023327Y0297700D02*
X0018927Y0293300D01*
X0018927Y0267300D01*
X0013727Y0262100D01*
X0013380Y0261891D01*
X0024127Y0244500D02*
X0024127Y0293300D01*
X0040927Y0307700D02*
X0059727Y0307700D01*
X0066527Y0314500D01*
X0066527Y0318100D01*
X0066845Y0318229D01*
X0074927Y0329300D02*
X0034927Y0329300D01*
X0065727Y0303700D02*
X0065727Y0294900D01*
X0057327Y0286500D01*
X0057278Y0286328D01*
X0076127Y0308900D02*
X0086927Y0298100D01*
X0086927Y0286500D01*
X0087278Y0286328D01*
X0110127Y0286500D02*
X0117327Y0279300D01*
X0120127Y0272500D02*
X0125727Y0278100D01*
X0144527Y0284500D02*
X0163327Y0284500D01*
X0186127Y0307300D01*
X0141327Y0359300D02*
X0141428Y0359524D01*
X0146927Y0374100D02*
X0141727Y0379300D01*
X0141428Y0379524D01*
X0146927Y0374100D02*
X0194127Y0374100D01*
X0199327Y0374500D02*
X0204527Y0374500D01*
X0206527Y0372500D01*
X0199327Y0374500D02*
X0184527Y0389300D01*
X0141727Y0389300D01*
X0141428Y0389524D01*
X0040927Y0251700D02*
X0040927Y0215700D01*
X0035727Y0210500D01*
X0035727Y0198900D01*
X0039727Y0194900D01*
X0043327Y0196500D02*
X0043327Y0191300D01*
X0043327Y0196500D02*
X0038527Y0201300D01*
X0038527Y0209300D01*
X0043727Y0214500D01*
X0025327Y0216900D02*
X0025327Y0211700D01*
X0025327Y0216900D02*
X0013727Y0228500D01*
X0013727Y0231700D01*
X0013557Y0231820D01*
X0013727Y0232500D01*
X0013727Y0234100D01*
X0024127Y0244500D01*
X0020127Y0170500D02*
X0020127Y0122500D01*
X0023327Y0119300D01*
X0013424Y0104973D02*
X0013327Y0104900D01*
X0013327Y0102100D01*
X0008527Y0097300D01*
X0008527Y0080100D01*
X0013327Y0075300D01*
X0013550Y0074910D01*
X0032927Y0074900D02*
X0034127Y0074900D01*
X0060927Y0048100D01*
X0080927Y0048100D01*
X0086527Y0042500D01*
X0086530Y0042233D01*
X0191327Y0158100D02*
X0191327Y0159700D01*
X0198927Y0167300D01*
X0199327Y0167300D01*
X0201327Y0169300D01*
X0201428Y0169524D01*
X0161428Y0189524D02*
X0161327Y0189700D01*
X0158127Y0189700D01*
X0143327Y0204500D01*
X0328813Y0247969D02*
X0328927Y0248100D01*
X0328927Y0250900D01*
X0364127Y0298100D02*
X0376927Y0285300D01*
X0384127Y0285300D01*
X0384180Y0285182D01*
M02*
