G75*
%MOIN*%
%OFA0B0*%
%FSLAX25Y25*%
%IPPOS*%
%LPD*%
%AMOC8*
5,1,8,0,0,1.08239X$1,22.5*
%
%ADD10C,0.00800*%
%ADD11C,0.01200*%
%ADD12C,0.00500*%
%ADD13C,0.01300*%
%ADD14C,0.00600*%
%ADD15C,0.01000*%
%ADD16C,0.00400*%
D10*
X0077667Y0016300D02*
X0077669Y0016441D01*
X0077675Y0016582D01*
X0077685Y0016722D01*
X0077699Y0016862D01*
X0077717Y0017002D01*
X0077738Y0017141D01*
X0077764Y0017280D01*
X0077793Y0017418D01*
X0077827Y0017554D01*
X0077864Y0017690D01*
X0077905Y0017825D01*
X0077950Y0017959D01*
X0077999Y0018091D01*
X0078051Y0018222D01*
X0078107Y0018351D01*
X0078167Y0018478D01*
X0078230Y0018604D01*
X0078296Y0018728D01*
X0078367Y0018851D01*
X0078440Y0018971D01*
X0078517Y0019089D01*
X0078597Y0019205D01*
X0078681Y0019318D01*
X0078767Y0019429D01*
X0078857Y0019538D01*
X0078950Y0019644D01*
X0079045Y0019747D01*
X0079144Y0019848D01*
X0079245Y0019946D01*
X0079349Y0020041D01*
X0079456Y0020133D01*
X0079565Y0020222D01*
X0079677Y0020307D01*
X0079791Y0020390D01*
X0079907Y0020470D01*
X0080026Y0020546D01*
X0080147Y0020618D01*
X0080269Y0020688D01*
X0080394Y0020753D01*
X0080520Y0020816D01*
X0080648Y0020874D01*
X0080778Y0020929D01*
X0080909Y0020981D01*
X0081042Y0021028D01*
X0081176Y0021072D01*
X0081311Y0021113D01*
X0081447Y0021149D01*
X0081584Y0021181D01*
X0081722Y0021210D01*
X0081860Y0021235D01*
X0082000Y0021255D01*
X0082140Y0021272D01*
X0082280Y0021285D01*
X0082421Y0021294D01*
X0082561Y0021299D01*
X0082702Y0021300D01*
X0082843Y0021297D01*
X0082984Y0021290D01*
X0083124Y0021279D01*
X0083264Y0021264D01*
X0083404Y0021245D01*
X0083543Y0021223D01*
X0083681Y0021196D01*
X0083819Y0021166D01*
X0083955Y0021131D01*
X0084091Y0021093D01*
X0084225Y0021051D01*
X0084359Y0021005D01*
X0084491Y0020956D01*
X0084621Y0020902D01*
X0084750Y0020845D01*
X0084877Y0020785D01*
X0085003Y0020721D01*
X0085126Y0020653D01*
X0085248Y0020582D01*
X0085368Y0020508D01*
X0085485Y0020430D01*
X0085600Y0020349D01*
X0085713Y0020265D01*
X0085824Y0020178D01*
X0085932Y0020087D01*
X0086037Y0019994D01*
X0086140Y0019897D01*
X0086240Y0019798D01*
X0086337Y0019696D01*
X0086431Y0019591D01*
X0086522Y0019484D01*
X0086610Y0019374D01*
X0086695Y0019262D01*
X0086777Y0019147D01*
X0086856Y0019030D01*
X0086931Y0018911D01*
X0087003Y0018790D01*
X0087071Y0018667D01*
X0087136Y0018542D01*
X0087198Y0018415D01*
X0087255Y0018286D01*
X0087310Y0018156D01*
X0087360Y0018025D01*
X0087407Y0017892D01*
X0087450Y0017758D01*
X0087489Y0017622D01*
X0087524Y0017486D01*
X0087556Y0017349D01*
X0087583Y0017211D01*
X0087607Y0017072D01*
X0087627Y0016932D01*
X0087643Y0016792D01*
X0087655Y0016652D01*
X0087663Y0016511D01*
X0087667Y0016370D01*
X0087667Y0016230D01*
X0087663Y0016089D01*
X0087655Y0015948D01*
X0087643Y0015808D01*
X0087627Y0015668D01*
X0087607Y0015528D01*
X0087583Y0015389D01*
X0087556Y0015251D01*
X0087524Y0015114D01*
X0087489Y0014978D01*
X0087450Y0014842D01*
X0087407Y0014708D01*
X0087360Y0014575D01*
X0087310Y0014444D01*
X0087255Y0014314D01*
X0087198Y0014185D01*
X0087136Y0014058D01*
X0087071Y0013933D01*
X0087003Y0013810D01*
X0086931Y0013689D01*
X0086856Y0013570D01*
X0086777Y0013453D01*
X0086695Y0013338D01*
X0086610Y0013226D01*
X0086522Y0013116D01*
X0086431Y0013009D01*
X0086337Y0012904D01*
X0086240Y0012802D01*
X0086140Y0012703D01*
X0086037Y0012606D01*
X0085932Y0012513D01*
X0085824Y0012422D01*
X0085713Y0012335D01*
X0085600Y0012251D01*
X0085485Y0012170D01*
X0085368Y0012092D01*
X0085248Y0012018D01*
X0085126Y0011947D01*
X0085003Y0011879D01*
X0084877Y0011815D01*
X0084750Y0011755D01*
X0084621Y0011698D01*
X0084491Y0011644D01*
X0084359Y0011595D01*
X0084225Y0011549D01*
X0084091Y0011507D01*
X0083955Y0011469D01*
X0083819Y0011434D01*
X0083681Y0011404D01*
X0083543Y0011377D01*
X0083404Y0011355D01*
X0083264Y0011336D01*
X0083124Y0011321D01*
X0082984Y0011310D01*
X0082843Y0011303D01*
X0082702Y0011300D01*
X0082561Y0011301D01*
X0082421Y0011306D01*
X0082280Y0011315D01*
X0082140Y0011328D01*
X0082000Y0011345D01*
X0081860Y0011365D01*
X0081722Y0011390D01*
X0081584Y0011419D01*
X0081447Y0011451D01*
X0081311Y0011487D01*
X0081176Y0011528D01*
X0081042Y0011572D01*
X0080909Y0011619D01*
X0080778Y0011671D01*
X0080648Y0011726D01*
X0080520Y0011784D01*
X0080394Y0011847D01*
X0080269Y0011912D01*
X0080147Y0011982D01*
X0080026Y0012054D01*
X0079907Y0012130D01*
X0079791Y0012210D01*
X0079677Y0012293D01*
X0079565Y0012378D01*
X0079456Y0012467D01*
X0079349Y0012559D01*
X0079245Y0012654D01*
X0079144Y0012752D01*
X0079045Y0012853D01*
X0078950Y0012956D01*
X0078857Y0013062D01*
X0078767Y0013171D01*
X0078681Y0013282D01*
X0078597Y0013395D01*
X0078517Y0013511D01*
X0078440Y0013629D01*
X0078367Y0013749D01*
X0078296Y0013872D01*
X0078230Y0013996D01*
X0078167Y0014122D01*
X0078107Y0014249D01*
X0078051Y0014378D01*
X0077999Y0014509D01*
X0077950Y0014641D01*
X0077905Y0014775D01*
X0077864Y0014910D01*
X0077827Y0015046D01*
X0077793Y0015182D01*
X0077764Y0015320D01*
X0077738Y0015459D01*
X0077717Y0015598D01*
X0077699Y0015738D01*
X0077685Y0015878D01*
X0077675Y0016018D01*
X0077669Y0016159D01*
X0077667Y0016300D01*
X0137667Y0016300D02*
X0137669Y0016441D01*
X0137675Y0016582D01*
X0137685Y0016722D01*
X0137699Y0016862D01*
X0137717Y0017002D01*
X0137738Y0017141D01*
X0137764Y0017280D01*
X0137793Y0017418D01*
X0137827Y0017554D01*
X0137864Y0017690D01*
X0137905Y0017825D01*
X0137950Y0017959D01*
X0137999Y0018091D01*
X0138051Y0018222D01*
X0138107Y0018351D01*
X0138167Y0018478D01*
X0138230Y0018604D01*
X0138296Y0018728D01*
X0138367Y0018851D01*
X0138440Y0018971D01*
X0138517Y0019089D01*
X0138597Y0019205D01*
X0138681Y0019318D01*
X0138767Y0019429D01*
X0138857Y0019538D01*
X0138950Y0019644D01*
X0139045Y0019747D01*
X0139144Y0019848D01*
X0139245Y0019946D01*
X0139349Y0020041D01*
X0139456Y0020133D01*
X0139565Y0020222D01*
X0139677Y0020307D01*
X0139791Y0020390D01*
X0139907Y0020470D01*
X0140026Y0020546D01*
X0140147Y0020618D01*
X0140269Y0020688D01*
X0140394Y0020753D01*
X0140520Y0020816D01*
X0140648Y0020874D01*
X0140778Y0020929D01*
X0140909Y0020981D01*
X0141042Y0021028D01*
X0141176Y0021072D01*
X0141311Y0021113D01*
X0141447Y0021149D01*
X0141584Y0021181D01*
X0141722Y0021210D01*
X0141860Y0021235D01*
X0142000Y0021255D01*
X0142140Y0021272D01*
X0142280Y0021285D01*
X0142421Y0021294D01*
X0142561Y0021299D01*
X0142702Y0021300D01*
X0142843Y0021297D01*
X0142984Y0021290D01*
X0143124Y0021279D01*
X0143264Y0021264D01*
X0143404Y0021245D01*
X0143543Y0021223D01*
X0143681Y0021196D01*
X0143819Y0021166D01*
X0143955Y0021131D01*
X0144091Y0021093D01*
X0144225Y0021051D01*
X0144359Y0021005D01*
X0144491Y0020956D01*
X0144621Y0020902D01*
X0144750Y0020845D01*
X0144877Y0020785D01*
X0145003Y0020721D01*
X0145126Y0020653D01*
X0145248Y0020582D01*
X0145368Y0020508D01*
X0145485Y0020430D01*
X0145600Y0020349D01*
X0145713Y0020265D01*
X0145824Y0020178D01*
X0145932Y0020087D01*
X0146037Y0019994D01*
X0146140Y0019897D01*
X0146240Y0019798D01*
X0146337Y0019696D01*
X0146431Y0019591D01*
X0146522Y0019484D01*
X0146610Y0019374D01*
X0146695Y0019262D01*
X0146777Y0019147D01*
X0146856Y0019030D01*
X0146931Y0018911D01*
X0147003Y0018790D01*
X0147071Y0018667D01*
X0147136Y0018542D01*
X0147198Y0018415D01*
X0147255Y0018286D01*
X0147310Y0018156D01*
X0147360Y0018025D01*
X0147407Y0017892D01*
X0147450Y0017758D01*
X0147489Y0017622D01*
X0147524Y0017486D01*
X0147556Y0017349D01*
X0147583Y0017211D01*
X0147607Y0017072D01*
X0147627Y0016932D01*
X0147643Y0016792D01*
X0147655Y0016652D01*
X0147663Y0016511D01*
X0147667Y0016370D01*
X0147667Y0016230D01*
X0147663Y0016089D01*
X0147655Y0015948D01*
X0147643Y0015808D01*
X0147627Y0015668D01*
X0147607Y0015528D01*
X0147583Y0015389D01*
X0147556Y0015251D01*
X0147524Y0015114D01*
X0147489Y0014978D01*
X0147450Y0014842D01*
X0147407Y0014708D01*
X0147360Y0014575D01*
X0147310Y0014444D01*
X0147255Y0014314D01*
X0147198Y0014185D01*
X0147136Y0014058D01*
X0147071Y0013933D01*
X0147003Y0013810D01*
X0146931Y0013689D01*
X0146856Y0013570D01*
X0146777Y0013453D01*
X0146695Y0013338D01*
X0146610Y0013226D01*
X0146522Y0013116D01*
X0146431Y0013009D01*
X0146337Y0012904D01*
X0146240Y0012802D01*
X0146140Y0012703D01*
X0146037Y0012606D01*
X0145932Y0012513D01*
X0145824Y0012422D01*
X0145713Y0012335D01*
X0145600Y0012251D01*
X0145485Y0012170D01*
X0145368Y0012092D01*
X0145248Y0012018D01*
X0145126Y0011947D01*
X0145003Y0011879D01*
X0144877Y0011815D01*
X0144750Y0011755D01*
X0144621Y0011698D01*
X0144491Y0011644D01*
X0144359Y0011595D01*
X0144225Y0011549D01*
X0144091Y0011507D01*
X0143955Y0011469D01*
X0143819Y0011434D01*
X0143681Y0011404D01*
X0143543Y0011377D01*
X0143404Y0011355D01*
X0143264Y0011336D01*
X0143124Y0011321D01*
X0142984Y0011310D01*
X0142843Y0011303D01*
X0142702Y0011300D01*
X0142561Y0011301D01*
X0142421Y0011306D01*
X0142280Y0011315D01*
X0142140Y0011328D01*
X0142000Y0011345D01*
X0141860Y0011365D01*
X0141722Y0011390D01*
X0141584Y0011419D01*
X0141447Y0011451D01*
X0141311Y0011487D01*
X0141176Y0011528D01*
X0141042Y0011572D01*
X0140909Y0011619D01*
X0140778Y0011671D01*
X0140648Y0011726D01*
X0140520Y0011784D01*
X0140394Y0011847D01*
X0140269Y0011912D01*
X0140147Y0011982D01*
X0140026Y0012054D01*
X0139907Y0012130D01*
X0139791Y0012210D01*
X0139677Y0012293D01*
X0139565Y0012378D01*
X0139456Y0012467D01*
X0139349Y0012559D01*
X0139245Y0012654D01*
X0139144Y0012752D01*
X0139045Y0012853D01*
X0138950Y0012956D01*
X0138857Y0013062D01*
X0138767Y0013171D01*
X0138681Y0013282D01*
X0138597Y0013395D01*
X0138517Y0013511D01*
X0138440Y0013629D01*
X0138367Y0013749D01*
X0138296Y0013872D01*
X0138230Y0013996D01*
X0138167Y0014122D01*
X0138107Y0014249D01*
X0138051Y0014378D01*
X0137999Y0014509D01*
X0137950Y0014641D01*
X0137905Y0014775D01*
X0137864Y0014910D01*
X0137827Y0015046D01*
X0137793Y0015182D01*
X0137764Y0015320D01*
X0137738Y0015459D01*
X0137717Y0015598D01*
X0137699Y0015738D01*
X0137685Y0015878D01*
X0137675Y0016018D01*
X0137669Y0016159D01*
X0137667Y0016300D01*
X0135167Y0070225D02*
X0130167Y0070225D01*
D11*
X0140167Y0018800D02*
X0142667Y0013800D01*
X0140167Y0013800D01*
X0142667Y0013800D02*
X0145167Y0013800D01*
X0142667Y0013800D02*
X0145167Y0018800D01*
X0140167Y0018800D01*
X0085167Y0018800D02*
X0082667Y0013800D01*
X0080167Y0013800D01*
X0082667Y0013800D02*
X0085167Y0013800D01*
X0082667Y0013800D02*
X0080167Y0018800D01*
X0085167Y0018800D01*
D12*
X0092167Y0021300D02*
X0092169Y0021344D01*
X0092175Y0021388D01*
X0092185Y0021431D01*
X0092198Y0021473D01*
X0092215Y0021514D01*
X0092236Y0021553D01*
X0092260Y0021590D01*
X0092287Y0021625D01*
X0092317Y0021657D01*
X0092350Y0021687D01*
X0092386Y0021713D01*
X0092423Y0021737D01*
X0092463Y0021756D01*
X0092504Y0021773D01*
X0092547Y0021785D01*
X0092590Y0021794D01*
X0092634Y0021799D01*
X0092678Y0021800D01*
X0092722Y0021797D01*
X0092766Y0021790D01*
X0092809Y0021779D01*
X0092851Y0021765D01*
X0092891Y0021747D01*
X0092930Y0021725D01*
X0092966Y0021701D01*
X0093000Y0021673D01*
X0093032Y0021642D01*
X0093061Y0021608D01*
X0093087Y0021572D01*
X0093109Y0021534D01*
X0093128Y0021494D01*
X0093143Y0021452D01*
X0093155Y0021410D01*
X0093163Y0021366D01*
X0093167Y0021322D01*
X0093167Y0021278D01*
X0093163Y0021234D01*
X0093155Y0021190D01*
X0093143Y0021148D01*
X0093128Y0021106D01*
X0093109Y0021066D01*
X0093087Y0021028D01*
X0093061Y0020992D01*
X0093032Y0020958D01*
X0093000Y0020927D01*
X0092966Y0020899D01*
X0092930Y0020875D01*
X0092891Y0020853D01*
X0092851Y0020835D01*
X0092809Y0020821D01*
X0092766Y0020810D01*
X0092722Y0020803D01*
X0092678Y0020800D01*
X0092634Y0020801D01*
X0092590Y0020806D01*
X0092547Y0020815D01*
X0092504Y0020827D01*
X0092463Y0020844D01*
X0092423Y0020863D01*
X0092386Y0020887D01*
X0092350Y0020913D01*
X0092317Y0020943D01*
X0092287Y0020975D01*
X0092260Y0021010D01*
X0092236Y0021047D01*
X0092215Y0021086D01*
X0092198Y0021127D01*
X0092185Y0021169D01*
X0092175Y0021212D01*
X0092169Y0021256D01*
X0092167Y0021300D01*
X0092667Y0021300D02*
X0092667Y0011300D01*
X0092167Y0011300D02*
X0092169Y0011344D01*
X0092175Y0011388D01*
X0092185Y0011431D01*
X0092198Y0011473D01*
X0092215Y0011514D01*
X0092236Y0011553D01*
X0092260Y0011590D01*
X0092287Y0011625D01*
X0092317Y0011657D01*
X0092350Y0011687D01*
X0092386Y0011713D01*
X0092423Y0011737D01*
X0092463Y0011756D01*
X0092504Y0011773D01*
X0092547Y0011785D01*
X0092590Y0011794D01*
X0092634Y0011799D01*
X0092678Y0011800D01*
X0092722Y0011797D01*
X0092766Y0011790D01*
X0092809Y0011779D01*
X0092851Y0011765D01*
X0092891Y0011747D01*
X0092930Y0011725D01*
X0092966Y0011701D01*
X0093000Y0011673D01*
X0093032Y0011642D01*
X0093061Y0011608D01*
X0093087Y0011572D01*
X0093109Y0011534D01*
X0093128Y0011494D01*
X0093143Y0011452D01*
X0093155Y0011410D01*
X0093163Y0011366D01*
X0093167Y0011322D01*
X0093167Y0011278D01*
X0093163Y0011234D01*
X0093155Y0011190D01*
X0093143Y0011148D01*
X0093128Y0011106D01*
X0093109Y0011066D01*
X0093087Y0011028D01*
X0093061Y0010992D01*
X0093032Y0010958D01*
X0093000Y0010927D01*
X0092966Y0010899D01*
X0092930Y0010875D01*
X0092891Y0010853D01*
X0092851Y0010835D01*
X0092809Y0010821D01*
X0092766Y0010810D01*
X0092722Y0010803D01*
X0092678Y0010800D01*
X0092634Y0010801D01*
X0092590Y0010806D01*
X0092547Y0010815D01*
X0092504Y0010827D01*
X0092463Y0010844D01*
X0092423Y0010863D01*
X0092386Y0010887D01*
X0092350Y0010913D01*
X0092317Y0010943D01*
X0092287Y0010975D01*
X0092260Y0011010D01*
X0092236Y0011047D01*
X0092215Y0011086D01*
X0092198Y0011127D01*
X0092185Y0011169D01*
X0092175Y0011212D01*
X0092169Y0011256D01*
X0092167Y0011300D01*
X0097667Y0001300D02*
X0097667Y0031300D01*
X0087667Y0031300D01*
X0087667Y0036300D02*
X0077667Y0031300D01*
X0067667Y0031300D01*
X0067667Y0001300D01*
X0097667Y0001300D01*
X0072167Y0011300D02*
X0072169Y0011344D01*
X0072175Y0011388D01*
X0072185Y0011431D01*
X0072198Y0011473D01*
X0072215Y0011514D01*
X0072236Y0011553D01*
X0072260Y0011590D01*
X0072287Y0011625D01*
X0072317Y0011657D01*
X0072350Y0011687D01*
X0072386Y0011713D01*
X0072423Y0011737D01*
X0072463Y0011756D01*
X0072504Y0011773D01*
X0072547Y0011785D01*
X0072590Y0011794D01*
X0072634Y0011799D01*
X0072678Y0011800D01*
X0072722Y0011797D01*
X0072766Y0011790D01*
X0072809Y0011779D01*
X0072851Y0011765D01*
X0072891Y0011747D01*
X0072930Y0011725D01*
X0072966Y0011701D01*
X0073000Y0011673D01*
X0073032Y0011642D01*
X0073061Y0011608D01*
X0073087Y0011572D01*
X0073109Y0011534D01*
X0073128Y0011494D01*
X0073143Y0011452D01*
X0073155Y0011410D01*
X0073163Y0011366D01*
X0073167Y0011322D01*
X0073167Y0011278D01*
X0073163Y0011234D01*
X0073155Y0011190D01*
X0073143Y0011148D01*
X0073128Y0011106D01*
X0073109Y0011066D01*
X0073087Y0011028D01*
X0073061Y0010992D01*
X0073032Y0010958D01*
X0073000Y0010927D01*
X0072966Y0010899D01*
X0072930Y0010875D01*
X0072891Y0010853D01*
X0072851Y0010835D01*
X0072809Y0010821D01*
X0072766Y0010810D01*
X0072722Y0010803D01*
X0072678Y0010800D01*
X0072634Y0010801D01*
X0072590Y0010806D01*
X0072547Y0010815D01*
X0072504Y0010827D01*
X0072463Y0010844D01*
X0072423Y0010863D01*
X0072386Y0010887D01*
X0072350Y0010913D01*
X0072317Y0010943D01*
X0072287Y0010975D01*
X0072260Y0011010D01*
X0072236Y0011047D01*
X0072215Y0011086D01*
X0072198Y0011127D01*
X0072185Y0011169D01*
X0072175Y0011212D01*
X0072169Y0011256D01*
X0072167Y0011300D01*
X0072667Y0011300D02*
X0072667Y0021300D01*
X0072167Y0021300D02*
X0072169Y0021344D01*
X0072175Y0021388D01*
X0072185Y0021431D01*
X0072198Y0021473D01*
X0072215Y0021514D01*
X0072236Y0021553D01*
X0072260Y0021590D01*
X0072287Y0021625D01*
X0072317Y0021657D01*
X0072350Y0021687D01*
X0072386Y0021713D01*
X0072423Y0021737D01*
X0072463Y0021756D01*
X0072504Y0021773D01*
X0072547Y0021785D01*
X0072590Y0021794D01*
X0072634Y0021799D01*
X0072678Y0021800D01*
X0072722Y0021797D01*
X0072766Y0021790D01*
X0072809Y0021779D01*
X0072851Y0021765D01*
X0072891Y0021747D01*
X0072930Y0021725D01*
X0072966Y0021701D01*
X0073000Y0021673D01*
X0073032Y0021642D01*
X0073061Y0021608D01*
X0073087Y0021572D01*
X0073109Y0021534D01*
X0073128Y0021494D01*
X0073143Y0021452D01*
X0073155Y0021410D01*
X0073163Y0021366D01*
X0073167Y0021322D01*
X0073167Y0021278D01*
X0073163Y0021234D01*
X0073155Y0021190D01*
X0073143Y0021148D01*
X0073128Y0021106D01*
X0073109Y0021066D01*
X0073087Y0021028D01*
X0073061Y0020992D01*
X0073032Y0020958D01*
X0073000Y0020927D01*
X0072966Y0020899D01*
X0072930Y0020875D01*
X0072891Y0020853D01*
X0072851Y0020835D01*
X0072809Y0020821D01*
X0072766Y0020810D01*
X0072722Y0020803D01*
X0072678Y0020800D01*
X0072634Y0020801D01*
X0072590Y0020806D01*
X0072547Y0020815D01*
X0072504Y0020827D01*
X0072463Y0020844D01*
X0072423Y0020863D01*
X0072386Y0020887D01*
X0072350Y0020913D01*
X0072317Y0020943D01*
X0072287Y0020975D01*
X0072260Y0021010D01*
X0072236Y0021047D01*
X0072215Y0021086D01*
X0072198Y0021127D01*
X0072185Y0021169D01*
X0072175Y0021212D01*
X0072169Y0021256D01*
X0072167Y0021300D01*
X0061417Y0031800D02*
X0061417Y0046300D01*
X0034667Y0056300D02*
X0034669Y0056496D01*
X0034677Y0056693D01*
X0034689Y0056889D01*
X0034706Y0057084D01*
X0034727Y0057279D01*
X0034754Y0057474D01*
X0034785Y0057668D01*
X0034821Y0057861D01*
X0034861Y0058053D01*
X0034907Y0058244D01*
X0034957Y0058434D01*
X0035011Y0058622D01*
X0035071Y0058809D01*
X0035135Y0058995D01*
X0035203Y0059179D01*
X0035276Y0059361D01*
X0035353Y0059542D01*
X0035435Y0059720D01*
X0035521Y0059897D01*
X0035612Y0060071D01*
X0035706Y0060243D01*
X0035805Y0060413D01*
X0035908Y0060580D01*
X0036015Y0060745D01*
X0036126Y0060906D01*
X0036241Y0061066D01*
X0036360Y0061222D01*
X0036483Y0061375D01*
X0036609Y0061525D01*
X0036739Y0061672D01*
X0036873Y0061816D01*
X0037010Y0061957D01*
X0037151Y0062094D01*
X0037295Y0062228D01*
X0037442Y0062358D01*
X0037592Y0062484D01*
X0037745Y0062607D01*
X0037901Y0062726D01*
X0038061Y0062841D01*
X0038222Y0062952D01*
X0038387Y0063059D01*
X0038554Y0063162D01*
X0038724Y0063261D01*
X0038896Y0063355D01*
X0039070Y0063446D01*
X0039247Y0063532D01*
X0039425Y0063614D01*
X0039606Y0063691D01*
X0039788Y0063764D01*
X0039972Y0063832D01*
X0040158Y0063896D01*
X0040345Y0063956D01*
X0040533Y0064010D01*
X0040723Y0064060D01*
X0040914Y0064106D01*
X0041106Y0064146D01*
X0041299Y0064182D01*
X0041493Y0064213D01*
X0041688Y0064240D01*
X0041883Y0064261D01*
X0042078Y0064278D01*
X0042274Y0064290D01*
X0042471Y0064298D01*
X0042667Y0064300D01*
X0042863Y0064298D01*
X0043060Y0064290D01*
X0043256Y0064278D01*
X0043451Y0064261D01*
X0043646Y0064240D01*
X0043841Y0064213D01*
X0044035Y0064182D01*
X0044228Y0064146D01*
X0044420Y0064106D01*
X0044611Y0064060D01*
X0044801Y0064010D01*
X0044989Y0063956D01*
X0045176Y0063896D01*
X0045362Y0063832D01*
X0045546Y0063764D01*
X0045728Y0063691D01*
X0045909Y0063614D01*
X0046087Y0063532D01*
X0046264Y0063446D01*
X0046438Y0063355D01*
X0046610Y0063261D01*
X0046780Y0063162D01*
X0046947Y0063059D01*
X0047112Y0062952D01*
X0047273Y0062841D01*
X0047433Y0062726D01*
X0047589Y0062607D01*
X0047742Y0062484D01*
X0047892Y0062358D01*
X0048039Y0062228D01*
X0048183Y0062094D01*
X0048324Y0061957D01*
X0048461Y0061816D01*
X0048595Y0061672D01*
X0048725Y0061525D01*
X0048851Y0061375D01*
X0048974Y0061222D01*
X0049093Y0061066D01*
X0049208Y0060906D01*
X0049319Y0060745D01*
X0049426Y0060580D01*
X0049529Y0060413D01*
X0049628Y0060243D01*
X0049722Y0060071D01*
X0049813Y0059897D01*
X0049899Y0059720D01*
X0049981Y0059542D01*
X0050058Y0059361D01*
X0050131Y0059179D01*
X0050199Y0058995D01*
X0050263Y0058809D01*
X0050323Y0058622D01*
X0050377Y0058434D01*
X0050427Y0058244D01*
X0050473Y0058053D01*
X0050513Y0057861D01*
X0050549Y0057668D01*
X0050580Y0057474D01*
X0050607Y0057279D01*
X0050628Y0057084D01*
X0050645Y0056889D01*
X0050657Y0056693D01*
X0050665Y0056496D01*
X0050667Y0056300D01*
X0050665Y0056104D01*
X0050657Y0055907D01*
X0050645Y0055711D01*
X0050628Y0055516D01*
X0050607Y0055321D01*
X0050580Y0055126D01*
X0050549Y0054932D01*
X0050513Y0054739D01*
X0050473Y0054547D01*
X0050427Y0054356D01*
X0050377Y0054166D01*
X0050323Y0053978D01*
X0050263Y0053791D01*
X0050199Y0053605D01*
X0050131Y0053421D01*
X0050058Y0053239D01*
X0049981Y0053058D01*
X0049899Y0052880D01*
X0049813Y0052703D01*
X0049722Y0052529D01*
X0049628Y0052357D01*
X0049529Y0052187D01*
X0049426Y0052020D01*
X0049319Y0051855D01*
X0049208Y0051694D01*
X0049093Y0051534D01*
X0048974Y0051378D01*
X0048851Y0051225D01*
X0048725Y0051075D01*
X0048595Y0050928D01*
X0048461Y0050784D01*
X0048324Y0050643D01*
X0048183Y0050506D01*
X0048039Y0050372D01*
X0047892Y0050242D01*
X0047742Y0050116D01*
X0047589Y0049993D01*
X0047433Y0049874D01*
X0047273Y0049759D01*
X0047112Y0049648D01*
X0046947Y0049541D01*
X0046780Y0049438D01*
X0046610Y0049339D01*
X0046438Y0049245D01*
X0046264Y0049154D01*
X0046087Y0049068D01*
X0045909Y0048986D01*
X0045728Y0048909D01*
X0045546Y0048836D01*
X0045362Y0048768D01*
X0045176Y0048704D01*
X0044989Y0048644D01*
X0044801Y0048590D01*
X0044611Y0048540D01*
X0044420Y0048494D01*
X0044228Y0048454D01*
X0044035Y0048418D01*
X0043841Y0048387D01*
X0043646Y0048360D01*
X0043451Y0048339D01*
X0043256Y0048322D01*
X0043060Y0048310D01*
X0042863Y0048302D01*
X0042667Y0048300D01*
X0042471Y0048302D01*
X0042274Y0048310D01*
X0042078Y0048322D01*
X0041883Y0048339D01*
X0041688Y0048360D01*
X0041493Y0048387D01*
X0041299Y0048418D01*
X0041106Y0048454D01*
X0040914Y0048494D01*
X0040723Y0048540D01*
X0040533Y0048590D01*
X0040345Y0048644D01*
X0040158Y0048704D01*
X0039972Y0048768D01*
X0039788Y0048836D01*
X0039606Y0048909D01*
X0039425Y0048986D01*
X0039247Y0049068D01*
X0039070Y0049154D01*
X0038896Y0049245D01*
X0038724Y0049339D01*
X0038554Y0049438D01*
X0038387Y0049541D01*
X0038222Y0049648D01*
X0038061Y0049759D01*
X0037901Y0049874D01*
X0037745Y0049993D01*
X0037592Y0050116D01*
X0037442Y0050242D01*
X0037295Y0050372D01*
X0037151Y0050506D01*
X0037010Y0050643D01*
X0036873Y0050784D01*
X0036739Y0050928D01*
X0036609Y0051075D01*
X0036483Y0051225D01*
X0036360Y0051378D01*
X0036241Y0051534D01*
X0036126Y0051694D01*
X0036015Y0051855D01*
X0035908Y0052020D01*
X0035805Y0052187D01*
X0035706Y0052357D01*
X0035612Y0052529D01*
X0035521Y0052703D01*
X0035435Y0052880D01*
X0035353Y0053058D01*
X0035276Y0053239D01*
X0035203Y0053421D01*
X0035135Y0053605D01*
X0035071Y0053791D01*
X0035011Y0053978D01*
X0034957Y0054166D01*
X0034907Y0054356D01*
X0034861Y0054547D01*
X0034821Y0054739D01*
X0034785Y0054932D01*
X0034754Y0055126D01*
X0034727Y0055321D01*
X0034706Y0055516D01*
X0034689Y0055711D01*
X0034677Y0055907D01*
X0034669Y0056104D01*
X0034667Y0056300D01*
X0023917Y0046300D02*
X0023917Y0031800D01*
X0061417Y0031800D01*
X0127667Y0031300D02*
X0127667Y0001300D01*
X0157667Y0001300D01*
X0157667Y0031300D01*
X0147667Y0031300D01*
X0147667Y0036300D02*
X0137667Y0031300D01*
X0127667Y0031300D01*
X0132167Y0021300D02*
X0132169Y0021344D01*
X0132175Y0021388D01*
X0132185Y0021431D01*
X0132198Y0021473D01*
X0132215Y0021514D01*
X0132236Y0021553D01*
X0132260Y0021590D01*
X0132287Y0021625D01*
X0132317Y0021657D01*
X0132350Y0021687D01*
X0132386Y0021713D01*
X0132423Y0021737D01*
X0132463Y0021756D01*
X0132504Y0021773D01*
X0132547Y0021785D01*
X0132590Y0021794D01*
X0132634Y0021799D01*
X0132678Y0021800D01*
X0132722Y0021797D01*
X0132766Y0021790D01*
X0132809Y0021779D01*
X0132851Y0021765D01*
X0132891Y0021747D01*
X0132930Y0021725D01*
X0132966Y0021701D01*
X0133000Y0021673D01*
X0133032Y0021642D01*
X0133061Y0021608D01*
X0133087Y0021572D01*
X0133109Y0021534D01*
X0133128Y0021494D01*
X0133143Y0021452D01*
X0133155Y0021410D01*
X0133163Y0021366D01*
X0133167Y0021322D01*
X0133167Y0021278D01*
X0133163Y0021234D01*
X0133155Y0021190D01*
X0133143Y0021148D01*
X0133128Y0021106D01*
X0133109Y0021066D01*
X0133087Y0021028D01*
X0133061Y0020992D01*
X0133032Y0020958D01*
X0133000Y0020927D01*
X0132966Y0020899D01*
X0132930Y0020875D01*
X0132891Y0020853D01*
X0132851Y0020835D01*
X0132809Y0020821D01*
X0132766Y0020810D01*
X0132722Y0020803D01*
X0132678Y0020800D01*
X0132634Y0020801D01*
X0132590Y0020806D01*
X0132547Y0020815D01*
X0132504Y0020827D01*
X0132463Y0020844D01*
X0132423Y0020863D01*
X0132386Y0020887D01*
X0132350Y0020913D01*
X0132317Y0020943D01*
X0132287Y0020975D01*
X0132260Y0021010D01*
X0132236Y0021047D01*
X0132215Y0021086D01*
X0132198Y0021127D01*
X0132185Y0021169D01*
X0132175Y0021212D01*
X0132169Y0021256D01*
X0132167Y0021300D01*
X0132667Y0021300D02*
X0132667Y0011300D01*
X0132167Y0011300D02*
X0132169Y0011344D01*
X0132175Y0011388D01*
X0132185Y0011431D01*
X0132198Y0011473D01*
X0132215Y0011514D01*
X0132236Y0011553D01*
X0132260Y0011590D01*
X0132287Y0011625D01*
X0132317Y0011657D01*
X0132350Y0011687D01*
X0132386Y0011713D01*
X0132423Y0011737D01*
X0132463Y0011756D01*
X0132504Y0011773D01*
X0132547Y0011785D01*
X0132590Y0011794D01*
X0132634Y0011799D01*
X0132678Y0011800D01*
X0132722Y0011797D01*
X0132766Y0011790D01*
X0132809Y0011779D01*
X0132851Y0011765D01*
X0132891Y0011747D01*
X0132930Y0011725D01*
X0132966Y0011701D01*
X0133000Y0011673D01*
X0133032Y0011642D01*
X0133061Y0011608D01*
X0133087Y0011572D01*
X0133109Y0011534D01*
X0133128Y0011494D01*
X0133143Y0011452D01*
X0133155Y0011410D01*
X0133163Y0011366D01*
X0133167Y0011322D01*
X0133167Y0011278D01*
X0133163Y0011234D01*
X0133155Y0011190D01*
X0133143Y0011148D01*
X0133128Y0011106D01*
X0133109Y0011066D01*
X0133087Y0011028D01*
X0133061Y0010992D01*
X0133032Y0010958D01*
X0133000Y0010927D01*
X0132966Y0010899D01*
X0132930Y0010875D01*
X0132891Y0010853D01*
X0132851Y0010835D01*
X0132809Y0010821D01*
X0132766Y0010810D01*
X0132722Y0010803D01*
X0132678Y0010800D01*
X0132634Y0010801D01*
X0132590Y0010806D01*
X0132547Y0010815D01*
X0132504Y0010827D01*
X0132463Y0010844D01*
X0132423Y0010863D01*
X0132386Y0010887D01*
X0132350Y0010913D01*
X0132317Y0010943D01*
X0132287Y0010975D01*
X0132260Y0011010D01*
X0132236Y0011047D01*
X0132215Y0011086D01*
X0132198Y0011127D01*
X0132185Y0011169D01*
X0132175Y0011212D01*
X0132169Y0011256D01*
X0132167Y0011300D01*
X0152167Y0011300D02*
X0152169Y0011344D01*
X0152175Y0011388D01*
X0152185Y0011431D01*
X0152198Y0011473D01*
X0152215Y0011514D01*
X0152236Y0011553D01*
X0152260Y0011590D01*
X0152287Y0011625D01*
X0152317Y0011657D01*
X0152350Y0011687D01*
X0152386Y0011713D01*
X0152423Y0011737D01*
X0152463Y0011756D01*
X0152504Y0011773D01*
X0152547Y0011785D01*
X0152590Y0011794D01*
X0152634Y0011799D01*
X0152678Y0011800D01*
X0152722Y0011797D01*
X0152766Y0011790D01*
X0152809Y0011779D01*
X0152851Y0011765D01*
X0152891Y0011747D01*
X0152930Y0011725D01*
X0152966Y0011701D01*
X0153000Y0011673D01*
X0153032Y0011642D01*
X0153061Y0011608D01*
X0153087Y0011572D01*
X0153109Y0011534D01*
X0153128Y0011494D01*
X0153143Y0011452D01*
X0153155Y0011410D01*
X0153163Y0011366D01*
X0153167Y0011322D01*
X0153167Y0011278D01*
X0153163Y0011234D01*
X0153155Y0011190D01*
X0153143Y0011148D01*
X0153128Y0011106D01*
X0153109Y0011066D01*
X0153087Y0011028D01*
X0153061Y0010992D01*
X0153032Y0010958D01*
X0153000Y0010927D01*
X0152966Y0010899D01*
X0152930Y0010875D01*
X0152891Y0010853D01*
X0152851Y0010835D01*
X0152809Y0010821D01*
X0152766Y0010810D01*
X0152722Y0010803D01*
X0152678Y0010800D01*
X0152634Y0010801D01*
X0152590Y0010806D01*
X0152547Y0010815D01*
X0152504Y0010827D01*
X0152463Y0010844D01*
X0152423Y0010863D01*
X0152386Y0010887D01*
X0152350Y0010913D01*
X0152317Y0010943D01*
X0152287Y0010975D01*
X0152260Y0011010D01*
X0152236Y0011047D01*
X0152215Y0011086D01*
X0152198Y0011127D01*
X0152185Y0011169D01*
X0152175Y0011212D01*
X0152169Y0011256D01*
X0152167Y0011300D01*
X0152667Y0011300D02*
X0152667Y0021300D01*
X0152167Y0021300D02*
X0152169Y0021344D01*
X0152175Y0021388D01*
X0152185Y0021431D01*
X0152198Y0021473D01*
X0152215Y0021514D01*
X0152236Y0021553D01*
X0152260Y0021590D01*
X0152287Y0021625D01*
X0152317Y0021657D01*
X0152350Y0021687D01*
X0152386Y0021713D01*
X0152423Y0021737D01*
X0152463Y0021756D01*
X0152504Y0021773D01*
X0152547Y0021785D01*
X0152590Y0021794D01*
X0152634Y0021799D01*
X0152678Y0021800D01*
X0152722Y0021797D01*
X0152766Y0021790D01*
X0152809Y0021779D01*
X0152851Y0021765D01*
X0152891Y0021747D01*
X0152930Y0021725D01*
X0152966Y0021701D01*
X0153000Y0021673D01*
X0153032Y0021642D01*
X0153061Y0021608D01*
X0153087Y0021572D01*
X0153109Y0021534D01*
X0153128Y0021494D01*
X0153143Y0021452D01*
X0153155Y0021410D01*
X0153163Y0021366D01*
X0153167Y0021322D01*
X0153167Y0021278D01*
X0153163Y0021234D01*
X0153155Y0021190D01*
X0153143Y0021148D01*
X0153128Y0021106D01*
X0153109Y0021066D01*
X0153087Y0021028D01*
X0153061Y0020992D01*
X0153032Y0020958D01*
X0153000Y0020927D01*
X0152966Y0020899D01*
X0152930Y0020875D01*
X0152891Y0020853D01*
X0152851Y0020835D01*
X0152809Y0020821D01*
X0152766Y0020810D01*
X0152722Y0020803D01*
X0152678Y0020800D01*
X0152634Y0020801D01*
X0152590Y0020806D01*
X0152547Y0020815D01*
X0152504Y0020827D01*
X0152463Y0020844D01*
X0152423Y0020863D01*
X0152386Y0020887D01*
X0152350Y0020913D01*
X0152317Y0020943D01*
X0152287Y0020975D01*
X0152260Y0021010D01*
X0152236Y0021047D01*
X0152215Y0021086D01*
X0152198Y0021127D01*
X0152185Y0021169D01*
X0152175Y0021212D01*
X0152169Y0021256D01*
X0152167Y0021300D01*
X0163917Y0031800D02*
X0163917Y0046300D01*
X0174667Y0056300D02*
X0174669Y0056496D01*
X0174677Y0056693D01*
X0174689Y0056889D01*
X0174706Y0057084D01*
X0174727Y0057279D01*
X0174754Y0057474D01*
X0174785Y0057668D01*
X0174821Y0057861D01*
X0174861Y0058053D01*
X0174907Y0058244D01*
X0174957Y0058434D01*
X0175011Y0058622D01*
X0175071Y0058809D01*
X0175135Y0058995D01*
X0175203Y0059179D01*
X0175276Y0059361D01*
X0175353Y0059542D01*
X0175435Y0059720D01*
X0175521Y0059897D01*
X0175612Y0060071D01*
X0175706Y0060243D01*
X0175805Y0060413D01*
X0175908Y0060580D01*
X0176015Y0060745D01*
X0176126Y0060906D01*
X0176241Y0061066D01*
X0176360Y0061222D01*
X0176483Y0061375D01*
X0176609Y0061525D01*
X0176739Y0061672D01*
X0176873Y0061816D01*
X0177010Y0061957D01*
X0177151Y0062094D01*
X0177295Y0062228D01*
X0177442Y0062358D01*
X0177592Y0062484D01*
X0177745Y0062607D01*
X0177901Y0062726D01*
X0178061Y0062841D01*
X0178222Y0062952D01*
X0178387Y0063059D01*
X0178554Y0063162D01*
X0178724Y0063261D01*
X0178896Y0063355D01*
X0179070Y0063446D01*
X0179247Y0063532D01*
X0179425Y0063614D01*
X0179606Y0063691D01*
X0179788Y0063764D01*
X0179972Y0063832D01*
X0180158Y0063896D01*
X0180345Y0063956D01*
X0180533Y0064010D01*
X0180723Y0064060D01*
X0180914Y0064106D01*
X0181106Y0064146D01*
X0181299Y0064182D01*
X0181493Y0064213D01*
X0181688Y0064240D01*
X0181883Y0064261D01*
X0182078Y0064278D01*
X0182274Y0064290D01*
X0182471Y0064298D01*
X0182667Y0064300D01*
X0182863Y0064298D01*
X0183060Y0064290D01*
X0183256Y0064278D01*
X0183451Y0064261D01*
X0183646Y0064240D01*
X0183841Y0064213D01*
X0184035Y0064182D01*
X0184228Y0064146D01*
X0184420Y0064106D01*
X0184611Y0064060D01*
X0184801Y0064010D01*
X0184989Y0063956D01*
X0185176Y0063896D01*
X0185362Y0063832D01*
X0185546Y0063764D01*
X0185728Y0063691D01*
X0185909Y0063614D01*
X0186087Y0063532D01*
X0186264Y0063446D01*
X0186438Y0063355D01*
X0186610Y0063261D01*
X0186780Y0063162D01*
X0186947Y0063059D01*
X0187112Y0062952D01*
X0187273Y0062841D01*
X0187433Y0062726D01*
X0187589Y0062607D01*
X0187742Y0062484D01*
X0187892Y0062358D01*
X0188039Y0062228D01*
X0188183Y0062094D01*
X0188324Y0061957D01*
X0188461Y0061816D01*
X0188595Y0061672D01*
X0188725Y0061525D01*
X0188851Y0061375D01*
X0188974Y0061222D01*
X0189093Y0061066D01*
X0189208Y0060906D01*
X0189319Y0060745D01*
X0189426Y0060580D01*
X0189529Y0060413D01*
X0189628Y0060243D01*
X0189722Y0060071D01*
X0189813Y0059897D01*
X0189899Y0059720D01*
X0189981Y0059542D01*
X0190058Y0059361D01*
X0190131Y0059179D01*
X0190199Y0058995D01*
X0190263Y0058809D01*
X0190323Y0058622D01*
X0190377Y0058434D01*
X0190427Y0058244D01*
X0190473Y0058053D01*
X0190513Y0057861D01*
X0190549Y0057668D01*
X0190580Y0057474D01*
X0190607Y0057279D01*
X0190628Y0057084D01*
X0190645Y0056889D01*
X0190657Y0056693D01*
X0190665Y0056496D01*
X0190667Y0056300D01*
X0190665Y0056104D01*
X0190657Y0055907D01*
X0190645Y0055711D01*
X0190628Y0055516D01*
X0190607Y0055321D01*
X0190580Y0055126D01*
X0190549Y0054932D01*
X0190513Y0054739D01*
X0190473Y0054547D01*
X0190427Y0054356D01*
X0190377Y0054166D01*
X0190323Y0053978D01*
X0190263Y0053791D01*
X0190199Y0053605D01*
X0190131Y0053421D01*
X0190058Y0053239D01*
X0189981Y0053058D01*
X0189899Y0052880D01*
X0189813Y0052703D01*
X0189722Y0052529D01*
X0189628Y0052357D01*
X0189529Y0052187D01*
X0189426Y0052020D01*
X0189319Y0051855D01*
X0189208Y0051694D01*
X0189093Y0051534D01*
X0188974Y0051378D01*
X0188851Y0051225D01*
X0188725Y0051075D01*
X0188595Y0050928D01*
X0188461Y0050784D01*
X0188324Y0050643D01*
X0188183Y0050506D01*
X0188039Y0050372D01*
X0187892Y0050242D01*
X0187742Y0050116D01*
X0187589Y0049993D01*
X0187433Y0049874D01*
X0187273Y0049759D01*
X0187112Y0049648D01*
X0186947Y0049541D01*
X0186780Y0049438D01*
X0186610Y0049339D01*
X0186438Y0049245D01*
X0186264Y0049154D01*
X0186087Y0049068D01*
X0185909Y0048986D01*
X0185728Y0048909D01*
X0185546Y0048836D01*
X0185362Y0048768D01*
X0185176Y0048704D01*
X0184989Y0048644D01*
X0184801Y0048590D01*
X0184611Y0048540D01*
X0184420Y0048494D01*
X0184228Y0048454D01*
X0184035Y0048418D01*
X0183841Y0048387D01*
X0183646Y0048360D01*
X0183451Y0048339D01*
X0183256Y0048322D01*
X0183060Y0048310D01*
X0182863Y0048302D01*
X0182667Y0048300D01*
X0182471Y0048302D01*
X0182274Y0048310D01*
X0182078Y0048322D01*
X0181883Y0048339D01*
X0181688Y0048360D01*
X0181493Y0048387D01*
X0181299Y0048418D01*
X0181106Y0048454D01*
X0180914Y0048494D01*
X0180723Y0048540D01*
X0180533Y0048590D01*
X0180345Y0048644D01*
X0180158Y0048704D01*
X0179972Y0048768D01*
X0179788Y0048836D01*
X0179606Y0048909D01*
X0179425Y0048986D01*
X0179247Y0049068D01*
X0179070Y0049154D01*
X0178896Y0049245D01*
X0178724Y0049339D01*
X0178554Y0049438D01*
X0178387Y0049541D01*
X0178222Y0049648D01*
X0178061Y0049759D01*
X0177901Y0049874D01*
X0177745Y0049993D01*
X0177592Y0050116D01*
X0177442Y0050242D01*
X0177295Y0050372D01*
X0177151Y0050506D01*
X0177010Y0050643D01*
X0176873Y0050784D01*
X0176739Y0050928D01*
X0176609Y0051075D01*
X0176483Y0051225D01*
X0176360Y0051378D01*
X0176241Y0051534D01*
X0176126Y0051694D01*
X0176015Y0051855D01*
X0175908Y0052020D01*
X0175805Y0052187D01*
X0175706Y0052357D01*
X0175612Y0052529D01*
X0175521Y0052703D01*
X0175435Y0052880D01*
X0175353Y0053058D01*
X0175276Y0053239D01*
X0175203Y0053421D01*
X0175135Y0053605D01*
X0175071Y0053791D01*
X0175011Y0053978D01*
X0174957Y0054166D01*
X0174907Y0054356D01*
X0174861Y0054547D01*
X0174821Y0054739D01*
X0174785Y0054932D01*
X0174754Y0055126D01*
X0174727Y0055321D01*
X0174706Y0055516D01*
X0174689Y0055711D01*
X0174677Y0055907D01*
X0174669Y0056104D01*
X0174667Y0056300D01*
X0163917Y0066300D02*
X0163917Y0075050D01*
X0163917Y0075300D02*
X0201417Y0075300D01*
X0201417Y0075050D02*
X0201417Y0066300D01*
X0201417Y0046300D02*
X0201417Y0031800D01*
X0163917Y0031800D01*
X0061417Y0066300D02*
X0061417Y0075050D01*
X0061417Y0075300D02*
X0023917Y0075300D01*
X0023917Y0075050D02*
X0023917Y0066300D01*
D13*
X0077319Y0031548D02*
X0077321Y0031597D01*
X0077327Y0031645D01*
X0077337Y0031693D01*
X0077351Y0031740D01*
X0077368Y0031786D01*
X0077389Y0031830D01*
X0077414Y0031872D01*
X0077442Y0031912D01*
X0077474Y0031950D01*
X0077508Y0031985D01*
X0077545Y0032017D01*
X0077584Y0032046D01*
X0077626Y0032072D01*
X0077670Y0032094D01*
X0077715Y0032112D01*
X0077762Y0032127D01*
X0077809Y0032138D01*
X0077858Y0032145D01*
X0077907Y0032148D01*
X0077956Y0032147D01*
X0078004Y0032142D01*
X0078053Y0032133D01*
X0078100Y0032120D01*
X0078146Y0032103D01*
X0078190Y0032083D01*
X0078233Y0032059D01*
X0078274Y0032032D01*
X0078312Y0032001D01*
X0078348Y0031968D01*
X0078380Y0031932D01*
X0078410Y0031893D01*
X0078437Y0031852D01*
X0078460Y0031808D01*
X0078479Y0031763D01*
X0078495Y0031717D01*
X0078507Y0031670D01*
X0078515Y0031621D01*
X0078519Y0031572D01*
X0078519Y0031524D01*
X0078515Y0031475D01*
X0078507Y0031426D01*
X0078495Y0031379D01*
X0078479Y0031333D01*
X0078460Y0031288D01*
X0078437Y0031244D01*
X0078410Y0031203D01*
X0078380Y0031164D01*
X0078348Y0031128D01*
X0078312Y0031095D01*
X0078274Y0031064D01*
X0078233Y0031037D01*
X0078190Y0031013D01*
X0078146Y0030993D01*
X0078100Y0030976D01*
X0078053Y0030963D01*
X0078004Y0030954D01*
X0077956Y0030949D01*
X0077907Y0030948D01*
X0077858Y0030951D01*
X0077809Y0030958D01*
X0077762Y0030969D01*
X0077715Y0030984D01*
X0077670Y0031002D01*
X0077626Y0031024D01*
X0077584Y0031050D01*
X0077545Y0031079D01*
X0077508Y0031111D01*
X0077474Y0031146D01*
X0077442Y0031184D01*
X0077414Y0031224D01*
X0077389Y0031266D01*
X0077368Y0031310D01*
X0077351Y0031356D01*
X0077337Y0031403D01*
X0077327Y0031451D01*
X0077321Y0031499D01*
X0077319Y0031548D01*
X0087319Y0031548D02*
X0087321Y0031597D01*
X0087327Y0031645D01*
X0087337Y0031693D01*
X0087351Y0031740D01*
X0087368Y0031786D01*
X0087389Y0031830D01*
X0087414Y0031872D01*
X0087442Y0031912D01*
X0087474Y0031950D01*
X0087508Y0031985D01*
X0087545Y0032017D01*
X0087584Y0032046D01*
X0087626Y0032072D01*
X0087670Y0032094D01*
X0087715Y0032112D01*
X0087762Y0032127D01*
X0087809Y0032138D01*
X0087858Y0032145D01*
X0087907Y0032148D01*
X0087956Y0032147D01*
X0088004Y0032142D01*
X0088053Y0032133D01*
X0088100Y0032120D01*
X0088146Y0032103D01*
X0088190Y0032083D01*
X0088233Y0032059D01*
X0088274Y0032032D01*
X0088312Y0032001D01*
X0088348Y0031968D01*
X0088380Y0031932D01*
X0088410Y0031893D01*
X0088437Y0031852D01*
X0088460Y0031808D01*
X0088479Y0031763D01*
X0088495Y0031717D01*
X0088507Y0031670D01*
X0088515Y0031621D01*
X0088519Y0031572D01*
X0088519Y0031524D01*
X0088515Y0031475D01*
X0088507Y0031426D01*
X0088495Y0031379D01*
X0088479Y0031333D01*
X0088460Y0031288D01*
X0088437Y0031244D01*
X0088410Y0031203D01*
X0088380Y0031164D01*
X0088348Y0031128D01*
X0088312Y0031095D01*
X0088274Y0031064D01*
X0088233Y0031037D01*
X0088190Y0031013D01*
X0088146Y0030993D01*
X0088100Y0030976D01*
X0088053Y0030963D01*
X0088004Y0030954D01*
X0087956Y0030949D01*
X0087907Y0030948D01*
X0087858Y0030951D01*
X0087809Y0030958D01*
X0087762Y0030969D01*
X0087715Y0030984D01*
X0087670Y0031002D01*
X0087626Y0031024D01*
X0087584Y0031050D01*
X0087545Y0031079D01*
X0087508Y0031111D01*
X0087474Y0031146D01*
X0087442Y0031184D01*
X0087414Y0031224D01*
X0087389Y0031266D01*
X0087368Y0031310D01*
X0087351Y0031356D01*
X0087337Y0031403D01*
X0087327Y0031451D01*
X0087321Y0031499D01*
X0087319Y0031548D01*
X0137319Y0031548D02*
X0137321Y0031597D01*
X0137327Y0031645D01*
X0137337Y0031693D01*
X0137351Y0031740D01*
X0137368Y0031786D01*
X0137389Y0031830D01*
X0137414Y0031872D01*
X0137442Y0031912D01*
X0137474Y0031950D01*
X0137508Y0031985D01*
X0137545Y0032017D01*
X0137584Y0032046D01*
X0137626Y0032072D01*
X0137670Y0032094D01*
X0137715Y0032112D01*
X0137762Y0032127D01*
X0137809Y0032138D01*
X0137858Y0032145D01*
X0137907Y0032148D01*
X0137956Y0032147D01*
X0138004Y0032142D01*
X0138053Y0032133D01*
X0138100Y0032120D01*
X0138146Y0032103D01*
X0138190Y0032083D01*
X0138233Y0032059D01*
X0138274Y0032032D01*
X0138312Y0032001D01*
X0138348Y0031968D01*
X0138380Y0031932D01*
X0138410Y0031893D01*
X0138437Y0031852D01*
X0138460Y0031808D01*
X0138479Y0031763D01*
X0138495Y0031717D01*
X0138507Y0031670D01*
X0138515Y0031621D01*
X0138519Y0031572D01*
X0138519Y0031524D01*
X0138515Y0031475D01*
X0138507Y0031426D01*
X0138495Y0031379D01*
X0138479Y0031333D01*
X0138460Y0031288D01*
X0138437Y0031244D01*
X0138410Y0031203D01*
X0138380Y0031164D01*
X0138348Y0031128D01*
X0138312Y0031095D01*
X0138274Y0031064D01*
X0138233Y0031037D01*
X0138190Y0031013D01*
X0138146Y0030993D01*
X0138100Y0030976D01*
X0138053Y0030963D01*
X0138004Y0030954D01*
X0137956Y0030949D01*
X0137907Y0030948D01*
X0137858Y0030951D01*
X0137809Y0030958D01*
X0137762Y0030969D01*
X0137715Y0030984D01*
X0137670Y0031002D01*
X0137626Y0031024D01*
X0137584Y0031050D01*
X0137545Y0031079D01*
X0137508Y0031111D01*
X0137474Y0031146D01*
X0137442Y0031184D01*
X0137414Y0031224D01*
X0137389Y0031266D01*
X0137368Y0031310D01*
X0137351Y0031356D01*
X0137337Y0031403D01*
X0137327Y0031451D01*
X0137321Y0031499D01*
X0137319Y0031548D01*
X0147319Y0031548D02*
X0147321Y0031597D01*
X0147327Y0031645D01*
X0147337Y0031693D01*
X0147351Y0031740D01*
X0147368Y0031786D01*
X0147389Y0031830D01*
X0147414Y0031872D01*
X0147442Y0031912D01*
X0147474Y0031950D01*
X0147508Y0031985D01*
X0147545Y0032017D01*
X0147584Y0032046D01*
X0147626Y0032072D01*
X0147670Y0032094D01*
X0147715Y0032112D01*
X0147762Y0032127D01*
X0147809Y0032138D01*
X0147858Y0032145D01*
X0147907Y0032148D01*
X0147956Y0032147D01*
X0148004Y0032142D01*
X0148053Y0032133D01*
X0148100Y0032120D01*
X0148146Y0032103D01*
X0148190Y0032083D01*
X0148233Y0032059D01*
X0148274Y0032032D01*
X0148312Y0032001D01*
X0148348Y0031968D01*
X0148380Y0031932D01*
X0148410Y0031893D01*
X0148437Y0031852D01*
X0148460Y0031808D01*
X0148479Y0031763D01*
X0148495Y0031717D01*
X0148507Y0031670D01*
X0148515Y0031621D01*
X0148519Y0031572D01*
X0148519Y0031524D01*
X0148515Y0031475D01*
X0148507Y0031426D01*
X0148495Y0031379D01*
X0148479Y0031333D01*
X0148460Y0031288D01*
X0148437Y0031244D01*
X0148410Y0031203D01*
X0148380Y0031164D01*
X0148348Y0031128D01*
X0148312Y0031095D01*
X0148274Y0031064D01*
X0148233Y0031037D01*
X0148190Y0031013D01*
X0148146Y0030993D01*
X0148100Y0030976D01*
X0148053Y0030963D01*
X0148004Y0030954D01*
X0147956Y0030949D01*
X0147907Y0030948D01*
X0147858Y0030951D01*
X0147809Y0030958D01*
X0147762Y0030969D01*
X0147715Y0030984D01*
X0147670Y0031002D01*
X0147626Y0031024D01*
X0147584Y0031050D01*
X0147545Y0031079D01*
X0147508Y0031111D01*
X0147474Y0031146D01*
X0147442Y0031184D01*
X0147414Y0031224D01*
X0147389Y0031266D01*
X0147368Y0031310D01*
X0147351Y0031356D01*
X0147337Y0031403D01*
X0147327Y0031451D01*
X0147321Y0031499D01*
X0147319Y0031548D01*
D14*
X0041167Y0010569D02*
X0041167Y0008300D01*
X0041167Y0010001D02*
X0043435Y0010001D01*
X0043435Y0010569D02*
X0043435Y0008300D01*
X0044850Y0008300D02*
X0044850Y0011703D01*
X0047118Y0008300D01*
X0047118Y0011703D01*
X0048533Y0010001D02*
X0050802Y0010001D01*
X0052216Y0008300D02*
X0053350Y0008300D01*
X0052783Y0008300D02*
X0052783Y0011703D01*
X0052216Y0011703D02*
X0053350Y0011703D01*
X0054672Y0011703D02*
X0056940Y0008300D01*
X0056940Y0011703D01*
X0054672Y0011703D02*
X0054672Y0008300D01*
X0058355Y0010001D02*
X0060623Y0010001D01*
X0062038Y0010569D02*
X0063172Y0011703D01*
X0063172Y0008300D01*
X0062038Y0008300D02*
X0064306Y0008300D01*
X0043435Y0010569D02*
X0042301Y0011703D01*
X0041167Y0010569D01*
X0090967Y0034167D02*
X0091534Y0033600D01*
X0092668Y0033600D01*
X0093235Y0034167D01*
X0093235Y0034734D01*
X0092668Y0035301D01*
X0091534Y0035301D01*
X0090967Y0035869D01*
X0090967Y0036436D01*
X0091534Y0037003D01*
X0092668Y0037003D01*
X0093235Y0036436D01*
X0094650Y0035869D02*
X0095784Y0037003D01*
X0095784Y0033600D01*
X0094650Y0033600D02*
X0096918Y0033600D01*
X0088667Y0042800D02*
X0087667Y0042800D01*
X0087167Y0043300D01*
X0078167Y0043300D01*
X0077667Y0042800D01*
X0076667Y0042800D01*
X0076607Y0042802D01*
X0076546Y0042807D01*
X0076487Y0042816D01*
X0076428Y0042829D01*
X0076369Y0042845D01*
X0076312Y0042865D01*
X0076257Y0042888D01*
X0076202Y0042915D01*
X0076150Y0042944D01*
X0076099Y0042977D01*
X0076050Y0043013D01*
X0076004Y0043051D01*
X0075960Y0043093D01*
X0075918Y0043137D01*
X0075880Y0043183D01*
X0075844Y0043232D01*
X0075811Y0043283D01*
X0075782Y0043335D01*
X0075755Y0043390D01*
X0075732Y0043445D01*
X0075712Y0043502D01*
X0075696Y0043561D01*
X0075683Y0043620D01*
X0075674Y0043679D01*
X0075669Y0043740D01*
X0075667Y0043800D01*
X0077567Y0045050D02*
X0078117Y0044500D01*
X0079218Y0044500D01*
X0079769Y0045050D01*
X0079769Y0045601D01*
X0079218Y0046151D01*
X0078668Y0046151D01*
X0079218Y0046151D02*
X0079769Y0046702D01*
X0079769Y0047252D01*
X0079218Y0047803D01*
X0078117Y0047803D01*
X0077567Y0047252D01*
X0075667Y0048800D02*
X0075669Y0048860D01*
X0075674Y0048921D01*
X0075683Y0048980D01*
X0075696Y0049039D01*
X0075712Y0049098D01*
X0075732Y0049155D01*
X0075755Y0049210D01*
X0075782Y0049265D01*
X0075811Y0049317D01*
X0075844Y0049368D01*
X0075880Y0049417D01*
X0075918Y0049463D01*
X0075960Y0049507D01*
X0076004Y0049549D01*
X0076050Y0049587D01*
X0076099Y0049623D01*
X0076150Y0049656D01*
X0076202Y0049685D01*
X0076257Y0049712D01*
X0076312Y0049735D01*
X0076369Y0049755D01*
X0076428Y0049771D01*
X0076487Y0049784D01*
X0076546Y0049793D01*
X0076607Y0049798D01*
X0076667Y0049800D01*
X0077667Y0049800D01*
X0078167Y0049300D01*
X0087167Y0049300D01*
X0087667Y0049800D01*
X0088667Y0049800D01*
X0088727Y0049798D01*
X0088788Y0049793D01*
X0088847Y0049784D01*
X0088906Y0049771D01*
X0088965Y0049755D01*
X0089022Y0049735D01*
X0089077Y0049712D01*
X0089132Y0049685D01*
X0089184Y0049656D01*
X0089235Y0049623D01*
X0089284Y0049587D01*
X0089330Y0049549D01*
X0089374Y0049507D01*
X0089416Y0049463D01*
X0089454Y0049417D01*
X0089490Y0049368D01*
X0089523Y0049317D01*
X0089552Y0049265D01*
X0089579Y0049210D01*
X0089602Y0049155D01*
X0089622Y0049098D01*
X0089638Y0049039D01*
X0089651Y0048980D01*
X0089660Y0048921D01*
X0089665Y0048860D01*
X0089667Y0048800D01*
X0086951Y0047252D02*
X0084749Y0045050D01*
X0085299Y0044500D01*
X0086400Y0044500D01*
X0086951Y0045050D01*
X0086951Y0047252D01*
X0086400Y0047803D01*
X0085299Y0047803D01*
X0084749Y0047252D01*
X0084749Y0045050D01*
X0083360Y0045050D02*
X0083360Y0045601D01*
X0082809Y0046151D01*
X0082259Y0046151D01*
X0082809Y0046151D02*
X0083360Y0046702D01*
X0083360Y0047252D01*
X0082809Y0047803D01*
X0081708Y0047803D01*
X0081158Y0047252D01*
X0081158Y0045050D02*
X0081708Y0044500D01*
X0082809Y0044500D01*
X0083360Y0045050D01*
X0088667Y0042800D02*
X0088727Y0042802D01*
X0088788Y0042807D01*
X0088847Y0042816D01*
X0088906Y0042829D01*
X0088965Y0042845D01*
X0089022Y0042865D01*
X0089077Y0042888D01*
X0089132Y0042915D01*
X0089184Y0042944D01*
X0089235Y0042977D01*
X0089284Y0043013D01*
X0089330Y0043051D01*
X0089374Y0043093D01*
X0089416Y0043137D01*
X0089454Y0043183D01*
X0089490Y0043232D01*
X0089523Y0043283D01*
X0089552Y0043335D01*
X0089579Y0043390D01*
X0089602Y0043445D01*
X0089622Y0043502D01*
X0089638Y0043561D01*
X0089651Y0043620D01*
X0089660Y0043679D01*
X0089665Y0043740D01*
X0089667Y0043800D01*
X0085860Y0051200D02*
X0083658Y0051200D01*
X0084759Y0051200D02*
X0084759Y0054503D01*
X0083658Y0053402D01*
X0082269Y0053952D02*
X0082269Y0052851D01*
X0081718Y0052301D01*
X0080067Y0052301D01*
X0081168Y0052301D02*
X0082269Y0051200D01*
X0080067Y0051200D02*
X0080067Y0054503D01*
X0081718Y0054503D01*
X0082269Y0053952D01*
X0112667Y0057300D02*
X0112821Y0057298D01*
X0112975Y0057292D01*
X0113129Y0057282D01*
X0113283Y0057268D01*
X0113436Y0057251D01*
X0113588Y0057229D01*
X0113740Y0057203D01*
X0113892Y0057174D01*
X0114042Y0057140D01*
X0114192Y0057103D01*
X0114340Y0057062D01*
X0114488Y0057017D01*
X0114634Y0056968D01*
X0114779Y0056916D01*
X0114922Y0056860D01*
X0115065Y0056800D01*
X0115205Y0056737D01*
X0115344Y0056670D01*
X0115481Y0056599D01*
X0115616Y0056525D01*
X0115749Y0056448D01*
X0115881Y0056367D01*
X0116010Y0056283D01*
X0116137Y0056195D01*
X0116261Y0056104D01*
X0116383Y0056011D01*
X0116503Y0055913D01*
X0116620Y0055813D01*
X0116735Y0055710D01*
X0116847Y0055604D01*
X0116956Y0055496D01*
X0117062Y0055384D01*
X0117166Y0055270D01*
X0117266Y0055153D01*
X0117364Y0055034D01*
X0117458Y0054912D01*
X0117549Y0054787D01*
X0120467Y0053100D02*
X0122735Y0053100D01*
X0124150Y0053100D02*
X0126418Y0053100D01*
X0127833Y0053100D02*
X0129534Y0053100D01*
X0130102Y0053667D01*
X0130102Y0055936D01*
X0129534Y0056503D01*
X0127833Y0056503D01*
X0127833Y0053100D01*
X0124150Y0053100D02*
X0124150Y0056503D01*
X0126418Y0056503D01*
X0125284Y0054801D02*
X0124150Y0054801D01*
X0120467Y0053100D02*
X0120467Y0056503D01*
X0112667Y0045300D02*
X0112515Y0045302D01*
X0112364Y0045308D01*
X0112213Y0045317D01*
X0112061Y0045331D01*
X0111911Y0045348D01*
X0111761Y0045369D01*
X0111611Y0045394D01*
X0111462Y0045422D01*
X0111314Y0045455D01*
X0111167Y0045491D01*
X0111020Y0045530D01*
X0110875Y0045574D01*
X0110731Y0045621D01*
X0110588Y0045672D01*
X0110447Y0045726D01*
X0110306Y0045784D01*
X0110168Y0045845D01*
X0110031Y0045910D01*
X0109895Y0045979D01*
X0109762Y0046050D01*
X0109630Y0046125D01*
X0109500Y0046204D01*
X0109373Y0046285D01*
X0109247Y0046370D01*
X0109123Y0046458D01*
X0109002Y0046549D01*
X0108883Y0046643D01*
X0108767Y0046741D01*
X0108653Y0046841D01*
X0108541Y0046943D01*
X0108433Y0047049D01*
X0108327Y0047157D01*
X0108223Y0047268D01*
X0108123Y0047382D01*
X0108025Y0047498D01*
X0107931Y0047617D01*
X0112667Y0045300D02*
X0112819Y0045302D01*
X0112970Y0045308D01*
X0113121Y0045317D01*
X0113273Y0045331D01*
X0113423Y0045348D01*
X0113573Y0045369D01*
X0113723Y0045394D01*
X0113872Y0045422D01*
X0114020Y0045455D01*
X0114167Y0045491D01*
X0114314Y0045530D01*
X0114459Y0045574D01*
X0114603Y0045621D01*
X0114746Y0045672D01*
X0114887Y0045726D01*
X0115028Y0045784D01*
X0115166Y0045845D01*
X0115303Y0045910D01*
X0115439Y0045979D01*
X0115572Y0046050D01*
X0115704Y0046125D01*
X0115834Y0046204D01*
X0115961Y0046285D01*
X0116087Y0046370D01*
X0116211Y0046458D01*
X0116332Y0046549D01*
X0116451Y0046643D01*
X0116567Y0046741D01*
X0116681Y0046841D01*
X0116793Y0046943D01*
X0116901Y0047049D01*
X0117007Y0047157D01*
X0117111Y0047268D01*
X0117211Y0047382D01*
X0117309Y0047498D01*
X0117403Y0047617D01*
X0112667Y0057300D02*
X0112517Y0057298D01*
X0112366Y0057292D01*
X0112216Y0057283D01*
X0112067Y0057270D01*
X0111917Y0057253D01*
X0111768Y0057232D01*
X0111620Y0057208D01*
X0111472Y0057180D01*
X0111325Y0057148D01*
X0111179Y0057113D01*
X0111034Y0057073D01*
X0110890Y0057031D01*
X0110747Y0056984D01*
X0110605Y0056934D01*
X0110464Y0056881D01*
X0110325Y0056824D01*
X0110187Y0056764D01*
X0110051Y0056700D01*
X0109917Y0056633D01*
X0109784Y0056562D01*
X0109653Y0056488D01*
X0109524Y0056411D01*
X0109397Y0056330D01*
X0109272Y0056247D01*
X0109149Y0056160D01*
X0109028Y0056071D01*
X0108910Y0055978D01*
X0108794Y0055882D01*
X0108680Y0055784D01*
X0108569Y0055683D01*
X0108460Y0055578D01*
X0108355Y0055472D01*
X0108251Y0055362D01*
X0108151Y0055250D01*
X0108053Y0055136D01*
X0107959Y0055019D01*
X0107867Y0054900D01*
X0131516Y0055369D02*
X0132650Y0056503D01*
X0132650Y0053100D01*
X0131516Y0053100D02*
X0133785Y0053100D01*
X0136667Y0049800D02*
X0137667Y0049800D01*
X0138167Y0049300D01*
X0147167Y0049300D01*
X0147667Y0049800D01*
X0148667Y0049800D01*
X0148727Y0049798D01*
X0148788Y0049793D01*
X0148847Y0049784D01*
X0148906Y0049771D01*
X0148965Y0049755D01*
X0149022Y0049735D01*
X0149077Y0049712D01*
X0149132Y0049685D01*
X0149184Y0049656D01*
X0149235Y0049623D01*
X0149284Y0049587D01*
X0149330Y0049549D01*
X0149374Y0049507D01*
X0149416Y0049463D01*
X0149454Y0049417D01*
X0149490Y0049368D01*
X0149523Y0049317D01*
X0149552Y0049265D01*
X0149579Y0049210D01*
X0149602Y0049155D01*
X0149622Y0049098D01*
X0149638Y0049039D01*
X0149651Y0048980D01*
X0149660Y0048921D01*
X0149665Y0048860D01*
X0149667Y0048800D01*
X0147451Y0047252D02*
X0145249Y0045050D01*
X0145799Y0044500D01*
X0146900Y0044500D01*
X0147451Y0045050D01*
X0147451Y0047252D01*
X0146900Y0047803D01*
X0145799Y0047803D01*
X0145249Y0047252D01*
X0145249Y0045050D01*
X0143860Y0045050D02*
X0143309Y0044500D01*
X0142208Y0044500D01*
X0141658Y0045050D01*
X0140269Y0045050D02*
X0140269Y0045601D01*
X0139718Y0046151D01*
X0139168Y0046151D01*
X0139718Y0046151D02*
X0140269Y0046702D01*
X0140269Y0047252D01*
X0139718Y0047803D01*
X0138617Y0047803D01*
X0138067Y0047252D01*
X0135667Y0048800D02*
X0135669Y0048860D01*
X0135674Y0048921D01*
X0135683Y0048980D01*
X0135696Y0049039D01*
X0135712Y0049098D01*
X0135732Y0049155D01*
X0135755Y0049210D01*
X0135782Y0049265D01*
X0135811Y0049317D01*
X0135844Y0049368D01*
X0135880Y0049417D01*
X0135918Y0049463D01*
X0135960Y0049507D01*
X0136004Y0049549D01*
X0136050Y0049587D01*
X0136099Y0049623D01*
X0136150Y0049656D01*
X0136202Y0049685D01*
X0136257Y0049712D01*
X0136312Y0049735D01*
X0136369Y0049755D01*
X0136428Y0049771D01*
X0136487Y0049784D01*
X0136546Y0049793D01*
X0136607Y0049798D01*
X0136667Y0049800D01*
X0140067Y0051200D02*
X0140067Y0054503D01*
X0141718Y0054503D01*
X0142269Y0053952D01*
X0142269Y0052851D01*
X0141718Y0052301D01*
X0140067Y0052301D01*
X0141168Y0052301D02*
X0142269Y0051200D01*
X0143658Y0051200D02*
X0145860Y0053402D01*
X0145860Y0053952D01*
X0145309Y0054503D01*
X0144208Y0054503D01*
X0143658Y0053952D01*
X0143658Y0051200D02*
X0145860Y0051200D01*
X0143309Y0047803D02*
X0143860Y0047252D01*
X0143860Y0046702D01*
X0143309Y0046151D01*
X0143860Y0045601D01*
X0143860Y0045050D01*
X0143309Y0046151D02*
X0142759Y0046151D01*
X0140269Y0045050D02*
X0139718Y0044500D01*
X0138617Y0044500D01*
X0138067Y0045050D01*
X0138167Y0043300D02*
X0147167Y0043300D01*
X0147667Y0042800D01*
X0148667Y0042800D01*
X0148727Y0042802D01*
X0148788Y0042807D01*
X0148847Y0042816D01*
X0148906Y0042829D01*
X0148965Y0042845D01*
X0149022Y0042865D01*
X0149077Y0042888D01*
X0149132Y0042915D01*
X0149184Y0042944D01*
X0149235Y0042977D01*
X0149284Y0043013D01*
X0149330Y0043051D01*
X0149374Y0043093D01*
X0149416Y0043137D01*
X0149454Y0043183D01*
X0149490Y0043232D01*
X0149523Y0043283D01*
X0149552Y0043335D01*
X0149579Y0043390D01*
X0149602Y0043445D01*
X0149622Y0043502D01*
X0149638Y0043561D01*
X0149651Y0043620D01*
X0149660Y0043679D01*
X0149665Y0043740D01*
X0149667Y0043800D01*
X0143309Y0047803D02*
X0142208Y0047803D01*
X0141658Y0047252D01*
X0138167Y0043300D02*
X0137667Y0042800D01*
X0136667Y0042800D01*
X0136607Y0042802D01*
X0136546Y0042807D01*
X0136487Y0042816D01*
X0136428Y0042829D01*
X0136369Y0042845D01*
X0136312Y0042865D01*
X0136257Y0042888D01*
X0136202Y0042915D01*
X0136150Y0042944D01*
X0136099Y0042977D01*
X0136050Y0043013D01*
X0136004Y0043051D01*
X0135960Y0043093D01*
X0135918Y0043137D01*
X0135880Y0043183D01*
X0135844Y0043232D01*
X0135811Y0043283D01*
X0135782Y0043335D01*
X0135755Y0043390D01*
X0135732Y0043445D01*
X0135712Y0043502D01*
X0135696Y0043561D01*
X0135683Y0043620D01*
X0135674Y0043679D01*
X0135669Y0043740D01*
X0135667Y0043800D01*
X0134351Y0039003D02*
X0133217Y0039003D01*
X0132650Y0038436D01*
X0131235Y0038436D02*
X0130668Y0039003D01*
X0129534Y0039003D01*
X0128967Y0038436D01*
X0128967Y0037869D01*
X0129534Y0037301D01*
X0130668Y0037301D01*
X0131235Y0036734D01*
X0131235Y0036167D01*
X0130668Y0035600D01*
X0129534Y0035600D01*
X0128967Y0036167D01*
X0132650Y0035600D02*
X0134918Y0037869D01*
X0134918Y0038436D01*
X0134351Y0039003D01*
X0134918Y0035600D02*
X0132650Y0035600D01*
X0161167Y0010569D02*
X0162301Y0011703D01*
X0163435Y0010569D01*
X0163435Y0008300D01*
X0164850Y0008300D02*
X0164850Y0011703D01*
X0167118Y0008300D01*
X0167118Y0011703D01*
X0168533Y0010001D02*
X0170802Y0010001D01*
X0172216Y0008300D02*
X0173350Y0008300D01*
X0172783Y0008300D02*
X0172783Y0011703D01*
X0172216Y0011703D02*
X0173350Y0011703D01*
X0174672Y0011703D02*
X0176940Y0008300D01*
X0176940Y0011703D01*
X0174672Y0011703D02*
X0174672Y0008300D01*
X0178355Y0010001D02*
X0180623Y0010001D01*
X0182038Y0011136D02*
X0182605Y0011703D01*
X0183739Y0011703D01*
X0184306Y0011136D01*
X0184306Y0010569D01*
X0182038Y0008300D01*
X0184306Y0008300D01*
X0163435Y0010001D02*
X0161167Y0010001D01*
X0161167Y0010569D02*
X0161167Y0008300D01*
D15*
X0112667Y0059300D02*
X0112475Y0059298D01*
X0112283Y0059291D01*
X0112091Y0059279D01*
X0111899Y0059263D01*
X0111708Y0059242D01*
X0111518Y0059217D01*
X0111328Y0059187D01*
X0111139Y0059153D01*
X0110951Y0059114D01*
X0110764Y0059070D01*
X0110578Y0059022D01*
X0110393Y0058970D01*
X0110209Y0058913D01*
X0110027Y0058852D01*
X0109847Y0058786D01*
X0109668Y0058716D01*
X0109490Y0058642D01*
X0109315Y0058564D01*
X0109141Y0058481D01*
X0108970Y0058394D01*
X0108801Y0058304D01*
X0108634Y0058209D01*
X0108469Y0058110D01*
X0108306Y0058007D01*
X0108147Y0057900D01*
X0107989Y0057790D01*
X0107835Y0057676D01*
X0107683Y0057558D01*
X0107534Y0057436D01*
X0107388Y0057311D01*
X0107246Y0057183D01*
X0107106Y0057051D01*
X0106969Y0056916D01*
X0106836Y0056777D01*
X0106706Y0056636D01*
X0106580Y0056491D01*
X0106457Y0056343D01*
X0106338Y0056193D01*
X0106222Y0056039D01*
X0106110Y0055883D01*
X0106002Y0055724D01*
X0105897Y0055563D01*
X0105797Y0055399D01*
X0105701Y0055233D01*
X0105608Y0055065D01*
X0105720Y0047331D02*
X0105819Y0047162D01*
X0105923Y0046996D01*
X0106030Y0046832D01*
X0106141Y0046671D01*
X0106256Y0046513D01*
X0106375Y0046358D01*
X0106498Y0046205D01*
X0106624Y0046056D01*
X0106754Y0045910D01*
X0106888Y0045767D01*
X0107025Y0045627D01*
X0107165Y0045491D01*
X0107309Y0045358D01*
X0107456Y0045229D01*
X0107606Y0045103D01*
X0107759Y0044982D01*
X0107915Y0044863D01*
X0108074Y0044749D01*
X0108235Y0044639D01*
X0108400Y0044533D01*
X0108566Y0044430D01*
X0108736Y0044332D01*
X0108907Y0044238D01*
X0109081Y0044148D01*
X0109257Y0044063D01*
X0109435Y0043981D01*
X0109615Y0043905D01*
X0109797Y0043832D01*
X0109980Y0043764D01*
X0110165Y0043701D01*
X0110352Y0043642D01*
X0110540Y0043588D01*
X0110729Y0043538D01*
X0110919Y0043493D01*
X0111111Y0043453D01*
X0111303Y0043417D01*
X0111496Y0043386D01*
X0111690Y0043360D01*
X0111885Y0043338D01*
X0112080Y0043322D01*
X0112275Y0043310D01*
X0112471Y0043302D01*
X0112666Y0043300D01*
X0112667Y0043300D02*
X0112860Y0043302D01*
X0113053Y0043309D01*
X0113245Y0043321D01*
X0113438Y0043337D01*
X0113630Y0043358D01*
X0113821Y0043384D01*
X0114011Y0043414D01*
X0114201Y0043449D01*
X0114390Y0043488D01*
X0114578Y0043532D01*
X0114765Y0043580D01*
X0114951Y0043633D01*
X0115135Y0043690D01*
X0115318Y0043752D01*
X0115499Y0043818D01*
X0115679Y0043889D01*
X0115857Y0043963D01*
X0116033Y0044042D01*
X0116207Y0044126D01*
X0116379Y0044213D01*
X0116549Y0044305D01*
X0116716Y0044401D01*
X0116882Y0044500D01*
X0117045Y0044604D01*
X0117205Y0044711D01*
X0117362Y0044823D01*
X0117517Y0044938D01*
X0117669Y0045057D01*
X0117818Y0045179D01*
X0117965Y0045305D01*
X0118108Y0045435D01*
X0118248Y0045568D01*
X0118384Y0045704D01*
X0118518Y0045844D01*
X0118647Y0045986D01*
X0118774Y0046132D01*
X0118813Y0056422D02*
X0118686Y0056570D01*
X0118556Y0056715D01*
X0118423Y0056856D01*
X0118286Y0056995D01*
X0118146Y0057130D01*
X0118002Y0057261D01*
X0117855Y0057389D01*
X0117706Y0057514D01*
X0117553Y0057635D01*
X0117398Y0057752D01*
X0117239Y0057865D01*
X0117078Y0057974D01*
X0116914Y0058079D01*
X0116748Y0058181D01*
X0116579Y0058278D01*
X0116409Y0058371D01*
X0116235Y0058460D01*
X0116060Y0058545D01*
X0115883Y0058625D01*
X0115704Y0058701D01*
X0115523Y0058773D01*
X0115340Y0058840D01*
X0115156Y0058903D01*
X0114970Y0058961D01*
X0114783Y0059015D01*
X0114595Y0059064D01*
X0114405Y0059109D01*
X0114215Y0059149D01*
X0114023Y0059184D01*
X0113831Y0059215D01*
X0113638Y0059241D01*
X0113444Y0059262D01*
X0113250Y0059279D01*
X0113056Y0059291D01*
X0112862Y0059298D01*
X0112667Y0059300D01*
D16*
X0142863Y0058975D02*
X0143630Y0058208D01*
X0146699Y0058208D01*
X0147467Y0058975D01*
X0147467Y0060510D01*
X0146699Y0061277D01*
X0143630Y0061277D01*
X0142863Y0060510D01*
X0142863Y0058975D01*
X0142863Y0056673D02*
X0147467Y0056673D01*
X0142863Y0053604D01*
X0147467Y0053604D01*
X0147467Y0052069D02*
X0145165Y0049767D01*
X0145932Y0049000D02*
X0142863Y0052069D01*
X0142863Y0049000D02*
X0147467Y0049000D01*
X0147467Y0062812D02*
X0142863Y0062812D01*
X0142863Y0065114D01*
X0143630Y0065881D01*
X0144397Y0065881D01*
X0145165Y0065114D01*
X0145165Y0062812D01*
X0147467Y0062812D02*
X0147467Y0065114D01*
X0146699Y0065881D01*
X0145932Y0065881D01*
X0145165Y0065114D01*
X0143630Y0067416D02*
X0142863Y0068183D01*
X0142863Y0069718D01*
X0143630Y0070485D01*
X0144397Y0070485D01*
X0147467Y0067416D01*
X0147467Y0070485D01*
X0007467Y0070485D02*
X0007467Y0067416D01*
X0006699Y0065881D02*
X0005932Y0065881D01*
X0005165Y0065114D01*
X0005165Y0062812D01*
X0007467Y0062812D02*
X0002863Y0062812D01*
X0002863Y0065114D01*
X0003630Y0065881D01*
X0004397Y0065881D01*
X0005165Y0065114D01*
X0006699Y0065881D02*
X0007467Y0065114D01*
X0007467Y0062812D01*
X0006699Y0061277D02*
X0003630Y0061277D01*
X0002863Y0060510D01*
X0002863Y0058975D01*
X0003630Y0058208D01*
X0006699Y0058208D01*
X0007467Y0058975D01*
X0007467Y0060510D01*
X0006699Y0061277D01*
X0007467Y0056673D02*
X0002863Y0056673D01*
X0002863Y0053604D02*
X0007467Y0056673D01*
X0007467Y0053604D02*
X0002863Y0053604D01*
X0002863Y0052069D02*
X0005932Y0049000D01*
X0005165Y0049767D02*
X0007467Y0052069D01*
X0007467Y0049000D02*
X0002863Y0049000D01*
X0004397Y0067416D02*
X0002863Y0068950D01*
X0007467Y0068950D01*
M02*
