G75*
%MOIN*%
%OFA0B0*%
%FSLAX25Y25*%
%IPPOS*%
%LPD*%
%AMOC8*
5,1,8,0,0,1.08239X$1,22.5*
%
%ADD10C,0.00600*%
%ADD11C,0.00000*%
D10*
X0001727Y0013111D02*
X0001727Y0383190D01*
X0001730Y0383475D01*
X0001741Y0383761D01*
X0001758Y0384046D01*
X0001782Y0384330D01*
X0001813Y0384614D01*
X0001851Y0384897D01*
X0001896Y0385178D01*
X0001947Y0385459D01*
X0002005Y0385739D01*
X0002070Y0386017D01*
X0002142Y0386293D01*
X0002220Y0386567D01*
X0002305Y0386840D01*
X0002397Y0387110D01*
X0002495Y0387378D01*
X0002599Y0387644D01*
X0002710Y0387907D01*
X0002827Y0388167D01*
X0002950Y0388425D01*
X0003080Y0388679D01*
X0003216Y0388930D01*
X0003357Y0389178D01*
X0003505Y0389422D01*
X0003658Y0389663D01*
X0003818Y0389899D01*
X0003983Y0390132D01*
X0004153Y0390361D01*
X0004329Y0390586D01*
X0004511Y0390806D01*
X0004697Y0391022D01*
X0004889Y0391233D01*
X0005086Y0391440D01*
X0005288Y0391642D01*
X0005495Y0391839D01*
X0005706Y0392031D01*
X0005922Y0392217D01*
X0006142Y0392399D01*
X0006367Y0392575D01*
X0006596Y0392745D01*
X0006829Y0392910D01*
X0007065Y0393070D01*
X0007306Y0393223D01*
X0007550Y0393371D01*
X0007798Y0393512D01*
X0008049Y0393648D01*
X0008303Y0393778D01*
X0008561Y0393901D01*
X0008821Y0394018D01*
X0009084Y0394129D01*
X0009350Y0394233D01*
X0009618Y0394331D01*
X0009888Y0394423D01*
X0010161Y0394508D01*
X0010435Y0394586D01*
X0010711Y0394658D01*
X0010989Y0394723D01*
X0011269Y0394781D01*
X0011550Y0394832D01*
X0011831Y0394877D01*
X0012114Y0394915D01*
X0012398Y0394946D01*
X0012682Y0394970D01*
X0012967Y0394987D01*
X0013253Y0394998D01*
X0013538Y0395001D01*
X0383617Y0395001D01*
X0383616Y0395000D02*
X0383950Y0394948D01*
X0384283Y0394888D01*
X0384614Y0394820D01*
X0384943Y0394744D01*
X0385271Y0394660D01*
X0385596Y0394568D01*
X0385919Y0394469D01*
X0386239Y0394361D01*
X0386557Y0394246D01*
X0386872Y0394123D01*
X0387184Y0393992D01*
X0387492Y0393854D01*
X0387797Y0393708D01*
X0388098Y0393555D01*
X0388396Y0393395D01*
X0388690Y0393227D01*
X0388979Y0393053D01*
X0389264Y0392871D01*
X0389545Y0392683D01*
X0389821Y0392488D01*
X0390092Y0392286D01*
X0390358Y0392078D01*
X0390619Y0391863D01*
X0390875Y0391642D01*
X0391125Y0391415D01*
X0391370Y0391182D01*
X0391609Y0390943D01*
X0391842Y0390698D01*
X0392069Y0390448D01*
X0392290Y0390192D01*
X0392505Y0389931D01*
X0392713Y0389665D01*
X0392915Y0389394D01*
X0393110Y0389118D01*
X0393298Y0388837D01*
X0393480Y0388552D01*
X0393654Y0388263D01*
X0393822Y0387969D01*
X0393982Y0387671D01*
X0394135Y0387370D01*
X0394281Y0387065D01*
X0394419Y0386757D01*
X0394550Y0386445D01*
X0394673Y0386130D01*
X0394788Y0385812D01*
X0394896Y0385492D01*
X0394995Y0385169D01*
X0395087Y0384844D01*
X0395171Y0384516D01*
X0395247Y0384187D01*
X0395315Y0383856D01*
X0395375Y0383523D01*
X0395427Y0383189D01*
X0395428Y0383190D02*
X0395428Y0013111D01*
X0395425Y0012826D01*
X0395414Y0012540D01*
X0395397Y0012255D01*
X0395373Y0011971D01*
X0395342Y0011687D01*
X0395304Y0011404D01*
X0395259Y0011123D01*
X0395208Y0010842D01*
X0395150Y0010562D01*
X0395085Y0010284D01*
X0395013Y0010008D01*
X0394935Y0009734D01*
X0394850Y0009461D01*
X0394758Y0009191D01*
X0394660Y0008923D01*
X0394556Y0008657D01*
X0394445Y0008394D01*
X0394328Y0008134D01*
X0394205Y0007876D01*
X0394075Y0007622D01*
X0393939Y0007371D01*
X0393798Y0007123D01*
X0393650Y0006879D01*
X0393497Y0006638D01*
X0393337Y0006402D01*
X0393172Y0006169D01*
X0393002Y0005940D01*
X0392826Y0005715D01*
X0392644Y0005495D01*
X0392458Y0005279D01*
X0392266Y0005068D01*
X0392069Y0004861D01*
X0391867Y0004659D01*
X0391660Y0004462D01*
X0391449Y0004270D01*
X0391233Y0004084D01*
X0391013Y0003902D01*
X0390788Y0003726D01*
X0390559Y0003556D01*
X0390326Y0003391D01*
X0390090Y0003231D01*
X0389849Y0003078D01*
X0389605Y0002930D01*
X0389357Y0002789D01*
X0389106Y0002653D01*
X0388852Y0002523D01*
X0388594Y0002400D01*
X0388334Y0002283D01*
X0388071Y0002172D01*
X0387805Y0002068D01*
X0387537Y0001970D01*
X0387267Y0001878D01*
X0386994Y0001793D01*
X0386720Y0001715D01*
X0386444Y0001643D01*
X0386166Y0001578D01*
X0385886Y0001520D01*
X0385605Y0001469D01*
X0385324Y0001424D01*
X0385041Y0001386D01*
X0384757Y0001355D01*
X0384473Y0001331D01*
X0384188Y0001314D01*
X0383902Y0001303D01*
X0383617Y0001300D01*
X0013538Y0001300D01*
X0013253Y0001303D01*
X0012967Y0001314D01*
X0012682Y0001331D01*
X0012398Y0001355D01*
X0012114Y0001386D01*
X0011831Y0001424D01*
X0011550Y0001469D01*
X0011269Y0001520D01*
X0010989Y0001578D01*
X0010711Y0001643D01*
X0010435Y0001715D01*
X0010161Y0001793D01*
X0009888Y0001878D01*
X0009618Y0001970D01*
X0009350Y0002068D01*
X0009084Y0002172D01*
X0008821Y0002283D01*
X0008561Y0002400D01*
X0008303Y0002523D01*
X0008049Y0002653D01*
X0007798Y0002789D01*
X0007550Y0002930D01*
X0007306Y0003078D01*
X0007065Y0003231D01*
X0006829Y0003391D01*
X0006596Y0003556D01*
X0006367Y0003726D01*
X0006142Y0003902D01*
X0005922Y0004084D01*
X0005706Y0004270D01*
X0005495Y0004462D01*
X0005288Y0004659D01*
X0005086Y0004861D01*
X0004889Y0005068D01*
X0004697Y0005279D01*
X0004511Y0005495D01*
X0004329Y0005715D01*
X0004153Y0005940D01*
X0003983Y0006169D01*
X0003818Y0006402D01*
X0003658Y0006638D01*
X0003505Y0006879D01*
X0003357Y0007123D01*
X0003216Y0007371D01*
X0003080Y0007622D01*
X0002950Y0007876D01*
X0002827Y0008134D01*
X0002710Y0008394D01*
X0002599Y0008657D01*
X0002495Y0008923D01*
X0002397Y0009191D01*
X0002305Y0009461D01*
X0002220Y0009734D01*
X0002142Y0010008D01*
X0002070Y0010284D01*
X0002005Y0010562D01*
X0001947Y0010842D01*
X0001896Y0011123D01*
X0001851Y0011404D01*
X0001813Y0011687D01*
X0001782Y0011971D01*
X0001758Y0012255D01*
X0001741Y0012540D01*
X0001730Y0012826D01*
X0001727Y0013111D01*
D11*
X0009601Y0017048D02*
X0009603Y0017241D01*
X0009610Y0017434D01*
X0009622Y0017627D01*
X0009639Y0017820D01*
X0009660Y0018012D01*
X0009686Y0018203D01*
X0009717Y0018394D01*
X0009752Y0018584D01*
X0009792Y0018773D01*
X0009837Y0018961D01*
X0009886Y0019148D01*
X0009940Y0019334D01*
X0009998Y0019518D01*
X0010061Y0019701D01*
X0010129Y0019882D01*
X0010200Y0020061D01*
X0010277Y0020239D01*
X0010357Y0020415D01*
X0010442Y0020588D01*
X0010531Y0020760D01*
X0010624Y0020929D01*
X0010721Y0021096D01*
X0010823Y0021261D01*
X0010928Y0021423D01*
X0011037Y0021582D01*
X0011151Y0021739D01*
X0011268Y0021892D01*
X0011388Y0022043D01*
X0011513Y0022191D01*
X0011641Y0022336D01*
X0011772Y0022477D01*
X0011907Y0022616D01*
X0012046Y0022751D01*
X0012187Y0022882D01*
X0012332Y0023010D01*
X0012480Y0023135D01*
X0012631Y0023255D01*
X0012784Y0023372D01*
X0012941Y0023486D01*
X0013100Y0023595D01*
X0013262Y0023700D01*
X0013427Y0023802D01*
X0013594Y0023899D01*
X0013763Y0023992D01*
X0013935Y0024081D01*
X0014108Y0024166D01*
X0014284Y0024246D01*
X0014462Y0024323D01*
X0014641Y0024394D01*
X0014822Y0024462D01*
X0015005Y0024525D01*
X0015189Y0024583D01*
X0015375Y0024637D01*
X0015562Y0024686D01*
X0015750Y0024731D01*
X0015939Y0024771D01*
X0016129Y0024806D01*
X0016320Y0024837D01*
X0016511Y0024863D01*
X0016703Y0024884D01*
X0016896Y0024901D01*
X0017089Y0024913D01*
X0017282Y0024920D01*
X0017475Y0024922D01*
X0017668Y0024920D01*
X0017861Y0024913D01*
X0018054Y0024901D01*
X0018247Y0024884D01*
X0018439Y0024863D01*
X0018630Y0024837D01*
X0018821Y0024806D01*
X0019011Y0024771D01*
X0019200Y0024731D01*
X0019388Y0024686D01*
X0019575Y0024637D01*
X0019761Y0024583D01*
X0019945Y0024525D01*
X0020128Y0024462D01*
X0020309Y0024394D01*
X0020488Y0024323D01*
X0020666Y0024246D01*
X0020842Y0024166D01*
X0021015Y0024081D01*
X0021187Y0023992D01*
X0021356Y0023899D01*
X0021523Y0023802D01*
X0021688Y0023700D01*
X0021850Y0023595D01*
X0022009Y0023486D01*
X0022166Y0023372D01*
X0022319Y0023255D01*
X0022470Y0023135D01*
X0022618Y0023010D01*
X0022763Y0022882D01*
X0022904Y0022751D01*
X0023043Y0022616D01*
X0023178Y0022477D01*
X0023309Y0022336D01*
X0023437Y0022191D01*
X0023562Y0022043D01*
X0023682Y0021892D01*
X0023799Y0021739D01*
X0023913Y0021582D01*
X0024022Y0021423D01*
X0024127Y0021261D01*
X0024229Y0021096D01*
X0024326Y0020929D01*
X0024419Y0020760D01*
X0024508Y0020588D01*
X0024593Y0020415D01*
X0024673Y0020239D01*
X0024750Y0020061D01*
X0024821Y0019882D01*
X0024889Y0019701D01*
X0024952Y0019518D01*
X0025010Y0019334D01*
X0025064Y0019148D01*
X0025113Y0018961D01*
X0025158Y0018773D01*
X0025198Y0018584D01*
X0025233Y0018394D01*
X0025264Y0018203D01*
X0025290Y0018012D01*
X0025311Y0017820D01*
X0025328Y0017627D01*
X0025340Y0017434D01*
X0025347Y0017241D01*
X0025349Y0017048D01*
X0025347Y0016855D01*
X0025340Y0016662D01*
X0025328Y0016469D01*
X0025311Y0016276D01*
X0025290Y0016084D01*
X0025264Y0015893D01*
X0025233Y0015702D01*
X0025198Y0015512D01*
X0025158Y0015323D01*
X0025113Y0015135D01*
X0025064Y0014948D01*
X0025010Y0014762D01*
X0024952Y0014578D01*
X0024889Y0014395D01*
X0024821Y0014214D01*
X0024750Y0014035D01*
X0024673Y0013857D01*
X0024593Y0013681D01*
X0024508Y0013508D01*
X0024419Y0013336D01*
X0024326Y0013167D01*
X0024229Y0013000D01*
X0024127Y0012835D01*
X0024022Y0012673D01*
X0023913Y0012514D01*
X0023799Y0012357D01*
X0023682Y0012204D01*
X0023562Y0012053D01*
X0023437Y0011905D01*
X0023309Y0011760D01*
X0023178Y0011619D01*
X0023043Y0011480D01*
X0022904Y0011345D01*
X0022763Y0011214D01*
X0022618Y0011086D01*
X0022470Y0010961D01*
X0022319Y0010841D01*
X0022166Y0010724D01*
X0022009Y0010610D01*
X0021850Y0010501D01*
X0021688Y0010396D01*
X0021523Y0010294D01*
X0021356Y0010197D01*
X0021187Y0010104D01*
X0021015Y0010015D01*
X0020842Y0009930D01*
X0020666Y0009850D01*
X0020488Y0009773D01*
X0020309Y0009702D01*
X0020128Y0009634D01*
X0019945Y0009571D01*
X0019761Y0009513D01*
X0019575Y0009459D01*
X0019388Y0009410D01*
X0019200Y0009365D01*
X0019011Y0009325D01*
X0018821Y0009290D01*
X0018630Y0009259D01*
X0018439Y0009233D01*
X0018247Y0009212D01*
X0018054Y0009195D01*
X0017861Y0009183D01*
X0017668Y0009176D01*
X0017475Y0009174D01*
X0017282Y0009176D01*
X0017089Y0009183D01*
X0016896Y0009195D01*
X0016703Y0009212D01*
X0016511Y0009233D01*
X0016320Y0009259D01*
X0016129Y0009290D01*
X0015939Y0009325D01*
X0015750Y0009365D01*
X0015562Y0009410D01*
X0015375Y0009459D01*
X0015189Y0009513D01*
X0015005Y0009571D01*
X0014822Y0009634D01*
X0014641Y0009702D01*
X0014462Y0009773D01*
X0014284Y0009850D01*
X0014108Y0009930D01*
X0013935Y0010015D01*
X0013763Y0010104D01*
X0013594Y0010197D01*
X0013427Y0010294D01*
X0013262Y0010396D01*
X0013100Y0010501D01*
X0012941Y0010610D01*
X0012784Y0010724D01*
X0012631Y0010841D01*
X0012480Y0010961D01*
X0012332Y0011086D01*
X0012187Y0011214D01*
X0012046Y0011345D01*
X0011907Y0011480D01*
X0011772Y0011619D01*
X0011641Y0011760D01*
X0011513Y0011905D01*
X0011388Y0012053D01*
X0011268Y0012204D01*
X0011151Y0012357D01*
X0011037Y0012514D01*
X0010928Y0012673D01*
X0010823Y0012835D01*
X0010721Y0013000D01*
X0010624Y0013167D01*
X0010531Y0013336D01*
X0010442Y0013508D01*
X0010357Y0013681D01*
X0010277Y0013857D01*
X0010200Y0014035D01*
X0010129Y0014214D01*
X0010061Y0014395D01*
X0009998Y0014578D01*
X0009940Y0014762D01*
X0009886Y0014948D01*
X0009837Y0015135D01*
X0009792Y0015323D01*
X0009752Y0015512D01*
X0009717Y0015702D01*
X0009686Y0015893D01*
X0009660Y0016084D01*
X0009639Y0016276D01*
X0009622Y0016469D01*
X0009610Y0016662D01*
X0009603Y0016855D01*
X0009601Y0017048D01*
X0106609Y0083623D02*
X0106611Y0083720D01*
X0106617Y0083817D01*
X0106627Y0083913D01*
X0106641Y0084009D01*
X0106659Y0084105D01*
X0106680Y0084199D01*
X0106706Y0084293D01*
X0106735Y0084385D01*
X0106769Y0084476D01*
X0106805Y0084566D01*
X0106846Y0084654D01*
X0106890Y0084740D01*
X0106938Y0084825D01*
X0106989Y0084907D01*
X0107043Y0084988D01*
X0107101Y0085066D01*
X0107162Y0085141D01*
X0107225Y0085214D01*
X0107292Y0085285D01*
X0107362Y0085352D01*
X0107434Y0085417D01*
X0107509Y0085478D01*
X0107587Y0085537D01*
X0107666Y0085592D01*
X0107748Y0085644D01*
X0107832Y0085692D01*
X0107918Y0085737D01*
X0108006Y0085779D01*
X0108095Y0085817D01*
X0108186Y0085851D01*
X0108278Y0085881D01*
X0108371Y0085908D01*
X0108466Y0085930D01*
X0108561Y0085949D01*
X0108657Y0085964D01*
X0108753Y0085975D01*
X0108850Y0085982D01*
X0108947Y0085985D01*
X0109044Y0085984D01*
X0109141Y0085979D01*
X0109237Y0085970D01*
X0109333Y0085957D01*
X0109429Y0085940D01*
X0109524Y0085919D01*
X0109617Y0085895D01*
X0109710Y0085866D01*
X0109802Y0085834D01*
X0109892Y0085798D01*
X0109980Y0085759D01*
X0110067Y0085715D01*
X0110152Y0085669D01*
X0110235Y0085618D01*
X0110316Y0085565D01*
X0110394Y0085508D01*
X0110471Y0085448D01*
X0110544Y0085385D01*
X0110615Y0085319D01*
X0110683Y0085250D01*
X0110749Y0085178D01*
X0110811Y0085104D01*
X0110870Y0085027D01*
X0110926Y0084948D01*
X0110979Y0084866D01*
X0111029Y0084783D01*
X0111074Y0084697D01*
X0111117Y0084610D01*
X0111156Y0084521D01*
X0111191Y0084431D01*
X0111222Y0084339D01*
X0111249Y0084246D01*
X0111273Y0084152D01*
X0111293Y0084057D01*
X0111309Y0083961D01*
X0111321Y0083865D01*
X0111329Y0083768D01*
X0111333Y0083671D01*
X0111333Y0083575D01*
X0111329Y0083478D01*
X0111321Y0083381D01*
X0111309Y0083285D01*
X0111293Y0083189D01*
X0111273Y0083094D01*
X0111249Y0083000D01*
X0111222Y0082907D01*
X0111191Y0082815D01*
X0111156Y0082725D01*
X0111117Y0082636D01*
X0111074Y0082549D01*
X0111029Y0082463D01*
X0110979Y0082380D01*
X0110926Y0082298D01*
X0110870Y0082219D01*
X0110811Y0082142D01*
X0110749Y0082068D01*
X0110683Y0081996D01*
X0110615Y0081927D01*
X0110544Y0081861D01*
X0110471Y0081798D01*
X0110394Y0081738D01*
X0110316Y0081681D01*
X0110235Y0081628D01*
X0110152Y0081577D01*
X0110067Y0081531D01*
X0109980Y0081487D01*
X0109892Y0081448D01*
X0109802Y0081412D01*
X0109710Y0081380D01*
X0109617Y0081351D01*
X0109524Y0081327D01*
X0109429Y0081306D01*
X0109333Y0081289D01*
X0109237Y0081276D01*
X0109141Y0081267D01*
X0109044Y0081262D01*
X0108947Y0081261D01*
X0108850Y0081264D01*
X0108753Y0081271D01*
X0108657Y0081282D01*
X0108561Y0081297D01*
X0108466Y0081316D01*
X0108371Y0081338D01*
X0108278Y0081365D01*
X0108186Y0081395D01*
X0108095Y0081429D01*
X0108006Y0081467D01*
X0107918Y0081509D01*
X0107832Y0081554D01*
X0107748Y0081602D01*
X0107666Y0081654D01*
X0107587Y0081709D01*
X0107509Y0081768D01*
X0107434Y0081829D01*
X0107362Y0081894D01*
X0107292Y0081961D01*
X0107225Y0082032D01*
X0107162Y0082105D01*
X0107101Y0082180D01*
X0107043Y0082258D01*
X0106989Y0082339D01*
X0106938Y0082421D01*
X0106890Y0082506D01*
X0106846Y0082592D01*
X0106805Y0082680D01*
X0106769Y0082770D01*
X0106735Y0082861D01*
X0106706Y0082953D01*
X0106680Y0083047D01*
X0106659Y0083141D01*
X0106641Y0083237D01*
X0106627Y0083333D01*
X0106617Y0083429D01*
X0106611Y0083526D01*
X0106609Y0083623D01*
X0106609Y0092245D02*
X0106611Y0092342D01*
X0106617Y0092439D01*
X0106627Y0092535D01*
X0106641Y0092631D01*
X0106659Y0092727D01*
X0106680Y0092821D01*
X0106706Y0092915D01*
X0106735Y0093007D01*
X0106769Y0093098D01*
X0106805Y0093188D01*
X0106846Y0093276D01*
X0106890Y0093362D01*
X0106938Y0093447D01*
X0106989Y0093529D01*
X0107043Y0093610D01*
X0107101Y0093688D01*
X0107162Y0093763D01*
X0107225Y0093836D01*
X0107292Y0093907D01*
X0107362Y0093974D01*
X0107434Y0094039D01*
X0107509Y0094100D01*
X0107587Y0094159D01*
X0107666Y0094214D01*
X0107748Y0094266D01*
X0107832Y0094314D01*
X0107918Y0094359D01*
X0108006Y0094401D01*
X0108095Y0094439D01*
X0108186Y0094473D01*
X0108278Y0094503D01*
X0108371Y0094530D01*
X0108466Y0094552D01*
X0108561Y0094571D01*
X0108657Y0094586D01*
X0108753Y0094597D01*
X0108850Y0094604D01*
X0108947Y0094607D01*
X0109044Y0094606D01*
X0109141Y0094601D01*
X0109237Y0094592D01*
X0109333Y0094579D01*
X0109429Y0094562D01*
X0109524Y0094541D01*
X0109617Y0094517D01*
X0109710Y0094488D01*
X0109802Y0094456D01*
X0109892Y0094420D01*
X0109980Y0094381D01*
X0110067Y0094337D01*
X0110152Y0094291D01*
X0110235Y0094240D01*
X0110316Y0094187D01*
X0110394Y0094130D01*
X0110471Y0094070D01*
X0110544Y0094007D01*
X0110615Y0093941D01*
X0110683Y0093872D01*
X0110749Y0093800D01*
X0110811Y0093726D01*
X0110870Y0093649D01*
X0110926Y0093570D01*
X0110979Y0093488D01*
X0111029Y0093405D01*
X0111074Y0093319D01*
X0111117Y0093232D01*
X0111156Y0093143D01*
X0111191Y0093053D01*
X0111222Y0092961D01*
X0111249Y0092868D01*
X0111273Y0092774D01*
X0111293Y0092679D01*
X0111309Y0092583D01*
X0111321Y0092487D01*
X0111329Y0092390D01*
X0111333Y0092293D01*
X0111333Y0092197D01*
X0111329Y0092100D01*
X0111321Y0092003D01*
X0111309Y0091907D01*
X0111293Y0091811D01*
X0111273Y0091716D01*
X0111249Y0091622D01*
X0111222Y0091529D01*
X0111191Y0091437D01*
X0111156Y0091347D01*
X0111117Y0091258D01*
X0111074Y0091171D01*
X0111029Y0091085D01*
X0110979Y0091002D01*
X0110926Y0090920D01*
X0110870Y0090841D01*
X0110811Y0090764D01*
X0110749Y0090690D01*
X0110683Y0090618D01*
X0110615Y0090549D01*
X0110544Y0090483D01*
X0110471Y0090420D01*
X0110394Y0090360D01*
X0110316Y0090303D01*
X0110235Y0090250D01*
X0110152Y0090199D01*
X0110067Y0090153D01*
X0109980Y0090109D01*
X0109892Y0090070D01*
X0109802Y0090034D01*
X0109710Y0090002D01*
X0109617Y0089973D01*
X0109524Y0089949D01*
X0109429Y0089928D01*
X0109333Y0089911D01*
X0109237Y0089898D01*
X0109141Y0089889D01*
X0109044Y0089884D01*
X0108947Y0089883D01*
X0108850Y0089886D01*
X0108753Y0089893D01*
X0108657Y0089904D01*
X0108561Y0089919D01*
X0108466Y0089938D01*
X0108371Y0089960D01*
X0108278Y0089987D01*
X0108186Y0090017D01*
X0108095Y0090051D01*
X0108006Y0090089D01*
X0107918Y0090131D01*
X0107832Y0090176D01*
X0107748Y0090224D01*
X0107666Y0090276D01*
X0107587Y0090331D01*
X0107509Y0090390D01*
X0107434Y0090451D01*
X0107362Y0090516D01*
X0107292Y0090583D01*
X0107225Y0090654D01*
X0107162Y0090727D01*
X0107101Y0090802D01*
X0107043Y0090880D01*
X0106989Y0090961D01*
X0106938Y0091043D01*
X0106890Y0091128D01*
X0106846Y0091214D01*
X0106805Y0091302D01*
X0106769Y0091392D01*
X0106735Y0091483D01*
X0106706Y0091575D01*
X0106680Y0091669D01*
X0106659Y0091763D01*
X0106641Y0091859D01*
X0106627Y0091955D01*
X0106617Y0092051D01*
X0106611Y0092148D01*
X0106609Y0092245D01*
X0121530Y0088111D02*
X0121532Y0088242D01*
X0121538Y0088374D01*
X0121548Y0088505D01*
X0121562Y0088636D01*
X0121580Y0088766D01*
X0121602Y0088895D01*
X0121627Y0089024D01*
X0121657Y0089152D01*
X0121691Y0089279D01*
X0121728Y0089406D01*
X0121769Y0089530D01*
X0121814Y0089654D01*
X0121863Y0089776D01*
X0121915Y0089897D01*
X0121971Y0090015D01*
X0122031Y0090133D01*
X0122094Y0090248D01*
X0122161Y0090361D01*
X0122231Y0090473D01*
X0122304Y0090582D01*
X0122380Y0090688D01*
X0122460Y0090793D01*
X0122543Y0090895D01*
X0122629Y0090994D01*
X0122718Y0091091D01*
X0122810Y0091185D01*
X0122905Y0091276D01*
X0123002Y0091365D01*
X0123102Y0091450D01*
X0123205Y0091532D01*
X0123310Y0091611D01*
X0123417Y0091687D01*
X0123527Y0091759D01*
X0123639Y0091828D01*
X0123753Y0091894D01*
X0123868Y0091956D01*
X0123986Y0092015D01*
X0124105Y0092070D01*
X0124226Y0092122D01*
X0124349Y0092169D01*
X0124473Y0092213D01*
X0124598Y0092254D01*
X0124724Y0092290D01*
X0124852Y0092323D01*
X0124980Y0092351D01*
X0125109Y0092376D01*
X0125239Y0092397D01*
X0125369Y0092414D01*
X0125500Y0092427D01*
X0125631Y0092436D01*
X0125762Y0092441D01*
X0125894Y0092442D01*
X0126025Y0092439D01*
X0126157Y0092432D01*
X0126288Y0092421D01*
X0126418Y0092406D01*
X0126548Y0092387D01*
X0126678Y0092364D01*
X0126806Y0092338D01*
X0126934Y0092307D01*
X0127061Y0092272D01*
X0127187Y0092234D01*
X0127311Y0092192D01*
X0127435Y0092146D01*
X0127556Y0092096D01*
X0127676Y0092043D01*
X0127795Y0091986D01*
X0127912Y0091926D01*
X0128026Y0091862D01*
X0128139Y0091794D01*
X0128250Y0091723D01*
X0128359Y0091649D01*
X0128465Y0091572D01*
X0128569Y0091491D01*
X0128670Y0091408D01*
X0128769Y0091321D01*
X0128865Y0091231D01*
X0128958Y0091138D01*
X0129049Y0091043D01*
X0129136Y0090945D01*
X0129221Y0090844D01*
X0129302Y0090741D01*
X0129380Y0090635D01*
X0129455Y0090527D01*
X0129527Y0090417D01*
X0129595Y0090305D01*
X0129660Y0090191D01*
X0129721Y0090074D01*
X0129779Y0089956D01*
X0129833Y0089836D01*
X0129884Y0089715D01*
X0129931Y0089592D01*
X0129974Y0089468D01*
X0130013Y0089343D01*
X0130049Y0089216D01*
X0130080Y0089088D01*
X0130108Y0088960D01*
X0130132Y0088831D01*
X0130152Y0088701D01*
X0130168Y0088570D01*
X0130180Y0088439D01*
X0130188Y0088308D01*
X0130192Y0088177D01*
X0130192Y0088045D01*
X0130188Y0087914D01*
X0130180Y0087783D01*
X0130168Y0087652D01*
X0130152Y0087521D01*
X0130132Y0087391D01*
X0130108Y0087262D01*
X0130080Y0087134D01*
X0130049Y0087006D01*
X0130013Y0086879D01*
X0129974Y0086754D01*
X0129931Y0086630D01*
X0129884Y0086507D01*
X0129833Y0086386D01*
X0129779Y0086266D01*
X0129721Y0086148D01*
X0129660Y0086031D01*
X0129595Y0085917D01*
X0129527Y0085805D01*
X0129455Y0085695D01*
X0129380Y0085587D01*
X0129302Y0085481D01*
X0129221Y0085378D01*
X0129136Y0085277D01*
X0129049Y0085179D01*
X0128958Y0085084D01*
X0128865Y0084991D01*
X0128769Y0084901D01*
X0128670Y0084814D01*
X0128569Y0084731D01*
X0128465Y0084650D01*
X0128359Y0084573D01*
X0128250Y0084499D01*
X0128139Y0084428D01*
X0128027Y0084360D01*
X0127912Y0084296D01*
X0127795Y0084236D01*
X0127676Y0084179D01*
X0127556Y0084126D01*
X0127435Y0084076D01*
X0127311Y0084030D01*
X0127187Y0083988D01*
X0127061Y0083950D01*
X0126934Y0083915D01*
X0126806Y0083884D01*
X0126678Y0083858D01*
X0126548Y0083835D01*
X0126418Y0083816D01*
X0126288Y0083801D01*
X0126157Y0083790D01*
X0126025Y0083783D01*
X0125894Y0083780D01*
X0125762Y0083781D01*
X0125631Y0083786D01*
X0125500Y0083795D01*
X0125369Y0083808D01*
X0125239Y0083825D01*
X0125109Y0083846D01*
X0124980Y0083871D01*
X0124852Y0083899D01*
X0124724Y0083932D01*
X0124598Y0083968D01*
X0124473Y0084009D01*
X0124349Y0084053D01*
X0124226Y0084100D01*
X0124105Y0084152D01*
X0123986Y0084207D01*
X0123868Y0084266D01*
X0123753Y0084328D01*
X0123639Y0084394D01*
X0123527Y0084463D01*
X0123417Y0084535D01*
X0123310Y0084611D01*
X0123205Y0084690D01*
X0123102Y0084772D01*
X0123002Y0084857D01*
X0122905Y0084946D01*
X0122810Y0085037D01*
X0122718Y0085131D01*
X0122629Y0085228D01*
X0122543Y0085327D01*
X0122460Y0085429D01*
X0122380Y0085534D01*
X0122304Y0085640D01*
X0122231Y0085749D01*
X0122161Y0085861D01*
X0122094Y0085974D01*
X0122031Y0086089D01*
X0121971Y0086207D01*
X0121915Y0086325D01*
X0121863Y0086446D01*
X0121814Y0086568D01*
X0121769Y0086692D01*
X0121728Y0086816D01*
X0121691Y0086943D01*
X0121657Y0087070D01*
X0121627Y0087198D01*
X0121602Y0087327D01*
X0121580Y0087456D01*
X0121562Y0087586D01*
X0121548Y0087717D01*
X0121538Y0087848D01*
X0121532Y0087980D01*
X0121530Y0088111D01*
X0224719Y0092245D02*
X0224721Y0092342D01*
X0224727Y0092439D01*
X0224737Y0092535D01*
X0224751Y0092631D01*
X0224769Y0092727D01*
X0224790Y0092821D01*
X0224816Y0092915D01*
X0224845Y0093007D01*
X0224879Y0093098D01*
X0224915Y0093188D01*
X0224956Y0093276D01*
X0225000Y0093362D01*
X0225048Y0093447D01*
X0225099Y0093529D01*
X0225153Y0093610D01*
X0225211Y0093688D01*
X0225272Y0093763D01*
X0225335Y0093836D01*
X0225402Y0093907D01*
X0225472Y0093974D01*
X0225544Y0094039D01*
X0225619Y0094100D01*
X0225697Y0094159D01*
X0225776Y0094214D01*
X0225858Y0094266D01*
X0225942Y0094314D01*
X0226028Y0094359D01*
X0226116Y0094401D01*
X0226205Y0094439D01*
X0226296Y0094473D01*
X0226388Y0094503D01*
X0226481Y0094530D01*
X0226576Y0094552D01*
X0226671Y0094571D01*
X0226767Y0094586D01*
X0226863Y0094597D01*
X0226960Y0094604D01*
X0227057Y0094607D01*
X0227154Y0094606D01*
X0227251Y0094601D01*
X0227347Y0094592D01*
X0227443Y0094579D01*
X0227539Y0094562D01*
X0227634Y0094541D01*
X0227727Y0094517D01*
X0227820Y0094488D01*
X0227912Y0094456D01*
X0228002Y0094420D01*
X0228090Y0094381D01*
X0228177Y0094337D01*
X0228262Y0094291D01*
X0228345Y0094240D01*
X0228426Y0094187D01*
X0228504Y0094130D01*
X0228581Y0094070D01*
X0228654Y0094007D01*
X0228725Y0093941D01*
X0228793Y0093872D01*
X0228859Y0093800D01*
X0228921Y0093726D01*
X0228980Y0093649D01*
X0229036Y0093570D01*
X0229089Y0093488D01*
X0229139Y0093405D01*
X0229184Y0093319D01*
X0229227Y0093232D01*
X0229266Y0093143D01*
X0229301Y0093053D01*
X0229332Y0092961D01*
X0229359Y0092868D01*
X0229383Y0092774D01*
X0229403Y0092679D01*
X0229419Y0092583D01*
X0229431Y0092487D01*
X0229439Y0092390D01*
X0229443Y0092293D01*
X0229443Y0092197D01*
X0229439Y0092100D01*
X0229431Y0092003D01*
X0229419Y0091907D01*
X0229403Y0091811D01*
X0229383Y0091716D01*
X0229359Y0091622D01*
X0229332Y0091529D01*
X0229301Y0091437D01*
X0229266Y0091347D01*
X0229227Y0091258D01*
X0229184Y0091171D01*
X0229139Y0091085D01*
X0229089Y0091002D01*
X0229036Y0090920D01*
X0228980Y0090841D01*
X0228921Y0090764D01*
X0228859Y0090690D01*
X0228793Y0090618D01*
X0228725Y0090549D01*
X0228654Y0090483D01*
X0228581Y0090420D01*
X0228504Y0090360D01*
X0228426Y0090303D01*
X0228345Y0090250D01*
X0228262Y0090199D01*
X0228177Y0090153D01*
X0228090Y0090109D01*
X0228002Y0090070D01*
X0227912Y0090034D01*
X0227820Y0090002D01*
X0227727Y0089973D01*
X0227634Y0089949D01*
X0227539Y0089928D01*
X0227443Y0089911D01*
X0227347Y0089898D01*
X0227251Y0089889D01*
X0227154Y0089884D01*
X0227057Y0089883D01*
X0226960Y0089886D01*
X0226863Y0089893D01*
X0226767Y0089904D01*
X0226671Y0089919D01*
X0226576Y0089938D01*
X0226481Y0089960D01*
X0226388Y0089987D01*
X0226296Y0090017D01*
X0226205Y0090051D01*
X0226116Y0090089D01*
X0226028Y0090131D01*
X0225942Y0090176D01*
X0225858Y0090224D01*
X0225776Y0090276D01*
X0225697Y0090331D01*
X0225619Y0090390D01*
X0225544Y0090451D01*
X0225472Y0090516D01*
X0225402Y0090583D01*
X0225335Y0090654D01*
X0225272Y0090727D01*
X0225211Y0090802D01*
X0225153Y0090880D01*
X0225099Y0090961D01*
X0225048Y0091043D01*
X0225000Y0091128D01*
X0224956Y0091214D01*
X0224915Y0091302D01*
X0224879Y0091392D01*
X0224845Y0091483D01*
X0224816Y0091575D01*
X0224790Y0091669D01*
X0224769Y0091763D01*
X0224751Y0091859D01*
X0224737Y0091955D01*
X0224727Y0092051D01*
X0224721Y0092148D01*
X0224719Y0092245D01*
X0224719Y0083623D02*
X0224721Y0083720D01*
X0224727Y0083817D01*
X0224737Y0083913D01*
X0224751Y0084009D01*
X0224769Y0084105D01*
X0224790Y0084199D01*
X0224816Y0084293D01*
X0224845Y0084385D01*
X0224879Y0084476D01*
X0224915Y0084566D01*
X0224956Y0084654D01*
X0225000Y0084740D01*
X0225048Y0084825D01*
X0225099Y0084907D01*
X0225153Y0084988D01*
X0225211Y0085066D01*
X0225272Y0085141D01*
X0225335Y0085214D01*
X0225402Y0085285D01*
X0225472Y0085352D01*
X0225544Y0085417D01*
X0225619Y0085478D01*
X0225697Y0085537D01*
X0225776Y0085592D01*
X0225858Y0085644D01*
X0225942Y0085692D01*
X0226028Y0085737D01*
X0226116Y0085779D01*
X0226205Y0085817D01*
X0226296Y0085851D01*
X0226388Y0085881D01*
X0226481Y0085908D01*
X0226576Y0085930D01*
X0226671Y0085949D01*
X0226767Y0085964D01*
X0226863Y0085975D01*
X0226960Y0085982D01*
X0227057Y0085985D01*
X0227154Y0085984D01*
X0227251Y0085979D01*
X0227347Y0085970D01*
X0227443Y0085957D01*
X0227539Y0085940D01*
X0227634Y0085919D01*
X0227727Y0085895D01*
X0227820Y0085866D01*
X0227912Y0085834D01*
X0228002Y0085798D01*
X0228090Y0085759D01*
X0228177Y0085715D01*
X0228262Y0085669D01*
X0228345Y0085618D01*
X0228426Y0085565D01*
X0228504Y0085508D01*
X0228581Y0085448D01*
X0228654Y0085385D01*
X0228725Y0085319D01*
X0228793Y0085250D01*
X0228859Y0085178D01*
X0228921Y0085104D01*
X0228980Y0085027D01*
X0229036Y0084948D01*
X0229089Y0084866D01*
X0229139Y0084783D01*
X0229184Y0084697D01*
X0229227Y0084610D01*
X0229266Y0084521D01*
X0229301Y0084431D01*
X0229332Y0084339D01*
X0229359Y0084246D01*
X0229383Y0084152D01*
X0229403Y0084057D01*
X0229419Y0083961D01*
X0229431Y0083865D01*
X0229439Y0083768D01*
X0229443Y0083671D01*
X0229443Y0083575D01*
X0229439Y0083478D01*
X0229431Y0083381D01*
X0229419Y0083285D01*
X0229403Y0083189D01*
X0229383Y0083094D01*
X0229359Y0083000D01*
X0229332Y0082907D01*
X0229301Y0082815D01*
X0229266Y0082725D01*
X0229227Y0082636D01*
X0229184Y0082549D01*
X0229139Y0082463D01*
X0229089Y0082380D01*
X0229036Y0082298D01*
X0228980Y0082219D01*
X0228921Y0082142D01*
X0228859Y0082068D01*
X0228793Y0081996D01*
X0228725Y0081927D01*
X0228654Y0081861D01*
X0228581Y0081798D01*
X0228504Y0081738D01*
X0228426Y0081681D01*
X0228345Y0081628D01*
X0228262Y0081577D01*
X0228177Y0081531D01*
X0228090Y0081487D01*
X0228002Y0081448D01*
X0227912Y0081412D01*
X0227820Y0081380D01*
X0227727Y0081351D01*
X0227634Y0081327D01*
X0227539Y0081306D01*
X0227443Y0081289D01*
X0227347Y0081276D01*
X0227251Y0081267D01*
X0227154Y0081262D01*
X0227057Y0081261D01*
X0226960Y0081264D01*
X0226863Y0081271D01*
X0226767Y0081282D01*
X0226671Y0081297D01*
X0226576Y0081316D01*
X0226481Y0081338D01*
X0226388Y0081365D01*
X0226296Y0081395D01*
X0226205Y0081429D01*
X0226116Y0081467D01*
X0226028Y0081509D01*
X0225942Y0081554D01*
X0225858Y0081602D01*
X0225776Y0081654D01*
X0225697Y0081709D01*
X0225619Y0081768D01*
X0225544Y0081829D01*
X0225472Y0081894D01*
X0225402Y0081961D01*
X0225335Y0082032D01*
X0225272Y0082105D01*
X0225211Y0082180D01*
X0225153Y0082258D01*
X0225099Y0082339D01*
X0225048Y0082421D01*
X0225000Y0082506D01*
X0224956Y0082592D01*
X0224915Y0082680D01*
X0224879Y0082770D01*
X0224845Y0082861D01*
X0224816Y0082953D01*
X0224790Y0083047D01*
X0224769Y0083141D01*
X0224751Y0083237D01*
X0224737Y0083333D01*
X0224727Y0083429D01*
X0224721Y0083526D01*
X0224719Y0083623D01*
X0239640Y0088111D02*
X0239642Y0088242D01*
X0239648Y0088374D01*
X0239658Y0088505D01*
X0239672Y0088636D01*
X0239690Y0088766D01*
X0239712Y0088895D01*
X0239737Y0089024D01*
X0239767Y0089152D01*
X0239801Y0089279D01*
X0239838Y0089406D01*
X0239879Y0089530D01*
X0239924Y0089654D01*
X0239973Y0089776D01*
X0240025Y0089897D01*
X0240081Y0090015D01*
X0240141Y0090133D01*
X0240204Y0090248D01*
X0240271Y0090361D01*
X0240341Y0090473D01*
X0240414Y0090582D01*
X0240490Y0090688D01*
X0240570Y0090793D01*
X0240653Y0090895D01*
X0240739Y0090994D01*
X0240828Y0091091D01*
X0240920Y0091185D01*
X0241015Y0091276D01*
X0241112Y0091365D01*
X0241212Y0091450D01*
X0241315Y0091532D01*
X0241420Y0091611D01*
X0241527Y0091687D01*
X0241637Y0091759D01*
X0241749Y0091828D01*
X0241863Y0091894D01*
X0241978Y0091956D01*
X0242096Y0092015D01*
X0242215Y0092070D01*
X0242336Y0092122D01*
X0242459Y0092169D01*
X0242583Y0092213D01*
X0242708Y0092254D01*
X0242834Y0092290D01*
X0242962Y0092323D01*
X0243090Y0092351D01*
X0243219Y0092376D01*
X0243349Y0092397D01*
X0243479Y0092414D01*
X0243610Y0092427D01*
X0243741Y0092436D01*
X0243872Y0092441D01*
X0244004Y0092442D01*
X0244135Y0092439D01*
X0244267Y0092432D01*
X0244398Y0092421D01*
X0244528Y0092406D01*
X0244658Y0092387D01*
X0244788Y0092364D01*
X0244916Y0092338D01*
X0245044Y0092307D01*
X0245171Y0092272D01*
X0245297Y0092234D01*
X0245421Y0092192D01*
X0245545Y0092146D01*
X0245666Y0092096D01*
X0245786Y0092043D01*
X0245905Y0091986D01*
X0246022Y0091926D01*
X0246136Y0091862D01*
X0246249Y0091794D01*
X0246360Y0091723D01*
X0246469Y0091649D01*
X0246575Y0091572D01*
X0246679Y0091491D01*
X0246780Y0091408D01*
X0246879Y0091321D01*
X0246975Y0091231D01*
X0247068Y0091138D01*
X0247159Y0091043D01*
X0247246Y0090945D01*
X0247331Y0090844D01*
X0247412Y0090741D01*
X0247490Y0090635D01*
X0247565Y0090527D01*
X0247637Y0090417D01*
X0247705Y0090305D01*
X0247770Y0090191D01*
X0247831Y0090074D01*
X0247889Y0089956D01*
X0247943Y0089836D01*
X0247994Y0089715D01*
X0248041Y0089592D01*
X0248084Y0089468D01*
X0248123Y0089343D01*
X0248159Y0089216D01*
X0248190Y0089088D01*
X0248218Y0088960D01*
X0248242Y0088831D01*
X0248262Y0088701D01*
X0248278Y0088570D01*
X0248290Y0088439D01*
X0248298Y0088308D01*
X0248302Y0088177D01*
X0248302Y0088045D01*
X0248298Y0087914D01*
X0248290Y0087783D01*
X0248278Y0087652D01*
X0248262Y0087521D01*
X0248242Y0087391D01*
X0248218Y0087262D01*
X0248190Y0087134D01*
X0248159Y0087006D01*
X0248123Y0086879D01*
X0248084Y0086754D01*
X0248041Y0086630D01*
X0247994Y0086507D01*
X0247943Y0086386D01*
X0247889Y0086266D01*
X0247831Y0086148D01*
X0247770Y0086031D01*
X0247705Y0085917D01*
X0247637Y0085805D01*
X0247565Y0085695D01*
X0247490Y0085587D01*
X0247412Y0085481D01*
X0247331Y0085378D01*
X0247246Y0085277D01*
X0247159Y0085179D01*
X0247068Y0085084D01*
X0246975Y0084991D01*
X0246879Y0084901D01*
X0246780Y0084814D01*
X0246679Y0084731D01*
X0246575Y0084650D01*
X0246469Y0084573D01*
X0246360Y0084499D01*
X0246249Y0084428D01*
X0246137Y0084360D01*
X0246022Y0084296D01*
X0245905Y0084236D01*
X0245786Y0084179D01*
X0245666Y0084126D01*
X0245545Y0084076D01*
X0245421Y0084030D01*
X0245297Y0083988D01*
X0245171Y0083950D01*
X0245044Y0083915D01*
X0244916Y0083884D01*
X0244788Y0083858D01*
X0244658Y0083835D01*
X0244528Y0083816D01*
X0244398Y0083801D01*
X0244267Y0083790D01*
X0244135Y0083783D01*
X0244004Y0083780D01*
X0243872Y0083781D01*
X0243741Y0083786D01*
X0243610Y0083795D01*
X0243479Y0083808D01*
X0243349Y0083825D01*
X0243219Y0083846D01*
X0243090Y0083871D01*
X0242962Y0083899D01*
X0242834Y0083932D01*
X0242708Y0083968D01*
X0242583Y0084009D01*
X0242459Y0084053D01*
X0242336Y0084100D01*
X0242215Y0084152D01*
X0242096Y0084207D01*
X0241978Y0084266D01*
X0241863Y0084328D01*
X0241749Y0084394D01*
X0241637Y0084463D01*
X0241527Y0084535D01*
X0241420Y0084611D01*
X0241315Y0084690D01*
X0241212Y0084772D01*
X0241112Y0084857D01*
X0241015Y0084946D01*
X0240920Y0085037D01*
X0240828Y0085131D01*
X0240739Y0085228D01*
X0240653Y0085327D01*
X0240570Y0085429D01*
X0240490Y0085534D01*
X0240414Y0085640D01*
X0240341Y0085749D01*
X0240271Y0085861D01*
X0240204Y0085974D01*
X0240141Y0086089D01*
X0240081Y0086207D01*
X0240025Y0086325D01*
X0239973Y0086446D01*
X0239924Y0086568D01*
X0239879Y0086692D01*
X0239838Y0086816D01*
X0239801Y0086943D01*
X0239767Y0087070D01*
X0239737Y0087198D01*
X0239712Y0087327D01*
X0239690Y0087456D01*
X0239672Y0087586D01*
X0239658Y0087717D01*
X0239648Y0087848D01*
X0239642Y0087980D01*
X0239640Y0088111D01*
X0371806Y0017048D02*
X0371808Y0017241D01*
X0371815Y0017434D01*
X0371827Y0017627D01*
X0371844Y0017820D01*
X0371865Y0018012D01*
X0371891Y0018203D01*
X0371922Y0018394D01*
X0371957Y0018584D01*
X0371997Y0018773D01*
X0372042Y0018961D01*
X0372091Y0019148D01*
X0372145Y0019334D01*
X0372203Y0019518D01*
X0372266Y0019701D01*
X0372334Y0019882D01*
X0372405Y0020061D01*
X0372482Y0020239D01*
X0372562Y0020415D01*
X0372647Y0020588D01*
X0372736Y0020760D01*
X0372829Y0020929D01*
X0372926Y0021096D01*
X0373028Y0021261D01*
X0373133Y0021423D01*
X0373242Y0021582D01*
X0373356Y0021739D01*
X0373473Y0021892D01*
X0373593Y0022043D01*
X0373718Y0022191D01*
X0373846Y0022336D01*
X0373977Y0022477D01*
X0374112Y0022616D01*
X0374251Y0022751D01*
X0374392Y0022882D01*
X0374537Y0023010D01*
X0374685Y0023135D01*
X0374836Y0023255D01*
X0374989Y0023372D01*
X0375146Y0023486D01*
X0375305Y0023595D01*
X0375467Y0023700D01*
X0375632Y0023802D01*
X0375799Y0023899D01*
X0375968Y0023992D01*
X0376140Y0024081D01*
X0376313Y0024166D01*
X0376489Y0024246D01*
X0376667Y0024323D01*
X0376846Y0024394D01*
X0377027Y0024462D01*
X0377210Y0024525D01*
X0377394Y0024583D01*
X0377580Y0024637D01*
X0377767Y0024686D01*
X0377955Y0024731D01*
X0378144Y0024771D01*
X0378334Y0024806D01*
X0378525Y0024837D01*
X0378716Y0024863D01*
X0378908Y0024884D01*
X0379101Y0024901D01*
X0379294Y0024913D01*
X0379487Y0024920D01*
X0379680Y0024922D01*
X0379873Y0024920D01*
X0380066Y0024913D01*
X0380259Y0024901D01*
X0380452Y0024884D01*
X0380644Y0024863D01*
X0380835Y0024837D01*
X0381026Y0024806D01*
X0381216Y0024771D01*
X0381405Y0024731D01*
X0381593Y0024686D01*
X0381780Y0024637D01*
X0381966Y0024583D01*
X0382150Y0024525D01*
X0382333Y0024462D01*
X0382514Y0024394D01*
X0382693Y0024323D01*
X0382871Y0024246D01*
X0383047Y0024166D01*
X0383220Y0024081D01*
X0383392Y0023992D01*
X0383561Y0023899D01*
X0383728Y0023802D01*
X0383893Y0023700D01*
X0384055Y0023595D01*
X0384214Y0023486D01*
X0384371Y0023372D01*
X0384524Y0023255D01*
X0384675Y0023135D01*
X0384823Y0023010D01*
X0384968Y0022882D01*
X0385109Y0022751D01*
X0385248Y0022616D01*
X0385383Y0022477D01*
X0385514Y0022336D01*
X0385642Y0022191D01*
X0385767Y0022043D01*
X0385887Y0021892D01*
X0386004Y0021739D01*
X0386118Y0021582D01*
X0386227Y0021423D01*
X0386332Y0021261D01*
X0386434Y0021096D01*
X0386531Y0020929D01*
X0386624Y0020760D01*
X0386713Y0020588D01*
X0386798Y0020415D01*
X0386878Y0020239D01*
X0386955Y0020061D01*
X0387026Y0019882D01*
X0387094Y0019701D01*
X0387157Y0019518D01*
X0387215Y0019334D01*
X0387269Y0019148D01*
X0387318Y0018961D01*
X0387363Y0018773D01*
X0387403Y0018584D01*
X0387438Y0018394D01*
X0387469Y0018203D01*
X0387495Y0018012D01*
X0387516Y0017820D01*
X0387533Y0017627D01*
X0387545Y0017434D01*
X0387552Y0017241D01*
X0387554Y0017048D01*
X0387552Y0016855D01*
X0387545Y0016662D01*
X0387533Y0016469D01*
X0387516Y0016276D01*
X0387495Y0016084D01*
X0387469Y0015893D01*
X0387438Y0015702D01*
X0387403Y0015512D01*
X0387363Y0015323D01*
X0387318Y0015135D01*
X0387269Y0014948D01*
X0387215Y0014762D01*
X0387157Y0014578D01*
X0387094Y0014395D01*
X0387026Y0014214D01*
X0386955Y0014035D01*
X0386878Y0013857D01*
X0386798Y0013681D01*
X0386713Y0013508D01*
X0386624Y0013336D01*
X0386531Y0013167D01*
X0386434Y0013000D01*
X0386332Y0012835D01*
X0386227Y0012673D01*
X0386118Y0012514D01*
X0386004Y0012357D01*
X0385887Y0012204D01*
X0385767Y0012053D01*
X0385642Y0011905D01*
X0385514Y0011760D01*
X0385383Y0011619D01*
X0385248Y0011480D01*
X0385109Y0011345D01*
X0384968Y0011214D01*
X0384823Y0011086D01*
X0384675Y0010961D01*
X0384524Y0010841D01*
X0384371Y0010724D01*
X0384214Y0010610D01*
X0384055Y0010501D01*
X0383893Y0010396D01*
X0383728Y0010294D01*
X0383561Y0010197D01*
X0383392Y0010104D01*
X0383220Y0010015D01*
X0383047Y0009930D01*
X0382871Y0009850D01*
X0382693Y0009773D01*
X0382514Y0009702D01*
X0382333Y0009634D01*
X0382150Y0009571D01*
X0381966Y0009513D01*
X0381780Y0009459D01*
X0381593Y0009410D01*
X0381405Y0009365D01*
X0381216Y0009325D01*
X0381026Y0009290D01*
X0380835Y0009259D01*
X0380644Y0009233D01*
X0380452Y0009212D01*
X0380259Y0009195D01*
X0380066Y0009183D01*
X0379873Y0009176D01*
X0379680Y0009174D01*
X0379487Y0009176D01*
X0379294Y0009183D01*
X0379101Y0009195D01*
X0378908Y0009212D01*
X0378716Y0009233D01*
X0378525Y0009259D01*
X0378334Y0009290D01*
X0378144Y0009325D01*
X0377955Y0009365D01*
X0377767Y0009410D01*
X0377580Y0009459D01*
X0377394Y0009513D01*
X0377210Y0009571D01*
X0377027Y0009634D01*
X0376846Y0009702D01*
X0376667Y0009773D01*
X0376489Y0009850D01*
X0376313Y0009930D01*
X0376140Y0010015D01*
X0375968Y0010104D01*
X0375799Y0010197D01*
X0375632Y0010294D01*
X0375467Y0010396D01*
X0375305Y0010501D01*
X0375146Y0010610D01*
X0374989Y0010724D01*
X0374836Y0010841D01*
X0374685Y0010961D01*
X0374537Y0011086D01*
X0374392Y0011214D01*
X0374251Y0011345D01*
X0374112Y0011480D01*
X0373977Y0011619D01*
X0373846Y0011760D01*
X0373718Y0011905D01*
X0373593Y0012053D01*
X0373473Y0012204D01*
X0373356Y0012357D01*
X0373242Y0012514D01*
X0373133Y0012673D01*
X0373028Y0012835D01*
X0372926Y0013000D01*
X0372829Y0013167D01*
X0372736Y0013336D01*
X0372647Y0013508D01*
X0372562Y0013681D01*
X0372482Y0013857D01*
X0372405Y0014035D01*
X0372334Y0014214D01*
X0372266Y0014395D01*
X0372203Y0014578D01*
X0372145Y0014762D01*
X0372091Y0014948D01*
X0372042Y0015135D01*
X0371997Y0015323D01*
X0371957Y0015512D01*
X0371922Y0015702D01*
X0371891Y0015893D01*
X0371865Y0016084D01*
X0371844Y0016276D01*
X0371827Y0016469D01*
X0371815Y0016662D01*
X0371808Y0016855D01*
X0371806Y0017048D01*
X0224719Y0233229D02*
X0224721Y0233326D01*
X0224727Y0233423D01*
X0224737Y0233519D01*
X0224751Y0233615D01*
X0224769Y0233711D01*
X0224790Y0233805D01*
X0224816Y0233899D01*
X0224845Y0233991D01*
X0224879Y0234082D01*
X0224915Y0234172D01*
X0224956Y0234260D01*
X0225000Y0234346D01*
X0225048Y0234431D01*
X0225099Y0234513D01*
X0225153Y0234594D01*
X0225211Y0234672D01*
X0225272Y0234747D01*
X0225335Y0234820D01*
X0225402Y0234891D01*
X0225472Y0234958D01*
X0225544Y0235023D01*
X0225619Y0235084D01*
X0225697Y0235143D01*
X0225776Y0235198D01*
X0225858Y0235250D01*
X0225942Y0235298D01*
X0226028Y0235343D01*
X0226116Y0235385D01*
X0226205Y0235423D01*
X0226296Y0235457D01*
X0226388Y0235487D01*
X0226481Y0235514D01*
X0226576Y0235536D01*
X0226671Y0235555D01*
X0226767Y0235570D01*
X0226863Y0235581D01*
X0226960Y0235588D01*
X0227057Y0235591D01*
X0227154Y0235590D01*
X0227251Y0235585D01*
X0227347Y0235576D01*
X0227443Y0235563D01*
X0227539Y0235546D01*
X0227634Y0235525D01*
X0227727Y0235501D01*
X0227820Y0235472D01*
X0227912Y0235440D01*
X0228002Y0235404D01*
X0228090Y0235365D01*
X0228177Y0235321D01*
X0228262Y0235275D01*
X0228345Y0235224D01*
X0228426Y0235171D01*
X0228504Y0235114D01*
X0228581Y0235054D01*
X0228654Y0234991D01*
X0228725Y0234925D01*
X0228793Y0234856D01*
X0228859Y0234784D01*
X0228921Y0234710D01*
X0228980Y0234633D01*
X0229036Y0234554D01*
X0229089Y0234472D01*
X0229139Y0234389D01*
X0229184Y0234303D01*
X0229227Y0234216D01*
X0229266Y0234127D01*
X0229301Y0234037D01*
X0229332Y0233945D01*
X0229359Y0233852D01*
X0229383Y0233758D01*
X0229403Y0233663D01*
X0229419Y0233567D01*
X0229431Y0233471D01*
X0229439Y0233374D01*
X0229443Y0233277D01*
X0229443Y0233181D01*
X0229439Y0233084D01*
X0229431Y0232987D01*
X0229419Y0232891D01*
X0229403Y0232795D01*
X0229383Y0232700D01*
X0229359Y0232606D01*
X0229332Y0232513D01*
X0229301Y0232421D01*
X0229266Y0232331D01*
X0229227Y0232242D01*
X0229184Y0232155D01*
X0229139Y0232069D01*
X0229089Y0231986D01*
X0229036Y0231904D01*
X0228980Y0231825D01*
X0228921Y0231748D01*
X0228859Y0231674D01*
X0228793Y0231602D01*
X0228725Y0231533D01*
X0228654Y0231467D01*
X0228581Y0231404D01*
X0228504Y0231344D01*
X0228426Y0231287D01*
X0228345Y0231234D01*
X0228262Y0231183D01*
X0228177Y0231137D01*
X0228090Y0231093D01*
X0228002Y0231054D01*
X0227912Y0231018D01*
X0227820Y0230986D01*
X0227727Y0230957D01*
X0227634Y0230933D01*
X0227539Y0230912D01*
X0227443Y0230895D01*
X0227347Y0230882D01*
X0227251Y0230873D01*
X0227154Y0230868D01*
X0227057Y0230867D01*
X0226960Y0230870D01*
X0226863Y0230877D01*
X0226767Y0230888D01*
X0226671Y0230903D01*
X0226576Y0230922D01*
X0226481Y0230944D01*
X0226388Y0230971D01*
X0226296Y0231001D01*
X0226205Y0231035D01*
X0226116Y0231073D01*
X0226028Y0231115D01*
X0225942Y0231160D01*
X0225858Y0231208D01*
X0225776Y0231260D01*
X0225697Y0231315D01*
X0225619Y0231374D01*
X0225544Y0231435D01*
X0225472Y0231500D01*
X0225402Y0231567D01*
X0225335Y0231638D01*
X0225272Y0231711D01*
X0225211Y0231786D01*
X0225153Y0231864D01*
X0225099Y0231945D01*
X0225048Y0232027D01*
X0225000Y0232112D01*
X0224956Y0232198D01*
X0224915Y0232286D01*
X0224879Y0232376D01*
X0224845Y0232467D01*
X0224816Y0232559D01*
X0224790Y0232653D01*
X0224769Y0232747D01*
X0224751Y0232843D01*
X0224737Y0232939D01*
X0224727Y0233035D01*
X0224721Y0233132D01*
X0224719Y0233229D01*
X0224719Y0241851D02*
X0224721Y0241948D01*
X0224727Y0242045D01*
X0224737Y0242141D01*
X0224751Y0242237D01*
X0224769Y0242333D01*
X0224790Y0242427D01*
X0224816Y0242521D01*
X0224845Y0242613D01*
X0224879Y0242704D01*
X0224915Y0242794D01*
X0224956Y0242882D01*
X0225000Y0242968D01*
X0225048Y0243053D01*
X0225099Y0243135D01*
X0225153Y0243216D01*
X0225211Y0243294D01*
X0225272Y0243369D01*
X0225335Y0243442D01*
X0225402Y0243513D01*
X0225472Y0243580D01*
X0225544Y0243645D01*
X0225619Y0243706D01*
X0225697Y0243765D01*
X0225776Y0243820D01*
X0225858Y0243872D01*
X0225942Y0243920D01*
X0226028Y0243965D01*
X0226116Y0244007D01*
X0226205Y0244045D01*
X0226296Y0244079D01*
X0226388Y0244109D01*
X0226481Y0244136D01*
X0226576Y0244158D01*
X0226671Y0244177D01*
X0226767Y0244192D01*
X0226863Y0244203D01*
X0226960Y0244210D01*
X0227057Y0244213D01*
X0227154Y0244212D01*
X0227251Y0244207D01*
X0227347Y0244198D01*
X0227443Y0244185D01*
X0227539Y0244168D01*
X0227634Y0244147D01*
X0227727Y0244123D01*
X0227820Y0244094D01*
X0227912Y0244062D01*
X0228002Y0244026D01*
X0228090Y0243987D01*
X0228177Y0243943D01*
X0228262Y0243897D01*
X0228345Y0243846D01*
X0228426Y0243793D01*
X0228504Y0243736D01*
X0228581Y0243676D01*
X0228654Y0243613D01*
X0228725Y0243547D01*
X0228793Y0243478D01*
X0228859Y0243406D01*
X0228921Y0243332D01*
X0228980Y0243255D01*
X0229036Y0243176D01*
X0229089Y0243094D01*
X0229139Y0243011D01*
X0229184Y0242925D01*
X0229227Y0242838D01*
X0229266Y0242749D01*
X0229301Y0242659D01*
X0229332Y0242567D01*
X0229359Y0242474D01*
X0229383Y0242380D01*
X0229403Y0242285D01*
X0229419Y0242189D01*
X0229431Y0242093D01*
X0229439Y0241996D01*
X0229443Y0241899D01*
X0229443Y0241803D01*
X0229439Y0241706D01*
X0229431Y0241609D01*
X0229419Y0241513D01*
X0229403Y0241417D01*
X0229383Y0241322D01*
X0229359Y0241228D01*
X0229332Y0241135D01*
X0229301Y0241043D01*
X0229266Y0240953D01*
X0229227Y0240864D01*
X0229184Y0240777D01*
X0229139Y0240691D01*
X0229089Y0240608D01*
X0229036Y0240526D01*
X0228980Y0240447D01*
X0228921Y0240370D01*
X0228859Y0240296D01*
X0228793Y0240224D01*
X0228725Y0240155D01*
X0228654Y0240089D01*
X0228581Y0240026D01*
X0228504Y0239966D01*
X0228426Y0239909D01*
X0228345Y0239856D01*
X0228262Y0239805D01*
X0228177Y0239759D01*
X0228090Y0239715D01*
X0228002Y0239676D01*
X0227912Y0239640D01*
X0227820Y0239608D01*
X0227727Y0239579D01*
X0227634Y0239555D01*
X0227539Y0239534D01*
X0227443Y0239517D01*
X0227347Y0239504D01*
X0227251Y0239495D01*
X0227154Y0239490D01*
X0227057Y0239489D01*
X0226960Y0239492D01*
X0226863Y0239499D01*
X0226767Y0239510D01*
X0226671Y0239525D01*
X0226576Y0239544D01*
X0226481Y0239566D01*
X0226388Y0239593D01*
X0226296Y0239623D01*
X0226205Y0239657D01*
X0226116Y0239695D01*
X0226028Y0239737D01*
X0225942Y0239782D01*
X0225858Y0239830D01*
X0225776Y0239882D01*
X0225697Y0239937D01*
X0225619Y0239996D01*
X0225544Y0240057D01*
X0225472Y0240122D01*
X0225402Y0240189D01*
X0225335Y0240260D01*
X0225272Y0240333D01*
X0225211Y0240408D01*
X0225153Y0240486D01*
X0225099Y0240567D01*
X0225048Y0240649D01*
X0225000Y0240734D01*
X0224956Y0240820D01*
X0224915Y0240908D01*
X0224879Y0240998D01*
X0224845Y0241089D01*
X0224816Y0241181D01*
X0224790Y0241275D01*
X0224769Y0241369D01*
X0224751Y0241465D01*
X0224737Y0241561D01*
X0224727Y0241657D01*
X0224721Y0241754D01*
X0224719Y0241851D01*
X0239640Y0237717D02*
X0239642Y0237848D01*
X0239648Y0237980D01*
X0239658Y0238111D01*
X0239672Y0238242D01*
X0239690Y0238372D01*
X0239712Y0238501D01*
X0239737Y0238630D01*
X0239767Y0238758D01*
X0239801Y0238885D01*
X0239838Y0239012D01*
X0239879Y0239136D01*
X0239924Y0239260D01*
X0239973Y0239382D01*
X0240025Y0239503D01*
X0240081Y0239621D01*
X0240141Y0239739D01*
X0240204Y0239854D01*
X0240271Y0239967D01*
X0240341Y0240079D01*
X0240414Y0240188D01*
X0240490Y0240294D01*
X0240570Y0240399D01*
X0240653Y0240501D01*
X0240739Y0240600D01*
X0240828Y0240697D01*
X0240920Y0240791D01*
X0241015Y0240882D01*
X0241112Y0240971D01*
X0241212Y0241056D01*
X0241315Y0241138D01*
X0241420Y0241217D01*
X0241527Y0241293D01*
X0241637Y0241365D01*
X0241749Y0241434D01*
X0241863Y0241500D01*
X0241978Y0241562D01*
X0242096Y0241621D01*
X0242215Y0241676D01*
X0242336Y0241728D01*
X0242459Y0241775D01*
X0242583Y0241819D01*
X0242708Y0241860D01*
X0242834Y0241896D01*
X0242962Y0241929D01*
X0243090Y0241957D01*
X0243219Y0241982D01*
X0243349Y0242003D01*
X0243479Y0242020D01*
X0243610Y0242033D01*
X0243741Y0242042D01*
X0243872Y0242047D01*
X0244004Y0242048D01*
X0244135Y0242045D01*
X0244267Y0242038D01*
X0244398Y0242027D01*
X0244528Y0242012D01*
X0244658Y0241993D01*
X0244788Y0241970D01*
X0244916Y0241944D01*
X0245044Y0241913D01*
X0245171Y0241878D01*
X0245297Y0241840D01*
X0245421Y0241798D01*
X0245545Y0241752D01*
X0245666Y0241702D01*
X0245786Y0241649D01*
X0245905Y0241592D01*
X0246022Y0241532D01*
X0246136Y0241468D01*
X0246249Y0241400D01*
X0246360Y0241329D01*
X0246469Y0241255D01*
X0246575Y0241178D01*
X0246679Y0241097D01*
X0246780Y0241014D01*
X0246879Y0240927D01*
X0246975Y0240837D01*
X0247068Y0240744D01*
X0247159Y0240649D01*
X0247246Y0240551D01*
X0247331Y0240450D01*
X0247412Y0240347D01*
X0247490Y0240241D01*
X0247565Y0240133D01*
X0247637Y0240023D01*
X0247705Y0239911D01*
X0247770Y0239797D01*
X0247831Y0239680D01*
X0247889Y0239562D01*
X0247943Y0239442D01*
X0247994Y0239321D01*
X0248041Y0239198D01*
X0248084Y0239074D01*
X0248123Y0238949D01*
X0248159Y0238822D01*
X0248190Y0238694D01*
X0248218Y0238566D01*
X0248242Y0238437D01*
X0248262Y0238307D01*
X0248278Y0238176D01*
X0248290Y0238045D01*
X0248298Y0237914D01*
X0248302Y0237783D01*
X0248302Y0237651D01*
X0248298Y0237520D01*
X0248290Y0237389D01*
X0248278Y0237258D01*
X0248262Y0237127D01*
X0248242Y0236997D01*
X0248218Y0236868D01*
X0248190Y0236740D01*
X0248159Y0236612D01*
X0248123Y0236485D01*
X0248084Y0236360D01*
X0248041Y0236236D01*
X0247994Y0236113D01*
X0247943Y0235992D01*
X0247889Y0235872D01*
X0247831Y0235754D01*
X0247770Y0235637D01*
X0247705Y0235523D01*
X0247637Y0235411D01*
X0247565Y0235301D01*
X0247490Y0235193D01*
X0247412Y0235087D01*
X0247331Y0234984D01*
X0247246Y0234883D01*
X0247159Y0234785D01*
X0247068Y0234690D01*
X0246975Y0234597D01*
X0246879Y0234507D01*
X0246780Y0234420D01*
X0246679Y0234337D01*
X0246575Y0234256D01*
X0246469Y0234179D01*
X0246360Y0234105D01*
X0246249Y0234034D01*
X0246137Y0233966D01*
X0246022Y0233902D01*
X0245905Y0233842D01*
X0245786Y0233785D01*
X0245666Y0233732D01*
X0245545Y0233682D01*
X0245421Y0233636D01*
X0245297Y0233594D01*
X0245171Y0233556D01*
X0245044Y0233521D01*
X0244916Y0233490D01*
X0244788Y0233464D01*
X0244658Y0233441D01*
X0244528Y0233422D01*
X0244398Y0233407D01*
X0244267Y0233396D01*
X0244135Y0233389D01*
X0244004Y0233386D01*
X0243872Y0233387D01*
X0243741Y0233392D01*
X0243610Y0233401D01*
X0243479Y0233414D01*
X0243349Y0233431D01*
X0243219Y0233452D01*
X0243090Y0233477D01*
X0242962Y0233505D01*
X0242834Y0233538D01*
X0242708Y0233574D01*
X0242583Y0233615D01*
X0242459Y0233659D01*
X0242336Y0233706D01*
X0242215Y0233758D01*
X0242096Y0233813D01*
X0241978Y0233872D01*
X0241863Y0233934D01*
X0241749Y0234000D01*
X0241637Y0234069D01*
X0241527Y0234141D01*
X0241420Y0234217D01*
X0241315Y0234296D01*
X0241212Y0234378D01*
X0241112Y0234463D01*
X0241015Y0234552D01*
X0240920Y0234643D01*
X0240828Y0234737D01*
X0240739Y0234834D01*
X0240653Y0234933D01*
X0240570Y0235035D01*
X0240490Y0235140D01*
X0240414Y0235246D01*
X0240341Y0235355D01*
X0240271Y0235467D01*
X0240204Y0235580D01*
X0240141Y0235695D01*
X0240081Y0235813D01*
X0240025Y0235931D01*
X0239973Y0236052D01*
X0239924Y0236174D01*
X0239879Y0236298D01*
X0239838Y0236422D01*
X0239801Y0236549D01*
X0239767Y0236676D01*
X0239737Y0236804D01*
X0239712Y0236933D01*
X0239690Y0237062D01*
X0239672Y0237192D01*
X0239658Y0237323D01*
X0239648Y0237454D01*
X0239642Y0237586D01*
X0239640Y0237717D01*
X0121530Y0237717D02*
X0121532Y0237848D01*
X0121538Y0237980D01*
X0121548Y0238111D01*
X0121562Y0238242D01*
X0121580Y0238372D01*
X0121602Y0238501D01*
X0121627Y0238630D01*
X0121657Y0238758D01*
X0121691Y0238885D01*
X0121728Y0239012D01*
X0121769Y0239136D01*
X0121814Y0239260D01*
X0121863Y0239382D01*
X0121915Y0239503D01*
X0121971Y0239621D01*
X0122031Y0239739D01*
X0122094Y0239854D01*
X0122161Y0239967D01*
X0122231Y0240079D01*
X0122304Y0240188D01*
X0122380Y0240294D01*
X0122460Y0240399D01*
X0122543Y0240501D01*
X0122629Y0240600D01*
X0122718Y0240697D01*
X0122810Y0240791D01*
X0122905Y0240882D01*
X0123002Y0240971D01*
X0123102Y0241056D01*
X0123205Y0241138D01*
X0123310Y0241217D01*
X0123417Y0241293D01*
X0123527Y0241365D01*
X0123639Y0241434D01*
X0123753Y0241500D01*
X0123868Y0241562D01*
X0123986Y0241621D01*
X0124105Y0241676D01*
X0124226Y0241728D01*
X0124349Y0241775D01*
X0124473Y0241819D01*
X0124598Y0241860D01*
X0124724Y0241896D01*
X0124852Y0241929D01*
X0124980Y0241957D01*
X0125109Y0241982D01*
X0125239Y0242003D01*
X0125369Y0242020D01*
X0125500Y0242033D01*
X0125631Y0242042D01*
X0125762Y0242047D01*
X0125894Y0242048D01*
X0126025Y0242045D01*
X0126157Y0242038D01*
X0126288Y0242027D01*
X0126418Y0242012D01*
X0126548Y0241993D01*
X0126678Y0241970D01*
X0126806Y0241944D01*
X0126934Y0241913D01*
X0127061Y0241878D01*
X0127187Y0241840D01*
X0127311Y0241798D01*
X0127435Y0241752D01*
X0127556Y0241702D01*
X0127676Y0241649D01*
X0127795Y0241592D01*
X0127912Y0241532D01*
X0128026Y0241468D01*
X0128139Y0241400D01*
X0128250Y0241329D01*
X0128359Y0241255D01*
X0128465Y0241178D01*
X0128569Y0241097D01*
X0128670Y0241014D01*
X0128769Y0240927D01*
X0128865Y0240837D01*
X0128958Y0240744D01*
X0129049Y0240649D01*
X0129136Y0240551D01*
X0129221Y0240450D01*
X0129302Y0240347D01*
X0129380Y0240241D01*
X0129455Y0240133D01*
X0129527Y0240023D01*
X0129595Y0239911D01*
X0129660Y0239797D01*
X0129721Y0239680D01*
X0129779Y0239562D01*
X0129833Y0239442D01*
X0129884Y0239321D01*
X0129931Y0239198D01*
X0129974Y0239074D01*
X0130013Y0238949D01*
X0130049Y0238822D01*
X0130080Y0238694D01*
X0130108Y0238566D01*
X0130132Y0238437D01*
X0130152Y0238307D01*
X0130168Y0238176D01*
X0130180Y0238045D01*
X0130188Y0237914D01*
X0130192Y0237783D01*
X0130192Y0237651D01*
X0130188Y0237520D01*
X0130180Y0237389D01*
X0130168Y0237258D01*
X0130152Y0237127D01*
X0130132Y0236997D01*
X0130108Y0236868D01*
X0130080Y0236740D01*
X0130049Y0236612D01*
X0130013Y0236485D01*
X0129974Y0236360D01*
X0129931Y0236236D01*
X0129884Y0236113D01*
X0129833Y0235992D01*
X0129779Y0235872D01*
X0129721Y0235754D01*
X0129660Y0235637D01*
X0129595Y0235523D01*
X0129527Y0235411D01*
X0129455Y0235301D01*
X0129380Y0235193D01*
X0129302Y0235087D01*
X0129221Y0234984D01*
X0129136Y0234883D01*
X0129049Y0234785D01*
X0128958Y0234690D01*
X0128865Y0234597D01*
X0128769Y0234507D01*
X0128670Y0234420D01*
X0128569Y0234337D01*
X0128465Y0234256D01*
X0128359Y0234179D01*
X0128250Y0234105D01*
X0128139Y0234034D01*
X0128027Y0233966D01*
X0127912Y0233902D01*
X0127795Y0233842D01*
X0127676Y0233785D01*
X0127556Y0233732D01*
X0127435Y0233682D01*
X0127311Y0233636D01*
X0127187Y0233594D01*
X0127061Y0233556D01*
X0126934Y0233521D01*
X0126806Y0233490D01*
X0126678Y0233464D01*
X0126548Y0233441D01*
X0126418Y0233422D01*
X0126288Y0233407D01*
X0126157Y0233396D01*
X0126025Y0233389D01*
X0125894Y0233386D01*
X0125762Y0233387D01*
X0125631Y0233392D01*
X0125500Y0233401D01*
X0125369Y0233414D01*
X0125239Y0233431D01*
X0125109Y0233452D01*
X0124980Y0233477D01*
X0124852Y0233505D01*
X0124724Y0233538D01*
X0124598Y0233574D01*
X0124473Y0233615D01*
X0124349Y0233659D01*
X0124226Y0233706D01*
X0124105Y0233758D01*
X0123986Y0233813D01*
X0123868Y0233872D01*
X0123753Y0233934D01*
X0123639Y0234000D01*
X0123527Y0234069D01*
X0123417Y0234141D01*
X0123310Y0234217D01*
X0123205Y0234296D01*
X0123102Y0234378D01*
X0123002Y0234463D01*
X0122905Y0234552D01*
X0122810Y0234643D01*
X0122718Y0234737D01*
X0122629Y0234834D01*
X0122543Y0234933D01*
X0122460Y0235035D01*
X0122380Y0235140D01*
X0122304Y0235246D01*
X0122231Y0235355D01*
X0122161Y0235467D01*
X0122094Y0235580D01*
X0122031Y0235695D01*
X0121971Y0235813D01*
X0121915Y0235931D01*
X0121863Y0236052D01*
X0121814Y0236174D01*
X0121769Y0236298D01*
X0121728Y0236422D01*
X0121691Y0236549D01*
X0121657Y0236676D01*
X0121627Y0236804D01*
X0121602Y0236933D01*
X0121580Y0237062D01*
X0121562Y0237192D01*
X0121548Y0237323D01*
X0121538Y0237454D01*
X0121532Y0237586D01*
X0121530Y0237717D01*
X0106609Y0241851D02*
X0106611Y0241948D01*
X0106617Y0242045D01*
X0106627Y0242141D01*
X0106641Y0242237D01*
X0106659Y0242333D01*
X0106680Y0242427D01*
X0106706Y0242521D01*
X0106735Y0242613D01*
X0106769Y0242704D01*
X0106805Y0242794D01*
X0106846Y0242882D01*
X0106890Y0242968D01*
X0106938Y0243053D01*
X0106989Y0243135D01*
X0107043Y0243216D01*
X0107101Y0243294D01*
X0107162Y0243369D01*
X0107225Y0243442D01*
X0107292Y0243513D01*
X0107362Y0243580D01*
X0107434Y0243645D01*
X0107509Y0243706D01*
X0107587Y0243765D01*
X0107666Y0243820D01*
X0107748Y0243872D01*
X0107832Y0243920D01*
X0107918Y0243965D01*
X0108006Y0244007D01*
X0108095Y0244045D01*
X0108186Y0244079D01*
X0108278Y0244109D01*
X0108371Y0244136D01*
X0108466Y0244158D01*
X0108561Y0244177D01*
X0108657Y0244192D01*
X0108753Y0244203D01*
X0108850Y0244210D01*
X0108947Y0244213D01*
X0109044Y0244212D01*
X0109141Y0244207D01*
X0109237Y0244198D01*
X0109333Y0244185D01*
X0109429Y0244168D01*
X0109524Y0244147D01*
X0109617Y0244123D01*
X0109710Y0244094D01*
X0109802Y0244062D01*
X0109892Y0244026D01*
X0109980Y0243987D01*
X0110067Y0243943D01*
X0110152Y0243897D01*
X0110235Y0243846D01*
X0110316Y0243793D01*
X0110394Y0243736D01*
X0110471Y0243676D01*
X0110544Y0243613D01*
X0110615Y0243547D01*
X0110683Y0243478D01*
X0110749Y0243406D01*
X0110811Y0243332D01*
X0110870Y0243255D01*
X0110926Y0243176D01*
X0110979Y0243094D01*
X0111029Y0243011D01*
X0111074Y0242925D01*
X0111117Y0242838D01*
X0111156Y0242749D01*
X0111191Y0242659D01*
X0111222Y0242567D01*
X0111249Y0242474D01*
X0111273Y0242380D01*
X0111293Y0242285D01*
X0111309Y0242189D01*
X0111321Y0242093D01*
X0111329Y0241996D01*
X0111333Y0241899D01*
X0111333Y0241803D01*
X0111329Y0241706D01*
X0111321Y0241609D01*
X0111309Y0241513D01*
X0111293Y0241417D01*
X0111273Y0241322D01*
X0111249Y0241228D01*
X0111222Y0241135D01*
X0111191Y0241043D01*
X0111156Y0240953D01*
X0111117Y0240864D01*
X0111074Y0240777D01*
X0111029Y0240691D01*
X0110979Y0240608D01*
X0110926Y0240526D01*
X0110870Y0240447D01*
X0110811Y0240370D01*
X0110749Y0240296D01*
X0110683Y0240224D01*
X0110615Y0240155D01*
X0110544Y0240089D01*
X0110471Y0240026D01*
X0110394Y0239966D01*
X0110316Y0239909D01*
X0110235Y0239856D01*
X0110152Y0239805D01*
X0110067Y0239759D01*
X0109980Y0239715D01*
X0109892Y0239676D01*
X0109802Y0239640D01*
X0109710Y0239608D01*
X0109617Y0239579D01*
X0109524Y0239555D01*
X0109429Y0239534D01*
X0109333Y0239517D01*
X0109237Y0239504D01*
X0109141Y0239495D01*
X0109044Y0239490D01*
X0108947Y0239489D01*
X0108850Y0239492D01*
X0108753Y0239499D01*
X0108657Y0239510D01*
X0108561Y0239525D01*
X0108466Y0239544D01*
X0108371Y0239566D01*
X0108278Y0239593D01*
X0108186Y0239623D01*
X0108095Y0239657D01*
X0108006Y0239695D01*
X0107918Y0239737D01*
X0107832Y0239782D01*
X0107748Y0239830D01*
X0107666Y0239882D01*
X0107587Y0239937D01*
X0107509Y0239996D01*
X0107434Y0240057D01*
X0107362Y0240122D01*
X0107292Y0240189D01*
X0107225Y0240260D01*
X0107162Y0240333D01*
X0107101Y0240408D01*
X0107043Y0240486D01*
X0106989Y0240567D01*
X0106938Y0240649D01*
X0106890Y0240734D01*
X0106846Y0240820D01*
X0106805Y0240908D01*
X0106769Y0240998D01*
X0106735Y0241089D01*
X0106706Y0241181D01*
X0106680Y0241275D01*
X0106659Y0241369D01*
X0106641Y0241465D01*
X0106627Y0241561D01*
X0106617Y0241657D01*
X0106611Y0241754D01*
X0106609Y0241851D01*
X0106609Y0233229D02*
X0106611Y0233326D01*
X0106617Y0233423D01*
X0106627Y0233519D01*
X0106641Y0233615D01*
X0106659Y0233711D01*
X0106680Y0233805D01*
X0106706Y0233899D01*
X0106735Y0233991D01*
X0106769Y0234082D01*
X0106805Y0234172D01*
X0106846Y0234260D01*
X0106890Y0234346D01*
X0106938Y0234431D01*
X0106989Y0234513D01*
X0107043Y0234594D01*
X0107101Y0234672D01*
X0107162Y0234747D01*
X0107225Y0234820D01*
X0107292Y0234891D01*
X0107362Y0234958D01*
X0107434Y0235023D01*
X0107509Y0235084D01*
X0107587Y0235143D01*
X0107666Y0235198D01*
X0107748Y0235250D01*
X0107832Y0235298D01*
X0107918Y0235343D01*
X0108006Y0235385D01*
X0108095Y0235423D01*
X0108186Y0235457D01*
X0108278Y0235487D01*
X0108371Y0235514D01*
X0108466Y0235536D01*
X0108561Y0235555D01*
X0108657Y0235570D01*
X0108753Y0235581D01*
X0108850Y0235588D01*
X0108947Y0235591D01*
X0109044Y0235590D01*
X0109141Y0235585D01*
X0109237Y0235576D01*
X0109333Y0235563D01*
X0109429Y0235546D01*
X0109524Y0235525D01*
X0109617Y0235501D01*
X0109710Y0235472D01*
X0109802Y0235440D01*
X0109892Y0235404D01*
X0109980Y0235365D01*
X0110067Y0235321D01*
X0110152Y0235275D01*
X0110235Y0235224D01*
X0110316Y0235171D01*
X0110394Y0235114D01*
X0110471Y0235054D01*
X0110544Y0234991D01*
X0110615Y0234925D01*
X0110683Y0234856D01*
X0110749Y0234784D01*
X0110811Y0234710D01*
X0110870Y0234633D01*
X0110926Y0234554D01*
X0110979Y0234472D01*
X0111029Y0234389D01*
X0111074Y0234303D01*
X0111117Y0234216D01*
X0111156Y0234127D01*
X0111191Y0234037D01*
X0111222Y0233945D01*
X0111249Y0233852D01*
X0111273Y0233758D01*
X0111293Y0233663D01*
X0111309Y0233567D01*
X0111321Y0233471D01*
X0111329Y0233374D01*
X0111333Y0233277D01*
X0111333Y0233181D01*
X0111329Y0233084D01*
X0111321Y0232987D01*
X0111309Y0232891D01*
X0111293Y0232795D01*
X0111273Y0232700D01*
X0111249Y0232606D01*
X0111222Y0232513D01*
X0111191Y0232421D01*
X0111156Y0232331D01*
X0111117Y0232242D01*
X0111074Y0232155D01*
X0111029Y0232069D01*
X0110979Y0231986D01*
X0110926Y0231904D01*
X0110870Y0231825D01*
X0110811Y0231748D01*
X0110749Y0231674D01*
X0110683Y0231602D01*
X0110615Y0231533D01*
X0110544Y0231467D01*
X0110471Y0231404D01*
X0110394Y0231344D01*
X0110316Y0231287D01*
X0110235Y0231234D01*
X0110152Y0231183D01*
X0110067Y0231137D01*
X0109980Y0231093D01*
X0109892Y0231054D01*
X0109802Y0231018D01*
X0109710Y0230986D01*
X0109617Y0230957D01*
X0109524Y0230933D01*
X0109429Y0230912D01*
X0109333Y0230895D01*
X0109237Y0230882D01*
X0109141Y0230873D01*
X0109044Y0230868D01*
X0108947Y0230867D01*
X0108850Y0230870D01*
X0108753Y0230877D01*
X0108657Y0230888D01*
X0108561Y0230903D01*
X0108466Y0230922D01*
X0108371Y0230944D01*
X0108278Y0230971D01*
X0108186Y0231001D01*
X0108095Y0231035D01*
X0108006Y0231073D01*
X0107918Y0231115D01*
X0107832Y0231160D01*
X0107748Y0231208D01*
X0107666Y0231260D01*
X0107587Y0231315D01*
X0107509Y0231374D01*
X0107434Y0231435D01*
X0107362Y0231500D01*
X0107292Y0231567D01*
X0107225Y0231638D01*
X0107162Y0231711D01*
X0107101Y0231786D01*
X0107043Y0231864D01*
X0106989Y0231945D01*
X0106938Y0232027D01*
X0106890Y0232112D01*
X0106846Y0232198D01*
X0106805Y0232286D01*
X0106769Y0232376D01*
X0106735Y0232467D01*
X0106706Y0232559D01*
X0106680Y0232653D01*
X0106659Y0232747D01*
X0106641Y0232843D01*
X0106627Y0232939D01*
X0106617Y0233035D01*
X0106611Y0233132D01*
X0106609Y0233229D01*
X0009601Y0379253D02*
X0009603Y0379446D01*
X0009610Y0379639D01*
X0009622Y0379832D01*
X0009639Y0380025D01*
X0009660Y0380217D01*
X0009686Y0380408D01*
X0009717Y0380599D01*
X0009752Y0380789D01*
X0009792Y0380978D01*
X0009837Y0381166D01*
X0009886Y0381353D01*
X0009940Y0381539D01*
X0009998Y0381723D01*
X0010061Y0381906D01*
X0010129Y0382087D01*
X0010200Y0382266D01*
X0010277Y0382444D01*
X0010357Y0382620D01*
X0010442Y0382793D01*
X0010531Y0382965D01*
X0010624Y0383134D01*
X0010721Y0383301D01*
X0010823Y0383466D01*
X0010928Y0383628D01*
X0011037Y0383787D01*
X0011151Y0383944D01*
X0011268Y0384097D01*
X0011388Y0384248D01*
X0011513Y0384396D01*
X0011641Y0384541D01*
X0011772Y0384682D01*
X0011907Y0384821D01*
X0012046Y0384956D01*
X0012187Y0385087D01*
X0012332Y0385215D01*
X0012480Y0385340D01*
X0012631Y0385460D01*
X0012784Y0385577D01*
X0012941Y0385691D01*
X0013100Y0385800D01*
X0013262Y0385905D01*
X0013427Y0386007D01*
X0013594Y0386104D01*
X0013763Y0386197D01*
X0013935Y0386286D01*
X0014108Y0386371D01*
X0014284Y0386451D01*
X0014462Y0386528D01*
X0014641Y0386599D01*
X0014822Y0386667D01*
X0015005Y0386730D01*
X0015189Y0386788D01*
X0015375Y0386842D01*
X0015562Y0386891D01*
X0015750Y0386936D01*
X0015939Y0386976D01*
X0016129Y0387011D01*
X0016320Y0387042D01*
X0016511Y0387068D01*
X0016703Y0387089D01*
X0016896Y0387106D01*
X0017089Y0387118D01*
X0017282Y0387125D01*
X0017475Y0387127D01*
X0017668Y0387125D01*
X0017861Y0387118D01*
X0018054Y0387106D01*
X0018247Y0387089D01*
X0018439Y0387068D01*
X0018630Y0387042D01*
X0018821Y0387011D01*
X0019011Y0386976D01*
X0019200Y0386936D01*
X0019388Y0386891D01*
X0019575Y0386842D01*
X0019761Y0386788D01*
X0019945Y0386730D01*
X0020128Y0386667D01*
X0020309Y0386599D01*
X0020488Y0386528D01*
X0020666Y0386451D01*
X0020842Y0386371D01*
X0021015Y0386286D01*
X0021187Y0386197D01*
X0021356Y0386104D01*
X0021523Y0386007D01*
X0021688Y0385905D01*
X0021850Y0385800D01*
X0022009Y0385691D01*
X0022166Y0385577D01*
X0022319Y0385460D01*
X0022470Y0385340D01*
X0022618Y0385215D01*
X0022763Y0385087D01*
X0022904Y0384956D01*
X0023043Y0384821D01*
X0023178Y0384682D01*
X0023309Y0384541D01*
X0023437Y0384396D01*
X0023562Y0384248D01*
X0023682Y0384097D01*
X0023799Y0383944D01*
X0023913Y0383787D01*
X0024022Y0383628D01*
X0024127Y0383466D01*
X0024229Y0383301D01*
X0024326Y0383134D01*
X0024419Y0382965D01*
X0024508Y0382793D01*
X0024593Y0382620D01*
X0024673Y0382444D01*
X0024750Y0382266D01*
X0024821Y0382087D01*
X0024889Y0381906D01*
X0024952Y0381723D01*
X0025010Y0381539D01*
X0025064Y0381353D01*
X0025113Y0381166D01*
X0025158Y0380978D01*
X0025198Y0380789D01*
X0025233Y0380599D01*
X0025264Y0380408D01*
X0025290Y0380217D01*
X0025311Y0380025D01*
X0025328Y0379832D01*
X0025340Y0379639D01*
X0025347Y0379446D01*
X0025349Y0379253D01*
X0025347Y0379060D01*
X0025340Y0378867D01*
X0025328Y0378674D01*
X0025311Y0378481D01*
X0025290Y0378289D01*
X0025264Y0378098D01*
X0025233Y0377907D01*
X0025198Y0377717D01*
X0025158Y0377528D01*
X0025113Y0377340D01*
X0025064Y0377153D01*
X0025010Y0376967D01*
X0024952Y0376783D01*
X0024889Y0376600D01*
X0024821Y0376419D01*
X0024750Y0376240D01*
X0024673Y0376062D01*
X0024593Y0375886D01*
X0024508Y0375713D01*
X0024419Y0375541D01*
X0024326Y0375372D01*
X0024229Y0375205D01*
X0024127Y0375040D01*
X0024022Y0374878D01*
X0023913Y0374719D01*
X0023799Y0374562D01*
X0023682Y0374409D01*
X0023562Y0374258D01*
X0023437Y0374110D01*
X0023309Y0373965D01*
X0023178Y0373824D01*
X0023043Y0373685D01*
X0022904Y0373550D01*
X0022763Y0373419D01*
X0022618Y0373291D01*
X0022470Y0373166D01*
X0022319Y0373046D01*
X0022166Y0372929D01*
X0022009Y0372815D01*
X0021850Y0372706D01*
X0021688Y0372601D01*
X0021523Y0372499D01*
X0021356Y0372402D01*
X0021187Y0372309D01*
X0021015Y0372220D01*
X0020842Y0372135D01*
X0020666Y0372055D01*
X0020488Y0371978D01*
X0020309Y0371907D01*
X0020128Y0371839D01*
X0019945Y0371776D01*
X0019761Y0371718D01*
X0019575Y0371664D01*
X0019388Y0371615D01*
X0019200Y0371570D01*
X0019011Y0371530D01*
X0018821Y0371495D01*
X0018630Y0371464D01*
X0018439Y0371438D01*
X0018247Y0371417D01*
X0018054Y0371400D01*
X0017861Y0371388D01*
X0017668Y0371381D01*
X0017475Y0371379D01*
X0017282Y0371381D01*
X0017089Y0371388D01*
X0016896Y0371400D01*
X0016703Y0371417D01*
X0016511Y0371438D01*
X0016320Y0371464D01*
X0016129Y0371495D01*
X0015939Y0371530D01*
X0015750Y0371570D01*
X0015562Y0371615D01*
X0015375Y0371664D01*
X0015189Y0371718D01*
X0015005Y0371776D01*
X0014822Y0371839D01*
X0014641Y0371907D01*
X0014462Y0371978D01*
X0014284Y0372055D01*
X0014108Y0372135D01*
X0013935Y0372220D01*
X0013763Y0372309D01*
X0013594Y0372402D01*
X0013427Y0372499D01*
X0013262Y0372601D01*
X0013100Y0372706D01*
X0012941Y0372815D01*
X0012784Y0372929D01*
X0012631Y0373046D01*
X0012480Y0373166D01*
X0012332Y0373291D01*
X0012187Y0373419D01*
X0012046Y0373550D01*
X0011907Y0373685D01*
X0011772Y0373824D01*
X0011641Y0373965D01*
X0011513Y0374110D01*
X0011388Y0374258D01*
X0011268Y0374409D01*
X0011151Y0374562D01*
X0011037Y0374719D01*
X0010928Y0374878D01*
X0010823Y0375040D01*
X0010721Y0375205D01*
X0010624Y0375372D01*
X0010531Y0375541D01*
X0010442Y0375713D01*
X0010357Y0375886D01*
X0010277Y0376062D01*
X0010200Y0376240D01*
X0010129Y0376419D01*
X0010061Y0376600D01*
X0009998Y0376783D01*
X0009940Y0376967D01*
X0009886Y0377153D01*
X0009837Y0377340D01*
X0009792Y0377528D01*
X0009752Y0377717D01*
X0009717Y0377907D01*
X0009686Y0378098D01*
X0009660Y0378289D01*
X0009639Y0378481D01*
X0009622Y0378674D01*
X0009610Y0378867D01*
X0009603Y0379060D01*
X0009601Y0379253D01*
X0371806Y0379253D02*
X0371808Y0379446D01*
X0371815Y0379639D01*
X0371827Y0379832D01*
X0371844Y0380025D01*
X0371865Y0380217D01*
X0371891Y0380408D01*
X0371922Y0380599D01*
X0371957Y0380789D01*
X0371997Y0380978D01*
X0372042Y0381166D01*
X0372091Y0381353D01*
X0372145Y0381539D01*
X0372203Y0381723D01*
X0372266Y0381906D01*
X0372334Y0382087D01*
X0372405Y0382266D01*
X0372482Y0382444D01*
X0372562Y0382620D01*
X0372647Y0382793D01*
X0372736Y0382965D01*
X0372829Y0383134D01*
X0372926Y0383301D01*
X0373028Y0383466D01*
X0373133Y0383628D01*
X0373242Y0383787D01*
X0373356Y0383944D01*
X0373473Y0384097D01*
X0373593Y0384248D01*
X0373718Y0384396D01*
X0373846Y0384541D01*
X0373977Y0384682D01*
X0374112Y0384821D01*
X0374251Y0384956D01*
X0374392Y0385087D01*
X0374537Y0385215D01*
X0374685Y0385340D01*
X0374836Y0385460D01*
X0374989Y0385577D01*
X0375146Y0385691D01*
X0375305Y0385800D01*
X0375467Y0385905D01*
X0375632Y0386007D01*
X0375799Y0386104D01*
X0375968Y0386197D01*
X0376140Y0386286D01*
X0376313Y0386371D01*
X0376489Y0386451D01*
X0376667Y0386528D01*
X0376846Y0386599D01*
X0377027Y0386667D01*
X0377210Y0386730D01*
X0377394Y0386788D01*
X0377580Y0386842D01*
X0377767Y0386891D01*
X0377955Y0386936D01*
X0378144Y0386976D01*
X0378334Y0387011D01*
X0378525Y0387042D01*
X0378716Y0387068D01*
X0378908Y0387089D01*
X0379101Y0387106D01*
X0379294Y0387118D01*
X0379487Y0387125D01*
X0379680Y0387127D01*
X0379873Y0387125D01*
X0380066Y0387118D01*
X0380259Y0387106D01*
X0380452Y0387089D01*
X0380644Y0387068D01*
X0380835Y0387042D01*
X0381026Y0387011D01*
X0381216Y0386976D01*
X0381405Y0386936D01*
X0381593Y0386891D01*
X0381780Y0386842D01*
X0381966Y0386788D01*
X0382150Y0386730D01*
X0382333Y0386667D01*
X0382514Y0386599D01*
X0382693Y0386528D01*
X0382871Y0386451D01*
X0383047Y0386371D01*
X0383220Y0386286D01*
X0383392Y0386197D01*
X0383561Y0386104D01*
X0383728Y0386007D01*
X0383893Y0385905D01*
X0384055Y0385800D01*
X0384214Y0385691D01*
X0384371Y0385577D01*
X0384524Y0385460D01*
X0384675Y0385340D01*
X0384823Y0385215D01*
X0384968Y0385087D01*
X0385109Y0384956D01*
X0385248Y0384821D01*
X0385383Y0384682D01*
X0385514Y0384541D01*
X0385642Y0384396D01*
X0385767Y0384248D01*
X0385887Y0384097D01*
X0386004Y0383944D01*
X0386118Y0383787D01*
X0386227Y0383628D01*
X0386332Y0383466D01*
X0386434Y0383301D01*
X0386531Y0383134D01*
X0386624Y0382965D01*
X0386713Y0382793D01*
X0386798Y0382620D01*
X0386878Y0382444D01*
X0386955Y0382266D01*
X0387026Y0382087D01*
X0387094Y0381906D01*
X0387157Y0381723D01*
X0387215Y0381539D01*
X0387269Y0381353D01*
X0387318Y0381166D01*
X0387363Y0380978D01*
X0387403Y0380789D01*
X0387438Y0380599D01*
X0387469Y0380408D01*
X0387495Y0380217D01*
X0387516Y0380025D01*
X0387533Y0379832D01*
X0387545Y0379639D01*
X0387552Y0379446D01*
X0387554Y0379253D01*
X0387552Y0379060D01*
X0387545Y0378867D01*
X0387533Y0378674D01*
X0387516Y0378481D01*
X0387495Y0378289D01*
X0387469Y0378098D01*
X0387438Y0377907D01*
X0387403Y0377717D01*
X0387363Y0377528D01*
X0387318Y0377340D01*
X0387269Y0377153D01*
X0387215Y0376967D01*
X0387157Y0376783D01*
X0387094Y0376600D01*
X0387026Y0376419D01*
X0386955Y0376240D01*
X0386878Y0376062D01*
X0386798Y0375886D01*
X0386713Y0375713D01*
X0386624Y0375541D01*
X0386531Y0375372D01*
X0386434Y0375205D01*
X0386332Y0375040D01*
X0386227Y0374878D01*
X0386118Y0374719D01*
X0386004Y0374562D01*
X0385887Y0374409D01*
X0385767Y0374258D01*
X0385642Y0374110D01*
X0385514Y0373965D01*
X0385383Y0373824D01*
X0385248Y0373685D01*
X0385109Y0373550D01*
X0384968Y0373419D01*
X0384823Y0373291D01*
X0384675Y0373166D01*
X0384524Y0373046D01*
X0384371Y0372929D01*
X0384214Y0372815D01*
X0384055Y0372706D01*
X0383893Y0372601D01*
X0383728Y0372499D01*
X0383561Y0372402D01*
X0383392Y0372309D01*
X0383220Y0372220D01*
X0383047Y0372135D01*
X0382871Y0372055D01*
X0382693Y0371978D01*
X0382514Y0371907D01*
X0382333Y0371839D01*
X0382150Y0371776D01*
X0381966Y0371718D01*
X0381780Y0371664D01*
X0381593Y0371615D01*
X0381405Y0371570D01*
X0381216Y0371530D01*
X0381026Y0371495D01*
X0380835Y0371464D01*
X0380644Y0371438D01*
X0380452Y0371417D01*
X0380259Y0371400D01*
X0380066Y0371388D01*
X0379873Y0371381D01*
X0379680Y0371379D01*
X0379487Y0371381D01*
X0379294Y0371388D01*
X0379101Y0371400D01*
X0378908Y0371417D01*
X0378716Y0371438D01*
X0378525Y0371464D01*
X0378334Y0371495D01*
X0378144Y0371530D01*
X0377955Y0371570D01*
X0377767Y0371615D01*
X0377580Y0371664D01*
X0377394Y0371718D01*
X0377210Y0371776D01*
X0377027Y0371839D01*
X0376846Y0371907D01*
X0376667Y0371978D01*
X0376489Y0372055D01*
X0376313Y0372135D01*
X0376140Y0372220D01*
X0375968Y0372309D01*
X0375799Y0372402D01*
X0375632Y0372499D01*
X0375467Y0372601D01*
X0375305Y0372706D01*
X0375146Y0372815D01*
X0374989Y0372929D01*
X0374836Y0373046D01*
X0374685Y0373166D01*
X0374537Y0373291D01*
X0374392Y0373419D01*
X0374251Y0373550D01*
X0374112Y0373685D01*
X0373977Y0373824D01*
X0373846Y0373965D01*
X0373718Y0374110D01*
X0373593Y0374258D01*
X0373473Y0374409D01*
X0373356Y0374562D01*
X0373242Y0374719D01*
X0373133Y0374878D01*
X0373028Y0375040D01*
X0372926Y0375205D01*
X0372829Y0375372D01*
X0372736Y0375541D01*
X0372647Y0375713D01*
X0372562Y0375886D01*
X0372482Y0376062D01*
X0372405Y0376240D01*
X0372334Y0376419D01*
X0372266Y0376600D01*
X0372203Y0376783D01*
X0372145Y0376967D01*
X0372091Y0377153D01*
X0372042Y0377340D01*
X0371997Y0377528D01*
X0371957Y0377717D01*
X0371922Y0377907D01*
X0371891Y0378098D01*
X0371865Y0378289D01*
X0371844Y0378481D01*
X0371827Y0378674D01*
X0371815Y0378867D01*
X0371808Y0379060D01*
X0371806Y0379253D01*
M02*
