  0
SECTION
  2
HEADER
  9
$ACADVER
  1
AC1009
  9
$FILLMODE
 70
1
  9
$EXTMIN
 10
-4.5700
 20
-4.9675
 30
0.0000
  9
$EXTMAX
 10
37.4300
 20
33.7675
 30
0.0000
  0
ENDSEC
  0
SECTION
  2
TABLES
  0
TABLE
  2
LTYPE
 70
1
  0
LTYPE
  2
CONTINUOUS
 70
64
  3
Solid line
 72
65
 73
0
 40
0
  0
ENDTAB
  0
TABLE
  2
LAYER
 70
255
  0
LAYER
  2
1
 70
64
 62
14
  6
CONTINUOUS
  0
LAYER
  2
16
 70
64
 62
174
  6
CONTINUOUS
  0
LAYER
  2
17
 70
64
 62
94
  6
CONTINUOUS
  0
LAYER
  2
18
 70
64
 62
94
  6
CONTINUOUS
  0
LAYER
  2
19
 70
64
 62
54
  6
CONTINUOUS
  0
LAYER
  2
20
 70
64
 62
178
  6
CONTINUOUS
  0
LAYER
  2
21
 70
64
 62
250
  6
CONTINUOUS
  0
LAYER
  2
22
 70
64
 62
250
  6
CONTINUOUS
  0
LAYER
  2
23
 70
64
 62
178
  6
CONTINUOUS
  0
LAYER
  2
24
 70
64
 62
178
  6
CONTINUOUS
  0
LAYER
  2
25
 70
64
 62
250
  6
CONTINUOUS
  0
LAYER
  2
26
 70
64
 62
250
  6
CONTINUOUS
  0
LAYER
  2
27
 70
64
 62
250
  6
CONTINUOUS
  0
LAYER
  2
28
 70
64
 62
250
  6
CONTINUOUS
  0
LAYER
  2
39
 70
64
 62
14
  6
CONTINUOUS
  0
LAYER
  2
40
 70
64
 62
174
  6
CONTINUOUS
  0
LAYER
  2
41
 70
64
 62
14
  6
CONTINUOUS
  0
LAYER
  2
42
 70
64
 62
174
  6
CONTINUOUS
  0
LAYER
  2
43
 70
64
 62
94
  6
CONTINUOUS
  0
LAYER
  2
48
 70
64
 62
250
  6
CONTINUOUS
  0
LAYER
  2
49
 70
64
 62
250
  6
CONTINUOUS
  0
LAYER
  2
51
 70
64
 62
250
  6
CONTINUOUS
  0
LAYER
  2
52
 70
64
 62
250
  6
CONTINUOUS
  0
LAYER
  2
114
 70
64
 62
250
  6
CONTINUOUS
  0
LAYER
  2
115
 70
64
 62
250
  6
CONTINUOUS
  0
LAYER
  2
129
 70
64
 62
250
  6
CONTINUOUS
  0
LAYER
  2
145
 70
64
 62
250
  6
CONTINUOUS
  0
LAYER
  2
146
 70
64
 62
250
  6
CONTINUOUS
  0
LAYER
  2
225
 70
64
 62
250
  6
CONTINUOUS
  0
LAYER
  2
226
 70
64
 62
250
  6
CONTINUOUS
  0
LAYER
  2
227
 70
64
 62
250
  6
CONTINUOUS
  0
LAYER
  2
228
 70
64
 62
250
  6
CONTINUOUS
  0
LAYER
  2
229
 70
64
 62
250
  6
CONTINUOUS
  0
LAYER
  2
230
 70
64
 62
250
  6
CONTINUOUS
  0
LAYER
  2
255
 70
64
 62
250
  6
CONTINUOUS
  0
ENDTAB
  0
ENDSEC
  0
SECTION
  2
BLOCKS
  0
BLOCK
  8
0
  2
RECT
 70
64
 10
0.0000
 20
0.0000
 30
0.0000
  3
RECT
  0
SOLID
  8
0
 10
-0.5000
 20
-0.5000
 30
0.0000
 11
0.5000
 21
-0.5000
 31
0.0000
 12
-0.5000
 22
0.5000
 32
0.0000
 13
0.5000
 23
0.5000
 33
0.0000
  0
ENDBLK
  8
0
  0
BLOCK
  8
0
  2
PIE
 70
64
 10
0.0000
 20
0.0000
 30
0.0000
  3
PIE
  0
POLYLINE
  8
0
 66
1
 10
0.0000
 20
0.0000
 30
0.0000
 40
0.5000
 41
0.5000
 70
0
  0
VERTEX
  8
0
 10
0.0000
 20
-0.2500
 30
0.0000
 42
1.0000
  0
VERTEX
  8
0
 10
0.0000
 20
0.2500
 30
0.0000
 42
1.0000
  0
VERTEX
  8
0
 10
0.0000
 20
-0.2500
 30
0.0000
  0
SEQEND
  8
0
  0
ENDBLK
  8
0
  0
BLOCK
  8
0
  2
OCTAGONP
 70
64
 10
0.0000
 20
0.0000
 30
0.0000
  3
OCTAGONP
  0
POLYLINE
  8
0
 66
1
 10
0.0000
 20
0.0000
 30
0.0000
 40
0.5000
 41
0.5000
 70
0
  0
VERTEX
  8
0
 10
-0.2500
 20
-0.1036
 30
0.0000
  0
VERTEX
  8
0
 10
-0.2500
 20
0.1036
 30
0.0000
  0
VERTEX
  8
0
 10
-0.1036
 20
0.2500
 30
0.0000
  0
VERTEX
  8
0
 10
0.1036
 20
0.2500
 30
0.0000
  0
VERTEX
  8
0
 10
0.2500
 20
0.1036
 30
0.0000
  0
VERTEX
  8
0
 10
0.2500
 20
-0.1036
 30
0.0000
  0
VERTEX
  8
0
 10
0.1036
 20
-0.2500
 30
0.0000
  0
VERTEX
  8
0
 10
-0.1036
 20
-0.2500
 30
0.0000
  0
VERTEX
  8
0
 10
-0.2500
 20
-0.1036
 30
0.0000
  0
VERTEX
  8
0
 10
-0.2500
 20
0.1036
 30
0.0000
  0
SEQEND
  8
0
  0
ENDBLK
  8
0
  0
BLOCK
  8
0
  2
SQUAREP
 70
64
 10
0.0000
 20
0.0000
 30
0.0000
  3
SQUAREP
  0
SOLID
  8
0
 10
-0.5000
 20
-0.5000
 30
0.0000
 11
0.5000
 21
-0.5000
 31
0.0000
 12
-0.5000
 22
0.5000
 32
0.0000
 13
0.5000
 23
0.5000
 33
0.0000
  0
ENDBLK
  8
0
  0
BLOCK
  8
0
  2
ROUNDP
 70
64
 10
0.0000
 20
0.0000
 30
0.0000
  3
ROUNDP
  0
POLYLINE
  8
0
 66
1
 10
0.0000
 20
0.0000
 30
0.0000
 40
0.5000
 41
0.5000
 70
0
  0
VERTEX
  8
0
 10
0.0000
 20
-0.2500
 30
0.0000
 42
1.0000
  0
VERTEX
  8
0
 10
0.0000
 20
0.2500
 30
0.0000
 42
1.0000
  0
VERTEX
  8
0
 10
0.0000
 20
-0.2500
 30
0.0000
  0
SEQEND
  8
0
  0
ENDBLK
  8
0
  0
BLOCK
  8
0
  2
ANNULUSP
 70
64
 10
0.0000
 20
0.0000
 30
0.0000
  3
ANNULUSP
  0
POLYLINE
  8
0
 66
1
 10
0.0000
 20
0.0000
 30
0.0000
 40
0.5000
 41
0.5000
 70
0
  0
VERTEX
  8
0
 10
0.0000
 20
-0.2500
 30
0.0000
 42
1.0000
  0
VERTEX
  8
0
 10
0.0000
 20
0.2500
 30
0.0000
 42
1.0000
  0
VERTEX
  8
0
 10
0.0000
 20
-0.2500
 30
0.0000
  0
SEQEND
  8
0
  0
ENDBLK
  8
0
  0
BLOCK
  8
0
  2
THERMALP
 70
64
 10
0.0000
 20
0.0000
 30
0.0000
  3
THERMALP
  0
POLYLINE
  8
0
 66
1
 10
0.0000
 20
0.0000
 30
0.0000
 40
0.1000
 41
0.1000
 70
0
  0
VERTEX
  8
0
 10
-0.2379
 20
0.4500
 30
0.0000
  0
VERTEX
  8
0
 10
0.2379
 20
0.4500
 30
0.0000
  0
SEQEND
  8
0
  0
POLYLINE
  8
0
 66
1
 10
0.0000
 20
0.0000
 30
0.0000
 40
0.0500
 41
0.0500
 70
0
  0
VERTEX
  8
0
 10
0.2379
 20
0.4250
 30
0.0000
 42
1.0000
  0
VERTEX
  8
0
 10
0.2379
 20
0.4750
 30
0.0000
  0
SEQEND
  8
0
  0
POLYLINE
  8
0
 66
1
 10
0.0000
 20
0.0000
 30
0.0000
 40
0.0500
 41
0.0500
 70
0
  0
VERTEX
  8
0
 10
-0.2379
 20
0.4750
 30
0.0000
 42
1.0000
  0
VERTEX
  8
0
 10
-0.2379
 20
0.4250
 30
0.0000
  0
SEQEND
  8
0
  0
POLYLINE
  8
0
 66
1
 10
0.0000
 20
0.0000
 30
0.0000
 40
0.1000
 41
0.1000
 70
0
  0
VERTEX
  8
0
 10
0.4500
 20
0.2379
 30
0.0000
  0
VERTEX
  8
0
 10
0.4500
 20
-0.2379
 30
0.0000
  0
SEQEND
  8
0
  0
POLYLINE
  8
0
 66
1
 10
0.0000
 20
0.0000
 30
0.0000
 40
0.0500
 41
0.0500
 70
0
  0
VERTEX
  8
0
 10
0.4250
 20
-0.2379
 30
0.0000
 42
1.0000
  0
VERTEX
  8
0
 10
0.4750
 20
-0.2379
 30
0.0000
  0
SEQEND
  8
0
  0
POLYLINE
  8
0
 66
1
 10
0.0000
 20
0.0000
 30
0.0000
 40
0.0500
 41
0.0500
 70
0
  0
VERTEX
  8
0
 10
0.4750
 20
0.2379
 30
0.0000
 42
1.0000
  0
VERTEX
  8
0
 10
0.4250
 20
0.2379
 30
0.0000
  0
SEQEND
  8
0
  0
POLYLINE
  8
0
 66
1
 10
0.0000
 20
0.0000
 30
0.0000
 40
0.1000
 41
0.1000
 70
0
  0
VERTEX
  8
0
 10
0.2379
 20
-0.4500
 30
0.0000
  0
VERTEX
  8
0
 10
-0.2379
 20
-0.4500
 30
0.0000
  0
SEQEND
  8
0
  0
POLYLINE
  8
0
 66
1
 10
0.0000
 20
0.0000
 30
0.0000
 40
0.0500
 41
0.0500
 70
0
  0
VERTEX
  8
0
 10
-0.2379
 20
-0.4250
 30
0.0000
 42
1.0000
  0
VERTEX
  8
0
 10
-0.2379
 20
-0.4750
 30
0.0000
  0
SEQEND
  8
0
  0
POLYLINE
  8
0
 66
1
 10
0.0000
 20
0.0000
 30
0.0000
 40
0.0500
 41
0.0500
 70
0
  0
VERTEX
  8
0
 10
0.2379
 20
-0.4750
 30
0.0000
 42
1.0000
  0
VERTEX
  8
0
 10
0.2379
 20
-0.4250
 30
0.0000
  0
SEQEND
  8
0
  0
POLYLINE
  8
0
 66
1
 10
0.0000
 20
0.0000
 30
0.0000
 40
0.1000
 41
0.1000
 70
0
  0
VERTEX
  8
0
 10
-0.4500
 20
-0.2379
 30
0.0000
  0
VERTEX
  8
0
 10
-0.4500
 20
0.2379
 30
0.0000
  0
SEQEND
  8
0
  0
POLYLINE
  8
0
 66
1
 10
0.0000
 20
0.0000
 30
0.0000
 40
0.0500
 41
0.0500
 70
0
  0
VERTEX
  8
0
 10
-0.4250
 20
0.2379
 30
0.0000
 42
1.0000
  0
VERTEX
  8
0
 10
-0.4750
 20
0.2379
 30
0.0000
  0
SEQEND
  8
0
  0
POLYLINE
  8
0
 66
1
 10
0.0000
 20
0.0000
 30
0.0000
 40
0.0500
 41
0.0500
 70
0
  0
VERTEX
  8
0
 10
-0.4750
 20
-0.2379
 30
0.0000
 42
1.0000
  0
VERTEX
  8
0
 10
-0.4250
 20
-0.2379
 30
0.0000
  0
SEQEND
  8
0
  0
ENDBLK
  8
0
  0
BLOCK
  8
0
  2
OCTAGONV
 70
64
 10
0.0000
 20
0.0000
 30
0.0000
  3
OCTAGONV
  0
POLYLINE
  8
0
 66
1
 10
0.0000
 20
0.0000
 30
0.0000
 40
0.5000
 41
0.5000
 70
0
  0
VERTEX
  8
0
 10
-0.2500
 20
-0.1036
 30
0.0000
  0
VERTEX
  8
0
 10
-0.2500
 20
0.1036
 30
0.0000
  0
VERTEX
  8
0
 10
-0.1036
 20
0.2500
 30
0.0000
  0
VERTEX
  8
0
 10
0.1036
 20
0.2500
 30
0.0000
  0
VERTEX
  8
0
 10
0.2500
 20
0.1036
 30
0.0000
  0
VERTEX
  8
0
 10
0.2500
 20
-0.1036
 30
0.0000
  0
VERTEX
  8
0
 10
0.1036
 20
-0.2500
 30
0.0000
  0
VERTEX
  8
0
 10
-0.1036
 20
-0.2500
 30
0.0000
  0
VERTEX
  8
0
 10
-0.2500
 20
-0.1036
 30
0.0000
  0
VERTEX
  8
0
 10
-0.2500
 20
0.1036
 30
0.0000
  0
SEQEND
  8
0
  0
ENDBLK
  8
0
  0
BLOCK
  8
0
  2
SQUAREV
 70
64
 10
0.0000
 20
0.0000
 30
0.0000
  3
SQUAREV
  0
SOLID
  8
0
 10
-0.5000
 20
-0.5000
 30
0.0000
 11
0.5000
 21
-0.5000
 31
0.0000
 12
-0.5000
 22
0.5000
 32
0.0000
 13
0.5000
 23
0.5000
 33
0.0000
  0
ENDBLK
  8
0
  0
BLOCK
  8
0
  2
ROUNDV
 70
64
 10
0.0000
 20
0.0000
 30
0.0000
  3
ROUNDV
  0
POLYLINE
  8
0
 66
1
 10
0.0000
 20
0.0000
 30
0.0000
 40
0.5000
 41
0.5000
 70
0
  0
VERTEX
  8
0
 10
0.0000
 20
-0.2500
 30
0.0000
 42
1.0000
  0
VERTEX
  8
0
 10
0.0000
 20
0.2500
 30
0.0000
 42
1.0000
  0
VERTEX
  8
0
 10
0.0000
 20
-0.2500
 30
0.0000
  0
SEQEND
  8
0
  0
ENDBLK
  8
0
  0
BLOCK
  8
0
  2
ANNULUSV
 70
64
 10
0.0000
 20
0.0000
 30
0.0000
  3
ANNULUSV
  0
POLYLINE
  8
0
 66
1
 10
0.0000
 20
0.0000
 30
0.0000
 40
0.5000
 41
0.5000
 70
0
  0
VERTEX
  8
0
 10
0.0000
 20
-0.2500
 30
0.0000
 42
1.0000
  0
VERTEX
  8
0
 10
0.0000
 20
0.2500
 30
0.0000
 42
1.0000
  0
VERTEX
  8
0
 10
0.0000
 20
-0.2500
 30
0.0000
  0
SEQEND
  8
0
  0
ENDBLK
  8
0
  0
BLOCK
  8
0
  2
THERMALV
 70
64
 10
0.0000
 20
0.0000
 30
0.0000
  3
THERMALV
  0
POLYLINE
  8
0
 66
1
 10
0.0000
 20
0.0000
 30
0.0000
 40
0.1000
 41
0.1000
 70
0
  0
VERTEX
  8
0
 10
-0.2379
 20
0.4500
 30
0.0000
  0
VERTEX
  8
0
 10
0.2379
 20
0.4500
 30
0.0000
  0
SEQEND
  8
0
  0
POLYLINE
  8
0
 66
1
 10
0.0000
 20
0.0000
 30
0.0000
 40
0.0500
 41
0.0500
 70
0
  0
VERTEX
  8
0
 10
0.2379
 20
0.4250
 30
0.0000
 42
1.0000
  0
VERTEX
  8
0
 10
0.2379
 20
0.4750
 30
0.0000
  0
SEQEND
  8
0
  0
POLYLINE
  8
0
 66
1
 10
0.0000
 20
0.0000
 30
0.0000
 40
0.0500
 41
0.0500
 70
0
  0
VERTEX
  8
0
 10
-0.2379
 20
0.4750
 30
0.0000
 42
1.0000
  0
VERTEX
  8
0
 10
-0.2379
 20
0.4250
 30
0.0000
  0
SEQEND
  8
0
  0
POLYLINE
  8
0
 66
1
 10
0.0000
 20
0.0000
 30
0.0000
 40
0.1000
 41
0.1000
 70
0
  0
VERTEX
  8
0
 10
0.4500
 20
0.2379
 30
0.0000
  0
VERTEX
  8
0
 10
0.4500
 20
-0.2379
 30
0.0000
  0
SEQEND
  8
0
  0
POLYLINE
  8
0
 66
1
 10
0.0000
 20
0.0000
 30
0.0000
 40
0.0500
 41
0.0500
 70
0
  0
VERTEX
  8
0
 10
0.4250
 20
-0.2379
 30
0.0000
 42
1.0000
  0
VERTEX
  8
0
 10
0.4750
 20
-0.2379
 30
0.0000
  0
SEQEND
  8
0
  0
POLYLINE
  8
0
 66
1
 10
0.0000
 20
0.0000
 30
0.0000
 40
0.0500
 41
0.0500
 70
0
  0
VERTEX
  8
0
 10
0.4750
 20
0.2379
 30
0.0000
 42
1.0000
  0
VERTEX
  8
0
 10
0.4250
 20
0.2379
 30
0.0000
  0
SEQEND
  8
0
  0
POLYLINE
  8
0
 66
1
 10
0.0000
 20
0.0000
 30
0.0000
 40
0.1000
 41
0.1000
 70
0
  0
VERTEX
  8
0
 10
0.2379
 20
-0.4500
 30
0.0000
  0
VERTEX
  8
0
 10
-0.2379
 20
-0.4500
 30
0.0000
  0
SEQEND
  8
0
  0
POLYLINE
  8
0
 66
1
 10
0.0000
 20
0.0000
 30
0.0000
 40
0.0500
 41
0.0500
 70
0
  0
VERTEX
  8
0
 10
-0.2379
 20
-0.4250
 30
0.0000
 42
1.0000
  0
VERTEX
  8
0
 10
-0.2379
 20
-0.4750
 30
0.0000
  0
SEQEND
  8
0
  0
POLYLINE
  8
0
 66
1
 10
0.0000
 20
0.0000
 30
0.0000
 40
0.0500
 41
0.0500
 70
0
  0
VERTEX
  8
0
 10
0.2379
 20
-0.4750
 30
0.0000
 42
1.0000
  0
VERTEX
  8
0
 10
0.2379
 20
-0.4250
 30
0.0000
  0
SEQEND
  8
0
  0
POLYLINE
  8
0
 66
1
 10
0.0000
 20
0.0000
 30
0.0000
 40
0.1000
 41
0.1000
 70
0
  0
VERTEX
  8
0
 10
-0.4500
 20
-0.2379
 30
0.0000
  0
VERTEX
  8
0
 10
-0.4500
 20
0.2379
 30
0.0000
  0
SEQEND
  8
0
  0
POLYLINE
  8
0
 66
1
 10
0.0000
 20
0.0000
 30
0.0000
 40
0.0500
 41
0.0500
 70
0
  0
VERTEX
  8
0
 10
-0.4250
 20
0.2379
 30
0.0000
 42
1.0000
  0
VERTEX
  8
0
 10
-0.4750
 20
0.2379
 30
0.0000
  0
SEQEND
  8
0
  0
POLYLINE
  8
0
 66
1
 10
0.0000
 20
0.0000
 30
0.0000
 40
0.0500
 41
0.0500
 70
0
  0
VERTEX
  8
0
 10
-0.4750
 20
-0.2379
 30
0.0000
 42
1.0000
  0
VERTEX
  8
0
 10
-0.4250
 20
-0.2379
 30
0.0000
  0
SEQEND
  8
0
  0
ENDBLK
  8
0
  0
ENDSEC
  0
SECTION
  2
ENTITIES
  0
POINT
  8
23
 10
0.0000
 20
0.0000
 30
0.0000
  0
POLYLINE
  8
21
 66
1
 10
0.0000
 20
0.0000
 30
0.0000
 40
0.2032
 41
0.2032
 70
0
  0
VERTEX
  8
21
 10
11.5220
 20
0.4300
 30
0.0000
  0
VERTEX
  8
21
 10
22.6980
 20
0.4300
 30
0.0000
  0
SEQEND
  8
0
  0
POLYLINE
  8
21
 66
1
 10
0.0000
 20
0.0000
 30
0.0000
 40
0.1016
 41
0.1016
 70
0
  0
VERTEX
  8
21
 10
22.6980
 20
0.3792
 30
0.0000
 42
1.0000
  0
VERTEX
  8
21
 10
22.6980
 20
0.4808
 30
0.0000
  0
SEQEND
  8
0
  0
POLYLINE
  8
21
 66
1
 10
0.0000
 20
0.0000
 30
0.0000
 40
0.1016
 41
0.1016
 70
0
  0
VERTEX
  8
21
 10
11.5220
 20
0.4808
 30
0.0000
 42
1.0000
  0
VERTEX
  8
21
 10
11.5220
 20
0.3792
 30
0.0000
  0
SEQEND
  8
0
  0
POLYLINE
  8
21
 66
1
 10
0.0000
 20
0.0000
 30
0.0000
 40
0.2032
 41
0.2032
 70
0
  0
VERTEX
  8
21
 10
12.2840
 20
25.8300
 30
0.0000
  0
VERTEX
  8
21
 10
21.9360
 20
25.8300
 30
0.0000
  0
SEQEND
  8
0
  0
POLYLINE
  8
21
 66
1
 10
0.0000
 20
0.0000
 30
0.0000
 40
0.1016
 41
0.1016
 70
0
  0
VERTEX
  8
21
 10
21.9360
 20
25.7792
 30
0.0000
 42
1.0000
  0
VERTEX
  8
21
 10
21.9360
 20
25.8808
 30
0.0000
  0
SEQEND
  8
0
  0
POLYLINE
  8
21
 66
1
 10
0.0000
 20
0.0000
 30
0.0000
 40
0.1016
 41
0.1016
 70
0
  0
VERTEX
  8
21
 10
12.2840
 20
25.8808
 30
0.0000
 42
1.0000
  0
VERTEX
  8
21
 10
12.2840
 20
25.7792
 30
0.0000
  0
SEQEND
  8
0
  0
POLYLINE
  8
21
 66
1
 10
0.0000
 20
0.0000
 30
0.0000
 40
0.2032
 41
0.2032
 70
0
  0
VERTEX
  8
21
 10
12.2840
 20
25.8300
 30
0.0000
  0
VERTEX
  8
21
 10
12.2840
 20
23.2900
 30
0.0000
  0
SEQEND
  8
0
  0
POLYLINE
  8
21
 66
1
 10
0.0000
 20
0.0000
 30
0.0000
 40
0.1016
 41
0.1016
 70
0
  0
VERTEX
  8
21
 10
12.2332
 20
23.2900
 30
0.0000
 42
1.0000
  0
VERTEX
  8
21
 10
12.3348
 20
23.2900
 30
0.0000
  0
SEQEND
  8
0
  0
POLYLINE
  8
21
 66
1
 10
0.0000
 20
0.0000
 30
0.0000
 40
0.1016
 41
0.1016
 70
0
  0
VERTEX
  8
21
 10
12.3348
 20
25.8300
 30
0.0000
 42
1.0000
  0
VERTEX
  8
21
 10
12.2332
 20
25.8300
 30
0.0000
  0
SEQEND
  8
0
  0
POLYLINE
  8
21
 66
1
 10
0.0000
 20
0.0000
 30
0.0000
 40
0.2032
 41
0.2032
 70
0
  0
VERTEX
  8
21
 10
21.9360
 20
25.8300
 30
0.0000
  0
VERTEX
  8
21
 10
21.9360
 20
23.2900
 30
0.0000
  0
SEQEND
  8
0
  0
POLYLINE
  8
21
 66
1
 10
0.0000
 20
0.0000
 30
0.0000
 40
0.1016
 41
0.1016
 70
0
  0
VERTEX
  8
21
 10
21.8852
 20
23.2900
 30
0.0000
 42
1.0000
  0
VERTEX
  8
21
 10
21.9868
 20
23.2900
 30
0.0000
  0
SEQEND
  8
0
  0
POLYLINE
  8
21
 66
1
 10
0.0000
 20
0.0000
 30
0.0000
 40
0.1016
 41
0.1016
 70
0
  0
VERTEX
  8
21
 10
21.9868
 20
25.8300
 30
0.0000
 42
1.0000
  0
VERTEX
  8
21
 10
21.8852
 20
25.8300
 30
0.0000
  0
SEQEND
  8
0
  0
POLYLINE
  8
21
 66
1
 10
0.0000
 20
0.0000
 30
0.0000
 40
0.2032
 41
0.2032
 70
0
  0
VERTEX
  8
21
 10
12.2840
 20
23.2900
 30
0.0000
  0
VERTEX
  8
21
 10
9.4900
 20
23.2900
 30
0.0000
  0
SEQEND
  8
0
  0
POLYLINE
  8
21
 66
1
 10
0.0000
 20
0.0000
 30
0.0000
 40
0.1016
 41
0.1016
 70
0
  0
VERTEX
  8
21
 10
9.4900
 20
23.3408
 30
0.0000
 42
1.0000
  0
VERTEX
  8
21
 10
9.4900
 20
23.2392
 30
0.0000
  0
SEQEND
  8
0
  0
POLYLINE
  8
21
 66
1
 10
0.0000
 20
0.0000
 30
0.0000
 40
0.1016
 41
0.1016
 70
0
  0
VERTEX
  8
21
 10
12.2840
 20
23.2392
 30
0.0000
 42
1.0000
  0
VERTEX
  8
21
 10
12.2840
 20
23.3408
 30
0.0000
  0
SEQEND
  8
0
  0
POLYLINE
  8
21
 66
1
 10
0.0000
 20
0.0000
 30
0.0000
 40
0.2032
 41
0.2032
 70
0
  0
VERTEX
  8
21
 10
21.9360
 20
23.2900
 30
0.0000
  0
VERTEX
  8
21
 10
24.7300
 20
23.2900
 30
0.0000
  0
SEQEND
  8
0
  0
POLYLINE
  8
21
 66
1
 10
0.0000
 20
0.0000
 30
0.0000
 40
0.1016
 41
0.1016
 70
0
  0
VERTEX
  8
21
 10
24.7300
 20
23.2392
 30
0.0000
 42
1.0000
  0
VERTEX
  8
21
 10
24.7300
 20
23.3408
 30
0.0000
  0
SEQEND
  8
0
  0
POLYLINE
  8
21
 66
1
 10
0.0000
 20
0.0000
 30
0.0000
 40
0.1016
 41
0.1016
 70
0
  0
VERTEX
  8
21
 10
21.9360
 20
23.3408
 30
0.0000
 42
1.0000
  0
VERTEX
  8
21
 10
21.9360
 20
23.2392
 30
0.0000
  0
SEQEND
  8
0
  0
POLYLINE
  8
21
 66
1
 10
0.0000
 20
0.0000
 30
0.0000
 40
0.2032
 41
0.2032
 70
0
  0
VERTEX
  8
21
 10
7.5850
 20
10.3360
 30
0.0000
  0
VERTEX
  8
21
 10
7.5850
 20
18.4640
 30
0.0000
  0
SEQEND
  8
0
  0
POLYLINE
  8
21
 66
1
 10
0.0000
 20
0.0000
 30
0.0000
 40
0.1016
 41
0.1016
 70
0
  0
VERTEX
  8
21
 10
7.6358
 20
18.4640
 30
0.0000
 42
1.0000
  0
VERTEX
  8
21
 10
7.5342
 20
18.4640
 30
0.0000
  0
SEQEND
  8
0
  0
POLYLINE
  8
21
 66
1
 10
0.0000
 20
0.0000
 30
0.0000
 40
0.1016
 41
0.1016
 70
0
  0
VERTEX
  8
21
 10
7.5342
 20
10.3360
 30
0.0000
 42
1.0000
  0
VERTEX
  8
21
 10
7.6358
 20
10.3360
 30
0.0000
  0
SEQEND
  8
0
  0
POLYLINE
  8
21
 66
1
 10
0.0000
 20
0.0000
 30
0.0000
 40
0.2032
 41
0.2032
 70
0
  0
VERTEX
  8
21
 10
9.4900
 20
10.3360
 30
0.0000
  0
VERTEX
  8
21
 10
9.4900
 20
7.4150
 30
0.0000
  0
SEQEND
  8
0
  0
POLYLINE
  8
21
 66
1
 10
0.0000
 20
0.0000
 30
0.0000
 40
0.1016
 41
0.1016
 70
0
  0
VERTEX
  8
21
 10
9.4392
 20
7.4150
 30
0.0000
 42
1.0000
  0
VERTEX
  8
21
 10
9.5408
 20
7.4150
 30
0.0000
  0
SEQEND
  8
0
  0
POLYLINE
  8
21
 66
1
 10
0.0000
 20
0.0000
 30
0.0000
 40
0.1016
 41
0.1016
 70
0
  0
VERTEX
  8
21
 10
9.5408
 20
10.3360
 30
0.0000
 42
1.0000
  0
VERTEX
  8
21
 10
9.4392
 20
10.3360
 30
0.0000
  0
SEQEND
  8
0
  0
POLYLINE
  8
21
 66
1
 10
0.0000
 20
0.0000
 30
0.0000
 40
0.2032
 41
0.2032
 70
0
  0
VERTEX
  8
21
 10
9.4900
 20
18.4640
 30
0.0000
  0
VERTEX
  8
21
 10
9.4900
 20
23.2900
 30
0.0000
  0
SEQEND
  8
0
  0
POLYLINE
  8
21
 66
1
 10
0.0000
 20
0.0000
 30
0.0000
 40
0.1016
 41
0.1016
 70
0
  0
VERTEX
  8
21
 10
9.5408
 20
23.2900
 30
0.0000
 42
1.0000
  0
VERTEX
  8
21
 10
9.4392
 20
23.2900
 30
0.0000
  0
SEQEND
  8
0
  0
POLYLINE
  8
21
 66
1
 10
0.0000
 20
0.0000
 30
0.0000
 40
0.1016
 41
0.1016
 70
0
  0
VERTEX
  8
21
 10
9.4392
 20
18.4640
 30
0.0000
 42
1.0000
  0
VERTEX
  8
21
 10
9.5408
 20
18.4640
 30
0.0000
  0
SEQEND
  8
0
  0
POLYLINE
  8
21
 66
1
 10
0.0000
 20
0.0000
 30
0.0000
 40
0.2032
 41
0.2032
 70
0
  0
VERTEX
  8
21
 10
9.4900
 20
10.3360
 30
0.0000
  0
VERTEX
  8
21
 10
7.5850
 20
10.3360
 30
0.0000
  0
SEQEND
  8
0
  0
POLYLINE
  8
21
 66
1
 10
0.0000
 20
0.0000
 30
0.0000
 40
0.1016
 41
0.1016
 70
0
  0
VERTEX
  8
21
 10
7.5850
 20
10.3868
 30
0.0000
 42
1.0000
  0
VERTEX
  8
21
 10
7.5850
 20
10.2852
 30
0.0000
  0
SEQEND
  8
0
  0
POLYLINE
  8
21
 66
1
 10
0.0000
 20
0.0000
 30
0.0000
 40
0.1016
 41
0.1016
 70
0
  0
VERTEX
  8
21
 10
9.4900
 20
10.2852
 30
0.0000
 42
1.0000
  0
VERTEX
  8
21
 10
9.4900
 20
10.3868
 30
0.0000
  0
SEQEND
  8
0
  0
POLYLINE
  8
21
 66
1
 10
0.0000
 20
0.0000
 30
0.0000
 40
0.2032
 41
0.2032
 70
0
  0
VERTEX
  8
21
 10
9.4900
 20
18.4640
 30
0.0000
  0
VERTEX
  8
21
 10
7.5850
 20
18.4640
 30
0.0000
  0
SEQEND
  8
0
  0
POLYLINE
  8
21
 66
1
 10
0.0000
 20
0.0000
 30
0.0000
 40
0.1016
 41
0.1016
 70
0
  0
VERTEX
  8
21
 10
7.5850
 20
18.5148
 30
0.0000
 42
1.0000
  0
VERTEX
  8
21
 10
7.5850
 20
18.4132
 30
0.0000
  0
SEQEND
  8
0
  0
POLYLINE
  8
21
 66
1
 10
0.0000
 20
0.0000
 30
0.0000
 40
0.1016
 41
0.1016
 70
0
  0
VERTEX
  8
21
 10
9.4900
 20
18.4132
 30
0.0000
 42
1.0000
  0
VERTEX
  8
21
 10
9.4900
 20
18.5148
 30
0.0000
  0
SEQEND
  8
0
  0
POLYLINE
  8
21
 66
1
 10
0.0000
 20
0.0000
 30
0.0000
 40
0.2032
 41
0.2032
 70
0
  0
VERTEX
  8
21
 10
9.4900
 20
7.4150
 30
0.0000
  0
VERTEX
  8
21
 10
11.5220
 20
7.4150
 30
0.0000
  0
SEQEND
  8
0
  0
POLYLINE
  8
21
 66
1
 10
0.0000
 20
0.0000
 30
0.0000
 40
0.1016
 41
0.1016
 70
0
  0
VERTEX
  8
21
 10
11.5220
 20
7.3642
 30
0.0000
 42
1.0000
  0
VERTEX
  8
21
 10
11.5220
 20
7.4658
 30
0.0000
  0
SEQEND
  8
0
  0
POLYLINE
  8
21
 66
1
 10
0.0000
 20
0.0000
 30
0.0000
 40
0.1016
 41
0.1016
 70
0
  0
VERTEX
  8
21
 10
9.4900
 20
7.4658
 30
0.0000
 42
1.0000
  0
VERTEX
  8
21
 10
9.4900
 20
7.3642
 30
0.0000
  0
SEQEND
  8
0
  0
POLYLINE
  8
21
 66
1
 10
0.0000
 20
0.0000
 30
0.0000
 40
0.2032
 41
0.2032
 70
0
  0
VERTEX
  8
21
 10
22.6980
 20
7.4150
 30
0.0000
  0
VERTEX
  8
21
 10
24.7300
 20
7.4150
 30
0.0000
  0
SEQEND
  8
0
  0
POLYLINE
  8
21
 66
1
 10
0.0000
 20
0.0000
 30
0.0000
 40
0.1016
 41
0.1016
 70
0
  0
VERTEX
  8
21
 10
24.7300
 20
7.3642
 30
0.0000
 42
1.0000
  0
VERTEX
  8
21
 10
24.7300
 20
7.4658
 30
0.0000
  0
SEQEND
  8
0
  0
POLYLINE
  8
21
 66
1
 10
0.0000
 20
0.0000
 30
0.0000
 40
0.1016
 41
0.1016
 70
0
  0
VERTEX
  8
21
 10
22.6980
 20
7.4658
 30
0.0000
 42
1.0000
  0
VERTEX
  8
21
 10
22.6980
 20
7.3642
 30
0.0000
  0
SEQEND
  8
0
  0
POLYLINE
  8
21
 66
1
 10
0.0000
 20
0.0000
 30
0.0000
 40
0.2032
 41
0.2032
 70
0
  0
VERTEX
  8
21
 10
11.5220
 20
0.4300
 30
0.0000
  0
VERTEX
  8
21
 10
11.5220
 20
7.4150
 30
0.0000
  0
SEQEND
  8
0
  0
POLYLINE
  8
21
 66
1
 10
0.0000
 20
0.0000
 30
0.0000
 40
0.1016
 41
0.1016
 70
0
  0
VERTEX
  8
21
 10
11.5728
 20
7.4150
 30
0.0000
 42
1.0000
  0
VERTEX
  8
21
 10
11.4712
 20
7.4150
 30
0.0000
  0
SEQEND
  8
0
  0
POLYLINE
  8
21
 66
1
 10
0.0000
 20
0.0000
 30
0.0000
 40
0.1016
 41
0.1016
 70
0
  0
VERTEX
  8
21
 10
11.4712
 20
0.4300
 30
0.0000
 42
1.0000
  0
VERTEX
  8
21
 10
11.5728
 20
0.4300
 30
0.0000
  0
SEQEND
  8
0
  0
POLYLINE
  8
21
 66
1
 10
0.0000
 20
0.0000
 30
0.0000
 40
0.2032
 41
0.2032
 70
0
  0
VERTEX
  8
21
 10
22.6980
 20
0.4300
 30
0.0000
  0
VERTEX
  8
21
 10
22.6980
 20
7.4150
 30
0.0000
  0
SEQEND
  8
0
  0
POLYLINE
  8
21
 66
1
 10
0.0000
 20
0.0000
 30
0.0000
 40
0.1016
 41
0.1016
 70
0
  0
VERTEX
  8
21
 10
22.7488
 20
7.4150
 30
0.0000
 42
1.0000
  0
VERTEX
  8
21
 10
22.6472
 20
7.4150
 30
0.0000
  0
SEQEND
  8
0
  0
POLYLINE
  8
21
 66
1
 10
0.0000
 20
0.0000
 30
0.0000
 40
0.1016
 41
0.1016
 70
0
  0
VERTEX
  8
21
 10
22.6472
 20
0.4300
 30
0.0000
 42
1.0000
  0
VERTEX
  8
21
 10
22.7488
 20
0.4300
 30
0.0000
  0
SEQEND
  8
0
  0
POLYLINE
  8
21
 66
1
 10
0.0000
 20
0.0000
 30
0.0000
 40
0.2032
 41
0.2032
 70
0
  0
VERTEX
  8
21
 10
24.7300
 20
9.5740
 30
0.0000
  0
VERTEX
  8
21
 10
28.2860
 20
9.5740
 30
0.0000
  0
SEQEND
  8
0
  0
POLYLINE
  8
21
 66
1
 10
0.0000
 20
0.0000
 30
0.0000
 40
0.1016
 41
0.1016
 70
0
  0
VERTEX
  8
21
 10
28.2860
 20
9.5232
 30
0.0000
 42
1.0000
  0
VERTEX
  8
21
 10
28.2860
 20
9.6248
 30
0.0000
  0
SEQEND
  8
0
  0
POLYLINE
  8
21
 66
1
 10
0.0000
 20
0.0000
 30
0.0000
 40
0.1016
 41
0.1016
 70
0
  0
VERTEX
  8
21
 10
24.7300
 20
9.6248
 30
0.0000
 42
1.0000
  0
VERTEX
  8
21
 10
24.7300
 20
9.5232
 30
0.0000
  0
SEQEND
  8
0
  0
POLYLINE
  8
21
 66
1
 10
0.0000
 20
0.0000
 30
0.0000
 40
0.2032
 41
0.2032
 70
0
  0
VERTEX
  8
21
 10
24.7300
 20
19.2260
 30
0.0000
  0
VERTEX
  8
21
 10
28.2860
 20
19.2260
 30
0.0000
  0
SEQEND
  8
0
  0
POLYLINE
  8
21
 66
1
 10
0.0000
 20
0.0000
 30
0.0000
 40
0.1016
 41
0.1016
 70
0
  0
VERTEX
  8
21
 10
28.2860
 20
19.1752
 30
0.0000
 42
1.0000
  0
VERTEX
  8
21
 10
28.2860
 20
19.2768
 30
0.0000
  0
SEQEND
  8
0
  0
POLYLINE
  8
21
 66
1
 10
0.0000
 20
0.0000
 30
0.0000
 40
0.1016
 41
0.1016
 70
0
  0
VERTEX
  8
21
 10
24.7300
 20
19.2768
 30
0.0000
 42
1.0000
  0
VERTEX
  8
21
 10
24.7300
 20
19.1752
 30
0.0000
  0
SEQEND
  8
0
  0
POLYLINE
  8
21
 66
1
 10
0.0000
 20
0.0000
 30
0.0000
 40
0.2032
 41
0.2032
 70
0
  0
VERTEX
  8
21
 10
28.2860
 20
9.5740
 30
0.0000
  0
VERTEX
  8
21
 10
28.2860
 20
19.2260
 30
0.0000
  0
SEQEND
  8
0
  0
POLYLINE
  8
21
 66
1
 10
0.0000
 20
0.0000
 30
0.0000
 40
0.1016
 41
0.1016
 70
0
  0
VERTEX
  8
21
 10
28.3368
 20
19.2260
 30
0.0000
 42
1.0000
  0
VERTEX
  8
21
 10
28.2352
 20
19.2260
 30
0.0000
  0
SEQEND
  8
0
  0
POLYLINE
  8
21
 66
1
 10
0.0000
 20
0.0000
 30
0.0000
 40
0.1016
 41
0.1016
 70
0
  0
VERTEX
  8
21
 10
28.2352
 20
9.5740
 30
0.0000
 42
1.0000
  0
VERTEX
  8
21
 10
28.3368
 20
9.5740
 30
0.0000
  0
SEQEND
  8
0
  0
POLYLINE
  8
21
 66
1
 10
0.0000
 20
0.0000
 30
0.0000
 40
0.2032
 41
0.2032
 70
0
  0
VERTEX
  8
21
 10
24.7300
 20
9.5740
 30
0.0000
  0
VERTEX
  8
21
 10
24.7300
 20
7.4150
 30
0.0000
  0
SEQEND
  8
0
  0
POLYLINE
  8
21
 66
1
 10
0.0000
 20
0.0000
 30
0.0000
 40
0.1016
 41
0.1016
 70
0
  0
VERTEX
  8
21
 10
24.6792
 20
7.4150
 30
0.0000
 42
1.0000
  0
VERTEX
  8
21
 10
24.7808
 20
7.4150
 30
0.0000
  0
SEQEND
  8
0
  0
POLYLINE
  8
21
 66
1
 10
0.0000
 20
0.0000
 30
0.0000
 40
0.1016
 41
0.1016
 70
0
  0
VERTEX
  8
21
 10
24.7808
 20
9.5740
 30
0.0000
 42
1.0000
  0
VERTEX
  8
21
 10
24.6792
 20
9.5740
 30
0.0000
  0
SEQEND
  8
0
  0
POLYLINE
  8
21
 66
1
 10
0.0000
 20
0.0000
 30
0.0000
 40
0.2032
 41
0.2032
 70
0
  0
VERTEX
  8
21
 10
24.7300
 20
19.2260
 30
0.0000
  0
VERTEX
  8
21
 10
24.7300
 20
23.2900
 30
0.0000
  0
SEQEND
  8
0
  0
POLYLINE
  8
21
 66
1
 10
0.0000
 20
0.0000
 30
0.0000
 40
0.1016
 41
0.1016
 70
0
  0
VERTEX
  8
21
 10
24.7808
 20
23.2900
 30
0.0000
 42
1.0000
  0
VERTEX
  8
21
 10
24.6792
 20
23.2900
 30
0.0000
  0
SEQEND
  8
0
  0
POLYLINE
  8
21
 66
1
 10
0.0000
 20
0.0000
 30
0.0000
 40
0.1016
 41
0.1016
 70
0
  0
VERTEX
  8
21
 10
24.6792
 20
19.2260
 30
0.0000
 42
1.0000
  0
VERTEX
  8
21
 10
24.7808
 20
19.2260
 30
0.0000
  0
SEQEND
  8
0
  0
POLYLINE
  8
51
 66
1
 10
0.0000
 20
0.0000
 30
0.0000
 40
0.2032
 41
0.2032
 70
0
  0
VERTEX
  8
51
 10
19.0150
 20
6.7800
 30
0.0000
  0
VERTEX
  8
51
 10
17.7450
 20
6.7800
 30
0.0000
  0
SEQEND
  8
0
  0
POLYLINE
  8
51
 66
1
 10
0.0000
 20
0.0000
 30
0.0000
 40
0.1016
 41
0.1016
 70
0
  0
VERTEX
  8
51
 10
17.7450
 20
6.8308
 30
0.0000
 42
1.0000
  0
VERTEX
  8
51
 10
17.7450
 20
6.7292
 30
0.0000
  0
SEQEND
  8
0
  0
POLYLINE
  8
51
 66
1
 10
0.0000
 20
0.0000
 30
0.0000
 40
0.1016
 41
0.1016
 70
0
  0
VERTEX
  8
51
 10
19.0150
 20
6.7292
 30
0.0000
 42
1.0000
  0
VERTEX
  8
51
 10
19.0150
 20
6.8308
 30
0.0000
  0
SEQEND
  8
0
  0
POLYLINE
  8
51
 66
1
 10
0.0000
 20
0.0000
 30
0.0000
 40
0.2032
 41
0.2032
 70
0
  0
VERTEX
  8
51
 10
17.7450
 20
6.7800
 30
0.0000
  0
VERTEX
  8
51
 10
16.4750
 20
6.1450
 30
0.0000
  0
SEQEND
  8
0
  0
POLYLINE
  8
51
 66
1
 10
0.0000
 20
0.0000
 30
0.0000
 40
0.1016
 41
0.1016
 70
0
  0
VERTEX
  8
51
 10
16.4523
 20
6.1904
 30
0.0000
 42
1.0000
  0
VERTEX
  8
51
 10
16.4977
 20
6.0996
 30
0.0000
  0
SEQEND
  8
0
  0
POLYLINE
  8
51
 66
1
 10
0.0000
 20
0.0000
 30
0.0000
 40
0.1016
 41
0.1016
 70
0
  0
VERTEX
  8
51
 10
17.7677
 20
6.7346
 30
0.0000
 42
1.0000
  0
VERTEX
  8
51
 10
17.7223
 20
6.8254
 30
0.0000
  0
SEQEND
  8
0
  0
POLYLINE
  8
51
 66
1
 10
0.0000
 20
0.0000
 30
0.0000
 40
0.2032
 41
0.2032
 70
0
  0
VERTEX
  8
51
 10
16.4750
 20
6.7800
 30
0.0000
  0
VERTEX
  8
51
 10
15.2050
 20
6.7800
 30
0.0000
  0
SEQEND
  8
0
  0
POLYLINE
  8
51
 66
1
 10
0.0000
 20
0.0000
 30
0.0000
 40
0.1016
 41
0.1016
 70
0
  0
VERTEX
  8
51
 10
15.2050
 20
6.8308
 30
0.0000
 42
1.0000
  0
VERTEX
  8
51
 10
15.2050
 20
6.7292
 30
0.0000
  0
SEQEND
  8
0
  0
POLYLINE
  8
51
 66
1
 10
0.0000
 20
0.0000
 30
0.0000
 40
0.1016
 41
0.1016
 70
0
  0
VERTEX
  8
51
 10
16.4750
 20
6.7292
 30
0.0000
 42
1.0000
  0
VERTEX
  8
51
 10
16.4750
 20
6.8308
 30
0.0000
  0
SEQEND
  8
0
  0
POLYLINE
  8
21
 66
1
 10
0.0000
 20
0.0000
 30
0.0000
 40
0.1270
 41
0.1270
 70
0
  0
VERTEX
  8
21
 10
0.0000
 20
25.0000
 30
0.0000
  0
VERTEX
  8
21
 10
0.0000
 20
2.0000
 30
0.0000
  0
SEQEND
  8
0
  0
POLYLINE
  8
21
 66
1
 10
0.0000
 20
0.0000
 30
0.0000
 40
0.0635
 41
0.0635
 70
0
  0
VERTEX
  8
21
 10
-0.0318
 20
2.0000
 30
0.0000
 42
1.0000
  0
VERTEX
  8
21
 10
0.0318
 20
2.0000
 30
0.0000
  0
SEQEND
  8
0
  0
POLYLINE
  8
21
 66
1
 10
0.0000
 20
0.0000
 30
0.0000
 40
0.0635
 41
0.0635
 70
0
  0
VERTEX
  8
21
 10
0.0318
 20
25.0000
 30
0.0000
 42
1.0000
  0
VERTEX
  8
21
 10
-0.0318
 20
25.0000
 30
0.0000
  0
SEQEND
  8
0
  0
POLYLINE
  8
21
 66
1
 10
0.0000
 20
0.0000
 30
0.0000
 40
0.1270
 41
0.1270
 70
0
  0
VERTEX
  8
21
 10
0.0000
 20
2.0000
 30
0.0000
 42
0.4142
  0
VERTEX
  8
21
 10
2.0000
 20
0.0000
 30
0.0000
  0
SEQEND
  8
0
  0
POLYLINE
  8
21
 66
1
 10
0.0000
 20
0.0000
 30
0.0000
 40
0.0635
 41
0.0635
 70
0
  0
VERTEX
  8
21
 10
0.0318
 20
2.0000
 30
0.0000
 42
1.0000
  0
VERTEX
  8
21
 10
-0.0318
 20
2.0000
 30
0.0000
  0
SEQEND
  8
0
  0
POLYLINE
  8
21
 66
1
 10
0.0000
 20
0.0000
 30
0.0000
 40
0.0635
 41
0.0635
 70
0
  0
VERTEX
  8
21
 10
2.0000
 20
-0.0318
 30
0.0000
 42
1.0000
  0
VERTEX
  8
21
 10
2.0000
 20
0.0318
 30
0.0000
  0
SEQEND
  8
0
  0
POLYLINE
  8
21
 66
1
 10
0.0000
 20
0.0000
 30
0.0000
 40
0.1270
 41
0.1270
 70
0
  0
VERTEX
  8
21
 10
2.0000
 20
0.0000
 30
0.0000
  0
VERTEX
  8
21
 10
32.5000
 20
0.0000
 30
0.0000
  0
SEQEND
  8
0
  0
POLYLINE
  8
21
 66
1
 10
0.0000
 20
0.0000
 30
0.0000
 40
0.0635
 41
0.0635
 70
0
  0
VERTEX
  8
21
 10
32.5000
 20
-0.0318
 30
0.0000
 42
1.0000
  0
VERTEX
  8
21
 10
32.5000
 20
0.0318
 30
0.0000
  0
SEQEND
  8
0
  0
POLYLINE
  8
21
 66
1
 10
0.0000
 20
0.0000
 30
0.0000
 40
0.0635
 41
0.0635
 70
0
  0
VERTEX
  8
21
 10
2.0000
 20
0.0318
 30
0.0000
 42
1.0000
  0
VERTEX
  8
21
 10
2.0000
 20
-0.0318
 30
0.0000
  0
SEQEND
  8
0
  0
POLYLINE
  8
21
 66
1
 10
0.0000
 20
0.0000
 30
0.0000
 40
0.1270
 41
0.1270
 70
0
  0
VERTEX
  8
21
 10
32.5000
 20
0.0000
 30
0.0000
 42
0.4142
  0
VERTEX
  8
21
 10
34.4000
 20
1.9000
 30
0.0000
  0
SEQEND
  8
0
  0
POLYLINE
  8
21
 66
1
 10
0.0000
 20
0.0000
 30
0.0000
 40
0.0635
 41
0.0635
 70
0
  0
VERTEX
  8
21
 10
32.5000
 20
0.0318
 30
0.0000
 42
1.0000
  0
VERTEX
  8
21
 10
32.5000
 20
-0.0318
 30
0.0000
  0
SEQEND
  8
0
  0
POLYLINE
  8
21
 66
1
 10
0.0000
 20
0.0000
 30
0.0000
 40
0.0635
 41
0.0635
 70
0
  0
VERTEX
  8
21
 10
34.4318
 20
1.9000
 30
0.0000
 42
1.0000
  0
VERTEX
  8
21
 10
34.3682
 20
1.9000
 30
0.0000
  0
SEQEND
  8
0
  0
POLYLINE
  8
21
 66
1
 10
0.0000
 20
0.0000
 30
0.0000
 40
0.1270
 41
0.1270
 70
0
  0
VERTEX
  8
21
 10
34.4000
 20
1.9000
 30
0.0000
  0
VERTEX
  8
21
 10
34.4000
 20
24.8000
 30
0.0000
  0
SEQEND
  8
0
  0
POLYLINE
  8
21
 66
1
 10
0.0000
 20
0.0000
 30
0.0000
 40
0.0635
 41
0.0635
 70
0
  0
VERTEX
  8
21
 10
34.4318
 20
24.8000
 30
0.0000
 42
1.0000
  0
VERTEX
  8
21
 10
34.3682
 20
24.8000
 30
0.0000
  0
SEQEND
  8
0
  0
POLYLINE
  8
21
 66
1
 10
0.0000
 20
0.0000
 30
0.0000
 40
0.0635
 41
0.0635
 70
0
  0
VERTEX
  8
21
 10
34.3682
 20
1.9000
 30
0.0000
 42
1.0000
  0
VERTEX
  8
21
 10
34.4318
 20
1.9000
 30
0.0000
  0
SEQEND
  8
0
  0
POLYLINE
  8
21
 66
1
 10
0.0000
 20
0.0000
 30
0.0000
 40
0.1270
 41
0.1270
 70
0
  0
VERTEX
  8
21
 10
34.4000
 20
24.8000
 30
0.0000
 42
0.4142
  0
VERTEX
  8
21
 10
33.0000
 20
26.2000
 30
0.0000
  0
SEQEND
  8
0
  0
POLYLINE
  8
21
 66
1
 10
0.0000
 20
0.0000
 30
0.0000
 40
0.0635
 41
0.0635
 70
0
  0
VERTEX
  8
21
 10
34.3682
 20
24.8000
 30
0.0000
 42
1.0000
  0
VERTEX
  8
21
 10
34.4318
 20
24.8000
 30
0.0000
  0
SEQEND
  8
0
  0
POLYLINE
  8
21
 66
1
 10
0.0000
 20
0.0000
 30
0.0000
 40
0.0635
 41
0.0635
 70
0
  0
VERTEX
  8
21
 10
33.0000
 20
26.2318
 30
0.0000
 42
1.0000
  0
VERTEX
  8
21
 10
33.0000
 20
26.1683
 30
0.0000
  0
SEQEND
  8
0
  0
POLYLINE
  8
21
 66
1
 10
0.0000
 20
0.0000
 30
0.0000
 40
0.1270
 41
0.1270
 70
0
  0
VERTEX
  8
21
 10
33.0000
 20
26.2000
 30
0.0000
  0
VERTEX
  8
21
 10
1.2000
 20
26.2000
 30
0.0000
  0
SEQEND
  8
0
  0
POLYLINE
  8
21
 66
1
 10
0.0000
 20
0.0000
 30
0.0000
 40
0.0635
 41
0.0635
 70
0
  0
VERTEX
  8
21
 10
1.2000
 20
26.2318
 30
0.0000
 42
1.0000
  0
VERTEX
  8
21
 10
1.2000
 20
26.1683
 30
0.0000
  0
SEQEND
  8
0
  0
POLYLINE
  8
21
 66
1
 10
0.0000
 20
0.0000
 30
0.0000
 40
0.0635
 41
0.0635
 70
0
  0
VERTEX
  8
21
 10
33.0000
 20
26.1683
 30
0.0000
 42
1.0000
  0
VERTEX
  8
21
 10
33.0000
 20
26.2318
 30
0.0000
  0
SEQEND
  8
0
  0
POLYLINE
  8
21
 66
1
 10
0.0000
 20
0.0000
 30
0.0000
 40
0.1270
 41
0.1270
 70
0
  0
VERTEX
  8
21
 10
1.2000
 20
26.2000
 30
0.0000
 42
0.4142
  0
VERTEX
  8
21
 10
0.0000
 20
25.0000
 30
0.0000
  0
SEQEND
  8
0
  0
POLYLINE
  8
21
 66
1
 10
0.0000
 20
0.0000
 30
0.0000
 40
0.0635
 41
0.0635
 70
0
  0
VERTEX
  8
21
 10
1.2000
 20
26.1683
 30
0.0000
 42
1.0000
  0
VERTEX
  8
21
 10
1.2000
 20
26.2318
 30
0.0000
  0
SEQEND
  8
0
  0
POLYLINE
  8
21
 66
1
 10
0.0000
 20
0.0000
 30
0.0000
 40
0.0635
 41
0.0635
 70
0
  0
VERTEX
  8
21
 10
-0.0318
 20
25.0000
 30
0.0000
 42
1.0000
  0
VERTEX
  8
21
 10
0.0318
 20
25.0000
 30
0.0000
  0
SEQEND
  8
0
  0
POLYLINE
  8
25
 66
1
 10
0.0000
 20
0.0000
 30
0.0000
 40
0.1016
 41
0.1016
 70
0
  0
VERTEX
  8
25
 10
18.7326
 20
19.4302
 30
0.0000
  0
VERTEX
  8
25
 10
18.7326
 20
18.4557
 30
0.0000
  0
SEQEND
  8
0
  0
POLYLINE
  8
25
 66
1
 10
0.0000
 20
0.0000
 30
0.0000
 40
0.0508
 41
0.0508
 70
0
  0
VERTEX
  8
25
 10
18.7072
 20
18.4557
 30
0.0000
 42
1.0000
  0
VERTEX
  8
25
 10
18.7580
 20
18.4557
 30
0.0000
  0
SEQEND
  8
0
  0
POLYLINE
  8
25
 66
1
 10
0.0000
 20
0.0000
 30
0.0000
 40
0.0508
 41
0.0508
 70
0
  0
VERTEX
  8
25
 10
18.7580
 20
19.4302
 30
0.0000
 42
1.0000
  0
VERTEX
  8
25
 10
18.7072
 20
19.4302
 30
0.0000
  0
SEQEND
  8
0
  0
POLYLINE
  8
25
 66
1
 10
0.0000
 20
0.0000
 30
0.0000
 40
0.1016
 41
0.1016
 70
0
  0
VERTEX
  8
25
 10
18.7326
 20
18.4557
 30
0.0000
  0
VERTEX
  8
25
 10
18.9275
 20
18.2608
 30
0.0000
  0
SEQEND
  8
0
  0
POLYLINE
  8
25
 66
1
 10
0.0000
 20
0.0000
 30
0.0000
 40
0.0508
 41
0.0508
 70
0
  0
VERTEX
  8
25
 10
18.9095
 20
18.2428
 30
0.0000
 42
1.0000
  0
VERTEX
  8
25
 10
18.9455
 20
18.2788
 30
0.0000
  0
SEQEND
  8
0
  0
POLYLINE
  8
25
 66
1
 10
0.0000
 20
0.0000
 30
0.0000
 40
0.0508
 41
0.0508
 70
0
  0
VERTEX
  8
25
 10
18.7506
 20
18.4737
 30
0.0000
 42
1.0000
  0
VERTEX
  8
25
 10
18.7146
 20
18.4377
 30
0.0000
  0
SEQEND
  8
0
  0
POLYLINE
  8
25
 66
1
 10
0.0000
 20
0.0000
 30
0.0000
 40
0.1016
 41
0.1016
 70
0
  0
VERTEX
  8
25
 10
18.9275
 20
18.2608
 30
0.0000
  0
VERTEX
  8
25
 10
19.3173
 20
18.2608
 30
0.0000
  0
SEQEND
  8
0
  0
POLYLINE
  8
25
 66
1
 10
0.0000
 20
0.0000
 30
0.0000
 40
0.0508
 41
0.0508
 70
0
  0
VERTEX
  8
25
 10
19.3173
 20
18.2354
 30
0.0000
 42
1.0000
  0
VERTEX
  8
25
 10
19.3173
 20
18.2862
 30
0.0000
  0
SEQEND
  8
0
  0
POLYLINE
  8
25
 66
1
 10
0.0000
 20
0.0000
 30
0.0000
 40
0.0508
 41
0.0508
 70
0
  0
VERTEX
  8
25
 10
18.9275
 20
18.2862
 30
0.0000
 42
1.0000
  0
VERTEX
  8
25
 10
18.9275
 20
18.2354
 30
0.0000
  0
SEQEND
  8
0
  0
POLYLINE
  8
25
 66
1
 10
0.0000
 20
0.0000
 30
0.0000
 40
0.1016
 41
0.1016
 70
0
  0
VERTEX
  8
25
 10
19.3173
 20
18.2608
 30
0.0000
  0
VERTEX
  8
25
 10
19.5122
 20
18.4557
 30
0.0000
  0
SEQEND
  8
0
  0
POLYLINE
  8
25
 66
1
 10
0.0000
 20
0.0000
 30
0.0000
 40
0.0508
 41
0.0508
 70
0
  0
VERTEX
  8
25
 10
19.5302
 20
18.4377
 30
0.0000
 42
1.0000
  0
VERTEX
  8
25
 10
19.4942
 20
18.4737
 30
0.0000
  0
SEQEND
  8
0
  0
POLYLINE
  8
25
 66
1
 10
0.0000
 20
0.0000
 30
0.0000
 40
0.0508
 41
0.0508
 70
0
  0
VERTEX
  8
25
 10
19.2993
 20
18.2788
 30
0.0000
 42
1.0000
  0
VERTEX
  8
25
 10
19.3353
 20
18.2428
 30
0.0000
  0
SEQEND
  8
0
  0
POLYLINE
  8
25
 66
1
 10
0.0000
 20
0.0000
 30
0.0000
 40
0.1016
 41
0.1016
 70
0
  0
VERTEX
  8
25
 10
19.5122
 20
18.4557
 30
0.0000
  0
VERTEX
  8
25
 10
19.5122
 20
19.4302
 30
0.0000
  0
SEQEND
  8
0
  0
POLYLINE
  8
25
 66
1
 10
0.0000
 20
0.0000
 30
0.0000
 40
0.0508
 41
0.0508
 70
0
  0
VERTEX
  8
25
 10
19.5376
 20
19.4302
 30
0.0000
 42
1.0000
  0
VERTEX
  8
25
 10
19.4868
 20
19.4302
 30
0.0000
  0
SEQEND
  8
0
  0
POLYLINE
  8
25
 66
1
 10
0.0000
 20
0.0000
 30
0.0000
 40
0.0508
 41
0.0508
 70
0
  0
VERTEX
  8
25
 10
19.4868
 20
18.4557
 30
0.0000
 42
1.0000
  0
VERTEX
  8
25
 10
19.5376
 20
18.4557
 30
0.0000
  0
SEQEND
  8
0
  0
POLYLINE
  8
25
 66
1
 10
0.0000
 20
0.0000
 30
0.0000
 40
0.1016
 41
0.1016
 70
0
  0
VERTEX
  8
25
 10
19.9020
 20
18.4557
 30
0.0000
  0
VERTEX
  8
25
 10
20.0969
 20
18.2608
 30
0.0000
  0
SEQEND
  8
0
  0
POLYLINE
  8
25
 66
1
 10
0.0000
 20
0.0000
 30
0.0000
 40
0.0508
 41
0.0508
 70
0
  0
VERTEX
  8
25
 10
20.0789
 20
18.2428
 30
0.0000
 42
1.0000
  0
VERTEX
  8
25
 10
20.1149
 20
18.2788
 30
0.0000
  0
SEQEND
  8
0
  0
POLYLINE
  8
25
 66
1
 10
0.0000
 20
0.0000
 30
0.0000
 40
0.0508
 41
0.0508
 70
0
  0
VERTEX
  8
25
 10
19.9200
 20
18.4737
 30
0.0000
 42
1.0000
  0
VERTEX
  8
25
 10
19.8840
 20
18.4377
 30
0.0000
  0
SEQEND
  8
0
  0
POLYLINE
  8
25
 66
1
 10
0.0000
 20
0.0000
 30
0.0000
 40
0.1016
 41
0.1016
 70
0
  0
VERTEX
  8
25
 10
20.0969
 20
18.2608
 30
0.0000
  0
VERTEX
  8
25
 10
20.4867
 20
18.2608
 30
0.0000
  0
SEQEND
  8
0
  0
POLYLINE
  8
25
 66
1
 10
0.0000
 20
0.0000
 30
0.0000
 40
0.0508
 41
0.0508
 70
0
  0
VERTEX
  8
25
 10
20.4867
 20
18.2354
 30
0.0000
 42
1.0000
  0
VERTEX
  8
25
 10
20.4867
 20
18.2862
 30
0.0000
  0
SEQEND
  8
0
  0
POLYLINE
  8
25
 66
1
 10
0.0000
 20
0.0000
 30
0.0000
 40
0.0508
 41
0.0508
 70
0
  0
VERTEX
  8
25
 10
20.0969
 20
18.2862
 30
0.0000
 42
1.0000
  0
VERTEX
  8
25
 10
20.0969
 20
18.2354
 30
0.0000
  0
SEQEND
  8
0
  0
POLYLINE
  8
25
 66
1
 10
0.0000
 20
0.0000
 30
0.0000
 40
0.1016
 41
0.1016
 70
0
  0
VERTEX
  8
25
 10
20.4867
 20
18.2608
 30
0.0000
  0
VERTEX
  8
25
 10
20.6816
 20
18.4557
 30
0.0000
  0
SEQEND
  8
0
  0
POLYLINE
  8
25
 66
1
 10
0.0000
 20
0.0000
 30
0.0000
 40
0.0508
 41
0.0508
 70
0
  0
VERTEX
  8
25
 10
20.6996
 20
18.4377
 30
0.0000
 42
1.0000
  0
VERTEX
  8
25
 10
20.6636
 20
18.4737
 30
0.0000
  0
SEQEND
  8
0
  0
POLYLINE
  8
25
 66
1
 10
0.0000
 20
0.0000
 30
0.0000
 40
0.0508
 41
0.0508
 70
0
  0
VERTEX
  8
25
 10
20.4687
 20
18.2788
 30
0.0000
 42
1.0000
  0
VERTEX
  8
25
 10
20.5047
 20
18.2428
 30
0.0000
  0
SEQEND
  8
0
  0
POLYLINE
  8
25
 66
1
 10
0.0000
 20
0.0000
 30
0.0000
 40
0.1016
 41
0.1016
 70
0
  0
VERTEX
  8
25
 10
20.6816
 20
18.4557
 30
0.0000
  0
VERTEX
  8
25
 10
20.6816
 20
18.6506
 30
0.0000
  0
SEQEND
  8
0
  0
POLYLINE
  8
25
 66
1
 10
0.0000
 20
0.0000
 30
0.0000
 40
0.0508
 41
0.0508
 70
0
  0
VERTEX
  8
25
 10
20.7070
 20
18.6506
 30
0.0000
 42
1.0000
  0
VERTEX
  8
25
 10
20.6562
 20
18.6506
 30
0.0000
  0
SEQEND
  8
0
  0
POLYLINE
  8
25
 66
1
 10
0.0000
 20
0.0000
 30
0.0000
 40
0.0508
 41
0.0508
 70
0
  0
VERTEX
  8
25
 10
20.6562
 20
18.4557
 30
0.0000
 42
1.0000
  0
VERTEX
  8
25
 10
20.7070
 20
18.4557
 30
0.0000
  0
SEQEND
  8
0
  0
POLYLINE
  8
25
 66
1
 10
0.0000
 20
0.0000
 30
0.0000
 40
0.1016
 41
0.1016
 70
0
  0
VERTEX
  8
25
 10
20.6816
 20
18.6506
 30
0.0000
  0
VERTEX
  8
25
 10
20.4867
 20
18.8455
 30
0.0000
  0
SEQEND
  8
0
  0
POLYLINE
  8
25
 66
1
 10
0.0000
 20
0.0000
 30
0.0000
 40
0.0508
 41
0.0508
 70
0
  0
VERTEX
  8
25
 10
20.5047
 20
18.8635
 30
0.0000
 42
1.0000
  0
VERTEX
  8
25
 10
20.4687
 20
18.8275
 30
0.0000
  0
SEQEND
  8
0
  0
POLYLINE
  8
25
 66
1
 10
0.0000
 20
0.0000
 30
0.0000
 40
0.0508
 41
0.0508
 70
0
  0
VERTEX
  8
25
 10
20.6636
 20
18.6326
 30
0.0000
 42
1.0000
  0
VERTEX
  8
25
 10
20.6996
 20
18.6686
 30
0.0000
  0
SEQEND
  8
0
  0
POLYLINE
  8
25
 66
1
 10
0.0000
 20
0.0000
 30
0.0000
 40
0.1016
 41
0.1016
 70
0
  0
VERTEX
  8
25
 10
20.4867
 20
18.8455
 30
0.0000
  0
VERTEX
  8
25
 10
20.0969
 20
18.8455
 30
0.0000
  0
SEQEND
  8
0
  0
POLYLINE
  8
25
 66
1
 10
0.0000
 20
0.0000
 30
0.0000
 40
0.0508
 41
0.0508
 70
0
  0
VERTEX
  8
25
 10
20.0969
 20
18.8709
 30
0.0000
 42
1.0000
  0
VERTEX
  8
25
 10
20.0969
 20
18.8201
 30
0.0000
  0
SEQEND
  8
0
  0
POLYLINE
  8
25
 66
1
 10
0.0000
 20
0.0000
 30
0.0000
 40
0.0508
 41
0.0508
 70
0
  0
VERTEX
  8
25
 10
20.4867
 20
18.8201
 30
0.0000
 42
1.0000
  0
VERTEX
  8
25
 10
20.4867
 20
18.8709
 30
0.0000
  0
SEQEND
  8
0
  0
POLYLINE
  8
25
 66
1
 10
0.0000
 20
0.0000
 30
0.0000
 40
0.1016
 41
0.1016
 70
0
  0
VERTEX
  8
25
 10
20.0969
 20
18.8455
 30
0.0000
  0
VERTEX
  8
25
 10
19.9020
 20
19.0404
 30
0.0000
  0
SEQEND
  8
0
  0
POLYLINE
  8
25
 66
1
 10
0.0000
 20
0.0000
 30
0.0000
 40
0.0508
 41
0.0508
 70
0
  0
VERTEX
  8
25
 10
19.9200
 20
19.0584
 30
0.0000
 42
1.0000
  0
VERTEX
  8
25
 10
19.8840
 20
19.0224
 30
0.0000
  0
SEQEND
  8
0
  0
POLYLINE
  8
25
 66
1
 10
0.0000
 20
0.0000
 30
0.0000
 40
0.0508
 41
0.0508
 70
0
  0
VERTEX
  8
25
 10
20.0789
 20
18.8275
 30
0.0000
 42
1.0000
  0
VERTEX
  8
25
 10
20.1149
 20
18.8635
 30
0.0000
  0
SEQEND
  8
0
  0
POLYLINE
  8
25
 66
1
 10
0.0000
 20
0.0000
 30
0.0000
 40
0.1016
 41
0.1016
 70
0
  0
VERTEX
  8
25
 10
19.9020
 20
19.0404
 30
0.0000
  0
VERTEX
  8
25
 10
19.9020
 20
19.2353
 30
0.0000
  0
SEQEND
  8
0
  0
POLYLINE
  8
25
 66
1
 10
0.0000
 20
0.0000
 30
0.0000
 40
0.0508
 41
0.0508
 70
0
  0
VERTEX
  8
25
 10
19.9274
 20
19.2353
 30
0.0000
 42
1.0000
  0
VERTEX
  8
25
 10
19.8766
 20
19.2353
 30
0.0000
  0
SEQEND
  8
0
  0
POLYLINE
  8
25
 66
1
 10
0.0000
 20
0.0000
 30
0.0000
 40
0.0508
 41
0.0508
 70
0
  0
VERTEX
  8
25
 10
19.8766
 20
19.0404
 30
0.0000
 42
1.0000
  0
VERTEX
  8
25
 10
19.9274
 20
19.0404
 30
0.0000
  0
SEQEND
  8
0
  0
POLYLINE
  8
25
 66
1
 10
0.0000
 20
0.0000
 30
0.0000
 40
0.1016
 41
0.1016
 70
0
  0
VERTEX
  8
25
 10
19.9020
 20
19.2353
 30
0.0000
  0
VERTEX
  8
25
 10
20.0969
 20
19.4302
 30
0.0000
  0
SEQEND
  8
0
  0
POLYLINE
  8
25
 66
1
 10
0.0000
 20
0.0000
 30
0.0000
 40
0.0508
 41
0.0508
 70
0
  0
VERTEX
  8
25
 10
20.1149
 20
19.4122
 30
0.0000
 42
1.0000
  0
VERTEX
  8
25
 10
20.0789
 20
19.4482
 30
0.0000
  0
SEQEND
  8
0
  0
POLYLINE
  8
25
 66
1
 10
0.0000
 20
0.0000
 30
0.0000
 40
0.0508
 41
0.0508
 70
0
  0
VERTEX
  8
25
 10
19.8840
 20
19.2533
 30
0.0000
 42
1.0000
  0
VERTEX
  8
25
 10
19.9200
 20
19.2173
 30
0.0000
  0
SEQEND
  8
0
  0
POLYLINE
  8
25
 66
1
 10
0.0000
 20
0.0000
 30
0.0000
 40
0.1016
 41
0.1016
 70
0
  0
VERTEX
  8
25
 10
20.0969
 20
19.4302
 30
0.0000
  0
VERTEX
  8
25
 10
20.4867
 20
19.4302
 30
0.0000
  0
SEQEND
  8
0
  0
POLYLINE
  8
25
 66
1
 10
0.0000
 20
0.0000
 30
0.0000
 40
0.0508
 41
0.0508
 70
0
  0
VERTEX
  8
25
 10
20.4867
 20
19.4048
 30
0.0000
 42
1.0000
  0
VERTEX
  8
25
 10
20.4867
 20
19.4556
 30
0.0000
  0
SEQEND
  8
0
  0
POLYLINE
  8
25
 66
1
 10
0.0000
 20
0.0000
 30
0.0000
 40
0.0508
 41
0.0508
 70
0
  0
VERTEX
  8
25
 10
20.0969
 20
19.4556
 30
0.0000
 42
1.0000
  0
VERTEX
  8
25
 10
20.0969
 20
19.4048
 30
0.0000
  0
SEQEND
  8
0
  0
POLYLINE
  8
25
 66
1
 10
0.0000
 20
0.0000
 30
0.0000
 40
0.1016
 41
0.1016
 70
0
  0
VERTEX
  8
25
 10
20.4867
 20
19.4302
 30
0.0000
  0
VERTEX
  8
25
 10
20.6816
 20
19.2353
 30
0.0000
  0
SEQEND
  8
0
  0
POLYLINE
  8
25
 66
1
 10
0.0000
 20
0.0000
 30
0.0000
 40
0.0508
 41
0.0508
 70
0
  0
VERTEX
  8
25
 10
20.6636
 20
19.2173
 30
0.0000
 42
1.0000
  0
VERTEX
  8
25
 10
20.6996
 20
19.2533
 30
0.0000
  0
SEQEND
  8
0
  0
POLYLINE
  8
25
 66
1
 10
0.0000
 20
0.0000
 30
0.0000
 40
0.0508
 41
0.0508
 70
0
  0
VERTEX
  8
25
 10
20.5047
 20
19.4482
 30
0.0000
 42
1.0000
  0
VERTEX
  8
25
 10
20.4687
 20
19.4122
 30
0.0000
  0
SEQEND
  8
0
  0
POLYLINE
  8
25
 66
1
 10
0.0000
 20
0.0000
 30
0.0000
 40
0.1016
 41
0.1016
 70
0
  0
VERTEX
  8
25
 10
20.2918
 20
19.6251
 30
0.0000
  0
VERTEX
  8
25
 10
20.2918
 20
18.0659
 30
0.0000
  0
SEQEND
  8
0
  0
POLYLINE
  8
25
 66
1
 10
0.0000
 20
0.0000
 30
0.0000
 40
0.0508
 41
0.0508
 70
0
  0
VERTEX
  8
25
 10
20.2664
 20
18.0659
 30
0.0000
 42
1.0000
  0
VERTEX
  8
25
 10
20.3172
 20
18.0659
 30
0.0000
  0
SEQEND
  8
0
  0
POLYLINE
  8
25
 66
1
 10
0.0000
 20
0.0000
 30
0.0000
 40
0.0508
 41
0.0508
 70
0
  0
VERTEX
  8
25
 10
20.3172
 20
19.6251
 30
0.0000
 42
1.0000
  0
VERTEX
  8
25
 10
20.2664
 20
19.6251
 30
0.0000
  0
SEQEND
  8
0
  0
POLYLINE
  8
25
 66
1
 10
0.0000
 20
0.0000
 30
0.0000
 40
0.1016
 41
0.1016
 70
0
  0
VERTEX
  8
25
 10
21.0714
 20
19.0404
 30
0.0000
  0
VERTEX
  8
25
 10
21.4612
 20
19.4302
 30
0.0000
  0
SEQEND
  8
0
  0
POLYLINE
  8
25
 66
1
 10
0.0000
 20
0.0000
 30
0.0000
 40
0.0508
 41
0.0508
 70
0
  0
VERTEX
  8
25
 10
21.4792
 20
19.4122
 30
0.0000
 42
1.0000
  0
VERTEX
  8
25
 10
21.4432
 20
19.4482
 30
0.0000
  0
SEQEND
  8
0
  0
POLYLINE
  8
25
 66
1
 10
0.0000
 20
0.0000
 30
0.0000
 40
0.0508
 41
0.0508
 70
0
  0
VERTEX
  8
25
 10
21.0534
 20
19.0584
 30
0.0000
 42
1.0000
  0
VERTEX
  8
25
 10
21.0894
 20
19.0224
 30
0.0000
  0
SEQEND
  8
0
  0
POLYLINE
  8
25
 66
1
 10
0.0000
 20
0.0000
 30
0.0000
 40
0.1016
 41
0.1016
 70
0
  0
VERTEX
  8
25
 10
21.4612
 20
19.4302
 30
0.0000
  0
VERTEX
  8
25
 10
21.4612
 20
18.2608
 30
0.0000
  0
SEQEND
  8
0
  0
POLYLINE
  8
25
 66
1
 10
0.0000
 20
0.0000
 30
0.0000
 40
0.0508
 41
0.0508
 70
0
  0
VERTEX
  8
25
 10
21.4358
 20
18.2608
 30
0.0000
 42
1.0000
  0
VERTEX
  8
25
 10
21.4866
 20
18.2608
 30
0.0000
  0
SEQEND
  8
0
  0
POLYLINE
  8
25
 66
1
 10
0.0000
 20
0.0000
 30
0.0000
 40
0.0508
 41
0.0508
 70
0
  0
VERTEX
  8
25
 10
21.4866
 20
19.4302
 30
0.0000
 42
1.0000
  0
VERTEX
  8
25
 10
21.4358
 20
19.4302
 30
0.0000
  0
SEQEND
  8
0
  0
POLYLINE
  8
25
 66
1
 10
0.0000
 20
0.0000
 30
0.0000
 40
0.1016
 41
0.1016
 70
0
  0
VERTEX
  8
25
 10
21.0714
 20
18.2608
 30
0.0000
  0
VERTEX
  8
25
 10
21.8510
 20
18.2608
 30
0.0000
  0
SEQEND
  8
0
  0
POLYLINE
  8
25
 66
1
 10
0.0000
 20
0.0000
 30
0.0000
 40
0.0508
 41
0.0508
 70
0
  0
VERTEX
  8
25
 10
21.8510
 20
18.2354
 30
0.0000
 42
1.0000
  0
VERTEX
  8
25
 10
21.8510
 20
18.2862
 30
0.0000
  0
SEQEND
  8
0
  0
POLYLINE
  8
25
 66
1
 10
0.0000
 20
0.0000
 30
0.0000
 40
0.0508
 41
0.0508
 70
0
  0
VERTEX
  8
25
 10
21.0714
 20
18.2862
 30
0.0000
 42
1.0000
  0
VERTEX
  8
25
 10
21.0714
 20
18.2354
 30
0.0000
  0
SEQEND
  8
0
  0
POLYLINE
  8
27
 66
1
 10
0.0000
 20
0.0000
 30
0.0000
 40
0.1016
 41
0.1016
 70
0
  0
VERTEX
  8
27
 10
2.7508
 20
19.7257
 30
0.0000
  0
VERTEX
  8
27
 10
2.9457
 20
19.5308
 30
0.0000
  0
SEQEND
  8
0
  0
POLYLINE
  8
27
 66
1
 10
0.0000
 20
0.0000
 30
0.0000
 40
0.0508
 41
0.0508
 70
0
  0
VERTEX
  8
27
 10
2.9277
 20
19.5128
 30
0.0000
 42
1.0000
  0
VERTEX
  8
27
 10
2.9637
 20
19.5488
 30
0.0000
  0
SEQEND
  8
0
  0
POLYLINE
  8
27
 66
1
 10
0.0000
 20
0.0000
 30
0.0000
 40
0.0508
 41
0.0508
 70
0
  0
VERTEX
  8
27
 10
2.7688
 20
19.7437
 30
0.0000
 42
1.0000
  0
VERTEX
  8
27
 10
2.7328
 20
19.7077
 30
0.0000
  0
SEQEND
  8
0
  0
POLYLINE
  8
27
 66
1
 10
0.0000
 20
0.0000
 30
0.0000
 40
0.1016
 41
0.1016
 70
0
  0
VERTEX
  8
27
 10
2.9457
 20
19.5308
 30
0.0000
  0
VERTEX
  8
27
 10
3.1406
 20
19.5308
 30
0.0000
  0
SEQEND
  8
0
  0
POLYLINE
  8
27
 66
1
 10
0.0000
 20
0.0000
 30
0.0000
 40
0.0508
 41
0.0508
 70
0
  0
VERTEX
  8
27
 10
3.1406
 20
19.5054
 30
0.0000
 42
1.0000
  0
VERTEX
  8
27
 10
3.1406
 20
19.5562
 30
0.0000
  0
SEQEND
  8
0
  0
POLYLINE
  8
27
 66
1
 10
0.0000
 20
0.0000
 30
0.0000
 40
0.0508
 41
0.0508
 70
0
  0
VERTEX
  8
27
 10
2.9457
 20
19.5562
 30
0.0000
 42
1.0000
  0
VERTEX
  8
27
 10
2.9457
 20
19.5054
 30
0.0000
  0
SEQEND
  8
0
  0
POLYLINE
  8
27
 66
1
 10
0.0000
 20
0.0000
 30
0.0000
 40
0.1016
 41
0.1016
 70
0
  0
VERTEX
  8
27
 10
3.1406
 20
19.5308
 30
0.0000
  0
VERTEX
  8
27
 10
3.3355
 20
19.7257
 30
0.0000
  0
SEQEND
  8
0
  0
POLYLINE
  8
27
 66
1
 10
0.0000
 20
0.0000
 30
0.0000
 40
0.0508
 41
0.0508
 70
0
  0
VERTEX
  8
27
 10
3.3535
 20
19.7077
 30
0.0000
 42
1.0000
  0
VERTEX
  8
27
 10
3.3175
 20
19.7437
 30
0.0000
  0
SEQEND
  8
0
  0
POLYLINE
  8
27
 66
1
 10
0.0000
 20
0.0000
 30
0.0000
 40
0.0508
 41
0.0508
 70
0
  0
VERTEX
  8
27
 10
3.1226
 20
19.5488
 30
0.0000
 42
1.0000
  0
VERTEX
  8
27
 10
3.1586
 20
19.5128
 30
0.0000
  0
SEQEND
  8
0
  0
POLYLINE
  8
27
 66
1
 10
0.0000
 20
0.0000
 30
0.0000
 40
0.1016
 41
0.1016
 70
0
  0
VERTEX
  8
27
 10
3.3355
 20
19.7257
 30
0.0000
  0
VERTEX
  8
27
 10
3.3355
 20
20.7002
 30
0.0000
  0
SEQEND
  8
0
  0
POLYLINE
  8
27
 66
1
 10
0.0000
 20
0.0000
 30
0.0000
 40
0.0508
 41
0.0508
 70
0
  0
VERTEX
  8
27
 10
3.3609
 20
20.7002
 30
0.0000
 42
1.0000
  0
VERTEX
  8
27
 10
3.3101
 20
20.7002
 30
0.0000
  0
SEQEND
  8
0
  0
POLYLINE
  8
27
 66
1
 10
0.0000
 20
0.0000
 30
0.0000
 40
0.0508
 41
0.0508
 70
0
  0
VERTEX
  8
27
 10
3.3101
 20
19.7257
 30
0.0000
 42
1.0000
  0
VERTEX
  8
27
 10
3.3609
 20
19.7257
 30
0.0000
  0
SEQEND
  8
0
  0
POLYLINE
  8
27
 66
1
 10
0.0000
 20
0.0000
 30
0.0000
 40
0.1016
 41
0.1016
 70
0
  0
VERTEX
  8
27
 10
3.1406
 20
20.7002
 30
0.0000
  0
VERTEX
  8
27
 10
3.5304
 20
20.7002
 30
0.0000
  0
SEQEND
  8
0
  0
POLYLINE
  8
27
 66
1
 10
0.0000
 20
0.0000
 30
0.0000
 40
0.0508
 41
0.0508
 70
0
  0
VERTEX
  8
27
 10
3.5304
 20
20.6748
 30
0.0000
 42
1.0000
  0
VERTEX
  8
27
 10
3.5304
 20
20.7256
 30
0.0000
  0
SEQEND
  8
0
  0
POLYLINE
  8
27
 66
1
 10
0.0000
 20
0.0000
 30
0.0000
 40
0.0508
 41
0.0508
 70
0
  0
VERTEX
  8
27
 10
3.1406
 20
20.7256
 30
0.0000
 42
1.0000
  0
VERTEX
  8
27
 10
3.1406
 20
20.6748
 30
0.0000
  0
SEQEND
  8
0
  0
POLYLINE
  8
27
 66
1
 10
0.0000
 20
0.0000
 30
0.0000
 40
0.1016
 41
0.1016
 70
0
  0
VERTEX
  8
27
 10
4.5049
 20
20.7002
 30
0.0000
  0
VERTEX
  8
27
 10
4.1151
 20
20.7002
 30
0.0000
  0
SEQEND
  8
0
  0
POLYLINE
  8
27
 66
1
 10
0.0000
 20
0.0000
 30
0.0000
 40
0.0508
 41
0.0508
 70
0
  0
VERTEX
  8
27
 10
4.1151
 20
20.7256
 30
0.0000
 42
1.0000
  0
VERTEX
  8
27
 10
4.1151
 20
20.6748
 30
0.0000
  0
SEQEND
  8
0
  0
POLYLINE
  8
27
 66
1
 10
0.0000
 20
0.0000
 30
0.0000
 40
0.0508
 41
0.0508
 70
0
  0
VERTEX
  8
27
 10
4.5049
 20
20.6748
 30
0.0000
 42
1.0000
  0
VERTEX
  8
27
 10
4.5049
 20
20.7256
 30
0.0000
  0
SEQEND
  8
0
  0
POLYLINE
  8
27
 66
1
 10
0.0000
 20
0.0000
 30
0.0000
 40
0.1016
 41
0.1016
 70
0
  0
VERTEX
  8
27
 10
4.1151
 20
20.7002
 30
0.0000
  0
VERTEX
  8
27
 10
3.9202
 20
20.5053
 30
0.0000
  0
SEQEND
  8
0
  0
POLYLINE
  8
27
 66
1
 10
0.0000
 20
0.0000
 30
0.0000
 40
0.0508
 41
0.0508
 70
0
  0
VERTEX
  8
27
 10
3.9022
 20
20.5233
 30
0.0000
 42
1.0000
  0
VERTEX
  8
27
 10
3.9382
 20
20.4873
 30
0.0000
  0
SEQEND
  8
0
  0
POLYLINE
  8
27
 66
1
 10
0.0000
 20
0.0000
 30
0.0000
 40
0.0508
 41
0.0508
 70
0
  0
VERTEX
  8
27
 10
4.1331
 20
20.6822
 30
0.0000
 42
1.0000
  0
VERTEX
  8
27
 10
4.0971
 20
20.7182
 30
0.0000
  0
SEQEND
  8
0
  0
POLYLINE
  8
27
 66
1
 10
0.0000
 20
0.0000
 30
0.0000
 40
0.1016
 41
0.1016
 70
0
  0
VERTEX
  8
27
 10
3.9202
 20
20.5053
 30
0.0000
  0
VERTEX
  8
27
 10
3.9202
 20
19.7257
 30
0.0000
  0
SEQEND
  8
0
  0
POLYLINE
  8
27
 66
1
 10
0.0000
 20
0.0000
 30
0.0000
 40
0.0508
 41
0.0508
 70
0
  0
VERTEX
  8
27
 10
3.8948
 20
19.7257
 30
0.0000
 42
1.0000
  0
VERTEX
  8
27
 10
3.9456
 20
19.7257
 30
0.0000
  0
SEQEND
  8
0
  0
POLYLINE
  8
27
 66
1
 10
0.0000
 20
0.0000
 30
0.0000
 40
0.0508
 41
0.0508
 70
0
  0
VERTEX
  8
27
 10
3.9456
 20
20.5053
 30
0.0000
 42
1.0000
  0
VERTEX
  8
27
 10
3.8948
 20
20.5053
 30
0.0000
  0
SEQEND
  8
0
  0
POLYLINE
  8
27
 66
1
 10
0.0000
 20
0.0000
 30
0.0000
 40
0.1016
 41
0.1016
 70
0
  0
VERTEX
  8
27
 10
3.9202
 20
19.7257
 30
0.0000
  0
VERTEX
  8
27
 10
4.1151
 20
19.5308
 30
0.0000
  0
SEQEND
  8
0
  0
POLYLINE
  8
27
 66
1
 10
0.0000
 20
0.0000
 30
0.0000
 40
0.0508
 41
0.0508
 70
0
  0
VERTEX
  8
27
 10
4.0971
 20
19.5128
 30
0.0000
 42
1.0000
  0
VERTEX
  8
27
 10
4.1331
 20
19.5488
 30
0.0000
  0
SEQEND
  8
0
  0
POLYLINE
  8
27
 66
1
 10
0.0000
 20
0.0000
 30
0.0000
 40
0.0508
 41
0.0508
 70
0
  0
VERTEX
  8
27
 10
3.9382
 20
19.7437
 30
0.0000
 42
1.0000
  0
VERTEX
  8
27
 10
3.9022
 20
19.7077
 30
0.0000
  0
SEQEND
  8
0
  0
POLYLINE
  8
27
 66
1
 10
0.0000
 20
0.0000
 30
0.0000
 40
0.1016
 41
0.1016
 70
0
  0
VERTEX
  8
27
 10
4.1151
 20
19.5308
 30
0.0000
  0
VERTEX
  8
27
 10
4.5049
 20
19.5308
 30
0.0000
  0
SEQEND
  8
0
  0
POLYLINE
  8
27
 66
1
 10
0.0000
 20
0.0000
 30
0.0000
 40
0.0508
 41
0.0508
 70
0
  0
VERTEX
  8
27
 10
4.5049
 20
19.5054
 30
0.0000
 42
1.0000
  0
VERTEX
  8
27
 10
4.5049
 20
19.5562
 30
0.0000
  0
SEQEND
  8
0
  0
POLYLINE
  8
27
 66
1
 10
0.0000
 20
0.0000
 30
0.0000
 40
0.0508
 41
0.0508
 70
0
  0
VERTEX
  8
27
 10
4.1151
 20
19.5562
 30
0.0000
 42
1.0000
  0
VERTEX
  8
27
 10
4.1151
 20
19.5054
 30
0.0000
  0
SEQEND
  8
0
  0
POLYLINE
  8
27
 66
1
 10
0.0000
 20
0.0000
 30
0.0000
 40
0.1016
 41
0.1016
 70
0
  0
VERTEX
  8
27
 10
4.5049
 20
19.5308
 30
0.0000
  0
VERTEX
  8
27
 10
4.6998
 20
19.7257
 30
0.0000
  0
SEQEND
  8
0
  0
POLYLINE
  8
27
 66
1
 10
0.0000
 20
0.0000
 30
0.0000
 40
0.0508
 41
0.0508
 70
0
  0
VERTEX
  8
27
 10
4.7178
 20
19.7077
 30
0.0000
 42
1.0000
  0
VERTEX
  8
27
 10
4.6818
 20
19.7437
 30
0.0000
  0
SEQEND
  8
0
  0
POLYLINE
  8
27
 66
1
 10
0.0000
 20
0.0000
 30
0.0000
 40
0.0508
 41
0.0508
 70
0
  0
VERTEX
  8
27
 10
4.4869
 20
19.5488
 30
0.0000
 42
1.0000
  0
VERTEX
  8
27
 10
4.5229
 20
19.5128
 30
0.0000
  0
SEQEND
  8
0
  0
POLYLINE
  8
27
 66
1
 10
0.0000
 20
0.0000
 30
0.0000
 40
0.1016
 41
0.1016
 70
0
  0
VERTEX
  8
27
 10
4.6998
 20
19.7257
 30
0.0000
  0
VERTEX
  8
27
 10
4.6998
 20
20.5053
 30
0.0000
  0
SEQEND
  8
0
  0
POLYLINE
  8
27
 66
1
 10
0.0000
 20
0.0000
 30
0.0000
 40
0.0508
 41
0.0508
 70
0
  0
VERTEX
  8
27
 10
4.7252
 20
20.5053
 30
0.0000
 42
1.0000
  0
VERTEX
  8
27
 10
4.6744
 20
20.5053
 30
0.0000
  0
SEQEND
  8
0
  0
POLYLINE
  8
27
 66
1
 10
0.0000
 20
0.0000
 30
0.0000
 40
0.0508
 41
0.0508
 70
0
  0
VERTEX
  8
27
 10
4.6744
 20
19.7257
 30
0.0000
 42
1.0000
  0
VERTEX
  8
27
 10
4.7252
 20
19.7257
 30
0.0000
  0
SEQEND
  8
0
  0
POLYLINE
  8
27
 66
1
 10
0.0000
 20
0.0000
 30
0.0000
 40
0.1016
 41
0.1016
 70
0
  0
VERTEX
  8
27
 10
4.6998
 20
20.5053
 30
0.0000
  0
VERTEX
  8
27
 10
4.5049
 20
20.7002
 30
0.0000
  0
SEQEND
  8
0
  0
POLYLINE
  8
27
 66
1
 10
0.0000
 20
0.0000
 30
0.0000
 40
0.0508
 41
0.0508
 70
0
  0
VERTEX
  8
27
 10
4.5229
 20
20.7182
 30
0.0000
 42
1.0000
  0
VERTEX
  8
27
 10
4.4869
 20
20.6822
 30
0.0000
  0
SEQEND
  8
0
  0
POLYLINE
  8
27
 66
1
 10
0.0000
 20
0.0000
 30
0.0000
 40
0.0508
 41
0.0508
 70
0
  0
VERTEX
  8
27
 10
4.6818
 20
20.4873
 30
0.0000
 42
1.0000
  0
VERTEX
  8
27
 10
4.7178
 20
20.5233
 30
0.0000
  0
SEQEND
  8
0
  0
POLYLINE
  8
27
 66
1
 10
0.0000
 20
0.0000
 30
0.0000
 40
0.1016
 41
0.1016
 70
0
  0
VERTEX
  8
27
 10
5.0896
 20
20.7002
 30
0.0000
  0
VERTEX
  8
27
 10
5.0896
 20
20.5053
 30
0.0000
  0
SEQEND
  8
0
  0
POLYLINE
  8
27
 66
1
 10
0.0000
 20
0.0000
 30
0.0000
 40
0.0508
 41
0.0508
 70
0
  0
VERTEX
  8
27
 10
5.0642
 20
20.5053
 30
0.0000
 42
1.0000
  0
VERTEX
  8
27
 10
5.1150
 20
20.5053
 30
0.0000
  0
SEQEND
  8
0
  0
POLYLINE
  8
27
 66
1
 10
0.0000
 20
0.0000
 30
0.0000
 40
0.0508
 41
0.0508
 70
0
  0
VERTEX
  8
27
 10
5.1150
 20
20.7002
 30
0.0000
 42
1.0000
  0
VERTEX
  8
27
 10
5.0642
 20
20.7002
 30
0.0000
  0
SEQEND
  8
0
  0
POLYLINE
  8
27
 66
1
 10
0.0000
 20
0.0000
 30
0.0000
 40
0.1016
 41
0.1016
 70
0
  0
VERTEX
  8
27
 10
5.0896
 20
20.5053
 30
0.0000
  0
VERTEX
  8
27
 10
5.4794
 20
20.1155
 30
0.0000
  0
SEQEND
  8
0
  0
POLYLINE
  8
27
 66
1
 10
0.0000
 20
0.0000
 30
0.0000
 40
0.0508
 41
0.0508
 70
0
  0
VERTEX
  8
27
 10
5.4614
 20
20.0975
 30
0.0000
 42
1.0000
  0
VERTEX
  8
27
 10
5.4974
 20
20.1335
 30
0.0000
  0
SEQEND
  8
0
  0
POLYLINE
  8
27
 66
1
 10
0.0000
 20
0.0000
 30
0.0000
 40
0.0508
 41
0.0508
 70
0
  0
VERTEX
  8
27
 10
5.1076
 20
20.5233
 30
0.0000
 42
1.0000
  0
VERTEX
  8
27
 10
5.0716
 20
20.4873
 30
0.0000
  0
SEQEND
  8
0
  0
POLYLINE
  8
27
 66
1
 10
0.0000
 20
0.0000
 30
0.0000
 40
0.1016
 41
0.1016
 70
0
  0
VERTEX
  8
27
 10
5.4794
 20
20.1155
 30
0.0000
  0
VERTEX
  8
27
 10
5.8692
 20
20.5053
 30
0.0000
  0
SEQEND
  8
0
  0
POLYLINE
  8
27
 66
1
 10
0.0000
 20
0.0000
 30
0.0000
 40
0.0508
 41
0.0508
 70
0
  0
VERTEX
  8
27
 10
5.8872
 20
20.4873
 30
0.0000
 42
1.0000
  0
VERTEX
  8
27
 10
5.8512
 20
20.5233
 30
0.0000
  0
SEQEND
  8
0
  0
POLYLINE
  8
27
 66
1
 10
0.0000
 20
0.0000
 30
0.0000
 40
0.0508
 41
0.0508
 70
0
  0
VERTEX
  8
27
 10
5.4614
 20
20.1335
 30
0.0000
 42
1.0000
  0
VERTEX
  8
27
 10
5.4974
 20
20.0975
 30
0.0000
  0
SEQEND
  8
0
  0
POLYLINE
  8
27
 66
1
 10
0.0000
 20
0.0000
 30
0.0000
 40
0.1016
 41
0.1016
 70
0
  0
VERTEX
  8
27
 10
5.8692
 20
20.5053
 30
0.0000
  0
VERTEX
  8
27
 10
5.8692
 20
20.7002
 30
0.0000
  0
SEQEND
  8
0
  0
POLYLINE
  8
27
 66
1
 10
0.0000
 20
0.0000
 30
0.0000
 40
0.0508
 41
0.0508
 70
0
  0
VERTEX
  8
27
 10
5.8946
 20
20.7002
 30
0.0000
 42
1.0000
  0
VERTEX
  8
27
 10
5.8438
 20
20.7002
 30
0.0000
  0
SEQEND
  8
0
  0
POLYLINE
  8
27
 66
1
 10
0.0000
 20
0.0000
 30
0.0000
 40
0.0508
 41
0.0508
 70
0
  0
VERTEX
  8
27
 10
5.8438
 20
20.5053
 30
0.0000
 42
1.0000
  0
VERTEX
  8
27
 10
5.8946
 20
20.5053
 30
0.0000
  0
SEQEND
  8
0
  0
POLYLINE
  8
27
 66
1
 10
0.0000
 20
0.0000
 30
0.0000
 40
0.1016
 41
0.1016
 70
0
  0
VERTEX
  8
27
 10
5.4794
 20
20.1155
 30
0.0000
  0
VERTEX
  8
27
 10
5.4794
 20
19.5308
 30
0.0000
  0
SEQEND
  8
0
  0
POLYLINE
  8
27
 66
1
 10
0.0000
 20
0.0000
 30
0.0000
 40
0.0508
 41
0.0508
 70
0
  0
VERTEX
  8
27
 10
5.4540
 20
19.5308
 30
0.0000
 42
1.0000
  0
VERTEX
  8
27
 10
5.5048
 20
19.5308
 30
0.0000
  0
SEQEND
  8
0
  0
POLYLINE
  8
27
 66
1
 10
0.0000
 20
0.0000
 30
0.0000
 40
0.0508
 41
0.0508
 70
0
  0
VERTEX
  8
27
 10
5.5048
 20
20.1155
 30
0.0000
 42
1.0000
  0
VERTEX
  8
27
 10
5.4540
 20
20.1155
 30
0.0000
  0
SEQEND
  8
0
  0
POLYLINE
  8
27
 66
1
 10
0.0000
 20
0.0000
 30
0.0000
 40
0.1016
 41
0.1016
 70
0
  0
VERTEX
  8
27
 10
7.0386
 20
20.5053
 30
0.0000
  0
VERTEX
  8
27
 10
6.8437
 20
20.7002
 30
0.0000
  0
SEQEND
  8
0
  0
POLYLINE
  8
27
 66
1
 10
0.0000
 20
0.0000
 30
0.0000
 40
0.0508
 41
0.0508
 70
0
  0
VERTEX
  8
27
 10
6.8617
 20
20.7182
 30
0.0000
 42
1.0000
  0
VERTEX
  8
27
 10
6.8257
 20
20.6822
 30
0.0000
  0
SEQEND
  8
0
  0
POLYLINE
  8
27
 66
1
 10
0.0000
 20
0.0000
 30
0.0000
 40
0.0508
 41
0.0508
 70
0
  0
VERTEX
  8
27
 10
7.0206
 20
20.4873
 30
0.0000
 42
1.0000
  0
VERTEX
  8
27
 10
7.0566
 20
20.5233
 30
0.0000
  0
SEQEND
  8
0
  0
POLYLINE
  8
27
 66
1
 10
0.0000
 20
0.0000
 30
0.0000
 40
0.1016
 41
0.1016
 70
0
  0
VERTEX
  8
27
 10
6.8437
 20
20.7002
 30
0.0000
  0
VERTEX
  8
27
 10
6.4539
 20
20.7002
 30
0.0000
  0
SEQEND
  8
0
  0
POLYLINE
  8
27
 66
1
 10
0.0000
 20
0.0000
 30
0.0000
 40
0.0508
 41
0.0508
 70
0
  0
VERTEX
  8
27
 10
6.4539
 20
20.7256
 30
0.0000
 42
1.0000
  0
VERTEX
  8
27
 10
6.4539
 20
20.6748
 30
0.0000
  0
SEQEND
  8
0
  0
POLYLINE
  8
27
 66
1
 10
0.0000
 20
0.0000
 30
0.0000
 40
0.0508
 41
0.0508
 70
0
  0
VERTEX
  8
27
 10
6.8437
 20
20.6748
 30
0.0000
 42
1.0000
  0
VERTEX
  8
27
 10
6.8437
 20
20.7256
 30
0.0000
  0
SEQEND
  8
0
  0
POLYLINE
  8
27
 66
1
 10
0.0000
 20
0.0000
 30
0.0000
 40
0.1016
 41
0.1016
 70
0
  0
VERTEX
  8
27
 10
6.4539
 20
20.7002
 30
0.0000
  0
VERTEX
  8
27
 10
6.2590
 20
20.5053
 30
0.0000
  0
SEQEND
  8
0
  0
POLYLINE
  8
27
 66
1
 10
0.0000
 20
0.0000
 30
0.0000
 40
0.0508
 41
0.0508
 70
0
  0
VERTEX
  8
27
 10
6.2410
 20
20.5233
 30
0.0000
 42
1.0000
  0
VERTEX
  8
27
 10
6.2770
 20
20.4873
 30
0.0000
  0
SEQEND
  8
0
  0
POLYLINE
  8
27
 66
1
 10
0.0000
 20
0.0000
 30
0.0000
 40
0.0508
 41
0.0508
 70
0
  0
VERTEX
  8
27
 10
6.4719
 20
20.6822
 30
0.0000
 42
1.0000
  0
VERTEX
  8
27
 10
6.4359
 20
20.7182
 30
0.0000
  0
SEQEND
  8
0
  0
POLYLINE
  8
27
 66
1
 10
0.0000
 20
0.0000
 30
0.0000
 40
0.1016
 41
0.1016
 70
0
  0
VERTEX
  8
27
 10
6.2590
 20
20.5053
 30
0.0000
  0
VERTEX
  8
27
 10
6.2590
 20
20.3104
 30
0.0000
  0
SEQEND
  8
0
  0
POLYLINE
  8
27
 66
1
 10
0.0000
 20
0.0000
 30
0.0000
 40
0.0508
 41
0.0508
 70
0
  0
VERTEX
  8
27
 10
6.2336
 20
20.3104
 30
0.0000
 42
1.0000
  0
VERTEX
  8
27
 10
6.2844
 20
20.3104
 30
0.0000
  0
SEQEND
  8
0
  0
POLYLINE
  8
27
 66
1
 10
0.0000
 20
0.0000
 30
0.0000
 40
0.0508
 41
0.0508
 70
0
  0
VERTEX
  8
27
 10
6.2844
 20
20.5053
 30
0.0000
 42
1.0000
  0
VERTEX
  8
27
 10
6.2336
 20
20.5053
 30
0.0000
  0
SEQEND
  8
0
  0
POLYLINE
  8
27
 66
1
 10
0.0000
 20
0.0000
 30
0.0000
 40
0.1016
 41
0.1016
 70
0
  0
VERTEX
  8
27
 10
6.2590
 20
20.3104
 30
0.0000
  0
VERTEX
  8
27
 10
6.4539
 20
20.1155
 30
0.0000
  0
SEQEND
  8
0
  0
POLYLINE
  8
27
 66
1
 10
0.0000
 20
0.0000
 30
0.0000
 40
0.0508
 41
0.0508
 70
0
  0
VERTEX
  8
27
 10
6.4359
 20
20.0975
 30
0.0000
 42
1.0000
  0
VERTEX
  8
27
 10
6.4719
 20
20.1335
 30
0.0000
  0
SEQEND
  8
0
  0
POLYLINE
  8
27
 66
1
 10
0.0000
 20
0.0000
 30
0.0000
 40
0.0508
 41
0.0508
 70
0
  0
VERTEX
  8
27
 10
6.2770
 20
20.3284
 30
0.0000
 42
1.0000
  0
VERTEX
  8
27
 10
6.2410
 20
20.2924
 30
0.0000
  0
SEQEND
  8
0
  0
POLYLINE
  8
27
 66
1
 10
0.0000
 20
0.0000
 30
0.0000
 40
0.1016
 41
0.1016
 70
0
  0
VERTEX
  8
27
 10
6.4539
 20
20.1155
 30
0.0000
  0
VERTEX
  8
27
 10
6.8437
 20
20.1155
 30
0.0000
  0
SEQEND
  8
0
  0
POLYLINE
  8
27
 66
1
 10
0.0000
 20
0.0000
 30
0.0000
 40
0.0508
 41
0.0508
 70
0
  0
VERTEX
  8
27
 10
6.8437
 20
20.0901
 30
0.0000
 42
1.0000
  0
VERTEX
  8
27
 10
6.8437
 20
20.1409
 30
0.0000
  0
SEQEND
  8
0
  0
POLYLINE
  8
27
 66
1
 10
0.0000
 20
0.0000
 30
0.0000
 40
0.0508
 41
0.0508
 70
0
  0
VERTEX
  8
27
 10
6.4539
 20
20.1409
 30
0.0000
 42
1.0000
  0
VERTEX
  8
27
 10
6.4539
 20
20.0901
 30
0.0000
  0
SEQEND
  8
0
  0
POLYLINE
  8
27
 66
1
 10
0.0000
 20
0.0000
 30
0.0000
 40
0.1016
 41
0.1016
 70
0
  0
VERTEX
  8
27
 10
6.8437
 20
20.1155
 30
0.0000
  0
VERTEX
  8
27
 10
7.0386
 20
19.9206
 30
0.0000
  0
SEQEND
  8
0
  0
POLYLINE
  8
27
 66
1
 10
0.0000
 20
0.0000
 30
0.0000
 40
0.0508
 41
0.0508
 70
0
  0
VERTEX
  8
27
 10
7.0206
 20
19.9026
 30
0.0000
 42
1.0000
  0
VERTEX
  8
27
 10
7.0566
 20
19.9386
 30
0.0000
  0
SEQEND
  8
0
  0
POLYLINE
  8
27
 66
1
 10
0.0000
 20
0.0000
 30
0.0000
 40
0.0508
 41
0.0508
 70
0
  0
VERTEX
  8
27
 10
6.8617
 20
20.1335
 30
0.0000
 42
1.0000
  0
VERTEX
  8
27
 10
6.8257
 20
20.0975
 30
0.0000
  0
SEQEND
  8
0
  0
POLYLINE
  8
27
 66
1
 10
0.0000
 20
0.0000
 30
0.0000
 40
0.1016
 41
0.1016
 70
0
  0
VERTEX
  8
27
 10
7.0386
 20
19.9206
 30
0.0000
  0
VERTEX
  8
27
 10
7.0386
 20
19.7257
 30
0.0000
  0
SEQEND
  8
0
  0
POLYLINE
  8
27
 66
1
 10
0.0000
 20
0.0000
 30
0.0000
 40
0.0508
 41
0.0508
 70
0
  0
VERTEX
  8
27
 10
7.0132
 20
19.7257
 30
0.0000
 42
1.0000
  0
VERTEX
  8
27
 10
7.0640
 20
19.7257
 30
0.0000
  0
SEQEND
  8
0
  0
POLYLINE
  8
27
 66
1
 10
0.0000
 20
0.0000
 30
0.0000
 40
0.0508
 41
0.0508
 70
0
  0
VERTEX
  8
27
 10
7.0640
 20
19.9206
 30
0.0000
 42
1.0000
  0
VERTEX
  8
27
 10
7.0132
 20
19.9206
 30
0.0000
  0
SEQEND
  8
0
  0
POLYLINE
  8
27
 66
1
 10
0.0000
 20
0.0000
 30
0.0000
 40
0.1016
 41
0.1016
 70
0
  0
VERTEX
  8
27
 10
7.0386
 20
19.7257
 30
0.0000
  0
VERTEX
  8
27
 10
6.8437
 20
19.5308
 30
0.0000
  0
SEQEND
  8
0
  0
POLYLINE
  8
27
 66
1
 10
0.0000
 20
0.0000
 30
0.0000
 40
0.0508
 41
0.0508
 70
0
  0
VERTEX
  8
27
 10
6.8257
 20
19.5488
 30
0.0000
 42
1.0000
  0
VERTEX
  8
27
 10
6.8617
 20
19.5128
 30
0.0000
  0
SEQEND
  8
0
  0
POLYLINE
  8
27
 66
1
 10
0.0000
 20
0.0000
 30
0.0000
 40
0.0508
 41
0.0508
 70
0
  0
VERTEX
  8
27
 10
7.0566
 20
19.7077
 30
0.0000
 42
1.0000
  0
VERTEX
  8
27
 10
7.0206
 20
19.7437
 30
0.0000
  0
SEQEND
  8
0
  0
POLYLINE
  8
27
 66
1
 10
0.0000
 20
0.0000
 30
0.0000
 40
0.1016
 41
0.1016
 70
0
  0
VERTEX
  8
27
 10
6.8437
 20
19.5308
 30
0.0000
  0
VERTEX
  8
27
 10
6.4539
 20
19.5308
 30
0.0000
  0
SEQEND
  8
0
  0
POLYLINE
  8
27
 66
1
 10
0.0000
 20
0.0000
 30
0.0000
 40
0.0508
 41
0.0508
 70
0
  0
VERTEX
  8
27
 10
6.4539
 20
19.5562
 30
0.0000
 42
1.0000
  0
VERTEX
  8
27
 10
6.4539
 20
19.5054
 30
0.0000
  0
SEQEND
  8
0
  0
POLYLINE
  8
27
 66
1
 10
0.0000
 20
0.0000
 30
0.0000
 40
0.0508
 41
0.0508
 70
0
  0
VERTEX
  8
27
 10
6.8437
 20
19.5054
 30
0.0000
 42
1.0000
  0
VERTEX
  8
27
 10
6.8437
 20
19.5562
 30
0.0000
  0
SEQEND
  8
0
  0
POLYLINE
  8
27
 66
1
 10
0.0000
 20
0.0000
 30
0.0000
 40
0.1016
 41
0.1016
 70
0
  0
VERTEX
  8
27
 10
6.4539
 20
19.5308
 30
0.0000
  0
VERTEX
  8
27
 10
6.2590
 20
19.7257
 30
0.0000
  0
SEQEND
  8
0
  0
POLYLINE
  8
27
 66
1
 10
0.0000
 20
0.0000
 30
0.0000
 40
0.0508
 41
0.0508
 70
0
  0
VERTEX
  8
27
 10
6.2770
 20
19.7437
 30
0.0000
 42
1.0000
  0
VERTEX
  8
27
 10
6.2410
 20
19.7077
 30
0.0000
  0
SEQEND
  8
0
  0
POLYLINE
  8
27
 66
1
 10
0.0000
 20
0.0000
 30
0.0000
 40
0.0508
 41
0.0508
 70
0
  0
VERTEX
  8
27
 10
6.4359
 20
19.5128
 30
0.0000
 42
1.0000
  0
VERTEX
  8
27
 10
6.4719
 20
19.5488
 30
0.0000
  0
SEQEND
  8
0
  0
POLYLINE
  8
27
 66
1
 10
0.0000
 20
0.0000
 30
0.0000
 40
0.1016
 41
0.1016
 70
0
  0
VERTEX
  8
27
 10
7.8182
 20
19.5308
 30
0.0000
  0
VERTEX
  8
27
 10
7.8182
 20
20.7002
 30
0.0000
  0
SEQEND
  8
0
  0
POLYLINE
  8
27
 66
1
 10
0.0000
 20
0.0000
 30
0.0000
 40
0.0508
 41
0.0508
 70
0
  0
VERTEX
  8
27
 10
7.8436
 20
20.7002
 30
0.0000
 42
1.0000
  0
VERTEX
  8
27
 10
7.7928
 20
20.7002
 30
0.0000
  0
SEQEND
  8
0
  0
POLYLINE
  8
27
 66
1
 10
0.0000
 20
0.0000
 30
0.0000
 40
0.0508
 41
0.0508
 70
0
  0
VERTEX
  8
27
 10
7.7928
 20
19.5308
 30
0.0000
 42
1.0000
  0
VERTEX
  8
27
 10
7.8436
 20
19.5308
 30
0.0000
  0
SEQEND
  8
0
  0
POLYLINE
  8
27
 66
1
 10
0.0000
 20
0.0000
 30
0.0000
 40
0.1016
 41
0.1016
 70
0
  0
VERTEX
  8
27
 10
7.4284
 20
20.7002
 30
0.0000
  0
VERTEX
  8
27
 10
8.2080
 20
20.7002
 30
0.0000
  0
SEQEND
  8
0
  0
POLYLINE
  8
27
 66
1
 10
0.0000
 20
0.0000
 30
0.0000
 40
0.0508
 41
0.0508
 70
0
  0
VERTEX
  8
27
 10
8.2080
 20
20.6748
 30
0.0000
 42
1.0000
  0
VERTEX
  8
27
 10
8.2080
 20
20.7256
 30
0.0000
  0
SEQEND
  8
0
  0
POLYLINE
  8
27
 66
1
 10
0.0000
 20
0.0000
 30
0.0000
 40
0.0508
 41
0.0508
 70
0
  0
VERTEX
  8
27
 10
7.4284
 20
20.7256
 30
0.0000
 42
1.0000
  0
VERTEX
  8
27
 10
7.4284
 20
20.6748
 30
0.0000
  0
SEQEND
  8
0
  0
POLYLINE
  8
27
 66
1
 10
0.0000
 20
0.0000
 30
0.0000
 40
0.1016
 41
0.1016
 70
0
  0
VERTEX
  8
27
 10
8.5978
 20
19.5308
 30
0.0000
  0
VERTEX
  8
27
 10
8.9876
 20
19.5308
 30
0.0000
  0
SEQEND
  8
0
  0
POLYLINE
  8
27
 66
1
 10
0.0000
 20
0.0000
 30
0.0000
 40
0.0508
 41
0.0508
 70
0
  0
VERTEX
  8
27
 10
8.9876
 20
19.5054
 30
0.0000
 42
1.0000
  0
VERTEX
  8
27
 10
8.9876
 20
19.5562
 30
0.0000
  0
SEQEND
  8
0
  0
POLYLINE
  8
27
 66
1
 10
0.0000
 20
0.0000
 30
0.0000
 40
0.0508
 41
0.0508
 70
0
  0
VERTEX
  8
27
 10
8.5978
 20
19.5562
 30
0.0000
 42
1.0000
  0
VERTEX
  8
27
 10
8.5978
 20
19.5054
 30
0.0000
  0
SEQEND
  8
0
  0
POLYLINE
  8
27
 66
1
 10
0.0000
 20
0.0000
 30
0.0000
 40
0.1016
 41
0.1016
 70
0
  0
VERTEX
  8
27
 10
8.7927
 20
19.5308
 30
0.0000
  0
VERTEX
  8
27
 10
8.7927
 20
20.7002
 30
0.0000
  0
SEQEND
  8
0
  0
POLYLINE
  8
27
 66
1
 10
0.0000
 20
0.0000
 30
0.0000
 40
0.0508
 41
0.0508
 70
0
  0
VERTEX
  8
27
 10
8.8181
 20
20.7002
 30
0.0000
 42
1.0000
  0
VERTEX
  8
27
 10
8.7673
 20
20.7002
 30
0.0000
  0
SEQEND
  8
0
  0
POLYLINE
  8
27
 66
1
 10
0.0000
 20
0.0000
 30
0.0000
 40
0.0508
 41
0.0508
 70
0
  0
VERTEX
  8
27
 10
8.7673
 20
19.5308
 30
0.0000
 42
1.0000
  0
VERTEX
  8
27
 10
8.8181
 20
19.5308
 30
0.0000
  0
SEQEND
  8
0
  0
POLYLINE
  8
27
 66
1
 10
0.0000
 20
0.0000
 30
0.0000
 40
0.1016
 41
0.1016
 70
0
  0
VERTEX
  8
27
 10
8.5978
 20
20.7002
 30
0.0000
  0
VERTEX
  8
27
 10
8.9876
 20
20.7002
 30
0.0000
  0
SEQEND
  8
0
  0
POLYLINE
  8
27
 66
1
 10
0.0000
 20
0.0000
 30
0.0000
 40
0.0508
 41
0.0508
 70
0
  0
VERTEX
  8
27
 10
8.9876
 20
20.6748
 30
0.0000
 42
1.0000
  0
VERTEX
  8
27
 10
8.9876
 20
20.7256
 30
0.0000
  0
SEQEND
  8
0
  0
POLYLINE
  8
27
 66
1
 10
0.0000
 20
0.0000
 30
0.0000
 40
0.0508
 41
0.0508
 70
0
  0
VERTEX
  8
27
 10
8.5978
 20
20.7256
 30
0.0000
 42
1.0000
  0
VERTEX
  8
27
 10
8.5978
 20
20.6748
 30
0.0000
  0
SEQEND
  8
0
  0
POLYLINE
  8
27
 66
1
 10
0.0000
 20
0.0000
 30
0.0000
 40
0.1016
 41
0.1016
 70
0
  0
VERTEX
  8
27
 10
10.1570
 20
20.5053
 30
0.0000
  0
VERTEX
  8
27
 10
9.9621
 20
20.7002
 30
0.0000
  0
SEQEND
  8
0
  0
POLYLINE
  8
27
 66
1
 10
0.0000
 20
0.0000
 30
0.0000
 40
0.0508
 41
0.0508
 70
0
  0
VERTEX
  8
27
 10
9.9800
 20
20.7182
 30
0.0000
 42
1.0000
  0
VERTEX
  8
27
 10
9.9441
 20
20.6822
 30
0.0000
  0
SEQEND
  8
0
  0
POLYLINE
  8
27
 66
1
 10
0.0000
 20
0.0000
 30
0.0000
 40
0.0508
 41
0.0508
 70
0
  0
VERTEX
  8
27
 10
10.1390
 20
20.4873
 30
0.0000
 42
1.0000
  0
VERTEX
  8
27
 10
10.1749
 20
20.5233
 30
0.0000
  0
SEQEND
  8
0
  0
POLYLINE
  8
27
 66
1
 10
0.0000
 20
0.0000
 30
0.0000
 40
0.1016
 41
0.1016
 70
0
  0
VERTEX
  8
27
 10
9.9621
 20
20.7002
 30
0.0000
  0
VERTEX
  8
27
 10
9.5723
 20
20.7002
 30
0.0000
  0
SEQEND
  8
0
  0
POLYLINE
  8
27
 66
1
 10
0.0000
 20
0.0000
 30
0.0000
 40
0.0508
 41
0.0508
 70
0
  0
VERTEX
  8
27
 10
9.5723
 20
20.7256
 30
0.0000
 42
1.0000
  0
VERTEX
  8
27
 10
9.5723
 20
20.6748
 30
0.0000
  0
SEQEND
  8
0
  0
POLYLINE
  8
27
 66
1
 10
0.0000
 20
0.0000
 30
0.0000
 40
0.0508
 41
0.0508
 70
0
  0
VERTEX
  8
27
 10
9.9621
 20
20.6748
 30
0.0000
 42
1.0000
  0
VERTEX
  8
27
 10
9.9621
 20
20.7256
 30
0.0000
  0
SEQEND
  8
0
  0
POLYLINE
  8
27
 66
1
 10
0.0000
 20
0.0000
 30
0.0000
 40
0.1016
 41
0.1016
 70
0
  0
VERTEX
  8
27
 10
9.5723
 20
20.7002
 30
0.0000
  0
VERTEX
  8
27
 10
9.3774
 20
20.5053
 30
0.0000
  0
SEQEND
  8
0
  0
POLYLINE
  8
27
 66
1
 10
0.0000
 20
0.0000
 30
0.0000
 40
0.0508
 41
0.0508
 70
0
  0
VERTEX
  8
27
 10
9.3594
 20
20.5233
 30
0.0000
 42
1.0000
  0
VERTEX
  8
27
 10
9.3954
 20
20.4873
 30
0.0000
  0
SEQEND
  8
0
  0
POLYLINE
  8
27
 66
1
 10
0.0000
 20
0.0000
 30
0.0000
 40
0.0508
 41
0.0508
 70
0
  0
VERTEX
  8
27
 10
9.5902
 20
20.6822
 30
0.0000
 42
1.0000
  0
VERTEX
  8
27
 10
9.5543
 20
20.7182
 30
0.0000
  0
SEQEND
  8
0
  0
POLYLINE
  8
27
 66
1
 10
0.0000
 20
0.0000
 30
0.0000
 40
0.1016
 41
0.1016
 70
0
  0
VERTEX
  8
27
 10
9.3774
 20
20.5053
 30
0.0000
  0
VERTEX
  8
27
 10
9.3774
 20
19.7257
 30
0.0000
  0
SEQEND
  8
0
  0
POLYLINE
  8
27
 66
1
 10
0.0000
 20
0.0000
 30
0.0000
 40
0.0508
 41
0.0508
 70
0
  0
VERTEX
  8
27
 10
9.3520
 20
19.7257
 30
0.0000
 42
1.0000
  0
VERTEX
  8
27
 10
9.4028
 20
19.7257
 30
0.0000
  0
SEQEND
  8
0
  0
POLYLINE
  8
27
 66
1
 10
0.0000
 20
0.0000
 30
0.0000
 40
0.0508
 41
0.0508
 70
0
  0
VERTEX
  8
27
 10
9.4028
 20
20.5053
 30
0.0000
 42
1.0000
  0
VERTEX
  8
27
 10
9.3520
 20
20.5053
 30
0.0000
  0
SEQEND
  8
0
  0
POLYLINE
  8
27
 66
1
 10
0.0000
 20
0.0000
 30
0.0000
 40
0.1016
 41
0.1016
 70
0
  0
VERTEX
  8
27
 10
9.3774
 20
19.7257
 30
0.0000
  0
VERTEX
  8
27
 10
9.5723
 20
19.5308
 30
0.0000
  0
SEQEND
  8
0
  0
POLYLINE
  8
27
 66
1
 10
0.0000
 20
0.0000
 30
0.0000
 40
0.0508
 41
0.0508
 70
0
  0
VERTEX
  8
27
 10
9.5543
 20
19.5128
 30
0.0000
 42
1.0000
  0
VERTEX
  8
27
 10
9.5902
 20
19.5488
 30
0.0000
  0
SEQEND
  8
0
  0
POLYLINE
  8
27
 66
1
 10
0.0000
 20
0.0000
 30
0.0000
 40
0.0508
 41
0.0508
 70
0
  0
VERTEX
  8
27
 10
9.3954
 20
19.7437
 30
0.0000
 42
1.0000
  0
VERTEX
  8
27
 10
9.3594
 20
19.7077
 30
0.0000
  0
SEQEND
  8
0
  0
POLYLINE
  8
27
 66
1
 10
0.0000
 20
0.0000
 30
0.0000
 40
0.1016
 41
0.1016
 70
0
  0
VERTEX
  8
27
 10
9.5723
 20
19.5308
 30
0.0000
  0
VERTEX
  8
27
 10
9.9621
 20
19.5308
 30
0.0000
  0
SEQEND
  8
0
  0
POLYLINE
  8
27
 66
1
 10
0.0000
 20
0.0000
 30
0.0000
 40
0.0508
 41
0.0508
 70
0
  0
VERTEX
  8
27
 10
9.9621
 20
19.5054
 30
0.0000
 42
1.0000
  0
VERTEX
  8
27
 10
9.9621
 20
19.5562
 30
0.0000
  0
SEQEND
  8
0
  0
POLYLINE
  8
27
 66
1
 10
0.0000
 20
0.0000
 30
0.0000
 40
0.0508
 41
0.0508
 70
0
  0
VERTEX
  8
27
 10
9.5723
 20
19.5562
 30
0.0000
 42
1.0000
  0
VERTEX
  8
27
 10
9.5723
 20
19.5054
 30
0.0000
  0
SEQEND
  8
0
  0
POLYLINE
  8
27
 66
1
 10
0.0000
 20
0.0000
 30
0.0000
 40
0.1016
 41
0.1016
 70
0
  0
VERTEX
  8
27
 10
9.9621
 20
19.5308
 30
0.0000
  0
VERTEX
  8
27
 10
10.1570
 20
19.7257
 30
0.0000
  0
SEQEND
  8
0
  0
POLYLINE
  8
27
 66
1
 10
0.0000
 20
0.0000
 30
0.0000
 40
0.0508
 41
0.0508
 70
0
  0
VERTEX
  8
27
 10
10.1749
 20
19.7077
 30
0.0000
 42
1.0000
  0
VERTEX
  8
27
 10
10.1390
 20
19.7437
 30
0.0000
  0
SEQEND
  8
0
  0
POLYLINE
  8
27
 66
1
 10
0.0000
 20
0.0000
 30
0.0000
 40
0.0508
 41
0.0508
 70
0
  0
VERTEX
  8
27
 10
9.9441
 20
19.5488
 30
0.0000
 42
1.0000
  0
VERTEX
  8
27
 10
9.9800
 20
19.5128
 30
0.0000
  0
SEQEND
  8
0
  0
POLYLINE
  8
27
 66
1
 10
0.0000
 20
0.0000
 30
0.0000
 40
0.1016
 41
0.1016
 70
0
  0
VERTEX
  8
27
 10
10.5468
 20
20.7002
 30
0.0000
  0
VERTEX
  8
27
 10
10.5468
 20
19.5308
 30
0.0000
  0
SEQEND
  8
0
  0
POLYLINE
  8
27
 66
1
 10
0.0000
 20
0.0000
 30
0.0000
 40
0.0508
 41
0.0508
 70
0
  0
VERTEX
  8
27
 10
10.5214
 20
19.5308
 30
0.0000
 42
1.0000
  0
VERTEX
  8
27
 10
10.5722
 20
19.5308
 30
0.0000
  0
SEQEND
  8
0
  0
POLYLINE
  8
27
 66
1
 10
0.0000
 20
0.0000
 30
0.0000
 40
0.0508
 41
0.0508
 70
0
  0
VERTEX
  8
27
 10
10.5722
 20
20.7002
 30
0.0000
 42
1.0000
  0
VERTEX
  8
27
 10
10.5214
 20
20.7002
 30
0.0000
  0
SEQEND
  8
0
  0
POLYLINE
  8
27
 66
1
 10
0.0000
 20
0.0000
 30
0.0000
 40
0.1016
 41
0.1016
 70
0
  0
VERTEX
  8
27
 10
10.5468
 20
19.9206
 30
0.0000
  0
VERTEX
  8
27
 10
11.3264
 20
20.7002
 30
0.0000
  0
SEQEND
  8
0
  0
POLYLINE
  8
27
 66
1
 10
0.0000
 20
0.0000
 30
0.0000
 40
0.0508
 41
0.0508
 70
0
  0
VERTEX
  8
27
 10
11.3443
 20
20.6822
 30
0.0000
 42
1.0000
  0
VERTEX
  8
27
 10
11.3084
 20
20.7182
 30
0.0000
  0
SEQEND
  8
0
  0
POLYLINE
  8
27
 66
1
 10
0.0000
 20
0.0000
 30
0.0000
 40
0.0508
 41
0.0508
 70
0
  0
VERTEX
  8
27
 10
10.5288
 20
19.9386
 30
0.0000
 42
1.0000
  0
VERTEX
  8
27
 10
10.5647
 20
19.9026
 30
0.0000
  0
SEQEND
  8
0
  0
POLYLINE
  8
27
 66
1
 10
0.0000
 20
0.0000
 30
0.0000
 40
0.1016
 41
0.1016
 70
0
  0
VERTEX
  8
27
 10
10.7417
 20
20.1155
 30
0.0000
  0
VERTEX
  8
27
 10
11.3264
 20
19.5308
 30
0.0000
  0
SEQEND
  8
0
  0
POLYLINE
  8
27
 66
1
 10
0.0000
 20
0.0000
 30
0.0000
 40
0.0508
 41
0.0508
 70
0
  0
VERTEX
  8
27
 10
11.3084
 20
19.5128
 30
0.0000
 42
1.0000
  0
VERTEX
  8
27
 10
11.3443
 20
19.5488
 30
0.0000
  0
SEQEND
  8
0
  0
POLYLINE
  8
27
 66
1
 10
0.0000
 20
0.0000
 30
0.0000
 40
0.0508
 41
0.0508
 70
0
  0
VERTEX
  8
27
 10
10.7596
 20
20.1335
 30
0.0000
 42
1.0000
  0
VERTEX
  8
27
 10
10.7237
 20
20.0975
 30
0.0000
  0
SEQEND
  8
0
  0
POLYLINE
  8
27
 66
1
 10
0.0000
 20
0.0000
 30
0.0000
 40
0.1016
 41
0.1016
 70
0
  0
VERTEX
  8
27
 10
11.7162
 20
20.1155
 30
0.0000
  0
VERTEX
  8
27
 10
12.4958
 20
20.1155
 30
0.0000
  0
SEQEND
  8
0
  0
POLYLINE
  8
27
 66
1
 10
0.0000
 20
0.0000
 30
0.0000
 40
0.0508
 41
0.0508
 70
0
  0
VERTEX
  8
27
 10
12.4958
 20
20.0901
 30
0.0000
 42
1.0000
  0
VERTEX
  8
27
 10
12.4958
 20
20.1409
 30
0.0000
  0
SEQEND
  8
0
  0
POLYLINE
  8
27
 66
1
 10
0.0000
 20
0.0000
 30
0.0000
 40
0.0508
 41
0.0508
 70
0
  0
VERTEX
  8
27
 10
11.7162
 20
20.1409
 30
0.0000
 42
1.0000
  0
VERTEX
  8
27
 10
11.7162
 20
20.0901
 30
0.0000
  0
SEQEND
  8
0
  0
POLYLINE
  8
27
 66
1
 10
0.0000
 20
0.0000
 30
0.0000
 40
0.1016
 41
0.1016
 70
0
  0
VERTEX
  8
27
 10
12.8856
 20
19.5308
 30
0.0000
  0
VERTEX
  8
27
 10
12.8856
 20
20.7002
 30
0.0000
  0
SEQEND
  8
0
  0
POLYLINE
  8
27
 66
1
 10
0.0000
 20
0.0000
 30
0.0000
 40
0.0508
 41
0.0508
 70
0
  0
VERTEX
  8
27
 10
12.9110
 20
20.7002
 30
0.0000
 42
1.0000
  0
VERTEX
  8
27
 10
12.8602
 20
20.7002
 30
0.0000
  0
SEQEND
  8
0
  0
POLYLINE
  8
27
 66
1
 10
0.0000
 20
0.0000
 30
0.0000
 40
0.0508
 41
0.0508
 70
0
  0
VERTEX
  8
27
 10
12.8602
 20
19.5308
 30
0.0000
 42
1.0000
  0
VERTEX
  8
27
 10
12.9110
 20
19.5308
 30
0.0000
  0
SEQEND
  8
0
  0
POLYLINE
  8
27
 66
1
 10
0.0000
 20
0.0000
 30
0.0000
 40
0.1016
 41
0.1016
 70
0
  0
VERTEX
  8
27
 10
12.8856
 20
20.7002
 30
0.0000
  0
VERTEX
  8
27
 10
13.4703
 20
20.7002
 30
0.0000
  0
SEQEND
  8
0
  0
POLYLINE
  8
27
 66
1
 10
0.0000
 20
0.0000
 30
0.0000
 40
0.0508
 41
0.0508
 70
0
  0
VERTEX
  8
27
 10
13.4703
 20
20.6748
 30
0.0000
 42
1.0000
  0
VERTEX
  8
27
 10
13.4703
 20
20.7256
 30
0.0000
  0
SEQEND
  8
0
  0
POLYLINE
  8
27
 66
1
 10
0.0000
 20
0.0000
 30
0.0000
 40
0.0508
 41
0.0508
 70
0
  0
VERTEX
  8
27
 10
12.8856
 20
20.7256
 30
0.0000
 42
1.0000
  0
VERTEX
  8
27
 10
12.8856
 20
20.6748
 30
0.0000
  0
SEQEND
  8
0
  0
POLYLINE
  8
27
 66
1
 10
0.0000
 20
0.0000
 30
0.0000
 40
0.1016
 41
0.1016
 70
0
  0
VERTEX
  8
27
 10
13.4703
 20
20.7002
 30
0.0000
  0
VERTEX
  8
27
 10
13.6652
 20
20.5053
 30
0.0000
  0
SEQEND
  8
0
  0
POLYLINE
  8
27
 66
1
 10
0.0000
 20
0.0000
 30
0.0000
 40
0.0508
 41
0.0508
 70
0
  0
VERTEX
  8
27
 10
13.6472
 20
20.4873
 30
0.0000
 42
1.0000
  0
VERTEX
  8
27
 10
13.6831
 20
20.5233
 30
0.0000
  0
SEQEND
  8
0
  0
POLYLINE
  8
27
 66
1
 10
0.0000
 20
0.0000
 30
0.0000
 40
0.0508
 41
0.0508
 70
0
  0
VERTEX
  8
27
 10
13.4882
 20
20.7182
 30
0.0000
 42
1.0000
  0
VERTEX
  8
27
 10
13.4523
 20
20.6822
 30
0.0000
  0
SEQEND
  8
0
  0
POLYLINE
  8
27
 66
1
 10
0.0000
 20
0.0000
 30
0.0000
 40
0.1016
 41
0.1016
 70
0
  0
VERTEX
  8
27
 10
13.6652
 20
20.5053
 30
0.0000
  0
VERTEX
  8
27
 10
13.6652
 20
20.1155
 30
0.0000
  0
SEQEND
  8
0
  0
POLYLINE
  8
27
 66
1
 10
0.0000
 20
0.0000
 30
0.0000
 40
0.0508
 41
0.0508
 70
0
  0
VERTEX
  8
27
 10
13.6398
 20
20.1155
 30
0.0000
 42
1.0000
  0
VERTEX
  8
27
 10
13.6906
 20
20.1155
 30
0.0000
  0
SEQEND
  8
0
  0
POLYLINE
  8
27
 66
1
 10
0.0000
 20
0.0000
 30
0.0000
 40
0.0508
 41
0.0508
 70
0
  0
VERTEX
  8
27
 10
13.6906
 20
20.5053
 30
0.0000
 42
1.0000
  0
VERTEX
  8
27
 10
13.6398
 20
20.5053
 30
0.0000
  0
SEQEND
  8
0
  0
POLYLINE
  8
27
 66
1
 10
0.0000
 20
0.0000
 30
0.0000
 40
0.1016
 41
0.1016
 70
0
  0
VERTEX
  8
27
 10
13.6652
 20
20.1155
 30
0.0000
  0
VERTEX
  8
27
 10
13.4703
 20
19.9206
 30
0.0000
  0
SEQEND
  8
0
  0
POLYLINE
  8
27
 66
1
 10
0.0000
 20
0.0000
 30
0.0000
 40
0.0508
 41
0.0508
 70
0
  0
VERTEX
  8
27
 10
13.4523
 20
19.9386
 30
0.0000
 42
1.0000
  0
VERTEX
  8
27
 10
13.4882
 20
19.9026
 30
0.0000
  0
SEQEND
  8
0
  0
POLYLINE
  8
27
 66
1
 10
0.0000
 20
0.0000
 30
0.0000
 40
0.0508
 41
0.0508
 70
0
  0
VERTEX
  8
27
 10
13.6831
 20
20.0975
 30
0.0000
 42
1.0000
  0
VERTEX
  8
27
 10
13.6472
 20
20.1335
 30
0.0000
  0
SEQEND
  8
0
  0
POLYLINE
  8
27
 66
1
 10
0.0000
 20
0.0000
 30
0.0000
 40
0.1016
 41
0.1016
 70
0
  0
VERTEX
  8
27
 10
13.4703
 20
19.9206
 30
0.0000
  0
VERTEX
  8
27
 10
12.8856
 20
19.9206
 30
0.0000
  0
SEQEND
  8
0
  0
POLYLINE
  8
27
 66
1
 10
0.0000
 20
0.0000
 30
0.0000
 40
0.0508
 41
0.0508
 70
0
  0
VERTEX
  8
27
 10
12.8856
 20
19.9460
 30
0.0000
 42
1.0000
  0
VERTEX
  8
27
 10
12.8856
 20
19.8952
 30
0.0000
  0
SEQEND
  8
0
  0
POLYLINE
  8
27
 66
1
 10
0.0000
 20
0.0000
 30
0.0000
 40
0.0508
 41
0.0508
 70
0
  0
VERTEX
  8
27
 10
13.4703
 20
19.8952
 30
0.0000
 42
1.0000
  0
VERTEX
  8
27
 10
13.4703
 20
19.9460
 30
0.0000
  0
SEQEND
  8
0
  0
POLYLINE
  8
27
 66
1
 10
0.0000
 20
0.0000
 30
0.0000
 40
0.1016
 41
0.1016
 70
0
  0
VERTEX
  8
27
 10
14.8346
 20
20.5053
 30
0.0000
  0
VERTEX
  8
27
 10
14.6397
 20
20.7002
 30
0.0000
  0
SEQEND
  8
0
  0
POLYLINE
  8
27
 66
1
 10
0.0000
 20
0.0000
 30
0.0000
 40
0.0508
 41
0.0508
 70
0
  0
VERTEX
  8
27
 10
14.6576
 20
20.7182
 30
0.0000
 42
1.0000
  0
VERTEX
  8
27
 10
14.6217
 20
20.6822
 30
0.0000
  0
SEQEND
  8
0
  0
POLYLINE
  8
27
 66
1
 10
0.0000
 20
0.0000
 30
0.0000
 40
0.0508
 41
0.0508
 70
0
  0
VERTEX
  8
27
 10
14.8166
 20
20.4873
 30
0.0000
 42
1.0000
  0
VERTEX
  8
27
 10
14.8525
 20
20.5233
 30
0.0000
  0
SEQEND
  8
0
  0
POLYLINE
  8
27
 66
1
 10
0.0000
 20
0.0000
 30
0.0000
 40
0.1016
 41
0.1016
 70
0
  0
VERTEX
  8
27
 10
14.6397
 20
20.7002
 30
0.0000
  0
VERTEX
  8
27
 10
14.2499
 20
20.7002
 30
0.0000
  0
SEQEND
  8
0
  0
POLYLINE
  8
27
 66
1
 10
0.0000
 20
0.0000
 30
0.0000
 40
0.0508
 41
0.0508
 70
0
  0
VERTEX
  8
27
 10
14.2499
 20
20.7256
 30
0.0000
 42
1.0000
  0
VERTEX
  8
27
 10
14.2499
 20
20.6748
 30
0.0000
  0
SEQEND
  8
0
  0
POLYLINE
  8
27
 66
1
 10
0.0000
 20
0.0000
 30
0.0000
 40
0.0508
 41
0.0508
 70
0
  0
VERTEX
  8
27
 10
14.6397
 20
20.6748
 30
0.0000
 42
1.0000
  0
VERTEX
  8
27
 10
14.6397
 20
20.7256
 30
0.0000
  0
SEQEND
  8
0
  0
POLYLINE
  8
27
 66
1
 10
0.0000
 20
0.0000
 30
0.0000
 40
0.1016
 41
0.1016
 70
0
  0
VERTEX
  8
27
 10
14.2499
 20
20.7002
 30
0.0000
  0
VERTEX
  8
27
 10
14.0550
 20
20.5053
 30
0.0000
  0
SEQEND
  8
0
  0
POLYLINE
  8
27
 66
1
 10
0.0000
 20
0.0000
 30
0.0000
 40
0.0508
 41
0.0508
 70
0
  0
VERTEX
  8
27
 10
14.0370
 20
20.5233
 30
0.0000
 42
1.0000
  0
VERTEX
  8
27
 10
14.0729
 20
20.4873
 30
0.0000
  0
SEQEND
  8
0
  0
POLYLINE
  8
27
 66
1
 10
0.0000
 20
0.0000
 30
0.0000
 40
0.0508
 41
0.0508
 70
0
  0
VERTEX
  8
27
 10
14.2678
 20
20.6822
 30
0.0000
 42
1.0000
  0
VERTEX
  8
27
 10
14.2319
 20
20.7182
 30
0.0000
  0
SEQEND
  8
0
  0
POLYLINE
  8
27
 66
1
 10
0.0000
 20
0.0000
 30
0.0000
 40
0.1016
 41
0.1016
 70
0
  0
VERTEX
  8
27
 10
14.0550
 20
20.5053
 30
0.0000
  0
VERTEX
  8
27
 10
14.0550
 20
20.3104
 30
0.0000
  0
SEQEND
  8
0
  0
POLYLINE
  8
27
 66
1
 10
0.0000
 20
0.0000
 30
0.0000
 40
0.0508
 41
0.0508
 70
0
  0
VERTEX
  8
27
 10
14.0296
 20
20.3104
 30
0.0000
 42
1.0000
  0
VERTEX
  8
27
 10
14.0804
 20
20.3104
 30
0.0000
  0
SEQEND
  8
0
  0
POLYLINE
  8
27
 66
1
 10
0.0000
 20
0.0000
 30
0.0000
 40
0.0508
 41
0.0508
 70
0
  0
VERTEX
  8
27
 10
14.0804
 20
20.5053
 30
0.0000
 42
1.0000
  0
VERTEX
  8
27
 10
14.0296
 20
20.5053
 30
0.0000
  0
SEQEND
  8
0
  0
POLYLINE
  8
27
 66
1
 10
0.0000
 20
0.0000
 30
0.0000
 40
0.1016
 41
0.1016
 70
0
  0
VERTEX
  8
27
 10
14.0550
 20
20.3104
 30
0.0000
  0
VERTEX
  8
27
 10
14.2499
 20
20.1155
 30
0.0000
  0
SEQEND
  8
0
  0
POLYLINE
  8
27
 66
1
 10
0.0000
 20
0.0000
 30
0.0000
 40
0.0508
 41
0.0508
 70
0
  0
VERTEX
  8
27
 10
14.2319
 20
20.0975
 30
0.0000
 42
1.0000
  0
VERTEX
  8
27
 10
14.2678
 20
20.1335
 30
0.0000
  0
SEQEND
  8
0
  0
POLYLINE
  8
27
 66
1
 10
0.0000
 20
0.0000
 30
0.0000
 40
0.0508
 41
0.0508
 70
0
  0
VERTEX
  8
27
 10
14.0729
 20
20.3284
 30
0.0000
 42
1.0000
  0
VERTEX
  8
27
 10
14.0370
 20
20.2924
 30
0.0000
  0
SEQEND
  8
0
  0
POLYLINE
  8
27
 66
1
 10
0.0000
 20
0.0000
 30
0.0000
 40
0.1016
 41
0.1016
 70
0
  0
VERTEX
  8
27
 10
14.2499
 20
20.1155
 30
0.0000
  0
VERTEX
  8
27
 10
14.6397
 20
20.1155
 30
0.0000
  0
SEQEND
  8
0
  0
POLYLINE
  8
27
 66
1
 10
0.0000
 20
0.0000
 30
0.0000
 40
0.0508
 41
0.0508
 70
0
  0
VERTEX
  8
27
 10
14.6397
 20
20.0901
 30
0.0000
 42
1.0000
  0
VERTEX
  8
27
 10
14.6397
 20
20.1409
 30
0.0000
  0
SEQEND
  8
0
  0
POLYLINE
  8
27
 66
1
 10
0.0000
 20
0.0000
 30
0.0000
 40
0.0508
 41
0.0508
 70
0
  0
VERTEX
  8
27
 10
14.2499
 20
20.1409
 30
0.0000
 42
1.0000
  0
VERTEX
  8
27
 10
14.2499
 20
20.0901
 30
0.0000
  0
SEQEND
  8
0
  0
POLYLINE
  8
27
 66
1
 10
0.0000
 20
0.0000
 30
0.0000
 40
0.1016
 41
0.1016
 70
0
  0
VERTEX
  8
27
 10
14.6397
 20
20.1155
 30
0.0000
  0
VERTEX
  8
27
 10
14.8346
 20
19.9206
 30
0.0000
  0
SEQEND
  8
0
  0
POLYLINE
  8
27
 66
1
 10
0.0000
 20
0.0000
 30
0.0000
 40
0.0508
 41
0.0508
 70
0
  0
VERTEX
  8
27
 10
14.8166
 20
19.9026
 30
0.0000
 42
1.0000
  0
VERTEX
  8
27
 10
14.8525
 20
19.9386
 30
0.0000
  0
SEQEND
  8
0
  0
POLYLINE
  8
27
 66
1
 10
0.0000
 20
0.0000
 30
0.0000
 40
0.0508
 41
0.0508
 70
0
  0
VERTEX
  8
27
 10
14.6576
 20
20.1335
 30
0.0000
 42
1.0000
  0
VERTEX
  8
27
 10
14.6217
 20
20.0975
 30
0.0000
  0
SEQEND
  8
0
  0
POLYLINE
  8
27
 66
1
 10
0.0000
 20
0.0000
 30
0.0000
 40
0.1016
 41
0.1016
 70
0
  0
VERTEX
  8
27
 10
14.8346
 20
19.9206
 30
0.0000
  0
VERTEX
  8
27
 10
14.8346
 20
19.7257
 30
0.0000
  0
SEQEND
  8
0
  0
POLYLINE
  8
27
 66
1
 10
0.0000
 20
0.0000
 30
0.0000
 40
0.0508
 41
0.0508
 70
0
  0
VERTEX
  8
27
 10
14.8092
 20
19.7257
 30
0.0000
 42
1.0000
  0
VERTEX
  8
27
 10
14.8600
 20
19.7257
 30
0.0000
  0
SEQEND
  8
0
  0
POLYLINE
  8
27
 66
1
 10
0.0000
 20
0.0000
 30
0.0000
 40
0.0508
 41
0.0508
 70
0
  0
VERTEX
  8
27
 10
14.8600
 20
19.9206
 30
0.0000
 42
1.0000
  0
VERTEX
  8
27
 10
14.8092
 20
19.9206
 30
0.0000
  0
SEQEND
  8
0
  0
POLYLINE
  8
27
 66
1
 10
0.0000
 20
0.0000
 30
0.0000
 40
0.1016
 41
0.1016
 70
0
  0
VERTEX
  8
27
 10
14.8346
 20
19.7257
 30
0.0000
  0
VERTEX
  8
27
 10
14.6397
 20
19.5308
 30
0.0000
  0
SEQEND
  8
0
  0
POLYLINE
  8
27
 66
1
 10
0.0000
 20
0.0000
 30
0.0000
 40
0.0508
 41
0.0508
 70
0
  0
VERTEX
  8
27
 10
14.6217
 20
19.5488
 30
0.0000
 42
1.0000
  0
VERTEX
  8
27
 10
14.6576
 20
19.5128
 30
0.0000
  0
SEQEND
  8
0
  0
POLYLINE
  8
27
 66
1
 10
0.0000
 20
0.0000
 30
0.0000
 40
0.0508
 41
0.0508
 70
0
  0
VERTEX
  8
27
 10
14.8525
 20
19.7077
 30
0.0000
 42
1.0000
  0
VERTEX
  8
27
 10
14.8166
 20
19.7437
 30
0.0000
  0
SEQEND
  8
0
  0
POLYLINE
  8
27
 66
1
 10
0.0000
 20
0.0000
 30
0.0000
 40
0.1016
 41
0.1016
 70
0
  0
VERTEX
  8
27
 10
14.6397
 20
19.5308
 30
0.0000
  0
VERTEX
  8
27
 10
14.2499
 20
19.5308
 30
0.0000
  0
SEQEND
  8
0
  0
POLYLINE
  8
27
 66
1
 10
0.0000
 20
0.0000
 30
0.0000
 40
0.0508
 41
0.0508
 70
0
  0
VERTEX
  8
27
 10
14.2499
 20
19.5562
 30
0.0000
 42
1.0000
  0
VERTEX
  8
27
 10
14.2499
 20
19.5054
 30
0.0000
  0
SEQEND
  8
0
  0
POLYLINE
  8
27
 66
1
 10
0.0000
 20
0.0000
 30
0.0000
 40
0.0508
 41
0.0508
 70
0
  0
VERTEX
  8
27
 10
14.6397
 20
19.5054
 30
0.0000
 42
1.0000
  0
VERTEX
  8
27
 10
14.6397
 20
19.5562
 30
0.0000
  0
SEQEND
  8
0
  0
POLYLINE
  8
27
 66
1
 10
0.0000
 20
0.0000
 30
0.0000
 40
0.1016
 41
0.1016
 70
0
  0
VERTEX
  8
27
 10
14.2499
 20
19.5308
 30
0.0000
  0
VERTEX
  8
27
 10
14.0550
 20
19.7257
 30
0.0000
  0
SEQEND
  8
0
  0
POLYLINE
  8
27
 66
1
 10
0.0000
 20
0.0000
 30
0.0000
 40
0.0508
 41
0.0508
 70
0
  0
VERTEX
  8
27
 10
14.0729
 20
19.7437
 30
0.0000
 42
1.0000
  0
VERTEX
  8
27
 10
14.0370
 20
19.7077
 30
0.0000
  0
SEQEND
  8
0
  0
POLYLINE
  8
27
 66
1
 10
0.0000
 20
0.0000
 30
0.0000
 40
0.0508
 41
0.0508
 70
0
  0
VERTEX
  8
27
 10
14.2319
 20
19.5128
 30
0.0000
 42
1.0000
  0
VERTEX
  8
27
 10
14.2678
 20
19.5488
 30
0.0000
  0
SEQEND
  8
0
  0
POLYLINE
  8
27
 66
1
 10
0.0000
 20
0.0000
 30
0.0000
 40
0.1016
 41
0.1016
 70
0
  0
VERTEX
  8
27
 10
16.0040
 20
19.5308
 30
0.0000
  0
VERTEX
  8
27
 10
15.2244
 20
19.5308
 30
0.0000
  0
SEQEND
  8
0
  0
POLYLINE
  8
27
 66
1
 10
0.0000
 20
0.0000
 30
0.0000
 40
0.0508
 41
0.0508
 70
0
  0
VERTEX
  8
27
 10
15.2244
 20
19.5562
 30
0.0000
 42
1.0000
  0
VERTEX
  8
27
 10
15.2244
 20
19.5054
 30
0.0000
  0
SEQEND
  8
0
  0
POLYLINE
  8
27
 66
1
 10
0.0000
 20
0.0000
 30
0.0000
 40
0.0508
 41
0.0508
 70
0
  0
VERTEX
  8
27
 10
16.0040
 20
19.5054
 30
0.0000
 42
1.0000
  0
VERTEX
  8
27
 10
16.0040
 20
19.5562
 30
0.0000
  0
SEQEND
  8
0
  0
POLYLINE
  8
27
 66
1
 10
0.0000
 20
0.0000
 30
0.0000
 40
0.1016
 41
0.1016
 70
0
  0
VERTEX
  8
27
 10
15.2244
 20
19.5308
 30
0.0000
  0
VERTEX
  8
27
 10
16.0040
 20
20.3104
 30
0.0000
  0
SEQEND
  8
0
  0
POLYLINE
  8
27
 66
1
 10
0.0000
 20
0.0000
 30
0.0000
 40
0.0508
 41
0.0508
 70
0
  0
VERTEX
  8
27
 10
16.0219
 20
20.2924
 30
0.0000
 42
1.0000
  0
VERTEX
  8
27
 10
15.9860
 20
20.3284
 30
0.0000
  0
SEQEND
  8
0
  0
POLYLINE
  8
27
 66
1
 10
0.0000
 20
0.0000
 30
0.0000
 40
0.0508
 41
0.0508
 70
0
  0
VERTEX
  8
27
 10
15.2064
 20
19.5488
 30
0.0000
 42
1.0000
  0
VERTEX
  8
27
 10
15.2423
 20
19.5128
 30
0.0000
  0
SEQEND
  8
0
  0
POLYLINE
  8
27
 66
1
 10
0.0000
 20
0.0000
 30
0.0000
 40
0.1016
 41
0.1016
 70
0
  0
VERTEX
  8
27
 10
16.0040
 20
20.3104
 30
0.0000
  0
VERTEX
  8
27
 10
16.0040
 20
20.5053
 30
0.0000
  0
SEQEND
  8
0
  0
POLYLINE
  8
27
 66
1
 10
0.0000
 20
0.0000
 30
0.0000
 40
0.0508
 41
0.0508
 70
0
  0
VERTEX
  8
27
 10
16.0294
 20
20.5053
 30
0.0000
 42
1.0000
  0
VERTEX
  8
27
 10
15.9786
 20
20.5053
 30
0.0000
  0
SEQEND
  8
0
  0
POLYLINE
  8
27
 66
1
 10
0.0000
 20
0.0000
 30
0.0000
 40
0.0508
 41
0.0508
 70
0
  0
VERTEX
  8
27
 10
15.9786
 20
20.3104
 30
0.0000
 42
1.0000
  0
VERTEX
  8
27
 10
16.0294
 20
20.3104
 30
0.0000
  0
SEQEND
  8
0
  0
POLYLINE
  8
27
 66
1
 10
0.0000
 20
0.0000
 30
0.0000
 40
0.1016
 41
0.1016
 70
0
  0
VERTEX
  8
27
 10
16.0040
 20
20.5053
 30
0.0000
  0
VERTEX
  8
27
 10
15.8091
 20
20.7002
 30
0.0000
  0
SEQEND
  8
0
  0
POLYLINE
  8
27
 66
1
 10
0.0000
 20
0.0000
 30
0.0000
 40
0.0508
 41
0.0508
 70
0
  0
VERTEX
  8
27
 10
15.8270
 20
20.7182
 30
0.0000
 42
1.0000
  0
VERTEX
  8
27
 10
15.7911
 20
20.6822
 30
0.0000
  0
SEQEND
  8
0
  0
POLYLINE
  8
27
 66
1
 10
0.0000
 20
0.0000
 30
0.0000
 40
0.0508
 41
0.0508
 70
0
  0
VERTEX
  8
27
 10
15.9860
 20
20.4873
 30
0.0000
 42
1.0000
  0
VERTEX
  8
27
 10
16.0219
 20
20.5233
 30
0.0000
  0
SEQEND
  8
0
  0
POLYLINE
  8
27
 66
1
 10
0.0000
 20
0.0000
 30
0.0000
 40
0.1016
 41
0.1016
 70
0
  0
VERTEX
  8
27
 10
15.8091
 20
20.7002
 30
0.0000
  0
VERTEX
  8
27
 10
15.4193
 20
20.7002
 30
0.0000
  0
SEQEND
  8
0
  0
POLYLINE
  8
27
 66
1
 10
0.0000
 20
0.0000
 30
0.0000
 40
0.0508
 41
0.0508
 70
0
  0
VERTEX
  8
27
 10
15.4193
 20
20.7256
 30
0.0000
 42
1.0000
  0
VERTEX
  8
27
 10
15.4193
 20
20.6748
 30
0.0000
  0
SEQEND
  8
0
  0
POLYLINE
  8
27
 66
1
 10
0.0000
 20
0.0000
 30
0.0000
 40
0.0508
 41
0.0508
 70
0
  0
VERTEX
  8
27
 10
15.8091
 20
20.6748
 30
0.0000
 42
1.0000
  0
VERTEX
  8
27
 10
15.8091
 20
20.7256
 30
0.0000
  0
SEQEND
  8
0
  0
POLYLINE
  8
27
 66
1
 10
0.0000
 20
0.0000
 30
0.0000
 40
0.1016
 41
0.1016
 70
0
  0
VERTEX
  8
27
 10
15.4193
 20
20.7002
 30
0.0000
  0
VERTEX
  8
27
 10
15.2244
 20
20.5053
 30
0.0000
  0
SEQEND
  8
0
  0
POLYLINE
  8
27
 66
1
 10
0.0000
 20
0.0000
 30
0.0000
 40
0.0508
 41
0.0508
 70
0
  0
VERTEX
  8
27
 10
15.2064
 20
20.5233
 30
0.0000
 42
1.0000
  0
VERTEX
  8
27
 10
15.2423
 20
20.4873
 30
0.0000
  0
SEQEND
  8
0
  0
POLYLINE
  8
27
 66
1
 10
0.0000
 20
0.0000
 30
0.0000
 40
0.0508
 41
0.0508
 70
0
  0
VERTEX
  8
27
 10
15.4372
 20
20.6822
 30
0.0000
 42
1.0000
  0
VERTEX
  8
27
 10
15.4013
 20
20.7182
 30
0.0000
  0
SEQEND
  8
0
  0
POLYLINE
  8
27
 66
1
 10
0.0000
 20
0.0000
 30
0.0000
 40
0.1016
 41
0.1016
 70
0
  0
VERTEX
  8
27
 10
16.3938
 20
20.1155
 30
0.0000
  0
VERTEX
  8
27
 10
17.1734
 20
20.1155
 30
0.0000
  0
SEQEND
  8
0
  0
POLYLINE
  8
27
 66
1
 10
0.0000
 20
0.0000
 30
0.0000
 40
0.0508
 41
0.0508
 70
0
  0
VERTEX
  8
27
 10
17.1734
 20
20.0901
 30
0.0000
 42
1.0000
  0
VERTEX
  8
27
 10
17.1734
 20
20.1409
 30
0.0000
  0
SEQEND
  8
0
  0
POLYLINE
  8
27
 66
1
 10
0.0000
 20
0.0000
 30
0.0000
 40
0.0508
 41
0.0508
 70
0
  0
VERTEX
  8
27
 10
16.3938
 20
20.1409
 30
0.0000
 42
1.0000
  0
VERTEX
  8
27
 10
16.3938
 20
20.0901
 30
0.0000
  0
SEQEND
  8
0
  0
POLYLINE
  8
27
 66
1
 10
0.0000
 20
0.0000
 30
0.0000
 40
0.1016
 41
0.1016
 70
0
  0
VERTEX
  8
27
 10
17.5632
 20
20.7002
 30
0.0000
  0
VERTEX
  8
27
 10
17.5632
 20
19.5308
 30
0.0000
  0
SEQEND
  8
0
  0
POLYLINE
  8
27
 66
1
 10
0.0000
 20
0.0000
 30
0.0000
 40
0.0508
 41
0.0508
 70
0
  0
VERTEX
  8
27
 10
17.5378
 20
19.5308
 30
0.0000
 42
1.0000
  0
VERTEX
  8
27
 10
17.5886
 20
19.5308
 30
0.0000
  0
SEQEND
  8
0
  0
POLYLINE
  8
27
 66
1
 10
0.0000
 20
0.0000
 30
0.0000
 40
0.0508
 41
0.0508
 70
0
  0
VERTEX
  8
27
 10
17.5886
 20
20.7002
 30
0.0000
 42
1.0000
  0
VERTEX
  8
27
 10
17.5378
 20
20.7002
 30
0.0000
  0
SEQEND
  8
0
  0
POLYLINE
  8
27
 66
1
 10
0.0000
 20
0.0000
 30
0.0000
 40
0.1016
 41
0.1016
 70
0
  0
VERTEX
  8
27
 10
17.5632
 20
19.5308
 30
0.0000
  0
VERTEX
  8
27
 10
17.9530
 20
19.9206
 30
0.0000
  0
SEQEND
  8
0
  0
POLYLINE
  8
27
 66
1
 10
0.0000
 20
0.0000
 30
0.0000
 40
0.0508
 41
0.0508
 70
0
  0
VERTEX
  8
27
 10
17.9709
 20
19.9026
 30
0.0000
 42
1.0000
  0
VERTEX
  8
27
 10
17.9350
 20
19.9386
 30
0.0000
  0
SEQEND
  8
0
  0
POLYLINE
  8
27
 66
1
 10
0.0000
 20
0.0000
 30
0.0000
 40
0.0508
 41
0.0508
 70
0
  0
VERTEX
  8
27
 10
17.5452
 20
19.5488
 30
0.0000
 42
1.0000
  0
VERTEX
  8
27
 10
17.5811
 20
19.5128
 30
0.0000
  0
SEQEND
  8
0
  0
POLYLINE
  8
27
 66
1
 10
0.0000
 20
0.0000
 30
0.0000
 40
0.1016
 41
0.1016
 70
0
  0
VERTEX
  8
27
 10
17.9530
 20
19.9206
 30
0.0000
  0
VERTEX
  8
27
 10
18.3428
 20
19.5308
 30
0.0000
  0
SEQEND
  8
0
  0
POLYLINE
  8
27
 66
1
 10
0.0000
 20
0.0000
 30
0.0000
 40
0.0508
 41
0.0508
 70
0
  0
VERTEX
  8
27
 10
18.3248
 20
19.5128
 30
0.0000
 42
1.0000
  0
VERTEX
  8
27
 10
18.3607
 20
19.5488
 30
0.0000
  0
SEQEND
  8
0
  0
POLYLINE
  8
27
 66
1
 10
0.0000
 20
0.0000
 30
0.0000
 40
0.0508
 41
0.0508
 70
0
  0
VERTEX
  8
27
 10
17.9709
 20
19.9386
 30
0.0000
 42
1.0000
  0
VERTEX
  8
27
 10
17.9350
 20
19.9026
 30
0.0000
  0
SEQEND
  8
0
  0
POLYLINE
  8
27
 66
1
 10
0.0000
 20
0.0000
 30
0.0000
 40
0.1016
 41
0.1016
 70
0
  0
VERTEX
  8
27
 10
18.3428
 20
19.5308
 30
0.0000
  0
VERTEX
  8
27
 10
18.3428
 20
20.7002
 30
0.0000
  0
SEQEND
  8
0
  0
POLYLINE
  8
27
 66
1
 10
0.0000
 20
0.0000
 30
0.0000
 40
0.0508
 41
0.0508
 70
0
  0
VERTEX
  8
27
 10
18.3682
 20
20.7002
 30
0.0000
 42
1.0000
  0
VERTEX
  8
27
 10
18.3174
 20
20.7002
 30
0.0000
  0
SEQEND
  8
0
  0
POLYLINE
  8
27
 66
1
 10
0.0000
 20
0.0000
 30
0.0000
 40
0.0508
 41
0.0508
 70
0
  0
VERTEX
  8
27
 10
18.3174
 20
19.5308
 30
0.0000
 42
1.0000
  0
VERTEX
  8
27
 10
18.3682
 20
19.5308
 30
0.0000
  0
SEQEND
  8
0
  0
POLYLINE
  8
27
 66
1
 10
0.0000
 20
0.0000
 30
0.0000
 40
0.1016
 41
0.1016
 70
0
  0
VERTEX
  8
27
 10
19.5122
 20
20.5053
 30
0.0000
  0
VERTEX
  8
27
 10
19.3173
 20
20.7002
 30
0.0000
  0
SEQEND
  8
0
  0
POLYLINE
  8
27
 66
1
 10
0.0000
 20
0.0000
 30
0.0000
 40
0.0508
 41
0.0508
 70
0
  0
VERTEX
  8
27
 10
19.3352
 20
20.7182
 30
0.0000
 42
1.0000
  0
VERTEX
  8
27
 10
19.2993
 20
20.6822
 30
0.0000
  0
SEQEND
  8
0
  0
POLYLINE
  8
27
 66
1
 10
0.0000
 20
0.0000
 30
0.0000
 40
0.0508
 41
0.0508
 70
0
  0
VERTEX
  8
27
 10
19.4942
 20
20.4873
 30
0.0000
 42
1.0000
  0
VERTEX
  8
27
 10
19.5301
 20
20.5233
 30
0.0000
  0
SEQEND
  8
0
  0
POLYLINE
  8
27
 66
1
 10
0.0000
 20
0.0000
 30
0.0000
 40
0.1016
 41
0.1016
 70
0
  0
VERTEX
  8
27
 10
19.3173
 20
20.7002
 30
0.0000
  0
VERTEX
  8
27
 10
18.9275
 20
20.7002
 30
0.0000
  0
SEQEND
  8
0
  0
POLYLINE
  8
27
 66
1
 10
0.0000
 20
0.0000
 30
0.0000
 40
0.0508
 41
0.0508
 70
0
  0
VERTEX
  8
27
 10
18.9275
 20
20.7256
 30
0.0000
 42
1.0000
  0
VERTEX
  8
27
 10
18.9275
 20
20.6748
 30
0.0000
  0
SEQEND
  8
0
  0
POLYLINE
  8
27
 66
1
 10
0.0000
 20
0.0000
 30
0.0000
 40
0.0508
 41
0.0508
 70
0
  0
VERTEX
  8
27
 10
19.3173
 20
20.6748
 30
0.0000
 42
1.0000
  0
VERTEX
  8
27
 10
19.3173
 20
20.7256
 30
0.0000
  0
SEQEND
  8
0
  0
POLYLINE
  8
27
 66
1
 10
0.0000
 20
0.0000
 30
0.0000
 40
0.1016
 41
0.1016
 70
0
  0
VERTEX
  8
27
 10
18.9275
 20
20.7002
 30
0.0000
  0
VERTEX
  8
27
 10
18.7326
 20
20.5053
 30
0.0000
  0
SEQEND
  8
0
  0
POLYLINE
  8
27
 66
1
 10
0.0000
 20
0.0000
 30
0.0000
 40
0.0508
 41
0.0508
 70
0
  0
VERTEX
  8
27
 10
18.7146
 20
20.5233
 30
0.0000
 42
1.0000
  0
VERTEX
  8
27
 10
18.7505
 20
20.4873
 30
0.0000
  0
SEQEND
  8
0
  0
POLYLINE
  8
27
 66
1
 10
0.0000
 20
0.0000
 30
0.0000
 40
0.0508
 41
0.0508
 70
0
  0
VERTEX
  8
27
 10
18.9454
 20
20.6822
 30
0.0000
 42
1.0000
  0
VERTEX
  8
27
 10
18.9095
 20
20.7182
 30
0.0000
  0
SEQEND
  8
0
  0
POLYLINE
  8
27
 66
1
 10
0.0000
 20
0.0000
 30
0.0000
 40
0.1016
 41
0.1016
 70
0
  0
VERTEX
  8
27
 10
18.7326
 20
20.5053
 30
0.0000
  0
VERTEX
  8
27
 10
18.7326
 20
19.7257
 30
0.0000
  0
SEQEND
  8
0
  0
POLYLINE
  8
27
 66
1
 10
0.0000
 20
0.0000
 30
0.0000
 40
0.0508
 41
0.0508
 70
0
  0
VERTEX
  8
27
 10
18.7072
 20
19.7257
 30
0.0000
 42
1.0000
  0
VERTEX
  8
27
 10
18.7580
 20
19.7257
 30
0.0000
  0
SEQEND
  8
0
  0
POLYLINE
  8
27
 66
1
 10
0.0000
 20
0.0000
 30
0.0000
 40
0.0508
 41
0.0508
 70
0
  0
VERTEX
  8
27
 10
18.7580
 20
20.5053
 30
0.0000
 42
1.0000
  0
VERTEX
  8
27
 10
18.7072
 20
20.5053
 30
0.0000
  0
SEQEND
  8
0
  0
POLYLINE
  8
27
 66
1
 10
0.0000
 20
0.0000
 30
0.0000
 40
0.1016
 41
0.1016
 70
0
  0
VERTEX
  8
27
 10
18.7326
 20
19.7257
 30
0.0000
  0
VERTEX
  8
27
 10
18.9275
 20
19.5308
 30
0.0000
  0
SEQEND
  8
0
  0
POLYLINE
  8
27
 66
1
 10
0.0000
 20
0.0000
 30
0.0000
 40
0.0508
 41
0.0508
 70
0
  0
VERTEX
  8
27
 10
18.9095
 20
19.5128
 30
0.0000
 42
1.0000
  0
VERTEX
  8
27
 10
18.9454
 20
19.5488
 30
0.0000
  0
SEQEND
  8
0
  0
POLYLINE
  8
27
 66
1
 10
0.0000
 20
0.0000
 30
0.0000
 40
0.0508
 41
0.0508
 70
0
  0
VERTEX
  8
27
 10
18.7505
 20
19.7437
 30
0.0000
 42
1.0000
  0
VERTEX
  8
27
 10
18.7146
 20
19.7077
 30
0.0000
  0
SEQEND
  8
0
  0
POLYLINE
  8
27
 66
1
 10
0.0000
 20
0.0000
 30
0.0000
 40
0.1016
 41
0.1016
 70
0
  0
VERTEX
  8
27
 10
18.9275
 20
19.5308
 30
0.0000
  0
VERTEX
  8
27
 10
19.3173
 20
19.5308
 30
0.0000
  0
SEQEND
  8
0
  0
POLYLINE
  8
27
 66
1
 10
0.0000
 20
0.0000
 30
0.0000
 40
0.0508
 41
0.0508
 70
0
  0
VERTEX
  8
27
 10
19.3173
 20
19.5054
 30
0.0000
 42
1.0000
  0
VERTEX
  8
27
 10
19.3173
 20
19.5562
 30
0.0000
  0
SEQEND
  8
0
  0
POLYLINE
  8
27
 66
1
 10
0.0000
 20
0.0000
 30
0.0000
 40
0.0508
 41
0.0508
 70
0
  0
VERTEX
  8
27
 10
18.9275
 20
19.5562
 30
0.0000
 42
1.0000
  0
VERTEX
  8
27
 10
18.9275
 20
19.5054
 30
0.0000
  0
SEQEND
  8
0
  0
POLYLINE
  8
27
 66
1
 10
0.0000
 20
0.0000
 30
0.0000
 40
0.1016
 41
0.1016
 70
0
  0
VERTEX
  8
27
 10
19.3173
 20
19.5308
 30
0.0000
  0
VERTEX
  8
27
 10
19.5122
 20
19.7257
 30
0.0000
  0
SEQEND
  8
0
  0
POLYLINE
  8
27
 66
1
 10
0.0000
 20
0.0000
 30
0.0000
 40
0.0508
 41
0.0508
 70
0
  0
VERTEX
  8
27
 10
19.5301
 20
19.7077
 30
0.0000
 42
1.0000
  0
VERTEX
  8
27
 10
19.4942
 20
19.7437
 30
0.0000
  0
SEQEND
  8
0
  0
POLYLINE
  8
27
 66
1
 10
0.0000
 20
0.0000
 30
0.0000
 40
0.0508
 41
0.0508
 70
0
  0
VERTEX
  8
27
 10
19.2993
 20
19.5488
 30
0.0000
 42
1.0000
  0
VERTEX
  8
27
 10
19.3352
 20
19.5128
 30
0.0000
  0
SEQEND
  8
0
  0
POLYLINE
  8
27
 66
1
 10
0.0000
 20
0.0000
 30
0.0000
 40
0.1016
 41
0.1016
 70
0
  0
VERTEX
  8
27
 10
19.5122
 20
19.7257
 30
0.0000
  0
VERTEX
  8
27
 10
19.5122
 20
20.1155
 30
0.0000
  0
SEQEND
  8
0
  0
POLYLINE
  8
27
 66
1
 10
0.0000
 20
0.0000
 30
0.0000
 40
0.0508
 41
0.0508
 70
0
  0
VERTEX
  8
27
 10
19.5376
 20
20.1155
 30
0.0000
 42
1.0000
  0
VERTEX
  8
27
 10
19.4868
 20
20.1155
 30
0.0000
  0
SEQEND
  8
0
  0
POLYLINE
  8
27
 66
1
 10
0.0000
 20
0.0000
 30
0.0000
 40
0.0508
 41
0.0508
 70
0
  0
VERTEX
  8
27
 10
19.4868
 20
19.7257
 30
0.0000
 42
1.0000
  0
VERTEX
  8
27
 10
19.5376
 20
19.7257
 30
0.0000
  0
SEQEND
  8
0
  0
POLYLINE
  8
27
 66
1
 10
0.0000
 20
0.0000
 30
0.0000
 40
0.1016
 41
0.1016
 70
0
  0
VERTEX
  8
27
 10
19.5122
 20
20.1155
 30
0.0000
  0
VERTEX
  8
27
 10
19.1224
 20
20.1155
 30
0.0000
  0
SEQEND
  8
0
  0
POLYLINE
  8
27
 66
1
 10
0.0000
 20
0.0000
 30
0.0000
 40
0.0508
 41
0.0508
 70
0
  0
VERTEX
  8
27
 10
19.1224
 20
20.1409
 30
0.0000
 42
1.0000
  0
VERTEX
  8
27
 10
19.1224
 20
20.0901
 30
0.0000
  0
SEQEND
  8
0
  0
POLYLINE
  8
27
 66
1
 10
0.0000
 20
0.0000
 30
0.0000
 40
0.0508
 41
0.0508
 70
0
  0
VERTEX
  8
27
 10
19.5122
 20
20.0901
 30
0.0000
 42
1.0000
  0
VERTEX
  8
27
 10
19.5122
 20
20.1409
 30
0.0000
  0
SEQEND
  8
0
  0
POLYLINE
  8
27
 66
1
 10
0.0000
 20
0.0000
 30
0.0000
 40
0.1016
 41
0.1016
 70
0
  0
VERTEX
  8
27
 10
20.6816
 20
20.5053
 30
0.0000
  0
VERTEX
  8
27
 10
20.4867
 20
20.7002
 30
0.0000
  0
SEQEND
  8
0
  0
POLYLINE
  8
27
 66
1
 10
0.0000
 20
0.0000
 30
0.0000
 40
0.0508
 41
0.0508
 70
0
  0
VERTEX
  8
27
 10
20.5046
 20
20.7182
 30
0.0000
 42
1.0000
  0
VERTEX
  8
27
 10
20.4687
 20
20.6822
 30
0.0000
  0
SEQEND
  8
0
  0
POLYLINE
  8
27
 66
1
 10
0.0000
 20
0.0000
 30
0.0000
 40
0.0508
 41
0.0508
 70
0
  0
VERTEX
  8
27
 10
20.6636
 20
20.4873
 30
0.0000
 42
1.0000
  0
VERTEX
  8
27
 10
20.6995
 20
20.5233
 30
0.0000
  0
SEQEND
  8
0
  0
POLYLINE
  8
27
 66
1
 10
0.0000
 20
0.0000
 30
0.0000
 40
0.1016
 41
0.1016
 70
0
  0
VERTEX
  8
27
 10
20.4867
 20
20.7002
 30
0.0000
  0
VERTEX
  8
27
 10
20.0969
 20
20.7002
 30
0.0000
  0
SEQEND
  8
0
  0
POLYLINE
  8
27
 66
1
 10
0.0000
 20
0.0000
 30
0.0000
 40
0.0508
 41
0.0508
 70
0
  0
VERTEX
  8
27
 10
20.0969
 20
20.7256
 30
0.0000
 42
1.0000
  0
VERTEX
  8
27
 10
20.0969
 20
20.6748
 30
0.0000
  0
SEQEND
  8
0
  0
POLYLINE
  8
27
 66
1
 10
0.0000
 20
0.0000
 30
0.0000
 40
0.0508
 41
0.0508
 70
0
  0
VERTEX
  8
27
 10
20.4867
 20
20.6748
 30
0.0000
 42
1.0000
  0
VERTEX
  8
27
 10
20.4867
 20
20.7256
 30
0.0000
  0
SEQEND
  8
0
  0
POLYLINE
  8
27
 66
1
 10
0.0000
 20
0.0000
 30
0.0000
 40
0.1016
 41
0.1016
 70
0
  0
VERTEX
  8
27
 10
20.0969
 20
20.7002
 30
0.0000
  0
VERTEX
  8
27
 10
19.9020
 20
20.5053
 30
0.0000
  0
SEQEND
  8
0
  0
POLYLINE
  8
27
 66
1
 10
0.0000
 20
0.0000
 30
0.0000
 40
0.0508
 41
0.0508
 70
0
  0
VERTEX
  8
27
 10
19.8840
 20
20.5233
 30
0.0000
 42
1.0000
  0
VERTEX
  8
27
 10
19.9199
 20
20.4873
 30
0.0000
  0
SEQEND
  8
0
  0
POLYLINE
  8
27
 66
1
 10
0.0000
 20
0.0000
 30
0.0000
 40
0.0508
 41
0.0508
 70
0
  0
VERTEX
  8
27
 10
20.1148
 20
20.6822
 30
0.0000
 42
1.0000
  0
VERTEX
  8
27
 10
20.0789
 20
20.7182
 30
0.0000
  0
SEQEND
  8
0
  0
POLYLINE
  8
27
 66
1
 10
0.0000
 20
0.0000
 30
0.0000
 40
0.1016
 41
0.1016
 70
0
  0
VERTEX
  8
27
 10
19.9020
 20
20.5053
 30
0.0000
  0
VERTEX
  8
27
 10
19.9020
 20
19.7257
 30
0.0000
  0
SEQEND
  8
0
  0
POLYLINE
  8
27
 66
1
 10
0.0000
 20
0.0000
 30
0.0000
 40
0.0508
 41
0.0508
 70
0
  0
VERTEX
  8
27
 10
19.8766
 20
19.7257
 30
0.0000
 42
1.0000
  0
VERTEX
  8
27
 10
19.9274
 20
19.7257
 30
0.0000
  0
SEQEND
  8
0
  0
POLYLINE
  8
27
 66
1
 10
0.0000
 20
0.0000
 30
0.0000
 40
0.0508
 41
0.0508
 70
0
  0
VERTEX
  8
27
 10
19.9274
 20
20.5053
 30
0.0000
 42
1.0000
  0
VERTEX
  8
27
 10
19.8766
 20
20.5053
 30
0.0000
  0
SEQEND
  8
0
  0
POLYLINE
  8
27
 66
1
 10
0.0000
 20
0.0000
 30
0.0000
 40
0.1016
 41
0.1016
 70
0
  0
VERTEX
  8
27
 10
19.9020
 20
19.7257
 30
0.0000
  0
VERTEX
  8
27
 10
20.0969
 20
19.5308
 30
0.0000
  0
SEQEND
  8
0
  0
POLYLINE
  8
27
 66
1
 10
0.0000
 20
0.0000
 30
0.0000
 40
0.0508
 41
0.0508
 70
0
  0
VERTEX
  8
27
 10
20.0789
 20
19.5128
 30
0.0000
 42
1.0000
  0
VERTEX
  8
27
 10
20.1148
 20
19.5488
 30
0.0000
  0
SEQEND
  8
0
  0
POLYLINE
  8
27
 66
1
 10
0.0000
 20
0.0000
 30
0.0000
 40
0.0508
 41
0.0508
 70
0
  0
VERTEX
  8
27
 10
19.9199
 20
19.7437
 30
0.0000
 42
1.0000
  0
VERTEX
  8
27
 10
19.8840
 20
19.7077
 30
0.0000
  0
SEQEND
  8
0
  0
POLYLINE
  8
27
 66
1
 10
0.0000
 20
0.0000
 30
0.0000
 40
0.1016
 41
0.1016
 70
0
  0
VERTEX
  8
27
 10
20.0969
 20
19.5308
 30
0.0000
  0
VERTEX
  8
27
 10
20.4867
 20
19.5308
 30
0.0000
  0
SEQEND
  8
0
  0
POLYLINE
  8
27
 66
1
 10
0.0000
 20
0.0000
 30
0.0000
 40
0.0508
 41
0.0508
 70
0
  0
VERTEX
  8
27
 10
20.4867
 20
19.5054
 30
0.0000
 42
1.0000
  0
VERTEX
  8
27
 10
20.4867
 20
19.5562
 30
0.0000
  0
SEQEND
  8
0
  0
POLYLINE
  8
27
 66
1
 10
0.0000
 20
0.0000
 30
0.0000
 40
0.0508
 41
0.0508
 70
0
  0
VERTEX
  8
27
 10
20.0969
 20
19.5562
 30
0.0000
 42
1.0000
  0
VERTEX
  8
27
 10
20.0969
 20
19.5054
 30
0.0000
  0
SEQEND
  8
0
  0
POLYLINE
  8
27
 66
1
 10
0.0000
 20
0.0000
 30
0.0000
 40
0.1016
 41
0.1016
 70
0
  0
VERTEX
  8
27
 10
20.4867
 20
19.5308
 30
0.0000
  0
VERTEX
  8
27
 10
20.6816
 20
19.7257
 30
0.0000
  0
SEQEND
  8
0
  0
POLYLINE
  8
27
 66
1
 10
0.0000
 20
0.0000
 30
0.0000
 40
0.0508
 41
0.0508
 70
0
  0
VERTEX
  8
27
 10
20.6995
 20
19.7077
 30
0.0000
 42
1.0000
  0
VERTEX
  8
27
 10
20.6636
 20
19.7437
 30
0.0000
  0
SEQEND
  8
0
  0
POLYLINE
  8
27
 66
1
 10
0.0000
 20
0.0000
 30
0.0000
 40
0.0508
 41
0.0508
 70
0
  0
VERTEX
  8
27
 10
20.4687
 20
19.5488
 30
0.0000
 42
1.0000
  0
VERTEX
  8
27
 10
20.5046
 20
19.5128
 30
0.0000
  0
SEQEND
  8
0
  0
POLYLINE
  8
27
 66
1
 10
0.0000
 20
0.0000
 30
0.0000
 40
0.1016
 41
0.1016
 70
0
  0
VERTEX
  8
27
 10
21.0714
 20
20.7002
 30
0.0000
  0
VERTEX
  8
27
 10
21.0714
 20
19.5308
 30
0.0000
  0
SEQEND
  8
0
  0
POLYLINE
  8
27
 66
1
 10
0.0000
 20
0.0000
 30
0.0000
 40
0.0508
 41
0.0508
 70
0
  0
VERTEX
  8
27
 10
21.0460
 20
19.5308
 30
0.0000
 42
1.0000
  0
VERTEX
  8
27
 10
21.0968
 20
19.5308
 30
0.0000
  0
SEQEND
  8
0
  0
POLYLINE
  8
27
 66
1
 10
0.0000
 20
0.0000
 30
0.0000
 40
0.0508
 41
0.0508
 70
0
  0
VERTEX
  8
27
 10
21.0968
 20
20.7002
 30
0.0000
 42
1.0000
  0
VERTEX
  8
27
 10
21.0460
 20
20.7002
 30
0.0000
  0
SEQEND
  8
0
  0
POLYLINE
  8
27
 66
1
 10
0.0000
 20
0.0000
 30
0.0000
 40
0.1016
 41
0.1016
 70
0
  0
VERTEX
  8
27
 10
21.0714
 20
19.5308
 30
0.0000
  0
VERTEX
  8
27
 10
21.6561
 20
19.5308
 30
0.0000
  0
SEQEND
  8
0
  0
POLYLINE
  8
27
 66
1
 10
0.0000
 20
0.0000
 30
0.0000
 40
0.0508
 41
0.0508
 70
0
  0
VERTEX
  8
27
 10
21.6561
 20
19.5054
 30
0.0000
 42
1.0000
  0
VERTEX
  8
27
 10
21.6561
 20
19.5562
 30
0.0000
  0
SEQEND
  8
0
  0
POLYLINE
  8
27
 66
1
 10
0.0000
 20
0.0000
 30
0.0000
 40
0.0508
 41
0.0508
 70
0
  0
VERTEX
  8
27
 10
21.0714
 20
19.5562
 30
0.0000
 42
1.0000
  0
VERTEX
  8
27
 10
21.0714
 20
19.5054
 30
0.0000
  0
SEQEND
  8
0
  0
POLYLINE
  8
27
 66
1
 10
0.0000
 20
0.0000
 30
0.0000
 40
0.1016
 41
0.1016
 70
0
  0
VERTEX
  8
27
 10
21.6561
 20
19.5308
 30
0.0000
  0
VERTEX
  8
27
 10
21.8510
 20
19.7257
 30
0.0000
  0
SEQEND
  8
0
  0
POLYLINE
  8
27
 66
1
 10
0.0000
 20
0.0000
 30
0.0000
 40
0.0508
 41
0.0508
 70
0
  0
VERTEX
  8
27
 10
21.8689
 20
19.7077
 30
0.0000
 42
1.0000
  0
VERTEX
  8
27
 10
21.8330
 20
19.7437
 30
0.0000
  0
SEQEND
  8
0
  0
POLYLINE
  8
27
 66
1
 10
0.0000
 20
0.0000
 30
0.0000
 40
0.0508
 41
0.0508
 70
0
  0
VERTEX
  8
27
 10
21.6381
 20
19.5488
 30
0.0000
 42
1.0000
  0
VERTEX
  8
27
 10
21.6740
 20
19.5128
 30
0.0000
  0
SEQEND
  8
0
  0
POLYLINE
  8
27
 66
1
 10
0.0000
 20
0.0000
 30
0.0000
 40
0.1016
 41
0.1016
 70
0
  0
VERTEX
  8
27
 10
21.8510
 20
19.7257
 30
0.0000
  0
VERTEX
  8
27
 10
21.8510
 20
20.5053
 30
0.0000
  0
SEQEND
  8
0
  0
POLYLINE
  8
27
 66
1
 10
0.0000
 20
0.0000
 30
0.0000
 40
0.0508
 41
0.0508
 70
0
  0
VERTEX
  8
27
 10
21.8764
 20
20.5053
 30
0.0000
 42
1.0000
  0
VERTEX
  8
27
 10
21.8256
 20
20.5053
 30
0.0000
  0
SEQEND
  8
0
  0
POLYLINE
  8
27
 66
1
 10
0.0000
 20
0.0000
 30
0.0000
 40
0.0508
 41
0.0508
 70
0
  0
VERTEX
  8
27
 10
21.8256
 20
19.7257
 30
0.0000
 42
1.0000
  0
VERTEX
  8
27
 10
21.8764
 20
19.7257
 30
0.0000
  0
SEQEND
  8
0
  0
POLYLINE
  8
27
 66
1
 10
0.0000
 20
0.0000
 30
0.0000
 40
0.1016
 41
0.1016
 70
0
  0
VERTEX
  8
27
 10
21.8510
 20
20.5053
 30
0.0000
  0
VERTEX
  8
27
 10
21.6561
 20
20.7002
 30
0.0000
  0
SEQEND
  8
0
  0
POLYLINE
  8
27
 66
1
 10
0.0000
 20
0.0000
 30
0.0000
 40
0.0508
 41
0.0508
 70
0
  0
VERTEX
  8
27
 10
21.6740
 20
20.7182
 30
0.0000
 42
1.0000
  0
VERTEX
  8
27
 10
21.6381
 20
20.6822
 30
0.0000
  0
SEQEND
  8
0
  0
POLYLINE
  8
27
 66
1
 10
0.0000
 20
0.0000
 30
0.0000
 40
0.0508
 41
0.0508
 70
0
  0
VERTEX
  8
27
 10
21.8330
 20
20.4873
 30
0.0000
 42
1.0000
  0
VERTEX
  8
27
 10
21.8689
 20
20.5233
 30
0.0000
  0
SEQEND
  8
0
  0
POLYLINE
  8
27
 66
1
 10
0.0000
 20
0.0000
 30
0.0000
 40
0.1016
 41
0.1016
 70
0
  0
VERTEX
  8
27
 10
21.6561
 20
20.7002
 30
0.0000
  0
VERTEX
  8
27
 10
21.0714
 20
20.7002
 30
0.0000
  0
SEQEND
  8
0
  0
POLYLINE
  8
27
 66
1
 10
0.0000
 20
0.0000
 30
0.0000
 40
0.0508
 41
0.0508
 70
0
  0
VERTEX
  8
27
 10
21.0714
 20
20.7256
 30
0.0000
 42
1.0000
  0
VERTEX
  8
27
 10
21.0714
 20
20.6748
 30
0.0000
  0
SEQEND
  8
0
  0
POLYLINE
  8
27
 66
1
 10
0.0000
 20
0.0000
 30
0.0000
 40
0.0508
 41
0.0508
 70
0
  0
VERTEX
  8
27
 10
21.6561
 20
20.6748
 30
0.0000
 42
1.0000
  0
VERTEX
  8
27
 10
21.6561
 20
20.7256
 30
0.0000
  0
SEQEND
  8
0
  0
POLYLINE
  8
21
 66
1
 10
0.0000
 20
0.0000
 30
0.0000
 40
0.2032
 41
0.2032
 70
0
  0
VERTEX
  8
21
 10
17.1100
 20
13.7650
 30
0.0000
 42
1.0000
  0
VERTEX
  8
21
 10
17.1100
 20
15.0350
 30
0.0000
 42
1.0000
  0
VERTEX
  8
21
 10
17.1100
 20
13.7650
 30
0.0000
  0
SEQEND
  8
0
  0
POLYLINE
  8
51
 66
1
 10
0.0000
 20
0.0000
 30
0.0000
 40
0.2032
 41
0.2032
 70
0
  0
VERTEX
  8
51
 10
17.1100
 20
1.7000
 30
0.0000
 42
1.0000
  0
VERTEX
  8
51
 10
17.1100
 20
27.1000
 30
0.0000
 42
1.0000
  0
VERTEX
  8
51
 10
17.1100
 20
1.7000
 30
0.0000
  0
SEQEND
  8
0
  0
POLYLINE
  8
51
 66
1
 10
0.0000
 20
0.0000
 30
0.0000
 40
0.1270
 41
0.1270
 70
0
  0
VERTEX
  8
51
 10
17.0100
 20
-0.6083
 30
0.0000
 42
1.0000
  0
VERTEX
  8
51
 10
17.0100
 20
29.4083
 30
0.0000
 42
1.0000
  0
VERTEX
  8
51
 10
17.0100
 20
-0.6083
 30
0.0000
  0
SEQEND
  8
0
  0
CIRCLE
  8
20
 10
31.4000
 20
2.8000
 30
0.0000
 40
1.5000
  0
CIRCLE
  8
20
 10
31.4000
 20
23.3000
 30
0.0000
 40
1.5000
  0
CIRCLE
  8
20
 10
3.4000
 20
2.8000
 30
0.0000
 40
1.5000
  0
CIRCLE
  8
20
 10
3.4000
 20
23.3000
 30
0.0000
 40
1.5000
  0
INSERT
  8
17
  2
SQUAREP
 10
0.9700
 20
16.0400
 30
0.0000
 41
1.1080
 42
1.1080
 43
1.0000
 50
0.0000
  0
INSERT
  8
17
  2
SQUAREP
 10
0.9700
 20
16.0400
 30
0.0000
 41
1.1080
 42
1.1080
 43
1.0000
 50
0.0000
  0
INSERT
  8
17
  2
SQUAREP
 10
0.9700
 20
18.5800
 30
0.0000
 41
1.1080
 42
1.1080
 43
1.0000
 50
0.0000
  0
INSERT
  8
17
  2
SQUAREP
 10
0.9700
 20
18.5800
 30
0.0000
 41
1.1080
 42
1.1080
 43
1.0000
 50
0.0000
  0
INSERT
  8
17
  2
ROUNDP
 10
24.7300
 20
7.7325
 30
0.0000
 41
2.5400
 42
2.5400
 43
1.0000
 50
180.0000
  0
INSERT
  8
17
  2
ROUNDP
 10
24.7300
 20
7.7325
 30
0.0000
 41
2.5400
 42
2.5400
 43
1.0000
 50
180.0000
  0
INSERT
  8
17
  2
ROUNDP
 10
24.7300
 20
21.0675
 30
0.0000
 41
2.5400
 42
2.5400
 43
1.0000
 50
180.0000
  0
INSERT
  8
17
  2
ROUNDP
 10
24.7300
 20
21.0675
 30
0.0000
 41
2.5400
 42
2.5400
 43
1.0000
 50
180.0000
  0
INSERT
  8
17
  2
ROUNDP
 10
9.4900
 20
21.0675
 30
0.0000
 41
2.5400
 42
2.5400
 43
1.0000
 50
180.0000
  0
INSERT
  8
17
  2
ROUNDP
 10
9.4900
 20
21.0675
 30
0.0000
 41
2.5400
 42
2.5400
 43
1.0000
 50
180.0000
  0
INSERT
  8
17
  2
ROUNDP
 10
9.4900
 20
7.7325
 30
0.0000
 41
2.5400
 42
2.5400
 43
1.0000
 50
180.0000
  0
INSERT
  8
17
  2
ROUNDP
 10
9.4900
 20
7.7325
 30
0.0000
 41
2.5400
 42
2.5400
 43
1.0000
 50
180.0000
  0
INSERT
  8
17
  2
SQUAREP
 10
0.9700
 20
8.4200
 30
0.0000
 41
1.1080
 42
1.1080
 43
1.0000
 50
0.0000
  0
INSERT
  8
17
  2
SQUAREP
 10
0.9700
 20
8.4200
 30
0.0000
 41
1.1080
 42
1.1080
 43
1.0000
 50
0.0000
  0
INSERT
  8
17
  2
SQUAREP
 10
0.9700
 20
13.5000
 30
0.0000
 41
1.1080
 42
1.1080
 43
1.0000
 50
0.0000
  0
INSERT
  8
17
  2
SQUAREP
 10
0.9700
 20
13.5000
 30
0.0000
 41
1.1080
 42
1.1080
 43
1.0000
 50
0.0000
  0
INSERT
  8
17
  2
SQUAREP
 10
0.9700
 20
10.9600
 30
0.0000
 41
1.1080
 42
1.1080
 43
1.0000
 50
0.0000
  0
INSERT
  8
17
  2
SQUAREP
 10
0.9700
 20
10.9600
 30
0.0000
 41
1.1080
 42
1.1080
 43
1.0000
 50
0.0000
  0
ENDSEC
  0
EOF
