  0
SECTION
  2
HEADER
  9
$ACADVER
  1
AC1009
  9
$DWGCODEPAGE
  3
mac-roman
  9
$INSBASE
 10
0.0
 20
0.0
 30
0.0
  9
$EXTMIN
 10
-1356.244820240326
 20
-856.5000000000002
 30
0.0
  9
$EXTMAX
 10
-1057.244820240326
 20
-466.9999999999999
 30
0.0
  9
$LIMMIN
 10
0.0
 20
0.0
  9
$LIMMAX
 10
12.0
 20
9.0
  9
$ORTHOMODE
 70
     0
  9
$REGENMODE
 70
     1
  9
$FILLMODE
 70
     1
  9
$QTEXTMODE
 70
     0
  9
$MIRRTEXT
 70
     1
  9
$DRAGMODE
 70
     2
  9
$LTSCALE
 40
1.0
  9
$OSMODE
 70
    37
  9
$ATTMODE
 70
     1
  9
$TEXTSIZE
 40
0.2
  9
$TRACEWID
 40
0.05
  9
$TEXTSTYLE
  7
STANDARD
  9
$CLAYER
  8
0
  9
$CELTYPE
  6
BYLAYER
  9
$CECOLOR
 62
   256
  9
$DIMSCALE
 40
1.0
  9
$DIMASZ
 40
0.18
  9
$DIMEXO
 40
0.0625
  9
$DIMDLI
 40
0.38
  9
$DIMRND
 40
0.0
  9
$DIMDLE
 40
0.0
  9
$DIMEXE
 40
0.18
  9
$DIMTP
 40
0.0
  9
$DIMTM
 40
0.0
  9
$DIMTXT
 40
0.18
  9
$DIMCEN
 40
0.09
  9
$DIMTSZ
 40
0.0
  9
$DIMTOL
 70
     0
  9
$DIMLIM
 70
     0
  9
$DIMTIH
 70
     1
  9
$DIMTOH
 70
     1
  9
$DIMSE1
 70
     0
  9
$DIMSE2
 70
     0
  9
$DIMTAD
 70
     0
  9
$DIMZIN
 70
     0
  9
$DIMBLK
  1

  9
$DIMASO
 70
     1
  9
$DIMSHO
 70
     1
  9
$DIMPOST
  1

  9
$DIMAPOST
  1

  9
$DIMALT
 70
     0
  9
$DIMALTD
 70
     2
  9
$DIMALTF
 40
25.4
  9
$DIMLFAC
 40
1.0
  9
$DIMTOFL
 70
     0
  9
$DIMTVP
 40
0.0
  9
$DIMTIX
 70
     0
  9
$DIMSOXD
 70
     0
  9
$DIMSAH
 70
     0
  9
$DIMBLK1
  1

  9
$DIMBLK2
  1

  9
$DIMSTYLE
  2
STANDARD
  9
$DIMCLRD
 70
     0
  9
$DIMCLRE
 70
     0
  9
$DIMCLRT
 70
     0
  9
$DIMTFAC
 40
1.0
  9
$DIMGAP
 40
0.09
  9
$LUNITS
 70
     2
  9
$LUPREC
 70
     3
  9
$SKETCHINC
 40
0.1
  9
$FILLETRAD
 40
0.5
  9
$AUNITS
 70
     0
  9
$AUPREC
 70
     0
  9
$MENU
  1
.
  9
$ELEVATION
 40
0.0
  9
$PELEVATION
 40
0.0
  9
$THICKNESS
 40
0.0
  9
$LIMCHECK
 70
     0
  9
$CHAMFERA
 40
0.0
  9
$CHAMFERB
 40
0.0
  9
$SKPOLY
 70
     0
  9
$TDCREATE
 40
2457967.721412037
  9
$TDUPDATE
 40
2457967.721423611
  9
$TDINDWG
 40
0.0000000116
  9
$TDUSRTIMER
 40
0.0000000116
  9
$USRTIMER
 70
     1
  9
$ANGBASE
 50
0.0
  9
$ANGDIR
 70
     0
  9
$PDMODE
 70
     0
  9
$PDSIZE
 40
0.0
  9
$PLINEWID
 40
0.0
  9
$COORDS
 70
     1
  9
$SPLFRAME
 70
     0
  9
$SPLINETYPE
 70
     6
  9
$SPLINESEGS
 70
     8
  9
$ATTDIA
 70
     0
  9
$ATTREQ
 70
     1
  9
$HANDLING
 70
     1
  9
$HANDSEED
  5
AC
  9
$SURFTAB1
 70
     6
  9
$SURFTAB2
 70
     6
  9
$SURFTYPE
 70
     6
  9
$SURFU
 70
     6
  9
$SURFV
 70
     6
  9
$UCSNAME
  2

  9
$UCSORG
 10
0.0
 20
0.0
 30
0.0
  9
$UCSXDIR
 10
1.0
 20
0.0
 30
0.0
  9
$UCSYDIR
 10
0.0
 20
1.0
 30
0.0
  9
$PUCSNAME
  2

  9
$PUCSORG
 10
0.0
 20
0.0
 30
0.0
  9
$PUCSXDIR
 10
1.0
 20
0.0
 30
0.0
  9
$PUCSYDIR
 10
0.0
 20
1.0
 30
0.0
  9
$USERI1
 70
     0
  9
$USERI2
 70
     0
  9
$USERI3
 70
     0
  9
$USERI4
 70
     0
  9
$USERI5
 70
     0
  9
$USERR1
 40
0.0
  9
$USERR2
 40
0.0
  9
$USERR3
 40
0.0
  9
$USERR4
 40
0.0
  9
$USERR5
 40
0.0
  9
$WORLDVIEW
 70
     1
  9
$SHADEDGE
 70
     3
  9
$SHADEDIF
 70
    70
  9
$TILEMODE
 70
     1
  9
$MAXACTVP
 70
    64
  9
$PLIMCHECK
 70
     0
  9
$PEXTMIN
 10
1.000000000000000E+20
 20
1.000000000000000E+20
 30
1.000000000000000E+20
  9
$PEXTMAX
 10
-1.000000000000000E+20
 20
-1.000000000000000E+20
 30
-1.000000000000000E+20
  9
$PLIMMIN
 10
0.0
 20
0.0
  9
$PLIMMAX
 10
12.0
 20
9.0
  9
$UNITMODE
 70
     0
  9
$VISRETAIN
 70
     1
  9
$PLINEGEN
 70
     0
  9
$PSLTSCALE
 70
     1
  0
ENDSEC
  0
SECTION
  2
TABLES
  0
TABLE
  2
VPORT
 70
     1
  0
VPORT
  2
*ACTIVE
 70
     0
 10
0.0
 20
0.0
 11
1.0
 21
1.0
 12
-1206.744820240326
 22
-661.7500000000001
 13
0.0
 23
0.0
 14
0.5
 24
0.5
 15
0.5
 25
0.5
 16
0.0
 26
0.0
 36
1.0
 17
0.0
 27
0.0
 37
0.0
 40
397.2900000000002
 41
0.7676508344030805
 42
50.0
 43
0.0
 44
0.0
 50
0.0
 51
0.0
 71
     0
 72
   100
 73
     1
 74
     3
 75
     0
 76
     0
 77
     0
 78
     0
  0
ENDTAB
  0
TABLE
  2
LTYPE
 70
     1
  0
LTYPE
  2
CONTINUOUS
 70
     0
  3
Solid line
 72
    65
 73
     0
 40
0.0
  0
ENDTAB
  0
TABLE
  2
LAYER
 70
     2
  0
LAYER
  2
0
 70
     0
 62
     7
  6
CONTINUOUS
  0
LAYER
  2
FAB_2$MIDDLE-2
 70
     0
 62
   190
  6
CONTINUOUS
  0
ENDTAB
  0
TABLE
  2
STYLE
 70
     1
  0
STYLE
  2
STANDARD
 70
     0
 40
0.0
 41
1.0
 50
0.0
 71
     0
 42
0.2
  3
txt
  4

  0
ENDTAB
  0
TABLE
  2
VIEW
 70
     0
  0
ENDTAB
  0
TABLE
  2
UCS
 70
     0
  0
ENDTAB
  0
TABLE
  2
APPID
 70
     1
  0
APPID
  2
ACAD
 70
     0
  0
ENDTAB
  0
TABLE
  2
DIMSTYLE
 70
     1
  0
DIMSTYLE
  2
STANDARD
 70
     0
  3

  4

  5

  6

  7

 40
1.0
 41
0.18
 42
0.0625
 43
0.38
 44
0.18
 45
0.0
 46
0.0
 47
0.0
 48
0.0
140
0.18
141
0.09
142
0.0
143
25.4
144
1.0
145
0.0
146
1.0
147
0.09
 71
     0
 72
     0
 73
     1
 74
     1
 75
     0
 76
     0
 77
     0
 78
     0
170
     0
171
     2
172
     0
173
     0
174
     0
175
     0
176
     0
177
     0
178
     0
  0
ENDTAB
  0
ENDSEC
  0
SECTION
  2
BLOCKS
  0
BLOCK
  8
0
  2
$MODEL_SPACE
 70
     0
 10
0.0
 20
0.0
 30
0.0
  3
$MODEL_SPACE
  1

  0
ENDBLK
  5
21
  8
0
  0
BLOCK
 67
     1
  8
0
  2
$PAPER_SPACE
 70
     0
 10
0.0
 20
0.0
 30
0.0
  3
$PAPER_SPACE
  1

  0
ENDBLK
  5
1D
 67
     1
  8
0
  0
ENDSEC
  0
SECTION
  2
ENTITIES
  0
CIRCLE
  5
6F
  8
FAB_2$MIDDLE-2
 10
-1126.044820240388
 20
-849.0
 30
0.0
 40
1.777999999999967
  0
CIRCLE
  5
70
  8
FAB_2$MIDDLE-2
 10
-1287.444820240341
 20
-848.9999999999998
 30
0.0
 40
1.777999999999967
  0
CIRCLE
  5
71
  8
FAB_2$MIDDLE-2
 10
-1064.74482024036
 20
-553.9000000000608
 30
0.0
 40
1.777999999999967
  0
CIRCLE
  5
72
  8
FAB_2$MIDDLE-2
 10
-1064.74482024036
 20
-769.5999999999083
 30
0.0
 40
1.777999999999967
  0
CIRCLE
  5
73
  8
FAB_2$MIDDLE-2
 10
-1348.744820240292
 20
-769.5999999999083
 30
0.0
 40
1.777999999999967
  0
CIRCLE
  5
74
  8
FAB_2$MIDDLE-2
 10
-1348.744820240292
 20
-553.9000000000608
 30
0.0
 40
1.777999999999967
  0
CIRCLE
  5
75
  8
FAB_2$MIDDLE-2
 10
-1287.444820240341
 20
-474.4999999999693
 30
0.0
 40
1.777999999999967
  0
CIRCLE
  5
76
  8
FAB_2$MIDDLE-2
 10
-1126.044820240388
 20
-474.4999999999691
 30
0.0
 40
1.777999999999967
  0
LINE
  5
77
  8
FAB_2$MIDDLE-2
 10
-1356.244820240326
 20
-784.7265615930122
 30
0.0
 11
-1356.244820240326
 21
-841.5000000000001
 31
0.0
  0
LINE
  5
78
  8
FAB_2$MIDDLE-2
 10
-1341.244820240326
 20
-841.5
 30
0.0
 11
-1341.244820240326
 21
-784.7265615930105
 31
0.0
  0
LINE
  5
79
  8
FAB_2$MIDDLE-2
 10
-1072.244820240326
 20
-784.726561593011
 30
0.0
 11
-1072.244820240326
 21
-841.5
 31
0.0
  0
LINE
  5
7A
  8
FAB_2$MIDDLE-2
 10
-1057.244820240326
 20
-841.5
 30
0.0
 11
-1057.244820240326
 21
-784.7265615930112
 31
0.0
  0
LINE
  5
7B
  8
FAB_2$MIDDLE-2
 10
-1072.244820240326
 20
-841.5
 30
0.0
 11
-1341.244820240326
 21
-841.5
 31
0.0
  0
ARC
  5
7C
  8
FAB_2$MIDDLE-2
 10
-1072.244820240326
 20
-841.4999999999994
 30
0.0
 40
15.00000000000057
 50
270.0000000000009
 51
359.9999999999978
  0
LINE
  5
7D
  8
FAB_2$MIDDLE-2
 10
-1341.244820240326
 20
-856.5000000000002
 30
0.0
 11
-1072.244820240326
 21
-856.5
 31
0.0
  0
ARC
  5
7E
  8
FAB_2$MIDDLE-2
 10
-1341.244820240326
 20
-841.5
 30
0.0
 40
15.0
 50
180.0000000000004
 51
269.9999999999991
  0
LINE
  5
7F
  8
FAB_2$MIDDLE-2
 10
-1341.244820240326
 20
-841.5
 30
0.0
 11
-1345.461966415957
 21
-841.4999999999562
 31
0.0
  0
ARC
  5
80
  8
FAB_2$MIDDLE-2
 10
-1348.744820240326
 20
-841.4999999999222
 30
0.0
 40
3.282853824368999
 50
359.9999999994068
 51
179.9999999994067
  0
LINE
  5
81
  8
FAB_2$MIDDLE-2
 10
-1352.027674064695
 20
-841.4999999998882
 30
0.0
 11
-1356.244820240326
 21
-841.4999999998445
 31
0.0
  0
LINE
  5
82
  8
FAB_2$MIDDLE-2
 10
-1072.244820240326
 20
-841.5
 30
0.0
 11
-1072.24482024037
 21
-845.717146175631
 31
0.0
  0
ARC
  5
83
  8
FAB_2$MIDDLE-2
 10
-1072.244820240404
 20
-849.0
 30
0.0
 40
3.282853824368999
 50
89.99999999940871
 51
269.9999999994087
  0
LINE
  5
84
  8
FAB_2$MIDDLE-2
 10
-1072.244820240438
 20
-852.282853824369
 30
0.0
 11
-1072.244820240481
 21
-856.5
 31
0.0
  0
LINE
  5
85
  8
FAB_2$MIDDLE-2
 10
-1341.244820240326
 20
-784.7265615930105
 30
0.0
 11
-1341.244820240326
 21
-482.0
 31
0.0
  0
LINE
  5
86
  8
FAB_2$MIDDLE-2
 10
-1072.244820240326
 20
-482.0
 30
0.0
 11
-1072.244820240326
 21
-784.726561593011
 31
0.0
  0
LINE
  5
87
  8
FAB_2$MIDDLE-2
 10
-1057.244820240326
 20
-784.7265615930113
 30
0.0
 11
-1057.244820240326
 21
-482.0
 31
0.0
  0
LINE
  5
88
  8
FAB_2$MIDDLE-2
 10
-1356.244820240325
 20
-482.0
 30
0.0
 11
-1356.244820240326
 21
-784.7265615930121
 31
0.0
  0
LINE
  5
89
  8
FAB_2$MIDDLE-2
 10
-1072.078719633109
 20
-467.0004598235289
 30
0.0
 11
-1137.644820240326
 21
-466.9999999999999
 31
0.0
  0
LINE
  5
8A
  8
FAB_2$MIDDLE-2
 10
-1137.644820240326
 20
-466.9999999999999
 30
0.0
 11
-1137.644820240326
 21
-482.0
 31
0.0
  0
LINE
  5
8B
  8
FAB_2$MIDDLE-2
 10
-1137.644820240326
 20
-482.0
 30
0.0
 11
-1072.244820240326
 21
-482.0
 31
0.0
  0
LINE
  5
8C
  8
FAB_2$MIDDLE-2
 10
-1341.244820240326
 20
-482.0
 30
0.0
 11
-1147.244820240326
 21
-482.0
 31
0.0
  0
LINE
  5
8D
  8
FAB_2$MIDDLE-2
 10
-1147.244820240326
 20
-482.0
 30
0.0
 11
-1147.244820240326
 21
-466.9999999999999
 31
0.0
  0
LINE
  5
8E
  8
FAB_2$MIDDLE-2
 10
-1147.244820240326
 20
-466.9999999999999
 30
0.0
 11
-1174.744820240323
 21
-466.9999999999999
 31
0.0
  0
LINE
  5
8F
  8
FAB_2$MIDDLE-2
 10
-1341.244820240326
 20
-481.9999999999999
 30
0.0
 11
-1341.244835080883
 21
-477.782853824395
 31
0.0
  0
ARC
  5
90
  8
FAB_2$MIDDLE-2
 10
-1341.244846633572
 20
-474.5000000000464
 30
0.0
 40
3.282853824368999
 50
270.0002016295504
 51
90.00020162955039
  0
LINE
  5
91
  8
FAB_2$MIDDLE-2
 10
-1341.244858186261
 20
-471.2171461756977
 30
0.0
 11
-1341.244873026818
 21
-467.0000000000928
 31
0.0
  0
LINE
  5
92
  8
FAB_2$MIDDLE-2
 10
-1072.244820240326
 20
-482.0
 30
0.0
 11
-1068.027674064695
 21
-482.0000000000438
 31
0.0
  0
ARC
  5
93
  8
FAB_2$MIDDLE-2
 10
-1064.744820240326
 20
-482.0000000000778
 30
0.0
 40
3.282853824368999
 50
179.9999999994067
 51
359.9999999994068
  0
LINE
  5
94
  8
FAB_2$MIDDLE-2
 10
-1061.461966415957
 20
-482.0000000001118
 30
0.0
 11
-1057.244820240326
 21
-482.0000000001555
 31
0.0
  0
ARC
  5
95
  8
FAB_2$MIDDLE-2
 10
-1341.244258269657
 20
-482.0000959201265
 30
0.0
 40
15.00056197097477
 50
90.6365945967461
 51
179.9996336258317
  0
ARC
  5
96
  8
FAB_2$MIDDLE-2
 10
-1072.24538205157
 20
-482.0000957624571
 30
0.0
 40
15.00056181154954
 50
0.0003657719423206
 51
89.3634071996769
  0
LINE
  5
97
  8
FAB_2$MIDDLE-2
 10
-1174.744820240323
 20
-466.9999999999999
 30
0.0
 11
-1174.744820240323
 21
-476.9999999999999
 31
0.0
  0
LINE
  5
98
  8
FAB_2$MIDDLE-2
 10
-1174.744820240323
 20
-476.9999999999999
 30
0.0
 11
-1178.744820240323
 21
-476.9999999999999
 31
0.0
  0
LINE
  5
99
  8
FAB_2$MIDDLE-2
 10
-1178.744820240323
 20
-476.9999999999999
 30
0.0
 11
-1178.744820240323
 21
-466.9999999999999
 31
0.0
  0
LINE
  5
9A
  8
FAB_2$MIDDLE-2
 10
-1178.744820240323
 20
-466.9999999999999
 30
0.0
 11
-1206.744820240323
 21
-466.9999999999999
 31
0.0
  0
LINE
  5
9B
  8
FAB_2$MIDDLE-2
 10
-1206.744820240323
 20
-466.9999999999999
 30
0.0
 11
-1206.744820240323
 21
-476.9999999999999
 31
0.0
  0
LINE
  5
9C
  8
FAB_2$MIDDLE-2
 10
-1206.744820240323
 20
-476.9999999999999
 30
0.0
 11
-1210.744820240323
 21
-476.9999999999999
 31
0.0
  0
LINE
  5
9D
  8
FAB_2$MIDDLE-2
 10
-1210.744820240323
 20
-476.9999999999999
 30
0.0
 11
-1210.744820240323
 21
-466.9999999999999
 31
0.0
  0
LINE
  5
9E
  8
FAB_2$MIDDLE-2
 10
-1210.744820240323
 20
-466.9999999999999
 30
0.0
 11
-1341.410921160181
 21
-467.0004598270082
 31
0.0
  0
LINE
  5
9F
  8
FAB_2$MIDDLE-2
 10
-1072.244820240326
 20
-720.666666666667
 30
0.0
 11
-1068.027674064695
 21
-720.6666666667107
 31
0.0
  0
ARC
  5
A0
  8
FAB_2$MIDDLE-2
 10
-1064.744820240326
 20
-720.6666666667447
 30
0.0
 40
3.282853824368999
 50
179.9999999994067
 51
359.9999999994068
  0
LINE
  5
A1
  8
FAB_2$MIDDLE-2
 10
-1061.461966415957
 20
-720.6666666667787
 30
0.0
 11
-1057.244820240326
 21
-720.6666666668225
 31
0.0
  0
LINE
  5
A2
  8
FAB_2$MIDDLE-2
 10
-1341.244820240326
 20
-601.3333333333336
 30
0.0
 11
-1345.461966415957
 21
-601.3333333333774
 31
0.0
  0
ARC
  5
A3
  8
FAB_2$MIDDLE-2
 10
-1348.744820240326
 20
-601.3333333334114
 30
0.0
 40
3.282853824368999
 50
180.0000000005932
 51
0.0000000005932701
  0
LINE
  5
A4
  8
FAB_2$MIDDLE-2
 10
-1352.027674064695
 20
-601.3333333334454
 30
0.0
 11
-1356.244820240326
 21
-601.3333333334891
 31
0.0
  0
ENDSEC
  0
EOF
