  0
SECTION
  2
HEADER
  9
$ACADVER
  1
AC1009
  9
$DWGCODEPAGE
  3
mac-roman
  9
$INSBASE
 10
0.0
 20
0.0
 30
0.0
  9
$EXTMIN
 10
-1043.298393835579
 20
-1261.5
 30
0.0
  9
$EXTMAX
 10
-744.2983938355792
 20
-872.0
 30
0.0
  9
$LIMMIN
 10
0.0
 20
0.0
  9
$LIMMAX
 10
12.0
 20
9.0
  9
$ORTHOMODE
 70
     0
  9
$REGENMODE
 70
     1
  9
$FILLMODE
 70
     1
  9
$QTEXTMODE
 70
     0
  9
$MIRRTEXT
 70
     1
  9
$DRAGMODE
 70
     2
  9
$LTSCALE
 40
1.0
  9
$OSMODE
 70
    37
  9
$ATTMODE
 70
     1
  9
$TEXTSIZE
 40
0.2
  9
$TRACEWID
 40
0.05
  9
$TEXTSTYLE
  7
STANDARD
  9
$CLAYER
  8
0
  9
$CELTYPE
  6
BYLAYER
  9
$CECOLOR
 62
   256
  9
$DIMSCALE
 40
1.0
  9
$DIMASZ
 40
0.18
  9
$DIMEXO
 40
0.0625
  9
$DIMDLI
 40
0.38
  9
$DIMRND
 40
0.0
  9
$DIMDLE
 40
0.0
  9
$DIMEXE
 40
0.18
  9
$DIMTP
 40
0.0
  9
$DIMTM
 40
0.0
  9
$DIMTXT
 40
0.18
  9
$DIMCEN
 40
0.09
  9
$DIMTSZ
 40
0.0
  9
$DIMTOL
 70
     0
  9
$DIMLIM
 70
     0
  9
$DIMTIH
 70
     1
  9
$DIMTOH
 70
     1
  9
$DIMSE1
 70
     0
  9
$DIMSE2
 70
     0
  9
$DIMTAD
 70
     0
  9
$DIMZIN
 70
     0
  9
$DIMBLK
  1

  9
$DIMASO
 70
     1
  9
$DIMSHO
 70
     1
  9
$DIMPOST
  1

  9
$DIMAPOST
  1

  9
$DIMALT
 70
     0
  9
$DIMALTD
 70
     2
  9
$DIMALTF
 40
25.4
  9
$DIMLFAC
 40
1.0
  9
$DIMTOFL
 70
     0
  9
$DIMTVP
 40
0.0
  9
$DIMTIX
 70
     0
  9
$DIMSOXD
 70
     0
  9
$DIMSAH
 70
     0
  9
$DIMBLK1
  1

  9
$DIMBLK2
  1

  9
$DIMSTYLE
  2
STANDARD
  9
$DIMCLRD
 70
     0
  9
$DIMCLRE
 70
     0
  9
$DIMCLRT
 70
     0
  9
$DIMTFAC
 40
1.0
  9
$DIMGAP
 40
0.09
  9
$LUNITS
 70
     2
  9
$LUPREC
 70
     3
  9
$SKETCHINC
 40
0.1
  9
$FILLETRAD
 40
0.5
  9
$AUNITS
 70
     0
  9
$AUPREC
 70
     0
  9
$MENU
  1
.
  9
$ELEVATION
 40
0.0
  9
$PELEVATION
 40
0.0
  9
$THICKNESS
 40
0.0
  9
$LIMCHECK
 70
     0
  9
$CHAMFERA
 40
0.0
  9
$CHAMFERB
 40
0.0
  9
$SKPOLY
 70
     0
  9
$TDCREATE
 40
2457967.71837963
  9
$TDUPDATE
 40
2457967.718414352
  9
$TDINDWG
 40
0.0000000116
  9
$TDUSRTIMER
 40
0.0000000116
  9
$USRTIMER
 70
     1
  9
$ANGBASE
 50
0.0
  9
$ANGDIR
 70
     0
  9
$PDMODE
 70
     0
  9
$PDSIZE
 40
0.0
  9
$PLINEWID
 40
0.0
  9
$COORDS
 70
     1
  9
$SPLFRAME
 70
     0
  9
$SPLINETYPE
 70
     6
  9
$SPLINESEGS
 70
     8
  9
$ATTDIA
 70
     0
  9
$ATTREQ
 70
     1
  9
$HANDLING
 70
     1
  9
$HANDSEED
  5
25D
  9
$SURFTAB1
 70
     6
  9
$SURFTAB2
 70
     6
  9
$SURFTYPE
 70
     6
  9
$SURFU
 70
     6
  9
$SURFV
 70
     6
  9
$UCSNAME
  2

  9
$UCSORG
 10
0.0
 20
0.0
 30
0.0
  9
$UCSXDIR
 10
1.0
 20
0.0
 30
0.0
  9
$UCSYDIR
 10
0.0
 20
1.0
 30
0.0
  9
$PUCSNAME
  2

  9
$PUCSORG
 10
0.0
 20
0.0
 30
0.0
  9
$PUCSXDIR
 10
1.0
 20
0.0
 30
0.0
  9
$PUCSYDIR
 10
0.0
 20
1.0
 30
0.0
  9
$USERI1
 70
     0
  9
$USERI2
 70
     0
  9
$USERI3
 70
     0
  9
$USERI4
 70
     0
  9
$USERI5
 70
     0
  9
$USERR1
 40
0.0
  9
$USERR2
 40
0.0
  9
$USERR3
 40
0.0
  9
$USERR4
 40
0.0
  9
$USERR5
 40
0.0
  9
$WORLDVIEW
 70
     1
  9
$SHADEDGE
 70
     3
  9
$SHADEDIF
 70
    70
  9
$TILEMODE
 70
     1
  9
$MAXACTVP
 70
    64
  9
$PLIMCHECK
 70
     0
  9
$PEXTMIN
 10
1.000000000000000E+20
 20
1.000000000000000E+20
 30
1.000000000000000E+20
  9
$PEXTMAX
 10
-1.000000000000000E+20
 20
-1.000000000000000E+20
 30
-1.000000000000000E+20
  9
$PLIMMIN
 10
0.0
 20
0.0
  9
$PLIMMAX
 10
12.0
 20
9.0
  9
$UNITMODE
 70
     0
  9
$VISRETAIN
 70
     1
  9
$PLINEGEN
 70
     0
  9
$PSLTSCALE
 70
     1
  0
ENDSEC
  0
SECTION
  2
TABLES
  0
TABLE
  2
VPORT
 70
     1
  0
VPORT
  2
*ACTIVE
 70
     0
 10
0.0
 20
0.0
 11
1.0
 21
1.0
 12
-893.7983938355792
 22
-1066.75
 13
0.0
 23
0.0
 14
0.5
 24
0.5
 15
0.5
 25
0.5
 16
0.0
 26
0.0
 36
1.0
 17
0.0
 27
0.0
 37
0.0
 40
397.2900000000001
 41
0.7676508344030807
 42
50.0
 43
0.0
 44
0.0
 50
0.0
 51
0.0
 71
     0
 72
   100
 73
     1
 74
     3
 75
     0
 76
     0
 77
     0
 78
     0
  0
ENDTAB
  0
TABLE
  2
LTYPE
 70
     1
  0
LTYPE
  2
CONTINUOUS
 70
     0
  3
Solid line
 72
    65
 73
     0
 40
0.0
  0
ENDTAB
  0
TABLE
  2
LAYER
 70
     2
  0
LAYER
  2
0
 70
     0
 62
     7
  6
CONTINUOUS
  0
LAYER
  2
FAB_2$TOP
 70
     0
 62
     4
  6
CONTINUOUS
  0
ENDTAB
  0
TABLE
  2
STYLE
 70
     1
  0
STYLE
  2
STANDARD
 70
     0
 40
0.0
 41
1.0
 50
0.0
 71
     0
 42
0.2
  3
txt
  4

  0
ENDTAB
  0
TABLE
  2
VIEW
 70
     0
  0
ENDTAB
  0
TABLE
  2
UCS
 70
     0
  0
ENDTAB
  0
TABLE
  2
APPID
 70
     1
  0
APPID
  2
ACAD
 70
     0
  0
ENDTAB
  0
TABLE
  2
DIMSTYLE
 70
     1
  0
DIMSTYLE
  2
STANDARD
 70
     0
  3

  4

  5

  6

  7

 40
1.0
 41
0.18
 42
0.0625
 43
0.38
 44
0.18
 45
0.0
 46
0.0
 47
0.0
 48
0.0
140
0.18
141
0.09
142
0.0
143
25.4
144
1.0
145
0.0
146
1.0
147
0.09
 71
     0
 72
     0
 73
     1
 74
     1
 75
     0
 76
     0
 77
     0
 78
     0
170
     0
171
     2
172
     0
173
     0
174
     0
175
     0
176
     0
177
     0
178
     0
  0
ENDTAB
  0
ENDSEC
  0
SECTION
  2
BLOCKS
  0
BLOCK
  8
0
  2
$MODEL_SPACE
 70
     0
 10
0.0
 20
0.0
 30
0.0
  3
$MODEL_SPACE
  1

  0
ENDBLK
  5
21
  8
0
  0
BLOCK
 67
     1
  8
0
  2
$PAPER_SPACE
 70
     0
 10
0.0
 20
0.0
 30
0.0
  3
$PAPER_SPACE
  1

  0
ENDBLK
  5
1D
 67
     1
  8
0
  0
ENDSEC
  0
SECTION
  2
ENTITIES
  0
CIRCLE
  5
6F
  8
FAB_2$TOP
 10
-813.0983938356414
 20
-879.499999999969
 30
0.0
 40
1.777999999999967
  0
CIRCLE
  5
70
  8
FAB_2$TOP
 10
-974.4983938355947
 20
-879.4999999999692
 30
0.0
 40
1.777999999999967
  0
CIRCLE
  5
71
  8
FAB_2$TOP
 10
-1035.798393835545
 20
-958.9000000000607
 30
0.0
 40
1.777999999999967
  0
CIRCLE
  5
72
  8
FAB_2$TOP
 10
-1035.798393835545
 20
-1174.599999999908
 30
0.0
 40
1.777999999999967
  0
CIRCLE
  5
73
  8
FAB_2$TOP
 10
-751.7983938356131
 20
-1174.599999999908
 30
0.0
 40
1.777999999999967
  0
CIRCLE
  5
74
  8
FAB_2$TOP
 10
-751.7983938356131
 20
-958.9000000000607
 30
0.0
 40
1.777999999999967
  0
CIRCLE
  5
75
  8
FAB_2$TOP
 10
-974.4983938355947
 20
-1254.0
 30
0.0
 40
1.777999999999967
  0
CIRCLE
  5
76
  8
FAB_2$TOP
 10
-813.0983938356414
 20
-1254.0
 30
0.0
 40
1.777999999999967
  0
LINE
  5
77
  8
FAB_2$TOP
 10
-1006.298393835579
 20
-1076.0
 30
0.0
 11
-1006.643555225276
 21
-1075.994041405511
 31
0.0
  0
LINE
  5
78
  8
FAB_2$TOP
 10
-1006.643555225276
 20
-1075.994041405511
 30
0.0
 11
-1006.988305279623
 21
-1075.976172723012
 31
0.0
  0
LINE
  5
79
  8
FAB_2$TOP
 10
-1006.988305279623
 20
-1075.976172723012
 30
0.0
 11
-1007.332233153463
 21
-1075.946415246952
 31
0.0
  0
LINE
  5
7A
  8
FAB_2$TOP
 10
-1007.332233153463
 20
-1075.946415246952
 30
0.0
 11
-1007.674928981451
 21
-1075.904804439876
 31
0.0
  0
LINE
  5
7B
  8
FAB_2$TOP
 10
-1007.674928981451
 20
-1075.904804439876
 30
0.0
 11
-1008.015984366492
 21
-1075.851389890169
 31
0.0
  0
LINE
  5
7C
  8
FAB_2$TOP
 10
-1008.015984366492
 20
-1075.851389890169
 30
0.0
 11
-1008.354992866439
 21
-1075.786235252959
 31
0.0
  0
LINE
  5
7D
  8
FAB_2$TOP
 10
-1008.354992866439
 20
-1075.786235252959
 30
0.0
 11
-1008.691550478455
 21
-1075.70941817426
 31
0.0
  0
LINE
  5
7E
  8
FAB_2$TOP
 10
-1008.691550478455
 20
-1075.70941817426
 30
0.0
 11
-1009.025256120475
 21
-1075.621030198436
 31
0.0
  0
LINE
  5
7F
  8
FAB_2$TOP
 10
-1009.025256120475
 20
-1075.621030198436
 30
0.0
 11
-1009.355712109177
 21
-1075.521176659107
 31
0.0
  0
LINE
  5
80
  8
FAB_2$TOP
 10
-1009.355712109177
 20
-1075.521176659107
 30
0.0
 11
-1009.682524633916
 21
-1075.409976553624
 31
0.0
  0
LINE
  5
81
  8
FAB_2$TOP
 10
-1009.682524633916
 20
-1075.409976553624
 30
0.0
 11
-1010.00530422603
 21
-1075.287562401253
 31
0.0
  0
LINE
  5
82
  8
FAB_2$TOP
 10
-1010.00530422603
 20
-1075.287562401253
 30
0.0
 11
-1010.323666222979
 21
-1075.154080085254
 31
0.0
  0
LINE
  5
83
  8
FAB_2$TOP
 10
-1010.323666222979
 20
-1075.154080085254
 30
0.0
 11
-1010.637231226755
 21
-1075.009688679024
 31
0.0
  0
LINE
  5
84
  8
FAB_2$TOP
 10
-1010.637231226755
 20
-1075.009688679024
 30
0.0
 11
-1010.945625556017
 21
-1074.854560256532
 31
0.0
  0
LINE
  5
85
  8
FAB_2$TOP
 10
-1010.945625556017
 20
-1074.854560256532
 30
0.0
 11
-1011.248481691416
 21
-1074.68887968725
 31
0.0
  0
LINE
  5
86
  8
FAB_2$TOP
 10
-1011.248481691416
 20
-1074.68887968725
 30
0.0
 11
-1011.545438713569
 21
-1074.512844415844
 31
0.0
  0
LINE
  5
87
  8
FAB_2$TOP
 10
-1011.545438713569
 20
-1074.512844415844
 30
0.0
 11
-1011.836142733184
 21
-1074.326664226872
 31
0.0
  0
LINE
  5
88
  8
FAB_2$TOP
 10
-1011.836142733184
 20
-1074.326664226872
 30
0.0
 11
-1012.120247312786
 21
-1074.130560994786
 31
0.0
  0
LINE
  5
89
  8
FAB_2$TOP
 10
-1012.120247312786
 20
-1074.130560994786
 30
0.0
 11
-1012.39741387958
 21
-1073.924768419511
 31
0.0
  0
LINE
  5
8A
  8
FAB_2$TOP
 10
-1012.39741387958
 20
-1073.924768419511
 30
0.0
 11
-1012.667312128928
 21
-1073.70953174795
 31
0.0
  0
LINE
  5
8B
  8
FAB_2$TOP
 10
-1012.667312128928
 20
-1073.70953174795
 30
0.0
 11
-1012.929620417987
 21
-1073.485107481711
 31
0.0
  0
LINE
  5
8C
  8
FAB_2$TOP
 10
-1012.929620417987
 20
-1073.485107481711
 30
0.0
 11
-1013.184026149012
 21
-1073.251763071434
 31
0.0
  0
LINE
  5
8D
  8
FAB_2$TOP
 10
-1013.184026149012
 20
-1073.251763071434
 30
0.0
 11
-1013.430226141885
 21
-1073.009776598062
 31
0.0
  0
LINE
  5
8E
  8
FAB_2$TOP
 10
-1013.430226141885
 20
-1073.009776598062
 30
0.0
 11
-1013.667926995422
 21
-1072.759436441448
 31
0.0
  0
LINE
  5
8F
  8
FAB_2$TOP
 10
-1013.667926995422
 20
-1072.759436441448
 30
0.0
 11
-1013.896845437025
 21
-1072.501040936688
 31
0.0
  0
LINE
  5
90
  8
FAB_2$TOP
 10
-1013.896845437025
 20
-1072.501040936688
 30
0.0
 11
-1014.116708660259
 21
-1072.234898018588
 31
0.0
  0
LINE
  5
91
  8
FAB_2$TOP
 10
-1014.116708660259
 20
-1072.234898018588
 30
0.0
 11
-1014.327254649968
 21
-1071.961324854692
 31
0.0
  0
LINE
  5
92
  8
FAB_2$TOP
 10
-1014.327254649968
 20
-1071.961324854692
 30
0.0
 11
-1014.528232494516
 21
-1071.680647467312
 31
0.0
  0
LINE
  5
93
  8
FAB_2$TOP
 10
-1014.528232494516
 20
-1071.680647467312
 30
0.0
 11
-1014.719402684807
 21
-1071.393200344992
 31
0.0
  0
LINE
  5
94
  8
FAB_2$TOP
 10
-1014.719402684807
 20
-1071.393200344992
 30
0.0
 11
-1014.900537399714
 21
-1071.099326043901
 31
0.0
  0
LINE
  5
95
  8
FAB_2$TOP
 10
-1014.900537399714
 20
-1071.099326043901
 30
0.0
 11
-1015.071420777574
 21
-1070.799374779598
 31
0.0
  0
LINE
  5
96
  8
FAB_2$TOP
 10
-1015.071420777574
 20
-1070.799374779598
 30
0.0
 11
-1015.231849173435
 21
-1070.493704009672
 31
0.0
  0
LINE
  5
97
  8
FAB_2$TOP
 10
-1015.231849173435
 20
-1070.493704009672
 30
0.0
 11
-1015.381631401747
 21
-1070.182678007756
 31
0.0
  0
LINE
  5
98
  8
FAB_2$TOP
 10
-1015.381631401747
 20
-1070.182678007756
 30
0.0
 11
-1015.520588964197
 21
-1069.866667429414
 31
0.0
  0
LINE
  5
99
  8
FAB_2$TOP
 10
-1015.520588964197
 20
-1069.866667429414
 30
0.0
 11
-1015.648556262433
 21
-1069.546048870425
 31
0.0
  0
LINE
  5
9A
  8
FAB_2$TOP
 10
-1015.648556262433
 20
-1069.546048870425
 30
0.0
 11
-1015.765380795407
 21
-1069.221204417985
 31
0.0
  0
LINE
  5
9B
  8
FAB_2$TOP
 10
-1015.765380795407
 20
-1069.221204417985
 30
0.0
 11
-1015.870923341115
 21
-1068.892521195365
 31
0.0
  0
LINE
  5
9C
  8
FAB_2$TOP
 10
-1015.870923341115
 20
-1068.892521195365
 30
0.0
 11
-1015.965058122511
 21
-1068.560390900575
 31
0.0
  0
LINE
  5
9D
  8
FAB_2$TOP
 10
-1015.965058122511
 20
-1068.560390900575
 30
0.0
 11
-1016.047672957397
 21
-1068.225209339563
 31
0.0
  0
LINE
  5
9E
  8
FAB_2$TOP
 10
-1016.047672957397
 20
-1068.225209339563
 30
0.0
 11
-1016.118669392113
 21
-1067.887375954529
 31
0.0
  0
LINE
  5
9F
  8
FAB_2$TOP
 10
-1016.118669392113
 20
-1067.887375954529
 30
0.0
 11
-1016.177962818866
 21
-1067.547293347903
 31
0.0
  0
LINE
  5
A0
  8
FAB_2$TOP
 10
-1016.177962818866
 20
-1067.547293347903
 30
0.0
 11
-1016.22548257656
 21
-1067.205366802553
 31
0.0
  0
LINE
  5
A1
  8
FAB_2$TOP
 10
-1016.22548257656
 20
-1067.205366802553
 30
0.0
 11
-1016.261172034999
 21
-1066.862003798806
 31
0.0
  0
LINE
  5
A2
  8
FAB_2$TOP
 10
-1016.261172034999
 20
-1066.862003798806
 30
0.0
 11
-1016.284988662384
 21
-1066.517613528842
 31
0.0
  0
LINE
  5
A3
  8
FAB_2$TOP
 10
-1016.284988662384
 20
-1066.517613528842
 30
0.0
 11
-1016.296904075988
 21
-1066.172606409054
 31
0.0
  0
LINE
  5
A4
  8
FAB_2$TOP
 10
-1016.296904075988
 20
-1066.172606409054
 30
0.0
 11
-1016.296904075988
 21
-1065.827393590946
 31
0.0
  0
LINE
  5
A5
  8
FAB_2$TOP
 10
-1016.296904075988
 20
-1065.827393590946
 30
0.0
 11
-1016.284988662384
 21
-1065.482386471158
 31
0.0
  0
LINE
  5
A6
  8
FAB_2$TOP
 10
-1016.284988662384
 20
-1065.482386471158
 30
0.0
 11
-1016.261172034999
 21
-1065.137996201194
 31
0.0
  0
LINE
  5
A7
  8
FAB_2$TOP
 10
-1016.261172034999
 20
-1065.137996201194
 30
0.0
 11
-1016.22548257656
 21
-1064.794633197447
 31
0.0
  0
LINE
  5
A8
  8
FAB_2$TOP
 10
-1016.22548257656
 20
-1064.794633197447
 30
0.0
 11
-1016.177962818866
 21
-1064.452706652097
 31
0.0
  0
LINE
  5
A9
  8
FAB_2$TOP
 10
-1016.177962818866
 20
-1064.452706652097
 30
0.0
 11
-1016.118669392113
 21
-1064.112624045472
 31
0.0
  0
LINE
  5
AA
  8
FAB_2$TOP
 10
-1016.118669392113
 20
-1064.112624045472
 30
0.0
 11
-1016.047672957397
 21
-1063.774790660437
 31
0.0
  0
LINE
  5
AB
  8
FAB_2$TOP
 10
-1016.047672957397
 20
-1063.774790660437
 30
0.0
 11
-1015.965058122511
 21
-1063.439609099425
 31
0.0
  0
LINE
  5
AC
  8
FAB_2$TOP
 10
-1015.965058122511
 20
-1063.439609099425
 30
0.0
 11
-1015.870923341115
 21
-1063.107478804634
 31
0.0
  0
LINE
  5
AD
  8
FAB_2$TOP
 10
-1015.870923341115
 20
-1063.107478804634
 30
0.0
 11
-1015.765380795407
 21
-1062.778795582016
 31
0.0
  0
LINE
  5
AE
  8
FAB_2$TOP
 10
-1015.765380795407
 20
-1062.778795582016
 30
0.0
 11
-1015.648556262433
 21
-1062.453951129575
 31
0.0
  0
LINE
  5
AF
  8
FAB_2$TOP
 10
-1015.648556262433
 20
-1062.453951129575
 30
0.0
 11
-1015.520588964197
 21
-1062.133332570586
 31
0.0
  0
LINE
  5
B0
  8
FAB_2$TOP
 10
-1015.520588964197
 20
-1062.133332570586
 30
0.0
 11
-1015.381631401747
 21
-1061.817321992245
 31
0.0
  0
LINE
  5
B1
  8
FAB_2$TOP
 10
-1015.381631401747
 20
-1061.817321992245
 30
0.0
 11
-1015.231849173435
 21
-1061.506295990329
 31
0.0
  0
LINE
  5
B2
  8
FAB_2$TOP
 10
-1015.231849173435
 20
-1061.506295990329
 30
0.0
 11
-1015.071420777574
 21
-1061.200625220402
 31
0.0
  0
LINE
  5
B3
  8
FAB_2$TOP
 10
-1015.071420777574
 20
-1061.200625220402
 30
0.0
 11
-1014.900537399714
 21
-1060.900673956099
 31
0.0
  0
LINE
  5
B4
  8
FAB_2$TOP
 10
-1014.900537399714
 20
-1060.900673956099
 30
0.0
 11
-1014.719402684807
 21
-1060.606799655008
 31
0.0
  0
LINE
  5
B5
  8
FAB_2$TOP
 10
-1014.719402684807
 20
-1060.606799655008
 30
0.0
 11
-1014.528232494516
 21
-1060.319352532689
 31
0.0
  0
LINE
  5
B6
  8
FAB_2$TOP
 10
-1014.528232494516
 20
-1060.319352532689
 30
0.0
 11
-1014.327254649968
 21
-1060.038675145308
 31
0.0
  0
LINE
  5
B7
  8
FAB_2$TOP
 10
-1014.327254649968
 20
-1060.038675145308
 30
0.0
 11
-1014.116708660259
 21
-1059.765101981413
 31
0.0
  0
LINE
  5
B8
  8
FAB_2$TOP
 10
-1014.116708660259
 20
-1059.765101981413
 30
0.0
 11
-1013.896845437025
 21
-1059.498959063313
 31
0.0
  0
LINE
  5
B9
  8
FAB_2$TOP
 10
-1013.896845437025
 20
-1059.498959063313
 30
0.0
 11
-1013.667926995422
 21
-1059.240563558552
 31
0.0
  0
LINE
  5
BA
  8
FAB_2$TOP
 10
-1013.667926995422
 20
-1059.240563558552
 30
0.0
 11
-1013.430226141885
 21
-1058.990223401938
 31
0.0
  0
LINE
  5
BB
  8
FAB_2$TOP
 10
-1013.430226141885
 20
-1058.990223401938
 30
0.0
 11
-1013.184026149012
 21
-1058.748236928566
 31
0.0
  0
LINE
  5
BC
  8
FAB_2$TOP
 10
-1013.184026149012
 20
-1058.748236928566
 30
0.0
 11
-1012.929620417987
 21
-1058.51489251829
 31
0.0
  0
LINE
  5
BD
  8
FAB_2$TOP
 10
-1012.929620417987
 20
-1058.51489251829
 30
0.0
 11
-1012.667312128928
 21
-1058.29046825205
 31
0.0
  0
LINE
  5
BE
  8
FAB_2$TOP
 10
-1012.667312128928
 20
-1058.29046825205
 30
0.0
 11
-1012.39741387958
 21
-1058.07523158049
 31
0.0
  0
LINE
  5
BF
  8
FAB_2$TOP
 10
-1012.39741387958
 20
-1058.07523158049
 30
0.0
 11
-1012.120247312787
 21
-1057.869439005215
 31
0.0
  0
LINE
  5
C0
  8
FAB_2$TOP
 10
-1012.120247312787
 20
-1057.869439005215
 30
0.0
 11
-1011.836142733185
 21
-1057.673335773128
 31
0.0
  0
LINE
  5
C1
  8
FAB_2$TOP
 10
-1011.836142733185
 20
-1057.673335773128
 30
0.0
 11
-1011.545438713569
 21
-1057.487155584157
 31
0.0
  0
LINE
  5
C2
  8
FAB_2$TOP
 10
-1011.545438713569
 20
-1057.487155584157
 30
0.0
 11
-1011.248481691415
 21
-1057.31112031275
 31
0.0
  0
LINE
  5
C3
  8
FAB_2$TOP
 10
-1011.248481691415
 20
-1057.31112031275
 30
0.0
 11
-1010.945625556017
 21
-1057.145439743468
 31
0.0
  0
LINE
  5
C4
  8
FAB_2$TOP
 10
-1010.945625556017
 20
-1057.145439743468
 30
0.0
 11
-1010.637231226755
 21
-1056.990311320976
 31
0.0
  0
LINE
  5
C5
  8
FAB_2$TOP
 10
-1010.637231226755
 20
-1056.990311320976
 30
0.0
 11
-1010.323666222979
 21
-1056.845919914747
 31
0.0
  0
LINE
  5
C6
  8
FAB_2$TOP
 10
-1010.323666222979
 20
-1056.845919914747
 30
0.0
 11
-1010.00530422603
 21
-1056.712437598747
 31
0.0
  0
LINE
  5
C7
  8
FAB_2$TOP
 10
-1010.00530422603
 20
-1056.712437598747
 30
0.0
 11
-1009.682524633916
 21
-1056.590023446377
 31
0.0
  0
LINE
  5
C8
  8
FAB_2$TOP
 10
-1009.682524633916
 20
-1056.590023446377
 30
0.0
 11
-1009.355712109176
 21
-1056.478823340893
 31
0.0
  0
LINE
  5
C9
  8
FAB_2$TOP
 10
-1009.355712109176
 20
-1056.478823340893
 30
0.0
 11
-1009.025256120475
 21
-1056.378969801565
 31
0.0
  0
LINE
  5
CA
  8
FAB_2$TOP
 10
-1009.025256120475
 20
-1056.378969801565
 30
0.0
 11
-1008.691550478455
 21
-1056.29058182574
 31
0.0
  0
LINE
  5
CB
  8
FAB_2$TOP
 10
-1008.691550478455
 20
-1056.29058182574
 30
0.0
 11
-1008.354992866439
 21
-1056.213764747041
 31
0.0
  0
LINE
  5
CC
  8
FAB_2$TOP
 10
-1008.354992866439
 20
-1056.213764747041
 30
0.0
 11
-1008.015984366492
 21
-1056.148610109832
 31
0.0
  0
LINE
  5
CD
  8
FAB_2$TOP
 10
-1008.015984366492
 20
-1056.148610109832
 30
0.0
 11
-1007.674928981451
 21
-1056.095195560125
 31
0.0
  0
LINE
  5
CE
  8
FAB_2$TOP
 10
-1007.674928981451
 20
-1056.095195560125
 30
0.0
 11
-1007.332233153463
 21
-1056.053584753048
 31
0.0
  0
LINE
  5
CF
  8
FAB_2$TOP
 10
-1007.332233153463
 20
-1056.053584753048
 30
0.0
 11
-1006.988305279623
 21
-1056.023827276988
 31
0.0
  0
LINE
  5
D0
  8
FAB_2$TOP
 10
-1006.988305279623
 20
-1056.023827276988
 30
0.0
 11
-1006.643555225276
 21
-1056.00595859449
 31
0.0
  0
LINE
  5
D1
  8
FAB_2$TOP
 10
-1006.643555225276
 20
-1056.00595859449
 30
0.0
 11
-1006.298393835579
 21
-1056.0
 31
0.0
  0
LINE
  5
D2
  8
FAB_2$TOP
 10
-1006.298393835579
 20
-1056.0
 30
0.0
 11
-1006.298393835579
 21
-917.0
 31
0.0
  0
LINE
  5
D3
  8
FAB_2$TOP
 10
-1006.298393835579
 20
-917.0
 30
0.0
 11
-1006.292564059241
 21
-916.6585888981405
 31
0.0
  0
LINE
  5
D4
  8
FAB_2$TOP
 10
-1006.292564059241
 20
-916.6585888981405
 30
0.0
 11
-1006.275081527485
 21
-916.3175758663535
 31
0.0
  0
LINE
  5
D5
  8
FAB_2$TOP
 10
-1006.275081527485
 20
-916.3175758663535
 30
0.0
 11
-1006.24596662416
 21
-915.9773585105796
 31
0.0
  0
LINE
  5
D6
  8
FAB_2$TOP
 10
-1006.24596662416
 20
-915.9773585105796
 30
0.0
 11
-1006.205253295942
 21
-915.6383335090376
 31
0.0
  0
LINE
  5
D7
  8
FAB_2$TOP
 10
-1006.205253295942
 20
-915.6383335090376
 30
0.0
 11
-1006.152989012751
 21
-915.3008961497131
 31
0.0
  0
LINE
  5
D8
  8
FAB_2$TOP
 10
-1006.152989012751
 20
-915.3008961497131
 30
0.0
 11
-1006.089234712402
 21
-914.9654398694736
 31
0.0
  0
LINE
  5
D9
  8
FAB_2$TOP
 10
-1006.089234712402
 20
-914.9654398694736
 30
0.0
 11
-1006.014064729559
 21
-914.6323557953356
 31
0.0
  0
LINE
  5
DA
  8
FAB_2$TOP
 10
-1006.014064729559
 20
-914.6323557953356
 30
0.0
 11
-1005.927566709057
 21
-914.3020322884299
 31
0.0
  0
LINE
  5
DB
  8
FAB_2$TOP
 10
-1005.927566709057
 20
-914.3020322884299
 30
0.0
 11
-1005.829841503721
 21
-913.9748544911891
 31
0.0
  0
LINE
  5
DC
  8
FAB_2$TOP
 10
-1005.829841503721
 20
-913.9748544911891
 30
0.0
 11
-1005.721003056767
 21
-913.6512038782902
 31
0.0
  0
LINE
  5
DD
  8
FAB_2$TOP
 10
-1005.721003056767
 20
-913.6512038782902
 30
0.0
 11
-1005.601178268958
 21
-913.3314578118695
 31
0.0
  0
LINE
  5
DE
  8
FAB_2$TOP
 10
-1005.601178268958
 20
-913.3314578118695
 30
0.0
 11
-1005.470506850634
 21
-913.0159891015375
 31
0.0
  0
LINE
  5
DF
  8
FAB_2$TOP
 10
-1005.470506850634
 20
-913.0159891015375
 30
0.0
 11
-1005.329141158825
 21
-912.7051655696996
 31
0.0
  0
LINE
  5
E0
  8
FAB_2$TOP
 10
-1005.329141158825
 20
-912.7051655696996
 30
0.0
 11
-1005.177246019603
 21
-912.3993496226885
 31
0.0
  0
LINE
  5
E1
  8
FAB_2$TOP
 10
-1005.177246019603
 20
-912.3993496226885
 30
0.0
 11
-1005.014998535907
 21
-912.0988978282196
 31
0.0
  0
LINE
  5
E2
  8
FAB_2$TOP
 10
-1005.014998535907
 20
-912.0988978282196
 30
0.0
 11
-1004.842587881044
 21
-911.8041604996456
 31
0.0
  0
LINE
  5
E3
  8
FAB_2$TOP
 10
-1004.842587881044
 20
-911.8041604996456
 30
0.0
 11
-1004.660215078126
 21
-911.5154812875069
 31
0.0
  0
LINE
  5
E4
  8
FAB_2$TOP
 10
-1004.660215078126
 20
-911.5154812875069
 30
0.0
 11
-1004.468092765683
 21
-911.2331967788512
 31
0.0
  0
LINE
  5
E5
  8
FAB_2$TOP
 10
-1004.468092765683
 20
-911.2331967788512
 30
0.0
 11
-1004.266444949738
 21
-910.957636104789
 31
0.0
  0
LINE
  5
E6
  8
FAB_2$TOP
 10
-1004.266444949738
 20
-910.957636104789
 30
0.0
 11
-1004.055506742624
 21
-910.6891205567399
 31
0.0
  0
LINE
  5
E7
  8
FAB_2$TOP
 10
-1004.055506742624
 20
-910.6891205567399
 30
0.0
 11
-1003.835524088853
 21
-910.42796321182
 31
0.0
  0
LINE
  5
E8
  8
FAB_2$TOP
 10
-1003.835524088853
 20
-910.42796321182
 30
0.0
 11
-1003.60675347836
 21
-910.1744685678134
 31
0.0
  0
LINE
  5
E9
  8
FAB_2$TOP
 10
-1003.60675347836
 20
-910.1744685678134
 30
0.0
 11
-1003.369461647445
 21
-909.9289321881345
 31
0.0
  0
LINE
  5
EA
  8
FAB_2$TOP
 10
-1003.369461647445
 20
-909.9289321881345
 30
0.0
 11
-1003.123925267766
 21
-909.6916403572188
 31
0.0
  0
LINE
  5
EB
  8
FAB_2$TOP
 10
-1003.123925267766
 20
-909.6916403572188
 30
0.0
 11
-1002.870430623759
 21
-909.4628697467266
 31
0.0
  0
LINE
  5
EC
  8
FAB_2$TOP
 10
-1002.870430623759
 20
-909.4628697467266
 30
0.0
 11
-1002.60927327884
 21
-909.2428870929558
 31
0.0
  0
LINE
  5
ED
  8
FAB_2$TOP
 10
-1002.60927327884
 20
-909.2428870929558
 30
0.0
 11
-1002.34075773079
 21
-909.0319488858407
 31
0.0
  0
LINE
  5
EE
  8
FAB_2$TOP
 10
-1002.34075773079
 20
-909.0319488858407
 30
0.0
 11
-1002.065197056728
 21
-908.8303010698954
 31
0.0
  0
LINE
  5
EF
  8
FAB_2$TOP
 10
-1002.065197056728
 20
-908.8303010698954
 30
0.0
 11
-1001.782912548072
 21
-908.6381787574528
 31
0.0
  0
LINE
  5
F0
  8
FAB_2$TOP
 10
-1001.782912548072
 20
-908.6381787574528
 30
0.0
 11
-1001.494233335934
 21
-908.4558059545351
 31
0.0
  0
LINE
  5
F1
  8
FAB_2$TOP
 10
-1001.494233335934
 20
-908.4558059545351
 30
0.0
 11
-1001.19949600736
 21
-908.2833952996726
 31
0.0
  0
LINE
  5
F2
  8
FAB_2$TOP
 10
-1001.19949600736
 20
-908.2833952996726
 30
0.0
 11
-1000.899044212891
 21
-908.1211478159762
 31
0.0
  0
LINE
  5
F3
  8
FAB_2$TOP
 10
-1000.899044212891
 20
-908.1211478159762
 30
0.0
 11
-1000.59322826588
 21
-907.9692526767549
 31
0.0
  0
LINE
  5
F4
  8
FAB_2$TOP
 10
-1000.59322826588
 20
-907.9692526767549
 30
0.0
 11
-1000.282404734042
 21
-907.8278869849455
 31
0.0
  0
LINE
  5
F5
  8
FAB_2$TOP
 10
-1000.282404734042
 20
-907.8278869849455
 30
0.0
 11
-999.9669360237096
 21
-907.6972155666216
 31
0.0
  0
LINE
  5
F6
  8
FAB_2$TOP
 10
-999.9669360237096
 20
-907.6972155666216
 30
0.0
 11
-999.647189957289
 21
-907.5773907788118
 31
0.0
  0
LINE
  5
F7
  8
FAB_2$TOP
 10
-999.647189957289
 20
-907.5773907788118
 30
0.0
 11
-999.32353934439
 21
-907.4685523318584
 31
0.0
  0
LINE
  5
F8
  8
FAB_2$TOP
 10
-999.32353934439
 20
-907.4685523318584
 30
0.0
 11
-998.9963615471493
 21
-907.3708271265219
 31
0.0
  0
LINE
  5
F9
  8
FAB_2$TOP
 10
-998.9963615471493
 20
-907.3708271265219
 30
0.0
 11
-998.6660380402436
 21
-907.2843291060206
 31
0.0
  0
LINE
  5
FA
  8
FAB_2$TOP
 10
-998.6660380402436
 20
-907.2843291060206
 30
0.0
 11
-998.3329539661056
 21
-907.2091591231767
 31
0.0
  0
LINE
  5
FB
  8
FAB_2$TOP
 10
-998.3329539661056
 20
-907.2091591231767
 30
0.0
 11
-997.997497685866
 21
-907.145404822828
 31
0.0
  0
LINE
  5
FC
  8
FAB_2$TOP
 10
-997.997497685866
 20
-907.145404822828
 30
0.0
 11
-997.6600603265421
 21
-907.0931405396367
 31
0.0
  0
LINE
  5
FD
  8
FAB_2$TOP
 10
-997.6600603265421
 20
-907.0931405396367
 30
0.0
 11
-997.3210353249996
 21
-907.0524272114191
 31
0.0
  0
LINE
  5
FE
  8
FAB_2$TOP
 10
-997.3210353249996
 20
-907.0524272114191
 30
0.0
 11
-996.9808179692257
 21
-907.0233123080945
 31
0.0
  0
LINE
  5
FF
  8
FAB_2$TOP
 10
-996.9808179692257
 20
-907.0233123080945
 30
0.0
 11
-996.6398049374387
 21
-907.0058297763383
 31
0.0
  0
LINE
  5
100
  8
FAB_2$TOP
 10
-996.6398049374387
 20
-907.0058297763383
 30
0.0
 11
-996.2983938355792
 21
-907.0
 31
0.0
  0
LINE
  5
101
  8
FAB_2$TOP
 10
-996.2983938355792
 20
-907.0
 30
0.0
 11
-791.2983938355792
 21
-907.0
 31
0.0
  0
LINE
  5
102
  8
FAB_2$TOP
 10
-791.2983938355792
 20
-907.0
 30
0.0
 11
-790.9569827337197
 21
-907.0058297763383
 31
0.0
  0
LINE
  5
103
  8
FAB_2$TOP
 10
-790.9569827337197
 20
-907.0058297763383
 30
0.0
 11
-790.6159697019327
 21
-907.0233123080945
 31
0.0
  0
LINE
  5
104
  8
FAB_2$TOP
 10
-790.6159697019327
 20
-907.0233123080945
 30
0.0
 11
-790.2757523461593
 21
-907.052427211419
 31
0.0
  0
LINE
  5
105
  8
FAB_2$TOP
 10
-790.2757523461593
 20
-907.052427211419
 30
0.0
 11
-789.9367273446168
 21
-907.0931405396367
 31
0.0
  0
LINE
  5
106
  8
FAB_2$TOP
 10
-789.9367273446168
 20
-907.0931405396367
 30
0.0
 11
-789.5992899852923
 21
-907.145404822828
 31
0.0
  0
LINE
  5
107
  8
FAB_2$TOP
 10
-789.5992899852923
 20
-907.145404822828
 30
0.0
 11
-789.2638337050528
 21
-907.2091591231767
 31
0.0
  0
LINE
  5
108
  8
FAB_2$TOP
 10
-789.2638337050528
 20
-907.2091591231767
 30
0.0
 11
-788.9307496309148
 21
-907.2843291060206
 31
0.0
  0
LINE
  5
109
  8
FAB_2$TOP
 10
-788.9307496309148
 20
-907.2843291060206
 30
0.0
 11
-788.6004261240091
 21
-907.3708271265219
 31
0.0
  0
LINE
  5
10A
  8
FAB_2$TOP
 10
-788.6004261240091
 20
-907.3708271265219
 30
0.0
 11
-788.2732483267683
 21
-907.4685523318584
 31
0.0
  0
LINE
  5
10B
  8
FAB_2$TOP
 10
-788.2732483267683
 20
-907.4685523318584
 30
0.0
 11
-787.9495977138697
 21
-907.5773907788116
 31
0.0
  0
LINE
  5
10C
  8
FAB_2$TOP
 10
-787.9495977138697
 20
-907.5773907788116
 30
0.0
 11
-787.6298516474487
 21
-907.6972155666216
 31
0.0
  0
LINE
  5
10D
  8
FAB_2$TOP
 10
-787.6298516474487
 20
-907.6972155666216
 30
0.0
 11
-787.3143829371166
 21
-907.8278869849455
 31
0.0
  0
LINE
  5
10E
  8
FAB_2$TOP
 10
-787.3143829371166
 20
-907.8278869849455
 30
0.0
 11
-787.0035594052783
 21
-907.9692526767546
 31
0.0
  0
LINE
  5
10F
  8
FAB_2$TOP
 10
-787.0035594052783
 20
-907.9692526767546
 30
0.0
 11
-786.6977434582677
 21
-908.1211478159762
 31
0.0
  0
LINE
  5
110
  8
FAB_2$TOP
 10
-786.6977434582677
 20
-908.1211478159762
 30
0.0
 11
-786.3972916637988
 21
-908.2833952996725
 31
0.0
  0
LINE
  5
111
  8
FAB_2$TOP
 10
-786.3972916637988
 20
-908.2833952996725
 30
0.0
 11
-786.1025543352248
 21
-908.4558059545351
 31
0.0
  0
LINE
  5
112
  8
FAB_2$TOP
 10
-786.1025543352248
 20
-908.4558059545351
 30
0.0
 11
-785.8138751230861
 21
-908.6381787574528
 31
0.0
  0
LINE
  5
113
  8
FAB_2$TOP
 10
-785.8138751230861
 20
-908.6381787574528
 30
0.0
 11
-785.5315906144307
 21
-908.8303010698954
 31
0.0
  0
LINE
  5
114
  8
FAB_2$TOP
 10
-785.5315906144307
 20
-908.8303010698954
 30
0.0
 11
-785.2560299403681
 21
-909.031948885841
 31
0.0
  0
LINE
  5
115
  8
FAB_2$TOP
 10
-785.2560299403681
 20
-909.031948885841
 30
0.0
 11
-784.9875143923186
 21
-909.2428870929557
 31
0.0
  0
LINE
  5
116
  8
FAB_2$TOP
 10
-784.9875143923186
 20
-909.2428870929557
 30
0.0
 11
-784.7263570473992
 21
-909.4628697467265
 31
0.0
  0
LINE
  5
117
  8
FAB_2$TOP
 10
-784.7263570473992
 20
-909.4628697467265
 30
0.0
 11
-784.4728624033925
 21
-909.6916403572188
 31
0.0
  0
LINE
  5
118
  8
FAB_2$TOP
 10
-784.4728624033925
 20
-909.6916403572188
 30
0.0
 11
-784.2273260237137
 21
-909.9289321881345
 31
0.0
  0
LINE
  5
119
  8
FAB_2$TOP
 10
-784.2273260237137
 20
-909.9289321881345
 30
0.0
 11
-783.990034192798
 21
-910.1744685678133
 31
0.0
  0
LINE
  5
11A
  8
FAB_2$TOP
 10
-783.990034192798
 20
-910.1744685678133
 30
0.0
 11
-783.7612635823057
 21
-910.42796321182
 31
0.0
  0
LINE
  5
11B
  8
FAB_2$TOP
 10
-783.7612635823057
 20
-910.42796321182
 30
0.0
 11
-783.5412809285349
 21
-910.6891205567395
 31
0.0
  0
LINE
  5
11C
  8
FAB_2$TOP
 10
-783.5412809285349
 20
-910.6891205567395
 30
0.0
 11
-783.3303427214202
 21
-910.9576361047889
 31
0.0
  0
LINE
  5
11D
  8
FAB_2$TOP
 10
-783.3303427214202
 20
-910.9576361047889
 30
0.0
 11
-783.1286949054748
 21
-911.2331967788512
 31
0.0
  0
LINE
  5
11E
  8
FAB_2$TOP
 10
-783.1286949054748
 20
-911.2331967788512
 30
0.0
 11
-782.936572593032
 21
-911.5154812875069
 31
0.0
  0
LINE
  5
11F
  8
FAB_2$TOP
 10
-782.936572593032
 20
-911.5154812875069
 30
0.0
 11
-782.7541997901143
 21
-911.8041604996456
 31
0.0
  0
LINE
  5
120
  8
FAB_2$TOP
 10
-782.7541997901143
 20
-911.8041604996456
 30
0.0
 11
-782.5817891352515
 21
-912.0988978282201
 31
0.0
  0
LINE
  5
121
  8
FAB_2$TOP
 10
-782.5817891352515
 20
-912.0988978282201
 30
0.0
 11
-782.4195416515553
 21
-912.3993496226885
 31
0.0
  0
LINE
  5
122
  8
FAB_2$TOP
 10
-782.4195416515553
 20
-912.3993496226885
 30
0.0
 11
-782.2676465123336
 21
-912.7051655696996
 31
0.0
  0
LINE
  5
123
  8
FAB_2$TOP
 10
-782.2676465123336
 20
-912.7051655696996
 30
0.0
 11
-782.1262808205246
 21
-913.0159891015375
 31
0.0
  0
LINE
  5
124
  8
FAB_2$TOP
 10
-782.1262808205246
 20
-913.0159891015375
 30
0.0
 11
-781.9956094022007
 21
-913.3314578118695
 31
0.0
  0
LINE
  5
125
  8
FAB_2$TOP
 10
-781.9956094022007
 20
-913.3314578118695
 30
0.0
 11
-781.8757846143909
 21
-913.6512038782902
 31
0.0
  0
LINE
  5
126
  8
FAB_2$TOP
 10
-781.8757846143909
 20
-913.6512038782902
 30
0.0
 11
-781.7669461674375
 21
-913.9748544911891
 31
0.0
  0
LINE
  5
127
  8
FAB_2$TOP
 10
-781.7669461674375
 20
-913.9748544911891
 30
0.0
 11
-781.6692209621011
 21
-914.3020322884295
 31
0.0
  0
LINE
  5
128
  8
FAB_2$TOP
 10
-781.6692209621011
 20
-914.3020322884295
 30
0.0
 11
-781.5827229415996
 21
-914.6323557953356
 31
0.0
  0
LINE
  5
129
  8
FAB_2$TOP
 10
-781.5827229415996
 20
-914.6323557953356
 30
0.0
 11
-781.5075529587558
 21
-914.965439869474
 31
0.0
  0
LINE
  5
12A
  8
FAB_2$TOP
 10
-781.5075529587558
 20
-914.965439869474
 30
0.0
 11
-781.4437986584071
 21
-915.3008961497131
 31
0.0
  0
LINE
  5
12B
  8
FAB_2$TOP
 10
-781.4437986584071
 20
-915.3008961497131
 30
0.0
 11
-781.3915343752158
 21
-915.6383335090376
 31
0.0
  0
LINE
  5
12C
  8
FAB_2$TOP
 10
-781.3915343752158
 20
-915.6383335090376
 30
0.0
 11
-781.3508210469981
 21
-915.9773585105796
 31
0.0
  0
LINE
  5
12D
  8
FAB_2$TOP
 10
-781.3508210469981
 20
-915.9773585105796
 30
0.0
 11
-781.3217061436736
 21
-916.3175758663535
 31
0.0
  0
LINE
  5
12E
  8
FAB_2$TOP
 10
-781.3217061436736
 20
-916.3175758663535
 30
0.0
 11
-781.3042236119173
 21
-916.65858889814
 31
0.0
  0
LINE
  5
12F
  8
FAB_2$TOP
 10
-781.3042236119173
 20
-916.65858889814
 30
0.0
 11
-781.2983938355791
 21
-917.0
 31
0.0
  0
LINE
  5
130
  8
FAB_2$TOP
 10
-781.2983938355791
 20
-917.0
 30
0.0
 11
-781.2983938355792
 21
-1056.0
 31
0.0
  0
LINE
  5
131
  8
FAB_2$TOP
 10
-781.2983938355792
 20
-1056.0
 30
0.0
 11
-780.953232445882
 21
-1056.005958594489
 31
0.0
  0
LINE
  5
132
  8
FAB_2$TOP
 10
-780.953232445882
 20
-1056.005958594489
 30
0.0
 11
-780.6084823915359
 21
-1056.023827276988
 31
0.0
  0
LINE
  5
133
  8
FAB_2$TOP
 10
-780.6084823915359
 20
-1056.023827276988
 30
0.0
 11
-780.2645545176953
 21
-1056.053584753048
 31
0.0
  0
LINE
  5
134
  8
FAB_2$TOP
 10
-780.2645545176953
 20
-1056.053584753048
 30
0.0
 11
-779.9218586897077
 21
-1056.095195560124
 31
0.0
  0
LINE
  5
135
  8
FAB_2$TOP
 10
-779.9218586897077
 20
-1056.095195560124
 30
0.0
 11
-779.5808033046661
 21
-1056.148610109831
 31
0.0
  0
LINE
  5
136
  8
FAB_2$TOP
 10
-779.5808033046661
 20
-1056.148610109831
 30
0.0
 11
-779.2417948047199
 21
-1056.21376474704
 31
0.0
  0
LINE
  5
137
  8
FAB_2$TOP
 10
-779.2417948047199
 20
-1056.21376474704
 30
0.0
 11
-778.9052371927037
 21
-1056.29058182574
 31
0.0
  0
LINE
  5
138
  8
FAB_2$TOP
 10
-778.9052371927037
 20
-1056.29058182574
 30
0.0
 11
-778.5715315506842
 21
-1056.378969801564
 31
0.0
  0
LINE
  5
139
  8
FAB_2$TOP
 10
-778.5715315506842
 20
-1056.378969801564
 30
0.0
 11
-778.2410755619816
 21
-1056.478823340893
 31
0.0
  0
LINE
  5
13A
  8
FAB_2$TOP
 10
-778.2410755619816
 20
-1056.478823340893
 30
0.0
 11
-777.9142630372423
 21
-1056.590023446376
 31
0.0
  0
LINE
  5
13B
  8
FAB_2$TOP
 10
-777.9142630372423
 20
-1056.590023446376
 30
0.0
 11
-777.5914834451283
 21
-1056.712437598747
 31
0.0
  0
LINE
  5
13C
  8
FAB_2$TOP
 10
-777.5914834451283
 20
-1056.712437598747
 30
0.0
 11
-777.2731214481797
 21
-1056.845919914746
 31
0.0
  0
LINE
  5
13D
  8
FAB_2$TOP
 10
-777.2731214481797
 20
-1056.845919914746
 30
0.0
 11
-776.9595564444033
 21
-1056.990311320976
 31
0.0
  0
LINE
  5
13E
  8
FAB_2$TOP
 10
-776.9595564444033
 20
-1056.990311320976
 30
0.0
 11
-776.6511621151416
 21
-1057.145439743468
 31
0.0
  0
LINE
  5
13F
  8
FAB_2$TOP
 10
-776.6511621151416
 20
-1057.145439743468
 30
0.0
 11
-776.348305979743
 21
-1057.31112031275
 31
0.0
  0
LINE
  5
140
  8
FAB_2$TOP
 10
-776.348305979743
 20
-1057.31112031275
 30
0.0
 11
-776.0513489575891
 21
-1057.487155584156
 31
0.0
  0
LINE
  5
141
  8
FAB_2$TOP
 10
-776.0513489575891
 20
-1057.487155584156
 30
0.0
 11
-775.7606449379738
 21
-1057.673335773128
 31
0.0
  0
LINE
  5
142
  8
FAB_2$TOP
 10
-775.7606449379738
 20
-1057.673335773128
 30
0.0
 11
-775.4765403583717
 21
-1057.869439005214
 31
0.0
  0
LINE
  5
143
  8
FAB_2$TOP
 10
-775.4765403583717
 20
-1057.869439005214
 30
0.0
 11
-775.1993737915783
 21
-1058.075231580489
 31
0.0
  0
LINE
  5
144
  8
FAB_2$TOP
 10
-775.1993737915783
 20
-1058.075231580489
 30
0.0
 11
-774.9294755422304
 21
-1058.29046825205
 31
0.0
  0
LINE
  5
145
  8
FAB_2$TOP
 10
-774.9294755422304
 20
-1058.29046825205
 30
0.0
 11
-774.667167253171
 21
-1058.514892518289
 31
0.0
  0
LINE
  5
146
  8
FAB_2$TOP
 10
-774.667167253171
 20
-1058.514892518289
 30
0.0
 11
-774.4127615221464
 21
-1058.748236928566
 31
0.0
  0
LINE
  5
147
  8
FAB_2$TOP
 10
-774.4127615221464
 20
-1058.748236928566
 30
0.0
 11
-774.1665615292732
 21
-1058.990223401938
 31
0.0
  0
LINE
  5
148
  8
FAB_2$TOP
 10
-774.1665615292732
 20
-1058.990223401938
 30
0.0
 11
-773.9288606757361
 21
-1059.240563558552
 31
0.0
  0
LINE
  5
149
  8
FAB_2$TOP
 10
-773.9288606757361
 20
-1059.240563558552
 30
0.0
 11
-773.6999422341333
 21
-1059.498959063313
 31
0.0
  0
LINE
  5
14A
  8
FAB_2$TOP
 10
-773.6999422341333
 20
-1059.498959063313
 30
0.0
 11
-773.4800790108991
 21
-1059.765101981412
 31
0.0
  0
LINE
  5
14B
  8
FAB_2$TOP
 10
-773.4800790108991
 20
-1059.765101981412
 30
0.0
 11
-773.2695330211902
 21
-1060.038675145308
 31
0.0
  0
LINE
  5
14C
  8
FAB_2$TOP
 10
-773.2695330211902
 20
-1060.038675145308
 30
0.0
 11
-773.0685551766427
 21
-1060.319352532688
 31
0.0
  0
LINE
  5
14D
  8
FAB_2$TOP
 10
-773.0685551766427
 20
-1060.319352532688
 30
0.0
 11
-772.8773849863511
 21
-1060.606799655008
 31
0.0
  0
LINE
  5
14E
  8
FAB_2$TOP
 10
-772.8773849863511
 20
-1060.606799655008
 30
0.0
 11
-772.6962502714442
 21
-1060.900673956099
 31
0.0
  0
LINE
  5
14F
  8
FAB_2$TOP
 10
-772.6962502714442
 20
-1060.900673956099
 30
0.0
 11
-772.5253668935848
 21
-1061.200625220402
 31
0.0
  0
LINE
  5
150
  8
FAB_2$TOP
 10
-772.5253668935848
 20
-1061.200625220402
 30
0.0
 11
-772.3649384977235
 21
-1061.506295990328
 31
0.0
  0
LINE
  5
151
  8
FAB_2$TOP
 10
-772.3649384977235
 20
-1061.506295990328
 30
0.0
 11
-772.2151562694116
 21
-1061.817321992244
 31
0.0
  0
LINE
  5
152
  8
FAB_2$TOP
 10
-772.2151562694116
 20
-1061.817321992244
 30
0.0
 11
-772.076198706961
 21
-1062.133332570586
 31
0.0
  0
LINE
  5
153
  8
FAB_2$TOP
 10
-772.076198706961
 20
-1062.133332570586
 30
0.0
 11
-771.9482314087251
 21
-1062.453951129575
 31
0.0
  0
LINE
  5
154
  8
FAB_2$TOP
 10
-771.9482314087251
 20
-1062.453951129575
 30
0.0
 11
-771.831406875751
 21
-1062.778795582015
 31
0.0
  0
LINE
  5
155
  8
FAB_2$TOP
 10
-771.831406875751
 20
-1062.778795582015
 30
0.0
 11
-771.7258643300429
 21
-1063.107478804635
 31
0.0
  0
LINE
  5
156
  8
FAB_2$TOP
 10
-771.7258643300429
 20
-1063.107478804635
 30
0.0
 11
-771.6317295486468
 21
-1063.439609099425
 31
0.0
  0
LINE
  5
157
  8
FAB_2$TOP
 10
-771.6317295486468
 20
-1063.439609099425
 30
0.0
 11
-771.549114713761
 21
-1063.774790660437
 31
0.0
  0
LINE
  5
158
  8
FAB_2$TOP
 10
-771.549114713761
 20
-1063.774790660437
 30
0.0
 11
-771.4781182790449
 21
-1064.112624045471
 31
0.0
  0
LINE
  5
159
  8
FAB_2$TOP
 10
-771.4781182790449
 20
-1064.112624045471
 30
0.0
 11
-771.4188248522918
 21
-1064.452706652097
 31
0.0
  0
LINE
  5
15A
  8
FAB_2$TOP
 10
-771.4188248522918
 20
-1064.452706652097
 30
0.0
 11
-771.3713050945987
 21
-1064.794633197447
 31
0.0
  0
LINE
  5
15B
  8
FAB_2$TOP
 10
-771.3713050945987
 20
-1064.794633197447
 30
0.0
 11
-771.335615636159
 21
-1065.137996201194
 31
0.0
  0
LINE
  5
15C
  8
FAB_2$TOP
 10
-771.335615636159
 20
-1065.137996201194
 30
0.0
 11
-771.3117990087746
 21
-1065.482386471158
 31
0.0
  0
LINE
  5
15D
  8
FAB_2$TOP
 10
-771.3117990087746
 20
-1065.482386471158
 30
0.0
 11
-771.2998835951707
 21
-1065.827393590946
 31
0.0
  0
LINE
  5
15E
  8
FAB_2$TOP
 10
-771.2998835951707
 20
-1065.827393590946
 30
0.0
 11
-771.2998835951707
 21
-1066.172606409054
 31
0.0
  0
LINE
  5
15F
  8
FAB_2$TOP
 10
-771.2998835951707
 20
-1066.172606409054
 30
0.0
 11
-771.3117990087746
 21
-1066.517613528842
 31
0.0
  0
LINE
  5
160
  8
FAB_2$TOP
 10
-771.3117990087746
 20
-1066.517613528842
 30
0.0
 11
-771.335615636159
 21
-1066.862003798806
 31
0.0
  0
LINE
  5
161
  8
FAB_2$TOP
 10
-771.335615636159
 20
-1066.862003798806
 30
0.0
 11
-771.3713050945987
 21
-1067.205366802553
 31
0.0
  0
LINE
  5
162
  8
FAB_2$TOP
 10
-771.3713050945987
 20
-1067.205366802553
 30
0.0
 11
-771.4188248522918
 21
-1067.547293347903
 31
0.0
  0
LINE
  5
163
  8
FAB_2$TOP
 10
-771.4188248522918
 20
-1067.547293347903
 30
0.0
 11
-771.4781182790449
 21
-1067.887375954529
 31
0.0
  0
LINE
  5
164
  8
FAB_2$TOP
 10
-771.4781182790449
 20
-1067.887375954529
 30
0.0
 11
-771.5491147137609
 21
-1068.225209339563
 31
0.0
  0
LINE
  5
165
  8
FAB_2$TOP
 10
-771.5491147137609
 20
-1068.225209339563
 30
0.0
 11
-771.6317295486471
 21
-1068.560390900576
 31
0.0
  0
LINE
  5
166
  8
FAB_2$TOP
 10
-771.6317295486471
 20
-1068.560390900576
 30
0.0
 11
-771.725864330043
 21
-1068.892521195366
 31
0.0
  0
LINE
  5
167
  8
FAB_2$TOP
 10
-771.725864330043
 20
-1068.892521195366
 30
0.0
 11
-771.831406875751
 21
-1069.221204417985
 31
0.0
  0
LINE
  5
168
  8
FAB_2$TOP
 10
-771.831406875751
 20
-1069.221204417985
 30
0.0
 11
-771.9482314087251
 21
-1069.546048870425
 31
0.0
  0
LINE
  5
169
  8
FAB_2$TOP
 10
-771.9482314087251
 20
-1069.546048870425
 30
0.0
 11
-772.076198706961
 21
-1069.866667429414
 31
0.0
  0
LINE
  5
16A
  8
FAB_2$TOP
 10
-772.076198706961
 20
-1069.866667429414
 30
0.0
 11
-772.2151562694116
 21
-1070.182678007756
 31
0.0
  0
LINE
  5
16B
  8
FAB_2$TOP
 10
-772.2151562694116
 20
-1070.182678007756
 30
0.0
 11
-772.3649384977235
 21
-1070.493704009672
 31
0.0
  0
LINE
  5
16C
  8
FAB_2$TOP
 10
-772.3649384977235
 20
-1070.493704009672
 30
0.0
 11
-772.5253668935848
 21
-1070.799374779598
 31
0.0
  0
LINE
  5
16D
  8
FAB_2$TOP
 10
-772.5253668935848
 20
-1070.799374779598
 30
0.0
 11
-772.6962502714442
 21
-1071.099326043901
 31
0.0
  0
LINE
  5
16E
  8
FAB_2$TOP
 10
-772.6962502714442
 20
-1071.099326043901
 30
0.0
 11
-772.8773849863511
 21
-1071.393200344992
 31
0.0
  0
LINE
  5
16F
  8
FAB_2$TOP
 10
-772.8773849863511
 20
-1071.393200344992
 30
0.0
 11
-773.0685551766427
 21
-1071.680647467312
 31
0.0
  0
LINE
  5
170
  8
FAB_2$TOP
 10
-773.0685551766427
 20
-1071.680647467312
 30
0.0
 11
-773.2695330211905
 21
-1071.961324854693
 31
0.0
  0
LINE
  5
171
  8
FAB_2$TOP
 10
-773.2695330211905
 20
-1071.961324854693
 30
0.0
 11
-773.4800790108991
 21
-1072.234898018588
 31
0.0
  0
LINE
  5
172
  8
FAB_2$TOP
 10
-773.4800790108991
 20
-1072.234898018588
 30
0.0
 11
-773.6999422341333
 21
-1072.501040936687
 31
0.0
  0
LINE
  5
173
  8
FAB_2$TOP
 10
-773.6999422341333
 20
-1072.501040936687
 30
0.0
 11
-773.9288606757361
 21
-1072.759436441448
 31
0.0
  0
LINE
  5
174
  8
FAB_2$TOP
 10
-773.9288606757361
 20
-1072.759436441448
 30
0.0
 11
-774.1665615292732
 21
-1073.009776598062
 31
0.0
  0
LINE
  5
175
  8
FAB_2$TOP
 10
-774.1665615292732
 20
-1073.009776598062
 30
0.0
 11
-774.4127615221461
 21
-1073.251763071434
 31
0.0
  0
LINE
  5
176
  8
FAB_2$TOP
 10
-774.4127615221461
 20
-1073.251763071434
 30
0.0
 11
-774.6671672531713
 21
-1073.485107481711
 31
0.0
  0
LINE
  5
177
  8
FAB_2$TOP
 10
-774.6671672531713
 20
-1073.485107481711
 30
0.0
 11
-774.9294755422301
 21
-1073.70953174795
 31
0.0
  0
LINE
  5
178
  8
FAB_2$TOP
 10
-774.9294755422301
 20
-1073.70953174795
 30
0.0
 11
-775.1993737915783
 21
-1073.924768419511
 31
0.0
  0
LINE
  5
179
  8
FAB_2$TOP
 10
-775.1993737915783
 20
-1073.924768419511
 30
0.0
 11
-775.4765403583717
 21
-1074.130560994786
 31
0.0
  0
LINE
  5
17A
  8
FAB_2$TOP
 10
-775.4765403583717
 20
-1074.130560994786
 30
0.0
 11
-775.7606449379738
 21
-1074.326664226872
 31
0.0
  0
LINE
  5
17B
  8
FAB_2$TOP
 10
-775.7606449379738
 20
-1074.326664226872
 30
0.0
 11
-776.0513489575891
 21
-1074.512844415844
 31
0.0
  0
LINE
  5
17C
  8
FAB_2$TOP
 10
-776.0513489575891
 20
-1074.512844415844
 30
0.0
 11
-776.3483059797434
 21
-1074.68887968725
 31
0.0
  0
LINE
  5
17D
  8
FAB_2$TOP
 10
-776.3483059797434
 20
-1074.68887968725
 30
0.0
 11
-776.6511621151416
 21
-1074.854560256532
 31
0.0
  0
LINE
  5
17E
  8
FAB_2$TOP
 10
-776.6511621151416
 20
-1074.854560256532
 30
0.0
 11
-776.9595564444033
 21
-1075.009688679024
 31
0.0
  0
LINE
  5
17F
  8
FAB_2$TOP
 10
-776.9595564444033
 20
-1075.009688679024
 30
0.0
 11
-777.2731214481797
 21
-1075.154080085254
 31
0.0
  0
LINE
  5
180
  8
FAB_2$TOP
 10
-777.2731214481797
 20
-1075.154080085254
 30
0.0
 11
-777.5914834451283
 21
-1075.287562401253
 31
0.0
  0
LINE
  5
181
  8
FAB_2$TOP
 10
-777.5914834451283
 20
-1075.287562401253
 30
0.0
 11
-777.9142630372428
 21
-1075.409976553624
 31
0.0
  0
LINE
  5
182
  8
FAB_2$TOP
 10
-777.9142630372428
 20
-1075.409976553624
 30
0.0
 11
-778.2410755619816
 21
-1075.521176659107
 31
0.0
  0
LINE
  5
183
  8
FAB_2$TOP
 10
-778.2410755619816
 20
-1075.521176659107
 30
0.0
 11
-778.5715315506842
 21
-1075.621030198436
 31
0.0
  0
LINE
  5
184
  8
FAB_2$TOP
 10
-778.5715315506842
 20
-1075.621030198436
 30
0.0
 11
-778.9052371927037
 21
-1075.70941817426
 31
0.0
  0
LINE
  5
185
  8
FAB_2$TOP
 10
-778.9052371927037
 20
-1075.70941817426
 30
0.0
 11
-779.2417948047199
 21
-1075.78623525296
 31
0.0
  0
LINE
  5
186
  8
FAB_2$TOP
 10
-779.2417948047199
 20
-1075.78623525296
 30
0.0
 11
-779.5808033046661
 21
-1075.851389890169
 31
0.0
  0
LINE
  5
187
  8
FAB_2$TOP
 10
-779.5808033046661
 20
-1075.851389890169
 30
0.0
 11
-779.9218586897077
 21
-1075.904804439876
 31
0.0
  0
LINE
  5
188
  8
FAB_2$TOP
 10
-779.9218586897077
 20
-1075.904804439876
 30
0.0
 11
-780.2645545176953
 21
-1075.946415246952
 31
0.0
  0
LINE
  5
189
  8
FAB_2$TOP
 10
-780.2645545176953
 20
-1075.946415246952
 30
0.0
 11
-780.6084823915359
 21
-1075.976172723012
 31
0.0
  0
LINE
  5
18A
  8
FAB_2$TOP
 10
-780.6084823915359
 20
-1075.976172723012
 30
0.0
 11
-780.953232445882
 21
-1075.994041405511
 31
0.0
  0
LINE
  5
18B
  8
FAB_2$TOP
 10
-780.953232445882
 20
-1075.994041405511
 30
0.0
 11
-781.2983938355792
 21
-1076.0
 31
0.0
  0
LINE
  5
18C
  8
FAB_2$TOP
 10
-781.2983938355792
 20
-1076.0
 30
0.0
 11
-781.2983938355792
 21
-1184.252259786559
 31
0.0
  0
LINE
  5
18D
  8
FAB_2$TOP
 10
-781.2983938355792
 20
-1184.252259786559
 30
0.0
 11
-781.2983938355792
 21
-1216.5
 31
0.0
  0
LINE
  5
18E
  8
FAB_2$TOP
 10
-781.2983938355792
 20
-1216.5
 30
0.0
 11
-781.3042236119175
 21
-1216.84141110186
 31
0.0
  0
LINE
  5
18F
  8
FAB_2$TOP
 10
-781.3042236119175
 20
-1216.84141110186
 30
0.0
 11
-781.3217061436739
 21
-1217.182424133647
 31
0.0
  0
LINE
  5
190
  8
FAB_2$TOP
 10
-781.3217061436739
 20
-1217.182424133647
 30
0.0
 11
-781.3508210469982
 21
-1217.52264148942
 31
0.0
  0
LINE
  5
191
  8
FAB_2$TOP
 10
-781.3508210469982
 20
-1217.52264148942
 30
0.0
 11
-781.3915343752158
 21
-1217.861666490962
 31
0.0
  0
LINE
  5
192
  8
FAB_2$TOP
 10
-781.3915343752158
 20
-1217.861666490962
 30
0.0
 11
-781.4437986584072
 21
-1218.199103850287
 31
0.0
  0
LINE
  5
193
  8
FAB_2$TOP
 10
-781.4437986584072
 20
-1218.199103850287
 30
0.0
 11
-781.5075529587559
 21
-1218.534560130526
 31
0.0
  0
LINE
  5
194
  8
FAB_2$TOP
 10
-781.5075529587559
 20
-1218.534560130526
 30
0.0
 11
-781.5827229415997
 21
-1218.867644204664
 31
0.0
  0
LINE
  5
195
  8
FAB_2$TOP
 10
-781.5827229415997
 20
-1218.867644204664
 30
0.0
 11
-781.6692209621012
 21
-1219.197967711571
 31
0.0
  0
LINE
  5
196
  8
FAB_2$TOP
 10
-781.6692209621012
 20
-1219.197967711571
 30
0.0
 11
-781.7669461674376
 21
-1219.525145508811
 31
0.0
  0
LINE
  5
197
  8
FAB_2$TOP
 10
-781.7669461674376
 20
-1219.525145508811
 30
0.0
 11
-781.875784614391
 21
-1219.84879612171
 31
0.0
  0
LINE
  5
198
  8
FAB_2$TOP
 10
-781.875784614391
 20
-1219.84879612171
 30
0.0
 11
-781.9956094022008
 21
-1220.16854218813
 31
0.0
  0
LINE
  5
199
  8
FAB_2$TOP
 10
-781.9956094022008
 20
-1220.16854218813
 30
0.0
 11
-782.1262808205247
 21
-1220.484010898463
 31
0.0
  0
LINE
  5
19A
  8
FAB_2$TOP
 10
-782.1262808205247
 20
-1220.484010898463
 30
0.0
 11
-782.2676465123338
 21
-1220.794834430301
 31
0.0
  0
LINE
  5
19B
  8
FAB_2$TOP
 10
-782.2676465123338
 20
-1220.794834430301
 30
0.0
 11
-782.4195416515554
 21
-1221.100650377311
 31
0.0
  0
LINE
  5
19C
  8
FAB_2$TOP
 10
-782.4195416515554
 20
-1221.100650377311
 30
0.0
 11
-782.5817891352518
 21
-1221.40110217178
 31
0.0
  0
LINE
  5
19D
  8
FAB_2$TOP
 10
-782.5817891352518
 20
-1221.40110217178
 30
0.0
 11
-782.7541997901146
 21
-1221.695839500355
 31
0.0
  0
LINE
  5
19E
  8
FAB_2$TOP
 10
-782.7541997901146
 20
-1221.695839500355
 30
0.0
 11
-782.936572593032
 21
-1221.984518712493
 31
0.0
  0
LINE
  5
19F
  8
FAB_2$TOP
 10
-782.936572593032
 20
-1221.984518712493
 30
0.0
 11
-783.1286949054746
 21
-1222.266803221148
 31
0.0
  0
LINE
  5
1A0
  8
FAB_2$TOP
 10
-783.1286949054746
 20
-1222.266803221148
 30
0.0
 11
-783.3303427214205
 21
-1222.542363895211
 31
0.0
  0
LINE
  5
1A1
  8
FAB_2$TOP
 10
-783.3303427214205
 20
-1222.542363895211
 30
0.0
 11
-783.541280928535
 21
-1222.810879443261
 31
0.0
  0
LINE
  5
1A2
  8
FAB_2$TOP
 10
-783.541280928535
 20
-1222.810879443261
 30
0.0
 11
-783.7612635823058
 21
-1223.07203678818
 31
0.0
  0
LINE
  5
1A3
  8
FAB_2$TOP
 10
-783.7612635823058
 20
-1223.07203678818
 30
0.0
 11
-783.9900341927977
 21
-1223.325531432186
 31
0.0
  0
LINE
  5
1A4
  8
FAB_2$TOP
 10
-783.9900341927977
 20
-1223.325531432186
 30
0.0
 11
-784.2273260237138
 21
-1223.571067811866
 31
0.0
  0
LINE
  5
1A5
  8
FAB_2$TOP
 10
-784.2273260237138
 20
-1223.571067811866
 30
0.0
 11
-784.4728624033929
 21
-1223.808359642781
 31
0.0
  0
LINE
  5
1A6
  8
FAB_2$TOP
 10
-784.4728624033929
 20
-1223.808359642781
 30
0.0
 11
-784.7263570473992
 21
-1224.037130253274
 31
0.0
  0
LINE
  5
1A7
  8
FAB_2$TOP
 10
-784.7263570473992
 20
-1224.037130253274
 30
0.0
 11
-784.9875143923186
 21
-1224.257112907044
 31
0.0
  0
LINE
  5
1A8
  8
FAB_2$TOP
 10
-784.9875143923186
 20
-1224.257112907044
 30
0.0
 11
-785.2560299403682
 21
-1224.468051114159
 31
0.0
  0
LINE
  5
1A9
  8
FAB_2$TOP
 10
-785.2560299403682
 20
-1224.468051114159
 30
0.0
 11
-785.5315906144303
 21
-1224.669698930104
 31
0.0
  0
LINE
  5
1AA
  8
FAB_2$TOP
 10
-785.5315906144303
 20
-1224.669698930104
 30
0.0
 11
-785.8138751230861
 21
-1224.861821242547
 31
0.0
  0
LINE
  5
1AB
  8
FAB_2$TOP
 10
-785.8138751230861
 20
-1224.861821242547
 30
0.0
 11
-786.1025543352252
 21
-1225.044194045465
 31
0.0
  0
LINE
  5
1AC
  8
FAB_2$TOP
 10
-786.1025543352252
 20
-1225.044194045465
 30
0.0
 11
-786.3972916637993
 21
-1225.216604700328
 31
0.0
  0
LINE
  5
1AD
  8
FAB_2$TOP
 10
-786.3972916637993
 20
-1225.216604700328
 30
0.0
 11
-786.6977434582677
 21
-1225.378852184024
 31
0.0
  0
LINE
  5
1AE
  8
FAB_2$TOP
 10
-786.6977434582677
 20
-1225.378852184024
 30
0.0
 11
-787.0035594052788
 21
-1225.530747323246
 31
0.0
  0
LINE
  5
1AF
  8
FAB_2$TOP
 10
-787.0035594052788
 20
-1225.530747323246
 30
0.0
 11
-787.3143829371166
 21
-1225.672113015054
 31
0.0
  0
LINE
  5
1B0
  8
FAB_2$TOP
 10
-787.3143829371166
 20
-1225.672113015054
 30
0.0
 11
-787.6298516474484
 21
-1225.802784433378
 31
0.0
  0
LINE
  5
1B1
  8
FAB_2$TOP
 10
-787.6298516474484
 20
-1225.802784433378
 30
0.0
 11
-787.9495977138689
 21
-1225.922609221188
 31
0.0
  0
LINE
  5
1B2
  8
FAB_2$TOP
 10
-787.9495977138689
 20
-1225.922609221188
 30
0.0
 11
-788.2732483267683
 21
-1226.031447668141
 31
0.0
  0
LINE
  5
1B3
  8
FAB_2$TOP
 10
-788.2732483267683
 20
-1226.031447668141
 30
0.0
 11
-788.6004261240087
 21
-1226.129172873478
 31
0.0
  0
LINE
  5
1B4
  8
FAB_2$TOP
 10
-788.6004261240087
 20
-1226.129172873478
 30
0.0
 11
-788.9307496309143
 21
-1226.215670893979
 31
0.0
  0
LINE
  5
1B5
  8
FAB_2$TOP
 10
-788.9307496309143
 20
-1226.215670893979
 30
0.0
 11
-789.2638337050528
 21
-1226.290840876823
 31
0.0
  0
LINE
  5
1B6
  8
FAB_2$TOP
 10
-789.2638337050528
 20
-1226.290840876823
 30
0.0
 11
-789.5992899852923
 21
-1226.354595177172
 31
0.0
  0
LINE
  5
1B7
  8
FAB_2$TOP
 10
-789.5992899852923
 20
-1226.354595177172
 30
0.0
 11
-789.9367273446168
 21
-1226.406859460363
 31
0.0
  0
LINE
  5
1B8
  8
FAB_2$TOP
 10
-789.9367273446168
 20
-1226.406859460363
 30
0.0
 11
-790.2757523461588
 21
-1226.447572788581
 31
0.0
  0
LINE
  5
1B9
  8
FAB_2$TOP
 10
-790.2757523461588
 20
-1226.447572788581
 30
0.0
 11
-790.6159697019323
 21
-1226.476687691905
 31
0.0
  0
LINE
  5
1BA
  8
FAB_2$TOP
 10
-790.6159697019323
 20
-1226.476687691905
 30
0.0
 11
-790.9569827337197
 21
-1226.494170223662
 31
0.0
  0
LINE
  5
1BB
  8
FAB_2$TOP
 10
-790.9569827337197
 20
-1226.494170223662
 30
0.0
 11
-791.2983938355792
 21
-1226.5
 31
0.0
  0
LINE
  5
1BC
  8
FAB_2$TOP
 10
-791.2983938355792
 20
-1226.5
 30
0.0
 11
-996.2983938355792
 21
-1226.5
 31
0.0
  0
LINE
  5
1BD
  8
FAB_2$TOP
 10
-996.2983938355792
 20
-1226.5
 30
0.0
 11
-996.6398049374387
 21
-1226.494170223662
 31
0.0
  0
LINE
  5
1BE
  8
FAB_2$TOP
 10
-996.6398049374387
 20
-1226.494170223662
 30
0.0
 11
-996.9808179692257
 21
-1226.476687691905
 31
0.0
  0
LINE
  5
1BF
  8
FAB_2$TOP
 10
-996.9808179692257
 20
-1226.476687691905
 30
0.0
 11
-997.3210353249996
 21
-1226.447572788581
 31
0.0
  0
LINE
  5
1C0
  8
FAB_2$TOP
 10
-997.3210353249996
 20
-1226.447572788581
 30
0.0
 11
-997.6600603265416
 21
-1226.406859460363
 31
0.0
  0
LINE
  5
1C1
  8
FAB_2$TOP
 10
-997.6600603265416
 20
-1226.406859460363
 30
0.0
 11
-997.9974976858656
 21
-1226.354595177172
 31
0.0
  0
LINE
  5
1C2
  8
FAB_2$TOP
 10
-997.9974976858656
 20
-1226.354595177172
 30
0.0
 11
-998.3329539661056
 21
-1226.290840876823
 31
0.0
  0
LINE
  5
1C3
  8
FAB_2$TOP
 10
-998.3329539661056
 20
-1226.290840876823
 30
0.0
 11
-998.6660380402436
 21
-1226.215670893979
 31
0.0
  0
LINE
  5
1C4
  8
FAB_2$TOP
 10
-998.6660380402436
 20
-1226.215670893979
 30
0.0
 11
-998.9963615471493
 21
-1226.129172873478
 31
0.0
  0
LINE
  5
1C5
  8
FAB_2$TOP
 10
-998.9963615471493
 20
-1226.129172873478
 30
0.0
 11
-999.32353934439
 21
-1226.031447668141
 31
0.0
  0
LINE
  5
1C6
  8
FAB_2$TOP
 10
-999.32353934439
 20
-1226.031447668141
 30
0.0
 11
-999.647189957289
 21
-1225.922609221188
 31
0.0
  0
LINE
  5
1C7
  8
FAB_2$TOP
 10
-999.647189957289
 20
-1225.922609221188
 30
0.0
 11
-999.9669360237096
 21
-1225.802784433378
 31
0.0
  0
LINE
  5
1C8
  8
FAB_2$TOP
 10
-999.9669360237096
 20
-1225.802784433378
 30
0.0
 11
-1000.282404734042
 21
-1225.672113015054
 31
0.0
  0
LINE
  5
1C9
  8
FAB_2$TOP
 10
-1000.282404734042
 20
-1225.672113015054
 30
0.0
 11
-1000.59322826588
 21
-1225.530747323245
 31
0.0
  0
LINE
  5
1CA
  8
FAB_2$TOP
 10
-1000.59322826588
 20
-1225.530747323245
 30
0.0
 11
-1000.899044212891
 21
-1225.378852184024
 31
0.0
  0
LINE
  5
1CB
  8
FAB_2$TOP
 10
-1000.899044212891
 20
-1225.378852184024
 30
0.0
 11
-1001.199496007359
 21
-1225.216604700327
 31
0.0
  0
LINE
  5
1CC
  8
FAB_2$TOP
 10
-1001.199496007359
 20
-1225.216604700327
 30
0.0
 11
-1001.494233335934
 21
-1225.044194045465
 31
0.0
  0
LINE
  5
1CD
  8
FAB_2$TOP
 10
-1001.494233335934
 20
-1225.044194045465
 30
0.0
 11
-1001.782912548072
 21
-1224.861821242547
 31
0.0
  0
LINE
  5
1CE
  8
FAB_2$TOP
 10
-1001.782912548072
 20
-1224.861821242547
 30
0.0
 11
-1002.065197056728
 21
-1224.669698930104
 31
0.0
  0
LINE
  5
1CF
  8
FAB_2$TOP
 10
-1002.065197056728
 20
-1224.669698930104
 30
0.0
 11
-1002.34075773079
 21
-1224.468051114159
 31
0.0
  0
LINE
  5
1D0
  8
FAB_2$TOP
 10
-1002.34075773079
 20
-1224.468051114159
 30
0.0
 11
-1002.60927327884
 21
-1224.257112907044
 31
0.0
  0
LINE
  5
1D1
  8
FAB_2$TOP
 10
-1002.60927327884
 20
-1224.257112907044
 30
0.0
 11
-1002.870430623759
 21
-1224.037130253273
 31
0.0
  0
LINE
  5
1D2
  8
FAB_2$TOP
 10
-1002.870430623759
 20
-1224.037130253273
 30
0.0
 11
-1003.123925267765
 21
-1223.808359642781
 31
0.0
  0
LINE
  5
1D3
  8
FAB_2$TOP
 10
-1003.123925267765
 20
-1223.808359642781
 30
0.0
 11
-1003.369461647445
 21
-1223.571067811865
 31
0.0
  0
LINE
  5
1D4
  8
FAB_2$TOP
 10
-1003.369461647445
 20
-1223.571067811865
 30
0.0
 11
-1003.606753478361
 21
-1223.325531432186
 31
0.0
  0
LINE
  5
1D5
  8
FAB_2$TOP
 10
-1003.606753478361
 20
-1223.325531432186
 30
0.0
 11
-1003.835524088853
 21
-1223.07203678818
 31
0.0
  0
LINE
  5
1D6
  8
FAB_2$TOP
 10
-1003.835524088853
 20
-1223.07203678818
 30
0.0
 11
-1004.055506742623
 21
-1222.81087944326
 31
0.0
  0
LINE
  5
1D7
  8
FAB_2$TOP
 10
-1004.055506742623
 20
-1222.81087944326
 30
0.0
 11
-1004.266444949738
 21
-1222.54236389521
 31
0.0
  0
LINE
  5
1D8
  8
FAB_2$TOP
 10
-1004.266444949738
 20
-1222.54236389521
 30
0.0
 11
-1004.468092765683
 21
-1222.266803221149
 31
0.0
  0
LINE
  5
1D9
  8
FAB_2$TOP
 10
-1004.468092765683
 20
-1222.266803221149
 30
0.0
 11
-1004.660215078126
 21
-1221.984518712493
 31
0.0
  0
LINE
  5
1DA
  8
FAB_2$TOP
 10
-1004.660215078126
 20
-1221.984518712493
 30
0.0
 11
-1004.842587881044
 21
-1221.695839500354
 31
0.0
  0
LINE
  5
1DB
  8
FAB_2$TOP
 10
-1004.842587881044
 20
-1221.695839500354
 30
0.0
 11
-1005.014998535907
 21
-1221.40110217178
 31
0.0
  0
LINE
  5
1DC
  8
FAB_2$TOP
 10
-1005.014998535907
 20
-1221.40110217178
 30
0.0
 11
-1005.177246019603
 21
-1221.100650377312
 31
0.0
  0
LINE
  5
1DD
  8
FAB_2$TOP
 10
-1005.177246019603
 20
-1221.100650377312
 30
0.0
 11
-1005.329141158824
 21
-1220.794834430301
 31
0.0
  0
LINE
  5
1DE
  8
FAB_2$TOP
 10
-1005.329141158824
 20
-1220.794834430301
 30
0.0
 11
-1005.470506850634
 21
-1220.484010898462
 31
0.0
  0
LINE
  5
1DF
  8
FAB_2$TOP
 10
-1005.470506850634
 20
-1220.484010898462
 30
0.0
 11
-1005.601178268957
 21
-1220.16854218813
 31
0.0
  0
LINE
  5
1E0
  8
FAB_2$TOP
 10
-1005.601178268957
 20
-1220.16854218813
 30
0.0
 11
-1005.721003056767
 21
-1219.84879612171
 31
0.0
  0
LINE
  5
1E1
  8
FAB_2$TOP
 10
-1005.721003056767
 20
-1219.84879612171
 30
0.0
 11
-1005.829841503721
 21
-1219.52514550881
 31
0.0
  0
LINE
  5
1E2
  8
FAB_2$TOP
 10
-1005.829841503721
 20
-1219.52514550881
 30
0.0
 11
-1005.927566709057
 21
-1219.19796771157
 31
0.0
  0
LINE
  5
1E3
  8
FAB_2$TOP
 10
-1005.927566709057
 20
-1219.19796771157
 30
0.0
 11
-1006.014064729559
 21
-1218.867644204664
 31
0.0
  0
LINE
  5
1E4
  8
FAB_2$TOP
 10
-1006.014064729559
 20
-1218.867644204664
 30
0.0
 11
-1006.089234712402
 21
-1218.534560130526
 31
0.0
  0
LINE
  5
1E5
  8
FAB_2$TOP
 10
-1006.089234712402
 20
-1218.534560130526
 30
0.0
 11
-1006.152989012751
 21
-1218.199103850286
 31
0.0
  0
LINE
  5
1E6
  8
FAB_2$TOP
 10
-1006.152989012751
 20
-1218.199103850286
 30
0.0
 11
-1006.205253295942
 21
-1217.861666490963
 31
0.0
  0
LINE
  5
1E7
  8
FAB_2$TOP
 10
-1006.205253295942
 20
-1217.861666490963
 30
0.0
 11
-1006.24596662416
 21
-1217.52264148942
 31
0.0
  0
LINE
  5
1E8
  8
FAB_2$TOP
 10
-1006.24596662416
 20
-1217.52264148942
 30
0.0
 11
-1006.275081527484
 21
-1217.182424133647
 31
0.0
  0
LINE
  5
1E9
  8
FAB_2$TOP
 10
-1006.275081527484
 20
-1217.182424133647
 30
0.0
 11
-1006.292564059241
 21
-1216.841411101859
 31
0.0
  0
LINE
  5
1EA
  8
FAB_2$TOP
 10
-1006.292564059241
 20
-1216.841411101859
 30
0.0
 11
-1006.298393835579
 21
-1216.5
 31
0.0
  0
LINE
  5
1EB
  8
FAB_2$TOP
 10
-1006.298393835579
 20
-1216.5
 30
0.0
 11
-1006.298393835579
 21
-1076.0
 31
0.0
  0
LINE
  5
1EC
  8
FAB_2$TOP
 10
-1043.298393835579
 20
-1184.252259786559
 30
0.0
 11
-1043.298393835579
 21
-1246.5
 31
0.0
  0
ARC
  5
1ED
  8
FAB_2$TOP
 10
-1028.298393835579
 20
-1246.5
 30
0.0
 40
15.00000000000045
 50
180.0000000000026
 51
269.9999999999983
  0
LINE
  5
1EE
  8
FAB_2$TOP
 10
-1028.298393835579
 20
-1261.5
 30
0.0
 11
-759.2983938355794
 21
-1261.5
 31
0.0
  0
ARC
  5
1EF
  8
FAB_2$TOP
 10
-759.2983938355799
 20
-1246.5
 30
0.0
 40
15.00000000000045
 50
270.0000000000017
 51
359.9999999999983
  0
LINE
  5
1F0
  8
FAB_2$TOP
 10
-744.2983938355792
 20
-1246.5
 30
0.0
 11
-744.2983938355792
 21
-1184.252259786558
 31
0.0
  0
LINE
  5
1F1
  8
FAB_2$TOP
 10
-744.2983938355792
 20
-1184.252259786558
 30
0.0
 11
-744.2983938355792
 21
-887.0
 31
0.0
  0
LINE
  5
1F2
  8
FAB_2$TOP
 10
-744.2983938355792
 20
-887.0
 30
0.0
 11
-744.3074062173971
 21
-886.4801915720565
 31
0.0
  0
LINE
  5
1F3
  8
FAB_2$TOP
 10
-744.3074062173971
 20
-886.4801915720565
 30
0.0
 11
-744.3344259006707
 21
-885.9610076340315
 31
0.0
  0
LINE
  5
1F4
  8
FAB_2$TOP
 10
-744.3344259006707
 20
-885.9610076340315
 30
0.0
 11
-744.3794204303432
 21
-885.4430718107031
 31
0.0
  0
LINE
  5
1F5
  8
FAB_2$TOP
 10
-744.3794204303432
 20
-885.4430718107031
 30
0.0
 11
-744.4423357606298
 21
-884.9270062276596
 31
0.0
  0
LINE
  5
1F6
  8
FAB_2$TOP
 10
-744.4423357606298
 20
-884.9270062276596
 30
0.0
 11
-744.5230963199344
 21
-884.4134307640246
 31
0.0
  0
LINE
  5
1F7
  8
FAB_2$TOP
 10
-744.5230963199344
 20
-884.4134307640246
 30
0.0
 11
-744.6216051016238
 21
-883.9029623078811
 31
0.0
  0
LINE
  5
1F8
  8
FAB_2$TOP
 10
-744.6216051016238
 20
-883.9029623078811
 30
0.0
 11
-744.7377437805482
 21
-883.3962140152892
 31
0.0
  0
LINE
  5
1F9
  8
FAB_2$TOP
 10
-744.7377437805482
 20
-883.3962140152892
 30
0.0
 11
-744.8713728551697
 21
-882.8937945737835
 31
0.0
  0
LINE
  5
1FA
  8
FAB_2$TOP
 10
-744.8713728551697
 20
-882.8937945737835
 30
0.0
 11
-745.0223318151262
 21
-882.3963074712409
 31
0.0
  0
LINE
  5
1FB
  8
FAB_2$TOP
 10
-745.0223318151262
 20
-882.3963074712409
 30
0.0
 11
-745.1904393340301
 21
-881.9043502709937
 31
0.0
  0
LINE
  5
1FC
  8
FAB_2$TOP
 10
-745.1904393340301
 20
-881.9043502709937
 30
0.0
 11
-745.3754934872717
 21
-881.4185138940567
 31
0.0
  0
LINE
  5
1FD
  8
FAB_2$TOP
 10
-745.3754934872717
 20
-881.4185138940567
 30
0.0
 11
-745.577271994563
 21
-880.9393819093357
 31
0.0
  0
LINE
  5
1FE
  8
FAB_2$TOP
 10
-745.577271994563
 20
-880.9393819093357
 30
0.0
 11
-745.7955324869332
 21
-880.4675298326662
 31
0.0
  0
LINE
  5
1FF
  8
FAB_2$TOP
 10
-745.7955324869332
 20
-880.4675298326662
 30
0.0
 11
-746.0300127978529
 21
-880.0035244355226
 31
0.0
  0
LINE
  5
200
  8
FAB_2$TOP
 10
-746.0300127978529
 20
-880.0035244355226
 30
0.0
 11
-746.2804312781396
 21
-879.5479230642361
 31
0.0
  0
LINE
  5
201
  8
FAB_2$TOP
 10
-746.2804312781396
 20
-879.5479230642361
 30
0.0
 11
-746.5464871342637
 21
-879.1012729705282
 31
0.0
  0
LINE
  5
202
  8
FAB_2$TOP
 10
-746.5464871342637
 20
-879.1012729705282
 30
0.0
 11
-746.8278607896511
 21
-878.6641106541729
 31
0.0
  0
LINE
  5
203
  8
FAB_2$TOP
 10
-746.8278607896511
 20
-878.6641106541729
 30
0.0
 11
-747.1242142685473
 21
-878.2369612185729
 31
0.0
  0
LINE
  5
204
  8
FAB_2$TOP
 10
-747.1242142685473
 20
-878.2369612185729
 30
0.0
 11
-747.4351916019806
 21
-877.8203377400243
 31
0.0
  0
LINE
  5
205
  8
FAB_2$TOP
 10
-747.4351916019806
 20
-877.8203377400243
 30
0.0
 11
-747.7604192553398
 21
-877.4147406514281
 31
0.0
  0
LINE
  5
206
  8
FAB_2$TOP
 10
-747.7604192553398
 20
-877.4147406514281
 30
0.0
 11
-748.0995065770497
 21
-877.0206571411885
 31
0.0
  0
LINE
  5
207
  8
FAB_2$TOP
 10
-748.0995065770497
 20
-877.0206571411885
 30
0.0
 11
-748.4520462678083
 21
-876.63856056802
 31
0.0
  0
LINE
  5
208
  8
FAB_2$TOP
 10
-748.4520462678083
 20
-876.63856056802
 30
0.0
 11
-748.8176148698192
 21
-876.2689098923665
 31
0.0
  0
LINE
  5
209
  8
FAB_2$TOP
 10
-748.8176148698192
 20
-876.2689098923665
 30
0.0
 11
-749.1957732754336
 21
-875.9121491251144
 31
0.0
  0
LINE
  5
20A
  8
FAB_2$TOP
 10
-749.1957732754336
 20
-875.9121491251144
 30
0.0
 11
-749.5860672545908
 21
-875.5687067942627
 31
0.0
  0
LINE
  5
20B
  8
FAB_2$TOP
 10
-749.5860672545908
 20
-875.5687067942627
 30
0.0
 11
-749.9880280004227
 21
-875.2389954301918
 31
0.0
  0
LINE
  5
20C
  8
FAB_2$TOP
 10
-749.9880280004227
 20
-875.2389954301918
 30
0.0
 11
-750.4011726923669
 21
-874.9234110701459
 31
0.0
  0
LINE
  5
20D
  8
FAB_2$TOP
 10
-750.4011726923669
 20
-874.9234110701459
 30
0.0
 11
-750.8250050761137
 21
-874.6223327825286
 31
0.0
  0
LINE
  5
20E
  8
FAB_2$TOP
 10
-750.8250050761137
 20
-874.6223327825286
 30
0.0
 11
-751.2590160596889
 21
-874.3361222115786
 31
0.0
  0
LINE
  5
20F
  8
FAB_2$TOP
 10
-751.2590160596889
 20
-874.3361222115786
 30
0.0
 11
-751.7026843249553
 21
-874.0651231429775
 31
0.0
  0
LINE
  5
210
  8
FAB_2$TOP
 10
-751.7026843249553
 20
-874.0651231429775
 30
0.0
 11
-752.1554769538025
 21
-873.8096610909053
 31
0.0
  0
LINE
  5
211
  8
FAB_2$TOP
 10
-752.1554769538025
 20
-873.8096610909053
 30
0.0
 11
-752.6168500682672
 21
-873.5700429070455
 31
0.0
  0
LINE
  5
212
  8
FAB_2$TOP
 10
-752.6168500682672
 20
-873.5700429070455
 30
0.0
 11
-753.086249483821
 21
-873.3465564120061
 31
0.0
  0
LINE
  5
213
  8
FAB_2$TOP
 10
-753.086249483821
 20
-873.3465564120061
 30
0.0
 11
-753.5631113750354
 21
-873.1394700495999
 31
0.0
  0
LINE
  5
214
  8
FAB_2$TOP
 10
-753.5631113750354
 20
-873.1394700495999
 30
0.0
 11
-754.0468629528291
 21
-872.9490325643994
 31
0.0
  0
LINE
  5
215
  8
FAB_2$TOP
 10
-754.0468629528291
 20
-872.9490325643994
 30
0.0
 11
-754.5369231524803
 21
-872.7754727029542
 31
0.0
  0
LINE
  5
216
  8
FAB_2$TOP
 10
-754.5369231524803
 20
-872.7754727029542
 30
0.0
 11
-755.0327033315823
 21
-872.6189989390288
 31
0.0
  0
LINE
  5
217
  8
FAB_2$TOP
 10
-755.0327033315823
 20
-872.6189989390288
 30
0.0
 11
-755.5336079770967
 21
-872.4797992231917
 31
0.0
  0
LINE
  5
218
  8
FAB_2$TOP
 10
-755.5336079770967
 20
-872.4797992231917
 30
0.0
 11
-756.0390354206645
 21
-872.3580407570557
 31
0.0
  0
LINE
  5
219
  8
FAB_2$TOP
 10
-756.0390354206645
 20
-872.3580407570557
 30
0.0
 11
-756.5483785613061
 21
-872.2538697924421
 31
0.0
  0
LINE
  5
21A
  8
FAB_2$TOP
 10
-756.5483785613061
 20
-872.2538697924421
 30
0.0
 11
-757.06102559465
 21
-872.1674114557073
 31
0.0
  0
LINE
  5
21B
  8
FAB_2$TOP
 10
-757.06102559465
 20
-872.1674114557073
 30
0.0
 11
-757.5763607478093
 21
-872.0987695974471
 31
0.0
  0
LINE
  5
21C
  8
FAB_2$TOP
 10
-757.5763607478093
 20
-872.0987695974471
 30
0.0
 11
-758.0937650190261
 21
-872.0480266677536
 31
0.0
  0
LINE
  5
21D
  8
FAB_2$TOP
 10
-758.0937650190261
 20
-872.0480266677536
 30
0.0
 11
-758.6126169211932
 21
-872.0152436171797
 31
0.0
  0
LINE
  5
21E
  8
FAB_2$TOP
 10
-758.6126169211932
 20
-872.0152436171797
 30
0.0
 11
-759.1322932283618
 21
-872.0004598235287
 31
0.0
  0
LINE
  5
21F
  8
FAB_2$TOP
 10
-759.132293228362
 20
-872.0004598235289
 30
0.0
 11
-861.7983938355768
 21
-872.0
 31
0.0
  0
LINE
  5
220
  8
FAB_2$TOP
 10
-861.7983938355768
 20
-872.0
 30
0.0
 11
-861.7983938355768
 21
-882.0
 31
0.0
  0
LINE
  5
221
  8
FAB_2$TOP
 10
-861.7983938355768
 20
-882.0
 30
0.0
 11
-865.7983938355768
 21
-882.0
 31
0.0
  0
LINE
  5
222
  8
FAB_2$TOP
 10
-865.7983938355768
 20
-882.0
 30
0.0
 11
-865.7983938355768
 21
-872.0
 31
0.0
  0
LINE
  5
223
  8
FAB_2$TOP
 10
-865.7983938355768
 20
-872.0
 30
0.0
 11
-893.7983938355768
 21
-872.0
 31
0.0
  0
LINE
  5
224
  8
FAB_2$TOP
 10
-893.7983938355768
 20
-872.0
 30
0.0
 11
-893.7983938355768
 21
-882.0
 31
0.0
  0
LINE
  5
225
  8
FAB_2$TOP
 10
-893.7983938355768
 20
-882.0
 30
0.0
 11
-897.7983938355768
 21
-882.0
 31
0.0
  0
LINE
  5
226
  8
FAB_2$TOP
 10
-897.7983938355768
 20
-882.0
 30
0.0
 11
-897.7983938355768
 21
-872.0
 31
0.0
  0
LINE
  5
227
  8
FAB_2$TOP
 10
-897.7983938355768
 20
-872.0
 30
0.0
 11
-1028.464494755434
 21
-872.0004598270082
 31
0.0
  0
LINE
  5
228
  8
FAB_2$TOP
 10
-1028.464494755434
 20
-872.0004598270081
 30
0.0
 11
-1028.984171053722
 21
-872.0152436364715
 31
0.0
  0
LINE
  5
229
  8
FAB_2$TOP
 10
-1028.984171053722
 20
-872.0152436364715
 30
0.0
 11
-1029.503022946496
 21
-872.0480267020574
 31
0.0
  0
LINE
  5
22A
  8
FAB_2$TOP
 10
-1029.503022946496
 20
-872.0480267020574
 30
0.0
 11
-1030.020427207852
 21
-872.0987696459476
 31
0.0
  0
LINE
  5
22B
  8
FAB_2$TOP
 10
-1030.020427207852
 20
-872.0987696459476
 30
0.0
 11
-1030.535762350728
 21
-872.1674115175747
 31
0.0
  0
LINE
  5
22C
  8
FAB_2$TOP
 10
-1030.535762350728
 20
-872.1674115175747
 30
0.0
 11
-1031.048409373413
 21
-872.2538698668347
 31
0.0
  0
LINE
  5
22D
  8
FAB_2$TOP
 10
-1031.048409373413
 20
-872.2538698668347
 30
0.0
 11
-1031.557752503065
 21
-872.3580408431234
 31
0.0
  0
LINE
  5
22E
  8
FAB_2$TOP
 10
-1031.557752503065
 20
-872.3580408431234
 30
0.0
 11
-1032.063179935358
 21
-872.479799320076
 31
0.0
  0
LINE
  5
22F
  8
FAB_2$TOP
 10
-1032.063179935358
 20
-872.479799320076
 30
0.0
 11
-1032.564084569359
 21
-872.6189990458668
 31
0.0
  0
LINE
  5
230
  8
FAB_2$TOP
 10
-1032.564084569359
 20
-872.6189990458668
 30
0.0
 11
-1033.059864736755
 21
-872.7754728188795
 31
0.0
  0
LINE
  5
231
  8
FAB_2$TOP
 10
-1033.059864736755
 20
-872.7754728188795
 30
0.0
 11
-1033.549924924554
 21
-872.949032688545
 31
0.0
  0
LINE
  5
232
  8
FAB_2$TOP
 10
-1033.549924924554
 20
-872.949032688545
 30
0.0
 11
-1034.033676490395
 21
-873.1394701811003
 31
0.0
  0
LINE
  5
233
  8
FAB_2$TOP
 10
-1034.033676490395
 20
-873.1394701811003
 30
0.0
 11
-1034.510538369602
 21
-873.3465565499989
 31
0.0
  0
LINE
  5
234
  8
FAB_2$TOP
 10
-1034.510538369602
 20
-873.3465565499989
 30
0.0
 11
-1034.979937773138
 21
-873.570043050674
 31
0.0
  0
LINE
  5
235
  8
FAB_2$TOP
 10
-1034.979937773138
 20
-873.570043050674
 30
0.0
 11
-1035.44131087562
 21
-873.8096612393206
 31
0.0
  0
LINE
  5
236
  8
FAB_2$TOP
 10
-1035.44131087562
 20
-873.8096612393206
 30
0.0
 11
-1035.894103492563
 21
-874.0651232953401
 31
0.0
  0
LINE
  5
237
  8
FAB_2$TOP
 10
-1035.894103492563
 20
-874.0651232953401
 30
0.0
 11
-1036.337771746048
 21
-874.336122367061
 31
0.0
  0
LINE
  5
238
  8
FAB_2$TOP
 10
-1036.337771746048
 20
-874.336122367061
 30
0.0
 11
-1036.771782718007
 21
-874.6223329403166
 31
0.0
  0
LINE
  5
239
  8
FAB_2$TOP
 10
-1036.771782718007
 20
-874.6223329403166
 30
0.0
 11
-1037.195615090345
 21
-874.9234112294416
 31
0.0
  0
LINE
  5
23A
  8
FAB_2$TOP
 10
-1037.195615090345
 20
-874.9234112294416
 30
0.0
 11
-1037.608759771129
 21
-875.2389955902145
 31
0.0
  0
LINE
  5
23B
  8
FAB_2$TOP
 10
-1037.608759771129
 20
-875.2389955902145
 30
0.0
 11
-1038.010720506089
 21
-875.5687069542514
 31
0.0
  0
LINE
  5
23C
  8
FAB_2$TOP
 10
-1038.010720506089
 20
-875.5687069542514
 30
0.0
 11
-1038.401014474701
 21
-875.9121492843291
 31
0.0
  0
LINE
  5
23D
  8
FAB_2$TOP
 10
-1038.401014474701
 20
-875.9121492843291
 30
0.0
 11
-1038.779172870135
 21
-876.2689100500905
 31
0.0
  0
LINE
  5
23E
  8
FAB_2$TOP
 10
-1038.779172870135
 20
-876.2689100500905
 30
0.0
 11
-1039.144741462367
 21
-876.6385607235612
 31
0.0
  0
LINE
  5
23F
  8
FAB_2$TOP
 10
-1039.144741462367
 20
-876.6385607235612
 30
0.0
 11
-1039.497281143784
 21
-877.0206572938815
 31
0.0
  0
LINE
  5
240
  8
FAB_2$TOP
 10
-1039.497281143784
 20
-877.0206572938815
 30
0.0
 11
-1039.836368456624
 21
-877.4147408006355
 31
0.0
  0
LINE
  5
241
  8
FAB_2$TOP
 10
-1039.836368456624
 20
-877.4147408006355
 30
0.0
 11
-1040.161596101615
 21
-877.8203378851382
 31
0.0
  0
LINE
  5
242
  8
FAB_2$TOP
 10
-1040.161596101615
 20
-877.8203378851382
 30
0.0
 11
-1040.472573427216
 21
-878.2369613590165
 31
0.0
  0
LINE
  5
243
  8
FAB_2$TOP
 10
-1040.472573427216
 20
-878.2369613590165
 30
0.0
 11
-1040.768926898844
 21
-878.6641107894019
 31
0.0
  0
LINE
  5
244
  8
FAB_2$TOP
 10
-1040.768926898844
 20
-878.6641107894019
 30
0.0
 11
-1041.050300547554
 21
-879.101273100032
 31
0.0
  0
LINE
  5
245
  8
FAB_2$TOP
 10
-1041.050300547554
 20
-879.101273100032
 30
0.0
 11
-1041.316356397619
 21
-879.5479231875394
 31
0.0
  0
LINE
  5
246
  8
FAB_2$TOP
 10
-1041.316356397619
 20
-879.5479231875394
 30
0.0
 11
-1041.566774872489
 21
-880.003524552186
 31
0.0
  0
LINE
  5
247
  8
FAB_2$TOP
 10
-1041.566774872489
 20
-880.003524552186
 30
0.0
 11
-1041.801255178657
 21
-880.4675299422877
 31
0.0
  0
LINE
  5
248
  8
FAB_2$TOP
 10
-1041.801255178657
 20
-880.4675299422877
 30
0.0
 11
-1042.019515666962
 21
-880.9393820115524
 31
0.0
  0
LINE
  5
249
  8
FAB_2$TOP
 10
-1042.019515666962
 20
-880.9393820115524
 30
0.0
 11
-1042.221294170892
 21
-881.4185139885437
 31
0.0
  0
LINE
  5
24A
  8
FAB_2$TOP
 10
-1042.221294170892
 20
-881.4185139885437
 30
0.0
 11
-1042.406348321494
 21
-881.9043503574675
 31
0.0
  0
LINE
  5
24B
  8
FAB_2$TOP
 10
-1042.406348321494
 20
-881.9043503574675
 30
0.0
 11
-1042.574455838496
 21
-882.3963075494585
 31
0.0
  0
LINE
  5
24C
  8
FAB_2$TOP
 10
-1042.574455838496
 20
-882.3963075494585
 30
0.0
 11
-1042.725414797301
 21
-882.8937946435433
 31
0.0
  0
LINE
  5
24D
  8
FAB_2$TOP
 10
-1042.725414797301
 20
-882.8937946435433
 30
0.0
 11
-1042.859043871531
 21
-883.3962140764322
 31
0.0
  0
LINE
  5
24E
  8
FAB_2$TOP
 10
-1042.859043871531
 20
-883.3962140764322
 30
0.0
 11
-1042.975182550835
 21
-883.9029623602909
 31
0.0
  0
LINE
  5
24F
  8
FAB_2$TOP
 10
-1042.975182550835
 20
-883.9029623602909
 30
0.0
 11
-1043.07369133368
 21
-884.4134308076276
 31
0.0
  0
LINE
  5
250
  8
FAB_2$TOP
 10
-1043.07369133368
 20
-884.4134308076276
 30
0.0
 11
-1043.154451894924
 21
-884.9270062624264
 31
0.0
  0
LINE
  5
251
  8
FAB_2$TOP
 10
-1043.154451894924
 20
-884.9270062624264
 30
0.0
 11
-1043.217367227935
 21
-885.4430718366477
 31
0.0
  0
LINE
  5
252
  8
FAB_2$TOP
 10
-1043.217367227935
 20
-885.4430718366477
 30
0.0
 11
-1043.262361761117
 21
-885.9610076512115
 31
0.0
  0
LINE
  5
253
  8
FAB_2$TOP
 10
-1043.262361761117
 20
-885.9610076512115
 30
0.0
 11
-1043.289381448685
 21
-886.4801915805734
 31
0.0
  0
LINE
  5
254
  8
FAB_2$TOP
 10
-1043.289381448685
 20
-886.4801915805734
 30
0.0
 11
-1043.298393835579
 21
-887.0
 31
0.0
  0
LINE
  5
255
  8
FAB_2$TOP
 10
-1043.298393835579
 20
-887.0
 30
0.0
 11
-1043.298393835579
 21
-1184.252259786559
 31
0.0
  0
ENDSEC
  0
EOF
