G75*
%MOIN*%
%OFA0B0*%
%FSLAX25Y25*%
%IPPOS*%
%LPD*%
%AMOC8*
5,1,8,0,0,1.08239X$1,22.5*
%
%ADD10C,0.00000*%
%ADD11R,0.05937X0.05937*%
%ADD12C,0.05937*%
%ADD13C,0.07400*%
%ADD14C,0.07000*%
%ADD15C,0.16598*%
%ADD16C,0.15024*%
%ADD17C,0.01000*%
%ADD18C,0.07480*%
%ADD19C,0.10000*%
%ADD20C,0.07000*%
%ADD21C,0.05200*%
%ADD22OC8,0.05200*%
%ADD23R,0.07400X0.07400*%
%ADD24C,0.06600*%
%ADD25C,0.15748*%
%ADD26C,0.06000*%
%ADD27C,0.00600*%
%ADD28C,0.02400*%
%ADD29C,0.01500*%
D10*
X0032595Y0002550D02*
X0032595Y0321251D01*
X0682516Y0321251D01*
X0682516Y0002550D01*
X0032595Y0002550D01*
D11*
X0037595Y0082550D03*
D12*
X0047595Y0082550D03*
X0057595Y0082550D03*
X0067595Y0082550D03*
X0077595Y0082550D03*
X0087595Y0082550D03*
X0097595Y0082550D03*
X0107595Y0082550D03*
X0117595Y0082550D03*
X0127595Y0082550D03*
X0137595Y0082550D03*
X0147595Y0082550D03*
X0157595Y0082550D03*
X0167595Y0082550D03*
X0177595Y0082550D03*
X0187595Y0082550D03*
X0197595Y0082550D03*
X0207595Y0082550D03*
X0217595Y0082550D03*
X0217595Y0072550D03*
X0227595Y0082550D03*
X0237595Y0082550D03*
X0247595Y0082550D03*
X0257595Y0082550D03*
X0267595Y0082550D03*
X0217595Y0062550D03*
X0217595Y0052550D03*
X0207595Y0052550D03*
X0197595Y0052550D03*
X0187595Y0052550D03*
X0187595Y0042550D03*
X0197595Y0042550D03*
X0207595Y0042550D03*
X0217595Y0042550D03*
X0227595Y0042550D03*
X0237595Y0042550D03*
X0247595Y0042550D03*
X0257595Y0042550D03*
X0267595Y0042550D03*
X0267595Y0052550D03*
X0257595Y0052550D03*
X0247595Y0052550D03*
X0237595Y0052550D03*
X0227595Y0052550D03*
X0217595Y0032550D03*
X0217595Y0022550D03*
X0207595Y0022550D03*
X0197595Y0022550D03*
X0187595Y0022550D03*
X0177595Y0022550D03*
X0167595Y0022550D03*
X0157595Y0022550D03*
X0147595Y0022550D03*
X0137595Y0022550D03*
X0127595Y0022550D03*
X0117595Y0022550D03*
X0107595Y0022550D03*
X0097595Y0022550D03*
X0087595Y0022550D03*
X0077595Y0022550D03*
X0067595Y0022550D03*
X0057595Y0022550D03*
X0047595Y0022550D03*
X0037595Y0022550D03*
X0047595Y0032550D03*
X0067595Y0032550D03*
X0077595Y0032550D03*
X0087595Y0032550D03*
X0097595Y0042550D03*
X0107595Y0042550D03*
X0117595Y0042550D03*
X0127595Y0042550D03*
X0127595Y0052550D03*
X0117595Y0052550D03*
X0107595Y0052550D03*
X0097595Y0052550D03*
X0092595Y0070050D03*
X0082595Y0070050D03*
X0072595Y0070050D03*
X0062595Y0070050D03*
X0102595Y0070050D03*
X0227595Y0022550D03*
X0237595Y0022550D03*
X0247595Y0022550D03*
X0257595Y0022550D03*
X0267595Y0022550D03*
D13*
X0327595Y0016050D03*
X0337595Y0016050D03*
X0347595Y0016050D03*
X0357595Y0016050D03*
X0357595Y0046050D03*
X0347595Y0046050D03*
X0337595Y0046050D03*
X0327595Y0046050D03*
X0325095Y0060050D03*
X0335095Y0060050D03*
X0350095Y0060050D03*
X0360095Y0060050D03*
X0370095Y0060050D03*
X0380095Y0060050D03*
X0380095Y0090050D03*
X0370095Y0090050D03*
X0360095Y0090050D03*
X0350095Y0090050D03*
X0335095Y0090050D03*
X0325095Y0090050D03*
X0315095Y0090050D03*
X0305095Y0090050D03*
X0305095Y0060050D03*
X0315095Y0060050D03*
X0481595Y0033550D03*
X0481595Y0024550D03*
X0511595Y0024550D03*
X0511595Y0033550D03*
X0512595Y0012050D03*
X0522595Y0013050D03*
X0532595Y0012050D03*
X0561895Y0012550D03*
X0573295Y0012550D03*
X0586895Y0012550D03*
X0598295Y0012550D03*
X0646895Y0072550D03*
X0658295Y0072550D03*
X0672095Y0172550D03*
X0673095Y0182550D03*
X0672095Y0192550D03*
X0672095Y0207550D03*
X0673095Y0217550D03*
X0672095Y0227550D03*
X0138595Y0126550D03*
X0118595Y0126550D03*
X0098095Y0126550D03*
X0079095Y0126550D03*
X0079095Y0096550D03*
X0098095Y0096550D03*
X0118595Y0096550D03*
X0138595Y0096550D03*
D14*
X0191095Y0192522D03*
X0201095Y0192522D03*
X0211095Y0192522D03*
X0251095Y0192522D03*
X0261095Y0192522D03*
X0271095Y0192522D03*
X0316095Y0192522D03*
X0326095Y0192522D03*
X0336095Y0192522D03*
X0376095Y0192522D03*
X0386095Y0192522D03*
X0396095Y0192522D03*
X0441095Y0192522D03*
X0451095Y0192522D03*
X0461095Y0192522D03*
X0501095Y0192522D03*
X0511095Y0192522D03*
X0521095Y0192522D03*
X0562595Y0162550D03*
X0562595Y0152550D03*
X0562595Y0142550D03*
X0562595Y0132550D03*
X0562595Y0122550D03*
X0562595Y0112550D03*
X0562595Y0102550D03*
X0562595Y0092550D03*
X0622595Y0092550D03*
X0622595Y0102550D03*
X0622595Y0112550D03*
X0622595Y0122550D03*
X0622595Y0132550D03*
X0622595Y0142550D03*
X0622595Y0152550D03*
X0622595Y0162550D03*
X0607595Y0197550D03*
X0597595Y0197550D03*
X0587595Y0197550D03*
X0557595Y0227550D03*
X0557595Y0237550D03*
X0557595Y0247550D03*
X0521095Y0252522D03*
X0511095Y0252522D03*
X0501095Y0252522D03*
X0461095Y0252522D03*
X0451095Y0252522D03*
X0441095Y0252522D03*
X0396095Y0252522D03*
X0386095Y0252522D03*
X0376095Y0252522D03*
X0336095Y0252522D03*
X0326095Y0252522D03*
X0316095Y0252522D03*
X0271095Y0252522D03*
X0261095Y0252522D03*
X0251095Y0252522D03*
X0211095Y0252522D03*
X0201095Y0252522D03*
X0191095Y0252522D03*
X0122595Y0197550D03*
X0112595Y0197550D03*
X0102595Y0197550D03*
X0072595Y0227550D03*
X0072595Y0237550D03*
X0072595Y0247550D03*
D15*
X0629052Y0032550D03*
D16*
X0653658Y0032550D03*
X0640272Y0013652D03*
D17*
X0642595Y0112550D02*
X0662595Y0112550D01*
X0662595Y0122550D02*
X0642595Y0122550D01*
X0642595Y0132550D02*
X0662595Y0132550D01*
X0662595Y0142550D02*
X0642595Y0142550D01*
D18*
X0642595Y0142550D03*
X0642595Y0132550D03*
X0642595Y0122550D03*
X0642595Y0112550D03*
X0662595Y0112550D03*
X0662595Y0122550D03*
X0662595Y0132550D03*
X0662595Y0142550D03*
D19*
X0627595Y0211300D03*
X0567595Y0211300D03*
X0567595Y0263800D03*
X0627595Y0263800D03*
X0142595Y0263800D03*
X0082595Y0263800D03*
X0082595Y0211300D03*
X0142595Y0211300D03*
D20*
X0128595Y0267550D02*
X0121595Y0267550D01*
X0103595Y0267550D02*
X0096595Y0267550D01*
X0096595Y0285267D02*
X0103595Y0285267D01*
X0121595Y0285267D02*
X0128595Y0285267D01*
X0581595Y0285267D02*
X0588595Y0285267D01*
X0606595Y0285267D02*
X0613595Y0285267D01*
X0613595Y0267550D02*
X0606595Y0267550D01*
X0588595Y0267550D02*
X0581595Y0267550D01*
D21*
X0577595Y0080150D02*
X0577595Y0074950D01*
X0587595Y0074950D02*
X0587595Y0080150D01*
X0567595Y0080150D02*
X0567595Y0074950D01*
X0557595Y0074950D02*
X0557595Y0080150D01*
X0547595Y0080150D02*
X0547595Y0074950D01*
X0537595Y0074950D02*
X0537595Y0080150D01*
X0527595Y0080150D02*
X0527595Y0074950D01*
X0517595Y0074950D02*
X0517595Y0080150D01*
X0507595Y0080150D02*
X0507595Y0074950D01*
X0482595Y0074950D02*
X0482595Y0080150D01*
X0472595Y0080150D02*
X0472595Y0074950D01*
X0462595Y0074950D02*
X0462595Y0080150D01*
X0452595Y0080150D02*
X0452595Y0074950D01*
X0442595Y0074950D02*
X0442595Y0080150D01*
X0432595Y0080150D02*
X0432595Y0074950D01*
X0422595Y0074950D02*
X0422595Y0080150D01*
X0412595Y0080150D02*
X0412595Y0074950D01*
X0402595Y0074950D02*
X0402595Y0080150D01*
X0402595Y0050150D02*
X0402595Y0044950D01*
X0412595Y0044950D02*
X0412595Y0050150D01*
X0422595Y0050150D02*
X0422595Y0044950D01*
X0432595Y0044950D02*
X0432595Y0050150D01*
X0442595Y0050150D02*
X0442595Y0044950D01*
X0452595Y0044950D02*
X0452595Y0050150D01*
X0462595Y0050150D02*
X0462595Y0044950D01*
X0472595Y0044950D02*
X0472595Y0050150D01*
X0482595Y0050150D02*
X0482595Y0044950D01*
X0507595Y0044950D02*
X0507595Y0050150D01*
X0517595Y0050150D02*
X0517595Y0044950D01*
X0527595Y0044950D02*
X0527595Y0050150D01*
X0537595Y0050150D02*
X0537595Y0044950D01*
X0547595Y0044950D02*
X0547595Y0050150D01*
X0557595Y0050150D02*
X0557595Y0044950D01*
X0567595Y0044950D02*
X0567595Y0050150D01*
X0577595Y0050150D02*
X0577595Y0044950D01*
X0587595Y0044950D02*
X0587595Y0050150D01*
D22*
X0138595Y0137050D03*
X0138595Y0147050D03*
X0118595Y0147050D03*
X0118595Y0137050D03*
X0098595Y0137050D03*
X0098595Y0147050D03*
X0078595Y0147050D03*
X0078595Y0137050D03*
D23*
X0542595Y0013050D03*
D24*
X0521095Y0108550D03*
X0511095Y0108550D03*
X0501095Y0108550D03*
X0461595Y0108050D03*
X0451595Y0108050D03*
X0441595Y0108050D03*
X0441595Y0128050D03*
X0451595Y0128050D03*
X0461595Y0128050D03*
X0461595Y0148050D03*
X0451595Y0148050D03*
X0441595Y0148050D03*
X0441595Y0168050D03*
X0451595Y0168050D03*
X0461595Y0168050D03*
X0501095Y0168550D03*
X0511095Y0168550D03*
X0521095Y0168550D03*
X0521095Y0148550D03*
X0511095Y0148550D03*
X0501095Y0148550D03*
X0501095Y0128550D03*
X0511095Y0128550D03*
X0521095Y0128550D03*
X0396595Y0129050D03*
X0386595Y0129050D03*
X0376595Y0129050D03*
X0376595Y0109050D03*
X0386595Y0109050D03*
X0396595Y0109050D03*
X0336095Y0108550D03*
X0326095Y0108550D03*
X0316095Y0108550D03*
X0316095Y0128550D03*
X0326095Y0128550D03*
X0336095Y0128550D03*
X0336095Y0148550D03*
X0326095Y0148550D03*
X0316095Y0148550D03*
X0316095Y0168550D03*
X0326095Y0168550D03*
X0336095Y0168550D03*
X0376595Y0169050D03*
X0386595Y0169050D03*
X0396595Y0169050D03*
X0396595Y0149050D03*
X0386595Y0149050D03*
X0376595Y0149050D03*
X0271095Y0149050D03*
X0261095Y0149050D03*
X0251095Y0149050D03*
X0251095Y0169050D03*
X0261095Y0169050D03*
X0271095Y0169050D03*
X0211095Y0169050D03*
X0201095Y0169050D03*
X0191095Y0169050D03*
X0191095Y0149050D03*
X0201095Y0149050D03*
X0211095Y0149050D03*
X0211095Y0129050D03*
X0201095Y0129050D03*
X0191095Y0129050D03*
X0191095Y0109050D03*
X0201095Y0109050D03*
X0211095Y0109050D03*
X0251095Y0109050D03*
X0261095Y0109050D03*
X0271095Y0109050D03*
X0271095Y0129050D03*
X0261095Y0129050D03*
X0251095Y0129050D03*
D25*
X0242198Y0222050D03*
X0219993Y0222050D03*
X0182198Y0222050D03*
X0279993Y0222050D03*
X0307198Y0222050D03*
X0344993Y0222050D03*
X0367198Y0222050D03*
X0404993Y0222050D03*
X0432198Y0222050D03*
X0469993Y0222050D03*
X0492198Y0222050D03*
X0529993Y0222050D03*
X0529993Y0282050D03*
X0492198Y0282050D03*
X0469993Y0282050D03*
X0432198Y0282050D03*
X0404993Y0282050D03*
X0367198Y0282050D03*
X0344993Y0282050D03*
X0307198Y0282050D03*
X0279993Y0282050D03*
X0242198Y0282050D03*
X0219993Y0282050D03*
X0182198Y0282050D03*
D26*
X0191095Y0307050D03*
X0201095Y0307050D03*
X0211095Y0307050D03*
X0251095Y0307550D03*
X0261095Y0307550D03*
X0271095Y0307550D03*
X0316095Y0307550D03*
X0326095Y0307550D03*
X0336095Y0307550D03*
X0376095Y0307550D03*
X0386095Y0307550D03*
X0396095Y0307550D03*
X0441095Y0307550D03*
X0451095Y0307550D03*
X0461095Y0307550D03*
X0501095Y0307550D03*
X0511095Y0307550D03*
X0521095Y0307550D03*
D27*
X0501345Y0307550D02*
X0501095Y0307550D01*
X0501345Y0307550D02*
X0501345Y0252550D01*
X0501095Y0252522D01*
X0501345Y0251300D01*
X0501345Y0192550D01*
X0501095Y0192522D01*
X0506345Y0183800D02*
X0562595Y0183800D01*
X0562595Y0162550D01*
X0562595Y0142550D02*
X0540095Y0142550D01*
X0555095Y0137550D02*
X0567595Y0137550D01*
X0567595Y0117550D01*
X0562595Y0112550D01*
X0543845Y0113800D02*
X0562595Y0132550D01*
X0543845Y0113800D02*
X0543845Y0015050D01*
X0542595Y0013800D01*
X0542595Y0013050D01*
X0547595Y0008800D02*
X0543845Y0005050D01*
X0301345Y0005050D01*
X0301345Y0032550D01*
X0300095Y0033800D01*
X0300095Y0077550D01*
X0301345Y0078800D01*
X0305095Y0090050D02*
X0305095Y0143800D01*
X0306345Y0145050D01*
X0321345Y0156300D02*
X0376345Y0156300D01*
X0376345Y0168800D01*
X0376595Y0169050D01*
X0386595Y0169050D02*
X0387595Y0168800D01*
X0391345Y0165050D01*
X0391345Y0143800D01*
X0446345Y0143800D01*
X0446345Y0132550D01*
X0442595Y0128800D01*
X0441595Y0128050D01*
X0456345Y0126300D02*
X0456345Y0135050D01*
X0446345Y0143800D02*
X0446345Y0163800D01*
X0442595Y0167550D01*
X0441595Y0168050D01*
X0480095Y0157550D02*
X0506345Y0183800D01*
X0477595Y0187550D02*
X0477595Y0052550D01*
X0482595Y0047550D01*
X0487595Y0043800D02*
X0487595Y0072550D01*
X0482595Y0077550D01*
X0472595Y0077550D02*
X0468845Y0073800D01*
X0468845Y0041300D01*
X0467595Y0043800D02*
X0467595Y0088800D01*
X0466345Y0086300D02*
X0446345Y0106300D01*
X0446345Y0110050D01*
X0421345Y0135050D01*
X0416345Y0125050D02*
X0446345Y0095050D01*
X0446345Y0051300D01*
X0442595Y0047550D01*
X0436345Y0042550D02*
X0416345Y0022550D01*
X0366345Y0022550D01*
X0366345Y0053800D01*
X0360095Y0060050D01*
X0365095Y0057550D02*
X0365095Y0117550D01*
X0360095Y0122550D02*
X0360095Y0090050D01*
X0350095Y0090050D02*
X0350095Y0153800D01*
X0331345Y0153800D01*
X0326095Y0148550D01*
X0321345Y0156300D02*
X0321345Y0128800D01*
X0316345Y0128800D01*
X0316095Y0128550D01*
X0321345Y0128800D02*
X0325095Y0128800D01*
X0326095Y0128550D01*
X0336095Y0128550D02*
X0325095Y0117550D01*
X0341345Y0105050D02*
X0330095Y0093800D01*
X0330095Y0048800D01*
X0327595Y0046300D01*
X0327595Y0046050D01*
X0337595Y0046050D02*
X0337595Y0045050D01*
X0362595Y0020050D01*
X0362595Y0013800D01*
X0481345Y0013800D01*
X0491345Y0023800D01*
X0491345Y0070050D01*
X0516345Y0095050D01*
X0516345Y0142550D01*
X0511345Y0147550D01*
X0511095Y0148550D01*
X0506345Y0145050D02*
X0506345Y0153800D01*
X0521095Y0168550D01*
X0506345Y0145050D02*
X0480095Y0118800D01*
X0476345Y0106300D02*
X0456345Y0126300D01*
X0421345Y0116300D02*
X0381345Y0076300D01*
X0375095Y0073800D02*
X0417595Y0116300D01*
X0417595Y0120050D01*
X0396595Y0129050D02*
X0391345Y0123800D01*
X0391345Y0093800D01*
X0368845Y0071300D01*
X0370095Y0060050D02*
X0370095Y0055050D01*
X0400095Y0055050D01*
X0422595Y0077550D01*
X0412595Y0077550D02*
X0395095Y0060050D01*
X0380095Y0060050D01*
X0370095Y0053800D02*
X0370095Y0052550D01*
X0370095Y0053800D02*
X0416345Y0053800D01*
X0422595Y0047550D01*
X0412595Y0047550D02*
X0391345Y0026300D01*
X0408845Y0023800D02*
X0367595Y0023800D01*
X0367595Y0055050D01*
X0365095Y0057550D01*
X0365095Y0046300D02*
X0351345Y0060050D01*
X0350095Y0060050D01*
X0340095Y0065050D02*
X0335095Y0060050D01*
X0340095Y0065050D02*
X0340095Y0097550D01*
X0342595Y0096300D02*
X0342595Y0051300D01*
X0347595Y0046300D01*
X0347595Y0046050D01*
X0357595Y0046050D02*
X0357595Y0045050D01*
X0363845Y0038800D01*
X0363845Y0015050D01*
X0480095Y0015050D01*
X0490095Y0025050D01*
X0490095Y0087550D01*
X0511095Y0108550D01*
X0476345Y0106300D02*
X0476345Y0051300D01*
X0472595Y0047550D01*
X0467595Y0043800D02*
X0452595Y0028800D01*
X0463845Y0035050D02*
X0475095Y0023800D01*
X0481345Y0011300D02*
X0492595Y0022550D01*
X0492595Y0055050D01*
X0503845Y0066300D01*
X0505095Y0053800D02*
X0511345Y0053800D01*
X0511345Y0033800D01*
X0511595Y0033550D01*
X0516345Y0028800D01*
X0516345Y0020050D01*
X0522595Y0013800D01*
X0522595Y0013050D01*
X0527595Y0011300D02*
X0522595Y0006300D01*
X0506345Y0006300D01*
X0506345Y0046300D01*
X0507595Y0047550D01*
X0503845Y0052550D02*
X0505095Y0053800D01*
X0503845Y0052550D02*
X0503845Y0010050D01*
X0346345Y0010050D01*
X0342595Y0013800D01*
X0342595Y0018800D01*
X0323845Y0037550D01*
X0347595Y0016050D02*
X0347595Y0011300D01*
X0481345Y0011300D01*
X0512595Y0012050D02*
X0512595Y0023800D01*
X0511595Y0024550D01*
X0527595Y0011300D02*
X0532595Y0011300D01*
X0532595Y0012050D01*
X0547595Y0008800D02*
X0547595Y0027550D01*
X0567595Y0047550D01*
X0557595Y0047550D02*
X0555095Y0050050D01*
X0555095Y0061300D01*
X0552595Y0072550D02*
X0552595Y0043800D01*
X0552595Y0072550D02*
X0557595Y0077550D01*
X0618845Y0052550D02*
X0645095Y0078800D01*
X0657595Y0078800D01*
X0657595Y0072550D01*
X0658295Y0072550D01*
X0658845Y0072550D01*
X0671345Y0085050D01*
X0671345Y0172550D01*
X0672095Y0172550D01*
X0671345Y0172550D02*
X0666345Y0177550D01*
X0666345Y0202550D01*
X0671345Y0207550D01*
X0672095Y0207550D01*
X0617595Y0167550D02*
X0617595Y0157550D01*
X0622595Y0152550D01*
X0617595Y0167550D02*
X0587595Y0197550D01*
X0441345Y0192550D02*
X0441095Y0192522D01*
X0441345Y0192550D02*
X0441345Y0251300D01*
X0441095Y0252522D01*
X0441345Y0252550D01*
X0441345Y0307550D01*
X0441095Y0307550D01*
X0376345Y0307550D02*
X0376095Y0307550D01*
X0376345Y0307550D02*
X0376345Y0252550D01*
X0376095Y0252522D01*
X0376345Y0251300D01*
X0376345Y0192550D01*
X0376095Y0192522D01*
X0326095Y0168550D02*
X0321345Y0163800D01*
X0321345Y0156300D01*
X0341345Y0138800D02*
X0347595Y0145050D01*
X0341345Y0138800D02*
X0341345Y0105050D01*
X0347595Y0101300D02*
X0342595Y0096300D01*
X0380095Y0090050D02*
X0380095Y0102550D01*
X0386595Y0109050D01*
X0360095Y0122550D02*
X0386595Y0149050D01*
X0391345Y0143800D02*
X0391345Y0133800D01*
X0386595Y0129050D01*
X0448845Y0087550D02*
X0448845Y0081300D01*
X0452595Y0077550D01*
X0442595Y0077550D02*
X0437595Y0072550D01*
X0437595Y0041300D01*
X0417595Y0021300D01*
X0365095Y0021300D01*
X0365095Y0046300D01*
X0408845Y0023800D02*
X0432595Y0047550D01*
X0436345Y0042550D02*
X0436345Y0073800D01*
X0432595Y0077550D01*
X0448845Y0063800D02*
X0448845Y0056300D01*
X0448845Y0063800D02*
X0462595Y0077550D01*
X0466345Y0086300D02*
X0466345Y0051300D01*
X0462595Y0047550D01*
X0452595Y0047550D02*
X0436345Y0031300D01*
X0276345Y0093800D02*
X0275095Y0092550D01*
X0276345Y0093800D02*
X0276345Y0133800D01*
X0261095Y0149050D01*
X0256345Y0155050D02*
X0270095Y0168800D01*
X0271095Y0169050D01*
X0255095Y0160050D02*
X0228845Y0133800D01*
X0228845Y0108800D01*
X0222595Y0102550D01*
X0222595Y0081300D01*
X0227595Y0076300D01*
X0227595Y0052550D01*
X0225095Y0057550D02*
X0225095Y0065050D01*
X0232595Y0062550D02*
X0232595Y0027550D01*
X0227595Y0022550D01*
X0227595Y0032550D02*
X0217595Y0022550D01*
X0212595Y0017550D02*
X0212595Y0047550D01*
X0217595Y0052550D01*
X0212595Y0057550D02*
X0225095Y0057550D01*
X0235095Y0055050D02*
X0235095Y0078800D01*
X0232595Y0081300D01*
X0232595Y0103800D01*
X0228845Y0103800D02*
X0228845Y0083800D01*
X0227595Y0082550D01*
X0221345Y0086300D02*
X0221345Y0130050D01*
X0251345Y0160050D01*
X0251345Y0163800D02*
X0220095Y0132550D01*
X0220095Y0095050D01*
X0207595Y0082550D01*
X0217595Y0082550D02*
X0221345Y0086300D01*
X0210095Y0098800D02*
X0210095Y0100050D01*
X0201095Y0109050D01*
X0196345Y0107550D02*
X0196345Y0115050D01*
X0210095Y0128800D01*
X0211095Y0129050D01*
X0231345Y0117550D02*
X0256345Y0142550D01*
X0256345Y0155050D01*
X0251095Y0129050D02*
X0250095Y0128800D01*
X0246345Y0125050D01*
X0246345Y0093800D01*
X0252595Y0087550D01*
X0252595Y0047550D01*
X0262595Y0047550D01*
X0267595Y0052550D01*
X0263845Y0058800D02*
X0257595Y0052550D01*
X0247595Y0052550D02*
X0242595Y0057550D01*
X0242595Y0122550D01*
X0266345Y0125050D02*
X0270095Y0128800D01*
X0271095Y0129050D01*
X0266345Y0125050D02*
X0266345Y0107550D01*
X0251345Y0092550D01*
X0247595Y0082550D02*
X0247595Y0068800D01*
X0250095Y0066300D01*
X0263845Y0073800D02*
X0263845Y0058800D01*
X0237595Y0052550D02*
X0235095Y0055050D01*
X0237595Y0042550D02*
X0242595Y0037550D01*
X0272595Y0037550D01*
X0272595Y0077550D01*
X0267595Y0082550D01*
X0212595Y0057550D02*
X0207595Y0052550D01*
X0197595Y0052550D02*
X0197595Y0076300D01*
X0192595Y0081300D01*
X0192595Y0085050D01*
X0190095Y0085050D02*
X0187595Y0082550D01*
X0190095Y0085050D02*
X0190095Y0101300D01*
X0196345Y0107550D01*
X0180095Y0105050D02*
X0180095Y0131300D01*
X0196345Y0147550D01*
X0196345Y0155050D01*
X0210095Y0168800D01*
X0211095Y0169050D01*
X0190095Y0191300D02*
X0176345Y0177550D01*
X0176345Y0083800D01*
X0177595Y0082550D01*
X0177595Y0070050D01*
X0178845Y0068800D01*
X0195095Y0073800D02*
X0195095Y0060050D01*
X0187595Y0052550D01*
X0197595Y0042550D02*
X0183845Y0028800D01*
X0172595Y0028800D01*
X0172595Y0021300D01*
X0165095Y0013800D01*
X0120095Y0013800D01*
X0112595Y0021300D01*
X0112595Y0023800D01*
X0102595Y0033800D01*
X0102595Y0063800D01*
X0107595Y0068800D01*
X0107595Y0076300D01*
X0102595Y0081300D01*
X0102595Y0092550D01*
X0098845Y0096300D01*
X0098095Y0096550D01*
X0082595Y0093800D02*
X0080095Y0096300D01*
X0079095Y0096550D01*
X0082595Y0093800D02*
X0082595Y0081300D01*
X0087595Y0076300D01*
X0087595Y0068800D01*
X0098845Y0057550D01*
X0101345Y0056300D02*
X0101345Y0068800D01*
X0102595Y0070050D01*
X0092595Y0070050D01*
X0082595Y0063800D02*
X0077595Y0068800D01*
X0077595Y0076300D01*
X0072595Y0081300D01*
X0072595Y0146300D01*
X0078595Y0147050D02*
X0078845Y0146300D01*
X0082595Y0142550D01*
X0082595Y0130050D01*
X0079095Y0126550D01*
X0095095Y0130050D02*
X0097595Y0127550D01*
X0098095Y0126550D01*
X0095095Y0130050D02*
X0095095Y0143800D01*
X0097595Y0146300D01*
X0098595Y0147050D01*
X0115095Y0143800D02*
X0115095Y0130050D01*
X0118595Y0126550D01*
X0135095Y0130050D02*
X0138595Y0126550D01*
X0135095Y0130050D02*
X0135095Y0143800D01*
X0137595Y0146300D01*
X0138595Y0147050D01*
X0155095Y0145050D02*
X0155095Y0098800D01*
X0150095Y0093800D01*
X0150095Y0085050D01*
X0147595Y0082550D01*
X0140095Y0085050D02*
X0140095Y0091300D01*
X0146345Y0097550D01*
X0146345Y0158800D01*
X0118595Y0147050D02*
X0117595Y0146300D01*
X0115095Y0143800D01*
X0132595Y0108800D02*
X0137595Y0108800D01*
X0137595Y0097550D01*
X0138595Y0096550D01*
X0128845Y0100050D02*
X0128845Y0105050D01*
X0132595Y0108800D01*
X0128845Y0100050D02*
X0122595Y0093800D01*
X0122595Y0047550D01*
X0127595Y0042550D01*
X0101345Y0056300D02*
X0097595Y0052550D01*
X0082595Y0063800D02*
X0082595Y0027550D01*
X0087595Y0022550D01*
X0057595Y0022550D02*
X0057595Y0076300D01*
X0062595Y0081300D01*
X0062595Y0237550D01*
X0071345Y0246300D01*
X0072595Y0247550D01*
X0071345Y0246300D02*
X0092595Y0225050D01*
X0092595Y0207550D01*
X0102595Y0197550D01*
X0190095Y0191300D02*
X0191095Y0192522D01*
X0191345Y0192550D01*
X0191345Y0251300D01*
X0191095Y0252522D01*
X0191345Y0252550D01*
X0191345Y0306300D01*
X0191095Y0307050D01*
X0251095Y0307550D02*
X0251345Y0307550D01*
X0251345Y0252550D01*
X0251095Y0252522D01*
X0251345Y0251300D01*
X0251345Y0192550D01*
X0251095Y0192522D01*
X0316095Y0192522D02*
X0316345Y0192550D01*
X0316345Y0251300D01*
X0316095Y0252522D01*
X0316345Y0252550D01*
X0316345Y0307550D01*
X0316095Y0307550D01*
X0180095Y0105050D02*
X0178845Y0103800D01*
X0140095Y0085050D02*
X0137595Y0082550D01*
X0227595Y0042550D02*
X0227595Y0032550D01*
X0212595Y0017550D02*
X0206345Y0017550D01*
X0202595Y0021300D01*
X0202595Y0027550D01*
X0182595Y0027550D01*
X0177595Y0022550D01*
X0598295Y0012550D02*
X0598845Y0012550D01*
X0618845Y0032550D01*
X0618845Y0052550D01*
D28*
X0555095Y0061300D03*
X0552595Y0043800D03*
X0532595Y0023800D03*
X0562595Y0005050D03*
X0496345Y0035050D03*
X0487595Y0043800D03*
X0468845Y0041300D03*
X0463845Y0035050D03*
X0452595Y0028800D03*
X0436345Y0031300D03*
X0475095Y0023800D03*
X0448845Y0056300D03*
X0503845Y0066300D03*
X0467595Y0088800D03*
X0448845Y0087550D03*
X0421345Y0116300D03*
X0417595Y0120050D03*
X0416345Y0125050D03*
X0421345Y0135050D03*
X0456345Y0135050D03*
X0480095Y0118800D03*
X0540095Y0142550D03*
X0555095Y0137550D03*
X0480095Y0157550D03*
X0477595Y0187550D03*
X0445095Y0237550D03*
X0453845Y0241300D03*
X0320095Y0206300D03*
X0296345Y0215050D03*
X0278845Y0202550D03*
X0293845Y0188800D03*
X0251345Y0163800D03*
X0251345Y0160050D03*
X0255095Y0160050D03*
X0227595Y0182550D03*
X0191345Y0182550D03*
X0151345Y0158800D03*
X0146345Y0158800D03*
X0155095Y0145050D03*
X0217595Y0137550D03*
X0242595Y0122550D03*
X0231345Y0117550D03*
X0232595Y0103800D03*
X0228845Y0103800D03*
X0210095Y0098800D03*
X0192595Y0085050D03*
X0195095Y0073800D03*
X0178845Y0068800D03*
X0225095Y0065050D03*
X0232595Y0062550D03*
X0250095Y0066300D03*
X0263845Y0073800D03*
X0275095Y0092550D03*
X0251345Y0092550D03*
X0301345Y0078800D03*
X0340095Y0097550D03*
X0347595Y0101300D03*
X0365095Y0117550D03*
X0325095Y0117550D03*
X0308845Y0138800D03*
X0306345Y0145050D03*
X0347595Y0145050D03*
X0381345Y0076300D03*
X0375095Y0073800D03*
X0368845Y0071300D03*
X0370095Y0052550D03*
X0323845Y0037550D03*
X0301345Y0032550D03*
X0293845Y0023800D03*
X0293845Y0017550D03*
X0290095Y0010050D03*
X0210095Y0010050D03*
X0161345Y0032550D03*
X0125095Y0005050D03*
X0098845Y0057550D03*
X0063845Y0078800D03*
X0107595Y0108800D03*
X0132595Y0105050D03*
X0178845Y0103800D03*
X0072595Y0146300D03*
X0158845Y0223800D03*
X0296345Y0245050D03*
X0391345Y0026300D03*
D29*
X0297595Y0021300D02*
X0297595Y0163800D01*
X0325095Y0191300D01*
X0326095Y0192522D01*
X0335095Y0192550D02*
X0336095Y0192522D01*
X0335095Y0192550D02*
X0335095Y0251300D01*
X0336095Y0252522D01*
X0335095Y0252550D01*
X0335095Y0307550D01*
X0336095Y0307550D01*
X0326345Y0307550D02*
X0326095Y0307550D01*
X0326345Y0307550D02*
X0326345Y0252550D01*
X0326095Y0252522D01*
X0325095Y0251300D01*
X0325095Y0211300D01*
X0320095Y0206300D01*
X0296345Y0215050D02*
X0290095Y0208800D01*
X0290095Y0010050D01*
X0286345Y0006300D02*
X0286345Y0210050D01*
X0296345Y0220050D01*
X0296345Y0245050D01*
X0271095Y0252522D02*
X0270095Y0251300D01*
X0270095Y0192550D01*
X0271095Y0192522D01*
X0278845Y0202550D02*
X0278845Y0035050D01*
X0270095Y0035050D01*
X0257595Y0022550D01*
X0252595Y0017550D02*
X0282595Y0017550D01*
X0282595Y0210050D01*
X0292595Y0220050D01*
X0292595Y0291300D01*
X0313845Y0312550D01*
X0385095Y0312550D01*
X0385095Y0307550D01*
X0386095Y0307550D01*
X0386345Y0307550D01*
X0386345Y0252550D01*
X0386095Y0252522D01*
X0395095Y0252550D02*
X0396095Y0252522D01*
X0395095Y0251300D01*
X0395095Y0192550D01*
X0396095Y0192522D01*
X0386095Y0192522D02*
X0385095Y0191300D01*
X0385095Y0186300D01*
X0326345Y0186300D01*
X0310095Y0170050D01*
X0310095Y0140050D01*
X0308845Y0138800D01*
X0227595Y0143800D02*
X0227595Y0182550D01*
X0211095Y0192522D02*
X0210095Y0192550D01*
X0210095Y0251300D01*
X0211095Y0252522D01*
X0210095Y0252550D01*
X0210095Y0306300D01*
X0211095Y0307050D01*
X0201345Y0306300D02*
X0201095Y0307050D01*
X0200095Y0307550D01*
X0200095Y0312550D01*
X0188845Y0312550D01*
X0162595Y0286300D01*
X0162595Y0080050D01*
X0157595Y0075050D01*
X0157595Y0022550D01*
X0152595Y0027550D02*
X0152595Y0092550D01*
X0158845Y0098800D01*
X0158845Y0223800D01*
X0122595Y0197550D02*
X0100095Y0220050D01*
X0100095Y0256300D01*
X0100095Y0267550D01*
X0100095Y0256300D02*
X0072595Y0256300D01*
X0052595Y0236300D01*
X0052595Y0027550D01*
X0047595Y0022550D01*
X0042595Y0013800D02*
X0042595Y0240050D01*
X0118845Y0316300D01*
X0600095Y0316300D01*
X0600095Y0213800D01*
X0613845Y0200050D01*
X0613845Y0195050D01*
X0610095Y0191300D01*
X0597595Y0191300D01*
X0597595Y0197550D01*
X0607595Y0197550D02*
X0567595Y0237550D01*
X0557595Y0227550D01*
X0551345Y0231300D02*
X0551345Y0217550D01*
X0572595Y0196300D01*
X0572595Y0042550D01*
X0567595Y0037550D01*
X0567595Y0010050D01*
X0562595Y0005050D01*
X0586895Y0012550D02*
X0587595Y0012550D01*
X0592595Y0017550D01*
X0592595Y0072550D01*
X0622595Y0102550D01*
X0646895Y0072550D02*
X0647595Y0072550D01*
X0647595Y0037550D01*
X0652595Y0032550D01*
X0653658Y0032550D01*
X0532595Y0023800D02*
X0532595Y0065050D01*
X0507595Y0065050D01*
X0507595Y0077550D01*
X0507595Y0065050D02*
X0501345Y0058800D01*
X0501345Y0040050D01*
X0496345Y0035050D01*
X0297595Y0021300D02*
X0293845Y0017550D01*
X0293845Y0023800D02*
X0293845Y0188800D01*
X0227595Y0143800D02*
X0197595Y0143800D01*
X0182595Y0128800D01*
X0182595Y0053800D01*
X0161345Y0032550D01*
X0152595Y0027550D02*
X0147595Y0022550D01*
X0142595Y0027550D02*
X0142595Y0090050D01*
X0151345Y0098800D01*
X0151345Y0158800D01*
X0191345Y0182550D02*
X0200095Y0191300D01*
X0201095Y0192522D01*
X0112595Y0197550D02*
X0112595Y0027550D01*
X0117595Y0022550D01*
X0127595Y0022550D02*
X0132595Y0027550D01*
X0132595Y0105050D01*
X0107595Y0108800D02*
X0090095Y0126300D01*
X0090095Y0220050D01*
X0072595Y0237550D01*
X0201095Y0252522D02*
X0201345Y0252550D01*
X0201345Y0306300D01*
X0261095Y0307550D02*
X0261345Y0307550D01*
X0261345Y0252550D01*
X0261095Y0252522D01*
X0270095Y0252550D02*
X0271095Y0252522D01*
X0270095Y0252550D02*
X0270095Y0307550D01*
X0271095Y0307550D01*
X0395095Y0307550D02*
X0395095Y0252550D01*
X0445095Y0237550D02*
X0450095Y0242550D01*
X0450095Y0251300D01*
X0451095Y0252522D01*
X0451345Y0252550D01*
X0451345Y0307550D01*
X0451095Y0307550D01*
X0460095Y0307550D02*
X0461095Y0307550D01*
X0460095Y0307550D02*
X0460095Y0252550D01*
X0461095Y0252522D01*
X0460095Y0251300D01*
X0460095Y0192550D01*
X0461095Y0192522D01*
X0451345Y0192550D02*
X0451095Y0192522D01*
X0451345Y0192550D02*
X0451345Y0238800D01*
X0453845Y0241300D01*
X0511095Y0252522D02*
X0511345Y0252550D01*
X0511345Y0307550D01*
X0511095Y0307550D01*
X0520095Y0307550D02*
X0521095Y0307550D01*
X0520095Y0307550D02*
X0520095Y0256300D01*
X0585095Y0256300D01*
X0585095Y0255050D01*
X0567595Y0237550D01*
X0557595Y0237550D02*
X0551345Y0231300D01*
X0521095Y0252522D02*
X0520095Y0251300D01*
X0520095Y0192550D01*
X0521095Y0192522D01*
X0521095Y0252522D02*
X0520095Y0252550D01*
X0520095Y0256300D01*
X0585095Y0256300D02*
X0585095Y0267550D01*
X0673095Y0217550D02*
X0673845Y0217550D01*
X0678845Y0212550D01*
X0678845Y0187550D01*
X0673845Y0182550D01*
X0673095Y0182550D01*
X0396095Y0307550D02*
X0395095Y0307550D01*
X0217595Y0137550D02*
X0217595Y0101300D01*
X0202595Y0086300D01*
X0202595Y0040050D01*
X0205095Y0037550D01*
X0205095Y0025050D01*
X0207595Y0022550D01*
X0197595Y0022550D02*
X0210095Y0010050D01*
X0203845Y0006300D02*
X0286345Y0006300D01*
X0252595Y0017550D02*
X0247595Y0022550D01*
X0203845Y0006300D02*
X0187595Y0022550D01*
X0142595Y0027550D02*
X0137595Y0022550D01*
X0125095Y0005050D02*
X0107595Y0022550D01*
X0097595Y0022550D02*
X0096345Y0021300D01*
X0096345Y0020050D01*
X0090095Y0013800D01*
X0042595Y0013800D01*
X0067595Y0042550D02*
X0077595Y0032550D01*
X0067595Y0042550D02*
X0067595Y0075050D01*
X0063845Y0078800D01*
M02*
