%
M48
M72
T01C0.01200
T02C0.03150
T03C0.03200
T04C0.03500
T05C0.03543
T06C0.03937
T07C0.04000
T08C0.04331
T09C0.05500
T10C0.11024
T11C0.11200
T12C0.12598
%
T01
X125095Y5050
X161345Y32550
X210095Y10050
X290095Y10050
X293845Y17550
X293845Y23800
X301345Y32550
X323845Y37550
X370095Y52550
X368845Y71300
X375095Y73800
X381345Y76300
X340095Y97550
X347595Y101300
X365095Y117550
X325095Y117550
X308845Y138800
X306345Y145050
X347595Y145050
X416345Y125050
X417595Y120050
X421345Y116300
X421345Y135050
X456345Y135050
X480095Y118800
X467595Y88800
X448845Y87550
X503845Y66300
X487595Y43800
X496345Y35050
X475095Y23800
X463845Y35050
X468845Y41300
X452595Y28800
X436345Y31300
X448845Y56300
X391345Y26300
X301345Y78800
X275095Y92550
X251345Y92550
X232595Y103800
X228845Y103800
X210095Y98800
X192595Y85050
X195095Y73800
X178845Y68800
X225095Y65050
X232595Y62550
X250095Y66300
X263845Y73800
X178845Y103800
X132595Y105050
X107595Y108800
X63845Y78800
X98845Y57550
X231345Y117550
X242595Y122550
X217595Y137550
X251345Y160050
X251345Y163800
X255095Y160050
X227595Y182550
X191345Y182550
X151345Y158800
X146345Y158800
X155095Y145050
X72595Y146300
X158845Y223800
X278845Y202550
X293845Y188800
X320095Y206300
X296345Y215050
X296345Y245050
X445095Y237550
X453845Y241300
X477595Y187550
X480095Y157550
X540095Y142550
X555095Y137550
X555095Y61300
X552595Y43800
X532595Y23800
X562595Y5050
T02
X191095Y109050
X201095Y109050
X211095Y109050
X211095Y129050
X201095Y129050
X191095Y129050
X191095Y149050
X201095Y149050
X211095Y149050
X211095Y169050
X201095Y169050
X191095Y169050
X251095Y169050
X261095Y169050
X271095Y169050
X271095Y149050
X261095Y149050
X251095Y149050
X251095Y129050
X261095Y129050
X271095Y129050
X271095Y109050
X261095Y109050
X251095Y109050
X316095Y108550
X326095Y108550
X336095Y108550
X336095Y128550
X326095Y128550
X316095Y128550
X316095Y148550
X326095Y148550
X336095Y148550
X336095Y168550
X326095Y168550
X316095Y168550
X376595Y169050
X386595Y169050
X396595Y169050
X396595Y149050
X386595Y149050
X376595Y149050
X376595Y129050
X386595Y129050
X396595Y129050
X396595Y109050
X386595Y109050
X376595Y109050
X441595Y108050
X451595Y108050
X461595Y108050
X501095Y108550
X511095Y108550
X521095Y108550
X521095Y128550
X511095Y128550
X501095Y128550
X461595Y128050
X451595Y128050
X441595Y128050
X441595Y148050
X451595Y148050
X461595Y148050
X501095Y148550
X511095Y148550
X521095Y148550
X521095Y168550
X511095Y168550
X501095Y168550
X461595Y168050
X451595Y168050
X441595Y168050
X562595Y162550
X562595Y152550
X562595Y142550
X562595Y132550
X562595Y122550
X562595Y112550
X562595Y102550
X562595Y92550
X622595Y92550
X622595Y102550
X622595Y112550
X622595Y122550
X622595Y132550
X622595Y142550
X622595Y152550
X622595Y162550
T03
X78595Y147050
X78595Y137050
X98595Y137050
X98595Y147050
X118595Y147050
X118595Y137050
X138595Y137050
X138595Y147050
X402595Y77550
X412595Y77550
X422595Y77550
X432595Y77550
X442595Y77550
X452595Y77550
X462595Y77550
X472595Y77550
X482595Y77550
X507595Y77550
X517595Y77550
X527595Y77550
X537595Y77550
X547595Y77550
X557595Y77550
X567595Y77550
X577595Y77550
X587595Y77550
X587595Y47550
X577595Y47550
X567595Y47550
X557595Y47550
X547595Y47550
X537595Y47550
X527595Y47550
X517595Y47550
X507595Y47550
X482595Y47550
X472595Y47550
X462595Y47550
X452595Y47550
X442595Y47550
X432595Y47550
X422595Y47550
X412595Y47550
X402595Y47550
T04
X102595Y197550
X112595Y197550
X122595Y197550
X72595Y227550
X72595Y237550
X72595Y247550
X557595Y247550
X557595Y237550
X557595Y227550
X587595Y197550
X597595Y197550
X607595Y197550
T05
X191095Y252522
X201095Y252522
X211095Y252522
X251095Y252522
X261095Y252522
X271095Y252522
X316095Y252522
X326095Y252522
X336095Y252522
X376095Y252522
X386095Y252522
X396095Y252522
X441095Y252522
X451095Y252522
X461095Y252522
X501095Y252522
X511095Y252522
X521095Y252522
X521095Y192522
X511095Y192522
X501095Y192522
X461095Y192522
X451095Y192522
X441095Y192522
X396095Y192522
X386095Y192522
X376095Y192522
X336095Y192522
X326095Y192522
X316095Y192522
X271095Y192522
X261095Y192522
X251095Y192522
X211095Y192522
X201095Y192522
X191095Y192522
X138595Y126550
X118595Y126550
X98095Y126550
X79095Y126550
X79095Y96550
X98095Y96550
X118595Y96550
X138595Y96550
X305095Y90050
X315095Y90050
X325095Y90050
X335095Y90050
X350095Y90050
X360095Y90050
X370095Y90050
X380095Y90050
X380095Y60050
X370095Y60050
X360095Y60050
X350095Y60050
X335095Y60050
X325095Y60050
X315095Y60050
X305095Y60050
X327595Y46050
X337595Y46050
X347595Y46050
X357595Y46050
X357595Y16050
X347595Y16050
X337595Y16050
X327595Y16050
X481595Y24550
X481595Y33550
X511595Y33550
X511595Y24550
T06
X37595Y22550
X47595Y22550
X57595Y22550
X67595Y22550
X77595Y22550
X87595Y22550
X97595Y22550
X107595Y22550
X117595Y22550
X127595Y22550
X137595Y22550
X147595Y22550
X157595Y22550
X167595Y22550
X177595Y22550
X187595Y22550
X197595Y22550
X207595Y22550
X217595Y22550
X227595Y22550
X237595Y22550
X247595Y22550
X257595Y22550
X267595Y22550
X267595Y42550
X257595Y42550
X247595Y42550
X237595Y42550
X227595Y42550
X217595Y42550
X207595Y42550
X197595Y42550
X187595Y42550
X187595Y52550
X197595Y52550
X207595Y52550
X217595Y52550
X227595Y52550
X237595Y52550
X247595Y52550
X257595Y52550
X267595Y52550
X217595Y62550
X217595Y72550
X217595Y82550
X207595Y82550
X197595Y82550
X187595Y82550
X177595Y82550
X167595Y82550
X157595Y82550
X147595Y82550
X137595Y82550
X127595Y82550
X117595Y82550
X107595Y82550
X97595Y82550
X87595Y82550
X77595Y82550
X67595Y82550
X57595Y82550
X47595Y82550
X37595Y82550
X62595Y70050
X72595Y70050
X82595Y70050
X92595Y70050
X102595Y70050
X97595Y52550
X107595Y52550
X117595Y52550
X127595Y52550
X127595Y42550
X117595Y42550
X107595Y42550
X97595Y42550
X87595Y32550
X77595Y32550
X67595Y32550
X47595Y32550
X217595Y32550
X227595Y82550
X237595Y82550
X247595Y82550
X257595Y82550
X267595Y82550
T07
X512595Y12050
X522595Y13050
X532595Y12050
X542595Y13050
X561895Y12550
X573295Y12550
X586895Y12550
X598295Y12550
X646895Y72550
X658295Y72550
X672095Y172550
X673095Y182550
X672095Y192550
X672095Y207550
X673095Y217550
X672095Y227550
X521095Y307550
X511095Y307550
X501095Y307550
X461095Y307550
X451095Y307550
X441095Y307550
X396095Y307550
X386095Y307550
X376095Y307550
X336095Y307550
X326095Y307550
X316095Y307550
X271095Y307550
X261095Y307550
X251095Y307550
X211095Y307050
X201095Y307050
X191095Y307050
T08
X100095Y285267
X125095Y285267
X125095Y267550
X100095Y267550
X585095Y267550
X610095Y267550
X610095Y285267
X585095Y285267
X642595Y142550
X642595Y132550
X642595Y122550
X642595Y112550
X662595Y112550
X662595Y122550
X662595Y132550
X662595Y142550
T09
X82595Y211300
X142595Y211300
X142595Y263800
X82595Y263800
X567595Y263800
X627595Y263800
X627595Y211300
X567595Y211300
T10
X640272Y13652
X653658Y32550
T11
X182198Y222050
X219993Y222050
X242198Y222050
X279993Y222050
X307198Y222050
X344993Y222050
X367198Y222050
X404993Y222050
X432198Y222050
X469993Y222050
X492198Y222050
X529993Y222050
X529993Y282050
X492198Y282050
X469993Y282050
X432198Y282050
X404993Y282050
X367198Y282050
X344993Y282050
X307198Y282050
X279993Y282050
X242198Y282050
X219993Y282050
X182198Y282050
T12
X629052Y32550
M30
