  0
SECTION
  2
HEADER
  9
$ACADVER
  1
AC1009
  9
$DWGCODEPAGE
  3
mac-roman
  9
$INSBASE
 10
0.0
 20
0.0
 30
0.0
  9
$EXTMIN
 10
-80.7295247550088
 20
-200.0818435717857
 30
0.0
  9
$EXTMAX
 10
221.661399846381
 20
119.6134015588276
 30
0.0
  9
$LIMMIN
 10
0.0
 20
0.0
  9
$LIMMAX
 10
12.0
 20
9.0
  9
$ORTHOMODE
 70
     0
  9
$REGENMODE
 70
     1
  9
$FILLMODE
 70
     1
  9
$QTEXTMODE
 70
     0
  9
$MIRRTEXT
 70
     1
  9
$DRAGMODE
 70
     2
  9
$LTSCALE
 40
1.0
  9
$OSMODE
 70
    37
  9
$ATTMODE
 70
     1
  9
$TEXTSIZE
 40
0.2
  9
$TRACEWID
 40
0.05
  9
$TEXTSTYLE
  7
STANDARD
  9
$CLAYER
  8
VERSION_3$HOLDER-COVER
  9
$CELTYPE
  6
BYLAYER
  9
$CECOLOR
 62
   256
  9
$DIMSCALE
 40
1.0
  9
$DIMASZ
 40
0.18
  9
$DIMEXO
 40
0.0625
  9
$DIMDLI
 40
0.38
  9
$DIMRND
 40
0.0
  9
$DIMDLE
 40
0.0
  9
$DIMEXE
 40
0.18
  9
$DIMTP
 40
0.0
  9
$DIMTM
 40
0.0
  9
$DIMTXT
 40
0.18
  9
$DIMCEN
 40
0.09
  9
$DIMTSZ
 40
0.0
  9
$DIMTOL
 70
     0
  9
$DIMLIM
 70
     0
  9
$DIMTIH
 70
     1
  9
$DIMTOH
 70
     1
  9
$DIMSE1
 70
     0
  9
$DIMSE2
 70
     0
  9
$DIMTAD
 70
     0
  9
$DIMZIN
 70
     0
  9
$DIMBLK
  1

  9
$DIMASO
 70
     1
  9
$DIMSHO
 70
     1
  9
$DIMPOST
  1

  9
$DIMAPOST
  1

  9
$DIMALT
 70
     0
  9
$DIMALTD
 70
     2
  9
$DIMALTF
 40
25.4
  9
$DIMLFAC
 40
1.0
  9
$DIMTOFL
 70
     0
  9
$DIMTVP
 40
0.0
  9
$DIMTIX
 70
     0
  9
$DIMSOXD
 70
     0
  9
$DIMSAH
 70
     0
  9
$DIMBLK1
  1

  9
$DIMBLK2
  1

  9
$DIMSTYLE
  2
STANDARD
  9
$DIMCLRD
 70
     0
  9
$DIMCLRE
 70
     0
  9
$DIMCLRT
 70
     0
  9
$DIMTFAC
 40
1.0
  9
$DIMGAP
 40
0.09
  9
$LUNITS
 70
     2
  9
$LUPREC
 70
     3
  9
$SKETCHINC
 40
0.1
  9
$FILLETRAD
 40
0.5
  9
$AUNITS
 70
     0
  9
$AUPREC
 70
     0
  9
$MENU
  1
.
  9
$ELEVATION
 40
0.0
  9
$PELEVATION
 40
0.0
  9
$THICKNESS
 40
0.0
  9
$LIMCHECK
 70
     0
  9
$CHAMFERA
 40
0.0
  9
$CHAMFERB
 40
0.0
  9
$SKPOLY
 70
     0
  9
$TDCREATE
 40
2457886.921875
  9
$TDUPDATE
 40
2457886.921886574
  9
$TDINDWG
 40
0.0000000116
  9
$TDUSRTIMER
 40
0.0000000116
  9
$USRTIMER
 70
     1
  9
$ANGBASE
 50
0.0
  9
$ANGDIR
 70
     0
  9
$PDMODE
 70
     0
  9
$PDSIZE
 40
0.0
  9
$PLINEWID
 40
0.0
  9
$COORDS
 70
     1
  9
$SPLFRAME
 70
     0
  9
$SPLINETYPE
 70
     6
  9
$SPLINESEGS
 70
     8
  9
$ATTDIA
 70
     0
  9
$ATTREQ
 70
     1
  9
$HANDLING
 70
     1
  9
$HANDSEED
  5
1A5
  9
$SURFTAB1
 70
     6
  9
$SURFTAB2
 70
     6
  9
$SURFTYPE
 70
     6
  9
$SURFU
 70
     6
  9
$SURFV
 70
     6
  9
$UCSNAME
  2

  9
$UCSORG
 10
0.0
 20
0.0
 30
0.0
  9
$UCSXDIR
 10
1.0
 20
0.0
 30
0.0
  9
$UCSYDIR
 10
0.0
 20
1.0
 30
0.0
  9
$PUCSNAME
  2

  9
$PUCSORG
 10
0.0
 20
0.0
 30
0.0
  9
$PUCSXDIR
 10
1.0
 20
0.0
 30
0.0
  9
$PUCSYDIR
 10
0.0
 20
1.0
 30
0.0
  9
$USERI1
 70
     0
  9
$USERI2
 70
     0
  9
$USERI3
 70
     0
  9
$USERI4
 70
     0
  9
$USERI5
 70
     0
  9
$USERR1
 40
0.0
  9
$USERR2
 40
0.0
  9
$USERR3
 40
0.0
  9
$USERR4
 40
0.0
  9
$USERR5
 40
0.0
  9
$WORLDVIEW
 70
     1
  9
$SHADEDGE
 70
     3
  9
$SHADEDIF
 70
    70
  9
$TILEMODE
 70
     1
  9
$MAXACTVP
 70
    64
  9
$PLIMCHECK
 70
     0
  9
$PEXTMIN
 10
1.000000000000000E+20
 20
1.000000000000000E+20
 30
1.000000000000000E+20
  9
$PEXTMAX
 10
-1.000000000000000E+20
 20
-1.000000000000000E+20
 30
-1.000000000000000E+20
  9
$PLIMMIN
 10
0.0
 20
0.0
  9
$PLIMMAX
 10
12.0
 20
9.0
  9
$UNITMODE
 70
     0
  9
$VISRETAIN
 70
     1
  9
$PLINEGEN
 70
     0
  9
$PSLTSCALE
 70
     1
  0
ENDSEC
  0
SECTION
  2
TABLES
  0
TABLE
  2
VPORT
 70
     1
  0
VPORT
  2
*ACTIVE
 70
     0
 10
0.0
 20
0.0
 11
1.0
 21
1.0
 12
70.46593754568612
 22
-40.23422100647906
 13
0.0
 23
0.0
 14
0.5
 24
0.5
 15
0.5
 25
0.5
 16
0.0
 26
0.0
 36
1.0
 17
0.0
 27
0.0
 37
0.0
 40
326.0891500332256
 41
0.9458724494880938
 42
50.0
 43
0.0
 44
0.0
 50
0.0
 51
0.0
 71
     0
 72
   100
 73
     1
 74
     3
 75
     0
 76
     0
 77
     0
 78
     0
  0
ENDTAB
  0
TABLE
  2
LTYPE
 70
     1
  0
LTYPE
  2
CONTINUOUS
 70
     0
  3
Solid line
 72
    65
 73
     0
 40
0.0
  0
ENDTAB
  0
TABLE
  2
LAYER
 70
     2
  0
LAYER
  2
0
 70
     0
 62
     7
  6
CONTINUOUS
  0
LAYER
  2
VERSION_3$HOLDER-COVER
 70
     0
 62
    30
  6
CONTINUOUS
  0
ENDTAB
  0
TABLE
  2
STYLE
 70
     1
  0
STYLE
  2
STANDARD
 70
     0
 40
0.0
 41
1.0
 50
0.0
 71
     0
 42
0.2
  3
txt
  4

  0
ENDTAB
  0
TABLE
  2
VIEW
 70
     0
  0
ENDTAB
  0
TABLE
  2
UCS
 70
     0
  0
ENDTAB
  0
TABLE
  2
APPID
 70
     1
  0
APPID
  2
ACAD
 70
     0
  0
ENDTAB
  0
TABLE
  2
DIMSTYLE
 70
     1
  0
DIMSTYLE
  2
STANDARD
 70
     0
  3

  4

  5

  6

  7

 40
1.0
 41
0.18
 42
0.0625
 43
0.38
 44
0.18
 45
0.0
 46
0.0
 47
0.0
 48
0.0
140
0.18
141
0.09
142
0.0
143
25.4
144
1.0
145
0.0
146
1.0
147
0.09
 71
     0
 72
     0
 73
     1
 74
     1
 75
     0
 76
     0
 77
     0
 78
     0
170
     0
171
     2
172
     0
173
     0
174
     0
175
     0
176
     0
177
     0
178
     0
  0
ENDTAB
  0
ENDSEC
  0
SECTION
  2
BLOCKS
  0
BLOCK
  8
0
  2
$MODEL_SPACE
 70
     0
 10
0.0
 20
0.0
 30
0.0
  3
$MODEL_SPACE
  1

  0
ENDBLK
  5
21
  8
0
  0
BLOCK
 67
     1
  8
0
  2
$PAPER_SPACE
 70
     0
 10
0.0
 20
0.0
 30
0.0
  3
$PAPER_SPACE
  1

  0
ENDBLK
  5
1D
 67
     1
  8
0
  0
ENDSEC
  0
SECTION
  2
ENTITIES
  0
CIRCLE
  5
6F
  8
VERSION_3$HOLDER-COVER
 10
130.0983980624468
 20
-96.8957253086038
 30
0.0
 40
2.0
  0
CIRCLE
  5
70
  8
VERSION_3$HOLDER-COVER
 10
23.63717970646714
 20
-135.8383017677005
 30
0.0
 40
2.0
  0
CIRCLE
  5
71
  8
VERSION_3$HOLDER-COVER
 10
23.63717970646714
 20
15.98130790616921
 30
0.0
 40
2.0
  0
POLYLINE
  5
72
  8
VERSION_3$HOLDER-COVER
 66
     1
 10
0.0
 20
0.0
 30
0.0
 70
     1
  0
VERTEX
  5
73
  8
VERSION_3$HOLDER-COVER
 10
5.863658221478474
 20
117.801754939502
 30
0.0
 42
0.1889744821242703
  0
VERTEX
  5
74
  8
VERSION_3$HOLDER-COVER
 10
-80.72952475500878
 20
28.202360050491
 30
0.0
  0
VERTEX
  5
75
  8
VERSION_3$HOLDER-COVER
 10
-80.16153502195405
 20
28.19636722417574
 30
0.0
  0
VERTEX
  5
76
  8
VERSION_3$HOLDER-COVER
 10
-79.60349853573285
 20
28.17838874522995
 30
0.0
  0
VERTEX
  5
77
  8
VERSION_3$HOLDER-COVER
 10
-79.05541529634522
 20
28.14842461365363
 30
0.0
  0
VERTEX
  5
78
  8
VERSION_3$HOLDER-COVER
 10
-78.51728530379114
 20
28.10647482944679
 30
0.0
  0
VERTEX
  5
79
  8
VERSION_3$HOLDER-COVER
 10
-77.98910855807061
 20
28.05253939260941
 30
0.0
  0
VERTEX
  5
7A
  8
VERSION_3$HOLDER-COVER
 10
-77.47088505918364
 20
27.98661830314151
 30
0.0
  0
VERTEX
  5
7B
  8
VERSION_3$HOLDER-COVER
 10
-76.96261480713022
 20
27.90871156104308
 30
0.0
  0
VERTEX
  5
7C
  8
VERSION_3$HOLDER-COVER
 10
-76.46429780191035
 20
27.81881916631412
 30
0.0
  0
VERTEX
  5
7D
  8
VERSION_3$HOLDER-COVER
 10
-75.97593404352403
 20
27.71694111895463
 30
0.0
  0
VERTEX
  5
7E
  8
VERSION_3$HOLDER-COVER
 10
-75.49752353197127
 20
27.60307741896461
 30
0.0
  0
VERTEX
  5
7F
  8
VERSION_3$HOLDER-COVER
 10
-75.02906626725208
 20
27.47722806634407
 30
0.0
  0
VERTEX
  5
80
  8
VERSION_3$HOLDER-COVER
 10
-74.57056224936642
 20
27.33939306109299
 30
0.0
  0
VERTEX
  5
81
  8
VERSION_3$HOLDER-COVER
 10
-74.12201147831432
 20
27.18957240321139
 30
0.0
  0
VERTEX
  5
82
  8
VERSION_3$HOLDER-COVER
 10
-73.68341395409578
 20
27.02776609269925
 30
0.0
  0
VERTEX
  5
83
  8
VERSION_3$HOLDER-COVER
 10
-73.2547696767108
 20
26.85397412955659
 30
0.0
  0
VERTEX
  5
84
  8
VERSION_3$HOLDER-COVER
 10
-72.83607864615935
 20
26.6681965137834
 30
0.0
  0
VERTEX
  5
85
  8
VERSION_3$HOLDER-COVER
 10
-72.42734086244147
 20
26.47043324537967
 30
0.0
  0
VERTEX
  5
86
  8
VERSION_3$HOLDER-COVER
 10
-72.02855632555713
 20
26.26068432434543
 30
0.0
  0
VERTEX
  5
87
  8
VERSION_3$HOLDER-COVER
 10
-71.63972503550637
 20
26.03894975068065
 30
0.0
  0
VERTEX
  5
88
  8
VERSION_3$HOLDER-COVER
 10
-71.26084699228915
 20
25.80522952438534
 30
0.0
  0
VERTEX
  5
89
  8
VERSION_3$HOLDER-COVER
 10
-71.07514043824312
 20
25.68387479150124
 30
0.0
  0
VERTEX
  5
8A
  8
VERSION_3$HOLDER-COVER
 10
-70.89192219590548
 20
25.55952364545951
 30
0.0
  0
VERTEX
  5
8B
  8
VERSION_3$HOLDER-COVER
 10
-70.71119226527622
 20
25.43217608626014
 30
0.0
  0
VERTEX
  5
8C
  8
VERSION_3$HOLDER-COVER
 10
-70.53295064635537
 20
25.30183211390314
 30
0.0
  0
VERTEX
  5
8D
  8
VERSION_3$HOLDER-COVER
 10
-70.3571973391429
 20
25.16849172838851
 30
0.0
  0
VERTEX
  5
8E
  8
VERSION_3$HOLDER-COVER
 10
-70.18393234363882
 20
25.03215492971625
 30
0.0
  0
VERTEX
  5
8F
  8
VERSION_3$HOLDER-COVER
 10
-70.01315565984311
 20
24.89282171788635
 30
0.0
  0
VERTEX
  5
90
  8
VERSION_3$HOLDER-COVER
 10
-69.8448672877558
 20
24.75049209289882
 30
0.0
  0
VERTEX
  5
91
  8
VERSION_3$HOLDER-COVER
 10
-69.67906722737689
 20
24.60516605475366
 30
0.0
  0
VERTEX
  5
92
  8
VERSION_3$HOLDER-COVER
 10
-69.51575547870635
 20
24.45684360345087
 30
0.0
  0
VERTEX
  5
93
  8
VERSION_3$HOLDER-COVER
 10
-69.3549320417442
 20
24.30552473899045
 30
0.0
  0
VERTEX
  5
94
  8
VERSION_3$HOLDER-COVER
 10
-69.19659691649045
 20
24.15120946137239
 30
0.0
  0
VERTEX
  5
95
  8
VERSION_3$HOLDER-COVER
 10
-69.04075010294508
 20
23.9938977705967
 30
0.0
  0
VERTEX
  5
96
  8
VERSION_3$HOLDER-COVER
 10
-68.88739160110812
 20
23.83358966666338
 30
0.0
  0
VERTEX
  5
97
  8
VERSION_3$HOLDER-COVER
 10
-68.58813953255932
 20
23.50398421932384
 30
0.0
  0
VERTEX
  5
98
  8
VERSION_3$HOLDER-COVER
 10
-68.29884071084408
 20
23.16239311935378
 30
0.0
  0
VERTEX
  5
99
  8
VERSION_3$HOLDER-COVER
 10
-68.0194951359624
 20
22.80881636675318
 30
0.0
  0
VERTEX
  5
9A
  8
VERSION_3$HOLDER-COVER
 10
-67.75010280791426
 20
22.44325396152205
 30
0.0
  0
VERTEX
  5
9B
  8
VERSION_3$HOLDER-COVER
 10
-67.4906637266997
 20
22.0657059036604
 30
0.0
  0
VERTEX
  5
9C
  8
VERSION_3$HOLDER-COVER
 10
-67.24117789231867
 20
21.67617219316822
 30
0.0
  0
VERTEX
  5
9D
  8
VERSION_3$HOLDER-COVER
 10
-67.0016453047712
 20
21.27465283004551
 30
0.0
  0
VERTEX
  5
9E
  8
VERSION_3$HOLDER-COVER
 10
-66.77206596405729
 20
20.86114781429227
 30
0.0
  0
VERTEX
  5
9F
  8
VERSION_3$HOLDER-COVER
 10
-66.55243987017693
 20
20.4356571459085
 30
0.0
  0
VERTEX
  5
A0
  8
VERSION_3$HOLDER-COVER
 10
-66.34276702313012
 20
19.9981808248942
 30
0.0
  0
VERTEX
  5
A1
  8
VERSION_3$HOLDER-COVER
 10
-66.14304742291688
 20
19.54871885124937
 30
0.0
  0
VERTEX
  5
A2
  8
VERSION_3$HOLDER-COVER
 10
-65.95328106953718
 20
19.08727122497402
 30
0.0
  0
VERTEX
  5
A3
  8
VERSION_3$HOLDER-COVER
 10
-65.77346796299103
 20
18.61383794606813
 30
0.0
  0
VERTEX
  5
A4
  8
VERSION_3$HOLDER-COVER
 10
-65.60360810327845
 20
18.12841901453172
 30
0.0
  0
VERTEX
  5
A5
  8
VERSION_3$HOLDER-COVER
 10
-65.4437014903994
 20
17.63101443036477
 30
0.0
  0
VERTEX
  5
A6
  8
VERSION_3$HOLDER-COVER
 10
-65.29374812435394
 20
17.1216241935673
 30
0.0
  0
VERTEX
  5
A7
  8
VERSION_3$HOLDER-COVER
 10
-65.153748005142
 20
16.6002483041393
 30
0.0
  0
VERTEX
  5
A8
  8
VERSION_3$HOLDER-COVER
 10
-65.02370113276362
 20
16.06688676208077
 30
0.0
  0
VERTEX
  5
A9
  8
VERSION_3$HOLDER-COVER
 10
-64.90360750721881
 20
15.52153956739171
 30
0.0
  0
VERTEX
  5
AA
  8
VERSION_3$HOLDER-COVER
 10
-64.79346712850753
 20
14.96420672007213
 30
0.0
  0
VERTEX
  5
AB
  8
VERSION_3$HOLDER-COVER
 10
-64.69327999662983
 20
14.39488822012201
 30
0.0
  0
VERTEX
  5
AC
  8
VERSION_3$HOLDER-COVER
 10
-64.60304611158567
 20
13.81358406754137
 30
0.0
  0
VERTEX
  5
AD
  8
VERSION_3$HOLDER-COVER
 10
-64.52276547337506
 20
13.22029426233019
 30
0.0
  0
VERTEX
  5
AE
  8
VERSION_3$HOLDER-COVER
 10
-64.45243808199801
 20
12.61501880448849
 30
0.0
  0
VERTEX
  5
AF
  8
VERSION_3$HOLDER-COVER
 10
-64.39206393745451
 20
11.99775769401626
 30
0.0
  0
VERTEX
  5
B0
  8
VERSION_3$HOLDER-COVER
 10
-64.30117538886817
 20
10.72727851518021
 30
0.0
  0
VERTEX
  5
B1
  8
VERSION_3$HOLDER-COVER
 10
-64.25009982761605
 20
9.40885672582204
 30
0.0
  0
VERTEX
  5
B2
  8
VERSION_3$HOLDER-COVER
 10
-64.23883725369815
 20
8.04249232594176
 30
0.0
  0
VERTEX
  5
B3
  8
VERSION_3$HOLDER-COVER
 10
-64.26738766711446
 20
6.628185315539364
 30
0.0
  0
VERTEX
  5
B4
  8
VERSION_3$HOLDER-COVER
 10
-64.33575106786498
 20
5.16593569461485
 30
0.0
  0
VERTEX
  5
B5
  8
VERSION_3$HOLDER-COVER
 10
-64.44392745594972
 20
3.655743463168222
 30
0.0
  0
VERTEX
  5
B6
  8
VERSION_3$HOLDER-COVER
 10
-5.764894971884388
 20
-5.390481753415082
 30
0.0
  0
VERTEX
  5
B7
  8
VERSION_3$HOLDER-COVER
 10
-5.594118604949784
 20
-116.9464158939458
 30
0.0
  0
VERTEX
  5
B8
  8
VERSION_3$HOLDER-COVER
 10
-65.48357266568487
 20
-126.3670568165668
 30
0.0
 42
0.8726926258032224
  0
VERTEX
  5
B9
  8
VERSION_3$HOLDER-COVER
 10
-65.40324785831109
 20
-130.3294415600492
 30
0.0
  0
VERTEX
  5
BA
  8
VERSION_3$HOLDER-COVER
 10
-61.71318546720516
 20
-130.8018470485545
 30
0.0
  0
VERTEX
  5
BB
  8
VERSION_3$HOLDER-COVER
 10
-58.12343833453041
 20
-131.3513320092986
 30
0.0
  0
VERTEX
  5
BC
  8
VERSION_3$HOLDER-COVER
 10
-54.63400646028682
 20
-131.9778964422817
 30
0.0
  0
VERTEX
  5
BD
  8
VERSION_3$HOLDER-COVER
 10
-51.2448898444744
 20
-132.6815403475037
 30
0.0
  0
VERTEX
  5
BE
  8
VERSION_3$HOLDER-COVER
 10
-47.95608848709315
 20
-133.4622637249646
 30
0.0
  0
VERTEX
  5
BF
  8
VERSION_3$HOLDER-COVER
 10
-44.76760238814308
 20
-134.3200665746644
 30
0.0
  0
VERTEX
  5
C0
  8
VERSION_3$HOLDER-COVER
 10
-41.67943154762417
 20
-135.2549488966031
 30
0.0
  0
VERTEX
  5
C1
  8
VERSION_3$HOLDER-COVER
 10
-38.69157596553643
 20
-136.2669106907807
 30
0.0
  0
VERTEX
  5
C2
  8
VERSION_3$HOLDER-COVER
 10
-35.80403564187986
 20
-137.3559519571971
 30
0.0
  0
VERTEX
  5
C3
  8
VERSION_3$HOLDER-COVER
 10
-34.39788370196327
 20
-137.929377392495
 30
0.0
  0
VERTEX
  5
C4
  8
VERSION_3$HOLDER-COVER
 10
-33.01681057665446
 20
-138.5220726958525
 30
0.0
  0
VERTEX
  5
C5
  8
VERSION_3$HOLDER-COVER
 10
-31.66081626595346
 20
-139.1340378672698
 30
0.0
  0
VERTEX
  5
C6
  8
VERSION_3$HOLDER-COVER
 10
-30.32990076986024
 20
-139.7652729067468
 30
0.0
  0
VERTEX
  5
C7
  8
VERSION_3$HOLDER-COVER
 10
-29.02406408837481
 20
-140.4157778142836
 30
0.0
  0
VERTEX
  5
C8
  8
VERSION_3$HOLDER-COVER
 10
-27.74330622149718
 20
-141.08555258988
 30
0.0
  0
VERTEX
  5
C9
  8
VERSION_3$HOLDER-COVER
 10
-26.48762716922734
 20
-141.7745972335362
 30
0.0
  0
VERTEX
  5
CA
  8
VERSION_3$HOLDER-COVER
 10
-25.2570269315653
 20
-142.4829117452521
 30
0.0
  0
VERTEX
  5
CB
  8
VERSION_3$HOLDER-COVER
 10
-24.05150550851104
 20
-143.2104961250278
 30
0.0
  0
VERTEX
  5
CC
  8
VERSION_3$HOLDER-COVER
 10
-22.87106290006458
 20
-143.9573503728631
 30
0.0
  0
VERTEX
  5
CD
  8
VERSION_3$HOLDER-COVER
 10
-21.71569910622591
 20
-144.7234744887582
 30
0.0
  0
VERTEX
  5
CE
  8
VERSION_3$HOLDER-COVER
 10
-20.58541412699503
 20
-145.508868472713
 30
0.0
  0
VERTEX
  5
CF
  8
VERSION_3$HOLDER-COVER
 10
-19.48020796237195
 20
-146.3135323247276
 30
0.0
  0
VERTEX
  5
D0
  8
VERSION_3$HOLDER-COVER
 10
-18.40008061235666
 20
-147.1374660448018
 30
0.0
  0
VERTEX
  5
D1
  8
VERSION_3$HOLDER-COVER
 10
-17.34503207694916
 20
-147.9806696329358
 30
0.0
  0
VERTEX
  5
D2
  8
VERSION_3$HOLDER-COVER
 10
-16.31506235614945
 20
-148.8431430891295
 30
0.0
  0
VERTEX
  5
D3
  8
VERSION_3$HOLDER-COVER
 10
-15.31017144995754
 20
-149.724886413383
 30
0.0
  0
VERTEX
  5
D4
  8
VERSION_3$HOLDER-COVER
 10
-14.33035935837342
 20
-150.6258996056961
 30
0.0
  0
VERTEX
  5
D5
  8
VERSION_3$HOLDER-COVER
 10
-13.37562608139709
 20
-151.546182666069
 30
0.0
  0
VERTEX
  5
D6
  8
VERSION_3$HOLDER-COVER
 10
-12.44597161902856
 20
-152.4857355945016
 30
0.0
  0
VERTEX
  5
D7
  8
VERSION_3$HOLDER-COVER
 10
-11.54139597126781
 20
-153.444558390994
 30
0.0
  0
VERTEX
  5
D8
  8
VERSION_3$HOLDER-COVER
 10
-10.66189913811486
 20
-154.4226510555461
 30
0.0
  0
VERTEX
  5
D9
  8
VERSION_3$HOLDER-COVER
 10
-9.807481119569704
 20
-155.4200135881578
 30
0.0
  0
VERTEX
  5
DA
  8
VERSION_3$HOLDER-COVER
 10
-8.978141915632337
 20
-156.4366459888294
 30
0.0
  0
VERTEX
  5
DB
  8
VERSION_3$HOLDER-COVER
 10
-8.173881526302763
 20
-157.4725482575606
 30
0.0
  0
VERTEX
  5
DC
  8
VERSION_3$HOLDER-COVER
 10
-7.394699951580983
 20
-158.5277203943516
 30
0.0
  0
VERTEX
  5
DD
  8
VERSION_3$HOLDER-COVER
 10
-6.640597191466995
 20
-159.6021623992023
 30
0.0
  0
VERTEX
  5
DE
  8
VERSION_3$HOLDER-COVER
 10
-5.911573245960799
 20
-160.6958742721127
 30
0.0
  0
VERTEX
  5
DF
  8
VERSION_3$HOLDER-COVER
 10
-5.207628115062397
 20
-161.8088560130828
 30
0.0
  0
VERTEX
  5
E0
  8
VERSION_3$HOLDER-COVER
 10
-4.528761798771786
 20
-162.9411076221127
 30
0.0
  0
VERTEX
  5
E1
  8
VERSION_3$HOLDER-COVER
 10
-3.874974297088968
 20
-164.0926290992023
 30
0.0
  0
VERTEX
  5
E2
  8
VERSION_3$HOLDER-COVER
 10
-3.246265610013943
 20
-165.2634204443516
 30
0.0
  0
VERTEX
  5
E3
  8
VERSION_3$HOLDER-COVER
 10
-2.642635737546709
 20
-166.4534816575606
 30
0.0
  0
VERTEX
  5
E4
  8
VERSION_3$HOLDER-COVER
 10
-2.064084679687269
 20
-167.6628127388294
 30
0.0
  0
VERTEX
  5
E5
  8
VERSION_3$HOLDER-COVER
 10
-1.510612436435621
 20
-168.8914136881579
 30
0.0
  0
VERTEX
  5
E6
  8
VERSION_3$HOLDER-COVER
 10
-0.9822190077917657
 20
-170.1392845055461
 30
0.0
  0
VERTEX
  5
E7
  8
VERSION_3$HOLDER-COVER
 10
-0.478904393755703
 20
-171.4064251909941
 30
0.0
  0
VERTEX
  5
E8
  8
VERSION_3$HOLDER-COVER
 10
-0.0006685943274327
 20
-172.6928357445018
 30
0.0
  0
VERTEX
  5
E9
  8
VERSION_3$HOLDER-COVER
 10
0.452488390493045
 20
-173.9985161660692
 30
0.0
  0
VERTEX
  5
EA
  8
VERSION_3$HOLDER-COVER
 10
0.8805665607057301
 20
-175.3234664556963
 30
0.0
  0
VERTEX
  5
EB
  8
VERSION_3$HOLDER-COVER
 10
1.283565916310623
 20
-176.6676866133831
 30
0.0
  0
VERTEX
  5
EC
  8
VERSION_3$HOLDER-COVER
 10
1.661486457307723
 20
-178.0311766391297
 30
0.0
  0
VERTEX
  5
ED
  8
VERSION_3$HOLDER-COVER
 10
2.01432818369703
 20
-179.413936532936
 30
0.0
  0
VERTEX
  5
EE
  8
VERSION_3$HOLDER-COVER
 10
2.342091095478545
 20
-180.815966294802
 30
0.0
  0
VERTEX
  5
EF
  8
VERSION_3$HOLDER-COVER
 10
2.644775192652268
 20
-182.2372659247278
 30
0.0
  0
VERTEX
  5
F0
  8
VERSION_3$HOLDER-COVER
 10
2.922380475218166
 20
-183.6778354227133
 30
0.0
 42
0.3622018054859236
  0
VERTEX
  5
F1
  8
VERSION_3$HOLDER-COVER
 10
22.59644570353591
 20
-200.0818435717857
 30
0.0
  0
VERTEX
  5
F2
  8
VERSION_3$HOLDER-COVER
 10
131.1391320653777
 20
-200.0818435717843
 30
0.0
 42
0.3622018054858982
  0
VERTEX
  5
F3
  8
VERSION_3$HOLDER-COVER
 10
150.8131972936942
 20
-183.677835422713
 30
0.0
  0
VERTEX
  5
F4
  8
VERSION_3$HOLDER-COVER
 10
151.0926015061027
 20
-182.2283967150325
 30
0.0
  0
VERTEX
  5
F5
  8
VERSION_3$HOLDER-COVER
 10
151.3973963963526
 20
-180.7984675024686
 30
0.0
  0
VERTEX
  5
F6
  8
VERSION_3$HOLDER-COVER
 10
151.7275819644441
 20
-179.3880477850215
 30
0.0
  0
VERTEX
  5
F7
  8
VERSION_3$HOLDER-COVER
 10
152.0831582103772
 20
-177.997137562691
 30
0.0
  0
VERTEX
  5
F8
  8
VERSION_3$HOLDER-COVER
 10
152.4641251341517
 20
-176.6257368354772
 30
0.0
  0
VERTEX
  5
F9
  8
VERSION_3$HOLDER-COVER
 10
152.8704827357679
 20
-175.2738456033802
 30
0.0
  0
VERTEX
  5
FA
  8
VERSION_3$HOLDER-COVER
 10
153.3022310152256
 20
-173.9414638663998
 30
0.0
  0
VERTEX
  5
FB
  8
VERSION_3$HOLDER-COVER
 10
153.7593699725248
 20
-172.6285916245361
 30
0.0
  0
VERTEX
  5
FC
  8
VERSION_3$HOLDER-COVER
 10
154.2418996076656
 20
-171.3352288777892
 30
0.0
  0
VERTEX
  5
FD
  8
VERSION_3$HOLDER-COVER
 10
154.749819920648
 20
-170.0613756261589
 30
0.0
  0
VERTEX
  5
FE
  8
VERSION_3$HOLDER-COVER
 10
155.2831309114719
 20
-168.8070318696454
 30
0.0
  0
VERTEX
  5
FF
  8
VERSION_3$HOLDER-COVER
 10
155.8418325801373
 20
-167.5721976082485
 30
0.0
  0
VERTEX
  5
100
  8
VERSION_3$HOLDER-COVER
 10
156.4259249266443
 20
-166.3568728419684
 30
0.0
  0
VERTEX
  5
101
  8
VERSION_3$HOLDER-COVER
 10
157.0354079509928
 20
-165.1610575708049
 30
0.0
  0
VERTEX
  5
102
  8
VERSION_3$HOLDER-COVER
 10
157.6702816531829
 20
-163.9847517947582
 30
0.0
  0
VERTEX
  5
103
  8
VERSION_3$HOLDER-COVER
 10
158.3305460332145
 20
-162.8279555138282
 30
0.0
  0
VERTEX
  5
104
  8
VERSION_3$HOLDER-COVER
 10
159.0162010910877
 20
-161.6906687280148
 30
0.0
  0
VERTEX
  5
105
  8
VERSION_3$HOLDER-COVER
 10
159.7272468268024
 20
-160.5728914373182
 30
0.0
  0
VERTEX
  5
106
  8
VERSION_3$HOLDER-COVER
 10
160.4636832403586
 20
-159.4746236417382
 30
0.0
  0
VERTEX
  5
107
  8
VERSION_3$HOLDER-COVER
 10
161.2255103317565
 20
-158.395865341275
 30
0.0
  0
VERTEX
  5
108
  8
VERSION_3$HOLDER-COVER
 10
162.0127281009958
 20
-157.3366165359285
 30
0.0
  0
VERTEX
  5
109
  8
VERSION_3$HOLDER-COVER
 10
162.8253365480768
 20
-156.2968772256987
 30
0.0
  0
VERTEX
  5
10A
  8
VERSION_3$HOLDER-COVER
 10
163.6633356729992
 20
-155.2766474105856
 30
0.0
  0
VERTEX
  5
10B
  8
VERSION_3$HOLDER-COVER
 10
164.5267254757632
 20
-154.2759270905891
 30
0.0
  0
VERTEX
  5
10C
  8
VERSION_3$HOLDER-COVER
 10
165.4155059563687
 20
-153.2947162657094
 30
0.0
  0
VERTEX
  5
10D
  8
VERSION_3$HOLDER-COVER
 10
166.3296771148159
 20
-152.3330149359464
 30
0.0
  0
VERTEX
  5
10E
  8
VERSION_3$HOLDER-COVER
 10
167.2692389511045
 20
-151.3908231013
 30
0.0
  0
VERTEX
  5
10F
  8
VERSION_3$HOLDER-COVER
 10
168.2341914652347
 20
-150.4681407617704
 30
0.0
  0
VERTEX
  5
110
  8
VERSION_3$HOLDER-COVER
 10
169.2245346572064
 20
-149.5649679173575
 30
0.0
  0
VERTEX
  5
111
  8
VERSION_3$HOLDER-COVER
 10
170.2402685270197
 20
-148.6813045680613
 30
0.0
  0
VERTEX
  5
112
  8
VERSION_3$HOLDER-COVER
 10
171.2813930746746
 20
-147.8171507138818
 30
0.0
  0
VERTEX
  5
113
  8
VERSION_3$HOLDER-COVER
 10
172.347908300171
 20
-146.972506354819
 30
0.0
  0
VERTEX
  5
114
  8
VERSION_3$HOLDER-COVER
 10
173.4398142035089
 20
-146.1473714908729
 30
0.0
  0
VERTEX
  5
115
  8
VERSION_3$HOLDER-COVER
 10
174.5571107846884
 20
-145.3417461220435
 30
0.0
  0
VERTEX
  5
116
  8
VERSION_3$HOLDER-COVER
 10
175.6997980437094
 20
-144.5556302483308
 30
0.0
  0
VERTEX
  5
117
  8
VERSION_3$HOLDER-COVER
 10
176.867875980572
 20
-143.7890238697348
 30
0.0
  0
VERTEX
  5
118
  8
VERSION_3$HOLDER-COVER
 10
178.0613445952761
 20
-143.0419269862555
 30
0.0
  0
VERTEX
  5
119
  8
VERSION_3$HOLDER-COVER
 10
179.2802038878218
 20
-142.3143395978929
 30
0.0
  0
VERTEX
  5
11A
  8
VERSION_3$HOLDER-COVER
 10
180.524453858209
 20
-141.6062617046471
 30
0.0
  0
VERTEX
  5
11B
  8
VERSION_3$HOLDER-COVER
 10
181.7940945064378
 20
-140.9176933065179
 30
0.0
  0
VERTEX
  5
11C
  8
VERSION_3$HOLDER-COVER
 10
183.0891258325081
 20
-140.2486344035054
 30
0.0
  0
VERTEX
  5
11D
  8
VERSION_3$HOLDER-COVER
 10
184.40954783642
 20
-139.5990849956096
 30
0.0
  0
VERTEX
  5
11E
  8
VERSION_3$HOLDER-COVER
 10
185.7553605181733
 20
-138.9690450828305
 30
0.0
  0
VERTEX
  5
11F
  8
VERSION_3$HOLDER-COVER
 10
187.1265638777683
 20
-138.3585146651681
 30
0.0
  0
VERTEX
  5
120
  8
VERSION_3$HOLDER-COVER
 10
188.5231579152048
 20
-137.7674937426225
 30
0.0
  0
VERTEX
  5
121
  8
VERSION_3$HOLDER-COVER
 10
189.9451426304829
 20
-137.1959823151935
 30
0.0
  0
VERTEX
  5
122
  8
VERSION_3$HOLDER-COVER
 10
192.8652840945636
 20
-136.1114879456857
 30
0.0
  0
VERTEX
  5
123
  8
VERSION_3$HOLDER-COVER
 10
195.8869882700105
 20
-135.1050315566446
 30
0.0
  0
VERTEX
  5
124
  8
VERSION_3$HOLDER-COVER
 10
199.0102551568237
 20
-134.1766131480704
 30
0.0
  0
VERTEX
  5
125
  8
VERSION_3$HOLDER-COVER
 10
202.235084755003
 20
-133.3262327199629
 30
0.0
  0
VERTEX
  5
126
  8
VERSION_3$HOLDER-COVER
 10
205.5614770645485
 20
-132.5538902723223
 30
0.0
  0
VERTEX
  5
127
  8
VERSION_3$HOLDER-COVER
 10
208.9894320854602
 20
-131.8595858051486
 30
0.0
  0
VERTEX
  5
128
  8
VERSION_3$HOLDER-COVER
 10
212.5189498177381
 20
-131.2433193184416
 30
0.0
  0
VERTEX
  5
129
  8
VERSION_3$HOLDER-COVER
 10
216.1500302613822
 20
-130.7050908122014
 30
0.0
  0
VERTEX
  5
12A
  8
VERSION_3$HOLDER-COVER
 10
219.8826734163925
 20
-130.244900286428
 30
0.0
 42
0.8754051721259432
  0
VERTEX
  5
12B
  8
VERSION_3$HOLDER-COVER
 10
219.9691545683442
 20
-126.2809985645027
 30
0.0
  0
VERTEX
  5
12C
  8
VERSION_3$HOLDER-COVER
 10
159.2191025924342
 20
-116.8202630950589
 30
0.0
  0
VERTEX
  5
12D
  8
VERSION_3$HOLDER-COVER
 10
159.2191025924342
 20
-5.264198237365317
 30
0.0
  0
VERTEX
  5
12E
  8
VERSION_3$HOLDER-COVER
 10
208.6536238734294
 20
2.43434544591564
 30
0.0
  0
VERTEX
  5
12F
  8
VERSION_3$HOLDER-COVER
 10
208.9990656997886
 20
5.290840450376451
 30
0.0
  0
VERTEX
  5
130
  8
VERSION_3$HOLDER-COVER
 10
209.3995312310047
 20
7.963045454549468
 30
0.0
  0
VERTEX
  5
131
  8
VERSION_3$HOLDER-COVER
 10
209.8550204670777
 20
10.45096045843469
 30
0.0
  0
VERTEX
  5
132
  8
VERSION_3$HOLDER-COVER
 10
210.1033989744355
 20
11.62580921026938
 30
0.0
  0
VERTEX
  5
133
  8
VERSION_3$HOLDER-COVER
 10
210.3655334080075
 20
12.75458546203212
 30
0.0
  0
VERTEX
  5
134
  8
VERSION_3$HOLDER-COVER
 10
210.6414237677938
 20
13.83728921372291
 30
0.0
  0
VERTEX
  5
135
  8
VERSION_3$HOLDER-COVER
 10
210.9310700537942
 20
14.87392046534175
 30
0.0
  0
VERTEX
  5
136
  8
VERSION_3$HOLDER-COVER
 10
211.2344722660089
 20
15.86447921688865
 30
0.0
  0
VERTEX
  5
137
  8
VERSION_3$HOLDER-COVER
 10
211.5516304044378
 20
16.8089654683636
 30
0.0
  0
VERTEX
  5
138
  8
VERSION_3$HOLDER-COVER
 10
211.8825444690809
 20
17.70737921976659
 30
0.0
  0
VERTEX
  5
139
  8
VERSION_3$HOLDER-COVER
 10
212.2272144599382
 20
18.55972047109764
 30
0.0
  0
VERTEX
  5
13A
  8
VERSION_3$HOLDER-COVER
 10
212.4047079276972
 20
18.96861390923618
 30
0.0
  0
VERTEX
  5
13B
  8
VERSION_3$HOLDER-COVER
 10
212.5856403770097
 20
19.36598922235674
 30
0.0
  0
VERTEX
  5
13C
  8
VERSION_3$HOLDER-COVER
 10
212.7700118078758
 20
19.75184641045931
 30
0.0
  0
VERTEX
  5
13D
  8
VERSION_3$HOLDER-COVER
 10
212.9578222202954
 20
20.12618547354389
 30
0.0
  0
VERTEX
  5
13E
  8
VERSION_3$HOLDER-COVER
 10
213.1490716142686
 20
20.48900641161049
 30
0.0
  0
VERTEX
  5
13F
  8
VERSION_3$HOLDER-COVER
 10
213.3437599897954
 20
20.84030922465909
 30
0.0
  0
VERTEX
  5
140
  8
VERSION_3$HOLDER-COVER
 10
213.5418873468757
 20
21.18009391268972
 30
0.0
  0
VERTEX
  5
141
  8
VERSION_3$HOLDER-COVER
 10
213.7434536855096
 20
21.50836047570235
 30
0.0
  0
VERTEX
  5
142
  8
VERSION_3$HOLDER-COVER
 10
213.948459005697
 20
21.825108913697
 30
0.0
  0
VERTEX
  5
143
  8
VERSION_3$HOLDER-COVER
 10
214.156903307438
 20
22.13033922667366
 30
0.0
  0
VERTEX
  5
144
  8
VERSION_3$HOLDER-COVER
 10
214.3687865907325
 20
22.42405141463233
 30
0.0
  0
VERTEX
  5
145
  8
VERSION_3$HOLDER-COVER
 10
214.5841088555806
 20
22.70624547757301
 30
0.0
  0
VERTEX
  5
146
  8
VERSION_3$HOLDER-COVER
 10
214.8028701019822
 20
22.97692141549571
 30
0.0
  0
VERTEX
  5
147
  8
VERSION_3$HOLDER-COVER
 10
215.0250703299374
 20
23.23607922840042
 30
0.0
  0
VERTEX
  5
148
  8
VERSION_3$HOLDER-COVER
 10
215.2507095394461
 20
23.48371891628715
 30
0.0
  0
VERTEX
  5
149
  8
VERSION_3$HOLDER-COVER
 10
215.4797877305084
 20
23.71984047915588
 30
0.0
  0
VERTEX
  5
14A
  8
VERSION_3$HOLDER-COVER
 10
215.7123049031242
 20
23.94444391700663
 30
0.0
  0
VERTEX
  5
14B
  8
VERSION_3$HOLDER-COVER
 10
215.9482610572936
 20
24.15752922983939
 30
0.0
  0
VERTEX
  5
14C
  8
VERSION_3$HOLDER-COVER
 10
216.0675287524609
 20
24.25975258937403
 30
0.0
  0
VERTEX
  5
14D
  8
VERSION_3$HOLDER-COVER
 10
216.1876561930166
 20
24.35909641765416
 30
0.0
  0
VERTEX
  5
14E
  8
VERSION_3$HOLDER-COVER
 10
216.3086433789607
 20
24.45556071467981
 30
0.0
  0
VERTEX
  5
14F
  8
VERSION_3$HOLDER-COVER
 10
216.4304903102931
 20
24.54914548045095
 30
0.0
  0
VERTEX
  5
150
  8
VERSION_3$HOLDER-COVER
 10
216.5531969870139
 20
24.6398507149676
 30
0.0
  0
VERTEX
  5
151
  8
VERSION_3$HOLDER-COVER
 10
216.6767634091232
 20
24.72767641822976
 30
0.0
  0
VERTEX
  5
152
  8
VERSION_3$HOLDER-COVER
 10
216.8011895766208
 20
24.81262259023741
 30
0.0
  0
VERTEX
  5
153
  8
VERSION_3$HOLDER-COVER
 10
216.9264754895068
 20
24.89468923099057
 30
0.0
  0
VERTEX
  5
154
  8
VERSION_3$HOLDER-COVER
 10
217.0526211477812
 20
24.97387634048923
 30
0.0
  0
VERTEX
  5
155
  8
VERSION_3$HOLDER-COVER
 10
217.1796265514439
 20
25.0501839187334
 30
0.0
  0
VERTEX
  5
156
  8
VERSION_3$HOLDER-COVER
 10
217.3074917004951
 20
25.12361196572306
 30
0.0
  0
VERTEX
  5
157
  8
VERSION_3$HOLDER-COVER
 10
217.4362165949347
 20
25.19416048145823
 30
0.0
  0
VERTEX
  5
158
  8
VERSION_3$HOLDER-COVER
 10
217.5658012347627
 20
25.26182946593891
 30
0.0
  0
VERTEX
  5
159
  8
VERSION_3$HOLDER-COVER
 10
217.696245619979
 20
25.32661891916509
 30
0.0
  0
VERTEX
  5
15A
  8
VERSION_3$HOLDER-COVER
 10
217.8275497505837
 20
25.38852884113677
 30
0.0
  0
VERTEX
  5
15B
  8
VERSION_3$HOLDER-COVER
 10
217.9597136265768
 20
25.44755923185395
 30
0.0
  0
VERTEX
  5
15C
  8
VERSION_3$HOLDER-COVER
 10
218.0927372479583
 20
25.50371009131664
 30
0.0
  0
VERTEX
  5
15D
  8
VERSION_3$HOLDER-COVER
 10
218.2266206147282
 20
25.55698141952483
 30
0.0
  0
VERTEX
  5
15E
  8
VERSION_3$HOLDER-COVER
 10
218.3613637268865
 20
25.60737321647852
 30
0.0
  0
VERTEX
  5
15F
  8
VERSION_3$HOLDER-COVER
 10
218.4969665844331
 20
25.65488548217772
 30
0.0
  0
VERTEX
  5
160
  8
VERSION_3$HOLDER-COVER
 10
218.6334291873682
 20
25.69951821662242
 30
0.0
  0
VERTEX
  5
161
  8
VERSION_3$HOLDER-COVER
 10
218.7707515356916
 20
25.74127141981262
 30
0.0
  0
VERTEX
  5
162
  8
VERSION_3$HOLDER-COVER
 10
218.9089336294034
 20
25.78014509174833
 30
0.0
  0
VERTEX
  5
163
  8
VERSION_3$HOLDER-COVER
 10
219.0479754685036
 20
25.81613923242954
 30
0.0
  0
VERTEX
  5
164
  8
VERSION_3$HOLDER-COVER
 10
219.1878770529922
 20
25.84925384185625
 30
0.0
  0
VERTEX
  5
165
  8
VERSION_3$HOLDER-COVER
 10
219.3286383828693
 20
25.87948892002847
 30
0.0
  0
VERTEX
  5
166
  8
VERSION_3$HOLDER-COVER
 10
219.4702594581346
 20
25.90684446694619
 30
0.0
  0
VERTEX
  5
167
  8
VERSION_3$HOLDER-COVER
 10
219.6127402787884
 20
25.93132048260941
 30
0.0
  0
VERTEX
  5
168
  8
VERSION_3$HOLDER-COVER
 10
219.7560808448305
 20
25.95291696701814
 30
0.0
  0
VERTEX
  5
169
  8
VERSION_3$HOLDER-COVER
 10
219.9002811562611
 20
25.97163392017237
 30
0.0
  0
VERTEX
  5
16A
  8
VERSION_3$HOLDER-COVER
 10
220.04534121308
 20
25.9874713420721
 30
0.0
  0
VERTEX
  5
16B
  8
VERSION_3$HOLDER-COVER
 10
220.1912610152874
 20
26.00042923271733
 30
0.0
  0
VERTEX
  5
16C
  8
VERSION_3$HOLDER-COVER
 10
220.3380405628831
 20
26.01050759210808
 30
0.0
  0
VERTEX
  5
16D
  8
VERSION_3$HOLDER-COVER
 10
220.4856798558671
 20
26.01770642024432
 30
0.0
  0
VERTEX
  5
16E
  8
VERSION_3$HOLDER-COVER
 10
220.6341788942397
 20
26.02202571712606
 30
0.0
  0
VERTEX
  5
16F
  8
VERSION_3$HOLDER-COVER
 10
220.7835376780005
 20
26.02346548275331
 30
0.0
  0
VERTEX
  5
170
  8
VERSION_3$HOLDER-COVER
 10
199.8464853865748
 20
45.26684890246663
 30
0.0
  0
VERTEX
  5
171
  8
VERSION_3$HOLDER-COVER
 10
174.8744999811362
 20
18.07183587497443
 30
0.0
  0
VERTEX
  5
172
  8
VERSION_3$HOLDER-COVER
 10
110.9524724719291
 20
76.76862474686742
 30
0.0
  0
VERTEX
  5
173
  8
VERSION_3$HOLDER-COVER
 10
135.9515329696388
 20
103.9931231146322
 30
0.0
  0
VERTEX
  5
174
  8
VERSION_3$HOLDER-COVER
 10
124.6955466901534
 20
114.3385748044168
 30
0.0
 42
0.187986494702567
  0
VERTEX
  5
175
  8
VERSION_3$HOLDER-COVER
 10
111.1615423718674
 20
119.6134015588276
 30
0.0
  0
VERTEX
  5
176
  8
VERSION_3$HOLDER-COVER
 10
103.8497655288097
 20
119.6134015588276
 30
0.0
 42
-0.7305725462097258
  0
VERTEX
  5
177
  8
VERSION_3$HOLDER-COVER
 10
92.26028888487444
 20
83.29510155882767
 30
0.0
  0
VERTEX
  5
178
  8
VERSION_3$HOLDER-COVER
 10
61.78028888427119
 20
83.29510155882762
 30
0.0
 42
-0.7305725462175774
  0
VERTEX
  5
179
  8
VERSION_3$HOLDER-COVER
 10
50.19081223991218
 20
119.6134015588232
 30
0.0
  0
VERTEX
  5
17A
  8
VERSION_3$HOLDER-COVER
 10
14.1813382645975
 20
119.6134015588276
 30
0.0
 42
0.1076415302058161
  0
SEQEND
  5
17B
  8
VERSION_3$HOLDER-COVER
  0
POLYLINE
  5
17C
  8
VERSION_3$HOLDER-COVER
 66
     1
 10
0.0
 20
0.0
 30
0.0
  0
VERTEX
  5
17D
  8
VERSION_3$HOLDER-COVER
 10
114.0855741250502
 20
5.635423195798211
 30
0.0
  0
VERTEX
  5
17E
  8
VERSION_3$HOLDER-COVER
 10
114.0855741250502
 20
13.28985563621126
 30
0.0
  0
VERTEX
  5
17F
  8
VERSION_3$HOLDER-COVER
 10
128.8319863959711
 20
13.28985563621126
 30
0.0
  0
VERTEX
  5
180
  8
VERSION_3$HOLDER-COVER
 10
128.8319863959711
 20
35.88779075538515
 30
0.0
  0
VERTEX
  5
181
  8
VERSION_3$HOLDER-COVER
 10
114.0855741250502
 20
35.88779075538515
 30
0.0
  0
VERTEX
  5
182
  8
VERSION_3$HOLDER-COVER
 10
114.0855741250502
 20
43.5422231957982
 30
0.0
  0
VERTEX
  5
183
  8
VERSION_3$HOLDER-COVER
 10
138.3171741250502
 20
43.5422231957982
 30
0.0
  0
VERTEX
  5
184
  8
VERSION_3$HOLDER-COVER
 10
138.3171741250502
 20
5.543823195798204
 30
0.0
  0
VERTEX
  5
185
  8
VERSION_3$HOLDER-COVER
 10
114.0855741250502
 20
5.442223195798205
 30
0.0
  0
SEQEND
  5
186
  8
VERSION_3$HOLDER-COVER
  0
POLYLINE
  5
187
  8
VERSION_3$HOLDER-COVER
 66
     1
 10
0.0
 20
0.0
 30
0.0
 70
     1
  0
VERTEX
  5
188
  8
VERSION_3$HOLDER-COVER
 10
-41.21899787221597
 20
36.48406289657102
 30
0.0
 42
0.3072336516524399
  0
VERTEX
  5
189
  8
VERSION_3$HOLDER-COVER
 10
-35.26372144692426
 20
42.43933932186143
 30
0.0
 42
-0.3072336516523924
  0
VERTEX
  5
18A
  8
VERSION_3$HOLDER-COVER
 10
-22.12711478017725
 20
55.5759459886072
 30
0.0
 42
0.3072336516524076
  0
VERTEX
  5
18B
  8
VERSION_3$HOLDER-COVER
 10
-16.17183835488677
 20
61.53122241389733
 30
0.0
 42
-0.3072336516523866
  0
VERTEX
  5
18C
  8
VERSION_3$HOLDER-COVER
 10
-3.035231688139755
 20
74.66782908064286
 30
0.0
 42
0.3072336516524139
  0
VERTEX
  5
18D
  8
VERSION_3$HOLDER-COVER
 10
2.92004473715075
 20
80.62310550593324
 30
0.0
 42
-1.886976257969866
  0
VERTEX
  5
18E
  8
VERSION_3$HOLDER-COVER
 10
22.28089475877042
 20
61.26225548431191
 30
0.0
 42
0.3072336516523897
  0
VERTEX
  5
18F
  8
VERSION_3$HOLDER-COVER
 10
16.32561833347966
 20
55.30697905902191
 30
0.0
 42
-0.3072336516523917
  0
VERTEX
  5
190
  8
VERSION_3$HOLDER-COVER
 10
3.18901166673266
 20
42.17037239227619
 30
0.0
 42
0.307233651652381
  0
VERTEX
  5
191
  8
VERSION_3$HOLDER-COVER
 10
-2.766264758558052
 20
36.21509596698603
 30
0.0
 42
-0.3072336516523893
  0
VERTEX
  5
192
  8
VERSION_3$HOLDER-COVER
 10
-15.90287142530508
 20
23.0784893002405
 30
0.0
 42
0.3072336516523566
  0
VERTEX
  5
193
  8
VERSION_3$HOLDER-COVER
 10
-21.85814785059609
 20
17.12321287495008
 30
0.0
 42
-1.886976257969717
  0
SEQEND
  5
194
  8
VERSION_3$HOLDER-COVER
  0
POLYLINE
  5
195
  8
VERSION_3$HOLDER-COVER
 66
     1
 10
0.0
 20
0.0
 30
0.0
 70
     1
  0
VERTEX
  5
196
  8
VERSION_3$HOLDER-COVER
 10
140.2882711337849
 20
-45.93152486035024
 30
0.0
  0
VERTEX
  5
197
  8
VERSION_3$HOLDER-COVER
 10
92.31213287272439
 20
-45.93152486035024
 30
0.0
  0
VERTEX
  5
198
  8
VERSION_3$HOLDER-COVER
 10
92.31213287272439
 20
-62.1014602010992
 30
0.0
  0
VERTEX
  5
199
  8
VERSION_3$HOLDER-COVER
 10
140.2882711337849
 20
-62.1014602010992
 30
0.0
  0
SEQEND
  5
19A
  8
VERSION_3$HOLDER-COVER
  0
CIRCLE
  5
19B
  8
VERSION_3$HOLDER-COVER
 10
76.71528888445697
 20
42.14424999580449
 30
0.0
 40
7.750000000000014
  0
CIRCLE
  5
19C
  8
VERSION_3$HOLDER-COVER
 10
61.52608888445695
 20
14.81714855581276
 30
0.0
 40
7.750000000000002
  0
CIRCLE
  5
19D
  8
VERSION_3$HOLDER-COVER
 10
91.95528888445696
 20
15.17274855581277
 30
0.0
 40
7.749999999999989
  0
ENDSEC
  0
EOF
