  0
SECTION
  2
HEADER
  9
$ACADVER
  1
AC1009
  9
$DWGCODEPAGE
  3
mac-roman
  9
$INSBASE
 10
0.0
 20
0.0
 30
0.0
  9
$EXTMIN
 10
-79.77109999364683
 20
-200.0818435717857
 30
0.0
  9
$EXTMAX
 10
221.6613998463812
 20
119.6134015588276
 30
0.0
  9
$LIMMIN
 10
0.0
 20
0.0
  9
$LIMMAX
 10
12.0
 20
9.0
  9
$ORTHOMODE
 70
     0
  9
$REGENMODE
 70
     1
  9
$FILLMODE
 70
     1
  9
$QTEXTMODE
 70
     0
  9
$MIRRTEXT
 70
     1
  9
$DRAGMODE
 70
     2
  9
$LTSCALE
 40
1.0
  9
$OSMODE
 70
    37
  9
$ATTMODE
 70
     1
  9
$TEXTSIZE
 40
0.2
  9
$TRACEWID
 40
0.05
  9
$TEXTSTYLE
  7
STANDARD
  9
$CLAYER
  8
VERSION_3$HOLDER-COVER
  9
$CELTYPE
  6
BYLAYER
  9
$CECOLOR
 62
   256
  9
$DIMSCALE
 40
1.0
  9
$DIMASZ
 40
0.18
  9
$DIMEXO
 40
0.0625
  9
$DIMDLI
 40
0.38
  9
$DIMRND
 40
0.0
  9
$DIMDLE
 40
0.0
  9
$DIMEXE
 40
0.18
  9
$DIMTP
 40
0.0
  9
$DIMTM
 40
0.0
  9
$DIMTXT
 40
0.18
  9
$DIMCEN
 40
0.09
  9
$DIMTSZ
 40
0.0
  9
$DIMTOL
 70
     0
  9
$DIMLIM
 70
     0
  9
$DIMTIH
 70
     1
  9
$DIMTOH
 70
     1
  9
$DIMSE1
 70
     0
  9
$DIMSE2
 70
     0
  9
$DIMTAD
 70
     0
  9
$DIMZIN
 70
     0
  9
$DIMBLK
  1

  9
$DIMASO
 70
     1
  9
$DIMSHO
 70
     1
  9
$DIMPOST
  1

  9
$DIMAPOST
  1

  9
$DIMALT
 70
     0
  9
$DIMALTD
 70
     2
  9
$DIMALTF
 40
25.4
  9
$DIMLFAC
 40
1.0
  9
$DIMTOFL
 70
     0
  9
$DIMTVP
 40
0.0
  9
$DIMTIX
 70
     0
  9
$DIMSOXD
 70
     0
  9
$DIMSAH
 70
     0
  9
$DIMBLK1
  1

  9
$DIMBLK2
  1

  9
$DIMSTYLE
  2
STANDARD
  9
$DIMCLRD
 70
     0
  9
$DIMCLRE
 70
     0
  9
$DIMCLRT
 70
     0
  9
$DIMTFAC
 40
1.0
  9
$DIMGAP
 40
0.09
  9
$LUNITS
 70
     2
  9
$LUPREC
 70
     3
  9
$SKETCHINC
 40
0.1
  9
$FILLETRAD
 40
0.5
  9
$AUNITS
 70
     0
  9
$AUPREC
 70
     0
  9
$MENU
  1
.
  9
$ELEVATION
 40
0.0
  9
$PELEVATION
 40
0.0
  9
$THICKNESS
 40
0.0
  9
$LIMCHECK
 70
     0
  9
$CHAMFERA
 40
0.0
  9
$CHAMFERB
 40
0.0
  9
$SKPOLY
 70
     0
  9
$TDCREATE
 40
2457886.969270833
  9
$TDUPDATE
 40
2457886.969282407
  9
$TDINDWG
 40
0.0000000116
  9
$TDUSRTIMER
 40
0.0000000116
  9
$USRTIMER
 70
     1
  9
$ANGBASE
 50
0.0
  9
$ANGDIR
 70
     0
  9
$PDMODE
 70
     0
  9
$PDSIZE
 40
0.0
  9
$PLINEWID
 40
0.0
  9
$COORDS
 70
     1
  9
$SPLFRAME
 70
     0
  9
$SPLINETYPE
 70
     6
  9
$SPLINESEGS
 70
     8
  9
$ATTDIA
 70
     0
  9
$ATTREQ
 70
     1
  9
$HANDLING
 70
     1
  9
$HANDSEED
  5
1BA
  9
$SURFTAB1
 70
     6
  9
$SURFTAB2
 70
     6
  9
$SURFTYPE
 70
     6
  9
$SURFU
 70
     6
  9
$SURFV
 70
     6
  9
$UCSNAME
  2

  9
$UCSORG
 10
0.0
 20
0.0
 30
0.0
  9
$UCSXDIR
 10
1.0
 20
0.0
 30
0.0
  9
$UCSYDIR
 10
0.0
 20
1.0
 30
0.0
  9
$PUCSNAME
  2

  9
$PUCSORG
 10
0.0
 20
0.0
 30
0.0
  9
$PUCSXDIR
 10
1.0
 20
0.0
 30
0.0
  9
$PUCSYDIR
 10
0.0
 20
1.0
 30
0.0
  9
$USERI1
 70
     0
  9
$USERI2
 70
     0
  9
$USERI3
 70
     0
  9
$USERI4
 70
     0
  9
$USERI5
 70
     0
  9
$USERR1
 40
0.0
  9
$USERR2
 40
0.0
  9
$USERR3
 40
0.0
  9
$USERR4
 40
0.0
  9
$USERR5
 40
0.0
  9
$WORLDVIEW
 70
     1
  9
$SHADEDGE
 70
     3
  9
$SHADEDIF
 70
    70
  9
$TILEMODE
 70
     1
  9
$MAXACTVP
 70
    64
  9
$PLIMCHECK
 70
     0
  9
$PEXTMIN
 10
1.000000000000000E+20
 20
1.000000000000000E+20
 30
1.000000000000000E+20
  9
$PEXTMAX
 10
-1.000000000000000E+20
 20
-1.000000000000000E+20
 30
-1.000000000000000E+20
  9
$PLIMMIN
 10
0.0
 20
0.0
  9
$PLIMMAX
 10
12.0
 20
9.0
  9
$UNITMODE
 70
     0
  9
$VISRETAIN
 70
     1
  9
$PLINEGEN
 70
     0
  9
$PSLTSCALE
 70
     1
  0
ENDSEC
  0
SECTION
  2
TABLES
  0
TABLE
  2
VPORT
 70
     1
  0
VPORT
  2
*ACTIVE
 70
     0
 10
0.0
 20
0.0
 11
1.0
 21
1.0
 12
70.94514992636715
 22
-40.23422100647906
 13
0.0
 23
0.0
 14
0.5
 24
0.5
 15
0.5
 25
0.5
 16
0.0
 26
0.0
 36
1.0
 17
0.0
 27
0.0
 37
0.0
 40
326.0891500332256
 41
0.9428745170009517
 42
50.0
 43
0.0
 44
0.0
 50
0.0
 51
0.0
 71
     0
 72
   100
 73
     1
 74
     3
 75
     0
 76
     0
 77
     0
 78
     0
  0
ENDTAB
  0
TABLE
  2
LTYPE
 70
     1
  0
LTYPE
  2
CONTINUOUS
 70
     0
  3
Solid line
 72
    65
 73
     0
 40
0.0
  0
ENDTAB
  0
TABLE
  2
LAYER
 70
     2
  0
LAYER
  2
0
 70
     0
 62
     7
  6
CONTINUOUS
  0
LAYER
  2
VERSION_3$HOLDER-COVER
 70
     0
 62
     3
  6
CONTINUOUS
  0
ENDTAB
  0
TABLE
  2
STYLE
 70
     1
  0
STYLE
  2
STANDARD
 70
     0
 40
0.0
 41
1.0
 50
0.0
 71
     0
 42
0.2
  3
txt
  4

  0
ENDTAB
  0
TABLE
  2
VIEW
 70
     0
  0
ENDTAB
  0
TABLE
  2
UCS
 70
     0
  0
ENDTAB
  0
TABLE
  2
APPID
 70
     1
  0
APPID
  2
ACAD
 70
     0
  0
ENDTAB
  0
TABLE
  2
DIMSTYLE
 70
     1
  0
DIMSTYLE
  2
STANDARD
 70
     0
  3

  4

  5

  6

  7

 40
1.0
 41
0.18
 42
0.0625
 43
0.38
 44
0.18
 45
0.0
 46
0.0
 47
0.0
 48
0.0
140
0.18
141
0.09
142
0.0
143
25.4
144
1.0
145
0.0
146
1.0
147
0.09
 71
     0
 72
     0
 73
     1
 74
     1
 75
     0
 76
     0
 77
     0
 78
     0
170
     0
171
     2
172
     0
173
     0
174
     0
175
     0
176
     0
177
     0
178
     0
  0
ENDTAB
  0
ENDSEC
  0
SECTION
  2
BLOCKS
  0
BLOCK
  8
0
  2
$MODEL_SPACE
 70
     0
 10
0.0
 20
0.0
 30
0.0
  3
$MODEL_SPACE
  1

  0
ENDBLK
  5
21
  8
0
  0
BLOCK
 67
     1
  8
0
  2
$PAPER_SPACE
 70
     0
 10
0.0
 20
0.0
 30
0.0
  3
$PAPER_SPACE
  1

  0
ENDBLK
  5
1D
 67
     1
  8
0
  0
ENDSEC
  0
SECTION
  2
ENTITIES
  0
POLYLINE
  5
6F
  8
VERSION_3$HOLDER-COVER
 66
     1
 10
0.0
 20
0.0
 30
0.0
 70
     1
  0
VERTEX
  5
70
  8
VERSION_3$HOLDER-COVER
 10
25.7794807654065
 20
-57.60779881517116
 30
0.0
 42
0.1173734068856223
  0
VERTEX
  5
71
  8
VERSION_3$HOLDER-COVER
 10
26.58357166898087
 20
-57.14808759690397
 30
0.0
 42
-0.3953831477577302
  0
VERTEX
  5
72
  8
VERSION_3$HOLDER-COVER
 10
33.65823497534838
 20
-57.14808759688482
 30
0.0
 42
0.3953831477600273
  0
VERTEX
  5
73
  8
VERSION_3$HOLDER-COVER
 10
36.39367477914255
 20
-57.14808759686675
 30
0.0
 42
-0.4015108146462438
  0
VERTEX
  5
74
  8
VERSION_3$HOLDER-COVER
 10
43.5473702419299
 20
-57.22374968565415
 30
0.0
 42
0.8820596800282992
  0
VERTEX
  5
75
  8
VERSION_3$HOLDER-COVER
 10
45.10097797139424
 20
-55.98926110638474
 30
0.0
 42
-0.2838420580496896
  0
VERTEX
  5
76
  8
VERSION_3$HOLDER-COVER
 10
45.13829840244301
 20
-50.55445963709621
 30
0.0
 42
0.287555723050753
  0
VERTEX
  5
77
  8
VERSION_3$HOLDER-COVER
 10
45.13829840244294
 20
-48.42970609773161
 30
0.0
 42
-1.807237091670079
  0
VERTEX
  5
78
  8
VERSION_3$HOLDER-COVER
 10
53.90330202154954
 20
-48.42970609773158
 30
0.0
 42
0.2875557230507648
  0
VERTEX
  5
79
  8
VERSION_3$HOLDER-COVER
 10
53.90330202154952
 20
-50.55445963709618
 30
0.0
 42
-0.2875557230507608
  0
VERTEX
  5
7A
  8
VERSION_3$HOLDER-COVER
 10
53.90330202154954
 20
-56.0497060977316
 30
0.0
 42
0.2875557230507613
  0
VERTEX
  5
7B
  8
VERSION_3$HOLDER-COVER
 10
53.90330202154954
 20
-58.17445963709621
 30
0.0
 42
-0.8695729472306021
  0
VERTEX
  5
7C
  8
VERSION_3$HOLDER-COVER
 10
46.06290780216653
 20
-64.76899534478596
 30
0.0
 42
0.3833792263396511
  0
VERTEX
  5
7D
  8
VERSION_3$HOLDER-COVER
 10
43.38889884218319
 20
-64.768995344786
 30
0.0
 42
-0.38936900721848
  0
VERTEX
  5
7E
  8
VERSION_3$HOLDER-COVER
 10
36.39367477913112
 20
-64.69607813793736
 30
0.0
 42
0.3953831477567582
  0
VERTEX
  5
7F
  8
VERSION_3$HOLDER-COVER
 10
33.65823497535347
 20
-64.69607813793823
 30
0.0
 42
-0.3953831477544585
  0
VERTEX
  5
80
  8
VERSION_3$HOLDER-COVER
 10
26.58357166895245
 20
-64.69607813793739
 30
0.0
 42
0.3953831477567867
  0
VERTEX
  5
81
  8
VERSION_3$HOLDER-COVER
 10
23.84813186517469
 20
-64.69607813793831
 30
0.0
 42
-0.8787673320563343
  0
VERTEX
  5
82
  8
VERSION_3$HOLDER-COVER
 10
15.928298402443
 20
-58.17445963709615
 30
0.0
 42
0.2875557230507429
  0
VERTEX
  5
83
  8
VERSION_3$HOLDER-COVER
 10
15.92829840244295
 20
-56.04970609773162
 30
0.0
 42
-0.2875557115494208
  0
VERTEX
  5
84
  8
VERSION_3$HOLDER-COVER
 10
15.92829840244303
 20
-50.55445963709612
 30
0.0
 42
0.2875557230507552
  0
VERTEX
  5
85
  8
VERSION_3$HOLDER-COVER
 10
15.92829840244305
 20
-48.42970609773151
 30
0.0
 42
-1.807237091670132
  0
VERTEX
  5
86
  8
VERSION_3$HOLDER-COVER
 10
24.69330202154952
 20
-48.42970609773159
 30
0.0
 42
0.2875557230507673
  0
VERTEX
  5
87
  8
VERSION_3$HOLDER-COVER
 10
24.69330202154953
 20
-50.55445963709627
 30
0.0
 42
-0.2910634708040284
  0
VERTEX
  5
88
  8
VERSION_3$HOLDER-COVER
 10
24.65736089881576
 20
-56.10621655222901
 30
0.0
 42
0.6949931903517812
  0
SEQEND
  5
89
  8
VERSION_3$HOLDER-COVER
  0
POLYLINE
  5
8A
  8
VERSION_3$HOLDER-COVER
 66
     1
 10
0.0
 20
0.0
 30
0.0
 70
     1
  0
VERTEX
  5
8B
  8
VERSION_3$HOLDER-COVER
 10
108.8446390132066
 20
-64.97934817985328
 30
0.0
 42
-1.548700200530257
  0
VERTEX
  5
8C
  8
VERSION_3$HOLDER-COVER
 10
108.9690469720744
 20
-42.95098758892513
 30
0.0
 42
0.2152862860938625
  0
VERTEX
  5
8D
  8
VERSION_3$HOLDER-COVER
 10
113.0839841586474
 20
-42.97422721828534
 30
0.0
 42
-0.2123334127676473
  0
VERTEX
  5
8E
  8
VERSION_3$HOLDER-COVER
 10
122.9053527727146
 20
-42.97422721827743
 30
0.0
 42
0.2152862860881908
  0
VERTEX
  5
8F
  8
VERSION_3$HOLDER-COVER
 10
127.0202899591886
 20
-42.95098758891171
 30
0.0
 42
-1.548700111426232
  0
VERTEX
  5
90
  8
VERSION_3$HOLDER-COVER
 10
127.1446979180849
 20
-64.97934817986116
 30
0.0
 42
0.2152862860881845
  0
VERTEX
  5
91
  8
VERSION_3$HOLDER-COVER
 10
123.0297607316109
 20
-65.00258780922687
 30
0.0
 42
-0.2182427518394427
  0
VERTEX
  5
92
  8
VERSION_3$HOLDER-COVER
 10
112.9595761997796
 20
-65.00258780921347
 30
0.0
 42
0.2152862860938588
  0
SEQEND
  5
93
  8
VERSION_3$HOLDER-COVER
  0
POLYLINE
  5
94
  8
VERSION_3$HOLDER-COVER
 66
     1
 10
0.0
 20
0.0
 30
0.0
 70
     1
  0
VERTEX
  5
95
  8
VERSION_3$HOLDER-COVER
 10
177.198181529984
 20
24.49256279259694
 30
0.0
 42
-0.523818531690479
  0
VERTEX
  5
96
  8
VERSION_3$HOLDER-COVER
 10
153.3909472280693
 20
37.47577089028923
 30
0.0
 42
0.3772562658576388
  0
VERTEX
  5
97
  8
VERSION_3$HOLDER-COVER
 10
150.4718839415486
 20
40.15621843082877
 30
0.0
 42
-0.3782814520582293
  0
VERTEX
  5
98
  8
VERSION_3$HOLDER-COVER
 10
134.4174071445658
 20
54.95152594023561
 30
0.0
 42
0.3785694032192637
  0
VERTEX
  5
99
  8
VERSION_3$HOLDER-COVER
 10
131.4941973939893
 20
57.64274386010585
 30
0.0
 42
-0.7181169733821368
  0
VERTEX
  5
9A
  8
VERSION_3$HOLDER-COVER
 10
122.1101133500482
 20
87.45808596180981
 30
0.0
 42
0.2637396988290514
  0
VERTEX
  5
9B
  8
VERSION_3$HOLDER-COVER
 10
123.3299311807158
 20
90.15401166877719
 30
0.0
 42
-0.2594331511329488
  0
VERTEX
  5
9C
  8
VERSION_3$HOLDER-COVER
 10
129.8226159247977
 20
104.8171231235297
 30
0.0
 42
0.4683520931222035
  0
VERTEX
  5
9D
  8
VERSION_3$HOLDER-COVER
 10
130.0460542146751
 20
109.4208878531351
 30
0.0
  0
VERTEX
  5
9E
  8
VERSION_3$HOLDER-COVER
 10
124.6955466901534
 20
114.3385748044168
 30
0.0
 42
0.1879864947025669
  0
VERTEX
  5
9F
  8
VERSION_3$HOLDER-COVER
 10
111.1615423718674
 20
119.6134015588276
 30
0.0
  0
VERTEX
  5
A0
  8
VERSION_3$HOLDER-COVER
 10
108.9812089814491
 20
119.6134015588276
 30
0.0
 42
0.640494658741352
  0
VERTEX
  5
A1
  8
VERSION_3$HOLDER-COVER
 10
107.4616986060915
 20
116.3129830803445
 30
0.0
 42
-0.6404946587340073
  0
VERTEX
  5
A2
  8
VERSION_3$HOLDER-COVER
 10
92.26028888487444
 20
83.29510155882772
 30
0.0
  0
VERTEX
  5
A3
  8
VERSION_3$HOLDER-COVER
 10
61.78028888427119
 20
83.29510155882765
 30
0.0
 42
-0.6404946587412791
  0
VERTEX
  5
A4
  8
VERSION_3$HOLDER-COVER
 10
46.57887916263369
 20
116.312983080341
 30
0.0
 42
0.640494658741242
  0
VERTEX
  5
A5
  8
VERSION_3$HOLDER-COVER
 10
45.05936878727598
 20
119.6134015588238
 30
0.0
  0
VERTEX
  5
A6
  8
VERSION_3$HOLDER-COVER
 10
14.1813382645975
 20
119.6134015588276
 30
0.0
 42
0.1076415302058178
  0
VERTEX
  5
A7
  8
VERSION_3$HOLDER-COVER
 10
5.863658221478488
 20
117.801754939502
 30
0.0
 42
0.1846276168011534
  0
VERTEX
  5
A8
  8
VERSION_3$HOLDER-COVER
 10
-79.60406777637374
 20
30.84078653624717
 30
0.0
 42
0.5044362112781184
  0
VERTEX
  5
A9
  8
VERSION_3$HOLDER-COVER
 10
-77.99787160766076
 20
28.05354128726432
 30
0.0
  0
VERTEX
  5
AA
  8
VERSION_3$HOLDER-COVER
 10
-77.5387623729847
 20
27.99601209988392
 30
0.0
  0
VERTEX
  5
AB
  8
VERSION_3$HOLDER-COVER
 10
-77.0874428631552
 20
27.92910256260376
 30
0.0
  0
VERTEX
  5
AC
  8
VERSION_3$HOLDER-COVER
 10
-76.64391307817225
 20
27.85281267542385
 30
0.0
  0
VERTEX
  5
AD
  8
VERSION_3$HOLDER-COVER
 10
-76.20817301803582
 20
27.76714243834418
 30
0.0
  0
VERTEX
  5
AE
  8
VERSION_3$HOLDER-COVER
 10
-75.78022268274594
 20
27.67209185136475
 30
0.0
  0
VERTEX
  5
AF
  8
VERSION_3$HOLDER-COVER
 10
-75.3600620723026
 20
27.56766091448556
 30
0.0
  0
VERTEX
  5
B0
  8
VERSION_3$HOLDER-COVER
 10
-74.94769118670578
 20
27.45384962770661
 30
0.0
  0
VERTEX
  5
B1
  8
VERSION_3$HOLDER-COVER
 10
-74.54311002595551
 20
27.3306579910279
 30
0.0
  0
VERTEX
  5
B2
  8
VERSION_3$HOLDER-COVER
 10
-74.14631859005178
 20
27.19808600444943
 30
0.0
  0
VERTEX
  5
B3
  8
VERSION_3$HOLDER-COVER
 10
-73.75731687899459
 20
27.05613366797121
 30
0.0
  0
VERTEX
  5
B4
  8
VERSION_3$HOLDER-COVER
 10
-73.37610489278394
 20
26.90480098159323
 30
0.0
  0
VERTEX
  5
B5
  8
VERSION_3$HOLDER-COVER
 10
-73.00268263141983
 20
26.74408794531548
 30
0.0
  0
VERTEX
  5
B6
  8
VERSION_3$HOLDER-COVER
 10
-72.63705009490226
 20
26.57399455913798
 30
0.0
  0
VERTEX
  5
B7
  8
VERSION_3$HOLDER-COVER
 10
-72.27920728323123
 20
26.39452082306072
 30
0.0
  0
VERTEX
  5
B8
  8
VERSION_3$HOLDER-COVER
 10
-71.92915419640673
 20
26.2056667370837
 30
0.0
  0
VERTEX
  5
B9
  8
VERSION_3$HOLDER-COVER
 10
-71.58689083442877
 20
26.00743230120693
 30
0.0
  0
VERTEX
  5
BA
  8
VERSION_3$HOLDER-COVER
 10
-71.25241719729735
 20
25.7998175154304
 30
0.0
  0
VERTEX
  5
BB
  8
VERSION_3$HOLDER-COVER
 10
-70.92573328501248
 20
25.5828223797541
 30
0.0
  0
VERTEX
  5
BC
  8
VERSION_3$HOLDER-COVER
 10
-70.60683909757415
 20
25.35644689417805
 30
0.0
  0
VERTEX
  5
BD
  8
VERSION_3$HOLDER-COVER
 10
-70.29573463498235
 20
25.12069105870224
 30
0.0
  0
VERTEX
  5
BE
  8
VERSION_3$HOLDER-COVER
 10
-69.99241989723708
 20
24.87555487332667
 30
0.0
  0
VERTEX
  5
BF
  8
VERSION_3$HOLDER-COVER
 10
-69.69689488433836
 20
24.62103833805134
 30
0.0
  0
VERTEX
  5
C0
  8
VERSION_3$HOLDER-COVER
 10
-69.40915959628617
 20
24.35714145287625
 30
0.0
  0
VERTEX
  5
C1
  8
VERSION_3$HOLDER-COVER
 10
-69.12921403308054
 20
24.08386421780141
 30
0.0
  0
VERTEX
  5
C2
  8
VERSION_3$HOLDER-COVER
 10
-68.85705819472145
 20
23.8012066328268
 30
0.0
  0
VERTEX
  5
C3
  8
VERSION_3$HOLDER-COVER
 10
-68.59269208120888
 20
23.50916869795244
 30
0.0
  0
VERTEX
  5
C4
  8
VERSION_3$HOLDER-COVER
 10
-68.33611569254285
 20
23.20775041317832
 30
0.0
  0
VERTEX
  5
C5
  8
VERSION_3$HOLDER-COVER
 10
-68.08732902872336
 20
22.89695177850444
 30
0.0
  0
VERTEX
  5
C6
  8
VERSION_3$HOLDER-COVER
 10
-67.8463320897504
 20
22.5767727939308
 30
0.0
  0
VERTEX
  5
C7
  8
VERSION_3$HOLDER-COVER
 10
-67.61312487562401
 20
22.2472134594574
 30
0.0
  0
VERTEX
  5
C8
  8
VERSION_3$HOLDER-COVER
 10
-67.38770738634415
 20
21.90827377508425
 30
0.0
  0
VERTEX
  5
C9
  8
VERSION_3$HOLDER-COVER
 10
-67.17007962191082
 20
21.55995374081133
 30
0.0
  0
VERTEX
  5
CA
  8
VERSION_3$HOLDER-COVER
 10
-66.96024158232402
 20
21.20225335663866
 30
0.0
  0
VERTEX
  5
CB
  8
VERSION_3$HOLDER-COVER
 10
-66.75819326758376
 20
20.83517262256623
 30
0.0
  0
VERTEX
  5
CC
  8
VERSION_3$HOLDER-COVER
 10
-66.56393467769006
 20
20.45871153859403
 30
0.0
  0
VERTEX
  5
CD
  8
VERSION_3$HOLDER-COVER
 10
-66.37746581264288
 20
20.07287010472209
 30
0.0
  0
VERTEX
  5
CE
  8
VERSION_3$HOLDER-COVER
 10
-66.19878667244225
 20
19.67764832095038
 30
0.0
  0
VERTEX
  5
CF
  8
VERSION_3$HOLDER-COVER
 10
-66.02789725708816
 20
19.27304618727891
 30
0.0
  0
VERTEX
  5
D0
  8
VERSION_3$HOLDER-COVER
 10
-65.86479756658059
 20
18.85906370370768
 30
0.0
  0
VERTEX
  5
D1
  8
VERSION_3$HOLDER-COVER
 10
-65.70948760091957
 20
18.4357008702367
 30
0.0
  0
VERTEX
  5
D2
  8
VERSION_3$HOLDER-COVER
 10
-65.56196736010509
 20
18.00295768686596
 30
0.0
  0
VERTEX
  5
D3
  8
VERSION_3$HOLDER-COVER
 10
-65.42223684413716
 20
17.56083415359546
 30
0.0
  0
VERTEX
  5
D4
  8
VERSION_3$HOLDER-COVER
 10
-65.29029605301577
 20
17.1093302704252
 30
0.0
  0
VERTEX
  5
D5
  8
VERSION_3$HOLDER-COVER
 10
-65.1661449867409
 20
16.64844603735518
 30
0.0
  0
VERTEX
  5
D6
  8
VERSION_3$HOLDER-COVER
 10
-65.04978364531257
 20
16.17818145438541
 30
0.0
  0
VERTEX
  5
D7
  8
VERSION_3$HOLDER-COVER
 10
-64.94121202873079
 20
15.69853652151587
 30
0.0
  0
VERTEX
  5
D8
  8
VERSION_3$HOLDER-COVER
 10
-64.84043013699554
 20
15.20951123874658
 30
0.0
  0
VERTEX
  5
D9
  8
VERSION_3$HOLDER-COVER
 10
-64.74743797010684
 20
14.71110560607752
 30
0.0
  0
VERTEX
  5
DA
  8
VERSION_3$HOLDER-COVER
 10
-64.66223552806468
 20
14.20331962350871
 30
0.0
  0
VERTEX
  5
DB
  8
VERSION_3$HOLDER-COVER
 10
-64.58482281086906
 20
13.68615329104014
 30
0.0
  0
VERTEX
  5
DC
  8
VERSION_3$HOLDER-COVER
 10
-64.45336655101741
 20
12.62367957640372
 30
0.0
  0
VERTEX
  5
DD
  8
VERSION_3$HOLDER-COVER
 10
-64.35306919055193
 20
11.52368446216827
 30
0.0
  0
VERTEX
  5
DE
  8
VERSION_3$HOLDER-COVER
 10
-64.28393072947262
 20
10.38616794833379
 30
0.0
  0
VERTEX
  5
DF
  8
VERSION_3$HOLDER-COVER
 10
-64.24595116777945
 20
9.211130034900268
 30
0.0
  0
VERTEX
  5
E0
  8
VERSION_3$HOLDER-COVER
 10
-64.23913050547245
 20
7.998570721867714
 30
0.0
  0
VERTEX
  5
E1
  8
VERSION_3$HOLDER-COVER
 10
-64.2634687425516
 20
6.748490009236124
 30
0.0
  0
VERTEX
  5
E2
  8
VERSION_3$HOLDER-COVER
 10
-64.31896587901689
 20
5.460887897005501
 30
0.0
 42
0.3856187950597134
  0
VERTEX
  5
E3
  8
VERSION_3$HOLDER-COVER
 10
-62.62664868449247
 20
3.375583543142785
 30
0.0
  0
VERTEX
  5
E4
  8
VERSION_3$HOLDER-COVER
 10
-5.764894971884388
 20
-5.390481753415082
 30
0.0
  0
VERTEX
  5
E5
  8
VERSION_3$HOLDER-COVER
 10
-5.631076758835211
 20
-92.80430855905314
 30
0.0
 42
0.3178372451956541
  0
VERTEX
  5
E6
  8
VERSION_3$HOLDER-COVER
 10
-2.2905308029424
 20
-97.51324538703028
 30
0.0
 42
-0.8309685658265742
  0
VERTEX
  5
E7
  8
VERSION_3$HOLDER-COVER
 10
-5.310247872746801
 20
-116.941951196951
 30
0.0
 42
0.0315353585439439
  0
VERTEX
  5
E8
  8
VERSION_3$HOLDER-COVER
 10
-5.937607247153936
 20
-117.0004468282728
 30
0.0
  0
VERTEX
  5
E9
  8
VERSION_3$HOLDER-COVER
 10
-65.48357266568486
 20
-126.3670568165669
 30
0.0
 42
0.8726926258032273
  0
VERTEX
  5
EA
  8
VERSION_3$HOLDER-COVER
 10
-65.40324785831109
 20
-130.3294415600492
 30
0.0
  0
VERTEX
  5
EB
  8
VERSION_3$HOLDER-COVER
 10
-61.71318546720516
 20
-130.8018470485545
 30
0.0
  0
VERTEX
  5
EC
  8
VERSION_3$HOLDER-COVER
 10
-58.12343833453041
 20
-131.3513320092986
 30
0.0
  0
VERTEX
  5
ED
  8
VERSION_3$HOLDER-COVER
 10
-54.63400646028682
 20
-131.9778964422817
 30
0.0
  0
VERTEX
  5
EE
  8
VERSION_3$HOLDER-COVER
 10
-51.2448898444744
 20
-132.6815403475037
 30
0.0
  0
VERTEX
  5
EF
  8
VERSION_3$HOLDER-COVER
 10
-47.95608848709315
 20
-133.4622637249646
 30
0.0
  0
VERTEX
  5
F0
  8
VERSION_3$HOLDER-COVER
 10
-44.76760238814308
 20
-134.3200665746644
 30
0.0
  0
VERTEX
  5
F1
  8
VERSION_3$HOLDER-COVER
 10
-41.67943154762417
 20
-135.2549488966031
 30
0.0
  0
VERTEX
  5
F2
  8
VERSION_3$HOLDER-COVER
 10
-38.69157596553643
 20
-136.2669106907807
 30
0.0
  0
VERTEX
  5
F3
  8
VERSION_3$HOLDER-COVER
 10
-35.80403564187986
 20
-137.3559519571971
 30
0.0
  0
VERTEX
  5
F4
  8
VERSION_3$HOLDER-COVER
 10
-34.39788370196327
 20
-137.929377392495
 30
0.0
  0
VERTEX
  5
F5
  8
VERSION_3$HOLDER-COVER
 10
-33.01681057665446
 20
-138.5220726958525
 30
0.0
  0
VERTEX
  5
F6
  8
VERSION_3$HOLDER-COVER
 10
-31.66081626595346
 20
-139.1340378672698
 30
0.0
  0
VERTEX
  5
F7
  8
VERSION_3$HOLDER-COVER
 10
-30.32990076986024
 20
-139.7652729067468
 30
0.0
  0
VERTEX
  5
F8
  8
VERSION_3$HOLDER-COVER
 10
-29.02406408837481
 20
-140.4157778142836
 30
0.0
  0
VERTEX
  5
F9
  8
VERSION_3$HOLDER-COVER
 10
-27.74330622149718
 20
-141.08555258988
 30
0.0
  0
VERTEX
  5
FA
  8
VERSION_3$HOLDER-COVER
 10
-26.48762716922734
 20
-141.7745972335362
 30
0.0
  0
VERTEX
  5
FB
  8
VERSION_3$HOLDER-COVER
 10
-25.2570269315653
 20
-142.4829117452521
 30
0.0
  0
VERTEX
  5
FC
  8
VERSION_3$HOLDER-COVER
 10
-24.05150550851104
 20
-143.2104961250278
 30
0.0
  0
VERTEX
  5
FD
  8
VERSION_3$HOLDER-COVER
 10
-22.87106290006458
 20
-143.9573503728631
 30
0.0
  0
VERTEX
  5
FE
  8
VERSION_3$HOLDER-COVER
 10
-21.71569910622591
 20
-144.7234744887582
 30
0.0
  0
VERTEX
  5
FF
  8
VERSION_3$HOLDER-COVER
 10
-20.58541412699503
 20
-145.508868472713
 30
0.0
  0
VERTEX
  5
100
  8
VERSION_3$HOLDER-COVER
 10
-19.48020796237195
 20
-146.3135323247276
 30
0.0
  0
VERTEX
  5
101
  8
VERSION_3$HOLDER-COVER
 10
-18.40008061235666
 20
-147.1374660448018
 30
0.0
  0
VERTEX
  5
102
  8
VERSION_3$HOLDER-COVER
 10
-17.34503207694916
 20
-147.9806696329358
 30
0.0
  0
VERTEX
  5
103
  8
VERSION_3$HOLDER-COVER
 10
-16.31506235614945
 20
-148.8431430891295
 30
0.0
  0
VERTEX
  5
104
  8
VERSION_3$HOLDER-COVER
 10
-15.31017144995754
 20
-149.724886413383
 30
0.0
  0
VERTEX
  5
105
  8
VERSION_3$HOLDER-COVER
 10
-14.33035935837342
 20
-150.6258996056961
 30
0.0
  0
VERTEX
  5
106
  8
VERSION_3$HOLDER-COVER
 10
-13.37562608139709
 20
-151.546182666069
 30
0.0
  0
VERTEX
  5
107
  8
VERSION_3$HOLDER-COVER
 10
-12.44597161902856
 20
-152.4857355945016
 30
0.0
  0
VERTEX
  5
108
  8
VERSION_3$HOLDER-COVER
 10
-11.54139597126781
 20
-153.444558390994
 30
0.0
  0
VERTEX
  5
109
  8
VERSION_3$HOLDER-COVER
 10
-10.66189913811486
 20
-154.4226510555461
 30
0.0
  0
VERTEX
  5
10A
  8
VERSION_3$HOLDER-COVER
 10
-9.807481119569704
 20
-155.4200135881578
 30
0.0
  0
VERTEX
  5
10B
  8
VERSION_3$HOLDER-COVER
 10
-8.978141915632337
 20
-156.4366459888294
 30
0.0
  0
VERTEX
  5
10C
  8
VERSION_3$HOLDER-COVER
 10
-8.173881526302763
 20
-157.4725482575606
 30
0.0
  0
VERTEX
  5
10D
  8
VERSION_3$HOLDER-COVER
 10
-7.394699951580983
 20
-158.5277203943516
 30
0.0
  0
VERTEX
  5
10E
  8
VERSION_3$HOLDER-COVER
 10
-6.640597191466995
 20
-159.6021623992023
 30
0.0
  0
VERTEX
  5
10F
  8
VERSION_3$HOLDER-COVER
 10
-5.911573245960799
 20
-160.6958742721127
 30
0.0
  0
VERTEX
  5
110
  8
VERSION_3$HOLDER-COVER
 10
-5.207628115062397
 20
-161.8088560130828
 30
0.0
  0
VERTEX
  5
111
  8
VERSION_3$HOLDER-COVER
 10
-4.528761798771786
 20
-162.9411076221127
 30
0.0
  0
VERTEX
  5
112
  8
VERSION_3$HOLDER-COVER
 10
-3.874974297088968
 20
-164.0926290992023
 30
0.0
  0
VERTEX
  5
113
  8
VERSION_3$HOLDER-COVER
 10
-3.246265610013943
 20
-165.2634204443516
 30
0.0
  0
VERTEX
  5
114
  8
VERSION_3$HOLDER-COVER
 10
-2.642635737546709
 20
-166.4534816575606
 30
0.0
  0
VERTEX
  5
115
  8
VERSION_3$HOLDER-COVER
 10
-2.064084679687269
 20
-167.6628127388294
 30
0.0
  0
VERTEX
  5
116
  8
VERSION_3$HOLDER-COVER
 10
-1.510612436435621
 20
-168.8914136881579
 30
0.0
  0
VERTEX
  5
117
  8
VERSION_3$HOLDER-COVER
 10
-0.9822190077917657
 20
-170.1392845055461
 30
0.0
  0
VERTEX
  5
118
  8
VERSION_3$HOLDER-COVER
 10
-0.478904393755703
 20
-171.4064251909941
 30
0.0
  0
VERTEX
  5
119
  8
VERSION_3$HOLDER-COVER
 10
-0.0006685943274327
 20
-172.6928357445018
 30
0.0
  0
VERTEX
  5
11A
  8
VERSION_3$HOLDER-COVER
 10
0.452488390493045
 20
-173.9985161660692
 30
0.0
  0
VERTEX
  5
11B
  8
VERSION_3$HOLDER-COVER
 10
0.8805665607057301
 20
-175.3234664556963
 30
0.0
  0
VERTEX
  5
11C
  8
VERSION_3$HOLDER-COVER
 10
1.283565916310623
 20
-176.6676866133831
 30
0.0
  0
VERTEX
  5
11D
  8
VERSION_3$HOLDER-COVER
 10
1.661486457307723
 20
-178.0311766391297
 30
0.0
  0
VERTEX
  5
11E
  8
VERSION_3$HOLDER-COVER
 10
2.01432818369703
 20
-179.413936532936
 30
0.0
  0
VERTEX
  5
11F
  8
VERSION_3$HOLDER-COVER
 10
2.342091095478545
 20
-180.815966294802
 30
0.0
  0
VERTEX
  5
120
  8
VERSION_3$HOLDER-COVER
 10
2.644775192652268
 20
-182.2372659247278
 30
0.0
  0
VERTEX
  5
121
  8
VERSION_3$HOLDER-COVER
 10
2.922380475218194
 20
-183.6778354227133
 30
0.0
 42
0.3622018054859273
  0
VERTEX
  5
122
  8
VERSION_3$HOLDER-COVER
 10
22.59644570353591
 20
-200.0818435717857
 30
0.0
  0
VERTEX
  5
123
  8
VERSION_3$HOLDER-COVER
 10
131.1391320653777
 20
-200.0818435717843
 30
0.0
 42
0.3622018054858939
  0
VERTEX
  5
124
  8
VERSION_3$HOLDER-COVER
 10
150.8131972936942
 20
-183.677835422713
 30
0.0
  0
VERTEX
  5
125
  8
VERSION_3$HOLDER-COVER
 10
151.0926015061027
 20
-182.2283967150325
 30
0.0
  0
VERTEX
  5
126
  8
VERSION_3$HOLDER-COVER
 10
151.3973963963526
 20
-180.7984675024686
 30
0.0
  0
VERTEX
  5
127
  8
VERSION_3$HOLDER-COVER
 10
151.7275819644441
 20
-179.3880477850215
 30
0.0
  0
VERTEX
  5
128
  8
VERSION_3$HOLDER-COVER
 10
152.0831582103772
 20
-177.997137562691
 30
0.0
  0
VERTEX
  5
129
  8
VERSION_3$HOLDER-COVER
 10
152.4641251341517
 20
-176.6257368354772
 30
0.0
  0
VERTEX
  5
12A
  8
VERSION_3$HOLDER-COVER
 10
152.8704827357679
 20
-175.2738456033802
 30
0.0
  0
VERTEX
  5
12B
  8
VERSION_3$HOLDER-COVER
 10
153.3022310152256
 20
-173.9414638663998
 30
0.0
  0
VERTEX
  5
12C
  8
VERSION_3$HOLDER-COVER
 10
153.7593699725248
 20
-172.6285916245361
 30
0.0
  0
VERTEX
  5
12D
  8
VERSION_3$HOLDER-COVER
 10
154.2418996076656
 20
-171.3352288777892
 30
0.0
  0
VERTEX
  5
12E
  8
VERSION_3$HOLDER-COVER
 10
154.749819920648
 20
-170.0613756261589
 30
0.0
  0
VERTEX
  5
12F
  8
VERSION_3$HOLDER-COVER
 10
155.2831309114719
 20
-168.8070318696454
 30
0.0
  0
VERTEX
  5
130
  8
VERSION_3$HOLDER-COVER
 10
155.8418325801373
 20
-167.5721976082485
 30
0.0
  0
VERTEX
  5
131
  8
VERSION_3$HOLDER-COVER
 10
156.4259249266443
 20
-166.3568728419684
 30
0.0
  0
VERTEX
  5
132
  8
VERSION_3$HOLDER-COVER
 10
157.0354079509928
 20
-165.1610575708049
 30
0.0
  0
VERTEX
  5
133
  8
VERSION_3$HOLDER-COVER
 10
157.6702816531829
 20
-163.9847517947582
 30
0.0
  0
VERTEX
  5
134
  8
VERSION_3$HOLDER-COVER
 10
158.3305460332145
 20
-162.8279555138282
 30
0.0
  0
VERTEX
  5
135
  8
VERSION_3$HOLDER-COVER
 10
159.0162010910877
 20
-161.6906687280148
 30
0.0
  0
VERTEX
  5
136
  8
VERSION_3$HOLDER-COVER
 10
159.7272468268024
 20
-160.5728914373182
 30
0.0
  0
VERTEX
  5
137
  8
VERSION_3$HOLDER-COVER
 10
160.4636832403586
 20
-159.4746236417382
 30
0.0
  0
VERTEX
  5
138
  8
VERSION_3$HOLDER-COVER
 10
161.2255103317565
 20
-158.395865341275
 30
0.0
  0
VERTEX
  5
139
  8
VERSION_3$HOLDER-COVER
 10
162.0127281009958
 20
-157.3366165359285
 30
0.0
  0
VERTEX
  5
13A
  8
VERSION_3$HOLDER-COVER
 10
162.8253365480768
 20
-156.2968772256987
 30
0.0
  0
VERTEX
  5
13B
  8
VERSION_3$HOLDER-COVER
 10
163.6633356729992
 20
-155.2766474105856
 30
0.0
  0
VERTEX
  5
13C
  8
VERSION_3$HOLDER-COVER
 10
164.5267254757632
 20
-154.2759270905891
 30
0.0
  0
VERTEX
  5
13D
  8
VERSION_3$HOLDER-COVER
 10
165.4155059563687
 20
-153.2947162657094
 30
0.0
  0
VERTEX
  5
13E
  8
VERSION_3$HOLDER-COVER
 10
166.3296771148159
 20
-152.3330149359464
 30
0.0
  0
VERTEX
  5
13F
  8
VERSION_3$HOLDER-COVER
 10
167.2692389511045
 20
-151.3908231013
 30
0.0
  0
VERTEX
  5
140
  8
VERSION_3$HOLDER-COVER
 10
168.2341914652347
 20
-150.4681407617704
 30
0.0
  0
VERTEX
  5
141
  8
VERSION_3$HOLDER-COVER
 10
169.2245346572064
 20
-149.5649679173575
 30
0.0
  0
VERTEX
  5
142
  8
VERSION_3$HOLDER-COVER
 10
170.2402685270197
 20
-148.6813045680613
 30
0.0
  0
VERTEX
  5
143
  8
VERSION_3$HOLDER-COVER
 10
171.2813930746746
 20
-147.8171507138818
 30
0.0
  0
VERTEX
  5
144
  8
VERSION_3$HOLDER-COVER
 10
172.347908300171
 20
-146.972506354819
 30
0.0
  0
VERTEX
  5
145
  8
VERSION_3$HOLDER-COVER
 10
173.4398142035089
 20
-146.1473714908729
 30
0.0
  0
VERTEX
  5
146
  8
VERSION_3$HOLDER-COVER
 10
174.5571107846884
 20
-145.3417461220435
 30
0.0
  0
VERTEX
  5
147
  8
VERSION_3$HOLDER-COVER
 10
175.6997980437094
 20
-144.5556302483308
 30
0.0
  0
VERTEX
  5
148
  8
VERSION_3$HOLDER-COVER
 10
176.867875980572
 20
-143.7890238697348
 30
0.0
  0
VERTEX
  5
149
  8
VERSION_3$HOLDER-COVER
 10
178.0613445952761
 20
-143.0419269862555
 30
0.0
  0
VERTEX
  5
14A
  8
VERSION_3$HOLDER-COVER
 10
179.2802038878218
 20
-142.3143395978929
 30
0.0
  0
VERTEX
  5
14B
  8
VERSION_3$HOLDER-COVER
 10
180.524453858209
 20
-141.6062617046471
 30
0.0
  0
VERTEX
  5
14C
  8
VERSION_3$HOLDER-COVER
 10
181.7940945064378
 20
-140.9176933065179
 30
0.0
  0
VERTEX
  5
14D
  8
VERSION_3$HOLDER-COVER
 10
183.0891258325081
 20
-140.2486344035054
 30
0.0
  0
VERTEX
  5
14E
  8
VERSION_3$HOLDER-COVER
 10
184.40954783642
 20
-139.5990849956096
 30
0.0
  0
VERTEX
  5
14F
  8
VERSION_3$HOLDER-COVER
 10
185.7553605181733
 20
-138.9690450828305
 30
0.0
  0
VERTEX
  5
150
  8
VERSION_3$HOLDER-COVER
 10
187.1265638777683
 20
-138.3585146651681
 30
0.0
  0
VERTEX
  5
151
  8
VERSION_3$HOLDER-COVER
 10
188.5231579152048
 20
-137.7674937426225
 30
0.0
  0
VERTEX
  5
152
  8
VERSION_3$HOLDER-COVER
 10
189.9451426304829
 20
-137.1959823151935
 30
0.0
  0
VERTEX
  5
153
  8
VERSION_3$HOLDER-COVER
 10
192.8652840945636
 20
-136.1114879456857
 30
0.0
  0
VERTEX
  5
154
  8
VERSION_3$HOLDER-COVER
 10
195.8869882700105
 20
-135.1050315566446
 30
0.0
  0
VERTEX
  5
155
  8
VERSION_3$HOLDER-COVER
 10
199.0102551568237
 20
-134.1766131480704
 30
0.0
  0
VERTEX
  5
156
  8
VERSION_3$HOLDER-COVER
 10
202.235084755003
 20
-133.3262327199629
 30
0.0
  0
VERTEX
  5
157
  8
VERSION_3$HOLDER-COVER
 10
205.5614770645485
 20
-132.5538902723223
 30
0.0
  0
VERTEX
  5
158
  8
VERSION_3$HOLDER-COVER
 10
208.9894320854602
 20
-131.8595858051486
 30
0.0
  0
VERTEX
  5
159
  8
VERSION_3$HOLDER-COVER
 10
212.5189498177381
 20
-131.2433193184416
 30
0.0
  0
VERTEX
  5
15A
  8
VERSION_3$HOLDER-COVER
 10
216.1500302613822
 20
-130.7050908122014
 30
0.0
  0
VERTEX
  5
15B
  8
VERSION_3$HOLDER-COVER
 10
219.8826734163925
 20
-130.244900286428
 30
0.0
 42
0.8754051721259868
  0
VERTEX
  5
15C
  8
VERSION_3$HOLDER-COVER
 10
219.9691545683442
 20
-126.2809985645027
 30
0.0
  0
VERTEX
  5
15D
  8
VERSION_3$HOLDER-COVER
 10
159.5626735457647
 20
-116.8737681341283
 30
0.0
 42
0.0315353585432449
  0
VERTEX
  5
15E
  8
VERSION_3$HOLDER-COVER
 10
158.9352253580488
 20
-116.8162329687529
 30
0.0
 42
-0.830968565826481
  0
VERTEX
  5
15F
  8
VERSION_3$HOLDER-COVER
 10
155.8857692591009
 20
-97.39217267923821
 30
0.0
 42
0.3178372451956752
  0
VERTEX
  5
160
  8
VERSION_3$HOLDER-COVER
 10
159.2191025924342
 20
-92.67812747132994
 30
0.0
  0
VERTEX
  5
161
  8
VERSION_3$HOLDER-COVER
 10
159.2191025924342
 20
-5.264198237365317
 30
0.0
  0
VERTEX
  5
162
  8
VERSION_3$HOLDER-COVER
 10
206.7671326367287
 20
2.140558132566055
 30
0.0
 42
0.3967799613034115
  0
VERTEX
  5
163
  8
VERSION_3$HOLDER-COVER
 10
208.4504345826986
 20
4.305664865802319
 30
0.0
  0
VERTEX
  5
164
  8
VERSION_3$HOLDER-COVER
 10
208.3527020470238
 20
5.442340626790353
 30
0.0
  0
VERTEX
  5
165
  8
VERSION_3$HOLDER-COVER
 10
208.2781164730104
 20
6.548465608800105
 30
0.0
  0
VERTEX
  5
166
  8
VERSION_3$HOLDER-COVER
 10
208.2266778606582
 20
7.624039811831576
 30
0.0
  0
VERTEX
  5
167
  8
VERSION_3$HOLDER-COVER
 10
208.1983862099674
 20
8.669063235884767
 30
0.0
  0
VERTEX
  5
168
  8
VERSION_3$HOLDER-COVER
 10
208.1932415209379
 20
9.683535880959678
 30
0.0
  0
VERTEX
  5
169
  8
VERSION_3$HOLDER-COVER
 10
208.2112437935696
 20
10.66745774705631
 30
0.0
  0
VERTEX
  5
16A
  8
VERSION_3$HOLDER-COVER
 10
208.2523930278627
 20
11.62082883417466
 30
0.0
  0
VERTEX
  5
16B
  8
VERSION_3$HOLDER-COVER
 10
208.3166892238171
 20
12.54364914231472
 30
0.0
  0
VERTEX
  5
16C
  8
VERSION_3$HOLDER-COVER
 10
208.4041323814327
 20
13.43591867147651
 30
0.0
  0
VERTEX
  5
16D
  8
VERSION_3$HOLDER-COVER
 10
208.5147225007097
 20
14.29763742166001
 30
0.0
  0
VERTEX
  5
16E
  8
VERSION_3$HOLDER-COVER
 10
208.648459581648
 20
15.12880539286524
 30
0.0
  0
VERTEX
  5
16F
  8
VERSION_3$HOLDER-COVER
 10
208.7240082327401
 20
15.532932836351
 30
0.0
  0
VERTEX
  5
170
  8
VERSION_3$HOLDER-COVER
 10
208.8053436242476
 20
15.92942258509218
 30
0.0
  0
VERTEX
  5
171
  8
VERSION_3$HOLDER-COVER
 10
208.8924657561704
 20
16.3182746390888
 30
0.0
  0
VERTEX
  5
172
  8
VERSION_3$HOLDER-COVER
 10
208.9853746285085
 20
16.69948899834084
 30
0.0
  0
VERTEX
  5
173
  8
VERSION_3$HOLDER-COVER
 10
209.0840702412619
 20
17.07306566284831
 30
0.0
  0
VERTEX
  5
174
  8
VERSION_3$HOLDER-COVER
 10
209.1885525944307
 20
17.43900463261122
 30
0.0
  0
VERTEX
  5
175
  8
VERSION_3$HOLDER-COVER
 10
209.2988216880148
 20
17.79730590762956
 30
0.0
  0
VERTEX
  5
176
  8
VERSION_3$HOLDER-COVER
 10
209.4148775220142
 20
18.14796948790332
 30
0.0
  0
VERTEX
  5
177
  8
VERSION_3$HOLDER-COVER
 10
209.5367200964289
 20
18.49099537343252
 30
0.0
  0
VERTEX
  5
178
  8
VERSION_3$HOLDER-COVER
 10
209.664349411259
 20
18.82638356421715
 30
0.0
  0
VERTEX
  5
179
  8
VERSION_3$HOLDER-COVER
 10
209.7977654665044
 20
19.1541340602572
 30
0.0
  0
VERTEX
  5
17A
  8
VERSION_3$HOLDER-COVER
 10
209.9369682621651
 20
19.47424686155269
 30
0.0
  0
VERTEX
  5
17B
  8
VERSION_3$HOLDER-COVER
 10
210.0819577982411
 20
19.7867219681036
 30
0.0
  0
VERTEX
  5
17C
  8
VERSION_3$HOLDER-COVER
 10
210.2327340747325
 20
20.09155937990995
 30
0.0
  0
VERTEX
  5
17D
  8
VERSION_3$HOLDER-COVER
 10
210.3892970916392
 20
20.38875909697172
 30
0.0
  0
VERTEX
  5
17E
  8
VERSION_3$HOLDER-COVER
 10
210.5516468489612
 20
20.67832111928892
 30
0.0
  0
VERTEX
  5
17F
  8
VERSION_3$HOLDER-COVER
 10
210.7197833466986
 20
20.96024544686156
 30
0.0
  0
VERTEX
  5
180
  8
VERSION_3$HOLDER-COVER
 10
210.8937065848513
 20
21.23453207968962
 30
0.0
  0
VERTEX
  5
181
  8
VERSION_3$HOLDER-COVER
 10
211.0734165634192
 20
21.50118101777311
 30
0.0
  0
VERTEX
  5
182
  8
VERSION_3$HOLDER-COVER
 10
211.2589132824025
 20
21.76019226111203
 30
0.0
  0
VERTEX
  5
183
  8
VERSION_3$HOLDER-COVER
 10
211.4501967418012
 20
22.01156580970638
 30
0.0
  0
VERTEX
  5
184
  8
VERSION_3$HOLDER-COVER
 10
211.6472669416152
 20
22.25530166355617
 30
0.0
  0
VERTEX
  5
185
  8
VERSION_3$HOLDER-COVER
 10
211.8501238818445
 20
22.49139982266138
 30
0.0
  0
VERTEX
  5
186
  8
VERSION_3$HOLDER-COVER
 10
212.0587675624891
 20
22.71986028702202
 30
0.0
  0
VERTEX
  5
187
  8
VERSION_3$HOLDER-COVER
 10
212.2731979835491
 20
22.94068305663809
 30
0.0
  0
VERTEX
  5
188
  8
VERSION_3$HOLDER-COVER
 10
212.4934151450244
 20
23.1538681315096
 30
0.0
  0
VERTEX
  5
189
  8
VERSION_3$HOLDER-COVER
 10
212.719419046915
 20
23.35941551163653
 30
0.0
  0
VERTEX
  5
18A
  8
VERSION_3$HOLDER-COVER
 10
212.9512096892209
 20
23.55732519701889
 30
0.0
  0
VERTEX
  5
18B
  8
VERSION_3$HOLDER-COVER
 10
213.1887870719421
 20
23.74759718765668
 30
0.0
  0
VERTEX
  5
18C
  8
VERSION_3$HOLDER-COVER
 10
213.4321511950787
 20
23.9302314835499
 30
0.0
  0
VERTEX
  5
18D
  8
VERSION_3$HOLDER-COVER
 10
213.6813020586306
 20
24.10522808469855
 30
0.0
  0
VERTEX
  5
18E
  8
VERSION_3$HOLDER-COVER
 10
213.9362396625978
 20
24.27258699110263
 30
0.0
  0
VERTEX
  5
18F
  8
VERSION_3$HOLDER-COVER
 10
214.1969640069804
 20
24.43230820276214
 30
0.0
  0
VERTEX
  5
190
  8
VERSION_3$HOLDER-COVER
 10
214.4634750917783
 20
24.58439171967708
 30
0.0
  0
VERTEX
  5
191
  8
VERSION_3$HOLDER-COVER
 10
214.7357729169915
 20
24.72883754184745
 30
0.0
  0
VERTEX
  5
192
  8
VERSION_3$HOLDER-COVER
 10
215.01385748262
 20
24.86564566927325
 30
0.0
  0
VERTEX
  5
193
  8
VERSION_3$HOLDER-COVER
 10
215.2977287886639
 20
24.99481610195448
 30
0.0
  0
VERTEX
  5
194
  8
VERSION_3$HOLDER-COVER
 10
215.5873868351231
 20
25.11634883989114
 30
0.0
  0
VERTEX
  5
195
  8
VERSION_3$HOLDER-COVER
 10
215.8828316219976
 20
25.23024388308323
 30
0.0
  0
VERTEX
  5
196
  8
VERSION_3$HOLDER-COVER
 10
216.1840631492875
 20
25.33650123153075
 30
0.0
  0
VERTEX
  5
197
  8
VERSION_3$HOLDER-COVER
 10
216.4910814169926
 20
25.43512088523369
 30
0.0
  0
VERTEX
  5
198
  8
VERSION_3$HOLDER-COVER
 10
216.8038864251131
 20
25.52610284419205
 30
0.0
 42
0.5889219178761176
  0
VERTEX
  5
199
  8
VERSION_3$HOLDER-COVER
 10
217.6250094783649
 20
28.92648966884947
 30
0.0
  0
VERTEX
  5
19A
  8
VERSION_3$HOLDER-COVER
 10
205.2017810249457
 20
40.34476121501834
 30
0.0
 42
0.6091970046404044
  0
VERTEX
  5
19B
  8
VERSION_3$HOLDER-COVER
 10
200.1952558252047
 20
38.51134751873583
 30
0.0
 42
-0.4586088431237709
  0
VERTEX
  5
19C
  8
VERSION_3$HOLDER-COVER
 10
179.3590560595472
 20
24.69973471692876
 30
0.0
 42
0.1872407249821368
  0
SEQEND
  5
19D
  8
VERSION_3$HOLDER-COVER
  0
CIRCLE
  5
19E
  8
VERSION_3$HOLDER-COVER
 10
91.95528888445696
 20
15.17274855581277
 30
0.0
 40
11.0
  0
CIRCLE
  5
19F
  8
VERSION_3$HOLDER-COVER
 10
61.52608888445695
 20
14.81714855581276
 30
0.0
 40
11.0
  0
CIRCLE
  5
1A0
  8
VERSION_3$HOLDER-COVER
 10
76.71528888445697
 20
42.14424999580449
 30
0.0
 40
11.0
  0
CIRCLE
  5
1A1
  8
VERSION_3$HOLDER-COVER
 10
130.0983980624468
 20
-96.8957253086038
 30
0.0
 40
1.0
  0
CIRCLE
  5
1A2
  8
VERSION_3$HOLDER-COVER
 10
23.63717970646714
 20
-135.8383017677005
 30
0.0
 40
1.0
  0
CIRCLE
  5
1A3
  8
VERSION_3$HOLDER-COVER
 10
23.63717970646714
 20
15.98130790616921
 30
0.0
 40
1.0
  0
POLYLINE
  5
1A4
  8
VERSION_3$HOLDER-COVER
 66
     1
 10
0.0
 20
0.0
 30
0.0
 70
     1
  0
VERTEX
  5
1A5
  8
VERSION_3$HOLDER-COVER
 10
24.88121861858705
 20
67.3192503900046
 30
0.0
 42
1.822751374434042
  0
VERTEX
  5
1A6
  8
VERSION_3$HOLDER-COVER
 10
4.834074789268143
 20
79.9812539930962
 30
0.0
 42
-0.4120536009093753
  0
VERTEX
  5
1A7
  8
VERSION_3$HOLDER-COVER
 10
-0.1095430537291286
 20
74.96212696683502
 30
0.0
 42
0.3796431143527489
  0
VERTEX
  5
1A8
  8
VERSION_3$HOLDER-COVER
 10
-16.37046231948875
 20
60.20545909046844
 30
0.0
 42
-0.3521689601195178
  0
VERTEX
  5
1A9
  8
VERSION_3$HOLDER-COVER
 10
-20.80135145674862
 20
55.77456995320907
 30
0.0
 42
0.3531194118177566
  0
VERTEX
  5
1AA
  8
VERSION_3$HOLDER-COVER
 10
-35.46829174946622
 20
41.05795095140954
 30
0.0
 42
-0.3643623708682158
  0
VERTEX
  5
1AB
  8
VERSION_3$HOLDER-COVER
 10
-40.09940845199671
 20
36.59269061539166
 30
0.0
  0
VERTEX
  5
1AC
  8
VERSION_3$HOLDER-COVER
 10
-41.33209969069415
 20
36.4490503404725
 30
0.0
 42
1.519889077663159
  0
VERTEX
  5
1AD
  8
VERSION_3$HOLDER-COVER
 10
-28.41121337285094
 20
16.31644942330689
 30
0.0
 42
-0.223873414758208
  0
VERTEX
  5
1AE
  8
VERSION_3$HOLDER-COVER
 10
-17.42042280453932
 20
22.86016509388143
 30
0.0
 42
0.2905648508788872
  0
VERTEX
  5
1AF
  8
VERSION_3$HOLDER-COVER
 10
-3.435443216477037
 20
33.7608813736222
 30
0.0
 42
-0.2248001078918637
  0
VERTEX
  5
1B0
  8
VERSION_3$HOLDER-COVER
 10
5.64322626009643
 20
42.83955085019473
 30
0.0
 42
0.2765062529650373
  0
VERTEX
  5
1B1
  8
VERSION_3$HOLDER-COVER
 10
16.43868316681302
 20
55.96997882148526
 30
0.0
 42
-0.2505501357211508
  0
SEQEND
  5
1B2
  8
VERSION_3$HOLDER-COVER
  0
ENDSEC
  0
EOF
