  0
SECTION
  2
HEADER
  9
$ACADVER
  1
AC1009
  9
$DWGCODEPAGE
  3
mac-roman
  9
$INSBASE
 10
0.0
 20
0.0
 30
0.0
  9
$EXTMIN
 10
-88.04531963865213
 20
-200.0818435717843
 30
0.0
  9
$EXTMAX
 10
241.7808974075673
 20
119.6134015588276
 30
0.0
  9
$LIMMIN
 10
0.0
 20
0.0
  9
$LIMMAX
 10
12.0
 20
9.0
  9
$ORTHOMODE
 70
     0
  9
$REGENMODE
 70
     1
  9
$FILLMODE
 70
     1
  9
$QTEXTMODE
 70
     0
  9
$MIRRTEXT
 70
     1
  9
$DRAGMODE
 70
     2
  9
$LTSCALE
 40
1.0
  9
$OSMODE
 70
    37
  9
$ATTMODE
 70
     1
  9
$TEXTSIZE
 40
0.2
  9
$TRACEWID
 40
0.05
  9
$TEXTSTYLE
  7
STANDARD
  9
$CLAYER
  8
0
  9
$CELTYPE
  6
BYLAYER
  9
$CECOLOR
 62
   256
  9
$DIMSCALE
 40
1.0
  9
$DIMASZ
 40
0.18
  9
$DIMEXO
 40
0.0625
  9
$DIMDLI
 40
0.38
  9
$DIMRND
 40
0.0
  9
$DIMDLE
 40
0.0
  9
$DIMEXE
 40
0.18
  9
$DIMTP
 40
0.0
  9
$DIMTM
 40
0.0
  9
$DIMTXT
 40
0.18
  9
$DIMCEN
 40
0.09
  9
$DIMTSZ
 40
0.0
  9
$DIMTOL
 70
     0
  9
$DIMLIM
 70
     0
  9
$DIMTIH
 70
     1
  9
$DIMTOH
 70
     1
  9
$DIMSE1
 70
     0
  9
$DIMSE2
 70
     0
  9
$DIMTAD
 70
     0
  9
$DIMZIN
 70
     0
  9
$DIMBLK
  1

  9
$DIMASO
 70
     1
  9
$DIMSHO
 70
     1
  9
$DIMPOST
  1

  9
$DIMAPOST
  1

  9
$DIMALT
 70
     0
  9
$DIMALTD
 70
     2
  9
$DIMALTF
 40
25.4
  9
$DIMLFAC
 40
1.0
  9
$DIMTOFL
 70
     0
  9
$DIMTVP
 40
0.0
  9
$DIMTIX
 70
     0
  9
$DIMSOXD
 70
     0
  9
$DIMSAH
 70
     0
  9
$DIMBLK1
  1

  9
$DIMBLK2
  1

  9
$DIMSTYLE
  2
STANDARD
  9
$DIMCLRD
 70
     0
  9
$DIMCLRE
 70
     0
  9
$DIMCLRT
 70
     0
  9
$DIMTFAC
 40
1.0
  9
$DIMGAP
 40
0.09
  9
$LUNITS
 70
     2
  9
$LUPREC
 70
     3
  9
$SKETCHINC
 40
0.1
  9
$FILLETRAD
 40
0.5
  9
$AUNITS
 70
     0
  9
$AUPREC
 70
     0
  9
$MENU
  1
.
  9
$ELEVATION
 40
0.0
  9
$PELEVATION
 40
0.0
  9
$THICKNESS
 40
0.0
  9
$LIMCHECK
 70
     0
  9
$CHAMFERA
 40
0.0
  9
$CHAMFERB
 40
0.0
  9
$SKPOLY
 70
     0
  9
$TDCREATE
 40
2457886.921643518
  9
$TDUPDATE
 40
2457886.921666667
  9
$TDINDWG
 40
0.0000000116
  9
$TDUSRTIMER
 40
0.0000000116
  9
$USRTIMER
 70
     1
  9
$ANGBASE
 50
0.0
  9
$ANGDIR
 70
     0
  9
$PDMODE
 70
     0
  9
$PDSIZE
 40
0.0
  9
$PLINEWID
 40
0.0
  9
$COORDS
 70
     1
  9
$SPLFRAME
 70
     0
  9
$SPLINETYPE
 70
     6
  9
$SPLINESEGS
 70
     8
  9
$ATTDIA
 70
     0
  9
$ATTREQ
 70
     1
  9
$HANDLING
 70
     1
  9
$HANDSEED
  5
662
  9
$SURFTAB1
 70
     6
  9
$SURFTAB2
 70
     6
  9
$SURFTYPE
 70
     6
  9
$SURFU
 70
     6
  9
$SURFV
 70
     6
  9
$UCSNAME
  2

  9
$UCSORG
 10
0.0
 20
0.0
 30
0.0
  9
$UCSXDIR
 10
1.0
 20
0.0
 30
0.0
  9
$UCSYDIR
 10
0.0
 20
1.0
 30
0.0
  9
$PUCSNAME
  2

  9
$PUCSORG
 10
0.0
 20
0.0
 30
0.0
  9
$PUCSXDIR
 10
1.0
 20
0.0
 30
0.0
  9
$PUCSYDIR
 10
0.0
 20
1.0
 30
0.0
  9
$USERI1
 70
     0
  9
$USERI2
 70
     0
  9
$USERI3
 70
     0
  9
$USERI4
 70
     0
  9
$USERI5
 70
     0
  9
$USERR1
 40
0.0
  9
$USERR2
 40
0.0
  9
$USERR3
 40
0.0
  9
$USERR4
 40
0.0
  9
$USERR5
 40
0.0
  9
$WORLDVIEW
 70
     1
  9
$SHADEDGE
 70
     3
  9
$SHADEDIF
 70
    70
  9
$TILEMODE
 70
     1
  9
$MAXACTVP
 70
    64
  9
$PLIMCHECK
 70
     0
  9
$PEXTMIN
 10
1.000000000000000E+20
 20
1.000000000000000E+20
 30
1.000000000000000E+20
  9
$PEXTMAX
 10
-1.000000000000000E+20
 20
-1.000000000000000E+20
 30
-1.000000000000000E+20
  9
$PLIMMIN
 10
0.0
 20
0.0
  9
$PLIMMAX
 10
12.0
 20
9.0
  9
$UNITMODE
 70
     0
  9
$VISRETAIN
 70
     1
  9
$PLINEGEN
 70
     0
  9
$PSLTSCALE
 70
     1
  0
ENDSEC
  0
SECTION
  2
TABLES
  0
TABLE
  2
VPORT
 70
     1
  0
VPORT
  2
*ACTIVE
 70
     0
 10
0.0
 20
0.0
 11
1.0
 21
1.0
 12
76.86778888445758
 22
-40.23422100647838
 13
0.0
 23
0.0
 14
0.5
 24
0.5
 15
0.5
 25
0.5
 16
0.0
 26
0.0
 36
1.0
 17
0.0
 27
0.0
 37
0.0
 40
326.0891500332241
 41
1.03168946698431
 42
50.0
 43
0.0
 44
0.0
 50
0.0
 51
0.0
 71
     0
 72
   100
 73
     1
 74
     3
 75
     0
 76
     0
 77
     0
 78
     0
  0
ENDTAB
  0
TABLE
  2
LTYPE
 70
     1
  0
LTYPE
  2
CONTINUOUS
 70
     0
  3
Solid line
 72
    65
 73
     0
 40
0.0
  0
ENDTAB
  0
TABLE
  2
LAYER
 70
     4
  0
LAYER
  2
0
 70
     0
 62
     7
  6
CONTINUOUS
  0
LAYER
  2
VERSION_3$HOLDER-BASE$CUT
 70
     0
 62
     1
  6
CONTINUOUS
  0
LAYER
  2
VERSION_3$HOLDER-BASE$ENGR
 70
     0
 62
     5
  6
CONTINUOUS
  0
LAYER
  2
VERSION_3$HOLDER-BASE$HOLE
 70
     0
 62
     3
  6
CONTINUOUS
  0
ENDTAB
  0
TABLE
  2
STYLE
 70
     1
  0
STYLE
  2
STANDARD
 70
     0
 40
0.0
 41
1.0
 50
0.0
 71
     0
 42
0.2
  3
txt
  4

  0
ENDTAB
  0
TABLE
  2
VIEW
 70
     0
  0
ENDTAB
  0
TABLE
  2
UCS
 70
     0
  0
ENDTAB
  0
TABLE
  2
APPID
 70
     1
  0
APPID
  2
ACAD
 70
     0
  0
ENDTAB
  0
TABLE
  2
DIMSTYLE
 70
     1
  0
DIMSTYLE
  2
STANDARD
 70
     0
  3

  4

  5

  6

  7

 40
1.0
 41
0.18
 42
0.0625
 43
0.38
 44
0.18
 45
0.0
 46
0.0
 47
0.0
 48
0.0
140
0.18
141
0.09
142
0.0
143
25.4
144
1.0
145
0.0
146
1.0
147
0.09
 71
     0
 72
     0
 73
     1
 74
     1
 75
     0
 76
     0
 77
     0
 78
     0
170
     0
171
     2
172
     0
173
     0
174
     0
175
     0
176
     0
177
     0
178
     0
  0
ENDTAB
  0
ENDSEC
  0
SECTION
  2
BLOCKS
  0
BLOCK
  8
0
  2
$MODEL_SPACE
 70
     0
 10
0.0
 20
0.0
 30
0.0
  3
$MODEL_SPACE
  1

  0
ENDBLK
  5
21
  8
0
  0
BLOCK
 67
     1
  8
0
  2
$PAPER_SPACE
 70
     0
 10
0.0
 20
0.0
 30
0.0
  3
$PAPER_SPACE
  1

  0
ENDBLK
  5
1D
 67
     1
  8
0
  0
ENDSEC
  0
SECTION
  2
ENTITIES
  0
CIRCLE
  5
6F
  8
VERSION_3$HOLDER-BASE$CUT
 10
23.63717970646714
 20
15.98130790616921
 30
0.0
 40
2.0
  0
CIRCLE
  5
70
  8
VERSION_3$HOLDER-BASE$CUT
 10
23.63717970646714
 20
-135.8383017677005
 30
0.0
 40
2.0
  0
CIRCLE
  5
71
  8
VERSION_3$HOLDER-BASE$CUT
 10
130.0983980624468
 20
-96.8957253086038
 30
0.0
 40
2.0
  0
POLYLINE
  5
73
  8
VERSION_3$HOLDER-BASE$ENGR
 66
     1
 10
0.0
 20
0.0
 30
0.0
 70
     1
  0
VERTEX
  5
74
  8
VERSION_3$HOLDER-BASE$ENGR
 10
14.88717970646714
 20
-148.5883017677005
 30
0.0
  0
VERTEX
  5
75
  8
VERSION_3$HOLDER-BASE$ENGR
 10
32.38717970646714
 20
-148.5883017677005
 30
0.0
  0
VERTEX
  5
76
  8
VERSION_3$HOLDER-BASE$ENGR
 10
32.38717970646714
 20
-123.0883017677005
 30
0.0
  0
VERTEX
  5
77
  8
VERSION_3$HOLDER-BASE$ENGR
 10
14.88717970646714
 20
-123.0883017677005
 30
0.0
  0
SEQEND
  5
78
  8
VERSION_3$HOLDER-BASE$ENGR
  0
POLYLINE
  5
79
  8
VERSION_3$HOLDER-BASE$ENGR
 66
     1
 10
0.0
 20
0.0
 30
0.0
 70
     1
  0
VERTEX
  5
7A
  8
VERSION_3$HOLDER-BASE$ENGR
 10
14.88717970646714
 20
3.231307906169214
 30
0.0
  0
VERTEX
  5
7B
  8
VERSION_3$HOLDER-BASE$ENGR
 10
32.38717970646714
 20
3.231307906169214
 30
0.0
  0
VERTEX
  5
7C
  8
VERSION_3$HOLDER-BASE$ENGR
 10
32.38717970646714
 20
28.73130790616921
 30
0.0
  0
VERTEX
  5
7D
  8
VERSION_3$HOLDER-BASE$ENGR
 10
14.88717970646714
 20
28.73130790616921
 30
0.0
  0
SEQEND
  5
7E
  8
VERSION_3$HOLDER-BASE$ENGR
  0
POLYLINE
  5
7F
  8
VERSION_3$HOLDER-BASE$ENGR
 66
     1
 10
0.0
 20
0.0
 30
0.0
 70
     1
  0
VERTEX
  5
80
  8
VERSION_3$HOLDER-BASE$ENGR
 10
138.8483980624468
 20
-109.6457253086038
 30
0.0
  0
VERTEX
  5
81
  8
VERSION_3$HOLDER-BASE$ENGR
 10
121.3483980624468
 20
-109.6457253086038
 30
0.0
  0
VERTEX
  5
82
  8
VERSION_3$HOLDER-BASE$ENGR
 10
121.3483980624468
 20
-84.1457253086038
 30
0.0
  0
VERTEX
  5
83
  8
VERSION_3$HOLDER-BASE$ENGR
 10
138.8483980624468
 20
-84.1457253086038
 30
0.0
  0
SEQEND
  5
84
  8
VERSION_3$HOLDER-BASE$ENGR
  0
POLYLINE
  5
86
  8
VERSION_3$HOLDER-BASE$HOLE
 66
     1
 10
0.0
 20
0.0
 30
0.0
 70
     1
  0
VERTEX
  5
87
  8
VERSION_3$HOLDER-BASE$HOLE
 10
45.79886059114231
 20
-67.2519042917797
 30
0.0
  0
VERTEX
  5
88
  8
VERSION_3$HOLDER-BASE$HOLE
 10
47.11566944511925
 20
-65.47226443587473
 30
0.0
  0
VERTEX
  5
89
  8
VERSION_3$HOLDER-BASE$HOLE
 10
48.4324782378154
 20
-63.8074400755856
 30
0.0
  0
VERTEX
  5
8A
  8
VERSION_3$HOLDER-BASE$HOLE
 10
49.09088261175805
 20
-63.01808370709895
 30
0.0
  0
VERTEX
  5
8B
  8
VERSION_3$HOLDER-BASE$HOLE
 10
49.74928697107033
 20
-62.25743121347862
 30
0.0
  0
VERTEX
  5
8C
  8
VERSION_3$HOLDER-BASE$HOLE
 10
50.40769131598221
 20
-61.52548259504542
 30
0.0
  0
VERTEX
  5
8D
  8
VERSION_3$HOLDER-BASE$HOLE
 10
51.0660956467236
 20
-60.82223785212013
 30
0.0
  0
VERTEX
  5
8E
  8
VERSION_3$HOLDER-BASE$HOLE
 10
51.72449996352448
 20
-60.14769698502354
 30
0.0
  0
VERTEX
  5
8F
  8
VERSION_3$HOLDER-BASE$HOLE
 10
52.38290426661477
 20
-59.50185999407645
 30
0.0
  0
VERTEX
  5
90
  8
VERSION_3$HOLDER-BASE$HOLE
 10
53.04130855622442
 20
-58.88472687959965
 30
0.0
  0
VERTEX
  5
91
  8
VERSION_3$HOLDER-BASE$HOLE
 10
53.69971283258339
 20
-58.29629764191392
 30
0.0
  0
VERTEX
  5
92
  8
VERSION_3$HOLDER-BASE$HOLE
 10
54.3581170959216
 20
-57.73657228134007
 30
0.0
  0
VERTEX
  5
93
  8
VERSION_3$HOLDER-BASE$HOLE
 10
55.01652134646902
 20
-57.20555079819887
 30
0.0
  0
VERTEX
  5
94
  8
VERSION_3$HOLDER-BASE$HOLE
 10
55.67492558445558
 20
-56.70323319281112
 30
0.0
  0
VERTEX
  5
95
  8
VERSION_3$HOLDER-BASE$HOLE
 10
56.33332981011122
 20
-56.22961946549761
 30
0.0
  0
VERTEX
  5
96
  8
VERSION_3$HOLDER-BASE$HOLE
 10
56.9917340236659
 20
-55.78470961657912
 30
0.0
  0
VERTEX
  5
97
  8
VERSION_3$HOLDER-BASE$HOLE
 10
57.65013822534955
 20
-55.36850364637647
 30
0.0
  0
VERTEX
  5
98
  8
VERSION_3$HOLDER-BASE$HOLE
 10
58.30854241539213
 20
-54.98100155521043
 30
0.0
  0
VERTEX
  5
99
  8
VERSION_3$HOLDER-BASE$HOLE
 10
58.96694659402357
 20
-54.62220334340179
 30
0.0
  0
VERTEX
  5
9A
  8
VERSION_3$HOLDER-BASE$HOLE
 10
59.62535076147382
 20
-54.29210901127135
 30
0.0
  0
VERTEX
  5
9B
  8
VERSION_3$HOLDER-BASE$HOLE
 10
59.95455284107786
 20
-54.13782580018569
 30
0.0
  0
VERTEX
  5
9C
  8
VERSION_3$HOLDER-BASE$HOLE
 10
60.28375491797283
 20
-53.99071855913989
 30
0.0
  0
VERTEX
  5
9D
  8
VERSION_3$HOLDER-BASE$HOLE
 10
60.61295699218748
 20
-53.85078728817403
 30
0.0
  0
VERTEX
  5
9E
  8
VERSION_3$HOLDER-BASE$HOLE
 10
60.94215906375054
 20
-53.71803198732822
 30
0.0
  0
VERTEX
  5
9F
  8
VERSION_3$HOLDER-BASE$HOLE
 10
61.27136113269076
 20
-53.59245265664254
 30
0.0
  0
VERTEX
  5
A0
  8
VERSION_3$HOLDER-BASE$HOLE
 10
61.6005631990369
 20
-53.47404929615711
 30
0.0
  0
VERTEX
  5
A1
  8
VERSION_3$HOLDER-BASE$HOLE
 10
61.92976526281767
 20
-53.36282190591201
 30
0.0
  0
VERTEX
  5
A2
  8
VERSION_3$HOLDER-BASE$HOLE
 10
62.25896732406184
 20
-53.25877048594735
 30
0.0
  0
VERTEX
  5
A3
  8
VERSION_3$HOLDER-BASE$HOLE
 10
62.58816938279814
 20
-53.16189503630324
 30
0.0
  0
VERTEX
  5
A4
  8
VERSION_3$HOLDER-BASE$HOLE
 10
62.91737143905532
 20
-53.07219555701975
 30
0.0
  0
VERTEX
  5
A5
  8
VERSION_3$HOLDER-BASE$HOLE
 10
63.24657349286213
 20
-52.98967204813701
 30
0.0
  0
VERTEX
  5
A6
  8
VERSION_3$HOLDER-BASE$HOLE
 10
63.57577554424729
 20
-52.9143245096951
 30
0.0
  0
VERTEX
  5
A7
  8
VERSION_3$HOLDER-BASE$HOLE
 10
63.90497759323956
 20
-52.84615294173413
 30
0.0
  0
VERTEX
  5
A8
  8
VERSION_3$HOLDER-BASE$HOLE
 10
64.23417963986768
 20
-52.78515734429418
 30
0.0
  0
VERTEX
  5
A9
  8
VERSION_3$HOLDER-BASE$HOLE
 10
64.56338168416038
 20
-52.73133771741536
 30
0.0
  0
VERTEX
  5
AA
  8
VERSION_3$HOLDER-BASE$HOLE
 10
64.89258372614643
 20
-52.68469406113778
 30
0.0
  0
VERTEX
  5
AB
  8
VERSION_3$HOLDER-BASE$HOLE
 10
65.22178576585455
 20
-52.64522637550153
 30
0.0
  0
VERTEX
  5
AC
  8
VERSION_3$HOLDER-BASE$HOLE
 10
65.5509878033135
 20
-52.6129346605467
 30
0.0
  0
VERTEX
  5
AD
  8
VERSION_3$HOLDER-BASE$HOLE
 10
65.88018983855201
 20
-52.5878189163134
 30
0.0
  0
VERTEX
  5
AE
  8
VERSION_3$HOLDER-BASE$HOLE
 10
66.20939187159884
 20
-52.56987914284171
 30
0.0
  0
VERTEX
  5
AF
  8
VERSION_3$HOLDER-BASE$HOLE
 10
66.53859390248272
 20
-52.55911534017176
 30
0.0
  0
VERTEX
  5
B0
  8
VERSION_3$HOLDER-BASE$HOLE
 10
66.86779593123237
 20
-52.55552750834363
 30
0.0
  0
VERTEX
  5
B1
  8
VERSION_3$HOLDER-BASE$HOLE
 10
67.19699795787656
 20
-52.55911564739742
 30
0.0
  0
VERTEX
  5
B2
  8
VERSION_3$HOLDER-BASE$HOLE
 10
67.52619998244404
 20
-52.56987975737324
 30
0.0
  0
VERTEX
  5
B3
  8
VERSION_3$HOLDER-BASE$HOLE
 10
67.85540200496354
 20
-52.58781983831117
 30
0.0
  0
VERTEX
  5
B4
  8
VERSION_3$HOLDER-BASE$HOLE
 10
68.18460402546383
 20
-52.61293589025131
 30
0.0
  0
VERTEX
  5
B5
  8
VERSION_3$HOLDER-BASE$HOLE
 10
68.51380604397363
 20
-52.64522791323378
 30
0.0
  0
VERTEX
  5
B6
  8
VERSION_3$HOLDER-BASE$HOLE
 10
68.84300806052165
 20
-52.68469590729867
 30
0.0
  0
VERTEX
  5
B7
  8
VERSION_3$HOLDER-BASE$HOLE
 10
69.17221007513669
 20
-52.73133987248607
 30
0.0
  0
VERTEX
  5
B8
  8
VERSION_3$HOLDER-BASE$HOLE
 10
69.50141208784746
 20
-52.78515980883608
 30
0.0
  0
VERTEX
  5
B9
  8
VERSION_3$HOLDER-BASE$HOLE
 10
69.8306140986827
 20
-52.84615571638881
 30
0.0
  0
VERTEX
  5
BA
  8
VERSION_3$HOLDER-BASE$HOLE
 10
70.15981610767119
 20
-52.91432759518435
 30
0.0
  0
VERTEX
  5
BB
  8
VERSION_3$HOLDER-BASE$HOLE
 10
70.48901811484163
 20
-52.9896754452628
 30
0.0
  0
VERTEX
  5
BC
  8
VERSION_3$HOLDER-BASE$HOLE
 10
70.81822012022279
 20
-53.07219926666426
 30
0.0
  0
VERTEX
  5
BD
  8
VERSION_3$HOLDER-BASE$HOLE
 10
71.14742212384341
 20
-53.16189905942883
 30
0.0
  0
VERTEX
  5
BE
  8
VERSION_3$HOLDER-BASE$HOLE
 10
71.47662412573222
 20
-53.2587748235966
 30
0.0
  0
VERTEX
  5
BF
  8
VERSION_3$HOLDER-BASE$HOLE
 10
71.80582612591797
 20
-53.36282655920768
 30
0.0
  0
VERTEX
  5
C0
  8
VERSION_3$HOLDER-BASE$HOLE
 10
72.1350281244294
 20
-53.47405426630216
 30
0.0
  0
VERTEX
  5
C1
  8
VERSION_3$HOLDER-BASE$HOLE
 10
72.46423012129526
 20
-53.59245794492016
 30
0.0
  0
VERTEX
  5
C2
  8
VERSION_3$HOLDER-BASE$HOLE
 10
72.7934321165443
 20
-53.71803759510174
 30
0.0
  0
VERTEX
  5
C3
  8
VERSION_3$HOLDER-BASE$HOLE
 10
73.12263411020524
 20
-53.85079321688703
 30
0.0
  0
VERTEX
  5
C4
  8
VERSION_3$HOLDER-BASE$HOLE
 10
73.45183610230683
 20
-53.99072481031612
 30
0.0
  0
VERTEX
  5
C5
  8
VERSION_3$HOLDER-BASE$HOLE
 10
73.78103809287782
 20
-54.13783237542911
 30
0.0
  0
VERTEX
  5
C6
  8
VERSION_3$HOLDER-BASE$HOLE
 10
74.11024008194697
 20
-54.29211591226611
 30
0.0
  0
VERTEX
  5
C7
  8
VERSION_3$HOLDER-BASE$HOLE
 10
74.76864405569464
 20
-54.62221090127248
 30
0.0
  0
VERTEX
  5
C8
  8
VERSION_3$HOLDER-BASE$HOLE
 10
75.4270480237798
 20
-54.98100977765603
 30
0.0
  0
VERTEX
  5
C9
  8
VERSION_3$HOLDER-BASE$HOLE
 10
76.0854519864324
 20
-55.36851254173755
 30
0.0
  0
VERTEX
  5
CA
  8
VERSION_3$HOLDER-BASE$HOLE
 10
76.74385594388238
 20
-55.78471919383784
 30
0.0
  0
VERTEX
  5
CB
  8
VERSION_3$HOLDER-BASE$HOLE
 10
77.40225989635968
 20
-56.22962973427768
 30
0.0
  0
VERTEX
  5
CC
  8
VERSION_3$HOLDER-BASE$HOLE
 10
78.06066384409424
 20
-56.70324416337786
 30
0.0
  0
VERTEX
  5
CD
  8
VERSION_3$HOLDER-BASE$HOLE
 10
78.71906778731602
 20
-57.20556248145918
 30
0.0
  0
VERTEX
  5
CE
  8
VERSION_3$HOLDER-BASE$HOLE
 10
79.37747172625495
 20
-57.73658468884242
 30
0.0
  0
VERTEX
  5
CF
  8
VERSION_3$HOLDER-BASE$HOLE
 10
80.03587566114098
 20
-58.29631078584838
 30
0.0
  0
VERTEX
  5
D0
  8
VERSION_3$HOLDER-BASE$HOLE
 10
80.69427959220405
 20
-58.88474077279784
 30
0.0
  0
VERTEX
  5
D1
  8
VERSION_3$HOLDER-BASE$HOLE
 10
81.35268351967412
 20
-59.50187465001161
 30
0.0
  0
VERTEX
  5
D2
  8
VERSION_3$HOLDER-BASE$HOLE
 10
82.0110874437811
 20
-60.14771241781047
 30
0.0
  0
VERTEX
  5
D3
  8
VERSION_3$HOLDER-BASE$HOLE
 10
82.66949136475498
 20
-60.82225407651519
 30
0.0
  0
VERTEX
  5
D4
  8
VERSION_3$HOLDER-BASE$HOLE
 10
83.32789528282566
 20
-61.5254996264466
 30
0.0
  0
VERTEX
  5
D5
  8
VERSION_3$HOLDER-BASE$HOLE
 10
83.98629919822315
 20
-62.25744906792546
 30
0.0
  0
VERTEX
  5
D6
  8
VERSION_3$HOLDER-BASE$HOLE
 10
84.64470311117734
 20
-63.01810240127259
 30
0.0
  0
VERTEX
  5
D7
  8
VERSION_3$HOLDER-BASE$HOLE
 10
85.30310702191818
 20
-63.80745962680874
 30
0.0
  0
VERTEX
  5
D8
  8
VERSION_3$HOLDER-BASE$HOLE
 10
86.61991483767963
 20
-65.47228575573138
 30
0.0
  0
VERTEX
  5
D9
  8
VERSION_3$HOLDER-BASE$HOLE
 10
87.93672264734704
 20
-67.25192745725967
 30
0.0
  0
VERTEX
  5
DA
  8
VERSION_3$HOLDER-BASE$HOLE
 10
87.9907080671492
 20
-67.32987780436349
 30
0.0
  0
VERTEX
  5
DB
  8
VERSION_3$HOLDER-BASE$HOLE
 10
88.04296841948201
 20
-67.41079142277036
 30
0.0
  0
VERTEX
  5
DC
  8
VERSION_3$HOLDER-BASE$HOLE
 10
88.09335539521946
 20
-67.49459548361425
 30
0.0
  0
VERTEX
  5
DD
  8
VERSION_3$HOLDER-BASE$HOLE
 10
88.14172257802205
 20
-67.58120334330057
 30
0.0
  0
VERTEX
  5
DE
  8
VERSION_3$HOLDER-BASE$HOLE
 10
88.18792647866223
 20
-67.67051450058617
 30
0.0
  0
VERTEX
  5
DF
  8
VERSION_3$HOLDER-BASE$HOLE
 10
88.23182759340476
 20
-67.76241468745306
 30
0.0
  0
VERTEX
  5
E0
  8
VERSION_3$HOLDER-BASE$HOLE
 10
88.27329147319688
 20
-67.85677610022655
 30
0.0
  0
VERTEX
  5
E1
  8
VERSION_3$HOLDER-BASE$HOLE
 10
88.31218978938064
 20
-67.95345777519809
 30
0.0
  0
VERTEX
  5
E2
  8
VERSION_3$HOLDER-BASE$HOLE
 10
88.34840138086788
 20
-68.0523061105715
 30
0.0
  0
VERTEX
  5
E3
  8
VERSION_3$HOLDER-BASE$HOLE
 10
88.38181326726087
 20
-68.15315553391011
 30
0.0
  0
VERTEX
  5
E4
  8
VERSION_3$HOLDER-BASE$HOLE
 10
88.41232161229054
 20
-68.25582931149108
 30
0.0
  0
VERTEX
  5
E5
  8
VERSION_3$HOLDER-BASE$HOLE
 10
88.43983262220901
 20
-68.36014049314502
 30
0.0
  0
VERTEX
  5
E6
  8
VERSION_3$HOLDER-BASE$HOLE
 10
88.46426336441894
 20
-68.46589298335907
 30
0.0
  0
VERTEX
  5
E7
  8
VERSION_3$HOLDER-BASE$HOLE
 10
88.48554249265557
 20
-68.57288272673482
 30
0.0
  0
VERTEX
  5
E8
  8
VERSION_3$HOLDER-BASE$HOLE
 10
88.50361086643478
 20
-68.68089899340534
 30
0.0
  0
VERTEX
  5
E9
  8
VERSION_3$HOLDER-BASE$HOLE
 10
88.51842205421735
 20
-68.78972574781133
 30
0.0
  0
VERTEX
  5
EA
  8
VERSION_3$HOLDER-BASE$HOLE
 10
88.52994271177002
 20
-68.89914308238912
 30
0.0
  0
VERTEX
  5
EB
  8
VERSION_3$HOLDER-BASE$HOLE
 10
88.53815282947154
 20
-69.00892869629577
 30
0.0
  0
VERTEX
  5
EC
  8
VERSION_3$HOLDER-BASE$HOLE
 10
88.54304584475297
 20
-69.11885939834004
 30
0.0
  0
VERTEX
  5
ED
  8
VERSION_3$HOLDER-BASE$HOLE
 10
88.544628618401
 20
-69.22871261283102
 30
0.0
  0
VERTEX
  5
EE
  8
VERSION_3$HOLDER-BASE$HOLE
 10
88.54292127601725
 20
-69.33826786711631
 30
0.0
  0
VERTEX
  5
EF
  8
VERSION_3$HOLDER-BASE$HOLE
 10
88.53795691843415
 20
-69.44730824015106
 30
0.0
  0
VERTEX
  5
F0
  8
VERSION_3$HOLDER-BASE$HOLE
 10
88.52978120726995
 20
-69.55562175249439
 30
0.0
  0
VERTEX
  5
F1
  8
VERSION_3$HOLDER-BASE$HOLE
 10
88.51845183398768
 20
-69.66300267963202
 30
0.0
  0
VERTEX
  5
F2
  8
VERSION_3$HOLDER-BASE$HOLE
 10
88.50403788275018
 20
-69.76925277241195
 30
0.0
  0
VERTEX
  5
F3
  8
VERSION_3$HOLDER-BASE$HOLE
 10
88.486619098986
 20
-69.8741823705925
 30
0.0
  0
VERTEX
  5
F4
  8
VERSION_3$HOLDER-BASE$HOLE
 10
88.46628507686196
 20
-69.97761139795429
 30
0.0
  0
VERTEX
  5
F5
  8
VERSION_3$HOLDER-BASE$HOLE
 10
88.44313437977875
 20
-70.0793702300444
 30
0.0
  0
VERTEX
  5
F6
  8
VERSION_3$HOLDER-BASE$HOLE
 10
88.41727360855451
 20
-70.17930042831333
 30
0.0
  0
VERTEX
  5
F7
  8
VERSION_3$HOLDER-BASE$HOLE
 10
88.38881643214746
 20
-70.27725533709446
 30
0.0
  0
VERTEX
  5
F8
  8
VERSION_3$HOLDER-BASE$HOLE
 10
88.35788259560525
 20
-70.37310054248672
 30
0.0
  0
VERTEX
  5
F9
  8
VERSION_3$HOLDER-BASE$HOLE
 10
88.32459691944874
 20
-70.46671419466314
 30
0.0
  0
VERTEX
  5
FA
  8
VERSION_3$HOLDER-BASE$HOLE
 10
88.28872027287076
 20
-70.55889309398978
 30
0.0
  0
VERTEX
  5
FB
  8
VERSION_3$HOLDER-BASE$HOLE
 10
88.24991820817475
 20
-70.65038125899564
 30
0.0
  0
VERTEX
  5
FC
  8
VERSION_3$HOLDER-BASE$HOLE
 10
88.2081837843348
 20
-70.74098387674572
 30
0.0
  0
VERTEX
  5
FD
  8
VERSION_3$HOLDER-BASE$HOLE
 10
88.16352115634919
 20
-70.8305025252162
 30
0.0
  0
VERTEX
  5
FE
  8
VERSION_3$HOLDER-BASE$HOLE
 10
88.1159460348811
 20
-70.91873630422202
 30
0.0
  0
VERTEX
  5
FF
  8
VERSION_3$HOLDER-BASE$HOLE
 10
88.06548605595898
 20
-71.0054830483705
 30
0.0
  0
VERTEX
  5
100
  8
VERSION_3$HOLDER-BASE$HOLE
 10
88.01218105044451
 20
-71.09054060999779
 30
0.0
  0
VERTEX
  5
101
  8
VERSION_3$HOLDER-BASE$HOLE
 10
87.95608320418157
 20
-71.17370819798268
 30
0.0
  0
VERTEX
  5
102
  8
VERSION_3$HOLDER-BASE$HOLE
 10
87.89725710124218
 20
-71.25478775646482
 30
0.0
  0
VERTEX
  5
103
  8
VERSION_3$HOLDER-BASE$HOLE
 10
87.8668445092117
 20
-71.2944837247413
 30
0.0
  0
VERTEX
  5
104
  8
VERSION_3$HOLDER-BASE$HOLE
 10
87.83577964446913
 20
-71.33358536589529
 30
0.0
  0
VERTEX
  5
105
  8
VERSION_3$HOLDER-BASE$HOLE
 10
87.80407401089293
 20
-71.372069316773
 30
0.0
  0
VERTEX
  5
106
  8
VERSION_3$HOLDER-BASE$HOLE
 10
87.77173984953706
 20
-71.40991264757794
 30
0.0
  0
VERTEX
  5
107
  8
VERSION_3$HOLDER-BASE$HOLE
 10
87.73879012519265
 20
-71.4470929045612
 30
0.0
  0
VERTEX
  5
108
  8
VERSION_3$HOLDER-BASE$HOLE
 10
87.70523851097514
 20
-71.48358815198478
 30
0.0
  0
VERTEX
  5
109
  8
VERSION_3$HOLDER-BASE$HOLE
 10
87.67109937096636
 20
-71.51937701320047
 30
0.0
  0
VERTEX
  5
10A
  8
VERSION_3$HOLDER-BASE$HOLE
 10
87.63638774095176
 20
-71.55443871068901
 30
0.0
  0
VERTEX
  5
10B
  8
VERSION_3$HOLDER-BASE$HOLE
 10
87.6011193073016
 20
-71.58875310490724
 30
0.0
  0
VERTEX
  5
10C
  8
VERSION_3$HOLDER-BASE$HOLE
 10
87.56531038405451
 20
-71.62230073179487
 30
0.0
  0
VERTEX
  5
10D
  8
VERSION_3$HOLDER-BASE$HOLE
 10
87.52897788827103
 20
-71.65506283879749
 30
0.0
  0
VERTEX
  5
10E
  8
VERSION_3$HOLDER-BASE$HOLE
 10
87.49213931373336
 20
-71.68702141926855
 30
0.0
  0
VERTEX
  5
10F
  8
VERSION_3$HOLDER-BASE$HOLE
 10
87.45481270307582
 20
-71.7181592451189
 30
0.0
  0
VERTEX
  5
110
  8
VERSION_3$HOLDER-BASE$HOLE
 10
87.41701661843852
 20
-71.74845989759162
 30
0.0
  0
VERTEX
  5
111
  8
VERSION_3$HOLDER-BASE$HOLE
 10
87.37877011074391
 20
-71.77790779604645
 30
0.0
  0
VERTEX
  5
112
  8
VERSION_3$HOLDER-BASE$HOLE
 10
87.34009268770318
 20
-71.80648822464882
 30
0.0
  0
VERTEX
  5
113
  8
VERSION_3$HOLDER-BASE$HOLE
 10
87.30100428066478
 20
-71.83418735686686
 30
0.0
  0
VERTEX
  5
114
  8
VERSION_3$HOLDER-BASE$HOLE
 10
87.26152521042387
 20
-71.86099227769171
 30
0.0
  0
VERTEX
  5
115
  8
VERSION_3$HOLDER-BASE$HOLE
 10
87.22167615211491
 20
-71.88689100350531
 30
0.0
  0
VERTEX
  5
116
  8
VERSION_3$HOLDER-BASE$HOLE
 10
87.18147809931534
 20
-71.91187249953347
 30
0.0
  0
VERTEX
  5
117
  8
VERSION_3$HOLDER-BASE$HOLE
 10
87.14095232748967
 20
-71.93592669483155
 30
0.0
  0
VERTEX
  5
118
  8
VERSION_3$HOLDER-BASE$HOLE
 10
87.10012035690701
 20
-71.95904449476328
 30
0.0
  0
VERTEX
  5
119
  8
VERSION_3$HOLDER-BASE$HOLE
 10
87.0590039151663
 20
-71.98121779094497
 30
0.0
  0
VERTEX
  5
11A
  8
VERSION_3$HOLDER-BASE$HOLE
 10
87.01762489946368
 20
-72.00243946863924
 30
0.0
  0
VERTEX
  5
11B
  8
VERSION_3$HOLDER-BASE$HOLE
 10
86.97600533873755
 20
-72.02270341159495
 30
0.0
  0
VERTEX
  5
11C
  8
VERSION_3$HOLDER-BASE$HOLE
 10
86.93416735582473
 20
-72.04200450434134
 30
0.0
  0
VERTEX
  5
11D
  8
VERSION_3$HOLDER-BASE$HOLE
 10
86.89213312976057
 20
-72.06033863195702
 30
0.0
  0
VERTEX
  5
11E
  8
VERSION_3$HOLDER-BASE$HOLE
 10
86.84992485835255
 20
-72.07770267734527
 30
0.0
  0
VERTEX
  5
11F
  8
VERSION_3$HOLDER-BASE$HOLE
 10
86.80756472115425
 20
-72.09409451605819
 30
0.0
  0
VERTEX
  5
120
  8
VERSION_3$HOLDER-BASE$HOLE
 10
86.76507484296269
 20
-72.10951300872378
 30
0.0
  0
VERTEX
  5
121
  8
VERSION_3$HOLDER-BASE$HOLE
 10
86.7224772579573
 20
-72.12395799113914
 30
0.0
  0
VERTEX
  5
122
  8
VERSION_3$HOLDER-BASE$HOLE
 10
86.67979387459368
 20
-72.13743026210311
 30
0.0
  0
VERTEX
  5
123
  8
VERSION_3$HOLDER-BASE$HOLE
 10
86.63704644135976
 20
-72.1499315690704
 30
0.0
  0
VERTEX
  5
124
  8
VERSION_3$HOLDER-BASE$HOLE
 10
86.5942565134956
 20
-72.16146459171804
 30
0.0
  0
VERTEX
  5
125
  8
VERSION_3$HOLDER-BASE$HOLE
 10
86.55144542077167
 20
-72.17203292352168
 30
0.0
  0
VERTEX
  5
126
  8
VERSION_3$HOLDER-BASE$HOLE
 10
86.50863423641306
 20
-72.18164105144646
 30
0.0
  0
VERTEX
  5
127
  8
VERSION_3$HOLDER-BASE$HOLE
 10
86.46584374725006
 20
-72.19029433386349
 30
0.0
  0
VERTEX
  5
128
  8
VERSION_3$HOLDER-BASE$HOLE
 10
86.4230944251676
 20
-72.19799897680728
 30
0.0
  0
VERTEX
  5
129
  8
VERSION_3$HOLDER-BASE$HOLE
 10
86.38040639991894
 20
-72.2047620086948
 30
0.0
  0
VERTEX
  5
12A
  8
VERSION_3$HOLDER-BASE$HOLE
 10
86.33779943335979
 20
-72.2105912536293
 30
0.0
  0
VERTEX
  5
12B
  8
VERSION_3$HOLDER-BASE$HOLE
 10
86.29529289515243
 20
-72.21549530341564
 30
0.0
  0
VERTEX
  5
12C
  8
VERSION_3$HOLDER-BASE$HOLE
 10
86.25290573998063
 20
-72.21948348841529
 30
0.0
  0
VERTEX
  5
12D
  8
VERSION_3$HOLDER-BASE$HOLE
 10
86.21065648630827
 20
-72.22256584737016
 30
0.0
  0
VERTEX
  5
12E
  8
VERSION_3$HOLDER-BASE$HOLE
 10
86.16856319670643
 20
-72.22475309632502
 30
0.0
  0
VERTEX
  5
12F
  8
VERSION_3$HOLDER-BASE$HOLE
 10
86.12664345976717
 20
-72.22605659677762
 30
0.0
  0
VERTEX
  5
130
  8
VERSION_3$HOLDER-BASE$HOLE
 10
86.08491437361297
 20
-72.22648832318482
 30
0.0
  0
VERTEX
  5
131
  8
VERSION_3$HOLDER-BASE$HOLE
 10
47.6506633953009
 20
-72.22646719378098
 30
0.0
  0
VERTEX
  5
132
  8
VERSION_3$HOLDER-BASE$HOLE
 10
47.60893430962141
 20
-72.22603542149227
 30
0.0
  0
VERTEX
  5
133
  8
VERSION_3$HOLDER-BASE$HOLE
 10
47.5670145741154
 20
-72.22473187494852
 30
0.0
  0
VERTEX
  5
134
  8
VERSION_3$HOLDER-BASE$HOLE
 10
47.5249212869185
 20
-72.22254457971174
 30
0.0
  0
VERTEX
  5
135
  8
VERSION_3$HOLDER-BASE$HOLE
 10
47.48267203663523
 20
-72.21946217430344
 30
0.0
  0
VERTEX
  5
136
  8
VERSION_3$HOLDER-BASE$HOLE
 10
47.44028488584853
 20
-72.21547394269874
 30
0.0
  0
VERTEX
  5
137
  8
VERSION_3$HOLDER-BASE$HOLE
 10
47.39777835303326
 20
-72.21056984617609
 30
0.0
  0
VERTEX
  5
138
  8
VERSION_3$HOLDER-BASE$HOLE
 10
47.35517139288343
 20
-72.20474055439485
 30
0.0
  0
VERTEX
  5
139
  8
VERSION_3$HOLDER-BASE$HOLE
 10
47.31248337507083
 20
-72.19797747557145
 30
0.0
  0
VERTEX
  5
13A
  8
VERSION_3$HOLDER-BASE$HOLE
 10
47.26973406145974
 20
-72.19027278562439
 30
0.0
  0
VERTEX
  5
13B
  8
VERSION_3$HOLDER-BASE$HOLE
 10
47.22694358181111
 20
-72.18161945615886
 30
0.0
  0
VERTEX
  5
13C
  8
VERSION_3$HOLDER-BASE$HOLE
 10
47.18413240801675
 20
-72.17201128116281
 30
0.0
  0
VERTEX
  5
13D
  8
VERSION_3$HOLDER-BASE$HOLE
 10
47.14132132691282
 20
-72.16144290228799
 30
0.0
  0
VERTEX
  5
13E
  8
VERSION_3$HOLDER-BASE$HOLE
 10
47.09853141172934
 20
-72.14990983259243
 30
0.0
  0
VERTEX
  5
13F
  8
VERSION_3$HOLDER-BASE$HOLE
 10
47.05578399224073
 20
-72.13740847862395
 30
0.0
  0
VERTEX
  5
140
  8
VERSION_3$HOLDER-BASE$HOLE
 10
47.01310062369005
 20
-72.12393616072926
 30
0.0
  0
VERTEX
  5
141
  8
VERSION_3$HOLDER-BASE$HOLE
 10
46.9705030545671
 20
-72.10949113147748
 30
0.0
  0
VERTEX
  5
142
  8
VERSION_3$HOLDER-BASE$HOLE
 10
46.92801319332834
 20
-72.09407259209388
 30
0.0
  0
VERTEX
  5
143
  8
VERSION_3$HOLDER-BASE$HOLE
 10
46.88565307415303
 20
-72.07768070680567
 30
0.0
  0
VERTEX
  5
144
  8
VERSION_3$HOLDER-BASE$HOLE
 10
46.84344482183695
 20
-72.06031661500907
 30
0.0
  0
VERTEX
  5
145
  8
VERSION_3$HOLDER-BASE$HOLE
 10
46.80141061593138
 20
-72.04198244117637
 30
0.0
  0
VERTEX
  5
146
  8
VERSION_3$HOLDER-BASE$HOLE
 10
46.75957265424032
 20
-72.02268130242875
 30
0.0
  0
VERTEX
  5
147
  8
VERSION_3$HOLDER-BASE$HOLE
 10
46.71795311579459
 20
-72.00241731371197
 30
0.0
  0
VERTEX
  5
148
  8
VERSION_3$HOLDER-BASE$HOLE
 10
46.67657412342543
 20
-71.9811955905211
 30
0.0
  0
VERTEX
  5
149
  8
VERSION_3$HOLDER-BASE$HOLE
 10
46.63545770606451
 20
-71.95902224913155
 30
0.0
  0
VERTEX
  5
14A
  8
VERSION_3$HOLDER-BASE$HOLE
 10
46.59462576090014
 20
-71.93590440430475
 30
0.0
  0
VERTEX
  5
14B
  8
VERSION_3$HOLDER-BASE$HOLE
 10
46.55410001552229
 20
-71.91185016444823
 30
0.0
  0
VERTEX
  5
14C
  8
VERSION_3$HOLDER-BASE$HOLE
 10
46.51390199019012
 20
-71.88686862422195
 30
0.0
  0
VERTEX
  5
14D
  8
VERSION_3$HOLDER-BASE$HOLE
 10
46.47405296035708
 20
-71.86096985459399
 30
0.0
  0
VERTEX
  5
14E
  8
VERSION_3$HOLDER-BASE$HOLE
 10
46.4345739195884
 20
-71.83416489036158
 30
0.0
  0
VERTEX
  5
14F
  8
VERSION_3$HOLDER-BASE$HOLE
 10
46.39548554300551
 20
-71.8064657151655
 30
0.0
  0
VERTEX
  5
150
  8
VERSION_3$HOLDER-BASE$HOLE
 10
46.35680815138923
 20
-71.777885244037
 30
0.0
  0
VERTEX
  5
151
  8
VERSION_3$HOLDER-BASE$HOLE
 10
46.31856167607287
 20
-71.74843730352978
 30
0.0
  0
VERTEX
  5
152
  8
VERSION_3$HOLDER-BASE$HOLE
 10
46.28076562475143
 20
-71.71813660949996
 30
0.0
  0
VERTEX
  5
153
  8
VERSION_3$HOLDER-BASE$HOLE
 10
46.24343904833025
 20
-71.6869987426087
 30
0.0
  0
VERTEX
  5
154
  8
VERSION_3$HOLDER-BASE$HOLE
 10
46.20660050893134
 20
-71.65504012163332
 30
0.0
  0
VERTEX
  5
155
  8
VERSION_3$HOLDER-BASE$HOLE
 10
46.17026804917013
 20
-71.62227797468283
 30
0.0
  0
VERTEX
  5
156
  8
VERSION_3$HOLDER-BASE$HOLE
 10
46.13445916280898
 20
-71.588730308423
 30
0.0
  0
VERTEX
  5
157
  8
VERSION_3$HOLDER-BASE$HOLE
 10
46.09919076688785
 20
-71.55441587542684
 30
0.0
  0
VERTEX
  5
158
  8
VERSION_3$HOLDER-BASE$HOLE
 10
46.06447917542394
 20
-71.5193541397726
 30
0.0
  0
VERTEX
  5
159
  8
VERSION_3$HOLDER-BASE$HOLE
 10
46.03034007476533
 20
-71.48356524102063
 30
0.0
  0
VERTEX
  5
15A
  8
VERSION_3$HOLDER-BASE$HOLE
 10
45.99678850067468
 20
-71.44706995670676
 30
0.0
  0
VERTEX
  5
15B
  8
VERSION_3$HOLDER-BASE$HOLE
 10
45.96383881721033
 20
-71.40988966349502
 30
0.0
  0
VERTEX
  5
15C
  8
VERSION_3$HOLDER-BASE$HOLE
 10
45.93150469746356
 20
-71.3720462971384
 30
0.0
  0
VERTEX
  5
15D
  8
VERSION_3$HOLDER-BASE$HOLE
 10
45.89979910620085
 20
-71.3335623114001
 30
0.0
  0
VERTEX
  5
15E
  8
VERSION_3$HOLDER-BASE$HOLE
 10
45.86873428445089
 20
-71.29446063609004
 30
0.0
  0
VERTEX
  5
15F
  8
VERSION_3$HOLDER-BASE$HOLE
 10
45.83832173606652
 20
-71.2547646343747
 30
0.0
  0
VERTEX
  5
160
  8
VERSION_3$HOLDER-BASE$HOLE
 10
45.77949572227489
 20
-71.17368501121277
 30
0.0
  0
VERTEX
  5
161
  8
VERSION_3$HOLDER-BASE$HOLE
 10
45.72339796745545
 20
-71.09051736154785
 30
0.0
  0
VERTEX
  5
162
  8
VERSION_3$HOLDER-BASE$HOLE
 10
45.6700930554626
 20
-71.00545974131128
 30
0.0
  0
VERTEX
  5
163
  8
VERSION_3$HOLDER-BASE$HOLE
 10
45.61963317191933
 20
-70.91871294168169
 30
0.0
  0
VERTEX
  5
164
  8
VERSION_3$HOLDER-BASE$HOLE
 10
45.57205814746513
 20
-70.83047911036667
 30
0.0
  0
VERTEX
  5
165
  8
VERSION_3$HOLDER-BASE$HOLE
 10
45.5273956179061
 20
-70.7409604127893
 30
0.0
  0
VERTEX
  5
166
  8
VERSION_3$HOLDER-BASE$HOLE
 10
45.48566129368458
 20
-70.65035774915194
 30
0.0
  0
VERTEX
  5
167
  8
VERSION_3$HOLDER-BASE$HOLE
 10
45.44685932958064
 20
-70.5588695414829
 30
0.0
  0
VERTEX
  5
168
  8
VERSION_3$HOLDER-BASE$HOLE
 10
45.41098278435421
 20
-70.46669060270965
 30
0.0
  0
VERTEX
  5
169
  8
VERSION_3$HOLDER-BASE$HOLE
 10
45.37769721112678
 20
-70.3730769139354
 30
0.0
  0
VERTEX
  5
16A
  8
VERSION_3$HOLDER-BASE$HOLE
 10
45.34676347996724
 20
-70.27723167453118
 30
0.0
  0
VERTEX
  5
16B
  8
VERSION_3$HOLDER-BASE$HOLE
 10
45.31830641126251
 20
-70.1792767344612
 30
0.0
  0
VERTEX
  5
16C
  8
VERSION_3$HOLDER-BASE$HOLE
 10
45.29244574991244
 20
-70.0793465077582
 30
0.0
  0
VERTEX
  5
16D
  8
VERSION_3$HOLDER-BASE$HOLE
 10
45.26929516471397
 20
-69.97758765021376
 30
0.0
  0
VERTEX
  5
16E
  8
VERSION_3$HOLDER-BASE$HOLE
 10
45.24896125631111
 20
-69.8741586004946
 30
0.0
  0
VERTEX
  5
16F
  8
VERSION_3$HOLDER-BASE$HOLE
 10
45.23154258791797
 20
-69.76922898316202
 30
0.0
  0
VERTEX
  5
170
  8
VERSION_3$HOLDER-BASE$HOLE
 10
45.21712875350341
 20
-69.6629788745339
 30
0.0
  0
VERTEX
  5
171
  8
VERSION_3$HOLDER-BASE$HOLE
 10
45.20579949828743
 20
-69.55559793493964
 30
0.0
  0
VERTEX
  5
172
  8
VERSION_3$HOLDER-BASE$HOLE
 10
45.1976239062149
 20
-69.44728441360712
 30
0.0
  0
VERTEX
  5
173
  8
VERSION_3$HOLDER-BASE$HOLE
 10
45.19265966852267
 20
-69.33824403511412
 30
0.0
  0
VERTEX
  5
174
  8
VERSION_3$HOLDER-BASE$HOLE
 10
45.19095244659589
 20
-69.22868877895164
 30
0.0
  0
VERTEX
  5
175
  8
VERSION_3$HOLDER-BASE$HOLE
 10
45.19253534102855
 20
-69.11883556620101
 30
0.0
  0
VERTEX
  5
176
  8
VERSION_3$HOLDER-BASE$HOLE
 10
45.19742847717975
 20
-69.00890486953674
 30
0.0
  0
VERTEX
  5
177
  8
VERSION_3$HOLDER-BASE$HOLE
 10
45.20563871559153
 20
-68.89911926465726
 30
0.0
  0
VERTEX
  5
178
  8
VERSION_3$HOLDER-BASE$HOLE
 10
45.21715949344951
 20
-68.78970194274663
 30
0.0
  0
VERTEX
  5
179
  8
VERSION_3$HOLDER-BASE$HOLE
 10
45.23197080088806
 20
-68.68087520462574
 30
0.0
  0
VERTEX
  5
17A
  8
VERSION_3$HOLDER-BASE$HOLE
 10
45.25003929343212
 20
-68.57285895782164
 30
0.0
  0
VERTEX
  5
17B
  8
VERSION_3$HOLDER-BASE$HOLE
 10
45.27131853930493
 20
-68.46586923784257
 30
0.0
  0
VERTEX
  5
17C
  8
VERSION_3$HOLDER-BASE$HOLE
 10
45.29574939779062
 20
-68.36011677449041
 30
0.0
  0
VERTEX
  5
17D
  8
VERSION_3$HOLDER-BASE$HOLE
 10
45.32326052240013
 20
-68.25580562308515
 30
0.0
  0
VERTEX
  5
17E
  8
VERSION_3$HOLDER-BASE$HOLE
 10
45.35376898032053
 20
-68.15313187904843
 30
0.0
  0
VERTEX
  5
17F
  8
VERSION_3$HOLDER-BASE$HOLE
 10
45.38718097759833
 20
-68.05228249244655
 30
0.0
  0
VERTEX
  5
180
  8
VERSION_3$HOLDER-BASE$HOLE
 10
45.42339267777019
 20
-67.9534341968882
 30
0.0
  0
VERTEX
  5
181
  8
VERSION_3$HOLDER-BASE$HOLE
 10
45.46229110025627
 20
-67.85675256468576
 30
0.0
  0
VERTEX
  5
182
  8
VERSION_3$HOLDER-BASE$HOLE
 10
45.50375508379957
 20
-67.76239119750224
 30
0.0
  0
VERTEX
  5
183
  8
VERSION_3$HOLDER-BASE$HOLE
 10
45.54765629958714
 20
-67.67049105890507
 30
0.0
  0
VERTEX
  5
184
  8
VERSION_3$HOLDER-BASE$HOLE
 10
45.59386029842571
 20
-67.58117995242117
 30
0.0
  0
VERTEX
  5
185
  8
VERSION_3$HOLDER-BASE$HOLE
 10
45.64222757645439
 20
-67.49457214591504
 30
0.0
  0
VERTEX
  5
186
  8
VERSION_3$HOLDER-BASE$HOLE
 10
45.69261464433509
 20
-67.41076814047216
 30
0.0
  0
VERTEX
  5
187
  8
VERSION_3$HOLDER-BASE$HOLE
 10
45.74487508563313
 20
-67.32985457952603
 30
0.0
  0
SEQEND
  5
188
  8
VERSION_3$HOLDER-BASE$HOLE
  0
POLYLINE
  5
189
  8
VERSION_3$HOLDER-BASE$ENGR
 66
     1
 10
0.0
 20
0.0
 30
0.0
 70
     1
  0
VERTEX
  5
18A
  8
VERSION_3$HOLDER-BASE$ENGR
 10
49.74646788445697
 20
-158.3477987584829
 30
0.0
  0
VERTEX
  5
18B
  8
VERSION_3$HOLDER-BASE$ENGR
 10
49.74646788445694
 20
-75.10515675848289
 30
0.0
  0
VERTEX
  5
18C
  8
VERSION_3$HOLDER-BASE$ENGR
 10
104.1735720169871
 20
-75.10515675848288
 30
0.0
  0
VERTEX
  5
18D
  8
VERSION_3$HOLDER-BASE$ENGR
 10
104.1735720169871
 20
-158.3477987584829
 30
0.0
  0
SEQEND
  5
18E
  8
VERSION_3$HOLDER-BASE$ENGR
  0
POLYLINE
  5
18F
  8
VERSION_3$HOLDER-BASE$ENGR
 66
     1
 10
0.0
 20
0.0
 30
0.0
 70
     1
  0
VERTEX
  5
190
  8
VERSION_3$HOLDER-BASE$ENGR
 10
135.7684915620666
 20
96.40128012884313
 30
0.0
  0
VERTEX
  5
191
  8
VERSION_3$HOLDER-BASE$ENGR
 10
203.951680680211
 20
33.79165380396437
 30
0.0
  0
VERTEX
  5
192
  8
VERSION_3$HOLDER-BASE$ENGR
 10
186.2003178667058
 20
14.46004940278815
 30
0.0
  0
VERTEX
  5
193
  8
VERSION_3$HOLDER-BASE$ENGR
 10
118.0171287485613
 20
77.0696757276669
 30
0.0
  0
SEQEND
  5
194
  8
VERSION_3$HOLDER-BASE$ENGR
  0
POLYLINE
  5
195
  8
VERSION_3$HOLDER-BASE$ENGR
 66
     1
 10
0.0
 20
0.0
 30
0.0
 70
     1
  0
VERTEX
  5
196
  8
VERSION_3$HOLDER-BASE$ENGR
 10
113.9839741250502
 20
5.543823195798204
 30
0.0
  0
VERTEX
  5
197
  8
VERSION_3$HOLDER-BASE$ENGR
 10
138.3171741250502
 20
5.543823195798204
 30
0.0
  0
VERTEX
  5
198
  8
VERSION_3$HOLDER-BASE$ENGR
 10
138.3171741250502
 20
43.64382319579821
 30
0.0
  0
VERTEX
  5
199
  8
VERSION_3$HOLDER-BASE$ENGR
 10
113.9839741250502
 20
43.64382319579821
 30
0.0
  0
SEQEND
  5
19A
  8
VERSION_3$HOLDER-BASE$ENGR
  0
POLYLINE
  5
19B
  8
VERSION_3$HOLDER-BASE$CUT
 66
     1
 10
0.0
 20
0.0
 30
0.0
 70
     1
  0
VERTEX
  5
19C
  8
VERSION_3$HOLDER-BASE$CUT
 10
150.8131972936942
 20
-183.677835422713
 30
0.0
 42
-0.3622018054858949
  0
VERTEX
  5
19D
  8
VERSION_3$HOLDER-BASE$CUT
 10
131.1391320653777
 20
-200.0818435717843
 30
0.0
  0
VERTEX
  5
19E
  8
VERSION_3$HOLDER-BASE$CUT
 10
22.59644570353591
 20
-200.0818435717843
 30
0.0
 42
-0.3622018054859516
  0
VERTEX
  5
19F
  8
VERSION_3$HOLDER-BASE$CUT
 10
2.922380475218198
 20
-183.6778354227133
 30
0.0
  0
VERTEX
  5
1A0
  8
VERSION_3$HOLDER-BASE$CUT
 10
2.61430609512484
 20
-182.0877796543691
 30
0.0
  0
VERTEX
  5
1A1
  8
VERSION_3$HOLDER-BASE$CUT
 10
2.275635297353283
 20
-180.5212333414516
 30
0.0
  0
VERTEX
  5
1A2
  8
VERSION_3$HOLDER-BASE$CUT
 10
1.906368081903525
 20
-178.978196483961
 30
0.0
  0
VERTEX
  5
1A3
  8
VERSION_3$HOLDER-BASE$CUT
 10
1.506504448775568
 20
-177.4586690818971
 30
0.0
  0
VERTEX
  5
1A4
  8
VERSION_3$HOLDER-BASE$CUT
 10
1.076044397969412
 20
-175.9626511352599
 30
0.0
  0
VERTEX
  5
1A5
  8
VERSION_3$HOLDER-BASE$CUT
 10
0.6149879294850553
 20
-174.4901426440496
 30
0.0
  0
VERTEX
  5
1A6
  8
VERSION_3$HOLDER-BASE$CUT
 10
0.1233350433224994
 20
-173.0411436082659
 30
0.0
  0
VERTEX
  5
1A7
  8
VERSION_3$HOLDER-BASE$CUT
 10
-0.3989142605182563
 20
-171.6156540279091
 30
0.0
  0
VERTEX
  5
1A8
  8
VERSION_3$HOLDER-BASE$CUT
 10
-0.9517599820372117
 20
-170.213673902979
 30
0.0
  0
VERTEX
  5
1A9
  8
VERSION_3$HOLDER-BASE$CUT
 10
-1.535202121234367
 20
-168.8352032334756
 30
0.0
  0
VERTEX
  5
1AA
  8
VERSION_3$HOLDER-BASE$CUT
 10
-2.149240678109722
 20
-167.480242019399
 30
0.0
  0
VERTEX
  5
1AB
  8
VERSION_3$HOLDER-BASE$CUT
 10
-2.793875652663276
 20
-166.1487902607492
 30
0.0
  0
VERTEX
  5
1AC
  8
VERSION_3$HOLDER-BASE$CUT
 10
-3.469107044895031
 20
-164.8408479575261
 30
0.0
  0
VERTEX
  5
1AD
  8
VERSION_3$HOLDER-BASE$CUT
 10
-4.174934854804984
 20
-163.5564151097298
 30
0.0
  0
VERTEX
  5
1AE
  8
VERSION_3$HOLDER-BASE$CUT
 10
-4.911359082393139
 20
-162.2954917173602
 30
0.0
  0
VERTEX
  5
1AF
  8
VERSION_3$HOLDER-BASE$CUT
 10
-5.678379727659491
 20
-161.0580777804174
 30
0.0
  0
VERTEX
  5
1B0
  8
VERSION_3$HOLDER-BASE$CUT
 10
-6.475996790604045
 20
-159.8441732989013
 30
0.0
  0
VERTEX
  5
1B1
  8
VERSION_3$HOLDER-BASE$CUT
 10
-7.304210271226798
 20
-158.653778272812
 30
0.0
  0
VERTEX
  5
1B2
  8
VERSION_3$HOLDER-BASE$CUT
 10
-8.163020169527751
 20
-157.4868927021494
 30
0.0
  0
VERTEX
  5
1B3
  8
VERSION_3$HOLDER-BASE$CUT
 10
-9.052426485506903
 20
-156.3435165869137
 30
0.0
  0
VERTEX
  5
1B4
  8
VERSION_3$HOLDER-BASE$CUT
 10
-9.972429219164255
 20
-155.2236499271046
 30
0.0
  0
VERTEX
  5
1B5
  8
VERSION_3$HOLDER-BASE$CUT
 10
-10.92302837049981
 20
-154.1272927227224
 30
0.0
  0
VERTEX
  5
1B6
  8
VERSION_3$HOLDER-BASE$CUT
 10
-11.90422393951356
 20
-153.0544449737668
 30
0.0
  0
VERTEX
  5
1B7
  8
VERSION_3$HOLDER-BASE$CUT
 10
-12.91601592620551
 20
-152.005106680238
 30
0.0
  0
VERTEX
  5
1B8
  8
VERSION_3$HOLDER-BASE$CUT
 10
-13.95840433057566
 20
-150.979277842136
 30
0.0
  0
VERTEX
  5
1B9
  8
VERSION_3$HOLDER-BASE$CUT
 10
-15.03138915262401
 20
-149.9769584594608
 30
0.0
  0
VERTEX
  5
1BA
  8
VERSION_3$HOLDER-BASE$CUT
 10
-16.13497039235056
 20
-148.9981485322123
 30
0.0
  0
VERTEX
  5
1BB
  8
VERSION_3$HOLDER-BASE$CUT
 10
-17.26914804975531
 20
-148.0428480603906
 30
0.0
  0
VERTEX
  5
1BC
  8
VERSION_3$HOLDER-BASE$CUT
 10
-18.43392212483826
 20
-147.1110570439956
 30
0.0
  0
VERTEX
  5
1BD
  8
VERSION_3$HOLDER-BASE$CUT
 10
-19.62929261759941
 20
-146.2027754830274
 30
0.0
  0
VERTEX
  5
1BE
  8
VERSION_3$HOLDER-BASE$CUT
 10
-20.85525952803876
 20
-145.3180033774859
 30
0.0
  0
VERTEX
  5
1BF
  8
VERSION_3$HOLDER-BASE$CUT
 10
-22.11182285615631
 20
-144.4567407273712
 30
0.0
  0
VERTEX
  5
1C0
  8
VERSION_3$HOLDER-BASE$CUT
 10
-23.39898260195205
 20
-143.6189875326832
 30
0.0
  0
VERTEX
  5
1C1
  8
VERSION_3$HOLDER-BASE$CUT
 10
-24.716738765426
 20
-142.804743793422
 30
0.0
  0
VERTEX
  5
1C2
  8
VERSION_3$HOLDER-BASE$CUT
 10
-26.06509134657815
 20
-142.0140095095875
 30
0.0
  0
VERTEX
  5
1C3
  8
VERSION_3$HOLDER-BASE$CUT
 10
-27.4440403454085
 20
-141.2467846811799
 30
0.0
  0
VERTEX
  5
1C4
  8
VERSION_3$HOLDER-BASE$CUT
 10
-28.85358576191705
 20
-140.5030693081989
 30
0.0
  0
VERTEX
  5
1C5
  8
VERSION_3$HOLDER-BASE$CUT
 10
-30.29372759610379
 20
-139.7828633906448
 30
0.0
  0
VERTEX
  5
1C6
  8
VERSION_3$HOLDER-BASE$CUT
 10
-31.76446584796874
 20
-139.0861669285173
 30
0.0
  0
VERTEX
  5
1C7
  8
VERSION_3$HOLDER-BASE$CUT
 10
-33.26580051751188
 20
-138.4129799218167
 30
0.0
  0
VERTEX
  5
1C8
  8
VERSION_3$HOLDER-BASE$CUT
 10
-34.79773160473323
 20
-137.7633023705428
 30
0.0
  0
VERTEX
  5
1C9
  8
VERSION_3$HOLDER-BASE$CUT
 10
-36.36025910963278
 20
-137.1371342746957
 30
0.0
  0
VERTEX
  5
1CA
  8
VERSION_3$HOLDER-BASE$CUT
 10
-37.95338303221052
 20
-136.5344756342753
 30
0.0
  0
VERTEX
  5
1CB
  8
VERSION_3$HOLDER-BASE$CUT
 10
-39.57710337246647
 20
-135.9553264492816
 30
0.0
  0
VERTEX
  5
1CC
  8
VERSION_3$HOLDER-BASE$CUT
 10
-41.23142013040061
 20
-135.3996867197148
 30
0.0
  0
VERTEX
  5
1CD
  8
VERSION_3$HOLDER-BASE$CUT
 10
-42.91633330601296
 20
-134.8675564455747
 30
0.0
  0
VERTEX
  5
1CE
  8
VERSION_3$HOLDER-BASE$CUT
 10
-46.37794891027225
 20
-133.8738242635747
 30
0.0
  0
VERTEX
  5
1CF
  8
VERSION_3$HOLDER-BASE$CUT
 10
-49.96195018524433
 20
-132.9741299032818
 30
0.0
  0
VERTEX
  5
1D0
  8
VERSION_3$HOLDER-BASE$CUT
 10
-53.66833713092922
 20
-132.1684733646959
 30
0.0
  0
VERTEX
  5
1D1
  8
VERSION_3$HOLDER-BASE$CUT
 10
-57.4971097473269
 20
-131.456854647817
 30
0.0
  0
VERTEX
  5
1D2
  8
VERSION_3$HOLDER-BASE$CUT
 10
-61.44826803443739
 20
-130.8392737526452
 30
0.0
  0
VERTEX
  5
1D3
  8
VERSION_3$HOLDER-BASE$CUT
 10
-65.52181199226067
 20
-130.3157306791804
 30
0.0
  0
VERTEX
  5
1D4
  8
VERSION_3$HOLDER-BASE$CUT
 10
-69.71774162079674
 20
-129.8862254274226
 30
0.0
  0
VERTEX
  5
1D5
  8
VERSION_3$HOLDER-BASE$CUT
 10
-74.03605692004562
 20
-129.5507579973718
 30
0.0
  0
VERTEX
  5
1D6
  8
VERSION_3$HOLDER-BASE$CUT
 10
-78.4767578900073
 20
-129.3093283890281
 30
0.0
 42
-0.4016288586933686
  0
VERTEX
  5
1D7
  8
VERSION_3$HOLDER-BASE$CUT
 10
-88.04531963865209
 20
-119.3186396722645
 30
0.0
  0
VERTEX
  5
1D8
  8
VERSION_3$HOLDER-BASE$CUT
 10
-88.0453196386521
 20
4.008100734922343
 30
0.0
 42
-0.0697964263683044
  0
VERTEX
  5
1D9
  8
VERSION_3$HOLDER-BASE$CUT
 10
-87.27341213440485
 20
9.51086903594883
 30
0.0
 42
-0.2191998893363103
  0
VERTEX
  5
1DA
  8
VERSION_3$HOLDER-BASE$CUT
 10
5.863658221478474
 20
117.801754939502
 30
0.0
 42
-0.107641530205815
  0
VERTEX
  5
1DB
  8
VERSION_3$HOLDER-BASE$CUT
 10
14.1813382645975
 20
119.6134015588276
 30
0.0
  0
VERTEX
  5
1DC
  8
VERSION_3$HOLDER-BASE$CUT
 10
111.1615423718674
 20
119.6134015588276
 30
0.0
 42
-0.1879864947025689
  0
VERTEX
  5
1DD
  8
VERSION_3$HOLDER-BASE$CUT
 10
124.6955466901534
 20
114.3385748044168
 30
0.0
  0
VERTEX
  5
1DE
  8
VERSION_3$HOLDER-BASE$CUT
 10
238.5478995667094
 20
9.69612274093927
 30
0.0
 42
-0.2098841145825552
  0
VERTEX
  5
1DF
  8
VERSION_3$HOLDER-BASE$CUT
 10
241.7808974075673
 20
2.333536118146211
 30
0.0
  0
VERTEX
  5
1E0
  8
VERSION_3$HOLDER-BASE$CUT
 10
241.780897407566
 20
-119.3186396722645
 30
0.0
 42
-0.4016288586933873
  0
VERTEX
  5
1E1
  8
VERSION_3$HOLDER-BASE$CUT
 10
232.2123356589209
 20
-129.3093283890281
 30
0.0
  0
VERTEX
  5
1E2
  8
VERSION_3$HOLDER-BASE$CUT
 10
227.7716346889592
 20
-129.5507579973719
 30
0.0
  0
VERTEX
  5
1E3
  8
VERSION_3$HOLDER-BASE$CUT
 10
223.4533193897103
 20
-129.8862254274226
 30
0.0
  0
VERTEX
  5
1E4
  8
VERSION_3$HOLDER-BASE$CUT
 10
219.2573897611742
 20
-130.3157306791804
 30
0.0
  0
VERTEX
  5
1E5
  8
VERSION_3$HOLDER-BASE$CUT
 10
215.1838458033509
 20
-130.8392737526452
 30
0.0
  0
VERTEX
  5
1E6
  8
VERSION_3$HOLDER-BASE$CUT
 10
211.2326875162404
 20
-131.4568546478171
 30
0.0
  0
VERTEX
  5
1E7
  8
VERSION_3$HOLDER-BASE$CUT
 10
207.4039148998428
 20
-132.1684733646959
 30
0.0
  0
VERTEX
  5
1E8
  8
VERSION_3$HOLDER-BASE$CUT
 10
203.6975279541579
 20
-132.9741299032818
 30
0.0
  0
VERTEX
  5
1E9
  8
VERSION_3$HOLDER-BASE$CUT
 10
200.1135266791858
 20
-133.8738242635748
 30
0.0
  0
VERTEX
  5
1EA
  8
VERSION_3$HOLDER-BASE$CUT
 10
196.6519110749265
 20
-134.8675564455747
 30
0.0
  0
VERTEX
  5
1EB
  8
VERSION_3$HOLDER-BASE$CUT
 10
194.9669978993141
 20
-135.3996867197149
 30
0.0
  0
VERTEX
  5
1EC
  8
VERSION_3$HOLDER-BASE$CUT
 10
193.3126811413799
 20
-135.9553264492817
 30
0.0
  0
VERTEX
  5
1ED
  8
VERSION_3$HOLDER-BASE$CUT
 10
191.688960801124
 20
-136.5344756342753
 30
0.0
  0
VERTEX
  5
1EE
  8
VERSION_3$HOLDER-BASE$CUT
 10
190.0958368785462
 20
-137.1371342746957
 30
0.0
  0
VERTEX
  5
1EF
  8
VERSION_3$HOLDER-BASE$CUT
 10
188.5333093736467
 20
-137.7633023705428
 30
0.0
  0
VERTEX
  5
1F0
  8
VERSION_3$HOLDER-BASE$CUT
 10
187.0013782864253
 20
-138.4129799218167
 30
0.0
  0
VERTEX
  5
1F1
  8
VERSION_3$HOLDER-BASE$CUT
 10
185.5000436168822
 20
-139.0861669285173
 30
0.0
  0
VERTEX
  5
1F2
  8
VERSION_3$HOLDER-BASE$CUT
 10
184.0293053650172
 20
-139.7828633906448
 30
0.0
  0
VERTEX
  5
1F3
  8
VERSION_3$HOLDER-BASE$CUT
 10
182.5891635308304
 20
-140.5030693081989
 30
0.0
  0
VERTEX
  5
1F4
  8
VERSION_3$HOLDER-BASE$CUT
 10
181.1796181143219
 20
-141.2467846811799
 30
0.0
  0
VERTEX
  5
1F5
  8
VERSION_3$HOLDER-BASE$CUT
 10
179.8006691154915
 20
-142.0140095095875
 30
0.0
  0
VERTEX
  5
1F6
  8
VERSION_3$HOLDER-BASE$CUT
 10
178.4523165343393
 20
-142.804743793422
 30
0.0
  0
VERTEX
  5
1F7
  8
VERSION_3$HOLDER-BASE$CUT
 10
177.1345603708654
 20
-143.6189875326832
 30
0.0
  0
VERTEX
  5
1F8
  8
VERSION_3$HOLDER-BASE$CUT
 10
175.8474006250696
 20
-144.4567407273711
 30
0.0
  0
VERTEX
  5
1F9
  8
VERSION_3$HOLDER-BASE$CUT
 10
174.5908372969521
 20
-145.3180033774859
 30
0.0
  0
VERTEX
  5
1FA
  8
VERSION_3$HOLDER-BASE$CUT
 10
173.3648703865127
 20
-146.2027754830273
 30
0.0
  0
VERTEX
  5
1FB
  8
VERSION_3$HOLDER-BASE$CUT
 10
172.1694998937515
 20
-147.1110570439955
 30
0.0
  0
VERTEX
  5
1FC
  8
VERSION_3$HOLDER-BASE$CUT
 10
171.0047258186685
 20
-148.0428480603905
 30
0.0
  0
VERTEX
  5
1FD
  8
VERSION_3$HOLDER-BASE$CUT
 10
169.8705481612638
 20
-148.9981485322122
 30
0.0
  0
VERTEX
  5
1FE
  8
VERSION_3$HOLDER-BASE$CUT
 10
168.7669669215372
 20
-149.9769584594607
 30
0.0
  0
VERTEX
  5
1FF
  8
VERSION_3$HOLDER-BASE$CUT
 10
167.6939820994888
 20
-150.979277842136
 30
0.0
  0
VERTEX
  5
200
  8
VERSION_3$HOLDER-BASE$CUT
 10
166.6515936951187
 20
-152.005106680238
 30
0.0
  0
VERTEX
  5
201
  8
VERSION_3$HOLDER-BASE$CUT
 10
165.6398017084267
 20
-153.0544449737667
 30
0.0
  0
VERTEX
  5
202
  8
VERSION_3$HOLDER-BASE$CUT
 10
164.6586061394129
 20
-154.1272927227222
 30
0.0
  0
VERTEX
  5
203
  8
VERSION_3$HOLDER-BASE$CUT
 10
163.7080069880773
 20
-155.2236499271045
 30
0.0
  0
VERTEX
  5
204
  8
VERSION_3$HOLDER-BASE$CUT
 10
162.7880042544199
 20
-156.3435165869136
 30
0.0
  0
VERTEX
  5
205
  8
VERSION_3$HOLDER-BASE$CUT
 10
161.8985979384408
 20
-157.4868927021493
 30
0.0
  0
VERTEX
  5
206
  8
VERSION_3$HOLDER-BASE$CUT
 10
161.0397880401398
 20
-158.6537782728118
 30
0.0
  0
VERTEX
  5
207
  8
VERSION_3$HOLDER-BASE$CUT
 10
160.211574559517
 20
-159.8441732989012
 30
0.0
  0
VERTEX
  5
208
  8
VERSION_3$HOLDER-BASE$CUT
 10
159.4139574965724
 20
-161.0580777804172
 30
0.0
  0
VERTEX
  5
209
  8
VERSION_3$HOLDER-BASE$CUT
 10
158.6469368513061
 20
-162.2954917173601
 30
0.0
  0
VERTEX
  5
20A
  8
VERSION_3$HOLDER-BASE$CUT
 10
157.9105126237179
 20
-163.5564151097296
 30
0.0
  0
VERTEX
  5
20B
  8
VERSION_3$HOLDER-BASE$CUT
 10
157.2046848138079
 20
-164.8408479575259
 30
0.0
  0
VERTEX
  5
20C
  8
VERSION_3$HOLDER-BASE$CUT
 10
156.5294534215761
 20
-166.148790260749
 30
0.0
  0
VERTEX
  5
20D
  8
VERSION_3$HOLDER-BASE$CUT
 10
155.8848184470226
 20
-167.4802420193989
 30
0.0
  0
VERTEX
  5
20E
  8
VERSION_3$HOLDER-BASE$CUT
 10
155.2707798901471
 20
-168.8352032334755
 30
0.0
  0
VERTEX
  5
20F
  8
VERSION_3$HOLDER-BASE$CUT
 10
154.68733775095
 20
-170.2136739029788
 30
0.0
  0
VERTEX
  5
210
  8
VERSION_3$HOLDER-BASE$CUT
 10
154.134492029431
 20
-171.6156540279089
 30
0.0
  0
VERTEX
  5
211
  8
VERSION_3$HOLDER-BASE$CUT
 10
153.6122427255902
 20
-173.0411436082658
 30
0.0
  0
VERTEX
  5
212
  8
VERSION_3$HOLDER-BASE$CUT
 10
153.1205898394276
 20
-174.4901426440494
 30
0.0
  0
VERTEX
  5
213
  8
VERSION_3$HOLDER-BASE$CUT
 10
152.6595333709432
 20
-175.9626511352598
 30
0.0
  0
VERTEX
  5
214
  8
VERSION_3$HOLDER-BASE$CUT
 10
152.229073320137
 20
-177.4586690818969
 30
0.0
  0
VERTEX
  5
215
  8
VERSION_3$HOLDER-BASE$CUT
 10
151.829209687009
 20
-178.9781964839608
 30
0.0
  0
VERTEX
  5
216
  8
VERSION_3$HOLDER-BASE$CUT
 10
151.4599424715592
 20
-180.5212333414515
 30
0.0
  0
VERTEX
  5
217
  8
VERSION_3$HOLDER-BASE$CUT
 10
151.1212716737876
 20
-182.0877796543689
 30
0.0
  0
SEQEND
  5
218
  8
VERSION_3$HOLDER-BASE$CUT
  0
POLYLINE
  5
219
  8
VERSION_3$HOLDER-BASE$ENGR
 66
     1
 10
0.0
 20
0.0
 30
0.0
 70
     1
  0
VERTEX
  5
21A
  8
VERSION_3$HOLDER-BASE$ENGR
 10
241.780897407566
 20
0.9577693337878799
 30
0.0
  0
VERTEX
  5
21B
  8
VERSION_3$HOLDER-BASE$ENGR
 10
231.2785228585782
 20
0.9577693337878799
 30
0.0
  0
VERTEX
  5
21C
  8
VERSION_3$HOLDER-BASE$ENGR
 10
164.2191025924342
 20
-9.54223066621212
 30
0.0
  0
VERTEX
  5
21D
  8
VERSION_3$HOLDER-BASE$ENGR
 10
164.2191025924342
 20
-112.5422306662121
 30
0.0
  0
VERTEX
  5
21E
  8
VERSION_3$HOLDER-BASE$ENGR
 10
231.2785228585783
 20
-123.0422306662121
 30
0.0
  0
VERTEX
  5
21F
  8
VERSION_3$HOLDER-BASE$ENGR
 10
241.780897407566
 20
-123.0422306662121
 30
0.0
  0
SEQEND
  5
220
  8
VERSION_3$HOLDER-BASE$ENGR
  0
POLYLINE
  5
221
  8
VERSION_3$HOLDER-BASE$ENGR
 66
     1
 10
0.0
 20
0.0
 30
0.0
 70
     1
  0
VERTEX
  5
222
  8
VERSION_3$HOLDER-BASE$ENGR
 10
-88.04531963865207
 20
0.9577693337878799
 30
0.0
  0
VERTEX
  5
223
  8
VERSION_3$HOLDER-BASE$ENGR
 10
-77.54294508966433
 20
0.9577693337878799
 30
0.0
  0
VERTEX
  5
224
  8
VERSION_3$HOLDER-BASE$ENGR
 10
-10.48352482352027
 20
-9.54223066621212
 30
0.0
  0
VERTEX
  5
225
  8
VERSION_3$HOLDER-BASE$ENGR
 10
-10.48352482352033
 20
-112.5422306662121
 30
0.0
  0
VERTEX
  5
226
  8
VERSION_3$HOLDER-BASE$ENGR
 10
-77.54294508966436
 20
-123.0422306662121
 30
0.0
  0
VERTEX
  5
227
  8
VERSION_3$HOLDER-BASE$ENGR
 10
-88.04531963865213
 20
-123.0422306662121
 30
0.0
  0
SEQEND
  5
228
  8
VERSION_3$HOLDER-BASE$ENGR
  0
POLYLINE
  5
229
  8
VERSION_3$HOLDER-BASE$ENGR
 66
     1
 10
0.0
 20
0.0
 30
0.0
 70
     1
  0
VERTEX
  5
22A
  8
VERSION_3$HOLDER-BASE$ENGR
 10
84.65180200325467
 20
-45.83849304982879
 30
0.0
  0
VERTEX
  5
22B
  8
VERSION_3$HOLDER-BASE$ENGR
 10
148.0910387787285
 20
-45.83849304982879
 30
0.0
  0
VERTEX
  5
22C
  8
VERSION_3$HOLDER-BASE$ENGR
 10
148.0910387787285
 20
-17.99152486035024
 30
0.0
  0
VERTEX
  5
22D
  8
VERSION_3$HOLDER-BASE$ENGR
 10
84.65180200325467
 20
-17.99152486035024
 30
0.0
  0
SEQEND
  5
22E
  8
VERSION_3$HOLDER-BASE$ENGR
  0
POLYLINE
  5
22F
  8
VERSION_3$HOLDER-BASE$ENGR
 66
     1
 10
0.0
 20
0.0
 30
0.0
 70
     1
  0
VERTEX
  5
230
  8
VERSION_3$HOLDER-BASE$ENGR
 10
47.50528888445696
 20
79.07340155882756
 30
0.0
  0
VERTEX
  5
231
  8
VERSION_3$HOLDER-BASE$ENGR
 10
106.230288884457
 20
79.07340155882756
 30
0.0
  0
VERTEX
  5
232
  8
VERSION_3$HOLDER-BASE$ENGR
 10
106.230288884457
 20
114.6134015588275
 30
0.0
  0
VERTEX
  5
233
  8
VERSION_3$HOLDER-BASE$ENGR
 10
47.50528888445696
 20
114.6134015588275
 30
0.0
  0
SEQEND
  5
234
  8
VERSION_3$HOLDER-BASE$ENGR
  0
POLYLINE
  5
235
  8
VERSION_3$HOLDER-BASE$ENGR
 66
     1
 10
0.0
 20
0.0
 30
0.0
 70
     1
  0
VERTEX
  5
236
  8
VERSION_3$HOLDER-BASE$ENGR
 10
56.39528888445696
 20
11.23574855581276
 30
0.0
  0
VERTEX
  5
237
  8
VERSION_3$HOLDER-BASE$ENGR
 10
97.34028888445695
 20
11.23574855581276
 30
0.0
  0
VERTEX
  5
238
  8
VERSION_3$HOLDER-BASE$ENGR
 10
97.34028888445695
 20
70.91574855581277
 30
0.0
  0
VERTEX
  5
239
  8
VERSION_3$HOLDER-BASE$ENGR
 10
56.39528888445696
 20
70.91574855581277
 30
0.0
  0
SEQEND
  5
23A
  8
VERSION_3$HOLDER-BASE$ENGR
  0
POLYLINE
  5
23B
  8
VERSION_3$HOLDER-BASE$HOLE
 66
     1
 10
0.0
 20
0.0
 30
0.0
 70
     1
  0
VERTEX
  5
23C
  8
VERSION_3$HOLDER-BASE$HOLE
 10
-41.21899787221597
 20
36.48406289657102
 30
0.0
 42
0.3072336516524399
  0
VERTEX
  5
23D
  8
VERSION_3$HOLDER-BASE$HOLE
 10
-35.26372144692426
 20
42.43933932186143
 30
0.0
 42
-0.3072336516523924
  0
VERTEX
  5
23E
  8
VERSION_3$HOLDER-BASE$HOLE
 10
-22.12711478017725
 20
55.5759459886072
 30
0.0
 42
0.3072336516524076
  0
VERTEX
  5
23F
  8
VERSION_3$HOLDER-BASE$HOLE
 10
-16.17183835488677
 20
61.53122241389733
 30
0.0
 42
-0.3072336516523866
  0
VERTEX
  5
240
  8
VERSION_3$HOLDER-BASE$HOLE
 10
-3.035231688139755
 20
74.66782908064286
 30
0.0
 42
0.3072336516524139
  0
VERTEX
  5
241
  8
VERSION_3$HOLDER-BASE$HOLE
 10
2.92004473715075
 20
80.62310550593324
 30
0.0
 42
-1.886976257969866
  0
VERTEX
  5
242
  8
VERSION_3$HOLDER-BASE$HOLE
 10
22.28089475877042
 20
61.26225548431191
 30
0.0
 42
0.3072336516523897
  0
VERTEX
  5
243
  8
VERSION_3$HOLDER-BASE$HOLE
 10
16.32561833347966
 20
55.30697905902191
 30
0.0
 42
-0.3072336516523917
  0
VERTEX
  5
244
  8
VERSION_3$HOLDER-BASE$HOLE
 10
3.18901166673266
 20
42.17037239227619
 30
0.0
 42
0.307233651652381
  0
VERTEX
  5
245
  8
VERSION_3$HOLDER-BASE$HOLE
 10
-2.766264758558052
 20
36.21509596698603
 30
0.0
 42
-0.3072336516523893
  0
VERTEX
  5
246
  8
VERSION_3$HOLDER-BASE$HOLE
 10
-15.90287142530508
 20
23.0784893002405
 30
0.0
 42
0.3072336516523566
  0
VERTEX
  5
247
  8
VERSION_3$HOLDER-BASE$HOLE
 10
-21.85814785059609
 20
17.12321287495008
 30
0.0
 42
-1.886976257969717
  0
SEQEND
  5
248
  8
VERSION_3$HOLDER-BASE$HOLE
  0
POLYLINE
  5
249
  8
VERSION_3$HOLDER-BASE$HOLE
 66
     1
 10
0.0
 20
0.0
 30
0.0
 70
     1
  0
VERTEX
  5
24A
  8
VERSION_3$HOLDER-BASE$HOLE
 10
-9.289860347122385
 20
-76.75419704567237
 30
0.0
  0
VERTEX
  5
24B
  8
VERSION_3$HOLDER-BASE$HOLE
 10
-7.510219767296057
 20
-78.07100492128401
 30
0.0
  0
VERTEX
  5
24C
  8
VERSION_3$HOLDER-BASE$HOLE
 10
-5.845394683085576
 20
-79.38781279873524
 30
0.0
  0
VERTEX
  5
24D
  8
VERSION_3$HOLDER-BASE$HOLE
 10
-5.056037952638256
 20
-80.04621673872555
 30
0.0
  0
VERTEX
  5
24E
  8
VERSION_3$HOLDER-BASE$HOLE
 10
-4.29538509705727
 20
-80.7046206798656
 30
0.0
  0
VERTEX
  5
24F
  8
VERSION_3$HOLDER-BASE$HOLE
 10
-3.56343611666341
 20
-81.3630246223853
 30
0.0
  0
VERTEX
  5
250
  8
VERSION_3$HOLDER-BASE$HOLE
 10
-2.860191011777466
 20
-82.02142856651461
 30
0.0
  0
VERTEX
  5
251
  8
VERSION_3$HOLDER-BASE$HOLE
 10
-2.185649782720229
 20
-82.6798325124835
 30
0.0
  0
VERTEX
  5
252
  8
VERSION_3$HOLDER-BASE$HOLE
 10
-1.53981242981249
 20
-83.33823646052188
 30
0.0
  0
VERTEX
  5
253
  8
VERSION_3$HOLDER-BASE$HOLE
 10
-0.9226789533750394
 20
-83.99664041085973
 30
0.0
  0
VERTEX
  5
254
  8
VERSION_3$HOLDER-BASE$HOLE
 10
-0.3342493537286689
 20
-84.65504436372694
 30
0.0
  0
VERTEX
  5
255
  8
VERSION_3$HOLDER-BASE$HOLE
 10
0.2254763688058311
 20
-85.31344831935351
 30
0.0
  0
VERTEX
  5
256
  8
VERSION_3$HOLDER-BASE$HOLE
 10
0.7564982139076697
 20
-85.97185227796936
 30
0.0
  0
VERTEX
  5
257
  8
VERSION_3$HOLDER-BASE$HOLE
 10
1.258816181256056
 20
-86.63025623980444
 30
0.0
  0
VERTEX
  5
258
  8
VERSION_3$HOLDER-BASE$HOLE
 10
1.732430270530199
 20
-87.28866020508869
 30
0.0
  0
VERTEX
  5
259
  8
VERSION_3$HOLDER-BASE$HOLE
 10
2.177340481409308
 20
-87.94706417405206
 30
0.0
  0
VERTEX
  5
25A
  8
VERSION_3$HOLDER-BASE$HOLE
 10
2.593546813572592
 20
-88.60546814692451
 30
0.0
  0
VERTEX
  5
25B
  8
VERSION_3$HOLDER-BASE$HOLE
 10
2.981049266699261
 20
-89.26387212393595
 30
0.0
  0
VERTEX
  5
25C
  8
VERSION_3$HOLDER-BASE$HOLE
 10
3.339847840468522
 20
-89.92227610531636
 30
0.0
  0
VERTEX
  5
25D
  8
VERSION_3$HOLDER-BASE$HOLE
 10
3.669942534559587
 20
-90.58068009129566
 30
0.0
  0
VERTEX
  5
25E
  8
VERSION_3$HOLDER-BASE$HOLE
 10
3.824225926625547
 20
-90.90988208608175
 30
0.0
  0
VERTEX
  5
25F
  8
VERSION_3$HOLDER-BASE$HOLE
 10
3.971333348651662
 20
-91.2390840821038
 30
0.0
  0
VERTEX
  5
260
  8
VERSION_3$HOLDER-BASE$HOLE
 10
4.111264800597834
 20
-91.56828607939056
 30
0.0
  0
VERTEX
  5
261
  8
VERSION_3$HOLDER-BASE$HOLE
 10
4.244020282423959
 20
-91.89748807797073
 30
0.0
  0
VERTEX
  5
262
  8
VERSION_3$HOLDER-BASE$HOLE
 10
4.369599794089943
 20
-92.22669007787312
 30
0.0
  0
VERTEX
  5
263
  8
VERSION_3$HOLDER-BASE$HOLE
 10
4.488003335555685
 20
-92.55589207912641
 30
0.0
  0
VERTEX
  5
264
  8
VERSION_3$HOLDER-BASE$HOLE
 10
4.599230906781088
 20
-92.88509408175938
 30
0.0
  0
VERTEX
  5
265
  8
VERSION_3$HOLDER-BASE$HOLE
 10
4.703282507726051
 20
-93.21429608580075
 30
0.0
  0
VERTEX
  5
266
  8
VERSION_3$HOLDER-BASE$HOLE
 10
4.800158138350476
 20
-93.5434980912793
 30
0.0
  0
VERTEX
  5
267
  8
VERSION_3$HOLDER-BASE$HOLE
 10
4.889857798614265
 20
-93.87270009822373
 30
0.0
  0
VERTEX
  5
268
  8
VERSION_3$HOLDER-BASE$HOLE
 10
4.972381488477318
 20
-94.20190210666281
 30
0.0
  0
VERTEX
  5
269
  8
VERSION_3$HOLDER-BASE$HOLE
 10
5.047729207899536
 20
-94.53110411662527
 30
0.0
  0
VERTEX
  5
26A
  8
VERSION_3$HOLDER-BASE$HOLE
 10
5.115900956840822
 20
-94.86030612813987
 30
0.0
  0
VERTEX
  5
26B
  8
VERSION_3$HOLDER-BASE$HOLE
 10
5.176896735261074
 20
-95.18950814123532
 30
0.0
  0
VERTEX
  5
26C
  8
VERSION_3$HOLDER-BASE$HOLE
 10
5.230716543120196
 20
-95.5187101559404
 30
0.0
  0
VERTEX
  5
26D
  8
VERSION_3$HOLDER-BASE$HOLE
 10
5.277360380378087
 20
-95.84791217228383
 30
0.0
  0
VERTEX
  5
26E
  8
VERSION_3$HOLDER-BASE$HOLE
 10
5.31682824699465
 20
-96.17711419029436
 30
0.0
  0
VERTEX
  5
26F
  8
VERSION_3$HOLDER-BASE$HOLE
 10
5.349120142929785
 20
-96.50631621000075
 30
0.0
  0
VERTEX
  5
270
  8
VERSION_3$HOLDER-BASE$HOLE
 10
5.374236068143394
 20
-96.83551823143172
 30
0.0
  0
VERTEX
  5
271
  8
VERSION_3$HOLDER-BASE$HOLE
 10
5.392176022595377
 20
-97.16472025461601
 30
0.0
  0
VERTEX
  5
272
  8
VERSION_3$HOLDER-BASE$HOLE
 10
5.402940006245636
 20
-97.49392227958239
 30
0.0
  0
VERTEX
  5
273
  8
VERSION_3$HOLDER-BASE$HOLE
 10
5.406528019054072
 20
-97.82312430635957
 30
0.0
  0
VERTEX
  5
274
  8
VERSION_3$HOLDER-BASE$HOLE
 10
5.402940060980585
 20
-98.15232633497632
 30
0.0
  0
VERTEX
  5
275
  8
VERSION_3$HOLDER-BASE$HOLE
 10
5.392176131985078
 20
-98.48152836546137
 30
0.0
  0
VERTEX
  5
276
  8
VERSION_3$HOLDER-BASE$HOLE
 10
5.374236232027451
 20
-98.81073039784349
 30
0.0
  0
VERTEX
  5
277
  8
VERSION_3$HOLDER-BASE$HOLE
 10
5.349120361067606
 20
-99.13993243215137
 30
0.0
  0
VERTEX
  5
278
  8
VERSION_3$HOLDER-BASE$HOLE
 10
5.316828519065444
 20
-99.46913446841378
 30
0.0
  0
VERTEX
  5
279
  8
VERSION_3$HOLDER-BASE$HOLE
 10
5.277360705980865
 20
-99.79833650665947
 30
0.0
  0
VERTEX
  5
27A
  8
VERSION_3$HOLDER-BASE$HOLE
 10
5.23071692177377
 20
-100.1275385469172
 30
0.0
  0
VERTEX
  5
27B
  8
VERSION_3$HOLDER-BASE$HOLE
 10
5.176897166404062
 20
-100.4567405892157
 30
0.0
  0
VERTEX
  5
27C
  8
VERSION_3$HOLDER-BASE$HOLE
 10
5.115901439831642
 20
-100.7859426335836
 30
0.0
  0
VERTEX
  5
27D
  8
VERSION_3$HOLDER-BASE$HOLE
 10
5.04772974201641
 20
-101.1151446800499
 30
0.0
  0
VERTEX
  5
27E
  8
VERSION_3$HOLDER-BASE$HOLE
 10
4.972382072918267
 20
-101.4443467286431
 30
0.0
  0
VERTEX
  5
27F
  8
VERSION_3$HOLDER-BASE$HOLE
 10
4.889858432497114
 20
-101.773548779392
 30
0.0
  0
VERTEX
  5
280
  8
VERSION_3$HOLDER-BASE$HOLE
 10
4.800158820712853
 20
-102.1027508323255
 30
0.0
  0
VERTEX
  5
281
  8
VERSION_3$HOLDER-BASE$HOLE
 10
4.703283237525385
 20
-102.4319528874721
 30
0.0
  0
VERTEX
  5
282
  8
VERSION_3$HOLDER-BASE$HOLE
 10
4.599231682894611
 20
-102.7611549448607
 30
0.0
  0
VERTEX
  5
283
  8
VERSION_3$HOLDER-BASE$HOLE
 10
4.488004156780432
 20
-103.09035700452
 30
0.0
  0
VERTEX
  5
284
  8
VERSION_3$HOLDER-BASE$HOLE
 10
4.36960065914275
 20
-103.4195590664788
 30
0.0
  0
VERTEX
  5
285
  8
VERSION_3$HOLDER-BASE$HOLE
 10
4.244021189941465
 20
-103.7487611307658
 30
0.0
  0
VERTEX
  5
286
  8
VERSION_3$HOLDER-BASE$HOLE
 10
4.111265749136479
 20
-104.0779631974097
 30
0.0
  0
VERTEX
  5
287
  8
VERSION_3$HOLDER-BASE$HOLE
 10
3.971334336687692
 20
-104.4071652664393
 30
0.0
  0
VERTEX
  5
288
  8
VERSION_3$HOLDER-BASE$HOLE
 10
3.824226952555006
 20
-104.7363673378833
 30
0.0
  0
VERTEX
  5
289
  8
VERSION_3$HOLDER-BASE$HOLE
 10
3.669943596698322
 20
-105.0655694117704
 30
0.0
  0
VERTEX
  5
28A
  8
VERSION_3$HOLDER-BASE$HOLE
 10
3.339848969652564
 20
-105.7239735669892
 30
0.0
  0
VERTEX
  5
28B
  8
VERSION_3$HOLDER-BASE$HOLE
 10
2.981050455229629
 20
-106.3823777323256
 30
0.0
  0
VERTEX
  5
28C
  8
VERSION_3$HOLDER-BASE$HOLE
 10
2.593548053108725
 20
-107.0407819080095
 30
0.0
  0
VERTEX
  5
28D
  8
VERSION_3$HOLDER-BASE$HOLE
 10
2.17734176296906
 20
-107.6991860942708
 30
0.0
  0
VERTEX
  5
28E
  8
VERSION_3$HOLDER-BASE$HOLE
 10
1.732431584489844
 20
-108.3575902913396
 30
0.0
  0
VERTEX
  5
28F
  8
VERSION_3$HOLDER-BASE$HOLE
 10
1.258817517350287
 20
-109.0159944994458
 30
0.0
  0
VERTEX
  5
290
  8
VERSION_3$HOLDER-BASE$HOLE
 10
0.7564995612295968
 20
-109.6743987188192
 30
0.0
  0
VERTEX
  5
291
  8
VERSION_3$HOLDER-BASE$HOLE
 10
0.2254777158069833
 20
-110.3328029496899
 30
0.0
  0
VERTEX
  5
292
  8
VERSION_3$HOLDER-BASE$HOLE
 10
-0.3342480192383445
 20
-110.9912071922878
 30
0.0
  0
VERTEX
  5
293
  8
VERSION_3$HOLDER-BASE$HOLE
 10
-0.9226776442271776
 20
-111.6496114468428
 30
0.0
  0
VERTEX
  5
294
  8
VERSION_3$HOLDER-BASE$HOLE
 10
-1.539811159480307
 20
-112.3080157135849
 30
0.0
  0
VERTEX
  5
295
  8
VERSION_3$HOLDER-BASE$HOLE
 10
-2.185648565318523
 20
-112.9664199927441
 30
0.0
  0
VERTEX
  5
296
  8
VERSION_3$HOLDER-BASE$HOLE
 10
-2.860189862062616
 20
-113.6248242845502
 30
0.0
  0
VERTEX
  5
297
  8
VERSION_3$HOLDER-BASE$HOLE
 10
-3.563435050033379
 20
-114.2832285892332
 30
0.0
  0
VERTEX
  5
298
  8
VERSION_3$HOLDER-BASE$HOLE
 10
-4.295384129551602
 20
-114.9416329070231
 30
0.0
  0
VERTEX
  5
299
  8
VERSION_3$HOLDER-BASE$HOLE
 10
-5.056037100938074
 20
-115.6000372381498
 30
0.0
  0
VERTEX
  5
29A
  8
VERSION_3$HOLDER-BASE$HOLE
 10
-5.845393964513588
 20
-116.2584415828432
 30
0.0
  0
VERTEX
  5
29B
  8
VERSION_3$HOLDER-BASE$HOLE
 10
-7.510219369514903
 20
-117.5752503138502
 30
0.0
  0
VERTEX
  5
29C
  8
VERSION_3$HOLDER-BASE$HOLE
 10
-9.289860347121873
 20
-118.8920591018835
 30
0.0
  0
VERTEX
  5
29D
  8
VERSION_3$HOLDER-BASE$HOLE
 10
-9.367810664546951
 20
-118.9460445645392
 30
0.0
  0
VERTEX
  5
29E
  8
VERSION_3$HOLDER-BASE$HOLE
 10
-9.448724254223455
 20
-118.9983049613546
 30
0.0
  0
VERTEX
  5
29F
  8
VERSION_3$HOLDER-BASE$HOLE
 10
-9.532528287366853
 20
-119.0486919831637
 30
0.0
  0
VERTEX
  5
2A0
  8
VERSION_3$HOLDER-BASE$HOLE
 10
-9.619136120463077
 20
-119.0970592135794
 30
0.0
  0
VERTEX
  5
2A1
  8
VERSION_3$HOLDER-BASE$HOLE
 10
-9.708447252347849
 20
-119.1432631633188
 30
0.0
  0
VERTEX
  5
2A2
  8
VERSION_3$HOLDER-BASE$HOLE
 10
-9.800347415079901
 20
-119.1871643285838
 30
0.0
  0
VERTEX
  5
2A3
  8
VERSION_3$HOLDER-BASE$HOLE
 10
-9.894708805058418
 20
-119.2286282602516
 30
0.0
  0
VERTEX
  5
2A4
  8
VERSION_3$HOLDER-BASE$HOLE
 10
-9.991390458645416
 20
-119.2675266295865
 30
0.0
  0
VERTEX
  5
2A5
  8
VERSION_3$HOLDER-BASE$HOLE
 10
-10.09023877411131
 20
-119.3037382754161
 30
0.0
  0
VERTEX
  5
2A6
  8
VERSION_3$HOLDER-BASE$HOLE
 10
-10.19108817908157
 20
-119.3371502172515
 30
0.0
  0
VERTEX
  5
2A7
  8
VERSION_3$HOLDER-BASE$HOLE
 10
-10.29376193989044
 20
-119.3676586187265
 30
0.0
  0
VERTEX
  5
2A8
  8
VERSION_3$HOLDER-BASE$HOLE
 10
-10.39807310642006
 20
-119.3951696859905
 30
0.0
  0
VERTEX
  5
2A9
  8
VERSION_3$HOLDER-BASE$HOLE
 10
-10.50382558320318
 20
-119.4196004863384
 30
0.0
  0
VERTEX
  5
2AA
  8
VERSION_3$HOLDER-BASE$HOLE
 10
-10.61081531488061
 20
-119.4408796733931
 30
0.0
  0
VERTEX
  5
2AB
  8
VERSION_3$HOLDER-BASE$HOLE
 10
-10.71883157161793
 20
-119.4589481065547
 30
0.0
  0
VERTEX
  5
2AC
  8
VERSION_3$HOLDER-BASE$HOLE
 10
-10.8276583178814
 20
-119.4737593541653
 30
0.0
  0
VERTEX
  5
2AD
  8
VERSION_3$HOLDER-BASE$HOLE
 10
-10.93707564612563
 20
-119.4852800718706
 30
0.0
  0
VERTEX
  5
2AE
  8
VERSION_3$HOLDER-BASE$HOLE
 10
-11.04686125551871
 20
-119.4934902499273
 30
0.0
  0
VERTEX
  5
2AF
  8
VERSION_3$HOLDER-BASE$HOLE
 10
-11.15679195487301
 20
-119.4983833256436
 30
0.0
  0
VERTEX
  5
2B0
  8
VERSION_3$HOLDER-BASE$HOLE
 10
-11.26664516849384
 20
-119.499966159684
 30
0.0
  0
VERTEX
  5
2B1
  8
VERSION_3$HOLDER-BASE$HOLE
 10
-11.37620042371777
 20
-119.4982588775287
 30
0.0
  0
VERTEX
  5
2B2
  8
VERSION_3$HOLDER-BASE$HOLE
 10
-11.48524079948165
 20
-119.493294579891
 30
0.0
  0
VERTEX
  5
2B3
  8
VERSION_3$HOLDER-BASE$HOLE
 10
-11.5935543163196
 20
-119.4851189282727
 30
0.0
  0
VERTEX
  5
2B4
  8
VERSION_3$HOLDER-BASE$HOLE
 10
-11.70093524968557
 20
-119.4737896140236
 30
0.0
  0
VERTEX
  5
2B5
  8
VERSION_3$HOLDER-BASE$HOLE
 10
-11.80718535038963
 20
-119.4593757211975
 30
0.0
  0
VERTEX
  5
2B6
  8
VERSION_3$HOLDER-BASE$HOLE
 10
-11.91211495814622
 20
-119.4419569951189
 30
0.0
  0
VERTEX
  5
2B7
  8
VERSION_3$HOLDER-BASE$HOLE
 10
-12.01554399668671
 20
-119.4216230298554
 30
0.0
  0
VERTEX
  5
2B8
  8
VERSION_3$HOLDER-BASE$HOLE
 10
-12.11730284150402
 20
-119.3984723887146
 30
0.0
  0
VERTEX
  5
2B9
  8
VERSION_3$HOLDER-BASE$HOLE
 10
-12.21723305399
 20
-119.3726116724274
 30
0.0
  0
VERTEX
  5
2BA
  8
VERSION_3$HOLDER-BASE$HOLE
 10
-12.31518797841558
 20
-119.3441545498715
 30
0.0
  0
VERTEX
  5
2BB
  8
VERSION_3$HOLDER-BASE$HOLE
 10
-12.41103320081385
 20
-119.3132207660207
 30
0.0
  0
VERTEX
  5
2BC
  8
VERSION_3$HOLDER-BASE$HOLE
 10
-12.5046468712892
 20
-119.2799351413287
 30
0.0
  0
VERTEX
  5
2BD
  8
VERSION_3$HOLDER-BASE$HOLE
 10
-12.59682579033916
 20
-119.2440585454265
 30
0.0
  0
VERTEX
  5
2BE
  8
VERSION_3$HOLDER-BASE$HOLE
 10
-12.68831397667662
 20
-119.2052565310265
 30
0.0
  0
VERTEX
  5
2BF
  8
VERSION_3$HOLDER-BASE$HOLE
 10
-12.77891661737038
 20
-119.1635221569958
 30
0.0
  0
VERTEX
  5
2C0
  8
VERSION_3$HOLDER-BASE$HOLE
 10
-12.86843529039432
 20
-119.1188595782235
 30
0.0
  0
VERTEX
  5
2C1
  8
VERSION_3$HOLDER-BASE$HOLE
 10
-12.95666909555476
 20
-119.0712845052623
 30
0.0
  0
VERTEX
  5
2C2
  8
VERSION_3$HOLDER-BASE$HOLE
 10
-13.04341586744383
 20
-119.0208245740296
 30
0.0
  0
VERTEX
  5
2C3
  8
VERSION_3$HOLDER-BASE$HOLE
 10
-13.12847345837579
 20
-118.9675196152759
 30
0.0
  0
VERTEX
  5
2C4
  8
VERSION_3$HOLDER-BASE$HOLE
 10
-13.21164107720071
 20
-118.9114218147347
 30
0.0
  0
VERTEX
  5
2C5
  8
VERSION_3$HOLDER-BASE$HOLE
 10
-13.29272066802277
 20
-118.8525957563692
 30
0.0
  0
VERTEX
  5
2C6
  8
VERSION_3$HOLDER-BASE$HOLE
 10
-13.3324166530187
 20
-118.8221831861618
 30
0.0
  0
VERTEX
  5
2C7
  8
VERSION_3$HOLDER-BASE$HOLE
 10
-13.37151831125072
 20
-118.7911183429155
 30
0.0
  0
VERTEX
  5
2C8
  8
VERSION_3$HOLDER-BASE$HOLE
 10
-13.41000227955875
 20
-118.759412730496
 30
0.0
  0
VERTEX
  5
2C9
  8
VERSION_3$HOLDER-BASE$HOLE
 10
-13.44784562813953
 20
-118.7270785899447
 30
0.0
  0
VERTEX
  5
2CA
  8
VERSION_3$HOLDER-BASE$HOLE
 10
-13.48502590323706
 20
-118.6941288860403
 30
0.0
  0
VERTEX
  5
2CB
  8
VERSION_3$HOLDER-BASE$HOLE
 10
-13.52152116910579
 20
-118.6605772918862
 30
0.0
  0
VERTEX
  5
2CC
  8
VERSION_3$HOLDER-BASE$HOLE
 10
-13.55731004908962
 20
-118.6264381715526
 30
0.0
  0
VERTEX
  5
2CD
  8
VERSION_3$HOLDER-BASE$HOLE
 10
-13.59237176566103
 20
-118.5917265608133
 30
0.0
  0
VERTEX
  5
2CE
  8
VERSION_3$HOLDER-BASE$HOLE
 10
-13.62668617926823
 20
-118.5564581460277
 30
0.0
  0
VERTEX
  5
2CF
  8
VERSION_3$HOLDER-BASE$HOLE
 10
-13.66023382584197
 20
-118.5206492412235
 30
0.0
  0
VERTEX
  5
2D0
  8
VERSION_3$HOLDER-BASE$HOLE
 10
-13.69299595281856
 20
-118.4843167634511
 30
0.0
  0
VERTEX
  5
2D1
  8
VERSION_3$HOLDER-BASE$HOLE
 10
-13.72495455354177
 20
-118.4474782064829
 30
0.0
  0
VERTEX
  5
2D2
  8
VERSION_3$HOLDER-BASE$HOLE
 10
-13.75609239991259
 20
-118.4101516129435
 30
0.0
  0
VERTEX
  5
2D3
  8
VERSION_3$HOLDER-BASE$HOLE
 10
-13.78639307316387
 20
-118.3723555449641
 30
0.0
  0
VERTEX
  5
2D4
  8
VERSION_3$HOLDER-BASE$HOLE
 10
-13.8158409926449
 20
-118.3341090534586
 30
0.0
  0
VERTEX
  5
2D5
  8
VERSION_3$HOLDER-BASE$HOLE
 10
-13.84442144251035
 20
-118.2954316461301
 30
0.0
  0
VERTEX
  5
2D6
  8
VERSION_3$HOLDER-BASE$HOLE
 10
-13.87212059621743
 20
-118.2563432543194
 30
0.0
  0
VERTEX
  5
2D7
  8
VERSION_3$HOLDER-BASE$HOLE
 10
-13.89892553874605
 20
-118.2168641988146
 30
0.0
  0
VERTEX
  5
2D8
  8
VERSION_3$HOLDER-BASE$HOLE
 10
-13.92482428646685
 20
-118.1770151547436
 30
0.0
  0
VERTEX
  5
2D9
  8
VERSION_3$HOLDER-BASE$HOLE
 10
-13.94980580459408
 20
-118.1368171156778
 30
0.0
  0
VERTEX
  5
2DA
  8
VERSION_3$HOLDER-BASE$HOLE
 10
-13.97386002217138
 20
-118.096291357076
 30
0.0
  0
VERTEX
  5
2DB
  8
VERSION_3$HOLDER-BASE$HOLE
 10
-13.99697784455066
 20
-118.0554593992025
 30
0.0
  0
VERTEX
  5
2DC
  8
VERSION_3$HOLDER-BASE$HOLE
 10
-14.01915116333628
 20
-118.0143429696517
 30
0.0
  0
VERTEX
  5
2DD
  8
VERSION_3$HOLDER-BASE$HOLE
 10
-14.04037286377886
 20
-117.9729639656157
 30
0.0
  0
VERTEX
  5
2DE
  8
VERSION_3$HOLDER-BASE$HOLE
 10
-14.0606368296151
 20
-117.9313444160298
 30
0.0
  0
VERTEX
  5
2DF
  8
VERSION_3$HOLDER-BASE$HOLE
 10
-14.07993794536212
 20
-117.8895064437279
 30
0.0
  0
VERTEX
  5
2E0
  8
VERSION_3$HOLDER-BASE$HOLE
 10
-14.09827209608633
 20
-117.847472227743
 30
0.0
  0
VERTEX
  5
2E1
  8
VERSION_3$HOLDER-BASE$HOLE
 10
-14.11563616467875
 20
-117.8052639658809
 30
0.0
  0
VERTEX
  5
2E2
  8
VERSION_3$HOLDER-BASE$HOLE
 10
-14.13202802667933
 20
-117.7629038376941
 30
0.0
  0
VERTEX
  5
2E3
  8
VERSION_3$HOLDER-BASE$HOLE
 10
-14.14744654270393
 20
-117.7204139679789
 30
0.0
  0
VERTEX
  5
2E4
  8
VERSION_3$HOLDER-BASE$HOLE
 10
-14.16189154853752
 20
-117.6778163909148
 30
0.0
  0
VERTEX
  5
2E5
  8
VERSION_3$HOLDER-BASE$HOLE
 10
-14.17536384296685
 20
-117.6351330149576
 30
0.0
  0
VERTEX
  5
2E6
  8
VERSION_3$HOLDER-BASE$HOLE
 10
-14.18786517343473
 20
-117.5923855885963
 30
0.0
  0
VERTEX
  5
2E7
  8
VERSION_3$HOLDER-BASE$HOLE
 10
-14.19939821960634
 20
-117.5495956670725
 30
0.0
  0
VERTEX
  5
2E8
  8
VERSION_3$HOLDER-BASE$HOLE
 10
-14.20996657494556
 20
-117.5067845801586
 30
0.0
  0
VERTEX
  5
2E9
  8
VERSION_3$HOLDER-BASE$HOLE
 10
-14.21957472640599
 20
-117.4639734010821
 30
0.0
  0
VERTEX
  5
2EA
  8
VERSION_3$HOLDER-BASE$HOLE
 10
-14.22822803234727
 20
-117.4211829166763
 30
0.0
  0
VERTEX
  5
2EB
  8
VERSION_3$HOLDER-BASE$HOLE
 10
-14.23593269879271
 20
-117.3784335988295
 30
0.0
  0
VERTEX
  5
2EC
  8
VERSION_3$HOLDER-BASE$HOLE
 10
-14.24269575414817
 20
-117.3357455772988
 30
0.0
  0
VERTEX
  5
2ED
  8
VERSION_3$HOLDER-BASE$HOLE
 10
-14.24852502250603
 20
-117.2931386139443
 30
0.0
  0
VERTEX
  5
2EE
  8
VERSION_3$HOLDER-BASE$HOLE
 10
-14.25342909566053
 20
-117.250632078433
 30
0.0
  0
VERTEX
  5
2EF
  8
VERSION_3$HOLDER-BASE$HOLE
 10
-14.25741730396271
 20
-117.2082449254537
 30
0.0
  0
VERTEX
  5
2F0
  8
VERSION_3$HOLDER-BASE$HOLE
 10
-14.26049968614429
 20
-117.1659956734759
 30
0.0
  0
VERTEX
  5
2F1
  8
VERSION_3$HOLDER-BASE$HOLE
 10
-14.26268695824011
 20
-117.1239023850765
 30
0.0
  0
VERTEX
  5
2F2
  8
VERSION_3$HOLDER-BASE$HOLE
 10
-14.2639904817383
 20
-117.0819826488539
 30
0.0
  0
VERTEX
  5
2F3
  8
VERSION_3$HOLDER-BASE$HOLE
 10
-14.26442223108626
 20
-117.040253562937
 30
0.0
  0
VERTEX
  5
2F4
  8
VERSION_3$HOLDER-BASE$HOLE
 10
-14.26442223108592
 20
-78.60600258461916
 30
0.0
  0
VERTEX
  5
2F5
  8
VERSION_3$HOLDER-BASE$HOLE
 10
-14.26399048173797
 20
-78.5642734987023
 30
0.0
  0
VERTEX
  5
2F6
  8
VERSION_3$HOLDER-BASE$HOLE
 10
-14.26268695823978
 20
-78.52235376247967
 30
0.0
  0
VERTEX
  5
2F7
  8
VERSION_3$HOLDER-BASE$HOLE
 10
-14.26049968614396
 20
-78.4802604740803
 30
0.0
  0
VERTEX
  5
2F8
  8
VERSION_3$HOLDER-BASE$HOLE
 10
-14.25741730396239
 20
-78.43801122210247
 30
0.0
  0
VERTEX
  5
2F9
  8
VERSION_3$HOLDER-BASE$HOLE
 10
-14.25342909566022
 20
-78.39562406912324
 30
0.0
  0
VERTEX
  5
2FA
  8
VERSION_3$HOLDER-BASE$HOLE
 10
-14.24852502250572
 20
-78.35311753361191
 30
0.0
  0
VERTEX
  5
2FB
  8
VERSION_3$HOLDER-BASE$HOLE
 10
-14.24269575414786
 20
-78.31051057025742
 30
0.0
  0
VERTEX
  5
2FC
  8
VERSION_3$HOLDER-BASE$HOLE
 10
-14.2359326987924
 20
-78.2678225487268
 30
0.0
  0
VERTEX
  5
2FD
  8
VERSION_3$HOLDER-BASE$HOLE
 10
-14.22822803234697
 20
-78.22507323088003
 30
0.0
  0
VERTEX
  5
2FE
  8
VERSION_3$HOLDER-BASE$HOLE
 10
-14.21957472640569
 20
-78.1822827464742
 30
0.0
  0
VERTEX
  5
2FF
  8
VERSION_3$HOLDER-BASE$HOLE
 10
-14.20996657494528
 20
-78.13947156739772
 30
0.0
  0
VERTEX
  5
300
  8
VERSION_3$HOLDER-BASE$HOLE
 10
-14.19939821960606
 20
-78.09666048048376
 30
0.0
  0
VERTEX
  5
301
  8
VERSION_3$HOLDER-BASE$HOLE
 10
-14.18786517343445
 20
-78.05387055895993
 30
0.0
  0
VERTEX
  5
302
  8
VERSION_3$HOLDER-BASE$HOLE
 10
-14.17536384296658
 20
-78.01112313259866
 30
0.0
  0
VERTEX
  5
303
  8
VERSION_3$HOLDER-BASE$HOLE
 10
-14.16189154853726
 20
-77.96843975664152
 30
0.0
  0
VERTEX
  5
304
  8
VERSION_3$HOLDER-BASE$HOLE
 10
-14.14744654270367
 20
-77.92584217957736
 30
0.0
  0
VERTEX
  5
305
  8
VERSION_3$HOLDER-BASE$HOLE
 10
-14.13202802667908
 20
-77.88335230986219
 30
0.0
  0
VERTEX
  5
306
  8
VERSION_3$HOLDER-BASE$HOLE
 10
-14.11563616467851
 20
-77.84099218167538
 30
0.0
  0
VERTEX
  5
307
  8
VERSION_3$HOLDER-BASE$HOLE
 10
-14.0982720960861
 20
-77.79878391981332
 30
0.0
  0
VERTEX
  5
308
  8
VERSION_3$HOLDER-BASE$HOLE
 10
-14.07993794536189
 20
-77.75674970382846
 30
0.0
  0
VERTEX
  5
309
  8
VERSION_3$HOLDER-BASE$HOLE
 10
-14.06063682961489
 20
-77.7149117315265
 30
0.0
  0
VERTEX
  5
30A
  8
VERSION_3$HOLDER-BASE$HOLE
 10
-14.04037286377865
 20
-77.67329218194058
 30
0.0
  0
VERTEX
  5
30B
  8
VERSION_3$HOLDER-BASE$HOLE
 10
-14.01915116333608
 20
-77.63191317790466
 30
0.0
  0
VERTEX
  5
30C
  8
VERSION_3$HOLDER-BASE$HOLE
 10
-13.99697784455047
 20
-77.59079674835387
 30
0.0
  0
VERTEX
  5
30D
  8
VERSION_3$HOLDER-BASE$HOLE
 10
-13.97386002217119
 20
-77.54996479048037
 30
0.0
  0
VERTEX
  5
30E
  8
VERSION_3$HOLDER-BASE$HOLE
 10
-13.9498058045939
 20
-77.5094390318786
 30
0.0
  0
VERTEX
  5
30F
  8
VERSION_3$HOLDER-BASE$HOLE
 10
-13.92482428646668
 20
-77.4692409928127
 30
0.0
  0
VERTEX
  5
310
  8
VERSION_3$HOLDER-BASE$HOLE
 10
-13.8989255387459
 20
-77.42939194874171
 30
0.0
  0
VERTEX
  5
311
  8
VERSION_3$HOLDER-BASE$HOLE
 10
-13.87212059621728
 20
-77.38991289323688
 30
0.0
  0
VERTEX
  5
312
  8
VERSION_3$HOLDER-BASE$HOLE
 10
-13.84442144251021
 20
-77.35082450142625
 30
0.0
  0
VERTEX
  5
313
  8
VERSION_3$HOLDER-BASE$HOLE
 10
-13.81584099264478
 20
-77.31214709409775
 30
0.0
  0
VERTEX
  5
314
  8
VERSION_3$HOLDER-BASE$HOLE
 10
-13.78639307316375
 20
-77.27390060259226
 30
0.0
  0
VERTEX
  5
315
  8
VERSION_3$HOLDER-BASE$HOLE
 10
-13.75609239991249
 20
-77.23610453461288
 30
0.0
  0
VERTEX
  5
316
  8
VERSION_3$HOLDER-BASE$HOLE
 10
-13.72495455354168
 20
-77.19877794107352
 30
0.0
  0
VERTEX
  5
317
  8
VERSION_3$HOLDER-BASE$HOLE
 10
-13.69299595281847
 20
-77.16193938410522
 30
0.0
  0
VERTEX
  5
318
  8
VERSION_3$HOLDER-BASE$HOLE
 10
-13.66023382584189
 20
-77.12560690633289
 30
0.0
  0
VERTEX
  5
319
  8
VERSION_3$HOLDER-BASE$HOLE
 10
-13.62668617926817
 20
-77.08979800152875
 30
0.0
  0
VERTEX
  5
31A
  8
VERSION_3$HOLDER-BASE$HOLE
 10
-13.59237176566097
 20
-77.05452958674312
 30
0.0
  0
VERTEX
  5
31B
  8
VERSION_3$HOLDER-BASE$HOLE
 10
-13.55731004908957
 20
-77.01981797600385
 30
0.0
  0
VERTEX
  5
31C
  8
VERSION_3$HOLDER-BASE$HOLE
 10
-13.52152116910575
 20
-76.98567885567016
 30
0.0
  0
VERTEX
  5
31D
  8
VERSION_3$HOLDER-BASE$HOLE
 10
-13.48502590323703
 20
-76.95212726151604
 30
0.0
  0
VERTEX
  5
31E
  8
VERSION_3$HOLDER-BASE$HOLE
 10
-13.44784562813952
 20
-76.91917755761168
 30
0.0
  0
VERTEX
  5
31F
  8
VERSION_3$HOLDER-BASE$HOLE
 10
-13.41000227955874
 20
-76.88684341706032
 30
0.0
  0
VERTEX
  5
320
  8
VERSION_3$HOLDER-BASE$HOLE
 10
-13.37151831125074
 20
-76.85513780464089
 30
0.0
  0
VERTEX
  5
321
  8
VERSION_3$HOLDER-BASE$HOLE
 10
-13.33241665301872
 20
-76.8240729613946
 30
0.0
  0
VERTEX
  5
322
  8
VERSION_3$HOLDER-BASE$HOLE
 10
-13.2927206680228
 20
-76.79366039118719
 30
0.0
  0
VERTEX
  5
323
  8
VERSION_3$HOLDER-BASE$HOLE
 10
-13.21164107720077
 20
-76.73483433282168
 30
0.0
  0
VERTEX
  5
324
  8
VERSION_3$HOLDER-BASE$HOLE
 10
-13.12847345837587
 20
-76.67873653228047
 30
0.0
  0
VERTEX
  5
325
  8
VERSION_3$HOLDER-BASE$HOLE
 10
-13.04341586744393
 20
-76.62543157352681
 30
0.0
  0
VERTEX
  5
326
  8
VERSION_3$HOLDER-BASE$HOLE
 10
-12.95666909555489
 20
-76.5749716422941
 30
0.0
  0
VERTEX
  5
327
  8
VERSION_3$HOLDER-BASE$HOLE
 10
-12.86843529039446
 20
-76.52739656933298
 30
0.0
  0
VERTEX
  5
328
  8
VERSION_3$HOLDER-BASE$HOLE
 10
-12.77891661737054
 20
-76.48273399056063
 30
0.0
  0
VERTEX
  5
329
  8
VERSION_3$HOLDER-BASE$HOLE
 10
-12.68831397667681
 20
-76.44099961652991
 30
0.0
  0
VERTEX
  5
32A
  8
VERSION_3$HOLDER-BASE$HOLE
 10
-12.59682579033937
 20
-76.40219760212992
 30
0.0
  0
VERTEX
  5
32B
  8
VERSION_3$HOLDER-BASE$HOLE
 10
-12.50464687128942
 20
-76.3663210062277
 30
0.0
  0
VERTEX
  5
32C
  8
VERSION_3$HOLDER-BASE$HOLE
 10
-12.4110332008141
 20
-76.33303538153571
 30
0.0
  0
VERTEX
  5
32D
  8
VERSION_3$HOLDER-BASE$HOLE
 10
-12.31518797841584
 20
-76.30210159768484
 30
0.0
  0
VERTEX
  5
32E
  8
VERSION_3$HOLDER-BASE$HOLE
 10
-12.21723305399028
 20
-76.27364447512893
 30
0.0
  0
VERTEX
  5
32F
  8
VERSION_3$HOLDER-BASE$HOLE
 10
-12.11730284150431
 20
-76.24778375884176
 30
0.0
  0
VERTEX
  5
330
  8
VERSION_3$HOLDER-BASE$HOLE
 10
-12.01554399668702
 20
-76.2246331177009
 30
0.0
  0
VERTEX
  5
331
  8
VERSION_3$HOLDER-BASE$HOLE
 10
-11.91211495814655
 20
-76.20429915243746
 30
0.0
  0
VERTEX
  5
332
  8
VERSION_3$HOLDER-BASE$HOLE
 10
-11.80718535038998
 20
-76.18688042635878
 30
0.0
  0
VERTEX
  5
333
  8
VERSION_3$HOLDER-BASE$HOLE
 10
-11.70093524968593
 20
-76.17246653353276
 30
0.0
  0
VERTEX
  5
334
  8
VERSION_3$HOLDER-BASE$HOLE
 10
-11.59355431631998
 20
-76.16113721928362
 30
0.0
  0
VERTEX
  5
335
  8
VERSION_3$HOLDER-BASE$HOLE
 10
-11.48524079948205
 20
-76.15296156766524
 30
0.0
  0
VERTEX
  5
336
  8
VERSION_3$HOLDER-BASE$HOLE
 10
-11.37620042371818
 20
-76.14799727002757
 30
0.0
  0
VERTEX
  5
337
  8
VERSION_3$HOLDER-BASE$HOLE
 10
-11.26664516849427
 20
-76.14628998787231
 30
0.0
  0
VERTEX
  5
338
  8
VERSION_3$HOLDER-BASE$HOLE
 10
-11.15679195487344
 20
-76.14787282191266
 30
0.0
  0
VERTEX
  5
339
  8
VERSION_3$HOLDER-BASE$HOLE
 10
-11.04686125551916
 20
-76.15276589762897
 30
0.0
  0
VERTEX
  5
33A
  8
VERSION_3$HOLDER-BASE$HOLE
 10
-10.93707564612609
 20
-76.16097607568561
 30
0.0
  0
VERTEX
  5
33B
  8
VERSION_3$HOLDER-BASE$HOLE
 10
-10.82765831788188
 20
-76.17249679339092
 30
0.0
  0
VERTEX
  5
33C
  8
VERSION_3$HOLDER-BASE$HOLE
 10
-10.71883157161842
 20
-76.18730804100147
 30
0.0
  0
VERTEX
  5
33D
  8
VERSION_3$HOLDER-BASE$HOLE
 10
-10.6108153148811
 20
-76.20537647416312
 30
0.0
  0
VERTEX
  5
33E
  8
VERSION_3$HOLDER-BASE$HOLE
 10
-10.50382558320368
 20
-76.22665566121785
 30
0.0
  0
VERTEX
  5
33F
  8
VERSION_3$HOLDER-BASE$HOLE
 10
-10.39807310642058
 20
-76.25108646156565
 30
0.0
  0
VERTEX
  5
340
  8
VERSION_3$HOLDER-BASE$HOLE
 10
-10.29376193989096
 20
-76.27859752882961
 30
0.0
  0
VERTEX
  5
341
  8
VERSION_3$HOLDER-BASE$HOLE
 10
-10.1910881790821
 20
-76.30910593030465
 30
0.0
  0
VERTEX
  5
342
  8
VERSION_3$HOLDER-BASE$HOLE
 10
-10.09023877411185
 20
-76.34251787214005
 30
0.0
  0
VERTEX
  5
343
  8
VERSION_3$HOLDER-BASE$HOLE
 10
-9.991390458645956
 20
-76.37872951796959
 30
0.0
  0
VERTEX
  5
344
  8
VERSION_3$HOLDER-BASE$HOLE
 10
-9.894708805058963
 20
-76.41762788730446
 30
0.0
  0
VERTEX
  5
345
  8
VERSION_3$HOLDER-BASE$HOLE
 10
-9.800347415080449
 20
-76.45909181897218
 30
0.0
  0
VERTEX
  5
346
  8
VERSION_3$HOLDER-BASE$HOLE
 10
-9.708447252348398
 20
-76.50299298423724
 30
0.0
  0
VERTEX
  5
347
  8
VERSION_3$HOLDER-BASE$HOLE
 10
-9.619136120463626
 20
-76.54919693397662
 30
0.0
  0
VERTEX
  5
348
  8
VERSION_3$HOLDER-BASE$HOLE
 10
-9.5325282873674
 20
-76.59756416439224
 30
0.0
  0
VERTEX
  5
349
  8
VERSION_3$HOLDER-BASE$HOLE
 10
-9.448724254224004
 20
-76.64795118620133
 30
0.0
  0
VERTEX
  5
34A
  8
VERSION_3$HOLDER-BASE$HOLE
 10
-9.367810664547495
 20
-76.70021158301675
 30
0.0
  0
SEQEND
  5
34B
  8
VERSION_3$HOLDER-BASE$HOLE
  0
POLYLINE
  5
34C
  8
VERSION_3$HOLDER-BASE$HOLE
 66
     1
 10
0.0
 20
0.0
 30
0.0
 70
     1
  0
VERTEX
  5
34D
  8
VERSION_3$HOLDER-BASE$HOLE
 10
163.0254381160363
 20
-76.75419704567237
 30
0.0
  0
VERTEX
  5
34E
  8
VERSION_3$HOLDER-BASE$HOLE
 10
161.24579753621
 20
-78.07100492128401
 30
0.0
  0
VERTEX
  5
34F
  8
VERSION_3$HOLDER-BASE$HOLE
 10
159.5809724519995
 20
-79.38781279873524
 30
0.0
  0
VERTEX
  5
350
  8
VERSION_3$HOLDER-BASE$HOLE
 10
158.7916157215522
 20
-80.04621673872555
 30
0.0
  0
VERTEX
  5
351
  8
VERSION_3$HOLDER-BASE$HOLE
 10
158.0309628659712
 20
-80.7046206798656
 30
0.0
  0
VERTEX
  5
352
  8
VERSION_3$HOLDER-BASE$HOLE
 10
157.2990138855773
 20
-81.3630246223853
 30
0.0
  0
VERTEX
  5
353
  8
VERSION_3$HOLDER-BASE$HOLE
 10
156.5957687806914
 20
-82.02142856651461
 30
0.0
  0
VERTEX
  5
354
  8
VERSION_3$HOLDER-BASE$HOLE
 10
155.9212275516342
 20
-82.6798325124835
 30
0.0
  0
VERTEX
  5
355
  8
VERSION_3$HOLDER-BASE$HOLE
 10
155.2753901987264
 20
-83.33823646052188
 30
0.0
  0
VERTEX
  5
356
  8
VERSION_3$HOLDER-BASE$HOLE
 10
154.658256722289
 20
-83.99664041085973
 30
0.0
  0
VERTEX
  5
357
  8
VERSION_3$HOLDER-BASE$HOLE
 10
154.0698271226426
 20
-84.65504436372694
 30
0.0
  0
VERTEX
  5
358
  8
VERSION_3$HOLDER-BASE$HOLE
 10
153.5101014001081
 20
-85.31344831935351
 30
0.0
  0
VERTEX
  5
359
  8
VERSION_3$HOLDER-BASE$HOLE
 10
152.9790795550063
 20
-85.97185227796936
 30
0.0
  0
VERTEX
  5
35A
  8
VERSION_3$HOLDER-BASE$HOLE
 10
152.4767615876579
 20
-86.63025623980444
 30
0.0
  0
VERTEX
  5
35B
  8
VERSION_3$HOLDER-BASE$HOLE
 10
152.0031474983837
 20
-87.28866020508869
 30
0.0
  0
VERTEX
  5
35C
  8
VERSION_3$HOLDER-BASE$HOLE
 10
151.5582372875046
 20
-87.94706417405206
 30
0.0
  0
VERTEX
  5
35D
  8
VERSION_3$HOLDER-BASE$HOLE
 10
151.1420309553413
 20
-88.60546814692451
 30
0.0
  0
VERTEX
  5
35E
  8
VERSION_3$HOLDER-BASE$HOLE
 10
150.7545285022147
 20
-89.26387212393595
 30
0.0
  0
VERTEX
  5
35F
  8
VERSION_3$HOLDER-BASE$HOLE
 10
150.3957299284454
 20
-89.92227610531636
 30
0.0
  0
VERTEX
  5
360
  8
VERSION_3$HOLDER-BASE$HOLE
 10
150.0656352343543
 20
-90.58068009129566
 30
0.0
  0
VERTEX
  5
361
  8
VERSION_3$HOLDER-BASE$HOLE
 10
149.9113518422884
 20
-90.90988208608175
 30
0.0
  0
VERTEX
  5
362
  8
VERSION_3$HOLDER-BASE$HOLE
 10
149.7642444202623
 20
-91.2390840821038
 30
0.0
  0
VERTEX
  5
363
  8
VERSION_3$HOLDER-BASE$HOLE
 10
149.6243129683161
 20
-91.56828607939056
 30
0.0
  0
VERTEX
  5
364
  8
VERSION_3$HOLDER-BASE$HOLE
 10
149.49155748649
 20
-91.89748807797073
 30
0.0
  0
VERTEX
  5
365
  8
VERSION_3$HOLDER-BASE$HOLE
 10
149.3659779748239
 20
-92.22669007787312
 30
0.0
  0
VERTEX
  5
366
  8
VERSION_3$HOLDER-BASE$HOLE
 10
149.2475744333582
 20
-92.55589207912641
 30
0.0
  0
VERTEX
  5
367
  8
VERSION_3$HOLDER-BASE$HOLE
 10
149.1363468621328
 20
-92.88509408175938
 30
0.0
  0
VERTEX
  5
368
  8
VERSION_3$HOLDER-BASE$HOLE
 10
149.0322952611879
 20
-93.21429608580075
 30
0.0
  0
VERTEX
  5
369
  8
VERSION_3$HOLDER-BASE$HOLE
 10
148.9354196305634
 20
-93.5434980912793
 30
0.0
  0
VERTEX
  5
36A
  8
VERSION_3$HOLDER-BASE$HOLE
 10
148.8457199702997
 20
-93.87270009822373
 30
0.0
  0
VERTEX
  5
36B
  8
VERSION_3$HOLDER-BASE$HOLE
 10
148.7631962804366
 20
-94.20190210666281
 30
0.0
  0
VERTEX
  5
36C
  8
VERSION_3$HOLDER-BASE$HOLE
 10
148.6878485610144
 20
-94.53110411662527
 30
0.0
  0
VERTEX
  5
36D
  8
VERSION_3$HOLDER-BASE$HOLE
 10
148.6196768120731
 20
-94.86030612813987
 30
0.0
  0
VERTEX
  5
36E
  8
VERSION_3$HOLDER-BASE$HOLE
 10
148.5586810336528
 20
-95.18950814123532
 30
0.0
  0
VERTEX
  5
36F
  8
VERSION_3$HOLDER-BASE$HOLE
 10
148.5048612257937
 20
-95.5187101559404
 30
0.0
  0
VERTEX
  5
370
  8
VERSION_3$HOLDER-BASE$HOLE
 10
148.4582173885358
 20
-95.84791217228383
 30
0.0
  0
VERTEX
  5
371
  8
VERSION_3$HOLDER-BASE$HOLE
 10
148.4187495219193
 20
-96.17711419029436
 30
0.0
  0
VERTEX
  5
372
  8
VERSION_3$HOLDER-BASE$HOLE
 10
148.3864576259841
 20
-96.50631621000075
 30
0.0
  0
VERTEX
  5
373
  8
VERSION_3$HOLDER-BASE$HOLE
 10
148.3613417007705
 20
-96.83551823143172
 30
0.0
  0
VERTEX
  5
374
  8
VERSION_3$HOLDER-BASE$HOLE
 10
148.3434017463185
 20
-97.16472025461601
 30
0.0
  0
VERTEX
  5
375
  8
VERSION_3$HOLDER-BASE$HOLE
 10
148.3326377626683
 20
-97.49392227958239
 30
0.0
  0
VERTEX
  5
376
  8
VERSION_3$HOLDER-BASE$HOLE
 10
148.3290497498598
 20
-97.82312430635957
 30
0.0
  0
VERTEX
  5
377
  8
VERSION_3$HOLDER-BASE$HOLE
 10
148.3326377079333
 20
-98.15232633497632
 30
0.0
  0
VERTEX
  5
378
  8
VERSION_3$HOLDER-BASE$HOLE
 10
148.3434016369288
 20
-98.48152836546137
 30
0.0
  0
VERTEX
  5
379
  8
VERSION_3$HOLDER-BASE$HOLE
 10
148.3613415368864
 20
-98.81073039784349
 30
0.0
  0
VERTEX
  5
37A
  8
VERSION_3$HOLDER-BASE$HOLE
 10
148.3864574078463
 20
-99.13993243215137
 30
0.0
  0
VERTEX
  5
37B
  8
VERSION_3$HOLDER-BASE$HOLE
 10
148.4187492498485
 20
-99.46913446841378
 30
0.0
  0
VERTEX
  5
37C
  8
VERSION_3$HOLDER-BASE$HOLE
 10
148.458217062933
 20
-99.79833650665947
 30
0.0
  0
VERTEX
  5
37D
  8
VERSION_3$HOLDER-BASE$HOLE
 10
148.5048608471402
 20
-100.1275385469172
 30
0.0
  0
VERTEX
  5
37E
  8
VERSION_3$HOLDER-BASE$HOLE
 10
148.5586806025099
 20
-100.4567405892157
 30
0.0
  0
VERTEX
  5
37F
  8
VERSION_3$HOLDER-BASE$HOLE
 10
148.6196763290823
 20
-100.7859426335836
 30
0.0
  0
VERTEX
  5
380
  8
VERSION_3$HOLDER-BASE$HOLE
 10
148.6878480268975
 20
-101.1151446800499
 30
0.0
  0
VERTEX
  5
381
  8
VERSION_3$HOLDER-BASE$HOLE
 10
148.7631956959956
 20
-101.4443467286431
 30
0.0
  0
VERTEX
  5
382
  8
VERSION_3$HOLDER-BASE$HOLE
 10
148.8457193364168
 20
-101.773548779392
 30
0.0
  0
VERTEX
  5
383
  8
VERSION_3$HOLDER-BASE$HOLE
 10
148.9354189482011
 20
-102.1027508323255
 30
0.0
  0
VERTEX
  5
384
  8
VERSION_3$HOLDER-BASE$HOLE
 10
149.0322945313885
 20
-102.4319528874721
 30
0.0
  0
VERTEX
  5
385
  8
VERSION_3$HOLDER-BASE$HOLE
 10
149.1363460860193
 20
-102.7611549448607
 30
0.0
  0
VERTEX
  5
386
  8
VERSION_3$HOLDER-BASE$HOLE
 10
149.2475736121335
 20
-103.09035700452
 30
0.0
  0
VERTEX
  5
387
  8
VERSION_3$HOLDER-BASE$HOLE
 10
149.3659771097712
 20
-103.4195590664788
 30
0.0
  0
VERTEX
  5
388
  8
VERSION_3$HOLDER-BASE$HOLE
 10
149.4915565789724
 20
-103.7487611307658
 30
0.0
  0
VERTEX
  5
389
  8
VERSION_3$HOLDER-BASE$HOLE
 10
149.6243120197774
 20
-104.0779631974097
 30
0.0
  0
VERTEX
  5
38A
  8
VERSION_3$HOLDER-BASE$HOLE
 10
149.7642434322262
 20
-104.4071652664393
 30
0.0
  0
VERTEX
  5
38B
  8
VERSION_3$HOLDER-BASE$HOLE
 10
149.9113508163589
 20
-104.7363673378833
 30
0.0
  0
VERTEX
  5
38C
  8
VERSION_3$HOLDER-BASE$HOLE
 10
150.0656341722156
 20
-105.0655694117704
 30
0.0
  0
VERTEX
  5
38D
  8
VERSION_3$HOLDER-BASE$HOLE
 10
150.3957287992613
 20
-105.7239735669892
 30
0.0
  0
VERTEX
  5
38E
  8
VERSION_3$HOLDER-BASE$HOLE
 10
150.7545273136843
 20
-106.3823777323256
 30
0.0
  0
VERTEX
  5
38F
  8
VERSION_3$HOLDER-BASE$HOLE
 10
151.1420297158052
 20
-107.0407819080095
 30
0.0
  0
VERTEX
  5
390
  8
VERSION_3$HOLDER-BASE$HOLE
 10
151.5582360059448
 20
-107.6991860942708
 30
0.0
  0
VERTEX
  5
391
  8
VERSION_3$HOLDER-BASE$HOLE
 10
152.0031461844241
 20
-108.3575902913396
 30
0.0
  0
VERTEX
  5
392
  8
VERSION_3$HOLDER-BASE$HOLE
 10
152.4767602515636
 20
-109.0159944994458
 30
0.0
  0
VERTEX
  5
393
  8
VERSION_3$HOLDER-BASE$HOLE
 10
152.9790782076843
 20
-109.6743987188192
 30
0.0
  0
VERTEX
  5
394
  8
VERSION_3$HOLDER-BASE$HOLE
 10
153.5101000531069
 20
-110.3328029496899
 30
0.0
  0
VERTEX
  5
395
  8
VERSION_3$HOLDER-BASE$HOLE
 10
154.0698257881522
 20
-110.9912071922878
 30
0.0
  0
VERTEX
  5
396
  8
VERSION_3$HOLDER-BASE$HOLE
 10
154.6582554131411
 20
-111.6496114468428
 30
0.0
  0
VERTEX
  5
397
  8
VERSION_3$HOLDER-BASE$HOLE
 10
155.2753889283942
 20
-112.3080157135849
 30
0.0
  0
VERTEX
  5
398
  8
VERSION_3$HOLDER-BASE$HOLE
 10
155.9212263342324
 20
-112.9664199927441
 30
0.0
  0
VERTEX
  5
399
  8
VERSION_3$HOLDER-BASE$HOLE
 10
156.5957676309765
 20
-113.6248242845502
 30
0.0
  0
VERTEX
  5
39A
  8
VERSION_3$HOLDER-BASE$HOLE
 10
157.2990128189473
 20
-114.2832285892332
 30
0.0
  0
VERTEX
  5
39B
  8
VERSION_3$HOLDER-BASE$HOLE
 10
158.0309618984655
 20
-114.9416329070231
 30
0.0
  0
VERTEX
  5
39C
  8
VERSION_3$HOLDER-BASE$HOLE
 10
158.791614869852
 20
-115.6000372381498
 30
0.0
  0
VERTEX
  5
39D
  8
VERSION_3$HOLDER-BASE$HOLE
 10
159.5809717334275
 20
-116.2584415828432
 30
0.0
  0
VERTEX
  5
39E
  8
VERSION_3$HOLDER-BASE$HOLE
 10
161.2457971384288
 20
-117.5752503138502
 30
0.0
  0
VERTEX
  5
39F
  8
VERSION_3$HOLDER-BASE$HOLE
 10
163.0254381160358
 20
-118.8920591018835
 30
0.0
  0
VERTEX
  5
3A0
  8
VERSION_3$HOLDER-BASE$HOLE
 10
163.1033884334609
 20
-118.9460445645392
 30
0.0
  0
VERTEX
  5
3A1
  8
VERSION_3$HOLDER-BASE$HOLE
 10
163.1843020231374
 20
-118.9983049613546
 30
0.0
  0
VERTEX
  5
3A2
  8
VERSION_3$HOLDER-BASE$HOLE
 10
163.2681060562808
 20
-119.0486919831637
 30
0.0
  0
VERTEX
  5
3A3
  8
VERSION_3$HOLDER-BASE$HOLE
 10
163.354713889377
 20
-119.0970592135794
 30
0.0
  0
VERTEX
  5
3A4
  8
VERSION_3$HOLDER-BASE$HOLE
 10
163.4440250212618
 20
-119.1432631633188
 30
0.0
  0
VERTEX
  5
3A5
  8
VERSION_3$HOLDER-BASE$HOLE
 10
163.5359251839938
 20
-119.1871643285838
 30
0.0
  0
VERTEX
  5
3A6
  8
VERSION_3$HOLDER-BASE$HOLE
 10
163.6302865739723
 20
-119.2286282602516
 30
0.0
  0
VERTEX
  5
3A7
  8
VERSION_3$HOLDER-BASE$HOLE
 10
163.7269682275593
 20
-119.2675266295865
 30
0.0
  0
VERTEX
  5
3A8
  8
VERSION_3$HOLDER-BASE$HOLE
 10
163.8258165430252
 20
-119.3037382754161
 30
0.0
  0
VERTEX
  5
3A9
  8
VERSION_3$HOLDER-BASE$HOLE
 10
163.9266659479954
 20
-119.3371502172515
 30
0.0
  0
VERTEX
  5
3AA
  8
VERSION_3$HOLDER-BASE$HOLE
 10
164.0293397088043
 20
-119.3676586187265
 30
0.0
  0
VERTEX
  5
3AB
  8
VERSION_3$HOLDER-BASE$HOLE
 10
164.1336508753339
 20
-119.3951696859905
 30
0.0
  0
VERTEX
  5
3AC
  8
VERSION_3$HOLDER-BASE$HOLE
 10
164.2394033521171
 20
-119.4196004863384
 30
0.0
  0
VERTEX
  5
3AD
  8
VERSION_3$HOLDER-BASE$HOLE
 10
164.3463930837945
 20
-119.4408796733931
 30
0.0
  0
VERTEX
  5
3AE
  8
VERSION_3$HOLDER-BASE$HOLE
 10
164.4544093405318
 20
-119.4589481065547
 30
0.0
  0
VERTEX
  5
3AF
  8
VERSION_3$HOLDER-BASE$HOLE
 10
164.5632360867953
 20
-119.4737593541653
 30
0.0
  0
VERTEX
  5
3B0
  8
VERSION_3$HOLDER-BASE$HOLE
 10
164.6726534150395
 20
-119.4852800718706
 30
0.0
  0
VERTEX
  5
3B1
  8
VERSION_3$HOLDER-BASE$HOLE
 10
164.7824390244326
 20
-119.4934902499273
 30
0.0
  0
VERTEX
  5
3B2
  8
VERSION_3$HOLDER-BASE$HOLE
 10
164.8923697237869
 20
-119.4983833256436
 30
0.0
  0
VERTEX
  5
3B3
  8
VERSION_3$HOLDER-BASE$HOLE
 10
165.0022229374077
 20
-119.499966159684
 30
0.0
  0
VERTEX
  5
3B4
  8
VERSION_3$HOLDER-BASE$HOLE
 10
165.1117781926316
 20
-119.4982588775287
 30
0.0
  0
VERTEX
  5
3B5
  8
VERSION_3$HOLDER-BASE$HOLE
 10
165.2208185683955
 20
-119.493294579891
 30
0.0
  0
VERTEX
  5
3B6
  8
VERSION_3$HOLDER-BASE$HOLE
 10
165.3291320852335
 20
-119.4851189282727
 30
0.0
  0
VERTEX
  5
3B7
  8
VERSION_3$HOLDER-BASE$HOLE
 10
165.4365130185995
 20
-119.4737896140236
 30
0.0
  0
VERTEX
  5
3B8
  8
VERSION_3$HOLDER-BASE$HOLE
 10
165.5427631193035
 20
-119.4593757211975
 30
0.0
  0
VERTEX
  5
3B9
  8
VERSION_3$HOLDER-BASE$HOLE
 10
165.6476927270601
 20
-119.4419569951189
 30
0.0
  0
VERTEX
  5
3BA
  8
VERSION_3$HOLDER-BASE$HOLE
 10
165.7511217656006
 20
-119.4216230298554
 30
0.0
  0
VERTEX
  5
3BB
  8
VERSION_3$HOLDER-BASE$HOLE
 10
165.8528806104179
 20
-119.3984723887146
 30
0.0
  0
VERTEX
  5
3BC
  8
VERSION_3$HOLDER-BASE$HOLE
 10
165.9528108229039
 20
-119.3726116724274
 30
0.0
  0
VERTEX
  5
3BD
  8
VERSION_3$HOLDER-BASE$HOLE
 10
166.0507657473295
 20
-119.3441545498715
 30
0.0
  0
VERTEX
  5
3BE
  8
VERSION_3$HOLDER-BASE$HOLE
 10
166.1466109697278
 20
-119.3132207660207
 30
0.0
  0
VERTEX
  5
3BF
  8
VERSION_3$HOLDER-BASE$HOLE
 10
166.2402246402031
 20
-119.2799351413287
 30
0.0
  0
VERTEX
  5
3C0
  8
VERSION_3$HOLDER-BASE$HOLE
 10
166.3324035592531
 20
-119.2440585454265
 30
0.0
  0
VERTEX
  5
3C1
  8
VERSION_3$HOLDER-BASE$HOLE
 10
166.4238917455905
 20
-119.2052565310265
 30
0.0
  0
VERTEX
  5
3C2
  8
VERSION_3$HOLDER-BASE$HOLE
 10
166.5144943862843
 20
-119.1635221569958
 30
0.0
  0
VERTEX
  5
3C3
  8
VERSION_3$HOLDER-BASE$HOLE
 10
166.6040130593082
 20
-119.1188595782235
 30
0.0
  0
VERTEX
  5
3C4
  8
VERSION_3$HOLDER-BASE$HOLE
 10
166.6922468644686
 20
-119.0712845052623
 30
0.0
  0
VERTEX
  5
3C5
  8
VERSION_3$HOLDER-BASE$HOLE
 10
166.7789936363577
 20
-119.0208245740296
 30
0.0
  0
VERTEX
  5
3C6
  8
VERSION_3$HOLDER-BASE$HOLE
 10
166.8640512272897
 20
-118.9675196152759
 30
0.0
  0
VERTEX
  5
3C7
  8
VERSION_3$HOLDER-BASE$HOLE
 10
166.9472188461146
 20
-118.9114218147347
 30
0.0
  0
VERTEX
  5
3C8
  8
VERSION_3$HOLDER-BASE$HOLE
 10
167.0282984369366
 20
-118.8525957563692
 30
0.0
  0
VERTEX
  5
3C9
  8
VERSION_3$HOLDER-BASE$HOLE
 10
167.0679944219326
 20
-118.8221831861618
 30
0.0
  0
VERTEX
  5
3CA
  8
VERSION_3$HOLDER-BASE$HOLE
 10
167.1070960801646
 20
-118.7911183429155
 30
0.0
  0
VERTEX
  5
3CB
  8
VERSION_3$HOLDER-BASE$HOLE
 10
167.1455800484727
 20
-118.759412730496
 30
0.0
  0
VERTEX
  5
3CC
  8
VERSION_3$HOLDER-BASE$HOLE
 10
167.1834233970534
 20
-118.7270785899447
 30
0.0
  0
VERTEX
  5
3CD
  8
VERSION_3$HOLDER-BASE$HOLE
 10
167.220603672151
 20
-118.6941288860403
 30
0.0
  0
VERTEX
  5
3CE
  8
VERSION_3$HOLDER-BASE$HOLE
 10
167.2570989380197
 20
-118.6605772918862
 30
0.0
  0
VERTEX
  5
3CF
  8
VERSION_3$HOLDER-BASE$HOLE
 10
167.2928878180035
 20
-118.6264381715526
 30
0.0
  0
VERTEX
  5
3D0
  8
VERSION_3$HOLDER-BASE$HOLE
 10
167.3279495345749
 20
-118.5917265608133
 30
0.0
  0
VERTEX
  5
3D1
  8
VERSION_3$HOLDER-BASE$HOLE
 10
167.3622639481821
 20
-118.5564581460277
 30
0.0
  0
VERTEX
  5
3D2
  8
VERSION_3$HOLDER-BASE$HOLE
 10
167.3958115947559
 20
-118.5206492412235
 30
0.0
  0
VERTEX
  5
3D3
  8
VERSION_3$HOLDER-BASE$HOLE
 10
167.4285737217324
 20
-118.4843167634511
 30
0.0
  0
VERTEX
  5
3D4
  8
VERSION_3$HOLDER-BASE$HOLE
 10
167.4605323224557
 20
-118.4474782064829
 30
0.0
  0
VERTEX
  5
3D5
  8
VERSION_3$HOLDER-BASE$HOLE
 10
167.4916701688265
 20
-118.4101516129435
 30
0.0
  0
VERTEX
  5
3D6
  8
VERSION_3$HOLDER-BASE$HOLE
 10
167.5219708420778
 20
-118.3723555449641
 30
0.0
  0
VERTEX
  5
3D7
  8
VERSION_3$HOLDER-BASE$HOLE
 10
167.5514187615588
 20
-118.3341090534586
 30
0.0
  0
VERTEX
  5
3D8
  8
VERSION_3$HOLDER-BASE$HOLE
 10
167.5799992114242
 20
-118.2954316461301
 30
0.0
  0
VERTEX
  5
3D9
  8
VERSION_3$HOLDER-BASE$HOLE
 10
167.6076983651313
 20
-118.2563432543194
 30
0.0
  0
VERTEX
  5
3DA
  8
VERSION_3$HOLDER-BASE$HOLE
 10
167.6345033076599
 20
-118.2168641988146
 30
0.0
  0
VERTEX
  5
3DB
  8
VERSION_3$HOLDER-BASE$HOLE
 10
167.6604020553807
 20
-118.1770151547436
 30
0.0
  0
VERTEX
  5
3DC
  8
VERSION_3$HOLDER-BASE$HOLE
 10
167.685383573508
 20
-118.1368171156778
 30
0.0
  0
VERTEX
  5
3DD
  8
VERSION_3$HOLDER-BASE$HOLE
 10
167.7094377910853
 20
-118.096291357076
 30
0.0
  0
VERTEX
  5
3DE
  8
VERSION_3$HOLDER-BASE$HOLE
 10
167.7325556134645
 20
-118.0554593992025
 30
0.0
  0
VERTEX
  5
3DF
  8
VERSION_3$HOLDER-BASE$HOLE
 10
167.7547289322501
 20
-118.0143429696517
 30
0.0
  0
VERTEX
  5
3E0
  8
VERSION_3$HOLDER-BASE$HOLE
 10
167.7759506326927
 20
-117.9729639656157
 30
0.0
  0
VERTEX
  5
3E1
  8
VERSION_3$HOLDER-BASE$HOLE
 10
167.796214598529
 20
-117.9313444160298
 30
0.0
  0
VERTEX
  5
3E2
  8
VERSION_3$HOLDER-BASE$HOLE
 10
167.815515714276
 20
-117.8895064437279
 30
0.0
  0
VERTEX
  5
3E3
  8
VERSION_3$HOLDER-BASE$HOLE
 10
167.8338498650002
 20
-117.847472227743
 30
0.0
  0
VERTEX
  5
3E4
  8
VERSION_3$HOLDER-BASE$HOLE
 10
167.8512139335926
 20
-117.8052639658809
 30
0.0
  0
VERTEX
  5
3E5
  8
VERSION_3$HOLDER-BASE$HOLE
 10
167.8676057955932
 20
-117.7629038376941
 30
0.0
  0
VERTEX
  5
3E6
  8
VERSION_3$HOLDER-BASE$HOLE
 10
167.8830243116178
 20
-117.7204139679789
 30
0.0
  0
VERTEX
  5
3E7
  8
VERSION_3$HOLDER-BASE$HOLE
 10
167.8974693174514
 20
-117.6778163909148
 30
0.0
  0
VERTEX
  5
3E8
  8
VERSION_3$HOLDER-BASE$HOLE
 10
167.9109416118807
 20
-117.6351330149576
 30
0.0
  0
VERTEX
  5
3E9
  8
VERSION_3$HOLDER-BASE$HOLE
 10
167.9234429423486
 20
-117.5923855885963
 30
0.0
  0
VERTEX
  5
3EA
  8
VERSION_3$HOLDER-BASE$HOLE
 10
167.9349759885203
 20
-117.5495956670725
 30
0.0
  0
VERTEX
  5
3EB
  8
VERSION_3$HOLDER-BASE$HOLE
 10
167.9455443438595
 20
-117.5067845801586
 30
0.0
  0
VERTEX
  5
3EC
  8
VERSION_3$HOLDER-BASE$HOLE
 10
167.9551524953199
 20
-117.4639734010821
 30
0.0
  0
VERTEX
  5
3ED
  8
VERSION_3$HOLDER-BASE$HOLE
 10
167.9638058012612
 20
-117.4211829166763
 30
0.0
  0
VERTEX
  5
3EE
  8
VERSION_3$HOLDER-BASE$HOLE
 10
167.9715104677066
 20
-117.3784335988295
 30
0.0
  0
VERTEX
  5
3EF
  8
VERSION_3$HOLDER-BASE$HOLE
 10
167.978273523062
 20
-117.3357455772988
 30
0.0
  0
VERTEX
  5
3F0
  8
VERSION_3$HOLDER-BASE$HOLE
 10
167.9841027914199
 20
-117.2931386139443
 30
0.0
  0
VERTEX
  5
3F1
  8
VERSION_3$HOLDER-BASE$HOLE
 10
167.9890068645744
 20
-117.250632078433
 30
0.0
  0
VERTEX
  5
3F2
  8
VERSION_3$HOLDER-BASE$HOLE
 10
167.9929950728766
 20
-117.2082449254537
 30
0.0
  0
VERTEX
  5
3F3
  8
VERSION_3$HOLDER-BASE$HOLE
 10
167.9960774550582
 20
-117.1659956734759
 30
0.0
  0
VERTEX
  5
3F4
  8
VERSION_3$HOLDER-BASE$HOLE
 10
167.998264727154
 20
-117.1239023850765
 30
0.0
  0
VERTEX
  5
3F5
  8
VERSION_3$HOLDER-BASE$HOLE
 10
167.9995682506522
 20
-117.0819826488539
 30
0.0
  0
VERTEX
  5
3F6
  8
VERSION_3$HOLDER-BASE$HOLE
 10
168.0000000000002
 20
-117.040253562937
 30
0.0
  0
VERTEX
  5
3F7
  8
VERSION_3$HOLDER-BASE$HOLE
 10
167.9999999999998
 20
-78.60600258461916
 30
0.0
  0
VERTEX
  5
3F8
  8
VERSION_3$HOLDER-BASE$HOLE
 10
167.9995682506519
 20
-78.5642734987023
 30
0.0
  0
VERTEX
  5
3F9
  8
VERSION_3$HOLDER-BASE$HOLE
 10
167.9982647271537
 20
-78.52235376247967
 30
0.0
  0
VERTEX
  5
3FA
  8
VERSION_3$HOLDER-BASE$HOLE
 10
167.9960774550579
 20
-78.4802604740803
 30
0.0
  0
VERTEX
  5
3FB
  8
VERSION_3$HOLDER-BASE$HOLE
 10
167.9929950728763
 20
-78.43801122210247
 30
0.0
  0
VERTEX
  5
3FC
  8
VERSION_3$HOLDER-BASE$HOLE
 10
167.9890068645742
 20
-78.39562406912324
 30
0.0
  0
VERTEX
  5
3FD
  8
VERSION_3$HOLDER-BASE$HOLE
 10
167.9841027914196
 20
-78.35311753361191
 30
0.0
  0
VERTEX
  5
3FE
  8
VERSION_3$HOLDER-BASE$HOLE
 10
167.9782735230617
 20
-78.31051057025742
 30
0.0
  0
VERTEX
  5
3FF
  8
VERSION_3$HOLDER-BASE$HOLE
 10
167.9715104677063
 20
-78.2678225487268
 30
0.0
  0
VERTEX
  5
400
  8
VERSION_3$HOLDER-BASE$HOLE
 10
167.9638058012609
 20
-78.22507323088003
 30
0.0
  0
VERTEX
  5
401
  8
VERSION_3$HOLDER-BASE$HOLE
 10
167.9551524953196
 20
-78.1822827464742
 30
0.0
  0
VERTEX
  5
402
  8
VERSION_3$HOLDER-BASE$HOLE
 10
167.9455443438592
 20
-78.13947156739772
 30
0.0
  0
VERTEX
  5
403
  8
VERSION_3$HOLDER-BASE$HOLE
 10
167.9349759885199
 20
-78.09666048048376
 30
0.0
  0
VERTEX
  5
404
  8
VERSION_3$HOLDER-BASE$HOLE
 10
167.9234429423483
 20
-78.05387055895993
 30
0.0
  0
VERTEX
  5
405
  8
VERSION_3$HOLDER-BASE$HOLE
 10
167.9109416118804
 20
-78.01112313259866
 30
0.0
  0
VERTEX
  5
406
  8
VERSION_3$HOLDER-BASE$HOLE
 10
167.8974693174511
 20
-77.96843975664152
 30
0.0
  0
VERTEX
  5
407
  8
VERSION_3$HOLDER-BASE$HOLE
 10
167.8830243116176
 20
-77.92584217957736
 30
0.0
  0
VERTEX
  5
408
  8
VERSION_3$HOLDER-BASE$HOLE
 10
167.8676057955929
 20
-77.88335230986219
 30
0.0
  0
VERTEX
  5
409
  8
VERSION_3$HOLDER-BASE$HOLE
 10
167.8512139335924
 20
-77.84099218167538
 30
0.0
  0
VERTEX
  5
40A
  8
VERSION_3$HOLDER-BASE$HOLE
 10
167.833849865
 20
-77.79878391981332
 30
0.0
  0
VERTEX
  5
40B
  8
VERSION_3$HOLDER-BASE$HOLE
 10
167.8155157142758
 20
-77.75674970382846
 30
0.0
  0
VERTEX
  5
40C
  8
VERSION_3$HOLDER-BASE$HOLE
 10
167.7962145985287
 20
-77.7149117315265
 30
0.0
  0
VERTEX
  5
40D
  8
VERSION_3$HOLDER-BASE$HOLE
 10
167.7759506326925
 20
-77.67329218194058
 30
0.0
  0
VERTEX
  5
40E
  8
VERSION_3$HOLDER-BASE$HOLE
 10
167.7547289322499
 20
-77.63191317790466
 30
0.0
  0
VERTEX
  5
40F
  8
VERSION_3$HOLDER-BASE$HOLE
 10
167.7325556134643
 20
-77.59079674835387
 30
0.0
  0
VERTEX
  5
410
  8
VERSION_3$HOLDER-BASE$HOLE
 10
167.7094377910851
 20
-77.54996479048037
 30
0.0
  0
VERTEX
  5
411
  8
VERSION_3$HOLDER-BASE$HOLE
 10
167.6853835735078
 20
-77.5094390318786
 30
0.0
  0
VERTEX
  5
412
  8
VERSION_3$HOLDER-BASE$HOLE
 10
167.6604020553806
 20
-77.4692409928127
 30
0.0
  0
VERTEX
  5
413
  8
VERSION_3$HOLDER-BASE$HOLE
 10
167.6345033076598
 20
-77.42939194874171
 30
0.0
  0
VERTEX
  5
414
  8
VERSION_3$HOLDER-BASE$HOLE
 10
167.6076983651311
 20
-77.38991289323688
 30
0.0
  0
VERTEX
  5
415
  8
VERSION_3$HOLDER-BASE$HOLE
 10
167.5799992114241
 20
-77.35082450142625
 30
0.0
  0
VERTEX
  5
416
  8
VERSION_3$HOLDER-BASE$HOLE
 10
167.5514187615587
 20
-77.31214709409775
 30
0.0
  0
VERTEX
  5
417
  8
VERSION_3$HOLDER-BASE$HOLE
 10
167.5219708420776
 20
-77.27390060259226
 30
0.0
  0
VERTEX
  5
418
  8
VERSION_3$HOLDER-BASE$HOLE
 10
167.4916701688264
 20
-77.23610453461288
 30
0.0
  0
VERTEX
  5
419
  8
VERSION_3$HOLDER-BASE$HOLE
 10
167.4605323224556
 20
-77.19877794107352
 30
0.0
  0
VERTEX
  5
41A
  8
VERSION_3$HOLDER-BASE$HOLE
 10
167.4285737217324
 20
-77.16193938410522
 30
0.0
  0
VERTEX
  5
41B
  8
VERSION_3$HOLDER-BASE$HOLE
 10
167.3958115947558
 20
-77.12560690633289
 30
0.0
  0
VERTEX
  5
41C
  8
VERSION_3$HOLDER-BASE$HOLE
 10
167.3622639481821
 20
-77.08979800152875
 30
0.0
  0
VERTEX
  5
41D
  8
VERSION_3$HOLDER-BASE$HOLE
 10
167.3279495345749
 20
-77.05452958674312
 30
0.0
  0
VERTEX
  5
41E
  8
VERSION_3$HOLDER-BASE$HOLE
 10
167.2928878180035
 20
-77.01981797600385
 30
0.0
  0
VERTEX
  5
41F
  8
VERSION_3$HOLDER-BASE$HOLE
 10
167.2570989380197
 20
-76.98567885567016
 30
0.0
  0
VERTEX
  5
420
  8
VERSION_3$HOLDER-BASE$HOLE
 10
167.2206036721509
 20
-76.95212726151604
 30
0.0
  0
VERTEX
  5
421
  8
VERSION_3$HOLDER-BASE$HOLE
 10
167.1834233970534
 20
-76.91917755761168
 30
0.0
  0
VERTEX
  5
422
  8
VERSION_3$HOLDER-BASE$HOLE
 10
167.1455800484726
 20
-76.88684341706032
 30
0.0
  0
VERTEX
  5
423
  8
VERSION_3$HOLDER-BASE$HOLE
 10
167.1070960801646
 20
-76.85513780464089
 30
0.0
  0
VERTEX
  5
424
  8
VERSION_3$HOLDER-BASE$HOLE
 10
167.0679944219326
 20
-76.8240729613946
 30
0.0
  0
VERTEX
  5
425
  8
VERSION_3$HOLDER-BASE$HOLE
 10
167.0282984369367
 20
-76.79366039118719
 30
0.0
  0
VERTEX
  5
426
  8
VERSION_3$HOLDER-BASE$HOLE
 10
166.9472188461147
 20
-76.73483433282168
 30
0.0
  0
VERTEX
  5
427
  8
VERSION_3$HOLDER-BASE$HOLE
 10
166.8640512272897
 20
-76.67873653228047
 30
0.0
  0
VERTEX
  5
428
  8
VERSION_3$HOLDER-BASE$HOLE
 10
166.7789936363578
 20
-76.62543157352681
 30
0.0
  0
VERTEX
  5
429
  8
VERSION_3$HOLDER-BASE$HOLE
 10
166.6922468644688
 20
-76.5749716422941
 30
0.0
  0
VERTEX
  5
42A
  8
VERSION_3$HOLDER-BASE$HOLE
 10
166.6040130593084
 20
-76.52739656933298
 30
0.0
  0
VERTEX
  5
42B
  8
VERSION_3$HOLDER-BASE$HOLE
 10
166.5144943862845
 20
-76.48273399056063
 30
0.0
  0
VERTEX
  5
42C
  8
VERSION_3$HOLDER-BASE$HOLE
 10
166.4238917455908
 20
-76.44099961652991
 30
0.0
  0
VERTEX
  5
42D
  8
VERSION_3$HOLDER-BASE$HOLE
 10
166.3324035592533
 20
-76.40219760212992
 30
0.0
  0
VERTEX
  5
42E
  8
VERSION_3$HOLDER-BASE$HOLE
 10
166.2402246402033
 20
-76.3663210062277
 30
0.0
  0
VERTEX
  5
42F
  8
VERSION_3$HOLDER-BASE$HOLE
 10
166.146610969728
 20
-76.33303538153571
 30
0.0
  0
VERTEX
  5
430
  8
VERSION_3$HOLDER-BASE$HOLE
 10
166.0507657473298
 20
-76.30210159768484
 30
0.0
  0
VERTEX
  5
431
  8
VERSION_3$HOLDER-BASE$HOLE
 10
165.9528108229042
 20
-76.27364447512893
 30
0.0
  0
VERTEX
  5
432
  8
VERSION_3$HOLDER-BASE$HOLE
 10
165.8528806104183
 20
-76.24778375884176
 30
0.0
  0
VERTEX
  5
433
  8
VERSION_3$HOLDER-BASE$HOLE
 10
165.751121765601
 20
-76.2246331177009
 30
0.0
  0
VERTEX
  5
434
  8
VERSION_3$HOLDER-BASE$HOLE
 10
165.6476927270605
 20
-76.20429915243746
 30
0.0
  0
VERTEX
  5
435
  8
VERSION_3$HOLDER-BASE$HOLE
 10
165.5427631193039
 20
-76.18688042635878
 30
0.0
  0
VERTEX
  5
436
  8
VERSION_3$HOLDER-BASE$HOLE
 10
165.4365130185998
 20
-76.17246653353276
 30
0.0
  0
VERTEX
  5
437
  8
VERSION_3$HOLDER-BASE$HOLE
 10
165.3291320852339
 20
-76.16113721928362
 30
0.0
  0
VERTEX
  5
438
  8
VERSION_3$HOLDER-BASE$HOLE
 10
165.2208185683959
 20
-76.15296156766524
 30
0.0
  0
VERTEX
  5
439
  8
VERSION_3$HOLDER-BASE$HOLE
 10
165.1117781926321
 20
-76.14799727002757
 30
0.0
  0
VERTEX
  5
43A
  8
VERSION_3$HOLDER-BASE$HOLE
 10
165.0022229374082
 20
-76.14628998787231
 30
0.0
  0
VERTEX
  5
43B
  8
VERSION_3$HOLDER-BASE$HOLE
 10
164.8923697237874
 20
-76.14787282191266
 30
0.0
  0
VERTEX
  5
43C
  8
VERSION_3$HOLDER-BASE$HOLE
 10
164.7824390244331
 20
-76.15276589762897
 30
0.0
  0
VERTEX
  5
43D
  8
VERSION_3$HOLDER-BASE$HOLE
 10
164.67265341504
 20
-76.16097607568561
 30
0.0
  0
VERTEX
  5
43E
  8
VERSION_3$HOLDER-BASE$HOLE
 10
164.5632360867958
 20
-76.17249679339092
 30
0.0
  0
VERTEX
  5
43F
  8
VERSION_3$HOLDER-BASE$HOLE
 10
164.4544093405323
 20
-76.18730804100147
 30
0.0
  0
VERTEX
  5
440
  8
VERSION_3$HOLDER-BASE$HOLE
 10
164.346393083795
 20
-76.20537647416312
 30
0.0
  0
VERTEX
  5
441
  8
VERSION_3$HOLDER-BASE$HOLE
 10
164.2394033521176
 20
-76.22665566121785
 30
0.0
  0
VERTEX
  5
442
  8
VERSION_3$HOLDER-BASE$HOLE
 10
164.1336508753345
 20
-76.25108646156565
 30
0.0
  0
VERTEX
  5
443
  8
VERSION_3$HOLDER-BASE$HOLE
 10
164.0293397088049
 20
-76.27859752882961
 30
0.0
  0
VERTEX
  5
444
  8
VERSION_3$HOLDER-BASE$HOLE
 10
163.926665947996
 20
-76.30910593030465
 30
0.0
  0
VERTEX
  5
445
  8
VERSION_3$HOLDER-BASE$HOLE
 10
163.8258165430258
 20
-76.34251787214005
 30
0.0
  0
VERTEX
  5
446
  8
VERSION_3$HOLDER-BASE$HOLE
 10
163.7269682275599
 20
-76.37872951796959
 30
0.0
  0
VERTEX
  5
447
  8
VERSION_3$HOLDER-BASE$HOLE
 10
163.6302865739729
 20
-76.41762788730446
 30
0.0
  0
VERTEX
  5
448
  8
VERSION_3$HOLDER-BASE$HOLE
 10
163.5359251839944
 20
-76.45909181897218
 30
0.0
  0
VERTEX
  5
449
  8
VERSION_3$HOLDER-BASE$HOLE
 10
163.4440250212623
 20
-76.50299298423724
 30
0.0
  0
VERTEX
  5
44A
  8
VERSION_3$HOLDER-BASE$HOLE
 10
163.3547138893776
 20
-76.54919693397662
 30
0.0
  0
VERTEX
  5
44B
  8
VERSION_3$HOLDER-BASE$HOLE
 10
163.2681060562813
 20
-76.59756416439224
 30
0.0
  0
VERTEX
  5
44C
  8
VERSION_3$HOLDER-BASE$HOLE
 10
163.1843020231379
 20
-76.64795118620133
 30
0.0
  0
VERTEX
  5
44D
  8
VERSION_3$HOLDER-BASE$HOLE
 10
163.1033884334614
 20
-76.70021158301675
 30
0.0
  0
SEQEND
  5
44E
  8
VERSION_3$HOLDER-BASE$HOLE
  0
POLYLINE
  5
44F
  8
VERSION_3$HOLDER-BASE$HOLE
 66
     1
 10
0.0
 20
0.0
 30
0.0
 70
     1
  0
VERTEX
  5
450
  8
VERSION_3$HOLDER-BASE$HOLE
 10
79.03877370994006
 20
-10.60395139364704
 30
0.0
  0
VERTEX
  5
451
  8
VERSION_3$HOLDER-BASE$HOLE
 10
80.355582563917
 20
-8.824311537742071
 30
0.0
  0
VERTEX
  5
452
  8
VERSION_3$HOLDER-BASE$HOLE
 10
81.67239135661316
 20
-7.159487177452936
 30
0.0
  0
VERTEX
  5
453
  8
VERSION_3$HOLDER-BASE$HOLE
 10
82.3307957305558
 20
-6.370130808966283
 30
0.0
  0
VERTEX
  5
454
  8
VERSION_3$HOLDER-BASE$HOLE
 10
82.98920008986809
 20
-5.60947831534596
 30
0.0
  0
VERTEX
  5
455
  8
VERSION_3$HOLDER-BASE$HOLE
 10
83.64760443477996
 20
-4.87752969691276
 30
0.0
  0
VERTEX
  5
456
  8
VERSION_3$HOLDER-BASE$HOLE
 10
84.30600876552136
 20
-4.174284953987472
 30
0.0
  0
VERTEX
  5
457
  8
VERSION_3$HOLDER-BASE$HOLE
 10
84.96441308232222
 20
-3.499744086890888
 30
0.0
  0
VERTEX
  5
458
  8
VERSION_3$HOLDER-BASE$HOLE
 10
85.62281738541253
 20
-2.853907095943799
 30
0.0
  0
VERTEX
  5
459
  8
VERSION_3$HOLDER-BASE$HOLE
 10
86.28122167502218
 20
-2.236773981466995
 30
0.0
  0
VERTEX
  5
45A
  8
VERSION_3$HOLDER-BASE$HOLE
 10
86.93962595138115
 20
-1.648344743781268
 30
0.0
  0
VERTEX
  5
45B
  8
VERSION_3$HOLDER-BASE$HOLE
 10
87.59803021471936
 20
-1.088619383207409
 30
0.0
  0
VERTEX
  5
45C
  8
VERSION_3$HOLDER-BASE$HOLE
 10
88.25643446526676
 20
-0.5575979000662082
 30
0.0
  0
VERTEX
  5
45D
  8
VERSION_3$HOLDER-BASE$HOLE
 10
88.91483870325331
 20
-0.0552802946784574
 30
0.0
  0
VERTEX
  5
45E
  8
VERSION_3$HOLDER-BASE$HOLE
 10
89.57324292890897
 20
0.4183334326350527
 30
0.0
  0
VERTEX
  5
45F
  8
VERSION_3$HOLDER-BASE$HOLE
 10
90.23164714246366
 20
0.8632432815535312
 30
0.0
  0
VERTEX
  5
460
  8
VERSION_3$HOLDER-BASE$HOLE
 10
90.89005134414731
 20
1.279449251756187
 30
0.0
  0
VERTEX
  5
461
  8
VERSION_3$HOLDER-BASE$HOLE
 10
91.54845553418987
 20
1.666951342922229
 30
0.0
  0
VERTEX
  5
462
  8
VERSION_3$HOLDER-BASE$HOLE
 10
92.20685971282131
 20
2.025749554730866
 30
0.0
  0
VERTEX
  5
463
  8
VERSION_3$HOLDER-BASE$HOLE
 10
92.86526388027158
 20
2.355843886861308
 30
0.0
  0
VERTEX
  5
464
  8
VERSION_3$HOLDER-BASE$HOLE
 10
93.19446595987563
 20
2.510127097946958
 30
0.0
  0
VERTEX
  5
465
  8
VERSION_3$HOLDER-BASE$HOLE
 10
93.52366803677059
 20
2.657234338992763
 30
0.0
  0
VERTEX
  5
466
  8
VERSION_3$HOLDER-BASE$HOLE
 10
93.85287011098524
 20
2.797165609958623
 30
0.0
  0
VERTEX
  5
467
  8
VERSION_3$HOLDER-BASE$HOLE
 10
94.1820721825483
 20
2.92992091080444
 30
0.0
  0
VERTEX
  5
468
  8
VERSION_3$HOLDER-BASE$HOLE
 10
94.51127425148852
 20
3.055500241490115
 30
0.0
  0
VERTEX
  5
469
  8
VERSION_3$HOLDER-BASE$HOLE
 10
94.84047631783464
 20
3.173903601975549
 30
0.0
  0
VERTEX
  5
46A
  8
VERSION_3$HOLDER-BASE$HOLE
 10
95.1696783816154
 20
3.285130992220644
 30
0.0
  0
VERTEX
  5
46B
  8
VERSION_3$HOLDER-BASE$HOLE
 10
95.49888044285959
 20
3.389182412185298
 30
0.0
  0
VERTEX
  5
46C
  8
VERSION_3$HOLDER-BASE$HOLE
 10
95.82808250159589
 20
3.486057861829416
 30
0.0
  0
VERTEX
  5
46D
  8
VERSION_3$HOLDER-BASE$HOLE
 10
96.15728455785307
 20
3.575757341112896
 30
0.0
  0
VERTEX
  5
46E
  8
VERSION_3$HOLDER-BASE$HOLE
 10
96.48648661165987
 20
3.658280849995642
 30
0.0
  0
VERTEX
  5
46F
  8
VERSION_3$HOLDER-BASE$HOLE
 10
96.81568866304504
 20
3.733628388437553
 30
0.0
  0
VERTEX
  5
470
  8
VERSION_3$HOLDER-BASE$HOLE
 10
97.14489071203731
 20
3.801799956398531
 30
0.0
  0
VERTEX
  5
471
  8
VERSION_3$HOLDER-BASE$HOLE
 10
97.47409275866542
 20
3.862795553838478
 30
0.0
  0
VERTEX
  5
472
  8
VERSION_3$HOLDER-BASE$HOLE
 10
97.80329480295813
 20
3.916615180717293
 30
0.0
  0
VERTEX
  5
473
  8
VERSION_3$HOLDER-BASE$HOLE
 10
98.13249684494417
 20
3.963258836994878
 30
0.0
  0
VERTEX
  5
474
  8
VERSION_3$HOLDER-BASE$HOLE
 10
98.4616988846523
 20
4.002726522631135
 30
0.0
  0
VERTEX
  5
475
  8
VERSION_3$HOLDER-BASE$HOLE
 10
98.79090092211125
 20
4.035018237585964
 30
0.0
  0
VERTEX
  5
476
  8
VERSION_3$HOLDER-BASE$HOLE
 10
99.12010295734976
 20
4.060133981819267
 30
0.0
  0
VERTEX
  5
477
  8
VERSION_3$HOLDER-BASE$HOLE
 10
99.44930499039658
 20
4.078073755290944
 30
0.0
  0
VERTEX
  5
478
  8
VERSION_3$HOLDER-BASE$HOLE
 10
99.77850702128046
 20
4.088837557960898
 30
0.0
  0
VERTEX
  5
479
  8
VERSION_3$HOLDER-BASE$HOLE
 10
100.1077090500301
 20
4.092425389789028
 30
0.0
  0
VERTEX
  5
47A
  8
VERSION_3$HOLDER-BASE$HOLE
 10
100.4369110766743
 20
4.088837250735236
 30
0.0
  0
VERTEX
  5
47B
  8
VERSION_3$HOLDER-BASE$HOLE
 10
100.7661131012418
 20
4.078073140759424
 30
0.0
  0
VERTEX
  5
47C
  8
VERSION_3$HOLDER-BASE$HOLE
 10
101.0953151237613
 20
4.060133059821492
 30
0.0
  0
VERTEX
  5
47D
  8
VERSION_3$HOLDER-BASE$HOLE
 10
101.4245171442616
 20
4.035017007881342
 30
0.0
  0
VERTEX
  5
47E
  8
VERSION_3$HOLDER-BASE$HOLE
 10
101.7537191627714
 20
4.002724984898874
 30
0.0
  0
VERTEX
  5
47F
  8
VERSION_3$HOLDER-BASE$HOLE
 10
102.0829211793194
 20
3.96325699083399
 30
0.0
  0
VERTEX
  5
480
  8
VERSION_3$HOLDER-BASE$HOLE
 10
102.4121231939344
 20
3.916613025646591
 30
0.0
  0
VERTEX
  5
481
  8
VERSION_3$HOLDER-BASE$HOLE
 10
102.7413252066452
 20
3.862793089296577
 30
0.0
  0
VERTEX
  5
482
  8
VERSION_3$HOLDER-BASE$HOLE
 10
103.0705272174804
 20
3.801797181743851
 30
0.0
  0
VERTEX
  5
483
  8
VERSION_3$HOLDER-BASE$HOLE
 10
103.3997292264689
 20
3.733625302948313
 30
0.0
  0
VERTEX
  5
484
  8
VERSION_3$HOLDER-BASE$HOLE
 10
103.7289312336394
 20
3.658277452869864
 30
0.0
  0
VERTEX
  5
485
  8
VERSION_3$HOLDER-BASE$HOLE
 10
104.0581332390205
 20
3.575753631468406
 30
0.0
  0
VERTEX
  5
486
  8
VERSION_3$HOLDER-BASE$HOLE
 10
104.3873352426412
 20
3.48605383870384
 30
0.0
  0
VERTEX
  5
487
  8
VERSION_3$HOLDER-BASE$HOLE
 10
104.71653724453
 20
3.389178074536066
 30
0.0
  0
VERTEX
  5
488
  8
VERSION_3$HOLDER-BASE$HOLE
 10
105.0457392447157
 20
3.285126338924985
 30
0.0
  0
VERTEX
  5
489
  8
VERSION_3$HOLDER-BASE$HOLE
 10
105.3749412432271
 20
3.173898631830501
 30
0.0
  0
VERTEX
  5
48A
  8
VERSION_3$HOLDER-BASE$HOLE
 10
105.704143240093
 20
3.055494953212512
 30
0.0
  0
VERTEX
  5
48B
  8
VERSION_3$HOLDER-BASE$HOLE
 10
106.033345235342
 20
2.929915303030921
 30
0.0
  0
VERTEX
  5
48C
  8
VERSION_3$HOLDER-BASE$HOLE
 10
106.362547229003
 20
2.797159681245627
 30
0.0
  0
VERTEX
  5
48D
  8
VERSION_3$HOLDER-BASE$HOLE
 10
106.6917492211046
 20
2.657228087816534
 30
0.0
  0
VERTEX
  5
48E
  8
VERSION_3$HOLDER-BASE$HOLE
 10
107.0209512116756
 20
2.51012052270354
 30
0.0
  0
VERTEX
  5
48F
  8
VERSION_3$HOLDER-BASE$HOLE
 10
107.3501532007447
 20
2.355836985866548
 30
0.0
  0
VERTEX
  5
490
  8
VERSION_3$HOLDER-BASE$HOLE
 10
108.0085571744924
 20
2.025741996860175
 30
0.0
  0
VERTEX
  5
491
  8
VERSION_3$HOLDER-BASE$HOLE
 10
108.6669611425775
 20
1.666943120476623
 30
0.0
  0
VERTEX
  5
492
  8
VERSION_3$HOLDER-BASE$HOLE
 10
109.3253651052302
 20
1.279440356395099
 30
0.0
  0
VERTEX
  5
493
  8
VERSION_3$HOLDER-BASE$HOLE
 10
109.9837690626801
 20
0.8632337042948147
 30
0.0
  0
VERTEX
  5
494
  8
VERSION_3$HOLDER-BASE$HOLE
 10
110.6421730151574
 20
0.4183231638549776
 30
0.0
  0
VERTEX
  5
495
  8
VERSION_3$HOLDER-BASE$HOLE
 10
111.300576962892
 20
-0.0552912652452031
 30
0.0
  0
VERTEX
  5
496
  8
VERSION_3$HOLDER-BASE$HOLE
 10
111.9589809061138
 20
-0.5576095833265183
 30
0.0
  0
VERTEX
  5
497
  8
VERSION_3$HOLDER-BASE$HOLE
 10
112.6173848450527
 20
-1.088631790709759
 30
0.0
  0
VERTEX
  5
498
  8
VERSION_3$HOLDER-BASE$HOLE
 10
113.2757887799387
 20
-1.648357887715716
 30
0.0
  0
VERTEX
  5
499
  8
VERSION_3$HOLDER-BASE$HOLE
 10
113.9341927110018
 20
-2.236787874665181
 30
0.0
  0
VERTEX
  5
49A
  8
VERSION_3$HOLDER-BASE$HOLE
 10
114.5925966384719
 20
-2.853921751878944
 30
0.0
  0
VERTEX
  5
49B
  8
VERSION_3$HOLDER-BASE$HOLE
 10
115.2510005625788
 20
-3.499759519677797
 30
0.0
  0
VERTEX
  5
49C
  8
VERSION_3$HOLDER-BASE$HOLE
 10
115.9094044835527
 20
-4.17430117838253
 30
0.0
  0
VERTEX
  5
49D
  8
VERSION_3$HOLDER-BASE$HOLE
 10
116.5678084016234
 20
-4.877546728313934
 30
0.0
  0
VERTEX
  5
49E
  8
VERSION_3$HOLDER-BASE$HOLE
 10
117.2262123170209
 20
-5.609496169792802
 30
0.0
  0
VERTEX
  5
49F
  8
VERSION_3$HOLDER-BASE$HOLE
 10
117.8846162299751
 20
-6.370149503139922
 30
0.0
  0
VERTEX
  5
4A0
  8
VERSION_3$HOLDER-BASE$HOLE
 10
118.5430201407159
 20
-7.159506728676087
 30
0.0
  0
VERTEX
  5
4A1
  8
VERSION_3$HOLDER-BASE$HOLE
 10
119.8598279564774
 20
-8.824332857598714
 30
0.0
  0
VERTEX
  5
4A2
  8
VERSION_3$HOLDER-BASE$HOLE
 10
121.1766357661448
 20
-10.60397455912701
 30
0.0
  0
VERTEX
  5
4A3
  8
VERSION_3$HOLDER-BASE$HOLE
 10
121.2306211859469
 20
-10.68192490623083
 30
0.0
  0
VERTEX
  5
4A4
  8
VERSION_3$HOLDER-BASE$HOLE
 10
121.2828815382798
 20
-10.76283852463771
 30
0.0
  0
VERTEX
  5
4A5
  8
VERSION_3$HOLDER-BASE$HOLE
 10
121.3332685140172
 20
-10.84664258548159
 30
0.0
  0
VERTEX
  5
4A6
  8
VERSION_3$HOLDER-BASE$HOLE
 10
121.3816356968198
 20
-10.93325044516791
 30
0.0
  0
VERTEX
  5
4A7
  8
VERSION_3$HOLDER-BASE$HOLE
 10
121.42783959746
 20
-11.02256160245351
 30
0.0
  0
VERTEX
  5
4A8
  8
VERSION_3$HOLDER-BASE$HOLE
 10
121.4717407122025
 20
-11.11446178932041
 30
0.0
  0
VERTEX
  5
4A9
  8
VERSION_3$HOLDER-BASE$HOLE
 10
121.5132045919946
 20
-11.2088232020939
 30
0.0
  0
VERTEX
  5
4AA
  8
VERSION_3$HOLDER-BASE$HOLE
 10
121.5521029081784
 20
-11.30550487706543
 30
0.0
  0
VERTEX
  5
4AB
  8
VERSION_3$HOLDER-BASE$HOLE
 10
121.5883144996656
 20
-11.40435321243883
 30
0.0
  0
VERTEX
  5
4AC
  8
VERSION_3$HOLDER-BASE$HOLE
 10
121.6217263860586
 20
-11.50520263577745
 30
0.0
  0
VERTEX
  5
4AD
  8
VERSION_3$HOLDER-BASE$HOLE
 10
121.6522347310883
 20
-11.60787641335843
 30
0.0
  0
VERTEX
  5
4AE
  8
VERSION_3$HOLDER-BASE$HOLE
 10
121.6797457410068
 20
-11.71218759501237
 30
0.0
  0
VERTEX
  5
4AF
  8
VERSION_3$HOLDER-BASE$HOLE
 10
121.7041764832167
 20
-11.81794008522642
 30
0.0
  0
VERTEX
  5
4B0
  8
VERSION_3$HOLDER-BASE$HOLE
 10
121.7254556114533
 20
-11.92492982860216
 30
0.0
  0
VERTEX
  5
4B1
  8
VERSION_3$HOLDER-BASE$HOLE
 10
121.7435239852326
 20
-12.03294609527267
 30
0.0
  0
VERTEX
  5
4B2
  8
VERSION_3$HOLDER-BASE$HOLE
 10
121.7583351730151
 20
-12.14177284967868
 30
0.0
  0
VERTEX
  5
4B3
  8
VERSION_3$HOLDER-BASE$HOLE
 10
121.7698558305678
 20
-12.25119018425646
 30
0.0
  0
VERTEX
  5
4B4
  8
VERSION_3$HOLDER-BASE$HOLE
 10
121.7780659482693
 20
-12.36097579816311
 30
0.0
  0
VERTEX
  5
4B5
  8
VERSION_3$HOLDER-BASE$HOLE
 10
121.7829589635507
 20
-12.47090650020738
 30
0.0
  0
VERTEX
  5
4B6
  8
VERSION_3$HOLDER-BASE$HOLE
 10
121.7845417371988
 20
-12.58075971469836
 30
0.0
  0
VERTEX
  5
4B7
  8
VERSION_3$HOLDER-BASE$HOLE
 10
121.782834394815
 20
-12.69031496898369
 30
0.0
  0
VERTEX
  5
4B8
  8
VERSION_3$HOLDER-BASE$HOLE
 10
121.7778700372319
 20
-12.79935534201841
 30
0.0
  0
VERTEX
  5
4B9
  8
VERSION_3$HOLDER-BASE$HOLE
 10
121.7696943260677
 20
-12.90766885436174
 30
0.0
  0
VERTEX
  5
4BA
  8
VERSION_3$HOLDER-BASE$HOLE
 10
121.7583649527854
 20
-13.01504978149935
 30
0.0
  0
VERTEX
  5
4BB
  8
VERSION_3$HOLDER-BASE$HOLE
 10
121.7439510015479
 20
-13.1212998742793
 30
0.0
  0
VERTEX
  5
4BC
  8
VERSION_3$HOLDER-BASE$HOLE
 10
121.7265322177838
 20
-13.22622947245985
 30
0.0
  0
VERTEX
  5
4BD
  8
VERSION_3$HOLDER-BASE$HOLE
 10
121.7061981956598
 20
-13.32965849982163
 30
0.0
  0
VERTEX
  5
4BE
  8
VERSION_3$HOLDER-BASE$HOLE
 10
121.6830474985765
 20
-13.43141733191175
 30
0.0
  0
VERTEX
  5
4BF
  8
VERSION_3$HOLDER-BASE$HOLE
 10
121.6571867273523
 20
-13.53134753018067
 30
0.0
  0
VERTEX
  5
4C0
  8
VERSION_3$HOLDER-BASE$HOLE
 10
121.6287295509452
 20
-13.6293024389618
 30
0.0
  0
VERTEX
  5
4C1
  8
VERSION_3$HOLDER-BASE$HOLE
 10
121.597795714403
 20
-13.72514764435408
 30
0.0
  0
VERTEX
  5
4C2
  8
VERSION_3$HOLDER-BASE$HOLE
 10
121.5645100382465
 20
-13.81876129653048
 30
0.0
  0
VERTEX
  5
4C3
  8
VERSION_3$HOLDER-BASE$HOLE
 10
121.5286333916685
 20
-13.91094019585711
 30
0.0
  0
VERTEX
  5
4C4
  8
VERSION_3$HOLDER-BASE$HOLE
 10
121.4898313269725
 20
-14.00242836086298
 30
0.0
  0
VERTEX
  5
4C5
  8
VERSION_3$HOLDER-BASE$HOLE
 10
121.4480969031326
 20
-14.09303097861305
 30
0.0
  0
VERTEX
  5
4C6
  8
VERSION_3$HOLDER-BASE$HOLE
 10
121.4034342751469
 20
-14.18254962708353
 30
0.0
  0
VERTEX
  5
4C7
  8
VERSION_3$HOLDER-BASE$HOLE
 10
121.3558591536789
 20
-14.27078340608935
 30
0.0
  0
VERTEX
  5
4C8
  8
VERSION_3$HOLDER-BASE$HOLE
 10
121.3053991747567
 20
-14.35753015023782
 30
0.0
  0
VERTEX
  5
4C9
  8
VERSION_3$HOLDER-BASE$HOLE
 10
121.2520941692423
 20
-14.44258771186513
 30
0.0
  0
VERTEX
  5
4CA
  8
VERSION_3$HOLDER-BASE$HOLE
 10
121.1959963229793
 20
-14.52575529985001
 30
0.0
  0
VERTEX
  5
4CB
  8
VERSION_3$HOLDER-BASE$HOLE
 10
121.1371702200399
 20
-14.60683485833216
 30
0.0
  0
VERTEX
  5
4CC
  8
VERSION_3$HOLDER-BASE$HOLE
 10
121.1067576280094
 20
-14.64653082660864
 30
0.0
  0
VERTEX
  5
4CD
  8
VERSION_3$HOLDER-BASE$HOLE
 10
121.0756927632669
 20
-14.68563246776262
 30
0.0
  0
VERTEX
  5
4CE
  8
VERSION_3$HOLDER-BASE$HOLE
 10
121.0439871296907
 20
-14.72411641864033
 30
0.0
  0
VERTEX
  5
4CF
  8
VERSION_3$HOLDER-BASE$HOLE
 10
121.0116529683348
 20
-14.76195974944527
 30
0.0
  0
VERTEX
  5
4D0
  8
VERSION_3$HOLDER-BASE$HOLE
 10
120.9787032439904
 20
-14.79914000642854
 30
0.0
  0
VERTEX
  5
4D1
  8
VERSION_3$HOLDER-BASE$HOLE
 10
120.9451516297729
 20
-14.83563525385212
 30
0.0
  0
VERTEX
  5
4D2
  8
VERSION_3$HOLDER-BASE$HOLE
 10
120.9110124897641
 20
-14.87142411506781
 30
0.0
  0
VERTEX
  5
4D3
  8
VERSION_3$HOLDER-BASE$HOLE
 10
120.8763008597495
 20
-14.90648581255635
 30
0.0
  0
VERTEX
  5
4D4
  8
VERSION_3$HOLDER-BASE$HOLE
 10
120.8410324260994
 20
-14.94080020677458
 30
0.0
  0
VERTEX
  5
4D5
  8
VERSION_3$HOLDER-BASE$HOLE
 10
120.8052235028523
 20
-14.9743478336622
 30
0.0
  0
VERTEX
  5
4D6
  8
VERSION_3$HOLDER-BASE$HOLE
 10
120.7688910070688
 20
-15.00710994066484
 30
0.0
  0
VERTEX
  5
4D7
  8
VERSION_3$HOLDER-BASE$HOLE
 10
120.7320524325311
 20
-15.03906852113589
 30
0.0
  0
VERTEX
  5
4D8
  8
VERSION_3$HOLDER-BASE$HOLE
 10
120.6947258218736
 20
-15.07020634698624
 30
0.0
  0
VERTEX
  5
4D9
  8
VERSION_3$HOLDER-BASE$HOLE
 10
120.6569297372363
 20
-15.10050699945895
 30
0.0
  0
VERTEX
  5
4DA
  8
VERSION_3$HOLDER-BASE$HOLE
 10
120.6186832295417
 20
-15.1299548979138
 30
0.0
  0
VERTEX
  5
4DB
  8
VERSION_3$HOLDER-BASE$HOLE
 10
120.5800058065009
 20
-15.15853532651616
 30
0.0
  0
VERTEX
  5
4DC
  8
VERSION_3$HOLDER-BASE$HOLE
 10
120.5409173994625
 20
-15.18623445873422
 30
0.0
  0
VERTEX
  5
4DD
  8
VERSION_3$HOLDER-BASE$HOLE
 10
120.5014383292216
 20
-15.21303937955905
 30
0.0
  0
VERTEX
  5
4DE
  8
VERSION_3$HOLDER-BASE$HOLE
 10
120.4615892709126
 20
-15.23893810537264
 30
0.0
  0
VERTEX
  5
4DF
  8
VERSION_3$HOLDER-BASE$HOLE
 10
120.4213912181131
 20
-15.26391960140082
 30
0.0
  0
VERTEX
  5
4E0
  8
VERSION_3$HOLDER-BASE$HOLE
 10
120.3808654462874
 20
-15.28797379669889
 30
0.0
  0
VERTEX
  5
4E1
  8
VERSION_3$HOLDER-BASE$HOLE
 10
120.3400334757048
 20
-15.31109159663061
 30
0.0
  0
VERTEX
  5
4E2
  8
VERSION_3$HOLDER-BASE$HOLE
 10
120.298917033964
 20
-15.33326489281229
 30
0.0
  0
VERTEX
  5
4E3
  8
VERSION_3$HOLDER-BASE$HOLE
 10
120.2575380182614
 20
-15.35448657050657
 30
0.0
  0
VERTEX
  5
4E4
  8
VERSION_3$HOLDER-BASE$HOLE
 10
120.2159184575353
 20
-15.37475051346228
 30
0.0
  0
VERTEX
  5
4E5
  8
VERSION_3$HOLDER-BASE$HOLE
 10
120.1740804746225
 20
-15.39405160620868
 30
0.0
  0
VERTEX
  5
4E6
  8
VERSION_3$HOLDER-BASE$HOLE
 10
120.1320462485583
 20
-15.41238573382438
 30
0.0
  0
VERTEX
  5
4E7
  8
VERSION_3$HOLDER-BASE$HOLE
 10
120.0898379771503
 20
-15.42974977921262
 30
0.0
  0
VERTEX
  5
4E8
  8
VERSION_3$HOLDER-BASE$HOLE
 10
120.047477839952
 20
-15.44614161792552
 30
0.0
  0
VERTEX
  5
4E9
  8
VERSION_3$HOLDER-BASE$HOLE
 10
120.0049879617604
 20
-15.46156011059112
 30
0.0
  0
VERTEX
  5
4EA
  8
VERSION_3$HOLDER-BASE$HOLE
 10
119.962390376755
 20
-15.47600509300649
 30
0.0
  0
VERTEX
  5
4EB
  8
VERSION_3$HOLDER-BASE$HOLE
 10
119.9197069933914
 20
-15.48947736397045
 30
0.0
  0
VERTEX
  5
4EC
  8
VERSION_3$HOLDER-BASE$HOLE
 10
119.8769595601575
 20
-15.50197867093773
 30
0.0
  0
VERTEX
  5
4ED
  8
VERSION_3$HOLDER-BASE$HOLE
 10
119.8341696322934
 20
-15.51351169358539
 30
0.0
  0
VERTEX
  5
4EE
  8
VERSION_3$HOLDER-BASE$HOLE
 10
119.7913585395694
 20
-15.52408002538902
 30
0.0
  0
VERTEX
  5
4EF
  8
VERSION_3$HOLDER-BASE$HOLE
 10
119.7485473552108
 20
-15.5336881533138
 30
0.0
  0
VERTEX
  5
4F0
  8
VERSION_3$HOLDER-BASE$HOLE
 10
119.7057568660478
 20
-15.54234143573082
 30
0.0
  0
VERTEX
  5
4F1
  8
VERSION_3$HOLDER-BASE$HOLE
 10
119.6630075439653
 20
-15.55004607867463
 30
0.0
  0
VERTEX
  5
4F2
  8
VERSION_3$HOLDER-BASE$HOLE
 10
119.6203195187167
 20
-15.55680911056215
 30
0.0
  0
VERTEX
  5
4F3
  8
VERSION_3$HOLDER-BASE$HOLE
 10
119.5777125521575
 20
-15.56263835549665
 30
0.0
  0
VERTEX
  5
4F4
  8
VERSION_3$HOLDER-BASE$HOLE
 10
119.5352060139502
 20
-15.56754240528299
 30
0.0
  0
VERTEX
  5
4F5
  8
VERSION_3$HOLDER-BASE$HOLE
 10
119.4928188587784
 20
-15.57153059028263
 30
0.0
  0
VERTEX
  5
4F6
  8
VERSION_3$HOLDER-BASE$HOLE
 10
119.450569605106
 20
-15.57461294923749
 30
0.0
  0
VERTEX
  5
4F7
  8
VERSION_3$HOLDER-BASE$HOLE
 10
119.4084763155042
 20
-15.57680019819234
 30
0.0
  0
VERTEX
  5
4F8
  8
VERSION_3$HOLDER-BASE$HOLE
 10
119.3665565785649
 20
-15.57810369864497
 30
0.0
  0
VERTEX
  5
4F9
  8
VERSION_3$HOLDER-BASE$HOLE
 10
119.3248274924107
 20
-15.57853542505217
 30
0.0
  0
VERTEX
  5
4FA
  8
VERSION_3$HOLDER-BASE$HOLE
 10
80.89057651409865
 20
-15.57851429564832
 30
0.0
  0
VERTEX
  5
4FB
  8
VERSION_3$HOLDER-BASE$HOLE
 10
80.84884742841916
 20
-15.57808252335962
 30
0.0
  0
VERTEX
  5
4FC
  8
VERSION_3$HOLDER-BASE$HOLE
 10
80.80692769291315
 20
-15.57677897681586
 30
0.0
  0
VERTEX
  5
4FD
  8
VERSION_3$HOLDER-BASE$HOLE
 10
80.76483440571624
 20
-15.57459168157907
 30
0.0
  0
VERTEX
  5
4FE
  8
VERSION_3$HOLDER-BASE$HOLE
 10
80.72258515543298
 20
-15.57150927617078
 30
0.0
  0
VERTEX
  5
4FF
  8
VERSION_3$HOLDER-BASE$HOLE
 10
80.68019800464629
 20
-15.56752104456608
 30
0.0
  0
VERTEX
  5
500
  8
VERSION_3$HOLDER-BASE$HOLE
 10
80.63769147183099
 20
-15.56261694804342
 30
0.0
  0
VERTEX
  5
501
  8
VERSION_3$HOLDER-BASE$HOLE
 10
80.59508451168118
 20
-15.55678765626219
 30
0.0
  0
VERTEX
  5
502
  8
VERSION_3$HOLDER-BASE$HOLE
 10
80.55239649386857
 20
-15.5500245774388
 30
0.0
  0
VERTEX
  5
503
  8
VERSION_3$HOLDER-BASE$HOLE
 10
80.50964718025749
 20
-15.54231988749174
 30
0.0
  0
VERTEX
  5
504
  8
VERSION_3$HOLDER-BASE$HOLE
 10
80.46685670060886
 20
-15.5336665580262
 30
0.0
  0
VERTEX
  5
505
  8
VERSION_3$HOLDER-BASE$HOLE
 10
80.42404552681451
 20
-15.52405838303015
 30
0.0
  0
VERTEX
  5
506
  8
VERSION_3$HOLDER-BASE$HOLE
 10
80.38123444571056
 20
-15.51349000415534
 30
0.0
  0
VERTEX
  5
507
  8
VERSION_3$HOLDER-BASE$HOLE
 10
80.33844453052708
 20
-15.50195693445979
 30
0.0
  0
VERTEX
  5
508
  8
VERSION_3$HOLDER-BASE$HOLE
 10
80.29569711103849
 20
-15.48945558049133
 30
0.0
  0
VERTEX
  5
509
  8
VERSION_3$HOLDER-BASE$HOLE
 10
80.25301374248781
 20
-15.47598326259662
 30
0.0
  0
VERTEX
  5
50A
  8
VERSION_3$HOLDER-BASE$HOLE
 10
80.21041617336485
 20
-15.46153823334483
 30
0.0
  0
VERTEX
  5
50B
  8
VERSION_3$HOLDER-BASE$HOLE
 10
80.16792631212608
 20
-15.44611969396124
 30
0.0
  0
VERTEX
  5
50C
  8
VERSION_3$HOLDER-BASE$HOLE
 10
80.12556619295079
 20
-15.429727808673
 30
0.0
  0
VERTEX
  5
50D
  8
VERSION_3$HOLDER-BASE$HOLE
 10
80.0833579406347
 20
-15.41236371687641
 30
0.0
  0
VERTEX
  5
50E
  8
VERSION_3$HOLDER-BASE$HOLE
 10
80.04132373472913
 20
-15.39402954304371
 30
0.0
  0
VERTEX
  5
50F
  8
VERSION_3$HOLDER-BASE$HOLE
 10
79.99948577303807
 20
-15.37472840429609
 30
0.0
  0
VERTEX
  5
510
  8
VERSION_3$HOLDER-BASE$HOLE
 10
79.95786623459236
 20
-15.35446441557932
 30
0.0
  0
VERTEX
  5
511
  8
VERSION_3$HOLDER-BASE$HOLE
 10
79.9164872422232
 20
-15.33324269238845
 30
0.0
  0
VERTEX
  5
512
  8
VERSION_3$HOLDER-BASE$HOLE
 10
79.87537082486227
 20
-15.3110693509989
 30
0.0
  0
VERTEX
  5
513
  8
VERSION_3$HOLDER-BASE$HOLE
 10
79.83453887969792
 20
-15.28795150617208
 30
0.0
  0
VERTEX
  5
514
  8
VERSION_3$HOLDER-BASE$HOLE
 10
79.79401313432007
 20
-15.26389726631557
 30
0.0
  0
VERTEX
  5
515
  8
VERSION_3$HOLDER-BASE$HOLE
 10
79.75381510898788
 20
-15.2389157260893
 30
0.0
  0
VERTEX
  5
516
  8
VERSION_3$HOLDER-BASE$HOLE
 10
79.71396607915483
 20
-15.21301695646132
 30
0.0
  0
VERTEX
  5
517
  8
VERSION_3$HOLDER-BASE$HOLE
 10
79.67448703838616
 20
-15.18621199222893
 30
0.0
  0
VERTEX
  5
518
  8
VERSION_3$HOLDER-BASE$HOLE
 10
79.63539866180325
 20
-15.15851281703284
 30
0.0
  0
VERTEX
  5
519
  8
VERSION_3$HOLDER-BASE$HOLE
 10
79.59672127018699
 20
-15.12993234590433
 30
0.0
  0
VERTEX
  5
51A
  8
VERSION_3$HOLDER-BASE$HOLE
 10
79.55847479487063
 20
-15.10048440539713
 30
0.0
  0
VERTEX
  5
51B
  8
VERSION_3$HOLDER-BASE$HOLE
 10
79.5206787435492
 20
-15.07018371136731
 30
0.0
  0
VERTEX
  5
51C
  8
VERSION_3$HOLDER-BASE$HOLE
 10
79.483352167128
 20
-15.03904584447603
 30
0.0
  0
VERTEX
  5
51D
  8
VERSION_3$HOLDER-BASE$HOLE
 10
79.4465136277291
 20
-15.00708722350067
 30
0.0
  0
VERTEX
  5
51E
  8
VERSION_3$HOLDER-BASE$HOLE
 10
79.41018116796788
 20
-14.97432507655015
 30
0.0
  0
VERTEX
  5
51F
  8
VERSION_3$HOLDER-BASE$HOLE
 10
79.37437228160674
 20
-14.94077741029033
 30
0.0
  0
VERTEX
  5
520
  8
VERSION_3$HOLDER-BASE$HOLE
 10
79.3391038856856
 20
-14.90646297729417
 30
0.0
  0
VERTEX
  5
521
  8
VERSION_3$HOLDER-BASE$HOLE
 10
79.30439229422169
 20
-14.87140124163991
 30
0.0
  0
VERTEX
  5
522
  8
VERSION_3$HOLDER-BASE$HOLE
 10
79.2702531935631
 20
-14.83561234288795
 30
0.0
  0
VERTEX
  5
523
  8
VERSION_3$HOLDER-BASE$HOLE
 10
79.23670161947243
 20
-14.7991170585741
 30
0.0
  0
VERTEX
  5
524
  8
VERSION_3$HOLDER-BASE$HOLE
 10
79.20375193600809
 20
-14.76193676536235
 30
0.0
  0
VERTEX
  5
525
  8
VERSION_3$HOLDER-BASE$HOLE
 10
79.17141781626133
 20
-14.72409339900573
 30
0.0
  0
VERTEX
  5
526
  8
VERSION_3$HOLDER-BASE$HOLE
 10
79.1397122249986
 20
-14.68560941326742
 30
0.0
  0
VERTEX
  5
527
  8
VERSION_3$HOLDER-BASE$HOLE
 10
79.10864740324865
 20
-14.64650773795737
 30
0.0
  0
VERTEX
  5
528
  8
VERSION_3$HOLDER-BASE$HOLE
 10
79.07823485486428
 20
-14.60681173624202
 30
0.0
  0
VERTEX
  5
529
  8
VERSION_3$HOLDER-BASE$HOLE
 10
79.01940884107263
 20
-14.5257321130801
 30
0.0
  0
VERTEX
  5
52A
  8
VERSION_3$HOLDER-BASE$HOLE
 10
78.9633110862532
 20
-14.4425644634152
 30
0.0
  0
VERTEX
  5
52B
  8
VERSION_3$HOLDER-BASE$HOLE
 10
78.91000617426035
 20
-14.35750684317862
 30
0.0
  0
VERTEX
  5
52C
  8
VERSION_3$HOLDER-BASE$HOLE
 10
78.85954629071708
 20
-14.27076004354902
 30
0.0
  0
VERTEX
  5
52D
  8
VERSION_3$HOLDER-BASE$HOLE
 10
78.81197126626289
 20
-14.182526212234
 30
0.0
  0
VERTEX
  5
52E
  8
VERSION_3$HOLDER-BASE$HOLE
 10
78.76730873670385
 20
-14.09300751465663
 30
0.0
  0
VERTEX
  5
52F
  8
VERSION_3$HOLDER-BASE$HOLE
 10
78.72557441248233
 20
-14.00240485101925
 30
0.0
  0
VERTEX
  5
530
  8
VERSION_3$HOLDER-BASE$HOLE
 10
78.6867724483784
 20
-13.91091664335024
 30
0.0
  0
VERTEX
  5
531
  8
VERSION_3$HOLDER-BASE$HOLE
 10
78.65089590315196
 20
-13.81873770457699
 30
0.0
  0
VERTEX
  5
532
  8
VERSION_3$HOLDER-BASE$HOLE
 10
78.61761032992453
 20
-13.72512401580276
 30
0.0
  0
VERTEX
  5
533
  8
VERSION_3$HOLDER-BASE$HOLE
 10
78.58667659876501
 20
-13.62927877639853
 30
0.0
  0
VERTEX
  5
534
  8
VERSION_3$HOLDER-BASE$HOLE
 10
78.55821953006027
 20
-13.53132383632855
 30
0.0
  0
VERTEX
  5
535
  8
VERSION_3$HOLDER-BASE$HOLE
 10
78.53235886871019
 20
-13.43139360962555
 30
0.0
  0
VERTEX
  5
536
  8
VERSION_3$HOLDER-BASE$HOLE
 10
78.50920828351173
 20
-13.32963475208111
 30
0.0
  0
VERTEX
  5
537
  8
VERSION_3$HOLDER-BASE$HOLE
 10
78.48887437510886
 20
-13.22620570236197
 30
0.0
  0
VERTEX
  5
538
  8
VERSION_3$HOLDER-BASE$HOLE
 10
78.47145570671572
 20
-13.12127608502938
 30
0.0
  0
VERTEX
  5
539
  8
VERSION_3$HOLDER-BASE$HOLE
 10
78.45704187230116
 20
-13.01502597640125
 30
0.0
  0
VERTEX
  5
53A
  8
VERSION_3$HOLDER-BASE$HOLE
 10
78.44571261708516
 20
-12.90764503680697
 30
0.0
  0
VERTEX
  5
53B
  8
VERSION_3$HOLDER-BASE$HOLE
 10
78.43753702501266
 20
-12.79933151547446
 30
0.0
  0
VERTEX
  5
53C
  8
VERSION_3$HOLDER-BASE$HOLE
 10
78.43257278732042
 20
-12.69029113698146
 30
0.0
  0
VERTEX
  5
53D
  8
VERSION_3$HOLDER-BASE$HOLE
 10
78.43086556539365
 20
-12.58073588081898
 30
0.0
  0
VERTEX
  5
53E
  8
VERSION_3$HOLDER-BASE$HOLE
 10
78.43244845982629
 20
-12.47088266806835
 30
0.0
  0
VERTEX
  5
53F
  8
VERSION_3$HOLDER-BASE$HOLE
 10
78.4373415959775
 20
-12.36095197140407
 30
0.0
  0
VERTEX
  5
540
  8
VERSION_3$HOLDER-BASE$HOLE
 10
78.44555183438926
 20
-12.2511663665246
 30
0.0
  0
VERTEX
  5
541
  8
VERSION_3$HOLDER-BASE$HOLE
 10
78.45707261224726
 20
-12.14174904461397
 30
0.0
  0
VERTEX
  5
542
  8
VERSION_3$HOLDER-BASE$HOLE
 10
78.47188391968581
 20
-12.03292230649308
 30
0.0
  0
VERTEX
  5
543
  8
VERSION_3$HOLDER-BASE$HOLE
 10
78.48995241222988
 20
-11.92490605968898
 30
0.0
  0
VERTEX
  5
544
  8
VERSION_3$HOLDER-BASE$HOLE
 10
78.51123165810267
 20
-11.8179163397099
 30
0.0
  0
VERTEX
  5
545
  8
VERSION_3$HOLDER-BASE$HOLE
 10
78.53566251658837
 20
-11.71216387635775
 30
0.0
  0
VERTEX
  5
546
  8
VERSION_3$HOLDER-BASE$HOLE
 10
78.56317364119788
 20
-11.60785272495249
 30
0.0
  0
VERTEX
  5
547
  8
VERSION_3$HOLDER-BASE$HOLE
 10
78.59368209911828
 20
-11.50517898091578
 30
0.0
  0
VERTEX
  5
548
  8
VERSION_3$HOLDER-BASE$HOLE
 10
78.62709409639606
 20
-11.4043295943139
 30
0.0
  0
VERTEX
  5
549
  8
VERSION_3$HOLDER-BASE$HOLE
 10
78.66330579656794
 20
-11.30548129875554
 30
0.0
  0
VERTEX
  5
54A
  8
VERSION_3$HOLDER-BASE$HOLE
 10
78.70220421905401
 20
-11.20879966655311
 30
0.0
  0
VERTEX
  5
54B
  8
VERSION_3$HOLDER-BASE$HOLE
 10
78.74366820259732
 20
-11.1144382993696
 30
0.0
  0
VERTEX
  5
54C
  8
VERSION_3$HOLDER-BASE$HOLE
 10
78.78756941838488
 20
-11.02253816077243
 30
0.0
  0
VERTEX
  5
54D
  8
VERSION_3$HOLDER-BASE$HOLE
 10
78.83377341722345
 20
-10.93322705428849
 30
0.0
  0
VERTEX
  5
54E
  8
VERSION_3$HOLDER-BASE$HOLE
 10
78.88214069525213
 20
-10.84661924778239
 30
0.0
  0
VERTEX
  5
54F
  8
VERSION_3$HOLDER-BASE$HOLE
 10
78.93252776313285
 20
-10.76281524233949
 30
0.0
  0
VERTEX
  5
550
  8
VERSION_3$HOLDER-BASE$HOLE
 10
78.98478820443088
 20
-10.68190168139338
 30
0.0
  0
SEQEND
  5
551
  8
VERSION_3$HOLDER-BASE$HOLE
  0
POLYLINE
  5
552
  8
VERSION_3$HOLDER-BASE$HOLE
 66
     1
 10
0.0
 20
0.0
 30
0.0
 70
     1
  0
VERTEX
  5
553
  8
VERSION_3$HOLDER-BASE$HOLE
 10
118.3036116338237
 20
-127.9310689718943
 30
0.0
  0
VERTEX
  5
554
  8
VERSION_3$HOLDER-BASE$HOLE
 10
120.08325221365
 20
-129.2478768475059
 30
0.0
  0
VERTEX
  5
555
  8
VERSION_3$HOLDER-BASE$HOLE
 10
121.7480772978605
 20
-130.5646847249571
 30
0.0
  0
VERTEX
  5
556
  8
VERSION_3$HOLDER-BASE$HOLE
 10
122.5374340283078
 20
-131.2230886649475
 30
0.0
  0
VERTEX
  5
557
  8
VERSION_3$HOLDER-BASE$HOLE
 10
123.2980868838888
 20
-131.8814926060875
 30
0.0
  0
VERTEX
  5
558
  8
VERSION_3$HOLDER-BASE$HOLE
 10
124.0300358642827
 20
-132.5398965486072
 30
0.0
  0
VERTEX
  5
559
  8
VERSION_3$HOLDER-BASE$HOLE
 10
124.7332809691686
 20
-133.1983004927365
 30
0.0
  0
VERTEX
  5
55A
  8
VERSION_3$HOLDER-BASE$HOLE
 10
125.4078221982258
 20
-133.8567044387054
 30
0.0
  0
VERTEX
  5
55B
  8
VERSION_3$HOLDER-BASE$HOLE
 10
126.0536595511336
 20
-134.5151083867438
 30
0.0
  0
VERTEX
  5
55C
  8
VERSION_3$HOLDER-BASE$HOLE
 10
126.6707930275711
 20
-135.1735123370816
 30
0.0
  0
VERTEX
  5
55D
  8
VERSION_3$HOLDER-BASE$HOLE
 10
127.2592226272174
 20
-135.8319162899489
 30
0.0
  0
VERTEX
  5
55E
  8
VERSION_3$HOLDER-BASE$HOLE
 10
127.8189483497519
 20
-136.4903202455754
 30
0.0
  0
VERTEX
  5
55F
  8
VERSION_3$HOLDER-BASE$HOLE
 10
128.3499701948537
 20
-137.1487242041913
 30
0.0
  0
VERTEX
  5
560
  8
VERSION_3$HOLDER-BASE$HOLE
 10
128.8522881622021
 20
-137.8071281660264
 30
0.0
  0
VERTEX
  5
561
  8
VERSION_3$HOLDER-BASE$HOLE
 10
129.3259022514763
 20
-138.4655321313106
 30
0.0
  0
VERTEX
  5
562
  8
VERSION_3$HOLDER-BASE$HOLE
 10
129.7708124623554
 20
-139.123936100274
 30
0.0
  0
VERTEX
  5
563
  8
VERSION_3$HOLDER-BASE$HOLE
 10
130.1870187945187
 20
-139.7823400731464
 30
0.0
  0
VERTEX
  5
564
  8
VERSION_3$HOLDER-BASE$HOLE
 10
130.5745212476453
 20
-140.4407440501579
 30
0.0
  0
VERTEX
  5
565
  8
VERSION_3$HOLDER-BASE$HOLE
 10
130.9333198214146
 20
-141.0991480315383
 30
0.0
  0
VERTEX
  5
566
  8
VERSION_3$HOLDER-BASE$HOLE
 10
131.2634145155056
 20
-141.7575520175176
 30
0.0
  0
VERTEX
  5
567
  8
VERSION_3$HOLDER-BASE$HOLE
 10
131.4176979075716
 20
-142.0867540123037
 30
0.0
  0
VERTEX
  5
568
  8
VERSION_3$HOLDER-BASE$HOLE
 10
131.5648053295977
 20
-142.4159560083257
 30
0.0
  0
VERTEX
  5
569
  8
VERSION_3$HOLDER-BASE$HOLE
 10
131.7047367815439
 20
-142.7451580056125
 30
0.0
  0
VERTEX
  5
56A
  8
VERSION_3$HOLDER-BASE$HOLE
 10
131.83749226337
 20
-143.0743600041927
 30
0.0
  0
VERTEX
  5
56B
  8
VERSION_3$HOLDER-BASE$HOLE
 10
131.963071775036
 20
-143.403562004095
 30
0.0
  0
VERTEX
  5
56C
  8
VERSION_3$HOLDER-BASE$HOLE
 10
132.0814753165018
 20
-143.7327640053483
 30
0.0
  0
VERTEX
  5
56D
  8
VERSION_3$HOLDER-BASE$HOLE
 10
132.1927028877272
 20
-144.0619660079813
 30
0.0
  0
VERTEX
  5
56E
  8
VERSION_3$HOLDER-BASE$HOLE
 10
132.2967544886721
 20
-144.3911680120227
 30
0.0
  0
VERTEX
  5
56F
  8
VERSION_3$HOLDER-BASE$HOLE
 10
132.3936301192965
 20
-144.7203700175012
 30
0.0
  0
VERTEX
  5
570
  8
VERSION_3$HOLDER-BASE$HOLE
 10
132.4833297795603
 20
-145.0495720244456
 30
0.0
  0
VERTEX
  5
571
  8
VERSION_3$HOLDER-BASE$HOLE
 10
132.5658534694234
 20
-145.3787740328847
 30
0.0
  0
VERTEX
  5
572
  8
VERSION_3$HOLDER-BASE$HOLE
 10
132.6412011888456
 20
-145.7079760428472
 30
0.0
  0
VERTEX
  5
573
  8
VERSION_3$HOLDER-BASE$HOLE
 10
132.7093729377869
 20
-146.0371780543617
 30
0.0
  0
VERTEX
  5
574
  8
VERSION_3$HOLDER-BASE$HOLE
 10
132.7703687162071
 20
-146.3663800674572
 30
0.0
  0
VERTEX
  5
575
  8
VERSION_3$HOLDER-BASE$HOLE
 10
132.8241885240662
 20
-146.6955820821623
 30
0.0
  0
VERTEX
  5
576
  8
VERSION_3$HOLDER-BASE$HOLE
 10
132.8708323613241
 20
-147.0247840985057
 30
0.0
  0
VERTEX
  5
577
  8
VERSION_3$HOLDER-BASE$HOLE
 10
132.9103002279407
 20
-147.3539861165163
 30
0.0
  0
VERTEX
  5
578
  8
VERSION_3$HOLDER-BASE$HOLE
 10
132.9425921238758
 20
-147.6831881362227
 30
0.0
  0
VERTEX
  5
579
  8
VERSION_3$HOLDER-BASE$HOLE
 10
132.9677080490895
 20
-148.0123901576536
 30
0.0
  0
VERTEX
  5
57A
  8
VERSION_3$HOLDER-BASE$HOLE
 10
132.9856480035414
 20
-148.3415921808379
 30
0.0
  0
VERTEX
  5
57B
  8
VERSION_3$HOLDER-BASE$HOLE
 10
132.9964119871917
 20
-148.6707942058043
 30
0.0
  0
VERTEX
  5
57C
  8
VERSION_3$HOLDER-BASE$HOLE
 10
133.0000000000001
 20
-148.9999962325815
 30
0.0
  0
VERTEX
  5
57D
  8
VERSION_3$HOLDER-BASE$HOLE
 10
132.9964120419266
 20
-149.3291982611983
 30
0.0
  0
VERTEX
  5
57E
  8
VERSION_3$HOLDER-BASE$HOLE
 10
132.9856481129311
 20
-149.6584002916833
 30
0.0
  0
VERTEX
  5
57F
  8
VERSION_3$HOLDER-BASE$HOLE
 10
132.9677082129735
 20
-149.9876023240654
 30
0.0
  0
VERTEX
  5
580
  8
VERSION_3$HOLDER-BASE$HOLE
 10
132.9425923420137
 20
-150.3168043583733
 30
0.0
  0
VERTEX
  5
581
  8
VERSION_3$HOLDER-BASE$HOLE
 10
132.9103005000115
 20
-150.6460063946357
 30
0.0
  0
VERTEX
  5
582
  8
VERSION_3$HOLDER-BASE$HOLE
 10
132.8708326869269
 20
-150.9752084328814
 30
0.0
  0
VERTEX
  5
583
  8
VERSION_3$HOLDER-BASE$HOLE
 10
132.8241889027198
 20
-151.3044104731391
 30
0.0
  0
VERTEX
  5
584
  8
VERSION_3$HOLDER-BASE$HOLE
 10
132.7703691473501
 20
-151.6336125154376
 30
0.0
  0
VERTEX
  5
585
  8
VERSION_3$HOLDER-BASE$HOLE
 10
132.7093734207777
 20
-151.9628145598056
 30
0.0
  0
VERTEX
  5
586
  8
VERSION_3$HOLDER-BASE$HOLE
 10
132.6412017229625
 20
-152.2920166062718
 30
0.0
  0
VERTEX
  5
587
  8
VERSION_3$HOLDER-BASE$HOLE
 10
132.5658540538643
 20
-152.621218654865
 30
0.0
  0
VERTEX
  5
588
  8
VERSION_3$HOLDER-BASE$HOLE
 10
132.4833304134432
 20
-152.950420705614
 30
0.0
  0
VERTEX
  5
589
  8
VERSION_3$HOLDER-BASE$HOLE
 10
132.3936308016589
 20
-153.2796227585474
 30
0.0
  0
VERTEX
  5
58A
  8
VERSION_3$HOLDER-BASE$HOLE
 10
132.2967552184714
 20
-153.608824813694
 30
0.0
  0
VERTEX
  5
58B
  8
VERSION_3$HOLDER-BASE$HOLE
 10
132.1927036638407
 20
-153.9380268710826
 30
0.0
  0
VERTEX
  5
58C
  8
VERSION_3$HOLDER-BASE$HOLE
 10
132.0814761377265
 20
-154.267228930742
 30
0.0
  0
VERTEX
  5
58D
  8
VERSION_3$HOLDER-BASE$HOLE
 10
131.9630726400888
 20
-154.5964309927007
 30
0.0
  0
VERTEX
  5
58E
  8
VERSION_3$HOLDER-BASE$HOLE
 10
131.8374931708875
 20
-154.9256330569877
 30
0.0
  0
VERTEX
  5
58F
  8
VERSION_3$HOLDER-BASE$HOLE
 10
131.7047377300826
 20
-155.2548351236316
 30
0.0
  0
VERTEX
  5
590
  8
VERSION_3$HOLDER-BASE$HOLE
 10
131.5648063176338
 20
-155.5840371926612
 30
0.0
  0
VERTEX
  5
591
  8
VERSION_3$HOLDER-BASE$HOLE
 10
131.4176989335011
 20
-155.9132392641052
 30
0.0
  0
VERTEX
  5
592
  8
VERSION_3$HOLDER-BASE$HOLE
 10
131.2634155776444
 20
-156.2424413379923
 30
0.0
  0
VERTEX
  5
593
  8
VERSION_3$HOLDER-BASE$HOLE
 10
130.9333209505986
 20
-156.9008454932111
 30
0.0
  0
VERTEX
  5
594
  8
VERSION_3$HOLDER-BASE$HOLE
 10
130.5745224361757
 20
-157.5592496585475
 30
0.0
  0
VERTEX
  5
595
  8
VERSION_3$HOLDER-BASE$HOLE
 10
130.1870200340548
 20
-158.2176538342314
 30
0.0
  0
VERTEX
  5
596
  8
VERSION_3$HOLDER-BASE$HOLE
 10
129.7708137439151
 20
-158.8760580204928
 30
0.0
  0
VERTEX
  5
597
  8
VERSION_3$HOLDER-BASE$HOLE
 10
129.3259035654359
 20
-159.5344622175616
 30
0.0
  0
VERTEX
  5
598
  8
VERSION_3$HOLDER-BASE$HOLE
 10
128.8522894982963
 20
-160.1928664256677
 30
0.0
  0
VERTEX
  5
599
  8
VERSION_3$HOLDER-BASE$HOLE
 10
128.3499715421757
 20
-160.8512706450411
 30
0.0
  0
VERTEX
  5
59A
  8
VERSION_3$HOLDER-BASE$HOLE
 10
127.8189496967531
 20
-161.5096748759118
 30
0.0
  0
VERTEX
  5
59B
  8
VERSION_3$HOLDER-BASE$HOLE
 10
127.2592239617077
 20
-162.1680791185097
 30
0.0
  0
VERTEX
  5
59C
  8
VERSION_3$HOLDER-BASE$HOLE
 10
126.6707943367189
 20
-162.8264833730647
 30
0.0
  0
VERTEX
  5
59D
  8
VERSION_3$HOLDER-BASE$HOLE
 10
126.0536608214658
 20
-163.4848876398068
 30
0.0
  0
VERTEX
  5
59E
  8
VERSION_3$HOLDER-BASE$HOLE
 10
125.4078234156275
 20
-164.143291918966
 30
0.0
  0
VERTEX
  5
59F
  8
VERSION_3$HOLDER-BASE$HOLE
 10
124.7332821188835
 20
-164.8016962107721
 30
0.0
  0
VERTEX
  5
5A0
  8
VERSION_3$HOLDER-BASE$HOLE
 10
124.0300369309127
 20
-165.4601005154551
 30
0.0
  0
VERTEX
  5
5A1
  8
VERSION_3$HOLDER-BASE$HOLE
 10
123.2980878513945
 20
-166.118504833245
 30
0.0
  0
VERTEX
  5
5A2
  8
VERSION_3$HOLDER-BASE$HOLE
 10
122.537434880008
 20
-166.7769091643717
 30
0.0
  0
VERTEX
  5
5A3
  8
VERSION_3$HOLDER-BASE$HOLE
 10
121.7480780164325
 20
-167.4353135090652
 30
0.0
  0
VERTEX
  5
5A4
  8
VERSION_3$HOLDER-BASE$HOLE
 10
120.0832526114312
 20
-168.7521222400721
 30
0.0
  0
VERTEX
  5
5A5
  8
VERSION_3$HOLDER-BASE$HOLE
 10
118.3036116338242
 20
-170.0689310281054
 30
0.0
  0
VERTEX
  5
5A6
  8
VERSION_3$HOLDER-BASE$HOLE
 10
118.2256613163991
 20
-170.1229164907611
 30
0.0
  0
VERTEX
  5
5A7
  8
VERSION_3$HOLDER-BASE$HOLE
 10
118.1447477267226
 20
-170.1751768875766
 30
0.0
  0
VERTEX
  5
5A8
  8
VERSION_3$HOLDER-BASE$HOLE
 10
118.0609436935792
 20
-170.2255639093856
 30
0.0
  0
VERTEX
  5
5A9
  8
VERSION_3$HOLDER-BASE$HOLE
 10
117.974335860483
 20
-170.2739311398013
 30
0.0
  0
VERTEX
  5
5AA
  8
VERSION_3$HOLDER-BASE$HOLE
 10
117.8850247285982
 20
-170.3201350895407
 30
0.0
  0
VERTEX
  5
5AB
  8
VERSION_3$HOLDER-BASE$HOLE
 10
117.7931245658661
 20
-170.3640362548057
 30
0.0
  0
VERTEX
  5
5AC
  8
VERSION_3$HOLDER-BASE$HOLE
 10
117.6987631758876
 20
-170.4055001864735
 30
0.0
  0
VERTEX
  5
5AD
  8
VERSION_3$HOLDER-BASE$HOLE
 10
117.6020815223006
 20
-170.4443985558084
 30
0.0
  0
VERTEX
  5
5AE
  8
VERSION_3$HOLDER-BASE$HOLE
 10
117.5032332068347
 20
-170.480610201638
 30
0.0
  0
VERTEX
  5
5AF
  8
VERSION_3$HOLDER-BASE$HOLE
 10
117.4023838018645
 20
-170.5140221434734
 30
0.0
  0
VERTEX
  5
5B0
  8
VERSION_3$HOLDER-BASE$HOLE
 10
117.2997100410556
 20
-170.5445305449485
 30
0.0
  0
VERTEX
  5
5B1
  8
VERSION_3$HOLDER-BASE$HOLE
 10
117.195398874526
 20
-170.5720416122124
 30
0.0
  0
VERTEX
  5
5B2
  8
VERSION_3$HOLDER-BASE$HOLE
 10
117.0896463977429
 20
-170.5964724125603
 30
0.0
  0
VERTEX
  5
5B3
  8
VERSION_3$HOLDER-BASE$HOLE
 10
116.9826566660654
 20
-170.617751599615
 30
0.0
  0
VERTEX
  5
5B4
  8
VERSION_3$HOLDER-BASE$HOLE
 10
116.8746404093281
 20
-170.6358200327766
 30
0.0
  0
VERTEX
  5
5B5
  8
VERSION_3$HOLDER-BASE$HOLE
 10
116.7658136630646
 20
-170.6506312803872
 30
0.0
  0
VERTEX
  5
5B6
  8
VERSION_3$HOLDER-BASE$HOLE
 10
116.6563963348204
 20
-170.6621519980925
 30
0.0
  0
VERTEX
  5
5B7
  8
VERSION_3$HOLDER-BASE$HOLE
 10
116.5466107254273
 20
-170.6703621761492
 30
0.0
  0
VERTEX
  5
5B8
  8
VERSION_3$HOLDER-BASE$HOLE
 10
116.436680026073
 20
-170.6752552518655
 30
0.0
  0
VERTEX
  5
5B9
  8
VERSION_3$HOLDER-BASE$HOLE
 10
116.3268268124522
 20
-170.6768380859059
 30
0.0
  0
VERTEX
  5
5BA
  8
VERSION_3$HOLDER-BASE$HOLE
 10
116.2172715572282
 20
-170.6751308037506
 30
0.0
  0
VERTEX
  5
5BB
  8
VERSION_3$HOLDER-BASE$HOLE
 10
116.1082311814644
 20
-170.670166506113
 30
0.0
  0
VERTEX
  5
5BC
  8
VERSION_3$HOLDER-BASE$HOLE
 10
115.9999176646264
 20
-170.6619908544946
 30
0.0
  0
VERTEX
  5
5BD
  8
VERSION_3$HOLDER-BASE$HOLE
 10
115.8925367312605
 20
-170.6506615402455
 30
0.0
  0
VERTEX
  5
5BE
  8
VERSION_3$HOLDER-BASE$HOLE
 10
115.7862866305564
 20
-170.6362476474194
 30
0.0
  0
VERTEX
  5
5BF
  8
VERSION_3$HOLDER-BASE$HOLE
 10
115.6813570227998
 20
-170.6188289213408
 30
0.0
  0
VERTEX
  5
5C0
  8
VERSION_3$HOLDER-BASE$HOLE
 10
115.5779279842593
 20
-170.5984949560773
 30
0.0
  0
VERTEX
  5
5C1
  8
VERSION_3$HOLDER-BASE$HOLE
 10
115.476169139442
 20
-170.5753443149365
 30
0.0
  0
VERTEX
  5
5C2
  8
VERSION_3$HOLDER-BASE$HOLE
 10
115.376238926956
 20
-170.5494835986493
 30
0.0
  0
VERTEX
  5
5C3
  8
VERSION_3$HOLDER-BASE$HOLE
 10
115.2782840025304
 20
-170.5210264760935
 30
0.0
  0
VERTEX
  5
5C4
  8
VERSION_3$HOLDER-BASE$HOLE
 10
115.1824387801322
 20
-170.4900926922426
 30
0.0
  0
VERTEX
  5
5C5
  8
VERSION_3$HOLDER-BASE$HOLE
 10
115.0888251096568
 20
-170.4568070675506
 30
0.0
  0
VERTEX
  5
5C6
  8
VERSION_3$HOLDER-BASE$HOLE
 10
114.9966461906069
 20
-170.4209304716484
 30
0.0
  0
VERTEX
  5
5C7
  8
VERSION_3$HOLDER-BASE$HOLE
 10
114.9051580042694
 20
-170.3821284572484
 30
0.0
  0
VERTEX
  5
5C8
  8
VERSION_3$HOLDER-BASE$HOLE
 10
114.8145553635756
 20
-170.3403940832177
 30
0.0
  0
VERTEX
  5
5C9
  8
VERSION_3$HOLDER-BASE$HOLE
 10
114.7250366905517
 20
-170.2957315044454
 30
0.0
  0
VERTEX
  5
5CA
  8
VERSION_3$HOLDER-BASE$HOLE
 10
114.6368028853913
 20
-170.2481564314842
 30
0.0
  0
VERTEX
  5
5CB
  8
VERSION_3$HOLDER-BASE$HOLE
 10
114.5500561135022
 20
-170.1976965002515
 30
0.0
  0
VERTEX
  5
5CC
  8
VERSION_3$HOLDER-BASE$HOLE
 10
114.4649985225702
 20
-170.1443915414978
 30
0.0
  0
VERTEX
  5
5CD
  8
VERSION_3$HOLDER-BASE$HOLE
 10
114.3818309037453
 20
-170.0882937409567
 30
0.0
  0
VERTEX
  5
5CE
  8
VERSION_3$HOLDER-BASE$HOLE
 10
114.3007513129233
 20
-170.0294676825912
 30
0.0
  0
VERTEX
  5
5CF
  8
VERSION_3$HOLDER-BASE$HOLE
 10
114.2610553279273
 20
-169.9990551123837
 30
0.0
  0
VERTEX
  5
5D0
  8
VERSION_3$HOLDER-BASE$HOLE
 10
114.2219536696953
 20
-169.9679902691375
 30
0.0
  0
VERTEX
  5
5D1
  8
VERSION_3$HOLDER-BASE$HOLE
 10
114.1834697013873
 20
-169.936284656718
 30
0.0
  0
VERTEX
  5
5D2
  8
VERSION_3$HOLDER-BASE$HOLE
 10
114.1456263528065
 20
-169.9039505161666
 30
0.0
  0
VERTEX
  5
5D3
  8
VERSION_3$HOLDER-BASE$HOLE
 10
114.108446077709
 20
-169.8710008122623
 30
0.0
  0
VERTEX
  5
5D4
  8
VERSION_3$HOLDER-BASE$HOLE
 10
114.0719508118403
 20
-169.8374492181082
 30
0.0
  0
VERTEX
  5
5D5
  8
VERSION_3$HOLDER-BASE$HOLE
 10
114.0361619318564
 20
-169.8033100977745
 30
0.0
  0
VERTEX
  5
5D6
  8
VERSION_3$HOLDER-BASE$HOLE
 10
114.001100215285
 20
-169.7685984870352
 30
0.0
  0
VERTEX
  5
5D7
  8
VERSION_3$HOLDER-BASE$HOLE
 10
113.9667858016778
 20
-169.7333300722496
 30
0.0
  0
VERTEX
  5
5D8
  8
VERSION_3$HOLDER-BASE$HOLE
 10
113.9332381551041
 20
-169.6975211674455
 30
0.0
  0
VERTEX
  5
5D9
  8
VERSION_3$HOLDER-BASE$HOLE
 10
113.9004760281275
 20
-169.6611886896731
 30
0.0
  0
VERTEX
  5
5DA
  8
VERSION_3$HOLDER-BASE$HOLE
 10
113.8685174274043
 20
-169.6243501327048
 30
0.0
  0
VERTEX
  5
5DB
  8
VERSION_3$HOLDER-BASE$HOLE
 10
113.8373795810334
 20
-169.5870235391654
 30
0.0
  0
VERTEX
  5
5DC
  8
VERSION_3$HOLDER-BASE$HOLE
 10
113.8070789077822
 20
-169.549227471186
 30
0.0
  0
VERTEX
  5
5DD
  8
VERSION_3$HOLDER-BASE$HOLE
 10
113.7776309883011
 20
-169.5109809796805
 30
0.0
  0
VERTEX
  5
5DE
  8
VERSION_3$HOLDER-BASE$HOLE
 10
113.7490505384357
 20
-169.472303572352
 30
0.0
  0
VERTEX
  5
5DF
  8
VERSION_3$HOLDER-BASE$HOLE
 10
113.7213513847286
 20
-169.4332151805414
 30
0.0
  0
VERTEX
  5
5E0
  8
VERSION_3$HOLDER-BASE$HOLE
 10
113.6945464422
 20
-169.3937361250366
 30
0.0
  0
VERTEX
  5
5E1
  8
VERSION_3$HOLDER-BASE$HOLE
 10
113.6686476944792
 20
-169.3538870809655
 30
0.0
  0
VERTEX
  5
5E2
  8
VERSION_3$HOLDER-BASE$HOLE
 10
113.643666176352
 20
-169.3136890418997
 30
0.0
  0
VERTEX
  5
5E3
  8
VERSION_3$HOLDER-BASE$HOLE
 10
113.6196119587747
 20
-169.2731632832979
 30
0.0
  0
VERTEX
  5
5E4
  8
VERSION_3$HOLDER-BASE$HOLE
 10
113.5964941363954
 20
-169.2323313254244
 30
0.0
  0
VERTEX
  5
5E5
  8
VERSION_3$HOLDER-BASE$HOLE
 10
113.5743208176098
 20
-169.1912148958736
 30
0.0
  0
VERTEX
  5
5E6
  8
VERSION_3$HOLDER-BASE$HOLE
 10
113.5530991171672
 20
-169.1498358918377
 30
0.0
  0
VERTEX
  5
5E7
  8
VERSION_3$HOLDER-BASE$HOLE
 10
113.532835151331
 20
-169.1082163422517
 30
0.0
  0
VERTEX
  5
5E8
  8
VERSION_3$HOLDER-BASE$HOLE
 10
113.5135340355839
 20
-169.0663783699497
 30
0.0
  0
VERTEX
  5
5E9
  8
VERSION_3$HOLDER-BASE$HOLE
 10
113.4951998848597
 20
-169.0243441539649
 30
0.0
  0
VERTEX
  5
5EA
  8
VERSION_3$HOLDER-BASE$HOLE
 10
113.4778358162673
 20
-168.9821358921028
 30
0.0
  0
VERTEX
  5
5EB
  8
VERSION_3$HOLDER-BASE$HOLE
 10
113.4614439542667
 20
-168.939775763916
 30
0.0
  0
VERTEX
  5
5EC
  8
VERSION_3$HOLDER-BASE$HOLE
 10
113.4460254382421
 20
-168.8972858942008
 30
0.0
  0
VERTEX
  5
5ED
  8
VERSION_3$HOLDER-BASE$HOLE
 10
113.4315804324085
 20
-168.8546883171367
 30
0.0
  0
VERTEX
  5
5EE
  8
VERSION_3$HOLDER-BASE$HOLE
 10
113.4181081379792
 20
-168.8120049411795
 30
0.0
  0
VERTEX
  5
5EF
  8
VERSION_3$HOLDER-BASE$HOLE
 10
113.4056068075113
 20
-168.7692575148183
 30
0.0
  0
VERTEX
  5
5F0
  8
VERSION_3$HOLDER-BASE$HOLE
 10
113.3940737613397
 20
-168.7264675932944
 30
0.0
  0
VERTEX
  5
5F1
  8
VERSION_3$HOLDER-BASE$HOLE
 10
113.3835054060005
 20
-168.6836565063805
 30
0.0
  0
VERTEX
  5
5F2
  8
VERSION_3$HOLDER-BASE$HOLE
 10
113.3738972545401
 20
-168.640845327304
 30
0.0
  0
VERTEX
  5
5F3
  8
VERSION_3$HOLDER-BASE$HOLE
 10
113.3652439485988
 20
-168.5980548428982
 30
0.0
  0
VERTEX
  5
5F4
  8
VERSION_3$HOLDER-BASE$HOLE
 10
113.3575392821534
 20
-168.5553055250514
 30
0.0
  0
VERTEX
  5
5F5
  8
VERSION_3$HOLDER-BASE$HOLE
 10
113.3507762267979
 20
-168.5126175035207
 30
0.0
  0
VERTEX
  5
5F6
  8
VERSION_3$HOLDER-BASE$HOLE
 10
113.34494695844
 20
-168.4700105401662
 30
0.0
  0
VERTEX
  5
5F7
  8
VERSION_3$HOLDER-BASE$HOLE
 10
113.3400428852855
 20
-168.4275040046549
 30
0.0
  0
VERTEX
  5
5F8
  8
VERSION_3$HOLDER-BASE$HOLE
 10
113.3360546769834
 20
-168.3851168516756
 30
0.0
  0
VERTEX
  5
5F9
  8
VERSION_3$HOLDER-BASE$HOLE
 10
113.3329722948018
 20
-168.3428675996978
 30
0.0
  0
VERTEX
  5
5FA
  8
VERSION_3$HOLDER-BASE$HOLE
 10
113.330785022706
 20
-168.3007743112985
 30
0.0
  0
VERTEX
  5
5FB
  8
VERSION_3$HOLDER-BASE$HOLE
 10
113.3294814992078
 20
-168.2588545750758
 30
0.0
  0
VERTEX
  5
5FC
  8
VERSION_3$HOLDER-BASE$HOLE
 10
113.3290497498598
 20
-168.2171254891589
 30
0.0
  0
VERTEX
  5
5FD
  8
VERSION_3$HOLDER-BASE$HOLE
 10
113.3290497498601
 20
-129.7828745108411
 30
0.0
  0
VERTEX
  5
5FE
  8
VERSION_3$HOLDER-BASE$HOLE
 10
113.3294814992081
 20
-129.7411454249242
 30
0.0
  0
VERTEX
  5
5FF
  8
VERSION_3$HOLDER-BASE$HOLE
 10
113.3307850227063
 20
-129.6992256887016
 30
0.0
  0
VERTEX
  5
600
  8
VERSION_3$HOLDER-BASE$HOLE
 10
113.3329722948021
 20
-129.6571324003023
 30
0.0
  0
VERTEX
  5
601
  8
VERSION_3$HOLDER-BASE$HOLE
 10
113.3360546769837
 20
-129.6148831483244
 30
0.0
  0
VERTEX
  5
602
  8
VERSION_3$HOLDER-BASE$HOLE
 10
113.3400428852858
 20
-129.5724959953452
 30
0.0
  0
VERTEX
  5
603
  8
VERSION_3$HOLDER-BASE$HOLE
 10
113.3449469584403
 20
-129.5299894598338
 30
0.0
  0
VERTEX
  5
604
  8
VERSION_3$HOLDER-BASE$HOLE
 10
113.3507762267982
 20
-129.4873824964793
 30
0.0
  0
VERTEX
  5
605
  8
VERSION_3$HOLDER-BASE$HOLE
 10
113.3575392821537
 20
-129.4446944749487
 30
0.0
  0
VERTEX
  5
606
  8
VERSION_3$HOLDER-BASE$HOLE
 10
113.3652439485991
 20
-129.4019451571019
 30
0.0
  0
VERTEX
  5
607
  8
VERSION_3$HOLDER-BASE$HOLE
 10
113.3738972545404
 20
-129.3591546726961
 30
0.0
  0
VERTEX
  5
608
  8
VERSION_3$HOLDER-BASE$HOLE
 10
113.3835054060008
 20
-129.3163434936196
 30
0.0
  0
VERTEX
  5
609
  8
VERSION_3$HOLDER-BASE$HOLE
 10
113.39407376134
 20
-129.2735324067057
 30
0.0
  0
VERTEX
  5
60A
  8
VERSION_3$HOLDER-BASE$HOLE
 10
113.4056068075116
 20
-129.2307424851819
 30
0.0
  0
VERTEX
  5
60B
  8
VERSION_3$HOLDER-BASE$HOLE
 10
113.4181081379794
 20
-129.1879950588206
 30
0.0
  0
VERTEX
  5
60C
  8
VERSION_3$HOLDER-BASE$HOLE
 10
113.4315804324088
 20
-129.1453116828635
 30
0.0
  0
VERTEX
  5
60D
  8
VERSION_3$HOLDER-BASE$HOLE
 10
113.4460254382424
 20
-129.1027141057993
 30
0.0
  0
VERTEX
  5
60E
  8
VERSION_3$HOLDER-BASE$HOLE
 10
113.4614439542669
 20
-129.0602242360841
 30
0.0
  0
VERTEX
  5
60F
  8
VERSION_3$HOLDER-BASE$HOLE
 10
113.4778358162675
 20
-129.0178641078973
 30
0.0
  0
VERTEX
  5
610
  8
VERSION_3$HOLDER-BASE$HOLE
 10
113.4951998848599
 20
-128.9756558460352
 30
0.0
  0
VERTEX
  5
611
  8
VERSION_3$HOLDER-BASE$HOLE
 10
113.5135340355841
 20
-128.9336216300504
 30
0.0
  0
VERTEX
  5
612
  8
VERSION_3$HOLDER-BASE$HOLE
 10
113.5328351513311
 20
-128.8917836577484
 30
0.0
  0
VERTEX
  5
613
  8
VERSION_3$HOLDER-BASE$HOLE
 10
113.5530991171674
 20
-128.8501641081625
 30
0.0
  0
VERTEX
  5
614
  8
VERSION_3$HOLDER-BASE$HOLE
 10
113.57432081761
 20
-128.8087851041266
 30
0.0
  0
VERTEX
  5
615
  8
VERSION_3$HOLDER-BASE$HOLE
 10
113.5964941363956
 20
-128.7676686745758
 30
0.0
  0
VERTEX
  5
616
  8
VERSION_3$HOLDER-BASE$HOLE
 10
113.6196119587749
 20
-128.7268367167023
 30
0.0
  0
VERTEX
  5
617
  8
VERSION_3$HOLDER-BASE$HOLE
 10
113.6436661763522
 20
-128.6863109581006
 30
0.0
  0
VERTEX
  5
618
  8
VERSION_3$HOLDER-BASE$HOLE
 10
113.6686476944794
 20
-128.6461129190347
 30
0.0
  0
VERTEX
  5
619
  8
VERSION_3$HOLDER-BASE$HOLE
 10
113.6945464422001
 20
-128.6062638749636
 30
0.0
  0
VERTEX
  5
61A
  8
VERSION_3$HOLDER-BASE$HOLE
 10
113.7213513847287
 20
-128.5667848194588
 30
0.0
  0
VERTEX
  5
61B
  8
VERSION_3$HOLDER-BASE$HOLE
 10
113.7490505384358
 20
-128.5276964276482
 30
0.0
  0
VERTEX
  5
61C
  8
VERSION_3$HOLDER-BASE$HOLE
 10
113.7776309883013
 20
-128.4890190203197
 30
0.0
  0
VERTEX
  5
61D
  8
VERSION_3$HOLDER-BASE$HOLE
 10
113.8070789077823
 20
-128.4507725288142
 30
0.0
  0
VERTEX
  5
61E
  8
VERSION_3$HOLDER-BASE$HOLE
 10
113.8373795810335
 20
-128.4129764608348
 30
0.0
  0
VERTEX
  5
61F
  8
VERSION_3$HOLDER-BASE$HOLE
 10
113.8685174274043
 20
-128.3756498672954
 30
0.0
  0
VERTEX
  5
620
  8
VERSION_3$HOLDER-BASE$HOLE
 10
113.9004760281275
 20
-128.3388113103271
 30
0.0
  0
VERTEX
  5
621
  8
VERSION_3$HOLDER-BASE$HOLE
 10
113.9332381551041
 20
-128.3024788325548
 30
0.0
  0
VERTEX
  5
622
  8
VERSION_3$HOLDER-BASE$HOLE
 10
113.9667858016778
 20
-128.2666699277507
 30
0.0
  0
VERTEX
  5
623
  8
VERSION_3$HOLDER-BASE$HOLE
 10
114.0011002152851
 20
-128.231401512965
 30
0.0
  0
VERTEX
  5
624
  8
VERSION_3$HOLDER-BASE$HOLE
 10
114.0361619318565
 20
-128.1966899022258
 30
0.0
  0
VERTEX
  5
625
  8
VERSION_3$HOLDER-BASE$HOLE
 10
114.0719508118403
 20
-128.1625507818921
 30
0.0
  0
VERTEX
  5
626
  8
VERSION_3$HOLDER-BASE$HOLE
 10
114.108446077709
 20
-128.128999187738
 30
0.0
  0
VERTEX
  5
627
  8
VERSION_3$HOLDER-BASE$HOLE
 10
114.1456263528065
 20
-128.0960494838336
 30
0.0
  0
VERTEX
  5
628
  8
VERSION_3$HOLDER-BASE$HOLE
 10
114.1834697013873
 20
-128.0637153432822
 30
0.0
  0
VERTEX
  5
629
  8
VERSION_3$HOLDER-BASE$HOLE
 10
114.2219536696953
 20
-128.0320097308628
 30
0.0
  0
VERTEX
  5
62A
  8
VERSION_3$HOLDER-BASE$HOLE
 10
114.2610553279273
 20
-128.0009448876165
 30
0.0
  0
VERTEX
  5
62B
  8
VERSION_3$HOLDER-BASE$HOLE
 10
114.3007513129232
 20
-127.9705323174091
 30
0.0
  0
VERTEX
  5
62C
  8
VERSION_3$HOLDER-BASE$HOLE
 10
114.3818309037453
 20
-127.9117062590436
 30
0.0
  0
VERTEX
  5
62D
  8
VERSION_3$HOLDER-BASE$HOLE
 10
114.4649985225701
 20
-127.8556084585024
 30
0.0
  0
VERTEX
  5
62E
  8
VERSION_3$HOLDER-BASE$HOLE
 10
114.5500561135021
 20
-127.8023034997487
 30
0.0
  0
VERTEX
  5
62F
  8
VERSION_3$HOLDER-BASE$HOLE
 10
114.6368028853911
 20
-127.751843568516
 30
0.0
  0
VERTEX
  5
630
  8
VERSION_3$HOLDER-BASE$HOLE
 10
114.7250366905516
 20
-127.7042684955549
 30
0.0
  0
VERTEX
  5
631
  8
VERSION_3$HOLDER-BASE$HOLE
 10
114.8145553635755
 20
-127.6596059167826
 30
0.0
  0
VERTEX
  5
632
  8
VERSION_3$HOLDER-BASE$HOLE
 10
114.9051580042692
 20
-127.6178715427518
 30
0.0
  0
VERTEX
  5
633
  8
VERSION_3$HOLDER-BASE$HOLE
 10
114.9966461906067
 20
-127.5790695283518
 30
0.0
  0
VERTEX
  5
634
  8
VERSION_3$HOLDER-BASE$HOLE
 10
115.0888251096566
 20
-127.5431929324496
 30
0.0
  0
VERTEX
  5
635
  8
VERSION_3$HOLDER-BASE$HOLE
 10
115.182438780132
 20
-127.5099073077576
 30
0.0
  0
VERTEX
  5
636
  8
VERSION_3$HOLDER-BASE$HOLE
 10
115.2782840025302
 20
-127.4789735239068
 30
0.0
  0
VERTEX
  5
637
  8
VERSION_3$HOLDER-BASE$HOLE
 10
115.3762389269558
 20
-127.4505164013509
 30
0.0
  0
VERTEX
  5
638
  8
VERSION_3$HOLDER-BASE$HOLE
 10
115.4761691394418
 20
-127.4246556850637
 30
0.0
  0
VERTEX
  5
639
  8
VERSION_3$HOLDER-BASE$HOLE
 10
115.577927984259
 20
-127.4015050439228
 30
0.0
  0
VERTEX
  5
63A
  8
VERSION_3$HOLDER-BASE$HOLE
 10
115.6813570227995
 20
-127.3811710786594
 30
0.0
  0
VERTEX
  5
63B
  8
VERSION_3$HOLDER-BASE$HOLE
 10
115.786286630556
 20
-127.3637523525807
 30
0.0
  0
VERTEX
  5
63C
  8
VERSION_3$HOLDER-BASE$HOLE
 10
115.8925367312601
 20
-127.3493384597547
 30
0.0
  0
VERTEX
  5
63D
  8
VERSION_3$HOLDER-BASE$HOLE
 10
115.9999176646261
 20
-127.3380091455056
 30
0.0
  0
VERTEX
  5
63E
  8
VERSION_3$HOLDER-BASE$HOLE
 10
116.108231181464
 20
-127.3298334938872
 30
0.0
  0
VERTEX
  5
63F
  8
VERSION_3$HOLDER-BASE$HOLE
 10
116.2172715572279
 20
-127.3248691962495
 30
0.0
  0
VERTEX
  5
640
  8
VERSION_3$HOLDER-BASE$HOLE
 10
116.3268268124518
 20
-127.3231619140942
 30
0.0
  0
VERTEX
  5
641
  8
VERSION_3$HOLDER-BASE$HOLE
 10
116.4366800260726
 20
-127.3247447481346
 30
0.0
  0
VERTEX
  5
642
  8
VERSION_3$HOLDER-BASE$HOLE
 10
116.5466107254269
 20
-127.3296378238509
 30
0.0
  0
VERTEX
  5
643
  8
VERSION_3$HOLDER-BASE$HOLE
 10
116.6563963348199
 20
-127.3378480019075
 30
0.0
  0
VERTEX
  5
644
  8
VERSION_3$HOLDER-BASE$HOLE
 10
116.7658136630642
 20
-127.3493687196128
 30
0.0
  0
VERTEX
  5
645
  8
VERSION_3$HOLDER-BASE$HOLE
 10
116.8746404093276
 20
-127.3641799672234
 30
0.0
  0
VERTEX
  5
646
  8
VERSION_3$HOLDER-BASE$HOLE
 10
116.9826566660649
 20
-127.382248400385
 30
0.0
  0
VERTEX
  5
647
  8
VERSION_3$HOLDER-BASE$HOLE
 10
117.0896463977424
 20
-127.4035275874398
 30
0.0
  0
VERTEX
  5
648
  8
VERSION_3$HOLDER-BASE$HOLE
 10
117.1953988745255
 20
-127.4279583877875
 30
0.0
  0
VERTEX
  5
649
  8
VERSION_3$HOLDER-BASE$HOLE
 10
117.2997100410551
 20
-127.4554694550515
 30
0.0
  0
VERTEX
  5
64A
  8
VERSION_3$HOLDER-BASE$HOLE
 10
117.4023838018639
 20
-127.4859778565265
 30
0.0
  0
VERTEX
  5
64B
  8
VERSION_3$HOLDER-BASE$HOLE
 10
117.5032332068342
 20
-127.5193897983619
 30
0.0
  0
VERTEX
  5
64C
  8
VERSION_3$HOLDER-BASE$HOLE
 10
117.6020815223001
 20
-127.5556014441915
 30
0.0
  0
VERTEX
  5
64D
  8
VERSION_3$HOLDER-BASE$HOLE
 10
117.6987631758871
 20
-127.5944998135264
 30
0.0
  0
VERTEX
  5
64E
  8
VERSION_3$HOLDER-BASE$HOLE
 10
117.7931245658656
 20
-127.6359637451941
 30
0.0
  0
VERTEX
  5
64F
  8
VERSION_3$HOLDER-BASE$HOLE
 10
117.8850247285976
 20
-127.6798649104592
 30
0.0
  0
VERTEX
  5
650
  8
VERSION_3$HOLDER-BASE$HOLE
 10
117.9743358604824
 20
-127.7260688601985
 30
0.0
  0
VERTEX
  5
651
  8
VERSION_3$HOLDER-BASE$HOLE
 10
118.0609436935787
 20
-127.7744360906142
 30
0.0
  0
VERTEX
  5
652
  8
VERSION_3$HOLDER-BASE$HOLE
 10
118.1447477267221
 20
-127.8248231124232
 30
0.0
  0
VERTEX
  5
653
  8
VERSION_3$HOLDER-BASE$HOLE
 10
118.2256613163986
 20
-127.8770835092387
 30
0.0
  0
SEQEND
  5
654
  8
VERSION_3$HOLDER-BASE$HOLE
  0
POLYLINE
  5
655
  8
VERSION_3$HOLDER-BASE$HOLE
 66
     1
 10
0.0
 20
0.0
 30
0.0
 70
     1
  0
VERTEX
  5
656
  8
VERSION_3$HOLDER-BASE$HOLE
 10
36.86778888445698
 20
-181.1263555932693
 30
0.0
  0
VERTEX
  5
657
  8
VERSION_3$HOLDER-BASE$HOLE
 10
36.86778888445698
 20
-189.1263555932693
 30
0.0
  0
VERTEX
  5
658
  8
VERSION_3$HOLDER-BASE$HOLE
 10
116.8677888844569
 20
-189.1263555932694
 30
0.0
  0
VERTEX
  5
659
  8
VERSION_3$HOLDER-BASE$HOLE
 10
116.8677888844569
 20
-181.1263555932694
 30
0.0
  0
SEQEND
  5
65A
  8
VERSION_3$HOLDER-BASE$HOLE
  0
ENDSEC
  0
EOF
