  0
SECTION
  2
HEADER
  9
$ACADVER
  1
AC1009
  9
$DWGCODEPAGE
  3
mac-roman
  9
$INSBASE
 10
0.0
 20
0.0
 30
0.0
  9
$EXTMIN
 10
-79.77109999364683
 20
-214.081843571786
 30
0.0
  9
$EXTMAX
 10
221.6613998463812
 20
119.6134015588276
 30
0.0
  9
$LIMMIN
 10
0.0
 20
0.0
  9
$LIMMAX
 10
12.0
 20
9.0
  9
$ORTHOMODE
 70
     0
  9
$REGENMODE
 70
     1
  9
$FILLMODE
 70
     1
  9
$QTEXTMODE
 70
     0
  9
$MIRRTEXT
 70
     1
  9
$DRAGMODE
 70
     2
  9
$LTSCALE
 40
1.0
  9
$OSMODE
 70
    37
  9
$ATTMODE
 70
     1
  9
$TEXTSIZE
 40
0.2
  9
$TRACEWID
 40
0.05
  9
$TEXTSTYLE
  7
STANDARD
  9
$CLAYER
  8
VERSION_3$HOLDER-COVER
  9
$CELTYPE
  6
BYLAYER
  9
$CECOLOR
 62
   256
  9
$DIMSCALE
 40
1.0
  9
$DIMASZ
 40
0.18
  9
$DIMEXO
 40
0.0625
  9
$DIMDLI
 40
0.38
  9
$DIMRND
 40
0.0
  9
$DIMDLE
 40
0.0
  9
$DIMEXE
 40
0.18
  9
$DIMTP
 40
0.0
  9
$DIMTM
 40
0.0
  9
$DIMTXT
 40
0.18
  9
$DIMCEN
 40
0.09
  9
$DIMTSZ
 40
0.0
  9
$DIMTOL
 70
     0
  9
$DIMLIM
 70
     0
  9
$DIMTIH
 70
     1
  9
$DIMTOH
 70
     1
  9
$DIMSE1
 70
     0
  9
$DIMSE2
 70
     0
  9
$DIMTAD
 70
     0
  9
$DIMZIN
 70
     0
  9
$DIMBLK
  1

  9
$DIMASO
 70
     1
  9
$DIMSHO
 70
     1
  9
$DIMPOST
  1

  9
$DIMAPOST
  1

  9
$DIMALT
 70
     0
  9
$DIMALTD
 70
     2
  9
$DIMALTF
 40
25.4
  9
$DIMLFAC
 40
1.0
  9
$DIMTOFL
 70
     0
  9
$DIMTVP
 40
0.0
  9
$DIMTIX
 70
     0
  9
$DIMSOXD
 70
     0
  9
$DIMSAH
 70
     0
  9
$DIMBLK1
  1

  9
$DIMBLK2
  1

  9
$DIMSTYLE
  2
STANDARD
  9
$DIMCLRD
 70
     0
  9
$DIMCLRE
 70
     0
  9
$DIMCLRT
 70
     0
  9
$DIMTFAC
 40
1.0
  9
$DIMGAP
 40
0.09
  9
$LUNITS
 70
     2
  9
$LUPREC
 70
     3
  9
$SKETCHINC
 40
0.1
  9
$FILLETRAD
 40
0.5
  9
$AUNITS
 70
     0
  9
$AUPREC
 70
     0
  9
$MENU
  1
.
  9
$ELEVATION
 40
0.0
  9
$PELEVATION
 40
0.0
  9
$THICKNESS
 40
0.0
  9
$LIMCHECK
 70
     0
  9
$CHAMFERA
 40
0.0
  9
$CHAMFERB
 40
0.0
  9
$SKPOLY
 70
     0
  9
$TDCREATE
 40
2457887.719293981
  9
$TDUPDATE
 40
2457887.719305555
  9
$TDINDWG
 40
0.0000000116
  9
$TDUSRTIMER
 40
0.0000000116
  9
$USRTIMER
 70
     1
  9
$ANGBASE
 50
0.0
  9
$ANGDIR
 70
     0
  9
$PDMODE
 70
     0
  9
$PDSIZE
 40
0.0
  9
$PLINEWID
 40
0.0
  9
$COORDS
 70
     1
  9
$SPLFRAME
 70
     0
  9
$SPLINETYPE
 70
     6
  9
$SPLINESEGS
 70
     8
  9
$ATTDIA
 70
     0
  9
$ATTREQ
 70
     1
  9
$HANDLING
 70
     1
  9
$HANDSEED
  5
25A
  9
$SURFTAB1
 70
     6
  9
$SURFTAB2
 70
     6
  9
$SURFTYPE
 70
     6
  9
$SURFU
 70
     6
  9
$SURFV
 70
     6
  9
$UCSNAME
  2

  9
$UCSORG
 10
0.0
 20
0.0
 30
0.0
  9
$UCSXDIR
 10
1.0
 20
0.0
 30
0.0
  9
$UCSYDIR
 10
0.0
 20
1.0
 30
0.0
  9
$PUCSNAME
  2

  9
$PUCSORG
 10
0.0
 20
0.0
 30
0.0
  9
$PUCSXDIR
 10
1.0
 20
0.0
 30
0.0
  9
$PUCSYDIR
 10
0.0
 20
1.0
 30
0.0
  9
$USERI1
 70
     0
  9
$USERI2
 70
     0
  9
$USERI3
 70
     0
  9
$USERI4
 70
     0
  9
$USERI5
 70
     0
  9
$USERR1
 40
0.0
  9
$USERR2
 40
0.0
  9
$USERR3
 40
0.0
  9
$USERR4
 40
0.0
  9
$USERR5
 40
0.0
  9
$WORLDVIEW
 70
     1
  9
$SHADEDGE
 70
     3
  9
$SHADEDIF
 70
    70
  9
$TILEMODE
 70
     1
  9
$MAXACTVP
 70
    64
  9
$PLIMCHECK
 70
     0
  9
$PEXTMIN
 10
1.000000000000000E+20
 20
1.000000000000000E+20
 30
1.000000000000000E+20
  9
$PEXTMAX
 10
-1.000000000000000E+20
 20
-1.000000000000000E+20
 30
-1.000000000000000E+20
  9
$PLIMMIN
 10
0.0
 20
0.0
  9
$PLIMMAX
 10
12.0
 20
9.0
  9
$UNITMODE
 70
     0
  9
$VISRETAIN
 70
     1
  9
$PLINEGEN
 70
     0
  9
$PSLTSCALE
 70
     1
  0
ENDSEC
  0
SECTION
  2
TABLES
  0
TABLE
  2
VPORT
 70
     1
  0
VPORT
  2
*ACTIVE
 70
     0
 10
0.0
 20
0.0
 11
1.0
 21
1.0
 12
70.94514992636715
 22
-47.2342210064792
 13
0.0
 23
0.0
 14
0.5
 24
0.5
 15
0.5
 25
0.5
 16
0.0
 26
0.0
 36
1.0
 17
0.0
 27
0.0
 37
0.0
 40
340.3691500332258
 41
0.9033167365691487
 42
50.0
 43
0.0
 44
0.0
 50
0.0
 51
0.0
 71
     0
 72
   100
 73
     1
 74
     3
 75
     0
 76
     0
 77
     0
 78
     0
  0
ENDTAB
  0
TABLE
  2
LTYPE
 70
     1
  0
LTYPE
  2
CONTINUOUS
 70
     0
  3
Solid line
 72
    65
 73
     0
 40
0.0
  0
ENDTAB
  0
TABLE
  2
LAYER
 70
     2
  0
LAYER
  2
0
 70
     0
 62
     7
  6
CONTINUOUS
  0
LAYER
  2
VERSION_3$HOLDER-COVER
 70
     0
 62
     3
  6
CONTINUOUS
  0
ENDTAB
  0
TABLE
  2
STYLE
 70
     1
  0
STYLE
  2
STANDARD
 70
     0
 40
0.0
 41
1.0
 50
0.0
 71
     0
 42
0.2
  3
txt
  4

  0
ENDTAB
  0
TABLE
  2
VIEW
 70
     0
  0
ENDTAB
  0
TABLE
  2
UCS
 70
     0
  0
ENDTAB
  0
TABLE
  2
APPID
 70
     1
  0
APPID
  2
ACAD
 70
     0
  0
ENDTAB
  0
TABLE
  2
DIMSTYLE
 70
     1
  0
DIMSTYLE
  2
STANDARD
 70
     0
  3

  4

  5

  6

  7

 40
1.0
 41
0.18
 42
0.0625
 43
0.38
 44
0.18
 45
0.0
 46
0.0
 47
0.0
 48
0.0
140
0.18
141
0.09
142
0.0
143
25.4
144
1.0
145
0.0
146
1.0
147
0.09
 71
     0
 72
     0
 73
     1
 74
     1
 75
     0
 76
     0
 77
     0
 78
     0
170
     0
171
     2
172
     0
173
     0
174
     0
175
     0
176
     0
177
     0
178
     0
  0
ENDTAB
  0
ENDSEC
  0
SECTION
  2
BLOCKS
  0
BLOCK
  8
0
  2
$MODEL_SPACE
 70
     0
 10
0.0
 20
0.0
 30
0.0
  3
$MODEL_SPACE
  1

  0
ENDBLK
  5
21
  8
0
  0
BLOCK
 67
     1
  8
0
  2
$PAPER_SPACE
 70
     0
 10
0.0
 20
0.0
 30
0.0
  3
$PAPER_SPACE
  1

  0
ENDBLK
  5
1D
 67
     1
  8
0
  0
ENDSEC
  0
SECTION
  2
ENTITIES
  0
LINE
  5
6F
  8
VERSION_3$HOLDER-COVER
 10
148.2913238122617
 20
-30.71928773749129
 30
0.0
 11
133.6076235224856
 21
-44.21517399259251
 31
0.0
  0
LINE
  5
70
  8
VERSION_3$HOLDER-COVER
 10
149.3063741361559
 20
-31.8236757308896
 30
0.0
 11
134.6226738467711
 21
-45.31956198563112
 31
0.0
  0
LINE
  5
71
  8
VERSION_3$HOLDER-COVER
 10
150.4307358895705
 20
-42.43213866863154
 30
0.0
 11
145.0988872257864
 21
-47.33267611326642
 31
0.0
  0
LINE
  5
72
  8
VERSION_3$HOLDER-COVER
 10
151.3373826993108
 20
-39.56150610332911
 30
0.0
 11
142.1621397678921
 21
-47.99453269210837
 31
0.0
  0
LINE
  5
73
  8
VERSION_3$HOLDER-COVER
 10
151.4488482834922
 20
-37.61576106059258
 30
0.0
 11
140.2139164544052
 21
-47.94186136616392
 31
0.0
  0
LINE
  5
74
  8
VERSION_3$HOLDER-COVER
 10
151.2076283725405
 20
-35.80014040596375
 30
0.0
 11
138.4250357171772
 21
-47.54870603435586
 31
0.0
  0
LINE
  5
75
  8
VERSION_3$HOLDER-COVER
 10
150.7648637156893
 20
-34.36379205101728
 30
0.0
 11
137.031042644723
 21
-46.98663802062131
 31
0.0
  0
LINE
  5
76
  8
VERSION_3$HOLDER-COVER
 10
150.080182413516
 20
-32.9557597001774
 30
0.0
 11
135.6856232987171
 21
-46.18589438502379
 31
0.0
  0
LINE
  5
77
  8
VERSION_3$HOLDER-COVER
 10
147.2283743606809
 20
-29.85295533776301
 30
0.0
 11
132.8338152447604
 21
-43.08309002364029
 31
0.0
  0
LINE
  5
78
  8
VERSION_3$HOLDER-COVER
 10
145.8829550151204
 20
-29.05221170175612
 30
0.0
 11
132.1491339421416
 21
-41.67505767320981
 31
0.0
  0
LINE
  5
79
  8
VERSION_3$HOLDER-COVER
 10
144.4889619431478
 20
-28.49014368757889
 30
0.0
 11
131.7063692848088
 21
-40.23870931870606
 31
0.0
  0
LINE
  5
7A
  8
VERSION_3$HOLDER-COVER
 10
142.7000812066363
 20
-28.09698835511233
 30
0.0
 11
131.4651493731406
 21
-38.4230886647357
 31
0.0
  0
LINE
  5
7B
  8
VERSION_3$HOLDER-COVER
 10
140.751857894211
 20
-28.04431702819221
 30
0.0
 11
131.5766149562605
 21
-36.47734362297486
 31
0.0
  0
LINE
  5
7C
  8
VERSION_3$HOLDER-COVER
 10
137.8151104397486
 20
-28.70617360387983
 30
0.0
 11
132.4832617625688
 21
-33.60671106082677
 31
0.0
  0
ARC
  5
7D
  8
VERSION_3$HOLDER-COVER
 10
141.4569988282229
 20
-38.01942486035025
 30
0.0
 40
10.0
 50
46.8875436156054
 51
54.75053579746204
  0
ARC
  5
7E
  8
VERSION_3$HOLDER-COVER
 10
141.4569988282229
 20
-38.01942486035025
 30
0.0
 40
10.0
 50
63.73039053960726
 51
72.35031745342934
  0
ARC
  5
7F
  8
VERSION_3$HOLDER-COVER
 10
141.4569988282229
 20
-38.01942486035025
 30
0.0
 40
10.0
 50
82.859190844907
 51
94.04351556744786
  0
ARC
  5
80
  8
VERSION_3$HOLDER-COVER
 10
141.4569988282229
 20
-38.01942486035025
 30
0.0
 40
10.0
 50
111.3576709893476
 51
153.8149716526406
  0
ARC
  5
81
  8
VERSION_3$HOLDER-COVER
 10
141.4569988282229
 20
-38.01942486035025
 30
0.0
 40
10.0
 50
171.1291270747261
 51
182.3134517972669
  0
ARC
  5
82
  8
VERSION_3$HOLDER-COVER
 10
141.4569988282229
 20
-38.01942486035025
 30
0.0
 40
10.0
 50
210.4221068447126
 51
218.2850990265686
  0
ARC
  5
83
  8
VERSION_3$HOLDER-COVER
 10
141.4569988282229
 20
-38.01942486035025
 30
0.0
 40
10.0
 50
192.8223251887446
 51
201.4422521025667
  0
ARC
  5
84
  8
VERSION_3$HOLDER-COVER
 10
141.4569988282229
 20
-38.01942486035025
 30
0.0
 40
10.0
 50
351.1291270422317
 51
2.313451770729842
  0
ARC
  5
85
  8
VERSION_3$HOLDER-COVER
 10
141.4569988282229
 20
-38.01942486035025
 30
0.0
 40
10.0
 50
30.42210682400098
 51
38.28509900626434
  0
ARC
  5
86
  8
VERSION_3$HOLDER-COVER
 10
141.4569988282229
 20
-38.01942486035025
 30
0.0
 40
10.0
 50
12.82232516542069
 51
21.44225208085822
  0
ARC
  5
87
  8
VERSION_3$HOLDER-COVER
 10
141.4569988282229
 20
-38.01942486035025
 30
0.0
 40
10.0
 50
226.8875436359094
 51
234.750535818174
  0
ARC
  5
88
  8
VERSION_3$HOLDER-COVER
 10
141.4569988282229
 20
-38.01942486035025
 30
0.0
 40
10.0
 50
243.7303905613155
 51
252.3503174767531
  0
ARC
  5
89
  8
VERSION_3$HOLDER-COVER
 10
141.4569988282229
 20
-38.01942486035025
 30
0.0
 40
10.0
 50
291.3576710452643
 51
333.8149715967234
  0
ARC
  5
8A
  8
VERSION_3$HOLDER-COVER
 10
141.4569988282229
 20
-38.01942486035025
 30
0.0
 40
10.0
 50
262.859190871444
 51
274.0435155999422
  0
ARC
  5
8B
  8
VERSION_3$HOLDER-COVER
 10
94.53233810310377
 20
-38.01942486035025
 30
0.0
 40
10.0
 50
265.9564844000578
 51
277.1408091285562
  0
ARC
  5
8C
  8
VERSION_3$HOLDER-COVER
 10
94.53233810310377
 20
-38.01942486035025
 30
0.0
 40
10.0
 50
206.1850284032766
 51
248.6423289547357
  0
ARC
  5
8D
  8
VERSION_3$HOLDER-COVER
 10
94.53233810310377
 20
-38.01942486035025
 30
0.0
 40
10.0
 50
287.649682523247
 51
296.2696094386845
  0
ARC
  5
8E
  8
VERSION_3$HOLDER-COVER
 10
94.53233810310377
 20
-38.01942486035025
 30
0.0
 40
10.0
 50
305.2494641818258
 51
313.1124563640907
  0
ARC
  5
8F
  8
VERSION_3$HOLDER-COVER
 10
94.53233810310377
 20
-38.01942486035025
 30
0.0
 40
10.0
 50
158.5577479191417
 51
167.1776748345793
  0
ARC
  5
90
  8
VERSION_3$HOLDER-COVER
 10
94.53233810310377
 20
-38.01942486035025
 30
0.0
 40
10.0
 50
141.7149009937356
 51
149.577893175999
  0
ARC
  5
91
  8
VERSION_3$HOLDER-COVER
 10
94.53233810310377
 20
-38.01942486035025
 30
0.0
 40
10.0
 50
177.6865482292702
 51
188.8708729577683
  0
ARC
  5
92
  8
VERSION_3$HOLDER-COVER
 10
94.53233810310377
 20
-38.01942486035025
 30
0.0
 40
10.0
 50
338.5577478974333
 51
347.1776748112554
  0
ARC
  5
93
  8
VERSION_3$HOLDER-COVER
 10
94.53233810310377
 20
-38.01942486035025
 30
0.0
 40
10.0
 50
321.7149009734313
 51
329.5778931552874
  0
ARC
  5
94
  8
VERSION_3$HOLDER-COVER
 10
94.53233810310377
 20
-38.01942486035025
 30
0.0
 40
10.0
 50
357.6865482027331
 51
8.870872925273924
  0
ARC
  5
95
  8
VERSION_3$HOLDER-COVER
 10
94.53233810310377
 20
-38.01942486035025
 30
0.0
 40
10.0
 50
26.18502834735943
 51
68.64232901065256
  0
ARC
  5
96
  8
VERSION_3$HOLDER-COVER
 10
94.53233810310377
 20
-38.01942486035025
 30
0.0
 40
10.0
 50
85.95648443255205
 51
97.14080915509302
  0
ARC
  5
97
  8
VERSION_3$HOLDER-COVER
 10
94.53233810310377
 20
-38.01942486035025
 30
0.0
 40
10.0
 50
107.6496825465708
 51
116.2696094603928
  0
ARC
  5
98
  8
VERSION_3$HOLDER-COVER
 10
94.53233810310377
 20
-38.01942486035025
 30
0.0
 40
10.0
 50
125.249464202538
 51
133.1124563843947
  0
LINE
  5
99
  8
VERSION_3$HOLDER-COVER
 10
98.17422649157814
 20
-28.70617360387983
 30
0.0
 11
103.5060751687579
 21
-33.60671106082677
 31
0.0
  0
LINE
  5
9A
  8
VERSION_3$HOLDER-COVER
 10
95.23747903711576
 20
-28.04431702819221
 30
0.0
 11
104.4127219750662
 21
-36.47734362297486
 31
0.0
  0
LINE
  5
9B
  8
VERSION_3$HOLDER-COVER
 10
93.28925572469038
 20
-28.09698835511233
 30
0.0
 11
104.5241875581861
 21
-38.4230886647357
 31
0.0
  0
LINE
  5
9C
  8
VERSION_3$HOLDER-COVER
 10
91.50037498817886
 20
-28.49014368757889
 30
0.0
 11
104.2829676465179
 21
-40.23870931870606
 31
0.0
  0
LINE
  5
9D
  8
VERSION_3$HOLDER-COVER
 10
90.10638191620626
 20
-29.05221170175612
 30
0.0
 11
103.840202989185
 21
-41.67505767320981
 31
0.0
  0
LINE
  5
9E
  8
VERSION_3$HOLDER-COVER
 10
88.7609625706458
 20
-29.85295533776301
 30
0.0
 11
103.1555216865663
 21
-43.08309002364029
 31
0.0
  0
LINE
  5
9F
  8
VERSION_3$HOLDER-COVER
 10
85.90915451781076
 20
-32.9557597001774
 30
0.0
 11
100.3037136326096
 21
-46.18589438502379
 31
0.0
  0
LINE
  5
A0
  8
VERSION_3$HOLDER-COVER
 10
85.22447321563743
 20
-34.36379205101728
 30
0.0
 11
98.95829428660375
 21
-46.98663802062131
 31
0.0
  0
LINE
  5
A1
  8
VERSION_3$HOLDER-COVER
 10
84.78170855878625
 20
-35.80014040596375
 30
0.0
 11
97.56430121414951
 21
-47.54870603435586
 31
0.0
  0
LINE
  5
A2
  8
VERSION_3$HOLDER-COVER
 10
84.54048864783447
 20
-37.61576106059258
 30
0.0
 11
95.77542047692151
 21
-47.94186136616392
 31
0.0
  0
LINE
  5
A3
  8
VERSION_3$HOLDER-COVER
 10
84.65195423201592
 20
-39.56150610332911
 30
0.0
 11
93.82719716343458
 21
-47.99453269210837
 31
0.0
  0
LINE
  5
A4
  8
VERSION_3$HOLDER-COVER
 10
85.55860104175616
 20
-42.43213866863154
 30
0.0
 11
90.89044970554028
 21
-47.33267611326642
 31
0.0
  0
LINE
  5
A5
  8
VERSION_3$HOLDER-COVER
 10
86.68296279517082
 20
-31.8236757308896
 30
0.0
 11
101.3666630845556
 21
-45.31956198563112
 31
0.0
  0
LINE
  5
A6
  8
VERSION_3$HOLDER-COVER
 10
87.698013119065
 20
-30.71928773749129
 30
0.0
 11
102.3817134088411
 21
-44.21517399259251
 31
0.0
  0
ARC
  5
A7
  8
VERSION_3$HOLDER-COVER
 10
52.77869869899671
 20
-48.98665015337235
 30
0.0
 40
4.013540278325417
 50
17.14255314834383
 51
205.5139914281186
  0
ARC
  5
A8
  8
VERSION_3$HOLDER-COVER
 10
17.05289668765212
 20
-48.98665015337393
 30
0.0
 40
4.01354027832543
 50
334.4860085718892
 51
162.8574765232425
  0
ARC
  5
A9
  8
VERSION_3$HOLDER-COVER
 10
25.20141400778276
 20
-52.16825723858152
 30
0.0
 40
4.753825662352034
 50
162.204725281801
 51
269.9999999999996
  0
ARC
  5
AA
  8
VERSION_3$HOLDER-COVER
 10
25.20141400778275
 20
-52.16825723858155
 30
0.0
 40
12.75382566235201
 50
157.3555665911839
 51
269.9999999999999
  0
LINE
  5
AB
  8
VERSION_3$HOLDER-COVER
 10
44.63018137913282
 20
-64.9220829009335
 30
0.0
 11
25.20141400778274
 21
-64.92208290093356
 31
0.0
  0
ARC
  5
AC
  8
VERSION_3$HOLDER-COVER
 10
44.63018137886674
 20
-52.16825723858154
 30
0.0
 40
12.75382566235197
 50
270.0000000011954
 51
22.64443340882637
  0
ARC
  5
AD
  8
VERSION_3$HOLDER-COVER
 10
44.63018137886672
 20
-52.16825723858153
 30
0.0
 40
4.753825662351993
 50
270.0000000022014
 51
17.79527471821293
  0
LINE
  5
AE
  8
VERSION_3$HOLDER-COVER
 10
25.20141400778272
 20
-56.92208290093356
 30
0.0
 11
44.63018137904936
 21
-56.92208290093351
 31
0.0
  0
POLYLINE
  5
AF
  8
VERSION_3$HOLDER-COVER
 66
     1
 10
0.0
 20
0.0
 30
0.0
  0
VERTEX
  5
B0
  8
VERSION_3$HOLDER-COVER
 10
-65.40324785831109
 20
-130.3379205584153
 30
0.0
  0
VERTEX
  5
B1
  8
VERSION_3$HOLDER-COVER
 10
-61.71318546720516
 20
-130.9050850964024
 30
0.0
  0
VERTEX
  5
B2
  8
VERSION_3$HOLDER-COVER
 10
-58.12343833453041
 20
-131.5647903527436
 30
0.0
  0
VERTEX
  5
B3
  8
VERSION_3$HOLDER-COVER
 10
-54.63400646028682
 20
-132.3170363274388
 30
0.0
  0
VERTEX
  5
B4
  8
VERSION_3$HOLDER-COVER
 10
-51.2448898444744
 20
-133.161823020488
 30
0.0
  0
VERTEX
  5
B5
  8
VERSION_3$HOLDER-COVER
 10
-47.95608848709315
 20
-134.0991504318914
 30
0.0
  0
VERTEX
  5
B6
  8
VERSION_3$HOLDER-COVER
 10
-46.34930603031422
 20
-134.6025169069758
 30
0.0
  0
VERTEX
  5
B7
  8
VERSION_3$HOLDER-COVER
 10
-44.76760238814308
 20
-135.1290185616487
 30
0.0
  0
VERTEX
  5
B8
  8
VERSION_3$HOLDER-COVER
 10
-43.21097756057972
 20
-135.6786553959101
 30
0.0
  0
VERTEX
  5
B9
  8
VERSION_3$HOLDER-COVER
 10
-41.67943154762417
 20
-136.2514274097601
 30
0.0
  0
VERTEX
  5
BA
  8
VERSION_3$HOLDER-COVER
 10
-40.17296434927641
 20
-136.8473346031985
 30
0.0
  0
VERTEX
  5
BB
  8
VERSION_3$HOLDER-COVER
 10
-38.69157596553643
 20
-137.4663769762255
 30
0.0
  0
VERTEX
  5
BC
  8
VERSION_3$HOLDER-COVER
 10
-37.23526639640425
 20
-138.108554528841
 30
0.0
  0
VERTEX
  5
BD
  8
VERSION_3$HOLDER-COVER
 10
-35.80403564187986
 20
-138.7738672610449
 30
0.0
  0
VERTEX
  5
BE
  8
VERSION_3$HOLDER-COVER
 10
-34.39788370196327
 20
-139.4623151728374
 30
0.0
  0
VERTEX
  5
BF
  8
VERSION_3$HOLDER-COVER
 10
-33.01681057665446
 20
-140.1738982642184
 30
0.0
  0
VERTEX
  5
C0
  8
VERSION_3$HOLDER-COVER
 10
-31.66081626595346
 20
-140.9086165351879
 30
0.0
  0
VERTEX
  5
C1
  8
VERSION_3$HOLDER-COVER
 10
-30.32990076986024
 20
-141.6664699857459
 30
0.0
  0
VERTEX
  5
C2
  8
VERSION_3$HOLDER-COVER
 10
-29.02406408837481
 20
-142.4474586158925
 30
0.0
  0
VERTEX
  5
C3
  8
VERSION_3$HOLDER-COVER
 10
-27.74330622149718
 20
-143.2515824256275
 30
0.0
  0
VERTEX
  5
C4
  8
VERSION_3$HOLDER-COVER
 10
-26.48762716922734
 20
-144.0788414149511
 30
0.0
  0
VERTEX
  5
C5
  8
VERSION_3$HOLDER-COVER
 10
-25.2570269315653
 20
-144.9292355838631
 30
0.0
  0
VERTEX
  5
C6
  8
VERSION_3$HOLDER-COVER
 10
-24.05150550851104
 20
-145.8027649323637
 30
0.0
  0
VERTEX
  5
C7
  8
VERSION_3$HOLDER-COVER
 10
-22.87106290006458
 20
-146.6994294604528
 30
0.0
  0
VERTEX
  5
C8
  8
VERSION_3$HOLDER-COVER
 10
-21.71569910622591
 20
-147.6192291681304
 30
0.0
  0
VERTEX
  5
C9
  8
VERSION_3$HOLDER-COVER
 10
-20.58541412699503
 20
-148.5621640553965
 30
0.0
  0
VERTEX
  5
CA
  8
VERSION_3$HOLDER-COVER
 10
-19.48020796237195
 20
-149.5282341222511
 30
0.0
  0
VERTEX
  5
CB
  8
VERSION_3$HOLDER-COVER
 10
-18.40008061235666
 20
-150.5174393686942
 30
0.0
  0
VERTEX
  5
CC
  8
VERSION_3$HOLDER-COVER
 10
-17.34503207694916
 20
-151.5297797947258
 30
0.0
  0
VERTEX
  5
CD
  8
VERSION_3$HOLDER-COVER
 10
-16.31506235614945
 20
-152.565255400346
 30
0.0
  0
VERTEX
  5
CE
  8
VERSION_3$HOLDER-COVER
 10
-15.31017144995754
 20
-153.6238661855546
 30
0.0
  0
VERTEX
  5
CF
  8
VERSION_3$HOLDER-COVER
 10
-14.33035935837342
 20
-154.7056121503518
 30
0.0
  0
VERTEX
  5
D0
  8
VERSION_3$HOLDER-COVER
 10
-13.37562608139709
 20
-155.8104932947374
 30
0.0
  0
VERTEX
  5
D1
  8
VERSION_3$HOLDER-COVER
 10
-12.44597161902856
 20
-156.9385096187116
 30
0.0
  0
VERTEX
  5
D2
  8
VERSION_3$HOLDER-COVER
 10
-11.54139597126781
 20
-158.0896611222743
 30
0.0
  0
VERTEX
  5
D3
  8
VERSION_3$HOLDER-COVER
 10
-10.66189913811486
 20
-159.2639478054255
 30
0.0
  0
VERTEX
  5
D4
  8
VERSION_3$HOLDER-COVER
 10
-9.807481119569704
 20
-160.4613696681652
 30
0.0
  0
VERTEX
  5
D5
  8
VERSION_3$HOLDER-COVER
 10
-8.978141915632337
 20
-161.6819267104934
 30
0.0
  0
VERTEX
  5
D6
  8
VERSION_3$HOLDER-COVER
 10
-8.173881526302763
 20
-162.9256189324101
 30
0.0
  0
VERTEX
  5
D7
  8
VERSION_3$HOLDER-COVER
 10
-7.394699951580983
 20
-164.1924463339153
 30
0.0
  0
VERTEX
  5
D8
  8
VERSION_3$HOLDER-COVER
 10
-6.640597191466995
 20
-165.4824089150091
 30
0.0
  0
VERTEX
  5
D9
  8
VERSION_3$HOLDER-COVER
 10
-5.911573245960799
 20
-166.7955066756913
 30
0.0
  0
VERTEX
  5
DA
  8
VERSION_3$HOLDER-COVER
 10
-5.207628115062397
 20
-168.1317396159621
 30
0.0
  0
VERTEX
  5
DB
  8
VERSION_3$HOLDER-COVER
 10
-4.528761798771786
 20
-169.4911077358214
 30
0.0
  0
VERTEX
  5
DC
  8
VERSION_3$HOLDER-COVER
 10
-3.874974297088968
 20
-170.8736110352692
 30
0.0
  0
VERTEX
  5
DD
  8
VERSION_3$HOLDER-COVER
 10
-3.246265610013943
 20
-172.2792495143055
 30
0.0
  0
VERTEX
  5
DE
  8
VERSION_3$HOLDER-COVER
 10
-2.642635737546709
 20
-173.7080231729303
 30
0.0
  0
VERTEX
  5
DF
  8
VERSION_3$HOLDER-COVER
 10
-2.064084679687269
 20
-175.1599320111436
 30
0.0
  0
VERTEX
  5
E0
  8
VERSION_3$HOLDER-COVER
 10
-1.510612436435621
 20
-176.6349760289454
 30
0.0
  0
VERTEX
  5
E1
  8
VERSION_3$HOLDER-COVER
 10
-0.9822190077917657
 20
-178.1331552263358
 30
0.0
  0
VERTEX
  5
E2
  8
VERSION_3$HOLDER-COVER
 10
-0.478904393755703
 20
-179.6544696033146
 30
0.0
  0
VERTEX
  5
E3
  8
VERSION_3$HOLDER-COVER
 10
-0.0006685943274327
 20
-181.1989191598819
 30
0.0
  0
VERTEX
  5
E4
  8
VERSION_3$HOLDER-COVER
 10
0.452488390493045
 20
-182.7665038960378
 30
0.0
  0
VERTEX
  5
E5
  8
VERSION_3$HOLDER-COVER
 10
0.8805665607057301
 20
-184.3572238117822
 30
0.0
  0
VERTEX
  5
E6
  8
VERSION_3$HOLDER-COVER
 10
1.283565916310623
 20
-185.971078907115
 30
0.0
  0
VERTEX
  5
E7
  8
VERSION_3$HOLDER-COVER
 10
1.661486457307723
 20
-187.6080691820364
 30
0.0
  0
VERTEX
  5
E8
  8
VERSION_3$HOLDER-COVER
 10
2.342091095478545
 20
-190.9514552706448
 30
0.0
  0
VERTEX
  5
E9
  8
VERSION_3$HOLDER-COVER
 10
2.922380475218198
 20
-194.3873820776071
 30
0.0
  0
VERTEX
  5
EA
  8
VERSION_3$HOLDER-COVER
 10
3.083282866761235
 20
-195.335785521532
 30
0.0
  0
VERTEX
  5
EB
  8
VERSION_3$HOLDER-COVER
 10
3.278783968639743
 20
-196.2886075614997
 30
0.0
  0
VERTEX
  5
EC
  8
VERSION_3$HOLDER-COVER
 10
3.389785705235651
 20
-196.7658954992193
 30
0.0
  0
VERTEX
  5
ED
  8
VERSION_3$HOLDER-COVER
 10
3.509750178989337
 20
-197.2433332947659
 30
0.0
  0
VERTEX
  5
EE
  8
VERSION_3$HOLDER-COVER
 10
3.638761049394586
 20
-197.7205839798159
 30
0.0
  0
VERTEX
  5
EF
  8
VERSION_3$HOLDER-COVER
 10
3.776891100090658
 20
-198.1973024915075
 30
0.0
  0
VERTEX
  5
F0
  8
VERSION_3$HOLDER-COVER
 10
3.924201731449265
 20
-198.6731362528196
 30
0.0
  0
VERTEX
  5
F1
  8
VERSION_3$HOLDER-COVER
 10
4.080742475994635
 20
-199.1477258011489
 30
0.0
  0
VERTEX
  5
F2
  8
VERSION_3$HOLDER-COVER
 10
4.246550540074395
 20
-199.6207054638901
 30
0.0
  0
VERTEX
  5
F3
  8
VERSION_3$HOLDER-COVER
 10
4.421650375179786
 20
-200.0917040794426
 30
0.0
  0
VERTEX
  5
F4
  8
VERSION_3$HOLDER-COVER
 10
4.606053282263518
 20
-200.5603457616909
 30
0.0
  0
VERTEX
  5
F5
  8
VERSION_3$HOLDER-COVER
 10
4.799757052321327
 20
-201.0262507056168
 30
0.0
  0
VERTEX
  5
F6
  8
VERSION_3$HOLDER-COVER
 10
5.002745646387897
 20
-201.4890360313226
 30
0.0
  0
VERTEX
  5
F7
  8
VERSION_3$HOLDER-COVER
 10
5.214988917949133
 20
-201.948316663368
 30
0.0
  0
VERTEX
  5
F8
  8
VERSION_3$HOLDER-COVER
 10
5.436442380590622
 20
-202.4037062419618
 30
0.0
  0
VERTEX
  5
F9
  8
VERSION_3$HOLDER-COVER
 10
5.667047023486987
 20
-202.8548180621991
 30
0.0
  0
VERTEX
  5
FA
  8
VERSION_3$HOLDER-COVER
 10
5.906729177089774
 20
-203.301266037212
 30
0.0
  0
VERTEX
  5
FB
  8
VERSION_3$HOLDER-COVER
 10
6.155400431093759
 20
-203.7426656807956
 30
0.0
  0
VERTEX
  5
FC
  8
VERSION_3$HOLDER-COVER
 10
6.412957606455235
 20
-204.1786351048027
 30
0.0
  0
VERTEX
  5
FD
  8
VERSION_3$HOLDER-COVER
 10
6.679282782903181
 20
-204.6087960263612
 30
0.0
  0
VERTEX
  5
FE
  8
VERSION_3$HOLDER-COVER
 10
6.954243383028181
 20
-205.0327747797679
 30
0.0
  0
VERTEX
  5
FF
  8
VERSION_3$HOLDER-COVER
 10
7.23769231365783
 20
-205.4502033277537
 30
0.0
  0
VERTEX
  5
100
  8
VERSION_3$HOLDER-COVER
 10
7.529468164834783
 20
-205.8607202667016
 30
0.0
  0
VERTEX
  5
101
  8
VERSION_3$HOLDER-COVER
 10
7.829395466308704
 20
-206.2639718203297
 30
0.0
  0
VERTEX
  5
102
  8
VERSION_3$HOLDER-COVER
 10
8.137285001040414
 20
-206.6596128163358
 30
0.0
  0
VERTEX
  5
103
  8
VERSION_3$HOLDER-COVER
 10
8.452934174800154
 20
-207.0473076405282
 30
0.0
  0
VERTEX
  5
104
  8
VERSION_3$HOLDER-COVER
 10
8.776127440526686
 20
-207.4267311630547
 30
0.0
  0
VERTEX
  5
105
  8
VERSION_3$HOLDER-COVER
 10
9.106636775704983
 20
-207.7975696314714
 30
0.0
  0
VERTEX
  5
106
  8
VERSION_3$HOLDER-COVER
 10
9.44422221062194
 20
-208.1595215255807
 30
0.0
  0
VERTEX
  5
107
  8
VERSION_3$HOLDER-COVER
 10
9.788632404977102
 20
-208.5122983691971
 30
0.0
  0
VERTEX
  5
108
  8
VERSION_3$HOLDER-COVER
 10
10.13960526996291
 20
-208.8556254942807
 30
0.0
  0
VERTEX
  5
109
  8
VERSION_3$HOLDER-COVER
 10
10.49686863259116
 20
-209.1892427532021
 30
0.0
  0
VERTEX
  5
10A
  8
VERSION_3$HOLDER-COVER
 10
10.86014093873296
 20
-209.5129051752612
 30
0.0
  0
VERTEX
  5
10B
  8
VERSION_3$HOLDER-COVER
 10
11.22913199106237
 20
-209.8263835639883
 30
0.0
  0
VERTEX
  5
10C
  8
VERSION_3$HOLDER-COVER
 10
11.603543717852
 20
-210.1294650321783
 30
0.0
  0
VERTEX
  5
10D
  8
VERSION_3$HOLDER-COVER
 10
11.98307096836514
 20
-210.421953472074
 30
0.0
  0
VERTEX
  5
10E
  8
VERSION_3$HOLDER-COVER
 10
12.36740233042516
 20
-210.7036699585859
 30
0.0
  0
VERTEX
  5
10F
  8
VERSION_3$HOLDER-COVER
 10
12.75622096562147
 20
-210.9744530839347
 30
0.0
  0
VERTEX
  5
110
  8
VERSION_3$HOLDER-COVER
 10
13.14920545753158
 20
-211.2341592226027
 30
0.0
  0
VERTEX
  5
111
  8
VERSION_3$HOLDER-COVER
 10
13.54603066830326
 20
-211.4826627259895
 30
0.0
  0
VERTEX
  5
112
  8
VERSION_3$HOLDER-COVER
 10
13.94636859894717
 20
-211.7198560466702
 30
0.0
  0
VERTEX
  5
113
  8
VERSION_3$HOLDER-COVER
 10
14.34988924873913
 20
-211.945649792656
 30
0.0
  0
VERTEX
  5
114
  8
VERSION_3$HOLDER-COVER
 10
14.75626146922064
 20
-212.1599727125364
 30
0.0
  0
VERTEX
  5
115
  8
VERSION_3$HOLDER-COVER
 10
15.16515380841425
 20
-212.3627716128515
 30
0.0
  0
VERTEX
  5
116
  8
VERSION_3$HOLDER-COVER
 10
15.57623534103447
 20
-212.554011209487
 30
0.0
  0
VERTEX
  5
117
  8
VERSION_3$HOLDER-COVER
 10
15.98917648067306
 20
-212.7336739152954
 30
0.0
  0
VERTEX
  5
118
  8
VERSION_3$HOLDER-COVER
 10
16.40364977016522
 20
-212.9017595665367
 30
0.0
  0
VERTEX
  5
119
  8
VERSION_3$HOLDER-COVER
 10
16.81933064659825
 20
-213.0582850910786
 30
0.0
  0
VERTEX
  5
11A
  8
VERSION_3$HOLDER-COVER
 10
17.23589817770207
 20
-213.2032841216109
 30
0.0
  0
VERTEX
  5
11B
  8
VERSION_3$HOLDER-COVER
 10
17.65303576665796
 20
-213.3368065574011
 30
0.0
  0
VERTEX
  5
11C
  8
VERSION_3$HOLDER-COVER
 10
18.07043182267419
 20
-213.4589180783525
 30
0.0
  0
VERTEX
  5
11D
  8
VERSION_3$HOLDER-COVER
 10
18.48778039500051
 20
-213.5696996153172
 30
0.0
  0
VERTEX
  5
11E
  8
VERSION_3$HOLDER-COVER
 10
18.90478176838416
 20
-213.669246780766
 30
0.0
  0
VERTEX
  5
11F
  8
VERSION_3$HOLDER-COVER
 10
19.32114301830375
 20
-213.7576692640254
 30
0.0
  0
VERTEX
  5
120
  8
VERSION_3$HOLDER-COVER
 10
19.73657852465106
 20
-213.8350901953606
 30
0.0
  0
VERTEX
  5
121
  8
VERSION_3$HOLDER-COVER
 10
20.15081044286019
 20
-213.9016454832092
 30
0.0
  0
VERTEX
  5
122
  8
VERSION_3$HOLDER-COVER
 10
20.56356913180592
 20
-213.9574831288633
 30
0.0
  0
VERTEX
  5
123
  8
VERSION_3$HOLDER-COVER
 10
20.97459353810542
 20
-214.0027625228515
 30
0.0
  0
VERTEX
  5
124
  8
VERSION_3$HOLDER-COVER
 10
21.38363153675633
 20
-214.0376537271933
 30
0.0
  0
VERTEX
  5
125
  8
VERSION_3$HOLDER-COVER
 10
21.79044022832899
 20
-214.0623367475922
 30
0.0
  0
VERTEX
  5
126
  8
VERSION_3$HOLDER-COVER
 10
22.19478619319663
 20
-214.077000799495
 30
0.0
  0
VERTEX
  5
127
  8
VERSION_3$HOLDER-COVER
 10
22.59644570353591
 20
-214.081843571786
 30
0.0
  0
VERTEX
  5
128
  8
VERSION_3$HOLDER-COVER
 10
131.1391320653777
 20
-214.0818435717843
 30
0.0
  0
VERTEX
  5
129
  8
VERSION_3$HOLDER-COVER
 10
131.540791575717
 20
-214.0770007994932
 30
0.0
  0
VERTEX
  5
12A
  8
VERSION_3$HOLDER-COVER
 10
131.9451375405845
 20
-214.0623367475905
 30
0.0
  0
VERTEX
  5
12B
  8
VERSION_3$HOLDER-COVER
 10
132.3519462321572
 20
-214.0376537271915
 30
0.0
  0
VERTEX
  5
12C
  8
VERSION_3$HOLDER-COVER
 10
132.760984230808
 20
-214.0027625228496
 30
0.0
  0
VERTEX
  5
12D
  8
VERSION_3$HOLDER-COVER
 10
133.1720086371075
 20
-213.9574831288615
 30
0.0
  0
VERTEX
  5
12E
  8
VERSION_3$HOLDER-COVER
 10
133.5847673260532
 20
-213.9016454832074
 30
0.0
  0
VERTEX
  5
12F
  8
VERSION_3$HOLDER-COVER
 10
133.9989992442623
 20
-213.8350901953587
 30
0.0
  0
VERTEX
  5
130
  8
VERSION_3$HOLDER-COVER
 10
134.4144347506096
 20
-213.7576692640235
 30
0.0
  0
VERTEX
  5
131
  8
VERSION_3$HOLDER-COVER
 10
134.8307960005292
 20
-213.669246780764
 30
0.0
  0
VERTEX
  5
132
  8
VERSION_3$HOLDER-COVER
 10
135.2477973739128
 20
-213.5696996153152
 30
0.0
  0
VERTEX
  5
133
  8
VERSION_3$HOLDER-COVER
 10
135.6651459462391
 20
-213.4589180783505
 30
0.0
  0
VERTEX
  5
134
  8
VERSION_3$HOLDER-COVER
 10
136.0825420022553
 20
-213.3368065573991
 30
0.0
  0
VERTEX
  5
135
  8
VERSION_3$HOLDER-COVER
 10
136.4996795912111
 20
-213.203284121609
 30
0.0
  0
VERTEX
  5
136
  8
VERSION_3$HOLDER-COVER
 10
136.9162471223149
 20
-213.0582850910766
 30
0.0
  0
VERTEX
  5
137
  8
VERSION_3$HOLDER-COVER
 10
137.3319279987479
 20
-212.9017595665347
 30
0.0
  0
VERTEX
  5
138
  8
VERSION_3$HOLDER-COVER
 10
137.74640128824
 20
-212.7336739152934
 30
0.0
  0
VERTEX
  5
139
  8
VERSION_3$HOLDER-COVER
 10
138.1593424278786
 20
-212.554011209485
 30
0.0
  0
VERTEX
  5
13A
  8
VERSION_3$HOLDER-COVER
 10
138.5704239604987
 20
-212.3627716128495
 30
0.0
  0
VERTEX
  5
13B
  8
VERSION_3$HOLDER-COVER
 10
138.9793162996923
 20
-212.1599727125344
 30
0.0
  0
VERTEX
  5
13C
  8
VERSION_3$HOLDER-COVER
 10
139.3856885201738
 20
-211.9456497926541
 30
0.0
  0
VERTEX
  5
13D
  8
VERSION_3$HOLDER-COVER
 10
139.7892091699657
 20
-211.7198560466683
 30
0.0
  0
VERTEX
  5
13E
  8
VERSION_3$HOLDER-COVER
 10
140.1895471006096
 20
-211.4826627259875
 30
0.0
  0
VERTEX
  5
13F
  8
VERSION_3$HOLDER-COVER
 10
140.5863723113812
 20
-211.2341592226008
 30
0.0
  0
VERTEX
  5
140
  8
VERSION_3$HOLDER-COVER
 10
140.9793568032913
 20
-210.9744530839328
 30
0.0
  0
VERTEX
  5
141
  8
VERSION_3$HOLDER-COVER
 10
141.3681754384876
 20
-210.703669958584
 30
0.0
  0
VERTEX
  5
142
  8
VERSION_3$HOLDER-COVER
 10
141.7525068005476
 20
-210.4219534720722
 30
0.0
  0
VERTEX
  5
143
  8
VERSION_3$HOLDER-COVER
 10
142.1320340510607
 20
-210.1294650321765
 30
0.0
  0
VERTEX
  5
144
  8
VERSION_3$HOLDER-COVER
 10
142.5064457778503
 20
-209.8263835639865
 30
0.0
  0
VERTEX
  5
145
  8
VERSION_3$HOLDER-COVER
 10
142.8754368301797
 20
-209.5129051752595
 30
0.0
  0
VERTEX
  5
146
  8
VERSION_3$HOLDER-COVER
 10
143.2387091363214
 20
-209.1892427532004
 30
0.0
  0
VERTEX
  5
147
  8
VERSION_3$HOLDER-COVER
 10
143.5959724989497
 20
-208.8556254942791
 30
0.0
  0
VERTEX
  5
148
  8
VERSION_3$HOLDER-COVER
 10
143.9469453639354
 20
-208.5122983691955
 30
0.0
  0
VERTEX
  5
149
  8
VERSION_3$HOLDER-COVER
 10
144.2913555582906
 20
-208.1595215255791
 30
0.0
  0
VERTEX
  5
14A
  8
VERSION_3$HOLDER-COVER
 10
144.6289409932075
 20
-207.7975696314698
 30
0.0
  0
VERTEX
  5
14B
  8
VERSION_3$HOLDER-COVER
 10
144.9594503283858
 20
-207.4267311630531
 30
0.0
  0
VERTEX
  5
14C
  8
VERSION_3$HOLDER-COVER
 10
145.2826435941123
 20
-207.0473076405267
 30
0.0
  0
VERTEX
  5
14D
  8
VERSION_3$HOLDER-COVER
 10
145.598292767872
 20
-206.6596128163344
 30
0.0
  0
VERTEX
  5
14E
  8
VERSION_3$HOLDER-COVER
 10
145.9061823026036
 20
-206.2639718203283
 30
0.0
  0
VERTEX
  5
14F
  8
VERSION_3$HOLDER-COVER
 10
146.2061096040776
 20
-205.8607202667002
 30
0.0
  0
VERTEX
  5
150
  8
VERSION_3$HOLDER-COVER
 10
146.4978854552545
 20
-205.4502033277524
 30
0.0
  0
VERTEX
  5
151
  8
VERSION_3$HOLDER-COVER
 10
146.7813343858841
 20
-205.0327747797666
 30
0.0
  0
VERTEX
  5
152
  8
VERSION_3$HOLDER-COVER
 10
147.0562949860091
 20
-204.60879602636
 30
0.0
  0
VERTEX
  5
153
  8
VERSION_3$HOLDER-COVER
 10
147.322620162457
 20
-204.1786351048015
 30
0.0
  0
VERTEX
  5
154
  8
VERSION_3$HOLDER-COVER
 10
147.5801773378185
 20
-203.7426656807944
 30
0.0
  0
VERTEX
  5
155
  8
VERSION_3$HOLDER-COVER
 10
147.8288485918225
 20
-203.3012660372109
 30
0.0
  0
VERTEX
  5
156
  8
VERSION_3$HOLDER-COVER
 10
148.0685307454253
 20
-202.854818062198
 30
0.0
  0
VERTEX
  5
157
  8
VERSION_3$HOLDER-COVER
 10
148.2991353883216
 20
-202.4037062419608
 30
0.0
  0
VERTEX
  5
158
  8
VERSION_3$HOLDER-COVER
 10
148.5205888509631
 20
-201.9483166633671
 30
0.0
  0
VERTEX
  5
159
  8
VERSION_3$HOLDER-COVER
 10
148.7328321225243
 20
-201.4890360313217
 30
0.0
  0
VERTEX
  5
15A
  8
VERSION_3$HOLDER-COVER
 10
148.9358207165909
 20
-201.026250705616
 30
0.0
  0
VERTEX
  5
15B
  8
VERSION_3$HOLDER-COVER
 10
149.1295244866487
 20
-200.5603457616901
 30
0.0
  0
VERTEX
  5
15C
  8
VERSION_3$HOLDER-COVER
 10
149.3139273937325
 20
-200.0917040794418
 30
0.0
  0
VERTEX
  5
15D
  8
VERSION_3$HOLDER-COVER
 10
149.4890272288378
 20
-199.6207054638893
 30
0.0
  0
VERTEX
  5
15E
  8
VERSION_3$HOLDER-COVER
 10
149.6548352929176
 20
-199.1477258011482
 30
0.0
  0
VERTEX
  5
15F
  8
VERSION_3$HOLDER-COVER
 10
149.811376037463
 20
-198.6731362528189
 30
0.0
  0
VERTEX
  5
160
  8
VERSION_3$HOLDER-COVER
 10
149.9586866688216
 20
-198.1973024915069
 30
0.0
  0
VERTEX
  5
161
  8
VERSION_3$HOLDER-COVER
 10
150.0968167195177
 20
-197.7205839798153
 30
0.0
  0
VERTEX
  5
162
  8
VERSION_3$HOLDER-COVER
 10
150.2258275899229
 20
-197.2433332947654
 30
0.0
  0
VERTEX
  5
163
  8
VERSION_3$HOLDER-COVER
 10
150.3457920636767
 20
-196.7658954992189
 30
0.0
  0
VERTEX
  5
164
  8
VERSION_3$HOLDER-COVER
 10
150.4567938002726
 20
-196.2886075614992
 30
0.0
  0
VERTEX
  5
165
  8
VERSION_3$HOLDER-COVER
 10
150.6522949021511
 20
-195.3357855215317
 30
0.0
  0
VERTEX
  5
166
  8
VERSION_3$HOLDER-COVER
 10
150.8131972936942
 20
-194.3873820776068
 30
0.0
  0
VERTEX
  5
167
  8
VERSION_3$HOLDER-COVER
 10
151.3973963963526
 20
-190.9304464239852
 30
0.0
  0
VERTEX
  5
168
  8
VERSION_3$HOLDER-COVER
 10
152.0831582103772
 20
-187.5672022625538
 30
0.0
  0
VERTEX
  5
169
  8
VERSION_3$HOLDER-COVER
 10
152.4641251341517
 20
-185.9207144914095
 30
0.0
  0
VERTEX
  5
16A
  8
VERSION_3$HOLDER-COVER
 10
152.8704827357679
 20
-184.2976495933127
 30
0.0
  0
VERTEX
  5
16B
  8
VERSION_3$HOLDER-COVER
 10
153.3022310152256
 20
-182.6980075682634
 30
0.0
  0
VERTEX
  5
16C
  8
VERSION_3$HOLDER-COVER
 10
153.7593699725248
 20
-181.1217884162617
 30
0.0
  0
VERTEX
  5
16D
  8
VERSION_3$HOLDER-COVER
 10
154.2418996076656
 20
-179.5689921373076
 30
0.0
  0
VERTEX
  5
16E
  8
VERSION_3$HOLDER-COVER
 10
154.749819920648
 20
-178.039618731401
 30
0.0
  0
VERTEX
  5
16F
  8
VERSION_3$HOLDER-COVER
 10
155.2831309114719
 20
-176.5336681985419
 30
0.0
  0
VERTEX
  5
170
  8
VERSION_3$HOLDER-COVER
 10
155.8418325801373
 20
-175.0511405387304
 30
0.0
  0
VERTEX
  5
171
  8
VERSION_3$HOLDER-COVER
 10
156.4259249266443
 20
-173.5920357519665
 30
0.0
  0
VERTEX
  5
172
  8
VERSION_3$HOLDER-COVER
 10
157.0354079509928
 20
-172.1563538382501
 30
0.0
  0
VERTEX
  5
173
  8
VERSION_3$HOLDER-COVER
 10
157.6702816531829
 20
-170.7440947975813
 30
0.0
  0
VERTEX
  5
174
  8
VERSION_3$HOLDER-COVER
 10
158.3305460332145
 20
-169.35525862996
 30
0.0
  0
VERTEX
  5
175
  8
VERSION_3$HOLDER-COVER
 10
159.0162010910877
 20
-167.9898453353863
 30
0.0
  0
VERTEX
  5
176
  8
VERSION_3$HOLDER-COVER
 10
159.7272468268024
 20
-166.6478549138601
 30
0.0
  0
VERTEX
  5
177
  8
VERSION_3$HOLDER-COVER
 10
160.4636832403586
 20
-165.3292873653815
 30
0.0
  0
VERTEX
  5
178
  8
VERSION_3$HOLDER-COVER
 10
161.2255103317565
 20
-164.0341426899504
 30
0.0
  0
VERTEX
  5
179
  8
VERSION_3$HOLDER-COVER
 10
162.0127281009958
 20
-162.7624208875669
 30
0.0
  0
VERTEX
  5
17A
  8
VERSION_3$HOLDER-COVER
 10
162.8253365480768
 20
-161.514121958231
 30
0.0
  0
VERTEX
  5
17B
  8
VERSION_3$HOLDER-COVER
 10
163.6633356729992
 20
-160.2892459019426
 30
0.0
  0
VERTEX
  5
17C
  8
VERSION_3$HOLDER-COVER
 10
164.5267254757632
 20
-159.0877927187017
 30
0.0
  0
VERTEX
  5
17D
  8
VERSION_3$HOLDER-COVER
 10
165.4155059563687
 20
-157.9097624085084
 30
0.0
  0
VERTEX
  5
17E
  8
VERSION_3$HOLDER-COVER
 10
166.3296771148159
 20
-156.7551549713627
 30
0.0
  0
VERTEX
  5
17F
  8
VERSION_3$HOLDER-COVER
 10
167.2692389511045
 20
-155.6239704072645
 30
0.0
  0
VERTEX
  5
180
  8
VERSION_3$HOLDER-COVER
 10
168.2341914652347
 20
-154.5162087162138
 30
0.0
  0
VERTEX
  5
181
  8
VERSION_3$HOLDER-COVER
 10
169.2245346572064
 20
-153.4318698982108
 30
0.0
  0
VERTEX
  5
182
  8
VERSION_3$HOLDER-COVER
 10
170.2402685270197
 20
-152.3709539532553
 30
0.0
  0
VERTEX
  5
183
  8
VERSION_3$HOLDER-COVER
 10
171.2813930746746
 20
-151.3334608813473
 30
0.0
  0
VERTEX
  5
184
  8
VERSION_3$HOLDER-COVER
 10
172.347908300171
 20
-150.3193906824869
 30
0.0
  0
VERTEX
  5
185
  8
VERSION_3$HOLDER-COVER
 10
173.4398142035089
 20
-149.328743356674
 30
0.0
  0
VERTEX
  5
186
  8
VERSION_3$HOLDER-COVER
 10
174.5571107846884
 20
-148.3615189039087
 30
0.0
  0
VERTEX
  5
187
  8
VERSION_3$HOLDER-COVER
 10
175.6997980437094
 20
-147.4177173241909
 30
0.0
  0
VERTEX
  5
188
  8
VERSION_3$HOLDER-COVER
 10
176.867875980572
 20
-146.4973386175207
 30
0.0
  0
VERTEX
  5
189
  8
VERSION_3$HOLDER-COVER
 10
178.0613445952761
 20
-145.6003827838981
 30
0.0
  0
VERTEX
  5
18A
  8
VERSION_3$HOLDER-COVER
 10
179.2802038878218
 20
-144.726849823323
 30
0.0
  0
VERTEX
  5
18B
  8
VERSION_3$HOLDER-COVER
 10
180.524453858209
 20
-143.8767397357955
 30
0.0
  0
VERTEX
  5
18C
  8
VERSION_3$HOLDER-COVER
 10
181.7940945064378
 20
-143.0500525213155
 30
0.0
  0
VERTEX
  5
18D
  8
VERSION_3$HOLDER-COVER
 10
183.0891258325081
 20
-142.2467881798831
 30
0.0
  0
VERTEX
  5
18E
  8
VERSION_3$HOLDER-COVER
 10
184.40954783642
 20
-141.4669467114982
 30
0.0
  0
VERTEX
  5
18F
  8
VERSION_3$HOLDER-COVER
 10
185.7553605181733
 20
-140.7105281161608
 30
0.0
  0
VERTEX
  5
190
  8
VERSION_3$HOLDER-COVER
 10
187.1265638777683
 20
-139.9775323938711
 30
0.0
  0
VERTEX
  5
191
  8
VERSION_3$HOLDER-COVER
 10
188.5231579152048
 20
-139.2679595446289
 30
0.0
  0
VERTEX
  5
192
  8
VERSION_3$HOLDER-COVER
 10
189.9451426304829
 20
-138.5818095684342
 30
0.0
  0
VERTEX
  5
193
  8
VERSION_3$HOLDER-COVER
 10
191.3925180236025
 20
-137.9190824652871
 30
0.0
  0
VERTEX
  5
194
  8
VERSION_3$HOLDER-COVER
 10
192.8652840945636
 20
-137.2797782351875
 30
0.0
  0
VERTEX
  5
195
  8
VERSION_3$HOLDER-COVER
 10
194.3634408433663
 20
-136.6638968781355
 30
0.0
  0
VERTEX
  5
196
  8
VERSION_3$HOLDER-COVER
 10
195.8869882700105
 20
-136.0714383941311
 30
0.0
  0
VERTEX
  5
197
  8
VERSION_3$HOLDER-COVER
 10
197.4359263744963
 20
-135.5024027831741
 30
0.0
  0
VERTEX
  5
198
  8
VERSION_3$HOLDER-COVER
 10
199.0102551568237
 20
-134.9567900452648
 30
0.0
  0
VERTEX
  5
199
  8
VERSION_3$HOLDER-COVER
 10
200.6099746169926
 20
-134.434600180403
 30
0.0
  0
VERTEX
  5
19A
  8
VERSION_3$HOLDER-COVER
 10
202.235084755003
 20
-133.9358331885888
 30
0.0
  0
VERTEX
  5
19B
  8
VERSION_3$HOLDER-COVER
 10
205.5614770645485
 20
-133.008567824103
 30
0.0
  0
VERTEX
  5
19C
  8
VERSION_3$HOLDER-COVER
 10
208.9894320854602
 20
-132.1749939518074
 30
0.0
  0
VERTEX
  5
19D
  8
VERSION_3$HOLDER-COVER
 10
212.5189498177381
 20
-131.435111571702
 30
0.0
  0
VERTEX
  5
19E
  8
VERSION_3$HOLDER-COVER
 10
216.1500302613822
 20
-130.7889206837869
 30
0.0
  0
VERTEX
  5
19F
  8
VERSION_3$HOLDER-COVER
 10
219.8826734163925
 20
-130.2364212880619
 30
0.0
  0
SEQEND
  5
1A0
  8
VERSION_3$HOLDER-COVER
  0
ARC
  5
1A1
  8
VERSION_3$HOLDER-COVER
 10
178.5455327706094
 20
21.81214405023871
 30
0.0
 40
3.0
 50
74.26583579310173
 51
116.687050833151
  0
ARC
  5
1A2
  8
VERSION_3$HOLDER-COVER
 10
183.831606724817
 20
40.57499696569663
 30
0.0
 40
16.4932610759837
 50
254.2658357931445
 51
352.8122701278988
  0
ARC
  5
1A3
  8
VERSION_3$HOLDER-COVER
 10
203.1716803827865
 20
38.13598522304798
 30
0.0
 40
3.0
 50
47.41367883508575
 51
172.8122701279245
  0
LINE
  5
1A4
  8
VERSION_3$HOLDER-COVER
 10
217.6250094783649
 20
28.92648966884946
 30
0.0
 11
205.2017810249457
 21
40.34476121501837
 31
0.0
  0
ARC
  5
1A5
  8
VERSION_3$HOLDER-COVER
 10
216.2716090502587
 20
27.4539723408692
 30
0.0
 40
1.99999999999999
 50
285.4346247674537
 51
47.41367883508575
  0
POLYLINE
  5
1A6
  8
VERSION_3$HOLDER-COVER
 66
     1
 10
0.0
 20
0.0
 30
0.0
  0
VERTEX
  5
1A7
  8
VERSION_3$HOLDER-COVER
 10
208.4504345826986
 20
4.305664865802319
 30
0.0
  0
VERTEX
  5
1A8
  8
VERSION_3$HOLDER-COVER
 10
208.3527020470238
 20
5.442340626790353
 30
0.0
  0
VERTEX
  5
1A9
  8
VERSION_3$HOLDER-COVER
 10
208.2781164730104
 20
6.548465608800105
 30
0.0
  0
VERTEX
  5
1AA
  8
VERSION_3$HOLDER-COVER
 10
208.2266778606582
 20
7.624039811831576
 30
0.0
  0
VERTEX
  5
1AB
  8
VERSION_3$HOLDER-COVER
 10
208.1983862099674
 20
8.669063235884767
 30
0.0
  0
VERTEX
  5
1AC
  8
VERSION_3$HOLDER-COVER
 10
208.1932415209379
 20
9.683535880959678
 30
0.0
  0
VERTEX
  5
1AD
  8
VERSION_3$HOLDER-COVER
 10
208.2112437935696
 20
10.66745774705631
 30
0.0
  0
VERTEX
  5
1AE
  8
VERSION_3$HOLDER-COVER
 10
208.2523930278627
 20
11.62082883417466
 30
0.0
  0
VERTEX
  5
1AF
  8
VERSION_3$HOLDER-COVER
 10
208.3166892238171
 20
12.54364914231472
 30
0.0
  0
VERTEX
  5
1B0
  8
VERSION_3$HOLDER-COVER
 10
208.4041323814327
 20
13.43591867147651
 30
0.0
  0
VERTEX
  5
1B1
  8
VERSION_3$HOLDER-COVER
 10
208.5147225007097
 20
14.29763742166001
 30
0.0
  0
VERTEX
  5
1B2
  8
VERSION_3$HOLDER-COVER
 10
208.648459581648
 20
15.12880539286524
 30
0.0
  0
VERTEX
  5
1B3
  8
VERSION_3$HOLDER-COVER
 10
208.7240082327401
 20
15.532932836351
 30
0.0
  0
VERTEX
  5
1B4
  8
VERSION_3$HOLDER-COVER
 10
208.8053436242476
 20
15.92942258509218
 30
0.0
  0
VERTEX
  5
1B5
  8
VERSION_3$HOLDER-COVER
 10
208.8924657561704
 20
16.3182746390888
 30
0.0
  0
VERTEX
  5
1B6
  8
VERSION_3$HOLDER-COVER
 10
208.9853746285085
 20
16.69948899834084
 30
0.0
  0
VERTEX
  5
1B7
  8
VERSION_3$HOLDER-COVER
 10
209.0840702412619
 20
17.07306566284831
 30
0.0
  0
VERTEX
  5
1B8
  8
VERSION_3$HOLDER-COVER
 10
209.1885525944307
 20
17.43900463261122
 30
0.0
  0
VERTEX
  5
1B9
  8
VERSION_3$HOLDER-COVER
 10
209.2988216880148
 20
17.79730590762956
 30
0.0
  0
VERTEX
  5
1BA
  8
VERSION_3$HOLDER-COVER
 10
209.4148775220142
 20
18.14796948790332
 30
0.0
  0
VERTEX
  5
1BB
  8
VERSION_3$HOLDER-COVER
 10
209.5367200964289
 20
18.49099537343252
 30
0.0
  0
VERTEX
  5
1BC
  8
VERSION_3$HOLDER-COVER
 10
209.664349411259
 20
18.82638356421715
 30
0.0
  0
VERTEX
  5
1BD
  8
VERSION_3$HOLDER-COVER
 10
209.7977654665044
 20
19.1541340602572
 30
0.0
  0
VERTEX
  5
1BE
  8
VERSION_3$HOLDER-COVER
 10
209.9369682621651
 20
19.47424686155269
 30
0.0
  0
VERTEX
  5
1BF
  8
VERSION_3$HOLDER-COVER
 10
210.0819577982411
 20
19.7867219681036
 30
0.0
  0
VERTEX
  5
1C0
  8
VERSION_3$HOLDER-COVER
 10
210.2327340747325
 20
20.09155937990995
 30
0.0
  0
VERTEX
  5
1C1
  8
VERSION_3$HOLDER-COVER
 10
210.3892970916392
 20
20.38875909697172
 30
0.0
  0
VERTEX
  5
1C2
  8
VERSION_3$HOLDER-COVER
 10
210.5516468489612
 20
20.67832111928892
 30
0.0
  0
VERTEX
  5
1C3
  8
VERSION_3$HOLDER-COVER
 10
210.7197833466986
 20
20.96024544686156
 30
0.0
  0
VERTEX
  5
1C4
  8
VERSION_3$HOLDER-COVER
 10
210.8937065848513
 20
21.23453207968962
 30
0.0
  0
VERTEX
  5
1C5
  8
VERSION_3$HOLDER-COVER
 10
211.0734165634192
 20
21.50118101777311
 30
0.0
  0
VERTEX
  5
1C6
  8
VERSION_3$HOLDER-COVER
 10
211.2589132824025
 20
21.76019226111203
 30
0.0
  0
VERTEX
  5
1C7
  8
VERSION_3$HOLDER-COVER
 10
211.4501967418012
 20
22.01156580970638
 30
0.0
  0
VERTEX
  5
1C8
  8
VERSION_3$HOLDER-COVER
 10
211.6472669416152
 20
22.25530166355617
 30
0.0
  0
VERTEX
  5
1C9
  8
VERSION_3$HOLDER-COVER
 10
211.8501238818445
 20
22.49139982266138
 30
0.0
  0
VERTEX
  5
1CA
  8
VERSION_3$HOLDER-COVER
 10
212.0587675624891
 20
22.71986028702202
 30
0.0
  0
VERTEX
  5
1CB
  8
VERSION_3$HOLDER-COVER
 10
212.2731979835491
 20
22.94068305663809
 30
0.0
  0
VERTEX
  5
1CC
  8
VERSION_3$HOLDER-COVER
 10
212.4934151450244
 20
23.1538681315096
 30
0.0
  0
VERTEX
  5
1CD
  8
VERSION_3$HOLDER-COVER
 10
212.719419046915
 20
23.35941551163653
 30
0.0
  0
VERTEX
  5
1CE
  8
VERSION_3$HOLDER-COVER
 10
212.9512096892209
 20
23.55732519701889
 30
0.0
  0
VERTEX
  5
1CF
  8
VERSION_3$HOLDER-COVER
 10
213.1887870719421
 20
23.74759718765668
 30
0.0
  0
VERTEX
  5
1D0
  8
VERSION_3$HOLDER-COVER
 10
213.4321511950787
 20
23.9302314835499
 30
0.0
  0
VERTEX
  5
1D1
  8
VERSION_3$HOLDER-COVER
 10
213.6813020586306
 20
24.10522808469855
 30
0.0
  0
VERTEX
  5
1D2
  8
VERSION_3$HOLDER-COVER
 10
213.9362396625978
 20
24.27258699110263
 30
0.0
  0
VERTEX
  5
1D3
  8
VERSION_3$HOLDER-COVER
 10
214.1969640069804
 20
24.43230820276214
 30
0.0
  0
VERTEX
  5
1D4
  8
VERSION_3$HOLDER-COVER
 10
214.4634750917783
 20
24.58439171967708
 30
0.0
  0
VERTEX
  5
1D5
  8
VERSION_3$HOLDER-COVER
 10
214.7357729169915
 20
24.72883754184745
 30
0.0
  0
VERTEX
  5
1D6
  8
VERSION_3$HOLDER-COVER
 10
215.01385748262
 20
24.86564566927325
 30
0.0
  0
VERTEX
  5
1D7
  8
VERSION_3$HOLDER-COVER
 10
215.2977287886639
 20
24.99481610195448
 30
0.0
  0
VERTEX
  5
1D8
  8
VERSION_3$HOLDER-COVER
 10
215.5873868351231
 20
25.11634883989114
 30
0.0
  0
VERTEX
  5
1D9
  8
VERSION_3$HOLDER-COVER
 10
215.8828316219976
 20
25.23024388308323
 30
0.0
  0
VERTEX
  5
1DA
  8
VERSION_3$HOLDER-COVER
 10
216.1840631492875
 20
25.33650123153075
 30
0.0
  0
VERTEX
  5
1DB
  8
VERSION_3$HOLDER-COVER
 10
216.4910814169926
 20
25.43512088523369
 30
0.0
  0
VERTEX
  5
1DC
  8
VERSION_3$HOLDER-COVER
 10
216.8038864251131
 20
25.52610284419207
 30
0.0
  0
SEQEND
  5
1DD
  8
VERSION_3$HOLDER-COVER
  0
ARC
  5
1DE
  8
VERSION_3$HOLDER-COVER
 10
206.4593779147636
 20
4.116738041154372
 30
0.0
 40
2.0
 50
278.8516926834805
 51
5.420436716628082
  0
LINE
  5
1DF
  8
VERSION_3$HOLDER-COVER
 10
159.2191025924342
 20
-5.264198237365317
 30
0.0
 11
206.7671326367287
 21
2.140558132566049
 31
0.0
  0
LINE
  5
1E0
  8
VERSION_3$HOLDER-COVER
 10
159.2191025924342
 20
-92.67812747132994
 30
0.0
 11
159.2191025924342
 21
-5.264198237365317
 31
0.0
  0
ARC
  5
1E1
  8
VERSION_3$HOLDER-COVER
 10
154.2191025924342
 20
-92.67812747132795
 30
0.0
 40
4.999999999999972
 50
289.4712206344907
 51
359.9999999999772
  0
ARC
  5
1E2
  8
VERSION_3$HOLDER-COVER
 10
159.2191025924344
 20
-106.8202630950588
 30
0.0
 40
10.00000000000003
 50
109.4712206344915
 51
268.3732847221798
  0
ARC
  5
1E3
  8
VERSION_3$HOLDER-COVER
 10
158.7932867408563
 20
-121.8142179056009
 30
0.0
 40
5.000000000001052
 50
81.14830731657364
 51
88.37328472218309
  0
LINE
  5
1E4
  8
VERSION_3$HOLDER-COVER
 10
219.9691545683442
 20
-126.2809985645027
 30
0.0
 11
159.5626735457647
 21
-116.8737681341283
 31
0.0
  0
ARC
  5
1E5
  8
VERSION_3$HOLDER-COVER
 10
219.6613998463812
 20
-128.2571784730914
 30
0.0
 40
1.999999999999988
 50
276.3520247250129
 51
81.14830731658041
  0
ARC
  5
1E6
  8
VERSION_3$HOLDER-COVER
 10
-65.17279305576942
 20
-128.3427632811159
 30
0.0
 40
1.999999999999996
 50
98.93940435473839
 51
263.3832586250504
  0
LINE
  5
1E7
  8
VERSION_3$HOLDER-COVER
 10
-5.937607247153936
 20
-117.0004468282728
 30
0.0
 11
-65.48357266568486
 21
-126.3670568165669
 31
0.0
  0
ARC
  5
1E8
  8
VERSION_3$HOLDER-COVER
 10
-5.16065822235219
 20
-121.9397129896436
 30
0.0
 40
5.000000000000242
 50
91.71442694911981
 51
98.93940435489036
  0
ARC
  5
1E9
  8
VERSION_3$HOLDER-COVER
 10
-5.609427173529417
 20
-106.9464276115663
 30
0.0
 40
9.999999999999948
 50
271.7144269490821
 51
70.61649103678198
  0
ARC
  5
1EA
  8
VERSION_3$HOLDER-COVER
 10
-0.6310826176454554
 20
-92.79665427476344
 30
0.0
 40
4.999999999999988
 50
180.0877116712577
 51
250.6164910367403
  0
LINE
  5
1EB
  8
VERSION_3$HOLDER-COVER
 10
-5.764894971884388
 20
-5.390481753415082
 30
0.0
 11
-5.631076758835212
 21
-92.80430855905314
 31
0.0
  0
LINE
  5
1EC
  8
VERSION_3$HOLDER-COVER
 10
-62.62664868449247
 20
3.375583543142785
 30
0.0
 11
-5.764894971884388
 21
-5.390481753415082
 31
0.0
  0
ARC
  5
1ED
  8
VERSION_3$HOLDER-COVER
 10
-62.3219195717084
 20
5.352232264545176
 30
0.0
 40
1.999999999999969
 50
176.8857121606468
 51
261.2360189877826
  0
POLYLINE
  5
1EE
  8
VERSION_3$HOLDER-COVER
 66
     1
 10
0.0
 20
0.0
 30
0.0
  0
VERTEX
  5
1EF
  8
VERSION_3$HOLDER-COVER
 10
-77.99787160766076
 20
28.05354128726432
 30
0.0
  0
VERTEX
  5
1F0
  8
VERSION_3$HOLDER-COVER
 10
-77.5387623729847
 20
27.99601209988392
 30
0.0
  0
VERTEX
  5
1F1
  8
VERSION_3$HOLDER-COVER
 10
-77.0874428631552
 20
27.92910256260376
 30
0.0
  0
VERTEX
  5
1F2
  8
VERSION_3$HOLDER-COVER
 10
-76.64391307817225
 20
27.85281267542385
 30
0.0
  0
VERTEX
  5
1F3
  8
VERSION_3$HOLDER-COVER
 10
-76.20817301803582
 20
27.76714243834418
 30
0.0
  0
VERTEX
  5
1F4
  8
VERSION_3$HOLDER-COVER
 10
-75.78022268274594
 20
27.67209185136475
 30
0.0
  0
VERTEX
  5
1F5
  8
VERSION_3$HOLDER-COVER
 10
-75.3600620723026
 20
27.56766091448556
 30
0.0
  0
VERTEX
  5
1F6
  8
VERSION_3$HOLDER-COVER
 10
-74.94769118670578
 20
27.45384962770661
 30
0.0
  0
VERTEX
  5
1F7
  8
VERSION_3$HOLDER-COVER
 10
-74.54311002595551
 20
27.3306579910279
 30
0.0
  0
VERTEX
  5
1F8
  8
VERSION_3$HOLDER-COVER
 10
-74.14631859005178
 20
27.19808600444943
 30
0.0
  0
VERTEX
  5
1F9
  8
VERSION_3$HOLDER-COVER
 10
-73.75731687899459
 20
27.05613366797121
 30
0.0
  0
VERTEX
  5
1FA
  8
VERSION_3$HOLDER-COVER
 10
-73.37610489278394
 20
26.90480098159323
 30
0.0
  0
VERTEX
  5
1FB
  8
VERSION_3$HOLDER-COVER
 10
-73.00268263141983
 20
26.74408794531548
 30
0.0
  0
VERTEX
  5
1FC
  8
VERSION_3$HOLDER-COVER
 10
-72.63705009490226
 20
26.57399455913798
 30
0.0
  0
VERTEX
  5
1FD
  8
VERSION_3$HOLDER-COVER
 10
-72.27920728323123
 20
26.39452082306072
 30
0.0
  0
VERTEX
  5
1FE
  8
VERSION_3$HOLDER-COVER
 10
-71.92915419640673
 20
26.2056667370837
 30
0.0
  0
VERTEX
  5
1FF
  8
VERSION_3$HOLDER-COVER
 10
-71.58689083442877
 20
26.00743230120693
 30
0.0
  0
VERTEX
  5
200
  8
VERSION_3$HOLDER-COVER
 10
-71.25241719729735
 20
25.7998175154304
 30
0.0
  0
VERTEX
  5
201
  8
VERSION_3$HOLDER-COVER
 10
-70.92573328501248
 20
25.5828223797541
 30
0.0
  0
VERTEX
  5
202
  8
VERSION_3$HOLDER-COVER
 10
-70.60683909757415
 20
25.35644689417805
 30
0.0
  0
VERTEX
  5
203
  8
VERSION_3$HOLDER-COVER
 10
-70.29573463498235
 20
25.12069105870224
 30
0.0
  0
VERTEX
  5
204
  8
VERSION_3$HOLDER-COVER
 10
-69.99241989723708
 20
24.87555487332667
 30
0.0
  0
VERTEX
  5
205
  8
VERSION_3$HOLDER-COVER
 10
-69.69689488433836
 20
24.62103833805134
 30
0.0
  0
VERTEX
  5
206
  8
VERSION_3$HOLDER-COVER
 10
-69.40915959628617
 20
24.35714145287625
 30
0.0
  0
VERTEX
  5
207
  8
VERSION_3$HOLDER-COVER
 10
-69.12921403308054
 20
24.08386421780141
 30
0.0
  0
VERTEX
  5
208
  8
VERSION_3$HOLDER-COVER
 10
-68.85705819472145
 20
23.8012066328268
 30
0.0
  0
VERTEX
  5
209
  8
VERSION_3$HOLDER-COVER
 10
-68.59269208120888
 20
23.50916869795244
 30
0.0
  0
VERTEX
  5
20A
  8
VERSION_3$HOLDER-COVER
 10
-68.33611569254285
 20
23.20775041317832
 30
0.0
  0
VERTEX
  5
20B
  8
VERSION_3$HOLDER-COVER
 10
-68.08732902872336
 20
22.89695177850444
 30
0.0
  0
VERTEX
  5
20C
  8
VERSION_3$HOLDER-COVER
 10
-67.8463320897504
 20
22.5767727939308
 30
0.0
  0
VERTEX
  5
20D
  8
VERSION_3$HOLDER-COVER
 10
-67.61312487562401
 20
22.2472134594574
 30
0.0
  0
VERTEX
  5
20E
  8
VERSION_3$HOLDER-COVER
 10
-67.38770738634415
 20
21.90827377508425
 30
0.0
  0
VERTEX
  5
20F
  8
VERSION_3$HOLDER-COVER
 10
-67.17007962191082
 20
21.55995374081133
 30
0.0
  0
VERTEX
  5
210
  8
VERSION_3$HOLDER-COVER
 10
-66.96024158232402
 20
21.20225335663866
 30
0.0
  0
VERTEX
  5
211
  8
VERSION_3$HOLDER-COVER
 10
-66.75819326758376
 20
20.83517262256623
 30
0.0
  0
VERTEX
  5
212
  8
VERSION_3$HOLDER-COVER
 10
-66.56393467769006
 20
20.45871153859403
 30
0.0
  0
VERTEX
  5
213
  8
VERSION_3$HOLDER-COVER
 10
-66.37746581264288
 20
20.07287010472209
 30
0.0
  0
VERTEX
  5
214
  8
VERSION_3$HOLDER-COVER
 10
-66.19878667244225
 20
19.67764832095038
 30
0.0
  0
VERTEX
  5
215
  8
VERSION_3$HOLDER-COVER
 10
-66.02789725708816
 20
19.27304618727891
 30
0.0
  0
VERTEX
  5
216
  8
VERSION_3$HOLDER-COVER
 10
-65.86479756658059
 20
18.85906370370768
 30
0.0
  0
VERTEX
  5
217
  8
VERSION_3$HOLDER-COVER
 10
-65.70948760091957
 20
18.4357008702367
 30
0.0
  0
VERTEX
  5
218
  8
VERSION_3$HOLDER-COVER
 10
-65.56196736010509
 20
18.00295768686596
 30
0.0
  0
VERTEX
  5
219
  8
VERSION_3$HOLDER-COVER
 10
-65.42223684413716
 20
17.56083415359546
 30
0.0
  0
VERTEX
  5
21A
  8
VERSION_3$HOLDER-COVER
 10
-65.29029605301577
 20
17.1093302704252
 30
0.0
  0
VERTEX
  5
21B
  8
VERSION_3$HOLDER-COVER
 10
-65.1661449867409
 20
16.64844603735518
 30
0.0
  0
VERTEX
  5
21C
  8
VERSION_3$HOLDER-COVER
 10
-65.04978364531257
 20
16.17818145438541
 30
0.0
  0
VERTEX
  5
21D
  8
VERSION_3$HOLDER-COVER
 10
-64.94121202873079
 20
15.69853652151587
 30
0.0
  0
VERTEX
  5
21E
  8
VERSION_3$HOLDER-COVER
 10
-64.84043013699554
 20
15.20951123874658
 30
0.0
  0
VERTEX
  5
21F
  8
VERSION_3$HOLDER-COVER
 10
-64.74743797010684
 20
14.71110560607752
 30
0.0
  0
VERTEX
  5
220
  8
VERSION_3$HOLDER-COVER
 10
-64.66223552806468
 20
14.20331962350871
 30
0.0
  0
VERTEX
  5
221
  8
VERSION_3$HOLDER-COVER
 10
-64.58482281086906
 20
13.68615329104014
 30
0.0
  0
VERTEX
  5
222
  8
VERSION_3$HOLDER-COVER
 10
-64.45336655101741
 20
12.62367957640372
 30
0.0
  0
VERTEX
  5
223
  8
VERSION_3$HOLDER-COVER
 10
-64.35306919055193
 20
11.52368446216827
 30
0.0
  0
VERTEX
  5
224
  8
VERSION_3$HOLDER-COVER
 10
-64.28393072947262
 20
10.38616794833379
 30
0.0
  0
VERTEX
  5
225
  8
VERSION_3$HOLDER-COVER
 10
-64.24595116777945
 20
9.211130034900268
 30
0.0
  0
VERTEX
  5
226
  8
VERSION_3$HOLDER-COVER
 10
-64.23913050547245
 20
7.998570721867714
 30
0.0
  0
VERTEX
  5
227
  8
VERSION_3$HOLDER-COVER
 10
-64.2634687425516
 20
6.748490009236124
 30
0.0
  0
VERTEX
  5
228
  8
VERSION_3$HOLDER-COVER
 10
-64.3189658790169
 20
5.460887897005501
 30
0.0
  0
SEQEND
  5
229
  8
VERSION_3$HOLDER-COVER
  0
ARC
  5
22A
  8
VERSION_3$HOLDER-COVER
 10
-77.77109999364684
 20
30.04064335688165
 30
0.0
 40
1.999999999999987
 50
156.4173460293301
 51
263.4894703825457
  0
ARC
  5
22B
  8
VERSION_3$HOLDER-COVER
 10
76.86778888445782
 20
-37.46368125073902
 30
0.0
 40
170.7306130913588
 50
114.5749986520262
 51
156.4173460293254
  0
ARC
  5
22C
  8
VERSION_3$HOLDER-COVER
 10
14.18133826459814
 20
99.61340155882715
 30
0.0
 40
20.00000000000043
 50
90.00000000000183
 51
114.5749986520255
  0
LINE
  5
22D
  8
VERSION_3$HOLDER-COVER
 10
45.05936878727598
 20
119.6134015588238
 30
0.0
 11
14.1813382645975
 21
119.6134015588276
 31
0.0
  0
ARC
  5
22E
  8
VERSION_3$HOLDER-COVER
 10
45.05936878727572
 20
117.6134015588238
 30
0.0
 40
2.000000000000014
 50
319.4426205269398
 51
89.99999999999268
  0
ARC
  5
22F
  8
VERSION_3$HOLDER-COVER
 10
61.7802888842712
 20
103.3034015588276
 30
0.0
 40
20.00829999999996
 50
139.4426205269402
 51
270.0
  0
LINE
  5
230
  8
VERSION_3$HOLDER-COVER
 10
92.26028888487444
 20
83.29510155882772
 30
0.0
 11
61.78028888427119
 21
83.29510155882762
 31
0.0
  0
ARC
  5
231
  8
VERSION_3$HOLDER-COVER
 10
92.260288884457
 20
103.3034015588276
 30
0.0
 40
20.00829999999991
 50
270.0000000011954
 51
40.55737947307306
  0
ARC
  5
232
  8
VERSION_3$HOLDER-COVER
 10
108.9812089814492
 20
117.6134015588276
 30
0.0
 40
1.999999999999972
 50
90.0
 51
220.5573794730721
  0
LINE
  5
233
  8
VERSION_3$HOLDER-COVER
 10
111.1615423718674
 20
119.6134015588276
 30
0.0
 11
108.9812089814492
 21
119.6134015588276
 31
0.0
  0
ARC
  5
234
  8
VERSION_3$HOLDER-COVER
 10
111.1615423718674
 20
99.6134015588276
 30
0.0
 40
19.99999999999997
 50
47.41367869024447
 51
90.00000000000009
  0
LINE
  5
235
  8
VERSION_3$HOLDER-COVER
 10
130.0460542146751
 20
109.4208878531351
 30
0.0
 11
124.6955466901534
 21
114.3385748044168
 31
0.0
  0
ARC
  5
236
  8
VERSION_3$HOLDER-COVER
 10
128.0159535611073
 20
107.2121118716504
 30
0.0
 40
3.0
 50
307.0291159862602
 51
47.41367853914787
  0
ARC
  5
237
  8
VERSION_3$HOLDER-COVER
 10
139.7552008299675
 20
91.65006513320246
 30
0.0
 40
16.49326101833857
 50
127.029117116411
 51
185.2042789156129
  0
ARC
  5
238
  8
VERSION_3$HOLDER-COVER
 10
120.3422982985817
 20
89.8818908103503
 30
0.0
 40
3.0
 50
306.1053416949318
 51
5.204278861304261
  0
ARC
  5
239
  8
VERSION_3$HOLDER-COVER
 10
131.8291250760117
 20
74.1326039070718
 30
0.0
 40
16.49326107598373
 50
126.1053416949312
 51
220.7933071740369
  0
ARC
  5
23A
  8
VERSION_3$HOLDER-COVER
 10
131.8291250760225
 20
74.13260390708169
 30
0.0
 40
16.49326107599833
 50
220.7933071740384
 51
268.8364179965567
  0
ARC
  5
23B
  8
VERSION_3$HOLDER-COVER
 10
131.4332765705445
 20
54.64336248167616
 30
0.0
 40
3.0
 50
5.895888236248785
 51
88.83641799662573
  0
ARC
  5
23C
  8
VERSION_3$HOLDER-COVER
 10
150.8234220252868
 20
56.64573273226294
 30
0.0
 40
16.49326107598469
 50
185.8958882362287
 51
220.7933071740355
  0
ARC
  5
23D
  8
VERSION_3$HOLDER-COVER
 10
150.823423763292
 20
56.64573642329016
 30
0.0
 40
16.49326480324556
 50
220.7933129367887
 51
268.7786970190277
  0
ARC
  5
23E
  8
VERSION_3$HOLDER-COVER
 10
150.4079418111041
 20
37.15689994091241
 30
0.0
 40
3.0
 50
6.101512299609714
 51
88.77870278204225
  0
ARC
  5
23F
  8
VERSION_3$HOLDER-COVER
 10
169.7907762724293
 20
39.22884482949256
 30
0.0
 40
16.49326107598341
 50
186.1015122995998
 51
220.7933071740367
  0
ARC
  5
240
  8
VERSION_3$HOLDER-COVER
 10
169.7907770545084
 20
39.22884875774655
 30
0.0
 40
16.49326423452802
 50
220.7933157302659
 51
296.6870422768893
  0
CIRCLE
  5
241
  8
VERSION_3$HOLDER-COVER
 10
130.0983980624468
 20
-96.8957253086038
 30
0.0
 40
1.75
  0
CIRCLE
  5
242
  8
VERSION_3$HOLDER-COVER
 10
23.63717970646714
 20
-135.8383017677005
 30
0.0
 40
1.75
  0
CIRCLE
  5
243
  8
VERSION_3$HOLDER-COVER
 10
23.63717970646714
 20
15.98130790616921
 30
0.0
 40
1.75
  0
POLYLINE
  5
244
  8
VERSION_3$HOLDER-COVER
 66
     1
 10
0.0
 20
0.0
 30
0.0
 70
     1
  0
VERTEX
  5
245
  8
VERSION_3$HOLDER-COVER
 10
24.88121861858705
 20
67.3192503900046
 30
0.0
 42
1.822751374434042
  0
VERTEX
  5
246
  8
VERSION_3$HOLDER-COVER
 10
4.834074789268143
 20
79.9812539930962
 30
0.0
 42
-0.4120536009093753
  0
VERTEX
  5
247
  8
VERSION_3$HOLDER-COVER
 10
-0.1095430537291286
 20
74.96212696683502
 30
0.0
 42
0.3796431143527489
  0
VERTEX
  5
248
  8
VERSION_3$HOLDER-COVER
 10
-16.37046231948875
 20
60.20545909046844
 30
0.0
 42
-0.3521689601195178
  0
VERTEX
  5
249
  8
VERSION_3$HOLDER-COVER
 10
-20.80135145674862
 20
55.77456995320907
 30
0.0
 42
0.3531194118177566
  0
VERTEX
  5
24A
  8
VERSION_3$HOLDER-COVER
 10
-35.46829174946622
 20
41.05795095140954
 30
0.0
 42
-0.3643623708682158
  0
VERTEX
  5
24B
  8
VERSION_3$HOLDER-COVER
 10
-40.09940845199671
 20
36.59269061539166
 30
0.0
  0
VERTEX
  5
24C
  8
VERSION_3$HOLDER-COVER
 10
-41.33209969069415
 20
36.4490503404725
 30
0.0
 42
1.519889077663159
  0
VERTEX
  5
24D
  8
VERSION_3$HOLDER-COVER
 10
-28.41121337285094
 20
16.31644942330689
 30
0.0
 42
-0.223873414758208
  0
VERTEX
  5
24E
  8
VERSION_3$HOLDER-COVER
 10
-17.42042280453932
 20
22.86016509388143
 30
0.0
 42
0.2905648508788872
  0
VERTEX
  5
24F
  8
VERSION_3$HOLDER-COVER
 10
-3.435443216477037
 20
33.7608813736222
 30
0.0
 42
-0.2248001078918637
  0
VERTEX
  5
250
  8
VERSION_3$HOLDER-COVER
 10
5.64322626009643
 20
42.83955085019473
 30
0.0
 42
0.2765062529650373
  0
VERTEX
  5
251
  8
VERSION_3$HOLDER-COVER
 10
16.43868316681302
 20
55.96997882148526
 30
0.0
 42
-0.2505501357211508
  0
SEQEND
  5
252
  8
VERSION_3$HOLDER-COVER
  0
ENDSEC
  0
EOF
