%
M48
M72
T01C0.01378
T02C0.03150
T03C0.03200
T04C0.03543
T05C0.04000
T06C0.10000
T07C0.11200
%
T01
X116500Y92500
T02
X141300Y6300
X131300Y6300
X121300Y6300
X121300Y26300
X131300Y26300
X141300Y26300
X81300Y26300
X71300Y26300
X61300Y26300
X61300Y6300
X71300Y6300
X81300Y6300
T03
X106300Y51300
X96300Y51300
X101800Y36300
X101800Y6300
T04
X181300Y31772
X171300Y31772
X161300Y31772
X41300Y31772
X31300Y31772
X21300Y31772
T05
X171300Y16300
X161300Y16300
X151300Y16300
X51300Y16300
X41300Y16300
X31300Y16300
X81300Y75800
X91300Y75800
X101300Y75800
X111300Y75800
X121300Y75800
X121300Y86800
X111300Y86800
X101300Y86800
X91300Y86800
X81300Y86800
T06
X186300Y16300
X186300Y86300
X16300Y86300
X16300Y16300
T07
X190198Y61300
X152402Y61300
X50198Y61300
X12402Y61300
M30
