G75*
%MOIN*%
%OFA0B0*%
%FSLAX25Y25*%
%IPPOS*%
%LPD*%
%AMOC8*
5,1,8,0,0,1.08239X$1,22.5*
%
%ADD10C,0.00600*%
%ADD11C,0.00000*%
%ADD12C,0.00500*%
%ADD13C,0.00300*%
%ADD14C,0.00400*%
%ADD15C,0.00700*%
%ADD16C,0.01768*%
%ADD17C,0.00800*%
D10*
X0001300Y0016300D02*
X0001300Y0156300D01*
X0001304Y0156662D01*
X0001318Y0157025D01*
X0001339Y0157387D01*
X0001370Y0157748D01*
X0001409Y0158108D01*
X0001457Y0158467D01*
X0001514Y0158825D01*
X0001579Y0159182D01*
X0001653Y0159537D01*
X0001736Y0159890D01*
X0001827Y0160241D01*
X0001926Y0160589D01*
X0002034Y0160935D01*
X0002150Y0161279D01*
X0002275Y0161619D01*
X0002407Y0161956D01*
X0002548Y0162290D01*
X0002697Y0162621D01*
X0002854Y0162948D01*
X0003018Y0163271D01*
X0003190Y0163590D01*
X0003370Y0163904D01*
X0003558Y0164215D01*
X0003753Y0164520D01*
X0003955Y0164821D01*
X0004165Y0165117D01*
X0004381Y0165407D01*
X0004605Y0165693D01*
X0004835Y0165973D01*
X0005072Y0166247D01*
X0005316Y0166515D01*
X0005566Y0166778D01*
X0005822Y0167034D01*
X0006085Y0167284D01*
X0006353Y0167528D01*
X0006627Y0167765D01*
X0006907Y0167995D01*
X0007193Y0168219D01*
X0007483Y0168435D01*
X0007779Y0168645D01*
X0008080Y0168847D01*
X0008385Y0169042D01*
X0008696Y0169230D01*
X0009010Y0169410D01*
X0009329Y0169582D01*
X0009652Y0169746D01*
X0009979Y0169903D01*
X0010310Y0170052D01*
X0010644Y0170193D01*
X0010981Y0170325D01*
X0011321Y0170450D01*
X0011665Y0170566D01*
X0012011Y0170674D01*
X0012359Y0170773D01*
X0012710Y0170864D01*
X0013063Y0170947D01*
X0013418Y0171021D01*
X0013775Y0171086D01*
X0014133Y0171143D01*
X0014492Y0171191D01*
X0014852Y0171230D01*
X0015213Y0171261D01*
X0015575Y0171282D01*
X0015938Y0171296D01*
X0016300Y0171300D01*
X0116300Y0171300D01*
X0116662Y0171296D01*
X0117025Y0171282D01*
X0117387Y0171261D01*
X0117748Y0171230D01*
X0118108Y0171191D01*
X0118467Y0171143D01*
X0118825Y0171086D01*
X0119182Y0171021D01*
X0119537Y0170947D01*
X0119890Y0170864D01*
X0120241Y0170773D01*
X0120589Y0170674D01*
X0120935Y0170566D01*
X0121279Y0170450D01*
X0121619Y0170325D01*
X0121956Y0170193D01*
X0122290Y0170052D01*
X0122621Y0169903D01*
X0122948Y0169746D01*
X0123271Y0169582D01*
X0123590Y0169410D01*
X0123904Y0169230D01*
X0124215Y0169042D01*
X0124520Y0168847D01*
X0124821Y0168645D01*
X0125117Y0168435D01*
X0125407Y0168219D01*
X0125693Y0167995D01*
X0125973Y0167765D01*
X0126247Y0167528D01*
X0126515Y0167284D01*
X0126778Y0167034D01*
X0127034Y0166778D01*
X0127284Y0166515D01*
X0127528Y0166247D01*
X0127765Y0165973D01*
X0127995Y0165693D01*
X0128219Y0165407D01*
X0128435Y0165117D01*
X0128645Y0164821D01*
X0128847Y0164520D01*
X0129042Y0164215D01*
X0129230Y0163904D01*
X0129410Y0163590D01*
X0129582Y0163271D01*
X0129746Y0162948D01*
X0129903Y0162621D01*
X0130052Y0162290D01*
X0130193Y0161956D01*
X0130325Y0161619D01*
X0130450Y0161279D01*
X0130566Y0160935D01*
X0130674Y0160589D01*
X0130773Y0160241D01*
X0130864Y0159890D01*
X0130947Y0159537D01*
X0131021Y0159182D01*
X0131086Y0158825D01*
X0131143Y0158467D01*
X0131191Y0158108D01*
X0131230Y0157748D01*
X0131261Y0157387D01*
X0131282Y0157025D01*
X0131296Y0156662D01*
X0131300Y0156300D01*
X0131300Y0016300D01*
X0131296Y0015938D01*
X0131282Y0015575D01*
X0131261Y0015213D01*
X0131230Y0014852D01*
X0131191Y0014492D01*
X0131143Y0014133D01*
X0131086Y0013775D01*
X0131021Y0013418D01*
X0130947Y0013063D01*
X0130864Y0012710D01*
X0130773Y0012359D01*
X0130674Y0012011D01*
X0130566Y0011665D01*
X0130450Y0011321D01*
X0130325Y0010981D01*
X0130193Y0010644D01*
X0130052Y0010310D01*
X0129903Y0009979D01*
X0129746Y0009652D01*
X0129582Y0009329D01*
X0129410Y0009010D01*
X0129230Y0008696D01*
X0129042Y0008385D01*
X0128847Y0008080D01*
X0128645Y0007779D01*
X0128435Y0007483D01*
X0128219Y0007193D01*
X0127995Y0006907D01*
X0127765Y0006627D01*
X0127528Y0006353D01*
X0127284Y0006085D01*
X0127034Y0005822D01*
X0126778Y0005566D01*
X0126515Y0005316D01*
X0126247Y0005072D01*
X0125973Y0004835D01*
X0125693Y0004605D01*
X0125407Y0004381D01*
X0125117Y0004165D01*
X0124821Y0003955D01*
X0124520Y0003753D01*
X0124215Y0003558D01*
X0123904Y0003370D01*
X0123590Y0003190D01*
X0123271Y0003018D01*
X0122948Y0002854D01*
X0122621Y0002697D01*
X0122290Y0002548D01*
X0121956Y0002407D01*
X0121619Y0002275D01*
X0121279Y0002150D01*
X0120935Y0002034D01*
X0120589Y0001926D01*
X0120241Y0001827D01*
X0119890Y0001736D01*
X0119537Y0001653D01*
X0119182Y0001579D01*
X0118825Y0001514D01*
X0118467Y0001457D01*
X0118108Y0001409D01*
X0117748Y0001370D01*
X0117387Y0001339D01*
X0117025Y0001318D01*
X0116662Y0001304D01*
X0116300Y0001300D01*
X0016300Y0001300D01*
X0015938Y0001304D01*
X0015575Y0001318D01*
X0015213Y0001339D01*
X0014852Y0001370D01*
X0014492Y0001409D01*
X0014133Y0001457D01*
X0013775Y0001514D01*
X0013418Y0001579D01*
X0013063Y0001653D01*
X0012710Y0001736D01*
X0012359Y0001827D01*
X0012011Y0001926D01*
X0011665Y0002034D01*
X0011321Y0002150D01*
X0010981Y0002275D01*
X0010644Y0002407D01*
X0010310Y0002548D01*
X0009979Y0002697D01*
X0009652Y0002854D01*
X0009329Y0003018D01*
X0009010Y0003190D01*
X0008696Y0003370D01*
X0008385Y0003558D01*
X0008080Y0003753D01*
X0007779Y0003955D01*
X0007483Y0004165D01*
X0007193Y0004381D01*
X0006907Y0004605D01*
X0006627Y0004835D01*
X0006353Y0005072D01*
X0006085Y0005316D01*
X0005822Y0005566D01*
X0005566Y0005822D01*
X0005316Y0006085D01*
X0005072Y0006353D01*
X0004835Y0006627D01*
X0004605Y0006907D01*
X0004381Y0007193D01*
X0004165Y0007483D01*
X0003955Y0007779D01*
X0003753Y0008080D01*
X0003558Y0008385D01*
X0003370Y0008696D01*
X0003190Y0009010D01*
X0003018Y0009329D01*
X0002854Y0009652D01*
X0002697Y0009979D01*
X0002548Y0010310D01*
X0002407Y0010644D01*
X0002275Y0010981D01*
X0002150Y0011321D01*
X0002034Y0011665D01*
X0001926Y0012011D01*
X0001827Y0012359D01*
X0001736Y0012710D01*
X0001653Y0013063D01*
X0001579Y0013418D01*
X0001514Y0013775D01*
X0001457Y0014133D01*
X0001409Y0014492D01*
X0001370Y0014852D01*
X0001339Y0015213D01*
X0001318Y0015575D01*
X0001304Y0015938D01*
X0001300Y0016300D01*
D11*
X0011300Y0016300D02*
X0011302Y0016441D01*
X0011308Y0016582D01*
X0011318Y0016722D01*
X0011332Y0016862D01*
X0011350Y0017002D01*
X0011371Y0017141D01*
X0011397Y0017280D01*
X0011426Y0017418D01*
X0011460Y0017554D01*
X0011497Y0017690D01*
X0011538Y0017825D01*
X0011583Y0017959D01*
X0011632Y0018091D01*
X0011684Y0018222D01*
X0011740Y0018351D01*
X0011800Y0018478D01*
X0011863Y0018604D01*
X0011929Y0018728D01*
X0012000Y0018851D01*
X0012073Y0018971D01*
X0012150Y0019089D01*
X0012230Y0019205D01*
X0012314Y0019318D01*
X0012400Y0019429D01*
X0012490Y0019538D01*
X0012583Y0019644D01*
X0012678Y0019747D01*
X0012777Y0019848D01*
X0012878Y0019946D01*
X0012982Y0020041D01*
X0013089Y0020133D01*
X0013198Y0020222D01*
X0013310Y0020307D01*
X0013424Y0020390D01*
X0013540Y0020470D01*
X0013659Y0020546D01*
X0013780Y0020618D01*
X0013902Y0020688D01*
X0014027Y0020753D01*
X0014153Y0020816D01*
X0014281Y0020874D01*
X0014411Y0020929D01*
X0014542Y0020981D01*
X0014675Y0021028D01*
X0014809Y0021072D01*
X0014944Y0021113D01*
X0015080Y0021149D01*
X0015217Y0021181D01*
X0015355Y0021210D01*
X0015493Y0021235D01*
X0015633Y0021255D01*
X0015773Y0021272D01*
X0015913Y0021285D01*
X0016054Y0021294D01*
X0016194Y0021299D01*
X0016335Y0021300D01*
X0016476Y0021297D01*
X0016617Y0021290D01*
X0016757Y0021279D01*
X0016897Y0021264D01*
X0017037Y0021245D01*
X0017176Y0021223D01*
X0017314Y0021196D01*
X0017452Y0021166D01*
X0017588Y0021131D01*
X0017724Y0021093D01*
X0017858Y0021051D01*
X0017992Y0021005D01*
X0018124Y0020956D01*
X0018254Y0020902D01*
X0018383Y0020845D01*
X0018510Y0020785D01*
X0018636Y0020721D01*
X0018759Y0020653D01*
X0018881Y0020582D01*
X0019001Y0020508D01*
X0019118Y0020430D01*
X0019233Y0020349D01*
X0019346Y0020265D01*
X0019457Y0020178D01*
X0019565Y0020087D01*
X0019670Y0019994D01*
X0019773Y0019897D01*
X0019873Y0019798D01*
X0019970Y0019696D01*
X0020064Y0019591D01*
X0020155Y0019484D01*
X0020243Y0019374D01*
X0020328Y0019262D01*
X0020410Y0019147D01*
X0020489Y0019030D01*
X0020564Y0018911D01*
X0020636Y0018790D01*
X0020704Y0018667D01*
X0020769Y0018542D01*
X0020831Y0018415D01*
X0020888Y0018286D01*
X0020943Y0018156D01*
X0020993Y0018025D01*
X0021040Y0017892D01*
X0021083Y0017758D01*
X0021122Y0017622D01*
X0021157Y0017486D01*
X0021189Y0017349D01*
X0021216Y0017211D01*
X0021240Y0017072D01*
X0021260Y0016932D01*
X0021276Y0016792D01*
X0021288Y0016652D01*
X0021296Y0016511D01*
X0021300Y0016370D01*
X0021300Y0016230D01*
X0021296Y0016089D01*
X0021288Y0015948D01*
X0021276Y0015808D01*
X0021260Y0015668D01*
X0021240Y0015528D01*
X0021216Y0015389D01*
X0021189Y0015251D01*
X0021157Y0015114D01*
X0021122Y0014978D01*
X0021083Y0014842D01*
X0021040Y0014708D01*
X0020993Y0014575D01*
X0020943Y0014444D01*
X0020888Y0014314D01*
X0020831Y0014185D01*
X0020769Y0014058D01*
X0020704Y0013933D01*
X0020636Y0013810D01*
X0020564Y0013689D01*
X0020489Y0013570D01*
X0020410Y0013453D01*
X0020328Y0013338D01*
X0020243Y0013226D01*
X0020155Y0013116D01*
X0020064Y0013009D01*
X0019970Y0012904D01*
X0019873Y0012802D01*
X0019773Y0012703D01*
X0019670Y0012606D01*
X0019565Y0012513D01*
X0019457Y0012422D01*
X0019346Y0012335D01*
X0019233Y0012251D01*
X0019118Y0012170D01*
X0019001Y0012092D01*
X0018881Y0012018D01*
X0018759Y0011947D01*
X0018636Y0011879D01*
X0018510Y0011815D01*
X0018383Y0011755D01*
X0018254Y0011698D01*
X0018124Y0011644D01*
X0017992Y0011595D01*
X0017858Y0011549D01*
X0017724Y0011507D01*
X0017588Y0011469D01*
X0017452Y0011434D01*
X0017314Y0011404D01*
X0017176Y0011377D01*
X0017037Y0011355D01*
X0016897Y0011336D01*
X0016757Y0011321D01*
X0016617Y0011310D01*
X0016476Y0011303D01*
X0016335Y0011300D01*
X0016194Y0011301D01*
X0016054Y0011306D01*
X0015913Y0011315D01*
X0015773Y0011328D01*
X0015633Y0011345D01*
X0015493Y0011365D01*
X0015355Y0011390D01*
X0015217Y0011419D01*
X0015080Y0011451D01*
X0014944Y0011487D01*
X0014809Y0011528D01*
X0014675Y0011572D01*
X0014542Y0011619D01*
X0014411Y0011671D01*
X0014281Y0011726D01*
X0014153Y0011784D01*
X0014027Y0011847D01*
X0013902Y0011912D01*
X0013780Y0011982D01*
X0013659Y0012054D01*
X0013540Y0012130D01*
X0013424Y0012210D01*
X0013310Y0012293D01*
X0013198Y0012378D01*
X0013089Y0012467D01*
X0012982Y0012559D01*
X0012878Y0012654D01*
X0012777Y0012752D01*
X0012678Y0012853D01*
X0012583Y0012956D01*
X0012490Y0013062D01*
X0012400Y0013171D01*
X0012314Y0013282D01*
X0012230Y0013395D01*
X0012150Y0013511D01*
X0012073Y0013629D01*
X0012000Y0013749D01*
X0011929Y0013872D01*
X0011863Y0013996D01*
X0011800Y0014122D01*
X0011740Y0014249D01*
X0011684Y0014378D01*
X0011632Y0014509D01*
X0011583Y0014641D01*
X0011538Y0014775D01*
X0011497Y0014910D01*
X0011460Y0015046D01*
X0011426Y0015182D01*
X0011397Y0015320D01*
X0011371Y0015459D01*
X0011350Y0015598D01*
X0011332Y0015738D01*
X0011318Y0015878D01*
X0011308Y0016018D01*
X0011302Y0016159D01*
X0011300Y0016300D01*
X0111300Y0016300D02*
X0111302Y0016441D01*
X0111308Y0016582D01*
X0111318Y0016722D01*
X0111332Y0016862D01*
X0111350Y0017002D01*
X0111371Y0017141D01*
X0111397Y0017280D01*
X0111426Y0017418D01*
X0111460Y0017554D01*
X0111497Y0017690D01*
X0111538Y0017825D01*
X0111583Y0017959D01*
X0111632Y0018091D01*
X0111684Y0018222D01*
X0111740Y0018351D01*
X0111800Y0018478D01*
X0111863Y0018604D01*
X0111929Y0018728D01*
X0112000Y0018851D01*
X0112073Y0018971D01*
X0112150Y0019089D01*
X0112230Y0019205D01*
X0112314Y0019318D01*
X0112400Y0019429D01*
X0112490Y0019538D01*
X0112583Y0019644D01*
X0112678Y0019747D01*
X0112777Y0019848D01*
X0112878Y0019946D01*
X0112982Y0020041D01*
X0113089Y0020133D01*
X0113198Y0020222D01*
X0113310Y0020307D01*
X0113424Y0020390D01*
X0113540Y0020470D01*
X0113659Y0020546D01*
X0113780Y0020618D01*
X0113902Y0020688D01*
X0114027Y0020753D01*
X0114153Y0020816D01*
X0114281Y0020874D01*
X0114411Y0020929D01*
X0114542Y0020981D01*
X0114675Y0021028D01*
X0114809Y0021072D01*
X0114944Y0021113D01*
X0115080Y0021149D01*
X0115217Y0021181D01*
X0115355Y0021210D01*
X0115493Y0021235D01*
X0115633Y0021255D01*
X0115773Y0021272D01*
X0115913Y0021285D01*
X0116054Y0021294D01*
X0116194Y0021299D01*
X0116335Y0021300D01*
X0116476Y0021297D01*
X0116617Y0021290D01*
X0116757Y0021279D01*
X0116897Y0021264D01*
X0117037Y0021245D01*
X0117176Y0021223D01*
X0117314Y0021196D01*
X0117452Y0021166D01*
X0117588Y0021131D01*
X0117724Y0021093D01*
X0117858Y0021051D01*
X0117992Y0021005D01*
X0118124Y0020956D01*
X0118254Y0020902D01*
X0118383Y0020845D01*
X0118510Y0020785D01*
X0118636Y0020721D01*
X0118759Y0020653D01*
X0118881Y0020582D01*
X0119001Y0020508D01*
X0119118Y0020430D01*
X0119233Y0020349D01*
X0119346Y0020265D01*
X0119457Y0020178D01*
X0119565Y0020087D01*
X0119670Y0019994D01*
X0119773Y0019897D01*
X0119873Y0019798D01*
X0119970Y0019696D01*
X0120064Y0019591D01*
X0120155Y0019484D01*
X0120243Y0019374D01*
X0120328Y0019262D01*
X0120410Y0019147D01*
X0120489Y0019030D01*
X0120564Y0018911D01*
X0120636Y0018790D01*
X0120704Y0018667D01*
X0120769Y0018542D01*
X0120831Y0018415D01*
X0120888Y0018286D01*
X0120943Y0018156D01*
X0120993Y0018025D01*
X0121040Y0017892D01*
X0121083Y0017758D01*
X0121122Y0017622D01*
X0121157Y0017486D01*
X0121189Y0017349D01*
X0121216Y0017211D01*
X0121240Y0017072D01*
X0121260Y0016932D01*
X0121276Y0016792D01*
X0121288Y0016652D01*
X0121296Y0016511D01*
X0121300Y0016370D01*
X0121300Y0016230D01*
X0121296Y0016089D01*
X0121288Y0015948D01*
X0121276Y0015808D01*
X0121260Y0015668D01*
X0121240Y0015528D01*
X0121216Y0015389D01*
X0121189Y0015251D01*
X0121157Y0015114D01*
X0121122Y0014978D01*
X0121083Y0014842D01*
X0121040Y0014708D01*
X0120993Y0014575D01*
X0120943Y0014444D01*
X0120888Y0014314D01*
X0120831Y0014185D01*
X0120769Y0014058D01*
X0120704Y0013933D01*
X0120636Y0013810D01*
X0120564Y0013689D01*
X0120489Y0013570D01*
X0120410Y0013453D01*
X0120328Y0013338D01*
X0120243Y0013226D01*
X0120155Y0013116D01*
X0120064Y0013009D01*
X0119970Y0012904D01*
X0119873Y0012802D01*
X0119773Y0012703D01*
X0119670Y0012606D01*
X0119565Y0012513D01*
X0119457Y0012422D01*
X0119346Y0012335D01*
X0119233Y0012251D01*
X0119118Y0012170D01*
X0119001Y0012092D01*
X0118881Y0012018D01*
X0118759Y0011947D01*
X0118636Y0011879D01*
X0118510Y0011815D01*
X0118383Y0011755D01*
X0118254Y0011698D01*
X0118124Y0011644D01*
X0117992Y0011595D01*
X0117858Y0011549D01*
X0117724Y0011507D01*
X0117588Y0011469D01*
X0117452Y0011434D01*
X0117314Y0011404D01*
X0117176Y0011377D01*
X0117037Y0011355D01*
X0116897Y0011336D01*
X0116757Y0011321D01*
X0116617Y0011310D01*
X0116476Y0011303D01*
X0116335Y0011300D01*
X0116194Y0011301D01*
X0116054Y0011306D01*
X0115913Y0011315D01*
X0115773Y0011328D01*
X0115633Y0011345D01*
X0115493Y0011365D01*
X0115355Y0011390D01*
X0115217Y0011419D01*
X0115080Y0011451D01*
X0114944Y0011487D01*
X0114809Y0011528D01*
X0114675Y0011572D01*
X0114542Y0011619D01*
X0114411Y0011671D01*
X0114281Y0011726D01*
X0114153Y0011784D01*
X0114027Y0011847D01*
X0113902Y0011912D01*
X0113780Y0011982D01*
X0113659Y0012054D01*
X0113540Y0012130D01*
X0113424Y0012210D01*
X0113310Y0012293D01*
X0113198Y0012378D01*
X0113089Y0012467D01*
X0112982Y0012559D01*
X0112878Y0012654D01*
X0112777Y0012752D01*
X0112678Y0012853D01*
X0112583Y0012956D01*
X0112490Y0013062D01*
X0112400Y0013171D01*
X0112314Y0013282D01*
X0112230Y0013395D01*
X0112150Y0013511D01*
X0112073Y0013629D01*
X0112000Y0013749D01*
X0111929Y0013872D01*
X0111863Y0013996D01*
X0111800Y0014122D01*
X0111740Y0014249D01*
X0111684Y0014378D01*
X0111632Y0014509D01*
X0111583Y0014641D01*
X0111538Y0014775D01*
X0111497Y0014910D01*
X0111460Y0015046D01*
X0111426Y0015182D01*
X0111397Y0015320D01*
X0111371Y0015459D01*
X0111350Y0015598D01*
X0111332Y0015738D01*
X0111318Y0015878D01*
X0111308Y0016018D01*
X0111302Y0016159D01*
X0111300Y0016300D01*
X0111300Y0156300D02*
X0111302Y0156441D01*
X0111308Y0156582D01*
X0111318Y0156722D01*
X0111332Y0156862D01*
X0111350Y0157002D01*
X0111371Y0157141D01*
X0111397Y0157280D01*
X0111426Y0157418D01*
X0111460Y0157554D01*
X0111497Y0157690D01*
X0111538Y0157825D01*
X0111583Y0157959D01*
X0111632Y0158091D01*
X0111684Y0158222D01*
X0111740Y0158351D01*
X0111800Y0158478D01*
X0111863Y0158604D01*
X0111929Y0158728D01*
X0112000Y0158851D01*
X0112073Y0158971D01*
X0112150Y0159089D01*
X0112230Y0159205D01*
X0112314Y0159318D01*
X0112400Y0159429D01*
X0112490Y0159538D01*
X0112583Y0159644D01*
X0112678Y0159747D01*
X0112777Y0159848D01*
X0112878Y0159946D01*
X0112982Y0160041D01*
X0113089Y0160133D01*
X0113198Y0160222D01*
X0113310Y0160307D01*
X0113424Y0160390D01*
X0113540Y0160470D01*
X0113659Y0160546D01*
X0113780Y0160618D01*
X0113902Y0160688D01*
X0114027Y0160753D01*
X0114153Y0160816D01*
X0114281Y0160874D01*
X0114411Y0160929D01*
X0114542Y0160981D01*
X0114675Y0161028D01*
X0114809Y0161072D01*
X0114944Y0161113D01*
X0115080Y0161149D01*
X0115217Y0161181D01*
X0115355Y0161210D01*
X0115493Y0161235D01*
X0115633Y0161255D01*
X0115773Y0161272D01*
X0115913Y0161285D01*
X0116054Y0161294D01*
X0116194Y0161299D01*
X0116335Y0161300D01*
X0116476Y0161297D01*
X0116617Y0161290D01*
X0116757Y0161279D01*
X0116897Y0161264D01*
X0117037Y0161245D01*
X0117176Y0161223D01*
X0117314Y0161196D01*
X0117452Y0161166D01*
X0117588Y0161131D01*
X0117724Y0161093D01*
X0117858Y0161051D01*
X0117992Y0161005D01*
X0118124Y0160956D01*
X0118254Y0160902D01*
X0118383Y0160845D01*
X0118510Y0160785D01*
X0118636Y0160721D01*
X0118759Y0160653D01*
X0118881Y0160582D01*
X0119001Y0160508D01*
X0119118Y0160430D01*
X0119233Y0160349D01*
X0119346Y0160265D01*
X0119457Y0160178D01*
X0119565Y0160087D01*
X0119670Y0159994D01*
X0119773Y0159897D01*
X0119873Y0159798D01*
X0119970Y0159696D01*
X0120064Y0159591D01*
X0120155Y0159484D01*
X0120243Y0159374D01*
X0120328Y0159262D01*
X0120410Y0159147D01*
X0120489Y0159030D01*
X0120564Y0158911D01*
X0120636Y0158790D01*
X0120704Y0158667D01*
X0120769Y0158542D01*
X0120831Y0158415D01*
X0120888Y0158286D01*
X0120943Y0158156D01*
X0120993Y0158025D01*
X0121040Y0157892D01*
X0121083Y0157758D01*
X0121122Y0157622D01*
X0121157Y0157486D01*
X0121189Y0157349D01*
X0121216Y0157211D01*
X0121240Y0157072D01*
X0121260Y0156932D01*
X0121276Y0156792D01*
X0121288Y0156652D01*
X0121296Y0156511D01*
X0121300Y0156370D01*
X0121300Y0156230D01*
X0121296Y0156089D01*
X0121288Y0155948D01*
X0121276Y0155808D01*
X0121260Y0155668D01*
X0121240Y0155528D01*
X0121216Y0155389D01*
X0121189Y0155251D01*
X0121157Y0155114D01*
X0121122Y0154978D01*
X0121083Y0154842D01*
X0121040Y0154708D01*
X0120993Y0154575D01*
X0120943Y0154444D01*
X0120888Y0154314D01*
X0120831Y0154185D01*
X0120769Y0154058D01*
X0120704Y0153933D01*
X0120636Y0153810D01*
X0120564Y0153689D01*
X0120489Y0153570D01*
X0120410Y0153453D01*
X0120328Y0153338D01*
X0120243Y0153226D01*
X0120155Y0153116D01*
X0120064Y0153009D01*
X0119970Y0152904D01*
X0119873Y0152802D01*
X0119773Y0152703D01*
X0119670Y0152606D01*
X0119565Y0152513D01*
X0119457Y0152422D01*
X0119346Y0152335D01*
X0119233Y0152251D01*
X0119118Y0152170D01*
X0119001Y0152092D01*
X0118881Y0152018D01*
X0118759Y0151947D01*
X0118636Y0151879D01*
X0118510Y0151815D01*
X0118383Y0151755D01*
X0118254Y0151698D01*
X0118124Y0151644D01*
X0117992Y0151595D01*
X0117858Y0151549D01*
X0117724Y0151507D01*
X0117588Y0151469D01*
X0117452Y0151434D01*
X0117314Y0151404D01*
X0117176Y0151377D01*
X0117037Y0151355D01*
X0116897Y0151336D01*
X0116757Y0151321D01*
X0116617Y0151310D01*
X0116476Y0151303D01*
X0116335Y0151300D01*
X0116194Y0151301D01*
X0116054Y0151306D01*
X0115913Y0151315D01*
X0115773Y0151328D01*
X0115633Y0151345D01*
X0115493Y0151365D01*
X0115355Y0151390D01*
X0115217Y0151419D01*
X0115080Y0151451D01*
X0114944Y0151487D01*
X0114809Y0151528D01*
X0114675Y0151572D01*
X0114542Y0151619D01*
X0114411Y0151671D01*
X0114281Y0151726D01*
X0114153Y0151784D01*
X0114027Y0151847D01*
X0113902Y0151912D01*
X0113780Y0151982D01*
X0113659Y0152054D01*
X0113540Y0152130D01*
X0113424Y0152210D01*
X0113310Y0152293D01*
X0113198Y0152378D01*
X0113089Y0152467D01*
X0112982Y0152559D01*
X0112878Y0152654D01*
X0112777Y0152752D01*
X0112678Y0152853D01*
X0112583Y0152956D01*
X0112490Y0153062D01*
X0112400Y0153171D01*
X0112314Y0153282D01*
X0112230Y0153395D01*
X0112150Y0153511D01*
X0112073Y0153629D01*
X0112000Y0153749D01*
X0111929Y0153872D01*
X0111863Y0153996D01*
X0111800Y0154122D01*
X0111740Y0154249D01*
X0111684Y0154378D01*
X0111632Y0154509D01*
X0111583Y0154641D01*
X0111538Y0154775D01*
X0111497Y0154910D01*
X0111460Y0155046D01*
X0111426Y0155182D01*
X0111397Y0155320D01*
X0111371Y0155459D01*
X0111350Y0155598D01*
X0111332Y0155738D01*
X0111318Y0155878D01*
X0111308Y0156018D01*
X0111302Y0156159D01*
X0111300Y0156300D01*
X0011300Y0156300D02*
X0011302Y0156441D01*
X0011308Y0156582D01*
X0011318Y0156722D01*
X0011332Y0156862D01*
X0011350Y0157002D01*
X0011371Y0157141D01*
X0011397Y0157280D01*
X0011426Y0157418D01*
X0011460Y0157554D01*
X0011497Y0157690D01*
X0011538Y0157825D01*
X0011583Y0157959D01*
X0011632Y0158091D01*
X0011684Y0158222D01*
X0011740Y0158351D01*
X0011800Y0158478D01*
X0011863Y0158604D01*
X0011929Y0158728D01*
X0012000Y0158851D01*
X0012073Y0158971D01*
X0012150Y0159089D01*
X0012230Y0159205D01*
X0012314Y0159318D01*
X0012400Y0159429D01*
X0012490Y0159538D01*
X0012583Y0159644D01*
X0012678Y0159747D01*
X0012777Y0159848D01*
X0012878Y0159946D01*
X0012982Y0160041D01*
X0013089Y0160133D01*
X0013198Y0160222D01*
X0013310Y0160307D01*
X0013424Y0160390D01*
X0013540Y0160470D01*
X0013659Y0160546D01*
X0013780Y0160618D01*
X0013902Y0160688D01*
X0014027Y0160753D01*
X0014153Y0160816D01*
X0014281Y0160874D01*
X0014411Y0160929D01*
X0014542Y0160981D01*
X0014675Y0161028D01*
X0014809Y0161072D01*
X0014944Y0161113D01*
X0015080Y0161149D01*
X0015217Y0161181D01*
X0015355Y0161210D01*
X0015493Y0161235D01*
X0015633Y0161255D01*
X0015773Y0161272D01*
X0015913Y0161285D01*
X0016054Y0161294D01*
X0016194Y0161299D01*
X0016335Y0161300D01*
X0016476Y0161297D01*
X0016617Y0161290D01*
X0016757Y0161279D01*
X0016897Y0161264D01*
X0017037Y0161245D01*
X0017176Y0161223D01*
X0017314Y0161196D01*
X0017452Y0161166D01*
X0017588Y0161131D01*
X0017724Y0161093D01*
X0017858Y0161051D01*
X0017992Y0161005D01*
X0018124Y0160956D01*
X0018254Y0160902D01*
X0018383Y0160845D01*
X0018510Y0160785D01*
X0018636Y0160721D01*
X0018759Y0160653D01*
X0018881Y0160582D01*
X0019001Y0160508D01*
X0019118Y0160430D01*
X0019233Y0160349D01*
X0019346Y0160265D01*
X0019457Y0160178D01*
X0019565Y0160087D01*
X0019670Y0159994D01*
X0019773Y0159897D01*
X0019873Y0159798D01*
X0019970Y0159696D01*
X0020064Y0159591D01*
X0020155Y0159484D01*
X0020243Y0159374D01*
X0020328Y0159262D01*
X0020410Y0159147D01*
X0020489Y0159030D01*
X0020564Y0158911D01*
X0020636Y0158790D01*
X0020704Y0158667D01*
X0020769Y0158542D01*
X0020831Y0158415D01*
X0020888Y0158286D01*
X0020943Y0158156D01*
X0020993Y0158025D01*
X0021040Y0157892D01*
X0021083Y0157758D01*
X0021122Y0157622D01*
X0021157Y0157486D01*
X0021189Y0157349D01*
X0021216Y0157211D01*
X0021240Y0157072D01*
X0021260Y0156932D01*
X0021276Y0156792D01*
X0021288Y0156652D01*
X0021296Y0156511D01*
X0021300Y0156370D01*
X0021300Y0156230D01*
X0021296Y0156089D01*
X0021288Y0155948D01*
X0021276Y0155808D01*
X0021260Y0155668D01*
X0021240Y0155528D01*
X0021216Y0155389D01*
X0021189Y0155251D01*
X0021157Y0155114D01*
X0021122Y0154978D01*
X0021083Y0154842D01*
X0021040Y0154708D01*
X0020993Y0154575D01*
X0020943Y0154444D01*
X0020888Y0154314D01*
X0020831Y0154185D01*
X0020769Y0154058D01*
X0020704Y0153933D01*
X0020636Y0153810D01*
X0020564Y0153689D01*
X0020489Y0153570D01*
X0020410Y0153453D01*
X0020328Y0153338D01*
X0020243Y0153226D01*
X0020155Y0153116D01*
X0020064Y0153009D01*
X0019970Y0152904D01*
X0019873Y0152802D01*
X0019773Y0152703D01*
X0019670Y0152606D01*
X0019565Y0152513D01*
X0019457Y0152422D01*
X0019346Y0152335D01*
X0019233Y0152251D01*
X0019118Y0152170D01*
X0019001Y0152092D01*
X0018881Y0152018D01*
X0018759Y0151947D01*
X0018636Y0151879D01*
X0018510Y0151815D01*
X0018383Y0151755D01*
X0018254Y0151698D01*
X0018124Y0151644D01*
X0017992Y0151595D01*
X0017858Y0151549D01*
X0017724Y0151507D01*
X0017588Y0151469D01*
X0017452Y0151434D01*
X0017314Y0151404D01*
X0017176Y0151377D01*
X0017037Y0151355D01*
X0016897Y0151336D01*
X0016757Y0151321D01*
X0016617Y0151310D01*
X0016476Y0151303D01*
X0016335Y0151300D01*
X0016194Y0151301D01*
X0016054Y0151306D01*
X0015913Y0151315D01*
X0015773Y0151328D01*
X0015633Y0151345D01*
X0015493Y0151365D01*
X0015355Y0151390D01*
X0015217Y0151419D01*
X0015080Y0151451D01*
X0014944Y0151487D01*
X0014809Y0151528D01*
X0014675Y0151572D01*
X0014542Y0151619D01*
X0014411Y0151671D01*
X0014281Y0151726D01*
X0014153Y0151784D01*
X0014027Y0151847D01*
X0013902Y0151912D01*
X0013780Y0151982D01*
X0013659Y0152054D01*
X0013540Y0152130D01*
X0013424Y0152210D01*
X0013310Y0152293D01*
X0013198Y0152378D01*
X0013089Y0152467D01*
X0012982Y0152559D01*
X0012878Y0152654D01*
X0012777Y0152752D01*
X0012678Y0152853D01*
X0012583Y0152956D01*
X0012490Y0153062D01*
X0012400Y0153171D01*
X0012314Y0153282D01*
X0012230Y0153395D01*
X0012150Y0153511D01*
X0012073Y0153629D01*
X0012000Y0153749D01*
X0011929Y0153872D01*
X0011863Y0153996D01*
X0011800Y0154122D01*
X0011740Y0154249D01*
X0011684Y0154378D01*
X0011632Y0154509D01*
X0011583Y0154641D01*
X0011538Y0154775D01*
X0011497Y0154910D01*
X0011460Y0155046D01*
X0011426Y0155182D01*
X0011397Y0155320D01*
X0011371Y0155459D01*
X0011350Y0155598D01*
X0011332Y0155738D01*
X0011318Y0155878D01*
X0011308Y0156018D01*
X0011302Y0156159D01*
X0011300Y0156300D01*
D12*
X0022650Y0163947D02*
X0022650Y0164264D01*
X0022967Y0164581D01*
X0024552Y0164581D01*
X0024552Y0164264D02*
X0024552Y0164898D01*
X0023918Y0165840D02*
X0024552Y0166474D01*
X0022650Y0166474D01*
X0022650Y0165840D02*
X0022650Y0167108D01*
X0022650Y0163947D02*
X0022967Y0163630D01*
X0016300Y0131300D02*
X0016300Y0061300D01*
X0096300Y0061300D01*
X0096300Y0131300D01*
X0016300Y0131300D01*
X0107650Y0148661D02*
X0108918Y0148661D01*
X0109552Y0149295D01*
X0108918Y0149929D01*
X0107650Y0149929D01*
X0108601Y0149929D02*
X0108601Y0148661D01*
X0109235Y0150871D02*
X0107967Y0150871D01*
X0107650Y0151188D01*
X0107650Y0151822D01*
X0107967Y0152139D01*
X0109235Y0152139D02*
X0109552Y0151822D01*
X0109552Y0151188D01*
X0109235Y0150871D01*
X0109552Y0153081D02*
X0109552Y0154349D01*
X0109552Y0153715D02*
X0107650Y0153715D01*
X0107967Y0155291D02*
X0107650Y0155608D01*
X0107650Y0156241D01*
X0107967Y0156558D01*
X0109552Y0156558D01*
X0108918Y0157501D02*
X0107650Y0157501D01*
X0108601Y0157501D02*
X0108601Y0158768D01*
X0108918Y0158768D02*
X0107650Y0158768D01*
X0108918Y0158768D02*
X0109552Y0158134D01*
X0108918Y0157501D01*
X0109552Y0159710D02*
X0109552Y0160978D01*
X0109552Y0160344D02*
X0107650Y0160344D01*
X0107967Y0161920D02*
X0107650Y0162237D01*
X0107650Y0162871D01*
X0107967Y0163188D01*
X0109235Y0163188D01*
X0109552Y0162871D01*
X0109552Y0162237D01*
X0109235Y0161920D01*
X0107967Y0161920D01*
X0108284Y0164130D02*
X0108284Y0165081D01*
X0108601Y0165398D01*
X0109235Y0165398D01*
X0109552Y0165081D01*
X0109552Y0164130D01*
X0107650Y0164130D01*
X0108284Y0164764D02*
X0107650Y0165398D01*
X0107967Y0166340D02*
X0107650Y0166657D01*
X0107650Y0167291D01*
X0107967Y0167608D01*
X0108284Y0167608D01*
X0108601Y0167291D01*
X0108601Y0166657D01*
X0108918Y0166340D01*
X0109235Y0166340D01*
X0109552Y0166657D01*
X0109552Y0167291D01*
X0109235Y0167608D01*
X0109552Y0155291D02*
X0107967Y0155291D01*
X0123750Y0133081D02*
X0128254Y0133081D01*
X0128254Y0135333D01*
X0127503Y0136084D01*
X0126002Y0136084D01*
X0125251Y0135333D01*
X0125251Y0133081D01*
X0124501Y0131480D02*
X0128254Y0131480D01*
X0128254Y0128477D02*
X0124501Y0128477D01*
X0123750Y0129228D01*
X0123750Y0130729D01*
X0124501Y0131480D01*
X0126002Y0126876D02*
X0125251Y0126125D01*
X0125251Y0123874D01*
X0123750Y0123874D02*
X0128254Y0123874D01*
X0128254Y0126125D01*
X0127503Y0126876D01*
X0126002Y0126876D01*
X0128254Y0122272D02*
X0128254Y0119270D01*
X0123750Y0119270D01*
X0123750Y0122272D01*
X0126002Y0120771D02*
X0126002Y0119270D01*
X0128254Y0117668D02*
X0128254Y0114666D01*
X0128254Y0116167D02*
X0123750Y0116167D01*
X0124501Y0113064D02*
X0123750Y0112314D01*
X0123750Y0110812D01*
X0124501Y0110062D01*
X0126002Y0110812D02*
X0126002Y0112314D01*
X0125251Y0113064D01*
X0124501Y0113064D01*
X0126002Y0110812D02*
X0126753Y0110062D01*
X0127503Y0110062D01*
X0128254Y0110812D01*
X0128254Y0112314D01*
X0127503Y0113064D01*
X0126002Y0108460D02*
X0126002Y0105458D01*
X0127503Y0103856D02*
X0128254Y0103106D01*
X0128254Y0101605D01*
X0127503Y0100854D01*
X0124501Y0100854D01*
X0123750Y0101605D01*
X0123750Y0103106D01*
X0124501Y0103856D01*
X0127503Y0103856D01*
X0128254Y0099253D02*
X0128254Y0096250D01*
X0128254Y0097751D02*
X0123750Y0097751D01*
X0126602Y0085249D02*
X0125851Y0084498D01*
X0125851Y0082246D01*
X0124350Y0082246D02*
X0128854Y0082246D01*
X0128854Y0084498D01*
X0128103Y0085249D01*
X0126602Y0085249D01*
X0125101Y0080645D02*
X0124350Y0079894D01*
X0124350Y0078393D01*
X0125101Y0077642D01*
X0128854Y0077642D01*
X0128103Y0076041D02*
X0128854Y0075290D01*
X0128854Y0073038D01*
X0124350Y0073038D01*
X0125851Y0073038D02*
X0125851Y0075290D01*
X0126602Y0076041D01*
X0128103Y0076041D01*
X0128854Y0080645D02*
X0125101Y0080645D01*
X0124350Y0071437D02*
X0124350Y0068434D01*
X0128854Y0068434D01*
X0128854Y0071437D01*
X0126602Y0069935D02*
X0126602Y0068434D01*
X0128854Y0066833D02*
X0128854Y0063830D01*
X0128854Y0065332D02*
X0124350Y0065332D01*
X0125101Y0062229D02*
X0124350Y0061478D01*
X0124350Y0059977D01*
X0125101Y0059226D01*
X0126602Y0059977D02*
X0126602Y0061478D01*
X0125851Y0062229D01*
X0125101Y0062229D01*
X0126602Y0059977D02*
X0127353Y0059226D01*
X0128103Y0059226D01*
X0128854Y0059977D01*
X0128854Y0061478D01*
X0128103Y0062229D01*
X0126602Y0057625D02*
X0126602Y0054622D01*
X0128854Y0053021D02*
X0127353Y0051520D01*
X0128854Y0050018D01*
X0124350Y0050018D01*
X0125101Y0048417D02*
X0124350Y0047666D01*
X0124350Y0046165D01*
X0125101Y0045415D01*
X0128103Y0045415D01*
X0128854Y0046165D01*
X0128854Y0047666D01*
X0128103Y0048417D01*
X0125101Y0048417D01*
X0124350Y0053021D02*
X0128854Y0053021D01*
X0128103Y0043813D02*
X0126602Y0043813D01*
X0125851Y0043063D01*
X0125851Y0040811D01*
X0125851Y0042312D02*
X0124350Y0043813D01*
X0124350Y0040811D02*
X0128854Y0040811D01*
X0128854Y0043063D01*
X0128103Y0043813D01*
X0128854Y0039209D02*
X0128854Y0036207D01*
X0124350Y0036207D01*
X0126602Y0036207D02*
X0126602Y0037708D01*
D13*
X0104653Y0059217D02*
X0102184Y0059217D01*
X0100950Y0060452D01*
X0102184Y0061686D01*
X0104653Y0061686D01*
X0104653Y0062901D02*
X0103419Y0064135D01*
X0104653Y0065369D01*
X0100950Y0065369D01*
X0101567Y0066584D02*
X0100950Y0067201D01*
X0100950Y0068435D01*
X0101567Y0069052D01*
X0104036Y0069052D01*
X0104653Y0068435D01*
X0104653Y0067201D01*
X0104036Y0066584D01*
X0101567Y0066584D01*
X0100950Y0062901D02*
X0104653Y0062901D01*
X0104653Y0070267D02*
X0104653Y0072736D01*
X0104653Y0071501D02*
X0100950Y0071501D01*
X0101567Y0077901D02*
X0100950Y0078518D01*
X0100950Y0079752D01*
X0101567Y0080369D01*
X0102802Y0080369D01*
X0102802Y0079135D01*
X0104036Y0080369D02*
X0104653Y0079752D01*
X0104653Y0078518D01*
X0104036Y0077901D01*
X0101567Y0077901D01*
X0100950Y0081584D02*
X0104653Y0081584D01*
X0100950Y0084052D01*
X0104653Y0084052D01*
X0104653Y0085267D02*
X0104653Y0087118D01*
X0104036Y0087736D01*
X0101567Y0087736D01*
X0100950Y0087118D01*
X0100950Y0085267D01*
X0104653Y0085267D01*
X0092653Y0080668D02*
X0092653Y0078816D01*
X0088950Y0078816D01*
X0088950Y0080668D01*
X0089567Y0081285D01*
X0092036Y0081285D01*
X0092653Y0080668D01*
X0092653Y0077602D02*
X0088950Y0077602D01*
X0092653Y0075133D01*
X0088950Y0075133D01*
X0089567Y0073919D02*
X0090802Y0073919D01*
X0090802Y0072684D01*
X0092036Y0071450D02*
X0089567Y0071450D01*
X0088950Y0072067D01*
X0088950Y0073302D01*
X0089567Y0073919D01*
X0092036Y0073919D02*
X0092653Y0073302D01*
X0092653Y0072067D01*
X0092036Y0071450D01*
X0082653Y0071450D02*
X0080184Y0071450D01*
X0078950Y0072684D01*
X0080184Y0073919D01*
X0082653Y0073919D01*
X0082036Y0075133D02*
X0079567Y0075133D01*
X0078950Y0075750D01*
X0078950Y0076985D01*
X0079567Y0077602D01*
X0079567Y0078816D02*
X0078950Y0079433D01*
X0078950Y0080668D01*
X0079567Y0081285D01*
X0082036Y0081285D02*
X0082653Y0080668D01*
X0082653Y0079433D01*
X0082036Y0078816D01*
X0079567Y0078816D01*
X0082036Y0077602D02*
X0082653Y0076985D01*
X0082653Y0075750D01*
X0082036Y0075133D01*
X0072653Y0075750D02*
X0072036Y0075133D01*
X0069567Y0075133D01*
X0068950Y0075750D01*
X0068950Y0076985D01*
X0069567Y0077602D01*
X0072036Y0077602D01*
X0072653Y0076985D01*
X0072653Y0075750D01*
X0071419Y0073919D02*
X0068950Y0073919D01*
X0068950Y0071450D02*
X0071419Y0071450D01*
X0072653Y0072684D01*
X0071419Y0073919D01*
X0070802Y0073919D02*
X0070802Y0071450D01*
X0071419Y0078816D02*
X0072653Y0080051D01*
X0068950Y0080051D01*
X0068950Y0081285D02*
X0068950Y0078816D01*
X0062653Y0079433D02*
X0062036Y0078816D01*
X0062653Y0079433D02*
X0062653Y0080668D01*
X0062036Y0081285D01*
X0061419Y0081285D01*
X0058950Y0078816D01*
X0058950Y0081285D01*
X0059567Y0077602D02*
X0062036Y0077602D01*
X0062653Y0076985D01*
X0062653Y0075750D01*
X0062036Y0075133D01*
X0059567Y0075133D01*
X0058950Y0075750D01*
X0058950Y0076985D01*
X0059567Y0077602D01*
X0058950Y0073919D02*
X0061419Y0073919D01*
X0062653Y0072684D01*
X0061419Y0071450D01*
X0058950Y0071450D01*
X0060802Y0071450D02*
X0060802Y0073919D01*
X0052653Y0073302D02*
X0052653Y0071450D01*
X0048950Y0071450D01*
X0048950Y0073302D01*
X0049567Y0073919D01*
X0050184Y0073919D01*
X0050802Y0073302D01*
X0050802Y0071450D01*
X0050802Y0073302D02*
X0051419Y0073919D01*
X0052036Y0073919D01*
X0052653Y0073302D01*
X0052036Y0075133D02*
X0049567Y0075133D01*
X0048950Y0075750D01*
X0048950Y0076985D01*
X0049567Y0077602D01*
X0052036Y0077602D01*
X0052653Y0076985D01*
X0052653Y0075750D01*
X0052036Y0075133D01*
X0052036Y0078816D02*
X0052653Y0079433D01*
X0052653Y0080668D01*
X0052036Y0081285D01*
X0051419Y0081285D01*
X0048950Y0078816D01*
X0048950Y0081285D01*
X0042653Y0080051D02*
X0038950Y0080051D01*
X0038950Y0081285D02*
X0038950Y0078816D01*
X0039567Y0077602D02*
X0042036Y0077602D01*
X0042653Y0076985D01*
X0042653Y0075750D01*
X0042036Y0075133D01*
X0039567Y0075133D01*
X0038950Y0075750D01*
X0038950Y0076985D01*
X0039567Y0077602D01*
X0041419Y0078816D02*
X0042653Y0080051D01*
X0042036Y0073919D02*
X0041419Y0073919D01*
X0040802Y0073302D01*
X0040802Y0071450D01*
X0042653Y0071450D02*
X0038950Y0071450D01*
X0038950Y0073302D01*
X0039567Y0073919D01*
X0040184Y0073919D01*
X0040802Y0073302D01*
X0042036Y0073919D02*
X0042653Y0073302D01*
X0042653Y0071450D01*
X0032653Y0071450D02*
X0030184Y0071450D01*
X0028950Y0072684D01*
X0030184Y0073919D01*
X0032653Y0073919D01*
X0032653Y0075133D02*
X0031419Y0076368D01*
X0032653Y0077602D01*
X0028950Y0077602D01*
X0029567Y0078816D02*
X0028950Y0079433D01*
X0028950Y0080668D01*
X0029567Y0081285D01*
X0032036Y0081285D01*
X0032653Y0080668D01*
X0032653Y0079433D01*
X0032036Y0078816D01*
X0029567Y0078816D01*
X0028950Y0075133D02*
X0032653Y0075133D01*
X0032653Y0082499D02*
X0032653Y0084968D01*
X0032653Y0083734D02*
X0028950Y0083734D01*
X0022653Y0083734D02*
X0018950Y0083734D01*
X0018950Y0084968D02*
X0018950Y0082499D01*
X0019567Y0081285D02*
X0022036Y0081285D01*
X0022653Y0080668D01*
X0022653Y0078816D01*
X0018950Y0078816D01*
X0018950Y0080668D01*
X0019567Y0081285D01*
X0021419Y0082499D02*
X0022653Y0083734D01*
X0022653Y0077602D02*
X0018950Y0077602D01*
X0022653Y0075133D01*
X0018950Y0075133D01*
X0019567Y0073919D02*
X0020802Y0073919D01*
X0020802Y0072684D01*
X0022036Y0071450D02*
X0019567Y0071450D01*
X0018950Y0072067D01*
X0018950Y0073302D01*
X0019567Y0073919D01*
X0022036Y0073919D02*
X0022653Y0073302D01*
X0022653Y0072067D01*
X0022036Y0071450D01*
X0039434Y0093950D02*
X0038950Y0094434D01*
X0038950Y0095401D01*
X0039434Y0095885D01*
X0039917Y0095885D01*
X0040401Y0095401D01*
X0040401Y0094434D01*
X0040885Y0093950D01*
X0041369Y0093950D01*
X0041852Y0094434D01*
X0041852Y0095401D01*
X0041369Y0095885D01*
X0041852Y0096897D02*
X0038950Y0098831D01*
X0041852Y0098831D01*
X0041852Y0099843D02*
X0041852Y0101778D01*
X0041369Y0101778D01*
X0039434Y0099843D01*
X0038950Y0099843D01*
X0038950Y0096897D02*
X0041852Y0096897D01*
X0040401Y0102790D02*
X0040401Y0104725D01*
X0038950Y0104241D02*
X0041852Y0104241D01*
X0040401Y0102790D01*
X0038950Y0105736D02*
X0038950Y0107671D01*
X0038950Y0108950D02*
X0038950Y0110802D01*
X0039567Y0111419D01*
X0040184Y0111419D01*
X0040802Y0110802D01*
X0040802Y0108950D01*
X0039917Y0108683D02*
X0038950Y0109650D01*
X0039917Y0110618D01*
X0041852Y0110618D01*
X0042036Y0111419D02*
X0041419Y0111419D01*
X0040802Y0110802D01*
X0041369Y0111629D02*
X0039434Y0111629D01*
X0038950Y0112113D01*
X0038950Y0113080D01*
X0039434Y0113564D01*
X0038950Y0113868D02*
X0038950Y0112633D01*
X0038950Y0113250D02*
X0042653Y0113250D01*
X0042653Y0112633D02*
X0042653Y0113868D01*
X0041852Y0113080D02*
X0041852Y0112113D01*
X0041369Y0111629D01*
X0042036Y0111419D02*
X0042653Y0110802D01*
X0042653Y0108950D01*
X0038950Y0108950D01*
X0039917Y0108683D02*
X0041852Y0108683D01*
X0041852Y0105736D02*
X0038950Y0105736D01*
X0041852Y0113080D02*
X0041369Y0113564D01*
X0041369Y0114576D02*
X0041852Y0115059D01*
X0041852Y0116027D01*
X0041369Y0116511D01*
X0040885Y0116511D01*
X0038950Y0114576D01*
X0038950Y0116511D01*
X0038950Y0117557D02*
X0042653Y0117557D01*
X0041852Y0118006D02*
X0041369Y0117522D01*
X0039434Y0117522D01*
X0038950Y0118006D01*
X0038950Y0118973D01*
X0039434Y0119457D01*
X0040401Y0119457D01*
X0040401Y0118490D01*
X0041369Y0119457D02*
X0041852Y0118973D01*
X0041852Y0118006D01*
X0042036Y0118772D02*
X0042653Y0119389D01*
X0042653Y0120623D01*
X0042036Y0121240D01*
X0041419Y0121240D01*
X0038950Y0118772D01*
X0038950Y0121240D01*
X0038950Y0120952D02*
X0039434Y0120469D01*
X0041369Y0122404D01*
X0039434Y0122404D01*
X0038950Y0121920D01*
X0038950Y0120952D01*
X0039434Y0120469D02*
X0041369Y0120469D01*
X0041852Y0120952D01*
X0041852Y0121920D01*
X0041369Y0122404D01*
X0040401Y0123415D02*
X0040401Y0125350D01*
X0038950Y0124866D02*
X0041852Y0124866D01*
X0040401Y0123415D01*
X0038950Y0126362D02*
X0038950Y0127813D01*
X0039434Y0128297D01*
X0041369Y0128297D01*
X0041852Y0127813D01*
X0041852Y0126362D01*
X0038950Y0126362D01*
X0038950Y0129308D02*
X0038950Y0130759D01*
X0039434Y0131243D01*
X0039917Y0131243D01*
X0040401Y0130759D01*
X0040401Y0129308D01*
X0038950Y0129308D02*
X0041852Y0129308D01*
X0041852Y0130759D01*
X0041369Y0131243D01*
X0040885Y0131243D01*
X0040401Y0130759D01*
X0039917Y0132255D02*
X0038950Y0133222D01*
X0039917Y0134190D01*
X0041852Y0134190D01*
X0041852Y0132255D02*
X0039917Y0132255D01*
X0048950Y0121240D02*
X0048950Y0118772D01*
X0048950Y0117557D02*
X0052653Y0117557D01*
X0051419Y0118772D02*
X0052653Y0120006D01*
X0048950Y0120006D01*
X0048950Y0117557D02*
X0052653Y0115089D01*
X0048950Y0115089D01*
X0048950Y0113868D02*
X0048950Y0112633D01*
X0048950Y0113250D02*
X0052653Y0113250D01*
X0052653Y0112633D02*
X0052653Y0113868D01*
X0052036Y0111419D02*
X0051419Y0111419D01*
X0050802Y0110802D01*
X0050802Y0108950D01*
X0052653Y0108950D02*
X0052653Y0110802D01*
X0052036Y0111419D01*
X0050802Y0110802D02*
X0050184Y0111419D01*
X0049567Y0111419D01*
X0048950Y0110802D01*
X0048950Y0108950D01*
X0052653Y0108950D01*
X0058950Y0108302D02*
X0058950Y0107067D01*
X0059567Y0106450D01*
X0060802Y0107067D02*
X0060802Y0108302D01*
X0060184Y0108919D01*
X0059567Y0108919D01*
X0058950Y0108302D01*
X0060802Y0107067D02*
X0061419Y0106450D01*
X0062036Y0106450D01*
X0062653Y0107067D01*
X0062653Y0108302D01*
X0062036Y0108919D01*
X0062653Y0110133D02*
X0062653Y0112602D01*
X0062653Y0113816D02*
X0062653Y0115668D01*
X0062036Y0116285D01*
X0061419Y0116285D01*
X0060802Y0115668D01*
X0060802Y0113816D01*
X0062653Y0113816D02*
X0058950Y0113816D01*
X0058950Y0115668D01*
X0059567Y0116285D01*
X0060184Y0116285D01*
X0060802Y0115668D01*
X0062036Y0117499D02*
X0060802Y0118734D01*
X0058950Y0118734D01*
X0060802Y0118734D02*
X0062036Y0119968D01*
X0062653Y0119968D01*
X0062653Y0117499D02*
X0062036Y0117499D01*
X0062653Y0111368D02*
X0058950Y0111368D01*
X0068950Y0111419D02*
X0071419Y0111419D01*
X0072653Y0110184D01*
X0071419Y0108950D01*
X0068950Y0108950D01*
X0070802Y0108950D02*
X0070802Y0111419D01*
X0072653Y0112633D02*
X0072653Y0113868D01*
X0072653Y0113250D02*
X0068950Y0113250D01*
X0068950Y0112633D02*
X0068950Y0113868D01*
X0068950Y0115089D02*
X0072653Y0115089D01*
X0068950Y0117557D01*
X0072653Y0117557D01*
X0071419Y0118772D02*
X0072653Y0120006D01*
X0068950Y0120006D01*
X0068950Y0118772D02*
X0068950Y0121240D01*
X0078950Y0121240D02*
X0078950Y0118772D01*
X0081419Y0121240D01*
X0082036Y0121240D01*
X0082653Y0120623D01*
X0082653Y0119389D01*
X0082036Y0118772D01*
X0082653Y0117557D02*
X0078950Y0117557D01*
X0082653Y0115089D01*
X0078950Y0115089D01*
X0078950Y0113868D02*
X0078950Y0112633D01*
X0078950Y0113250D02*
X0082653Y0113250D01*
X0082653Y0112633D02*
X0082653Y0113868D01*
X0081419Y0111419D02*
X0078950Y0111419D01*
X0080802Y0111419D02*
X0080802Y0108950D01*
X0081419Y0108950D02*
X0078950Y0108950D01*
X0081419Y0108950D02*
X0082653Y0110184D01*
X0081419Y0111419D01*
X0088950Y0111316D02*
X0092653Y0111316D01*
X0091419Y0112551D01*
X0092653Y0113785D01*
X0088950Y0113785D01*
X0088950Y0114999D02*
X0091419Y0114999D01*
X0092653Y0116234D01*
X0091419Y0117468D01*
X0088950Y0117468D01*
X0090802Y0117468D02*
X0090802Y0114999D01*
X0088950Y0110102D02*
X0092653Y0110102D01*
X0092653Y0107633D02*
X0088950Y0107633D01*
X0090184Y0108868D01*
X0088950Y0110102D01*
X0090802Y0106419D02*
X0090184Y0105802D01*
X0090184Y0103950D01*
X0088950Y0103950D02*
X0092653Y0103950D01*
X0092653Y0105802D01*
X0092036Y0106419D01*
X0090802Y0106419D01*
X0101450Y0107067D02*
X0102067Y0106450D01*
X0101450Y0107067D02*
X0101450Y0108302D01*
X0102067Y0108919D01*
X0103302Y0108919D01*
X0103919Y0108302D01*
X0103919Y0107684D01*
X0103302Y0106450D01*
X0105153Y0106450D01*
X0105153Y0108919D01*
X0105153Y0110133D02*
X0102684Y0110133D01*
X0101450Y0111368D01*
X0102684Y0112602D01*
X0105153Y0112602D01*
X0104536Y0116450D02*
X0102067Y0116450D01*
X0101450Y0117067D01*
X0101450Y0118302D01*
X0102067Y0118919D01*
X0103302Y0118919D01*
X0103302Y0117684D01*
X0104536Y0116450D02*
X0105153Y0117067D01*
X0105153Y0118302D01*
X0104536Y0118919D01*
X0105153Y0120133D02*
X0101450Y0122602D01*
X0105153Y0122602D01*
X0105153Y0123816D02*
X0105153Y0125668D01*
X0104536Y0126285D01*
X0102067Y0126285D01*
X0101450Y0125668D01*
X0101450Y0123816D01*
X0105153Y0123816D01*
X0105153Y0120133D02*
X0101450Y0120133D01*
X0042653Y0115089D02*
X0038950Y0117557D01*
X0038950Y0115089D02*
X0042653Y0115089D01*
X0032653Y0114999D02*
X0032653Y0116851D01*
X0032036Y0117468D01*
X0031419Y0117468D01*
X0030802Y0116851D01*
X0030802Y0114999D01*
X0032653Y0114999D02*
X0028950Y0114999D01*
X0028950Y0116851D01*
X0029567Y0117468D01*
X0030184Y0117468D01*
X0030802Y0116851D01*
X0032653Y0113785D02*
X0028950Y0113785D01*
X0028950Y0111316D02*
X0032653Y0111316D01*
X0031419Y0112551D01*
X0032653Y0113785D01*
X0032653Y0110102D02*
X0028950Y0110102D01*
X0030184Y0108868D01*
X0028950Y0107633D01*
X0032653Y0107633D01*
X0032036Y0106419D02*
X0030802Y0106419D01*
X0030184Y0105802D01*
X0030184Y0103950D01*
X0028950Y0103950D02*
X0032653Y0103950D01*
X0032653Y0105802D01*
X0032036Y0106419D01*
X0022653Y0107067D02*
X0022036Y0106450D01*
X0019567Y0106450D01*
X0018950Y0107067D01*
X0018950Y0108302D01*
X0019567Y0108919D01*
X0020802Y0108919D01*
X0020802Y0107684D01*
X0022036Y0108919D02*
X0022653Y0108302D01*
X0022653Y0107067D01*
X0022653Y0110133D02*
X0018950Y0112602D01*
X0022653Y0112602D01*
X0022653Y0113816D02*
X0022653Y0115668D01*
X0022036Y0116285D01*
X0019567Y0116285D01*
X0018950Y0115668D01*
X0018950Y0113816D01*
X0022653Y0113816D01*
X0022653Y0110133D02*
X0018950Y0110133D01*
X0018950Y0117499D02*
X0021419Y0119968D01*
X0022036Y0119968D01*
X0022653Y0119351D01*
X0022653Y0118117D01*
X0022036Y0117499D01*
X0018950Y0117499D02*
X0018950Y0119968D01*
D14*
X0040902Y0098604D02*
X0040135Y0097837D01*
X0040902Y0098604D02*
X0042437Y0098604D01*
X0043204Y0097837D01*
X0043204Y0094767D01*
X0042437Y0094000D01*
X0040902Y0094000D01*
X0040135Y0094767D01*
X0040135Y0096302D01*
X0041669Y0096302D01*
X0044739Y0094000D02*
X0044739Y0098604D01*
X0047808Y0098604D02*
X0044739Y0094000D01*
X0047808Y0094000D02*
X0047808Y0098604D01*
X0049343Y0098604D02*
X0052412Y0098604D01*
X0052412Y0094000D01*
X0053947Y0094000D02*
X0057016Y0094000D01*
X0053947Y0097069D01*
X0053947Y0097837D01*
X0054714Y0098604D01*
X0056248Y0098604D01*
X0057016Y0097837D01*
X0058550Y0094000D02*
X0061620Y0094000D01*
X0060085Y0094000D02*
X0060085Y0098604D01*
X0061620Y0097069D01*
X0063154Y0095535D02*
X0063922Y0096302D01*
X0066224Y0096302D01*
X0066224Y0094767D01*
X0065456Y0094000D01*
X0063922Y0094000D01*
X0063154Y0094767D01*
X0063154Y0095535D01*
X0064689Y0097837D02*
X0066224Y0096302D01*
X0064689Y0097837D02*
X0063154Y0098604D01*
X0067758Y0098604D02*
X0069293Y0097837D01*
X0070828Y0096302D01*
X0068526Y0096302D01*
X0067758Y0095535D01*
X0067758Y0094767D01*
X0068526Y0094000D01*
X0070060Y0094000D01*
X0070828Y0094767D01*
X0070828Y0096302D01*
X0072362Y0097069D02*
X0073130Y0096302D01*
X0075431Y0096302D01*
X0073130Y0096302D02*
X0072362Y0095535D01*
X0072362Y0094767D01*
X0073130Y0094000D01*
X0075431Y0094000D01*
X0075431Y0098604D01*
X0073130Y0098604D01*
X0072362Y0097837D01*
X0072362Y0097069D01*
X0076966Y0098604D02*
X0080035Y0098604D01*
X0078501Y0098604D02*
X0078501Y0094000D01*
X0052412Y0096302D02*
X0050877Y0096302D01*
D15*
X0048109Y0095503D02*
X0054491Y0095503D01*
X0060400Y0095251D02*
X0060400Y0094150D01*
X0060400Y0094700D02*
X0063703Y0094700D01*
X0063703Y0094150D02*
X0063703Y0095251D01*
X0063152Y0096605D02*
X0063703Y0097156D01*
X0063703Y0098257D01*
X0063152Y0098807D01*
X0063152Y0100289D02*
X0063703Y0100839D01*
X0063703Y0101940D01*
X0063152Y0102490D01*
X0062602Y0102490D01*
X0062051Y0101940D01*
X0061501Y0102490D01*
X0060950Y0102490D01*
X0060400Y0101940D01*
X0060400Y0100839D01*
X0060950Y0100289D01*
X0060950Y0098807D02*
X0060400Y0098257D01*
X0060400Y0097156D01*
X0060950Y0096605D01*
X0063152Y0096605D01*
X0062051Y0101390D02*
X0062051Y0101940D01*
X0054491Y0107097D02*
X0048109Y0107097D01*
D16*
X0050247Y0097550D03*
D17*
X0026536Y0133583D02*
X0106064Y0133583D01*
X0106064Y0169017D01*
X0074961Y0169017D01*
X0074961Y0163111D01*
X0057639Y0163111D01*
X0057639Y0169017D01*
X0026536Y0169017D01*
X0026536Y0133977D01*
X0043800Y0162225D02*
X0048800Y0162225D01*
X0057639Y0169017D02*
X0074961Y0169017D01*
X0108800Y0126300D02*
X0106300Y0123800D01*
X0106300Y0118800D01*
X0108800Y0116300D01*
X0106300Y0113800D01*
X0106300Y0108800D01*
X0108800Y0106300D01*
X0113800Y0106300D01*
X0116300Y0108800D01*
X0116300Y0113800D01*
X0113800Y0116300D01*
X0116300Y0118800D01*
X0116300Y0123800D01*
X0113800Y0126300D01*
X0108800Y0126300D01*
X0108800Y0086300D02*
X0106300Y0083800D01*
X0106300Y0078800D01*
X0108800Y0076300D01*
X0106300Y0073800D01*
X0106300Y0068800D01*
X0108800Y0066300D01*
X0113800Y0066300D01*
X0116300Y0068800D01*
X0116300Y0073800D01*
X0113800Y0076300D01*
X0116300Y0078800D01*
X0116300Y0083800D01*
X0113800Y0086300D01*
X0108800Y0086300D01*
M02*
