%
M48
M72
T01C0.01378
T02C0.03150
T03C0.04000
T04C0.04331
T05C0.10000
%
T01
X51700Y97600
X41200Y101200
T02
X21300Y66300
X31300Y66300
X41300Y66300
X51300Y66300
X61300Y66300
X71300Y66300
X81300Y66300
X91300Y66300
X91300Y126300
X81300Y126300
X71300Y126300
X61300Y126300
X51300Y126300
X41300Y126300
X31300Y126300
X21300Y126300
T03
X91300Y36800
X91300Y46800
X101300Y45800
X101300Y35800
X111300Y36800
X111300Y46800
X111300Y70600
X111300Y82000
X111300Y110600
X111300Y122000
X86300Y145800
X86300Y156800
X76300Y156800
X76300Y145800
X66300Y145800
X66300Y156800
X56300Y156800
X56300Y145800
X46300Y145800
X46300Y156800
T04
X49300Y21300
X59300Y21300
X69300Y21300
X79300Y21300
X79300Y41300
X69300Y41300
X59300Y41300
X49300Y41300
T05
X16300Y156300
X116300Y156300
X116300Y16300
X16300Y16300
M30
