  0
SECTION
  2
HEADER
  9
$ACADVER
  1
AC1009
  9
$DWGCODEPAGE
  3
mac-roman
  9
$INSBASE
 10
0.0
 20
0.0
 30
0.0
  9
$EXTMIN
 10
-4134.761766295953
 20
142.2815476598728
 30
0.0
  9
$EXTMAX
 10
-2991.761766295953
 20
980.2815476598728
 30
0.0
  9
$LIMMIN
 10
0.0
 20
0.0
  9
$LIMMAX
 10
12.0
 20
9.0
  9
$ORTHOMODE
 70
     0
  9
$REGENMODE
 70
     1
  9
$FILLMODE
 70
     1
  9
$QTEXTMODE
 70
     0
  9
$MIRRTEXT
 70
     1
  9
$DRAGMODE
 70
     2
  9
$LTSCALE
 40
1.0
  9
$OSMODE
 70
    37
  9
$ATTMODE
 70
     1
  9
$TEXTSIZE
 40
0.2
  9
$TRACEWID
 40
0.05
  9
$TEXTSTYLE
  7
STANDARD
  9
$CLAYER
  8
0
  9
$CELTYPE
  6
BYLAYER
  9
$CECOLOR
 62
   256
  9
$DIMSCALE
 40
1.0
  9
$DIMASZ
 40
0.18
  9
$DIMEXO
 40
0.0625
  9
$DIMDLI
 40
0.38
  9
$DIMRND
 40
0.0
  9
$DIMDLE
 40
0.0
  9
$DIMEXE
 40
0.18
  9
$DIMTP
 40
0.0
  9
$DIMTM
 40
0.0
  9
$DIMTXT
 40
0.18
  9
$DIMCEN
 40
0.09
  9
$DIMTSZ
 40
0.0
  9
$DIMTOL
 70
     0
  9
$DIMLIM
 70
     0
  9
$DIMTIH
 70
     1
  9
$DIMTOH
 70
     1
  9
$DIMSE1
 70
     0
  9
$DIMSE2
 70
     0
  9
$DIMTAD
 70
     0
  9
$DIMZIN
 70
     0
  9
$DIMBLK
  1

  9
$DIMASO
 70
     1
  9
$DIMSHO
 70
     1
  9
$DIMPOST
  1

  9
$DIMAPOST
  1

  9
$DIMALT
 70
     0
  9
$DIMALTD
 70
     2
  9
$DIMALTF
 40
25.4
  9
$DIMLFAC
 40
1.0
  9
$DIMTOFL
 70
     0
  9
$DIMTVP
 40
0.0
  9
$DIMTIX
 70
     0
  9
$DIMSOXD
 70
     0
  9
$DIMSAH
 70
     0
  9
$DIMBLK1
  1

  9
$DIMBLK2
  1

  9
$DIMSTYLE
  2
STANDARD
  9
$DIMCLRD
 70
     0
  9
$DIMCLRE
 70
     0
  9
$DIMCLRT
 70
     0
  9
$DIMTFAC
 40
1.0
  9
$DIMGAP
 40
0.09
  9
$LUNITS
 70
     2
  9
$LUPREC
 70
     3
  9
$SKETCHINC
 40
0.1
  9
$FILLETRAD
 40
0.5
  9
$AUNITS
 70
     0
  9
$AUPREC
 70
     0
  9
$MENU
  1
.
  9
$ELEVATION
 40
0.0
  9
$PELEVATION
 40
0.0
  9
$THICKNESS
 40
0.0
  9
$LIMCHECK
 70
     0
  9
$CHAMFERA
 40
0.0
  9
$CHAMFERB
 40
0.0
  9
$SKPOLY
 70
     0
  9
$TDCREATE
 40
2457842.586296296
  9
$TDUPDATE
 40
2457842.58630787
  9
$TDINDWG
 40
0.0000000116
  9
$TDUSRTIMER
 40
0.0000000116
  9
$USRTIMER
 70
     1
  9
$ANGBASE
 50
0.0
  9
$ANGDIR
 70
     0
  9
$PDMODE
 70
     0
  9
$PDSIZE
 40
0.0
  9
$PLINEWID
 40
0.0
  9
$COORDS
 70
     1
  9
$SPLFRAME
 70
     0
  9
$SPLINETYPE
 70
     6
  9
$SPLINESEGS
 70
     8
  9
$ATTDIA
 70
     0
  9
$ATTREQ
 70
     1
  9
$HANDLING
 70
     1
  9
$HANDSEED
  5
581
  9
$SURFTAB1
 70
     6
  9
$SURFTAB2
 70
     6
  9
$SURFTYPE
 70
     6
  9
$SURFU
 70
     6
  9
$SURFV
 70
     6
  9
$UCSNAME
  2

  9
$UCSORG
 10
0.0
 20
0.0
 30
0.0
  9
$UCSXDIR
 10
1.0
 20
0.0
 30
0.0
  9
$UCSYDIR
 10
0.0
 20
1.0
 30
0.0
  9
$PUCSNAME
  2

  9
$PUCSORG
 10
0.0
 20
0.0
 30
0.0
  9
$PUCSXDIR
 10
1.0
 20
0.0
 30
0.0
  9
$PUCSYDIR
 10
0.0
 20
1.0
 30
0.0
  9
$USERI1
 70
     0
  9
$USERI2
 70
     0
  9
$USERI3
 70
     0
  9
$USERI4
 70
     0
  9
$USERI5
 70
     0
  9
$USERR1
 40
0.0
  9
$USERR2
 40
0.0
  9
$USERR3
 40
0.0
  9
$USERR4
 40
0.0
  9
$USERR5
 40
0.0
  9
$WORLDVIEW
 70
     1
  9
$SHADEDGE
 70
     3
  9
$SHADEDIF
 70
    70
  9
$TILEMODE
 70
     1
  9
$MAXACTVP
 70
    64
  9
$PLIMCHECK
 70
     0
  9
$PEXTMIN
 10
1.000000000000000E+20
 20
1.000000000000000E+20
 30
1.000000000000000E+20
  9
$PEXTMAX
 10
-1.000000000000000E+20
 20
-1.000000000000000E+20
 30
-1.000000000000000E+20
  9
$PLIMMIN
 10
0.0
 20
0.0
  9
$PLIMMAX
 10
12.0
 20
9.0
  9
$UNITMODE
 70
     0
  9
$VISRETAIN
 70
     1
  9
$PLINEGEN
 70
     0
  9
$PSLTSCALE
 70
     1
  0
ENDSEC
  0
SECTION
  2
TABLES
  0
TABLE
  2
VPORT
 70
     1
  0
VPORT
  2
*ACTIVE
 70
     0
 10
0.0
 20
0.0
 11
1.0
 21
1.0
 12
-3563.261766295953
 22
561.2815476598728
 13
0.0
 23
0.0
 14
0.5
 24
0.5
 15
0.5
 25
0.5
 16
0.0
 26
0.0
 36
1.0
 17
0.0
 27
0.0
 37
0.0
 40
854.76
 41
1.363961813842482
 42
50.0
 43
0.0
 44
0.0
 50
0.0
 51
0.0
 71
     0
 72
   100
 73
     1
 74
     3
 75
     0
 76
     0
 77
     0
 78
     0
  0
ENDTAB
  0
TABLE
  2
LTYPE
 70
     1
  0
LTYPE
  2
CONTINUOUS
 70
     0
  3
Solid line
 72
    65
 73
     0
 40
0.0
  0
ENDTAB
  0
TABLE
  2
LAYER
 70
     2
  0
LAYER
  2
0
 70
     0
 62
     7
  6
CONTINUOUS
  0
LAYER
  2
FAB_2$_CUT_2
 70
     0
 62
     1
  6
CONTINUOUS
  0
ENDTAB
  0
TABLE
  2
STYLE
 70
     1
  0
STYLE
  2
STANDARD
 70
     0
 40
0.0
 41
1.0
 50
0.0
 71
     0
 42
0.2
  3
txt
  4

  0
ENDTAB
  0
TABLE
  2
VIEW
 70
     0
  0
ENDTAB
  0
TABLE
  2
UCS
 70
     0
  0
ENDTAB
  0
TABLE
  2
APPID
 70
     1
  0
APPID
  2
ACAD
 70
     0
  0
ENDTAB
  0
TABLE
  2
DIMSTYLE
 70
     1
  0
DIMSTYLE
  2
STANDARD
 70
     0
  3

  4

  5

  6

  7

 40
1.0
 41
0.18
 42
0.0625
 43
0.38
 44
0.18
 45
0.0
 46
0.0
 47
0.0
 48
0.0
140
0.18
141
0.09
142
0.0
143
25.4
144
1.0
145
0.0
146
1.0
147
0.09
 71
     0
 72
     0
 73
     1
 74
     1
 75
     0
 76
     0
 77
     0
 78
     0
170
     0
171
     2
172
     0
173
     0
174
     0
175
     0
176
     0
177
     0
178
     0
  0
ENDTAB
  0
ENDSEC
  0
SECTION
  2
BLOCKS
  0
BLOCK
  8
0
  2
$MODEL_SPACE
 70
     0
 10
0.0
 20
0.0
 30
0.0
  3
$MODEL_SPACE
  1

  0
ENDBLK
  5
21
  8
0
  0
BLOCK
 67
     1
  8
0
  2
$PAPER_SPACE
 70
     0
 10
0.0
 20
0.0
 30
0.0
  3
$PAPER_SPACE
  1

  0
ENDBLK
  5
1D
 67
     1
  8
0
  0
ENDSEC
  0
SECTION
  2
ENTITIES
  0
POLYLINE
  5
6F
  8
FAB_2$_CUT_2
 66
     1
 10
0.0
 20
0.0
 30
0.0
 70
     1
  0
VERTEX
  5
70
  8
FAB_2$_CUT_2
 10
-3868.527685845727
 20
176.4588628525851
 30
0.0
  0
VERTEX
  5
71
  8
FAB_2$_CUT_2
 10
-3868.049664191384
 20
177.6354661408603
 30
0.0
  0
VERTEX
  5
72
  8
FAB_2$_CUT_2
 10
-3865.696457614833
 20
176.679422832174
 30
0.0
  0
VERTEX
  5
73
  8
FAB_2$_CUT_2
 10
-3866.174479269177
 20
175.5028195438993
 30
0.0
  0
SEQEND
  5
74
  8
FAB_2$_CUT_2
  0
POLYLINE
  5
75
  8
FAB_2$_CUT_2
 66
     1
 10
0.0
 20
0.0
 30
0.0
 70
     1
  0
VERTEX
  5
76
  8
FAB_2$_CUT_2
 10
-3866.259909834741
 20
182.4108966597012
 30
0.0
  0
VERTEX
  5
77
  8
FAB_2$_CUT_2
 10
-3863.867143126375
 20
181.5586833769278
 30
0.0
  0
VERTEX
  5
78
  8
FAB_2$_CUT_2
 10
-3864.293249767762
 20
180.3623000227447
 30
0.0
  0
VERTEX
  5
79
  8
FAB_2$_CUT_2
 10
-3866.686016476128
 20
181.2145133055186
 30
0.0
  0
SEQEND
  5
7A
  8
FAB_2$_CUT_2
  0
POLYLINE
  5
7B
  8
FAB_2$_CUT_2
 66
     1
 10
0.0
 20
0.0
 30
0.0
 70
     1
  0
VERTEX
  5
7C
  8
FAB_2$_CUT_2
 10
-3972.110512794496
 20
239.6578298816819
 30
0.0
  0
VERTEX
  5
7D
  8
FAB_2$_CUT_2
 10
-3971.301817313632
 20
240.637070209298
 30
0.0
  0
VERTEX
  5
7E
  8
FAB_2$_CUT_2
 10
-3969.343336658399
 20
239.0196792475693
 30
0.0
  0
VERTEX
  5
7F
  8
FAB_2$_CUT_2
 10
-3970.152032139264
 20
238.0404389199533
 30
0.0
  0
SEQEND
  5
80
  8
FAB_2$_CUT_2
  0
POLYLINE
  5
81
  8
FAB_2$_CUT_2
 66
     1
 10
0.0
 20
0.0
 30
0.0
 70
     1
  0
VERTEX
  5
82
  8
FAB_2$_CUT_2
 10
-3939.620296194757
 20
215.4661977507683
 30
0.0
  0
VERTEX
  5
83
  8
FAB_2$_CUT_2
 10
-3938.876453420204
 20
216.4955654823128
 30
0.0
  0
VERTEX
  5
84
  8
FAB_2$_CUT_2
 10
-3936.817717957115
 20
215.0078799332076
 30
0.0
  0
VERTEX
  5
85
  8
FAB_2$_CUT_2
 10
-3937.561560731667
 20
213.9785122016627
 30
0.0
  0
SEQEND
  5
86
  8
FAB_2$_CUT_2
  0
POLYLINE
  5
87
  8
FAB_2$_CUT_2
 66
     1
 10
0.0
 20
0.0
 30
0.0
 70
     1
  0
VERTEX
  5
88
  8
FAB_2$_CUT_2
 10
-3829.173511848755
 20
167.6470705147024
 30
0.0
  0
VERTEX
  5
89
  8
FAB_2$_CUT_2
 10
-3829.152689278572
 20
168.9168998026665
 30
0.0
  0
VERTEX
  5
8A
  8
FAB_2$_CUT_2
 10
-3826.613030702644
 20
168.8752546623007
 30
0.0
  0
VERTEX
  5
8B
  8
FAB_2$_CUT_2
 10
-3826.633853272827
 20
167.6054253743367
 30
0.0
  0
SEQEND
  5
8C
  8
FAB_2$_CUT_2
  0
POLYLINE
  5
8D
  8
FAB_2$_CUT_2
 66
     1
 10
0.0
 20
0.0
 30
0.0
 70
     1
  0
VERTEX
  5
8E
  8
FAB_2$_CUT_2
 10
-3789.384636020235
 20
175.4835147073935
 30
0.0
  0
VERTEX
  5
8F
  8
FAB_2$_CUT_2
 10
-3789.828839234573
 20
176.6732976726324
 30
0.0
  0
VERTEX
  5
90
  8
FAB_2$_CUT_2
 10
-3787.449273304095
 20
177.5617041013073
 30
0.0
  0
VERTEX
  5
91
  8
FAB_2$_CUT_2
 10
-3787.005070089758
 20
176.3719211360688
 30
0.0
  0
SEQEND
  5
92
  8
FAB_2$_CUT_2
  0
POLYLINE
  5
93
  8
FAB_2$_CUT_2
 66
     1
 10
0.0
 20
0.0
 30
0.0
 70
     1
  0
VERTEX
  5
94
  8
FAB_2$_CUT_2
 10
-3968.172886604561
 20
244.6413364708204
 30
0.0
  0
VERTEX
  5
95
  8
FAB_2$_CUT_2
 10
-3966.14636881743
 20
243.1100541133044
 30
0.0
  0
VERTEX
  5
96
  8
FAB_2$_CUT_2
 10
-3966.912009996188
 20
242.0967952197382
 30
0.0
  0
VERTEX
  5
97
  8
FAB_2$_CUT_2
 10
-3968.938527783319
 20
243.6280775772541
 30
0.0
  0
SEQEND
  5
98
  8
FAB_2$_CUT_2
  0
POLYLINE
  5
99
  8
FAB_2$_CUT_2
 66
     1
 10
0.0
 20
0.0
 30
0.0
 70
     1
  0
VERTEX
  5
9A
  8
FAB_2$_CUT_2
 10
-3936.003517576584
 20
220.709138424111
 30
0.0
  0
VERTEX
  5
9B
  8
FAB_2$_CUT_2
 10
-3933.881689357336
 20
219.3129131528888
 30
0.0
  0
VERTEX
  5
9C
  8
FAB_2$_CUT_2
 10
-3934.579801992947
 20
218.2519990432637
 30
0.0
  0
VERTEX
  5
9D
  8
FAB_2$_CUT_2
 10
-3936.701630212196
 20
219.6482243144863
 30
0.0
  0
SEQEND
  5
9E
  8
FAB_2$_CUT_2
  0
POLYLINE
  5
9F
  8
FAB_2$_CUT_2
 66
     1
 10
0.0
 20
0.0
 30
0.0
 70
     1
  0
VERTEX
  5
A0
  8
FAB_2$_CUT_2
 10
-3829.309281371921
 20
174.2256824254258
 30
0.0
  0
VERTEX
  5
A1
  8
FAB_2$_CUT_2
 10
-3826.773503512255
 20
174.3720745236713
 30
0.0
  0
VERTEX
  5
A2
  8
FAB_2$_CUT_2
 10
-3826.700307463132
 20
173.1041855938386
 30
0.0
  0
VERTEX
  5
A3
  8
FAB_2$_CUT_2
 10
-3829.236085322798
 20
172.9577934955935
 30
0.0
  0
SEQEND
  5
A4
  8
FAB_2$_CUT_2
  0
POLYLINE
  5
A5
  8
FAB_2$_CUT_2
 66
     1
 10
0.0
 20
0.0
 30
0.0
 70
     1
  0
VERTEX
  5
A6
  8
FAB_2$_CUT_2
 10
-3791.827985997335
 20
181.4444838273697
 30
0.0
  0
VERTEX
  5
A7
  8
FAB_2$_CUT_2
 10
-3789.50945202997
 20
182.4817881424945
 30
0.0
  0
VERTEX
  5
A8
  8
FAB_2$_CUT_2
 10
-3788.990799872407
 20
181.3225211588127
 30
0.0
  0
VERTEX
  5
A9
  8
FAB_2$_CUT_2
 10
-3791.309333839772
 20
180.2852168436869
 30
0.0
  0
SEQEND
  5
AA
  8
FAB_2$_CUT_2
  0
POLYLINE
  5
AB
  8
FAB_2$_CUT_2
 66
     1
 10
0.0
 20
0.0
 30
0.0
 70
     1
  0
VERTEX
  5
AC
  8
FAB_2$_CUT_2
 10
-3759.108632726848
 20
196.2824204775669
 30
0.0
  0
VERTEX
  5
AD
  8
FAB_2$_CUT_2
 10
-3760.03192679346
 20
197.1544457447242
 30
0.0
  0
VERTEX
  5
AE
  8
FAB_2$_CUT_2
 10
-3758.287876259145
 20
199.0010338779464
 30
0.0
  0
VERTEX
  5
AF
  8
FAB_2$_CUT_2
 10
-3757.364582192533
 20
198.1290086107891
 30
0.0
  0
SEQEND
  5
B0
  8
FAB_2$_CUT_2
  0
POLYLINE
  5
B1
  8
FAB_2$_CUT_2
 66
     1
 10
0.0
 20
0.0
 30
0.0
 70
     1
  0
VERTEX
  5
B2
  8
FAB_2$_CUT_2
 10
-3763.710410897529
 20
200.5354281905155
 30
0.0
  0
VERTEX
  5
B3
  8
FAB_2$_CUT_2
 10
-3762.006719258257
 20
202.4193164033011
 30
0.0
  0
VERTEX
  5
B4
  8
FAB_2$_CUT_2
 10
-3761.064775151864
 20
201.5674705836653
 30
0.0
  0
VERTEX
  5
B5
  8
FAB_2$_CUT_2
 10
-3762.768466791136
 20
199.6835823708792
 30
0.0
  0
SEQEND
  5
B6
  8
FAB_2$_CUT_2
  0
LINE
  5
B7
  8
FAB_2$_CUT_2
 10
-4011.49400651687
 20
261.2627480035479
 30
0.0
 11
-3998.904561544862
 21
249.8388311928928
 31
0.0
  0
LINE
  5
B8
  8
FAB_2$_CUT_2
 10
-3995.082302234273
 20
280.5585757692796
 30
0.0
 11
-3982.492857262264
 21
269.1346589586245
 31
0.0
  0
POLYLINE
  5
B9
  8
FAB_2$_CUT_2
 66
     1
 10
0.0
 20
0.0
 30
0.0
 70
     1
  0
VERTEX
  5
BA
  8
FAB_2$_CUT_2
 10
-3998.632718448308
 20
261.4272314657113
 30
0.0
  0
VERTEX
  5
BB
  8
FAB_2$_CUT_2
 10
-3997.779284663041
 20
262.3677370606786
 30
0.0
  0
VERTEX
  5
BC
  8
FAB_2$_CUT_2
 10
-3995.898273473105
 20
260.6608694901454
 30
0.0
  0
VERTEX
  5
BD
  8
FAB_2$_CUT_2
 10
-3996.751707258372
 20
259.7203638951781
 30
0.0
  0
SEQEND
  5
BE
  8
FAB_2$_CUT_2
  0
POLYLINE
  5
BF
  8
FAB_2$_CUT_2
 66
     1
 10
0.0
 20
0.0
 30
0.0
 70
     1
  0
VERTEX
  5
C0
  8
FAB_2$_CUT_2
 10
-3994.364871304245
 20
266.1305068536238
 30
0.0
  0
VERTEX
  5
C1
  8
FAB_2$_CUT_2
 10
-3992.48386011431
 20
264.4236392830906
 30
0.0
  0
VERTEX
  5
C2
  8
FAB_2$_CUT_2
 10
-3993.337293899577
 20
263.4831336881223
 30
0.0
  0
VERTEX
  5
C3
  8
FAB_2$_CUT_2
 10
-3995.218305089512
 20
265.1900012586555
 30
0.0
  0
SEQEND
  5
C4
  8
FAB_2$_CUT_2
  0
POLYLINE
  5
C5
  8
FAB_2$_CUT_2
 66
     1
 10
0.0
 20
0.0
 30
0.0
  0
VERTEX
  5
C6
  8
FAB_2$_CUT_2
 10
-4009.451694232466
 20
291.9545448400452
 30
0.0
  0
VERTEX
  5
C7
  8
FAB_2$_CUT_2
 10
-4009.438984434058
 20
291.9688958492479
 30
0.0
  0
VERTEX
  5
C8
  8
FAB_2$_CUT_2
 10
-4009.426569360499
 20
291.9836171157401
 30
0.0
  0
VERTEX
  5
C9
  8
FAB_2$_CUT_2
 10
-4009.414464330142
 20
291.9987000548828
 30
0.0
  0
VERTEX
  5
CA
  8
FAB_2$_CUT_2
 10
-4009.402684353456
 20
292.0141352678799
 30
0.0
  0
VERTEX
  5
CB
  8
FAB_2$_CUT_2
 10
-4009.391244080351
 20
292.0299125538077
 30
0.0
  0
VERTEX
  5
CC
  8
FAB_2$_CUT_2
 10
-4009.380157747911
 20
292.046020925658
 30
0.0
  0
VERTEX
  5
CD
  8
FAB_2$_CUT_2
 10
-4009.369439128871
 20
292.0624486303937
 30
0.0
  0
VERTEX
  5
CE
  8
FAB_2$_CUT_2
 10
-4009.359101481213
 20
292.0791831729911
 30
0.0
  0
VERTEX
  5
CF
  8
FAB_2$_CUT_2
 10
-4009.349157499224
 20
292.0962113443996
 30
0.0
  0
VERTEX
  5
D0
  8
FAB_2$_CUT_2
 10
-4009.33961926636
 20
292.1135192533187
 30
0.0
  0
VERTEX
  5
D1
  8
FAB_2$_CUT_2
 10
-4009.330498210282
 20
292.1310923616533
 30
0.0
  0
VERTEX
  5
D2
  8
FAB_2$_CUT_2
 10
-4009.321805060374
 20
292.1489155234762
 30
0.0
  0
VERTEX
  5
D3
  8
FAB_2$_CUT_2
 10
-4009.313549808063
 20
292.1669730272881
 30
0.0
  0
VERTEX
  5
D4
  8
FAB_2$_CUT_2
 10
-4009.30574167026
 20
292.1852486413412
 30
0.0
  0
VERTEX
  5
D5
  8
FAB_2$_CUT_2
 10
-4009.298389056141
 20
292.2037256617527
 30
0.0
  0
VERTEX
  5
D6
  8
FAB_2$_CUT_2
 10
-4009.291499537575
 20
292.2223869631159
 30
0.0
  0
VERTEX
  5
D7
  8
FAB_2$_CUT_2
 10
-4009.285079823373
 20
292.2412150512873
 30
0.0
  0
VERTEX
  5
D8
  8
FAB_2$_CUT_2
 10
-4009.279135737547
 20
292.2601921180091
 30
0.0
  0
VERTEX
  5
D9
  8
FAB_2$_CUT_2
 10
-4009.273672201742
 20
292.2793000970097
 30
0.0
  0
VERTEX
  5
DA
  8
FAB_2$_CUT_2
 10
-4009.268693221938
 20
292.2985207212116
 30
0.0
  0
VERTEX
  5
DB
  8
FAB_2$_CUT_2
 10
-4009.264201879491
 20
292.3178355806655
 30
0.0
  0
VERTEX
  5
DC
  8
FAB_2$_CUT_2
 10
-4009.260200326572
 20
292.3372261808304
 30
0.0
  0
VERTEX
  5
DD
  8
FAB_2$_CUT_2
 10
-4009.256689785967
 20
292.3566740008105
 30
0.0
  0
VERTEX
  5
DE
  8
FAB_2$_CUT_2
 10
-4009.25367055523
 20
292.3761605511742
 30
0.0
  0
VERTEX
  5
DF
  8
FAB_2$_CUT_2
 10
-4009.251142015078
 20
292.3956674309791
 30
0.0
  0
VERTEX
  5
E0
  8
FAB_2$_CUT_2
 10
-4009.249102641944
 20
292.4151763836479
 30
0.0
  0
VERTEX
  5
E1
  8
FAB_2$_CUT_2
 10
-4009.247550024515
 20
292.4346693513482
 30
0.0
  0
VERTEX
  5
E2
  8
FAB_2$_CUT_2
 10
-4009.246480884095
 20
292.4541285275567
 30
0.0
  0
VERTEX
  5
E3
  8
FAB_2$_CUT_2
 10
-4009.245891098559
 20
292.473536407503
 30
0.0
  0
VERTEX
  5
E4
  8
FAB_2$_CUT_2
 10
-4009.245775729706
 20
292.4928758362219
 30
0.0
  0
VERTEX
  5
E5
  8
FAB_2$_CUT_2
 10
-4009.246129053696
 20
292.5121300539621
 30
0.0
  0
VERTEX
  5
E6
  8
FAB_2$_CUT_2
 10
-4009.24694459436
 20
292.5312827387377
 30
0.0
  0
VERTEX
  5
E7
  8
FAB_2$_CUT_2
 10
-4009.248222424381
 20
292.5504101429299
 30
0.0
  0
VERTEX
  5
E8
  8
FAB_2$_CUT_2
 10
-4009.249970786461
 20
292.5695880721369
 30
0.0
  0
VERTEX
  5
E9
  8
FAB_2$_CUT_2
 10
-4009.252194338319
 20
292.5887995955089
 30
0.0
  0
VERTEX
  5
EA
  8
FAB_2$_CUT_2
 10
-4009.254896942091
 20
292.6080274290803
 30
0.0
  0
VERTEX
  5
EB
  8
FAB_2$_CUT_2
 10
-4009.258081635868
 20
292.6272539816965
 30
0.0
  0
VERTEX
  5
EC
  8
FAB_2$_CUT_2
 10
-4009.261750608379
 20
292.6464614034746
 30
0.0
  0
VERTEX
  5
ED
  8
FAB_2$_CUT_2
 10
-4009.265905177056
 20
292.665631636549
 30
0.0
  0
VERTEX
  5
EE
  8
FAB_2$_CUT_2
 10
-4009.270545769712
 20
292.6847464678277
 30
0.0
  0
VERTEX
  5
EF
  8
FAB_2$_CUT_2
 10
-4009.27567191004
 20
292.7037875834637
 30
0.0
  0
VERTEX
  5
F0
  8
FAB_2$_CUT_2
 10
-4009.281282207094
 20
292.7227366247135
 30
0.0
  0
VERTEX
  5
F1
  8
FAB_2$_CUT_2
 10
-4009.287374348912
 20
292.741575244848
 30
0.0
  0
VERTEX
  5
F2
  8
FAB_2$_CUT_2
 10
-4009.293945100387
 20
292.7602851667548
 30
0.0
  0
VERTEX
  5
F3
  8
FAB_2$_CUT_2
 10
-4009.300990305442
 20
292.7788482408628
 30
0.0
  0
VERTEX
  5
F4
  8
FAB_2$_CUT_2
 10
-4009.308504893578
 20
292.7972465030123
 30
0.0
  0
VERTEX
  5
F5
  8
FAB_2$_CUT_2
 10
-4009.31648289077
 20
292.8154622318887
 30
0.0
  0
VERTEX
  5
F6
  8
FAB_2$_CUT_2
 10
-4009.324917434679
 20
292.8334780056344
 30
0.0
  0
VERTEX
  5
F7
  8
FAB_2$_CUT_2
 10
-4009.33380079412
 20
292.8512767572668
 30
0.0
  0
VERTEX
  5
F8
  8
FAB_2$_CUT_2
 10
-4009.343124392637
 20
292.8688418285264
 30
0.0
  0
VERTEX
  5
F9
  8
FAB_2$_CUT_2
 10
-4009.352878836073
 20
292.8861570218044
 30
0.0
  0
VERTEX
  5
FA
  8
FAB_2$_CUT_2
 10
-4009.363053943914
 20
292.903206649807
 30
0.0
  0
VERTEX
  5
FB
  8
FAB_2$_CUT_2
 10
-4009.373638784224
 20
292.9199755826382
 30
0.0
  0
VERTEX
  5
FC
  8
FAB_2$_CUT_2
 10
-4009.384621711892
 20
292.9364492920071
 30
0.0
  0
VERTEX
  5
FD
  8
FAB_2$_CUT_2
 10
-4009.395990409924
 20
292.9526138922916
 30
0.0
  0
VERTEX
  5
FE
  8
FAB_2$_CUT_2
 10
-4009.407731933498
 20
292.9684561782213
 30
0.0
  0
VERTEX
  5
FF
  8
FAB_2$_CUT_2
 10
-4009.419832756435
 20
292.983963658975
 30
0.0
  0
VERTEX
  5
100
  8
FAB_2$_CUT_2
 10
-4009.432278819761
 20
292.9991245885203
 30
0.0
  0
VERTEX
  5
101
  8
FAB_2$_CUT_2
 10
-4009.445055582034
 20
293.0139279920626
 30
0.0
  0
VERTEX
  5
102
  8
FAB_2$_CUT_2
 10
-4009.458148071037
 20
293.028363688501
 30
0.0
  0
VERTEX
  5
103
  8
FAB_2$_CUT_2
 10
-4009.471540936505
 20
293.0424223088295
 30
0.0
  0
VERTEX
  5
104
  8
FAB_2$_CUT_2
 10
-4009.485218503527
 20
293.0560953104568
 30
0.0
  0
VERTEX
  5
105
  8
FAB_2$_CUT_2
 10
-4009.499164826251
 20
293.0693749874521
 30
0.0
  0
VERTEX
  5
106
  8
FAB_2$_CUT_2
 10
-4013.673383522375
 20
296.7666281080572
 30
0.0
  0
SEQEND
  5
107
  8
FAB_2$_CUT_2
  0
ARC
  5
108
  8
FAB_2$_CUT_2
 10
-4015.799480944534
 20
294.4085919014886
 30
0.0
 40
3.175000000000076
 50
47.96094681430662
 51
137.7787645487398
  0
LINE
  5
109
  8
FAB_2$_CUT_2
 10
-4018.150744931955
 20
296.5421763646548
 30
0.0
 11
-4030.592027901351
 21
282.8315681800498
 31
0.0
  0
ARC
  5
10A
  8
FAB_2$_CUT_2
 10
-4028.240763913933
 20
280.6979837168831
 30
0.0
 40
3.1749999999995
 50
137.7787645487156
 51
227.9714426219615
  0
LINE
  5
10B
  8
FAB_2$_CUT_2
 10
-4030.366429340254
 20
278.3395580777467
 30
0.0
 11
-4011.49400651687
 21
261.2627480035479
 31
0.0
  0
LINE
  5
10C
  8
FAB_2$_CUT_2
 10
-4018.95997967999
 20
281.4799486901987
 30
0.0
 11
-4009.451694232466
 21
291.9545448400452
 31
0.0
  0
LINE
  5
10D
  8
FAB_2$_CUT_2
 10
-4018.95997967999
 20
281.4799486901987
 30
0.0
 11
-4009.312253124218
 21
272.7666615776873
 31
0.0
  0
ARC
  5
10E
  8
FAB_2$_CUT_2
 10
-3999.148691641654
 20
282.8102618865794
 30
0.0
 40
0.7937500000004433
 50
48.98910613500902
 51
137.7787665586026
  0
LINE
  5
10F
  8
FAB_2$_CUT_2
 10
-3999.73650765722
 20
283.3436579817515
 30
0.0
 11
-4009.312253124218
 21
272.7666615776873
 31
0.0
  0
POLYLINE
  5
110
  8
FAB_2$_CUT_2
 66
     1
 10
0.0
 20
0.0
 30
0.0
  0
VERTEX
  5
111
  8
FAB_2$_CUT_2
 10
-3769.41502403505
 20
208.5657545191114
 30
0.0
  0
VERTEX
  5
112
  8
FAB_2$_CUT_2
 10
-3770.339305294866
 20
207.4739296190455
 30
0.0
  0
VERTEX
  5
113
  8
FAB_2$_CUT_2
 10
-3771.27524622889
 20
206.4067506948221
 30
0.0
  0
VERTEX
  5
114
  8
FAB_2$_CUT_2
 10
-3772.222846837123
 20
205.3642177464411
 30
0.0
  0
VERTEX
  5
115
  8
FAB_2$_CUT_2
 10
-3773.182107119565
 20
204.3463307739027
 30
0.0
  0
VERTEX
  5
116
  8
FAB_2$_CUT_2
 10
-3774.153027076217
 20
203.3530897772068
 30
0.0
  0
VERTEX
  5
117
  8
FAB_2$_CUT_2
 10
-3775.135606707076
 20
202.3844947563535
 30
0.0
  0
VERTEX
  5
118
  8
FAB_2$_CUT_2
 10
-3776.129846012146
 20
201.4405457113426
 30
0.0
  0
VERTEX
  5
119
  8
FAB_2$_CUT_2
 10
-3777.135744991424
 20
200.5212426421743
 30
0.0
  0
VERTEX
  5
11A
  8
FAB_2$_CUT_2
 10
-3778.153303644912
 20
199.6265855488485
 30
0.0
  0
VERTEX
  5
11B
  8
FAB_2$_CUT_2
 10
-3779.182521972608
 20
198.7565744313652
 30
0.0
  0
VERTEX
  5
11C
  8
FAB_2$_CUT_2
 10
-3780.223399974514
 20
197.9112092897243
 30
0.0
  0
VERTEX
  5
11D
  8
FAB_2$_CUT_2
 10
-3781.275937650627
 20
197.090490123926
 30
0.0
  0
VERTEX
  5
11E
  8
FAB_2$_CUT_2
 10
-3782.340135000951
 20
196.2944169339703
 30
0.0
  0
VERTEX
  5
11F
  8
FAB_2$_CUT_2
 10
-3783.415992025483
 20
195.522989719857
 30
0.0
  0
VERTEX
  5
120
  8
FAB_2$_CUT_2
 10
-3784.503508724225
 20
194.7762084815863
 30
0.0
  0
VERTEX
  5
121
  8
FAB_2$_CUT_2
 10
-3785.602685097176
 20
194.054073219158
 30
0.0
  0
VERTEX
  5
122
  8
FAB_2$_CUT_2
 10
-3786.713521144336
 20
193.3565839325723
 30
0.0
  0
VERTEX
  5
123
  8
FAB_2$_CUT_2
 10
-3787.836016865704
 20
192.6837406218291
 30
0.0
  0
VERTEX
  5
124
  8
FAB_2$_CUT_2
 10
-3788.970172261281
 20
192.0355432869284
 30
0.0
  0
VERTEX
  5
125
  8
FAB_2$_CUT_2
 10
-3790.115987331067
 20
191.4119919278702
 30
0.0
  0
VERTEX
  5
126
  8
FAB_2$_CUT_2
 10
-3791.273462075063
 20
190.8130865446546
 30
0.0
  0
VERTEX
  5
127
  8
FAB_2$_CUT_2
 10
-3792.442596493267
 20
190.2388271372814
 30
0.0
  0
VERTEX
  5
128
  8
FAB_2$_CUT_2
 10
-3793.623390585681
 20
189.6892137057508
 30
0.0
  0
VERTEX
  5
129
  8
FAB_2$_CUT_2
 10
-3794.815844352303
 20
189.1642462500627
 30
0.0
  0
VERTEX
  5
12A
  8
FAB_2$_CUT_2
 10
-3796.019957793135
 20
188.6639247702171
 30
0.0
  0
VERTEX
  5
12B
  8
FAB_2$_CUT_2
 10
-3797.235730908175
 20
188.188249266214
 30
0.0
  0
VERTEX
  5
12C
  8
FAB_2$_CUT_2
 10
-3798.463163697425
 20
187.7372197380534
 30
0.0
  0
VERTEX
  5
12D
  8
FAB_2$_CUT_2
 10
-3799.702256160884
 20
187.3108361857353
 30
0.0
  0
VERTEX
  5
12E
  8
FAB_2$_CUT_2
 10
-3800.953008298551
 20
186.9090986092598
 30
0.0
  0
VERTEX
  5
12F
  8
FAB_2$_CUT_2
 10
-3802.215420110428
 20
186.5320070086267
 30
0.0
  0
VERTEX
  5
130
  8
FAB_2$_CUT_2
 10
-3803.489491596513
 20
186.1795613838362
 30
0.0
  0
VERTEX
  5
131
  8
FAB_2$_CUT_2
 10
-3804.775222756808
 20
185.8517617348882
 30
0.0
  0
VERTEX
  5
132
  8
FAB_2$_CUT_2
 10
-3806.072613591312
 20
185.5486080617827
 30
0.0
  0
VERTEX
  5
133
  8
FAB_2$_CUT_2
 10
-3807.381664100024
 20
185.2701003645197
 30
0.0
  0
VERTEX
  5
134
  8
FAB_2$_CUT_2
 10
-3808.702374282946
 20
185.0162386430993
 30
0.0
  0
VERTEX
  5
135
  8
FAB_2$_CUT_2
 10
-3810.034744140076
 20
184.7870228975213
 30
0.0
  0
VERTEX
  5
136
  8
FAB_2$_CUT_2
 10
-3811.378773671417
 20
184.5824531277859
 30
0.0
  0
VERTEX
  5
137
  8
FAB_2$_CUT_2
 10
-3812.734462876965
 20
184.4025293338929
 30
0.0
  0
VERTEX
  5
138
  8
FAB_2$_CUT_2
 10
-3814.101811756723
 20
184.2472515158425
 30
0.0
  0
VERTEX
  5
139
  8
FAB_2$_CUT_2
 10
-3815.48082031069
 20
184.1166196736346
 30
0.0
  0
VERTEX
  5
13A
  8
FAB_2$_CUT_2
 10
-3816.871488538866
 20
184.0106338072693
 30
0.0
  0
VERTEX
  5
13B
  8
FAB_2$_CUT_2
 10
-3818.27381644125
 20
183.9292939167464
 30
0.0
  0
VERTEX
  5
13C
  8
FAB_2$_CUT_2
 10
-3819.687804017844
 20
183.872600002066
 30
0.0
  0
VERTEX
  5
13D
  8
FAB_2$_CUT_2
 10
-3821.113451268647
 20
183.8405520632282
 30
0.0
  0
VERTEX
  5
13E
  8
FAB_2$_CUT_2
 10
-3823.99972479288
 20
183.85039411308
 30
0.0
  0
VERTEX
  5
13F
  8
FAB_2$_CUT_2
 10
-3826.932637013949
 20
183.9588200663019
 30
0.0
  0
VERTEX
  5
140
  8
FAB_2$_CUT_2
 10
-3829.912187931854
 20
184.1658299228939
 30
0.0
  0
VERTEX
  5
141
  8
FAB_2$_CUT_2
 10
-3832.938377546594
 20
184.4714236828559
 30
0.0
  0
VERTEX
  5
142
  8
FAB_2$_CUT_2
 10
-3836.011205858171
 20
184.875601346188
 30
0.0
  0
VERTEX
  5
143
  8
FAB_2$_CUT_2
 10
-3839.130672866584
 20
185.3783629128901
 30
0.0
  0
VERTEX
  5
144
  8
FAB_2$_CUT_2
 10
-3842.296778571833
 20
185.9797083829623
 30
0.0
  0
VERTEX
  5
145
  8
FAB_2$_CUT_2
 10
-3845.509522973918
 20
186.6796377564045
 30
0.0
  0
VERTEX
  5
146
  8
FAB_2$_CUT_2
 10
-3848.768906072839
 20
187.4781510332168
 30
0.0
  0
VERTEX
  5
147
  8
FAB_2$_CUT_2
 10
-3852.074927868596
 20
188.3752482133992
 30
0.0
  0
VERTEX
  5
148
  8
FAB_2$_CUT_2
 10
-3855.427588361189
 20
189.3709292969516
 30
0.0
  0
VERTEX
  5
149
  8
FAB_2$_CUT_2
 10
-3858.826887550618
 20
190.465194283874
 30
0.0
  0
VERTEX
  5
14A
  8
FAB_2$_CUT_2
 10
-3862.272825436884
 20
191.6580431741666
 30
0.0
  0
VERTEX
  5
14B
  8
FAB_2$_CUT_2
 10
-3865.765402019985
 20
192.9494759678292
 30
0.0
  0
VERTEX
  5
14C
  8
FAB_2$_CUT_2
 10
-3869.304617299922
 20
194.3394926648618
 30
0.0
  0
VERTEX
  5
14D
  8
FAB_2$_CUT_2
 10
-3872.890471276696
 20
195.8280932652645
 30
0.0
  0
VERTEX
  5
14E
  8
FAB_2$_CUT_2
 10
-3876.522963950306
 20
197.4152777690373
 30
0.0
  0
VERTEX
  5
14F
  8
FAB_2$_CUT_2
 10
-3880.202095320752
 20
199.1010461761801
 30
0.0
  0
VERTEX
  5
150
  8
FAB_2$_CUT_2
 10
-3887.700274152151
 20
202.7683347005758
 30
0.0
  0
VERTEX
  5
151
  8
FAB_2$_CUT_2
 10
-3895.385007770895
 20
206.8299588384519
 30
0.0
  0
VERTEX
  5
152
  8
FAB_2$_CUT_2
 10
-3903.256296176983
 20
211.2859185898081
 30
0.0
  0
VERTEX
  5
153
  8
FAB_2$_CUT_2
 10
-3911.314139370415
 20
216.1362139546445
 30
0.0
  0
VERTEX
  5
154
  8
FAB_2$_CUT_2
 10
-3919.558537351192
 20
221.3808449329613
 30
0.0
  0
VERTEX
  5
155
  8
FAB_2$_CUT_2
 10
-3927.989490119312
 20
227.0198115247582
 30
0.0
  0
VERTEX
  5
156
  8
FAB_2$_CUT_2
 10
-3936.606997674777
 20
233.0531137300353
 30
0.0
  0
VERTEX
  5
157
  8
FAB_2$_CUT_2
 10
-3945.411060017586
 20
239.4807515487927
 30
0.0
  0
VERTEX
  5
158
  8
FAB_2$_CUT_2
 10
-3963.578849065237
 20
253.5190340267481
 30
0.0
  0
VERTEX
  5
159
  8
FAB_2$_CUT_2
 10
-3982.492857262264
 20
269.1346589586245
 30
0.0
  0
SEQEND
  5
15A
  8
FAB_2$_CUT_2
  0
POLYLINE
  5
15B
  8
FAB_2$_CUT_2
 66
     1
 10
0.0
 20
0.0
 30
0.0
  0
VERTEX
  5
15C
  8
FAB_2$_CUT_2
 10
-3730.839962124377
 20
212.581623587573
 30
0.0
  0
VERTEX
  5
15D
  8
FAB_2$_CUT_2
 10
-3727.067525398579
 20
216.7384178134387
 30
0.0
  0
VERTEX
  5
15E
  8
FAB_2$_CUT_2
 10
-3682.272415062067
 20
266.0975567658909
 30
0.0
  0
VERTEX
  5
15F
  8
FAB_2$_CUT_2
 10
-3671.927294319632
 20
277.4986213780113
 30
0.0
  0
VERTEX
  5
160
  8
FAB_2$_CUT_2
 10
-3671.881290146275
 20
277.5528451773661
 30
0.0
  0
VERTEX
  5
161
  8
FAB_2$_CUT_2
 10
-3671.836124510113
 20
277.6085747197188
 30
0.0
  0
VERTEX
  5
162
  8
FAB_2$_CUT_2
 10
-3671.791859525435
 20
277.6657999550647
 30
0.0
  0
VERTEX
  5
163
  8
FAB_2$_CUT_2
 10
-3671.748557844464
 20
277.7245078053292
 30
0.0
  0
VERTEX
  5
164
  8
FAB_2$_CUT_2
 10
-3671.706282491837
 20
277.7846820738492
 30
0.0
  0
VERTEX
  5
165
  8
FAB_2$_CUT_2
 10
-3671.665096688966
 20
277.8463033644307
 30
0.0
  0
VERTEX
  5
166
  8
FAB_2$_CUT_2
 10
-3671.625063668791
 20
277.9093490110657
 30
0.0
  0
VERTEX
  5
167
  8
FAB_2$_CUT_2
 10
-3671.586246481593
 20
277.9737930193725
 30
0.0
  0
VERTEX
  5
168
  8
FAB_2$_CUT_2
 10
-3671.548707792621
 20
278.0396060207883
 30
0.0
  0
VERTEX
  5
169
  8
FAB_2$_CUT_2
 10
-3671.512509672431
 20
278.1067552404963
 30
0.0
  0
VERTEX
  5
16A
  8
FAB_2$_CUT_2
 10
-3671.477713380939
 20
278.1752044800107
 30
0.0
  0
VERTEX
  5
16B
  8
FAB_2$_CUT_2
 10
-3671.444379146306
 20
278.2449141152608
 30
0.0
  0
VERTEX
  5
16C
  8
FAB_2$_CUT_2
 10
-3671.412565939897
 20
278.3158411109325
 30
0.0
  0
VERTEX
  5
16D
  8
FAB_2$_CUT_2
 10
-3671.382331248621
 20
278.3879390517139
 30
0.0
  0
VERTEX
  5
16E
  8
FAB_2$_CUT_2
 10
-3671.353730846091
 20
278.461158190976
 30
0.0
  0
VERTEX
  5
16F
  8
FAB_2$_CUT_2
 10
-3671.32681856411
 20
278.535445517289
 30
0.0
  0
VERTEX
  5
170
  8
FAB_2$_CUT_2
 10
-3671.301646066033
 20
278.6107448390276
 30
0.0
  0
VERTEX
  5
171
  8
FAB_2$_CUT_2
 10
-3671.278262623645
 20
278.6869968871693
 30
0.0
  0
VERTEX
  5
172
  8
FAB_2$_CUT_2
 10
-3671.256714899205
 20
278.7641394362233
 30
0.0
  0
VERTEX
  5
173
  8
FAB_2$_CUT_2
 10
-3671.237046734333
 20
278.842107443062
 30
0.0
  0
VERTEX
  5
174
  8
FAB_2$_CUT_2
 10
-3671.219298947417
 20
278.9208332032512
 30
0.0
  0
VERTEX
  5
175
  8
FAB_2$_CUT_2
 10
-3671.203509141185
 20
279.0002465242989
 30
0.0
  0
VERTEX
  5
176
  8
FAB_2$_CUT_2
 10
-3671.189711522061
 20
279.0802749150694
 30
0.0
  0
VERTEX
  5
177
  8
FAB_2$_CUT_2
 10
-3671.177936732852
 20
279.1608437904349
 30
0.0
  0
VERTEX
  5
178
  8
FAB_2$_CUT_2
 10
-3671.168211700234
 20
279.2418766900703
 30
0.0
  0
VERTEX
  5
179
  8
FAB_2$_CUT_2
 10
-3671.160559498387
 20
279.3232955101403
 30
0.0
  0
VERTEX
  5
17A
  8
FAB_2$_CUT_2
 10
-3671.154999230037
 20
279.4050207464751
 30
0.0
  0
VERTEX
  5
17B
  8
FAB_2$_CUT_2
 10
-3671.151545925996
 20
279.4869717477069
 30
0.0
  0
VERTEX
  5
17C
  8
FAB_2$_CUT_2
 10
-3671.150210464147
 20
279.569066976709
 30
0.0
  0
VERTEX
  5
17D
  8
FAB_2$_CUT_2
 10
-3671.150999508644
 20
279.6512242785913
 30
0.0
  0
VERTEX
  5
17E
  8
FAB_2$_CUT_2
 10
-3671.153915469936
 20
279.7333611534152
 30
0.0
  0
VERTEX
  5
17F
  8
FAB_2$_CUT_2
 10
-3671.158956485991
 20
279.8153950317412
 30
0.0
  0
VERTEX
  5
180
  8
FAB_2$_CUT_2
 10
-3671.166116424971
 20
279.8972435510779
 30
0.0
  0
VERTEX
  5
181
  8
FAB_2$_CUT_2
 10
-3671.175384909304
 20
279.9788248312924
 30
0.0
  0
VERTEX
  5
182
  8
FAB_2$_CUT_2
 10
-3671.186747361021
 20
280.0600577470511
 30
0.0
  0
VERTEX
  5
183
  8
FAB_2$_CUT_2
 10
-3671.200185067918
 20
280.1408621953907
 30
0.0
  0
VERTEX
  5
184
  8
FAB_2$_CUT_2
 10
-3671.215675269987
 20
280.2211593565769
 30
0.0
  0
VERTEX
  5
185
  8
FAB_2$_CUT_2
 10
-3671.233191265333
 20
280.3008719464846
 30
0.0
  0
VERTEX
  5
186
  8
FAB_2$_CUT_2
 10
-3671.25270253465
 20
280.3799244588306
 30
0.0
  0
VERTEX
  5
187
  8
FAB_2$_CUT_2
 10
-3671.274174883133
 20
280.4582433957069
 30
0.0
  0
VERTEX
  5
188
  8
FAB_2$_CUT_2
 10
-3671.29757059861
 20
280.5357574849938
 30
0.0
  0
VERTEX
  5
189
  8
FAB_2$_CUT_2
 10
-3671.322848624503
 20
280.6123978833798
 30
0.0
  0
VERTEX
  5
18A
  8
FAB_2$_CUT_2
 10
-3671.349964746146
 20
280.6880983638728
 30
0.0
  0
VERTEX
  5
18B
  8
FAB_2$_CUT_2
 10
-3671.378871788903
 20
280.762795486857
 30
0.0
  0
VERTEX
  5
18C
  8
FAB_2$_CUT_2
 10
-3671.409519826445
 20
280.8364287539213
 30
0.0
  0
VERTEX
  5
18D
  8
FAB_2$_CUT_2
 10
-3671.441856397513
 20
280.9089407438627
 30
0.0
  0
VERTEX
  5
18E
  8
FAB_2$_CUT_2
 10
-3671.475826729471
 20
280.9802772304517
 30
0.0
  0
VERTEX
  5
18F
  8
FAB_2$_CUT_2
 10
-3671.511373966928
 20
281.0503872817159
 30
0.0
  0
VERTEX
  5
190
  8
FAB_2$_CUT_2
 10
-3671.548439403766
 20
281.1192233406787
 30
0.0
  0
VERTEX
  5
191
  8
FAB_2$_CUT_2
 10
-3671.586962716885
 20
281.186741287651
 30
0.0
  0
VERTEX
  5
192
  8
FAB_2$_CUT_2
 10
-3671.626882200091
 20
281.2529004843351
 30
0.0
  0
VERTEX
  5
193
  8
FAB_2$_CUT_2
 10
-3671.668134996562
 20
281.3176638001476
 30
0.0
  0
VERTEX
  5
194
  8
FAB_2$_CUT_2
 10
-3671.710657328466
 20
281.3809976213026
 30
0.0
  0
VERTEX
  5
195
  8
FAB_2$_CUT_2
 10
-3671.754384722337
 20
281.4428718433205
 30
0.0
  0
VERTEX
  5
196
  8
FAB_2$_CUT_2
 10
-3671.799252228964
 20
281.5032598477397
 30
0.0
  0
VERTEX
  5
197
  8
FAB_2$_CUT_2
 10
-3671.845194636642
 20
281.5621384638977
 30
0.0
  0
VERTEX
  5
198
  8
FAB_2$_CUT_2
 10
-3671.892146676752
 20
281.6194879167338
 30
0.0
  0
VERTEX
  5
199
  8
FAB_2$_CUT_2
 10
-3671.94004322075
 20
281.6752917616246
 30
0.0
  0
VERTEX
  5
19A
  8
FAB_2$_CUT_2
 10
-3671.988819467789
 20
281.7295368073197
 30
0.0
  0
VERTEX
  5
19B
  8
FAB_2$_CUT_2
 10
-3672.038411122288
 20
281.7822130280728
 30
0.0
  0
VERTEX
  5
19C
  8
FAB_2$_CUT_2
 10
-3672.088754560937
 20
281.8333134660932
 30
0.0
  0
VERTEX
  5
19D
  8
FAB_2$_CUT_2
 10
-3672.139786988669
 20
281.8828341254438
 30
0.0
  0
VERTEX
  5
19E
  8
FAB_2$_CUT_2
 10
-3672.191446583338
 20
281.9307738585124
 30
0.0
  0
VERTEX
  5
19F
  8
FAB_2$_CUT_2
 10
-3686.64521321683
 20
295.0477079619658
 30
0.0
 42
0.4142135623733333
  0
VERTEX
  5
1A0
  8
FAB_2$_CUT_2
 10
-3691.130076632747
 20
294.8303369874231
 30
0.0
  0
VERTEX
  5
1A1
  8
FAB_2$_CUT_2
 10
-3712.515284590554
 20
274.9617157293296
 30
0.0
  0
VERTEX
  5
1A2
  8
FAB_2$_CUT_2
 10
-3718.947200426501
 20
268.7026981701399
 30
0.0
  0
VERTEX
  5
1A3
  8
FAB_2$_CUT_2
 10
-3719.508553261132
 20
268.1307297127003
 30
0.0
  0
VERTEX
  5
1A4
  8
FAB_2$_CUT_2
 10
-3723.258748545507
 20
264.0592254265129
 30
0.0
  0
VERTEX
  5
1A5
  8
FAB_2$_CUT_2
 10
-3726.839662705763
 20
260.020054881084
 30
0.0
  0
VERTEX
  5
1A6
  8
FAB_2$_CUT_2
 10
-3730.344628898312
 20
255.8971640902171
 30
0.0
  0
VERTEX
  5
1A7
  8
FAB_2$_CUT_2
 10
-3733.866980279569
 20
251.5744990677159
 30
0.0
  0
VERTEX
  5
1A8
  8
FAB_2$_CUT_2
 10
-3741.337171233858
 20
241.8656303830244
 30
0.0
  0
VERTEX
  5
1A9
  8
FAB_2$_CUT_2
 10
-3749.996900819938
 20
229.965016937438
 30
0.0
  0
SEQEND
  5
1AA
  8
FAB_2$_CUT_2
  0
CIRCLE
  5
1AB
  8
FAB_2$_CUT_2
 10
-3688.7642246627
 20
287.8210216147666
 30
0.0
 40
1.777999999999844
  0
CIRCLE
  5
1AC
  8
FAB_2$_CUT_2
 10
-3679.197030590181
 20
279.1168212584742
 30
0.0
 40
1.778000000000025
  0
POLYLINE
  5
1AD
  8
FAB_2$_CUT_2
 66
     1
 10
0.0
 20
0.0
 30
0.0
 70
     1
  0
VERTEX
  5
1AE
  8
FAB_2$_CUT_2
 10
-3713.226715174413
 20
270.428607088031
 30
0.0
  0
VERTEX
  5
1AF
  8
FAB_2$_CUT_2
 10
-3711.523023535141
 20
272.3124953008171
 30
0.0
  0
VERTEX
  5
1B0
  8
FAB_2$_CUT_2
 10
-3710.581079428748
 20
271.4606494811808
 30
0.0
  0
VERTEX
  5
1B1
  8
FAB_2$_CUT_2
 10
-3712.28477106802
 20
269.5767612683947
 30
0.0
  0
SEQEND
  5
1B2
  8
FAB_2$_CUT_2
  0
POLYLINE
  5
1B3
  8
FAB_2$_CUT_2
 66
     1
 10
0.0
 20
0.0
 30
0.0
 70
     1
  0
VERTEX
  5
1B4
  8
FAB_2$_CUT_2
 10
-3731.059950853683
 20
250.775930779357
 30
0.0
  0
VERTEX
  5
1B5
  8
FAB_2$_CUT_2
 10
-3730.120886447191
 20
249.9209114576695
 30
0.0
  0
VERTEX
  5
1B6
  8
FAB_2$_CUT_2
 10
-3731.830925090565
 20
248.0427826446847
 30
0.0
  0
VERTEX
  5
1B7
  8
FAB_2$_CUT_2
 10
-3732.769989497059
 20
248.8978019663721
 30
0.0
  0
SEQEND
  5
1B8
  8
FAB_2$_CUT_2
  0
CIRCLE
  5
1B9
  8
FAB_2$_CUT_2
 10
-3706.387431020057
 20
246.3063468842909
 30
0.0
 40
2.095500000000145
  0
POLYLINE
  5
1BA
  8
FAB_2$_CUT_2
 66
     1
 10
0.0
 20
0.0
 30
0.0
 70
     1
  0
VERTEX
  5
1BB
  8
FAB_2$_CUT_2
 10
-3696.517970230288
 20
255.2667542282318
 30
0.0
  0
VERTEX
  5
1BC
  8
FAB_2$_CUT_2
 10
-3697.45703463678
 20
256.1217735499193
 30
0.0
  0
VERTEX
  5
1BD
  8
FAB_2$_CUT_2
 10
-3695.746995993405
 20
257.9999023629037
 30
0.0
  0
VERTEX
  5
1BE
  8
FAB_2$_CUT_2
 10
-3694.807931586912
 20
257.1448830412162
 30
0.0
  0
SEQEND
  5
1BF
  8
FAB_2$_CUT_2
  0
POLYLINE
  5
1C0
  8
FAB_2$_CUT_2
 66
     1
 10
0.0
 20
0.0
 30
0.0
 70
     1
  0
VERTEX
  5
1C1
  8
FAB_2$_CUT_2
 10
-3714.351205909558
 20
235.6140779195574
 30
0.0
  0
VERTEX
  5
1C2
  8
FAB_2$_CUT_2
 10
-3716.05489754883
 20
233.7301897067708
 30
0.0
  0
VERTEX
  5
1C3
  8
FAB_2$_CUT_2
 10
-3716.996841655223
 20
234.582035526408
 30
0.0
  0
VERTEX
  5
1C4
  8
FAB_2$_CUT_2
 10
-3715.293150015951
 20
236.4659237391937
 30
0.0
  0
SEQEND
  5
1C5
  8
FAB_2$_CUT_2
  0
LINE
  5
1C6
  8
FAB_2$_CUT_2
 10
-3769.41502403505
 20
208.5657545191114
 30
0.0
 11
-3749.996900819938
 21
229.965016937438
 31
0.0
  0
POLYLINE
  5
1C7
  8
FAB_2$_CUT_2
 66
     1
 10
0.0
 20
0.0
 30
0.0
  0
VERTEX
  5
1C8
  8
FAB_2$_CUT_2
 10
-3998.904561544862
 20
249.8388311928928
 30
0.0
  0
VERTEX
  5
1C9
  8
FAB_2$_CUT_2
 10
-3988.623267994089
 20
240.8413466409022
 30
0.0
  0
VERTEX
  5
1CA
  8
FAB_2$_CUT_2
 10
-3978.505909130033
 20
232.3078361875685
 30
0.0
  0
VERTEX
  5
1CB
  8
FAB_2$_CUT_2
 10
-3968.552212430674
 20
224.2380525409042
 30
0.0
  0
VERTEX
  5
1CC
  8
FAB_2$_CUT_2
 10
-3958.761905373997
 20
216.6317484089216
 30
0.0
  0
VERTEX
  5
1CD
  8
FAB_2$_CUT_2
 10
-3949.134715437981
 20
209.4886764996331
 30
0.0
  0
VERTEX
  5
1CE
  8
FAB_2$_CUT_2
 10
-3939.670370100608
 20
202.8085895210513
 30
0.0
  0
VERTEX
  5
1CF
  8
FAB_2$_CUT_2
 10
-3930.368596839859
 20
196.5912401811885
 30
0.0
  0
VERTEX
  5
1D0
  8
FAB_2$_CUT_2
 10
-3921.229123133715
 20
190.8363811880571
 30
0.0
  0
VERTEX
  5
1D1
  8
FAB_2$_CUT_2
 10
-3912.251676460159
 20
185.5437652496697
 30
0.0
  0
VERTEX
  5
1D2
  8
FAB_2$_CUT_2
 10
-3903.43598429717
 20
180.7131450740384
 30
0.0
  0
VERTEX
  5
1D3
  8
FAB_2$_CUT_2
 10
-3899.088710994009
 20
178.4710061185103
 30
0.0
  0
VERTEX
  5
1D4
  8
FAB_2$_CUT_2
 10
-3894.781774122732
 20
176.3442733691759
 30
0.0
  0
VERTEX
  5
1D5
  8
FAB_2$_CUT_2
 10
-3890.515139618087
 20
174.3329159145368
 30
0.0
  0
VERTEX
  5
1D6
  8
FAB_2$_CUT_2
 10
-3886.288773414823
 20
172.4369028430946
 30
0.0
  0
VERTEX
  5
1D7
  8
FAB_2$_CUT_2
 10
-3882.102641447688
 20
170.6562032433507
 30
0.0
  0
VERTEX
  5
1D8
  8
FAB_2$_CUT_2
 10
-3877.956709651429
 20
168.9907862038068
 30
0.0
  0
VERTEX
  5
1D9
  8
FAB_2$_CUT_2
 10
-3873.850943960792
 20
167.4406208129643
 30
0.0
  0
VERTEX
  5
1DA
  8
FAB_2$_CUT_2
 10
-3869.785310310527
 20
166.0056761593249
 30
0.0
  0
VERTEX
  5
1DB
  8
FAB_2$_CUT_2
 10
-3865.759774635381
 20
164.6859213313901
 30
0.0
  0
VERTEX
  5
1DC
  8
FAB_2$_CUT_2
 10
-3861.774302870102
 20
163.4813254176615
 30
0.0
  0
VERTEX
  5
1DD
  8
FAB_2$_CUT_2
 10
-3857.828860949436
 20
162.3918575066405
 30
0.0
  0
VERTEX
  5
1DE
  8
FAB_2$_CUT_2
 10
-3853.923414808132
 20
161.4174866868289
 30
0.0
  0
VERTEX
  5
1DF
  8
FAB_2$_CUT_2
 10
-3850.057930380938
 20
160.558182046728
 30
0.0
  0
VERTEX
  5
1E0
  8
FAB_2$_CUT_2
 10
-3846.232373602601
 20
159.8139126748395
 30
0.0
  0
VERTEX
  5
1E1
  8
FAB_2$_CUT_2
 10
-3842.446710407869
 20
159.184647659665
 30
0.0
  0
VERTEX
  5
1E2
  8
FAB_2$_CUT_2
 10
-3838.700906731489
 20
158.6703560897058
 30
0.0
  0
VERTEX
  5
1E3
  8
FAB_2$_CUT_2
 10
-3834.99492850821
 20
158.2710070534637
 30
0.0
  0
VERTEX
  5
1E4
  8
FAB_2$_CUT_2
 10
-3831.328741672779
 20
157.9865696394402
 30
0.0
  0
VERTEX
  5
1E5
  8
FAB_2$_CUT_2
 10
-3827.702312159942
 20
157.8170129361368
 30
0.0
  0
VERTEX
  5
1E6
  8
FAB_2$_CUT_2
 10
-3824.11560590445
 20
157.7623060320552
 30
0.0
  0
VERTEX
  5
1E7
  8
FAB_2$_CUT_2
 10
-3820.568588841048
 20
157.8224180156967
 30
0.0
  0
VERTEX
  5
1E8
  8
FAB_2$_CUT_2
 10
-3817.061226904485
 20
157.997317975563
 30
0.0
  0
VERTEX
  5
1E9
  8
FAB_2$_CUT_2
 10
-3813.593486029508
 20
158.2869750001557
 30
0.0
  0
VERTEX
  5
1EA
  8
FAB_2$_CUT_2
 10
-3810.165332150866
 20
158.6913581779763
 30
0.0
  0
VERTEX
  5
1EB
  8
FAB_2$_CUT_2
 10
-3806.776731203305
 20
159.2104365975263
 30
0.0
  0
VERTEX
  5
1EC
  8
FAB_2$_CUT_2
 10
-3805.097252433288
 20
159.5129768631066
 30
0.0
  0
VERTEX
  5
1ED
  8
FAB_2$_CUT_2
 10
-3803.427649121572
 20
159.8441793473073
 30
0.0
  0
VERTEX
  5
1EE
  8
FAB_2$_CUT_2
 10
-3801.767917010001
 20
160.2040401861911
 30
0.0
  0
VERTEX
  5
1EF
  8
FAB_2$_CUT_2
 10
-3800.118051840417
 20
160.5925555158208
 30
0.0
  0
VERTEX
  5
1F0
  8
FAB_2$_CUT_2
 10
-3798.478049354665
 20
161.0097214722591
 30
0.0
  0
VERTEX
  5
1F1
  8
FAB_2$_CUT_2
 10
-3796.847905294587
 20
161.4555341915685
 30
0.0
  0
VERTEX
  5
1F2
  8
FAB_2$_CUT_2
 10
-3795.227615402027
 20
161.9299898098118
 30
0.0
  0
VERTEX
  5
1F3
  8
FAB_2$_CUT_2
 10
-3793.617175418829
 20
162.4330844630518
 30
0.0
  0
VERTEX
  5
1F4
  8
FAB_2$_CUT_2
 10
-3792.016581086835
 20
162.9648142873511
 30
0.0
  0
VERTEX
  5
1F5
  8
FAB_2$_CUT_2
 10
-3790.425828147891
 20
163.5251754187723
 30
0.0
  0
VERTEX
  5
1F6
  8
FAB_2$_CUT_2
 10
-3788.844912343837
 20
164.1141639933783
 30
0.0
  0
VERTEX
  5
1F7
  8
FAB_2$_CUT_2
 10
-3787.27382941652
 20
164.7317761472316
 30
0.0
  0
VERTEX
  5
1F8
  8
FAB_2$_CUT_2
 10
-3785.712575107781
 20
165.378008016395
 30
0.0
  0
VERTEX
  5
1F9
  8
FAB_2$_CUT_2
 10
-3784.161145159464
 20
166.0528557369312
 30
0.0
  0
VERTEX
  5
1FA
  8
FAB_2$_CUT_2
 10
-3782.619535313414
 20
166.7563154449029
 30
0.0
  0
VERTEX
  5
1FB
  8
FAB_2$_CUT_2
 10
-3781.087741311473
 20
167.4883832763727
 30
0.0
  0
VERTEX
  5
1FC
  8
FAB_2$_CUT_2
 10
-3779.565758895484
 20
168.2490553674034
 30
0.0
  0
VERTEX
  5
1FD
  8
FAB_2$_CUT_2
 10
-3778.053583807291
 20
169.0383278540576
 30
0.0
  0
VERTEX
  5
1FE
  8
FAB_2$_CUT_2
 10
-3775.058638581668
 20
170.7026585584875
 30
0.0
  0
VERTEX
  5
1FF
  8
FAB_2$_CUT_2
 10
-3772.102871569351
 20
172.4813444781639
 30
0.0
  0
VERTEX
  5
200
  8
FAB_2$_CUT_2
 10
-3769.186248705088
 20
174.3743547015883
 30
0.0
  0
VERTEX
  5
201
  8
FAB_2$_CUT_2
 10
-3766.308735923626
 20
176.3816583172625
 30
0.0
  0
VERTEX
  5
202
  8
FAB_2$_CUT_2
 10
-3763.470299159713
 20
178.5032244136877
 30
0.0
  0
VERTEX
  5
203
  8
FAB_2$_CUT_2
 10
-3760.670904348097
 20
180.7390220793658
 30
0.0
  0
VERTEX
  5
204
  8
FAB_2$_CUT_2
 10
-3757.910517423526
 20
183.0890204027981
 30
0.0
  0
VERTEX
  5
205
  8
FAB_2$_CUT_2
 10
-3755.189104320746
 20
185.5531884724863
 30
0.0
  0
VERTEX
  5
206
  8
FAB_2$_CUT_2
 10
-3752.506630974506
 20
188.1314953769319
 30
0.0
  0
VERTEX
  5
207
  8
FAB_2$_CUT_2
 10
-3749.863063319553
 20
190.8239102046364
 30
0.0
  0
VERTEX
  5
208
  8
FAB_2$_CUT_2
 10
-3747.382365587603
 20
193.4880288776804
 30
0.0
  0
VERTEX
  5
209
  8
FAB_2$_CUT_2
 10
-3744.93494218751
 20
196.2263578857859
 30
0.0
  0
VERTEX
  5
20A
  8
FAB_2$_CUT_2
 10
-3730.839962124377
 20
212.581623587573
 30
0.0
  0
SEQEND
  5
20B
  8
FAB_2$_CUT_2
  0
CIRCLE
  5
20C
  8
FAB_2$_CUT_2
 10
-3713.788960541985
 20
253.021342503794
 30
0.0
 40
2.095500000000145
  0
POLYLINE
  5
20D
  8
FAB_2$_CUT_2
 66
     1
 10
0.0
 20
0.0
 30
0.0
 70
     1
  0
VERTEX
  5
20E
  8
FAB_2$_CUT_2
 10
-3905.333023117952
 20
193.8762124599578
 30
0.0
  0
VERTEX
  5
20F
  8
FAB_2$_CUT_2
 10
-3904.689741636971
 20
194.9712416541923
 30
0.0
  0
VERTEX
  5
210
  8
FAB_2$_CUT_2
 10
-3902.499683248502
 20
193.6846786922291
 30
0.0
  0
VERTEX
  5
211
  8
FAB_2$_CUT_2
 10
-3903.142964729483
 20
192.5896494979941
 30
0.0
  0
SEQEND
  5
212
  8
FAB_2$_CUT_2
  0
POLYLINE
  5
213
  8
FAB_2$_CUT_2
 66
     1
 10
0.0
 20
0.0
 30
0.0
 70
     1
  0
VERTEX
  5
214
  8
FAB_2$_CUT_2
 10
-3902.205530506163
 20
199.4705353995972
 30
0.0
  0
VERTEX
  5
215
  8
FAB_2$_CUT_2
 10
-3899.962472675316
 20
198.2787755380999
 30
0.0
  0
VERTEX
  5
216
  8
FAB_2$_CUT_2
 10
-3900.558352606064
 20
197.157246622676
 30
0.0
  0
VERTEX
  5
217
  8
FAB_2$_CUT_2
 10
-3902.801410436912
 20
198.3490064841733
 30
0.0
  0
SEQEND
  5
218
  8
FAB_2$_CUT_2
  0
CIRCLE
  5
219
  8
FAB_2$_CUT_2
 10
-3916.655715106799
 20
211.6062215467103
 30
0.0
 40
1.778000000000188
  0
CIRCLE
  5
21A
  8
FAB_2$_CUT_2
 10
-3923.739328120189
 20
200.3037500616913
 30
0.0
 40
1.778000000000007
  0
LINE
  5
21B
  8
FAB_2$_CUT_2
 10
-3995.082302234273
 20
280.5585757692796
 30
0.0
 11
-3998.627830897007
 21
283.4092135934691
 31
0.0
  0
POLYLINE
  5
21C
  8
FAB_2$_CUT_2
 66
     1
 10
0.0
 20
0.0
 30
0.0
 70
     1
  0
VERTEX
  5
21D
  8
FAB_2$_CUT_2
 10
-3930.947704379358
 20
328.1373231548623
 30
0.0
  0
VERTEX
  5
21E
  8
FAB_2$_CUT_2
 10
-3931.425726033701
 20
326.9607198665872
 30
0.0
  0
VERTEX
  5
21F
  8
FAB_2$_CUT_2
 10
-3933.778932610251
 20
327.9167631752734
 30
0.0
  0
VERTEX
  5
220
  8
FAB_2$_CUT_2
 10
-3933.300910955908
 20
329.0933664635481
 30
0.0
  0
SEQEND
  5
221
  8
FAB_2$_CUT_2
  0
POLYLINE
  5
222
  8
FAB_2$_CUT_2
 66
     1
 10
0.0
 20
0.0
 30
0.0
 70
     1
  0
VERTEX
  5
223
  8
FAB_2$_CUT_2
 10
-3933.215480390343
 20
322.1852893477458
 30
0.0
  0
VERTEX
  5
224
  8
FAB_2$_CUT_2
 10
-3935.608247098709
 20
323.0375026305192
 30
0.0
  0
VERTEX
  5
225
  8
FAB_2$_CUT_2
 10
-3935.182140457322
 20
324.2338859847023
 30
0.0
  0
VERTEX
  5
226
  8
FAB_2$_CUT_2
 10
-3932.789373748956
 20
323.3816727019289
 30
0.0
  0
SEQEND
  5
227
  8
FAB_2$_CUT_2
  0
ARC
  5
228
  8
FAB_2$_CUT_2
 10
-4114.851781025471
 20
236.3649678045949
 30
0.0
 40
3.174999999999929
 50
47.77561058529313
 51
137.7768888176064
  0
POLYLINE
  5
229
  8
FAB_2$_CUT_2
 66
     1
 10
0.0
 20
0.0
 30
0.0
  0
VERTEX
  5
22A
  8
FAB_2$_CUT_2
 10
-4107.732391251302
 20
233.1521414750628
 30
0.0
  0
VERTEX
  5
22B
  8
FAB_2$_CUT_2
 10
-4107.721267973386
 20
233.1654560598477
 30
0.0
  0
VERTEX
  5
22C
  8
FAB_2$_CUT_2
 10
-4107.710345883339
 20
233.1791289776116
 30
0.0
  0
VERTEX
  5
22D
  8
FAB_2$_CUT_2
 10
-4107.699639456807
 20
233.1931579000054
 30
0.0
  0
VERTEX
  5
22E
  8
FAB_2$_CUT_2
 10
-4107.68916329579
 20
233.2075398098846
 30
0.0
  0
VERTEX
  5
22F
  8
FAB_2$_CUT_2
 10
-4107.678932092033
 20
233.2222709807808
 30
0.0
  0
VERTEX
  5
230
  8
FAB_2$_CUT_2
 10
-4107.668960588176
 20
233.2373469584186
 30
0.0
  0
VERTEX
  5
231
  8
FAB_2$_CUT_2
 10
-4107.65926353678
 20
233.2527625445138
 30
0.0
  0
VERTEX
  5
232
  8
FAB_2$_CUT_2
 10
-4107.649855657362
 20
233.2685117830784
 30
0.0
  0
VERTEX
  5
233
  8
FAB_2$_CUT_2
 10
-4107.640751591587
 20
233.2845879494579
 30
0.0
  0
VERTEX
  5
234
  8
FAB_2$_CUT_2
 10
-4107.631965856806
 20
233.3009835423127
 30
0.0
  0
VERTEX
  5
235
  8
FAB_2$_CUT_2
 10
-4107.623512798154
 20
233.3176902787468
 30
0.0
  0
VERTEX
  5
236
  8
FAB_2$_CUT_2
 10
-4107.615406539426
 20
233.3346990927709
 30
0.0
  0
VERTEX
  5
237
  8
FAB_2$_CUT_2
 10
-4107.607660932997
 20
233.3520001372674
 30
0.0
  0
VERTEX
  5
238
  8
FAB_2$_CUT_2
 10
-4107.60028950905
 20
233.3695827896077
 30
0.0
  0
VERTEX
  5
239
  8
FAB_2$_CUT_2
 10
-4107.593305424437
 20
233.3874356610453
 30
0.0
  0
VERTEX
  5
23A
  8
FAB_2$_CUT_2
 10
-4107.586721411443
 20
233.4055466099825
 30
0.0
  0
VERTEX
  5
23B
  8
FAB_2$_CUT_2
 10
-4107.580549726834
 20
233.4239027591809
 30
0.0
  0
VERTEX
  5
23C
  8
FAB_2$_CUT_2
 10
-4107.574802101484
 20
233.4424905169523
 30
0.0
  0
VERTEX
  5
23D
  8
FAB_2$_CUT_2
 10
-4107.569489690979
 20
233.461295602336
 30
0.0
  0
VERTEX
  5
23E
  8
FAB_2$_CUT_2
 10
-4107.564623027515
 20
233.4803030742308
 30
0.0
  0
VERTEX
  5
23F
  8
FAB_2$_CUT_2
 10
-4107.560211973482
 20
233.4994973644166
 30
0.0
  0
VERTEX
  5
240
  8
FAB_2$_CUT_2
 10
-4107.556265677068
 20
233.5188623143621
 30
0.0
  0
VERTEX
  5
241
  8
FAB_2$_CUT_2
 10
-4107.55279253025
 20
233.5383812156795
 30
0.0
  0
VERTEX
  5
242
  8
FAB_2$_CUT_2
 10
-4107.549800129515
 20
233.5580368540469
 30
0.0
  0
VERTEX
  5
243
  8
FAB_2$_CUT_2
 10
-4107.547295239618
 20
233.5778115563901
 30
0.0
  0
VERTEX
  5
244
  8
FAB_2$_CUT_2
 10
-4107.545283760704
 20
233.5976872410721
 30
0.0
  0
VERTEX
  5
245
  8
FAB_2$_CUT_2
 10
-4107.543770699082
 20
233.617645470814
 30
0.0
  0
VERTEX
  5
246
  8
FAB_2$_CUT_2
 10
-4107.542760141885
 20
233.6376675080355
 30
0.0
  0
VERTEX
  5
247
  8
FAB_2$_CUT_2
 10
-4107.54225523586
 20
233.6577343722782
 30
0.0
  0
VERTEX
  5
248
  8
FAB_2$_CUT_2
 10
-4107.542258170486
 20
233.6778268993503
 30
0.0
  0
VERTEX
  5
249
  8
FAB_2$_CUT_2
 10
-4107.542770165573
 20
233.6979258018124
 30
0.0
  0
VERTEX
  5
24A
  8
FAB_2$_CUT_2
 10
-4107.543791463447
 20
233.7180117304056
 30
0.0
  0
VERTEX
  5
24B
  8
FAB_2$_CUT_2
 10
-4107.545321325824
 20
233.7380653360143
 30
0.0
  0
VERTEX
  5
24C
  8
FAB_2$_CUT_2
 10
-4107.547358035389
 20
233.7580673317472
 30
0.0
  0
VERTEX
  5
24D
  8
FAB_2$_CUT_2
 10
-4107.549898902087
 20
233.7779985547198
 30
0.0
  0
VERTEX
  5
24E
  8
FAB_2$_CUT_2
 10
-4107.552940274073
 20
233.7978400271215
 30
0.0
  0
VERTEX
  5
24F
  8
FAB_2$_CUT_2
 10
-4107.556477553238
 20
233.8175730161616
 30
0.0
  0
VERTEX
  5
250
  8
FAB_2$_CUT_2
 10
-4107.560505215167
 20
233.8371790924975
 30
0.0
  0
VERTEX
  5
251
  8
FAB_2$_CUT_2
 10
-4107.565016833379
 20
233.8566401867655
 30
0.0
  0
VERTEX
  5
252
  8
FAB_2$_CUT_2
 10
-4107.570005107632
 20
233.8759386438575
 30
0.0
  0
VERTEX
  5
253
  8
FAB_2$_CUT_2
 10
-4107.575461896063
 20
233.8950572746092
 30
0.0
  0
VERTEX
  5
254
  8
FAB_2$_CUT_2
 10
-4107.581378250881
 20
233.9139794045929
 30
0.0
  0
VERTEX
  5
255
  8
FAB_2$_CUT_2
 10
-4107.58774445734
 20
233.9326889197422
 30
0.0
  0
VERTEX
  5
256
  8
FAB_2$_CUT_2
 10
-4107.594550075651
 20
233.9511703085649
 30
0.0
  0
VERTEX
  5
257
  8
FAB_2$_CUT_2
 10
-4107.601783985517
 20
233.9694087007402
 30
0.0
  0
VERTEX
  5
258
  8
FAB_2$_CUT_2
 10
-4107.609434432921
 20
233.9873899019282
 30
0.0
  0
VERTEX
  5
259
  8
FAB_2$_CUT_2
 10
-4107.617489078826
 20
234.0051004246617
 30
0.0
  0
VERTEX
  5
25A
  8
FAB_2$_CUT_2
 10
-4107.625935049393
 20
234.0225275152248
 30
0.0
  0
VERTEX
  5
25B
  8
FAB_2$_CUT_2
 10
-4107.634758987389
 20
234.039659176462
 30
0.0
  0
VERTEX
  5
25C
  8
FAB_2$_CUT_2
 10
-4107.643947104375
 20
234.0564841864974
 30
0.0
  0
VERTEX
  5
25D
  8
FAB_2$_CUT_2
 10
-4107.653485233353
 20
234.0729921133794
 30
0.0
  0
VERTEX
  5
25E
  8
FAB_2$_CUT_2
 10
-4107.663358881486
 20
234.0891733257003
 30
0.0
  0
VERTEX
  5
25F
  8
FAB_2$_CUT_2
 10
-4107.673553282602
 20
234.1050189992718
 30
0.0
  0
VERTEX
  5
260
  8
FAB_2$_CUT_2
 10
-4107.684053449117
 20
234.1205211199661
 30
0.0
  0
VERTEX
  5
261
  8
FAB_2$_CUT_2
 10
-4107.694844223099
 20
234.135672482861
 30
0.0
  0
VERTEX
  5
262
  8
FAB_2$_CUT_2
 10
-4107.705910326201
 20
234.1504666878489
 30
0.0
  0
VERTEX
  5
263
  8
FAB_2$_CUT_2
 10
-4107.717236408194
 20
234.1648981318934
 30
0.0
  0
VERTEX
  5
264
  8
FAB_2$_CUT_2
 10
-4107.728807093864
 20
234.1789619981311
 30
0.0
  0
VERTEX
  5
265
  8
FAB_2$_CUT_2
 10
-4107.74060702809
 20
234.1926542420369
 30
0.0
  0
VERTEX
  5
266
  8
FAB_2$_CUT_2
 10
-4107.752620918898
 20
234.2059715748757
 30
0.0
  0
VERTEX
  5
267
  8
FAB_2$_CUT_2
 10
-4107.764833578351
 20
234.2189114446793
 30
0.0
  0
VERTEX
  5
268
  8
FAB_2$_CUT_2
 10
-4107.777229961137
 20
234.2314720149854
 30
0.0
  0
VERTEX
  5
269
  8
FAB_2$_CUT_2
 10
-4107.789795200774
 20
234.2436521415871
 30
0.0
  0
VERTEX
  5
26A
  8
FAB_2$_CUT_2
 10
-4112.7180671354
 20
238.7161143409289
 30
0.0
  0
SEQEND
  5
26B
  8
FAB_2$_CUT_2
  0
LINE
  5
26C
  8
FAB_2$_CUT_2
 10
-4110.045929151434
 20
230.4603483614978
 30
0.0
 11
-4107.732391251302
 21
233.1521414750628
 31
0.0
  0
POLYLINE
  5
26D
  8
FAB_2$_CUT_2
 66
     1
 10
0.0
 20
0.0
 30
0.0
  0
VERTEX
  5
26E
  8
FAB_2$_CUT_2
 10
-4102.616669952091
 20
223.7188892809036
 30
0.0
  0
VERTEX
  5
26F
  8
FAB_2$_CUT_2
 10
-4102.947514561054
 20
223.7638417943284
 30
0.0
  0
VERTEX
  5
270
  8
FAB_2$_CUT_2
 10
-4103.279062084451
 20
223.8190457144576
 30
0.0
  0
VERTEX
  5
271
  8
FAB_2$_CUT_2
 10
-4103.610476018664
 20
223.8846878285054
 30
0.0
  0
VERTEX
  5
272
  8
FAB_2$_CUT_2
 10
-4103.940919860077
 20
223.9609549236861
 30
0.0
  0
VERTEX
  5
273
  8
FAB_2$_CUT_2
 10
-4104.269557105072
 20
224.0480337872141
 30
0.0
  0
VERTEX
  5
274
  8
FAB_2$_CUT_2
 10
-4104.595551250033
 20
224.1461112063036
 30
0.0
  0
VERTEX
  5
275
  8
FAB_2$_CUT_2
 10
-4104.75729575262
 20
224.1993327451884
 30
0.0
  0
VERTEX
  5
276
  8
FAB_2$_CUT_2
 10
-4104.918065791342
 20
224.255373968169
 30
0.0
  0
VERTEX
  5
277
  8
FAB_2$_CUT_2
 10
-4105.077756803247
 20
224.3142582236471
 30
0.0
  0
VERTEX
  5
278
  8
FAB_2$_CUT_2
 10
-4105.236264225383
 20
224.3760088600245
 30
0.0
  0
VERTEX
  5
279
  8
FAB_2$_CUT_2
 10
-4105.393483494797
 20
224.4406492257031
 30
0.0
  0
VERTEX
  5
27A
  8
FAB_2$_CUT_2
 10
-4105.549310048537
 20
224.5082026690845
 30
0.0
  0
VERTEX
  5
27B
  8
FAB_2$_CUT_2
 10
-4105.703639323652
 20
224.5786925385706
 30
0.0
  0
VERTEX
  5
27C
  8
FAB_2$_CUT_2
 10
-4105.85636675719
 20
224.6521421825632
 30
0.0
  0
VERTEX
  5
27D
  8
FAB_2$_CUT_2
 10
-4106.007387786198
 20
224.7285749494642
 30
0.0
  0
VERTEX
  5
27E
  8
FAB_2$_CUT_2
 10
-4106.156597847723
 20
224.8080141876751
 30
0.0
  0
VERTEX
  5
27F
  8
FAB_2$_CUT_2
 10
-4106.303892378814
 20
224.8904832455979
 30
0.0
  0
VERTEX
  5
280
  8
FAB_2$_CUT_2
 10
-4106.449166816518
 20
224.9760054716344
 30
0.0
  0
VERTEX
  5
281
  8
FAB_2$_CUT_2
 10
-4106.592316597885
 20
225.0646042141863
 30
0.0
  0
VERTEX
  5
282
  8
FAB_2$_CUT_2
 10
-4106.73323715996
 20
225.1563028216553
 30
0.0
  0
VERTEX
  5
283
  8
FAB_2$_CUT_2
 10
-4106.871823939795
 20
225.2511246424434
 30
0.0
  0
VERTEX
  5
284
  8
FAB_2$_CUT_2
 10
-4107.007972374433
 20
225.3490930249523
 30
0.0
  0
VERTEX
  5
285
  8
FAB_2$_CUT_2
 10
-4107.141577900924
 20
225.4502313175838
 30
0.0
  0
VERTEX
  5
286
  8
FAB_2$_CUT_2
 10
-4107.272535956316
 20
225.5545628687396
 30
0.0
  0
VERTEX
  5
287
  8
FAB_2$_CUT_2
 10
-4107.400741977658
 20
225.6621110268216
 30
0.0
  0
VERTEX
  5
288
  8
FAB_2$_CUT_2
 10
-4107.526091401996
 20
225.7728991402315
 30
0.0
  0
VERTEX
  5
289
  8
FAB_2$_CUT_2
 10
-4107.648500857244
 20
225.8869304533386
 30
0.0
  0
VERTEX
  5
28A
  8
FAB_2$_CUT_2
 10
-4107.767962181655
 20
226.0041188149217
 30
0.0
  0
VERTEX
  5
28B
  8
FAB_2$_CUT_2
 10
-4107.8844884817
 20
226.1243578844886
 30
0.0
  0
VERTEX
  5
28C
  8
FAB_2$_CUT_2
 10
-4107.998092863842
 20
226.2475413215467
 30
0.0
  0
VERTEX
  5
28D
  8
FAB_2$_CUT_2
 10
-4108.108788434551
 20
226.3735627856038
 30
0.0
  0
VERTEX
  5
28E
  8
FAB_2$_CUT_2
 10
-4108.216588300291
 20
226.5023159361673
 30
0.0
  0
VERTEX
  5
28F
  8
FAB_2$_CUT_2
 10
-4108.321505567531
 20
226.633694432745
 30
0.0
  0
VERTEX
  5
290
  8
FAB_2$_CUT_2
 10
-4108.423553342736
 20
226.7675919348444
 30
0.0
  0
VERTEX
  5
291
  8
FAB_2$_CUT_2
 10
-4108.522744732376
 20
226.903902101973
 30
0.0
  0
VERTEX
  5
292
  8
FAB_2$_CUT_2
 10
-4108.619092842914
 20
227.0425185936386
 30
0.0
  0
VERTEX
  5
293
  8
FAB_2$_CUT_2
 10
-4108.71261078082
 20
227.1833350693486
 30
0.0
  0
VERTEX
  5
294
  8
FAB_2$_CUT_2
 10
-4108.80331165256
 20
227.3262451886108
 30
0.0
  0
VERTEX
  5
295
  8
FAB_2$_CUT_2
 10
-4108.8912085646
 20
227.4711426109326
 30
0.0
  0
VERTEX
  5
296
  8
FAB_2$_CUT_2
 10
-4108.976314623407
 20
227.6179209958218
 30
0.0
  0
VERTEX
  5
297
  8
FAB_2$_CUT_2
 10
-4109.05864293545
 20
227.7664740027859
 30
0.0
  0
VERTEX
  5
298
  8
FAB_2$_CUT_2
 10
-4109.138206607193
 20
227.9166952913324
 30
0.0
  0
VERTEX
  5
299
  8
FAB_2$_CUT_2
 10
-4109.215018745104
 20
228.0684785209691
 30
0.0
  0
VERTEX
  5
29A
  8
FAB_2$_CUT_2
 10
-4109.28909245565
 20
228.2217173512034
 30
0.0
  0
VERTEX
  5
29B
  8
FAB_2$_CUT_2
 10
-4109.360440845298
 20
228.376305441543
 30
0.0
  0
VERTEX
  5
29C
  8
FAB_2$_CUT_2
 10
-4109.429077020515
 20
228.5321364514955
 30
0.0
  0
VERTEX
  5
29D
  8
FAB_2$_CUT_2
 10
-4109.558265153522
 20
228.8471018682697
 30
0.0
  0
VERTEX
  5
29E
  8
FAB_2$_CUT_2
 10
-4109.676761706409
 20
229.1657628775866
 30
0.0
  0
VERTEX
  5
29F
  8
FAB_2$_CUT_2
 10
-4109.784671530908
 20
229.487268755507
 30
0.0
  0
VERTEX
  5
2A0
  8
FAB_2$_CUT_2
 10
-4109.882099478755
 20
229.8107687780919
 30
0.0
  0
VERTEX
  5
2A1
  8
FAB_2$_CUT_2
 10
-4109.969150401686
 20
230.1354122214019
 30
0.0
  0
VERTEX
  5
2A2
  8
FAB_2$_CUT_2
 10
-4110.045929151434
 20
230.4603483614978
 30
0.0
  0
SEQEND
  5
2A3
  8
FAB_2$_CUT_2
  0
ARC
  5
2A4
  8
FAB_2$_CUT_2
 10
-4791.247638371397
 20
891.8127518004571
 30
0.0
 40
959.4592330070137
 50
315.8672352732729
 51
319.6902938241866
  0
ARC
  5
2A5
  8
FAB_2$_CUT_2
 10
-4068.353291400059
 20
268.9423441046383
 30
0.0
 40
9.016696452199104
 50
13.97834216490052
 51
81.57917958721276
  0
LINE
  5
2A6
  8
FAB_2$_CUT_2
 10
-4069.487874327936
 20
275.2985606350899
 30
0.0
 11
-4067.032863781226
 21
277.861833205171
 31
0.0
  0
ARC
  5
2A7
  8
FAB_2$_CUT_2
 10
-4070.059425345909
 20
275.8493496113388
 30
0.0
 40
0.7937500000001352
 50
227.774973066725
 51
316.0597873230469
  0
POLYLINE
  5
2A8
  8
FAB_2$_CUT_2
 66
     1
 10
0.0
 20
0.0
 30
0.0
  0
VERTEX
  5
2A9
  8
FAB_2$_CUT_2
 10
-4068.635428100706
 20
292.0145624198735
 30
0.0
  0
VERTEX
  5
2AA
  8
FAB_2$_CUT_2
 10
-4075.769910554689
 20
284.1518932858261
 30
0.0
  0
VERTEX
  5
2AB
  8
FAB_2$_CUT_2
 10
-4075.815912596711
 20
284.097668921256
 30
0.0
  0
VERTEX
  5
2AC
  8
FAB_2$_CUT_2
 10
-4075.861076074932
 20
284.0419388863591
 30
0.0
  0
VERTEX
  5
2AD
  8
FAB_2$_CUT_2
 10
-4075.905338878287
 20
283.9847132331589
 30
0.0
  0
VERTEX
  5
2AE
  8
FAB_2$_CUT_2
 10
-4075.948638357948
 20
283.9260050415853
 30
0.0
  0
VERTEX
  5
2AF
  8
FAB_2$_CUT_2
 10
-4075.990911492839
 20
283.8658305099797
 30
0.0
  0
VERTEX
  5
2B0
  8
FAB_2$_CUT_2
 10
-4076.032095065254
 20
283.8042090360208
 30
0.0
  0
VERTEX
  5
2B1
  8
FAB_2$_CUT_2
 10
-4076.072125846108
 20
283.7411632869935
 30
0.0
  0
VERTEX
  5
2B2
  8
FAB_2$_CUT_2
 10
-4076.110940789101
 20
283.6767192583346
 30
0.0
  0
VERTEX
  5
2B3
  8
FAB_2$_CUT_2
 10
-4076.14847723308
 20
283.6109063194272
 30
0.0
  0
VERTEX
  5
2B4
  8
FAB_2$_CUT_2
 10
-4076.184673111685
 20
283.5437572456602
 30
0.0
  0
VERTEX
  5
2B5
  8
FAB_2$_CUT_2
 10
-4076.219467169277
 20
283.4753082358342
 30
0.0
  0
VERTEX
  5
2B6
  8
FAB_2$_CUT_2
 10
-4076.252799182032
 20
283.4055989140653
 30
0.0
  0
VERTEX
  5
2B7
  8
FAB_2$_CUT_2
 10
-4076.284610182972
 20
283.3346723154365
 30
0.0
  0
VERTEX
  5
2B8
  8
FAB_2$_CUT_2
 10
-4076.314842689596
 20
283.2625748547455
 30
0.0
  0
VERTEX
  5
2B9
  8
FAB_2$_CUT_2
 10
-4076.343440932696
 20
283.1893562778179
 30
0.0
  0
VERTEX
  5
2BA
  8
FAB_2$_CUT_2
 10
-4076.370351084862
 20
283.1150695949888
 30
0.0
  0
VERTEX
  5
2BB
  8
FAB_2$_CUT_2
 10
-4076.395521487082
 20
283.0397709964954
 30
0.0
  0
VERTEX
  5
2BC
  8
FAB_2$_CUT_2
 10
-4076.418902871852
 20
282.9635197496797
 30
0.0
  0
VERTEX
  5
2BD
  8
FAB_2$_CUT_2
 10
-4076.440448581103
 20
282.8863780780628
 30
0.0
  0
VERTEX
  5
2BE
  8
FAB_2$_CUT_2
 10
-4076.46011477729
 20
282.8084110225178
 30
0.0
  0
VERTEX
  5
2BF
  8
FAB_2$_CUT_2
 10
-4076.477860645966
 20
282.7296862849477
 30
0.0
  0
VERTEX
  5
2C0
  8
FAB_2$_CUT_2
 10
-4076.493648588187
 20
282.6502740550447
 30
0.0
  0
VERTEX
  5
2C1
  8
FAB_2$_CUT_2
 10
-4076.507444401129
 20
282.5702468208891
 30
0.0
  0
VERTEX
  5
2C2
  8
FAB_2$_CUT_2
 10
-4076.519217445383
 20
282.4896791643093
 30
0.0
  0
VERTEX
  5
2C3
  8
FAB_2$_CUT_2
 10
-4076.528940797458
 20
282.4086475421044
 30
0.0
  0
VERTEX
  5
2C4
  8
FAB_2$_CUT_2
 10
-4076.536591386112
 20
282.3272300543734
 30
0.0
  0
VERTEX
  5
2C5
  8
FAB_2$_CUT_2
 10
-4076.542150111301
 20
282.2455062013584
 30
0.0
  0
VERTEX
  5
2C6
  8
FAB_2$_CUT_2
 10
-4076.545601944629
 20
282.1635566303295
 30
0.0
  0
VERTEX
  5
2C7
  8
FAB_2$_CUT_2
 10
-4076.546936010342
 20
282.081462874167
 30
0.0
  0
VERTEX
  5
2C8
  8
FAB_2$_CUT_2
 10
-4076.546145646117
 20
281.9993070833893
 30
0.0
  0
VERTEX
  5
2C9
  8
FAB_2$_CUT_2
 10
-4076.543228443039
 20
281.9171717534621
 30
0.0
  0
VERTEX
  5
2CA
  8
FAB_2$_CUT_2
 10
-4076.538186264354
 20
281.8351394492754
 30
0.0
  0
VERTEX
  5
2CB
  8
FAB_2$_CUT_2
 10
-4076.53102524281
 20
281.7532925287203
 30
0.0
  0
VERTEX
  5
2CC
  8
FAB_2$_CUT_2
 10
-4076.521755756564
 20
281.6717128673031
 30
0.0
  0
VERTEX
  5
2CD
  8
FAB_2$_CUT_2
 10
-4076.510392383857
 20
281.5904815857309
 30
0.0
  0
VERTEX
  5
2CE
  8
FAB_2$_CUT_2
 10
-4076.496953836852
 20
281.5096787823653
 30
0.0
  0
VERTEX
  5
2CF
  8
FAB_2$_CUT_2
 10
-4076.481462875206
 20
281.4293832723883
 30
0.0
  0
VERTEX
  5
2D0
  8
FAB_2$_CUT_2
 10
-4076.463946200163
 20
281.3496723354463
 30
0.0
  0
VERTEX
  5
2D1
  8
FAB_2$_CUT_2
 10
-4076.444434330088
 20
281.2706214734402
 30
0.0
  0
VERTEX
  5
2D2
  8
FAB_2$_CUT_2
 10
-4076.42296145856
 20
281.1923041800134
 30
0.0
  0
VERTEX
  5
2D3
  8
FAB_2$_CUT_2
 10
-4076.399565296263
 20
281.1147917231599
 30
0.0
  0
VERTEX
  5
2D4
  8
FAB_2$_CUT_2
 10
-4076.374286898033
 20
281.0381529422228
 30
0.0
  0
VERTEX
  5
2D5
  8
FAB_2$_CUT_2
 10
-4076.347170476557
 20
280.9624540604005
 30
0.0
  0
VERTEX
  5
2D6
  8
FAB_2$_CUT_2
 10
-4076.318263204274
 20
280.8877585137048
 30
0.0
  0
VERTEX
  5
2D7
  8
FAB_2$_CUT_2
 10
-4076.28761500512
 20
280.814126797147
 30
0.0
  0
VERTEX
  5
2D8
  8
FAB_2$_CUT_2
 10
-4076.255278337772
 20
280.741616328745
 30
0.0
  0
VERTEX
  5
2D9
  8
FAB_2$_CUT_2
 10
-4076.221307972132
 20
280.6702813317686
 30
0.0
  0
VERTEX
  5
2DA
  8
FAB_2$_CUT_2
 10
-4076.185760760712
 20
280.600172735463
 30
0.0
  0
VERTEX
  5
2DB
  8
FAB_2$_CUT_2
 10
-4076.148695406632
 20
280.5313380943162
 30
0.0
  0
VERTEX
  5
2DC
  8
FAB_2$_CUT_2
 10
-4076.110172229898
 20
280.4638215257708
 30
0.0
  0
VERTEX
  5
2DD
  8
FAB_2$_CUT_2
 10
-4076.070252933531
 20
280.3976636661218
 30
0.0
  0
VERTEX
  5
2DE
  8
FAB_2$_CUT_2
 10
-4076.029000371116
 20
280.3329016441945
 30
0.0
  0
VERTEX
  5
2DF
  8
FAB_2$_CUT_2
 10
-4075.986478317217
 20
280.2695690722596
 30
0.0
  0
VERTEX
  5
2E0
  8
FAB_2$_CUT_2
 10
-4075.942751242009
 20
280.20769605352
 30
0.0
  0
VERTEX
  5
2E1
  8
FAB_2$_CUT_2
 10
-4075.897884091408
 20
280.147309205396
 30
0.0
  0
VERTEX
  5
2E2
  8
FAB_2$_CUT_2
 10
-4075.851942073842
 20
280.0884316977366
 30
0.0
  0
VERTEX
  5
2E3
  8
FAB_2$_CUT_2
 10
-4075.804990454684
 20
280.0310833050107
 30
0.0
  0
VERTEX
  5
2E4
  8
FAB_2$_CUT_2
 10
-4075.757094359276
 20
279.9752804714624
 30
0.0
  0
VERTEX
  5
2E5
  8
FAB_2$_CUT_2
 10
-4075.708318585328
 20
279.9210363881664
 30
0.0
  0
VERTEX
  5
2E6
  8
FAB_2$_CUT_2
 10
-4075.658727425351
 20
279.8683610808859
 30
0.0
  0
VERTEX
  5
2E7
  8
FAB_2$_CUT_2
 10
-4075.608384499673
 20
279.8172615076111
 30
0.0
  0
VERTEX
  5
2E8
  8
FAB_2$_CUT_2
 10
-4075.55735260047
 20
279.7677416646495
 30
0.0
  0
VERTEX
  5
2E9
  8
FAB_2$_CUT_2
 10
-4070.592860358578
 20
275.2615689126419
 30
0.0
  0
SEQEND
  5
2EA
  8
FAB_2$_CUT_2
  0
LINE
  5
2EB
  8
FAB_2$_CUT_2
 10
-4068.635428100706
 20
292.0145624198735
 30
0.0
 11
-4072.407864826505
 21
287.8577681940073
 31
0.0
  0
POLYLINE
  5
2EC
  8
FAB_2$_CUT_2
 66
     1
 10
0.0
 20
0.0
 30
0.0
  0
VERTEX
  5
2ED
  8
FAB_2$_CUT_2
 10
-4117.202975163016
 20
238.4986292415556
 30
0.0
  0
VERTEX
  5
2EE
  8
FAB_2$_CUT_2
 10
-4127.54809590545
 20
227.0975646294344
 30
0.0
  0
VERTEX
  5
2EF
  8
FAB_2$_CUT_2
 10
-4127.594100078807
 20
227.0433408300796
 30
0.0
  0
VERTEX
  5
2F0
  8
FAB_2$_CUT_2
 10
-4127.639265714968
 20
226.9876112877267
 30
0.0
  0
VERTEX
  5
2F1
  8
FAB_2$_CUT_2
 10
-4127.683530699647
 20
226.9303860523809
 30
0.0
  0
VERTEX
  5
2F2
  8
FAB_2$_CUT_2
 10
-4127.726832380619
 20
226.8716782021165
 30
0.0
  0
VERTEX
  5
2F3
  8
FAB_2$_CUT_2
 10
-4127.769107733247
 20
226.8115039335965
 30
0.0
  0
VERTEX
  5
2F4
  8
FAB_2$_CUT_2
 10
-4127.810293536118
 20
226.7498826430151
 30
0.0
  0
VERTEX
  5
2F5
  8
FAB_2$_CUT_2
 10
-4127.850326556294
 20
226.6868369963801
 30
0.0
  0
VERTEX
  5
2F6
  8
FAB_2$_CUT_2
 10
-4127.889143743491
 20
226.6223929880732
 30
0.0
  0
VERTEX
  5
2F7
  8
FAB_2$_CUT_2
 10
-4127.926682432463
 20
226.5565799866575
 30
0.0
  0
VERTEX
  5
2F8
  8
FAB_2$_CUT_2
 10
-4127.962880552653
 20
226.4894307669494
 30
0.0
  0
VERTEX
  5
2F9
  8
FAB_2$_CUT_2
 10
-4127.997676844146
 20
226.4209815274351
 30
0.0
  0
VERTEX
  5
2FA
  8
FAB_2$_CUT_2
 10
-4128.031011078778
 20
226.351271892185
 30
0.0
  0
VERTEX
  5
2FB
  8
FAB_2$_CUT_2
 10
-4128.062824285186
 20
226.2803448965132
 30
0.0
  0
VERTEX
  5
2FC
  8
FAB_2$_CUT_2
 10
-4128.093058976463
 20
226.2082469557318
 30
0.0
  0
VERTEX
  5
2FD
  8
FAB_2$_CUT_2
 10
-4128.121659378992
 20
226.1350278164697
 30
0.0
  0
VERTEX
  5
2FE
  8
FAB_2$_CUT_2
 10
-4128.148571660973
 20
226.0607404901567
 30
0.0
  0
VERTEX
  5
2FF
  8
FAB_2$_CUT_2
 10
-4128.17374415905
 20
225.985441168418
 30
0.0
  0
VERTEX
  5
300
  8
FAB_2$_CUT_2
 10
-4128.197127601438
 20
225.9091891202764
 30
0.0
  0
VERTEX
  5
301
  8
FAB_2$_CUT_2
 10
-4128.218675325878
 20
225.8320465712224
 30
0.0
  0
VERTEX
  5
302
  8
FAB_2$_CUT_2
 10
-4128.238343490751
 20
225.7540785643837
 30
0.0
  0
VERTEX
  5
303
  8
FAB_2$_CUT_2
 10
-4128.256091277665
 20
225.6753528041944
 30
0.0
  0
VERTEX
  5
304
  8
FAB_2$_CUT_2
 10
-4128.271881083898
 20
225.5959394831468
 30
0.0
  0
VERTEX
  5
305
  8
FAB_2$_CUT_2
 10
-4128.285678703023
 20
225.5159110923763
 30
0.0
  0
VERTEX
  5
306
  8
FAB_2$_CUT_2
 10
-4128.297453492231
 20
225.4353422170109
 30
0.0
  0
VERTEX
  5
307
  8
FAB_2$_CUT_2
 10
-4128.30717852485
 20
225.3543093173754
 30
0.0
  0
VERTEX
  5
308
  8
FAB_2$_CUT_2
 10
-4128.314830726697
 20
225.2728904973055
 30
0.0
  0
VERTEX
  5
309
  8
FAB_2$_CUT_2
 10
-4128.320390995047
 20
225.1911652609706
 30
0.0
  0
VERTEX
  5
30A
  8
FAB_2$_CUT_2
 10
-4128.323844299088
 20
225.1092142597389
 30
0.0
  0
VERTEX
  5
30B
  8
FAB_2$_CUT_2
 10
-4128.325179760936
 20
225.0271190307367
 30
0.0
  0
VERTEX
  5
30C
  8
FAB_2$_CUT_2
 10
-4128.324390716439
 20
224.9449617288545
 30
0.0
  0
VERTEX
  5
30D
  8
FAB_2$_CUT_2
 10
-4128.321474755149
 20
224.8628248540305
 30
0.0
  0
VERTEX
  5
30E
  8
FAB_2$_CUT_2
 10
-4128.316433739092
 20
224.7807909757044
 30
0.0
  0
VERTEX
  5
30F
  8
FAB_2$_CUT_2
 10
-4128.309273800113
 20
224.6989424563677
 30
0.0
  0
VERTEX
  5
310
  8
FAB_2$_CUT_2
 10
-4128.30000531578
 20
224.6173611761533
 30
0.0
  0
VERTEX
  5
311
  8
FAB_2$_CUT_2
 10
-4128.288642864063
 20
224.5361282603946
 30
0.0
  0
VERTEX
  5
312
  8
FAB_2$_CUT_2
 10
-4128.275205157166
 20
224.455323812055
 30
0.0
  0
VERTEX
  5
313
  8
FAB_2$_CUT_2
 10
-4128.259714955097
 20
224.3750266508688
 30
0.0
  0
VERTEX
  5
314
  8
FAB_2$_CUT_2
 10
-4128.242198959751
 20
224.2953140609611
 30
0.0
  0
VERTEX
  5
315
  8
FAB_2$_CUT_2
 10
-4128.222687690435
 20
224.2162615486151
 30
0.0
  0
VERTEX
  5
316
  8
FAB_2$_CUT_2
 10
-4128.201215341951
 20
224.1379426117388
 30
0.0
  0
VERTEX
  5
317
  8
FAB_2$_CUT_2
 10
-4128.177819626474
 20
224.0604285224518
 30
0.0
  0
VERTEX
  5
318
  8
FAB_2$_CUT_2
 10
-4128.152541600582
 20
223.9837881240659
 30
0.0
  0
VERTEX
  5
319
  8
FAB_2$_CUT_2
 10
-4128.125425478938
 20
223.9080876435729
 30
0.0
  0
VERTEX
  5
31A
  8
FAB_2$_CUT_2
 10
-4128.09651843618
 20
223.8333905205886
 30
0.0
  0
VERTEX
  5
31B
  8
FAB_2$_CUT_2
 10
-4128.065870398638
 20
223.7597572535244
 30
0.0
  0
VERTEX
  5
31C
  8
FAB_2$_CUT_2
 10
-4128.03353382757
 20
223.687245263583
 30
0.0
  0
VERTEX
  5
31D
  8
FAB_2$_CUT_2
 10
-4127.999563495613
 20
223.615908776994
 30
0.0
  0
VERTEX
  5
31E
  8
FAB_2$_CUT_2
 10
-4127.964016258156
 20
223.5457987257297
 30
0.0
  0
VERTEX
  5
31F
  8
FAB_2$_CUT_2
 10
-4127.926950821318
 20
223.476962666767
 30
0.0
  0
VERTEX
  5
320
  8
FAB_2$_CUT_2
 10
-4127.888427508199
 20
223.4094447197948
 30
0.0
  0
VERTEX
  5
321
  8
FAB_2$_CUT_2
 10
-4127.848508024995
 20
223.3432855231107
 30
0.0
  0
VERTEX
  5
322
  8
FAB_2$_CUT_2
 10
-4127.807255228523
 20
223.278522207298
 30
0.0
  0
VERTEX
  5
323
  8
FAB_2$_CUT_2
 10
-4127.764732896619
 20
223.2151883861431
 30
0.0
  0
VERTEX
  5
324
  8
FAB_2$_CUT_2
 10
-4127.721005502748
 20
223.1533141641252
 30
0.0
  0
VERTEX
  5
325
  8
FAB_2$_CUT_2
 10
-4127.676137996122
 20
223.0929261597061
 30
0.0
  0
VERTEX
  5
326
  8
FAB_2$_CUT_2
 10
-4127.630195588444
 20
223.034047543548
 30
0.0
  0
VERTEX
  5
327
  8
FAB_2$_CUT_2
 10
-4127.583243548333
 20
222.9766980907119
 30
0.0
  0
VERTEX
  5
328
  8
FAB_2$_CUT_2
 10
-4127.535347004334
 20
222.920894245821
 30
0.0
  0
VERTEX
  5
329
  8
FAB_2$_CUT_2
 10
-4127.486570757294
 20
222.8666492001258
 30
0.0
  0
VERTEX
  5
32A
  8
FAB_2$_CUT_2
 10
-4127.436979102793
 20
222.8139729793727
 30
0.0
  0
VERTEX
  5
32B
  8
FAB_2$_CUT_2
 10
-4127.386635664147
 20
222.7628725413524
 30
0.0
  0
VERTEX
  5
32C
  8
FAB_2$_CUT_2
 10
-4127.335603236414
 20
222.7133518820018
 30
0.0
  0
VERTEX
  5
32D
  8
FAB_2$_CUT_2
 10
-4127.283943641745
 20
222.6654121489332
 30
0.0
  0
VERTEX
  5
32E
  8
FAB_2$_CUT_2
 10
-4112.830177008253
 20
209.5484780454796
 30
0.0
 42
0.4142135623732909
  0
VERTEX
  5
32F
  8
FAB_2$_CUT_2
 10
-4108.345313592336
 20
209.765849020023
 30
0.0
  0
VERTEX
  5
330
  8
FAB_2$_CUT_2
 10
-4086.960107137066
 20
229.6344687623663
 30
0.0
  0
VERTEX
  5
331
  8
FAB_2$_CUT_2
 10
-4080.528189993684
 20
235.8934876386871
 30
0.0
  0
VERTEX
  5
332
  8
FAB_2$_CUT_2
 10
-4079.966836963951
 20
236.4654562947458
 30
0.0
  0
VERTEX
  5
333
  8
FAB_2$_CUT_2
 10
-4076.216641679576
 20
240.5369605809333
 30
0.0
  0
VERTEX
  5
334
  8
FAB_2$_CUT_2
 10
-4072.63572751932
 20
244.5761311263623
 30
0.0
  0
VERTEX
  5
335
  8
FAB_2$_CUT_2
 10
-4069.130761326771
 20
248.6990219172292
 30
0.0
  0
VERTEX
  5
336
  8
FAB_2$_CUT_2
 10
-4065.608409945514
 20
253.0216869397306
 30
0.0
  0
VERTEX
  5
337
  8
FAB_2$_CUT_2
 10
-4058.138218991225
 20
262.7305556244222
 30
0.0
  0
VERTEX
  5
338
  8
FAB_2$_CUT_2
 10
-4049.478489405146
 20
274.6311690700086
 30
0.0
  0
SEQEND
  5
339
  8
FAB_2$_CUT_2
  0
POLYLINE
  5
33A
  8
FAB_2$_CUT_2
 66
     1
 10
0.0
 20
0.0
 30
0.0
  0
VERTEX
  5
33B
  8
FAB_2$_CUT_2
 10
-3800.570828680222
 20
254.7573548145565
 30
0.0
  0
VERTEX
  5
33C
  8
FAB_2$_CUT_2
 10
-3810.852122230996
 20
263.7548393665469
 30
0.0
  0
VERTEX
  5
33D
  8
FAB_2$_CUT_2
 10
-3820.969481095051
 20
272.2883498198804
 30
0.0
  0
VERTEX
  5
33E
  8
FAB_2$_CUT_2
 10
-3830.92317779441
 20
280.3581334665446
 30
0.0
  0
VERTEX
  5
33F
  8
FAB_2$_CUT_2
 10
-3840.713484851087
 20
287.964437598527
 30
0.0
  0
VERTEX
  5
340
  8
FAB_2$_CUT_2
 10
-3850.340674787103
 20
295.1075095078153
 30
0.0
  0
VERTEX
  5
341
  8
FAB_2$_CUT_2
 10
-3859.805020124476
 20
301.787596486397
 30
0.0
  0
VERTEX
  5
342
  8
FAB_2$_CUT_2
 10
-3869.106793385226
 20
308.0049458262596
 30
0.0
  0
VERTEX
  5
343
  8
FAB_2$_CUT_2
 10
-3878.246267091369
 20
313.7598048193909
 30
0.0
  0
VERTEX
  5
344
  8
FAB_2$_CUT_2
 10
-3887.223713764925
 20
319.0524207577783
 30
0.0
  0
VERTEX
  5
345
  8
FAB_2$_CUT_2
 10
-3896.039405927914
 20
323.8830409334094
 30
0.0
  0
VERTEX
  5
346
  8
FAB_2$_CUT_2
 10
-3900.386679231076
 20
326.1251798889375
 30
0.0
  0
VERTEX
  5
347
  8
FAB_2$_CUT_2
 10
-3904.693616102352
 20
328.2519126382718
 30
0.0
  0
VERTEX
  5
348
  8
FAB_2$_CUT_2
 10
-3908.960250606997
 20
330.2632700929108
 30
0.0
  0
VERTEX
  5
349
  8
FAB_2$_CUT_2
 10
-3913.186616810261
 20
332.1592831643531
 30
0.0
  0
VERTEX
  5
34A
  8
FAB_2$_CUT_2
 10
-3917.372748777396
 20
333.939982764097
 30
0.0
  0
VERTEX
  5
34B
  8
FAB_2$_CUT_2
 10
-3921.518680573655
 20
335.6053998036408
 30
0.0
  0
VERTEX
  5
34C
  8
FAB_2$_CUT_2
 10
-3925.624446264292
 20
337.1555651944832
 30
0.0
  0
VERTEX
  5
34D
  8
FAB_2$_CUT_2
 10
-3929.690079914557
 20
338.5905098481226
 30
0.0
  0
VERTEX
  5
34E
  8
FAB_2$_CUT_2
 10
-3933.715615589703
 20
339.9102646760573
 30
0.0
  0
VERTEX
  5
34F
  8
FAB_2$_CUT_2
 10
-3937.701087354983
 20
341.114860589786
 30
0.0
  0
VERTEX
  5
350
  8
FAB_2$_CUT_2
 10
-3941.646529275649
 20
342.2043285008068
 30
0.0
  0
VERTEX
  5
351
  8
FAB_2$_CUT_2
 10
-3945.551975416952
 20
343.1786993206185
 30
0.0
  0
VERTEX
  5
352
  8
FAB_2$_CUT_2
 10
-3949.417459844147
 20
344.0380039607194
 30
0.0
  0
VERTEX
  5
353
  8
FAB_2$_CUT_2
 10
-3953.243016622484
 20
344.7822733326078
 30
0.0
  0
VERTEX
  5
354
  8
FAB_2$_CUT_2
 10
-3957.028679817216
 20
345.4115383477824
 30
0.0
  0
VERTEX
  5
355
  8
FAB_2$_CUT_2
 10
-3960.774483493596
 20
345.9258299177415
 30
0.0
  0
VERTEX
  5
356
  8
FAB_2$_CUT_2
 10
-3964.480461716875
 20
346.3251789539835
 30
0.0
  0
VERTEX
  5
357
  8
FAB_2$_CUT_2
 10
-3968.146648552306
 20
346.609616368007
 30
0.0
  0
VERTEX
  5
358
  8
FAB_2$_CUT_2
 10
-3971.773078065143
 20
346.7791730713104
 30
0.0
  0
VERTEX
  5
359
  8
FAB_2$_CUT_2
 10
-3975.359784320635
 20
346.8338799753921
 30
0.0
  0
VERTEX
  5
35A
  8
FAB_2$_CUT_2
 10
-3978.906801384036
 20
346.7737679917504
 30
0.0
  0
VERTEX
  5
35B
  8
FAB_2$_CUT_2
 10
-3982.4141633206
 20
346.5988680318841
 30
0.0
  0
VERTEX
  5
35C
  8
FAB_2$_CUT_2
 10
-3985.881904195577
 20
346.3092110072915
 30
0.0
  0
VERTEX
  5
35D
  8
FAB_2$_CUT_2
 10
-3989.310058074219
 20
345.9048278294709
 30
0.0
  0
VERTEX
  5
35E
  8
FAB_2$_CUT_2
 10
-3992.69865902178
 20
345.3857494099209
 30
0.0
  0
VERTEX
  5
35F
  8
FAB_2$_CUT_2
 10
-3994.378137791797
 20
345.0832091443406
 30
0.0
  0
VERTEX
  5
360
  8
FAB_2$_CUT_2
 10
-3996.047741103513
 20
344.7520066601398
 30
0.0
  0
VERTEX
  5
361
  8
FAB_2$_CUT_2
 10
-3997.707473215084
 20
344.392145821256
 30
0.0
  0
VERTEX
  5
362
  8
FAB_2$_CUT_2
 10
-3999.357338384668
 20
344.0036304916263
 30
0.0
  0
VERTEX
  5
363
  8
FAB_2$_CUT_2
 10
-4000.99734087042
 20
343.586464535188
 30
0.0
  0
VERTEX
  5
364
  8
FAB_2$_CUT_2
 10
-4002.627484930498
 20
343.1406518158786
 30
0.0
  0
VERTEX
  5
365
  8
FAB_2$_CUT_2
 10
-4004.247774823058
 20
342.6661961976353
 30
0.0
  0
VERTEX
  5
366
  8
FAB_2$_CUT_2
 10
-4005.858214806256
 20
342.1631015443953
 30
0.0
  0
VERTEX
  5
367
  8
FAB_2$_CUT_2
 10
-4007.458809138249
 20
341.631371720096
 30
0.0
  0
VERTEX
  5
368
  8
FAB_2$_CUT_2
 10
-4009.049562077194
 20
341.0710105886747
 30
0.0
  0
VERTEX
  5
369
  8
FAB_2$_CUT_2
 10
-4010.630477881247
 20
340.4820220140688
 30
0.0
  0
VERTEX
  5
36A
  8
FAB_2$_CUT_2
 10
-4012.201560808564
 20
339.8644098602154
 30
0.0
  0
VERTEX
  5
36B
  8
FAB_2$_CUT_2
 10
-4013.762815117303
 20
339.218177991052
 30
0.0
  0
VERTEX
  5
36C
  8
FAB_2$_CUT_2
 10
-4015.31424506562
 20
338.5433302705158
 30
0.0
  0
VERTEX
  5
36D
  8
FAB_2$_CUT_2
 10
-4016.85585491167
 20
337.8398705625441
 30
0.0
  0
VERTEX
  5
36E
  8
FAB_2$_CUT_2
 10
-4018.387648913611
 20
337.1078027310742
 30
0.0
  0
VERTEX
  5
36F
  8
FAB_2$_CUT_2
 10
-4019.9096313296
 20
336.3471306400436
 30
0.0
  0
VERTEX
  5
370
  8
FAB_2$_CUT_2
 10
-4021.421806417793
 20
335.5578581533894
 30
0.0
  0
VERTEX
  5
371
  8
FAB_2$_CUT_2
 10
-4024.416751643416
 20
333.8935274489594
 30
0.0
  0
VERTEX
  5
372
  8
FAB_2$_CUT_2
 10
-4027.372518655733
 20
332.114841529283
 30
0.0
  0
VERTEX
  5
373
  8
FAB_2$_CUT_2
 10
-4030.289141519996
 20
330.2218313058585
 30
0.0
  0
VERTEX
  5
374
  8
FAB_2$_CUT_2
 10
-4033.166654301458
 20
328.2145276901844
 30
0.0
  0
VERTEX
  5
375
  8
FAB_2$_CUT_2
 10
-4036.005091065371
 20
326.092961593759
 30
0.0
  0
VERTEX
  5
376
  8
FAB_2$_CUT_2
 10
-4038.804485876987
 20
323.857163928081
 30
0.0
  0
VERTEX
  5
377
  8
FAB_2$_CUT_2
 10
-4041.564872801559
 20
321.5071656046486
 30
0.0
  0
VERTEX
  5
378
  8
FAB_2$_CUT_2
 10
-4044.286285904338
 20
319.0429975349604
 30
0.0
  0
VERTEX
  5
379
  8
FAB_2$_CUT_2
 10
-4046.968759250577
 20
316.4646906305148
 30
0.0
  0
VERTEX
  5
37A
  8
FAB_2$_CUT_2
 10
-4049.61232690553
 20
313.7722758028103
 30
0.0
  0
VERTEX
  5
37B
  8
FAB_2$_CUT_2
 10
-4052.09302463748
 20
311.1081571297662
 30
0.0
  0
VERTEX
  5
37C
  8
FAB_2$_CUT_2
 10
-4054.540448037573
 20
308.3698281216607
 30
0.0
  0
VERTEX
  5
37D
  8
FAB_2$_CUT_2
 10
-4068.635428100706
 20
292.0145624198735
 30
0.0
  0
SEQEND
  5
37E
  8
FAB_2$_CUT_2
  0
LINE
  5
37F
  8
FAB_2$_CUT_2
 10
-4030.060366190033
 20
296.0304314883356
 30
0.0
 11
-4049.478489405146
 21
274.6311690700086
 31
0.0
  0
POLYLINE
  5
380
  8
FAB_2$_CUT_2
 66
     1
 10
0.0
 20
0.0
 30
0.0
 70
     1
  0
VERTEX
  5
381
  8
FAB_2$_CUT_2
 10
-4068.415439371401
 20
253.8202552280895
 30
0.0
  0
VERTEX
  5
382
  8
FAB_2$_CUT_2
 10
-4069.354503777893
 20
254.6752745497774
 30
0.0
  0
VERTEX
  5
383
  8
FAB_2$_CUT_2
 10
-4067.644465134517
 20
256.5534033627619
 30
0.0
  0
VERTEX
  5
384
  8
FAB_2$_CUT_2
 10
-4066.705400728025
 20
255.6983840410744
 30
0.0
  0
SEQEND
  5
385
  8
FAB_2$_CUT_2
  0
POLYLINE
  5
386
  8
FAB_2$_CUT_2
 66
     1
 10
0.0
 20
0.0
 30
0.0
 70
     1
  0
VERTEX
  5
387
  8
FAB_2$_CUT_2
 10
-4086.24867505067
 20
234.1675789194155
 30
0.0
  0
VERTEX
  5
388
  8
FAB_2$_CUT_2
 10
-4087.952366689943
 20
232.2836907066285
 30
0.0
  0
VERTEX
  5
389
  8
FAB_2$_CUT_2
 10
-4088.894310796335
 20
233.1355365262652
 30
0.0
  0
VERTEX
  5
38A
  8
FAB_2$_CUT_2
 10
-4087.190619157063
 20
235.0194247390514
 30
0.0
  0
SEQEND
  5
38B
  8
FAB_2$_CUT_2
  0
CIRCLE
  5
38C
  8
FAB_2$_CUT_2
 10
-4120.278359634904
 20
225.4793647489719
 30
0.0
 40
1.778000000000025
  0
CIRCLE
  5
38D
  8
FAB_2$_CUT_2
 10
-4110.711165562383
 20
216.7751643926795
 30
0.0
 40
1.777999999999844
  0
POLYLINE
  5
38E
  8
FAB_2$_CUT_2
 66
     1
 10
0.0
 20
0.0
 30
0.0
  0
VERTEX
  5
38F
  8
FAB_2$_CUT_2
 10
-4030.060366190033
 20
296.0304314883356
 30
0.0
  0
VERTEX
  5
390
  8
FAB_2$_CUT_2
 10
-4029.136084930218
 20
297.1222563884015
 30
0.0
  0
VERTEX
  5
391
  8
FAB_2$_CUT_2
 10
-4028.200143996194
 20
298.1894353126249
 30
0.0
  0
VERTEX
  5
392
  8
FAB_2$_CUT_2
 10
-4027.25254338796
 20
299.2319682610058
 30
0.0
  0
VERTEX
  5
393
  8
FAB_2$_CUT_2
 10
-4026.293283105518
 20
300.2498552335443
 30
0.0
  0
VERTEX
  5
394
  8
FAB_2$_CUT_2
 10
-4025.322363148866
 20
301.2430962302402
 30
0.0
  0
VERTEX
  5
395
  8
FAB_2$_CUT_2
 10
-4024.339783518007
 20
302.2116912510936
 30
0.0
  0
VERTEX
  5
396
  8
FAB_2$_CUT_2
 10
-4023.345544212937
 20
303.1556402961045
 30
0.0
  0
VERTEX
  5
397
  8
FAB_2$_CUT_2
 10
-4022.339645233659
 20
304.0749433652728
 30
0.0
  0
VERTEX
  5
398
  8
FAB_2$_CUT_2
 10
-4021.322086580172
 20
304.9696004585986
 30
0.0
  0
VERTEX
  5
399
  8
FAB_2$_CUT_2
 10
-4020.292868252476
 20
305.8396115760819
 30
0.0
  0
VERTEX
  5
39A
  8
FAB_2$_CUT_2
 10
-4019.25199025057
 20
306.6849767177227
 30
0.0
  0
VERTEX
  5
39B
  8
FAB_2$_CUT_2
 10
-4018.199452574456
 20
307.5056958835211
 30
0.0
  0
VERTEX
  5
39C
  8
FAB_2$_CUT_2
 10
-4017.135255224132
 20
308.3017690734769
 30
0.0
  0
VERTEX
  5
39D
  8
FAB_2$_CUT_2
 10
-4016.059398199601
 20
309.0731962875901
 30
0.0
  0
VERTEX
  5
39E
  8
FAB_2$_CUT_2
 10
-4014.971881500859
 20
309.8199775258609
 30
0.0
  0
VERTEX
  5
39F
  8
FAB_2$_CUT_2
 10
-4013.872705127908
 20
310.5421127882892
 30
0.0
  0
VERTEX
  5
3A0
  8
FAB_2$_CUT_2
 10
-4012.761869080749
 20
311.2396020748749
 30
0.0
  0
VERTEX
  5
3A1
  8
FAB_2$_CUT_2
 10
-4011.63937335938
 20
311.9124453856181
 30
0.0
  0
VERTEX
  5
3A2
  8
FAB_2$_CUT_2
 10
-4010.505217963803
 20
312.5606427205188
 30
0.0
  0
VERTEX
  5
3A3
  8
FAB_2$_CUT_2
 10
-4009.359402894017
 20
313.184194079577
 30
0.0
  0
VERTEX
  5
3A4
  8
FAB_2$_CUT_2
 10
-4008.201928150022
 20
313.7830994627926
 30
0.0
  0
VERTEX
  5
3A5
  8
FAB_2$_CUT_2
 10
-4007.032793731817
 20
314.3573588701658
 30
0.0
  0
VERTEX
  5
3A6
  8
FAB_2$_CUT_2
 10
-4005.851999639403
 20
314.9069723016964
 30
0.0
  0
VERTEX
  5
3A7
  8
FAB_2$_CUT_2
 10
-4004.659545872781
 20
315.4319397573846
 30
0.0
  0
VERTEX
  5
3A8
  8
FAB_2$_CUT_2
 10
-4003.455432431949
 20
315.9322612372303
 30
0.0
  0
VERTEX
  5
3A9
  8
FAB_2$_CUT_2
 10
-4002.239659316909
 20
316.4079367412334
 30
0.0
  0
VERTEX
  5
3AA
  8
FAB_2$_CUT_2
 10
-4001.012226527659
 20
316.8589662693939
 30
0.0
  0
VERTEX
  5
3AB
  8
FAB_2$_CUT_2
 10
-3999.7731340642
 20
317.285349821712
 30
0.0
  0
VERTEX
  5
3AC
  8
FAB_2$_CUT_2
 10
-3998.522381926533
 20
317.6870873981875
 30
0.0
  0
VERTEX
  5
3AD
  8
FAB_2$_CUT_2
 10
-3997.259970114656
 20
318.0641789988205
 30
0.0
  0
VERTEX
  5
3AE
  8
FAB_2$_CUT_2
 10
-3995.985898628571
 20
318.4166246236111
 30
0.0
  0
VERTEX
  5
3AF
  8
FAB_2$_CUT_2
 10
-3994.700167468276
 20
318.7444242725591
 30
0.0
  0
VERTEX
  5
3B0
  8
FAB_2$_CUT_2
 10
-3993.402776633772
 20
319.0475779456646
 30
0.0
  0
VERTEX
  5
3B1
  8
FAB_2$_CUT_2
 10
-3992.09372612506
 20
319.3260856429276
 30
0.0
  0
VERTEX
  5
3B2
  8
FAB_2$_CUT_2
 10
-3990.773015942138
 20
319.5799473643481
 30
0.0
  0
VERTEX
  5
3B3
  8
FAB_2$_CUT_2
 10
-3989.440646085008
 20
319.8091631099261
 30
0.0
  0
VERTEX
  5
3B4
  8
FAB_2$_CUT_2
 10
-3988.096616553667
 20
320.0137328796615
 30
0.0
  0
VERTEX
  5
3B5
  8
FAB_2$_CUT_2
 10
-3986.740927348119
 20
320.1936566735544
 30
0.0
  0
VERTEX
  5
3B6
  8
FAB_2$_CUT_2
 10
-3985.373578468361
 20
320.3489344916048
 30
0.0
  0
VERTEX
  5
3B7
  8
FAB_2$_CUT_2
 10
-3983.994569914395
 20
320.4795663338128
 30
0.0
  0
VERTEX
  5
3B8
  8
FAB_2$_CUT_2
 10
-3982.603901686218
 20
320.5855522001782
 30
0.0
  0
VERTEX
  5
3B9
  8
FAB_2$_CUT_2
 10
-3981.201573783834
 20
320.666892090701
 30
0.0
  0
VERTEX
  5
3BA
  8
FAB_2$_CUT_2
 10
-3979.78758620724
 20
320.7235860053814
 30
0.0
  0
VERTEX
  5
3BB
  8
FAB_2$_CUT_2
 10
-3978.361938956437
 20
320.7556339442193
 30
0.0
  0
VERTEX
  5
3BC
  8
FAB_2$_CUT_2
 10
-3975.475665432205
 20
320.7457918943675
 30
0.0
  0
VERTEX
  5
3BD
  8
FAB_2$_CUT_2
 10
-3972.542753211135
 20
320.6373659411456
 30
0.0
  0
VERTEX
  5
3BE
  8
FAB_2$_CUT_2
 10
-3969.56320229323
 20
320.4303560845536
 30
0.0
  0
VERTEX
  5
3BF
  8
FAB_2$_CUT_2
 10
-3966.53701267849
 20
320.1247623245916
 30
0.0
  0
VERTEX
  5
3C0
  8
FAB_2$_CUT_2
 10
-3963.464184366913
 20
319.7205846612595
 30
0.0
  0
VERTEX
  5
3C1
  8
FAB_2$_CUT_2
 10
-3960.3447173585
 20
319.2178230945574
 30
0.0
  0
VERTEX
  5
3C2
  8
FAB_2$_CUT_2
 10
-3957.178611653251
 20
318.6164776244852
 30
0.0
  0
VERTEX
  5
3C3
  8
FAB_2$_CUT_2
 10
-3953.965867251166
 20
317.916548251043
 30
0.0
  0
VERTEX
  5
3C4
  8
FAB_2$_CUT_2
 10
-3950.706484152245
 20
317.1180349742307
 30
0.0
  0
VERTEX
  5
3C5
  8
FAB_2$_CUT_2
 10
-3947.400462356488
 20
316.2209377940484
 30
0.0
  0
VERTEX
  5
3C6
  8
FAB_2$_CUT_2
 10
-3944.047801863895
 20
315.225256710496
 30
0.0
  0
VERTEX
  5
3C7
  8
FAB_2$_CUT_2
 10
-3940.648502674466
 20
314.1309917235736
 30
0.0
  0
VERTEX
  5
3C8
  8
FAB_2$_CUT_2
 10
-3937.202564788201
 20
312.9381428332811
 30
0.0
  0
VERTEX
  5
3C9
  8
FAB_2$_CUT_2
 10
-3933.709988205099
 20
311.6467100396185
 30
0.0
  0
VERTEX
  5
3CA
  8
FAB_2$_CUT_2
 10
-3930.170772925162
 20
310.2566933425859
 30
0.0
  0
VERTEX
  5
3CB
  8
FAB_2$_CUT_2
 10
-3926.584918948388
 20
308.7680927421832
 30
0.0
  0
VERTEX
  5
3CC
  8
FAB_2$_CUT_2
 10
-3922.952426274778
 20
307.1809082384105
 30
0.0
  0
VERTEX
  5
3CD
  8
FAB_2$_CUT_2
 10
-3919.273294904332
 20
305.4951398312677
 30
0.0
  0
VERTEX
  5
3CE
  8
FAB_2$_CUT_2
 10
-3911.775116072933
 20
301.827851306872
 30
0.0
  0
VERTEX
  5
3CF
  8
FAB_2$_CUT_2
 10
-3904.090382454189
 20
297.7662271689961
 30
0.0
  0
VERTEX
  5
3D0
  8
FAB_2$_CUT_2
 10
-3896.219094048101
 20
293.3102674176399
 30
0.0
  0
VERTEX
  5
3D1
  8
FAB_2$_CUT_2
 10
-3888.161250854669
 20
288.4599720528035
 30
0.0
  0
VERTEX
  5
3D2
  8
FAB_2$_CUT_2
 10
-3879.916852873892
 20
283.2153410744869
 30
0.0
  0
VERTEX
  5
3D3
  8
FAB_2$_CUT_2
 10
-3871.485900105772
 20
277.5763744826901
 30
0.0
  0
VERTEX
  5
3D4
  8
FAB_2$_CUT_2
 10
-3862.868392550306
 20
271.543072277413
 30
0.0
  0
VERTEX
  5
3D5
  8
FAB_2$_CUT_2
 10
-3854.064330207497
 20
265.1154344586557
 30
0.0
  0
VERTEX
  5
3D6
  8
FAB_2$_CUT_2
 10
-3835.896541159846
 20
251.0771519807005
 30
0.0
  0
VERTEX
  5
3D7
  8
FAB_2$_CUT_2
 10
-3816.982532962818
 20
235.4615270488243
 30
0.0
  0
SEQEND
  5
3D8
  8
FAB_2$_CUT_2
  0
LINE
  5
3D9
  8
FAB_2$_CUT_2
 10
-3799.738882567863
 20
221.2525280256973
 30
0.0
 11
-3790.163137100865
 21
231.8295244297615
 31
0.0
  0
ARC
  5
3DA
  8
FAB_2$_CUT_2
 10
-3800.32669858343
 20
221.7859241208694
 30
0.0
 40
0.7937500000006456
 50
228.9891061350225
 51
317.7787665585874
  0
LINE
  5
3DB
  8
FAB_2$_CUT_2
 10
-3780.515410545093
 20
223.1162373172501
 30
0.0
 11
-3790.163137100865
 21
231.8295244297615
 31
0.0
  0
LINE
  5
3DC
  8
FAB_2$_CUT_2
 10
-3780.515410545093
 20
223.1162373172501
 30
0.0
 11
-3790.023695992617
 21
212.6416411674036
 31
0.0
  0
LINE
  5
3DD
  8
FAB_2$_CUT_2
 10
-3769.108960884828
 20
226.2566279297025
 30
0.0
 11
-3787.981383708213
 21
243.3334380039014
 31
0.0
  0
ARC
  5
3DE
  8
FAB_2$_CUT_2
 10
-3771.23462631115
 20
223.8982022905661
 30
0.0
 40
3.1749999999995
 50
317.778764548716
 51
47.97144262196759
  0
LINE
  5
3DF
  8
FAB_2$_CUT_2
 10
-3781.324645293129
 20
208.054009642794
 30
0.0
 11
-3768.883362323732
 21
221.764617827399
 31
0.0
  0
ARC
  5
3E0
  8
FAB_2$_CUT_2
 10
-3783.675909280549
 20
210.1875941059598
 30
0.0
 40
3.175000000000076
 50
227.9609468143066
 51
317.7787645487393
  0
POLYLINE
  5
3E1
  8
FAB_2$_CUT_2
 66
     1
 10
0.0
 20
0.0
 30
0.0
  0
VERTEX
  5
3E2
  8
FAB_2$_CUT_2
 10
-3790.023695992617
 20
212.6416411674036
 30
0.0
  0
VERTEX
  5
3E3
  8
FAB_2$_CUT_2
 10
-3790.036405791025
 20
212.6272901582009
 30
0.0
  0
VERTEX
  5
3E4
  8
FAB_2$_CUT_2
 10
-3790.048820864586
 20
212.6125688917089
 30
0.0
  0
VERTEX
  5
3E5
  8
FAB_2$_CUT_2
 10
-3790.060925894942
 20
212.597485952566
 30
0.0
  0
VERTEX
  5
3E6
  8
FAB_2$_CUT_2
 10
-3790.072705871629
 20
212.582050739569
 30
0.0
  0
VERTEX
  5
3E7
  8
FAB_2$_CUT_2
 10
-3790.084146144733
 20
212.5662734536412
 30
0.0
  0
VERTEX
  5
3E8
  8
FAB_2$_CUT_2
 10
-3790.095232477173
 20
212.5501650817909
 30
0.0
  0
VERTEX
  5
3E9
  8
FAB_2$_CUT_2
 10
-3790.105951096213
 20
212.5337373770552
 30
0.0
  0
VERTEX
  5
3EA
  8
FAB_2$_CUT_2
 10
-3790.11628874387
 20
212.5170028344577
 30
0.0
  0
VERTEX
  5
3EB
  8
FAB_2$_CUT_2
 10
-3790.12623272586
 20
212.4999746630493
 30
0.0
  0
VERTEX
  5
3EC
  8
FAB_2$_CUT_2
 10
-3790.135770958724
 20
212.4826667541302
 30
0.0
  0
VERTEX
  5
3ED
  8
FAB_2$_CUT_2
 10
-3790.144892014801
 20
212.4650936457955
 30
0.0
  0
VERTEX
  5
3EE
  8
FAB_2$_CUT_2
 10
-3790.15358516471
 20
212.4472704839728
 30
0.0
  0
VERTEX
  5
3EF
  8
FAB_2$_CUT_2
 10
-3790.161840417019
 20
212.4292129801608
 30
0.0
  0
VERTEX
  5
3F0
  8
FAB_2$_CUT_2
 10
-3790.169648554823
 20
212.4109373661077
 30
0.0
  0
VERTEX
  5
3F1
  8
FAB_2$_CUT_2
 10
-3790.177001168941
 20
212.3924603456962
 30
0.0
  0
VERTEX
  5
3F2
  8
FAB_2$_CUT_2
 10
-3790.183890687508
 20
212.373799044333
 30
0.0
  0
VERTEX
  5
3F3
  8
FAB_2$_CUT_2
 10
-3790.190310401711
 20
212.3549709561616
 30
0.0
  0
VERTEX
  5
3F4
  8
FAB_2$_CUT_2
 10
-3790.196254487536
 20
212.3359938894398
 30
0.0
  0
VERTEX
  5
3F5
  8
FAB_2$_CUT_2
 10
-3790.201718023341
 20
212.3168859104391
 30
0.0
  0
VERTEX
  5
3F6
  8
FAB_2$_CUT_2
 10
-3790.206697003146
 20
212.2976652862373
 30
0.0
  0
VERTEX
  5
3F7
  8
FAB_2$_CUT_2
 10
-3790.211188345592
 20
212.2783504267833
 30
0.0
  0
VERTEX
  5
3F8
  8
FAB_2$_CUT_2
 10
-3790.215189898512
 20
212.2589598266185
 30
0.0
  0
VERTEX
  5
3F9
  8
FAB_2$_CUT_2
 10
-3790.218700439115
 20
212.2395120066383
 30
0.0
  0
VERTEX
  5
3FA
  8
FAB_2$_CUT_2
 10
-3790.221719669853
 20
212.2200254562747
 30
0.0
  0
VERTEX
  5
3FB
  8
FAB_2$_CUT_2
 10
-3790.224248210005
 20
212.2005185764698
 30
0.0
  0
VERTEX
  5
3FC
  8
FAB_2$_CUT_2
 10
-3790.22628758314
 20
212.181009623801
 30
0.0
  0
VERTEX
  5
3FD
  8
FAB_2$_CUT_2
 10
-3790.227840200568
 20
212.1615166561006
 30
0.0
  0
VERTEX
  5
3FE
  8
FAB_2$_CUT_2
 10
-3790.22890934099
 20
212.1420574798921
 30
0.0
  0
VERTEX
  5
3FF
  8
FAB_2$_CUT_2
 10
-3790.229499126524
 20
212.1226495999458
 30
0.0
  0
VERTEX
  5
400
  8
FAB_2$_CUT_2
 10
-3790.229614495379
 20
212.103310171227
 30
0.0
  0
VERTEX
  5
401
  8
FAB_2$_CUT_2
 10
-3790.229261171387
 20
212.0840559534867
 30
0.0
  0
VERTEX
  5
402
  8
FAB_2$_CUT_2
 10
-3790.228445630723
 20
212.0649032687111
 30
0.0
  0
VERTEX
  5
403
  8
FAB_2$_CUT_2
 10
-3790.227167800702
 20
212.045775864519
 30
0.0
  0
VERTEX
  5
404
  8
FAB_2$_CUT_2
 10
-3790.225419438623
 20
212.026597935312
 30
0.0
  0
VERTEX
  5
405
  8
FAB_2$_CUT_2
 10
-3790.223195886763
 20
212.00738641194
 30
0.0
  0
VERTEX
  5
406
  8
FAB_2$_CUT_2
 10
-3790.220493282993
 20
211.9881585783687
 30
0.0
  0
VERTEX
  5
407
  8
FAB_2$_CUT_2
 10
-3790.217308589217
 20
211.9689320257524
 30
0.0
  0
VERTEX
  5
408
  8
FAB_2$_CUT_2
 10
-3790.213639616706
 20
211.9497246039742
 30
0.0
  0
VERTEX
  5
409
  8
FAB_2$_CUT_2
 10
-3790.209485048029
 20
211.9305543708999
 30
0.0
  0
VERTEX
  5
40A
  8
FAB_2$_CUT_2
 10
-3790.204844455371
 20
211.911439539621
 30
0.0
  0
VERTEX
  5
40B
  8
FAB_2$_CUT_2
 10
-3790.199718315043
 20
211.8923984239851
 30
0.0
  0
VERTEX
  5
40C
  8
FAB_2$_CUT_2
 10
-3790.19410801799
 20
211.8734493827354
 30
0.0
  0
VERTEX
  5
40D
  8
FAB_2$_CUT_2
 10
-3790.188015876171
 20
211.8546107626007
 30
0.0
  0
VERTEX
  5
40E
  8
FAB_2$_CUT_2
 10
-3790.181445124696
 20
211.835900840694
 30
0.0
  0
VERTEX
  5
40F
  8
FAB_2$_CUT_2
 10
-3790.174399919641
 20
211.8173377665861
 30
0.0
  0
VERTEX
  5
410
  8
FAB_2$_CUT_2
 10
-3790.166885331505
 20
211.7989395044364
 30
0.0
  0
VERTEX
  5
411
  8
FAB_2$_CUT_2
 10
-3790.158907334314
 20
211.7807237755601
 30
0.0
  0
VERTEX
  5
412
  8
FAB_2$_CUT_2
 10
-3790.150472790404
 20
211.7627080018143
 30
0.0
  0
VERTEX
  5
413
  8
FAB_2$_CUT_2
 10
-3790.141589430963
 20
211.7449092501819
 30
0.0
  0
VERTEX
  5
414
  8
FAB_2$_CUT_2
 10
-3790.132265832445
 20
211.7273441789223
 30
0.0
  0
VERTEX
  5
415
  8
FAB_2$_CUT_2
 10
-3790.12251138901
 20
211.7100289856442
 30
0.0
  0
VERTEX
  5
416
  8
FAB_2$_CUT_2
 10
-3790.11233628117
 20
211.6929793576417
 30
0.0
  0
VERTEX
  5
417
  8
FAB_2$_CUT_2
 10
-3790.101751440859
 20
211.6762104248104
 30
0.0
  0
VERTEX
  5
418
  8
FAB_2$_CUT_2
 10
-3790.090768513192
 20
211.6597367154416
 30
0.0
  0
VERTEX
  5
419
  8
FAB_2$_CUT_2
 10
-3790.079399815159
 20
211.6435721151571
 30
0.0
  0
VERTEX
  5
41A
  8
FAB_2$_CUT_2
 10
-3790.067658291584
 20
211.6277298292273
 30
0.0
  0
VERTEX
  5
41B
  8
FAB_2$_CUT_2
 10
-3790.05555746865
 20
211.6122223484738
 30
0.0
  0
VERTEX
  5
41C
  8
FAB_2$_CUT_2
 10
-3790.043111405324
 20
211.5970614189285
 30
0.0
  0
VERTEX
  5
41D
  8
FAB_2$_CUT_2
 10
-3790.03033464305
 20
211.5822580153862
 30
0.0
  0
VERTEX
  5
41E
  8
FAB_2$_CUT_2
 10
-3790.017242154047
 20
211.5678223189477
 30
0.0
  0
VERTEX
  5
41F
  8
FAB_2$_CUT_2
 10
-3790.003849288578
 20
211.5537636986192
 30
0.0
  0
VERTEX
  5
420
  8
FAB_2$_CUT_2
 10
-3789.990171721557
 20
211.540090696992
 30
0.0
  0
VERTEX
  5
421
  8
FAB_2$_CUT_2
 10
-3789.976225398832
 20
211.5268110199967
 30
0.0
  0
VERTEX
  5
422
  8
FAB_2$_CUT_2
 10
-3785.802006702708
 20
207.8295578993921
 30
0.0
  0
SEQEND
  5
423
  8
FAB_2$_CUT_2
  0
POLYLINE
  5
424
  8
FAB_2$_CUT_2
 66
     1
 10
0.0
 20
0.0
 30
0.0
 70
     1
  0
VERTEX
  5
425
  8
FAB_2$_CUT_2
 10
-3805.110518920838
 20
238.4656791538255
 30
0.0
  0
VERTEX
  5
426
  8
FAB_2$_CUT_2
 10
-3806.991530110774
 20
240.1725467243587
 30
0.0
  0
VERTEX
  5
427
  8
FAB_2$_CUT_2
 10
-3806.138096325507
 20
241.113052319326
 30
0.0
  0
VERTEX
  5
428
  8
FAB_2$_CUT_2
 10
-3804.257085135572
 20
239.4061847487928
 30
0.0
  0
SEQEND
  5
429
  8
FAB_2$_CUT_2
  0
POLYLINE
  5
42A
  8
FAB_2$_CUT_2
 66
     1
 10
0.0
 20
0.0
 30
0.0
 70
     1
  0
VERTEX
  5
42B
  8
FAB_2$_CUT_2
 10
-3800.842671776776
 20
243.168954541738
 30
0.0
  0
VERTEX
  5
42C
  8
FAB_2$_CUT_2
 10
-3801.696105562043
 20
242.2284489467697
 30
0.0
  0
VERTEX
  5
42D
  8
FAB_2$_CUT_2
 10
-3803.577116751978
 20
243.9353165173029
 30
0.0
  0
VERTEX
  5
42E
  8
FAB_2$_CUT_2
 10
-3802.723682966711
 20
244.8758221122712
 30
0.0
  0
SEQEND
  5
42F
  8
FAB_2$_CUT_2
  0
LINE
  5
430
  8
FAB_2$_CUT_2
 10
-3804.39308799081
 20
224.0376102381692
 30
0.0
 11
-3816.982532962818
 21
235.4615270488243
 31
0.0
  0
LINE
  5
431
  8
FAB_2$_CUT_2
 10
-3787.981383708213
 20
243.3334380039014
 30
0.0
 11
-3800.570828680222
 21
254.7573548145565
 31
0.0
  0
CIRCLE
  5
432
  8
FAB_2$_CUT_2
 10
-3875.736062104895
 20
304.2924359457566
 30
0.0
 40
1.778000000000007
  0
CIRCLE
  5
433
  8
FAB_2$_CUT_2
 10
-3882.819675118285
 20
292.9899644607381
 30
0.0
 40
1.778000000000188
  0
POLYLINE
  5
434
  8
FAB_2$_CUT_2
 66
     1
 10
0.0
 20
0.0
 30
0.0
 70
     1
  0
VERTEX
  5
435
  8
FAB_2$_CUT_2
 10
-4035.764979327555
 20
304.060757816932
 30
0.0
  0
VERTEX
  5
436
  8
FAB_2$_CUT_2
 10
-4037.468670966828
 20
302.1768696041454
 30
0.0
  0
VERTEX
  5
437
  8
FAB_2$_CUT_2
 10
-4038.41061507322
 20
303.0287154237817
 30
0.0
  0
VERTEX
  5
438
  8
FAB_2$_CUT_2
 10
-4036.706923433948
 20
304.9126036365678
 30
0.0
  0
SEQEND
  5
439
  8
FAB_2$_CUT_2
  0
POLYLINE
  5
43A
  8
FAB_2$_CUT_2
 66
     1
 10
0.0
 20
0.0
 30
0.0
 70
     1
  0
VERTEX
  5
43B
  8
FAB_2$_CUT_2
 10
-4040.366757498236
 20
308.3137655298801
 30
0.0
  0
VERTEX
  5
43C
  8
FAB_2$_CUT_2
 10
-4039.443463431624
 20
307.4417402627232
 30
0.0
  0
VERTEX
  5
43D
  8
FAB_2$_CUT_2
 10
-4041.187513965938
 20
305.5951521295005
 30
0.0
  0
VERTEX
  5
43E
  8
FAB_2$_CUT_2
 10
-4042.11080803255
 20
306.4671773966575
 30
0.0
  0
SEQEND
  5
43F
  8
FAB_2$_CUT_2
  0
POLYLINE
  5
440
  8
FAB_2$_CUT_2
 66
     1
 10
0.0
 20
0.0
 30
0.0
 70
     1
  0
VERTEX
  5
441
  8
FAB_2$_CUT_2
 10
-4007.647404227749
 20
323.1517021800778
 30
0.0
  0
VERTEX
  5
442
  8
FAB_2$_CUT_2
 10
-4009.965938195114
 20
322.114397864952
 30
0.0
  0
VERTEX
  5
443
  8
FAB_2$_CUT_2
 10
-4010.484590352677
 20
323.2736648486343
 30
0.0
  0
VERTEX
  5
444
  8
FAB_2$_CUT_2
 10
-4008.166056385312
 20
324.3109691637601
 30
0.0
  0
SEQEND
  5
445
  8
FAB_2$_CUT_2
  0
POLYLINE
  5
446
  8
FAB_2$_CUT_2
 66
     1
 10
0.0
 20
0.0
 30
0.0
 70
     1
  0
VERTEX
  5
447
  8
FAB_2$_CUT_2
 10
-3970.166108853163
 20
330.3705035820212
 30
0.0
  0
VERTEX
  5
448
  8
FAB_2$_CUT_2
 10
-3972.701886712829
 20
330.2241114837752
 30
0.0
  0
VERTEX
  5
449
  8
FAB_2$_CUT_2
 10
-3972.775082761952
 20
331.4920004136088
 30
0.0
  0
VERTEX
  5
44A
  8
FAB_2$_CUT_2
 10
-3970.239304902286
 20
331.6383925118544
 30
0.0
  0
SEQEND
  5
44B
  8
FAB_2$_CUT_2
  0
POLYLINE
  5
44C
  8
FAB_2$_CUT_2
 66
     1
 10
0.0
 20
0.0
 30
0.0
 70
     1
  0
VERTEX
  5
44D
  8
FAB_2$_CUT_2
 10
-3863.471872648499
 20
283.8870475833373
 30
0.0
  0
VERTEX
  5
44E
  8
FAB_2$_CUT_2
 10
-3865.593700867748
 20
285.2832728545595
 30
0.0
  0
VERTEX
  5
44F
  8
FAB_2$_CUT_2
 10
-3864.895588232137
 20
286.3441869641838
 30
0.0
  0
VERTEX
  5
450
  8
FAB_2$_CUT_2
 10
-3862.773760012888
 20
284.9479616929616
 30
0.0
  0
SEQEND
  5
451
  8
FAB_2$_CUT_2
  0
POLYLINE
  5
452
  8
FAB_2$_CUT_2
 66
     1
 10
0.0
 20
0.0
 30
0.0
 70
     1
  0
VERTEX
  5
453
  8
FAB_2$_CUT_2
 10
-3831.302503620522
 20
259.9548495366284
 30
0.0
  0
VERTEX
  5
454
  8
FAB_2$_CUT_2
 10
-3833.329021407654
 20
261.4861318941448
 30
0.0
  0
VERTEX
  5
455
  8
FAB_2$_CUT_2
 10
-3832.563380228895
 20
262.4993907877106
 30
0.0
  0
VERTEX
  5
456
  8
FAB_2$_CUT_2
 10
-3830.536862441764
 20
260.9681084301947
 30
0.0
  0
SEQEND
  5
457
  8
FAB_2$_CUT_2
  0
POLYLINE
  5
458
  8
FAB_2$_CUT_2
 66
     1
 10
0.0
 20
0.0
 30
0.0
 70
     1
  0
VERTEX
  5
459
  8
FAB_2$_CUT_2
 10
-4010.090754204849
 20
329.112671300054
 30
0.0
  0
VERTEX
  5
45A
  8
FAB_2$_CUT_2
 10
-4009.646550990512
 20
327.9228883348146
 30
0.0
  0
VERTEX
  5
45B
  8
FAB_2$_CUT_2
 10
-4012.026116920989
 20
327.0344819061397
 30
0.0
  0
VERTEX
  5
45C
  8
FAB_2$_CUT_2
 10
-4012.470320135327
 20
328.2242648713782
 30
0.0
  0
SEQEND
  5
45D
  8
FAB_2$_CUT_2
  0
POLYLINE
  5
45E
  8
FAB_2$_CUT_2
 66
     1
 10
0.0
 20
0.0
 30
0.0
 70
     1
  0
VERTEX
  5
45F
  8
FAB_2$_CUT_2
 10
-3970.301878376329
 20
336.9491154927446
 30
0.0
  0
VERTEX
  5
460
  8
FAB_2$_CUT_2
 10
-3970.322700946512
 20
335.6792862047805
 30
0.0
  0
VERTEX
  5
461
  8
FAB_2$_CUT_2
 10
-3972.86235952244
 20
335.7209313451463
 30
0.0
  0
VERTEX
  5
462
  8
FAB_2$_CUT_2
 10
-3972.841536952257
 20
336.9907606331108
 30
0.0
  0
SEQEND
  5
463
  8
FAB_2$_CUT_2
  0
POLYLINE
  5
464
  8
FAB_2$_CUT_2
 66
     1
 10
0.0
 20
0.0
 30
0.0
 70
     1
  0
VERTEX
  5
465
  8
FAB_2$_CUT_2
 10
-3859.855094030327
 20
289.12998825668
 30
0.0
  0
VERTEX
  5
466
  8
FAB_2$_CUT_2
 10
-3860.598936804879
 20
288.1006205251351
 30
0.0
  0
VERTEX
  5
467
  8
FAB_2$_CUT_2
 10
-3862.657672267969
 20
289.5883060742408
 30
0.0
  0
VERTEX
  5
468
  8
FAB_2$_CUT_2
 10
-3861.913829493416
 20
290.6176738057857
 30
0.0
  0
SEQEND
  5
469
  8
FAB_2$_CUT_2
  0
POLYLINE
  5
46A
  8
FAB_2$_CUT_2
 66
     1
 10
0.0
 20
0.0
 30
0.0
 70
     1
  0
VERTEX
  5
46B
  8
FAB_2$_CUT_2
 10
-3827.364877430588
 20
264.9383561257664
 30
0.0
  0
VERTEX
  5
46C
  8
FAB_2$_CUT_2
 10
-3828.173572911452
 20
263.9591157981504
 30
0.0
  0
VERTEX
  5
46D
  8
FAB_2$_CUT_2
 10
-3830.132053566684
 20
265.57650675988
 30
0.0
  0
VERTEX
  5
46E
  8
FAB_2$_CUT_2
 10
-3829.323358085819
 20
266.5557470874955
 30
0.0
  0
SEQEND
  5
46F
  8
FAB_2$_CUT_2
  0
POLYLINE
  5
470
  8
FAB_2$_CUT_2
 66
     1
 10
0.0
 20
0.0
 30
0.0
 70
     1
  0
VERTEX
  5
471
  8
FAB_2$_CUT_2
 10
-3897.269859718921
 20
305.1256506078512
 30
0.0
  0
VERTEX
  5
472
  8
FAB_2$_CUT_2
 10
-3899.512917549768
 20
306.317410469348
 30
0.0
  0
VERTEX
  5
473
  8
FAB_2$_CUT_2
 10
-3898.91703761902
 20
307.4389393847719
 30
0.0
  0
VERTEX
  5
474
  8
FAB_2$_CUT_2
 10
-3896.673979788173
 20
306.2471795232746
 30
0.0
  0
SEQEND
  5
475
  8
FAB_2$_CUT_2
  0
POLYLINE
  5
476
  8
FAB_2$_CUT_2
 66
     1
 10
0.0
 20
0.0
 30
0.0
 70
     1
  0
VERTEX
  5
477
  8
FAB_2$_CUT_2
 10
-3894.142367107132
 20
310.7199735474906
 30
0.0
  0
VERTEX
  5
478
  8
FAB_2$_CUT_2
 10
-3894.785648588113
 20
309.6249443532565
 30
0.0
  0
VERTEX
  5
479
  8
FAB_2$_CUT_2
 10
-3896.975706976582
 20
310.9115073152198
 30
0.0
  0
VERTEX
  5
47A
  8
FAB_2$_CUT_2
 10
-3896.332425495601
 20
312.0065365094538
 30
0.0
  0
SEQEND
  5
47B
  8
FAB_2$_CUT_2
  0
LINE
  5
47C
  8
FAB_2$_CUT_2
 10
-3804.39308799081
 20
224.0376102381692
 30
0.0
 11
-3800.847559328076
 21
221.1869724139797
 31
0.0
  0
POLYLINE
  5
47D
  8
FAB_2$_CUT_2
 66
     1
 10
0.0
 20
0.0
 30
0.0
 70
     1
  0
VERTEX
  5
47E
  8
FAB_2$_CUT_2
 10
-3823.081488289408
 20
352.8761787336141
 30
0.0
  0
VERTEX
  5
47F
  8
FAB_2$_CUT_2
 10
-3747.183481365435
 20
352.876178733614
 30
0.0
 42
0.414213562373113
  0
VERTEX
  5
480
  8
FAB_2$_CUT_2
 10
-3732.183481365434
 20
367.8761787336136
 30
0.0
  0
VERTEX
  5
481
  8
FAB_2$_CUT_2
 10
-3732.183481365434
 20
636.8761787336132
 30
0.0
 42
0.414213562373108
  0
VERTEX
  5
482
  8
FAB_2$_CUT_2
 10
-3747.183481365433
 20
651.8761787336136
 30
0.0
  0
VERTEX
  5
483
  8
FAB_2$_CUT_2
 10
-3823.081488289406
 20
651.8761787336141
 30
0.0
  0
VERTEX
  5
484
  8
FAB_2$_CUT_2
 10
-4106.683481365433
 20
651.8761787336152
 30
0.0
 42
0.4109611971136378
  0
VERTEX
  5
485
  8
FAB_2$_CUT_2
 10
-4121.683021541904
 20
637.0422793408328
 30
0.0
  0
VERTEX
  5
486
  8
FAB_2$_CUT_2
 10
-4121.683481365433
 20
534.3761787336182
 30
0.0
  0
VERTEX
  5
487
  8
FAB_2$_CUT_2
 10
-4111.683481365433
 20
534.3761787336182
 30
0.0
  0
VERTEX
  5
488
  8
FAB_2$_CUT_2
 10
-4111.683481365433
 20
530.3761787336182
 30
0.0
  0
VERTEX
  5
489
  8
FAB_2$_CUT_2
 10
-4121.683481365433
 20
530.3761787336182
 30
0.0
  0
VERTEX
  5
48A
  8
FAB_2$_CUT_2
 10
-4121.683481365434
 20
502.3761787336182
 30
0.0
  0
VERTEX
  5
48B
  8
FAB_2$_CUT_2
 10
-4111.683481365434
 20
502.3761787336182
 30
0.0
  0
VERTEX
  5
48C
  8
FAB_2$_CUT_2
 10
-4111.683481365434
 20
498.3761787336182
 30
0.0
  0
VERTEX
  5
48D
  8
FAB_2$_CUT_2
 10
-4121.683481365434
 20
498.3761787336182
 30
0.0
  0
VERTEX
  5
48E
  8
FAB_2$_CUT_2
 10
-4121.683021538426
 20
367.7100778137608
 30
0.0
 42
0.4109611848798063
  0
VERTEX
  5
48F
  8
FAB_2$_CUT_2
 10
-4106.683481365435
 20
352.8761787336162
 30
0.0
  0
SEQEND
  5
490
  8
FAB_2$_CUT_2
  0
CIRCLE
  5
491
  8
FAB_2$_CUT_2
 10
-3739.683481365433
 20
583.0761787335512
 30
0.0
 40
1.777999999999967
  0
CIRCLE
  5
492
  8
FAB_2$_CUT_2
 10
-3739.683481365435
 20
421.6761787335979
 30
0.0
 40
1.777999999999967
  0
CIRCLE
  5
493
  8
FAB_2$_CUT_2
 10
-4034.783481365372
 20
644.3761787335814
 30
0.0
 40
1.777999999999967
  0
CIRCLE
  5
494
  8
FAB_2$_CUT_2
 10
-3819.083481365525
 20
644.37617873358
 30
0.0
 40
1.777999999999967
  0
CIRCLE
  5
495
  8
FAB_2$_CUT_2
 10
-3819.083481365526
 20
360.3761787336482
 30
0.0
 40
1.777999999999967
  0
CIRCLE
  5
496
  8
FAB_2$_CUT_2
 10
-4034.783481365374
 20
360.3761787336496
 30
0.0
 40
1.777999999999967
  0
CIRCLE
  5
497
  8
FAB_2$_CUT_2
 10
-4114.183481365465
 20
421.6761787336002
 30
0.0
 40
1.777999999999967
  0
CIRCLE
  5
498
  8
FAB_2$_CUT_2
 10
-4114.183481365464
 20
583.0761787335534
 30
0.0
 40
1.777999999999967
  0
POLYLINE
  5
499
  8
FAB_2$_CUT_2
 66
     1
 10
0.0
 20
0.0
 30
0.0
 70
     1
  0
VERTEX
  5
49A
  8
FAB_2$_CUT_2
 10
-3810.487565942744
 20
665.6837228363156
 30
0.0
  0
VERTEX
  5
49B
  8
FAB_2$_CUT_2
 10
-3748.239825729303
 20
665.6837228363156
 30
0.0
 42
0.4142135623730951
  0
VERTEX
  5
49C
  8
FAB_2$_CUT_2
 10
-3733.239825729303
 20
680.6837228363156
 30
0.0
  0
VERTEX
  5
49D
  8
FAB_2$_CUT_2
 10
-3733.239825729303
 20
949.6837228363152
 30
0.0
 42
0.4142135623730978
  0
VERTEX
  5
49E
  8
FAB_2$_CUT_2
 10
-3748.239825729302
 20
964.6837228363156
 30
0.0
  0
VERTEX
  5
49F
  8
FAB_2$_CUT_2
 10
-3810.487565942744
 20
964.6837228363156
 30
0.0
  0
VERTEX
  5
4A0
  8
FAB_2$_CUT_2
 10
-4107.739825729303
 20
964.6837228363157
 30
0.0
 42
0.410961197113604
  0
VERTEX
  5
4A1
  8
FAB_2$_CUT_2
 10
-4122.739365905774
 20
949.8498234435331
 30
0.0
  0
VERTEX
  5
4A2
  8
FAB_2$_CUT_2
 10
-4122.739825729303
 20
847.1837228363183
 30
0.0
  0
VERTEX
  5
4A3
  8
FAB_2$_CUT_2
 10
-4112.739825729303
 20
847.1837228363183
 30
0.0
  0
VERTEX
  5
4A4
  8
FAB_2$_CUT_2
 10
-4112.739825729303
 20
843.1837228363183
 30
0.0
  0
VERTEX
  5
4A5
  8
FAB_2$_CUT_2
 10
-4122.739825729303
 20
843.1837228363183
 30
0.0
  0
VERTEX
  5
4A6
  8
FAB_2$_CUT_2
 10
-4122.739825729303
 20
815.1837228363183
 30
0.0
  0
VERTEX
  5
4A7
  8
FAB_2$_CUT_2
 10
-4112.739825729303
 20
815.1837228363183
 30
0.0
  0
VERTEX
  5
4A8
  8
FAB_2$_CUT_2
 10
-4112.739825729303
 20
811.1837228363183
 30
0.0
  0
VERTEX
  5
4A9
  8
FAB_2$_CUT_2
 10
-4122.739825729303
 20
811.1837228363183
 30
0.0
  0
VERTEX
  5
4AA
  8
FAB_2$_CUT_2
 10
-4122.739365902296
 20
680.5176219164609
 30
0.0
 42
0.4109611848797618
  0
VERTEX
  5
4AB
  8
FAB_2$_CUT_2
 10
-4107.739825729303
 20
665.6837228363166
 30
0.0
  0
SEQEND
  5
4AC
  8
FAB_2$_CUT_2
  0
POLYLINE
  5
4AD
  8
FAB_2$_CUT_2
 66
     1
 10
0.0
 20
0.0
 30
0.0
 70
     1
  0
VERTEX
  5
4AE
  8
FAB_2$_CUT_2
 10
-3918.739825729303
 20
702.6837228363156
 30
0.0
 42
-0.9999999999999545
  0
VERTEX
  5
4AF
  8
FAB_2$_CUT_2
 10
-3938.739825729303
 20
702.6837228363156
 30
0.0
  0
VERTEX
  5
4B0
  8
FAB_2$_CUT_2
 10
-4077.739825729303
 20
702.6837228363161
 30
0.0
 42
-0.4142135623730896
  0
VERTEX
  5
4B1
  8
FAB_2$_CUT_2
 10
-4087.739825729303
 20
712.6837228363161
 30
0.0
  0
VERTEX
  5
4B2
  8
FAB_2$_CUT_2
 10
-4087.739825729302
 20
917.6837228363161
 30
0.0
 42
-0.4142135623730913
  0
VERTEX
  5
4B3
  8
FAB_2$_CUT_2
 10
-4077.739825729302
 20
927.6837228363161
 30
0.0
  0
VERTEX
  5
4B4
  8
FAB_2$_CUT_2
 10
-3938.739825729302
 20
927.6837228363156
 30
0.0
 42
-0.9999999999999999
  0
VERTEX
  5
4B5
  8
FAB_2$_CUT_2
 10
-3918.739825729302
 20
927.6837228363156
 30
0.0
  0
VERTEX
  5
4B6
  8
FAB_2$_CUT_2
 10
-3810.487565942744
 20
927.6837228363156
 30
0.0
  0
VERTEX
  5
4B7
  8
FAB_2$_CUT_2
 10
-3778.239825729303
 20
927.6837228363158
 30
0.0
 42
-0.4142135623730293
  0
VERTEX
  5
4B8
  8
FAB_2$_CUT_2
 10
-3768.239825729302
 20
917.6837228363156
 30
0.0
  0
VERTEX
  5
4B9
  8
FAB_2$_CUT_2
 10
-3768.239825729303
 20
712.6837228363156
 30
0.0
 42
-0.4142135623731101
  0
VERTEX
  5
4BA
  8
FAB_2$_CUT_2
 10
-3778.239825729303
 20
702.6837228363156
 30
0.0
  0
SEQEND
  5
4BB
  8
FAB_2$_CUT_2
  0
CIRCLE
  5
4BC
  8
FAB_2$_CUT_2
 10
-3740.739825729303
 20
895.8837228362531
 30
0.0
 40
1.777999999999967
  0
CIRCLE
  5
4BD
  8
FAB_2$_CUT_2
 10
-3740.739825729303
 20
734.4837228362999
 30
0.0
 40
1.777999999999967
  0
CIRCLE
  5
4BE
  8
FAB_2$_CUT_2
 10
-4035.839825729242
 20
957.1837228362815
 30
0.0
 40
1.777999999999967
  0
CIRCLE
  5
4BF
  8
FAB_2$_CUT_2
 10
-3820.139825729394
 20
957.1837228362815
 30
0.0
 40
1.777999999999967
  0
CIRCLE
  5
4C0
  8
FAB_2$_CUT_2
 10
-3820.139825729394
 20
673.1837228363497
 30
0.0
 40
1.777999999999967
  0
CIRCLE
  5
4C1
  8
FAB_2$_CUT_2
 10
-4035.839825729242
 20
673.1837228363497
 30
0.0
 40
1.777999999999967
  0
CIRCLE
  5
4C2
  8
FAB_2$_CUT_2
 10
-4115.239825729333
 20
734.4837228363003
 30
0.0
 40
1.777999999999967
  0
CIRCLE
  5
4C3
  8
FAB_2$_CUT_2
 10
-4115.239825729333
 20
895.8837228362536
 30
0.0
 40
1.777999999999967
  0
CIRCLE
  5
4C4
  8
FAB_2$_CUT_2
 10
-4008.971758428791
 20
915.1595681443068
 30
0.0
 40
1.778000000000199
  0
POLYLINE
  5
4C5
  8
FAB_2$_CUT_2
 66
     1
 10
0.0
 20
0.0
 30
0.0
 70
     1
  0
VERTEX
  5
4C6
  8
FAB_2$_CUT_2
 10
-3842.205091762185
 20
907.6595681443409
 30
0.0
  0
VERTEX
  5
4C7
  8
FAB_2$_CUT_2
 10
-3842.205091762141
 20
911.8767143199716
 30
0.0
 42
0.9999999999999306
  0
VERTEX
  5
4C8
  8
FAB_2$_CUT_2
 10
-3842.205091762073
 20
918.4424219687094
 30
0.0
  0
VERTEX
  5
4C9
  8
FAB_2$_CUT_2
 10
-3842.205091762029
 20
922.6595681443409
 30
0.0
  0
VERTEX
  5
4CA
  8
FAB_2$_CUT_2
 10
-4080.871758428852
 20
922.6595681443414
 30
0.0
  0
VERTEX
  5
4CB
  8
FAB_2$_CUT_2
 10
-4080.871758428741
 20
918.4424219687107
 30
0.0
 42
-1.000000000000069
  0
VERTEX
  5
4CC
  8
FAB_2$_CUT_2
 10
-4080.871758428808
 20
911.876714319972
 30
0.0
  0
VERTEX
  5
4CD
  8
FAB_2$_CUT_2
 10
-4080.871758428852
 20
907.6595681443414
 30
0.0
  0
SEQEND
  5
4CE
  8
FAB_2$_CUT_2
  0
POLYLINE
  5
4CF
  8
FAB_2$_CUT_2
 66
     1
 10
0.0
 20
0.0
 30
0.0
 70
     1
  0
VERTEX
  5
4D0
  8
FAB_2$_CUT_2
 10
-3917.903263181601
 20
894.6204397454017
 30
0.0
  0
VERTEX
  5
4D1
  8
FAB_2$_CUT_2
 10
-3917.903263181601
 20
884.6204397454017
 30
0.0
  0
VERTEX
  5
4D2
  8
FAB_2$_CUT_2
 10
-3787.403210396722
 20
884.6208989880697
 30
0.0
  0
VERTEX
  5
4D3
  8
FAB_2$_CUT_2
 10
-3787.403225235663
 20
888.8375859210989
 30
0.0
 42
-0.9999999999997232
  0
VERTEX
  5
4D4
  8
FAB_2$_CUT_2
 10
-3787.403248341041
 20
895.4032935697958
 30
0.0
  0
VERTEX
  5
4D5
  8
FAB_2$_CUT_2
 10
-3787.403263181599
 20
899.6204397454012
 30
0.0
  0
VERTEX
  5
4D6
  8
FAB_2$_CUT_2
 10
-3981.403263181598
 20
899.6204397454021
 30
0.0
  0
VERTEX
  5
4D7
  8
FAB_2$_CUT_2
 10
-3981.403263181599
 20
884.6204397454021
 30
0.0
  0
VERTEX
  5
4D8
  8
FAB_2$_CUT_2
 10
-3953.903263181601
 20
884.6204397454017
 30
0.0
  0
VERTEX
  5
4D9
  8
FAB_2$_CUT_2
 10
-3953.903263181601
 20
894.6204397454017
 30
0.0
  0
VERTEX
  5
4DA
  8
FAB_2$_CUT_2
 10
-3949.903263181601
 20
894.6204397454017
 30
0.0
  0
VERTEX
  5
4DB
  8
FAB_2$_CUT_2
 10
-3949.903263181601
 20
884.6204397454017
 30
0.0
  0
VERTEX
  5
4DC
  8
FAB_2$_CUT_2
 10
-3921.903263181601
 20
884.6204397454017
 30
0.0
  0
VERTEX
  5
4DD
  8
FAB_2$_CUT_2
 10
-3921.903263181601
 20
894.6204397454017
 30
0.0
  0
SEQEND
  5
4DE
  8
FAB_2$_CUT_2
  0
POLYLINE
  5
4DF
  8
FAB_2$_CUT_2
 66
     1
 10
0.0
 20
0.0
 30
0.0
 70
     1
  0
VERTEX
  5
4E0
  8
FAB_2$_CUT_2
 10
-4056.403263181599
 20
899.6204397454021
 30
0.0
  0
VERTEX
  5
4E1
  8
FAB_2$_CUT_2
 10
-4060.620409357228
 20
899.6204397454462
 30
0.0
 42
0.9999999999999309
  0
VERTEX
  5
4E2
  8
FAB_2$_CUT_2
 10
-4067.186117005967
 20
899.620439745514
 30
0.0
  0
VERTEX
  5
4E3
  8
FAB_2$_CUT_2
 10
-4071.403263181599
 20
899.6204397455576
 30
0.0
 42
0.4109611971165408
  0
VERTEX
  5
4E4
  8
FAB_2$_CUT_2
 10
-4056.569363788816
 20
884.6208995689308
 30
0.0
  0
VERTEX
  5
4E5
  8
FAB_2$_CUT_2
 10
-3991.003263181598
 20
884.6204397454021
 30
0.0
  0
VERTEX
  5
4E6
  8
FAB_2$_CUT_2
 10
-3991.003263181598
 20
899.6204397454021
 30
0.0
  0
SEQEND
  5
4E7
  8
FAB_2$_CUT_2
  0
CIRCLE
  5
4E8
  8
FAB_2$_CUT_2
 10
-4002.603263181536
 20
892.1204397453707
 30
0.0
 40
1.778000000000244
  0
CIRCLE
  5
4E9
  8
FAB_2$_CUT_2
 10
-3841.203263181583
 20
892.1204397453712
 30
0.0
 40
1.777999999999702
  0
POLYLINE
  5
4EA
  8
FAB_2$_CUT_2
 66
     1
 10
0.0
 20
0.0
 30
0.0
 70
     1
  0
VERTEX
  5
4EB
  8
FAB_2$_CUT_2
 10
-4064.625204047373
 20
843.2520526988806
 30
0.0
  0
VERTEX
  5
4EC
  8
FAB_2$_CUT_2
 10
-3945.291870713883
 20
843.2520526988801
 30
0.0
  0
VERTEX
  5
4ED
  8
FAB_2$_CUT_2
 10
-3945.291870713928
 20
847.469198874511
 30
0.0
 42
1.000000000000121
  0
VERTEX
  5
4EE
  8
FAB_2$_CUT_2
 10
-3945.291870713996
 20
854.0349065232485
 30
0.0
  0
VERTEX
  5
4EF
  8
FAB_2$_CUT_2
 10
-3945.29187071404
 20
858.2520526988797
 30
0.0
  0
VERTEX
  5
4F0
  8
FAB_2$_CUT_2
 10
-4064.625204047373
 20
858.2520526988797
 30
0.0
  0
VERTEX
  5
4F1
  8
FAB_2$_CUT_2
 10
-4068.842350222978
 20
858.2520378583231
 30
0.0
 42
0.9999999999999306
  0
VERTEX
  5
4F2
  8
FAB_2$_CUT_2
 10
-4075.408057871675
 20
858.2520147529449
 30
0.0
  0
VERTEX
  5
4F3
  8
FAB_2$_CUT_2
 10
-4079.624744804705
 20
858.251999914004
 30
0.0
  0
VERTEX
  5
4F4
  8
FAB_2$_CUT_2
 10
-4079.624744220365
 20
858.085951779025
 30
0.0
 42
0.4109611848797577
  0
SEQEND
  5
4F5
  8
FAB_2$_CUT_2
  0
CIRCLE
  5
4F6
  8
FAB_2$_CUT_2
 10
-3992.725204047313
 20
850.7520526989133
 30
0.0
 40
1.777999999999294
  0
CIRCLE
  5
4F7
  8
FAB_2$_CUT_2
 10
-3986.30641430502
 20
830.3660993235203
 30
0.0
 40
1.777999999999792
  0
CIRCLE
  5
4F8
  8
FAB_2$_CUT_2
 10
-3824.906414305067
 20
830.3660993235171
 30
0.0
 40
1.777999999999792
  0
POLYLINE
  5
4F9
  8
FAB_2$_CUT_2
 66
     1
 10
0.0
 20
0.0
 30
0.0
 70
     1
  0
VERTEX
  5
4FA
  8
FAB_2$_CUT_2
 10
-4040.106414305005
 20
822.8660993235212
 30
0.0
  0
VERTEX
  5
4FB
  8
FAB_2$_CUT_2
 10
-3771.106414305005
 20
822.8660993235167
 30
0.0
  0
VERTEX
  5
4FC
  8
FAB_2$_CUT_2
 10
-3771.106414305117
 20
827.0832454991478
 30
0.0
 42
-1.000000000000208
  0
VERTEX
  5
4FD
  8
FAB_2$_CUT_2
 10
-3771.106414305048
 20
833.6489531478855
 30
0.0
  0
VERTEX
  5
4FE
  8
FAB_2$_CUT_2
 10
-3771.106414305005
 20
837.8660993235167
 30
0.0
  0
VERTEX
  5
4FF
  8
FAB_2$_CUT_2
 10
-4040.106414305005
 20
837.8660993235212
 30
0.0
  0
VERTEX
  5
500
  8
FAB_2$_CUT_2
 10
-4044.323560480635
 20
837.8660993235649
 30
0.0
 42
0.9999999999998094
  0
VERTEX
  5
501
  8
FAB_2$_CUT_2
 10
-4050.889268129374
 20
837.8660993236335
 30
0.0
  0
VERTEX
  5
502
  8
FAB_2$_CUT_2
 10
-4055.106414305005
 20
837.8660993236772
 30
0.0
 42
0.4142135623761375
  0
SEQEND
  5
503
  8
FAB_2$_CUT_2
  0
CIRCLE
  5
504
  8
FAB_2$_CUT_2
 10
-3865.663304579006
 20
852.4923269240417
 30
0.0
 40
1.777999999999657
  0
POLYLINE
  5
505
  8
FAB_2$_CUT_2
 66
     1
 10
0.0
 20
0.0
 30
0.0
 70
     1
  0
VERTEX
  5
506
  8
FAB_2$_CUT_2
 10
-3850.536742985902
 20
844.9923269240753
 30
0.0
  0
VERTEX
  5
507
  8
FAB_2$_CUT_2
 10
-3793.763304578913
 20
844.9923269240753
 30
0.0
  0
VERTEX
  5
508
  8
FAB_2$_CUT_2
 10
-3789.546158403281
 20
844.9923269240312
 30
0.0
 42
1.000000000000121
  0
VERTEX
  5
509
  8
FAB_2$_CUT_2
 10
-3782.980450754545
 20
844.9923269239634
 30
0.0
  0
VERTEX
  5
50A
  8
FAB_2$_CUT_2
 10
-3778.763304578913
 20
844.9923269239198
 30
0.0
 42
0.4142135623761398
  0
VERTEX
  5
50B
  8
FAB_2$_CUT_2
 10
-3793.763304578913
 20
859.9923269240751
 30
0.0
  0
VERTEX
  5
50C
  8
FAB_2$_CUT_2
 10
-3914.596637912094
 20
859.9923269240753
 30
0.0
  0
VERTEX
  5
50D
  8
FAB_2$_CUT_2
 10
-3914.596637912135
 20
855.7751807484442
 30
0.0
 42
-0.9999999999999309
  0
VERTEX
  5
50E
  8
FAB_2$_CUT_2
 10
-3914.596637912203
 20
849.2094730997055
 30
0.0
  0
VERTEX
  5
50F
  8
FAB_2$_CUT_2
 10
-3914.596637912246
 20
844.9923269240753
 30
0.0
  0
SEQEND
  5
510
  8
FAB_2$_CUT_2
  0
CIRCLE
  5
511
  8
FAB_2$_CUT_2
 10
-3907.430330193102
 20
872.4950626345681
 30
0.0
 40
1.777999999999204
  0
POLYLINE
  5
512
  8
FAB_2$_CUT_2
 66
     1
 10
0.0
 20
0.0
 30
0.0
 70
     1
  0
VERTEX
  5
513
  8
FAB_2$_CUT_2
 10
-3892.303768599997
 20
864.9950626345349
 30
0.0
  0
VERTEX
  5
514
  8
FAB_2$_CUT_2
 10
-3835.530330193009
 20
864.9950626345344
 30
0.0
  0
VERTEX
  5
515
  8
FAB_2$_CUT_2
 10
-3835.530330193121
 20
869.2122088101655
 30
0.0
 42
-1.000000000000069
  0
VERTEX
  5
516
  8
FAB_2$_CUT_2
 10
-3835.530330193053
 20
875.7779164589033
 30
0.0
  0
VERTEX
  5
517
  8
FAB_2$_CUT_2
 10
-3835.530330193009
 20
879.9950626345344
 30
0.0
  0
VERTEX
  5
518
  8
FAB_2$_CUT_2
 10
-4075.696996859675
 20
879.9950626345349
 30
0.0
  0
VERTEX
  5
519
  8
FAB_2$_CUT_2
 10
-4075.696996859632
 20
875.777916458904
 30
0.0
 42
-0.9999999999999305
  0
VERTEX
  5
51A
  8
FAB_2$_CUT_2
 10
-4075.696996859564
 20
869.2122088101657
 30
0.0
  0
VERTEX
  5
51B
  8
FAB_2$_CUT_2
 10
-4075.69699685952
 20
864.9950626345349
 30
0.0
  0
SEQEND
  5
51C
  8
FAB_2$_CUT_2
  0
POLYLINE
  5
51D
  8
FAB_2$_CUT_2
 66
     1
 10
0.0
 20
0.0
 30
0.0
 70
     1
  0
VERTEX
  5
51E
  8
FAB_2$_CUT_2
 10
-3930.904618541338
 20
720.6683461728603
 30
0.0
  0
VERTEX
  5
51F
  8
FAB_2$_CUT_2
 10
-3930.904618541338
 20
710.6683461728603
 30
0.0
  0
VERTEX
  5
520
  8
FAB_2$_CUT_2
 10
-3800.238517621481
 20
710.6688059998683
 30
0.0
 42
0.4109611848798275
  0
VERTEX
  5
521
  8
FAB_2$_CUT_2
 10
-3785.404618541336
 20
725.6683461738121
 30
0.0
  0
VERTEX
  5
522
  8
FAB_2$_CUT_2
 10
-3789.621764716966
 20
725.6683461742291
 30
0.0
 42
-0.9999999999999999
  0
VERTEX
  5
523
  8
FAB_2$_CUT_2
 10
-3796.187472365704
 20
725.6683461733955
 30
0.0
  0
VERTEX
  5
524
  8
FAB_2$_CUT_2
 10
-3800.404618541335
 20
725.6683461728599
 30
0.0
  0
VERTEX
  5
525
  8
FAB_2$_CUT_2
 10
-3994.404618541335
 20
725.6683461728608
 30
0.0
  0
VERTEX
  5
526
  8
FAB_2$_CUT_2
 10
-3994.404618541336
 20
710.6683461728608
 30
0.0
  0
VERTEX
  5
527
  8
FAB_2$_CUT_2
 10
-3966.904618541338
 20
710.6683461728608
 30
0.0
  0
VERTEX
  5
528
  8
FAB_2$_CUT_2
 10
-3966.904618541338
 20
720.6683461728608
 30
0.0
  0
VERTEX
  5
529
  8
FAB_2$_CUT_2
 10
-3962.904618541338
 20
720.6683461728608
 30
0.0
  0
VERTEX
  5
52A
  8
FAB_2$_CUT_2
 10
-3962.904618541338
 20
710.6683461728608
 30
0.0
  0
VERTEX
  5
52B
  8
FAB_2$_CUT_2
 10
-3934.904618541338
 20
710.6683461728603
 30
0.0
  0
VERTEX
  5
52C
  8
FAB_2$_CUT_2
 10
-3934.904618541338
 20
720.6683461728603
 30
0.0
  0
SEQEND
  5
52D
  8
FAB_2$_CUT_2
  0
CIRCLE
  5
52E
  8
FAB_2$_CUT_2
 10
-3854.20461854132
 20
718.1683461728296
 30
0.0
 40
1.778000000000177
  0
POLYLINE
  5
52F
  8
FAB_2$_CUT_2
 66
     1
 10
0.0
 20
0.0
 30
0.0
 70
     1
  0
VERTEX
  5
530
  8
FAB_2$_CUT_2
 10
-4004.004618541335
 20
725.6683461728608
 30
0.0
  0
VERTEX
  5
531
  8
FAB_2$_CUT_2
 10
-4069.404618541335
 20
725.6683461728612
 30
0.0
  0
VERTEX
  5
532
  8
FAB_2$_CUT_2
 10
-4069.451315145889
 20
721.4514585417091
 30
0.0
 42
0.9999999999999135
  0
VERTEX
  5
533
  8
FAB_2$_CUT_2
 10
-4069.524017452358
 20
714.8861534228802
 30
0.0
  0
VERTEX
  5
534
  8
FAB_2$_CUT_2
 10
-4069.570716602732
 20
710.6690358940587
 30
0.0
  0
VERTEX
  5
535
  8
FAB_2$_CUT_2
 10
-4004.004618541335
 20
710.6683461728608
 30
0.0
  0
SEQEND
  5
536
  8
FAB_2$_CUT_2
  0
CIRCLE
  5
537
  8
FAB_2$_CUT_2
 10
-4015.604618541273
 20
718.16834617283
 30
0.0
 40
1.778000000000188
  0
POLYLINE
  5
538
  8
FAB_2$_CUT_2
 66
     1
 10
0.0
 20
0.0
 30
0.0
 70
     1
  0
VERTEX
  5
539
  8
FAB_2$_CUT_2
 10
-4051.475152347432
 20
745.8910242584011
 30
0.0
 42
0.4142135623731141
  0
VERTEX
  5
53A
  8
FAB_2$_CUT_2
 10
-4066.475152347432
 20
730.8910242581478
 30
0.0
  0
VERTEX
  5
53B
  8
FAB_2$_CUT_2
 10
-4062.258006171801
 20
730.8910242580364
 30
0.0
 42
-0.9999999999998613
  0
VERTEX
  5
53C
  8
FAB_2$_CUT_2
 10
-4055.692298523063
 20
730.8910242582588
 30
0.0
  0
VERTEX
  5
53D
  8
FAB_2$_CUT_2
 10
-4051.475152347432
 20
730.8910242584011
 30
0.0
  0
VERTEX
  5
53E
  8
FAB_2$_CUT_2
 10
-3782.475152347432
 20
730.8910242583993
 30
0.0
  0
VERTEX
  5
53F
  8
FAB_2$_CUT_2
 10
-3782.475152347432
 20
735.10817043403
 30
0.0
 42
0.999999999999948
  0
VERTEX
  5
540
  8
FAB_2$_CUT_2
 10
-3782.475152347432
 20
741.6738780827675
 30
0.0
  0
VERTEX
  5
541
  8
FAB_2$_CUT_2
 10
-3782.475152347432
 20
745.8910242583993
 30
0.0
  0
SEQEND
  5
542
  8
FAB_2$_CUT_2
  0
CIRCLE
  5
543
  8
FAB_2$_CUT_2
 10
-3997.675152347369
 20
738.3910242584006
 30
0.0
 40
1.778000000000154
  0
CIRCLE
  5
544
  8
FAB_2$_CUT_2
 10
-3836.275152347416
 20
738.3910242583993
 30
0.0
 40
1.778000000000652
  0
CIRCLE
  5
545
  8
FAB_2$_CUT_2
 10
-3871.247478724414
 20
758.6673434573624
 30
0.0
 40
1.777999999999973
  0
POLYLINE
  5
546
  8
FAB_2$_CUT_2
 66
     1
 10
0.0
 20
0.0
 30
0.0
 70
     1
  0
VERTEX
  5
547
  8
FAB_2$_CUT_2
 10
-4039.514145390833
 20
766.1673434573963
 30
0.0
  0
VERTEX
  5
548
  8
FAB_2$_CUT_2
 10
-4039.514145390877
 20
761.9501972817657
 30
0.0
 42
-0.9999999999999999
  0
VERTEX
  5
549
  8
FAB_2$_CUT_2
 10
-4039.514145390945
 20
755.3844896330261
 30
0.0
  0
VERTEX
  5
54A
  8
FAB_2$_CUT_2
 10
-4039.514145390989
 20
751.1673434573963
 30
0.0
  0
VERTEX
  5
54B
  8
FAB_2$_CUT_2
 10
-3799.347478724322
 20
751.1673434573963
 30
0.0
  0
VERTEX
  5
54C
  8
FAB_2$_CUT_2
 10
-3799.347478724465
 20
755.3844896330274
 30
0.0
 42
0.9999999999997232
  0
VERTEX
  5
54D
  8
FAB_2$_CUT_2
 10
-3799.347478724687
 20
761.9501972817652
 30
0.0
  0
VERTEX
  5
54E
  8
FAB_2$_CUT_2
 10
-3799.347478724576
 20
766.1673434573963
 30
0.0
  0
SEQEND
  5
54F
  8
FAB_2$_CUT_2
  0
CIRCLE
  5
550
  8
FAB_2$_CUT_2
 10
-3987.634986979498
 20
776.743773699937
 30
0.0
 40
1.777999999999883
  0
POLYLINE
  5
551
  8
FAB_2$_CUT_2
 66
     1
 10
0.0
 20
0.0
 30
0.0
 70
     1
  0
VERTEX
  5
552
  8
FAB_2$_CUT_2
 10
-3820.868320312736
 20
769.2437736999027
 30
0.0
  0
VERTEX
  5
553
  8
FAB_2$_CUT_2
 10
-3820.868320312779
 20
773.460919875534
 30
0.0
 42
1.000000000000017
  0
VERTEX
  5
554
  8
FAB_2$_CUT_2
 10
-3820.868320312847
 20
780.026627524272
 30
0.0
  0
VERTEX
  5
555
  8
FAB_2$_CUT_2
 10
-3820.868320312891
 20
784.2437736999027
 30
0.0
  0
VERTEX
  5
556
  8
FAB_2$_CUT_2
 10
-4059.534986979558
 20
784.2437736999027
 30
0.0
  0
VERTEX
  5
557
  8
FAB_2$_CUT_2
 10
-4059.534986979023
 20
780.0266275242716
 30
0.0
 42
0.9999999999999306
  0
VERTEX
  5
558
  8
FAB_2$_CUT_2
 10
-4059.534986978189
 20
773.4609198755338
 30
0.0
  0
VERTEX
  5
559
  8
FAB_2$_CUT_2
 10
-4059.534986978606
 20
769.2437736999032
 30
0.0
  0
SEQEND
  5
55A
  8
FAB_2$_CUT_2
  0
CIRCLE
  5
55B
  8
FAB_2$_CUT_2
 10
-3869.507185990493
 20
796.6214992327527
 30
0.0
 40
1.777999999999747
  0
POLYLINE
  5
55C
  8
FAB_2$_CUT_2
 66
     1
 10
0.0
 20
0.0
 30
0.0
 70
     1
  0
VERTEX
  5
55D
  8
FAB_2$_CUT_2
 10
-3854.380624397395
 20
789.1214992327191
 30
0.0
  0
VERTEX
  5
55E
  8
FAB_2$_CUT_2
 10
-3797.607185990401
 20
789.1214992327191
 30
0.0
 42
0.4142135623731019
  0
VERTEX
  5
55F
  8
FAB_2$_CUT_2
 10
-3782.607185990401
 20
804.1214992327186
 30
0.0
  0
VERTEX
  5
560
  8
FAB_2$_CUT_2
 10
-3786.824332166033
 20
804.1214992327191
 30
0.0
 42
-1.000000000000017
  0
VERTEX
  5
561
  8
FAB_2$_CUT_2
 10
-3793.390039814771
 20
804.1214992327191
 30
0.0
  0
VERTEX
  5
562
  8
FAB_2$_CUT_2
 10
-3797.607185990401
 20
804.1214992327191
 30
0.0
  0
VERTEX
  5
563
  8
FAB_2$_CUT_2
 10
-3918.440519323734
 20
804.1214992327191
 30
0.0
  0
VERTEX
  5
564
  8
FAB_2$_CUT_2
 10
-3918.440519323691
 20
799.9043530570875
 30
0.0
 42
-0.9999999999997923
  0
VERTEX
  5
565
  8
FAB_2$_CUT_2
 10
-3918.440519323623
 20
793.3386454083497
 30
0.0
  0
VERTEX
  5
566
  8
FAB_2$_CUT_2
 10
-3918.440519323579
 20
789.1214992327191
 30
0.0
  0
SEQEND
  5
567
  8
FAB_2$_CUT_2
  0
POLYLINE
  5
568
  8
FAB_2$_CUT_2
 66
     1
 10
0.0
 20
0.0
 30
0.0
 70
     1
  0
VERTEX
  5
569
  8
FAB_2$_CUT_2
 10
-4046.77284026414
 20
804.879473299909
 30
0.0
 42
0.4109674686042394
  0
VERTEX
  5
56A
  8
FAB_2$_CUT_2
 10
-4061.772150542943
 20
790.0455713613046
 30
0.0
  0
VERTEX
  5
56B
  8
FAB_2$_CUT_2
 10
-4057.555033014122
 20
789.998872210931
 30
0.0
 42
-0.999999999999516
  0
VERTEX
  5
56C
  8
FAB_2$_CUT_2
 10
-4050.989727895292
 20
789.9261699044623
 30
0.0
  0
VERTEX
  5
56D
  8
FAB_2$_CUT_2
 10
-4046.772840264141
 20
789.879473299909
 30
0.0
  0
VERTEX
  5
56E
  8
FAB_2$_CUT_2
 10
-3927.439506930807
 20
789.879473299909
 30
0.0
  0
VERTEX
  5
56F
  8
FAB_2$_CUT_2
 10
-3927.439506930763
 20
794.0966194755399
 30
0.0
 42
0.9999999999998791
  0
VERTEX
  5
570
  8
FAB_2$_CUT_2
 10
-3927.439506930695
 20
800.6623271242784
 30
0.0
  0
VERTEX
  5
571
  8
FAB_2$_CUT_2
 10
-3927.439506930651
 20
804.879473299909
 30
0.0
  0
SEQEND
  5
572
  8
FAB_2$_CUT_2
  0
CIRCLE
  5
573
  8
FAB_2$_CUT_2
 10
-3974.87284026408
 20
797.379473299875
 30
0.0
 40
1.778000000000086
  0
POLYLINE
  5
574
  8
FAB_2$_CUT_2
 66
     1
 10
0.0
 20
0.0
 30
0.0
 70
     1
  0
VERTEX
  5
575
  8
FAB_2$_CUT_2
 10
-4134.761766295953
 20
142.2815476598728
 30
0.0
  0
VERTEX
  5
576
  8
FAB_2$_CUT_2
 10
-2991.761766295953
 20
142.2815476598728
 30
0.0
  0
VERTEX
  5
577
  8
FAB_2$_CUT_2
 10
-2991.761766295953
 20
980.2815476598728
 30
0.0
  0
VERTEX
  5
578
  8
FAB_2$_CUT_2
 10
-4134.761766295953
 20
980.2815476598728
 30
0.0
  0
SEQEND
  5
579
  8
FAB_2$_CUT_2
  0
ENDSEC
  0
EOF
