  0
SECTION
  2
HEADER
  9
$ACADVER
  1
AC1009
  9
$DWGCODEPAGE
  3
mac-roman
  9
$INSBASE
 10
0.0
 20
0.0
 30
0.0
  9
$EXTMIN
 10
-3298.404909547524
 20
181.1916089161839
 30
0.0
  9
$EXTMAX
 10
-2999.404909547517
 20
570.6916089161874
 30
0.0
  9
$LIMMIN
 10
0.0
 20
0.0
  9
$LIMMAX
 10
12.0
 20
9.0
  9
$ORTHOMODE
 70
     0
  9
$REGENMODE
 70
     1
  9
$FILLMODE
 70
     1
  9
$QTEXTMODE
 70
     0
  9
$MIRRTEXT
 70
     1
  9
$DRAGMODE
 70
     2
  9
$LTSCALE
 40
1.0
  9
$OSMODE
 70
    37
  9
$ATTMODE
 70
     1
  9
$TEXTSIZE
 40
0.2
  9
$TRACEWID
 40
0.05
  9
$TEXTSTYLE
  7
STANDARD
  9
$CLAYER
  8
FAB_2$_CUT_2
  9
$CELTYPE
  6
BYLAYER
  9
$CECOLOR
 62
   256
  9
$DIMSCALE
 40
1.0
  9
$DIMASZ
 40
0.18
  9
$DIMEXO
 40
0.0625
  9
$DIMDLI
 40
0.38
  9
$DIMRND
 40
0.0
  9
$DIMDLE
 40
0.0
  9
$DIMEXE
 40
0.18
  9
$DIMTP
 40
0.0
  9
$DIMTM
 40
0.0
  9
$DIMTXT
 40
0.18
  9
$DIMCEN
 40
0.09
  9
$DIMTSZ
 40
0.0
  9
$DIMTOL
 70
     0
  9
$DIMLIM
 70
     0
  9
$DIMTIH
 70
     1
  9
$DIMTOH
 70
     1
  9
$DIMSE1
 70
     0
  9
$DIMSE2
 70
     0
  9
$DIMTAD
 70
     0
  9
$DIMZIN
 70
     0
  9
$DIMBLK
  1

  9
$DIMASO
 70
     1
  9
$DIMSHO
 70
     1
  9
$DIMPOST
  1

  9
$DIMAPOST
  1

  9
$DIMALT
 70
     0
  9
$DIMALTD
 70
     2
  9
$DIMALTF
 40
25.4
  9
$DIMLFAC
 40
1.0
  9
$DIMTOFL
 70
     0
  9
$DIMTVP
 40
0.0
  9
$DIMTIX
 70
     0
  9
$DIMSOXD
 70
     0
  9
$DIMSAH
 70
     0
  9
$DIMBLK1
  1

  9
$DIMBLK2
  1

  9
$DIMSTYLE
  2
STANDARD
  9
$DIMCLRD
 70
     0
  9
$DIMCLRE
 70
     0
  9
$DIMCLRT
 70
     0
  9
$DIMTFAC
 40
1.0
  9
$DIMGAP
 40
0.09
  9
$LUNITS
 70
     2
  9
$LUPREC
 70
     3
  9
$SKETCHINC
 40
0.1
  9
$FILLETRAD
 40
0.5
  9
$AUNITS
 70
     0
  9
$AUPREC
 70
     0
  9
$MENU
  1
.
  9
$ELEVATION
 40
0.0
  9
$PELEVATION
 40
0.0
  9
$THICKNESS
 40
0.0
  9
$LIMCHECK
 70
     0
  9
$CHAMFERA
 40
0.0
  9
$CHAMFERB
 40
0.0
  9
$SKPOLY
 70
     0
  9
$TDCREATE
 40
2457849.632407407
  9
$TDUPDATE
 40
2457849.632430556
  9
$TDINDWG
 40
0.0000000116
  9
$TDUSRTIMER
 40
0.0000000116
  9
$USRTIMER
 70
     1
  9
$ANGBASE
 50
0.0
  9
$ANGDIR
 70
     0
  9
$PDMODE
 70
     0
  9
$PDSIZE
 40
0.0
  9
$PLINEWID
 40
0.0
  9
$COORDS
 70
     1
  9
$SPLFRAME
 70
     0
  9
$SPLINETYPE
 70
     6
  9
$SPLINESEGS
 70
     8
  9
$ATTDIA
 70
     0
  9
$ATTREQ
 70
     1
  9
$HANDLING
 70
     1
  9
$HANDSEED
  5
C8
  9
$SURFTAB1
 70
     6
  9
$SURFTAB2
 70
     6
  9
$SURFTYPE
 70
     6
  9
$SURFU
 70
     6
  9
$SURFV
 70
     6
  9
$UCSNAME
  2

  9
$UCSORG
 10
0.0
 20
0.0
 30
0.0
  9
$UCSXDIR
 10
1.0
 20
0.0
 30
0.0
  9
$UCSYDIR
 10
0.0
 20
1.0
 30
0.0
  9
$PUCSNAME
  2

  9
$PUCSORG
 10
0.0
 20
0.0
 30
0.0
  9
$PUCSXDIR
 10
1.0
 20
0.0
 30
0.0
  9
$PUCSYDIR
 10
0.0
 20
1.0
 30
0.0
  9
$USERI1
 70
     0
  9
$USERI2
 70
     0
  9
$USERI3
 70
     0
  9
$USERI4
 70
     0
  9
$USERI5
 70
     0
  9
$USERR1
 40
0.0
  9
$USERR2
 40
0.0
  9
$USERR3
 40
0.0
  9
$USERR4
 40
0.0
  9
$USERR5
 40
0.0
  9
$WORLDVIEW
 70
     1
  9
$SHADEDGE
 70
     3
  9
$SHADEDIF
 70
    70
  9
$TILEMODE
 70
     1
  9
$MAXACTVP
 70
    64
  9
$PLIMCHECK
 70
     0
  9
$PEXTMIN
 10
1.000000000000000E+20
 20
1.000000000000000E+20
 30
1.000000000000000E+20
  9
$PEXTMAX
 10
-1.000000000000000E+20
 20
-1.000000000000000E+20
 30
-1.000000000000000E+20
  9
$PLIMMIN
 10
0.0
 20
0.0
  9
$PLIMMAX
 10
12.0
 20
9.0
  9
$UNITMODE
 70
     0
  9
$VISRETAIN
 70
     1
  9
$PLINEGEN
 70
     0
  9
$PSLTSCALE
 70
     1
  0
ENDSEC
  0
SECTION
  2
TABLES
  0
TABLE
  2
VPORT
 70
     1
  0
VPORT
  2
*ACTIVE
 70
     0
 10
0.0
 20
0.0
 11
1.0
 21
1.0
 12
-3148.90490954752
 22
375.9416089161857
 13
0.0
 23
0.0
 14
0.5
 24
0.5
 15
0.5
 25
0.5
 16
0.0
 26
0.0
 36
1.0
 17
0.0
 27
0.0
 37
0.0
 40
397.2900000000036
 41
0.7676508344030926
 42
50.0
 43
0.0
 44
0.0
 50
0.0
 51
0.0
 71
     0
 72
   100
 73
     1
 74
     3
 75
     0
 76
     0
 77
     0
 78
     0
  0
ENDTAB
  0
TABLE
  2
LTYPE
 70
     1
  0
LTYPE
  2
CONTINUOUS
 70
     0
  3
Solid line
 72
    65
 73
     0
 40
0.0
  0
ENDTAB
  0
TABLE
  2
LAYER
 70
     2
  0
LAYER
  2
0
 70
     0
 62
     7
  6
CONTINUOUS
  0
LAYER
  2
FAB_2$_CUT_2
 70
     0
 62
     1
  6
CONTINUOUS
  0
ENDTAB
  0
TABLE
  2
STYLE
 70
     1
  0
STYLE
  2
STANDARD
 70
     0
 40
0.0
 41
1.0
 50
0.0
 71
     0
 42
0.2
  3
txt
  4

  0
ENDTAB
  0
TABLE
  2
VIEW
 70
     0
  0
ENDTAB
  0
TABLE
  2
UCS
 70
     0
  0
ENDTAB
  0
TABLE
  2
APPID
 70
     1
  0
APPID
  2
ACAD
 70
     0
  0
ENDTAB
  0
TABLE
  2
DIMSTYLE
 70
     1
  0
DIMSTYLE
  2
STANDARD
 70
     0
  3

  4

  5

  6

  7

 40
1.0
 41
0.18
 42
0.0625
 43
0.38
 44
0.18
 45
0.0
 46
0.0
 47
0.0
 48
0.0
140
0.18
141
0.09
142
0.0
143
25.4
144
1.0
145
0.0
146
1.0
147
0.09
 71
     0
 72
     0
 73
     1
 74
     1
 75
     0
 76
     0
 77
     0
 78
     0
170
     0
171
     2
172
     0
173
     0
174
     0
175
     0
176
     0
177
     0
178
     0
  0
ENDTAB
  0
ENDSEC
  0
SECTION
  2
BLOCKS
  0
BLOCK
  8
0
  2
$MODEL_SPACE
 70
     0
 10
0.0
 20
0.0
 30
0.0
  3
$MODEL_SPACE
  1

  0
ENDBLK
  5
21
  8
0
  0
BLOCK
 67
     1
  8
0
  2
$PAPER_SPACE
 70
     0
 10
0.0
 20
0.0
 30
0.0
  3
$PAPER_SPACE
  1

  0
ENDBLK
  5
1D
 67
     1
  8
0
  0
ENDSEC
  0
SECTION
  2
ENTITIES
  0
CIRCLE
  5
6F
  8
FAB_2$_CUT_2
 10
-3245.130950794669
 20
205.6915689090597
 30
0.0
 40
7.500000000000256
  0
POLYLINE
  5
70
  8
FAB_2$_CUT_2
 66
     1
 10
0.0
 20
0.0
 30
0.0
  0
VERTEX
  5
71
  8
FAB_2$_CUT_2
 10
-3036.404909547516
 20
525.6916089161812
 30
0.0
  0
VERTEX
  5
72
  8
FAB_2$_CUT_2
 10
-3036.404909547519
 20
390.1916089161812
 30
0.0
 42
-1.000000000000002
  0
VERTEX
  5
73
  8
FAB_2$_CUT_2
 10
-3036.40490954752
 20
360.1916089161807
 30
0.0
  0
VERTEX
  5
74
  8
FAB_2$_CUT_2
 10
-3036.404909547523
 20
226.1916089161812
 30
0.0
  0
SEQEND
  5
75
  8
FAB_2$_CUT_2
  0
POLYLINE
  5
76
  8
FAB_2$_CUT_2
 66
     1
 10
0.0
 20
0.0
 30
0.0
  0
VERTEX
  5
77
  8
FAB_2$_CUT_2
 10
-3261.404909547523
 20
226.1916089161866
 30
0.0
  0
VERTEX
  5
78
  8
FAB_2$_CUT_2
 10
-3261.404909547519
 20
360.1916089161866
 30
0.0
 42
-0.9999999999999715
  0
VERTEX
  5
79
  8
FAB_2$_CUT_2
 10
-3261.404909547518
 20
390.1916089161865
 30
0.0
  0
VERTEX
  5
7A
  8
FAB_2$_CUT_2
 10
-3261.404909547517
 20
493.4438687027448
 30
0.0
  0
SEQEND
  5
7B
  8
FAB_2$_CUT_2
  0
LINE
  5
7C
  8
FAB_2$_CUT_2
 10
-3251.404909547516
 20
535.6916089161857
 30
0.0
 11
-3046.404909547516
 21
535.6916089161812
 31
0.0
  0
ARC
  5
7D
  8
FAB_2$_CUT_2
 10
-3251.404909547516
 20
525.6916089161857
 30
0.0
 40
10.00000000000023
 50
90.0
 51
179.9999999999987
  0
LINE
  5
7E
  8
FAB_2$_CUT_2
 10
-3261.404909547517
 20
493.4438687027448
 30
0.0
 11
-3261.404909547516
 21
525.6916089161866
 31
0.0
  0
LINE
  5
7F
  8
FAB_2$_CUT_2
 10
-3046.404909547523
 20
216.1916089161812
 30
0.0
 11
-3251.404909547523
 21
216.1916089161857
 31
0.0
  0
ARC
  5
80
  8
FAB_2$_CUT_2
 10
-3046.404909547524
 20
226.1916089161812
 30
0.0
 40
10.00000000000057
 50
270.0000000000026
 51
359.9999999999961
  0
POLYLINE
  5
81
  8
FAB_2$_CUT_2
 66
     1
 10
0.0
 20
0.0
 30
0.0
 70
     1
  0
VERTEX
  5
82
  8
FAB_2$_CUT_2
 10
-2999.404909547517
 20
493.4438687027384
 30
0.0
  0
VERTEX
  5
83
  8
FAB_2$_CUT_2
 10
-2999.404909547517
 20
555.6916089161798
 30
0.0
 42
0.414213562373108
  0
VERTEX
  5
84
  8
FAB_2$_CUT_2
 10
-3014.404909547515
 20
570.6916089161803
 30
0.0
  0
VERTEX
  5
85
  8
FAB_2$_CUT_2
 10
-3283.404909547515
 20
570.6916089161874
 30
0.0
 42
0.4142135623731206
  0
VERTEX
  5
86
  8
FAB_2$_CUT_2
 10
-3298.404909547515
 20
555.6916089161879
 30
0.0
  0
VERTEX
  5
87
  8
FAB_2$_CUT_2
 10
-3298.404909547517
 20
493.4438687027457
 30
0.0
  0
VERTEX
  5
88
  8
FAB_2$_CUT_2
 10
-3298.404909547524
 20
196.1916089161875
 30
0.0
 42
0.4109611971135916
  0
VERTEX
  5
89
  8
FAB_2$_CUT_2
 10
-3283.571010154742
 20
181.1920687397139
 30
0.0
  0
VERTEX
  5
8A
  8
FAB_2$_CUT_2
 10
-3180.904909547527
 20
181.1916089161848
 30
0.0
  0
VERTEX
  5
8B
  8
FAB_2$_CUT_2
 10
-3180.904909547527
 20
191.1916089161848
 30
0.0
  0
VERTEX
  5
8C
  8
FAB_2$_CUT_2
 10
-3176.904909547527
 20
191.1916089161848
 30
0.0
  0
VERTEX
  5
8D
  8
FAB_2$_CUT_2
 10
-3176.904909547527
 20
181.1916089161848
 30
0.0
  0
VERTEX
  5
8E
  8
FAB_2$_CUT_2
 10
-3148.904909547527
 20
181.1916089161839
 30
0.0
  0
VERTEX
  5
8F
  8
FAB_2$_CUT_2
 10
-3148.904909547527
 20
191.1916089161839
 30
0.0
  0
VERTEX
  5
90
  8
FAB_2$_CUT_2
 10
-3144.904909547527
 20
191.1916089161839
 30
0.0
  0
VERTEX
  5
91
  8
FAB_2$_CUT_2
 10
-3144.904909547527
 20
181.1916089161839
 30
0.0
  0
VERTEX
  5
92
  8
FAB_2$_CUT_2
 10
-3014.238808627669
 20
181.1920687431887
 30
0.0
 42
0.410961184879955
  0
VERTEX
  5
93
  8
FAB_2$_CUT_2
 10
-2999.404909547524
 20
196.1916089161803
 30
0.0
  0
SEQEND
  5
94
  8
FAB_2$_CUT_2
  0
CIRCLE
  5
95
  8
FAB_2$_CUT_2
 10
-3229.604909547453
 20
563.1916089161853
 30
0.0
 40
1.777999999999967
  0
CIRCLE
  5
96
  8
FAB_2$_CUT_2
 10
-3068.204909547499
 20
563.1916089161816
 30
0.0
 40
1.777999999999967
  0
CIRCLE
  5
97
  8
FAB_2$_CUT_2
 10
-3290.904909547487
 20
268.0916089162472
 30
0.0
 40
1.777999999999967
  0
CIRCLE
  5
98
  8
FAB_2$_CUT_2
 10
-3290.904909547483
 20
483.7916089160942
 30
0.0
 40
1.777999999999967
  0
CIRCLE
  5
99
  8
FAB_2$_CUT_2
 10
-3006.904909547551
 20
483.7916089160888
 30
0.0
 40
1.777999999999967
  0
CIRCLE
  5
9A
  8
FAB_2$_CUT_2
 10
-3006.904909547556
 20
268.0916089162408
 30
0.0
 40
1.777999999999967
  0
CIRCLE
  5
9B
  8
FAB_2$_CUT_2
 10
-3068.204909547509
 20
188.6916089161512
 30
0.0
 40
1.777999999999967
  0
CIRCLE
  5
9C
  8
FAB_2$_CUT_2
 10
-3229.604909547462
 20
188.6916089161548
 30
0.0
 40
1.777999999999967
  0
ARC
  5
9D
  8
FAB_2$_CUT_2
 10
-3046.404909547517
 20
525.6916089161812
 30
0.0
 40
10.0
 50
359.9999999999987
 51
89.99999999999739
  0
ARC
  5
9E
  8
FAB_2$_CUT_2
 10
-3251.404909547524
 20
226.1916089161848
 30
0.0
 40
9.99999999999909
 50
179.9999999999935
 51
270.0000000000026
  0
POLYLINE
  5
9F
  8
FAB_2$_CUT_2
 66
     1
 10
0.0
 20
0.0
 30
0.0
 70
     1
  0
VERTEX
  5
A0
  8
FAB_2$_CUT_2
 10
-3246.182938156084
 20
379.3769067683113
 30
0.0
  0
VERTEX
  5
A1
  8
FAB_2$_CUT_2
 10
-3256.182938156084
 20
379.3769067683113
 30
0.0
  0
VERTEX
  5
A2
  8
FAB_2$_CUT_2
 10
-3256.182478329076
 20
248.7108058484544
 30
0.0
 42
0.410961184879849
  0
VERTEX
  5
A3
  8
FAB_2$_CUT_2
 10
-3241.182938155132
 20
233.8769067683079
 30
0.0
  0
VERTEX
  5
A4
  8
FAB_2$_CUT_2
 10
-3241.182938154715
 20
238.0940529439388
 30
0.0
 42
-0.9999999999996491
  0
VERTEX
  5
A5
  8
FAB_2$_CUT_2
 10
-3241.182938155549
 20
244.659760592677
 30
0.0
  0
VERTEX
  5
A6
  8
FAB_2$_CUT_2
 10
-3241.182938156082
 20
440.8769067683086
 30
0.0
  0
VERTEX
  5
A7
  8
FAB_2$_CUT_2
 10
-3256.182938156082
 20
440.8769067683086
 30
0.0
  0
VERTEX
  5
A8
  8
FAB_2$_CUT_2
 10
-3256.182938156082
 20
415.3769067683114
 30
0.0
  0
VERTEX
  5
A9
  8
FAB_2$_CUT_2
 10
-3246.182938156082
 20
415.3769067683114
 30
0.0
  0
VERTEX
  5
AA
  8
FAB_2$_CUT_2
 10
-3246.182938156082
 20
411.3769067683114
 30
0.0
  0
VERTEX
  5
AB
  8
FAB_2$_CUT_2
 10
-3256.182938156082
 20
411.3769067683114
 30
0.0
  0
VERTEX
  5
AC
  8
FAB_2$_CUT_2
 10
-3256.182938156083
 20
383.3769067683115
 30
0.0
  0
VERTEX
  5
AD
  8
FAB_2$_CUT_2
 10
-3246.182938156083
 20
383.3769067683115
 30
0.0
  0
SEQEND
  5
AE
  8
FAB_2$_CUT_2
  0
POLYLINE
  5
AF
  8
FAB_2$_CUT_2
 66
     1
 10
0.0
 20
0.0
 30
0.0
 70
     1
  0
VERTEX
  5
B0
  8
FAB_2$_CUT_2
 10
-3072.230844583542
 20
366.3755514085731
 30
0.0
  0
VERTEX
  5
B1
  8
FAB_2$_CUT_2
 10
-3082.230844583542
 20
366.3755514085731
 30
0.0
  0
VERTEX
  5
B2
  8
FAB_2$_CUT_2
 10
-3082.230385340875
 20
235.8754986236943
 30
0.0
  0
VERTEX
  5
B3
  8
FAB_2$_CUT_2
 10
-3078.013698407844
 20
235.8755134626351
 30
0.0
 42
-0.9999999999997232
  0
VERTEX
  5
B4
  8
FAB_2$_CUT_2
 10
-3071.447990759147
 20
235.8755365680133
 30
0.0
  0
VERTEX
  5
B5
  8
FAB_2$_CUT_2
 10
-3067.230844583543
 20
235.8755514085713
 30
0.0
  0
VERTEX
  5
B6
  8
FAB_2$_CUT_2
 10
-3067.230844583542
 20
427.8755514085703
 30
0.0
  0
VERTEX
  5
B7
  8
FAB_2$_CUT_2
 10
-3082.230844583542
 20
427.8755514085713
 30
0.0
  0
VERTEX
  5
B8
  8
FAB_2$_CUT_2
 10
-3082.230844583542
 20
402.3755514085731
 30
0.0
  0
VERTEX
  5
B9
  8
FAB_2$_CUT_2
 10
-3072.230844583542
 20
402.3755514085731
 30
0.0
  0
VERTEX
  5
BA
  8
FAB_2$_CUT_2
 10
-3072.230844583542
 20
398.3755514085731
 30
0.0
  0
VERTEX
  5
BB
  8
FAB_2$_CUT_2
 10
-3082.230844583542
 20
398.3755514085731
 30
0.0
  0
VERTEX
  5
BC
  8
FAB_2$_CUT_2
 10
-3082.230844583542
 20
370.3755514085731
 30
0.0
  0
VERTEX
  5
BD
  8
FAB_2$_CUT_2
 10
-3072.230844583542
 20
370.3755514085731
 30
0.0
  0
SEQEND
  5
BE
  8
FAB_2$_CUT_2
  0
CIRCLE
  5
BF
  8
FAB_2$_CUT_2
 10
-3248.682938156115
 20
302.6769067682933
 30
0.0
 40
1.778000000000177
  0
CIRCLE
  5
C0
  8
FAB_2$_CUT_2
 10
-3074.730844583572
 20
289.675551408556
 30
0.0
 40
1.777999999999702
  0
ENDSEC
  0
EOF
