  0
SECTION
  2
HEADER
  9
$ACADVER
  1
AC1009
  9
$DWGCODEPAGE
  3
mac-roman
  9
$INSBASE
 10
0.0
 20
0.0
 30
0.0
  9
$EXTMIN
 10
-3736.405468436629
 20
152.2614881386357
 30
0.0
  9
$EXTMAX
 10
-3346.905419767778
 20
975.8493709858625
 30
0.0
  9
$LIMMIN
 10
0.0
 20
0.0
  9
$LIMMAX
 10
12.0
 20
9.0
  9
$ORTHOMODE
 70
     0
  9
$REGENMODE
 70
     1
  9
$FILLMODE
 70
     1
  9
$QTEXTMODE
 70
     0
  9
$MIRRTEXT
 70
     1
  9
$DRAGMODE
 70
     2
  9
$LTSCALE
 40
1.0
  9
$OSMODE
 70
    37
  9
$ATTMODE
 70
     1
  9
$TEXTSIZE
 40
0.2
  9
$TRACEWID
 40
0.05
  9
$TEXTSTYLE
  7
STANDARD
  9
$CLAYER
  8
FAB_2$_CUT_2
  9
$CELTYPE
  6
BYLAYER
  9
$CECOLOR
 62
   256
  9
$DIMSCALE
 40
1.0
  9
$DIMASZ
 40
0.18
  9
$DIMEXO
 40
0.0625
  9
$DIMDLI
 40
0.38
  9
$DIMRND
 40
0.0
  9
$DIMDLE
 40
0.0
  9
$DIMEXE
 40
0.18
  9
$DIMTP
 40
0.0
  9
$DIMTM
 40
0.0
  9
$DIMTXT
 40
0.18
  9
$DIMCEN
 40
0.09
  9
$DIMTSZ
 40
0.0
  9
$DIMTOL
 70
     0
  9
$DIMLIM
 70
     0
  9
$DIMTIH
 70
     1
  9
$DIMTOH
 70
     1
  9
$DIMSE1
 70
     0
  9
$DIMSE2
 70
     0
  9
$DIMTAD
 70
     0
  9
$DIMZIN
 70
     0
  9
$DIMBLK
  1

  9
$DIMASO
 70
     1
  9
$DIMSHO
 70
     1
  9
$DIMPOST
  1

  9
$DIMAPOST
  1

  9
$DIMALT
 70
     0
  9
$DIMALTD
 70
     2
  9
$DIMALTF
 40
25.4
  9
$DIMLFAC
 40
1.0
  9
$DIMTOFL
 70
     0
  9
$DIMTVP
 40
0.0
  9
$DIMTIX
 70
     0
  9
$DIMSOXD
 70
     0
  9
$DIMSAH
 70
     0
  9
$DIMBLK1
  1

  9
$DIMBLK2
  1

  9
$DIMSTYLE
  2
STANDARD
  9
$DIMCLRD
 70
     0
  9
$DIMCLRE
 70
     0
  9
$DIMCLRT
 70
     0
  9
$DIMTFAC
 40
1.0
  9
$DIMGAP
 40
0.09
  9
$LUNITS
 70
     2
  9
$LUPREC
 70
     3
  9
$SKETCHINC
 40
0.1
  9
$FILLETRAD
 40
0.5
  9
$AUNITS
 70
     0
  9
$AUPREC
 70
     0
  9
$MENU
  1
.
  9
$ELEVATION
 40
0.0
  9
$PELEVATION
 40
0.0
  9
$THICKNESS
 40
0.0
  9
$LIMCHECK
 70
     0
  9
$CHAMFERA
 40
0.0
  9
$CHAMFERB
 40
0.0
  9
$SKPOLY
 70
     0
  9
$TDCREATE
 40
2457849.626018519
  9
$TDUPDATE
 40
2457849.626030093
  9
$TDINDWG
 40
0.0000000116
  9
$TDUSRTIMER
 40
0.0000000116
  9
$USRTIMER
 70
     1
  9
$ANGBASE
 50
0.0
  9
$ANGDIR
 70
     0
  9
$PDMODE
 70
     0
  9
$PDSIZE
 40
0.0
  9
$PLINEWID
 40
0.0
  9
$COORDS
 70
     1
  9
$SPLFRAME
 70
     0
  9
$SPLINETYPE
 70
     6
  9
$SPLINESEGS
 70
     8
  9
$ATTDIA
 70
     0
  9
$ATTREQ
 70
     1
  9
$HANDLING
 70
     1
  9
$HANDSEED
  5
6A8
  9
$SURFTAB1
 70
     6
  9
$SURFTAB2
 70
     6
  9
$SURFTYPE
 70
     6
  9
$SURFU
 70
     6
  9
$SURFV
 70
     6
  9
$UCSNAME
  2

  9
$UCSORG
 10
0.0
 20
0.0
 30
0.0
  9
$UCSXDIR
 10
1.0
 20
0.0
 30
0.0
  9
$UCSYDIR
 10
0.0
 20
1.0
 30
0.0
  9
$PUCSNAME
  2

  9
$PUCSORG
 10
0.0
 20
0.0
 30
0.0
  9
$PUCSXDIR
 10
1.0
 20
0.0
 30
0.0
  9
$PUCSYDIR
 10
0.0
 20
1.0
 30
0.0
  9
$USERI1
 70
     0
  9
$USERI2
 70
     0
  9
$USERI3
 70
     0
  9
$USERI4
 70
     0
  9
$USERI5
 70
     0
  9
$USERR1
 40
0.0
  9
$USERR2
 40
0.0
  9
$USERR3
 40
0.0
  9
$USERR4
 40
0.0
  9
$USERR5
 40
0.0
  9
$WORLDVIEW
 70
     1
  9
$SHADEDGE
 70
     3
  9
$SHADEDIF
 70
    70
  9
$TILEMODE
 70
     1
  9
$MAXACTVP
 70
    64
  9
$PLIMCHECK
 70
     0
  9
$PEXTMIN
 10
1.000000000000000E+20
 20
1.000000000000000E+20
 30
1.000000000000000E+20
  9
$PEXTMAX
 10
-1.000000000000000E+20
 20
-1.000000000000000E+20
 30
-1.000000000000000E+20
  9
$PLIMMIN
 10
0.0
 20
0.0
  9
$PLIMMAX
 10
12.0
 20
9.0
  9
$UNITMODE
 70
     0
  9
$VISRETAIN
 70
     1
  9
$PLINEGEN
 70
     0
  9
$PSLTSCALE
 70
     1
  0
ENDSEC
  0
SECTION
  2
TABLES
  0
TABLE
  2
VPORT
 70
     1
  0
VPORT
  2
*ACTIVE
 70
     0
 10
0.0
 20
0.0
 11
1.0
 21
1.0
 12
-3541.655444102204
 22
564.0554295622491
 13
0.0
 23
0.0
 14
0.5
 24
0.5
 15
0.5
 25
0.5
 16
0.0
 26
0.0
 36
1.0
 17
0.0
 27
0.0
 37
0.0
 40
840.0596405041714
 41
0.4729307664439042
 42
50.0
 43
0.0
 44
0.0
 50
0.0
 51
0.0
 71
     0
 72
   100
 73
     1
 74
     3
 75
     0
 76
     0
 77
     0
 78
     0
  0
ENDTAB
  0
TABLE
  2
LTYPE
 70
     1
  0
LTYPE
  2
CONTINUOUS
 70
     0
  3
Solid line
 72
    65
 73
     0
 40
0.0
  0
ENDTAB
  0
TABLE
  2
LAYER
 70
     2
  0
LAYER
  2
0
 70
     0
 62
     7
  6
CONTINUOUS
  0
LAYER
  2
FAB_2$_CUT_2
 70
     0
 62
     1
  6
CONTINUOUS
  0
ENDTAB
  0
TABLE
  2
STYLE
 70
     1
  0
STYLE
  2
STANDARD
 70
     0
 40
0.0
 41
1.0
 50
0.0
 71
     0
 42
0.2
  3
txt
  4

  0
ENDTAB
  0
TABLE
  2
VIEW
 70
     0
  0
ENDTAB
  0
TABLE
  2
UCS
 70
     0
  0
ENDTAB
  0
TABLE
  2
APPID
 70
     1
  0
APPID
  2
ACAD
 70
     0
  0
ENDTAB
  0
TABLE
  2
DIMSTYLE
 70
     1
  0
DIMSTYLE
  2
STANDARD
 70
     0
  3

  4

  5

  6

  7

 40
1.0
 41
0.18
 42
0.0625
 43
0.38
 44
0.18
 45
0.0
 46
0.0
 47
0.0
 48
0.0
140
0.18
141
0.09
142
0.0
143
25.4
144
1.0
145
0.0
146
1.0
147
0.09
 71
     0
 72
     0
 73
     1
 74
     1
 75
     0
 76
     0
 77
     0
 78
     0
170
     0
171
     2
172
     0
173
     0
174
     0
175
     0
176
     0
177
     0
178
     0
  0
ENDTAB
  0
ENDSEC
  0
SECTION
  2
BLOCKS
  0
BLOCK
  8
0
  2
$MODEL_SPACE
 70
     0
 10
0.0
 20
0.0
 30
0.0
  3
$MODEL_SPACE
  1

  0
ENDBLK
  5
21
  8
0
  0
BLOCK
 67
     1
  8
0
  2
$PAPER_SPACE
 70
     0
 10
0.0
 20
0.0
 30
0.0
  3
$PAPER_SPACE
  1

  0
ENDBLK
  5
1D
 67
     1
  8
0
  0
ENDSEC
  0
SECTION
  2
ENTITIES
  0
POLYLINE
  5
6F
  8
FAB_2$_CUT_2
 66
     1
 10
0.0
 20
0.0
 30
0.0
 70
     1
  0
VERTEX
  5
70
  8
FAB_2$_CUT_2
 10
-3669.657893678735
 20
262.3778940953778
 30
0.0
  0
VERTEX
  5
71
  8
FAB_2$_CUT_2
 10
-3668.579707357788
 20
263.5155641815298
 30
0.0
  0
VERTEX
  5
72
  8
FAB_2$_CUT_2
 10
-3665.677340385001
 20
266.6435212070737
 30
0.0
  0
VERTEX
  5
73
  8
FAB_2$_CUT_2
 10
-3662.725605310472
 20
269.6856986921407
 30
0.0
  0
VERTEX
  5
74
  8
FAB_2$_CUT_2
 10
-3659.726855187833
 20
272.6434889569697
 30
0.0
  0
VERTEX
  5
75
  8
FAB_2$_CUT_2
 10
-3656.683443070721
 20
275.5182843217996
 30
0.0
  0
VERTEX
  5
76
  8
FAB_2$_CUT_2
 10
-3653.597722012767
 20
278.3114771068696
 30
0.0
  0
VERTEX
  5
77
  8
FAB_2$_CUT_2
 10
-3650.472045067605
 20
281.0244596324187
 30
0.0
  0
VERTEX
  5
78
  8
FAB_2$_CUT_2
 10
-3647.308765288868
 20
283.6586242186858
 30
0.0
  0
VERTEX
  5
79
  8
FAB_2$_CUT_2
 10
-3644.110235730191
 20
286.21536318591
 30
0.0
  0
VERTEX
  5
7A
  8
FAB_2$_CUT_2
 10
-3640.878809445207
 20
288.6960688543303
 30
0.0
  0
VERTEX
  5
7B
  8
FAB_2$_CUT_2
 10
-3637.616839487549
 20
291.1021335441857
 30
0.0
  0
VERTEX
  5
7C
  8
FAB_2$_CUT_2
 10
-3634.326678910852
 20
293.4349495757152
 30
0.0
  0
VERTEX
  5
7D
  8
FAB_2$_CUT_2
 10
-3631.010680768749
 20
295.6959092691579
 30
0.0
  0
VERTEX
  5
7E
  8
FAB_2$_CUT_2
 10
-3624.310584002858
 20
300.0078289227388
 30
0.0
  0
VERTEX
  5
7F
  8
FAB_2$_CUT_2
 10
-3617.535373618946
 20
304.0490310668407
 30
0.0
  0
VERTEX
  5
80
  8
FAB_2$_CUT_2
 10
-3610.703874046082
 20
307.8306542633755
 30
0.0
  0
VERTEX
  5
81
  8
FAB_2$_CUT_2
 10
-3603.834909713334
 20
311.3638370742556
 30
0.0
  0
VERTEX
  5
82
  8
FAB_2$_CUT_2
 10
-3596.947305049772
 20
314.659718061393
 30
0.0
  0
VERTEX
  5
83
  8
FAB_2$_CUT_2
 10
-3590.059884484463
 20
317.7294357866998
 30
0.0
  0
VERTEX
  5
84
  8
FAB_2$_CUT_2
 10
-3583.191472446477
 20
320.5841288120882
 30
0.0
  0
VERTEX
  5
85
  8
FAB_2$_CUT_2
 10
-3576.360893364883
 20
323.2349356994705
 30
0.0
  0
VERTEX
  5
86
  8
FAB_2$_CUT_2
 10
-3569.58697166875
 20
325.6929950107586
 30
0.0
  0
VERTEX
  5
87
  8
FAB_2$_CUT_2
 10
-3562.888531787147
 20
327.9694453078648
 30
0.0
  0
VERTEX
  5
88
  8
FAB_2$_CUT_2
 10
-3556.282591876916
 20
330.0739659070711
 30
0.0
  0
VERTEX
  5
89
  8
FAB_2$_CUT_2
 10
-3549.778945005993
 20
332.0103991421381
 30
0.0
  0
VERTEX
  5
8A
  8
FAB_2$_CUT_2
 10
-3543.385577970087
 20
333.7811281011966
 30
0.0
  0
VERTEX
  5
8B
  8
FAB_2$_CUT_2
 10
-3537.11047756491
 20
335.3885358723774
 30
0.0
  0
VERTEX
  5
8C
  8
FAB_2$_CUT_2
 10
-3530.96163058617
 20
336.835005543811
 30
0.0
  0
VERTEX
  5
8D
  8
FAB_2$_CUT_2
 10
-3524.947023829577
 20
338.1229202036281
 30
0.0
  0
VERTEX
  5
8E
  8
FAB_2$_CUT_2
 10
-3519.074644090841
 20
339.2546629399593
 30
0.0
  0
VERTEX
  5
8F
  8
FAB_2$_CUT_2
 10
-3513.352478165671
 20
340.2326168409354
 30
0.0
  0
VERTEX
  5
90
  8
FAB_2$_CUT_2
 10
-3507.788512849777
 20
341.0591649946869
 30
0.0
  0
VERTEX
  5
91
  8
FAB_2$_CUT_2
 10
-3502.390734938869
 20
341.7366904893445
 30
0.0
  0
VERTEX
  5
92
  8
FAB_2$_CUT_2
 10
-3497.167131228657
 20
342.2675764130389
 30
0.0
  0
VERTEX
  5
93
  8
FAB_2$_CUT_2
 10
-3492.12568851485
 20
342.6542058539006
 30
0.0
  0
VERTEX
  5
94
  8
FAB_2$_CUT_2
 10
-3487.274393593158
 20
342.8989619000604
 30
0.0
  0
VERTEX
  5
95
  8
FAB_2$_CUT_2
 10
-3482.621233259291
 20
343.004227639649
 30
0.0
  0
VERTEX
  5
96
  8
FAB_2$_CUT_2
 10
-3478.174194308959
 20
342.972386160797
 30
0.0
  0
VERTEX
  5
97
  8
FAB_2$_CUT_2
 10
-3473.941263537871
 20
342.805820551635
 30
0.0
  0
VERTEX
  5
98
  8
FAB_2$_CUT_2
 10
-3472.018423758894
 20
342.6808908358242
 30
0.0
  0
VERTEX
  5
99
  8
FAB_2$_CUT_2
 10
-3470.143540346955
 20
342.5260585475161
 30
0.0
  0
VERTEX
  5
9A
  8
FAB_2$_CUT_2
 10
-3468.315030009635
 20
342.3409406031767
 30
0.0
  0
VERTEX
  5
9B
  8
FAB_2$_CUT_2
 10
-3466.531309454512
 20
342.1251539192723
 30
0.0
  0
VERTEX
  5
9C
  8
FAB_2$_CUT_2
 10
-3464.790795389168
 20
341.878315412269
 30
0.0
  0
VERTEX
  5
9D
  8
FAB_2$_CUT_2
 10
-3463.091904521182
 20
341.6000419986329
 30
0.0
  0
VERTEX
  5
9E
  8
FAB_2$_CUT_2
 10
-3461.433053558133
 20
341.2899505948304
 30
0.0
  0
VERTEX
  5
9F
  8
FAB_2$_CUT_2
 10
-3459.812659207601
 20
340.9476581173274
 30
0.0
  0
VERTEX
  5
A0
  8
FAB_2$_CUT_2
 10
-3458.229138177167
 20
340.5727814825902
 30
0.0
  0
VERTEX
  5
A1
  8
FAB_2$_CUT_2
 10
-3456.680907174409
 20
340.164937607085
 30
0.0
  0
VERTEX
  5
A2
  8
FAB_2$_CUT_2
 10
-3455.166382906908
 20
339.7237434072779
 30
0.0
  0
VERTEX
  5
A3
  8
FAB_2$_CUT_2
 10
-3453.683982082242
 20
339.2488157996351
 30
0.0
  0
VERTEX
  5
A4
  8
FAB_2$_CUT_2
 10
-3452.232121407993
 20
338.7397717006227
 30
0.0
  0
VERTEX
  5
A5
  8
FAB_2$_CUT_2
 10
-3450.809217591739
 20
338.196228026707
 30
0.0
  0
VERTEX
  5
A6
  8
FAB_2$_CUT_2
 10
-3449.413687341061
 20
337.6178016943542
 30
0.0
  0
VERTEX
  5
A7
  8
FAB_2$_CUT_2
 10
-3448.043947363538
 20
337.0041096200302
 30
0.0
  0
VERTEX
  5
A8
  8
FAB_2$_CUT_2
 10
-3446.69841436675
 20
336.3547687202015
 30
0.0
  0
VERTEX
  5
A9
  8
FAB_2$_CUT_2
 10
-3445.375505058277
 20
335.669395911334
 30
0.0
  0
VERTEX
  5
AA
  8
FAB_2$_CUT_2
 10
-3444.073636145697
 20
334.9476081098941
 30
0.0
  0
VERTEX
  5
AB
  8
FAB_2$_CUT_2
 10
-3442.791224336593
 20
334.1890222323478
 30
0.0
  0
VERTEX
  5
AC
  8
FAB_2$_CUT_2
 10
-3441.526686338542
 20
333.3932551951613
 30
0.0
  0
VERTEX
  5
AD
  8
FAB_2$_CUT_2
 10
-3440.278438859124
 20
332.5599239148008
 30
0.0
  0
VERTEX
  5
AE
  8
FAB_2$_CUT_2
 10
-3439.04489860592
 20
331.6886453077325
 30
0.0
  0
VERTEX
  5
AF
  8
FAB_2$_CUT_2
 10
-3437.82448228651
 20
330.7790362904224
 30
0.0
  0
VERTEX
  5
B0
  8
FAB_2$_CUT_2
 10
-3436.615606608472
 20
329.8307137793369
 30
0.0
  0
VERTEX
  5
B1
  8
FAB_2$_CUT_2
 10
-3435.416688279387
 20
328.8432946909421
 30
0.0
  0
VERTEX
  5
B2
  8
FAB_2$_CUT_2
 10
-3434.226144006834
 20
327.8163959417042
 30
0.0
  0
VERTEX
  5
B3
  8
FAB_2$_CUT_2
 10
-3433.042390498393
 20
326.7496344480892
 30
0.0
  0
VERTEX
  5
B4
  8
FAB_2$_CUT_2
 10
-3431.863844461644
 20
325.6426271265634
 30
0.0
  0
VERTEX
  5
B5
  8
FAB_2$_CUT_2
 10
-3430.688922604167
 20
324.494990893593
 30
0.0
  0
VERTEX
  5
B6
  8
FAB_2$_CUT_2
 10
-3428.343618257346
 20
322.0762993591827
 30
0.0
 42
-0.0763882570556086
  0
VERTEX
  5
B7
  8
FAB_2$_CUT_2
 10
-3424.909637807638
 20
317.0642343672304
 30
0.0
  0
VERTEX
  5
B8
  8
FAB_2$_CUT_2
 10
-3421.619899497899
 20
310.4843046568008
 30
0.0
  0
VERTEX
  5
B9
  8
FAB_2$_CUT_2
 10
-3420.023466331233
 20
307.4872214692886
 30
0.0
  0
VERTEX
  5
BA
  8
FAB_2$_CUT_2
 10
-3418.450783061074
 20
304.6639769917645
 30
0.0
  0
VERTEX
  5
BB
  8
FAB_2$_CUT_2
 10
-3416.895444115703
 20
301.9985094228682
 30
0.0
  0
VERTEX
  5
BC
  8
FAB_2$_CUT_2
 10
-3415.351043923398
 20
299.4747569612394
 30
0.0
  0
VERTEX
  5
BD
  8
FAB_2$_CUT_2
 10
-3413.811176912439
 20
297.0766578055179
 30
0.0
  0
VERTEX
  5
BE
  8
FAB_2$_CUT_2
 10
-3412.269437511105
 20
294.7881501543433
 30
0.0
  0
VERTEX
  5
BF
  8
FAB_2$_CUT_2
 10
-3410.719420147676
 20
292.5931722063552
 30
0.0
  0
VERTEX
  5
C0
  8
FAB_2$_CUT_2
 10
-3409.154719250431
 20
290.4756621601936
 30
0.0
  0
VERTEX
  5
C1
  8
FAB_2$_CUT_2
 10
-3407.56892924765
 20
288.419558214498
 30
0.0
  0
VERTEX
  5
C2
  8
FAB_2$_CUT_2
 10
-3405.955644567612
 20
286.4087985679082
 30
0.0
  0
VERTEX
  5
C3
  8
FAB_2$_CUT_2
 10
-3402.620968888881
 20
282.4590649666048
 30
0.0
  0
VERTEX
  5
C4
  8
FAB_2$_CUT_2
 10
-3399.099447640474
 20
278.4979669454011
 30
0.0
  0
VERTEX
  5
C5
  8
FAB_2$_CUT_2
 10
-3398.913540095426
 20
278.3004932075551
 30
0.0
  0
VERTEX
  5
C6
  8
FAB_2$_CUT_2
 10
-3398.542305539827
 20
277.9214981812818
 30
0.0
  0
VERTEX
  5
C7
  8
FAB_2$_CUT_2
 10
-3397.204451732116
 20
276.6207487908951
 30
0.0
  0
VERTEX
  5
C8
  8
FAB_2$_CUT_2
 10
-3395.007078887611
 20
274.5993278291259
 30
0.0
  0
VERTEX
  5
C9
  8
FAB_2$_CUT_2
 10
-3391.871379676579
 20
271.8608443508584
 30
0.0
  0
VERTEX
  5
CA
  8
FAB_2$_CUT_2
 10
-3387.71854676929
 20
268.4089074109776
 30
0.0
  0
VERTEX
  5
CB
  8
FAB_2$_CUT_2
 10
-3382.469772836012
 20
264.2471260643679
 30
0.0
  0
VERTEX
  5
CC
  8
FAB_2$_CUT_2
 10
-3376.046250547017
 20
259.3791093659139
 30
0.0
  0
VERTEX
  5
CD
  8
FAB_2$_CUT_2
 10
-3368.369172572572
 20
253.8084663705004
 30
0.0
 42
0.402752453079825
  0
VERTEX
  5
CE
  8
FAB_2$_CUT_2
 10
-3363.829519090536
 20
253.4490634600394
 30
0.0
  0
VERTEX
  5
CF
  8
FAB_2$_CUT_2
 10
-3349.216505254606
 20
266.3880439338514
 30
0.0
  0
VERTEX
  5
D0
  8
FAB_2$_CUT_2
 10
-3349.164047572805
 20
266.4351090307721
 30
0.0
  0
VERTEX
  5
D1
  8
FAB_2$_CUT_2
 10
-3349.112190410195
 20
266.4837653671401
 30
0.0
  0
VERTEX
  5
D2
  8
FAB_2$_CUT_2
 10
-3349.060995599476
 20
266.5340128341041
 30
0.0
  0
VERTEX
  5
D3
  8
FAB_2$_CUT_2
 10
-3349.010525993982
 20
266.5858484912356
 30
0.0
  0
VERTEX
  5
D4
  8
FAB_2$_CUT_2
 10
-3348.960845324939
 20
266.6392664505841
 30
0.0
  0
VERTEX
  5
D5
  8
FAB_2$_CUT_2
 10
-3348.912018047278
 20
266.694257767971
 30
0.0
  0
VERTEX
  5
D6
  8
FAB_2$_CUT_2
 10
-3348.864109174317
 20
266.7508103426481
 30
0.0
  0
VERTEX
  5
D7
  8
FAB_2$_CUT_2
 10
-3348.817184101671
 20
266.8089088264592
 30
0.0
  0
VERTEX
  5
D8
  8
FAB_2$_CUT_2
 10
-3348.771308420966
 20
266.8685345436336
 30
0.0
  0
VERTEX
  5
D9
  8
FAB_2$_CUT_2
 10
-3348.726547723968
 20
266.9296654223222
 30
0.0
  0
VERTEX
  5
DA
  8
FAB_2$_CUT_2
 10
-3348.682967397903
 20
266.9922759389532
 30
0.0
  0
VERTEX
  5
DB
  8
FAB_2$_CUT_2
 10
-3348.64063241289
 20
267.056337076437
 30
0.0
  0
VERTEX
  5
DC
  8
FAB_2$_CUT_2
 10
-3348.599607102466
 20
267.1218162971853
 30
0.0
  0
VERTEX
  5
DD
  8
FAB_2$_CUT_2
 10
-3348.559954938364
 20
267.1886775318368
 30
0.0
  0
VERTEX
  5
DE
  8
FAB_2$_CUT_2
 10
-3348.521738300789
 20
267.2568811844806
 30
0.0
  0
VERTEX
  5
DF
  8
FAB_2$_CUT_2
 10
-3348.485018245527
 20
267.3263841550694
 30
0.0
  0
VERTEX
  5
E0
  8
FAB_2$_CUT_2
 10
-3348.44985426936
 20
267.397139879589
 30
0.0
  0
VERTEX
  5
E1
  8
FAB_2$_CUT_2
 10
-3348.416304075301
 20
267.4690983884138
 30
0.0
  0
VERTEX
  5
E2
  8
FAB_2$_CUT_2
 10
-3348.384423339245
 20
267.5422063831359
 30
0.0
  0
VERTEX
  5
E3
  8
FAB_2$_CUT_2
 10
-3348.354265479713
 20
267.6164073319947
 30
0.0
  0
VERTEX
  5
E4
  8
FAB_2$_CUT_2
 10
-3348.325881432349
 20
267.6916415838685
 30
0.0
  0
VERTEX
  5
E5
  8
FAB_2$_CUT_2
 10
-3348.299319430902
 20
267.7678465006191
 30
0.0
  0
VERTEX
  5
E6
  8
FAB_2$_CUT_2
 10
-3348.2746247964
 20
267.8449566073982
 30
0.0
  0
VERTEX
  5
E7
  8
FAB_2$_CUT_2
 10
-3348.251839736181
 20
267.922903760352
 30
0.0
  0
VERTEX
  5
E8
  8
FAB_2$_CUT_2
 10
-3348.231003154449
 20
268.0016173309755
 30
0.0
  0
VERTEX
  5
E9
  8
FAB_2$_CUT_2
 10
-3348.212150475934
 20
268.0810244061993
 30
0.0
  0
VERTEX
  5
EA
  8
FAB_2$_CUT_2
 10
-3348.195313484127
 20
268.1610500031141
 30
0.0
  0
VERTEX
  5
EB
  8
FAB_2$_CUT_2
 10
-3348.18052017551
 20
268.241617297088
 30
0.0
  0
VERTEX
  5
EC
  8
FAB_2$_CUT_2
 10
-3348.167794631035
 20
268.3226478618737
 30
0.0
  0
VERTEX
  5
ED
  8
FAB_2$_CUT_2
 10
-3348.157156905977
 20
268.4040619201737
 30
0.0
  0
VERTEX
  5
EE
  8
FAB_2$_CUT_2
 10
-3348.14862293914
 20
268.4857786030102
 30
0.0
  0
VERTEX
  5
EF
  8
FAB_2$_CUT_2
 10
-3348.142204482198
 20
268.5677162161471
 30
0.0
  0
VERTEX
  5
F0
  8
FAB_2$_CUT_2
 10
-3348.137909049799
 20
268.6497925117299
 30
0.0
  0
VERTEX
  5
F1
  8
FAB_2$_CUT_2
 10
-3348.135739890858
 20
268.7319249632535
 30
0.0
  0
VERTEX
  5
F2
  8
FAB_2$_CUT_2
 10
-3348.135695981252
 20
268.8140310419274
 30
0.0
  0
VERTEX
  5
F3
  8
FAB_2$_CUT_2
 10
-3348.137772037949
 20
268.8960284924992
 30
0.0
  0
VERTEX
  5
F4
  8
FAB_2$_CUT_2
 10
-3348.141958554412
 20
268.9778356066032
 30
0.0
  0
VERTEX
  5
F5
  8
FAB_2$_CUT_2
 10
-3348.148241856875
 20
269.0593714917387
 30
0.0
  0
VERTEX
  5
F6
  8
FAB_2$_CUT_2
 10
-3348.156604180962
 20
269.1405563340347
 30
0.0
  0
VERTEX
  5
F7
  8
FAB_2$_CUT_2
 10
-3348.167023767877
 20
269.2213116530365
 30
0.0
  0
VERTEX
  5
F8
  8
FAB_2$_CUT_2
 10
-3348.179474979263
 20
269.3015605468472
 30
0.0
  0
VERTEX
  5
F9
  8
FAB_2$_CUT_2
 10
-3348.193928429651
 20
269.381227926072
 30
0.0
  0
VERTEX
  5
FA
  8
FAB_2$_CUT_2
 10
-3348.210351135281
 20
269.4602407351447
 30
0.0
  0
VERTEX
  5
FB
  8
FAB_2$_CUT_2
 10
-3348.228706677951
 20
269.5385281597614
 30
0.0
  0
VERTEX
  5
FC
  8
FAB_2$_CUT_2
 10
-3348.248955382455
 20
269.616021819302
 30
0.0
  0
VERTEX
  5
FD
  8
FAB_2$_CUT_2
 10
-3348.271054506072
 20
269.692655943288
 30
0.0
  0
VERTEX
  5
FE
  8
FAB_2$_CUT_2
 10
-3348.294958438501
 20
269.7683675310942
 30
0.0
  0
VERTEX
  5
FF
  8
FAB_2$_CUT_2
 10
-3348.320618910621
 20
269.8430964943063
 30
0.0
  0
VERTEX
  5
100
  8
FAB_2$_CUT_2
 10
-3348.347985210373
 20
269.9167857812956
 30
0.0
  0
VERTEX
  5
101
  8
FAB_2$_CUT_2
 10
-3348.377004404136
 20
269.9893814837502
 30
0.0
  0
VERTEX
  5
102
  8
FAB_2$_CUT_2
 10
-3348.407621561897
 20
270.0608329250767
 30
0.0
  0
VERTEX
  5
103
  8
FAB_2$_CUT_2
 10
-3348.439779984631
 20
270.1310927307451
 30
0.0
  0
VERTEX
  5
104
  8
FAB_2$_CUT_2
 10
-3348.473421432278
 20
270.200116880808
 30
0.0
  0
VERTEX
  5
105
  8
FAB_2$_CUT_2
 10
-3348.508486350853
 20
270.2678647449662
 30
0.0
  0
VERTEX
  5
106
  8
FAB_2$_CUT_2
 10
-3348.544914097213
 20
270.3342991006879
 30
0.0
  0
VERTEX
  5
107
  8
FAB_2$_CUT_2
 10
-3348.582643160174
 20
270.3993861350097
 30
0.0
  0
VERTEX
  5
108
  8
FAB_2$_CUT_2
 10
-3348.621611376712
 20
270.4630954307498
 30
0.0
  0
VERTEX
  5
109
  8
FAB_2$_CUT_2
 10
-3348.661756142149
 20
270.5253999379633
 30
0.0
  0
VERTEX
  5
10A
  8
FAB_2$_CUT_2
 10
-3348.703014613251
 20
270.5862759315406
 30
0.0
  0
VERTEX
  5
10B
  8
FAB_2$_CUT_2
 10
-3348.74532390338
 20
270.6457029559184
 30
0.0
  0
VERTEX
  5
10C
  8
FAB_2$_CUT_2
 10
-3348.788621268894
 20
270.703663757918
 30
0.0
  0
VERTEX
  5
10D
  8
FAB_2$_CUT_2
 10
-3348.832844286122
 20
270.7601442087668
 30
0.0
  0
VERTEX
  5
10E
  8
FAB_2$_CUT_2
 10
-3348.877931018377
 20
270.8151332163704
 30
0.0
  0
VERTEX
  5
10F
  8
FAB_2$_CUT_2
 10
-3359.030056246086
 20
282.3883847398725
 30
0.0
  0
VERTEX
  5
110
  8
FAB_2$_CUT_2
 10
-3399.417601684191
 20
328.3528282058145
 30
0.0
  0
VERTEX
  5
111
  8
FAB_2$_CUT_2
 10
-3402.989621407959
 20
332.4931064631422
 30
0.0
  0
VERTEX
  5
112
  8
FAB_2$_CUT_2
 10
-3406.691692453656
 20
336.7126902173768
 30
0.0
  0
VERTEX
  5
113
  8
FAB_2$_CUT_2
 10
-3408.625196493611
 20
338.8420511199407
 30
0.0
  0
VERTEX
  5
114
  8
FAB_2$_CUT_2
 10
-3410.58738494417
 20
340.8962834125992
 30
0.0
  0
VERTEX
  5
115
  8
FAB_2$_CUT_2
 10
-3412.5776549607
 20
342.8763143019307
 30
0.0
  0
VERTEX
  5
116
  8
FAB_2$_CUT_2
 10
-3414.59540369857
 20
344.7830709945134
 30
0.0
  0
VERTEX
  5
117
  8
FAB_2$_CUT_2
 10
-3416.640028313148
 20
346.6174806969257
 30
0.0
  0
VERTEX
  5
118
  8
FAB_2$_CUT_2
 10
-3418.710925959803
 20
348.380470615746
 30
0.0
  0
VERTEX
  5
119
  8
FAB_2$_CUT_2
 10
-3420.807493793903
 20
350.0729679575527
 30
0.0
  0
VERTEX
  5
11A
  8
FAB_2$_CUT_2
 10
-3422.929128970816
 20
351.695899928924
 30
0.0
  0
VERTEX
  5
11B
  8
FAB_2$_CUT_2
 10
-3425.075228645911
 20
353.2501937364384
 30
0.0
  0
VERTEX
  5
11C
  8
FAB_2$_CUT_2
 10
-3427.245189974556
 20
354.7367765866743
 30
0.0
  0
VERTEX
  5
11D
  8
FAB_2$_CUT_2
 10
-3429.438410112119
 20
356.1565756862099
 30
0.0
  0
VERTEX
  5
11E
  8
FAB_2$_CUT_2
 10
-3431.654286213969
 20
357.5105182416237
 30
0.0
  0
VERTEX
  5
11F
  8
FAB_2$_CUT_2
 10
-3433.892215435475
 20
358.799531459494
 30
0.0
  0
VERTEX
  5
120
  8
FAB_2$_CUT_2
 10
-3436.151594932004
 20
360.0245425463993
 30
0.0
  0
VERTEX
  5
121
  8
FAB_2$_CUT_2
 10
-3438.431821858925
 20
361.1864787089177
 30
0.0
  0
VERTEX
  5
122
  8
FAB_2$_CUT_2
 10
-3440.732293371606
 20
362.2862671536277
 30
0.0
  0
VERTEX
  5
123
  8
FAB_2$_CUT_2
 10
-3443.052406625417
 20
363.3248350871077
 30
0.0
  0
VERTEX
  5
124
  8
FAB_2$_CUT_2
 10
-3445.391558775723
 20
364.3031097159361
 30
0.0
  0
VERTEX
  5
125
  8
FAB_2$_CUT_2
 10
-3447.749146977896
 20
365.2220182466911
 30
0.0
  0
VERTEX
  5
126
  8
FAB_2$_CUT_2
 10
-3450.124568387302
 20
366.0824878859512
 30
0.0
  0
VERTEX
  5
127
  8
FAB_2$_CUT_2
 10
-3452.51722015931
 20
366.8854458402946
 30
0.0
  0
VERTEX
  5
128
  8
FAB_2$_CUT_2
 10
-3454.926499449289
 20
367.6318193162998
 30
0.0
  0
VERTEX
  5
129
  8
FAB_2$_CUT_2
 10
-3457.351803412606
 20
368.3225355205452
 30
0.0
  0
VERTEX
  5
12A
  8
FAB_2$_CUT_2
 10
-3459.792529204631
 20
368.9585216596091
 30
0.0
  0
VERTEX
  5
12B
  8
FAB_2$_CUT_2
 10
-3462.248073980732
 20
369.5407049400698
 30
0.0
  0
VERTEX
  5
12C
  8
FAB_2$_CUT_2
 10
-3464.717834896277
 20
370.0700125685057
 30
0.0
  0
VERTEX
  5
12D
  8
FAB_2$_CUT_2
 10
-3467.201209106634
 20
370.5473717514952
 30
0.0
  0
VERTEX
  5
12E
  8
FAB_2$_CUT_2
 10
-3469.697593767171
 20
370.9737096956167
 30
0.0
  0
VERTEX
  5
12F
  8
FAB_2$_CUT_2
 10
-3472.206386033258
 20
371.3499536074485
 30
0.0
  0
VERTEX
  5
130
  8
FAB_2$_CUT_2
 10
-3474.726983060263
 20
371.677030693569
 30
0.0
  0
VERTEX
  5
131
  8
FAB_2$_CUT_2
 10
-3477.258782003553
 20
371.9558681605563
 30
0.0
  0
VERTEX
  5
132
  8
FAB_2$_CUT_2
 10
-3479.801180018498
 20
372.1873932149892
 30
0.0
  0
VERTEX
  5
133
  8
FAB_2$_CUT_2
 10
-3482.353574260464
 20
372.3725330634458
 30
0.0
  0
VERTEX
  5
134
  8
FAB_2$_CUT_2
 10
-3484.915361884823
 20
372.5122149125045
 30
0.0
  0
VERTEX
  5
135
  8
FAB_2$_CUT_2
 10
-3490.064705902186
 20
372.6589134387416
 30
0.0
  0
VERTEX
  5
136
  8
FAB_2$_CUT_2
 10
-3495.244389313533
 20
372.6349064463275
 30
0.0
  0
VERTEX
  5
137
  8
FAB_2$_CUT_2
 10
-3500.449589361812
 20
372.4476115878891
 30
0.0
  0
VERTEX
  5
138
  8
FAB_2$_CUT_2
 10
-3505.675483289969
 20
372.1044465160531
 30
0.0
  0
VERTEX
  5
139
  8
FAB_2$_CUT_2
 10
-3510.917248340951
 20
371.6128288834467
 30
0.0
  0
VERTEX
  5
13A
  8
FAB_2$_CUT_2
 10
-3516.170061757706
 20
370.9801763426966
 30
0.0
  0
VERTEX
  5
13B
  8
FAB_2$_CUT_2
 10
-3521.42910078318
 20
370.2139065464297
 30
0.0
  0
VERTEX
  5
13C
  8
FAB_2$_CUT_2
 10
-3526.68954266032
 20
369.3214371472729
 30
0.0
  0
VERTEX
  5
13D
  8
FAB_2$_CUT_2
 10
-3531.946564632073
 20
368.3101857978532
 30
0.0
  0
VERTEX
  5
13E
  8
FAB_2$_CUT_2
 10
-3537.195343941386
 20
367.1875701507973
 30
0.0
  0
VERTEX
  5
13F
  8
FAB_2$_CUT_2
 10
-3542.431057831207
 20
365.9610078587323
 30
0.0
  0
VERTEX
  5
140
  8
FAB_2$_CUT_2
 10
-3552.843998324158
 20
363.2257139500821
 30
0.0
  0
VERTEX
  5
141
  8
FAB_2$_CUT_2
 10
-3563.146804054501
 20
360.1636452929177
 30
0.0
  0
VERTEX
  5
142
  8
FAB_2$_CUT_2
 10
-3573.307179635332
 20
356.824583636018
 30
0.0
  0
VERTEX
  5
143
  8
FAB_2$_CUT_2
 10
-3583.31797635783
 20
353.2200728392154
 30
0.0
  0
VERTEX
  5
144
  8
FAB_2$_CUT_2
 10
-3593.178332182695
 20
349.3520972901064
 30
0.0
  0
VERTEX
  5
145
  8
FAB_2$_CUT_2
 10
-3602.887385070625
 20
345.2226413762869
 30
0.0
  0
VERTEX
  5
146
  8
FAB_2$_CUT_2
 10
-3612.444272982319
 20
340.8336894853534
 30
0.0
  0
VERTEX
  5
147
  8
FAB_2$_CUT_2
 10
-3621.848133878478
 20
336.187226004902
 30
0.0
  0
VERTEX
  5
148
  8
FAB_2$_CUT_2
 10
-3631.0981057198
 20
331.2852353225288
 30
0.0
  0
VERTEX
  5
149
  8
FAB_2$_CUT_2
 10
-3640.193326466983
 20
326.1297018258304
 30
0.0
  0
VERTEX
  5
14A
  8
FAB_2$_CUT_2
 10
-3649.132934080727
 20
320.7226099024026
 30
0.0
  0
VERTEX
  5
14B
  8
FAB_2$_CUT_2
 10
-3657.916066521732
 20
315.0659439398419
 30
0.0
  0
VERTEX
  5
14C
  8
FAB_2$_CUT_2
 10
-3666.541861750697
 20
309.1616883257445
 30
0.0
  0
VERTEX
  5
14D
  8
FAB_2$_CUT_2
 10
-3675.00945772832
 20
303.0118274477064
 30
0.0
  0
VERTEX
  5
14E
  8
FAB_2$_CUT_2
 10
-3683.317992415301
 20
296.618345693324
 30
0.0
  0
VERTEX
  5
14F
  8
FAB_2$_CUT_2
 10
-3691.466603772339
 20
289.9832274501936
 30
0.0
  0
VERTEX
  5
150
  8
FAB_2$_CUT_2
 10
-3699.454429760133
 20
283.1084571059113
 30
0.0
  0
VERTEX
  5
151
  8
FAB_2$_CUT_2
 10
-3707.280608339383
 20
275.9960190480733
 30
0.0
 42
0.4151988665981757
  0
VERTEX
  5
152
  8
FAB_2$_CUT_2
 10
-3707.581639909703
 20
271.5084328969638
 30
0.0
  0
VERTEX
  5
153
  8
FAB_2$_CUT_2
 10
-3696.976401602686
 20
259.2660952652867
 30
0.0
  0
VERTEX
  5
154
  8
FAB_2$_CUT_2
 10
-3696.462799627233
 20
258.6956949468083
 30
0.0
  0
VERTEX
  5
155
  8
FAB_2$_CUT_2
 10
-3695.936382777931
 20
258.1440428665495
 30
0.0
  0
VERTEX
  5
156
  8
FAB_2$_CUT_2
 10
-3695.667436015941
 20
257.876612048775
 30
0.0
  0
VERTEX
  5
157
  8
FAB_2$_CUT_2
 10
-3695.394166223915
 20
257.6155058501824
 30
0.0
  0
VERTEX
  5
158
  8
FAB_2$_CUT_2
 10
-3695.116281340599
 20
257.3611657979101
 30
0.0
  0
VERTEX
  5
159
  8
FAB_2$_CUT_2
 10
-3694.83381347516
 20
257.1136161148126
 30
0.0
  0
VERTEX
  5
15A
  8
FAB_2$_CUT_2
 10
-3694.546875779368
 20
256.872776697674
 30
0.0
  0
VERTEX
  5
15B
  8
FAB_2$_CUT_2
 10
-3694.255581404994
 20
256.6385674432782
 30
0.0
  0
VERTEX
  5
15C
  8
FAB_2$_CUT_2
 10
-3693.960043503811
 20
256.4109082484092
 30
0.0
  0
VERTEX
  5
15D
  8
FAB_2$_CUT_2
 10
-3693.660375227588
 20
256.1897190098507
 30
0.0
  0
VERTEX
  5
15E
  8
FAB_2$_CUT_2
 10
-3693.356689728097
 20
255.9749196243868
 30
0.0
  0
VERTEX
  5
15F
  8
FAB_2$_CUT_2
 10
-3693.04910015711
 20
255.7664299888014
 30
0.0
  0
VERTEX
  5
160
  8
FAB_2$_CUT_2
 10
-3692.737719666397
 20
255.5641699998783
 30
0.0
  0
VERTEX
  5
161
  8
FAB_2$_CUT_2
 10
-3692.42266140773
 20
255.3680595544016
 30
0.0
  0
VERTEX
  5
162
  8
FAB_2$_CUT_2
 10
-3692.10403853288
 20
255.1780185491552
 30
0.0
  0
VERTEX
  5
163
  8
FAB_2$_CUT_2
 10
-3691.781964193617
 20
254.9939668809229
 30
0.0
  0
VERTEX
  5
164
  8
FAB_2$_CUT_2
 10
-3691.456551541713
 20
254.8158244464887
 30
0.0
  0
VERTEX
  5
165
  8
FAB_2$_CUT_2
 10
-3691.127913728939
 20
254.6435111426365
 30
0.0
  0
VERTEX
  5
166
  8
FAB_2$_CUT_2
 10
-3690.461415227867
 20
254.3160515138139
 30
0.0
  0
VERTEX
  5
167
  8
FAB_2$_CUT_2
 10
-3690.123694483734
 20
254.1607921170726
 30
0.0
  0
VERTEX
  5
168
  8
FAB_2$_CUT_2
 10
-3689.782683029554
 20
254.0113242460166
 30
0.0
  0
VERTEX
  5
169
  8
FAB_2$_CUT_2
 10
-3689.437975860837
 20
253.8678506053973
 30
0.0
  0
VERTEX
  5
16A
  8
FAB_2$_CUT_2
 10
-3689.089167973094
 20
253.7305738999663
 30
0.0
  0
VERTEX
  5
16B
  8
FAB_2$_CUT_2
 10
-3688.735854361834
 20
253.5996968344751
 30
0.0
  0
VERTEX
  5
16C
  8
FAB_2$_CUT_2
 10
-3688.377630022566
 20
253.4754221136753
 30
0.0
  0
VERTEX
  5
16D
  8
FAB_2$_CUT_2
 10
-3688.014089950801
 20
253.3579524423182
 30
0.0
  0
VERTEX
  5
16E
  8
FAB_2$_CUT_2
 10
-3687.644829142048
 20
253.2474905251553
 30
0.0
  0
VERTEX
  5
16F
  8
FAB_2$_CUT_2
 10
-3687.269442591817
 20
253.1442390669383
 30
0.0
  0
VERTEX
  5
170
  8
FAB_2$_CUT_2
 10
-3686.887525295619
 20
253.0484007724185
 30
0.0
  0
VERTEX
  5
171
  8
FAB_2$_CUT_2
 10
-3686.498672248963
 20
252.9601783463476
 30
0.0
  0
VERTEX
  5
172
  8
FAB_2$_CUT_2
 10
-3686.102478447357
 20
252.8797744934769
 30
0.0
  0
VERTEX
  5
173
  8
FAB_2$_CUT_2
 10
-3685.698538886314
 20
252.807391918558
 30
0.0
  0
VERTEX
  5
174
  8
FAB_2$_CUT_2
 10
-3685.286448561343
 20
252.7432333263424
 30
0.0
  0
VERTEX
  5
175
  8
FAB_2$_CUT_2
 10
-3684.865802467953
 20
252.6875014215815
 30
0.0
  0
VERTEX
  5
176
  8
FAB_2$_CUT_2
 10
-3684.436195601653
 20
252.640398909027
 30
0.0
  0
VERTEX
  5
177
  8
FAB_2$_CUT_2
 10
-3683.998059026071
 20
252.6025455992892
 30
0.0
  0
VERTEX
  5
178
  8
FAB_2$_CUT_2
 10
-3683.555168077298
 20
252.5762297264143
 30
0.0
  0
VERTEX
  5
179
  8
FAB_2$_CUT_2
 10
-3683.33338077678
 20
252.568243747521
 30
0.0
  0
VERTEX
  5
17A
  8
FAB_2$_CUT_2
 10
-3683.112134159543
 20
252.5641566303078
 30
0.0
  0
VERTEX
  5
17B
  8
FAB_2$_CUT_2
 10
-3682.892004651112
 20
252.564306542263
 30
0.0
  0
VERTEX
  5
17C
  8
FAB_2$_CUT_2
 10
-3682.673568677013
 20
252.5690316508747
 30
0.0
  0
VERTEX
  5
17D
  8
FAB_2$_CUT_2
 10
-3682.457402662773
 20
252.5786701236311
 30
0.0
  0
VERTEX
  5
17E
  8
FAB_2$_CUT_2
 10
-3682.244083033918
 20
252.5935601280203
 30
0.0
  0
VERTEX
  5
17F
  8
FAB_2$_CUT_2
 10
-3682.034186215973
 20
252.6140398315306
 30
0.0
  0
VERTEX
  5
180
  8
FAB_2$_CUT_2
 10
-3681.828288634465
 20
252.6404474016499
 30
0.0
  0
VERTEX
  5
181
  8
FAB_2$_CUT_2
 10
-3681.727019690352
 20
252.6559798140281
 30
0.0
  0
VERTEX
  5
182
  8
FAB_2$_CUT_2
 10
-3681.62696671492
 20
252.6731210058666
 30
0.0
  0
VERTEX
  5
183
  8
FAB_2$_CUT_2
 10
-3681.52820176136
 20
252.6919132481015
 30
0.0
  0
VERTEX
  5
184
  8
FAB_2$_CUT_2
 10
-3681.430796882863
 20
252.7123988116687
 30
0.0
  0
VERTEX
  5
185
  8
FAB_2$_CUT_2
 10
-3681.334824132621
 20
252.7346199675044
 30
0.0
  0
VERTEX
  5
186
  8
FAB_2$_CUT_2
 10
-3681.240355563822
 20
252.7586189865444
 30
0.0
  0
VERTEX
  5
187
  8
FAB_2$_CUT_2
 10
-3681.147463229659
 20
252.784438139725
 30
0.0
  0
VERTEX
  5
188
  8
FAB_2$_CUT_2
 10
-3681.056219183321
 20
252.8121196979819
 30
0.0
  0
VERTEX
  5
189
  8
FAB_2$_CUT_2
 10
-3680.966695478
 20
252.8417059322514
 30
0.0
  0
VERTEX
  5
18A
  8
FAB_2$_CUT_2
 10
-3680.878964166887
 20
252.8732391134693
 30
0.0
  0
VERTEX
  5
18B
  8
FAB_2$_CUT_2
 10
-3680.793097303173
 20
252.9067615125718
 30
0.0
  0
VERTEX
  5
18C
  8
FAB_2$_CUT_2
 10
-3680.709166940046
 20
252.9423154004948
 30
0.0
  0
VERTEX
  5
18D
  8
FAB_2$_CUT_2
 10
-3680.6272451307
 20
252.9799430481743
 30
0.0
  0
VERTEX
  5
18E
  8
FAB_2$_CUT_2
 10
-3680.547403928324
 20
253.0196867265465
 30
0.0
  0
VERTEX
  5
18F
  8
FAB_2$_CUT_2
 10
-3680.46971538611
 20
253.0615887065472
 30
0.0
  0
VERTEX
  5
190
  8
FAB_2$_CUT_2
 10
-3680.431700879185
 20
253.0833622693258
 30
0.0
  0
VERTEX
  5
191
  8
FAB_2$_CUT_2
 10
-3680.394251557248
 20
253.1056912591125
 30
0.0
  0
VERTEX
  5
192
  8
FAB_2$_CUT_2
 10
-3680.357376426946
 20
253.1285809597744
 30
0.0
  0
VERTEX
  5
193
  8
FAB_2$_CUT_2
 10
-3680.321084494928
 20
253.1520366551785
 30
0.0
  0
VERTEX
  5
194
  8
FAB_2$_CUT_2
 10
-3680.285384767844
 20
253.1760636291917
 30
0.0
  0
VERTEX
  5
195
  8
FAB_2$_CUT_2
 10
-3680.250286252342
 20
253.2006671656811
 30
0.0
  0
VERTEX
  5
196
  8
FAB_2$_CUT_2
 10
-3680.215797955071
 20
253.2258525485136
 30
0.0
  0
VERTEX
  5
197
  8
FAB_2$_CUT_2
 10
-3680.18192888268
 20
253.2516250615564
 30
0.0
  0
VERTEX
  5
198
  8
FAB_2$_CUT_2
 10
-3680.148688041817
 20
253.2779899886763
 30
0.0
  0
VERTEX
  5
199
  8
FAB_2$_CUT_2
 10
-3680.116084439132
 20
253.3049526137403
 30
0.0
  0
VERTEX
  5
19A
  8
FAB_2$_CUT_2
 10
-3680.084127081274
 20
253.3325182206156
 30
0.0
  0
VERTEX
  5
19B
  8
FAB_2$_CUT_2
 10
-3680.052824974891
 20
253.360692093169
 30
0.0
  0
VERTEX
  5
19C
  8
FAB_2$_CUT_2
 10
-3680.022187126633
 20
253.3894795152676
 30
0.0
  0
VERTEX
  5
19D
  8
FAB_2$_CUT_2
 10
-3679.992222543146
 20
253.4188857707784
 30
0.0
  0
VERTEX
  5
19E
  8
FAB_2$_CUT_2
 10
-3679.962940231083
 20
253.4489161435685
 30
0.0
  0
VERTEX
  5
19F
  8
FAB_2$_CUT_2
 10
-3679.934349197089
 20
253.4795759175046
 30
0.0
  0
VERTEX
  5
1A0
  8
FAB_2$_CUT_2
 10
-3679.906458447816
 20
253.510870376454
 30
0.0
  0
VERTEX
  5
1A1
  8
FAB_2$_CUT_2
 10
-3679.87927698991
 20
253.5428048042835
 30
0.0
  0
VERTEX
  5
1A2
  8
FAB_2$_CUT_2
 10
-3679.852813830022
 20
253.5753844848603
 30
0.0
  0
VERTEX
  5
1A3
  8
FAB_2$_CUT_2
 10
-3679.8270779748
 20
253.6086147020513
 30
0.0
  0
VERTEX
  5
1A4
  8
FAB_2$_CUT_2
 10
-3679.802078430892
 20
253.6425007397234
 30
0.0
  0
VERTEX
  5
1A5
  8
FAB_2$_CUT_2
 10
-3679.777824204949
 20
253.6770478817438
 30
0.0
  0
VERTEX
  5
1A6
  8
FAB_2$_CUT_2
 10
-3679.754324303618
 20
253.7122614119793
 30
0.0
  0
VERTEX
  5
1A7
  8
FAB_2$_CUT_2
 10
-3679.731587733549
 20
253.7481466142971
 30
0.0
  0
VERTEX
  5
1A8
  8
FAB_2$_CUT_2
 10
-3679.709623501389
 20
253.7847087725641
 30
0.0
  0
VERTEX
  5
1A9
  8
FAB_2$_CUT_2
 10
-3679.688440613789
 20
253.8219531706473
 30
0.0
  0
VERTEX
  5
1AA
  8
FAB_2$_CUT_2
 10
-3679.668048077396
 20
253.8598850924137
 30
0.0
  0
VERTEX
  5
1AB
  8
FAB_2$_CUT_2
 10
-3679.648454898861
 20
253.8985098217304
 30
0.0
  0
VERTEX
  5
1AC
  8
FAB_2$_CUT_2
 10
-3679.629670084832
 20
253.9378326424642
 30
0.0
  0
VERTEX
  5
1AD
  8
FAB_2$_CUT_2
 10
-3679.611702641956
 20
253.9778588384823
 30
0.0
  0
VERTEX
  5
1AE
  8
FAB_2$_CUT_2
 10
-3679.594561576884
 20
254.0185936936516
 30
0.0
  0
VERTEX
  5
1AF
  8
FAB_2$_CUT_2
 10
-3679.578255896265
 20
254.0600424918392
 30
0.0
  0
VERTEX
  5
1B0
  8
FAB_2$_CUT_2
 10
-3679.562794606746
 20
254.102210516912
 30
0.0
  0
VERTEX
  5
1B1
  8
FAB_2$_CUT_2
 10
-3679.548186714977
 20
254.1451030527369
 30
0.0
  0
VERTEX
  5
1B2
  8
FAB_2$_CUT_2
 10
-3679.534441227606
 20
254.1887253831812
 30
0.0
  0
VERTEX
  5
1B3
  8
FAB_2$_CUT_2
 10
-3679.521567151283
 20
254.2330827921116
 30
0.0
  0
VERTEX
  5
1B4
  8
FAB_2$_CUT_2
 10
-3679.509573492657
 20
254.2781805633954
 30
0.0
  0
VERTEX
  5
1B5
  8
FAB_2$_CUT_2
 10
-3679.498469258377
 20
254.3240239808993
 30
0.0
  0
VERTEX
  5
1B6
  8
FAB_2$_CUT_2
 10
-3679.48826345509
 20
254.3706183284905
 30
0.0
  0
VERTEX
  5
1B7
  8
FAB_2$_CUT_2
 10
-3679.478965089445
 20
254.417968890036
 30
0.0
  0
VERTEX
  5
1B8
  8
FAB_2$_CUT_2
 10
-3679.470583168093
 20
254.4660809494027
 30
0.0
  0
VERTEX
  5
1B9
  8
FAB_2$_CUT_2
 10
-3679.463126697682
 20
254.5149597904576
 30
0.0
  0
VERTEX
  5
1BA
  8
FAB_2$_CUT_2
 10
-3679.456604684859
 20
254.5646106970678
 30
0.0
  0
VERTEX
  5
1BB
  8
FAB_2$_CUT_2
 10
-3679.451026136276
 20
254.6150389531003
 30
0.0
  0
VERTEX
  5
1BC
  8
FAB_2$_CUT_2
 10
-3679.446400058579
 20
254.666249842422
 30
0.0
  0
VERTEX
  5
1BD
  8
FAB_2$_CUT_2
 10
-3679.442735458418
 20
254.7182486489
 30
0.0
  0
VERTEX
  5
1BE
  8
FAB_2$_CUT_2
 10
-3679.440041342443
 20
254.7710406564013
 30
0.0
  0
VERTEX
  5
1BF
  8
FAB_2$_CUT_2
 10
-3679.4383267173
 20
254.8246311487928
 30
0.0
  0
VERTEX
  5
1C0
  8
FAB_2$_CUT_2
 10
-3679.437600589641
 20
254.8790254099416
 30
0.0
  0
VERTEX
  5
1C1
  8
FAB_2$_CUT_2
 10
-3679.437871966112
 20
254.9342287237146
 30
0.0
  0
VERTEX
  5
1C2
  8
FAB_2$_CUT_2
 10
-3695.401856357483
 20
273.1255515913314
 30
0.0
  0
VERTEX
  5
1C3
  8
FAB_2$_CUT_2
 10
-3686.135779909062
 20
281.2144232283364
 30
0.0
  0
SEQEND
  5
1C4
  8
FAB_2$_CUT_2
  0
CIRCLE
  5
1C5
  8
FAB_2$_CUT_2
 10
-3384.120956376668
 20
301.4328205400631
 30
0.0
 40
2.095499999999766
  0
POLYLINE
  5
1C6
  8
FAB_2$_CUT_2
 66
     1
 10
0.0
 20
0.0
 30
0.0
 70
     1
  0
VERTEX
  5
1C7
  8
FAB_2$_CUT_2
 10
-3390.795286321133
 20
313.2471788071575
 30
0.0
  0
VERTEX
  5
1C8
  8
FAB_2$_CUT_2
 10
-3391.747540717095
 20
312.4068743591337
 30
0.0
  0
VERTEX
  5
1C9
  8
FAB_2$_CUT_2
 10
-3393.428149613143
 20
314.3113831510629
 30
0.0
  0
VERTEX
  5
1CA
  8
FAB_2$_CUT_2
 10
-3392.475895217178
 20
315.1516875990853
 30
0.0
  0
SEQEND
  5
1CB
  8
FAB_2$_CUT_2
  0
POLYLINE
  5
1CC
  8
FAB_2$_CUT_2
 66
     1
 10
0.0
 20
0.0
 30
0.0
 70
     1
  0
VERTEX
  5
1CD
  8
FAB_2$_CUT_2
 10
-3373.202853743326
 20
293.378653525163
 30
0.0
  0
VERTEX
  5
1CE
  8
FAB_2$_CUT_2
 10
-3371.515828132858
 20
291.4798263635631
 30
0.0
  0
VERTEX
  5
1CF
  8
FAB_2$_CUT_2
 10
-3372.465241713658
 20
290.6363135583301
 30
0.0
  0
VERTEX
  5
1D0
  8
FAB_2$_CUT_2
 10
-3374.152267324126
 20
292.5351407199299
 30
0.0
  0
SEQEND
  5
1D1
  8
FAB_2$_CUT_2
  0
POLYLINE
  5
1D2
  8
FAB_2$_CUT_2
 66
     1
 10
0.0
 20
0.0
 30
0.0
 70
     1
  0
VERTEX
  5
1D3
  8
FAB_2$_CUT_2
 10
-3677.136328541794
 20
277.3790272432263
 30
0.0
  0
VERTEX
  5
1D4
  8
FAB_2$_CUT_2
 10
-3675.234657858578
 20
279.0628468928891
 30
0.0
  0
VERTEX
  5
1D5
  8
FAB_2$_CUT_2
 10
-3674.392748033744
 20
278.1120115512811
 30
0.0
  0
VERTEX
  5
1D6
  8
FAB_2$_CUT_2
 10
-3676.294418716962
 20
276.4281919016182
 30
0.0
  0
SEQEND
  5
1D7
  8
FAB_2$_CUT_2
  0
POLYLINE
  5
1D8
  8
FAB_2$_CUT_2
 66
     1
 10
0.0
 20
0.0
 30
0.0
 70
     1
  0
VERTEX
  5
1D9
  8
FAB_2$_CUT_2
 10
-3680.504636900842
 20
281.1831242317101
 30
0.0
  0
VERTEX
  5
1DA
  8
FAB_2$_CUT_2
 10
-3678.602966217625
 20
282.8669438813735
 30
0.0
  0
VERTEX
  5
1DB
  8
FAB_2$_CUT_2
 10
-3677.761056392792
 20
281.9161085397651
 30
0.0
  0
VERTEX
  5
1DC
  8
FAB_2$_CUT_2
 10
-3679.662727076009
 20
280.232288890101
 30
0.0
  0
SEQEND
  5
1DD
  8
FAB_2$_CUT_2
  0
POLYLINE
  5
1DE
  8
FAB_2$_CUT_2
 66
     1
 10
0.0
 20
0.0
 30
0.0
 70
     1
  0
VERTEX
  5
1DF
  8
FAB_2$_CUT_2
 10
-3643.075368788441
 20
304.8887504759507
 30
0.0
  0
VERTEX
  5
1E0
  8
FAB_2$_CUT_2
 10
-3640.957031369215
 20
306.2902662904577
 30
0.0
  0
VERTEX
  5
1E1
  8
FAB_2$_CUT_2
 10
-3640.256273461963
 20
305.2310975808457
 30
0.0
  0
VERTEX
  5
1E2
  8
FAB_2$_CUT_2
 10
-3642.374610881187
 20
303.8295817663394
 30
0.0
  0
SEQEND
  5
1E3
  8
FAB_2$_CUT_2
  0
POLYLINE
  5
1E4
  8
FAB_2$_CUT_2
 66
     1
 10
0.0
 20
0.0
 30
0.0
 70
     1
  0
VERTEX
  5
1E5
  8
FAB_2$_CUT_2
 10
-3645.878957304753
 20
309.1262670282048
 30
0.0
  0
VERTEX
  5
1E6
  8
FAB_2$_CUT_2
 10
-3643.760619885529
 20
310.527782842711
 30
0.0
  0
VERTEX
  5
1E7
  8
FAB_2$_CUT_2
 10
-3643.059861978275
 20
309.4686141330982
 30
0.0
  0
VERTEX
  5
1E8
  8
FAB_2$_CUT_2
 10
-3645.1781993975
 20
308.0670983185911
 30
0.0
  0
SEQEND
  5
1E9
  8
FAB_2$_CUT_2
  0
CIRCLE
  5
1EA
  8
FAB_2$_CUT_2
 10
-3399.085288659613
 20
288.1827678550752
 30
0.0
 40
2.095500000000217
  0
CIRCLE
  5
1EB
  8
FAB_2$_CUT_2
 10
-3583.174719746552
 20
329.9652151480168
 30
0.0
 40
1.778000000000061
  0
CIRCLE
  5
1EC
  8
FAB_2$_CUT_2
 10
-3588.030573437078
 20
342.0346905674929
 30
0.0
 40
1.777999999999752
  0
POLYLINE
  5
1ED
  8
FAB_2$_CUT_2
 66
     1
 10
0.0
 20
0.0
 30
0.0
 70
     1
  0
VERTEX
  5
1EE
  8
FAB_2$_CUT_2
 10
-3419.687641105186
 20
329.7796660098587
 30
0.0
  0
VERTEX
  5
1EF
  8
FAB_2$_CUT_2
 10
-3418.726734889518
 20
330.6100630502475
 30
0.0
  0
VERTEX
  5
1F0
  8
FAB_2$_CUT_2
 10
-3417.065940808738
 20
328.6882506189107
 30
0.0
  0
VERTEX
  5
1F1
  8
FAB_2$_CUT_2
 10
-3418.026847024407
 20
327.857853578521
 30
0.0
  0
SEQEND
  5
1F2
  8
FAB_2$_CUT_2
  0
POLYLINE
  5
1F3
  8
FAB_2$_CUT_2
 66
     1
 10
0.0
 20
0.0
 30
0.0
 70
     1
  0
VERTEX
  5
1F4
  8
FAB_2$_CUT_2
 10
-3415.843252617211
 20
333.1019140820116
 30
0.0
  0
VERTEX
  5
1F5
  8
FAB_2$_CUT_2
 10
-3414.882346401542
 20
333.9323111224036
 30
0.0
  0
VERTEX
  5
1F6
  8
FAB_2$_CUT_2
 10
-3413.221552320762
 20
332.0104986910649
 30
0.0
  0
VERTEX
  5
1F7
  8
FAB_2$_CUT_2
 10
-3414.18245853643
 20
331.1801016506735
 30
0.0
  0
SEQEND
  5
1F8
  8
FAB_2$_CUT_2
  0
POLYLINE
  5
1F9
  8
FAB_2$_CUT_2
 66
     1
 10
0.0
 20
0.0
 30
0.0
 70
     1
  0
VERTEX
  5
1FA
  8
FAB_2$_CUT_2
 10
-3528.836325732445
 20
351.9197610776955
 30
0.0
  0
VERTEX
  5
1FB
  8
FAB_2$_CUT_2
 10
-3526.315512459607
 20
352.2313705183194
 30
0.0
  0
VERTEX
  5
1FC
  8
FAB_2$_CUT_2
 10
-3526.159707739296
 20
350.9709638818995
 30
0.0
  0
VERTEX
  5
1FD
  8
FAB_2$_CUT_2
 10
-3528.680521012134
 20
350.659354441278
 30
0.0
  0
SEQEND
  5
1FE
  8
FAB_2$_CUT_2
  0
POLYLINE
  5
1FF
  8
FAB_2$_CUT_2
 66
     1
 10
0.0
 20
0.0
 30
0.0
 70
     1
  0
VERTEX
  5
200
  8
FAB_2$_CUT_2
 10
-3529.459668430588
 20
356.9623892595174
 30
0.0
  0
VERTEX
  5
201
  8
FAB_2$_CUT_2
 10
-3526.938855157753
 20
357.2739987001401
 30
0.0
  0
VERTEX
  5
202
  8
FAB_2$_CUT_2
 10
-3526.78305043744
 20
356.0135920637211
 30
0.0
  0
VERTEX
  5
203
  8
FAB_2$_CUT_2
 10
-3529.303863710276
 20
355.7019826230962
 30
0.0
  0
SEQEND
  5
204
  8
FAB_2$_CUT_2
  0
POLYLINE
  5
205
  8
FAB_2$_CUT_2
 66
     1
 10
0.0
 20
0.0
 30
0.0
 70
     1
  0
VERTEX
  5
206
  8
FAB_2$_CUT_2
 10
-3387.892638699529
 20
278.0541138790544
 30
0.0
  0
VERTEX
  5
207
  8
FAB_2$_CUT_2
 10
-3386.220836431376
 20
276.141869863193
 30
0.0
  0
VERTEX
  5
208
  8
FAB_2$_CUT_2
 10
-3387.176958439306
 20
275.3059687291145
 30
0.0
  0
VERTEX
  5
209
  8
FAB_2$_CUT_2
 10
-3388.848760707458
 20
277.2182127449768
 30
0.0
  0
SEQEND
  5
20A
  8
FAB_2$_CUT_2
  0
POLYLINE
  5
20B
  8
FAB_2$_CUT_2
 66
     1
 10
0.0
 20
0.0
 30
0.0
 70
     1
  0
VERTEX
  5
20C
  8
FAB_2$_CUT_2
 10
-3409.231551786546
 20
300.4340610774936
 30
0.0
  0
VERTEX
  5
20D
  8
FAB_2$_CUT_2
 10
-3408.278255757933
 20
301.273183644124
 30
0.0
  0
VERTEX
  5
20E
  8
FAB_2$_CUT_2
 10
-3406.600010624673
 20
299.3665915868958
 30
0.0
  0
VERTEX
  5
20F
  8
FAB_2$_CUT_2
 10
-3407.553306653287
 20
298.5274690202651
 30
0.0
  0
SEQEND
  5
210
  8
FAB_2$_CUT_2
  0
POLYLINE
  5
211
  8
FAB_2$_CUT_2
 66
     1
 10
0.0
 20
0.0
 30
0.0
 70
     1
  0
VERTEX
  5
212
  8
FAB_2$_CUT_2
 10
-3457.563078803309
 20
352.1215576795955
 30
0.0
  0
VERTEX
  5
213
  8
FAB_2$_CUT_2
 10
-3457.302366448624
 20
353.3645094357444
 30
0.0
  0
VERTEX
  5
214
  8
FAB_2$_CUT_2
 10
-3454.816462936325
 20
352.8430847263732
 30
0.0
  0
VERTEX
  5
215
  8
FAB_2$_CUT_2
 10
-3455.077175291011
 20
351.6001329702245
 30
0.0
  0
SEQEND
  5
216
  8
FAB_2$_CUT_2
  0
POLYLINE
  5
217
  8
FAB_2$_CUT_2
 66
     1
 10
0.0
 20
0.0
 30
0.0
 70
     1
  0
VERTEX
  5
218
  8
FAB_2$_CUT_2
 10
-3456.520022198322
 20
357.0943524690675
 30
0.0
  0
VERTEX
  5
219
  8
FAB_2$_CUT_2
 10
-3456.259309843635
 20
358.3373042252183
 30
0.0
  0
VERTEX
  5
21A
  8
FAB_2$_CUT_2
 10
-3453.773406331338
 20
357.8158795158467
 30
0.0
  0
VERTEX
  5
21B
  8
FAB_2$_CUT_2
 10
-3454.034118686023
 20
356.5729277596965
 30
0.0
  0
SEQEND
  5
21C
  8
FAB_2$_CUT_2
  0
POLYLINE
  5
21D
  8
FAB_2$_CUT_2
 66
     1
 10
0.0
 20
0.0
 30
0.0
 70
     1
  0
VERTEX
  5
21E
  8
FAB_2$_CUT_2
 10
-3600.124781319116
 20
328.7516107070743
 30
0.0
  0
VERTEX
  5
21F
  8
FAB_2$_CUT_2
 10
-3597.784970684498
 20
329.7399862400223
 30
0.0
  0
VERTEX
  5
220
  8
FAB_2$_CUT_2
 10
-3597.290782918024
 20
328.5700809227142
 30
0.0
  0
VERTEX
  5
221
  8
FAB_2$_CUT_2
 10
-3599.630593552642
 20
327.5817053897658
 30
0.0
  0
SEQEND
  5
222
  8
FAB_2$_CUT_2
  0
POLYLINE
  5
223
  8
FAB_2$_CUT_2
 66
     1
 10
0.0
 20
0.0
 30
0.0
 70
     1
  0
VERTEX
  5
224
  8
FAB_2$_CUT_2
 10
-3602.101925112499
 20
333.4321616917023
 30
0.0
  0
VERTEX
  5
225
  8
FAB_2$_CUT_2
 10
-3599.762114477883
 20
334.420537224651
 30
0.0
  0
VERTEX
  5
226
  8
FAB_2$_CUT_2
 10
-3599.267926711406
 20
333.2506319073427
 30
0.0
  0
VERTEX
  5
227
  8
FAB_2$_CUT_2
 10
-3601.607737346024
 20
332.2622563743927
 30
0.0
  0
SEQEND
  5
228
  8
FAB_2$_CUT_2
  0
CIRCLE
  5
229
  8
FAB_2$_CUT_2
 10
-3365.885899428248
 20
260.7770467157501
 30
0.0
 40
1.777999999999791
  0
CIRCLE
  5
22A
  8
FAB_2$_CUT_2
 10
-3356.173826762079
 20
269.3192917831119
 30
0.0
 40
1.778000000000304
  0
CIRCLE
  5
22B
  8
FAB_2$_CUT_2
 10
-3391.603123191333
 20
294.8077949578583
 30
0.0
 40
2.095499999999809
  0
POLYLINE
  5
22C
  8
FAB_2$_CUT_2
 66
     1
 10
0.0
 20
0.0
 30
0.0
 70
     1
  0
VERTEX
  5
22D
  8
FAB_2$_CUT_2
 10
-3671.170234877092
 20
212.667201162707
 30
0.0
  0
VERTEX
  5
22E
  8
FAB_2$_CUT_2
 10
-3670.092048556145
 20
213.8048712488589
 30
0.0
  0
VERTEX
  5
22F
  8
FAB_2$_CUT_2
 10
-3667.189681583358
 20
216.9328282744029
 30
0.0
  0
VERTEX
  5
230
  8
FAB_2$_CUT_2
 10
-3664.237946508829
 20
219.9750057594699
 30
0.0
  0
VERTEX
  5
231
  8
FAB_2$_CUT_2
 10
-3661.23919638619
 20
222.9327960242989
 30
0.0
  0
VERTEX
  5
232
  8
FAB_2$_CUT_2
 10
-3658.195784269078
 20
225.8075913891288
 30
0.0
  0
VERTEX
  5
233
  8
FAB_2$_CUT_2
 10
-3655.110063211124
 20
228.6007841741988
 30
0.0
  0
VERTEX
  5
234
  8
FAB_2$_CUT_2
 10
-3651.984386265961
 20
231.3137666997478
 30
0.0
  0
VERTEX
  5
235
  8
FAB_2$_CUT_2
 10
-3648.821106487225
 20
233.9479312860149
 30
0.0
  0
VERTEX
  5
236
  8
FAB_2$_CUT_2
 10
-3645.622576928548
 20
236.5046702532391
 30
0.0
  0
VERTEX
  5
237
  8
FAB_2$_CUT_2
 10
-3642.391150643564
 20
238.9853759216594
 30
0.0
  0
VERTEX
  5
238
  8
FAB_2$_CUT_2
 10
-3639.129180685906
 20
241.3914406115148
 30
0.0
  0
VERTEX
  5
239
  8
FAB_2$_CUT_2
 10
-3635.839020109209
 20
243.7242566430443
 30
0.0
  0
VERTEX
  5
23A
  8
FAB_2$_CUT_2
 10
-3632.523021967106
 20
245.985216336487
 30
0.0
  0
VERTEX
  5
23B
  8
FAB_2$_CUT_2
 10
-3625.822925201215
 20
250.297135990068
 30
0.0
  0
VERTEX
  5
23C
  8
FAB_2$_CUT_2
 10
-3619.047714817303
 20
254.3383381341699
 30
0.0
  0
VERTEX
  5
23D
  8
FAB_2$_CUT_2
 10
-3612.216215244439
 20
258.1199613307048
 30
0.0
  0
VERTEX
  5
23E
  8
FAB_2$_CUT_2
 10
-3605.347250911691
 20
261.6531441415848
 30
0.0
  0
VERTEX
  5
23F
  8
FAB_2$_CUT_2
 10
-3598.459646248129
 20
264.9490251287222
 30
0.0
  0
VERTEX
  5
240
  8
FAB_2$_CUT_2
 10
-3591.572225682819
 20
268.0187428540289
 30
0.0
  0
VERTEX
  5
241
  8
FAB_2$_CUT_2
 10
-3584.703813644834
 20
270.8734358794173
 30
0.0
  0
VERTEX
  5
242
  8
FAB_2$_CUT_2
 10
-3577.87323456324
 20
273.5242427667996
 30
0.0
  0
VERTEX
  5
243
  8
FAB_2$_CUT_2
 10
-3571.099312867107
 20
275.9823020780877
 30
0.0
  0
VERTEX
  5
244
  8
FAB_2$_CUT_2
 10
-3564.400872985504
 20
278.2587523751939
 30
0.0
  0
VERTEX
  5
245
  8
FAB_2$_CUT_2
 10
-3557.794933075273
 20
280.3632729744002
 30
0.0
  0
VERTEX
  5
246
  8
FAB_2$_CUT_2
 10
-3551.291286204349
 20
282.2997062094672
 30
0.0
  0
VERTEX
  5
247
  8
FAB_2$_CUT_2
 10
-3544.897919168444
 20
284.0704351685257
 30
0.0
  0
VERTEX
  5
248
  8
FAB_2$_CUT_2
 10
-3538.622818763267
 20
285.6778429397065
 30
0.0
  0
VERTEX
  5
249
  8
FAB_2$_CUT_2
 10
-3532.473971784527
 20
287.1243126111401
 30
0.0
  0
VERTEX
  5
24A
  8
FAB_2$_CUT_2
 10
-3526.459365027933
 20
288.4122272709572
 30
0.0
  0
VERTEX
  5
24B
  8
FAB_2$_CUT_2
 10
-3520.586985289197
 20
289.5439700072884
 30
0.0
  0
VERTEX
  5
24C
  8
FAB_2$_CUT_2
 10
-3514.864819364027
 20
290.5219239082645
 30
0.0
  0
VERTEX
  5
24D
  8
FAB_2$_CUT_2
 10
-3509.300854048134
 20
291.348472062016
 30
0.0
  0
VERTEX
  5
24E
  8
FAB_2$_CUT_2
 10
-3503.903076137226
 20
292.0259975566736
 30
0.0
  0
VERTEX
  5
24F
  8
FAB_2$_CUT_2
 10
-3498.679472427014
 20
292.556883480368
 30
0.0
  0
VERTEX
  5
250
  8
FAB_2$_CUT_2
 10
-3493.638029713207
 20
292.9435129212297
 30
0.0
  0
VERTEX
  5
251
  8
FAB_2$_CUT_2
 10
-3488.786734791515
 20
293.1882689673896
 30
0.0
  0
VERTEX
  5
252
  8
FAB_2$_CUT_2
 10
-3484.133574457648
 20
293.2935347069782
 30
0.0
  0
VERTEX
  5
253
  8
FAB_2$_CUT_2
 10
-3479.686535507316
 20
293.2616932281261
 30
0.0
  0
VERTEX
  5
254
  8
FAB_2$_CUT_2
 10
-3475.453604736228
 20
293.0951276189641
 30
0.0
  0
VERTEX
  5
255
  8
FAB_2$_CUT_2
 10
-3473.530764957251
 20
292.9701979031534
 30
0.0
  0
VERTEX
  5
256
  8
FAB_2$_CUT_2
 10
-3471.655881545312
 20
292.8153656148453
 30
0.0
  0
VERTEX
  5
257
  8
FAB_2$_CUT_2
 10
-3469.827371207992
 20
292.6302476705059
 30
0.0
  0
VERTEX
  5
258
  8
FAB_2$_CUT_2
 10
-3468.043650652869
 20
292.4144609866015
 30
0.0
  0
VERTEX
  5
259
  8
FAB_2$_CUT_2
 10
-3466.303136587525
 20
292.1676224795982
 30
0.0
  0
VERTEX
  5
25A
  8
FAB_2$_CUT_2
 10
-3464.604245719539
 20
291.8893490659622
 30
0.0
  0
VERTEX
  5
25B
  8
FAB_2$_CUT_2
 10
-3462.94539475649
 20
291.5792576621596
 30
0.0
  0
VERTEX
  5
25C
  8
FAB_2$_CUT_2
 10
-3461.325000405958
 20
291.2369651846566
 30
0.0
  0
VERTEX
  5
25D
  8
FAB_2$_CUT_2
 10
-3459.741479375524
 20
290.8620885499195
 30
0.0
  0
VERTEX
  5
25E
  8
FAB_2$_CUT_2
 10
-3458.193248372766
 20
290.4542446744142
 30
0.0
  0
VERTEX
  5
25F
  8
FAB_2$_CUT_2
 10
-3456.678724105264
 20
290.0130504746071
 30
0.0
  0
VERTEX
  5
260
  8
FAB_2$_CUT_2
 10
-3455.196323280599
 20
289.5381228669643
 30
0.0
  0
VERTEX
  5
261
  8
FAB_2$_CUT_2
 10
-3453.74446260635
 20
289.0290787679519
 30
0.0
  0
VERTEX
  5
262
  8
FAB_2$_CUT_2
 10
-3452.321558790096
 20
288.4855350940362
 30
0.0
  0
VERTEX
  5
263
  8
FAB_2$_CUT_2
 10
-3450.926028539418
 20
287.9071087616834
 30
0.0
  0
VERTEX
  5
264
  8
FAB_2$_CUT_2
 10
-3449.556288561895
 20
287.2934166873594
 30
0.0
  0
VERTEX
  5
265
  8
FAB_2$_CUT_2
 10
-3448.210755565106
 20
286.6440757875306
 30
0.0
  0
VERTEX
  5
266
  8
FAB_2$_CUT_2
 10
-3446.887846256634
 20
285.9587029786632
 30
0.0
  0
VERTEX
  5
267
  8
FAB_2$_CUT_2
 10
-3445.585977344054
 20
285.2369151772232
 30
0.0
  0
VERTEX
  5
268
  8
FAB_2$_CUT_2
 10
-3444.303565534949
 20
284.4783292996769
 30
0.0
  0
VERTEX
  5
269
  8
FAB_2$_CUT_2
 10
-3443.039027536899
 20
283.6825622624904
 30
0.0
  0
VERTEX
  5
26A
  8
FAB_2$_CUT_2
 10
-3441.790780057481
 20
282.8492309821299
 30
0.0
  0
VERTEX
  5
26B
  8
FAB_2$_CUT_2
 10
-3440.557239804277
 20
281.9779523750616
 30
0.0
  0
VERTEX
  5
26C
  8
FAB_2$_CUT_2
 10
-3439.336823484867
 20
281.0683433577516
 30
0.0
  0
VERTEX
  5
26D
  8
FAB_2$_CUT_2
 10
-3438.127947806829
 20
280.1200208466661
 30
0.0
  0
VERTEX
  5
26E
  8
FAB_2$_CUT_2
 10
-3436.929029477744
 20
279.1326017582713
 30
0.0
  0
VERTEX
  5
26F
  8
FAB_2$_CUT_2
 10
-3435.738485205191
 20
278.1057030090333
 30
0.0
  0
VERTEX
  5
270
  8
FAB_2$_CUT_2
 10
-3434.55473169675
 20
277.0389415154183
 30
0.0
  0
VERTEX
  5
271
  8
FAB_2$_CUT_2
 10
-3433.376185660001
 20
275.9319341938926
 30
0.0
  0
VERTEX
  5
272
  8
FAB_2$_CUT_2
 10
-3432.201263802524
 20
274.7842979609221
 30
0.0
  0
VERTEX
  5
273
  8
FAB_2$_CUT_2
 10
-3429.855959455703
 20
272.365606426512
 30
0.0
 42
-0.076388257055499
  0
VERTEX
  5
274
  8
FAB_2$_CUT_2
 10
-3426.421979005995
 20
267.3535414345595
 30
0.0
  0
VERTEX
  5
275
  8
FAB_2$_CUT_2
 10
-3423.132240696256
 20
260.7736117241299
 30
0.0
  0
VERTEX
  5
276
  8
FAB_2$_CUT_2
 10
-3421.53580752959
 20
257.7765285366178
 30
0.0
  0
VERTEX
  5
277
  8
FAB_2$_CUT_2
 10
-3419.963124259431
 20
254.9532840590937
 30
0.0
  0
VERTEX
  5
278
  8
FAB_2$_CUT_2
 10
-3418.407785314059
 20
252.2878164901974
 30
0.0
  0
VERTEX
  5
279
  8
FAB_2$_CUT_2
 10
-3416.863385121755
 20
249.7640640285686
 30
0.0
  0
VERTEX
  5
27A
  8
FAB_2$_CUT_2
 10
-3415.323518110796
 20
247.365964872847
 30
0.0
  0
VERTEX
  5
27B
  8
FAB_2$_CUT_2
 10
-3413.781778709462
 20
245.0774572216724
 30
0.0
  0
VERTEX
  5
27C
  8
FAB_2$_CUT_2
 10
-3412.231761346033
 20
242.8824792736844
 30
0.0
  0
VERTEX
  5
27D
  8
FAB_2$_CUT_2
 10
-3410.667060448788
 20
240.7649692275228
 30
0.0
  0
VERTEX
  5
27E
  8
FAB_2$_CUT_2
 10
-3409.081270446007
 20
238.7088652818272
 30
0.0
  0
VERTEX
  5
27F
  8
FAB_2$_CUT_2
 10
-3407.467985765968
 20
236.6981056352374
 30
0.0
  0
VERTEX
  5
280
  8
FAB_2$_CUT_2
 10
-3404.133310087238
 20
232.7483720339339
 30
0.0
  0
VERTEX
  5
281
  8
FAB_2$_CUT_2
 10
-3400.611788838831
 20
228.7872740127302
 30
0.0
  0
VERTEX
  5
282
  8
FAB_2$_CUT_2
 10
-3400.425881293782
 20
228.5898002748842
 30
0.0
  0
VERTEX
  5
283
  8
FAB_2$_CUT_2
 10
-3400.054646738184
 20
228.2108052486109
 30
0.0
  0
VERTEX
  5
284
  8
FAB_2$_CUT_2
 10
-3398.716792930473
 20
226.9100558582243
 30
0.0
  0
VERTEX
  5
285
  8
FAB_2$_CUT_2
 10
-3396.519420085968
 20
224.888634896455
 30
0.0
  0
VERTEX
  5
286
  8
FAB_2$_CUT_2
 10
-3393.383720874936
 20
222.1501514181876
 30
0.0
  0
VERTEX
  5
287
  8
FAB_2$_CUT_2
 10
-3389.230887967647
 20
218.6982144783068
 30
0.0
  0
VERTEX
  5
288
  8
FAB_2$_CUT_2
 10
-3383.982114034369
 20
214.5364331316971
 30
0.0
  0
VERTEX
  5
289
  8
FAB_2$_CUT_2
 10
-3377.558591745374
 20
209.6684164332431
 30
0.0
  0
VERTEX
  5
28A
  8
FAB_2$_CUT_2
 10
-3369.881513770928
 20
204.0977734378297
 30
0.0
 42
0.4027524530796968
  0
VERTEX
  5
28B
  8
FAB_2$_CUT_2
 10
-3365.341860288892
 20
203.7383705273686
 30
0.0
  0
VERTEX
  5
28C
  8
FAB_2$_CUT_2
 10
-3350.728846452962
 20
216.6773510011806
 30
0.0
  0
VERTEX
  5
28D
  8
FAB_2$_CUT_2
 10
-3350.676388771162
 20
216.7244160981013
 30
0.0
  0
VERTEX
  5
28E
  8
FAB_2$_CUT_2
 10
-3350.624531608552
 20
216.7730724344692
 30
0.0
  0
VERTEX
  5
28F
  8
FAB_2$_CUT_2
 10
-3350.573336797834
 20
216.8233199014333
 30
0.0
  0
VERTEX
  5
290
  8
FAB_2$_CUT_2
 10
-3350.52286719234
 20
216.8751555585647
 30
0.0
  0
VERTEX
  5
291
  8
FAB_2$_CUT_2
 10
-3350.473186523296
 20
216.9285735179133
 30
0.0
  0
VERTEX
  5
292
  8
FAB_2$_CUT_2
 10
-3350.424359245636
 20
216.9835648353001
 30
0.0
  0
VERTEX
  5
293
  8
FAB_2$_CUT_2
 10
-3350.376450372674
 20
217.0401174099772
 30
0.0
  0
VERTEX
  5
294
  8
FAB_2$_CUT_2
 10
-3350.329525300028
 20
217.0982158937884
 30
0.0
  0
VERTEX
  5
295
  8
FAB_2$_CUT_2
 10
-3350.283649619324
 20
217.1578416109628
 30
0.0
  0
VERTEX
  5
296
  8
FAB_2$_CUT_2
 10
-3350.238888922325
 20
217.2189724896514
 30
0.0
  0
VERTEX
  5
297
  8
FAB_2$_CUT_2
 10
-3350.195308596261
 20
217.2815830062824
 30
0.0
  0
VERTEX
  5
298
  8
FAB_2$_CUT_2
 10
-3350.152973611248
 20
217.3456441437662
 30
0.0
  0
VERTEX
  5
299
  8
FAB_2$_CUT_2
 10
-3350.111948300824
 20
217.4111233645145
 30
0.0
  0
VERTEX
  5
29A
  8
FAB_2$_CUT_2
 10
-3350.072296136722
 20
217.4779845991661
 30
0.0
  0
VERTEX
  5
29B
  8
FAB_2$_CUT_2
 10
-3350.034079499147
 20
217.5461882518098
 30
0.0
  0
VERTEX
  5
29C
  8
FAB_2$_CUT_2
 10
-3349.997359443884
 20
217.6156912223986
 30
0.0
  0
VERTEX
  5
29D
  8
FAB_2$_CUT_2
 10
-3349.962195467718
 20
217.6864469469182
 30
0.0
  0
VERTEX
  5
29E
  8
FAB_2$_CUT_2
 10
-3349.928645273658
 20
217.758405455743
 30
0.0
  0
VERTEX
  5
29F
  8
FAB_2$_CUT_2
 10
-3349.896764537602
 20
217.8315134504651
 30
0.0
  0
VERTEX
  5
2A0
  8
FAB_2$_CUT_2
 10
-3349.86660667807
 20
217.9057143993238
 30
0.0
  0
VERTEX
  5
2A1
  8
FAB_2$_CUT_2
 10
-3349.838222630706
 20
217.9809486511977
 30
0.0
  0
VERTEX
  5
2A2
  8
FAB_2$_CUT_2
 10
-3349.81166062926
 20
218.0571535679483
 30
0.0
  0
VERTEX
  5
2A3
  8
FAB_2$_CUT_2
 10
-3349.786965994758
 20
218.1342636747274
 30
0.0
  0
VERTEX
  5
2A4
  8
FAB_2$_CUT_2
 10
-3349.764180934537
 20
218.2122108276811
 30
0.0
  0
VERTEX
  5
2A5
  8
FAB_2$_CUT_2
 10
-3349.743344352807
 20
218.2909243983048
 30
0.0
  0
VERTEX
  5
2A6
  8
FAB_2$_CUT_2
 10
-3349.724491674292
 20
218.3703314735285
 30
0.0
  0
VERTEX
  5
2A7
  8
FAB_2$_CUT_2
 10
-3349.707654682485
 20
218.4503570704433
 30
0.0
  0
VERTEX
  5
2A8
  8
FAB_2$_CUT_2
 10
-3349.692861373867
 20
218.5309243644172
 30
0.0
  0
VERTEX
  5
2A9
  8
FAB_2$_CUT_2
 10
-3349.680135829393
 20
218.6119549292029
 30
0.0
  0
VERTEX
  5
2AA
  8
FAB_2$_CUT_2
 10
-3349.669498104335
 20
218.6933689875029
 30
0.0
  0
VERTEX
  5
2AB
  8
FAB_2$_CUT_2
 10
-3349.660964137498
 20
218.7750856703394
 30
0.0
  0
VERTEX
  5
2AC
  8
FAB_2$_CUT_2
 10
-3349.654545680555
 20
218.8570232834763
 30
0.0
  0
VERTEX
  5
2AD
  8
FAB_2$_CUT_2
 10
-3349.650250248155
 20
218.939099579059
 30
0.0
  0
VERTEX
  5
2AE
  8
FAB_2$_CUT_2
 10
-3349.648081089215
 20
219.0212320305826
 30
0.0
  0
VERTEX
  5
2AF
  8
FAB_2$_CUT_2
 10
-3349.648037179608
 20
219.1033381092566
 30
0.0
  0
VERTEX
  5
2B0
  8
FAB_2$_CUT_2
 10
-3349.650113236305
 20
219.1853355598283
 30
0.0
  0
VERTEX
  5
2B1
  8
FAB_2$_CUT_2
 10
-3349.654299752769
 20
219.2671426739323
 30
0.0
  0
VERTEX
  5
2B2
  8
FAB_2$_CUT_2
 10
-3349.660583055232
 20
219.3486785590679
 30
0.0
  0
VERTEX
  5
2B3
  8
FAB_2$_CUT_2
 10
-3349.668945379319
 20
219.4298634013639
 30
0.0
  0
VERTEX
  5
2B4
  8
FAB_2$_CUT_2
 10
-3349.679364966233
 20
219.5106187203657
 30
0.0
  0
VERTEX
  5
2B5
  8
FAB_2$_CUT_2
 10
-3349.691816177619
 20
219.5908676141763
 30
0.0
  0
VERTEX
  5
2B6
  8
FAB_2$_CUT_2
 10
-3349.706269628008
 20
219.6705349934012
 30
0.0
  0
VERTEX
  5
2B7
  8
FAB_2$_CUT_2
 10
-3349.722692333638
 20
219.749547802474
 30
0.0
  0
VERTEX
  5
2B8
  8
FAB_2$_CUT_2
 10
-3349.741047876308
 20
219.8278352270906
 30
0.0
  0
VERTEX
  5
2B9
  8
FAB_2$_CUT_2
 10
-3349.761296580813
 20
219.9053288866311
 30
0.0
  0
VERTEX
  5
2BA
  8
FAB_2$_CUT_2
 10
-3349.783395704429
 20
219.9819630106172
 30
0.0
  0
VERTEX
  5
2BB
  8
FAB_2$_CUT_2
 10
-3349.807299636859
 20
220.0576745984233
 30
0.0
  0
VERTEX
  5
2BC
  8
FAB_2$_CUT_2
 10
-3349.832960108978
 20
220.1324035616355
 30
0.0
  0
VERTEX
  5
2BD
  8
FAB_2$_CUT_2
 10
-3349.860326408731
 20
220.2060928486248
 30
0.0
  0
VERTEX
  5
2BE
  8
FAB_2$_CUT_2
 10
-3349.889345602493
 20
220.2786885510794
 30
0.0
  0
VERTEX
  5
2BF
  8
FAB_2$_CUT_2
 10
-3349.919962760254
 20
220.3501399924059
 30
0.0
  0
VERTEX
  5
2C0
  8
FAB_2$_CUT_2
 10
-3349.952121182987
 20
220.4203997980744
 30
0.0
  0
VERTEX
  5
2C1
  8
FAB_2$_CUT_2
 10
-3349.985762630635
 20
220.4894239481372
 30
0.0
  0
VERTEX
  5
2C2
  8
FAB_2$_CUT_2
 10
-3350.02082754921
 20
220.5571718122954
 30
0.0
  0
VERTEX
  5
2C3
  8
FAB_2$_CUT_2
 10
-3350.05725529557
 20
220.6236061680172
 30
0.0
  0
VERTEX
  5
2C4
  8
FAB_2$_CUT_2
 10
-3350.094984358529
 20
220.688693202339
 30
0.0
  0
VERTEX
  5
2C5
  8
FAB_2$_CUT_2
 10
-3350.133952575069
 20
220.752402498079
 30
0.0
  0
VERTEX
  5
2C6
  8
FAB_2$_CUT_2
 10
-3350.174097340506
 20
220.8147070052925
 30
0.0
  0
VERTEX
  5
2C7
  8
FAB_2$_CUT_2
 10
-3350.215355811608
 20
220.8755829988699
 30
0.0
  0
VERTEX
  5
2C8
  8
FAB_2$_CUT_2
 10
-3350.257665101737
 20
220.9350100232475
 30
0.0
  0
VERTEX
  5
2C9
  8
FAB_2$_CUT_2
 10
-3350.300962467251
 20
220.9929708252473
 30
0.0
  0
VERTEX
  5
2CA
  8
FAB_2$_CUT_2
 10
-3350.345185484479
 20
221.049451276096
 30
0.0
  0
VERTEX
  5
2CB
  8
FAB_2$_CUT_2
 10
-3350.390272216735
 20
221.1044402836995
 30
0.0
  0
VERTEX
  5
2CC
  8
FAB_2$_CUT_2
 10
-3360.542397444443
 20
232.6776918072017
 30
0.0
  0
VERTEX
  5
2CD
  8
FAB_2$_CUT_2
 10
-3400.929942882547
 20
278.6421352731437
 30
0.0
  0
VERTEX
  5
2CE
  8
FAB_2$_CUT_2
 10
-3404.501962606315
 20
282.7824135304713
 30
0.0
  0
VERTEX
  5
2CF
  8
FAB_2$_CUT_2
 10
-3408.204033652013
 20
287.001997284706
 30
0.0
  0
VERTEX
  5
2D0
  8
FAB_2$_CUT_2
 10
-3410.137537691968
 20
289.1313581872699
 30
0.0
  0
VERTEX
  5
2D1
  8
FAB_2$_CUT_2
 10
-3412.099726142527
 20
291.1855904799285
 30
0.0
  0
VERTEX
  5
2D2
  8
FAB_2$_CUT_2
 10
-3414.089996159057
 20
293.16562136926
 30
0.0
  0
VERTEX
  5
2D3
  8
FAB_2$_CUT_2
 10
-3416.107744896927
 20
295.0723780618426
 30
0.0
  0
VERTEX
  5
2D4
  8
FAB_2$_CUT_2
 10
-3418.152369511505
 20
296.9067877642549
 30
0.0
  0
VERTEX
  5
2D5
  8
FAB_2$_CUT_2
 10
-3420.22326715816
 20
298.6697776830752
 30
0.0
  0
VERTEX
  5
2D6
  8
FAB_2$_CUT_2
 10
-3422.31983499226
 20
300.3622750248818
 30
0.0
  0
VERTEX
  5
2D7
  8
FAB_2$_CUT_2
 10
-3424.441470169173
 20
301.9852069962532
 30
0.0
  0
VERTEX
  5
2D8
  8
FAB_2$_CUT_2
 10
-3426.587569844268
 20
303.5395008037676
 30
0.0
  0
VERTEX
  5
2D9
  8
FAB_2$_CUT_2
 10
-3428.757531172912
 20
305.0260836540035
 30
0.0
  0
VERTEX
  5
2DA
  8
FAB_2$_CUT_2
 10
-3430.950751310476
 20
306.4458827535391
 30
0.0
  0
VERTEX
  5
2DB
  8
FAB_2$_CUT_2
 10
-3433.166627412326
 20
307.7998253089529
 30
0.0
  0
VERTEX
  5
2DC
  8
FAB_2$_CUT_2
 10
-3435.404556633832
 20
309.0888385268232
 30
0.0
  0
VERTEX
  5
2DD
  8
FAB_2$_CUT_2
 10
-3437.663936130361
 20
310.3138496137285
 30
0.0
  0
VERTEX
  5
2DE
  8
FAB_2$_CUT_2
 10
-3439.944163057282
 20
311.4757857762469
 30
0.0
  0
VERTEX
  5
2DF
  8
FAB_2$_CUT_2
 10
-3442.244634569963
 20
312.5755742209569
 30
0.0
  0
VERTEX
  5
2E0
  8
FAB_2$_CUT_2
 10
-3444.564747823773
 20
313.6141421544369
 30
0.0
  0
VERTEX
  5
2E1
  8
FAB_2$_CUT_2
 10
-3446.90389997408
 20
314.5924167832653
 30
0.0
  0
VERTEX
  5
2E2
  8
FAB_2$_CUT_2
 10
-3449.261488176252
 20
315.5113253140203
 30
0.0
  0
VERTEX
  5
2E3
  8
FAB_2$_CUT_2
 10
-3451.636909585658
 20
316.3717949532804
 30
0.0
  0
VERTEX
  5
2E4
  8
FAB_2$_CUT_2
 10
-3454.029561357667
 20
317.1747529076238
 30
0.0
  0
VERTEX
  5
2E5
  8
FAB_2$_CUT_2
 10
-3456.438840647646
 20
317.921126383629
 30
0.0
  0
VERTEX
  5
2E6
  8
FAB_2$_CUT_2
 10
-3458.864144610963
 20
318.6118425878744
 30
0.0
  0
VERTEX
  5
2E7
  8
FAB_2$_CUT_2
 10
-3461.304870402988
 20
319.2478287269383
 30
0.0
  0
VERTEX
  5
2E8
  8
FAB_2$_CUT_2
 10
-3463.760415179089
 20
319.830012007399
 30
0.0
  0
VERTEX
  5
2E9
  8
FAB_2$_CUT_2
 10
-3466.230176094633
 20
320.3593196358349
 30
0.0
  0
VERTEX
  5
2EA
  8
FAB_2$_CUT_2
 10
-3468.71355030499
 20
320.8366788188245
 30
0.0
  0
VERTEX
  5
2EB
  8
FAB_2$_CUT_2
 10
-3471.209934965528
 20
321.2630167629459
 30
0.0
  0
VERTEX
  5
2EC
  8
FAB_2$_CUT_2
 10
-3473.718727231615
 20
321.6392606747777
 30
0.0
  0
VERTEX
  5
2ED
  8
FAB_2$_CUT_2
 10
-3476.239324258619
 20
321.9663377608982
 30
0.0
  0
VERTEX
  5
2EE
  8
FAB_2$_CUT_2
 10
-3478.77112320191
 20
322.2451752278856
 30
0.0
  0
VERTEX
  5
2EF
  8
FAB_2$_CUT_2
 10
-3481.313521216854
 20
322.4767002823184
 30
0.0
  0
VERTEX
  5
2F0
  8
FAB_2$_CUT_2
 10
-3483.865915458821
 20
322.661840130775
 30
0.0
  0
VERTEX
  5
2F1
  8
FAB_2$_CUT_2
 10
-3486.42770308318
 20
322.8015219798337
 30
0.0
  0
VERTEX
  5
2F2
  8
FAB_2$_CUT_2
 10
-3491.577047100543
 20
322.9482205060708
 30
0.0
  0
VERTEX
  5
2F3
  8
FAB_2$_CUT_2
 10
-3496.75673051189
 20
322.9242135136567
 30
0.0
  0
VERTEX
  5
2F4
  8
FAB_2$_CUT_2
 10
-3501.961930560169
 20
322.7369186552183
 30
0.0
  0
VERTEX
  5
2F5
  8
FAB_2$_CUT_2
 10
-3507.187824488326
 20
322.3937535833824
 30
0.0
  0
VERTEX
  5
2F6
  8
FAB_2$_CUT_2
 10
-3512.429589539308
 20
321.9021359507759
 30
0.0
  0
VERTEX
  5
2F7
  8
FAB_2$_CUT_2
 10
-3517.682402956063
 20
321.2694834100258
 30
0.0
  0
VERTEX
  5
2F8
  8
FAB_2$_CUT_2
 10
-3522.941441981537
 20
320.5032136137589
 30
0.0
  0
VERTEX
  5
2F9
  8
FAB_2$_CUT_2
 10
-3528.201883858676
 20
319.6107442146022
 30
0.0
  0
VERTEX
  5
2FA
  8
FAB_2$_CUT_2
 10
-3533.45890583043
 20
318.5994928651824
 30
0.0
  0
VERTEX
  5
2FB
  8
FAB_2$_CUT_2
 10
-3538.707685139743
 20
317.4768772181266
 30
0.0
  0
VERTEX
  5
2FC
  8
FAB_2$_CUT_2
 10
-3543.943399029564
 20
316.2503149260615
 30
0.0
  0
VERTEX
  5
2FD
  8
FAB_2$_CUT_2
 10
-3554.356339522515
 20
313.5150210174113
 30
0.0
  0
VERTEX
  5
2FE
  8
FAB_2$_CUT_2
 10
-3564.659145252857
 20
310.452952360247
 30
0.0
  0
VERTEX
  5
2FF
  8
FAB_2$_CUT_2
 10
-3574.819520833688
 20
307.1138907033472
 30
0.0
  0
VERTEX
  5
300
  8
FAB_2$_CUT_2
 10
-3584.830317556187
 20
303.5093799065446
 30
0.0
  0
VERTEX
  5
301
  8
FAB_2$_CUT_2
 10
-3594.690673381052
 20
299.6414043574356
 30
0.0
  0
VERTEX
  5
302
  8
FAB_2$_CUT_2
 10
-3604.399726268982
 20
295.5119484436161
 30
0.0
  0
VERTEX
  5
303
  8
FAB_2$_CUT_2
 10
-3613.956614180676
 20
291.1229965526826
 30
0.0
  0
VERTEX
  5
304
  8
FAB_2$_CUT_2
 10
-3623.360475076835
 20
286.4765330722312
 30
0.0
  0
VERTEX
  5
305
  8
FAB_2$_CUT_2
 10
-3632.610446918156
 20
281.574542389858
 30
0.0
  0
VERTEX
  5
306
  8
FAB_2$_CUT_2
 10
-3641.70566766534
 20
276.4190088931596
 30
0.0
  0
VERTEX
  5
307
  8
FAB_2$_CUT_2
 10
-3650.645275279084
 20
271.0119169697318
 30
0.0
  0
VERTEX
  5
308
  8
FAB_2$_CUT_2
 10
-3659.428407720089
 20
265.3552510071711
 30
0.0
  0
VERTEX
  5
309
  8
FAB_2$_CUT_2
 10
-3668.054202949053
 20
259.4509953930736
 30
0.0
  0
VERTEX
  5
30A
  8
FAB_2$_CUT_2
 10
-3676.521798926677
 20
253.3011345150356
 30
0.0
  0
VERTEX
  5
30B
  8
FAB_2$_CUT_2
 10
-3684.830333613658
 20
246.9076527606533
 30
0.0
  0
VERTEX
  5
30C
  8
FAB_2$_CUT_2
 10
-3692.978944970696
 20
240.2725345175228
 30
0.0
  0
VERTEX
  5
30D
  8
FAB_2$_CUT_2
 10
-3700.96677095849
 20
233.3977641732404
 30
0.0
  0
VERTEX
  5
30E
  8
FAB_2$_CUT_2
 10
-3708.79294953774
 20
226.2853261154025
 30
0.0
 42
0.4151988665980367
  0
VERTEX
  5
30F
  8
FAB_2$_CUT_2
 10
-3709.093981108059
 20
221.7977399642933
 30
0.0
  0
VERTEX
  5
310
  8
FAB_2$_CUT_2
 10
-3698.488742801042
 20
209.5554023326159
 30
0.0
  0
VERTEX
  5
311
  8
FAB_2$_CUT_2
 10
-3697.97514082559
 20
208.9850020141375
 30
0.0
  0
VERTEX
  5
312
  8
FAB_2$_CUT_2
 10
-3697.448723976288
 20
208.4333499338787
 30
0.0
  0
VERTEX
  5
313
  8
FAB_2$_CUT_2
 10
-3697.179777214298
 20
208.1659191161042
 30
0.0
  0
VERTEX
  5
314
  8
FAB_2$_CUT_2
 10
-3696.906507422272
 20
207.9048129175116
 30
0.0
  0
VERTEX
  5
315
  8
FAB_2$_CUT_2
 10
-3696.628622538956
 20
207.6504728652392
 30
0.0
  0
VERTEX
  5
316
  8
FAB_2$_CUT_2
 10
-3696.346154673516
 20
207.4029231821418
 30
0.0
  0
VERTEX
  5
317
  8
FAB_2$_CUT_2
 10
-3696.059216977724
 20
207.1620837650032
 30
0.0
  0
VERTEX
  5
318
  8
FAB_2$_CUT_2
 10
-3695.767922603351
 20
206.9278745106074
 30
0.0
  0
VERTEX
  5
319
  8
FAB_2$_CUT_2
 10
-3695.472384702167
 20
206.7002153157383
 30
0.0
  0
VERTEX
  5
31A
  8
FAB_2$_CUT_2
 10
-3695.172716425945
 20
206.4790260771799
 30
0.0
  0
VERTEX
  5
31B
  8
FAB_2$_CUT_2
 10
-3694.869030926454
 20
206.264226691716
 30
0.0
  0
VERTEX
  5
31C
  8
FAB_2$_CUT_2
 10
-3694.561441355467
 20
206.0557370561305
 30
0.0
  0
VERTEX
  5
31D
  8
FAB_2$_CUT_2
 10
-3694.250060864754
 20
205.8534770672075
 30
0.0
  0
VERTEX
  5
31E
  8
FAB_2$_CUT_2
 10
-3693.935002606087
 20
205.6573666217308
 30
0.0
  0
VERTEX
  5
31F
  8
FAB_2$_CUT_2
 10
-3693.616379731236
 20
205.4673256164843
 30
0.0
  0
VERTEX
  5
320
  8
FAB_2$_CUT_2
 10
-3693.294305391973
 20
205.2832739482521
 30
0.0
  0
VERTEX
  5
321
  8
FAB_2$_CUT_2
 10
-3692.96889274007
 20
205.1051315138179
 30
0.0
  0
VERTEX
  5
322
  8
FAB_2$_CUT_2
 10
-3692.640254927296
 20
204.9328182099657
 30
0.0
  0
VERTEX
  5
323
  8
FAB_2$_CUT_2
 10
-3691.973756426224
 20
204.6053585811431
 30
0.0
  0
VERTEX
  5
324
  8
FAB_2$_CUT_2
 10
-3691.636035682091
 20
204.4500991844018
 30
0.0
  0
VERTEX
  5
325
  8
FAB_2$_CUT_2
 10
-3691.295024227911
 20
204.3006313133457
 30
0.0
  0
VERTEX
  5
326
  8
FAB_2$_CUT_2
 10
-3690.950317059194
 20
204.1571576727264
 30
0.0
  0
VERTEX
  5
327
  8
FAB_2$_CUT_2
 10
-3690.601509171451
 20
204.0198809672955
 30
0.0
  0
VERTEX
  5
328
  8
FAB_2$_CUT_2
 10
-3690.24819556019
 20
203.8890039018043
 30
0.0
  0
VERTEX
  5
329
  8
FAB_2$_CUT_2
 10
-3689.889971220922
 20
203.7647291810044
 30
0.0
  0
VERTEX
  5
32A
  8
FAB_2$_CUT_2
 10
-3689.526431149157
 20
203.6472595096473
 30
0.0
  0
VERTEX
  5
32B
  8
FAB_2$_CUT_2
 10
-3689.157170340404
 20
203.5367975924845
 30
0.0
  0
VERTEX
  5
32C
  8
FAB_2$_CUT_2
 10
-3688.781783790174
 20
203.4335461342675
 30
0.0
  0
VERTEX
  5
32D
  8
FAB_2$_CUT_2
 10
-3688.399866493975
 20
203.3377078397477
 30
0.0
  0
VERTEX
  5
32E
  8
FAB_2$_CUT_2
 10
-3688.011013447319
 20
203.2494854136767
 30
0.0
  0
VERTEX
  5
32F
  8
FAB_2$_CUT_2
 10
-3687.614819645714
 20
203.1690815608061
 30
0.0
  0
VERTEX
  5
330
  8
FAB_2$_CUT_2
 10
-3687.210880084671
 20
203.0966989858872
 30
0.0
  0
VERTEX
  5
331
  8
FAB_2$_CUT_2
 10
-3686.7987897597
 20
203.0325403936716
 30
0.0
  0
VERTEX
  5
332
  8
FAB_2$_CUT_2
 10
-3686.378143666309
 20
202.9768084889107
 30
0.0
  0
VERTEX
  5
333
  8
FAB_2$_CUT_2
 10
-3685.94853680001
 20
202.9297059763561
 30
0.0
  0
VERTEX
  5
334
  8
FAB_2$_CUT_2
 10
-3685.510400224427
 20
202.8918526666183
 30
0.0
  0
VERTEX
  5
335
  8
FAB_2$_CUT_2
 10
-3685.067509275655
 20
202.8655367937435
 30
0.0
  0
VERTEX
  5
336
  8
FAB_2$_CUT_2
 10
-3684.845721975137
 20
202.8575508148501
 30
0.0
  0
VERTEX
  5
337
  8
FAB_2$_CUT_2
 10
-3684.624475357899
 20
202.853463697637
 30
0.0
  0
VERTEX
  5
338
  8
FAB_2$_CUT_2
 10
-3684.404345849468
 20
202.8536136095922
 30
0.0
  0
VERTEX
  5
339
  8
FAB_2$_CUT_2
 10
-3684.18590987537
 20
202.8583387182039
 30
0.0
  0
VERTEX
  5
33A
  8
FAB_2$_CUT_2
 10
-3683.96974386113
 20
202.8679771909603
 30
0.0
  0
VERTEX
  5
33B
  8
FAB_2$_CUT_2
 10
-3683.756424232275
 20
202.8828671953495
 30
0.0
  0
VERTEX
  5
33C
  8
FAB_2$_CUT_2
 10
-3683.54652741433
 20
202.9033468988598
 30
0.0
  0
VERTEX
  5
33D
  8
FAB_2$_CUT_2
 10
-3683.340629832822
 20
202.9297544689791
 30
0.0
  0
VERTEX
  5
33E
  8
FAB_2$_CUT_2
 10
-3683.239360888709
 20
202.9452868813573
 30
0.0
  0
VERTEX
  5
33F
  8
FAB_2$_CUT_2
 10
-3683.139307913277
 20
202.9624280731958
 30
0.0
  0
VERTEX
  5
340
  8
FAB_2$_CUT_2
 10
-3683.040542959717
 20
202.9812203154306
 30
0.0
  0
VERTEX
  5
341
  8
FAB_2$_CUT_2
 10
-3682.94313808122
 20
203.0017058789979
 30
0.0
  0
VERTEX
  5
342
  8
FAB_2$_CUT_2
 10
-3682.847165330978
 20
203.0239270348335
 30
0.0
  0
VERTEX
  5
343
  8
FAB_2$_CUT_2
 10
-3682.752696762179
 20
203.0479260538736
 30
0.0
  0
VERTEX
  5
344
  8
FAB_2$_CUT_2
 10
-3682.659804428015
 20
203.0737452070541
 30
0.0
  0
VERTEX
  5
345
  8
FAB_2$_CUT_2
 10
-3682.568560381678
 20
203.1014267653111
 30
0.0
  0
VERTEX
  5
346
  8
FAB_2$_CUT_2
 10
-3682.479036676357
 20
203.1310129995805
 30
0.0
  0
VERTEX
  5
347
  8
FAB_2$_CUT_2
 10
-3682.391305365244
 20
203.1625461807985
 30
0.0
  0
VERTEX
  5
348
  8
FAB_2$_CUT_2
 10
-3682.305438501529
 20
203.196068579901
 30
0.0
  0
VERTEX
  5
349
  8
FAB_2$_CUT_2
 10
-3682.221508138403
 20
203.2316224678239
 30
0.0
  0
VERTEX
  5
34A
  8
FAB_2$_CUT_2
 10
-3682.139586329057
 20
203.2692501155035
 30
0.0
  0
VERTEX
  5
34B
  8
FAB_2$_CUT_2
 10
-3682.059745126681
 20
203.3089937938756
 30
0.0
  0
VERTEX
  5
34C
  8
FAB_2$_CUT_2
 10
-3681.982056584467
 20
203.3508957738763
 30
0.0
  0
VERTEX
  5
34D
  8
FAB_2$_CUT_2
 10
-3681.944042077542
 20
203.372669336655
 30
0.0
  0
VERTEX
  5
34E
  8
FAB_2$_CUT_2
 10
-3681.906592755604
 20
203.3949983264417
 30
0.0
  0
VERTEX
  5
34F
  8
FAB_2$_CUT_2
 10
-3681.869717625303
 20
203.4178880271036
 30
0.0
  0
VERTEX
  5
350
  8
FAB_2$_CUT_2
 10
-3681.833425693285
 20
203.4413437225076
 30
0.0
  0
VERTEX
  5
351
  8
FAB_2$_CUT_2
 10
-3681.797725966201
 20
203.4653706965209
 30
0.0
  0
VERTEX
  5
352
  8
FAB_2$_CUT_2
 10
-3681.762627450698
 20
203.4899742330102
 30
0.0
  0
VERTEX
  5
353
  8
FAB_2$_CUT_2
 10
-3681.728139153427
 20
203.5151596158428
 30
0.0
  0
VERTEX
  5
354
  8
FAB_2$_CUT_2
 10
-3681.694270081036
 20
203.5409321288855
 30
0.0
  0
VERTEX
  5
355
  8
FAB_2$_CUT_2
 10
-3681.661029240174
 20
203.5672970560054
 30
0.0
  0
VERTEX
  5
356
  8
FAB_2$_CUT_2
 10
-3681.628425637489
 20
203.5942596810695
 30
0.0
  0
VERTEX
  5
357
  8
FAB_2$_CUT_2
 10
-3681.596468279631
 20
203.6218252879447
 30
0.0
  0
VERTEX
  5
358
  8
FAB_2$_CUT_2
 10
-3681.565166173248
 20
203.6499991604982
 30
0.0
  0
VERTEX
  5
359
  8
FAB_2$_CUT_2
 10
-3681.534528324989
 20
203.6787865825968
 30
0.0
  0
VERTEX
  5
35A
  8
FAB_2$_CUT_2
 10
-3681.504563741503
 20
203.7081928381076
 30
0.0
  0
VERTEX
  5
35B
  8
FAB_2$_CUT_2
 10
-3681.47528142944
 20
203.7382232108976
 30
0.0
  0
VERTEX
  5
35C
  8
FAB_2$_CUT_2
 10
-3681.446690395446
 20
203.7688829848338
 30
0.0
  0
VERTEX
  5
35D
  8
FAB_2$_CUT_2
 10
-3681.418799646172
 20
203.8001774437832
 30
0.0
  0
VERTEX
  5
35E
  8
FAB_2$_CUT_2
 10
-3681.391618188267
 20
203.8321118716127
 30
0.0
  0
VERTEX
  5
35F
  8
FAB_2$_CUT_2
 10
-3681.365155028378
 20
203.8646915521895
 30
0.0
  0
VERTEX
  5
360
  8
FAB_2$_CUT_2
 10
-3681.339419173156
 20
203.8979217693804
 30
0.0
  0
VERTEX
  5
361
  8
FAB_2$_CUT_2
 10
-3681.314419629249
 20
203.9318078070526
 30
0.0
  0
VERTEX
  5
362
  8
FAB_2$_CUT_2
 10
-3681.290165403306
 20
203.9663549490729
 30
0.0
  0
VERTEX
  5
363
  8
FAB_2$_CUT_2
 10
-3681.266665501975
 20
204.0015684793085
 30
0.0
  0
VERTEX
  5
364
  8
FAB_2$_CUT_2
 10
-3681.243928931905
 20
204.0374536816263
 30
0.0
  0
VERTEX
  5
365
  8
FAB_2$_CUT_2
 10
-3681.221964699746
 20
204.0740158398933
 30
0.0
  0
VERTEX
  5
366
  8
FAB_2$_CUT_2
 10
-3681.200781812146
 20
204.1112602379765
 30
0.0
  0
VERTEX
  5
367
  8
FAB_2$_CUT_2
 10
-3681.180389275753
 20
204.1491921597429
 30
0.0
  0
VERTEX
  5
368
  8
FAB_2$_CUT_2
 10
-3681.160796097218
 20
204.1878168890595
 30
0.0
  0
VERTEX
  5
369
  8
FAB_2$_CUT_2
 10
-3681.142011283188
 20
204.2271397097934
 30
0.0
  0
VERTEX
  5
36A
  8
FAB_2$_CUT_2
 10
-3681.124043840313
 20
204.2671659058115
 30
0.0
  0
VERTEX
  5
36B
  8
FAB_2$_CUT_2
 10
-3681.106902775241
 20
204.3079007609808
 30
0.0
  0
VERTEX
  5
36C
  8
FAB_2$_CUT_2
 10
-3681.090597094621
 20
204.3493495591683
 30
0.0
  0
VERTEX
  5
36D
  8
FAB_2$_CUT_2
 10
-3681.075135805102
 20
204.3915175842411
 30
0.0
  0
VERTEX
  5
36E
  8
FAB_2$_CUT_2
 10
-3681.060527913333
 20
204.4344101200661
 30
0.0
  0
VERTEX
  5
36F
  8
FAB_2$_CUT_2
 10
-3681.046782425963
 20
204.4780324505103
 30
0.0
  0
VERTEX
  5
370
  8
FAB_2$_CUT_2
 10
-3681.03390834964
 20
204.5223898594408
 30
0.0
  0
VERTEX
  5
371
  8
FAB_2$_CUT_2
 10
-3681.021914691014
 20
204.5674876307245
 30
0.0
  0
VERTEX
  5
372
  8
FAB_2$_CUT_2
 10
-3681.010810456733
 20
204.6133310482285
 30
0.0
  0
VERTEX
  5
373
  8
FAB_2$_CUT_2
 10
-3681.000604653446
 20
204.6599253958197
 30
0.0
  0
VERTEX
  5
374
  8
FAB_2$_CUT_2
 10
-3680.991306287802
 20
204.7072759573651
 30
0.0
  0
VERTEX
  5
375
  8
FAB_2$_CUT_2
 10
-3680.98292436645
 20
204.7553880167318
 30
0.0
  0
VERTEX
  5
376
  8
FAB_2$_CUT_2
 10
-3680.975467896038
 20
204.8042668577868
 30
0.0
  0
VERTEX
  5
377
  8
FAB_2$_CUT_2
 10
-3680.968945883216
 20
204.853917764397
 30
0.0
  0
VERTEX
  5
378
  8
FAB_2$_CUT_2
 10
-3680.963367334632
 20
204.9043460204294
 30
0.0
  0
VERTEX
  5
379
  8
FAB_2$_CUT_2
 10
-3680.958741256935
 20
204.9555569097512
 30
0.0
  0
VERTEX
  5
37A
  8
FAB_2$_CUT_2
 10
-3680.955076656775
 20
205.0075557162292
 30
0.0
  0
VERTEX
  5
37B
  8
FAB_2$_CUT_2
 10
-3680.9523825408
 20
205.0603477237304
 30
0.0
  0
VERTEX
  5
37C
  8
FAB_2$_CUT_2
 10
-3680.950667915657
 20
205.1139382161219
 30
0.0
  0
VERTEX
  5
37D
  8
FAB_2$_CUT_2
 10
-3680.949941787997
 20
205.1683324772707
 30
0.0
  0
VERTEX
  5
37E
  8
FAB_2$_CUT_2
 10
-3680.950213164469
 20
205.2235357910438
 30
0.0
  0
VERTEX
  5
37F
  8
FAB_2$_CUT_2
 10
-3696.91419755584
 20
223.4148586586606
 30
0.0
  0
VERTEX
  5
380
  8
FAB_2$_CUT_2
 10
-3687.648121107418
 20
231.5037302956656
 30
0.0
  0
SEQEND
  5
381
  8
FAB_2$_CUT_2
  0
CIRCLE
  5
382
  8
FAB_2$_CUT_2
 10
-3385.633297575025
 20
251.7221276073923
 30
0.0
 40
2.095499999999745
  0
POLYLINE
  5
383
  8
FAB_2$_CUT_2
 66
     1
 10
0.0
 20
0.0
 30
0.0
 70
     1
  0
VERTEX
  5
384
  8
FAB_2$_CUT_2
 10
-3392.307627519489
 20
263.5364858744866
 30
0.0
  0
VERTEX
  5
385
  8
FAB_2$_CUT_2
 10
-3393.259881915452
 20
262.6961814264629
 30
0.0
  0
VERTEX
  5
386
  8
FAB_2$_CUT_2
 10
-3394.940490811499
 20
264.6006902183921
 30
0.0
  0
VERTEX
  5
387
  8
FAB_2$_CUT_2
 10
-3393.988236415535
 20
265.4409946664144
 30
0.0
  0
SEQEND
  5
388
  8
FAB_2$_CUT_2
  0
POLYLINE
  5
389
  8
FAB_2$_CUT_2
 66
     1
 10
0.0
 20
0.0
 30
0.0
 70
     1
  0
VERTEX
  5
38A
  8
FAB_2$_CUT_2
 10
-3374.715194941683
 20
243.6679605924921
 30
0.0
  0
VERTEX
  5
38B
  8
FAB_2$_CUT_2
 10
-3373.028169331214
 20
241.7691334308922
 30
0.0
  0
VERTEX
  5
38C
  8
FAB_2$_CUT_2
 10
-3373.977582912015
 20
240.9256206256592
 30
0.0
  0
VERTEX
  5
38D
  8
FAB_2$_CUT_2
 10
-3375.664608522483
 20
242.824447787259
 30
0.0
  0
SEQEND
  5
38E
  8
FAB_2$_CUT_2
  0
POLYLINE
  5
38F
  8
FAB_2$_CUT_2
 66
     1
 10
0.0
 20
0.0
 30
0.0
 70
     1
  0
VERTEX
  5
390
  8
FAB_2$_CUT_2
 10
-3678.648669740151
 20
227.6683343105555
 30
0.0
  0
VERTEX
  5
391
  8
FAB_2$_CUT_2
 10
-3676.746999056934
 20
229.3521539602183
 30
0.0
  0
VERTEX
  5
392
  8
FAB_2$_CUT_2
 10
-3675.905089232101
 20
228.4013186186103
 30
0.0
  0
VERTEX
  5
393
  8
FAB_2$_CUT_2
 10
-3677.806759915319
 20
226.7174989689473
 30
0.0
  0
SEQEND
  5
394
  8
FAB_2$_CUT_2
  0
POLYLINE
  5
395
  8
FAB_2$_CUT_2
 66
     1
 10
0.0
 20
0.0
 30
0.0
 70
     1
  0
VERTEX
  5
396
  8
FAB_2$_CUT_2
 10
-3682.016978099199
 20
231.4724312990393
 30
0.0
  0
VERTEX
  5
397
  8
FAB_2$_CUT_2
 10
-3680.115307415982
 20
233.1562509487026
 30
0.0
  0
VERTEX
  5
398
  8
FAB_2$_CUT_2
 10
-3679.273397591149
 20
232.2054156070943
 30
0.0
  0
VERTEX
  5
399
  8
FAB_2$_CUT_2
 10
-3681.175068274365
 20
230.5215959574301
 30
0.0
  0
SEQEND
  5
39A
  8
FAB_2$_CUT_2
  0
POLYLINE
  5
39B
  8
FAB_2$_CUT_2
 66
     1
 10
0.0
 20
0.0
 30
0.0
 70
     1
  0
VERTEX
  5
39C
  8
FAB_2$_CUT_2
 10
-3644.587709986798
 20
255.1780575432799
 30
0.0
  0
VERTEX
  5
39D
  8
FAB_2$_CUT_2
 10
-3642.469372567572
 20
256.5795733577869
 30
0.0
  0
VERTEX
  5
39E
  8
FAB_2$_CUT_2
 10
-3641.76861466032
 20
255.5204046481749
 30
0.0
  0
VERTEX
  5
39F
  8
FAB_2$_CUT_2
 10
-3643.886952079544
 20
254.1188888336686
 30
0.0
  0
SEQEND
  5
3A0
  8
FAB_2$_CUT_2
  0
POLYLINE
  5
3A1
  8
FAB_2$_CUT_2
 66
     1
 10
0.0
 20
0.0
 30
0.0
 70
     1
  0
VERTEX
  5
3A2
  8
FAB_2$_CUT_2
 10
-3647.39129850311
 20
259.4155740955339
 30
0.0
  0
VERTEX
  5
3A3
  8
FAB_2$_CUT_2
 10
-3645.272961083886
 20
260.8170899100402
 30
0.0
  0
VERTEX
  5
3A4
  8
FAB_2$_CUT_2
 10
-3644.572203176632
 20
259.7579212004273
 30
0.0
  0
VERTEX
  5
3A5
  8
FAB_2$_CUT_2
 10
-3646.690540595856
 20
258.3564053859203
 30
0.0
  0
SEQEND
  5
3A6
  8
FAB_2$_CUT_2
  0
CIRCLE
  5
3A7
  8
FAB_2$_CUT_2
 10
-3400.597629857969
 20
238.4720749224043
 30
0.0
 40
2.095500000000238
  0
CIRCLE
  5
3A8
  8
FAB_2$_CUT_2
 10
-3584.687060944909
 20
280.254522215346
 30
0.0
 40
1.778000000000061
  0
CIRCLE
  5
3A9
  8
FAB_2$_CUT_2
 10
-3589.542914635434
 20
292.323997634822
 30
0.0
 40
1.778000000000102
  0
POLYLINE
  5
3AA
  8
FAB_2$_CUT_2
 66
     1
 10
0.0
 20
0.0
 30
0.0
 70
     1
  0
VERTEX
  5
3AB
  8
FAB_2$_CUT_2
 10
-3421.199982303543
 20
280.0689730771879
 30
0.0
  0
VERTEX
  5
3AC
  8
FAB_2$_CUT_2
 10
-3420.239076087875
 20
280.8993701175767
 30
0.0
  0
VERTEX
  5
3AD
  8
FAB_2$_CUT_2
 10
-3418.578282007095
 20
278.9775576862398
 30
0.0
  0
VERTEX
  5
3AE
  8
FAB_2$_CUT_2
 10
-3419.539188222764
 20
278.1471606458501
 30
0.0
  0
SEQEND
  5
3AF
  8
FAB_2$_CUT_2
  0
POLYLINE
  5
3B0
  8
FAB_2$_CUT_2
 66
     1
 10
0.0
 20
0.0
 30
0.0
 70
     1
  0
VERTEX
  5
3B1
  8
FAB_2$_CUT_2
 10
-3417.355593815568
 20
283.3912211493408
 30
0.0
  0
VERTEX
  5
3B2
  8
FAB_2$_CUT_2
 10
-3416.394687599899
 20
284.2216181897327
 30
0.0
  0
VERTEX
  5
3B3
  8
FAB_2$_CUT_2
 10
-3414.733893519119
 20
282.2998057583941
 30
0.0
  0
VERTEX
  5
3B4
  8
FAB_2$_CUT_2
 10
-3415.694799734787
 20
281.4694087180026
 30
0.0
  0
SEQEND
  5
3B5
  8
FAB_2$_CUT_2
  0
POLYLINE
  5
3B6
  8
FAB_2$_CUT_2
 66
     1
 10
0.0
 20
0.0
 30
0.0
 70
     1
  0
VERTEX
  5
3B7
  8
FAB_2$_CUT_2
 10
-3530.348666930802
 20
302.2090681450247
 30
0.0
  0
VERTEX
  5
3B8
  8
FAB_2$_CUT_2
 10
-3527.827853657964
 20
302.5206775856485
 30
0.0
  0
VERTEX
  5
3B9
  8
FAB_2$_CUT_2
 10
-3527.672048937653
 20
301.2602709492286
 30
0.0
  0
VERTEX
  5
3BA
  8
FAB_2$_CUT_2
 10
-3530.192862210491
 20
300.9486615086071
 30
0.0
  0
SEQEND
  5
3BB
  8
FAB_2$_CUT_2
  0
POLYLINE
  5
3BC
  8
FAB_2$_CUT_2
 66
     1
 10
0.0
 20
0.0
 30
0.0
 70
     1
  0
VERTEX
  5
3BD
  8
FAB_2$_CUT_2
 10
-3530.972009628945
 20
307.2516963268466
 30
0.0
  0
VERTEX
  5
3BE
  8
FAB_2$_CUT_2
 10
-3528.451196356109
 20
307.5633057674692
 30
0.0
  0
VERTEX
  5
3BF
  8
FAB_2$_CUT_2
 10
-3528.295391635797
 20
306.3028991310503
 30
0.0
  0
VERTEX
  5
3C0
  8
FAB_2$_CUT_2
 10
-3530.816204908633
 20
305.9912896904254
 30
0.0
  0
SEQEND
  5
3C1
  8
FAB_2$_CUT_2
  0
POLYLINE
  5
3C2
  8
FAB_2$_CUT_2
 66
     1
 10
0.0
 20
0.0
 30
0.0
 70
     1
  0
VERTEX
  5
3C3
  8
FAB_2$_CUT_2
 10
-3389.404979897886
 20
228.3434209463836
 30
0.0
  0
VERTEX
  5
3C4
  8
FAB_2$_CUT_2
 10
-3387.733177629733
 20
226.4311769305222
 30
0.0
  0
VERTEX
  5
3C5
  8
FAB_2$_CUT_2
 10
-3388.689299637662
 20
225.5952757964436
 30
0.0
  0
VERTEX
  5
3C6
  8
FAB_2$_CUT_2
 10
-3390.361101905815
 20
227.5075198123059
 30
0.0
  0
SEQEND
  5
3C7
  8
FAB_2$_CUT_2
  0
POLYLINE
  5
3C8
  8
FAB_2$_CUT_2
 66
     1
 10
0.0
 20
0.0
 30
0.0
 70
     1
  0
VERTEX
  5
3C9
  8
FAB_2$_CUT_2
 10
-3410.743892984903
 20
250.7233681448228
 30
0.0
  0
VERTEX
  5
3CA
  8
FAB_2$_CUT_2
 10
-3409.79059695629
 20
251.5624907114532
 30
0.0
  0
VERTEX
  5
3CB
  8
FAB_2$_CUT_2
 10
-3408.11235182303
 20
249.655898654225
 30
0.0
  0
VERTEX
  5
3CC
  8
FAB_2$_CUT_2
 10
-3409.065647851643
 20
248.8167760875942
 30
0.0
  0
SEQEND
  5
3CD
  8
FAB_2$_CUT_2
  0
POLYLINE
  5
3CE
  8
FAB_2$_CUT_2
 66
     1
 10
0.0
 20
0.0
 30
0.0
 70
     1
  0
VERTEX
  5
3CF
  8
FAB_2$_CUT_2
 10
-3459.075420001666
 20
302.4108647469247
 30
0.0
  0
VERTEX
  5
3D0
  8
FAB_2$_CUT_2
 10
-3458.814707646981
 20
303.6538165030735
 30
0.0
  0
VERTEX
  5
3D1
  8
FAB_2$_CUT_2
 10
-3456.328804134682
 20
303.1323917937024
 30
0.0
  0
VERTEX
  5
3D2
  8
FAB_2$_CUT_2
 10
-3456.589516489368
 20
301.8894400375537
 30
0.0
  0
SEQEND
  5
3D3
  8
FAB_2$_CUT_2
  0
POLYLINE
  5
3D4
  8
FAB_2$_CUT_2
 66
     1
 10
0.0
 20
0.0
 30
0.0
 70
     1
  0
VERTEX
  5
3D5
  8
FAB_2$_CUT_2
 10
-3458.032363396679
 20
307.3836595363967
 30
0.0
  0
VERTEX
  5
3D6
  8
FAB_2$_CUT_2
 10
-3457.771651041992
 20
308.6266112925475
 30
0.0
  0
VERTEX
  5
3D7
  8
FAB_2$_CUT_2
 10
-3455.285747529695
 20
308.1051865831759
 30
0.0
  0
VERTEX
  5
3D8
  8
FAB_2$_CUT_2
 10
-3455.54645988438
 20
306.8622348270256
 30
0.0
  0
SEQEND
  5
3D9
  8
FAB_2$_CUT_2
  0
POLYLINE
  5
3DA
  8
FAB_2$_CUT_2
 66
     1
 10
0.0
 20
0.0
 30
0.0
 70
     1
  0
VERTEX
  5
3DB
  8
FAB_2$_CUT_2
 10
-3601.637122517473
 20
279.0409177744035
 30
0.0
  0
VERTEX
  5
3DC
  8
FAB_2$_CUT_2
 10
-3599.297311882855
 20
280.0292933073515
 30
0.0
  0
VERTEX
  5
3DD
  8
FAB_2$_CUT_2
 10
-3598.803124116381
 20
278.8593879900433
 30
0.0
  0
VERTEX
  5
3DE
  8
FAB_2$_CUT_2
 10
-3601.142934750999
 20
277.8710124570949
 30
0.0
  0
SEQEND
  5
3DF
  8
FAB_2$_CUT_2
  0
POLYLINE
  5
3E0
  8
FAB_2$_CUT_2
 66
     1
 10
0.0
 20
0.0
 30
0.0
 70
     1
  0
VERTEX
  5
3E1
  8
FAB_2$_CUT_2
 10
-3603.614266310856
 20
283.7214687590315
 30
0.0
  0
VERTEX
  5
3E2
  8
FAB_2$_CUT_2
 10
-3601.27445567624
 20
284.7098442919801
 30
0.0
  0
VERTEX
  5
3E3
  8
FAB_2$_CUT_2
 10
-3600.780267909763
 20
283.5399389746719
 30
0.0
  0
VERTEX
  5
3E4
  8
FAB_2$_CUT_2
 10
-3603.120078544381
 20
282.5515634417218
 30
0.0
  0
SEQEND
  5
3E5
  8
FAB_2$_CUT_2
  0
CIRCLE
  5
3E6
  8
FAB_2$_CUT_2
 10
-3367.398240626605
 20
211.0663537830793
 30
0.0
 40
1.777999999999812
  0
CIRCLE
  5
3E7
  8
FAB_2$_CUT_2
 10
-3357.686167960437
 20
219.608598850441
 30
0.0
 40
1.778000000000583
  0
CIRCLE
  5
3E8
  8
FAB_2$_CUT_2
 10
-3393.115464389689
 20
245.0971020251875
 30
0.0
 40
2.095500000000068
  0
CIRCLE
  5
3E9
  8
FAB_2$_CUT_2
 10
-3396.639979873944
 20
194.5051264661862
 30
0.0
 40
2.095500000000089
  0
CIRCLE
  5
3EA
  8
FAB_2$_CUT_2
 10
-3361.210683444691
 20
169.0166232914397
 30
0.0
 40
1.778000000000262
  0
CIRCLE
  5
3EB
  8
FAB_2$_CUT_2
 10
-3370.922756110859
 20
160.474378224078
 30
0.0
 40
1.77799999999949
  0
POLYLINE
  5
3EC
  8
FAB_2$_CUT_2
 66
     1
 10
0.0
 20
0.0
 30
0.0
 70
     1
  0
VERTEX
  5
3ED
  8
FAB_2$_CUT_2
 10
-3607.138781795111
 20
233.1294932000302
 30
0.0
  0
VERTEX
  5
3EE
  8
FAB_2$_CUT_2
 10
-3604.798971160495
 20
234.1178687329788
 30
0.0
  0
VERTEX
  5
3EF
  8
FAB_2$_CUT_2
 10
-3604.304783394018
 20
232.9479634156706
 30
0.0
  0
VERTEX
  5
3F0
  8
FAB_2$_CUT_2
 10
-3606.644594028636
 20
231.9595878827205
 30
0.0
  0
SEQEND
  5
3F1
  8
FAB_2$_CUT_2
  0
POLYLINE
  5
3F2
  8
FAB_2$_CUT_2
 66
     1
 10
0.0
 20
0.0
 30
0.0
 70
     1
  0
VERTEX
  5
3F3
  8
FAB_2$_CUT_2
 10
-3605.161638001728
 20
228.4489422154022
 30
0.0
  0
VERTEX
  5
3F4
  8
FAB_2$_CUT_2
 10
-3602.82182736711
 20
229.4373177483502
 30
0.0
  0
VERTEX
  5
3F5
  8
FAB_2$_CUT_2
 10
-3602.327639600636
 20
228.267412431042
 30
0.0
  0
VERTEX
  5
3F6
  8
FAB_2$_CUT_2
 10
-3604.667450235254
 20
227.2790368980936
 30
0.0
  0
SEQEND
  5
3F7
  8
FAB_2$_CUT_2
  0
POLYLINE
  5
3F8
  8
FAB_2$_CUT_2
 66
     1
 10
0.0
 20
0.0
 30
0.0
 70
     1
  0
VERTEX
  5
3F9
  8
FAB_2$_CUT_2
 10
-3461.556878880934
 20
256.7916839773954
 30
0.0
  0
VERTEX
  5
3FA
  8
FAB_2$_CUT_2
 10
-3461.296166526247
 20
258.0346357335462
 30
0.0
  0
VERTEX
  5
3FB
  8
FAB_2$_CUT_2
 10
-3458.81026301395
 20
257.5132110241746
 30
0.0
  0
VERTEX
  5
3FC
  8
FAB_2$_CUT_2
 10
-3459.070975368635
 20
256.2702592680243
 30
0.0
  0
SEQEND
  5
3FD
  8
FAB_2$_CUT_2
  0
POLYLINE
  5
3FE
  8
FAB_2$_CUT_2
 66
     1
 10
0.0
 20
0.0
 30
0.0
 70
     1
  0
VERTEX
  5
3FF
  8
FAB_2$_CUT_2
 10
-3462.599935485921
 20
251.8188891879234
 30
0.0
  0
VERTEX
  5
400
  8
FAB_2$_CUT_2
 10
-3462.339223131236
 20
253.0618409440722
 30
0.0
  0
VERTEX
  5
401
  8
FAB_2$_CUT_2
 10
-3459.853319618937
 20
252.5404162347011
 30
0.0
  0
VERTEX
  5
402
  8
FAB_2$_CUT_2
 10
-3460.114031973623
 20
251.2974644785524
 30
0.0
  0
SEQEND
  5
403
  8
FAB_2$_CUT_2
  0
POLYLINE
  5
404
  8
FAB_2$_CUT_2
 66
     1
 10
0.0
 20
0.0
 30
0.0
 70
     1
  0
VERTEX
  5
405
  8
FAB_2$_CUT_2
 10
-3414.268408469158
 20
200.1313925858215
 30
0.0
  0
VERTEX
  5
406
  8
FAB_2$_CUT_2
 10
-3413.315112440545
 20
200.9705151524519
 30
0.0
  0
VERTEX
  5
407
  8
FAB_2$_CUT_2
 10
-3411.636867307285
 20
199.0639230952237
 30
0.0
  0
VERTEX
  5
408
  8
FAB_2$_CUT_2
 10
-3412.590163335899
 20
198.2248005285929
 30
0.0
  0
SEQEND
  5
409
  8
FAB_2$_CUT_2
  0
POLYLINE
  5
40A
  8
FAB_2$_CUT_2
 66
     1
 10
0.0
 20
0.0
 30
0.0
 70
     1
  0
VERTEX
  5
40B
  8
FAB_2$_CUT_2
 10
-3392.929495382141
 20
177.7514453873823
 30
0.0
  0
VERTEX
  5
40C
  8
FAB_2$_CUT_2
 10
-3391.257693113988
 20
175.8392013715209
 30
0.0
  0
VERTEX
  5
40D
  8
FAB_2$_CUT_2
 10
-3392.213815121917
 20
175.0033002374423
 30
0.0
  0
VERTEX
  5
40E
  8
FAB_2$_CUT_2
 10
-3393.88561739007
 20
176.9155442533046
 30
0.0
  0
SEQEND
  5
40F
  8
FAB_2$_CUT_2
  0
POLYLINE
  5
410
  8
FAB_2$_CUT_2
 66
     1
 10
0.0
 20
0.0
 30
0.0
 70
     1
  0
VERTEX
  5
411
  8
FAB_2$_CUT_2
 10
-3534.4965251132
 20
256.6597207678453
 30
0.0
  0
VERTEX
  5
412
  8
FAB_2$_CUT_2
 10
-3531.975711840365
 20
256.9713302084679
 30
0.0
  0
VERTEX
  5
413
  8
FAB_2$_CUT_2
 10
-3531.819907120052
 20
255.710923572049
 30
0.0
  0
VERTEX
  5
414
  8
FAB_2$_CUT_2
 10
-3534.340720392888
 20
255.3993141314241
 30
0.0
  0
SEQEND
  5
415
  8
FAB_2$_CUT_2
  0
POLYLINE
  5
416
  8
FAB_2$_CUT_2
 66
     1
 10
0.0
 20
0.0
 30
0.0
 70
     1
  0
VERTEX
  5
417
  8
FAB_2$_CUT_2
 10
-3533.873182415057
 20
251.6170925860234
 30
0.0
  0
VERTEX
  5
418
  8
FAB_2$_CUT_2
 10
-3531.352369142219
 20
251.9287020266472
 30
0.0
  0
VERTEX
  5
419
  8
FAB_2$_CUT_2
 10
-3531.196564421908
 20
250.6682953902273
 30
0.0
  0
VERTEX
  5
41A
  8
FAB_2$_CUT_2
 10
-3533.717377694746
 20
250.3566859496058
 30
0.0
  0
SEQEND
  5
41B
  8
FAB_2$_CUT_2
  0
POLYLINE
  5
41C
  8
FAB_2$_CUT_2
 66
     1
 10
0.0
 20
0.0
 30
0.0
 70
     1
  0
VERTEX
  5
41D
  8
FAB_2$_CUT_2
 10
-3420.880109299823
 20
232.7992455903395
 30
0.0
  0
VERTEX
  5
41E
  8
FAB_2$_CUT_2
 10
-3419.919203084154
 20
233.6296426307314
 30
0.0
  0
VERTEX
  5
41F
  8
FAB_2$_CUT_2
 10
-3418.258409003374
 20
231.7078301993928
 30
0.0
  0
VERTEX
  5
420
  8
FAB_2$_CUT_2
 10
-3419.219315219042
 20
230.8774331590013
 30
0.0
  0
SEQEND
  5
421
  8
FAB_2$_CUT_2
  0
POLYLINE
  5
422
  8
FAB_2$_CUT_2
 66
     1
 10
0.0
 20
0.0
 30
0.0
 70
     1
  0
VERTEX
  5
423
  8
FAB_2$_CUT_2
 10
-3424.724497787798
 20
229.4769975181866
 30
0.0
  0
VERTEX
  5
424
  8
FAB_2$_CUT_2
 10
-3423.76359157213
 20
230.3073945585754
 30
0.0
  0
VERTEX
  5
425
  8
FAB_2$_CUT_2
 10
-3422.10279749135
 20
228.3855821272385
 30
0.0
  0
VERTEX
  5
426
  8
FAB_2$_CUT_2
 10
-3423.063703707019
 20
227.5551850868488
 30
0.0
  0
SEQEND
  5
427
  8
FAB_2$_CUT_2
  0
CIRCLE
  5
428
  8
FAB_2$_CUT_2
 10
-3593.067430119689
 20
241.7320220758208
 30
0.0
 40
1.778000000000082
  0
CIRCLE
  5
429
  8
FAB_2$_CUT_2
 10
-3588.211576429164
 20
229.6625466563447
 30
0.0
 40
1.778000000000061
  0
CIRCLE
  5
42A
  8
FAB_2$_CUT_2
 10
-3404.122145342224
 20
187.880099363403
 30
0.0
 40
2.095500000000238
  0
POLYLINE
  5
42B
  8
FAB_2$_CUT_2
 66
     1
 10
0.0
 20
0.0
 30
0.0
 70
     1
  0
VERTEX
  5
42C
  8
FAB_2$_CUT_2
 10
-3650.915813987365
 20
208.8235985365326
 30
0.0
  0
VERTEX
  5
42D
  8
FAB_2$_CUT_2
 10
-3648.797476568141
 20
210.2251143510389
 30
0.0
  0
VERTEX
  5
42E
  8
FAB_2$_CUT_2
 10
-3648.096718660887
 20
209.165945641426
 30
0.0
  0
VERTEX
  5
42F
  8
FAB_2$_CUT_2
 10
-3650.215056080111
 20
207.764429826919
 30
0.0
  0
SEQEND
  5
430
  8
FAB_2$_CUT_2
  0
POLYLINE
  5
431
  8
FAB_2$_CUT_2
 66
     1
 10
0.0
 20
0.0
 30
0.0
 70
     1
  0
VERTEX
  5
432
  8
FAB_2$_CUT_2
 10
-3648.112225471053
 20
204.5860819842786
 30
0.0
  0
VERTEX
  5
433
  8
FAB_2$_CUT_2
 10
-3645.993888051827
 20
205.9875977987856
 30
0.0
  0
VERTEX
  5
434
  8
FAB_2$_CUT_2
 10
-3645.293130144575
 20
204.9284290891736
 30
0.0
  0
VERTEX
  5
435
  8
FAB_2$_CUT_2
 10
-3647.411467563799
 20
203.5269132746673
 30
0.0
  0
SEQEND
  5
436
  8
FAB_2$_CUT_2
  0
POLYLINE
  5
437
  8
FAB_2$_CUT_2
 66
     1
 10
0.0
 20
0.0
 30
0.0
 70
     1
  0
VERTEX
  5
438
  8
FAB_2$_CUT_2
 10
-3685.541493583454
 20
180.880455740038
 30
0.0
  0
VERTEX
  5
439
  8
FAB_2$_CUT_2
 10
-3683.639822900237
 20
182.5642753897013
 30
0.0
  0
VERTEX
  5
43A
  8
FAB_2$_CUT_2
 10
-3682.797913075404
 20
181.613440048093
 30
0.0
  0
VERTEX
  5
43B
  8
FAB_2$_CUT_2
 10
-3684.699583758621
 20
179.9296203984288
 30
0.0
  0
SEQEND
  5
43C
  8
FAB_2$_CUT_2
  0
POLYLINE
  5
43D
  8
FAB_2$_CUT_2
 66
     1
 10
0.0
 20
0.0
 30
0.0
 70
     1
  0
VERTEX
  5
43E
  8
FAB_2$_CUT_2
 10
-3682.173185224406
 20
177.0763587515542
 30
0.0
  0
VERTEX
  5
43F
  8
FAB_2$_CUT_2
 10
-3680.271514541189
 20
178.760178401217
 30
0.0
  0
VERTEX
  5
440
  8
FAB_2$_CUT_2
 10
-3679.429604716356
 20
177.809343059609
 30
0.0
  0
VERTEX
  5
441
  8
FAB_2$_CUT_2
 10
-3681.331275399574
 20
176.125523409946
 30
0.0
  0
SEQEND
  5
442
  8
FAB_2$_CUT_2
  0
POLYLINE
  5
443
  8
FAB_2$_CUT_2
 66
     1
 10
0.0
 20
0.0
 30
0.0
 70
     1
  0
VERTEX
  5
444
  8
FAB_2$_CUT_2
 10
-3378.239710425938
 20
193.0759850334908
 30
0.0
  0
VERTEX
  5
445
  8
FAB_2$_CUT_2
 10
-3376.55268481547
 20
191.1771578718909
 30
0.0
  0
VERTEX
  5
446
  8
FAB_2$_CUT_2
 10
-3377.50209839627
 20
190.3336450666579
 30
0.0
  0
VERTEX
  5
447
  8
FAB_2$_CUT_2
 10
-3379.189124006738
 20
192.2324722282577
 30
0.0
  0
SEQEND
  5
448
  8
FAB_2$_CUT_2
  0
POLYLINE
  5
449
  8
FAB_2$_CUT_2
 66
     1
 10
0.0
 20
0.0
 30
0.0
 70
     1
  0
VERTEX
  5
44A
  8
FAB_2$_CUT_2
 10
-3395.832143003744
 20
212.9445103154853
 30
0.0
  0
VERTEX
  5
44B
  8
FAB_2$_CUT_2
 10
-3396.784397399707
 20
212.1042058674616
 30
0.0
  0
VERTEX
  5
44C
  8
FAB_2$_CUT_2
 10
-3398.465006295754
 20
214.0087146593908
 30
0.0
  0
VERTEX
  5
44D
  8
FAB_2$_CUT_2
 10
-3397.51275189979
 20
214.8490191074131
 30
0.0
  0
SEQEND
  5
44E
  8
FAB_2$_CUT_2
  0
CIRCLE
  5
44F
  8
FAB_2$_CUT_2
 10
-3389.15781305928
 20
201.1301520483909
 30
0.0
 40
2.095499999999766
  0
POLYLINE
  5
450
  8
FAB_2$_CUT_2
 66
     1
 10
0.0
 20
0.0
 30
0.0
 70
     1
  0
VERTEX
  5
451
  8
FAB_2$_CUT_2
 10
-3674.694750361347
 20
162.0752256037057
 30
0.0
  0
VERTEX
  5
452
  8
FAB_2$_CUT_2
 10
-3673.6165640404
 20
163.2128956898576
 30
0.0
  0
VERTEX
  5
453
  8
FAB_2$_CUT_2
 10
-3670.714197067613
 20
166.3408527154016
 30
0.0
  0
VERTEX
  5
454
  8
FAB_2$_CUT_2
 10
-3667.762461993084
 20
169.3830302004686
 30
0.0
  0
VERTEX
  5
455
  8
FAB_2$_CUT_2
 10
-3664.763711870445
 20
172.3408204652976
 30
0.0
  0
VERTEX
  5
456
  8
FAB_2$_CUT_2
 10
-3661.720299753333
 20
175.2156158301275
 30
0.0
  0
VERTEX
  5
457
  8
FAB_2$_CUT_2
 10
-3658.634578695379
 20
178.0088086151975
 30
0.0
  0
VERTEX
  5
458
  8
FAB_2$_CUT_2
 10
-3655.508901750216
 20
180.7217911407465
 30
0.0
  0
VERTEX
  5
459
  8
FAB_2$_CUT_2
 10
-3652.34562197148
 20
183.3559557270136
 30
0.0
  0
VERTEX
  5
45A
  8
FAB_2$_CUT_2
 10
-3649.147092412803
 20
185.9126946942378
 30
0.0
  0
VERTEX
  5
45B
  8
FAB_2$_CUT_2
 10
-3645.915666127819
 20
188.3934003626581
 30
0.0
  0
VERTEX
  5
45C
  8
FAB_2$_CUT_2
 10
-3642.653696170161
 20
190.7994650525135
 30
0.0
  0
VERTEX
  5
45D
  8
FAB_2$_CUT_2
 10
-3639.363535593464
 20
193.132281084043
 30
0.0
  0
VERTEX
  5
45E
  8
FAB_2$_CUT_2
 10
-3636.047537451361
 20
195.3932407774857
 30
0.0
  0
VERTEX
  5
45F
  8
FAB_2$_CUT_2
 10
-3629.34744068547
 20
199.7051604310667
 30
0.0
  0
VERTEX
  5
460
  8
FAB_2$_CUT_2
 10
-3622.572230301558
 20
203.7463625751686
 30
0.0
  0
VERTEX
  5
461
  8
FAB_2$_CUT_2
 10
-3615.740730728694
 20
207.5279857717034
 30
0.0
  0
VERTEX
  5
462
  8
FAB_2$_CUT_2
 10
-3608.871766395946
 20
211.0611685825835
 30
0.0
  0
VERTEX
  5
463
  8
FAB_2$_CUT_2
 10
-3601.984161732384
 20
214.3570495697208
 30
0.0
  0
VERTEX
  5
464
  8
FAB_2$_CUT_2
 10
-3595.096741167074
 20
217.4267672950276
 30
0.0
  0
VERTEX
  5
465
  8
FAB_2$_CUT_2
 10
-3588.228329129089
 20
220.2814603204161
 30
0.0
  0
VERTEX
  5
466
  8
FAB_2$_CUT_2
 10
-3581.397750047495
 20
222.9322672077983
 30
0.0
  0
VERTEX
  5
467
  8
FAB_2$_CUT_2
 10
-3574.623828351362
 20
225.3903265190864
 30
0.0
  0
VERTEX
  5
468
  8
FAB_2$_CUT_2
 10
-3567.925388469759
 20
227.6667768161926
 30
0.0
  0
VERTEX
  5
469
  8
FAB_2$_CUT_2
 10
-3561.319448559528
 20
229.7712974153988
 30
0.0
  0
VERTEX
  5
46A
  8
FAB_2$_CUT_2
 10
-3554.815801688605
 20
231.7077306504659
 30
0.0
  0
VERTEX
  5
46B
  8
FAB_2$_CUT_2
 10
-3548.422434652699
 20
233.4784596095245
 30
0.0
  0
VERTEX
  5
46C
  8
FAB_2$_CUT_2
 10
-3542.147334247522
 20
235.0858673807053
 30
0.0
  0
VERTEX
  5
46D
  8
FAB_2$_CUT_2
 10
-3535.998487268782
 20
236.5323370521388
 30
0.0
  0
VERTEX
  5
46E
  8
FAB_2$_CUT_2
 10
-3529.983880512189
 20
237.8202517119559
 30
0.0
  0
VERTEX
  5
46F
  8
FAB_2$_CUT_2
 10
-3524.111500773452
 20
238.9519944482872
 30
0.0
  0
VERTEX
  5
470
  8
FAB_2$_CUT_2
 10
-3518.389334848282
 20
239.9299483492632
 30
0.0
  0
VERTEX
  5
471
  8
FAB_2$_CUT_2
 10
-3512.825369532389
 20
240.7564965030147
 30
0.0
  0
VERTEX
  5
472
  8
FAB_2$_CUT_2
 10
-3507.427591621481
 20
241.4340219976723
 30
0.0
  0
VERTEX
  5
473
  8
FAB_2$_CUT_2
 10
-3502.203987911269
 20
241.9649079213667
 30
0.0
  0
VERTEX
  5
474
  8
FAB_2$_CUT_2
 10
-3497.162545197462
 20
242.3515373622284
 30
0.0
  0
VERTEX
  5
475
  8
FAB_2$_CUT_2
 10
-3492.31125027577
 20
242.5962934083883
 30
0.0
  0
VERTEX
  5
476
  8
FAB_2$_CUT_2
 10
-3487.658089941903
 20
242.7015591479769
 30
0.0
  0
VERTEX
  5
477
  8
FAB_2$_CUT_2
 10
-3483.211050991571
 20
242.6697176691249
 30
0.0
  0
VERTEX
  5
478
  8
FAB_2$_CUT_2
 10
-3478.978120220483
 20
242.5031520599628
 30
0.0
  0
VERTEX
  5
479
  8
FAB_2$_CUT_2
 10
-3477.055280441506
 20
242.3782223441521
 30
0.0
  0
VERTEX
  5
47A
  8
FAB_2$_CUT_2
 10
-3475.180397029567
 20
242.223390055844
 30
0.0
  0
VERTEX
  5
47B
  8
FAB_2$_CUT_2
 10
-3473.351886692247
 20
242.0382721115046
 30
0.0
  0
VERTEX
  5
47C
  8
FAB_2$_CUT_2
 10
-3471.568166137124
 20
241.8224854276002
 30
0.0
  0
VERTEX
  5
47D
  8
FAB_2$_CUT_2
 10
-3469.82765207178
 20
241.5756469205969
 30
0.0
  0
VERTEX
  5
47E
  8
FAB_2$_CUT_2
 10
-3468.128761203794
 20
241.2973735069608
 30
0.0
  0
VERTEX
  5
47F
  8
FAB_2$_CUT_2
 10
-3466.469910240745
 20
240.9872821031582
 30
0.0
  0
VERTEX
  5
480
  8
FAB_2$_CUT_2
 10
-3464.849515890213
 20
240.6449896256552
 30
0.0
  0
VERTEX
  5
481
  8
FAB_2$_CUT_2
 10
-3463.265994859779
 20
240.2701129909181
 30
0.0
  0
VERTEX
  5
482
  8
FAB_2$_CUT_2
 10
-3461.717763857021
 20
239.8622691154128
 30
0.0
  0
VERTEX
  5
483
  8
FAB_2$_CUT_2
 10
-3460.203239589519
 20
239.4210749156057
 30
0.0
  0
VERTEX
  5
484
  8
FAB_2$_CUT_2
 10
-3458.720838764854
 20
238.9461473079629
 30
0.0
  0
VERTEX
  5
485
  8
FAB_2$_CUT_2
 10
-3457.268978090605
 20
238.4371032089506
 30
0.0
  0
VERTEX
  5
486
  8
FAB_2$_CUT_2
 10
-3455.846074274351
 20
237.8935595350349
 30
0.0
  0
VERTEX
  5
487
  8
FAB_2$_CUT_2
 10
-3454.450544023673
 20
237.315133202682
 30
0.0
  0
VERTEX
  5
488
  8
FAB_2$_CUT_2
 10
-3453.08080404615
 20
236.7014411283581
 30
0.0
  0
VERTEX
  5
489
  8
FAB_2$_CUT_2
 10
-3451.735271049361
 20
236.0521002285294
 30
0.0
  0
VERTEX
  5
48A
  8
FAB_2$_CUT_2
 10
-3450.412361740889
 20
235.3667274196619
 30
0.0
  0
VERTEX
  5
48B
  8
FAB_2$_CUT_2
 10
-3449.110492828309
 20
234.6449396182219
 30
0.0
  0
VERTEX
  5
48C
  8
FAB_2$_CUT_2
 10
-3447.828081019205
 20
233.8863537406756
 30
0.0
  0
VERTEX
  5
48D
  8
FAB_2$_CUT_2
 10
-3446.563543021154
 20
233.0905867034891
 30
0.0
  0
VERTEX
  5
48E
  8
FAB_2$_CUT_2
 10
-3445.315295541736
 20
232.2572554231286
 30
0.0
  0
VERTEX
  5
48F
  8
FAB_2$_CUT_2
 10
-3444.081755288532
 20
231.3859768160603
 30
0.0
  0
VERTEX
  5
490
  8
FAB_2$_CUT_2
 10
-3442.861338969122
 20
230.4763677987503
 30
0.0
  0
VERTEX
  5
491
  8
FAB_2$_CUT_2
 10
-3441.652463291084
 20
229.5280452876648
 30
0.0
  0
VERTEX
  5
492
  8
FAB_2$_CUT_2
 10
-3440.453544961999
 20
228.54062619927
 30
0.0
  0
VERTEX
  5
493
  8
FAB_2$_CUT_2
 10
-3439.263000689446
 20
227.513727450032
 30
0.0
  0
VERTEX
  5
494
  8
FAB_2$_CUT_2
 10
-3438.079247181005
 20
226.446965956417
 30
0.0
  0
VERTEX
  5
495
  8
FAB_2$_CUT_2
 10
-3436.900701144256
 20
225.3399586348912
 30
0.0
  0
VERTEX
  5
496
  8
FAB_2$_CUT_2
 10
-3435.725779286779
 20
224.1923224019208
 30
0.0
  0
VERTEX
  5
497
  8
FAB_2$_CUT_2
 10
-3433.380474939958
 20
221.7736308675107
 30
0.0
 42
-0.0763882570553982
  0
VERTEX
  5
498
  8
FAB_2$_CUT_2
 10
-3429.94649449025
 20
216.7615658755583
 30
0.0
  0
VERTEX
  5
499
  8
FAB_2$_CUT_2
 10
-3426.656756180511
 20
210.1816361651286
 30
0.0
  0
VERTEX
  5
49A
  8
FAB_2$_CUT_2
 10
-3425.060323013845
 20
207.1845529776165
 30
0.0
  0
VERTEX
  5
49B
  8
FAB_2$_CUT_2
 10
-3423.487639743686
 20
204.3613085000924
 30
0.0
  0
VERTEX
  5
49C
  8
FAB_2$_CUT_2
 10
-3421.932300798314
 20
201.6958409311961
 30
0.0
  0
VERTEX
  5
49D
  8
FAB_2$_CUT_2
 10
-3420.38790060601
 20
199.1720884695673
 30
0.0
  0
VERTEX
  5
49E
  8
FAB_2$_CUT_2
 10
-3418.848033595051
 20
196.7739893138458
 30
0.0
  0
VERTEX
  5
49F
  8
FAB_2$_CUT_2
 10
-3417.306294193717
 20
194.4854816626711
 30
0.0
  0
VERTEX
  5
4A0
  8
FAB_2$_CUT_2
 10
-3415.756276830288
 20
192.2905037146831
 30
0.0
  0
VERTEX
  5
4A1
  8
FAB_2$_CUT_2
 10
-3414.191575933043
 20
190.1729936685215
 30
0.0
  0
VERTEX
  5
4A2
  8
FAB_2$_CUT_2
 10
-3412.605785930262
 20
188.1168897228259
 30
0.0
  0
VERTEX
  5
4A3
  8
FAB_2$_CUT_2
 10
-3410.992501250224
 20
186.1061300762361
 30
0.0
  0
VERTEX
  5
4A4
  8
FAB_2$_CUT_2
 10
-3407.657825571493
 20
182.1563964749326
 30
0.0
  0
VERTEX
  5
4A5
  8
FAB_2$_CUT_2
 10
-3404.136304323087
 20
178.1952984537289
 30
0.0
  0
VERTEX
  5
4A6
  8
FAB_2$_CUT_2
 10
-3403.950396778038
 20
177.9978247158829
 30
0.0
  0
VERTEX
  5
4A7
  8
FAB_2$_CUT_2
 10
-3403.57916222244
 20
177.6188296896096
 30
0.0
  0
VERTEX
  5
4A8
  8
FAB_2$_CUT_2
 10
-3402.241308414728
 20
176.318080299223
 30
0.0
  0
VERTEX
  5
4A9
  8
FAB_2$_CUT_2
 10
-3400.043935570223
 20
174.2966593374537
 30
0.0
  0
VERTEX
  5
4AA
  8
FAB_2$_CUT_2
 10
-3396.908236359191
 20
171.5581758591863
 30
0.0
  0
VERTEX
  5
4AB
  8
FAB_2$_CUT_2
 10
-3392.755403451902
 20
168.1062389193055
 30
0.0
  0
VERTEX
  5
4AC
  8
FAB_2$_CUT_2
 10
-3387.506629518624
 20
163.9444575726958
 30
0.0
  0
VERTEX
  5
4AD
  8
FAB_2$_CUT_2
 10
-3381.083107229629
 20
159.0764408742418
 30
0.0
  0
VERTEX
  5
4AE
  8
FAB_2$_CUT_2
 10
-3373.406029255184
 20
153.5057978788277
 30
0.0
 42
0.4027524530797018
  0
VERTEX
  5
4AF
  8
FAB_2$_CUT_2
 10
-3368.866375773148
 20
153.1463949683673
 30
0.0
  0
VERTEX
  5
4B0
  8
FAB_2$_CUT_2
 10
-3354.253361937218
 20
166.0853754421793
 30
0.0
  0
VERTEX
  5
4B1
  8
FAB_2$_CUT_2
 10
-3354.200904255416
 20
166.1324405391
 30
0.0
  0
VERTEX
  5
4B2
  8
FAB_2$_CUT_2
 10
-3354.149047092806
 20
166.1810968754679
 30
0.0
  0
VERTEX
  5
4B3
  8
FAB_2$_CUT_2
 10
-3354.097852282088
 20
166.231344342432
 30
0.0
  0
VERTEX
  5
4B4
  8
FAB_2$_CUT_2
 10
-3354.047382676594
 20
166.2831799995634
 30
0.0
  0
VERTEX
  5
4B5
  8
FAB_2$_CUT_2
 10
-3353.99770200755
 20
166.336597958912
 30
0.0
  0
VERTEX
  5
4B6
  8
FAB_2$_CUT_2
 10
-3353.94887472989
 20
166.3915892762989
 30
0.0
  0
VERTEX
  5
4B7
  8
FAB_2$_CUT_2
 10
-3353.900965856928
 20
166.448141850976
 30
0.0
  0
VERTEX
  5
4B8
  8
FAB_2$_CUT_2
 10
-3353.854040784283
 20
166.5062403347871
 30
0.0
  0
VERTEX
  5
4B9
  8
FAB_2$_CUT_2
 10
-3353.808165103579
 20
166.5658660519615
 30
0.0
  0
VERTEX
  5
4BA
  8
FAB_2$_CUT_2
 10
-3353.76340440658
 20
166.6269969306501
 30
0.0
  0
VERTEX
  5
4BB
  8
FAB_2$_CUT_2
 10
-3353.719824080515
 20
166.6896074472811
 30
0.0
  0
VERTEX
  5
4BC
  8
FAB_2$_CUT_2
 10
-3353.677489095503
 20
166.7536685847648
 30
0.0
  0
VERTEX
  5
4BD
  8
FAB_2$_CUT_2
 10
-3353.636463785078
 20
166.8191478055133
 30
0.0
  0
VERTEX
  5
4BE
  8
FAB_2$_CUT_2
 10
-3353.596811620976
 20
166.8860090401648
 30
0.0
  0
VERTEX
  5
4BF
  8
FAB_2$_CUT_2
 10
-3353.558594983402
 20
166.9542126928085
 30
0.0
  0
VERTEX
  5
4C0
  8
FAB_2$_CUT_2
 10
-3353.521874928139
 20
167.0237156633973
 30
0.0
  0
VERTEX
  5
4C1
  8
FAB_2$_CUT_2
 10
-3353.486710951973
 20
167.0944713879169
 30
0.0
  0
VERTEX
  5
4C2
  8
FAB_2$_CUT_2
 10
-3353.453160757912
 20
167.1664298967418
 30
0.0
  0
VERTEX
  5
4C3
  8
FAB_2$_CUT_2
 10
-3353.421280021857
 20
167.2395378914638
 30
0.0
  0
VERTEX
  5
4C4
  8
FAB_2$_CUT_2
 10
-3353.391122162325
 20
167.3137388403225
 30
0.0
  0
VERTEX
  5
4C5
  8
FAB_2$_CUT_2
 10
-3353.362738114961
 20
167.3889730921965
 30
0.0
  0
VERTEX
  5
4C6
  8
FAB_2$_CUT_2
 10
-3353.336176113514
 20
167.4651780089471
 30
0.0
  0
VERTEX
  5
4C7
  8
FAB_2$_CUT_2
 10
-3353.311481479012
 20
167.5422881157261
 30
0.0
  0
VERTEX
  5
4C8
  8
FAB_2$_CUT_2
 10
-3353.288696418793
 20
167.6202352686798
 30
0.0
  0
VERTEX
  5
4C9
  8
FAB_2$_CUT_2
 10
-3353.267859837062
 20
167.6989488393035
 30
0.0
  0
VERTEX
  5
4CA
  8
FAB_2$_CUT_2
 10
-3353.249007158547
 20
167.7783559145272
 30
0.0
  0
VERTEX
  5
4CB
  8
FAB_2$_CUT_2
 10
-3353.23217016674
 20
167.858381511442
 30
0.0
  0
VERTEX
  5
4CC
  8
FAB_2$_CUT_2
 10
-3353.217376858122
 20
167.9389488054159
 30
0.0
  0
VERTEX
  5
4CD
  8
FAB_2$_CUT_2
 10
-3353.204651313647
 20
168.0199793702016
 30
0.0
  0
VERTEX
  5
4CE
  8
FAB_2$_CUT_2
 10
-3353.194013588589
 20
168.1013934285016
 30
0.0
  0
VERTEX
  5
4CF
  8
FAB_2$_CUT_2
 10
-3353.185479621753
 20
168.1831101113382
 30
0.0
  0
VERTEX
  5
4D0
  8
FAB_2$_CUT_2
 10
-3353.17906116481
 20
168.265047724475
 30
0.0
  0
VERTEX
  5
4D1
  8
FAB_2$_CUT_2
 10
-3353.174765732411
 20
168.3471240200578
 30
0.0
  0
VERTEX
  5
4D2
  8
FAB_2$_CUT_2
 10
-3353.17259657347
 20
168.4292564715814
 30
0.0
  0
VERTEX
  5
4D3
  8
FAB_2$_CUT_2
 10
-3353.172552663863
 20
168.5113625502553
 30
0.0
  0
VERTEX
  5
4D4
  8
FAB_2$_CUT_2
 10
-3353.174628720561
 20
168.593360000827
 30
0.0
  0
VERTEX
  5
4D5
  8
FAB_2$_CUT_2
 10
-3353.178815237025
 20
168.675167114931
 30
0.0
  0
VERTEX
  5
4D6
  8
FAB_2$_CUT_2
 10
-3353.185098539488
 20
168.7567030000666
 30
0.0
  0
VERTEX
  5
4D7
  8
FAB_2$_CUT_2
 10
-3353.193460863575
 20
168.8378878423627
 30
0.0
  0
VERTEX
  5
4D8
  8
FAB_2$_CUT_2
 10
-3353.203880450489
 20
168.9186431613645
 30
0.0
  0
VERTEX
  5
4D9
  8
FAB_2$_CUT_2
 10
-3353.216331661875
 20
168.9988920551751
 30
0.0
  0
VERTEX
  5
4DA
  8
FAB_2$_CUT_2
 10
-3353.230785112263
 20
169.0785594343999
 30
0.0
  0
VERTEX
  5
4DB
  8
FAB_2$_CUT_2
 10
-3353.247207817893
 20
169.1575722434727
 30
0.0
  0
VERTEX
  5
4DC
  8
FAB_2$_CUT_2
 10
-3353.265563360563
 20
169.2358596680893
 30
0.0
  0
VERTEX
  5
4DD
  8
FAB_2$_CUT_2
 10
-3353.285812065067
 20
169.3133533276299
 30
0.0
  0
VERTEX
  5
4DE
  8
FAB_2$_CUT_2
 10
-3353.307911188683
 20
169.3899874516159
 30
0.0
  0
VERTEX
  5
4DF
  8
FAB_2$_CUT_2
 10
-3353.331815121114
 20
169.465699039422
 30
0.0
  0
VERTEX
  5
4E0
  8
FAB_2$_CUT_2
 10
-3353.357475593233
 20
169.5404280026342
 30
0.0
  0
VERTEX
  5
4E1
  8
FAB_2$_CUT_2
 10
-3353.384841892986
 20
169.6141172896235
 30
0.0
  0
VERTEX
  5
4E2
  8
FAB_2$_CUT_2
 10
-3353.413861086748
 20
169.6867129920782
 30
0.0
  0
VERTEX
  5
4E3
  8
FAB_2$_CUT_2
 10
-3353.44447824451
 20
169.7581644334046
 30
0.0
  0
VERTEX
  5
4E4
  8
FAB_2$_CUT_2
 10
-3353.476636667243
 20
169.8284242390731
 30
0.0
  0
VERTEX
  5
4E5
  8
FAB_2$_CUT_2
 10
-3353.51027811489
 20
169.8974483891359
 30
0.0
  0
VERTEX
  5
4E6
  8
FAB_2$_CUT_2
 10
-3353.545343033466
 20
169.9651962532941
 30
0.0
  0
VERTEX
  5
4E7
  8
FAB_2$_CUT_2
 10
-3353.581770779826
 20
170.0316306090159
 30
0.0
  0
VERTEX
  5
4E8
  8
FAB_2$_CUT_2
 10
-3353.619499842785
 20
170.0967176433376
 30
0.0
  0
VERTEX
  5
4E9
  8
FAB_2$_CUT_2
 10
-3353.658468059324
 20
170.1604269390777
 30
0.0
  0
VERTEX
  5
4EA
  8
FAB_2$_CUT_2
 10
-3353.69861282476
 20
170.2227314462912
 30
0.0
  0
VERTEX
  5
4EB
  8
FAB_2$_CUT_2
 10
-3353.739871295862
 20
170.2836074398686
 30
0.0
  0
VERTEX
  5
4EC
  8
FAB_2$_CUT_2
 10
-3353.782180585991
 20
170.3430344642462
 30
0.0
  0
VERTEX
  5
4ED
  8
FAB_2$_CUT_2
 10
-3353.825477951505
 20
170.400995266246
 30
0.0
  0
VERTEX
  5
4EE
  8
FAB_2$_CUT_2
 10
-3353.869700968733
 20
170.4574757170947
 30
0.0
  0
VERTEX
  5
4EF
  8
FAB_2$_CUT_2
 10
-3353.914787700989
 20
170.5124647246982
 30
0.0
  0
VERTEX
  5
4F0
  8
FAB_2$_CUT_2
 10
-3364.066912928698
 20
182.0857162482004
 30
0.0
  0
VERTEX
  5
4F1
  8
FAB_2$_CUT_2
 10
-3404.454458366803
 20
228.0501597141424
 30
0.0
  0
VERTEX
  5
4F2
  8
FAB_2$_CUT_2
 10
-3408.02647809057
 20
232.19043797147
 30
0.0
  0
VERTEX
  5
4F3
  8
FAB_2$_CUT_2
 10
-3411.728549136268
 20
236.4100217257047
 30
0.0
  0
VERTEX
  5
4F4
  8
FAB_2$_CUT_2
 10
-3413.662053176223
 20
238.5393826282686
 30
0.0
  0
VERTEX
  5
4F5
  8
FAB_2$_CUT_2
 10
-3415.624241626782
 20
240.5936149209272
 30
0.0
  0
VERTEX
  5
4F6
  8
FAB_2$_CUT_2
 10
-3417.614511643312
 20
242.5736458102586
 30
0.0
  0
VERTEX
  5
4F7
  8
FAB_2$_CUT_2
 10
-3419.632260381182
 20
244.4804025028413
 30
0.0
  0
VERTEX
  5
4F8
  8
FAB_2$_CUT_2
 10
-3421.67688499576
 20
246.3148122052536
 30
0.0
  0
VERTEX
  5
4F9
  8
FAB_2$_CUT_2
 10
-3423.747782642415
 20
248.0778021240739
 30
0.0
  0
VERTEX
  5
4FA
  8
FAB_2$_CUT_2
 10
-3425.844350476515
 20
249.7702994658805
 30
0.0
  0
VERTEX
  5
4FB
  8
FAB_2$_CUT_2
 10
-3427.965985653428
 20
251.3932314372519
 30
0.0
  0
VERTEX
  5
4FC
  8
FAB_2$_CUT_2
 10
-3430.112085328523
 20
252.9475252447663
 30
0.0
  0
VERTEX
  5
4FD
  8
FAB_2$_CUT_2
 10
-3432.282046657167
 20
254.4341080950022
 30
0.0
  0
VERTEX
  5
4FE
  8
FAB_2$_CUT_2
 10
-3434.475266794731
 20
255.8539071945378
 30
0.0
  0
VERTEX
  5
4FF
  8
FAB_2$_CUT_2
 10
-3436.691142896581
 20
257.2078497499516
 30
0.0
  0
VERTEX
  5
500
  8
FAB_2$_CUT_2
 10
-3438.929072118087
 20
258.4968629678219
 30
0.0
  0
VERTEX
  5
501
  8
FAB_2$_CUT_2
 10
-3441.188451614616
 20
259.7218740547272
 30
0.0
  0
VERTEX
  5
502
  8
FAB_2$_CUT_2
 10
-3443.468678541537
 20
260.8838102172456
 30
0.0
  0
VERTEX
  5
503
  8
FAB_2$_CUT_2
 10
-3445.769150054218
 20
261.9835986619556
 30
0.0
  0
VERTEX
  5
504
  8
FAB_2$_CUT_2
 10
-3448.089263308028
 20
263.0221665954356
 30
0.0
  0
VERTEX
  5
505
  8
FAB_2$_CUT_2
 10
-3450.428415458335
 20
264.000441224264
 30
0.0
  0
VERTEX
  5
506
  8
FAB_2$_CUT_2
 10
-3452.786003660508
 20
264.919349755019
 30
0.0
  0
VERTEX
  5
507
  8
FAB_2$_CUT_2
 10
-3455.161425069914
 20
265.7798193942791
 30
0.0
  0
VERTEX
  5
508
  8
FAB_2$_CUT_2
 10
-3457.554076841922
 20
266.5827773486225
 30
0.0
  0
VERTEX
  5
509
  8
FAB_2$_CUT_2
 10
-3459.963356131901
 20
267.3291508246277
 30
0.0
  0
VERTEX
  5
50A
  8
FAB_2$_CUT_2
 10
-3462.388660095218
 20
268.0198670288731
 30
0.0
  0
VERTEX
  5
50B
  8
FAB_2$_CUT_2
 10
-3464.829385887243
 20
268.655853167937
 30
0.0
  0
VERTEX
  5
50C
  8
FAB_2$_CUT_2
 10
-3467.284930663344
 20
269.2380364483977
 30
0.0
  0
VERTEX
  5
50D
  8
FAB_2$_CUT_2
 10
-3469.754691578888
 20
269.7673440768336
 30
0.0
  0
VERTEX
  5
50E
  8
FAB_2$_CUT_2
 10
-3472.238065789245
 20
270.2447032598232
 30
0.0
  0
VERTEX
  5
50F
  8
FAB_2$_CUT_2
 10
-3474.734450449783
 20
270.6710412039446
 30
0.0
  0
VERTEX
  5
510
  8
FAB_2$_CUT_2
 10
-3477.24324271587
 20
271.0472851157764
 30
0.0
  0
VERTEX
  5
511
  8
FAB_2$_CUT_2
 10
-3479.763839742875
 20
271.3743622018969
 30
0.0
  0
VERTEX
  5
512
  8
FAB_2$_CUT_2
 10
-3482.295638686165
 20
271.6531996688843
 30
0.0
  0
VERTEX
  5
513
  8
FAB_2$_CUT_2
 10
-3484.83803670111
 20
271.8847247233171
 30
0.0
  0
VERTEX
  5
514
  8
FAB_2$_CUT_2
 10
-3487.390430943076
 20
272.0698645717737
 30
0.0
  0
VERTEX
  5
515
  8
FAB_2$_CUT_2
 10
-3489.952218567435
 20
272.2095464208324
 30
0.0
  0
VERTEX
  5
516
  8
FAB_2$_CUT_2
 10
-3495.101562584798
 20
272.3562449470695
 30
0.0
  0
VERTEX
  5
517
  8
FAB_2$_CUT_2
 10
-3500.281245996145
 20
272.3322379546554
 30
0.0
  0
VERTEX
  5
518
  8
FAB_2$_CUT_2
 10
-3505.486446044424
 20
272.144943096217
 30
0.0
  0
VERTEX
  5
519
  8
FAB_2$_CUT_2
 10
-3510.712339972581
 20
271.8017780243811
 30
0.0
  0
VERTEX
  5
51A
  8
FAB_2$_CUT_2
 10
-3515.954105023563
 20
271.3101603917746
 30
0.0
  0
VERTEX
  5
51B
  8
FAB_2$_CUT_2
 10
-3521.206918440318
 20
270.6775078510245
 30
0.0
  0
VERTEX
  5
51C
  8
FAB_2$_CUT_2
 10
-3526.465957465792
 20
269.9112380547576
 30
0.0
  0
VERTEX
  5
51D
  8
FAB_2$_CUT_2
 10
-3531.726399342931
 20
269.0187686556009
 30
0.0
  0
VERTEX
  5
51E
  8
FAB_2$_CUT_2
 10
-3536.983421314685
 20
268.0075173061811
 30
0.0
  0
VERTEX
  5
51F
  8
FAB_2$_CUT_2
 10
-3542.232200623998
 20
266.8849016591253
 30
0.0
  0
VERTEX
  5
520
  8
FAB_2$_CUT_2
 10
-3547.467914513819
 20
265.6583393670602
 30
0.0
  0
VERTEX
  5
521
  8
FAB_2$_CUT_2
 10
-3557.88085500677
 20
262.92304545841
 30
0.0
  0
VERTEX
  5
522
  8
FAB_2$_CUT_2
 10
-3568.183660737112
 20
259.8609768012457
 30
0.0
  0
VERTEX
  5
523
  8
FAB_2$_CUT_2
 10
-3578.344036317943
 20
256.5219151443459
 30
0.0
  0
VERTEX
  5
524
  8
FAB_2$_CUT_2
 10
-3588.354833040442
 20
252.9174043475433
 30
0.0
  0
VERTEX
  5
525
  8
FAB_2$_CUT_2
 10
-3598.215188865307
 20
249.0494287984342
 30
0.0
  0
VERTEX
  5
526
  8
FAB_2$_CUT_2
 10
-3607.924241753237
 20
244.9199728846148
 30
0.0
  0
VERTEX
  5
527
  8
FAB_2$_CUT_2
 10
-3617.481129664931
 20
240.5310209936813
 30
0.0
  0
VERTEX
  5
528
  8
FAB_2$_CUT_2
 10
-3626.88499056109
 20
235.8845575132299
 30
0.0
  0
VERTEX
  5
529
  8
FAB_2$_CUT_2
 10
-3636.134962402411
 20
230.9825668308568
 30
0.0
  0
VERTEX
  5
52A
  8
FAB_2$_CUT_2
 10
-3645.230183149595
 20
225.8270333341583
 30
0.0
  0
VERTEX
  5
52B
  8
FAB_2$_CUT_2
 10
-3654.169790763339
 20
220.4199414107306
 30
0.0
  0
VERTEX
  5
52C
  8
FAB_2$_CUT_2
 10
-3662.952923204344
 20
214.7632754481699
 30
0.0
  0
VERTEX
  5
52D
  8
FAB_2$_CUT_2
 10
-3671.578718433308
 20
208.8590198340724
 30
0.0
  0
VERTEX
  5
52E
  8
FAB_2$_CUT_2
 10
-3680.046314410932
 20
202.7091589560343
 30
0.0
  0
VERTEX
  5
52F
  8
FAB_2$_CUT_2
 10
-3688.354849097913
 20
196.315677201652
 30
0.0
  0
VERTEX
  5
530
  8
FAB_2$_CUT_2
 10
-3696.503460454951
 20
189.6805589585215
 30
0.0
  0
VERTEX
  5
531
  8
FAB_2$_CUT_2
 10
-3704.491286442745
 20
182.8057886142391
 30
0.0
  0
VERTEX
  5
532
  8
FAB_2$_CUT_2
 10
-3712.317465021995
 20
175.6933505564011
 30
0.0
 42
0.4151988665981377
  0
VERTEX
  5
533
  8
FAB_2$_CUT_2
 10
-3712.618496592314
 20
171.2057644052919
 30
0.0
  0
VERTEX
  5
534
  8
FAB_2$_CUT_2
 10
-3702.013258285298
 20
158.9634267736146
 30
0.0
  0
VERTEX
  5
535
  8
FAB_2$_CUT_2
 10
-3701.499656309845
 20
158.3930264551362
 30
0.0
  0
VERTEX
  5
536
  8
FAB_2$_CUT_2
 10
-3700.973239460543
 20
157.8413743748774
 30
0.0
  0
VERTEX
  5
537
  8
FAB_2$_CUT_2
 10
-3700.704292698553
 20
157.5739435571029
 30
0.0
  0
VERTEX
  5
538
  8
FAB_2$_CUT_2
 10
-3700.431022906527
 20
157.3128373585103
 30
0.0
  0
VERTEX
  5
539
  8
FAB_2$_CUT_2
 10
-3700.153138023211
 20
157.0584973062379
 30
0.0
  0
VERTEX
  5
53A
  8
FAB_2$_CUT_2
 10
-3699.870670157772
 20
156.8109476231405
 30
0.0
  0
VERTEX
  5
53B
  8
FAB_2$_CUT_2
 10
-3699.58373246198
 20
156.5701082060019
 30
0.0
  0
VERTEX
  5
53C
  8
FAB_2$_CUT_2
 10
-3699.292438087606
 20
156.3358989516061
 30
0.0
  0
VERTEX
  5
53D
  8
FAB_2$_CUT_2
 10
-3698.996900186422
 20
156.108239756737
 30
0.0
  0
VERTEX
  5
53E
  8
FAB_2$_CUT_2
 10
-3698.6972319102
 20
155.8870505181786
 30
0.0
  0
VERTEX
  5
53F
  8
FAB_2$_CUT_2
 10
-3698.393546410709
 20
155.6722511327147
 30
0.0
  0
VERTEX
  5
540
  8
FAB_2$_CUT_2
 10
-3698.085956839722
 20
155.4637614971292
 30
0.0
  0
VERTEX
  5
541
  8
FAB_2$_CUT_2
 10
-3697.774576349009
 20
155.2615015082062
 30
0.0
  0
VERTEX
  5
542
  8
FAB_2$_CUT_2
 10
-3697.459518090342
 20
155.0653910627295
 30
0.0
  0
VERTEX
  5
543
  8
FAB_2$_CUT_2
 10
-3697.140895215492
 20
154.875350057483
 30
0.0
  0
VERTEX
  5
544
  8
FAB_2$_CUT_2
 10
-3696.818820876229
 20
154.6912983892508
 30
0.0
  0
VERTEX
  5
545
  8
FAB_2$_CUT_2
 10
-3696.493408224325
 20
154.5131559548166
 30
0.0
  0
VERTEX
  5
546
  8
FAB_2$_CUT_2
 10
-3696.164770411551
 20
154.3408426509644
 30
0.0
  0
VERTEX
  5
547
  8
FAB_2$_CUT_2
 10
-3695.498271910479
 20
154.0133830221418
 30
0.0
  0
VERTEX
  5
548
  8
FAB_2$_CUT_2
 10
-3695.160551166346
 20
153.8581236254005
 30
0.0
  0
VERTEX
  5
549
  8
FAB_2$_CUT_2
 10
-3694.819539712166
 20
153.7086557543444
 30
0.0
  0
VERTEX
  5
54A
  8
FAB_2$_CUT_2
 10
-3694.474832543449
 20
153.5651821137251
 30
0.0
  0
VERTEX
  5
54B
  8
FAB_2$_CUT_2
 10
-3694.126024655706
 20
153.4279054082942
 30
0.0
  0
VERTEX
  5
54C
  8
FAB_2$_CUT_2
 10
-3693.772711044445
 20
153.297028342803
 30
0.0
  0
VERTEX
  5
54D
  8
FAB_2$_CUT_2
 10
-3693.414486705177
 20
153.1727536220031
 30
0.0
  0
VERTEX
  5
54E
  8
FAB_2$_CUT_2
 10
-3693.050946633412
 20
153.055283950646
 30
0.0
  0
VERTEX
  5
54F
  8
FAB_2$_CUT_2
 10
-3692.681685824659
 20
152.9448220334832
 30
0.0
  0
VERTEX
  5
550
  8
FAB_2$_CUT_2
 10
-3692.306299274429
 20
152.8415705752662
 30
0.0
  0
VERTEX
  5
551
  8
FAB_2$_CUT_2
 10
-3691.92438197823
 20
152.7457322807464
 30
0.0
  0
VERTEX
  5
552
  8
FAB_2$_CUT_2
 10
-3691.535528931574
 20
152.6575098546754
 30
0.0
  0
VERTEX
  5
553
  8
FAB_2$_CUT_2
 10
-3691.139335129969
 20
152.5771060018048
 30
0.0
  0
VERTEX
  5
554
  8
FAB_2$_CUT_2
 10
-3690.735395568926
 20
152.5047234268859
 30
0.0
  0
VERTEX
  5
555
  8
FAB_2$_CUT_2
 10
-3690.323305243955
 20
152.4405648346703
 30
0.0
  0
VERTEX
  5
556
  8
FAB_2$_CUT_2
 10
-3689.902659150564
 20
152.3848329299094
 30
0.0
  0
VERTEX
  5
557
  8
FAB_2$_CUT_2
 10
-3689.473052284265
 20
152.3377304173548
 30
0.0
  0
VERTEX
  5
558
  8
FAB_2$_CUT_2
 10
-3689.034915708683
 20
152.299877107617
 30
0.0
  0
VERTEX
  5
559
  8
FAB_2$_CUT_2
 10
-3688.59202475991
 20
152.2735612347422
 30
0.0
  0
VERTEX
  5
55A
  8
FAB_2$_CUT_2
 10
-3688.370237459392
 20
152.2655752558488
 30
0.0
  0
VERTEX
  5
55B
  8
FAB_2$_CUT_2
 10
-3688.148990842154
 20
152.2614881386357
 30
0.0
  0
VERTEX
  5
55C
  8
FAB_2$_CUT_2
 10
-3687.928861333723
 20
152.2616380505909
 30
0.0
  0
VERTEX
  5
55D
  8
FAB_2$_CUT_2
 10
-3687.710425359625
 20
152.2663631592026
 30
0.0
  0
VERTEX
  5
55E
  8
FAB_2$_CUT_2
 10
-3687.494259345385
 20
152.276001631959
 30
0.0
  0
VERTEX
  5
55F
  8
FAB_2$_CUT_2
 10
-3687.28093971653
 20
152.2908916363482
 30
0.0
  0
VERTEX
  5
560
  8
FAB_2$_CUT_2
 10
-3687.071042898585
 20
152.3113713398585
 30
0.0
  0
VERTEX
  5
561
  8
FAB_2$_CUT_2
 10
-3686.865145317077
 20
152.3377789099778
 30
0.0
  0
VERTEX
  5
562
  8
FAB_2$_CUT_2
 10
-3686.763876372964
 20
152.353311322356
 30
0.0
  0
VERTEX
  5
563
  8
FAB_2$_CUT_2
 10
-3686.663823397532
 20
152.3704525141945
 30
0.0
  0
VERTEX
  5
564
  8
FAB_2$_CUT_2
 10
-3686.565058443972
 20
152.3892447564293
 30
0.0
  0
VERTEX
  5
565
  8
FAB_2$_CUT_2
 10
-3686.467653565475
 20
152.4097303199966
 30
0.0
  0
VERTEX
  5
566
  8
FAB_2$_CUT_2
 10
-3686.371680815233
 20
152.4319514758322
 30
0.0
  0
VERTEX
  5
567
  8
FAB_2$_CUT_2
 10
-3686.277212246434
 20
152.4559504948723
 30
0.0
  0
VERTEX
  5
568
  8
FAB_2$_CUT_2
 10
-3686.18431991227
 20
152.4817696480528
 30
0.0
  0
VERTEX
  5
569
  8
FAB_2$_CUT_2
 10
-3686.093075865933
 20
152.5094512063098
 30
0.0
  0
VERTEX
  5
56A
  8
FAB_2$_CUT_2
 10
-3686.003552160612
 20
152.5390374405792
 30
0.0
  0
VERTEX
  5
56B
  8
FAB_2$_CUT_2
 10
-3685.915820849499
 20
152.5705706217972
 30
0.0
  0
VERTEX
  5
56C
  8
FAB_2$_CUT_2
 10
-3685.829953985784
 20
152.6040930208997
 30
0.0
  0
VERTEX
  5
56D
  8
FAB_2$_CUT_2
 10
-3685.746023622658
 20
152.6396469088226
 30
0.0
  0
VERTEX
  5
56E
  8
FAB_2$_CUT_2
 10
-3685.664101813312
 20
152.6772745565022
 30
0.0
  0
VERTEX
  5
56F
  8
FAB_2$_CUT_2
 10
-3685.584260610936
 20
152.7170182348743
 30
0.0
  0
VERTEX
  5
570
  8
FAB_2$_CUT_2
 10
-3685.506572068722
 20
152.758920214875
 30
0.0
  0
VERTEX
  5
571
  8
FAB_2$_CUT_2
 10
-3685.468557561797
 20
152.7806937776537
 30
0.0
  0
VERTEX
  5
572
  8
FAB_2$_CUT_2
 10
-3685.431108239859
 20
152.8030227674404
 30
0.0
  0
VERTEX
  5
573
  8
FAB_2$_CUT_2
 10
-3685.394233109558
 20
152.8259124681023
 30
0.0
  0
VERTEX
  5
574
  8
FAB_2$_CUT_2
 10
-3685.35794117754
 20
152.8493681635063
 30
0.0
  0
VERTEX
  5
575
  8
FAB_2$_CUT_2
 10
-3685.322241450456
 20
152.8733951375196
 30
0.0
  0
VERTEX
  5
576
  8
FAB_2$_CUT_2
 10
-3685.287142934953
 20
152.8979986740089
 30
0.0
  0
VERTEX
  5
577
  8
FAB_2$_CUT_2
 10
-3685.252654637683
 20
152.9231840568415
 30
0.0
  0
VERTEX
  5
578
  8
FAB_2$_CUT_2
 10
-3685.218785565291
 20
152.9489565698842
 30
0.0
  0
VERTEX
  5
579
  8
FAB_2$_CUT_2
 10
-3685.185544724429
 20
152.9753214970041
 30
0.0
  0
VERTEX
  5
57A
  8
FAB_2$_CUT_2
 10
-3685.152941121744
 20
153.0022841220682
 30
0.0
  0
VERTEX
  5
57B
  8
FAB_2$_CUT_2
 10
-3685.120983763886
 20
153.0298497289434
 30
0.0
  0
VERTEX
  5
57C
  8
FAB_2$_CUT_2
 10
-3685.089681657503
 20
153.0580236014969
 30
0.0
  0
VERTEX
  5
57D
  8
FAB_2$_CUT_2
 10
-3685.059043809244
 20
153.0868110235955
 30
0.0
  0
VERTEX
  5
57E
  8
FAB_2$_CUT_2
 10
-3685.029079225758
 20
153.1162172791063
 30
0.0
  0
VERTEX
  5
57F
  8
FAB_2$_CUT_2
 10
-3684.999796913695
 20
153.1462476518963
 30
0.0
  0
VERTEX
  5
580
  8
FAB_2$_CUT_2
 10
-3684.971205879701
 20
153.1769074258325
 30
0.0
  0
VERTEX
  5
581
  8
FAB_2$_CUT_2
 10
-3684.943315130427
 20
153.2082018847819
 30
0.0
  0
VERTEX
  5
582
  8
FAB_2$_CUT_2
 10
-3684.916133672522
 20
153.2401363126114
 30
0.0
  0
VERTEX
  5
583
  8
FAB_2$_CUT_2
 10
-3684.889670512634
 20
153.2727159931882
 30
0.0
  0
VERTEX
  5
584
  8
FAB_2$_CUT_2
 10
-3684.863934657411
 20
153.3059462103791
 30
0.0
  0
VERTEX
  5
585
  8
FAB_2$_CUT_2
 10
-3684.838935113504
 20
153.3398322480513
 30
0.0
  0
VERTEX
  5
586
  8
FAB_2$_CUT_2
 10
-3684.814680887561
 20
153.3743793900716
 30
0.0
  0
VERTEX
  5
587
  8
FAB_2$_CUT_2
 10
-3684.79118098623
 20
153.4095929203072
 30
0.0
  0
VERTEX
  5
588
  8
FAB_2$_CUT_2
 10
-3684.76844441616
 20
153.445478122625
 30
0.0
  0
VERTEX
  5
589
  8
FAB_2$_CUT_2
 10
-3684.746480184001
 20
153.482040280892
 30
0.0
  0
VERTEX
  5
58A
  8
FAB_2$_CUT_2
 10
-3684.725297296401
 20
153.5192846789752
 30
0.0
  0
VERTEX
  5
58B
  8
FAB_2$_CUT_2
 10
-3684.704904760008
 20
153.5572166007416
 30
0.0
  0
VERTEX
  5
58C
  8
FAB_2$_CUT_2
 10
-3684.685311581473
 20
153.5958413300582
 30
0.0
  0
VERTEX
  5
58D
  8
FAB_2$_CUT_2
 10
-3684.666526767443
 20
153.6351641507921
 30
0.0
  0
VERTEX
  5
58E
  8
FAB_2$_CUT_2
 10
-3684.648559324568
 20
153.6751903468102
 30
0.0
  0
VERTEX
  5
58F
  8
FAB_2$_CUT_2
 10
-3684.631418259496
 20
153.7159252019795
 30
0.0
  0
VERTEX
  5
590
  8
FAB_2$_CUT_2
 10
-3684.615112578877
 20
153.757374000167
 30
0.0
  0
VERTEX
  5
591
  8
FAB_2$_CUT_2
 10
-3684.599651289358
 20
153.7995420252398
 30
0.0
  0
VERTEX
  5
592
  8
FAB_2$_CUT_2
 10
-3684.585043397588
 20
153.8424345610648
 30
0.0
  0
VERTEX
  5
593
  8
FAB_2$_CUT_2
 10
-3684.571297910218
 20
153.886056891509
 30
0.0
  0
VERTEX
  5
594
  8
FAB_2$_CUT_2
 10
-3684.558423833895
 20
153.9304143004395
 30
0.0
  0
VERTEX
  5
595
  8
FAB_2$_CUT_2
 10
-3684.546430175269
 20
153.9755120717232
 30
0.0
  0
VERTEX
  5
596
  8
FAB_2$_CUT_2
 10
-3684.535325940989
 20
154.0213554892272
 30
0.0
  0
VERTEX
  5
597
  8
FAB_2$_CUT_2
 10
-3684.525120137701
 20
154.0679498368184
 30
0.0
  0
VERTEX
  5
598
  8
FAB_2$_CUT_2
 10
-3684.515821772057
 20
154.1153003983638
 30
0.0
  0
VERTEX
  5
599
  8
FAB_2$_CUT_2
 10
-3684.507439850705
 20
154.1634124577305
 30
0.0
  0
VERTEX
  5
59A
  8
FAB_2$_CUT_2
 10
-3684.499983380294
 20
154.2122912987855
 30
0.0
  0
VERTEX
  5
59B
  8
FAB_2$_CUT_2
 10
-3684.493461367471
 20
154.2619422053957
 30
0.0
  0
VERTEX
  5
59C
  8
FAB_2$_CUT_2
 10
-3684.487882818888
 20
154.3123704614281
 30
0.0
  0
VERTEX
  5
59D
  8
FAB_2$_CUT_2
 10
-3684.48325674119
 20
154.3635813507499
 30
0.0
  0
VERTEX
  5
59E
  8
FAB_2$_CUT_2
 10
-3684.47959214103
 20
154.4155801572279
 30
0.0
  0
VERTEX
  5
59F
  8
FAB_2$_CUT_2
 10
-3684.476898025055
 20
154.4683721647291
 30
0.0
  0
VERTEX
  5
5A0
  8
FAB_2$_CUT_2
 10
-3684.475183399912
 20
154.5219626571206
 30
0.0
  0
VERTEX
  5
5A1
  8
FAB_2$_CUT_2
 10
-3684.474457272252
 20
154.5763569182694
 30
0.0
  0
VERTEX
  5
5A2
  8
FAB_2$_CUT_2
 10
-3684.474728648724
 20
154.6315602320425
 30
0.0
  0
VERTEX
  5
5A3
  8
FAB_2$_CUT_2
 10
-3700.438713040095
 20
172.8228830996593
 30
0.0
  0
VERTEX
  5
5A4
  8
FAB_2$_CUT_2
 10
-3691.172636591673
 20
180.9117547366643
 30
0.0
  0
SEQEND
  5
5A5
  8
FAB_2$_CUT_2
  0
POLYLINE
  5
5A6
  8
FAB_2$_CUT_2
 66
     1
 10
0.0
 20
0.0
 30
0.0
 70
     1
  0
VERTEX
  5
5A7
  8
FAB_2$_CUT_2
 10
-3645.507461512653
 20
676.0531791197086
 30
0.0
  0
VERTEX
  5
5A8
  8
FAB_2$_CUT_2
 10
-3721.405468436626
 20
676.0531791197084
 30
0.0
 42
0.4142135623731144
  0
VERTEX
  5
5A9
  8
FAB_2$_CUT_2
 10
-3736.405468436627
 20
661.0531791197088
 30
0.0
  0
VERTEX
  5
5AA
  8
FAB_2$_CUT_2
 10
-3736.405468436629
 20
392.0531791197095
 30
0.0
 42
0.4142135623731224
  0
VERTEX
  5
5AB
  8
FAB_2$_CUT_2
 10
-3721.405468436629
 20
377.0531791197086
 30
0.0
  0
VERTEX
  5
5AC
  8
FAB_2$_CUT_2
 10
-3645.507461512655
 20
377.0531791197086
 30
0.0
  0
VERTEX
  5
5AD
  8
FAB_2$_CUT_2
 10
-3361.905468436629
 20
377.0531791197049
 30
0.0
 42
0.4109611971135694
  0
VERTEX
  5
5AE
  8
FAB_2$_CUT_2
 10
-3346.905928260157
 20
391.8870785124876
 30
0.0
  0
VERTEX
  5
5AF
  8
FAB_2$_CUT_2
 10
-3346.905468436629
 20
494.5531791197022
 30
0.0
  0
VERTEX
  5
5B0
  8
FAB_2$_CUT_2
 10
-3356.905468436629
 20
494.5531791197022
 30
0.0
  0
VERTEX
  5
5B1
  8
FAB_2$_CUT_2
 10
-3356.905468436629
 20
498.5531791197022
 30
0.0
  0
VERTEX
  5
5B2
  8
FAB_2$_CUT_2
 10
-3346.905468436629
 20
498.5531791197022
 30
0.0
  0
VERTEX
  5
5B3
  8
FAB_2$_CUT_2
 10
-3346.905468436628
 20
526.5531791197022
 30
0.0
  0
VERTEX
  5
5B4
  8
FAB_2$_CUT_2
 10
-3356.905468436628
 20
526.5531791197022
 30
0.0
  0
VERTEX
  5
5B5
  8
FAB_2$_CUT_2
 10
-3356.905468436628
 20
530.5531791197022
 30
0.0
  0
VERTEX
  5
5B6
  8
FAB_2$_CUT_2
 10
-3346.905468436628
 20
530.5531791197022
 30
0.0
  0
VERTEX
  5
5B7
  8
FAB_2$_CUT_2
 10
-3346.905928263635
 20
661.2192800395601
 30
0.0
 42
0.4109611848800447
  0
VERTEX
  5
5B8
  8
FAB_2$_CUT_2
 10
-3361.905468436625
 20
676.0531791197035
 30
0.0
  0
SEQEND
  5
5B9
  8
FAB_2$_CUT_2
  0
CIRCLE
  5
5BA
  8
FAB_2$_CUT_2
 10
-3728.905468436629
 20
445.8531791197715
 30
0.0
 40
1.777999999999967
  0
CIRCLE
  5
5BB
  8
FAB_2$_CUT_2
 10
-3728.905468436627
 20
607.2531791197248
 30
0.0
 40
1.777999999999967
  0
CIRCLE
  5
5BC
  8
FAB_2$_CUT_2
 10
-3433.80546843669
 20
384.5531791197395
 30
0.0
 40
1.777999999999967
  0
CIRCLE
  5
5BD
  8
FAB_2$_CUT_2
 10
-3649.505468436538
 20
384.5531791197423
 30
0.0
 40
1.777999999999967
  0
CIRCLE
  5
5BE
  8
FAB_2$_CUT_2
 10
-3649.505468436535
 20
668.553179119674
 30
0.0
 40
1.777999999999967
  0
CIRCLE
  5
5BF
  8
FAB_2$_CUT_2
 10
-3433.805468436687
 20
668.5531791196713
 30
0.0
 40
1.777999999999967
  0
CIRCLE
  5
5C0
  8
FAB_2$_CUT_2
 10
-3354.405468436597
 20
607.2531791197202
 30
0.0
 40
1.777999999999967
  0
CIRCLE
  5
5C1
  8
FAB_2$_CUT_2
 10
-3354.405468436598
 20
445.853179119767
 30
0.0
 40
1.777999999999967
  0
POLYLINE
  5
5C2
  8
FAB_2$_CUT_2
 66
     1
 10
0.0
 20
0.0
 30
0.0
 70
     1
  0
VERTEX
  5
5C3
  8
FAB_2$_CUT_2
 10
-3545.090717619905
 20
729.0713423772945
 30
0.0
  0
VERTEX
  5
5C4
  8
FAB_2$_CUT_2
 10
-3545.090717619905
 20
719.0713423772945
 30
0.0
  0
VERTEX
  5
5C5
  8
FAB_2$_CUT_2
 10
-3414.424616700048
 20
719.0718022043027
 30
0.0
 42
0.4109611848798452
  0
VERTEX
  5
5C6
  8
FAB_2$_CUT_2
 10
-3399.590717619903
 20
734.0713423782465
 30
0.0
  0
VERTEX
  5
5C7
  8
FAB_2$_CUT_2
 10
-3403.807863795533
 20
734.0713423786639
 30
0.0
 42
-1.0
  0
VERTEX
  5
5C8
  8
FAB_2$_CUT_2
 10
-3410.37357144427
 20
734.0713423778301
 30
0.0
  0
VERTEX
  5
5C9
  8
FAB_2$_CUT_2
 10
-3606.590717619903
 20
734.0713423772959
 30
0.0
  0
VERTEX
  5
5CA
  8
FAB_2$_CUT_2
 10
-3606.590717619903
 20
719.071342377296
 30
0.0
  0
VERTEX
  5
5CB
  8
FAB_2$_CUT_2
 10
-3581.090717619905
 20
719.071342377296
 30
0.0
  0
VERTEX
  5
5CC
  8
FAB_2$_CUT_2
 10
-3581.090717619905
 20
729.0713423772959
 30
0.0
  0
VERTEX
  5
5CD
  8
FAB_2$_CUT_2
 10
-3577.090717619905
 20
729.0713423772959
 30
0.0
  0
VERTEX
  5
5CE
  8
FAB_2$_CUT_2
 10
-3577.090717619905
 20
719.071342377296
 30
0.0
  0
VERTEX
  5
5CF
  8
FAB_2$_CUT_2
 10
-3549.090717619905
 20
719.0713423772951
 30
0.0
  0
VERTEX
  5
5D0
  8
FAB_2$_CUT_2
 10
-3549.090717619905
 20
729.071342377295
 30
0.0
  0
SEQEND
  5
5D1
  8
FAB_2$_CUT_2
  0
POLYLINE
  5
5D2
  8
FAB_2$_CUT_2
 66
     1
 10
0.0
 20
0.0
 30
0.0
 70
     1
  0
VERTEX
  5
5D3
  8
FAB_2$_CUT_2
 10
-3532.089362260167
 20
903.0234359498359
 30
0.0
  0
VERTEX
  5
5D4
  8
FAB_2$_CUT_2
 10
-3532.089362260167
 20
893.0234359498359
 30
0.0
  0
VERTEX
  5
5D5
  8
FAB_2$_CUT_2
 10
-3401.589309475288
 20
893.0238951925035
 30
0.0
  0
VERTEX
  5
5D6
  8
FAB_2$_CUT_2
 10
-3401.589324314229
 20
897.240582125534
 30
0.0
 42
-0.9999999999998787
  0
VERTEX
  5
5D7
  8
FAB_2$_CUT_2
 10
-3401.589347419607
 20
903.8062897742298
 30
0.0
  0
VERTEX
  5
5D8
  8
FAB_2$_CUT_2
 10
-3401.589362260165
 20
908.023435949835
 30
0.0
  0
VERTEX
  5
5D9
  8
FAB_2$_CUT_2
 10
-3593.589362260164
 20
908.0234359498368
 30
0.0
  0
VERTEX
  5
5DA
  8
FAB_2$_CUT_2
 10
-3593.589362260165
 20
893.0234359498368
 30
0.0
  0
VERTEX
  5
5DB
  8
FAB_2$_CUT_2
 10
-3568.089362260167
 20
893.0234359498359
 30
0.0
  0
VERTEX
  5
5DC
  8
FAB_2$_CUT_2
 10
-3568.089362260167
 20
903.0234359498359
 30
0.0
  0
VERTEX
  5
5DD
  8
FAB_2$_CUT_2
 10
-3564.089362260167
 20
903.0234359498359
 30
0.0
  0
VERTEX
  5
5DE
  8
FAB_2$_CUT_2
 10
-3564.089362260167
 20
893.0234359498359
 30
0.0
  0
VERTEX
  5
5DF
  8
FAB_2$_CUT_2
 10
-3536.089362260167
 20
893.0234359498359
 30
0.0
  0
VERTEX
  5
5E0
  8
FAB_2$_CUT_2
 10
-3536.089362260167
 20
903.0234359498359
 30
0.0
  0
SEQEND
  5
5E1
  8
FAB_2$_CUT_2
  0
CIRCLE
  5
5E2
  8
FAB_2$_CUT_2
 10
-3589.058939342645
 20
805.7824695043096
 30
0.0
 40
1.778000000000086
  0
POLYLINE
  5
5E3
  8
FAB_2$_CUT_2
 66
     1
 10
0.0
 20
0.0
 30
0.0
 70
     1
  0
VERTEX
  5
5E4
  8
FAB_2$_CUT_2
 10
-3660.958939342707
 20
813.2824695043432
 30
0.0
 42
0.4109674686043019
  0
VERTEX
  5
5E5
  8
FAB_2$_CUT_2
 10
-3675.958249621508
 20
798.4485675657402
 30
0.0
  0
VERTEX
  5
5E6
  8
FAB_2$_CUT_2
 10
-3671.741132092688
 20
798.4018684153657
 30
0.0
 42
-1.000000000000052
  0
VERTEX
  5
5E7
  8
FAB_2$_CUT_2
 10
-3665.175826973859
 20
798.3291661088965
 30
0.0
  0
VERTEX
  5
5E8
  8
FAB_2$_CUT_2
 10
-3660.958939342707
 20
798.2824695043432
 30
0.0
  0
VERTEX
  5
5E9
  8
FAB_2$_CUT_2
 10
-3541.625606009373
 20
798.2824695043432
 30
0.0
  0
VERTEX
  5
5EA
  8
FAB_2$_CUT_2
 10
-3541.625606009329
 20
802.4996156799739
 30
0.0
 42
0.9999999999997923
  0
VERTEX
  5
5EB
  8
FAB_2$_CUT_2
 10
-3541.625606009261
 20
809.0653233287117
 30
0.0
  0
VERTEX
  5
5EC
  8
FAB_2$_CUT_2
 10
-3541.625606009217
 20
813.2824695043432
 30
0.0
  0
SEQEND
  5
5ED
  8
FAB_2$_CUT_2
  0
POLYLINE
  5
5EE
  8
FAB_2$_CUT_2
 66
     1
 10
0.0
 20
0.0
 30
0.0
 70
     1
  0
VERTEX
  5
5EF
  8
FAB_2$_CUT_2
 10
-3468.566723475961
 20
797.5244954371533
 30
0.0
  0
VERTEX
  5
5F0
  8
FAB_2$_CUT_2
 10
-3411.793285068968
 20
797.5244954371528
 30
0.0
 42
0.4142135623730992
  0
VERTEX
  5
5F1
  8
FAB_2$_CUT_2
 10
-3396.793285068967
 20
812.5244954371533
 30
0.0
  0
VERTEX
  5
5F2
  8
FAB_2$_CUT_2
 10
-3401.010431244599
 20
812.5244954371533
 30
0.0
 42
-1.000000000000069
  0
VERTEX
  5
5F3
  8
FAB_2$_CUT_2
 10
-3407.576138893337
 20
812.5244954371533
 30
0.0
  0
VERTEX
  5
5F4
  8
FAB_2$_CUT_2
 10
-3411.793285068968
 20
812.5244954371533
 30
0.0
  0
VERTEX
  5
5F5
  8
FAB_2$_CUT_2
 10
-3532.626618402301
 20
812.5244954371533
 30
0.0
  0
VERTEX
  5
5F6
  8
FAB_2$_CUT_2
 10
-3532.626618402257
 20
808.3073492615217
 30
0.0
 42
-0.9999999999998613
  0
VERTEX
  5
5F7
  8
FAB_2$_CUT_2
 10
-3532.626618402189
 20
801.7416416127849
 30
0.0
  0
VERTEX
  5
5F8
  8
FAB_2$_CUT_2
 10
-3532.626618402145
 20
797.5244954371533
 30
0.0
  0
SEQEND
  5
5F9
  8
FAB_2$_CUT_2
  0
CIRCLE
  5
5FA
  8
FAB_2$_CUT_2
 10
-3483.693285069059
 20
805.0244954371869
 30
0.0
 40
1.777999999999747
  0
POLYLINE
  5
5FB
  8
FAB_2$_CUT_2
 66
     1
 10
0.0
 20
0.0
 30
0.0
 70
     1
  0
VERTEX
  5
5FC
  8
FAB_2$_CUT_2
 10
-3435.054419391303
 20
777.6467699043374
 30
0.0
  0
VERTEX
  5
5FD
  8
FAB_2$_CUT_2
 10
-3435.054419391347
 20
781.8639160799678
 30
0.0
 42
0.9999999999995671
  0
VERTEX
  5
5FE
  8
FAB_2$_CUT_2
 10
-3435.054419391415
 20
788.4296237287067
 30
0.0
  0
VERTEX
  5
5FF
  8
FAB_2$_CUT_2
 10
-3435.054419391457
 20
792.6467699043374
 30
0.0
  0
VERTEX
  5
600
  8
FAB_2$_CUT_2
 10
-3673.721086058124
 20
792.6467699043374
 30
0.0
  0
VERTEX
  5
601
  8
FAB_2$_CUT_2
 10
-3673.72108605759
 20
788.4296237287067
 30
0.0
 42
0.9999999999995846
  0
VERTEX
  5
602
  8
FAB_2$_CUT_2
 10
-3673.721086056757
 20
781.8639160799689
 30
0.0
  0
VERTEX
  5
603
  8
FAB_2$_CUT_2
 10
-3673.721086057173
 20
777.6467699043383
 30
0.0
  0
SEQEND
  5
604
  8
FAB_2$_CUT_2
  0
CIRCLE
  5
605
  8
FAB_2$_CUT_2
 10
-3601.821086058065
 20
785.1467699043719
 30
0.0
 40
1.777999999999883
  0
POLYLINE
  5
606
  8
FAB_2$_CUT_2
 66
     1
 10
0.0
 20
0.0
 30
0.0
 70
     1
  0
VERTEX
  5
607
  8
FAB_2$_CUT_2
 10
-3653.7002444694
 20
774.5703396618314
 30
0.0
  0
VERTEX
  5
608
  8
FAB_2$_CUT_2
 10
-3653.700244469444
 20
770.3531934861999
 30
0.0
 42
-0.9999999999999306
  0
VERTEX
  5
609
  8
FAB_2$_CUT_2
 10
-3653.700244469513
 20
763.7874858374612
 30
0.0
  0
VERTEX
  5
60A
  8
FAB_2$_CUT_2
 10
-3653.700244469556
 20
759.5703396618314
 30
0.0
  0
VERTEX
  5
60B
  8
FAB_2$_CUT_2
 10
-3413.533577802889
 20
759.5703396618305
 30
0.0
  0
VERTEX
  5
60C
  8
FAB_2$_CUT_2
 10
-3413.533577803032
 20
763.787485837461
 30
0.0
 42
0.9999999999998439
  0
VERTEX
  5
60D
  8
FAB_2$_CUT_2
 10
-3413.533577803254
 20
770.353193486199
 30
0.0
  0
VERTEX
  5
60E
  8
FAB_2$_CUT_2
 10
-3413.533577803143
 20
774.5703396618305
 30
0.0
  0
SEQEND
  5
60F
  8
FAB_2$_CUT_2
  0
CIRCLE
  5
610
  8
FAB_2$_CUT_2
 10
-3485.433577802981
 20
767.0703396617969
 30
0.0
 40
1.777999999999973
  0
CIRCLE
  5
611
  8
FAB_2$_CUT_2
 10
-3450.461251425983
 20
746.7940204628335
 30
0.0
 40
1.778000000000652
  0
CIRCLE
  5
612
  8
FAB_2$_CUT_2
 10
-3611.861251425937
 20
746.7940204628353
 30
0.0
 40
1.778000000000154
  0
POLYLINE
  5
613
  8
FAB_2$_CUT_2
 66
     1
 10
0.0
 20
0.0
 30
0.0
 70
     1
  0
VERTEX
  5
614
  8
FAB_2$_CUT_2
 10
-3665.661251425999
 20
754.2940204628353
 30
0.0
 42
0.4142135623731225
  0
VERTEX
  5
615
  8
FAB_2$_CUT_2
 10
-3680.661251425998
 20
739.2940204625825
 30
0.0
  0
VERTEX
  5
616
  8
FAB_2$_CUT_2
 10
-3676.44410525037
 20
739.2940204624715
 30
0.0
 42
-0.9999999999997401
  0
VERTEX
  5
617
  8
FAB_2$_CUT_2
 10
-3669.87839760163
 20
739.2940204626934
 30
0.0
  0
VERTEX
  5
618
  8
FAB_2$_CUT_2
 10
-3665.661251425999
 20
739.2940204628353
 30
0.0
  0
VERTEX
  5
619
  8
FAB_2$_CUT_2
 10
-3396.661251425999
 20
739.2940204628335
 30
0.0
  0
VERTEX
  5
61A
  8
FAB_2$_CUT_2
 10
-3396.661251425999
 20
743.5111666384641
 30
0.0
 42
0.9999999999999999
  0
VERTEX
  5
61B
  8
FAB_2$_CUT_2
 10
-3396.661251425999
 20
750.076874287201
 30
0.0
  0
VERTEX
  5
61C
  8
FAB_2$_CUT_2
 10
-3396.661251425999
 20
754.2940204628335
 30
0.0
  0
SEQEND
  5
61D
  8
FAB_2$_CUT_2
  0
CIRCLE
  5
61E
  8
FAB_2$_CUT_2
 10
-3629.790717619841
 20
726.5713423772645
 30
0.0
 40
1.778000000000188
  0
POLYLINE
  5
61F
  8
FAB_2$_CUT_2
 66
     1
 10
0.0
 20
0.0
 30
0.0
 70
     1
  0
VERTEX
  5
620
  8
FAB_2$_CUT_2
 10
-3618.190717619903
 20
734.0713423772954
 30
0.0
  0
VERTEX
  5
621
  8
FAB_2$_CUT_2
 10
-3683.590717619903
 20
734.0713423772954
 30
0.0
  0
VERTEX
  5
622
  8
FAB_2$_CUT_2
 10
-3683.637414224456
 20
729.8544547461438
 30
0.0
 42
1.000000000000018
  0
VERTEX
  5
623
  8
FAB_2$_CUT_2
 10
-3683.710116530925
 20
723.2891496273139
 30
0.0
  0
VERTEX
  5
624
  8
FAB_2$_CUT_2
 10
-3683.756815681299
 20
719.0720320984933
 30
0.0
  0
VERTEX
  5
625
  8
FAB_2$_CUT_2
 10
-3618.190717619903
 20
719.0713423772954
 30
0.0
  0
SEQEND
  5
626
  8
FAB_2$_CUT_2
  0
CIRCLE
  5
627
  8
FAB_2$_CUT_2
 10
-3468.390717619887
 20
726.5713423772636
 30
0.0
 40
1.778000000000177
  0
POLYLINE
  5
628
  8
FAB_2$_CUT_2
 66
     1
 10
0.0
 20
0.0
 30
0.0
 70
     1
  0
VERTEX
  5
629
  8
FAB_2$_CUT_2
 10
-3506.489867678563
 20
873.3980588389691
 30
0.0
  0
VERTEX
  5
62A
  8
FAB_2$_CUT_2
 10
-3449.716429271575
 20
873.3980588389691
 30
0.0
  0
VERTEX
  5
62B
  8
FAB_2$_CUT_2
 10
-3449.716429271687
 20
877.6152050146
 30
0.0
 42
-1.000000000000086
  0
VERTEX
  5
62C
  8
FAB_2$_CUT_2
 10
-3449.716429271619
 20
884.1809126633375
 30
0.0
  0
VERTEX
  5
62D
  8
FAB_2$_CUT_2
 10
-3449.716429271575
 20
888.3980588389691
 30
0.0
  0
VERTEX
  5
62E
  8
FAB_2$_CUT_2
 10
-3689.883095938241
 20
888.39805883897
 30
0.0
  0
VERTEX
  5
62F
  8
FAB_2$_CUT_2
 10
-3689.883095938198
 20
884.1809126633382
 30
0.0
 42
-1.000000000000485
  0
VERTEX
  5
630
  8
FAB_2$_CUT_2
 10
-3689.88309593813
 20
877.6152050146013
 30
0.0
  0
VERTEX
  5
631
  8
FAB_2$_CUT_2
 10
-3689.883095938087
 20
873.39805883897
 30
0.0
  0
SEQEND
  5
632
  8
FAB_2$_CUT_2
  0
CIRCLE
  5
633
  8
FAB_2$_CUT_2
 10
-3521.616429271668
 20
880.8980588390027
 30
0.0
 40
1.777999999999204
  0
POLYLINE
  5
634
  8
FAB_2$_CUT_2
 66
     1
 10
0.0
 20
0.0
 30
0.0
 70
     1
  0
VERTEX
  5
635
  8
FAB_2$_CUT_2
 10
-3464.722842064469
 20
853.39532312851
 30
0.0
  0
VERTEX
  5
636
  8
FAB_2$_CUT_2
 10
-3407.94940365748
 20
853.39532312851
 30
0.0
  0
VERTEX
  5
637
  8
FAB_2$_CUT_2
 10
-3403.732257481848
 20
853.3953231284654
 30
0.0
 42
1.000000000000208
  0
VERTEX
  5
638
  8
FAB_2$_CUT_2
 10
-3397.166549833111
 20
853.3953231283972
 30
0.0
  0
VERTEX
  5
639
  8
FAB_2$_CUT_2
 10
-3392.94940365748
 20
853.3953231283535
 30
0.0
 42
0.4142135623761375
  0
VERTEX
  5
63A
  8
FAB_2$_CUT_2
 10
-3407.94940365748
 20
868.3953231285097
 30
0.0
  0
VERTEX
  5
63B
  8
FAB_2$_CUT_2
 10
-3528.78273699066
 20
868.39532312851
 30
0.0
  0
VERTEX
  5
63C
  8
FAB_2$_CUT_2
 10
-3528.782736990701
 20
864.1781769528786
 30
0.0
 42
-0.9999999999999826
  0
VERTEX
  5
63D
  8
FAB_2$_CUT_2
 10
-3528.782736990769
 20
857.6124693041406
 30
0.0
  0
VERTEX
  5
63E
  8
FAB_2$_CUT_2
 10
-3528.782736990813
 20
853.39532312851
 30
0.0
  0
SEQEND
  5
63F
  8
FAB_2$_CUT_2
  0
CIRCLE
  5
640
  8
FAB_2$_CUT_2
 10
-3479.849403657572
 20
860.8953231284763
 30
0.0
 40
1.777999999999657
  0
POLYLINE
  5
641
  8
FAB_2$_CUT_2
 66
     1
 10
0.0
 20
0.0
 30
0.0
 70
     1
  0
VERTEX
  5
642
  8
FAB_2$_CUT_2
 10
-3654.292513383571
 20
831.2690955279554
 30
0.0
  0
VERTEX
  5
643
  8
FAB_2$_CUT_2
 10
-3385.292513383572
 20
831.2690955279509
 30
0.0
  0
VERTEX
  5
644
  8
FAB_2$_CUT_2
 10
-3385.292513383683
 20
835.4862417035818
 30
0.0
 42
-0.9999999999999482
  0
VERTEX
  5
645
  8
FAB_2$_CUT_2
 10
-3385.292513383614
 20
842.0519493523202
 30
0.0
  0
VERTEX
  5
646
  8
FAB_2$_CUT_2
 10
-3385.292513383571
 20
846.2690955279509
 30
0.0
  0
VERTEX
  5
647
  8
FAB_2$_CUT_2
 10
-3654.292513383571
 20
846.2690955279554
 30
0.0
  0
VERTEX
  5
648
  8
FAB_2$_CUT_2
 10
-3658.509659559202
 20
846.2690955279991
 30
0.0
 42
0.9999999999997401
  0
VERTEX
  5
649
  8
FAB_2$_CUT_2
 10
-3665.07536720794
 20
846.2690955280682
 30
0.0
  0
VERTEX
  5
64A
  8
FAB_2$_CUT_2
 10
-3669.292513383571
 20
846.2690955281118
 30
0.0
 42
0.4142135623761491
  0
SEQEND
  5
64B
  8
FAB_2$_CUT_2
  0
CIRCLE
  5
64C
  8
FAB_2$_CUT_2
 10
-3439.092513383634
 20
838.7690955279518
 30
0.0
 40
1.777999999999792
  0
CIRCLE
  5
64D
  8
FAB_2$_CUT_2
 10
-3600.492513383586
 20
838.7690955279545
 30
0.0
 40
1.777999999999792
  0
CIRCLE
  5
64E
  8
FAB_2$_CUT_2
 10
-3606.911303125878
 20
859.1550489033475
 30
0.0
 40
1.777999999999294
  0
POLYLINE
  5
64F
  8
FAB_2$_CUT_2
 66
     1
 10
0.0
 20
0.0
 30
0.0
 70
     1
  0
VERTEX
  5
650
  8
FAB_2$_CUT_2
 10
-3678.81130312594
 20
851.6550489033157
 30
0.0
  0
VERTEX
  5
651
  8
FAB_2$_CUT_2
 10
-3559.47796979245
 20
851.6550489033148
 30
0.0
  0
VERTEX
  5
652
  8
FAB_2$_CUT_2
 10
-3559.477969792495
 20
855.8721950789457
 30
0.0
 42
1.000000000000052
  0
VERTEX
  5
653
  8
FAB_2$_CUT_2
 10
-3559.477969792562
 20
862.4379027276827
 30
0.0
  0
VERTEX
  5
654
  8
FAB_2$_CUT_2
 10
-3559.477969792606
 20
866.6550489033139
 30
0.0
  0
VERTEX
  5
655
  8
FAB_2$_CUT_2
 10
-3678.81130312594
 20
866.6550489033139
 30
0.0
  0
VERTEX
  5
656
  8
FAB_2$_CUT_2
 10
-3683.028449301543
 20
866.6550340627577
 30
0.0
 42
0.9999999999998613
  0
VERTEX
  5
657
  8
FAB_2$_CUT_2
 10
-3689.594156950242
 20
866.6550109573795
 30
0.0
  0
VERTEX
  5
658
  8
FAB_2$_CUT_2
 10
-3693.810843883271
 20
866.6549961184387
 30
0.0
  0
VERTEX
  5
659
  8
FAB_2$_CUT_2
 10
-3693.810843298932
 20
866.4889479834596
 30
0.0
 42
0.4109611848800182
  0
SEQEND
  5
65A
  8
FAB_2$_CUT_2
  0
CIRCLE
  5
65B
  8
FAB_2$_CUT_2
 10
-3455.38936226015
 20
900.5234359498058
 30
0.0
 40
1.777999999999702
  0
CIRCLE
  5
65C
  8
FAB_2$_CUT_2
 10
-3616.789362260102
 20
900.5234359498049
 30
0.0
 40
1.778000000000244
  0
POLYLINE
  5
65D
  8
FAB_2$_CUT_2
 66
     1
 10
0.0
 20
0.0
 30
0.0
 70
     1
  0
VERTEX
  5
65E
  8
FAB_2$_CUT_2
 10
-3670.589362260165
 20
908.0234359498368
 30
0.0
  0
VERTEX
  5
65F
  8
FAB_2$_CUT_2
 10
-3674.806508435795
 20
908.0234359498804
 30
0.0
 42
1.000000000000017
  0
VERTEX
  5
660
  8
FAB_2$_CUT_2
 10
-3681.372216084534
 20
908.0234359499486
 30
0.0
  0
VERTEX
  5
661
  8
FAB_2$_CUT_2
 10
-3685.589362260165
 20
908.0234359499923
 30
0.0
 42
0.4109611971165244
  0
VERTEX
  5
662
  8
FAB_2$_CUT_2
 10
-3670.755462867382
 20
893.0238957733654
 30
0.0
  0
VERTEX
  5
663
  8
FAB_2$_CUT_2
 10
-3605.189362260165
 20
893.0234359498368
 30
0.0
  0
VERTEX
  5
664
  8
FAB_2$_CUT_2
 10
-3605.189362260164
 20
908.0234359498368
 30
0.0
  0
SEQEND
  5
665
  8
FAB_2$_CUT_2
  0
POLYLINE
  5
666
  8
FAB_2$_CUT_2
 66
     1
 10
0.0
 20
0.0
 30
0.0
 70
     1
  0
VERTEX
  5
667
  8
FAB_2$_CUT_2
 10
-3456.391190840752
 20
916.0625643487751
 30
0.0
  0
VERTEX
  5
668
  8
FAB_2$_CUT_2
 10
-3456.391190840708
 20
920.2797105244058
 30
0.0
 42
0.9999999999995153
  0
VERTEX
  5
669
  8
FAB_2$_CUT_2
 10
-3456.391190840639
 20
926.8454181731445
 30
0.0
  0
VERTEX
  5
66A
  8
FAB_2$_CUT_2
 10
-3456.391190840595
 20
931.0625643487751
 30
0.0
  0
VERTEX
  5
66B
  8
FAB_2$_CUT_2
 10
-3695.057857507419
 20
931.062564348776
 30
0.0
  0
VERTEX
  5
66C
  8
FAB_2$_CUT_2
 10
-3695.057857507307
 20
926.8454181731456
 30
0.0
 42
-1.000000000000121
  0
VERTEX
  5
66D
  8
FAB_2$_CUT_2
 10
-3695.057857507374
 20
920.2797105244076
 30
0.0
  0
VERTEX
  5
66E
  8
FAB_2$_CUT_2
 10
-3695.057857507419
 20
916.062564348776
 30
0.0
  0
SEQEND
  5
66F
  8
FAB_2$_CUT_2
  0
CIRCLE
  5
670
  8
FAB_2$_CUT_2
 10
-3623.157857507358
 20
923.5625643487415
 30
0.0
 40
1.778000000000199
  0
CIRCLE
  5
671
  8
FAB_2$_CUT_2
 10
-3371.405379760654
 20
730.1233297387093
 30
0.0
 40
7.5
  0
POLYLINE
  5
672
  8
FAB_2$_CUT_2
 66
     1
 10
0.0
 20
0.0
 30
0.0
  0
VERTEX
  5
673
  8
FAB_2$_CUT_2
 10
-3691.405419767775
 20
938.8493709858626
 30
0.0
  0
VERTEX
  5
674
  8
FAB_2$_CUT_2
 10
-3555.905419767776
 20
938.849370985859
 30
0.0
 42
-0.9999999999999696
  0
VERTEX
  5
675
  8
FAB_2$_CUT_2
 10
-3525.905419767776
 20
938.8493709858583
 30
0.0
  0
VERTEX
  5
676
  8
FAB_2$_CUT_2
 10
-3391.905419767775
 20
938.8493709858553
 30
0.0
  0
SEQEND
  5
677
  8
FAB_2$_CUT_2
  0
POLYLINE
  5
678
  8
FAB_2$_CUT_2
 66
     1
 10
0.0
 20
0.0
 30
0.0
  0
VERTEX
  5
679
  8
FAB_2$_CUT_2
 10
-3391.905419767781
 20
713.8493709858553
 30
0.0
  0
VERTEX
  5
67A
  8
FAB_2$_CUT_2
 10
-3525.90541976778
 20
713.849370985859
 30
0.0
 42
-1.000000000000064
  0
VERTEX
  5
67B
  8
FAB_2$_CUT_2
 10
-3555.90541976778
 20
713.8493709858599
 30
0.0
  0
VERTEX
  5
67C
  8
FAB_2$_CUT_2
 10
-3659.157679554339
 20
713.8493709858617
 30
0.0
  0
SEQEND
  5
67D
  8
FAB_2$_CUT_2
  0
LINE
  5
67E
  8
FAB_2$_CUT_2
 10
-3701.40541976778
 20
723.8493709858626
 30
0.0
 11
-3701.405419767775
 21
928.8493709858626
 31
0.0
  0
ARC
  5
67F
  8
FAB_2$_CUT_2
 10
-3691.40541976778
 20
723.8493709858626
 30
0.0
 40
10.00000000000023
 50
180.0
 51
270.0
  0
LINE
  5
680
  8
FAB_2$_CUT_2
 10
-3659.157679554339
 20
713.8493709858617
 30
0.0
 11
-3691.405419767781
 21
713.8493709858626
 31
0.0
  0
LINE
  5
681
  8
FAB_2$_CUT_2
 10
-3381.905419767775
 20
928.8493709858553
 30
0.0
 11
-3381.90541976778
 21
723.8493709858553
 31
0.0
  0
ARC
  5
682
  8
FAB_2$_CUT_2
 10
-3391.905419767775
 20
928.8493709858544
 30
0.0
 40
10.00000000000057
 50
0.0000000000019541
 51
89.99999999999739
  0
POLYLINE
  5
683
  8
FAB_2$_CUT_2
 66
     1
 10
0.0
 20
0.0
 30
0.0
 70
     1
  0
VERTEX
  5
684
  8
FAB_2$_CUT_2
 10
-3659.157679554332
 20
975.8493709858617
 30
0.0
  0
VERTEX
  5
685
  8
FAB_2$_CUT_2
 10
-3721.405419767774
 20
975.8493709858625
 30
0.0
 42
0.4142135623731253
  0
VERTEX
  5
686
  8
FAB_2$_CUT_2
 10
-3736.405419767774
 20
960.8493709858634
 30
0.0
  0
VERTEX
  5
687
  8
FAB_2$_CUT_2
 10
-3736.405419767781
 20
691.8493709858635
 30
0.0
 42
0.4142135623731169
  0
VERTEX
  5
688
  8
FAB_2$_CUT_2
 10
-3721.405419767782
 20
676.8493709858631
 30
0.0
  0
VERTEX
  5
689
  8
FAB_2$_CUT_2
 10
-3659.15767955434
 20
676.8493709858617
 30
0.0
  0
VERTEX
  5
68A
  8
FAB_2$_CUT_2
 10
-3361.905419767781
 20
676.8493709858544
 30
0.0
 42
0.4109611971135764
  0
VERTEX
  5
68B
  8
FAB_2$_CUT_2
 10
-3346.905879591307
 20
691.6832703786368
 30
0.0
  0
VERTEX
  5
68C
  8
FAB_2$_CUT_2
 10
-3346.905419767779
 20
794.3493709858517
 30
0.0
  0
VERTEX
  5
68D
  8
FAB_2$_CUT_2
 10
-3356.905419767779
 20
794.3493709858517
 30
0.0
  0
VERTEX
  5
68E
  8
FAB_2$_CUT_2
 10
-3356.905419767779
 20
798.3493709858517
 30
0.0
  0
VERTEX
  5
68F
  8
FAB_2$_CUT_2
 10
-3346.905419767779
 20
798.3493709858517
 30
0.0
  0
VERTEX
  5
690
  8
FAB_2$_CUT_2
 10
-3346.905419767778
 20
826.3493709858517
 30
0.0
  0
VERTEX
  5
691
  8
FAB_2$_CUT_2
 10
-3356.905419767778
 20
826.3493709858517
 30
0.0
  0
VERTEX
  5
692
  8
FAB_2$_CUT_2
 10
-3356.905419767778
 20
830.3493709858517
 30
0.0
  0
VERTEX
  5
693
  8
FAB_2$_CUT_2
 10
-3346.905419767778
 20
830.3493709858517
 30
0.0
  0
VERTEX
  5
694
  8
FAB_2$_CUT_2
 10
-3346.905879594783
 20
961.0154719057095
 30
0.0
 42
0.4109611848800472
  0
VERTEX
  5
695
  8
FAB_2$_CUT_2
 10
-3361.905419767774
 20
975.8493709858537
 30
0.0
  0
SEQEND
  5
696
  8
FAB_2$_CUT_2
  0
CIRCLE
  5
697
  8
FAB_2$_CUT_2
 10
-3728.905419767779
 20
745.6493709859255
 30
0.0
 40
1.777999999999967
  0
CIRCLE
  5
698
  8
FAB_2$_CUT_2
 10
-3728.905419767776
 20
907.0493709858788
 30
0.0
 40
1.777999999999967
  0
CIRCLE
  5
699
  8
FAB_2$_CUT_2
 10
-3433.805419767841
 20
684.3493709858908
 30
0.0
 40
1.777999999999967
  0
CIRCLE
  5
69A
  8
FAB_2$_CUT_2
 10
-3649.505419767688
 20
684.3493709858953
 30
0.0
 40
1.777999999999967
  0
CIRCLE
  5
69B
  8
FAB_2$_CUT_2
 10
-3649.505419767683
 20
968.3493709858271
 30
0.0
 40
1.777999999999967
  0
CIRCLE
  5
69C
  8
FAB_2$_CUT_2
 10
-3433.805419767835
 20
968.3493709858226
 30
0.0
 40
1.777999999999967
  0
CIRCLE
  5
69D
  8
FAB_2$_CUT_2
 10
-3354.405419767745
 20
907.0493709858697
 30
0.0
 40
1.777999999999967
  0
CIRCLE
  5
69E
  8
FAB_2$_CUT_2
 10
-3354.405419767749
 20
745.6493709859164
 30
0.0
 40
1.777999999999967
  0
ARC
  5
69F
  8
FAB_2$_CUT_2
 10
-3691.405419767775
 20
928.8493709858617
 30
0.0
 40
10.0
 50
89.99999999999739
 51
179.999999999998
  0
ARC
  5
6A0
  8
FAB_2$_CUT_2
 10
-3391.905419767779
 20
723.8493709858544
 30
0.0
 40
9.99999999999909
 50
269.9999999999948
 51
0.0000000000026055
  0
ENDSEC
  0
EOF
