  0
SECTION
  2
HEADER
  9
$ACADVER
  1
AC1009
  9
$DWGCODEPAGE
  3
mac-roman
  9
$INSBASE
 10
0.0
 20
0.0
 30
0.0
  9
$EXTMIN
 10
-6362.123340124623
 20
620.6892349996133
 30
0.0
  9
$EXTMAX
 10
-6198.506366852804
 20
996.1671150767003
 30
0.0
  9
$LIMMIN
 10
0.0
 20
0.0
  9
$LIMMAX
 10
12.0
 20
9.0
  9
$ORTHOMODE
 70
     0
  9
$REGENMODE
 70
     1
  9
$FILLMODE
 70
     1
  9
$QTEXTMODE
 70
     0
  9
$MIRRTEXT
 70
     1
  9
$DRAGMODE
 70
     2
  9
$LTSCALE
 40
1.0
  9
$OSMODE
 70
    37
  9
$ATTMODE
 70
     1
  9
$TEXTSIZE
 40
0.2
  9
$TRACEWID
 40
0.05
  9
$TEXTSTYLE
  7
STANDARD
  9
$CLAYER
  8
0
  9
$CELTYPE
  6
BYLAYER
  9
$CECOLOR
 62
   256
  9
$DIMSCALE
 40
1.0
  9
$DIMASZ
 40
0.18
  9
$DIMEXO
 40
0.0625
  9
$DIMDLI
 40
0.38
  9
$DIMRND
 40
0.0
  9
$DIMDLE
 40
0.0
  9
$DIMEXE
 40
0.18
  9
$DIMTP
 40
0.0
  9
$DIMTM
 40
0.0
  9
$DIMTXT
 40
0.18
  9
$DIMCEN
 40
0.09
  9
$DIMTSZ
 40
0.0
  9
$DIMTOL
 70
     0
  9
$DIMLIM
 70
     0
  9
$DIMTIH
 70
     1
  9
$DIMTOH
 70
     1
  9
$DIMSE1
 70
     0
  9
$DIMSE2
 70
     0
  9
$DIMTAD
 70
     0
  9
$DIMZIN
 70
     0
  9
$DIMBLK
  1

  9
$DIMASO
 70
     1
  9
$DIMSHO
 70
     1
  9
$DIMPOST
  1

  9
$DIMAPOST
  1

  9
$DIMALT
 70
     0
  9
$DIMALTD
 70
     2
  9
$DIMALTF
 40
25.4
  9
$DIMLFAC
 40
1.0
  9
$DIMTOFL
 70
     0
  9
$DIMTVP
 40
0.0
  9
$DIMTIX
 70
     0
  9
$DIMSOXD
 70
     0
  9
$DIMSAH
 70
     0
  9
$DIMBLK1
  1

  9
$DIMBLK2
  1

  9
$DIMSTYLE
  2
STANDARD
  9
$DIMCLRD
 70
     0
  9
$DIMCLRE
 70
     0
  9
$DIMCLRT
 70
     0
  9
$DIMTFAC
 40
1.0
  9
$DIMGAP
 40
0.09
  9
$LUNITS
 70
     2
  9
$LUPREC
 70
     3
  9
$SKETCHINC
 40
0.1
  9
$FILLETRAD
 40
0.5
  9
$AUNITS
 70
     0
  9
$AUPREC
 70
     0
  9
$MENU
  1
.
  9
$ELEVATION
 40
0.0
  9
$PELEVATION
 40
0.0
  9
$THICKNESS
 40
0.0
  9
$LIMCHECK
 70
     0
  9
$CHAMFERA
 40
0.0
  9
$CHAMFERB
 40
0.0
  9
$SKPOLY
 70
     0
  9
$TDCREATE
 40
2457893.550578704
  9
$TDUPDATE
 40
2457893.550590278
  9
$TDINDWG
 40
0.0000000116
  9
$TDUSRTIMER
 40
0.0000000116
  9
$USRTIMER
 70
     1
  9
$ANGBASE
 50
0.0
  9
$ANGDIR
 70
     0
  9
$PDMODE
 70
     0
  9
$PDSIZE
 40
0.0
  9
$PLINEWID
 40
0.0
  9
$COORDS
 70
     1
  9
$SPLFRAME
 70
     0
  9
$SPLINETYPE
 70
     6
  9
$SPLINESEGS
 70
     8
  9
$ATTDIA
 70
     0
  9
$ATTREQ
 70
     1
  9
$HANDLING
 70
     1
  9
$HANDSEED
  5
329
  9
$SURFTAB1
 70
     6
  9
$SURFTAB2
 70
     6
  9
$SURFTYPE
 70
     6
  9
$SURFU
 70
     6
  9
$SURFV
 70
     6
  9
$UCSNAME
  2

  9
$UCSORG
 10
0.0
 20
0.0
 30
0.0
  9
$UCSXDIR
 10
1.0
 20
0.0
 30
0.0
  9
$UCSYDIR
 10
0.0
 20
1.0
 30
0.0
  9
$PUCSNAME
  2

  9
$PUCSORG
 10
0.0
 20
0.0
 30
0.0
  9
$PUCSXDIR
 10
1.0
 20
0.0
 30
0.0
  9
$PUCSYDIR
 10
0.0
 20
1.0
 30
0.0
  9
$USERI1
 70
     0
  9
$USERI2
 70
     0
  9
$USERI3
 70
     0
  9
$USERI4
 70
     0
  9
$USERI5
 70
     0
  9
$USERR1
 40
0.0
  9
$USERR2
 40
0.0
  9
$USERR3
 40
0.0
  9
$USERR4
 40
0.0
  9
$USERR5
 40
0.0
  9
$WORLDVIEW
 70
     1
  9
$SHADEDGE
 70
     3
  9
$SHADEDIF
 70
    70
  9
$TILEMODE
 70
     1
  9
$MAXACTVP
 70
    64
  9
$PLIMCHECK
 70
     0
  9
$PEXTMIN
 10
1.000000000000000E+20
 20
1.000000000000000E+20
 30
1.000000000000000E+20
  9
$PEXTMAX
 10
-1.000000000000000E+20
 20
-1.000000000000000E+20
 30
-1.000000000000000E+20
  9
$PLIMMIN
 10
0.0
 20
0.0
  9
$PLIMMAX
 10
12.0
 20
9.0
  9
$UNITMODE
 70
     0
  9
$VISRETAIN
 70
     1
  9
$PLINEGEN
 70
     0
  9
$PSLTSCALE
 70
     1
  0
ENDSEC
  0
SECTION
  2
TABLES
  0
TABLE
  2
VPORT
 70
     1
  0
VPORT
  2
*ACTIVE
 70
     0
 10
0.0
 20
0.0
 11
1.0
 21
1.0
 12
-6280.314853488713
 22
808.4281750381567
 13
0.0
 23
0.0
 14
0.5
 24
0.5
 15
0.5
 25
0.5
 16
0.0
 26
0.0
 36
1.0
 17
0.0
 27
0.0
 37
0.0
 40
382.9874376786286
 41
0.4357566236344678
 42
50.0
 43
0.0
 44
0.0
 50
0.0
 51
0.0
 71
     0
 72
   100
 73
     1
 74
     3
 75
     0
 76
     0
 77
     0
 78
     0
  0
ENDTAB
  0
TABLE
  2
LTYPE
 70
     1
  0
LTYPE
  2
CONTINUOUS
 70
     0
  3
Solid line
 72
    65
 73
     0
 40
0.0
  0
ENDTAB
  0
TABLE
  2
LAYER
 70
     3
  0
LAYER
  2
0
 70
     0
 62
     7
  6
CONTINUOUS
  0
LAYER
  2
FAB_2$FISHBOWL$WALLS_TOP_B
 70
     0
 62
     7
  6
CONTINUOUS
  0
LAYER
  2
FAB_2$FISHBOWL$WALLS_SIDE
 70
     0
 62
    25
  6
CONTINUOUS
  0
ENDTAB
  0
TABLE
  2
STYLE
 70
     1
  0
STYLE
  2
STANDARD
 70
     0
 40
0.0
 41
1.0
 50
0.0
 71
     0
 42
0.2
  3
txt
  4

  0
ENDTAB
  0
TABLE
  2
VIEW
 70
     0
  0
ENDTAB
  0
TABLE
  2
UCS
 70
     0
  0
ENDTAB
  0
TABLE
  2
APPID
 70
     1
  0
APPID
  2
ACAD
 70
     0
  0
ENDTAB
  0
TABLE
  2
DIMSTYLE
 70
     1
  0
DIMSTYLE
  2
STANDARD
 70
     0
  3

  4

  5

  6

  7

 40
1.0
 41
0.18
 42
0.0625
 43
0.38
 44
0.18
 45
0.0
 46
0.0
 47
0.0
 48
0.0
140
0.18
141
0.09
142
0.0
143
25.4
144
1.0
145
0.0
146
1.0
147
0.09
 71
     0
 72
     0
 73
     1
 74
     1
 75
     0
 76
     0
 77
     0
 78
     0
170
     0
171
     2
172
     0
173
     0
174
     0
175
     0
176
     0
177
     0
178
     0
  0
ENDTAB
  0
ENDSEC
  0
SECTION
  2
BLOCKS
  0
BLOCK
  8
0
  2
$MODEL_SPACE
 70
     0
 10
0.0
 20
0.0
 30
0.0
  3
$MODEL_SPACE
  1

  0
ENDBLK
  5
21
  8
0
  0
BLOCK
 67
     1
  8
0
  2
$PAPER_SPACE
 70
     0
 10
0.0
 20
0.0
 30
0.0
  3
$PAPER_SPACE
  1

  0
ENDBLK
  5
1D
 67
     1
  8
0
  0
ENDSEC
  0
SECTION
  2
ENTITIES
  0
POLYLINE
  5
6F
  8
FAB_2$FISHBOWL$WALLS_TOP_B
 66
     1
 10
0.0
 20
0.0
 30
0.0
 70
     1
  0
VERTEX
  5
70
  8
FAB_2$FISHBOWL$WALLS_TOP_B
 10
-6268.998605555143
 20
920.6467025495276
 30
0.0
  0
VERTEX
  5
71
  8
FAB_2$FISHBOWL$WALLS_TOP_B
 10
-6268.998605555143
 20
950.5567025495275
 30
0.0
  0
VERTEX
  5
72
  8
FAB_2$FISHBOWL$WALLS_TOP_B
 10
-6271.538605555143
 20
950.5567025495275
 30
0.0
  0
VERTEX
  5
73
  8
FAB_2$FISHBOWL$WALLS_TOP_B
 10
-6271.538605555143
 20
890.7367025495278
 30
0.0
  0
VERTEX
  5
74
  8
FAB_2$FISHBOWL$WALLS_TOP_B
 10
-6268.998605555143
 20
890.7367025495278
 30
0.0
  0
SEQEND
  5
75
  8
FAB_2$FISHBOWL$WALLS_TOP_B
  0
POLYLINE
  5
76
  8
FAB_2$FISHBOWL$WALLS_TOP_B
 66
     1
 10
0.0
 20
0.0
 30
0.0
 70
     1
  0
VERTEX
  5
77
  8
FAB_2$FISHBOWL$WALLS_TOP_B
 10
-6268.976485632233
 20
758.9671150766771
 30
0.0
  0
VERTEX
  5
78
  8
FAB_2$FISHBOWL$WALLS_TOP_B
 10
-6268.976485632233
 20
788.877115076677
 30
0.0
  0
VERTEX
  5
79
  8
FAB_2$FISHBOWL$WALLS_TOP_B
 10
-6271.516485632233
 20
788.877115076677
 30
0.0
  0
VERTEX
  5
7A
  8
FAB_2$FISHBOWL$WALLS_TOP_B
 10
-6271.516485632233
 20
729.0571150766773
 30
0.0
  0
VERTEX
  5
7B
  8
FAB_2$FISHBOWL$WALLS_TOP_B
 10
-6268.976485632233
 20
729.0571150766773
 30
0.0
  0
SEQEND
  5
7C
  8
FAB_2$FISHBOWL$WALLS_TOP_B
  0
POLYLINE
  5
7D
  8
FAB_2$FISHBOWL$WALLS_TOP_B
 66
     1
 10
0.0
 20
0.0
 30
0.0
 70
     1
  0
VERTEX
  5
7E
  8
FAB_2$FISHBOWL$WALLS_TOP_B
 10
-6220.786366852803
 20
683.1671150766651
 30
0.0
  0
VERTEX
  5
7F
  8
FAB_2$FISHBOWL$WALLS_TOP_B
 10
-6218.506366852804
 20
683.1671150766651
 30
0.0
  0
VERTEX
  5
80
  8
FAB_2$FISHBOWL$WALLS_TOP_B
 10
-6216.226366852803
 20
683.1671150766654
 30
0.0
 42
0.4142135623729744
  0
VERTEX
  5
81
  8
FAB_2$FISHBOWL$WALLS_TOP_B
 10
-6213.506366852804
 20
685.8871150766654
 30
0.0
  0
VERTEX
  5
82
  8
FAB_2$FISHBOWL$WALLS_TOP_B
 10
-6213.506366852804
 20
690.1671150766651
 30
0.0
  0
VERTEX
  5
83
  8
FAB_2$FISHBOWL$WALLS_TOP_B
 10
-6198.50636685281
 20
690.1671150766642
 30
0.0
  0
VERTEX
  5
84
  8
FAB_2$FISHBOWL$WALLS_TOP_B
 10
-6198.506366852804
 20
989.1671150766933
 30
0.0
  0
VERTEX
  5
85
  8
FAB_2$FISHBOWL$WALLS_TOP_B
 10
-6213.506366852804
 20
989.1671150766942
 30
0.0
  0
VERTEX
  5
86
  8
FAB_2$FISHBOWL$WALLS_TOP_B
 10
-6213.506366852804
 20
993.4471150766949
 30
0.0
 42
0.4142135623732621
  0
VERTEX
  5
87
  8
FAB_2$FISHBOWL$WALLS_TOP_B
 10
-6216.226366852804
 20
996.1671150766952
 30
0.0
  0
VERTEX
  5
88
  8
FAB_2$FISHBOWL$WALLS_TOP_B
 10
-6218.506366852804
 20
996.1671150766942
 30
0.0
  0
VERTEX
  5
89
  8
FAB_2$FISHBOWL$WALLS_TOP_B
 10
-6220.786366852803
 20
996.1671150766944
 30
0.0
 42
0.4142135623732936
  0
VERTEX
  5
8A
  8
FAB_2$FISHBOWL$WALLS_TOP_B
 10
-6223.506366852803
 20
993.4471150766949
 30
0.0
  0
VERTEX
  5
8B
  8
FAB_2$FISHBOWL$WALLS_TOP_B
 10
-6223.506366852804
 20
989.1671150766942
 30
0.0
  0
VERTEX
  5
8C
  8
FAB_2$FISHBOWL$WALLS_TOP_B
 10
-6228.506366852804
 20
989.1671150766942
 30
0.0
  0
VERTEX
  5
8D
  8
FAB_2$FISHBOWL$WALLS_TOP_B
 10
-6228.506366852806
 20
950.3671150768969
 30
0.0
  0
VERTEX
  5
8E
  8
FAB_2$FISHBOWL$WALLS_TOP_B
 10
-6230.426366852806
 20
950.3671150768969
 30
0.0
 42
0.4142135623724895
  0
VERTEX
  5
8F
  8
FAB_2$FISHBOWL$WALLS_TOP_B
 10
-6231.226366852805
 20
949.5671150768958
 30
0.0
  0
VERTEX
  5
90
  8
FAB_2$FISHBOWL$WALLS_TOP_B
 10
-6231.226366852806
 20
920.3671150768969
 30
0.0
  0
VERTEX
  5
91
  8
FAB_2$FISHBOWL$WALLS_TOP_B
 10
-6231.226366852806
 20
891.1671150768971
 30
0.0
 42
0.4142135623732106
  0
VERTEX
  5
92
  8
FAB_2$FISHBOWL$WALLS_TOP_B
 10
-6230.426366852805
 20
890.3671150768969
 30
0.0
  0
VERTEX
  5
93
  8
FAB_2$FISHBOWL$WALLS_TOP_B
 10
-6228.506366852806
 20
890.3671150768969
 30
0.0
  0
VERTEX
  5
94
  8
FAB_2$FISHBOWL$WALLS_TOP_B
 10
-6228.506366852806
 20
788.9671150764607
 30
0.0
  0
VERTEX
  5
95
  8
FAB_2$FISHBOWL$WALLS_TOP_B
 10
-6230.426366852806
 20
788.9671150764608
 30
0.0
 42
0.4142135623739873
  0
VERTEX
  5
96
  8
FAB_2$FISHBOWL$WALLS_TOP_B
 10
-6231.226366852805
 20
788.1671150764605
 30
0.0
  0
VERTEX
  5
97
  8
FAB_2$FISHBOWL$WALLS_TOP_B
 10
-6231.226366852806
 20
758.9671150764607
 30
0.0
  0
VERTEX
  5
98
  8
FAB_2$FISHBOWL$WALLS_TOP_B
 10
-6231.226366852807
 20
729.7671150764609
 30
0.0
 42
0.414213562373779
  0
VERTEX
  5
99
  8
FAB_2$FISHBOWL$WALLS_TOP_B
 10
-6230.426366852806
 20
728.9671150764615
 30
0.0
  0
VERTEX
  5
9A
  8
FAB_2$FISHBOWL$WALLS_TOP_B
 10
-6228.50636685281
 20
728.9671150764607
 30
0.0
  0
VERTEX
  5
9B
  8
FAB_2$FISHBOWL$WALLS_TOP_B
 10
-6228.50636685281
 20
690.1671150766651
 30
0.0
  0
VERTEX
  5
9C
  8
FAB_2$FISHBOWL$WALLS_TOP_B
 10
-6223.506366852804
 20
690.1671150766651
 30
0.0
  0
VERTEX
  5
9D
  8
FAB_2$FISHBOWL$WALLS_TOP_B
 10
-6223.506366852804
 20
685.8871150766654
 30
0.0
 42
0.414213562373172
  0
SEQEND
  5
9E
  8
FAB_2$FISHBOWL$WALLS_TOP_B
  0
POLYLINE
  5
9F
  8
FAB_2$FISHBOWL$WALLS_TOP_B
 66
     1
 10
0.0
 20
0.0
 30
0.0
 70
     1
  0
VERTEX
  5
A0
  8
FAB_2$FISHBOWL$WALLS_TOP_B
 10
-6261.18860555513
 20
996.1671150766997
 30
0.0
  0
VERTEX
  5
A1
  8
FAB_2$FISHBOWL$WALLS_TOP_B
 10
-6258.908605555131
 20
996.1671150766997
 30
0.0
  0
VERTEX
  5
A2
  8
FAB_2$FISHBOWL$WALLS_TOP_B
 10
-6256.628605555131
 20
996.1671150767003
 30
0.0
 42
-0.4142135623726312
  0
VERTEX
  5
A3
  8
FAB_2$FISHBOWL$WALLS_TOP_B
 10
-6253.908605555131
 20
993.4471150766994
 30
0.0
  0
VERTEX
  5
A4
  8
FAB_2$FISHBOWL$WALLS_TOP_B
 10
-6253.908605555131
 20
989.1671150766997
 30
0.0
  0
VERTEX
  5
A5
  8
FAB_2$FISHBOWL$WALLS_TOP_B
 10
-6238.908605555137
 20
989.1671150767015
 30
0.0
  0
VERTEX
  5
A6
  8
FAB_2$FISHBOWL$WALLS_TOP_B
 10
-6238.908605555137
 20
690.1671150766733
 30
0.0
  0
VERTEX
  5
A7
  8
FAB_2$FISHBOWL$WALLS_TOP_B
 10
-6253.908605555131
 20
690.1671150766733
 30
0.0
  0
VERTEX
  5
A8
  8
FAB_2$FISHBOWL$WALLS_TOP_B
 10
-6253.908605555131
 20
685.8871150766745
 30
0.0
 42
-0.4142135623736879
  0
VERTEX
  5
A9
  8
FAB_2$FISHBOWL$WALLS_TOP_B
 10
-6256.628605555131
 20
683.1671150766751
 30
0.0
  0
VERTEX
  5
AA
  8
FAB_2$FISHBOWL$WALLS_TOP_B
 10
-6258.908605555131
 20
683.1671150766742
 30
0.0
  0
VERTEX
  5
AB
  8
FAB_2$FISHBOWL$WALLS_TOP_B
 10
-6261.188605555131
 20
683.1671150766742
 30
0.0
 42
-0.4142135623729364
  0
VERTEX
  5
AC
  8
FAB_2$FISHBOWL$WALLS_TOP_B
 10
-6263.908605555132
 20
685.8871150766736
 30
0.0
  0
VERTEX
  5
AD
  8
FAB_2$FISHBOWL$WALLS_TOP_B
 10
-6263.908605555131
 20
690.1671150766742
 30
0.0
  0
VERTEX
  5
AE
  8
FAB_2$FISHBOWL$WALLS_TOP_B
 10
-6278.908605555143
 20
690.1671150766733
 30
0.0
  0
VERTEX
  5
AF
  8
FAB_2$FISHBOWL$WALLS_TOP_B
 10
-6278.908605555144
 20
989.1671150767015
 30
0.0
  0
VERTEX
  5
B0
  8
FAB_2$FISHBOWL$WALLS_TOP_B
 10
-6263.908605555131
 20
989.1671150767015
 30
0.0
  0
VERTEX
  5
B1
  8
FAB_2$FISHBOWL$WALLS_TOP_B
 10
-6263.90860555513
 20
993.4471150766994
 30
0.0
 42
-0.4142135623725707
  0
SEQEND
  5
B2
  8
FAB_2$FISHBOWL$WALLS_TOP_B
  0
POLYLINE
  5
B4
  8
FAB_2$FISHBOWL$WALLS_SIDE
 66
     1
 10
0.0
 20
0.0
 30
0.0
 70
     1
  0
VERTEX
  5
B5
  8
FAB_2$FISHBOWL$WALLS_SIDE
 10
-6301.055769639892
 20
982.2971150767027
 30
0.0
  0
VERTEX
  5
B6
  8
FAB_2$FISHBOWL$WALLS_SIDE
 10
-6296.185769639892
 20
982.2971150767027
 30
0.0
  0
VERTEX
  5
B7
  8
FAB_2$FISHBOWL$WALLS_SIDE
 10
-6296.185769639892
 20
984.7571150767027
 30
0.0
  0
VERTEX
  5
B8
  8
FAB_2$FISHBOWL$WALLS_SIDE
 10
-6305.925769639892
 20
984.7571150767027
 30
0.0
  0
VERTEX
  5
B9
  8
FAB_2$FISHBOWL$WALLS_SIDE
 10
-6305.925769639892
 20
982.2971150767027
 30
0.0
  0
SEQEND
  5
BA
  8
FAB_2$FISHBOWL$WALLS_SIDE
  0
POLYLINE
  5
BB
  8
FAB_2$FISHBOWL$WALLS_SIDE
 66
     1
 10
0.0
 20
0.0
 30
0.0
 70
     1
  0
VERTEX
  5
BC
  8
FAB_2$FISHBOWL$WALLS_SIDE
 10
-6301.055769639892
 20
630.2792349996133
 30
0.0
  0
VERTEX
  5
BD
  8
FAB_2$FISHBOWL$WALLS_SIDE
 10
-6296.185769639892
 20
630.2792349996133
 30
0.0
  0
VERTEX
  5
BE
  8
FAB_2$FISHBOWL$WALLS_SIDE
 10
-6296.185769639892
 20
627.8192349996133
 30
0.0
  0
VERTEX
  5
BF
  8
FAB_2$FISHBOWL$WALLS_SIDE
 10
-6305.925769639892
 20
627.8192349996133
 30
0.0
  0
VERTEX
  5
C0
  8
FAB_2$FISHBOWL$WALLS_SIDE
 10
-6305.925769639892
 20
630.2792349996133
 30
0.0
  0
SEQEND
  5
C1
  8
FAB_2$FISHBOWL$WALLS_SIDE
  0
POLYLINE
  5
C2
  8
FAB_2$FISHBOWL$WALLS_SIDE
 66
     1
 10
0.0
 20
0.0
 30
0.0
 70
     1
  0
VERTEX
  5
C3
  8
FAB_2$FISHBOWL$WALLS_SIDE
 10
-6306.826918384099
 20
991.8871150767027
 30
0.0
  0
VERTEX
  5
C4
  8
FAB_2$FISHBOWL$WALLS_SIDE
 10
-6318.335769639892
 20
991.8871150767018
 30
0.0
 42
0.4142135623725968
  0
VERTEX
  5
C5
  8
FAB_2$FISHBOWL$WALLS_SIDE
 10
-6321.055769639892
 20
989.1671150767016
 30
0.0
  0
VERTEX
  5
C6
  8
FAB_2$FISHBOWL$WALLS_SIDE
 10
-6321.055769639892
 20
623.4092349996143
 30
0.0
 42
0.4142135623732412
  0
VERTEX
  5
C7
  8
FAB_2$FISHBOWL$WALLS_SIDE
 10
-6318.335769639892
 20
620.6892349996142
 30
0.0
  0
VERTEX
  5
C8
  8
FAB_2$FISHBOWL$WALLS_SIDE
 10
-6306.8269183841
 20
620.6892349996133
 30
0.0
  0
VERTEX
  5
C9
  8
FAB_2$FISHBOWL$WALLS_SIDE
 10
-6306.788521590417
 20
620.6913763340008
 30
0.0
  0
VERTEX
  5
CA
  8
FAB_2$FISHBOWL$WALLS_SIDE
 10
-6306.750938867095
 20
620.6946516601125
 30
0.0
  0
VERTEX
  5
CB
  8
FAB_2$FISHBOWL$WALLS_SIDE
 10
-6306.714151537401
 20
620.699035802887
 30
0.0
  0
VERTEX
  5
CC
  8
FAB_2$FISHBOWL$WALLS_SIDE
 10
-6306.678140924594
 20
620.7045035872627
 30
0.0
  0
VERTEX
  5
CD
  8
FAB_2$FISHBOWL$WALLS_SIDE
 10
-6306.64288835194
 20
620.7110298381778
 30
0.0
  0
VERTEX
  5
CE
  8
FAB_2$FISHBOWL$WALLS_SIDE
 10
-6306.608375142703
 20
620.7185893805706
 30
0.0
  0
VERTEX
  5
CF
  8
FAB_2$FISHBOWL$WALLS_SIDE
 10
-6306.574582620145
 20
620.7271570393796
 30
0.0
  0
VERTEX
  5
D0
  8
FAB_2$FISHBOWL$WALLS_SIDE
 10
-6306.54149210753
 20
620.736707639543
 30
0.0
  0
VERTEX
  5
D1
  8
FAB_2$FISHBOWL$WALLS_SIDE
 10
-6306.509084928121
 20
620.7472160059995
 30
0.0
  0
VERTEX
  5
D2
  8
FAB_2$FISHBOWL$WALLS_SIDE
 10
-6306.477342405182
 20
620.7586569636869
 30
0.0
  0
VERTEX
  5
D3
  8
FAB_2$FISHBOWL$WALLS_SIDE
 10
-6306.446245861975
 20
620.7710053375442
 30
0.0
  0
VERTEX
  5
D4
  8
FAB_2$FISHBOWL$WALLS_SIDE
 10
-6306.415776621765
 20
620.7842359525093
 30
0.0
  0
VERTEX
  5
D5
  8
FAB_2$FISHBOWL$WALLS_SIDE
 10
-6306.385916007815
 20
620.7983236335208
 30
0.0
  0
VERTEX
  5
D6
  8
FAB_2$FISHBOWL$WALLS_SIDE
 10
-6306.356645343388
 20
620.8132432055169
 30
0.0
  0
VERTEX
  5
D7
  8
FAB_2$FISHBOWL$WALLS_SIDE
 10
-6306.327945951747
 20
620.8289694934359
 30
0.0
  0
VERTEX
  5
D8
  8
FAB_2$FISHBOWL$WALLS_SIDE
 10
-6306.299799156157
 20
620.8454773222163
 30
0.0
  0
VERTEX
  5
D9
  8
FAB_2$FISHBOWL$WALLS_SIDE
 10
-6306.27218627988
 20
620.8627415167964
 30
0.0
  0
VERTEX
  5
DA
  8
FAB_2$FISHBOWL$WALLS_SIDE
 10
-6306.24508864618
 20
620.8807369021147
 30
0.0
  0
VERTEX
  5
DB
  8
FAB_2$FISHBOWL$WALLS_SIDE
 10
-6306.21848757832
 20
620.8994383031094
 30
0.0
  0
VERTEX
  5
DC
  8
FAB_2$FISHBOWL$WALLS_SIDE
 10
-6306.192364399564
 20
620.918820544719
 30
0.0
  0
VERTEX
  5
DD
  8
FAB_2$FISHBOWL$WALLS_SIDE
 10
-6306.166700433176
 20
620.9388584518817
 30
0.0
  0
VERTEX
  5
DE
  8
FAB_2$FISHBOWL$WALLS_SIDE
 10
-6306.141477002417
 20
620.9595268495359
 30
0.0
  0
VERTEX
  5
DF
  8
FAB_2$FISHBOWL$WALLS_SIDE
 10
-6306.116675430552
 20
620.9808005626201
 30
0.0
  0
VERTEX
  5
E0
  8
FAB_2$FISHBOWL$WALLS_SIDE
 10
-6306.092277040845
 20
621.0026544160725
 30
0.0
  0
VERTEX
  5
E1
  8
FAB_2$FISHBOWL$WALLS_SIDE
 10
-6306.068263156559
 20
621.0250632348315
 30
0.0
  0
VERTEX
  5
E2
  8
FAB_2$FISHBOWL$WALLS_SIDE
 10
-6306.044615100956
 20
621.0480018438354
 30
0.0
  0
VERTEX
  5
E3
  8
FAB_2$FISHBOWL$WALLS_SIDE
 10
-6305.998341768856
 20
621.0953677323315
 30
0.0
  0
VERTEX
  5
E4
  8
FAB_2$FISHBOWL$WALLS_SIDE
 10
-6305.953307630654
 20
621.1445506810678
 30
0.0
  0
VERTEX
  5
E5
  8
FAB_2$FISHBOWL$WALLS_SIDE
 10
-6305.909363272456
 20
621.1953492895509
 30
0.0
  0
VERTEX
  5
E6
  8
FAB_2$FISHBOWL$WALLS_SIDE
 10
-6305.86635928037
 20
621.2475621572879
 30
0.0
  0
VERTEX
  5
E7
  8
FAB_2$FISHBOWL$WALLS_SIDE
 10
-6305.824146240504
 20
621.3009878837858
 30
0.0
  0
VERTEX
  5
E8
  8
FAB_2$FISHBOWL$WALLS_SIDE
 10
-6305.496986534326
 20
621.7478885519774
 30
0.0
  0
VERTEX
  5
E9
  8
FAB_2$FISHBOWL$WALLS_SIDE
 10
-6305.412647157478
 20
621.857644272113
 30
0.0
  0
VERTEX
  5
EA
  8
FAB_2$FISHBOWL$WALLS_SIDE
 10
-6305.369273275099
 20
621.9111190124318
 30
0.0
  0
VERTEX
  5
EB
  8
FAB_2$FISHBOWL$WALLS_SIDE
 10
-6305.324897378227
 20
621.9633898055936
 30
0.0
  0
VERTEX
  5
EC
  8
FAB_2$FISHBOWL$WALLS_SIDE
 10
-6305.279370052966
 20
622.0142552511054
 30
0.0
  0
VERTEX
  5
ED
  8
FAB_2$FISHBOWL$WALLS_SIDE
 10
-6305.232541885427
 20
622.0635139484739
 30
0.0
  0
VERTEX
  5
EE
  8
FAB_2$FISHBOWL$WALLS_SIDE
 10
-6305.184296439284
 20
622.1110057982017
 30
0.0
  0
VERTEX
  5
EF
  8
FAB_2$FISHBOWL$WALLS_SIDE
 10
-6305.134649188481
 20
622.1567359047742
 30
0.0
  0
VERTEX
  5
F0
  8
FAB_2$FISHBOWL$WALLS_SIDE
 10
-6305.083648584536
 20
622.200750673672
 30
0.0
  0
VERTEX
  5
F1
  8
FAB_2$FISHBOWL$WALLS_SIDE
 10
-6305.031343078958
 20
622.243096510376
 30
0.0
  0
VERTEX
  5
F2
  8
FAB_2$FISHBOWL$WALLS_SIDE
 10
-6304.977781123265
 20
622.283819820367
 30
0.0
  0
VERTEX
  5
F3
  8
FAB_2$FISHBOWL$WALLS_SIDE
 10
-6304.92301116897
 20
622.3229670091258
 30
0.0
  0
VERTEX
  5
F4
  8
FAB_2$FISHBOWL$WALLS_SIDE
 10
-6304.867081667587
 20
622.3605844821334
 30
0.0
  0
VERTEX
  5
F5
  8
FAB_2$FISHBOWL$WALLS_SIDE
 10
-6304.81004107063
 20
622.3967186448706
 30
0.0
  0
VERTEX
  5
F6
  8
FAB_2$FISHBOWL$WALLS_SIDE
 10
-6304.751937829613
 20
622.4314159028181
 30
0.0
  0
VERTEX
  5
F7
  8
FAB_2$FISHBOWL$WALLS_SIDE
 10
-6304.69282039605
 20
622.4647226614569
 30
0.0
  0
VERTEX
  5
F8
  8
FAB_2$FISHBOWL$WALLS_SIDE
 10
-6304.632737221455
 20
622.4966853262678
 30
0.0
  0
VERTEX
  5
F9
  8
FAB_2$FISHBOWL$WALLS_SIDE
 10
-6304.571736757341
 20
622.5273503027316
 30
0.0
  0
VERTEX
  5
FA
  8
FAB_2$FISHBOWL$WALLS_SIDE
 10
-6304.509867455223
 20
622.5567639963292
 30
0.0
  0
VERTEX
  5
FB
  8
FAB_2$FISHBOWL$WALLS_SIDE
 10
-6304.447177766615
 20
622.5849728125414
 30
0.0
  0
VERTEX
  5
FC
  8
FAB_2$FISHBOWL$WALLS_SIDE
 10
-6304.383716143031
 20
622.612023156849
 30
0.0
  0
VERTEX
  5
FD
  8
FAB_2$FISHBOWL$WALLS_SIDE
 10
-6304.319531035985
 20
622.6379614347329
 30
0.0
  0
VERTEX
  5
FE
  8
FAB_2$FISHBOWL$WALLS_SIDE
 10
-6304.189184177564
 20
622.6866874131529
 30
0.0
  0
VERTEX
  5
FF
  8
FAB_2$FISHBOWL$WALLS_SIDE
 10
-6304.056524803462
 20
622.7315219916479
 30
0.0
  0
VERTEX
  5
100
  8
FAB_2$FISHBOWL$WALLS_SIDE
 10
-6303.921940525792
 20
622.772836414065
 30
0.0
  0
VERTEX
  5
101
  8
FAB_2$FISHBOWL$WALLS_SIDE
 10
-6303.785818956666
 20
622.8110019242506
 30
0.0
  0
VERTEX
  5
102
  8
FAB_2$FISHBOWL$WALLS_SIDE
 10
-6303.648547708197
 20
622.8463897660515
 30
0.0
  0
VERTEX
  5
103
  8
FAB_2$FISHBOWL$WALLS_SIDE
 10
-6303.510514392496
 20
622.8793711833146
 30
0.0
  0
VERTEX
  5
104
  8
FAB_2$FISHBOWL$WALLS_SIDE
 10
-6303.233712007847
 20
622.9395997196135
 30
0.0
  0
VERTEX
  5
105
  8
FAB_2$FISHBOWL$WALLS_SIDE
 10
-6302.957962485983
 20
622.9940802943046
 30
0.0
  0
VERTEX
  5
106
  8
FAB_2$FISHBOWL$WALLS_SIDE
 10
-6302.683615655624
 20
623.0428969100788
 30
0.0
  0
VERTEX
  5
107
  8
FAB_2$FISHBOWL$WALLS_SIDE
 10
-6302.410471131855
 20
623.0855563800098
 30
0.0
  0
VERTEX
  5
108
  8
FAB_2$FISHBOWL$WALLS_SIDE
 10
-6302.138328529764
 20
623.121565517172
 30
0.0
  0
VERTEX
  5
109
  8
FAB_2$FISHBOWL$WALLS_SIDE
 10
-6301.866987464437
 20
623.1504311346393
 30
0.0
  0
VERTEX
  5
10A
  8
FAB_2$FISHBOWL$WALLS_SIDE
 10
-6301.596247550957
 20
623.171660045486
 30
0.0
  0
VERTEX
  5
10B
  8
FAB_2$FISHBOWL$WALLS_SIDE
 10
-6301.325908404414
 20
623.1847590627859
 30
0.0
  0
VERTEX
  5
10C
  8
FAB_2$FISHBOWL$WALLS_SIDE
 10
-6301.055769639891
 20
623.1892349996133
 30
0.0
  0
VERTEX
  5
10D
  8
FAB_2$FISHBOWL$WALLS_SIDE
 10
-6300.785630872602
 20
623.1847590647658
 30
0.0
  0
VERTEX
  5
10E
  8
FAB_2$FISHBOWL$WALLS_SIDE
 10
-6300.515291718264
 20
623.1716600499349
 30
0.0
  0
VERTEX
  5
10F
  8
FAB_2$FISHBOWL$WALLS_SIDE
 10
-6300.24455179272
 20
623.1504311425356
 30
0.0
  0
VERTEX
  5
110
  8
FAB_2$FISHBOWL$WALLS_SIDE
 10
-6299.973210711813
 20
623.1215655299832
 30
0.0
  0
VERTEX
  5
111
  8
FAB_2$FISHBOWL$WALLS_SIDE
 10
-6299.701068091389
 20
623.0855563996927
 30
0.0
  0
VERTEX
  5
112
  8
FAB_2$FISHBOWL$WALLS_SIDE
 10
-6299.42792354729
 20
623.0428969390794
 30
0.0
  0
VERTEX
  5
113
  8
FAB_2$FISHBOWL$WALLS_SIDE
 10
-6299.15357669536
 20
622.9940803355581
 30
0.0
  0
VERTEX
  5
114
  8
FAB_2$FISHBOWL$WALLS_SIDE
 10
-6298.877827151442
 20
622.9395997765441
 30
0.0
  0
VERTEX
  5
115
  8
FAB_2$FISHBOWL$WALLS_SIDE
 10
-6298.601024745115
 20
622.8793712594176
 30
0.0
  0
VERTEX
  5
116
  8
FAB_2$FISHBOWL$WALLS_SIDE
 10
-6298.4629914191
 20
622.846389852577
 30
0.0
  0
VERTEX
  5
117
  8
FAB_2$FISHBOWL$WALLS_SIDE
 10
-6298.325720160894
 20
622.8110020214191
 30
0.0
  0
VERTEX
  5
118
  8
FAB_2$FISHBOWL$WALLS_SIDE
 10
-6298.189598582777
 20
622.7728365218447
 30
0.0
  0
VERTEX
  5
119
  8
FAB_2$FISHBOWL$WALLS_SIDE
 10
-6298.055014297031
 20
622.7315221097546
 30
0.0
  0
VERTEX
  5
11A
  8
FAB_2$FISHBOWL$WALLS_SIDE
 10
-6297.922354915938
 20
622.6866875410494
 30
0.0
  0
VERTEX
  5
11B
  8
FAB_2$FISHBOWL$WALLS_SIDE
 10
-6297.792008051778
 20
622.6379615716297
 30
0.0
  0
VERTEX
  5
11C
  8
FAB_2$FISHBOWL$WALLS_SIDE
 10
-6297.727822942386
 20
622.612023297871
 30
0.0
  0
VERTEX
  5
11D
  8
FAB_2$FISHBOWL$WALLS_SIDE
 10
-6297.664361316833
 20
622.5849729573965
 30
0.0
  0
VERTEX
  5
11E
  8
FAB_2$FISHBOWL$WALLS_SIDE
 10
-6297.601671626654
 20
622.5567641446937
 30
0.0
  0
VERTEX
  5
11F
  8
FAB_2$FISHBOWL$WALLS_SIDE
 10
-6297.539802323385
 20
622.5273504542504
 30
0.0
  0
VERTEX
  5
120
  8
FAB_2$FISHBOWL$WALLS_SIDE
 10
-6297.478801858559
 20
622.4966854805539
 30
0.0
  0
VERTEX
  5
121
  8
FAB_2$FISHBOWL$WALLS_SIDE
 10
-6297.418718683713
 20
622.464722818092
 30
0.0
  0
VERTEX
  5
122
  8
FAB_2$FISHBOWL$WALLS_SIDE
 10
-6297.359601250384
 20
622.4314160613524
 30
0.0
  0
VERTEX
  5
123
  8
FAB_2$FISHBOWL$WALLS_SIDE
 10
-6297.301498010103
 20
622.3967188048223
 30
0.0
  0
VERTEX
  5
124
  8
FAB_2$FISHBOWL$WALLS_SIDE
 10
-6297.244457414408
 20
622.3605846429896
 30
0.0
  0
VERTEX
  5
125
  8
FAB_2$FISHBOWL$WALLS_SIDE
 10
-6297.188527914834
 20
622.3229671703418
 30
0.0
  0
VERTEX
  5
126
  8
FAB_2$FISHBOWL$WALLS_SIDE
 10
-6297.133757962913
 20
622.2838199813666
 30
0.0
  0
VERTEX
  5
127
  8
FAB_2$FISHBOWL$WALLS_SIDE
 10
-6297.080196010185
 20
622.2430966705514
 30
0.0
  0
VERTEX
  5
128
  8
FAB_2$FISHBOWL$WALLS_SIDE
 10
-6297.027890508181
 20
622.2007508323838
 30
0.0
  0
VERTEX
  5
129
  8
FAB_2$FISHBOWL$WALLS_SIDE
 10
-6296.976889908439
 20
622.1567360613517
 30
0.0
  0
VERTEX
  5
12A
  8
FAB_2$FISHBOWL$WALLS_SIDE
 10
-6296.927242662493
 20
622.1110059519423
 30
0.0
  0
VERTEX
  5
12B
  8
FAB_2$FISHBOWL$WALLS_SIDE
 10
-6296.878997221878
 20
622.0635140986433
 30
0.0
  0
VERTEX
  5
12C
  8
FAB_2$FISHBOWL$WALLS_SIDE
 10
-6296.832169060548
 20
622.0142553969545
 30
0.0
  0
VERTEX
  5
12D
  8
FAB_2$FISHBOWL$WALLS_SIDE
 10
-6296.786641742123
 20
621.9633899464243
 30
0.0
  0
VERTEX
  5
12E
  8
FAB_2$FISHBOWL$WALLS_SIDE
 10
-6296.742265852644
 20
621.9111191476134
 30
0.0
  0
VERTEX
  5
12F
  8
FAB_2$FISHBOWL$WALLS_SIDE
 10
-6296.698891978148
 20
621.8576444010821
 30
0.0
  0
VERTEX
  5
130
  8
FAB_2$FISHBOWL$WALLS_SIDE
 10
-6296.614552618268
 20
621.7478886671008
 30
0.0
  0
VERTEX
  5
131
  8
FAB_2$FISHBOWL$WALLS_SIDE
 10
-6296.287392985995
 20
621.3009879344748
 30
0.0
  0
VERTEX
  5
132
  8
FAB_2$FISHBOWL$WALLS_SIDE
 10
-6296.245179954926
 20
621.2475622000168
 30
0.0
  0
VERTEX
  5
133
  8
FAB_2$FISHBOWL$WALLS_SIDE
 10
-6296.202175971312
 20
621.1953493245652
 30
0.0
  0
VERTEX
  5
134
  8
FAB_2$FISHBOWL$WALLS_SIDE
 10
-6296.158231621195
 20
621.1445507086804
 30
0.0
  0
VERTEX
  5
135
  8
FAB_2$FISHBOWL$WALLS_SIDE
 10
-6296.113197490613
 20
621.095367752923
 30
0.0
  0
VERTEX
  5
136
  8
FAB_2$FISHBOWL$WALLS_SIDE
 10
-6296.066924165606
 20
621.0480018578537
 30
0.0
  0
VERTEX
  5
137
  8
FAB_2$FISHBOWL$WALLS_SIDE
 10
-6296.043276113331
 20
621.0250632457523
 30
0.0
  0
VERTEX
  5
138
  8
FAB_2$FISHBOWL$WALLS_SIDE
 10
-6296.019262232212
 20
621.002654424033
 30
0.0
  0
VERTEX
  5
139
  8
FAB_2$FISHBOWL$WALLS_SIDE
 10
-6295.994863845506
 20
620.9808005677661
 30
0.0
  0
VERTEX
  5
13A
  8
FAB_2$FISHBOWL$WALLS_SIDE
 10
-6295.97006227647
 20
620.9595268520214
 30
0.0
  0
VERTEX
  5
13B
  8
FAB_2$FISHBOWL$WALLS_SIDE
 10
-6295.944838848358
 20
620.9388584518692
 30
0.0
  0
VERTEX
  5
13C
  8
FAB_2$FISHBOWL$WALLS_SIDE
 10
-6295.919174884423
 20
620.9188205423794
 30
0.0
  0
VERTEX
  5
13D
  8
FAB_2$FISHBOWL$WALLS_SIDE
 10
-6295.893051707922
 20
620.8994382986223
 30
0.0
  0
VERTEX
  5
13E
  8
FAB_2$FISHBOWL$WALLS_SIDE
 10
-6295.866450642107
 20
620.8807368956677
 30
0.0
  0
VERTEX
  5
13F
  8
FAB_2$FISHBOWL$WALLS_SIDE
 10
-6295.839353010237
 20
620.8627415085857
 30
0.0
  0
VERTEX
  5
140
  8
FAB_2$FISHBOWL$WALLS_SIDE
 10
-6295.811740135562
 20
620.8454773124467
 30
0.0
  0
VERTEX
  5
141
  8
FAB_2$FISHBOWL$WALLS_SIDE
 10
-6295.783593341341
 20
620.8289694823204
 30
0.0
  0
VERTEX
  5
142
  8
FAB_2$FISHBOWL$WALLS_SIDE
 10
-6295.754893950827
 20
620.8132431932772
 30
0.0
  0
VERTEX
  5
143
  8
FAB_2$FISHBOWL$WALLS_SIDE
 10
-6295.725623287276
 20
620.7983236203868
 30
0.0
  0
VERTEX
  5
144
  8
FAB_2$FISHBOWL$WALLS_SIDE
 10
-6295.695762673943
 20
620.7842359387193
 30
0.0
  0
VERTEX
  5
145
  8
FAB_2$FISHBOWL$WALLS_SIDE
 10
-6295.665293434082
 20
620.771005323345
 30
0.0
  0
VERTEX
  5
146
  8
FAB_2$FISHBOWL$WALLS_SIDE
 10
-6295.634196890948
 20
620.758656949334
 30
0.0
  0
VERTEX
  5
147
  8
FAB_2$FISHBOWL$WALLS_SIDE
 10
-6295.602454367796
 20
620.7472159917561
 30
0.0
  0
VERTEX
  5
148
  8
FAB_2$FISHBOWL$WALLS_SIDE
 10
-6295.570047187881
 20
620.7367076256817
 30
0.0
  0
VERTEX
  5
149
  8
FAB_2$FISHBOWL$WALLS_SIDE
 10
-6295.536956674458
 20
620.7271570261805
 30
0.0
  0
VERTEX
  5
14A
  8
FAB_2$FISHBOWL$WALLS_SIDE
 10
-6295.503164150781
 20
620.7185893683229
 30
0.0
  0
VERTEX
  5
14B
  8
FAB_2$FISHBOWL$WALLS_SIDE
 10
-6295.468650940107
 20
620.7110298271787
 30
0.0
  0
VERTEX
  5
14C
  8
FAB_2$FISHBOWL$WALLS_SIDE
 10
-6295.43339836569
 20
620.7045035778182
 30
0.0
  0
VERTEX
  5
14D
  8
FAB_2$FISHBOWL$WALLS_SIDE
 10
-6295.397387750783
 20
620.6990357953113
 30
0.0
  0
VERTEX
  5
14E
  8
FAB_2$FISHBOWL$WALLS_SIDE
 10
-6295.360600418644
 20
620.6946516547281
 30
0.0
  0
VERTEX
  5
14F
  8
FAB_2$FISHBOWL$WALLS_SIDE
 10
-6295.323017692526
 20
620.6913763311388
 30
0.0
  0
VERTEX
  5
150
  8
FAB_2$FISHBOWL$WALLS_SIDE
 10
-6295.284620895684
 20
620.6892349996133
 30
0.0
  0
VERTEX
  5
151
  8
FAB_2$FISHBOWL$WALLS_SIDE
 10
-6283.775769639891
 20
620.6892349996142
 30
0.0
 42
0.4142135623730004
  0
VERTEX
  5
152
  8
FAB_2$FISHBOWL$WALLS_SIDE
 10
-6281.055769639892
 20
623.4092349996145
 30
0.0
  0
VERTEX
  5
153
  8
FAB_2$FISHBOWL$WALLS_SIDE
 10
-6281.055769639892
 20
989.1671150767016
 30
0.0
 42
0.4142135623732986
  0
VERTEX
  5
154
  8
FAB_2$FISHBOWL$WALLS_SIDE
 10
-6283.775769639892
 20
991.8871150767027
 30
0.0
  0
VERTEX
  5
155
  8
FAB_2$FISHBOWL$WALLS_SIDE
 10
-6295.284620895683
 20
991.8871150767026
 30
0.0
  0
VERTEX
  5
156
  8
FAB_2$FISHBOWL$WALLS_SIDE
 10
-6295.323017689367
 20
991.8849737423152
 30
0.0
  0
VERTEX
  5
157
  8
FAB_2$FISHBOWL$WALLS_SIDE
 10
-6295.360600412689
 20
991.8816984162033
 30
0.0
  0
VERTEX
  5
158
  8
FAB_2$FISHBOWL$WALLS_SIDE
 10
-6295.397387742383
 20
991.8773142734289
 30
0.0
  0
VERTEX
  5
159
  8
FAB_2$FISHBOWL$WALLS_SIDE
 10
-6295.43339835519
 20
991.8718464890533
 30
0.0
  0
VERTEX
  5
15A
  8
FAB_2$FISHBOWL$WALLS_SIDE
 10
-6295.468650927844
 20
991.8653202381382
 30
0.0
  0
VERTEX
  5
15B
  8
FAB_2$FISHBOWL$WALLS_SIDE
 10
-6295.503164137081
 20
991.8577606957454
 30
0.0
  0
VERTEX
  5
15C
  8
FAB_2$FISHBOWL$WALLS_SIDE
 10
-6295.536956659639
 20
991.8491930369364
 30
0.0
  0
VERTEX
  5
15D
  8
FAB_2$FISHBOWL$WALLS_SIDE
 10
-6295.570047172254
 20
991.8396424367729
 30
0.0
  0
VERTEX
  5
15E
  8
FAB_2$FISHBOWL$WALLS_SIDE
 10
-6295.602454351663
 20
991.8291340703165
 30
0.0
  0
VERTEX
  5
15F
  8
FAB_2$FISHBOWL$WALLS_SIDE
 10
-6295.634196874602
 20
991.8176931126291
 30
0.0
  0
VERTEX
  5
160
  8
FAB_2$FISHBOWL$WALLS_SIDE
 10
-6295.665293417809
 20
991.8053447387717
 30
0.0
  0
VERTEX
  5
161
  8
FAB_2$FISHBOWL$WALLS_SIDE
 10
-6295.695762658019
 20
991.7921141238066
 30
0.0
  0
VERTEX
  5
162
  8
FAB_2$FISHBOWL$WALLS_SIDE
 10
-6295.725623271968
 20
991.7780264427952
 30
0.0
  0
VERTEX
  5
163
  8
FAB_2$FISHBOWL$WALLS_SIDE
 10
-6295.754893936396
 20
991.7631068707991
 30
0.0
  0
VERTEX
  5
164
  8
FAB_2$FISHBOWL$WALLS_SIDE
 10
-6295.783593328037
 20
991.74738058288
 30
0.0
  0
VERTEX
  5
165
  8
FAB_2$FISHBOWL$WALLS_SIDE
 10
-6295.811740123627
 20
991.7308727540997
 30
0.0
  0
VERTEX
  5
166
  8
FAB_2$FISHBOWL$WALLS_SIDE
 10
-6295.839352999904
 20
991.7136085595193
 30
0.0
  0
VERTEX
  5
167
  8
FAB_2$FISHBOWL$WALLS_SIDE
 10
-6295.866450633604
 20
991.6956131742011
 30
0.0
  0
VERTEX
  5
168
  8
FAB_2$FISHBOWL$WALLS_SIDE
 10
-6295.893051701463
 20
991.6769117732064
 30
0.0
  0
VERTEX
  5
169
  8
FAB_2$FISHBOWL$WALLS_SIDE
 10
-6295.91917488022
 20
991.6575295315968
 30
0.0
  0
VERTEX
  5
16A
  8
FAB_2$FISHBOWL$WALLS_SIDE
 10
-6295.944838846608
 20
991.637491624434
 30
0.0
  0
VERTEX
  5
16B
  8
FAB_2$FISHBOWL$WALLS_SIDE
 10
-6295.970062277367
 20
991.6168232267798
 30
0.0
  0
VERTEX
  5
16C
  8
FAB_2$FISHBOWL$WALLS_SIDE
 10
-6295.994863849231
 20
991.5955495136957
 30
0.0
  0
VERTEX
  5
16D
  8
FAB_2$FISHBOWL$WALLS_SIDE
 10
-6296.019262238939
 20
991.5736956602434
 30
0.0
  0
VERTEX
  5
16E
  8
FAB_2$FISHBOWL$WALLS_SIDE
 10
-6296.043276123225
 20
991.5512868414845
 30
0.0
  0
VERTEX
  5
16F
  8
FAB_2$FISHBOWL$WALLS_SIDE
 10
-6296.066924178828
 20
991.5283482324805
 30
0.0
  0
VERTEX
  5
170
  8
FAB_2$FISHBOWL$WALLS_SIDE
 10
-6296.113197510927
 20
991.4809823439845
 30
0.0
  0
VERTEX
  5
171
  8
FAB_2$FISHBOWL$WALLS_SIDE
 10
-6296.158231649129
 20
991.4317993952482
 30
0.0
  0
VERTEX
  5
172
  8
FAB_2$FISHBOWL$WALLS_SIDE
 10
-6296.202176007328
 20
991.381000786765
 30
0.0
  0
VERTEX
  5
173
  8
FAB_2$FISHBOWL$WALLS_SIDE
 10
-6296.245179999413
 20
991.3287879190278
 30
0.0
  0
VERTEX
  5
174
  8
FAB_2$FISHBOWL$WALLS_SIDE
 10
-6296.28739303928
 20
991.2753621925301
 30
0.0
  0
VERTEX
  5
175
  8
FAB_2$FISHBOWL$WALLS_SIDE
 10
-6296.614552745459
 20
990.8284615243385
 30
0.0
  0
VERTEX
  5
176
  8
FAB_2$FISHBOWL$WALLS_SIDE
 10
-6296.698892122306
 20
990.718705804203
 30
0.0
  0
VERTEX
  5
177
  8
FAB_2$FISHBOWL$WALLS_SIDE
 10
-6296.742266004686
 20
990.6652310638842
 30
0.0
  0
VERTEX
  5
178
  8
FAB_2$FISHBOWL$WALLS_SIDE
 10
-6296.786641901559
 20
990.6129602707224
 30
0.0
  0
VERTEX
  5
179
  8
FAB_2$FISHBOWL$WALLS_SIDE
 10
-6296.832169226818
 20
990.5620948252108
 30
0.0
  0
VERTEX
  5
17A
  8
FAB_2$FISHBOWL$WALLS_SIDE
 10
-6296.878997394358
 20
990.5128361278422
 30
0.0
  0
VERTEX
  5
17B
  8
FAB_2$FISHBOWL$WALLS_SIDE
 10
-6296.9272428405
 20
990.4653442781143
 30
0.0
  0
VERTEX
  5
17C
  8
FAB_2$FISHBOWL$WALLS_SIDE
 10
-6296.976890091302
 20
990.419614171542
 30
0.0
  0
VERTEX
  5
17D
  8
FAB_2$FISHBOWL$WALLS_SIDE
 10
-6297.027890695248
 20
990.3755994026442
 30
0.0
  0
VERTEX
  5
17E
  8
FAB_2$FISHBOWL$WALLS_SIDE
 10
-6297.080196200825
 20
990.3332535659403
 30
0.0
  0
VERTEX
  5
17F
  8
FAB_2$FISHBOWL$WALLS_SIDE
 10
-6297.133758156519
 20
990.2925302559493
 30
0.0
  0
VERTEX
  5
180
  8
FAB_2$FISHBOWL$WALLS_SIDE
 10
-6297.188528110813
 20
990.2533830671904
 30
0.0
  0
VERTEX
  5
181
  8
FAB_2$FISHBOWL$WALLS_SIDE
 10
-6297.244457612197
 20
990.2157655941828
 30
0.0
  0
VERTEX
  5
182
  8
FAB_2$FISHBOWL$WALLS_SIDE
 10
-6297.301498209154
 20
990.1796314314456
 30
0.0
  0
VERTEX
  5
183
  8
FAB_2$FISHBOWL$WALLS_SIDE
 10
-6297.359601450171
 20
990.1449341734981
 30
0.0
  0
VERTEX
  5
184
  8
FAB_2$FISHBOWL$WALLS_SIDE
 10
-6297.418718883734
 20
990.1116274148593
 30
0.0
  0
VERTEX
  5
185
  8
FAB_2$FISHBOWL$WALLS_SIDE
 10
-6297.478802058329
 20
990.0796647500484
 30
0.0
  0
VERTEX
  5
186
  8
FAB_2$FISHBOWL$WALLS_SIDE
 10
-6297.539802522443
 20
990.0489997735846
 30
0.0
  0
VERTEX
  5
187
  8
FAB_2$FISHBOWL$WALLS_SIDE
 10
-6297.601671824561
 20
990.019586079987
 30
0.0
  0
VERTEX
  5
188
  8
FAB_2$FISHBOWL$WALLS_SIDE
 10
-6297.664361513169
 20
989.9913772637748
 30
0.0
  0
VERTEX
  5
189
  8
FAB_2$FISHBOWL$WALLS_SIDE
 10
-6297.727823136753
 20
989.9643269194672
 30
0.0
  0
VERTEX
  5
18A
  8
FAB_2$FISHBOWL$WALLS_SIDE
 10
-6297.792008243799
 20
989.9383886415833
 30
0.0
  0
VERTEX
  5
18B
  8
FAB_2$FISHBOWL$WALLS_SIDE
 10
-6297.92235510222
 20
989.8896626631633
 30
0.0
  0
VERTEX
  5
18C
  8
FAB_2$FISHBOWL$WALLS_SIDE
 10
-6298.055014476322
 20
989.8448280846683
 30
0.0
  0
VERTEX
  5
18D
  8
FAB_2$FISHBOWL$WALLS_SIDE
 10
-6298.189598753992
 20
989.8035136622512
 30
0.0
  0
VERTEX
  5
18E
  8
FAB_2$FISHBOWL$WALLS_SIDE
 10
-6298.325720323118
 20
989.7653481520656
 30
0.0
  0
VERTEX
  5
18F
  8
FAB_2$FISHBOWL$WALLS_SIDE
 10
-6298.462991571587
 20
989.7299603102646
 30
0.0
  0
VERTEX
  5
190
  8
FAB_2$FISHBOWL$WALLS_SIDE
 10
-6298.601024887288
 20
989.6969788930016
 30
0.0
  0
VERTEX
  5
191
  8
FAB_2$FISHBOWL$WALLS_SIDE
 10
-6298.877827271936
 20
989.6367503567026
 30
0.0
  0
VERTEX
  5
192
  8
FAB_2$FISHBOWL$WALLS_SIDE
 10
-6299.153576793801
 20
989.5822697820113
 30
0.0
  0
VERTEX
  5
193
  8
FAB_2$FISHBOWL$WALLS_SIDE
 10
-6299.42792362416
 20
989.5334531662372
 30
0.0
  0
VERTEX
  5
194
  8
FAB_2$FISHBOWL$WALLS_SIDE
 10
-6299.701068147929
 20
989.4907936963061
 30
0.0
  0
VERTEX
  5
195
  8
FAB_2$FISHBOWL$WALLS_SIDE
 10
-6299.973210750019
 20
989.454784559144
 30
0.0
  0
VERTEX
  5
196
  8
FAB_2$FISHBOWL$WALLS_SIDE
 10
-6300.244551815347
 20
989.4259189416766
 30
0.0
  0
VERTEX
  5
197
  8
FAB_2$FISHBOWL$WALLS_SIDE
 10
-6300.515291728827
 20
989.40469003083
 30
0.0
  0
VERTEX
  5
198
  8
FAB_2$FISHBOWL$WALLS_SIDE
 10
-6300.78563087537
 20
989.39159101353
 30
0.0
  0
VERTEX
  5
199
  8
FAB_2$FISHBOWL$WALLS_SIDE
 10
-6301.055769639893
 20
989.3871150767027
 30
0.0
  0
VERTEX
  5
19A
  8
FAB_2$FISHBOWL$WALLS_SIDE
 10
-6301.325908407181
 20
989.3915910115502
 30
0.0
  0
VERTEX
  5
19B
  8
FAB_2$FISHBOWL$WALLS_SIDE
 10
-6301.59624756152
 20
989.4046900263811
 30
0.0
  0
VERTEX
  5
19C
  8
FAB_2$FISHBOWL$WALLS_SIDE
 10
-6301.866987487065
 20
989.4259189337804
 30
0.0
  0
VERTEX
  5
19D
  8
FAB_2$FISHBOWL$WALLS_SIDE
 10
-6302.138328567971
 20
989.4547845463328
 30
0.0
  0
VERTEX
  5
19E
  8
FAB_2$FISHBOWL$WALLS_SIDE
 10
-6302.410471188396
 20
989.4907936766233
 30
0.0
  0
VERTEX
  5
19F
  8
FAB_2$FISHBOWL$WALLS_SIDE
 10
-6302.683615732494
 20
989.5334531372366
 30
0.0
  0
VERTEX
  5
1A0
  8
FAB_2$FISHBOWL$WALLS_SIDE
 10
-6302.957962584425
 20
989.582269740758
 30
0.0
  0
VERTEX
  5
1A1
  8
FAB_2$FISHBOWL$WALLS_SIDE
 10
-6303.233712128344
 20
989.636750299772
 30
0.0
  0
VERTEX
  5
1A2
  8
FAB_2$FISHBOWL$WALLS_SIDE
 10
-6303.510514534671
 20
989.6969788168985
 30
0.0
  0
VERTEX
  5
1A3
  8
FAB_2$FISHBOWL$WALLS_SIDE
 10
-6303.648547860686
 20
989.7299602237391
 30
0.0
  0
VERTEX
  5
1A4
  8
FAB_2$FISHBOWL$WALLS_SIDE
 10
-6303.785819118891
 20
989.765348054897
 30
0.0
  0
VERTEX
  5
1A5
  8
FAB_2$FISHBOWL$WALLS_SIDE
 10
-6303.921940697007
 20
989.8035135544714
 30
0.0
  0
VERTEX
  5
1A6
  8
FAB_2$FISHBOWL$WALLS_SIDE
 10
-6304.056524982752
 20
989.8448279665615
 30
0.0
  0
VERTEX
  5
1A7
  8
FAB_2$FISHBOWL$WALLS_SIDE
 10
-6304.189184363846
 20
989.8896625352668
 30
0.0
  0
VERTEX
  5
1A8
  8
FAB_2$FISHBOWL$WALLS_SIDE
 10
-6304.319531228006
 20
989.9383885046864
 30
0.0
  0
VERTEX
  5
1A9
  8
FAB_2$FISHBOWL$WALLS_SIDE
 10
-6304.383716337397
 20
989.964326778445
 30
0.0
  0
VERTEX
  5
1AA
  8
FAB_2$FISHBOWL$WALLS_SIDE
 10
-6304.44717796295
 20
989.9913771189196
 30
0.0
  0
VERTEX
  5
1AB
  8
FAB_2$FISHBOWL$WALLS_SIDE
 10
-6304.50986765313
 20
990.0195859316224
 30
0.0
  0
VERTEX
  5
1AC
  8
FAB_2$FISHBOWL$WALLS_SIDE
 10
-6304.571736956399
 20
990.0489996220657
 30
0.0
  0
VERTEX
  5
1AD
  8
FAB_2$FISHBOWL$WALLS_SIDE
 10
-6304.632737421225
 20
990.0796645957621
 30
0.0
  0
VERTEX
  5
1AE
  8
FAB_2$FISHBOWL$WALLS_SIDE
 10
-6304.69282059607
 20
990.111627258224
 30
0.0
  0
VERTEX
  5
1AF
  8
FAB_2$FISHBOWL$WALLS_SIDE
 10
-6304.7519380294
 20
990.1449340149636
 30
0.0
  0
VERTEX
  5
1B0
  8
FAB_2$FISHBOWL$WALLS_SIDE
 10
-6304.81004126968
 20
990.1796312714937
 30
0.0
  0
VERTEX
  5
1B1
  8
FAB_2$FISHBOWL$WALLS_SIDE
 10
-6304.867081865375
 20
990.2157654333264
 30
0.0
  0
VERTEX
  5
1B2
  8
FAB_2$FISHBOWL$WALLS_SIDE
 10
-6304.92301136495
 20
990.2533829059741
 30
0.0
  0
VERTEX
  5
1B3
  8
FAB_2$FISHBOWL$WALLS_SIDE
 10
-6304.97778131687
 20
990.2925300949494
 30
0.0
  0
VERTEX
  5
1B4
  8
FAB_2$FISHBOWL$WALLS_SIDE
 10
-6305.031343269598
 20
990.3332534057646
 30
0.0
  0
VERTEX
  5
1B5
  8
FAB_2$FISHBOWL$WALLS_SIDE
 10
-6305.083648771602
 20
990.3755992439321
 30
0.0
  0
VERTEX
  5
1B6
  8
FAB_2$FISHBOWL$WALLS_SIDE
 10
-6305.134649371344
 20
990.4196140149643
 30
0.0
  0
VERTEX
  5
1B7
  8
FAB_2$FISHBOWL$WALLS_SIDE
 10
-6305.184296617291
 20
990.4653441243737
 30
0.0
  0
VERTEX
  5
1B8
  8
FAB_2$FISHBOWL$WALLS_SIDE
 10
-6305.232542057905
 20
990.5128359776727
 30
0.0
  0
VERTEX
  5
1B9
  8
FAB_2$FISHBOWL$WALLS_SIDE
 10
-6305.279370219236
 20
990.5620946793615
 30
0.0
  0
VERTEX
  5
1BA
  8
FAB_2$FISHBOWL$WALLS_SIDE
 10
-6305.324897537661
 20
990.6129601298917
 30
0.0
  0
VERTEX
  5
1BB
  8
FAB_2$FISHBOWL$WALLS_SIDE
 10
-6305.36927342714
 20
990.6652309287026
 30
0.0
  0
VERTEX
  5
1BC
  8
FAB_2$FISHBOWL$WALLS_SIDE
 10
-6305.412647301636
 20
990.7187056752339
 30
0.0
  0
VERTEX
  5
1BD
  8
FAB_2$FISHBOWL$WALLS_SIDE
 10
-6305.496986661516
 20
990.8284614092152
 30
0.0
  0
VERTEX
  5
1BE
  8
FAB_2$FISHBOWL$WALLS_SIDE
 10
-6305.824146293789
 20
991.2753621418411
 30
0.0
  0
VERTEX
  5
1BF
  8
FAB_2$FISHBOWL$WALLS_SIDE
 10
-6305.866359324858
 20
991.3287878762992
 30
0.0
  0
VERTEX
  5
1C0
  8
FAB_2$FISHBOWL$WALLS_SIDE
 10
-6305.909363308471
 20
991.3810007517508
 30
0.0
  0
VERTEX
  5
1C1
  8
FAB_2$FISHBOWL$WALLS_SIDE
 10
-6305.953307658589
 20
991.4317993676356
 30
0.0
  0
VERTEX
  5
1C2
  8
FAB_2$FISHBOWL$WALLS_SIDE
 10
-6305.998341789171
 20
991.4809823233929
 30
0.0
  0
VERTEX
  5
1C3
  8
FAB_2$FISHBOWL$WALLS_SIDE
 10
-6306.044615114178
 20
991.5283482184623
 30
0.0
  0
VERTEX
  5
1C4
  8
FAB_2$FISHBOWL$WALLS_SIDE
 10
-6306.068263166453
 20
991.5512868305636
 30
0.0
  0
VERTEX
  5
1C5
  8
FAB_2$FISHBOWL$WALLS_SIDE
 10
-6306.092277047572
 20
991.5736956522829
 30
0.0
  0
VERTEX
  5
1C6
  8
FAB_2$FISHBOWL$WALLS_SIDE
 10
-6306.116675434278
 20
991.5955495085499
 30
0.0
  0
VERTEX
  5
1C7
  8
FAB_2$FISHBOWL$WALLS_SIDE
 10
-6306.141477003313
 20
991.6168232242945
 30
0.0
  0
VERTEX
  5
1C8
  8
FAB_2$FISHBOWL$WALLS_SIDE
 10
-6306.166700431426
 20
991.6374916244467
 30
0.0
  0
VERTEX
  5
1C9
  8
FAB_2$FISHBOWL$WALLS_SIDE
 10
-6306.192364395361
 20
991.6575295339366
 30
0.0
  0
VERTEX
  5
1CA
  8
FAB_2$FISHBOWL$WALLS_SIDE
 10
-6306.218487571862
 20
991.6769117776937
 30
0.0
  0
VERTEX
  5
1CB
  8
FAB_2$FISHBOWL$WALLS_SIDE
 10
-6306.245088637676
 20
991.6956131806483
 30
0.0
  0
VERTEX
  5
1CC
  8
FAB_2$FISHBOWL$WALLS_SIDE
 10
-6306.272186269547
 20
991.7136085677303
 30
0.0
  0
VERTEX
  5
1CD
  8
FAB_2$FISHBOWL$WALLS_SIDE
 10
-6306.299799144222
 20
991.7308727638692
 30
0.0
  0
VERTEX
  5
1CE
  8
FAB_2$FISHBOWL$WALLS_SIDE
 10
-6306.327945938443
 20
991.7473805939956
 30
0.0
  0
VERTEX
  5
1CF
  8
FAB_2$FISHBOWL$WALLS_SIDE
 10
-6306.356645328957
 20
991.7631068830387
 30
0.0
  0
VERTEX
  5
1D0
  8
FAB_2$FISHBOWL$WALLS_SIDE
 10
-6306.385915992508
 20
991.7780264559292
 30
0.0
  0
VERTEX
  5
1D1
  8
FAB_2$FISHBOWL$WALLS_SIDE
 10
-6306.415776605841
 20
991.7921141375966
 30
0.0
  0
VERTEX
  5
1D2
  8
FAB_2$FISHBOWL$WALLS_SIDE
 10
-6306.446245845702
 20
991.805344752971
 30
0.0
  0
VERTEX
  5
1D3
  8
FAB_2$FISHBOWL$WALLS_SIDE
 10
-6306.477342388835
 20
991.817693126982
 30
0.0
  0
VERTEX
  5
1D4
  8
FAB_2$FISHBOWL$WALLS_SIDE
 10
-6306.509084911988
 20
991.8291340845599
 30
0.0
  0
VERTEX
  5
1D5
  8
FAB_2$FISHBOWL$WALLS_SIDE
 10
-6306.541492091903
 20
991.8396424506343
 30
0.0
  0
VERTEX
  5
1D6
  8
FAB_2$FISHBOWL$WALLS_SIDE
 10
-6306.574582605326
 20
991.8491930501355
 30
0.0
  0
VERTEX
  5
1D7
  8
FAB_2$FISHBOWL$WALLS_SIDE
 10
-6306.608375129003
 20
991.8577607079931
 30
0.0
  0
VERTEX
  5
1D8
  8
FAB_2$FISHBOWL$WALLS_SIDE
 10
-6306.642888339677
 20
991.8653202491373
 30
0.0
  0
VERTEX
  5
1D9
  8
FAB_2$FISHBOWL$WALLS_SIDE
 10
-6306.678140914094
 20
991.8718464984978
 30
0.0
  0
VERTEX
  5
1DA
  8
FAB_2$FISHBOWL$WALLS_SIDE
 10
-6306.714151529
 20
991.8773142810047
 30
0.0
  0
VERTEX
  5
1DB
  8
FAB_2$FISHBOWL$WALLS_SIDE
 10
-6306.75093886114
 20
991.8816984215879
 30
0.0
  0
VERTEX
  5
1DC
  8
FAB_2$FISHBOWL$WALLS_SIDE
 10
-6306.788521587257
 20
991.8849737451771
 30
0.0
  0
SEQEND
  5
1DD
  8
FAB_2$FISHBOWL$WALLS_SIDE
  0
POLYLINE
  5
1DE
  8
FAB_2$FISHBOWL$WALLS_SIDE
 66
     1
 10
0.0
 20
0.0
 30
0.0
 70
     1
  0
VERTEX
  5
1DF
  8
FAB_2$FISHBOWL$WALLS_SIDE
 10
-6311.145769639892
 20
717.1104687103904
 30
0.0
  0
VERTEX
  5
1E0
  8
FAB_2$FISHBOWL$WALLS_SIDE
 10
-6311.145769639892
 20
747.0204687103903
 30
0.0
  0
VERTEX
  5
1E1
  8
FAB_2$FISHBOWL$WALLS_SIDE
 10
-6313.685769639892
 20
747.0204687103903
 30
0.0
  0
VERTEX
  5
1E2
  8
FAB_2$FISHBOWL$WALLS_SIDE
 10
-6313.685769639892
 20
687.2004687103904
 30
0.0
  0
VERTEX
  5
1E3
  8
FAB_2$FISHBOWL$WALLS_SIDE
 10
-6311.145769639892
 20
687.2004687103904
 30
0.0
  0
SEQEND
  5
1E4
  8
FAB_2$FISHBOWL$WALLS_SIDE
  0
POLYLINE
  5
1E5
  8
FAB_2$FISHBOWL$WALLS_SIDE
 66
     1
 10
0.0
 20
0.0
 30
0.0
 70
     1
  0
VERTEX
  5
1E6
  8
FAB_2$FISHBOWL$WALLS_SIDE
 10
-6311.145769639892
 20
963.0736021016476
 30
0.0
  0
VERTEX
  5
1E7
  8
FAB_2$FISHBOWL$WALLS_SIDE
 10
-6311.145769639892
 20
903.2536021016476
 30
0.0
  0
VERTEX
  5
1E8
  8
FAB_2$FISHBOWL$WALLS_SIDE
 10
-6313.685769639892
 20
903.2536021016476
 30
0.0
  0
VERTEX
  5
1E9
  8
FAB_2$FISHBOWL$WALLS_SIDE
 10
-6313.685769639892
 20
963.0736021016476
 30
0.0
  0
SEQEND
  5
1EA
  8
FAB_2$FISHBOWL$WALLS_SIDE
  0
POLYLINE
  5
1EB
  8
FAB_2$FISHBOWL$WALLS_SIDE
 66
     1
 10
0.0
 20
0.0
 30
0.0
 70
     1
  0
VERTEX
  5
1EC
  8
FAB_2$FISHBOWL$WALLS_SIDE
 10
-6352.213340124623
 20
963.0736021016476
 30
0.0
  0
VERTEX
  5
1ED
  8
FAB_2$FISHBOWL$WALLS_SIDE
 10
-6352.213340124623
 20
903.2536021016476
 30
0.0
  0
VERTEX
  5
1EE
  8
FAB_2$FISHBOWL$WALLS_SIDE
 10
-6354.753340124623
 20
903.2536021016476
 30
0.0
  0
VERTEX
  5
1EF
  8
FAB_2$FISHBOWL$WALLS_SIDE
 10
-6354.753340124623
 20
963.0736021016476
 30
0.0
  0
SEQEND
  5
1F0
  8
FAB_2$FISHBOWL$WALLS_SIDE
  0
POLYLINE
  5
1F1
  8
FAB_2$FISHBOWL$WALLS_SIDE
 66
     1
 10
0.0
 20
0.0
 30
0.0
 70
     1
  0
VERTEX
  5
1F2
  8
FAB_2$FISHBOWL$WALLS_SIDE
 10
-6352.213340124623
 20
717.1104687103904
 30
0.0
  0
VERTEX
  5
1F3
  8
FAB_2$FISHBOWL$WALLS_SIDE
 10
-6352.213340124623
 20
747.0204687103903
 30
0.0
  0
VERTEX
  5
1F4
  8
FAB_2$FISHBOWL$WALLS_SIDE
 10
-6354.753340124623
 20
747.0204687103903
 30
0.0
  0
VERTEX
  5
1F5
  8
FAB_2$FISHBOWL$WALLS_SIDE
 10
-6354.753340124623
 20
687.2004687103904
 30
0.0
  0
VERTEX
  5
1F6
  8
FAB_2$FISHBOWL$WALLS_SIDE
 10
-6352.213340124623
 20
687.2004687103904
 30
0.0
  0
SEQEND
  5
1F7
  8
FAB_2$FISHBOWL$WALLS_SIDE
  0
POLYLINE
  5
1F8
  8
FAB_2$FISHBOWL$WALLS_SIDE
 66
     1
 10
0.0
 20
0.0
 30
0.0
 70
     1
  0
VERTEX
  5
1F9
  8
FAB_2$FISHBOWL$WALLS_SIDE
 10
-6347.89448886883
 20
991.8871150767027
 30
0.0
  0
VERTEX
  5
1FA
  8
FAB_2$FISHBOWL$WALLS_SIDE
 10
-6359.403340124622
 20
991.8871150767025
 30
0.0
 42
0.4142135623729278
  0
VERTEX
  5
1FB
  8
FAB_2$FISHBOWL$WALLS_SIDE
 10
-6362.123340124623
 20
989.1671150767016
 30
0.0
  0
VERTEX
  5
1FC
  8
FAB_2$FISHBOWL$WALLS_SIDE
 10
-6362.123340124623
 20
623.4092349996143
 30
0.0
 42
0.4142135623731794
  0
VERTEX
  5
1FD
  8
FAB_2$FISHBOWL$WALLS_SIDE
 10
-6359.403340124622
 20
620.6892349996141
 30
0.0
  0
VERTEX
  5
1FE
  8
FAB_2$FISHBOWL$WALLS_SIDE
 10
-6347.894488868831
 20
620.6892349996133
 30
0.0
  0
VERTEX
  5
1FF
  8
FAB_2$FISHBOWL$WALLS_SIDE
 10
-6347.856092075148
 20
620.6913763340008
 30
0.0
  0
VERTEX
  5
200
  8
FAB_2$FISHBOWL$WALLS_SIDE
 10
-6347.818509351826
 20
620.6946516601125
 30
0.0
  0
VERTEX
  5
201
  8
FAB_2$FISHBOWL$WALLS_SIDE
 10
-6347.781722022131
 20
620.699035802887
 30
0.0
  0
VERTEX
  5
202
  8
FAB_2$FISHBOWL$WALLS_SIDE
 10
-6347.745711409325
 20
620.7045035872627
 30
0.0
  0
VERTEX
  5
203
  8
FAB_2$FISHBOWL$WALLS_SIDE
 10
-6347.710458836671
 20
620.7110298381778
 30
0.0
  0
VERTEX
  5
204
  8
FAB_2$FISHBOWL$WALLS_SIDE
 10
-6347.675945627434
 20
620.7185893805706
 30
0.0
  0
VERTEX
  5
205
  8
FAB_2$FISHBOWL$WALLS_SIDE
 10
-6347.642153104875
 20
620.7271570393796
 30
0.0
  0
VERTEX
  5
206
  8
FAB_2$FISHBOWL$WALLS_SIDE
 10
-6347.609062592261
 20
620.736707639543
 30
0.0
  0
VERTEX
  5
207
  8
FAB_2$FISHBOWL$WALLS_SIDE
 10
-6347.576655412851
 20
620.7472160059995
 30
0.0
  0
VERTEX
  5
208
  8
FAB_2$FISHBOWL$WALLS_SIDE
 10
-6347.544912889913
 20
620.7586569636869
 30
0.0
  0
VERTEX
  5
209
  8
FAB_2$FISHBOWL$WALLS_SIDE
 10
-6347.513816346705
 20
620.7710053375442
 30
0.0
  0
VERTEX
  5
20A
  8
FAB_2$FISHBOWL$WALLS_SIDE
 10
-6347.483347106496
 20
620.7842359525093
 30
0.0
  0
VERTEX
  5
20B
  8
FAB_2$FISHBOWL$WALLS_SIDE
 10
-6347.453486492546
 20
620.7983236335208
 30
0.0
  0
VERTEX
  5
20C
  8
FAB_2$FISHBOWL$WALLS_SIDE
 10
-6347.424215828119
 20
620.8132432055169
 30
0.0
  0
VERTEX
  5
20D
  8
FAB_2$FISHBOWL$WALLS_SIDE
 10
-6347.395516436478
 20
620.8289694934359
 30
0.0
  0
VERTEX
  5
20E
  8
FAB_2$FISHBOWL$WALLS_SIDE
 10
-6347.367369640888
 20
620.8454773222163
 30
0.0
  0
VERTEX
  5
20F
  8
FAB_2$FISHBOWL$WALLS_SIDE
 10
-6347.339756764611
 20
620.8627415167964
 30
0.0
  0
VERTEX
  5
210
  8
FAB_2$FISHBOWL$WALLS_SIDE
 10
-6347.312659130911
 20
620.8807369021147
 30
0.0
  0
VERTEX
  5
211
  8
FAB_2$FISHBOWL$WALLS_SIDE
 10
-6347.286058063051
 20
620.8994383031094
 30
0.0
  0
VERTEX
  5
212
  8
FAB_2$FISHBOWL$WALLS_SIDE
 10
-6347.259934884295
 20
620.918820544719
 30
0.0
  0
VERTEX
  5
213
  8
FAB_2$FISHBOWL$WALLS_SIDE
 10
-6347.234270917907
 20
620.9388584518817
 30
0.0
  0
VERTEX
  5
214
  8
FAB_2$FISHBOWL$WALLS_SIDE
 10
-6347.209047487147
 20
620.9595268495359
 30
0.0
  0
VERTEX
  5
215
  8
FAB_2$FISHBOWL$WALLS_SIDE
 10
-6347.184245915283
 20
620.9808005626201
 30
0.0
  0
VERTEX
  5
216
  8
FAB_2$FISHBOWL$WALLS_SIDE
 10
-6347.159847525576
 20
621.0026544160725
 30
0.0
  0
VERTEX
  5
217
  8
FAB_2$FISHBOWL$WALLS_SIDE
 10
-6347.13583364129
 20
621.0250632348315
 30
0.0
  0
VERTEX
  5
218
  8
FAB_2$FISHBOWL$WALLS_SIDE
 10
-6347.112185585686
 20
621.0480018438354
 30
0.0
  0
VERTEX
  5
219
  8
FAB_2$FISHBOWL$WALLS_SIDE
 10
-6347.065912253587
 20
621.0953677323315
 30
0.0
  0
VERTEX
  5
21A
  8
FAB_2$FISHBOWL$WALLS_SIDE
 10
-6347.020878115385
 20
621.1445506810678
 30
0.0
  0
VERTEX
  5
21B
  8
FAB_2$FISHBOWL$WALLS_SIDE
 10
-6346.976933757187
 20
621.1953492895509
 30
0.0
  0
VERTEX
  5
21C
  8
FAB_2$FISHBOWL$WALLS_SIDE
 10
-6346.933929765101
 20
621.2475621572879
 30
0.0
  0
VERTEX
  5
21D
  8
FAB_2$FISHBOWL$WALLS_SIDE
 10
-6346.891716725235
 20
621.3009878837858
 30
0.0
  0
VERTEX
  5
21E
  8
FAB_2$FISHBOWL$WALLS_SIDE
 10
-6346.564557019056
 20
621.7478885519774
 30
0.0
  0
VERTEX
  5
21F
  8
FAB_2$FISHBOWL$WALLS_SIDE
 10
-6346.480217642209
 20
621.857644272113
 30
0.0
  0
VERTEX
  5
220
  8
FAB_2$FISHBOWL$WALLS_SIDE
 10
-6346.43684375983
 20
621.9111190124318
 30
0.0
  0
VERTEX
  5
221
  8
FAB_2$FISHBOWL$WALLS_SIDE
 10
-6346.392467862957
 20
621.9633898055936
 30
0.0
  0
VERTEX
  5
222
  8
FAB_2$FISHBOWL$WALLS_SIDE
 10
-6346.346940537697
 20
622.0142552511054
 30
0.0
  0
VERTEX
  5
223
  8
FAB_2$FISHBOWL$WALLS_SIDE
 10
-6346.300112370158
 20
622.0635139484739
 30
0.0
  0
VERTEX
  5
224
  8
FAB_2$FISHBOWL$WALLS_SIDE
 10
-6346.251866924014
 20
622.1110057982017
 30
0.0
  0
VERTEX
  5
225
  8
FAB_2$FISHBOWL$WALLS_SIDE
 10
-6346.202219673212
 20
622.1567359047742
 30
0.0
  0
VERTEX
  5
226
  8
FAB_2$FISHBOWL$WALLS_SIDE
 10
-6346.151219069267
 20
622.200750673672
 30
0.0
  0
VERTEX
  5
227
  8
FAB_2$FISHBOWL$WALLS_SIDE
 10
-6346.098913563689
 20
622.243096510376
 30
0.0
  0
VERTEX
  5
228
  8
FAB_2$FISHBOWL$WALLS_SIDE
 10
-6346.045351607996
 20
622.283819820367
 30
0.0
  0
VERTEX
  5
229
  8
FAB_2$FISHBOWL$WALLS_SIDE
 10
-6345.990581653701
 20
622.3229670091258
 30
0.0
  0
VERTEX
  5
22A
  8
FAB_2$FISHBOWL$WALLS_SIDE
 10
-6345.934652152318
 20
622.3605844821334
 30
0.0
  0
VERTEX
  5
22B
  8
FAB_2$FISHBOWL$WALLS_SIDE
 10
-6345.877611555361
 20
622.3967186448706
 30
0.0
  0
VERTEX
  5
22C
  8
FAB_2$FISHBOWL$WALLS_SIDE
 10
-6345.819508314344
 20
622.4314159028181
 30
0.0
  0
VERTEX
  5
22D
  8
FAB_2$FISHBOWL$WALLS_SIDE
 10
-6345.760390880781
 20
622.4647226614569
 30
0.0
  0
VERTEX
  5
22E
  8
FAB_2$FISHBOWL$WALLS_SIDE
 10
-6345.700307706185
 20
622.4966853262678
 30
0.0
  0
VERTEX
  5
22F
  8
FAB_2$FISHBOWL$WALLS_SIDE
 10
-6345.639307242071
 20
622.5273503027316
 30
0.0
  0
VERTEX
  5
230
  8
FAB_2$FISHBOWL$WALLS_SIDE
 10
-6345.577437939954
 20
622.5567639963292
 30
0.0
  0
VERTEX
  5
231
  8
FAB_2$FISHBOWL$WALLS_SIDE
 10
-6345.514748251346
 20
622.5849728125414
 30
0.0
  0
VERTEX
  5
232
  8
FAB_2$FISHBOWL$WALLS_SIDE
 10
-6345.451286627762
 20
622.612023156849
 30
0.0
  0
VERTEX
  5
233
  8
FAB_2$FISHBOWL$WALLS_SIDE
 10
-6345.387101520716
 20
622.6379614347329
 30
0.0
  0
VERTEX
  5
234
  8
FAB_2$FISHBOWL$WALLS_SIDE
 10
-6345.256754662295
 20
622.6866874131529
 30
0.0
  0
VERTEX
  5
235
  8
FAB_2$FISHBOWL$WALLS_SIDE
 10
-6345.124095288193
 20
622.7315219916479
 30
0.0
  0
VERTEX
  5
236
  8
FAB_2$FISHBOWL$WALLS_SIDE
 10
-6344.989511010524
 20
622.772836414065
 30
0.0
  0
VERTEX
  5
237
  8
FAB_2$FISHBOWL$WALLS_SIDE
 10
-6344.853389441398
 20
622.8110019242506
 30
0.0
  0
VERTEX
  5
238
  8
FAB_2$FISHBOWL$WALLS_SIDE
 10
-6344.716118192928
 20
622.8463897660515
 30
0.0
  0
VERTEX
  5
239
  8
FAB_2$FISHBOWL$WALLS_SIDE
 10
-6344.578084877227
 20
622.8793711833146
 30
0.0
  0
VERTEX
  5
23A
  8
FAB_2$FISHBOWL$WALLS_SIDE
 10
-6344.301282492579
 20
622.9395997196135
 30
0.0
  0
VERTEX
  5
23B
  8
FAB_2$FISHBOWL$WALLS_SIDE
 10
-6344.025532970713
 20
622.9940802943046
 30
0.0
  0
VERTEX
  5
23C
  8
FAB_2$FISHBOWL$WALLS_SIDE
 10
-6343.751186140355
 20
623.0428969100788
 30
0.0
  0
VERTEX
  5
23D
  8
FAB_2$FISHBOWL$WALLS_SIDE
 10
-6343.478041616586
 20
623.0855563800098
 30
0.0
  0
VERTEX
  5
23E
  8
FAB_2$FISHBOWL$WALLS_SIDE
 10
-6343.205899014495
 20
623.121565517172
 30
0.0
  0
VERTEX
  5
23F
  8
FAB_2$FISHBOWL$WALLS_SIDE
 10
-6342.934557949167
 20
623.1504311346393
 30
0.0
  0
VERTEX
  5
240
  8
FAB_2$FISHBOWL$WALLS_SIDE
 10
-6342.663818035688
 20
623.171660045486
 30
0.0
  0
VERTEX
  5
241
  8
FAB_2$FISHBOWL$WALLS_SIDE
 10
-6342.393478889145
 20
623.1847590627859
 30
0.0
  0
VERTEX
  5
242
  8
FAB_2$FISHBOWL$WALLS_SIDE
 10
-6342.123340124622
 20
623.1892349996133
 30
0.0
  0
VERTEX
  5
243
  8
FAB_2$FISHBOWL$WALLS_SIDE
 10
-6341.853201357333
 20
623.1847590647658
 30
0.0
  0
VERTEX
  5
244
  8
FAB_2$FISHBOWL$WALLS_SIDE
 10
-6341.582862202995
 20
623.1716600499349
 30
0.0
  0
VERTEX
  5
245
  8
FAB_2$FISHBOWL$WALLS_SIDE
 10
-6341.312122277451
 20
623.1504311425356
 30
0.0
  0
VERTEX
  5
246
  8
FAB_2$FISHBOWL$WALLS_SIDE
 10
-6341.040781196544
 20
623.1215655299832
 30
0.0
  0
VERTEX
  5
247
  8
FAB_2$FISHBOWL$WALLS_SIDE
 10
-6340.768638576119
 20
623.0855563996927
 30
0.0
  0
VERTEX
  5
248
  8
FAB_2$FISHBOWL$WALLS_SIDE
 10
-6340.49549403202
 20
623.0428969390794
 30
0.0
  0
VERTEX
  5
249
  8
FAB_2$FISHBOWL$WALLS_SIDE
 10
-6340.221147180089
 20
622.9940803355581
 30
0.0
  0
VERTEX
  5
24A
  8
FAB_2$FISHBOWL$WALLS_SIDE
 10
-6339.945397636172
 20
622.9395997765441
 30
0.0
  0
VERTEX
  5
24B
  8
FAB_2$FISHBOWL$WALLS_SIDE
 10
-6339.668595229844
 20
622.8793712594176
 30
0.0
  0
VERTEX
  5
24C
  8
FAB_2$FISHBOWL$WALLS_SIDE
 10
-6339.530561903829
 20
622.846389852577
 30
0.0
  0
VERTEX
  5
24D
  8
FAB_2$FISHBOWL$WALLS_SIDE
 10
-6339.393290645624
 20
622.8110020214191
 30
0.0
  0
VERTEX
  5
24E
  8
FAB_2$FISHBOWL$WALLS_SIDE
 10
-6339.257169067508
 20
622.7728365218447
 30
0.0
  0
VERTEX
  5
24F
  8
FAB_2$FISHBOWL$WALLS_SIDE
 10
-6339.122584781762
 20
622.7315221097546
 30
0.0
  0
VERTEX
  5
250
  8
FAB_2$FISHBOWL$WALLS_SIDE
 10
-6338.989925400669
 20
622.6866875410494
 30
0.0
  0
VERTEX
  5
251
  8
FAB_2$FISHBOWL$WALLS_SIDE
 10
-6338.859578536509
 20
622.6379615716297
 30
0.0
  0
VERTEX
  5
252
  8
FAB_2$FISHBOWL$WALLS_SIDE
 10
-6338.795393427117
 20
622.612023297871
 30
0.0
  0
VERTEX
  5
253
  8
FAB_2$FISHBOWL$WALLS_SIDE
 10
-6338.731931801564
 20
622.5849729573965
 30
0.0
  0
VERTEX
  5
254
  8
FAB_2$FISHBOWL$WALLS_SIDE
 10
-6338.669242111385
 20
622.5567641446937
 30
0.0
  0
VERTEX
  5
255
  8
FAB_2$FISHBOWL$WALLS_SIDE
 10
-6338.607372808116
 20
622.5273504542504
 30
0.0
  0
VERTEX
  5
256
  8
FAB_2$FISHBOWL$WALLS_SIDE
 10
-6338.546372343289
 20
622.4966854805539
 30
0.0
  0
VERTEX
  5
257
  8
FAB_2$FISHBOWL$WALLS_SIDE
 10
-6338.486289168444
 20
622.464722818092
 30
0.0
  0
VERTEX
  5
258
  8
FAB_2$FISHBOWL$WALLS_SIDE
 10
-6338.427171735115
 20
622.4314160613524
 30
0.0
  0
VERTEX
  5
259
  8
FAB_2$FISHBOWL$WALLS_SIDE
 10
-6338.369068494834
 20
622.3967188048223
 30
0.0
  0
VERTEX
  5
25A
  8
FAB_2$FISHBOWL$WALLS_SIDE
 10
-6338.312027899139
 20
622.3605846429896
 30
0.0
  0
VERTEX
  5
25B
  8
FAB_2$FISHBOWL$WALLS_SIDE
 10
-6338.256098399565
 20
622.3229671703418
 30
0.0
  0
VERTEX
  5
25C
  8
FAB_2$FISHBOWL$WALLS_SIDE
 10
-6338.201328447644
 20
622.2838199813666
 30
0.0
  0
VERTEX
  5
25D
  8
FAB_2$FISHBOWL$WALLS_SIDE
 10
-6338.147766494916
 20
622.2430966705514
 30
0.0
  0
VERTEX
  5
25E
  8
FAB_2$FISHBOWL$WALLS_SIDE
 10
-6338.095460992912
 20
622.2007508323838
 30
0.0
  0
VERTEX
  5
25F
  8
FAB_2$FISHBOWL$WALLS_SIDE
 10
-6338.04446039317
 20
622.1567360613517
 30
0.0
  0
VERTEX
  5
260
  8
FAB_2$FISHBOWL$WALLS_SIDE
 10
-6337.994813147224
 20
622.1110059519423
 30
0.0
  0
VERTEX
  5
261
  8
FAB_2$FISHBOWL$WALLS_SIDE
 10
-6337.946567706609
 20
622.0635140986433
 30
0.0
  0
VERTEX
  5
262
  8
FAB_2$FISHBOWL$WALLS_SIDE
 10
-6337.899739545279
 20
622.0142553969545
 30
0.0
  0
VERTEX
  5
263
  8
FAB_2$FISHBOWL$WALLS_SIDE
 10
-6337.854212226854
 20
621.9633899464243
 30
0.0
  0
VERTEX
  5
264
  8
FAB_2$FISHBOWL$WALLS_SIDE
 10
-6337.809836337375
 20
621.9111191476134
 30
0.0
  0
VERTEX
  5
265
  8
FAB_2$FISHBOWL$WALLS_SIDE
 10
-6337.766462462879
 20
621.8576444010821
 30
0.0
  0
VERTEX
  5
266
  8
FAB_2$FISHBOWL$WALLS_SIDE
 10
-6337.682123102999
 20
621.7478886671008
 30
0.0
  0
VERTEX
  5
267
  8
FAB_2$FISHBOWL$WALLS_SIDE
 10
-6337.354963470726
 20
621.3009879344748
 30
0.0
  0
VERTEX
  5
268
  8
FAB_2$FISHBOWL$WALLS_SIDE
 10
-6337.312750439657
 20
621.2475622000168
 30
0.0
  0
VERTEX
  5
269
  8
FAB_2$FISHBOWL$WALLS_SIDE
 10
-6337.269746456043
 20
621.1953493245652
 30
0.0
  0
VERTEX
  5
26A
  8
FAB_2$FISHBOWL$WALLS_SIDE
 10
-6337.225802105926
 20
621.1445507086804
 30
0.0
  0
VERTEX
  5
26B
  8
FAB_2$FISHBOWL$WALLS_SIDE
 10
-6337.180767975344
 20
621.095367752923
 30
0.0
  0
VERTEX
  5
26C
  8
FAB_2$FISHBOWL$WALLS_SIDE
 10
-6337.134494650337
 20
621.0480018578537
 30
0.0
  0
VERTEX
  5
26D
  8
FAB_2$FISHBOWL$WALLS_SIDE
 10
-6337.110846598061
 20
621.0250632457523
 30
0.0
  0
VERTEX
  5
26E
  8
FAB_2$FISHBOWL$WALLS_SIDE
 10
-6337.086832716943
 20
621.002654424033
 30
0.0
  0
VERTEX
  5
26F
  8
FAB_2$FISHBOWL$WALLS_SIDE
 10
-6337.062434330237
 20
620.9808005677661
 30
0.0
  0
VERTEX
  5
270
  8
FAB_2$FISHBOWL$WALLS_SIDE
 10
-6337.037632761201
 20
620.9595268520214
 30
0.0
  0
VERTEX
  5
271
  8
FAB_2$FISHBOWL$WALLS_SIDE
 10
-6337.012409333089
 20
620.9388584518692
 30
0.0
  0
VERTEX
  5
272
  8
FAB_2$FISHBOWL$WALLS_SIDE
 10
-6336.986745369154
 20
620.9188205423794
 30
0.0
  0
VERTEX
  5
273
  8
FAB_2$FISHBOWL$WALLS_SIDE
 10
-6336.960622192652
 20
620.8994382986223
 30
0.0
  0
VERTEX
  5
274
  8
FAB_2$FISHBOWL$WALLS_SIDE
 10
-6336.934021126838
 20
620.8807368956677
 30
0.0
  0
VERTEX
  5
275
  8
FAB_2$FISHBOWL$WALLS_SIDE
 10
-6336.906923494967
 20
620.8627415085857
 30
0.0
  0
VERTEX
  5
276
  8
FAB_2$FISHBOWL$WALLS_SIDE
 10
-6336.879310620293
 20
620.8454773124467
 30
0.0
  0
VERTEX
  5
277
  8
FAB_2$FISHBOWL$WALLS_SIDE
 10
-6336.851163826072
 20
620.8289694823204
 30
0.0
  0
VERTEX
  5
278
  8
FAB_2$FISHBOWL$WALLS_SIDE
 10
-6336.822464435558
 20
620.8132431932772
 30
0.0
  0
VERTEX
  5
279
  8
FAB_2$FISHBOWL$WALLS_SIDE
 10
-6336.793193772007
 20
620.7983236203868
 30
0.0
  0
VERTEX
  5
27A
  8
FAB_2$FISHBOWL$WALLS_SIDE
 10
-6336.763333158674
 20
620.7842359387193
 30
0.0
  0
VERTEX
  5
27B
  8
FAB_2$FISHBOWL$WALLS_SIDE
 10
-6336.732863918813
 20
620.771005323345
 30
0.0
  0
VERTEX
  5
27C
  8
FAB_2$FISHBOWL$WALLS_SIDE
 10
-6336.701767375679
 20
620.758656949334
 30
0.0
  0
VERTEX
  5
27D
  8
FAB_2$FISHBOWL$WALLS_SIDE
 10
-6336.670024852527
 20
620.7472159917561
 30
0.0
  0
VERTEX
  5
27E
  8
FAB_2$FISHBOWL$WALLS_SIDE
 10
-6336.637617672612
 20
620.7367076256817
 30
0.0
  0
VERTEX
  5
27F
  8
FAB_2$FISHBOWL$WALLS_SIDE
 10
-6336.604527159188
 20
620.7271570261805
 30
0.0
  0
VERTEX
  5
280
  8
FAB_2$FISHBOWL$WALLS_SIDE
 10
-6336.570734635512
 20
620.7185893683229
 30
0.0
  0
VERTEX
  5
281
  8
FAB_2$FISHBOWL$WALLS_SIDE
 10
-6336.536221424838
 20
620.7110298271787
 30
0.0
  0
VERTEX
  5
282
  8
FAB_2$FISHBOWL$WALLS_SIDE
 10
-6336.500968850421
 20
620.7045035778182
 30
0.0
  0
VERTEX
  5
283
  8
FAB_2$FISHBOWL$WALLS_SIDE
 10
-6336.464958235514
 20
620.6990357953113
 30
0.0
  0
VERTEX
  5
284
  8
FAB_2$FISHBOWL$WALLS_SIDE
 10
-6336.428170903375
 20
620.6946516547281
 30
0.0
  0
VERTEX
  5
285
  8
FAB_2$FISHBOWL$WALLS_SIDE
 10
-6336.390588177257
 20
620.6913763311388
 30
0.0
  0
VERTEX
  5
286
  8
FAB_2$FISHBOWL$WALLS_SIDE
 10
-6336.352191380415
 20
620.6892349996133
 30
0.0
  0
VERTEX
  5
287
  8
FAB_2$FISHBOWL$WALLS_SIDE
 10
-6324.843340124622
 20
620.6892349996151
 30
0.0
 42
0.414213562373075
  0
VERTEX
  5
288
  8
FAB_2$FISHBOWL$WALLS_SIDE
 10
-6322.123340124623
 20
623.4092349996145
 30
0.0
  0
VERTEX
  5
289
  8
FAB_2$FISHBOWL$WALLS_SIDE
 10
-6322.123340124623
 20
989.1671150767016
 30
0.0
 42
0.4142135623732986
  0
VERTEX
  5
28A
  8
FAB_2$FISHBOWL$WALLS_SIDE
 10
-6324.843340124623
 20
991.8871150767027
 30
0.0
  0
VERTEX
  5
28B
  8
FAB_2$FISHBOWL$WALLS_SIDE
 10
-6336.352191380414
 20
991.8871150767026
 30
0.0
  0
VERTEX
  5
28C
  8
FAB_2$FISHBOWL$WALLS_SIDE
 10
-6336.390588174098
 20
991.8849737423152
 30
0.0
  0
VERTEX
  5
28D
  8
FAB_2$FISHBOWL$WALLS_SIDE
 10
-6336.428170897419
 20
991.8816984162033
 30
0.0
  0
VERTEX
  5
28E
  8
FAB_2$FISHBOWL$WALLS_SIDE
 10
-6336.464958227114
 20
991.8773142734289
 30
0.0
  0
VERTEX
  5
28F
  8
FAB_2$FISHBOWL$WALLS_SIDE
 10
-6336.50096883992
 20
991.8718464890533
 30
0.0
  0
VERTEX
  5
290
  8
FAB_2$FISHBOWL$WALLS_SIDE
 10
-6336.536221412574
 20
991.8653202381382
 30
0.0
  0
VERTEX
  5
291
  8
FAB_2$FISHBOWL$WALLS_SIDE
 10
-6336.570734621811
 20
991.8577606957454
 30
0.0
  0
VERTEX
  5
292
  8
FAB_2$FISHBOWL$WALLS_SIDE
 10
-6336.60452714437
 20
991.8491930369364
 30
0.0
  0
VERTEX
  5
293
  8
FAB_2$FISHBOWL$WALLS_SIDE
 10
-6336.637617656985
 20
991.8396424367729
 30
0.0
  0
VERTEX
  5
294
  8
FAB_2$FISHBOWL$WALLS_SIDE
 10
-6336.670024836394
 20
991.8291340703165
 30
0.0
  0
VERTEX
  5
295
  8
FAB_2$FISHBOWL$WALLS_SIDE
 10
-6336.701767359333
 20
991.8176931126291
 30
0.0
  0
VERTEX
  5
296
  8
FAB_2$FISHBOWL$WALLS_SIDE
 10
-6336.73286390254
 20
991.8053447387717
 30
0.0
  0
VERTEX
  5
297
  8
FAB_2$FISHBOWL$WALLS_SIDE
 10
-6336.76333314275
 20
991.7921141238066
 30
0.0
  0
VERTEX
  5
298
  8
FAB_2$FISHBOWL$WALLS_SIDE
 10
-6336.793193756699
 20
991.7780264427952
 30
0.0
  0
VERTEX
  5
299
  8
FAB_2$FISHBOWL$WALLS_SIDE
 10
-6336.822464421127
 20
991.7631068707991
 30
0.0
  0
VERTEX
  5
29A
  8
FAB_2$FISHBOWL$WALLS_SIDE
 10
-6336.851163812767
 20
991.74738058288
 30
0.0
  0
VERTEX
  5
29B
  8
FAB_2$FISHBOWL$WALLS_SIDE
 10
-6336.879310608358
 20
991.7308727540997
 30
0.0
  0
VERTEX
  5
29C
  8
FAB_2$FISHBOWL$WALLS_SIDE
 10
-6336.906923484635
 20
991.7136085595193
 30
0.0
  0
VERTEX
  5
29D
  8
FAB_2$FISHBOWL$WALLS_SIDE
 10
-6336.934021118334
 20
991.6956131742011
 30
0.0
  0
VERTEX
  5
29E
  8
FAB_2$FISHBOWL$WALLS_SIDE
 10
-6336.960622186194
 20
991.6769117732064
 30
0.0
  0
VERTEX
  5
29F
  8
FAB_2$FISHBOWL$WALLS_SIDE
 10
-6336.98674536495
 20
991.6575295315968
 30
0.0
  0
VERTEX
  5
2A0
  8
FAB_2$FISHBOWL$WALLS_SIDE
 10
-6337.012409331339
 20
991.637491624434
 30
0.0
  0
VERTEX
  5
2A1
  8
FAB_2$FISHBOWL$WALLS_SIDE
 10
-6337.037632762098
 20
991.6168232267798
 30
0.0
  0
VERTEX
  5
2A2
  8
FAB_2$FISHBOWL$WALLS_SIDE
 10
-6337.062434333962
 20
991.5955495136957
 30
0.0
  0
VERTEX
  5
2A3
  8
FAB_2$FISHBOWL$WALLS_SIDE
 10
-6337.086832723669
 20
991.5736956602434
 30
0.0
  0
VERTEX
  5
2A4
  8
FAB_2$FISHBOWL$WALLS_SIDE
 10
-6337.110846607956
 20
991.5512868414845
 30
0.0
  0
VERTEX
  5
2A5
  8
FAB_2$FISHBOWL$WALLS_SIDE
 10
-6337.134494663559
 20
991.5283482324805
 30
0.0
  0
VERTEX
  5
2A6
  8
FAB_2$FISHBOWL$WALLS_SIDE
 10
-6337.180767995658
 20
991.4809823439845
 30
0.0
  0
VERTEX
  5
2A7
  8
FAB_2$FISHBOWL$WALLS_SIDE
 10
-6337.22580213386
 20
991.4317993952482
 30
0.0
  0
VERTEX
  5
2A8
  8
FAB_2$FISHBOWL$WALLS_SIDE
 10
-6337.269746492058
 20
991.381000786765
 30
0.0
  0
VERTEX
  5
2A9
  8
FAB_2$FISHBOWL$WALLS_SIDE
 10
-6337.312750484144
 20
991.3287879190278
 30
0.0
  0
VERTEX
  5
2AA
  8
FAB_2$FISHBOWL$WALLS_SIDE
 10
-6337.354963524011
 20
991.2753621925301
 30
0.0
  0
VERTEX
  5
2AB
  8
FAB_2$FISHBOWL$WALLS_SIDE
 10
-6337.68212323019
 20
990.8284615243385
 30
0.0
  0
VERTEX
  5
2AC
  8
FAB_2$FISHBOWL$WALLS_SIDE
 10
-6337.766462607038
 20
990.718705804203
 30
0.0
  0
VERTEX
  5
2AD
  8
FAB_2$FISHBOWL$WALLS_SIDE
 10
-6337.809836489418
 20
990.6652310638842
 30
0.0
  0
VERTEX
  5
2AE
  8
FAB_2$FISHBOWL$WALLS_SIDE
 10
-6337.85421238629
 20
990.6129602707224
 30
0.0
  0
VERTEX
  5
2AF
  8
FAB_2$FISHBOWL$WALLS_SIDE
 10
-6337.89973971155
 20
990.5620948252108
 30
0.0
  0
VERTEX
  5
2B0
  8
FAB_2$FISHBOWL$WALLS_SIDE
 10
-6337.946567879089
 20
990.5128361278422
 30
0.0
  0
VERTEX
  5
2B1
  8
FAB_2$FISHBOWL$WALLS_SIDE
 10
-6337.994813325232
 20
990.4653442781143
 30
0.0
  0
VERTEX
  5
2B2
  8
FAB_2$FISHBOWL$WALLS_SIDE
 10
-6338.044460576035
 20
990.419614171542
 30
0.0
  0
VERTEX
  5
2B3
  8
FAB_2$FISHBOWL$WALLS_SIDE
 10
-6338.095461179981
 20
990.3755994026442
 30
0.0
  0
VERTEX
  5
2B4
  8
FAB_2$FISHBOWL$WALLS_SIDE
 10
-6338.147766685557
 20
990.3332535659403
 30
0.0
  0
VERTEX
  5
2B5
  8
FAB_2$FISHBOWL$WALLS_SIDE
 10
-6338.201328641249
 20
990.2925302559493
 30
0.0
  0
VERTEX
  5
2B6
  8
FAB_2$FISHBOWL$WALLS_SIDE
 10
-6338.256098595544
 20
990.2533830671904
 30
0.0
  0
VERTEX
  5
2B7
  8
FAB_2$FISHBOWL$WALLS_SIDE
 10
-6338.312028096928
 20
990.2157655941828
 30
0.0
  0
VERTEX
  5
2B8
  8
FAB_2$FISHBOWL$WALLS_SIDE
 10
-6338.369068693884
 20
990.1796314314456
 30
0.0
  0
VERTEX
  5
2B9
  8
FAB_2$FISHBOWL$WALLS_SIDE
 10
-6338.427171934902
 20
990.1449341734981
 30
0.0
  0
VERTEX
  5
2BA
  8
FAB_2$FISHBOWL$WALLS_SIDE
 10
-6338.486289368466
 20
990.1116274148593
 30
0.0
  0
VERTEX
  5
2BB
  8
FAB_2$FISHBOWL$WALLS_SIDE
 10
-6338.546372543062
 20
990.0796647500484
 30
0.0
  0
VERTEX
  5
2BC
  8
FAB_2$FISHBOWL$WALLS_SIDE
 10
-6338.607373007175
 20
990.0489997735846
 30
0.0
  0
VERTEX
  5
2BD
  8
FAB_2$FISHBOWL$WALLS_SIDE
 10
-6338.669242309292
 20
990.019586079987
 30
0.0
  0
VERTEX
  5
2BE
  8
FAB_2$FISHBOWL$WALLS_SIDE
 10
-6338.731931997901
 20
989.9913772637748
 30
0.0
  0
VERTEX
  5
2BF
  8
FAB_2$FISHBOWL$WALLS_SIDE
 10
-6338.795393621484
 20
989.9643269194672
 30
0.0
  0
VERTEX
  5
2C0
  8
FAB_2$FISHBOWL$WALLS_SIDE
 10
-6338.85957872853
 20
989.9383886415833
 30
0.0
  0
VERTEX
  5
2C1
  8
FAB_2$FISHBOWL$WALLS_SIDE
 10
-6338.989925586952
 20
989.8896626631633
 30
0.0
  0
VERTEX
  5
2C2
  8
FAB_2$FISHBOWL$WALLS_SIDE
 10
-6339.122584961055
 20
989.8448280846683
 30
0.0
  0
VERTEX
  5
2C3
  8
FAB_2$FISHBOWL$WALLS_SIDE
 10
-6339.257169238724
 20
989.8035136622512
 30
0.0
  0
VERTEX
  5
2C4
  8
FAB_2$FISHBOWL$WALLS_SIDE
 10
-6339.39329080785
 20
989.7653481520656
 30
0.0
  0
VERTEX
  5
2C5
  8
FAB_2$FISHBOWL$WALLS_SIDE
 10
-6339.530562056319
 20
989.7299603102646
 30
0.0
  0
VERTEX
  5
2C6
  8
FAB_2$FISHBOWL$WALLS_SIDE
 10
-6339.668595372019
 20
989.6969788930016
 30
0.0
  0
VERTEX
  5
2C7
  8
FAB_2$FISHBOWL$WALLS_SIDE
 10
-6339.945397756667
 20
989.6367503567026
 30
0.0
  0
VERTEX
  5
2C8
  8
FAB_2$FISHBOWL$WALLS_SIDE
 10
-6340.221147278532
 20
989.5822697820113
 30
0.0
  0
VERTEX
  5
2C9
  8
FAB_2$FISHBOWL$WALLS_SIDE
 10
-6340.495494108891
 20
989.5334531662372
 30
0.0
  0
VERTEX
  5
2CA
  8
FAB_2$FISHBOWL$WALLS_SIDE
 10
-6340.76863863266
 20
989.4907936963061
 30
0.0
  0
VERTEX
  5
2CB
  8
FAB_2$FISHBOWL$WALLS_SIDE
 10
-6341.04078123475
 20
989.454784559144
 30
0.0
  0
VERTEX
  5
2CC
  8
FAB_2$FISHBOWL$WALLS_SIDE
 10
-6341.312122300078
 20
989.4259189416766
 30
0.0
  0
VERTEX
  5
2CD
  8
FAB_2$FISHBOWL$WALLS_SIDE
 10
-6341.582862213558
 20
989.40469003083
 30
0.0
  0
VERTEX
  5
2CE
  8
FAB_2$FISHBOWL$WALLS_SIDE
 10
-6341.853201360101
 20
989.39159101353
 30
0.0
  0
VERTEX
  5
2CF
  8
FAB_2$FISHBOWL$WALLS_SIDE
 10
-6342.123340124624
 20
989.3871150767027
 30
0.0
  0
VERTEX
  5
2D0
  8
FAB_2$FISHBOWL$WALLS_SIDE
 10
-6342.393478891912
 20
989.3915910115502
 30
0.0
  0
VERTEX
  5
2D1
  8
FAB_2$FISHBOWL$WALLS_SIDE
 10
-6342.663818046251
 20
989.4046900263811
 30
0.0
  0
VERTEX
  5
2D2
  8
FAB_2$FISHBOWL$WALLS_SIDE
 10
-6342.934557971795
 20
989.4259189337804
 30
0.0
  0
VERTEX
  5
2D3
  8
FAB_2$FISHBOWL$WALLS_SIDE
 10
-6343.205899052701
 20
989.4547845463328
 30
0.0
  0
VERTEX
  5
2D4
  8
FAB_2$FISHBOWL$WALLS_SIDE
 10
-6343.478041673126
 20
989.4907936766233
 30
0.0
  0
VERTEX
  5
2D5
  8
FAB_2$FISHBOWL$WALLS_SIDE
 10
-6343.751186217225
 20
989.5334531372366
 30
0.0
  0
VERTEX
  5
2D6
  8
FAB_2$FISHBOWL$WALLS_SIDE
 10
-6344.025533069156
 20
989.582269740758
 30
0.0
  0
VERTEX
  5
2D7
  8
FAB_2$FISHBOWL$WALLS_SIDE
 10
-6344.301282613073
 20
989.636750299772
 30
0.0
  0
VERTEX
  5
2D8
  8
FAB_2$FISHBOWL$WALLS_SIDE
 10
-6344.5780850194
 20
989.6969788168985
 30
0.0
  0
VERTEX
  5
2D9
  8
FAB_2$FISHBOWL$WALLS_SIDE
 10
-6344.716118345415
 20
989.7299602237391
 30
0.0
  0
VERTEX
  5
2DA
  8
FAB_2$FISHBOWL$WALLS_SIDE
 10
-6344.853389603621
 20
989.765348054897
 30
0.0
  0
VERTEX
  5
2DB
  8
FAB_2$FISHBOWL$WALLS_SIDE
 10
-6344.989511181738
 20
989.8035135544714
 30
0.0
  0
VERTEX
  5
2DC
  8
FAB_2$FISHBOWL$WALLS_SIDE
 10
-6345.124095467483
 20
989.8448279665615
 30
0.0
  0
VERTEX
  5
2DD
  8
FAB_2$FISHBOWL$WALLS_SIDE
 10
-6345.256754848576
 20
989.8896625352668
 30
0.0
  0
VERTEX
  5
2DE
  8
FAB_2$FISHBOWL$WALLS_SIDE
 10
-6345.387101712736
 20
989.9383885046864
 30
0.0
  0
VERTEX
  5
2DF
  8
FAB_2$FISHBOWL$WALLS_SIDE
 10
-6345.451286822128
 20
989.964326778445
 30
0.0
  0
VERTEX
  5
2E0
  8
FAB_2$FISHBOWL$WALLS_SIDE
 10
-6345.51474844768
 20
989.9913771189196
 30
0.0
  0
VERTEX
  5
2E1
  8
FAB_2$FISHBOWL$WALLS_SIDE
 10
-6345.577438137859
 20
990.0195859316224
 30
0.0
  0
VERTEX
  5
2E2
  8
FAB_2$FISHBOWL$WALLS_SIDE
 10
-6345.639307441128
 20
990.0489996220657
 30
0.0
  0
VERTEX
  5
2E3
  8
FAB_2$FISHBOWL$WALLS_SIDE
 10
-6345.700307905954
 20
990.0796645957621
 30
0.0
  0
VERTEX
  5
2E4
  8
FAB_2$FISHBOWL$WALLS_SIDE
 10
-6345.760391080799
 20
990.111627258224
 30
0.0
  0
VERTEX
  5
2E5
  8
FAB_2$FISHBOWL$WALLS_SIDE
 10
-6345.81950851413
 20
990.1449340149636
 30
0.0
  0
VERTEX
  5
2E6
  8
FAB_2$FISHBOWL$WALLS_SIDE
 10
-6345.87761175441
 20
990.1796312714937
 30
0.0
  0
VERTEX
  5
2E7
  8
FAB_2$FISHBOWL$WALLS_SIDE
 10
-6345.934652350105
 20
990.2157654333264
 30
0.0
  0
VERTEX
  5
2E8
  8
FAB_2$FISHBOWL$WALLS_SIDE
 10
-6345.990581849681
 20
990.2533829059741
 30
0.0
  0
VERTEX
  5
2E9
  8
FAB_2$FISHBOWL$WALLS_SIDE
 10
-6346.045351801601
 20
990.2925300949494
 30
0.0
  0
VERTEX
  5
2EA
  8
FAB_2$FISHBOWL$WALLS_SIDE
 10
-6346.098913754329
 20
990.3332534057646
 30
0.0
  0
VERTEX
  5
2EB
  8
FAB_2$FISHBOWL$WALLS_SIDE
 10
-6346.151219256333
 20
990.3755992439321
 30
0.0
  0
VERTEX
  5
2EC
  8
FAB_2$FISHBOWL$WALLS_SIDE
 10
-6346.202219856075
 20
990.4196140149643
 30
0.0
  0
VERTEX
  5
2ED
  8
FAB_2$FISHBOWL$WALLS_SIDE
 10
-6346.251867102022
 20
990.4653441243737
 30
0.0
  0
VERTEX
  5
2EE
  8
FAB_2$FISHBOWL$WALLS_SIDE
 10
-6346.300112542636
 20
990.5128359776727
 30
0.0
  0
VERTEX
  5
2EF
  8
FAB_2$FISHBOWL$WALLS_SIDE
 10
-6346.346940703967
 20
990.5620946793615
 30
0.0
  0
VERTEX
  5
2F0
  8
FAB_2$FISHBOWL$WALLS_SIDE
 10
-6346.392468022392
 20
990.6129601298917
 30
0.0
  0
VERTEX
  5
2F1
  8
FAB_2$FISHBOWL$WALLS_SIDE
 10
-6346.436843911871
 20
990.6652309287026
 30
0.0
  0
VERTEX
  5
2F2
  8
FAB_2$FISHBOWL$WALLS_SIDE
 10
-6346.480217786367
 20
990.7187056752339
 30
0.0
  0
VERTEX
  5
2F3
  8
FAB_2$FISHBOWL$WALLS_SIDE
 10
-6346.564557146246
 20
990.8284614092152
 30
0.0
  0
VERTEX
  5
2F4
  8
FAB_2$FISHBOWL$WALLS_SIDE
 10
-6346.891716778519
 20
991.2753621418411
 30
0.0
  0
VERTEX
  5
2F5
  8
FAB_2$FISHBOWL$WALLS_SIDE
 10
-6346.933929809588
 20
991.3287878762992
 30
0.0
  0
VERTEX
  5
2F6
  8
FAB_2$FISHBOWL$WALLS_SIDE
 10
-6346.976933793202
 20
991.3810007517508
 30
0.0
  0
VERTEX
  5
2F7
  8
FAB_2$FISHBOWL$WALLS_SIDE
 10
-6347.020878143319
 20
991.4317993676356
 30
0.0
  0
VERTEX
  5
2F8
  8
FAB_2$FISHBOWL$WALLS_SIDE
 10
-6347.065912273902
 20
991.4809823233929
 30
0.0
  0
VERTEX
  5
2F9
  8
FAB_2$FISHBOWL$WALLS_SIDE
 10
-6347.112185598909
 20
991.5283482184623
 30
0.0
  0
VERTEX
  5
2FA
  8
FAB_2$FISHBOWL$WALLS_SIDE
 10
-6347.135833651184
 20
991.5512868305636
 30
0.0
  0
VERTEX
  5
2FB
  8
FAB_2$FISHBOWL$WALLS_SIDE
 10
-6347.159847532303
 20
991.5736956522829
 30
0.0
  0
VERTEX
  5
2FC
  8
FAB_2$FISHBOWL$WALLS_SIDE
 10
-6347.184245919008
 20
991.5955495085499
 30
0.0
  0
VERTEX
  5
2FD
  8
FAB_2$FISHBOWL$WALLS_SIDE
 10
-6347.209047488044
 20
991.6168232242945
 30
0.0
  0
VERTEX
  5
2FE
  8
FAB_2$FISHBOWL$WALLS_SIDE
 10
-6347.234270916157
 20
991.6374916244467
 30
0.0
  0
VERTEX
  5
2FF
  8
FAB_2$FISHBOWL$WALLS_SIDE
 10
-6347.259934880091
 20
991.6575295339366
 30
0.0
  0
VERTEX
  5
300
  8
FAB_2$FISHBOWL$WALLS_SIDE
 10
-6347.286058056593
 20
991.6769117776937
 30
0.0
  0
VERTEX
  5
301
  8
FAB_2$FISHBOWL$WALLS_SIDE
 10
-6347.312659122407
 20
991.6956131806483
 30
0.0
  0
VERTEX
  5
302
  8
FAB_2$FISHBOWL$WALLS_SIDE
 10
-6347.339756754278
 20
991.7136085677303
 30
0.0
  0
VERTEX
  5
303
  8
FAB_2$FISHBOWL$WALLS_SIDE
 10
-6347.367369628952
 20
991.7308727638692
 30
0.0
  0
VERTEX
  5
304
  8
FAB_2$FISHBOWL$WALLS_SIDE
 10
-6347.395516423174
 20
991.7473805939956
 30
0.0
  0
VERTEX
  5
305
  8
FAB_2$FISHBOWL$WALLS_SIDE
 10
-6347.424215813688
 20
991.7631068830387
 30
0.0
  0
VERTEX
  5
306
  8
FAB_2$FISHBOWL$WALLS_SIDE
 10
-6347.453486477239
 20
991.7780264559292
 30
0.0
  0
VERTEX
  5
307
  8
FAB_2$FISHBOWL$WALLS_SIDE
 10
-6347.483347090571
 20
991.7921141375966
 30
0.0
  0
VERTEX
  5
308
  8
FAB_2$FISHBOWL$WALLS_SIDE
 10
-6347.513816330433
 20
991.805344752971
 30
0.0
  0
VERTEX
  5
309
  8
FAB_2$FISHBOWL$WALLS_SIDE
 10
-6347.544912873566
 20
991.817693126982
 30
0.0
  0
VERTEX
  5
30A
  8
FAB_2$FISHBOWL$WALLS_SIDE
 10
-6347.576655396719
 20
991.8291340845599
 30
0.0
  0
VERTEX
  5
30B
  8
FAB_2$FISHBOWL$WALLS_SIDE
 10
-6347.609062576634
 20
991.8396424506343
 30
0.0
  0
VERTEX
  5
30C
  8
FAB_2$FISHBOWL$WALLS_SIDE
 10
-6347.642153090057
 20
991.8491930501355
 30
0.0
  0
VERTEX
  5
30D
  8
FAB_2$FISHBOWL$WALLS_SIDE
 10
-6347.675945613733
 20
991.8577607079931
 30
0.0
  0
VERTEX
  5
30E
  8
FAB_2$FISHBOWL$WALLS_SIDE
 10
-6347.710458824407
 20
991.8653202491373
 30
0.0
  0
VERTEX
  5
30F
  8
FAB_2$FISHBOWL$WALLS_SIDE
 10
-6347.745711398825
 20
991.8718464984978
 30
0.0
  0
VERTEX
  5
310
  8
FAB_2$FISHBOWL$WALLS_SIDE
 10
-6347.781722013731
 20
991.8773142810047
 30
0.0
  0
VERTEX
  5
311
  8
FAB_2$FISHBOWL$WALLS_SIDE
 10
-6347.818509345871
 20
991.8816984215879
 30
0.0
  0
VERTEX
  5
312
  8
FAB_2$FISHBOWL$WALLS_SIDE
 10
-6347.856092071988
 20
991.8849737451771
 30
0.0
  0
SEQEND
  5
313
  8
FAB_2$FISHBOWL$WALLS_SIDE
  0
POLYLINE
  5
314
  8
FAB_2$FISHBOWL$WALLS_SIDE
 66
     1
 10
0.0
 20
0.0
 30
0.0
 70
     1
  0
VERTEX
  5
315
  8
FAB_2$FISHBOWL$WALLS_SIDE
 10
-6342.123340124623
 20
630.2792349996133
 30
0.0
  0
VERTEX
  5
316
  8
FAB_2$FISHBOWL$WALLS_SIDE
 10
-6337.253340124623
 20
630.2792349996133
 30
0.0
  0
VERTEX
  5
317
  8
FAB_2$FISHBOWL$WALLS_SIDE
 10
-6337.253340124623
 20
627.8192349996133
 30
0.0
  0
VERTEX
  5
318
  8
FAB_2$FISHBOWL$WALLS_SIDE
 10
-6346.993340124623
 20
627.8192349996133
 30
0.0
  0
VERTEX
  5
319
  8
FAB_2$FISHBOWL$WALLS_SIDE
 10
-6346.993340124623
 20
630.2792349996133
 30
0.0
  0
SEQEND
  5
31A
  8
FAB_2$FISHBOWL$WALLS_SIDE
  0
POLYLINE
  5
31B
  8
FAB_2$FISHBOWL$WALLS_SIDE
 66
     1
 10
0.0
 20
0.0
 30
0.0
 70
     1
  0
VERTEX
  5
31C
  8
FAB_2$FISHBOWL$WALLS_SIDE
 10
-6342.123340124623
 20
982.2971150767027
 30
0.0
  0
VERTEX
  5
31D
  8
FAB_2$FISHBOWL$WALLS_SIDE
 10
-6337.253340124623
 20
982.2971150767027
 30
0.0
  0
VERTEX
  5
31E
  8
FAB_2$FISHBOWL$WALLS_SIDE
 10
-6337.253340124623
 20
984.7571150767027
 30
0.0
  0
VERTEX
  5
31F
  8
FAB_2$FISHBOWL$WALLS_SIDE
 10
-6346.993340124623
 20
984.7571150767027
 30
0.0
  0
VERTEX
  5
320
  8
FAB_2$FISHBOWL$WALLS_SIDE
 10
-6346.993340124623
 20
982.2971150767027
 30
0.0
  0
SEQEND
  5
321
  8
FAB_2$FISHBOWL$WALLS_SIDE
  0
ENDSEC
  0
EOF
