  0
SECTION
  2
HEADER
  9
$ACADVER
  1
AC1009
  9
$DWGCODEPAGE
  3
mac-roman
  9
$INSBASE
 10
0.0
 20
0.0
 30
0.0
  9
$EXTMIN
 10
-6678.327342093748
 20
537.7803643990285
 30
0.0
  9
$EXTMAX
 10
-6280.449307794783
 20
1019.887105504738
 30
0.0
  9
$LIMMIN
 10
0.0
 20
0.0
  9
$LIMMAX
 10
12.0
 20
9.0
  9
$ORTHOMODE
 70
     0
  9
$REGENMODE
 70
     1
  9
$FILLMODE
 70
     1
  9
$QTEXTMODE
 70
     0
  9
$MIRRTEXT
 70
     1
  9
$DRAGMODE
 70
     2
  9
$LTSCALE
 40
1.0
  9
$OSMODE
 70
    37
  9
$ATTMODE
 70
     1
  9
$TEXTSIZE
 40
0.2
  9
$TRACEWID
 40
0.05
  9
$TEXTSTYLE
  7
STANDARD
  9
$CLAYER
  8
FAB_2$FISHBOWL$WALLS_SIDE
  9
$CELTYPE
  6
BYLAYER
  9
$CECOLOR
 62
   256
  9
$DIMSCALE
 40
1.0
  9
$DIMASZ
 40
0.18
  9
$DIMEXO
 40
0.0625
  9
$DIMDLI
 40
0.38
  9
$DIMRND
 40
0.0
  9
$DIMDLE
 40
0.0
  9
$DIMEXE
 40
0.18
  9
$DIMTP
 40
0.0
  9
$DIMTM
 40
0.0
  9
$DIMTXT
 40
0.18
  9
$DIMCEN
 40
0.09
  9
$DIMTSZ
 40
0.0
  9
$DIMTOL
 70
     0
  9
$DIMLIM
 70
     0
  9
$DIMTIH
 70
     1
  9
$DIMTOH
 70
     1
  9
$DIMSE1
 70
     0
  9
$DIMSE2
 70
     0
  9
$DIMTAD
 70
     0
  9
$DIMZIN
 70
     0
  9
$DIMBLK
  1

  9
$DIMASO
 70
     1
  9
$DIMSHO
 70
     1
  9
$DIMPOST
  1

  9
$DIMAPOST
  1

  9
$DIMALT
 70
     0
  9
$DIMALTD
 70
     2
  9
$DIMALTF
 40
25.4
  9
$DIMLFAC
 40
1.0
  9
$DIMTOFL
 70
     0
  9
$DIMTVP
 40
0.0
  9
$DIMTIX
 70
     0
  9
$DIMSOXD
 70
     0
  9
$DIMSAH
 70
     0
  9
$DIMBLK1
  1

  9
$DIMBLK2
  1

  9
$DIMSTYLE
  2
STANDARD
  9
$DIMCLRD
 70
     0
  9
$DIMCLRE
 70
     0
  9
$DIMCLRT
 70
     0
  9
$DIMTFAC
 40
1.0
  9
$DIMGAP
 40
0.09
  9
$LUNITS
 70
     2
  9
$LUPREC
 70
     3
  9
$SKETCHINC
 40
0.1
  9
$FILLETRAD
 40
0.5
  9
$AUNITS
 70
     0
  9
$AUPREC
 70
     0
  9
$MENU
  1
.
  9
$ELEVATION
 40
0.0
  9
$PELEVATION
 40
0.0
  9
$THICKNESS
 40
0.0
  9
$LIMCHECK
 70
     0
  9
$CHAMFERA
 40
0.0
  9
$CHAMFERB
 40
0.0
  9
$SKPOLY
 70
     0
  9
$TDCREATE
 40
2457893.531180555
  9
$TDUPDATE
 40
2457893.531192129
  9
$TDINDWG
 40
0.0000000116
  9
$TDUSRTIMER
 40
0.0000000116
  9
$USRTIMER
 70
     1
  9
$ANGBASE
 50
0.0
  9
$ANGDIR
 70
     0
  9
$PDMODE
 70
     0
  9
$PDSIZE
 40
0.0
  9
$PLINEWID
 40
0.0
  9
$COORDS
 70
     1
  9
$SPLFRAME
 70
     0
  9
$SPLINETYPE
 70
     6
  9
$SPLINESEGS
 70
     8
  9
$ATTDIA
 70
     0
  9
$ATTREQ
 70
     1
  9
$HANDLING
 70
     1
  9
$HANDSEED
  5
36C
  9
$SURFTAB1
 70
     6
  9
$SURFTAB2
 70
     6
  9
$SURFTYPE
 70
     6
  9
$SURFU
 70
     6
  9
$SURFV
 70
     6
  9
$UCSNAME
  2

  9
$UCSORG
 10
0.0
 20
0.0
 30
0.0
  9
$UCSXDIR
 10
1.0
 20
0.0
 30
0.0
  9
$UCSYDIR
 10
0.0
 20
1.0
 30
0.0
  9
$PUCSNAME
  2

  9
$PUCSORG
 10
0.0
 20
0.0
 30
0.0
  9
$PUCSXDIR
 10
1.0
 20
0.0
 30
0.0
  9
$PUCSYDIR
 10
0.0
 20
1.0
 30
0.0
  9
$USERI1
 70
     0
  9
$USERI2
 70
     0
  9
$USERI3
 70
     0
  9
$USERI4
 70
     0
  9
$USERI5
 70
     0
  9
$USERR1
 40
0.0
  9
$USERR2
 40
0.0
  9
$USERR3
 40
0.0
  9
$USERR4
 40
0.0
  9
$USERR5
 40
0.0
  9
$WORLDVIEW
 70
     1
  9
$SHADEDGE
 70
     3
  9
$SHADEDIF
 70
    70
  9
$TILEMODE
 70
     1
  9
$MAXACTVP
 70
    64
  9
$PLIMCHECK
 70
     0
  9
$PEXTMIN
 10
1.000000000000000E+20
 20
1.000000000000000E+20
 30
1.000000000000000E+20
  9
$PEXTMAX
 10
-1.000000000000000E+20
 20
-1.000000000000000E+20
 30
-1.000000000000000E+20
  9
$PLIMMIN
 10
0.0
 20
0.0
  9
$PLIMMAX
 10
12.0
 20
9.0
  9
$UNITMODE
 70
     0
  9
$VISRETAIN
 70
     1
  9
$PLINEGEN
 70
     0
  9
$PSLTSCALE
 70
     1
  0
ENDSEC
  0
SECTION
  2
TABLES
  0
TABLE
  2
VPORT
 70
     1
  0
VPORT
  2
*ACTIVE
 70
     0
 10
0.0
 20
0.0
 11
1.0
 21
1.0
 12
-6479.388324944266
 22
778.8337349518833
 13
0.0
 23
0.0
 14
0.5
 24
0.5
 15
0.5
 25
0.5
 16
0.0
 26
0.0
 36
1.0
 17
0.0
 27
0.0
 37
0.0
 40
491.7488759278239
 41
0.8252903358837819
 42
50.0
 43
0.0
 44
0.0
 50
0.0
 51
0.0
 71
     0
 72
   100
 73
     1
 74
     3
 75
     0
 76
     0
 77
     0
 78
     0
  0
ENDTAB
  0
TABLE
  2
LTYPE
 70
     1
  0
LTYPE
  2
CONTINUOUS
 70
     0
  3
Solid line
 72
    65
 73
     0
 40
0.0
  0
ENDTAB
  0
TABLE
  2
LAYER
 70
     5
  0
LAYER
  2
0
 70
     0
 62
     7
  6
CONTINUOUS
  0
LAYER
  2
FAB_2$FISHBOWL$WALLS_SIDE
 70
     0
 62
    25
  6
CONTINUOUS
  0
LAYER
  2
FAB_2$FISHBOWL$WALLS_TOP_B
 70
     0
 62
     7
  6
CONTINUOUS
  0
LAYER
  2
FAB_2$FISHBOWL$BASE
 70
     0
 62
     5
  6
CONTINUOUS
  0
LAYER
  2
FAB_2$FISHBOWL$FLOOR
 70
     0
 62
     5
  6
CONTINUOUS
  0
ENDTAB
  0
TABLE
  2
STYLE
 70
     1
  0
STYLE
  2
STANDARD
 70
     0
 40
0.0
 41
1.0
 50
0.0
 71
     0
 42
0.2
  3
txt
  4

  0
ENDTAB
  0
TABLE
  2
VIEW
 70
     0
  0
ENDTAB
  0
TABLE
  2
UCS
 70
     0
  0
ENDTAB
  0
TABLE
  2
APPID
 70
     1
  0
APPID
  2
ACAD
 70
     0
  0
ENDTAB
  0
TABLE
  2
DIMSTYLE
 70
     1
  0
DIMSTYLE
  2
STANDARD
 70
     0
  3

  4

  5

  6

  7

 40
1.0
 41
0.18
 42
0.0625
 43
0.38
 44
0.18
 45
0.0
 46
0.0
 47
0.0
 48
0.0
140
0.18
141
0.09
142
0.0
143
25.4
144
1.0
145
0.0
146
1.0
147
0.09
 71
     0
 72
     0
 73
     1
 74
     1
 75
     0
 76
     0
 77
     0
 78
     0
170
     0
171
     2
172
     0
173
     0
174
     0
175
     0
176
     0
177
     0
178
     0
  0
ENDTAB
  0
ENDSEC
  0
SECTION
  2
BLOCKS
  0
BLOCK
  8
0
  2
$MODEL_SPACE
 70
     0
 10
0.0
 20
0.0
 30
0.0
  3
$MODEL_SPACE
  1

  0
ENDBLK
  5
21
  8
0
  0
BLOCK
 67
     1
  8
0
  2
$PAPER_SPACE
 70
     0
 10
0.0
 20
0.0
 30
0.0
  3
$PAPER_SPACE
  1

  0
ENDBLK
  5
1D
 67
     1
  8
0
  0
ENDSEC
  0
SECTION
  2
ENTITIES
  0
POLYLINE
  5
6F
  8
FAB_2$FISHBOWL$WALLS_SIDE
 66
     1
 10
0.0
 20
0.0
 30
0.0
 70
     1
  0
VERTEX
  5
70
  8
FAB_2$FISHBOWL$WALLS_SIDE
 10
-6347.89448886883
 20
991.8871150767027
 30
0.0
  0
VERTEX
  5
71
  8
FAB_2$FISHBOWL$WALLS_SIDE
 10
-6359.403340124622
 20
991.8871150767025
 30
0.0
 42
0.4142135623729278
  0
VERTEX
  5
72
  8
FAB_2$FISHBOWL$WALLS_SIDE
 10
-6362.123340124623
 20
989.1671150767016
 30
0.0
  0
VERTEX
  5
73
  8
FAB_2$FISHBOWL$WALLS_SIDE
 10
-6362.123340124623
 20
623.4092349996143
 30
0.0
 42
0.4142135623731794
  0
VERTEX
  5
74
  8
FAB_2$FISHBOWL$WALLS_SIDE
 10
-6359.403340124622
 20
620.6892349996141
 30
0.0
  0
VERTEX
  5
75
  8
FAB_2$FISHBOWL$WALLS_SIDE
 10
-6347.894488868831
 20
620.6892349996133
 30
0.0
  0
VERTEX
  5
76
  8
FAB_2$FISHBOWL$WALLS_SIDE
 10
-6347.856092075148
 20
620.6913763340008
 30
0.0
  0
VERTEX
  5
77
  8
FAB_2$FISHBOWL$WALLS_SIDE
 10
-6347.818509351826
 20
620.6946516601125
 30
0.0
  0
VERTEX
  5
78
  8
FAB_2$FISHBOWL$WALLS_SIDE
 10
-6347.781722022131
 20
620.699035802887
 30
0.0
  0
VERTEX
  5
79
  8
FAB_2$FISHBOWL$WALLS_SIDE
 10
-6347.745711409325
 20
620.7045035872627
 30
0.0
  0
VERTEX
  5
7A
  8
FAB_2$FISHBOWL$WALLS_SIDE
 10
-6347.710458836671
 20
620.7110298381778
 30
0.0
  0
VERTEX
  5
7B
  8
FAB_2$FISHBOWL$WALLS_SIDE
 10
-6347.675945627434
 20
620.7185893805706
 30
0.0
  0
VERTEX
  5
7C
  8
FAB_2$FISHBOWL$WALLS_SIDE
 10
-6347.642153104875
 20
620.7271570393796
 30
0.0
  0
VERTEX
  5
7D
  8
FAB_2$FISHBOWL$WALLS_SIDE
 10
-6347.609062592261
 20
620.736707639543
 30
0.0
  0
VERTEX
  5
7E
  8
FAB_2$FISHBOWL$WALLS_SIDE
 10
-6347.576655412851
 20
620.7472160059995
 30
0.0
  0
VERTEX
  5
7F
  8
FAB_2$FISHBOWL$WALLS_SIDE
 10
-6347.544912889913
 20
620.7586569636869
 30
0.0
  0
VERTEX
  5
80
  8
FAB_2$FISHBOWL$WALLS_SIDE
 10
-6347.513816346705
 20
620.7710053375442
 30
0.0
  0
VERTEX
  5
81
  8
FAB_2$FISHBOWL$WALLS_SIDE
 10
-6347.483347106496
 20
620.7842359525093
 30
0.0
  0
VERTEX
  5
82
  8
FAB_2$FISHBOWL$WALLS_SIDE
 10
-6347.453486492546
 20
620.7983236335208
 30
0.0
  0
VERTEX
  5
83
  8
FAB_2$FISHBOWL$WALLS_SIDE
 10
-6347.424215828119
 20
620.8132432055169
 30
0.0
  0
VERTEX
  5
84
  8
FAB_2$FISHBOWL$WALLS_SIDE
 10
-6347.395516436478
 20
620.8289694934359
 30
0.0
  0
VERTEX
  5
85
  8
FAB_2$FISHBOWL$WALLS_SIDE
 10
-6347.367369640888
 20
620.8454773222163
 30
0.0
  0
VERTEX
  5
86
  8
FAB_2$FISHBOWL$WALLS_SIDE
 10
-6347.339756764611
 20
620.8627415167964
 30
0.0
  0
VERTEX
  5
87
  8
FAB_2$FISHBOWL$WALLS_SIDE
 10
-6347.312659130911
 20
620.8807369021147
 30
0.0
  0
VERTEX
  5
88
  8
FAB_2$FISHBOWL$WALLS_SIDE
 10
-6347.286058063051
 20
620.8994383031094
 30
0.0
  0
VERTEX
  5
89
  8
FAB_2$FISHBOWL$WALLS_SIDE
 10
-6347.259934884295
 20
620.918820544719
 30
0.0
  0
VERTEX
  5
8A
  8
FAB_2$FISHBOWL$WALLS_SIDE
 10
-6347.234270917907
 20
620.9388584518817
 30
0.0
  0
VERTEX
  5
8B
  8
FAB_2$FISHBOWL$WALLS_SIDE
 10
-6347.209047487147
 20
620.9595268495359
 30
0.0
  0
VERTEX
  5
8C
  8
FAB_2$FISHBOWL$WALLS_SIDE
 10
-6347.184245915283
 20
620.9808005626201
 30
0.0
  0
VERTEX
  5
8D
  8
FAB_2$FISHBOWL$WALLS_SIDE
 10
-6347.159847525576
 20
621.0026544160725
 30
0.0
  0
VERTEX
  5
8E
  8
FAB_2$FISHBOWL$WALLS_SIDE
 10
-6347.13583364129
 20
621.0250632348315
 30
0.0
  0
VERTEX
  5
8F
  8
FAB_2$FISHBOWL$WALLS_SIDE
 10
-6347.112185585686
 20
621.0480018438354
 30
0.0
  0
VERTEX
  5
90
  8
FAB_2$FISHBOWL$WALLS_SIDE
 10
-6347.065912253587
 20
621.0953677323315
 30
0.0
  0
VERTEX
  5
91
  8
FAB_2$FISHBOWL$WALLS_SIDE
 10
-6347.020878115385
 20
621.1445506810678
 30
0.0
  0
VERTEX
  5
92
  8
FAB_2$FISHBOWL$WALLS_SIDE
 10
-6346.976933757187
 20
621.1953492895509
 30
0.0
  0
VERTEX
  5
93
  8
FAB_2$FISHBOWL$WALLS_SIDE
 10
-6346.933929765101
 20
621.2475621572879
 30
0.0
  0
VERTEX
  5
94
  8
FAB_2$FISHBOWL$WALLS_SIDE
 10
-6346.891716725235
 20
621.3009878837858
 30
0.0
  0
VERTEX
  5
95
  8
FAB_2$FISHBOWL$WALLS_SIDE
 10
-6346.564557019056
 20
621.7478885519774
 30
0.0
  0
VERTEX
  5
96
  8
FAB_2$FISHBOWL$WALLS_SIDE
 10
-6346.480217642209
 20
621.857644272113
 30
0.0
  0
VERTEX
  5
97
  8
FAB_2$FISHBOWL$WALLS_SIDE
 10
-6346.43684375983
 20
621.9111190124318
 30
0.0
  0
VERTEX
  5
98
  8
FAB_2$FISHBOWL$WALLS_SIDE
 10
-6346.392467862957
 20
621.9633898055936
 30
0.0
  0
VERTEX
  5
99
  8
FAB_2$FISHBOWL$WALLS_SIDE
 10
-6346.346940537697
 20
622.0142552511054
 30
0.0
  0
VERTEX
  5
9A
  8
FAB_2$FISHBOWL$WALLS_SIDE
 10
-6346.300112370158
 20
622.0635139484739
 30
0.0
  0
VERTEX
  5
9B
  8
FAB_2$FISHBOWL$WALLS_SIDE
 10
-6346.251866924014
 20
622.1110057982017
 30
0.0
  0
VERTEX
  5
9C
  8
FAB_2$FISHBOWL$WALLS_SIDE
 10
-6346.202219673212
 20
622.1567359047742
 30
0.0
  0
VERTEX
  5
9D
  8
FAB_2$FISHBOWL$WALLS_SIDE
 10
-6346.151219069267
 20
622.200750673672
 30
0.0
  0
VERTEX
  5
9E
  8
FAB_2$FISHBOWL$WALLS_SIDE
 10
-6346.098913563689
 20
622.243096510376
 30
0.0
  0
VERTEX
  5
9F
  8
FAB_2$FISHBOWL$WALLS_SIDE
 10
-6346.045351607996
 20
622.283819820367
 30
0.0
  0
VERTEX
  5
A0
  8
FAB_2$FISHBOWL$WALLS_SIDE
 10
-6345.990581653701
 20
622.3229670091258
 30
0.0
  0
VERTEX
  5
A1
  8
FAB_2$FISHBOWL$WALLS_SIDE
 10
-6345.934652152318
 20
622.3605844821334
 30
0.0
  0
VERTEX
  5
A2
  8
FAB_2$FISHBOWL$WALLS_SIDE
 10
-6345.877611555361
 20
622.3967186448706
 30
0.0
  0
VERTEX
  5
A3
  8
FAB_2$FISHBOWL$WALLS_SIDE
 10
-6345.819508314344
 20
622.4314159028181
 30
0.0
  0
VERTEX
  5
A4
  8
FAB_2$FISHBOWL$WALLS_SIDE
 10
-6345.760390880781
 20
622.4647226614569
 30
0.0
  0
VERTEX
  5
A5
  8
FAB_2$FISHBOWL$WALLS_SIDE
 10
-6345.700307706185
 20
622.4966853262678
 30
0.0
  0
VERTEX
  5
A6
  8
FAB_2$FISHBOWL$WALLS_SIDE
 10
-6345.639307242071
 20
622.5273503027316
 30
0.0
  0
VERTEX
  5
A7
  8
FAB_2$FISHBOWL$WALLS_SIDE
 10
-6345.577437939954
 20
622.5567639963292
 30
0.0
  0
VERTEX
  5
A8
  8
FAB_2$FISHBOWL$WALLS_SIDE
 10
-6345.514748251346
 20
622.5849728125414
 30
0.0
  0
VERTEX
  5
A9
  8
FAB_2$FISHBOWL$WALLS_SIDE
 10
-6345.451286627762
 20
622.612023156849
 30
0.0
  0
VERTEX
  5
AA
  8
FAB_2$FISHBOWL$WALLS_SIDE
 10
-6345.387101520716
 20
622.6379614347329
 30
0.0
  0
VERTEX
  5
AB
  8
FAB_2$FISHBOWL$WALLS_SIDE
 10
-6345.256754662295
 20
622.6866874131529
 30
0.0
  0
VERTEX
  5
AC
  8
FAB_2$FISHBOWL$WALLS_SIDE
 10
-6345.124095288193
 20
622.7315219916479
 30
0.0
  0
VERTEX
  5
AD
  8
FAB_2$FISHBOWL$WALLS_SIDE
 10
-6344.989511010524
 20
622.772836414065
 30
0.0
  0
VERTEX
  5
AE
  8
FAB_2$FISHBOWL$WALLS_SIDE
 10
-6344.853389441398
 20
622.8110019242506
 30
0.0
  0
VERTEX
  5
AF
  8
FAB_2$FISHBOWL$WALLS_SIDE
 10
-6344.716118192928
 20
622.8463897660515
 30
0.0
  0
VERTEX
  5
B0
  8
FAB_2$FISHBOWL$WALLS_SIDE
 10
-6344.578084877227
 20
622.8793711833146
 30
0.0
  0
VERTEX
  5
B1
  8
FAB_2$FISHBOWL$WALLS_SIDE
 10
-6344.301282492579
 20
622.9395997196135
 30
0.0
  0
VERTEX
  5
B2
  8
FAB_2$FISHBOWL$WALLS_SIDE
 10
-6344.025532970713
 20
622.9940802943046
 30
0.0
  0
VERTEX
  5
B3
  8
FAB_2$FISHBOWL$WALLS_SIDE
 10
-6343.751186140355
 20
623.0428969100788
 30
0.0
  0
VERTEX
  5
B4
  8
FAB_2$FISHBOWL$WALLS_SIDE
 10
-6343.478041616586
 20
623.0855563800098
 30
0.0
  0
VERTEX
  5
B5
  8
FAB_2$FISHBOWL$WALLS_SIDE
 10
-6343.205899014495
 20
623.121565517172
 30
0.0
  0
VERTEX
  5
B6
  8
FAB_2$FISHBOWL$WALLS_SIDE
 10
-6342.934557949167
 20
623.1504311346393
 30
0.0
  0
VERTEX
  5
B7
  8
FAB_2$FISHBOWL$WALLS_SIDE
 10
-6342.663818035688
 20
623.171660045486
 30
0.0
  0
VERTEX
  5
B8
  8
FAB_2$FISHBOWL$WALLS_SIDE
 10
-6342.393478889145
 20
623.1847590627859
 30
0.0
  0
VERTEX
  5
B9
  8
FAB_2$FISHBOWL$WALLS_SIDE
 10
-6342.123340124622
 20
623.1892349996133
 30
0.0
  0
VERTEX
  5
BA
  8
FAB_2$FISHBOWL$WALLS_SIDE
 10
-6341.853201357333
 20
623.1847590647658
 30
0.0
  0
VERTEX
  5
BB
  8
FAB_2$FISHBOWL$WALLS_SIDE
 10
-6341.582862202995
 20
623.1716600499349
 30
0.0
  0
VERTEX
  5
BC
  8
FAB_2$FISHBOWL$WALLS_SIDE
 10
-6341.312122277451
 20
623.1504311425356
 30
0.0
  0
VERTEX
  5
BD
  8
FAB_2$FISHBOWL$WALLS_SIDE
 10
-6341.040781196544
 20
623.1215655299832
 30
0.0
  0
VERTEX
  5
BE
  8
FAB_2$FISHBOWL$WALLS_SIDE
 10
-6340.768638576119
 20
623.0855563996927
 30
0.0
  0
VERTEX
  5
BF
  8
FAB_2$FISHBOWL$WALLS_SIDE
 10
-6340.49549403202
 20
623.0428969390794
 30
0.0
  0
VERTEX
  5
C0
  8
FAB_2$FISHBOWL$WALLS_SIDE
 10
-6340.221147180089
 20
622.9940803355581
 30
0.0
  0
VERTEX
  5
C1
  8
FAB_2$FISHBOWL$WALLS_SIDE
 10
-6339.945397636172
 20
622.9395997765441
 30
0.0
  0
VERTEX
  5
C2
  8
FAB_2$FISHBOWL$WALLS_SIDE
 10
-6339.668595229844
 20
622.8793712594176
 30
0.0
  0
VERTEX
  5
C3
  8
FAB_2$FISHBOWL$WALLS_SIDE
 10
-6339.530561903829
 20
622.846389852577
 30
0.0
  0
VERTEX
  5
C4
  8
FAB_2$FISHBOWL$WALLS_SIDE
 10
-6339.393290645624
 20
622.8110020214191
 30
0.0
  0
VERTEX
  5
C5
  8
FAB_2$FISHBOWL$WALLS_SIDE
 10
-6339.257169067508
 20
622.7728365218447
 30
0.0
  0
VERTEX
  5
C6
  8
FAB_2$FISHBOWL$WALLS_SIDE
 10
-6339.122584781762
 20
622.7315221097546
 30
0.0
  0
VERTEX
  5
C7
  8
FAB_2$FISHBOWL$WALLS_SIDE
 10
-6338.989925400669
 20
622.6866875410494
 30
0.0
  0
VERTEX
  5
C8
  8
FAB_2$FISHBOWL$WALLS_SIDE
 10
-6338.859578536509
 20
622.6379615716297
 30
0.0
  0
VERTEX
  5
C9
  8
FAB_2$FISHBOWL$WALLS_SIDE
 10
-6338.795393427117
 20
622.612023297871
 30
0.0
  0
VERTEX
  5
CA
  8
FAB_2$FISHBOWL$WALLS_SIDE
 10
-6338.731931801564
 20
622.5849729573965
 30
0.0
  0
VERTEX
  5
CB
  8
FAB_2$FISHBOWL$WALLS_SIDE
 10
-6338.669242111385
 20
622.5567641446937
 30
0.0
  0
VERTEX
  5
CC
  8
FAB_2$FISHBOWL$WALLS_SIDE
 10
-6338.607372808116
 20
622.5273504542504
 30
0.0
  0
VERTEX
  5
CD
  8
FAB_2$FISHBOWL$WALLS_SIDE
 10
-6338.546372343289
 20
622.4966854805539
 30
0.0
  0
VERTEX
  5
CE
  8
FAB_2$FISHBOWL$WALLS_SIDE
 10
-6338.486289168444
 20
622.464722818092
 30
0.0
  0
VERTEX
  5
CF
  8
FAB_2$FISHBOWL$WALLS_SIDE
 10
-6338.427171735115
 20
622.4314160613524
 30
0.0
  0
VERTEX
  5
D0
  8
FAB_2$FISHBOWL$WALLS_SIDE
 10
-6338.369068494834
 20
622.3967188048223
 30
0.0
  0
VERTEX
  5
D1
  8
FAB_2$FISHBOWL$WALLS_SIDE
 10
-6338.312027899139
 20
622.3605846429896
 30
0.0
  0
VERTEX
  5
D2
  8
FAB_2$FISHBOWL$WALLS_SIDE
 10
-6338.256098399565
 20
622.3229671703418
 30
0.0
  0
VERTEX
  5
D3
  8
FAB_2$FISHBOWL$WALLS_SIDE
 10
-6338.201328447644
 20
622.2838199813666
 30
0.0
  0
VERTEX
  5
D4
  8
FAB_2$FISHBOWL$WALLS_SIDE
 10
-6338.147766494916
 20
622.2430966705514
 30
0.0
  0
VERTEX
  5
D5
  8
FAB_2$FISHBOWL$WALLS_SIDE
 10
-6338.095460992912
 20
622.2007508323838
 30
0.0
  0
VERTEX
  5
D6
  8
FAB_2$FISHBOWL$WALLS_SIDE
 10
-6338.04446039317
 20
622.1567360613517
 30
0.0
  0
VERTEX
  5
D7
  8
FAB_2$FISHBOWL$WALLS_SIDE
 10
-6337.994813147224
 20
622.1110059519423
 30
0.0
  0
VERTEX
  5
D8
  8
FAB_2$FISHBOWL$WALLS_SIDE
 10
-6337.946567706609
 20
622.0635140986433
 30
0.0
  0
VERTEX
  5
D9
  8
FAB_2$FISHBOWL$WALLS_SIDE
 10
-6337.899739545279
 20
622.0142553969545
 30
0.0
  0
VERTEX
  5
DA
  8
FAB_2$FISHBOWL$WALLS_SIDE
 10
-6337.854212226854
 20
621.9633899464243
 30
0.0
  0
VERTEX
  5
DB
  8
FAB_2$FISHBOWL$WALLS_SIDE
 10
-6337.809836337375
 20
621.9111191476134
 30
0.0
  0
VERTEX
  5
DC
  8
FAB_2$FISHBOWL$WALLS_SIDE
 10
-6337.766462462879
 20
621.8576444010821
 30
0.0
  0
VERTEX
  5
DD
  8
FAB_2$FISHBOWL$WALLS_SIDE
 10
-6337.682123102999
 20
621.7478886671008
 30
0.0
  0
VERTEX
  5
DE
  8
FAB_2$FISHBOWL$WALLS_SIDE
 10
-6337.354963470726
 20
621.3009879344748
 30
0.0
  0
VERTEX
  5
DF
  8
FAB_2$FISHBOWL$WALLS_SIDE
 10
-6337.312750439657
 20
621.2475622000168
 30
0.0
  0
VERTEX
  5
E0
  8
FAB_2$FISHBOWL$WALLS_SIDE
 10
-6337.269746456043
 20
621.1953493245652
 30
0.0
  0
VERTEX
  5
E1
  8
FAB_2$FISHBOWL$WALLS_SIDE
 10
-6337.225802105926
 20
621.1445507086804
 30
0.0
  0
VERTEX
  5
E2
  8
FAB_2$FISHBOWL$WALLS_SIDE
 10
-6337.180767975344
 20
621.095367752923
 30
0.0
  0
VERTEX
  5
E3
  8
FAB_2$FISHBOWL$WALLS_SIDE
 10
-6337.134494650337
 20
621.0480018578537
 30
0.0
  0
VERTEX
  5
E4
  8
FAB_2$FISHBOWL$WALLS_SIDE
 10
-6337.110846598061
 20
621.0250632457523
 30
0.0
  0
VERTEX
  5
E5
  8
FAB_2$FISHBOWL$WALLS_SIDE
 10
-6337.086832716943
 20
621.002654424033
 30
0.0
  0
VERTEX
  5
E6
  8
FAB_2$FISHBOWL$WALLS_SIDE
 10
-6337.062434330237
 20
620.9808005677661
 30
0.0
  0
VERTEX
  5
E7
  8
FAB_2$FISHBOWL$WALLS_SIDE
 10
-6337.037632761201
 20
620.9595268520214
 30
0.0
  0
VERTEX
  5
E8
  8
FAB_2$FISHBOWL$WALLS_SIDE
 10
-6337.012409333089
 20
620.9388584518692
 30
0.0
  0
VERTEX
  5
E9
  8
FAB_2$FISHBOWL$WALLS_SIDE
 10
-6336.986745369154
 20
620.9188205423794
 30
0.0
  0
VERTEX
  5
EA
  8
FAB_2$FISHBOWL$WALLS_SIDE
 10
-6336.960622192652
 20
620.8994382986223
 30
0.0
  0
VERTEX
  5
EB
  8
FAB_2$FISHBOWL$WALLS_SIDE
 10
-6336.934021126838
 20
620.8807368956677
 30
0.0
  0
VERTEX
  5
EC
  8
FAB_2$FISHBOWL$WALLS_SIDE
 10
-6336.906923494967
 20
620.8627415085857
 30
0.0
  0
VERTEX
  5
ED
  8
FAB_2$FISHBOWL$WALLS_SIDE
 10
-6336.879310620293
 20
620.8454773124467
 30
0.0
  0
VERTEX
  5
EE
  8
FAB_2$FISHBOWL$WALLS_SIDE
 10
-6336.851163826072
 20
620.8289694823204
 30
0.0
  0
VERTEX
  5
EF
  8
FAB_2$FISHBOWL$WALLS_SIDE
 10
-6336.822464435558
 20
620.8132431932772
 30
0.0
  0
VERTEX
  5
F0
  8
FAB_2$FISHBOWL$WALLS_SIDE
 10
-6336.793193772007
 20
620.7983236203868
 30
0.0
  0
VERTEX
  5
F1
  8
FAB_2$FISHBOWL$WALLS_SIDE
 10
-6336.763333158674
 20
620.7842359387193
 30
0.0
  0
VERTEX
  5
F2
  8
FAB_2$FISHBOWL$WALLS_SIDE
 10
-6336.732863918813
 20
620.771005323345
 30
0.0
  0
VERTEX
  5
F3
  8
FAB_2$FISHBOWL$WALLS_SIDE
 10
-6336.701767375679
 20
620.758656949334
 30
0.0
  0
VERTEX
  5
F4
  8
FAB_2$FISHBOWL$WALLS_SIDE
 10
-6336.670024852527
 20
620.7472159917561
 30
0.0
  0
VERTEX
  5
F5
  8
FAB_2$FISHBOWL$WALLS_SIDE
 10
-6336.637617672612
 20
620.7367076256817
 30
0.0
  0
VERTEX
  5
F6
  8
FAB_2$FISHBOWL$WALLS_SIDE
 10
-6336.604527159188
 20
620.7271570261805
 30
0.0
  0
VERTEX
  5
F7
  8
FAB_2$FISHBOWL$WALLS_SIDE
 10
-6336.570734635512
 20
620.7185893683229
 30
0.0
  0
VERTEX
  5
F8
  8
FAB_2$FISHBOWL$WALLS_SIDE
 10
-6336.536221424838
 20
620.7110298271787
 30
0.0
  0
VERTEX
  5
F9
  8
FAB_2$FISHBOWL$WALLS_SIDE
 10
-6336.500968850421
 20
620.7045035778182
 30
0.0
  0
VERTEX
  5
FA
  8
FAB_2$FISHBOWL$WALLS_SIDE
 10
-6336.464958235514
 20
620.6990357953113
 30
0.0
  0
VERTEX
  5
FB
  8
FAB_2$FISHBOWL$WALLS_SIDE
 10
-6336.428170903375
 20
620.6946516547281
 30
0.0
  0
VERTEX
  5
FC
  8
FAB_2$FISHBOWL$WALLS_SIDE
 10
-6336.390588177257
 20
620.6913763311388
 30
0.0
  0
VERTEX
  5
FD
  8
FAB_2$FISHBOWL$WALLS_SIDE
 10
-6336.352191380415
 20
620.6892349996133
 30
0.0
  0
VERTEX
  5
FE
  8
FAB_2$FISHBOWL$WALLS_SIDE
 10
-6324.843340124622
 20
620.6892349996151
 30
0.0
 42
0.414213562373075
  0
VERTEX
  5
FF
  8
FAB_2$FISHBOWL$WALLS_SIDE
 10
-6322.123340124623
 20
623.4092349996145
 30
0.0
  0
VERTEX
  5
100
  8
FAB_2$FISHBOWL$WALLS_SIDE
 10
-6322.123340124623
 20
989.1671150767016
 30
0.0
 42
0.4142135623732986
  0
VERTEX
  5
101
  8
FAB_2$FISHBOWL$WALLS_SIDE
 10
-6324.843340124623
 20
991.8871150767027
 30
0.0
  0
VERTEX
  5
102
  8
FAB_2$FISHBOWL$WALLS_SIDE
 10
-6336.352191380414
 20
991.8871150767026
 30
0.0
  0
VERTEX
  5
103
  8
FAB_2$FISHBOWL$WALLS_SIDE
 10
-6336.390588174098
 20
991.8849737423152
 30
0.0
  0
VERTEX
  5
104
  8
FAB_2$FISHBOWL$WALLS_SIDE
 10
-6336.428170897419
 20
991.8816984162033
 30
0.0
  0
VERTEX
  5
105
  8
FAB_2$FISHBOWL$WALLS_SIDE
 10
-6336.464958227114
 20
991.8773142734289
 30
0.0
  0
VERTEX
  5
106
  8
FAB_2$FISHBOWL$WALLS_SIDE
 10
-6336.50096883992
 20
991.8718464890533
 30
0.0
  0
VERTEX
  5
107
  8
FAB_2$FISHBOWL$WALLS_SIDE
 10
-6336.536221412574
 20
991.8653202381382
 30
0.0
  0
VERTEX
  5
108
  8
FAB_2$FISHBOWL$WALLS_SIDE
 10
-6336.570734621811
 20
991.8577606957454
 30
0.0
  0
VERTEX
  5
109
  8
FAB_2$FISHBOWL$WALLS_SIDE
 10
-6336.60452714437
 20
991.8491930369364
 30
0.0
  0
VERTEX
  5
10A
  8
FAB_2$FISHBOWL$WALLS_SIDE
 10
-6336.637617656985
 20
991.8396424367729
 30
0.0
  0
VERTEX
  5
10B
  8
FAB_2$FISHBOWL$WALLS_SIDE
 10
-6336.670024836394
 20
991.8291340703165
 30
0.0
  0
VERTEX
  5
10C
  8
FAB_2$FISHBOWL$WALLS_SIDE
 10
-6336.701767359333
 20
991.8176931126291
 30
0.0
  0
VERTEX
  5
10D
  8
FAB_2$FISHBOWL$WALLS_SIDE
 10
-6336.73286390254
 20
991.8053447387717
 30
0.0
  0
VERTEX
  5
10E
  8
FAB_2$FISHBOWL$WALLS_SIDE
 10
-6336.76333314275
 20
991.7921141238066
 30
0.0
  0
VERTEX
  5
10F
  8
FAB_2$FISHBOWL$WALLS_SIDE
 10
-6336.793193756699
 20
991.7780264427952
 30
0.0
  0
VERTEX
  5
110
  8
FAB_2$FISHBOWL$WALLS_SIDE
 10
-6336.822464421127
 20
991.7631068707991
 30
0.0
  0
VERTEX
  5
111
  8
FAB_2$FISHBOWL$WALLS_SIDE
 10
-6336.851163812767
 20
991.74738058288
 30
0.0
  0
VERTEX
  5
112
  8
FAB_2$FISHBOWL$WALLS_SIDE
 10
-6336.879310608358
 20
991.7308727540997
 30
0.0
  0
VERTEX
  5
113
  8
FAB_2$FISHBOWL$WALLS_SIDE
 10
-6336.906923484635
 20
991.7136085595193
 30
0.0
  0
VERTEX
  5
114
  8
FAB_2$FISHBOWL$WALLS_SIDE
 10
-6336.934021118334
 20
991.6956131742011
 30
0.0
  0
VERTEX
  5
115
  8
FAB_2$FISHBOWL$WALLS_SIDE
 10
-6336.960622186194
 20
991.6769117732064
 30
0.0
  0
VERTEX
  5
116
  8
FAB_2$FISHBOWL$WALLS_SIDE
 10
-6336.98674536495
 20
991.6575295315968
 30
0.0
  0
VERTEX
  5
117
  8
FAB_2$FISHBOWL$WALLS_SIDE
 10
-6337.012409331339
 20
991.637491624434
 30
0.0
  0
VERTEX
  5
118
  8
FAB_2$FISHBOWL$WALLS_SIDE
 10
-6337.037632762098
 20
991.6168232267798
 30
0.0
  0
VERTEX
  5
119
  8
FAB_2$FISHBOWL$WALLS_SIDE
 10
-6337.062434333962
 20
991.5955495136957
 30
0.0
  0
VERTEX
  5
11A
  8
FAB_2$FISHBOWL$WALLS_SIDE
 10
-6337.086832723669
 20
991.5736956602434
 30
0.0
  0
VERTEX
  5
11B
  8
FAB_2$FISHBOWL$WALLS_SIDE
 10
-6337.110846607956
 20
991.5512868414845
 30
0.0
  0
VERTEX
  5
11C
  8
FAB_2$FISHBOWL$WALLS_SIDE
 10
-6337.134494663559
 20
991.5283482324805
 30
0.0
  0
VERTEX
  5
11D
  8
FAB_2$FISHBOWL$WALLS_SIDE
 10
-6337.180767995658
 20
991.4809823439845
 30
0.0
  0
VERTEX
  5
11E
  8
FAB_2$FISHBOWL$WALLS_SIDE
 10
-6337.22580213386
 20
991.4317993952482
 30
0.0
  0
VERTEX
  5
11F
  8
FAB_2$FISHBOWL$WALLS_SIDE
 10
-6337.269746492058
 20
991.381000786765
 30
0.0
  0
VERTEX
  5
120
  8
FAB_2$FISHBOWL$WALLS_SIDE
 10
-6337.312750484144
 20
991.3287879190278
 30
0.0
  0
VERTEX
  5
121
  8
FAB_2$FISHBOWL$WALLS_SIDE
 10
-6337.354963524011
 20
991.2753621925301
 30
0.0
  0
VERTEX
  5
122
  8
FAB_2$FISHBOWL$WALLS_SIDE
 10
-6337.68212323019
 20
990.8284615243385
 30
0.0
  0
VERTEX
  5
123
  8
FAB_2$FISHBOWL$WALLS_SIDE
 10
-6337.766462607038
 20
990.718705804203
 30
0.0
  0
VERTEX
  5
124
  8
FAB_2$FISHBOWL$WALLS_SIDE
 10
-6337.809836489418
 20
990.6652310638842
 30
0.0
  0
VERTEX
  5
125
  8
FAB_2$FISHBOWL$WALLS_SIDE
 10
-6337.85421238629
 20
990.6129602707224
 30
0.0
  0
VERTEX
  5
126
  8
FAB_2$FISHBOWL$WALLS_SIDE
 10
-6337.89973971155
 20
990.5620948252108
 30
0.0
  0
VERTEX
  5
127
  8
FAB_2$FISHBOWL$WALLS_SIDE
 10
-6337.946567879089
 20
990.5128361278422
 30
0.0
  0
VERTEX
  5
128
  8
FAB_2$FISHBOWL$WALLS_SIDE
 10
-6337.994813325232
 20
990.4653442781143
 30
0.0
  0
VERTEX
  5
129
  8
FAB_2$FISHBOWL$WALLS_SIDE
 10
-6338.044460576035
 20
990.419614171542
 30
0.0
  0
VERTEX
  5
12A
  8
FAB_2$FISHBOWL$WALLS_SIDE
 10
-6338.095461179981
 20
990.3755994026442
 30
0.0
  0
VERTEX
  5
12B
  8
FAB_2$FISHBOWL$WALLS_SIDE
 10
-6338.147766685557
 20
990.3332535659403
 30
0.0
  0
VERTEX
  5
12C
  8
FAB_2$FISHBOWL$WALLS_SIDE
 10
-6338.201328641249
 20
990.2925302559493
 30
0.0
  0
VERTEX
  5
12D
  8
FAB_2$FISHBOWL$WALLS_SIDE
 10
-6338.256098595544
 20
990.2533830671904
 30
0.0
  0
VERTEX
  5
12E
  8
FAB_2$FISHBOWL$WALLS_SIDE
 10
-6338.312028096928
 20
990.2157655941828
 30
0.0
  0
VERTEX
  5
12F
  8
FAB_2$FISHBOWL$WALLS_SIDE
 10
-6338.369068693884
 20
990.1796314314456
 30
0.0
  0
VERTEX
  5
130
  8
FAB_2$FISHBOWL$WALLS_SIDE
 10
-6338.427171934902
 20
990.1449341734981
 30
0.0
  0
VERTEX
  5
131
  8
FAB_2$FISHBOWL$WALLS_SIDE
 10
-6338.486289368466
 20
990.1116274148593
 30
0.0
  0
VERTEX
  5
132
  8
FAB_2$FISHBOWL$WALLS_SIDE
 10
-6338.546372543062
 20
990.0796647500484
 30
0.0
  0
VERTEX
  5
133
  8
FAB_2$FISHBOWL$WALLS_SIDE
 10
-6338.607373007175
 20
990.0489997735846
 30
0.0
  0
VERTEX
  5
134
  8
FAB_2$FISHBOWL$WALLS_SIDE
 10
-6338.669242309292
 20
990.019586079987
 30
0.0
  0
VERTEX
  5
135
  8
FAB_2$FISHBOWL$WALLS_SIDE
 10
-6338.731931997901
 20
989.9913772637748
 30
0.0
  0
VERTEX
  5
136
  8
FAB_2$FISHBOWL$WALLS_SIDE
 10
-6338.795393621484
 20
989.9643269194672
 30
0.0
  0
VERTEX
  5
137
  8
FAB_2$FISHBOWL$WALLS_SIDE
 10
-6338.85957872853
 20
989.9383886415833
 30
0.0
  0
VERTEX
  5
138
  8
FAB_2$FISHBOWL$WALLS_SIDE
 10
-6338.989925586952
 20
989.8896626631633
 30
0.0
  0
VERTEX
  5
139
  8
FAB_2$FISHBOWL$WALLS_SIDE
 10
-6339.122584961055
 20
989.8448280846683
 30
0.0
  0
VERTEX
  5
13A
  8
FAB_2$FISHBOWL$WALLS_SIDE
 10
-6339.257169238724
 20
989.8035136622512
 30
0.0
  0
VERTEX
  5
13B
  8
FAB_2$FISHBOWL$WALLS_SIDE
 10
-6339.39329080785
 20
989.7653481520656
 30
0.0
  0
VERTEX
  5
13C
  8
FAB_2$FISHBOWL$WALLS_SIDE
 10
-6339.530562056319
 20
989.7299603102646
 30
0.0
  0
VERTEX
  5
13D
  8
FAB_2$FISHBOWL$WALLS_SIDE
 10
-6339.668595372019
 20
989.6969788930016
 30
0.0
  0
VERTEX
  5
13E
  8
FAB_2$FISHBOWL$WALLS_SIDE
 10
-6339.945397756667
 20
989.6367503567026
 30
0.0
  0
VERTEX
  5
13F
  8
FAB_2$FISHBOWL$WALLS_SIDE
 10
-6340.221147278532
 20
989.5822697820113
 30
0.0
  0
VERTEX
  5
140
  8
FAB_2$FISHBOWL$WALLS_SIDE
 10
-6340.495494108891
 20
989.5334531662372
 30
0.0
  0
VERTEX
  5
141
  8
FAB_2$FISHBOWL$WALLS_SIDE
 10
-6340.76863863266
 20
989.4907936963061
 30
0.0
  0
VERTEX
  5
142
  8
FAB_2$FISHBOWL$WALLS_SIDE
 10
-6341.04078123475
 20
989.454784559144
 30
0.0
  0
VERTEX
  5
143
  8
FAB_2$FISHBOWL$WALLS_SIDE
 10
-6341.312122300078
 20
989.4259189416766
 30
0.0
  0
VERTEX
  5
144
  8
FAB_2$FISHBOWL$WALLS_SIDE
 10
-6341.582862213558
 20
989.40469003083
 30
0.0
  0
VERTEX
  5
145
  8
FAB_2$FISHBOWL$WALLS_SIDE
 10
-6341.853201360101
 20
989.39159101353
 30
0.0
  0
VERTEX
  5
146
  8
FAB_2$FISHBOWL$WALLS_SIDE
 10
-6342.123340124624
 20
989.3871150767027
 30
0.0
  0
VERTEX
  5
147
  8
FAB_2$FISHBOWL$WALLS_SIDE
 10
-6342.393478891912
 20
989.3915910115502
 30
0.0
  0
VERTEX
  5
148
  8
FAB_2$FISHBOWL$WALLS_SIDE
 10
-6342.663818046251
 20
989.4046900263811
 30
0.0
  0
VERTEX
  5
149
  8
FAB_2$FISHBOWL$WALLS_SIDE
 10
-6342.934557971795
 20
989.4259189337804
 30
0.0
  0
VERTEX
  5
14A
  8
FAB_2$FISHBOWL$WALLS_SIDE
 10
-6343.205899052701
 20
989.4547845463328
 30
0.0
  0
VERTEX
  5
14B
  8
FAB_2$FISHBOWL$WALLS_SIDE
 10
-6343.478041673126
 20
989.4907936766233
 30
0.0
  0
VERTEX
  5
14C
  8
FAB_2$FISHBOWL$WALLS_SIDE
 10
-6343.751186217225
 20
989.5334531372366
 30
0.0
  0
VERTEX
  5
14D
  8
FAB_2$FISHBOWL$WALLS_SIDE
 10
-6344.025533069156
 20
989.582269740758
 30
0.0
  0
VERTEX
  5
14E
  8
FAB_2$FISHBOWL$WALLS_SIDE
 10
-6344.301282613073
 20
989.636750299772
 30
0.0
  0
VERTEX
  5
14F
  8
FAB_2$FISHBOWL$WALLS_SIDE
 10
-6344.5780850194
 20
989.6969788168985
 30
0.0
  0
VERTEX
  5
150
  8
FAB_2$FISHBOWL$WALLS_SIDE
 10
-6344.716118345415
 20
989.7299602237391
 30
0.0
  0
VERTEX
  5
151
  8
FAB_2$FISHBOWL$WALLS_SIDE
 10
-6344.853389603621
 20
989.765348054897
 30
0.0
  0
VERTEX
  5
152
  8
FAB_2$FISHBOWL$WALLS_SIDE
 10
-6344.989511181738
 20
989.8035135544714
 30
0.0
  0
VERTEX
  5
153
  8
FAB_2$FISHBOWL$WALLS_SIDE
 10
-6345.124095467483
 20
989.8448279665615
 30
0.0
  0
VERTEX
  5
154
  8
FAB_2$FISHBOWL$WALLS_SIDE
 10
-6345.256754848576
 20
989.8896625352668
 30
0.0
  0
VERTEX
  5
155
  8
FAB_2$FISHBOWL$WALLS_SIDE
 10
-6345.387101712736
 20
989.9383885046864
 30
0.0
  0
VERTEX
  5
156
  8
FAB_2$FISHBOWL$WALLS_SIDE
 10
-6345.451286822128
 20
989.964326778445
 30
0.0
  0
VERTEX
  5
157
  8
FAB_2$FISHBOWL$WALLS_SIDE
 10
-6345.51474844768
 20
989.9913771189196
 30
0.0
  0
VERTEX
  5
158
  8
FAB_2$FISHBOWL$WALLS_SIDE
 10
-6345.577438137859
 20
990.0195859316224
 30
0.0
  0
VERTEX
  5
159
  8
FAB_2$FISHBOWL$WALLS_SIDE
 10
-6345.639307441128
 20
990.0489996220657
 30
0.0
  0
VERTEX
  5
15A
  8
FAB_2$FISHBOWL$WALLS_SIDE
 10
-6345.700307905954
 20
990.0796645957621
 30
0.0
  0
VERTEX
  5
15B
  8
FAB_2$FISHBOWL$WALLS_SIDE
 10
-6345.760391080799
 20
990.111627258224
 30
0.0
  0
VERTEX
  5
15C
  8
FAB_2$FISHBOWL$WALLS_SIDE
 10
-6345.81950851413
 20
990.1449340149636
 30
0.0
  0
VERTEX
  5
15D
  8
FAB_2$FISHBOWL$WALLS_SIDE
 10
-6345.87761175441
 20
990.1796312714937
 30
0.0
  0
VERTEX
  5
15E
  8
FAB_2$FISHBOWL$WALLS_SIDE
 10
-6345.934652350105
 20
990.2157654333264
 30
0.0
  0
VERTEX
  5
15F
  8
FAB_2$FISHBOWL$WALLS_SIDE
 10
-6345.990581849681
 20
990.2533829059741
 30
0.0
  0
VERTEX
  5
160
  8
FAB_2$FISHBOWL$WALLS_SIDE
 10
-6346.045351801601
 20
990.2925300949494
 30
0.0
  0
VERTEX
  5
161
  8
FAB_2$FISHBOWL$WALLS_SIDE
 10
-6346.098913754329
 20
990.3332534057646
 30
0.0
  0
VERTEX
  5
162
  8
FAB_2$FISHBOWL$WALLS_SIDE
 10
-6346.151219256333
 20
990.3755992439321
 30
0.0
  0
VERTEX
  5
163
  8
FAB_2$FISHBOWL$WALLS_SIDE
 10
-6346.202219856075
 20
990.4196140149643
 30
0.0
  0
VERTEX
  5
164
  8
FAB_2$FISHBOWL$WALLS_SIDE
 10
-6346.251867102022
 20
990.4653441243737
 30
0.0
  0
VERTEX
  5
165
  8
FAB_2$FISHBOWL$WALLS_SIDE
 10
-6346.300112542636
 20
990.5128359776727
 30
0.0
  0
VERTEX
  5
166
  8
FAB_2$FISHBOWL$WALLS_SIDE
 10
-6346.346940703967
 20
990.5620946793615
 30
0.0
  0
VERTEX
  5
167
  8
FAB_2$FISHBOWL$WALLS_SIDE
 10
-6346.392468022392
 20
990.6129601298917
 30
0.0
  0
VERTEX
  5
168
  8
FAB_2$FISHBOWL$WALLS_SIDE
 10
-6346.436843911871
 20
990.6652309287026
 30
0.0
  0
VERTEX
  5
169
  8
FAB_2$FISHBOWL$WALLS_SIDE
 10
-6346.480217786367
 20
990.7187056752339
 30
0.0
  0
VERTEX
  5
16A
  8
FAB_2$FISHBOWL$WALLS_SIDE
 10
-6346.564557146246
 20
990.8284614092152
 30
0.0
  0
VERTEX
  5
16B
  8
FAB_2$FISHBOWL$WALLS_SIDE
 10
-6346.891716778519
 20
991.2753621418411
 30
0.0
  0
VERTEX
  5
16C
  8
FAB_2$FISHBOWL$WALLS_SIDE
 10
-6346.933929809588
 20
991.3287878762992
 30
0.0
  0
VERTEX
  5
16D
  8
FAB_2$FISHBOWL$WALLS_SIDE
 10
-6346.976933793202
 20
991.3810007517508
 30
0.0
  0
VERTEX
  5
16E
  8
FAB_2$FISHBOWL$WALLS_SIDE
 10
-6347.020878143319
 20
991.4317993676356
 30
0.0
  0
VERTEX
  5
16F
  8
FAB_2$FISHBOWL$WALLS_SIDE
 10
-6347.065912273902
 20
991.4809823233929
 30
0.0
  0
VERTEX
  5
170
  8
FAB_2$FISHBOWL$WALLS_SIDE
 10
-6347.112185598909
 20
991.5283482184623
 30
0.0
  0
VERTEX
  5
171
  8
FAB_2$FISHBOWL$WALLS_SIDE
 10
-6347.135833651184
 20
991.5512868305636
 30
0.0
  0
VERTEX
  5
172
  8
FAB_2$FISHBOWL$WALLS_SIDE
 10
-6347.159847532303
 20
991.5736956522829
 30
0.0
  0
VERTEX
  5
173
  8
FAB_2$FISHBOWL$WALLS_SIDE
 10
-6347.184245919008
 20
991.5955495085499
 30
0.0
  0
VERTEX
  5
174
  8
FAB_2$FISHBOWL$WALLS_SIDE
 10
-6347.209047488044
 20
991.6168232242945
 30
0.0
  0
VERTEX
  5
175
  8
FAB_2$FISHBOWL$WALLS_SIDE
 10
-6347.234270916157
 20
991.6374916244467
 30
0.0
  0
VERTEX
  5
176
  8
FAB_2$FISHBOWL$WALLS_SIDE
 10
-6347.259934880091
 20
991.6575295339366
 30
0.0
  0
VERTEX
  5
177
  8
FAB_2$FISHBOWL$WALLS_SIDE
 10
-6347.286058056593
 20
991.6769117776937
 30
0.0
  0
VERTEX
  5
178
  8
FAB_2$FISHBOWL$WALLS_SIDE
 10
-6347.312659122407
 20
991.6956131806483
 30
0.0
  0
VERTEX
  5
179
  8
FAB_2$FISHBOWL$WALLS_SIDE
 10
-6347.339756754278
 20
991.7136085677303
 30
0.0
  0
VERTEX
  5
17A
  8
FAB_2$FISHBOWL$WALLS_SIDE
 10
-6347.367369628952
 20
991.7308727638692
 30
0.0
  0
VERTEX
  5
17B
  8
FAB_2$FISHBOWL$WALLS_SIDE
 10
-6347.395516423174
 20
991.7473805939956
 30
0.0
  0
VERTEX
  5
17C
  8
FAB_2$FISHBOWL$WALLS_SIDE
 10
-6347.424215813688
 20
991.7631068830387
 30
0.0
  0
VERTEX
  5
17D
  8
FAB_2$FISHBOWL$WALLS_SIDE
 10
-6347.453486477239
 20
991.7780264559292
 30
0.0
  0
VERTEX
  5
17E
  8
FAB_2$FISHBOWL$WALLS_SIDE
 10
-6347.483347090571
 20
991.7921141375966
 30
0.0
  0
VERTEX
  5
17F
  8
FAB_2$FISHBOWL$WALLS_SIDE
 10
-6347.513816330433
 20
991.805344752971
 30
0.0
  0
VERTEX
  5
180
  8
FAB_2$FISHBOWL$WALLS_SIDE
 10
-6347.544912873566
 20
991.817693126982
 30
0.0
  0
VERTEX
  5
181
  8
FAB_2$FISHBOWL$WALLS_SIDE
 10
-6347.576655396719
 20
991.8291340845599
 30
0.0
  0
VERTEX
  5
182
  8
FAB_2$FISHBOWL$WALLS_SIDE
 10
-6347.609062576634
 20
991.8396424506343
 30
0.0
  0
VERTEX
  5
183
  8
FAB_2$FISHBOWL$WALLS_SIDE
 10
-6347.642153090057
 20
991.8491930501355
 30
0.0
  0
VERTEX
  5
184
  8
FAB_2$FISHBOWL$WALLS_SIDE
 10
-6347.675945613733
 20
991.8577607079931
 30
0.0
  0
VERTEX
  5
185
  8
FAB_2$FISHBOWL$WALLS_SIDE
 10
-6347.710458824407
 20
991.8653202491373
 30
0.0
  0
VERTEX
  5
186
  8
FAB_2$FISHBOWL$WALLS_SIDE
 10
-6347.745711398825
 20
991.8718464984978
 30
0.0
  0
VERTEX
  5
187
  8
FAB_2$FISHBOWL$WALLS_SIDE
 10
-6347.781722013731
 20
991.8773142810047
 30
0.0
  0
VERTEX
  5
188
  8
FAB_2$FISHBOWL$WALLS_SIDE
 10
-6347.818509345871
 20
991.8816984215879
 30
0.0
  0
VERTEX
  5
189
  8
FAB_2$FISHBOWL$WALLS_SIDE
 10
-6347.856092071988
 20
991.8849737451771
 30
0.0
  0
SEQEND
  5
18A
  8
FAB_2$FISHBOWL$WALLS_SIDE
  0
POLYLINE
  5
18B
  8
FAB_2$FISHBOWL$WALLS_SIDE
 66
     1
 10
0.0
 20
0.0
 30
0.0
 70
     1
  0
VERTEX
  5
18C
  8
FAB_2$FISHBOWL$WALLS_SIDE
 10
-6342.123340124623
 20
630.2792349996133
 30
0.0
  0
VERTEX
  5
18D
  8
FAB_2$FISHBOWL$WALLS_SIDE
 10
-6337.253340124623
 20
630.2792349996133
 30
0.0
  0
VERTEX
  5
18E
  8
FAB_2$FISHBOWL$WALLS_SIDE
 10
-6337.253340124623
 20
627.8192349996133
 30
0.0
  0
VERTEX
  5
18F
  8
FAB_2$FISHBOWL$WALLS_SIDE
 10
-6346.993340124623
 20
627.8192349996133
 30
0.0
  0
VERTEX
  5
190
  8
FAB_2$FISHBOWL$WALLS_SIDE
 10
-6346.993340124623
 20
630.2792349996133
 30
0.0
  0
SEQEND
  5
191
  8
FAB_2$FISHBOWL$WALLS_SIDE
  0
POLYLINE
  5
192
  8
FAB_2$FISHBOWL$WALLS_SIDE
 66
     1
 10
0.0
 20
0.0
 30
0.0
 70
     1
  0
VERTEX
  5
193
  8
FAB_2$FISHBOWL$WALLS_SIDE
 10
-6352.253340124623
 20
717.1104687103904
 30
0.0
  0
VERTEX
  5
194
  8
FAB_2$FISHBOWL$WALLS_SIDE
 10
-6352.253340124623
 20
746.9804687103904
 30
0.0
  0
VERTEX
  5
195
  8
FAB_2$FISHBOWL$WALLS_SIDE
 10
-6354.713340124623
 20
746.9804687103904
 30
0.0
  0
VERTEX
  5
196
  8
FAB_2$FISHBOWL$WALLS_SIDE
 10
-6354.713340124623
 20
687.2404687103904
 30
0.0
  0
VERTEX
  5
197
  8
FAB_2$FISHBOWL$WALLS_SIDE
 10
-6352.253340124623
 20
687.2404687103904
 30
0.0
  0
SEQEND
  5
198
  8
FAB_2$FISHBOWL$WALLS_SIDE
  0
POLYLINE
  5
199
  8
FAB_2$FISHBOWL$WALLS_SIDE
 66
     1
 10
0.0
 20
0.0
 30
0.0
 70
     1
  0
VERTEX
  5
19A
  8
FAB_2$FISHBOWL$WALLS_SIDE
 10
-6352.253340124623
 20
963.0336021016476
 30
0.0
  0
VERTEX
  5
19B
  8
FAB_2$FISHBOWL$WALLS_SIDE
 10
-6352.253340124623
 20
903.2936021016476
 30
0.0
  0
VERTEX
  5
19C
  8
FAB_2$FISHBOWL$WALLS_SIDE
 10
-6354.713340124623
 20
903.2936021016476
 30
0.0
  0
VERTEX
  5
19D
  8
FAB_2$FISHBOWL$WALLS_SIDE
 10
-6354.713340124623
 20
963.0336021016476
 30
0.0
  0
SEQEND
  5
19E
  8
FAB_2$FISHBOWL$WALLS_SIDE
  0
POLYLINE
  5
19F
  8
FAB_2$FISHBOWL$WALLS_SIDE
 66
     1
 10
0.0
 20
0.0
 30
0.0
 70
     1
  0
VERTEX
  5
1A0
  8
FAB_2$FISHBOWL$WALLS_SIDE
 10
-6342.123340124623
 20
982.2971150767027
 30
0.0
  0
VERTEX
  5
1A1
  8
FAB_2$FISHBOWL$WALLS_SIDE
 10
-6337.253340124623
 20
982.2971150767027
 30
0.0
  0
VERTEX
  5
1A2
  8
FAB_2$FISHBOWL$WALLS_SIDE
 10
-6337.253340124623
 20
984.7571150767027
 30
0.0
  0
VERTEX
  5
1A3
  8
FAB_2$FISHBOWL$WALLS_SIDE
 10
-6346.993340124623
 20
984.7571150767027
 30
0.0
  0
VERTEX
  5
1A4
  8
FAB_2$FISHBOWL$WALLS_SIDE
 10
-6346.993340124623
 20
982.2971150767027
 30
0.0
  0
SEQEND
  5
1A5
  8
FAB_2$FISHBOWL$WALLS_SIDE
  0
POLYLINE
  5
1A6
  8
FAB_2$FISHBOWL$WALLS_SIDE
 66
     1
 10
0.0
 20
0.0
 30
0.0
 70
     1
  0
VERTEX
  5
1A7
  8
FAB_2$FISHBOWL$WALLS_SIDE
 10
-6300.449307794784
 20
982.2971150767027
 30
0.0
  0
VERTEX
  5
1A8
  8
FAB_2$FISHBOWL$WALLS_SIDE
 10
-6295.579307794784
 20
982.2971150767027
 30
0.0
  0
VERTEX
  5
1A9
  8
FAB_2$FISHBOWL$WALLS_SIDE
 10
-6295.579307794784
 20
984.7571150767027
 30
0.0
  0
VERTEX
  5
1AA
  8
FAB_2$FISHBOWL$WALLS_SIDE
 10
-6305.319307794784
 20
984.7571150767027
 30
0.0
  0
VERTEX
  5
1AB
  8
FAB_2$FISHBOWL$WALLS_SIDE
 10
-6305.319307794784
 20
982.2971150767027
 30
0.0
  0
SEQEND
  5
1AC
  8
FAB_2$FISHBOWL$WALLS_SIDE
  0
POLYLINE
  5
1AD
  8
FAB_2$FISHBOWL$WALLS_SIDE
 66
     1
 10
0.0
 20
0.0
 30
0.0
 70
     1
  0
VERTEX
  5
1AE
  8
FAB_2$FISHBOWL$WALLS_SIDE
 10
-6310.579307794784
 20
963.0336021016476
 30
0.0
  0
VERTEX
  5
1AF
  8
FAB_2$FISHBOWL$WALLS_SIDE
 10
-6310.579307794784
 20
903.2936021016476
 30
0.0
  0
VERTEX
  5
1B0
  8
FAB_2$FISHBOWL$WALLS_SIDE
 10
-6313.039307794784
 20
903.2936021016476
 30
0.0
  0
VERTEX
  5
1B1
  8
FAB_2$FISHBOWL$WALLS_SIDE
 10
-6313.039307794784
 20
963.0336021016476
 30
0.0
  0
SEQEND
  5
1B2
  8
FAB_2$FISHBOWL$WALLS_SIDE
  0
POLYLINE
  5
1B3
  8
FAB_2$FISHBOWL$WALLS_SIDE
 66
     1
 10
0.0
 20
0.0
 30
0.0
 70
     1
  0
VERTEX
  5
1B4
  8
FAB_2$FISHBOWL$WALLS_SIDE
 10
-6310.579307794784
 20
717.1104687103904
 30
0.0
  0
VERTEX
  5
1B5
  8
FAB_2$FISHBOWL$WALLS_SIDE
 10
-6310.579307794784
 20
746.9804687103904
 30
0.0
  0
VERTEX
  5
1B6
  8
FAB_2$FISHBOWL$WALLS_SIDE
 10
-6313.039307794784
 20
746.9804687103904
 30
0.0
  0
VERTEX
  5
1B7
  8
FAB_2$FISHBOWL$WALLS_SIDE
 10
-6313.039307794784
 20
687.2404687103904
 30
0.0
  0
VERTEX
  5
1B8
  8
FAB_2$FISHBOWL$WALLS_SIDE
 10
-6310.579307794784
 20
687.2404687103904
 30
0.0
  0
SEQEND
  5
1B9
  8
FAB_2$FISHBOWL$WALLS_SIDE
  0
POLYLINE
  5
1BA
  8
FAB_2$FISHBOWL$WALLS_SIDE
 66
     1
 10
0.0
 20
0.0
 30
0.0
 70
     1
  0
VERTEX
  5
1BB
  8
FAB_2$FISHBOWL$WALLS_SIDE
 10
-6300.449307794784
 20
630.2792349996133
 30
0.0
  0
VERTEX
  5
1BC
  8
FAB_2$FISHBOWL$WALLS_SIDE
 10
-6295.579307794784
 20
630.2792349996133
 30
0.0
  0
VERTEX
  5
1BD
  8
FAB_2$FISHBOWL$WALLS_SIDE
 10
-6295.579307794784
 20
627.8192349996133
 30
0.0
  0
VERTEX
  5
1BE
  8
FAB_2$FISHBOWL$WALLS_SIDE
 10
-6305.319307794784
 20
627.8192349996133
 30
0.0
  0
VERTEX
  5
1BF
  8
FAB_2$FISHBOWL$WALLS_SIDE
 10
-6305.319307794784
 20
630.2792349996133
 30
0.0
  0
SEQEND
  5
1C0
  8
FAB_2$FISHBOWL$WALLS_SIDE
  0
POLYLINE
  5
1C1
  8
FAB_2$FISHBOWL$WALLS_SIDE
 66
     1
 10
0.0
 20
0.0
 30
0.0
 70
     1
  0
VERTEX
  5
1C2
  8
FAB_2$FISHBOWL$WALLS_SIDE
 10
-6306.220456538991
 20
991.8871150767027
 30
0.0
  0
VERTEX
  5
1C3
  8
FAB_2$FISHBOWL$WALLS_SIDE
 10
-6317.729307794783
 20
991.8871150767017
 30
0.0
 42
0.4142135623733169
  0
VERTEX
  5
1C4
  8
FAB_2$FISHBOWL$WALLS_SIDE
 10
-6320.449307794784
 20
989.1671150767016
 30
0.0
  0
VERTEX
  5
1C5
  8
FAB_2$FISHBOWL$WALLS_SIDE
 10
-6320.449307794784
 20
623.4092349996143
 30
0.0
 42
0.4142135623730729
  0
VERTEX
  5
1C6
  8
FAB_2$FISHBOWL$WALLS_SIDE
 10
-6317.729307794783
 20
620.6892349996144
 30
0.0
  0
VERTEX
  5
1C7
  8
FAB_2$FISHBOWL$WALLS_SIDE
 10
-6306.220456538992
 20
620.6892349996133
 30
0.0
  0
VERTEX
  5
1C8
  8
FAB_2$FISHBOWL$WALLS_SIDE
 10
-6306.182059745309
 20
620.6913763340008
 30
0.0
  0
VERTEX
  5
1C9
  8
FAB_2$FISHBOWL$WALLS_SIDE
 10
-6306.144477021988
 20
620.6946516601125
 30
0.0
  0
VERTEX
  5
1CA
  8
FAB_2$FISHBOWL$WALLS_SIDE
 10
-6306.107689692293
 20
620.699035802887
 30
0.0
  0
VERTEX
  5
1CB
  8
FAB_2$FISHBOWL$WALLS_SIDE
 10
-6306.071679079487
 20
620.7045035872627
 30
0.0
  0
VERTEX
  5
1CC
  8
FAB_2$FISHBOWL$WALLS_SIDE
 10
-6306.036426506833
 20
620.7110298381778
 30
0.0
  0
VERTEX
  5
1CD
  8
FAB_2$FISHBOWL$WALLS_SIDE
 10
-6306.001913297596
 20
620.7185893805706
 30
0.0
  0
VERTEX
  5
1CE
  8
FAB_2$FISHBOWL$WALLS_SIDE
 10
-6305.968120775037
 20
620.7271570393796
 30
0.0
  0
VERTEX
  5
1CF
  8
FAB_2$FISHBOWL$WALLS_SIDE
 10
-6305.935030262423
 20
620.736707639543
 30
0.0
  0
VERTEX
  5
1D0
  8
FAB_2$FISHBOWL$WALLS_SIDE
 10
-6305.902623083013
 20
620.7472160059995
 30
0.0
  0
VERTEX
  5
1D1
  8
FAB_2$FISHBOWL$WALLS_SIDE
 10
-6305.870880560075
 20
620.7586569636869
 30
0.0
  0
VERTEX
  5
1D2
  8
FAB_2$FISHBOWL$WALLS_SIDE
 10
-6305.839784016867
 20
620.7710053375442
 30
0.0
  0
VERTEX
  5
1D3
  8
FAB_2$FISHBOWL$WALLS_SIDE
 10
-6305.809314776658
 20
620.7842359525093
 30
0.0
  0
VERTEX
  5
1D4
  8
FAB_2$FISHBOWL$WALLS_SIDE
 10
-6305.779454162708
 20
620.7983236335208
 30
0.0
  0
VERTEX
  5
1D5
  8
FAB_2$FISHBOWL$WALLS_SIDE
 10
-6305.75018349828
 20
620.8132432055169
 30
0.0
  0
VERTEX
  5
1D6
  8
FAB_2$FISHBOWL$WALLS_SIDE
 10
-6305.72148410664
 20
620.8289694934359
 30
0.0
  0
VERTEX
  5
1D7
  8
FAB_2$FISHBOWL$WALLS_SIDE
 10
-6305.69333731105
 20
620.8454773222163
 30
0.0
  0
VERTEX
  5
1D8
  8
FAB_2$FISHBOWL$WALLS_SIDE
 10
-6305.665724434773
 20
620.8627415167964
 30
0.0
  0
VERTEX
  5
1D9
  8
FAB_2$FISHBOWL$WALLS_SIDE
 10
-6305.638626801072
 20
620.8807369021147
 30
0.0
  0
VERTEX
  5
1DA
  8
FAB_2$FISHBOWL$WALLS_SIDE
 10
-6305.612025733211
 20
620.8994383031094
 30
0.0
  0
VERTEX
  5
1DB
  8
FAB_2$FISHBOWL$WALLS_SIDE
 10
-6305.585902554456
 20
620.918820544719
 30
0.0
  0
VERTEX
  5
1DC
  8
FAB_2$FISHBOWL$WALLS_SIDE
 10
-6305.560238588067
 20
620.9388584518817
 30
0.0
  0
VERTEX
  5
1DD
  8
FAB_2$FISHBOWL$WALLS_SIDE
 10
-6305.535015157308
 20
620.9595268495359
 30
0.0
  0
VERTEX
  5
1DE
  8
FAB_2$FISHBOWL$WALLS_SIDE
 10
-6305.510213585443
 20
620.9808005626201
 30
0.0
  0
VERTEX
  5
1DF
  8
FAB_2$FISHBOWL$WALLS_SIDE
 10
-6305.485815195736
 20
621.0026544160725
 30
0.0
  0
VERTEX
  5
1E0
  8
FAB_2$FISHBOWL$WALLS_SIDE
 10
-6305.46180131145
 20
621.0250632348315
 30
0.0
  0
VERTEX
  5
1E1
  8
FAB_2$FISHBOWL$WALLS_SIDE
 10
-6305.438153255846
 20
621.0480018438354
 30
0.0
  0
VERTEX
  5
1E2
  8
FAB_2$FISHBOWL$WALLS_SIDE
 10
-6305.391879923747
 20
621.0953677323315
 30
0.0
  0
VERTEX
  5
1E3
  8
FAB_2$FISHBOWL$WALLS_SIDE
 10
-6305.346845785545
 20
621.1445506810678
 30
0.0
  0
VERTEX
  5
1E4
  8
FAB_2$FISHBOWL$WALLS_SIDE
 10
-6305.302901427348
 20
621.1953492895509
 30
0.0
  0
VERTEX
  5
1E5
  8
FAB_2$FISHBOWL$WALLS_SIDE
 10
-6305.259897435263
 20
621.2475621572879
 30
0.0
  0
VERTEX
  5
1E6
  8
FAB_2$FISHBOWL$WALLS_SIDE
 10
-6305.217684395397
 20
621.3009878837858
 30
0.0
  0
VERTEX
  5
1E7
  8
FAB_2$FISHBOWL$WALLS_SIDE
 10
-6304.890524689216
 20
621.7478885519774
 30
0.0
  0
VERTEX
  5
1E8
  8
FAB_2$FISHBOWL$WALLS_SIDE
 10
-6304.806185312369
 20
621.857644272113
 30
0.0
  0
VERTEX
  5
1E9
  8
FAB_2$FISHBOWL$WALLS_SIDE
 10
-6304.76281142999
 20
621.9111190124318
 30
0.0
  0
VERTEX
  5
1EA
  8
FAB_2$FISHBOWL$WALLS_SIDE
 10
-6304.718435533117
 20
621.9633898055936
 30
0.0
  0
VERTEX
  5
1EB
  8
FAB_2$FISHBOWL$WALLS_SIDE
 10
-6304.672908207857
 20
622.0142552511054
 30
0.0
  0
VERTEX
  5
1EC
  8
FAB_2$FISHBOWL$WALLS_SIDE
 10
-6304.626080040318
 20
622.0635139484739
 30
0.0
  0
VERTEX
  5
1ED
  8
FAB_2$FISHBOWL$WALLS_SIDE
 10
-6304.577834594174
 20
622.1110057982017
 30
0.0
  0
VERTEX
  5
1EE
  8
FAB_2$FISHBOWL$WALLS_SIDE
 10
-6304.528187343372
 20
622.1567359047742
 30
0.0
  0
VERTEX
  5
1EF
  8
FAB_2$FISHBOWL$WALLS_SIDE
 10
-6304.477186739427
 20
622.200750673672
 30
0.0
  0
VERTEX
  5
1F0
  8
FAB_2$FISHBOWL$WALLS_SIDE
 10
-6304.424881233849
 20
622.243096510376
 30
0.0
  0
VERTEX
  5
1F1
  8
FAB_2$FISHBOWL$WALLS_SIDE
 10
-6304.371319278156
 20
622.283819820367
 30
0.0
  0
VERTEX
  5
1F2
  8
FAB_2$FISHBOWL$WALLS_SIDE
 10
-6304.316549323861
 20
622.3229670091258
 30
0.0
  0
VERTEX
  5
1F3
  8
FAB_2$FISHBOWL$WALLS_SIDE
 10
-6304.260619822478
 20
622.3605844821334
 30
0.0
  0
VERTEX
  5
1F4
  8
FAB_2$FISHBOWL$WALLS_SIDE
 10
-6304.203579225521
 20
622.3967186448706
 30
0.0
  0
VERTEX
  5
1F5
  8
FAB_2$FISHBOWL$WALLS_SIDE
 10
-6304.145475984504
 20
622.4314159028181
 30
0.0
  0
VERTEX
  5
1F6
  8
FAB_2$FISHBOWL$WALLS_SIDE
 10
-6304.086358550941
 20
622.4647226614569
 30
0.0
  0
VERTEX
  5
1F7
  8
FAB_2$FISHBOWL$WALLS_SIDE
 10
-6304.026275376345
 20
622.4966853262678
 30
0.0
  0
VERTEX
  5
1F8
  8
FAB_2$FISHBOWL$WALLS_SIDE
 10
-6303.965274912232
 20
622.5273503027316
 30
0.0
  0
VERTEX
  5
1F9
  8
FAB_2$FISHBOWL$WALLS_SIDE
 10
-6303.903405610114
 20
622.5567639963292
 30
0.0
  0
VERTEX
  5
1FA
  8
FAB_2$FISHBOWL$WALLS_SIDE
 10
-6303.840715921506
 20
622.5849728125414
 30
0.0
  0
VERTEX
  5
1FB
  8
FAB_2$FISHBOWL$WALLS_SIDE
 10
-6303.777254297922
 20
622.612023156849
 30
0.0
  0
VERTEX
  5
1FC
  8
FAB_2$FISHBOWL$WALLS_SIDE
 10
-6303.713069190876
 20
622.6379614347329
 30
0.0
  0
VERTEX
  5
1FD
  8
FAB_2$FISHBOWL$WALLS_SIDE
 10
-6303.582722332455
 20
622.6866874131529
 30
0.0
  0
VERTEX
  5
1FE
  8
FAB_2$FISHBOWL$WALLS_SIDE
 10
-6303.450062958353
 20
622.7315219916479
 30
0.0
  0
VERTEX
  5
1FF
  8
FAB_2$FISHBOWL$WALLS_SIDE
 10
-6303.315478680684
 20
622.772836414065
 30
0.0
  0
VERTEX
  5
200
  8
FAB_2$FISHBOWL$WALLS_SIDE
 10
-6303.179357111558
 20
622.8110019242506
 30
0.0
  0
VERTEX
  5
201
  8
FAB_2$FISHBOWL$WALLS_SIDE
 10
-6303.042085863088
 20
622.8463897660515
 30
0.0
  0
VERTEX
  5
202
  8
FAB_2$FISHBOWL$WALLS_SIDE
 10
-6302.904052547387
 20
622.8793711833146
 30
0.0
  0
VERTEX
  5
203
  8
FAB_2$FISHBOWL$WALLS_SIDE
 10
-6302.627250162739
 20
622.9395997196135
 30
0.0
  0
VERTEX
  5
204
  8
FAB_2$FISHBOWL$WALLS_SIDE
 10
-6302.351500640874
 20
622.9940802943046
 30
0.0
  0
VERTEX
  5
205
  8
FAB_2$FISHBOWL$WALLS_SIDE
 10
-6302.077153810515
 20
623.0428969100788
 30
0.0
  0
VERTEX
  5
206
  8
FAB_2$FISHBOWL$WALLS_SIDE
 10
-6301.804009286748
 20
623.0855563800098
 30
0.0
  0
VERTEX
  5
207
  8
FAB_2$FISHBOWL$WALLS_SIDE
 10
-6301.531866684656
 20
623.121565517172
 30
0.0
  0
VERTEX
  5
208
  8
FAB_2$FISHBOWL$WALLS_SIDE
 10
-6301.260525619328
 20
623.1504311346393
 30
0.0
  0
VERTEX
  5
209
  8
FAB_2$FISHBOWL$WALLS_SIDE
 10
-6300.989785705849
 20
623.171660045486
 30
0.0
  0
VERTEX
  5
20A
  8
FAB_2$FISHBOWL$WALLS_SIDE
 10
-6300.719446559307
 20
623.1847590627859
 30
0.0
  0
VERTEX
  5
20B
  8
FAB_2$FISHBOWL$WALLS_SIDE
 10
-6300.449307794784
 20
623.1892349996133
 30
0.0
  0
VERTEX
  5
20C
  8
FAB_2$FISHBOWL$WALLS_SIDE
 10
-6300.179169027493
 20
623.1847590647658
 30
0.0
  0
VERTEX
  5
20D
  8
FAB_2$FISHBOWL$WALLS_SIDE
 10
-6299.908829873155
 20
623.1716600499349
 30
0.0
  0
VERTEX
  5
20E
  8
FAB_2$FISHBOWL$WALLS_SIDE
 10
-6299.638089947611
 20
623.1504311425356
 30
0.0
  0
VERTEX
  5
20F
  8
FAB_2$FISHBOWL$WALLS_SIDE
 10
-6299.366748866705
 20
623.1215655299832
 30
0.0
  0
VERTEX
  5
210
  8
FAB_2$FISHBOWL$WALLS_SIDE
 10
-6299.094606246281
 20
623.0855563996927
 30
0.0
  0
VERTEX
  5
211
  8
FAB_2$FISHBOWL$WALLS_SIDE
 10
-6298.821461702182
 20
623.0428969390794
 30
0.0
  0
VERTEX
  5
212
  8
FAB_2$FISHBOWL$WALLS_SIDE
 10
-6298.547114850251
 20
622.9940803355581
 30
0.0
  0
VERTEX
  5
213
  8
FAB_2$FISHBOWL$WALLS_SIDE
 10
-6298.271365306333
 20
622.9395997765441
 30
0.0
  0
VERTEX
  5
214
  8
FAB_2$FISHBOWL$WALLS_SIDE
 10
-6297.994562900006
 20
622.8793712594176
 30
0.0
  0
VERTEX
  5
215
  8
FAB_2$FISHBOWL$WALLS_SIDE
 10
-6297.856529573991
 20
622.846389852577
 30
0.0
  0
VERTEX
  5
216
  8
FAB_2$FISHBOWL$WALLS_SIDE
 10
-6297.719258315786
 20
622.8110020214191
 30
0.0
  0
VERTEX
  5
217
  8
FAB_2$FISHBOWL$WALLS_SIDE
 10
-6297.58313673767
 20
622.7728365218447
 30
0.0
  0
VERTEX
  5
218
  8
FAB_2$FISHBOWL$WALLS_SIDE
 10
-6297.448552451924
 20
622.7315221097546
 30
0.0
  0
VERTEX
  5
219
  8
FAB_2$FISHBOWL$WALLS_SIDE
 10
-6297.31589307083
 20
622.6866875410494
 30
0.0
  0
VERTEX
  5
21A
  8
FAB_2$FISHBOWL$WALLS_SIDE
 10
-6297.185546206671
 20
622.6379615716297
 30
0.0
  0
VERTEX
  5
21B
  8
FAB_2$FISHBOWL$WALLS_SIDE
 10
-6297.121361097279
 20
622.612023297871
 30
0.0
  0
VERTEX
  5
21C
  8
FAB_2$FISHBOWL$WALLS_SIDE
 10
-6297.057899471726
 20
622.5849729573965
 30
0.0
  0
VERTEX
  5
21D
  8
FAB_2$FISHBOWL$WALLS_SIDE
 10
-6296.995209781547
 20
622.5567641446937
 30
0.0
  0
VERTEX
  5
21E
  8
FAB_2$FISHBOWL$WALLS_SIDE
 10
-6296.933340478277
 20
622.5273504542504
 30
0.0
  0
VERTEX
  5
21F
  8
FAB_2$FISHBOWL$WALLS_SIDE
 10
-6296.872340013451
 20
622.4966854805539
 30
0.0
  0
VERTEX
  5
220
  8
FAB_2$FISHBOWL$WALLS_SIDE
 10
-6296.812256838606
 20
622.464722818092
 30
0.0
  0
VERTEX
  5
221
  8
FAB_2$FISHBOWL$WALLS_SIDE
 10
-6296.753139405276
 20
622.4314160613524
 30
0.0
  0
VERTEX
  5
222
  8
FAB_2$FISHBOWL$WALLS_SIDE
 10
-6296.695036164995
 20
622.3967188048223
 30
0.0
  0
VERTEX
  5
223
  8
FAB_2$FISHBOWL$WALLS_SIDE
 10
-6296.6379955693
 20
622.3605846429896
 30
0.0
  0
VERTEX
  5
224
  8
FAB_2$FISHBOWL$WALLS_SIDE
 10
-6296.582066069725
 20
622.3229671703418
 30
0.0
  0
VERTEX
  5
225
  8
FAB_2$FISHBOWL$WALLS_SIDE
 10
-6296.527296117804
 20
622.2838199813666
 30
0.0
  0
VERTEX
  5
226
  8
FAB_2$FISHBOWL$WALLS_SIDE
 10
-6296.473734165076
 20
622.2430966705514
 30
0.0
  0
VERTEX
  5
227
  8
FAB_2$FISHBOWL$WALLS_SIDE
 10
-6296.421428663072
 20
622.2007508323838
 30
0.0
  0
VERTEX
  5
228
  8
FAB_2$FISHBOWL$WALLS_SIDE
 10
-6296.37042806333
 20
622.1567360613517
 30
0.0
  0
VERTEX
  5
229
  8
FAB_2$FISHBOWL$WALLS_SIDE
 10
-6296.320780817384
 20
622.1110059519423
 30
0.0
  0
VERTEX
  5
22A
  8
FAB_2$FISHBOWL$WALLS_SIDE
 10
-6296.272535376769
 20
622.0635140986433
 30
0.0
  0
VERTEX
  5
22B
  8
FAB_2$FISHBOWL$WALLS_SIDE
 10
-6296.225707215439
 20
622.0142553969545
 30
0.0
  0
VERTEX
  5
22C
  8
FAB_2$FISHBOWL$WALLS_SIDE
 10
-6296.180179897014
 20
621.9633899464243
 30
0.0
  0
VERTEX
  5
22D
  8
FAB_2$FISHBOWL$WALLS_SIDE
 10
-6296.135804007535
 20
621.9111191476134
 30
0.0
  0
VERTEX
  5
22E
  8
FAB_2$FISHBOWL$WALLS_SIDE
 10
-6296.092430133039
 20
621.8576444010821
 30
0.0
  0
VERTEX
  5
22F
  8
FAB_2$FISHBOWL$WALLS_SIDE
 10
-6296.008090773159
 20
621.7478886671008
 30
0.0
  0
VERTEX
  5
230
  8
FAB_2$FISHBOWL$WALLS_SIDE
 10
-6295.680931140887
 20
621.3009879344748
 30
0.0
  0
VERTEX
  5
231
  8
FAB_2$FISHBOWL$WALLS_SIDE
 10
-6295.638718109818
 20
621.2475622000168
 30
0.0
  0
VERTEX
  5
232
  8
FAB_2$FISHBOWL$WALLS_SIDE
 10
-6295.595714126204
 20
621.1953493245652
 30
0.0
  0
VERTEX
  5
233
  8
FAB_2$FISHBOWL$WALLS_SIDE
 10
-6295.551769776087
 20
621.1445507086804
 30
0.0
  0
VERTEX
  5
234
  8
FAB_2$FISHBOWL$WALLS_SIDE
 10
-6295.506735645506
 20
621.095367752923
 30
0.0
  0
VERTEX
  5
235
  8
FAB_2$FISHBOWL$WALLS_SIDE
 10
-6295.460462320498
 20
621.0480018578537
 30
0.0
  0
VERTEX
  5
236
  8
FAB_2$FISHBOWL$WALLS_SIDE
 10
-6295.436814268221
 20
621.0250632457523
 30
0.0
  0
VERTEX
  5
237
  8
FAB_2$FISHBOWL$WALLS_SIDE
 10
-6295.412800387104
 20
621.002654424033
 30
0.0
  0
VERTEX
  5
238
  8
FAB_2$FISHBOWL$WALLS_SIDE
 10
-6295.388402000399
 20
620.9808005677661
 30
0.0
  0
VERTEX
  5
239
  8
FAB_2$FISHBOWL$WALLS_SIDE
 10
-6295.363600431363
 20
620.9595268520214
 30
0.0
  0
VERTEX
  5
23A
  8
FAB_2$FISHBOWL$WALLS_SIDE
 10
-6295.338377003251
 20
620.9388584518692
 30
0.0
  0
VERTEX
  5
23B
  8
FAB_2$FISHBOWL$WALLS_SIDE
 10
-6295.312713039315
 20
620.9188205423794
 30
0.0
  0
VERTEX
  5
23C
  8
FAB_2$FISHBOWL$WALLS_SIDE
 10
-6295.286589862813
 20
620.8994382986223
 30
0.0
  0
VERTEX
  5
23D
  8
FAB_2$FISHBOWL$WALLS_SIDE
 10
-6295.259988796999
 20
620.8807368956677
 30
0.0
  0
VERTEX
  5
23E
  8
FAB_2$FISHBOWL$WALLS_SIDE
 10
-6295.232891165128
 20
620.8627415085857
 30
0.0
  0
VERTEX
  5
23F
  8
FAB_2$FISHBOWL$WALLS_SIDE
 10
-6295.205278290454
 20
620.8454773124467
 30
0.0
  0
VERTEX
  5
240
  8
FAB_2$FISHBOWL$WALLS_SIDE
 10
-6295.177131496233
 20
620.8289694823204
 30
0.0
  0
VERTEX
  5
241
  8
FAB_2$FISHBOWL$WALLS_SIDE
 10
-6295.14843210572
 20
620.8132431932772
 30
0.0
  0
VERTEX
  5
242
  8
FAB_2$FISHBOWL$WALLS_SIDE
 10
-6295.119161442169
 20
620.7983236203868
 30
0.0
  0
VERTEX
  5
243
  8
FAB_2$FISHBOWL$WALLS_SIDE
 10
-6295.089300828835
 20
620.7842359387193
 30
0.0
  0
VERTEX
  5
244
  8
FAB_2$FISHBOWL$WALLS_SIDE
 10
-6295.058831588974
 20
620.771005323345
 30
0.0
  0
VERTEX
  5
245
  8
FAB_2$FISHBOWL$WALLS_SIDE
 10
-6295.02773504584
 20
620.758656949334
 30
0.0
  0
VERTEX
  5
246
  8
FAB_2$FISHBOWL$WALLS_SIDE
 10
-6294.995992522687
 20
620.7472159917561
 30
0.0
  0
VERTEX
  5
247
  8
FAB_2$FISHBOWL$WALLS_SIDE
 10
-6294.963585342772
 20
620.7367076256817
 30
0.0
  0
VERTEX
  5
248
  8
FAB_2$FISHBOWL$WALLS_SIDE
 10
-6294.930494829349
 20
620.7271570261805
 30
0.0
  0
VERTEX
  5
249
  8
FAB_2$FISHBOWL$WALLS_SIDE
 10
-6294.896702305674
 20
620.7185893683229
 30
0.0
  0
VERTEX
  5
24A
  8
FAB_2$FISHBOWL$WALLS_SIDE
 10
-6294.862189095
 20
620.7110298271787
 30
0.0
  0
VERTEX
  5
24B
  8
FAB_2$FISHBOWL$WALLS_SIDE
 10
-6294.826936520582
 20
620.7045035778182
 30
0.0
  0
VERTEX
  5
24C
  8
FAB_2$FISHBOWL$WALLS_SIDE
 10
-6294.790925905676
 20
620.6990357953113
 30
0.0
  0
VERTEX
  5
24D
  8
FAB_2$FISHBOWL$WALLS_SIDE
 10
-6294.754138573535
 20
620.6946516547281
 30
0.0
  0
VERTEX
  5
24E
  8
FAB_2$FISHBOWL$WALLS_SIDE
 10
-6294.716555847417
 20
620.6913763311388
 30
0.0
  0
VERTEX
  5
24F
  8
FAB_2$FISHBOWL$WALLS_SIDE
 10
-6294.678159050576
 20
620.6892349996133
 30
0.0
  0
VERTEX
  5
250
  8
FAB_2$FISHBOWL$WALLS_SIDE
 10
-6283.169307794783
 20
620.6892349996142
 30
0.0
 42
0.4142135623730577
  0
VERTEX
  5
251
  8
FAB_2$FISHBOWL$WALLS_SIDE
 10
-6280.449307794784
 20
623.4092349996145
 30
0.0
  0
VERTEX
  5
252
  8
FAB_2$FISHBOWL$WALLS_SIDE
 10
-6280.449307794783
 20
989.1671150767016
 30
0.0
 42
0.4142135623731858
  0
VERTEX
  5
253
  8
FAB_2$FISHBOWL$WALLS_SIDE
 10
-6283.169307794784
 20
991.8871150767027
 30
0.0
  0
VERTEX
  5
254
  8
FAB_2$FISHBOWL$WALLS_SIDE
 10
-6294.678159050575
 20
991.8871150767026
 30
0.0
  0
VERTEX
  5
255
  8
FAB_2$FISHBOWL$WALLS_SIDE
 10
-6294.716555844258
 20
991.8849737423152
 30
0.0
  0
VERTEX
  5
256
  8
FAB_2$FISHBOWL$WALLS_SIDE
 10
-6294.75413856758
 20
991.8816984162033
 30
0.0
  0
VERTEX
  5
257
  8
FAB_2$FISHBOWL$WALLS_SIDE
 10
-6294.790925897274
 20
991.8773142734289
 30
0.0
  0
VERTEX
  5
258
  8
FAB_2$FISHBOWL$WALLS_SIDE
 10
-6294.82693651008
 20
991.8718464890533
 30
0.0
  0
VERTEX
  5
259
  8
FAB_2$FISHBOWL$WALLS_SIDE
 10
-6294.862189082734
 20
991.8653202381382
 30
0.0
  0
VERTEX
  5
25A
  8
FAB_2$FISHBOWL$WALLS_SIDE
 10
-6294.896702291971
 20
991.8577606957454
 30
0.0
  0
VERTEX
  5
25B
  8
FAB_2$FISHBOWL$WALLS_SIDE
 10
-6294.93049481453
 20
991.8491930369364
 30
0.0
  0
VERTEX
  5
25C
  8
FAB_2$FISHBOWL$WALLS_SIDE
 10
-6294.963585327145
 20
991.8396424367729
 30
0.0
  0
VERTEX
  5
25D
  8
FAB_2$FISHBOWL$WALLS_SIDE
 10
-6294.995992506554
 20
991.8291340703165
 30
0.0
  0
VERTEX
  5
25E
  8
FAB_2$FISHBOWL$WALLS_SIDE
 10
-6295.027735029493
 20
991.8176931126291
 30
0.0
  0
VERTEX
  5
25F
  8
FAB_2$FISHBOWL$WALLS_SIDE
 10
-6295.0588315727
 20
991.8053447387717
 30
0.0
  0
VERTEX
  5
260
  8
FAB_2$FISHBOWL$WALLS_SIDE
 10
-6295.08930081291
 20
991.7921141238066
 30
0.0
  0
VERTEX
  5
261
  8
FAB_2$FISHBOWL$WALLS_SIDE
 10
-6295.119161426859
 20
991.7780264427952
 30
0.0
  0
VERTEX
  5
262
  8
FAB_2$FISHBOWL$WALLS_SIDE
 10
-6295.148432091287
 20
991.7631068707991
 30
0.0
  0
VERTEX
  5
263
  8
FAB_2$FISHBOWL$WALLS_SIDE
 10
-6295.177131482928
 20
991.74738058288
 30
0.0
  0
VERTEX
  5
264
  8
FAB_2$FISHBOWL$WALLS_SIDE
 10
-6295.205278278518
 20
991.7308727540997
 30
0.0
  0
VERTEX
  5
265
  8
FAB_2$FISHBOWL$WALLS_SIDE
 10
-6295.232891154795
 20
991.7136085595193
 30
0.0
  0
VERTEX
  5
266
  8
FAB_2$FISHBOWL$WALLS_SIDE
 10
-6295.259988788495
 20
991.6956131742011
 30
0.0
  0
VERTEX
  5
267
  8
FAB_2$FISHBOWL$WALLS_SIDE
 10
-6295.286589856356
 20
991.6769117732064
 30
0.0
  0
VERTEX
  5
268
  8
FAB_2$FISHBOWL$WALLS_SIDE
 10
-6295.312713035111
 20
991.6575295315968
 30
0.0
  0
VERTEX
  5
269
  8
FAB_2$FISHBOWL$WALLS_SIDE
 10
-6295.338377001501
 20
991.637491624434
 30
0.0
  0
VERTEX
  5
26A
  8
FAB_2$FISHBOWL$WALLS_SIDE
 10
-6295.363600432259
 20
991.6168232267798
 30
0.0
  0
VERTEX
  5
26B
  8
FAB_2$FISHBOWL$WALLS_SIDE
 10
-6295.388402004124
 20
991.5955495136957
 30
0.0
  0
VERTEX
  5
26C
  8
FAB_2$FISHBOWL$WALLS_SIDE
 10
-6295.412800393831
 20
991.5736956602434
 30
0.0
  0
VERTEX
  5
26D
  8
FAB_2$FISHBOWL$WALLS_SIDE
 10
-6295.436814278118
 20
991.5512868414845
 30
0.0
  0
VERTEX
  5
26E
  8
FAB_2$FISHBOWL$WALLS_SIDE
 10
-6295.460462333721
 20
991.5283482324805
 30
0.0
  0
VERTEX
  5
26F
  8
FAB_2$FISHBOWL$WALLS_SIDE
 10
-6295.50673566582
 20
991.4809823439845
 30
0.0
  0
VERTEX
  5
270
  8
FAB_2$FISHBOWL$WALLS_SIDE
 10
-6295.551769804022
 20
991.4317993952482
 30
0.0
  0
VERTEX
  5
271
  8
FAB_2$FISHBOWL$WALLS_SIDE
 10
-6295.595714162219
 20
991.381000786765
 30
0.0
  0
VERTEX
  5
272
  8
FAB_2$FISHBOWL$WALLS_SIDE
 10
-6295.638718154304
 20
991.3287879190278
 30
0.0
  0
VERTEX
  5
273
  8
FAB_2$FISHBOWL$WALLS_SIDE
 10
-6295.680931194171
 20
991.2753621925301
 30
0.0
  0
VERTEX
  5
274
  8
FAB_2$FISHBOWL$WALLS_SIDE
 10
-6296.008090900351
 20
990.8284615243385
 30
0.0
  0
VERTEX
  5
275
  8
FAB_2$FISHBOWL$WALLS_SIDE
 10
-6296.092430277198
 20
990.718705804203
 30
0.0
  0
VERTEX
  5
276
  8
FAB_2$FISHBOWL$WALLS_SIDE
 10
-6296.135804159578
 20
990.6652310638842
 30
0.0
  0
VERTEX
  5
277
  8
FAB_2$FISHBOWL$WALLS_SIDE
 10
-6296.18018005645
 20
990.6129602707224
 30
0.0
  0
VERTEX
  5
278
  8
FAB_2$FISHBOWL$WALLS_SIDE
 10
-6296.22570738171
 20
990.5620948252108
 30
0.0
  0
VERTEX
  5
279
  8
FAB_2$FISHBOWL$WALLS_SIDE
 10
-6296.272535549249
 20
990.5128361278422
 30
0.0
  0
VERTEX
  5
27A
  8
FAB_2$FISHBOWL$WALLS_SIDE
 10
-6296.320780995393
 20
990.4653442781143
 30
0.0
  0
VERTEX
  5
27B
  8
FAB_2$FISHBOWL$WALLS_SIDE
 10
-6296.370428246195
 20
990.419614171542
 30
0.0
  0
VERTEX
  5
27C
  8
FAB_2$FISHBOWL$WALLS_SIDE
 10
-6296.421428850141
 20
990.3755994026442
 30
0.0
  0
VERTEX
  5
27D
  8
FAB_2$FISHBOWL$WALLS_SIDE
 10
-6296.473734355718
 20
990.3332535659403
 30
0.0
  0
VERTEX
  5
27E
  8
FAB_2$FISHBOWL$WALLS_SIDE
 10
-6296.527296311411
 20
990.2925302559493
 30
0.0
  0
VERTEX
  5
27F
  8
FAB_2$FISHBOWL$WALLS_SIDE
 10
-6296.582066265706
 20
990.2533830671904
 30
0.0
  0
VERTEX
  5
280
  8
FAB_2$FISHBOWL$WALLS_SIDE
 10
-6296.63799576709
 20
990.2157655941828
 30
0.0
  0
VERTEX
  5
281
  8
FAB_2$FISHBOWL$WALLS_SIDE
 10
-6296.695036364046
 20
990.1796314314456
 30
0.0
  0
VERTEX
  5
282
  8
FAB_2$FISHBOWL$WALLS_SIDE
 10
-6296.753139605064
 20
990.1449341734981
 30
0.0
  0
VERTEX
  5
283
  8
FAB_2$FISHBOWL$WALLS_SIDE
 10
-6296.812257038627
 20
990.1116274148593
 30
0.0
  0
VERTEX
  5
284
  8
FAB_2$FISHBOWL$WALLS_SIDE
 10
-6296.872340213222
 20
990.0796647500484
 30
0.0
  0
VERTEX
  5
285
  8
FAB_2$FISHBOWL$WALLS_SIDE
 10
-6296.933340677336
 20
990.0489997735846
 30
0.0
  0
VERTEX
  5
286
  8
FAB_2$FISHBOWL$WALLS_SIDE
 10
-6296.995209979454
 20
990.019586079987
 30
0.0
  0
VERTEX
  5
287
  8
FAB_2$FISHBOWL$WALLS_SIDE
 10
-6297.057899668062
 20
989.9913772637748
 30
0.0
  0
VERTEX
  5
288
  8
FAB_2$FISHBOWL$WALLS_SIDE
 10
-6297.121361291645
 20
989.9643269194672
 30
0.0
  0
VERTEX
  5
289
  8
FAB_2$FISHBOWL$WALLS_SIDE
 10
-6297.185546398691
 20
989.9383886415833
 30
0.0
  0
VERTEX
  5
28A
  8
FAB_2$FISHBOWL$WALLS_SIDE
 10
-6297.315893257112
 20
989.8896626631633
 30
0.0
  0
VERTEX
  5
28B
  8
FAB_2$FISHBOWL$WALLS_SIDE
 10
-6297.448552631215
 20
989.8448280846683
 30
0.0
  0
VERTEX
  5
28C
  8
FAB_2$FISHBOWL$WALLS_SIDE
 10
-6297.583136908885
 20
989.8035136622512
 30
0.0
  0
VERTEX
  5
28D
  8
FAB_2$FISHBOWL$WALLS_SIDE
 10
-6297.71925847801
 20
989.7653481520656
 30
0.0
  0
VERTEX
  5
28E
  8
FAB_2$FISHBOWL$WALLS_SIDE
 10
-6297.856529726479
 20
989.7299603102646
 30
0.0
  0
VERTEX
  5
28F
  8
FAB_2$FISHBOWL$WALLS_SIDE
 10
-6297.994563042181
 20
989.6969788930016
 30
0.0
  0
VERTEX
  5
290
  8
FAB_2$FISHBOWL$WALLS_SIDE
 10
-6298.271365426829
 20
989.6367503567026
 30
0.0
  0
VERTEX
  5
291
  8
FAB_2$FISHBOWL$WALLS_SIDE
 10
-6298.547114948693
 20
989.5822697820113
 30
0.0
  0
VERTEX
  5
292
  8
FAB_2$FISHBOWL$WALLS_SIDE
 10
-6298.821461779052
 20
989.5334531662372
 30
0.0
  0
VERTEX
  5
293
  8
FAB_2$FISHBOWL$WALLS_SIDE
 10
-6299.09460630282
 20
989.4907936963061
 30
0.0
  0
VERTEX
  5
294
  8
FAB_2$FISHBOWL$WALLS_SIDE
 10
-6299.366748904911
 20
989.454784559144
 30
0.0
  0
VERTEX
  5
295
  8
FAB_2$FISHBOWL$WALLS_SIDE
 10
-6299.638089970239
 20
989.4259189416766
 30
0.0
  0
VERTEX
  5
296
  8
FAB_2$FISHBOWL$WALLS_SIDE
 10
-6299.908829883718
 20
989.40469003083
 30
0.0
  0
VERTEX
  5
297
  8
FAB_2$FISHBOWL$WALLS_SIDE
 10
-6300.179169030262
 20
989.39159101353
 30
0.0
  0
VERTEX
  5
298
  8
FAB_2$FISHBOWL$WALLS_SIDE
 10
-6300.449307794785
 20
989.3871150767027
 30
0.0
  0
VERTEX
  5
299
  8
FAB_2$FISHBOWL$WALLS_SIDE
 10
-6300.719446562074
 20
989.3915910115502
 30
0.0
  0
VERTEX
  5
29A
  8
FAB_2$FISHBOWL$WALLS_SIDE
 10
-6300.989785716412
 20
989.4046900263811
 30
0.0
  0
VERTEX
  5
29B
  8
FAB_2$FISHBOWL$WALLS_SIDE
 10
-6301.260525641957
 20
989.4259189337804
 30
0.0
  0
VERTEX
  5
29C
  8
FAB_2$FISHBOWL$WALLS_SIDE
 10
-6301.531866722862
 20
989.4547845463328
 30
0.0
  0
VERTEX
  5
29D
  8
FAB_2$FISHBOWL$WALLS_SIDE
 10
-6301.804009343286
 20
989.4907936766233
 30
0.0
  0
VERTEX
  5
29E
  8
FAB_2$FISHBOWL$WALLS_SIDE
 10
-6302.077153887385
 20
989.5334531372366
 30
0.0
  0
VERTEX
  5
29F
  8
FAB_2$FISHBOWL$WALLS_SIDE
 10
-6302.351500739316
 20
989.582269740758
 30
0.0
  0
VERTEX
  5
2A0
  8
FAB_2$FISHBOWL$WALLS_SIDE
 10
-6302.627250283234
 20
989.636750299772
 30
0.0
  0
VERTEX
  5
2A1
  8
FAB_2$FISHBOWL$WALLS_SIDE
 10
-6302.904052689561
 20
989.6969788168985
 30
0.0
  0
VERTEX
  5
2A2
  8
FAB_2$FISHBOWL$WALLS_SIDE
 10
-6303.042086015576
 20
989.7299602237391
 30
0.0
  0
VERTEX
  5
2A3
  8
FAB_2$FISHBOWL$WALLS_SIDE
 10
-6303.179357273782
 20
989.765348054897
 30
0.0
  0
VERTEX
  5
2A4
  8
FAB_2$FISHBOWL$WALLS_SIDE
 10
-6303.315478851898
 20
989.8035135544714
 30
0.0
  0
VERTEX
  5
2A5
  8
FAB_2$FISHBOWL$WALLS_SIDE
 10
-6303.450063137643
 20
989.8448279665615
 30
0.0
  0
VERTEX
  5
2A6
  8
FAB_2$FISHBOWL$WALLS_SIDE
 10
-6303.582722518737
 20
989.8896625352668
 30
0.0
  0
VERTEX
  5
2A7
  8
FAB_2$FISHBOWL$WALLS_SIDE
 10
-6303.713069382897
 20
989.9383885046864
 30
0.0
  0
VERTEX
  5
2A8
  8
FAB_2$FISHBOWL$WALLS_SIDE
 10
-6303.777254492288
 20
989.964326778445
 30
0.0
  0
VERTEX
  5
2A9
  8
FAB_2$FISHBOWL$WALLS_SIDE
 10
-6303.840716117841
 20
989.9913771189196
 30
0.0
  0
VERTEX
  5
2AA
  8
FAB_2$FISHBOWL$WALLS_SIDE
 10
-6303.903405808021
 20
990.0195859316224
 30
0.0
  0
VERTEX
  5
2AB
  8
FAB_2$FISHBOWL$WALLS_SIDE
 10
-6303.96527511129
 20
990.0489996220657
 30
0.0
  0
VERTEX
  5
2AC
  8
FAB_2$FISHBOWL$WALLS_SIDE
 10
-6304.026275576116
 20
990.0796645957621
 30
0.0
  0
VERTEX
  5
2AD
  8
FAB_2$FISHBOWL$WALLS_SIDE
 10
-6304.086358750961
 20
990.111627258224
 30
0.0
  0
VERTEX
  5
2AE
  8
FAB_2$FISHBOWL$WALLS_SIDE
 10
-6304.145476184292
 20
990.1449340149636
 30
0.0
  0
VERTEX
  5
2AF
  8
FAB_2$FISHBOWL$WALLS_SIDE
 10
-6304.203579424572
 20
990.1796312714937
 30
0.0
  0
VERTEX
  5
2B0
  8
FAB_2$FISHBOWL$WALLS_SIDE
 10
-6304.260620020267
 20
990.2157654333264
 30
0.0
  0
VERTEX
  5
2B1
  8
FAB_2$FISHBOWL$WALLS_SIDE
 10
-6304.316549519843
 20
990.2533829059741
 30
0.0
  0
VERTEX
  5
2B2
  8
FAB_2$FISHBOWL$WALLS_SIDE
 10
-6304.371319471763
 20
990.2925300949494
 30
0.0
  0
VERTEX
  5
2B3
  8
FAB_2$FISHBOWL$WALLS_SIDE
 10
-6304.424881424491
 20
990.3332534057646
 30
0.0
  0
VERTEX
  5
2B4
  8
FAB_2$FISHBOWL$WALLS_SIDE
 10
-6304.477186926495
 20
990.3755992439321
 30
0.0
  0
VERTEX
  5
2B5
  8
FAB_2$FISHBOWL$WALLS_SIDE
 10
-6304.528187526237
 20
990.4196140149643
 30
0.0
  0
VERTEX
  5
2B6
  8
FAB_2$FISHBOWL$WALLS_SIDE
 10
-6304.577834772183
 20
990.4653441243737
 30
0.0
  0
VERTEX
  5
2B7
  8
FAB_2$FISHBOWL$WALLS_SIDE
 10
-6304.626080212798
 20
990.5128359776727
 30
0.0
  0
VERTEX
  5
2B8
  8
FAB_2$FISHBOWL$WALLS_SIDE
 10
-6304.672908374128
 20
990.5620946793615
 30
0.0
  0
VERTEX
  5
2B9
  8
FAB_2$FISHBOWL$WALLS_SIDE
 10
-6304.718435692554
 20
990.6129601298917
 30
0.0
  0
VERTEX
  5
2BA
  8
FAB_2$FISHBOWL$WALLS_SIDE
 10
-6304.762811582033
 20
990.6652309287026
 30
0.0
  0
VERTEX
  5
2BB
  8
FAB_2$FISHBOWL$WALLS_SIDE
 10
-6304.806185456529
 20
990.7187056752339
 30
0.0
  0
VERTEX
  5
2BC
  8
FAB_2$FISHBOWL$WALLS_SIDE
 10
-6304.890524816408
 20
990.8284614092152
 30
0.0
  0
VERTEX
  5
2BD
  8
FAB_2$FISHBOWL$WALLS_SIDE
 10
-6305.21768444868
 20
991.2753621418411
 30
0.0
  0
VERTEX
  5
2BE
  8
FAB_2$FISHBOWL$WALLS_SIDE
 10
-6305.259897479749
 20
991.3287878762992
 30
0.0
  0
VERTEX
  5
2BF
  8
FAB_2$FISHBOWL$WALLS_SIDE
 10
-6305.302901463363
 20
991.3810007517508
 30
0.0
  0
VERTEX
  5
2C0
  8
FAB_2$FISHBOWL$WALLS_SIDE
 10
-6305.34684581348
 20
991.4317993676356
 30
0.0
  0
VERTEX
  5
2C1
  8
FAB_2$FISHBOWL$WALLS_SIDE
 10
-6305.391879944062
 20
991.4809823233929
 30
0.0
  0
VERTEX
  5
2C2
  8
FAB_2$FISHBOWL$WALLS_SIDE
 10
-6305.43815326907
 20
991.5283482184623
 30
0.0
  0
VERTEX
  5
2C3
  8
FAB_2$FISHBOWL$WALLS_SIDE
 10
-6305.461801321346
 20
991.5512868305636
 30
0.0
  0
VERTEX
  5
2C4
  8
FAB_2$FISHBOWL$WALLS_SIDE
 10
-6305.485815202464
 20
991.5736956522829
 30
0.0
  0
VERTEX
  5
2C5
  8
FAB_2$FISHBOWL$WALLS_SIDE
 10
-6305.510213589168
 20
991.5955495085499
 30
0.0
  0
VERTEX
  5
2C6
  8
FAB_2$FISHBOWL$WALLS_SIDE
 10
-6305.535015158204
 20
991.6168232242945
 30
0.0
  0
VERTEX
  5
2C7
  8
FAB_2$FISHBOWL$WALLS_SIDE
 10
-6305.560238586317
 20
991.6374916244467
 30
0.0
  0
VERTEX
  5
2C8
  8
FAB_2$FISHBOWL$WALLS_SIDE
 10
-6305.585902550252
 20
991.6575295339366
 30
0.0
  0
VERTEX
  5
2C9
  8
FAB_2$FISHBOWL$WALLS_SIDE
 10
-6305.612025726754
 20
991.6769117776937
 30
0.0
  0
VERTEX
  5
2CA
  8
FAB_2$FISHBOWL$WALLS_SIDE
 10
-6305.638626792568
 20
991.6956131806483
 30
0.0
  0
VERTEX
  5
2CB
  8
FAB_2$FISHBOWL$WALLS_SIDE
 10
-6305.66572442444
 20
991.7136085677303
 30
0.0
  0
VERTEX
  5
2CC
  8
FAB_2$FISHBOWL$WALLS_SIDE
 10
-6305.693337299113
 20
991.7308727638692
 30
0.0
  0
VERTEX
  5
2CD
  8
FAB_2$FISHBOWL$WALLS_SIDE
 10
-6305.721484093334
 20
991.7473805939956
 30
0.0
  0
VERTEX
  5
2CE
  8
FAB_2$FISHBOWL$WALLS_SIDE
 10
-6305.750183483848
 20
991.7631068830387
 30
0.0
  0
VERTEX
  5
2CF
  8
FAB_2$FISHBOWL$WALLS_SIDE
 10
-6305.779454147399
 20
991.7780264559292
 30
0.0
  0
VERTEX
  5
2D0
  8
FAB_2$FISHBOWL$WALLS_SIDE
 10
-6305.809314760732
 20
991.7921141375966
 30
0.0
  0
VERTEX
  5
2D1
  8
FAB_2$FISHBOWL$WALLS_SIDE
 10
-6305.839784000593
 20
991.805344752971
 30
0.0
  0
VERTEX
  5
2D2
  8
FAB_2$FISHBOWL$WALLS_SIDE
 10
-6305.870880543727
 20
991.817693126982
 30
0.0
  0
VERTEX
  5
2D3
  8
FAB_2$FISHBOWL$WALLS_SIDE
 10
-6305.902623066881
 20
991.8291340845599
 30
0.0
  0
VERTEX
  5
2D4
  8
FAB_2$FISHBOWL$WALLS_SIDE
 10
-6305.935030246796
 20
991.8396424506343
 30
0.0
  0
VERTEX
  5
2D5
  8
FAB_2$FISHBOWL$WALLS_SIDE
 10
-6305.968120760218
 20
991.8491930501355
 30
0.0
  0
VERTEX
  5
2D6
  8
FAB_2$FISHBOWL$WALLS_SIDE
 10
-6306.001913283893
 20
991.8577607079931
 30
0.0
  0
VERTEX
  5
2D7
  8
FAB_2$FISHBOWL$WALLS_SIDE
 10
-6306.036426494567
 20
991.8653202491373
 30
0.0
  0
VERTEX
  5
2D8
  8
FAB_2$FISHBOWL$WALLS_SIDE
 10
-6306.071679068986
 20
991.8718464984978
 30
0.0
  0
VERTEX
  5
2D9
  8
FAB_2$FISHBOWL$WALLS_SIDE
 10
-6306.107689683891
 20
991.8773142810047
 30
0.0
  0
VERTEX
  5
2DA
  8
FAB_2$FISHBOWL$WALLS_SIDE
 10
-6306.144477016032
 20
991.8816984215879
 30
0.0
  0
VERTEX
  5
2DB
  8
FAB_2$FISHBOWL$WALLS_SIDE
 10
-6306.18205974215
 20
991.8849737451771
 30
0.0
  0
SEQEND
  5
2DC
  8
FAB_2$FISHBOWL$WALLS_SIDE
  0
POLYLINE
  5
2DE
  8
FAB_2$FISHBOWL$WALLS_TOP_B
 66
     1
 10
0.0
 20
0.0
 30
0.0
 70
     1
  0
VERTEX
  5
2DF
  8
FAB_2$FISHBOWL$WALLS_TOP_B
 10
-6438.268918952267
 20
547.6724843219403
 30
0.0
  0
VERTEX
  5
2E0
  8
FAB_2$FISHBOWL$WALLS_TOP_B
 10
-6468.138918952267
 20
547.6724843219403
 30
0.0
  0
VERTEX
  5
2E1
  8
FAB_2$FISHBOWL$WALLS_TOP_B
 10
-6468.138918952267
 20
545.2124843219402
 30
0.0
  0
VERTEX
  5
2E2
  8
FAB_2$FISHBOWL$WALLS_TOP_B
 10
-6408.398918952267
 20
545.2124843219402
 30
0.0
  0
VERTEX
  5
2E3
  8
FAB_2$FISHBOWL$WALLS_TOP_B
 10
-6408.398918952267
 20
547.6724843219403
 30
0.0
  0
SEQEND
  5
2E4
  8
FAB_2$FISHBOWL$WALLS_TOP_B
  0
POLYLINE
  5
2E5
  8
FAB_2$FISHBOWL$WALLS_TOP_B
 66
     1
 10
0.0
 20
0.0
 30
0.0
 70
     1
  0
VERTEX
  5
2E6
  8
FAB_2$FISHBOWL$WALLS_TOP_B
 10
-6599.948506425118
 20
547.6503643990302
 30
0.0
  0
VERTEX
  5
2E7
  8
FAB_2$FISHBOWL$WALLS_TOP_B
 10
-6629.818506425117
 20
547.6503643990302
 30
0.0
  0
VERTEX
  5
2E8
  8
FAB_2$FISHBOWL$WALLS_TOP_B
 10
-6629.818506425117
 20
545.1903643990302
 30
0.0
  0
VERTEX
  5
2E9
  8
FAB_2$FISHBOWL$WALLS_TOP_B
 10
-6570.078506425118
 20
545.1903643990302
 30
0.0
  0
VERTEX
  5
2EA
  8
FAB_2$FISHBOWL$WALLS_TOP_B
 10
-6570.078506425118
 20
547.6503643990302
 30
0.0
  0
SEQEND
  5
2EB
  8
FAB_2$FISHBOWL$WALLS_TOP_B
  0
POLYLINE
  5
2ED
  8
FAB_2$FISHBOWL$BASE
 66
     1
 10
0.0
 20
0.0
 30
0.0
 70
     1
  0
VERTEX
  5
2EE
  8
FAB_2$FISHBOWL$BASE
 10
-6602.527342093945
 20
984.7571150767077
 30
0.0
  0
VERTEX
  5
2EF
  8
FAB_2$FISHBOWL$BASE
 10
-6632.397342093945
 20
984.7571150767077
 30
0.0
  0
VERTEX
  5
2F0
  8
FAB_2$FISHBOWL$BASE
 10
-6632.397342093945
 20
982.2971150767077
 30
0.0
  0
VERTEX
  5
2F1
  8
FAB_2$FISHBOWL$BASE
 10
-6572.657342093945
 20
982.2971150767077
 30
0.0
  0
VERTEX
  5
2F2
  8
FAB_2$FISHBOWL$BASE
 10
-6572.657342093945
 20
984.7571150767077
 30
0.0
  0
SEQEND
  5
2F3
  8
FAB_2$FISHBOWL$BASE
  0
POLYLINE
  5
2F4
  8
FAB_2$FISHBOWL$BASE
 66
     1
 10
0.0
 20
0.0
 30
0.0
 70
     1
  0
VERTEX
  5
2F5
  8
FAB_2$FISHBOWL$BASE
 10
-6441.127342093509
 20
984.757115076707
 30
0.0
  0
VERTEX
  5
2F6
  8
FAB_2$FISHBOWL$BASE
 10
-6470.997342093508
 20
984.757115076707
 30
0.0
  0
VERTEX
  5
2F7
  8
FAB_2$FISHBOWL$BASE
 10
-6470.997342093508
 20
982.297115076707
 30
0.0
  0
VERTEX
  5
2F8
  8
FAB_2$FISHBOWL$BASE
 10
-6411.257342093509
 20
982.297115076707
 30
0.0
  0
VERTEX
  5
2F9
  8
FAB_2$FISHBOWL$BASE
 10
-6411.257342093509
 20
984.757115076707
 30
0.0
  0
SEQEND
  5
2FA
  8
FAB_2$FISHBOWL$BASE
  0
POLYLINE
  5
2FB
  8
FAB_2$FISHBOWL$WALLS_TOP_B
 66
     1
 10
0.0
 20
0.0
 30
0.0
 70
     1
  0
VERTEX
  5
2FC
  8
FAB_2$FISHBOWL$WALLS_TOP_B
 10
-6362.468918952255
 20
595.902603101369
 30
0.0
  0
VERTEX
  5
2FD
  8
FAB_2$FISHBOWL$WALLS_TOP_B
 10
-6362.468918952255
 20
598.1826031013687
 30
0.0
  0
VERTEX
  5
2FE
  8
FAB_2$FISHBOWL$WALLS_TOP_B
 10
-6362.468918952255
 20
600.4626031013693
 30
0.0
 42
0.4142135623733262
  0
VERTEX
  5
2FF
  8
FAB_2$FISHBOWL$WALLS_TOP_B
 10
-6365.188918952255
 20
603.1826031013688
 30
0.0
  0
VERTEX
  5
300
  8
FAB_2$FISHBOWL$WALLS_TOP_B
 10
-6369.468918952255
 20
603.1826031013688
 30
0.0
  0
VERTEX
  5
301
  8
FAB_2$FISHBOWL$WALLS_TOP_B
 10
-6369.468918952254
 20
618.1826031013621
 30
0.0
  0
VERTEX
  5
302
  8
FAB_2$FISHBOWL$WALLS_TOP_B
 10
-6668.468918952283
 20
618.1826031013687
 30
0.0
  0
VERTEX
  5
303
  8
FAB_2$FISHBOWL$WALLS_TOP_B
 10
-6668.468918952284
 20
603.1826031013687
 30
0.0
  0
VERTEX
  5
304
  8
FAB_2$FISHBOWL$WALLS_TOP_B
 10
-6672.748918952285
 20
603.1826031013687
 30
0.0
 42
0.4142135623734436
  0
VERTEX
  5
305
  8
FAB_2$FISHBOWL$WALLS_TOP_B
 10
-6675.468918952285
 20
600.462603101369
 30
0.0
  0
VERTEX
  5
306
  8
FAB_2$FISHBOWL$WALLS_TOP_B
 10
-6675.468918952284
 20
598.1826031013687
 30
0.0
  0
VERTEX
  5
307
  8
FAB_2$FISHBOWL$WALLS_TOP_B
 10
-6675.468918952284
 20
595.9026031013686
 30
0.0
 42
0.4142135623732301
  0
VERTEX
  5
308
  8
FAB_2$FISHBOWL$WALLS_TOP_B
 10
-6672.748918952286
 20
593.1826031013688
 30
0.0
  0
VERTEX
  5
309
  8
FAB_2$FISHBOWL$WALLS_TOP_B
 10
-6668.468918952284
 20
593.1826031013687
 30
0.0
  0
VERTEX
  5
30A
  8
FAB_2$FISHBOWL$WALLS_TOP_B
 10
-6668.468918952284
 20
588.1826031013687
 30
0.0
  0
VERTEX
  5
30B
  8
FAB_2$FISHBOWL$WALLS_TOP_B
 10
-6629.668918952487
 20
588.1826031013672
 30
0.0
  0
VERTEX
  5
30C
  8
FAB_2$FISHBOWL$WALLS_TOP_B
 10
-6629.668918952486
 20
586.262603101367
 30
0.0
 42
0.4142135623733285
  0
VERTEX
  5
30D
  8
FAB_2$FISHBOWL$WALLS_TOP_B
 10
-6628.868918952486
 20
585.4626031013677
 30
0.0
  0
VERTEX
  5
30E
  8
FAB_2$FISHBOWL$WALLS_TOP_B
 10
-6599.668918952487
 20
585.4626031013672
 30
0.0
  0
VERTEX
  5
30F
  8
FAB_2$FISHBOWL$WALLS_TOP_B
 10
-6570.468918952487
 20
585.4626031013672
 30
0.0
 42
0.4142135623718716
  0
VERTEX
  5
310
  8
FAB_2$FISHBOWL$WALLS_TOP_B
 10
-6569.668918952487
 20
586.2626031013674
 30
0.0
  0
VERTEX
  5
311
  8
FAB_2$FISHBOWL$WALLS_TOP_B
 10
-6569.668918952487
 20
588.1826031013666
 30
0.0
  0
VERTEX
  5
312
  8
FAB_2$FISHBOWL$WALLS_TOP_B
 10
-6468.268918952051
 20
588.1826031013666
 30
0.0
  0
VERTEX
  5
313
  8
FAB_2$FISHBOWL$WALLS_TOP_B
 10
-6468.26891895205
 20
586.2626031013673
 30
0.0
 42
0.414213562372815
  0
VERTEX
  5
314
  8
FAB_2$FISHBOWL$WALLS_TOP_B
 10
-6467.46891895205
 20
585.4626031013672
 30
0.0
  0
VERTEX
  5
315
  8
FAB_2$FISHBOWL$WALLS_TOP_B
 10
-6438.268918952051
 20
585.4626031013672
 30
0.0
  0
VERTEX
  5
316
  8
FAB_2$FISHBOWL$WALLS_TOP_B
 10
-6409.068918952051
 20
585.4626031013663
 30
0.0
 42
0.4142135623735659
  0
VERTEX
  5
317
  8
FAB_2$FISHBOWL$WALLS_TOP_B
 10
-6408.268918952051
 20
586.2626031013672
 30
0.0
  0
VERTEX
  5
318
  8
FAB_2$FISHBOWL$WALLS_TOP_B
 10
-6408.268918952051
 20
588.1826031013629
 30
0.0
  0
VERTEX
  5
319
  8
FAB_2$FISHBOWL$WALLS_TOP_B
 10
-6369.468918952255
 20
588.1826031013621
 30
0.0
  0
VERTEX
  5
31A
  8
FAB_2$FISHBOWL$WALLS_TOP_B
 10
-6369.468918952255
 20
593.1826031013687
 30
0.0
  0
VERTEX
  5
31B
  8
FAB_2$FISHBOWL$WALLS_TOP_B
 10
-6365.188918952255
 20
593.1826031013687
 30
0.0
 42
0.4142135623727006
  0
SEQEND
  5
31C
  8
FAB_2$FISHBOWL$WALLS_TOP_B
  0
POLYLINE
  5
31D
  8
FAB_2$FISHBOWL$WALLS_TOP_B
 66
     1
 10
0.0
 20
0.0
 30
0.0
 70
     1
  0
VERTEX
  5
31E
  8
FAB_2$FISHBOWL$WALLS_TOP_B
 10
-6675.46891895229
 20
555.5003643990417
 30
0.0
  0
VERTEX
  5
31F
  8
FAB_2$FISHBOWL$WALLS_TOP_B
 10
-6675.46891895229
 20
557.7803643990417
 30
0.0
  0
VERTEX
  5
320
  8
FAB_2$FISHBOWL$WALLS_TOP_B
 10
-6675.468918952291
 20
560.0603643990418
 30
0.0
 42
-0.4142135623730737
  0
VERTEX
  5
321
  8
FAB_2$FISHBOWL$WALLS_TOP_B
 10
-6672.748918952289
 20
562.7803643990424
 30
0.0
  0
VERTEX
  5
322
  8
FAB_2$FISHBOWL$WALLS_TOP_B
 10
-6668.46891895229
 20
562.7803643990418
 30
0.0
  0
VERTEX
  5
323
  8
FAB_2$FISHBOWL$WALLS_TOP_B
 10
-6668.468918952291
 20
577.7803643990351
 30
0.0
  0
VERTEX
  5
324
  8
FAB_2$FISHBOWL$WALLS_TOP_B
 10
-6369.468918952263
 20
577.7803643990351
 30
0.0
  0
VERTEX
  5
325
  8
FAB_2$FISHBOWL$WALLS_TOP_B
 10
-6369.468918952263
 20
562.7803643990418
 30
0.0
  0
VERTEX
  5
326
  8
FAB_2$FISHBOWL$WALLS_TOP_B
 10
-6365.188918952264
 20
562.780364399042
 30
0.0
 42
-0.4142135623733224
  0
VERTEX
  5
327
  8
FAB_2$FISHBOWL$WALLS_TOP_B
 10
-6362.468918952263
 20
560.0603643990418
 30
0.0
  0
VERTEX
  5
328
  8
FAB_2$FISHBOWL$WALLS_TOP_B
 10
-6362.468918952264
 20
557.7803643990417
 30
0.0
  0
VERTEX
  5
329
  8
FAB_2$FISHBOWL$WALLS_TOP_B
 10
-6362.468918952265
 20
555.5003643990416
 30
0.0
 42
-0.4142135623731022
  0
VERTEX
  5
32A
  8
FAB_2$FISHBOWL$WALLS_TOP_B
 10
-6365.188918952264
 20
552.7803643990419
 30
0.0
  0
VERTEX
  5
32B
  8
FAB_2$FISHBOWL$WALLS_TOP_B
 10
-6369.468918952264
 20
552.7803643990417
 30
0.0
  0
VERTEX
  5
32C
  8
FAB_2$FISHBOWL$WALLS_TOP_B
 10
-6369.468918952263
 20
537.780364399029
 30
0.0
  0
VERTEX
  5
32D
  8
FAB_2$FISHBOWL$WALLS_TOP_B
 10
-6668.468918952291
 20
537.7803643990285
 30
0.0
  0
VERTEX
  5
32E
  8
FAB_2$FISHBOWL$WALLS_TOP_B
 10
-6668.468918952291
 20
552.7803643990417
 30
0.0
  0
VERTEX
  5
32F
  8
FAB_2$FISHBOWL$WALLS_TOP_B
 10
-6672.748918952289
 20
552.7803643990418
 30
0.0
 42
-0.4142135623726487
  0
SEQEND
  5
330
  8
FAB_2$FISHBOWL$WALLS_TOP_B
  0
CIRCLE
  5
332
  8
FAB_2$FISHBOWL$FLOOR
 10
-6425.601300846586
 20
995.3871550838293
 30
0.0
 40
7.499999999999886
  0
POLYLINE
  5
333
  8
FAB_2$FISHBOWL$FLOOR
 66
     1
 10
0.0
 20
0.0
 30
0.0
 70
     1
  0
VERTEX
  5
334
  8
FAB_2$FISHBOWL$FLOOR
 10
-6528.54735166568
 20
1019.887105504721
 30
0.0
 42
-0.4142145930936486
  0
VERTEX
  5
335
  8
FAB_2$FISHBOWL$FLOOR
 10
-6525.827342093729
 20
1017.16710550474
 30
0.0
  0
VERTEX
  5
336
  8
FAB_2$FISHBOWL$FLOOR
 10
-6525.82734209373
 20
984.887115076708
 30
0.0
  0
VERTEX
  5
337
  8
FAB_2$FISHBOWL$FLOOR
 10
-6489.827342093728
 20
984.8871150767071
 30
0.0
  0
VERTEX
  5
338
  8
FAB_2$FISHBOWL$FLOOR
 10
-6489.827342093728
 20
1017.167102894273
 30
0.0
 42
-0.4142148741915824
  0
VERTEX
  5
339
  8
FAB_2$FISHBOWL$FLOOR
 10
-6487.107329911324
 20
1019.887102894245
 30
0.0
  0
VERTEX
  5
33A
  8
FAB_2$FISHBOWL$FLOOR
 10
-6387.161241486514
 20
1019.886655253175
 30
0.0
 42
-0.4109610990400678
  0
VERTEX
  5
33B
  8
FAB_2$FISHBOWL$FLOOR
 10
-6372.327342093731
 20
1004.887115076702
 30
0.0
  0
VERTEX
  5
33C
  8
FAB_2$FISHBOWL$FLOOR
 10
-6372.327342093732
 20
963.1636021016466
 30
0.0
  0
VERTEX
  5
33D
  8
FAB_2$FISHBOWL$FLOOR
 10
-6368.047342093732
 20
963.1636021016466
 30
0.0
 42
-0.4142135623730577
  0
VERTEX
  5
33E
  8
FAB_2$FISHBOWL$FLOOR
 10
-6365.327342093733
 20
960.4436021016479
 30
0.0
  0
VERTEX
  5
33F
  8
FAB_2$FISHBOWL$FLOOR
 10
-6365.327342093731
 20
905.8836021016479
 30
0.0
 42
-0.4142135623730456
  0
VERTEX
  5
340
  8
FAB_2$FISHBOWL$FLOOR
 10
-6368.047342093732
 20
903.1636021016477
 30
0.0
  0
VERTEX
  5
341
  8
FAB_2$FISHBOWL$FLOOR
 10
-6372.327342093733
 20
903.1636021016477
 30
0.0
  0
VERTEX
  5
342
  8
FAB_2$FISHBOWL$FLOOR
 10
-6372.327342093738
 20
747.1104687103907
 30
0.0
  0
VERTEX
  5
343
  8
FAB_2$FISHBOWL$FLOOR
 10
-6368.047342093734
 20
747.1104687103907
 30
0.0
 42
-0.4142135623730177
  0
VERTEX
  5
344
  8
FAB_2$FISHBOWL$FLOOR
 10
-6365.327342093735
 20
744.3904687103898
 30
0.0
  0
VERTEX
  5
345
  8
FAB_2$FISHBOWL$FLOOR
 10
-6365.327342093733
 20
689.8304687103904
 30
0.0
 42
-0.4142135623730456
  0
VERTEX
  5
346
  8
FAB_2$FISHBOWL$FLOOR
 10
-6368.047342093734
 20
687.1104687103903
 30
0.0
  0
VERTEX
  5
347
  8
FAB_2$FISHBOWL$FLOOR
 10
-6372.327342093734
 20
687.1104687103903
 30
0.0
  0
VERTEX
  5
348
  8
FAB_2$FISHBOWL$FLOOR
 10
-6372.327342093742
 20
630.3871150767015
 30
0.0
  0
VERTEX
  5
349
  8
FAB_2$FISHBOWL$FLOOR
 10
-6411.127342093726
 20
630.3871150767031
 30
0.0
  0
VERTEX
  5
34A
  8
FAB_2$FISHBOWL$FLOOR
 10
-6411.127342093725
 20
626.1071150767073
 30
0.0
 42
-0.4142135623732627
  0
VERTEX
  5
34B
  8
FAB_2$FISHBOWL$FLOOR
 10
-6413.847342093724
 20
623.3871150767072
 30
0.0
  0
VERTEX
  5
34C
  8
FAB_2$FISHBOWL$FLOOR
 10
-6468.407342093725
 20
623.3871150767059
 30
0.0
 42
-0.4142135623730463
  0
VERTEX
  5
34D
  8
FAB_2$FISHBOWL$FLOOR
 10
-6471.127342093725
 20
626.107115076707
 30
0.0
  0
VERTEX
  5
34E
  8
FAB_2$FISHBOWL$FLOOR
 10
-6471.127342093725
 20
630.3871150767072
 30
0.0
  0
VERTEX
  5
34F
  8
FAB_2$FISHBOWL$FLOOR
 10
-6572.527342093756
 20
630.3871150767068
 30
0.0
  0
VERTEX
  5
350
  8
FAB_2$FISHBOWL$FLOOR
 10
-6572.527342093756
 20
626.1071150767073
 30
0.0
 42
-0.4142135623732627
  0
VERTEX
  5
351
  8
FAB_2$FISHBOWL$FLOOR
 10
-6575.247342093755
 20
623.3871150767072
 30
0.0
  0
VERTEX
  5
352
  8
FAB_2$FISHBOWL$FLOOR
 10
-6629.807342093754
 20
623.3871150767068
 30
0.0
 42
-0.4142135623731611
  0
VERTEX
  5
353
  8
FAB_2$FISHBOWL$FLOOR
 10
-6632.527342093756
 20
626.107115076707
 30
0.0
  0
VERTEX
  5
354
  8
FAB_2$FISHBOWL$FLOOR
 10
-6632.527342093756
 20
630.3871150767072
 30
0.0
  0
VERTEX
  5
355
  8
FAB_2$FISHBOWL$FLOOR
 10
-6671.327342093742
 20
630.3871150767095
 30
0.0
  0
VERTEX
  5
356
  8
FAB_2$FISHBOWL$FLOOR
 10
-6671.327342093738
 20
687.1104687103932
 30
0.0
  0
VERTEX
  5
357
  8
FAB_2$FISHBOWL$FLOOR
 10
-6675.607342093748
 20
687.110468710394
 30
0.0
 42
-0.4142135623730977
  0
VERTEX
  5
358
  8
FAB_2$FISHBOWL$FLOOR
 10
-6678.327342093748
 20
689.8304687103933
 30
0.0
  0
VERTEX
  5
359
  8
FAB_2$FISHBOWL$FLOOR
 10
-6678.327342093748
 20
744.3904687103934
 30
0.0
 42
-0.4142135623730349
  0
VERTEX
  5
35A
  8
FAB_2$FISHBOWL$FLOOR
 10
-6675.607342093749
 20
747.1104687103935
 30
0.0
  0
VERTEX
  5
35B
  8
FAB_2$FISHBOWL$FLOOR
 10
-6671.327342093749
 20
747.1104687103934
 30
0.0
  0
VERTEX
  5
35C
  8
FAB_2$FISHBOWL$FLOOR
 10
-6671.327342093748
 20
903.1636021016475
 30
0.0
  0
VERTEX
  5
35D
  8
FAB_2$FISHBOWL$FLOOR
 10
-6675.607342093746
 20
903.1636021016491
 30
0.0
 42
-0.4142135623734088
  0
VERTEX
  5
35E
  8
FAB_2$FISHBOWL$FLOOR
 10
-6678.327342093747
 20
905.8836021016481
 30
0.0
  0
VERTEX
  5
35F
  8
FAB_2$FISHBOWL$FLOOR
 10
-6678.327342093747
 20
960.4436021016468
 30
0.0
 42
-0.4142135623729918
  0
VERTEX
  5
360
  8
FAB_2$FISHBOWL$FLOOR
 10
-6675.607342093746
 20
963.1636021016475
 30
0.0
  0
VERTEX
  5
361
  8
FAB_2$FISHBOWL$FLOOR
 10
-6671.327342093748
 20
963.1636021016475
 30
0.0
  0
VERTEX
  5
362
  8
FAB_2$FISHBOWL$FLOOR
 10
-6671.32734209373
 20
1004.887115076709
 30
0.0
 42
-0.4109611848798364
  0
VERTEX
  5
363
  8
FAB_2$FISHBOWL$FLOOR
 10
-6656.493443013588
 20
1019.886655249701
 30
0.0
  0
SEQEND
  5
364
  8
FAB_2$FISHBOWL$FLOOR
  0
ENDSEC
  0
EOF
