  0
SECTION
  2
HEADER
  9
$ACADVER
  1
AC1009
  9
$DWGCODEPAGE
  3
mac-roman
  9
$INSBASE
 10
0.0
 20
0.0
 30
0.0
  9
$EXTMIN
 10
-6376.35471193131
 20
449.8456609171593
 30
0.0
  9
$EXTMAX
 10
-6342.622364970155
 20
482.514884477062
 30
0.0
  9
$LIMMIN
 10
0.0
 20
0.0
  9
$LIMMAX
 10
12.0
 20
9.0
  9
$ORTHOMODE
 70
     0
  9
$REGENMODE
 70
     1
  9
$FILLMODE
 70
     1
  9
$QTEXTMODE
 70
     0
  9
$MIRRTEXT
 70
     1
  9
$DRAGMODE
 70
     2
  9
$LTSCALE
 40
1.0
  9
$OSMODE
 70
    37
  9
$ATTMODE
 70
     1
  9
$TEXTSIZE
 40
0.2
  9
$TRACEWID
 40
0.05
  9
$TEXTSTYLE
  7
STANDARD
  9
$CLAYER
  8
0
  9
$CELTYPE
  6
BYLAYER
  9
$CECOLOR
 62
   256
  9
$DIMSCALE
 40
1.0
  9
$DIMASZ
 40
0.18
  9
$DIMEXO
 40
0.0625
  9
$DIMDLI
 40
0.38
  9
$DIMRND
 40
0.0
  9
$DIMDLE
 40
0.0
  9
$DIMEXE
 40
0.18
  9
$DIMTP
 40
0.0
  9
$DIMTM
 40
0.0
  9
$DIMTXT
 40
0.18
  9
$DIMCEN
 40
0.09
  9
$DIMTSZ
 40
0.0
  9
$DIMTOL
 70
     0
  9
$DIMLIM
 70
     0
  9
$DIMTIH
 70
     1
  9
$DIMTOH
 70
     1
  9
$DIMSE1
 70
     0
  9
$DIMSE2
 70
     0
  9
$DIMTAD
 70
     0
  9
$DIMZIN
 70
     0
  9
$DIMBLK
  1

  9
$DIMASO
 70
     1
  9
$DIMSHO
 70
     1
  9
$DIMPOST
  1

  9
$DIMAPOST
  1

  9
$DIMALT
 70
     0
  9
$DIMALTD
 70
     2
  9
$DIMALTF
 40
25.4
  9
$DIMLFAC
 40
1.0
  9
$DIMTOFL
 70
     0
  9
$DIMTVP
 40
0.0
  9
$DIMTIX
 70
     0
  9
$DIMSOXD
 70
     0
  9
$DIMSAH
 70
     0
  9
$DIMBLK1
  1

  9
$DIMBLK2
  1

  9
$DIMSTYLE
  2
STANDARD
  9
$DIMCLRD
 70
     0
  9
$DIMCLRE
 70
     0
  9
$DIMCLRT
 70
     0
  9
$DIMTFAC
 40
1.0
  9
$DIMGAP
 40
0.09
  9
$LUNITS
 70
     2
  9
$LUPREC
 70
     3
  9
$SKETCHINC
 40
0.1
  9
$FILLETRAD
 40
0.5
  9
$AUNITS
 70
     0
  9
$AUPREC
 70
     0
  9
$MENU
  1
.
  9
$ELEVATION
 40
0.0
  9
$PELEVATION
 40
0.0
  9
$THICKNESS
 40
0.0
  9
$LIMCHECK
 70
     0
  9
$CHAMFERA
 40
0.0
  9
$CHAMFERB
 40
0.0
  9
$SKPOLY
 70
     0
  9
$TDCREATE
 40
2457893.5321875
  9
$TDUPDATE
 40
2457893.532199074
  9
$TDINDWG
 40
0.0000000116
  9
$TDUSRTIMER
 40
0.0000000116
  9
$USRTIMER
 70
     1
  9
$ANGBASE
 50
0.0
  9
$ANGDIR
 70
     0
  9
$PDMODE
 70
     0
  9
$PDSIZE
 40
0.0
  9
$PLINEWID
 40
0.0
  9
$COORDS
 70
     1
  9
$SPLFRAME
 70
     0
  9
$SPLINETYPE
 70
     6
  9
$SPLINESEGS
 70
     8
  9
$ATTDIA
 70
     0
  9
$ATTREQ
 70
     1
  9
$HANDLING
 70
     1
  9
$HANDSEED
  5
119
  9
$SURFTAB1
 70
     6
  9
$SURFTAB2
 70
     6
  9
$SURFTYPE
 70
     6
  9
$SURFU
 70
     6
  9
$SURFV
 70
     6
  9
$UCSNAME
  2

  9
$UCSORG
 10
0.0
 20
0.0
 30
0.0
  9
$UCSXDIR
 10
1.0
 20
0.0
 30
0.0
  9
$UCSYDIR
 10
0.0
 20
1.0
 30
0.0
  9
$PUCSNAME
  2

  9
$PUCSORG
 10
0.0
 20
0.0
 30
0.0
  9
$PUCSXDIR
 10
1.0
 20
0.0
 30
0.0
  9
$PUCSYDIR
 10
0.0
 20
1.0
 30
0.0
  9
$USERI1
 70
     0
  9
$USERI2
 70
     0
  9
$USERI3
 70
     0
  9
$USERI4
 70
     0
  9
$USERI5
 70
     0
  9
$USERR1
 40
0.0
  9
$USERR2
 40
0.0
  9
$USERR3
 40
0.0
  9
$USERR4
 40
0.0
  9
$USERR5
 40
0.0
  9
$WORLDVIEW
 70
     1
  9
$SHADEDGE
 70
     3
  9
$SHADEDIF
 70
    70
  9
$TILEMODE
 70
     1
  9
$MAXACTVP
 70
    64
  9
$PLIMCHECK
 70
     0
  9
$PEXTMIN
 10
1.000000000000000E+20
 20
1.000000000000000E+20
 30
1.000000000000000E+20
  9
$PEXTMAX
 10
-1.000000000000000E+20
 20
-1.000000000000000E+20
 30
-1.000000000000000E+20
  9
$PLIMMIN
 10
0.0
 20
0.0
  9
$PLIMMAX
 10
12.0
 20
9.0
  9
$UNITMODE
 70
     0
  9
$VISRETAIN
 70
     1
  9
$PLINEGEN
 70
     0
  9
$PSLTSCALE
 70
     1
  0
ENDSEC
  0
SECTION
  2
TABLES
  0
TABLE
  2
VPORT
 70
     1
  0
VPORT
  2
*ACTIVE
 70
     0
 10
0.0
 20
0.0
 11
1.0
 21
1.0
 12
-6359.488538450732
 22
466.1802726971106
 13
0.0
 23
0.0
 14
0.5
 24
0.5
 15
0.5
 25
0.5
 16
0.0
 26
0.0
 36
1.0
 17
0.0
 27
0.0
 37
0.0
 40
33.32260803110083
 41
1.032542046776917
 42
50.0
 43
0.0
 44
0.0
 50
0.0
 51
0.0
 71
     0
 72
   100
 73
     1
 74
     3
 75
     0
 76
     0
 77
     0
 78
     0
  0
ENDTAB
  0
TABLE
  2
LTYPE
 70
     1
  0
LTYPE
  2
CONTINUOUS
 70
     0
  3
Solid line
 72
    65
 73
     0
 40
0.0
  0
ENDTAB
  0
TABLE
  2
LAYER
 70
     2
  0
LAYER
  2
0
 70
     0
 62
     7
  6
CONTINUOUS
  0
LAYER
  2
FAB_2$FISHBOWL$TEST
 70
     0
 62
     7
  6
CONTINUOUS
  0
ENDTAB
  0
TABLE
  2
STYLE
 70
     1
  0
STYLE
  2
STANDARD
 70
     0
 40
0.0
 41
1.0
 50
0.0
 71
     0
 42
0.2
  3
txt
  4

  0
ENDTAB
  0
TABLE
  2
VIEW
 70
     0
  0
ENDTAB
  0
TABLE
  2
UCS
 70
     0
  0
ENDTAB
  0
TABLE
  2
APPID
 70
     1
  0
APPID
  2
ACAD
 70
     0
  0
ENDTAB
  0
TABLE
  2
DIMSTYLE
 70
     1
  0
DIMSTYLE
  2
STANDARD
 70
     0
  3

  4

  5

  6

  7

 40
1.0
 41
0.18
 42
0.0625
 43
0.38
 44
0.18
 45
0.0
 46
0.0
 47
0.0
 48
0.0
140
0.18
141
0.09
142
0.0
143
25.4
144
1.0
145
0.0
146
1.0
147
0.09
 71
     0
 72
     0
 73
     1
 74
     1
 75
     0
 76
     0
 77
     0
 78
     0
170
     0
171
     2
172
     0
173
     0
174
     0
175
     0
176
     0
177
     0
178
     0
  0
ENDTAB
  0
ENDSEC
  0
SECTION
  2
BLOCKS
  0
BLOCK
  8
0
  2
$MODEL_SPACE
 70
     0
 10
0.0
 20
0.0
 30
0.0
  3
$MODEL_SPACE
  1

  0
ENDBLK
  5
21
  8
0
  0
BLOCK
 67
     1
  8
0
  2
$PAPER_SPACE
 70
     0
 10
0.0
 20
0.0
 30
0.0
  3
$PAPER_SPACE
  1

  0
ENDBLK
  5
1D
 67
     1
  8
0
  0
ENDSEC
  0
SECTION
  2
ENTITIES
  0
POLYLINE
  5
6F
  8
FAB_2$FISHBOWL$TEST
 66
     1
 10
0.0
 20
0.0
 30
0.0
  0
VERTEX
  5
70
  8
FAB_2$FISHBOWL$TEST
 10
-6355.322807848518
 20
482.5148844770616
 30
0.0
  0
VERTEX
  5
71
  8
FAB_2$FISHBOWL$TEST
 10
-6355.322807848518
 20
473.5107544810671
 30
0.0
  0
VERTEX
  5
72
  8
FAB_2$FISHBOWL$TEST
 10
-6355.320666514131
 20
473.4723576873838
 30
0.0
  0
VERTEX
  5
73
  8
FAB_2$FISHBOWL$TEST
 10
-6355.317391188019
 20
473.4347749640629
 30
0.0
  0
VERTEX
  5
74
  8
FAB_2$FISHBOWL$TEST
 10
-6355.313007045244
 20
473.3979876343677
 30
0.0
  0
VERTEX
  5
75
  8
FAB_2$FISHBOWL$TEST
 10
-6355.307539260868
 20
473.3619770215616
 30
0.0
  0
VERTEX
  5
76
  8
FAB_2$FISHBOWL$TEST
 10
-6355.301013009954
 20
473.3267244489082
 30
0.0
  0
VERTEX
  5
77
  8
FAB_2$FISHBOWL$TEST
 10
-6355.293453467561
 20
473.2922112396707
 30
0.0
  0
VERTEX
  5
78
  8
FAB_2$FISHBOWL$TEST
 10
-6355.284885808751
 20
473.2584187171127
 30
0.0
  0
VERTEX
  5
79
  8
FAB_2$FISHBOWL$TEST
 10
-6355.275335208587
 20
473.2253282044974
 30
0.0
  0
VERTEX
  5
7A
  8
FAB_2$FISHBOWL$TEST
 10
-6355.264826842132
 20
473.1929210250883
 30
0.0
  0
VERTEX
  5
7B
  8
FAB_2$FISHBOWL$TEST
 10
-6355.253385884444
 20
473.1611785021488
 30
0.0
  0
VERTEX
  5
7C
  8
FAB_2$FISHBOWL$TEST
 10
-6355.241037510586
 20
473.1300819589424
 30
0.0
  0
VERTEX
  5
7D
  8
FAB_2$FISHBOWL$TEST
 10
-6355.227806895622
 20
473.0996127187323
 30
0.0
  0
VERTEX
  5
7E
  8
FAB_2$FISHBOWL$TEST
 10
-6355.213719214611
 20
473.069752104782
 30
0.0
  0
VERTEX
  5
7F
  8
FAB_2$FISHBOWL$TEST
 10
-6355.198799642614
 20
473.0404814403549
 30
0.0
  0
VERTEX
  5
80
  8
FAB_2$FISHBOWL$TEST
 10
-6355.183073354696
 20
473.0117820487146
 30
0.0
  0
VERTEX
  5
81
  8
FAB_2$FISHBOWL$TEST
 10
-6355.166565525915
 20
472.9836352531242
 30
0.0
  0
VERTEX
  5
82
  8
FAB_2$FISHBOWL$TEST
 10
-6355.149301331334
 20
472.9560223768474
 30
0.0
  0
VERTEX
  5
83
  8
FAB_2$FISHBOWL$TEST
 10
-6355.131305946015
 20
472.9289247431473
 30
0.0
  0
VERTEX
  5
84
  8
FAB_2$FISHBOWL$TEST
 10
-6355.112604545022
 20
472.9023236752875
 30
0.0
  0
VERTEX
  5
85
  8
FAB_2$FISHBOWL$TEST
 10
-6355.093222303412
 20
472.8762004965314
 30
0.0
  0
VERTEX
  5
86
  8
FAB_2$FISHBOWL$TEST
 10
-6355.073184396249
 20
472.8505365301423
 30
0.0
  0
VERTEX
  5
87
  8
FAB_2$FISHBOWL$TEST
 10
-6355.052515998595
 20
472.8253130993837
 30
0.0
  0
VERTEX
  5
88
  8
FAB_2$FISHBOWL$TEST
 10
-6355.031242285511
 20
472.800511527519
 30
0.0
  0
VERTEX
  5
89
  8
FAB_2$FISHBOWL$TEST
 10
-6355.009388432059
 20
472.7761131378116
 30
0.0
  0
VERTEX
  5
8A
  8
FAB_2$FISHBOWL$TEST
 10
-6354.986979613301
 20
472.7520992535249
 30
0.0
  0
VERTEX
  5
8B
  8
FAB_2$FISHBOWL$TEST
 10
-6354.964041004297
 20
472.7284511979223
 30
0.0
  0
VERTEX
  5
8C
  8
FAB_2$FISHBOWL$TEST
 10
-6354.9166751158
 20
472.682177865823
 30
0.0
  0
VERTEX
  5
8D
  8
FAB_2$FISHBOWL$TEST
 10
-6354.867492167064
 20
472.6371437276209
 30
0.0
  0
VERTEX
  5
8E
  8
FAB_2$FISHBOWL$TEST
 10
-6354.81669355858
 20
472.5931993694234
 30
0.0
  0
VERTEX
  5
8F
  8
FAB_2$FISHBOWL$TEST
 10
-6354.764480690844
 20
472.5501953773376
 30
0.0
  0
VERTEX
  5
90
  8
FAB_2$FISHBOWL$TEST
 10
-6354.711054964346
 20
472.5079823374709
 30
0.0
  0
VERTEX
  5
91
  8
FAB_2$FISHBOWL$TEST
 10
-6354.264154296154
 20
472.1808226312917
 30
0.0
  0
VERTEX
  5
92
  8
FAB_2$FISHBOWL$TEST
 10
-6354.154398576018
 20
472.0964832544445
 30
0.0
  0
VERTEX
  5
93
  8
FAB_2$FISHBOWL$TEST
 10
-6354.1009238357
 20
472.0531093720654
 30
0.0
  0
VERTEX
  5
94
  8
FAB_2$FISHBOWL$TEST
 10
-6354.048653042539
 20
472.0087334751923
 30
0.0
  0
VERTEX
  5
95
  8
FAB_2$FISHBOWL$TEST
 10
-6353.997787597026
 20
471.9632061499324
 30
0.0
  0
VERTEX
  5
96
  8
FAB_2$FISHBOWL$TEST
 10
-6353.948528899658
 20
471.9163779823932
 30
0.0
  0
VERTEX
  5
97
  8
FAB_2$FISHBOWL$TEST
 10
-6353.901037049931
 20
471.8681325362493
 30
0.0
  0
VERTEX
  5
98
  8
FAB_2$FISHBOWL$TEST
 10
-6353.855306943358
 20
471.8184852854473
 30
0.0
  0
VERTEX
  5
99
  8
FAB_2$FISHBOWL$TEST
 10
-6353.811292174461
 20
471.767484681501
 30
0.0
  0
VERTEX
  5
9A
  8
FAB_2$FISHBOWL$TEST
 10
-6353.768946337756
 20
471.7151791759246
 30
0.0
  0
VERTEX
  5
9B
  8
FAB_2$FISHBOWL$TEST
 10
-6353.728223027765
 20
471.6616172202319
 30
0.0
  0
VERTEX
  5
9C
  8
FAB_2$FISHBOWL$TEST
 10
-6353.689075839005
 20
471.6068472659371
 30
0.0
  0
VERTEX
  5
9D
  8
FAB_2$FISHBOWL$TEST
 10
-6353.651458365999
 20
471.5509177645541
 30
0.0
  0
VERTEX
  5
9E
  8
FAB_2$FISHBOWL$TEST
 10
-6353.615324203261
 20
471.4938771675969
 30
0.0
  0
VERTEX
  5
9F
  8
FAB_2$FISHBOWL$TEST
 10
-6353.580626945313
 20
471.4357739265796
 30
0.0
  0
VERTEX
  5
A0
  8
FAB_2$FISHBOWL$TEST
 10
-6353.547320186674
 20
471.3766564930162
 30
0.0
  0
VERTEX
  5
A1
  8
FAB_2$FISHBOWL$TEST
 10
-6353.515357521864
 20
471.3165733184206
 30
0.0
  0
VERTEX
  5
A2
  8
FAB_2$FISHBOWL$TEST
 10
-6353.4846925454
 20
471.255572854307
 30
0.0
  0
VERTEX
  5
A3
  8
FAB_2$FISHBOWL$TEST
 10
-6353.455278851802
 20
471.1937035521892
 30
0.0
  0
VERTEX
  5
A4
  8
FAB_2$FISHBOWL$TEST
 10
-6353.42707003559
 20
471.1310138635814
 30
0.0
  0
VERTEX
  5
A5
  8
FAB_2$FISHBOWL$TEST
 10
-6353.400019691282
 20
471.0675522399976
 30
0.0
  0
VERTEX
  5
A6
  8
FAB_2$FISHBOWL$TEST
 10
-6353.374081413398
 20
471.0033671329517
 30
0.0
  0
VERTEX
  5
A7
  8
FAB_2$FISHBOWL$TEST
 10
-6353.325355434979
 20
470.8730202745298
 30
0.0
  0
VERTEX
  5
A8
  8
FAB_2$FISHBOWL$TEST
 10
-6353.280520856484
 20
470.7403609004278
 30
0.0
  0
VERTEX
  5
A9
  8
FAB_2$FISHBOWL$TEST
 10
-6353.239206434067
 20
470.605776622758
 30
0.0
  0
VERTEX
  5
AA
  8
FAB_2$FISHBOWL$TEST
 10
-6353.201040923881
 20
470.4696550536324
 30
0.0
  0
VERTEX
  5
AB
  8
FAB_2$FISHBOWL$TEST
 10
-6353.16565308208
 20
470.3323838051631
 30
0.0
  0
VERTEX
  5
AC
  8
FAB_2$FISHBOWL$TEST
 10
-6353.132671664816
 20
470.1943504894622
 30
0.0
  0
VERTEX
  5
AD
  8
FAB_2$FISHBOWL$TEST
 10
-6353.072443128518
 20
469.9175481048142
 30
0.0
  0
VERTEX
  5
AE
  8
FAB_2$FISHBOWL$TEST
 10
-6353.017962553827
 20
469.64179858295
 30
0.0
  0
VERTEX
  5
AF
  8
FAB_2$FISHBOWL$TEST
 10
-6352.969145938053
 20
469.3674517525908
 30
0.0
  0
VERTEX
  5
B0
  8
FAB_2$FISHBOWL$TEST
 10
-6352.926486468122
 20
469.0943072288226
 30
0.0
  0
VERTEX
  5
B1
  8
FAB_2$FISHBOWL$TEST
 10
-6352.89047733096
 20
468.8221646267315
 30
0.0
  0
VERTEX
  5
B2
  8
FAB_2$FISHBOWL$TEST
 10
-6352.861611713492
 20
468.5508235614035
 30
0.0
  0
VERTEX
  5
B3
  8
FAB_2$FISHBOWL$TEST
 10
-6352.840382802646
 20
468.2800836479246
 30
0.0
  0
VERTEX
  5
B4
  8
FAB_2$FISHBOWL$TEST
 10
-6352.827283785346
 20
468.0097445013808
 30
0.0
  0
VERTEX
  5
B5
  8
FAB_2$FISHBOWL$TEST
 10
-6352.822807848519
 20
467.7396057368582
 30
0.0
  0
VERTEX
  5
B6
  8
FAB_2$FISHBOWL$TEST
 10
-6352.827283783367
 20
467.4694669695689
 30
0.0
  0
VERTEX
  5
B7
  8
FAB_2$FISHBOWL$TEST
 10
-6352.840382798197
 20
467.1991278152304
 30
0.0
  0
VERTEX
  5
B8
  8
FAB_2$FISHBOWL$TEST
 10
-6352.861611705595
 20
466.9283878896863
 30
0.0
  0
VERTEX
  5
B9
  8
FAB_2$FISHBOWL$TEST
 10
-6352.890477318148
 20
466.6570468087802
 30
0.0
  0
VERTEX
  5
BA
  8
FAB_2$FISHBOWL$TEST
 10
-6352.926486448439
 20
466.3849041883557
 30
0.0
  0
VERTEX
  5
BB
  8
FAB_2$FISHBOWL$TEST
 10
-6352.969145909052
 20
466.1117596442564
 30
0.0
  0
VERTEX
  5
BC
  8
FAB_2$FISHBOWL$TEST
 10
-6353.017962512573
 20
465.8374127923259
 30
0.0
  0
VERTEX
  5
BD
  8
FAB_2$FISHBOWL$TEST
 10
-6353.072443071587
 20
465.561663248408
 30
0.0
  0
VERTEX
  5
BE
  8
FAB_2$FISHBOWL$TEST
 10
-6353.132671588713
 20
465.2848608420807
 30
0.0
  0
VERTEX
  5
BF
  8
FAB_2$FISHBOWL$TEST
 10
-6353.165652995554
 20
465.1468275160664
 30
0.0
  0
VERTEX
  5
C0
  8
FAB_2$FISHBOWL$TEST
 10
-6353.201040826712
 20
465.0095562578604
 30
0.0
  0
VERTEX
  5
C1
  8
FAB_2$FISHBOWL$TEST
 10
-6353.239206326286
 20
464.8734346797438
 30
0.0
  0
VERTEX
  5
C2
  8
FAB_2$FISHBOWL$TEST
 10
-6353.280520738376
 20
464.7388503939982
 30
0.0
  0
VERTEX
  5
C3
  8
FAB_2$FISHBOWL$TEST
 10
-6353.325355307081
 20
464.6061910129048
 30
0.0
  0
VERTEX
  5
C4
  8
FAB_2$FISHBOWL$TEST
 10
-6353.374081276501
 20
464.4758441487451
 30
0.0
  0
VERTEX
  5
C5
  8
FAB_2$FISHBOWL$TEST
 10
-6353.400019550259
 20
464.4116590393533
 30
0.0
  0
VERTEX
  5
C6
  8
FAB_2$FISHBOWL$TEST
 10
-6353.427069890734
 20
464.3481974138004
 30
0.0
  0
VERTEX
  5
C7
  8
FAB_2$FISHBOWL$TEST
 10
-6353.455278703437
 20
464.2855077236217
 30
0.0
  0
VERTEX
  5
C8
  8
FAB_2$FISHBOWL$TEST
 10
-6353.48469239388
 20
464.2236384203522
 30
0.0
  0
VERTEX
  5
C9
  8
FAB_2$FISHBOWL$TEST
 10
-6353.515357367577
 20
464.1626379555273
 30
0.0
  0
VERTEX
  5
CA
  8
FAB_2$FISHBOWL$TEST
 10
-6353.547320030038
 20
464.1025547806818
 30
0.0
  0
VERTEX
  5
CB
  8
FAB_2$FISHBOWL$TEST
 10
-6353.580626786779
 20
464.0434373473512
 30
0.0
  0
VERTEX
  5
CC
  8
FAB_2$FISHBOWL$TEST
 10
-6353.615324043309
 20
463.9853341070705
 30
0.0
  0
VERTEX
  5
CD
  8
FAB_2$FISHBOWL$TEST
 10
-6353.651458205141
 20
463.928293511375
 30
0.0
  0
VERTEX
  5
CE
  8
FAB_2$FISHBOWL$TEST
 10
-6353.689075677788
 20
463.8723640117998
 30
0.0
  0
VERTEX
  5
CF
  8
FAB_2$FISHBOWL$TEST
 10
-6353.728222866765
 20
463.8175940598801
 30
0.0
  0
VERTEX
  5
D0
  8
FAB_2$FISHBOWL$TEST
 10
-6353.76894617758
 20
463.764032107151
 30
0.0
  0
VERTEX
  5
D1
  8
FAB_2$FISHBOWL$TEST
 10
-6353.811292015747
 20
463.7117266051478
 30
0.0
  0
VERTEX
  5
D2
  8
FAB_2$FISHBOWL$TEST
 10
-6353.85530678678
 20
463.6607260054055
 30
0.0
  0
VERTEX
  5
D3
  8
FAB_2$FISHBOWL$TEST
 10
-6353.90103689619
 20
463.6110787594594
 30
0.0
  0
VERTEX
  5
D4
  8
FAB_2$FISHBOWL$TEST
 10
-6353.948528749488
 20
463.5628333188447
 30
0.0
  0
VERTEX
  5
D5
  8
FAB_2$FISHBOWL$TEST
 10
-6353.997787451177
 20
463.5160051575139
 30
0.0
  0
VERTEX
  5
D6
  8
FAB_2$FISHBOWL$TEST
 10
-6354.048652901707
 20
463.4704778390888
 30
0.0
  0
VERTEX
  5
D7
  8
FAB_2$FISHBOWL$TEST
 10
-6354.100923700518
 20
463.4261019496089
 30
0.0
  0
VERTEX
  5
D8
  8
FAB_2$FISHBOWL$TEST
 10
-6354.154398447049
 20
463.3827280751136
 30
0.0
  0
VERTEX
  5
D9
  8
FAB_2$FISHBOWL$TEST
 10
-6354.264154181031
 20
463.2983887152339
 30
0.0
  0
VERTEX
  5
DA
  8
FAB_2$FISHBOWL$TEST
 10
-6354.711054913656
 20
462.9712290829622
 30
0.0
  0
VERTEX
  5
DB
  8
FAB_2$FISHBOWL$TEST
 10
-6354.764480648115
 20
462.9290160518926
 30
0.0
  0
VERTEX
  5
DC
  8
FAB_2$FISHBOWL$TEST
 10
-6354.816693523567
 20
462.8860120682794
 30
0.0
  0
VERTEX
  5
DD
  8
FAB_2$FISHBOWL$TEST
 10
-6354.86749213945
 20
462.8420677181621
 30
0.0
  0
VERTEX
  5
DE
  8
FAB_2$FISHBOWL$TEST
 10
-6354.916675095208
 20
462.79703358758
 30
0.0
  0
VERTEX
  5
DF
  8
FAB_2$FISHBOWL$TEST
 10
-6354.964040990279
 20
462.7507602625724
 30
0.0
  0
VERTEX
  5
E0
  8
FAB_2$FISHBOWL$TEST
 10
-6354.98697960238
 20
462.7271122102964
 30
0.0
  0
VERTEX
  5
E1
  8
FAB_2$FISHBOWL$TEST
 10
-6355.009388424099
 20
462.7030983291787
 30
0.0
  0
VERTEX
  5
E2
  8
FAB_2$FISHBOWL$TEST
 10
-6355.031242280365
 20
462.6786999424743
 30
0.0
  0
VERTEX
  5
E3
  8
FAB_2$FISHBOWL$TEST
 10
-6355.052515996111
 20
462.6538983734381
 30
0.0
  0
VERTEX
  5
E4
  8
FAB_2$FISHBOWL$TEST
 10
-6355.073184396263
 20
462.6286749453251
 30
0.0
  0
VERTEX
  5
E5
  8
FAB_2$FISHBOWL$TEST
 10
-6355.093222305753
 20
462.6030109813901
 30
0.0
  0
VERTEX
  5
E6
  8
FAB_2$FISHBOWL$TEST
 10
-6355.112604549509
 20
462.576887804888
 30
0.0
  0
VERTEX
  5
E7
  8
FAB_2$FISHBOWL$TEST
 10
-6355.131305952464
 20
462.5502867390738
 30
0.0
  0
VERTEX
  5
E8
  8
FAB_2$FISHBOWL$TEST
 10
-6355.149301339545
 20
462.5231891072025
 30
0.0
  0
VERTEX
  5
E9
  8
FAB_2$FISHBOWL$TEST
 10
-6355.166565535685
 20
462.4955762325288
 30
0.0
  0
VERTEX
  5
EA
  8
FAB_2$FISHBOWL$TEST
 10
-6355.183073365812
 20
462.4674294383078
 30
0.0
  0
VERTEX
  5
EB
  8
FAB_2$FISHBOWL$TEST
 10
-6355.198799654854
 20
462.4387300477944
 30
0.0
  0
VERTEX
  5
EC
  8
FAB_2$FISHBOWL$TEST
 10
-6355.213719227745
 20
462.4094593842433
 30
0.0
  0
VERTEX
  5
ED
  8
FAB_2$FISHBOWL$TEST
 10
-6355.227806909412
 20
462.3795987709097
 30
0.0
  0
VERTEX
  5
EE
  8
FAB_2$FISHBOWL$TEST
 10
-6355.241037524785
 20
462.3491295310483
 30
0.0
  0
VERTEX
  5
EF
  8
FAB_2$FISHBOWL$TEST
 10
-6355.253385898797
 20
462.3180329879142
 30
0.0
  0
VERTEX
  5
F0
  8
FAB_2$FISHBOWL$TEST
 10
-6355.264826856375
 20
462.2862904647623
 30
0.0
  0
VERTEX
  5
F1
  8
FAB_2$FISHBOWL$TEST
 10
-6355.27533522245
 20
462.2538832848472
 30
0.0
  0
VERTEX
  5
F2
  8
FAB_2$FISHBOWL$TEST
 10
-6355.284885821951
 20
462.2207927714243
 30
0.0
  0
VERTEX
  5
F3
  8
FAB_2$FISHBOWL$TEST
 10
-6355.293453479809
 20
462.1870002477482
 30
0.0
  0
VERTEX
  5
F4
  8
FAB_2$FISHBOWL$TEST
 10
-6355.301013020953
 20
462.1524870370739
 30
0.0
  0
VERTEX
  5
F5
  8
FAB_2$FISHBOWL$TEST
 10
-6355.307539270314
 20
462.1172344626563
 30
0.0
  0
VERTEX
  5
F6
  8
FAB_2$FISHBOWL$TEST
 10
-6355.31300705282
 20
462.0812238477503
 30
0.0
  0
VERTEX
  5
F7
  8
FAB_2$FISHBOWL$TEST
 10
-6355.317391193404
 20
462.0444365156108
 30
0.0
  0
VERTEX
  5
F8
  8
FAB_2$FISHBOWL$TEST
 10
-6355.320666516993
 20
462.0068537894928
 30
0.0
  0
VERTEX
  5
F9
  8
FAB_2$FISHBOWL$TEST
 10
-6355.322807848518
 20
461.9684569926512
 30
0.0
  0
VERTEX
  5
FA
  8
FAB_2$FISHBOWL$TEST
 10
-6355.322807848517
 20
450.4596057368581
 30
0.0
 42
0.0569807791674159
  0
VERTEX
  5
FB
  8
FAB_2$FISHBOWL$TEST
 10
-6355.252613833559
 20
449.8456609171593
 30
0.0
  0
SEQEND
  5
FC
  8
FAB_2$FISHBOWL$TEST
  0
POLYLINE
  5
FD
  8
FAB_2$FISHBOWL$TEST
 66
     1
 10
0.0
 20
0.0
 30
0.0
 70
     1
  0
VERTEX
  5
FE
  8
FAB_2$FISHBOWL$TEST
 10
-6345.732807848518
 20
467.7396057368587
 30
0.0
  0
VERTEX
  5
FF
  8
FAB_2$FISHBOWL$TEST
 10
-6345.732807848518
 20
462.8696057368588
 30
0.0
  0
VERTEX
  5
100
  8
FAB_2$FISHBOWL$TEST
 10
-6348.192807848518
 20
462.8696057368588
 30
0.0
  0
VERTEX
  5
101
  8
FAB_2$FISHBOWL$TEST
 10
-6348.192807848518
 20
472.6096057368586
 30
0.0
  0
VERTEX
  5
102
  8
FAB_2$FISHBOWL$TEST
 10
-6345.732807848518
 20
472.6096057368586
 30
0.0
  0
SEQEND
  5
103
  8
FAB_2$FISHBOWL$TEST
  0
ARC
  5
104
  8
FAB_2$FISHBOWL$TEST
 10
-6359.488538450732
 20
466.1712466804542
 30
0.0
 40
16.86617348057734
 50
126.2805434427992
 51
221.0631592420461
  0
ARC
  5
105
  8
FAB_2$FISHBOWL$TEST
 10
-6359.488538450732
 20
466.1712466804542
 30
0.0
 40
16.86617348057734
 50
284.545521564462
 51
75.70069271166142
  0
POLYLINE
  5
106
  8
FAB_2$FISHBOWL$TEST
 66
     1
 10
0.0
 20
0.0
 30
0.0
  0
VERTEX
  5
107
  8
FAB_2$FISHBOWL$TEST
 10
-6372.20539584456
 20
455.0920162964428
 30
0.0
  0
VERTEX
  5
108
  8
FAB_2$FISHBOWL$TEST
 10
-6369.468918952255
 20
455.0920162964428
 30
0.0
  0
VERTEX
  5
109
  8
FAB_2$FISHBOWL$TEST
 10
-6369.468918952255
 20
460.0920162964494
 30
0.0
  0
VERTEX
  5
10A
  8
FAB_2$FISHBOWL$TEST
 10
-6365.188918952255
 20
460.0920162964499
 30
0.0
 42
0.4142135623728187
  0
VERTEX
  5
10B
  8
FAB_2$FISHBOWL$TEST
 10
-6362.468918952255
 20
462.8120162964497
 30
0.0
  0
VERTEX
  5
10C
  8
FAB_2$FISHBOWL$TEST
 10
-6362.468918952255
 20
465.0920162964494
 30
0.0
  0
VERTEX
  5
10D
  8
FAB_2$FISHBOWL$TEST
 10
-6362.468918952255
 20
467.3720162964499
 30
0.0
 42
0.4142135623729951
  0
VERTEX
  5
10E
  8
FAB_2$FISHBOWL$TEST
 10
-6365.188918952255
 20
470.0920162964508
 30
0.0
  0
VERTEX
  5
10F
  8
FAB_2$FISHBOWL$TEST
 10
-6369.468918952255
 20
470.0920162964495
 30
0.0
  0
VERTEX
  5
110
  8
FAB_2$FISHBOWL$TEST
 10
-6369.468918952254
 20
479.7675628330541
 30
0.0
  0
SEQEND
  5
111
  8
FAB_2$FISHBOWL$TEST
  0
ENDSEC
  0
EOF
