G75*
%MOIN*%
%OFA0B0*%
%FSLAX25Y25*%
%IPPOS*%
%LPD*%
%AMOC8*
5,1,8,0,0,1.08239X$1,22.5*
%
%ADD10C,0.01700*%
%ADD11C,0.00600*%
%ADD12C,0.00800*%
%ADD13C,0.01000*%
%ADD14C,0.00500*%
%ADD15C,0.01200*%
%ADD16C,0.01300*%
D10*
X0124612Y0037563D02*
X0124612Y0044469D01*
X0126914Y0042167D01*
X0129216Y0044469D01*
X0129216Y0037563D01*
X0132531Y0038714D02*
X0132531Y0043318D01*
X0133682Y0044469D01*
X0135984Y0044469D01*
X0137135Y0043318D01*
X0137135Y0038714D01*
X0135984Y0037563D01*
X0133682Y0037563D01*
X0132531Y0038714D01*
X0148368Y0044469D02*
X0152972Y0044469D01*
X0150670Y0044469D02*
X0150670Y0037563D01*
X0156287Y0038714D02*
X0156287Y0041016D01*
X0157438Y0042167D01*
X0159740Y0042167D01*
X0160891Y0041016D01*
X0160891Y0039865D01*
X0156287Y0039865D01*
X0156287Y0038714D02*
X0157438Y0037563D01*
X0159740Y0037563D01*
X0164206Y0038714D02*
X0164206Y0041016D01*
X0165357Y0042167D01*
X0167659Y0042167D01*
X0168810Y0041016D01*
X0168810Y0039865D01*
X0164206Y0039865D01*
X0164206Y0038714D02*
X0165357Y0037563D01*
X0167659Y0037563D01*
X0172125Y0037563D02*
X0172125Y0042167D01*
X0175578Y0042167D01*
X0176729Y0041016D01*
X0176729Y0037563D01*
X0180044Y0037563D02*
X0183496Y0037563D01*
X0184647Y0038714D01*
X0183496Y0039865D01*
X0181195Y0039865D01*
X0180044Y0041016D01*
X0181195Y0042167D01*
X0184647Y0042167D01*
X0187962Y0042167D02*
X0187962Y0038714D01*
X0189113Y0037563D01*
X0192566Y0037563D01*
X0192566Y0036412D02*
X0191415Y0035261D01*
X0190264Y0035261D01*
X0192566Y0036412D02*
X0192566Y0042167D01*
X0203800Y0041016D02*
X0207253Y0041016D01*
X0208404Y0039865D01*
X0208404Y0038714D01*
X0207253Y0037563D01*
X0203800Y0037563D01*
X0203800Y0044469D01*
X0207253Y0044469D01*
X0208404Y0043318D01*
X0208404Y0042167D01*
X0207253Y0041016D01*
X0211719Y0039865D02*
X0214021Y0042167D01*
X0215172Y0042167D01*
X0218318Y0041016D02*
X0219469Y0042167D01*
X0221770Y0042167D01*
X0222921Y0041016D01*
X0222921Y0039865D01*
X0218318Y0039865D01*
X0218318Y0038714D02*
X0218318Y0041016D01*
X0218318Y0038714D02*
X0219469Y0037563D01*
X0221770Y0037563D01*
X0226236Y0038714D02*
X0227387Y0039865D01*
X0230840Y0039865D01*
X0230840Y0041016D02*
X0230840Y0037563D01*
X0227387Y0037563D01*
X0226236Y0038714D01*
X0227387Y0042167D02*
X0229689Y0042167D01*
X0230840Y0041016D01*
X0234155Y0039865D02*
X0237608Y0042167D01*
X0240754Y0041016D02*
X0240754Y0038714D01*
X0241905Y0037563D01*
X0244207Y0037563D01*
X0245358Y0038714D01*
X0245358Y0041016D01*
X0244207Y0042167D01*
X0241905Y0042167D01*
X0240754Y0041016D01*
X0237608Y0037563D02*
X0234155Y0039865D01*
X0234155Y0037563D02*
X0234155Y0044469D01*
X0248673Y0042167D02*
X0248673Y0038714D01*
X0249824Y0037563D01*
X0253277Y0037563D01*
X0253277Y0042167D01*
X0256592Y0042167D02*
X0258894Y0042167D01*
X0257743Y0043318D02*
X0257743Y0038714D01*
X0258894Y0037563D01*
X0211719Y0037563D02*
X0211719Y0042167D01*
D11*
X0214280Y0025251D02*
X0214280Y0024684D01*
X0214280Y0023550D02*
X0214280Y0021281D01*
X0213713Y0021281D02*
X0214847Y0021281D01*
X0216168Y0021281D02*
X0216168Y0023550D01*
X0217870Y0023550D01*
X0218437Y0022983D01*
X0218437Y0021281D01*
X0214280Y0023550D02*
X0213713Y0023550D01*
X0208615Y0023550D02*
X0206914Y0023550D01*
X0206347Y0022983D01*
X0206347Y0021848D01*
X0206914Y0021281D01*
X0208615Y0021281D01*
X0208615Y0024684D01*
X0204932Y0022983D02*
X0204932Y0022415D01*
X0202663Y0022415D01*
X0202663Y0021848D02*
X0202663Y0022983D01*
X0203231Y0023550D01*
X0204365Y0023550D01*
X0204932Y0022983D01*
X0204365Y0021281D02*
X0203231Y0021281D01*
X0202663Y0021848D01*
X0201249Y0021281D02*
X0201249Y0022983D01*
X0200682Y0023550D01*
X0198980Y0023550D01*
X0198980Y0021281D01*
X0197659Y0021281D02*
X0196525Y0021281D01*
X0197092Y0021281D02*
X0197092Y0023550D01*
X0196525Y0023550D01*
X0197092Y0024684D02*
X0197092Y0025251D01*
X0195110Y0023550D02*
X0193409Y0023550D01*
X0192842Y0022983D01*
X0192842Y0021848D01*
X0193409Y0021281D01*
X0195110Y0021281D01*
X0195110Y0020714D02*
X0195110Y0023550D01*
X0195110Y0020714D02*
X0194543Y0020147D01*
X0193976Y0020147D01*
X0191427Y0021848D02*
X0190860Y0022415D01*
X0189726Y0022415D01*
X0189159Y0022983D01*
X0189726Y0023550D01*
X0191427Y0023550D01*
X0191427Y0021848D02*
X0190860Y0021281D01*
X0189159Y0021281D01*
X0187744Y0022415D02*
X0185475Y0022415D01*
X0185475Y0021848D02*
X0185475Y0022983D01*
X0186043Y0023550D01*
X0187177Y0023550D01*
X0187744Y0022983D01*
X0187744Y0022415D01*
X0187177Y0021281D02*
X0186043Y0021281D01*
X0185475Y0021848D01*
X0184061Y0021848D02*
X0184061Y0024117D01*
X0183494Y0024684D01*
X0181792Y0024684D01*
X0181792Y0021281D01*
X0183494Y0021281D01*
X0184061Y0021848D01*
X0176788Y0021848D02*
X0176221Y0021848D01*
X0176221Y0021281D01*
X0176788Y0021281D01*
X0176788Y0021848D01*
X0176788Y0021281D02*
X0175654Y0020147D01*
X0174333Y0021281D02*
X0173198Y0021281D01*
X0173766Y0021281D02*
X0173766Y0023550D01*
X0173198Y0023550D01*
X0173766Y0024684D02*
X0173766Y0025251D01*
X0171784Y0022983D02*
X0171784Y0021281D01*
X0171784Y0022983D02*
X0171217Y0023550D01*
X0169515Y0023550D01*
X0169515Y0021281D01*
X0168101Y0022415D02*
X0165832Y0022415D01*
X0165832Y0021848D02*
X0165832Y0022983D01*
X0166399Y0023550D01*
X0167534Y0023550D01*
X0168101Y0022983D01*
X0168101Y0022415D01*
X0167534Y0021281D02*
X0166399Y0021281D01*
X0165832Y0021848D01*
X0164418Y0021281D02*
X0164418Y0022983D01*
X0163850Y0023550D01*
X0163283Y0022983D01*
X0163283Y0021281D01*
X0162149Y0021281D02*
X0162149Y0023550D01*
X0162716Y0023550D01*
X0163283Y0022983D01*
X0160734Y0022983D02*
X0160167Y0023550D01*
X0159033Y0023550D01*
X0158466Y0022983D01*
X0158466Y0021848D01*
X0159033Y0021281D01*
X0160167Y0021281D01*
X0160734Y0021848D01*
X0160734Y0022983D01*
X0157051Y0024684D02*
X0157051Y0021281D01*
X0154783Y0021281D02*
X0154783Y0024684D01*
X0155917Y0023550D01*
X0157051Y0024684D01*
X0149211Y0024684D02*
X0149211Y0025251D01*
X0149211Y0023550D02*
X0149211Y0021281D01*
X0148644Y0021281D02*
X0149778Y0021281D01*
X0149211Y0023550D02*
X0148644Y0023550D01*
X0146756Y0024684D02*
X0146756Y0021281D01*
X0146189Y0021281D02*
X0147323Y0021281D01*
X0144774Y0021281D02*
X0144774Y0023550D01*
X0143640Y0024684D01*
X0142505Y0023550D01*
X0142505Y0021281D01*
X0142505Y0022983D02*
X0144774Y0022983D01*
X0146189Y0024684D02*
X0146756Y0024684D01*
X0137408Y0024684D02*
X0137408Y0024117D01*
X0135139Y0021848D01*
X0135139Y0021281D01*
X0133725Y0021281D02*
X0131456Y0021281D01*
X0132590Y0021281D02*
X0132590Y0024684D01*
X0131456Y0023550D01*
X0130042Y0024117D02*
X0129474Y0024684D01*
X0128340Y0024684D01*
X0127773Y0024117D01*
X0127773Y0021848D01*
X0130042Y0024117D01*
X0130042Y0021848D01*
X0129474Y0021281D01*
X0128340Y0021281D01*
X0127773Y0021848D01*
X0126358Y0021281D02*
X0124090Y0021281D01*
X0126358Y0023550D01*
X0126358Y0024117D01*
X0125791Y0024684D01*
X0124657Y0024684D01*
X0124090Y0024117D01*
X0135139Y0024684D02*
X0137408Y0024684D01*
X0136841Y0012873D02*
X0137408Y0012306D01*
X0137408Y0011739D01*
X0136841Y0011172D01*
X0137408Y0010604D01*
X0137408Y0010037D01*
X0136841Y0009470D01*
X0135706Y0009470D01*
X0135139Y0010037D01*
X0136273Y0011172D02*
X0136841Y0011172D01*
X0136841Y0012873D02*
X0135706Y0012873D01*
X0135139Y0012306D01*
X0133725Y0011172D02*
X0131456Y0011172D01*
X0130042Y0011739D02*
X0130042Y0012306D01*
X0129474Y0012873D01*
X0128340Y0012873D01*
X0127773Y0012306D01*
X0126358Y0011739D02*
X0125224Y0009470D01*
X0124090Y0011739D01*
X0127773Y0009470D02*
X0130042Y0011739D01*
X0130042Y0009470D02*
X0127773Y0009470D01*
X0138822Y0009470D02*
X0140524Y0009470D01*
X0141091Y0010037D01*
X0141091Y0011172D01*
X0140524Y0011739D01*
X0138822Y0011739D01*
X0138822Y0012873D02*
X0138822Y0009470D01*
X0223535Y0021281D02*
X0223535Y0024684D01*
X0225236Y0024684D01*
X0225803Y0024117D01*
X0225803Y0022983D01*
X0225236Y0022415D01*
X0223535Y0022415D01*
X0227218Y0021281D02*
X0228352Y0021281D01*
X0227785Y0021281D02*
X0227785Y0023550D01*
X0227218Y0023550D01*
X0227785Y0024684D02*
X0227785Y0025251D01*
X0229673Y0023550D02*
X0230808Y0023550D01*
X0230240Y0024117D02*
X0230240Y0021848D01*
X0230808Y0021281D01*
X0232696Y0021848D02*
X0233263Y0021281D01*
X0232696Y0021848D02*
X0232696Y0024117D01*
X0232129Y0023550D02*
X0233263Y0023550D01*
X0234584Y0022983D02*
X0235151Y0023550D01*
X0236853Y0023550D01*
X0236286Y0022415D02*
X0235151Y0022415D01*
X0234584Y0022983D01*
X0234584Y0021281D02*
X0236286Y0021281D01*
X0236853Y0021848D01*
X0236286Y0022415D01*
X0238267Y0021281D02*
X0239969Y0021281D01*
X0240536Y0021848D01*
X0240536Y0022983D01*
X0239969Y0023550D01*
X0238267Y0023550D01*
X0238267Y0024684D02*
X0238267Y0021281D01*
X0241950Y0021848D02*
X0242518Y0021281D01*
X0244219Y0021281D01*
X0244219Y0023550D01*
X0245634Y0023550D02*
X0245634Y0021281D01*
X0245634Y0022415D02*
X0246768Y0023550D01*
X0247335Y0023550D01*
X0248703Y0022983D02*
X0248703Y0021848D01*
X0249270Y0021281D01*
X0250971Y0021281D01*
X0250971Y0020714D02*
X0250971Y0023550D01*
X0249270Y0023550D01*
X0248703Y0022983D01*
X0249837Y0020147D02*
X0250404Y0020147D01*
X0250971Y0020714D01*
X0252386Y0021281D02*
X0252386Y0024684D01*
X0252953Y0023550D02*
X0254087Y0023550D01*
X0254655Y0022983D01*
X0254655Y0021281D01*
X0252386Y0022983D02*
X0252953Y0023550D01*
X0255706Y0012873D02*
X0256841Y0012873D01*
X0257408Y0012306D01*
X0257408Y0011739D01*
X0256841Y0011172D01*
X0257408Y0010604D01*
X0257408Y0010037D01*
X0256841Y0009470D01*
X0255706Y0009470D01*
X0255139Y0010037D01*
X0256273Y0011172D02*
X0256841Y0011172D01*
X0255706Y0012873D02*
X0255139Y0012306D01*
X0253725Y0011172D02*
X0251456Y0011172D01*
X0250042Y0011739D02*
X0250042Y0012306D01*
X0249474Y0012873D01*
X0248340Y0012873D01*
X0247773Y0012306D01*
X0246358Y0011739D02*
X0245224Y0009470D01*
X0244090Y0011739D01*
X0247773Y0009470D02*
X0250042Y0011739D01*
X0250042Y0009470D02*
X0247773Y0009470D01*
X0258822Y0009470D02*
X0260524Y0009470D01*
X0261091Y0010037D01*
X0261091Y0011172D01*
X0260524Y0011739D01*
X0258822Y0011739D01*
X0258822Y0012873D02*
X0258822Y0009470D01*
X0241950Y0021848D02*
X0241950Y0023550D01*
X0168955Y0320197D02*
X0168957Y0320351D01*
X0168963Y0320505D01*
X0168973Y0320659D01*
X0168987Y0320813D01*
X0169004Y0320966D01*
X0169026Y0321118D01*
X0169052Y0321270D01*
X0169081Y0321422D01*
X0169115Y0321572D01*
X0169152Y0321722D01*
X0169193Y0321870D01*
X0169238Y0322018D01*
X0169287Y0322164D01*
X0169339Y0322309D01*
X0169395Y0322452D01*
X0169455Y0322595D01*
X0169518Y0322735D01*
X0169585Y0322874D01*
X0169656Y0323011D01*
X0169730Y0323146D01*
X0169807Y0323279D01*
X0169888Y0323411D01*
X0169972Y0323540D01*
X0170060Y0323667D01*
X0170151Y0323791D01*
X0170244Y0323913D01*
X0170342Y0324033D01*
X0170442Y0324150D01*
X0170545Y0324265D01*
X0170651Y0324377D01*
X0170759Y0324486D01*
X0170871Y0324592D01*
X0170985Y0324696D01*
X0171102Y0324796D01*
X0171221Y0324894D01*
X0171343Y0324988D01*
X0171468Y0325079D01*
X0180955Y0320198D02*
X0180953Y0320046D01*
X0180947Y0319895D01*
X0180938Y0319744D01*
X0180924Y0319592D01*
X0180907Y0319442D01*
X0180886Y0319292D01*
X0180861Y0319142D01*
X0180833Y0318993D01*
X0180800Y0318845D01*
X0180764Y0318698D01*
X0180725Y0318551D01*
X0180681Y0318406D01*
X0180634Y0318262D01*
X0180583Y0318119D01*
X0180529Y0317978D01*
X0180471Y0317837D01*
X0180410Y0317699D01*
X0180345Y0317562D01*
X0180276Y0317426D01*
X0180205Y0317293D01*
X0180130Y0317161D01*
X0180051Y0317031D01*
X0179970Y0316904D01*
X0179885Y0316778D01*
X0179797Y0316654D01*
X0179706Y0316533D01*
X0179612Y0316414D01*
X0179514Y0316298D01*
X0179414Y0316184D01*
X0179312Y0316072D01*
X0179206Y0315964D01*
X0179098Y0315858D01*
X0178987Y0315754D01*
X0178873Y0315654D01*
X0178757Y0315556D01*
X0178638Y0315462D01*
X0180955Y0320198D02*
X0180953Y0320350D01*
X0180947Y0320501D01*
X0180938Y0320652D01*
X0180924Y0320804D01*
X0180907Y0320954D01*
X0180886Y0321104D01*
X0180861Y0321254D01*
X0180833Y0321403D01*
X0180800Y0321551D01*
X0180764Y0321698D01*
X0180725Y0321845D01*
X0180681Y0321990D01*
X0180634Y0322134D01*
X0180583Y0322277D01*
X0180529Y0322418D01*
X0180471Y0322559D01*
X0180410Y0322697D01*
X0180345Y0322834D01*
X0180276Y0322970D01*
X0180205Y0323103D01*
X0180130Y0323235D01*
X0180051Y0323365D01*
X0179970Y0323492D01*
X0179885Y0323618D01*
X0179797Y0323742D01*
X0179706Y0323863D01*
X0179612Y0323982D01*
X0179514Y0324098D01*
X0179414Y0324212D01*
X0179312Y0324324D01*
X0179206Y0324432D01*
X0179098Y0324538D01*
X0178987Y0324642D01*
X0178873Y0324742D01*
X0178757Y0324840D01*
X0178638Y0324934D01*
X0168955Y0320198D02*
X0168957Y0320048D01*
X0168963Y0319897D01*
X0168972Y0319747D01*
X0168985Y0319598D01*
X0169002Y0319448D01*
X0169023Y0319299D01*
X0169047Y0319151D01*
X0169075Y0319003D01*
X0169107Y0318856D01*
X0169142Y0318710D01*
X0169182Y0318565D01*
X0169224Y0318421D01*
X0169271Y0318278D01*
X0169321Y0318136D01*
X0169374Y0317995D01*
X0169431Y0317856D01*
X0169491Y0317718D01*
X0169555Y0317582D01*
X0169622Y0317448D01*
X0169693Y0317315D01*
X0169767Y0317184D01*
X0169844Y0317055D01*
X0169925Y0316928D01*
X0170008Y0316803D01*
X0170095Y0316680D01*
X0170184Y0316559D01*
X0170277Y0316441D01*
X0170373Y0316325D01*
X0170471Y0316211D01*
X0170572Y0316100D01*
X0170677Y0315991D01*
X0170783Y0315886D01*
X0170893Y0315782D01*
X0171005Y0315682D01*
X0171119Y0315584D01*
X0171236Y0315490D01*
X0171355Y0315398D01*
D12*
X0172172Y0309998D02*
X0172172Y0305794D01*
X0174974Y0305794D01*
X0176776Y0305794D02*
X0178877Y0305794D01*
X0179578Y0306495D01*
X0179578Y0309297D01*
X0178877Y0309998D01*
X0176776Y0309998D01*
X0176776Y0305794D01*
X0173573Y0307896D02*
X0172172Y0307896D01*
X0172172Y0309998D02*
X0174974Y0309998D01*
X0181379Y0308597D02*
X0182781Y0309998D01*
X0182781Y0305794D01*
X0184182Y0305794D02*
X0181379Y0305794D01*
X0170370Y0305794D02*
X0167568Y0305794D01*
X0167568Y0309998D01*
X0099778Y0261879D02*
X0094778Y0261879D01*
X0110900Y0217835D02*
X0110902Y0217976D01*
X0110908Y0218117D01*
X0110918Y0218257D01*
X0110932Y0218397D01*
X0110950Y0218537D01*
X0110971Y0218676D01*
X0110997Y0218815D01*
X0111026Y0218953D01*
X0111060Y0219089D01*
X0111097Y0219225D01*
X0111138Y0219360D01*
X0111183Y0219494D01*
X0111232Y0219626D01*
X0111284Y0219757D01*
X0111340Y0219886D01*
X0111400Y0220013D01*
X0111463Y0220139D01*
X0111529Y0220263D01*
X0111600Y0220386D01*
X0111673Y0220506D01*
X0111750Y0220624D01*
X0111830Y0220740D01*
X0111914Y0220853D01*
X0112000Y0220964D01*
X0112090Y0221073D01*
X0112183Y0221179D01*
X0112278Y0221282D01*
X0112377Y0221383D01*
X0112478Y0221481D01*
X0112582Y0221576D01*
X0112689Y0221668D01*
X0112798Y0221757D01*
X0112910Y0221842D01*
X0113024Y0221925D01*
X0113140Y0222005D01*
X0113259Y0222081D01*
X0113380Y0222153D01*
X0113502Y0222223D01*
X0113627Y0222288D01*
X0113753Y0222351D01*
X0113881Y0222409D01*
X0114011Y0222464D01*
X0114142Y0222516D01*
X0114275Y0222563D01*
X0114409Y0222607D01*
X0114544Y0222648D01*
X0114680Y0222684D01*
X0114817Y0222716D01*
X0114955Y0222745D01*
X0115093Y0222770D01*
X0115233Y0222790D01*
X0115373Y0222807D01*
X0115513Y0222820D01*
X0115654Y0222829D01*
X0115794Y0222834D01*
X0115935Y0222835D01*
X0116076Y0222832D01*
X0116217Y0222825D01*
X0116357Y0222814D01*
X0116497Y0222799D01*
X0116637Y0222780D01*
X0116776Y0222758D01*
X0116914Y0222731D01*
X0117052Y0222701D01*
X0117188Y0222666D01*
X0117324Y0222628D01*
X0117458Y0222586D01*
X0117592Y0222540D01*
X0117724Y0222491D01*
X0117854Y0222437D01*
X0117983Y0222380D01*
X0118110Y0222320D01*
X0118236Y0222256D01*
X0118359Y0222188D01*
X0118481Y0222117D01*
X0118601Y0222043D01*
X0118718Y0221965D01*
X0118833Y0221884D01*
X0118946Y0221800D01*
X0119057Y0221713D01*
X0119165Y0221622D01*
X0119270Y0221529D01*
X0119373Y0221432D01*
X0119473Y0221333D01*
X0119570Y0221231D01*
X0119664Y0221126D01*
X0119755Y0221019D01*
X0119843Y0220909D01*
X0119928Y0220797D01*
X0120010Y0220682D01*
X0120089Y0220565D01*
X0120164Y0220446D01*
X0120236Y0220325D01*
X0120304Y0220202D01*
X0120369Y0220077D01*
X0120431Y0219950D01*
X0120488Y0219821D01*
X0120543Y0219691D01*
X0120593Y0219560D01*
X0120640Y0219427D01*
X0120683Y0219293D01*
X0120722Y0219157D01*
X0120757Y0219021D01*
X0120789Y0218884D01*
X0120816Y0218746D01*
X0120840Y0218607D01*
X0120860Y0218467D01*
X0120876Y0218327D01*
X0120888Y0218187D01*
X0120896Y0218046D01*
X0120900Y0217905D01*
X0120900Y0217765D01*
X0120896Y0217624D01*
X0120888Y0217483D01*
X0120876Y0217343D01*
X0120860Y0217203D01*
X0120840Y0217063D01*
X0120816Y0216924D01*
X0120789Y0216786D01*
X0120757Y0216649D01*
X0120722Y0216513D01*
X0120683Y0216377D01*
X0120640Y0216243D01*
X0120593Y0216110D01*
X0120543Y0215979D01*
X0120488Y0215849D01*
X0120431Y0215720D01*
X0120369Y0215593D01*
X0120304Y0215468D01*
X0120236Y0215345D01*
X0120164Y0215224D01*
X0120089Y0215105D01*
X0120010Y0214988D01*
X0119928Y0214873D01*
X0119843Y0214761D01*
X0119755Y0214651D01*
X0119664Y0214544D01*
X0119570Y0214439D01*
X0119473Y0214337D01*
X0119373Y0214238D01*
X0119270Y0214141D01*
X0119165Y0214048D01*
X0119057Y0213957D01*
X0118946Y0213870D01*
X0118833Y0213786D01*
X0118718Y0213705D01*
X0118601Y0213627D01*
X0118481Y0213553D01*
X0118359Y0213482D01*
X0118236Y0213414D01*
X0118110Y0213350D01*
X0117983Y0213290D01*
X0117854Y0213233D01*
X0117724Y0213179D01*
X0117592Y0213130D01*
X0117458Y0213084D01*
X0117324Y0213042D01*
X0117188Y0213004D01*
X0117052Y0212969D01*
X0116914Y0212939D01*
X0116776Y0212912D01*
X0116637Y0212890D01*
X0116497Y0212871D01*
X0116357Y0212856D01*
X0116217Y0212845D01*
X0116076Y0212838D01*
X0115935Y0212835D01*
X0115794Y0212836D01*
X0115654Y0212841D01*
X0115513Y0212850D01*
X0115373Y0212863D01*
X0115233Y0212880D01*
X0115093Y0212900D01*
X0114955Y0212925D01*
X0114817Y0212954D01*
X0114680Y0212986D01*
X0114544Y0213022D01*
X0114409Y0213063D01*
X0114275Y0213107D01*
X0114142Y0213154D01*
X0114011Y0213206D01*
X0113881Y0213261D01*
X0113753Y0213319D01*
X0113627Y0213382D01*
X0113502Y0213447D01*
X0113380Y0213517D01*
X0113259Y0213589D01*
X0113140Y0213665D01*
X0113024Y0213745D01*
X0112910Y0213828D01*
X0112798Y0213913D01*
X0112689Y0214002D01*
X0112582Y0214094D01*
X0112478Y0214189D01*
X0112377Y0214287D01*
X0112278Y0214388D01*
X0112183Y0214491D01*
X0112090Y0214597D01*
X0112000Y0214706D01*
X0111914Y0214817D01*
X0111830Y0214930D01*
X0111750Y0215046D01*
X0111673Y0215164D01*
X0111600Y0215284D01*
X0111529Y0215407D01*
X0111463Y0215531D01*
X0111400Y0215657D01*
X0111340Y0215784D01*
X0111284Y0215913D01*
X0111232Y0216044D01*
X0111183Y0216176D01*
X0111138Y0216310D01*
X0111097Y0216445D01*
X0111060Y0216581D01*
X0111026Y0216717D01*
X0110997Y0216855D01*
X0110971Y0216994D01*
X0110950Y0217133D01*
X0110932Y0217273D01*
X0110918Y0217413D01*
X0110908Y0217553D01*
X0110902Y0217694D01*
X0110900Y0217835D01*
X0099030Y0124044D02*
X0094030Y0124044D01*
X0110900Y0087914D02*
X0110902Y0088055D01*
X0110908Y0088196D01*
X0110918Y0088336D01*
X0110932Y0088476D01*
X0110950Y0088616D01*
X0110971Y0088755D01*
X0110997Y0088894D01*
X0111026Y0089032D01*
X0111060Y0089168D01*
X0111097Y0089304D01*
X0111138Y0089439D01*
X0111183Y0089573D01*
X0111232Y0089705D01*
X0111284Y0089836D01*
X0111340Y0089965D01*
X0111400Y0090092D01*
X0111463Y0090218D01*
X0111529Y0090342D01*
X0111600Y0090465D01*
X0111673Y0090585D01*
X0111750Y0090703D01*
X0111830Y0090819D01*
X0111914Y0090932D01*
X0112000Y0091043D01*
X0112090Y0091152D01*
X0112183Y0091258D01*
X0112278Y0091361D01*
X0112377Y0091462D01*
X0112478Y0091560D01*
X0112582Y0091655D01*
X0112689Y0091747D01*
X0112798Y0091836D01*
X0112910Y0091921D01*
X0113024Y0092004D01*
X0113140Y0092084D01*
X0113259Y0092160D01*
X0113380Y0092232D01*
X0113502Y0092302D01*
X0113627Y0092367D01*
X0113753Y0092430D01*
X0113881Y0092488D01*
X0114011Y0092543D01*
X0114142Y0092595D01*
X0114275Y0092642D01*
X0114409Y0092686D01*
X0114544Y0092727D01*
X0114680Y0092763D01*
X0114817Y0092795D01*
X0114955Y0092824D01*
X0115093Y0092849D01*
X0115233Y0092869D01*
X0115373Y0092886D01*
X0115513Y0092899D01*
X0115654Y0092908D01*
X0115794Y0092913D01*
X0115935Y0092914D01*
X0116076Y0092911D01*
X0116217Y0092904D01*
X0116357Y0092893D01*
X0116497Y0092878D01*
X0116637Y0092859D01*
X0116776Y0092837D01*
X0116914Y0092810D01*
X0117052Y0092780D01*
X0117188Y0092745D01*
X0117324Y0092707D01*
X0117458Y0092665D01*
X0117592Y0092619D01*
X0117724Y0092570D01*
X0117854Y0092516D01*
X0117983Y0092459D01*
X0118110Y0092399D01*
X0118236Y0092335D01*
X0118359Y0092267D01*
X0118481Y0092196D01*
X0118601Y0092122D01*
X0118718Y0092044D01*
X0118833Y0091963D01*
X0118946Y0091879D01*
X0119057Y0091792D01*
X0119165Y0091701D01*
X0119270Y0091608D01*
X0119373Y0091511D01*
X0119473Y0091412D01*
X0119570Y0091310D01*
X0119664Y0091205D01*
X0119755Y0091098D01*
X0119843Y0090988D01*
X0119928Y0090876D01*
X0120010Y0090761D01*
X0120089Y0090644D01*
X0120164Y0090525D01*
X0120236Y0090404D01*
X0120304Y0090281D01*
X0120369Y0090156D01*
X0120431Y0090029D01*
X0120488Y0089900D01*
X0120543Y0089770D01*
X0120593Y0089639D01*
X0120640Y0089506D01*
X0120683Y0089372D01*
X0120722Y0089236D01*
X0120757Y0089100D01*
X0120789Y0088963D01*
X0120816Y0088825D01*
X0120840Y0088686D01*
X0120860Y0088546D01*
X0120876Y0088406D01*
X0120888Y0088266D01*
X0120896Y0088125D01*
X0120900Y0087984D01*
X0120900Y0087844D01*
X0120896Y0087703D01*
X0120888Y0087562D01*
X0120876Y0087422D01*
X0120860Y0087282D01*
X0120840Y0087142D01*
X0120816Y0087003D01*
X0120789Y0086865D01*
X0120757Y0086728D01*
X0120722Y0086592D01*
X0120683Y0086456D01*
X0120640Y0086322D01*
X0120593Y0086189D01*
X0120543Y0086058D01*
X0120488Y0085928D01*
X0120431Y0085799D01*
X0120369Y0085672D01*
X0120304Y0085547D01*
X0120236Y0085424D01*
X0120164Y0085303D01*
X0120089Y0085184D01*
X0120010Y0085067D01*
X0119928Y0084952D01*
X0119843Y0084840D01*
X0119755Y0084730D01*
X0119664Y0084623D01*
X0119570Y0084518D01*
X0119473Y0084416D01*
X0119373Y0084317D01*
X0119270Y0084220D01*
X0119165Y0084127D01*
X0119057Y0084036D01*
X0118946Y0083949D01*
X0118833Y0083865D01*
X0118718Y0083784D01*
X0118601Y0083706D01*
X0118481Y0083632D01*
X0118359Y0083561D01*
X0118236Y0083493D01*
X0118110Y0083429D01*
X0117983Y0083369D01*
X0117854Y0083312D01*
X0117724Y0083258D01*
X0117592Y0083209D01*
X0117458Y0083163D01*
X0117324Y0083121D01*
X0117188Y0083083D01*
X0117052Y0083048D01*
X0116914Y0083018D01*
X0116776Y0082991D01*
X0116637Y0082969D01*
X0116497Y0082950D01*
X0116357Y0082935D01*
X0116217Y0082924D01*
X0116076Y0082917D01*
X0115935Y0082914D01*
X0115794Y0082915D01*
X0115654Y0082920D01*
X0115513Y0082929D01*
X0115373Y0082942D01*
X0115233Y0082959D01*
X0115093Y0082979D01*
X0114955Y0083004D01*
X0114817Y0083033D01*
X0114680Y0083065D01*
X0114544Y0083101D01*
X0114409Y0083142D01*
X0114275Y0083186D01*
X0114142Y0083233D01*
X0114011Y0083285D01*
X0113881Y0083340D01*
X0113753Y0083398D01*
X0113627Y0083461D01*
X0113502Y0083526D01*
X0113380Y0083596D01*
X0113259Y0083668D01*
X0113140Y0083744D01*
X0113024Y0083824D01*
X0112910Y0083907D01*
X0112798Y0083992D01*
X0112689Y0084081D01*
X0112582Y0084173D01*
X0112478Y0084268D01*
X0112377Y0084366D01*
X0112278Y0084467D01*
X0112183Y0084570D01*
X0112090Y0084676D01*
X0112000Y0084785D01*
X0111914Y0084896D01*
X0111830Y0085009D01*
X0111750Y0085125D01*
X0111673Y0085243D01*
X0111600Y0085363D01*
X0111529Y0085486D01*
X0111463Y0085610D01*
X0111400Y0085736D01*
X0111340Y0085863D01*
X0111284Y0085992D01*
X0111232Y0086123D01*
X0111183Y0086255D01*
X0111138Y0086389D01*
X0111097Y0086524D01*
X0111060Y0086660D01*
X0111026Y0086796D01*
X0110997Y0086934D01*
X0110971Y0087073D01*
X0110950Y0087212D01*
X0110932Y0087352D01*
X0110918Y0087492D01*
X0110908Y0087632D01*
X0110902Y0087773D01*
X0110900Y0087914D01*
X0102967Y0021721D02*
X0097967Y0021721D01*
X0229010Y0087914D02*
X0229012Y0088055D01*
X0229018Y0088196D01*
X0229028Y0088336D01*
X0229042Y0088476D01*
X0229060Y0088616D01*
X0229081Y0088755D01*
X0229107Y0088894D01*
X0229136Y0089032D01*
X0229170Y0089168D01*
X0229207Y0089304D01*
X0229248Y0089439D01*
X0229293Y0089573D01*
X0229342Y0089705D01*
X0229394Y0089836D01*
X0229450Y0089965D01*
X0229510Y0090092D01*
X0229573Y0090218D01*
X0229639Y0090342D01*
X0229710Y0090465D01*
X0229783Y0090585D01*
X0229860Y0090703D01*
X0229940Y0090819D01*
X0230024Y0090932D01*
X0230110Y0091043D01*
X0230200Y0091152D01*
X0230293Y0091258D01*
X0230388Y0091361D01*
X0230487Y0091462D01*
X0230588Y0091560D01*
X0230692Y0091655D01*
X0230799Y0091747D01*
X0230908Y0091836D01*
X0231020Y0091921D01*
X0231134Y0092004D01*
X0231250Y0092084D01*
X0231369Y0092160D01*
X0231490Y0092232D01*
X0231612Y0092302D01*
X0231737Y0092367D01*
X0231863Y0092430D01*
X0231991Y0092488D01*
X0232121Y0092543D01*
X0232252Y0092595D01*
X0232385Y0092642D01*
X0232519Y0092686D01*
X0232654Y0092727D01*
X0232790Y0092763D01*
X0232927Y0092795D01*
X0233065Y0092824D01*
X0233203Y0092849D01*
X0233343Y0092869D01*
X0233483Y0092886D01*
X0233623Y0092899D01*
X0233764Y0092908D01*
X0233904Y0092913D01*
X0234045Y0092914D01*
X0234186Y0092911D01*
X0234327Y0092904D01*
X0234467Y0092893D01*
X0234607Y0092878D01*
X0234747Y0092859D01*
X0234886Y0092837D01*
X0235024Y0092810D01*
X0235162Y0092780D01*
X0235298Y0092745D01*
X0235434Y0092707D01*
X0235568Y0092665D01*
X0235702Y0092619D01*
X0235834Y0092570D01*
X0235964Y0092516D01*
X0236093Y0092459D01*
X0236220Y0092399D01*
X0236346Y0092335D01*
X0236469Y0092267D01*
X0236591Y0092196D01*
X0236711Y0092122D01*
X0236828Y0092044D01*
X0236943Y0091963D01*
X0237056Y0091879D01*
X0237167Y0091792D01*
X0237275Y0091701D01*
X0237380Y0091608D01*
X0237483Y0091511D01*
X0237583Y0091412D01*
X0237680Y0091310D01*
X0237774Y0091205D01*
X0237865Y0091098D01*
X0237953Y0090988D01*
X0238038Y0090876D01*
X0238120Y0090761D01*
X0238199Y0090644D01*
X0238274Y0090525D01*
X0238346Y0090404D01*
X0238414Y0090281D01*
X0238479Y0090156D01*
X0238541Y0090029D01*
X0238598Y0089900D01*
X0238653Y0089770D01*
X0238703Y0089639D01*
X0238750Y0089506D01*
X0238793Y0089372D01*
X0238832Y0089236D01*
X0238867Y0089100D01*
X0238899Y0088963D01*
X0238926Y0088825D01*
X0238950Y0088686D01*
X0238970Y0088546D01*
X0238986Y0088406D01*
X0238998Y0088266D01*
X0239006Y0088125D01*
X0239010Y0087984D01*
X0239010Y0087844D01*
X0239006Y0087703D01*
X0238998Y0087562D01*
X0238986Y0087422D01*
X0238970Y0087282D01*
X0238950Y0087142D01*
X0238926Y0087003D01*
X0238899Y0086865D01*
X0238867Y0086728D01*
X0238832Y0086592D01*
X0238793Y0086456D01*
X0238750Y0086322D01*
X0238703Y0086189D01*
X0238653Y0086058D01*
X0238598Y0085928D01*
X0238541Y0085799D01*
X0238479Y0085672D01*
X0238414Y0085547D01*
X0238346Y0085424D01*
X0238274Y0085303D01*
X0238199Y0085184D01*
X0238120Y0085067D01*
X0238038Y0084952D01*
X0237953Y0084840D01*
X0237865Y0084730D01*
X0237774Y0084623D01*
X0237680Y0084518D01*
X0237583Y0084416D01*
X0237483Y0084317D01*
X0237380Y0084220D01*
X0237275Y0084127D01*
X0237167Y0084036D01*
X0237056Y0083949D01*
X0236943Y0083865D01*
X0236828Y0083784D01*
X0236711Y0083706D01*
X0236591Y0083632D01*
X0236469Y0083561D01*
X0236346Y0083493D01*
X0236220Y0083429D01*
X0236093Y0083369D01*
X0235964Y0083312D01*
X0235834Y0083258D01*
X0235702Y0083209D01*
X0235568Y0083163D01*
X0235434Y0083121D01*
X0235298Y0083083D01*
X0235162Y0083048D01*
X0235024Y0083018D01*
X0234886Y0082991D01*
X0234747Y0082969D01*
X0234607Y0082950D01*
X0234467Y0082935D01*
X0234327Y0082924D01*
X0234186Y0082917D01*
X0234045Y0082914D01*
X0233904Y0082915D01*
X0233764Y0082920D01*
X0233623Y0082929D01*
X0233483Y0082942D01*
X0233343Y0082959D01*
X0233203Y0082979D01*
X0233065Y0083004D01*
X0232927Y0083033D01*
X0232790Y0083065D01*
X0232654Y0083101D01*
X0232519Y0083142D01*
X0232385Y0083186D01*
X0232252Y0083233D01*
X0232121Y0083285D01*
X0231991Y0083340D01*
X0231863Y0083398D01*
X0231737Y0083461D01*
X0231612Y0083526D01*
X0231490Y0083596D01*
X0231369Y0083668D01*
X0231250Y0083744D01*
X0231134Y0083824D01*
X0231020Y0083907D01*
X0230908Y0083992D01*
X0230799Y0084081D01*
X0230692Y0084173D01*
X0230588Y0084268D01*
X0230487Y0084366D01*
X0230388Y0084467D01*
X0230293Y0084570D01*
X0230200Y0084676D01*
X0230110Y0084785D01*
X0230024Y0084896D01*
X0229940Y0085009D01*
X0229860Y0085125D01*
X0229783Y0085243D01*
X0229710Y0085363D01*
X0229639Y0085486D01*
X0229573Y0085610D01*
X0229510Y0085736D01*
X0229450Y0085863D01*
X0229394Y0085992D01*
X0229342Y0086123D01*
X0229293Y0086255D01*
X0229248Y0086389D01*
X0229207Y0086524D01*
X0229170Y0086660D01*
X0229136Y0086796D01*
X0229107Y0086934D01*
X0229081Y0087073D01*
X0229060Y0087212D01*
X0229042Y0087352D01*
X0229028Y0087492D01*
X0229018Y0087632D01*
X0229012Y0087773D01*
X0229010Y0087914D01*
X0326313Y0021721D02*
X0331313Y0021721D01*
X0342061Y0120186D02*
X0347061Y0120186D01*
X0347061Y0175107D02*
X0342061Y0175107D01*
X0342061Y0230583D02*
X0347061Y0230583D01*
X0229010Y0217835D02*
X0229012Y0217976D01*
X0229018Y0218117D01*
X0229028Y0218257D01*
X0229042Y0218397D01*
X0229060Y0218537D01*
X0229081Y0218676D01*
X0229107Y0218815D01*
X0229136Y0218953D01*
X0229170Y0219089D01*
X0229207Y0219225D01*
X0229248Y0219360D01*
X0229293Y0219494D01*
X0229342Y0219626D01*
X0229394Y0219757D01*
X0229450Y0219886D01*
X0229510Y0220013D01*
X0229573Y0220139D01*
X0229639Y0220263D01*
X0229710Y0220386D01*
X0229783Y0220506D01*
X0229860Y0220624D01*
X0229940Y0220740D01*
X0230024Y0220853D01*
X0230110Y0220964D01*
X0230200Y0221073D01*
X0230293Y0221179D01*
X0230388Y0221282D01*
X0230487Y0221383D01*
X0230588Y0221481D01*
X0230692Y0221576D01*
X0230799Y0221668D01*
X0230908Y0221757D01*
X0231020Y0221842D01*
X0231134Y0221925D01*
X0231250Y0222005D01*
X0231369Y0222081D01*
X0231490Y0222153D01*
X0231612Y0222223D01*
X0231737Y0222288D01*
X0231863Y0222351D01*
X0231991Y0222409D01*
X0232121Y0222464D01*
X0232252Y0222516D01*
X0232385Y0222563D01*
X0232519Y0222607D01*
X0232654Y0222648D01*
X0232790Y0222684D01*
X0232927Y0222716D01*
X0233065Y0222745D01*
X0233203Y0222770D01*
X0233343Y0222790D01*
X0233483Y0222807D01*
X0233623Y0222820D01*
X0233764Y0222829D01*
X0233904Y0222834D01*
X0234045Y0222835D01*
X0234186Y0222832D01*
X0234327Y0222825D01*
X0234467Y0222814D01*
X0234607Y0222799D01*
X0234747Y0222780D01*
X0234886Y0222758D01*
X0235024Y0222731D01*
X0235162Y0222701D01*
X0235298Y0222666D01*
X0235434Y0222628D01*
X0235568Y0222586D01*
X0235702Y0222540D01*
X0235834Y0222491D01*
X0235964Y0222437D01*
X0236093Y0222380D01*
X0236220Y0222320D01*
X0236346Y0222256D01*
X0236469Y0222188D01*
X0236591Y0222117D01*
X0236711Y0222043D01*
X0236828Y0221965D01*
X0236943Y0221884D01*
X0237056Y0221800D01*
X0237167Y0221713D01*
X0237275Y0221622D01*
X0237380Y0221529D01*
X0237483Y0221432D01*
X0237583Y0221333D01*
X0237680Y0221231D01*
X0237774Y0221126D01*
X0237865Y0221019D01*
X0237953Y0220909D01*
X0238038Y0220797D01*
X0238120Y0220682D01*
X0238199Y0220565D01*
X0238274Y0220446D01*
X0238346Y0220325D01*
X0238414Y0220202D01*
X0238479Y0220077D01*
X0238541Y0219950D01*
X0238598Y0219821D01*
X0238653Y0219691D01*
X0238703Y0219560D01*
X0238750Y0219427D01*
X0238793Y0219293D01*
X0238832Y0219157D01*
X0238867Y0219021D01*
X0238899Y0218884D01*
X0238926Y0218746D01*
X0238950Y0218607D01*
X0238970Y0218467D01*
X0238986Y0218327D01*
X0238998Y0218187D01*
X0239006Y0218046D01*
X0239010Y0217905D01*
X0239010Y0217765D01*
X0239006Y0217624D01*
X0238998Y0217483D01*
X0238986Y0217343D01*
X0238970Y0217203D01*
X0238950Y0217063D01*
X0238926Y0216924D01*
X0238899Y0216786D01*
X0238867Y0216649D01*
X0238832Y0216513D01*
X0238793Y0216377D01*
X0238750Y0216243D01*
X0238703Y0216110D01*
X0238653Y0215979D01*
X0238598Y0215849D01*
X0238541Y0215720D01*
X0238479Y0215593D01*
X0238414Y0215468D01*
X0238346Y0215345D01*
X0238274Y0215224D01*
X0238199Y0215105D01*
X0238120Y0214988D01*
X0238038Y0214873D01*
X0237953Y0214761D01*
X0237865Y0214651D01*
X0237774Y0214544D01*
X0237680Y0214439D01*
X0237583Y0214337D01*
X0237483Y0214238D01*
X0237380Y0214141D01*
X0237275Y0214048D01*
X0237167Y0213957D01*
X0237056Y0213870D01*
X0236943Y0213786D01*
X0236828Y0213705D01*
X0236711Y0213627D01*
X0236591Y0213553D01*
X0236469Y0213482D01*
X0236346Y0213414D01*
X0236220Y0213350D01*
X0236093Y0213290D01*
X0235964Y0213233D01*
X0235834Y0213179D01*
X0235702Y0213130D01*
X0235568Y0213084D01*
X0235434Y0213042D01*
X0235298Y0213004D01*
X0235162Y0212969D01*
X0235024Y0212939D01*
X0234886Y0212912D01*
X0234747Y0212890D01*
X0234607Y0212871D01*
X0234467Y0212856D01*
X0234327Y0212845D01*
X0234186Y0212838D01*
X0234045Y0212835D01*
X0233904Y0212836D01*
X0233764Y0212841D01*
X0233623Y0212850D01*
X0233483Y0212863D01*
X0233343Y0212880D01*
X0233203Y0212900D01*
X0233065Y0212925D01*
X0232927Y0212954D01*
X0232790Y0212986D01*
X0232654Y0213022D01*
X0232519Y0213063D01*
X0232385Y0213107D01*
X0232252Y0213154D01*
X0232121Y0213206D01*
X0231991Y0213261D01*
X0231863Y0213319D01*
X0231737Y0213382D01*
X0231612Y0213447D01*
X0231490Y0213517D01*
X0231369Y0213589D01*
X0231250Y0213665D01*
X0231134Y0213745D01*
X0231020Y0213828D01*
X0230908Y0213913D01*
X0230799Y0214002D01*
X0230692Y0214094D01*
X0230588Y0214189D01*
X0230487Y0214287D01*
X0230388Y0214388D01*
X0230293Y0214491D01*
X0230200Y0214597D01*
X0230110Y0214706D01*
X0230024Y0214817D01*
X0229940Y0214930D01*
X0229860Y0215046D01*
X0229783Y0215164D01*
X0229710Y0215284D01*
X0229639Y0215407D01*
X0229573Y0215531D01*
X0229510Y0215657D01*
X0229450Y0215784D01*
X0229394Y0215913D01*
X0229342Y0216044D01*
X0229293Y0216176D01*
X0229248Y0216310D01*
X0229207Y0216445D01*
X0229170Y0216581D01*
X0229136Y0216717D01*
X0229107Y0216855D01*
X0229081Y0216994D01*
X0229060Y0217133D01*
X0229042Y0217273D01*
X0229028Y0217413D01*
X0229018Y0217553D01*
X0229012Y0217694D01*
X0229010Y0217835D01*
D13*
X0178924Y0313251D02*
X0179093Y0313350D01*
X0179259Y0313454D01*
X0179423Y0313561D01*
X0179584Y0313672D01*
X0179742Y0313787D01*
X0179897Y0313906D01*
X0180050Y0314029D01*
X0180199Y0314155D01*
X0180345Y0314285D01*
X0180488Y0314419D01*
X0180628Y0314556D01*
X0180764Y0314696D01*
X0180897Y0314840D01*
X0181026Y0314987D01*
X0181152Y0315137D01*
X0181273Y0315290D01*
X0181392Y0315446D01*
X0181506Y0315605D01*
X0181616Y0315766D01*
X0181722Y0315931D01*
X0181825Y0316097D01*
X0181923Y0316267D01*
X0182017Y0316438D01*
X0182107Y0316612D01*
X0182192Y0316788D01*
X0182274Y0316966D01*
X0182350Y0317146D01*
X0182423Y0317328D01*
X0182491Y0317511D01*
X0182554Y0317696D01*
X0182613Y0317883D01*
X0182667Y0318071D01*
X0182717Y0318260D01*
X0182762Y0318450D01*
X0182802Y0318642D01*
X0182838Y0318834D01*
X0182869Y0319027D01*
X0182895Y0319221D01*
X0182917Y0319416D01*
X0182933Y0319611D01*
X0182945Y0319806D01*
X0182953Y0320002D01*
X0182955Y0320197D01*
X0171190Y0313139D02*
X0171022Y0313232D01*
X0170856Y0313328D01*
X0170692Y0313428D01*
X0170531Y0313533D01*
X0170372Y0313641D01*
X0170216Y0313753D01*
X0170062Y0313869D01*
X0169912Y0313988D01*
X0169764Y0314111D01*
X0169619Y0314237D01*
X0169478Y0314367D01*
X0169339Y0314500D01*
X0169204Y0314637D01*
X0169072Y0314777D01*
X0168944Y0314919D01*
X0168819Y0315065D01*
X0168697Y0315214D01*
X0168579Y0315366D01*
X0168465Y0315520D01*
X0168355Y0315678D01*
X0168248Y0315837D01*
X0168145Y0316000D01*
X0168046Y0316165D01*
X0167951Y0316332D01*
X0167861Y0316501D01*
X0167774Y0316672D01*
X0167691Y0316846D01*
X0167613Y0317021D01*
X0167539Y0317199D01*
X0167469Y0317378D01*
X0167403Y0317558D01*
X0167342Y0317740D01*
X0167285Y0317924D01*
X0167233Y0318109D01*
X0167185Y0318295D01*
X0167141Y0318482D01*
X0167102Y0318670D01*
X0167068Y0318859D01*
X0167038Y0319049D01*
X0167013Y0319239D01*
X0166992Y0319430D01*
X0166976Y0319622D01*
X0166964Y0319814D01*
X0166957Y0320006D01*
X0166955Y0320198D01*
X0180123Y0326305D02*
X0180269Y0326178D01*
X0180411Y0326049D01*
X0180551Y0325915D01*
X0180687Y0325779D01*
X0180820Y0325639D01*
X0180950Y0325496D01*
X0181076Y0325349D01*
X0181198Y0325200D01*
X0181317Y0325048D01*
X0181432Y0324893D01*
X0181544Y0324736D01*
X0181651Y0324576D01*
X0181755Y0324413D01*
X0181854Y0324247D01*
X0181950Y0324080D01*
X0182042Y0323910D01*
X0182129Y0323738D01*
X0182213Y0323564D01*
X0182292Y0323388D01*
X0182366Y0323210D01*
X0182437Y0323030D01*
X0182503Y0322849D01*
X0182565Y0322666D01*
X0182622Y0322482D01*
X0182675Y0322296D01*
X0182723Y0322109D01*
X0182767Y0321921D01*
X0182806Y0321732D01*
X0182841Y0321542D01*
X0182871Y0321352D01*
X0182897Y0321161D01*
X0182918Y0320969D01*
X0182934Y0320776D01*
X0182946Y0320584D01*
X0182953Y0320391D01*
X0182955Y0320198D01*
X0169833Y0326344D02*
X0169685Y0326217D01*
X0169540Y0326087D01*
X0169399Y0325954D01*
X0169260Y0325817D01*
X0169125Y0325677D01*
X0168994Y0325533D01*
X0168866Y0325386D01*
X0168741Y0325237D01*
X0168620Y0325084D01*
X0168503Y0324929D01*
X0168390Y0324770D01*
X0168281Y0324609D01*
X0168176Y0324445D01*
X0168074Y0324279D01*
X0167977Y0324110D01*
X0167884Y0323940D01*
X0167795Y0323766D01*
X0167710Y0323591D01*
X0167630Y0323414D01*
X0167554Y0323235D01*
X0167482Y0323054D01*
X0167415Y0322871D01*
X0167352Y0322687D01*
X0167294Y0322501D01*
X0167240Y0322314D01*
X0167191Y0322126D01*
X0167146Y0321936D01*
X0167106Y0321746D01*
X0167071Y0321554D01*
X0167040Y0321362D01*
X0167014Y0321169D01*
X0166993Y0320975D01*
X0166976Y0320781D01*
X0166964Y0320587D01*
X0166957Y0320393D01*
X0166955Y0320198D01*
D14*
X0035516Y0068479D02*
X0032814Y0068479D01*
X0034165Y0068930D02*
X0035516Y0070281D01*
X0035516Y0071426D02*
X0032814Y0071426D01*
X0035516Y0073227D01*
X0032814Y0073227D01*
X0033264Y0074372D02*
X0035066Y0074372D01*
X0035516Y0074823D01*
X0035516Y0075723D01*
X0035066Y0076174D01*
X0033264Y0076174D01*
X0032814Y0075723D01*
X0032814Y0074823D01*
X0033264Y0074372D01*
X0032814Y0077319D02*
X0032814Y0078670D01*
X0033264Y0079120D01*
X0033715Y0079120D01*
X0034165Y0078670D01*
X0034165Y0077319D01*
X0034165Y0078670D02*
X0034615Y0079120D01*
X0035066Y0079120D01*
X0035516Y0078670D01*
X0035516Y0077319D01*
X0032814Y0077319D01*
X0033264Y0080265D02*
X0032814Y0080716D01*
X0032814Y0081616D01*
X0033264Y0082067D01*
X0033715Y0082067D01*
X0034165Y0081616D01*
X0034615Y0082067D01*
X0035066Y0082067D01*
X0035516Y0081616D01*
X0035516Y0080716D01*
X0035066Y0080265D01*
X0034165Y0081166D02*
X0034165Y0081616D01*
X0038095Y0081851D02*
X0038095Y0067351D01*
X0075595Y0067351D01*
X0075595Y0081851D01*
X0075595Y0101851D02*
X0075595Y0110601D01*
X0075595Y0110851D02*
X0038095Y0110851D01*
X0038095Y0110601D02*
X0038095Y0101851D01*
X0048845Y0091851D02*
X0048847Y0092047D01*
X0048855Y0092244D01*
X0048867Y0092440D01*
X0048884Y0092635D01*
X0048905Y0092830D01*
X0048932Y0093025D01*
X0048963Y0093219D01*
X0048999Y0093412D01*
X0049039Y0093604D01*
X0049085Y0093795D01*
X0049135Y0093985D01*
X0049189Y0094173D01*
X0049249Y0094360D01*
X0049313Y0094546D01*
X0049381Y0094730D01*
X0049454Y0094912D01*
X0049531Y0095093D01*
X0049613Y0095271D01*
X0049699Y0095448D01*
X0049790Y0095622D01*
X0049884Y0095794D01*
X0049983Y0095964D01*
X0050086Y0096131D01*
X0050193Y0096296D01*
X0050304Y0096457D01*
X0050419Y0096617D01*
X0050538Y0096773D01*
X0050661Y0096926D01*
X0050787Y0097076D01*
X0050917Y0097223D01*
X0051051Y0097367D01*
X0051188Y0097508D01*
X0051329Y0097645D01*
X0051473Y0097779D01*
X0051620Y0097909D01*
X0051770Y0098035D01*
X0051923Y0098158D01*
X0052079Y0098277D01*
X0052239Y0098392D01*
X0052400Y0098503D01*
X0052565Y0098610D01*
X0052732Y0098713D01*
X0052902Y0098812D01*
X0053074Y0098906D01*
X0053248Y0098997D01*
X0053425Y0099083D01*
X0053603Y0099165D01*
X0053784Y0099242D01*
X0053966Y0099315D01*
X0054150Y0099383D01*
X0054336Y0099447D01*
X0054523Y0099507D01*
X0054711Y0099561D01*
X0054901Y0099611D01*
X0055092Y0099657D01*
X0055284Y0099697D01*
X0055477Y0099733D01*
X0055671Y0099764D01*
X0055866Y0099791D01*
X0056061Y0099812D01*
X0056256Y0099829D01*
X0056452Y0099841D01*
X0056649Y0099849D01*
X0056845Y0099851D01*
X0057041Y0099849D01*
X0057238Y0099841D01*
X0057434Y0099829D01*
X0057629Y0099812D01*
X0057824Y0099791D01*
X0058019Y0099764D01*
X0058213Y0099733D01*
X0058406Y0099697D01*
X0058598Y0099657D01*
X0058789Y0099611D01*
X0058979Y0099561D01*
X0059167Y0099507D01*
X0059354Y0099447D01*
X0059540Y0099383D01*
X0059724Y0099315D01*
X0059906Y0099242D01*
X0060087Y0099165D01*
X0060265Y0099083D01*
X0060442Y0098997D01*
X0060616Y0098906D01*
X0060788Y0098812D01*
X0060958Y0098713D01*
X0061125Y0098610D01*
X0061290Y0098503D01*
X0061451Y0098392D01*
X0061611Y0098277D01*
X0061767Y0098158D01*
X0061920Y0098035D01*
X0062070Y0097909D01*
X0062217Y0097779D01*
X0062361Y0097645D01*
X0062502Y0097508D01*
X0062639Y0097367D01*
X0062773Y0097223D01*
X0062903Y0097076D01*
X0063029Y0096926D01*
X0063152Y0096773D01*
X0063271Y0096617D01*
X0063386Y0096457D01*
X0063497Y0096296D01*
X0063604Y0096131D01*
X0063707Y0095964D01*
X0063806Y0095794D01*
X0063900Y0095622D01*
X0063991Y0095448D01*
X0064077Y0095271D01*
X0064159Y0095093D01*
X0064236Y0094912D01*
X0064309Y0094730D01*
X0064377Y0094546D01*
X0064441Y0094360D01*
X0064501Y0094173D01*
X0064555Y0093985D01*
X0064605Y0093795D01*
X0064651Y0093604D01*
X0064691Y0093412D01*
X0064727Y0093219D01*
X0064758Y0093025D01*
X0064785Y0092830D01*
X0064806Y0092635D01*
X0064823Y0092440D01*
X0064835Y0092244D01*
X0064843Y0092047D01*
X0064845Y0091851D01*
X0064843Y0091655D01*
X0064835Y0091458D01*
X0064823Y0091262D01*
X0064806Y0091067D01*
X0064785Y0090872D01*
X0064758Y0090677D01*
X0064727Y0090483D01*
X0064691Y0090290D01*
X0064651Y0090098D01*
X0064605Y0089907D01*
X0064555Y0089717D01*
X0064501Y0089529D01*
X0064441Y0089342D01*
X0064377Y0089156D01*
X0064309Y0088972D01*
X0064236Y0088790D01*
X0064159Y0088609D01*
X0064077Y0088431D01*
X0063991Y0088254D01*
X0063900Y0088080D01*
X0063806Y0087908D01*
X0063707Y0087738D01*
X0063604Y0087571D01*
X0063497Y0087406D01*
X0063386Y0087245D01*
X0063271Y0087085D01*
X0063152Y0086929D01*
X0063029Y0086776D01*
X0062903Y0086626D01*
X0062773Y0086479D01*
X0062639Y0086335D01*
X0062502Y0086194D01*
X0062361Y0086057D01*
X0062217Y0085923D01*
X0062070Y0085793D01*
X0061920Y0085667D01*
X0061767Y0085544D01*
X0061611Y0085425D01*
X0061451Y0085310D01*
X0061290Y0085199D01*
X0061125Y0085092D01*
X0060958Y0084989D01*
X0060788Y0084890D01*
X0060616Y0084796D01*
X0060442Y0084705D01*
X0060265Y0084619D01*
X0060087Y0084537D01*
X0059906Y0084460D01*
X0059724Y0084387D01*
X0059540Y0084319D01*
X0059354Y0084255D01*
X0059167Y0084195D01*
X0058979Y0084141D01*
X0058789Y0084091D01*
X0058598Y0084045D01*
X0058406Y0084005D01*
X0058213Y0083969D01*
X0058019Y0083938D01*
X0057824Y0083911D01*
X0057629Y0083890D01*
X0057434Y0083873D01*
X0057238Y0083861D01*
X0057041Y0083853D01*
X0056845Y0083851D01*
X0056649Y0083853D01*
X0056452Y0083861D01*
X0056256Y0083873D01*
X0056061Y0083890D01*
X0055866Y0083911D01*
X0055671Y0083938D01*
X0055477Y0083969D01*
X0055284Y0084005D01*
X0055092Y0084045D01*
X0054901Y0084091D01*
X0054711Y0084141D01*
X0054523Y0084195D01*
X0054336Y0084255D01*
X0054150Y0084319D01*
X0053966Y0084387D01*
X0053784Y0084460D01*
X0053603Y0084537D01*
X0053425Y0084619D01*
X0053248Y0084705D01*
X0053074Y0084796D01*
X0052902Y0084890D01*
X0052732Y0084989D01*
X0052565Y0085092D01*
X0052400Y0085199D01*
X0052239Y0085310D01*
X0052079Y0085425D01*
X0051923Y0085544D01*
X0051770Y0085667D01*
X0051620Y0085793D01*
X0051473Y0085923D01*
X0051329Y0086057D01*
X0051188Y0086194D01*
X0051051Y0086335D01*
X0050917Y0086479D01*
X0050787Y0086626D01*
X0050661Y0086776D01*
X0050538Y0086929D01*
X0050419Y0087085D01*
X0050304Y0087245D01*
X0050193Y0087406D01*
X0050086Y0087571D01*
X0049983Y0087738D01*
X0049884Y0087908D01*
X0049790Y0088080D01*
X0049699Y0088254D01*
X0049613Y0088431D01*
X0049531Y0088609D01*
X0049454Y0088790D01*
X0049381Y0088972D01*
X0049313Y0089156D01*
X0049249Y0089342D01*
X0049189Y0089529D01*
X0049135Y0089717D01*
X0049085Y0089907D01*
X0049039Y0090098D01*
X0048999Y0090290D01*
X0048963Y0090483D01*
X0048932Y0090677D01*
X0048905Y0090872D01*
X0048884Y0091067D01*
X0048867Y0091262D01*
X0048855Y0091458D01*
X0048847Y0091655D01*
X0048845Y0091851D01*
X0032814Y0070281D02*
X0034615Y0068479D01*
X0100900Y0072914D02*
X0130900Y0072914D01*
X0130900Y0102914D01*
X0120900Y0102914D01*
X0120900Y0107914D02*
X0110900Y0102914D01*
X0100900Y0102914D01*
X0100900Y0072914D01*
X0105400Y0082914D02*
X0105402Y0082958D01*
X0105408Y0083002D01*
X0105418Y0083045D01*
X0105431Y0083087D01*
X0105448Y0083128D01*
X0105469Y0083167D01*
X0105493Y0083204D01*
X0105520Y0083239D01*
X0105550Y0083271D01*
X0105583Y0083301D01*
X0105619Y0083327D01*
X0105656Y0083351D01*
X0105696Y0083370D01*
X0105737Y0083387D01*
X0105780Y0083399D01*
X0105823Y0083408D01*
X0105867Y0083413D01*
X0105911Y0083414D01*
X0105955Y0083411D01*
X0105999Y0083404D01*
X0106042Y0083393D01*
X0106084Y0083379D01*
X0106124Y0083361D01*
X0106163Y0083339D01*
X0106199Y0083315D01*
X0106233Y0083287D01*
X0106265Y0083256D01*
X0106294Y0083222D01*
X0106320Y0083186D01*
X0106342Y0083148D01*
X0106361Y0083108D01*
X0106376Y0083066D01*
X0106388Y0083024D01*
X0106396Y0082980D01*
X0106400Y0082936D01*
X0106400Y0082892D01*
X0106396Y0082848D01*
X0106388Y0082804D01*
X0106376Y0082762D01*
X0106361Y0082720D01*
X0106342Y0082680D01*
X0106320Y0082642D01*
X0106294Y0082606D01*
X0106265Y0082572D01*
X0106233Y0082541D01*
X0106199Y0082513D01*
X0106163Y0082489D01*
X0106124Y0082467D01*
X0106084Y0082449D01*
X0106042Y0082435D01*
X0105999Y0082424D01*
X0105955Y0082417D01*
X0105911Y0082414D01*
X0105867Y0082415D01*
X0105823Y0082420D01*
X0105780Y0082429D01*
X0105737Y0082441D01*
X0105696Y0082458D01*
X0105656Y0082477D01*
X0105619Y0082501D01*
X0105583Y0082527D01*
X0105550Y0082557D01*
X0105520Y0082589D01*
X0105493Y0082624D01*
X0105469Y0082661D01*
X0105448Y0082700D01*
X0105431Y0082741D01*
X0105418Y0082783D01*
X0105408Y0082826D01*
X0105402Y0082870D01*
X0105400Y0082914D01*
X0105900Y0082914D02*
X0105900Y0092914D01*
X0105400Y0092914D02*
X0105402Y0092958D01*
X0105408Y0093002D01*
X0105418Y0093045D01*
X0105431Y0093087D01*
X0105448Y0093128D01*
X0105469Y0093167D01*
X0105493Y0093204D01*
X0105520Y0093239D01*
X0105550Y0093271D01*
X0105583Y0093301D01*
X0105619Y0093327D01*
X0105656Y0093351D01*
X0105696Y0093370D01*
X0105737Y0093387D01*
X0105780Y0093399D01*
X0105823Y0093408D01*
X0105867Y0093413D01*
X0105911Y0093414D01*
X0105955Y0093411D01*
X0105999Y0093404D01*
X0106042Y0093393D01*
X0106084Y0093379D01*
X0106124Y0093361D01*
X0106163Y0093339D01*
X0106199Y0093315D01*
X0106233Y0093287D01*
X0106265Y0093256D01*
X0106294Y0093222D01*
X0106320Y0093186D01*
X0106342Y0093148D01*
X0106361Y0093108D01*
X0106376Y0093066D01*
X0106388Y0093024D01*
X0106396Y0092980D01*
X0106400Y0092936D01*
X0106400Y0092892D01*
X0106396Y0092848D01*
X0106388Y0092804D01*
X0106376Y0092762D01*
X0106361Y0092720D01*
X0106342Y0092680D01*
X0106320Y0092642D01*
X0106294Y0092606D01*
X0106265Y0092572D01*
X0106233Y0092541D01*
X0106199Y0092513D01*
X0106163Y0092489D01*
X0106124Y0092467D01*
X0106084Y0092449D01*
X0106042Y0092435D01*
X0105999Y0092424D01*
X0105955Y0092417D01*
X0105911Y0092414D01*
X0105867Y0092415D01*
X0105823Y0092420D01*
X0105780Y0092429D01*
X0105737Y0092441D01*
X0105696Y0092458D01*
X0105656Y0092477D01*
X0105619Y0092501D01*
X0105583Y0092527D01*
X0105550Y0092557D01*
X0105520Y0092589D01*
X0105493Y0092624D01*
X0105469Y0092661D01*
X0105448Y0092700D01*
X0105431Y0092741D01*
X0105418Y0092783D01*
X0105408Y0092826D01*
X0105402Y0092870D01*
X0105400Y0092914D01*
X0105882Y0104467D02*
X0104081Y0104467D01*
X0105882Y0106269D01*
X0105882Y0106719D01*
X0105432Y0107170D01*
X0104531Y0107170D01*
X0104081Y0106719D01*
X0102936Y0106719D02*
X0102485Y0107170D01*
X0101585Y0107170D01*
X0101134Y0106719D01*
X0101134Y0106269D01*
X0101585Y0105818D01*
X0102485Y0105818D01*
X0102936Y0105368D01*
X0102936Y0104918D01*
X0102485Y0104467D01*
X0101585Y0104467D01*
X0101134Y0104918D01*
X0125900Y0092914D02*
X0125900Y0082914D01*
X0125400Y0082914D02*
X0125402Y0082958D01*
X0125408Y0083002D01*
X0125418Y0083045D01*
X0125431Y0083087D01*
X0125448Y0083128D01*
X0125469Y0083167D01*
X0125493Y0083204D01*
X0125520Y0083239D01*
X0125550Y0083271D01*
X0125583Y0083301D01*
X0125619Y0083327D01*
X0125656Y0083351D01*
X0125696Y0083370D01*
X0125737Y0083387D01*
X0125780Y0083399D01*
X0125823Y0083408D01*
X0125867Y0083413D01*
X0125911Y0083414D01*
X0125955Y0083411D01*
X0125999Y0083404D01*
X0126042Y0083393D01*
X0126084Y0083379D01*
X0126124Y0083361D01*
X0126163Y0083339D01*
X0126199Y0083315D01*
X0126233Y0083287D01*
X0126265Y0083256D01*
X0126294Y0083222D01*
X0126320Y0083186D01*
X0126342Y0083148D01*
X0126361Y0083108D01*
X0126376Y0083066D01*
X0126388Y0083024D01*
X0126396Y0082980D01*
X0126400Y0082936D01*
X0126400Y0082892D01*
X0126396Y0082848D01*
X0126388Y0082804D01*
X0126376Y0082762D01*
X0126361Y0082720D01*
X0126342Y0082680D01*
X0126320Y0082642D01*
X0126294Y0082606D01*
X0126265Y0082572D01*
X0126233Y0082541D01*
X0126199Y0082513D01*
X0126163Y0082489D01*
X0126124Y0082467D01*
X0126084Y0082449D01*
X0126042Y0082435D01*
X0125999Y0082424D01*
X0125955Y0082417D01*
X0125911Y0082414D01*
X0125867Y0082415D01*
X0125823Y0082420D01*
X0125780Y0082429D01*
X0125737Y0082441D01*
X0125696Y0082458D01*
X0125656Y0082477D01*
X0125619Y0082501D01*
X0125583Y0082527D01*
X0125550Y0082557D01*
X0125520Y0082589D01*
X0125493Y0082624D01*
X0125469Y0082661D01*
X0125448Y0082700D01*
X0125431Y0082741D01*
X0125418Y0082783D01*
X0125408Y0082826D01*
X0125402Y0082870D01*
X0125400Y0082914D01*
X0125400Y0092914D02*
X0125402Y0092958D01*
X0125408Y0093002D01*
X0125418Y0093045D01*
X0125431Y0093087D01*
X0125448Y0093128D01*
X0125469Y0093167D01*
X0125493Y0093204D01*
X0125520Y0093239D01*
X0125550Y0093271D01*
X0125583Y0093301D01*
X0125619Y0093327D01*
X0125656Y0093351D01*
X0125696Y0093370D01*
X0125737Y0093387D01*
X0125780Y0093399D01*
X0125823Y0093408D01*
X0125867Y0093413D01*
X0125911Y0093414D01*
X0125955Y0093411D01*
X0125999Y0093404D01*
X0126042Y0093393D01*
X0126084Y0093379D01*
X0126124Y0093361D01*
X0126163Y0093339D01*
X0126199Y0093315D01*
X0126233Y0093287D01*
X0126265Y0093256D01*
X0126294Y0093222D01*
X0126320Y0093186D01*
X0126342Y0093148D01*
X0126361Y0093108D01*
X0126376Y0093066D01*
X0126388Y0093024D01*
X0126396Y0092980D01*
X0126400Y0092936D01*
X0126400Y0092892D01*
X0126396Y0092848D01*
X0126388Y0092804D01*
X0126376Y0092762D01*
X0126361Y0092720D01*
X0126342Y0092680D01*
X0126320Y0092642D01*
X0126294Y0092606D01*
X0126265Y0092572D01*
X0126233Y0092541D01*
X0126199Y0092513D01*
X0126163Y0092489D01*
X0126124Y0092467D01*
X0126084Y0092449D01*
X0126042Y0092435D01*
X0125999Y0092424D01*
X0125955Y0092417D01*
X0125911Y0092414D01*
X0125867Y0092415D01*
X0125823Y0092420D01*
X0125780Y0092429D01*
X0125737Y0092441D01*
X0125696Y0092458D01*
X0125656Y0092477D01*
X0125619Y0092501D01*
X0125583Y0092527D01*
X0125550Y0092557D01*
X0125520Y0092589D01*
X0125493Y0092624D01*
X0125469Y0092661D01*
X0125448Y0092700D01*
X0125431Y0092741D01*
X0125418Y0092783D01*
X0125408Y0092826D01*
X0125402Y0092870D01*
X0125400Y0092914D01*
X0161884Y0117087D02*
X0161884Y0066339D01*
X0174798Y0066339D01*
X0174955Y0066351D02*
X0187955Y0066351D01*
X0187955Y0116851D01*
X0187987Y0117087D02*
X0174955Y0117087D01*
X0174837Y0117087D02*
X0161884Y0117087D01*
X0219010Y0102914D02*
X0219010Y0072914D01*
X0249010Y0072914D01*
X0249010Y0102914D01*
X0239010Y0102914D01*
X0239010Y0107914D02*
X0229010Y0102914D01*
X0219010Y0102914D01*
X0221474Y0105129D02*
X0221024Y0105579D01*
X0221474Y0105129D02*
X0222375Y0105129D01*
X0222826Y0105579D01*
X0222826Y0106030D01*
X0222375Y0106480D01*
X0221474Y0106480D01*
X0221024Y0106930D01*
X0221024Y0107381D01*
X0221474Y0107831D01*
X0222375Y0107831D01*
X0222826Y0107381D01*
X0223971Y0106480D02*
X0225772Y0106480D01*
X0225322Y0107831D02*
X0223971Y0106480D01*
X0225322Y0105129D02*
X0225322Y0107831D01*
X0223510Y0092914D02*
X0223512Y0092958D01*
X0223518Y0093002D01*
X0223528Y0093045D01*
X0223541Y0093087D01*
X0223558Y0093128D01*
X0223579Y0093167D01*
X0223603Y0093204D01*
X0223630Y0093239D01*
X0223660Y0093271D01*
X0223693Y0093301D01*
X0223729Y0093327D01*
X0223766Y0093351D01*
X0223806Y0093370D01*
X0223847Y0093387D01*
X0223890Y0093399D01*
X0223933Y0093408D01*
X0223977Y0093413D01*
X0224021Y0093414D01*
X0224065Y0093411D01*
X0224109Y0093404D01*
X0224152Y0093393D01*
X0224194Y0093379D01*
X0224234Y0093361D01*
X0224273Y0093339D01*
X0224309Y0093315D01*
X0224343Y0093287D01*
X0224375Y0093256D01*
X0224404Y0093222D01*
X0224430Y0093186D01*
X0224452Y0093148D01*
X0224471Y0093108D01*
X0224486Y0093066D01*
X0224498Y0093024D01*
X0224506Y0092980D01*
X0224510Y0092936D01*
X0224510Y0092892D01*
X0224506Y0092848D01*
X0224498Y0092804D01*
X0224486Y0092762D01*
X0224471Y0092720D01*
X0224452Y0092680D01*
X0224430Y0092642D01*
X0224404Y0092606D01*
X0224375Y0092572D01*
X0224343Y0092541D01*
X0224309Y0092513D01*
X0224273Y0092489D01*
X0224234Y0092467D01*
X0224194Y0092449D01*
X0224152Y0092435D01*
X0224109Y0092424D01*
X0224065Y0092417D01*
X0224021Y0092414D01*
X0223977Y0092415D01*
X0223933Y0092420D01*
X0223890Y0092429D01*
X0223847Y0092441D01*
X0223806Y0092458D01*
X0223766Y0092477D01*
X0223729Y0092501D01*
X0223693Y0092527D01*
X0223660Y0092557D01*
X0223630Y0092589D01*
X0223603Y0092624D01*
X0223579Y0092661D01*
X0223558Y0092700D01*
X0223541Y0092741D01*
X0223528Y0092783D01*
X0223518Y0092826D01*
X0223512Y0092870D01*
X0223510Y0092914D01*
X0224010Y0092914D02*
X0224010Y0082914D01*
X0223510Y0082914D02*
X0223512Y0082958D01*
X0223518Y0083002D01*
X0223528Y0083045D01*
X0223541Y0083087D01*
X0223558Y0083128D01*
X0223579Y0083167D01*
X0223603Y0083204D01*
X0223630Y0083239D01*
X0223660Y0083271D01*
X0223693Y0083301D01*
X0223729Y0083327D01*
X0223766Y0083351D01*
X0223806Y0083370D01*
X0223847Y0083387D01*
X0223890Y0083399D01*
X0223933Y0083408D01*
X0223977Y0083413D01*
X0224021Y0083414D01*
X0224065Y0083411D01*
X0224109Y0083404D01*
X0224152Y0083393D01*
X0224194Y0083379D01*
X0224234Y0083361D01*
X0224273Y0083339D01*
X0224309Y0083315D01*
X0224343Y0083287D01*
X0224375Y0083256D01*
X0224404Y0083222D01*
X0224430Y0083186D01*
X0224452Y0083148D01*
X0224471Y0083108D01*
X0224486Y0083066D01*
X0224498Y0083024D01*
X0224506Y0082980D01*
X0224510Y0082936D01*
X0224510Y0082892D01*
X0224506Y0082848D01*
X0224498Y0082804D01*
X0224486Y0082762D01*
X0224471Y0082720D01*
X0224452Y0082680D01*
X0224430Y0082642D01*
X0224404Y0082606D01*
X0224375Y0082572D01*
X0224343Y0082541D01*
X0224309Y0082513D01*
X0224273Y0082489D01*
X0224234Y0082467D01*
X0224194Y0082449D01*
X0224152Y0082435D01*
X0224109Y0082424D01*
X0224065Y0082417D01*
X0224021Y0082414D01*
X0223977Y0082415D01*
X0223933Y0082420D01*
X0223890Y0082429D01*
X0223847Y0082441D01*
X0223806Y0082458D01*
X0223766Y0082477D01*
X0223729Y0082501D01*
X0223693Y0082527D01*
X0223660Y0082557D01*
X0223630Y0082589D01*
X0223603Y0082624D01*
X0223579Y0082661D01*
X0223558Y0082700D01*
X0223541Y0082741D01*
X0223528Y0082783D01*
X0223518Y0082826D01*
X0223512Y0082870D01*
X0223510Y0082914D01*
X0243510Y0082914D02*
X0243512Y0082958D01*
X0243518Y0083002D01*
X0243528Y0083045D01*
X0243541Y0083087D01*
X0243558Y0083128D01*
X0243579Y0083167D01*
X0243603Y0083204D01*
X0243630Y0083239D01*
X0243660Y0083271D01*
X0243693Y0083301D01*
X0243729Y0083327D01*
X0243766Y0083351D01*
X0243806Y0083370D01*
X0243847Y0083387D01*
X0243890Y0083399D01*
X0243933Y0083408D01*
X0243977Y0083413D01*
X0244021Y0083414D01*
X0244065Y0083411D01*
X0244109Y0083404D01*
X0244152Y0083393D01*
X0244194Y0083379D01*
X0244234Y0083361D01*
X0244273Y0083339D01*
X0244309Y0083315D01*
X0244343Y0083287D01*
X0244375Y0083256D01*
X0244404Y0083222D01*
X0244430Y0083186D01*
X0244452Y0083148D01*
X0244471Y0083108D01*
X0244486Y0083066D01*
X0244498Y0083024D01*
X0244506Y0082980D01*
X0244510Y0082936D01*
X0244510Y0082892D01*
X0244506Y0082848D01*
X0244498Y0082804D01*
X0244486Y0082762D01*
X0244471Y0082720D01*
X0244452Y0082680D01*
X0244430Y0082642D01*
X0244404Y0082606D01*
X0244375Y0082572D01*
X0244343Y0082541D01*
X0244309Y0082513D01*
X0244273Y0082489D01*
X0244234Y0082467D01*
X0244194Y0082449D01*
X0244152Y0082435D01*
X0244109Y0082424D01*
X0244065Y0082417D01*
X0244021Y0082414D01*
X0243977Y0082415D01*
X0243933Y0082420D01*
X0243890Y0082429D01*
X0243847Y0082441D01*
X0243806Y0082458D01*
X0243766Y0082477D01*
X0243729Y0082501D01*
X0243693Y0082527D01*
X0243660Y0082557D01*
X0243630Y0082589D01*
X0243603Y0082624D01*
X0243579Y0082661D01*
X0243558Y0082700D01*
X0243541Y0082741D01*
X0243528Y0082783D01*
X0243518Y0082826D01*
X0243512Y0082870D01*
X0243510Y0082914D01*
X0244010Y0082914D02*
X0244010Y0092914D01*
X0243510Y0092914D02*
X0243512Y0092958D01*
X0243518Y0093002D01*
X0243528Y0093045D01*
X0243541Y0093087D01*
X0243558Y0093128D01*
X0243579Y0093167D01*
X0243603Y0093204D01*
X0243630Y0093239D01*
X0243660Y0093271D01*
X0243693Y0093301D01*
X0243729Y0093327D01*
X0243766Y0093351D01*
X0243806Y0093370D01*
X0243847Y0093387D01*
X0243890Y0093399D01*
X0243933Y0093408D01*
X0243977Y0093413D01*
X0244021Y0093414D01*
X0244065Y0093411D01*
X0244109Y0093404D01*
X0244152Y0093393D01*
X0244194Y0093379D01*
X0244234Y0093361D01*
X0244273Y0093339D01*
X0244309Y0093315D01*
X0244343Y0093287D01*
X0244375Y0093256D01*
X0244404Y0093222D01*
X0244430Y0093186D01*
X0244452Y0093148D01*
X0244471Y0093108D01*
X0244486Y0093066D01*
X0244498Y0093024D01*
X0244506Y0092980D01*
X0244510Y0092936D01*
X0244510Y0092892D01*
X0244506Y0092848D01*
X0244498Y0092804D01*
X0244486Y0092762D01*
X0244471Y0092720D01*
X0244452Y0092680D01*
X0244430Y0092642D01*
X0244404Y0092606D01*
X0244375Y0092572D01*
X0244343Y0092541D01*
X0244309Y0092513D01*
X0244273Y0092489D01*
X0244234Y0092467D01*
X0244194Y0092449D01*
X0244152Y0092435D01*
X0244109Y0092424D01*
X0244065Y0092417D01*
X0244021Y0092414D01*
X0243977Y0092415D01*
X0243933Y0092420D01*
X0243890Y0092429D01*
X0243847Y0092441D01*
X0243806Y0092458D01*
X0243766Y0092477D01*
X0243729Y0092501D01*
X0243693Y0092527D01*
X0243660Y0092557D01*
X0243630Y0092589D01*
X0243603Y0092624D01*
X0243579Y0092661D01*
X0243558Y0092700D01*
X0243541Y0092741D01*
X0243528Y0092783D01*
X0243518Y0092826D01*
X0243512Y0092870D01*
X0243510Y0092914D01*
X0269294Y0080855D02*
X0271996Y0080855D01*
X0271996Y0079954D02*
X0271996Y0081756D01*
X0274315Y0081851D02*
X0274315Y0067351D01*
X0311815Y0067351D01*
X0311815Y0081851D01*
X0311815Y0101851D02*
X0311815Y0110601D01*
X0311815Y0110851D02*
X0274315Y0110851D01*
X0274315Y0110601D02*
X0274315Y0101851D01*
X0285065Y0091851D02*
X0285067Y0092047D01*
X0285075Y0092244D01*
X0285087Y0092440D01*
X0285104Y0092635D01*
X0285125Y0092830D01*
X0285152Y0093025D01*
X0285183Y0093219D01*
X0285219Y0093412D01*
X0285259Y0093604D01*
X0285305Y0093795D01*
X0285355Y0093985D01*
X0285409Y0094173D01*
X0285469Y0094360D01*
X0285533Y0094546D01*
X0285601Y0094730D01*
X0285674Y0094912D01*
X0285751Y0095093D01*
X0285833Y0095271D01*
X0285919Y0095448D01*
X0286010Y0095622D01*
X0286104Y0095794D01*
X0286203Y0095964D01*
X0286306Y0096131D01*
X0286413Y0096296D01*
X0286524Y0096457D01*
X0286639Y0096617D01*
X0286758Y0096773D01*
X0286881Y0096926D01*
X0287007Y0097076D01*
X0287137Y0097223D01*
X0287271Y0097367D01*
X0287408Y0097508D01*
X0287549Y0097645D01*
X0287693Y0097779D01*
X0287840Y0097909D01*
X0287990Y0098035D01*
X0288143Y0098158D01*
X0288299Y0098277D01*
X0288459Y0098392D01*
X0288620Y0098503D01*
X0288785Y0098610D01*
X0288952Y0098713D01*
X0289122Y0098812D01*
X0289294Y0098906D01*
X0289468Y0098997D01*
X0289645Y0099083D01*
X0289823Y0099165D01*
X0290004Y0099242D01*
X0290186Y0099315D01*
X0290370Y0099383D01*
X0290556Y0099447D01*
X0290743Y0099507D01*
X0290931Y0099561D01*
X0291121Y0099611D01*
X0291312Y0099657D01*
X0291504Y0099697D01*
X0291697Y0099733D01*
X0291891Y0099764D01*
X0292086Y0099791D01*
X0292281Y0099812D01*
X0292476Y0099829D01*
X0292672Y0099841D01*
X0292869Y0099849D01*
X0293065Y0099851D01*
X0293261Y0099849D01*
X0293458Y0099841D01*
X0293654Y0099829D01*
X0293849Y0099812D01*
X0294044Y0099791D01*
X0294239Y0099764D01*
X0294433Y0099733D01*
X0294626Y0099697D01*
X0294818Y0099657D01*
X0295009Y0099611D01*
X0295199Y0099561D01*
X0295387Y0099507D01*
X0295574Y0099447D01*
X0295760Y0099383D01*
X0295944Y0099315D01*
X0296126Y0099242D01*
X0296307Y0099165D01*
X0296485Y0099083D01*
X0296662Y0098997D01*
X0296836Y0098906D01*
X0297008Y0098812D01*
X0297178Y0098713D01*
X0297345Y0098610D01*
X0297510Y0098503D01*
X0297671Y0098392D01*
X0297831Y0098277D01*
X0297987Y0098158D01*
X0298140Y0098035D01*
X0298290Y0097909D01*
X0298437Y0097779D01*
X0298581Y0097645D01*
X0298722Y0097508D01*
X0298859Y0097367D01*
X0298993Y0097223D01*
X0299123Y0097076D01*
X0299249Y0096926D01*
X0299372Y0096773D01*
X0299491Y0096617D01*
X0299606Y0096457D01*
X0299717Y0096296D01*
X0299824Y0096131D01*
X0299927Y0095964D01*
X0300026Y0095794D01*
X0300120Y0095622D01*
X0300211Y0095448D01*
X0300297Y0095271D01*
X0300379Y0095093D01*
X0300456Y0094912D01*
X0300529Y0094730D01*
X0300597Y0094546D01*
X0300661Y0094360D01*
X0300721Y0094173D01*
X0300775Y0093985D01*
X0300825Y0093795D01*
X0300871Y0093604D01*
X0300911Y0093412D01*
X0300947Y0093219D01*
X0300978Y0093025D01*
X0301005Y0092830D01*
X0301026Y0092635D01*
X0301043Y0092440D01*
X0301055Y0092244D01*
X0301063Y0092047D01*
X0301065Y0091851D01*
X0301063Y0091655D01*
X0301055Y0091458D01*
X0301043Y0091262D01*
X0301026Y0091067D01*
X0301005Y0090872D01*
X0300978Y0090677D01*
X0300947Y0090483D01*
X0300911Y0090290D01*
X0300871Y0090098D01*
X0300825Y0089907D01*
X0300775Y0089717D01*
X0300721Y0089529D01*
X0300661Y0089342D01*
X0300597Y0089156D01*
X0300529Y0088972D01*
X0300456Y0088790D01*
X0300379Y0088609D01*
X0300297Y0088431D01*
X0300211Y0088254D01*
X0300120Y0088080D01*
X0300026Y0087908D01*
X0299927Y0087738D01*
X0299824Y0087571D01*
X0299717Y0087406D01*
X0299606Y0087245D01*
X0299491Y0087085D01*
X0299372Y0086929D01*
X0299249Y0086776D01*
X0299123Y0086626D01*
X0298993Y0086479D01*
X0298859Y0086335D01*
X0298722Y0086194D01*
X0298581Y0086057D01*
X0298437Y0085923D01*
X0298290Y0085793D01*
X0298140Y0085667D01*
X0297987Y0085544D01*
X0297831Y0085425D01*
X0297671Y0085310D01*
X0297510Y0085199D01*
X0297345Y0085092D01*
X0297178Y0084989D01*
X0297008Y0084890D01*
X0296836Y0084796D01*
X0296662Y0084705D01*
X0296485Y0084619D01*
X0296307Y0084537D01*
X0296126Y0084460D01*
X0295944Y0084387D01*
X0295760Y0084319D01*
X0295574Y0084255D01*
X0295387Y0084195D01*
X0295199Y0084141D01*
X0295009Y0084091D01*
X0294818Y0084045D01*
X0294626Y0084005D01*
X0294433Y0083969D01*
X0294239Y0083938D01*
X0294044Y0083911D01*
X0293849Y0083890D01*
X0293654Y0083873D01*
X0293458Y0083861D01*
X0293261Y0083853D01*
X0293065Y0083851D01*
X0292869Y0083853D01*
X0292672Y0083861D01*
X0292476Y0083873D01*
X0292281Y0083890D01*
X0292086Y0083911D01*
X0291891Y0083938D01*
X0291697Y0083969D01*
X0291504Y0084005D01*
X0291312Y0084045D01*
X0291121Y0084091D01*
X0290931Y0084141D01*
X0290743Y0084195D01*
X0290556Y0084255D01*
X0290370Y0084319D01*
X0290186Y0084387D01*
X0290004Y0084460D01*
X0289823Y0084537D01*
X0289645Y0084619D01*
X0289468Y0084705D01*
X0289294Y0084796D01*
X0289122Y0084890D01*
X0288952Y0084989D01*
X0288785Y0085092D01*
X0288620Y0085199D01*
X0288459Y0085310D01*
X0288299Y0085425D01*
X0288143Y0085544D01*
X0287990Y0085667D01*
X0287840Y0085793D01*
X0287693Y0085923D01*
X0287549Y0086057D01*
X0287408Y0086194D01*
X0287271Y0086335D01*
X0287137Y0086479D01*
X0287007Y0086626D01*
X0286881Y0086776D01*
X0286758Y0086929D01*
X0286639Y0087085D01*
X0286524Y0087245D01*
X0286413Y0087406D01*
X0286306Y0087571D01*
X0286203Y0087738D01*
X0286104Y0087908D01*
X0286010Y0088080D01*
X0285919Y0088254D01*
X0285833Y0088431D01*
X0285751Y0088609D01*
X0285674Y0088790D01*
X0285601Y0088972D01*
X0285533Y0089156D01*
X0285469Y0089342D01*
X0285409Y0089529D01*
X0285355Y0089717D01*
X0285305Y0089907D01*
X0285259Y0090098D01*
X0285219Y0090290D01*
X0285183Y0090483D01*
X0285152Y0090677D01*
X0285125Y0090872D01*
X0285104Y0091067D01*
X0285087Y0091262D01*
X0285075Y0091458D01*
X0285067Y0091655D01*
X0285065Y0091851D01*
X0271996Y0078359D02*
X0271996Y0077008D01*
X0269294Y0077008D01*
X0269294Y0078359D01*
X0269745Y0078809D01*
X0270195Y0078809D01*
X0270645Y0078359D01*
X0270645Y0077008D01*
X0270645Y0078359D02*
X0271096Y0078809D01*
X0271546Y0078809D01*
X0271996Y0078359D01*
X0270195Y0079954D02*
X0269294Y0080855D01*
X0269745Y0075863D02*
X0269294Y0075412D01*
X0269294Y0074512D01*
X0269745Y0074061D01*
X0271546Y0074061D01*
X0271996Y0074512D01*
X0271996Y0075412D01*
X0271546Y0075863D01*
X0269745Y0075863D01*
X0269294Y0072916D02*
X0271996Y0072916D01*
X0269294Y0071115D01*
X0271996Y0071115D01*
X0271996Y0069970D02*
X0270645Y0068618D01*
X0271096Y0068168D02*
X0269294Y0069970D01*
X0269294Y0068168D02*
X0271996Y0068168D01*
X0249010Y0202835D02*
X0219010Y0202835D01*
X0219010Y0232835D01*
X0229010Y0232835D01*
X0239010Y0237835D01*
X0239010Y0232835D02*
X0249010Y0232835D01*
X0249010Y0202835D01*
X0243510Y0212835D02*
X0243512Y0212879D01*
X0243518Y0212923D01*
X0243528Y0212966D01*
X0243541Y0213008D01*
X0243558Y0213049D01*
X0243579Y0213088D01*
X0243603Y0213125D01*
X0243630Y0213160D01*
X0243660Y0213192D01*
X0243693Y0213222D01*
X0243729Y0213248D01*
X0243766Y0213272D01*
X0243806Y0213291D01*
X0243847Y0213308D01*
X0243890Y0213320D01*
X0243933Y0213329D01*
X0243977Y0213334D01*
X0244021Y0213335D01*
X0244065Y0213332D01*
X0244109Y0213325D01*
X0244152Y0213314D01*
X0244194Y0213300D01*
X0244234Y0213282D01*
X0244273Y0213260D01*
X0244309Y0213236D01*
X0244343Y0213208D01*
X0244375Y0213177D01*
X0244404Y0213143D01*
X0244430Y0213107D01*
X0244452Y0213069D01*
X0244471Y0213029D01*
X0244486Y0212987D01*
X0244498Y0212945D01*
X0244506Y0212901D01*
X0244510Y0212857D01*
X0244510Y0212813D01*
X0244506Y0212769D01*
X0244498Y0212725D01*
X0244486Y0212683D01*
X0244471Y0212641D01*
X0244452Y0212601D01*
X0244430Y0212563D01*
X0244404Y0212527D01*
X0244375Y0212493D01*
X0244343Y0212462D01*
X0244309Y0212434D01*
X0244273Y0212410D01*
X0244234Y0212388D01*
X0244194Y0212370D01*
X0244152Y0212356D01*
X0244109Y0212345D01*
X0244065Y0212338D01*
X0244021Y0212335D01*
X0243977Y0212336D01*
X0243933Y0212341D01*
X0243890Y0212350D01*
X0243847Y0212362D01*
X0243806Y0212379D01*
X0243766Y0212398D01*
X0243729Y0212422D01*
X0243693Y0212448D01*
X0243660Y0212478D01*
X0243630Y0212510D01*
X0243603Y0212545D01*
X0243579Y0212582D01*
X0243558Y0212621D01*
X0243541Y0212662D01*
X0243528Y0212704D01*
X0243518Y0212747D01*
X0243512Y0212791D01*
X0243510Y0212835D01*
X0244010Y0212835D02*
X0244010Y0222835D01*
X0243510Y0222835D02*
X0243512Y0222879D01*
X0243518Y0222923D01*
X0243528Y0222966D01*
X0243541Y0223008D01*
X0243558Y0223049D01*
X0243579Y0223088D01*
X0243603Y0223125D01*
X0243630Y0223160D01*
X0243660Y0223192D01*
X0243693Y0223222D01*
X0243729Y0223248D01*
X0243766Y0223272D01*
X0243806Y0223291D01*
X0243847Y0223308D01*
X0243890Y0223320D01*
X0243933Y0223329D01*
X0243977Y0223334D01*
X0244021Y0223335D01*
X0244065Y0223332D01*
X0244109Y0223325D01*
X0244152Y0223314D01*
X0244194Y0223300D01*
X0244234Y0223282D01*
X0244273Y0223260D01*
X0244309Y0223236D01*
X0244343Y0223208D01*
X0244375Y0223177D01*
X0244404Y0223143D01*
X0244430Y0223107D01*
X0244452Y0223069D01*
X0244471Y0223029D01*
X0244486Y0222987D01*
X0244498Y0222945D01*
X0244506Y0222901D01*
X0244510Y0222857D01*
X0244510Y0222813D01*
X0244506Y0222769D01*
X0244498Y0222725D01*
X0244486Y0222683D01*
X0244471Y0222641D01*
X0244452Y0222601D01*
X0244430Y0222563D01*
X0244404Y0222527D01*
X0244375Y0222493D01*
X0244343Y0222462D01*
X0244309Y0222434D01*
X0244273Y0222410D01*
X0244234Y0222388D01*
X0244194Y0222370D01*
X0244152Y0222356D01*
X0244109Y0222345D01*
X0244065Y0222338D01*
X0244021Y0222335D01*
X0243977Y0222336D01*
X0243933Y0222341D01*
X0243890Y0222350D01*
X0243847Y0222362D01*
X0243806Y0222379D01*
X0243766Y0222398D01*
X0243729Y0222422D01*
X0243693Y0222448D01*
X0243660Y0222478D01*
X0243630Y0222510D01*
X0243603Y0222545D01*
X0243579Y0222582D01*
X0243558Y0222621D01*
X0243541Y0222662D01*
X0243528Y0222704D01*
X0243518Y0222747D01*
X0243512Y0222791D01*
X0243510Y0222835D01*
X0224010Y0222835D02*
X0224010Y0212835D01*
X0223510Y0212835D02*
X0223512Y0212879D01*
X0223518Y0212923D01*
X0223528Y0212966D01*
X0223541Y0213008D01*
X0223558Y0213049D01*
X0223579Y0213088D01*
X0223603Y0213125D01*
X0223630Y0213160D01*
X0223660Y0213192D01*
X0223693Y0213222D01*
X0223729Y0213248D01*
X0223766Y0213272D01*
X0223806Y0213291D01*
X0223847Y0213308D01*
X0223890Y0213320D01*
X0223933Y0213329D01*
X0223977Y0213334D01*
X0224021Y0213335D01*
X0224065Y0213332D01*
X0224109Y0213325D01*
X0224152Y0213314D01*
X0224194Y0213300D01*
X0224234Y0213282D01*
X0224273Y0213260D01*
X0224309Y0213236D01*
X0224343Y0213208D01*
X0224375Y0213177D01*
X0224404Y0213143D01*
X0224430Y0213107D01*
X0224452Y0213069D01*
X0224471Y0213029D01*
X0224486Y0212987D01*
X0224498Y0212945D01*
X0224506Y0212901D01*
X0224510Y0212857D01*
X0224510Y0212813D01*
X0224506Y0212769D01*
X0224498Y0212725D01*
X0224486Y0212683D01*
X0224471Y0212641D01*
X0224452Y0212601D01*
X0224430Y0212563D01*
X0224404Y0212527D01*
X0224375Y0212493D01*
X0224343Y0212462D01*
X0224309Y0212434D01*
X0224273Y0212410D01*
X0224234Y0212388D01*
X0224194Y0212370D01*
X0224152Y0212356D01*
X0224109Y0212345D01*
X0224065Y0212338D01*
X0224021Y0212335D01*
X0223977Y0212336D01*
X0223933Y0212341D01*
X0223890Y0212350D01*
X0223847Y0212362D01*
X0223806Y0212379D01*
X0223766Y0212398D01*
X0223729Y0212422D01*
X0223693Y0212448D01*
X0223660Y0212478D01*
X0223630Y0212510D01*
X0223603Y0212545D01*
X0223579Y0212582D01*
X0223558Y0212621D01*
X0223541Y0212662D01*
X0223528Y0212704D01*
X0223518Y0212747D01*
X0223512Y0212791D01*
X0223510Y0212835D01*
X0223510Y0222835D02*
X0223512Y0222879D01*
X0223518Y0222923D01*
X0223528Y0222966D01*
X0223541Y0223008D01*
X0223558Y0223049D01*
X0223579Y0223088D01*
X0223603Y0223125D01*
X0223630Y0223160D01*
X0223660Y0223192D01*
X0223693Y0223222D01*
X0223729Y0223248D01*
X0223766Y0223272D01*
X0223806Y0223291D01*
X0223847Y0223308D01*
X0223890Y0223320D01*
X0223933Y0223329D01*
X0223977Y0223334D01*
X0224021Y0223335D01*
X0224065Y0223332D01*
X0224109Y0223325D01*
X0224152Y0223314D01*
X0224194Y0223300D01*
X0224234Y0223282D01*
X0224273Y0223260D01*
X0224309Y0223236D01*
X0224343Y0223208D01*
X0224375Y0223177D01*
X0224404Y0223143D01*
X0224430Y0223107D01*
X0224452Y0223069D01*
X0224471Y0223029D01*
X0224486Y0222987D01*
X0224498Y0222945D01*
X0224506Y0222901D01*
X0224510Y0222857D01*
X0224510Y0222813D01*
X0224506Y0222769D01*
X0224498Y0222725D01*
X0224486Y0222683D01*
X0224471Y0222641D01*
X0224452Y0222601D01*
X0224430Y0222563D01*
X0224404Y0222527D01*
X0224375Y0222493D01*
X0224343Y0222462D01*
X0224309Y0222434D01*
X0224273Y0222410D01*
X0224234Y0222388D01*
X0224194Y0222370D01*
X0224152Y0222356D01*
X0224109Y0222345D01*
X0224065Y0222338D01*
X0224021Y0222335D01*
X0223977Y0222336D01*
X0223933Y0222341D01*
X0223890Y0222350D01*
X0223847Y0222362D01*
X0223806Y0222379D01*
X0223766Y0222398D01*
X0223729Y0222422D01*
X0223693Y0222448D01*
X0223660Y0222478D01*
X0223630Y0222510D01*
X0223603Y0222545D01*
X0223579Y0222582D01*
X0223558Y0222621D01*
X0223541Y0222662D01*
X0223528Y0222704D01*
X0223518Y0222747D01*
X0223512Y0222791D01*
X0223510Y0222835D01*
X0223609Y0234735D02*
X0222708Y0234735D01*
X0222258Y0235185D01*
X0221113Y0235185D02*
X0220663Y0234735D01*
X0219762Y0234735D01*
X0219311Y0235185D01*
X0219762Y0236086D02*
X0220663Y0236086D01*
X0221113Y0235636D01*
X0221113Y0235185D01*
X0219762Y0236086D02*
X0219311Y0236537D01*
X0219311Y0236987D01*
X0219762Y0237437D01*
X0220663Y0237437D01*
X0221113Y0236987D01*
X0222258Y0236987D02*
X0222708Y0237437D01*
X0223609Y0237437D01*
X0224059Y0236987D01*
X0224059Y0236537D01*
X0223609Y0236086D01*
X0224059Y0235636D01*
X0224059Y0235185D01*
X0223609Y0234735D01*
X0223609Y0236086D02*
X0223159Y0236086D01*
X0184102Y0312337D02*
X0184102Y0314139D01*
X0183201Y0313238D02*
X0185003Y0313238D01*
X0184063Y0324857D02*
X0184063Y0326659D01*
X0273164Y0325329D02*
X0273164Y0324428D01*
X0273615Y0323978D01*
X0273615Y0322833D02*
X0274065Y0322833D01*
X0274515Y0322382D01*
X0274515Y0321031D01*
X0273164Y0321031D02*
X0275867Y0321031D01*
X0275867Y0322382D01*
X0275416Y0322833D01*
X0274966Y0322833D01*
X0274515Y0322382D01*
X0273615Y0322833D02*
X0273164Y0322382D01*
X0273164Y0321031D01*
X0273615Y0319886D02*
X0273164Y0319436D01*
X0273164Y0318535D01*
X0273615Y0318085D01*
X0275416Y0318085D01*
X0275867Y0318535D01*
X0275867Y0319436D01*
X0275416Y0319886D01*
X0273615Y0319886D01*
X0273164Y0316940D02*
X0275867Y0316940D01*
X0273164Y0315138D01*
X0275867Y0315138D01*
X0275867Y0313993D02*
X0274515Y0312642D01*
X0274966Y0312192D02*
X0273164Y0313993D01*
X0273164Y0312192D02*
X0275867Y0312192D01*
X0278252Y0311446D02*
X0278252Y0325946D01*
X0275867Y0325779D02*
X0275867Y0323978D01*
X0274065Y0325779D01*
X0273615Y0325779D01*
X0273164Y0325329D01*
X0278252Y0311446D02*
X0315752Y0311446D01*
X0315752Y0325946D01*
X0315752Y0345946D02*
X0315752Y0354696D01*
X0315752Y0354946D02*
X0278252Y0354946D01*
X0278252Y0354696D02*
X0278252Y0345946D01*
X0289002Y0335946D02*
X0289004Y0336142D01*
X0289012Y0336339D01*
X0289024Y0336535D01*
X0289041Y0336730D01*
X0289062Y0336925D01*
X0289089Y0337120D01*
X0289120Y0337314D01*
X0289156Y0337507D01*
X0289196Y0337699D01*
X0289242Y0337890D01*
X0289292Y0338080D01*
X0289346Y0338268D01*
X0289406Y0338455D01*
X0289470Y0338641D01*
X0289538Y0338825D01*
X0289611Y0339007D01*
X0289688Y0339188D01*
X0289770Y0339366D01*
X0289856Y0339543D01*
X0289947Y0339717D01*
X0290041Y0339889D01*
X0290140Y0340059D01*
X0290243Y0340226D01*
X0290350Y0340391D01*
X0290461Y0340552D01*
X0290576Y0340712D01*
X0290695Y0340868D01*
X0290818Y0341021D01*
X0290944Y0341171D01*
X0291074Y0341318D01*
X0291208Y0341462D01*
X0291345Y0341603D01*
X0291486Y0341740D01*
X0291630Y0341874D01*
X0291777Y0342004D01*
X0291927Y0342130D01*
X0292080Y0342253D01*
X0292236Y0342372D01*
X0292396Y0342487D01*
X0292557Y0342598D01*
X0292722Y0342705D01*
X0292889Y0342808D01*
X0293059Y0342907D01*
X0293231Y0343001D01*
X0293405Y0343092D01*
X0293582Y0343178D01*
X0293760Y0343260D01*
X0293941Y0343337D01*
X0294123Y0343410D01*
X0294307Y0343478D01*
X0294493Y0343542D01*
X0294680Y0343602D01*
X0294868Y0343656D01*
X0295058Y0343706D01*
X0295249Y0343752D01*
X0295441Y0343792D01*
X0295634Y0343828D01*
X0295828Y0343859D01*
X0296023Y0343886D01*
X0296218Y0343907D01*
X0296413Y0343924D01*
X0296609Y0343936D01*
X0296806Y0343944D01*
X0297002Y0343946D01*
X0297198Y0343944D01*
X0297395Y0343936D01*
X0297591Y0343924D01*
X0297786Y0343907D01*
X0297981Y0343886D01*
X0298176Y0343859D01*
X0298370Y0343828D01*
X0298563Y0343792D01*
X0298755Y0343752D01*
X0298946Y0343706D01*
X0299136Y0343656D01*
X0299324Y0343602D01*
X0299511Y0343542D01*
X0299697Y0343478D01*
X0299881Y0343410D01*
X0300063Y0343337D01*
X0300244Y0343260D01*
X0300422Y0343178D01*
X0300599Y0343092D01*
X0300773Y0343001D01*
X0300945Y0342907D01*
X0301115Y0342808D01*
X0301282Y0342705D01*
X0301447Y0342598D01*
X0301608Y0342487D01*
X0301768Y0342372D01*
X0301924Y0342253D01*
X0302077Y0342130D01*
X0302227Y0342004D01*
X0302374Y0341874D01*
X0302518Y0341740D01*
X0302659Y0341603D01*
X0302796Y0341462D01*
X0302930Y0341318D01*
X0303060Y0341171D01*
X0303186Y0341021D01*
X0303309Y0340868D01*
X0303428Y0340712D01*
X0303543Y0340552D01*
X0303654Y0340391D01*
X0303761Y0340226D01*
X0303864Y0340059D01*
X0303963Y0339889D01*
X0304057Y0339717D01*
X0304148Y0339543D01*
X0304234Y0339366D01*
X0304316Y0339188D01*
X0304393Y0339007D01*
X0304466Y0338825D01*
X0304534Y0338641D01*
X0304598Y0338455D01*
X0304658Y0338268D01*
X0304712Y0338080D01*
X0304762Y0337890D01*
X0304808Y0337699D01*
X0304848Y0337507D01*
X0304884Y0337314D01*
X0304915Y0337120D01*
X0304942Y0336925D01*
X0304963Y0336730D01*
X0304980Y0336535D01*
X0304992Y0336339D01*
X0305000Y0336142D01*
X0305002Y0335946D01*
X0305000Y0335750D01*
X0304992Y0335553D01*
X0304980Y0335357D01*
X0304963Y0335162D01*
X0304942Y0334967D01*
X0304915Y0334772D01*
X0304884Y0334578D01*
X0304848Y0334385D01*
X0304808Y0334193D01*
X0304762Y0334002D01*
X0304712Y0333812D01*
X0304658Y0333624D01*
X0304598Y0333437D01*
X0304534Y0333251D01*
X0304466Y0333067D01*
X0304393Y0332885D01*
X0304316Y0332704D01*
X0304234Y0332526D01*
X0304148Y0332349D01*
X0304057Y0332175D01*
X0303963Y0332003D01*
X0303864Y0331833D01*
X0303761Y0331666D01*
X0303654Y0331501D01*
X0303543Y0331340D01*
X0303428Y0331180D01*
X0303309Y0331024D01*
X0303186Y0330871D01*
X0303060Y0330721D01*
X0302930Y0330574D01*
X0302796Y0330430D01*
X0302659Y0330289D01*
X0302518Y0330152D01*
X0302374Y0330018D01*
X0302227Y0329888D01*
X0302077Y0329762D01*
X0301924Y0329639D01*
X0301768Y0329520D01*
X0301608Y0329405D01*
X0301447Y0329294D01*
X0301282Y0329187D01*
X0301115Y0329084D01*
X0300945Y0328985D01*
X0300773Y0328891D01*
X0300599Y0328800D01*
X0300422Y0328714D01*
X0300244Y0328632D01*
X0300063Y0328555D01*
X0299881Y0328482D01*
X0299697Y0328414D01*
X0299511Y0328350D01*
X0299324Y0328290D01*
X0299136Y0328236D01*
X0298946Y0328186D01*
X0298755Y0328140D01*
X0298563Y0328100D01*
X0298370Y0328064D01*
X0298176Y0328033D01*
X0297981Y0328006D01*
X0297786Y0327985D01*
X0297591Y0327968D01*
X0297395Y0327956D01*
X0297198Y0327948D01*
X0297002Y0327946D01*
X0296806Y0327948D01*
X0296609Y0327956D01*
X0296413Y0327968D01*
X0296218Y0327985D01*
X0296023Y0328006D01*
X0295828Y0328033D01*
X0295634Y0328064D01*
X0295441Y0328100D01*
X0295249Y0328140D01*
X0295058Y0328186D01*
X0294868Y0328236D01*
X0294680Y0328290D01*
X0294493Y0328350D01*
X0294307Y0328414D01*
X0294123Y0328482D01*
X0293941Y0328555D01*
X0293760Y0328632D01*
X0293582Y0328714D01*
X0293405Y0328800D01*
X0293231Y0328891D01*
X0293059Y0328985D01*
X0292889Y0329084D01*
X0292722Y0329187D01*
X0292557Y0329294D01*
X0292396Y0329405D01*
X0292236Y0329520D01*
X0292080Y0329639D01*
X0291927Y0329762D01*
X0291777Y0329888D01*
X0291630Y0330018D01*
X0291486Y0330152D01*
X0291345Y0330289D01*
X0291208Y0330430D01*
X0291074Y0330574D01*
X0290944Y0330721D01*
X0290818Y0330871D01*
X0290695Y0331024D01*
X0290576Y0331180D01*
X0290461Y0331340D01*
X0290350Y0331501D01*
X0290243Y0331666D01*
X0290140Y0331833D01*
X0290041Y0332003D01*
X0289947Y0332175D01*
X0289856Y0332349D01*
X0289770Y0332526D01*
X0289688Y0332704D01*
X0289611Y0332885D01*
X0289538Y0333067D01*
X0289470Y0333251D01*
X0289406Y0333437D01*
X0289346Y0333624D01*
X0289292Y0333812D01*
X0289242Y0334002D01*
X0289196Y0334193D01*
X0289156Y0334385D01*
X0289120Y0334578D01*
X0289089Y0334772D01*
X0289062Y0334967D01*
X0289041Y0335162D01*
X0289024Y0335357D01*
X0289012Y0335553D01*
X0289004Y0335750D01*
X0289002Y0335946D01*
X0130900Y0232835D02*
X0130900Y0202835D01*
X0100900Y0202835D01*
X0100900Y0232835D01*
X0110900Y0232835D01*
X0120900Y0237835D01*
X0120900Y0232835D02*
X0130900Y0232835D01*
X0125400Y0222835D02*
X0125402Y0222879D01*
X0125408Y0222923D01*
X0125418Y0222966D01*
X0125431Y0223008D01*
X0125448Y0223049D01*
X0125469Y0223088D01*
X0125493Y0223125D01*
X0125520Y0223160D01*
X0125550Y0223192D01*
X0125583Y0223222D01*
X0125619Y0223248D01*
X0125656Y0223272D01*
X0125696Y0223291D01*
X0125737Y0223308D01*
X0125780Y0223320D01*
X0125823Y0223329D01*
X0125867Y0223334D01*
X0125911Y0223335D01*
X0125955Y0223332D01*
X0125999Y0223325D01*
X0126042Y0223314D01*
X0126084Y0223300D01*
X0126124Y0223282D01*
X0126163Y0223260D01*
X0126199Y0223236D01*
X0126233Y0223208D01*
X0126265Y0223177D01*
X0126294Y0223143D01*
X0126320Y0223107D01*
X0126342Y0223069D01*
X0126361Y0223029D01*
X0126376Y0222987D01*
X0126388Y0222945D01*
X0126396Y0222901D01*
X0126400Y0222857D01*
X0126400Y0222813D01*
X0126396Y0222769D01*
X0126388Y0222725D01*
X0126376Y0222683D01*
X0126361Y0222641D01*
X0126342Y0222601D01*
X0126320Y0222563D01*
X0126294Y0222527D01*
X0126265Y0222493D01*
X0126233Y0222462D01*
X0126199Y0222434D01*
X0126163Y0222410D01*
X0126124Y0222388D01*
X0126084Y0222370D01*
X0126042Y0222356D01*
X0125999Y0222345D01*
X0125955Y0222338D01*
X0125911Y0222335D01*
X0125867Y0222336D01*
X0125823Y0222341D01*
X0125780Y0222350D01*
X0125737Y0222362D01*
X0125696Y0222379D01*
X0125656Y0222398D01*
X0125619Y0222422D01*
X0125583Y0222448D01*
X0125550Y0222478D01*
X0125520Y0222510D01*
X0125493Y0222545D01*
X0125469Y0222582D01*
X0125448Y0222621D01*
X0125431Y0222662D01*
X0125418Y0222704D01*
X0125408Y0222747D01*
X0125402Y0222791D01*
X0125400Y0222835D01*
X0125900Y0222835D02*
X0125900Y0212835D01*
X0125400Y0212835D02*
X0125402Y0212879D01*
X0125408Y0212923D01*
X0125418Y0212966D01*
X0125431Y0213008D01*
X0125448Y0213049D01*
X0125469Y0213088D01*
X0125493Y0213125D01*
X0125520Y0213160D01*
X0125550Y0213192D01*
X0125583Y0213222D01*
X0125619Y0213248D01*
X0125656Y0213272D01*
X0125696Y0213291D01*
X0125737Y0213308D01*
X0125780Y0213320D01*
X0125823Y0213329D01*
X0125867Y0213334D01*
X0125911Y0213335D01*
X0125955Y0213332D01*
X0125999Y0213325D01*
X0126042Y0213314D01*
X0126084Y0213300D01*
X0126124Y0213282D01*
X0126163Y0213260D01*
X0126199Y0213236D01*
X0126233Y0213208D01*
X0126265Y0213177D01*
X0126294Y0213143D01*
X0126320Y0213107D01*
X0126342Y0213069D01*
X0126361Y0213029D01*
X0126376Y0212987D01*
X0126388Y0212945D01*
X0126396Y0212901D01*
X0126400Y0212857D01*
X0126400Y0212813D01*
X0126396Y0212769D01*
X0126388Y0212725D01*
X0126376Y0212683D01*
X0126361Y0212641D01*
X0126342Y0212601D01*
X0126320Y0212563D01*
X0126294Y0212527D01*
X0126265Y0212493D01*
X0126233Y0212462D01*
X0126199Y0212434D01*
X0126163Y0212410D01*
X0126124Y0212388D01*
X0126084Y0212370D01*
X0126042Y0212356D01*
X0125999Y0212345D01*
X0125955Y0212338D01*
X0125911Y0212335D01*
X0125867Y0212336D01*
X0125823Y0212341D01*
X0125780Y0212350D01*
X0125737Y0212362D01*
X0125696Y0212379D01*
X0125656Y0212398D01*
X0125619Y0212422D01*
X0125583Y0212448D01*
X0125550Y0212478D01*
X0125520Y0212510D01*
X0125493Y0212545D01*
X0125469Y0212582D01*
X0125448Y0212621D01*
X0125431Y0212662D01*
X0125418Y0212704D01*
X0125408Y0212747D01*
X0125402Y0212791D01*
X0125400Y0212835D01*
X0105400Y0212835D02*
X0105402Y0212879D01*
X0105408Y0212923D01*
X0105418Y0212966D01*
X0105431Y0213008D01*
X0105448Y0213049D01*
X0105469Y0213088D01*
X0105493Y0213125D01*
X0105520Y0213160D01*
X0105550Y0213192D01*
X0105583Y0213222D01*
X0105619Y0213248D01*
X0105656Y0213272D01*
X0105696Y0213291D01*
X0105737Y0213308D01*
X0105780Y0213320D01*
X0105823Y0213329D01*
X0105867Y0213334D01*
X0105911Y0213335D01*
X0105955Y0213332D01*
X0105999Y0213325D01*
X0106042Y0213314D01*
X0106084Y0213300D01*
X0106124Y0213282D01*
X0106163Y0213260D01*
X0106199Y0213236D01*
X0106233Y0213208D01*
X0106265Y0213177D01*
X0106294Y0213143D01*
X0106320Y0213107D01*
X0106342Y0213069D01*
X0106361Y0213029D01*
X0106376Y0212987D01*
X0106388Y0212945D01*
X0106396Y0212901D01*
X0106400Y0212857D01*
X0106400Y0212813D01*
X0106396Y0212769D01*
X0106388Y0212725D01*
X0106376Y0212683D01*
X0106361Y0212641D01*
X0106342Y0212601D01*
X0106320Y0212563D01*
X0106294Y0212527D01*
X0106265Y0212493D01*
X0106233Y0212462D01*
X0106199Y0212434D01*
X0106163Y0212410D01*
X0106124Y0212388D01*
X0106084Y0212370D01*
X0106042Y0212356D01*
X0105999Y0212345D01*
X0105955Y0212338D01*
X0105911Y0212335D01*
X0105867Y0212336D01*
X0105823Y0212341D01*
X0105780Y0212350D01*
X0105737Y0212362D01*
X0105696Y0212379D01*
X0105656Y0212398D01*
X0105619Y0212422D01*
X0105583Y0212448D01*
X0105550Y0212478D01*
X0105520Y0212510D01*
X0105493Y0212545D01*
X0105469Y0212582D01*
X0105448Y0212621D01*
X0105431Y0212662D01*
X0105418Y0212704D01*
X0105408Y0212747D01*
X0105402Y0212791D01*
X0105400Y0212835D01*
X0105900Y0212835D02*
X0105900Y0222835D01*
X0105400Y0222835D02*
X0105402Y0222879D01*
X0105408Y0222923D01*
X0105418Y0222966D01*
X0105431Y0223008D01*
X0105448Y0223049D01*
X0105469Y0223088D01*
X0105493Y0223125D01*
X0105520Y0223160D01*
X0105550Y0223192D01*
X0105583Y0223222D01*
X0105619Y0223248D01*
X0105656Y0223272D01*
X0105696Y0223291D01*
X0105737Y0223308D01*
X0105780Y0223320D01*
X0105823Y0223329D01*
X0105867Y0223334D01*
X0105911Y0223335D01*
X0105955Y0223332D01*
X0105999Y0223325D01*
X0106042Y0223314D01*
X0106084Y0223300D01*
X0106124Y0223282D01*
X0106163Y0223260D01*
X0106199Y0223236D01*
X0106233Y0223208D01*
X0106265Y0223177D01*
X0106294Y0223143D01*
X0106320Y0223107D01*
X0106342Y0223069D01*
X0106361Y0223029D01*
X0106376Y0222987D01*
X0106388Y0222945D01*
X0106396Y0222901D01*
X0106400Y0222857D01*
X0106400Y0222813D01*
X0106396Y0222769D01*
X0106388Y0222725D01*
X0106376Y0222683D01*
X0106361Y0222641D01*
X0106342Y0222601D01*
X0106320Y0222563D01*
X0106294Y0222527D01*
X0106265Y0222493D01*
X0106233Y0222462D01*
X0106199Y0222434D01*
X0106163Y0222410D01*
X0106124Y0222388D01*
X0106084Y0222370D01*
X0106042Y0222356D01*
X0105999Y0222345D01*
X0105955Y0222338D01*
X0105911Y0222335D01*
X0105867Y0222336D01*
X0105823Y0222341D01*
X0105780Y0222350D01*
X0105737Y0222362D01*
X0105696Y0222379D01*
X0105656Y0222398D01*
X0105619Y0222422D01*
X0105583Y0222448D01*
X0105550Y0222478D01*
X0105520Y0222510D01*
X0105493Y0222545D01*
X0105469Y0222582D01*
X0105448Y0222621D01*
X0105431Y0222662D01*
X0105418Y0222704D01*
X0105408Y0222747D01*
X0105402Y0222791D01*
X0105400Y0222835D01*
X0105430Y0234912D02*
X0105430Y0237615D01*
X0104530Y0236714D01*
X0103385Y0237164D02*
X0102934Y0237615D01*
X0102033Y0237615D01*
X0101583Y0237164D01*
X0101583Y0236714D01*
X0102033Y0236263D01*
X0102934Y0236263D01*
X0103385Y0235813D01*
X0103385Y0235363D01*
X0102934Y0234912D01*
X0102033Y0234912D01*
X0101583Y0235363D01*
X0104530Y0234912D02*
X0106331Y0234912D01*
X0075595Y0311446D02*
X0038095Y0311446D01*
X0038095Y0325946D01*
X0035902Y0325723D02*
X0033200Y0325723D01*
X0034551Y0324372D01*
X0034551Y0326173D01*
X0035001Y0323227D02*
X0035452Y0323227D01*
X0035902Y0322776D01*
X0035902Y0321425D01*
X0033200Y0321425D01*
X0033200Y0322776D01*
X0033650Y0323227D01*
X0034100Y0323227D01*
X0034551Y0322776D01*
X0034551Y0321425D01*
X0034551Y0322776D02*
X0035001Y0323227D01*
X0035452Y0320280D02*
X0033650Y0320280D01*
X0033200Y0319830D01*
X0033200Y0318929D01*
X0033650Y0318478D01*
X0035452Y0318478D01*
X0035902Y0318929D01*
X0035902Y0319830D01*
X0035452Y0320280D01*
X0035902Y0317333D02*
X0033200Y0317333D01*
X0033200Y0315532D02*
X0035902Y0317333D01*
X0035902Y0315532D02*
X0033200Y0315532D01*
X0033200Y0314387D02*
X0035001Y0312585D01*
X0034551Y0313036D02*
X0035902Y0314387D01*
X0035902Y0312585D02*
X0033200Y0312585D01*
X0048845Y0335946D02*
X0048847Y0336142D01*
X0048855Y0336339D01*
X0048867Y0336535D01*
X0048884Y0336730D01*
X0048905Y0336925D01*
X0048932Y0337120D01*
X0048963Y0337314D01*
X0048999Y0337507D01*
X0049039Y0337699D01*
X0049085Y0337890D01*
X0049135Y0338080D01*
X0049189Y0338268D01*
X0049249Y0338455D01*
X0049313Y0338641D01*
X0049381Y0338825D01*
X0049454Y0339007D01*
X0049531Y0339188D01*
X0049613Y0339366D01*
X0049699Y0339543D01*
X0049790Y0339717D01*
X0049884Y0339889D01*
X0049983Y0340059D01*
X0050086Y0340226D01*
X0050193Y0340391D01*
X0050304Y0340552D01*
X0050419Y0340712D01*
X0050538Y0340868D01*
X0050661Y0341021D01*
X0050787Y0341171D01*
X0050917Y0341318D01*
X0051051Y0341462D01*
X0051188Y0341603D01*
X0051329Y0341740D01*
X0051473Y0341874D01*
X0051620Y0342004D01*
X0051770Y0342130D01*
X0051923Y0342253D01*
X0052079Y0342372D01*
X0052239Y0342487D01*
X0052400Y0342598D01*
X0052565Y0342705D01*
X0052732Y0342808D01*
X0052902Y0342907D01*
X0053074Y0343001D01*
X0053248Y0343092D01*
X0053425Y0343178D01*
X0053603Y0343260D01*
X0053784Y0343337D01*
X0053966Y0343410D01*
X0054150Y0343478D01*
X0054336Y0343542D01*
X0054523Y0343602D01*
X0054711Y0343656D01*
X0054901Y0343706D01*
X0055092Y0343752D01*
X0055284Y0343792D01*
X0055477Y0343828D01*
X0055671Y0343859D01*
X0055866Y0343886D01*
X0056061Y0343907D01*
X0056256Y0343924D01*
X0056452Y0343936D01*
X0056649Y0343944D01*
X0056845Y0343946D01*
X0057041Y0343944D01*
X0057238Y0343936D01*
X0057434Y0343924D01*
X0057629Y0343907D01*
X0057824Y0343886D01*
X0058019Y0343859D01*
X0058213Y0343828D01*
X0058406Y0343792D01*
X0058598Y0343752D01*
X0058789Y0343706D01*
X0058979Y0343656D01*
X0059167Y0343602D01*
X0059354Y0343542D01*
X0059540Y0343478D01*
X0059724Y0343410D01*
X0059906Y0343337D01*
X0060087Y0343260D01*
X0060265Y0343178D01*
X0060442Y0343092D01*
X0060616Y0343001D01*
X0060788Y0342907D01*
X0060958Y0342808D01*
X0061125Y0342705D01*
X0061290Y0342598D01*
X0061451Y0342487D01*
X0061611Y0342372D01*
X0061767Y0342253D01*
X0061920Y0342130D01*
X0062070Y0342004D01*
X0062217Y0341874D01*
X0062361Y0341740D01*
X0062502Y0341603D01*
X0062639Y0341462D01*
X0062773Y0341318D01*
X0062903Y0341171D01*
X0063029Y0341021D01*
X0063152Y0340868D01*
X0063271Y0340712D01*
X0063386Y0340552D01*
X0063497Y0340391D01*
X0063604Y0340226D01*
X0063707Y0340059D01*
X0063806Y0339889D01*
X0063900Y0339717D01*
X0063991Y0339543D01*
X0064077Y0339366D01*
X0064159Y0339188D01*
X0064236Y0339007D01*
X0064309Y0338825D01*
X0064377Y0338641D01*
X0064441Y0338455D01*
X0064501Y0338268D01*
X0064555Y0338080D01*
X0064605Y0337890D01*
X0064651Y0337699D01*
X0064691Y0337507D01*
X0064727Y0337314D01*
X0064758Y0337120D01*
X0064785Y0336925D01*
X0064806Y0336730D01*
X0064823Y0336535D01*
X0064835Y0336339D01*
X0064843Y0336142D01*
X0064845Y0335946D01*
X0064843Y0335750D01*
X0064835Y0335553D01*
X0064823Y0335357D01*
X0064806Y0335162D01*
X0064785Y0334967D01*
X0064758Y0334772D01*
X0064727Y0334578D01*
X0064691Y0334385D01*
X0064651Y0334193D01*
X0064605Y0334002D01*
X0064555Y0333812D01*
X0064501Y0333624D01*
X0064441Y0333437D01*
X0064377Y0333251D01*
X0064309Y0333067D01*
X0064236Y0332885D01*
X0064159Y0332704D01*
X0064077Y0332526D01*
X0063991Y0332349D01*
X0063900Y0332175D01*
X0063806Y0332003D01*
X0063707Y0331833D01*
X0063604Y0331666D01*
X0063497Y0331501D01*
X0063386Y0331340D01*
X0063271Y0331180D01*
X0063152Y0331024D01*
X0063029Y0330871D01*
X0062903Y0330721D01*
X0062773Y0330574D01*
X0062639Y0330430D01*
X0062502Y0330289D01*
X0062361Y0330152D01*
X0062217Y0330018D01*
X0062070Y0329888D01*
X0061920Y0329762D01*
X0061767Y0329639D01*
X0061611Y0329520D01*
X0061451Y0329405D01*
X0061290Y0329294D01*
X0061125Y0329187D01*
X0060958Y0329084D01*
X0060788Y0328985D01*
X0060616Y0328891D01*
X0060442Y0328800D01*
X0060265Y0328714D01*
X0060087Y0328632D01*
X0059906Y0328555D01*
X0059724Y0328482D01*
X0059540Y0328414D01*
X0059354Y0328350D01*
X0059167Y0328290D01*
X0058979Y0328236D01*
X0058789Y0328186D01*
X0058598Y0328140D01*
X0058406Y0328100D01*
X0058213Y0328064D01*
X0058019Y0328033D01*
X0057824Y0328006D01*
X0057629Y0327985D01*
X0057434Y0327968D01*
X0057238Y0327956D01*
X0057041Y0327948D01*
X0056845Y0327946D01*
X0056649Y0327948D01*
X0056452Y0327956D01*
X0056256Y0327968D01*
X0056061Y0327985D01*
X0055866Y0328006D01*
X0055671Y0328033D01*
X0055477Y0328064D01*
X0055284Y0328100D01*
X0055092Y0328140D01*
X0054901Y0328186D01*
X0054711Y0328236D01*
X0054523Y0328290D01*
X0054336Y0328350D01*
X0054150Y0328414D01*
X0053966Y0328482D01*
X0053784Y0328555D01*
X0053603Y0328632D01*
X0053425Y0328714D01*
X0053248Y0328800D01*
X0053074Y0328891D01*
X0052902Y0328985D01*
X0052732Y0329084D01*
X0052565Y0329187D01*
X0052400Y0329294D01*
X0052239Y0329405D01*
X0052079Y0329520D01*
X0051923Y0329639D01*
X0051770Y0329762D01*
X0051620Y0329888D01*
X0051473Y0330018D01*
X0051329Y0330152D01*
X0051188Y0330289D01*
X0051051Y0330430D01*
X0050917Y0330574D01*
X0050787Y0330721D01*
X0050661Y0330871D01*
X0050538Y0331024D01*
X0050419Y0331180D01*
X0050304Y0331340D01*
X0050193Y0331501D01*
X0050086Y0331666D01*
X0049983Y0331833D01*
X0049884Y0332003D01*
X0049790Y0332175D01*
X0049699Y0332349D01*
X0049613Y0332526D01*
X0049531Y0332704D01*
X0049454Y0332885D01*
X0049381Y0333067D01*
X0049313Y0333251D01*
X0049249Y0333437D01*
X0049189Y0333624D01*
X0049135Y0333812D01*
X0049085Y0334002D01*
X0049039Y0334193D01*
X0048999Y0334385D01*
X0048963Y0334578D01*
X0048932Y0334772D01*
X0048905Y0334967D01*
X0048884Y0335162D01*
X0048867Y0335357D01*
X0048855Y0335553D01*
X0048847Y0335750D01*
X0048845Y0335946D01*
X0038095Y0345946D02*
X0038095Y0354696D01*
X0038095Y0354946D02*
X0075595Y0354946D01*
X0075595Y0354696D02*
X0075595Y0345946D01*
X0075595Y0325946D02*
X0075595Y0311446D01*
D15*
X0113400Y0220335D02*
X0115900Y0215335D01*
X0113400Y0215335D01*
X0115900Y0215335D02*
X0118400Y0215335D01*
X0115900Y0215335D02*
X0118400Y0220335D01*
X0113400Y0220335D01*
X0231510Y0220335D02*
X0234010Y0215335D01*
X0231510Y0215335D01*
X0234010Y0215335D02*
X0236510Y0215335D01*
X0234010Y0215335D02*
X0236510Y0220335D01*
X0231510Y0220335D01*
X0231510Y0090414D02*
X0234010Y0085414D01*
X0231510Y0085414D01*
X0234010Y0085414D02*
X0236510Y0085414D01*
X0234010Y0085414D02*
X0236510Y0090414D01*
X0231510Y0090414D01*
X0118400Y0090414D02*
X0115900Y0085414D01*
X0113400Y0085414D01*
X0115900Y0085414D02*
X0118400Y0085414D01*
X0115900Y0085414D02*
X0113400Y0090414D01*
X0118400Y0090414D01*
D16*
X0120552Y0103162D02*
X0120554Y0103211D01*
X0120560Y0103259D01*
X0120570Y0103307D01*
X0120584Y0103354D01*
X0120601Y0103400D01*
X0120622Y0103444D01*
X0120647Y0103486D01*
X0120675Y0103526D01*
X0120707Y0103564D01*
X0120741Y0103599D01*
X0120778Y0103631D01*
X0120817Y0103660D01*
X0120859Y0103686D01*
X0120903Y0103708D01*
X0120948Y0103726D01*
X0120995Y0103741D01*
X0121042Y0103752D01*
X0121091Y0103759D01*
X0121140Y0103762D01*
X0121189Y0103761D01*
X0121237Y0103756D01*
X0121286Y0103747D01*
X0121333Y0103734D01*
X0121379Y0103717D01*
X0121423Y0103697D01*
X0121466Y0103673D01*
X0121507Y0103646D01*
X0121545Y0103615D01*
X0121581Y0103582D01*
X0121613Y0103546D01*
X0121643Y0103507D01*
X0121670Y0103466D01*
X0121693Y0103422D01*
X0121712Y0103377D01*
X0121728Y0103331D01*
X0121740Y0103284D01*
X0121748Y0103235D01*
X0121752Y0103186D01*
X0121752Y0103138D01*
X0121748Y0103089D01*
X0121740Y0103040D01*
X0121728Y0102993D01*
X0121712Y0102947D01*
X0121693Y0102902D01*
X0121670Y0102858D01*
X0121643Y0102817D01*
X0121613Y0102778D01*
X0121581Y0102742D01*
X0121545Y0102709D01*
X0121507Y0102678D01*
X0121466Y0102651D01*
X0121423Y0102627D01*
X0121379Y0102607D01*
X0121333Y0102590D01*
X0121286Y0102577D01*
X0121237Y0102568D01*
X0121189Y0102563D01*
X0121140Y0102562D01*
X0121091Y0102565D01*
X0121042Y0102572D01*
X0120995Y0102583D01*
X0120948Y0102598D01*
X0120903Y0102616D01*
X0120859Y0102638D01*
X0120817Y0102664D01*
X0120778Y0102693D01*
X0120741Y0102725D01*
X0120707Y0102760D01*
X0120675Y0102798D01*
X0120647Y0102838D01*
X0120622Y0102880D01*
X0120601Y0102924D01*
X0120584Y0102970D01*
X0120570Y0103017D01*
X0120560Y0103065D01*
X0120554Y0103113D01*
X0120552Y0103162D01*
X0110552Y0103162D02*
X0110554Y0103211D01*
X0110560Y0103259D01*
X0110570Y0103307D01*
X0110584Y0103354D01*
X0110601Y0103400D01*
X0110622Y0103444D01*
X0110647Y0103486D01*
X0110675Y0103526D01*
X0110707Y0103564D01*
X0110741Y0103599D01*
X0110778Y0103631D01*
X0110817Y0103660D01*
X0110859Y0103686D01*
X0110903Y0103708D01*
X0110948Y0103726D01*
X0110995Y0103741D01*
X0111042Y0103752D01*
X0111091Y0103759D01*
X0111140Y0103762D01*
X0111189Y0103761D01*
X0111237Y0103756D01*
X0111286Y0103747D01*
X0111333Y0103734D01*
X0111379Y0103717D01*
X0111423Y0103697D01*
X0111466Y0103673D01*
X0111507Y0103646D01*
X0111545Y0103615D01*
X0111581Y0103582D01*
X0111613Y0103546D01*
X0111643Y0103507D01*
X0111670Y0103466D01*
X0111693Y0103422D01*
X0111712Y0103377D01*
X0111728Y0103331D01*
X0111740Y0103284D01*
X0111748Y0103235D01*
X0111752Y0103186D01*
X0111752Y0103138D01*
X0111748Y0103089D01*
X0111740Y0103040D01*
X0111728Y0102993D01*
X0111712Y0102947D01*
X0111693Y0102902D01*
X0111670Y0102858D01*
X0111643Y0102817D01*
X0111613Y0102778D01*
X0111581Y0102742D01*
X0111545Y0102709D01*
X0111507Y0102678D01*
X0111466Y0102651D01*
X0111423Y0102627D01*
X0111379Y0102607D01*
X0111333Y0102590D01*
X0111286Y0102577D01*
X0111237Y0102568D01*
X0111189Y0102563D01*
X0111140Y0102562D01*
X0111091Y0102565D01*
X0111042Y0102572D01*
X0110995Y0102583D01*
X0110948Y0102598D01*
X0110903Y0102616D01*
X0110859Y0102638D01*
X0110817Y0102664D01*
X0110778Y0102693D01*
X0110741Y0102725D01*
X0110707Y0102760D01*
X0110675Y0102798D01*
X0110647Y0102838D01*
X0110622Y0102880D01*
X0110601Y0102924D01*
X0110584Y0102970D01*
X0110570Y0103017D01*
X0110560Y0103065D01*
X0110554Y0103113D01*
X0110552Y0103162D01*
X0228662Y0103162D02*
X0228664Y0103211D01*
X0228670Y0103259D01*
X0228680Y0103307D01*
X0228694Y0103354D01*
X0228711Y0103400D01*
X0228732Y0103444D01*
X0228757Y0103486D01*
X0228785Y0103526D01*
X0228817Y0103564D01*
X0228851Y0103599D01*
X0228888Y0103631D01*
X0228927Y0103660D01*
X0228969Y0103686D01*
X0229013Y0103708D01*
X0229058Y0103726D01*
X0229105Y0103741D01*
X0229152Y0103752D01*
X0229201Y0103759D01*
X0229250Y0103762D01*
X0229299Y0103761D01*
X0229347Y0103756D01*
X0229396Y0103747D01*
X0229443Y0103734D01*
X0229489Y0103717D01*
X0229533Y0103697D01*
X0229576Y0103673D01*
X0229617Y0103646D01*
X0229655Y0103615D01*
X0229691Y0103582D01*
X0229723Y0103546D01*
X0229753Y0103507D01*
X0229780Y0103466D01*
X0229803Y0103422D01*
X0229822Y0103377D01*
X0229838Y0103331D01*
X0229850Y0103284D01*
X0229858Y0103235D01*
X0229862Y0103186D01*
X0229862Y0103138D01*
X0229858Y0103089D01*
X0229850Y0103040D01*
X0229838Y0102993D01*
X0229822Y0102947D01*
X0229803Y0102902D01*
X0229780Y0102858D01*
X0229753Y0102817D01*
X0229723Y0102778D01*
X0229691Y0102742D01*
X0229655Y0102709D01*
X0229617Y0102678D01*
X0229576Y0102651D01*
X0229533Y0102627D01*
X0229489Y0102607D01*
X0229443Y0102590D01*
X0229396Y0102577D01*
X0229347Y0102568D01*
X0229299Y0102563D01*
X0229250Y0102562D01*
X0229201Y0102565D01*
X0229152Y0102572D01*
X0229105Y0102583D01*
X0229058Y0102598D01*
X0229013Y0102616D01*
X0228969Y0102638D01*
X0228927Y0102664D01*
X0228888Y0102693D01*
X0228851Y0102725D01*
X0228817Y0102760D01*
X0228785Y0102798D01*
X0228757Y0102838D01*
X0228732Y0102880D01*
X0228711Y0102924D01*
X0228694Y0102970D01*
X0228680Y0103017D01*
X0228670Y0103065D01*
X0228664Y0103113D01*
X0228662Y0103162D01*
X0238662Y0103162D02*
X0238664Y0103211D01*
X0238670Y0103259D01*
X0238680Y0103307D01*
X0238694Y0103354D01*
X0238711Y0103400D01*
X0238732Y0103444D01*
X0238757Y0103486D01*
X0238785Y0103526D01*
X0238817Y0103564D01*
X0238851Y0103599D01*
X0238888Y0103631D01*
X0238927Y0103660D01*
X0238969Y0103686D01*
X0239013Y0103708D01*
X0239058Y0103726D01*
X0239105Y0103741D01*
X0239152Y0103752D01*
X0239201Y0103759D01*
X0239250Y0103762D01*
X0239299Y0103761D01*
X0239347Y0103756D01*
X0239396Y0103747D01*
X0239443Y0103734D01*
X0239489Y0103717D01*
X0239533Y0103697D01*
X0239576Y0103673D01*
X0239617Y0103646D01*
X0239655Y0103615D01*
X0239691Y0103582D01*
X0239723Y0103546D01*
X0239753Y0103507D01*
X0239780Y0103466D01*
X0239803Y0103422D01*
X0239822Y0103377D01*
X0239838Y0103331D01*
X0239850Y0103284D01*
X0239858Y0103235D01*
X0239862Y0103186D01*
X0239862Y0103138D01*
X0239858Y0103089D01*
X0239850Y0103040D01*
X0239838Y0102993D01*
X0239822Y0102947D01*
X0239803Y0102902D01*
X0239780Y0102858D01*
X0239753Y0102817D01*
X0239723Y0102778D01*
X0239691Y0102742D01*
X0239655Y0102709D01*
X0239617Y0102678D01*
X0239576Y0102651D01*
X0239533Y0102627D01*
X0239489Y0102607D01*
X0239443Y0102590D01*
X0239396Y0102577D01*
X0239347Y0102568D01*
X0239299Y0102563D01*
X0239250Y0102562D01*
X0239201Y0102565D01*
X0239152Y0102572D01*
X0239105Y0102583D01*
X0239058Y0102598D01*
X0239013Y0102616D01*
X0238969Y0102638D01*
X0238927Y0102664D01*
X0238888Y0102693D01*
X0238851Y0102725D01*
X0238817Y0102760D01*
X0238785Y0102798D01*
X0238757Y0102838D01*
X0238732Y0102880D01*
X0238711Y0102924D01*
X0238694Y0102970D01*
X0238680Y0103017D01*
X0238670Y0103065D01*
X0238664Y0103113D01*
X0238662Y0103162D01*
X0238662Y0233083D02*
X0238664Y0233132D01*
X0238670Y0233180D01*
X0238680Y0233228D01*
X0238694Y0233275D01*
X0238711Y0233321D01*
X0238732Y0233365D01*
X0238757Y0233407D01*
X0238785Y0233447D01*
X0238817Y0233485D01*
X0238851Y0233520D01*
X0238888Y0233552D01*
X0238927Y0233581D01*
X0238969Y0233607D01*
X0239013Y0233629D01*
X0239058Y0233647D01*
X0239105Y0233662D01*
X0239152Y0233673D01*
X0239201Y0233680D01*
X0239250Y0233683D01*
X0239299Y0233682D01*
X0239347Y0233677D01*
X0239396Y0233668D01*
X0239443Y0233655D01*
X0239489Y0233638D01*
X0239533Y0233618D01*
X0239576Y0233594D01*
X0239617Y0233567D01*
X0239655Y0233536D01*
X0239691Y0233503D01*
X0239723Y0233467D01*
X0239753Y0233428D01*
X0239780Y0233387D01*
X0239803Y0233343D01*
X0239822Y0233298D01*
X0239838Y0233252D01*
X0239850Y0233205D01*
X0239858Y0233156D01*
X0239862Y0233107D01*
X0239862Y0233059D01*
X0239858Y0233010D01*
X0239850Y0232961D01*
X0239838Y0232914D01*
X0239822Y0232868D01*
X0239803Y0232823D01*
X0239780Y0232779D01*
X0239753Y0232738D01*
X0239723Y0232699D01*
X0239691Y0232663D01*
X0239655Y0232630D01*
X0239617Y0232599D01*
X0239576Y0232572D01*
X0239533Y0232548D01*
X0239489Y0232528D01*
X0239443Y0232511D01*
X0239396Y0232498D01*
X0239347Y0232489D01*
X0239299Y0232484D01*
X0239250Y0232483D01*
X0239201Y0232486D01*
X0239152Y0232493D01*
X0239105Y0232504D01*
X0239058Y0232519D01*
X0239013Y0232537D01*
X0238969Y0232559D01*
X0238927Y0232585D01*
X0238888Y0232614D01*
X0238851Y0232646D01*
X0238817Y0232681D01*
X0238785Y0232719D01*
X0238757Y0232759D01*
X0238732Y0232801D01*
X0238711Y0232845D01*
X0238694Y0232891D01*
X0238680Y0232938D01*
X0238670Y0232986D01*
X0238664Y0233034D01*
X0238662Y0233083D01*
X0228662Y0233083D02*
X0228664Y0233132D01*
X0228670Y0233180D01*
X0228680Y0233228D01*
X0228694Y0233275D01*
X0228711Y0233321D01*
X0228732Y0233365D01*
X0228757Y0233407D01*
X0228785Y0233447D01*
X0228817Y0233485D01*
X0228851Y0233520D01*
X0228888Y0233552D01*
X0228927Y0233581D01*
X0228969Y0233607D01*
X0229013Y0233629D01*
X0229058Y0233647D01*
X0229105Y0233662D01*
X0229152Y0233673D01*
X0229201Y0233680D01*
X0229250Y0233683D01*
X0229299Y0233682D01*
X0229347Y0233677D01*
X0229396Y0233668D01*
X0229443Y0233655D01*
X0229489Y0233638D01*
X0229533Y0233618D01*
X0229576Y0233594D01*
X0229617Y0233567D01*
X0229655Y0233536D01*
X0229691Y0233503D01*
X0229723Y0233467D01*
X0229753Y0233428D01*
X0229780Y0233387D01*
X0229803Y0233343D01*
X0229822Y0233298D01*
X0229838Y0233252D01*
X0229850Y0233205D01*
X0229858Y0233156D01*
X0229862Y0233107D01*
X0229862Y0233059D01*
X0229858Y0233010D01*
X0229850Y0232961D01*
X0229838Y0232914D01*
X0229822Y0232868D01*
X0229803Y0232823D01*
X0229780Y0232779D01*
X0229753Y0232738D01*
X0229723Y0232699D01*
X0229691Y0232663D01*
X0229655Y0232630D01*
X0229617Y0232599D01*
X0229576Y0232572D01*
X0229533Y0232548D01*
X0229489Y0232528D01*
X0229443Y0232511D01*
X0229396Y0232498D01*
X0229347Y0232489D01*
X0229299Y0232484D01*
X0229250Y0232483D01*
X0229201Y0232486D01*
X0229152Y0232493D01*
X0229105Y0232504D01*
X0229058Y0232519D01*
X0229013Y0232537D01*
X0228969Y0232559D01*
X0228927Y0232585D01*
X0228888Y0232614D01*
X0228851Y0232646D01*
X0228817Y0232681D01*
X0228785Y0232719D01*
X0228757Y0232759D01*
X0228732Y0232801D01*
X0228711Y0232845D01*
X0228694Y0232891D01*
X0228680Y0232938D01*
X0228670Y0232986D01*
X0228664Y0233034D01*
X0228662Y0233083D01*
X0120552Y0233083D02*
X0120554Y0233132D01*
X0120560Y0233180D01*
X0120570Y0233228D01*
X0120584Y0233275D01*
X0120601Y0233321D01*
X0120622Y0233365D01*
X0120647Y0233407D01*
X0120675Y0233447D01*
X0120707Y0233485D01*
X0120741Y0233520D01*
X0120778Y0233552D01*
X0120817Y0233581D01*
X0120859Y0233607D01*
X0120903Y0233629D01*
X0120948Y0233647D01*
X0120995Y0233662D01*
X0121042Y0233673D01*
X0121091Y0233680D01*
X0121140Y0233683D01*
X0121189Y0233682D01*
X0121237Y0233677D01*
X0121286Y0233668D01*
X0121333Y0233655D01*
X0121379Y0233638D01*
X0121423Y0233618D01*
X0121466Y0233594D01*
X0121507Y0233567D01*
X0121545Y0233536D01*
X0121581Y0233503D01*
X0121613Y0233467D01*
X0121643Y0233428D01*
X0121670Y0233387D01*
X0121693Y0233343D01*
X0121712Y0233298D01*
X0121728Y0233252D01*
X0121740Y0233205D01*
X0121748Y0233156D01*
X0121752Y0233107D01*
X0121752Y0233059D01*
X0121748Y0233010D01*
X0121740Y0232961D01*
X0121728Y0232914D01*
X0121712Y0232868D01*
X0121693Y0232823D01*
X0121670Y0232779D01*
X0121643Y0232738D01*
X0121613Y0232699D01*
X0121581Y0232663D01*
X0121545Y0232630D01*
X0121507Y0232599D01*
X0121466Y0232572D01*
X0121423Y0232548D01*
X0121379Y0232528D01*
X0121333Y0232511D01*
X0121286Y0232498D01*
X0121237Y0232489D01*
X0121189Y0232484D01*
X0121140Y0232483D01*
X0121091Y0232486D01*
X0121042Y0232493D01*
X0120995Y0232504D01*
X0120948Y0232519D01*
X0120903Y0232537D01*
X0120859Y0232559D01*
X0120817Y0232585D01*
X0120778Y0232614D01*
X0120741Y0232646D01*
X0120707Y0232681D01*
X0120675Y0232719D01*
X0120647Y0232759D01*
X0120622Y0232801D01*
X0120601Y0232845D01*
X0120584Y0232891D01*
X0120570Y0232938D01*
X0120560Y0232986D01*
X0120554Y0233034D01*
X0120552Y0233083D01*
X0110552Y0233083D02*
X0110554Y0233132D01*
X0110560Y0233180D01*
X0110570Y0233228D01*
X0110584Y0233275D01*
X0110601Y0233321D01*
X0110622Y0233365D01*
X0110647Y0233407D01*
X0110675Y0233447D01*
X0110707Y0233485D01*
X0110741Y0233520D01*
X0110778Y0233552D01*
X0110817Y0233581D01*
X0110859Y0233607D01*
X0110903Y0233629D01*
X0110948Y0233647D01*
X0110995Y0233662D01*
X0111042Y0233673D01*
X0111091Y0233680D01*
X0111140Y0233683D01*
X0111189Y0233682D01*
X0111237Y0233677D01*
X0111286Y0233668D01*
X0111333Y0233655D01*
X0111379Y0233638D01*
X0111423Y0233618D01*
X0111466Y0233594D01*
X0111507Y0233567D01*
X0111545Y0233536D01*
X0111581Y0233503D01*
X0111613Y0233467D01*
X0111643Y0233428D01*
X0111670Y0233387D01*
X0111693Y0233343D01*
X0111712Y0233298D01*
X0111728Y0233252D01*
X0111740Y0233205D01*
X0111748Y0233156D01*
X0111752Y0233107D01*
X0111752Y0233059D01*
X0111748Y0233010D01*
X0111740Y0232961D01*
X0111728Y0232914D01*
X0111712Y0232868D01*
X0111693Y0232823D01*
X0111670Y0232779D01*
X0111643Y0232738D01*
X0111613Y0232699D01*
X0111581Y0232663D01*
X0111545Y0232630D01*
X0111507Y0232599D01*
X0111466Y0232572D01*
X0111423Y0232548D01*
X0111379Y0232528D01*
X0111333Y0232511D01*
X0111286Y0232498D01*
X0111237Y0232489D01*
X0111189Y0232484D01*
X0111140Y0232483D01*
X0111091Y0232486D01*
X0111042Y0232493D01*
X0110995Y0232504D01*
X0110948Y0232519D01*
X0110903Y0232537D01*
X0110859Y0232559D01*
X0110817Y0232585D01*
X0110778Y0232614D01*
X0110741Y0232646D01*
X0110707Y0232681D01*
X0110675Y0232719D01*
X0110647Y0232759D01*
X0110622Y0232801D01*
X0110601Y0232845D01*
X0110584Y0232891D01*
X0110570Y0232938D01*
X0110560Y0232986D01*
X0110554Y0233034D01*
X0110552Y0233083D01*
M02*
