G75*
%MOIN*%
%OFA0B0*%
%FSLAX25Y25*%
%IPPOS*%
%LPD*%
%AMOC8*
5,1,8,0,0,1.08239X$1,22.5*
%
%ADD10C,0.07400*%
%ADD11C,0.16598*%
%ADD12C,0.15024*%
%ADD13OC8,0.05200*%
%ADD14C,0.05937*%
%ADD15R,0.05937X0.05937*%
%ADD16R,0.05906X0.02362*%
%ADD17C,0.06600*%
%ADD18C,0.05200*%
%ADD19C,0.03772*%
%ADD20C,0.05740*%
%ADD21C,0.09744*%
%ADD22C,0.07000*%
%ADD23C,0.11811*%
%ADD24C,0.02400*%
%ADD25C,0.03100*%
%ADD26C,0.01000*%
%ADD27C,0.01600*%
%ADD28C,0.05000*%
%ADD29C,0.03600*%
%ADD30C,0.02978*%
D10*
X0014550Y0064910D03*
X0013550Y0074910D03*
X0014550Y0084910D03*
X0014424Y0094973D03*
X0013424Y0104973D03*
X0014424Y0114973D03*
X0012294Y0143509D03*
X0013294Y0153509D03*
X0012294Y0163509D03*
X0013294Y0173509D03*
X0012294Y0183509D03*
X0013557Y0211820D03*
X0012557Y0221820D03*
X0013557Y0231820D03*
X0013380Y0241891D03*
X0012380Y0251891D03*
X0013380Y0261891D03*
X0012829Y0280631D03*
X0011829Y0290631D03*
X0012829Y0300631D03*
X0013026Y0310800D03*
X0012026Y0320800D03*
X0013026Y0330800D03*
X0053700Y0382477D03*
X0065100Y0382477D03*
X0101263Y0312324D03*
X0112663Y0312324D03*
X0097278Y0278454D03*
X0087278Y0278454D03*
X0077278Y0278454D03*
X0067278Y0278454D03*
X0057278Y0278454D03*
X0057278Y0267454D03*
X0067278Y0267454D03*
X0077278Y0267454D03*
X0087278Y0267454D03*
X0097278Y0267454D03*
X0096530Y0140619D03*
X0086530Y0140619D03*
X0076530Y0140619D03*
X0066530Y0140619D03*
X0056530Y0140619D03*
X0056530Y0129619D03*
X0066530Y0129619D03*
X0076530Y0129619D03*
X0086530Y0129619D03*
X0096530Y0129619D03*
X0100467Y0038296D03*
X0090467Y0038296D03*
X0080467Y0038296D03*
X0070467Y0038296D03*
X0060467Y0038296D03*
X0060467Y0027296D03*
X0070467Y0027296D03*
X0080467Y0027296D03*
X0090467Y0027296D03*
X0100467Y0027296D03*
X0288813Y0027296D03*
X0298813Y0027296D03*
X0308813Y0027296D03*
X0318813Y0027296D03*
X0328813Y0027296D03*
X0328813Y0038296D03*
X0318813Y0038296D03*
X0308813Y0038296D03*
X0298813Y0038296D03*
X0288813Y0038296D03*
X0304561Y0125761D03*
X0314561Y0125761D03*
X0324561Y0125761D03*
X0334561Y0125761D03*
X0344561Y0125761D03*
X0344561Y0136761D03*
X0334561Y0136761D03*
X0324561Y0136761D03*
X0314561Y0136761D03*
X0304561Y0136761D03*
X0304561Y0180682D03*
X0304561Y0191682D03*
X0314561Y0191682D03*
X0324561Y0191682D03*
X0324561Y0180682D03*
X0314561Y0180682D03*
X0334561Y0180682D03*
X0344561Y0180682D03*
X0344561Y0191682D03*
X0334561Y0191682D03*
X0334561Y0236158D03*
X0344561Y0236158D03*
X0344561Y0247158D03*
X0334561Y0247158D03*
X0324561Y0247158D03*
X0314561Y0247158D03*
X0304561Y0247158D03*
X0304561Y0236158D03*
X0314561Y0236158D03*
X0324561Y0236158D03*
X0383282Y0245202D03*
X0384282Y0255202D03*
X0384180Y0265182D03*
X0383180Y0275182D03*
X0384180Y0285182D03*
X0384117Y0299131D03*
X0383117Y0309131D03*
X0384117Y0319131D03*
X0384160Y0329103D03*
X0383160Y0339103D03*
X0384160Y0349103D03*
X0384282Y0235202D03*
X0384353Y0221190D03*
X0383353Y0211190D03*
X0384353Y0201190D03*
X0384431Y0191221D03*
X0383431Y0181221D03*
X0384431Y0171221D03*
X0384369Y0157501D03*
X0383369Y0147501D03*
X0384369Y0137501D03*
X0383369Y0127501D03*
X0384369Y0117501D03*
X0384514Y0103485D03*
X0383514Y0093485D03*
X0384514Y0083485D03*
X0384424Y0073434D03*
X0383424Y0063434D03*
X0384424Y0053434D03*
D11*
X0342731Y0349331D03*
X0243223Y0349331D03*
X0104325Y0349331D03*
D12*
X0123223Y0360552D03*
X0104325Y0373938D03*
X0243223Y0373938D03*
X0262120Y0360552D03*
X0342731Y0373938D03*
X0361628Y0360552D03*
D13*
X0174955Y0370631D03*
X0174955Y0340631D03*
X0174955Y0325198D03*
X0174955Y0315198D03*
X0147396Y0102914D03*
X0147396Y0072914D03*
X0202514Y0072914D03*
X0202514Y0102914D03*
X0257632Y0097914D03*
X0257632Y0077914D03*
D14*
X0201428Y0131965D03*
X0201428Y0141965D03*
X0201428Y0151965D03*
X0201428Y0161965D03*
X0201428Y0171965D03*
X0201428Y0181965D03*
X0191428Y0181965D03*
X0181428Y0181965D03*
X0171428Y0181965D03*
X0171428Y0171965D03*
X0171428Y0161965D03*
X0171428Y0151965D03*
X0171428Y0141965D03*
X0171428Y0131965D03*
X0161428Y0131965D03*
X0161428Y0141965D03*
X0161428Y0151965D03*
X0161428Y0161965D03*
X0161428Y0171965D03*
X0161428Y0181965D03*
X0151428Y0181965D03*
X0141428Y0181965D03*
X0141428Y0171965D03*
X0141428Y0161965D03*
X0141428Y0151965D03*
X0141428Y0141965D03*
X0141428Y0131965D03*
X0141428Y0191965D03*
X0141428Y0201965D03*
X0141428Y0211965D03*
X0141428Y0221965D03*
X0141428Y0231965D03*
X0141428Y0241965D03*
X0141428Y0251965D03*
X0141428Y0261965D03*
X0141428Y0271965D03*
X0141428Y0281965D03*
X0141428Y0291965D03*
X0141428Y0301965D03*
X0141428Y0311965D03*
X0141428Y0321965D03*
X0151428Y0321965D03*
X0151428Y0311965D03*
X0161428Y0301965D03*
X0171428Y0301965D03*
X0171428Y0291965D03*
X0171428Y0281965D03*
X0171428Y0271965D03*
X0161428Y0271965D03*
X0161428Y0281965D03*
X0161428Y0291965D03*
X0201428Y0291965D03*
X0201428Y0281965D03*
X0201428Y0271965D03*
X0201428Y0261965D03*
X0201428Y0251965D03*
X0201428Y0241965D03*
X0201428Y0231965D03*
X0201428Y0221965D03*
X0201428Y0211965D03*
X0201428Y0201965D03*
X0201428Y0191965D03*
X0171428Y0191965D03*
X0171428Y0201965D03*
X0171428Y0211965D03*
X0161428Y0211965D03*
X0161428Y0201965D03*
X0161428Y0191965D03*
X0201428Y0301965D03*
X0201428Y0311965D03*
X0201428Y0321965D03*
X0201428Y0331965D03*
X0201428Y0341965D03*
X0201428Y0351965D03*
X0151428Y0351965D03*
X0141428Y0351965D03*
X0141428Y0361965D03*
X0141428Y0341965D03*
X0141428Y0331965D03*
X0151428Y0331965D03*
D15*
X0201428Y0361965D03*
D16*
X0220258Y0319127D03*
X0220258Y0314127D03*
X0220258Y0309127D03*
X0220258Y0304127D03*
X0220258Y0299127D03*
X0220258Y0294127D03*
X0220258Y0289127D03*
X0220258Y0284127D03*
X0220258Y0279127D03*
X0220258Y0274127D03*
X0258054Y0274127D03*
X0258054Y0279127D03*
X0258054Y0284127D03*
X0258054Y0289127D03*
X0258054Y0294127D03*
X0258054Y0299127D03*
X0258054Y0304127D03*
X0258054Y0309127D03*
X0258054Y0314127D03*
X0258054Y0319127D03*
X0090782Y0209587D03*
X0090782Y0204587D03*
X0090782Y0199587D03*
X0090782Y0194587D03*
X0090782Y0189587D03*
X0090782Y0184587D03*
X0090782Y0179587D03*
X0090782Y0174587D03*
X0090782Y0169587D03*
X0090782Y0164587D03*
X0052987Y0164587D03*
X0052987Y0169587D03*
X0052987Y0174587D03*
X0052987Y0179587D03*
X0052987Y0184587D03*
X0052987Y0189587D03*
X0052987Y0194587D03*
X0052987Y0199587D03*
X0052987Y0204587D03*
X0052987Y0209587D03*
D17*
X0105900Y0207835D03*
X0115900Y0207835D03*
X0125900Y0207835D03*
X0125900Y0227835D03*
X0115900Y0227835D03*
X0105900Y0227835D03*
X0224010Y0227835D03*
X0234010Y0227835D03*
X0244010Y0227835D03*
X0244010Y0207835D03*
X0234010Y0207835D03*
X0224010Y0207835D03*
X0224010Y0097914D03*
X0234010Y0097914D03*
X0244010Y0097914D03*
X0244010Y0077914D03*
X0234010Y0077914D03*
X0224010Y0077914D03*
X0125900Y0077914D03*
X0115900Y0077914D03*
X0105900Y0077914D03*
X0105900Y0097914D03*
X0115900Y0097914D03*
X0125900Y0097914D03*
D18*
X0224480Y0135001D02*
X0229680Y0135001D01*
X0229680Y0145001D02*
X0224480Y0145001D01*
X0224480Y0155001D02*
X0229680Y0155001D01*
X0229680Y0165001D02*
X0224480Y0165001D01*
X0259680Y0165001D02*
X0264880Y0165001D01*
X0264880Y0155001D02*
X0259680Y0155001D01*
X0259680Y0145001D02*
X0264880Y0145001D01*
X0264880Y0135001D02*
X0259680Y0135001D01*
D19*
X0349203Y0282954D03*
X0359203Y0282954D03*
D20*
X0319203Y0282954D03*
X0289203Y0282954D03*
D21*
X0174955Y0110355D03*
X0174955Y0091851D03*
X0174955Y0073347D03*
D22*
X0283065Y0062324D03*
X0293065Y0062324D03*
X0303065Y0062324D03*
X0066845Y0062324D03*
X0056845Y0062324D03*
X0046845Y0062324D03*
X0046845Y0306418D03*
X0056845Y0306418D03*
X0066845Y0306418D03*
X0287002Y0306418D03*
X0297002Y0306418D03*
X0307002Y0306418D03*
D23*
X0315900Y0335946D03*
X0278105Y0335946D03*
X0075742Y0335946D03*
X0037947Y0335946D03*
X0037947Y0091851D03*
X0075742Y0091851D03*
X0274168Y0091851D03*
X0311963Y0091851D03*
D24*
X0046018Y0038702D02*
X0019443Y0065276D01*
X0015506Y0065276D01*
X0014550Y0064910D01*
X0014522Y0065276D01*
X0005664Y0065276D01*
X0005664Y0086930D01*
X0013538Y0094804D01*
X0014424Y0094973D01*
X0012554Y0094804D01*
X0005664Y0094804D01*
X0005664Y0125316D01*
X0020428Y0140080D01*
X0037160Y0140080D01*
X0039128Y0142048D01*
X0040113Y0142048D01*
X0041097Y0141064D01*
X0055861Y0141064D01*
X0056530Y0140619D01*
X0071609Y0153859D02*
X0072593Y0152875D01*
X0113931Y0152875D01*
X0114916Y0153859D01*
X0116884Y0153859D01*
X0115900Y0146969D02*
X0093262Y0146969D01*
X0092278Y0147954D01*
X0102120Y0156812D02*
X0103105Y0157796D01*
X0102120Y0156812D02*
X0082435Y0156812D01*
X0081451Y0157796D01*
X0080467Y0174528D02*
X0081451Y0175513D01*
X0080467Y0174528D02*
X0053892Y0174528D01*
X0052987Y0174587D01*
X0053892Y0179450D02*
X0052987Y0179587D01*
X0053892Y0179450D02*
X0067672Y0179450D01*
X0074561Y0189292D02*
X0084404Y0199135D01*
X0077514Y0210946D02*
X0054876Y0210946D01*
X0053892Y0209961D01*
X0052987Y0209587D01*
X0052908Y0205040D02*
X0052987Y0204587D01*
X0052908Y0205040D02*
X0047002Y0205040D01*
X0049955Y0199135D02*
X0036176Y0185355D01*
X0049955Y0199135D02*
X0052908Y0199135D01*
X0052987Y0199587D01*
X0052987Y0194587D02*
X0053892Y0194213D01*
X0067672Y0194213D01*
X0074561Y0189292D02*
X0053892Y0189292D01*
X0052987Y0189587D01*
X0052987Y0184587D02*
X0053892Y0184371D01*
X0081451Y0184371D01*
X0052987Y0169587D02*
X0052908Y0168623D01*
X0041097Y0168623D01*
X0035191Y0131221D02*
X0043065Y0123347D01*
X0070624Y0123347D01*
X0076530Y0129253D01*
X0076530Y0129619D01*
X0110979Y0121379D02*
X0112947Y0119410D01*
X0148380Y0119410D01*
X0149365Y0120394D01*
X0214325Y0120394D01*
X0218262Y0116457D01*
X0226136Y0116457D01*
X0216294Y0124331D02*
X0120821Y0124331D01*
X0115900Y0078072D02*
X0115900Y0077914D01*
X0115900Y0078072D02*
X0125743Y0078072D01*
X0125900Y0077914D01*
X0126727Y0078072D01*
X0138538Y0078072D01*
X0140506Y0080040D01*
X0163144Y0080040D01*
X0170034Y0073150D01*
X0173971Y0073150D01*
X0174955Y0073347D01*
X0174955Y0073150D01*
X0186766Y0073150D01*
X0186766Y0074135D01*
X0186766Y0073150D02*
X0202514Y0073150D01*
X0202514Y0072914D01*
X0234010Y0077914D02*
X0234010Y0078072D01*
X0242869Y0078072D01*
X0244010Y0077914D01*
X0244837Y0078072D01*
X0257632Y0078072D01*
X0257632Y0077914D01*
X0260585Y0046576D02*
X0262061Y0045099D01*
X0252711Y0035749D01*
X0203498Y0035749D01*
X0202514Y0036733D01*
X0211372Y0024922D02*
X0215309Y0020985D01*
X0302908Y0020985D01*
X0308813Y0026891D01*
X0308813Y0027296D01*
X0288813Y0038296D02*
X0288144Y0038702D01*
X0268459Y0038702D01*
X0262061Y0045099D01*
X0313735Y0076103D02*
X0278302Y0111536D01*
X0297987Y0123347D02*
X0301924Y0119410D01*
X0318656Y0119410D01*
X0324561Y0125316D01*
X0324561Y0125761D01*
X0304561Y0136761D02*
X0303892Y0137127D01*
X0299955Y0137127D01*
X0297987Y0135158D01*
X0260585Y0135158D01*
X0259680Y0135001D01*
X0291097Y0161733D02*
X0283223Y0169607D01*
X0291097Y0161733D02*
X0309798Y0161733D01*
X0300939Y0166654D02*
X0296018Y0166654D01*
X0296018Y0183387D01*
X0295034Y0183387D01*
X0283223Y0195198D01*
X0244837Y0195198D01*
X0243853Y0194213D01*
X0244010Y0207835D02*
X0243853Y0207993D01*
X0234010Y0207993D01*
X0234010Y0207835D01*
X0273380Y0247363D02*
X0295034Y0225709D01*
X0324561Y0225709D01*
X0318656Y0229646D02*
X0324561Y0235552D01*
X0324561Y0236158D01*
X0318656Y0229646D02*
X0297002Y0229646D01*
X0278302Y0248347D01*
X0274365Y0226694D02*
X0288144Y0226694D01*
X0274365Y0226694D02*
X0247790Y0253269D01*
X0254680Y0270985D02*
X0238931Y0270985D01*
X0219246Y0251300D01*
X0247790Y0282796D02*
X0256648Y0282796D01*
X0257632Y0283780D01*
X0258054Y0284127D01*
X0258617Y0288702D02*
X0258054Y0289127D01*
X0258617Y0288702D02*
X0283223Y0288702D01*
X0290113Y0289686D02*
X0318656Y0261143D01*
X0314719Y0256221D02*
X0305861Y0247363D01*
X0304876Y0247363D01*
X0304561Y0247158D01*
X0314719Y0256221D02*
X0349168Y0256221D01*
X0350152Y0261143D02*
X0357042Y0254253D01*
X0357042Y0225709D01*
X0350152Y0218820D01*
X0350152Y0261143D02*
X0333420Y0261143D01*
X0299955Y0294607D01*
X0258617Y0294607D01*
X0258054Y0294127D01*
X0258054Y0299127D02*
X0258617Y0299528D01*
X0266491Y0299528D01*
X0267475Y0304450D02*
X0258617Y0304450D01*
X0258054Y0304127D01*
X0258054Y0309127D02*
X0258617Y0309371D01*
X0270428Y0309371D01*
X0267475Y0314292D02*
X0266491Y0314292D01*
X0259601Y0314292D01*
X0258054Y0314127D01*
X0258617Y0314292D01*
X0258617Y0318229D01*
X0258054Y0319127D01*
X0267475Y0314292D02*
X0268459Y0315276D01*
X0327514Y0315276D01*
X0329483Y0313308D01*
X0347199Y0313308D01*
X0342731Y0373938D02*
X0342278Y0374331D01*
X0243853Y0374331D01*
X0243223Y0373938D01*
X0242869Y0374331D01*
X0227120Y0374331D01*
X0224168Y0371379D01*
X0211372Y0371379D01*
X0201428Y0361965D02*
X0200546Y0361536D01*
X0175939Y0361536D01*
X0170526Y0366950D01*
X0167081Y0363505D01*
X0170526Y0366950D02*
X0168065Y0369410D01*
X0168065Y0376300D01*
X0166097Y0376300D01*
X0164128Y0378269D01*
X0112947Y0378269D01*
X0109010Y0374331D01*
X0105073Y0374331D01*
X0104325Y0373938D01*
X0104089Y0374331D01*
X0082435Y0374331D01*
X0074561Y0382206D01*
X0065703Y0382206D01*
X0065100Y0382477D01*
X0070624Y0284765D02*
X0052908Y0284765D01*
X0045034Y0276891D01*
X0070624Y0284765D02*
X0076530Y0278859D01*
X0077278Y0278454D01*
X0099168Y0234568D02*
X0100152Y0233583D01*
X0110979Y0233583D01*
X0115900Y0228662D01*
X0115900Y0227835D01*
X0115900Y0207993D02*
X0115900Y0207835D01*
X0115900Y0207993D02*
X0124758Y0207993D01*
X0125900Y0207835D01*
X0126727Y0207993D01*
X0140506Y0221772D01*
X0141428Y0221965D01*
X0142475Y0221772D01*
X0178892Y0221772D01*
X0254680Y0270985D02*
X0257632Y0273938D01*
X0258054Y0274127D01*
X0259601Y0277875D02*
X0262554Y0277875D01*
X0268459Y0271969D01*
X0259601Y0277875D02*
X0258617Y0278859D01*
X0258054Y0279127D01*
X0298971Y0199135D02*
X0298971Y0191261D01*
X0302908Y0191261D01*
X0304561Y0191682D01*
X0303892Y0191261D01*
X0296018Y0183387D01*
X0186766Y0132206D02*
X0172002Y0132206D01*
X0171428Y0131965D01*
X0115900Y0050513D02*
X0113931Y0048544D01*
X0071609Y0048544D01*
X0061766Y0038702D01*
X0060782Y0038702D01*
X0060467Y0038296D01*
X0059798Y0038702D01*
X0046018Y0038702D01*
X0166097Y0325119D02*
X0174955Y0325119D01*
X0174955Y0325198D01*
D25*
X0166097Y0325119D03*
X0157239Y0311339D03*
X0175939Y0306418D03*
X0189719Y0320198D03*
X0192672Y0339883D03*
X0192672Y0354646D03*
X0178892Y0345788D03*
X0172002Y0350709D03*
X0161176Y0362520D03*
X0167081Y0363505D03*
X0187750Y0385158D03*
X0194640Y0386143D03*
X0211372Y0371379D03*
X0221215Y0376300D03*
X0229089Y0361536D03*
X0215309Y0352678D03*
X0237947Y0336930D03*
X0260585Y0328072D03*
X0266491Y0314292D03*
X0270428Y0309371D03*
X0267475Y0304450D03*
X0266491Y0299528D03*
X0268459Y0282796D03*
X0268459Y0271969D03*
X0283223Y0288702D03*
X0290113Y0289686D03*
X0307829Y0294607D03*
X0335388Y0326103D03*
X0347199Y0313308D03*
X0353105Y0319213D03*
X0369837Y0343820D03*
X0377711Y0351694D03*
X0323577Y0379253D03*
X0244837Y0308387D03*
X0247790Y0282796D03*
X0239916Y0266064D03*
X0233026Y0259174D03*
X0219246Y0251300D03*
X0208420Y0251300D03*
X0195624Y0243426D03*
X0183813Y0252284D03*
X0173971Y0248347D03*
X0170034Y0259174D03*
X0187750Y0265080D03*
X0208420Y0267048D03*
X0247790Y0253269D03*
X0259601Y0232599D03*
X0273380Y0247363D03*
X0278302Y0248347D03*
X0288144Y0226694D03*
X0274365Y0217835D03*
X0274365Y0204056D03*
X0265506Y0204056D03*
X0273380Y0190276D03*
X0263538Y0182402D03*
X0259601Y0176497D03*
X0273380Y0177481D03*
X0283223Y0169607D03*
X0300939Y0166654D03*
X0309798Y0161733D03*
X0319640Y0157796D03*
X0331451Y0162717D03*
X0352120Y0151891D03*
X0354089Y0155828D03*
X0362947Y0141064D03*
X0367869Y0139095D03*
X0376727Y0136143D03*
X0352120Y0120394D03*
X0313735Y0076103D03*
X0299955Y0068229D03*
X0293065Y0084961D03*
X0268459Y0064292D03*
X0260585Y0046576D03*
X0264522Y0036733D03*
X0241884Y0054450D03*
X0219246Y0084961D03*
X0206451Y0081024D03*
X0195624Y0068229D03*
X0186766Y0074135D03*
X0182829Y0081024D03*
X0182829Y0057402D03*
X0168065Y0044607D03*
X0164128Y0046576D03*
X0161176Y0028859D03*
X0190703Y0024922D03*
X0202514Y0036733D03*
X0211372Y0024922D03*
X0218262Y0101694D03*
X0226136Y0116457D03*
X0216294Y0124331D03*
X0237947Y0126300D03*
X0243853Y0112520D03*
X0257632Y0110552D03*
X0254680Y0121379D03*
X0249758Y0140080D03*
X0239916Y0154843D03*
X0223183Y0171576D03*
X0228105Y0178465D03*
X0223183Y0187324D03*
X0221215Y0197166D03*
X0221215Y0202087D03*
X0234994Y0188308D03*
X0243853Y0194213D03*
X0247790Y0190276D03*
X0238931Y0199135D03*
X0194640Y0212914D03*
X0183813Y0207009D03*
X0178892Y0221772D03*
X0164128Y0228662D03*
X0146412Y0215867D03*
X0150349Y0204056D03*
X0129680Y0186339D03*
X0126727Y0170591D03*
X0118853Y0170591D03*
X0113931Y0170591D03*
X0116884Y0158780D03*
X0116884Y0153859D03*
X0115900Y0146969D03*
X0126727Y0161733D03*
X0137554Y0156812D03*
X0146412Y0158780D03*
X0154286Y0161733D03*
X0154286Y0170591D03*
X0166097Y0175513D03*
X0190703Y0170591D03*
X0194640Y0166654D03*
X0181845Y0137127D03*
X0186766Y0132206D03*
X0168065Y0114489D03*
X0154286Y0099725D03*
X0150349Y0115473D03*
X0150349Y0129253D03*
X0158223Y0137127D03*
X0129680Y0106615D03*
X0120821Y0106615D03*
X0110979Y0121379D03*
X0106057Y0120394D03*
X0120821Y0124331D03*
X0092278Y0147954D03*
X0103105Y0157796D03*
X0081451Y0157796D03*
X0071609Y0153859D03*
X0061766Y0152875D03*
X0052908Y0160749D03*
X0048971Y0151891D03*
X0040113Y0142048D03*
X0035191Y0131221D03*
X0030270Y0130237D03*
X0021412Y0135158D03*
X0031254Y0146969D03*
X0041097Y0168623D03*
X0041097Y0177481D03*
X0036176Y0185355D03*
X0029286Y0171576D03*
X0021412Y0185355D03*
X0047002Y0205040D03*
X0047002Y0220788D03*
X0041097Y0220788D03*
X0041097Y0231615D03*
X0026333Y0227678D03*
X0037160Y0248347D03*
X0047002Y0252284D03*
X0037160Y0262127D03*
X0033223Y0271969D03*
X0026333Y0262127D03*
X0018459Y0266064D03*
X0018459Y0273938D03*
X0005664Y0267048D03*
X0033223Y0294607D03*
X0038144Y0314292D03*
X0035191Y0318229D03*
X0027317Y0322166D03*
X0059798Y0329056D03*
X0081451Y0342835D03*
X0096215Y0340867D03*
X0104089Y0332993D03*
X0121806Y0336930D03*
X0127711Y0339883D03*
X0132632Y0329056D03*
X0127711Y0314292D03*
X0117869Y0302481D03*
X0127711Y0295591D03*
X0137554Y0276891D03*
X0138538Y0267048D03*
X0127711Y0260158D03*
X0123774Y0252284D03*
X0112947Y0264095D03*
X0101136Y0260158D03*
X0100152Y0251300D03*
X0101136Y0246379D03*
X0103105Y0240473D03*
X0099168Y0234568D03*
X0096215Y0230631D03*
X0087357Y0219804D03*
X0082435Y0219804D03*
X0082435Y0224725D03*
X0077514Y0210946D03*
X0071609Y0206024D03*
X0067672Y0194213D03*
X0081451Y0184371D03*
X0084404Y0191261D03*
X0084404Y0199135D03*
X0084404Y0205040D03*
X0103105Y0192245D03*
X0103105Y0186339D03*
X0105073Y0201103D03*
X0081451Y0175513D03*
X0067672Y0179450D03*
X0067672Y0169607D03*
X0050939Y0110552D03*
X0083420Y0097757D03*
X0087357Y0083977D03*
X0087357Y0078072D03*
X0109994Y0068229D03*
X0115900Y0050513D03*
X0133617Y0057402D03*
X0137554Y0073150D03*
X0106057Y0032796D03*
X0058813Y0052481D03*
X0061766Y0236536D03*
X0066687Y0246379D03*
X0072593Y0246379D03*
X0093262Y0252284D03*
X0116884Y0275906D03*
X0134601Y0236536D03*
X0077514Y0303465D03*
X0062750Y0295591D03*
X0045034Y0276891D03*
X0059798Y0360552D03*
X0081451Y0381221D03*
X0084404Y0385158D03*
X0090309Y0390080D03*
X0096215Y0381221D03*
X0100152Y0384174D03*
X0117869Y0383190D03*
X0128695Y0370394D03*
X0134601Y0373347D03*
X0156254Y0390080D03*
X0208026Y0310355D03*
X0318656Y0261143D03*
X0349168Y0256221D03*
X0352120Y0237520D03*
X0369837Y0235552D03*
X0350152Y0218820D03*
X0360979Y0203072D03*
X0368853Y0203072D03*
X0368853Y0175513D03*
X0329483Y0210946D03*
X0329483Y0218820D03*
X0324561Y0225709D03*
X0298971Y0199135D03*
X0294050Y0198150D03*
X0283223Y0149922D03*
X0297987Y0123347D03*
X0286176Y0110552D03*
X0278302Y0111536D03*
X0347199Y0066261D03*
X0373774Y0265080D03*
X0363931Y0290670D03*
X0341294Y0289686D03*
X0038144Y0364489D03*
D26*
X0059798Y0360552D02*
X0073577Y0346772D01*
X0090309Y0346772D01*
X0096215Y0340867D01*
X0104089Y0332993D02*
X0125743Y0332993D01*
X0139522Y0346772D01*
X0168065Y0346772D01*
X0172002Y0350709D01*
X0178892Y0345788D02*
X0184798Y0339883D01*
X0192672Y0339883D01*
X0201428Y0341965D02*
X0201530Y0341851D01*
X0219246Y0324135D01*
X0226136Y0324135D01*
X0227120Y0323150D01*
X0227120Y0265080D01*
X0222199Y0265080D01*
X0208420Y0251300D01*
X0201428Y0251965D02*
X0200546Y0252284D01*
X0196609Y0256221D01*
X0182829Y0256221D01*
X0181845Y0255237D01*
X0157239Y0255237D01*
X0155270Y0257206D01*
X0139522Y0257206D01*
X0138538Y0256221D01*
X0050939Y0256221D01*
X0047002Y0252284D01*
X0037160Y0248347D02*
X0064719Y0248347D01*
X0066687Y0246379D01*
X0072593Y0246379D02*
X0078498Y0252284D01*
X0093262Y0252284D01*
X0101136Y0246379D02*
X0114916Y0246379D01*
X0134601Y0226694D01*
X0162160Y0226694D01*
X0164128Y0228662D01*
X0171018Y0226694D02*
X0161176Y0236536D01*
X0134601Y0236536D01*
X0146412Y0215867D02*
X0146412Y0207009D01*
X0132632Y0207009D01*
X0127711Y0202087D01*
X0110979Y0202087D01*
X0106057Y0207009D01*
X0105900Y0207835D01*
X0097199Y0198150D02*
X0103105Y0192245D01*
X0103105Y0186339D02*
X0096215Y0193229D01*
X0092278Y0193229D01*
X0091294Y0194213D01*
X0090782Y0194587D01*
X0089325Y0191261D02*
X0084404Y0191261D01*
X0089325Y0191261D02*
X0090309Y0190276D01*
X0090782Y0189587D01*
X0090782Y0184587D02*
X0091294Y0184371D01*
X0093262Y0182402D01*
X0140506Y0182402D01*
X0141428Y0181965D01*
X0144443Y0177481D02*
X0151333Y0170591D01*
X0154286Y0170591D01*
X0154286Y0161733D02*
X0159207Y0156812D01*
X0195624Y0156812D01*
X0200546Y0161733D01*
X0201428Y0161965D01*
X0199561Y0166654D02*
X0206451Y0166654D01*
X0223183Y0149922D01*
X0283223Y0149922D01*
X0290113Y0151891D02*
X0352120Y0151891D01*
X0349168Y0153859D02*
X0351136Y0155828D01*
X0354089Y0155828D01*
X0349168Y0153859D02*
X0291097Y0153859D01*
X0283223Y0161733D01*
X0274365Y0161733D01*
X0259601Y0176497D01*
X0260585Y0180434D02*
X0267475Y0173544D01*
X0274365Y0173544D01*
X0290113Y0157796D01*
X0319640Y0157796D01*
X0331451Y0162717D02*
X0392475Y0162717D01*
X0392475Y0114489D01*
X0387554Y0109568D01*
X0382632Y0109568D01*
X0345231Y0072166D01*
X0210388Y0072166D01*
X0204483Y0078072D01*
X0185782Y0078072D01*
X0182829Y0081024D01*
X0174955Y0091851D02*
X0208420Y0091851D01*
X0218262Y0101694D01*
X0202514Y0102914D02*
X0202514Y0103662D01*
X0147396Y0103662D01*
X0147396Y0102914D01*
X0151333Y0114489D02*
X0150349Y0115473D01*
X0151333Y0114489D02*
X0168065Y0114489D01*
X0162160Y0132206D02*
X0161428Y0131965D01*
X0162160Y0132206D02*
X0167081Y0137127D01*
X0181845Y0137127D01*
X0161428Y0141965D02*
X0161176Y0142048D01*
X0159207Y0144017D01*
X0146412Y0144017D01*
X0143459Y0146969D01*
X0133617Y0146969D01*
X0117869Y0162717D01*
X0098183Y0162717D01*
X0095231Y0159765D01*
X0084404Y0159765D01*
X0082435Y0161733D01*
X0075546Y0161733D01*
X0071609Y0157796D01*
X0054876Y0157796D01*
X0053892Y0156812D01*
X0025349Y0156812D01*
X0012554Y0144017D01*
X0012294Y0143509D01*
X0021412Y0135158D02*
X0060782Y0135158D01*
X0065703Y0130237D01*
X0066530Y0129619D01*
X0081451Y0106615D02*
X0022396Y0106615D01*
X0014522Y0114489D01*
X0014424Y0114973D01*
X0030270Y0099725D02*
X0015506Y0084961D01*
X0014550Y0084910D01*
X0030270Y0099725D02*
X0077514Y0099725D01*
X0079483Y0101694D01*
X0083420Y0097757D01*
X0079483Y0101694D02*
X0106057Y0128269D01*
X0121806Y0128269D01*
X0122790Y0127284D01*
X0146412Y0127284D01*
X0146412Y0136143D01*
X0141491Y0141064D01*
X0141428Y0141965D01*
X0141428Y0131965D02*
X0140506Y0131221D01*
X0139522Y0130237D01*
X0105073Y0130237D01*
X0081451Y0106615D01*
X0100152Y0099725D02*
X0100152Y0074135D01*
X0102120Y0074135D01*
X0108026Y0068229D01*
X0109994Y0068229D01*
X0110979Y0072166D02*
X0106057Y0077087D01*
X0105900Y0077914D01*
X0110979Y0072166D02*
X0136569Y0072166D01*
X0137554Y0073150D01*
X0164128Y0046576D02*
X0161176Y0043623D01*
X0096215Y0043623D01*
X0091294Y0038702D01*
X0090467Y0038296D01*
X0100467Y0038296D02*
X0101136Y0038702D01*
X0162160Y0038702D01*
X0168065Y0044607D01*
X0161176Y0028859D02*
X0287160Y0028859D01*
X0288144Y0027875D01*
X0288813Y0027296D01*
X0309798Y0018032D02*
X0318656Y0026891D01*
X0318813Y0027296D01*
X0309798Y0018032D02*
X0197593Y0018032D01*
X0190703Y0024922D01*
X0161176Y0028859D02*
X0153302Y0020985D01*
X0066687Y0020985D01*
X0060782Y0026891D01*
X0060467Y0027296D01*
X0106057Y0032796D02*
X0260585Y0032796D01*
X0264522Y0036733D01*
X0268459Y0064292D02*
X0107042Y0064292D01*
X0087357Y0083977D01*
X0100152Y0099725D02*
X0104089Y0103662D01*
X0117869Y0103662D01*
X0120821Y0106615D01*
X0150349Y0129253D02*
X0158223Y0137127D01*
X0137554Y0156812D02*
X0126727Y0156812D01*
X0118853Y0164686D01*
X0097199Y0164686D01*
X0094246Y0161733D01*
X0087357Y0161733D01*
X0085388Y0163702D01*
X0074561Y0163702D01*
X0072593Y0161733D01*
X0053892Y0161733D01*
X0052908Y0160749D01*
X0021412Y0185355D02*
X0050939Y0214883D01*
X0082435Y0214883D01*
X0087357Y0219804D01*
X0082435Y0219804D02*
X0081451Y0220788D01*
X0047002Y0220788D01*
X0071609Y0206024D02*
X0077514Y0206024D01*
X0080467Y0208977D01*
X0090309Y0208977D01*
X0090782Y0209587D01*
X0090309Y0205040D02*
X0084404Y0205040D01*
X0090309Y0205040D02*
X0090782Y0204587D01*
X0090782Y0199587D02*
X0091294Y0199135D01*
X0092278Y0198150D01*
X0097199Y0198150D01*
X0091294Y0179450D02*
X0090782Y0179587D01*
X0091294Y0179450D02*
X0093262Y0177481D01*
X0144443Y0177481D01*
X0141428Y0171965D02*
X0140506Y0172560D01*
X0138538Y0174528D01*
X0091294Y0174528D01*
X0090782Y0174587D01*
X0113931Y0170591D02*
X0117869Y0166654D01*
X0194640Y0166654D01*
X0195624Y0162717D02*
X0199561Y0166654D01*
X0195624Y0162717D02*
X0172002Y0162717D01*
X0171428Y0161965D01*
X0166097Y0175513D02*
X0167081Y0176497D01*
X0184798Y0176497D01*
X0190703Y0170591D01*
X0196609Y0176497D02*
X0225152Y0176497D01*
X0241884Y0159765D01*
X0282239Y0159765D01*
X0290113Y0151891D01*
X0289128Y0131221D02*
X0308813Y0131221D01*
X0313735Y0126300D01*
X0314561Y0125761D01*
X0289128Y0131221D02*
X0283223Y0125316D01*
X0238931Y0125316D01*
X0237947Y0126300D01*
X0224010Y0077914D02*
X0223183Y0078072D01*
X0209404Y0078072D01*
X0206451Y0081024D01*
X0182829Y0057402D02*
X0185782Y0054450D01*
X0241884Y0054450D01*
X0286176Y0110552D02*
X0287160Y0111536D01*
X0386569Y0111536D01*
X0390506Y0115473D01*
X0390506Y0156812D01*
X0384601Y0156812D01*
X0384369Y0157501D01*
X0384431Y0171221D02*
X0383617Y0171576D01*
X0313735Y0171576D01*
X0304876Y0180434D01*
X0304561Y0180682D01*
X0294050Y0198150D02*
X0242869Y0198150D01*
X0237947Y0193229D01*
X0202514Y0193229D01*
X0201530Y0192245D01*
X0201428Y0191965D01*
X0197593Y0189292D02*
X0199561Y0187324D01*
X0223183Y0187324D01*
X0230073Y0180434D02*
X0260585Y0180434D01*
X0263538Y0182402D02*
X0201530Y0182402D01*
X0201428Y0181965D01*
X0196609Y0183387D02*
X0196609Y0176497D01*
X0201428Y0171965D02*
X0201530Y0171576D01*
X0223183Y0171576D01*
X0228105Y0178465D02*
X0230073Y0180434D01*
X0236963Y0186339D02*
X0234994Y0188308D01*
X0236963Y0186339D02*
X0264522Y0186339D01*
X0273380Y0177481D01*
X0273380Y0190276D02*
X0247790Y0190276D01*
X0238931Y0199135D02*
X0239916Y0200119D01*
X0291097Y0200119D01*
X0301924Y0210946D01*
X0329483Y0210946D01*
X0329483Y0218820D02*
X0286176Y0218820D01*
X0281254Y0213898D01*
X0273380Y0213898D01*
X0239916Y0247363D01*
X0199561Y0247363D01*
X0195624Y0243426D01*
X0201428Y0241965D02*
X0201530Y0241457D01*
X0204483Y0238505D01*
X0245821Y0238505D01*
X0265506Y0218820D01*
X0265506Y0204056D01*
X0274365Y0204056D02*
X0285191Y0214883D01*
X0351136Y0214883D01*
X0359994Y0223741D01*
X0360979Y0223741D01*
X0360979Y0265080D01*
X0359994Y0266064D01*
X0359994Y0282796D01*
X0359203Y0282954D01*
X0383617Y0299528D02*
X0384117Y0299131D01*
X0383617Y0299528D02*
X0293065Y0299528D01*
X0287160Y0305434D01*
X0287002Y0306418D01*
X0244837Y0308387D02*
X0201530Y0351694D01*
X0201428Y0351965D01*
X0197593Y0356615D02*
X0235979Y0356615D01*
X0239916Y0360552D01*
X0262120Y0360552D01*
X0361628Y0360552D01*
X0291097Y0252284D02*
X0253695Y0252284D01*
X0239916Y0266064D01*
X0233026Y0259174D02*
X0259601Y0232599D01*
X0274365Y0217835D02*
X0279286Y0222757D01*
X0322593Y0222757D01*
X0323577Y0221772D01*
X0325546Y0221772D01*
X0334404Y0230631D01*
X0334404Y0235552D01*
X0334561Y0236158D01*
X0314561Y0236158D02*
X0313735Y0236536D01*
X0308813Y0241457D01*
X0301924Y0241457D01*
X0291097Y0252284D01*
X0224010Y0207835D02*
X0223183Y0207993D01*
X0222199Y0207993D01*
X0222199Y0217835D01*
X0203498Y0236536D01*
X0185782Y0236536D01*
X0173971Y0248347D01*
X0170034Y0259174D02*
X0172002Y0261143D01*
X0193656Y0261143D01*
X0199561Y0267048D01*
X0208420Y0267048D01*
X0208420Y0262127D02*
X0201530Y0262127D01*
X0201428Y0261965D01*
X0208420Y0262127D02*
X0220231Y0273938D01*
X0220258Y0274127D01*
X0218262Y0276891D02*
X0220231Y0278859D01*
X0220258Y0279127D01*
X0218262Y0276891D02*
X0206451Y0276891D01*
X0201530Y0271969D01*
X0201428Y0271965D01*
X0201428Y0281965D02*
X0201530Y0282796D01*
X0219246Y0282796D01*
X0220231Y0283780D01*
X0220258Y0284127D01*
X0220258Y0289127D02*
X0220231Y0289686D01*
X0219246Y0290670D01*
X0202514Y0290670D01*
X0201530Y0291654D01*
X0201428Y0291965D01*
X0207435Y0295591D02*
X0201530Y0301497D01*
X0201428Y0301965D01*
X0203498Y0306418D02*
X0202514Y0307402D01*
X0199561Y0307402D01*
X0196609Y0310355D01*
X0196609Y0321182D01*
X0200546Y0321182D01*
X0201428Y0321965D01*
X0201530Y0312324D02*
X0201428Y0311965D01*
X0201530Y0312324D02*
X0211372Y0322166D01*
X0225152Y0322166D01*
X0225152Y0302481D01*
X0223183Y0300513D01*
X0222199Y0300513D01*
X0221215Y0299528D01*
X0220258Y0299127D01*
X0219246Y0295591D02*
X0207435Y0295591D01*
X0203498Y0306418D02*
X0218262Y0306418D01*
X0220231Y0304450D01*
X0220258Y0304127D01*
X0220258Y0309127D02*
X0220231Y0309371D01*
X0219246Y0310355D01*
X0208026Y0310355D01*
X0219246Y0295591D02*
X0220231Y0294607D01*
X0220258Y0294127D01*
X0187750Y0265080D02*
X0185782Y0267048D01*
X0138538Y0267048D01*
X0140506Y0271969D02*
X0141428Y0271965D01*
X0140506Y0271969D02*
X0116884Y0271969D01*
X0115900Y0272954D01*
X0034207Y0272954D01*
X0033223Y0271969D01*
X0021412Y0268032D02*
X0019443Y0270001D01*
X0017475Y0270001D01*
X0013538Y0273938D01*
X0013538Y0279843D01*
X0012829Y0280631D01*
X0018459Y0273938D02*
X0032239Y0287717D01*
X0072593Y0287717D01*
X0073577Y0286733D01*
X0157239Y0286733D01*
X0161176Y0282796D01*
X0161428Y0281965D01*
X0156254Y0276891D02*
X0137554Y0276891D01*
X0127711Y0260158D02*
X0101136Y0260158D01*
X0116884Y0275906D02*
X0108026Y0284765D01*
X0093262Y0284765D01*
X0087357Y0278859D01*
X0087278Y0278454D01*
X0067278Y0267454D02*
X0066687Y0267048D01*
X0061766Y0262127D01*
X0054876Y0262127D01*
X0050939Y0266064D01*
X0018459Y0266064D01*
X0021412Y0268032D02*
X0056845Y0268032D01*
X0057278Y0267454D01*
X0062750Y0295591D02*
X0127711Y0295591D01*
X0117869Y0302481D02*
X0114916Y0299528D01*
X0052908Y0299528D01*
X0047002Y0305434D01*
X0046845Y0306418D01*
X0046018Y0306418D01*
X0042081Y0310355D01*
X0013538Y0310355D01*
X0013026Y0310800D01*
X0059798Y0329056D02*
X0060782Y0328072D01*
X0131648Y0328072D01*
X0132632Y0329056D01*
X0160191Y0358583D02*
X0195624Y0358583D01*
X0197593Y0356615D01*
X0160191Y0358583D02*
X0152317Y0366457D01*
X0129680Y0366457D01*
X0123774Y0360552D01*
X0123223Y0360552D01*
X0156254Y0276891D02*
X0161176Y0271969D01*
X0161428Y0271965D01*
X0201428Y0231965D02*
X0201530Y0231615D01*
X0204483Y0228662D01*
X0207435Y0228662D01*
X0218262Y0217835D01*
X0218262Y0202087D01*
X0221215Y0202087D01*
X0221215Y0197166D02*
X0175939Y0197166D01*
X0172002Y0201103D01*
X0171428Y0201965D01*
X0172987Y0197166D02*
X0180861Y0189292D01*
X0197593Y0189292D01*
X0192672Y0187324D02*
X0196609Y0183387D01*
X0192672Y0187324D02*
X0175939Y0187324D01*
X0172002Y0191261D01*
X0171428Y0191965D01*
X0172987Y0197166D02*
X0166097Y0197166D01*
X0162160Y0201103D01*
X0161428Y0201965D01*
X0167081Y0207009D02*
X0162160Y0211930D01*
X0161428Y0211965D01*
X0159207Y0216851D02*
X0156254Y0213898D01*
X0156254Y0187324D01*
X0172987Y0187324D01*
X0177908Y0182402D01*
X0180861Y0182402D01*
X0181428Y0181965D01*
X0183813Y0207009D02*
X0167081Y0207009D01*
X0171428Y0211965D02*
X0172002Y0212914D01*
X0194640Y0212914D01*
X0195624Y0216851D02*
X0159207Y0216851D01*
X0171018Y0226694D02*
X0206451Y0226694D01*
X0206451Y0217835D01*
X0201530Y0212914D01*
X0201428Y0211965D01*
X0195624Y0216851D02*
X0200546Y0221772D01*
X0201428Y0221965D01*
X0141428Y0161965D02*
X0140506Y0161733D01*
X0126727Y0161733D01*
X0126727Y0170591D02*
X0118853Y0170591D01*
D27*
X0117869Y0158780D02*
X0116884Y0158780D01*
X0117869Y0158780D02*
X0120821Y0155828D01*
X0120821Y0145985D01*
X0117869Y0143032D01*
X0109994Y0143032D01*
X0097199Y0130237D01*
X0096530Y0129619D01*
X0106057Y0120394D02*
X0115900Y0110552D01*
X0132632Y0110552D01*
X0145428Y0097757D01*
X0153302Y0097757D01*
X0154286Y0098741D01*
X0154286Y0099725D01*
X0155270Y0098741D01*
X0199561Y0098741D01*
X0200546Y0097757D01*
X0208420Y0097757D01*
X0216294Y0105631D01*
X0272396Y0105631D01*
X0293065Y0084961D01*
X0299955Y0068229D02*
X0195624Y0068229D01*
X0219246Y0084961D02*
X0151333Y0084961D01*
X0129680Y0106615D01*
X0158223Y0146969D02*
X0215309Y0146969D01*
X0222199Y0140080D01*
X0249758Y0140080D01*
X0257632Y0140080D02*
X0297987Y0140080D01*
X0305861Y0147954D01*
X0382632Y0147954D01*
X0383369Y0147501D01*
X0384369Y0137501D02*
X0383617Y0137127D01*
X0369837Y0123347D01*
X0355073Y0123347D01*
X0352120Y0120394D01*
X0355073Y0126300D02*
X0345231Y0126300D01*
X0344561Y0125761D01*
X0344246Y0125316D01*
X0334404Y0115473D01*
X0260585Y0115473D01*
X0254680Y0121379D01*
X0247790Y0130237D02*
X0257632Y0140080D01*
X0247790Y0130237D02*
X0202514Y0130237D01*
X0201530Y0131221D01*
X0201428Y0131965D01*
X0161428Y0171965D02*
X0161176Y0172560D01*
X0157239Y0176497D01*
X0149365Y0176497D01*
X0146412Y0179450D01*
X0146412Y0204056D01*
X0150349Y0204056D01*
X0141428Y0191965D02*
X0140506Y0191261D01*
X0135585Y0186339D01*
X0129680Y0186339D01*
X0105073Y0201103D02*
X0096215Y0209961D01*
X0096215Y0226694D01*
X0086372Y0226694D01*
X0084404Y0228662D01*
X0044050Y0228662D01*
X0043065Y0227678D01*
X0026333Y0227678D01*
X0014522Y0231615D02*
X0013557Y0231820D01*
X0014522Y0231615D02*
X0041097Y0231615D01*
X0095231Y0231615D01*
X0096215Y0230631D01*
X0082435Y0224725D02*
X0045034Y0224725D01*
X0041097Y0220788D01*
X0012557Y0221820D02*
X0012554Y0222757D01*
X0007632Y0222757D01*
X0007632Y0244410D01*
X0011569Y0248347D01*
X0011569Y0251300D01*
X0012380Y0251891D01*
X0005664Y0247363D02*
X0004680Y0246379D01*
X0004680Y0163702D01*
X0011569Y0163702D01*
X0012294Y0163509D01*
X0013538Y0172560D02*
X0013294Y0173509D01*
X0013538Y0172560D02*
X0028302Y0172560D01*
X0029286Y0171576D01*
X0041097Y0177481D02*
X0017475Y0153859D01*
X0013538Y0153859D01*
X0013294Y0153509D01*
X0031254Y0146969D02*
X0059798Y0146969D01*
X0065703Y0141064D01*
X0066530Y0140619D01*
X0050939Y0110552D02*
X0049955Y0110552D01*
X0030270Y0130237D01*
X0072593Y0078072D02*
X0087357Y0078072D01*
X0072593Y0078072D02*
X0056845Y0062324D01*
X0056845Y0062324D01*
X0066845Y0062324D02*
X0067672Y0061339D01*
X0265506Y0061339D01*
X0270428Y0056418D01*
X0297987Y0056418D01*
X0302908Y0061339D01*
X0303065Y0062324D01*
X0303892Y0062324D01*
X0381648Y0062324D01*
X0382632Y0063308D01*
X0383424Y0063434D01*
X0390506Y0067245D02*
X0384601Y0073150D01*
X0384424Y0073434D01*
X0390506Y0067245D02*
X0390506Y0047560D01*
X0320624Y0047560D01*
X0320132Y0047068D01*
X0316687Y0050513D01*
X0140506Y0050513D01*
X0133617Y0057402D01*
X0158223Y0146969D02*
X0146412Y0158780D01*
X0141428Y0251965D02*
X0141491Y0252284D01*
X0183813Y0252284D01*
X0141428Y0291965D02*
X0141491Y0292639D01*
X0156254Y0307402D01*
X0174955Y0307402D01*
X0175939Y0306418D01*
X0166097Y0320198D02*
X0189719Y0320198D01*
X0166097Y0320198D02*
X0157239Y0311339D01*
X0146412Y0307402D02*
X0146412Y0343820D01*
X0171018Y0343820D01*
X0181845Y0354646D01*
X0192672Y0354646D01*
X0215309Y0352678D02*
X0244837Y0323150D01*
X0332435Y0323150D01*
X0336372Y0319213D01*
X0353105Y0319213D01*
X0383617Y0319213D01*
X0384117Y0319131D01*
X0383117Y0309131D02*
X0382632Y0308387D01*
X0309798Y0308387D01*
X0307829Y0306418D01*
X0307002Y0306418D01*
X0307829Y0294607D02*
X0379680Y0294607D01*
X0381648Y0292639D01*
X0386569Y0292639D01*
X0390506Y0296576D01*
X0390506Y0368426D01*
X0367869Y0368426D01*
X0344246Y0392048D01*
X0194640Y0392048D01*
X0187750Y0385158D01*
X0194640Y0386143D02*
X0197593Y0389095D01*
X0313735Y0389095D01*
X0323577Y0379253D01*
X0369837Y0343820D02*
X0377711Y0351694D01*
X0383617Y0348741D02*
X0384160Y0349103D01*
X0383617Y0348741D02*
X0360979Y0326103D01*
X0335388Y0326103D01*
X0363931Y0290670D02*
X0368853Y0285749D01*
X0383617Y0285749D01*
X0384180Y0285182D01*
X0373774Y0265080D02*
X0383617Y0255237D01*
X0384282Y0255202D01*
X0369837Y0235552D02*
X0383617Y0221772D01*
X0384353Y0221190D01*
X0383353Y0211190D02*
X0382632Y0210946D01*
X0378695Y0207009D01*
X0329483Y0207009D01*
X0314719Y0192245D01*
X0314561Y0191682D01*
X0344561Y0191682D02*
X0345231Y0192245D01*
X0356057Y0203072D01*
X0360979Y0203072D01*
X0366884Y0203072D02*
X0368853Y0203072D01*
X0366884Y0203072D02*
X0345231Y0181418D01*
X0344561Y0180682D01*
X0368853Y0175513D02*
X0383617Y0190276D01*
X0384431Y0191221D01*
X0367869Y0145001D02*
X0376727Y0136143D01*
X0367869Y0139095D02*
X0355073Y0126300D01*
X0345231Y0137127D02*
X0344561Y0136761D01*
X0345231Y0137127D02*
X0349168Y0141064D01*
X0362947Y0141064D01*
X0367869Y0145001D02*
X0322593Y0145001D01*
X0314719Y0137127D01*
X0314561Y0136761D01*
X0383617Y0102678D02*
X0347199Y0066261D01*
X0320132Y0047068D02*
X0328498Y0038702D01*
X0328813Y0038296D01*
X0383617Y0102678D02*
X0384514Y0103485D01*
X0352120Y0237520D02*
X0352120Y0246379D01*
X0345231Y0246379D01*
X0344561Y0247158D01*
X0161176Y0362520D02*
X0150349Y0373347D01*
X0134601Y0373347D01*
X0128695Y0370394D02*
X0114916Y0370394D01*
X0108026Y0363505D01*
X0062750Y0363505D01*
X0061766Y0364489D01*
X0038144Y0364489D01*
X0013538Y0350709D02*
X0051924Y0389095D01*
X0072593Y0389095D01*
X0076530Y0385158D01*
X0084404Y0385158D01*
X0099168Y0385158D01*
X0100152Y0384174D01*
X0096215Y0381221D02*
X0081451Y0381221D01*
X0081451Y0342835D02*
X0087357Y0336930D01*
X0121806Y0336930D01*
X0127711Y0339883D02*
X0128695Y0339883D01*
X0140506Y0351694D01*
X0141428Y0351965D01*
X0141428Y0331965D02*
X0140506Y0331024D01*
X0134601Y0325119D01*
X0030270Y0325119D01*
X0029286Y0326103D01*
X0025349Y0326103D01*
X0023380Y0324135D01*
X0023380Y0313308D01*
X0038144Y0313308D01*
X0038144Y0314292D01*
X0038144Y0313308D02*
X0049955Y0313308D01*
X0056845Y0306418D01*
X0056845Y0306418D01*
X0066845Y0306418D02*
X0067672Y0306418D01*
X0077514Y0306418D01*
X0077514Y0303465D01*
X0077514Y0306418D02*
X0119837Y0306418D01*
X0121313Y0307894D01*
X0131648Y0297560D01*
X0131648Y0290670D01*
X0012554Y0290670D01*
X0011829Y0290631D01*
X0011569Y0290670D01*
X0006648Y0295591D01*
X0006648Y0320198D01*
X0011569Y0320198D01*
X0012026Y0320800D01*
X0013026Y0330800D02*
X0013538Y0331024D01*
X0013538Y0350709D01*
X0027317Y0322166D02*
X0140506Y0322166D01*
X0141428Y0321965D01*
X0134601Y0318229D02*
X0140506Y0312324D01*
X0141428Y0311965D01*
X0146412Y0307402D02*
X0141491Y0302481D01*
X0141428Y0301965D01*
X0127711Y0314292D02*
X0121313Y0307894D01*
X0134601Y0318229D02*
X0035191Y0318229D01*
X0013538Y0300513D02*
X0012829Y0300631D01*
X0013538Y0300513D02*
X0019443Y0294607D01*
X0033223Y0294607D01*
X0005664Y0267048D02*
X0005664Y0247363D01*
X0013380Y0261891D02*
X0013538Y0262127D01*
X0026333Y0262127D01*
X0037160Y0262127D02*
X0040113Y0259174D01*
X0089325Y0259174D01*
X0097199Y0267048D01*
X0097278Y0267454D01*
X0098183Y0267048D01*
X0101136Y0264095D01*
X0112947Y0264095D01*
X0123774Y0252284D02*
X0122790Y0251300D01*
X0100152Y0251300D01*
D28*
X0103105Y0240473D02*
X0065703Y0240473D01*
X0061766Y0236536D01*
X0067672Y0169607D02*
X0090309Y0169607D01*
X0090782Y0169587D01*
X0061766Y0152875D02*
X0060782Y0151891D01*
X0048971Y0151891D01*
X0018459Y0074135D02*
X0014522Y0074135D01*
X0013550Y0074910D01*
X0018459Y0074135D02*
X0038144Y0054450D01*
X0056845Y0054450D01*
X0058813Y0052481D01*
X0174955Y0110355D02*
X0174955Y0110552D01*
X0243853Y0110552D01*
X0243853Y0112520D01*
X0243853Y0110552D02*
X0257632Y0110552D01*
X0239916Y0154843D02*
X0230073Y0164686D01*
X0229680Y0165001D01*
X0268459Y0282796D02*
X0289128Y0282796D01*
X0289203Y0282954D01*
X0319203Y0282954D02*
X0319640Y0283780D01*
X0325546Y0289686D01*
X0341294Y0289686D01*
X0260585Y0328072D02*
X0251727Y0336930D01*
X0237947Y0336930D01*
X0229089Y0361536D02*
X0213341Y0361536D01*
X0205467Y0369410D01*
X0175939Y0369410D01*
X0174955Y0370394D01*
X0174955Y0370631D01*
X0172987Y0379253D02*
X0169050Y0383190D01*
X0117869Y0383190D01*
X0090309Y0390080D02*
X0156254Y0390080D01*
X0172987Y0379253D02*
X0218262Y0379253D01*
X0221215Y0376300D01*
D29*
X0219585Y0314800D02*
X0212227Y0314800D01*
X0219585Y0314800D02*
X0220258Y0314127D01*
D30*
X0212227Y0314800D03*
M02*
