G75*
%MOIN*%
%OFA0B0*%
%FSLAX25Y25*%
%IPPOS*%
%LPD*%
%AMOC8*
5,1,8,0,0,1.08239X$1,22.5*
%
%ADD10C,0.00600*%
%ADD11C,0.00000*%
D10*
X0001727Y0013111D02*
X0001727Y0383190D01*
X0001730Y0383475D01*
X0001741Y0383761D01*
X0001758Y0384046D01*
X0001782Y0384330D01*
X0001813Y0384614D01*
X0001851Y0384897D01*
X0001896Y0385178D01*
X0001947Y0385459D01*
X0002005Y0385739D01*
X0002070Y0386017D01*
X0002142Y0386293D01*
X0002220Y0386567D01*
X0002305Y0386840D01*
X0002397Y0387110D01*
X0002495Y0387378D01*
X0002599Y0387644D01*
X0002710Y0387907D01*
X0002827Y0388167D01*
X0002950Y0388425D01*
X0003080Y0388679D01*
X0003216Y0388930D01*
X0003357Y0389178D01*
X0003505Y0389422D01*
X0003658Y0389663D01*
X0003818Y0389899D01*
X0003983Y0390132D01*
X0004153Y0390361D01*
X0004329Y0390586D01*
X0004511Y0390806D01*
X0004697Y0391022D01*
X0004889Y0391233D01*
X0005086Y0391440D01*
X0005288Y0391642D01*
X0005495Y0391839D01*
X0005706Y0392031D01*
X0005922Y0392217D01*
X0006142Y0392399D01*
X0006367Y0392575D01*
X0006596Y0392745D01*
X0006829Y0392910D01*
X0007065Y0393070D01*
X0007306Y0393223D01*
X0007550Y0393371D01*
X0007798Y0393512D01*
X0008049Y0393648D01*
X0008303Y0393778D01*
X0008561Y0393901D01*
X0008821Y0394018D01*
X0009084Y0394129D01*
X0009350Y0394233D01*
X0009618Y0394331D01*
X0009888Y0394423D01*
X0010161Y0394508D01*
X0010435Y0394586D01*
X0010711Y0394658D01*
X0010989Y0394723D01*
X0011269Y0394781D01*
X0011550Y0394832D01*
X0011831Y0394877D01*
X0012114Y0394915D01*
X0012398Y0394946D01*
X0012682Y0394970D01*
X0012967Y0394987D01*
X0013253Y0394998D01*
X0013538Y0395001D01*
X0383617Y0395001D01*
X0383616Y0395000D02*
X0383950Y0394948D01*
X0384283Y0394888D01*
X0384614Y0394820D01*
X0384943Y0394744D01*
X0385271Y0394660D01*
X0385596Y0394568D01*
X0385919Y0394469D01*
X0386239Y0394361D01*
X0386557Y0394246D01*
X0386872Y0394123D01*
X0387184Y0393992D01*
X0387492Y0393854D01*
X0387797Y0393708D01*
X0388098Y0393555D01*
X0388396Y0393395D01*
X0388690Y0393227D01*
X0388979Y0393053D01*
X0389264Y0392871D01*
X0389545Y0392683D01*
X0389821Y0392488D01*
X0390092Y0392286D01*
X0390358Y0392078D01*
X0390619Y0391863D01*
X0390875Y0391642D01*
X0391125Y0391415D01*
X0391370Y0391182D01*
X0391609Y0390943D01*
X0391842Y0390698D01*
X0392069Y0390448D01*
X0392290Y0390192D01*
X0392505Y0389931D01*
X0392713Y0389665D01*
X0392915Y0389394D01*
X0393110Y0389118D01*
X0393298Y0388837D01*
X0393480Y0388552D01*
X0393654Y0388263D01*
X0393822Y0387969D01*
X0393982Y0387671D01*
X0394135Y0387370D01*
X0394281Y0387065D01*
X0394419Y0386757D01*
X0394550Y0386445D01*
X0394673Y0386130D01*
X0394788Y0385812D01*
X0394896Y0385492D01*
X0394995Y0385169D01*
X0395087Y0384844D01*
X0395171Y0384516D01*
X0395247Y0384187D01*
X0395315Y0383856D01*
X0395375Y0383523D01*
X0395427Y0383189D01*
X0395428Y0383190D02*
X0395428Y0013111D01*
X0395425Y0012826D01*
X0395414Y0012540D01*
X0395397Y0012255D01*
X0395373Y0011971D01*
X0395342Y0011687D01*
X0395304Y0011404D01*
X0395259Y0011123D01*
X0395208Y0010842D01*
X0395150Y0010562D01*
X0395085Y0010284D01*
X0395013Y0010008D01*
X0394935Y0009734D01*
X0394850Y0009461D01*
X0394758Y0009191D01*
X0394660Y0008923D01*
X0394556Y0008657D01*
X0394445Y0008394D01*
X0394328Y0008134D01*
X0394205Y0007876D01*
X0394075Y0007622D01*
X0393939Y0007371D01*
X0393798Y0007123D01*
X0393650Y0006879D01*
X0393497Y0006638D01*
X0393337Y0006402D01*
X0393172Y0006169D01*
X0393002Y0005940D01*
X0392826Y0005715D01*
X0392644Y0005495D01*
X0392458Y0005279D01*
X0392266Y0005068D01*
X0392069Y0004861D01*
X0391867Y0004659D01*
X0391660Y0004462D01*
X0391449Y0004270D01*
X0391233Y0004084D01*
X0391013Y0003902D01*
X0390788Y0003726D01*
X0390559Y0003556D01*
X0390326Y0003391D01*
X0390090Y0003231D01*
X0389849Y0003078D01*
X0389605Y0002930D01*
X0389357Y0002789D01*
X0389106Y0002653D01*
X0388852Y0002523D01*
X0388594Y0002400D01*
X0388334Y0002283D01*
X0388071Y0002172D01*
X0387805Y0002068D01*
X0387537Y0001970D01*
X0387267Y0001878D01*
X0386994Y0001793D01*
X0386720Y0001715D01*
X0386444Y0001643D01*
X0386166Y0001578D01*
X0385886Y0001520D01*
X0385605Y0001469D01*
X0385324Y0001424D01*
X0385041Y0001386D01*
X0384757Y0001355D01*
X0384473Y0001331D01*
X0384188Y0001314D01*
X0383902Y0001303D01*
X0383617Y0001300D01*
X0013538Y0001300D01*
X0013253Y0001303D01*
X0012967Y0001314D01*
X0012682Y0001331D01*
X0012398Y0001355D01*
X0012114Y0001386D01*
X0011831Y0001424D01*
X0011550Y0001469D01*
X0011269Y0001520D01*
X0010989Y0001578D01*
X0010711Y0001643D01*
X0010435Y0001715D01*
X0010161Y0001793D01*
X0009888Y0001878D01*
X0009618Y0001970D01*
X0009350Y0002068D01*
X0009084Y0002172D01*
X0008821Y0002283D01*
X0008561Y0002400D01*
X0008303Y0002523D01*
X0008049Y0002653D01*
X0007798Y0002789D01*
X0007550Y0002930D01*
X0007306Y0003078D01*
X0007065Y0003231D01*
X0006829Y0003391D01*
X0006596Y0003556D01*
X0006367Y0003726D01*
X0006142Y0003902D01*
X0005922Y0004084D01*
X0005706Y0004270D01*
X0005495Y0004462D01*
X0005288Y0004659D01*
X0005086Y0004861D01*
X0004889Y0005068D01*
X0004697Y0005279D01*
X0004511Y0005495D01*
X0004329Y0005715D01*
X0004153Y0005940D01*
X0003983Y0006169D01*
X0003818Y0006402D01*
X0003658Y0006638D01*
X0003505Y0006879D01*
X0003357Y0007123D01*
X0003216Y0007371D01*
X0003080Y0007622D01*
X0002950Y0007876D01*
X0002827Y0008134D01*
X0002710Y0008394D01*
X0002599Y0008657D01*
X0002495Y0008923D01*
X0002397Y0009191D01*
X0002305Y0009461D01*
X0002220Y0009734D01*
X0002142Y0010008D01*
X0002070Y0010284D01*
X0002005Y0010562D01*
X0001947Y0010842D01*
X0001896Y0011123D01*
X0001851Y0011404D01*
X0001813Y0011687D01*
X0001782Y0011971D01*
X0001758Y0012255D01*
X0001741Y0012540D01*
X0001730Y0012826D01*
X0001727Y0013111D01*
D11*
X0013538Y0020985D02*
X0013540Y0021178D01*
X0013547Y0021371D01*
X0013559Y0021564D01*
X0013576Y0021757D01*
X0013597Y0021949D01*
X0013623Y0022140D01*
X0013654Y0022331D01*
X0013689Y0022521D01*
X0013729Y0022710D01*
X0013774Y0022898D01*
X0013823Y0023085D01*
X0013877Y0023271D01*
X0013935Y0023455D01*
X0013998Y0023638D01*
X0014066Y0023819D01*
X0014137Y0023998D01*
X0014214Y0024176D01*
X0014294Y0024352D01*
X0014379Y0024525D01*
X0014468Y0024697D01*
X0014561Y0024866D01*
X0014658Y0025033D01*
X0014760Y0025198D01*
X0014865Y0025360D01*
X0014974Y0025519D01*
X0015088Y0025676D01*
X0015205Y0025829D01*
X0015325Y0025980D01*
X0015450Y0026128D01*
X0015578Y0026273D01*
X0015709Y0026414D01*
X0015844Y0026553D01*
X0015983Y0026688D01*
X0016124Y0026819D01*
X0016269Y0026947D01*
X0016417Y0027072D01*
X0016568Y0027192D01*
X0016721Y0027309D01*
X0016878Y0027423D01*
X0017037Y0027532D01*
X0017199Y0027637D01*
X0017364Y0027739D01*
X0017531Y0027836D01*
X0017700Y0027929D01*
X0017872Y0028018D01*
X0018045Y0028103D01*
X0018221Y0028183D01*
X0018399Y0028260D01*
X0018578Y0028331D01*
X0018759Y0028399D01*
X0018942Y0028462D01*
X0019126Y0028520D01*
X0019312Y0028574D01*
X0019499Y0028623D01*
X0019687Y0028668D01*
X0019876Y0028708D01*
X0020066Y0028743D01*
X0020257Y0028774D01*
X0020448Y0028800D01*
X0020640Y0028821D01*
X0020833Y0028838D01*
X0021026Y0028850D01*
X0021219Y0028857D01*
X0021412Y0028859D01*
X0021605Y0028857D01*
X0021798Y0028850D01*
X0021991Y0028838D01*
X0022184Y0028821D01*
X0022376Y0028800D01*
X0022567Y0028774D01*
X0022758Y0028743D01*
X0022948Y0028708D01*
X0023137Y0028668D01*
X0023325Y0028623D01*
X0023512Y0028574D01*
X0023698Y0028520D01*
X0023882Y0028462D01*
X0024065Y0028399D01*
X0024246Y0028331D01*
X0024425Y0028260D01*
X0024603Y0028183D01*
X0024779Y0028103D01*
X0024952Y0028018D01*
X0025124Y0027929D01*
X0025293Y0027836D01*
X0025460Y0027739D01*
X0025625Y0027637D01*
X0025787Y0027532D01*
X0025946Y0027423D01*
X0026103Y0027309D01*
X0026256Y0027192D01*
X0026407Y0027072D01*
X0026555Y0026947D01*
X0026700Y0026819D01*
X0026841Y0026688D01*
X0026980Y0026553D01*
X0027115Y0026414D01*
X0027246Y0026273D01*
X0027374Y0026128D01*
X0027499Y0025980D01*
X0027619Y0025829D01*
X0027736Y0025676D01*
X0027850Y0025519D01*
X0027959Y0025360D01*
X0028064Y0025198D01*
X0028166Y0025033D01*
X0028263Y0024866D01*
X0028356Y0024697D01*
X0028445Y0024525D01*
X0028530Y0024352D01*
X0028610Y0024176D01*
X0028687Y0023998D01*
X0028758Y0023819D01*
X0028826Y0023638D01*
X0028889Y0023455D01*
X0028947Y0023271D01*
X0029001Y0023085D01*
X0029050Y0022898D01*
X0029095Y0022710D01*
X0029135Y0022521D01*
X0029170Y0022331D01*
X0029201Y0022140D01*
X0029227Y0021949D01*
X0029248Y0021757D01*
X0029265Y0021564D01*
X0029277Y0021371D01*
X0029284Y0021178D01*
X0029286Y0020985D01*
X0029284Y0020792D01*
X0029277Y0020599D01*
X0029265Y0020406D01*
X0029248Y0020213D01*
X0029227Y0020021D01*
X0029201Y0019830D01*
X0029170Y0019639D01*
X0029135Y0019449D01*
X0029095Y0019260D01*
X0029050Y0019072D01*
X0029001Y0018885D01*
X0028947Y0018699D01*
X0028889Y0018515D01*
X0028826Y0018332D01*
X0028758Y0018151D01*
X0028687Y0017972D01*
X0028610Y0017794D01*
X0028530Y0017618D01*
X0028445Y0017445D01*
X0028356Y0017273D01*
X0028263Y0017104D01*
X0028166Y0016937D01*
X0028064Y0016772D01*
X0027959Y0016610D01*
X0027850Y0016451D01*
X0027736Y0016294D01*
X0027619Y0016141D01*
X0027499Y0015990D01*
X0027374Y0015842D01*
X0027246Y0015697D01*
X0027115Y0015556D01*
X0026980Y0015417D01*
X0026841Y0015282D01*
X0026700Y0015151D01*
X0026555Y0015023D01*
X0026407Y0014898D01*
X0026256Y0014778D01*
X0026103Y0014661D01*
X0025946Y0014547D01*
X0025787Y0014438D01*
X0025625Y0014333D01*
X0025460Y0014231D01*
X0025293Y0014134D01*
X0025124Y0014041D01*
X0024952Y0013952D01*
X0024779Y0013867D01*
X0024603Y0013787D01*
X0024425Y0013710D01*
X0024246Y0013639D01*
X0024065Y0013571D01*
X0023882Y0013508D01*
X0023698Y0013450D01*
X0023512Y0013396D01*
X0023325Y0013347D01*
X0023137Y0013302D01*
X0022948Y0013262D01*
X0022758Y0013227D01*
X0022567Y0013196D01*
X0022376Y0013170D01*
X0022184Y0013149D01*
X0021991Y0013132D01*
X0021798Y0013120D01*
X0021605Y0013113D01*
X0021412Y0013111D01*
X0021219Y0013113D01*
X0021026Y0013120D01*
X0020833Y0013132D01*
X0020640Y0013149D01*
X0020448Y0013170D01*
X0020257Y0013196D01*
X0020066Y0013227D01*
X0019876Y0013262D01*
X0019687Y0013302D01*
X0019499Y0013347D01*
X0019312Y0013396D01*
X0019126Y0013450D01*
X0018942Y0013508D01*
X0018759Y0013571D01*
X0018578Y0013639D01*
X0018399Y0013710D01*
X0018221Y0013787D01*
X0018045Y0013867D01*
X0017872Y0013952D01*
X0017700Y0014041D01*
X0017531Y0014134D01*
X0017364Y0014231D01*
X0017199Y0014333D01*
X0017037Y0014438D01*
X0016878Y0014547D01*
X0016721Y0014661D01*
X0016568Y0014778D01*
X0016417Y0014898D01*
X0016269Y0015023D01*
X0016124Y0015151D01*
X0015983Y0015282D01*
X0015844Y0015417D01*
X0015709Y0015556D01*
X0015578Y0015697D01*
X0015450Y0015842D01*
X0015325Y0015990D01*
X0015205Y0016141D01*
X0015088Y0016294D01*
X0014974Y0016451D01*
X0014865Y0016610D01*
X0014760Y0016772D01*
X0014658Y0016937D01*
X0014561Y0017104D01*
X0014468Y0017273D01*
X0014379Y0017445D01*
X0014294Y0017618D01*
X0014214Y0017794D01*
X0014137Y0017972D01*
X0014066Y0018151D01*
X0013998Y0018332D01*
X0013935Y0018515D01*
X0013877Y0018699D01*
X0013823Y0018885D01*
X0013774Y0019072D01*
X0013729Y0019260D01*
X0013689Y0019449D01*
X0013654Y0019639D01*
X0013623Y0019830D01*
X0013597Y0020021D01*
X0013576Y0020213D01*
X0013559Y0020406D01*
X0013547Y0020599D01*
X0013540Y0020792D01*
X0013538Y0020985D01*
X0106904Y0083623D02*
X0106906Y0083714D01*
X0106912Y0083804D01*
X0106922Y0083895D01*
X0106936Y0083984D01*
X0106954Y0084073D01*
X0106975Y0084162D01*
X0107001Y0084249D01*
X0107030Y0084335D01*
X0107064Y0084419D01*
X0107100Y0084502D01*
X0107141Y0084584D01*
X0107185Y0084663D01*
X0107232Y0084741D01*
X0107283Y0084816D01*
X0107337Y0084889D01*
X0107394Y0084959D01*
X0107454Y0085027D01*
X0107517Y0085093D01*
X0107583Y0085155D01*
X0107652Y0085214D01*
X0107723Y0085271D01*
X0107797Y0085324D01*
X0107873Y0085374D01*
X0107951Y0085421D01*
X0108031Y0085464D01*
X0108112Y0085503D01*
X0108196Y0085539D01*
X0108281Y0085571D01*
X0108367Y0085600D01*
X0108454Y0085624D01*
X0108543Y0085645D01*
X0108632Y0085662D01*
X0108722Y0085675D01*
X0108812Y0085684D01*
X0108903Y0085689D01*
X0108994Y0085690D01*
X0109084Y0085687D01*
X0109175Y0085680D01*
X0109265Y0085669D01*
X0109355Y0085654D01*
X0109444Y0085635D01*
X0109532Y0085613D01*
X0109618Y0085586D01*
X0109704Y0085556D01*
X0109788Y0085522D01*
X0109871Y0085484D01*
X0109952Y0085443D01*
X0110031Y0085398D01*
X0110108Y0085349D01*
X0110182Y0085298D01*
X0110255Y0085243D01*
X0110325Y0085185D01*
X0110392Y0085124D01*
X0110456Y0085060D01*
X0110518Y0084994D01*
X0110577Y0084924D01*
X0110632Y0084853D01*
X0110685Y0084778D01*
X0110734Y0084702D01*
X0110780Y0084624D01*
X0110822Y0084543D01*
X0110861Y0084461D01*
X0110896Y0084377D01*
X0110927Y0084292D01*
X0110954Y0084205D01*
X0110978Y0084118D01*
X0110998Y0084029D01*
X0111014Y0083940D01*
X0111026Y0083850D01*
X0111034Y0083759D01*
X0111038Y0083668D01*
X0111038Y0083578D01*
X0111034Y0083487D01*
X0111026Y0083396D01*
X0111014Y0083306D01*
X0110998Y0083217D01*
X0110978Y0083128D01*
X0110954Y0083041D01*
X0110927Y0082954D01*
X0110896Y0082869D01*
X0110861Y0082785D01*
X0110822Y0082703D01*
X0110780Y0082622D01*
X0110734Y0082544D01*
X0110685Y0082468D01*
X0110632Y0082393D01*
X0110577Y0082322D01*
X0110518Y0082252D01*
X0110456Y0082186D01*
X0110392Y0082122D01*
X0110325Y0082061D01*
X0110255Y0082003D01*
X0110182Y0081948D01*
X0110108Y0081897D01*
X0110031Y0081848D01*
X0109952Y0081803D01*
X0109871Y0081762D01*
X0109788Y0081724D01*
X0109704Y0081690D01*
X0109618Y0081660D01*
X0109532Y0081633D01*
X0109444Y0081611D01*
X0109355Y0081592D01*
X0109265Y0081577D01*
X0109175Y0081566D01*
X0109084Y0081559D01*
X0108994Y0081556D01*
X0108903Y0081557D01*
X0108812Y0081562D01*
X0108722Y0081571D01*
X0108632Y0081584D01*
X0108543Y0081601D01*
X0108454Y0081622D01*
X0108367Y0081646D01*
X0108281Y0081675D01*
X0108196Y0081707D01*
X0108112Y0081743D01*
X0108031Y0081782D01*
X0107951Y0081825D01*
X0107873Y0081872D01*
X0107797Y0081922D01*
X0107723Y0081975D01*
X0107652Y0082032D01*
X0107583Y0082091D01*
X0107517Y0082153D01*
X0107454Y0082219D01*
X0107394Y0082287D01*
X0107337Y0082357D01*
X0107283Y0082430D01*
X0107232Y0082505D01*
X0107185Y0082583D01*
X0107141Y0082662D01*
X0107100Y0082744D01*
X0107064Y0082827D01*
X0107030Y0082911D01*
X0107001Y0082997D01*
X0106975Y0083084D01*
X0106954Y0083173D01*
X0106936Y0083262D01*
X0106922Y0083351D01*
X0106912Y0083442D01*
X0106906Y0083532D01*
X0106904Y0083623D01*
X0106904Y0092245D02*
X0106906Y0092336D01*
X0106912Y0092426D01*
X0106922Y0092517D01*
X0106936Y0092606D01*
X0106954Y0092695D01*
X0106975Y0092784D01*
X0107001Y0092871D01*
X0107030Y0092957D01*
X0107064Y0093041D01*
X0107100Y0093124D01*
X0107141Y0093206D01*
X0107185Y0093285D01*
X0107232Y0093363D01*
X0107283Y0093438D01*
X0107337Y0093511D01*
X0107394Y0093581D01*
X0107454Y0093649D01*
X0107517Y0093715D01*
X0107583Y0093777D01*
X0107652Y0093836D01*
X0107723Y0093893D01*
X0107797Y0093946D01*
X0107873Y0093996D01*
X0107951Y0094043D01*
X0108031Y0094086D01*
X0108112Y0094125D01*
X0108196Y0094161D01*
X0108281Y0094193D01*
X0108367Y0094222D01*
X0108454Y0094246D01*
X0108543Y0094267D01*
X0108632Y0094284D01*
X0108722Y0094297D01*
X0108812Y0094306D01*
X0108903Y0094311D01*
X0108994Y0094312D01*
X0109084Y0094309D01*
X0109175Y0094302D01*
X0109265Y0094291D01*
X0109355Y0094276D01*
X0109444Y0094257D01*
X0109532Y0094235D01*
X0109618Y0094208D01*
X0109704Y0094178D01*
X0109788Y0094144D01*
X0109871Y0094106D01*
X0109952Y0094065D01*
X0110031Y0094020D01*
X0110108Y0093971D01*
X0110182Y0093920D01*
X0110255Y0093865D01*
X0110325Y0093807D01*
X0110392Y0093746D01*
X0110456Y0093682D01*
X0110518Y0093616D01*
X0110577Y0093546D01*
X0110632Y0093475D01*
X0110685Y0093400D01*
X0110734Y0093324D01*
X0110780Y0093246D01*
X0110822Y0093165D01*
X0110861Y0093083D01*
X0110896Y0092999D01*
X0110927Y0092914D01*
X0110954Y0092827D01*
X0110978Y0092740D01*
X0110998Y0092651D01*
X0111014Y0092562D01*
X0111026Y0092472D01*
X0111034Y0092381D01*
X0111038Y0092290D01*
X0111038Y0092200D01*
X0111034Y0092109D01*
X0111026Y0092018D01*
X0111014Y0091928D01*
X0110998Y0091839D01*
X0110978Y0091750D01*
X0110954Y0091663D01*
X0110927Y0091576D01*
X0110896Y0091491D01*
X0110861Y0091407D01*
X0110822Y0091325D01*
X0110780Y0091244D01*
X0110734Y0091166D01*
X0110685Y0091090D01*
X0110632Y0091015D01*
X0110577Y0090944D01*
X0110518Y0090874D01*
X0110456Y0090808D01*
X0110392Y0090744D01*
X0110325Y0090683D01*
X0110255Y0090625D01*
X0110182Y0090570D01*
X0110108Y0090519D01*
X0110031Y0090470D01*
X0109952Y0090425D01*
X0109871Y0090384D01*
X0109788Y0090346D01*
X0109704Y0090312D01*
X0109618Y0090282D01*
X0109532Y0090255D01*
X0109444Y0090233D01*
X0109355Y0090214D01*
X0109265Y0090199D01*
X0109175Y0090188D01*
X0109084Y0090181D01*
X0108994Y0090178D01*
X0108903Y0090179D01*
X0108812Y0090184D01*
X0108722Y0090193D01*
X0108632Y0090206D01*
X0108543Y0090223D01*
X0108454Y0090244D01*
X0108367Y0090268D01*
X0108281Y0090297D01*
X0108196Y0090329D01*
X0108112Y0090365D01*
X0108031Y0090404D01*
X0107951Y0090447D01*
X0107873Y0090494D01*
X0107797Y0090544D01*
X0107723Y0090597D01*
X0107652Y0090654D01*
X0107583Y0090713D01*
X0107517Y0090775D01*
X0107454Y0090841D01*
X0107394Y0090909D01*
X0107337Y0090979D01*
X0107283Y0091052D01*
X0107232Y0091127D01*
X0107185Y0091205D01*
X0107141Y0091284D01*
X0107100Y0091366D01*
X0107064Y0091449D01*
X0107030Y0091533D01*
X0107001Y0091619D01*
X0106975Y0091706D01*
X0106954Y0091795D01*
X0106936Y0091884D01*
X0106922Y0091973D01*
X0106912Y0092064D01*
X0106906Y0092154D01*
X0106904Y0092245D01*
X0121530Y0088111D02*
X0121532Y0088242D01*
X0121538Y0088374D01*
X0121548Y0088505D01*
X0121562Y0088636D01*
X0121580Y0088766D01*
X0121602Y0088895D01*
X0121627Y0089024D01*
X0121657Y0089152D01*
X0121691Y0089279D01*
X0121728Y0089406D01*
X0121769Y0089530D01*
X0121814Y0089654D01*
X0121863Y0089776D01*
X0121915Y0089897D01*
X0121971Y0090015D01*
X0122031Y0090133D01*
X0122094Y0090248D01*
X0122161Y0090361D01*
X0122231Y0090473D01*
X0122304Y0090582D01*
X0122380Y0090688D01*
X0122460Y0090793D01*
X0122543Y0090895D01*
X0122629Y0090994D01*
X0122718Y0091091D01*
X0122810Y0091185D01*
X0122905Y0091276D01*
X0123002Y0091365D01*
X0123102Y0091450D01*
X0123205Y0091532D01*
X0123310Y0091611D01*
X0123417Y0091687D01*
X0123527Y0091759D01*
X0123639Y0091828D01*
X0123753Y0091894D01*
X0123868Y0091956D01*
X0123986Y0092015D01*
X0124105Y0092070D01*
X0124226Y0092122D01*
X0124349Y0092169D01*
X0124473Y0092213D01*
X0124598Y0092254D01*
X0124724Y0092290D01*
X0124852Y0092323D01*
X0124980Y0092351D01*
X0125109Y0092376D01*
X0125239Y0092397D01*
X0125369Y0092414D01*
X0125500Y0092427D01*
X0125631Y0092436D01*
X0125762Y0092441D01*
X0125894Y0092442D01*
X0126025Y0092439D01*
X0126157Y0092432D01*
X0126288Y0092421D01*
X0126418Y0092406D01*
X0126548Y0092387D01*
X0126678Y0092364D01*
X0126806Y0092338D01*
X0126934Y0092307D01*
X0127061Y0092272D01*
X0127187Y0092234D01*
X0127311Y0092192D01*
X0127435Y0092146D01*
X0127556Y0092096D01*
X0127676Y0092043D01*
X0127795Y0091986D01*
X0127912Y0091926D01*
X0128026Y0091862D01*
X0128139Y0091794D01*
X0128250Y0091723D01*
X0128359Y0091649D01*
X0128465Y0091572D01*
X0128569Y0091491D01*
X0128670Y0091408D01*
X0128769Y0091321D01*
X0128865Y0091231D01*
X0128958Y0091138D01*
X0129049Y0091043D01*
X0129136Y0090945D01*
X0129221Y0090844D01*
X0129302Y0090741D01*
X0129380Y0090635D01*
X0129455Y0090527D01*
X0129527Y0090417D01*
X0129595Y0090305D01*
X0129660Y0090191D01*
X0129721Y0090074D01*
X0129779Y0089956D01*
X0129833Y0089836D01*
X0129884Y0089715D01*
X0129931Y0089592D01*
X0129974Y0089468D01*
X0130013Y0089343D01*
X0130049Y0089216D01*
X0130080Y0089088D01*
X0130108Y0088960D01*
X0130132Y0088831D01*
X0130152Y0088701D01*
X0130168Y0088570D01*
X0130180Y0088439D01*
X0130188Y0088308D01*
X0130192Y0088177D01*
X0130192Y0088045D01*
X0130188Y0087914D01*
X0130180Y0087783D01*
X0130168Y0087652D01*
X0130152Y0087521D01*
X0130132Y0087391D01*
X0130108Y0087262D01*
X0130080Y0087134D01*
X0130049Y0087006D01*
X0130013Y0086879D01*
X0129974Y0086754D01*
X0129931Y0086630D01*
X0129884Y0086507D01*
X0129833Y0086386D01*
X0129779Y0086266D01*
X0129721Y0086148D01*
X0129660Y0086031D01*
X0129595Y0085917D01*
X0129527Y0085805D01*
X0129455Y0085695D01*
X0129380Y0085587D01*
X0129302Y0085481D01*
X0129221Y0085378D01*
X0129136Y0085277D01*
X0129049Y0085179D01*
X0128958Y0085084D01*
X0128865Y0084991D01*
X0128769Y0084901D01*
X0128670Y0084814D01*
X0128569Y0084731D01*
X0128465Y0084650D01*
X0128359Y0084573D01*
X0128250Y0084499D01*
X0128139Y0084428D01*
X0128027Y0084360D01*
X0127912Y0084296D01*
X0127795Y0084236D01*
X0127676Y0084179D01*
X0127556Y0084126D01*
X0127435Y0084076D01*
X0127311Y0084030D01*
X0127187Y0083988D01*
X0127061Y0083950D01*
X0126934Y0083915D01*
X0126806Y0083884D01*
X0126678Y0083858D01*
X0126548Y0083835D01*
X0126418Y0083816D01*
X0126288Y0083801D01*
X0126157Y0083790D01*
X0126025Y0083783D01*
X0125894Y0083780D01*
X0125762Y0083781D01*
X0125631Y0083786D01*
X0125500Y0083795D01*
X0125369Y0083808D01*
X0125239Y0083825D01*
X0125109Y0083846D01*
X0124980Y0083871D01*
X0124852Y0083899D01*
X0124724Y0083932D01*
X0124598Y0083968D01*
X0124473Y0084009D01*
X0124349Y0084053D01*
X0124226Y0084100D01*
X0124105Y0084152D01*
X0123986Y0084207D01*
X0123868Y0084266D01*
X0123753Y0084328D01*
X0123639Y0084394D01*
X0123527Y0084463D01*
X0123417Y0084535D01*
X0123310Y0084611D01*
X0123205Y0084690D01*
X0123102Y0084772D01*
X0123002Y0084857D01*
X0122905Y0084946D01*
X0122810Y0085037D01*
X0122718Y0085131D01*
X0122629Y0085228D01*
X0122543Y0085327D01*
X0122460Y0085429D01*
X0122380Y0085534D01*
X0122304Y0085640D01*
X0122231Y0085749D01*
X0122161Y0085861D01*
X0122094Y0085974D01*
X0122031Y0086089D01*
X0121971Y0086207D01*
X0121915Y0086325D01*
X0121863Y0086446D01*
X0121814Y0086568D01*
X0121769Y0086692D01*
X0121728Y0086816D01*
X0121691Y0086943D01*
X0121657Y0087070D01*
X0121627Y0087198D01*
X0121602Y0087327D01*
X0121580Y0087456D01*
X0121562Y0087586D01*
X0121548Y0087717D01*
X0121538Y0087848D01*
X0121532Y0087980D01*
X0121530Y0088111D01*
X0225014Y0092245D02*
X0225016Y0092336D01*
X0225022Y0092426D01*
X0225032Y0092517D01*
X0225046Y0092606D01*
X0225064Y0092695D01*
X0225085Y0092784D01*
X0225111Y0092871D01*
X0225140Y0092957D01*
X0225174Y0093041D01*
X0225210Y0093124D01*
X0225251Y0093206D01*
X0225295Y0093285D01*
X0225342Y0093363D01*
X0225393Y0093438D01*
X0225447Y0093511D01*
X0225504Y0093581D01*
X0225564Y0093649D01*
X0225627Y0093715D01*
X0225693Y0093777D01*
X0225762Y0093836D01*
X0225833Y0093893D01*
X0225907Y0093946D01*
X0225983Y0093996D01*
X0226061Y0094043D01*
X0226141Y0094086D01*
X0226222Y0094125D01*
X0226306Y0094161D01*
X0226391Y0094193D01*
X0226477Y0094222D01*
X0226564Y0094246D01*
X0226653Y0094267D01*
X0226742Y0094284D01*
X0226832Y0094297D01*
X0226922Y0094306D01*
X0227013Y0094311D01*
X0227104Y0094312D01*
X0227194Y0094309D01*
X0227285Y0094302D01*
X0227375Y0094291D01*
X0227465Y0094276D01*
X0227554Y0094257D01*
X0227642Y0094235D01*
X0227728Y0094208D01*
X0227814Y0094178D01*
X0227898Y0094144D01*
X0227981Y0094106D01*
X0228062Y0094065D01*
X0228141Y0094020D01*
X0228218Y0093971D01*
X0228292Y0093920D01*
X0228365Y0093865D01*
X0228435Y0093807D01*
X0228502Y0093746D01*
X0228566Y0093682D01*
X0228628Y0093616D01*
X0228687Y0093546D01*
X0228742Y0093475D01*
X0228795Y0093400D01*
X0228844Y0093324D01*
X0228890Y0093246D01*
X0228932Y0093165D01*
X0228971Y0093083D01*
X0229006Y0092999D01*
X0229037Y0092914D01*
X0229064Y0092827D01*
X0229088Y0092740D01*
X0229108Y0092651D01*
X0229124Y0092562D01*
X0229136Y0092472D01*
X0229144Y0092381D01*
X0229148Y0092290D01*
X0229148Y0092200D01*
X0229144Y0092109D01*
X0229136Y0092018D01*
X0229124Y0091928D01*
X0229108Y0091839D01*
X0229088Y0091750D01*
X0229064Y0091663D01*
X0229037Y0091576D01*
X0229006Y0091491D01*
X0228971Y0091407D01*
X0228932Y0091325D01*
X0228890Y0091244D01*
X0228844Y0091166D01*
X0228795Y0091090D01*
X0228742Y0091015D01*
X0228687Y0090944D01*
X0228628Y0090874D01*
X0228566Y0090808D01*
X0228502Y0090744D01*
X0228435Y0090683D01*
X0228365Y0090625D01*
X0228292Y0090570D01*
X0228218Y0090519D01*
X0228141Y0090470D01*
X0228062Y0090425D01*
X0227981Y0090384D01*
X0227898Y0090346D01*
X0227814Y0090312D01*
X0227728Y0090282D01*
X0227642Y0090255D01*
X0227554Y0090233D01*
X0227465Y0090214D01*
X0227375Y0090199D01*
X0227285Y0090188D01*
X0227194Y0090181D01*
X0227104Y0090178D01*
X0227013Y0090179D01*
X0226922Y0090184D01*
X0226832Y0090193D01*
X0226742Y0090206D01*
X0226653Y0090223D01*
X0226564Y0090244D01*
X0226477Y0090268D01*
X0226391Y0090297D01*
X0226306Y0090329D01*
X0226222Y0090365D01*
X0226141Y0090404D01*
X0226061Y0090447D01*
X0225983Y0090494D01*
X0225907Y0090544D01*
X0225833Y0090597D01*
X0225762Y0090654D01*
X0225693Y0090713D01*
X0225627Y0090775D01*
X0225564Y0090841D01*
X0225504Y0090909D01*
X0225447Y0090979D01*
X0225393Y0091052D01*
X0225342Y0091127D01*
X0225295Y0091205D01*
X0225251Y0091284D01*
X0225210Y0091366D01*
X0225174Y0091449D01*
X0225140Y0091533D01*
X0225111Y0091619D01*
X0225085Y0091706D01*
X0225064Y0091795D01*
X0225046Y0091884D01*
X0225032Y0091973D01*
X0225022Y0092064D01*
X0225016Y0092154D01*
X0225014Y0092245D01*
X0225014Y0083623D02*
X0225016Y0083714D01*
X0225022Y0083804D01*
X0225032Y0083895D01*
X0225046Y0083984D01*
X0225064Y0084073D01*
X0225085Y0084162D01*
X0225111Y0084249D01*
X0225140Y0084335D01*
X0225174Y0084419D01*
X0225210Y0084502D01*
X0225251Y0084584D01*
X0225295Y0084663D01*
X0225342Y0084741D01*
X0225393Y0084816D01*
X0225447Y0084889D01*
X0225504Y0084959D01*
X0225564Y0085027D01*
X0225627Y0085093D01*
X0225693Y0085155D01*
X0225762Y0085214D01*
X0225833Y0085271D01*
X0225907Y0085324D01*
X0225983Y0085374D01*
X0226061Y0085421D01*
X0226141Y0085464D01*
X0226222Y0085503D01*
X0226306Y0085539D01*
X0226391Y0085571D01*
X0226477Y0085600D01*
X0226564Y0085624D01*
X0226653Y0085645D01*
X0226742Y0085662D01*
X0226832Y0085675D01*
X0226922Y0085684D01*
X0227013Y0085689D01*
X0227104Y0085690D01*
X0227194Y0085687D01*
X0227285Y0085680D01*
X0227375Y0085669D01*
X0227465Y0085654D01*
X0227554Y0085635D01*
X0227642Y0085613D01*
X0227728Y0085586D01*
X0227814Y0085556D01*
X0227898Y0085522D01*
X0227981Y0085484D01*
X0228062Y0085443D01*
X0228141Y0085398D01*
X0228218Y0085349D01*
X0228292Y0085298D01*
X0228365Y0085243D01*
X0228435Y0085185D01*
X0228502Y0085124D01*
X0228566Y0085060D01*
X0228628Y0084994D01*
X0228687Y0084924D01*
X0228742Y0084853D01*
X0228795Y0084778D01*
X0228844Y0084702D01*
X0228890Y0084624D01*
X0228932Y0084543D01*
X0228971Y0084461D01*
X0229006Y0084377D01*
X0229037Y0084292D01*
X0229064Y0084205D01*
X0229088Y0084118D01*
X0229108Y0084029D01*
X0229124Y0083940D01*
X0229136Y0083850D01*
X0229144Y0083759D01*
X0229148Y0083668D01*
X0229148Y0083578D01*
X0229144Y0083487D01*
X0229136Y0083396D01*
X0229124Y0083306D01*
X0229108Y0083217D01*
X0229088Y0083128D01*
X0229064Y0083041D01*
X0229037Y0082954D01*
X0229006Y0082869D01*
X0228971Y0082785D01*
X0228932Y0082703D01*
X0228890Y0082622D01*
X0228844Y0082544D01*
X0228795Y0082468D01*
X0228742Y0082393D01*
X0228687Y0082322D01*
X0228628Y0082252D01*
X0228566Y0082186D01*
X0228502Y0082122D01*
X0228435Y0082061D01*
X0228365Y0082003D01*
X0228292Y0081948D01*
X0228218Y0081897D01*
X0228141Y0081848D01*
X0228062Y0081803D01*
X0227981Y0081762D01*
X0227898Y0081724D01*
X0227814Y0081690D01*
X0227728Y0081660D01*
X0227642Y0081633D01*
X0227554Y0081611D01*
X0227465Y0081592D01*
X0227375Y0081577D01*
X0227285Y0081566D01*
X0227194Y0081559D01*
X0227104Y0081556D01*
X0227013Y0081557D01*
X0226922Y0081562D01*
X0226832Y0081571D01*
X0226742Y0081584D01*
X0226653Y0081601D01*
X0226564Y0081622D01*
X0226477Y0081646D01*
X0226391Y0081675D01*
X0226306Y0081707D01*
X0226222Y0081743D01*
X0226141Y0081782D01*
X0226061Y0081825D01*
X0225983Y0081872D01*
X0225907Y0081922D01*
X0225833Y0081975D01*
X0225762Y0082032D01*
X0225693Y0082091D01*
X0225627Y0082153D01*
X0225564Y0082219D01*
X0225504Y0082287D01*
X0225447Y0082357D01*
X0225393Y0082430D01*
X0225342Y0082505D01*
X0225295Y0082583D01*
X0225251Y0082662D01*
X0225210Y0082744D01*
X0225174Y0082827D01*
X0225140Y0082911D01*
X0225111Y0082997D01*
X0225085Y0083084D01*
X0225064Y0083173D01*
X0225046Y0083262D01*
X0225032Y0083351D01*
X0225022Y0083442D01*
X0225016Y0083532D01*
X0225014Y0083623D01*
X0239640Y0088111D02*
X0239642Y0088242D01*
X0239648Y0088374D01*
X0239658Y0088505D01*
X0239672Y0088636D01*
X0239690Y0088766D01*
X0239712Y0088895D01*
X0239737Y0089024D01*
X0239767Y0089152D01*
X0239801Y0089279D01*
X0239838Y0089406D01*
X0239879Y0089530D01*
X0239924Y0089654D01*
X0239973Y0089776D01*
X0240025Y0089897D01*
X0240081Y0090015D01*
X0240141Y0090133D01*
X0240204Y0090248D01*
X0240271Y0090361D01*
X0240341Y0090473D01*
X0240414Y0090582D01*
X0240490Y0090688D01*
X0240570Y0090793D01*
X0240653Y0090895D01*
X0240739Y0090994D01*
X0240828Y0091091D01*
X0240920Y0091185D01*
X0241015Y0091276D01*
X0241112Y0091365D01*
X0241212Y0091450D01*
X0241315Y0091532D01*
X0241420Y0091611D01*
X0241527Y0091687D01*
X0241637Y0091759D01*
X0241749Y0091828D01*
X0241863Y0091894D01*
X0241978Y0091956D01*
X0242096Y0092015D01*
X0242215Y0092070D01*
X0242336Y0092122D01*
X0242459Y0092169D01*
X0242583Y0092213D01*
X0242708Y0092254D01*
X0242834Y0092290D01*
X0242962Y0092323D01*
X0243090Y0092351D01*
X0243219Y0092376D01*
X0243349Y0092397D01*
X0243479Y0092414D01*
X0243610Y0092427D01*
X0243741Y0092436D01*
X0243872Y0092441D01*
X0244004Y0092442D01*
X0244135Y0092439D01*
X0244267Y0092432D01*
X0244398Y0092421D01*
X0244528Y0092406D01*
X0244658Y0092387D01*
X0244788Y0092364D01*
X0244916Y0092338D01*
X0245044Y0092307D01*
X0245171Y0092272D01*
X0245297Y0092234D01*
X0245421Y0092192D01*
X0245545Y0092146D01*
X0245666Y0092096D01*
X0245786Y0092043D01*
X0245905Y0091986D01*
X0246022Y0091926D01*
X0246136Y0091862D01*
X0246249Y0091794D01*
X0246360Y0091723D01*
X0246469Y0091649D01*
X0246575Y0091572D01*
X0246679Y0091491D01*
X0246780Y0091408D01*
X0246879Y0091321D01*
X0246975Y0091231D01*
X0247068Y0091138D01*
X0247159Y0091043D01*
X0247246Y0090945D01*
X0247331Y0090844D01*
X0247412Y0090741D01*
X0247490Y0090635D01*
X0247565Y0090527D01*
X0247637Y0090417D01*
X0247705Y0090305D01*
X0247770Y0090191D01*
X0247831Y0090074D01*
X0247889Y0089956D01*
X0247943Y0089836D01*
X0247994Y0089715D01*
X0248041Y0089592D01*
X0248084Y0089468D01*
X0248123Y0089343D01*
X0248159Y0089216D01*
X0248190Y0089088D01*
X0248218Y0088960D01*
X0248242Y0088831D01*
X0248262Y0088701D01*
X0248278Y0088570D01*
X0248290Y0088439D01*
X0248298Y0088308D01*
X0248302Y0088177D01*
X0248302Y0088045D01*
X0248298Y0087914D01*
X0248290Y0087783D01*
X0248278Y0087652D01*
X0248262Y0087521D01*
X0248242Y0087391D01*
X0248218Y0087262D01*
X0248190Y0087134D01*
X0248159Y0087006D01*
X0248123Y0086879D01*
X0248084Y0086754D01*
X0248041Y0086630D01*
X0247994Y0086507D01*
X0247943Y0086386D01*
X0247889Y0086266D01*
X0247831Y0086148D01*
X0247770Y0086031D01*
X0247705Y0085917D01*
X0247637Y0085805D01*
X0247565Y0085695D01*
X0247490Y0085587D01*
X0247412Y0085481D01*
X0247331Y0085378D01*
X0247246Y0085277D01*
X0247159Y0085179D01*
X0247068Y0085084D01*
X0246975Y0084991D01*
X0246879Y0084901D01*
X0246780Y0084814D01*
X0246679Y0084731D01*
X0246575Y0084650D01*
X0246469Y0084573D01*
X0246360Y0084499D01*
X0246249Y0084428D01*
X0246137Y0084360D01*
X0246022Y0084296D01*
X0245905Y0084236D01*
X0245786Y0084179D01*
X0245666Y0084126D01*
X0245545Y0084076D01*
X0245421Y0084030D01*
X0245297Y0083988D01*
X0245171Y0083950D01*
X0245044Y0083915D01*
X0244916Y0083884D01*
X0244788Y0083858D01*
X0244658Y0083835D01*
X0244528Y0083816D01*
X0244398Y0083801D01*
X0244267Y0083790D01*
X0244135Y0083783D01*
X0244004Y0083780D01*
X0243872Y0083781D01*
X0243741Y0083786D01*
X0243610Y0083795D01*
X0243479Y0083808D01*
X0243349Y0083825D01*
X0243219Y0083846D01*
X0243090Y0083871D01*
X0242962Y0083899D01*
X0242834Y0083932D01*
X0242708Y0083968D01*
X0242583Y0084009D01*
X0242459Y0084053D01*
X0242336Y0084100D01*
X0242215Y0084152D01*
X0242096Y0084207D01*
X0241978Y0084266D01*
X0241863Y0084328D01*
X0241749Y0084394D01*
X0241637Y0084463D01*
X0241527Y0084535D01*
X0241420Y0084611D01*
X0241315Y0084690D01*
X0241212Y0084772D01*
X0241112Y0084857D01*
X0241015Y0084946D01*
X0240920Y0085037D01*
X0240828Y0085131D01*
X0240739Y0085228D01*
X0240653Y0085327D01*
X0240570Y0085429D01*
X0240490Y0085534D01*
X0240414Y0085640D01*
X0240341Y0085749D01*
X0240271Y0085861D01*
X0240204Y0085974D01*
X0240141Y0086089D01*
X0240081Y0086207D01*
X0240025Y0086325D01*
X0239973Y0086446D01*
X0239924Y0086568D01*
X0239879Y0086692D01*
X0239838Y0086816D01*
X0239801Y0086943D01*
X0239767Y0087070D01*
X0239737Y0087198D01*
X0239712Y0087327D01*
X0239690Y0087456D01*
X0239672Y0087586D01*
X0239658Y0087717D01*
X0239648Y0087848D01*
X0239642Y0087980D01*
X0239640Y0088111D01*
X0225014Y0213544D02*
X0225016Y0213635D01*
X0225022Y0213725D01*
X0225032Y0213816D01*
X0225046Y0213905D01*
X0225064Y0213994D01*
X0225085Y0214083D01*
X0225111Y0214170D01*
X0225140Y0214256D01*
X0225174Y0214340D01*
X0225210Y0214423D01*
X0225251Y0214505D01*
X0225295Y0214584D01*
X0225342Y0214662D01*
X0225393Y0214737D01*
X0225447Y0214810D01*
X0225504Y0214880D01*
X0225564Y0214948D01*
X0225627Y0215014D01*
X0225693Y0215076D01*
X0225762Y0215135D01*
X0225833Y0215192D01*
X0225907Y0215245D01*
X0225983Y0215295D01*
X0226061Y0215342D01*
X0226141Y0215385D01*
X0226222Y0215424D01*
X0226306Y0215460D01*
X0226391Y0215492D01*
X0226477Y0215521D01*
X0226564Y0215545D01*
X0226653Y0215566D01*
X0226742Y0215583D01*
X0226832Y0215596D01*
X0226922Y0215605D01*
X0227013Y0215610D01*
X0227104Y0215611D01*
X0227194Y0215608D01*
X0227285Y0215601D01*
X0227375Y0215590D01*
X0227465Y0215575D01*
X0227554Y0215556D01*
X0227642Y0215534D01*
X0227728Y0215507D01*
X0227814Y0215477D01*
X0227898Y0215443D01*
X0227981Y0215405D01*
X0228062Y0215364D01*
X0228141Y0215319D01*
X0228218Y0215270D01*
X0228292Y0215219D01*
X0228365Y0215164D01*
X0228435Y0215106D01*
X0228502Y0215045D01*
X0228566Y0214981D01*
X0228628Y0214915D01*
X0228687Y0214845D01*
X0228742Y0214774D01*
X0228795Y0214699D01*
X0228844Y0214623D01*
X0228890Y0214545D01*
X0228932Y0214464D01*
X0228971Y0214382D01*
X0229006Y0214298D01*
X0229037Y0214213D01*
X0229064Y0214126D01*
X0229088Y0214039D01*
X0229108Y0213950D01*
X0229124Y0213861D01*
X0229136Y0213771D01*
X0229144Y0213680D01*
X0229148Y0213589D01*
X0229148Y0213499D01*
X0229144Y0213408D01*
X0229136Y0213317D01*
X0229124Y0213227D01*
X0229108Y0213138D01*
X0229088Y0213049D01*
X0229064Y0212962D01*
X0229037Y0212875D01*
X0229006Y0212790D01*
X0228971Y0212706D01*
X0228932Y0212624D01*
X0228890Y0212543D01*
X0228844Y0212465D01*
X0228795Y0212389D01*
X0228742Y0212314D01*
X0228687Y0212243D01*
X0228628Y0212173D01*
X0228566Y0212107D01*
X0228502Y0212043D01*
X0228435Y0211982D01*
X0228365Y0211924D01*
X0228292Y0211869D01*
X0228218Y0211818D01*
X0228141Y0211769D01*
X0228062Y0211724D01*
X0227981Y0211683D01*
X0227898Y0211645D01*
X0227814Y0211611D01*
X0227728Y0211581D01*
X0227642Y0211554D01*
X0227554Y0211532D01*
X0227465Y0211513D01*
X0227375Y0211498D01*
X0227285Y0211487D01*
X0227194Y0211480D01*
X0227104Y0211477D01*
X0227013Y0211478D01*
X0226922Y0211483D01*
X0226832Y0211492D01*
X0226742Y0211505D01*
X0226653Y0211522D01*
X0226564Y0211543D01*
X0226477Y0211567D01*
X0226391Y0211596D01*
X0226306Y0211628D01*
X0226222Y0211664D01*
X0226141Y0211703D01*
X0226061Y0211746D01*
X0225983Y0211793D01*
X0225907Y0211843D01*
X0225833Y0211896D01*
X0225762Y0211953D01*
X0225693Y0212012D01*
X0225627Y0212074D01*
X0225564Y0212140D01*
X0225504Y0212208D01*
X0225447Y0212278D01*
X0225393Y0212351D01*
X0225342Y0212426D01*
X0225295Y0212504D01*
X0225251Y0212583D01*
X0225210Y0212665D01*
X0225174Y0212748D01*
X0225140Y0212832D01*
X0225111Y0212918D01*
X0225085Y0213005D01*
X0225064Y0213094D01*
X0225046Y0213183D01*
X0225032Y0213272D01*
X0225022Y0213363D01*
X0225016Y0213453D01*
X0225014Y0213544D01*
X0225014Y0222166D02*
X0225016Y0222257D01*
X0225022Y0222347D01*
X0225032Y0222438D01*
X0225046Y0222527D01*
X0225064Y0222616D01*
X0225085Y0222705D01*
X0225111Y0222792D01*
X0225140Y0222878D01*
X0225174Y0222962D01*
X0225210Y0223045D01*
X0225251Y0223127D01*
X0225295Y0223206D01*
X0225342Y0223284D01*
X0225393Y0223359D01*
X0225447Y0223432D01*
X0225504Y0223502D01*
X0225564Y0223570D01*
X0225627Y0223636D01*
X0225693Y0223698D01*
X0225762Y0223757D01*
X0225833Y0223814D01*
X0225907Y0223867D01*
X0225983Y0223917D01*
X0226061Y0223964D01*
X0226141Y0224007D01*
X0226222Y0224046D01*
X0226306Y0224082D01*
X0226391Y0224114D01*
X0226477Y0224143D01*
X0226564Y0224167D01*
X0226653Y0224188D01*
X0226742Y0224205D01*
X0226832Y0224218D01*
X0226922Y0224227D01*
X0227013Y0224232D01*
X0227104Y0224233D01*
X0227194Y0224230D01*
X0227285Y0224223D01*
X0227375Y0224212D01*
X0227465Y0224197D01*
X0227554Y0224178D01*
X0227642Y0224156D01*
X0227728Y0224129D01*
X0227814Y0224099D01*
X0227898Y0224065D01*
X0227981Y0224027D01*
X0228062Y0223986D01*
X0228141Y0223941D01*
X0228218Y0223892D01*
X0228292Y0223841D01*
X0228365Y0223786D01*
X0228435Y0223728D01*
X0228502Y0223667D01*
X0228566Y0223603D01*
X0228628Y0223537D01*
X0228687Y0223467D01*
X0228742Y0223396D01*
X0228795Y0223321D01*
X0228844Y0223245D01*
X0228890Y0223167D01*
X0228932Y0223086D01*
X0228971Y0223004D01*
X0229006Y0222920D01*
X0229037Y0222835D01*
X0229064Y0222748D01*
X0229088Y0222661D01*
X0229108Y0222572D01*
X0229124Y0222483D01*
X0229136Y0222393D01*
X0229144Y0222302D01*
X0229148Y0222211D01*
X0229148Y0222121D01*
X0229144Y0222030D01*
X0229136Y0221939D01*
X0229124Y0221849D01*
X0229108Y0221760D01*
X0229088Y0221671D01*
X0229064Y0221584D01*
X0229037Y0221497D01*
X0229006Y0221412D01*
X0228971Y0221328D01*
X0228932Y0221246D01*
X0228890Y0221165D01*
X0228844Y0221087D01*
X0228795Y0221011D01*
X0228742Y0220936D01*
X0228687Y0220865D01*
X0228628Y0220795D01*
X0228566Y0220729D01*
X0228502Y0220665D01*
X0228435Y0220604D01*
X0228365Y0220546D01*
X0228292Y0220491D01*
X0228218Y0220440D01*
X0228141Y0220391D01*
X0228062Y0220346D01*
X0227981Y0220305D01*
X0227898Y0220267D01*
X0227814Y0220233D01*
X0227728Y0220203D01*
X0227642Y0220176D01*
X0227554Y0220154D01*
X0227465Y0220135D01*
X0227375Y0220120D01*
X0227285Y0220109D01*
X0227194Y0220102D01*
X0227104Y0220099D01*
X0227013Y0220100D01*
X0226922Y0220105D01*
X0226832Y0220114D01*
X0226742Y0220127D01*
X0226653Y0220144D01*
X0226564Y0220165D01*
X0226477Y0220189D01*
X0226391Y0220218D01*
X0226306Y0220250D01*
X0226222Y0220286D01*
X0226141Y0220325D01*
X0226061Y0220368D01*
X0225983Y0220415D01*
X0225907Y0220465D01*
X0225833Y0220518D01*
X0225762Y0220575D01*
X0225693Y0220634D01*
X0225627Y0220696D01*
X0225564Y0220762D01*
X0225504Y0220830D01*
X0225447Y0220900D01*
X0225393Y0220973D01*
X0225342Y0221048D01*
X0225295Y0221126D01*
X0225251Y0221205D01*
X0225210Y0221287D01*
X0225174Y0221370D01*
X0225140Y0221454D01*
X0225111Y0221540D01*
X0225085Y0221627D01*
X0225064Y0221716D01*
X0225046Y0221805D01*
X0225032Y0221894D01*
X0225022Y0221985D01*
X0225016Y0222075D01*
X0225014Y0222166D01*
X0239640Y0218032D02*
X0239642Y0218163D01*
X0239648Y0218295D01*
X0239658Y0218426D01*
X0239672Y0218557D01*
X0239690Y0218687D01*
X0239712Y0218816D01*
X0239737Y0218945D01*
X0239767Y0219073D01*
X0239801Y0219200D01*
X0239838Y0219327D01*
X0239879Y0219451D01*
X0239924Y0219575D01*
X0239973Y0219697D01*
X0240025Y0219818D01*
X0240081Y0219936D01*
X0240141Y0220054D01*
X0240204Y0220169D01*
X0240271Y0220282D01*
X0240341Y0220394D01*
X0240414Y0220503D01*
X0240490Y0220609D01*
X0240570Y0220714D01*
X0240653Y0220816D01*
X0240739Y0220915D01*
X0240828Y0221012D01*
X0240920Y0221106D01*
X0241015Y0221197D01*
X0241112Y0221286D01*
X0241212Y0221371D01*
X0241315Y0221453D01*
X0241420Y0221532D01*
X0241527Y0221608D01*
X0241637Y0221680D01*
X0241749Y0221749D01*
X0241863Y0221815D01*
X0241978Y0221877D01*
X0242096Y0221936D01*
X0242215Y0221991D01*
X0242336Y0222043D01*
X0242459Y0222090D01*
X0242583Y0222134D01*
X0242708Y0222175D01*
X0242834Y0222211D01*
X0242962Y0222244D01*
X0243090Y0222272D01*
X0243219Y0222297D01*
X0243349Y0222318D01*
X0243479Y0222335D01*
X0243610Y0222348D01*
X0243741Y0222357D01*
X0243872Y0222362D01*
X0244004Y0222363D01*
X0244135Y0222360D01*
X0244267Y0222353D01*
X0244398Y0222342D01*
X0244528Y0222327D01*
X0244658Y0222308D01*
X0244788Y0222285D01*
X0244916Y0222259D01*
X0245044Y0222228D01*
X0245171Y0222193D01*
X0245297Y0222155D01*
X0245421Y0222113D01*
X0245545Y0222067D01*
X0245666Y0222017D01*
X0245786Y0221964D01*
X0245905Y0221907D01*
X0246022Y0221847D01*
X0246136Y0221783D01*
X0246249Y0221715D01*
X0246360Y0221644D01*
X0246469Y0221570D01*
X0246575Y0221493D01*
X0246679Y0221412D01*
X0246780Y0221329D01*
X0246879Y0221242D01*
X0246975Y0221152D01*
X0247068Y0221059D01*
X0247159Y0220964D01*
X0247246Y0220866D01*
X0247331Y0220765D01*
X0247412Y0220662D01*
X0247490Y0220556D01*
X0247565Y0220448D01*
X0247637Y0220338D01*
X0247705Y0220226D01*
X0247770Y0220112D01*
X0247831Y0219995D01*
X0247889Y0219877D01*
X0247943Y0219757D01*
X0247994Y0219636D01*
X0248041Y0219513D01*
X0248084Y0219389D01*
X0248123Y0219264D01*
X0248159Y0219137D01*
X0248190Y0219009D01*
X0248218Y0218881D01*
X0248242Y0218752D01*
X0248262Y0218622D01*
X0248278Y0218491D01*
X0248290Y0218360D01*
X0248298Y0218229D01*
X0248302Y0218098D01*
X0248302Y0217966D01*
X0248298Y0217835D01*
X0248290Y0217704D01*
X0248278Y0217573D01*
X0248262Y0217442D01*
X0248242Y0217312D01*
X0248218Y0217183D01*
X0248190Y0217055D01*
X0248159Y0216927D01*
X0248123Y0216800D01*
X0248084Y0216675D01*
X0248041Y0216551D01*
X0247994Y0216428D01*
X0247943Y0216307D01*
X0247889Y0216187D01*
X0247831Y0216069D01*
X0247770Y0215952D01*
X0247705Y0215838D01*
X0247637Y0215726D01*
X0247565Y0215616D01*
X0247490Y0215508D01*
X0247412Y0215402D01*
X0247331Y0215299D01*
X0247246Y0215198D01*
X0247159Y0215100D01*
X0247068Y0215005D01*
X0246975Y0214912D01*
X0246879Y0214822D01*
X0246780Y0214735D01*
X0246679Y0214652D01*
X0246575Y0214571D01*
X0246469Y0214494D01*
X0246360Y0214420D01*
X0246249Y0214349D01*
X0246137Y0214281D01*
X0246022Y0214217D01*
X0245905Y0214157D01*
X0245786Y0214100D01*
X0245666Y0214047D01*
X0245545Y0213997D01*
X0245421Y0213951D01*
X0245297Y0213909D01*
X0245171Y0213871D01*
X0245044Y0213836D01*
X0244916Y0213805D01*
X0244788Y0213779D01*
X0244658Y0213756D01*
X0244528Y0213737D01*
X0244398Y0213722D01*
X0244267Y0213711D01*
X0244135Y0213704D01*
X0244004Y0213701D01*
X0243872Y0213702D01*
X0243741Y0213707D01*
X0243610Y0213716D01*
X0243479Y0213729D01*
X0243349Y0213746D01*
X0243219Y0213767D01*
X0243090Y0213792D01*
X0242962Y0213820D01*
X0242834Y0213853D01*
X0242708Y0213889D01*
X0242583Y0213930D01*
X0242459Y0213974D01*
X0242336Y0214021D01*
X0242215Y0214073D01*
X0242096Y0214128D01*
X0241978Y0214187D01*
X0241863Y0214249D01*
X0241749Y0214315D01*
X0241637Y0214384D01*
X0241527Y0214456D01*
X0241420Y0214532D01*
X0241315Y0214611D01*
X0241212Y0214693D01*
X0241112Y0214778D01*
X0241015Y0214867D01*
X0240920Y0214958D01*
X0240828Y0215052D01*
X0240739Y0215149D01*
X0240653Y0215248D01*
X0240570Y0215350D01*
X0240490Y0215455D01*
X0240414Y0215561D01*
X0240341Y0215670D01*
X0240271Y0215782D01*
X0240204Y0215895D01*
X0240141Y0216010D01*
X0240081Y0216128D01*
X0240025Y0216246D01*
X0239973Y0216367D01*
X0239924Y0216489D01*
X0239879Y0216613D01*
X0239838Y0216737D01*
X0239801Y0216864D01*
X0239767Y0216991D01*
X0239737Y0217119D01*
X0239712Y0217248D01*
X0239690Y0217377D01*
X0239672Y0217507D01*
X0239658Y0217638D01*
X0239648Y0217769D01*
X0239642Y0217901D01*
X0239640Y0218032D01*
X0121530Y0218032D02*
X0121532Y0218163D01*
X0121538Y0218295D01*
X0121548Y0218426D01*
X0121562Y0218557D01*
X0121580Y0218687D01*
X0121602Y0218816D01*
X0121627Y0218945D01*
X0121657Y0219073D01*
X0121691Y0219200D01*
X0121728Y0219327D01*
X0121769Y0219451D01*
X0121814Y0219575D01*
X0121863Y0219697D01*
X0121915Y0219818D01*
X0121971Y0219936D01*
X0122031Y0220054D01*
X0122094Y0220169D01*
X0122161Y0220282D01*
X0122231Y0220394D01*
X0122304Y0220503D01*
X0122380Y0220609D01*
X0122460Y0220714D01*
X0122543Y0220816D01*
X0122629Y0220915D01*
X0122718Y0221012D01*
X0122810Y0221106D01*
X0122905Y0221197D01*
X0123002Y0221286D01*
X0123102Y0221371D01*
X0123205Y0221453D01*
X0123310Y0221532D01*
X0123417Y0221608D01*
X0123527Y0221680D01*
X0123639Y0221749D01*
X0123753Y0221815D01*
X0123868Y0221877D01*
X0123986Y0221936D01*
X0124105Y0221991D01*
X0124226Y0222043D01*
X0124349Y0222090D01*
X0124473Y0222134D01*
X0124598Y0222175D01*
X0124724Y0222211D01*
X0124852Y0222244D01*
X0124980Y0222272D01*
X0125109Y0222297D01*
X0125239Y0222318D01*
X0125369Y0222335D01*
X0125500Y0222348D01*
X0125631Y0222357D01*
X0125762Y0222362D01*
X0125894Y0222363D01*
X0126025Y0222360D01*
X0126157Y0222353D01*
X0126288Y0222342D01*
X0126418Y0222327D01*
X0126548Y0222308D01*
X0126678Y0222285D01*
X0126806Y0222259D01*
X0126934Y0222228D01*
X0127061Y0222193D01*
X0127187Y0222155D01*
X0127311Y0222113D01*
X0127435Y0222067D01*
X0127556Y0222017D01*
X0127676Y0221964D01*
X0127795Y0221907D01*
X0127912Y0221847D01*
X0128026Y0221783D01*
X0128139Y0221715D01*
X0128250Y0221644D01*
X0128359Y0221570D01*
X0128465Y0221493D01*
X0128569Y0221412D01*
X0128670Y0221329D01*
X0128769Y0221242D01*
X0128865Y0221152D01*
X0128958Y0221059D01*
X0129049Y0220964D01*
X0129136Y0220866D01*
X0129221Y0220765D01*
X0129302Y0220662D01*
X0129380Y0220556D01*
X0129455Y0220448D01*
X0129527Y0220338D01*
X0129595Y0220226D01*
X0129660Y0220112D01*
X0129721Y0219995D01*
X0129779Y0219877D01*
X0129833Y0219757D01*
X0129884Y0219636D01*
X0129931Y0219513D01*
X0129974Y0219389D01*
X0130013Y0219264D01*
X0130049Y0219137D01*
X0130080Y0219009D01*
X0130108Y0218881D01*
X0130132Y0218752D01*
X0130152Y0218622D01*
X0130168Y0218491D01*
X0130180Y0218360D01*
X0130188Y0218229D01*
X0130192Y0218098D01*
X0130192Y0217966D01*
X0130188Y0217835D01*
X0130180Y0217704D01*
X0130168Y0217573D01*
X0130152Y0217442D01*
X0130132Y0217312D01*
X0130108Y0217183D01*
X0130080Y0217055D01*
X0130049Y0216927D01*
X0130013Y0216800D01*
X0129974Y0216675D01*
X0129931Y0216551D01*
X0129884Y0216428D01*
X0129833Y0216307D01*
X0129779Y0216187D01*
X0129721Y0216069D01*
X0129660Y0215952D01*
X0129595Y0215838D01*
X0129527Y0215726D01*
X0129455Y0215616D01*
X0129380Y0215508D01*
X0129302Y0215402D01*
X0129221Y0215299D01*
X0129136Y0215198D01*
X0129049Y0215100D01*
X0128958Y0215005D01*
X0128865Y0214912D01*
X0128769Y0214822D01*
X0128670Y0214735D01*
X0128569Y0214652D01*
X0128465Y0214571D01*
X0128359Y0214494D01*
X0128250Y0214420D01*
X0128139Y0214349D01*
X0128027Y0214281D01*
X0127912Y0214217D01*
X0127795Y0214157D01*
X0127676Y0214100D01*
X0127556Y0214047D01*
X0127435Y0213997D01*
X0127311Y0213951D01*
X0127187Y0213909D01*
X0127061Y0213871D01*
X0126934Y0213836D01*
X0126806Y0213805D01*
X0126678Y0213779D01*
X0126548Y0213756D01*
X0126418Y0213737D01*
X0126288Y0213722D01*
X0126157Y0213711D01*
X0126025Y0213704D01*
X0125894Y0213701D01*
X0125762Y0213702D01*
X0125631Y0213707D01*
X0125500Y0213716D01*
X0125369Y0213729D01*
X0125239Y0213746D01*
X0125109Y0213767D01*
X0124980Y0213792D01*
X0124852Y0213820D01*
X0124724Y0213853D01*
X0124598Y0213889D01*
X0124473Y0213930D01*
X0124349Y0213974D01*
X0124226Y0214021D01*
X0124105Y0214073D01*
X0123986Y0214128D01*
X0123868Y0214187D01*
X0123753Y0214249D01*
X0123639Y0214315D01*
X0123527Y0214384D01*
X0123417Y0214456D01*
X0123310Y0214532D01*
X0123205Y0214611D01*
X0123102Y0214693D01*
X0123002Y0214778D01*
X0122905Y0214867D01*
X0122810Y0214958D01*
X0122718Y0215052D01*
X0122629Y0215149D01*
X0122543Y0215248D01*
X0122460Y0215350D01*
X0122380Y0215455D01*
X0122304Y0215561D01*
X0122231Y0215670D01*
X0122161Y0215782D01*
X0122094Y0215895D01*
X0122031Y0216010D01*
X0121971Y0216128D01*
X0121915Y0216246D01*
X0121863Y0216367D01*
X0121814Y0216489D01*
X0121769Y0216613D01*
X0121728Y0216737D01*
X0121691Y0216864D01*
X0121657Y0216991D01*
X0121627Y0217119D01*
X0121602Y0217248D01*
X0121580Y0217377D01*
X0121562Y0217507D01*
X0121548Y0217638D01*
X0121538Y0217769D01*
X0121532Y0217901D01*
X0121530Y0218032D01*
X0106904Y0222166D02*
X0106906Y0222257D01*
X0106912Y0222347D01*
X0106922Y0222438D01*
X0106936Y0222527D01*
X0106954Y0222616D01*
X0106975Y0222705D01*
X0107001Y0222792D01*
X0107030Y0222878D01*
X0107064Y0222962D01*
X0107100Y0223045D01*
X0107141Y0223127D01*
X0107185Y0223206D01*
X0107232Y0223284D01*
X0107283Y0223359D01*
X0107337Y0223432D01*
X0107394Y0223502D01*
X0107454Y0223570D01*
X0107517Y0223636D01*
X0107583Y0223698D01*
X0107652Y0223757D01*
X0107723Y0223814D01*
X0107797Y0223867D01*
X0107873Y0223917D01*
X0107951Y0223964D01*
X0108031Y0224007D01*
X0108112Y0224046D01*
X0108196Y0224082D01*
X0108281Y0224114D01*
X0108367Y0224143D01*
X0108454Y0224167D01*
X0108543Y0224188D01*
X0108632Y0224205D01*
X0108722Y0224218D01*
X0108812Y0224227D01*
X0108903Y0224232D01*
X0108994Y0224233D01*
X0109084Y0224230D01*
X0109175Y0224223D01*
X0109265Y0224212D01*
X0109355Y0224197D01*
X0109444Y0224178D01*
X0109532Y0224156D01*
X0109618Y0224129D01*
X0109704Y0224099D01*
X0109788Y0224065D01*
X0109871Y0224027D01*
X0109952Y0223986D01*
X0110031Y0223941D01*
X0110108Y0223892D01*
X0110182Y0223841D01*
X0110255Y0223786D01*
X0110325Y0223728D01*
X0110392Y0223667D01*
X0110456Y0223603D01*
X0110518Y0223537D01*
X0110577Y0223467D01*
X0110632Y0223396D01*
X0110685Y0223321D01*
X0110734Y0223245D01*
X0110780Y0223167D01*
X0110822Y0223086D01*
X0110861Y0223004D01*
X0110896Y0222920D01*
X0110927Y0222835D01*
X0110954Y0222748D01*
X0110978Y0222661D01*
X0110998Y0222572D01*
X0111014Y0222483D01*
X0111026Y0222393D01*
X0111034Y0222302D01*
X0111038Y0222211D01*
X0111038Y0222121D01*
X0111034Y0222030D01*
X0111026Y0221939D01*
X0111014Y0221849D01*
X0110998Y0221760D01*
X0110978Y0221671D01*
X0110954Y0221584D01*
X0110927Y0221497D01*
X0110896Y0221412D01*
X0110861Y0221328D01*
X0110822Y0221246D01*
X0110780Y0221165D01*
X0110734Y0221087D01*
X0110685Y0221011D01*
X0110632Y0220936D01*
X0110577Y0220865D01*
X0110518Y0220795D01*
X0110456Y0220729D01*
X0110392Y0220665D01*
X0110325Y0220604D01*
X0110255Y0220546D01*
X0110182Y0220491D01*
X0110108Y0220440D01*
X0110031Y0220391D01*
X0109952Y0220346D01*
X0109871Y0220305D01*
X0109788Y0220267D01*
X0109704Y0220233D01*
X0109618Y0220203D01*
X0109532Y0220176D01*
X0109444Y0220154D01*
X0109355Y0220135D01*
X0109265Y0220120D01*
X0109175Y0220109D01*
X0109084Y0220102D01*
X0108994Y0220099D01*
X0108903Y0220100D01*
X0108812Y0220105D01*
X0108722Y0220114D01*
X0108632Y0220127D01*
X0108543Y0220144D01*
X0108454Y0220165D01*
X0108367Y0220189D01*
X0108281Y0220218D01*
X0108196Y0220250D01*
X0108112Y0220286D01*
X0108031Y0220325D01*
X0107951Y0220368D01*
X0107873Y0220415D01*
X0107797Y0220465D01*
X0107723Y0220518D01*
X0107652Y0220575D01*
X0107583Y0220634D01*
X0107517Y0220696D01*
X0107454Y0220762D01*
X0107394Y0220830D01*
X0107337Y0220900D01*
X0107283Y0220973D01*
X0107232Y0221048D01*
X0107185Y0221126D01*
X0107141Y0221205D01*
X0107100Y0221287D01*
X0107064Y0221370D01*
X0107030Y0221454D01*
X0107001Y0221540D01*
X0106975Y0221627D01*
X0106954Y0221716D01*
X0106936Y0221805D01*
X0106922Y0221894D01*
X0106912Y0221985D01*
X0106906Y0222075D01*
X0106904Y0222166D01*
X0106904Y0213544D02*
X0106906Y0213635D01*
X0106912Y0213725D01*
X0106922Y0213816D01*
X0106936Y0213905D01*
X0106954Y0213994D01*
X0106975Y0214083D01*
X0107001Y0214170D01*
X0107030Y0214256D01*
X0107064Y0214340D01*
X0107100Y0214423D01*
X0107141Y0214505D01*
X0107185Y0214584D01*
X0107232Y0214662D01*
X0107283Y0214737D01*
X0107337Y0214810D01*
X0107394Y0214880D01*
X0107454Y0214948D01*
X0107517Y0215014D01*
X0107583Y0215076D01*
X0107652Y0215135D01*
X0107723Y0215192D01*
X0107797Y0215245D01*
X0107873Y0215295D01*
X0107951Y0215342D01*
X0108031Y0215385D01*
X0108112Y0215424D01*
X0108196Y0215460D01*
X0108281Y0215492D01*
X0108367Y0215521D01*
X0108454Y0215545D01*
X0108543Y0215566D01*
X0108632Y0215583D01*
X0108722Y0215596D01*
X0108812Y0215605D01*
X0108903Y0215610D01*
X0108994Y0215611D01*
X0109084Y0215608D01*
X0109175Y0215601D01*
X0109265Y0215590D01*
X0109355Y0215575D01*
X0109444Y0215556D01*
X0109532Y0215534D01*
X0109618Y0215507D01*
X0109704Y0215477D01*
X0109788Y0215443D01*
X0109871Y0215405D01*
X0109952Y0215364D01*
X0110031Y0215319D01*
X0110108Y0215270D01*
X0110182Y0215219D01*
X0110255Y0215164D01*
X0110325Y0215106D01*
X0110392Y0215045D01*
X0110456Y0214981D01*
X0110518Y0214915D01*
X0110577Y0214845D01*
X0110632Y0214774D01*
X0110685Y0214699D01*
X0110734Y0214623D01*
X0110780Y0214545D01*
X0110822Y0214464D01*
X0110861Y0214382D01*
X0110896Y0214298D01*
X0110927Y0214213D01*
X0110954Y0214126D01*
X0110978Y0214039D01*
X0110998Y0213950D01*
X0111014Y0213861D01*
X0111026Y0213771D01*
X0111034Y0213680D01*
X0111038Y0213589D01*
X0111038Y0213499D01*
X0111034Y0213408D01*
X0111026Y0213317D01*
X0111014Y0213227D01*
X0110998Y0213138D01*
X0110978Y0213049D01*
X0110954Y0212962D01*
X0110927Y0212875D01*
X0110896Y0212790D01*
X0110861Y0212706D01*
X0110822Y0212624D01*
X0110780Y0212543D01*
X0110734Y0212465D01*
X0110685Y0212389D01*
X0110632Y0212314D01*
X0110577Y0212243D01*
X0110518Y0212173D01*
X0110456Y0212107D01*
X0110392Y0212043D01*
X0110325Y0211982D01*
X0110255Y0211924D01*
X0110182Y0211869D01*
X0110108Y0211818D01*
X0110031Y0211769D01*
X0109952Y0211724D01*
X0109871Y0211683D01*
X0109788Y0211645D01*
X0109704Y0211611D01*
X0109618Y0211581D01*
X0109532Y0211554D01*
X0109444Y0211532D01*
X0109355Y0211513D01*
X0109265Y0211498D01*
X0109175Y0211487D01*
X0109084Y0211480D01*
X0108994Y0211477D01*
X0108903Y0211478D01*
X0108812Y0211483D01*
X0108722Y0211492D01*
X0108632Y0211505D01*
X0108543Y0211522D01*
X0108454Y0211543D01*
X0108367Y0211567D01*
X0108281Y0211596D01*
X0108196Y0211628D01*
X0108112Y0211664D01*
X0108031Y0211703D01*
X0107951Y0211746D01*
X0107873Y0211793D01*
X0107797Y0211843D01*
X0107723Y0211896D01*
X0107652Y0211953D01*
X0107583Y0212012D01*
X0107517Y0212074D01*
X0107454Y0212140D01*
X0107394Y0212208D01*
X0107337Y0212278D01*
X0107283Y0212351D01*
X0107232Y0212426D01*
X0107185Y0212504D01*
X0107141Y0212583D01*
X0107100Y0212665D01*
X0107064Y0212748D01*
X0107030Y0212832D01*
X0107001Y0212918D01*
X0106975Y0213005D01*
X0106954Y0213094D01*
X0106936Y0213183D01*
X0106922Y0213272D01*
X0106912Y0213363D01*
X0106906Y0213453D01*
X0106904Y0213544D01*
X0013538Y0375316D02*
X0013540Y0375509D01*
X0013547Y0375702D01*
X0013559Y0375895D01*
X0013576Y0376088D01*
X0013597Y0376280D01*
X0013623Y0376471D01*
X0013654Y0376662D01*
X0013689Y0376852D01*
X0013729Y0377041D01*
X0013774Y0377229D01*
X0013823Y0377416D01*
X0013877Y0377602D01*
X0013935Y0377786D01*
X0013998Y0377969D01*
X0014066Y0378150D01*
X0014137Y0378329D01*
X0014214Y0378507D01*
X0014294Y0378683D01*
X0014379Y0378856D01*
X0014468Y0379028D01*
X0014561Y0379197D01*
X0014658Y0379364D01*
X0014760Y0379529D01*
X0014865Y0379691D01*
X0014974Y0379850D01*
X0015088Y0380007D01*
X0015205Y0380160D01*
X0015325Y0380311D01*
X0015450Y0380459D01*
X0015578Y0380604D01*
X0015709Y0380745D01*
X0015844Y0380884D01*
X0015983Y0381019D01*
X0016124Y0381150D01*
X0016269Y0381278D01*
X0016417Y0381403D01*
X0016568Y0381523D01*
X0016721Y0381640D01*
X0016878Y0381754D01*
X0017037Y0381863D01*
X0017199Y0381968D01*
X0017364Y0382070D01*
X0017531Y0382167D01*
X0017700Y0382260D01*
X0017872Y0382349D01*
X0018045Y0382434D01*
X0018221Y0382514D01*
X0018399Y0382591D01*
X0018578Y0382662D01*
X0018759Y0382730D01*
X0018942Y0382793D01*
X0019126Y0382851D01*
X0019312Y0382905D01*
X0019499Y0382954D01*
X0019687Y0382999D01*
X0019876Y0383039D01*
X0020066Y0383074D01*
X0020257Y0383105D01*
X0020448Y0383131D01*
X0020640Y0383152D01*
X0020833Y0383169D01*
X0021026Y0383181D01*
X0021219Y0383188D01*
X0021412Y0383190D01*
X0021605Y0383188D01*
X0021798Y0383181D01*
X0021991Y0383169D01*
X0022184Y0383152D01*
X0022376Y0383131D01*
X0022567Y0383105D01*
X0022758Y0383074D01*
X0022948Y0383039D01*
X0023137Y0382999D01*
X0023325Y0382954D01*
X0023512Y0382905D01*
X0023698Y0382851D01*
X0023882Y0382793D01*
X0024065Y0382730D01*
X0024246Y0382662D01*
X0024425Y0382591D01*
X0024603Y0382514D01*
X0024779Y0382434D01*
X0024952Y0382349D01*
X0025124Y0382260D01*
X0025293Y0382167D01*
X0025460Y0382070D01*
X0025625Y0381968D01*
X0025787Y0381863D01*
X0025946Y0381754D01*
X0026103Y0381640D01*
X0026256Y0381523D01*
X0026407Y0381403D01*
X0026555Y0381278D01*
X0026700Y0381150D01*
X0026841Y0381019D01*
X0026980Y0380884D01*
X0027115Y0380745D01*
X0027246Y0380604D01*
X0027374Y0380459D01*
X0027499Y0380311D01*
X0027619Y0380160D01*
X0027736Y0380007D01*
X0027850Y0379850D01*
X0027959Y0379691D01*
X0028064Y0379529D01*
X0028166Y0379364D01*
X0028263Y0379197D01*
X0028356Y0379028D01*
X0028445Y0378856D01*
X0028530Y0378683D01*
X0028610Y0378507D01*
X0028687Y0378329D01*
X0028758Y0378150D01*
X0028826Y0377969D01*
X0028889Y0377786D01*
X0028947Y0377602D01*
X0029001Y0377416D01*
X0029050Y0377229D01*
X0029095Y0377041D01*
X0029135Y0376852D01*
X0029170Y0376662D01*
X0029201Y0376471D01*
X0029227Y0376280D01*
X0029248Y0376088D01*
X0029265Y0375895D01*
X0029277Y0375702D01*
X0029284Y0375509D01*
X0029286Y0375316D01*
X0029284Y0375123D01*
X0029277Y0374930D01*
X0029265Y0374737D01*
X0029248Y0374544D01*
X0029227Y0374352D01*
X0029201Y0374161D01*
X0029170Y0373970D01*
X0029135Y0373780D01*
X0029095Y0373591D01*
X0029050Y0373403D01*
X0029001Y0373216D01*
X0028947Y0373030D01*
X0028889Y0372846D01*
X0028826Y0372663D01*
X0028758Y0372482D01*
X0028687Y0372303D01*
X0028610Y0372125D01*
X0028530Y0371949D01*
X0028445Y0371776D01*
X0028356Y0371604D01*
X0028263Y0371435D01*
X0028166Y0371268D01*
X0028064Y0371103D01*
X0027959Y0370941D01*
X0027850Y0370782D01*
X0027736Y0370625D01*
X0027619Y0370472D01*
X0027499Y0370321D01*
X0027374Y0370173D01*
X0027246Y0370028D01*
X0027115Y0369887D01*
X0026980Y0369748D01*
X0026841Y0369613D01*
X0026700Y0369482D01*
X0026555Y0369354D01*
X0026407Y0369229D01*
X0026256Y0369109D01*
X0026103Y0368992D01*
X0025946Y0368878D01*
X0025787Y0368769D01*
X0025625Y0368664D01*
X0025460Y0368562D01*
X0025293Y0368465D01*
X0025124Y0368372D01*
X0024952Y0368283D01*
X0024779Y0368198D01*
X0024603Y0368118D01*
X0024425Y0368041D01*
X0024246Y0367970D01*
X0024065Y0367902D01*
X0023882Y0367839D01*
X0023698Y0367781D01*
X0023512Y0367727D01*
X0023325Y0367678D01*
X0023137Y0367633D01*
X0022948Y0367593D01*
X0022758Y0367558D01*
X0022567Y0367527D01*
X0022376Y0367501D01*
X0022184Y0367480D01*
X0021991Y0367463D01*
X0021798Y0367451D01*
X0021605Y0367444D01*
X0021412Y0367442D01*
X0021219Y0367444D01*
X0021026Y0367451D01*
X0020833Y0367463D01*
X0020640Y0367480D01*
X0020448Y0367501D01*
X0020257Y0367527D01*
X0020066Y0367558D01*
X0019876Y0367593D01*
X0019687Y0367633D01*
X0019499Y0367678D01*
X0019312Y0367727D01*
X0019126Y0367781D01*
X0018942Y0367839D01*
X0018759Y0367902D01*
X0018578Y0367970D01*
X0018399Y0368041D01*
X0018221Y0368118D01*
X0018045Y0368198D01*
X0017872Y0368283D01*
X0017700Y0368372D01*
X0017531Y0368465D01*
X0017364Y0368562D01*
X0017199Y0368664D01*
X0017037Y0368769D01*
X0016878Y0368878D01*
X0016721Y0368992D01*
X0016568Y0369109D01*
X0016417Y0369229D01*
X0016269Y0369354D01*
X0016124Y0369482D01*
X0015983Y0369613D01*
X0015844Y0369748D01*
X0015709Y0369887D01*
X0015578Y0370028D01*
X0015450Y0370173D01*
X0015325Y0370321D01*
X0015205Y0370472D01*
X0015088Y0370625D01*
X0014974Y0370782D01*
X0014865Y0370941D01*
X0014760Y0371103D01*
X0014658Y0371268D01*
X0014561Y0371435D01*
X0014468Y0371604D01*
X0014379Y0371776D01*
X0014294Y0371949D01*
X0014214Y0372125D01*
X0014137Y0372303D01*
X0014066Y0372482D01*
X0013998Y0372663D01*
X0013935Y0372846D01*
X0013877Y0373030D01*
X0013823Y0373216D01*
X0013774Y0373403D01*
X0013729Y0373591D01*
X0013689Y0373780D01*
X0013654Y0373970D01*
X0013623Y0374161D01*
X0013597Y0374352D01*
X0013576Y0374544D01*
X0013559Y0374737D01*
X0013547Y0374930D01*
X0013540Y0375123D01*
X0013538Y0375316D01*
X0371806Y0379253D02*
X0371808Y0379446D01*
X0371815Y0379639D01*
X0371827Y0379832D01*
X0371844Y0380025D01*
X0371865Y0380217D01*
X0371891Y0380408D01*
X0371922Y0380599D01*
X0371957Y0380789D01*
X0371997Y0380978D01*
X0372042Y0381166D01*
X0372091Y0381353D01*
X0372145Y0381539D01*
X0372203Y0381723D01*
X0372266Y0381906D01*
X0372334Y0382087D01*
X0372405Y0382266D01*
X0372482Y0382444D01*
X0372562Y0382620D01*
X0372647Y0382793D01*
X0372736Y0382965D01*
X0372829Y0383134D01*
X0372926Y0383301D01*
X0373028Y0383466D01*
X0373133Y0383628D01*
X0373242Y0383787D01*
X0373356Y0383944D01*
X0373473Y0384097D01*
X0373593Y0384248D01*
X0373718Y0384396D01*
X0373846Y0384541D01*
X0373977Y0384682D01*
X0374112Y0384821D01*
X0374251Y0384956D01*
X0374392Y0385087D01*
X0374537Y0385215D01*
X0374685Y0385340D01*
X0374836Y0385460D01*
X0374989Y0385577D01*
X0375146Y0385691D01*
X0375305Y0385800D01*
X0375467Y0385905D01*
X0375632Y0386007D01*
X0375799Y0386104D01*
X0375968Y0386197D01*
X0376140Y0386286D01*
X0376313Y0386371D01*
X0376489Y0386451D01*
X0376667Y0386528D01*
X0376846Y0386599D01*
X0377027Y0386667D01*
X0377210Y0386730D01*
X0377394Y0386788D01*
X0377580Y0386842D01*
X0377767Y0386891D01*
X0377955Y0386936D01*
X0378144Y0386976D01*
X0378334Y0387011D01*
X0378525Y0387042D01*
X0378716Y0387068D01*
X0378908Y0387089D01*
X0379101Y0387106D01*
X0379294Y0387118D01*
X0379487Y0387125D01*
X0379680Y0387127D01*
X0379873Y0387125D01*
X0380066Y0387118D01*
X0380259Y0387106D01*
X0380452Y0387089D01*
X0380644Y0387068D01*
X0380835Y0387042D01*
X0381026Y0387011D01*
X0381216Y0386976D01*
X0381405Y0386936D01*
X0381593Y0386891D01*
X0381780Y0386842D01*
X0381966Y0386788D01*
X0382150Y0386730D01*
X0382333Y0386667D01*
X0382514Y0386599D01*
X0382693Y0386528D01*
X0382871Y0386451D01*
X0383047Y0386371D01*
X0383220Y0386286D01*
X0383392Y0386197D01*
X0383561Y0386104D01*
X0383728Y0386007D01*
X0383893Y0385905D01*
X0384055Y0385800D01*
X0384214Y0385691D01*
X0384371Y0385577D01*
X0384524Y0385460D01*
X0384675Y0385340D01*
X0384823Y0385215D01*
X0384968Y0385087D01*
X0385109Y0384956D01*
X0385248Y0384821D01*
X0385383Y0384682D01*
X0385514Y0384541D01*
X0385642Y0384396D01*
X0385767Y0384248D01*
X0385887Y0384097D01*
X0386004Y0383944D01*
X0386118Y0383787D01*
X0386227Y0383628D01*
X0386332Y0383466D01*
X0386434Y0383301D01*
X0386531Y0383134D01*
X0386624Y0382965D01*
X0386713Y0382793D01*
X0386798Y0382620D01*
X0386878Y0382444D01*
X0386955Y0382266D01*
X0387026Y0382087D01*
X0387094Y0381906D01*
X0387157Y0381723D01*
X0387215Y0381539D01*
X0387269Y0381353D01*
X0387318Y0381166D01*
X0387363Y0380978D01*
X0387403Y0380789D01*
X0387438Y0380599D01*
X0387469Y0380408D01*
X0387495Y0380217D01*
X0387516Y0380025D01*
X0387533Y0379832D01*
X0387545Y0379639D01*
X0387552Y0379446D01*
X0387554Y0379253D01*
X0387552Y0379060D01*
X0387545Y0378867D01*
X0387533Y0378674D01*
X0387516Y0378481D01*
X0387495Y0378289D01*
X0387469Y0378098D01*
X0387438Y0377907D01*
X0387403Y0377717D01*
X0387363Y0377528D01*
X0387318Y0377340D01*
X0387269Y0377153D01*
X0387215Y0376967D01*
X0387157Y0376783D01*
X0387094Y0376600D01*
X0387026Y0376419D01*
X0386955Y0376240D01*
X0386878Y0376062D01*
X0386798Y0375886D01*
X0386713Y0375713D01*
X0386624Y0375541D01*
X0386531Y0375372D01*
X0386434Y0375205D01*
X0386332Y0375040D01*
X0386227Y0374878D01*
X0386118Y0374719D01*
X0386004Y0374562D01*
X0385887Y0374409D01*
X0385767Y0374258D01*
X0385642Y0374110D01*
X0385514Y0373965D01*
X0385383Y0373824D01*
X0385248Y0373685D01*
X0385109Y0373550D01*
X0384968Y0373419D01*
X0384823Y0373291D01*
X0384675Y0373166D01*
X0384524Y0373046D01*
X0384371Y0372929D01*
X0384214Y0372815D01*
X0384055Y0372706D01*
X0383893Y0372601D01*
X0383728Y0372499D01*
X0383561Y0372402D01*
X0383392Y0372309D01*
X0383220Y0372220D01*
X0383047Y0372135D01*
X0382871Y0372055D01*
X0382693Y0371978D01*
X0382514Y0371907D01*
X0382333Y0371839D01*
X0382150Y0371776D01*
X0381966Y0371718D01*
X0381780Y0371664D01*
X0381593Y0371615D01*
X0381405Y0371570D01*
X0381216Y0371530D01*
X0381026Y0371495D01*
X0380835Y0371464D01*
X0380644Y0371438D01*
X0380452Y0371417D01*
X0380259Y0371400D01*
X0380066Y0371388D01*
X0379873Y0371381D01*
X0379680Y0371379D01*
X0379487Y0371381D01*
X0379294Y0371388D01*
X0379101Y0371400D01*
X0378908Y0371417D01*
X0378716Y0371438D01*
X0378525Y0371464D01*
X0378334Y0371495D01*
X0378144Y0371530D01*
X0377955Y0371570D01*
X0377767Y0371615D01*
X0377580Y0371664D01*
X0377394Y0371718D01*
X0377210Y0371776D01*
X0377027Y0371839D01*
X0376846Y0371907D01*
X0376667Y0371978D01*
X0376489Y0372055D01*
X0376313Y0372135D01*
X0376140Y0372220D01*
X0375968Y0372309D01*
X0375799Y0372402D01*
X0375632Y0372499D01*
X0375467Y0372601D01*
X0375305Y0372706D01*
X0375146Y0372815D01*
X0374989Y0372929D01*
X0374836Y0373046D01*
X0374685Y0373166D01*
X0374537Y0373291D01*
X0374392Y0373419D01*
X0374251Y0373550D01*
X0374112Y0373685D01*
X0373977Y0373824D01*
X0373846Y0373965D01*
X0373718Y0374110D01*
X0373593Y0374258D01*
X0373473Y0374409D01*
X0373356Y0374562D01*
X0373242Y0374719D01*
X0373133Y0374878D01*
X0373028Y0375040D01*
X0372926Y0375205D01*
X0372829Y0375372D01*
X0372736Y0375541D01*
X0372647Y0375713D01*
X0372562Y0375886D01*
X0372482Y0376062D01*
X0372405Y0376240D01*
X0372334Y0376419D01*
X0372266Y0376600D01*
X0372203Y0376783D01*
X0372145Y0376967D01*
X0372091Y0377153D01*
X0372042Y0377340D01*
X0371997Y0377528D01*
X0371957Y0377717D01*
X0371922Y0377907D01*
X0371891Y0378098D01*
X0371865Y0378289D01*
X0371844Y0378481D01*
X0371827Y0378674D01*
X0371815Y0378867D01*
X0371808Y0379060D01*
X0371806Y0379253D01*
X0371806Y0017048D02*
X0371808Y0017241D01*
X0371815Y0017434D01*
X0371827Y0017627D01*
X0371844Y0017820D01*
X0371865Y0018012D01*
X0371891Y0018203D01*
X0371922Y0018394D01*
X0371957Y0018584D01*
X0371997Y0018773D01*
X0372042Y0018961D01*
X0372091Y0019148D01*
X0372145Y0019334D01*
X0372203Y0019518D01*
X0372266Y0019701D01*
X0372334Y0019882D01*
X0372405Y0020061D01*
X0372482Y0020239D01*
X0372562Y0020415D01*
X0372647Y0020588D01*
X0372736Y0020760D01*
X0372829Y0020929D01*
X0372926Y0021096D01*
X0373028Y0021261D01*
X0373133Y0021423D01*
X0373242Y0021582D01*
X0373356Y0021739D01*
X0373473Y0021892D01*
X0373593Y0022043D01*
X0373718Y0022191D01*
X0373846Y0022336D01*
X0373977Y0022477D01*
X0374112Y0022616D01*
X0374251Y0022751D01*
X0374392Y0022882D01*
X0374537Y0023010D01*
X0374685Y0023135D01*
X0374836Y0023255D01*
X0374989Y0023372D01*
X0375146Y0023486D01*
X0375305Y0023595D01*
X0375467Y0023700D01*
X0375632Y0023802D01*
X0375799Y0023899D01*
X0375968Y0023992D01*
X0376140Y0024081D01*
X0376313Y0024166D01*
X0376489Y0024246D01*
X0376667Y0024323D01*
X0376846Y0024394D01*
X0377027Y0024462D01*
X0377210Y0024525D01*
X0377394Y0024583D01*
X0377580Y0024637D01*
X0377767Y0024686D01*
X0377955Y0024731D01*
X0378144Y0024771D01*
X0378334Y0024806D01*
X0378525Y0024837D01*
X0378716Y0024863D01*
X0378908Y0024884D01*
X0379101Y0024901D01*
X0379294Y0024913D01*
X0379487Y0024920D01*
X0379680Y0024922D01*
X0379873Y0024920D01*
X0380066Y0024913D01*
X0380259Y0024901D01*
X0380452Y0024884D01*
X0380644Y0024863D01*
X0380835Y0024837D01*
X0381026Y0024806D01*
X0381216Y0024771D01*
X0381405Y0024731D01*
X0381593Y0024686D01*
X0381780Y0024637D01*
X0381966Y0024583D01*
X0382150Y0024525D01*
X0382333Y0024462D01*
X0382514Y0024394D01*
X0382693Y0024323D01*
X0382871Y0024246D01*
X0383047Y0024166D01*
X0383220Y0024081D01*
X0383392Y0023992D01*
X0383561Y0023899D01*
X0383728Y0023802D01*
X0383893Y0023700D01*
X0384055Y0023595D01*
X0384214Y0023486D01*
X0384371Y0023372D01*
X0384524Y0023255D01*
X0384675Y0023135D01*
X0384823Y0023010D01*
X0384968Y0022882D01*
X0385109Y0022751D01*
X0385248Y0022616D01*
X0385383Y0022477D01*
X0385514Y0022336D01*
X0385642Y0022191D01*
X0385767Y0022043D01*
X0385887Y0021892D01*
X0386004Y0021739D01*
X0386118Y0021582D01*
X0386227Y0021423D01*
X0386332Y0021261D01*
X0386434Y0021096D01*
X0386531Y0020929D01*
X0386624Y0020760D01*
X0386713Y0020588D01*
X0386798Y0020415D01*
X0386878Y0020239D01*
X0386955Y0020061D01*
X0387026Y0019882D01*
X0387094Y0019701D01*
X0387157Y0019518D01*
X0387215Y0019334D01*
X0387269Y0019148D01*
X0387318Y0018961D01*
X0387363Y0018773D01*
X0387403Y0018584D01*
X0387438Y0018394D01*
X0387469Y0018203D01*
X0387495Y0018012D01*
X0387516Y0017820D01*
X0387533Y0017627D01*
X0387545Y0017434D01*
X0387552Y0017241D01*
X0387554Y0017048D01*
X0387552Y0016855D01*
X0387545Y0016662D01*
X0387533Y0016469D01*
X0387516Y0016276D01*
X0387495Y0016084D01*
X0387469Y0015893D01*
X0387438Y0015702D01*
X0387403Y0015512D01*
X0387363Y0015323D01*
X0387318Y0015135D01*
X0387269Y0014948D01*
X0387215Y0014762D01*
X0387157Y0014578D01*
X0387094Y0014395D01*
X0387026Y0014214D01*
X0386955Y0014035D01*
X0386878Y0013857D01*
X0386798Y0013681D01*
X0386713Y0013508D01*
X0386624Y0013336D01*
X0386531Y0013167D01*
X0386434Y0013000D01*
X0386332Y0012835D01*
X0386227Y0012673D01*
X0386118Y0012514D01*
X0386004Y0012357D01*
X0385887Y0012204D01*
X0385767Y0012053D01*
X0385642Y0011905D01*
X0385514Y0011760D01*
X0385383Y0011619D01*
X0385248Y0011480D01*
X0385109Y0011345D01*
X0384968Y0011214D01*
X0384823Y0011086D01*
X0384675Y0010961D01*
X0384524Y0010841D01*
X0384371Y0010724D01*
X0384214Y0010610D01*
X0384055Y0010501D01*
X0383893Y0010396D01*
X0383728Y0010294D01*
X0383561Y0010197D01*
X0383392Y0010104D01*
X0383220Y0010015D01*
X0383047Y0009930D01*
X0382871Y0009850D01*
X0382693Y0009773D01*
X0382514Y0009702D01*
X0382333Y0009634D01*
X0382150Y0009571D01*
X0381966Y0009513D01*
X0381780Y0009459D01*
X0381593Y0009410D01*
X0381405Y0009365D01*
X0381216Y0009325D01*
X0381026Y0009290D01*
X0380835Y0009259D01*
X0380644Y0009233D01*
X0380452Y0009212D01*
X0380259Y0009195D01*
X0380066Y0009183D01*
X0379873Y0009176D01*
X0379680Y0009174D01*
X0379487Y0009176D01*
X0379294Y0009183D01*
X0379101Y0009195D01*
X0378908Y0009212D01*
X0378716Y0009233D01*
X0378525Y0009259D01*
X0378334Y0009290D01*
X0378144Y0009325D01*
X0377955Y0009365D01*
X0377767Y0009410D01*
X0377580Y0009459D01*
X0377394Y0009513D01*
X0377210Y0009571D01*
X0377027Y0009634D01*
X0376846Y0009702D01*
X0376667Y0009773D01*
X0376489Y0009850D01*
X0376313Y0009930D01*
X0376140Y0010015D01*
X0375968Y0010104D01*
X0375799Y0010197D01*
X0375632Y0010294D01*
X0375467Y0010396D01*
X0375305Y0010501D01*
X0375146Y0010610D01*
X0374989Y0010724D01*
X0374836Y0010841D01*
X0374685Y0010961D01*
X0374537Y0011086D01*
X0374392Y0011214D01*
X0374251Y0011345D01*
X0374112Y0011480D01*
X0373977Y0011619D01*
X0373846Y0011760D01*
X0373718Y0011905D01*
X0373593Y0012053D01*
X0373473Y0012204D01*
X0373356Y0012357D01*
X0373242Y0012514D01*
X0373133Y0012673D01*
X0373028Y0012835D01*
X0372926Y0013000D01*
X0372829Y0013167D01*
X0372736Y0013336D01*
X0372647Y0013508D01*
X0372562Y0013681D01*
X0372482Y0013857D01*
X0372405Y0014035D01*
X0372334Y0014214D01*
X0372266Y0014395D01*
X0372203Y0014578D01*
X0372145Y0014762D01*
X0372091Y0014948D01*
X0372042Y0015135D01*
X0371997Y0015323D01*
X0371957Y0015512D01*
X0371922Y0015702D01*
X0371891Y0015893D01*
X0371865Y0016084D01*
X0371844Y0016276D01*
X0371827Y0016469D01*
X0371815Y0016662D01*
X0371808Y0016855D01*
X0371806Y0017048D01*
M02*
