%
M48
M72
T01C0.0138
T02C0.0150
T03C0.0177
T04C0.0315
T05C0.0320
T06C0.0354
T07C0.0374
T08C0.0394
T09C0.0400
T10C0.0413
T11C0.0650
T12C0.0709
T13C0.0866
T14C0.1102
T15C0.1260
T16C0.1575
%
T01
X21223Y31480
T02
X20803Y31036
X18972Y32020
X17594Y30642
X16610Y32512
X15724Y31134
X13263Y32906
X12771Y33988
X12181Y33693
X10409Y33299
X9621Y34087
X8145Y34284
X5980Y32906
X3814Y31429
X3519Y31823
X2732Y32217
X3322Y29461
X4503Y27689
X3322Y27197
X3716Y26213
X2633Y26213
X1846Y26606
X1846Y27394
X566Y26705
X3716Y24835
X4700Y25228
X6177Y23654
X6669Y24638
X7259Y24638
X9326Y25228
X10015Y25130
X10114Y24638
X10310Y24047
X9917Y23457
X9621Y23063
X8736Y21980
X8244Y21980
X8244Y22473
X7751Y21095
X7161Y20602
X6767Y19421
X8145Y18437
X8440Y19126
X8440Y19913
X8440Y20504
X10310Y19224
X10310Y18634
X10507Y20110
X12968Y18634
X12673Y17059
X11885Y17059
X11393Y17059
X11688Y15878
X11688Y15386
X11590Y14697
X12673Y16173
X13755Y15681
X14641Y15878
X15429Y16173
X15429Y17059
X16610Y17551
X19070Y17059
X19464Y16665
X18184Y13713
X18677Y13221
X16807Y11449
X15429Y9973
X15035Y11547
X15035Y12925
X15822Y13713
X12968Y10661
X12082Y10661
X11098Y12138
X10606Y12039
X12082Y12433
X9228Y14795
X10310Y15780
X8145Y15780
X7161Y15386
X6177Y15287
X5291Y16075
X4897Y15189
X4011Y14205
X3519Y13122
X3027Y13024
X2141Y13516
X3125Y14697
X4110Y16862
X4110Y17748
X3618Y18536
X2929Y17158
X2141Y18536
X4700Y20504
X4700Y22079
X4110Y22079
X4110Y23161
X2633Y22768
X6767Y17945
X6767Y16961
X8145Y17551
X13460Y23654
X12377Y25228
X12771Y26016
X13854Y26705
X13755Y27689
X11688Y27591
X11295Y26410
X10114Y26016
X12771Y29559
X11787Y30248
X12771Y31429
X17200Y35071
X17889Y34579
X19267Y33988
X19267Y35465
X21137Y37138
X22121Y37630
X22909Y36154
X21531Y35268
X23795Y33693
X26059Y32807
X26649Y31429
X27043Y30937
X26747Y30445
X26649Y29953
X26846Y28280
X26846Y27197
X28322Y28870
X29011Y28969
X30783Y29461
X33539Y32610
X34720Y31331
X35310Y31921
X36984Y34382
X37771Y35169
X32358Y37925
X24484Y30839
X24779Y28280
X23992Y26606
X23303Y25917
X21925Y25130
X20842Y25130
X19562Y24343
X18381Y25228
X17397Y24835
X17003Y25917
X18775Y26508
X20842Y26705
X24779Y25327
X25960Y23260
X27338Y24736
X27830Y24835
X28814Y22669
X27436Y21784
X27436Y20406
X26551Y20406
X27338Y19028
X26354Y18240
X25960Y17650
X27338Y17748
X28322Y16961
X30094Y16665
X30980Y16173
X31964Y15780
X33145Y16272
X35212Y15189
X35409Y15583
X36295Y14106
X36787Y13910
X37673Y13614
X35212Y12039
X31373Y7610
X29996Y6823
X29307Y8496
X26846Y6429
X26059Y4658
X26452Y3673
X24188Y5445
X21925Y8496
X20645Y8102
X19562Y6823
X18677Y7413
X18283Y8102
X18283Y5740
X16807Y4461
X16413Y4658
X16118Y2886
X19070Y2492
X20251Y3673
X21137Y2492
X21826Y10169
X22614Y11646
X21629Y12433
X23795Y12630
X24385Y11252
X25763Y11055
X25468Y12138
X24976Y14008
X23992Y15484
X22318Y17158
X22810Y17847
X22318Y18732
X22121Y19717
X22121Y20209
X23499Y18831
X24385Y19421
X24779Y19028
X23893Y19913
X19464Y21291
X18381Y20701
X17889Y22177
X16413Y22866
X14641Y21587
X15035Y20406
X6275Y29559
X7751Y30347
X5980Y36055
X8145Y38122
X8440Y38516
X9031Y39008
X9621Y38122
X10015Y38417
X11787Y38319
X12870Y37039
X13460Y37335
X15625Y39008
X16708Y36350
X16118Y36252
X18775Y38516
X19464Y38614
X31866Y26114
X34917Y25622
X35212Y23752
X36984Y23555
X35015Y21882
X36098Y20307
X36885Y20307
X36885Y17551
X32948Y21095
X32948Y21882
X32456Y22571
X29897Y19913
X29405Y19815
X28322Y14992
X29799Y12335
X28618Y11055
X27830Y11154
X34720Y6626
X37377Y26508
X36393Y29067
X34129Y28969
X13755Y7315
X13362Y5740
X11590Y5051
X10999Y6823
X8736Y7807
X8736Y8398
X8342Y9776
X5094Y11055
X5881Y5248
X10606Y3280
X3814Y36449
T03
X34920Y28295
X35920Y28295
T04
X24401Y22784
X23401Y22784
X22401Y22784
X22401Y20784
X23401Y20784
X24401Y20784
X24401Y9791
X23401Y9791
X22401Y9791
X22401Y7791
X23401Y7791
X24401Y7791
X12590Y7791
X11590Y7791
X10590Y7791
X10590Y9791
X11590Y9791
X12590Y9791
X12590Y20784
X11590Y20784
X10590Y20784
X10590Y22784
X11590Y22784
X12590Y22784
T05
X17496Y31520
X17496Y32520
X17496Y34063
X17496Y37063
X22968Y16500
X22968Y15500
X22968Y14500
X22968Y13500
X25968Y13500
X25968Y14500
X25968Y15500
X25968Y16500
X20251Y10291
X20251Y7291
X14740Y7291
X14740Y10291
X25763Y9791
X25763Y7791
T06
X28307Y6232
X29307Y6232
X30307Y6232
X6684Y6232
X5684Y6232
X4684Y6232
X4684Y30642
X5684Y30642
X6684Y30642
X28700Y30642
X29700Y30642
X30700Y30642
T07
X31920Y28295
X28920Y28295
T08
X20143Y28197
X20143Y29197
X20143Y30197
X20143Y31197
X20143Y32197
X20143Y33197
X20143Y34197
X20143Y35197
X20143Y36197
X15143Y35197
X14143Y35197
X14143Y36197
X14143Y34197
X14143Y33197
X15143Y33197
X15143Y32197
X15143Y31197
X16143Y30197
X17143Y30197
X17143Y29197
X17143Y28197
X16143Y28197
X16143Y29197
X14143Y29197
X14143Y28197
X14143Y27197
X14143Y26197
X14143Y25197
X14143Y24197
X14143Y23197
X14143Y22197
X14143Y21197
X14143Y20197
X14143Y19197
X14143Y18197
X14143Y17197
X14143Y16197
X14143Y15197
X14143Y14197
X14143Y13197
X16143Y13197
X16143Y14197
X16143Y15197
X16143Y16197
X16143Y17197
X16143Y18197
X15143Y18197
X16143Y19197
X16143Y20197
X16143Y21197
X17143Y21197
X17143Y20197
X17143Y19197
X17143Y18197
X18143Y18197
X17143Y17197
X17143Y16197
X17143Y15197
X17143Y14197
X17143Y13197
X20143Y13197
X20143Y14197
X20143Y15197
X20143Y16197
X20143Y17197
X20143Y18197
X19143Y18197
X20143Y19197
X20143Y20197
X20143Y21197
X20143Y22197
X20143Y23197
X20143Y24197
X20143Y25197
X20143Y26197
X20143Y27197
X17143Y27197
X16143Y27197
X14143Y30197
X14143Y31197
X14143Y32197
T09
X11266Y31232
X10126Y31232
X9728Y27845
X8728Y27845
X7728Y27845
X6728Y27845
X5728Y27845
X5728Y26745
X6728Y26745
X7728Y26745
X8728Y26745
X9728Y26745
X1338Y26189
X1238Y25189
X1338Y24189
X1356Y23182
X1256Y22182
X1356Y21182
X1229Y18351
X1329Y17351
X1229Y16351
X1329Y15351
X1229Y14351
X1442Y11497
X1342Y10497
X1442Y9497
X1455Y8491
X1355Y7491
X1455Y6491
X6047Y3830
X7047Y3830
X8047Y3830
X9047Y3830
X10047Y3830
X10047Y2730
X9047Y2730
X8047Y2730
X7047Y2730
X6047Y2730
X5653Y12962
X6653Y12962
X7653Y12962
X8653Y12962
X9653Y12962
X9653Y14062
X8653Y14062
X7653Y14062
X6653Y14062
X5653Y14062
X1283Y28063
X1183Y29063
X1283Y30063
X1303Y31080
X1203Y32080
X1303Y33080
X5370Y38248
X6510Y38248
X30456Y24716
X31456Y24716
X32456Y24716
X33456Y24716
X34456Y24716
X34456Y23616
X33456Y23616
X32456Y23616
X31456Y23616
X30456Y23616
X30456Y19168
X30456Y18068
X31456Y18068
X32456Y18068
X32456Y19168
X31456Y19168
X33456Y19168
X34456Y19168
X34456Y18068
X33456Y18068
X33456Y13676
X34456Y13676
X34456Y12576
X33456Y12576
X32456Y12576
X31456Y12576
X30456Y12576
X30456Y13676
X31456Y13676
X32456Y13676
X38337Y12750
X38437Y13750
X38337Y14750
X38437Y15750
X38443Y17122
X38343Y18122
X38443Y19122
X38435Y20119
X38335Y21119
X38435Y22119
X38428Y23520
X38328Y24520
X38428Y25520
X38418Y26518
X38318Y27518
X38418Y28518
X38412Y29913
X38312Y30913
X38412Y31913
X38416Y32910
X38316Y33910
X38416Y34910
X38437Y11750
X38451Y10349
X38351Y9349
X38451Y8349
X38442Y7343
X38342Y6343
X38442Y5343
X32881Y3830
X31881Y3830
X30881Y3830
X29881Y3830
X28881Y3830
X28881Y2730
X29881Y2730
X30881Y2730
X31881Y2730
X32881Y2730
T10
X22708Y8362
X22708Y9224
X10897Y9224
X10897Y8362
X10897Y21354
X10897Y22217
X22708Y22217
X22708Y21354
T11
X17496Y11036
X17496Y9185
X17496Y7335
T12
X27417Y9185
X31196Y9185
X7574Y9185
X3795Y9185
X3795Y33595
X7574Y33595
X27810Y33595
X31590Y33595
T13
X24397Y21803
X12586Y21803
X12586Y8811
X24397Y8811
T14
X26212Y36055
X24322Y37394
X34273Y37394
X36163Y36055
X12322Y36055
X10433Y37394
T15
X10433Y34933
X24322Y34933
X34273Y34933
T16
X2141Y2099
X2141Y37532
X37968Y37925
X37968Y1705
M30
