G75*
%MOIN*%
%OFA0B0*%
%FSLAX25Y25*%
%IPPOS*%
%LPD*%
%AMOC8*
5,1,8,0,0,1.08239X$1,22.5*
%
%ADD10R,0.05937X0.05937*%
%ADD11C,0.05937*%
%ADD12C,0.07400*%
%ADD13C,0.07000*%
%ADD14C,0.16598*%
%ADD15C,0.15024*%
%ADD16C,0.01000*%
%ADD17C,0.07480*%
%ADD18C,0.10000*%
%ADD19C,0.07000*%
%ADD20C,0.05200*%
%ADD21OC8,0.05200*%
%ADD22R,0.07400X0.07400*%
%ADD23C,0.06600*%
%ADD24C,0.15748*%
%ADD25C,0.06000*%
%ADD26C,0.03100*%
%ADD27C,0.01500*%
D10*
X0037595Y0081256D03*
D11*
X0037595Y0021256D03*
X0047595Y0021256D03*
X0057595Y0021256D03*
X0067595Y0021256D03*
X0077595Y0021256D03*
X0087595Y0021256D03*
X0097595Y0021256D03*
X0107595Y0021256D03*
X0117595Y0021256D03*
X0127595Y0021256D03*
X0137595Y0021256D03*
X0147595Y0021256D03*
X0157595Y0021256D03*
X0167595Y0021256D03*
X0177595Y0021256D03*
X0187595Y0021256D03*
X0197595Y0021256D03*
X0207595Y0021256D03*
X0217595Y0021256D03*
X0227595Y0021256D03*
X0237595Y0021256D03*
X0247595Y0021256D03*
X0257595Y0021256D03*
X0267595Y0021256D03*
X0267595Y0041256D03*
X0257595Y0041256D03*
X0247595Y0041256D03*
X0237595Y0041256D03*
X0227595Y0041256D03*
X0217595Y0041256D03*
X0207595Y0041256D03*
X0197595Y0041256D03*
X0187595Y0041256D03*
X0187595Y0051256D03*
X0197595Y0051256D03*
X0207595Y0051256D03*
X0217595Y0051256D03*
X0227595Y0051256D03*
X0237595Y0051256D03*
X0247595Y0051256D03*
X0257595Y0051256D03*
X0267595Y0051256D03*
X0217595Y0061256D03*
X0217595Y0071256D03*
X0217595Y0081256D03*
X0207595Y0081256D03*
X0197595Y0081256D03*
X0187595Y0081256D03*
X0177595Y0081256D03*
X0167595Y0081256D03*
X0157595Y0081256D03*
X0147595Y0081256D03*
X0137595Y0081256D03*
X0127595Y0081256D03*
X0117595Y0081256D03*
X0107595Y0081256D03*
X0097595Y0081256D03*
X0087595Y0081256D03*
X0077595Y0081256D03*
X0067595Y0081256D03*
X0057595Y0081256D03*
X0047595Y0081256D03*
X0062595Y0068756D03*
X0072595Y0068756D03*
X0082595Y0068756D03*
X0092595Y0068756D03*
X0102595Y0068756D03*
X0097595Y0051256D03*
X0107595Y0051256D03*
X0117595Y0051256D03*
X0127595Y0051256D03*
X0127595Y0041256D03*
X0117595Y0041256D03*
X0107595Y0041256D03*
X0097595Y0041256D03*
X0087595Y0031256D03*
X0077595Y0031256D03*
X0067595Y0031256D03*
X0047595Y0031256D03*
X0217595Y0031256D03*
X0227595Y0081256D03*
X0237595Y0081256D03*
X0247595Y0081256D03*
X0257595Y0081256D03*
X0267595Y0081256D03*
D12*
X0305095Y0088756D03*
X0315095Y0088756D03*
X0325095Y0088756D03*
X0335095Y0088756D03*
X0350095Y0088756D03*
X0360095Y0088756D03*
X0370095Y0088756D03*
X0380095Y0088756D03*
X0380095Y0058756D03*
X0370095Y0058756D03*
X0360095Y0058756D03*
X0350095Y0058756D03*
X0335095Y0058756D03*
X0325095Y0058756D03*
X0315095Y0058756D03*
X0305095Y0058756D03*
X0327595Y0044756D03*
X0337595Y0044756D03*
X0347595Y0044756D03*
X0357595Y0044756D03*
X0357595Y0014756D03*
X0347595Y0014756D03*
X0337595Y0014756D03*
X0327595Y0014756D03*
X0481595Y0023256D03*
X0481595Y0032256D03*
X0511595Y0032256D03*
X0511595Y0023256D03*
X0512595Y0010756D03*
X0522595Y0011756D03*
X0532595Y0010756D03*
X0561895Y0011256D03*
X0573295Y0011256D03*
X0586895Y0011256D03*
X0598295Y0011256D03*
X0646895Y0071256D03*
X0658295Y0071256D03*
X0672095Y0171256D03*
X0673095Y0181256D03*
X0672095Y0191256D03*
X0672095Y0206256D03*
X0673095Y0216256D03*
X0672095Y0226256D03*
X0138595Y0125256D03*
X0118595Y0125256D03*
X0098095Y0125256D03*
X0079095Y0125256D03*
X0079095Y0095256D03*
X0098095Y0095256D03*
X0118595Y0095256D03*
X0138595Y0095256D03*
D13*
X0191095Y0191228D03*
X0201095Y0191228D03*
X0211095Y0191228D03*
X0251095Y0191228D03*
X0261095Y0191228D03*
X0271095Y0191228D03*
X0316095Y0191228D03*
X0326095Y0191228D03*
X0336095Y0191228D03*
X0376095Y0191228D03*
X0386095Y0191228D03*
X0396095Y0191228D03*
X0441095Y0191228D03*
X0451095Y0191228D03*
X0461095Y0191228D03*
X0501095Y0191228D03*
X0511095Y0191228D03*
X0521095Y0191228D03*
X0562595Y0161256D03*
X0562595Y0151256D03*
X0562595Y0141256D03*
X0562595Y0131256D03*
X0562595Y0121256D03*
X0562595Y0111256D03*
X0562595Y0101256D03*
X0562595Y0091256D03*
X0622595Y0091256D03*
X0622595Y0101256D03*
X0622595Y0111256D03*
X0622595Y0121256D03*
X0622595Y0131256D03*
X0622595Y0141256D03*
X0622595Y0151256D03*
X0622595Y0161256D03*
X0607595Y0196256D03*
X0597595Y0196256D03*
X0587595Y0196256D03*
X0557595Y0226256D03*
X0557595Y0236256D03*
X0557595Y0246256D03*
X0521095Y0251228D03*
X0511095Y0251228D03*
X0501095Y0251228D03*
X0461095Y0251228D03*
X0451095Y0251228D03*
X0441095Y0251228D03*
X0396095Y0251228D03*
X0386095Y0251228D03*
X0376095Y0251228D03*
X0336095Y0251228D03*
X0326095Y0251228D03*
X0316095Y0251228D03*
X0271095Y0251228D03*
X0261095Y0251228D03*
X0251095Y0251228D03*
X0211095Y0251228D03*
X0201095Y0251228D03*
X0191095Y0251228D03*
X0122595Y0196256D03*
X0112595Y0196256D03*
X0102595Y0196256D03*
X0072595Y0226256D03*
X0072595Y0236256D03*
X0072595Y0246256D03*
D14*
X0629052Y0031256D03*
D15*
X0653658Y0031256D03*
X0640272Y0012358D03*
D16*
X0598295Y0011256D02*
X0597595Y0011256D01*
X0595095Y0013756D01*
X0646345Y0065006D01*
X0651345Y0065006D01*
X0657595Y0071256D01*
X0658295Y0071256D01*
X0591345Y0081256D02*
X0591345Y0037506D01*
X0503845Y0037506D01*
X0483845Y0017506D01*
X0365095Y0017506D01*
X0360095Y0022506D01*
X0345095Y0022506D01*
X0337595Y0015006D01*
X0337595Y0014756D01*
X0347595Y0014756D02*
X0347595Y0015006D01*
X0352595Y0020006D01*
X0360095Y0020006D01*
X0366345Y0013756D01*
X0483845Y0013756D01*
X0495095Y0025006D01*
X0506345Y0017506D02*
X0497595Y0008756D01*
X0322595Y0008756D01*
X0312595Y0018756D01*
X0310095Y0018756D01*
X0306345Y0022506D02*
X0302595Y0026256D01*
X0310095Y0026256D01*
X0310095Y0061256D01*
X0307595Y0063756D01*
X0263845Y0063756D01*
X0255095Y0072506D01*
X0258845Y0076256D02*
X0243845Y0076256D01*
X0232595Y0065006D01*
X0222595Y0056256D02*
X0217595Y0051256D01*
X0222595Y0056256D02*
X0262595Y0056256D01*
X0267595Y0051256D01*
X0271345Y0053756D02*
X0263845Y0061256D01*
X0217595Y0061256D01*
X0216345Y0060006D01*
X0210095Y0060006D01*
X0198845Y0071256D01*
X0192595Y0071256D01*
X0191345Y0070006D01*
X0188845Y0070006D01*
X0177595Y0081256D01*
X0171345Y0076256D02*
X0146345Y0076256D01*
X0142595Y0080006D01*
X0142595Y0090006D01*
X0123845Y0090006D01*
X0118595Y0095256D01*
X0126345Y0093756D02*
X0127595Y0095006D01*
X0137595Y0095006D01*
X0138595Y0095256D01*
X0112595Y0088756D02*
X0112595Y0080006D01*
X0125095Y0067506D01*
X0192595Y0067506D01*
X0202595Y0063756D02*
X0118845Y0063756D01*
X0102595Y0080006D01*
X0102595Y0090006D01*
X0085095Y0090006D01*
X0080095Y0095006D01*
X0079095Y0095256D01*
X0098095Y0095256D02*
X0098845Y0095006D01*
X0100095Y0095006D01*
X0106345Y0088756D01*
X0112595Y0088756D01*
X0077595Y0081256D02*
X0072595Y0076256D01*
X0062595Y0076256D01*
X0062595Y0082506D01*
X0061345Y0083756D01*
X0061345Y0162506D01*
X0128845Y0230006D01*
X0442595Y0230006D01*
X0461345Y0211256D01*
X0421345Y0206256D02*
X0416345Y0211256D01*
X0153845Y0211256D01*
X0143845Y0201256D01*
X0138845Y0202506D02*
X0150095Y0191256D01*
X0190095Y0191256D01*
X0191095Y0191228D01*
X0210095Y0182506D02*
X0128845Y0182506D01*
X0150095Y0178756D02*
X0151345Y0180006D01*
X0292595Y0180006D01*
X0295095Y0182506D01*
X0296345Y0173756D02*
X0306345Y0183756D01*
X0428845Y0183756D01*
X0413845Y0173756D02*
X0513845Y0173756D01*
X0520095Y0167506D01*
X0521095Y0167256D01*
X0523845Y0152506D02*
X0436345Y0152506D01*
X0417595Y0133756D01*
X0273845Y0133756D01*
X0272595Y0135006D01*
X0241345Y0135006D01*
X0240095Y0137506D02*
X0241345Y0138756D01*
X0382595Y0138756D01*
X0383845Y0137506D01*
X0397595Y0137506D01*
X0383845Y0141256D02*
X0222595Y0141256D01*
X0232595Y0145006D02*
X0241345Y0153756D01*
X0435095Y0153756D01*
X0442595Y0161256D01*
X0456345Y0161256D01*
X0461345Y0166256D01*
X0461595Y0166756D01*
X0501095Y0191228D02*
X0501345Y0191256D01*
X0507595Y0197506D01*
X0586345Y0197506D01*
X0587595Y0196256D01*
X0587595Y0151256D01*
X0567595Y0131256D01*
X0562595Y0131256D01*
X0565095Y0126256D02*
X0550095Y0126256D01*
X0523845Y0152506D01*
X0511095Y0147256D02*
X0510095Y0146256D01*
X0510095Y0132506D01*
X0506345Y0128756D01*
X0506345Y0117506D01*
X0357595Y0117506D01*
X0356345Y0118756D01*
X0350095Y0115006D02*
X0508845Y0115006D01*
X0521095Y0127256D01*
X0516345Y0132506D02*
X0511095Y0127256D01*
X0516345Y0132506D02*
X0540095Y0132506D01*
X0541345Y0131256D01*
X0540095Y0141256D02*
X0562595Y0141256D01*
X0562595Y0151256D02*
X0543845Y0151256D01*
X0536345Y0143756D01*
X0565095Y0126256D02*
X0591345Y0100006D01*
X0588845Y0083756D02*
X0591345Y0081256D01*
X0588845Y0083756D02*
X0585095Y0083756D01*
X0577595Y0076256D01*
X0580095Y0068756D02*
X0587595Y0076256D01*
X0580095Y0068756D02*
X0423845Y0068756D01*
X0425095Y0066256D02*
X0423845Y0065006D01*
X0416345Y0072506D01*
X0416345Y0083756D01*
X0388845Y0083756D01*
X0386345Y0081256D01*
X0267595Y0081256D01*
X0257595Y0081256D02*
X0257595Y0077506D01*
X0258845Y0076256D01*
X0268845Y0066256D01*
X0380095Y0066256D01*
X0386345Y0060006D01*
X0488845Y0060006D01*
X0490095Y0058756D01*
X0555095Y0058756D01*
X0567595Y0046256D01*
X0555095Y0062506D02*
X0551345Y0066256D01*
X0425095Y0066256D01*
X0422595Y0076256D02*
X0422595Y0086256D01*
X0388845Y0086256D01*
X0386345Y0083756D01*
X0376345Y0083756D01*
X0375095Y0085006D01*
X0370095Y0088756D02*
X0365095Y0093756D01*
X0347595Y0093756D01*
X0346345Y0092506D01*
X0340095Y0092506D01*
X0326345Y0106256D01*
X0326095Y0107256D01*
X0331345Y0108756D02*
X0327595Y0112506D01*
X0277595Y0112506D01*
X0276345Y0111256D01*
X0275095Y0103756D02*
X0310095Y0103756D01*
X0325095Y0088756D01*
X0330095Y0083756D02*
X0335095Y0088756D01*
X0330095Y0083756D02*
X0276345Y0083756D01*
X0268845Y0091256D01*
X0271345Y0097506D02*
X0275095Y0101256D01*
X0306345Y0101256D01*
X0310095Y0097506D01*
X0310095Y0088756D01*
X0305095Y0088756D01*
X0278845Y0078756D02*
X0393845Y0078756D01*
X0396345Y0072506D02*
X0386345Y0072506D01*
X0396345Y0072506D02*
X0400095Y0068756D01*
X0405095Y0068756D01*
X0412595Y0076256D01*
X0432595Y0076256D02*
X0432595Y0088756D01*
X0387595Y0088756D01*
X0397595Y0068756D02*
X0403845Y0062506D01*
X0503845Y0062506D01*
X0488845Y0056256D02*
X0385095Y0056256D01*
X0373845Y0045006D01*
X0357595Y0045006D01*
X0357595Y0044756D01*
X0352595Y0038756D02*
X0347595Y0043756D01*
X0347595Y0044756D01*
X0352595Y0038756D02*
X0447595Y0038756D01*
X0448845Y0040006D01*
X0451345Y0038756D02*
X0448845Y0036256D01*
X0338845Y0036256D01*
X0332595Y0042506D01*
X0332595Y0050006D01*
X0313845Y0050006D01*
X0306345Y0053756D02*
X0306345Y0045006D01*
X0303845Y0042506D01*
X0268845Y0042506D01*
X0267595Y0041256D01*
X0277595Y0036256D02*
X0252595Y0036256D01*
X0247595Y0041256D01*
X0232595Y0026256D02*
X0227595Y0021256D01*
X0232595Y0026256D02*
X0302595Y0026256D01*
X0312595Y0025006D02*
X0292595Y0005006D01*
X0083845Y0005006D01*
X0067595Y0021256D01*
X0057595Y0021256D02*
X0057595Y0046256D01*
X0146345Y0046256D01*
X0160095Y0060006D01*
X0210095Y0060006D01*
X0207595Y0075006D02*
X0190095Y0075006D01*
X0188845Y0073756D01*
X0197595Y0081256D02*
X0203845Y0087506D01*
X0246345Y0087506D01*
X0236345Y0091256D02*
X0177595Y0091256D01*
X0167595Y0081256D01*
X0171345Y0076256D02*
X0176345Y0071256D01*
X0186345Y0097506D02*
X0271345Y0097506D01*
X0271345Y0100006D02*
X0275095Y0103756D01*
X0271345Y0100006D02*
X0208845Y0100006D01*
X0201095Y0107756D01*
X0206345Y0111256D02*
X0212595Y0117506D01*
X0322595Y0117506D01*
X0326345Y0121256D01*
X0330095Y0122506D02*
X0326345Y0126256D01*
X0326095Y0127256D01*
X0330095Y0122506D02*
X0371345Y0122506D01*
X0397595Y0122506D01*
X0400095Y0125006D01*
X0440095Y0125006D01*
X0441345Y0126256D01*
X0441595Y0126756D01*
X0442595Y0127506D01*
X0451345Y0127506D01*
X0451595Y0126756D01*
X0452595Y0127506D01*
X0456345Y0131256D01*
X0496345Y0131256D01*
X0500095Y0127506D01*
X0501095Y0127256D01*
X0490095Y0111256D02*
X0500095Y0101256D01*
X0562595Y0101256D01*
X0560095Y0083756D02*
X0503845Y0083756D01*
X0472595Y0076256D02*
X0472595Y0101256D01*
X0345095Y0101256D01*
X0342595Y0103756D01*
X0342595Y0100006D02*
X0343845Y0098756D01*
X0452595Y0098756D01*
X0452595Y0076256D01*
X0442595Y0076256D02*
X0442595Y0096256D01*
X0342595Y0096256D01*
X0337595Y0102506D02*
X0333845Y0102506D01*
X0332595Y0103756D01*
X0331345Y0103756D01*
X0331345Y0108756D01*
X0328845Y0115006D02*
X0240095Y0115006D01*
X0228845Y0103756D01*
X0205095Y0122506D02*
X0198845Y0122506D01*
X0192595Y0116256D01*
X0186345Y0120006D02*
X0186345Y0097506D01*
X0205095Y0122506D02*
X0210095Y0127506D01*
X0211095Y0127756D01*
X0205095Y0132506D02*
X0240095Y0132506D01*
X0243845Y0128756D01*
X0250095Y0128756D01*
X0251095Y0127756D01*
X0261095Y0127756D02*
X0261345Y0128756D01*
X0265095Y0132506D01*
X0272595Y0132506D01*
X0277595Y0127506D01*
X0315095Y0127506D01*
X0316095Y0127256D01*
X0310095Y0121256D02*
X0280095Y0121256D01*
X0276345Y0125006D01*
X0240095Y0137506D02*
X0220095Y0137506D01*
X0218845Y0136256D01*
X0205095Y0132506D02*
X0201345Y0128756D01*
X0201095Y0127756D01*
X0200095Y0127506D01*
X0191345Y0127506D01*
X0191095Y0127756D01*
X0183845Y0135006D01*
X0138845Y0135006D01*
X0138595Y0135756D01*
X0137595Y0136256D01*
X0118845Y0136256D01*
X0118595Y0135756D01*
X0117595Y0136256D01*
X0098845Y0136256D01*
X0098595Y0135756D01*
X0097595Y0136256D01*
X0078845Y0136256D01*
X0078595Y0135756D01*
X0057595Y0163756D02*
X0046345Y0175006D01*
X0046345Y0313756D01*
X0556345Y0313756D01*
X0585095Y0285006D01*
X0585095Y0283972D01*
X0550095Y0265006D02*
X0156345Y0265006D01*
X0148845Y0257506D01*
X0151345Y0248756D02*
X0120095Y0248756D01*
X0118845Y0250006D01*
X0115095Y0253756D02*
X0123845Y0253756D01*
X0138845Y0268756D01*
X0480095Y0268756D01*
X0501095Y0251228D02*
X0501345Y0250006D01*
X0506345Y0245006D01*
X0446345Y0245006D01*
X0441345Y0250006D01*
X0441095Y0251228D01*
X0402595Y0252506D02*
X0397595Y0257506D01*
X0160095Y0257506D01*
X0151345Y0248756D01*
X0127595Y0232506D02*
X0286345Y0232506D01*
X0297595Y0243756D01*
X0338845Y0243756D01*
X0308845Y0260006D02*
X0521345Y0260006D01*
X0506345Y0245006D02*
X0556345Y0245006D01*
X0557595Y0246256D01*
X0586345Y0202506D02*
X0583845Y0200006D01*
X0312595Y0200006D01*
X0308845Y0197506D02*
X0257595Y0197506D01*
X0251345Y0191256D01*
X0251095Y0191228D01*
X0246345Y0172506D02*
X0251095Y0167756D01*
X0261095Y0167756D02*
X0261345Y0168756D01*
X0265095Y0172506D01*
X0272595Y0172506D01*
X0277595Y0167506D01*
X0315095Y0167506D01*
X0316095Y0167256D01*
X0326095Y0167256D02*
X0331345Y0172506D01*
X0372595Y0172506D01*
X0376345Y0168756D01*
X0376595Y0167756D01*
X0402595Y0162506D02*
X0413845Y0173756D01*
X0402595Y0162506D02*
X0277595Y0162506D01*
X0276345Y0163756D01*
X0273845Y0173756D02*
X0272595Y0175006D01*
X0106345Y0175006D01*
X0062595Y0167506D02*
X0127595Y0232506D01*
X0072595Y0246256D02*
X0186345Y0246256D01*
X0190095Y0250006D01*
X0191095Y0251228D01*
X0236345Y0208756D02*
X0210095Y0182506D01*
X0205095Y0172506D02*
X0246345Y0172506D01*
X0273845Y0173756D02*
X0296345Y0173756D01*
X0315095Y0191256D02*
X0316095Y0191228D01*
X0315095Y0191256D02*
X0308845Y0197506D01*
X0236345Y0208756D02*
X0391345Y0208756D01*
X0396345Y0203756D01*
X0308845Y0260006D02*
X0307595Y0261256D01*
X0376345Y0306256D02*
X0381345Y0301256D01*
X0435095Y0301256D01*
X0440095Y0306256D01*
X0441095Y0306256D01*
X0376345Y0306256D02*
X0376095Y0306256D01*
X0375095Y0306256D01*
X0370095Y0311256D01*
X0321345Y0311256D01*
X0316345Y0306256D01*
X0316095Y0306256D01*
X0315095Y0306256D01*
X0310095Y0311256D01*
X0256345Y0311256D01*
X0196345Y0311256D01*
X0191345Y0306256D01*
X0191095Y0305756D01*
X0251095Y0306256D02*
X0251345Y0306256D01*
X0256345Y0311256D01*
X0138845Y0202506D02*
X0108845Y0202506D01*
X0102595Y0196256D01*
X0057595Y0163756D02*
X0057595Y0081256D01*
X0037595Y0081256D02*
X0067595Y0051256D01*
X0097595Y0051256D01*
X0268845Y0070006D02*
X0270095Y0068756D01*
X0397595Y0068756D01*
X0410095Y0053756D02*
X0402595Y0046256D01*
X0410095Y0053756D02*
X0483845Y0053756D01*
X0485095Y0052506D01*
X0501345Y0052506D01*
X0507595Y0046256D01*
X0487595Y0042506D02*
X0483845Y0038756D01*
X0451345Y0038756D01*
X0437595Y0032506D02*
X0436345Y0033756D01*
X0337595Y0033756D01*
X0327595Y0043756D01*
X0327595Y0044756D01*
X0306345Y0037506D02*
X0278845Y0037506D01*
X0277595Y0036256D01*
X0271345Y0053756D02*
X0306345Y0053756D01*
X0278845Y0078756D02*
X0272595Y0072506D01*
X0337595Y0102506D02*
X0350095Y0115006D01*
X0371345Y0122506D02*
X0376595Y0127756D01*
X0411345Y0111256D02*
X0490095Y0111256D01*
X0461345Y0126256D02*
X0461595Y0126756D01*
X0461345Y0126256D02*
X0456345Y0121256D01*
X0415095Y0121256D01*
X0550095Y0121256D02*
X0562595Y0121256D01*
X0587595Y0151256D02*
X0622595Y0151256D01*
X0622595Y0161256D02*
X0632595Y0171256D01*
X0672095Y0171256D01*
X0672095Y0191256D02*
X0671345Y0191256D01*
X0660095Y0202506D01*
X0586345Y0202506D01*
X0642595Y0141256D02*
X0662595Y0141256D01*
X0662595Y0131256D02*
X0642595Y0131256D01*
X0642595Y0121256D02*
X0662595Y0121256D01*
X0662595Y0111256D02*
X0642595Y0111256D01*
X0567595Y0076256D02*
X0560095Y0083756D01*
X0555095Y0020006D02*
X0552595Y0017506D01*
X0506345Y0017506D01*
X0500095Y0015006D02*
X0496345Y0011256D01*
X0360095Y0011256D01*
X0357595Y0013756D01*
X0357595Y0014756D01*
X0391345Y0025006D02*
X0312595Y0025006D01*
X0320095Y0007506D02*
X0321345Y0006256D01*
X0508845Y0006256D01*
X0512595Y0010006D01*
X0512595Y0010756D01*
X0561895Y0011256D02*
X0562595Y0011256D01*
X0568845Y0017506D01*
X0591345Y0017506D01*
X0595095Y0013756D01*
X0211095Y0167756D02*
X0210095Y0167506D01*
X0205095Y0162506D01*
X0190095Y0162506D01*
X0188845Y0163756D01*
X0163845Y0163756D01*
X0160095Y0160006D01*
X0201095Y0167756D02*
X0201345Y0168756D01*
X0205095Y0172506D01*
D17*
X0642595Y0141256D03*
X0642595Y0131256D03*
X0642595Y0121256D03*
X0642595Y0111256D03*
X0662595Y0111256D03*
X0662595Y0121256D03*
X0662595Y0131256D03*
X0662595Y0141256D03*
D18*
X0627595Y0210006D03*
X0567595Y0210006D03*
X0567595Y0262506D03*
X0627595Y0262506D03*
X0142595Y0262506D03*
X0082595Y0262506D03*
X0082595Y0210006D03*
X0142595Y0210006D03*
D19*
X0128595Y0266256D02*
X0121595Y0266256D01*
X0103595Y0266256D02*
X0096595Y0266256D01*
X0096595Y0283972D02*
X0103595Y0283972D01*
X0121595Y0283972D02*
X0128595Y0283972D01*
X0581595Y0283972D02*
X0588595Y0283972D01*
X0606595Y0283972D02*
X0613595Y0283972D01*
X0613595Y0266256D02*
X0606595Y0266256D01*
X0588595Y0266256D02*
X0581595Y0266256D01*
D20*
X0577595Y0078856D02*
X0577595Y0073656D01*
X0587595Y0073656D02*
X0587595Y0078856D01*
X0567595Y0078856D02*
X0567595Y0073656D01*
X0557595Y0073656D02*
X0557595Y0078856D01*
X0547595Y0078856D02*
X0547595Y0073656D01*
X0537595Y0073656D02*
X0537595Y0078856D01*
X0527595Y0078856D02*
X0527595Y0073656D01*
X0517595Y0073656D02*
X0517595Y0078856D01*
X0507595Y0078856D02*
X0507595Y0073656D01*
X0482595Y0073656D02*
X0482595Y0078856D01*
X0472595Y0078856D02*
X0472595Y0073656D01*
X0462595Y0073656D02*
X0462595Y0078856D01*
X0452595Y0078856D02*
X0452595Y0073656D01*
X0442595Y0073656D02*
X0442595Y0078856D01*
X0432595Y0078856D02*
X0432595Y0073656D01*
X0422595Y0073656D02*
X0422595Y0078856D01*
X0412595Y0078856D02*
X0412595Y0073656D01*
X0402595Y0073656D02*
X0402595Y0078856D01*
X0402595Y0048856D02*
X0402595Y0043656D01*
X0412595Y0043656D02*
X0412595Y0048856D01*
X0422595Y0048856D02*
X0422595Y0043656D01*
X0432595Y0043656D02*
X0432595Y0048856D01*
X0442595Y0048856D02*
X0442595Y0043656D01*
X0452595Y0043656D02*
X0452595Y0048856D01*
X0462595Y0048856D02*
X0462595Y0043656D01*
X0472595Y0043656D02*
X0472595Y0048856D01*
X0482595Y0048856D02*
X0482595Y0043656D01*
X0507595Y0043656D02*
X0507595Y0048856D01*
X0517595Y0048856D02*
X0517595Y0043656D01*
X0527595Y0043656D02*
X0527595Y0048856D01*
X0537595Y0048856D02*
X0537595Y0043656D01*
X0547595Y0043656D02*
X0547595Y0048856D01*
X0557595Y0048856D02*
X0557595Y0043656D01*
X0567595Y0043656D02*
X0567595Y0048856D01*
X0577595Y0048856D02*
X0577595Y0043656D01*
X0587595Y0043656D02*
X0587595Y0048856D01*
D21*
X0138595Y0135756D03*
X0138595Y0145756D03*
X0118595Y0145756D03*
X0118595Y0135756D03*
X0098595Y0135756D03*
X0098595Y0145756D03*
X0078595Y0145756D03*
X0078595Y0135756D03*
D22*
X0542595Y0011756D03*
D23*
X0521095Y0107256D03*
X0511095Y0107256D03*
X0501095Y0107256D03*
X0461595Y0106756D03*
X0451595Y0106756D03*
X0441595Y0106756D03*
X0441595Y0126756D03*
X0451595Y0126756D03*
X0461595Y0126756D03*
X0501095Y0127256D03*
X0511095Y0127256D03*
X0521095Y0127256D03*
X0521095Y0147256D03*
X0511095Y0147256D03*
X0501095Y0147256D03*
X0461595Y0146756D03*
X0451595Y0146756D03*
X0441595Y0146756D03*
X0441595Y0166756D03*
X0451595Y0166756D03*
X0461595Y0166756D03*
X0501095Y0167256D03*
X0511095Y0167256D03*
X0521095Y0167256D03*
X0396595Y0167756D03*
X0386595Y0167756D03*
X0376595Y0167756D03*
X0376595Y0147756D03*
X0386595Y0147756D03*
X0396595Y0147756D03*
X0396595Y0127756D03*
X0386595Y0127756D03*
X0376595Y0127756D03*
X0376595Y0107756D03*
X0386595Y0107756D03*
X0396595Y0107756D03*
X0336095Y0107256D03*
X0326095Y0107256D03*
X0316095Y0107256D03*
X0316095Y0127256D03*
X0326095Y0127256D03*
X0336095Y0127256D03*
X0336095Y0147256D03*
X0326095Y0147256D03*
X0316095Y0147256D03*
X0316095Y0167256D03*
X0326095Y0167256D03*
X0336095Y0167256D03*
X0271095Y0167756D03*
X0261095Y0167756D03*
X0251095Y0167756D03*
X0251095Y0147756D03*
X0261095Y0147756D03*
X0271095Y0147756D03*
X0271095Y0127756D03*
X0261095Y0127756D03*
X0251095Y0127756D03*
X0251095Y0107756D03*
X0261095Y0107756D03*
X0271095Y0107756D03*
X0211095Y0107756D03*
X0201095Y0107756D03*
X0191095Y0107756D03*
X0191095Y0127756D03*
X0201095Y0127756D03*
X0211095Y0127756D03*
X0211095Y0147756D03*
X0201095Y0147756D03*
X0191095Y0147756D03*
X0191095Y0167756D03*
X0201095Y0167756D03*
X0211095Y0167756D03*
D24*
X0219993Y0220756D03*
X0242198Y0220756D03*
X0279993Y0220756D03*
X0307198Y0220756D03*
X0344993Y0220756D03*
X0367198Y0220756D03*
X0404993Y0220756D03*
X0432198Y0220756D03*
X0469993Y0220756D03*
X0492198Y0220756D03*
X0529993Y0220756D03*
X0529993Y0280756D03*
X0492198Y0280756D03*
X0469993Y0280756D03*
X0432198Y0280756D03*
X0404993Y0280756D03*
X0367198Y0280756D03*
X0344993Y0280756D03*
X0307198Y0280756D03*
X0279993Y0280756D03*
X0242198Y0280756D03*
X0219993Y0280756D03*
X0182198Y0280756D03*
X0182198Y0220756D03*
D25*
X0191095Y0305756D03*
X0201095Y0305756D03*
X0211095Y0305756D03*
X0251095Y0306256D03*
X0261095Y0306256D03*
X0271095Y0306256D03*
X0316095Y0306256D03*
X0326095Y0306256D03*
X0336095Y0306256D03*
X0376095Y0306256D03*
X0386095Y0306256D03*
X0396095Y0306256D03*
X0441095Y0306256D03*
X0451095Y0306256D03*
X0461095Y0306256D03*
X0501095Y0306256D03*
X0511095Y0306256D03*
X0521095Y0306256D03*
D26*
X0480095Y0268756D03*
X0521345Y0260006D03*
X0550095Y0265006D03*
X0461345Y0211256D03*
X0425095Y0203756D03*
X0421345Y0206256D03*
X0396345Y0203756D03*
X0380095Y0205006D03*
X0428845Y0183756D03*
X0411345Y0176256D03*
X0425095Y0170006D03*
X0405095Y0160006D03*
X0383845Y0141256D03*
X0397595Y0137506D03*
X0415095Y0121256D03*
X0411345Y0111256D03*
X0387595Y0088756D03*
X0375095Y0085006D03*
X0386345Y0072506D03*
X0393845Y0078756D03*
X0423845Y0068756D03*
X0448845Y0040006D03*
X0437595Y0032506D03*
X0417595Y0030006D03*
X0391345Y0025006D03*
X0320095Y0007506D03*
X0315095Y0007506D03*
X0310095Y0018756D03*
X0306345Y0022506D03*
X0302595Y0020006D03*
X0295095Y0022506D03*
X0295095Y0016256D03*
X0291345Y0012506D03*
X0280095Y0033756D03*
X0268845Y0032506D03*
X0306345Y0037506D03*
X0313845Y0050006D03*
X0268845Y0070006D03*
X0272595Y0072506D03*
X0255095Y0072506D03*
X0246345Y0087506D03*
X0236345Y0091256D03*
X0228845Y0103756D03*
X0206345Y0111256D03*
X0192595Y0116256D03*
X0186345Y0120006D03*
X0218845Y0136256D03*
X0222595Y0141256D03*
X0232595Y0145006D03*
X0241345Y0135006D03*
X0276345Y0125006D03*
X0276345Y0111256D03*
X0276345Y0097506D03*
X0268845Y0091256D03*
X0298845Y0097506D03*
X0306345Y0096256D03*
X0342595Y0096256D03*
X0342595Y0100006D03*
X0342595Y0103756D03*
X0328845Y0115006D03*
X0326345Y0121256D03*
X0310095Y0121256D03*
X0356345Y0118756D03*
X0276345Y0163756D03*
X0295095Y0177506D03*
X0295095Y0182506D03*
X0280095Y0188756D03*
X0295095Y0193756D03*
X0283845Y0201256D03*
X0312595Y0200006D03*
X0321345Y0180006D03*
X0302595Y0171256D03*
X0371345Y0176256D03*
X0292595Y0233756D03*
X0338845Y0243756D03*
X0307595Y0261256D03*
X0296345Y0283756D03*
X0402595Y0252506D03*
X0536345Y0143756D03*
X0540095Y0141256D03*
X0541345Y0131256D03*
X0550095Y0121256D03*
X0591345Y0100006D03*
X0555095Y0062506D03*
X0503845Y0062506D03*
X0488845Y0056256D03*
X0487595Y0042506D03*
X0495095Y0025006D03*
X0500095Y0015006D03*
X0532595Y0033756D03*
X0555095Y0020006D03*
X0552595Y0011256D03*
X0503845Y0083756D03*
X0232595Y0065006D03*
X0207595Y0075006D03*
X0192595Y0067506D03*
X0202595Y0063756D03*
X0188845Y0073756D03*
X0176345Y0071256D03*
X0132595Y0077506D03*
X0126345Y0093756D03*
X0072595Y0085006D03*
X0067595Y0103756D03*
X0103845Y0145006D03*
X0062595Y0167506D03*
X0106345Y0175006D03*
X0128845Y0182506D03*
X0150095Y0178756D03*
X0152595Y0195006D03*
X0143845Y0201256D03*
X0167595Y0236256D03*
X0148845Y0257506D03*
X0118845Y0250006D03*
X0115095Y0253756D03*
X0050095Y0203756D03*
X0160095Y0160006D03*
X0172595Y0160006D03*
X0161345Y0036256D03*
D27*
X0092595Y0036256D01*
X0087595Y0031256D01*
X0097595Y0021256D02*
X0110095Y0008756D01*
X0292595Y0008756D01*
X0302595Y0018756D01*
X0302595Y0020006D01*
X0295095Y0022506D02*
X0268845Y0022506D01*
X0267595Y0021256D01*
X0268845Y0032506D02*
X0270095Y0033756D01*
X0280095Y0033756D01*
X0295095Y0016256D02*
X0212595Y0016256D01*
X0207595Y0021256D01*
X0206345Y0012506D02*
X0197595Y0021256D01*
X0206345Y0012506D02*
X0291345Y0012506D01*
X0315095Y0007506D02*
X0318845Y0003756D01*
X0545095Y0003756D01*
X0552595Y0011256D01*
X0556345Y0013756D02*
X0556345Y0005006D01*
X0580095Y0005006D01*
X0602595Y0005006D01*
X0628845Y0031256D01*
X0629052Y0031256D01*
X0580095Y0005006D02*
X0573845Y0011256D01*
X0573295Y0011256D01*
X0558845Y0016256D02*
X0556345Y0013756D01*
X0558845Y0016256D02*
X0558845Y0021256D01*
X0556345Y0023756D01*
X0542595Y0023756D01*
X0532595Y0033756D01*
X0481595Y0023256D02*
X0481345Y0023756D01*
X0423845Y0023756D01*
X0417595Y0030006D01*
X0306345Y0096256D02*
X0303845Y0096256D01*
X0301345Y0093756D01*
X0275095Y0093756D01*
X0273845Y0095006D01*
X0185095Y0095006D01*
X0172595Y0107506D01*
X0063845Y0107506D01*
X0063845Y0102506D01*
X0066345Y0100006D01*
X0072595Y0100006D01*
X0072595Y0085006D01*
X0067595Y0103756D02*
X0101345Y0103756D01*
X0117595Y0087506D01*
X0132595Y0087506D01*
X0132595Y0077506D01*
X0103845Y0145006D02*
X0115095Y0156256D01*
X0411345Y0156256D01*
X0425095Y0170006D01*
X0411345Y0176256D02*
X0496345Y0176256D01*
X0510095Y0190006D01*
X0511095Y0191228D01*
X0502595Y0207506D02*
X0531345Y0236256D01*
X0557595Y0236256D01*
X0511095Y0251228D02*
X0510095Y0251256D01*
X0503845Y0257506D01*
X0438845Y0257506D01*
X0421345Y0240006D01*
X0298845Y0240006D01*
X0292595Y0233756D01*
X0261095Y0251228D02*
X0260095Y0250006D01*
X0253845Y0243756D01*
X0175095Y0243756D01*
X0167595Y0236256D01*
X0155095Y0197506D02*
X0193845Y0197506D01*
X0200095Y0191256D01*
X0201095Y0191228D01*
X0205095Y0185006D02*
X0210095Y0190006D01*
X0211095Y0191228D01*
X0205095Y0185006D02*
X0133845Y0185006D01*
X0122595Y0196256D01*
X0152595Y0195006D02*
X0155095Y0197506D01*
X0172595Y0160006D02*
X0405095Y0160006D01*
X0371345Y0176256D02*
X0307595Y0176256D01*
X0302595Y0171256D01*
X0295095Y0177506D02*
X0298845Y0181256D01*
X0298845Y0186256D01*
X0282595Y0186256D01*
X0281345Y0185006D01*
X0266345Y0185006D01*
X0261345Y0190006D01*
X0261095Y0191228D01*
X0280095Y0188756D02*
X0285095Y0193756D01*
X0295095Y0193756D01*
X0287595Y0205006D02*
X0283845Y0201256D01*
X0287595Y0205006D02*
X0380095Y0205006D01*
X0425095Y0203756D02*
X0428845Y0207506D01*
X0502595Y0207506D01*
X0451095Y0191228D02*
X0450095Y0190006D01*
X0440095Y0180006D01*
X0321345Y0180006D01*
X0342595Y0245006D02*
X0337595Y0250006D01*
X0336345Y0250006D01*
X0336095Y0251228D01*
X0342595Y0245006D02*
X0390095Y0245006D01*
X0395095Y0250006D01*
X0396095Y0251228D01*
X0441345Y0297506D02*
X0310095Y0297506D01*
X0296345Y0283756D01*
X0270095Y0306256D02*
X0265095Y0301256D01*
X0330095Y0301256D01*
X0335095Y0306256D01*
X0336095Y0306256D01*
X0396095Y0306256D02*
X0396345Y0306256D01*
X0401345Y0311256D01*
X0455095Y0311256D01*
X0460095Y0306256D01*
X0461095Y0306256D01*
X0461345Y0306256D01*
X0466345Y0311256D01*
X0515095Y0311256D01*
X0520095Y0306256D01*
X0521095Y0306256D01*
X0545095Y0306256D01*
X0585095Y0266256D01*
X0451095Y0306256D02*
X0450095Y0306256D01*
X0441345Y0297506D01*
X0271095Y0306256D02*
X0270095Y0306256D01*
X0265095Y0301256D02*
X0215095Y0301256D01*
X0211345Y0305006D01*
X0211095Y0305756D01*
X0072595Y0226256D02*
X0050095Y0203756D01*
X0276345Y0097506D02*
X0298845Y0097506D01*
X0562595Y0091256D02*
X0622595Y0091256D01*
X0626345Y0091256D01*
X0646345Y0071256D01*
X0646895Y0071256D01*
X0642595Y0111256D02*
X0622595Y0111256D01*
X0622595Y0121256D02*
X0642595Y0121256D01*
X0642595Y0131256D02*
X0622595Y0131256D01*
X0622595Y0141256D02*
X0642595Y0141256D01*
M02*
