G75*
%MOIN*%
%OFA0B0*%
%FSLAX25Y25*%
%IPPOS*%
%LPD*%
%AMOC8*
5,1,8,0,0,1.08239X$1,22.5*
%
%ADD10C,0.07400*%
%ADD11C,0.16598*%
%ADD12C,0.15024*%
%ADD13OC8,0.05200*%
%ADD14C,0.05937*%
%ADD15R,0.05937X0.05937*%
%ADD16R,0.05906X0.02362*%
%ADD17C,0.06600*%
%ADD18R,0.02362X0.09000*%
%ADD19C,0.03772*%
%ADD20C,0.05740*%
%ADD21C,0.09744*%
%ADD22R,0.06299X0.05118*%
%ADD23R,0.05906X0.05118*%
%ADD24C,0.07000*%
%ADD25C,0.11811*%
%ADD26C,0.01000*%
%ADD27C,0.03100*%
%ADD28C,0.01600*%
D10*
X0056530Y0031233D03*
X0066530Y0031233D03*
X0076530Y0031233D03*
X0086530Y0031233D03*
X0096530Y0031233D03*
X0096530Y0042233D03*
X0086530Y0042233D03*
X0076530Y0042233D03*
X0066530Y0042233D03*
X0056530Y0042233D03*
X0014550Y0064910D03*
X0013550Y0074910D03*
X0014550Y0084910D03*
X0014424Y0094973D03*
X0013424Y0104973D03*
X0014424Y0114973D03*
X0012294Y0143509D03*
X0013294Y0153509D03*
X0012294Y0163509D03*
X0013294Y0173509D03*
X0012294Y0183509D03*
X0013557Y0211820D03*
X0012557Y0221820D03*
X0013557Y0231820D03*
X0013380Y0241891D03*
X0012380Y0251891D03*
X0013380Y0261891D03*
X0013026Y0293871D03*
X0012026Y0303871D03*
X0013026Y0313871D03*
X0012829Y0323938D03*
X0011829Y0333938D03*
X0012829Y0343938D03*
X0053700Y0382477D03*
X0065100Y0382477D03*
X0099452Y0320198D03*
X0110852Y0320198D03*
X0097278Y0286328D03*
X0087278Y0286328D03*
X0077278Y0286328D03*
X0067278Y0286328D03*
X0057278Y0286328D03*
X0057278Y0275328D03*
X0067278Y0275328D03*
X0077278Y0275328D03*
X0087278Y0275328D03*
X0097278Y0275328D03*
X0096530Y0207548D03*
X0096530Y0196548D03*
X0086530Y0196548D03*
X0076530Y0196548D03*
X0076530Y0207548D03*
X0086530Y0207548D03*
X0066530Y0207548D03*
X0056530Y0207548D03*
X0056530Y0196548D03*
X0066530Y0196548D03*
X0288813Y0199556D03*
X0288813Y0188556D03*
X0298813Y0188556D03*
X0308813Y0188556D03*
X0308813Y0199556D03*
X0298813Y0199556D03*
X0318813Y0199556D03*
X0328813Y0199556D03*
X0328813Y0188556D03*
X0318813Y0188556D03*
X0318813Y0156446D03*
X0328813Y0156446D03*
X0328813Y0145446D03*
X0318813Y0145446D03*
X0308813Y0145446D03*
X0298813Y0145446D03*
X0288813Y0145446D03*
X0288813Y0156446D03*
X0298813Y0156446D03*
X0308813Y0156446D03*
X0383369Y0147501D03*
X0384369Y0157501D03*
X0384431Y0171221D03*
X0383431Y0181221D03*
X0384431Y0191221D03*
X0384353Y0201190D03*
X0383353Y0211190D03*
X0384353Y0221190D03*
X0384282Y0235202D03*
X0383282Y0245202D03*
X0384282Y0255202D03*
X0384180Y0265182D03*
X0383180Y0275182D03*
X0384180Y0285182D03*
X0384117Y0299131D03*
X0383117Y0309131D03*
X0384117Y0319131D03*
X0384160Y0329103D03*
X0383160Y0339103D03*
X0384160Y0349103D03*
X0328813Y0258969D03*
X0318813Y0258969D03*
X0308813Y0258969D03*
X0298813Y0258969D03*
X0288813Y0258969D03*
X0288813Y0247969D03*
X0298813Y0247969D03*
X0308813Y0247969D03*
X0318813Y0247969D03*
X0328813Y0247969D03*
X0384369Y0137501D03*
X0383369Y0127501D03*
X0384369Y0117501D03*
X0384514Y0103485D03*
X0383514Y0093485D03*
X0384514Y0083485D03*
X0384424Y0073434D03*
X0383424Y0063434D03*
X0384424Y0053434D03*
X0328813Y0042233D03*
X0318813Y0042233D03*
X0308813Y0042233D03*
X0298813Y0042233D03*
X0288813Y0042233D03*
X0288813Y0031233D03*
X0298813Y0031233D03*
X0308813Y0031233D03*
X0318813Y0031233D03*
X0328813Y0031233D03*
D11*
X0338794Y0349331D03*
X0235349Y0349331D03*
X0104325Y0349331D03*
D12*
X0123223Y0360552D03*
X0104325Y0373938D03*
X0235349Y0373938D03*
X0254246Y0360552D03*
X0338794Y0373938D03*
X0357691Y0360552D03*
D13*
X0174955Y0352757D03*
X0174955Y0342757D03*
D14*
X0171428Y0329524D03*
X0171428Y0319524D03*
X0171428Y0309524D03*
X0171428Y0299524D03*
X0161428Y0299524D03*
X0161428Y0309524D03*
X0161428Y0319524D03*
X0161428Y0329524D03*
X0151428Y0339524D03*
X0151428Y0349524D03*
X0151428Y0359524D03*
X0141428Y0359524D03*
X0141428Y0369524D03*
X0141428Y0379524D03*
X0141428Y0389524D03*
X0151428Y0379524D03*
X0141428Y0349524D03*
X0141428Y0339524D03*
X0141428Y0329524D03*
X0141428Y0319524D03*
X0141428Y0309524D03*
X0141428Y0299524D03*
X0141428Y0289524D03*
X0141428Y0279524D03*
X0141428Y0269524D03*
X0141428Y0259524D03*
X0141428Y0249524D03*
X0141428Y0239524D03*
X0141428Y0229524D03*
X0141428Y0219524D03*
X0141428Y0209524D03*
X0151428Y0209524D03*
X0161428Y0209524D03*
X0161428Y0219524D03*
X0171428Y0219524D03*
X0171428Y0209524D03*
X0181428Y0209524D03*
X0191428Y0209524D03*
X0201428Y0209524D03*
X0201428Y0219524D03*
X0201428Y0229524D03*
X0201428Y0239524D03*
X0201428Y0249524D03*
X0201428Y0259524D03*
X0201428Y0269524D03*
X0201428Y0279524D03*
X0201428Y0289524D03*
X0201428Y0299524D03*
X0201428Y0309524D03*
X0201428Y0319524D03*
X0201428Y0329524D03*
X0201428Y0339524D03*
X0201428Y0349524D03*
X0201428Y0359524D03*
X0201428Y0369524D03*
X0201428Y0379524D03*
X0171428Y0239524D03*
X0171428Y0229524D03*
X0161428Y0229524D03*
X0161428Y0239524D03*
X0161428Y0199524D03*
X0161428Y0189524D03*
X0161428Y0179524D03*
X0171428Y0179524D03*
X0171428Y0189524D03*
X0171428Y0199524D03*
X0201428Y0199524D03*
X0201428Y0189524D03*
X0201428Y0179524D03*
X0201428Y0169524D03*
X0201428Y0159524D03*
X0171428Y0159524D03*
X0171428Y0169524D03*
X0161428Y0169524D03*
X0161428Y0159524D03*
X0141428Y0159524D03*
X0141428Y0169524D03*
X0141428Y0179524D03*
X0141428Y0189524D03*
X0141428Y0199524D03*
D15*
X0201428Y0389524D03*
D16*
X0216321Y0330938D03*
X0216321Y0325938D03*
X0216321Y0320938D03*
X0216321Y0315938D03*
X0216321Y0310938D03*
X0216321Y0305938D03*
X0216321Y0300938D03*
X0216321Y0295938D03*
X0216321Y0290938D03*
X0216321Y0285938D03*
X0254117Y0285938D03*
X0254117Y0290938D03*
X0254117Y0295938D03*
X0254117Y0300938D03*
X0254117Y0305938D03*
X0254117Y0310938D03*
X0254117Y0315938D03*
X0254117Y0320938D03*
X0254117Y0325938D03*
X0254117Y0330938D03*
X0118341Y0174154D03*
X0118341Y0169154D03*
X0118341Y0164154D03*
X0118341Y0159154D03*
X0118341Y0154154D03*
X0118341Y0149154D03*
X0118341Y0144154D03*
X0118341Y0139154D03*
X0118341Y0134154D03*
X0118341Y0129154D03*
X0080546Y0129154D03*
X0080546Y0134154D03*
X0080546Y0139154D03*
X0080546Y0144154D03*
X0080546Y0149154D03*
X0080546Y0154154D03*
X0080546Y0159154D03*
X0080546Y0164154D03*
X0080546Y0169154D03*
X0080546Y0174154D03*
D17*
X0105900Y0227520D03*
X0115900Y0227520D03*
X0125900Y0227520D03*
X0125900Y0247520D03*
X0115900Y0247520D03*
X0105900Y0247520D03*
X0224010Y0247520D03*
X0234010Y0247520D03*
X0244010Y0247520D03*
X0244010Y0227520D03*
X0234010Y0227520D03*
X0224010Y0227520D03*
X0224010Y0097914D03*
X0234010Y0097914D03*
X0244010Y0097914D03*
X0244010Y0077914D03*
X0234010Y0077914D03*
X0224010Y0077914D03*
X0125900Y0077914D03*
X0115900Y0077914D03*
X0105900Y0077914D03*
X0105900Y0097914D03*
X0115900Y0097914D03*
X0125900Y0097914D03*
D18*
X0225605Y0135001D03*
X0230605Y0135001D03*
X0235605Y0135001D03*
X0240605Y0135001D03*
X0240605Y0161221D03*
X0235605Y0161221D03*
X0230605Y0161221D03*
X0225605Y0161221D03*
D19*
X0274172Y0290513D03*
X0284172Y0290513D03*
D20*
X0314172Y0290513D03*
X0344172Y0290513D03*
D21*
X0174955Y0145788D03*
X0174955Y0127284D03*
X0174955Y0108780D03*
D22*
X0178892Y0075906D03*
X0178892Y0068426D03*
X0167081Y0068426D03*
X0167081Y0075906D03*
X0155270Y0075906D03*
X0155270Y0068426D03*
D23*
X0190703Y0068426D03*
X0190703Y0075906D03*
D24*
X0283065Y0074135D03*
X0293065Y0074135D03*
X0303065Y0074135D03*
X0066845Y0074135D03*
X0056845Y0074135D03*
X0046845Y0074135D03*
X0046845Y0318229D03*
X0056845Y0318229D03*
X0066845Y0318229D03*
X0283065Y0318229D03*
X0293065Y0318229D03*
X0303065Y0318229D03*
D25*
X0311963Y0347757D03*
X0274168Y0347757D03*
X0075742Y0347757D03*
X0037947Y0347757D03*
X0037947Y0103662D03*
X0075742Y0103662D03*
X0274168Y0103662D03*
X0311963Y0103662D03*
D26*
X0319727Y0120100D02*
X0319727Y0082100D01*
X0299727Y0062100D01*
X0300927Y0058900D02*
X0297727Y0058900D01*
X0281727Y0042900D01*
X0178927Y0042900D01*
X0155327Y0066500D01*
X0155327Y0068100D01*
X0155270Y0068426D01*
X0161327Y0064900D02*
X0161727Y0065300D01*
X0162127Y0065300D01*
X0165327Y0062100D01*
X0192127Y0062100D01*
X0195327Y0065300D01*
X0195327Y0079300D01*
X0190527Y0084100D01*
X0184527Y0084100D01*
X0178927Y0078500D01*
X0178927Y0076100D01*
X0178892Y0075906D01*
X0175327Y0071700D02*
X0174927Y0071700D01*
X0174127Y0072500D01*
X0174127Y0080500D01*
X0151727Y0080500D01*
X0149327Y0078100D01*
X0126127Y0078100D01*
X0125900Y0077914D01*
X0120927Y0079700D02*
X0120927Y0075700D01*
X0141727Y0054900D01*
X0162127Y0065300D02*
X0162127Y0071700D01*
X0166127Y0075700D01*
X0166927Y0075700D01*
X0167081Y0075906D01*
X0174127Y0080500D02*
X0174127Y0108100D01*
X0174527Y0108500D01*
X0174955Y0108780D01*
X0175327Y0108900D01*
X0180527Y0108900D01*
X0192327Y0120700D01*
X0224927Y0088100D01*
X0228527Y0088100D01*
X0233727Y0082900D01*
X0233727Y0078100D01*
X0234010Y0077914D01*
X0237327Y0081700D02*
X0238927Y0080100D01*
X0238927Y0075700D01*
X0236127Y0072900D01*
X0228927Y0072900D01*
X0224127Y0077700D01*
X0224010Y0077914D01*
X0237327Y0081700D02*
X0237327Y0090500D01*
X0238927Y0092100D01*
X0238927Y0099700D01*
X0243327Y0104100D01*
X0243327Y0139700D01*
X0263727Y0160100D01*
X0263727Y0202100D01*
X0266927Y0198900D02*
X0266927Y0159300D01*
X0286527Y0139700D01*
X0302927Y0139700D01*
X0308527Y0145300D01*
X0308813Y0145446D01*
X0328527Y0145300D02*
X0328813Y0145446D01*
X0328527Y0145300D02*
X0283327Y0100100D01*
X0283327Y0074500D01*
X0283065Y0074135D01*
X0276927Y0072100D02*
X0247727Y0101300D01*
X0247727Y0139700D01*
X0225727Y0138500D02*
X0249727Y0162500D01*
X0249727Y0164100D01*
X0250927Y0164100D01*
X0249727Y0164100D02*
X0249727Y0197700D01*
X0246527Y0200900D02*
X0244527Y0202900D01*
X0242127Y0202900D01*
X0209327Y0170100D01*
X0209327Y0155700D01*
X0199727Y0146100D01*
X0175327Y0146100D01*
X0174955Y0145788D01*
X0172527Y0152500D02*
X0201327Y0152500D01*
X0207727Y0158900D01*
X0207727Y0189700D01*
X0202527Y0194900D01*
X0199727Y0194900D01*
X0196927Y0197700D01*
X0196927Y0211700D01*
X0200127Y0214900D01*
X0218527Y0214900D01*
X0228927Y0225300D01*
X0228927Y0229300D01*
X0233727Y0234100D01*
X0233727Y0247300D01*
X0234010Y0247520D01*
X0239727Y0256900D02*
X0239727Y0259700D01*
X0256927Y0276900D01*
X0246927Y0285300D02*
X0246927Y0290100D01*
X0252527Y0295700D01*
X0253727Y0295700D01*
X0254117Y0295938D01*
X0254127Y0300900D02*
X0254117Y0300938D01*
X0254127Y0300900D02*
X0255727Y0300900D01*
X0259727Y0296900D01*
X0264127Y0290900D02*
X0254127Y0290900D01*
X0254117Y0290938D01*
X0254117Y0285938D02*
X0254127Y0285700D01*
X0262127Y0285700D01*
X0267727Y0293700D02*
X0267727Y0256500D01*
X0269727Y0245700D02*
X0279327Y0245700D01*
X0289727Y0235300D01*
X0306127Y0235300D01*
X0318527Y0247700D01*
X0318813Y0247969D01*
X0308813Y0247969D02*
X0308527Y0248100D01*
X0303327Y0253300D01*
X0286927Y0253300D01*
X0270527Y0269700D01*
X0270527Y0293300D01*
X0261327Y0302500D01*
X0261327Y0310100D01*
X0255727Y0315700D01*
X0254127Y0315700D01*
X0254117Y0315938D01*
X0254127Y0320900D02*
X0254117Y0320938D01*
X0254127Y0320900D02*
X0260527Y0320900D01*
X0280927Y0300500D01*
X0284127Y0301700D02*
X0284127Y0290900D01*
X0284172Y0290513D01*
X0284527Y0290500D01*
X0284527Y0263300D01*
X0288527Y0259300D01*
X0288813Y0258969D01*
X0302527Y0265300D02*
X0308527Y0259300D01*
X0308813Y0258969D01*
X0302527Y0265300D02*
X0302527Y0285300D01*
X0284127Y0301700D02*
X0260127Y0325700D01*
X0254527Y0325700D01*
X0254117Y0325938D01*
X0254127Y0326100D01*
X0254127Y0327300D01*
X0248527Y0327300D01*
X0254127Y0327300D02*
X0254127Y0330900D01*
X0254117Y0330938D01*
X0250527Y0333700D02*
X0222527Y0305700D01*
X0222527Y0264500D01*
X0218927Y0260900D01*
X0215727Y0261700D02*
X0215727Y0235700D01*
X0223727Y0227700D01*
X0224010Y0227520D01*
X0228527Y0222500D02*
X0246527Y0222500D01*
X0269727Y0245700D01*
X0270927Y0242500D02*
X0280127Y0242500D01*
X0288927Y0233700D01*
X0323327Y0233700D01*
X0340527Y0250900D01*
X0342927Y0250900D01*
X0344927Y0248900D01*
X0344927Y0171700D01*
X0340527Y0167300D01*
X0337327Y0168500D02*
X0341727Y0172900D01*
X0341727Y0247700D01*
X0346527Y0249700D02*
X0346527Y0144500D01*
X0322927Y0120900D01*
X0322927Y0118900D01*
X0319727Y0120100D02*
X0337327Y0137700D01*
X0337327Y0168500D01*
X0356127Y0148900D02*
X0356127Y0191700D01*
X0369327Y0196100D02*
X0371727Y0193700D01*
X0377727Y0193700D01*
X0377727Y0178900D01*
X0380727Y0175900D01*
X0374527Y0169700D01*
X0374527Y0127300D01*
X0384127Y0117700D01*
X0384369Y0117501D01*
X0384127Y0117300D01*
X0371727Y0104900D01*
X0371727Y0077700D01*
X0328927Y0034900D01*
X0328927Y0031300D01*
X0328813Y0031233D01*
X0328813Y0042233D02*
X0328927Y0042500D01*
X0328927Y0084500D01*
X0356127Y0111700D01*
X0356127Y0148900D01*
X0384127Y0171300D02*
X0384431Y0171221D01*
X0384127Y0171300D02*
X0384127Y0172500D01*
X0380727Y0175900D01*
X0377727Y0193700D02*
X0377727Y0194500D01*
X0384127Y0200900D01*
X0384353Y0201190D01*
X0369327Y0196100D02*
X0369327Y0248100D01*
X0384127Y0262900D01*
X0384180Y0265182D01*
X0384527Y0264900D01*
X0384527Y0262900D01*
X0389727Y0257700D01*
X0389727Y0240500D01*
X0384527Y0235300D01*
X0384282Y0235202D01*
X0346527Y0249700D02*
X0338527Y0257700D01*
X0352927Y0277300D02*
X0352927Y0110900D01*
X0300927Y0058900D01*
X0298813Y0031233D02*
X0298927Y0030900D01*
X0304927Y0024900D01*
X0316927Y0024900D01*
X0225605Y0135001D02*
X0225727Y0135300D01*
X0225727Y0138500D01*
X0225605Y0135001D02*
X0225327Y0134900D01*
X0206527Y0134900D01*
X0192327Y0120700D01*
X0196527Y0127300D02*
X0175327Y0127300D01*
X0174955Y0127284D01*
X0170127Y0121300D02*
X0162127Y0121300D01*
X0159727Y0118900D01*
X0106527Y0118900D01*
X0103327Y0122100D01*
X0104927Y0116100D02*
X0120927Y0100100D01*
X0120927Y0092500D01*
X0119327Y0090900D01*
X0119327Y0081300D01*
X0120927Y0079700D01*
X0115900Y0077914D02*
X0115727Y0077700D01*
X0115727Y0061300D01*
X0115327Y0046900D02*
X0115327Y0042500D01*
X0095327Y0022500D01*
X0049327Y0022500D01*
X0004127Y0067700D01*
X0004127Y0348100D01*
X0038127Y0382100D01*
X0053327Y0382100D01*
X0053700Y0382477D01*
X0065100Y0382477D02*
X0065327Y0382100D01*
X0096127Y0382100D01*
X0104127Y0374100D01*
X0104325Y0373938D01*
X0123327Y0360900D02*
X0123223Y0360552D01*
X0123327Y0360900D02*
X0126127Y0360900D01*
X0139327Y0374100D01*
X0189727Y0374100D01*
X0195727Y0368100D01*
X0202927Y0364500D02*
X0139727Y0364500D01*
X0132527Y0357300D01*
X0132527Y0356900D01*
X0125327Y0349700D01*
X0104527Y0349700D01*
X0104325Y0349331D01*
X0068127Y0356900D02*
X0068127Y0334500D01*
X0068927Y0333700D01*
X0046845Y0318229D02*
X0046927Y0318100D01*
X0055327Y0309700D01*
X0110127Y0309700D01*
X0116927Y0298500D02*
X0128927Y0298500D01*
X0131327Y0300900D01*
X0131327Y0306100D01*
X0139727Y0314500D01*
X0143327Y0314500D01*
X0146127Y0317300D01*
X0146127Y0320900D01*
X0159327Y0334100D01*
X0163327Y0334100D01*
X0166127Y0331300D01*
X0166127Y0328500D01*
X0169727Y0324900D01*
X0172527Y0324900D01*
X0179327Y0318100D01*
X0173327Y0304100D02*
X0170527Y0304100D01*
X0166927Y0307700D01*
X0166927Y0310500D01*
X0161727Y0315700D01*
X0161727Y0319300D01*
X0161428Y0319524D01*
X0156927Y0321700D02*
X0161327Y0326100D01*
X0161327Y0329300D01*
X0161428Y0329524D01*
X0156927Y0321700D02*
X0156927Y0291700D01*
X0146127Y0298100D02*
X0146127Y0301300D01*
X0143327Y0304100D01*
X0136927Y0304100D01*
X0128127Y0295300D01*
X0054127Y0295300D01*
X0047727Y0288900D01*
X0048927Y0285700D02*
X0055327Y0292100D01*
X0064127Y0292100D01*
X0067327Y0286500D02*
X0067278Y0286328D01*
X0067327Y0286500D02*
X0072927Y0292100D01*
X0098927Y0292100D01*
X0102527Y0288500D01*
X0102527Y0283700D01*
X0127727Y0258500D01*
X0131727Y0258500D01*
X0132927Y0255300D02*
X0114127Y0255300D01*
X0120927Y0249700D02*
X0120927Y0245700D01*
X0119327Y0244100D01*
X0119327Y0234900D01*
X0120927Y0233300D01*
X0120927Y0220500D01*
X0122927Y0218500D01*
X0122927Y0210100D01*
X0132527Y0208500D02*
X0140527Y0208500D01*
X0141327Y0209300D01*
X0141428Y0209524D01*
X0140127Y0204900D02*
X0143327Y0204900D01*
X0146927Y0208500D01*
X0146927Y0247700D01*
X0150127Y0248900D02*
X0150127Y0244500D01*
X0159727Y0234900D01*
X0162527Y0234900D01*
X0166127Y0231300D01*
X0166127Y0218500D01*
X0171327Y0213300D01*
X0171327Y0209700D01*
X0171428Y0209524D01*
X0170927Y0209700D01*
X0168127Y0209700D01*
X0162927Y0204500D01*
X0159727Y0204500D01*
X0154927Y0199700D01*
X0154927Y0159700D01*
X0155727Y0158900D01*
X0161327Y0159700D02*
X0161428Y0159524D01*
X0161327Y0159700D02*
X0161327Y0163300D01*
X0156527Y0168100D01*
X0156527Y0191300D01*
X0159727Y0194500D01*
X0163327Y0194500D01*
X0166927Y0198100D01*
X0166927Y0201700D01*
X0170127Y0204900D01*
X0176927Y0204900D01*
X0181327Y0209300D01*
X0181428Y0209524D01*
X0181727Y0209700D01*
X0181727Y0250500D01*
X0192127Y0260900D01*
X0192927Y0260900D01*
X0196127Y0264100D01*
X0203327Y0264100D01*
X0206127Y0261300D01*
X0206127Y0257700D01*
X0201727Y0253300D01*
X0201727Y0249700D01*
X0201428Y0249524D01*
X0201327Y0259300D02*
X0192927Y0259300D01*
X0186927Y0253300D01*
X0186927Y0187700D01*
X0200127Y0174500D01*
X0203327Y0174500D01*
X0206127Y0171700D01*
X0206127Y0167300D01*
X0203327Y0164500D01*
X0199727Y0164500D01*
X0194927Y0159700D01*
X0194927Y0157700D01*
X0191327Y0154100D01*
X0169327Y0154100D01*
X0162527Y0147300D01*
X0166127Y0155300D02*
X0136127Y0125300D01*
X0114527Y0125300D01*
X0113327Y0122100D02*
X0142127Y0122100D01*
X0172527Y0152500D01*
X0166127Y0155300D02*
X0166127Y0160900D01*
X0171327Y0166100D01*
X0171327Y0169300D01*
X0171428Y0169524D01*
X0170527Y0174100D02*
X0176527Y0174100D01*
X0191727Y0158900D01*
X0200527Y0144500D02*
X0182927Y0144500D01*
X0158927Y0120500D01*
X0110527Y0120500D01*
X0104527Y0126500D01*
X0104527Y0135700D01*
X0112927Y0144100D01*
X0118127Y0144100D01*
X0118341Y0144154D01*
X0118527Y0139300D02*
X0118341Y0139154D01*
X0118527Y0139300D02*
X0120127Y0139300D01*
X0127327Y0146500D01*
X0127327Y0182100D01*
X0124527Y0184900D01*
X0124527Y0191700D01*
X0134527Y0201700D01*
X0134527Y0203700D01*
X0132527Y0208500D02*
X0119727Y0195700D01*
X0119727Y0189300D01*
X0109327Y0178900D01*
X0109327Y0153300D01*
X0113327Y0149300D01*
X0118127Y0149300D01*
X0118341Y0149154D01*
X0118341Y0154154D02*
X0118127Y0154500D01*
X0112527Y0154500D01*
X0118341Y0159154D02*
X0118527Y0159300D01*
X0120127Y0159300D01*
X0124127Y0163300D01*
X0124127Y0168900D01*
X0122927Y0172100D02*
X0122927Y0194500D01*
X0115327Y0189300D02*
X0115327Y0187300D01*
X0096127Y0168100D01*
X0096127Y0163700D01*
X0086127Y0153700D01*
X0082527Y0154500D02*
X0094527Y0166500D01*
X0094527Y0182500D01*
X0102127Y0190100D01*
X0102127Y0194500D02*
X0102127Y0198500D01*
X0098527Y0202100D01*
X0083727Y0202100D01*
X0078527Y0207300D01*
X0076927Y0207300D01*
X0076530Y0207548D01*
X0081327Y0202100D02*
X0086527Y0196900D01*
X0086530Y0196548D01*
X0081327Y0202100D02*
X0054127Y0202100D01*
X0050927Y0205300D01*
X0050927Y0209700D01*
X0075327Y0234100D01*
X0080527Y0234100D01*
X0076927Y0250500D02*
X0049327Y0222900D01*
X0049327Y0196100D01*
X0070927Y0174500D01*
X0080527Y0174500D01*
X0080546Y0174154D01*
X0080527Y0169300D02*
X0080546Y0169154D01*
X0080527Y0169300D02*
X0073727Y0169300D01*
X0043727Y0199300D01*
X0043727Y0204100D01*
X0040527Y0205300D02*
X0040527Y0154100D01*
X0068527Y0126100D01*
X0068527Y0124100D01*
X0104527Y0088100D01*
X0104527Y0079300D01*
X0105727Y0078100D01*
X0105900Y0077914D01*
X0107727Y0087700D02*
X0110927Y0087700D01*
X0115727Y0082900D01*
X0115727Y0078100D01*
X0115900Y0077914D01*
X0107727Y0087700D02*
X0098527Y0096900D01*
X0098527Y0117700D01*
X0082127Y0134100D01*
X0080927Y0134100D01*
X0080546Y0134154D01*
X0080127Y0134100D01*
X0078927Y0134100D01*
X0074927Y0130100D01*
X0071727Y0131300D02*
X0071727Y0125300D01*
X0071727Y0131300D02*
X0074927Y0134500D01*
X0074927Y0142900D01*
X0080546Y0144154D02*
X0080927Y0144100D01*
X0086127Y0144100D01*
X0096927Y0133300D01*
X0100127Y0134500D02*
X0100127Y0113700D01*
X0115727Y0098100D01*
X0115900Y0097914D01*
X0113327Y0122100D02*
X0110127Y0125300D01*
X0100127Y0134500D02*
X0085727Y0148900D01*
X0080927Y0148900D01*
X0080546Y0149154D01*
X0080546Y0154154D02*
X0080927Y0154500D01*
X0082527Y0154500D01*
X0082127Y0159300D02*
X0092927Y0170100D01*
X0092927Y0185300D01*
X0102127Y0194500D01*
X0096927Y0207700D02*
X0096530Y0207548D01*
X0096927Y0207700D02*
X0115727Y0226500D01*
X0115727Y0227300D01*
X0115900Y0227520D01*
X0115727Y0227700D01*
X0115727Y0240900D01*
X0110927Y0245700D01*
X0110927Y0272900D01*
X0105327Y0278500D01*
X0104927Y0278500D01*
X0097327Y0286100D01*
X0097278Y0286328D01*
X0104927Y0291300D02*
X0125327Y0270900D01*
X0128527Y0262100D02*
X0128527Y0286500D01*
X0141327Y0299300D01*
X0141428Y0299524D01*
X0146127Y0298100D02*
X0174527Y0269700D01*
X0201327Y0269700D01*
X0201428Y0269524D01*
X0200527Y0274100D02*
X0203327Y0274100D01*
X0215727Y0261700D01*
X0201428Y0259524D02*
X0201327Y0259300D01*
X0194127Y0256100D02*
X0194127Y0240500D01*
X0201327Y0233300D01*
X0201327Y0229700D01*
X0201428Y0229524D01*
X0201727Y0209700D02*
X0201428Y0209524D01*
X0201727Y0209700D02*
X0215727Y0209700D01*
X0228527Y0222500D01*
X0220127Y0209700D02*
X0255327Y0209700D01*
X0280527Y0234900D01*
X0282127Y0238100D02*
X0292127Y0228100D01*
X0296527Y0228100D01*
X0308527Y0216100D01*
X0308527Y0199700D01*
X0308813Y0199556D01*
X0303327Y0194100D02*
X0308527Y0188900D01*
X0308813Y0188556D01*
X0303327Y0194100D02*
X0286527Y0194100D01*
X0282927Y0197700D01*
X0282127Y0197700D01*
X0285327Y0205300D02*
X0270927Y0190900D01*
X0270127Y0179700D02*
X0309727Y0179700D01*
X0318527Y0188500D01*
X0318813Y0188556D01*
X0298813Y0199556D02*
X0298527Y0199700D01*
X0292927Y0205300D01*
X0285327Y0205300D01*
X0254527Y0204500D02*
X0241327Y0204500D01*
X0236527Y0199700D01*
X0201727Y0199700D01*
X0201428Y0199524D01*
X0178527Y0216100D02*
X0178527Y0218900D01*
X0171727Y0225700D01*
X0171727Y0229300D01*
X0171428Y0229524D01*
X0169727Y0234900D02*
X0178527Y0234900D01*
X0171727Y0239700D02*
X0171428Y0239524D01*
X0171727Y0239700D02*
X0171727Y0251700D01*
X0182527Y0254900D02*
X0194127Y0266500D01*
X0200527Y0274100D02*
X0196927Y0277700D01*
X0196927Y0280500D01*
X0173327Y0304100D01*
X0196927Y0287700D02*
X0196927Y0344900D01*
X0201327Y0349300D01*
X0201428Y0349524D01*
X0206127Y0345700D02*
X0206127Y0354900D01*
X0201727Y0359300D01*
X0201428Y0359524D01*
X0202927Y0364500D02*
X0208127Y0359300D01*
X0230927Y0359300D01*
X0231327Y0359700D01*
X0239327Y0359700D01*
X0258927Y0340100D01*
X0292527Y0340100D01*
X0315327Y0317300D01*
X0317727Y0317300D01*
X0313327Y0312100D02*
X0326127Y0299300D01*
X0383727Y0299300D01*
X0384117Y0299131D01*
X0357691Y0360552D02*
X0357327Y0360500D01*
X0254527Y0360500D01*
X0254246Y0360552D01*
X0254127Y0360900D01*
X0253727Y0361300D01*
X0230527Y0361300D01*
X0230127Y0360900D01*
X0215727Y0360900D01*
X0212527Y0364100D01*
X0210927Y0364100D01*
X0206127Y0345700D02*
X0216927Y0334900D01*
X0218927Y0334900D01*
X0222127Y0324500D02*
X0218927Y0321300D01*
X0216527Y0321300D01*
X0216321Y0320938D01*
X0216321Y0315938D02*
X0216527Y0315700D01*
X0218127Y0315700D01*
X0220927Y0312900D01*
X0220927Y0284100D01*
X0219727Y0282900D01*
X0204527Y0282900D01*
X0202527Y0284900D01*
X0199727Y0284900D01*
X0196927Y0287700D01*
X0201428Y0289524D02*
X0201727Y0289300D01*
X0204927Y0286100D01*
X0216127Y0286100D01*
X0216321Y0285938D01*
X0216321Y0290938D02*
X0216127Y0291300D01*
X0209727Y0291300D01*
X0201727Y0299300D01*
X0201428Y0299524D01*
X0201327Y0309300D02*
X0201428Y0309524D01*
X0201327Y0309300D02*
X0214527Y0296100D01*
X0216127Y0296100D01*
X0216321Y0295938D01*
X0216321Y0300938D02*
X0216127Y0301300D01*
X0214527Y0301300D01*
X0206127Y0309700D01*
X0206127Y0314900D01*
X0201727Y0319300D01*
X0201428Y0319524D01*
X0206127Y0319700D02*
X0206127Y0334900D01*
X0201727Y0339300D01*
X0201428Y0339524D01*
X0206127Y0319700D02*
X0214527Y0311300D01*
X0216127Y0311300D01*
X0216321Y0310938D01*
X0216127Y0306100D02*
X0214527Y0306100D01*
X0209327Y0311300D01*
X0216127Y0306100D02*
X0216321Y0305938D01*
X0248527Y0306900D02*
X0252527Y0310900D01*
X0253727Y0310900D01*
X0254117Y0310938D01*
X0254117Y0305938D02*
X0254127Y0305700D01*
X0255727Y0305700D01*
X0267727Y0293700D01*
X0283065Y0318229D02*
X0283327Y0318100D01*
X0285727Y0318100D01*
X0291727Y0312100D01*
X0313327Y0312100D01*
X0283065Y0318229D02*
X0282927Y0318500D01*
X0272927Y0318500D01*
X0257727Y0333700D01*
X0250527Y0333700D01*
X0235349Y0373938D02*
X0235727Y0374100D01*
X0235727Y0380500D01*
X0240927Y0385700D01*
X0141428Y0259524D02*
X0141327Y0259300D01*
X0136927Y0259300D01*
X0132927Y0255300D01*
X0138927Y0253700D02*
X0140127Y0254900D01*
X0182527Y0254900D01*
X0165327Y0239300D02*
X0169727Y0234900D01*
X0165327Y0239300D02*
X0161727Y0239300D01*
X0161428Y0239524D01*
X0150127Y0248900D02*
X0148127Y0250900D01*
X0142927Y0250900D01*
X0141727Y0249700D01*
X0141428Y0249524D01*
X0141327Y0249300D01*
X0141327Y0246100D01*
X0132527Y0237300D01*
X0132527Y0234100D01*
X0126127Y0227700D01*
X0125900Y0227520D01*
X0103727Y0234100D02*
X0100927Y0231300D01*
X0100927Y0225700D01*
X0102127Y0224500D01*
X0102127Y0217700D01*
X0076927Y0196500D02*
X0076530Y0196548D01*
X0076927Y0196500D02*
X0085327Y0188100D01*
X0085327Y0167300D01*
X0082527Y0164500D01*
X0080927Y0164500D01*
X0080546Y0164154D01*
X0080927Y0159300D02*
X0080546Y0159154D01*
X0080927Y0159300D02*
X0082127Y0159300D01*
X0080546Y0139154D02*
X0080927Y0138900D01*
X0082127Y0138900D01*
X0096927Y0124100D01*
X0092927Y0097300D02*
X0047327Y0142900D01*
X0021327Y0126900D02*
X0006527Y0141700D01*
X0006527Y0177700D01*
X0012127Y0183300D01*
X0012294Y0183509D01*
X0012527Y0183700D01*
X0012527Y0210900D01*
X0013327Y0211700D01*
X0013557Y0211820D01*
X0013327Y0212100D01*
X0006927Y0218500D01*
X0006927Y0232900D01*
X0013327Y0239300D01*
X0013327Y0241700D01*
X0013380Y0241891D01*
X0029727Y0256900D02*
X0030927Y0258100D01*
X0029727Y0256900D02*
X0029727Y0192900D01*
X0040527Y0205300D02*
X0047727Y0212500D01*
X0047727Y0225700D01*
X0077727Y0255700D01*
X0105327Y0255700D01*
X0120927Y0249700D02*
X0124927Y0253700D01*
X0138927Y0253700D01*
X0100527Y0298500D02*
X0054927Y0298500D01*
X0049727Y0293300D01*
X0047727Y0293300D01*
X0048927Y0285700D02*
X0044527Y0285700D01*
X0023727Y0265300D02*
X0013327Y0275700D01*
X0013327Y0293700D01*
X0013026Y0293871D01*
X0038127Y0258100D02*
X0036927Y0256900D01*
X0036927Y0210900D01*
X0112927Y0171300D02*
X0112927Y0168100D01*
X0116527Y0164500D01*
X0118127Y0164500D01*
X0118341Y0164154D01*
X0118341Y0169154D02*
X0118527Y0169300D01*
X0120127Y0169300D01*
X0122927Y0172100D01*
X0118341Y0174154D02*
X0118127Y0174500D01*
X0118127Y0182100D01*
X0127727Y0186100D02*
X0127727Y0192500D01*
X0140127Y0204900D01*
X0161428Y0179524D02*
X0161727Y0179300D01*
X0165327Y0179300D01*
X0170527Y0174100D01*
X0171727Y0195700D02*
X0195727Y0171700D01*
X0217727Y0174100D02*
X0217727Y0161700D01*
X0200527Y0144500D01*
X0203327Y0144900D02*
X0222527Y0164100D01*
X0222527Y0166100D01*
X0223727Y0167300D01*
X0227727Y0167300D01*
X0230527Y0164500D01*
X0230527Y0161300D01*
X0230605Y0161221D01*
X0235605Y0161221D02*
X0235727Y0161300D01*
X0235727Y0169300D01*
X0243327Y0176900D01*
X0243327Y0199700D01*
X0246527Y0200900D02*
X0246527Y0177700D01*
X0240927Y0172100D01*
X0240927Y0161300D01*
X0240605Y0161221D01*
X0225605Y0161221D02*
X0225327Y0160900D01*
X0225327Y0156100D01*
X0196527Y0127300D01*
X0203327Y0138500D02*
X0203327Y0144900D01*
X0171727Y0195700D02*
X0171727Y0199300D01*
X0171428Y0199524D01*
X0141428Y0169524D02*
X0141327Y0169300D01*
X0141327Y0166100D01*
X0129327Y0154100D01*
X0129327Y0128500D01*
X0143727Y0147300D02*
X0143727Y0151300D01*
X0141327Y0153700D01*
X0092927Y0097300D02*
X0092927Y0095300D01*
X0049327Y0074100D02*
X0075727Y0047700D01*
X0098527Y0047700D01*
X0102127Y0044100D01*
X0102127Y0036500D01*
X0096927Y0031300D01*
X0096530Y0031233D01*
X0076530Y0031233D02*
X0076527Y0031300D01*
X0074127Y0031300D01*
X0068527Y0036900D01*
X0054127Y0036900D01*
X0043727Y0047300D01*
X0043727Y0065700D01*
X0019727Y0089700D01*
X0019727Y0109700D01*
X0014527Y0114900D01*
X0014424Y0114973D01*
X0021327Y0109700D02*
X0021327Y0126900D01*
X0021327Y0109700D02*
X0046527Y0084500D01*
X0046527Y0074500D01*
X0046845Y0074135D01*
X0046927Y0074100D01*
X0049327Y0074100D01*
X0028927Y0084900D02*
X0066127Y0047700D01*
X0071327Y0047700D01*
X0076527Y0042500D01*
X0076530Y0042233D01*
X0167081Y0068426D02*
X0167327Y0068100D01*
X0170127Y0068100D01*
X0172927Y0065300D01*
X0178527Y0068500D02*
X0175327Y0071700D01*
X0178527Y0068500D02*
X0178892Y0068426D01*
X0178927Y0068500D01*
X0190527Y0068500D01*
X0190703Y0068426D01*
X0190703Y0075906D02*
X0190527Y0076100D01*
X0185727Y0080900D01*
X0270927Y0238100D02*
X0282127Y0238100D01*
D27*
X0280527Y0234900D03*
X0270927Y0238100D03*
X0270927Y0242500D03*
X0267727Y0256500D03*
X0259727Y0258900D03*
X0243727Y0258900D03*
X0239727Y0256900D03*
X0226927Y0264500D03*
X0218927Y0260900D03*
X0231327Y0281700D03*
X0246927Y0285300D03*
X0256927Y0276900D03*
X0264127Y0281700D03*
X0262127Y0285700D03*
X0264127Y0290900D03*
X0259727Y0296900D03*
X0264927Y0307300D03*
X0248527Y0306900D03*
X0248527Y0327300D03*
X0222127Y0324500D03*
X0218927Y0334900D03*
X0220927Y0344500D03*
X0212127Y0344500D03*
X0210527Y0329700D03*
X0209327Y0311300D03*
X0193327Y0317700D03*
X0179327Y0318100D03*
X0168127Y0314500D03*
X0156927Y0291700D03*
X0132127Y0282900D03*
X0125327Y0270900D03*
X0128527Y0262100D03*
X0131727Y0258500D03*
X0146927Y0247700D03*
X0124927Y0221300D03*
X0134127Y0212100D03*
X0134527Y0203700D03*
X0134127Y0193700D03*
X0127727Y0186100D03*
X0122927Y0194500D03*
X0115327Y0189300D03*
X0118127Y0182100D03*
X0112927Y0171300D03*
X0124127Y0168900D03*
X0112527Y0154500D03*
X0108127Y0134500D03*
X0110127Y0125300D03*
X0114527Y0125300D03*
X0104927Y0116100D03*
X0103327Y0122100D03*
X0096927Y0124100D03*
X0096927Y0133300D03*
X0086127Y0153700D03*
X0074927Y0142900D03*
X0074927Y0130100D03*
X0071727Y0125300D03*
X0047327Y0142900D03*
X0041327Y0146500D03*
X0033327Y0184500D03*
X0029727Y0192900D03*
X0043727Y0204100D03*
X0036927Y0210900D03*
X0044127Y0214100D03*
X0052927Y0219700D03*
X0033327Y0224900D03*
X0030927Y0258100D03*
X0038127Y0258100D03*
X0034527Y0265300D03*
X0023727Y0265300D03*
X0032527Y0283300D03*
X0039727Y0290500D03*
X0044527Y0285700D03*
X0047727Y0288900D03*
X0047727Y0293300D03*
X0047727Y0278900D03*
X0064127Y0292100D03*
X0076127Y0302500D03*
X0100527Y0298500D03*
X0104927Y0291300D03*
X0116927Y0298500D03*
X0110127Y0309700D03*
X0124127Y0318500D03*
X0134127Y0316900D03*
X0127727Y0302100D03*
X0127327Y0331300D03*
X0130527Y0338500D03*
X0161327Y0344500D03*
X0168927Y0347700D03*
X0161727Y0354500D03*
X0184127Y0384500D03*
X0193327Y0386100D03*
X0194127Y0374500D03*
X0195727Y0368100D03*
X0210927Y0364100D03*
X0213327Y0378100D03*
X0227727Y0364500D03*
X0240927Y0385700D03*
X0194927Y0347700D03*
X0193327Y0294900D03*
X0194127Y0266500D03*
X0188927Y0266100D03*
X0194127Y0256100D03*
X0171727Y0251700D03*
X0178527Y0234900D03*
X0178527Y0216100D03*
X0147327Y0190900D03*
X0122927Y0210100D03*
X0102127Y0217700D03*
X0103727Y0234100D03*
X0105327Y0255700D03*
X0114127Y0255300D03*
X0104127Y0274900D03*
X0076927Y0250500D03*
X0068127Y0250900D03*
X0060927Y0258100D03*
X0080127Y0238500D03*
X0080527Y0234100D03*
X0102127Y0190100D03*
X0141327Y0153700D03*
X0143727Y0147300D03*
X0150927Y0144900D03*
X0147327Y0141300D03*
X0162527Y0147300D03*
X0155727Y0158900D03*
X0184927Y0173300D03*
X0195727Y0171700D03*
X0191727Y0158900D03*
X0203327Y0138500D03*
X0221327Y0138500D03*
X0222127Y0148100D03*
X0217727Y0174100D03*
X0243327Y0199700D03*
X0249727Y0197700D03*
X0254527Y0204500D03*
X0263727Y0202100D03*
X0266927Y0198900D03*
X0270927Y0190900D03*
X0270127Y0179700D03*
X0282927Y0172100D03*
X0303327Y0170900D03*
X0282127Y0197700D03*
X0281727Y0206500D03*
X0273727Y0214500D03*
X0295327Y0224500D03*
X0301727Y0238900D03*
X0312527Y0228100D03*
X0341727Y0247700D03*
X0338527Y0257700D03*
X0336527Y0272100D03*
X0352927Y0277300D03*
X0356527Y0295700D03*
X0367327Y0312900D03*
X0317727Y0317300D03*
X0299727Y0308500D03*
X0280927Y0300500D03*
X0280927Y0274100D03*
X0302527Y0285300D03*
X0356527Y0217300D03*
X0372927Y0197300D03*
X0356127Y0191700D03*
X0340527Y0167300D03*
X0356127Y0148900D03*
X0378127Y0168500D03*
X0329327Y0122500D03*
X0322927Y0118900D03*
X0276927Y0072100D03*
X0280927Y0050100D03*
X0273327Y0046500D03*
X0299727Y0062100D03*
X0316927Y0024900D03*
X0221327Y0039300D03*
X0185727Y0080900D03*
X0181727Y0086900D03*
X0182127Y0091700D03*
X0199327Y0094900D03*
X0205727Y0112100D03*
X0170127Y0121300D03*
X0129327Y0128500D03*
X0092927Y0095300D03*
X0115727Y0061300D03*
X0115327Y0046900D03*
X0141727Y0054900D03*
X0140527Y0066100D03*
X0161327Y0064900D03*
X0172927Y0065300D03*
X0247727Y0139700D03*
X0250927Y0164100D03*
X0220127Y0209700D03*
X0068927Y0333700D03*
X0068127Y0356900D03*
X0043727Y0327300D03*
X0022527Y0308900D03*
X0018927Y0327300D03*
X0023327Y0362500D03*
X0028927Y0084900D03*
D28*
X0041327Y0038100D02*
X0054127Y0025300D01*
X0080927Y0025300D01*
X0086527Y0030900D01*
X0086530Y0031233D01*
X0113327Y0050500D02*
X0117327Y0050500D01*
X0149327Y0018500D01*
X0357727Y0018500D01*
X0390527Y0051300D01*
X0390527Y0165300D01*
X0382127Y0165300D01*
X0378927Y0168500D01*
X0378127Y0168500D01*
X0390527Y0165300D02*
X0390527Y0214900D01*
X0384527Y0220900D01*
X0384353Y0221190D01*
X0378527Y0218900D02*
X0378527Y0240500D01*
X0382927Y0244900D01*
X0383282Y0245202D01*
X0384127Y0254900D02*
X0384282Y0255202D01*
X0384127Y0254900D02*
X0372927Y0243700D01*
X0372927Y0197300D01*
X0383353Y0211190D02*
X0383327Y0211300D01*
X0383327Y0214100D01*
X0378527Y0218900D01*
X0356527Y0217300D02*
X0356527Y0257300D01*
X0384127Y0284900D01*
X0384180Y0285182D01*
X0384127Y0293300D02*
X0386527Y0293300D01*
X0390127Y0296900D01*
X0390127Y0312900D01*
X0384527Y0318500D01*
X0384117Y0319131D01*
X0384127Y0319300D01*
X0390127Y0325300D01*
X0390127Y0351300D01*
X0349327Y0392100D01*
X0235727Y0392100D01*
X0221727Y0378100D01*
X0213327Y0378100D01*
X0209727Y0378500D02*
X0209727Y0376500D01*
X0211727Y0374500D01*
X0222127Y0374500D01*
X0236927Y0389300D01*
X0342527Y0389300D01*
X0367327Y0364500D01*
X0367327Y0312900D01*
X0378127Y0309300D02*
X0378127Y0331300D01*
X0382927Y0336100D01*
X0382927Y0338900D01*
X0383160Y0339103D01*
X0382927Y0309300D02*
X0378127Y0309300D01*
X0319727Y0309300D01*
X0310927Y0318100D01*
X0303327Y0318100D01*
X0303065Y0318229D01*
X0299727Y0308500D02*
X0298927Y0307700D01*
X0298927Y0259300D01*
X0298813Y0258969D01*
X0301727Y0238900D02*
X0289727Y0238900D01*
X0275727Y0252900D01*
X0238527Y0252900D01*
X0226927Y0264500D01*
X0243727Y0258900D02*
X0259727Y0258900D01*
X0280127Y0274900D02*
X0280927Y0274100D01*
X0280127Y0274900D02*
X0280127Y0290100D01*
X0264927Y0305300D01*
X0264927Y0307300D01*
X0264127Y0281700D02*
X0231327Y0281700D01*
X0193327Y0294900D02*
X0173727Y0314500D01*
X0168127Y0314500D01*
X0193327Y0317700D02*
X0161727Y0349300D01*
X0151727Y0349300D01*
X0151428Y0349524D01*
X0149327Y0344500D02*
X0161327Y0344500D01*
X0168927Y0347700D02*
X0194927Y0347700D01*
X0212127Y0344500D02*
X0220927Y0344500D01*
X0235327Y0342900D02*
X0235327Y0349300D01*
X0235349Y0349331D01*
X0235327Y0342900D02*
X0218527Y0326100D01*
X0216527Y0326100D01*
X0216321Y0325938D01*
X0215727Y0326100D01*
X0214127Y0326100D01*
X0210527Y0329700D01*
X0215727Y0364500D02*
X0205727Y0374500D01*
X0199327Y0374500D01*
X0185727Y0388100D01*
X0147327Y0388100D01*
X0143727Y0384500D01*
X0128527Y0384500D01*
X0106527Y0362500D01*
X0023327Y0362500D01*
X0012527Y0333700D02*
X0011829Y0333938D01*
X0011727Y0333700D01*
X0006927Y0328900D01*
X0006927Y0311700D01*
X0011727Y0306900D01*
X0011727Y0304100D01*
X0012026Y0303871D01*
X0011727Y0303300D01*
X0011727Y0300900D01*
X0006927Y0296100D01*
X0006927Y0257700D01*
X0012127Y0252500D01*
X0012380Y0251891D01*
X0012527Y0251700D01*
X0012527Y0250900D01*
X0019327Y0244100D01*
X0019327Y0228500D01*
X0012927Y0222100D01*
X0012557Y0221820D01*
X0012927Y0221300D01*
X0019327Y0214900D01*
X0019327Y0179700D01*
X0013727Y0174100D01*
X0013294Y0173509D01*
X0013327Y0173300D01*
X0019327Y0167300D01*
X0019327Y0140500D01*
X0066527Y0093300D01*
X0066527Y0074500D01*
X0066845Y0074135D01*
X0072127Y0095700D02*
X0041327Y0126500D01*
X0041327Y0146500D01*
X0037727Y0126100D02*
X0113327Y0050500D01*
X0132527Y0039300D02*
X0076127Y0095700D01*
X0072127Y0095700D01*
X0037727Y0126100D02*
X0037727Y0206100D01*
X0044127Y0212500D01*
X0044127Y0214100D01*
X0052927Y0219700D02*
X0071727Y0238500D01*
X0080127Y0238500D01*
X0068127Y0250900D02*
X0060927Y0258100D01*
X0057278Y0275328D02*
X0056927Y0275300D01*
X0045727Y0275300D01*
X0018927Y0302100D01*
X0018927Y0327300D01*
X0012527Y0333700D02*
X0042527Y0333700D01*
X0049327Y0326900D01*
X0066527Y0326900D01*
X0066927Y0326500D01*
X0066927Y0318500D01*
X0066845Y0318229D01*
X0068927Y0312500D02*
X0062527Y0312500D01*
X0056927Y0318100D01*
X0056845Y0318229D01*
X0066927Y0326500D02*
X0100127Y0359700D01*
X0107727Y0359700D01*
X0127327Y0379300D01*
X0141327Y0379300D01*
X0141428Y0379524D01*
X0141428Y0359524D02*
X0141327Y0359300D01*
X0138527Y0359300D01*
X0105327Y0326100D01*
X0082527Y0326100D01*
X0068927Y0312500D01*
X0076127Y0302500D02*
X0051727Y0302500D01*
X0039727Y0290500D01*
X0032527Y0283300D02*
X0032527Y0267300D01*
X0034527Y0265300D01*
X0045727Y0279300D02*
X0022527Y0302500D01*
X0022527Y0308900D01*
X0041327Y0315700D02*
X0041327Y0324900D01*
X0043727Y0327300D01*
X0041327Y0315700D02*
X0050927Y0306100D01*
X0111727Y0306100D01*
X0124127Y0318500D01*
X0127327Y0320500D02*
X0127727Y0320100D01*
X0127727Y0302100D01*
X0134127Y0316900D02*
X0134127Y0329700D01*
X0126927Y0336900D01*
X0126927Y0342100D01*
X0139327Y0354500D01*
X0161727Y0354500D01*
X0149327Y0344500D02*
X0144527Y0339700D01*
X0141727Y0339700D01*
X0141428Y0339524D01*
X0141327Y0349300D02*
X0141428Y0349524D01*
X0141327Y0349300D02*
X0130527Y0338500D01*
X0127327Y0331300D02*
X0127327Y0320500D01*
X0132127Y0282900D02*
X0132127Y0281700D01*
X0139327Y0274500D01*
X0166127Y0274500D01*
X0174527Y0266100D01*
X0188927Y0266100D01*
X0134127Y0212100D02*
X0124927Y0221300D01*
X0134127Y0193700D02*
X0138527Y0193700D01*
X0139327Y0194500D01*
X0148927Y0194500D01*
X0150927Y0192500D01*
X0150927Y0144900D01*
X0147327Y0141300D02*
X0147327Y0190900D01*
X0161428Y0189524D02*
X0161727Y0189300D01*
X0164527Y0189300D01*
X0169327Y0184500D01*
X0173727Y0184500D01*
X0184927Y0173300D01*
X0222127Y0148100D02*
X0222127Y0139300D01*
X0221327Y0138500D01*
X0230527Y0134900D02*
X0230527Y0131300D01*
X0211327Y0112100D01*
X0205727Y0112100D01*
X0199327Y0094900D02*
X0225727Y0068500D01*
X0287327Y0068500D01*
X0292927Y0074100D01*
X0293065Y0074135D01*
X0293327Y0074900D01*
X0293327Y0097300D01*
X0334527Y0138500D01*
X0334527Y0169300D01*
X0337327Y0172100D01*
X0337327Y0203300D01*
X0312527Y0228100D01*
X0295327Y0224500D02*
X0278527Y0224500D01*
X0258127Y0204100D01*
X0258127Y0166100D01*
X0230927Y0138900D01*
X0230927Y0135700D01*
X0230605Y0135001D01*
X0230527Y0134900D01*
X0197327Y0091700D02*
X0238927Y0050100D01*
X0280927Y0050100D01*
X0273327Y0046500D02*
X0238527Y0046500D01*
X0198127Y0086900D01*
X0181727Y0086900D01*
X0182127Y0091700D02*
X0197327Y0091700D01*
X0155270Y0075906D02*
X0154927Y0075700D01*
X0150127Y0075700D01*
X0140527Y0066100D01*
X0132527Y0039300D02*
X0221327Y0039300D01*
X0288813Y0031233D02*
X0288927Y0030900D01*
X0298527Y0021300D01*
X0327327Y0021300D01*
X0374527Y0068500D01*
X0374527Y0092900D01*
X0384127Y0102500D01*
X0384127Y0103300D01*
X0384514Y0103485D01*
X0383514Y0093485D02*
X0383327Y0093300D01*
X0378527Y0088500D01*
X0378527Y0070900D01*
X0383327Y0066100D01*
X0383327Y0063700D01*
X0383424Y0063434D01*
X0329327Y0122500D02*
X0349327Y0142500D01*
X0349327Y0258100D01*
X0336527Y0270900D01*
X0336527Y0272100D01*
X0334527Y0268900D02*
X0332927Y0270500D01*
X0332927Y0273700D01*
X0340127Y0280900D01*
X0371727Y0280900D01*
X0384127Y0293300D01*
X0383117Y0309131D02*
X0382927Y0309300D01*
X0356527Y0295700D02*
X0344527Y0283700D01*
X0338927Y0283700D01*
X0328927Y0273700D01*
X0328927Y0259300D01*
X0328813Y0258969D01*
X0334527Y0256500D02*
X0328927Y0250900D01*
X0328927Y0248100D01*
X0328813Y0247969D01*
X0334527Y0256500D02*
X0334527Y0268900D01*
X0331327Y0205300D02*
X0324527Y0205300D01*
X0318927Y0199700D01*
X0318813Y0199556D01*
X0331327Y0205300D02*
X0334527Y0202100D01*
X0334527Y0186100D01*
X0318927Y0170500D01*
X0318927Y0156500D01*
X0318813Y0156446D01*
X0303327Y0170900D02*
X0288927Y0156500D01*
X0288813Y0156446D01*
X0282927Y0151300D02*
X0288527Y0145700D01*
X0288813Y0145446D01*
X0282927Y0151300D02*
X0282927Y0172100D01*
X0281727Y0206500D02*
X0273727Y0214500D01*
X0227727Y0364500D02*
X0215727Y0364500D01*
X0209727Y0378500D02*
X0203727Y0384500D01*
X0197327Y0384500D01*
X0195727Y0386100D01*
X0193327Y0386100D01*
X0184127Y0384500D02*
X0194127Y0374500D01*
X0104127Y0274900D02*
X0104127Y0274100D01*
X0091727Y0261700D01*
X0013727Y0261700D01*
X0013380Y0261891D01*
X0045727Y0279300D02*
X0047327Y0279300D01*
X0047727Y0278900D01*
X0049727Y0278900D01*
X0056927Y0286100D01*
X0057278Y0286328D01*
X0033327Y0224900D02*
X0033327Y0184500D01*
X0108127Y0134500D02*
X0118127Y0134500D01*
X0118341Y0134154D01*
X0041327Y0046500D02*
X0041327Y0038100D01*
X0041327Y0046500D02*
X0013727Y0074100D01*
X0013550Y0074910D01*
X0013327Y0075300D01*
X0013327Y0077700D01*
X0008527Y0082500D01*
X0008527Y0100100D01*
X0013327Y0104900D01*
X0013424Y0104973D01*
M02*
