G75*
%MOIN*%
%OFA0B0*%
%FSLAX25Y25*%
%IPPOS*%
%LPD*%
%AMOC8*
5,1,8,0,0,1.08239X$1,22.5*
%
%ADD10C,0.01700*%
%ADD11C,0.00600*%
%ADD12C,0.00800*%
%ADD13C,0.00400*%
%ADD14C,0.00500*%
%ADD15R,0.01930X0.05984*%
%ADD16C,0.00300*%
D10*
X0126426Y0037563D02*
X0127577Y0038714D01*
X0127577Y0043318D01*
X0128728Y0042167D02*
X0126426Y0042167D01*
X0132043Y0042167D02*
X0132043Y0037563D01*
X0135496Y0037563D01*
X0136647Y0038714D01*
X0136647Y0042167D01*
X0139962Y0041016D02*
X0139962Y0038714D01*
X0141113Y0037563D01*
X0143415Y0037563D01*
X0144566Y0038714D01*
X0144566Y0041016D01*
X0143415Y0042167D01*
X0141113Y0042167D01*
X0139962Y0041016D01*
X0147712Y0042167D02*
X0151165Y0039865D01*
X0147712Y0037563D01*
X0151165Y0037563D02*
X0151165Y0044469D01*
X0154479Y0041016D02*
X0154479Y0037563D01*
X0157932Y0037563D01*
X0159083Y0038714D01*
X0157932Y0039865D01*
X0154479Y0039865D01*
X0154479Y0041016D02*
X0155630Y0042167D01*
X0157932Y0042167D01*
X0162398Y0041016D02*
X0162398Y0039865D01*
X0167002Y0039865D01*
X0167002Y0038714D02*
X0167002Y0041016D01*
X0165851Y0042167D01*
X0163549Y0042167D01*
X0162398Y0041016D01*
X0163549Y0037563D02*
X0165851Y0037563D01*
X0167002Y0038714D01*
X0170148Y0042167D02*
X0171299Y0042167D01*
X0173601Y0039865D01*
X0173601Y0037563D02*
X0173601Y0042167D01*
X0176916Y0042167D02*
X0178067Y0041016D01*
X0181520Y0041016D01*
X0181520Y0037563D02*
X0181520Y0044469D01*
X0178067Y0044469D01*
X0176916Y0043318D01*
X0176916Y0042167D01*
X0178067Y0041016D02*
X0176916Y0039865D01*
X0176916Y0038714D01*
X0178067Y0037563D01*
X0181520Y0037563D01*
X0192753Y0037563D02*
X0196206Y0037563D01*
X0197357Y0038714D01*
X0197357Y0042167D01*
X0200672Y0042167D02*
X0204125Y0042167D01*
X0205276Y0041016D01*
X0204125Y0039865D01*
X0201823Y0039865D01*
X0200672Y0038714D01*
X0201823Y0037563D01*
X0205276Y0037563D01*
X0208591Y0037563D02*
X0208591Y0041016D01*
X0209742Y0042167D01*
X0213195Y0042167D01*
X0213195Y0037563D01*
X0216510Y0039865D02*
X0216510Y0041016D01*
X0217661Y0042167D01*
X0219963Y0042167D01*
X0221114Y0041016D01*
X0221114Y0038714D01*
X0219963Y0037563D01*
X0217661Y0037563D01*
X0216510Y0039865D02*
X0221114Y0039865D01*
X0224429Y0039865D02*
X0224429Y0041016D01*
X0225579Y0042167D01*
X0227881Y0042167D01*
X0229032Y0041016D01*
X0229032Y0038714D01*
X0227881Y0037563D01*
X0225579Y0037563D01*
X0224429Y0039865D02*
X0229032Y0039865D01*
X0232347Y0044469D02*
X0236951Y0044469D01*
X0234649Y0044469D02*
X0234649Y0037563D01*
X0248185Y0038714D02*
X0248185Y0043318D01*
X0249336Y0044469D01*
X0251638Y0044469D01*
X0252789Y0043318D01*
X0252789Y0038714D01*
X0251638Y0037563D01*
X0249336Y0037563D01*
X0248185Y0038714D01*
X0256104Y0037563D02*
X0256104Y0044469D01*
X0258406Y0042167D01*
X0260707Y0044469D01*
X0260707Y0037563D01*
X0195055Y0035261D02*
X0193904Y0035261D01*
X0192753Y0036412D01*
X0192753Y0042167D01*
D11*
X0188283Y0025251D02*
X0188283Y0024684D01*
X0188283Y0023550D02*
X0188283Y0021281D01*
X0188850Y0021281D02*
X0187716Y0021281D01*
X0186394Y0021281D02*
X0186394Y0023550D01*
X0184693Y0023550D01*
X0184126Y0022983D01*
X0184126Y0021281D01*
X0182711Y0021848D02*
X0182711Y0022983D01*
X0182144Y0023550D01*
X0181010Y0023550D01*
X0180443Y0022983D01*
X0180443Y0022415D01*
X0182711Y0022415D01*
X0182711Y0021848D02*
X0182144Y0021281D01*
X0181010Y0021281D01*
X0179028Y0021848D02*
X0179028Y0022983D01*
X0178461Y0023550D01*
X0176760Y0023550D01*
X0176760Y0024684D02*
X0176760Y0021281D01*
X0178461Y0021281D01*
X0179028Y0021848D01*
X0171662Y0021281D02*
X0170528Y0021281D01*
X0171095Y0021281D02*
X0171095Y0023550D01*
X0171662Y0023550D01*
X0171095Y0024684D02*
X0171095Y0025251D01*
X0169206Y0023550D02*
X0167505Y0023550D01*
X0166938Y0022983D01*
X0166938Y0021281D01*
X0169206Y0021281D02*
X0169206Y0023550D01*
X0161840Y0024684D02*
X0161840Y0021281D01*
X0161840Y0022415D02*
X0160139Y0022415D01*
X0159572Y0022983D01*
X0159572Y0024117D01*
X0160139Y0024684D01*
X0161840Y0024684D01*
X0158157Y0023550D02*
X0157590Y0023550D01*
X0157590Y0021281D01*
X0158157Y0021281D02*
X0157023Y0021281D01*
X0155134Y0021848D02*
X0154567Y0021281D01*
X0155134Y0021848D02*
X0155134Y0024117D01*
X0154567Y0023550D02*
X0155702Y0023550D01*
X0157590Y0024684D02*
X0157590Y0025251D01*
X0153246Y0023550D02*
X0152112Y0023550D01*
X0152679Y0024117D02*
X0152679Y0021848D01*
X0152112Y0021281D01*
X0150791Y0021281D02*
X0149089Y0021281D01*
X0148522Y0021848D01*
X0149089Y0022415D01*
X0150224Y0022415D01*
X0150791Y0022983D01*
X0150224Y0023550D01*
X0148522Y0023550D01*
X0147108Y0023550D02*
X0145406Y0023550D01*
X0144839Y0022983D01*
X0144839Y0021848D01*
X0145406Y0021281D01*
X0147108Y0021281D01*
X0147108Y0024684D01*
X0143424Y0023550D02*
X0143424Y0021848D01*
X0142857Y0021281D01*
X0141156Y0021281D01*
X0141156Y0023550D01*
X0139741Y0023550D02*
X0139741Y0021281D01*
X0139741Y0022415D02*
X0138607Y0023550D01*
X0138040Y0023550D01*
X0136672Y0022983D02*
X0136672Y0021848D01*
X0136105Y0021281D01*
X0134403Y0021281D01*
X0134403Y0020714D02*
X0134403Y0023550D01*
X0136105Y0023550D01*
X0136672Y0022983D01*
X0135538Y0020147D02*
X0134971Y0020147D01*
X0134403Y0020714D01*
X0132989Y0021281D02*
X0132989Y0024684D01*
X0132422Y0023550D02*
X0131287Y0023550D01*
X0130720Y0022983D01*
X0130720Y0021281D01*
X0132989Y0022983D02*
X0132422Y0023550D01*
X0188283Y0023550D02*
X0188850Y0023550D01*
X0190264Y0023550D02*
X0191966Y0023550D01*
X0192533Y0022983D01*
X0192533Y0021848D01*
X0191966Y0021281D01*
X0190264Y0021281D01*
X0190264Y0020714D02*
X0190264Y0023550D01*
X0190264Y0020714D02*
X0190832Y0020147D01*
X0191399Y0020147D01*
X0193948Y0021848D02*
X0194515Y0022415D01*
X0195649Y0022415D01*
X0196216Y0022983D01*
X0195649Y0023550D01*
X0193948Y0023550D01*
X0193948Y0021848D02*
X0194515Y0021281D01*
X0196216Y0021281D01*
X0197631Y0022415D02*
X0199899Y0022415D01*
X0199899Y0021848D02*
X0199899Y0022983D01*
X0199332Y0023550D01*
X0198198Y0023550D01*
X0197631Y0022983D01*
X0197631Y0022415D01*
X0198198Y0021281D02*
X0199332Y0021281D01*
X0199899Y0021848D01*
X0201314Y0021848D02*
X0201314Y0024117D01*
X0201881Y0024684D01*
X0203582Y0024684D01*
X0203582Y0021281D01*
X0201881Y0021281D01*
X0201314Y0021848D01*
X0208587Y0021848D02*
X0209154Y0021848D01*
X0209154Y0021281D01*
X0208587Y0021281D01*
X0208587Y0021848D01*
X0208587Y0021281D02*
X0209721Y0020147D01*
X0211042Y0021281D02*
X0212176Y0021281D01*
X0211609Y0021281D02*
X0211609Y0023550D01*
X0212176Y0023550D01*
X0211609Y0024684D02*
X0211609Y0025251D01*
X0213591Y0022983D02*
X0213591Y0021281D01*
X0213591Y0022983D02*
X0214158Y0023550D01*
X0215860Y0023550D01*
X0215860Y0021281D01*
X0217274Y0022415D02*
X0219543Y0022415D01*
X0219543Y0021848D02*
X0219543Y0022983D01*
X0218976Y0023550D01*
X0217841Y0023550D01*
X0217274Y0022983D01*
X0217274Y0022415D01*
X0217841Y0021281D02*
X0218976Y0021281D01*
X0219543Y0021848D01*
X0220957Y0021281D02*
X0220957Y0022983D01*
X0221524Y0023550D01*
X0222092Y0022983D01*
X0222092Y0021281D01*
X0223226Y0021281D02*
X0223226Y0023550D01*
X0222659Y0023550D01*
X0222092Y0022983D01*
X0224640Y0022983D02*
X0225208Y0023550D01*
X0226342Y0023550D01*
X0226909Y0022983D01*
X0226909Y0021848D01*
X0226342Y0021281D01*
X0225208Y0021281D01*
X0224640Y0021848D01*
X0224640Y0022983D01*
X0228324Y0024684D02*
X0228324Y0021281D01*
X0230592Y0021281D02*
X0230592Y0024684D01*
X0229458Y0023550D01*
X0228324Y0024684D01*
X0236164Y0024684D02*
X0236164Y0025251D01*
X0236164Y0023550D02*
X0236164Y0021281D01*
X0236731Y0021281D02*
X0235596Y0021281D01*
X0236164Y0023550D02*
X0236731Y0023550D01*
X0238619Y0024684D02*
X0238619Y0021281D01*
X0239186Y0021281D02*
X0238052Y0021281D01*
X0240601Y0021281D02*
X0240601Y0023550D01*
X0241735Y0024684D01*
X0242869Y0023550D01*
X0242869Y0021281D01*
X0242869Y0022983D02*
X0240601Y0022983D01*
X0239186Y0024684D02*
X0238619Y0024684D01*
X0247967Y0024684D02*
X0247967Y0024117D01*
X0250236Y0021848D01*
X0250236Y0021281D01*
X0251650Y0021281D02*
X0253919Y0021281D01*
X0252784Y0021281D02*
X0252784Y0024684D01*
X0253919Y0023550D01*
X0255333Y0024117D02*
X0255900Y0024684D01*
X0257035Y0024684D01*
X0257602Y0024117D01*
X0257602Y0021848D01*
X0255333Y0024117D01*
X0255333Y0021848D01*
X0255900Y0021281D01*
X0257035Y0021281D01*
X0257602Y0021848D01*
X0259016Y0021281D02*
X0261285Y0021281D01*
X0259016Y0023550D01*
X0259016Y0024117D01*
X0259584Y0024684D01*
X0260718Y0024684D01*
X0261285Y0024117D01*
X0250236Y0024684D02*
X0247967Y0024684D01*
X0006926Y0064458D02*
X0006359Y0063891D01*
X0005791Y0063891D01*
X0005224Y0064458D01*
X0005224Y0065592D01*
X0004657Y0066159D01*
X0004090Y0066159D01*
X0003523Y0065592D01*
X0003523Y0064458D01*
X0004090Y0063891D01*
X0006926Y0064458D02*
X0006926Y0065592D01*
X0006359Y0066159D01*
X0006926Y0067574D02*
X0003523Y0067574D01*
X0003523Y0069843D01*
X0003523Y0071257D02*
X0006926Y0071257D01*
X0006926Y0072959D01*
X0006359Y0073526D01*
X0005224Y0073526D01*
X0004657Y0072959D01*
X0004657Y0071257D01*
X0004657Y0072391D02*
X0003523Y0073526D01*
X0004657Y0074940D02*
X0003523Y0076075D01*
X0004657Y0077209D01*
X0006926Y0077209D01*
X0006359Y0078623D02*
X0004090Y0078623D01*
X0003523Y0079191D01*
X0003523Y0080325D01*
X0004090Y0080892D01*
X0006359Y0080892D01*
X0006926Y0080325D01*
X0006926Y0079191D01*
X0006359Y0078623D01*
X0006359Y0082307D02*
X0006926Y0082874D01*
X0006926Y0084008D01*
X0006359Y0084575D01*
X0005791Y0084575D01*
X0003523Y0082307D01*
X0003523Y0084575D01*
X0004657Y0074940D02*
X0006926Y0074940D01*
X0006926Y0069843D02*
X0006926Y0067574D01*
X0005224Y0067574D02*
X0005224Y0068708D01*
X0005992Y0094796D02*
X0005425Y0095364D01*
X0005425Y0096498D01*
X0004858Y0097065D01*
X0004291Y0097065D01*
X0003724Y0096498D01*
X0003724Y0095364D01*
X0004291Y0094796D01*
X0005992Y0094796D02*
X0006559Y0094796D01*
X0007127Y0095364D01*
X0007127Y0096498D01*
X0006559Y0097065D01*
X0007127Y0098480D02*
X0003724Y0098480D01*
X0003724Y0100748D01*
X0003724Y0102163D02*
X0007127Y0102163D01*
X0007127Y0103864D01*
X0006559Y0104431D01*
X0005425Y0104431D01*
X0004858Y0103864D01*
X0004858Y0102163D01*
X0004858Y0103297D02*
X0003724Y0104431D01*
X0004858Y0105846D02*
X0003724Y0106980D01*
X0004858Y0108114D01*
X0007127Y0108114D01*
X0006559Y0109529D02*
X0004291Y0109529D01*
X0003724Y0110096D01*
X0003724Y0111230D01*
X0004291Y0111798D01*
X0006559Y0111798D01*
X0007127Y0111230D01*
X0007127Y0110096D01*
X0006559Y0109529D01*
X0005992Y0113212D02*
X0007127Y0114346D01*
X0003724Y0114346D01*
X0003724Y0113212D02*
X0003724Y0115481D01*
X0004858Y0105846D02*
X0007127Y0105846D01*
X0007127Y0100748D02*
X0007127Y0098480D01*
X0005425Y0098480D02*
X0005425Y0099614D01*
X0003267Y0160281D02*
X0002700Y0160848D01*
X0002700Y0161415D01*
X0003267Y0161982D01*
X0006103Y0161982D01*
X0006103Y0161415D02*
X0006103Y0162549D01*
X0005536Y0163964D02*
X0003267Y0163964D01*
X0002700Y0164531D01*
X0002700Y0165665D01*
X0003267Y0166233D01*
X0005536Y0166233D01*
X0006103Y0165665D01*
X0006103Y0164531D01*
X0005536Y0163964D01*
X0005536Y0167647D02*
X0004401Y0168781D01*
X0002700Y0168781D01*
X0004401Y0168781D02*
X0005536Y0169916D01*
X0006103Y0169916D01*
X0004969Y0171330D02*
X0006103Y0172465D01*
X0002700Y0172465D01*
X0002700Y0173599D02*
X0002700Y0171330D01*
X0005536Y0167647D02*
X0006103Y0167647D01*
D12*
X0054030Y0025658D02*
X0059030Y0025658D01*
X0060977Y0016809D02*
X0060977Y0014674D01*
X0062045Y0013607D01*
X0063112Y0014674D01*
X0063112Y0016809D01*
X0063112Y0015208D02*
X0060977Y0015208D01*
X0064660Y0014141D02*
X0064660Y0016276D01*
X0065194Y0016809D01*
X0066262Y0016809D01*
X0066795Y0016276D01*
X0066795Y0014141D02*
X0066262Y0013607D01*
X0065194Y0013607D01*
X0064660Y0014141D01*
X0068343Y0013607D02*
X0070479Y0013607D01*
X0069411Y0013607D02*
X0069411Y0016809D01*
X0072027Y0016276D02*
X0072560Y0016809D01*
X0073628Y0016809D01*
X0074162Y0016276D01*
X0074162Y0013607D01*
X0075710Y0014674D02*
X0075710Y0016809D01*
X0075710Y0015208D02*
X0077845Y0015208D01*
X0077845Y0014674D02*
X0077845Y0016809D01*
X0077845Y0014674D02*
X0076777Y0013607D01*
X0075710Y0014674D01*
X0079393Y0013607D02*
X0081528Y0013607D01*
X0080460Y0013607D02*
X0080460Y0016809D01*
X0083076Y0016276D02*
X0083610Y0016809D01*
X0084677Y0016809D01*
X0085211Y0016276D01*
X0085211Y0014141D01*
X0084677Y0013607D01*
X0083610Y0013607D01*
X0083076Y0014141D01*
X0083076Y0016276D01*
X0086759Y0016809D02*
X0086759Y0013607D01*
X0088361Y0013607D01*
X0088894Y0014141D01*
X0088894Y0015208D01*
X0088361Y0015742D01*
X0086759Y0015742D01*
X0087827Y0015742D02*
X0088894Y0016809D01*
X0090442Y0016276D02*
X0090976Y0016809D01*
X0092044Y0016809D01*
X0092577Y0016276D01*
X0092577Y0015742D01*
X0092044Y0015208D01*
X0090976Y0015208D01*
X0090442Y0014674D01*
X0090442Y0014141D01*
X0090976Y0013607D01*
X0092044Y0013607D01*
X0092577Y0014141D01*
X0072027Y0013607D02*
X0072027Y0016276D01*
X0019050Y0062410D02*
X0016550Y0059910D01*
X0011550Y0059910D01*
X0009050Y0062410D01*
X0009050Y0067410D01*
X0011550Y0069910D01*
X0009050Y0072410D01*
X0009050Y0077410D01*
X0011550Y0079910D01*
X0009050Y0082410D01*
X0009050Y0087410D01*
X0011550Y0089910D01*
X0016550Y0089910D01*
X0019050Y0087410D01*
X0019050Y0082410D01*
X0016550Y0079910D01*
X0019050Y0077410D01*
X0019050Y0072410D01*
X0016550Y0069910D01*
X0019050Y0067410D01*
X0019050Y0062410D01*
X0016424Y0089973D02*
X0011424Y0089973D01*
X0008924Y0092473D01*
X0008924Y0097473D01*
X0011424Y0099973D01*
X0008924Y0102473D01*
X0008924Y0107473D01*
X0011424Y0109973D01*
X0008924Y0112473D01*
X0008924Y0117473D01*
X0011424Y0119973D01*
X0016424Y0119973D01*
X0018924Y0117473D01*
X0018924Y0112473D01*
X0016424Y0109973D01*
X0018924Y0107473D01*
X0018924Y0102473D01*
X0016424Y0099973D01*
X0018924Y0097473D01*
X0018924Y0092473D01*
X0016424Y0089973D01*
X0015294Y0138509D02*
X0010294Y0138509D01*
X0007794Y0141009D01*
X0007794Y0146009D01*
X0010294Y0148509D01*
X0007794Y0151009D01*
X0007794Y0156009D01*
X0010294Y0158509D01*
X0007794Y0161009D01*
X0007794Y0166009D01*
X0010294Y0168509D01*
X0007794Y0171009D01*
X0007794Y0176009D01*
X0010294Y0178509D01*
X0007794Y0181009D01*
X0007794Y0186009D01*
X0010294Y0188509D01*
X0015294Y0188509D01*
X0017794Y0186009D01*
X0017794Y0181009D01*
X0015294Y0178509D01*
X0017794Y0176009D01*
X0017794Y0171009D01*
X0015294Y0168509D01*
X0017794Y0166009D01*
X0017794Y0161009D01*
X0015294Y0158509D01*
X0017794Y0156009D01*
X0017794Y0151009D01*
X0015294Y0148509D01*
X0017794Y0146009D01*
X0017794Y0141009D01*
X0015294Y0138509D01*
X0054030Y0190973D02*
X0059030Y0190973D01*
X0067373Y0181935D02*
X0066839Y0181402D01*
X0067373Y0181935D02*
X0068441Y0181935D01*
X0068975Y0181402D01*
X0068975Y0180868D01*
X0068441Y0180334D01*
X0067373Y0180334D01*
X0066839Y0179800D01*
X0066839Y0179266D01*
X0067373Y0178733D01*
X0068441Y0178733D01*
X0068975Y0179266D01*
X0070523Y0178733D02*
X0072658Y0178733D01*
X0071590Y0178733D02*
X0071590Y0181935D01*
X0074206Y0181935D02*
X0074206Y0178733D01*
X0075807Y0178733D01*
X0076341Y0179266D01*
X0076341Y0180334D01*
X0075807Y0180868D01*
X0074206Y0180868D01*
X0075273Y0180868D02*
X0076341Y0181935D01*
X0077889Y0181935D02*
X0078956Y0181935D01*
X0078423Y0181935D02*
X0078423Y0178733D01*
X0078956Y0178733D02*
X0077889Y0178733D01*
X0080344Y0178733D02*
X0080344Y0181935D01*
X0080344Y0180868D02*
X0081946Y0180868D01*
X0082479Y0180334D01*
X0082479Y0179266D01*
X0081946Y0178733D01*
X0080344Y0178733D01*
X0084027Y0180334D02*
X0085629Y0180334D01*
X0086163Y0180868D01*
X0086163Y0181402D01*
X0085629Y0181935D01*
X0084561Y0181935D01*
X0084027Y0181402D01*
X0084027Y0180334D01*
X0085095Y0179266D01*
X0086163Y0178733D01*
X0018057Y0209320D02*
X0015557Y0206820D01*
X0010557Y0206820D01*
X0008057Y0209320D01*
X0008057Y0214320D01*
X0010557Y0216820D01*
X0008057Y0219320D01*
X0008057Y0224320D01*
X0010557Y0226820D01*
X0008057Y0229320D01*
X0008057Y0234320D01*
X0010557Y0236820D01*
X0015557Y0236820D01*
X0018057Y0234320D01*
X0018057Y0229320D01*
X0015557Y0226820D01*
X0018057Y0224320D01*
X0018057Y0219320D01*
X0015557Y0216820D01*
X0018057Y0214320D01*
X0018057Y0209320D01*
X0015380Y0236891D02*
X0010380Y0236891D01*
X0007880Y0239391D01*
X0007880Y0244391D01*
X0010380Y0246891D01*
X0007880Y0249391D01*
X0007880Y0254391D01*
X0010380Y0256891D01*
X0007880Y0259391D01*
X0007880Y0264391D01*
X0010380Y0266891D01*
X0015380Y0266891D01*
X0017880Y0264391D01*
X0017880Y0259391D01*
X0015380Y0256891D01*
X0017880Y0254391D01*
X0017880Y0249391D01*
X0015380Y0246891D01*
X0017880Y0244391D01*
X0017880Y0239391D01*
X0015380Y0236891D01*
X0054778Y0269753D02*
X0059778Y0269753D01*
X0068617Y0260664D02*
X0068083Y0260130D01*
X0068617Y0260664D02*
X0069685Y0260664D01*
X0070219Y0260130D01*
X0070219Y0259596D01*
X0069685Y0259062D01*
X0068617Y0259062D01*
X0068083Y0258529D01*
X0068083Y0257995D01*
X0068617Y0257461D01*
X0069685Y0257461D01*
X0070219Y0257995D01*
X0071767Y0257461D02*
X0073902Y0257461D01*
X0072834Y0257461D02*
X0072834Y0260664D01*
X0075450Y0260664D02*
X0075450Y0257461D01*
X0077051Y0257461D01*
X0077585Y0257995D01*
X0077585Y0259062D01*
X0077051Y0259596D01*
X0075450Y0259596D01*
X0076517Y0259596D02*
X0077585Y0260664D01*
X0079133Y0260664D02*
X0080200Y0260664D01*
X0079667Y0260664D02*
X0079667Y0257461D01*
X0080200Y0257461D02*
X0079133Y0257461D01*
X0081588Y0257461D02*
X0083190Y0257461D01*
X0083723Y0257995D01*
X0083723Y0259062D01*
X0083190Y0259596D01*
X0081588Y0259596D01*
X0081588Y0260664D02*
X0081588Y0257461D01*
X0085271Y0257461D02*
X0085271Y0259062D01*
X0086339Y0258529D01*
X0086873Y0258529D01*
X0087407Y0259062D01*
X0087407Y0260130D01*
X0086873Y0260664D01*
X0085805Y0260664D01*
X0085271Y0260130D01*
X0085271Y0257461D02*
X0087407Y0257461D01*
X0017526Y0291371D02*
X0015026Y0288871D01*
X0010026Y0288871D01*
X0007526Y0291371D01*
X0007526Y0296371D01*
X0010026Y0298871D01*
X0007526Y0301371D01*
X0007526Y0306371D01*
X0010026Y0308871D01*
X0007526Y0311371D01*
X0007526Y0316371D01*
X0010026Y0318871D01*
X0015026Y0318871D01*
X0017526Y0316371D01*
X0017526Y0311371D01*
X0015026Y0308871D01*
X0017526Y0306371D01*
X0017526Y0301371D01*
X0015026Y0298871D01*
X0017526Y0296371D01*
X0017526Y0291371D01*
X0014829Y0318938D02*
X0009829Y0318938D01*
X0007329Y0321438D01*
X0007329Y0326438D01*
X0009829Y0328938D01*
X0007329Y0331438D01*
X0007329Y0336438D01*
X0009829Y0338938D01*
X0007329Y0341438D01*
X0007329Y0346438D01*
X0009829Y0348938D01*
X0014829Y0348938D01*
X0017329Y0346438D01*
X0017329Y0341438D01*
X0014829Y0338938D01*
X0017329Y0336438D01*
X0017329Y0331438D01*
X0014829Y0328938D01*
X0017329Y0326438D01*
X0017329Y0321438D01*
X0014829Y0318938D01*
X0051900Y0377477D02*
X0049400Y0379977D01*
X0049400Y0384977D01*
X0051900Y0387477D01*
X0056900Y0387477D01*
X0059400Y0384977D01*
X0061900Y0387477D01*
X0066900Y0387477D01*
X0069400Y0384977D01*
X0069400Y0379977D01*
X0066900Y0377477D01*
X0061900Y0377477D01*
X0059400Y0379977D01*
X0056900Y0377477D01*
X0051900Y0377477D01*
X0086609Y0389883D02*
X0086609Y0346969D01*
X0094089Y0346969D01*
X0113774Y0346969D02*
X0122042Y0346969D01*
X0122042Y0351300D01*
X0122042Y0369804D02*
X0122042Y0389883D01*
X0086609Y0389883D01*
X0217632Y0389883D02*
X0217632Y0346969D01*
X0225113Y0346969D01*
X0244798Y0346969D02*
X0253065Y0346969D01*
X0253065Y0351300D01*
X0253065Y0369804D02*
X0253065Y0389883D01*
X0217632Y0389883D01*
X0321077Y0389883D02*
X0321077Y0346969D01*
X0328557Y0346969D01*
X0348243Y0346969D02*
X0356510Y0346969D01*
X0356510Y0351300D01*
X0356510Y0369804D02*
X0356510Y0389883D01*
X0321077Y0389883D01*
X0378660Y0351603D02*
X0378660Y0346603D01*
X0381160Y0344103D01*
X0378660Y0341603D01*
X0378660Y0336603D01*
X0381160Y0334103D01*
X0378660Y0331603D01*
X0378660Y0326603D01*
X0381160Y0324103D01*
X0386160Y0324103D01*
X0388660Y0326603D01*
X0388660Y0331603D01*
X0386160Y0334103D01*
X0388660Y0336603D01*
X0388660Y0341603D01*
X0386160Y0344103D01*
X0388660Y0346603D01*
X0388660Y0351603D01*
X0386160Y0354103D01*
X0381160Y0354103D01*
X0378660Y0351603D01*
X0381117Y0324131D02*
X0386117Y0324131D01*
X0388617Y0321631D01*
X0388617Y0316631D01*
X0386117Y0314131D01*
X0388617Y0311631D01*
X0388617Y0306631D01*
X0386117Y0304131D01*
X0388617Y0301631D01*
X0388617Y0296631D01*
X0386117Y0294131D01*
X0381117Y0294131D01*
X0378617Y0296631D01*
X0378617Y0301631D01*
X0381117Y0304131D01*
X0378617Y0306631D01*
X0378617Y0311631D01*
X0381117Y0314131D01*
X0378617Y0316631D01*
X0378617Y0321631D01*
X0381117Y0324131D01*
X0381180Y0290182D02*
X0386180Y0290182D01*
X0388680Y0287682D01*
X0388680Y0282682D01*
X0386180Y0280182D01*
X0388680Y0277682D01*
X0388680Y0272682D01*
X0386180Y0270182D01*
X0388680Y0267682D01*
X0388680Y0262682D01*
X0386180Y0260182D01*
X0381180Y0260182D01*
X0378680Y0262682D01*
X0378680Y0267682D01*
X0381180Y0270182D01*
X0378680Y0272682D01*
X0378680Y0277682D01*
X0381180Y0280182D01*
X0378680Y0282682D01*
X0378680Y0287682D01*
X0381180Y0290182D01*
X0381282Y0260202D02*
X0386282Y0260202D01*
X0388782Y0257702D01*
X0388782Y0252702D01*
X0386282Y0250202D01*
X0388782Y0247702D01*
X0388782Y0242702D01*
X0386282Y0240202D01*
X0388782Y0237702D01*
X0388782Y0232702D01*
X0386282Y0230202D01*
X0381282Y0230202D01*
X0378782Y0232702D01*
X0378782Y0237702D01*
X0381282Y0240202D01*
X0378782Y0242702D01*
X0378782Y0247702D01*
X0381282Y0250202D01*
X0378782Y0252702D01*
X0378782Y0257702D01*
X0381282Y0260202D01*
X0381353Y0226190D02*
X0386353Y0226190D01*
X0388853Y0223690D01*
X0388853Y0218690D01*
X0386353Y0216190D01*
X0388853Y0213690D01*
X0388853Y0208690D01*
X0386353Y0206190D01*
X0388853Y0203690D01*
X0388853Y0198690D01*
X0386353Y0196190D01*
X0381353Y0196190D01*
X0378853Y0198690D01*
X0378853Y0203690D01*
X0381353Y0206190D01*
X0378853Y0208690D01*
X0378853Y0213690D01*
X0381353Y0216190D01*
X0378853Y0218690D01*
X0378853Y0223690D01*
X0381353Y0226190D01*
X0381431Y0196221D02*
X0386431Y0196221D01*
X0388931Y0193721D01*
X0388931Y0188721D01*
X0386431Y0186221D01*
X0388931Y0183721D01*
X0388931Y0178721D01*
X0386431Y0176221D01*
X0388931Y0173721D01*
X0388931Y0168721D01*
X0386431Y0166221D01*
X0381431Y0166221D01*
X0378931Y0168721D01*
X0378931Y0173721D01*
X0381431Y0176221D01*
X0378931Y0178721D01*
X0378931Y0183721D01*
X0381431Y0186221D01*
X0378931Y0188721D01*
X0378931Y0193721D01*
X0381431Y0196221D01*
X0381369Y0162501D02*
X0386369Y0162501D01*
X0388869Y0160001D01*
X0388869Y0155001D01*
X0386369Y0152501D01*
X0388869Y0150001D01*
X0388869Y0145001D01*
X0386369Y0142501D01*
X0388869Y0140001D01*
X0388869Y0135001D01*
X0386369Y0132501D01*
X0388869Y0130001D01*
X0388869Y0125001D01*
X0386369Y0122501D01*
X0388869Y0120001D01*
X0388869Y0115001D01*
X0386369Y0112501D01*
X0381369Y0112501D01*
X0378869Y0115001D01*
X0378869Y0120001D01*
X0381369Y0122501D01*
X0378869Y0125001D01*
X0378869Y0130001D01*
X0381369Y0132501D01*
X0378869Y0135001D01*
X0378869Y0140001D01*
X0381369Y0142501D01*
X0378869Y0145001D01*
X0378869Y0150001D01*
X0381369Y0152501D01*
X0378869Y0155001D01*
X0378869Y0160001D01*
X0381369Y0162501D01*
X0390725Y0135593D02*
X0390725Y0133458D01*
X0392860Y0135593D01*
X0393394Y0135593D01*
X0393928Y0135059D01*
X0393928Y0133992D01*
X0393394Y0133458D01*
X0393394Y0131910D02*
X0393928Y0131910D01*
X0393394Y0131910D02*
X0392327Y0130842D01*
X0390725Y0130842D01*
X0392327Y0130842D02*
X0393394Y0129775D01*
X0393928Y0129775D01*
X0393394Y0128227D02*
X0393928Y0127693D01*
X0393928Y0126625D01*
X0393394Y0126091D01*
X0391259Y0126091D01*
X0390725Y0126625D01*
X0390725Y0127693D01*
X0391259Y0128227D01*
X0393394Y0128227D01*
X0393928Y0124544D02*
X0393928Y0123476D01*
X0393928Y0124010D02*
X0391259Y0124010D01*
X0390725Y0123476D01*
X0390725Y0122942D01*
X0391259Y0122408D01*
X0386514Y0108485D02*
X0381514Y0108485D01*
X0379014Y0105985D01*
X0379014Y0100985D01*
X0381514Y0098485D01*
X0379014Y0095985D01*
X0379014Y0090985D01*
X0381514Y0088485D01*
X0379014Y0085985D01*
X0379014Y0080985D01*
X0381514Y0078485D01*
X0386514Y0078485D01*
X0389014Y0080985D01*
X0389014Y0085985D01*
X0386514Y0088485D01*
X0389014Y0090985D01*
X0389014Y0095985D01*
X0386514Y0098485D01*
X0389014Y0100985D01*
X0389014Y0105985D01*
X0386514Y0108485D01*
X0386424Y0078434D02*
X0381424Y0078434D01*
X0378924Y0075934D01*
X0378924Y0070934D01*
X0381424Y0068434D01*
X0378924Y0065934D01*
X0378924Y0060934D01*
X0381424Y0058434D01*
X0378924Y0055934D01*
X0378924Y0050934D01*
X0381424Y0048434D01*
X0386424Y0048434D01*
X0388924Y0050934D01*
X0388924Y0055934D01*
X0386424Y0058434D01*
X0388924Y0060934D01*
X0388924Y0065934D01*
X0386424Y0068434D01*
X0388924Y0070934D01*
X0388924Y0075934D01*
X0386424Y0078434D01*
X0318505Y0128361D02*
X0317971Y0127827D01*
X0316904Y0127827D01*
X0316370Y0128361D01*
X0314822Y0128361D02*
X0314822Y0129429D01*
X0314288Y0129962D01*
X0312687Y0129962D01*
X0312687Y0131030D02*
X0312687Y0127827D01*
X0314288Y0127827D01*
X0314822Y0128361D01*
X0316370Y0131030D02*
X0318505Y0128895D01*
X0318505Y0128361D01*
X0318505Y0131030D02*
X0316370Y0131030D01*
X0311299Y0131030D02*
X0310231Y0131030D01*
X0310765Y0131030D02*
X0310765Y0127827D01*
X0310231Y0127827D02*
X0311299Y0127827D01*
X0308683Y0128361D02*
X0308683Y0129429D01*
X0308150Y0129962D01*
X0306548Y0129962D01*
X0307616Y0129962D02*
X0308683Y0131030D01*
X0306548Y0131030D02*
X0306548Y0127827D01*
X0308150Y0127827D01*
X0308683Y0128361D01*
X0305000Y0127827D02*
X0302865Y0127827D01*
X0303933Y0127827D02*
X0303933Y0131030D01*
X0301317Y0130496D02*
X0300783Y0131030D01*
X0299716Y0131030D01*
X0299182Y0130496D01*
X0299716Y0129429D02*
X0300783Y0129429D01*
X0301317Y0129962D01*
X0301317Y0130496D01*
X0299716Y0129429D02*
X0299182Y0128895D01*
X0299182Y0128361D01*
X0299716Y0127827D01*
X0300783Y0127827D01*
X0301317Y0128361D01*
X0291313Y0139871D02*
X0286313Y0139871D01*
X0300621Y0170933D02*
X0300087Y0171467D01*
X0300087Y0172001D01*
X0300621Y0172535D01*
X0301689Y0172535D01*
X0302223Y0173069D01*
X0302223Y0173602D01*
X0301689Y0174136D01*
X0300621Y0174136D01*
X0300087Y0173602D01*
X0300621Y0170933D02*
X0301689Y0170933D01*
X0302223Y0171467D01*
X0303771Y0170933D02*
X0305906Y0170933D01*
X0304838Y0170933D02*
X0304838Y0174136D01*
X0307454Y0174136D02*
X0307454Y0170933D01*
X0309055Y0170933D01*
X0309589Y0171467D01*
X0309589Y0172535D01*
X0309055Y0173069D01*
X0307454Y0173069D01*
X0308521Y0173069D02*
X0309589Y0174136D01*
X0311137Y0174136D02*
X0312204Y0174136D01*
X0311671Y0174136D02*
X0311671Y0170933D01*
X0312204Y0170933D02*
X0311137Y0170933D01*
X0313592Y0170933D02*
X0315194Y0170933D01*
X0315727Y0171467D01*
X0315727Y0172535D01*
X0315194Y0173069D01*
X0313592Y0173069D01*
X0313592Y0174136D02*
X0313592Y0170933D01*
X0317275Y0171467D02*
X0317809Y0170933D01*
X0318877Y0170933D01*
X0319411Y0171467D01*
X0319411Y0172001D01*
X0318877Y0172535D01*
X0319411Y0173069D01*
X0319411Y0173602D01*
X0318877Y0174136D01*
X0317809Y0174136D01*
X0317275Y0173602D01*
X0318343Y0172535D02*
X0318877Y0172535D01*
X0291313Y0182981D02*
X0286313Y0182981D01*
X0243341Y0158465D02*
X0243341Y0140513D01*
X0222869Y0140513D01*
X0222869Y0137757D01*
X0243341Y0137757D01*
X0243341Y0140513D01*
X0243341Y0158465D02*
X0222869Y0158465D01*
X0222869Y0140513D01*
X0299755Y0228981D02*
X0299221Y0229515D01*
X0299221Y0230048D01*
X0299755Y0230582D01*
X0300823Y0230582D01*
X0301356Y0231116D01*
X0301356Y0231650D01*
X0300823Y0232183D01*
X0299755Y0232183D01*
X0299221Y0231650D01*
X0299755Y0228981D02*
X0300823Y0228981D01*
X0301356Y0229515D01*
X0302904Y0228981D02*
X0305040Y0228981D01*
X0303972Y0228981D02*
X0303972Y0232183D01*
X0306588Y0232183D02*
X0306588Y0228981D01*
X0308189Y0228981D01*
X0308723Y0229515D01*
X0308723Y0230582D01*
X0308189Y0231116D01*
X0306588Y0231116D01*
X0307655Y0231116D02*
X0308723Y0232183D01*
X0310271Y0232183D02*
X0311338Y0232183D01*
X0310804Y0232183D02*
X0310804Y0228981D01*
X0310271Y0228981D02*
X0311338Y0228981D01*
X0312726Y0228981D02*
X0314327Y0228981D01*
X0314861Y0229515D01*
X0314861Y0230582D01*
X0314327Y0231116D01*
X0312726Y0231116D01*
X0312726Y0232183D02*
X0312726Y0228981D01*
X0316409Y0230582D02*
X0318544Y0230582D01*
X0318011Y0228981D02*
X0316409Y0230582D01*
X0318011Y0232183D02*
X0318011Y0228981D01*
X0317475Y0235753D02*
X0317475Y0241658D01*
X0300152Y0241658D01*
X0300152Y0235753D01*
X0317475Y0235753D01*
X0348577Y0235753D01*
X0348577Y0270792D01*
X0348577Y0271186D02*
X0269050Y0271186D01*
X0269050Y0235753D01*
X0300152Y0235753D01*
X0326313Y0242544D02*
X0331313Y0242544D01*
X0291313Y0025658D02*
X0286313Y0025658D01*
X0300174Y0016323D02*
X0300708Y0016857D01*
X0301775Y0016857D01*
X0302309Y0016323D01*
X0302309Y0015789D01*
X0301775Y0015255D01*
X0300708Y0015255D01*
X0300174Y0014722D01*
X0300174Y0014188D01*
X0300708Y0013654D01*
X0301775Y0013654D01*
X0302309Y0014188D01*
X0303857Y0013654D02*
X0305992Y0013654D01*
X0304925Y0013654D02*
X0304925Y0016857D01*
X0307540Y0016857D02*
X0307540Y0013654D01*
X0309142Y0013654D01*
X0309675Y0014188D01*
X0309675Y0015255D01*
X0309142Y0015789D01*
X0307540Y0015789D01*
X0308608Y0015789D02*
X0309675Y0016857D01*
X0311223Y0016857D02*
X0312291Y0016857D01*
X0311757Y0016857D02*
X0311757Y0013654D01*
X0311223Y0013654D02*
X0312291Y0013654D01*
X0313679Y0013654D02*
X0315280Y0013654D01*
X0315814Y0014188D01*
X0315814Y0015255D01*
X0315280Y0015789D01*
X0313679Y0015789D01*
X0313679Y0016857D02*
X0313679Y0013654D01*
X0317362Y0014722D02*
X0318430Y0013654D01*
X0318430Y0016857D01*
X0319497Y0016857D02*
X0317362Y0016857D01*
D13*
X0375358Y0050511D02*
X0375358Y0051297D01*
X0375751Y0051690D01*
X0377323Y0051690D01*
X0377716Y0051297D01*
X0377716Y0050511D01*
X0377323Y0050118D01*
X0375751Y0050118D02*
X0375358Y0050511D01*
X0375751Y0052656D02*
X0375358Y0053049D01*
X0375358Y0053835D01*
X0375751Y0054228D01*
X0377323Y0054228D01*
X0377716Y0053835D01*
X0377716Y0053049D01*
X0377323Y0052656D01*
X0376930Y0055193D02*
X0375358Y0055193D01*
X0376930Y0055193D02*
X0377716Y0055979D01*
X0376930Y0056765D01*
X0375358Y0056765D01*
X0375751Y0059839D02*
X0375358Y0060232D01*
X0375358Y0061411D01*
X0377716Y0061411D01*
X0377716Y0060232D01*
X0377323Y0059839D01*
X0375751Y0059839D01*
X0375358Y0062376D02*
X0377716Y0062376D01*
X0375358Y0063948D01*
X0377716Y0063948D01*
X0377323Y0064914D02*
X0377716Y0065307D01*
X0377716Y0066093D01*
X0377323Y0066486D01*
X0375751Y0066486D01*
X0375358Y0066093D01*
X0375358Y0065307D01*
X0375751Y0064914D01*
X0376537Y0064914D02*
X0376537Y0065700D01*
X0376537Y0064914D02*
X0377323Y0064914D01*
X0377834Y0069563D02*
X0377834Y0071135D01*
X0377834Y0070349D02*
X0375476Y0070349D01*
X0376262Y0071135D01*
X0375476Y0072101D02*
X0377834Y0072101D01*
X0375476Y0073673D01*
X0377834Y0073673D01*
X0377834Y0074638D02*
X0376262Y0074638D01*
X0375476Y0075424D01*
X0376262Y0076210D01*
X0377834Y0076210D01*
X0376655Y0076210D02*
X0376655Y0074638D01*
X0377413Y0079677D02*
X0377806Y0080070D01*
X0377806Y0080856D01*
X0377413Y0081249D01*
X0375841Y0081249D01*
X0375448Y0080856D01*
X0375448Y0080070D01*
X0375841Y0079677D01*
X0375841Y0082215D02*
X0375448Y0082608D01*
X0375448Y0083394D01*
X0375841Y0083787D01*
X0377413Y0083787D01*
X0377806Y0083394D01*
X0377806Y0082608D01*
X0377413Y0082215D01*
X0377020Y0084752D02*
X0375448Y0084752D01*
X0377020Y0084752D02*
X0377806Y0085538D01*
X0377020Y0086324D01*
X0375448Y0086324D01*
X0375471Y0089646D02*
X0375078Y0090039D01*
X0375078Y0091218D01*
X0377436Y0091218D01*
X0377436Y0090039D01*
X0377043Y0089646D01*
X0375471Y0089646D01*
X0375078Y0092183D02*
X0377436Y0092183D01*
X0375078Y0093755D01*
X0377436Y0093755D01*
X0377043Y0094721D02*
X0376257Y0094721D01*
X0376257Y0095507D01*
X0375471Y0096293D02*
X0377043Y0096293D01*
X0377436Y0095900D01*
X0377436Y0095114D01*
X0377043Y0094721D01*
X0375471Y0094721D02*
X0375078Y0095114D01*
X0375078Y0095900D01*
X0375471Y0096293D01*
X0375841Y0099858D02*
X0375448Y0100251D01*
X0375448Y0101037D01*
X0375841Y0101430D01*
X0375448Y0102396D02*
X0377806Y0102396D01*
X0375448Y0103968D01*
X0377806Y0103968D01*
X0377806Y0104934D02*
X0376234Y0104934D01*
X0375448Y0105720D01*
X0376234Y0106506D01*
X0377806Y0106506D01*
X0376627Y0106506D02*
X0376627Y0104934D01*
X0377806Y0101430D02*
X0376234Y0099858D01*
X0375841Y0099858D01*
X0377806Y0099858D02*
X0377806Y0101430D01*
X0376508Y0113811D02*
X0376901Y0114204D01*
X0376901Y0114990D01*
X0376508Y0115383D01*
X0374936Y0115383D01*
X0374543Y0114990D01*
X0374543Y0114204D01*
X0374936Y0113811D01*
X0374936Y0116349D02*
X0374543Y0116742D01*
X0374543Y0117528D01*
X0374936Y0117921D01*
X0376508Y0117921D01*
X0376901Y0117528D01*
X0376901Y0116742D01*
X0376508Y0116349D01*
X0376115Y0118886D02*
X0374543Y0118886D01*
X0376115Y0118886D02*
X0376901Y0119672D01*
X0376115Y0120458D01*
X0374543Y0120458D01*
X0374837Y0124587D02*
X0374444Y0124980D01*
X0374444Y0126159D01*
X0376802Y0126159D01*
X0376802Y0124980D01*
X0376409Y0124587D01*
X0374837Y0124587D01*
X0374444Y0127124D02*
X0376802Y0127124D01*
X0374444Y0128696D01*
X0376802Y0128696D01*
X0376409Y0129662D02*
X0375623Y0129662D01*
X0375623Y0130448D01*
X0374837Y0131234D02*
X0376409Y0131234D01*
X0376802Y0130841D01*
X0376802Y0130055D01*
X0376409Y0129662D01*
X0374837Y0129662D02*
X0374444Y0130055D01*
X0374444Y0130841D01*
X0374837Y0131234D01*
X0374318Y0136245D02*
X0376676Y0136245D01*
X0375497Y0136245D02*
X0375497Y0137817D01*
X0376676Y0137817D02*
X0374318Y0137817D01*
X0374334Y0146217D02*
X0375906Y0146217D01*
X0376692Y0147003D01*
X0375906Y0147789D01*
X0374334Y0147789D01*
X0374932Y0156347D02*
X0375325Y0156347D01*
X0375718Y0156740D01*
X0375718Y0157919D01*
X0376897Y0157919D02*
X0376897Y0156740D01*
X0376504Y0156347D01*
X0376111Y0156347D01*
X0375718Y0156740D01*
X0374932Y0156347D02*
X0374539Y0156740D01*
X0374539Y0157919D01*
X0376897Y0157919D01*
X0376587Y0168567D02*
X0376980Y0168960D01*
X0376980Y0169746D01*
X0376587Y0170139D01*
X0375015Y0170139D01*
X0374622Y0169746D01*
X0374622Y0168960D01*
X0375015Y0168567D01*
X0375015Y0171105D02*
X0374622Y0171498D01*
X0374622Y0172284D01*
X0375015Y0172677D01*
X0376587Y0172677D01*
X0376980Y0172284D01*
X0376980Y0171498D01*
X0376587Y0171105D01*
X0376194Y0173642D02*
X0374622Y0173642D01*
X0376194Y0173642D02*
X0376980Y0174428D01*
X0376194Y0175214D01*
X0374622Y0175214D01*
X0374893Y0178351D02*
X0374500Y0178743D01*
X0374500Y0179922D01*
X0376857Y0179922D01*
X0376857Y0178743D01*
X0376465Y0178351D01*
X0374893Y0178351D01*
X0374500Y0180888D02*
X0376857Y0180888D01*
X0374500Y0182460D01*
X0376857Y0182460D01*
X0376465Y0183426D02*
X0375679Y0183426D01*
X0375679Y0184212D01*
X0376465Y0184998D02*
X0376857Y0184605D01*
X0376857Y0183819D01*
X0376465Y0183426D01*
X0376465Y0184998D02*
X0374893Y0184998D01*
X0374500Y0184605D01*
X0374500Y0183819D01*
X0374893Y0183426D01*
X0375054Y0188075D02*
X0375447Y0188075D01*
X0375840Y0188468D01*
X0376233Y0188075D01*
X0376626Y0188075D01*
X0377019Y0188468D01*
X0377019Y0189254D01*
X0376626Y0189647D01*
X0377019Y0190613D02*
X0374661Y0190613D01*
X0375054Y0189647D02*
X0374661Y0189254D01*
X0374661Y0188468D01*
X0375054Y0188075D01*
X0375840Y0188468D02*
X0375840Y0188861D01*
X0377019Y0190613D02*
X0374661Y0192184D01*
X0377019Y0192184D01*
X0377019Y0193150D02*
X0375447Y0193150D01*
X0374661Y0193936D01*
X0375447Y0194722D01*
X0377019Y0194722D01*
X0375840Y0194722D02*
X0375840Y0193150D01*
X0375298Y0196980D02*
X0374905Y0197373D01*
X0374905Y0198159D01*
X0375298Y0198552D01*
X0376870Y0198552D01*
X0377263Y0198159D01*
X0377263Y0197373D01*
X0376870Y0196980D01*
X0376870Y0199518D02*
X0377263Y0199911D01*
X0377263Y0200697D01*
X0376870Y0201090D01*
X0375298Y0201090D01*
X0374905Y0200697D01*
X0374905Y0199911D01*
X0375298Y0199518D01*
X0374905Y0202056D02*
X0376477Y0202056D01*
X0377263Y0202842D01*
X0376477Y0203628D01*
X0374905Y0203628D01*
X0375298Y0207508D02*
X0374905Y0207901D01*
X0374905Y0209080D01*
X0377263Y0209080D01*
X0377263Y0207901D01*
X0376870Y0207508D01*
X0375298Y0207508D01*
X0374905Y0210046D02*
X0377263Y0210046D01*
X0374905Y0211618D01*
X0377263Y0211618D01*
X0376870Y0212583D02*
X0376084Y0212583D01*
X0376084Y0213369D01*
X0375298Y0212583D02*
X0374905Y0212976D01*
X0374905Y0213762D01*
X0375298Y0214155D01*
X0376870Y0214155D01*
X0377263Y0213762D01*
X0377263Y0212976D01*
X0376870Y0212583D01*
X0376084Y0217555D02*
X0376084Y0219127D01*
X0374905Y0217948D01*
X0377263Y0217948D01*
X0377263Y0220093D02*
X0374905Y0220093D01*
X0374905Y0221665D02*
X0377263Y0220093D01*
X0377263Y0221665D02*
X0374905Y0221665D01*
X0375691Y0222630D02*
X0377263Y0222630D01*
X0376084Y0222630D02*
X0376084Y0224202D01*
X0375691Y0224202D02*
X0374905Y0223416D01*
X0375691Y0222630D01*
X0375691Y0224202D02*
X0377263Y0224202D01*
X0376890Y0231591D02*
X0377283Y0231984D01*
X0377283Y0232770D01*
X0376890Y0233163D01*
X0375318Y0233163D01*
X0374925Y0232770D01*
X0374925Y0231984D01*
X0375318Y0231591D01*
X0375318Y0234128D02*
X0374925Y0234521D01*
X0374925Y0235307D01*
X0375318Y0235700D01*
X0376890Y0235700D01*
X0377283Y0235307D01*
X0377283Y0234521D01*
X0376890Y0234128D01*
X0376497Y0236666D02*
X0374925Y0236666D01*
X0376497Y0236666D02*
X0377283Y0237452D01*
X0376497Y0238238D01*
X0374925Y0238238D01*
X0375200Y0241032D02*
X0374807Y0241425D01*
X0374807Y0242604D01*
X0377165Y0242604D01*
X0377165Y0241425D01*
X0376772Y0241032D01*
X0375200Y0241032D01*
X0374807Y0243569D02*
X0377165Y0243569D01*
X0374807Y0245141D01*
X0377165Y0245141D01*
X0376772Y0246107D02*
X0375986Y0246107D01*
X0375986Y0246893D01*
X0376772Y0247679D02*
X0377165Y0247286D01*
X0377165Y0246500D01*
X0376772Y0246107D01*
X0376772Y0247679D02*
X0375200Y0247679D01*
X0374807Y0247286D01*
X0374807Y0246500D01*
X0375200Y0246107D01*
X0374649Y0251819D02*
X0374649Y0253391D01*
X0375828Y0253391D01*
X0375435Y0252605D01*
X0375435Y0252212D01*
X0375828Y0251819D01*
X0376614Y0251819D01*
X0377007Y0252212D01*
X0377007Y0252998D01*
X0376614Y0253391D01*
X0377007Y0254357D02*
X0374649Y0254357D01*
X0374649Y0255929D02*
X0377007Y0254357D01*
X0377007Y0255929D02*
X0374649Y0255929D01*
X0375435Y0256894D02*
X0377007Y0256894D01*
X0375828Y0256894D02*
X0375828Y0258466D01*
X0375435Y0258466D02*
X0374649Y0257680D01*
X0375435Y0256894D01*
X0375435Y0258466D02*
X0377007Y0258466D01*
X0376496Y0261606D02*
X0376889Y0261999D01*
X0376889Y0262785D01*
X0376496Y0263178D01*
X0374924Y0263178D01*
X0374531Y0262785D01*
X0374531Y0261999D01*
X0374924Y0261606D01*
X0374924Y0264144D02*
X0374531Y0264537D01*
X0374531Y0265323D01*
X0374924Y0265716D01*
X0376496Y0265716D01*
X0376889Y0265323D01*
X0376889Y0264537D01*
X0376496Y0264144D01*
X0376103Y0266682D02*
X0374531Y0266682D01*
X0374531Y0268254D02*
X0376103Y0268254D01*
X0376889Y0267468D01*
X0376103Y0266682D01*
X0376500Y0271390D02*
X0374928Y0271390D01*
X0374535Y0271783D01*
X0374535Y0272962D01*
X0376893Y0272962D01*
X0376893Y0271783D01*
X0376500Y0271390D01*
X0376893Y0273927D02*
X0374535Y0273927D01*
X0374535Y0275499D02*
X0376893Y0273927D01*
X0376893Y0275499D02*
X0374535Y0275499D01*
X0374928Y0276465D02*
X0374535Y0276858D01*
X0374535Y0277644D01*
X0374928Y0278037D01*
X0376500Y0278037D01*
X0376893Y0277644D01*
X0376893Y0276858D01*
X0376500Y0276465D01*
X0375714Y0276465D01*
X0375714Y0277251D01*
X0376343Y0281776D02*
X0375950Y0282169D01*
X0375950Y0283348D01*
X0376736Y0283348D01*
X0377129Y0282955D01*
X0377129Y0282169D01*
X0376736Y0281776D01*
X0376343Y0281776D01*
X0375164Y0282562D02*
X0375950Y0283348D01*
X0375164Y0282562D02*
X0374771Y0281776D01*
X0374771Y0284313D02*
X0377129Y0284313D01*
X0374771Y0285885D01*
X0377129Y0285885D01*
X0377129Y0286851D02*
X0375557Y0286851D01*
X0374771Y0287637D01*
X0375557Y0288423D01*
X0377129Y0288423D01*
X0375950Y0288423D02*
X0375950Y0286851D01*
X0376728Y0295425D02*
X0377121Y0295818D01*
X0377121Y0296604D01*
X0376728Y0296997D01*
X0375156Y0296997D01*
X0374763Y0296604D01*
X0374763Y0295818D01*
X0375156Y0295425D01*
X0375156Y0297963D02*
X0374763Y0298356D01*
X0374763Y0299142D01*
X0375156Y0299535D01*
X0376728Y0299535D01*
X0377121Y0299142D01*
X0377121Y0298356D01*
X0376728Y0297963D01*
X0376335Y0300501D02*
X0374763Y0300501D01*
X0374763Y0302072D02*
X0376335Y0302072D01*
X0377121Y0301286D01*
X0376335Y0300501D01*
X0376484Y0304886D02*
X0374912Y0304886D01*
X0374519Y0305279D01*
X0374519Y0306458D01*
X0376877Y0306458D01*
X0376877Y0305279D01*
X0376484Y0304886D01*
X0376877Y0307424D02*
X0374519Y0307424D01*
X0374519Y0308995D02*
X0376877Y0307424D01*
X0376877Y0308995D02*
X0374519Y0308995D01*
X0374912Y0309961D02*
X0374519Y0310354D01*
X0374519Y0311140D01*
X0374912Y0311533D01*
X0376484Y0311533D01*
X0376877Y0311140D01*
X0376877Y0310354D01*
X0376484Y0309961D01*
X0375698Y0309961D01*
X0375698Y0310747D01*
X0375082Y0315469D02*
X0376653Y0317041D01*
X0377046Y0317041D01*
X0377046Y0318006D02*
X0374689Y0318006D01*
X0374689Y0317041D02*
X0374689Y0315469D01*
X0375082Y0315469D01*
X0377046Y0318006D02*
X0374689Y0319578D01*
X0377046Y0319578D01*
X0377046Y0320544D02*
X0375475Y0320544D01*
X0374689Y0321330D01*
X0375475Y0322116D01*
X0377046Y0322116D01*
X0375868Y0322116D02*
X0375868Y0320544D01*
X0375251Y0325173D02*
X0374858Y0325566D01*
X0374858Y0326352D01*
X0375251Y0326745D01*
X0376823Y0326745D01*
X0377216Y0326352D01*
X0377216Y0325566D01*
X0376823Y0325173D01*
X0376823Y0327711D02*
X0377216Y0328104D01*
X0377216Y0328890D01*
X0376823Y0329283D01*
X0375251Y0329283D01*
X0374858Y0328890D01*
X0374858Y0328104D01*
X0375251Y0327711D01*
X0374858Y0330249D02*
X0376430Y0330249D01*
X0377216Y0331035D01*
X0376430Y0331820D01*
X0374858Y0331820D01*
X0375137Y0334772D02*
X0374744Y0335165D01*
X0374744Y0336344D01*
X0377102Y0336344D01*
X0377102Y0335165D01*
X0376709Y0334772D01*
X0375137Y0334772D01*
X0374744Y0337309D02*
X0377102Y0337309D01*
X0374744Y0338881D01*
X0377102Y0338881D01*
X0376709Y0339847D02*
X0375923Y0339847D01*
X0375923Y0340633D01*
X0376709Y0341419D02*
X0377102Y0341026D01*
X0377102Y0340240D01*
X0376709Y0339847D01*
X0376709Y0341419D02*
X0375137Y0341419D01*
X0374744Y0341026D01*
X0374744Y0340240D01*
X0375137Y0339847D01*
X0375223Y0345272D02*
X0375616Y0345272D01*
X0376009Y0345665D01*
X0376009Y0346451D01*
X0375616Y0346844D01*
X0375223Y0346844D01*
X0374830Y0346451D01*
X0374830Y0345665D01*
X0375223Y0345272D01*
X0376009Y0345665D02*
X0376402Y0345272D01*
X0376795Y0345272D01*
X0377188Y0345665D01*
X0377188Y0346451D01*
X0376795Y0346844D01*
X0376402Y0346844D01*
X0376009Y0346451D01*
X0377188Y0347809D02*
X0374830Y0347809D01*
X0374830Y0349381D02*
X0377188Y0347809D01*
X0377188Y0349381D02*
X0374830Y0349381D01*
X0375616Y0350347D02*
X0377188Y0350347D01*
X0376009Y0350347D02*
X0376009Y0351919D01*
X0375616Y0351919D02*
X0374830Y0351133D01*
X0375616Y0350347D01*
X0375616Y0351919D02*
X0377188Y0351919D01*
X0241889Y0146991D02*
X0241103Y0146205D01*
X0241103Y0144633D01*
X0241103Y0145812D02*
X0242675Y0145812D01*
X0242675Y0146205D02*
X0241889Y0146991D01*
X0242675Y0146205D02*
X0242675Y0144633D01*
X0239351Y0144633D02*
X0239351Y0146991D01*
X0240137Y0146991D02*
X0238565Y0146991D01*
X0237599Y0146991D02*
X0236027Y0146991D01*
X0236813Y0146991D02*
X0236813Y0144633D01*
X0235062Y0144633D02*
X0234276Y0144633D01*
X0234669Y0144633D02*
X0234669Y0146991D01*
X0235062Y0146991D02*
X0234276Y0146991D01*
X0233370Y0146991D02*
X0231798Y0144633D01*
X0231798Y0146991D01*
X0230833Y0146991D02*
X0230833Y0146598D01*
X0230047Y0145812D01*
X0230047Y0144633D01*
X0230047Y0145812D02*
X0229261Y0146598D01*
X0229261Y0146991D01*
X0228295Y0146598D02*
X0227902Y0146991D01*
X0227116Y0146991D01*
X0226723Y0146598D01*
X0226723Y0146205D01*
X0227116Y0145812D01*
X0227902Y0145812D01*
X0228295Y0146205D01*
X0228295Y0146598D01*
X0227902Y0145812D02*
X0228295Y0145419D01*
X0228295Y0145026D01*
X0227902Y0144633D01*
X0227116Y0144633D01*
X0226723Y0145026D01*
X0226723Y0145419D01*
X0227116Y0145812D01*
X0225757Y0145812D02*
X0225757Y0146991D01*
X0224185Y0146991D01*
X0224578Y0146205D02*
X0224185Y0145812D01*
X0224185Y0145026D01*
X0224578Y0144633D01*
X0225364Y0144633D01*
X0225757Y0145026D01*
X0225757Y0145812D02*
X0224971Y0146205D01*
X0224578Y0146205D01*
X0233370Y0146991D02*
X0233370Y0144633D01*
X0171231Y0240987D02*
X0171231Y0244056D01*
X0171231Y0242522D02*
X0166628Y0242522D01*
X0167395Y0245591D02*
X0166628Y0246358D01*
X0166628Y0247893D01*
X0168162Y0248660D02*
X0168162Y0245591D01*
X0167395Y0245591D02*
X0168930Y0245591D01*
X0169697Y0246358D01*
X0169697Y0247893D01*
X0168930Y0248660D01*
X0168162Y0248660D01*
X0168162Y0250195D02*
X0168162Y0253264D01*
X0168930Y0253264D01*
X0169697Y0252497D01*
X0169697Y0250962D01*
X0168930Y0250195D01*
X0167395Y0250195D01*
X0166628Y0250962D01*
X0166628Y0252497D01*
X0166628Y0254799D02*
X0169697Y0254799D01*
X0169697Y0257101D01*
X0168930Y0257868D01*
X0166628Y0257868D01*
X0166628Y0259403D02*
X0166628Y0261705D01*
X0167395Y0262472D01*
X0168162Y0261705D01*
X0168162Y0260170D01*
X0168930Y0259403D01*
X0169697Y0260170D01*
X0169697Y0262472D01*
X0169697Y0264007D02*
X0167395Y0264007D01*
X0166628Y0264774D01*
X0166628Y0267076D01*
X0165860Y0267076D02*
X0165093Y0266309D01*
X0165093Y0265541D01*
X0165860Y0267076D02*
X0169697Y0267076D01*
X0170464Y0273215D02*
X0171231Y0273982D01*
X0171231Y0275516D01*
X0170464Y0276284D01*
X0169697Y0276284D01*
X0168930Y0275516D01*
X0168162Y0276284D01*
X0167395Y0276284D01*
X0166628Y0275516D01*
X0166628Y0273982D01*
X0167395Y0273215D01*
X0168930Y0274749D02*
X0168930Y0275516D01*
X0167395Y0277818D02*
X0166628Y0277818D01*
X0166628Y0278586D01*
X0167395Y0278586D01*
X0167395Y0277818D01*
X0167395Y0280120D02*
X0166628Y0280888D01*
X0166628Y0282422D01*
X0167395Y0283190D01*
X0168162Y0283190D01*
X0168930Y0282422D01*
X0168930Y0280120D01*
X0167395Y0280120D01*
X0168930Y0280120D02*
X0170464Y0281655D01*
X0171231Y0283190D01*
X0107605Y0184226D02*
X0107605Y0178087D01*
X0108372Y0178854D02*
X0106837Y0178854D01*
X0106070Y0179622D01*
X0106070Y0180389D01*
X0106837Y0181156D01*
X0108372Y0181156D01*
X0109139Y0181924D01*
X0109139Y0182691D01*
X0108372Y0183458D01*
X0106837Y0183458D01*
X0106070Y0182691D01*
X0104535Y0182691D02*
X0103768Y0183458D01*
X0102234Y0183458D01*
X0101466Y0182691D01*
X0101466Y0181924D01*
X0104535Y0178854D01*
X0101466Y0178854D01*
X0101480Y0171820D02*
X0102247Y0171052D01*
X0102247Y0169518D01*
X0101480Y0168750D01*
X0101480Y0167216D02*
X0100713Y0167216D01*
X0099945Y0166448D01*
X0099945Y0164914D01*
X0100713Y0164146D01*
X0101480Y0164146D01*
X0102247Y0164914D01*
X0102247Y0166448D01*
X0101480Y0167216D01*
X0099945Y0166448D02*
X0099178Y0167216D01*
X0098411Y0167216D01*
X0097643Y0166448D01*
X0097643Y0164914D01*
X0098411Y0164146D01*
X0099178Y0164146D01*
X0099945Y0164914D01*
X0099945Y0162612D02*
X0099945Y0160310D01*
X0100713Y0159543D01*
X0101480Y0159543D01*
X0102247Y0160310D01*
X0102247Y0161844D01*
X0101480Y0162612D01*
X0098411Y0162612D01*
X0097643Y0161844D01*
X0097643Y0160310D01*
X0098411Y0159543D01*
X0097643Y0158008D02*
X0097643Y0154939D01*
X0100713Y0158008D01*
X0101480Y0158008D01*
X0102247Y0157241D01*
X0102247Y0155706D01*
X0101480Y0154939D01*
X0100713Y0153404D02*
X0097643Y0153404D01*
X0099945Y0153404D02*
X0099945Y0150335D01*
X0100713Y0150335D02*
X0102247Y0151869D01*
X0100713Y0153404D01*
X0100713Y0150335D02*
X0097643Y0150335D01*
X0097643Y0168750D02*
X0100713Y0171820D01*
X0101480Y0171820D01*
X0097643Y0171820D02*
X0097643Y0168750D01*
X0108372Y0178854D02*
X0109139Y0179622D01*
X0110674Y0179622D02*
X0110674Y0183458D01*
X0113743Y0183458D02*
X0113743Y0179622D01*
X0112976Y0178854D01*
X0111441Y0178854D01*
X0110674Y0179622D01*
X0022304Y0177098D02*
X0022304Y0175919D01*
X0019946Y0175919D01*
X0019946Y0177098D01*
X0020339Y0177491D01*
X0021911Y0177491D01*
X0022304Y0177098D01*
X0022304Y0174953D02*
X0019946Y0174953D01*
X0022304Y0173381D01*
X0019946Y0173381D01*
X0020339Y0172416D02*
X0021125Y0172416D01*
X0021125Y0171630D01*
X0020339Y0172416D02*
X0019946Y0172023D01*
X0019946Y0171237D01*
X0020339Y0170844D01*
X0021911Y0170844D01*
X0022304Y0171237D01*
X0022304Y0172023D01*
X0021911Y0172416D01*
X0021523Y0164763D02*
X0021523Y0163191D01*
X0020344Y0163191D02*
X0022702Y0163191D01*
X0022702Y0164763D02*
X0020344Y0164763D01*
X0020866Y0154523D02*
X0022438Y0154523D01*
X0020866Y0154523D02*
X0020080Y0153737D01*
X0020866Y0152951D01*
X0022438Y0152951D01*
X0021652Y0144286D02*
X0021259Y0144286D01*
X0020866Y0143893D01*
X0020866Y0142714D01*
X0022045Y0142714D02*
X0022045Y0143893D01*
X0021652Y0144286D01*
X0020866Y0143893D02*
X0020473Y0144286D01*
X0020080Y0144286D01*
X0019687Y0143893D01*
X0019687Y0142714D01*
X0022045Y0142714D01*
X0021900Y0119084D02*
X0022293Y0118691D01*
X0022293Y0117905D01*
X0022686Y0117512D01*
X0023079Y0117512D01*
X0023472Y0117905D01*
X0023472Y0118691D01*
X0023079Y0119084D01*
X0021900Y0119084D02*
X0021507Y0119084D01*
X0021114Y0118691D01*
X0021114Y0117905D01*
X0021507Y0117512D01*
X0021114Y0116547D02*
X0021114Y0115761D01*
X0021114Y0116154D02*
X0023472Y0116154D01*
X0023472Y0116547D02*
X0023472Y0115761D01*
X0023079Y0114855D02*
X0023472Y0114462D01*
X0023472Y0113676D01*
X0023079Y0113283D01*
X0022293Y0113283D01*
X0022293Y0114069D01*
X0021507Y0114855D02*
X0023079Y0114855D01*
X0021507Y0114855D02*
X0021114Y0114462D01*
X0021114Y0113676D01*
X0021507Y0113283D01*
X0022104Y0109525D02*
X0022104Y0107953D01*
X0022104Y0106988D02*
X0021711Y0106202D01*
X0021711Y0105809D01*
X0022104Y0105416D01*
X0022890Y0105416D01*
X0023283Y0105809D01*
X0023283Y0106595D01*
X0022890Y0106988D01*
X0022104Y0106988D02*
X0020925Y0106988D01*
X0020925Y0105416D01*
X0020925Y0104450D02*
X0022497Y0104450D01*
X0023283Y0103664D01*
X0022497Y0102878D01*
X0020925Y0102878D01*
X0020967Y0098348D02*
X0022539Y0098348D01*
X0022932Y0097955D01*
X0022932Y0097169D01*
X0022539Y0096776D01*
X0021753Y0096776D01*
X0021753Y0097562D01*
X0020967Y0096776D02*
X0020574Y0097169D01*
X0020574Y0097955D01*
X0020967Y0098348D01*
X0020574Y0095810D02*
X0022932Y0094238D01*
X0020574Y0094238D01*
X0020574Y0093273D02*
X0020574Y0092094D01*
X0020967Y0091701D01*
X0022539Y0091701D01*
X0022932Y0092094D01*
X0022932Y0093273D01*
X0020574Y0093273D01*
X0020574Y0095810D02*
X0022932Y0095810D01*
X0023268Y0088411D02*
X0023661Y0088018D01*
X0023661Y0087232D01*
X0023268Y0086839D01*
X0022875Y0086839D01*
X0022482Y0087232D01*
X0022482Y0088018D01*
X0022089Y0088411D01*
X0021696Y0088411D01*
X0021303Y0088018D01*
X0021303Y0087232D01*
X0021696Y0086839D01*
X0021303Y0085873D02*
X0021303Y0085087D01*
X0021303Y0085480D02*
X0023661Y0085480D01*
X0023661Y0085873D02*
X0023661Y0085087D01*
X0023268Y0084182D02*
X0023661Y0083789D01*
X0023661Y0083003D01*
X0023268Y0082610D01*
X0022482Y0082610D01*
X0022482Y0083396D01*
X0021696Y0084182D02*
X0023268Y0084182D01*
X0021696Y0084182D02*
X0021303Y0083789D01*
X0021303Y0083003D01*
X0021696Y0082610D01*
X0022371Y0079502D02*
X0022371Y0077930D01*
X0022371Y0076964D02*
X0021978Y0076178D01*
X0021978Y0075785D01*
X0022371Y0075392D01*
X0023157Y0075392D01*
X0023550Y0075785D01*
X0023550Y0076571D01*
X0023157Y0076964D01*
X0022371Y0076964D02*
X0021192Y0076964D01*
X0021192Y0075392D01*
X0021192Y0074426D02*
X0022764Y0074426D01*
X0023550Y0073640D01*
X0022764Y0072854D01*
X0021192Y0072854D01*
X0021763Y0068084D02*
X0023335Y0068084D01*
X0023728Y0067691D01*
X0023728Y0066905D01*
X0023335Y0066512D01*
X0022549Y0066512D01*
X0022549Y0067298D01*
X0021763Y0066512D02*
X0021370Y0066905D01*
X0021370Y0067691D01*
X0021763Y0068084D01*
X0021370Y0065547D02*
X0023728Y0063975D01*
X0021370Y0063975D01*
X0021370Y0063009D02*
X0021370Y0061830D01*
X0021763Y0061437D01*
X0023335Y0061437D01*
X0023728Y0061830D01*
X0023728Y0063009D01*
X0021370Y0063009D01*
X0021370Y0065547D02*
X0023728Y0065547D01*
X0023157Y0078716D02*
X0021585Y0078716D01*
X0021318Y0108739D02*
X0022890Y0108739D01*
X0022174Y0180954D02*
X0020602Y0180954D01*
X0019817Y0181740D01*
X0020602Y0182526D01*
X0022174Y0182526D01*
X0021781Y0183492D02*
X0020210Y0183492D01*
X0019817Y0183885D01*
X0019817Y0184671D01*
X0020210Y0185064D01*
X0020210Y0186029D02*
X0019817Y0186422D01*
X0019817Y0187208D01*
X0020210Y0187601D01*
X0021781Y0187601D02*
X0022174Y0187208D01*
X0022174Y0186422D01*
X0021781Y0186029D01*
X0020210Y0186029D01*
X0021781Y0185064D02*
X0022174Y0184671D01*
X0022174Y0183885D01*
X0021781Y0183492D01*
X0022135Y0207276D02*
X0020563Y0207276D01*
X0019777Y0208062D01*
X0020563Y0208848D01*
X0022135Y0208848D01*
X0021742Y0209813D02*
X0020170Y0209813D01*
X0019777Y0210206D01*
X0019777Y0210992D01*
X0020170Y0211385D01*
X0020170Y0212351D02*
X0019777Y0212744D01*
X0019777Y0213530D01*
X0020170Y0213923D01*
X0021742Y0213923D02*
X0022135Y0213530D01*
X0022135Y0212744D01*
X0021742Y0212351D01*
X0020170Y0212351D01*
X0021742Y0211385D02*
X0022135Y0210992D01*
X0022135Y0210206D01*
X0021742Y0209813D01*
X0021529Y0218374D02*
X0019958Y0218374D01*
X0019565Y0218767D01*
X0019565Y0219553D01*
X0019958Y0219946D01*
X0020744Y0219946D01*
X0020744Y0219160D01*
X0021529Y0219946D02*
X0021922Y0219553D01*
X0021922Y0218767D01*
X0021529Y0218374D01*
X0021922Y0220912D02*
X0019565Y0222484D01*
X0021922Y0222484D01*
X0021922Y0223449D02*
X0021922Y0224628D01*
X0021529Y0225021D01*
X0019958Y0225021D01*
X0019565Y0224628D01*
X0019565Y0223449D01*
X0021922Y0223449D01*
X0021922Y0220912D02*
X0019565Y0220912D01*
X0019757Y0228713D02*
X0021329Y0228713D01*
X0022115Y0229499D01*
X0021329Y0230285D01*
X0019757Y0230285D01*
X0019757Y0231250D02*
X0022115Y0231250D01*
X0019757Y0232822D01*
X0022115Y0232822D01*
X0021329Y0233788D02*
X0022115Y0234574D01*
X0019757Y0234574D01*
X0019757Y0233788D02*
X0019757Y0235360D01*
X0019757Y0236325D02*
X0021329Y0237897D01*
X0021722Y0237897D01*
X0022115Y0237504D01*
X0022115Y0236718D01*
X0021722Y0236325D01*
X0021482Y0237591D02*
X0019910Y0237591D01*
X0019124Y0238377D01*
X0019910Y0239162D01*
X0021482Y0239162D01*
X0021089Y0240128D02*
X0019517Y0240128D01*
X0019124Y0240521D01*
X0019124Y0241307D01*
X0019517Y0241700D01*
X0019517Y0242666D02*
X0019124Y0243059D01*
X0019124Y0243845D01*
X0019517Y0244238D01*
X0021089Y0244238D02*
X0021482Y0243845D01*
X0021482Y0243059D01*
X0021089Y0242666D01*
X0019517Y0242666D01*
X0021089Y0241700D02*
X0021482Y0241307D01*
X0021482Y0240521D01*
X0021089Y0240128D01*
X0019757Y0237897D02*
X0019757Y0236325D01*
X0020936Y0230285D02*
X0020936Y0228713D01*
X0020994Y0248953D02*
X0019422Y0248953D01*
X0019029Y0249346D01*
X0019029Y0250132D01*
X0019422Y0250525D01*
X0020208Y0250525D01*
X0020208Y0249739D01*
X0020994Y0250525D02*
X0021387Y0250132D01*
X0021387Y0249346D01*
X0020994Y0248953D01*
X0021387Y0251490D02*
X0019029Y0253062D01*
X0021387Y0253062D01*
X0021387Y0254028D02*
X0021387Y0255207D01*
X0020994Y0255600D01*
X0019422Y0255600D01*
X0019029Y0255207D01*
X0019029Y0254028D01*
X0021387Y0254028D01*
X0021387Y0251490D02*
X0019029Y0251490D01*
X0019120Y0258642D02*
X0020692Y0258642D01*
X0021478Y0259428D01*
X0020692Y0260214D01*
X0019120Y0260214D01*
X0019120Y0261179D02*
X0021478Y0261179D01*
X0019120Y0262751D01*
X0021478Y0262751D01*
X0020692Y0263717D02*
X0021478Y0264503D01*
X0019120Y0264503D01*
X0019120Y0263717D02*
X0019120Y0265289D01*
X0019120Y0266255D02*
X0019120Y0267826D01*
X0019120Y0267040D02*
X0021478Y0267040D01*
X0020692Y0266255D01*
X0020299Y0260214D02*
X0020299Y0258642D01*
X0019681Y0289846D02*
X0018895Y0290632D01*
X0019681Y0291418D01*
X0021253Y0291418D01*
X0020860Y0292384D02*
X0019288Y0292384D01*
X0018895Y0292777D01*
X0018895Y0293563D01*
X0019288Y0293956D01*
X0019288Y0294922D02*
X0018895Y0295315D01*
X0018895Y0296101D01*
X0019288Y0296494D01*
X0020860Y0296494D02*
X0021253Y0296101D01*
X0021253Y0295315D01*
X0020860Y0294922D01*
X0019288Y0294922D01*
X0020860Y0293956D02*
X0021253Y0293563D01*
X0021253Y0292777D01*
X0020860Y0292384D01*
X0021253Y0289846D02*
X0019681Y0289846D01*
X0019229Y0300150D02*
X0018836Y0300543D01*
X0018836Y0301329D01*
X0019229Y0301722D01*
X0020015Y0301722D01*
X0020015Y0300936D01*
X0020801Y0301722D02*
X0021194Y0301329D01*
X0021194Y0300543D01*
X0020801Y0300150D01*
X0019229Y0300150D01*
X0018836Y0302687D02*
X0021194Y0302687D01*
X0018836Y0304259D01*
X0021194Y0304259D01*
X0021194Y0305225D02*
X0021194Y0306404D01*
X0020801Y0306797D01*
X0019229Y0306797D01*
X0018836Y0306404D01*
X0018836Y0305225D01*
X0021194Y0305225D01*
X0020601Y0309850D02*
X0019029Y0309850D01*
X0020208Y0309850D02*
X0020208Y0311422D01*
X0020601Y0311422D02*
X0019029Y0311422D01*
X0019029Y0312388D02*
X0021387Y0312388D01*
X0019029Y0313960D01*
X0021387Y0313960D01*
X0020601Y0314926D02*
X0021387Y0315712D01*
X0019029Y0315712D01*
X0019029Y0314926D02*
X0019029Y0316498D01*
X0019422Y0317463D02*
X0020994Y0319035D01*
X0019422Y0319035D01*
X0019029Y0318642D01*
X0019029Y0317856D01*
X0019422Y0317463D01*
X0020994Y0317463D01*
X0021387Y0317856D01*
X0021387Y0318642D01*
X0020994Y0319035D01*
X0021178Y0320437D02*
X0019606Y0320437D01*
X0018820Y0321223D01*
X0019606Y0322009D01*
X0021178Y0322009D01*
X0020785Y0322975D02*
X0019213Y0322975D01*
X0018820Y0323368D01*
X0018820Y0324154D01*
X0019213Y0324547D01*
X0019213Y0325512D02*
X0018820Y0325905D01*
X0018820Y0326691D01*
X0019213Y0327084D01*
X0019213Y0325512D02*
X0020785Y0325512D01*
X0021178Y0325905D01*
X0021178Y0326691D01*
X0020785Y0327084D01*
X0020785Y0324547D02*
X0021178Y0324154D01*
X0021178Y0323368D01*
X0020785Y0322975D01*
X0021211Y0330406D02*
X0019639Y0330406D01*
X0019246Y0330798D01*
X0019246Y0331584D01*
X0019639Y0331977D01*
X0020425Y0331977D01*
X0020425Y0331191D01*
X0021211Y0330406D02*
X0021604Y0330798D01*
X0021604Y0331584D01*
X0021211Y0331977D01*
X0021604Y0332943D02*
X0019246Y0334515D01*
X0021604Y0334515D01*
X0021604Y0335481D02*
X0021604Y0336660D01*
X0021211Y0337053D01*
X0019639Y0337053D01*
X0019246Y0336660D01*
X0019246Y0335481D01*
X0021604Y0335481D01*
X0021604Y0332943D02*
X0019246Y0332943D01*
X0019191Y0340705D02*
X0020762Y0340705D01*
X0021548Y0341491D01*
X0020762Y0342277D01*
X0019191Y0342277D01*
X0019191Y0343242D02*
X0021548Y0343242D01*
X0019191Y0344814D01*
X0021548Y0344814D01*
X0021155Y0345780D02*
X0020762Y0345780D01*
X0020370Y0346173D01*
X0020370Y0347352D01*
X0021155Y0347352D02*
X0021548Y0346959D01*
X0021548Y0346173D01*
X0021155Y0345780D01*
X0019584Y0345780D02*
X0019191Y0346173D01*
X0019191Y0346959D01*
X0019584Y0347352D01*
X0021155Y0347352D01*
X0020370Y0342277D02*
X0020370Y0340705D01*
X0020601Y0311422D02*
X0021387Y0310636D01*
X0020601Y0309850D01*
D14*
X0005815Y0310126D02*
X0005364Y0309675D01*
X0003563Y0309675D01*
X0005364Y0311477D01*
X0003563Y0311477D01*
X0003112Y0311026D01*
X0003112Y0310126D01*
X0003563Y0309675D01*
X0003112Y0308530D02*
X0003112Y0306729D01*
X0003112Y0307629D02*
X0005815Y0307629D01*
X0004914Y0306729D01*
X0004914Y0305584D02*
X0003112Y0305584D01*
X0004463Y0305584D02*
X0004463Y0303782D01*
X0004914Y0303782D02*
X0005815Y0304683D01*
X0004914Y0305584D01*
X0004914Y0303782D02*
X0003112Y0303782D01*
X0003563Y0302637D02*
X0003112Y0302187D01*
X0003112Y0301286D01*
X0003563Y0300836D01*
X0004463Y0300836D02*
X0004914Y0301736D01*
X0004914Y0302187D01*
X0004463Y0302637D01*
X0003563Y0302637D01*
X0004463Y0300836D02*
X0005815Y0300836D01*
X0005815Y0302637D01*
X0005364Y0299691D02*
X0005815Y0299240D01*
X0005815Y0298339D01*
X0005364Y0297889D01*
X0004914Y0297889D01*
X0004463Y0298339D01*
X0004463Y0299240D01*
X0004013Y0299691D01*
X0003563Y0299691D01*
X0003112Y0299240D01*
X0003112Y0298339D01*
X0003563Y0297889D01*
X0005815Y0310126D02*
X0005815Y0311026D01*
X0005364Y0311477D01*
X0005285Y0329123D02*
X0004835Y0329123D01*
X0004385Y0329573D01*
X0004385Y0330474D01*
X0003934Y0330925D01*
X0003484Y0330925D01*
X0003033Y0330474D01*
X0003033Y0329573D01*
X0003484Y0329123D01*
X0005285Y0329123D02*
X0005736Y0329573D01*
X0005736Y0330474D01*
X0005285Y0330925D01*
X0005736Y0332070D02*
X0004385Y0332070D01*
X0004835Y0332970D01*
X0004835Y0333421D01*
X0004385Y0333871D01*
X0003484Y0333871D01*
X0003033Y0333421D01*
X0003033Y0332520D01*
X0003484Y0332070D01*
X0005736Y0332070D02*
X0005736Y0333871D01*
X0004835Y0335016D02*
X0003033Y0335016D01*
X0004385Y0335016D02*
X0004385Y0336818D01*
X0004835Y0336818D02*
X0003033Y0336818D01*
X0003484Y0337963D02*
X0003033Y0338413D01*
X0003033Y0339314D01*
X0003484Y0339764D01*
X0005285Y0339764D01*
X0005736Y0339314D01*
X0005736Y0338413D01*
X0005285Y0337963D01*
X0004835Y0337963D01*
X0004385Y0338413D01*
X0004385Y0339764D01*
X0004835Y0336818D02*
X0005736Y0335917D01*
X0004835Y0335016D01*
X0050528Y0374050D02*
X0050528Y0374500D01*
X0050978Y0374951D01*
X0051879Y0374951D01*
X0052329Y0375401D01*
X0052329Y0375852D01*
X0051879Y0376302D01*
X0050978Y0376302D01*
X0050528Y0375852D01*
X0050528Y0374050D02*
X0050978Y0373600D01*
X0051879Y0373600D01*
X0052329Y0374050D01*
X0053474Y0373600D02*
X0054375Y0373600D01*
X0053925Y0373600D02*
X0053925Y0376302D01*
X0054375Y0376302D02*
X0053474Y0376302D01*
X0055439Y0375852D02*
X0055889Y0376302D01*
X0056790Y0376302D01*
X0057240Y0375852D01*
X0057240Y0374951D01*
X0056340Y0374951D01*
X0057240Y0374050D02*
X0056790Y0373600D01*
X0055889Y0373600D01*
X0055439Y0374050D01*
X0055439Y0375852D01*
X0060670Y0375883D02*
X0060670Y0374082D01*
X0061120Y0373631D01*
X0062021Y0373631D01*
X0062471Y0374082D01*
X0062471Y0374982D02*
X0061570Y0374982D01*
X0062471Y0374982D02*
X0062471Y0375883D01*
X0062021Y0376333D01*
X0061120Y0376333D01*
X0060670Y0375883D01*
X0063616Y0376333D02*
X0063616Y0373631D01*
X0065418Y0376333D01*
X0065418Y0373631D01*
X0066563Y0373631D02*
X0067914Y0373631D01*
X0068364Y0374082D01*
X0068364Y0375883D01*
X0067914Y0376333D01*
X0066563Y0376333D01*
X0066563Y0373631D01*
X0071098Y0379936D02*
X0070781Y0380253D01*
X0070781Y0380570D01*
X0071098Y0380887D01*
X0072683Y0380887D01*
X0072683Y0380570D02*
X0072683Y0381204D01*
X0072049Y0382146D02*
X0072683Y0382780D01*
X0070781Y0382780D01*
X0070781Y0382146D02*
X0070781Y0383414D01*
X0070781Y0384356D02*
X0072049Y0385624D01*
X0072366Y0385624D01*
X0072683Y0385307D01*
X0072683Y0384673D01*
X0072366Y0384356D01*
X0070781Y0384356D02*
X0070781Y0385624D01*
X0071011Y0389412D02*
X0071328Y0389729D01*
X0071328Y0390680D01*
X0070060Y0390680D02*
X0070060Y0389412D01*
X0071011Y0389412D01*
X0069118Y0389412D02*
X0069118Y0390363D01*
X0068801Y0390680D01*
X0068484Y0390363D01*
X0068167Y0390680D01*
X0067850Y0390363D01*
X0067850Y0389412D01*
X0066908Y0389729D02*
X0066591Y0389412D01*
X0065957Y0389412D01*
X0065640Y0389729D01*
X0065640Y0390363D01*
X0065957Y0390680D01*
X0066591Y0390680D01*
X0066908Y0390363D01*
X0066908Y0389729D01*
X0064698Y0389412D02*
X0063748Y0389412D01*
X0063431Y0389729D01*
X0063431Y0390363D01*
X0063748Y0390680D01*
X0064698Y0390680D01*
X0064698Y0388778D01*
X0062591Y0389412D02*
X0061957Y0389412D01*
X0062274Y0389095D02*
X0062274Y0390363D01*
X0062591Y0390680D01*
X0061015Y0390680D02*
X0061015Y0389412D01*
X0059747Y0389412D02*
X0059747Y0390363D01*
X0060064Y0390680D01*
X0061015Y0390680D01*
X0058805Y0390680D02*
X0058805Y0389729D01*
X0058488Y0389412D01*
X0057855Y0389412D01*
X0057538Y0389729D01*
X0057538Y0388778D02*
X0057538Y0390680D01*
X0056595Y0390363D02*
X0056279Y0390680D01*
X0055645Y0390680D01*
X0055328Y0390363D01*
X0055645Y0389729D02*
X0056279Y0389729D01*
X0056595Y0390046D01*
X0056595Y0390363D01*
X0055645Y0389729D02*
X0055328Y0389412D01*
X0055328Y0389095D01*
X0055645Y0388778D01*
X0056279Y0388778D01*
X0056595Y0389095D01*
X0054386Y0389729D02*
X0053118Y0389729D01*
X0051961Y0389412D02*
X0051961Y0390680D01*
X0051645Y0390680D02*
X0052278Y0390680D01*
X0051961Y0389412D02*
X0051645Y0389412D01*
X0051961Y0388778D02*
X0051961Y0388461D01*
X0050702Y0389095D02*
X0050702Y0389729D01*
X0050385Y0390046D01*
X0049435Y0390046D01*
X0049435Y0390680D02*
X0049435Y0388778D01*
X0050385Y0388778D01*
X0050702Y0389095D01*
X0048493Y0389095D02*
X0048493Y0389729D01*
X0048176Y0390046D01*
X0047225Y0390046D01*
X0047859Y0390046D02*
X0048493Y0390680D01*
X0047225Y0390680D02*
X0047225Y0388778D01*
X0048176Y0388778D01*
X0048493Y0389095D01*
X0116401Y0344381D02*
X0116401Y0343931D01*
X0116852Y0343481D01*
X0116401Y0343030D01*
X0116401Y0342580D01*
X0116852Y0342130D01*
X0117752Y0342130D01*
X0118203Y0342580D01*
X0117302Y0343481D02*
X0116852Y0343481D01*
X0116401Y0344381D02*
X0116852Y0344832D01*
X0117752Y0344832D01*
X0118203Y0344381D01*
X0119348Y0344832D02*
X0120249Y0344832D01*
X0119798Y0344832D02*
X0119798Y0342580D01*
X0120249Y0342130D01*
X0120699Y0342130D01*
X0121149Y0342580D01*
X0126833Y0374138D02*
X0126833Y0375940D01*
X0126833Y0375039D02*
X0124131Y0375039D01*
X0124581Y0377085D02*
X0124131Y0377535D01*
X0124131Y0378436D01*
X0124581Y0378886D01*
X0126383Y0378886D01*
X0126833Y0378436D01*
X0126833Y0377535D01*
X0126383Y0377085D01*
X0124581Y0377085D01*
X0124131Y0382978D02*
X0126833Y0382978D01*
X0126833Y0384329D01*
X0126383Y0384779D01*
X0125482Y0384779D01*
X0125032Y0384329D01*
X0125032Y0382978D01*
X0125933Y0385924D02*
X0125933Y0386375D01*
X0124131Y0386375D01*
X0124131Y0386825D02*
X0124131Y0385924D01*
X0126833Y0386375D02*
X0127284Y0386375D01*
X0136428Y0394524D02*
X0156428Y0394524D01*
X0156428Y0399524D01*
X0181428Y0399524D01*
X0181428Y0394524D01*
X0206428Y0394524D01*
X0206428Y0154524D01*
X0136428Y0154524D01*
X0136428Y0394524D01*
X0156428Y0394524D02*
X0181428Y0394524D01*
X0212793Y0387420D02*
X0213693Y0388321D01*
X0214594Y0388321D01*
X0215495Y0387420D01*
X0214144Y0386275D02*
X0212793Y0386275D01*
X0214144Y0386275D02*
X0214594Y0385825D01*
X0214594Y0384474D01*
X0212793Y0384474D01*
X0212793Y0383410D02*
X0212793Y0382509D01*
X0212793Y0382960D02*
X0214594Y0382960D01*
X0214594Y0382509D01*
X0215495Y0382960D02*
X0215945Y0382960D01*
X0214144Y0381364D02*
X0212793Y0381364D01*
X0212793Y0380013D01*
X0213243Y0379563D01*
X0213693Y0380013D01*
X0213693Y0381364D01*
X0214144Y0381364D02*
X0214594Y0380914D01*
X0214594Y0380013D01*
X0215495Y0378418D02*
X0212793Y0378418D01*
X0212793Y0376616D02*
X0215495Y0376616D01*
X0214594Y0377517D01*
X0215495Y0378418D01*
X0215495Y0375553D02*
X0214594Y0374652D01*
X0213693Y0374652D01*
X0212793Y0375553D01*
X0213693Y0370561D02*
X0215495Y0370561D01*
X0213693Y0370561D02*
X0212793Y0369660D01*
X0213693Y0368759D01*
X0215495Y0368759D01*
X0215495Y0367614D02*
X0215495Y0365812D01*
X0214144Y0365812D01*
X0214594Y0366713D01*
X0214594Y0367164D01*
X0214144Y0367614D01*
X0213243Y0367614D01*
X0212793Y0367164D01*
X0212793Y0366263D01*
X0213243Y0365812D01*
X0214144Y0364668D02*
X0214144Y0362866D01*
X0215044Y0363767D02*
X0213243Y0363767D01*
X0246204Y0360422D02*
X0246204Y0359972D01*
X0248006Y0358170D01*
X0248006Y0357720D01*
X0249151Y0357720D02*
X0250952Y0357720D01*
X0250052Y0357720D02*
X0250052Y0360422D01*
X0250952Y0359522D01*
X0252097Y0360422D02*
X0252998Y0360422D01*
X0252548Y0360422D02*
X0252548Y0358170D01*
X0252998Y0357720D01*
X0253449Y0357720D01*
X0253899Y0358170D01*
X0248006Y0360422D02*
X0246204Y0360422D01*
X0243496Y0314941D02*
X0243947Y0314490D01*
X0243947Y0313590D01*
X0243496Y0313139D01*
X0243496Y0311994D02*
X0243046Y0311994D01*
X0242596Y0311544D01*
X0242596Y0310643D01*
X0243046Y0310193D01*
X0243496Y0310193D01*
X0243947Y0310643D01*
X0243947Y0311544D01*
X0243496Y0311994D01*
X0242596Y0311544D02*
X0242145Y0311994D01*
X0241695Y0311994D01*
X0241244Y0311544D01*
X0241244Y0310643D01*
X0241695Y0310193D01*
X0242145Y0310193D01*
X0242596Y0310643D01*
X0242596Y0309048D02*
X0242596Y0307697D01*
X0243046Y0307246D01*
X0243496Y0307246D01*
X0243947Y0307697D01*
X0243947Y0308597D01*
X0243496Y0309048D01*
X0241695Y0309048D01*
X0241244Y0308597D01*
X0241244Y0307697D01*
X0241695Y0307246D01*
X0241244Y0306101D02*
X0241244Y0304300D01*
X0243046Y0306101D01*
X0243496Y0306101D01*
X0243947Y0305651D01*
X0243947Y0304750D01*
X0243496Y0304300D01*
X0243046Y0303155D02*
X0241244Y0303155D01*
X0242596Y0303155D02*
X0242596Y0301353D01*
X0243046Y0301353D02*
X0243947Y0302254D01*
X0243046Y0303155D01*
X0243046Y0301353D02*
X0241244Y0301353D01*
X0241244Y0313139D02*
X0243046Y0314941D01*
X0243496Y0314941D01*
X0241244Y0314941D02*
X0241244Y0313139D01*
X0229175Y0309985D02*
X0229175Y0309085D01*
X0228725Y0308634D01*
X0229175Y0307489D02*
X0226923Y0307489D01*
X0226473Y0307039D01*
X0226473Y0306138D01*
X0226923Y0305688D01*
X0229175Y0305688D01*
X0226473Y0308634D02*
X0228274Y0310436D01*
X0228725Y0310436D01*
X0229175Y0309985D01*
X0226473Y0310436D02*
X0226473Y0308634D01*
X0232857Y0283241D02*
X0232867Y0283337D01*
X0232881Y0283432D01*
X0232899Y0283527D01*
X0232920Y0283622D01*
X0232946Y0283715D01*
X0232975Y0283807D01*
X0233008Y0283898D01*
X0233045Y0283987D01*
X0233085Y0284075D01*
X0233129Y0284161D01*
X0233176Y0284245D01*
X0233227Y0284327D01*
X0233281Y0284407D01*
X0233338Y0284485D01*
X0233398Y0284561D01*
X0233461Y0284634D01*
X0233528Y0284704D01*
X0233597Y0284772D01*
X0233668Y0284836D01*
X0233743Y0284898D01*
X0233819Y0284957D01*
X0233898Y0285012D01*
X0233980Y0285064D01*
X0234063Y0285113D01*
X0234148Y0285158D01*
X0234235Y0285200D01*
X0234324Y0285239D01*
X0234414Y0285273D01*
X0234506Y0285304D01*
X0234598Y0285331D01*
X0234692Y0285355D01*
X0234787Y0285374D01*
X0234882Y0285390D01*
X0234978Y0285402D01*
X0235074Y0285410D01*
X0235171Y0285414D01*
X0235267Y0285414D01*
X0235364Y0285410D01*
X0235460Y0285402D01*
X0235556Y0285390D01*
X0235651Y0285374D01*
X0235746Y0285355D01*
X0235840Y0285331D01*
X0235932Y0285304D01*
X0236024Y0285273D01*
X0236114Y0285239D01*
X0236203Y0285200D01*
X0236290Y0285158D01*
X0236375Y0285113D01*
X0236458Y0285064D01*
X0236540Y0285012D01*
X0236619Y0284957D01*
X0236695Y0284898D01*
X0236770Y0284836D01*
X0236841Y0284772D01*
X0236910Y0284704D01*
X0236977Y0284634D01*
X0237040Y0284561D01*
X0237100Y0284485D01*
X0237157Y0284407D01*
X0237211Y0284327D01*
X0237262Y0284245D01*
X0237309Y0284161D01*
X0237353Y0284075D01*
X0237393Y0283987D01*
X0237430Y0283898D01*
X0237463Y0283807D01*
X0237492Y0283715D01*
X0237518Y0283622D01*
X0237539Y0283527D01*
X0237557Y0283432D01*
X0237571Y0283337D01*
X0237581Y0283241D01*
X0269093Y0285276D02*
X0269093Y0304961D01*
X0347833Y0304961D01*
X0347833Y0285276D01*
X0269093Y0285276D01*
X0350445Y0357938D02*
X0350895Y0357488D01*
X0351796Y0357488D01*
X0352246Y0357938D01*
X0352246Y0358839D02*
X0351345Y0359289D01*
X0350895Y0359289D01*
X0350445Y0358839D01*
X0350445Y0357938D01*
X0352246Y0358839D02*
X0352246Y0360190D01*
X0350445Y0360190D01*
X0353391Y0360190D02*
X0354292Y0360190D01*
X0353841Y0360190D02*
X0353841Y0357938D01*
X0354292Y0357488D01*
X0354742Y0357488D01*
X0355193Y0357938D01*
X0360136Y0368767D02*
X0360136Y0370568D01*
X0360136Y0371713D02*
X0360586Y0372614D01*
X0360586Y0373065D01*
X0360136Y0373515D01*
X0359235Y0373515D01*
X0358785Y0373065D01*
X0358785Y0372164D01*
X0359235Y0371713D01*
X0360136Y0371713D02*
X0361487Y0371713D01*
X0361487Y0373515D01*
X0361487Y0374660D02*
X0359685Y0374660D01*
X0358785Y0375561D01*
X0359685Y0376461D01*
X0361487Y0376461D01*
X0360586Y0380553D02*
X0361487Y0381454D01*
X0361487Y0382517D02*
X0361487Y0383868D01*
X0361037Y0384319D01*
X0360136Y0384319D01*
X0359685Y0383868D01*
X0359685Y0382517D01*
X0358785Y0382517D02*
X0361487Y0382517D01*
X0360586Y0380553D02*
X0359685Y0380553D01*
X0358785Y0381454D01*
X0358785Y0385464D02*
X0358785Y0386365D01*
X0358785Y0385914D02*
X0360586Y0385914D01*
X0360586Y0385464D01*
X0361487Y0385914D02*
X0361937Y0385914D01*
X0361487Y0387428D02*
X0360586Y0388329D01*
X0359685Y0388329D01*
X0358785Y0387428D01*
X0359235Y0369668D02*
X0361037Y0369668D01*
X0390904Y0345963D02*
X0390904Y0345063D01*
X0391354Y0344612D01*
X0391804Y0344612D01*
X0392255Y0345063D01*
X0392255Y0345963D01*
X0391804Y0346414D01*
X0391354Y0346414D01*
X0390904Y0345963D01*
X0392255Y0345963D02*
X0392705Y0346414D01*
X0393155Y0346414D01*
X0393606Y0345963D01*
X0393606Y0345063D01*
X0393155Y0344612D01*
X0392705Y0344612D01*
X0392255Y0345063D01*
X0392255Y0343467D02*
X0392255Y0341666D01*
X0392705Y0341666D02*
X0393606Y0342566D01*
X0392705Y0343467D01*
X0390904Y0343467D01*
X0390904Y0341666D02*
X0392705Y0341666D01*
X0392255Y0340521D02*
X0392255Y0338719D01*
X0393606Y0340070D01*
X0390904Y0340070D01*
X0391354Y0337574D02*
X0390904Y0337124D01*
X0390904Y0336223D01*
X0391354Y0335773D01*
X0392255Y0336223D02*
X0392255Y0337124D01*
X0391804Y0337574D01*
X0391354Y0337574D01*
X0392255Y0336223D02*
X0392705Y0335773D01*
X0393155Y0335773D01*
X0393606Y0336223D01*
X0393606Y0337124D01*
X0393155Y0337574D01*
X0392959Y0315209D02*
X0391157Y0313407D01*
X0390707Y0313407D01*
X0390707Y0312262D02*
X0392508Y0312262D01*
X0393409Y0311362D01*
X0392508Y0310461D01*
X0390707Y0310461D01*
X0392058Y0310461D02*
X0392058Y0312262D01*
X0393409Y0313407D02*
X0393409Y0315209D01*
X0392959Y0315209D01*
X0392058Y0309316D02*
X0392058Y0307514D01*
X0393409Y0308866D01*
X0390707Y0308866D01*
X0391157Y0306369D02*
X0390707Y0305919D01*
X0390707Y0305018D01*
X0391157Y0304568D01*
X0392058Y0305018D02*
X0392058Y0305919D01*
X0391607Y0306369D01*
X0391157Y0306369D01*
X0392058Y0305018D02*
X0392508Y0304568D01*
X0392959Y0304568D01*
X0393409Y0305018D01*
X0393409Y0305919D01*
X0392959Y0306369D01*
X0393429Y0282457D02*
X0392978Y0281556D01*
X0392078Y0280655D01*
X0392078Y0282007D01*
X0391627Y0282457D01*
X0391177Y0282457D01*
X0390726Y0282007D01*
X0390726Y0281106D01*
X0391177Y0280655D01*
X0392078Y0280655D01*
X0392078Y0279510D02*
X0392078Y0277709D01*
X0392528Y0277709D02*
X0393429Y0278610D01*
X0392528Y0279510D01*
X0390726Y0279510D01*
X0390726Y0277709D02*
X0392528Y0277709D01*
X0392528Y0276564D02*
X0392078Y0276114D01*
X0391627Y0276564D01*
X0391177Y0276564D01*
X0390726Y0276114D01*
X0390726Y0275213D01*
X0391177Y0274762D01*
X0391177Y0273617D02*
X0390726Y0273167D01*
X0390726Y0272266D01*
X0391177Y0271816D01*
X0392078Y0272266D02*
X0392078Y0273167D01*
X0391627Y0273617D01*
X0391177Y0273617D01*
X0392078Y0272266D02*
X0392528Y0271816D01*
X0392978Y0271816D01*
X0393429Y0272266D01*
X0393429Y0273167D01*
X0392978Y0273617D01*
X0392978Y0274762D02*
X0393429Y0275213D01*
X0393429Y0276114D01*
X0392978Y0276564D01*
X0392528Y0276564D01*
X0392078Y0276114D02*
X0392078Y0275663D01*
X0392365Y0251622D02*
X0391464Y0251622D01*
X0391014Y0251172D01*
X0391014Y0250271D01*
X0391464Y0249821D01*
X0392365Y0249821D02*
X0392815Y0250722D01*
X0392815Y0251172D01*
X0392365Y0251622D01*
X0393716Y0251622D02*
X0393716Y0249821D01*
X0392365Y0249821D01*
X0392365Y0248676D02*
X0392365Y0246874D01*
X0392815Y0246874D02*
X0393716Y0247775D01*
X0392815Y0248676D01*
X0391014Y0248676D01*
X0391014Y0246874D02*
X0392815Y0246874D01*
X0392815Y0245729D02*
X0392365Y0245279D01*
X0391915Y0245729D01*
X0391464Y0245729D01*
X0391014Y0245279D01*
X0391014Y0244378D01*
X0391464Y0243928D01*
X0391464Y0242783D02*
X0391014Y0242332D01*
X0391014Y0241432D01*
X0391464Y0240981D01*
X0392365Y0241432D02*
X0392365Y0242332D01*
X0391915Y0242783D01*
X0391464Y0242783D01*
X0392365Y0241432D02*
X0392815Y0240981D01*
X0393266Y0240981D01*
X0393716Y0241432D01*
X0393716Y0242332D01*
X0393266Y0242783D01*
X0393266Y0243928D02*
X0393716Y0244378D01*
X0393716Y0245279D01*
X0393266Y0245729D01*
X0392815Y0245729D01*
X0392365Y0245279D02*
X0392365Y0244829D01*
X0391731Y0219229D02*
X0391731Y0217427D01*
X0393082Y0218778D01*
X0390380Y0218778D01*
X0390380Y0216282D02*
X0392181Y0216282D01*
X0393082Y0215381D01*
X0392181Y0214481D01*
X0390380Y0214481D01*
X0390380Y0213336D02*
X0390380Y0211534D01*
X0392181Y0213336D01*
X0392632Y0213336D01*
X0393082Y0212885D01*
X0393082Y0211984D01*
X0392632Y0211534D01*
X0392632Y0210389D02*
X0393082Y0209939D01*
X0393082Y0209038D01*
X0392632Y0208588D01*
X0392181Y0208588D01*
X0391731Y0209038D01*
X0391731Y0209939D01*
X0391281Y0210389D01*
X0390830Y0210389D01*
X0390380Y0209939D01*
X0390380Y0209038D01*
X0390830Y0208588D01*
X0391731Y0214481D02*
X0391731Y0216282D01*
X0391843Y0186221D02*
X0391392Y0185770D01*
X0390942Y0186221D01*
X0390492Y0186221D01*
X0390041Y0185770D01*
X0390041Y0184870D01*
X0390492Y0184419D01*
X0390041Y0183274D02*
X0391843Y0183274D01*
X0392744Y0182373D01*
X0391843Y0181473D01*
X0390041Y0181473D01*
X0390041Y0180328D02*
X0390041Y0178526D01*
X0391843Y0180328D01*
X0392293Y0180328D01*
X0392744Y0179877D01*
X0392744Y0178977D01*
X0392293Y0178526D01*
X0392293Y0177381D02*
X0392744Y0176931D01*
X0392744Y0176030D01*
X0392293Y0175580D01*
X0391843Y0175580D01*
X0391392Y0176030D01*
X0391392Y0176931D01*
X0390942Y0177381D01*
X0390492Y0177381D01*
X0390041Y0176931D01*
X0390041Y0176030D01*
X0390492Y0175580D01*
X0391392Y0181473D02*
X0391392Y0183274D01*
X0392293Y0184419D02*
X0392744Y0184870D01*
X0392744Y0185770D01*
X0392293Y0186221D01*
X0391843Y0186221D01*
X0391392Y0185770D02*
X0391392Y0185320D01*
X0390911Y0098996D02*
X0390911Y0097195D01*
X0390911Y0098096D02*
X0393614Y0098096D01*
X0392713Y0097195D01*
X0392713Y0096050D02*
X0390911Y0096050D01*
X0392263Y0096050D02*
X0392263Y0094248D01*
X0392713Y0094248D02*
X0393614Y0095149D01*
X0392713Y0096050D01*
X0392713Y0094248D02*
X0390911Y0094248D01*
X0390911Y0093103D02*
X0390911Y0091302D01*
X0390911Y0092203D02*
X0393614Y0092203D01*
X0392713Y0091302D01*
X0393163Y0090157D02*
X0393614Y0089706D01*
X0393614Y0088806D01*
X0393163Y0088355D01*
X0392713Y0088355D01*
X0392263Y0088806D01*
X0392263Y0089706D01*
X0391812Y0090157D01*
X0391362Y0090157D01*
X0390911Y0089706D01*
X0390911Y0088806D01*
X0391362Y0088355D01*
X0391530Y0072425D02*
X0391530Y0070624D01*
X0393331Y0072425D01*
X0393781Y0072425D01*
X0394232Y0071975D01*
X0394232Y0071074D01*
X0393781Y0070624D01*
X0393331Y0069479D02*
X0394232Y0068578D01*
X0393331Y0067677D01*
X0391530Y0067677D01*
X0391530Y0066532D02*
X0391530Y0064731D01*
X0391530Y0065632D02*
X0394232Y0065632D01*
X0393331Y0064731D01*
X0393781Y0063586D02*
X0394232Y0063136D01*
X0394232Y0062235D01*
X0393781Y0061784D01*
X0393331Y0061784D01*
X0392881Y0062235D01*
X0392881Y0063136D01*
X0392430Y0063586D01*
X0391980Y0063586D01*
X0391530Y0063136D01*
X0391530Y0062235D01*
X0391980Y0061784D01*
X0392881Y0067677D02*
X0392881Y0069479D01*
X0393331Y0069479D02*
X0391530Y0069479D01*
X0243105Y0143111D02*
X0238105Y0143111D01*
X0238105Y0138111D01*
X0234574Y0151644D02*
X0233673Y0151644D01*
X0233222Y0152095D01*
X0233222Y0154347D01*
X0232077Y0153446D02*
X0231177Y0154347D01*
X0231177Y0151644D01*
X0232077Y0151644D02*
X0230276Y0151644D01*
X0234574Y0151644D02*
X0235024Y0152095D01*
X0235024Y0154347D01*
X0193085Y0083572D02*
X0193535Y0083122D01*
X0193535Y0081320D01*
X0193085Y0080870D01*
X0192184Y0080870D01*
X0191734Y0081320D01*
X0190589Y0080870D02*
X0188787Y0080870D01*
X0189688Y0080870D02*
X0189688Y0083572D01*
X0190589Y0082671D01*
X0191734Y0083122D02*
X0192184Y0083572D01*
X0193085Y0083572D01*
X0181378Y0083859D02*
X0181378Y0081157D01*
X0181378Y0082058D02*
X0180027Y0082058D01*
X0179576Y0082508D01*
X0179576Y0083409D01*
X0180027Y0083859D01*
X0181378Y0083859D01*
X0180477Y0082058D02*
X0179576Y0081157D01*
X0178431Y0081607D02*
X0177981Y0081157D01*
X0177080Y0081157D01*
X0176630Y0081607D01*
X0176630Y0082058D01*
X0177080Y0082508D01*
X0177530Y0082508D01*
X0177080Y0082508D02*
X0176630Y0082959D01*
X0176630Y0083409D01*
X0177080Y0083859D01*
X0177981Y0083859D01*
X0178431Y0083409D01*
X0169472Y0084135D02*
X0169472Y0081433D01*
X0169472Y0082333D02*
X0168121Y0082333D01*
X0167671Y0082784D01*
X0167671Y0083685D01*
X0168121Y0084135D01*
X0169472Y0084135D01*
X0168571Y0082333D02*
X0167671Y0081433D01*
X0166526Y0081433D02*
X0164724Y0083234D01*
X0164724Y0083685D01*
X0165175Y0084135D01*
X0166075Y0084135D01*
X0166526Y0083685D01*
X0166526Y0081433D02*
X0164724Y0081433D01*
X0157531Y0081740D02*
X0157531Y0084442D01*
X0156180Y0084442D01*
X0155730Y0083992D01*
X0155730Y0083091D01*
X0156180Y0082641D01*
X0157531Y0082641D01*
X0156630Y0082641D02*
X0155730Y0081740D01*
X0154585Y0081740D02*
X0152783Y0081740D01*
X0153684Y0081740D02*
X0153684Y0084442D01*
X0154585Y0083541D01*
X0154688Y0063139D02*
X0154238Y0062689D01*
X0154238Y0062238D01*
X0154688Y0061788D01*
X0154238Y0061337D01*
X0154238Y0060887D01*
X0154688Y0060437D01*
X0155589Y0060437D01*
X0156039Y0060887D01*
X0157184Y0060887D02*
X0157634Y0060437D01*
X0158535Y0060437D01*
X0158986Y0060887D01*
X0158085Y0061788D02*
X0157634Y0061788D01*
X0157184Y0061337D01*
X0157184Y0060887D01*
X0157634Y0061788D02*
X0157184Y0062238D01*
X0157184Y0062689D01*
X0157634Y0063139D01*
X0158535Y0063139D01*
X0158986Y0062689D01*
X0156039Y0062689D02*
X0155589Y0063139D01*
X0154688Y0063139D01*
X0154688Y0061788D02*
X0155138Y0061788D01*
X0153093Y0060887D02*
X0153093Y0062689D01*
X0152642Y0063139D01*
X0151741Y0063139D01*
X0151291Y0062689D01*
X0153093Y0060887D01*
X0152642Y0060437D01*
X0151741Y0060437D01*
X0151291Y0060887D01*
X0151291Y0062689D01*
X0163078Y0062993D02*
X0164880Y0061192D01*
X0164430Y0061642D02*
X0163078Y0060291D01*
X0164880Y0060291D02*
X0164880Y0062993D01*
X0166025Y0062543D02*
X0166475Y0062993D01*
X0167376Y0062993D01*
X0167827Y0062543D01*
X0166025Y0062543D02*
X0166025Y0062092D01*
X0167827Y0060291D01*
X0166025Y0060291D01*
X0168849Y0060291D02*
X0169300Y0060291D01*
X0169300Y0060741D01*
X0168849Y0060741D01*
X0168849Y0060291D01*
X0170445Y0060291D02*
X0172246Y0060291D01*
X0170445Y0062092D01*
X0170445Y0062543D01*
X0170895Y0062993D01*
X0171796Y0062993D01*
X0172246Y0062543D01*
X0175228Y0063115D02*
X0177030Y0061314D01*
X0176579Y0061764D02*
X0175228Y0060413D01*
X0177030Y0060413D02*
X0177030Y0063115D01*
X0178175Y0062665D02*
X0178175Y0062215D01*
X0178625Y0061764D01*
X0178175Y0061314D01*
X0178175Y0060863D01*
X0178625Y0060413D01*
X0179526Y0060413D01*
X0179976Y0060863D01*
X0180999Y0060863D02*
X0180999Y0060413D01*
X0181449Y0060413D01*
X0181449Y0060863D01*
X0180999Y0060863D01*
X0182594Y0060863D02*
X0183045Y0060413D01*
X0183945Y0060413D01*
X0184396Y0060863D01*
X0183495Y0061764D02*
X0183045Y0061764D01*
X0182594Y0061314D01*
X0182594Y0060863D01*
X0183045Y0061764D02*
X0182594Y0062215D01*
X0182594Y0062665D01*
X0183045Y0063115D01*
X0183945Y0063115D01*
X0184396Y0062665D01*
X0185689Y0063068D02*
X0187490Y0063068D01*
X0187490Y0060366D01*
X0188635Y0060366D02*
X0188635Y0062167D01*
X0187490Y0061717D02*
X0186589Y0061717D01*
X0188635Y0060366D02*
X0189986Y0060366D01*
X0190437Y0060816D01*
X0190437Y0062167D01*
X0191582Y0062618D02*
X0193383Y0060816D01*
X0192933Y0060366D01*
X0192032Y0060366D01*
X0191582Y0060816D01*
X0191582Y0062618D01*
X0192032Y0063068D01*
X0192933Y0063068D01*
X0193383Y0062618D01*
X0193383Y0060816D01*
X0194528Y0060366D02*
X0196330Y0060366D01*
X0195429Y0060366D02*
X0195429Y0063068D01*
X0196330Y0062167D01*
X0179976Y0062665D02*
X0179526Y0063115D01*
X0178625Y0063115D01*
X0178175Y0062665D01*
X0178625Y0061764D02*
X0179075Y0061764D01*
X0101805Y0176851D02*
X0101795Y0176755D01*
X0101781Y0176660D01*
X0101763Y0176565D01*
X0101742Y0176470D01*
X0101716Y0176377D01*
X0101687Y0176285D01*
X0101654Y0176194D01*
X0101617Y0176105D01*
X0101577Y0176017D01*
X0101533Y0175931D01*
X0101486Y0175847D01*
X0101435Y0175765D01*
X0101381Y0175685D01*
X0101324Y0175607D01*
X0101264Y0175531D01*
X0101201Y0175458D01*
X0101134Y0175388D01*
X0101065Y0175320D01*
X0100994Y0175256D01*
X0100919Y0175194D01*
X0100843Y0175135D01*
X0100764Y0175080D01*
X0100682Y0175028D01*
X0100599Y0174979D01*
X0100514Y0174934D01*
X0100427Y0174892D01*
X0100338Y0174853D01*
X0100248Y0174819D01*
X0100156Y0174788D01*
X0100064Y0174761D01*
X0099970Y0174737D01*
X0099875Y0174718D01*
X0099780Y0174702D01*
X0099684Y0174690D01*
X0099588Y0174682D01*
X0099491Y0174678D01*
X0099395Y0174678D01*
X0099298Y0174682D01*
X0099202Y0174690D01*
X0099106Y0174702D01*
X0099011Y0174718D01*
X0098916Y0174737D01*
X0098822Y0174761D01*
X0098730Y0174788D01*
X0098638Y0174819D01*
X0098548Y0174853D01*
X0098459Y0174892D01*
X0098372Y0174934D01*
X0098287Y0174979D01*
X0098204Y0175028D01*
X0098122Y0175080D01*
X0098043Y0175135D01*
X0097967Y0175194D01*
X0097892Y0175256D01*
X0097821Y0175320D01*
X0097752Y0175388D01*
X0097685Y0175458D01*
X0097622Y0175531D01*
X0097562Y0175607D01*
X0097505Y0175685D01*
X0097451Y0175765D01*
X0097400Y0175847D01*
X0097353Y0175931D01*
X0097309Y0176017D01*
X0097269Y0176105D01*
X0097232Y0176194D01*
X0097199Y0176285D01*
X0097170Y0176377D01*
X0097144Y0176470D01*
X0097123Y0176565D01*
X0097105Y0176660D01*
X0097091Y0176755D01*
X0097081Y0176851D01*
X0006433Y0216355D02*
X0005982Y0215905D01*
X0005532Y0215905D01*
X0005081Y0216355D01*
X0005081Y0217256D01*
X0004631Y0217706D01*
X0004181Y0217706D01*
X0003730Y0217256D01*
X0003730Y0216355D01*
X0004181Y0215905D01*
X0006433Y0216355D02*
X0006433Y0217256D01*
X0005982Y0217706D01*
X0005081Y0218851D02*
X0005081Y0220202D01*
X0004631Y0220653D01*
X0004181Y0220653D01*
X0003730Y0220202D01*
X0003730Y0219302D01*
X0004181Y0218851D01*
X0005081Y0218851D01*
X0005982Y0219752D01*
X0006433Y0220653D01*
X0005532Y0221798D02*
X0006433Y0222699D01*
X0005532Y0223599D01*
X0003730Y0223599D01*
X0003730Y0224744D02*
X0003730Y0226546D01*
X0003730Y0225645D02*
X0006433Y0225645D01*
X0005532Y0224744D01*
X0005081Y0223599D02*
X0005081Y0221798D01*
X0005532Y0221798D02*
X0003730Y0221798D01*
X0003730Y0227691D02*
X0005532Y0229492D01*
X0005982Y0229492D01*
X0006433Y0229042D01*
X0006433Y0228141D01*
X0005982Y0227691D01*
X0003730Y0227691D02*
X0003730Y0229492D01*
X0003862Y0245968D02*
X0003411Y0246418D01*
X0003411Y0247319D01*
X0003862Y0247769D01*
X0004312Y0247769D01*
X0004763Y0247319D01*
X0004763Y0246418D01*
X0005213Y0245968D01*
X0005663Y0245968D01*
X0006114Y0246418D01*
X0006114Y0247319D01*
X0005663Y0247769D01*
X0004763Y0248914D02*
X0003862Y0248914D01*
X0003411Y0249365D01*
X0003411Y0250265D01*
X0003862Y0250716D01*
X0004312Y0250716D01*
X0004763Y0250265D01*
X0004763Y0248914D01*
X0005663Y0249815D01*
X0006114Y0250716D01*
X0005213Y0251861D02*
X0006114Y0252762D01*
X0005213Y0253662D01*
X0003411Y0253662D01*
X0003411Y0254807D02*
X0003411Y0256609D01*
X0003411Y0255708D02*
X0006114Y0255708D01*
X0005213Y0254807D01*
X0004763Y0253662D02*
X0004763Y0251861D01*
X0005213Y0251861D02*
X0003411Y0251861D01*
X0003411Y0257754D02*
X0003411Y0259555D01*
X0003411Y0258655D02*
X0006114Y0258655D01*
X0005213Y0257754D01*
D15*
X0225605Y0161458D03*
X0230605Y0161458D03*
X0235605Y0161458D03*
X0240605Y0161458D03*
X0240605Y0134764D03*
X0235605Y0134764D03*
X0230605Y0134764D03*
X0225605Y0134764D03*
D16*
X0329590Y0300564D02*
X0331525Y0300564D01*
X0330558Y0300564D02*
X0330558Y0303467D01*
X0331525Y0302499D01*
X0332537Y0302983D02*
X0332537Y0303467D01*
X0332537Y0302983D02*
X0333504Y0302015D01*
X0333504Y0300564D01*
X0333504Y0302015D02*
X0334472Y0302983D01*
X0334472Y0303467D01*
X0335483Y0302499D02*
X0335483Y0300564D01*
X0335483Y0302015D02*
X0337418Y0302015D01*
X0337418Y0302499D02*
X0336451Y0303467D01*
X0335483Y0302499D01*
X0337418Y0302499D02*
X0337418Y0300564D01*
X0338430Y0300564D02*
X0340365Y0300564D01*
X0340365Y0303467D01*
X0341376Y0303467D02*
X0343311Y0303467D01*
X0343311Y0300564D01*
X0341376Y0300564D01*
X0342344Y0302015D02*
X0343311Y0302015D01*
X0344323Y0302015D02*
X0344807Y0301532D01*
X0346258Y0301532D01*
X0345290Y0301532D02*
X0344323Y0300564D01*
X0344323Y0302015D02*
X0344323Y0302983D01*
X0344807Y0303467D01*
X0346258Y0303467D01*
X0346258Y0300564D01*
M02*
