G75*
%MOIN*%
%OFA0B0*%
%FSLAX25Y25*%
%IPPOS*%
%LPD*%
%AMOC8*
5,1,8,0,0,1.08239X$1,22.5*
%
%ADD10R,0.05906X0.02362*%
%ADD11R,0.02362X0.09000*%
%ADD12R,0.06299X0.05118*%
%ADD13R,0.05906X0.05118*%
D10*
X0080546Y0129154D03*
X0080546Y0134154D03*
X0080546Y0139154D03*
X0080546Y0144154D03*
X0080546Y0149154D03*
X0080546Y0154154D03*
X0080546Y0159154D03*
X0080546Y0164154D03*
X0080546Y0169154D03*
X0080546Y0174154D03*
X0118341Y0174154D03*
X0118341Y0169154D03*
X0118341Y0164154D03*
X0118341Y0159154D03*
X0118341Y0154154D03*
X0118341Y0149154D03*
X0118341Y0144154D03*
X0118341Y0139154D03*
X0118341Y0134154D03*
X0118341Y0129154D03*
X0216321Y0285938D03*
X0216321Y0290938D03*
X0216321Y0295938D03*
X0216321Y0300938D03*
X0216321Y0305938D03*
X0216321Y0310938D03*
X0216321Y0315938D03*
X0216321Y0320938D03*
X0216321Y0325938D03*
X0216321Y0330938D03*
X0254117Y0330938D03*
X0254117Y0325938D03*
X0254117Y0320938D03*
X0254117Y0315938D03*
X0254117Y0310938D03*
X0254117Y0305938D03*
X0254117Y0300938D03*
X0254117Y0295938D03*
X0254117Y0290938D03*
X0254117Y0285938D03*
D11*
X0240605Y0161221D03*
X0235605Y0161221D03*
X0230605Y0161221D03*
X0225605Y0161221D03*
X0225605Y0135001D03*
X0230605Y0135001D03*
X0235605Y0135001D03*
X0240605Y0135001D03*
D12*
X0178892Y0075906D03*
X0178892Y0068426D03*
X0167081Y0068426D03*
X0167081Y0075906D03*
X0155270Y0075906D03*
X0155270Y0068426D03*
D13*
X0190703Y0068426D03*
X0190703Y0075906D03*
M02*
