G75*
%MOIN*%
%OFA0B0*%
%FSLAX25Y25*%
%IPPOS*%
%LPD*%
%AMOC8*
5,1,8,0,0,1.08239X$1,22.5*
%
%ADD10C,0.16548*%
%ADD11C,0.08200*%
%ADD12C,0.17398*%
%ADD13C,0.15824*%
%ADD14OC8,0.06000*%
%ADD15C,0.06737*%
%ADD16R,0.06737X0.06737*%
%ADD17C,0.07400*%
%ADD18C,0.09461*%
%ADD19C,0.04934*%
%ADD20C,0.04572*%
%ADD21C,0.06540*%
%ADD22C,0.10544*%
%ADD23C,0.07800*%
%ADD24C,0.12611*%
%ADD25C,0.03900*%
D10*
X0017475Y0017048D03*
X0017475Y0379253D03*
X0379680Y0379253D03*
X0379680Y0017048D03*
D11*
X0384424Y0053434D03*
X0383424Y0063434D03*
X0384424Y0073434D03*
X0384514Y0083485D03*
X0383514Y0093485D03*
X0384514Y0103485D03*
X0384369Y0117501D03*
X0383369Y0127501D03*
X0384369Y0137501D03*
X0383369Y0147501D03*
X0384369Y0157501D03*
X0384431Y0171221D03*
X0383431Y0181221D03*
X0384431Y0191221D03*
X0384353Y0201190D03*
X0383353Y0211190D03*
X0384353Y0221190D03*
X0384282Y0235202D03*
X0383282Y0245202D03*
X0384282Y0255202D03*
X0384180Y0265182D03*
X0383180Y0275182D03*
X0384180Y0285182D03*
X0384117Y0299131D03*
X0383117Y0309131D03*
X0384117Y0319131D03*
X0384160Y0329103D03*
X0383160Y0339103D03*
X0384160Y0349103D03*
X0328813Y0258969D03*
X0318813Y0258969D03*
X0308813Y0258969D03*
X0298813Y0258969D03*
X0288813Y0258969D03*
X0288813Y0247969D03*
X0298813Y0247969D03*
X0308813Y0247969D03*
X0318813Y0247969D03*
X0328813Y0247969D03*
X0328813Y0199556D03*
X0318813Y0199556D03*
X0318813Y0188556D03*
X0328813Y0188556D03*
X0308813Y0188556D03*
X0298813Y0188556D03*
X0298813Y0199556D03*
X0308813Y0199556D03*
X0288813Y0199556D03*
X0288813Y0188556D03*
X0288813Y0156446D03*
X0298813Y0156446D03*
X0308813Y0156446D03*
X0318813Y0156446D03*
X0328813Y0156446D03*
X0328813Y0145446D03*
X0318813Y0145446D03*
X0308813Y0145446D03*
X0298813Y0145446D03*
X0288813Y0145446D03*
X0288813Y0042233D03*
X0298813Y0042233D03*
X0308813Y0042233D03*
X0318813Y0042233D03*
X0328813Y0042233D03*
X0328813Y0031233D03*
X0318813Y0031233D03*
X0308813Y0031233D03*
X0298813Y0031233D03*
X0288813Y0031233D03*
X0096530Y0031233D03*
X0086530Y0031233D03*
X0076530Y0031233D03*
X0066530Y0031233D03*
X0056530Y0031233D03*
X0056530Y0042233D03*
X0066530Y0042233D03*
X0076530Y0042233D03*
X0086530Y0042233D03*
X0096530Y0042233D03*
X0014550Y0064910D03*
X0013550Y0074910D03*
X0014550Y0084910D03*
X0014424Y0094973D03*
X0013424Y0104973D03*
X0014424Y0114973D03*
X0012294Y0143509D03*
X0013294Y0153509D03*
X0012294Y0163509D03*
X0013294Y0173509D03*
X0012294Y0183509D03*
X0013557Y0211820D03*
X0012557Y0221820D03*
X0013557Y0231820D03*
X0013380Y0241891D03*
X0012380Y0251891D03*
X0013380Y0261891D03*
X0013026Y0293871D03*
X0012026Y0303871D03*
X0013026Y0313871D03*
X0012829Y0323938D03*
X0011829Y0333938D03*
X0012829Y0343938D03*
X0053700Y0382477D03*
X0065100Y0382477D03*
X0099452Y0320198D03*
X0110852Y0320198D03*
X0097278Y0286328D03*
X0087278Y0286328D03*
X0077278Y0286328D03*
X0067278Y0286328D03*
X0057278Y0286328D03*
X0057278Y0275328D03*
X0067278Y0275328D03*
X0077278Y0275328D03*
X0087278Y0275328D03*
X0097278Y0275328D03*
X0096530Y0207548D03*
X0096530Y0196548D03*
X0086530Y0196548D03*
X0076530Y0196548D03*
X0076530Y0207548D03*
X0086530Y0207548D03*
X0066530Y0207548D03*
X0056530Y0207548D03*
X0056530Y0196548D03*
X0066530Y0196548D03*
D12*
X0104325Y0349331D03*
X0235349Y0349331D03*
X0338794Y0349331D03*
D13*
X0357691Y0360552D03*
X0338794Y0373938D03*
X0254246Y0360552D03*
X0235349Y0373938D03*
X0123223Y0360552D03*
X0104325Y0373938D03*
D14*
X0174955Y0352757D03*
X0174955Y0342757D03*
D15*
X0171428Y0329524D03*
X0171428Y0319524D03*
X0171428Y0309524D03*
X0171428Y0299524D03*
X0161428Y0299524D03*
X0161428Y0309524D03*
X0161428Y0319524D03*
X0161428Y0329524D03*
X0151428Y0339524D03*
X0151428Y0349524D03*
X0151428Y0359524D03*
X0141428Y0359524D03*
X0141428Y0369524D03*
X0141428Y0379524D03*
X0141428Y0389524D03*
X0151428Y0379524D03*
X0141428Y0349524D03*
X0141428Y0339524D03*
X0141428Y0329524D03*
X0141428Y0319524D03*
X0141428Y0309524D03*
X0141428Y0299524D03*
X0141428Y0289524D03*
X0141428Y0279524D03*
X0141428Y0269524D03*
X0141428Y0259524D03*
X0141428Y0249524D03*
X0141428Y0239524D03*
X0141428Y0229524D03*
X0141428Y0219524D03*
X0141428Y0209524D03*
X0151428Y0209524D03*
X0161428Y0209524D03*
X0161428Y0219524D03*
X0171428Y0219524D03*
X0171428Y0209524D03*
X0181428Y0209524D03*
X0191428Y0209524D03*
X0201428Y0209524D03*
X0201428Y0219524D03*
X0201428Y0229524D03*
X0201428Y0239524D03*
X0201428Y0249524D03*
X0201428Y0259524D03*
X0201428Y0269524D03*
X0201428Y0279524D03*
X0201428Y0289524D03*
X0201428Y0299524D03*
X0201428Y0309524D03*
X0201428Y0319524D03*
X0201428Y0329524D03*
X0201428Y0339524D03*
X0201428Y0349524D03*
X0201428Y0359524D03*
X0201428Y0369524D03*
X0201428Y0379524D03*
X0171428Y0239524D03*
X0171428Y0229524D03*
X0161428Y0229524D03*
X0161428Y0239524D03*
X0161428Y0199524D03*
X0161428Y0189524D03*
X0161428Y0179524D03*
X0171428Y0179524D03*
X0171428Y0189524D03*
X0171428Y0199524D03*
X0201428Y0199524D03*
X0201428Y0189524D03*
X0201428Y0179524D03*
X0201428Y0169524D03*
X0201428Y0159524D03*
X0171428Y0159524D03*
X0171428Y0169524D03*
X0161428Y0169524D03*
X0161428Y0159524D03*
X0141428Y0159524D03*
X0141428Y0169524D03*
X0141428Y0179524D03*
X0141428Y0189524D03*
X0141428Y0199524D03*
D16*
X0201428Y0389524D03*
D17*
X0224010Y0247520D03*
X0234010Y0247520D03*
X0244010Y0247520D03*
X0244010Y0227520D03*
X0234010Y0227520D03*
X0224010Y0227520D03*
X0125900Y0227520D03*
X0115900Y0227520D03*
X0105900Y0227520D03*
X0105900Y0247520D03*
X0115900Y0247520D03*
X0125900Y0247520D03*
X0125900Y0097914D03*
X0115900Y0097914D03*
X0105900Y0097914D03*
X0105900Y0077914D03*
X0115900Y0077914D03*
X0125900Y0077914D03*
X0224010Y0077914D03*
X0234010Y0077914D03*
X0244010Y0077914D03*
X0244010Y0097914D03*
X0234010Y0097914D03*
X0224010Y0097914D03*
D18*
X0243971Y0088111D03*
X0125861Y0088111D03*
X0125861Y0237717D03*
X0243971Y0237717D03*
D19*
X0227081Y0241851D03*
X0227081Y0233229D03*
X0108971Y0233229D03*
X0108971Y0241851D03*
X0108971Y0092245D03*
X0108971Y0083623D03*
X0227081Y0083623D03*
X0227081Y0092245D03*
D20*
X0274172Y0290513D03*
X0284172Y0290513D03*
D21*
X0314172Y0290513D03*
X0344172Y0290513D03*
D22*
X0174955Y0145788D03*
X0174955Y0127284D03*
X0174955Y0108780D03*
D23*
X0283065Y0074135D03*
X0293065Y0074135D03*
X0303065Y0074135D03*
X0066845Y0074135D03*
X0056845Y0074135D03*
X0046845Y0074135D03*
X0046845Y0318229D03*
X0056845Y0318229D03*
X0066845Y0318229D03*
X0283065Y0318229D03*
X0293065Y0318229D03*
X0303065Y0318229D03*
D24*
X0311963Y0347757D03*
X0274168Y0347757D03*
X0075742Y0347757D03*
X0037947Y0347757D03*
X0037947Y0103662D03*
X0075742Y0103662D03*
X0274168Y0103662D03*
X0311963Y0103662D03*
D25*
X0322927Y0118900D03*
X0329327Y0122500D03*
X0356127Y0148900D03*
X0340527Y0167300D03*
X0356127Y0191700D03*
X0372927Y0197300D03*
X0356527Y0217300D03*
X0341727Y0247700D03*
X0338527Y0257700D03*
X0336527Y0272100D03*
X0352927Y0277300D03*
X0356527Y0295700D03*
X0367327Y0312900D03*
X0317727Y0317300D03*
X0299727Y0308500D03*
X0280927Y0300500D03*
X0264927Y0307300D03*
X0259727Y0296900D03*
X0264127Y0290900D03*
X0262127Y0285700D03*
X0264127Y0281700D03*
X0256927Y0276900D03*
X0246927Y0285300D03*
X0231327Y0281700D03*
X0226927Y0264500D03*
X0218927Y0260900D03*
X0239727Y0256900D03*
X0243727Y0258900D03*
X0259727Y0258900D03*
X0267727Y0256500D03*
X0270927Y0242500D03*
X0270927Y0238100D03*
X0280527Y0234900D03*
X0295327Y0224500D03*
X0301727Y0238900D03*
X0312527Y0228100D03*
X0281727Y0206500D03*
X0282127Y0197700D03*
X0270927Y0190900D03*
X0266927Y0198900D03*
X0263727Y0202100D03*
X0254527Y0204500D03*
X0249727Y0197700D03*
X0243327Y0199700D03*
X0220127Y0209700D03*
X0217727Y0174100D03*
X0195727Y0171700D03*
X0184927Y0173300D03*
X0191727Y0158900D03*
X0203327Y0138500D03*
X0221327Y0138500D03*
X0222127Y0148100D03*
X0247727Y0139700D03*
X0250927Y0164100D03*
X0270127Y0179700D03*
X0282927Y0172100D03*
X0303327Y0170900D03*
X0273727Y0214500D03*
X0280927Y0274100D03*
X0302527Y0285300D03*
X0248527Y0306900D03*
X0248527Y0327300D03*
X0222127Y0324500D03*
X0218927Y0334900D03*
X0220927Y0344500D03*
X0212127Y0344500D03*
X0210527Y0329700D03*
X0209327Y0311300D03*
X0193327Y0317700D03*
X0179327Y0318100D03*
X0168127Y0314500D03*
X0156927Y0291700D03*
X0132127Y0282900D03*
X0125327Y0270900D03*
X0128527Y0262100D03*
X0131727Y0258500D03*
X0146927Y0247700D03*
X0124927Y0221300D03*
X0134127Y0212100D03*
X0134527Y0203700D03*
X0134127Y0193700D03*
X0127727Y0186100D03*
X0122927Y0194500D03*
X0115327Y0189300D03*
X0118127Y0182100D03*
X0112927Y0171300D03*
X0124127Y0168900D03*
X0112527Y0154500D03*
X0108127Y0134500D03*
X0110127Y0125300D03*
X0114527Y0125300D03*
X0104927Y0116100D03*
X0103327Y0122100D03*
X0096927Y0124100D03*
X0096927Y0133300D03*
X0086127Y0153700D03*
X0074927Y0142900D03*
X0074927Y0130100D03*
X0071727Y0125300D03*
X0047327Y0142900D03*
X0041327Y0146500D03*
X0033327Y0184500D03*
X0029727Y0192900D03*
X0043727Y0204100D03*
X0036927Y0210900D03*
X0044127Y0214100D03*
X0052927Y0219700D03*
X0033327Y0224900D03*
X0030927Y0258100D03*
X0038127Y0258100D03*
X0034527Y0265300D03*
X0023727Y0265300D03*
X0032527Y0283300D03*
X0039727Y0290500D03*
X0044527Y0285700D03*
X0047727Y0288900D03*
X0047727Y0293300D03*
X0047727Y0278900D03*
X0064127Y0292100D03*
X0076127Y0302500D03*
X0100527Y0298500D03*
X0104927Y0291300D03*
X0116927Y0298500D03*
X0110127Y0309700D03*
X0124127Y0318500D03*
X0134127Y0316900D03*
X0127727Y0302100D03*
X0127327Y0331300D03*
X0130527Y0338500D03*
X0161327Y0344500D03*
X0168927Y0347700D03*
X0161727Y0354500D03*
X0184127Y0384500D03*
X0193327Y0386100D03*
X0194127Y0374500D03*
X0195727Y0368100D03*
X0210927Y0364100D03*
X0213327Y0378100D03*
X0227727Y0364500D03*
X0240927Y0385700D03*
X0194927Y0347700D03*
X0193327Y0294900D03*
X0194127Y0266500D03*
X0188927Y0266100D03*
X0194127Y0256100D03*
X0171727Y0251700D03*
X0178527Y0234900D03*
X0178527Y0216100D03*
X0147327Y0190900D03*
X0122927Y0210100D03*
X0102127Y0217700D03*
X0103727Y0234100D03*
X0105327Y0255700D03*
X0114127Y0255300D03*
X0104127Y0274900D03*
X0076927Y0250500D03*
X0068127Y0250900D03*
X0060927Y0258100D03*
X0080127Y0238500D03*
X0080527Y0234100D03*
X0102127Y0190100D03*
X0141327Y0153700D03*
X0143727Y0147300D03*
X0150927Y0144900D03*
X0147327Y0141300D03*
X0162527Y0147300D03*
X0155727Y0158900D03*
X0129327Y0128500D03*
X0092927Y0095300D03*
X0115727Y0061300D03*
X0115327Y0046900D03*
X0141727Y0054900D03*
X0140527Y0066100D03*
X0161327Y0064900D03*
X0172927Y0065300D03*
X0185727Y0080900D03*
X0181727Y0086900D03*
X0182127Y0091700D03*
X0199327Y0094900D03*
X0205727Y0112100D03*
X0170127Y0121300D03*
X0221327Y0039300D03*
X0273327Y0046500D03*
X0280927Y0050100D03*
X0299727Y0062100D03*
X0276927Y0072100D03*
X0316927Y0024900D03*
X0378127Y0168500D03*
X0068927Y0333700D03*
X0068127Y0356900D03*
X0043727Y0327300D03*
X0022527Y0308900D03*
X0018927Y0327300D03*
X0023327Y0362500D03*
X0028927Y0084900D03*
M02*
