G75*
%MOIN*%
%OFA0B0*%
%FSLAX25Y25*%
%IPPOS*%
%LPD*%
%AMOC8*
5,1,8,0,0,1.08239X$1,22.5*
%
%ADD10C,0.07400*%
%ADD11C,0.16598*%
%ADD12C,0.15024*%
%ADD13OC8,0.05200*%
%ADD14C,0.05937*%
%ADD15R,0.05937X0.05937*%
%ADD16C,0.06600*%
%ADD17C,0.03772*%
%ADD18C,0.05740*%
%ADD19C,0.09744*%
%ADD20C,0.07000*%
%ADD21C,0.11811*%
%ADD22C,0.01000*%
%ADD23C,0.03100*%
%ADD24C,0.01600*%
D10*
X0056530Y0031233D03*
X0066530Y0031233D03*
X0076530Y0031233D03*
X0086530Y0031233D03*
X0096530Y0031233D03*
X0096530Y0042233D03*
X0086530Y0042233D03*
X0076530Y0042233D03*
X0066530Y0042233D03*
X0056530Y0042233D03*
X0014550Y0064910D03*
X0013550Y0074910D03*
X0014550Y0084910D03*
X0014424Y0094973D03*
X0013424Y0104973D03*
X0014424Y0114973D03*
X0012294Y0143509D03*
X0013294Y0153509D03*
X0012294Y0163509D03*
X0013294Y0173509D03*
X0012294Y0183509D03*
X0013557Y0211820D03*
X0012557Y0221820D03*
X0013557Y0231820D03*
X0013380Y0241891D03*
X0012380Y0251891D03*
X0013380Y0261891D03*
X0013026Y0293871D03*
X0012026Y0303871D03*
X0013026Y0313871D03*
X0012829Y0323938D03*
X0011829Y0333938D03*
X0012829Y0343938D03*
X0053700Y0382477D03*
X0065100Y0382477D03*
X0099452Y0320198D03*
X0110852Y0320198D03*
X0097278Y0286328D03*
X0087278Y0286328D03*
X0077278Y0286328D03*
X0067278Y0286328D03*
X0057278Y0286328D03*
X0057278Y0275328D03*
X0067278Y0275328D03*
X0077278Y0275328D03*
X0087278Y0275328D03*
X0097278Y0275328D03*
X0096530Y0207548D03*
X0096530Y0196548D03*
X0086530Y0196548D03*
X0076530Y0196548D03*
X0076530Y0207548D03*
X0086530Y0207548D03*
X0066530Y0207548D03*
X0056530Y0207548D03*
X0056530Y0196548D03*
X0066530Y0196548D03*
X0288813Y0199556D03*
X0288813Y0188556D03*
X0298813Y0188556D03*
X0308813Y0188556D03*
X0308813Y0199556D03*
X0298813Y0199556D03*
X0318813Y0199556D03*
X0328813Y0199556D03*
X0328813Y0188556D03*
X0318813Y0188556D03*
X0318813Y0156446D03*
X0328813Y0156446D03*
X0328813Y0145446D03*
X0318813Y0145446D03*
X0308813Y0145446D03*
X0298813Y0145446D03*
X0288813Y0145446D03*
X0288813Y0156446D03*
X0298813Y0156446D03*
X0308813Y0156446D03*
X0383369Y0147501D03*
X0384369Y0157501D03*
X0384431Y0171221D03*
X0383431Y0181221D03*
X0384431Y0191221D03*
X0384353Y0201190D03*
X0383353Y0211190D03*
X0384353Y0221190D03*
X0384282Y0235202D03*
X0383282Y0245202D03*
X0384282Y0255202D03*
X0384180Y0265182D03*
X0383180Y0275182D03*
X0384180Y0285182D03*
X0384117Y0299131D03*
X0383117Y0309131D03*
X0384117Y0319131D03*
X0384160Y0329103D03*
X0383160Y0339103D03*
X0384160Y0349103D03*
X0328813Y0258969D03*
X0318813Y0258969D03*
X0308813Y0258969D03*
X0298813Y0258969D03*
X0288813Y0258969D03*
X0288813Y0247969D03*
X0298813Y0247969D03*
X0308813Y0247969D03*
X0318813Y0247969D03*
X0328813Y0247969D03*
X0384369Y0137501D03*
X0383369Y0127501D03*
X0384369Y0117501D03*
X0384514Y0103485D03*
X0383514Y0093485D03*
X0384514Y0083485D03*
X0384424Y0073434D03*
X0383424Y0063434D03*
X0384424Y0053434D03*
X0328813Y0042233D03*
X0318813Y0042233D03*
X0308813Y0042233D03*
X0298813Y0042233D03*
X0288813Y0042233D03*
X0288813Y0031233D03*
X0298813Y0031233D03*
X0308813Y0031233D03*
X0318813Y0031233D03*
X0328813Y0031233D03*
D11*
X0338794Y0349331D03*
X0235349Y0349331D03*
X0104325Y0349331D03*
D12*
X0123223Y0360552D03*
X0104325Y0373938D03*
X0235349Y0373938D03*
X0254246Y0360552D03*
X0338794Y0373938D03*
X0357691Y0360552D03*
D13*
X0174955Y0352757D03*
X0174955Y0342757D03*
D14*
X0171428Y0329524D03*
X0171428Y0319524D03*
X0171428Y0309524D03*
X0171428Y0299524D03*
X0161428Y0299524D03*
X0161428Y0309524D03*
X0161428Y0319524D03*
X0161428Y0329524D03*
X0151428Y0339524D03*
X0151428Y0349524D03*
X0151428Y0359524D03*
X0141428Y0359524D03*
X0141428Y0369524D03*
X0141428Y0379524D03*
X0141428Y0389524D03*
X0151428Y0379524D03*
X0141428Y0349524D03*
X0141428Y0339524D03*
X0141428Y0329524D03*
X0141428Y0319524D03*
X0141428Y0309524D03*
X0141428Y0299524D03*
X0141428Y0289524D03*
X0141428Y0279524D03*
X0141428Y0269524D03*
X0141428Y0259524D03*
X0141428Y0249524D03*
X0141428Y0239524D03*
X0141428Y0229524D03*
X0141428Y0219524D03*
X0141428Y0209524D03*
X0151428Y0209524D03*
X0161428Y0209524D03*
X0161428Y0219524D03*
X0171428Y0219524D03*
X0171428Y0209524D03*
X0181428Y0209524D03*
X0191428Y0209524D03*
X0201428Y0209524D03*
X0201428Y0219524D03*
X0201428Y0229524D03*
X0201428Y0239524D03*
X0201428Y0249524D03*
X0201428Y0259524D03*
X0201428Y0269524D03*
X0201428Y0279524D03*
X0201428Y0289524D03*
X0201428Y0299524D03*
X0201428Y0309524D03*
X0201428Y0319524D03*
X0201428Y0329524D03*
X0201428Y0339524D03*
X0201428Y0349524D03*
X0201428Y0359524D03*
X0201428Y0369524D03*
X0201428Y0379524D03*
X0171428Y0239524D03*
X0171428Y0229524D03*
X0161428Y0229524D03*
X0161428Y0239524D03*
X0161428Y0199524D03*
X0161428Y0189524D03*
X0161428Y0179524D03*
X0171428Y0179524D03*
X0171428Y0189524D03*
X0171428Y0199524D03*
X0201428Y0199524D03*
X0201428Y0189524D03*
X0201428Y0179524D03*
X0201428Y0169524D03*
X0201428Y0159524D03*
X0171428Y0159524D03*
X0171428Y0169524D03*
X0161428Y0169524D03*
X0161428Y0159524D03*
X0141428Y0159524D03*
X0141428Y0169524D03*
X0141428Y0179524D03*
X0141428Y0189524D03*
X0141428Y0199524D03*
D15*
X0201428Y0389524D03*
D16*
X0224010Y0247520D03*
X0234010Y0247520D03*
X0244010Y0247520D03*
X0244010Y0227520D03*
X0234010Y0227520D03*
X0224010Y0227520D03*
X0125900Y0227520D03*
X0115900Y0227520D03*
X0105900Y0227520D03*
X0105900Y0247520D03*
X0115900Y0247520D03*
X0125900Y0247520D03*
X0125900Y0097914D03*
X0115900Y0097914D03*
X0105900Y0097914D03*
X0105900Y0077914D03*
X0115900Y0077914D03*
X0125900Y0077914D03*
X0224010Y0077914D03*
X0234010Y0077914D03*
X0244010Y0077914D03*
X0244010Y0097914D03*
X0234010Y0097914D03*
X0224010Y0097914D03*
D17*
X0274172Y0290513D03*
X0284172Y0290513D03*
D18*
X0314172Y0290513D03*
X0344172Y0290513D03*
D19*
X0174955Y0145788D03*
X0174955Y0127284D03*
X0174955Y0108780D03*
D20*
X0283065Y0074135D03*
X0293065Y0074135D03*
X0303065Y0074135D03*
X0066845Y0074135D03*
X0056845Y0074135D03*
X0046845Y0074135D03*
X0046845Y0318229D03*
X0056845Y0318229D03*
X0066845Y0318229D03*
X0283065Y0318229D03*
X0293065Y0318229D03*
X0303065Y0318229D03*
D21*
X0311963Y0347757D03*
X0274168Y0347757D03*
X0075742Y0347757D03*
X0037947Y0347757D03*
X0037947Y0103662D03*
X0075742Y0103662D03*
X0274168Y0103662D03*
X0311963Y0103662D03*
D22*
X0314927Y0118900D02*
X0269727Y0073700D01*
X0269727Y0042500D01*
X0286527Y0025700D01*
X0303327Y0025700D01*
X0308527Y0030900D01*
X0308813Y0031233D01*
X0311727Y0024100D02*
X0318527Y0030900D01*
X0318813Y0031233D01*
X0316927Y0024900D02*
X0314527Y0022500D01*
X0230927Y0022500D01*
X0216127Y0037300D01*
X0216127Y0041300D01*
X0228927Y0054100D01*
X0228927Y0079700D01*
X0231327Y0082100D01*
X0231327Y0084500D01*
X0238927Y0092100D01*
X0238927Y0109700D01*
X0191727Y0156900D01*
X0191727Y0158900D01*
X0188527Y0157700D02*
X0210927Y0135300D01*
X0210927Y0094900D01*
X0174127Y0058100D01*
X0130927Y0058100D01*
X0098527Y0025700D01*
X0072127Y0025700D01*
X0066927Y0030900D01*
X0066530Y0031233D01*
X0056530Y0031233D02*
X0056527Y0031300D01*
X0051327Y0036500D01*
X0051327Y0044500D01*
X0072127Y0065300D01*
X0072127Y0076500D01*
X0068127Y0080500D01*
X0068127Y0106900D01*
X0071727Y0110500D01*
X0071727Y0125300D01*
X0074927Y0130100D02*
X0053727Y0130100D01*
X0018527Y0094900D01*
X0014927Y0094900D01*
X0014424Y0094973D01*
X0014127Y0094900D01*
X0014127Y0092100D01*
X0008127Y0086100D01*
X0008127Y0071700D01*
X0014527Y0065300D01*
X0014550Y0064910D01*
X0014927Y0084900D02*
X0014550Y0084910D01*
X0014927Y0084900D02*
X0028927Y0084900D01*
X0014424Y0114973D02*
X0014527Y0115300D01*
X0038927Y0139700D01*
X0102127Y0139700D01*
X0121727Y0159300D01*
X0141327Y0159300D01*
X0141428Y0159524D01*
X0143327Y0164100D02*
X0099327Y0164100D01*
X0066927Y0196500D01*
X0066530Y0196548D01*
X0066530Y0207548D02*
X0066527Y0207700D01*
X0066527Y0210900D01*
X0044127Y0233300D01*
X0044127Y0280100D01*
X0047727Y0283700D01*
X0047727Y0288900D01*
X0047727Y0293300D02*
X0030927Y0276500D01*
X0030927Y0258100D01*
X0038127Y0258100D02*
X0038127Y0279300D01*
X0044527Y0285700D01*
X0064127Y0292100D02*
X0071327Y0292100D01*
X0076927Y0286500D01*
X0077278Y0286328D01*
X0072527Y0280900D02*
X0067327Y0275700D01*
X0067278Y0275328D01*
X0072527Y0280900D02*
X0099327Y0280900D01*
X0116927Y0298500D01*
X0120127Y0299700D02*
X0120127Y0297300D01*
X0098527Y0275700D01*
X0097327Y0275700D01*
X0097278Y0275328D01*
X0092527Y0270100D02*
X0087327Y0275300D01*
X0087278Y0275328D01*
X0092527Y0270100D02*
X0104127Y0270100D01*
X0128127Y0294100D01*
X0142527Y0294100D01*
X0157727Y0309300D01*
X0161327Y0309300D01*
X0161428Y0309524D01*
X0163327Y0304100D02*
X0156127Y0304100D01*
X0141727Y0289700D01*
X0141428Y0289524D01*
X0142927Y0274100D02*
X0119327Y0274100D01*
X0083727Y0238500D01*
X0083727Y0237300D01*
X0080527Y0234100D01*
X0076927Y0250500D02*
X0076927Y0275300D01*
X0077278Y0275328D01*
X0097278Y0286328D02*
X0097327Y0286500D01*
X0097327Y0310500D01*
X0105327Y0318500D01*
X0105327Y0322500D01*
X0110527Y0327700D01*
X0132927Y0327700D01*
X0139727Y0334500D01*
X0170527Y0334500D01*
X0170527Y0344500D01*
X0174927Y0348900D01*
X0174927Y0352500D01*
X0174955Y0352757D01*
X0174527Y0351300D01*
X0167727Y0351300D01*
X0167327Y0350900D01*
X0160527Y0350900D01*
X0158127Y0353300D01*
X0158127Y0359300D01*
X0143327Y0374100D01*
X0104527Y0374100D01*
X0104325Y0373938D01*
X0112927Y0369700D02*
X0102527Y0359300D01*
X0098127Y0359300D01*
X0078927Y0340100D01*
X0066527Y0340100D01*
X0046927Y0320500D01*
X0046927Y0318500D01*
X0046845Y0318229D01*
X0046527Y0320500D01*
X0043327Y0323700D01*
X0026127Y0323700D01*
X0026127Y0307700D01*
X0013327Y0294900D01*
X0013327Y0294100D01*
X0013026Y0293871D01*
X0012927Y0323700D02*
X0012829Y0323938D01*
X0012927Y0323700D02*
X0026127Y0323700D01*
X0068927Y0333700D02*
X0086127Y0333700D01*
X0099327Y0320500D01*
X0099452Y0320198D01*
X0110127Y0309700D02*
X0120127Y0299700D01*
X0104927Y0291300D02*
X0100527Y0295700D01*
X0100527Y0298500D01*
X0125327Y0270900D02*
X0140127Y0270900D01*
X0141327Y0269700D01*
X0141428Y0269524D01*
X0142927Y0274100D02*
X0156927Y0288100D01*
X0156927Y0291700D01*
X0161327Y0299300D02*
X0161327Y0282900D01*
X0143327Y0264900D01*
X0130127Y0264900D01*
X0129727Y0265300D01*
X0114927Y0265300D01*
X0105327Y0255700D01*
X0106527Y0252500D02*
X0103727Y0252500D01*
X0100527Y0249300D01*
X0100527Y0232900D01*
X0105727Y0227700D01*
X0105900Y0227520D01*
X0103727Y0234100D02*
X0107327Y0237700D01*
X0110927Y0237700D01*
X0115727Y0242500D01*
X0115727Y0247300D01*
X0115900Y0247520D01*
X0114127Y0255300D02*
X0109327Y0255300D01*
X0106527Y0252500D01*
X0128527Y0257300D02*
X0128527Y0262100D01*
X0128527Y0257300D02*
X0132527Y0253300D01*
X0132527Y0224100D01*
X0112127Y0203700D01*
X0112127Y0188100D01*
X0118127Y0182100D01*
X0115327Y0189300D02*
X0141327Y0189300D01*
X0141428Y0189524D01*
X0140127Y0184900D02*
X0150127Y0184900D01*
X0159727Y0194500D01*
X0186527Y0194500D01*
X0201327Y0179700D01*
X0201428Y0179524D01*
X0200527Y0184100D02*
X0203327Y0184100D01*
X0247727Y0139700D01*
X0246527Y0136500D02*
X0363327Y0136500D01*
X0384127Y0157300D01*
X0384369Y0157501D01*
X0384127Y0169700D02*
X0384127Y0170900D01*
X0384431Y0171221D01*
X0384127Y0169700D02*
X0360127Y0145700D01*
X0328927Y0145700D01*
X0328813Y0145446D01*
X0336127Y0148900D02*
X0328927Y0156100D01*
X0328813Y0156446D01*
X0328527Y0156100D01*
X0326127Y0156100D01*
X0320927Y0150900D01*
X0264127Y0150900D01*
X0250927Y0164100D01*
X0263327Y0162100D02*
X0292927Y0162100D01*
X0298527Y0156500D01*
X0298813Y0156446D01*
X0308813Y0156446D02*
X0308927Y0156500D01*
X0319727Y0167300D01*
X0340527Y0167300D01*
X0336127Y0148900D02*
X0356127Y0148900D01*
X0384127Y0117300D02*
X0384369Y0117501D01*
X0384127Y0117300D02*
X0377727Y0110900D01*
X0377727Y0091300D01*
X0384127Y0084900D01*
X0384127Y0083700D01*
X0384514Y0083485D01*
X0384527Y0083300D01*
X0390127Y0077700D01*
X0390127Y0062500D01*
X0384527Y0056900D01*
X0384527Y0053700D01*
X0384424Y0053434D01*
X0322927Y0118900D02*
X0314927Y0118900D01*
X0311327Y0138100D02*
X0318527Y0145300D01*
X0318813Y0145446D01*
X0311327Y0138100D02*
X0270127Y0138100D01*
X0214127Y0194100D01*
X0200527Y0194100D01*
X0186927Y0207700D01*
X0186927Y0210500D01*
X0181327Y0216100D01*
X0178527Y0216100D01*
X0173327Y0214100D02*
X0176927Y0210500D01*
X0176927Y0207700D01*
X0200527Y0184100D01*
X0201727Y0189300D02*
X0201428Y0189524D01*
X0201727Y0189300D02*
X0216927Y0174100D01*
X0217727Y0174100D01*
X0208527Y0174500D02*
X0246527Y0136500D01*
X0270927Y0139700D02*
X0292927Y0139700D01*
X0298527Y0145300D01*
X0298813Y0145446D01*
X0270927Y0139700D02*
X0206527Y0204100D01*
X0200527Y0204100D01*
X0196927Y0207700D01*
X0196927Y0210500D01*
X0188127Y0219300D01*
X0171727Y0219300D01*
X0171428Y0219524D01*
X0170527Y0224100D02*
X0190527Y0224100D01*
X0200527Y0214100D01*
X0211327Y0214100D01*
X0263327Y0162100D01*
X0270127Y0179700D02*
X0254527Y0179700D01*
X0210127Y0224100D01*
X0200527Y0224100D01*
X0189727Y0234900D01*
X0178527Y0234900D01*
X0177727Y0239300D02*
X0172927Y0234500D01*
X0139727Y0234500D01*
X0134127Y0240100D01*
X0134127Y0256100D01*
X0131727Y0258500D01*
X0146927Y0266100D02*
X0146927Y0247700D01*
X0161428Y0229524D02*
X0161727Y0229300D01*
X0165327Y0229300D01*
X0170527Y0224100D01*
X0165327Y0219300D02*
X0170527Y0214100D01*
X0173327Y0214100D01*
X0165327Y0219300D02*
X0161727Y0219300D01*
X0161428Y0219524D01*
X0177727Y0239300D02*
X0201327Y0239300D01*
X0201428Y0239524D01*
X0201428Y0249524D02*
X0201727Y0249700D01*
X0212927Y0260900D01*
X0218927Y0260900D01*
X0239727Y0256900D02*
X0239727Y0250100D01*
X0238927Y0249300D01*
X0238927Y0241700D01*
X0231327Y0234100D01*
X0231327Y0231700D01*
X0228927Y0229300D01*
X0228927Y0214100D01*
X0243327Y0199700D01*
X0244127Y0203300D02*
X0249727Y0197700D01*
X0244127Y0203300D02*
X0244127Y0227300D01*
X0244010Y0227520D01*
X0243727Y0227700D01*
X0234127Y0227700D01*
X0234010Y0227520D01*
X0220127Y0209700D02*
X0210527Y0219300D01*
X0201727Y0219300D01*
X0201428Y0219524D01*
X0185327Y0189300D02*
X0171727Y0189300D01*
X0171428Y0189524D01*
X0178927Y0184100D02*
X0188527Y0174500D01*
X0188527Y0157700D01*
X0195727Y0155300D02*
X0250527Y0100500D01*
X0250527Y0073300D01*
X0217727Y0040500D01*
X0217727Y0038100D01*
X0231727Y0024100D01*
X0311727Y0024100D01*
X0308813Y0042233D02*
X0308527Y0042500D01*
X0299727Y0051300D01*
X0299727Y0062100D01*
X0298527Y0042500D02*
X0298813Y0042233D01*
X0298527Y0042500D02*
X0276927Y0064100D01*
X0276927Y0072100D01*
X0244010Y0077914D02*
X0243727Y0078100D01*
X0234127Y0078100D01*
X0234010Y0077914D01*
X0228927Y0088100D02*
X0225727Y0088100D01*
X0192527Y0054900D01*
X0141727Y0054900D01*
X0132927Y0062500D02*
X0158927Y0062500D01*
X0161327Y0064900D01*
X0172927Y0065300D02*
X0178927Y0065300D01*
X0209327Y0095700D01*
X0209327Y0132500D01*
X0203327Y0138500D01*
X0195727Y0155300D02*
X0195727Y0171700D01*
X0200127Y0174500D02*
X0208527Y0174500D01*
X0200127Y0174500D02*
X0185327Y0189300D01*
X0178927Y0184100D02*
X0159327Y0184100D01*
X0154927Y0179700D01*
X0141727Y0179700D01*
X0141428Y0179524D01*
X0140127Y0184900D02*
X0124127Y0168900D01*
X0125327Y0165700D02*
X0114127Y0165700D01*
X0096527Y0183300D01*
X0096527Y0196100D01*
X0096530Y0196548D01*
X0096527Y0196900D01*
X0093727Y0196900D01*
X0088527Y0202100D01*
X0046127Y0202100D01*
X0044927Y0200900D01*
X0024527Y0200900D01*
X0013727Y0211700D01*
X0013557Y0211820D01*
X0013727Y0212100D01*
X0023727Y0222100D01*
X0023727Y0265300D01*
X0036927Y0210900D02*
X0043727Y0204100D01*
X0051327Y0192900D02*
X0029727Y0192900D01*
X0051327Y0192900D02*
X0089727Y0154500D01*
X0112527Y0154500D01*
X0125327Y0165700D02*
X0133727Y0174100D01*
X0163327Y0174100D01*
X0166127Y0171300D01*
X0166127Y0167700D01*
X0161727Y0163300D01*
X0161727Y0159700D01*
X0161428Y0159524D01*
X0155727Y0158900D02*
X0165327Y0149300D01*
X0166927Y0149300D01*
X0166927Y0116900D01*
X0174927Y0108900D01*
X0174955Y0108780D01*
X0170127Y0121300D02*
X0168527Y0122900D01*
X0168527Y0148500D01*
X0176127Y0156100D01*
X0176127Y0171300D01*
X0171727Y0175700D01*
X0171727Y0179300D01*
X0171428Y0179524D01*
X0161428Y0169524D02*
X0161327Y0169300D01*
X0117727Y0125700D01*
X0117727Y0120100D01*
X0092927Y0095300D01*
X0096127Y0095300D02*
X0096127Y0061700D01*
X0076927Y0042500D01*
X0076530Y0042233D01*
X0066927Y0042500D02*
X0066530Y0042233D01*
X0066927Y0042500D02*
X0084927Y0060500D01*
X0084927Y0091700D01*
X0114527Y0121300D01*
X0114527Y0125300D01*
X0110127Y0125300D02*
X0106527Y0125300D01*
X0098527Y0133300D01*
X0096927Y0133300D01*
X0095727Y0127300D02*
X0098127Y0127300D01*
X0103327Y0122100D01*
X0104927Y0116100D02*
X0096927Y0124100D01*
X0095727Y0127300D02*
X0083327Y0114900D01*
X0083327Y0068900D01*
X0056927Y0042500D01*
X0056530Y0042233D01*
X0096530Y0042233D02*
X0096927Y0042500D01*
X0115727Y0061300D01*
X0115327Y0046900D02*
X0117327Y0046900D01*
X0132927Y0062500D01*
X0125900Y0077914D02*
X0125727Y0078100D01*
X0116127Y0078100D01*
X0115900Y0077914D01*
X0096127Y0095300D02*
X0129327Y0128500D01*
X0143727Y0147300D02*
X0144927Y0148500D01*
X0152127Y0148500D01*
X0153327Y0147300D01*
X0162527Y0147300D01*
X0166927Y0149300D02*
X0171327Y0153700D01*
X0171327Y0159300D01*
X0171428Y0159524D01*
X0174955Y0145788D02*
X0175327Y0145700D01*
X0175327Y0139700D01*
X0185727Y0129300D01*
X0185727Y0080900D01*
X0228927Y0088100D02*
X0233727Y0092900D01*
X0233727Y0097700D01*
X0234010Y0097914D01*
X0268127Y0190900D02*
X0270927Y0190900D01*
X0268127Y0190900D02*
X0254527Y0204500D01*
X0260527Y0200900D02*
X0267327Y0194100D01*
X0293327Y0194100D01*
X0298527Y0188900D01*
X0298813Y0188556D01*
X0282127Y0197700D02*
X0277327Y0202500D01*
X0277327Y0244900D01*
X0267727Y0254500D01*
X0267727Y0256500D01*
X0270927Y0242500D02*
X0253727Y0259700D01*
X0253727Y0287300D01*
X0259727Y0293300D01*
X0259727Y0296900D01*
X0262927Y0294100D02*
X0256927Y0288100D01*
X0256927Y0276900D01*
X0250527Y0269700D02*
X0250527Y0252900D01*
X0266927Y0236500D01*
X0266927Y0198900D01*
X0263727Y0202100D02*
X0263727Y0237300D01*
X0248927Y0252100D01*
X0248927Y0268900D01*
X0215727Y0302100D01*
X0215727Y0363700D01*
X0210127Y0369300D01*
X0201727Y0369300D01*
X0201428Y0369524D01*
X0196527Y0368100D02*
X0200527Y0364100D01*
X0210927Y0364100D01*
X0224127Y0365700D02*
X0232127Y0373700D01*
X0234927Y0373700D01*
X0235349Y0373938D01*
X0235727Y0374100D01*
X0338527Y0374100D01*
X0338794Y0373938D01*
X0347727Y0383300D02*
X0242927Y0383300D01*
X0242127Y0382500D01*
X0239727Y0382500D01*
X0238127Y0384100D01*
X0198927Y0384100D01*
X0179327Y0364500D01*
X0179327Y0346900D01*
X0175327Y0342900D01*
X0174955Y0342757D01*
X0170527Y0334500D02*
X0170527Y0330500D01*
X0171327Y0329700D01*
X0171428Y0329524D01*
X0178127Y0321300D02*
X0180527Y0321300D01*
X0190527Y0311300D01*
X0190527Y0304100D01*
X0200527Y0294100D01*
X0213327Y0294100D01*
X0247327Y0260100D01*
X0247327Y0251300D01*
X0260527Y0238100D01*
X0260527Y0200900D01*
X0288927Y0226100D02*
X0294127Y0220900D01*
X0370127Y0220900D01*
X0384127Y0234900D01*
X0384282Y0235202D01*
X0384180Y0265182D02*
X0384127Y0265300D01*
X0384127Y0266500D01*
X0377727Y0272900D01*
X0377727Y0292900D01*
X0383727Y0298900D01*
X0384117Y0299131D01*
X0383727Y0299300D01*
X0377327Y0305700D01*
X0377327Y0320100D01*
X0384127Y0326900D01*
X0384127Y0328900D01*
X0384160Y0329103D01*
X0366927Y0356900D02*
X0366927Y0364100D01*
X0347727Y0383300D01*
X0366927Y0356900D02*
X0352927Y0342900D01*
X0352927Y0277300D01*
X0344927Y0273300D02*
X0344927Y0246500D01*
X0340927Y0242500D01*
X0304127Y0242500D01*
X0298927Y0247700D01*
X0298813Y0247969D01*
X0288927Y0247700D02*
X0288813Y0247969D01*
X0288927Y0247700D02*
X0288927Y0226100D01*
X0280527Y0234900D02*
X0280527Y0247300D01*
X0286527Y0253300D01*
X0312927Y0253300D01*
X0318527Y0258900D01*
X0318813Y0258969D01*
X0317727Y0275700D02*
X0337727Y0275700D01*
X0340127Y0273300D01*
X0340127Y0259300D01*
X0338527Y0257700D01*
X0341727Y0247700D02*
X0341727Y0274100D01*
X0338527Y0277300D01*
X0318527Y0277300D01*
X0313727Y0282100D01*
X0274927Y0282100D01*
X0266127Y0290900D01*
X0264127Y0290900D01*
X0262927Y0294100D02*
X0265327Y0294100D01*
X0268527Y0290900D01*
X0274127Y0290900D01*
X0274172Y0290513D01*
X0268927Y0285700D02*
X0274127Y0280500D01*
X0312927Y0280500D01*
X0317727Y0275700D01*
X0319327Y0278900D02*
X0339327Y0278900D01*
X0344927Y0273300D01*
X0344172Y0290513D02*
X0344127Y0290900D01*
X0317727Y0317300D01*
X0314527Y0325300D02*
X0338527Y0349300D01*
X0338794Y0349331D01*
X0314527Y0325300D02*
X0314527Y0290900D01*
X0314172Y0290513D01*
X0319327Y0278900D02*
X0294527Y0303700D01*
X0256927Y0303700D01*
X0217327Y0343300D01*
X0217327Y0378900D01*
X0214527Y0381700D01*
X0212127Y0381700D01*
X0210127Y0379700D01*
X0201727Y0379700D01*
X0201428Y0379524D01*
X0205327Y0385700D02*
X0201727Y0389300D01*
X0201428Y0389524D01*
X0201327Y0389300D01*
X0175327Y0363300D01*
X0175327Y0352900D01*
X0174955Y0352757D01*
X0195727Y0368100D02*
X0196527Y0368100D01*
X0205327Y0385700D02*
X0240927Y0385700D01*
X0224127Y0365700D02*
X0224127Y0346100D01*
X0242927Y0327300D01*
X0248527Y0327300D01*
X0248527Y0306900D02*
X0248527Y0288100D01*
X0252127Y0284500D01*
X0252127Y0256900D01*
X0270927Y0238100D01*
X0250527Y0269700D02*
X0246927Y0273300D01*
X0246927Y0285300D01*
X0262127Y0285700D02*
X0268927Y0285700D01*
X0280927Y0300500D02*
X0287327Y0300500D01*
X0302527Y0285300D01*
X0371727Y0200900D02*
X0384127Y0200900D01*
X0384353Y0201190D01*
X0371727Y0200900D02*
X0359327Y0188500D01*
X0328927Y0188500D01*
X0328813Y0188556D01*
X0328927Y0199300D02*
X0328813Y0199556D01*
X0328927Y0199300D02*
X0348527Y0199300D01*
X0356127Y0191700D01*
X0222127Y0324500D02*
X0222127Y0331700D01*
X0218927Y0334900D01*
X0209327Y0321700D02*
X0201727Y0329300D01*
X0201428Y0329524D01*
X0209327Y0321700D02*
X0209327Y0311300D01*
X0179327Y0318100D02*
X0179327Y0270900D01*
X0194127Y0256100D01*
X0194127Y0266500D02*
X0194127Y0272100D01*
X0201327Y0279300D01*
X0201428Y0279524D01*
X0176127Y0297700D02*
X0176127Y0319300D01*
X0178127Y0321300D01*
X0163327Y0304100D02*
X0166127Y0301300D01*
X0166127Y0285300D01*
X0146927Y0266100D01*
X0171727Y0251700D02*
X0171727Y0293300D01*
X0176127Y0297700D01*
X0161428Y0299524D02*
X0161327Y0299300D01*
X0141428Y0369524D02*
X0141327Y0369700D01*
X0112927Y0369700D01*
X0100527Y0389300D02*
X0068127Y0356900D01*
X0100527Y0389300D02*
X0141327Y0389300D01*
X0141428Y0389524D01*
X0125727Y0227700D02*
X0116127Y0227700D01*
X0115900Y0227520D01*
X0125727Y0227700D02*
X0125900Y0227520D01*
X0122927Y0210100D02*
X0122927Y0194500D01*
X0127727Y0186100D02*
X0112927Y0171300D01*
X0102127Y0190100D02*
X0102127Y0217700D01*
X0134527Y0203700D02*
X0136527Y0203700D01*
X0140527Y0199700D01*
X0141327Y0199700D01*
X0141428Y0199524D01*
X0143327Y0164100D02*
X0146127Y0161300D01*
X0146127Y0157700D01*
X0142127Y0153700D01*
X0141327Y0153700D01*
X0086127Y0153700D02*
X0075327Y0142900D01*
X0074927Y0142900D01*
X0047327Y0142900D02*
X0012927Y0142900D01*
X0012527Y0143300D01*
X0012294Y0143509D01*
D23*
X0041327Y0146500D03*
X0047327Y0142900D03*
X0074927Y0142900D03*
X0086127Y0153700D03*
X0096927Y0133300D03*
X0096927Y0124100D03*
X0103327Y0122100D03*
X0104927Y0116100D03*
X0110127Y0125300D03*
X0114527Y0125300D03*
X0108127Y0134500D03*
X0112527Y0154500D03*
X0112927Y0171300D03*
X0124127Y0168900D03*
X0118127Y0182100D03*
X0115327Y0189300D03*
X0122927Y0194500D03*
X0127727Y0186100D03*
X0134127Y0193700D03*
X0134527Y0203700D03*
X0134127Y0212100D03*
X0124927Y0221300D03*
X0122927Y0210100D03*
X0102127Y0217700D03*
X0103727Y0234100D03*
X0105327Y0255700D03*
X0114127Y0255300D03*
X0128527Y0262100D03*
X0131727Y0258500D03*
X0125327Y0270900D03*
X0132127Y0282900D03*
X0116927Y0298500D03*
X0110127Y0309700D03*
X0100527Y0298500D03*
X0104927Y0291300D03*
X0104127Y0274900D03*
X0127727Y0302100D03*
X0134127Y0316900D03*
X0124127Y0318500D03*
X0127327Y0331300D03*
X0130527Y0338500D03*
X0161327Y0344500D03*
X0168927Y0347700D03*
X0161727Y0354500D03*
X0184127Y0384500D03*
X0193327Y0386100D03*
X0194127Y0374500D03*
X0195727Y0368100D03*
X0210927Y0364100D03*
X0213327Y0378100D03*
X0227727Y0364500D03*
X0220927Y0344500D03*
X0212127Y0344500D03*
X0218927Y0334900D03*
X0210527Y0329700D03*
X0222127Y0324500D03*
X0209327Y0311300D03*
X0193327Y0317700D03*
X0179327Y0318100D03*
X0168127Y0314500D03*
X0156927Y0291700D03*
X0188927Y0266100D03*
X0194127Y0266500D03*
X0194127Y0256100D03*
X0171727Y0251700D03*
X0178527Y0234900D03*
X0178527Y0216100D03*
X0147327Y0190900D03*
X0155727Y0158900D03*
X0162527Y0147300D03*
X0150927Y0144900D03*
X0147327Y0141300D03*
X0143727Y0147300D03*
X0141327Y0153700D03*
X0129327Y0128500D03*
X0092927Y0095300D03*
X0071727Y0125300D03*
X0074927Y0130100D03*
X0028927Y0084900D03*
X0115727Y0061300D03*
X0115327Y0046900D03*
X0141727Y0054900D03*
X0140527Y0066100D03*
X0161327Y0064900D03*
X0172927Y0065300D03*
X0185727Y0080900D03*
X0181727Y0086900D03*
X0182127Y0091700D03*
X0199327Y0094900D03*
X0205727Y0112100D03*
X0203327Y0138500D03*
X0221327Y0138500D03*
X0222127Y0148100D03*
X0217727Y0174100D03*
X0195727Y0171700D03*
X0184927Y0173300D03*
X0191727Y0158900D03*
X0170127Y0121300D03*
X0102127Y0190100D03*
X0080527Y0234100D03*
X0080127Y0238500D03*
X0076927Y0250500D03*
X0068127Y0250900D03*
X0060927Y0258100D03*
X0047727Y0278900D03*
X0044527Y0285700D03*
X0047727Y0288900D03*
X0047727Y0293300D03*
X0039727Y0290500D03*
X0032527Y0283300D03*
X0034527Y0265300D03*
X0038127Y0258100D03*
X0030927Y0258100D03*
X0023727Y0265300D03*
X0033327Y0224900D03*
X0044127Y0214100D03*
X0036927Y0210900D03*
X0043727Y0204100D03*
X0052927Y0219700D03*
X0029727Y0192900D03*
X0033327Y0184500D03*
X0064127Y0292100D03*
X0076127Y0302500D03*
X0068927Y0333700D03*
X0068127Y0356900D03*
X0043727Y0327300D03*
X0022527Y0308900D03*
X0018927Y0327300D03*
X0023327Y0362500D03*
X0146927Y0247700D03*
X0193327Y0294900D03*
X0218927Y0260900D03*
X0226927Y0264500D03*
X0239727Y0256900D03*
X0243727Y0258900D03*
X0259727Y0258900D03*
X0267727Y0256500D03*
X0270927Y0242500D03*
X0270927Y0238100D03*
X0280527Y0234900D03*
X0295327Y0224500D03*
X0301727Y0238900D03*
X0312527Y0228100D03*
X0341727Y0247700D03*
X0338527Y0257700D03*
X0336527Y0272100D03*
X0352927Y0277300D03*
X0356527Y0295700D03*
X0367327Y0312900D03*
X0317727Y0317300D03*
X0299727Y0308500D03*
X0280927Y0300500D03*
X0264927Y0307300D03*
X0259727Y0296900D03*
X0264127Y0290900D03*
X0262127Y0285700D03*
X0264127Y0281700D03*
X0256927Y0276900D03*
X0246927Y0285300D03*
X0231327Y0281700D03*
X0248527Y0306900D03*
X0248527Y0327300D03*
X0194927Y0347700D03*
X0240927Y0385700D03*
X0302527Y0285300D03*
X0280927Y0274100D03*
X0273727Y0214500D03*
X0281727Y0206500D03*
X0282127Y0197700D03*
X0270927Y0190900D03*
X0266927Y0198900D03*
X0263727Y0202100D03*
X0254527Y0204500D03*
X0249727Y0197700D03*
X0243327Y0199700D03*
X0220127Y0209700D03*
X0250927Y0164100D03*
X0270127Y0179700D03*
X0282927Y0172100D03*
X0303327Y0170900D03*
X0340527Y0167300D03*
X0356127Y0148900D03*
X0378127Y0168500D03*
X0356127Y0191700D03*
X0372927Y0197300D03*
X0356527Y0217300D03*
X0329327Y0122500D03*
X0322927Y0118900D03*
X0276927Y0072100D03*
X0280927Y0050100D03*
X0273327Y0046500D03*
X0299727Y0062100D03*
X0316927Y0024900D03*
X0221327Y0039300D03*
X0247727Y0139700D03*
D24*
X0048527Y0056100D02*
X0048527Y0030900D01*
X0059727Y0019700D01*
X0325727Y0019700D01*
X0334527Y0028500D01*
X0334527Y0044900D01*
X0328927Y0050500D01*
X0320927Y0042500D01*
X0319327Y0042500D01*
X0318813Y0042233D01*
X0318527Y0042500D01*
X0303327Y0057700D01*
X0303327Y0074100D01*
X0303065Y0074135D01*
X0305327Y0079700D02*
X0279327Y0079700D01*
X0273327Y0073700D01*
X0273327Y0057700D01*
X0280927Y0050100D01*
X0288527Y0042500D01*
X0288813Y0042233D01*
X0288527Y0031300D02*
X0288813Y0031233D01*
X0288527Y0031300D02*
X0273327Y0046500D01*
X0305327Y0079700D02*
X0311327Y0073700D01*
X0384127Y0073700D01*
X0384424Y0073434D01*
X0383424Y0063434D02*
X0383327Y0063300D01*
X0341727Y0063300D01*
X0328927Y0050500D01*
X0383514Y0093485D02*
X0383727Y0093700D01*
X0390527Y0100500D01*
X0390527Y0119700D01*
X0383727Y0126500D01*
X0383727Y0127300D01*
X0383369Y0127501D01*
X0383727Y0128100D01*
X0390527Y0134900D01*
X0390527Y0173700D01*
X0383727Y0180500D01*
X0383431Y0181221D01*
X0383727Y0181300D01*
X0383727Y0182100D01*
X0390527Y0188900D01*
X0390527Y0204100D01*
X0383727Y0210900D01*
X0383353Y0211190D01*
X0382927Y0210900D01*
X0331727Y0210900D01*
X0320527Y0199700D01*
X0318927Y0199700D01*
X0318813Y0199556D01*
X0306527Y0217300D02*
X0289327Y0200100D01*
X0288813Y0199556D01*
X0288527Y0199700D01*
X0281727Y0206500D01*
X0273727Y0214500D02*
X0274527Y0215300D01*
X0274527Y0244100D01*
X0259727Y0258900D01*
X0243727Y0258900D02*
X0218127Y0284500D01*
X0199327Y0284500D01*
X0193327Y0290500D01*
X0193327Y0294900D01*
X0199327Y0304500D02*
X0208527Y0304500D01*
X0231327Y0281700D01*
X0226927Y0264500D02*
X0199327Y0264500D01*
X0197727Y0262900D01*
X0192127Y0262900D01*
X0188927Y0266100D01*
X0203727Y0244500D02*
X0218527Y0229700D01*
X0218527Y0219300D01*
X0254527Y0183300D01*
X0271727Y0183300D01*
X0282927Y0172100D01*
X0285327Y0174500D01*
X0354127Y0174500D01*
X0370527Y0190900D01*
X0384127Y0190900D01*
X0384431Y0191221D01*
X0372927Y0197300D02*
X0358127Y0182500D01*
X0296527Y0182500D01*
X0290527Y0188500D01*
X0288927Y0188500D01*
X0288813Y0188556D01*
X0303327Y0170900D02*
X0375727Y0170900D01*
X0378127Y0168500D01*
X0383369Y0147501D02*
X0383327Y0147300D01*
X0369727Y0133700D01*
X0231327Y0133700D01*
X0205727Y0159300D01*
X0201727Y0159300D01*
X0201428Y0159524D01*
X0201727Y0168500D02*
X0222127Y0148100D01*
X0222527Y0138500D02*
X0230127Y0130900D01*
X0377727Y0130900D01*
X0384127Y0137300D01*
X0384369Y0137501D01*
X0329327Y0122500D02*
X0304527Y0122500D01*
X0221327Y0039300D01*
X0178927Y0068900D02*
X0143327Y0068900D01*
X0140527Y0066100D01*
X0110527Y0066100D01*
X0086927Y0042500D01*
X0086530Y0042233D01*
X0086527Y0041700D01*
X0086527Y0031300D01*
X0086530Y0031233D01*
X0048527Y0056100D02*
X0066527Y0074100D01*
X0066845Y0074135D01*
X0056845Y0074135D02*
X0056527Y0074100D01*
X0054927Y0074100D01*
X0039727Y0058900D01*
X0012127Y0058900D01*
X0005327Y0065700D01*
X0005327Y0184900D01*
X0016927Y0196500D01*
X0016527Y0196900D01*
X0016527Y0200500D01*
X0006527Y0210500D01*
X0006527Y0254900D01*
X0013327Y0261700D01*
X0013380Y0261891D01*
X0020127Y0268900D02*
X0025327Y0268900D01*
X0027327Y0266900D01*
X0027327Y0225700D01*
X0045327Y0207700D01*
X0056527Y0207700D01*
X0056530Y0207548D01*
X0056530Y0196548D02*
X0056527Y0196500D01*
X0016927Y0196500D01*
X0033327Y0184500D02*
X0012527Y0163700D01*
X0012294Y0163509D01*
X0013294Y0153509D02*
X0013327Y0153300D01*
X0020127Y0146500D01*
X0041327Y0146500D01*
X0045327Y0136900D02*
X0013727Y0105300D01*
X0013424Y0104973D01*
X0045327Y0136900D02*
X0098527Y0136900D01*
X0100927Y0134500D01*
X0108127Y0134500D01*
X0147327Y0141300D02*
X0147327Y0121300D01*
X0181727Y0086900D01*
X0182127Y0091700D02*
X0150927Y0122900D01*
X0150927Y0144900D01*
X0184927Y0133700D02*
X0199327Y0119300D01*
X0199327Y0094900D01*
X0205727Y0095700D02*
X0178927Y0068900D01*
X0205727Y0095700D02*
X0205727Y0112100D01*
X0184927Y0133700D02*
X0184927Y0173300D01*
X0201428Y0169524D02*
X0201727Y0169300D01*
X0201727Y0168500D01*
X0221327Y0138500D02*
X0222527Y0138500D01*
X0161428Y0199524D02*
X0161327Y0199700D01*
X0148527Y0199700D01*
X0143727Y0204500D01*
X0139327Y0204500D01*
X0134127Y0209700D01*
X0134127Y0212100D01*
X0130527Y0213700D02*
X0136127Y0219300D01*
X0141327Y0219300D01*
X0141428Y0219524D01*
X0141327Y0228500D02*
X0127727Y0214900D01*
X0127727Y0200100D01*
X0134127Y0193700D01*
X0138527Y0194500D02*
X0143727Y0194500D01*
X0147327Y0190900D01*
X0138527Y0194500D02*
X0130527Y0202500D01*
X0130527Y0213700D01*
X0124927Y0221300D02*
X0088127Y0221300D01*
X0068127Y0241300D01*
X0068127Y0250900D01*
X0073327Y0248900D02*
X0075327Y0246900D01*
X0084527Y0246900D01*
X0120527Y0282900D01*
X0132127Y0282900D01*
X0141327Y0279300D02*
X0141428Y0279524D01*
X0141327Y0279300D02*
X0120927Y0279300D01*
X0080127Y0238500D01*
X0073327Y0248900D02*
X0073327Y0254900D01*
X0057327Y0270900D01*
X0057327Y0275300D01*
X0057278Y0275328D01*
X0051327Y0272900D02*
X0051327Y0302900D01*
X0060927Y0312500D01*
X0086927Y0286500D01*
X0087278Y0286328D01*
X0076127Y0302500D02*
X0076127Y0316900D01*
X0065327Y0327700D01*
X0065327Y0335300D01*
X0067327Y0337300D01*
X0106927Y0337300D01*
X0114127Y0344500D01*
X0143727Y0344500D01*
X0148527Y0339700D01*
X0151327Y0339700D01*
X0151428Y0339524D01*
X0161327Y0344500D02*
X0165727Y0344500D01*
X0168927Y0347700D01*
X0161727Y0354500D02*
X0193327Y0386100D01*
X0184127Y0384500D02*
X0100927Y0384500D01*
X0043727Y0327300D01*
X0056527Y0318100D02*
X0056845Y0318229D01*
X0056527Y0318100D02*
X0020127Y0281700D01*
X0020127Y0268900D01*
X0020127Y0240500D01*
X0013727Y0234100D01*
X0013727Y0232100D01*
X0013557Y0231820D01*
X0033327Y0224900D02*
X0034527Y0226100D01*
X0034527Y0265300D01*
X0047727Y0272500D02*
X0047727Y0278900D01*
X0047727Y0272500D02*
X0060927Y0259300D01*
X0060927Y0258100D01*
X0064527Y0259700D02*
X0051327Y0272900D01*
X0064527Y0259700D02*
X0064527Y0240900D01*
X0086527Y0218900D01*
X0086527Y0207700D01*
X0086530Y0207548D01*
X0052927Y0219700D02*
X0049727Y0219700D01*
X0044127Y0214100D01*
X0104127Y0274900D02*
X0127727Y0298500D01*
X0127727Y0302100D01*
X0126927Y0314900D02*
X0122527Y0314900D01*
X0117327Y0320100D01*
X0110927Y0320100D01*
X0110852Y0320198D01*
X0124127Y0318500D02*
X0130127Y0324500D01*
X0133327Y0324500D01*
X0138127Y0329300D01*
X0141327Y0329300D01*
X0141428Y0329524D01*
X0139327Y0324500D02*
X0189327Y0324500D01*
X0199327Y0334500D01*
X0205727Y0334500D01*
X0210527Y0329700D01*
X0212127Y0344500D02*
X0199327Y0344500D01*
X0196127Y0347700D01*
X0194927Y0347700D01*
X0220927Y0344500D02*
X0222127Y0344500D01*
X0259327Y0307300D01*
X0264927Y0307300D01*
X0286927Y0306500D02*
X0296527Y0306500D01*
X0298127Y0304900D01*
X0301327Y0304900D01*
X0311727Y0315300D01*
X0311727Y0336100D01*
X0328127Y0352500D01*
X0328127Y0353300D01*
X0334527Y0359700D01*
X0343327Y0359700D01*
X0349327Y0353700D01*
X0349327Y0247300D01*
X0326527Y0224500D01*
X0295327Y0224500D01*
X0306527Y0217300D02*
X0356527Y0217300D01*
X0383282Y0245202D02*
X0383327Y0245300D01*
X0390127Y0252100D01*
X0390127Y0267300D01*
X0383327Y0274100D01*
X0383327Y0274900D01*
X0383180Y0275182D01*
X0383727Y0275700D01*
X0390127Y0282100D01*
X0390127Y0301300D01*
X0383327Y0308100D01*
X0383327Y0308900D01*
X0383117Y0309131D01*
X0367327Y0312900D02*
X0367327Y0272100D01*
X0384127Y0255300D01*
X0384282Y0255202D01*
X0356527Y0295700D02*
X0356527Y0321300D01*
X0384127Y0348900D01*
X0384160Y0349103D01*
X0312127Y0277700D02*
X0317727Y0272100D01*
X0336527Y0272100D01*
X0328527Y0259300D02*
X0328813Y0258969D01*
X0328527Y0259300D02*
X0322927Y0264900D01*
X0320927Y0264900D01*
X0311727Y0274100D01*
X0280927Y0274100D01*
X0273327Y0277700D02*
X0312127Y0277700D01*
X0299727Y0308500D02*
X0299727Y0314900D01*
X0302927Y0318100D01*
X0303065Y0318229D01*
X0293065Y0318229D02*
X0292927Y0318500D01*
X0290927Y0318500D01*
X0258527Y0350900D01*
X0248527Y0350900D01*
X0235327Y0364100D01*
X0228127Y0364100D01*
X0227727Y0364500D01*
X0235349Y0349331D02*
X0235727Y0349300D01*
X0244127Y0349300D01*
X0286927Y0306500D01*
X0269327Y0281700D02*
X0264127Y0281700D01*
X0269327Y0281700D02*
X0273327Y0277700D01*
X0301727Y0238900D02*
X0312527Y0228100D01*
X0203727Y0244500D02*
X0159327Y0244500D01*
X0154527Y0239700D01*
X0141727Y0239700D01*
X0141428Y0239524D01*
X0141428Y0229524D02*
X0141327Y0229300D01*
X0141327Y0228500D01*
X0199327Y0304500D02*
X0193327Y0310500D01*
X0193327Y0317700D01*
X0168127Y0314500D02*
X0159327Y0314500D01*
X0154527Y0319300D01*
X0141727Y0319300D01*
X0141428Y0319524D01*
X0136527Y0321700D02*
X0139327Y0324500D01*
X0136527Y0321700D02*
X0133727Y0321700D01*
X0126927Y0314900D01*
X0134127Y0316900D02*
X0141327Y0309700D01*
X0141428Y0309524D01*
X0127327Y0331300D02*
X0130527Y0334500D01*
X0130527Y0338500D01*
X0066845Y0318229D02*
X0066527Y0318100D01*
X0060927Y0312500D01*
X0039727Y0290500D02*
X0032527Y0283300D01*
X0022527Y0308900D02*
X0018527Y0308900D01*
X0013727Y0313700D01*
X0013026Y0313871D01*
X0012927Y0314100D01*
X0006127Y0320900D01*
X0006127Y0345300D01*
X0023327Y0362500D01*
X0012829Y0343938D02*
X0012927Y0343700D01*
X0012927Y0341300D01*
X0018927Y0335300D01*
X0018927Y0327300D01*
X0194127Y0374500D02*
X0209727Y0374500D01*
X0213327Y0378100D01*
M02*
