%
M48
M72
T01C0.0150
T02C0.0177
T03C0.0315
T04C0.0320
T05C0.0354
T06C0.0374
T07C0.0394
T08C0.0400
T09C0.0413
T10C0.0650
T11C0.0709
T12C0.0866
T13C0.1102
T14C0.1260
T15C0.1575
%
T01
X8133Y4850
X9173Y5690
X8613Y6250
X9693Y7290
X10333Y8850
X10013Y10410
X12493Y11730
X13293Y11650
X13373Y12090
X14693Y13290
X14373Y13610
X13573Y15090
X13093Y13970
X12813Y13650
X11693Y14890
X11253Y14850
X10813Y15330
X10333Y14850
X11253Y13970
X9693Y13130
X7333Y15130
X7373Y16610
X5973Y19090
X5133Y21410
X4813Y21810
X4093Y21290
X3373Y21090
X2653Y20450
X2293Y19850
X2653Y18370
X1933Y17810
X2013Y17210
X2733Y16490
X2373Y15090
X2173Y14690
X4693Y14970
X10533Y19090
X11493Y18890
X11093Y17970
X11533Y17890
X12413Y17890
X12693Y17170
X13533Y16730
X13013Y18370
X13373Y19050
X12893Y19370
X12813Y19810
X12413Y18970
X11493Y20370
X10213Y21570
X8053Y23450
X7853Y24130
X5373Y22530
X3653Y22530
X2653Y21810
X3373Y26810
X4093Y27130
X4973Y28010
X5333Y27010
X4133Y28970
X3453Y29130
X2733Y29850
X2053Y29490
X3973Y30770
X3813Y31530
X3853Y32050
X7253Y31490
X8533Y30770
X8133Y29850
X9413Y29330
X9933Y29370
X10653Y29730
X11093Y28730
X11813Y26890
X12093Y25090
X11693Y23730
X12733Y22130
X13533Y22930
X14613Y22610
X16373Y24890
X18613Y24770
X18653Y25330
X19773Y26450
X19533Y27050
X18213Y27290
X17613Y28810
X15693Y28810
X14693Y29410
X14813Y27450
X15653Y27050
X19533Y29450
X23573Y33810
X25413Y33450
X27493Y33690
X28773Y34050
X27773Y30810
X25093Y29410
X26093Y28210
X27893Y26450
X28573Y26610
X28253Y25850
X28253Y24570
X26573Y23210
X26573Y22090
X24973Y22050
X23893Y21450
X24973Y20930
X23013Y20570
X22973Y19650
X23413Y18770
X24653Y18450
X24973Y17890
X23693Y17050
X24533Y15130
X24933Y15290
X24853Y12770
X25173Y12010
X25613Y12010
X23853Y10690
X21533Y14130
X21613Y14570
X21933Y15810
X19693Y16450
X19333Y15370
X18973Y13090
X19333Y12370
X20013Y11410
X16213Y11450
X14573Y9810
X14253Y9410
X13293Y6970
X14613Y6130
X11773Y5450
X10013Y5490
X14773Y15450
X15573Y16490
X18013Y17810
X18013Y19330
X19133Y20170
X19693Y19610
X21693Y23410
X26853Y18850
X27413Y16450
X27693Y15530
X28173Y14810
X29573Y17090
X29653Y18850
X30693Y18810
X32413Y16970
X34653Y17330
X35373Y16610
X35013Y18450
X36333Y21210
X36893Y22450
X37293Y22690
X33333Y26530
X34453Y28290
X34093Y29890
X32973Y31010
X33493Y31530
X32293Y32730
X35213Y33090
X37533Y29490
X31293Y29090
X30933Y27810
X31173Y22410
X30053Y22330
X32733Y22130
X37413Y14330
X31053Y13370
X30613Y8570
X29653Y5770
X31013Y5090
X28333Y2490
X28013Y2170
X27293Y5370
X23853Y6930
X35213Y3610
X11213Y16730
X1493Y26850
X11693Y32490
X13133Y32730
X15253Y32050
X15893Y34410
X23453Y38370
T02
X28598Y29051
X29598Y29051
T03
X24401Y24752
X23401Y24752
X22401Y24752
X22401Y22752
X23401Y22752
X24401Y22752
X12590Y22752
X11590Y22752
X10590Y22752
X10590Y24752
X11590Y24752
X12590Y24752
X12590Y9791
X11590Y9791
X10590Y9791
X10590Y7791
X11590Y7791
X12590Y7791
X22401Y7791
X23401Y7791
X24401Y7791
X24401Y9791
X23401Y9791
X22401Y9791
T04
X19070Y8217
X17889Y8717
X16708Y8717
X15527Y8717
X15527Y5717
X16708Y5717
X17889Y5717
X19070Y6217
X22968Y14681
X22968Y15681
X22968Y16681
X22968Y17681
X25968Y17681
X25968Y16681
X25968Y15681
X25968Y14681
X17496Y26795
X17496Y27795
T05
X28307Y31823
X29307Y31823
X30307Y31823
X6684Y31823
X5684Y31823
X4684Y31823
X4684Y7413
X5684Y7413
X6684Y7413
X28307Y7413
X29307Y7413
X30307Y7413
T06
X32598Y29051
X35598Y29051
T07
X20143Y28952
X20143Y27952
X20143Y26952
X20143Y25952
X20143Y24952
X20143Y23952
X20143Y22952
X20143Y21952
X20143Y20952
X19143Y20952
X18143Y20952
X17143Y20952
X17143Y21952
X16143Y21952
X16143Y20952
X15143Y20952
X14143Y20952
X14143Y21952
X14143Y22952
X14143Y23952
X14143Y24952
X14143Y25952
X14143Y26952
X14143Y27952
X14143Y28952
X14143Y29952
X14143Y30952
X14143Y31952
X14143Y32952
X14143Y33952
X14143Y34952
X15143Y34952
X15143Y33952
X16143Y32952
X16143Y31952
X16143Y30952
X16143Y29952
X17143Y29952
X17143Y30952
X17143Y31952
X17143Y32952
X20143Y32952
X20143Y31952
X20143Y30952
X20143Y29952
X20143Y33952
X20143Y34952
X20143Y35952
X20143Y36952
X20143Y37952
X20143Y38952
X15143Y37952
X14143Y37952
X14143Y38952
X14143Y36952
X14143Y35952
X15143Y35952
X16143Y23952
X16143Y22952
X17143Y22952
X17143Y23952
X17143Y19952
X17143Y18952
X17143Y17952
X17143Y16952
X17143Y15952
X16143Y15952
X16143Y16952
X16143Y17952
X16143Y18952
X16143Y19952
X14143Y19952
X14143Y18952
X14143Y17952
X14143Y16952
X14143Y15952
X20143Y15952
X20143Y16952
X20143Y17952
X20143Y18952
X20143Y19952
T08
X30062Y19643
X30062Y20743
X31062Y20743
X32062Y20743
X32062Y19643
X31062Y19643
X33062Y19643
X34062Y19643
X34062Y20743
X33062Y20743
X33062Y24797
X34062Y24797
X34062Y25897
X33062Y25897
X32062Y25897
X31062Y25897
X30062Y25897
X30062Y24797
X31062Y24797
X32062Y24797
X38328Y24520
X38428Y25520
X38418Y26518
X38318Y27518
X38418Y28518
X38412Y29913
X38312Y30913
X38412Y31913
X38416Y32910
X38316Y33910
X38416Y34910
X38428Y23520
X38435Y22119
X38335Y21119
X38435Y20119
X38443Y19122
X38343Y18122
X38443Y17122
X38437Y15750
X38337Y14750
X38437Y13750
X38337Y12750
X38437Y11750
X38451Y10349
X38351Y9349
X38451Y8349
X38442Y7343
X38342Y6343
X38442Y5343
X32881Y4223
X31881Y4223
X30881Y4223
X29881Y4223
X28881Y4223
X28881Y3123
X29881Y3123
X30881Y3123
X31881Y3123
X32881Y3123
X33062Y14545
X34062Y14545
X34062Y15645
X33062Y15645
X32062Y15645
X31062Y15645
X30062Y15645
X30062Y14545
X31062Y14545
X32062Y14545
X11085Y32020
X9945Y32020
X9728Y28633
X8728Y28633
X7728Y28633
X6728Y28633
X5728Y28633
X5728Y27533
X6728Y27533
X7728Y27533
X8728Y27533
X9728Y27533
X9653Y20755
X9653Y19655
X8653Y19655
X7653Y19655
X7653Y20755
X8653Y20755
X6653Y20755
X5653Y20755
X5653Y19655
X6653Y19655
X1356Y21182
X1256Y22182
X1356Y23182
X1338Y24189
X1238Y25189
X1338Y26189
X1303Y29387
X1203Y30387
X1303Y31387
X1283Y32394
X1183Y33394
X1283Y34394
X5370Y38248
X6510Y38248
X1229Y18351
X1329Y17351
X1229Y16351
X1329Y15351
X1229Y14351
X1442Y11497
X1342Y10497
X1442Y9497
X1455Y8491
X1355Y7491
X1455Y6491
X5653Y4223
X6653Y4223
X7653Y4223
X8653Y4223
X9653Y4223
X9653Y3123
X8653Y3123
X7653Y3123
X6653Y3123
X5653Y3123
T09
X10897Y8362
X10897Y9224
X22708Y9224
X22708Y8362
X22708Y23323
X22708Y24185
X10897Y24185
X10897Y23323
T10
X17496Y14579
X17496Y12728
X17496Y10878
T11
X27417Y10366
X31196Y10366
X7574Y10366
X3795Y10366
X3795Y34776
X7574Y34776
X27417Y34776
X31196Y34776
T12
X24397Y23772
X12586Y23772
X12586Y8811
X24397Y8811
T13
X25818Y36055
X23929Y37394
X33879Y37394
X35769Y36055
X12322Y36055
X10433Y37394
T14
X10433Y34933
X23929Y34933
X33879Y34933
T15
X1747Y1705
X1747Y37925
X37968Y37925
X37968Y1705
M30
