%
M48
M72
T01C0.0150
T02C0.0177
T03C0.0315
T04C0.0320
T05C0.0354
T06C0.0374
T07C0.0394
T08C0.0400
T09C0.0413
T10C0.0650
T11C0.0709
T12C0.0866
T13C0.1102
T14C0.1260
T15C0.1575
%
T01
X2893Y8490
X7173Y12530
X7493Y13010
X7493Y14290
X8613Y15370
X9693Y13330
X9693Y12410
X10333Y12210
X10493Y11610
X11013Y12530
X11453Y12530
X10813Y13450
X11253Y15450
X11293Y17130
X12413Y16890
X11813Y18210
X11533Y18930
X12293Y19450
X12773Y18610
X13413Y19370
X13453Y20370
X13413Y21210
X12493Y22130
X12293Y21010
X10213Y21770
X10373Y23410
X10533Y25570
X11413Y25530
X12853Y26210
X13173Y25850
X12533Y27090
X13213Y28290
X11693Y29850
X11013Y30970
X10053Y29850
X10493Y29130
X10413Y27490
X12773Y30210
X13413Y31690
X12413Y31850
X12733Y33130
X13053Y33850
X16133Y34450
X16893Y34770
X16173Y35450
X18413Y38450
X19333Y38610
X19413Y37450
X19573Y36810
X21093Y36410
X21333Y37810
X22773Y36450
X22093Y34450
X21213Y34450
X21893Y33490
X21053Y32970
X22213Y32450
X20933Y31130
X19333Y31770
X17933Y31810
X16813Y31450
X15693Y29170
X18893Y26610
X19413Y26650
X19413Y25610
X17173Y25170
X17853Y23490
X17853Y21610
X14733Y19090
X15573Y15890
X16253Y14730
X15093Y14490
X14733Y14130
X14373Y14730
X14133Y15370
X12933Y12850
X9293Y9530
X11573Y6130
X11533Y4690
X14173Y5490
X14053Y6610
X16133Y6490
X17293Y6530
X18573Y8090
X18173Y8690
X18213Y9170
X19933Y9490
X20573Y11210
X20333Y13850
X22133Y13850
X22213Y14810
X21773Y17410
X19573Y17170
X18493Y17330
X19173Y15890
X17013Y12130
X10213Y19010
X8053Y23410
X8013Y23850
X7693Y25050
X6813Y25090
X6093Y25810
X4773Y27890
X4453Y28570
X4773Y28890
X4773Y29330
X3973Y29050
X3253Y28330
X3453Y26530
X3813Y25810
X3093Y25810
X2373Y26530
X3333Y22490
X4413Y21410
X3693Y21090
X4373Y20410
X5293Y21970
X2973Y19290
X3333Y18450
X4133Y14650
X4733Y14290
X14693Y24770
X19333Y29490
X21893Y26090
X22693Y26450
X23973Y25690
X24373Y25890
X25973Y25890
X26773Y25650
X27093Y24250
X27093Y23810
X28053Y23490
X29533Y22450
X30173Y23890
X31253Y22810
X34173Y24770
X33853Y25770
X33653Y27210
X35293Y27730
X35653Y29570
X36733Y31290
X31773Y31730
X29973Y30850
X28093Y30050
X26493Y30730
X25973Y29690
X26413Y29090
X26213Y28570
X26413Y28170
X25693Y27690
X24693Y28530
X23133Y28170
X24853Y30690
X24853Y32730
X19493Y34770
X24093Y38570
X30253Y28530
X28093Y27410
X27373Y21450
X28173Y20650
X28213Y19770
X27093Y19090
X26693Y19890
X26373Y20210
X25453Y20450
X24973Y19770
X24333Y19970
X22013Y20970
X25093Y16410
X27013Y17970
X28293Y17210
X30333Y17090
X34053Y16730
X35613Y14890
X37813Y16850
X35613Y19170
X37293Y19730
X35653Y21730
X32933Y12250
X32293Y11890
X27693Y7210
X28093Y5010
X27333Y4650
X29973Y6210
X31693Y2490
X22133Y3930
X24773Y13970
X7613Y30250
X6413Y29210
X4373Y32730
X6893Y33370
X6813Y35690
X2333Y36250
X1893Y32730
X2253Y30890
T02
X27417Y29051
X28417Y29051
T03
X24401Y24752
X23401Y24752
X22401Y24752
X22401Y22752
X23401Y22752
X24401Y22752
X12590Y22752
X11590Y22752
X10590Y22752
X10590Y24752
X11590Y24752
X12590Y24752
X12590Y9791
X11590Y9791
X10590Y9791
X10590Y7791
X11590Y7791
X12590Y7791
X22401Y7791
X23401Y7791
X24401Y7791
X24401Y9791
X23401Y9791
X22401Y9791
T04
X17496Y34276
X17496Y35276
T05
X28307Y31823
X29307Y31823
X30307Y31823
X6684Y31823
X5684Y31823
X4684Y31823
X4684Y7413
X5684Y7413
X6684Y7413
X28307Y7413
X29307Y7413
X30307Y7413
T06
X31417Y29051
X34417Y29051
T07
X20143Y28952
X20143Y27952
X20143Y26952
X20143Y25952
X20143Y24952
X20143Y23952
X20143Y22952
X20143Y21952
X20143Y20952
X19143Y20952
X18143Y20952
X17143Y20952
X17143Y21952
X16143Y21952
X16143Y20952
X15143Y20952
X14143Y20952
X14143Y21952
X14143Y22952
X14143Y23952
X14143Y24952
X14143Y25952
X14143Y26952
X14143Y27952
X14143Y28952
X14143Y29952
X14143Y30952
X14143Y31952
X14143Y32952
X14143Y33952
X14143Y34952
X15143Y34952
X15143Y33952
X16143Y32952
X16143Y31952
X16143Y30952
X16143Y29952
X17143Y29952
X17143Y30952
X17143Y31952
X17143Y32952
X20143Y32952
X20143Y31952
X20143Y30952
X20143Y29952
X20143Y33952
X20143Y34952
X20143Y35952
X20143Y36952
X20143Y37952
X20143Y38952
X15143Y37952
X14143Y37952
X14143Y38952
X14143Y36952
X14143Y35952
X15143Y35952
X16143Y23952
X16143Y22952
X17143Y22952
X17143Y23952
X17143Y19952
X17143Y18952
X17143Y17952
X17143Y16952
X17143Y15952
X16143Y15952
X16143Y16952
X16143Y17952
X16143Y18952
X16143Y19952
X14143Y19952
X14143Y18952
X14143Y17952
X14143Y16952
X14143Y15952
X20143Y15952
X20143Y16952
X20143Y17952
X20143Y18952
X20143Y19952
T08
X28881Y19956
X28881Y18856
X29881Y18856
X30881Y18856
X30881Y19956
X29881Y19956
X31881Y19956
X32881Y19956
X32881Y18856
X31881Y18856
X31881Y15645
X32881Y15645
X32881Y14545
X31881Y14545
X30881Y14545
X29881Y14545
X28881Y14545
X28881Y15645
X29881Y15645
X30881Y15645
X38337Y14750
X38437Y15750
X38443Y17122
X38343Y18122
X38443Y19122
X38435Y20119
X38335Y21119
X38435Y22119
X38428Y23520
X38328Y24520
X38428Y25520
X38418Y26518
X38318Y27518
X38418Y28518
X38412Y29913
X38312Y30913
X38412Y31913
X38416Y32910
X38316Y33910
X38416Y34910
X32881Y25897
X31881Y25897
X30881Y25897
X29881Y25897
X28881Y25897
X28881Y24797
X29881Y24797
X30881Y24797
X31881Y24797
X32881Y24797
X38437Y13750
X38337Y12750
X38437Y11750
X38451Y10349
X38351Y9349
X38451Y8349
X38442Y7343
X38342Y6343
X38442Y5343
X32881Y4223
X31881Y4223
X30881Y4223
X29881Y4223
X28881Y4223
X28881Y3123
X29881Y3123
X30881Y3123
X31881Y3123
X32881Y3123
X9653Y3123
X8653Y3123
X7653Y3123
X6653Y3123
X5653Y3123
X5653Y4223
X6653Y4223
X7653Y4223
X8653Y4223
X9653Y4223
X1455Y6491
X1355Y7491
X1455Y8491
X1442Y9497
X1342Y10497
X1442Y11497
X1229Y14351
X1329Y15351
X1229Y16351
X1329Y17351
X1229Y18351
X1356Y21182
X1256Y22182
X1356Y23182
X1338Y24189
X1238Y25189
X1338Y26189
X1303Y29387
X1203Y30387
X1303Y31387
X1283Y32394
X1183Y33394
X1283Y34394
X5370Y38248
X6510Y38248
X9945Y32020
X11085Y32020
X9728Y28633
X8728Y28633
X7728Y28633
X6728Y28633
X5728Y28633
X5728Y27533
X6728Y27533
X7728Y27533
X8728Y27533
X9728Y27533
X9653Y20755
X9653Y19655
X8653Y19655
X7653Y19655
X7653Y20755
X8653Y20755
X6653Y20755
X5653Y20755
X5653Y19655
X6653Y19655
T09
X10897Y23323
X10897Y24185
X22708Y24185
X22708Y23323
X22708Y9224
X22708Y8362
X10897Y8362
X10897Y9224
T10
X17496Y10878
X17496Y12728
X17496Y14579
T11
X27417Y10366
X31196Y10366
X7574Y10366
X3795Y10366
X3795Y34776
X7574Y34776
X27417Y34776
X31196Y34776
T12
X24397Y23772
X12586Y23772
X12586Y8811
X24397Y8811
T13
X25425Y36055
X23535Y37394
X33879Y37394
X35769Y36055
X12322Y36055
X10433Y37394
T14
X10433Y34933
X23535Y34933
X33879Y34933
T15
X1747Y1705
X1747Y37925
X37968Y37925
X37968Y1705
M30
