%
M48
M72
T01C0.01500
T02C0.03150
T03C0.03200
T04C0.03543
T05C0.03937
T06C0.04000
T07C0.06496
T08C0.10000
T09C0.11024
T10C0.11200
T11C0.12598
%
T01
X458375Y33175
X442125Y36300
X435250Y39425
X438375Y42550
X397125Y60050
X402125Y61925
X394625Y63800
X385250Y67550
X387125Y71300
X384625Y75050
X372750Y67550
X363375Y68175
X363375Y60050
X348375Y61300
X320875Y63800
X307750Y67550
X295250Y71300
X300250Y75050
X284000Y65050
X259625Y72550
X247125Y65050
X237750Y42550
X242125Y41300
X221500Y42550
X221500Y34425
X254625Y30675
X214000Y20675
X203375Y10050
X265875Y13800
X301500Y30675
X331500Y27550
X352125Y26300
X337750Y38175
X319625Y45050
X325250Y48175
X354625Y46925
X373375Y40050
X379625Y36300
X384625Y45050
X379625Y56925
X413375Y61925
X422750Y81300
X407125Y86925
X402125Y86925
X387125Y91300
X382125Y94425
X364000Y85675
X372125Y84425
X349625Y90675
X343375Y78175
X312125Y98175
X290250Y103800
X279000Y106925
X290250Y112550
X290250Y120050
X303375Y120050
X313375Y144425
X334000Y145050
X332125Y151300
X343375Y151300
X356500Y151300
X362750Y148175
X364625Y158175
X353375Y161300
X347125Y161300
X340250Y164425
X364000Y166925
X377750Y166925
X387125Y163800
X379625Y159425
X387125Y155050
X407750Y160675
X426500Y154425
X444000Y149425
X473375Y149425
X416500Y136300
X408375Y132550
X379625Y125675
X372125Y121925
X367750Y128800
X374625Y136300
X397125Y120050
X412750Y120050
X365250Y106300
X407750Y92550
X492125Y111925
X316500Y151300
X305875Y158175
X287750Y165675
X280875Y161300
X277125Y161300
X286500Y152550
X255875Y148800
X250875Y161300
X227125Y161300
X219625Y171925
X257750Y181300
X269625Y171925
X310875Y169425
X309625Y194425
X309625Y198175
X305250Y198800
X340250Y195050
X349000Y197550
X365250Y197550
X378375Y193800
X397750Y200050
X394625Y205050
X401500Y184425
X458375Y195675
X481500Y178800
X279625Y96925
X216500Y123800
X213375Y126300
X197125Y130675
X180875Y127550
X180875Y118175
X192125Y106925
X185250Y104425
X195250Y101300
X167125Y101300
X134625Y97550
X128375Y102550
X125250Y106300
X121500Y113800
X114000Y113800
X110250Y125675
X110250Y130675
X106500Y132550
X95250Y129425
X67750Y132550
X49000Y117550
X116500Y93800
X134625Y77550
X145250Y70050
X141500Y66300
X134000Y61925
X157750Y58175
X183375Y69425
X162750Y45675
X114000Y39425
X101500Y41300
X95250Y45675
X69000Y61300
X14625Y71300
X13375Y75050
X114000Y28175
X145250Y130675
X153375Y130675
X172750Y138800
X140250Y152550
X150250Y157550
X165875Y155050
X171500Y154425
X179000Y154425
X162750Y165050
X148375Y166925
X125250Y164425
X125250Y155675
X117750Y155675
X110250Y148800
X121500Y145675
X90875Y161300
X84000Y157550
X81500Y165050
X69000Y178800
X59625Y179425
X78375Y193175
X125875Y194425
X171500Y193800
X195875Y199425
X240250Y204425
X247750Y200675
X259000Y197550
X249000Y194425
X392125Y28175
X382750Y18800
X393375Y8175
X438375Y8175
X341500Y11925
T02
X489000Y11300
X479000Y11300
X469000Y11300
X469000Y31300
X479000Y31300
X489000Y31300
X369000Y31300
X359000Y31300
X349000Y31300
X349000Y11300
X359000Y11300
X369000Y11300
X249000Y11300
X239000Y11300
X229000Y11300
X229000Y31300
X239000Y31300
X249000Y31300
X129000Y31300
X119000Y31300
X109000Y31300
X109000Y11300
X119000Y11300
X129000Y11300
T03
X540000Y39800
X540000Y49800
X489000Y71300
X479000Y71300
X469000Y71300
X459000Y71300
X449000Y71300
X439000Y71300
X429000Y71300
X419000Y71300
X409000Y71300
X409000Y101300
X419000Y101300
X429000Y101300
X439000Y101300
X449000Y101300
X459000Y101300
X469000Y101300
X479000Y101300
X489000Y101300
X518500Y106800
X489000Y116300
X479000Y116300
X469000Y116300
X459000Y116300
X449000Y116300
X439000Y116300
X429000Y116300
X419000Y116300
X419000Y146300
X429000Y146300
X439000Y146300
X449000Y146300
X459000Y146300
X469000Y146300
X479000Y146300
X489000Y146300
X518500Y76800
X114000Y71300
X104000Y71300
X94000Y71300
X84000Y71300
X74000Y71300
X64000Y71300
X54000Y71300
X44000Y71300
X34000Y71300
X34000Y101300
X44000Y101300
X54000Y101300
X64000Y101300
X74000Y101300
X84000Y101300
X94000Y101300
X104000Y101300
X114000Y101300
X104000Y116300
X94000Y116300
X84000Y116300
X74000Y116300
X64000Y116300
X54000Y116300
X44000Y116300
X34000Y116300
X34000Y146300
X44000Y146300
X54000Y146300
X64000Y146300
X74000Y146300
X84000Y146300
X94000Y146300
X104000Y146300
T04
X428500Y50828
X418500Y50828
X408500Y50828
X309000Y50828
X299000Y50828
X289000Y50828
X189000Y50828
X179000Y50828
X169000Y50828
X69000Y50828
X59000Y50828
X49000Y50828
T05
X378000Y81300
X368000Y81300
X358000Y81300
X348000Y81300
X338000Y81300
X328000Y81300
X318000Y81300
X308000Y81300
X298000Y81300
X288000Y81300
X278000Y81300
X268000Y81300
X258000Y81300
X248000Y81300
X238000Y81300
X228000Y81300
X218000Y81300
X208000Y81300
X198000Y81300
X188000Y81300
X178000Y81300
X168000Y81300
X158000Y81300
X148000Y81300
X158000Y91300
X178000Y91300
X188000Y91300
X198000Y91300
X208000Y101300
X218000Y101300
X228000Y101300
X238000Y101300
X238000Y111300
X228000Y111300
X218000Y111300
X208000Y111300
X208000Y141300
X218000Y141300
X228000Y141300
X238000Y141300
X248000Y141300
X258000Y141300
X268000Y141300
X278000Y141300
X288000Y141300
X298000Y141300
X308000Y141300
X318000Y141300
X328000Y141300
X338000Y141300
X348000Y141300
X358000Y141300
X368000Y141300
X378000Y141300
X328000Y131300
X328000Y121300
X328000Y111300
X318000Y111300
X308000Y111300
X298000Y111300
X298000Y101300
X308000Y101300
X318000Y101300
X328000Y101300
X338000Y101300
X348000Y101300
X358000Y101300
X368000Y101300
X378000Y101300
X378000Y111300
X368000Y111300
X358000Y111300
X348000Y111300
X338000Y111300
X328000Y91300
X198000Y141300
X188000Y141300
X178000Y141300
X168000Y141300
X158000Y141300
X148000Y141300
T06
X509000Y193800
X519000Y192800
X499000Y192800
X509000Y183800
X519000Y182800
X499000Y182800
X489000Y50800
X479000Y50800
X469000Y50800
X548500Y81300
X549500Y91300
X548500Y101300
X549500Y111300
X548500Y121300
X453500Y175800
X443500Y175800
X433500Y175800
X423500Y175800
X413500Y175800
X413500Y186800
X423500Y186800
X433500Y186800
X443500Y186800
X453500Y186800
X374000Y186300
X364000Y186300
X354000Y186300
X344000Y186300
X334000Y186300
X324000Y186300
X314000Y186300
X304000Y186300
X294000Y186300
X284000Y186300
X274000Y186300
X264000Y186300
X254000Y186300
X244000Y186300
X234000Y186300
X224000Y186300
X214000Y186300
X204000Y186300
X194000Y186300
X184000Y186300
X174000Y186300
X164000Y186300
X154000Y186300
X144000Y186300
X134000Y186300
X124000Y186300
X114000Y186300
X104000Y186300
X94000Y186300
X84000Y186300
X84000Y176300
X94000Y176300
X104000Y176300
X114000Y176300
X124000Y176300
X134000Y176300
X144000Y176300
X154000Y176300
X164000Y176300
X174000Y176300
X184000Y176300
X194000Y176300
X204000Y176300
X214000Y176300
X224000Y176300
X234000Y176300
X244000Y176300
X254000Y176300
X264000Y176300
X274000Y176300
X284000Y176300
X294000Y176300
X304000Y176300
X314000Y176300
X324000Y176300
X334000Y176300
X344000Y176300
X354000Y176300
X364000Y176300
X374000Y176300
X369000Y50800
X359000Y50800
X349000Y50800
X249000Y50800
X239000Y50800
X229000Y50800
X129000Y50800
X119000Y50800
X109000Y50800
X14500Y81300
X13500Y91300
X14500Y101300
X13500Y111300
X14500Y121300
T07
X515000Y13296
X515000Y31800
X515000Y50304
T08
X539000Y191300
X539000Y21300
X24000Y21300
X24000Y191300
T09
X529677Y133402
X543063Y152300
T10
X437398Y21300
X399602Y21300
X317898Y21300
X280102Y21300
X197898Y21300
X160102Y21300
X77898Y21300
X40102Y21300
T11
X518457Y152300
M30
