G75*
%MOIN*%
%OFA0B0*%
%FSLAX25Y25*%
%IPPOS*%
%LPD*%
%AMOC8*
5,1,8,0,0,1.08239X$1,22.5*
%
%ADD10C,0.00000*%
%ADD11C,0.00600*%
D10*
X0019000Y0021300D02*
X0019002Y0021441D01*
X0019008Y0021582D01*
X0019018Y0021722D01*
X0019032Y0021862D01*
X0019050Y0022002D01*
X0019071Y0022141D01*
X0019097Y0022280D01*
X0019126Y0022418D01*
X0019160Y0022554D01*
X0019197Y0022690D01*
X0019238Y0022825D01*
X0019283Y0022959D01*
X0019332Y0023091D01*
X0019384Y0023222D01*
X0019440Y0023351D01*
X0019500Y0023478D01*
X0019563Y0023604D01*
X0019629Y0023728D01*
X0019700Y0023851D01*
X0019773Y0023971D01*
X0019850Y0024089D01*
X0019930Y0024205D01*
X0020014Y0024318D01*
X0020100Y0024429D01*
X0020190Y0024538D01*
X0020283Y0024644D01*
X0020378Y0024747D01*
X0020477Y0024848D01*
X0020578Y0024946D01*
X0020682Y0025041D01*
X0020789Y0025133D01*
X0020898Y0025222D01*
X0021010Y0025307D01*
X0021124Y0025390D01*
X0021240Y0025470D01*
X0021359Y0025546D01*
X0021480Y0025618D01*
X0021602Y0025688D01*
X0021727Y0025753D01*
X0021853Y0025816D01*
X0021981Y0025874D01*
X0022111Y0025929D01*
X0022242Y0025981D01*
X0022375Y0026028D01*
X0022509Y0026072D01*
X0022644Y0026113D01*
X0022780Y0026149D01*
X0022917Y0026181D01*
X0023055Y0026210D01*
X0023193Y0026235D01*
X0023333Y0026255D01*
X0023473Y0026272D01*
X0023613Y0026285D01*
X0023754Y0026294D01*
X0023894Y0026299D01*
X0024035Y0026300D01*
X0024176Y0026297D01*
X0024317Y0026290D01*
X0024457Y0026279D01*
X0024597Y0026264D01*
X0024737Y0026245D01*
X0024876Y0026223D01*
X0025014Y0026196D01*
X0025152Y0026166D01*
X0025288Y0026131D01*
X0025424Y0026093D01*
X0025558Y0026051D01*
X0025692Y0026005D01*
X0025824Y0025956D01*
X0025954Y0025902D01*
X0026083Y0025845D01*
X0026210Y0025785D01*
X0026336Y0025721D01*
X0026459Y0025653D01*
X0026581Y0025582D01*
X0026701Y0025508D01*
X0026818Y0025430D01*
X0026933Y0025349D01*
X0027046Y0025265D01*
X0027157Y0025178D01*
X0027265Y0025087D01*
X0027370Y0024994D01*
X0027473Y0024897D01*
X0027573Y0024798D01*
X0027670Y0024696D01*
X0027764Y0024591D01*
X0027855Y0024484D01*
X0027943Y0024374D01*
X0028028Y0024262D01*
X0028110Y0024147D01*
X0028189Y0024030D01*
X0028264Y0023911D01*
X0028336Y0023790D01*
X0028404Y0023667D01*
X0028469Y0023542D01*
X0028531Y0023415D01*
X0028588Y0023286D01*
X0028643Y0023156D01*
X0028693Y0023025D01*
X0028740Y0022892D01*
X0028783Y0022758D01*
X0028822Y0022622D01*
X0028857Y0022486D01*
X0028889Y0022349D01*
X0028916Y0022211D01*
X0028940Y0022072D01*
X0028960Y0021932D01*
X0028976Y0021792D01*
X0028988Y0021652D01*
X0028996Y0021511D01*
X0029000Y0021370D01*
X0029000Y0021230D01*
X0028996Y0021089D01*
X0028988Y0020948D01*
X0028976Y0020808D01*
X0028960Y0020668D01*
X0028940Y0020528D01*
X0028916Y0020389D01*
X0028889Y0020251D01*
X0028857Y0020114D01*
X0028822Y0019978D01*
X0028783Y0019842D01*
X0028740Y0019708D01*
X0028693Y0019575D01*
X0028643Y0019444D01*
X0028588Y0019314D01*
X0028531Y0019185D01*
X0028469Y0019058D01*
X0028404Y0018933D01*
X0028336Y0018810D01*
X0028264Y0018689D01*
X0028189Y0018570D01*
X0028110Y0018453D01*
X0028028Y0018338D01*
X0027943Y0018226D01*
X0027855Y0018116D01*
X0027764Y0018009D01*
X0027670Y0017904D01*
X0027573Y0017802D01*
X0027473Y0017703D01*
X0027370Y0017606D01*
X0027265Y0017513D01*
X0027157Y0017422D01*
X0027046Y0017335D01*
X0026933Y0017251D01*
X0026818Y0017170D01*
X0026701Y0017092D01*
X0026581Y0017018D01*
X0026459Y0016947D01*
X0026336Y0016879D01*
X0026210Y0016815D01*
X0026083Y0016755D01*
X0025954Y0016698D01*
X0025824Y0016644D01*
X0025692Y0016595D01*
X0025558Y0016549D01*
X0025424Y0016507D01*
X0025288Y0016469D01*
X0025152Y0016434D01*
X0025014Y0016404D01*
X0024876Y0016377D01*
X0024737Y0016355D01*
X0024597Y0016336D01*
X0024457Y0016321D01*
X0024317Y0016310D01*
X0024176Y0016303D01*
X0024035Y0016300D01*
X0023894Y0016301D01*
X0023754Y0016306D01*
X0023613Y0016315D01*
X0023473Y0016328D01*
X0023333Y0016345D01*
X0023193Y0016365D01*
X0023055Y0016390D01*
X0022917Y0016419D01*
X0022780Y0016451D01*
X0022644Y0016487D01*
X0022509Y0016528D01*
X0022375Y0016572D01*
X0022242Y0016619D01*
X0022111Y0016671D01*
X0021981Y0016726D01*
X0021853Y0016784D01*
X0021727Y0016847D01*
X0021602Y0016912D01*
X0021480Y0016982D01*
X0021359Y0017054D01*
X0021240Y0017130D01*
X0021124Y0017210D01*
X0021010Y0017293D01*
X0020898Y0017378D01*
X0020789Y0017467D01*
X0020682Y0017559D01*
X0020578Y0017654D01*
X0020477Y0017752D01*
X0020378Y0017853D01*
X0020283Y0017956D01*
X0020190Y0018062D01*
X0020100Y0018171D01*
X0020014Y0018282D01*
X0019930Y0018395D01*
X0019850Y0018511D01*
X0019773Y0018629D01*
X0019700Y0018749D01*
X0019629Y0018872D01*
X0019563Y0018996D01*
X0019500Y0019122D01*
X0019440Y0019249D01*
X0019384Y0019378D01*
X0019332Y0019509D01*
X0019283Y0019641D01*
X0019238Y0019775D01*
X0019197Y0019910D01*
X0019160Y0020046D01*
X0019126Y0020182D01*
X0019097Y0020320D01*
X0019071Y0020459D01*
X0019050Y0020598D01*
X0019032Y0020738D01*
X0019018Y0020878D01*
X0019008Y0021018D01*
X0019002Y0021159D01*
X0019000Y0021300D01*
X0019000Y0191300D02*
X0019002Y0191441D01*
X0019008Y0191582D01*
X0019018Y0191722D01*
X0019032Y0191862D01*
X0019050Y0192002D01*
X0019071Y0192141D01*
X0019097Y0192280D01*
X0019126Y0192418D01*
X0019160Y0192554D01*
X0019197Y0192690D01*
X0019238Y0192825D01*
X0019283Y0192959D01*
X0019332Y0193091D01*
X0019384Y0193222D01*
X0019440Y0193351D01*
X0019500Y0193478D01*
X0019563Y0193604D01*
X0019629Y0193728D01*
X0019700Y0193851D01*
X0019773Y0193971D01*
X0019850Y0194089D01*
X0019930Y0194205D01*
X0020014Y0194318D01*
X0020100Y0194429D01*
X0020190Y0194538D01*
X0020283Y0194644D01*
X0020378Y0194747D01*
X0020477Y0194848D01*
X0020578Y0194946D01*
X0020682Y0195041D01*
X0020789Y0195133D01*
X0020898Y0195222D01*
X0021010Y0195307D01*
X0021124Y0195390D01*
X0021240Y0195470D01*
X0021359Y0195546D01*
X0021480Y0195618D01*
X0021602Y0195688D01*
X0021727Y0195753D01*
X0021853Y0195816D01*
X0021981Y0195874D01*
X0022111Y0195929D01*
X0022242Y0195981D01*
X0022375Y0196028D01*
X0022509Y0196072D01*
X0022644Y0196113D01*
X0022780Y0196149D01*
X0022917Y0196181D01*
X0023055Y0196210D01*
X0023193Y0196235D01*
X0023333Y0196255D01*
X0023473Y0196272D01*
X0023613Y0196285D01*
X0023754Y0196294D01*
X0023894Y0196299D01*
X0024035Y0196300D01*
X0024176Y0196297D01*
X0024317Y0196290D01*
X0024457Y0196279D01*
X0024597Y0196264D01*
X0024737Y0196245D01*
X0024876Y0196223D01*
X0025014Y0196196D01*
X0025152Y0196166D01*
X0025288Y0196131D01*
X0025424Y0196093D01*
X0025558Y0196051D01*
X0025692Y0196005D01*
X0025824Y0195956D01*
X0025954Y0195902D01*
X0026083Y0195845D01*
X0026210Y0195785D01*
X0026336Y0195721D01*
X0026459Y0195653D01*
X0026581Y0195582D01*
X0026701Y0195508D01*
X0026818Y0195430D01*
X0026933Y0195349D01*
X0027046Y0195265D01*
X0027157Y0195178D01*
X0027265Y0195087D01*
X0027370Y0194994D01*
X0027473Y0194897D01*
X0027573Y0194798D01*
X0027670Y0194696D01*
X0027764Y0194591D01*
X0027855Y0194484D01*
X0027943Y0194374D01*
X0028028Y0194262D01*
X0028110Y0194147D01*
X0028189Y0194030D01*
X0028264Y0193911D01*
X0028336Y0193790D01*
X0028404Y0193667D01*
X0028469Y0193542D01*
X0028531Y0193415D01*
X0028588Y0193286D01*
X0028643Y0193156D01*
X0028693Y0193025D01*
X0028740Y0192892D01*
X0028783Y0192758D01*
X0028822Y0192622D01*
X0028857Y0192486D01*
X0028889Y0192349D01*
X0028916Y0192211D01*
X0028940Y0192072D01*
X0028960Y0191932D01*
X0028976Y0191792D01*
X0028988Y0191652D01*
X0028996Y0191511D01*
X0029000Y0191370D01*
X0029000Y0191230D01*
X0028996Y0191089D01*
X0028988Y0190948D01*
X0028976Y0190808D01*
X0028960Y0190668D01*
X0028940Y0190528D01*
X0028916Y0190389D01*
X0028889Y0190251D01*
X0028857Y0190114D01*
X0028822Y0189978D01*
X0028783Y0189842D01*
X0028740Y0189708D01*
X0028693Y0189575D01*
X0028643Y0189444D01*
X0028588Y0189314D01*
X0028531Y0189185D01*
X0028469Y0189058D01*
X0028404Y0188933D01*
X0028336Y0188810D01*
X0028264Y0188689D01*
X0028189Y0188570D01*
X0028110Y0188453D01*
X0028028Y0188338D01*
X0027943Y0188226D01*
X0027855Y0188116D01*
X0027764Y0188009D01*
X0027670Y0187904D01*
X0027573Y0187802D01*
X0027473Y0187703D01*
X0027370Y0187606D01*
X0027265Y0187513D01*
X0027157Y0187422D01*
X0027046Y0187335D01*
X0026933Y0187251D01*
X0026818Y0187170D01*
X0026701Y0187092D01*
X0026581Y0187018D01*
X0026459Y0186947D01*
X0026336Y0186879D01*
X0026210Y0186815D01*
X0026083Y0186755D01*
X0025954Y0186698D01*
X0025824Y0186644D01*
X0025692Y0186595D01*
X0025558Y0186549D01*
X0025424Y0186507D01*
X0025288Y0186469D01*
X0025152Y0186434D01*
X0025014Y0186404D01*
X0024876Y0186377D01*
X0024737Y0186355D01*
X0024597Y0186336D01*
X0024457Y0186321D01*
X0024317Y0186310D01*
X0024176Y0186303D01*
X0024035Y0186300D01*
X0023894Y0186301D01*
X0023754Y0186306D01*
X0023613Y0186315D01*
X0023473Y0186328D01*
X0023333Y0186345D01*
X0023193Y0186365D01*
X0023055Y0186390D01*
X0022917Y0186419D01*
X0022780Y0186451D01*
X0022644Y0186487D01*
X0022509Y0186528D01*
X0022375Y0186572D01*
X0022242Y0186619D01*
X0022111Y0186671D01*
X0021981Y0186726D01*
X0021853Y0186784D01*
X0021727Y0186847D01*
X0021602Y0186912D01*
X0021480Y0186982D01*
X0021359Y0187054D01*
X0021240Y0187130D01*
X0021124Y0187210D01*
X0021010Y0187293D01*
X0020898Y0187378D01*
X0020789Y0187467D01*
X0020682Y0187559D01*
X0020578Y0187654D01*
X0020477Y0187752D01*
X0020378Y0187853D01*
X0020283Y0187956D01*
X0020190Y0188062D01*
X0020100Y0188171D01*
X0020014Y0188282D01*
X0019930Y0188395D01*
X0019850Y0188511D01*
X0019773Y0188629D01*
X0019700Y0188749D01*
X0019629Y0188872D01*
X0019563Y0188996D01*
X0019500Y0189122D01*
X0019440Y0189249D01*
X0019384Y0189378D01*
X0019332Y0189509D01*
X0019283Y0189641D01*
X0019238Y0189775D01*
X0019197Y0189910D01*
X0019160Y0190046D01*
X0019126Y0190182D01*
X0019097Y0190320D01*
X0019071Y0190459D01*
X0019050Y0190598D01*
X0019032Y0190738D01*
X0019018Y0190878D01*
X0019008Y0191018D01*
X0019002Y0191159D01*
X0019000Y0191300D01*
X0534000Y0191300D02*
X0534002Y0191441D01*
X0534008Y0191582D01*
X0534018Y0191722D01*
X0534032Y0191862D01*
X0534050Y0192002D01*
X0534071Y0192141D01*
X0534097Y0192280D01*
X0534126Y0192418D01*
X0534160Y0192554D01*
X0534197Y0192690D01*
X0534238Y0192825D01*
X0534283Y0192959D01*
X0534332Y0193091D01*
X0534384Y0193222D01*
X0534440Y0193351D01*
X0534500Y0193478D01*
X0534563Y0193604D01*
X0534629Y0193728D01*
X0534700Y0193851D01*
X0534773Y0193971D01*
X0534850Y0194089D01*
X0534930Y0194205D01*
X0535014Y0194318D01*
X0535100Y0194429D01*
X0535190Y0194538D01*
X0535283Y0194644D01*
X0535378Y0194747D01*
X0535477Y0194848D01*
X0535578Y0194946D01*
X0535682Y0195041D01*
X0535789Y0195133D01*
X0535898Y0195222D01*
X0536010Y0195307D01*
X0536124Y0195390D01*
X0536240Y0195470D01*
X0536359Y0195546D01*
X0536480Y0195618D01*
X0536602Y0195688D01*
X0536727Y0195753D01*
X0536853Y0195816D01*
X0536981Y0195874D01*
X0537111Y0195929D01*
X0537242Y0195981D01*
X0537375Y0196028D01*
X0537509Y0196072D01*
X0537644Y0196113D01*
X0537780Y0196149D01*
X0537917Y0196181D01*
X0538055Y0196210D01*
X0538193Y0196235D01*
X0538333Y0196255D01*
X0538473Y0196272D01*
X0538613Y0196285D01*
X0538754Y0196294D01*
X0538894Y0196299D01*
X0539035Y0196300D01*
X0539176Y0196297D01*
X0539317Y0196290D01*
X0539457Y0196279D01*
X0539597Y0196264D01*
X0539737Y0196245D01*
X0539876Y0196223D01*
X0540014Y0196196D01*
X0540152Y0196166D01*
X0540288Y0196131D01*
X0540424Y0196093D01*
X0540558Y0196051D01*
X0540692Y0196005D01*
X0540824Y0195956D01*
X0540954Y0195902D01*
X0541083Y0195845D01*
X0541210Y0195785D01*
X0541336Y0195721D01*
X0541459Y0195653D01*
X0541581Y0195582D01*
X0541701Y0195508D01*
X0541818Y0195430D01*
X0541933Y0195349D01*
X0542046Y0195265D01*
X0542157Y0195178D01*
X0542265Y0195087D01*
X0542370Y0194994D01*
X0542473Y0194897D01*
X0542573Y0194798D01*
X0542670Y0194696D01*
X0542764Y0194591D01*
X0542855Y0194484D01*
X0542943Y0194374D01*
X0543028Y0194262D01*
X0543110Y0194147D01*
X0543189Y0194030D01*
X0543264Y0193911D01*
X0543336Y0193790D01*
X0543404Y0193667D01*
X0543469Y0193542D01*
X0543531Y0193415D01*
X0543588Y0193286D01*
X0543643Y0193156D01*
X0543693Y0193025D01*
X0543740Y0192892D01*
X0543783Y0192758D01*
X0543822Y0192622D01*
X0543857Y0192486D01*
X0543889Y0192349D01*
X0543916Y0192211D01*
X0543940Y0192072D01*
X0543960Y0191932D01*
X0543976Y0191792D01*
X0543988Y0191652D01*
X0543996Y0191511D01*
X0544000Y0191370D01*
X0544000Y0191230D01*
X0543996Y0191089D01*
X0543988Y0190948D01*
X0543976Y0190808D01*
X0543960Y0190668D01*
X0543940Y0190528D01*
X0543916Y0190389D01*
X0543889Y0190251D01*
X0543857Y0190114D01*
X0543822Y0189978D01*
X0543783Y0189842D01*
X0543740Y0189708D01*
X0543693Y0189575D01*
X0543643Y0189444D01*
X0543588Y0189314D01*
X0543531Y0189185D01*
X0543469Y0189058D01*
X0543404Y0188933D01*
X0543336Y0188810D01*
X0543264Y0188689D01*
X0543189Y0188570D01*
X0543110Y0188453D01*
X0543028Y0188338D01*
X0542943Y0188226D01*
X0542855Y0188116D01*
X0542764Y0188009D01*
X0542670Y0187904D01*
X0542573Y0187802D01*
X0542473Y0187703D01*
X0542370Y0187606D01*
X0542265Y0187513D01*
X0542157Y0187422D01*
X0542046Y0187335D01*
X0541933Y0187251D01*
X0541818Y0187170D01*
X0541701Y0187092D01*
X0541581Y0187018D01*
X0541459Y0186947D01*
X0541336Y0186879D01*
X0541210Y0186815D01*
X0541083Y0186755D01*
X0540954Y0186698D01*
X0540824Y0186644D01*
X0540692Y0186595D01*
X0540558Y0186549D01*
X0540424Y0186507D01*
X0540288Y0186469D01*
X0540152Y0186434D01*
X0540014Y0186404D01*
X0539876Y0186377D01*
X0539737Y0186355D01*
X0539597Y0186336D01*
X0539457Y0186321D01*
X0539317Y0186310D01*
X0539176Y0186303D01*
X0539035Y0186300D01*
X0538894Y0186301D01*
X0538754Y0186306D01*
X0538613Y0186315D01*
X0538473Y0186328D01*
X0538333Y0186345D01*
X0538193Y0186365D01*
X0538055Y0186390D01*
X0537917Y0186419D01*
X0537780Y0186451D01*
X0537644Y0186487D01*
X0537509Y0186528D01*
X0537375Y0186572D01*
X0537242Y0186619D01*
X0537111Y0186671D01*
X0536981Y0186726D01*
X0536853Y0186784D01*
X0536727Y0186847D01*
X0536602Y0186912D01*
X0536480Y0186982D01*
X0536359Y0187054D01*
X0536240Y0187130D01*
X0536124Y0187210D01*
X0536010Y0187293D01*
X0535898Y0187378D01*
X0535789Y0187467D01*
X0535682Y0187559D01*
X0535578Y0187654D01*
X0535477Y0187752D01*
X0535378Y0187853D01*
X0535283Y0187956D01*
X0535190Y0188062D01*
X0535100Y0188171D01*
X0535014Y0188282D01*
X0534930Y0188395D01*
X0534850Y0188511D01*
X0534773Y0188629D01*
X0534700Y0188749D01*
X0534629Y0188872D01*
X0534563Y0188996D01*
X0534500Y0189122D01*
X0534440Y0189249D01*
X0534384Y0189378D01*
X0534332Y0189509D01*
X0534283Y0189641D01*
X0534238Y0189775D01*
X0534197Y0189910D01*
X0534160Y0190046D01*
X0534126Y0190182D01*
X0534097Y0190320D01*
X0534071Y0190459D01*
X0534050Y0190598D01*
X0534032Y0190738D01*
X0534018Y0190878D01*
X0534008Y0191018D01*
X0534002Y0191159D01*
X0534000Y0191300D01*
X0534000Y0021300D02*
X0534002Y0021441D01*
X0534008Y0021582D01*
X0534018Y0021722D01*
X0534032Y0021862D01*
X0534050Y0022002D01*
X0534071Y0022141D01*
X0534097Y0022280D01*
X0534126Y0022418D01*
X0534160Y0022554D01*
X0534197Y0022690D01*
X0534238Y0022825D01*
X0534283Y0022959D01*
X0534332Y0023091D01*
X0534384Y0023222D01*
X0534440Y0023351D01*
X0534500Y0023478D01*
X0534563Y0023604D01*
X0534629Y0023728D01*
X0534700Y0023851D01*
X0534773Y0023971D01*
X0534850Y0024089D01*
X0534930Y0024205D01*
X0535014Y0024318D01*
X0535100Y0024429D01*
X0535190Y0024538D01*
X0535283Y0024644D01*
X0535378Y0024747D01*
X0535477Y0024848D01*
X0535578Y0024946D01*
X0535682Y0025041D01*
X0535789Y0025133D01*
X0535898Y0025222D01*
X0536010Y0025307D01*
X0536124Y0025390D01*
X0536240Y0025470D01*
X0536359Y0025546D01*
X0536480Y0025618D01*
X0536602Y0025688D01*
X0536727Y0025753D01*
X0536853Y0025816D01*
X0536981Y0025874D01*
X0537111Y0025929D01*
X0537242Y0025981D01*
X0537375Y0026028D01*
X0537509Y0026072D01*
X0537644Y0026113D01*
X0537780Y0026149D01*
X0537917Y0026181D01*
X0538055Y0026210D01*
X0538193Y0026235D01*
X0538333Y0026255D01*
X0538473Y0026272D01*
X0538613Y0026285D01*
X0538754Y0026294D01*
X0538894Y0026299D01*
X0539035Y0026300D01*
X0539176Y0026297D01*
X0539317Y0026290D01*
X0539457Y0026279D01*
X0539597Y0026264D01*
X0539737Y0026245D01*
X0539876Y0026223D01*
X0540014Y0026196D01*
X0540152Y0026166D01*
X0540288Y0026131D01*
X0540424Y0026093D01*
X0540558Y0026051D01*
X0540692Y0026005D01*
X0540824Y0025956D01*
X0540954Y0025902D01*
X0541083Y0025845D01*
X0541210Y0025785D01*
X0541336Y0025721D01*
X0541459Y0025653D01*
X0541581Y0025582D01*
X0541701Y0025508D01*
X0541818Y0025430D01*
X0541933Y0025349D01*
X0542046Y0025265D01*
X0542157Y0025178D01*
X0542265Y0025087D01*
X0542370Y0024994D01*
X0542473Y0024897D01*
X0542573Y0024798D01*
X0542670Y0024696D01*
X0542764Y0024591D01*
X0542855Y0024484D01*
X0542943Y0024374D01*
X0543028Y0024262D01*
X0543110Y0024147D01*
X0543189Y0024030D01*
X0543264Y0023911D01*
X0543336Y0023790D01*
X0543404Y0023667D01*
X0543469Y0023542D01*
X0543531Y0023415D01*
X0543588Y0023286D01*
X0543643Y0023156D01*
X0543693Y0023025D01*
X0543740Y0022892D01*
X0543783Y0022758D01*
X0543822Y0022622D01*
X0543857Y0022486D01*
X0543889Y0022349D01*
X0543916Y0022211D01*
X0543940Y0022072D01*
X0543960Y0021932D01*
X0543976Y0021792D01*
X0543988Y0021652D01*
X0543996Y0021511D01*
X0544000Y0021370D01*
X0544000Y0021230D01*
X0543996Y0021089D01*
X0543988Y0020948D01*
X0543976Y0020808D01*
X0543960Y0020668D01*
X0543940Y0020528D01*
X0543916Y0020389D01*
X0543889Y0020251D01*
X0543857Y0020114D01*
X0543822Y0019978D01*
X0543783Y0019842D01*
X0543740Y0019708D01*
X0543693Y0019575D01*
X0543643Y0019444D01*
X0543588Y0019314D01*
X0543531Y0019185D01*
X0543469Y0019058D01*
X0543404Y0018933D01*
X0543336Y0018810D01*
X0543264Y0018689D01*
X0543189Y0018570D01*
X0543110Y0018453D01*
X0543028Y0018338D01*
X0542943Y0018226D01*
X0542855Y0018116D01*
X0542764Y0018009D01*
X0542670Y0017904D01*
X0542573Y0017802D01*
X0542473Y0017703D01*
X0542370Y0017606D01*
X0542265Y0017513D01*
X0542157Y0017422D01*
X0542046Y0017335D01*
X0541933Y0017251D01*
X0541818Y0017170D01*
X0541701Y0017092D01*
X0541581Y0017018D01*
X0541459Y0016947D01*
X0541336Y0016879D01*
X0541210Y0016815D01*
X0541083Y0016755D01*
X0540954Y0016698D01*
X0540824Y0016644D01*
X0540692Y0016595D01*
X0540558Y0016549D01*
X0540424Y0016507D01*
X0540288Y0016469D01*
X0540152Y0016434D01*
X0540014Y0016404D01*
X0539876Y0016377D01*
X0539737Y0016355D01*
X0539597Y0016336D01*
X0539457Y0016321D01*
X0539317Y0016310D01*
X0539176Y0016303D01*
X0539035Y0016300D01*
X0538894Y0016301D01*
X0538754Y0016306D01*
X0538613Y0016315D01*
X0538473Y0016328D01*
X0538333Y0016345D01*
X0538193Y0016365D01*
X0538055Y0016390D01*
X0537917Y0016419D01*
X0537780Y0016451D01*
X0537644Y0016487D01*
X0537509Y0016528D01*
X0537375Y0016572D01*
X0537242Y0016619D01*
X0537111Y0016671D01*
X0536981Y0016726D01*
X0536853Y0016784D01*
X0536727Y0016847D01*
X0536602Y0016912D01*
X0536480Y0016982D01*
X0536359Y0017054D01*
X0536240Y0017130D01*
X0536124Y0017210D01*
X0536010Y0017293D01*
X0535898Y0017378D01*
X0535789Y0017467D01*
X0535682Y0017559D01*
X0535578Y0017654D01*
X0535477Y0017752D01*
X0535378Y0017853D01*
X0535283Y0017956D01*
X0535190Y0018062D01*
X0535100Y0018171D01*
X0535014Y0018282D01*
X0534930Y0018395D01*
X0534850Y0018511D01*
X0534773Y0018629D01*
X0534700Y0018749D01*
X0534629Y0018872D01*
X0534563Y0018996D01*
X0534500Y0019122D01*
X0534440Y0019249D01*
X0534384Y0019378D01*
X0534332Y0019509D01*
X0534283Y0019641D01*
X0534238Y0019775D01*
X0534197Y0019910D01*
X0534160Y0020046D01*
X0534126Y0020182D01*
X0534097Y0020320D01*
X0534071Y0020459D01*
X0534050Y0020598D01*
X0534032Y0020738D01*
X0534018Y0020878D01*
X0534008Y0021018D01*
X0534002Y0021159D01*
X0534000Y0021300D01*
D11*
X0544000Y0001300D02*
X0019000Y0001300D01*
X0018638Y0001304D01*
X0018275Y0001318D01*
X0017913Y0001339D01*
X0017552Y0001370D01*
X0017192Y0001409D01*
X0016833Y0001457D01*
X0016475Y0001514D01*
X0016118Y0001579D01*
X0015763Y0001653D01*
X0015410Y0001736D01*
X0015059Y0001827D01*
X0014711Y0001926D01*
X0014365Y0002034D01*
X0014021Y0002150D01*
X0013681Y0002275D01*
X0013344Y0002407D01*
X0013010Y0002548D01*
X0012679Y0002697D01*
X0012352Y0002854D01*
X0012029Y0003018D01*
X0011710Y0003190D01*
X0011396Y0003370D01*
X0011085Y0003558D01*
X0010780Y0003753D01*
X0010479Y0003955D01*
X0010183Y0004165D01*
X0009893Y0004381D01*
X0009607Y0004605D01*
X0009327Y0004835D01*
X0009053Y0005072D01*
X0008785Y0005316D01*
X0008522Y0005566D01*
X0008266Y0005822D01*
X0008016Y0006085D01*
X0007772Y0006353D01*
X0007535Y0006627D01*
X0007305Y0006907D01*
X0007081Y0007193D01*
X0006865Y0007483D01*
X0006655Y0007779D01*
X0006453Y0008080D01*
X0006258Y0008385D01*
X0006070Y0008696D01*
X0005890Y0009010D01*
X0005718Y0009329D01*
X0005554Y0009652D01*
X0005397Y0009979D01*
X0005248Y0010310D01*
X0005107Y0010644D01*
X0004975Y0010981D01*
X0004850Y0011321D01*
X0004734Y0011665D01*
X0004626Y0012011D01*
X0004527Y0012359D01*
X0004436Y0012710D01*
X0004353Y0013063D01*
X0004279Y0013418D01*
X0004214Y0013775D01*
X0004157Y0014133D01*
X0004109Y0014492D01*
X0004070Y0014852D01*
X0004039Y0015213D01*
X0004018Y0015575D01*
X0004004Y0015938D01*
X0004000Y0016300D01*
X0004000Y0196300D01*
X0004004Y0196662D01*
X0004018Y0197025D01*
X0004039Y0197387D01*
X0004070Y0197748D01*
X0004109Y0198108D01*
X0004157Y0198467D01*
X0004214Y0198825D01*
X0004279Y0199182D01*
X0004353Y0199537D01*
X0004436Y0199890D01*
X0004527Y0200241D01*
X0004626Y0200589D01*
X0004734Y0200935D01*
X0004850Y0201279D01*
X0004975Y0201619D01*
X0005107Y0201956D01*
X0005248Y0202290D01*
X0005397Y0202621D01*
X0005554Y0202948D01*
X0005718Y0203271D01*
X0005890Y0203590D01*
X0006070Y0203904D01*
X0006258Y0204215D01*
X0006453Y0204520D01*
X0006655Y0204821D01*
X0006865Y0205117D01*
X0007081Y0205407D01*
X0007305Y0205693D01*
X0007535Y0205973D01*
X0007772Y0206247D01*
X0008016Y0206515D01*
X0008266Y0206778D01*
X0008522Y0207034D01*
X0008785Y0207284D01*
X0009053Y0207528D01*
X0009327Y0207765D01*
X0009607Y0207995D01*
X0009893Y0208219D01*
X0010183Y0208435D01*
X0010479Y0208645D01*
X0010780Y0208847D01*
X0011085Y0209042D01*
X0011396Y0209230D01*
X0011710Y0209410D01*
X0012029Y0209582D01*
X0012352Y0209746D01*
X0012679Y0209903D01*
X0013010Y0210052D01*
X0013344Y0210193D01*
X0013681Y0210325D01*
X0014021Y0210450D01*
X0014365Y0210566D01*
X0014711Y0210674D01*
X0015059Y0210773D01*
X0015410Y0210864D01*
X0015763Y0210947D01*
X0016118Y0211021D01*
X0016475Y0211086D01*
X0016833Y0211143D01*
X0017192Y0211191D01*
X0017552Y0211230D01*
X0017913Y0211261D01*
X0018275Y0211282D01*
X0018638Y0211296D01*
X0019000Y0211300D01*
X0544000Y0211300D01*
X0544484Y0211152D01*
X0544964Y0210993D01*
X0545440Y0210822D01*
X0545912Y0210640D01*
X0546380Y0210446D01*
X0546842Y0210241D01*
X0547299Y0210025D01*
X0547751Y0209797D01*
X0548198Y0209559D01*
X0548638Y0209310D01*
X0549072Y0209051D01*
X0549500Y0208781D01*
X0549921Y0208500D01*
X0550335Y0208210D01*
X0550742Y0207909D01*
X0551142Y0207599D01*
X0551534Y0207279D01*
X0551918Y0206950D01*
X0552294Y0206612D01*
X0552661Y0206264D01*
X0553021Y0205908D01*
X0553371Y0205543D01*
X0553712Y0205169D01*
X0554044Y0204788D01*
X0554367Y0204398D01*
X0554680Y0204001D01*
X0554984Y0203597D01*
X0555278Y0203185D01*
X0555561Y0202766D01*
X0555834Y0202340D01*
X0556097Y0201908D01*
X0556349Y0201469D01*
X0556591Y0201025D01*
X0556822Y0200574D01*
X0557041Y0200119D01*
X0557250Y0199658D01*
X0557447Y0199192D01*
X0557633Y0198722D01*
X0557808Y0198247D01*
X0557971Y0197768D01*
X0558122Y0197285D01*
X0558261Y0196799D01*
X0558389Y0196309D01*
X0558504Y0195817D01*
X0558608Y0195322D01*
X0558700Y0194824D01*
X0558779Y0194325D01*
X0558847Y0193823D01*
X0558902Y0193320D01*
X0558945Y0192816D01*
X0558975Y0192311D01*
X0558994Y0191806D01*
X0559000Y0191300D01*
X0559000Y0016300D01*
X0558996Y0015938D01*
X0558982Y0015575D01*
X0558961Y0015213D01*
X0558930Y0014852D01*
X0558891Y0014492D01*
X0558843Y0014133D01*
X0558786Y0013775D01*
X0558721Y0013418D01*
X0558647Y0013063D01*
X0558564Y0012710D01*
X0558473Y0012359D01*
X0558374Y0012011D01*
X0558266Y0011665D01*
X0558150Y0011321D01*
X0558025Y0010981D01*
X0557893Y0010644D01*
X0557752Y0010310D01*
X0557603Y0009979D01*
X0557446Y0009652D01*
X0557282Y0009329D01*
X0557110Y0009010D01*
X0556930Y0008696D01*
X0556742Y0008385D01*
X0556547Y0008080D01*
X0556345Y0007779D01*
X0556135Y0007483D01*
X0555919Y0007193D01*
X0555695Y0006907D01*
X0555465Y0006627D01*
X0555228Y0006353D01*
X0554984Y0006085D01*
X0554734Y0005822D01*
X0554478Y0005566D01*
X0554215Y0005316D01*
X0553947Y0005072D01*
X0553673Y0004835D01*
X0553393Y0004605D01*
X0553107Y0004381D01*
X0552817Y0004165D01*
X0552521Y0003955D01*
X0552220Y0003753D01*
X0551915Y0003558D01*
X0551604Y0003370D01*
X0551290Y0003190D01*
X0550971Y0003018D01*
X0550648Y0002854D01*
X0550321Y0002697D01*
X0549990Y0002548D01*
X0549656Y0002407D01*
X0549319Y0002275D01*
X0548979Y0002150D01*
X0548635Y0002034D01*
X0548289Y0001926D01*
X0547941Y0001827D01*
X0547590Y0001736D01*
X0547237Y0001653D01*
X0546882Y0001579D01*
X0546525Y0001514D01*
X0546167Y0001457D01*
X0545808Y0001409D01*
X0545448Y0001370D01*
X0545087Y0001339D01*
X0544725Y0001318D01*
X0544362Y0001304D01*
X0544000Y0001300D01*
M02*
