G75*
%MOIN*%
%OFA0B0*%
%FSLAX25Y25*%
%IPPOS*%
%LPD*%
%AMOC8*
5,1,8,0,0,1.08239X$1,22.5*
%
%ADD10C,0.00000*%
%ADD11C,0.00600*%
%ADD12C,0.07400*%
%ADD13C,0.05200*%
%ADD14C,0.05600*%
%ADD15C,0.06600*%
%ADD16C,0.07000*%
%ADD17C,0.15748*%
%ADD18C,0.06000*%
%ADD19C,0.16598*%
%ADD20C,0.15024*%
%ADD21OC8,0.05200*%
%ADD22C,0.09744*%
%ADD23C,0.05937*%
%ADD24R,0.05937X0.05937*%
%ADD25C,0.01000*%
%ADD26C,0.03100*%
%ADD27C,0.01500*%
D10*
X0019000Y0021300D02*
X0019002Y0021441D01*
X0019008Y0021582D01*
X0019018Y0021722D01*
X0019032Y0021862D01*
X0019050Y0022002D01*
X0019071Y0022141D01*
X0019097Y0022280D01*
X0019126Y0022418D01*
X0019160Y0022554D01*
X0019197Y0022690D01*
X0019238Y0022825D01*
X0019283Y0022959D01*
X0019332Y0023091D01*
X0019384Y0023222D01*
X0019440Y0023351D01*
X0019500Y0023478D01*
X0019563Y0023604D01*
X0019629Y0023728D01*
X0019700Y0023851D01*
X0019773Y0023971D01*
X0019850Y0024089D01*
X0019930Y0024205D01*
X0020014Y0024318D01*
X0020100Y0024429D01*
X0020190Y0024538D01*
X0020283Y0024644D01*
X0020378Y0024747D01*
X0020477Y0024848D01*
X0020578Y0024946D01*
X0020682Y0025041D01*
X0020789Y0025133D01*
X0020898Y0025222D01*
X0021010Y0025307D01*
X0021124Y0025390D01*
X0021240Y0025470D01*
X0021359Y0025546D01*
X0021480Y0025618D01*
X0021602Y0025688D01*
X0021727Y0025753D01*
X0021853Y0025816D01*
X0021981Y0025874D01*
X0022111Y0025929D01*
X0022242Y0025981D01*
X0022375Y0026028D01*
X0022509Y0026072D01*
X0022644Y0026113D01*
X0022780Y0026149D01*
X0022917Y0026181D01*
X0023055Y0026210D01*
X0023193Y0026235D01*
X0023333Y0026255D01*
X0023473Y0026272D01*
X0023613Y0026285D01*
X0023754Y0026294D01*
X0023894Y0026299D01*
X0024035Y0026300D01*
X0024176Y0026297D01*
X0024317Y0026290D01*
X0024457Y0026279D01*
X0024597Y0026264D01*
X0024737Y0026245D01*
X0024876Y0026223D01*
X0025014Y0026196D01*
X0025152Y0026166D01*
X0025288Y0026131D01*
X0025424Y0026093D01*
X0025558Y0026051D01*
X0025692Y0026005D01*
X0025824Y0025956D01*
X0025954Y0025902D01*
X0026083Y0025845D01*
X0026210Y0025785D01*
X0026336Y0025721D01*
X0026459Y0025653D01*
X0026581Y0025582D01*
X0026701Y0025508D01*
X0026818Y0025430D01*
X0026933Y0025349D01*
X0027046Y0025265D01*
X0027157Y0025178D01*
X0027265Y0025087D01*
X0027370Y0024994D01*
X0027473Y0024897D01*
X0027573Y0024798D01*
X0027670Y0024696D01*
X0027764Y0024591D01*
X0027855Y0024484D01*
X0027943Y0024374D01*
X0028028Y0024262D01*
X0028110Y0024147D01*
X0028189Y0024030D01*
X0028264Y0023911D01*
X0028336Y0023790D01*
X0028404Y0023667D01*
X0028469Y0023542D01*
X0028531Y0023415D01*
X0028588Y0023286D01*
X0028643Y0023156D01*
X0028693Y0023025D01*
X0028740Y0022892D01*
X0028783Y0022758D01*
X0028822Y0022622D01*
X0028857Y0022486D01*
X0028889Y0022349D01*
X0028916Y0022211D01*
X0028940Y0022072D01*
X0028960Y0021932D01*
X0028976Y0021792D01*
X0028988Y0021652D01*
X0028996Y0021511D01*
X0029000Y0021370D01*
X0029000Y0021230D01*
X0028996Y0021089D01*
X0028988Y0020948D01*
X0028976Y0020808D01*
X0028960Y0020668D01*
X0028940Y0020528D01*
X0028916Y0020389D01*
X0028889Y0020251D01*
X0028857Y0020114D01*
X0028822Y0019978D01*
X0028783Y0019842D01*
X0028740Y0019708D01*
X0028693Y0019575D01*
X0028643Y0019444D01*
X0028588Y0019314D01*
X0028531Y0019185D01*
X0028469Y0019058D01*
X0028404Y0018933D01*
X0028336Y0018810D01*
X0028264Y0018689D01*
X0028189Y0018570D01*
X0028110Y0018453D01*
X0028028Y0018338D01*
X0027943Y0018226D01*
X0027855Y0018116D01*
X0027764Y0018009D01*
X0027670Y0017904D01*
X0027573Y0017802D01*
X0027473Y0017703D01*
X0027370Y0017606D01*
X0027265Y0017513D01*
X0027157Y0017422D01*
X0027046Y0017335D01*
X0026933Y0017251D01*
X0026818Y0017170D01*
X0026701Y0017092D01*
X0026581Y0017018D01*
X0026459Y0016947D01*
X0026336Y0016879D01*
X0026210Y0016815D01*
X0026083Y0016755D01*
X0025954Y0016698D01*
X0025824Y0016644D01*
X0025692Y0016595D01*
X0025558Y0016549D01*
X0025424Y0016507D01*
X0025288Y0016469D01*
X0025152Y0016434D01*
X0025014Y0016404D01*
X0024876Y0016377D01*
X0024737Y0016355D01*
X0024597Y0016336D01*
X0024457Y0016321D01*
X0024317Y0016310D01*
X0024176Y0016303D01*
X0024035Y0016300D01*
X0023894Y0016301D01*
X0023754Y0016306D01*
X0023613Y0016315D01*
X0023473Y0016328D01*
X0023333Y0016345D01*
X0023193Y0016365D01*
X0023055Y0016390D01*
X0022917Y0016419D01*
X0022780Y0016451D01*
X0022644Y0016487D01*
X0022509Y0016528D01*
X0022375Y0016572D01*
X0022242Y0016619D01*
X0022111Y0016671D01*
X0021981Y0016726D01*
X0021853Y0016784D01*
X0021727Y0016847D01*
X0021602Y0016912D01*
X0021480Y0016982D01*
X0021359Y0017054D01*
X0021240Y0017130D01*
X0021124Y0017210D01*
X0021010Y0017293D01*
X0020898Y0017378D01*
X0020789Y0017467D01*
X0020682Y0017559D01*
X0020578Y0017654D01*
X0020477Y0017752D01*
X0020378Y0017853D01*
X0020283Y0017956D01*
X0020190Y0018062D01*
X0020100Y0018171D01*
X0020014Y0018282D01*
X0019930Y0018395D01*
X0019850Y0018511D01*
X0019773Y0018629D01*
X0019700Y0018749D01*
X0019629Y0018872D01*
X0019563Y0018996D01*
X0019500Y0019122D01*
X0019440Y0019249D01*
X0019384Y0019378D01*
X0019332Y0019509D01*
X0019283Y0019641D01*
X0019238Y0019775D01*
X0019197Y0019910D01*
X0019160Y0020046D01*
X0019126Y0020182D01*
X0019097Y0020320D01*
X0019071Y0020459D01*
X0019050Y0020598D01*
X0019032Y0020738D01*
X0019018Y0020878D01*
X0019008Y0021018D01*
X0019002Y0021159D01*
X0019000Y0021300D01*
X0019000Y0191300D02*
X0019002Y0191441D01*
X0019008Y0191582D01*
X0019018Y0191722D01*
X0019032Y0191862D01*
X0019050Y0192002D01*
X0019071Y0192141D01*
X0019097Y0192280D01*
X0019126Y0192418D01*
X0019160Y0192554D01*
X0019197Y0192690D01*
X0019238Y0192825D01*
X0019283Y0192959D01*
X0019332Y0193091D01*
X0019384Y0193222D01*
X0019440Y0193351D01*
X0019500Y0193478D01*
X0019563Y0193604D01*
X0019629Y0193728D01*
X0019700Y0193851D01*
X0019773Y0193971D01*
X0019850Y0194089D01*
X0019930Y0194205D01*
X0020014Y0194318D01*
X0020100Y0194429D01*
X0020190Y0194538D01*
X0020283Y0194644D01*
X0020378Y0194747D01*
X0020477Y0194848D01*
X0020578Y0194946D01*
X0020682Y0195041D01*
X0020789Y0195133D01*
X0020898Y0195222D01*
X0021010Y0195307D01*
X0021124Y0195390D01*
X0021240Y0195470D01*
X0021359Y0195546D01*
X0021480Y0195618D01*
X0021602Y0195688D01*
X0021727Y0195753D01*
X0021853Y0195816D01*
X0021981Y0195874D01*
X0022111Y0195929D01*
X0022242Y0195981D01*
X0022375Y0196028D01*
X0022509Y0196072D01*
X0022644Y0196113D01*
X0022780Y0196149D01*
X0022917Y0196181D01*
X0023055Y0196210D01*
X0023193Y0196235D01*
X0023333Y0196255D01*
X0023473Y0196272D01*
X0023613Y0196285D01*
X0023754Y0196294D01*
X0023894Y0196299D01*
X0024035Y0196300D01*
X0024176Y0196297D01*
X0024317Y0196290D01*
X0024457Y0196279D01*
X0024597Y0196264D01*
X0024737Y0196245D01*
X0024876Y0196223D01*
X0025014Y0196196D01*
X0025152Y0196166D01*
X0025288Y0196131D01*
X0025424Y0196093D01*
X0025558Y0196051D01*
X0025692Y0196005D01*
X0025824Y0195956D01*
X0025954Y0195902D01*
X0026083Y0195845D01*
X0026210Y0195785D01*
X0026336Y0195721D01*
X0026459Y0195653D01*
X0026581Y0195582D01*
X0026701Y0195508D01*
X0026818Y0195430D01*
X0026933Y0195349D01*
X0027046Y0195265D01*
X0027157Y0195178D01*
X0027265Y0195087D01*
X0027370Y0194994D01*
X0027473Y0194897D01*
X0027573Y0194798D01*
X0027670Y0194696D01*
X0027764Y0194591D01*
X0027855Y0194484D01*
X0027943Y0194374D01*
X0028028Y0194262D01*
X0028110Y0194147D01*
X0028189Y0194030D01*
X0028264Y0193911D01*
X0028336Y0193790D01*
X0028404Y0193667D01*
X0028469Y0193542D01*
X0028531Y0193415D01*
X0028588Y0193286D01*
X0028643Y0193156D01*
X0028693Y0193025D01*
X0028740Y0192892D01*
X0028783Y0192758D01*
X0028822Y0192622D01*
X0028857Y0192486D01*
X0028889Y0192349D01*
X0028916Y0192211D01*
X0028940Y0192072D01*
X0028960Y0191932D01*
X0028976Y0191792D01*
X0028988Y0191652D01*
X0028996Y0191511D01*
X0029000Y0191370D01*
X0029000Y0191230D01*
X0028996Y0191089D01*
X0028988Y0190948D01*
X0028976Y0190808D01*
X0028960Y0190668D01*
X0028940Y0190528D01*
X0028916Y0190389D01*
X0028889Y0190251D01*
X0028857Y0190114D01*
X0028822Y0189978D01*
X0028783Y0189842D01*
X0028740Y0189708D01*
X0028693Y0189575D01*
X0028643Y0189444D01*
X0028588Y0189314D01*
X0028531Y0189185D01*
X0028469Y0189058D01*
X0028404Y0188933D01*
X0028336Y0188810D01*
X0028264Y0188689D01*
X0028189Y0188570D01*
X0028110Y0188453D01*
X0028028Y0188338D01*
X0027943Y0188226D01*
X0027855Y0188116D01*
X0027764Y0188009D01*
X0027670Y0187904D01*
X0027573Y0187802D01*
X0027473Y0187703D01*
X0027370Y0187606D01*
X0027265Y0187513D01*
X0027157Y0187422D01*
X0027046Y0187335D01*
X0026933Y0187251D01*
X0026818Y0187170D01*
X0026701Y0187092D01*
X0026581Y0187018D01*
X0026459Y0186947D01*
X0026336Y0186879D01*
X0026210Y0186815D01*
X0026083Y0186755D01*
X0025954Y0186698D01*
X0025824Y0186644D01*
X0025692Y0186595D01*
X0025558Y0186549D01*
X0025424Y0186507D01*
X0025288Y0186469D01*
X0025152Y0186434D01*
X0025014Y0186404D01*
X0024876Y0186377D01*
X0024737Y0186355D01*
X0024597Y0186336D01*
X0024457Y0186321D01*
X0024317Y0186310D01*
X0024176Y0186303D01*
X0024035Y0186300D01*
X0023894Y0186301D01*
X0023754Y0186306D01*
X0023613Y0186315D01*
X0023473Y0186328D01*
X0023333Y0186345D01*
X0023193Y0186365D01*
X0023055Y0186390D01*
X0022917Y0186419D01*
X0022780Y0186451D01*
X0022644Y0186487D01*
X0022509Y0186528D01*
X0022375Y0186572D01*
X0022242Y0186619D01*
X0022111Y0186671D01*
X0021981Y0186726D01*
X0021853Y0186784D01*
X0021727Y0186847D01*
X0021602Y0186912D01*
X0021480Y0186982D01*
X0021359Y0187054D01*
X0021240Y0187130D01*
X0021124Y0187210D01*
X0021010Y0187293D01*
X0020898Y0187378D01*
X0020789Y0187467D01*
X0020682Y0187559D01*
X0020578Y0187654D01*
X0020477Y0187752D01*
X0020378Y0187853D01*
X0020283Y0187956D01*
X0020190Y0188062D01*
X0020100Y0188171D01*
X0020014Y0188282D01*
X0019930Y0188395D01*
X0019850Y0188511D01*
X0019773Y0188629D01*
X0019700Y0188749D01*
X0019629Y0188872D01*
X0019563Y0188996D01*
X0019500Y0189122D01*
X0019440Y0189249D01*
X0019384Y0189378D01*
X0019332Y0189509D01*
X0019283Y0189641D01*
X0019238Y0189775D01*
X0019197Y0189910D01*
X0019160Y0190046D01*
X0019126Y0190182D01*
X0019097Y0190320D01*
X0019071Y0190459D01*
X0019050Y0190598D01*
X0019032Y0190738D01*
X0019018Y0190878D01*
X0019008Y0191018D01*
X0019002Y0191159D01*
X0019000Y0191300D01*
X0534000Y0191300D02*
X0534002Y0191441D01*
X0534008Y0191582D01*
X0534018Y0191722D01*
X0534032Y0191862D01*
X0534050Y0192002D01*
X0534071Y0192141D01*
X0534097Y0192280D01*
X0534126Y0192418D01*
X0534160Y0192554D01*
X0534197Y0192690D01*
X0534238Y0192825D01*
X0534283Y0192959D01*
X0534332Y0193091D01*
X0534384Y0193222D01*
X0534440Y0193351D01*
X0534500Y0193478D01*
X0534563Y0193604D01*
X0534629Y0193728D01*
X0534700Y0193851D01*
X0534773Y0193971D01*
X0534850Y0194089D01*
X0534930Y0194205D01*
X0535014Y0194318D01*
X0535100Y0194429D01*
X0535190Y0194538D01*
X0535283Y0194644D01*
X0535378Y0194747D01*
X0535477Y0194848D01*
X0535578Y0194946D01*
X0535682Y0195041D01*
X0535789Y0195133D01*
X0535898Y0195222D01*
X0536010Y0195307D01*
X0536124Y0195390D01*
X0536240Y0195470D01*
X0536359Y0195546D01*
X0536480Y0195618D01*
X0536602Y0195688D01*
X0536727Y0195753D01*
X0536853Y0195816D01*
X0536981Y0195874D01*
X0537111Y0195929D01*
X0537242Y0195981D01*
X0537375Y0196028D01*
X0537509Y0196072D01*
X0537644Y0196113D01*
X0537780Y0196149D01*
X0537917Y0196181D01*
X0538055Y0196210D01*
X0538193Y0196235D01*
X0538333Y0196255D01*
X0538473Y0196272D01*
X0538613Y0196285D01*
X0538754Y0196294D01*
X0538894Y0196299D01*
X0539035Y0196300D01*
X0539176Y0196297D01*
X0539317Y0196290D01*
X0539457Y0196279D01*
X0539597Y0196264D01*
X0539737Y0196245D01*
X0539876Y0196223D01*
X0540014Y0196196D01*
X0540152Y0196166D01*
X0540288Y0196131D01*
X0540424Y0196093D01*
X0540558Y0196051D01*
X0540692Y0196005D01*
X0540824Y0195956D01*
X0540954Y0195902D01*
X0541083Y0195845D01*
X0541210Y0195785D01*
X0541336Y0195721D01*
X0541459Y0195653D01*
X0541581Y0195582D01*
X0541701Y0195508D01*
X0541818Y0195430D01*
X0541933Y0195349D01*
X0542046Y0195265D01*
X0542157Y0195178D01*
X0542265Y0195087D01*
X0542370Y0194994D01*
X0542473Y0194897D01*
X0542573Y0194798D01*
X0542670Y0194696D01*
X0542764Y0194591D01*
X0542855Y0194484D01*
X0542943Y0194374D01*
X0543028Y0194262D01*
X0543110Y0194147D01*
X0543189Y0194030D01*
X0543264Y0193911D01*
X0543336Y0193790D01*
X0543404Y0193667D01*
X0543469Y0193542D01*
X0543531Y0193415D01*
X0543588Y0193286D01*
X0543643Y0193156D01*
X0543693Y0193025D01*
X0543740Y0192892D01*
X0543783Y0192758D01*
X0543822Y0192622D01*
X0543857Y0192486D01*
X0543889Y0192349D01*
X0543916Y0192211D01*
X0543940Y0192072D01*
X0543960Y0191932D01*
X0543976Y0191792D01*
X0543988Y0191652D01*
X0543996Y0191511D01*
X0544000Y0191370D01*
X0544000Y0191230D01*
X0543996Y0191089D01*
X0543988Y0190948D01*
X0543976Y0190808D01*
X0543960Y0190668D01*
X0543940Y0190528D01*
X0543916Y0190389D01*
X0543889Y0190251D01*
X0543857Y0190114D01*
X0543822Y0189978D01*
X0543783Y0189842D01*
X0543740Y0189708D01*
X0543693Y0189575D01*
X0543643Y0189444D01*
X0543588Y0189314D01*
X0543531Y0189185D01*
X0543469Y0189058D01*
X0543404Y0188933D01*
X0543336Y0188810D01*
X0543264Y0188689D01*
X0543189Y0188570D01*
X0543110Y0188453D01*
X0543028Y0188338D01*
X0542943Y0188226D01*
X0542855Y0188116D01*
X0542764Y0188009D01*
X0542670Y0187904D01*
X0542573Y0187802D01*
X0542473Y0187703D01*
X0542370Y0187606D01*
X0542265Y0187513D01*
X0542157Y0187422D01*
X0542046Y0187335D01*
X0541933Y0187251D01*
X0541818Y0187170D01*
X0541701Y0187092D01*
X0541581Y0187018D01*
X0541459Y0186947D01*
X0541336Y0186879D01*
X0541210Y0186815D01*
X0541083Y0186755D01*
X0540954Y0186698D01*
X0540824Y0186644D01*
X0540692Y0186595D01*
X0540558Y0186549D01*
X0540424Y0186507D01*
X0540288Y0186469D01*
X0540152Y0186434D01*
X0540014Y0186404D01*
X0539876Y0186377D01*
X0539737Y0186355D01*
X0539597Y0186336D01*
X0539457Y0186321D01*
X0539317Y0186310D01*
X0539176Y0186303D01*
X0539035Y0186300D01*
X0538894Y0186301D01*
X0538754Y0186306D01*
X0538613Y0186315D01*
X0538473Y0186328D01*
X0538333Y0186345D01*
X0538193Y0186365D01*
X0538055Y0186390D01*
X0537917Y0186419D01*
X0537780Y0186451D01*
X0537644Y0186487D01*
X0537509Y0186528D01*
X0537375Y0186572D01*
X0537242Y0186619D01*
X0537111Y0186671D01*
X0536981Y0186726D01*
X0536853Y0186784D01*
X0536727Y0186847D01*
X0536602Y0186912D01*
X0536480Y0186982D01*
X0536359Y0187054D01*
X0536240Y0187130D01*
X0536124Y0187210D01*
X0536010Y0187293D01*
X0535898Y0187378D01*
X0535789Y0187467D01*
X0535682Y0187559D01*
X0535578Y0187654D01*
X0535477Y0187752D01*
X0535378Y0187853D01*
X0535283Y0187956D01*
X0535190Y0188062D01*
X0535100Y0188171D01*
X0535014Y0188282D01*
X0534930Y0188395D01*
X0534850Y0188511D01*
X0534773Y0188629D01*
X0534700Y0188749D01*
X0534629Y0188872D01*
X0534563Y0188996D01*
X0534500Y0189122D01*
X0534440Y0189249D01*
X0534384Y0189378D01*
X0534332Y0189509D01*
X0534283Y0189641D01*
X0534238Y0189775D01*
X0534197Y0189910D01*
X0534160Y0190046D01*
X0534126Y0190182D01*
X0534097Y0190320D01*
X0534071Y0190459D01*
X0534050Y0190598D01*
X0534032Y0190738D01*
X0534018Y0190878D01*
X0534008Y0191018D01*
X0534002Y0191159D01*
X0534000Y0191300D01*
X0534000Y0021300D02*
X0534002Y0021441D01*
X0534008Y0021582D01*
X0534018Y0021722D01*
X0534032Y0021862D01*
X0534050Y0022002D01*
X0534071Y0022141D01*
X0534097Y0022280D01*
X0534126Y0022418D01*
X0534160Y0022554D01*
X0534197Y0022690D01*
X0534238Y0022825D01*
X0534283Y0022959D01*
X0534332Y0023091D01*
X0534384Y0023222D01*
X0534440Y0023351D01*
X0534500Y0023478D01*
X0534563Y0023604D01*
X0534629Y0023728D01*
X0534700Y0023851D01*
X0534773Y0023971D01*
X0534850Y0024089D01*
X0534930Y0024205D01*
X0535014Y0024318D01*
X0535100Y0024429D01*
X0535190Y0024538D01*
X0535283Y0024644D01*
X0535378Y0024747D01*
X0535477Y0024848D01*
X0535578Y0024946D01*
X0535682Y0025041D01*
X0535789Y0025133D01*
X0535898Y0025222D01*
X0536010Y0025307D01*
X0536124Y0025390D01*
X0536240Y0025470D01*
X0536359Y0025546D01*
X0536480Y0025618D01*
X0536602Y0025688D01*
X0536727Y0025753D01*
X0536853Y0025816D01*
X0536981Y0025874D01*
X0537111Y0025929D01*
X0537242Y0025981D01*
X0537375Y0026028D01*
X0537509Y0026072D01*
X0537644Y0026113D01*
X0537780Y0026149D01*
X0537917Y0026181D01*
X0538055Y0026210D01*
X0538193Y0026235D01*
X0538333Y0026255D01*
X0538473Y0026272D01*
X0538613Y0026285D01*
X0538754Y0026294D01*
X0538894Y0026299D01*
X0539035Y0026300D01*
X0539176Y0026297D01*
X0539317Y0026290D01*
X0539457Y0026279D01*
X0539597Y0026264D01*
X0539737Y0026245D01*
X0539876Y0026223D01*
X0540014Y0026196D01*
X0540152Y0026166D01*
X0540288Y0026131D01*
X0540424Y0026093D01*
X0540558Y0026051D01*
X0540692Y0026005D01*
X0540824Y0025956D01*
X0540954Y0025902D01*
X0541083Y0025845D01*
X0541210Y0025785D01*
X0541336Y0025721D01*
X0541459Y0025653D01*
X0541581Y0025582D01*
X0541701Y0025508D01*
X0541818Y0025430D01*
X0541933Y0025349D01*
X0542046Y0025265D01*
X0542157Y0025178D01*
X0542265Y0025087D01*
X0542370Y0024994D01*
X0542473Y0024897D01*
X0542573Y0024798D01*
X0542670Y0024696D01*
X0542764Y0024591D01*
X0542855Y0024484D01*
X0542943Y0024374D01*
X0543028Y0024262D01*
X0543110Y0024147D01*
X0543189Y0024030D01*
X0543264Y0023911D01*
X0543336Y0023790D01*
X0543404Y0023667D01*
X0543469Y0023542D01*
X0543531Y0023415D01*
X0543588Y0023286D01*
X0543643Y0023156D01*
X0543693Y0023025D01*
X0543740Y0022892D01*
X0543783Y0022758D01*
X0543822Y0022622D01*
X0543857Y0022486D01*
X0543889Y0022349D01*
X0543916Y0022211D01*
X0543940Y0022072D01*
X0543960Y0021932D01*
X0543976Y0021792D01*
X0543988Y0021652D01*
X0543996Y0021511D01*
X0544000Y0021370D01*
X0544000Y0021230D01*
X0543996Y0021089D01*
X0543988Y0020948D01*
X0543976Y0020808D01*
X0543960Y0020668D01*
X0543940Y0020528D01*
X0543916Y0020389D01*
X0543889Y0020251D01*
X0543857Y0020114D01*
X0543822Y0019978D01*
X0543783Y0019842D01*
X0543740Y0019708D01*
X0543693Y0019575D01*
X0543643Y0019444D01*
X0543588Y0019314D01*
X0543531Y0019185D01*
X0543469Y0019058D01*
X0543404Y0018933D01*
X0543336Y0018810D01*
X0543264Y0018689D01*
X0543189Y0018570D01*
X0543110Y0018453D01*
X0543028Y0018338D01*
X0542943Y0018226D01*
X0542855Y0018116D01*
X0542764Y0018009D01*
X0542670Y0017904D01*
X0542573Y0017802D01*
X0542473Y0017703D01*
X0542370Y0017606D01*
X0542265Y0017513D01*
X0542157Y0017422D01*
X0542046Y0017335D01*
X0541933Y0017251D01*
X0541818Y0017170D01*
X0541701Y0017092D01*
X0541581Y0017018D01*
X0541459Y0016947D01*
X0541336Y0016879D01*
X0541210Y0016815D01*
X0541083Y0016755D01*
X0540954Y0016698D01*
X0540824Y0016644D01*
X0540692Y0016595D01*
X0540558Y0016549D01*
X0540424Y0016507D01*
X0540288Y0016469D01*
X0540152Y0016434D01*
X0540014Y0016404D01*
X0539876Y0016377D01*
X0539737Y0016355D01*
X0539597Y0016336D01*
X0539457Y0016321D01*
X0539317Y0016310D01*
X0539176Y0016303D01*
X0539035Y0016300D01*
X0538894Y0016301D01*
X0538754Y0016306D01*
X0538613Y0016315D01*
X0538473Y0016328D01*
X0538333Y0016345D01*
X0538193Y0016365D01*
X0538055Y0016390D01*
X0537917Y0016419D01*
X0537780Y0016451D01*
X0537644Y0016487D01*
X0537509Y0016528D01*
X0537375Y0016572D01*
X0537242Y0016619D01*
X0537111Y0016671D01*
X0536981Y0016726D01*
X0536853Y0016784D01*
X0536727Y0016847D01*
X0536602Y0016912D01*
X0536480Y0016982D01*
X0536359Y0017054D01*
X0536240Y0017130D01*
X0536124Y0017210D01*
X0536010Y0017293D01*
X0535898Y0017378D01*
X0535789Y0017467D01*
X0535682Y0017559D01*
X0535578Y0017654D01*
X0535477Y0017752D01*
X0535378Y0017853D01*
X0535283Y0017956D01*
X0535190Y0018062D01*
X0535100Y0018171D01*
X0535014Y0018282D01*
X0534930Y0018395D01*
X0534850Y0018511D01*
X0534773Y0018629D01*
X0534700Y0018749D01*
X0534629Y0018872D01*
X0534563Y0018996D01*
X0534500Y0019122D01*
X0534440Y0019249D01*
X0534384Y0019378D01*
X0534332Y0019509D01*
X0534283Y0019641D01*
X0534238Y0019775D01*
X0534197Y0019910D01*
X0534160Y0020046D01*
X0534126Y0020182D01*
X0534097Y0020320D01*
X0534071Y0020459D01*
X0534050Y0020598D01*
X0534032Y0020738D01*
X0534018Y0020878D01*
X0534008Y0021018D01*
X0534002Y0021159D01*
X0534000Y0021300D01*
D11*
X0544000Y0001300D02*
X0019000Y0001300D01*
X0018638Y0001304D01*
X0018275Y0001318D01*
X0017913Y0001339D01*
X0017552Y0001370D01*
X0017192Y0001409D01*
X0016833Y0001457D01*
X0016475Y0001514D01*
X0016118Y0001579D01*
X0015763Y0001653D01*
X0015410Y0001736D01*
X0015059Y0001827D01*
X0014711Y0001926D01*
X0014365Y0002034D01*
X0014021Y0002150D01*
X0013681Y0002275D01*
X0013344Y0002407D01*
X0013010Y0002548D01*
X0012679Y0002697D01*
X0012352Y0002854D01*
X0012029Y0003018D01*
X0011710Y0003190D01*
X0011396Y0003370D01*
X0011085Y0003558D01*
X0010780Y0003753D01*
X0010479Y0003955D01*
X0010183Y0004165D01*
X0009893Y0004381D01*
X0009607Y0004605D01*
X0009327Y0004835D01*
X0009053Y0005072D01*
X0008785Y0005316D01*
X0008522Y0005566D01*
X0008266Y0005822D01*
X0008016Y0006085D01*
X0007772Y0006353D01*
X0007535Y0006627D01*
X0007305Y0006907D01*
X0007081Y0007193D01*
X0006865Y0007483D01*
X0006655Y0007779D01*
X0006453Y0008080D01*
X0006258Y0008385D01*
X0006070Y0008696D01*
X0005890Y0009010D01*
X0005718Y0009329D01*
X0005554Y0009652D01*
X0005397Y0009979D01*
X0005248Y0010310D01*
X0005107Y0010644D01*
X0004975Y0010981D01*
X0004850Y0011321D01*
X0004734Y0011665D01*
X0004626Y0012011D01*
X0004527Y0012359D01*
X0004436Y0012710D01*
X0004353Y0013063D01*
X0004279Y0013418D01*
X0004214Y0013775D01*
X0004157Y0014133D01*
X0004109Y0014492D01*
X0004070Y0014852D01*
X0004039Y0015213D01*
X0004018Y0015575D01*
X0004004Y0015938D01*
X0004000Y0016300D01*
X0004000Y0196300D01*
X0004004Y0196662D01*
X0004018Y0197025D01*
X0004039Y0197387D01*
X0004070Y0197748D01*
X0004109Y0198108D01*
X0004157Y0198467D01*
X0004214Y0198825D01*
X0004279Y0199182D01*
X0004353Y0199537D01*
X0004436Y0199890D01*
X0004527Y0200241D01*
X0004626Y0200589D01*
X0004734Y0200935D01*
X0004850Y0201279D01*
X0004975Y0201619D01*
X0005107Y0201956D01*
X0005248Y0202290D01*
X0005397Y0202621D01*
X0005554Y0202948D01*
X0005718Y0203271D01*
X0005890Y0203590D01*
X0006070Y0203904D01*
X0006258Y0204215D01*
X0006453Y0204520D01*
X0006655Y0204821D01*
X0006865Y0205117D01*
X0007081Y0205407D01*
X0007305Y0205693D01*
X0007535Y0205973D01*
X0007772Y0206247D01*
X0008016Y0206515D01*
X0008266Y0206778D01*
X0008522Y0207034D01*
X0008785Y0207284D01*
X0009053Y0207528D01*
X0009327Y0207765D01*
X0009607Y0207995D01*
X0009893Y0208219D01*
X0010183Y0208435D01*
X0010479Y0208645D01*
X0010780Y0208847D01*
X0011085Y0209042D01*
X0011396Y0209230D01*
X0011710Y0209410D01*
X0012029Y0209582D01*
X0012352Y0209746D01*
X0012679Y0209903D01*
X0013010Y0210052D01*
X0013344Y0210193D01*
X0013681Y0210325D01*
X0014021Y0210450D01*
X0014365Y0210566D01*
X0014711Y0210674D01*
X0015059Y0210773D01*
X0015410Y0210864D01*
X0015763Y0210947D01*
X0016118Y0211021D01*
X0016475Y0211086D01*
X0016833Y0211143D01*
X0017192Y0211191D01*
X0017552Y0211230D01*
X0017913Y0211261D01*
X0018275Y0211282D01*
X0018638Y0211296D01*
X0019000Y0211300D01*
X0544000Y0211300D01*
X0544484Y0211152D01*
X0544964Y0210993D01*
X0545440Y0210822D01*
X0545912Y0210640D01*
X0546380Y0210446D01*
X0546842Y0210241D01*
X0547299Y0210025D01*
X0547751Y0209797D01*
X0548198Y0209559D01*
X0548638Y0209310D01*
X0549072Y0209051D01*
X0549500Y0208781D01*
X0549921Y0208500D01*
X0550335Y0208210D01*
X0550742Y0207909D01*
X0551142Y0207599D01*
X0551534Y0207279D01*
X0551918Y0206950D01*
X0552294Y0206612D01*
X0552661Y0206264D01*
X0553021Y0205908D01*
X0553371Y0205543D01*
X0553712Y0205169D01*
X0554044Y0204788D01*
X0554367Y0204398D01*
X0554680Y0204001D01*
X0554984Y0203597D01*
X0555278Y0203185D01*
X0555561Y0202766D01*
X0555834Y0202340D01*
X0556097Y0201908D01*
X0556349Y0201469D01*
X0556591Y0201025D01*
X0556822Y0200574D01*
X0557041Y0200119D01*
X0557250Y0199658D01*
X0557447Y0199192D01*
X0557633Y0198722D01*
X0557808Y0198247D01*
X0557971Y0197768D01*
X0558122Y0197285D01*
X0558261Y0196799D01*
X0558389Y0196309D01*
X0558504Y0195817D01*
X0558608Y0195322D01*
X0558700Y0194824D01*
X0558779Y0194325D01*
X0558847Y0193823D01*
X0558902Y0193320D01*
X0558945Y0192816D01*
X0558975Y0192311D01*
X0558994Y0191806D01*
X0559000Y0191300D01*
X0559000Y0016300D01*
X0558996Y0015938D01*
X0558982Y0015575D01*
X0558961Y0015213D01*
X0558930Y0014852D01*
X0558891Y0014492D01*
X0558843Y0014133D01*
X0558786Y0013775D01*
X0558721Y0013418D01*
X0558647Y0013063D01*
X0558564Y0012710D01*
X0558473Y0012359D01*
X0558374Y0012011D01*
X0558266Y0011665D01*
X0558150Y0011321D01*
X0558025Y0010981D01*
X0557893Y0010644D01*
X0557752Y0010310D01*
X0557603Y0009979D01*
X0557446Y0009652D01*
X0557282Y0009329D01*
X0557110Y0009010D01*
X0556930Y0008696D01*
X0556742Y0008385D01*
X0556547Y0008080D01*
X0556345Y0007779D01*
X0556135Y0007483D01*
X0555919Y0007193D01*
X0555695Y0006907D01*
X0555465Y0006627D01*
X0555228Y0006353D01*
X0554984Y0006085D01*
X0554734Y0005822D01*
X0554478Y0005566D01*
X0554215Y0005316D01*
X0553947Y0005072D01*
X0553673Y0004835D01*
X0553393Y0004605D01*
X0553107Y0004381D01*
X0552817Y0004165D01*
X0552521Y0003955D01*
X0552220Y0003753D01*
X0551915Y0003558D01*
X0551604Y0003370D01*
X0551290Y0003190D01*
X0550971Y0003018D01*
X0550648Y0002854D01*
X0550321Y0002697D01*
X0549990Y0002548D01*
X0549656Y0002407D01*
X0549319Y0002275D01*
X0548979Y0002150D01*
X0548635Y0002034D01*
X0548289Y0001926D01*
X0547941Y0001827D01*
X0547590Y0001736D01*
X0547237Y0001653D01*
X0546882Y0001579D01*
X0546525Y0001514D01*
X0546167Y0001457D01*
X0545808Y0001409D01*
X0545448Y0001370D01*
X0545087Y0001339D01*
X0544725Y0001318D01*
X0544362Y0001304D01*
X0544000Y0001300D01*
D12*
X0548500Y0081300D03*
X0549500Y0091300D03*
X0548500Y0101300D03*
X0549500Y0111300D03*
X0548500Y0121300D03*
X0453500Y0175800D03*
X0443500Y0175800D03*
X0433500Y0175800D03*
X0423500Y0175800D03*
X0413500Y0175800D03*
X0413500Y0186800D03*
X0423500Y0186800D03*
X0433500Y0186800D03*
X0443500Y0186800D03*
X0453500Y0186800D03*
X0499000Y0182800D03*
X0509000Y0183800D03*
X0519000Y0182800D03*
X0519000Y0192800D03*
X0509000Y0193800D03*
X0499000Y0192800D03*
X0374000Y0186300D03*
X0364000Y0186300D03*
X0354000Y0186300D03*
X0344000Y0186300D03*
X0334000Y0186300D03*
X0324000Y0186300D03*
X0314000Y0186300D03*
X0304000Y0186300D03*
X0294000Y0186300D03*
X0284000Y0186300D03*
X0274000Y0186300D03*
X0264000Y0186300D03*
X0254000Y0186300D03*
X0244000Y0186300D03*
X0234000Y0186300D03*
X0224000Y0186300D03*
X0214000Y0186300D03*
X0204000Y0186300D03*
X0194000Y0186300D03*
X0184000Y0186300D03*
X0174000Y0186300D03*
X0164000Y0186300D03*
X0154000Y0186300D03*
X0144000Y0186300D03*
X0134000Y0186300D03*
X0124000Y0186300D03*
X0114000Y0186300D03*
X0104000Y0186300D03*
X0094000Y0186300D03*
X0084000Y0186300D03*
X0084000Y0176300D03*
X0094000Y0176300D03*
X0104000Y0176300D03*
X0114000Y0176300D03*
X0124000Y0176300D03*
X0134000Y0176300D03*
X0144000Y0176300D03*
X0154000Y0176300D03*
X0164000Y0176300D03*
X0174000Y0176300D03*
X0184000Y0176300D03*
X0194000Y0176300D03*
X0204000Y0176300D03*
X0214000Y0176300D03*
X0224000Y0176300D03*
X0234000Y0176300D03*
X0244000Y0176300D03*
X0254000Y0176300D03*
X0264000Y0176300D03*
X0274000Y0176300D03*
X0284000Y0176300D03*
X0294000Y0176300D03*
X0304000Y0176300D03*
X0314000Y0176300D03*
X0324000Y0176300D03*
X0334000Y0176300D03*
X0344000Y0176300D03*
X0354000Y0176300D03*
X0364000Y0176300D03*
X0374000Y0176300D03*
X0014500Y0121300D03*
X0013500Y0111300D03*
X0014500Y0101300D03*
X0013500Y0091300D03*
X0014500Y0081300D03*
D13*
X0034000Y0073900D02*
X0034000Y0068700D01*
X0044000Y0068700D02*
X0044000Y0073900D01*
X0054000Y0073900D02*
X0054000Y0068700D01*
X0064000Y0068700D02*
X0064000Y0073900D01*
X0074000Y0073900D02*
X0074000Y0068700D01*
X0084000Y0068700D02*
X0084000Y0073900D01*
X0094000Y0073900D02*
X0094000Y0068700D01*
X0104000Y0068700D02*
X0104000Y0073900D01*
X0114000Y0073900D02*
X0114000Y0068700D01*
X0114000Y0098700D02*
X0114000Y0103900D01*
X0104000Y0103900D02*
X0104000Y0098700D01*
X0094000Y0098700D02*
X0094000Y0103900D01*
X0084000Y0103900D02*
X0084000Y0098700D01*
X0074000Y0098700D02*
X0074000Y0103900D01*
X0064000Y0103900D02*
X0064000Y0098700D01*
X0054000Y0098700D02*
X0054000Y0103900D01*
X0044000Y0103900D02*
X0044000Y0098700D01*
X0034000Y0098700D02*
X0034000Y0103900D01*
X0409000Y0103900D02*
X0409000Y0098700D01*
X0419000Y0098700D02*
X0419000Y0103900D01*
X0429000Y0103900D02*
X0429000Y0098700D01*
X0439000Y0098700D02*
X0439000Y0103900D01*
X0449000Y0103900D02*
X0449000Y0098700D01*
X0459000Y0098700D02*
X0459000Y0103900D01*
X0469000Y0103900D02*
X0469000Y0098700D01*
X0479000Y0098700D02*
X0479000Y0103900D01*
X0489000Y0103900D02*
X0489000Y0098700D01*
X0489000Y0073900D02*
X0489000Y0068700D01*
X0479000Y0068700D02*
X0479000Y0073900D01*
X0469000Y0073900D02*
X0469000Y0068700D01*
X0459000Y0068700D02*
X0459000Y0073900D01*
X0449000Y0073900D02*
X0449000Y0068700D01*
X0439000Y0068700D02*
X0439000Y0073900D01*
X0429000Y0073900D02*
X0429000Y0068700D01*
X0419000Y0068700D02*
X0419000Y0073900D01*
X0409000Y0073900D02*
X0409000Y0068700D01*
D14*
X0419000Y0116300D03*
X0429000Y0116300D03*
X0439000Y0116300D03*
X0449000Y0116300D03*
X0459000Y0116300D03*
X0469000Y0116300D03*
X0479000Y0116300D03*
X0489000Y0116300D03*
X0489000Y0146300D03*
X0479000Y0146300D03*
X0469000Y0146300D03*
X0459000Y0146300D03*
X0449000Y0146300D03*
X0439000Y0146300D03*
X0429000Y0146300D03*
X0419000Y0146300D03*
X0104000Y0146300D03*
X0094000Y0146300D03*
X0084000Y0146300D03*
X0074000Y0146300D03*
X0064000Y0146300D03*
X0054000Y0146300D03*
X0044000Y0146300D03*
X0034000Y0146300D03*
X0034000Y0116300D03*
X0044000Y0116300D03*
X0054000Y0116300D03*
X0064000Y0116300D03*
X0074000Y0116300D03*
X0084000Y0116300D03*
X0094000Y0116300D03*
X0104000Y0116300D03*
D15*
X0109000Y0031300D03*
X0119000Y0031300D03*
X0129000Y0031300D03*
X0129000Y0011300D03*
X0119000Y0011300D03*
X0109000Y0011300D03*
X0229000Y0011300D03*
X0239000Y0011300D03*
X0249000Y0011300D03*
X0249000Y0031300D03*
X0239000Y0031300D03*
X0229000Y0031300D03*
X0349000Y0031300D03*
X0359000Y0031300D03*
X0369000Y0031300D03*
X0369000Y0011300D03*
X0359000Y0011300D03*
X0349000Y0011300D03*
X0469000Y0011300D03*
X0479000Y0011300D03*
X0489000Y0011300D03*
X0489000Y0031300D03*
X0479000Y0031300D03*
X0469000Y0031300D03*
D16*
X0428500Y0050828D03*
X0418500Y0050828D03*
X0408500Y0050828D03*
X0309000Y0050828D03*
X0299000Y0050828D03*
X0289000Y0050828D03*
X0189000Y0050828D03*
X0179000Y0050828D03*
X0169000Y0050828D03*
X0069000Y0050828D03*
X0059000Y0050828D03*
X0049000Y0050828D03*
D17*
X0040102Y0021300D03*
X0077898Y0021300D03*
X0160102Y0021300D03*
X0197898Y0021300D03*
X0280102Y0021300D03*
X0317898Y0021300D03*
X0399602Y0021300D03*
X0437398Y0021300D03*
D18*
X0469000Y0050800D03*
X0479000Y0050800D03*
X0489000Y0050800D03*
X0369000Y0050800D03*
X0359000Y0050800D03*
X0349000Y0050800D03*
X0249000Y0050800D03*
X0239000Y0050800D03*
X0229000Y0050800D03*
X0129000Y0050800D03*
X0119000Y0050800D03*
X0109000Y0050800D03*
D19*
X0518457Y0152300D03*
D20*
X0543063Y0152300D03*
X0529677Y0133402D03*
D21*
X0518500Y0106800D03*
X0518500Y0076800D03*
X0540000Y0049800D03*
X0540000Y0039800D03*
D22*
X0515000Y0031800D03*
X0515000Y0013296D03*
X0515000Y0050304D03*
D23*
X0378000Y0081300D03*
X0368000Y0081300D03*
X0358000Y0081300D03*
X0348000Y0081300D03*
X0338000Y0081300D03*
X0328000Y0081300D03*
X0318000Y0081300D03*
X0308000Y0081300D03*
X0298000Y0081300D03*
X0288000Y0081300D03*
X0278000Y0081300D03*
X0268000Y0081300D03*
X0258000Y0081300D03*
X0248000Y0081300D03*
X0238000Y0081300D03*
X0228000Y0081300D03*
X0218000Y0081300D03*
X0208000Y0081300D03*
X0198000Y0081300D03*
X0188000Y0081300D03*
X0178000Y0081300D03*
X0168000Y0081300D03*
X0158000Y0081300D03*
X0148000Y0081300D03*
X0158000Y0091300D03*
X0178000Y0091300D03*
X0188000Y0091300D03*
X0198000Y0091300D03*
X0208000Y0101300D03*
X0218000Y0101300D03*
X0228000Y0101300D03*
X0238000Y0101300D03*
X0238000Y0111300D03*
X0228000Y0111300D03*
X0218000Y0111300D03*
X0208000Y0111300D03*
X0208000Y0141300D03*
X0218000Y0141300D03*
X0228000Y0141300D03*
X0238000Y0141300D03*
X0248000Y0141300D03*
X0258000Y0141300D03*
X0268000Y0141300D03*
X0278000Y0141300D03*
X0288000Y0141300D03*
X0298000Y0141300D03*
X0308000Y0141300D03*
X0318000Y0141300D03*
X0328000Y0141300D03*
X0338000Y0141300D03*
X0348000Y0141300D03*
X0358000Y0141300D03*
X0368000Y0141300D03*
X0378000Y0141300D03*
X0328000Y0131300D03*
X0328000Y0121300D03*
X0328000Y0111300D03*
X0318000Y0111300D03*
X0308000Y0111300D03*
X0298000Y0111300D03*
X0298000Y0101300D03*
X0308000Y0101300D03*
X0318000Y0101300D03*
X0328000Y0101300D03*
X0338000Y0101300D03*
X0348000Y0101300D03*
X0358000Y0101300D03*
X0368000Y0101300D03*
X0378000Y0101300D03*
X0378000Y0111300D03*
X0368000Y0111300D03*
X0358000Y0111300D03*
X0348000Y0111300D03*
X0338000Y0111300D03*
X0328000Y0091300D03*
X0198000Y0141300D03*
X0188000Y0141300D03*
X0178000Y0141300D03*
X0168000Y0141300D03*
X0158000Y0141300D03*
D24*
X0148000Y0141300D03*
D25*
X0148375Y0141300D01*
X0174000Y0166925D01*
X0174000Y0176300D01*
X0189000Y0174425D02*
X0189000Y0181300D01*
X0194000Y0186300D01*
X0202125Y0181300D02*
X0211500Y0181300D01*
X0211500Y0183800D01*
X0214000Y0186300D01*
X0204000Y0186300D02*
X0204000Y0191300D01*
X0195875Y0199425D01*
X0171500Y0193800D02*
X0164000Y0186300D01*
X0159000Y0181300D02*
X0154000Y0176300D01*
X0144000Y0176300D02*
X0144000Y0163800D01*
X0150250Y0157550D01*
X0153375Y0142550D02*
X0165875Y0155050D01*
X0171500Y0154425D02*
X0158375Y0141300D01*
X0158000Y0141300D01*
X0153375Y0142550D02*
X0153375Y0138800D01*
X0145250Y0130675D01*
X0153375Y0130675D02*
X0153375Y0078175D01*
X0145250Y0070050D01*
X0163375Y0058800D02*
X0163375Y0129425D01*
X0172750Y0138800D01*
X0168375Y0141300D02*
X0168000Y0141300D01*
X0168375Y0141300D02*
X0175875Y0148800D01*
X0175875Y0161300D01*
X0189000Y0174425D01*
X0199000Y0174425D02*
X0199000Y0178175D01*
X0202125Y0181300D01*
X0199000Y0174425D02*
X0179000Y0154425D01*
X0213375Y0165675D02*
X0219625Y0171925D01*
X0223375Y0175675D02*
X0224000Y0176300D01*
X0223375Y0175675D02*
X0223375Y0145675D01*
X0253375Y0145675D01*
X0253375Y0115675D01*
X0279938Y0089112D01*
X0293375Y0102550D01*
X0293375Y0113800D01*
X0302125Y0122550D01*
X0302125Y0154425D01*
X0305875Y0158175D01*
X0324000Y0176300D01*
X0322125Y0173800D01*
X0322125Y0116925D01*
X0327750Y0111300D01*
X0328000Y0111300D01*
X0332125Y0111300D02*
X0334000Y0113175D01*
X0334000Y0137550D01*
X0337750Y0141300D01*
X0338000Y0141300D01*
X0329000Y0141925D02*
X0329000Y0151925D01*
X0335250Y0158175D01*
X0350250Y0158175D01*
X0350250Y0173175D01*
X0349000Y0174425D01*
X0349000Y0197550D01*
X0344000Y0200675D02*
X0344000Y0186300D01*
X0354000Y0186300D02*
X0365250Y0197550D01*
X0366500Y0200675D02*
X0344000Y0200675D01*
X0366500Y0200675D02*
X0380875Y0186300D01*
X0380875Y0166300D01*
X0362750Y0148175D01*
X0358375Y0147550D02*
X0358375Y0141300D01*
X0358000Y0141300D01*
X0363375Y0143175D02*
X0379625Y0159425D01*
X0379000Y0172550D02*
X0364625Y0158175D01*
X0353375Y0161300D02*
X0353375Y0110050D01*
X0355250Y0108175D01*
X0355250Y0103800D01*
X0357750Y0101300D01*
X0358000Y0101300D01*
X0359000Y0096300D02*
X0363375Y0100675D01*
X0363375Y0104425D01*
X0365250Y0106300D01*
X0372125Y0106925D02*
X0372125Y0121925D01*
X0369000Y0125050D02*
X0374625Y0130675D01*
X0374625Y0136300D01*
X0363375Y0143175D02*
X0363375Y0116300D01*
X0358375Y0111300D01*
X0358000Y0111300D01*
X0368000Y0111300D02*
X0368375Y0111300D01*
X0369000Y0111925D01*
X0369000Y0125050D01*
X0347750Y0118175D02*
X0347750Y0141300D01*
X0348000Y0141300D01*
X0358375Y0147550D02*
X0377750Y0166925D01*
X0385875Y0165050D02*
X0385875Y0191300D01*
X0374625Y0202550D01*
X0284000Y0202550D01*
X0284000Y0186300D01*
X0279000Y0188175D02*
X0263375Y0203800D01*
X0244000Y0203800D01*
X0244000Y0186300D01*
X0254000Y0186300D02*
X0254000Y0194425D01*
X0247750Y0200675D01*
X0259000Y0197550D02*
X0259000Y0182550D01*
X0257750Y0181300D01*
X0254000Y0176300D02*
X0254000Y0164425D01*
X0250875Y0161300D01*
X0247750Y0160675D02*
X0247750Y0173175D01*
X0249000Y0174425D01*
X0249000Y0194425D01*
X0279000Y0188175D02*
X0279000Y0163175D01*
X0280875Y0161300D01*
X0283375Y0160050D02*
X0284000Y0160675D01*
X0284000Y0176300D01*
X0277125Y0173175D02*
X0277125Y0161300D01*
X0283375Y0160050D02*
X0283375Y0119425D01*
X0290250Y0112550D01*
X0279000Y0106925D02*
X0262125Y0123800D01*
X0262125Y0146300D01*
X0247750Y0160675D01*
X0244000Y0160675D02*
X0244000Y0176300D01*
X0269625Y0171925D02*
X0269625Y0152550D01*
X0272125Y0150050D01*
X0272125Y0121925D01*
X0290250Y0103800D01*
X0279625Y0096925D02*
X0258375Y0118175D01*
X0258375Y0141300D01*
X0258000Y0141300D01*
X0248000Y0141300D02*
X0247750Y0141300D01*
X0247750Y0102550D01*
X0243375Y0098175D01*
X0243375Y0063800D01*
X0244000Y0063175D01*
X0244000Y0048800D01*
X0237750Y0042550D01*
X0239000Y0038175D02*
X0242125Y0041300D01*
X0239000Y0038175D02*
X0234000Y0038175D01*
X0234000Y0077550D01*
X0237750Y0081300D01*
X0238000Y0081300D01*
X0233375Y0080050D02*
X0233375Y0090675D01*
X0242125Y0099425D01*
X0242125Y0137550D01*
X0238375Y0141300D01*
X0238000Y0141300D01*
X0232125Y0137550D02*
X0228375Y0141300D01*
X0228000Y0141300D01*
X0223375Y0140675D02*
X0223375Y0145675D01*
X0223375Y0140675D02*
X0210250Y0127550D01*
X0210250Y0113175D01*
X0208375Y0111300D01*
X0208000Y0111300D01*
X0209000Y0111300D01*
X0209000Y0107550D01*
X0212750Y0103800D01*
X0212750Y0027550D01*
X0229000Y0011300D01*
X0239000Y0011300D02*
X0239000Y0006300D01*
X0324625Y0006300D01*
X0334625Y0016300D01*
X0334625Y0026925D01*
X0354625Y0046925D01*
X0364000Y0051925D02*
X0364000Y0030050D01*
X0350250Y0016300D01*
X0344625Y0016300D01*
X0344625Y0015050D01*
X0341500Y0011925D01*
X0349000Y0011300D02*
X0354000Y0006300D01*
X0385875Y0006300D01*
X0385875Y0042550D01*
X0388375Y0045050D01*
X0388375Y0070050D01*
X0387125Y0071300D01*
X0385250Y0067550D02*
X0384625Y0066925D01*
X0384625Y0045050D01*
X0382750Y0046925D02*
X0381500Y0045675D01*
X0381500Y0038175D01*
X0382750Y0036925D01*
X0382750Y0018800D01*
X0374000Y0026300D02*
X0359000Y0011300D01*
X0352125Y0026300D02*
X0330250Y0004425D01*
X0119000Y0004425D01*
X0119000Y0011300D01*
X0124000Y0010050D02*
X0127750Y0006300D01*
X0150875Y0006300D01*
X0150875Y0046300D01*
X0163375Y0058800D01*
X0187125Y0053175D02*
X0189000Y0051300D01*
X0189000Y0050828D01*
X0187125Y0053175D02*
X0187125Y0073175D01*
X0176500Y0073175D01*
X0168375Y0081300D01*
X0168000Y0081300D01*
X0182750Y0080050D02*
X0182750Y0101925D01*
X0177750Y0106925D01*
X0177750Y0141300D01*
X0178000Y0141300D01*
X0187750Y0141300D02*
X0188000Y0141300D01*
X0187750Y0141300D02*
X0187750Y0134425D01*
X0180875Y0127550D01*
X0197125Y0130675D02*
X0207750Y0141300D01*
X0208000Y0141300D01*
X0213375Y0140675D02*
X0213375Y0165675D01*
X0244000Y0160675D02*
X0255875Y0148800D01*
X0232125Y0137550D02*
X0232125Y0099425D01*
X0223375Y0090675D01*
X0223375Y0080050D01*
X0222125Y0078800D01*
X0222125Y0043175D01*
X0221500Y0042550D01*
X0224625Y0037550D02*
X0224625Y0048175D01*
X0224000Y0048800D01*
X0224000Y0070675D01*
X0233375Y0080050D01*
X0248000Y0081300D02*
X0248375Y0081300D01*
X0248375Y0086300D01*
X0259625Y0086300D01*
X0262750Y0083175D01*
X0262750Y0064425D01*
X0269625Y0057550D01*
X0269625Y0011925D01*
X0290250Y0011925D01*
X0322750Y0044425D01*
X0322750Y0045675D01*
X0325250Y0048175D01*
X0328375Y0047550D02*
X0290875Y0010050D01*
X0249000Y0010050D01*
X0249000Y0011300D01*
X0214000Y0020675D02*
X0203375Y0010050D01*
X0254625Y0030675D02*
X0254625Y0067550D01*
X0259625Y0072550D01*
X0268000Y0081300D02*
X0268375Y0081300D01*
X0268375Y0061300D01*
X0287125Y0042550D01*
X0287125Y0027550D01*
X0302125Y0027550D01*
X0319625Y0045050D01*
X0328375Y0047550D02*
X0328375Y0061300D01*
X0323375Y0066300D01*
X0323375Y0096300D01*
X0318375Y0101300D01*
X0318000Y0101300D01*
X0315250Y0104425D02*
X0312125Y0101300D01*
X0312125Y0098175D01*
X0308375Y0101300D02*
X0308000Y0101300D01*
X0308375Y0101300D02*
X0313375Y0106300D01*
X0313375Y0144425D01*
X0316500Y0142550D02*
X0316500Y0151300D01*
X0332125Y0151300D02*
X0332125Y0146925D01*
X0334000Y0145050D01*
X0329000Y0141925D02*
X0328375Y0141300D01*
X0328000Y0141300D01*
X0318000Y0141300D02*
X0317750Y0141300D01*
X0316500Y0142550D01*
X0298000Y0141300D02*
X0297750Y0141300D01*
X0286500Y0152550D01*
X0288000Y0141300D02*
X0288375Y0141300D01*
X0290250Y0139425D01*
X0290250Y0120050D01*
X0303375Y0120050D02*
X0303375Y0076925D01*
X0304000Y0076300D01*
X0304000Y0056300D01*
X0309000Y0051300D01*
X0309000Y0050828D01*
X0301500Y0030675D02*
X0280250Y0051925D01*
X0280250Y0079425D01*
X0278375Y0081300D01*
X0278000Y0081300D01*
X0279938Y0089112D02*
X0287750Y0081300D01*
X0288000Y0081300D01*
X0288375Y0081300D01*
X0288375Y0078175D01*
X0295250Y0071300D01*
X0337750Y0081300D02*
X0338000Y0081300D01*
X0337750Y0081300D02*
X0337750Y0038175D01*
X0332125Y0028175D02*
X0331500Y0027550D01*
X0332125Y0028175D02*
X0332125Y0111300D01*
X0338000Y0111300D02*
X0338375Y0111300D01*
X0343375Y0116300D01*
X0343375Y0151300D01*
X0356500Y0151300D02*
X0356500Y0173800D01*
X0354000Y0176300D01*
X0344000Y0176300D02*
X0344000Y0164425D01*
X0347125Y0161300D01*
X0379000Y0172550D02*
X0379000Y0178175D01*
X0375875Y0181300D01*
X0366500Y0181300D01*
X0366500Y0183800D01*
X0364000Y0186300D01*
X0401500Y0184425D02*
X0401500Y0119425D01*
X0399000Y0116925D01*
X0399000Y0061925D01*
X0397125Y0060050D01*
X0402125Y0061925D02*
X0413375Y0061925D01*
X0429000Y0071300D02*
X0407750Y0092550D01*
X0404625Y0089425D02*
X0404625Y0185050D01*
X0411500Y0191925D01*
X0433375Y0191925D01*
X0433375Y0186925D01*
X0433500Y0186800D01*
X0423500Y0186800D02*
X0423375Y0186300D01*
X0418375Y0181300D01*
X0418375Y0168800D01*
X0413375Y0163800D01*
X0413375Y0120675D01*
X0412750Y0120050D01*
X0443375Y0130675D02*
X0443375Y0083800D01*
X0433375Y0073800D01*
X0433375Y0048800D01*
X0415250Y0030675D01*
X0393375Y0030675D01*
X0393375Y0029425D01*
X0392125Y0028175D01*
X0379625Y0036300D02*
X0374000Y0030675D01*
X0374000Y0026300D01*
X0373375Y0040050D02*
X0373375Y0050675D01*
X0379625Y0056925D01*
X0382750Y0057550D02*
X0382750Y0046925D01*
X0369000Y0050800D02*
X0369000Y0070675D01*
X0373375Y0070675D01*
X0382125Y0079425D01*
X0382125Y0083175D01*
X0378375Y0086925D01*
X0378375Y0101300D01*
X0378000Y0101300D01*
X0377750Y0101300D01*
X0372125Y0106925D01*
X0368000Y0101300D02*
X0367750Y0101300D01*
X0360875Y0094425D01*
X0360875Y0084425D01*
X0363375Y0081925D01*
X0363375Y0071925D01*
X0366500Y0068800D01*
X0366500Y0054425D01*
X0364000Y0051925D01*
X0372750Y0067550D02*
X0382750Y0057550D01*
X0363375Y0060050D02*
X0351500Y0071925D01*
X0351500Y0078175D01*
X0348375Y0081300D01*
X0348000Y0081300D01*
X0343375Y0078175D02*
X0343375Y0113800D01*
X0347750Y0118175D01*
X0348000Y0111300D02*
X0348375Y0111300D01*
X0353375Y0106300D01*
X0353375Y0078175D01*
X0363375Y0068175D01*
X0358375Y0081300D02*
X0358000Y0081300D01*
X0358375Y0081300D02*
X0359000Y0081925D01*
X0359000Y0096300D01*
X0364000Y0085675D02*
X0369625Y0085675D01*
X0370875Y0084425D01*
X0372125Y0084425D01*
X0402125Y0086925D02*
X0404625Y0089425D01*
X0422750Y0081300D02*
X0433375Y0091925D01*
X0433375Y0141925D01*
X0450250Y0141925D01*
X0453375Y0145050D01*
X0453375Y0146300D01*
X0455250Y0148175D01*
X0455250Y0152550D01*
X0481500Y0178800D01*
X0458375Y0173800D02*
X0458375Y0195675D01*
X0454000Y0199425D02*
X0454000Y0186925D01*
X0453500Y0186800D01*
X0433500Y0175800D02*
X0433375Y0175675D01*
X0433375Y0141925D01*
X0429000Y0146300D02*
X0426500Y0148800D01*
X0426500Y0154425D01*
X0413375Y0166300D02*
X0407750Y0160675D01*
X0413375Y0166300D02*
X0413375Y0175675D01*
X0413500Y0175800D01*
X0423375Y0175675D02*
X0423500Y0175800D01*
X0423375Y0175675D02*
X0423375Y0143175D01*
X0416500Y0136300D01*
X0443375Y0130675D02*
X0459000Y0146300D01*
X0453375Y0150675D02*
X0453375Y0168800D01*
X0458375Y0173800D01*
X0518457Y0152300D02*
X0519000Y0151925D01*
X0519000Y0131300D01*
X0524625Y0125675D01*
X0524625Y0059425D01*
X0536500Y0047550D01*
X0536500Y0045675D01*
X0539625Y0045675D01*
X0544000Y0041300D01*
X0544000Y0031925D01*
X0515250Y0031925D01*
X0515000Y0031800D01*
X0495250Y0027550D02*
X0479000Y0011300D01*
X0495250Y0027550D02*
X0495250Y0140050D01*
X0489000Y0146300D01*
X0484625Y0145050D02*
X0484625Y0199425D01*
X0519625Y0199425D01*
X0552125Y0166925D01*
X0552125Y0124425D01*
X0549000Y0121300D01*
X0548500Y0121300D01*
X0522750Y0102550D02*
X0518500Y0106800D01*
X0522750Y0102550D02*
X0522750Y0056925D01*
X0539625Y0040050D01*
X0540000Y0039800D01*
X0540000Y0049800D02*
X0542750Y0052550D01*
X0542750Y0151925D01*
X0543063Y0152300D01*
X0493375Y0136300D02*
X0484625Y0145050D01*
X0483375Y0141925D02*
X0479000Y0146300D01*
X0483375Y0141925D02*
X0483375Y0083800D01*
X0472750Y0073175D01*
X0472750Y0066925D01*
X0442125Y0036300D01*
X0435250Y0039425D02*
X0435250Y0057550D01*
X0449000Y0071300D01*
X0463375Y0067550D02*
X0438375Y0042550D01*
X0458375Y0033175D02*
X0474000Y0048800D01*
X0474000Y0056300D01*
X0489000Y0071300D01*
X0470875Y0073175D02*
X0469000Y0071300D01*
X0470875Y0073175D02*
X0470875Y0095050D01*
X0473375Y0097550D01*
X0473375Y0149425D01*
X0469000Y0146300D02*
X0463375Y0140675D01*
X0463375Y0067550D01*
X0489000Y0051300D02*
X0493375Y0055675D01*
X0493375Y0111925D01*
X0492125Y0111925D01*
X0493375Y0111925D02*
X0493375Y0136300D01*
X0453375Y0150675D02*
X0449000Y0146300D01*
X0387125Y0163800D02*
X0385875Y0165050D01*
X0314000Y0186300D02*
X0314000Y0190050D01*
X0309625Y0194425D01*
X0309625Y0198175D02*
X0304000Y0192550D01*
X0304000Y0186300D01*
X0304000Y0176300D02*
X0310875Y0169425D01*
X0277125Y0173175D02*
X0274000Y0176300D01*
X0213375Y0140675D02*
X0203375Y0130675D01*
X0203375Y0105675D01*
X0207750Y0101300D01*
X0208000Y0101300D01*
X0213375Y0105675D02*
X0217750Y0101300D01*
X0218000Y0101300D01*
X0213375Y0105675D02*
X0213375Y0126300D01*
X0216500Y0123800D02*
X0222125Y0118175D01*
X0222125Y0106925D01*
X0227750Y0101300D01*
X0228000Y0101300D01*
X0192125Y0106925D02*
X0180875Y0118175D01*
X0114000Y0113800D02*
X0114000Y0101300D01*
X0104000Y0101300D02*
X0094000Y0111300D01*
X0094000Y0116300D01*
X0084000Y0116300D02*
X0084000Y0111300D01*
X0094000Y0101300D01*
X0084000Y0101300D02*
X0074000Y0111300D01*
X0074000Y0116300D01*
X0064000Y0116300D02*
X0064000Y0111300D01*
X0074000Y0101300D01*
X0064000Y0101300D02*
X0059625Y0105675D01*
X0059625Y0110675D01*
X0054000Y0116300D01*
X0049000Y0115675D02*
X0049000Y0117550D01*
X0049000Y0115675D02*
X0057750Y0106925D01*
X0057750Y0077550D01*
X0064000Y0071300D01*
X0054000Y0071300D02*
X0051500Y0073800D01*
X0051500Y0080050D01*
X0037125Y0094425D01*
X0029625Y0094425D01*
X0029625Y0117550D01*
X0036500Y0124425D01*
X0110250Y0124425D01*
X0110250Y0125675D01*
X0110250Y0130675D02*
X0110250Y0140050D01*
X0104000Y0146300D01*
X0110250Y0148800D02*
X0099000Y0160050D01*
X0099000Y0188175D01*
X0109000Y0198175D01*
X0144000Y0198175D01*
X0144000Y0186300D01*
X0149000Y0181300D02*
X0154000Y0186300D01*
X0149000Y0181300D02*
X0149000Y0167550D01*
X0148375Y0166925D01*
X0124000Y0176300D02*
X0121500Y0173800D01*
X0121500Y0145675D01*
X0106500Y0132550D02*
X0098375Y0140675D01*
X0098375Y0158175D01*
X0094000Y0162550D01*
X0094000Y0176300D01*
X0094000Y0186300D02*
X0094000Y0199425D01*
X0075875Y0199425D01*
X0072125Y0195675D01*
X0072125Y0164425D01*
X0078375Y0158175D01*
X0078375Y0146300D01*
X0095250Y0129425D01*
X0070875Y0131925D02*
X0068375Y0129425D01*
X0059625Y0129425D01*
X0059625Y0179425D01*
X0069000Y0178800D02*
X0069000Y0133800D01*
X0067750Y0132550D01*
X0070875Y0131925D02*
X0070875Y0143175D01*
X0074000Y0146300D01*
X0065875Y0148175D02*
X0065875Y0193175D01*
X0076500Y0203800D01*
X0159000Y0203800D01*
X0159000Y0181300D01*
X0065875Y0148175D02*
X0064000Y0146300D01*
X0014500Y0121300D02*
X0014000Y0121300D01*
X0007750Y0115050D01*
X0007750Y0080675D01*
X0013375Y0075050D01*
X0014625Y0071300D02*
X0034000Y0071300D01*
X0041500Y0063800D01*
X0041500Y0044425D01*
X0074625Y0011300D01*
X0109000Y0011300D01*
X0117750Y0016300D02*
X0124000Y0016300D01*
X0124000Y0010050D01*
X0117750Y0016300D02*
X0098375Y0035675D01*
X0098375Y0056925D01*
X0084000Y0071300D01*
X0094000Y0071300D02*
X0101500Y0063800D01*
X0101500Y0041300D01*
X0104000Y0042550D02*
X0114000Y0032550D01*
X0114000Y0028175D01*
X0114000Y0039425D02*
X0114000Y0071300D01*
X0104000Y0071300D02*
X0104000Y0042550D01*
X0095250Y0045675D02*
X0046500Y0045675D01*
X0043375Y0048800D01*
X0043375Y0070675D01*
X0044000Y0071300D01*
X0044000Y0101300D02*
X0034000Y0111300D01*
X0034000Y0116300D01*
X0044000Y0116300D02*
X0044000Y0111300D01*
X0054000Y0101300D01*
X0182750Y0080050D02*
X0194000Y0068800D01*
X0194000Y0045675D01*
X0162750Y0045675D01*
X0221500Y0034425D02*
X0224625Y0037550D01*
X0393375Y0008175D02*
X0394625Y0008175D01*
X0398375Y0004425D01*
X0547750Y0004425D01*
X0547750Y0080675D01*
X0548375Y0081300D01*
X0548500Y0081300D01*
X0489000Y0051300D02*
X0489000Y0050800D01*
X0318000Y0111300D02*
X0317750Y0111300D01*
X0315250Y0108800D01*
X0315250Y0104425D01*
X0454000Y0199425D02*
X0484625Y0199425D01*
D26*
X0458375Y0195675D03*
X0481500Y0178800D03*
X0426500Y0154425D03*
X0444000Y0149425D03*
X0473375Y0149425D03*
X0416500Y0136300D03*
X0408375Y0132550D03*
X0379625Y0125675D03*
X0372125Y0121925D03*
X0367750Y0128800D03*
X0374625Y0136300D03*
X0362750Y0148175D03*
X0356500Y0151300D03*
X0343375Y0151300D03*
X0332125Y0151300D03*
X0334000Y0145050D03*
X0316500Y0151300D03*
X0305875Y0158175D03*
X0287750Y0165675D03*
X0280875Y0161300D03*
X0277125Y0161300D03*
X0286500Y0152550D03*
X0313375Y0144425D03*
X0347125Y0161300D03*
X0353375Y0161300D03*
X0364625Y0158175D03*
X0379625Y0159425D03*
X0387125Y0155050D03*
X0407750Y0160675D03*
X0387125Y0163800D03*
X0377750Y0166925D03*
X0364000Y0166925D03*
X0340250Y0164425D03*
X0310875Y0169425D03*
X0269625Y0171925D03*
X0257750Y0181300D03*
X0249000Y0194425D03*
X0259000Y0197550D03*
X0247750Y0200675D03*
X0240250Y0204425D03*
X0195875Y0199425D03*
X0171500Y0193800D03*
X0125875Y0194425D03*
X0078375Y0193175D03*
X0069000Y0178800D03*
X0059625Y0179425D03*
X0081500Y0165050D03*
X0090875Y0161300D03*
X0084000Y0157550D03*
X0110250Y0148800D03*
X0121500Y0145675D03*
X0140250Y0152550D03*
X0150250Y0157550D03*
X0165875Y0155050D03*
X0171500Y0154425D03*
X0179000Y0154425D03*
X0162750Y0165050D03*
X0148375Y0166925D03*
X0125250Y0164425D03*
X0125250Y0155675D03*
X0117750Y0155675D03*
X0172750Y0138800D03*
X0153375Y0130675D03*
X0145250Y0130675D03*
X0110250Y0130675D03*
X0106500Y0132550D03*
X0095250Y0129425D03*
X0110250Y0125675D03*
X0114000Y0113800D03*
X0121500Y0113800D03*
X0125250Y0106300D03*
X0128375Y0102550D03*
X0134625Y0097550D03*
X0116500Y0093800D03*
X0134625Y0077550D03*
X0145250Y0070050D03*
X0141500Y0066300D03*
X0134000Y0061925D03*
X0157750Y0058175D03*
X0183375Y0069425D03*
X0162750Y0045675D03*
X0114000Y0039425D03*
X0101500Y0041300D03*
X0095250Y0045675D03*
X0069000Y0061300D03*
X0014625Y0071300D03*
X0013375Y0075050D03*
X0049000Y0117550D03*
X0067750Y0132550D03*
X0167125Y0101300D03*
X0185250Y0104425D03*
X0192125Y0106925D03*
X0195250Y0101300D03*
X0180875Y0118175D03*
X0180875Y0127550D03*
X0197125Y0130675D03*
X0213375Y0126300D03*
X0216500Y0123800D03*
X0255875Y0148800D03*
X0250875Y0161300D03*
X0227125Y0161300D03*
X0219625Y0171925D03*
X0305250Y0198800D03*
X0309625Y0198175D03*
X0309625Y0194425D03*
X0340250Y0195050D03*
X0349000Y0197550D03*
X0365250Y0197550D03*
X0378375Y0193800D03*
X0397750Y0200050D03*
X0394625Y0205050D03*
X0401500Y0184425D03*
X0397125Y0120050D03*
X0412750Y0120050D03*
X0365250Y0106300D03*
X0382125Y0094425D03*
X0387125Y0091300D03*
X0402125Y0086925D03*
X0407125Y0086925D03*
X0407750Y0092550D03*
X0422750Y0081300D03*
X0387125Y0071300D03*
X0385250Y0067550D03*
X0394625Y0063800D03*
X0402125Y0061925D03*
X0397125Y0060050D03*
X0413375Y0061925D03*
X0384625Y0075050D03*
X0372750Y0067550D03*
X0363375Y0068175D03*
X0363375Y0060050D03*
X0348375Y0061300D03*
X0320875Y0063800D03*
X0307750Y0067550D03*
X0295250Y0071300D03*
X0300250Y0075050D03*
X0284000Y0065050D03*
X0259625Y0072550D03*
X0247125Y0065050D03*
X0237750Y0042550D03*
X0242125Y0041300D03*
X0221500Y0042550D03*
X0221500Y0034425D03*
X0254625Y0030675D03*
X0214000Y0020675D03*
X0203375Y0010050D03*
X0265875Y0013800D03*
X0301500Y0030675D03*
X0331500Y0027550D03*
X0352125Y0026300D03*
X0337750Y0038175D03*
X0319625Y0045050D03*
X0325250Y0048175D03*
X0354625Y0046925D03*
X0373375Y0040050D03*
X0379625Y0036300D03*
X0384625Y0045050D03*
X0379625Y0056925D03*
X0343375Y0078175D03*
X0364000Y0085675D03*
X0372125Y0084425D03*
X0349625Y0090675D03*
X0312125Y0098175D03*
X0290250Y0103800D03*
X0279000Y0106925D03*
X0290250Y0112550D03*
X0290250Y0120050D03*
X0303375Y0120050D03*
X0279625Y0096925D03*
X0435250Y0039425D03*
X0442125Y0036300D03*
X0438375Y0042550D03*
X0458375Y0033175D03*
X0438375Y0008175D03*
X0393375Y0008175D03*
X0382750Y0018800D03*
X0392125Y0028175D03*
X0341500Y0011925D03*
X0114000Y0028175D03*
X0492125Y0111925D03*
D27*
X0507750Y0088175D02*
X0518375Y0077550D01*
X0518500Y0076800D01*
X0518375Y0076300D01*
X0515250Y0073175D01*
X0515250Y0050675D01*
X0515000Y0050304D01*
X0479000Y0050800D02*
X0479000Y0048800D01*
X0438375Y0008175D01*
X0398375Y0008175D01*
X0388375Y0018175D01*
X0388375Y0029425D01*
X0390875Y0031925D01*
X0390875Y0092550D01*
X0390250Y0093175D01*
X0390250Y0121925D01*
X0390875Y0122550D01*
X0390875Y0208175D01*
X0199625Y0208175D01*
X0192125Y0200675D01*
X0192125Y0194425D01*
X0184000Y0186300D01*
X0227125Y0169425D02*
X0227125Y0161300D01*
X0227125Y0169425D02*
X0234000Y0176300D01*
X0234000Y0186300D02*
X0240250Y0192550D01*
X0240250Y0204425D01*
X0294000Y0186300D02*
X0305250Y0197550D01*
X0305250Y0198800D01*
X0334000Y0186300D02*
X0340250Y0192550D01*
X0340250Y0195050D01*
X0378375Y0193800D02*
X0383375Y0188800D01*
X0383375Y0093800D01*
X0382125Y0094425D01*
X0383375Y0093175D01*
X0383375Y0085675D01*
X0384625Y0084425D01*
X0384625Y0075050D01*
X0394625Y0063800D02*
X0394625Y0092550D01*
X0393375Y0093800D01*
X0393375Y0121300D01*
X0394000Y0121925D01*
X0394000Y0204425D01*
X0394625Y0205050D01*
X0397750Y0200050D02*
X0397125Y0199425D01*
X0397125Y0120050D01*
X0379625Y0125675D02*
X0379625Y0140050D01*
X0378375Y0141300D01*
X0378000Y0141300D01*
X0368000Y0141300D02*
X0367750Y0141300D01*
X0367750Y0128800D01*
X0408375Y0132550D02*
X0409000Y0131925D01*
X0409000Y0101300D01*
X0387125Y0091300D02*
X0387125Y0155050D01*
X0364000Y0166925D02*
X0364000Y0176300D01*
X0340250Y0170050D02*
X0340250Y0164425D01*
X0340250Y0170050D02*
X0334000Y0176300D01*
X0294000Y0176300D02*
X0287750Y0170050D01*
X0287750Y0165675D01*
X0162750Y0165050D02*
X0141500Y0143800D01*
X0141500Y0066300D01*
X0138375Y0068175D02*
X0134000Y0063800D01*
X0134000Y0061925D01*
X0119000Y0061925D01*
X0119000Y0050800D01*
X0109000Y0050800D02*
X0109000Y0113800D01*
X0114000Y0118800D01*
X0114000Y0176300D01*
X0134000Y0176300D02*
X0135250Y0175050D01*
X0135250Y0098175D01*
X0134625Y0097550D01*
X0132125Y0101300D02*
X0132125Y0157550D01*
X0125250Y0164425D01*
X0125250Y0155675D02*
X0129000Y0151925D01*
X0129000Y0103175D01*
X0128375Y0102550D01*
X0130875Y0100050D02*
X0132125Y0101300D01*
X0130875Y0100050D02*
X0130875Y0081300D01*
X0134625Y0077550D01*
X0138375Y0068175D02*
X0138375Y0150675D01*
X0140250Y0152550D01*
X0125250Y0136925D02*
X0117750Y0144425D01*
X0117750Y0155675D01*
X0090875Y0161300D02*
X0084000Y0168175D01*
X0084000Y0176300D01*
X0078375Y0168175D02*
X0078375Y0193175D01*
X0077125Y0196925D02*
X0074625Y0194425D01*
X0074625Y0166925D01*
X0084000Y0157550D01*
X0081500Y0165050D02*
X0078375Y0168175D01*
X0084000Y0186300D02*
X0084000Y0196925D01*
X0077125Y0196925D01*
X0125875Y0194425D02*
X0134000Y0186300D01*
X0125250Y0136925D02*
X0125250Y0106300D01*
X0121500Y0113800D02*
X0121500Y0098800D01*
X0116500Y0093800D01*
X0157750Y0081300D02*
X0158000Y0081300D01*
X0157750Y0081300D02*
X0157750Y0058175D01*
X0179000Y0065050D02*
X0179000Y0050828D01*
X0179000Y0065050D02*
X0183375Y0069425D01*
X0188000Y0081300D02*
X0188375Y0081300D01*
X0193375Y0086300D01*
X0203375Y0086300D01*
X0203375Y0093175D01*
X0195250Y0101300D01*
X0185250Y0104425D02*
X0185250Y0093800D01*
X0187750Y0091300D01*
X0188000Y0091300D01*
X0178000Y0081300D02*
X0177750Y0081300D01*
X0167125Y0091925D01*
X0167125Y0101300D01*
X0217750Y0081300D02*
X0218000Y0081300D01*
X0217750Y0081300D02*
X0217750Y0033175D01*
X0234000Y0016925D01*
X0265875Y0016925D01*
X0265875Y0013800D01*
X0289000Y0050828D02*
X0289000Y0051300D01*
X0284000Y0056300D01*
X0284000Y0065050D01*
X0299000Y0073800D02*
X0299000Y0050828D01*
X0320875Y0063800D02*
X0320875Y0078800D01*
X0318375Y0081300D01*
X0318000Y0081300D01*
X0308000Y0081300D02*
X0307750Y0081300D01*
X0307750Y0067550D01*
X0300250Y0075050D02*
X0299000Y0073800D01*
X0258000Y0081300D02*
X0257750Y0081300D01*
X0247125Y0070675D01*
X0247125Y0065050D01*
X0348375Y0061300D02*
X0359000Y0050675D01*
X0359000Y0050800D01*
X0414000Y0066300D02*
X0418375Y0061925D01*
X0418375Y0051300D01*
X0418500Y0050828D01*
X0414000Y0066300D02*
X0414000Y0080050D01*
X0407125Y0086925D01*
X0349625Y0090675D02*
X0349625Y0100050D01*
X0348375Y0101300D01*
X0348000Y0101300D01*
X0444000Y0149425D02*
X0444000Y0175675D01*
X0443500Y0175800D01*
X0444000Y0176300D01*
X0444000Y0186300D01*
X0443500Y0186800D01*
X0507750Y0182550D02*
X0507750Y0088175D01*
X0507750Y0182550D02*
X0509000Y0183800D01*
X0069000Y0061300D02*
X0059000Y0051300D01*
X0059000Y0050828D01*
X0049000Y0050828D02*
X0049000Y0075675D01*
X0036500Y0088175D01*
X0036500Y0091300D01*
X0013500Y0091300D01*
M02*
