  0
SECTION
  2
HEADER
  9
$ACADVER
  1
AC1009
  9
$DWGCODEPAGE
  3
mac-roman
  9
$INSBASE
 10
0.0
 20
0.0
 30
0.0
  9
$EXTMIN
 10
79.19321020378655
 20
-1687.485510148432
 30
0.0
  9
$EXTMAX
 10
1208.190993840759
 20
-1364.540419399089
 30
0.0
  9
$LIMMIN
 10
0.0
 20
0.0
  9
$LIMMAX
 10
12.0
 20
9.0
  9
$ORTHOMODE
 70
     0
  9
$REGENMODE
 70
     1
  9
$FILLMODE
 70
     1
  9
$QTEXTMODE
 70
     0
  9
$MIRRTEXT
 70
     1
  9
$DRAGMODE
 70
     2
  9
$LTSCALE
 40
1.0
  9
$OSMODE
 70
    37
  9
$ATTMODE
 70
     1
  9
$TEXTSIZE
 40
0.2
  9
$TRACEWID
 40
0.05
  9
$TEXTSTYLE
  7
STANDARD
  9
$CLAYER
  8
FAB_4$CUT_ALL
  9
$CELTYPE
  6
BYLAYER
  9
$CECOLOR
 62
   256
  9
$DIMSCALE
 40
1.0
  9
$DIMASZ
 40
0.18
  9
$DIMEXO
 40
0.0625
  9
$DIMDLI
 40
0.38
  9
$DIMRND
 40
0.0
  9
$DIMDLE
 40
0.0
  9
$DIMEXE
 40
0.18
  9
$DIMTP
 40
0.0
  9
$DIMTM
 40
0.0
  9
$DIMTXT
 40
0.18
  9
$DIMCEN
 40
0.09
  9
$DIMTSZ
 40
0.0
  9
$DIMTOL
 70
     0
  9
$DIMLIM
 70
     0
  9
$DIMTIH
 70
     1
  9
$DIMTOH
 70
     1
  9
$DIMSE1
 70
     0
  9
$DIMSE2
 70
     0
  9
$DIMTAD
 70
     0
  9
$DIMZIN
 70
     0
  9
$DIMBLK
  1

  9
$DIMASO
 70
     1
  9
$DIMSHO
 70
     1
  9
$DIMPOST
  1

  9
$DIMAPOST
  1

  9
$DIMALT
 70
     0
  9
$DIMALTD
 70
     2
  9
$DIMALTF
 40
25.4
  9
$DIMLFAC
 40
1.0
  9
$DIMTOFL
 70
     0
  9
$DIMTVP
 40
0.0
  9
$DIMTIX
 70
     0
  9
$DIMSOXD
 70
     0
  9
$DIMSAH
 70
     0
  9
$DIMBLK1
  1

  9
$DIMBLK2
  1

  9
$DIMSTYLE
  2
STANDARD
  9
$DIMCLRD
 70
     0
  9
$DIMCLRE
 70
     0
  9
$DIMCLRT
 70
     0
  9
$DIMTFAC
 40
1.0
  9
$DIMGAP
 40
0.09
  9
$LUNITS
 70
     2
  9
$LUPREC
 70
     3
  9
$SKETCHINC
 40
0.1
  9
$FILLETRAD
 40
0.5
  9
$AUNITS
 70
     0
  9
$AUPREC
 70
     0
  9
$MENU
  1
.
  9
$ELEVATION
 40
0.0
  9
$PELEVATION
 40
0.0
  9
$THICKNESS
 40
0.0
  9
$LIMCHECK
 70
     0
  9
$CHAMFERA
 40
0.0
  9
$CHAMFERB
 40
0.0
  9
$SKPOLY
 70
     0
  9
$TDCREATE
 40
2457967.820520833
  9
$TDUPDATE
 40
2457967.820543982
  9
$TDINDWG
 40
0.0000000116
  9
$TDUSRTIMER
 40
0.0000000116
  9
$USRTIMER
 70
     1
  9
$ANGBASE
 50
0.0
  9
$ANGDIR
 70
     0
  9
$PDMODE
 70
     0
  9
$PDSIZE
 40
0.0
  9
$PLINEWID
 40
0.0
  9
$COORDS
 70
     1
  9
$SPLFRAME
 70
     0
  9
$SPLINETYPE
 70
     6
  9
$SPLINESEGS
 70
     8
  9
$ATTDIA
 70
     0
  9
$ATTREQ
 70
     1
  9
$HANDLING
 70
     1
  9
$HANDSEED
  5
3B3
  9
$SURFTAB1
 70
     6
  9
$SURFTAB2
 70
     6
  9
$SURFTYPE
 70
     6
  9
$SURFU
 70
     6
  9
$SURFV
 70
     6
  9
$UCSNAME
  2

  9
$UCSORG
 10
0.0
 20
0.0
 30
0.0
  9
$UCSXDIR
 10
1.0
 20
0.0
 30
0.0
  9
$UCSYDIR
 10
0.0
 20
1.0
 30
0.0
  9
$PUCSNAME
  2

  9
$PUCSORG
 10
0.0
 20
0.0
 30
0.0
  9
$PUCSXDIR
 10
1.0
 20
0.0
 30
0.0
  9
$PUCSYDIR
 10
0.0
 20
1.0
 30
0.0
  9
$USERI1
 70
     0
  9
$USERI2
 70
     0
  9
$USERI3
 70
     0
  9
$USERI4
 70
     0
  9
$USERI5
 70
     0
  9
$USERR1
 40
0.0
  9
$USERR2
 40
0.0
  9
$USERR3
 40
0.0
  9
$USERR4
 40
0.0
  9
$USERR5
 40
0.0
  9
$WORLDVIEW
 70
     1
  9
$SHADEDGE
 70
     3
  9
$SHADEDIF
 70
    70
  9
$TILEMODE
 70
     1
  9
$MAXACTVP
 70
    64
  9
$PLIMCHECK
 70
     0
  9
$PEXTMIN
 10
1.000000000000000E+20
 20
1.000000000000000E+20
 30
1.000000000000000E+20
  9
$PEXTMAX
 10
-1.000000000000000E+20
 20
-1.000000000000000E+20
 30
-1.000000000000000E+20
  9
$PLIMMIN
 10
0.0
 20
0.0
  9
$PLIMMAX
 10
12.0
 20
9.0
  9
$UNITMODE
 70
     0
  9
$VISRETAIN
 70
     1
  9
$PLINEGEN
 70
     0
  9
$PSLTSCALE
 70
     1
  0
ENDSEC
  0
SECTION
  2
TABLES
  0
TABLE
  2
VPORT
 70
     1
  0
VPORT
  2
*ACTIVE
 70
     0
 10
0.0
 20
0.0
 11
1.0
 21
1.0
 12
643.6921020222728
 22
-1526.01296477376
 13
0.0
 23
0.0
 14
0.5
 24
0.5
 15
0.5
 25
0.5
 16
0.0
 26
0.0
 36
1.0
 17
0.0
 27
0.0
 37
0.0
 40
329.4039925643297
 41
3.495943477627458
 42
50.0
 43
0.0
 44
0.0
 50
0.0
 51
0.0
 71
     0
 72
   100
 73
     1
 74
     3
 75
     0
 76
     0
 77
     0
 78
     0
  0
ENDTAB
  0
TABLE
  2
LTYPE
 70
     1
  0
LTYPE
  2
CONTINUOUS
 70
     0
  3
Solid line
 72
    65
 73
     0
 40
0.0
  0
ENDTAB
  0
TABLE
  2
LAYER
 70
     2
  0
LAYER
  2
0
 70
     0
 62
     7
  6
CONTINUOUS
  0
LAYER
  2
FAB_4$CUT_ALL
 70
     0
 62
     7
  6
CONTINUOUS
  0
ENDTAB
  0
TABLE
  2
STYLE
 70
     1
  0
STYLE
  2
STANDARD
 70
     0
 40
0.0
 41
1.0
 50
0.0
 71
     0
 42
0.2
  3
txt
  4

  0
ENDTAB
  0
TABLE
  2
VIEW
 70
     0
  0
ENDTAB
  0
TABLE
  2
UCS
 70
     0
  0
ENDTAB
  0
TABLE
  2
APPID
 70
     1
  0
APPID
  2
ACAD
 70
     0
  0
ENDTAB
  0
TABLE
  2
DIMSTYLE
 70
     1
  0
DIMSTYLE
  2
STANDARD
 70
     0
  3

  4

  5

  6

  7

 40
1.0
 41
0.18
 42
0.0625
 43
0.38
 44
0.18
 45
0.0
 46
0.0
 47
0.0
 48
0.0
140
0.18
141
0.09
142
0.0
143
25.4
144
1.0
145
0.0
146
1.0
147
0.09
 71
     0
 72
     0
 73
     1
 74
     1
 75
     0
 76
     0
 77
     0
 78
     0
170
     0
171
     2
172
     0
173
     0
174
     0
175
     0
176
     0
177
     0
178
     0
  0
ENDTAB
  0
ENDSEC
  0
SECTION
  2
BLOCKS
  0
BLOCK
  8
0
  2
$MODEL_SPACE
 70
     0
 10
0.0
 20
0.0
 30
0.0
  3
$MODEL_SPACE
  1

  0
ENDBLK
  5
21
  8
0
  0
BLOCK
 67
     1
  8
0
  2
$PAPER_SPACE
 70
     0
 10
0.0
 20
0.0
 30
0.0
  3
$PAPER_SPACE
  1

  0
ENDBLK
  5
1D
 67
     1
  8
0
  0
ENDSEC
  0
SECTION
  2
ENTITIES
  0
LINE
  5
6F
  8
FAB_4$CUT_ALL
 10
566.0552649018224
 20
-1429.154734505618
 30
0.0
 11
566.0552649018229
 21
-1618.925667411969
 31
0.0
  0
ARC
  5
70
  8
FAB_4$CUT_ALL
 10
576.0552649018229
 20
-1618.925667411968
 30
0.0
 40
10.0
 50
180.0000000000026
 51
294.3101717063948
  0
ARC
  5
71
  8
FAB_4$CUT_ALL
 10
590.7936342024633
 20
-1651.552092395548
 30
0.0
 40
25.80088178873834
 50
301.5462683430343
 51
114.3101717063898
  0
LINE
  5
72
  8
FAB_4$CUT_ALL
 10
604.2923183623149
 20
-1673.540066995975
 30
0.0
 11
604.2923183623151
 21
-1678.539982518498
 31
0.0
  0
LINE
  5
73
  8
FAB_4$CUT_ALL
 10
604.2923183623151
 20
-1678.539982518498
 30
0.0
 11
604.2952332504842
 21
-1678.710688069427
 31
0.0
  0
LINE
  5
74
  8
FAB_4$CUT_ALL
 10
604.2952332504842
 20
-1678.710688069427
 30
0.0
 11
604.3039745163625
 21
-1678.881194585321
 31
0.0
  0
LINE
  5
75
  8
FAB_4$CUT_ALL
 10
604.3039745163625
 20
-1678.881194585321
 30
0.0
 11
604.3185319680247
 21
-1679.051303263208
 31
0.0
  0
LINE
  5
76
  8
FAB_4$CUT_ALL
 10
604.3185319680247
 20
-1679.051303263208
 30
0.0
 11
604.3388886321336
 21
-1679.220815763979
 31
0.0
  0
LINE
  5
77
  8
FAB_4$CUT_ALL
 10
604.3388886321336
 20
-1679.220815763979
 30
0.0
 11
604.3650207737292
 21
-1679.389534443641
 31
0.0
  0
LINE
  5
78
  8
FAB_4$CUT_ALL
 10
604.3650207737292
 20
-1679.389534443641
 30
0.0
 11
604.3968979239036
 21
-1679.557262583761
 31
0.0
  0
LINE
  5
79
  8
FAB_4$CUT_ALL
 10
604.3968979239036
 20
-1679.557262583761
 30
0.0
 11
604.4344829153256
 21
-1679.72380462083
 31
0.0
  0
LINE
  5
7A
  8
FAB_4$CUT_ALL
 10
604.4344829153256
 20
-1679.72380462083
 30
0.0
 11
604.4777319255762
 21
-1679.888966374282
 31
0.0
  0
LINE
  5
7B
  8
FAB_4$CUT_ALL
 10
604.4777319255762
 20
-1679.888966374282
 30
0.0
 11
604.5265945282445
 21
-1680.052555272903
 31
0.0
  0
LINE
  5
7C
  8
FAB_4$CUT_ALL
 10
604.5265945282445
 20
-1680.052555272903
 30
0.0
 11
604.5810137517212
 21
-1680.214380579353
 31
0.0
  0
LINE
  5
7D
  8
FAB_4$CUT_ALL
 10
604.5810137517212
 20
-1680.214380579353
 30
0.0
 11
604.6409261456263
 21
-1680.374253612563
 31
0.0
  0
LINE
  5
7E
  8
FAB_4$CUT_ALL
 10
604.6409261456263
 20
-1680.374253612563
 30
0.0
 11
604.706261854788
 21
-1680.531987967728
 31
0.0
  0
LINE
  5
7F
  8
FAB_4$CUT_ALL
 10
604.706261854788
 20
-1680.531987967728
 30
0.0
 11
604.7769447006928
 21
-1680.687399733648
 31
0.0
  0
LINE
  5
80
  8
FAB_4$CUT_ALL
 10
604.7769447006928
 20
-1680.687399733648
 30
0.0
 11
604.8528922703035
 21
-1680.840307707153
 31
0.0
  0
LINE
  5
81
  8
FAB_4$CUT_ALL
 10
604.8528922703035
 20
-1680.840307707153
 30
0.0
 11
604.9340160121515
 21
-1680.990533604387
 31
0.0
  0
LINE
  5
82
  8
FAB_4$CUT_ALL
 10
604.9340160121515
 20
-1680.990533604387
 30
0.0
 11
605.0202213395829
 21
-1681.137902268674
 31
0.0
  0
LINE
  5
83
  8
FAB_4$CUT_ALL
 10
605.0202213395829
 20
-1681.137902268674
 30
0.0
 11
605.111407741042
 21
-1681.282241874744
 31
0.0
  0
LINE
  5
84
  8
FAB_4$CUT_ALL
 10
605.111407741042
 20
-1681.282241874744
 30
0.0
 11
605.2074688972631
 21
-1681.423384129071
 31
0.0
  0
LINE
  5
85
  8
FAB_4$CUT_ALL
 10
605.2074688972631
 20
-1681.423384129071
 30
0.0
 11
605.3082928052356
 21
-1681.561164466102
 31
0.0
  0
LINE
  5
86
  8
FAB_4$CUT_ALL
 10
605.3082928052356
 20
-1681.561164466102
 30
0.0
 11
605.4137619087932
 21
-1681.695422240127
 31
0.0
  0
LINE
  5
87
  8
FAB_4$CUT_ALL
 10
605.4137619087932
 20
-1681.695422240127
 30
0.0
 11
605.5237532356786
 21
-1681.826000912587
 31
0.0
  0
LINE
  5
88
  8
FAB_4$CUT_ALL
 10
605.5237532356786
 20
-1681.826000912587
 30
0.0
 11
605.638138540925
 21
-1681.95274823459
 31
0.0
  0
LINE
  5
89
  8
FAB_4$CUT_ALL
 10
605.638138540925
 20
-1681.95274823459
 30
0.0
 11
605.7567844563825
 21
-1682.07551642443
 31
0.0
  0
LINE
  5
8A
  8
FAB_4$CUT_ALL
 10
605.7567844563825
 20
-1682.07551642443
 30
0.0
 11
605.8795526462219
 21
-1682.194162339887
 31
0.0
  0
LINE
  5
8B
  8
FAB_4$CUT_ALL
 10
605.8795526462219
 20
-1682.194162339887
 30
0.0
 11
606.0062999682254
 21
-1682.308547645134
 31
0.0
  0
LINE
  5
8C
  8
FAB_4$CUT_ALL
 10
606.0062999682254
 20
-1682.308547645134
 30
0.0
 11
606.1368786406852
 21
-1682.418538972019
 31
0.0
  0
LINE
  5
8D
  8
FAB_4$CUT_ALL
 10
606.1368786406852
 20
-1682.418538972019
 30
0.0
 11
606.2711364147098
 21
-1682.524008075576
 31
0.0
  0
LINE
  5
8E
  8
FAB_4$CUT_ALL
 10
606.2711364147098
 20
-1682.524008075576
 30
0.0
 11
606.408916751741
 21
-1682.624831983549
 31
0.0
  0
LINE
  5
8F
  8
FAB_4$CUT_ALL
 10
606.408916751741
 20
-1682.624831983549
 30
0.0
 11
606.5500590060685
 21
-1682.72089313977
 31
0.0
  0
LINE
  5
90
  8
FAB_4$CUT_ALL
 10
606.5500590060685
 20
-1682.72089313977
 30
0.0
 11
606.6943986121381
 21
-1682.812079541229
 31
0.0
  0
LINE
  5
91
  8
FAB_4$CUT_ALL
 10
606.6943986121381
 20
-1682.812079541229
 30
0.0
 11
606.8417672764253
 21
-1682.898284868661
 31
0.0
  0
LINE
  5
92
  8
FAB_4$CUT_ALL
 10
606.8417672764253
 20
-1682.898284868661
 30
0.0
 11
606.9919931736595
 21
-1682.979408610508
 31
0.0
  0
LINE
  5
93
  8
FAB_4$CUT_ALL
 10
606.9919931736595
 20
-1682.979408610508
 30
0.0
 11
607.1449011471645
 21
-1683.055356180119
 31
0.0
  0
LINE
  5
94
  8
FAB_4$CUT_ALL
 10
607.1449011471645
 20
-1683.055356180119
 30
0.0
 11
607.3003129130839
 21
-1683.126039026024
 31
0.0
  0
LINE
  5
95
  8
FAB_4$CUT_ALL
 10
607.3003129130839
 20
-1683.126039026024
 30
0.0
 11
607.45804726825
 21
-1683.191374735186
 31
0.0
  0
LINE
  5
96
  8
FAB_4$CUT_ALL
 10
607.45804726825
 20
-1683.191374735186
 30
0.0
 11
607.61792030146
 21
-1683.251287129091
 31
0.0
  0
LINE
  5
97
  8
FAB_4$CUT_ALL
 10
607.61792030146
 20
-1683.251287129091
 30
0.0
 11
607.7797456079097
 21
-1683.305706352568
 31
0.0
  0
LINE
  5
98
  8
FAB_4$CUT_ALL
 10
607.7797456079097
 20
-1683.305706352568
 30
0.0
 11
607.9433345065297
 21
-1683.354568955236
 31
0.0
  0
LINE
  5
99
  8
FAB_4$CUT_ALL
 10
607.9433345065297
 20
-1683.354568955236
 30
0.0
 11
608.1084962599828
 21
-1683.397817965486
 31
0.0
  0
LINE
  5
9A
  8
FAB_4$CUT_ALL
 10
608.1084962599828
 20
-1683.397817965486
 30
0.0
 11
608.2750382970515
 21
-1683.435402956908
 31
0.0
  0
LINE
  5
9B
  8
FAB_4$CUT_ALL
 10
608.2750382970515
 20
-1683.435402956908
 30
0.0
 11
608.442766437172
 21
-1683.467280107083
 31
0.0
  0
LINE
  5
9C
  8
FAB_4$CUT_ALL
 10
608.442766437172
 20
-1683.467280107083
 30
0.0
 11
608.6114851168338
 21
-1683.493412248678
 31
0.0
  0
LINE
  5
9D
  8
FAB_4$CUT_ALL
 10
608.6114851168338
 20
-1683.493412248678
 30
0.0
 11
608.7809976176046
 21
-1683.513768912787
 31
0.0
  0
LINE
  5
9E
  8
FAB_4$CUT_ALL
 10
608.7809976176046
 20
-1683.513768912787
 30
0.0
 11
608.9511062954916
 21
-1683.528326364449
 31
0.0
  0
LINE
  5
9F
  8
FAB_4$CUT_ALL
 10
608.9511062954916
 20
-1683.528326364449
 30
0.0
 11
609.1216128113853
 21
-1683.537067630328
 31
0.0
  0
LINE
  5
A0
  8
FAB_4$CUT_ALL
 10
609.1216128113853
 20
-1683.537067630328
 30
0.0
 11
609.2923183623149
 21
-1683.539982518497
 31
0.0
  0
LINE
  5
A1
  8
FAB_4$CUT_ALL
 10
609.2923183623149
 20
-1683.539982518496
 30
0.0
 11
629.2923183623151
 21
-1683.539982518496
 31
0.0
  0
LINE
  5
A2
  8
FAB_4$CUT_ALL
 10
629.2923183623151
 20
-1683.539982518496
 30
0.0
 11
649.2923183623151
 21
-1683.539982518496
 31
0.0
  0
LINE
  5
A3
  8
FAB_4$CUT_ALL
 10
649.2923183623151
 20
-1683.539982518496
 30
0.0
 11
649.463023913245
 21
-1683.537067630327
 31
0.0
  0
LINE
  5
A4
  8
FAB_4$CUT_ALL
 10
649.463023913245
 20
-1683.537067630327
 30
0.0
 11
649.6335304291388
 21
-1683.528326364449
 31
0.0
  0
LINE
  5
A5
  8
FAB_4$CUT_ALL
 10
649.6335304291388
 20
-1683.528326364449
 30
0.0
 11
649.8036391070252
 21
-1683.513768912787
 31
0.0
  0
LINE
  5
A6
  8
FAB_4$CUT_ALL
 10
649.8036391070252
 20
-1683.513768912787
 30
0.0
 11
649.9731516077965
 21
-1683.493412248678
 31
0.0
  0
LINE
  5
A7
  8
FAB_4$CUT_ALL
 10
649.9731516077965
 20
-1683.493412248678
 30
0.0
 11
650.1418702874582
 21
-1683.467280107082
 31
0.0
  0
LINE
  5
A8
  8
FAB_4$CUT_ALL
 10
650.1418702874582
 20
-1683.467280107082
 30
0.0
 11
650.3095984275783
 21
-1683.435402956908
 31
0.0
  0
LINE
  5
A9
  8
FAB_4$CUT_ALL
 10
650.3095984275783
 20
-1683.435402956908
 30
0.0
 11
650.4761404646475
 21
-1683.397817965486
 31
0.0
  0
LINE
  5
AA
  8
FAB_4$CUT_ALL
 10
650.4761404646475
 20
-1683.397817965486
 30
0.0
 11
650.6413022181006
 21
-1683.354568955235
 31
0.0
  0
LINE
  5
AB
  8
FAB_4$CUT_ALL
 10
650.6413022181006
 20
-1683.354568955235
 30
0.0
 11
650.8048911167205
 21
-1683.305706352567
 31
0.0
  0
LINE
  5
AC
  8
FAB_4$CUT_ALL
 10
650.8048911167205
 20
-1683.305706352567
 30
0.0
 11
650.9667164231702
 21
-1683.251287129091
 31
0.0
  0
LINE
  5
AD
  8
FAB_4$CUT_ALL
 10
650.9667164231702
 20
-1683.251287129091
 30
0.0
 11
651.1265894563805
 21
-1683.191374735185
 31
0.0
  0
LINE
  5
AE
  8
FAB_4$CUT_ALL
 10
651.1265894563805
 20
-1683.191374735185
 30
0.0
 11
651.2843238115463
 21
-1683.126039026024
 31
0.0
  0
LINE
  5
AF
  8
FAB_4$CUT_ALL
 10
651.2843238115463
 20
-1683.126039026024
 30
0.0
 11
651.4397355774656
 21
-1683.055356180119
 31
0.0
  0
LINE
  5
B0
  8
FAB_4$CUT_ALL
 10
651.4397355774656
 20
-1683.055356180119
 30
0.0
 11
651.592643550971
 21
-1682.979408610508
 31
0.0
  0
LINE
  5
B1
  8
FAB_4$CUT_ALL
 10
651.592643550971
 20
-1682.979408610508
 30
0.0
 11
651.7428694482056
 21
-1682.89828486866
 31
0.0
  0
LINE
  5
B2
  8
FAB_4$CUT_ALL
 10
651.7428694482056
 20
-1682.89828486866
 30
0.0
 11
651.8902381124924
 21
-1682.812079541229
 31
0.0
  0
LINE
  5
B3
  8
FAB_4$CUT_ALL
 10
651.8902381124924
 20
-1682.812079541229
 30
0.0
 11
652.034577718562
 21
-1682.72089313977
 31
0.0
  0
LINE
  5
B4
  8
FAB_4$CUT_ALL
 10
652.034577718562
 20
-1682.72089313977
 30
0.0
 11
652.1757199728895
 21
-1682.624831983549
 31
0.0
  0
LINE
  5
B5
  8
FAB_4$CUT_ALL
 10
652.1757199728895
 20
-1682.624831983549
 30
0.0
 11
652.3135003099206
 21
-1682.524008075576
 31
0.0
  0
LINE
  5
B6
  8
FAB_4$CUT_ALL
 10
652.3135003099206
 20
-1682.524008075576
 30
0.0
 11
652.4477580839456
 21
-1682.418538972018
 31
0.0
  0
LINE
  5
B7
  8
FAB_4$CUT_ALL
 10
652.4477580839456
 20
-1682.418538972018
 30
0.0
 11
652.5783367564053
 21
-1682.308547645133
 31
0.0
  0
LINE
  5
B8
  8
FAB_4$CUT_ALL
 10
652.5783367564053
 20
-1682.308547645133
 30
0.0
 11
652.7050840784085
 21
-1682.194162339887
 31
0.0
  0
LINE
  5
B9
  8
FAB_4$CUT_ALL
 10
652.7050840784085
 20
-1682.194162339887
 30
0.0
 11
652.8278522682481
 21
-1682.075516424429
 31
0.0
  0
LINE
  5
BA
  8
FAB_4$CUT_ALL
 10
652.8278522682481
 20
-1682.075516424429
 30
0.0
 11
652.946498183706
 21
-1681.952748234589
 31
0.0
  0
LINE
  5
BB
  8
FAB_4$CUT_ALL
 10
652.946498183706
 20
-1681.952748234589
 30
0.0
 11
653.060883488952
 21
-1681.826000912586
 31
0.0
  0
LINE
  5
BC
  8
FAB_4$CUT_ALL
 10
653.060883488952
 20
-1681.826000912586
 30
0.0
 11
653.1708748158374
 21
-1681.695422240127
 31
0.0
  0
LINE
  5
BD
  8
FAB_4$CUT_ALL
 10
653.1708748158374
 20
-1681.695422240127
 30
0.0
 11
653.2763439193949
 21
-1681.561164466102
 31
0.0
  0
LINE
  5
BE
  8
FAB_4$CUT_ALL
 10
653.2763439193949
 20
-1681.561164466102
 30
0.0
 11
653.3771678273674
 21
-1681.423384129071
 31
0.0
  0
LINE
  5
BF
  8
FAB_4$CUT_ALL
 10
653.3771678273674
 20
-1681.423384129071
 30
0.0
 11
653.4732289835888
 21
-1681.282241874743
 31
0.0
  0
LINE
  5
C0
  8
FAB_4$CUT_ALL
 10
653.4732289835888
 20
-1681.282241874743
 30
0.0
 11
653.5644153850477
 21
-1681.137902268673
 31
0.0
  0
LINE
  5
C1
  8
FAB_4$CUT_ALL
 10
653.5644153850477
 20
-1681.137902268673
 30
0.0
 11
653.6506207124789
 21
-1680.990533604386
 31
0.0
  0
LINE
  5
C2
  8
FAB_4$CUT_ALL
 10
653.6506207124789
 20
-1680.990533604386
 30
0.0
 11
653.7317444543271
 21
-1680.840307707152
 31
0.0
  0
LINE
  5
C3
  8
FAB_4$CUT_ALL
 10
653.7317444543271
 20
-1680.840307707152
 30
0.0
 11
653.8076920239379
 21
-1680.687399733646
 31
0.0
  0
LINE
  5
C4
  8
FAB_4$CUT_ALL
 10
653.8076920239379
 20
-1680.687399733646
 30
0.0
 11
653.8783748698426
 21
-1680.531987967727
 31
0.0
  0
LINE
  5
C5
  8
FAB_4$CUT_ALL
 10
653.8783748698426
 20
-1680.531987967727
 30
0.0
 11
653.9437105790043
 21
-1680.374253612561
 31
0.0
  0
LINE
  5
C6
  8
FAB_4$CUT_ALL
 10
653.9437105790043
 20
-1680.374253612561
 30
0.0
 11
654.0036229729094
 21
-1680.214380579351
 31
0.0
  0
LINE
  5
C7
  8
FAB_4$CUT_ALL
 10
654.0036229729094
 20
-1680.214380579351
 30
0.0
 11
654.0580421963859
 21
-1680.052555272901
 31
0.0
  0
LINE
  5
C8
  8
FAB_4$CUT_ALL
 10
654.0580421963859
 20
-1680.052555272901
 30
0.0
 11
654.1069047990541
 21
-1679.888966374281
 31
0.0
  0
LINE
  5
C9
  8
FAB_4$CUT_ALL
 10
654.1069047990541
 20
-1679.888966374281
 30
0.0
 11
654.1501538093048
 21
-1679.723804620828
 31
0.0
  0
LINE
  5
CA
  8
FAB_4$CUT_ALL
 10
654.1501538093048
 20
-1679.723804620828
 30
0.0
 11
654.1877388007268
 21
-1679.557262583759
 31
0.0
  0
LINE
  5
CB
  8
FAB_4$CUT_ALL
 10
654.1877388007268
 20
-1679.557262583759
 30
0.0
 11
654.2196159509011
 21
-1679.389534443639
 31
0.0
  0
LINE
  5
CC
  8
FAB_4$CUT_ALL
 10
654.2196159509011
 20
-1679.389534443639
 30
0.0
 11
654.2457480924968
 21
-1679.220815763977
 31
0.0
  0
LINE
  5
CD
  8
FAB_4$CUT_ALL
 10
654.2457480924968
 20
-1679.220815763977
 30
0.0
 11
654.2661047566056
 21
-1679.051303263206
 31
0.0
  0
LINE
  5
CE
  8
FAB_4$CUT_ALL
 10
654.2661047566056
 20
-1679.051303263206
 30
0.0
 11
654.2806622082678
 21
-1678.881194585319
 31
0.0
  0
LINE
  5
CF
  8
FAB_4$CUT_ALL
 10
654.2806622082678
 20
-1678.881194585319
 30
0.0
 11
654.2894034741458
 21
-1678.710688069426
 31
0.0
  0
LINE
  5
D0
  8
FAB_4$CUT_ALL
 10
654.2894034741458
 20
-1678.710688069426
 30
0.0
 11
654.292318362315
 21
-1678.539982518496
 31
0.0
  0
LINE
  5
D1
  8
FAB_4$CUT_ALL
 10
654.292318362315
 20
-1678.539982518496
 30
0.0
 11
654.2923183623151
 21
-1673.540066995975
 31
0.0
  0
LINE
  5
D2
  8
FAB_4$CUT_ALL
 10
654.2923183623151
 20
-1673.540066995975
 30
0.0
 11
730.7664252832991
 21
-1673.540066995975
 31
0.0
  0
LINE
  5
D3
  8
FAB_4$CUT_ALL
 10
730.7664252832991
 20
-1673.540066995975
 30
0.0
 11
730.7664252832991
 21
-1678.539982518496
 31
0.0
  0
LINE
  5
D4
  8
FAB_4$CUT_ALL
 10
730.7664252832991
 20
-1678.539982518496
 30
0.0
 11
730.7693401714682
 21
-1678.710688069425
 31
0.0
  0
LINE
  5
D5
  8
FAB_4$CUT_ALL
 10
730.7693401714682
 20
-1678.710688069425
 30
0.0
 11
730.7780814373464
 21
-1678.88119458532
 31
0.0
  0
LINE
  5
D6
  8
FAB_4$CUT_ALL
 10
730.7780814373464
 20
-1678.88119458532
 30
0.0
 11
730.7926388890087
 21
-1679.051303263206
 31
0.0
  0
LINE
  5
D7
  8
FAB_4$CUT_ALL
 10
730.7926388890087
 20
-1679.051303263206
 30
0.0
 11
730.8129955531175
 21
-1679.220815763977
 31
0.0
  0
LINE
  5
D8
  8
FAB_4$CUT_ALL
 10
730.8129955531175
 20
-1679.220815763977
 30
0.0
 11
730.839127694713
 21
-1679.389534443639
 31
0.0
  0
LINE
  5
D9
  8
FAB_4$CUT_ALL
 10
730.839127694713
 20
-1679.389534443639
 30
0.0
 11
730.8710048448875
 21
-1679.557262583759
 31
0.0
  0
LINE
  5
DA
  8
FAB_4$CUT_ALL
 10
730.8710048448875
 20
-1679.557262583759
 30
0.0
 11
730.9085898363094
 21
-1679.723804620829
 31
0.0
  0
LINE
  5
DB
  8
FAB_4$CUT_ALL
 10
730.9085898363094
 20
-1679.723804620829
 30
0.0
 11
730.95183884656
 21
-1679.888966374281
 31
0.0
  0
LINE
  5
DC
  8
FAB_4$CUT_ALL
 10
730.95183884656
 20
-1679.888966374281
 30
0.0
 11
731.0007014492284
 21
-1680.052555272902
 31
0.0
  0
LINE
  5
DD
  8
FAB_4$CUT_ALL
 10
731.0007014492284
 20
-1680.052555272902
 30
0.0
 11
731.055120672705
 21
-1680.214380579351
 31
0.0
  0
LINE
  5
DE
  8
FAB_4$CUT_ALL
 10
731.055120672705
 20
-1680.214380579351
 30
0.0
 11
731.1150330666101
 21
-1680.374253612562
 31
0.0
  0
LINE
  5
DF
  8
FAB_4$CUT_ALL
 10
731.1150330666101
 20
-1680.374253612562
 30
0.0
 11
731.1803687757716
 21
-1680.531987967727
 31
0.0
  0
LINE
  5
E0
  8
FAB_4$CUT_ALL
 10
731.1803687757716
 20
-1680.531987967727
 30
0.0
 11
731.2510516216763
 21
-1680.687399733646
 31
0.0
  0
LINE
  5
E1
  8
FAB_4$CUT_ALL
 10
731.2510516216763
 20
-1680.687399733646
 30
0.0
 11
731.3269991912871
 21
-1680.840307707152
 31
0.0
  0
LINE
  5
E2
  8
FAB_4$CUT_ALL
 10
731.3269991912871
 20
-1680.840307707152
 30
0.0
 11
731.4081229331352
 21
-1680.990533604386
 31
0.0
  0
LINE
  5
E3
  8
FAB_4$CUT_ALL
 10
731.4081229331352
 20
-1680.990533604386
 30
0.0
 11
731.4943282605668
 21
-1681.137902268674
 31
0.0
  0
LINE
  5
E4
  8
FAB_4$CUT_ALL
 10
731.4943282605668
 20
-1681.137902268674
 30
0.0
 11
731.5855146620255
 21
-1681.282241874743
 31
0.0
  0
LINE
  5
E5
  8
FAB_4$CUT_ALL
 10
731.5855146620255
 20
-1681.282241874743
 30
0.0
 11
731.681575818247
 21
-1681.423384129071
 31
0.0
  0
LINE
  5
E6
  8
FAB_4$CUT_ALL
 10
731.681575818247
 20
-1681.423384129071
 30
0.0
 11
731.7823997262194
 21
-1681.561164466101
 31
0.0
  0
LINE
  5
E7
  8
FAB_4$CUT_ALL
 10
731.7823997262194
 20
-1681.561164466101
 30
0.0
 11
731.887868829777
 21
-1681.695422240126
 31
0.0
  0
LINE
  5
E8
  8
FAB_4$CUT_ALL
 10
731.887868829777
 20
-1681.695422240126
 30
0.0
 11
731.9978601566623
 21
-1681.826000912586
 31
0.0
  0
LINE
  5
E9
  8
FAB_4$CUT_ALL
 10
731.9978601566623
 20
-1681.826000912586
 30
0.0
 11
732.1122454619086
 21
-1681.95274823459
 31
0.0
  0
LINE
  5
EA
  8
FAB_4$CUT_ALL
 10
732.1122454619086
 20
-1681.95274823459
 30
0.0
 11
732.2308913773664
 21
-1682.075516424429
 31
0.0
  0
LINE
  5
EB
  8
FAB_4$CUT_ALL
 10
732.2308913773664
 20
-1682.075516424429
 30
0.0
 11
732.3536595672057
 21
-1682.194162339887
 31
0.0
  0
LINE
  5
EC
  8
FAB_4$CUT_ALL
 10
732.3536595672057
 20
-1682.194162339887
 30
0.0
 11
732.4804068892091
 21
-1682.308547645133
 31
0.0
  0
LINE
  5
ED
  8
FAB_4$CUT_ALL
 10
732.4804068892091
 20
-1682.308547645133
 30
0.0
 11
732.6109855616688
 21
-1682.418538972018
 31
0.0
  0
LINE
  5
EE
  8
FAB_4$CUT_ALL
 10
732.6109855616688
 20
-1682.418538972018
 30
0.0
 11
732.7452433356938
 21
-1682.524008075576
 31
0.0
  0
LINE
  5
EF
  8
FAB_4$CUT_ALL
 10
732.7452433356938
 20
-1682.524008075576
 30
0.0
 11
732.8830236727247
 21
-1682.624831983548
 31
0.0
  0
LINE
  5
F0
  8
FAB_4$CUT_ALL
 10
732.8830236727247
 20
-1682.624831983548
 30
0.0
 11
733.0241659270525
 21
-1682.72089313977
 31
0.0
  0
LINE
  5
F1
  8
FAB_4$CUT_ALL
 10
733.0241659270525
 20
-1682.72089313977
 30
0.0
 11
733.1685055331217
 21
-1682.812079541228
 31
0.0
  0
LINE
  5
F2
  8
FAB_4$CUT_ALL
 10
733.1685055331217
 20
-1682.812079541228
 30
0.0
 11
733.3158741974089
 21
-1682.89828486866
 31
0.0
  0
LINE
  5
F3
  8
FAB_4$CUT_ALL
 10
733.3158741974089
 20
-1682.89828486866
 30
0.0
 11
733.4661000946434
 21
-1682.979408610508
 31
0.0
  0
LINE
  5
F4
  8
FAB_4$CUT_ALL
 10
733.4661000946434
 20
-1682.979408610508
 30
0.0
 11
733.619008068149
 21
-1683.055356180119
 31
0.0
  0
LINE
  5
F5
  8
FAB_4$CUT_ALL
 10
733.619008068149
 20
-1683.055356180119
 30
0.0
 11
733.7744198340679
 21
-1683.126039026023
 31
0.0
  0
LINE
  5
F6
  8
FAB_4$CUT_ALL
 10
733.7744198340679
 20
-1683.126039026023
 30
0.0
 11
733.932154189234
 21
-1683.191374735185
 31
0.0
  0
LINE
  5
F7
  8
FAB_4$CUT_ALL
 10
733.932154189234
 20
-1683.191374735185
 30
0.0
 11
734.092027222444
 21
-1683.25128712909
 31
0.0
  0
LINE
  5
F8
  8
FAB_4$CUT_ALL
 10
734.092027222444
 20
-1683.25128712909
 30
0.0
 11
734.2538525288937
 21
-1683.305706352567
 31
0.0
  0
LINE
  5
F9
  8
FAB_4$CUT_ALL
 10
734.2538525288937
 20
-1683.305706352567
 30
0.0
 11
734.4174414275142
 21
-1683.354568955235
 31
0.0
  0
LINE
  5
FA
  8
FAB_4$CUT_ALL
 10
734.4174414275142
 20
-1683.354568955235
 30
0.0
 11
734.5826031809672
 21
-1683.397817965486
 31
0.0
  0
LINE
  5
FB
  8
FAB_4$CUT_ALL
 10
734.5826031809672
 20
-1683.397817965486
 30
0.0
 11
734.749145218036
 21
-1683.435402956908
 31
0.0
  0
LINE
  5
FC
  8
FAB_4$CUT_ALL
 10
734.749145218036
 20
-1683.435402956908
 30
0.0
 11
734.9168733581555
 21
-1683.467280107082
 31
0.0
  0
LINE
  5
FD
  8
FAB_4$CUT_ALL
 10
734.9168733581555
 20
-1683.467280107082
 30
0.0
 11
735.0855920378183
 21
-1683.493412248677
 31
0.0
  0
LINE
  5
FE
  8
FAB_4$CUT_ALL
 10
735.0855920378183
 20
-1683.493412248677
 30
0.0
 11
735.255104538589
 21
-1683.513768912786
 31
0.0
  0
LINE
  5
FF
  8
FAB_4$CUT_ALL
 10
735.255104538589
 20
-1683.513768912786
 30
0.0
 11
735.425213216476
 21
-1683.528326364449
 31
0.0
  0
LINE
  5
100
  8
FAB_4$CUT_ALL
 10
735.425213216476
 20
-1683.528326364449
 30
0.0
 11
735.5957197323696
 21
-1683.537067630327
 31
0.0
  0
LINE
  5
101
  8
FAB_4$CUT_ALL
 10
735.5957197323696
 20
-1683.537067630327
 30
0.0
 11
735.7664252832992
 21
-1683.539982518496
 31
0.0
  0
LINE
  5
102
  8
FAB_4$CUT_ALL
 10
735.7664252832992
 20
-1683.539982518496
 30
0.0
 11
755.7664252832991
 21
-1683.539982518496
 31
0.0
  0
LINE
  5
103
  8
FAB_4$CUT_ALL
 10
755.7664252832991
 20
-1683.539982518496
 30
0.0
 11
775.766425283299
 21
-1683.539982518496
 31
0.0
  0
LINE
  5
104
  8
FAB_4$CUT_ALL
 10
775.766425283299
 20
-1683.539982518496
 30
0.0
 11
775.937130834229
 21
-1683.537067630327
 31
0.0
  0
LINE
  5
105
  8
FAB_4$CUT_ALL
 10
775.937130834229
 20
-1683.537067630327
 30
0.0
 11
776.1076373501227
 21
-1683.528326364449
 31
0.0
  0
LINE
  5
106
  8
FAB_4$CUT_ALL
 10
776.1076373501227
 20
-1683.528326364449
 30
0.0
 11
776.2777460280092
 21
-1683.513768912787
 31
0.0
  0
LINE
  5
107
  8
FAB_4$CUT_ALL
 10
776.2777460280092
 20
-1683.513768912787
 30
0.0
 11
776.4472585287805
 21
-1683.493412248678
 31
0.0
  0
LINE
  5
108
  8
FAB_4$CUT_ALL
 10
776.4472585287805
 20
-1683.493412248678
 30
0.0
 11
776.6159772084424
 21
-1683.467280107083
 31
0.0
  0
LINE
  5
109
  8
FAB_4$CUT_ALL
 10
776.6159772084424
 20
-1683.467280107083
 30
0.0
 11
776.7837053485623
 21
-1683.435402956908
 31
0.0
  0
LINE
  5
10A
  8
FAB_4$CUT_ALL
 10
776.7837053485623
 20
-1683.435402956908
 30
0.0
 11
776.9502473856315
 21
-1683.397817965486
 31
0.0
  0
LINE
  5
10B
  8
FAB_4$CUT_ALL
 10
776.9502473856315
 20
-1683.397817965486
 30
0.0
 11
777.1154091390847
 21
-1683.354568955235
 31
0.0
  0
LINE
  5
10C
  8
FAB_4$CUT_ALL
 10
777.1154091390847
 20
-1683.354568955235
 30
0.0
 11
777.2789980377046
 21
-1683.305706352567
 31
0.0
  0
LINE
  5
10D
  8
FAB_4$CUT_ALL
 10
777.2789980377046
 20
-1683.305706352567
 30
0.0
 11
777.4408233441543
 21
-1683.251287129091
 31
0.0
  0
LINE
  5
10E
  8
FAB_4$CUT_ALL
 10
777.4408233441543
 20
-1683.251287129091
 30
0.0
 11
777.6006963773648
 21
-1683.191374735185
 31
0.0
  0
LINE
  5
10F
  8
FAB_4$CUT_ALL
 10
777.6006963773648
 20
-1683.191374735185
 30
0.0
 11
777.7584307325305
 21
-1683.126039026024
 31
0.0
  0
LINE
  5
110
  8
FAB_4$CUT_ALL
 10
777.7584307325305
 20
-1683.126039026024
 30
0.0
 11
777.9138424984499
 21
-1683.055356180119
 31
0.0
  0
LINE
  5
111
  8
FAB_4$CUT_ALL
 10
777.9138424984499
 20
-1683.055356180119
 30
0.0
 11
778.0667504719554
 21
-1682.979408610508
 31
0.0
  0
LINE
  5
112
  8
FAB_4$CUT_ALL
 10
778.0667504719554
 20
-1682.979408610508
 30
0.0
 11
778.2169763691894
 21
-1682.89828486866
 31
0.0
  0
LINE
  5
113
  8
FAB_4$CUT_ALL
 10
778.2169763691894
 20
-1682.89828486866
 30
0.0
 11
778.3643450334766
 21
-1682.812079541229
 31
0.0
  0
LINE
  5
114
  8
FAB_4$CUT_ALL
 10
778.3643450334766
 20
-1682.812079541229
 30
0.0
 11
778.5086846395462
 21
-1682.72089313977
 31
0.0
  0
LINE
  5
115
  8
FAB_4$CUT_ALL
 10
778.5086846395462
 20
-1682.72089313977
 30
0.0
 11
778.6498268938738
 21
-1682.624831983549
 31
0.0
  0
LINE
  5
116
  8
FAB_4$CUT_ALL
 10
778.6498268938738
 20
-1682.624831983549
 30
0.0
 11
778.7876072309047
 21
-1682.524008075576
 31
0.0
  0
LINE
  5
117
  8
FAB_4$CUT_ALL
 10
778.7876072309047
 20
-1682.524008075576
 30
0.0
 11
778.9218650049299
 21
-1682.418538972018
 31
0.0
  0
LINE
  5
118
  8
FAB_4$CUT_ALL
 10
778.9218650049299
 20
-1682.418538972018
 30
0.0
 11
779.0524436773893
 21
-1682.308547645133
 31
0.0
  0
LINE
  5
119
  8
FAB_4$CUT_ALL
 10
779.0524436773893
 20
-1682.308547645133
 30
0.0
 11
779.1791909993929
 21
-1682.194162339887
 31
0.0
  0
LINE
  5
11A
  8
FAB_4$CUT_ALL
 10
779.1791909993929
 20
-1682.194162339887
 30
0.0
 11
779.3019591892323
 21
-1682.075516424429
 31
0.0
  0
LINE
  5
11B
  8
FAB_4$CUT_ALL
 10
779.3019591892323
 20
-1682.075516424429
 30
0.0
 11
779.42060510469
 21
-1681.95274823459
 31
0.0
  0
LINE
  5
11C
  8
FAB_4$CUT_ALL
 10
779.42060510469
 20
-1681.95274823459
 30
0.0
 11
779.5349904099364
 21
-1681.826000912586
 31
0.0
  0
LINE
  5
11D
  8
FAB_4$CUT_ALL
 10
779.5349904099364
 20
-1681.826000912586
 30
0.0
 11
779.6449817368216
 21
-1681.695422240127
 31
0.0
  0
LINE
  5
11E
  8
FAB_4$CUT_ALL
 10
779.6449817368216
 20
-1681.695422240127
 30
0.0
 11
779.750450840379
 21
-1681.561164466102
 31
0.0
  0
LINE
  5
11F
  8
FAB_4$CUT_ALL
 10
779.750450840379
 20
-1681.561164466102
 30
0.0
 11
779.8512747483518
 21
-1681.42338412907
 31
0.0
  0
LINE
  5
120
  8
FAB_4$CUT_ALL
 10
779.8512747483518
 20
-1681.42338412907
 30
0.0
 11
779.9473359045733
 21
-1681.282241874743
 31
0.0
  0
LINE
  5
121
  8
FAB_4$CUT_ALL
 10
779.9473359045733
 20
-1681.282241874743
 30
0.0
 11
780.0385223060322
 21
-1681.137902268673
 31
0.0
  0
LINE
  5
122
  8
FAB_4$CUT_ALL
 10
780.0385223060322
 20
-1681.137902268673
 30
0.0
 11
780.1247276334633
 21
-1680.990533604386
 31
0.0
  0
LINE
  5
123
  8
FAB_4$CUT_ALL
 10
780.1247276334633
 20
-1680.990533604386
 30
0.0
 11
780.2058513753116
 21
-1680.840307707152
 31
0.0
  0
LINE
  5
124
  8
FAB_4$CUT_ALL
 10
780.2058513753116
 20
-1680.840307707152
 30
0.0
 11
780.2817989449221
 21
-1680.687399733647
 31
0.0
  0
LINE
  5
125
  8
FAB_4$CUT_ALL
 10
780.2817989449221
 20
-1680.687399733647
 30
0.0
 11
780.3524817908268
 21
-1680.531987967727
 31
0.0
  0
LINE
  5
126
  8
FAB_4$CUT_ALL
 10
780.3524817908268
 20
-1680.531987967727
 30
0.0
 11
780.4178174999887
 21
-1680.374253612561
 31
0.0
  0
LINE
  5
127
  8
FAB_4$CUT_ALL
 10
780.4178174999887
 20
-1680.374253612561
 30
0.0
 11
780.4777298938936
 21
-1680.21438057935
 31
0.0
  0
LINE
  5
128
  8
FAB_4$CUT_ALL
 10
780.4777298938936
 20
-1680.21438057935
 30
0.0
 11
780.5321491173703
 21
-1680.052555272901
 31
0.0
  0
LINE
  5
129
  8
FAB_4$CUT_ALL
 10
780.5321491173703
 20
-1680.052555272901
 30
0.0
 11
780.5810117200383
 21
-1679.888966374281
 31
0.0
  0
LINE
  5
12A
  8
FAB_4$CUT_ALL
 10
780.5810117200383
 20
-1679.888966374281
 30
0.0
 11
780.624260730289
 21
-1679.723804620828
 31
0.0
  0
LINE
  5
12B
  8
FAB_4$CUT_ALL
 10
780.624260730289
 20
-1679.723804620828
 30
0.0
 11
780.661845721711
 21
-1679.557262583759
 31
0.0
  0
LINE
  5
12C
  8
FAB_4$CUT_ALL
 10
780.661845721711
 20
-1679.557262583759
 30
0.0
 11
780.6937228718853
 21
-1679.389534443639
 31
0.0
  0
LINE
  5
12D
  8
FAB_4$CUT_ALL
 10
780.6937228718853
 20
-1679.389534443639
 30
0.0
 11
780.7198550134809
 21
-1679.220815763977
 31
0.0
  0
LINE
  5
12E
  8
FAB_4$CUT_ALL
 10
780.7198550134809
 20
-1679.220815763977
 30
0.0
 11
780.7402116775896
 21
-1679.051303263206
 31
0.0
  0
LINE
  5
12F
  8
FAB_4$CUT_ALL
 10
780.7402116775896
 20
-1679.051303263206
 30
0.0
 11
780.7547691292519
 21
-1678.881194585319
 31
0.0
  0
LINE
  5
130
  8
FAB_4$CUT_ALL
 10
780.7547691292519
 20
-1678.881194585319
 30
0.0
 11
780.76351039513
 21
-1678.710688069425
 31
0.0
  0
LINE
  5
131
  8
FAB_4$CUT_ALL
 10
780.76351039513
 20
-1678.710688069425
 30
0.0
 11
780.7664252832991
 21
-1678.539982518495
 31
0.0
  0
LINE
  5
132
  8
FAB_4$CUT_ALL
 10
780.7664252832991
 20
-1678.539982518495
 30
0.0
 11
780.7664252832991
 21
-1673.540066995975
 31
0.0
  0
ARC
  5
133
  8
FAB_4$CUT_ALL
 10
794.2651094431508
 20
-1651.552092395548
 30
0.0
 40
25.80088178873854
 50
84.39175002759842
 51
238.4537316569653
  0
ARC
  5
134
  8
FAB_4$CUT_ALL
 10
797.7637936030011
 20
-1615.922577299201
 30
0.0
 40
10.0
 50
264.3917500275991
 51
359.9999999999961
  0
LINE
  5
135
  8
FAB_4$CUT_ALL
 10
807.7637936030011
 20
-1615.922577299201
 30
0.0
 11
807.763793603001
 21
-1432.157824618385
 31
0.0
  0
ARC
  5
136
  8
FAB_4$CUT_ALL
 10
797.763793603001
 20
-1432.157824618384
 30
0.0
 40
10.0
 50
359.9999999999961
 51
95.60824997240219
  0
ARC
  5
137
  8
FAB_4$CUT_ALL
 10
794.2651094431499
 20
-1396.528309522038
 30
0.0
 40
25.80088178873799
 50
121.5462683430323
 51
275.6082499724027
  0
LINE
  5
138
  8
FAB_4$CUT_ALL
 10
780.7664252832989
 20
-1374.54033492161
 30
0.0
 11
780.7664252832989
 21
-1369.540419399089
 31
0.0
  0
LINE
  5
139
  8
FAB_4$CUT_ALL
 10
780.7664252832989
 20
-1369.540419399089
 30
0.0
 11
780.7635103951294
 21
-1369.36971384816
 31
0.0
  0
LINE
  5
13A
  8
FAB_4$CUT_ALL
 10
780.7635103951294
 20
-1369.36971384816
 30
0.0
 11
780.7547691292513
 21
-1369.199207332265
 31
0.0
  0
LINE
  5
13B
  8
FAB_4$CUT_ALL
 10
780.7547691292513
 20
-1369.199207332265
 30
0.0
 11
780.7402116775891
 21
-1369.029098654379
 31
0.0
  0
LINE
  5
13C
  8
FAB_4$CUT_ALL
 10
780.7402116775891
 20
-1369.029098654379
 30
0.0
 11
780.7198550134802
 21
-1368.859586153608
 31
0.0
  0
LINE
  5
13D
  8
FAB_4$CUT_ALL
 10
780.7198550134802
 20
-1368.859586153608
 30
0.0
 11
780.6937228718847
 21
-1368.690867473946
 31
0.0
  0
LINE
  5
13E
  8
FAB_4$CUT_ALL
 10
780.6937228718847
 20
-1368.690867473946
 30
0.0
 11
780.6618457217103
 21
-1368.523139333826
 31
0.0
  0
LINE
  5
13F
  8
FAB_4$CUT_ALL
 10
780.6618457217103
 20
-1368.523139333826
 30
0.0
 11
780.6242607302884
 21
-1368.356597296757
 31
0.0
  0
LINE
  5
140
  8
FAB_4$CUT_ALL
 10
780.6242607302884
 20
-1368.356597296757
 30
0.0
 11
780.5810117200376
 21
-1368.191435543304
 31
0.0
  0
LINE
  5
141
  8
FAB_4$CUT_ALL
 10
780.5810117200376
 20
-1368.191435543304
 30
0.0
 11
780.5321491173694
 21
-1368.027846644683
 31
0.0
  0
LINE
  5
142
  8
FAB_4$CUT_ALL
 10
780.5321491173694
 20
-1368.027846644683
 30
0.0
 11
780.4777298938928
 21
-1367.866021338234
 31
0.0
  0
LINE
  5
143
  8
FAB_4$CUT_ALL
 10
780.4777298938928
 20
-1367.866021338234
 30
0.0
 11
780.4178174999878
 21
-1367.706148305024
 31
0.0
  0
LINE
  5
144
  8
FAB_4$CUT_ALL
 10
780.4178174999878
 20
-1367.706148305024
 30
0.0
 11
780.352481790826
 21
-1367.548413949858
 31
0.0
  0
LINE
  5
145
  8
FAB_4$CUT_ALL
 10
780.352481790826
 20
-1367.548413949858
 30
0.0
 11
780.2817989449214
 21
-1367.393002183939
 31
0.0
  0
LINE
  5
146
  8
FAB_4$CUT_ALL
 10
780.2817989449214
 20
-1367.393002183939
 30
0.0
 11
780.2058513753105
 21
-1367.240094210433
 31
0.0
  0
LINE
  5
147
  8
FAB_4$CUT_ALL
 10
780.2058513753105
 20
-1367.240094210433
 30
0.0
 11
780.1247276334626
 21
-1367.089868313199
 31
0.0
  0
LINE
  5
148
  8
FAB_4$CUT_ALL
 10
780.1247276334626
 20
-1367.089868313199
 30
0.0
 11
780.0385223060313
 21
-1366.942499648912
 31
0.0
  0
LINE
  5
149
  8
FAB_4$CUT_ALL
 10
780.0385223060313
 20
-1366.942499648912
 30
0.0
 11
779.9473359045726
 21
-1366.798160042842
 31
0.0
  0
LINE
  5
14A
  8
FAB_4$CUT_ALL
 10
779.9473359045726
 20
-1366.798160042842
 30
0.0
 11
779.8512747483511
 21
-1366.657017788515
 31
0.0
  0
LINE
  5
14B
  8
FAB_4$CUT_ALL
 10
779.8512747483511
 20
-1366.657017788515
 30
0.0
 11
779.7504508403783
 21
-1366.519237451483
 31
0.0
  0
LINE
  5
14C
  8
FAB_4$CUT_ALL
 10
779.7504508403783
 20
-1366.519237451483
 30
0.0
 11
779.6449817368208
 21
-1366.384979677458
 31
0.0
  0
LINE
  5
14D
  8
FAB_4$CUT_ALL
 10
779.6449817368208
 20
-1366.384979677458
 30
0.0
 11
779.534990409936
 21
-1366.254401004999
 31
0.0
  0
LINE
  5
14E
  8
FAB_4$CUT_ALL
 10
779.534990409936
 20
-1366.254401004999
 30
0.0
 11
779.4206051046897
 21
-1366.127653682996
 31
0.0
  0
LINE
  5
14F
  8
FAB_4$CUT_ALL
 10
779.4206051046897
 20
-1366.127653682996
 30
0.0
 11
779.3019591892318
 21
-1366.004885493156
 31
0.0
  0
LINE
  5
150
  8
FAB_4$CUT_ALL
 10
779.3019591892318
 20
-1366.004885493156
 30
0.0
 11
779.1791909993922
 21
-1365.886239577698
 31
0.0
  0
LINE
  5
151
  8
FAB_4$CUT_ALL
 10
779.1791909993922
 20
-1365.886239577698
 30
0.0
 11
779.0524436773886
 21
-1365.771854272452
 31
0.0
  0
LINE
  5
152
  8
FAB_4$CUT_ALL
 10
779.0524436773886
 20
-1365.771854272452
 30
0.0
 11
778.9218650049293
 21
-1365.661862945567
 31
0.0
  0
LINE
  5
153
  8
FAB_4$CUT_ALL
 10
778.9218650049293
 20
-1365.661862945567
 30
0.0
 11
778.7876072309047
 21
-1365.55639384201
 31
0.0
  0
LINE
  5
154
  8
FAB_4$CUT_ALL
 10
778.7876072309047
 20
-1365.55639384201
 30
0.0
 11
778.6498268938734
 21
-1365.455569934037
 31
0.0
  0
LINE
  5
155
  8
FAB_4$CUT_ALL
 10
778.6498268938734
 20
-1365.455569934037
 30
0.0
 11
778.5086846395454
 21
-1365.359508777815
 31
0.0
  0
LINE
  5
156
  8
FAB_4$CUT_ALL
 10
778.5086846395454
 20
-1365.359508777815
 30
0.0
 11
778.3643450334763
 21
-1365.268322376357
 31
0.0
  0
LINE
  5
157
  8
FAB_4$CUT_ALL
 10
778.3643450334763
 20
-1365.268322376357
 30
0.0
 11
778.2169763691891
 21
-1365.182117048925
 31
0.0
  0
LINE
  5
158
  8
FAB_4$CUT_ALL
 10
778.2169763691891
 20
-1365.182117048925
 30
0.0
 11
778.066750471955
 21
-1365.100993307077
 31
0.0
  0
LINE
  5
159
  8
FAB_4$CUT_ALL
 10
778.066750471955
 20
-1365.100993307077
 30
0.0
 11
777.9138424984495
 21
-1365.025045737466
 31
0.0
  0
LINE
  5
15A
  8
FAB_4$CUT_ALL
 10
777.9138424984495
 20
-1365.025045737466
 30
0.0
 11
777.7584307325301
 21
-1364.954362891562
 31
0.0
  0
LINE
  5
15B
  8
FAB_4$CUT_ALL
 10
777.7584307325301
 20
-1364.954362891562
 30
0.0
 11
777.6006963773644
 21
-1364.8890271824
 31
0.0
  0
LINE
  5
15C
  8
FAB_4$CUT_ALL
 10
777.6006963773644
 20
-1364.8890271824
 30
0.0
 11
777.440823344154
 21
-1364.829114788495
 31
0.0
  0
LINE
  5
15D
  8
FAB_4$CUT_ALL
 10
777.440823344154
 20
-1364.829114788495
 30
0.0
 11
777.2789980377042
 21
-1364.774695565018
 31
0.0
  0
LINE
  5
15E
  8
FAB_4$CUT_ALL
 10
777.2789980377042
 20
-1364.774695565018
 30
0.0
 11
777.1154091390842
 21
-1364.72583296235
 31
0.0
  0
LINE
  5
15F
  8
FAB_4$CUT_ALL
 10
777.1154091390842
 20
-1364.72583296235
 30
0.0
 11
776.9502473856312
 21
-1364.682583952099
 31
0.0
  0
LINE
  5
160
  8
FAB_4$CUT_ALL
 10
776.9502473856312
 20
-1364.682583952099
 30
0.0
 11
776.7837053485624
 21
-1364.644998960677
 31
0.0
  0
LINE
  5
161
  8
FAB_4$CUT_ALL
 10
776.7837053485624
 20
-1364.644998960677
 30
0.0
 11
776.6159772084424
 21
-1364.613121810503
 31
0.0
  0
LINE
  5
162
  8
FAB_4$CUT_ALL
 10
776.6159772084424
 20
-1364.613121810503
 30
0.0
 11
776.4472585287801
 21
-1364.586989668907
 31
0.0
  0
LINE
  5
163
  8
FAB_4$CUT_ALL
 10
776.4472585287801
 20
-1364.586989668907
 30
0.0
 11
776.2777460280093
 21
-1364.566633004798
 31
0.0
  0
LINE
  5
164
  8
FAB_4$CUT_ALL
 10
776.2777460280093
 20
-1364.566633004798
 30
0.0
 11
776.1076373501223
 21
-1364.552075553136
 31
0.0
  0
LINE
  5
165
  8
FAB_4$CUT_ALL
 10
776.1076373501223
 20
-1364.552075553136
 30
0.0
 11
775.9371308342287
 21
-1364.543334287258
 31
0.0
  0
LINE
  5
166
  8
FAB_4$CUT_ALL
 10
775.9371308342287
 20
-1364.543334287258
 30
0.0
 11
775.7664252832991
 21
-1364.540419399089
 31
0.0
  0
LINE
  5
167
  8
FAB_4$CUT_ALL
 10
775.7664252832991
 20
-1364.540419399089
 30
0.0
 11
755.7664252832989
 21
-1364.540419399089
 31
0.0
  0
LINE
  5
168
  8
FAB_4$CUT_ALL
 10
755.7664252832989
 20
-1364.540419399089
 30
0.0
 11
735.7664252832989
 21
-1364.540419399089
 31
0.0
  0
LINE
  5
169
  8
FAB_4$CUT_ALL
 10
735.7664252832989
 20
-1364.540419399089
 30
0.0
 11
735.5957197323689
 21
-1364.543334287258
 31
0.0
  0
LINE
  5
16A
  8
FAB_4$CUT_ALL
 10
735.5957197323689
 20
-1364.543334287258
 30
0.0
 11
735.4252132164756
 21
-1364.552075553136
 31
0.0
  0
LINE
  5
16B
  8
FAB_4$CUT_ALL
 10
735.4252132164756
 20
-1364.552075553136
 30
0.0
 11
735.2551045385887
 21
-1364.566633004799
 31
0.0
  0
LINE
  5
16C
  8
FAB_4$CUT_ALL
 10
735.2551045385887
 20
-1364.566633004799
 30
0.0
 11
735.0855920378175
 21
-1364.586989668908
 31
0.0
  0
LINE
  5
16D
  8
FAB_4$CUT_ALL
 10
735.0855920378175
 20
-1364.586989668908
 30
0.0
 11
734.9168733581557
 21
-1364.613121810503
 31
0.0
  0
LINE
  5
16E
  8
FAB_4$CUT_ALL
 10
734.9168733581557
 20
-1364.613121810503
 30
0.0
 11
734.7491452180357
 21
-1364.644998960677
 31
0.0
  0
LINE
  5
16F
  8
FAB_4$CUT_ALL
 10
734.7491452180357
 20
-1364.644998960677
 30
0.0
 11
734.5826031809669
 21
-1364.682583952099
 31
0.0
  0
LINE
  5
170
  8
FAB_4$CUT_ALL
 10
734.5826031809669
 20
-1364.682583952099
 30
0.0
 11
734.4174414275134
 21
-1364.72583296235
 31
0.0
  0
LINE
  5
171
  8
FAB_4$CUT_ALL
 10
734.4174414275134
 20
-1364.72583296235
 30
0.0
 11
734.2538525288934
 21
-1364.774695565018
 31
0.0
  0
LINE
  5
172
  8
FAB_4$CUT_ALL
 10
734.2538525288934
 20
-1364.774695565018
 30
0.0
 11
734.0920272224438
 21
-1364.829114788495
 31
0.0
  0
LINE
  5
173
  8
FAB_4$CUT_ALL
 10
734.0920272224438
 20
-1364.829114788495
 30
0.0
 11
733.9321541892333
 21
-1364.8890271824
 31
0.0
  0
LINE
  5
174
  8
FAB_4$CUT_ALL
 10
733.9321541892333
 20
-1364.8890271824
 30
0.0
 11
733.7744198340681
 21
-1364.954362891561
 31
0.0
  0
LINE
  5
175
  8
FAB_4$CUT_ALL
 10
733.7744198340681
 20
-1364.954362891561
 30
0.0
 11
733.6190080681483
 21
-1365.025045737466
 31
0.0
  0
LINE
  5
176
  8
FAB_4$CUT_ALL
 10
733.6190080681483
 20
-1365.025045737466
 30
0.0
 11
733.4661000946428
 21
-1365.100993307077
 31
0.0
  0
LINE
  5
177
  8
FAB_4$CUT_ALL
 10
733.4661000946428
 20
-1365.100993307077
 30
0.0
 11
733.3158741974087
 21
-1365.182117048925
 31
0.0
  0
LINE
  5
178
  8
FAB_4$CUT_ALL
 10
733.3158741974087
 20
-1365.182117048925
 30
0.0
 11
733.1685055331214
 21
-1365.268322376357
 31
0.0
  0
LINE
  5
179
  8
FAB_4$CUT_ALL
 10
733.1685055331214
 20
-1365.268322376357
 30
0.0
 11
733.0241659270521
 21
-1365.359508777816
 31
0.0
  0
LINE
  5
17A
  8
FAB_4$CUT_ALL
 10
733.0241659270521
 20
-1365.359508777816
 30
0.0
 11
732.8830236727241
 21
-1365.455569934037
 31
0.0
  0
LINE
  5
17B
  8
FAB_4$CUT_ALL
 10
732.8830236727241
 20
-1365.455569934037
 30
0.0
 11
732.7452433356932
 21
-1365.556393842009
 31
0.0
  0
LINE
  5
17C
  8
FAB_4$CUT_ALL
 10
732.7452433356932
 20
-1365.556393842009
 30
0.0
 11
732.6109855616683
 21
-1365.661862945567
 31
0.0
  0
LINE
  5
17D
  8
FAB_4$CUT_ALL
 10
732.6109855616683
 20
-1365.661862945567
 30
0.0
 11
732.4804068892089
 21
-1365.771854272452
 31
0.0
  0
LINE
  5
17E
  8
FAB_4$CUT_ALL
 10
732.4804068892089
 20
-1365.771854272452
 30
0.0
 11
732.3536595672055
 21
-1365.886239577698
 31
0.0
  0
LINE
  5
17F
  8
FAB_4$CUT_ALL
 10
732.3536595672055
 20
-1365.886239577698
 30
0.0
 11
732.2308913773659
 21
-1366.004885493157
 31
0.0
  0
LINE
  5
180
  8
FAB_4$CUT_ALL
 10
732.2308913773659
 20
-1366.004885493157
 30
0.0
 11
732.1122454619078
 21
-1366.127653682996
 31
0.0
  0
LINE
  5
181
  8
FAB_4$CUT_ALL
 10
732.1122454619078
 20
-1366.127653682996
 30
0.0
 11
731.9978601566615
 21
-1366.254401004999
 31
0.0
  0
LINE
  5
182
  8
FAB_4$CUT_ALL
 10
731.9978601566615
 20
-1366.254401004999
 30
0.0
 11
731.8878688297766
 21
-1366.384979677459
 31
0.0
  0
LINE
  5
183
  8
FAB_4$CUT_ALL
 10
731.8878688297766
 20
-1366.384979677459
 30
0.0
 11
731.7823997262193
 21
-1366.519237451483
 31
0.0
  0
LINE
  5
184
  8
FAB_4$CUT_ALL
 10
731.7823997262193
 20
-1366.519237451483
 30
0.0
 11
731.6815758182465
 21
-1366.657017788515
 31
0.0
  0
LINE
  5
185
  8
FAB_4$CUT_ALL
 10
731.6815758182465
 20
-1366.657017788515
 30
0.0
 11
731.5855146620252
 21
-1366.798160042842
 31
0.0
  0
LINE
  5
186
  8
FAB_4$CUT_ALL
 10
731.5855146620252
 20
-1366.798160042842
 30
0.0
 11
731.4943282605661
 21
-1366.942499648912
 31
0.0
  0
LINE
  5
187
  8
FAB_4$CUT_ALL
 10
731.4943282605661
 20
-1366.942499648912
 30
0.0
 11
731.4081229331348
 21
-1367.089868313199
 31
0.0
  0
LINE
  5
188
  8
FAB_4$CUT_ALL
 10
731.4081229331348
 20
-1367.089868313199
 30
0.0
 11
731.3269991912867
 21
-1367.240094210433
 31
0.0
  0
LINE
  5
189
  8
FAB_4$CUT_ALL
 10
731.3269991912867
 20
-1367.240094210433
 30
0.0
 11
731.251051621676
 21
-1367.393002183939
 31
0.0
  0
LINE
  5
18A
  8
FAB_4$CUT_ALL
 10
731.251051621676
 20
-1367.393002183939
 30
0.0
 11
731.1803687757715
 21
-1367.548413949858
 31
0.0
  0
LINE
  5
18B
  8
FAB_4$CUT_ALL
 10
731.1803687757715
 20
-1367.548413949858
 30
0.0
 11
731.1150330666094
 21
-1367.706148305024
 31
0.0
  0
LINE
  5
18C
  8
FAB_4$CUT_ALL
 10
731.1150330666094
 20
-1367.706148305024
 30
0.0
 11
731.0551206727047
 21
-1367.866021338234
 31
0.0
  0
LINE
  5
18D
  8
FAB_4$CUT_ALL
 10
731.0551206727047
 20
-1367.866021338234
 30
0.0
 11
731.000701449228
 21
-1368.027846644684
 31
0.0
  0
LINE
  5
18E
  8
FAB_4$CUT_ALL
 10
731.000701449228
 20
-1368.027846644684
 30
0.0
 11
730.9518388465597
 21
-1368.191435543304
 31
0.0
  0
LINE
  5
18F
  8
FAB_4$CUT_ALL
 10
730.9518388465597
 20
-1368.191435543304
 30
0.0
 11
730.908589836309
 21
-1368.356597296757
 31
0.0
  0
LINE
  5
190
  8
FAB_4$CUT_ALL
 10
730.908589836309
 20
-1368.356597296757
 30
0.0
 11
730.8710048448871
 21
-1368.523139333826
 31
0.0
  0
LINE
  5
191
  8
FAB_4$CUT_ALL
 10
730.8710048448871
 20
-1368.523139333826
 30
0.0
 11
730.8391276947127
 21
-1368.690867473946
 31
0.0
  0
LINE
  5
192
  8
FAB_4$CUT_ALL
 10
730.8391276947127
 20
-1368.690867473946
 30
0.0
 11
730.8129955531173
 21
-1368.859586153608
 31
0.0
  0
LINE
  5
193
  8
FAB_4$CUT_ALL
 10
730.8129955531173
 20
-1368.859586153608
 30
0.0
 11
730.7926388890085
 21
-1369.029098654379
 31
0.0
  0
LINE
  5
194
  8
FAB_4$CUT_ALL
 10
730.7926388890085
 20
-1369.029098654379
 30
0.0
 11
730.7780814373461
 21
-1369.199207332266
 31
0.0
  0
LINE
  5
195
  8
FAB_4$CUT_ALL
 10
730.7780814373461
 20
-1369.199207332266
 30
0.0
 11
730.7693401714681
 21
-1369.369713848159
 31
0.0
  0
LINE
  5
196
  8
FAB_4$CUT_ALL
 10
730.7693401714681
 20
-1369.369713848159
 30
0.0
 11
730.766425283299
 21
-1369.540419399089
 31
0.0
  0
LINE
  5
197
  8
FAB_4$CUT_ALL
 10
730.766425283299
 20
-1369.540419399089
 30
0.0
 11
730.7664252832989
 21
-1374.54033492161
 31
0.0
  0
LINE
  5
198
  8
FAB_4$CUT_ALL
 10
730.7664252832989
 20
-1374.54033492161
 30
0.0
 11
654.2923183623149
 21
-1374.54033492161
 31
0.0
  0
LINE
  5
199
  8
FAB_4$CUT_ALL
 10
654.2923183623149
 20
-1374.54033492161
 30
0.0
 11
654.2923183623149
 21
-1369.540419399089
 31
0.0
  0
LINE
  5
19A
  8
FAB_4$CUT_ALL
 10
654.2923183623149
 20
-1369.540419399089
 30
0.0
 11
654.2894034741457
 21
-1369.36971384816
 31
0.0
  0
LINE
  5
19B
  8
FAB_4$CUT_ALL
 10
654.2894034741457
 20
-1369.36971384816
 30
0.0
 11
654.2806622082677
 21
-1369.199207332266
 31
0.0
  0
LINE
  5
19C
  8
FAB_4$CUT_ALL
 10
654.2806622082677
 20
-1369.199207332266
 30
0.0
 11
654.2661047566054
 21
-1369.029098654379
 31
0.0
  0
LINE
  5
19D
  8
FAB_4$CUT_ALL
 10
654.2661047566054
 20
-1369.029098654379
 30
0.0
 11
654.2457480924965
 21
-1368.859586153608
 31
0.0
  0
LINE
  5
19E
  8
FAB_4$CUT_ALL
 10
654.2457480924965
 20
-1368.859586153608
 30
0.0
 11
654.2196159509009
 21
-1368.690867473946
 31
0.0
  0
LINE
  5
19F
  8
FAB_4$CUT_ALL
 10
654.2196159509009
 20
-1368.690867473946
 30
0.0
 11
654.1877388007266
 21
-1368.523139333827
 31
0.0
  0
LINE
  5
1A0
  8
FAB_4$CUT_ALL
 10
654.1877388007266
 20
-1368.523139333827
 30
0.0
 11
654.1501538093047
 21
-1368.356597296757
 31
0.0
  0
LINE
  5
1A1
  8
FAB_4$CUT_ALL
 10
654.1501538093047
 20
-1368.356597296757
 30
0.0
 11
654.1069047990541
 21
-1368.191435543304
 31
0.0
  0
LINE
  5
1A2
  8
FAB_4$CUT_ALL
 10
654.1069047990541
 20
-1368.191435543304
 30
0.0
 11
654.0580421963857
 21
-1368.027846644684
 31
0.0
  0
LINE
  5
1A3
  8
FAB_4$CUT_ALL
 10
654.0580421963857
 20
-1368.027846644684
 30
0.0
 11
654.0036229729092
 21
-1367.866021338235
 31
0.0
  0
LINE
  5
1A4
  8
FAB_4$CUT_ALL
 10
654.0036229729092
 20
-1367.866021338235
 30
0.0
 11
653.943710579004
 21
-1367.706148305024
 31
0.0
  0
LINE
  5
1A5
  8
FAB_4$CUT_ALL
 10
653.943710579004
 20
-1367.706148305024
 30
0.0
 11
653.8783748698424
 21
-1367.548413949859
 31
0.0
  0
LINE
  5
1A6
  8
FAB_4$CUT_ALL
 10
653.8783748698424
 20
-1367.548413949859
 30
0.0
 11
653.8076920239379
 21
-1367.393002183939
 31
0.0
  0
LINE
  5
1A7
  8
FAB_4$CUT_ALL
 10
653.8076920239379
 20
-1367.393002183939
 30
0.0
 11
653.731744454327
 21
-1367.240094210434
 31
0.0
  0
LINE
  5
1A8
  8
FAB_4$CUT_ALL
 10
653.731744454327
 20
-1367.240094210434
 30
0.0
 11
653.6506207124788
 21
-1367.089868313199
 31
0.0
  0
LINE
  5
1A9
  8
FAB_4$CUT_ALL
 10
653.6506207124788
 20
-1367.089868313199
 30
0.0
 11
653.5644153850474
 21
-1366.942499648912
 31
0.0
  0
LINE
  5
1AA
  8
FAB_4$CUT_ALL
 10
653.5644153850474
 20
-1366.942499648912
 30
0.0
 11
653.4732289835885
 21
-1366.798160042842
 31
0.0
  0
LINE
  5
1AB
  8
FAB_4$CUT_ALL
 10
653.4732289835885
 20
-1366.798160042842
 30
0.0
 11
653.3771678273673
 21
-1366.657017788515
 31
0.0
  0
LINE
  5
1AC
  8
FAB_4$CUT_ALL
 10
653.3771678273673
 20
-1366.657017788515
 30
0.0
 11
653.2763439193949
 21
-1366.519237451484
 31
0.0
  0
LINE
  5
1AD
  8
FAB_4$CUT_ALL
 10
653.2763439193949
 20
-1366.519237451484
 30
0.0
 11
653.1708748158371
 21
-1366.384979677459
 31
0.0
  0
LINE
  5
1AE
  8
FAB_4$CUT_ALL
 10
653.1708748158371
 20
-1366.384979677459
 30
0.0
 11
653.0608834889521
 21
-1366.254401004999
 31
0.0
  0
LINE
  5
1AF
  8
FAB_4$CUT_ALL
 10
653.0608834889521
 20
-1366.254401004999
 30
0.0
 11
652.9464981837058
 21
-1366.127653682996
 31
0.0
  0
LINE
  5
1B0
  8
FAB_4$CUT_ALL
 10
652.9464981837058
 20
-1366.127653682996
 30
0.0
 11
652.8278522682477
 21
-1366.004885493156
 31
0.0
  0
LINE
  5
1B1
  8
FAB_4$CUT_ALL
 10
652.8278522682477
 20
-1366.004885493156
 30
0.0
 11
652.7050840784082
 21
-1365.886239577698
 31
0.0
  0
LINE
  5
1B2
  8
FAB_4$CUT_ALL
 10
652.7050840784082
 20
-1365.886239577698
 30
0.0
 11
652.5783367564047
 21
-1365.771854272452
 31
0.0
  0
LINE
  5
1B3
  8
FAB_4$CUT_ALL
 10
652.5783367564047
 20
-1365.771854272452
 30
0.0
 11
652.4477580839454
 21
-1365.661862945567
 31
0.0
  0
LINE
  5
1B4
  8
FAB_4$CUT_ALL
 10
652.4477580839454
 20
-1365.661862945567
 30
0.0
 11
652.3135003099204
 21
-1365.556393842009
 31
0.0
  0
LINE
  5
1B5
  8
FAB_4$CUT_ALL
 10
652.3135003099204
 20
-1365.556393842009
 30
0.0
 11
652.1757199728892
 21
-1365.455569934037
 31
0.0
  0
LINE
  5
1B6
  8
FAB_4$CUT_ALL
 10
652.1757199728892
 20
-1365.455569934037
 30
0.0
 11
652.0345777185618
 21
-1365.359508777816
 31
0.0
  0
LINE
  5
1B7
  8
FAB_4$CUT_ALL
 10
652.0345777185618
 20
-1365.359508777816
 30
0.0
 11
651.8902381124923
 21
-1365.268322376357
 31
0.0
  0
LINE
  5
1B8
  8
FAB_4$CUT_ALL
 10
651.8902381124923
 20
-1365.268322376357
 30
0.0
 11
651.742869448205
 21
-1365.182117048925
 31
0.0
  0
LINE
  5
1B9
  8
FAB_4$CUT_ALL
 10
651.742869448205
 20
-1365.182117048925
 30
0.0
 11
651.5926435509706
 21
-1365.100993307077
 31
0.0
  0
LINE
  5
1BA
  8
FAB_4$CUT_ALL
 10
651.5926435509706
 20
-1365.100993307077
 30
0.0
 11
651.4397355774654
 21
-1365.025045737466
 31
0.0
  0
LINE
  5
1BB
  8
FAB_4$CUT_ALL
 10
651.4397355774654
 20
-1365.025045737466
 30
0.0
 11
651.2843238115461
 21
-1364.954362891562
 31
0.0
  0
LINE
  5
1BC
  8
FAB_4$CUT_ALL
 10
651.2843238115461
 20
-1364.954362891562
 30
0.0
 11
651.1265894563801
 21
-1364.8890271824
 31
0.0
  0
LINE
  5
1BD
  8
FAB_4$CUT_ALL
 10
651.1265894563801
 20
-1364.8890271824
 30
0.0
 11
650.96671642317
 21
-1364.829114788495
 31
0.0
  0
LINE
  5
1BE
  8
FAB_4$CUT_ALL
 10
650.96671642317
 20
-1364.829114788495
 30
0.0
 11
650.8048911167203
 21
-1364.774695565018
 31
0.0
  0
LINE
  5
1BF
  8
FAB_4$CUT_ALL
 10
650.8048911167203
 20
-1364.774695565018
 30
0.0
 11
650.6413022181
 21
-1364.72583296235
 31
0.0
  0
LINE
  5
1C0
  8
FAB_4$CUT_ALL
 10
650.6413022181
 20
-1364.72583296235
 30
0.0
 11
650.476140464647
 21
-1364.682583952099
 31
0.0
  0
LINE
  5
1C1
  8
FAB_4$CUT_ALL
 10
650.476140464647
 20
-1364.682583952099
 30
0.0
 11
650.3095984275778
 21
-1364.644998960677
 31
0.0
  0
LINE
  5
1C2
  8
FAB_4$CUT_ALL
 10
650.3095984275778
 20
-1364.644998960677
 30
0.0
 11
650.1418702874582
 21
-1364.613121810503
 31
0.0
  0
LINE
  5
1C3
  8
FAB_4$CUT_ALL
 10
650.1418702874582
 20
-1364.613121810503
 30
0.0
 11
649.973151607796
 21
-1364.586989668908
 31
0.0
  0
LINE
  5
1C4
  8
FAB_4$CUT_ALL
 10
649.973151607796
 20
-1364.586989668908
 30
0.0
 11
649.8036391070249
 21
-1364.566633004799
 31
0.0
  0
LINE
  5
1C5
  8
FAB_4$CUT_ALL
 10
649.8036391070249
 20
-1364.566633004799
 30
0.0
 11
649.6335304291379
 21
-1364.552075553137
 31
0.0
  0
LINE
  5
1C6
  8
FAB_4$CUT_ALL
 10
649.6335304291379
 20
-1364.552075553137
 30
0.0
 11
649.4630239132447
 21
-1364.543334287258
 31
0.0
  0
LINE
  5
1C7
  8
FAB_4$CUT_ALL
 10
649.4630239132447
 20
-1364.543334287258
 30
0.0
 11
649.2923183623147
 21
-1364.540419399089
 31
0.0
  0
LINE
  5
1C8
  8
FAB_4$CUT_ALL
 10
649.2923183623147
 20
-1364.540419399089
 30
0.0
 11
629.2923183623149
 21
-1364.540419399089
 31
0.0
  0
LINE
  5
1C9
  8
FAB_4$CUT_ALL
 10
629.2923183623149
 20
-1364.540419399089
 30
0.0
 11
609.2923183623147
 21
-1364.540419399089
 31
0.0
  0
LINE
  5
1CA
  8
FAB_4$CUT_ALL
 10
609.2923183623147
 20
-1364.540419399089
 30
0.0
 11
609.1216128113851
 21
-1364.543334287258
 31
0.0
  0
LINE
  5
1CB
  8
FAB_4$CUT_ALL
 10
609.1216128113851
 20
-1364.543334287258
 30
0.0
 11
608.9511062954911
 21
-1364.552075553137
 31
0.0
  0
LINE
  5
1CC
  8
FAB_4$CUT_ALL
 10
608.9511062954911
 20
-1364.552075553137
 30
0.0
 11
608.7809976176046
 21
-1364.566633004799
 31
0.0
  0
LINE
  5
1CD
  8
FAB_4$CUT_ALL
 10
608.7809976176046
 20
-1364.566633004799
 30
0.0
 11
608.6114851168334
 21
-1364.586989668908
 31
0.0
  0
LINE
  5
1CE
  8
FAB_4$CUT_ALL
 10
608.6114851168334
 20
-1364.586989668908
 30
0.0
 11
608.4427664371716
 21
-1364.613121810503
 31
0.0
  0
LINE
  5
1CF
  8
FAB_4$CUT_ALL
 10
608.4427664371716
 20
-1364.613121810503
 30
0.0
 11
608.2750382970515
 21
-1364.644998960678
 31
0.0
  0
LINE
  5
1D0
  8
FAB_4$CUT_ALL
 10
608.2750382970515
 20
-1364.644998960678
 30
0.0
 11
608.1084962599828
 21
-1364.682583952099
 31
0.0
  0
LINE
  5
1D1
  8
FAB_4$CUT_ALL
 10
608.1084962599828
 20
-1364.682583952099
 30
0.0
 11
607.9433345065293
 21
-1364.72583296235
 31
0.0
  0
LINE
  5
1D2
  8
FAB_4$CUT_ALL
 10
607.9433345065293
 20
-1364.72583296235
 30
0.0
 11
607.7797456079097
 21
-1364.774695565018
 31
0.0
  0
LINE
  5
1D3
  8
FAB_4$CUT_ALL
 10
607.7797456079097
 20
-1364.774695565018
 30
0.0
 11
607.6179203014597
 21
-1364.829114788495
 31
0.0
  0
LINE
  5
1D4
  8
FAB_4$CUT_ALL
 10
607.6179203014597
 20
-1364.829114788495
 30
0.0
 11
607.4580472682495
 21
-1364.8890271824
 31
0.0
  0
LINE
  5
1D5
  8
FAB_4$CUT_ALL
 10
607.4580472682495
 20
-1364.8890271824
 30
0.0
 11
607.3003129130835
 21
-1364.954362891562
 31
0.0
  0
LINE
  5
1D6
  8
FAB_4$CUT_ALL
 10
607.3003129130835
 20
-1364.954362891562
 30
0.0
 11
607.1449011471642
 21
-1365.025045737467
 31
0.0
  0
LINE
  5
1D7
  8
FAB_4$CUT_ALL
 10
607.1449011471642
 20
-1365.025045737467
 30
0.0
 11
606.9919931736587
 21
-1365.100993307077
 31
0.0
  0
LINE
  5
1D8
  8
FAB_4$CUT_ALL
 10
606.9919931736587
 20
-1365.100993307077
 30
0.0
 11
606.841767276425
 21
-1365.182117048925
 31
0.0
  0
LINE
  5
1D9
  8
FAB_4$CUT_ALL
 10
606.841767276425
 20
-1365.182117048925
 30
0.0
 11
606.6943986121378
 21
-1365.268322376357
 31
0.0
  0
LINE
  5
1DA
  8
FAB_4$CUT_ALL
 10
606.6943986121378
 20
-1365.268322376357
 30
0.0
 11
606.5500590060682
 21
-1365.359508777816
 31
0.0
  0
LINE
  5
1DB
  8
FAB_4$CUT_ALL
 10
606.5500590060682
 20
-1365.359508777816
 30
0.0
 11
606.4089167517403
 21
-1365.455569934037
 31
0.0
  0
LINE
  5
1DC
  8
FAB_4$CUT_ALL
 10
606.4089167517403
 20
-1365.455569934037
 30
0.0
 11
606.2711364147094
 21
-1365.55639384201
 31
0.0
  0
LINE
  5
1DD
  8
FAB_4$CUT_ALL
 10
606.2711364147094
 20
-1365.55639384201
 30
0.0
 11
606.1368786406842
 21
-1365.661862945567
 31
0.0
  0
LINE
  5
1DE
  8
FAB_4$CUT_ALL
 10
606.1368786406842
 20
-1365.661862945567
 30
0.0
 11
606.0062999682252
 21
-1365.771854272452
 31
0.0
  0
LINE
  5
1DF
  8
FAB_4$CUT_ALL
 10
606.0062999682252
 20
-1365.771854272452
 30
0.0
 11
605.8795526462217
 21
-1365.886239577698
 31
0.0
  0
LINE
  5
1E0
  8
FAB_4$CUT_ALL
 10
605.8795526462217
 20
-1365.886239577698
 30
0.0
 11
605.7567844563821
 21
-1366.004885493157
 31
0.0
  0
LINE
  5
1E1
  8
FAB_4$CUT_ALL
 10
605.7567844563821
 20
-1366.004885493157
 30
0.0
 11
605.638138540924
 21
-1366.127653682996
 31
0.0
  0
LINE
  5
1E2
  8
FAB_4$CUT_ALL
 10
605.638138540924
 20
-1366.127653682996
 30
0.0
 11
605.5237532356778
 21
-1366.254401005
 31
0.0
  0
LINE
  5
1E3
  8
FAB_4$CUT_ALL
 10
605.5237532356778
 20
-1366.254401005
 30
0.0
 11
605.4137619087927
 21
-1366.384979677459
 31
0.0
  0
LINE
  5
1E4
  8
FAB_4$CUT_ALL
 10
605.4137619087927
 20
-1366.384979677459
 30
0.0
 11
605.3082928052352
 21
-1366.519237451484
 31
0.0
  0
LINE
  5
1E5
  8
FAB_4$CUT_ALL
 10
605.3082928052352
 20
-1366.519237451484
 30
0.0
 11
605.2074688972627
 21
-1366.657017788515
 31
0.0
  0
LINE
  5
1E6
  8
FAB_4$CUT_ALL
 10
605.2074688972627
 20
-1366.657017788515
 30
0.0
 11
605.1114077410413
 21
-1366.798160042843
 31
0.0
  0
LINE
  5
1E7
  8
FAB_4$CUT_ALL
 10
605.1114077410413
 20
-1366.798160042843
 30
0.0
 11
605.0202213395823
 21
-1366.942499648912
 31
0.0
  0
LINE
  5
1E8
  8
FAB_4$CUT_ALL
 10
605.0202213395823
 20
-1366.942499648912
 30
0.0
 11
604.9340160121511
 21
-1367.089868313199
 31
0.0
  0
LINE
  5
1E9
  8
FAB_4$CUT_ALL
 10
604.9340160121511
 20
-1367.089868313199
 30
0.0
 11
604.852892270303
 21
-1367.240094210433
 31
0.0
  0
LINE
  5
1EA
  8
FAB_4$CUT_ALL
 10
604.852892270303
 20
-1367.240094210433
 30
0.0
 11
604.7769447006921
 21
-1367.393002183939
 31
0.0
  0
LINE
  5
1EB
  8
FAB_4$CUT_ALL
 10
604.7769447006921
 20
-1367.393002183939
 30
0.0
 11
604.7062618547876
 21
-1367.548413949858
 31
0.0
  0
LINE
  5
1EC
  8
FAB_4$CUT_ALL
 10
604.7062618547876
 20
-1367.548413949858
 30
0.0
 11
604.6409261456256
 21
-1367.706148305024
 31
0.0
  0
LINE
  5
1ED
  8
FAB_4$CUT_ALL
 10
604.6409261456256
 20
-1367.706148305024
 30
0.0
 11
604.5810137517208
 21
-1367.866021338234
 31
0.0
  0
LINE
  5
1EE
  8
FAB_4$CUT_ALL
 10
604.5810137517208
 20
-1367.866021338234
 30
0.0
 11
604.5265945282441
 21
-1368.027846644684
 31
0.0
  0
LINE
  5
1EF
  8
FAB_4$CUT_ALL
 10
604.5265945282441
 20
-1368.027846644684
 30
0.0
 11
604.4777319255759
 21
-1368.191435543304
 31
0.0
  0
LINE
  5
1F0
  8
FAB_4$CUT_ALL
 10
604.4777319255759
 20
-1368.191435543304
 30
0.0
 11
604.4344829153251
 21
-1368.356597296757
 31
0.0
  0
LINE
  5
1F1
  8
FAB_4$CUT_ALL
 10
604.4344829153251
 20
-1368.356597296757
 30
0.0
 11
604.3968979239032
 21
-1368.523139333826
 31
0.0
  0
LINE
  5
1F2
  8
FAB_4$CUT_ALL
 10
604.3968979239032
 20
-1368.523139333826
 30
0.0
 11
604.3650207737288
 21
-1368.690867473946
 31
0.0
  0
LINE
  5
1F3
  8
FAB_4$CUT_ALL
 10
604.3650207737288
 20
-1368.690867473946
 30
0.0
 11
604.3388886321333
 21
-1368.859586153608
 31
0.0
  0
LINE
  5
1F4
  8
FAB_4$CUT_ALL
 10
604.3388886321333
 20
-1368.859586153608
 30
0.0
 11
604.3185319680243
 21
-1369.029098654379
 31
0.0
  0
LINE
  5
1F5
  8
FAB_4$CUT_ALL
 10
604.3185319680243
 20
-1369.029098654379
 30
0.0
 11
604.3039745163621
 21
-1369.199207332266
 31
0.0
  0
LINE
  5
1F6
  8
FAB_4$CUT_ALL
 10
604.3039745163621
 20
-1369.199207332266
 30
0.0
 11
604.295233250484
 21
-1369.36971384816
 31
0.0
  0
LINE
  5
1F7
  8
FAB_4$CUT_ALL
 10
604.295233250484
 20
-1369.36971384816
 30
0.0
 11
604.2923183623149
 21
-1369.540419399089
 31
0.0
  0
LINE
  5
1F8
  8
FAB_4$CUT_ALL
 10
604.2923183623149
 20
-1369.540419399089
 30
0.0
 11
604.2923183623149
 21
-1374.54033492161
 31
0.0
  0
ARC
  5
1F9
  8
FAB_4$CUT_ALL
 10
590.7936342024632
 20
-1396.528309522037
 30
0.0
 40
25.80088178873844
 50
245.6898282936091
 51
58.45373165696665
  0
ARC
  5
1FA
  8
FAB_4$CUT_ALL
 10
576.0552649018224
 20
-1429.154734505617
 30
0.0
 40
10.0
 50
65.68982829360633
 51
180.0000000000039
  0
LINE
  5
1FB
  8
FAB_4$CUT_ALL
 10
1200.240993840759
 20
-1641.898764372125
 30
0.0
 11
1200.240993840759
 21
-1629.448764372125
 31
0.0
  0
LINE
  5
1FC
  8
FAB_4$CUT_ALL
 10
1200.240993840759
 20
-1629.448764372125
 30
0.0
 11
1203.140993840759
 21
-1629.448764372125
 31
0.0
  0
LINE
  5
1FD
  8
FAB_4$CUT_ALL
 10
1203.140993840759
 20
-1629.448764372125
 30
0.0
 11
1203.140993840759
 21
-1654.348764372126
 31
0.0
  0
LINE
  5
1FE
  8
FAB_4$CUT_ALL
 10
1203.140993840759
 20
-1654.348764372126
 30
0.0
 11
1200.240993840759
 21
-1654.348764372126
 31
0.0
  0
LINE
  5
1FF
  8
FAB_4$CUT_ALL
 10
1200.240993840759
 20
-1654.348764372126
 30
0.0
 11
1200.240993840759
 21
-1641.898764372125
 31
0.0
  0
LINE
  5
200
  8
FAB_4$CUT_ALL
 10
1200.190993840759
 20
-1641.898764372125
 30
0.0
 11
1200.190993840759
 21
-1629.398764372125
 31
0.0
  0
LINE
  5
201
  8
FAB_4$CUT_ALL
 10
1200.190993840759
 20
-1629.398764372125
 30
0.0
 11
1203.190993840759
 21
-1629.398764372125
 31
0.0
  0
LINE
  5
202
  8
FAB_4$CUT_ALL
 10
1203.190993840759
 20
-1629.398764372125
 30
0.0
 11
1203.190993840759
 21
-1641.898764372125
 31
0.0
  0
LINE
  5
203
  8
FAB_4$CUT_ALL
 10
1203.190993840759
 20
-1641.898764372125
 30
0.0
 11
1203.190993840759
 21
-1654.398764372125
 31
0.0
  0
LINE
  5
204
  8
FAB_4$CUT_ALL
 10
1203.190993840759
 20
-1654.398764372125
 30
0.0
 11
1200.190993840759
 21
-1654.398764372125
 31
0.0
  0
LINE
  5
205
  8
FAB_4$CUT_ALL
 10
1200.190993840759
 20
-1654.398764372125
 30
0.0
 11
1200.190993840759
 21
-1641.898764372125
 31
0.0
  0
LINE
  5
206
  8
FAB_4$CUT_ALL
 10
1161.903940380267
 20
-1665.348764372126
 30
0.0
 11
1112.003940380267
 21
-1665.348764372126
 31
0.0
  0
LINE
  5
207
  8
FAB_4$CUT_ALL
 10
1112.003940380267
 20
-1665.348764372126
 30
0.0
 11
1112.003940380267
 21
-1662.448764372125
 31
0.0
  0
LINE
  5
208
  8
FAB_4$CUT_ALL
 10
1112.003940380267
 20
-1662.448764372125
 30
0.0
 11
1161.903940380267
 21
-1662.448764372126
 31
0.0
  0
LINE
  5
209
  8
FAB_4$CUT_ALL
 10
1161.903940380267
 20
-1662.448764372126
 30
0.0
 11
1161.903940380267
 21
-1665.348764372126
 31
0.0
  0
LINE
  5
20A
  8
FAB_4$CUT_ALL
 10
1035.429833459283
 20
-1627.618203603161
 30
0.0
 11
985.5298334592828
 21
-1627.618203603161
 31
0.0
  0
LINE
  5
20B
  8
FAB_4$CUT_ALL
 10
985.5298334592828
 20
-1627.618203603161
 30
0.0
 11
985.5298334592828
 21
-1624.718203603161
 31
0.0
  0
LINE
  5
20C
  8
FAB_4$CUT_ALL
 10
985.5298334592828
 20
-1624.718203603161
 30
0.0
 11
1035.429833459283
 21
-1624.718203603161
 31
0.0
  0
LINE
  5
20D
  8
FAB_4$CUT_ALL
 10
1035.429833459283
 20
-1624.718203603161
 30
0.0
 11
1035.429833459283
 21
-1627.618203603161
 31
0.0
  0
LINE
  5
20E
  8
FAB_4$CUT_ALL
 10
1035.429833459283
 20
-1665.348764372125
 30
0.0
 11
985.5298334592826
 21
-1665.348764372125
 31
0.0
  0
LINE
  5
20F
  8
FAB_4$CUT_ALL
 10
985.5298334592826
 20
-1665.348764372125
 30
0.0
 11
985.5298334592826
 21
-1662.448764372125
 31
0.0
  0
LINE
  5
210
  8
FAB_4$CUT_ALL
 10
985.5298334592826
 20
-1662.448764372125
 30
0.0
 11
1035.429833459283
 21
-1662.448764372125
 31
0.0
  0
LINE
  5
211
  8
FAB_4$CUT_ALL
 10
1035.429833459283
 20
-1662.448764372125
 30
0.0
 11
1035.429833459283
 21
-1665.348764372125
 31
0.0
  0
LINE
  5
212
  8
FAB_4$CUT_ALL
 10
908.9557265382989
 20
-1627.61820360316
 30
0.0
 11
859.0557265382988
 21
-1627.61820360316
 31
0.0
  0
LINE
  5
213
  8
FAB_4$CUT_ALL
 10
859.0557265382988
 20
-1627.61820360316
 30
0.0
 11
859.0557265382988
 21
-1624.71820360316
 31
0.0
  0
LINE
  5
214
  8
FAB_4$CUT_ALL
 10
859.0557265382988
 20
-1624.71820360316
 30
0.0
 11
908.9557265382989
 21
-1624.71820360316
 31
0.0
  0
LINE
  5
215
  8
FAB_4$CUT_ALL
 10
908.9557265382989
 20
-1624.71820360316
 30
0.0
 11
908.9557265382989
 21
-1627.61820360316
 31
0.0
  0
LINE
  5
216
  8
FAB_4$CUT_ALL
 10
908.9557265382987
 20
-1665.348764372124
 30
0.0
 11
859.0557265382986
 21
-1665.348764372124
 31
0.0
  0
LINE
  5
217
  8
FAB_4$CUT_ALL
 10
859.0557265382986
 20
-1665.348764372124
 30
0.0
 11
859.0557265382986
 21
-1662.448764372124
 31
0.0
  0
LINE
  5
218
  8
FAB_4$CUT_ALL
 10
859.0557265382986
 20
-1662.448764372124
 30
0.0
 11
908.9557265382987
 21
-1662.448764372124
 31
0.0
  0
LINE
  5
219
  8
FAB_4$CUT_ALL
 10
908.9557265382987
 20
-1662.448764372124
 30
0.0
 11
908.9557265382987
 21
-1665.348764372124
 31
0.0
  0
LINE
  5
21A
  8
FAB_4$CUT_ALL
 10
1161.953940380267
 20
-1613.398764372125
 30
0.0
 11
1161.953940380267
 21
-1610.398764372125
 31
0.0
  0
LINE
  5
21B
  8
FAB_4$CUT_ALL
 10
1161.953940380267
 20
-1610.398764372125
 30
0.0
 11
1160.391440380267
 21
-1609.551108122125
 31
0.0
  0
LINE
  5
21C
  8
FAB_4$CUT_ALL
 10
1160.391440380267
 20
-1609.551108122125
 30
0.0
 11
1158.828940380267
 21
-1608.758139372125
 31
0.0
  0
LINE
  5
21D
  8
FAB_4$CUT_ALL
 10
1158.828940380267
 20
-1608.758139372125
 30
0.0
 11
1157.266440380267
 21
-1608.019858122125
 31
0.0
  0
LINE
  5
21E
  8
FAB_4$CUT_ALL
 10
1157.266440380267
 20
-1608.019858122125
 30
0.0
 11
1155.703940380267
 21
-1607.336264372125
 31
0.0
  0
LINE
  5
21F
  8
FAB_4$CUT_ALL
 10
1155.703940380267
 20
-1607.336264372125
 30
0.0
 11
1154.141440380267
 21
-1606.707358122125
 31
0.0
  0
LINE
  5
220
  8
FAB_4$CUT_ALL
 10
1154.141440380267
 20
-1606.707358122125
 30
0.0
 11
1152.578940380267
 21
-1606.133139372125
 31
0.0
  0
LINE
  5
221
  8
FAB_4$CUT_ALL
 10
1152.578940380267
 20
-1606.133139372125
 30
0.0
 11
1151.016440380267
 21
-1605.613608122125
 31
0.0
  0
LINE
  5
222
  8
FAB_4$CUT_ALL
 10
1151.016440380267
 20
-1605.613608122125
 30
0.0
 11
1149.453940380267
 21
-1605.148764372125
 31
0.0
  0
LINE
  5
223
  8
FAB_4$CUT_ALL
 10
1149.453940380267
 20
-1605.148764372125
 30
0.0
 11
1147.891440380267
 21
-1604.738608122125
 31
0.0
  0
LINE
  5
224
  8
FAB_4$CUT_ALL
 10
1147.891440380267
 20
-1604.738608122125
 30
0.0
 11
1146.328940380267
 21
-1604.383139372125
 31
0.0
  0
LINE
  5
225
  8
FAB_4$CUT_ALL
 10
1146.328940380267
 20
-1604.383139372125
 30
0.0
 11
1144.766440380267
 21
-1604.082358122125
 31
0.0
  0
LINE
  5
226
  8
FAB_4$CUT_ALL
 10
1144.766440380267
 20
-1604.082358122125
 30
0.0
 11
1143.203940380267
 21
-1603.836264372125
 31
0.0
  0
LINE
  5
227
  8
FAB_4$CUT_ALL
 10
1143.203940380267
 20
-1603.836264372125
 30
0.0
 11
1141.641440380267
 21
-1603.644858122125
 31
0.0
  0
LINE
  5
228
  8
FAB_4$CUT_ALL
 10
1141.641440380267
 20
-1603.644858122125
 30
0.0
 11
1140.078940380267
 21
-1603.508139372125
 31
0.0
  0
LINE
  5
229
  8
FAB_4$CUT_ALL
 10
1140.078940380267
 20
-1603.508139372125
 30
0.0
 11
1138.516440380267
 21
-1603.426108122125
 31
0.0
  0
LINE
  5
22A
  8
FAB_4$CUT_ALL
 10
1138.516440380267
 20
-1603.426108122125
 30
0.0
 11
1137.735190380267
 21
-1603.405600309625
 31
0.0
  0
LINE
  5
22B
  8
FAB_4$CUT_ALL
 10
1137.735190380267
 20
-1603.405600309625
 30
0.0
 11
1136.953940380267
 21
-1603.398764372125
 31
0.0
  0
LINE
  5
22C
  8
FAB_4$CUT_ALL
 10
1136.953940380267
 20
-1603.398764372125
 30
0.0
 11
1136.172690380267
 21
-1603.405600309625
 31
0.0
  0
LINE
  5
22D
  8
FAB_4$CUT_ALL
 10
1136.172690380267
 20
-1603.405600309625
 30
0.0
 11
1135.391440380267
 21
-1603.426108122125
 31
0.0
  0
LINE
  5
22E
  8
FAB_4$CUT_ALL
 10
1135.391440380267
 20
-1603.426108122125
 30
0.0
 11
1133.828940380267
 21
-1603.508139372125
 31
0.0
  0
LINE
  5
22F
  8
FAB_4$CUT_ALL
 10
1133.828940380267
 20
-1603.508139372125
 30
0.0
 11
1132.266440380267
 21
-1603.644858122125
 31
0.0
  0
LINE
  5
230
  8
FAB_4$CUT_ALL
 10
1132.266440380267
 20
-1603.644858122125
 30
0.0
 11
1130.703940380267
 21
-1603.836264372125
 31
0.0
  0
LINE
  5
231
  8
FAB_4$CUT_ALL
 10
1130.703940380267
 20
-1603.836264372125
 30
0.0
 11
1129.141440380267
 21
-1604.082358122125
 31
0.0
  0
LINE
  5
232
  8
FAB_4$CUT_ALL
 10
1129.141440380267
 20
-1604.082358122125
 30
0.0
 11
1127.578940380267
 21
-1604.383139372125
 31
0.0
  0
LINE
  5
233
  8
FAB_4$CUT_ALL
 10
1127.578940380267
 20
-1604.383139372125
 30
0.0
 11
1126.016440380267
 21
-1604.738608122125
 31
0.0
  0
LINE
  5
234
  8
FAB_4$CUT_ALL
 10
1126.016440380267
 20
-1604.738608122125
 30
0.0
 11
1124.453940380267
 21
-1605.148764372125
 31
0.0
  0
LINE
  5
235
  8
FAB_4$CUT_ALL
 10
1124.453940380267
 20
-1605.148764372125
 30
0.0
 11
1122.891440380267
 21
-1605.613608122125
 31
0.0
  0
LINE
  5
236
  8
FAB_4$CUT_ALL
 10
1122.891440380267
 20
-1605.613608122125
 30
0.0
 11
1121.328940380267
 21
-1606.133139372125
 31
0.0
  0
LINE
  5
237
  8
FAB_4$CUT_ALL
 10
1121.328940380267
 20
-1606.133139372125
 30
0.0
 11
1119.766440380267
 21
-1606.707358122125
 31
0.0
  0
LINE
  5
238
  8
FAB_4$CUT_ALL
 10
1119.766440380267
 20
-1606.707358122125
 30
0.0
 11
1118.203940380267
 21
-1607.336264372125
 31
0.0
  0
LINE
  5
239
  8
FAB_4$CUT_ALL
 10
1118.203940380267
 20
-1607.336264372125
 30
0.0
 11
1116.641440380267
 21
-1608.019858122125
 31
0.0
  0
LINE
  5
23A
  8
FAB_4$CUT_ALL
 10
1116.641440380267
 20
-1608.019858122125
 30
0.0
 11
1115.078940380267
 21
-1608.758139372125
 31
0.0
  0
LINE
  5
23B
  8
FAB_4$CUT_ALL
 10
1115.078940380267
 20
-1608.758139372125
 30
0.0
 11
1113.516440380267
 21
-1609.551108122125
 31
0.0
  0
LINE
  5
23C
  8
FAB_4$CUT_ALL
 10
1113.516440380267
 20
-1609.551108122125
 30
0.0
 11
1111.953940380267
 21
-1610.398764372125
 31
0.0
  0
LINE
  5
23D
  8
FAB_4$CUT_ALL
 10
1111.953940380267
 20
-1610.398764372125
 30
0.0
 11
1111.953940380267
 21
-1613.398764372125
 31
0.0
  0
LINE
  5
23E
  8
FAB_4$CUT_ALL
 10
1111.953940380267
 20
-1613.398764372125
 30
0.0
 11
1058.882987526953
 21
-1613.398764372125
 31
0.0
  0
LINE
  5
23F
  8
FAB_4$CUT_ALL
 10
1058.882987526953
 20
-1613.398764372125
 30
0.0
 11
1058.882987526953
 21
-1610.398764372125
 31
0.0
  0
LINE
  5
240
  8
FAB_4$CUT_ALL
 10
1058.882987526953
 20
-1610.398764372125
 30
0.0
 11
821.0786434049835
 21
-1610.398764372123
 31
0.0
  0
LINE
  5
241
  8
FAB_4$CUT_ALL
 10
821.0786434049835
 20
-1610.398764372123
 30
0.0
 11
821.078643404983
 21
-1670.398764372123
 31
0.0
  0
LINE
  5
242
  8
FAB_4$CUT_ALL
 10
821.078643404983
 20
-1670.398764372123
 30
0.0
 11
1208.190993840759
 21
-1670.398764372125
 31
0.0
  0
LINE
  5
243
  8
FAB_4$CUT_ALL
 10
1208.190993840759
 20
-1670.398764372125
 30
0.0
 11
1208.190993840759
 21
-1613.398764372125
 31
0.0
  0
LINE
  5
244
  8
FAB_4$CUT_ALL
 10
1208.190993840759
 20
-1613.398764372125
 30
0.0
 11
1161.953940380267
 21
-1613.398764372125
 31
0.0
  0
LINE
  5
245
  8
FAB_4$CUT_ALL
 10
1161.953940380267
 20
-1536.889199685833
 30
0.0
 11
1161.953940380267
 21
-1533.889199685833
 31
0.0
  0
LINE
  5
246
  8
FAB_4$CUT_ALL
 10
1161.953940380267
 20
-1533.889199685833
 30
0.0
 11
1160.391440380267
 21
-1533.041543435833
 31
0.0
  0
LINE
  5
247
  8
FAB_4$CUT_ALL
 10
1160.391440380267
 20
-1533.041543435833
 30
0.0
 11
1158.828940380267
 21
-1532.248574685833
 31
0.0
  0
LINE
  5
248
  8
FAB_4$CUT_ALL
 10
1158.828940380267
 20
-1532.248574685833
 30
0.0
 11
1157.266440380267
 21
-1531.510293435833
 31
0.0
  0
LINE
  5
249
  8
FAB_4$CUT_ALL
 10
1157.266440380267
 20
-1531.510293435833
 30
0.0
 11
1155.703940380267
 21
-1530.826699685833
 31
0.0
  0
LINE
  5
24A
  8
FAB_4$CUT_ALL
 10
1155.703940380267
 20
-1530.826699685833
 30
0.0
 11
1154.141440380267
 21
-1530.197793435833
 31
0.0
  0
LINE
  5
24B
  8
FAB_4$CUT_ALL
 10
1154.141440380267
 20
-1530.197793435833
 30
0.0
 11
1152.578940380267
 21
-1529.623574685833
 31
0.0
  0
LINE
  5
24C
  8
FAB_4$CUT_ALL
 10
1152.578940380267
 20
-1529.623574685833
 30
0.0
 11
1151.016440380267
 21
-1529.104043435833
 31
0.0
  0
LINE
  5
24D
  8
FAB_4$CUT_ALL
 10
1151.016440380267
 20
-1529.104043435833
 30
0.0
 11
1149.453940380267
 21
-1528.639199685833
 31
0.0
  0
LINE
  5
24E
  8
FAB_4$CUT_ALL
 10
1149.453940380267
 20
-1528.639199685833
 30
0.0
 11
1147.891440380267
 21
-1528.229043435833
 31
0.0
  0
LINE
  5
24F
  8
FAB_4$CUT_ALL
 10
1147.891440380267
 20
-1528.229043435833
 30
0.0
 11
1146.328940380267
 21
-1527.873574685833
 31
0.0
  0
LINE
  5
250
  8
FAB_4$CUT_ALL
 10
1146.328940380267
 20
-1527.873574685833
 30
0.0
 11
1144.766440380267
 21
-1527.572793435833
 31
0.0
  0
LINE
  5
251
  8
FAB_4$CUT_ALL
 10
1144.766440380267
 20
-1527.572793435833
 30
0.0
 11
1143.203940380267
 21
-1527.326699685833
 31
0.0
  0
LINE
  5
252
  8
FAB_4$CUT_ALL
 10
1143.203940380267
 20
-1527.326699685833
 30
0.0
 11
1141.641440380267
 21
-1527.135293435833
 31
0.0
  0
LINE
  5
253
  8
FAB_4$CUT_ALL
 10
1141.641440380267
 20
-1527.135293435833
 30
0.0
 11
1140.078940380267
 21
-1526.998574685833
 31
0.0
  0
LINE
  5
254
  8
FAB_4$CUT_ALL
 10
1140.078940380267
 20
-1526.998574685833
 30
0.0
 11
1138.516440380267
 21
-1526.916543435833
 31
0.0
  0
LINE
  5
255
  8
FAB_4$CUT_ALL
 10
1138.516440380267
 20
-1526.916543435833
 30
0.0
 11
1137.735190380267
 21
-1526.896035623333
 31
0.0
  0
LINE
  5
256
  8
FAB_4$CUT_ALL
 10
1137.735190380267
 20
-1526.896035623333
 30
0.0
 11
1136.953940380267
 21
-1526.889199685833
 31
0.0
  0
LINE
  5
257
  8
FAB_4$CUT_ALL
 10
1136.953940380267
 20
-1526.889199685833
 30
0.0
 11
1136.172690380267
 21
-1526.896035623333
 31
0.0
  0
LINE
  5
258
  8
FAB_4$CUT_ALL
 10
1136.172690380267
 20
-1526.896035623333
 30
0.0
 11
1135.391440380267
 21
-1526.916543435833
 31
0.0
  0
LINE
  5
259
  8
FAB_4$CUT_ALL
 10
1135.391440380267
 20
-1526.916543435833
 30
0.0
 11
1133.828940380267
 21
-1526.998574685833
 31
0.0
  0
LINE
  5
25A
  8
FAB_4$CUT_ALL
 10
1133.828940380267
 20
-1526.998574685833
 30
0.0
 11
1132.266440380267
 21
-1527.135293435833
 31
0.0
  0
LINE
  5
25B
  8
FAB_4$CUT_ALL
 10
1132.266440380267
 20
-1527.135293435833
 30
0.0
 11
1130.703940380267
 21
-1527.326699685833
 31
0.0
  0
LINE
  5
25C
  8
FAB_4$CUT_ALL
 10
1130.703940380267
 20
-1527.326699685833
 30
0.0
 11
1129.141440380267
 21
-1527.572793435833
 31
0.0
  0
LINE
  5
25D
  8
FAB_4$CUT_ALL
 10
1129.141440380267
 20
-1527.572793435833
 30
0.0
 11
1127.578940380267
 21
-1527.873574685833
 31
0.0
  0
LINE
  5
25E
  8
FAB_4$CUT_ALL
 10
1127.578940380267
 20
-1527.873574685833
 30
0.0
 11
1126.016440380267
 21
-1528.229043435833
 31
0.0
  0
LINE
  5
25F
  8
FAB_4$CUT_ALL
 10
1126.016440380267
 20
-1528.229043435833
 30
0.0
 11
1124.453940380267
 21
-1528.639199685833
 31
0.0
  0
LINE
  5
260
  8
FAB_4$CUT_ALL
 10
1124.453940380267
 20
-1528.639199685833
 30
0.0
 11
1122.891440380267
 21
-1529.104043435833
 31
0.0
  0
LINE
  5
261
  8
FAB_4$CUT_ALL
 10
1122.891440380267
 20
-1529.104043435833
 30
0.0
 11
1121.328940380267
 21
-1529.623574685833
 31
0.0
  0
LINE
  5
262
  8
FAB_4$CUT_ALL
 10
1121.328940380267
 20
-1529.623574685833
 30
0.0
 11
1119.766440380267
 21
-1530.197793435833
 31
0.0
  0
LINE
  5
263
  8
FAB_4$CUT_ALL
 10
1119.766440380267
 20
-1530.197793435833
 30
0.0
 11
1118.203940380267
 21
-1530.826699685833
 31
0.0
  0
LINE
  5
264
  8
FAB_4$CUT_ALL
 10
1118.203940380267
 20
-1530.826699685833
 30
0.0
 11
1116.641440380267
 21
-1531.510293435833
 31
0.0
  0
LINE
  5
265
  8
FAB_4$CUT_ALL
 10
1116.641440380267
 20
-1531.510293435833
 30
0.0
 11
1115.078940380267
 21
-1532.248574685833
 31
0.0
  0
LINE
  5
266
  8
FAB_4$CUT_ALL
 10
1115.078940380267
 20
-1532.248574685833
 30
0.0
 11
1113.516440380267
 21
-1533.041543435833
 31
0.0
  0
LINE
  5
267
  8
FAB_4$CUT_ALL
 10
1113.516440380267
 20
-1533.041543435833
 30
0.0
 11
1111.953940380267
 21
-1533.889199685833
 31
0.0
  0
LINE
  5
268
  8
FAB_4$CUT_ALL
 10
1111.953940380267
 20
-1533.889199685833
 30
0.0
 11
1111.953940380267
 21
-1536.889199685833
 31
0.0
  0
LINE
  5
269
  8
FAB_4$CUT_ALL
 10
1111.953940380267
 20
-1536.889199685833
 30
0.0
 11
1058.882987526953
 21
-1536.889199685833
 31
0.0
  0
LINE
  5
26A
  8
FAB_4$CUT_ALL
 10
1058.882987526953
 20
-1536.889199685833
 30
0.0
 11
1058.882987526953
 21
-1533.889199685833
 31
0.0
  0
LINE
  5
26B
  8
FAB_4$CUT_ALL
 10
1058.882987526953
 20
-1533.889199685833
 30
0.0
 11
821.0786434049835
 21
-1533.889199685831
 31
0.0
  0
LINE
  5
26C
  8
FAB_4$CUT_ALL
 10
821.0786434049835
 20
-1533.889199685831
 30
0.0
 11
821.078643404983
 21
-1593.889199685831
 31
0.0
  0
LINE
  5
26D
  8
FAB_4$CUT_ALL
 10
821.078643404983
 20
-1593.889199685831
 30
0.0
 11
1208.190993840759
 21
-1593.889199685834
 31
0.0
  0
LINE
  5
26E
  8
FAB_4$CUT_ALL
 10
1208.190993840759
 20
-1593.889199685834
 30
0.0
 11
1208.190993840759
 21
-1536.889199685834
 31
0.0
  0
LINE
  5
26F
  8
FAB_4$CUT_ALL
 10
1208.190993840759
 20
-1536.889199685834
 30
0.0
 11
1161.953940380267
 21
-1536.889199685833
 31
0.0
  0
LINE
  5
270
  8
FAB_4$CUT_ALL
 10
142.1932102037863
 20
-1502.985644111249
 30
0.0
 11
139.1932102037865
 21
-1502.985644111249
 31
0.0
  0
LINE
  5
271
  8
FAB_4$CUT_ALL
 10
139.1932102037865
 20
-1502.985644111249
 30
0.0
 11
139.1932102037868
 21
-1378.485778074067
 31
0.0
  0
LINE
  5
272
  8
FAB_4$CUT_ALL
 10
139.1932102037868
 20
-1378.485778074067
 30
0.0
 11
121.6932102037868
 21
-1378.485778074067
 31
0.0
  0
LINE
  5
273
  8
FAB_4$CUT_ALL
 10
121.6932102037868
 20
-1378.485778074067
 30
0.0
 11
121.6932102037868
 21
-1368.485778074067
 31
0.0
  0
LINE
  5
274
  8
FAB_4$CUT_ALL
 10
121.6932102037868
 20
-1368.485778074067
 30
0.0
 11
109.1932102037868
 21
-1368.485778074067
 31
0.0
  0
LINE
  5
275
  8
FAB_4$CUT_ALL
 10
109.1932102037868
 20
-1368.485778074067
 30
0.0
 11
96.69321020378678
 21
-1368.485778074067
 31
0.0
  0
LINE
  5
276
  8
FAB_4$CUT_ALL
 10
96.69321020378678
 20
-1368.485778074067
 30
0.0
 11
96.69321020378678
 21
-1378.485778074067
 31
0.0
  0
LINE
  5
277
  8
FAB_4$CUT_ALL
 10
96.69321020378678
 20
-1378.485778074067
 30
0.0
 11
79.19321020378678
 21
-1378.485778074067
 31
0.0
  0
LINE
  5
278
  8
FAB_4$CUT_ALL
 10
79.19321020378678
 20
-1378.485778074067
 30
0.0
 11
79.19321020378655
 21
-1677.485510148432
 31
0.0
  0
LINE
  5
279
  8
FAB_4$CUT_ALL
 10
79.19321020378655
 20
-1677.485510148432
 30
0.0
 11
96.69321020378723
 21
-1677.485510148432
 31
0.0
  0
LINE
  5
27A
  8
FAB_4$CUT_ALL
 10
96.69321020378723
 20
-1677.485510148432
 30
0.0
 11
96.69321020378723
 21
-1687.485510148432
 31
0.0
  0
LINE
  5
27B
  8
FAB_4$CUT_ALL
 10
96.69321020378723
 20
-1687.485510148432
 30
0.0
 11
109.1932102037872
 21
-1687.485510148432
 31
0.0
  0
LINE
  5
27C
  8
FAB_4$CUT_ALL
 10
109.1932102037872
 20
-1687.485510148432
 30
0.0
 11
121.6932102037872
 21
-1687.485510148432
 31
0.0
  0
LINE
  5
27D
  8
FAB_4$CUT_ALL
 10
121.6932102037872
 20
-1687.485510148432
 30
0.0
 11
121.6932102037872
 21
-1677.485510148432
 31
0.0
  0
LINE
  5
27E
  8
FAB_4$CUT_ALL
 10
121.6932102037872
 20
-1677.485510148432
 30
0.0
 11
139.1932102037865
 21
-1677.485510148432
 31
0.0
  0
LINE
  5
27F
  8
FAB_4$CUT_ALL
 10
139.1932102037865
 20
-1677.485510148432
 30
0.0
 11
139.1932102037865
 21
-1552.985644111249
 31
0.0
  0
LINE
  5
280
  8
FAB_4$CUT_ALL
 10
139.1932102037865
 20
-1552.985644111249
 30
0.0
 11
142.1932102037863
 21
-1552.985644111249
 31
0.0
  0
LINE
  5
281
  8
FAB_4$CUT_ALL
 10
142.1932102037865
 20
-1552.985644111249
 30
0.0
 11
143.0408664537865
 21
-1551.423144111249
 31
0.0
  0
LINE
  5
282
  8
FAB_4$CUT_ALL
 10
143.0408664537865
 20
-1551.423144111249
 30
0.0
 11
143.8338352037865
 21
-1549.860644111249
 31
0.0
  0
LINE
  5
283
  8
FAB_4$CUT_ALL
 10
143.8338352037865
 20
-1549.860644111249
 30
0.0
 11
144.5721164537864
 21
-1548.298144111249
 31
0.0
  0
LINE
  5
284
  8
FAB_4$CUT_ALL
 10
144.5721164537864
 20
-1548.298144111249
 30
0.0
 11
145.2557102037864
 21
-1546.735644111249
 31
0.0
  0
LINE
  5
285
  8
FAB_4$CUT_ALL
 10
145.2557102037864
 20
-1546.735644111249
 30
0.0
 11
145.8846164537864
 21
-1545.173144111249
 31
0.0
  0
LINE
  5
286
  8
FAB_4$CUT_ALL
 10
145.8846164537864
 20
-1545.173144111249
 30
0.0
 11
146.4588352037864
 21
-1543.610644111249
 31
0.0
  0
LINE
  5
287
  8
FAB_4$CUT_ALL
 10
146.4588352037864
 20
-1543.610644111249
 30
0.0
 11
146.9783664537864
 21
-1542.048144111249
 31
0.0
  0
LINE
  5
288
  8
FAB_4$CUT_ALL
 10
146.9783664537864
 20
-1542.048144111249
 30
0.0
 11
147.4432102037864
 21
-1540.485644111249
 31
0.0
  0
LINE
  5
289
  8
FAB_4$CUT_ALL
 10
147.4432102037864
 20
-1540.485644111249
 30
0.0
 11
147.8533664537863
 21
-1538.923144111249
 31
0.0
  0
LINE
  5
28A
  8
FAB_4$CUT_ALL
 10
147.8533664537863
 20
-1538.923144111249
 30
0.0
 11
148.2088352037863
 21
-1537.360644111249
 31
0.0
  0
LINE
  5
28B
  8
FAB_4$CUT_ALL
 10
148.2088352037863
 20
-1537.360644111249
 30
0.0
 11
148.5096164537863
 21
-1535.798144111249
 31
0.0
  0
LINE
  5
28C
  8
FAB_4$CUT_ALL
 10
148.5096164537863
 20
-1535.798144111249
 30
0.0
 11
148.7557102037863
 21
-1534.235644111249
 31
0.0
  0
LINE
  5
28D
  8
FAB_4$CUT_ALL
 10
148.7557102037863
 20
-1534.235644111249
 30
0.0
 11
148.9471164537862
 21
-1532.673144111249
 31
0.0
  0
LINE
  5
28E
  8
FAB_4$CUT_ALL
 10
148.9471164537862
 20
-1532.673144111249
 30
0.0
 11
149.0838352037862
 21
-1531.110644111249
 31
0.0
  0
LINE
  5
28F
  8
FAB_4$CUT_ALL
 10
149.0838352037862
 20
-1531.110644111249
 30
0.0
 11
149.1658664537862
 21
-1529.548144111249
 31
0.0
  0
LINE
  5
290
  8
FAB_4$CUT_ALL
 10
149.1658664537862
 20
-1529.548144111249
 30
0.0
 11
149.1863742662862
 21
-1528.766894111249
 31
0.0
  0
LINE
  5
291
  8
FAB_4$CUT_ALL
 10
149.1863742662862
 20
-1528.766894111249
 30
0.0
 11
149.1932102037862
 21
-1527.985644111249
 31
0.0
  0
LINE
  5
292
  8
FAB_4$CUT_ALL
 10
149.1932102037862
 20
-1527.985644111249
 30
0.0
 11
149.1863742662862
 21
-1527.204394111249
 31
0.0
  0
LINE
  5
293
  8
FAB_4$CUT_ALL
 10
149.1863742662862
 20
-1527.204394111249
 30
0.0
 11
149.1658664537862
 21
-1526.423144111249
 31
0.0
  0
LINE
  5
294
  8
FAB_4$CUT_ALL
 10
149.1658664537862
 20
-1526.423144111249
 30
0.0
 11
149.0838352037862
 21
-1524.860644111249
 31
0.0
  0
LINE
  5
295
  8
FAB_4$CUT_ALL
 10
149.0838352037862
 20
-1524.860644111249
 30
0.0
 11
148.9471164537862
 21
-1523.298144111249
 31
0.0
  0
LINE
  5
296
  8
FAB_4$CUT_ALL
 10
148.9471164537862
 20
-1523.298144111249
 30
0.0
 11
148.7557102037862
 21
-1521.735644111249
 31
0.0
  0
LINE
  5
297
  8
FAB_4$CUT_ALL
 10
148.7557102037862
 20
-1521.735644111249
 30
0.0
 11
148.5096164537862
 21
-1520.173144111249
 31
0.0
  0
LINE
  5
298
  8
FAB_4$CUT_ALL
 10
148.5096164537862
 20
-1520.173144111249
 30
0.0
 11
148.2088352037862
 21
-1518.610644111249
 31
0.0
  0
LINE
  5
299
  8
FAB_4$CUT_ALL
 10
148.2088352037862
 20
-1518.610644111249
 30
0.0
 11
147.8533664537862
 21
-1517.048144111249
 31
0.0
  0
LINE
  5
29A
  8
FAB_4$CUT_ALL
 10
147.8533664537862
 20
-1517.048144111249
 30
0.0
 11
147.4432102037862
 21
-1515.485644111249
 31
0.0
  0
LINE
  5
29B
  8
FAB_4$CUT_ALL
 10
147.4432102037862
 20
-1515.485644111249
 30
0.0
 11
146.9783664537862
 21
-1513.923144111249
 31
0.0
  0
LINE
  5
29C
  8
FAB_4$CUT_ALL
 10
146.9783664537862
 20
-1513.923144111249
 30
0.0
 11
146.4588352037862
 21
-1512.360644111249
 31
0.0
  0
LINE
  5
29D
  8
FAB_4$CUT_ALL
 10
146.4588352037862
 20
-1512.360644111249
 30
0.0
 11
145.8846164537862
 21
-1510.798144111249
 31
0.0
  0
LINE
  5
29E
  8
FAB_4$CUT_ALL
 10
145.8846164537862
 20
-1510.798144111249
 30
0.0
 11
145.2557102037862
 21
-1509.235644111249
 31
0.0
  0
LINE
  5
29F
  8
FAB_4$CUT_ALL
 10
145.2557102037862
 20
-1509.235644111249
 30
0.0
 11
144.5721164537862
 21
-1507.673144111249
 31
0.0
  0
LINE
  5
2A0
  8
FAB_4$CUT_ALL
 10
144.5721164537862
 20
-1507.673144111249
 30
0.0
 11
143.8338352037863
 21
-1506.110644111249
 31
0.0
  0
LINE
  5
2A1
  8
FAB_4$CUT_ALL
 10
143.8338352037863
 20
-1506.110644111249
 30
0.0
 11
143.0408664537863
 21
-1504.548144111249
 31
0.0
  0
LINE
  5
2A2
  8
FAB_4$CUT_ALL
 10
143.0408664537863
 20
-1504.548144111249
 30
0.0
 11
142.1932102037863
 21
-1502.985644111249
 31
0.0
  0
LINE
  5
2A3
  8
FAB_4$CUT_ALL
 10
169.3894087645854
 20
-1550.826562548809
 30
0.0
 11
174.3893242871067
 21
-1550.826562548809
 31
0.0
  0
LINE
  5
2A4
  8
FAB_4$CUT_ALL
 10
174.3893242871067
 20
-1550.826562548809
 30
0.0
 11
174.3893242871067
 21
-1675.32656254881
 31
0.0
  0
LINE
  5
2A5
  8
FAB_4$CUT_ALL
 10
174.3893242871067
 20
-1675.32656254881
 30
0.0
 11
212.6263777475987
 21
-1675.32656254881
 31
0.0
  0
LINE
  5
2A6
  8
FAB_4$CUT_ALL
 10
212.6263777475987
 20
-1675.32656254881
 30
0.0
 11
212.6263777475987
 21
-1680.326478071331
 31
0.0
  0
ARC
  5
2A7
  8
FAB_4$CUT_ALL
 10
217.6263777475987
 20
-1680.326478071331
 30
0.0
 40
5.0
 50
180.0
 51
270.0
  0
LINE
  5
2A8
  8
FAB_4$CUT_ALL
 10
217.6263777475987
 20
-1685.326478071331
 30
0.0
 11
257.6263777475985
 21
-1685.326478071331
 31
0.0
  0
ARC
  5
2A9
  8
FAB_4$CUT_ALL
 10
257.6263777475987
 20
-1680.326478071331
 30
0.0
 40
5.0
 50
269.9999999999981
 51
0.0
  0
LINE
  5
2AA
  8
FAB_4$CUT_ALL
 10
262.6263777475987
 20
-1680.326478071331
 30
0.0
 11
262.6263777475987
 21
-1675.32656254881
 31
0.0
  0
LINE
  5
2AB
  8
FAB_4$CUT_ALL
 10
262.6263777475987
 20
-1675.32656254881
 30
0.0
 11
339.1004846685827
 21
-1675.32656254881
 31
0.0
  0
LINE
  5
2AC
  8
FAB_4$CUT_ALL
 10
339.1004846685827
 20
-1675.32656254881
 30
0.0
 11
339.1004846685827
 21
-1680.32647807133
 31
0.0
  0
ARC
  5
2AD
  8
FAB_4$CUT_ALL
 10
344.1004846685827
 20
-1680.32647807133
 30
0.0
 40
5.0
 50
180.0
 51
270.0000000000019
  0
LINE
  5
2AE
  8
FAB_4$CUT_ALL
 10
344.1004846685829
 20
-1685.32647807133
 30
0.0
 11
384.1004846685827
 21
-1685.326478071331
 31
0.0
  0
ARC
  5
2AF
  8
FAB_4$CUT_ALL
 10
384.1004846685827
 20
-1680.326478071331
 30
0.0
 40
5.0
 50
270.0
 51
359.9999999999974
  0
LINE
  5
2B0
  8
FAB_4$CUT_ALL
 10
389.1004846685827
 20
-1680.326478071331
 30
0.0
 11
389.1004846685827
 21
-1675.32656254881
 31
0.0
  0
LINE
  5
2B1
  8
FAB_4$CUT_ALL
 10
389.1004846685827
 20
-1675.32656254881
 30
0.0
 11
465.5745915895671
 21
-1675.32656254881
 31
0.0
  0
LINE
  5
2B2
  8
FAB_4$CUT_ALL
 10
465.5745915895671
 20
-1675.32656254881
 30
0.0
 11
465.5745915895669
 21
-1680.326478071331
 31
0.0
  0
ARC
  5
2B3
  8
FAB_4$CUT_ALL
 10
470.5745915895669
 20
-1680.326478071332
 30
0.0
 40
5.0
 50
179.9999999999948
 51
269.9999999999968
  0
LINE
  5
2B4
  8
FAB_4$CUT_ALL
 10
470.5745915895666
 20
-1685.326478071332
 30
0.0
 11
490.5745915895667
 21
-1685.326478071331
 31
0.0
  0
LINE
  5
2B5
  8
FAB_4$CUT_ALL
 10
490.5745915895667
 20
-1685.326478071331
 30
0.0
 11
510.5745915895668
 21
-1685.326478071331
 31
0.0
  0
ARC
  5
2B6
  8
FAB_4$CUT_ALL
 10
510.5745915895668
 20
-1680.326478071331
 30
0.0
 40
5.0
 50
270.0
 51
0.0000000000026055
  0
LINE
  5
2B7
  8
FAB_4$CUT_ALL
 10
515.5745915895668
 20
-1680.326478071331
 30
0.0
 11
515.5745915895668
 21
-1675.32656254881
 31
0.0
  0
LINE
  5
2B8
  8
FAB_4$CUT_ALL
 10
515.5745915895668
 20
-1675.32656254881
 30
0.0
 11
553.811645050059
 21
-1675.32656254881
 31
0.0
  0
LINE
  5
2B9
  8
FAB_4$CUT_ALL
 10
553.811645050059
 20
-1675.32656254881
 30
0.0
 11
553.8116450500593
 21
-1376.326830474445
 31
0.0
  0
LINE
  5
2BA
  8
FAB_4$CUT_ALL
 10
553.8116450500593
 20
-1376.326830474445
 30
0.0
 11
515.574591589567
 21
-1376.326696511627
 31
0.0
  0
LINE
  5
2BB
  8
FAB_4$CUT_ALL
 10
515.574591589567
 20
-1376.326696511627
 30
0.0
 11
515.574591589567
 21
-1371.326647026288
 31
0.0
  0
ARC
  5
2BC
  8
FAB_4$CUT_ALL
 10
510.574591589567
 20
-1371.326647026288
 30
0.0
 40
5.0
 50
0.0
 51
90.00000000000522
  0
LINE
  5
2BD
  8
FAB_4$CUT_ALL
 10
510.5745915895666
 20
-1366.326647026288
 30
0.0
 11
470.5745915895669
 21
-1366.326647026288
 31
0.0
  0
ARC
  5
2BE
  8
FAB_4$CUT_ALL
 10
470.5745915895669
 20
-1371.326647026288
 30
0.0
 40
5.0
 50
90.00000000000064
 51
180.0
  0
LINE
  5
2BF
  8
FAB_4$CUT_ALL
 10
465.5745915895669
 20
-1371.326647026288
 30
0.0
 11
465.5745915895669
 21
-1376.326696511627
 31
0.0
  0
LINE
  5
2C0
  8
FAB_4$CUT_ALL
 10
465.5745915895669
 20
-1376.326696511627
 30
0.0
 11
389.1004846685829
 21
-1376.326696511627
 31
0.0
  0
LINE
  5
2C1
  8
FAB_4$CUT_ALL
 10
389.1004846685829
 20
-1376.326696511627
 30
0.0
 11
389.1004846685829
 21
-1371.326647026287
 31
0.0
  0
ARC
  5
2C2
  8
FAB_4$CUT_ALL
 10
384.1004846685829
 20
-1371.326647026287
 30
0.0
 40
5.0
 50
0.0
 51
90.00000000000456
  0
LINE
  5
2C3
  8
FAB_4$CUT_ALL
 10
384.1004846685825
 20
-1366.326647026287
 30
0.0
 11
344.1004846685836
 21
-1366.326647026288
 31
0.0
  0
ARC
  5
2C4
  8
FAB_4$CUT_ALL
 10
344.1004846685829
 20
-1371.326647026288
 30
0.0
 40
5.0
 50
89.99999999999218
 51
179.999999999987
  0
LINE
  5
2C5
  8
FAB_4$CUT_ALL
 10
339.1004846685829
 20
-1371.326647026287
 30
0.0
 11
339.1004846685829
 21
-1376.326696511627
 31
0.0
  0
LINE
  5
2C6
  8
FAB_4$CUT_ALL
 10
339.1004846685829
 20
-1376.326696511627
 30
0.0
 11
262.6263777475989
 21
-1376.326696511627
 31
0.0
  0
LINE
  5
2C7
  8
FAB_4$CUT_ALL
 10
262.6263777475989
 20
-1376.326696511627
 30
0.0
 11
262.6263777475989
 21
-1371.326647026291
 31
0.0
  0
ARC
  5
2C8
  8
FAB_4$CUT_ALL
 10
257.6263777475989
 20
-1371.326647026286
 30
0.0
 40
5.0
 50
359.9999999999505
 51
90.0
  0
LINE
  5
2C9
  8
FAB_4$CUT_ALL
 10
257.6263777475989
 20
-1366.326647026286
 30
0.0
 11
217.6263777475994
 21
-1366.326647026288
 31
0.0
  0
ARC
  5
2CA
  8
FAB_4$CUT_ALL
 10
217.6263777475989
 20
-1371.326647026288
 30
0.0
 40
5.0
 50
89.99999999999446
 51
179.9999999999974
  0
LINE
  5
2CB
  8
FAB_4$CUT_ALL
 10
212.6263777475989
 20
-1371.326647026287
 30
0.0
 11
212.6263777475989
 21
-1376.326696511627
 31
0.0
  0
LINE
  5
2CC
  8
FAB_4$CUT_ALL
 10
212.6263777475989
 20
-1376.326696511627
 30
0.0
 11
174.3893242871069
 21
-1376.326830474445
 31
0.0
  0
LINE
  5
2CD
  8
FAB_4$CUT_ALL
 10
174.3893242871069
 20
-1376.326830474445
 30
0.0
 11
174.3893242871069
 21
-1500.826562548809
 31
0.0
  0
LINE
  5
2CE
  8
FAB_4$CUT_ALL
 10
174.3893242871069
 20
-1500.826562548809
 30
0.0
 11
169.3894087645805
 21
-1500.826562548809
 31
0.0
  0
ARC
  5
2CF
  8
FAB_4$CUT_ALL
 10
169.389408764585
 20
-1505.826562548809
 30
0.0
 40
5.0
 50
90.00000000005114
 51
179.9999999999974
  0
LINE
  5
2D0
  8
FAB_4$CUT_ALL
 10
164.389408764585
 20
-1505.826562548809
 30
0.0
 11
164.3894087645857
 21
-1545.826562548809
 31
0.0
  0
ARC
  5
2D1
  8
FAB_4$CUT_ALL
 10
169.3894087645857
 20
-1545.826562548809
 30
0.0
 40
5.0
 50
180.0
 51
269.9999999999968
  0
LINE
  5
2D2
  8
FAB_4$CUT_ALL
 10
84.24321020378655
 20
-1552.935644111249
 30
0.0
 11
84.24321020378655
 21
-1503.035644111249
 31
0.0
  0
LINE
  5
2D3
  8
FAB_4$CUT_ALL
 10
84.24321020378655
 20
-1503.035644111249
 30
0.0
 11
87.14321020378655
 21
-1503.035644111249
 31
0.0
  0
LINE
  5
2D4
  8
FAB_4$CUT_ALL
 10
87.14321020378655
 20
-1503.035644111249
 30
0.0
 11
87.14321020378655
 21
-1552.935644111249
 31
0.0
  0
LINE
  5
2D5
  8
FAB_4$CUT_ALL
 10
87.14321020378655
 20
-1552.935644111249
 30
0.0
 11
84.24321020378655
 21
-1552.935644111249
 31
0.0
  0
LINE
  5
2D6
  8
FAB_4$CUT_ALL
 10
858.0372968448341
 20
-1447.0067208378
 30
0.0
 11
858.0372968448341
 21
-1422.0567208378
 31
0.0
  0
LINE
  5
2D7
  8
FAB_4$CUT_ALL
 10
858.0372968448341
 20
-1422.0567208378
 30
0.0
 11
860.9372968448342
 21
-1422.0567208378
 31
0.0
  0
LINE
  5
2D8
  8
FAB_4$CUT_ALL
 10
860.9372968448342
 20
-1422.0567208378
 30
0.0
 11
860.9372968448342
 21
-1471.9567208378
 31
0.0
  0
LINE
  5
2D9
  8
FAB_4$CUT_ALL
 10
860.9372968448342
 20
-1471.9567208378
 30
0.0
 11
858.0372968448341
 21
-1471.9567208378
 31
0.0
  0
LINE
  5
2DA
  8
FAB_4$CUT_ALL
 10
858.0372968448341
 20
-1471.9567208378
 30
0.0
 11
858.0372968448341
 21
-1447.0067208378
 31
0.0
  0
LINE
  5
2DB
  8
FAB_4$CUT_ALL
 10
1162.937028919199
 20
-1447.006720837799
 30
0.0
 11
1162.937028919199
 21
-1471.956720837799
 31
0.0
  0
LINE
  5
2DC
  8
FAB_4$CUT_ALL
 10
1162.937028919199
 20
-1471.956720837799
 30
0.0
 11
1160.037028919199
 21
-1471.956720837799
 31
0.0
  0
LINE
  5
2DD
  8
FAB_4$CUT_ALL
 10
1160.037028919199
 20
-1471.956720837799
 30
0.0
 11
1160.037028919199
 21
-1422.056720837799
 31
0.0
  0
LINE
  5
2DE
  8
FAB_4$CUT_ALL
 10
1160.037028919199
 20
-1422.056720837799
 30
0.0
 11
1162.937028919199
 21
-1422.056720837799
 31
0.0
  0
LINE
  5
2DF
  8
FAB_4$CUT_ALL
 10
1162.937028919199
 20
-1422.056720837799
 30
0.0
 11
1162.937028919199
 21
-1447.006720837799
 31
0.0
  0
LINE
  5
2E0
  8
FAB_4$CUT_ALL
 10
1010.487162882017
 20
-1513.193774298292
 30
0.0
 11
985.5371628820169
 21
-1513.193774298292
 31
0.0
  0
LINE
  5
2E1
  8
FAB_4$CUT_ALL
 10
985.5371628820169
 20
-1513.193774298292
 30
0.0
 11
985.5371628820169
 21
-1510.293774298292
 31
0.0
  0
LINE
  5
2E2
  8
FAB_4$CUT_ALL
 10
985.5371628820169
 20
-1510.293774298292
 30
0.0
 11
1035.437162882017
 21
-1510.293774298292
 31
0.0
  0
LINE
  5
2E3
  8
FAB_4$CUT_ALL
 10
1035.437162882017
 20
-1510.293774298292
 30
0.0
 11
1035.437162882017
 21
-1513.193774298292
 31
0.0
  0
LINE
  5
2E4
  8
FAB_4$CUT_ALL
 10
1035.437162882017
 20
-1513.193774298292
 30
0.0
 11
1010.487162882017
 21
-1513.193774298292
 31
0.0
  0
LINE
  5
2E5
  8
FAB_4$CUT_ALL
 10
908.9557265382987
 20
-1588.839199685832
 30
0.0
 11
859.0557265382986
 21
-1588.839199685832
 31
0.0
  0
LINE
  5
2E6
  8
FAB_4$CUT_ALL
 10
859.0557265382986
 20
-1588.839199685832
 30
0.0
 11
859.0557265382986
 21
-1585.939199685832
 31
0.0
  0
LINE
  5
2E7
  8
FAB_4$CUT_ALL
 10
859.0557265382986
 20
-1585.939199685832
 30
0.0
 11
908.9557265382987
 21
-1585.939199685832
 31
0.0
  0
LINE
  5
2E8
  8
FAB_4$CUT_ALL
 10
908.9557265382987
 20
-1585.939199685832
 30
0.0
 11
908.9557265382987
 21
-1588.839199685832
 31
0.0
  0
LINE
  5
2E9
  8
FAB_4$CUT_ALL
 10
908.9557265382989
 20
-1551.108638916868
 30
0.0
 11
859.0557265382988
 21
-1551.108638916868
 31
0.0
  0
LINE
  5
2EA
  8
FAB_4$CUT_ALL
 10
859.0557265382988
 20
-1551.108638916868
 30
0.0
 11
859.0557265382988
 21
-1548.208638916868
 31
0.0
  0
LINE
  5
2EB
  8
FAB_4$CUT_ALL
 10
859.0557265382988
 20
-1548.208638916868
 30
0.0
 11
908.9557265382989
 21
-1548.208638916868
 31
0.0
  0
LINE
  5
2EC
  8
FAB_4$CUT_ALL
 10
908.9557265382989
 20
-1548.208638916868
 30
0.0
 11
908.9557265382989
 21
-1551.108638916868
 31
0.0
  0
LINE
  5
2ED
  8
FAB_4$CUT_ALL
 10
1035.429833459283
 20
-1588.839199685833
 30
0.0
 11
985.5298334592826
 21
-1588.839199685833
 31
0.0
  0
LINE
  5
2EE
  8
FAB_4$CUT_ALL
 10
985.5298334592826
 20
-1588.839199685833
 30
0.0
 11
985.5298334592826
 21
-1585.939199685833
 31
0.0
  0
LINE
  5
2EF
  8
FAB_4$CUT_ALL
 10
985.5298334592826
 20
-1585.939199685833
 30
0.0
 11
1035.429833459283
 21
-1585.939199685833
 31
0.0
  0
LINE
  5
2F0
  8
FAB_4$CUT_ALL
 10
1035.429833459283
 20
-1585.939199685833
 30
0.0
 11
1035.429833459283
 21
-1588.839199685833
 31
0.0
  0
LINE
  5
2F1
  8
FAB_4$CUT_ALL
 10
1035.429833459283
 20
-1551.108638916869
 30
0.0
 11
985.5298334592828
 21
-1551.108638916869
 31
0.0
  0
LINE
  5
2F2
  8
FAB_4$CUT_ALL
 10
985.5298334592828
 20
-1551.108638916869
 30
0.0
 11
985.5298334592828
 21
-1548.208638916869
 31
0.0
  0
LINE
  5
2F3
  8
FAB_4$CUT_ALL
 10
985.5298334592828
 20
-1548.208638916869
 30
0.0
 11
1035.429833459283
 21
-1548.208638916869
 31
0.0
  0
LINE
  5
2F4
  8
FAB_4$CUT_ALL
 10
1035.429833459283
 20
-1548.208638916869
 30
0.0
 11
1035.429833459283
 21
-1551.108638916869
 31
0.0
  0
LINE
  5
2F5
  8
FAB_4$CUT_ALL
 10
1161.903940380267
 20
-1588.839199685834
 30
0.0
 11
1112.003940380267
 21
-1588.839199685834
 31
0.0
  0
LINE
  5
2F6
  8
FAB_4$CUT_ALL
 10
1112.003940380267
 20
-1588.839199685834
 30
0.0
 11
1112.003940380267
 21
-1585.939199685834
 31
0.0
  0
LINE
  5
2F7
  8
FAB_4$CUT_ALL
 10
1112.003940380267
 20
-1585.939199685834
 30
0.0
 11
1161.903940380267
 21
-1585.939199685834
 31
0.0
  0
LINE
  5
2F8
  8
FAB_4$CUT_ALL
 10
1161.903940380267
 20
-1585.939199685834
 30
0.0
 11
1161.903940380267
 21
-1588.839199685834
 31
0.0
  0
LINE
  5
2F9
  8
FAB_4$CUT_ALL
 10
1200.190993840759
 20
-1565.389199685834
 30
0.0
 11
1200.190993840759
 21
-1552.889199685834
 31
0.0
  0
LINE
  5
2FA
  8
FAB_4$CUT_ALL
 10
1200.190993840759
 20
-1552.889199685834
 30
0.0
 11
1203.190993840759
 21
-1552.889199685834
 31
0.0
  0
LINE
  5
2FB
  8
FAB_4$CUT_ALL
 10
1203.190993840759
 20
-1552.889199685834
 30
0.0
 11
1203.190993840759
 21
-1565.389199685834
 31
0.0
  0
LINE
  5
2FC
  8
FAB_4$CUT_ALL
 10
1203.190993840759
 20
-1565.389199685834
 30
0.0
 11
1203.190993840759
 21
-1577.889199685834
 31
0.0
  0
LINE
  5
2FD
  8
FAB_4$CUT_ALL
 10
1203.190993840759
 20
-1577.889199685834
 30
0.0
 11
1200.190993840759
 21
-1577.889199685834
 31
0.0
  0
LINE
  5
2FE
  8
FAB_4$CUT_ALL
 10
1200.190993840759
 20
-1577.889199685834
 30
0.0
 11
1200.190993840759
 21
-1565.389199685834
 31
0.0
  0
LINE
  5
2FF
  8
FAB_4$CUT_ALL
 10
1200.240993840759
 20
-1565.389199685834
 30
0.0
 11
1200.240993840759
 21
-1552.939199685834
 31
0.0
  0
LINE
  5
300
  8
FAB_4$CUT_ALL
 10
1200.240993840759
 20
-1552.939199685834
 30
0.0
 11
1203.140993840759
 21
-1552.939199685834
 31
0.0
  0
LINE
  5
301
  8
FAB_4$CUT_ALL
 10
1203.140993840759
 20
-1552.939199685834
 30
0.0
 11
1203.140993840759
 21
-1577.839199685834
 31
0.0
  0
LINE
  5
302
  8
FAB_4$CUT_ALL
 10
1203.140993840759
 20
-1577.839199685834
 30
0.0
 11
1200.240993840759
 21
-1577.839199685834
 31
0.0
  0
LINE
  5
303
  8
FAB_4$CUT_ALL
 10
1200.240993840759
 20
-1577.839199685834
 30
0.0
 11
1200.240993840759
 21
-1565.389199685834
 31
0.0
  0
ARC
  5
304
  8
FAB_4$CUT_ALL
 10
1159.987028919199
 20
-1510.243774298291
 30
0.0
 40
10.00000000000023
 50
270.0000000000013
 51
359.999999999746
  0
LINE
  5
305
  8
FAB_4$CUT_ALL
 10
1169.987028919199
 20
-1432.99603408485
 30
0.0
 11
1169.987028919199
 21
-1510.243774298335
 31
0.0
  0
LINE
  5
306
  8
FAB_4$CUT_ALL
 10
1159.987028919199
 20
-1520.243774298292
 30
0.0
 11
1010.487162882017
 21
-1520.243774298292
 31
0.0
  0
ARC
  5
307
  8
FAB_4$CUT_ALL
 10
860.9872968448341
 20
-1510.243774298286
 30
0.0
 40
9.999999999999204
 50
179.9999999999974
 51
270.0000000000072
  0
LINE
  5
308
  8
FAB_4$CUT_ALL
 10
1010.487162882017
 20
-1520.243774298292
 30
0.0
 11
860.9872968448353
 21
-1520.243774298292
 31
0.0
  0
LINE
  5
309
  8
FAB_4$CUT_ALL
 10
850.9872968448346
 20
-1510.243774298286
 30
0.0
 11
850.987296844834
 21
-1439.004367138869
 31
0.0
  0
ARC
  5
30A
  8
FAB_4$CUT_ALL
 10
830.9872968448327
 20
-1439.00436713887
 30
0.0
 40
20.00000000000125
 50
0.0000000000019541
 51
74.48514468968756
  0
LINE
  5
30B
  8
FAB_4$CUT_ALL
 10
1169.98676099561
 20
-1383.769667377308
 30
0.0
 11
1169.987028919199
 21
-1432.99603408485
 31
0.0
  0
LINE
  5
30C
  8
FAB_4$CUT_ALL
 10
1169.98676099561
 20
-1378.935767984485
 30
0.0
 11
1169.98676099561
 21
-1383.769667377308
 31
0.0
  0
LINE
  5
30D
  8
FAB_4$CUT_ALL
 10
1163.487028919199
 20
-1368.935767984485
 30
0.0
 11
1163.631296606832
 21
-1368.938231587549
 31
0.0
  0
LINE
  5
30E
  8
FAB_4$CUT_ALL
 10
1163.631296606832
 20
-1368.938231587549
 30
0.0
 11
1163.776788562066
 21
-1368.945709917428
 31
0.0
  0
LINE
  5
30F
  8
FAB_4$CUT_ALL
 10
1163.776788562066
 20
-1368.945709917428
 30
0.0
 11
1163.923409487312
 21
-1368.958331155261
 31
0.0
  0
LINE
  5
310
  8
FAB_4$CUT_ALL
 10
1163.923409487312
 20
-1368.958331155261
 30
0.0
 11
1164.07105869141
 21
-1368.976218898356
 31
0.0
  0
LINE
  5
311
  8
FAB_4$CUT_ALL
 10
1164.07105869141
 20
-1368.976218898356
 30
0.0
 11
1164.219630152749
 21
-1368.999491589198
 31
0.0
  0
LINE
  5
312
  8
FAB_4$CUT_ALL
 10
1164.219630152749
 20
-1368.999491589198
 30
0.0
 11
1164.369012609753
 21
-1369.028261937803
 31
0.0
  0
LINE
  5
313
  8
FAB_4$CUT_ALL
 10
1164.369012609753
 20
-1369.028261937803
 30
0.0
 11
1164.519089679831
 21
-1369.06263634074
 31
0.0
  0
LINE
  5
314
  8
FAB_4$CUT_ALL
 10
1164.519089679831
 20
-1369.06263634074
 30
0.0
 11
1164.669740007684
 21
-1369.10271430032
 31
0.0
  0
LINE
  5
315
  8
FAB_4$CUT_ALL
 10
1164.669740007684
 20
-1369.10271430032
 30
0.0
 11
1164.820837443697
 21
-1369.148587847723
 31
0.0
  0
LINE
  5
316
  8
FAB_4$CUT_ALL
 10
1164.820837443697
 20
-1369.148587847723
 30
0.0
 11
1164.972251252917
 21
-1369.200340974058
 31
0.0
  0
LINE
  5
317
  8
FAB_4$CUT_ALL
 10
1164.972251252917
 20
-1369.200340974058
 30
0.0
 11
1165.123846354883
 21
-1369.258049073467
 31
0.0
  0
LINE
  5
318
  8
FAB_4$CUT_ALL
 10
1165.123846354883
 20
-1369.258049073467
 30
0.0
 11
1165.275483594317
 21
-1369.321778402615
 31
0.0
  0
LINE
  5
319
  8
FAB_4$CUT_ALL
 10
1165.275483594317
 20
-1369.321778402615
 30
0.0
 11
1165.427020042431
 21
-1369.391585560928
 31
0.0
  0
LINE
  5
31A
  8
FAB_4$CUT_ALL
 10
1165.427020042431
 20
-1369.391585560928
 30
0.0
 11
1165.578309328279
 21
-1369.467516996069
 31
0.0
  0
LINE
  5
31B
  8
FAB_4$CUT_ALL
 10
1165.578309328279
 20
-1369.467516996069
 30
0.0
 11
1165.72920199933
 21
-1369.549608539111
 31
0.0
  0
LINE
  5
31C
  8
FAB_4$CUT_ALL
 10
1165.72920199933
 20
-1369.549608539111
 30
0.0
 11
1165.879545910095
 21
-1369.637884973861
 31
0.0
  0
LINE
  5
31D
  8
FAB_4$CUT_ALL
 10
1165.879545910095
 20
-1369.637884973861
 30
0.0
 11
1166.029186637364
 21
-1369.732359644666
 31
0.0
  0
LINE
  5
31E
  8
FAB_4$CUT_ALL
 10
1166.029186637364
 20
-1369.732359644666
 30
0.0
 11
1166.177967920252
 21
-1369.833034106918
 31
0.0
  0
LINE
  5
31F
  8
FAB_4$CUT_ALL
 10
1166.177967920252
 20
-1369.833034106918
 30
0.0
 11
1166.32573212301
 21
-1369.939897824256
 31
0.0
  0
LINE
  5
320
  8
FAB_4$CUT_ALL
 10
1166.32573212301
 20
-1369.939897824256
 30
0.0
 11
1166.472320718207
 21
-1370.052927916188
 31
0.0
  0
LINE
  5
321
  8
FAB_4$CUT_ALL
 10
1166.472320718207
 20
-1370.052927916188
 30
0.0
 11
1166.617574787634
 21
-1370.172088959574
 31
0.0
  0
LINE
  5
322
  8
FAB_4$CUT_ALL
 10
1166.617574787634
 20
-1370.172088959574
 30
0.0
 11
1166.761335538021
 21
-1370.297332847011
 31
0.0
  0
LINE
  5
323
  8
FAB_4$CUT_ALL
 10
1166.761335538021
 20
-1370.297332847011
 30
0.0
 11
1166.903444828404
 21
-1370.428598704748
 31
0.0
  0
LINE
  5
324
  8
FAB_4$CUT_ALL
 10
1166.903444828404
 20
-1370.428598704748
 30
0.0
 11
1167.043745705801
 21
-1370.565812872299
 31
0.0
  0
LINE
  5
325
  8
FAB_4$CUT_ALL
 10
1167.043745705801
 20
-1370.565812872299
 30
0.0
 11
1167.182082945629
 21
-1370.708888945397
 31
0.0
  0
LINE
  5
326
  8
FAB_4$CUT_ALL
 10
1167.182082945629
 20
-1370.708888945397
 30
0.0
 11
1167.318303593224
 21
-1370.857727883395
 31
0.0
  0
LINE
  5
327
  8
FAB_4$CUT_ALL
 10
1167.318303593224
 20
-1370.857727883395
 30
0.0
 11
1167.45225750266
 21
-1371.012218181638
 31
0.0
  0
LINE
  5
328
  8
FAB_4$CUT_ALL
 10
1167.45225750266
 20
-1371.012218181638
 30
0.0
 11
1167.583797869057
 21
-1371.172236108737
 31
0.0
  0
LINE
  5
329
  8
FAB_4$CUT_ALL
 10
1167.583797869057
 20
-1371.172236108737
 30
0.0
 11
1167.712781750533
 21
-1371.337646008074
 31
0.0
  0
LINE
  5
32A
  8
FAB_4$CUT_ALL
 10
1167.712781750533
 20
-1371.337646008074
 30
0.0
 11
1167.839070575989
 21
-1371.508300662228
 31
0.0
  0
LINE
  5
32B
  8
FAB_4$CUT_ALL
 10
1167.839070575989
 20
-1371.508300662228
 30
0.0
 11
1167.962530635016
 21
-1371.684041718441
 31
0.0
  0
LINE
  5
32C
  8
FAB_4$CUT_ALL
 10
1167.962530635016
 20
-1371.684041718441
 30
0.0
 11
1168.083033546324
 21
-1371.86470017262
 31
0.0
  0
LINE
  5
32D
  8
FAB_4$CUT_ALL
 10
1168.083033546324
 20
-1371.86470017262
 30
0.0
 11
1168.200456701275
 21
-1372.050096908812
 31
0.0
  0
LINE
  5
32E
  8
FAB_4$CUT_ALL
 10
1168.200456701275
 20
-1372.050096908812
 30
0.0
 11
1168.314683679296
 21
-1372.240043290563
 31
0.0
  0
LINE
  5
32F
  8
FAB_4$CUT_ALL
 10
1168.314683679296
 20
-1372.240043290563
 30
0.0
 11
1168.425604632255
 21
-1372.434341800057
 31
0.0
  0
LINE
  5
330
  8
FAB_4$CUT_ALL
 10
1168.425604632255
 20
-1372.434341800057
 30
0.0
 11
1168.533116635103
 21
-1372.632786720493
 31
0.0
  0
LINE
  5
331
  8
FAB_4$CUT_ALL
 10
1168.533116635103
 20
-1372.632786720493
 30
0.0
 11
1168.63712400046
 21
-1372.835164856779
 31
0.0
  0
LINE
  5
332
  8
FAB_4$CUT_ALL
 10
1168.63712400046
 20
-1372.835164856779
 30
0.0
 11
1168.737538555158
 21
-1373.041256289257
 31
0.0
  0
LINE
  5
333
  8
FAB_4$CUT_ALL
 10
1168.737538555158
 20
-1373.041256289257
 30
0.0
 11
1168.83427987711
 21
-1373.25083515496
 31
0.0
  0
LINE
  5
334
  8
FAB_4$CUT_ALL
 10
1168.83427987711
 20
-1373.25083515496
 30
0.0
 11
1168.927275491279
 21
-1373.463670450634
 31
0.0
  0
LINE
  5
335
  8
FAB_4$CUT_ALL
 10
1168.927275491279
 20
-1373.463670450634
 30
0.0
 11
1169.016461023896
 21
-1373.679526851709
 31
0.0
  0
LINE
  5
336
  8
FAB_4$CUT_ALL
 10
1169.016461023896
 20
-1373.679526851709
 30
0.0
 11
1169.101780314503
 21
-1373.898165541294
 31
0.0
  0
LINE
  5
337
  8
FAB_4$CUT_ALL
 10
1169.101780314503
 20
-1373.898165541294
 30
0.0
 11
1169.183185485757
 21
-1374.119345043305
 31
0.0
  0
LINE
  5
338
  8
FAB_4$CUT_ALL
 10
1169.183185485757
 20
-1374.119345043305
 30
0.0
 11
1169.260636971353
 21
-1374.342822053925
 31
0.0
  0
LINE
  5
339
  8
FAB_4$CUT_ALL
 10
1169.260636971353
 20
-1374.342822053925
 30
0.0
 11
1169.334103502766
 21
-1374.568352265746
 31
0.0
  0
LINE
  5
33A
  8
FAB_4$CUT_ALL
 10
1169.334103502766
 20
-1374.568352265746
 30
0.0
 11
1169.403562055905
 21
-1374.795691179137
 31
0.0
  0
LINE
  5
33B
  8
FAB_4$CUT_ALL
 10
1169.403562055905
 20
-1374.795691179137
 30
0.0
 11
1169.468997759062
 21
-1375.024594895689
 31
0.0
  0
LINE
  5
33C
  8
FAB_4$CUT_ALL
 10
1169.468997759062
 20
-1375.024594895689
 30
0.0
 11
1169.530403763886
 21
-1375.254820888867
 31
0.0
  0
LINE
  5
33D
  8
FAB_4$CUT_ALL
 10
1169.530403763886
 20
-1375.254820888867
 30
0.0
 11
1169.641138384891
 21
-1375.718280887333
 31
0.0
  0
LINE
  5
33E
  8
FAB_4$CUT_ALL
 10
1169.641138384891
 20
-1375.718280887333
 30
0.0
 11
1169.735864565955
 21
-1376.184185836032
 31
0.0
  0
LINE
  5
33F
  8
FAB_4$CUT_ALL
 10
1169.735864565955
 20
-1376.184185836032
 30
0.0
 11
1169.814795640922
 21
-1376.650716360421
 31
0.0
  0
LINE
  5
340
  8
FAB_4$CUT_ALL
 10
1169.814795640922
 20
-1376.650716360421
 30
0.0
 11
1169.878250363203
 21
-1377.116137460364
 31
0.0
  0
LINE
  5
341
  8
FAB_4$CUT_ALL
 10
1169.878250363203
 20
-1377.116137460364
 30
0.0
 11
1169.926642404084
 21
-1377.578814066715
 31
0.0
  0
LINE
  5
342
  8
FAB_4$CUT_ALL
 10
1169.926642404084
 20
-1377.578814066715
 30
0.0
 11
1169.960468985369
 21
-1378.037223605508
 31
0.0
  0
LINE
  5
343
  8
FAB_4$CUT_ALL
 10
1169.960468985369
 20
-1378.037223605508
 30
0.0
 11
1169.980299005564
 21
-1378.489965542999
 31
0.0
  0
LINE
  5
344
  8
FAB_4$CUT_ALL
 10
1169.980299005564
 20
-1378.489965542999
 30
0.0
 11
1169.98676099561
 21
-1378.935767984485
 31
0.0
  0
LINE
  5
345
  8
FAB_4$CUT_ALL
 10
1159.98656909567
 20
-1368.935767984485
 30
0.0
 11
1163.487028919199
 21
-1368.935767984485
 31
0.0
  0
ARC
  5
346
  8
FAB_4$CUT_ALL
 10
1144.986933156721
 20
-1368.769105566043
 30
0.0
 40
15.00056181157
 50
270.0003657720226
 51
359.3634071997499
  0
LINE
  5
347
  8
FAB_4$CUT_ALL
 10
1010.487162882017
 20
-1383.769667377308
 30
0.0
 11
1144.987028919199
 21
-1383.769667377308
 31
0.0
  0
LINE
  5
348
  8
FAB_4$CUT_ALL
 10
875.9872968448342
 20
-1383.769667377308
 30
0.0
 11
1010.487162882016
 21
-1383.769667377308
 31
0.0
  0
ARC
  5
349
  8
FAB_4$CUT_ALL
 10
875.9873926122287
 20
-1368.769105561073
 30
0.0
 40
15.00056181654112
 50
180.6365928566322
 51
269.9996342091998
  0
LINE
  5
34A
  8
FAB_4$CUT_ALL
 10
843.2569884385634
 20
-1368.935764020755
 30
0.0
 11
860.9877566684727
 21
-1368.935767994331
 31
0.0
  0
ARC
  5
34B
  8
FAB_4$CUT_ALL
 10
843.2569884642617
 20
-1394.805791507201
 30
0.0
 40
25.87002748644522
 50
90.0000000569153
 51
179.9999999814522
  0
ARC
  5
34C
  8
FAB_4$CUT_ALL
 10
843.2569934648784
 20
-1394.805787690926
 30
0.0
 40
25.87003248706177
 50
180.0000084335658
 51
254.4851362561221
  0
CIRCLE
  5
34D
  8
FAB_4$CUT_ALL
 10
843.2569884558872
 20
-1394.805791498826
 30
0.0
 40
3.150000000000205
  0
LINE
  5
34E
  8
FAB_4$CUT_ALL
 10
1069.508953919199
 20
-1488.929768428025
 30
0.0
 11
1075.138953919199
 21
-1488.929768428025
 31
0.0
  0
LINE
  5
34F
  8
FAB_4$CUT_ALL
 10
1075.138953919199
 20
-1488.929768428025
 30
0.0
 11
1075.138953919199
 21
-1481.039768428025
 31
0.0
  0
LINE
  5
350
  8
FAB_4$CUT_ALL
 10
1075.138953919199
 20
-1481.039768428025
 30
0.0
 11
1069.508953919199
 21
-1481.039768428025
 31
0.0
  0
LINE
  5
351
  8
FAB_4$CUT_ALL
 10
1069.508953919199
 20
-1481.039768428025
 30
0.0
 11
1069.508953919199
 21
-1488.929768428025
 31
0.0
  0
CIRCLE
  5
352
  8
FAB_4$CUT_ALL
 10
1142.912263449141
 20
-1444.582996901609
 30
0.0
 40
1.749999999999773
  0
CIRCLE
  5
353
  8
FAB_4$CUT_ALL
 10
1142.912263449141
 20
-1465.032996901609
 30
0.0
 40
1.749999999999773
  0
CIRCLE
  5
354
  8
FAB_4$CUT_ALL
 10
878.0617943892569
 20
-1465.03299690161
 30
0.0
 40
1.75
  0
CIRCLE
  5
355
  8
FAB_4$CUT_ALL
 10
878.061794389257
 20
-1444.58299690161
 30
0.0
 40
1.749999999999886
  0
LINE
  5
356
  8
FAB_4$CUT_ALL
 10
1094.112878919199
 20
-1404.103367939337
 30
0.0
 11
1103.701178919199
 21
-1404.103367939337
 31
0.0
  0
LINE
  5
357
  8
FAB_4$CUT_ALL
 10
1103.701178919199
 20
-1404.103367939337
 30
0.0
 11
1103.701178919199
 21
-1394.515167939337
 31
0.0
  0
LINE
  5
358
  8
FAB_4$CUT_ALL
 10
1103.701178919199
 20
-1394.515167939337
 30
0.0
 11
1094.112878919199
 21
-1394.515167939337
 31
0.0
  0
LINE
  5
359
  8
FAB_4$CUT_ALL
 10
1094.112878919199
 20
-1394.515167939337
 30
0.0
 11
1094.112878919199
 21
-1404.103367939337
 31
0.0
  0
LINE
  5
35A
  8
FAB_4$CUT_ALL
 10
1078.872878919199
 20
-1404.103367939337
 30
0.0
 11
1088.461178919199
 21
-1404.103367939337
 31
0.0
  0
LINE
  5
35B
  8
FAB_4$CUT_ALL
 10
1088.461178919199
 20
-1404.103367939337
 30
0.0
 11
1088.461178919199
 21
-1394.515167939337
 31
0.0
  0
LINE
  5
35C
  8
FAB_4$CUT_ALL
 10
1088.461178919199
 20
-1394.515167939337
 30
0.0
 11
1078.872878919199
 21
-1394.515167939337
 31
0.0
  0
LINE
  5
35D
  8
FAB_4$CUT_ALL
 10
1078.872878919199
 20
-1394.515167939337
 30
0.0
 11
1078.872878919199
 21
-1404.103367939337
 31
0.0
  0
CIRCLE
  5
35E
  8
FAB_4$CUT_ALL
 10
1091.287028919199
 20
-1408.199267939337
 30
0.0
 40
2.095429411839309
  0
CIRCLE
  5
35F
  8
FAB_4$CUT_ALL
 10
1109.067028919199
 20
-1410.739267939337
 30
0.0
 40
3.500000000000455
  0
CIRCLE
  5
360
  8
FAB_4$CUT_ALL
 10
1073.507028919199
 20
-1410.739267939338
 30
0.0
 40
3.500000000000455
  0
LINE
  5
361
  8
FAB_4$CUT_ALL
 10
932.5128789191992
 20
-1404.103367939337
 30
0.0
 11
942.1011789191991
 21
-1404.103367939337
 31
0.0
  0
LINE
  5
362
  8
FAB_4$CUT_ALL
 10
942.1011789191991
 20
-1404.103367939337
 30
0.0
 11
942.1011789191991
 21
-1394.515167939337
 31
0.0
  0
LINE
  5
363
  8
FAB_4$CUT_ALL
 10
942.1011789191991
 20
-1394.515167939337
 30
0.0
 11
932.5128789191992
 21
-1394.515167939337
 31
0.0
  0
LINE
  5
364
  8
FAB_4$CUT_ALL
 10
932.5128789191992
 20
-1394.515167939337
 30
0.0
 11
932.5128789191992
 21
-1404.103367939337
 31
0.0
  0
LINE
  5
365
  8
FAB_4$CUT_ALL
 10
917.2728789191992
 20
-1404.103367939337
 30
0.0
 11
926.8611789191991
 21
-1404.103367939337
 31
0.0
  0
LINE
  5
366
  8
FAB_4$CUT_ALL
 10
926.8611789191991
 20
-1404.103367939337
 30
0.0
 11
926.8611789191991
 21
-1394.515167939337
 31
0.0
  0
LINE
  5
367
  8
FAB_4$CUT_ALL
 10
926.8611789191991
 20
-1394.515167939337
 30
0.0
 11
917.2728789191992
 21
-1394.515167939337
 31
0.0
  0
LINE
  5
368
  8
FAB_4$CUT_ALL
 10
917.2728789191992
 20
-1394.515167939337
 30
0.0
 11
917.2728789191992
 21
-1404.103367939337
 31
0.0
  0
CIRCLE
  5
369
  8
FAB_4$CUT_ALL
 10
929.6870289191991
 20
-1408.199267939337
 30
0.0
 40
2.095429411839108
  0
CIRCLE
  5
36A
  8
FAB_4$CUT_ALL
 10
947.4670289191989
 20
-1410.739267939337
 30
0.0
 40
3.500000000000114
  0
CIRCLE
  5
36B
  8
FAB_4$CUT_ALL
 10
911.9070289191989
 20
-1410.739267939337
 30
0.0
 40
3.500000000000227
  0
CIRCLE
  5
36C
  8
FAB_4$CUT_ALL
 10
956.4999539191992
 20
-1487.651768428026
 30
0.0
 40
3.5
  0
CIRCLE
  5
36D
  8
FAB_4$CUT_ALL
 10
986.979953919199
 20
-1487.651768428026
 30
0.0
 40
3.500000000000227
  0
CIRCLE
  5
36E
  8
FAB_4$CUT_ALL
 10
1017.459953919199
 20
-1487.651768428026
 30
0.0
 40
3.500000000000114
  0
CIRCLE
  5
36F
  8
FAB_4$CUT_ALL
 10
1047.812953919199
 20
-1487.651768428026
 30
0.0
 40
3.5
  0
LINE
  5
370
  8
FAB_4$CUT_ALL
 10
966.9458039191993
 20
-1492.445868428026
 30
0.0
 11
976.5341039191992
 21
-1492.445868428026
 31
0.0
  0
LINE
  5
371
  8
FAB_4$CUT_ALL
 10
976.5341039191992
 20
-1492.445868428026
 30
0.0
 11
976.5341039191992
 21
-1482.857668428026
 31
0.0
  0
LINE
  5
372
  8
FAB_4$CUT_ALL
 10
976.5341039191992
 20
-1482.857668428026
 30
0.0
 11
966.9458039191993
 21
-1482.857668428026
 31
0.0
  0
LINE
  5
373
  8
FAB_4$CUT_ALL
 10
966.9458039191993
 20
-1482.857668428026
 30
0.0
 11
966.9458039191993
 21
-1492.445868428026
 31
0.0
  0
LINE
  5
374
  8
FAB_4$CUT_ALL
 10
997.4258039191993
 20
-1492.445868428026
 30
0.0
 11
1007.014103919199
 21
-1492.445868428026
 31
0.0
  0
LINE
  5
375
  8
FAB_4$CUT_ALL
 10
1007.014103919199
 20
-1492.445868428026
 30
0.0
 11
1007.014103919199
 21
-1482.857668428026
 31
0.0
  0
LINE
  5
376
  8
FAB_4$CUT_ALL
 10
1007.014103919199
 20
-1482.857668428026
 30
0.0
 11
997.4258039191991
 21
-1482.857668428026
 31
0.0
  0
LINE
  5
377
  8
FAB_4$CUT_ALL
 10
997.4258039191991
 20
-1482.857668428026
 30
0.0
 11
997.4258039191993
 21
-1492.445868428026
 31
0.0
  0
LINE
  5
378
  8
FAB_4$CUT_ALL
 10
1027.905803919199
 20
-1492.445868428026
 30
0.0
 11
1037.494103919199
 21
-1492.445868428026
 31
0.0
  0
LINE
  5
379
  8
FAB_4$CUT_ALL
 10
1037.494103919199
 20
-1492.445868428026
 30
0.0
 11
1037.494103919199
 21
-1482.857668428026
 31
0.0
  0
LINE
  5
37A
  8
FAB_4$CUT_ALL
 10
1037.494103919199
 20
-1482.857668428026
 30
0.0
 11
1027.905803919199
 21
-1482.857668428026
 31
0.0
  0
LINE
  5
37B
  8
FAB_4$CUT_ALL
 10
1027.905803919199
 20
-1482.857668428026
 30
0.0
 11
1027.905803919199
 21
-1492.445868428026
 31
0.0
  0
LINE
  5
37C
  8
FAB_4$CUT_ALL
 10
1058.385803919199
 20
-1492.445868428026
 30
0.0
 11
1067.974103919199
 21
-1492.445868428026
 31
0.0
  0
LINE
  5
37D
  8
FAB_4$CUT_ALL
 10
1067.974103919199
 20
-1492.445868428026
 30
0.0
 11
1067.974103919199
 21
-1482.857668428025
 31
0.0
  0
LINE
  5
37E
  8
FAB_4$CUT_ALL
 10
1067.974103919199
 20
-1482.857668428025
 30
0.0
 11
1058.385803919199
 21
-1482.857668428025
 31
0.0
  0
LINE
  5
37F
  8
FAB_4$CUT_ALL
 10
1058.385803919199
 20
-1482.857668428025
 30
0.0
 11
1058.385803919199
 21
-1492.445868428026
 31
0.0
  0
CIRCLE
  5
380
  8
FAB_4$CUT_ALL
 10
992.707028919199
 20
-1410.739267939337
 30
0.0
 40
3.5
  0
CIRCLE
  5
381
  8
FAB_4$CUT_ALL
 10
1028.267028919199
 20
-1410.739267939337
 30
0.0
 40
3.499999999999773
  0
CIRCLE
  5
382
  8
FAB_4$CUT_ALL
 10
1010.487028919199
 20
-1408.199267939338
 30
0.0
 40
2.095429411838801
  0
LINE
  5
383
  8
FAB_4$CUT_ALL
 10
998.0728789191992
 20
-1404.103367939337
 30
0.0
 11
1007.661178919199
 21
-1404.103367939337
 31
0.0
  0
LINE
  5
384
  8
FAB_4$CUT_ALL
 10
1007.661178919199
 20
-1404.103367939337
 30
0.0
 11
1007.661178919199
 21
-1394.515167939337
 31
0.0
  0
LINE
  5
385
  8
FAB_4$CUT_ALL
 10
1007.661178919199
 20
-1394.515167939337
 30
0.0
 11
998.0728789191992
 21
-1394.515167939337
 31
0.0
  0
LINE
  5
386
  8
FAB_4$CUT_ALL
 10
998.0728789191992
 20
-1394.515167939337
 30
0.0
 11
998.0728789191992
 21
-1404.103367939337
 31
0.0
  0
LINE
  5
387
  8
FAB_4$CUT_ALL
 10
1013.312878919199
 20
-1404.103367939337
 30
0.0
 11
1022.901178919199
 21
-1404.103367939337
 31
0.0
  0
LINE
  5
388
  8
FAB_4$CUT_ALL
 10
1022.901178919199
 20
-1404.103367939337
 30
0.0
 11
1022.901178919199
 21
-1394.515167939337
 31
0.0
  0
LINE
  5
389
  8
FAB_4$CUT_ALL
 10
1022.901178919199
 20
-1394.515167939337
 30
0.0
 11
1013.312878919199
 21
-1394.515167939337
 31
0.0
  0
LINE
  5
38A
  8
FAB_4$CUT_ALL
 10
1013.312878919199
 20
-1394.515167939337
 30
0.0
 11
1013.312878919199
 21
-1404.103367939337
 31
0.0
  0
CIRCLE
  5
38B
  8
FAB_4$CUT_ALL
 10
1078.673953919199
 20
-1481.685275630719
 30
0.0
 40
2.095429411838814
  0
LINE
  5
38C
  8
FAB_4$CUT_ALL
 10
966.9458039191989
 20
-1481.500495165236
 30
0.0
 11
976.534103919199
 21
-1481.500495165236
 31
0.0
  0
LINE
  5
38D
  8
FAB_4$CUT_ALL
 10
976.534103919199
 20
-1481.500495165236
 30
0.0
 11
976.534103919199
 21
-1478.817041690815
 31
0.0
  0
LINE
  5
38E
  8
FAB_4$CUT_ALL
 10
976.534103919199
 20
-1478.817041690815
 30
0.0
 11
966.9458039191989
 21
-1478.817041690815
 31
0.0
  0
LINE
  5
38F
  8
FAB_4$CUT_ALL
 10
966.9458039191989
 20
-1478.817041690815
 30
0.0
 11
966.9458039191989
 21
-1481.500495165236
 31
0.0
  0
LINE
  5
390
  8
FAB_4$CUT_ALL
 10
1058.385803919199
 20
-1481.500495165236
 30
0.0
 11
1067.974103919199
 21
-1481.500495165236
 31
0.0
  0
LINE
  5
391
  8
FAB_4$CUT_ALL
 10
1067.974103919199
 20
-1481.500495165236
 30
0.0
 11
1067.974103919199
 21
-1478.817041690815
 31
0.0
  0
LINE
  5
392
  8
FAB_4$CUT_ALL
 10
1067.974103919199
 20
-1478.817041690815
 30
0.0
 11
1058.385803919199
 21
-1478.817041690815
 31
0.0
  0
LINE
  5
393
  8
FAB_4$CUT_ALL
 10
1058.385803919199
 20
-1478.817041690815
 30
0.0
 11
1058.385803919199
 21
-1481.500495165236
 31
0.0
  0
CIRCLE
  5
394
  8
FAB_4$CUT_ALL
 10
1116.692263449304
 20
-1465.032996901609
 30
0.0
 40
1.75
  0
CIRCLE
  5
395
  8
FAB_4$CUT_ALL
 10
1116.692263449304
 20
-1444.582996901609
 30
0.0
 40
1.75
  0
CIRCLE
  5
396
  8
FAB_4$CUT_ALL
 10
904.2817943890948
 20
-1444.58299690161
 30
0.0
 40
1.75
  0
CIRCLE
  5
397
  8
FAB_4$CUT_ALL
 10
904.2817943890948
 20
-1465.03299690161
 30
0.0
 40
1.75
  0
CIRCLE
  5
398
  8
FAB_4$CUT_ALL
 10
367.3300969745138
 20
-1565.238832843242
 30
0.0
 40
2.0
  0
CIRCLE
  5
399
  8
FAB_4$CUT_ALL
 10
318.3300969745135
 20
-1565.238832843241
 30
0.0
 40
1.999999999999943
  0
CIRCLE
  5
39A
  8
FAB_4$CUT_ALL
 10
318.3300969745152
 20
-1507.23883284324
 30
0.0
 40
2.0
  0
CIRCLE
  5
39B
  8
FAB_4$CUT_ALL
 10
367.3300969745158
 20
-1507.238832843242
 30
0.0
 40
2.000000000000114
  0
LINE
  5
39C
  8
FAB_4$CUT_ALL
 10
357.3917908133441
 20
-1665.829193025847
 30
0.0
 11
377.3917908133441
 21
-1665.829193025848
 31
0.0
  0
LINE
  5
39D
  8
FAB_4$CUT_ALL
 10
377.3917908133441
 20
-1665.829193025848
 30
0.0
 11
377.3917908133441
 21
-1661.829193025848
 31
0.0
  0
LINE
  5
39E
  8
FAB_4$CUT_ALL
 10
377.3917908133441
 20
-1661.829193025848
 30
0.0
 11
357.3917908133441
 21
-1661.829193025847
 31
0.0
  0
LINE
  5
39F
  8
FAB_4$CUT_ALL
 10
357.3917908133441
 20
-1661.829193025847
 30
0.0
 11
357.3917908133441
 21
-1665.829193025847
 31
0.0
  0
LINE
  5
3A0
  8
FAB_4$CUT_ALL
 10
437.9137944601058
 20
-1665.829193025848
 30
0.0
 11
457.9137944601058
 21
-1665.829193025849
 31
0.0
  0
LINE
  5
3A1
  8
FAB_4$CUT_ALL
 10
457.9137944601058
 20
-1665.829193025849
 30
0.0
 11
457.9137944601058
 21
-1661.829193025849
 31
0.0
  0
LINE
  5
3A2
  8
FAB_4$CUT_ALL
 10
457.9137944601058
 20
-1661.829193025849
 30
0.0
 11
437.9137944601058
 21
-1661.829193025848
 31
0.0
  0
LINE
  5
3A3
  8
FAB_4$CUT_ALL
 10
437.9137944601058
 20
-1661.829193025848
 30
0.0
 11
437.9137944601058
 21
-1665.829193025848
 31
0.0
  0
LINE
  5
3A4
  8
FAB_4$CUT_ALL
 10
357.3917908133445
 20
-1582.325868406517
 30
0.0
 11
377.3917908133445
 21
-1582.325868406518
 31
0.0
  0
LINE
  5
3A5
  8
FAB_4$CUT_ALL
 10
377.3917908133445
 20
-1582.325868406518
 30
0.0
 11
377.3917908133445
 21
-1578.325868406518
 31
0.0
  0
LINE
  5
3A6
  8
FAB_4$CUT_ALL
 10
377.3917908133445
 20
-1578.325868406518
 30
0.0
 11
357.3917908133445
 21
-1578.325868406517
 31
0.0
  0
LINE
  5
3A7
  8
FAB_4$CUT_ALL
 10
357.3917908133445
 20
-1578.325868406517
 30
0.0
 11
357.3917908133445
 21
-1582.325868406517
 31
0.0
  0
LINE
  5
3A8
  8
FAB_4$CUT_ALL
 10
437.9137944601067
 20
-1582.325868406518
 30
0.0
 11
457.9137944601067
 21
-1582.325868406519
 31
0.0
  0
LINE
  5
3A9
  8
FAB_4$CUT_ALL
 10
457.9137944601067
 20
-1582.325868406519
 30
0.0
 11
457.9137944601067
 21
-1578.325868406519
 31
0.0
  0
LINE
  5
3AA
  8
FAB_4$CUT_ALL
 10
457.9137944601067
 20
-1578.325868406519
 30
0.0
 11
437.9137944601067
 21
-1578.325868406518
 31
0.0
  0
LINE
  5
3AB
  8
FAB_4$CUT_ALL
 10
437.9137944601067
 20
-1578.325868406518
 30
0.0
 11
437.9137944601067
 21
-1582.325868406518
 31
0.0
  0
ENDSEC
  0
EOF
