  0
SECTION
  2
HEADER
  9
$ACADVER
  1
AC1009
  9
$DWGCODEPAGE
  3
mac-roman
  9
$INSBASE
 10
0.0
 20
0.0
 30
0.0
  9
$EXTMIN
 10
599.2330679398847
 20
0.0
 30
0.0
  9
$EXTMAX
 10
918.2328000142496
 20
278.9114149722579
 30
0.0
  9
$LIMMIN
 10
0.0
 20
0.0
  9
$LIMMAX
 10
12.0
 20
9.0
  9
$ORTHOMODE
 70
     0
  9
$REGENMODE
 70
     1
  9
$FILLMODE
 70
     1
  9
$QTEXTMODE
 70
     0
  9
$MIRRTEXT
 70
     1
  9
$DRAGMODE
 70
     2
  9
$LTSCALE
 40
1.0
  9
$OSMODE
 70
    37
  9
$ATTMODE
 70
     1
  9
$TEXTSIZE
 40
0.2
  9
$TRACEWID
 40
0.05
  9
$TEXTSTYLE
  7
STANDARD
  9
$CLAYER
  8
0
  9
$CELTYPE
  6
BYLAYER
  9
$CECOLOR
 62
   256
  9
$DIMSCALE
 40
1.0
  9
$DIMASZ
 40
0.18
  9
$DIMEXO
 40
0.0625
  9
$DIMDLI
 40
0.38
  9
$DIMRND
 40
0.0
  9
$DIMDLE
 40
0.0
  9
$DIMEXE
 40
0.18
  9
$DIMTP
 40
0.0
  9
$DIMTM
 40
0.0
  9
$DIMTXT
 40
0.18
  9
$DIMCEN
 40
0.09
  9
$DIMTSZ
 40
0.0
  9
$DIMTOL
 70
     0
  9
$DIMLIM
 70
     0
  9
$DIMTIH
 70
     1
  9
$DIMTOH
 70
     1
  9
$DIMSE1
 70
     0
  9
$DIMSE2
 70
     0
  9
$DIMTAD
 70
     0
  9
$DIMZIN
 70
     0
  9
$DIMBLK
  1

  9
$DIMASO
 70
     1
  9
$DIMSHO
 70
     1
  9
$DIMPOST
  1

  9
$DIMAPOST
  1

  9
$DIMALT
 70
     0
  9
$DIMALTD
 70
     2
  9
$DIMALTF
 40
25.4
  9
$DIMLFAC
 40
1.0
  9
$DIMTOFL
 70
     0
  9
$DIMTVP
 40
0.0
  9
$DIMTIX
 70
     0
  9
$DIMSOXD
 70
     0
  9
$DIMSAH
 70
     0
  9
$DIMBLK1
  1

  9
$DIMBLK2
  1

  9
$DIMSTYLE
  2
STANDARD
  9
$DIMCLRD
 70
     0
  9
$DIMCLRE
 70
     0
  9
$DIMCLRT
 70
     0
  9
$DIMTFAC
 40
1.0
  9
$DIMGAP
 40
0.09
  9
$LUNITS
 70
     2
  9
$LUPREC
 70
     3
  9
$SKETCHINC
 40
0.1
  9
$FILLETRAD
 40
0.5
  9
$AUNITS
 70
     0
  9
$AUPREC
 70
     0
  9
$MENU
  1
.
  9
$ELEVATION
 40
0.0
  9
$PELEVATION
 40
0.0
  9
$THICKNESS
 40
0.0
  9
$LIMCHECK
 70
     0
  9
$CHAMFERA
 40
0.0
  9
$CHAMFERB
 40
0.0
  9
$SKPOLY
 70
     0
  9
$TDCREATE
 40
2457968.628101852
  9
$TDUPDATE
 40
2457968.628113426
  9
$TDINDWG
 40
0.0000000116
  9
$TDUSRTIMER
 40
0.0000000116
  9
$USRTIMER
 70
     1
  9
$ANGBASE
 50
0.0
  9
$ANGDIR
 70
     0
  9
$PDMODE
 70
     0
  9
$PDSIZE
 40
0.0
  9
$PLINEWID
 40
0.0
  9
$COORDS
 70
     1
  9
$SPLFRAME
 70
     0
  9
$SPLINETYPE
 70
     6
  9
$SPLINESEGS
 70
     8
  9
$ATTDIA
 70
     0
  9
$ATTREQ
 70
     1
  9
$HANDLING
 70
     1
  9
$HANDSEED
  5
44A
  9
$SURFTAB1
 70
     6
  9
$SURFTAB2
 70
     6
  9
$SURFTYPE
 70
     6
  9
$SURFU
 70
     6
  9
$SURFV
 70
     6
  9
$UCSNAME
  2

  9
$UCSORG
 10
0.0
 20
0.0
 30
0.0
  9
$UCSXDIR
 10
1.0
 20
0.0
 30
0.0
  9
$UCSYDIR
 10
0.0
 20
1.0
 30
0.0
  9
$PUCSNAME
  2

  9
$PUCSORG
 10
0.0
 20
0.0
 30
0.0
  9
$PUCSXDIR
 10
1.0
 20
0.0
 30
0.0
  9
$PUCSYDIR
 10
0.0
 20
1.0
 30
0.0
  9
$USERI1
 70
     0
  9
$USERI2
 70
     0
  9
$USERI3
 70
     0
  9
$USERI4
 70
     0
  9
$USERI5
 70
     0
  9
$USERR1
 40
0.0
  9
$USERR2
 40
0.0
  9
$USERR3
 40
0.0
  9
$USERR4
 40
0.0
  9
$USERR5
 40
0.0
  9
$WORLDVIEW
 70
     1
  9
$SHADEDGE
 70
     3
  9
$SHADEDIF
 70
    70
  9
$TILEMODE
 70
     1
  9
$MAXACTVP
 70
    64
  9
$PLIMCHECK
 70
     0
  9
$PEXTMIN
 10
1.000000000000000E+20
 20
1.000000000000000E+20
 30
1.000000000000000E+20
  9
$PEXTMAX
 10
-1.000000000000000E+20
 20
-1.000000000000000E+20
 30
-1.000000000000000E+20
  9
$PLIMMIN
 10
0.0
 20
0.0
  9
$PLIMMAX
 10
12.0
 20
9.0
  9
$UNITMODE
 70
     0
  9
$VISRETAIN
 70
     1
  9
$PLINEGEN
 70
     0
  9
$PSLTSCALE
 70
     1
  0
ENDSEC
  0
SECTION
  2
TABLES
  0
TABLE
  2
VPORT
 70
     1
  0
VPORT
  2
*ACTIVE
 70
     0
 10
0.0
 20
0.0
 11
1.0
 21
1.0
 12
758.7329339770672
 22
139.455707486129
 13
0.0
 23
0.0
 14
0.5
 24
0.5
 15
0.5
 25
0.5
 16
0.0
 26
0.0
 36
1.0
 17
0.0
 27
0.0
 37
0.0
 40
284.4896432717031
 41
1.143731360389443
 42
50.0
 43
0.0
 44
0.0
 50
0.0
 51
0.0
 71
     0
 72
   100
 73
     1
 74
     3
 75
     0
 76
     0
 77
     0
 78
     0
  0
ENDTAB
  0
TABLE
  2
LTYPE
 70
     1
  0
LTYPE
  2
CONTINUOUS
 70
     0
  3
Solid line
 72
    65
 73
     0
 40
0.0
  0
ENDTAB
  0
TABLE
  2
LAYER
 70
     2
  0
LAYER
  2
0
 70
     0
 62
     7
  6
CONTINUOUS
  0
LAYER
  2
MAKE2D$VISIBLE$LINES
 70
     0
 62
     7
  6
CONTINUOUS
  0
ENDTAB
  0
TABLE
  2
STYLE
 70
     1
  0
STYLE
  2
STANDARD
 70
     0
 40
0.0
 41
1.0
 50
0.0
 71
     0
 42
0.2
  3
txt
  4

  0
ENDTAB
  0
TABLE
  2
VIEW
 70
     0
  0
ENDTAB
  0
TABLE
  2
UCS
 70
     0
  0
ENDTAB
  0
TABLE
  2
APPID
 70
     1
  0
APPID
  2
ACAD
 70
     0
  0
ENDTAB
  0
TABLE
  2
DIMSTYLE
 70
     1
  0
DIMSTYLE
  2
STANDARD
 70
     0
  3

  4

  5

  6

  7

 40
1.0
 41
0.18
 42
0.0625
 43
0.38
 44
0.18
 45
0.0
 46
0.0
 47
0.0
 48
0.0
140
0.18
141
0.09
142
0.0
143
25.4
144
1.0
145
0.0
146
1.0
147
0.09
 71
     0
 72
     0
 73
     1
 74
     1
 75
     0
 76
     0
 77
     0
 78
     0
170
     0
171
     2
172
     0
173
     0
174
     0
175
     0
176
     0
177
     0
178
     0
  0
ENDTAB
  0
ENDSEC
  0
SECTION
  2
BLOCKS
  0
BLOCK
  8
0
  2
$MODEL_SPACE
 70
     0
 10
0.0
 20
0.0
 30
0.0
  3
$MODEL_SPACE
  1

  0
ENDBLK
  5
21
  8
0
  0
BLOCK
 67
     1
  8
0
  2
$PAPER_SPACE
 70
     0
 10
0.0
 20
0.0
 30
0.0
  3
$PAPER_SPACE
  1

  0
ENDBLK
  5
1D
 67
     1
  8
0
  0
ENDSEC
  0
SECTION
  2
ENTITIES
  0
LINE
  5
6F
  8
MAKE2D$VISIBLE$LINES
 10
732.989897935206
 20
241.1108542032939
 30
0.0
 11
782.8498979352064
 21
241.1108542032941
 31
0.0
  0
LINE
  5
70
  8
MAKE2D$VISIBLE$LINES
 10
782.8498979352064
 20
241.1108542032941
 30
0.0
 11
782.8498979352064
 21
238.250854203294
 31
0.0
  0
LINE
  5
71
  8
MAKE2D$VISIBLE$LINES
 10
782.8498979352064
 20
238.250854203294
 30
0.0
 11
732.9898979352062
 21
238.2508542032938
 31
0.0
  0
LINE
  5
72
  8
MAKE2D$VISIBLE$LINES
 10
732.9898979352062
 20
238.2508542032938
 30
0.0
 11
732.989897935206
 21
241.1108542032939
 31
0.0
  0
LINE
  5
73
  8
MAKE2D$VISIBLE$LINES
 10
770.4198979352062
 20
275.9114149722577
 30
0.0
 11
745.4198979352062
 21
275.9114149722577
 31
0.0
  0
LINE
  5
74
  8
MAKE2D$VISIBLE$LINES
 10
745.4198979352062
 20
275.9114149722577
 30
0.0
 11
745.4198979352062
 21
278.9114149722577
 31
0.0
  0
LINE
  5
75
  8
MAKE2D$VISIBLE$LINES
 10
745.4198979352062
 20
278.9114149722577
 30
0.0
 11
609.2330679398847
 21
278.9114149722579
 31
0.0
  0
LINE
  5
76
  8
MAKE2D$VISIBLE$LINES
 10
609.2330679398847
 20
278.9114149722579
 30
0.0
 11
609.2330679398847
 21
274.1808542032948
 31
0.0
  0
LINE
  5
77
  8
MAKE2D$VISIBLE$LINES
 10
609.2330679398847
 20
274.1808542032948
 30
0.0
 11
604.2330679398847
 21
274.1808542032948
 31
0.0
  0
LINE
  5
78
  8
MAKE2D$VISIBLE$LINES
 10
604.2330679398847
 20
274.1808542032948
 30
0.0
 11
604.0623623889549
 21
274.1779393151256
 31
0.0
  0
LINE
  5
79
  8
MAKE2D$VISIBLE$LINES
 10
604.0623623889549
 20
274.1779393151256
 30
0.0
 11
603.8918558730613
 21
274.1691980492475
 31
0.0
  0
LINE
  5
7A
  8
MAKE2D$VISIBLE$LINES
 10
603.8918558730613
 20
274.1691980492475
 30
0.0
 11
603.7217471951744
 21
274.1546405975852
 31
0.0
  0
LINE
  5
7B
  8
MAKE2D$VISIBLE$LINES
 10
603.7217471951744
 20
274.1546405975852
 30
0.0
 11
603.5522346944034
 21
274.1342839334765
 31
0.0
  0
LINE
  5
7C
  8
MAKE2D$VISIBLE$LINES
 10
603.5522346944034
 20
274.1342839334765
 30
0.0
 11
603.3835160147414
 21
274.1081517918808
 31
0.0
  0
LINE
  5
7D
  8
MAKE2D$VISIBLE$LINES
 10
603.3835160147414
 20
274.1081517918808
 30
0.0
 11
603.2157878746215
 21
274.0762746417064
 31
0.0
  0
LINE
  5
7E
  8
MAKE2D$VISIBLE$LINES
 10
603.2157878746215
 20
274.0762746417064
 30
0.0
 11
603.0492458375525
 21
274.0386896502845
 31
0.0
  0
LINE
  5
7F
  8
MAKE2D$VISIBLE$LINES
 10
603.0492458375525
 20
274.0386896502845
 30
0.0
 11
602.8840840840995
 21
273.9954406400338
 31
0.0
  0
LINE
  5
80
  8
MAKE2D$VISIBLE$LINES
 10
602.8840840840995
 20
273.9954406400338
 30
0.0
 11
602.7204951854793
 21
273.9465780373656
 31
0.0
  0
LINE
  5
81
  8
MAKE2D$VISIBLE$LINES
 10
602.7204951854793
 20
273.9465780373656
 30
0.0
 11
602.5586698790297
 21
273.8921588138889
 31
0.0
  0
LINE
  5
82
  8
MAKE2D$VISIBLE$LINES
 10
602.5586698790297
 20
273.8921588138889
 30
0.0
 11
602.3987968458194
 21
273.832246419984
 31
0.0
  0
LINE
  5
83
  8
MAKE2D$VISIBLE$LINES
 10
602.3987968458194
 20
273.832246419984
 30
0.0
 11
602.2410624906535
 21
273.7669107108221
 31
0.0
  0
LINE
  5
84
  8
MAKE2D$VISIBLE$LINES
 10
602.2410624906535
 20
273.7669107108221
 30
0.0
 11
602.0856507247343
 21
273.6962278649175
 31
0.0
  0
LINE
  5
85
  8
MAKE2D$VISIBLE$LINES
 10
602.0856507247343
 20
273.6962278649175
 30
0.0
 11
601.932742751229
 21
273.6202802953067
 31
0.0
  0
LINE
  5
86
  8
MAKE2D$VISIBLE$LINES
 10
601.932742751229
 20
273.6202802953067
 30
0.0
 11
601.7825168539946
 21
273.5391565534586
 31
0.0
  0
LINE
  5
87
  8
MAKE2D$VISIBLE$LINES
 10
601.7825168539946
 20
273.5391565534586
 30
0.0
 11
601.6351481897075
 21
273.4529512260273
 31
0.0
  0
LINE
  5
88
  8
MAKE2D$VISIBLE$LINES
 10
601.6351481897075
 20
273.4529512260273
 30
0.0
 11
601.4908085836381
 21
273.3617648245684
 31
0.0
  0
LINE
  5
89
  8
MAKE2D$VISIBLE$LINES
 10
601.4908085836381
 20
273.3617648245684
 30
0.0
 11
601.3496663293104
 21
273.2657036683471
 31
0.0
  0
LINE
  5
8A
  8
MAKE2D$VISIBLE$LINES
 10
601.3496663293104
 20
273.2657036683471
 30
0.0
 11
601.2118859922792
 21
273.1648797603744
 31
0.0
  0
LINE
  5
8B
  8
MAKE2D$VISIBLE$LINES
 10
601.2118859922792
 20
273.1648797603744
 30
0.0
 11
601.0776282182544
 21
273.059410656817
 31
0.0
  0
LINE
  5
8C
  8
MAKE2D$VISIBLE$LINES
 10
601.0776282182544
 20
273.059410656817
 30
0.0
 11
600.9470495457948
 21
272.9494193299317
 31
0.0
  0
LINE
  5
8D
  8
MAKE2D$VISIBLE$LINES
 10
600.9470495457948
 20
272.9494193299317
 30
0.0
 11
600.8203022237914
 21
272.8350340246855
 31
0.0
  0
LINE
  5
8E
  8
MAKE2D$VISIBLE$LINES
 10
600.8203022237914
 20
272.8350340246855
 30
0.0
 11
600.6975340339519
 21
272.7163881092276
 31
0.0
  0
LINE
  5
8F
  8
MAKE2D$VISIBLE$LINES
 10
600.6975340339519
 20
272.7163881092276
 30
0.0
 11
600.5788881184941
 21
272.5936199193882
 31
0.0
  0
LINE
  5
90
  8
MAKE2D$VISIBLE$LINES
 10
600.5788881184941
 20
272.5936199193882
 30
0.0
 11
600.4645028132479
 21
272.4668725973848
 31
0.0
  0
LINE
  5
91
  8
MAKE2D$VISIBLE$LINES
 10
600.4645028132479
 20
272.4668725973848
 30
0.0
 11
600.3545114863625
 21
272.3362939249251
 31
0.0
  0
LINE
  5
92
  8
MAKE2D$VISIBLE$LINES
 10
600.3545114863625
 20
272.3362939249251
 30
0.0
 11
600.2490423828052
 21
272.2020361509004
 31
0.0
  0
LINE
  5
93
  8
MAKE2D$VISIBLE$LINES
 10
600.2490423828052
 20
272.2020361509004
 30
0.0
 11
600.1482184748324
 21
272.0642558138692
 31
0.0
  0
LINE
  5
94
  8
MAKE2D$VISIBLE$LINES
 10
600.1482184748324
 20
272.0642558138692
 30
0.0
 11
600.0521573186111
 21
271.9231135595415
 31
0.0
  0
LINE
  5
95
  8
MAKE2D$VISIBLE$LINES
 10
600.0521573186111
 20
271.9231135595415
 30
0.0
 11
599.9609709171523
 21
271.7787739534721
 31
0.0
  0
LINE
  5
96
  8
MAKE2D$VISIBLE$LINES
 10
599.9609709171523
 20
271.7787739534721
 30
0.0
 11
599.8747655897209
 21
271.631405289185
 31
0.0
  0
LINE
  5
97
  8
MAKE2D$VISIBLE$LINES
 10
599.8747655897209
 20
271.631405289185
 30
0.0
 11
599.7936418478728
 21
271.4811793919507
 31
0.0
  0
LINE
  5
98
  8
MAKE2D$VISIBLE$LINES
 10
599.7936418478728
 20
271.4811793919507
 30
0.0
 11
599.717694278262
 21
271.3282714184454
 31
0.0
  0
LINE
  5
99
  8
MAKE2D$VISIBLE$LINES
 10
599.717694278262
 20
271.3282714184454
 30
0.0
 11
599.6470114323574
 21
271.1728596525261
 31
0.0
  0
LINE
  5
9A
  8
MAKE2D$VISIBLE$LINES
 10
599.6470114323574
 20
271.1728596525261
 30
0.0
 11
599.5816757231955
 21
271.0151252973603
 31
0.0
  0
LINE
  5
9B
  8
MAKE2D$VISIBLE$LINES
 10
599.5816757231955
 20
271.0151252973603
 30
0.0
 11
599.5217633292906
 21
270.8552522641499
 31
0.0
  0
LINE
  5
9C
  8
MAKE2D$VISIBLE$LINES
 10
599.5217633292906
 20
270.8552522641499
 30
0.0
 11
599.4673441058138
 21
270.6934269577004
 31
0.0
  0
LINE
  5
9D
  8
MAKE2D$VISIBLE$LINES
 10
599.4673441058138
 20
270.6934269577004
 30
0.0
 11
599.4184815031457
 21
270.5298380590801
 31
0.0
  0
LINE
  5
9E
  8
MAKE2D$VISIBLE$LINES
 10
599.4184815031457
 20
270.5298380590801
 30
0.0
 11
599.375232492895
 21
270.3646763056272
 31
0.0
  0
LINE
  5
9F
  8
MAKE2D$VISIBLE$LINES
 10
599.375232492895
 20
270.3646763056272
 30
0.0
 11
599.337647501473
 21
270.1981342685581
 31
0.0
  0
LINE
  5
A0
  8
MAKE2D$VISIBLE$LINES
 10
599.337647501473
 20
270.1981342685581
 30
0.0
 11
599.3057703512987
 21
270.0304061284383
 31
0.0
  0
LINE
  5
A1
  8
MAKE2D$VISIBLE$LINES
 10
599.3057703512987
 20
270.0304061284383
 30
0.0
 11
599.279638209703
 21
269.8616874487762
 31
0.0
  0
LINE
  5
A2
  8
MAKE2D$VISIBLE$LINES
 10
599.279638209703
 20
269.8616874487762
 30
0.0
 11
599.2592815455941
 21
269.6921749480052
 31
0.0
  0
LINE
  5
A3
  8
MAKE2D$VISIBLE$LINES
 10
599.2592815455941
 20
269.6921749480052
 30
0.0
 11
599.244724093932
 21
269.5220662701183
 31
0.0
  0
LINE
  5
A4
  8
MAKE2D$VISIBLE$LINES
 10
599.244724093932
 20
269.5220662701183
 30
0.0
 11
599.2359828280538
 21
269.3515597542249
 31
0.0
  0
LINE
  5
A5
  8
MAKE2D$VISIBLE$LINES
 10
599.2359828280538
 20
269.3515597542249
 30
0.0
 11
599.2330679398847
 21
269.180854203295
 31
0.0
  0
LINE
  5
A6
  8
MAKE2D$VISIBLE$LINES
 10
599.2330679398847
 20
269.180854203295
 30
0.0
 11
599.2330679398847
 21
261.6808542032948
 31
0.0
  0
LINE
  5
A7
  8
MAKE2D$VISIBLE$LINES
 10
599.2330679398847
 20
261.6808542032948
 30
0.0
 11
599.2330679398847
 21
254.1808542032945
 31
0.0
  0
LINE
  5
A8
  8
MAKE2D$VISIBLE$LINES
 10
599.2330679398847
 20
254.1808542032945
 30
0.0
 11
599.2359828280538
 21
254.0101486523647
 31
0.0
  0
LINE
  5
A9
  8
MAKE2D$VISIBLE$LINES
 10
599.2359828280538
 20
254.0101486523647
 30
0.0
 11
599.244724093932
 21
253.8396421364712
 31
0.0
  0
LINE
  5
AA
  8
MAKE2D$VISIBLE$LINES
 10
599.244724093932
 20
253.8396421364712
 30
0.0
 11
599.2592815455943
 21
253.6695334585843
 31
0.0
  0
LINE
  5
AB
  8
MAKE2D$VISIBLE$LINES
 10
599.2592815455943
 20
253.6695334585843
 30
0.0
 11
599.2796382097031
 21
253.5000209578133
 31
0.0
  0
LINE
  5
AC
  8
MAKE2D$VISIBLE$LINES
 10
599.2796382097031
 20
253.5000209578133
 30
0.0
 11
599.3057703512987
 21
253.3313022781512
 31
0.0
  0
LINE
  5
AD
  8
MAKE2D$VISIBLE$LINES
 10
599.3057703512987
 20
253.3313022781512
 30
0.0
 11
599.337647501473
 21
253.1635741380314
 31
0.0
  0
LINE
  5
AE
  8
MAKE2D$VISIBLE$LINES
 10
599.337647501473
 20
253.1635741380314
 30
0.0
 11
599.3752324928951
 21
252.9970321009623
 31
0.0
  0
LINE
  5
AF
  8
MAKE2D$VISIBLE$LINES
 10
599.3752324928951
 20
252.9970321009623
 30
0.0
 11
599.4184815031457
 21
252.8318703475094
 31
0.0
  0
LINE
  5
B0
  8
MAKE2D$VISIBLE$LINES
 10
599.4184815031457
 20
252.8318703475094
 30
0.0
 11
599.4673441058139
 21
252.6682814488892
 31
0.0
  0
LINE
  5
B1
  8
MAKE2D$VISIBLE$LINES
 10
599.4673441058139
 20
252.6682814488892
 30
0.0
 11
599.5217633292906
 21
252.5064561424397
 31
0.0
  0
LINE
  5
B2
  8
MAKE2D$VISIBLE$LINES
 10
599.5217633292906
 20
252.5064561424397
 30
0.0
 11
599.5816757231955
 21
252.3465831092293
 31
0.0
  0
LINE
  5
B3
  8
MAKE2D$VISIBLE$LINES
 10
599.5816757231955
 20
252.3465831092293
 30
0.0
 11
599.6470114323574
 21
252.1888487540634
 31
0.0
  0
LINE
  5
B4
  8
MAKE2D$VISIBLE$LINES
 10
599.6470114323574
 20
252.1888487540634
 30
0.0
 11
599.7176942782621
 21
252.0334369881442
 31
0.0
  0
LINE
  5
B5
  8
MAKE2D$VISIBLE$LINES
 10
599.7176942782621
 20
252.0334369881442
 30
0.0
 11
599.7936418478729
 21
251.8805290146389
 31
0.0
  0
LINE
  5
B6
  8
MAKE2D$VISIBLE$LINES
 10
599.7936418478729
 20
251.8805290146389
 30
0.0
 11
599.874765589721
 21
251.7303031174045
 31
0.0
  0
LINE
  5
B7
  8
MAKE2D$VISIBLE$LINES
 10
599.874765589721
 20
251.7303031174045
 30
0.0
 11
599.9609709171523
 21
251.5829344531175
 31
0.0
  0
LINE
  5
B8
  8
MAKE2D$VISIBLE$LINES
 10
599.9609709171523
 20
251.5829344531175
 30
0.0
 11
600.0521573186112
 21
251.4385948470481
 31
0.0
  0
LINE
  5
B9
  8
MAKE2D$VISIBLE$LINES
 10
600.0521573186112
 20
251.4385948470481
 30
0.0
 11
600.1482184748326
 21
251.2974525927203
 31
0.0
  0
LINE
  5
BA
  8
MAKE2D$VISIBLE$LINES
 10
600.1482184748326
 20
251.2974525927203
 30
0.0
 11
600.2490423828052
 21
251.1596722556892
 31
0.0
  0
LINE
  5
BB
  8
MAKE2D$VISIBLE$LINES
 10
600.2490423828052
 20
251.1596722556892
 30
0.0
 11
600.3545114863626
 21
251.0254144816644
 31
0.0
  0
LINE
  5
BC
  8
MAKE2D$VISIBLE$LINES
 10
600.3545114863626
 20
251.0254144816644
 30
0.0
 11
600.4645028132479
 21
250.8948358092048
 31
0.0
  0
LINE
  5
BD
  8
MAKE2D$VISIBLE$LINES
 10
600.4645028132479
 20
250.8948358092048
 30
0.0
 11
600.5788881184941
 21
250.7680884872014
 31
0.0
  0
LINE
  5
BE
  8
MAKE2D$VISIBLE$LINES
 10
600.5788881184941
 20
250.7680884872014
 30
0.0
 11
600.697534033952
 21
250.645320297362
 31
0.0
  0
LINE
  5
BF
  8
MAKE2D$VISIBLE$LINES
 10
600.697534033952
 20
250.645320297362
 30
0.0
 11
600.8203022237915
 21
250.5266743819041
 31
0.0
  0
LINE
  5
C0
  8
MAKE2D$VISIBLE$LINES
 10
600.8203022237915
 20
250.5266743819041
 30
0.0
 11
600.9470495457949
 21
250.4122890766579
 31
0.0
  0
LINE
  5
C1
  8
MAKE2D$VISIBLE$LINES
 10
600.9470495457949
 20
250.4122890766579
 30
0.0
 11
601.0776282182545
 21
250.3022977497726
 31
0.0
  0
LINE
  5
C2
  8
MAKE2D$VISIBLE$LINES
 10
601.0776282182545
 20
250.3022977497726
 30
0.0
 11
601.2118859922792
 21
250.1968286462152
 31
0.0
  0
LINE
  5
C3
  8
MAKE2D$VISIBLE$LINES
 10
601.2118859922792
 20
250.1968286462152
 30
0.0
 11
601.3496663293104
 21
250.0960047382425
 31
0.0
  0
LINE
  5
C4
  8
MAKE2D$VISIBLE$LINES
 10
601.3496663293104
 20
250.0960047382425
 30
0.0
 11
601.4908085836381
 21
249.9999435820212
 31
0.0
  0
LINE
  5
C5
  8
MAKE2D$VISIBLE$LINES
 10
601.4908085836381
 20
249.9999435820212
 30
0.0
 11
601.6351481897076
 21
249.9087571805623
 31
0.0
  0
LINE
  5
C6
  8
MAKE2D$VISIBLE$LINES
 10
601.6351481897076
 20
249.9087571805623
 30
0.0
 11
601.7825168539947
 21
249.822551853131
 31
0.0
  0
LINE
  5
C7
  8
MAKE2D$VISIBLE$LINES
 10
601.7825168539947
 20
249.822551853131
 30
0.0
 11
601.932742751229
 21
249.7414281112828
 31
0.0
  0
LINE
  5
C8
  8
MAKE2D$VISIBLE$LINES
 10
601.932742751229
 20
249.7414281112828
 30
0.0
 11
602.0856507247344
 21
249.6654805416721
 31
0.0
  0
LINE
  5
C9
  8
MAKE2D$VISIBLE$LINES
 10
602.0856507247344
 20
249.6654805416721
 30
0.0
 11
602.2410624906536
 21
249.5947976957675
 31
0.0
  0
LINE
  5
CA
  8
MAKE2D$VISIBLE$LINES
 10
602.2410624906536
 20
249.5947976957675
 30
0.0
 11
602.3987968458194
 21
249.5294619866056
 31
0.0
  0
LINE
  5
CB
  8
MAKE2D$VISIBLE$LINES
 10
602.3987968458194
 20
249.5294619866056
 30
0.0
 11
602.5586698790298
 21
249.4695495927006
 31
0.0
  0
LINE
  5
CC
  8
MAKE2D$VISIBLE$LINES
 10
602.5586698790298
 20
249.4695495927006
 30
0.0
 11
602.7204951854793
 21
249.4151303692239
 31
0.0
  0
LINE
  5
CD
  8
MAKE2D$VISIBLE$LINES
 10
602.7204951854793
 20
249.4151303692239
 30
0.0
 11
602.8840840840996
 21
249.3662677665558
 31
0.0
  0
LINE
  5
CE
  8
MAKE2D$VISIBLE$LINES
 10
602.8840840840996
 20
249.3662677665558
 30
0.0
 11
603.0492458375525
 21
249.323018756305
 31
0.0
  0
LINE
  5
CF
  8
MAKE2D$VISIBLE$LINES
 10
603.0492458375525
 20
249.323018756305
 30
0.0
 11
603.2157878746216
 21
249.2854337648831
 31
0.0
  0
LINE
  5
D0
  8
MAKE2D$VISIBLE$LINES
 10
603.2157878746216
 20
249.2854337648831
 30
0.0
 11
603.3835160147413
 21
249.2535566147088
 31
0.0
  0
LINE
  5
D1
  8
MAKE2D$VISIBLE$LINES
 10
603.3835160147413
 20
249.2535566147088
 30
0.0
 11
603.5522346944034
 21
249.2274244731131
 31
0.0
  0
LINE
  5
D2
  8
MAKE2D$VISIBLE$LINES
 10
603.5522346944034
 20
249.2274244731131
 30
0.0
 11
603.7217471951745
 21
249.2070678090043
 31
0.0
  0
LINE
  5
D3
  8
MAKE2D$VISIBLE$LINES
 10
603.7217471951745
 20
249.2070678090043
 30
0.0
 11
603.8918558730613
 21
249.1925103573421
 31
0.0
  0
LINE
  5
D4
  8
MAKE2D$VISIBLE$LINES
 10
603.8918558730613
 20
249.1925103573421
 30
0.0
 11
604.0623623889549
 21
249.1837690914639
 31
0.0
  0
LINE
  5
D5
  8
MAKE2D$VISIBLE$LINES
 10
604.0623623889549
 20
249.1837690914639
 30
0.0
 11
604.2330679398847
 21
249.1808542032948
 31
0.0
  0
LINE
  5
D6
  8
MAKE2D$VISIBLE$LINES
 10
604.2330679398847
 20
249.1808542032948
 30
0.0
 11
609.2330679398847
 21
249.1808542032948
 31
0.0
  0
LINE
  5
D7
  8
MAKE2D$VISIBLE$LINES
 10
609.2330679398847
 20
249.1808542032948
 30
0.0
 11
609.2330679398847
 21
233.1808542032941
 31
0.0
  0
LINE
  5
D8
  8
MAKE2D$VISIBLE$LINES
 10
609.2330679398847
 20
233.1808542032941
 30
0.0
 11
908.2328000142496
 21
233.1808542032941
 31
0.0
  0
LINE
  5
D9
  8
MAKE2D$VISIBLE$LINES
 10
908.2328000142496
 20
233.1808542032941
 30
0.0
 11
908.2328000142496
 21
249.1808542032941
 31
0.0
  0
LINE
  5
DA
  8
MAKE2D$VISIBLE$LINES
 10
908.2328000142496
 20
249.1808542032941
 30
0.0
 11
913.2328000142496
 21
249.1808542032941
 31
0.0
  0
LINE
  5
DB
  8
MAKE2D$VISIBLE$LINES
 10
913.2328000142496
 20
249.1808542032941
 30
0.0
 11
913.4035055651796
 21
249.1837690914633
 31
0.0
  0
LINE
  5
DC
  8
MAKE2D$VISIBLE$LINES
 10
913.4035055651796
 20
249.1837690914633
 30
0.0
 11
913.574012081073
 21
249.1925103573415
 31
0.0
  0
LINE
  5
DD
  8
MAKE2D$VISIBLE$LINES
 10
913.574012081073
 20
249.1925103573415
 30
0.0
 11
913.74412075896
 21
249.2070678090037
 31
0.0
  0
LINE
  5
DE
  8
MAKE2D$VISIBLE$LINES
 10
913.74412075896
 20
249.2070678090037
 30
0.0
 11
913.913633259731
 21
249.2274244731125
 31
0.0
  0
LINE
  5
DF
  8
MAKE2D$VISIBLE$LINES
 10
913.913633259731
 20
249.2274244731125
 30
0.0
 11
914.082351939393
 21
249.2535566147082
 31
0.0
  0
LINE
  5
E0
  8
MAKE2D$VISIBLE$LINES
 10
914.082351939393
 20
249.2535566147082
 30
0.0
 11
914.2500800795127
 21
249.2854337648825
 31
0.0
  0
LINE
  5
E1
  8
MAKE2D$VISIBLE$LINES
 10
914.2500800795127
 20
249.2854337648825
 30
0.0
 11
914.4166221165818
 21
249.3230187563044
 31
0.0
  0
LINE
  5
E2
  8
MAKE2D$VISIBLE$LINES
 10
914.4166221165818
 20
249.3230187563044
 30
0.0
 11
914.5817838700349
 21
249.3662677665552
 31
0.0
  0
LINE
  5
E3
  8
MAKE2D$VISIBLE$LINES
 10
914.5817838700349
 20
249.3662677665552
 30
0.0
 11
914.7453727686551
 21
249.4151303692234
 31
0.0
  0
LINE
  5
E4
  8
MAKE2D$VISIBLE$LINES
 10
914.7453727686551
 20
249.4151303692234
 30
0.0
 11
914.9071980751046
 21
249.4695495927001
 31
0.0
  0
LINE
  5
E5
  8
MAKE2D$VISIBLE$LINES
 10
914.9071980751046
 20
249.4695495927001
 30
0.0
 11
915.067071108315
 21
249.529461986605
 31
0.0
  0
LINE
  5
E6
  8
MAKE2D$VISIBLE$LINES
 10
915.067071108315
 20
249.529461986605
 30
0.0
 11
915.2248054634808
 21
249.5947976957669
 31
0.0
  0
LINE
  5
E7
  8
MAKE2D$VISIBLE$LINES
 10
915.2248054634808
 20
249.5947976957669
 30
0.0
 11
915.3802172294
 21
249.6654805416715
 31
0.0
  0
LINE
  5
E8
  8
MAKE2D$VISIBLE$LINES
 10
915.3802172294
 20
249.6654805416715
 30
0.0
 11
915.5331252029054
 21
249.7414281112823
 31
0.0
  0
LINE
  5
E9
  8
MAKE2D$VISIBLE$LINES
 10
915.5331252029054
 20
249.7414281112823
 30
0.0
 11
915.6833511001397
 21
249.8225518531304
 31
0.0
  0
LINE
  5
EA
  8
MAKE2D$VISIBLE$LINES
 10
915.6833511001397
 20
249.8225518531304
 30
0.0
 11
915.8307197644268
 21
249.9087571805617
 31
0.0
  0
LINE
  5
EB
  8
MAKE2D$VISIBLE$LINES
 10
915.8307197644268
 20
249.9087571805617
 30
0.0
 11
915.9750593704962
 21
249.9999435820206
 31
0.0
  0
LINE
  5
EC
  8
MAKE2D$VISIBLE$LINES
 10
915.9750593704962
 20
249.9999435820206
 30
0.0
 11
916.116201624824
 21
250.096004738242
 31
0.0
  0
LINE
  5
ED
  8
MAKE2D$VISIBLE$LINES
 10
916.116201624824
 20
250.096004738242
 30
0.0
 11
916.2539819618551
 21
250.1968286462146
 31
0.0
  0
LINE
  5
EE
  8
MAKE2D$VISIBLE$LINES
 10
916.2539819618551
 20
250.1968286462146
 30
0.0
 11
916.3882397358799
 21
250.3022977497721
 31
0.0
  0
LINE
  5
EF
  8
MAKE2D$VISIBLE$LINES
 10
916.3882397358799
 20
250.3022977497721
 30
0.0
 11
916.5188184083394
 21
250.4122890766573
 31
0.0
  0
LINE
  5
F0
  8
MAKE2D$VISIBLE$LINES
 10
916.5188184083394
 20
250.4122890766573
 30
0.0
 11
916.6455657303428
 21
250.5266743819035
 31
0.0
  0
LINE
  5
F1
  8
MAKE2D$VISIBLE$LINES
 10
916.6455657303428
 20
250.5266743819035
 30
0.0
 11
916.7683339201823
 21
250.6453202973614
 31
0.0
  0
LINE
  5
F2
  8
MAKE2D$VISIBLE$LINES
 10
916.7683339201823
 20
250.6453202973614
 30
0.0
 11
916.8869798356402
 21
250.7680884872009
 31
0.0
  0
LINE
  5
F3
  8
MAKE2D$VISIBLE$LINES
 10
916.8869798356402
 20
250.7680884872009
 30
0.0
 11
917.0013651408864
 21
250.8948358092043
 31
0.0
  0
LINE
  5
F4
  8
MAKE2D$VISIBLE$LINES
 10
917.0013651408864
 20
250.8948358092043
 30
0.0
 11
917.1113564677717
 21
251.0254144816638
 31
0.0
  0
LINE
  5
F5
  8
MAKE2D$VISIBLE$LINES
 10
917.1113564677717
 20
251.0254144816638
 30
0.0
 11
917.2168255713291
 21
251.1596722556887
 31
0.0
  0
LINE
  5
F6
  8
MAKE2D$VISIBLE$LINES
 10
917.2168255713291
 20
251.1596722556887
 30
0.0
 11
917.3176494793017
 21
251.2974525927198
 31
0.0
  0
LINE
  5
F7
  8
MAKE2D$VISIBLE$LINES
 10
917.3176494793017
 20
251.2974525927198
 30
0.0
 11
917.4137106355231
 21
251.4385948470475
 31
0.0
  0
LINE
  5
F8
  8
MAKE2D$VISIBLE$LINES
 10
917.4137106355231
 20
251.4385948470475
 30
0.0
 11
917.504897036982
 21
251.582934453117
 31
0.0
  0
LINE
  5
F9
  8
MAKE2D$VISIBLE$LINES
 10
917.504897036982
 20
251.582934453117
 30
0.0
 11
917.5911023644134
 21
251.7303031174041
 31
0.0
  0
LINE
  5
FA
  8
MAKE2D$VISIBLE$LINES
 10
917.5911023644134
 20
251.7303031174041
 30
0.0
 11
917.6722261062614
 21
251.8805290146383
 31
0.0
  0
LINE
  5
FB
  8
MAKE2D$VISIBLE$LINES
 10
917.6722261062614
 20
251.8805290146383
 30
0.0
 11
917.7481736758722
 21
252.0334369881436
 31
0.0
  0
LINE
  5
FC
  8
MAKE2D$VISIBLE$LINES
 10
917.7481736758722
 20
252.0334369881436
 30
0.0
 11
917.8188565217768
 21
252.1888487540628
 31
0.0
  0
LINE
  5
FD
  8
MAKE2D$VISIBLE$LINES
 10
917.8188565217768
 20
252.1888487540628
 30
0.0
 11
917.8841922309387
 21
252.3465831092288
 31
0.0
  0
LINE
  5
FE
  8
MAKE2D$VISIBLE$LINES
 10
917.8841922309387
 20
252.3465831092288
 30
0.0
 11
917.9441046248436
 21
252.5064561424392
 31
0.0
  0
LINE
  5
FF
  8
MAKE2D$VISIBLE$LINES
 10
917.9441046248436
 20
252.5064561424392
 30
0.0
 11
917.9985238483205
 21
252.6682814488887
 31
0.0
  0
LINE
  5
100
  8
MAKE2D$VISIBLE$LINES
 10
917.9985238483205
 20
252.6682814488887
 30
0.0
 11
918.0473864509886
 21
252.831870347509
 31
0.0
  0
LINE
  5
101
  8
MAKE2D$VISIBLE$LINES
 10
918.0473864509886
 20
252.831870347509
 30
0.0
 11
918.0906354612393
 21
252.9970321009619
 31
0.0
  0
LINE
  5
102
  8
MAKE2D$VISIBLE$LINES
 10
918.0906354612393
 20
252.9970321009619
 30
0.0
 11
918.1282204526613
 21
253.163574138031
 31
0.0
  0
LINE
  5
103
  8
MAKE2D$VISIBLE$LINES
 10
918.1282204526613
 20
253.163574138031
 30
0.0
 11
918.1600976028357
 21
253.3313022781508
 31
0.0
  0
LINE
  5
104
  8
MAKE2D$VISIBLE$LINES
 10
918.1600976028357
 20
253.3313022781508
 30
0.0
 11
918.1862297444313
 21
253.5000209578129
 31
0.0
  0
LINE
  5
105
  8
MAKE2D$VISIBLE$LINES
 10
918.1862297444313
 20
253.5000209578129
 30
0.0
 11
918.2065864085401
 21
253.6695334585839
 31
0.0
  0
LINE
  5
106
  8
MAKE2D$VISIBLE$LINES
 10
918.2065864085401
 20
253.6695334585839
 30
0.0
 11
918.2211438602023
 21
253.8396421364708
 31
0.0
  0
LINE
  5
107
  8
MAKE2D$VISIBLE$LINES
 10
918.2211438602023
 20
253.8396421364708
 30
0.0
 11
918.2298851260805
 21
254.0101486523642
 31
0.0
  0
LINE
  5
108
  8
MAKE2D$VISIBLE$LINES
 10
918.2298851260805
 20
254.0101486523642
 30
0.0
 11
918.2328000142496
 21
254.1808542032941
 31
0.0
  0
LINE
  5
109
  8
MAKE2D$VISIBLE$LINES
 10
918.2328000142496
 20
254.1808542032941
 30
0.0
 11
918.2328000142496
 21
261.6808542032941
 31
0.0
  0
LINE
  5
10A
  8
MAKE2D$VISIBLE$LINES
 10
918.2328000142496
 20
261.6808542032941
 30
0.0
 11
918.2328000142496
 21
269.1808542032941
 31
0.0
  0
LINE
  5
10B
  8
MAKE2D$VISIBLE$LINES
 10
918.2328000142496
 20
269.1808542032941
 30
0.0
 11
918.2298851260805
 21
269.351559754224
 31
0.0
  0
LINE
  5
10C
  8
MAKE2D$VISIBLE$LINES
 10
918.2298851260805
 20
269.351559754224
 30
0.0
 11
918.2211438602023
 21
269.5220662701174
 31
0.0
  0
LINE
  5
10D
  8
MAKE2D$VISIBLE$LINES
 10
918.2211438602023
 20
269.5220662701174
 30
0.0
 11
918.2065864085401
 21
269.6921749480043
 31
0.0
  0
LINE
  5
10E
  8
MAKE2D$VISIBLE$LINES
 10
918.2065864085401
 20
269.6921749480043
 30
0.0
 11
918.1862297444312
 21
269.8616874487753
 31
0.0
  0
LINE
  5
10F
  8
MAKE2D$VISIBLE$LINES
 10
918.1862297444312
 20
269.8616874487753
 30
0.0
 11
918.1600976028357
 21
270.0304061284374
 31
0.0
  0
LINE
  5
110
  8
MAKE2D$VISIBLE$LINES
 10
918.1600976028357
 20
270.0304061284374
 30
0.0
 11
918.1282204526613
 21
270.1981342685572
 31
0.0
  0
LINE
  5
111
  8
MAKE2D$VISIBLE$LINES
 10
918.1282204526613
 20
270.1981342685572
 30
0.0
 11
918.0906354612393
 21
270.3646763056263
 31
0.0
  0
LINE
  5
112
  8
MAKE2D$VISIBLE$LINES
 10
918.0906354612393
 20
270.3646763056263
 30
0.0
 11
918.0473864509886
 21
270.5298380590792
 31
0.0
  0
LINE
  5
113
  8
MAKE2D$VISIBLE$LINES
 10
918.0473864509886
 20
270.5298380590792
 30
0.0
 11
917.9985238483205
 21
270.6934269576994
 31
0.0
  0
LINE
  5
114
  8
MAKE2D$VISIBLE$LINES
 10
917.9985238483205
 20
270.6934269576994
 30
0.0
 11
917.9441046248437
 21
270.855252264149
 31
0.0
  0
LINE
  5
115
  8
MAKE2D$VISIBLE$LINES
 10
917.9441046248437
 20
270.855252264149
 30
0.0
 11
917.8841922309388
 21
271.0151252973594
 31
0.0
  0
LINE
  5
116
  8
MAKE2D$VISIBLE$LINES
 10
917.8841922309388
 20
271.0151252973594
 30
0.0
 11
917.818856521777
 21
271.1728596525252
 31
0.0
  0
LINE
  5
117
  8
MAKE2D$VISIBLE$LINES
 10
917.818856521777
 20
271.1728596525252
 30
0.0
 11
917.7481736758723
 21
271.3282714184444
 31
0.0
  0
LINE
  5
118
  8
MAKE2D$VISIBLE$LINES
 10
917.7481736758723
 20
271.3282714184444
 30
0.0
 11
917.6722261062615
 21
271.4811793919498
 31
0.0
  0
LINE
  5
119
  8
MAKE2D$VISIBLE$LINES
 10
917.6722261062615
 20
271.4811793919498
 30
0.0
 11
917.5911023644135
 21
271.6314052891841
 31
0.0
  0
LINE
  5
11A
  8
MAKE2D$VISIBLE$LINES
 10
917.5911023644135
 20
271.6314052891841
 30
0.0
 11
917.5048970369821
 21
271.7787739534712
 31
0.0
  0
LINE
  5
11B
  8
MAKE2D$VISIBLE$LINES
 10
917.5048970369821
 20
271.7787739534712
 30
0.0
 11
917.4137106355232
 21
271.9231135595407
 31
0.0
  0
LINE
  5
11C
  8
MAKE2D$VISIBLE$LINES
 10
917.4137106355232
 20
271.9231135595407
 30
0.0
 11
917.3176494793018
 21
272.0642558138684
 31
0.0
  0
LINE
  5
11D
  8
MAKE2D$VISIBLE$LINES
 10
917.3176494793018
 20
272.0642558138684
 30
0.0
 11
917.2168255713292
 21
272.2020361508995
 31
0.0
  0
LINE
  5
11E
  8
MAKE2D$VISIBLE$LINES
 10
917.2168255713292
 20
272.2020361508995
 30
0.0
 11
917.1113564677717
 21
272.3362939249243
 31
0.0
  0
LINE
  5
11F
  8
MAKE2D$VISIBLE$LINES
 10
917.1113564677717
 20
272.3362939249243
 30
0.0
 11
917.0013651408865
 21
272.4668725973839
 31
0.0
  0
LINE
  5
120
  8
MAKE2D$VISIBLE$LINES
 10
917.0013651408865
 20
272.4668725973839
 30
0.0
 11
916.8869798356403
 21
272.5936199193873
 31
0.0
  0
LINE
  5
121
  8
MAKE2D$VISIBLE$LINES
 10
916.8869798356403
 20
272.5936199193873
 30
0.0
 11
916.7683339201824
 21
272.7163881092268
 31
0.0
  0
LINE
  5
122
  8
MAKE2D$VISIBLE$LINES
 10
916.7683339201824
 20
272.7163881092268
 30
0.0
 11
916.6455657303429
 21
272.8350340246847
 31
0.0
  0
LINE
  5
123
  8
MAKE2D$VISIBLE$LINES
 10
916.6455657303429
 20
272.8350340246847
 30
0.0
 11
916.5188184083396
 21
272.9494193299308
 31
0.0
  0
LINE
  5
124
  8
MAKE2D$VISIBLE$LINES
 10
916.5188184083396
 20
272.9494193299308
 30
0.0
 11
916.3882397358799
 21
273.0594106568161
 31
0.0
  0
LINE
  5
125
  8
MAKE2D$VISIBLE$LINES
 10
916.3882397358799
 20
273.0594106568161
 30
0.0
 11
916.2539819618551
 21
273.1648797603736
 31
0.0
  0
LINE
  5
126
  8
MAKE2D$VISIBLE$LINES
 10
916.2539819618551
 20
273.1648797603736
 30
0.0
 11
916.116201624824
 21
273.2657036683462
 31
0.0
  0
LINE
  5
127
  8
MAKE2D$VISIBLE$LINES
 10
916.116201624824
 20
273.2657036683462
 30
0.0
 11
915.9750593704963
 21
273.3617648245676
 31
0.0
  0
LINE
  5
128
  8
MAKE2D$VISIBLE$LINES
 10
915.9750593704963
 20
273.3617648245676
 30
0.0
 11
915.8307197644269
 21
273.4529512260265
 31
0.0
  0
LINE
  5
129
  8
MAKE2D$VISIBLE$LINES
 10
915.8307197644269
 20
273.4529512260265
 30
0.0
 11
915.6833511001398
 21
273.5391565534578
 31
0.0
  0
LINE
  5
12A
  8
MAKE2D$VISIBLE$LINES
 10
915.6833511001398
 20
273.5391565534578
 30
0.0
 11
915.5331252029054
 21
273.6202802953059
 31
0.0
  0
LINE
  5
12B
  8
MAKE2D$VISIBLE$LINES
 10
915.5331252029054
 20
273.6202802953059
 30
0.0
 11
915.3802172294002
 21
273.6962278649167
 31
0.0
  0
LINE
  5
12C
  8
MAKE2D$VISIBLE$LINES
 10
915.3802172294002
 20
273.6962278649167
 30
0.0
 11
915.2248054634808
 21
273.7669107108213
 31
0.0
  0
LINE
  5
12D
  8
MAKE2D$VISIBLE$LINES
 10
915.2248054634808
 20
273.7669107108213
 30
0.0
 11
915.067071108315
 21
273.8322464199832
 31
0.0
  0
LINE
  5
12E
  8
MAKE2D$VISIBLE$LINES
 10
915.067071108315
 20
273.8322464199832
 30
0.0
 11
914.9071980751047
 21
273.8921588138881
 31
0.0
  0
LINE
  5
12F
  8
MAKE2D$VISIBLE$LINES
 10
914.9071980751047
 20
273.8921588138881
 30
0.0
 11
914.745372768655
 21
273.9465780373648
 31
0.0
  0
LINE
  5
130
  8
MAKE2D$VISIBLE$LINES
 10
914.745372768655
 20
273.9465780373648
 30
0.0
 11
914.5817838700349
 21
273.995440640033
 31
0.0
  0
LINE
  5
131
  8
MAKE2D$VISIBLE$LINES
 10
914.5817838700349
 20
273.995440640033
 30
0.0
 11
914.416622116582
 21
274.0386896502837
 31
0.0
  0
LINE
  5
132
  8
MAKE2D$VISIBLE$LINES
 10
914.416622116582
 20
274.0386896502837
 30
0.0
 11
914.2500800795128
 21
274.0762746417057
 31
0.0
  0
LINE
  5
133
  8
MAKE2D$VISIBLE$LINES
 10
914.2500800795128
 20
274.0762746417057
 30
0.0
 11
914.082351939393
 21
274.10815179188
 31
0.0
  0
LINE
  5
134
  8
MAKE2D$VISIBLE$LINES
 10
914.082351939393
 20
274.10815179188
 30
0.0
 11
913.9136332597309
 21
274.1342839334757
 31
0.0
  0
LINE
  5
135
  8
MAKE2D$VISIBLE$LINES
 10
913.9136332597309
 20
274.1342839334757
 30
0.0
 11
913.7441207589599
 21
274.1546405975845
 31
0.0
  0
LINE
  5
136
  8
MAKE2D$VISIBLE$LINES
 10
913.7441207589599
 20
274.1546405975845
 30
0.0
 11
913.5740120810731
 21
274.1691980492467
 31
0.0
  0
LINE
  5
137
  8
MAKE2D$VISIBLE$LINES
 10
913.5740120810731
 20
274.1691980492467
 30
0.0
 11
913.4035055651796
 21
274.1779393151249
 31
0.0
  0
LINE
  5
138
  8
MAKE2D$VISIBLE$LINES
 10
913.4035055651796
 20
274.1779393151249
 30
0.0
 11
913.2328000142497
 21
274.180854203294
 31
0.0
  0
LINE
  5
139
  8
MAKE2D$VISIBLE$LINES
 10
913.2328000142497
 20
274.180854203294
 30
0.0
 11
908.2328000142496
 21
274.1808542032941
 31
0.0
  0
LINE
  5
13A
  8
MAKE2D$VISIBLE$LINES
 10
908.2328000142496
 20
274.1808542032941
 30
0.0
 11
908.2328000142496
 21
278.9114149722579
 31
0.0
  0
LINE
  5
13B
  8
MAKE2D$VISIBLE$LINES
 10
908.2328000142496
 20
278.9114149722579
 30
0.0
 11
770.4198979352062
 21
278.9114149722577
 31
0.0
  0
LINE
  5
13C
  8
MAKE2D$VISIBLE$LINES
 10
770.4198979352062
 20
278.9114149722577
 30
0.0
 11
770.4198979352062
 21
275.9114149722577
 31
0.0
  0
LINE
  5
13D
  8
MAKE2D$VISIBLE$LINES
 10
745.4198979352062
 20
214.7111604789382
 30
0.0
 11
745.4198979352062
 21
217.6111604830469
 31
0.0
  0
LINE
  5
13E
  8
MAKE2D$VISIBLE$LINES
 10
745.4198979352062
 20
217.6111604830469
 30
0.0
 11
732.9198979352062
 21
217.6111604830467
 31
0.0
  0
LINE
  5
13F
  8
MAKE2D$VISIBLE$LINES
 10
732.9198979352062
 20
217.6111604830467
 30
0.0
 11
732.9198979352062
 21
219.7110760055682
 31
0.0
  0
LINE
  5
140
  8
MAKE2D$VISIBLE$LINES
 10
732.9198979352062
 20
219.7110760055682
 30
0.0
 11
732.9228128233755
 21
219.8817815564982
 31
0.0
  0
LINE
  5
141
  8
MAKE2D$VISIBLE$LINES
 10
732.9228128233755
 20
219.8817815564982
 30
0.0
 11
732.9315540892536
 21
220.0522880723914
 31
0.0
  0
LINE
  5
142
  8
MAKE2D$VISIBLE$LINES
 10
732.9315540892536
 20
220.0522880723914
 30
0.0
 11
732.9461115409159
 21
220.2223967502784
 31
0.0
  0
LINE
  5
143
  8
MAKE2D$VISIBLE$LINES
 10
732.9461115409159
 20
220.2223967502784
 30
0.0
 11
732.9664682050247
 21
220.3919092510496
 31
0.0
  0
LINE
  5
144
  8
MAKE2D$VISIBLE$LINES
 10
732.9664682050247
 20
220.3919092510496
 30
0.0
 11
732.9926003466204
 21
220.5606279307118
 31
0.0
  0
LINE
  5
145
  8
MAKE2D$VISIBLE$LINES
 10
732.9926003466204
 20
220.5606279307118
 30
0.0
 11
733.0244774967947
 21
220.7283560708314
 31
0.0
  0
LINE
  5
146
  8
MAKE2D$VISIBLE$LINES
 10
733.0244774967947
 20
220.7283560708314
 30
0.0
 11
733.0620624882166
 21
220.8948981079001
 31
0.0
  0
LINE
  5
147
  8
MAKE2D$VISIBLE$LINES
 10
733.0620624882166
 20
220.8948981079001
 30
0.0
 11
733.1053114984674
 21
221.0600598613532
 31
0.0
  0
LINE
  5
148
  8
MAKE2D$VISIBLE$LINES
 10
733.1053114984674
 20
221.0600598613532
 30
0.0
 11
733.1541741011356
 21
221.2236487599736
 31
0.0
  0
LINE
  5
149
  8
MAKE2D$VISIBLE$LINES
 10
733.1541741011356
 20
221.2236487599736
 30
0.0
 11
733.2085933246123
 21
221.3854740664228
 31
0.0
  0
LINE
  5
14A
  8
MAKE2D$VISIBLE$LINES
 10
733.2085933246123
 20
221.3854740664228
 30
0.0
 11
733.2685057185172
 21
221.5453470996333
 31
0.0
  0
LINE
  5
14B
  8
MAKE2D$VISIBLE$LINES
 10
733.2685057185172
 20
221.5453470996333
 30
0.0
 11
733.3338414276792
 21
221.7030814547994
 31
0.0
  0
LINE
  5
14C
  8
MAKE2D$VISIBLE$LINES
 10
733.3338414276792
 20
221.7030814547994
 30
0.0
 11
733.4045242735837
 21
221.8584932207183
 31
0.0
  0
LINE
  5
14D
  8
MAKE2D$VISIBLE$LINES
 10
733.4045242735837
 20
221.8584932207183
 30
0.0
 11
733.4804718431946
 21
222.0114011942238
 31
0.0
  0
LINE
  5
14E
  8
MAKE2D$VISIBLE$LINES
 10
733.4804718431946
 20
222.0114011942238
 30
0.0
 11
733.5615955850427
 21
222.1616270914583
 31
0.0
  0
LINE
  5
14F
  8
MAKE2D$VISIBLE$LINES
 10
733.5615955850427
 20
222.1616270914583
 30
0.0
 11
733.647800912474
 21
222.3089957557455
 31
0.0
  0
LINE
  5
150
  8
MAKE2D$VISIBLE$LINES
 10
733.647800912474
 20
222.3089957557455
 30
0.0
 11
733.7389873139329
 21
222.4533353618146
 31
0.0
  0
LINE
  5
151
  8
MAKE2D$VISIBLE$LINES
 10
733.7389873139329
 20
222.4533353618146
 30
0.0
 11
733.8350484701543
 21
222.5944776161425
 31
0.0
  0
LINE
  5
152
  8
MAKE2D$VISIBLE$LINES
 10
733.8350484701543
 20
222.5944776161425
 30
0.0
 11
733.9358723781271
 21
222.7322579531738
 31
0.0
  0
LINE
  5
153
  8
MAKE2D$VISIBLE$LINES
 10
733.9358723781271
 20
222.7322579531738
 30
0.0
 11
734.0413414816843
 21
222.8665157271983
 31
0.0
  0
LINE
  5
154
  8
MAKE2D$VISIBLE$LINES
 10
734.0413414816843
 20
222.8665157271983
 30
0.0
 11
734.1513328085697
 21
222.997094399658
 31
0.0
  0
LINE
  5
155
  8
MAKE2D$VISIBLE$LINES
 10
734.1513328085697
 20
222.997094399658
 30
0.0
 11
734.2657181138158
 21
223.1238417216612
 31
0.0
  0
LINE
  5
156
  8
MAKE2D$VISIBLE$LINES
 10
734.2657181138158
 20
223.1238417216612
 30
0.0
 11
734.3843640292737
 21
223.2466099115008
 31
0.0
  0
LINE
  5
157
  8
MAKE2D$VISIBLE$LINES
 10
734.3843640292737
 20
223.2466099115008
 30
0.0
 11
734.5071322191133
 21
223.3652558269587
 31
0.0
  0
LINE
  5
158
  8
MAKE2D$VISIBLE$LINES
 10
734.5071322191133
 20
223.3652558269587
 30
0.0
 11
734.6338795411168
 21
223.479641132205
 31
0.0
  0
LINE
  5
159
  8
MAKE2D$VISIBLE$LINES
 10
734.6338795411168
 20
223.479641132205
 30
0.0
 11
734.7644582135762
 21
223.5896324590901
 31
0.0
  0
LINE
  5
15A
  8
MAKE2D$VISIBLE$LINES
 10
734.7644582135762
 20
223.5896324590901
 30
0.0
 11
734.8987159876008
 21
223.6951015626474
 31
0.0
  0
LINE
  5
15B
  8
MAKE2D$VISIBLE$LINES
 10
734.8987159876008
 20
223.6951015626474
 30
0.0
 11
735.036496324632
 21
223.7959254706201
 31
0.0
  0
LINE
  5
15C
  8
MAKE2D$VISIBLE$LINES
 10
735.036496324632
 20
223.7959254706201
 30
0.0
 11
735.1776385789599
 21
223.8919866268415
 31
0.0
  0
LINE
  5
15D
  8
MAKE2D$VISIBLE$LINES
 10
735.1776385789599
 20
223.8919866268415
 30
0.0
 11
735.3219781850294
 21
223.9831730283005
 31
0.0
  0
LINE
  5
15E
  8
MAKE2D$VISIBLE$LINES
 10
735.3219781850294
 20
223.9831730283005
 30
0.0
 11
735.4693468493166
 21
224.0693783557319
 31
0.0
  0
LINE
  5
15F
  8
MAKE2D$VISIBLE$LINES
 10
735.4693468493166
 20
224.0693783557319
 30
0.0
 11
735.6195727465507
 21
224.1505020975799
 31
0.0
  0
LINE
  5
160
  8
MAKE2D$VISIBLE$LINES
 10
735.6195727465507
 20
224.1505020975799
 30
0.0
 11
735.7724807200561
 21
224.2264496671907
 31
0.0
  0
LINE
  5
161
  8
MAKE2D$VISIBLE$LINES
 10
735.7724807200561
 20
224.2264496671907
 30
0.0
 11
735.9278924859751
 21
224.2971325130952
 31
0.0
  0
LINE
  5
162
  8
MAKE2D$VISIBLE$LINES
 10
735.9278924859751
 20
224.2971325130952
 30
0.0
 11
736.0856268411412
 21
224.3624682222571
 31
0.0
  0
LINE
  5
163
  8
MAKE2D$VISIBLE$LINES
 10
736.0856268411412
 20
224.3624682222571
 30
0.0
 11
736.2454998743513
 21
224.422380616162
 31
0.0
  0
LINE
  5
164
  8
MAKE2D$VISIBLE$LINES
 10
736.2454998743513
 20
224.422380616162
 30
0.0
 11
736.4073251808014
 21
224.4767998396389
 31
0.0
  0
LINE
  5
165
  8
MAKE2D$VISIBLE$LINES
 10
736.4073251808014
 20
224.4767998396389
 30
0.0
 11
736.5709140794213
 21
224.525662442307
 31
0.0
  0
LINE
  5
166
  8
MAKE2D$VISIBLE$LINES
 10
736.5709140794213
 20
224.525662442307
 30
0.0
 11
736.7360758328743
 21
224.5689114525577
 31
0.0
  0
LINE
  5
167
  8
MAKE2D$VISIBLE$LINES
 10
736.7360758328743
 20
224.5689114525577
 30
0.0
 11
736.9026178699431
 21
224.6064964439795
 31
0.0
  0
LINE
  5
168
  8
MAKE2D$VISIBLE$LINES
 10
736.9026178699431
 20
224.6064964439795
 30
0.0
 11
737.0703460100632
 21
224.6383735941539
 31
0.0
  0
LINE
  5
169
  8
MAKE2D$VISIBLE$LINES
 10
737.0703460100632
 20
224.6383735941539
 30
0.0
 11
737.2390646897254
 21
224.6645057357496
 31
0.0
  0
LINE
  5
16A
  8
MAKE2D$VISIBLE$LINES
 10
737.2390646897254
 20
224.6645057357496
 30
0.0
 11
737.4085771904962
 21
224.6848623998584
 31
0.0
  0
LINE
  5
16B
  8
MAKE2D$VISIBLE$LINES
 10
737.4085771904962
 20
224.6848623998584
 30
0.0
 11
737.5786858683831
 21
224.6994198515206
 31
0.0
  0
LINE
  5
16C
  8
MAKE2D$VISIBLE$LINES
 10
737.5786858683831
 20
224.6994198515206
 30
0.0
 11
737.7491923842764
 21
224.7081611173988
 31
0.0
  0
LINE
  5
16D
  8
MAKE2D$VISIBLE$LINES
 10
737.7491923842764
 20
224.7081611173988
 30
0.0
 11
737.9198979352063
 21
224.7110760055679
 31
0.0
  0
LINE
  5
16E
  8
MAKE2D$VISIBLE$LINES
 10
737.9198979352063
 20
224.7110760055679
 30
0.0
 11
757.9198979352062
 21
224.711076005568
 31
0.0
  0
LINE
  5
16F
  8
MAKE2D$VISIBLE$LINES
 10
757.9198979352062
 20
224.711076005568
 30
0.0
 11
777.9198979352062
 21
224.711076005568
 31
0.0
  0
LINE
  5
170
  8
MAKE2D$VISIBLE$LINES
 10
777.9198979352062
 20
224.711076005568
 30
0.0
 11
778.0906034861358
 21
224.7081611173988
 31
0.0
  0
LINE
  5
171
  8
MAKE2D$VISIBLE$LINES
 10
778.0906034861358
 20
224.7081611173988
 30
0.0
 11
778.2611100020295
 21
224.6994198515206
 31
0.0
  0
LINE
  5
172
  8
MAKE2D$VISIBLE$LINES
 10
778.2611100020295
 20
224.6994198515206
 30
0.0
 11
778.4312186799165
 21
224.6848623998584
 31
0.0
  0
LINE
  5
173
  8
MAKE2D$VISIBLE$LINES
 10
778.4312186799165
 20
224.6848623998584
 30
0.0
 11
778.6007311806877
 21
224.6645057357496
 31
0.0
  0
LINE
  5
174
  8
MAKE2D$VISIBLE$LINES
 10
778.6007311806877
 20
224.6645057357496
 30
0.0
 11
778.7694498603499
 21
224.6383735941539
 31
0.0
  0
LINE
  5
175
  8
MAKE2D$VISIBLE$LINES
 10
778.7694498603499
 20
224.6383735941539
 30
0.0
 11
778.9371780004694
 21
224.6064964439796
 31
0.0
  0
LINE
  5
176
  8
MAKE2D$VISIBLE$LINES
 10
778.9371780004694
 20
224.6064964439796
 30
0.0
 11
779.1037200375382
 21
224.5689114525577
 31
0.0
  0
LINE
  5
177
  8
MAKE2D$VISIBLE$LINES
 10
779.1037200375382
 20
224.5689114525577
 30
0.0
 11
779.2688817909913
 21
224.525662442307
 31
0.0
  0
LINE
  5
178
  8
MAKE2D$VISIBLE$LINES
 10
779.2688817909913
 20
224.525662442307
 30
0.0
 11
779.4324706896117
 21
224.4767998396387
 31
0.0
  0
LINE
  5
179
  8
MAKE2D$VISIBLE$LINES
 10
779.4324706896117
 20
224.4767998396387
 30
0.0
 11
779.5942959960614
 21
224.422380616162
 31
0.0
  0
LINE
  5
17A
  8
MAKE2D$VISIBLE$LINES
 10
779.5942959960614
 20
224.422380616162
 30
0.0
 11
779.7541690292715
 21
224.3624682222571
 31
0.0
  0
LINE
  5
17B
  8
MAKE2D$VISIBLE$LINES
 10
779.7541690292715
 20
224.3624682222571
 30
0.0
 11
779.9119033844376
 21
224.2971325130952
 31
0.0
  0
LINE
  5
17C
  8
MAKE2D$VISIBLE$LINES
 10
779.9119033844376
 20
224.2971325130952
 30
0.0
 11
780.0673151503569
 21
224.2264496671905
 31
0.0
  0
LINE
  5
17D
  8
MAKE2D$VISIBLE$LINES
 10
780.0673151503569
 20
224.2264496671905
 30
0.0
 11
780.220223123862
 21
224.1505020975798
 31
0.0
  0
LINE
  5
17E
  8
MAKE2D$VISIBLE$LINES
 10
780.220223123862
 20
224.1505020975798
 30
0.0
 11
780.3704490210961
 21
224.0693783557319
 31
0.0
  0
LINE
  5
17F
  8
MAKE2D$VISIBLE$LINES
 10
780.3704490210961
 20
224.0693783557319
 30
0.0
 11
780.5178176853832
 21
223.9831730283005
 31
0.0
  0
LINE
  5
180
  8
MAKE2D$VISIBLE$LINES
 10
780.5178176853832
 20
223.9831730283005
 30
0.0
 11
780.6621572914528
 21
223.8919866268415
 31
0.0
  0
LINE
  5
181
  8
MAKE2D$VISIBLE$LINES
 10
780.6621572914528
 20
223.8919866268415
 30
0.0
 11
780.8032995457806
 21
223.7959254706201
 31
0.0
  0
LINE
  5
182
  8
MAKE2D$VISIBLE$LINES
 10
780.8032995457806
 20
223.7959254706201
 30
0.0
 11
780.9410798828119
 21
223.6951015626473
 31
0.0
  0
LINE
  5
183
  8
MAKE2D$VISIBLE$LINES
 10
780.9410798828119
 20
223.6951015626473
 30
0.0
 11
781.0753376568362
 21
223.5896324590904
 31
0.0
  0
LINE
  5
184
  8
MAKE2D$VISIBLE$LINES
 10
781.0753376568362
 20
223.5896324590904
 30
0.0
 11
781.2059163292962
 21
223.4796411322047
 31
0.0
  0
LINE
  5
185
  8
MAKE2D$VISIBLE$LINES
 10
781.2059163292962
 20
223.4796411322047
 30
0.0
 11
781.3326636512994
 21
223.3652558269587
 31
0.0
  0
LINE
  5
186
  8
MAKE2D$VISIBLE$LINES
 10
781.3326636512994
 20
223.3652558269587
 30
0.0
 11
781.455431841139
 21
223.2466099115007
 31
0.0
  0
LINE
  5
187
  8
MAKE2D$VISIBLE$LINES
 10
781.455431841139
 20
223.2466099115007
 30
0.0
 11
781.5740777565969
 21
223.1238417216611
 31
0.0
  0
LINE
  5
188
  8
MAKE2D$VISIBLE$LINES
 10
781.5740777565969
 20
223.1238417216611
 30
0.0
 11
781.6884630618432
 21
222.9970943996576
 31
0.0
  0
LINE
  5
189
  8
MAKE2D$VISIBLE$LINES
 10
781.6884630618432
 20
222.9970943996576
 30
0.0
 11
781.7984543887284
 21
222.8665157271982
 31
0.0
  0
LINE
  5
18A
  8
MAKE2D$VISIBLE$LINES
 10
781.7984543887284
 20
222.8665157271982
 30
0.0
 11
781.9039234922856
 21
222.7322579531737
 31
0.0
  0
LINE
  5
18B
  8
MAKE2D$VISIBLE$LINES
 10
781.9039234922856
 20
222.7322579531737
 30
0.0
 11
782.0047474002583
 21
222.5944776161424
 31
0.0
  0
LINE
  5
18C
  8
MAKE2D$VISIBLE$LINES
 10
782.0047474002583
 20
222.5944776161424
 30
0.0
 11
782.1008085564798
 21
222.4533353618145
 31
0.0
  0
LINE
  5
18D
  8
MAKE2D$VISIBLE$LINES
 10
782.1008085564798
 20
222.4533353618145
 30
0.0
 11
782.1919949579387
 21
222.308995755745
 31
0.0
  0
LINE
  5
18E
  8
MAKE2D$VISIBLE$LINES
 10
782.1919949579387
 20
222.308995755745
 30
0.0
 11
782.27820028537
 21
222.1616270914581
 31
0.0
  0
LINE
  5
18F
  8
MAKE2D$VISIBLE$LINES
 10
782.27820028537
 20
222.1616270914581
 30
0.0
 11
782.3593240272181
 21
222.0114011942237
 31
0.0
  0
LINE
  5
190
  8
MAKE2D$VISIBLE$LINES
 10
782.3593240272181
 20
222.0114011942237
 30
0.0
 11
782.4352715968288
 21
221.8584932207186
 31
0.0
  0
LINE
  5
191
  8
MAKE2D$VISIBLE$LINES
 10
782.4352715968288
 20
221.8584932207186
 30
0.0
 11
782.5059544427336
 21
221.7030814547993
 31
0.0
  0
LINE
  5
192
  8
MAKE2D$VISIBLE$LINES
 10
782.5059544427336
 20
221.7030814547993
 30
0.0
 11
782.5712901518954
 21
221.5453470996336
 31
0.0
  0
LINE
  5
193
  8
MAKE2D$VISIBLE$LINES
 10
782.5712901518954
 20
221.5453470996336
 30
0.0
 11
782.6312025458005
 21
221.3854740664227
 31
0.0
  0
LINE
  5
194
  8
MAKE2D$VISIBLE$LINES
 10
782.6312025458005
 20
221.3854740664227
 30
0.0
 11
782.6856217692771
 21
221.2236487599734
 31
0.0
  0
LINE
  5
195
  8
MAKE2D$VISIBLE$LINES
 10
782.6856217692771
 20
221.2236487599734
 30
0.0
 11
782.7344843719453
 21
221.060059861353
 31
0.0
  0
LINE
  5
196
  8
MAKE2D$VISIBLE$LINES
 10
782.7344843719453
 20
221.060059861353
 30
0.0
 11
782.7777333821961
 21
220.8948981079
 31
0.0
  0
LINE
  5
197
  8
MAKE2D$VISIBLE$LINES
 10
782.7777333821961
 20
220.8948981079
 30
0.0
 11
782.815318373618
 21
220.7283560708312
 31
0.0
  0
LINE
  5
198
  8
MAKE2D$VISIBLE$LINES
 10
782.815318373618
 20
220.7283560708312
 30
0.0
 11
782.8471955237923
 21
220.5606279307116
 31
0.0
  0
LINE
  5
199
  8
MAKE2D$VISIBLE$LINES
 10
782.8471955237923
 20
220.5606279307116
 30
0.0
 11
782.873327665388
 21
220.3919092510489
 31
0.0
  0
LINE
  5
19A
  8
MAKE2D$VISIBLE$LINES
 10
782.873327665388
 20
220.3919092510489
 30
0.0
 11
782.8936843294969
 21
220.2223967502782
 31
0.0
  0
LINE
  5
19B
  8
MAKE2D$VISIBLE$LINES
 10
782.8936843294969
 20
220.2223967502782
 30
0.0
 11
782.9082417811591
 21
220.0522880723916
 31
0.0
  0
LINE
  5
19C
  8
MAKE2D$VISIBLE$LINES
 10
782.9082417811591
 20
220.0522880723916
 30
0.0
 11
782.9169830470372
 21
219.8817815564975
 31
0.0
  0
LINE
  5
19D
  8
MAKE2D$VISIBLE$LINES
 10
782.9169830470372
 20
219.8817815564975
 30
0.0
 11
782.9198979352063
 21
219.711076005568
 31
0.0
  0
LINE
  5
19E
  8
MAKE2D$VISIBLE$LINES
 10
782.9198979352063
 20
219.711076005568
 30
0.0
 11
782.9198979352062
 21
217.6111604830467
 31
0.0
  0
LINE
  5
19F
  8
MAKE2D$VISIBLE$LINES
 10
782.9198979352062
 20
217.6111604830467
 30
0.0
 11
770.4198979352062
 21
217.6111604830469
 31
0.0
  0
LINE
  5
1A0
  8
MAKE2D$VISIBLE$LINES
 10
770.4198979352062
 20
217.6111604830469
 30
0.0
 11
770.4198979352062
 21
214.7111604830468
 31
0.0
  0
LINE
  5
1A1
  8
MAKE2D$VISIBLE$LINES
 10
770.4198979352062
 20
214.7111604830468
 30
0.0
 11
908.2328000142496
 21
214.7111604830473
 31
0.0
  0
LINE
  5
1A2
  8
MAKE2D$VISIBLE$LINES
 10
908.2328000142496
 20
214.7111604830473
 30
0.0
 11
908.2328000142496
 21
201.4741070225543
 31
0.0
  0
LINE
  5
1A3
  8
MAKE2D$VISIBLE$LINES
 10
908.2328000142496
 20
201.4741070225543
 30
0.0
 11
908.2328000142497
 21
176.4741070225546
 31
0.0
  0
LINE
  5
1A4
  8
MAKE2D$VISIBLE$LINES
 10
908.2328000142497
 20
176.4741070225546
 30
0.0
 11
908.2328000142496
 21
163.9741070225546
 31
0.0
  0
LINE
  5
1A5
  8
MAKE2D$VISIBLE$LINES
 10
908.2328000142496
 20
163.9741070225546
 30
0.0
 11
911.1328000142496
 21
163.9741070225546
 31
0.0
  0
LINE
  5
1A6
  8
MAKE2D$VISIBLE$LINES
 10
911.1328000142496
 20
163.9741070225546
 30
0.0
 11
911.1328000142495
 21
176.4741070225546
 31
0.0
  0
LINE
  5
1A7
  8
MAKE2D$VISIBLE$LINES
 10
911.1328000142495
 20
176.4741070225546
 30
0.0
 11
913.232715536771
 21
176.4741070225546
 31
0.0
  0
LINE
  5
1A8
  8
MAKE2D$VISIBLE$LINES
 10
913.232715536771
 20
176.4741070225546
 30
0.0
 11
913.4034210877005
 21
176.4711921343854
 31
0.0
  0
LINE
  5
1A9
  8
MAKE2D$VISIBLE$LINES
 10
913.4034210877005
 20
176.4711921343854
 30
0.0
 11
913.5739276035943
 21
176.4624508685073
 31
0.0
  0
LINE
  5
1AA
  8
MAKE2D$VISIBLE$LINES
 10
913.5739276035943
 20
176.4624508685073
 30
0.0
 11
913.7440362814812
 21
176.447893416845
 31
0.0
  0
LINE
  5
1AB
  8
MAKE2D$VISIBLE$LINES
 10
913.7440362814812
 20
176.447893416845
 30
0.0
 11
913.913548782252
 21
176.4275367527362
 31
0.0
  0
LINE
  5
1AC
  8
MAKE2D$VISIBLE$LINES
 10
913.913548782252
 20
176.4275367527362
 30
0.0
 11
914.0822674619142
 21
176.4014046111405
 31
0.0
  0
LINE
  5
1AD
  8
MAKE2D$VISIBLE$LINES
 10
914.0822674619142
 20
176.4014046111405
 30
0.0
 11
914.2499956020347
 21
176.369527460966
 31
0.0
  0
LINE
  5
1AE
  8
MAKE2D$VISIBLE$LINES
 10
914.2499956020347
 20
176.369527460966
 30
0.0
 11
914.4165376391035
 21
176.3319424695442
 31
0.0
  0
LINE
  5
1AF
  8
MAKE2D$VISIBLE$LINES
 10
914.4165376391035
 20
176.3319424695442
 30
0.0
 11
914.5816993925561
 21
176.2886934592935
 31
0.0
  0
LINE
  5
1B0
  8
MAKE2D$VISIBLE$LINES
 10
914.5816993925561
 20
176.2886934592935
 30
0.0
 11
914.7452882911764
 21
176.2398308566253
 31
0.0
  0
LINE
  5
1B1
  8
MAKE2D$VISIBLE$LINES
 10
914.7452882911764
 20
176.2398308566253
 30
0.0
 11
914.9071135976261
 21
176.1854116331485
 31
0.0
  0
LINE
  5
1B2
  8
MAKE2D$VISIBLE$LINES
 10
914.9071135976261
 20
176.1854116331485
 30
0.0
 11
915.0669866308361
 21
176.1254992392437
 31
0.0
  0
LINE
  5
1B3
  8
MAKE2D$VISIBLE$LINES
 10
915.0669866308361
 20
176.1254992392437
 30
0.0
 11
915.2247209860022
 21
176.0601635300817
 31
0.0
  0
LINE
  5
1B4
  8
MAKE2D$VISIBLE$LINES
 10
915.2247209860022
 20
176.0601635300817
 30
0.0
 11
915.3801327519211
 21
175.9894806841772
 31
0.0
  0
LINE
  5
1B5
  8
MAKE2D$VISIBLE$LINES
 10
915.3801327519211
 20
175.9894806841772
 30
0.0
 11
915.5330407254266
 21
175.9135331145664
 31
0.0
  0
LINE
  5
1B6
  8
MAKE2D$VISIBLE$LINES
 10
915.5330407254266
 20
175.9135331145664
 30
0.0
 11
915.6832666226611
 21
175.8324093727182
 31
0.0
  0
LINE
  5
1B7
  8
MAKE2D$VISIBLE$LINES
 10
915.6832666226611
 20
175.8324093727182
 30
0.0
 11
915.8306352869483
 21
175.7462040452868
 31
0.0
  0
LINE
  5
1B8
  8
MAKE2D$VISIBLE$LINES
 10
915.8306352869483
 20
175.7462040452868
 30
0.0
 11
915.9749748930175
 21
175.655017643828
 31
0.0
  0
LINE
  5
1B9
  8
MAKE2D$VISIBLE$LINES
 10
915.9749748930175
 20
175.655017643828
 30
0.0
 11
916.116117147345
 21
175.5589564876069
 31
0.0
  0
LINE
  5
1BA
  8
MAKE2D$VISIBLE$LINES
 10
916.116117147345
 20
175.5589564876069
 30
0.0
 11
916.2538974843762
 21
175.4581325796341
 31
0.0
  0
LINE
  5
1BB
  8
MAKE2D$VISIBLE$LINES
 10
916.2538974843762
 20
175.4581325796341
 30
0.0
 11
916.3881552584012
 21
175.3526634760766
 31
0.0
  0
LINE
  5
1BC
  8
MAKE2D$VISIBLE$LINES
 10
916.3881552584012
 20
175.3526634760766
 30
0.0
 11
916.5187339308609
 21
175.2426721491912
 31
0.0
  0
LINE
  5
1BD
  8
MAKE2D$VISIBLE$LINES
 10
916.5187339308609
 20
175.2426721491912
 30
0.0
 11
916.645481252864
 21
175.1282868439452
 31
0.0
  0
LINE
  5
1BE
  8
MAKE2D$VISIBLE$LINES
 10
916.645481252864
 20
175.1282868439452
 30
0.0
 11
916.7682494427036
 21
175.0096409284872
 31
0.0
  0
LINE
  5
1BF
  8
MAKE2D$VISIBLE$LINES
 10
916.7682494427036
 20
175.0096409284872
 30
0.0
 11
916.8868953581616
 21
174.8868727386476
 31
0.0
  0
LINE
  5
1C0
  8
MAKE2D$VISIBLE$LINES
 10
916.8868953581616
 20
174.8868727386476
 30
0.0
 11
917.0012806634076
 21
174.7601254166445
 31
0.0
  0
LINE
  5
1C1
  8
MAKE2D$VISIBLE$LINES
 10
917.0012806634076
 20
174.7601254166445
 30
0.0
 11
917.111271990293
 21
174.6295467441847
 31
0.0
  0
LINE
  5
1C2
  8
MAKE2D$VISIBLE$LINES
 10
917.111271990293
 20
174.6295467441847
 30
0.0
 11
917.2167410938505
 21
174.4952889701598
 31
0.0
  0
LINE
  5
1C3
  8
MAKE2D$VISIBLE$LINES
 10
917.2167410938505
 20
174.4952889701598
 30
0.0
 11
917.317565001823
 21
174.3575086331289
 31
0.0
  0
LINE
  5
1C4
  8
MAKE2D$VISIBLE$LINES
 10
917.317565001823
 20
174.3575086331289
 30
0.0
 11
917.4136261580444
 21
174.216366378801
 31
0.0
  0
LINE
  5
1C5
  8
MAKE2D$VISIBLE$LINES
 10
917.4136261580444
 20
174.216366378801
 30
0.0
 11
917.5048125595032
 21
174.0720267727319
 31
0.0
  0
LINE
  5
1C6
  8
MAKE2D$VISIBLE$LINES
 10
917.5048125595032
 20
174.0720267727319
 30
0.0
 11
917.5910178869345
 21
173.9246581084447
 31
0.0
  0
LINE
  5
1C7
  8
MAKE2D$VISIBLE$LINES
 10
917.5910178869345
 20
173.9246581084447
 30
0.0
 11
917.6721416287827
 21
173.7744322112102
 31
0.0
  0
LINE
  5
1C8
  8
MAKE2D$VISIBLE$LINES
 10
917.6721416287827
 20
173.7744322112102
 30
0.0
 11
917.7480891983936
 21
173.6215242377047
 31
0.0
  0
LINE
  5
1C9
  8
MAKE2D$VISIBLE$LINES
 10
917.7480891983936
 20
173.6215242377047
 30
0.0
 11
917.818772044298
 21
173.4661124717858
 31
0.0
  0
LINE
  5
1CA
  8
MAKE2D$VISIBLE$LINES
 10
917.818772044298
 20
173.4661124717858
 30
0.0
 11
917.8841077534598
 21
173.3083781166201
 31
0.0
  0
LINE
  5
1CB
  8
MAKE2D$VISIBLE$LINES
 10
917.8841077534598
 20
173.3083781166201
 30
0.0
 11
917.9440201473649
 21
173.1485050834096
 31
0.0
  0
LINE
  5
1CC
  8
MAKE2D$VISIBLE$LINES
 10
917.9440201473649
 20
173.1485050834096
 30
0.0
 11
917.9984393708417
 21
172.98667977696
 31
0.0
  0
LINE
  5
1CD
  8
MAKE2D$VISIBLE$LINES
 10
917.9984393708417
 20
172.98667977696
 30
0.0
 11
918.0473019735098
 21
172.8230908783395
 31
0.0
  0
LINE
  5
1CE
  8
MAKE2D$VISIBLE$LINES
 10
918.0473019735098
 20
172.8230908783395
 30
0.0
 11
918.0905509837605
 21
172.6579291248869
 31
0.0
  0
LINE
  5
1CF
  8
MAKE2D$VISIBLE$LINES
 10
918.0905509837605
 20
172.6579291248869
 30
0.0
 11
918.1281359751824
 21
172.4913870878177
 31
0.0
  0
LINE
  5
1D0
  8
MAKE2D$VISIBLE$LINES
 10
918.1281359751824
 20
172.4913870878177
 30
0.0
 11
918.1600131253568
 21
172.3236589476978
 31
0.0
  0
LINE
  5
1D1
  8
MAKE2D$VISIBLE$LINES
 10
918.1600131253568
 20
172.3236589476978
 30
0.0
 11
918.1861452669524
 21
172.1549402680359
 31
0.0
  0
LINE
  5
1D2
  8
MAKE2D$VISIBLE$LINES
 10
918.1861452669524
 20
172.1549402680359
 30
0.0
 11
918.2065019310613
 21
171.9854277672648
 31
0.0
  0
LINE
  5
1D3
  8
MAKE2D$VISIBLE$LINES
 10
918.2065019310613
 20
171.9854277672648
 30
0.0
 11
918.2210593827235
 21
171.8153190893782
 31
0.0
  0
LINE
  5
1D4
  8
MAKE2D$VISIBLE$LINES
 10
918.2210593827235
 20
171.8153190893782
 30
0.0
 11
918.2298006486017
 21
171.6448125734841
 31
0.0
  0
LINE
  5
1D5
  8
MAKE2D$VISIBLE$LINES
 10
918.2298006486017
 20
171.6448125734841
 30
0.0
 11
918.2327155367708
 21
171.4741070225546
 31
0.0
  0
LINE
  5
1D6
  8
MAKE2D$VISIBLE$LINES
 10
918.2327155367708
 20
171.4741070225546
 30
0.0
 11
918.2327155367708
 21
151.4741070225546
 31
0.0
  0
LINE
  5
1D7
  8
MAKE2D$VISIBLE$LINES
 10
918.2327155367708
 20
151.4741070225546
 30
0.0
 11
918.2327155367708
 21
131.4741070225546
 31
0.0
  0
LINE
  5
1D8
  8
MAKE2D$VISIBLE$LINES
 10
918.2327155367708
 20
131.4741070225546
 30
0.0
 11
918.2298006486018
 21
131.303401471625
 31
0.0
  0
LINE
  5
1D9
  8
MAKE2D$VISIBLE$LINES
 10
918.2298006486018
 20
131.303401471625
 30
0.0
 11
918.2210593827236
 21
131.1328949557313
 31
0.0
  0
LINE
  5
1DA
  8
MAKE2D$VISIBLE$LINES
 10
918.2210593827236
 20
131.1328949557313
 30
0.0
 11
918.2065019310613
 21
130.9627862778443
 31
0.0
  0
LINE
  5
1DB
  8
MAKE2D$VISIBLE$LINES
 10
918.2065019310613
 20
130.9627862778443
 30
0.0
 11
918.1861452669526
 21
130.7932737770736
 31
0.0
  0
LINE
  5
1DC
  8
MAKE2D$VISIBLE$LINES
 10
918.1861452669526
 20
130.7932737770736
 30
0.0
 11
918.1600131253568
 21
130.6245550974109
 31
0.0
  0
LINE
  5
1DD
  8
MAKE2D$VISIBLE$LINES
 10
918.1600131253568
 20
130.6245550974109
 30
0.0
 11
918.1281359751825
 21
130.4568269572913
 31
0.0
  0
LINE
  5
1DE
  8
MAKE2D$VISIBLE$LINES
 10
918.1281359751825
 20
130.4568269572913
 30
0.0
 11
918.0905509837607
 21
130.2902849202225
 31
0.0
  0
LINE
  5
1DF
  8
MAKE2D$VISIBLE$LINES
 10
918.0905509837607
 20
130.2902849202225
 30
0.0
 11
918.04730197351
 21
130.1251231667695
 31
0.0
  0
LINE
  5
1E0
  8
MAKE2D$VISIBLE$LINES
 10
918.04730197351
 20
130.1251231667695
 30
0.0
 11
917.9984393708418
 21
129.9615342681491
 31
0.0
  0
LINE
  5
1E1
  8
MAKE2D$VISIBLE$LINES
 10
917.9984393708418
 20
129.9615342681491
 30
0.0
 11
917.944020147365
 21
129.7997089616994
 31
0.0
  0
LINE
  5
1E2
  8
MAKE2D$VISIBLE$LINES
 10
917.944020147365
 20
129.7997089616994
 30
0.0
 11
917.8841077534602
 21
129.6398359284893
 31
0.0
  0
LINE
  5
1E3
  8
MAKE2D$VISIBLE$LINES
 10
917.8841077534602
 20
129.6398359284893
 30
0.0
 11
917.8187720442983
 21
129.4821015733232
 31
0.0
  0
LINE
  5
1E4
  8
MAKE2D$VISIBLE$LINES
 10
917.8187720442983
 20
129.4821015733232
 30
0.0
 11
917.7480891983938
 21
129.3266898074043
 31
0.0
  0
LINE
  5
1E5
  8
MAKE2D$VISIBLE$LINES
 10
917.7480891983938
 20
129.3266898074043
 30
0.0
 11
917.6721416287829
 21
129.1737818338988
 31
0.0
  0
LINE
  5
1E6
  8
MAKE2D$VISIBLE$LINES
 10
917.6721416287829
 20
129.1737818338988
 30
0.0
 11
917.5910178869348
 21
129.0235559366643
 31
0.0
  0
LINE
  5
1E7
  8
MAKE2D$VISIBLE$LINES
 10
917.5910178869348
 20
129.0235559366643
 30
0.0
 11
917.5048125595033
 21
128.8761872723771
 31
0.0
  0
LINE
  5
1E8
  8
MAKE2D$VISIBLE$LINES
 10
917.5048125595033
 20
128.8761872723771
 30
0.0
 11
917.4136261580446
 21
128.7318476663079
 31
0.0
  0
LINE
  5
1E9
  8
MAKE2D$VISIBLE$LINES
 10
917.4136261580446
 20
128.7318476663079
 30
0.0
 11
917.3175650018231
 21
128.59070541198
 31
0.0
  0
LINE
  5
1EA
  8
MAKE2D$VISIBLE$LINES
 10
917.3175650018231
 20
128.59070541198
 30
0.0
 11
917.2167410938507
 21
128.4529250749491
 31
0.0
  0
LINE
  5
1EB
  8
MAKE2D$VISIBLE$LINES
 10
917.2167410938507
 20
128.4529250749491
 30
0.0
 11
917.1112719902932
 21
128.3186673009242
 31
0.0
  0
LINE
  5
1EC
  8
MAKE2D$VISIBLE$LINES
 10
917.1112719902932
 20
128.3186673009242
 30
0.0
 11
917.0012806634078
 21
128.1880886284645
 31
0.0
  0
LINE
  5
1ED
  8
MAKE2D$VISIBLE$LINES
 10
917.0012806634078
 20
128.1880886284645
 30
0.0
 11
916.8868953581615
 21
128.0613413064609
 31
0.0
  0
LINE
  5
1EE
  8
MAKE2D$VISIBLE$LINES
 10
916.8868953581615
 20
128.0613413064609
 30
0.0
 11
916.7682494427037
 21
127.9385731166217
 31
0.0
  0
LINE
  5
1EF
  8
MAKE2D$VISIBLE$LINES
 10
916.7682494427037
 20
127.9385731166217
 30
0.0
 11
916.6454812528644
 21
127.819927201164
 31
0.0
  0
LINE
  5
1F0
  8
MAKE2D$VISIBLE$LINES
 10
916.6454812528644
 20
127.819927201164
 30
0.0
 11
916.518733930861
 21
127.7055418959177
 31
0.0
  0
LINE
  5
1F1
  8
MAKE2D$VISIBLE$LINES
 10
916.518733930861
 20
127.7055418959177
 30
0.0
 11
916.3881552584013
 21
127.5955505690323
 31
0.0
  0
LINE
  5
1F2
  8
MAKE2D$VISIBLE$LINES
 10
916.3881552584013
 20
127.5955505690323
 30
0.0
 11
916.2538974843764
 21
127.4900814654748
 31
0.0
  0
LINE
  5
1F3
  8
MAKE2D$VISIBLE$LINES
 10
916.2538974843764
 20
127.4900814654748
 30
0.0
 11
916.1161171473451
 21
127.389257557502
 31
0.0
  0
LINE
  5
1F4
  8
MAKE2D$VISIBLE$LINES
 10
916.1161171473451
 20
127.389257557502
 30
0.0
 11
915.9749748930176
 21
127.2931964012809
 31
0.0
  0
LINE
  5
1F5
  8
MAKE2D$VISIBLE$LINES
 10
915.9749748930176
 20
127.2931964012809
 30
0.0
 11
915.8306352869484
 21
127.2020099998221
 31
0.0
  0
LINE
  5
1F6
  8
MAKE2D$VISIBLE$LINES
 10
915.8306352869484
 20
127.2020099998221
 30
0.0
 11
915.6832666226612
 21
127.1158046723907
 31
0.0
  0
LINE
  5
1F7
  8
MAKE2D$VISIBLE$LINES
 10
915.6832666226612
 20
127.1158046723907
 30
0.0
 11
915.5330407254268
 21
127.0346809305425
 31
0.0
  0
LINE
  5
1F8
  8
MAKE2D$VISIBLE$LINES
 10
915.5330407254268
 20
127.0346809305425
 30
0.0
 11
915.3801327519216
 21
126.9587333609319
 31
0.0
  0
LINE
  5
1F9
  8
MAKE2D$VISIBLE$LINES
 10
915.3801327519216
 20
126.9587333609319
 30
0.0
 11
915.2247209860018
 21
126.888050515027
 31
0.0
  0
LINE
  5
1FA
  8
MAKE2D$VISIBLE$LINES
 10
915.2247209860018
 20
126.888050515027
 30
0.0
 11
915.0669866308361
 21
126.8227148058653
 31
0.0
  0
LINE
  5
1FB
  8
MAKE2D$VISIBLE$LINES
 10
915.0669866308361
 20
126.8227148058653
 30
0.0
 11
914.9071135976261
 21
126.7628024119605
 31
0.0
  0
LINE
  5
1FC
  8
MAKE2D$VISIBLE$LINES
 10
914.9071135976261
 20
126.7628024119605
 30
0.0
 11
914.7452882911764
 21
126.7083831884837
 31
0.0
  0
LINE
  5
1FD
  8
MAKE2D$VISIBLE$LINES
 10
914.7452882911764
 20
126.7083831884837
 30
0.0
 11
914.581699392556
 21
126.6595205858155
 31
0.0
  0
LINE
  5
1FE
  8
MAKE2D$VISIBLE$LINES
 10
914.581699392556
 20
126.6595205858155
 30
0.0
 11
914.4165376391029
 21
126.6162715755648
 31
0.0
  0
LINE
  5
1FF
  8
MAKE2D$VISIBLE$LINES
 10
914.4165376391029
 20
126.6162715755648
 30
0.0
 11
914.2499956020341
 21
126.5786865841429
 31
0.0
  0
LINE
  5
200
  8
MAKE2D$VISIBLE$LINES
 10
914.2499956020341
 20
126.5786865841429
 30
0.0
 11
914.0822674619142
 21
126.5468094339685
 31
0.0
  0
LINE
  5
201
  8
MAKE2D$VISIBLE$LINES
 10
914.0822674619142
 20
126.5468094339685
 30
0.0
 11
913.9135487822523
 21
126.5206772923729
 31
0.0
  0
LINE
  5
202
  8
MAKE2D$VISIBLE$LINES
 10
913.9135487822523
 20
126.5206772923729
 30
0.0
 11
913.7440362814812
 21
126.5003206282641
 31
0.0
  0
LINE
  5
203
  8
MAKE2D$VISIBLE$LINES
 10
913.7440362814812
 20
126.5003206282641
 30
0.0
 11
913.5739276035941
 21
126.4857631766019
 31
0.0
  0
LINE
  5
204
  8
MAKE2D$VISIBLE$LINES
 10
913.5739276035941
 20
126.4857631766019
 30
0.0
 11
913.403421087701
 21
126.4770219107237
 31
0.0
  0
LINE
  5
205
  8
MAKE2D$VISIBLE$LINES
 10
913.403421087701
 20
126.4770219107237
 30
0.0
 11
913.2327155367709
 21
126.4741070225546
 31
0.0
  0
LINE
  5
206
  8
MAKE2D$VISIBLE$LINES
 10
913.2327155367709
 20
126.4741070225546
 30
0.0
 11
911.1328000142495
 21
126.4741070225546
 31
0.0
  0
LINE
  5
207
  8
MAKE2D$VISIBLE$LINES
 10
911.1328000142495
 20
126.4741070225546
 30
0.0
 11
911.1328000142496
 21
138.9741070225546
 31
0.0
  0
LINE
  5
208
  8
MAKE2D$VISIBLE$LINES
 10
911.1328000142496
 20
138.9741070225546
 30
0.0
 11
908.2328000142496
 21
138.9741070225546
 31
0.0
  0
LINE
  5
209
  8
MAKE2D$VISIBLE$LINES
 10
908.2328000142496
 20
138.9741070225546
 30
0.0
 11
908.2328000142498
 21
126.4741070225546
 31
0.0
  0
LINE
  5
20A
  8
MAKE2D$VISIBLE$LINES
 10
908.2328000142498
 20
126.4741070225546
 30
0.0
 11
908.2328000142493
 21
75.00000010157032
 31
0.0
  0
LINE
  5
20B
  8
MAKE2D$VISIBLE$LINES
 10
908.2328000142493
 20
75.00000010157032
 30
0.0
 11
908.2328000142496
 21
50.00000010157055
 31
0.0
  0
LINE
  5
20C
  8
MAKE2D$VISIBLE$LINES
 10
908.2328000142496
 20
50.00000010157055
 30
0.0
 11
908.2328000142495
 21
37.50000010157055
 31
0.0
  0
LINE
  5
20D
  8
MAKE2D$VISIBLE$LINES
 10
908.2328000142495
 20
37.50000010157055
 30
0.0
 11
911.1328000142495
 21
37.50000010157055
 31
0.0
  0
LINE
  5
20E
  8
MAKE2D$VISIBLE$LINES
 10
911.1328000142495
 20
37.50000010157055
 30
0.0
 11
911.1328000142497
 21
50.00000010157055
 31
0.0
  0
LINE
  5
20F
  8
MAKE2D$VISIBLE$LINES
 10
911.1328000142497
 20
50.00000010157055
 30
0.0
 11
913.2327155367709
 21
50.00000010157078
 31
0.0
  0
LINE
  5
210
  8
MAKE2D$VISIBLE$LINES
 10
913.2327155367709
 20
50.00000010157078
 30
0.0
 11
913.4034210877004
 21
49.99708521340165
 31
0.0
  0
LINE
  5
211
  8
MAKE2D$VISIBLE$LINES
 10
913.4034210877004
 20
49.99708521340165
 30
0.0
 11
913.5739276035946
 21
49.98834394752342
 31
0.0
  0
LINE
  5
212
  8
MAKE2D$VISIBLE$LINES
 10
913.5739276035946
 20
49.98834394752342
 30
0.0
 11
913.744036281481
 21
49.97378649586121
 31
0.0
  0
LINE
  5
213
  8
MAKE2D$VISIBLE$LINES
 10
913.744036281481
 20
49.97378649586121
 30
0.0
 11
913.9135487822518
 21
49.9534298317524
 31
0.0
  0
LINE
  5
214
  8
MAKE2D$VISIBLE$LINES
 10
913.9135487822518
 20
49.9534298317524
 30
0.0
 11
914.0822674619141
 21
49.92729769015671
 31
0.0
  0
LINE
  5
215
  8
MAKE2D$VISIBLE$LINES
 10
914.0822674619141
 20
49.92729769015671
 30
0.0
 11
914.2499956020341
 21
49.89542053998228
 31
0.0
  0
LINE
  5
216
  8
MAKE2D$VISIBLE$LINES
 10
914.2499956020341
 20
49.89542053998228
 30
0.0
 11
914.4165376391029
 21
49.85783554856044
 31
0.0
  0
LINE
  5
217
  8
MAKE2D$VISIBLE$LINES
 10
914.4165376391029
 20
49.85783554856044
 30
0.0
 11
914.5816993925558
 21
49.81458653830967
 31
0.0
  0
LINE
  5
218
  8
MAKE2D$VISIBLE$LINES
 10
914.5816993925558
 20
49.81458653830967
 30
0.0
 11
914.7452882911763
 21
49.76572393564143
 31
0.0
  0
LINE
  5
219
  8
MAKE2D$VISIBLE$LINES
 10
914.7452882911763
 20
49.76572393564143
 30
0.0
 11
914.9071135976255
 21
49.7113047121648
 31
0.0
  0
LINE
  5
21A
  8
MAKE2D$VISIBLE$LINES
 10
914.9071135976255
 20
49.7113047121648
 30
0.0
 11
915.066986630836
 21
49.65139231825981
 31
0.0
  0
LINE
  5
21B
  8
MAKE2D$VISIBLE$LINES
 10
915.066986630836
 20
49.65139231825981
 30
0.0
 11
915.2247209860021
 21
49.58605660909783
 31
0.0
  0
LINE
  5
21C
  8
MAKE2D$VISIBLE$LINES
 10
915.2247209860021
 20
49.58605660909783
 30
0.0
 11
915.380132751921
 21
49.51537376319334
 31
0.0
  0
LINE
  5
21D
  8
MAKE2D$VISIBLE$LINES
 10
915.380132751921
 20
49.51537376319334
 30
0.0
 11
915.5330407254265
 21
49.43942619358248
 31
0.0
  0
LINE
  5
21E
  8
MAKE2D$VISIBLE$LINES
 10
915.5330407254265
 20
49.43942619358248
 30
0.0
 11
915.683266622661
 21
49.35830245173427
 31
0.0
  0
LINE
  5
21F
  8
MAKE2D$VISIBLE$LINES
 10
915.683266622661
 20
49.35830245173427
 30
0.0
 11
915.8306352869482
 21
49.27209712430287
 31
0.0
  0
LINE
  5
220
  8
MAKE2D$VISIBLE$LINES
 10
915.8306352869482
 20
49.27209712430287
 30
0.0
 11
915.9749748930174
 21
49.18091072284412
 31
0.0
  0
LINE
  5
221
  8
MAKE2D$VISIBLE$LINES
 10
915.9749748930174
 20
49.18091072284412
 30
0.0
 11
916.1161171473452
 21
49.08484956662269
 31
0.0
  0
LINE
  5
222
  8
MAKE2D$VISIBLE$LINES
 10
916.1161171473452
 20
49.08484956662269
 30
0.0
 11
916.2538974843765
 21
48.9840256586499
 31
0.0
  0
LINE
  5
223
  8
MAKE2D$VISIBLE$LINES
 10
916.2538974843765
 20
48.9840256586499
 30
0.0
 11
916.388155258401
 21
48.87855655509264
 31
0.0
  0
LINE
  5
224
  8
MAKE2D$VISIBLE$LINES
 10
916.388155258401
 20
48.87855655509264
 30
0.0
 11
916.5187339308607
 21
48.76856522820724
 31
0.0
  0
LINE
  5
225
  8
MAKE2D$VISIBLE$LINES
 10
916.5187339308607
 20
48.76856522820724
 30
0.0
 11
916.6454812528639
 21
48.65417992296125
 31
0.0
  0
LINE
  5
226
  8
MAKE2D$VISIBLE$LINES
 10
916.6454812528639
 20
48.65417992296125
 30
0.0
 11
916.7682494427034
 21
48.53553400750326
 31
0.0
  0
LINE
  5
227
  8
MAKE2D$VISIBLE$LINES
 10
916.7682494427034
 20
48.53553400750326
 30
0.0
 11
916.8868953581614
 21
48.41276581766367
 31
0.0
  0
LINE
  5
228
  8
MAKE2D$VISIBLE$LINES
 10
916.8868953581614
 20
48.41276581766367
 30
0.0
 11
917.0012806634074
 21
48.28601849566048
 31
0.0
  0
LINE
  5
229
  8
MAKE2D$VISIBLE$LINES
 10
917.0012806634074
 20
48.28601849566048
 30
0.0
 11
917.1112719902928
 21
48.15543982320077
 31
0.0
  0
LINE
  5
22A
  8
MAKE2D$VISIBLE$LINES
 10
917.1112719902928
 20
48.15543982320077
 30
0.0
 11
917.2167410938503
 21
48.02118204917584
 31
0.0
  0
LINE
  5
22B
  8
MAKE2D$VISIBLE$LINES
 10
917.2167410938503
 20
48.02118204917584
 30
0.0
 11
917.3175650018228
 21
47.88340171214494
 31
0.0
  0
LINE
  5
22C
  8
MAKE2D$VISIBLE$LINES
 10
917.3175650018228
 20
47.88340171214494
 30
0.0
 11
917.4136261580443
 21
47.74225945781708
 31
0.0
  0
LINE
  5
22D
  8
MAKE2D$VISIBLE$LINES
 10
917.4136261580443
 20
47.74225945781708
 30
0.0
 11
917.5048125595033
 21
47.59791985174751
 31
0.0
  0
LINE
  5
22E
  8
MAKE2D$VISIBLE$LINES
 10
917.5048125595033
 20
47.59791985174751
 30
0.0
 11
917.5910178869344
 21
47.45055118746068
 31
0.0
  0
LINE
  5
22F
  8
MAKE2D$VISIBLE$LINES
 10
917.5910178869344
 20
47.45055118746068
 30
0.0
 11
917.6721416287827
 21
47.30032529022622
 31
0.0
  0
LINE
  5
230
  8
MAKE2D$VISIBLE$LINES
 10
917.6721416287827
 20
47.30032529022622
 30
0.0
 11
917.7480891983935
 21
47.14741731672073
 31
0.0
  0
LINE
  5
231
  8
MAKE2D$VISIBLE$LINES
 10
917.7480891983935
 20
47.14741731672073
 30
0.0
 11
917.8187720442979
 21
46.9920055508018
 31
0.0
  0
LINE
  5
232
  8
MAKE2D$VISIBLE$LINES
 10
917.8187720442979
 20
46.9920055508018
 30
0.0
 11
917.8841077534597
 21
46.83427119563615
 31
0.0
  0
LINE
  5
233
  8
MAKE2D$VISIBLE$LINES
 10
917.8841077534597
 20
46.83427119563615
 30
0.0
 11
917.9440201473648
 21
46.67439816242565
 31
0.0
  0
LINE
  5
234
  8
MAKE2D$VISIBLE$LINES
 10
917.9440201473648
 20
46.67439816242565
 30
0.0
 11
917.9984393708415
 21
46.51257285597595
 31
0.0
  0
LINE
  5
235
  8
MAKE2D$VISIBLE$LINES
 10
917.9984393708415
 20
46.51257285597595
 30
0.0
 11
918.0473019735098
 21
46.34898395735555
 31
0.0
  0
LINE
  5
236
  8
MAKE2D$VISIBLE$LINES
 10
918.0473019735098
 20
46.34898395735555
 30
0.0
 11
918.0905509837604
 21
46.18382220390296
 31
0.0
  0
LINE
  5
237
  8
MAKE2D$VISIBLE$LINES
 10
918.0905509837604
 20
46.18382220390296
 30
0.0
 11
918.1281359751823
 21
46.01728016683374
 31
0.0
  0
LINE
  5
238
  8
MAKE2D$VISIBLE$LINES
 10
918.1281359751823
 20
46.01728016683374
 30
0.0
 11
918.1600131253567
 21
45.84955202671375
 31
0.0
  0
LINE
  5
239
  8
MAKE2D$VISIBLE$LINES
 10
918.1600131253567
 20
45.84955202671375
 30
0.0
 11
918.1861452669523
 21
45.68083334705194
 31
0.0
  0
LINE
  5
23A
  8
MAKE2D$VISIBLE$LINES
 10
918.1861452669523
 20
45.68083334705194
 30
0.0
 11
918.2065019310612
 21
45.51132084628073
 31
0.0
  0
LINE
  5
23B
  8
MAKE2D$VISIBLE$LINES
 10
918.2065019310612
 20
45.51132084628073
 30
0.0
 11
918.2210593827234
 21
45.34121216839421
 31
0.0
  0
LINE
  5
23C
  8
MAKE2D$VISIBLE$LINES
 10
918.2210593827234
 20
45.34121216839421
 30
0.0
 11
918.2298006486016
 21
45.17070565250009
 31
0.0
  0
LINE
  5
23D
  8
MAKE2D$VISIBLE$LINES
 10
918.2298006486016
 20
45.17070565250009
 30
0.0
 11
918.2327155367707
 21
45.00000010157055
 31
0.0
  0
LINE
  5
23E
  8
MAKE2D$VISIBLE$LINES
 10
918.2327155367707
 20
45.00000010157055
 30
0.0
 11
918.2327155367707
 21
25.00000010157055
 31
0.0
  0
LINE
  5
23F
  8
MAKE2D$VISIBLE$LINES
 10
918.2327155367707
 20
25.00000010157055
 30
0.0
 11
918.2327155367703
 21
5.000000101570549
 31
0.0
  0
LINE
  5
240
  8
MAKE2D$VISIBLE$LINES
 10
918.2327155367703
 20
5.000000101570549
 30
0.0
 11
918.2298006486012
 21
4.829294550641012
 31
0.0
  0
LINE
  5
241
  8
MAKE2D$VISIBLE$LINES
 10
918.2298006486012
 20
4.829294550641012
 30
0.0
 11
918.2210593827228
 21
4.658788034747345
 31
0.0
  0
LINE
  5
242
  8
MAKE2D$VISIBLE$LINES
 10
918.2210593827228
 20
4.658788034747345
 30
0.0
 11
918.2065019310608
 21
4.488679356860829
 31
0.0
  0
LINE
  5
243
  8
MAKE2D$VISIBLE$LINES
 10
918.2065019310608
 20
4.488679356860829
 30
0.0
 11
918.1861452669519
 21
4.319166856089615
 31
0.0
  0
LINE
  5
244
  8
MAKE2D$VISIBLE$LINES
 10
918.1861452669519
 20
4.319166856089615
 30
0.0
 11
918.1600131253562
 21
4.150448176427366
 31
0.0
  0
LINE
  5
245
  8
MAKE2D$VISIBLE$LINES
 10
918.1600131253562
 20
4.150448176427366
 30
0.0
 11
918.1281359751817
 21
3.982720036307382
 31
0.0
  0
LINE
  5
246
  8
MAKE2D$VISIBLE$LINES
 10
918.1281359751817
 20
3.982720036307382
 30
0.0
 11
918.09055098376
 21
3.816177999238613
 31
0.0
  0
LINE
  5
247
  8
MAKE2D$VISIBLE$LINES
 10
918.09055098376
 20
3.816177999238613
 30
0.0
 11
918.0473019735091
 21
3.651016245785581
 31
0.0
  0
LINE
  5
248
  8
MAKE2D$VISIBLE$LINES
 10
918.0473019735091
 20
3.651016245785581
 30
0.0
 11
917.9984393708411
 21
3.487427347165612
 31
0.0
  0
LINE
  5
249
  8
MAKE2D$VISIBLE$LINES
 10
917.9984393708411
 20
3.487427347165612
 30
0.0
 11
917.9440201473643
 21
3.325602040715915
 31
0.0
  0
LINE
  5
24A
  8
MAKE2D$VISIBLE$LINES
 10
917.9440201473643
 20
3.325602040715915
 30
0.0
 11
917.8841077534595
 21
3.165729007505845
 31
0.0
  0
LINE
  5
24B
  8
MAKE2D$VISIBLE$LINES
 10
917.8841077534595
 20
3.165729007505845
 30
0.0
 11
917.8187720442975
 21
3.007994652339777
 31
0.0
  0
LINE
  5
24C
  8
MAKE2D$VISIBLE$LINES
 10
917.8187720442975
 20
3.007994652339777
 30
0.0
 11
917.7480891983931
 21
2.852582886420846
 31
0.0
  0
LINE
  5
24D
  8
MAKE2D$VISIBLE$LINES
 10
917.7480891983931
 20
2.852582886420846
 30
0.0
 11
917.6721416287821
 21
2.699674912915353
 31
0.0
  0
LINE
  5
24E
  8
MAKE2D$VISIBLE$LINES
 10
917.6721416287821
 20
2.699674912915353
 30
0.0
 11
917.5910178869343
 21
2.549449015681284
 31
0.0
  0
LINE
  5
24F
  8
MAKE2D$VISIBLE$LINES
 10
917.5910178869343
 20
2.549449015681284
 30
0.0
 11
917.5048125595029
 21
2.402080351394062
 31
0.0
  0
LINE
  5
250
  8
MAKE2D$VISIBLE$LINES
 10
917.5048125595029
 20
2.402080351394062
 30
0.0
 11
917.4136261580439
 21
2.2577407453245
 31
0.0
  0
LINE
  5
251
  8
MAKE2D$VISIBLE$LINES
 10
917.4136261580439
 20
2.2577407453245
 30
0.0
 11
917.3175650018226
 21
2.116598490996627
 31
0.0
  0
LINE
  5
252
  8
MAKE2D$VISIBLE$LINES
 10
917.3175650018226
 20
2.116598490996627
 30
0.0
 11
917.21674109385
 21
1.978818153965726
 31
0.0
  0
LINE
  5
253
  8
MAKE2D$VISIBLE$LINES
 10
917.21674109385
 20
1.978818153965726
 30
0.0
 11
917.1112719902928
 21
1.844560379941157
 31
0.0
  0
LINE
  5
254
  8
MAKE2D$VISIBLE$LINES
 10
917.1112719902928
 20
1.844560379941157
 30
0.0
 11
917.0012806634073
 21
1.713981707481426
 31
0.0
  0
LINE
  5
255
  8
MAKE2D$VISIBLE$LINES
 10
917.0012806634073
 20
1.713981707481426
 30
0.0
 11
916.8868953581612
 21
1.58723438547789
 31
0.0
  0
LINE
  5
256
  8
MAKE2D$VISIBLE$LINES
 10
916.8868953581612
 20
1.58723438547789
 30
0.0
 11
916.7682494427034
 21
1.464466195638624
 31
0.0
  0
LINE
  5
257
  8
MAKE2D$VISIBLE$LINES
 10
916.7682494427034
 20
1.464466195638624
 30
0.0
 11
916.6454812528643
 21
1.345820280180925
 31
0.0
  0
LINE
  5
258
  8
MAKE2D$VISIBLE$LINES
 10
916.6454812528643
 20
1.345820280180925
 30
0.0
 11
916.5187339308608
 21
1.231434974934609
 31
0.0
  0
LINE
  5
259
  8
MAKE2D$VISIBLE$LINES
 10
916.5187339308608
 20
1.231434974934609
 30
0.0
 11
916.3881552584011
 21
1.121443648049191
 31
0.0
  0
LINE
  5
25A
  8
MAKE2D$VISIBLE$LINES
 10
916.3881552584011
 20
1.121443648049191
 30
0.0
 11
916.2538974843766
 21
1.015974544491925
 31
0.0
  0
LINE
  5
25B
  8
MAKE2D$VISIBLE$LINES
 10
916.2538974843766
 20
1.015974544491925
 30
0.0
 11
916.1161171473452
 21
0.9151506365191155
 31
0.0
  0
LINE
  5
25C
  8
MAKE2D$VISIBLE$LINES
 10
916.1161171473452
 20
0.9151506365191155
 30
0.0
 11
915.9749748930178
 21
0.8190894802979054
 31
0.0
  0
LINE
  5
25D
  8
MAKE2D$VISIBLE$LINES
 10
915.9749748930178
 20
0.8190894802979054
 30
0.0
 11
915.8306352869482
 21
0.7279030788388968
 31
0.0
  0
LINE
  5
25E
  8
MAKE2D$VISIBLE$LINES
 10
915.8306352869482
 20
0.7279030788388968
 30
0.0
 11
915.6832666226614
 21
0.6416977514076928
 31
0.0
  0
LINE
  5
25F
  8
MAKE2D$VISIBLE$LINES
 10
915.6832666226614
 20
0.6416977514076928
 30
0.0
 11
915.5330407254271
 21
0.5605740095594542
 31
0.0
  0
LINE
  5
260
  8
MAKE2D$VISIBLE$LINES
 10
915.5330407254271
 20
0.5605740095594542
 30
0.0
 11
915.380132751922
 21
0.4846264399487521
 31
0.0
  0
LINE
  5
261
  8
MAKE2D$VISIBLE$LINES
 10
915.380132751922
 20
0.4846264399487521
 30
0.0
 11
915.2247209860027
 21
0.4139435940440341
 31
0.0
  0
LINE
  5
262
  8
MAKE2D$VISIBLE$LINES
 10
915.2247209860027
 20
0.4139435940440341
 30
0.0
 11
915.0669866308367
 21
0.348607884882025
 31
0.0
  0
LINE
  5
263
  8
MAKE2D$VISIBLE$LINES
 10
915.0669866308367
 20
0.348607884882025
 30
0.0
 11
914.9071135976262
 21
0.2886954909769888
 31
0.0
  0
LINE
  5
264
  8
MAKE2D$VISIBLE$LINES
 10
914.9071135976262
 20
0.2886954909769888
 30
0.0
 11
914.7452882911768
 21
0.2342762675003338
 31
0.0
  0
LINE
  5
265
  8
MAKE2D$VISIBLE$LINES
 10
914.7452882911768
 20
0.2342762675003338
 30
0.0
 11
914.5816993925565
 21
0.1854136648320456
 31
0.0
  0
LINE
  5
266
  8
MAKE2D$VISIBLE$LINES
 10
914.5816993925565
 20
0.1854136648320456
 30
0.0
 11
914.4165376391039
 21
0.1421646545813547
 31
0.0
  0
LINE
  5
267
  8
MAKE2D$VISIBLE$LINES
 10
914.4165376391039
 20
0.1421646545813547
 30
0.0
 11
914.2499956020348
 21
0.1045796631593542
 31
0.0
  0
LINE
  5
268
  8
MAKE2D$VISIBLE$LINES
 10
914.2499956020348
 20
0.1045796631593542
 30
0.0
 11
914.0822674619152
 21
0.0727025129849767
 31
0.0
  0
LINE
  5
269
  8
MAKE2D$VISIBLE$LINES
 10
914.0822674619152
 20
0.0727025129849767
 30
0.0
 11
913.9135487822534
 21
0.046570371389279
 31
0.0
  0
LINE
  5
26A
  8
MAKE2D$VISIBLE$LINES
 10
913.9135487822534
 20
0.046570371389279
 30
0.0
 11
913.7440362814822
 21
0.0262137072803624
 31
0.0
  0
LINE
  5
26B
  8
MAKE2D$VISIBLE$LINES
 10
913.7440362814822
 20
0.0262137072803624
 30
0.0
 11
913.5739276035953
 21
0.0116562556180539
 31
0.0
  0
LINE
  5
26C
  8
MAKE2D$VISIBLE$LINES
 10
913.5739276035953
 20
0.0116562556180539
 30
0.0
 11
913.403421087702
 21
0.0029149897398181
 31
0.0
  0
LINE
  5
26D
  8
MAKE2D$VISIBLE$LINES
 10
913.403421087702
 20
0.0029149897398181
 30
0.0
 11
913.232715536772
 21
0.0000001015706061
 31
0.0
  0
LINE
  5
26E
  8
MAKE2D$VISIBLE$LINES
 10
913.232715536772
 20
0.0000001015706061
 30
0.0
 11
911.1328000142494
 21
0.0000001015705493
 31
0.0
  0
LINE
  5
26F
  8
MAKE2D$VISIBLE$LINES
 10
911.1328000142494
 20
0.0000001015705493
 30
0.0
 11
911.1328000142495
 21
12.50000010157055
 31
0.0
  0
LINE
  5
270
  8
MAKE2D$VISIBLE$LINES
 10
911.1328000142495
 20
12.50000010157055
 30
0.0
 11
908.2328000142495
 21
12.50000010157055
 31
0.0
  0
LINE
  5
271
  8
MAKE2D$VISIBLE$LINES
 10
908.2328000142495
 20
12.50000010157055
 30
0.0
 11
908.2328000142495
 21
5.990215578403422
 31
0.0
  0
LINE
  5
272
  8
MAKE2D$VISIBLE$LINES
 10
908.2328000142495
 20
5.990215578403422
 30
0.0
 11
908.2322021677477
 21
5.955641952864386
 31
0.0
  0
LINE
  5
273
  8
MAKE2D$VISIBLE$LINES
 10
908.2322021677477
 20
5.955641952864386
 30
0.0
 11
908.2304093430836
 21
5.921109666767506
 31
0.0
  0
LINE
  5
274
  8
MAKE2D$VISIBLE$LINES
 10
908.2304093430836
 20
5.921109666767506
 30
0.0
 11
908.2274236839249
 21
5.886660010125661
 31
0.0
  0
LINE
  5
275
  8
MAKE2D$VISIBLE$LINES
 10
908.2274236839249
 20
5.886660010125661
 30
0.0
 11
908.2232487602033
 21
5.852334174151815
 31
0.0
  0
LINE
  5
276
  8
MAKE2D$VISIBLE$LINES
 10
908.2232487602033
 20
5.852334174151815
 30
0.0
 11
908.217889563846
 21
5.818173202008326
 31
0.0
  0
LINE
  5
277
  8
MAKE2D$VISIBLE$LINES
 10
908.217889563846
 20
5.818173202008326
 30
0.0
 11
908.2113525028067
 21
5.78421793973147
 31
0.0
  0
LINE
  5
278
  8
MAKE2D$VISIBLE$LINES
 10
908.2113525028067
 20
5.78421793973147
 30
0.0
 11
908.2036453934032
 21
5.750508987388993
 31
0.0
  0
LINE
  5
279
  8
MAKE2D$VISIBLE$LINES
 10
908.2036453934032
 20
5.750508987388993
 30
0.0
 11
908.1947774509728
 21
5.717086650541131
 31
0.0
  0
LINE
  5
27A
  8
MAKE2D$VISIBLE$LINES
 10
908.1947774509728
 20
5.717086650541131
 30
0.0
 11
908.1847592788516
 21
5.683990892040454
 31
0.0
  0
LINE
  5
27B
  8
MAKE2D$VISIBLE$LINES
 10
908.1847592788516
 20
5.683990892040454
 30
0.0
 11
908.1736028556984
 21
5.651261284255153
 31
0.0
  0
LINE
  5
27C
  8
MAKE2D$VISIBLE$LINES
 10
908.1736028556984
 20
5.651261284255153
 30
0.0
 11
908.1613215211701
 21
5.618936961747822
 31
0.0
  0
LINE
  5
27D
  8
MAKE2D$VISIBLE$LINES
 10
908.1613215211701
 20
5.618936961747822
 30
0.0
 11
908.1479299599724
 21
5.587056574484302
 31
0.0
  0
LINE
  5
27E
  8
MAKE2D$VISIBLE$LINES
 10
908.1479299599724
 20
5.587056574484302
 30
0.0
 11
908.1334441843017
 21
5.555658241621432
 31
0.0
  0
LINE
  5
27F
  8
MAKE2D$VISIBLE$LINES
 10
908.1334441843017
 20
5.555658241621432
 30
0.0
 11
908.1178815146981
 21
5.524779505925709
 31
0.0
  0
LINE
  5
280
  8
MAKE2D$VISIBLE$LINES
 10
908.1178815146981
 20
5.524779505925709
 30
0.0
 11
908.1012605593372
 21
5.494457288885354
 31
0.0
  0
LINE
  5
281
  8
MAKE2D$VISIBLE$LINES
 10
908.1012605593372
 20
5.494457288885354
 30
0.0
 11
908.0836011917787
 21
5.464727846563132
 31
0.0
  0
LINE
  5
282
  8
MAKE2D$VISIBLE$LINES
 10
908.0836011917787
 20
5.464727846563132
 30
0.0
 11
908.0649245272049
 21
5.435626726244841
 31
0.0
  0
LINE
  5
283
  8
MAKE2D$VISIBLE$LINES
 10
908.0649245272049
 20
5.435626726244841
 30
0.0
 11
908.0452528971732
 21
5.407188723937201
 31
0.0
  0
LINE
  5
284
  8
MAKE2D$VISIBLE$LINES
 10
908.0452528971732
 20
5.407188723937201
 30
0.0
 11
908.0246098229139
 21
5.379447842760213
 31
0.0
  0
LINE
  5
285
  8
MAKE2D$VISIBLE$LINES
 10
908.0246098229139
 20
5.379447842760213
 30
0.0
 11
908.0030199872062
 21
5.352437252291409
 31
0.0
  0
LINE
  5
286
  8
MAKE2D$VISIBLE$LINES
 10
908.0030199872062
 20
5.352437252291409
 30
0.0
 11
907.980509204866
 21
5.326189248904828
 31
0.0
  0
LINE
  5
287
  8
MAKE2D$VISIBLE$LINES
 10
907.980509204866
 20
5.326189248904828
 30
0.0
 11
907.9571043918776
 21
5.300735217154141
 31
0.0
  0
LINE
  5
288
  8
MAKE2D$VISIBLE$LINES
 10
907.9571043918776
 20
5.300735217154141
 30
0.0
 11
907.932833533213
 21
5.276105592247691
 31
0.0
  0
LINE
  5
289
  8
MAKE2D$VISIBLE$LINES
 10
907.932833533213
 20
5.276105592247691
 30
0.0
 11
907.9077256493673
 21
5.252329823655004
 31
0.0
  0
LINE
  5
28A
  8
MAKE2D$VISIBLE$LINES
 10
907.9077256493673
 20
5.252329823655004
 30
0.0
 11
907.8818107616625
 21
5.22943633989716
 31
0.0
  0
LINE
  5
28B
  8
MAKE2D$VISIBLE$LINES
 10
907.8818107616625
 20
5.22943633989716
 30
0.0
 11
907.8551198563475
 21
5.207452514551585
 31
0.0
  0
LINE
  5
28C
  8
MAKE2D$VISIBLE$LINES
 10
907.8551198563475
 20
5.207452514551585
 30
0.0
 11
907.8276848475513
 21
5.186404633524473
 31
0.0
  0
LINE
  5
28D
  8
MAKE2D$VISIBLE$LINES
 10
907.8276848475513
 20
5.186404633524473
 30
0.0
 11
907.7995385391223
 21
5.166317863620455
 31
0.0
  0
LINE
  5
28E
  8
MAKE2D$VISIBLE$LINES
 10
907.7995385391223
 20
5.166317863620455
 30
0.0
 11
907.7707145854046
 21
5.147216222449482
 31
0.0
  0
LINE
  5
28F
  8
MAKE2D$VISIBLE$LINES
 10
907.7707145854046
 20
5.147216222449482
 30
0.0
 11
907.7412474509972
 21
5.129122549710024
 31
0.0
  0
LINE
  5
290
  8
MAKE2D$VISIBLE$LINES
 10
907.7412474509972
 20
5.129122549710024
 30
0.0
 11
907.7111723695479
 21
5.112058479880673
 31
0.0
  0
LINE
  5
291
  8
MAKE2D$VISIBLE$LINES
 10
907.7111723695479
 20
5.112058479880673
 30
0.0
 11
907.6805253016196
 21
5.096044416349438
 31
0.0
  0
LINE
  5
292
  8
MAKE2D$VISIBLE$LINES
 10
907.6805253016196
 20
5.096044416349438
 30
0.0
 11
907.6493428916981
 21
5.081099507020689
 31
0.0
  0
LINE
  5
293
  8
MAKE2D$VISIBLE$LINES
 10
907.6493428916981
 20
5.081099507020689
 30
0.0
 11
907.617662424372
 21
5.067241621417553
 31
0.0
  0
LINE
  5
294
  8
MAKE2D$VISIBLE$LINES
 10
907.617662424372
 20
5.067241621417553
 30
0.0
 11
907.5855217797558
 21
5.054487329317413
 31
0.0
  0
LINE
  5
295
  8
MAKE2D$VISIBLE$LINES
 10
907.5855217797558
 20
5.054487329317413
 30
0.0
 11
907.5529593881921
 21
5.042851880937571
 31
0.0
  0
LINE
  5
296
  8
MAKE2D$VISIBLE$LINES
 10
907.5529593881921
 20
5.042851880937571
 30
0.0
 11
907.5200141843045
 21
5.03234918870229
 31
0.0
  0
LINE
  5
297
  8
MAKE2D$VISIBLE$LINES
 10
907.5200141843045
 20
5.03234918870229
 30
0.0
 11
907.4867255604432
 21
5.022991810607353
 31
0.0
  0
LINE
  5
298
  8
MAKE2D$VISIBLE$LINES
 10
907.4867255604432
 20
5.022991810607353
 30
0.0
 11
907.453133319584
 21
5.014790935204477
 31
0.0
  0
LINE
  5
299
  8
MAKE2D$VISIBLE$LINES
 10
907.453133319584
 20
5.014790935204477
 30
0.0
 11
907.4192776277322
 21
5.007756368222574
 31
0.0
  0
LINE
  5
29A
  8
MAKE2D$VISIBLE$LINES
 10
907.4192776277322
 20
5.007756368222574
 30
0.0
 11
907.3851989659037
 21
5.001896520844535
 31
0.0
  0
LINE
  5
29B
  8
MAKE2D$VISIBLE$LINES
 10
907.3851989659037
 20
5.001896520844535
 30
0.0
 11
907.3509380817139
 21
4.99721839964856
 31
0.0
  0
LINE
  5
29C
  8
MAKE2D$VISIBLE$LINES
 10
907.3509380817139
 20
4.99721839964856
 30
0.0
 11
907.3165359406635
 21
4.993727598231605
 31
0.0
  0
LINE
  5
29D
  8
MAKE2D$VISIBLE$LINES
 10
907.3165359406635
 20
4.993727598231605
 30
0.0
 11
907.2820336771526
 21
4.991428290520544
 31
0.0
  0
LINE
  5
29E
  8
MAKE2D$VISIBLE$LINES
 10
907.2820336771526
 20
4.991428290520544
 30
0.0
 11
907.2474725452947
 21
4.990323225781398
 31
0.0
  0
LINE
  5
29F
  8
MAKE2D$VISIBLE$LINES
 10
907.2474725452947
 20
4.990323225781398
 30
0.0
 11
907.2128938695944
 21
4.990413725332412
 31
0.0
  0
LINE
  5
2A0
  8
MAKE2D$VISIBLE$LINES
 10
907.2128938695944
 20
4.990413725332412
 30
0.0
 11
907.178338995532
 21
4.991699680963883
 31
0.0
  0
LINE
  5
2A1
  8
MAKE2D$VISIBLE$LINES
 10
907.178338995532
 20
4.991699680963883
 30
0.0
 11
907.1438492401282
 21
4.994179555067702
 31
0.0
  0
LINE
  5
2A2
  8
MAKE2D$VISIBLE$LINES
 10
907.1438492401282
 20
4.994179555067702
 30
0.0
 11
907.1094658425436
 21
4.99785038247563
 31
0.0
  0
LINE
  5
2A3
  8
MAKE2D$VISIBLE$LINES
 10
907.1094658425436
 20
4.99785038247563
 30
0.0
 11
907.0752299147642
 21
5.002707774005213
 31
0.0
  0
LINE
  5
2A4
  8
MAKE2D$VISIBLE$LINES
 10
907.0752299147642
 20
5.002707774005213
 30
0.0
 11
907.0411823924508
 21
5.008745921707217
 31
0.0
  0
LINE
  5
2A5
  8
MAKE2D$VISIBLE$LINES
 10
907.0411823924508
 20
5.008745921707217
 30
0.0
 11
907.0073639859871
 21
5.015957605810736
 31
0.0
  0
LINE
  5
2A6
  8
MAKE2D$VISIBLE$LINES
 10
907.0073639859871
 20
5.015957605810736
 30
0.0
 11
906.9738151318047
 21
5.024334203355664
 31
0.0
  0
LINE
  5
2A7
  8
MAKE2D$VISIBLE$LINES
 10
906.9738151318047
 20
5.024334203355664
 30
0.0
 11
906.9405759440347
 21
5.033865698502704
 31
0.0
  0
LINE
  5
2A8
  8
MAKE2D$VISIBLE$LINES
 10
906.9405759440347
 20
5.033865698502704
 30
0.0
 11
906.9076861665408
 21
5.0445406945099
 31
0.0
  0
LINE
  5
2A9
  8
MAKE2D$VISIBLE$LINES
 10
906.9076861665408
 20
5.0445406945099
 30
0.0
 11
906.8751851253998
 21
5.056346427359215
 31
0.0
  0
LINE
  5
2AA
  8
MAKE2D$VISIBLE$LINES
 10
906.8751851253998
 20
5.056346427359215
 30
0.0
 11
906.8431116818793
 21
5.069268781018482
 31
0.0
  0
LINE
  5
2AB
  8
MAKE2D$VISIBLE$LINES
 10
906.8431116818793
 20
5.069268781018482
 30
0.0
 11
906.811504185971
 21
5.083292304320034
 31
0.0
  0
LINE
  5
2AC
  8
MAKE2D$VISIBLE$LINES
 10
906.811504185971
 20
5.083292304320034
 30
0.0
 11
906.7804004305374
 21
5.098400229434811
 31
0.0
  0
LINE
  5
2AD
  8
MAKE2D$VISIBLE$LINES
 10
906.7804004305374
 20
5.098400229434811
 30
0.0
 11
906.7498376061206
 21
5.114574491922631
 31
0.0
  0
LINE
  5
2AE
  8
MAKE2D$VISIBLE$LINES
 10
906.7498376061206
 20
5.114574491922631
 30
0.0
 11
906.7198522564762
 21
5.131795752331007
 31
0.0
  0
LINE
  5
2AF
  8
MAKE2D$VISIBLE$LINES
 10
906.7198522564762
 20
5.131795752331007
 30
0.0
 11
906.6904802348768
 21
5.150043419319358
 31
0.0
  0
LINE
  5
2B0
  8
MAKE2D$VISIBLE$LINES
 10
906.6904802348768
 20
5.150043419319358
 30
0.0
 11
906.6617566612427
 21
5.169295674280198
 31
0.0
  0
LINE
  5
2B1
  8
MAKE2D$VISIBLE$LINES
 10
906.6617566612427
 20
5.169295674280198
 30
0.0
 11
906.6337158801509
 21
5.189529497426466
 31
0.0
  0
LINE
  5
2B2
  8
MAKE2D$VISIBLE$LINES
 10
906.6337158801509
 20
5.189529497426466
 30
0.0
 11
906.6063914197667
 21
5.21072069531764
 31
0.0
  0
LINE
  5
2B3
  8
MAKE2D$VISIBLE$LINES
 10
906.6063914197667
 20
5.21072069531764
 30
0.0
 11
906.5798159517561
 21
5.232843929786671
 31
0.0
  0
LINE
  5
2B4
  8
MAKE2D$VISIBLE$LINES
 10
906.5798159517561
 20
5.232843929786671
 30
0.0
 11
906.5540212522201
 21
5.255872748237199
 31
0.0
  0
LINE
  5
2B5
  8
MAKE2D$VISIBLE$LINES
 10
906.5540212522201
 20
5.255872748237199
 30
0.0
 11
906.5290381637009
 21
5.279779615271524
 31
0.0
  0
LINE
  5
2B6
  8
MAKE2D$VISIBLE$LINES
 10
906.5290381637009
 20
5.279779615271524
 30
0.0
 11
906.5048965583024
 21
5.304535945616297
 31
0.0
  0
LINE
  5
2B7
  8
MAKE2D$VISIBLE$LINES
 10
906.5048965583024
 20
5.304535945616297
 30
0.0
 11
906.4816253019734
 21
5.330112138300536
 31
0.0
  0
LINE
  5
2B8
  8
MAKE2D$VISIBLE$LINES
 10
906.4816253019734
 20
5.330112138300536
 30
0.0
 11
906.4592522199921
 21
5.356477612049595
 31
0.0
  0
LINE
  5
2B9
  8
MAKE2D$VISIBLE$LINES
 10
906.4592522199921
 20
5.356477612049595
 30
0.0
 11
906.4378040636963
 21
5.383600841850983
 31
0.0
  0
LINE
  5
2BA
  8
MAKE2D$VISIBLE$LINES
 10
906.4378040636963
 20
5.383600841850983
 30
0.0
 11
906.4173064784958
 21
5.41144939664897
 31
0.0
  0
LINE
  5
2BB
  8
MAKE2D$VISIBLE$LINES
 10
906.4173064784958
 20
5.41144939664897
 30
0.0
 11
906.397783973211
 21
5.439989978120317
 31
0.0
  0
LINE
  5
2BC
  8
MAKE2D$VISIBLE$LINES
 10
906.397783973211
 20
5.439989978120317
 30
0.0
 11
906.3792598907635
 21
5.469188460492949
 31
0.0
  0
LINE
  5
2BD
  8
MAKE2D$VISIBLE$LINES
 10
906.3792598907635
 20
5.469188460492949
 30
0.0
 11
906.3617563802698
 21
5.499009931345039
 31
0.0
  0
LINE
  5
2BE
  8
MAKE2D$VISIBLE$LINES
 10
906.3617563802698
 20
5.499009931345039
 30
0.0
 11
906.345294370555
 21
5.529418733352136
 31
0.0
  0
LINE
  5
2BF
  8
MAKE2D$VISIBLE$LINES
 10
906.345294370555
 20
5.529418733352136
 30
0.0
 11
906.329893545129
 21
5.56037850692283
 31
0.0
  0
LINE
  5
2C0
  8
MAKE2D$VISIBLE$LINES
 10
906.329893545129
 20
5.56037850692283
 30
0.0
 11
906.3155723186508
 21
5.591852233672475
 31
0.0
  0
LINE
  5
2C1
  8
MAKE2D$VISIBLE$LINES
 10
906.3155723186508
 20
5.591852233672475
 30
0.0
 11
905.7044111048838
 21
7.546619205311143
 31
0.0
  0
LINE
  5
2C2
  8
MAKE2D$VISIBLE$LINES
 10
905.7044111048838
 20
7.546619205311143
 30
0.0
 11
905.0394461606754
 21
9.470421704130183
 31
0.0
  0
LINE
  5
2C3
  8
MAKE2D$VISIBLE$LINES
 10
905.0394461606754
 20
9.470421704130183
 30
0.0
 11
904.3206774860257
 21
11.3632597301296
 31
0.0
  0
LINE
  5
2C4
  8
MAKE2D$VISIBLE$LINES
 10
904.3206774860257
 20
11.3632597301296
 30
0.0
 11
903.5481050809346
 21
13.22513328330938
 31
0.0
  0
LINE
  5
2C5
  8
MAKE2D$VISIBLE$LINES
 10
903.5481050809346
 20
13.22513328330938
 30
0.0
 11
902.7217289454021
 21
15.05604236366953
 31
0.0
  0
LINE
  5
2C6
  8
MAKE2D$VISIBLE$LINES
 10
902.7217289454021
 20
15.05604236366953
 30
0.0
 11
901.8415490794282
 21
16.85598697121006
 31
0.0
  0
LINE
  5
2C7
  8
MAKE2D$VISIBLE$LINES
 10
901.8415490794282
 20
16.85598697121006
 30
0.0
 11
900.9075654830128
 21
18.62496710593096
 31
0.0
  0
LINE
  5
2C8
  8
MAKE2D$VISIBLE$LINES
 10
900.9075654830128
 20
18.62496710593096
 30
0.0
 11
899.9197781561561
 21
20.36298276783223
 31
0.0
  0
LINE
  5
2C9
  8
MAKE2D$VISIBLE$LINES
 10
899.9197781561561
 20
20.36298276783223
 30
0.0
 11
898.878187098858
 21
22.07003395691387
 31
0.0
  0
LINE
  5
2CA
  8
MAKE2D$VISIBLE$LINES
 10
898.878187098858
 20
22.07003395691387
 30
0.0
 11
897.7827923111186
 21
23.74612067317588
 31
0.0
  0
LINE
  5
2CB
  8
MAKE2D$VISIBLE$LINES
 10
897.7827923111186
 20
23.74612067317588
 30
0.0
 11
896.6335937929376
 21
25.39124291661827
 31
0.0
  0
LINE
  5
2CC
  8
MAKE2D$VISIBLE$LINES
 10
896.6335937929376
 20
25.39124291661827
 30
0.0
 11
895.4305915443153
 21
27.00540068724103
 31
0.0
  0
LINE
  5
2CD
  8
MAKE2D$VISIBLE$LINES
 10
895.4305915443153
 20
27.00540068724103
 30
0.0
 11
894.1737855652517
 21
28.58859398504416
 31
0.0
  0
LINE
  5
2CE
  8
MAKE2D$VISIBLE$LINES
 10
894.1737855652517
 20
28.58859398504416
 30
0.0
 11
892.8631758557467
 21
30.14082281002766
 31
0.0
  0
LINE
  5
2CF
  8
MAKE2D$VISIBLE$LINES
 10
892.8631758557467
 20
30.14082281002766
 30
0.0
 11
891.4987624158002
 21
31.66208716219153
 31
0.0
  0
LINE
  5
2D0
  8
MAKE2D$VISIBLE$LINES
 10
891.4987624158002
 20
31.66208716219153
 30
0.0
 11
890.0805452454124
 21
33.15238704153577
 31
0.0
  0
LINE
  5
2D1
  8
MAKE2D$VISIBLE$LINES
 10
890.0805452454124
 20
33.15238704153577
 30
0.0
 11
888.6085243445832
 21
34.61172244806039
 31
0.0
  0
LINE
  5
2D2
  8
MAKE2D$VISIBLE$LINES
 10
888.6085243445832
 20
34.61172244806039
 30
0.0
 11
887.0826997133125
 21
36.04009338176539
 31
0.0
  0
LINE
  5
2D3
  8
MAKE2D$VISIBLE$LINES
 10
887.0826997133125
 20
36.04009338176539
 30
0.0
 11
885.5030713516005
 21
37.43749984265075
 31
0.0
  0
LINE
  5
2D4
  8
MAKE2D$VISIBLE$LINES
 10
885.5030713516005
 20
37.43749984265075
 30
0.0
 11
883.8696392594471
 21
38.80394183071648
 31
0.0
  0
LINE
  5
2D5
  8
MAKE2D$VISIBLE$LINES
 10
883.8696392594471
 20
38.80394183071648
 30
0.0
 11
882.1824034368524
 21
40.13941934596257
 31
0.0
  0
LINE
  5
2D6
  8
MAKE2D$VISIBLE$LINES
 10
882.1824034368524
 20
40.13941934596257
 30
0.0
 11
880.4413638838162
 21
41.44393238838905
 31
0.0
  0
LINE
  5
2D7
  8
MAKE2D$VISIBLE$LINES
 10
880.4413638838162
 20
41.44393238838905
 30
0.0
 11
878.6465206003385
 21
42.7174809579959
 31
0.0
  0
LINE
  5
2D8
  8
MAKE2D$VISIBLE$LINES
 10
878.6465206003385
 20
42.7174809579959
 30
0.0
 11
876.7978735864194
 21
43.96006505478312
 31
0.0
  0
LINE
  5
2D9
  8
MAKE2D$VISIBLE$LINES
 10
876.7978735864194
 20
43.96006505478312
 30
0.0
 11
874.8954228420591
 21
45.17168467875071
 31
0.0
  0
LINE
  5
2DA
  8
MAKE2D$VISIBLE$LINES
 10
874.8954228420591
 20
45.17168467875071
 30
0.0
 11
872.9391683672574
 21
46.35233982989867
 31
0.0
  0
LINE
  5
2DB
  8
MAKE2D$VISIBLE$LINES
 10
872.9391683672574
 20
46.35233982989867
 30
0.0
 11
870.9291101620142
 21
47.502030508227
 31
0.0
  0
LINE
  5
2DC
  8
MAKE2D$VISIBLE$LINES
 10
870.9291101620142
 20
47.502030508227
 30
0.0
 11
868.8652482263296
 21
48.6207567137357
 31
0.0
  0
LINE
  5
2DD
  8
MAKE2D$VISIBLE$LINES
 10
868.8652482263296
 20
48.6207567137357
 30
0.0
 11
866.7475825602037
 21
49.70851844642478
 31
0.0
  0
LINE
  5
2DE
  8
MAKE2D$VISIBLE$LINES
 10
866.7475825602037
 20
49.70851844642478
 30
0.0
 11
864.5761131636364
 21
50.76531570629423
 31
0.0
  0
LINE
  5
2DF
  8
MAKE2D$VISIBLE$LINES
 10
864.5761131636364
 20
50.76531570629423
 30
0.0
 11
862.3508400366277
 21
51.79114849334405
 31
0.0
  0
LINE
  5
2E0
  8
MAKE2D$VISIBLE$LINES
 10
862.3508400366277
 20
51.79114849334405
 30
0.0
 11
860.0717631791775
 21
52.78601680757424
 31
0.0
  0
LINE
  5
2E1
  8
MAKE2D$VISIBLE$LINES
 10
860.0717631791775
 20
52.78601680757424
 30
0.0
 11
857.738882591286
 21
53.74992064898481
 31
0.0
  0
LINE
  5
2E2
  8
MAKE2D$VISIBLE$LINES
 10
857.738882591286
 20
53.74992064898481
 30
0.0
 11
855.3521982729532
 21
54.68286001757575
 31
0.0
  0
LINE
  5
2E3
  8
MAKE2D$VISIBLE$LINES
 10
855.3521982729532
 20
54.68286001757575
 30
0.0
 11
852.9117102241789
 21
55.58483491334705
 31
0.0
  0
LINE
  5
2E4
  8
MAKE2D$VISIBLE$LINES
 10
852.9117102241789
 20
55.58483491334705
 30
0.0
 11
850.4174184449632
 21
56.45584533629874
 31
0.0
  0
LINE
  5
2E5
  8
MAKE2D$VISIBLE$LINES
 10
850.4174184449632
 20
56.45584533629874
 30
0.0
 11
845.2674236952076
 21
58.10497276374321
 31
0.0
  0
LINE
  5
2E6
  8
MAKE2D$VISIBLE$LINES
 10
845.2674236952076
 20
58.10497276374321
 30
0.0
 11
839.9022140236865
 21
59.63024229990917
 31
0.0
  0
LINE
  5
2E7
  8
MAKE2D$VISIBLE$LINES
 10
839.9022140236865
 20
59.63024229990917
 30
0.0
 11
834.3217894303998
 21
61.03165394479662
 31
0.0
  0
LINE
  5
2E8
  8
MAKE2D$VISIBLE$LINES
 10
834.3217894303998
 20
61.03165394479662
 30
0.0
 11
828.5261499153476
 21
62.30920769840556
 31
0.0
  0
LINE
  5
2E9
  8
MAKE2D$VISIBLE$LINES
 10
828.5261499153476
 20
62.30920769840556
 30
0.0
 11
822.5152954785298
 21
63.46290356073597
 31
0.0
  0
LINE
  5
2EA
  8
MAKE2D$VISIBLE$LINES
 10
822.5152954785298
 20
63.46290356073597
 30
0.0
 11
816.2892261199464
 21
64.49274153178789
 31
0.0
  0
LINE
  5
2EB
  8
MAKE2D$VISIBLE$LINES
 10
816.2892261199464
 20
64.49274153178789
 30
0.0
 11
809.8479418395975
 21
65.39872161156129
 31
0.0
  0
LINE
  5
2EC
  8
MAKE2D$VISIBLE$LINES
 10
809.8479418395975
 20
65.39872161156129
 30
0.0
 11
803.191442637483
 21
66.18084380005615
 31
0.0
  0
LINE
  5
2ED
  8
MAKE2D$VISIBLE$LINES
 10
803.191442637483
 20
66.18084380005615
 30
0.0
 11
796.3197285136029
 21
66.83910809727251
 31
0.0
  0
LINE
  5
2EE
  8
MAKE2D$VISIBLE$LINES
 10
796.3197285136029
 20
66.83910809727251
 30
0.0
 11
789.2327994679573
 21
67.37351450321039
 31
0.0
  0
LINE
  5
2EF
  8
MAKE2D$VISIBLE$LINES
 10
789.2327994679573
 20
67.37351450321039
 30
0.0
 11
781.9306555005462
 21
67.78406301786974
 31
0.0
  0
LINE
  5
2F0
  8
MAKE2D$VISIBLE$LINES
 10
781.9306555005462
 20
67.78406301786974
 30
0.0
 11
774.4132966113693
 21
68.07075364125056
 31
0.0
  0
LINE
  5
2F1
  8
MAKE2D$VISIBLE$LINES
 10
774.4132966113693
 20
68.07075364125056
 30
0.0
 11
758.732934067719
 21
68.27256121417668
 31
0.0
  0
LINE
  5
2F2
  8
MAKE2D$VISIBLE$LINES
 10
758.732934067719
 20
68.27256121417668
 30
0.0
 11
743.0525679231579
 21
68.07075364120331
 31
0.0
  0
LINE
  5
2F3
  8
MAKE2D$VISIBLE$LINES
 10
743.0525679231579
 20
68.07075364120331
 30
0.0
 11
735.5352074136999
 21
67.78406301749803
 31
0.0
  0
LINE
  5
2F4
  8
MAKE2D$VISIBLE$LINES
 10
735.5352074136999
 20
67.78406301749803
 30
0.0
 11
728.2330619461238
 21
67.37351450231368
 31
0.0
  0
LINE
  5
2F5
  8
MAKE2D$VISIBLE$LINES
 10
728.2330619461238
 20
67.37351450231368
 30
0.0
 11
721.1461315204295
 21
66.83910809565026
 31
0.0
  0
LINE
  5
2F6
  8
MAKE2D$VISIBLE$LINES
 10
721.1461315204295
 20
66.83910809565026
 30
0.0
 11
714.274416136617
 21
66.18084379750776
 31
0.0
  0
LINE
  5
2F7
  8
MAKE2D$VISIBLE$LINES
 10
714.274416136617
 20
66.18084379750776
 30
0.0
 11
707.6179157946862
 21
65.39872160788619
 31
0.0
  0
LINE
  5
2F8
  8
MAKE2D$VISIBLE$LINES
 10
707.6179157946862
 20
65.39872160788619
 30
0.0
 11
701.1766304946372
 21
64.49274152678557
 31
0.0
  0
LINE
  5
2F9
  8
MAKE2D$VISIBLE$LINES
 10
701.1766304946372
 20
64.49274152678557
 30
0.0
 11
694.95056023647
 21
63.46290355420585
 31
0.0
  0
LINE
  5
2FA
  8
MAKE2D$VISIBLE$LINES
 10
694.95056023647
 20
63.46290355420585
 30
0.0
 11
688.9397050201844
 21
62.30920769014708
 31
0.0
  0
LINE
  5
2FB
  8
MAKE2D$VISIBLE$LINES
 10
688.9397050201844
 20
62.30920769014708
 30
0.0
 11
683.1440648457808
 21
61.03165393460922
 31
0.0
  0
LINE
  5
2FC
  8
MAKE2D$VISIBLE$LINES
 10
683.1440648457808
 20
61.03165393460922
 30
0.0
 11
677.5636397132589
 21
59.63024228759231
 31
0.0
  0
LINE
  5
2FD
  8
MAKE2D$VISIBLE$LINES
 10
677.5636397132589
 20
59.63024228759231
 30
0.0
 11
672.1984296226188
 21
58.10497274909632
 31
0.0
  0
LINE
  5
2FE
  8
MAKE2D$VISIBLE$LINES
 10
672.1984296226188
 20
58.10497274909632
 30
0.0
 11
667.0484345738605
 21
56.45584531912127
 31
0.0
  0
LINE
  5
2FF
  8
MAKE2D$VISIBLE$LINES
 10
667.0484345738605
 20
56.45584531912127
 30
0.0
 11
664.5541426901871
 21
55.58483489482909
 31
0.0
  0
LINE
  5
300
  8
MAKE2D$VISIBLE$LINES
 10
664.5541426901871
 20
55.58483489482909
 30
0.0
 11
662.113654566984
 21
54.68285999766713
 31
0.0
  0
LINE
  5
301
  8
MAKE2D$VISIBLE$LINES
 10
662.113654566984
 20
54.68285999766713
 30
0.0
 11
659.7269702042513
 21
53.74992062763541
 31
0.0
  0
LINE
  5
302
  8
MAKE2D$VISIBLE$LINES
 10
659.7269702042513
 20
53.74992062763541
 30
0.0
 11
657.3940896019892
 21
52.78601678473393
 31
0.0
  0
LINE
  5
303
  8
MAKE2D$VISIBLE$LINES
 10
657.3940896019892
 20
52.78601678473393
 30
0.0
 11
655.1150127601975
 21
51.79114846896268
 31
0.0
  0
LINE
  5
304
  8
MAKE2D$VISIBLE$LINES
 10
655.1150127601975
 20
51.79114846896268
 30
0.0
 11
652.8897396788763
 21
50.76531568032166
 31
0.0
  0
LINE
  5
305
  8
MAKE2D$VISIBLE$LINES
 10
652.8897396788763
 20
50.76531568032166
 30
0.0
 11
650.7182703580254
 21
49.70851841881088
 31
0.0
  0
LINE
  5
306
  8
MAKE2D$VISIBLE$LINES
 10
650.7182703580254
 20
49.70851841881088
 30
0.0
 11
648.600604797645
 21
48.62075668443032
 31
0.0
  0
LINE
  5
307
  8
MAKE2D$VISIBLE$LINES
 10
648.600604797645
 20
48.62075668443032
 30
0.0
 11
646.536742997735
 21
47.50203047717999
 31
0.0
  0
LINE
  5
308
  8
MAKE2D$VISIBLE$LINES
 10
646.536742997735
 20
47.50203047717999
 30
0.0
 11
644.5266849582956
 21
46.3523397970599
 31
0.0
  0
LINE
  5
309
  8
MAKE2D$VISIBLE$LINES
 10
644.5266849582956
 20
46.3523397970599
 30
0.0
 11
642.5704306793266
 21
45.17168464407004
 31
0.0
  0
LINE
  5
30A
  8
MAKE2D$VISIBLE$LINES
 10
642.5704306793266
 20
45.17168464407004
 30
0.0
 11
640.6679801608279
 21
43.96006501821041
 31
0.0
  0
LINE
  5
30B
  8
MAKE2D$VISIBLE$LINES
 10
640.6679801608279
 20
43.96006501821041
 30
0.0
 11
638.8193334027998
 21
42.71748091948102
 31
0.0
  0
LINE
  5
30C
  8
MAKE2D$VISIBLE$LINES
 10
638.8193334027998
 20
42.71748091948102
 30
0.0
 11
637.0244904052421
 21
41.44393234788186
 31
0.0
  0
LINE
  5
30D
  8
MAKE2D$VISIBLE$LINES
 10
637.0244904052421
 20
41.44393234788186
 30
0.0
 11
635.2834511681549
 21
40.13941930341293
 31
0.0
  0
LINE
  5
30E
  8
MAKE2D$VISIBLE$LINES
 10
635.2834511681549
 20
40.13941930341293
 30
0.0
 11
633.5962156915381
 21
38.80394178607423
 31
0.0
  0
LINE
  5
30F
  8
MAKE2D$VISIBLE$LINES
 10
633.5962156915381
 20
38.80394178607423
 30
0.0
 11
631.9627839753917
 21
37.43749979586577
 31
0.0
  0
LINE
  5
310
  8
MAKE2D$VISIBLE$LINES
 10
631.9627839753917
 20
37.43749979586577
 30
0.0
 11
630.3831560197158
 21
36.04009333278754
 31
0.0
  0
LINE
  5
311
  8
MAKE2D$VISIBLE$LINES
 10
630.3831560197158
 20
36.04009333278754
 30
0.0
 11
628.8573318245102
 21
34.61172239683954
 31
0.0
  0
LINE
  5
312
  8
MAKE2D$VISIBLE$LINES
 10
628.8573318245102
 20
34.61172239683954
 30
0.0
 11
627.3853113897752
 21
33.15238698802177
 31
0.0
  0
LINE
  5
313
  8
MAKE2D$VISIBLE$LINES
 10
627.3853113897752
 20
33.15238698802177
 30
0.0
 11
625.9670947155107
 21
31.66208710633424
 31
0.0
  0
LINE
  5
314
  8
MAKE2D$VISIBLE$LINES
 10
625.9670947155107
 20
31.66208710633424
 30
0.0
 11
624.6026818017165
 21
30.14082275177694
 31
0.0
  0
LINE
  5
315
  8
MAKE2D$VISIBLE$LINES
 10
624.6026818017165
 20
30.14082275177694
 30
0.0
 11
623.2920726483928
 21
28.58859392434987
 31
0.0
  0
LINE
  5
316
  8
MAKE2D$VISIBLE$LINES
 10
623.2920726483928
 20
28.58859392434987
 30
0.0
 11
622.0352672555395
 21
27.00540062405303
 31
0.0
  0
LINE
  5
317
  8
MAKE2D$VISIBLE$LINES
 10
622.0352672555395
 20
27.00540062405303
 30
0.0
 11
620.8322656231566
 21
25.39124285088642
 31
0.0
  0
LINE
  5
318
  8
MAKE2D$VISIBLE$LINES
 10
620.8322656231566
 20
25.39124285088642
 30
0.0
 11
619.6830677512443
 21
23.74612060485005
 31
0.0
  0
LINE
  5
319
  8
MAKE2D$VISIBLE$LINES
 10
619.6830677512443
 20
23.74612060485005
 30
0.0
 11
618.5876736398025
 21
22.07003388594391
 31
0.0
  0
LINE
  5
31A
  8
MAKE2D$VISIBLE$LINES
 10
618.5876736398025
 20
22.07003388594391
 30
0.0
 11
617.5460832888309
 21
20.362982694168
 31
0.0
  0
LINE
  5
31B
  8
MAKE2D$VISIBLE$LINES
 10
617.5460832888309
 20
20.362982694168
 30
0.0
 11
616.55829669833
 21
18.62496702952232
 31
0.0
  0
LINE
  5
31C
  8
MAKE2D$VISIBLE$LINES
 10
616.55829669833
 20
18.62496702952232
 30
0.0
 11
615.6243138682993
 21
16.85598689200688
 31
0.0
  0
LINE
  5
31D
  8
MAKE2D$VISIBLE$LINES
 10
615.6243138682993
 20
16.85598689200688
 30
0.0
 11
614.7441347987391
 21
15.05604228162167
 31
0.0
  0
LINE
  5
31E
  8
MAKE2D$VISIBLE$LINES
 10
614.7441347987391
 20
15.05604228162167
 30
0.0
 11
613.9177594896495
 21
13.22513319836669
 31
0.0
  0
LINE
  5
31F
  8
MAKE2D$VISIBLE$LINES
 10
613.9177594896495
 20
13.22513319836669
 30
0.0
 11
613.1451879410304
 21
11.36325964224194
 31
0.0
  0
LINE
  5
320
  8
MAKE2D$VISIBLE$LINES
 10
613.1451879410304
 20
11.36325964224194
 30
0.0
 11
612.4264201528815
 21
9.470421613247428
 31
0.0
  0
LINE
  5
321
  8
MAKE2D$VISIBLE$LINES
 10
612.4264201528815
 20
9.470421613247428
 30
0.0
 11
611.761456125203
 21
7.546619111383145
 31
0.0
  0
LINE
  5
322
  8
MAKE2D$VISIBLE$LINES
 10
611.761456125203
 20
7.546619111383145
 30
0.0
 11
611.1502958579952
 21
5.591852136649095
 31
0.0
  0
LINE
  5
323
  8
MAKE2D$VISIBLE$LINES
 10
611.1502958579952
 20
5.591852136649095
 30
0.0
 11
611.1359746315376
 21
5.560378409889999
 31
0.0
  0
LINE
  5
324
  8
MAKE2D$VISIBLE$LINES
 10
611.1359746315376
 20
5.560378409889999
 30
0.0
 11
611.1205738061317
 21
5.529418636308749
 31
0.0
  0
LINE
  5
325
  8
MAKE2D$VISIBLE$LINES
 10
611.1205738061317
 20
5.529418636308749
 30
0.0
 11
611.104111796437
 21
5.499009834291004
 31
0.0
  0
LINE
  5
326
  8
MAKE2D$VISIBLE$LINES
 10
611.104111796437
 20
5.499009834291004
 30
0.0
 11
611.0866082859632
 21
5.469188363427577
 31
0.0
  0
LINE
  5
327
  8
MAKE2D$VISIBLE$LINES
 10
611.0866082859632
 20
5.469188363427577
 30
0.0
 11
611.0680842035351
 21
5.43998988104312
 31
0.0
  0
LINE
  5
328
  8
MAKE2D$VISIBLE$LINES
 10
611.0680842035351
 20
5.43998988104312
 30
0.0
 11
611.0485616982686
 21
5.411449299558345
 31
0.0
  0
LINE
  5
329
  8
MAKE2D$VISIBLE$LINES
 10
611.0485616982686
 20
5.411449299558345
 30
0.0
 11
611.0280641130868
 21
5.383600744747221
 31
0.0
  0
LINE
  5
32A
  8
MAKE2D$VISIBLE$LINES
 10
611.0280641130868
 20
5.383600744747221
 30
0.0
 11
611.0066159568088
 21
5.356477514931699
 31
0.0
  0
LINE
  5
32B
  8
MAKE2D$VISIBLE$LINES
 10
611.0066159568088
 20
5.356477514931699
 30
0.0
 11
610.9842428748447
 21
5.330112041167728
 31
0.0
  0
LINE
  5
32C
  8
MAKE2D$VISIBLE$LINES
 10
610.9842428748447
 20
5.330112041167728
 30
0.0
 11
610.9609716185323
 21
5.304535848467997
 31
0.0
  0
LINE
  5
32D
  8
MAKE2D$VISIBLE$LINES
 10
610.9609716185323
 20
5.304535848467997
 30
0.0
 11
610.9368300131503
 21
5.279779518107492
 31
0.0
  0
LINE
  5
32E
  8
MAKE2D$VISIBLE$LINES
 10
610.9368300131503
 20
5.279779518107492
 30
0.0
 11
610.9118469246466
 21
5.255872651056563
 31
0.0
  0
LINE
  5
32F
  8
MAKE2D$VISIBLE$LINES
 10
610.9118469246466
 20
5.255872651056563
 30
0.0
 11
610.8860522251258
 21
5.232843832589205
 31
0.0
  0
LINE
  5
330
  8
MAKE2D$VISIBLE$LINES
 10
610.8860522251258
 20
5.232843832589205
 30
0.0
 11
610.8594767571296
 21
5.210720598102537
 31
0.0
  0
LINE
  5
331
  8
MAKE2D$VISIBLE$LINES
 10
610.8594767571296
 20
5.210720598102537
 30
0.0
 11
610.8321522967594
 21
5.189529400193517
 31
0.0
  0
LINE
  5
332
  8
MAKE2D$VISIBLE$LINES
 10
610.8321522967594
 20
5.189529400193517
 30
0.0
 11
610.8041115156809
 21
5.169295577028792
 31
0.0
  0
LINE
  5
333
  8
MAKE2D$VISIBLE$LINES
 10
610.8041115156809
 20
5.169295577028792
 30
0.0
 11
610.7753879420596
 21
5.150043322049045
 31
0.0
  0
LINE
  5
334
  8
MAKE2D$VISIBLE$LINES
 10
610.7753879420596
 20
5.150043322049045
 30
0.0
 11
610.7460159204722
 21
5.131795655041365
 31
0.0
  0
LINE
  5
335
  8
MAKE2D$VISIBLE$LINES
 10
610.7460159204722
 20
5.131795655041365
 30
0.0
 11
610.7160305708393
 21
5.114574394613364
 31
0.0
  0
LINE
  5
336
  8
MAKE2D$VISIBLE$LINES
 10
610.7160305708393
 20
5.114574394613364
 30
0.0
 11
610.685467746433
 21
5.098400132105322
 31
0.0
  0
LINE
  5
337
  8
MAKE2D$VISIBLE$LINES
 10
610.685467746433
 20
5.098400132105322
 30
0.0
 11
610.654363991009
 21
5.083292206969984
 31
0.0
  0
LINE
  5
338
  8
MAKE2D$VISIBLE$LINES
 10
610.654363991009
 20
5.083292206969984
 30
0.0
 11
610.62275649511
 21
5.06926868364773
 31
0.0
  0
LINE
  5
339
  8
MAKE2D$VISIBLE$LINES
 10
610.62275649511
 20
5.06926868364773
 30
0.0
 11
610.5906830515981
 21
5.056346329967361
 31
0.0
  0
LINE
  5
33A
  8
MAKE2D$VISIBLE$LINES
 10
610.5906830515981
 20
5.056346329967361
 30
0.0
 11
610.558182010465
 21
5.044540597096665
 31
0.0
  0
LINE
  5
33B
  8
MAKE2D$VISIBLE$LINES
 10
610.558182010465
 20
5.044540597096665
 30
0.0
 11
610.5252922329777
 21
5.033865601067767
 31
0.0
  0
LINE
  5
33C
  8
MAKE2D$VISIBLE$LINES
 10
610.5252922329777
 20
5.033865601067767
 30
0.0
 11
610.4920530452137
 21
5.02433410589881
 31
0.0
  0
LINE
  5
33D
  8
MAKE2D$VISIBLE$LINES
 10
610.4920530452137
 20
5.02433410589881
 30
0.0
 11
610.4585041910373
 21
5.015957508331933
 31
0.0
  0
LINE
  5
33E
  8
MAKE2D$VISIBLE$LINES
 10
610.4585041910373
 20
5.015957508331933
 30
0.0
 11
610.4246857845783
 21
5.008745824206169
 31
0.0
  0
LINE
  5
33F
  8
MAKE2D$VISIBLE$LINES
 10
610.4246857845783
 20
5.008745824206169
 30
0.0
 11
610.3906382622687
 21
5.002707676481775
 31
0.0
  0
LINE
  5
340
  8
MAKE2D$VISIBLE$LINES
 10
610.3906382622687
 20
5.002707676481775
 30
0.0
 11
610.3564023344925
 21
4.997850284929676
 31
0.0
  0
LINE
  5
341
  8
MAKE2D$VISIBLE$LINES
 10
610.3564023344925
 20
4.997850284929676
 30
0.0
 11
610.3220189369099
 21
4.994179457499096
 31
0.0
  0
LINE
  5
342
  8
MAKE2D$VISIBLE$LINES
 10
610.3220189369099
 20
4.994179457499096
 30
0.0
 11
610.2875291815084
 21
4.991699583372652
 31
0.0
  0
LINE
  5
343
  8
MAKE2D$VISIBLE$LINES
 10
610.2875291815084
 20
4.991699583372652
 30
0.0
 11
610.2529743074465
 21
4.990413627718448
 31
0.0
  0
LINE
  5
344
  8
MAKE2D$VISIBLE$LINES
 10
610.2529743074465
 20
4.990413627718448
 30
0.0
 11
610.2183956317459
 21
4.990323128144705
 31
0.0
  0
LINE
  5
345
  8
MAKE2D$VISIBLE$LINES
 10
610.2183956317459
 20
4.990323128144705
 30
0.0
 11
610.1838344998879
 21
4.991428192861111
 31
0.0
  0
LINE
  5
346
  8
MAKE2D$VISIBLE$LINES
 10
610.1838344998879
 20
4.991428192861111
 30
0.0
 11
610.149332236375
 21
4.993727500549519
 31
0.0
  0
LINE
  5
347
  8
MAKE2D$VISIBLE$LINES
 10
610.149332236375
 20
4.993727500549519
 30
0.0
 11
610.1149300953225
 21
4.99721830194384
 31
0.0
  0
LINE
  5
348
  8
MAKE2D$VISIBLE$LINES
 10
610.1149300953225
 20
4.99721830194384
 30
0.0
 11
610.0806692111302
 21
5.001896423117224
 31
0.0
  0
LINE
  5
349
  8
MAKE2D$VISIBLE$LINES
 10
610.0806692111302
 20
5.001896423117224
 30
0.0
 11
610.0465905492972
 21
5.007756270472933
 31
0.0
  0
LINE
  5
34A
  8
MAKE2D$VISIBLE$LINES
 10
610.0465905492972
 20
5.007756270472933
 30
0.0
 11
610.0127348574408
 21
5.014790837432585
 31
0.0
  0
LINE
  5
34B
  8
MAKE2D$VISIBLE$LINES
 10
610.0127348574408
 20
5.014790837432585
 30
0.0
 11
609.9791426165757
 21
5.022991712813498
 31
0.0
  0
LINE
  5
34C
  8
MAKE2D$VISIBLE$LINES
 10
609.9791426165757
 20
5.022991712813498
 30
0.0
 11
609.9458539927087
 21
5.032349090886443
 31
0.0
  0
LINE
  5
34D
  8
MAKE2D$VISIBLE$LINES
 10
609.9458539927087
 20
5.032349090886443
 30
0.0
 11
609.9129087888147
 21
5.04285178309993
 31
0.0
  0
LINE
  5
34E
  8
MAKE2D$VISIBLE$LINES
 10
609.9129087888147
 20
5.04285178309993
 30
0.0
 11
609.8803463972428
 21
5.05448723145852
 31
0.0
  0
LINE
  5
34F
  8
MAKE2D$VISIBLE$LINES
 10
609.8803463972428
 20
5.05448723145852
 30
0.0
 11
609.848205752618
 21
5.067241523537629
 31
0.0
  0
LINE
  5
350
  8
MAKE2D$VISIBLE$LINES
 10
609.848205752618
 20
5.067241523537629
 30
0.0
 11
609.8165252852831
 21
5.081099409119862
 31
0.0
  0
LINE
  5
351
  8
MAKE2D$VISIBLE$LINES
 10
609.8165252852831
 20
5.081099409119862
 30
0.0
 11
609.7853428753517
 21
5.096044318428127
 31
0.0
  0
LINE
  5
352
  8
MAKE2D$VISIBLE$LINES
 10
609.7853428753517
 20
5.096044318428127
 30
0.0
 11
609.7546958074133
 21
5.112058381939012
 31
0.0
  0
LINE
  5
353
  8
MAKE2D$VISIBLE$LINES
 10
609.7546958074133
 20
5.112058381939012
 30
0.0
 11
609.7246207259521
 21
5.129122451748939
 31
0.0
  0
LINE
  5
354
  8
MAKE2D$VISIBLE$LINES
 10
609.7246207259521
 20
5.129122451748939
 30
0.0
 11
609.6951535915331
 21
5.147216124468927
 31
0.0
  0
LINE
  5
355
  8
MAKE2D$VISIBLE$LINES
 10
609.6951535915331
 20
5.147216124468927
 30
0.0
 11
609.6663296378026
 21
5.166317765620968
 31
0.0
  0
LINE
  5
356
  8
MAKE2D$VISIBLE$LINES
 10
609.6663296378026
 20
5.166317765620968
 30
0.0
 11
609.6381833293605
 21
5.186404535506502
 31
0.0
  0
LINE
  5
357
  8
MAKE2D$VISIBLE$LINES
 10
609.6381833293605
 20
5.186404535506502
 30
0.0
 11
609.6107483205506
 21
5.207452416515456
 31
0.0
  0
LINE
  5
358
  8
MAKE2D$VISIBLE$LINES
 10
609.6107483205506
 20
5.207452416515456
 30
0.0
 11
609.5840574152212
 21
5.229436241843497
 31
0.0
  0
LINE
  5
359
  8
MAKE2D$VISIBLE$LINES
 10
609.5840574152212
 20
5.229436241843497
 30
0.0
 11
609.5581425275008
 21
5.252329725584782
 31
0.0
  0
LINE
  5
35A
  8
MAKE2D$VISIBLE$LINES
 10
609.5581425275008
 20
5.252329725584782
 30
0.0
 11
609.5330346436398
 21
5.276105494160677
 31
0.0
  0
LINE
  5
35B
  8
MAKE2D$VISIBLE$LINES
 10
609.5330346436398
 20
5.276105494160677
 30
0.0
 11
609.508763784959
 21
5.300735119051195
 31
0.0
  0
LINE
  5
35C
  8
MAKE2D$VISIBLE$LINES
 10
609.508763784959
 20
5.300735119051195
 30
0.0
 11
609.485358971954
 21
5.326189150786347
 31
0.0
  0
LINE
  5
35D
  8
MAKE2D$VISIBLE$LINES
 10
609.485358971954
 20
5.326189150786347
 30
0.0
 11
609.4628481895963
 21
5.352437154158325
 31
0.0
  0
LINE
  5
35E
  8
MAKE2D$VISIBLE$LINES
 10
609.4628481895963
 20
5.352437154158325
 30
0.0
 11
609.4412583538709
 21
5.37944774461296
 31
0.0
  0
LINE
  5
35F
  8
MAKE2D$VISIBLE$LINES
 10
609.4412583538709
 20
5.37944774461296
 30
0.0
 11
609.4206152795934
 21
5.407188625776402
 31
0.0
  0
LINE
  5
360
  8
MAKE2D$VISIBLE$LINES
 10
609.4206152795934
 20
5.407188625776402
 30
0.0
 11
609.4009436495429
 21
5.435626628071324
 31
0.0
  0
LINE
  5
361
  8
MAKE2D$VISIBLE$LINES
 10
609.4009436495429
 20
5.435626628071324
 30
0.0
 11
609.3822669849502
 21
5.46472774837698
 31
0.0
  0
LINE
  5
362
  8
MAKE2D$VISIBLE$LINES
 10
609.3822669849502
 20
5.46472774837698
 30
0.0
 11
609.364607617372
 21
5.494457190687813
 31
0.0
  0
LINE
  5
363
  8
MAKE2D$VISIBLE$LINES
 10
609.364607617372
 20
5.494457190687813
 30
0.0
 11
609.3479866619912
 21
5.524779407717266
 31
0.0
  0
LINE
  5
364
  8
MAKE2D$VISIBLE$LINES
 10
609.3479866619912
 20
5.524779407717266
 30
0.0
 11
609.3324239923674
 21
5.555658143402786
 31
0.0
  0
LINE
  5
365
  8
MAKE2D$VISIBLE$LINES
 10
609.3324239923674
 20
5.555658143402786
 30
0.0
 11
609.3179382166759
 21
5.587056476256368
 31
0.0
  0
LINE
  5
366
  8
MAKE2D$VISIBLE$LINES
 10
609.3179382166759
 20
5.587056476256368
 30
0.0
 11
609.3045466554573
 21
5.6189368635109
 31
0.0
  0
LINE
  5
367
  8
MAKE2D$VISIBLE$LINES
 10
609.3045466554573
 20
5.6189368635109
 30
0.0
 11
609.2922653209079
 21
5.651261186009971
 31
0.0
  0
LINE
  5
368
  8
MAKE2D$VISIBLE$LINES
 10
609.2922653209079
 20
5.651261186009971
 30
0.0
 11
609.281108897733
 21
5.683990793788178
 31
0.0
  0
LINE
  5
369
  8
MAKE2D$VISIBLE$LINES
 10
609.281108897733
 20
5.683990793788178
 30
0.0
 11
609.2710907255902
 21
5.717086552282078
 31
0.0
  0
LINE
  5
36A
  8
MAKE2D$VISIBLE$LINES
 10
609.2710907255902
 20
5.717086552282078
 30
0.0
 11
609.2622227831376
 21
5.750508889124575
 31
0.0
  0
LINE
  5
36B
  8
MAKE2D$VISIBLE$LINES
 10
609.2622227831376
 20
5.750508889124575
 30
0.0
 11
609.2545156737121
 21
5.784217841461568
 31
0.0
  0
LINE
  5
36C
  8
MAKE2D$VISIBLE$LINES
 10
609.2545156737121
 20
5.784217841461568
 30
0.0
 11
609.2479786126504
 21
5.818173103734823
 31
0.0
  0
LINE
  5
36D
  8
MAKE2D$VISIBLE$LINES
 10
609.2479786126504
 20
5.818173103734823
 30
0.0
 11
609.2426194162707
 21
5.852334075874364
 31
0.0
  0
LINE
  5
36E
  8
MAKE2D$VISIBLE$LINES
 10
609.2426194162707
 20
5.852334075874364
 30
0.0
 11
609.2384444925266
 21
5.886659911845265
 31
0.0
  0
LINE
  5
36F
  8
MAKE2D$VISIBLE$LINES
 10
609.2384444925266
 20
5.886659911845265
 30
0.0
 11
609.2354588333452
 21
5.921109568485398
 31
0.0
  0
LINE
  5
370
  8
MAKE2D$VISIBLE$LINES
 10
609.2354588333452
 20
5.921109568485398
 30
0.0
 11
609.2336660086585
 21
5.955641854580894
 31
0.0
  0
LINE
  5
371
  8
MAKE2D$VISIBLE$LINES
 10
609.2336660086585
 20
5.955641854580894
 30
0.0
 11
609.233068162134
 21
5.990215480119787
 31
0.0
  0
LINE
  5
372
  8
MAKE2D$VISIBLE$LINES
 10
609.233068162134
 20
5.990215480119787
 30
0.0
 11
609.2330681578544
 21
12.50000000328691
 31
0.0
  0
LINE
  5
373
  8
MAKE2D$VISIBLE$LINES
 10
609.2330681578544
 20
12.50000000328691
 30
0.0
 11
606.3330681578545
 21
12.50000000138039
 31
0.0
  0
LINE
  5
374
  8
MAKE2D$VISIBLE$LINES
 10
606.3330681578545
 20
12.50000000138039
 30
0.0
 11
606.3330681660723
 21
0.0000000013803856
 31
0.0
  0
LINE
  5
375
  8
MAKE2D$VISIBLE$LINES
 10
606.3330681660723
 20
0.0000000013803856
 30
0.0
 11
604.2331526435496
 21
0.0
 31
0.0
  0
LINE
  5
376
  8
MAKE2D$VISIBLE$LINES
 10
604.2331526435496
 20
0.0
 30
0.0
 11
604.062447092618
 21
0.0029148880568872
 31
0.0
  0
LINE
  5
377
  8
MAKE2D$VISIBLE$LINES
 10
604.062447092618
 20
0.0029148880568872
 30
0.0
 11
603.8919405767188
 21
0.0116561538230142
 31
0.0
  0
LINE
  5
378
  8
MAKE2D$VISIBLE$LINES
 10
603.8919405767188
 20
0.0116561538230142
 30
0.0
 11
603.7218318988224
 21
0.0262136053734441
 31
0.0
  0
LINE
  5
379
  8
MAKE2D$VISIBLE$LINES
 10
603.7218318988224
 20
0.0262136053734441
 30
0.0
 11
603.552319398038
 21
0.0465702693708616
 31
0.0
  0
LINE
  5
37A
  8
MAKE2D$VISIBLE$LINES
 10
603.552319398038
 20
0.0465702693708616
 30
0.0
 11
603.3836007183586
 21
0.0727024108556833
 31
0.0
  0
LINE
  5
37B
  8
MAKE2D$VISIBLE$LINES
 10
603.3836007183586
 20
0.0727024108556833
 30
0.0
 11
603.2158725782177
 21
0.1045795609198672
 31
0.0
  0
LINE
  5
37C
  8
MAKE2D$VISIBLE$LINES
 10
603.2158725782177
 20
0.1045795609198672
 30
0.0
 11
603.0493305411242
 21
0.1421645522322725
 31
0.0
  0
LINE
  5
37D
  8
MAKE2D$VISIBLE$LINES
 10
603.0493305411242
 20
0.1421645522322725
 30
0.0
 11
602.8841687876429
 21
0.1854135623744302
 31
0.0
  0
LINE
  5
37E
  8
MAKE2D$VISIBLE$LINES
 10
602.8841687876429
 20
0.1854135623744302
 30
0.0
 11
602.7205798889906
 21
0.2342761649350988
 31
0.0
  0
LINE
  5
37F
  8
MAKE2D$VISIBLE$LINES
 10
602.7205798889906
 20
0.2342761649350988
 30
0.0
 11
602.5587545825053
 21
0.288695388305432
 31
0.0
  0
LINE
  5
380
  8
MAKE2D$VISIBLE$LINES
 10
602.5587545825053
 20
0.288695388305432
 30
0.0
 11
602.3988815492557
 21
0.3486077821052778
 31
0.0
  0
LINE
  5
381
  8
MAKE2D$VISIBLE$LINES
 10
602.3988815492557
 20
0.3486077821052778
 30
0.0
 11
602.2411471940467
 21
0.4139434911635806
 31
0.0
  0
LINE
  5
382
  8
MAKE2D$VISIBLE$LINES
 10
602.2411471940467
 20
0.4139434911635806
 30
0.0
 11
602.0857354280813
 21
0.4846263369659267
 31
0.0
  0
LINE
  5
383
  8
MAKE2D$VISIBLE$LINES
 10
602.0857354280813
 20
0.4846263369659267
 30
0.0
 11
601.9328274545259
 21
0.5605739064762938
 31
0.0
  0
LINE
  5
384
  8
MAKE2D$VISIBLE$LINES
 10
601.9328274545259
 20
0.5605739064762938
 30
0.0
 11
601.7826015572385
 21
0.6416976482255441
 31
0.0
  0
LINE
  5
385
  8
MAKE2D$VISIBLE$LINES
 10
601.7826015572385
 20
0.6416976482255441
 30
0.0
 11
601.6352328928946
 21
0.7279029755600845
 31
0.0
  0
LINE
  5
386
  8
MAKE2D$VISIBLE$LINES
 10
601.6352328928946
 20
0.7279029755600845
 30
0.0
 11
601.4908932867655
 21
0.8190893769239516
 31
0.0
  0
LINE
  5
387
  8
MAKE2D$VISIBLE$LINES
 10
601.4908932867655
 20
0.8190893769239516
 30
0.0
 11
601.3497510323742
 21
0.915150533052751
 31
0.0
  0
LINE
  5
388
  8
MAKE2D$VISIBLE$LINES
 10
601.3497510323742
 20
0.915150533052751
 30
0.0
 11
601.2119706952769
 21
1.015974440934852
 31
0.0
  0
LINE
  5
389
  8
MAKE2D$VISIBLE$LINES
 10
601.2119706952769
 20
1.015974440934852
 30
0.0
 11
601.077712921183
 21
1.121443544403857
 31
0.0
  0
LINE
  5
38A
  8
MAKE2D$VISIBLE$LINES
 10
601.077712921183
 20
1.121443544403857
 30
0.0
 11
600.947134248651
 21
1.231434871203432
 31
0.0
  0
LINE
  5
38B
  8
MAKE2D$VISIBLE$LINES
 10
600.947134248651
 20
1.231434871203432
 30
0.0
 11
600.8203869265725
 21
1.345820176366272
 31
0.0
  0
LINE
  5
38C
  8
MAKE2D$VISIBLE$LINES
 10
600.8203869265725
 20
1.345820176366272
 30
0.0
 11
600.6976187366552
 21
1.464466091743421
 31
0.0
  0
LINE
  5
38D
  8
MAKE2D$VISIBLE$LINES
 10
600.6976187366552
 20
1.464466091743421
 30
0.0
 11
600.5789728211165
 21
1.58723428150486
 31
0.0
  0
LINE
  5
38E
  8
MAKE2D$VISIBLE$LINES
 10
600.5789728211165
 20
1.58723428150486
 30
0.0
 11
600.4645875157871
 21
1.713981603433039
 31
0.0
  0
LINE
  5
38F
  8
MAKE2D$VISIBLE$LINES
 10
600.4645875157871
 20
1.713981603433039
 30
0.0
 11
600.3545961888159
 21
1.844560275820469
 31
0.0
  0
LINE
  5
390
  8
MAKE2D$VISIBLE$LINES
 10
600.3545961888159
 20
1.844560275820469
 30
0.0
 11
600.2491270851705
 21
1.978818049775708
 31
0.0
  0
LINE
  5
391
  8
MAKE2D$VISIBLE$LINES
 10
600.2491270851705
 20
1.978818049775708
 30
0.0
 11
600.1483031771071
 21
2.116598386740707
 31
0.0
  0
LINE
  5
392
  8
MAKE2D$VISIBLE$LINES
 10
600.1483031771071
 20
2.116598386740707
 30
0.0
 11
600.0522420207932
 21
2.257740641005068
 31
0.0
  0
LINE
  5
393
  8
MAKE2D$VISIBLE$LINES
 10
600.0522420207932
 20
2.257740641005068
 30
0.0
 11
599.9610556192392
 21
2.402080247014695
 31
0.0
  0
LINE
  5
394
  8
MAKE2D$VISIBLE$LINES
 10
599.9610556192392
 20
2.402080247014695
 30
0.0
 11
599.8748502917113
 21
2.54944891124486
 31
0.0
  0
LINE
  5
395
  8
MAKE2D$VISIBLE$LINES
 10
599.8748502917113
 20
2.54944891124486
 30
0.0
 11
599.7937265497642
 21
2.699674808426003
 31
0.0
  0
LINE
  5
396
  8
MAKE2D$VISIBLE$LINES
 10
599.7937265497642
 20
2.699674808426003
 30
0.0
 11
599.717778980053
 21
2.852582781881375
 31
0.0
  0
LINE
  5
397
  8
MAKE2D$VISIBLE$LINES
 10
599.717778980053
 20
2.852582781881375
 30
0.0
 11
599.6470961340463
 21
3.007994547754057
 31
0.0
  0
LINE
  5
398
  8
MAKE2D$VISIBLE$LINES
 10
599.6470961340463
 20
3.007994547754057
 30
0.0
 11
599.5817604247807
 21
3.165728902876975
 31
0.0
  0
LINE
  5
399
  8
MAKE2D$VISIBLE$LINES
 10
599.5817604247807
 20
3.165728902876975
 30
0.0
 11
599.5218480307707
 21
3.325601936048097
 31
0.0
  0
LINE
  5
39A
  8
MAKE2D$VISIBLE$LINES
 10
599.5218480307707
 20
3.325601936048097
 30
0.0
 11
599.4674288071876
 21
3.487427242461817
 31
0.0
  0
LINE
  5
39B
  8
MAKE2D$VISIBLE$LINES
 10
599.4674288071876
 20
3.487427242461817
 30
0.0
 11
599.4185662044118
 21
3.651016141049895
 31
0.0
  0
LINE
  5
39C
  8
MAKE2D$VISIBLE$LINES
 10
599.4185662044118
 20
3.651016141049895
 30
0.0
 11
599.3753171940526
 21
3.816177894474291
 31
0.0
  0
LINE
  5
39D
  8
MAKE2D$VISIBLE$LINES
 10
599.3753171940526
 20
3.816177894474291
 30
0.0
 11
599.3377322025211
 21
3.98271993151881
 31
0.0
  0
LINE
  5
39E
  8
MAKE2D$VISIBLE$LINES
 10
599.3377322025211
 20
3.98271993151881
 30
0.0
 11
599.3058550522366
 21
4.150448071617629
 31
0.0
  0
LINE
  5
39F
  8
MAKE2D$VISIBLE$LINES
 10
599.3058550522366
 20
4.150448071617629
 30
0.0
 11
599.2797229105299
 21
4.319166751262491
 31
0.0
  0
LINE
  5
3A0
  8
MAKE2D$VISIBLE$LINES
 10
599.2797229105299
 20
4.319166751262491
 30
0.0
 11
599.2593662463097
 21
4.488679252020107
 31
0.0
  0
LINE
  5
3A1
  8
MAKE2D$VISIBLE$LINES
 10
599.2593662463097
 20
4.488679252020107
 30
0.0
 11
599.2448087945356
 21
4.658787929897292
 31
0.0
  0
LINE
  5
3A2
  8
MAKE2D$VISIBLE$LINES
 10
599.2448087945356
 20
4.658787929897292
 30
0.0
 11
599.2360675285454
 21
4.829294445784998
 31
0.0
  0
LINE
  5
3A3
  8
MAKE2D$VISIBLE$LINES
 10
599.2360675285454
 20
4.829294445784998
 30
0.0
 11
599.233152640264
 21
4.999999996712858
 31
0.0
  0
LINE
  5
3A4
  8
MAKE2D$VISIBLE$LINES
 10
599.233152640264
 20
4.999999996712858
 30
0.0
 11
599.2331526271155
 21
24.99999999671286
 31
0.0
  0
LINE
  5
3A5
  8
MAKE2D$VISIBLE$LINES
 10
599.2331526271155
 20
24.99999999671286
 30
0.0
 11
599.2331526139671
 21
44.99999999671286
 31
0.0
  0
LINE
  5
3A6
  8
MAKE2D$VISIBLE$LINES
 10
599.2331526139671
 20
44.99999999671286
 30
0.0
 11
599.2360675020241
 21
45.17070554764454
 31
0.0
  0
LINE
  5
3A7
  8
MAKE2D$VISIBLE$LINES
 10
599.2360675020241
 20
45.17070554764454
 30
0.0
 11
599.2448087677901
 21
45.34121206354373
 31
0.0
  0
LINE
  5
3A8
  8
MAKE2D$VISIBLE$LINES
 10
599.2448087677901
 20
45.34121206354373
 30
0.0
 11
599.2593662193406
 21
45.51132074144004
 31
0.0
  0
LINE
  5
3A9
  8
MAKE2D$VISIBLE$LINES
 10
599.2593662193406
 20
45.51132074144004
 30
0.0
 11
599.279722883338
 21
45.68083324222464
 31
0.0
  0
LINE
  5
3AA
  8
MAKE2D$VISIBLE$LINES
 10
599.279722883338
 20
45.68083324222464
 30
0.0
 11
599.3058550248227
 21
45.84955192190406
 31
0.0
  0
LINE
  5
3AB
  8
MAKE2D$VISIBLE$LINES
 10
599.3058550248227
 20
45.84955192190406
 30
0.0
 11
599.3377321748868
 21
46.01728006204478
 31
0.0
  0
LINE
  5
3AC
  8
MAKE2D$VISIBLE$LINES
 10
599.3377321748868
 20
46.01728006204478
 30
0.0
 11
599.3753171661994
 21
46.18382209913847
 31
0.0
  0
LINE
  5
3AD
  8
MAKE2D$VISIBLE$LINES
 10
599.3753171661994
 20
46.18382209913847
 30
0.0
 11
599.4185661763413
 21
46.34898385261972
 31
0.0
  0
LINE
  5
3AE
  8
MAKE2D$VISIBLE$LINES
 10
599.4185661763413
 20
46.34898385261972
 30
0.0
 11
599.4674287789021
 21
46.51257275127224
 31
0.0
  0
LINE
  5
3AF
  8
MAKE2D$VISIBLE$LINES
 10
599.4674287789021
 20
46.51257275127224
 30
0.0
 11
599.5218480022722
 21
46.67439805775728
 31
0.0
  0
LINE
  5
3B0
  8
MAKE2D$VISIBLE$LINES
 10
599.5218480022722
 20
46.67439805775728
 30
0.0
 11
599.5817603960722
 21
46.83427109100717
 31
0.0
  0
LINE
  5
3B1
  8
MAKE2D$VISIBLE$LINES
 10
599.5817603960722
 20
46.83427109100717
 30
0.0
 11
599.6470961051305
 21
46.99200544621618
 31
0.0
  0
LINE
  5
3B2
  8
MAKE2D$VISIBLE$LINES
 10
599.6470961051305
 20
46.99200544621618
 30
0.0
 11
599.7177789509328
 21
47.14741721218177
 31
0.0
  0
LINE
  5
3B3
  8
MAKE2D$VISIBLE$LINES
 10
599.7177789509328
 20
47.14741721218177
 30
0.0
 11
599.7937265204431
 21
47.30032518573699
 31
0.0
  0
LINE
  5
3B4
  8
MAKE2D$VISIBLE$LINES
 10
599.7937265204431
 20
47.30032518573699
 30
0.0
 11
599.8748502621926
 21
47.45055108302477
 31
0.0
  0
LINE
  5
3B5
  8
MAKE2D$VISIBLE$LINES
 10
599.8748502621926
 20
47.45055108302477
 30
0.0
 11
599.9610555895271
 21
47.59791974736846
 31
0.0
  0
LINE
  5
3B6
  8
MAKE2D$VISIBLE$LINES
 10
599.9610555895271
 20
47.59791974736846
 30
0.0
 11
600.0522419908909
 21
47.74225935349777
 31
0.0
  0
LINE
  5
3B7
  8
MAKE2D$VISIBLE$LINES
 10
600.0522419908909
 20
47.74225935349777
 30
0.0
 11
600.1483031470194
 21
47.8834016078886
 31
0.0
  0
LINE
  5
3B8
  8
MAKE2D$VISIBLE$LINES
 10
600.1483031470194
 20
47.8834016078886
 30
0.0
 11
600.2491270549016
 21
48.02118194498614
 31
0.0
  0
LINE
  5
3B9
  8
MAKE2D$VISIBLE$LINES
 10
600.2491270549016
 20
48.02118194498614
 30
0.0
 11
600.3545961583708
 21
48.15543971908021
 31
0.0
  0
LINE
  5
3BA
  8
MAKE2D$VISIBLE$LINES
 10
600.3545961583708
 20
48.15543971908021
 30
0.0
 11
600.4645874851703
 21
48.28601839161223
 31
0.0
  0
LINE
  5
3BB
  8
MAKE2D$VISIBLE$LINES
 10
600.4645874851703
 20
48.28601839161223
 30
0.0
 11
600.5789727903332
 21
48.41276571369079
 31
0.0
  0
LINE
  5
3BC
  8
MAKE2D$VISIBLE$LINES
 10
600.5789727903332
 20
48.41276571369079
 30
0.0
 11
600.6976187057102
 21
48.5355339036082
 31
0.0
  0
LINE
  5
3BD
  8
MAKE2D$VISIBLE$LINES
 10
600.6976187057102
 20
48.5355339036082
 30
0.0
 11
600.8203868954716
 21
48.65417981914674
 31
0.0
  0
LINE
  5
3BE
  8
MAKE2D$VISIBLE$LINES
 10
600.8203868954716
 20
48.65417981914674
 30
0.0
 11
600.9471342173998
 21
48.76856512447621
 31
0.0
  0
LINE
  5
3BF
  8
MAKE2D$VISIBLE$LINES
 10
600.9471342173998
 20
48.76856512447621
 30
0.0
 11
601.0777128897871
 21
48.87855645144745
 31
0.0
  0
LINE
  5
3C0
  8
MAKE2D$VISIBLE$LINES
 10
601.0777128897871
 20
48.87855645144745
 30
0.0
 11
601.2119706637426
 21
48.9840255550931
 31
0.0
  0
LINE
  5
3C1
  8
MAKE2D$VISIBLE$LINES
 10
601.2119706637426
 20
48.9840255550931
 30
0.0
 11
601.3497510007073
 21
49.08484946315632
 31
0.0
  0
LINE
  5
3C2
  8
MAKE2D$VISIBLE$LINES
 10
601.3497510007073
 20
49.08484946315632
 30
0.0
 11
601.4908932549721
 21
49.18091061947055
 31
0.0
  0
LINE
  5
3C3
  8
MAKE2D$VISIBLE$LINES
 10
601.4908932549721
 20
49.18091061947055
 30
0.0
 11
601.6352328609814
 21
49.27209702102429
 31
0.0
  0
LINE
  5
3C4
  8
MAKE2D$VISIBLE$LINES
 10
601.6352328609814
 20
49.27209702102429
 30
0.0
 11
601.782601525212
 21
49.35830234855258
 31
0.0
  0
LINE
  5
3C5
  8
MAKE2D$VISIBLE$LINES
 10
601.782601525212
 20
49.35830234855258
 30
0.0
 11
601.932827422393
 21
49.43942609049943
 31
0.0
  0
LINE
  5
3C6
  8
MAKE2D$VISIBLE$LINES
 10
601.932827422393
 20
49.43942609049943
 30
0.0
 11
602.0857353958485
 21
49.51537366021081
 31
0.0
  0
LINE
  5
3C7
  8
MAKE2D$VISIBLE$LINES
 10
602.0857353958485
 20
49.51537366021081
 30
0.0
 11
602.241147161721
 21
49.58605650621747
 31
0.0
  0
LINE
  5
3C8
  8
MAKE2D$VISIBLE$LINES
 10
602.241147161721
 20
49.58605650621747
 30
0.0
 11
602.3988815168441
 21
49.65139221548314
 31
0.0
  0
LINE
  5
3C9
  8
MAKE2D$VISIBLE$LINES
 10
602.3988815168441
 20
49.65139221548314
 30
0.0
 11
602.558754550015
 21
49.71130460949317
 31
0.0
  0
LINE
  5
3CA
  8
MAKE2D$VISIBLE$LINES
 10
602.558754550015
 20
49.71130460949317
 30
0.0
 11
602.7205798564287
 21
49.76572383307624
 31
0.0
  0
LINE
  5
3CB
  8
MAKE2D$VISIBLE$LINES
 10
602.7205798564287
 20
49.76572383307624
 30
0.0
 11
602.8841687550167
 21
49.81458643585199
 31
0.0
  0
LINE
  5
3CC
  8
MAKE2D$VISIBLE$LINES
 10
602.8841687550167
 20
49.81458643585199
 30
0.0
 11
603.0493305084412
 21
49.85783544621133
 31
0.0
  0
LINE
  5
3CD
  8
MAKE2D$VISIBLE$LINES
 10
603.0493305084412
 20
49.85783544621133
 30
0.0
 11
603.2158725454858
 21
49.89542043774278
 31
0.0
  0
LINE
  5
3CE
  8
MAKE2D$VISIBLE$LINES
 10
603.2158725454858
 20
49.89542043774278
 30
0.0
 11
603.3836006855845
 21
49.92729758802737
 31
0.0
  0
LINE
  5
3CF
  8
MAKE2D$VISIBLE$LINES
 10
603.3836006855845
 20
49.92729758802737
 30
0.0
 11
603.5523193652294
 21
49.953429729734
 31
0.0
  0
LINE
  5
3D0
  8
MAKE2D$VISIBLE$LINES
 10
603.5523193652294
 20
49.953429729734
 30
0.0
 11
603.7218318659872
 21
49.97378639395428
 31
0.0
  0
LINE
  5
3D1
  8
MAKE2D$VISIBLE$LINES
 10
603.7218318659872
 20
49.97378639395428
 30
0.0
 11
603.8919405438644
 21
49.98834384572837
 31
0.0
  0
LINE
  5
3D2
  8
MAKE2D$VISIBLE$LINES
 10
603.8919405438644
 20
49.98834384572837
 30
0.0
 11
604.062447059752
 21
49.99708511171864
 31
0.0
  0
LINE
  5
3D3
  8
MAKE2D$VISIBLE$LINES
 10
604.062447059752
 20
49.99708511171864
 30
0.0
 11
604.23315261068
 21
50.00000000000003
 31
0.0
  0
LINE
  5
3D4
  8
MAKE2D$VISIBLE$LINES
 10
604.23315261068
 20
50.00000000000003
 30
0.0
 11
606.3330681332011
 21
50.00000000138039
 31
0.0
  0
LINE
  5
3D5
  8
MAKE2D$VISIBLE$LINES
 10
606.3330681332011
 20
50.00000000138039
 30
0.0
 11
606.3330681414191
 21
37.50000000138039
 31
0.0
  0
LINE
  5
3D6
  8
MAKE2D$VISIBLE$LINES
 10
606.3330681414191
 20
37.50000000138039
 30
0.0
 11
609.2330681414192
 21
37.50000000328691
 31
0.0
  0
LINE
  5
3D7
  8
MAKE2D$VISIBLE$LINES
 10
609.2330681414192
 20
37.50000000328691
 30
0.0
 11
609.2330681332012
 21
50.00000000328691
 31
0.0
  0
LINE
  5
3D8
  8
MAKE2D$VISIBLE$LINES
 10
609.2330681332012
 20
50.00000000328691
 30
0.0
 11
609.2330681167662
 21
75.00000000328669
 31
0.0
  0
LINE
  5
3D9
  8
MAKE2D$VISIBLE$LINES
 10
609.2330681167662
 20
75.00000000328669
 30
0.0
 11
609.2330680829257
 21
126.4741069242709
 31
0.0
  0
LINE
  5
3DA
  8
MAKE2D$VISIBLE$LINES
 10
609.2330680829257
 20
126.4741069242709
 30
0.0
 11
609.2330680747082
 21
138.9741069242709
 31
0.0
  0
LINE
  5
3DB
  8
MAKE2D$VISIBLE$LINES
 10
609.2330680747082
 20
138.9741069242709
 30
0.0
 11
606.3330680747083
 21
138.9741069223644
 31
0.0
  0
LINE
  5
3DC
  8
MAKE2D$VISIBLE$LINES
 10
606.3330680747083
 20
138.9741069223644
 30
0.0
 11
606.333068082926
 21
126.4741069223644
 31
0.0
  0
LINE
  5
3DD
  8
MAKE2D$VISIBLE$LINES
 10
606.333068082926
 20
126.4741069223644
 30
0.0
 11
604.2331525604045
 21
126.474106920984
 31
0.0
  0
LINE
  5
3DE
  8
MAKE2D$VISIBLE$LINES
 10
604.2331525604045
 20
126.474106920984
 30
0.0
 11
604.0624470094729
 21
126.4770218090408
 31
0.0
  0
LINE
  5
3DF
  8
MAKE2D$VISIBLE$LINES
 10
604.0624470094729
 20
126.4770218090408
 30
0.0
 11
603.8919404935735
 21
126.4857630748068
 31
0.0
  0
LINE
  5
3E0
  8
MAKE2D$VISIBLE$LINES
 10
603.8919404935735
 20
126.4857630748068
 30
0.0
 11
603.7218318156771
 21
126.5003205263573
 31
0.0
  0
LINE
  5
3E1
  8
MAKE2D$VISIBLE$LINES
 10
603.7218318156771
 20
126.5003205263573
 30
0.0
 11
603.5523193148927
 21
126.5206771903546
 31
0.0
  0
LINE
  5
3E2
  8
MAKE2D$VISIBLE$LINES
 10
603.5523193148927
 20
126.5206771903546
 30
0.0
 11
603.3836006352133
 21
126.5468093318394
 31
0.0
  0
LINE
  5
3E3
  8
MAKE2D$VISIBLE$LINES
 10
603.3836006352133
 20
126.5468093318394
 30
0.0
 11
603.2158724950725
 21
126.5786864819035
 31
0.0
  0
LINE
  5
3E4
  8
MAKE2D$VISIBLE$LINES
 10
603.2158724950725
 20
126.5786864819035
 30
0.0
 11
603.0493304579788
 21
126.6162714732159
 31
0.0
  0
LINE
  5
3E5
  8
MAKE2D$VISIBLE$LINES
 10
603.0493304579788
 20
126.6162714732159
 30
0.0
 11
602.8841687044976
 21
126.6595204833581
 31
0.0
  0
LINE
  5
3E6
  8
MAKE2D$VISIBLE$LINES
 10
602.8841687044976
 20
126.6595204833581
 30
0.0
 11
602.7205798058451
 21
126.7083830859188
 31
0.0
  0
LINE
  5
3E7
  8
MAKE2D$VISIBLE$LINES
 10
602.7205798058451
 20
126.7083830859188
 30
0.0
 11
602.5587544993598
 21
126.762802309289
 31
0.0
  0
LINE
  5
3E8
  8
MAKE2D$VISIBLE$LINES
 10
602.5587544993598
 20
126.762802309289
 30
0.0
 11
602.3988814661102
 21
126.8227147030888
 31
0.0
  0
LINE
  5
3E9
  8
MAKE2D$VISIBLE$LINES
 10
602.3988814661102
 20
126.8227147030888
 30
0.0
 11
602.2411471109011
 21
126.8880504121471
 31
0.0
  0
LINE
  5
3EA
  8
MAKE2D$VISIBLE$LINES
 10
602.2411471109011
 20
126.8880504121471
 30
0.0
 11
602.0857353449356
 21
126.9587332579494
 31
0.0
  0
LINE
  5
3EB
  8
MAKE2D$VISIBLE$LINES
 10
602.0857353449356
 20
126.9587332579494
 30
0.0
 11
601.9328273713803
 21
127.0346808274598
 31
0.0
  0
LINE
  5
3EC
  8
MAKE2D$VISIBLE$LINES
 10
601.9328273713803
 20
127.0346808274598
 30
0.0
 11
601.7826014740925
 21
127.1158045692092
 31
0.0
  0
LINE
  5
3ED
  8
MAKE2D$VISIBLE$LINES
 10
601.7826014740925
 20
127.1158045692092
 30
0.0
 11
601.6352328097488
 21
127.2020098965436
 31
0.0
  0
LINE
  5
3EE
  8
MAKE2D$VISIBLE$LINES
 10
601.6352328097488
 20
127.2020098965436
 30
0.0
 11
601.4908932036195
 21
127.2931962979076
 31
0.0
  0
LINE
  5
3EF
  8
MAKE2D$VISIBLE$LINES
 10
601.4908932036195
 20
127.2931962979076
 30
0.0
 11
601.3497509492285
 21
127.3892574540362
 31
0.0
  0
LINE
  5
3F0
  8
MAKE2D$VISIBLE$LINES
 10
601.3497509492285
 20
127.3892574540362
 30
0.0
 11
601.2119706121312
 21
127.4900813619183
 31
0.0
  0
LINE
  5
3F1
  8
MAKE2D$VISIBLE$LINES
 10
601.2119706121312
 20
127.4900813619183
 30
0.0
 11
601.0777128380371
 21
127.5955504653874
 31
0.0
  0
LINE
  5
3F2
  8
MAKE2D$VISIBLE$LINES
 10
601.0777128380371
 20
127.5955504653874
 30
0.0
 11
600.9471341655051
 21
127.7055417921869
 31
0.0
  0
LINE
  5
3F3
  8
MAKE2D$VISIBLE$LINES
 10
600.9471341655051
 20
127.7055417921869
 30
0.0
 11
600.8203868434265
 21
127.8199270973498
 31
0.0
  0
LINE
  5
3F4
  8
MAKE2D$VISIBLE$LINES
 10
600.8203868434265
 20
127.8199270973498
 30
0.0
 11
600.697618653509
 21
127.9385730127269
 31
0.0
  0
LINE
  5
3F5
  8
MAKE2D$VISIBLE$LINES
 10
600.697618653509
 20
127.9385730127269
 30
0.0
 11
600.5789727379705
 21
128.0613412024883
 31
0.0
  0
LINE
  5
3F6
  8
MAKE2D$VISIBLE$LINES
 10
600.5789727379705
 20
128.0613412024883
 30
0.0
 11
600.464587432641
 21
128.1880885244165
 31
0.0
  0
LINE
  5
3F7
  8
MAKE2D$VISIBLE$LINES
 10
600.464587432641
 20
128.1880885244165
 30
0.0
 11
600.3545961056698
 21
128.3186671968039
 31
0.0
  0
LINE
  5
3F8
  8
MAKE2D$VISIBLE$LINES
 10
600.3545961056698
 20
128.3186671968039
 30
0.0
 11
600.249127002024
 21
128.4529249707595
 31
0.0
  0
LINE
  5
3F9
  8
MAKE2D$VISIBLE$LINES
 10
600.249127002024
 20
128.4529249707595
 30
0.0
 11
600.1483030939607
 21
128.5907053077242
 31
0.0
  0
LINE
  5
3FA
  8
MAKE2D$VISIBLE$LINES
 10
600.1483030939607
 20
128.5907053077242
 30
0.0
 11
600.0522419376467
 21
128.7318475619888
 31
0.0
  0
LINE
  5
3FB
  8
MAKE2D$VISIBLE$LINES
 10
600.0522419376467
 20
128.7318475619888
 30
0.0
 11
599.961055536093
 21
128.8761871679982
 31
0.0
  0
LINE
  5
3FC
  8
MAKE2D$VISIBLE$LINES
 10
599.961055536093
 20
128.8761871679982
 30
0.0
 11
599.8748502085648
 21
129.0235558322286
 31
0.0
  0
LINE
  5
3FD
  8
MAKE2D$VISIBLE$LINES
 10
599.8748502085648
 20
129.0235558322286
 30
0.0
 11
599.7937264666178
 21
129.1737817294097
 31
0.0
  0
LINE
  5
3FE
  8
MAKE2D$VISIBLE$LINES
 10
599.7937264666178
 20
129.1737817294097
 30
0.0
 11
599.7177788969066
 21
129.3266897028651
 31
0.0
  0
LINE
  5
3FF
  8
MAKE2D$VISIBLE$LINES
 10
599.7177788969066
 20
129.3266897028651
 30
0.0
 11
599.6470960508998
 21
129.4821014687377
 31
0.0
  0
LINE
  5
400
  8
MAKE2D$VISIBLE$LINES
 10
599.6470960508998
 20
129.4821014687377
 30
0.0
 11
599.5817603416342
 21
129.6398358238606
 31
0.0
  0
LINE
  5
401
  8
MAKE2D$VISIBLE$LINES
 10
599.5817603416342
 20
129.6398358238606
 30
0.0
 11
599.5218479476242
 21
129.7997088570318
 31
0.0
  0
LINE
  5
402
  8
MAKE2D$VISIBLE$LINES
 10
599.5218479476242
 20
129.7997088570318
 30
0.0
 11
599.4674287240412
 21
129.9615341634455
 31
0.0
  0
LINE
  5
403
  8
MAKE2D$VISIBLE$LINES
 10
599.4674287240412
 20
129.9615341634455
 30
0.0
 11
599.4185661212654
 21
130.1251230620337
 31
0.0
  0
LINE
  5
404
  8
MAKE2D$VISIBLE$LINES
 10
599.4185661212654
 20
130.1251230620337
 30
0.0
 11
599.375317110906
 21
130.2902848154581
 31
0.0
  0
LINE
  5
405
  8
MAKE2D$VISIBLE$LINES
 10
599.375317110906
 20
130.2902848154581
 30
0.0
 11
599.3377321193747
 21
130.4568268525024
 31
0.0
  0
LINE
  5
406
  8
MAKE2D$VISIBLE$LINES
 10
599.3377321193747
 20
130.4568268525024
 30
0.0
 11
599.3058549690901
 21
130.6245549926012
 31
0.0
  0
LINE
  5
407
  8
MAKE2D$VISIBLE$LINES
 10
599.3058549690901
 20
130.6245549926012
 30
0.0
 11
599.2797228273835
 21
130.7932736722461
 31
0.0
  0
LINE
  5
408
  8
MAKE2D$VISIBLE$LINES
 10
599.2797228273835
 20
130.7932736722461
 30
0.0
 11
599.2593661631631
 21
130.9627861730041
 31
0.0
  0
LINE
  5
409
  8
MAKE2D$VISIBLE$LINES
 10
599.2593661631631
 20
130.9627861730041
 30
0.0
 11
599.244808711389
 21
131.1328948508813
 31
0.0
  0
LINE
  5
40A
  8
MAKE2D$VISIBLE$LINES
 10
599.244808711389
 20
131.1328948508813
 30
0.0
 11
599.2360674453988
 21
131.303401366769
 31
0.0
  0
LINE
  5
40B
  8
MAKE2D$VISIBLE$LINES
 10
599.2360674453988
 20
131.303401366769
 30
0.0
 11
599.2331525571175
 21
131.4741069176969
 31
0.0
  0
LINE
  5
40C
  8
MAKE2D$VISIBLE$LINES
 10
599.2331525571175
 20
131.4741069176969
 30
0.0
 11
599.2331525439695
 21
151.4741069176969
 31
0.0
  0
LINE
  5
40D
  8
MAKE2D$VISIBLE$LINES
 10
599.2331525439695
 20
151.4741069176969
 30
0.0
 11
599.2331525308211
 21
171.4741069176969
 31
0.0
  0
LINE
  5
40E
  8
MAKE2D$VISIBLE$LINES
 10
599.2331525308211
 20
171.4741069176969
 30
0.0
 11
599.2360674188781
 21
171.6448124686288
 31
0.0
  0
LINE
  5
40F
  8
MAKE2D$VISIBLE$LINES
 10
599.2360674188781
 20
171.6448124686288
 30
0.0
 11
599.2448086846441
 21
171.8153189845277
 31
0.0
  0
LINE
  5
410
  8
MAKE2D$VISIBLE$LINES
 10
599.2448086846441
 20
171.8153189845277
 30
0.0
 11
599.2593661361946
 21
171.9854276624243
 31
0.0
  0
LINE
  5
411
  8
MAKE2D$VISIBLE$LINES
 10
599.2593661361946
 20
171.9854276624243
 30
0.0
 11
599.279722800192
 21
172.1549401632086
 31
0.0
  0
LINE
  5
412
  8
MAKE2D$VISIBLE$LINES
 10
599.279722800192
 20
172.1549401632086
 30
0.0
 11
599.3058549416767
 21
172.3236588428881
 31
0.0
  0
LINE
  5
413
  8
MAKE2D$VISIBLE$LINES
 10
599.3058549416767
 20
172.3236588428881
 30
0.0
 11
599.3377320917408
 21
172.4913869830288
 31
0.0
  0
LINE
  5
414
  8
MAKE2D$VISIBLE$LINES
 10
599.3377320917408
 20
172.4913869830288
 30
0.0
 11
599.3753170830532
 21
172.6579290201227
 31
0.0
  0
LINE
  5
415
  8
MAKE2D$VISIBLE$LINES
 10
599.3753170830532
 20
172.6579290201227
 30
0.0
 11
599.4185660931953
 21
172.8230907736038
 31
0.0
  0
LINE
  5
416
  8
MAKE2D$VISIBLE$LINES
 10
599.4185660931953
 20
172.8230907736038
 30
0.0
 11
599.467428695756
 21
172.9866796722563
 31
0.0
  0
LINE
  5
417
  8
MAKE2D$VISIBLE$LINES
 10
599.467428695756
 20
172.9866796722563
 30
0.0
 11
599.5218479191262
 21
173.1485049787415
 31
0.0
  0
LINE
  5
418
  8
MAKE2D$VISIBLE$LINES
 10
599.5218479191262
 20
173.1485049787415
 30
0.0
 11
599.581760312926
 21
173.3083780119912
 31
0.0
  0
LINE
  5
419
  8
MAKE2D$VISIBLE$LINES
 10
599.581760312926
 20
173.3083780119912
 30
0.0
 11
599.6470960219842
 21
173.4661123672002
 31
0.0
  0
LINE
  5
41A
  8
MAKE2D$VISIBLE$LINES
 10
599.6470960219842
 20
173.4661123672002
 30
0.0
 11
599.7177788677866
 21
173.6215241331658
 31
0.0
  0
LINE
  5
41B
  8
MAKE2D$VISIBLE$LINES
 10
599.7177788677866
 20
173.6215241331658
 30
0.0
 11
599.7937264372969
 21
173.774432106721
 31
0.0
  0
LINE
  5
41C
  8
MAKE2D$VISIBLE$LINES
 10
599.7937264372969
 20
173.774432106721
 30
0.0
 11
599.8748501790462
 21
173.9246580040088
 31
0.0
  0
LINE
  5
41D
  8
MAKE2D$VISIBLE$LINES
 10
599.8748501790462
 20
173.9246580040088
 30
0.0
 11
599.9610555063806
 21
174.0720266683524
 31
0.0
  0
LINE
  5
41E
  8
MAKE2D$VISIBLE$LINES
 10
599.9610555063806
 20
174.0720266683524
 30
0.0
 11
600.0522419077447
 21
174.2163662744819
 31
0.0
  0
LINE
  5
41F
  8
MAKE2D$VISIBLE$LINES
 10
600.0522419077447
 20
174.2163662744819
 30
0.0
 11
600.1483030638733
 21
174.3575085288729
 31
0.0
  0
LINE
  5
420
  8
MAKE2D$VISIBLE$LINES
 10
600.1483030638733
 20
174.3575085288729
 30
0.0
 11
600.2491269717556
 21
174.4952888659704
 31
0.0
  0
LINE
  5
421
  8
MAKE2D$VISIBLE$LINES
 10
600.2491269717556
 20
174.4952888659704
 30
0.0
 11
600.3545960752244
 21
174.6295466400643
 31
0.0
  0
LINE
  5
422
  8
MAKE2D$VISIBLE$LINES
 10
600.3545960752244
 20
174.6295466400643
 30
0.0
 11
600.464587402024
 21
174.7601253125964
 31
0.0
  0
LINE
  5
423
  8
MAKE2D$VISIBLE$LINES
 10
600.464587402024
 20
174.7601253125964
 30
0.0
 11
600.5789727071868
 21
174.8868726346749
 31
0.0
  0
LINE
  5
424
  8
MAKE2D$VISIBLE$LINES
 10
600.5789727071868
 20
174.8868726346749
 30
0.0
 11
600.6976186225639
 21
175.0096408245923
 31
0.0
  0
LINE
  5
425
  8
MAKE2D$VISIBLE$LINES
 10
600.6976186225639
 20
175.0096408245923
 30
0.0
 11
600.8203868123254
 21
175.1282867401308
 31
0.0
  0
LINE
  5
426
  8
MAKE2D$VISIBLE$LINES
 10
600.8203868123254
 20
175.1282867401308
 30
0.0
 11
600.9471341342537
 21
175.2426720454605
 31
0.0
  0
LINE
  5
427
  8
MAKE2D$VISIBLE$LINES
 10
600.9471341342537
 20
175.2426720454605
 30
0.0
 11
601.0777128066409
 21
175.3526633724316
 31
0.0
  0
LINE
  5
428
  8
MAKE2D$VISIBLE$LINES
 10
601.0777128066409
 20
175.3526633724316
 30
0.0
 11
601.2119705805962
 21
175.4581324760772
 31
0.0
  0
LINE
  5
429
  8
MAKE2D$VISIBLE$LINES
 10
601.2119705805962
 20
175.4581324760772
 30
0.0
 11
601.3497509175611
 21
175.5589563841404
 31
0.0
  0
LINE
  5
42A
  8
MAKE2D$VISIBLE$LINES
 10
601.3497509175611
 20
175.5589563841404
 30
0.0
 11
601.4908931718259
 21
175.6550175404547
 31
0.0
  0
LINE
  5
42B
  8
MAKE2D$VISIBLE$LINES
 10
601.4908931718259
 20
175.6550175404547
 30
0.0
 11
601.6352327778353
 21
175.7462039420085
 31
0.0
  0
LINE
  5
42C
  8
MAKE2D$VISIBLE$LINES
 10
601.6352327778353
 20
175.7462039420085
 30
0.0
 11
601.7826014420656
 21
175.8324092695366
 31
0.0
  0
LINE
  5
42D
  8
MAKE2D$VISIBLE$LINES
 10
601.7826014420656
 20
175.8324092695366
 30
0.0
 11
601.9328273392467
 21
175.9135330114835
 31
0.0
  0
LINE
  5
42E
  8
MAKE2D$VISIBLE$LINES
 10
601.9328273392467
 20
175.9135330114835
 30
0.0
 11
602.0857353127019
 21
175.9894805811947
 31
0.0
  0
LINE
  5
42F
  8
MAKE2D$VISIBLE$LINES
 10
602.0857353127019
 20
175.9894805811947
 30
0.0
 11
602.2411470785747
 21
176.0601634272016
 31
0.0
  0
LINE
  5
430
  8
MAKE2D$VISIBLE$LINES
 10
602.2411470785747
 20
176.0601634272016
 30
0.0
 11
602.3988814336979
 21
176.1254991364672
 31
0.0
  0
LINE
  5
431
  8
MAKE2D$VISIBLE$LINES
 10
602.3988814336979
 20
176.1254991364672
 30
0.0
 11
602.5587544668685
 21
176.1854115304772
 31
0.0
  0
LINE
  5
432
  8
MAKE2D$VISIBLE$LINES
 10
602.5587544668685
 20
176.1854115304772
 30
0.0
 11
602.7205797732825
 21
176.2398307540603
 31
0.0
  0
LINE
  5
433
  8
MAKE2D$VISIBLE$LINES
 10
602.7205797732825
 20
176.2398307540603
 30
0.0
 11
602.8841686718706
 21
176.2886933568361
 31
0.0
  0
LINE
  5
434
  8
MAKE2D$VISIBLE$LINES
 10
602.8841686718706
 20
176.2886933568361
 30
0.0
 11
603.0493304252948
 21
176.3319423671953
 31
0.0
  0
LINE
  5
435
  8
MAKE2D$VISIBLE$LINES
 10
603.0493304252948
 20
176.3319423671953
 30
0.0
 11
603.2158724623393
 21
176.3695273587267
 31
0.0
  0
LINE
  5
436
  8
MAKE2D$VISIBLE$LINES
 10
603.2158724623393
 20
176.3695273587267
 30
0.0
 11
603.3836006024384
 21
176.4014045090114
 31
0.0
  0
LINE
  5
437
  8
MAKE2D$VISIBLE$LINES
 10
603.3836006024384
 20
176.4014045090114
 30
0.0
 11
603.552319282083
 21
176.427536650718
 31
0.0
  0
LINE
  5
438
  8
MAKE2D$VISIBLE$LINES
 10
603.552319282083
 20
176.427536650718
 30
0.0
 11
603.7218317828409
 21
176.4478933149383
 31
0.0
  0
LINE
  5
439
  8
MAKE2D$VISIBLE$LINES
 10
603.7218317828409
 20
176.4478933149383
 30
0.0
 11
603.8919404607182
 21
176.4624507667123
 31
0.0
  0
LINE
  5
43A
  8
MAKE2D$VISIBLE$LINES
 10
603.8919404607182
 20
176.4624507667123
 30
0.0
 11
604.0624469766058
 21
176.4711920327026
 31
0.0
  0
LINE
  5
43B
  8
MAKE2D$VISIBLE$LINES
 10
604.0624469766058
 20
176.4711920327026
 30
0.0
 11
604.2331525275338
 21
176.474106920984
 31
0.0
  0
LINE
  5
43C
  8
MAKE2D$VISIBLE$LINES
 10
604.2331525275338
 20
176.474106920984
 30
0.0
 11
606.3330680500553
 21
176.4741069223644
 31
0.0
  0
LINE
  5
43D
  8
MAKE2D$VISIBLE$LINES
 10
606.3330680500553
 20
176.4741069223644
 30
0.0
 11
606.333068058273
 21
163.9741069223644
 31
0.0
  0
LINE
  5
43E
  8
MAKE2D$VISIBLE$LINES
 10
606.333068058273
 20
163.9741069223644
 30
0.0
 11
609.2330680582729
 21
163.9741069242709
 31
0.0
  0
LINE
  5
43F
  8
MAKE2D$VISIBLE$LINES
 10
609.2330680582729
 20
163.9741069242709
 30
0.0
 11
609.233068050055
 21
176.4741069242709
 31
0.0
  0
LINE
  5
440
  8
MAKE2D$VISIBLE$LINES
 10
609.233068050055
 20
176.4741069242709
 30
0.0
 11
609.2330680336199
 21
201.4741069242707
 31
0.0
  0
LINE
  5
441
  8
MAKE2D$VISIBLE$LINES
 10
609.2330680336199
 20
201.4741069242707
 30
0.0
 11
609.2330680249174
 21
214.7111603847636
 31
0.0
  0
LINE
  5
442
  8
MAKE2D$VISIBLE$LINES
 10
609.2330680249174
 20
214.7111603847636
 30
0.0
 11
745.4198979352062
 21
214.7111604789382
 31
0.0
  0
ENDSEC
  0
EOF
