  0
SECTION
  2
HEADER
  9
$ACADVER
  1
AC1009
  9
$DWGCODEPAGE
  3
mac-roman
  9
$INSBASE
 10
0.0
 20
0.0
 30
0.0
  9
$EXTMIN
 10
231.3193903806321
 20
0.0000000000000036
 30
0.0
  9
$EXTMAX
 10
550.319122454997
 20
278.9114149722579
 30
0.0
  9
$LIMMIN
 10
0.0
 20
0.0
  9
$LIMMAX
 10
12.0
 20
9.0
  9
$ORTHOMODE
 70
     0
  9
$REGENMODE
 70
     1
  9
$FILLMODE
 70
     1
  9
$QTEXTMODE
 70
     0
  9
$MIRRTEXT
 70
     1
  9
$DRAGMODE
 70
     2
  9
$LTSCALE
 40
1.0
  9
$OSMODE
 70
    37
  9
$ATTMODE
 70
     1
  9
$TEXTSIZE
 40
0.2
  9
$TRACEWID
 40
0.05
  9
$TEXTSTYLE
  7
STANDARD
  9
$CLAYER
  8
0
  9
$CELTYPE
  6
BYLAYER
  9
$CECOLOR
 62
   256
  9
$DIMSCALE
 40
1.0
  9
$DIMASZ
 40
0.18
  9
$DIMEXO
 40
0.0625
  9
$DIMDLI
 40
0.38
  9
$DIMRND
 40
0.0
  9
$DIMDLE
 40
0.0
  9
$DIMEXE
 40
0.18
  9
$DIMTP
 40
0.0
  9
$DIMTM
 40
0.0
  9
$DIMTXT
 40
0.18
  9
$DIMCEN
 40
0.09
  9
$DIMTSZ
 40
0.0
  9
$DIMTOL
 70
     0
  9
$DIMLIM
 70
     0
  9
$DIMTIH
 70
     1
  9
$DIMTOH
 70
     1
  9
$DIMSE1
 70
     0
  9
$DIMSE2
 70
     0
  9
$DIMTAD
 70
     0
  9
$DIMZIN
 70
     0
  9
$DIMBLK
  1

  9
$DIMASO
 70
     1
  9
$DIMSHO
 70
     1
  9
$DIMPOST
  1

  9
$DIMAPOST
  1

  9
$DIMALT
 70
     0
  9
$DIMALTD
 70
     2
  9
$DIMALTF
 40
25.4
  9
$DIMLFAC
 40
1.0
  9
$DIMTOFL
 70
     0
  9
$DIMTVP
 40
0.0
  9
$DIMTIX
 70
     0
  9
$DIMSOXD
 70
     0
  9
$DIMSAH
 70
     0
  9
$DIMBLK1
  1

  9
$DIMBLK2
  1

  9
$DIMSTYLE
  2
STANDARD
  9
$DIMCLRD
 70
     0
  9
$DIMCLRE
 70
     0
  9
$DIMCLRT
 70
     0
  9
$DIMTFAC
 40
1.0
  9
$DIMGAP
 40
0.09
  9
$LUNITS
 70
     2
  9
$LUPREC
 70
     3
  9
$SKETCHINC
 40
0.1
  9
$FILLETRAD
 40
0.5
  9
$AUNITS
 70
     0
  9
$AUPREC
 70
     0
  9
$MENU
  1
.
  9
$ELEVATION
 40
0.0
  9
$PELEVATION
 40
0.0
  9
$THICKNESS
 40
0.0
  9
$LIMCHECK
 70
     0
  9
$CHAMFERA
 40
0.0
  9
$CHAMFERB
 40
0.0
  9
$SKPOLY
 70
     0
  9
$TDCREATE
 40
2457968.616724537
  9
$TDUPDATE
 40
2457968.616736111
  9
$TDINDWG
 40
0.0000000116
  9
$TDUSRTIMER
 40
0.0000000116
  9
$USRTIMER
 70
     1
  9
$ANGBASE
 50
0.0
  9
$ANGDIR
 70
     0
  9
$PDMODE
 70
     0
  9
$PDSIZE
 40
0.0
  9
$PLINEWID
 40
0.0
  9
$COORDS
 70
     1
  9
$SPLFRAME
 70
     0
  9
$SPLINETYPE
 70
     6
  9
$SPLINESEGS
 70
     8
  9
$ATTDIA
 70
     0
  9
$ATTREQ
 70
     1
  9
$HANDLING
 70
     1
  9
$HANDSEED
  5
44C
  9
$SURFTAB1
 70
     6
  9
$SURFTAB2
 70
     6
  9
$SURFTYPE
 70
     6
  9
$SURFU
 70
     6
  9
$SURFV
 70
     6
  9
$UCSNAME
  2

  9
$UCSORG
 10
0.0
 20
0.0
 30
0.0
  9
$UCSXDIR
 10
1.0
 20
0.0
 30
0.0
  9
$UCSYDIR
 10
0.0
 20
1.0
 30
0.0
  9
$PUCSNAME
  2

  9
$PUCSORG
 10
0.0
 20
0.0
 30
0.0
  9
$PUCSXDIR
 10
1.0
 20
0.0
 30
0.0
  9
$PUCSYDIR
 10
0.0
 20
1.0
 30
0.0
  9
$USERI1
 70
     0
  9
$USERI2
 70
     0
  9
$USERI3
 70
     0
  9
$USERI4
 70
     0
  9
$USERI5
 70
     0
  9
$USERR1
 40
0.0
  9
$USERR2
 40
0.0
  9
$USERR3
 40
0.0
  9
$USERR4
 40
0.0
  9
$USERR5
 40
0.0
  9
$WORLDVIEW
 70
     1
  9
$SHADEDGE
 70
     3
  9
$SHADEDIF
 70
    70
  9
$TILEMODE
 70
     1
  9
$MAXACTVP
 70
    64
  9
$PLIMCHECK
 70
     0
  9
$PEXTMIN
 10
1.000000000000000E+20
 20
1.000000000000000E+20
 30
1.000000000000000E+20
  9
$PEXTMAX
 10
-1.000000000000000E+20
 20
-1.000000000000000E+20
 30
-1.000000000000000E+20
  9
$PLIMMIN
 10
0.0
 20
0.0
  9
$PLIMMAX
 10
12.0
 20
9.0
  9
$UNITMODE
 70
     0
  9
$VISRETAIN
 70
     1
  9
$PLINEGEN
 70
     0
  9
$PSLTSCALE
 70
     1
  0
ENDSEC
  0
SECTION
  2
TABLES
  0
TABLE
  2
VPORT
 70
     1
  0
VPORT
  2
*ACTIVE
 70
     0
 10
0.0
 20
0.0
 11
1.0
 21
1.0
 12
390.8192564178146
 22
139.455707486129
 13
0.0
 23
0.0
 14
0.5
 24
0.5
 15
0.5
 25
0.5
 16
0.0
 26
0.0
 36
1.0
 17
0.0
 27
0.0
 37
0.0
 40
284.4896432717031
 41
1.143731360389442
 42
50.0
 43
0.0
 44
0.0
 50
0.0
 51
0.0
 71
     0
 72
   100
 73
     1
 74
     3
 75
     0
 76
     0
 77
     0
 78
     0
  0
ENDTAB
  0
TABLE
  2
LTYPE
 70
     1
  0
LTYPE
  2
CONTINUOUS
 70
     0
  3
Solid line
 72
    65
 73
     0
 40
0.0
  0
ENDTAB
  0
TABLE
  2
LAYER
 70
     2
  0
LAYER
  2
0
 70
     0
 62
     7
  6
CONTINUOUS
  0
LAYER
  2
MAKE2D$VISIBLE$LINES
 70
     0
 62
     7
  6
CONTINUOUS
  0
ENDTAB
  0
TABLE
  2
STYLE
 70
     1
  0
STYLE
  2
STANDARD
 70
     0
 40
0.0
 41
1.0
 50
0.0
 71
     0
 42
0.2
  3
txt
  4

  0
ENDTAB
  0
TABLE
  2
VIEW
 70
     0
  0
ENDTAB
  0
TABLE
  2
UCS
 70
     0
  0
ENDTAB
  0
TABLE
  2
APPID
 70
     1
  0
APPID
  2
ACAD
 70
     0
  0
ENDTAB
  0
TABLE
  2
DIMSTYLE
 70
     1
  0
DIMSTYLE
  2
STANDARD
 70
     0
  3

  4

  5

  6

  7

 40
1.0
 41
0.18
 42
0.0625
 43
0.38
 44
0.18
 45
0.0
 46
0.0
 47
0.0
 48
0.0
140
0.18
141
0.09
142
0.0
143
25.4
144
1.0
145
0.0
146
1.0
147
0.09
 71
     0
 72
     0
 73
     1
 74
     1
 75
     0
 76
     0
 77
     0
 78
     0
170
     0
171
     2
172
     0
173
     0
174
     0
175
     0
176
     0
177
     0
178
     0
  0
ENDTAB
  0
ENDSEC
  0
SECTION
  2
BLOCKS
  0
BLOCK
  8
0
  2
$MODEL_SPACE
 70
     0
 10
0.0
 20
0.0
 30
0.0
  3
$MODEL_SPACE
  1

  0
ENDBLK
  5
21
  8
0
  0
BLOCK
 67
     1
  8
0
  2
$PAPER_SPACE
 70
     0
 10
0.0
 20
0.0
 30
0.0
  3
$PAPER_SPACE
  1

  0
ENDBLK
  5
1D
 67
     1
  8
0
  0
ENDSEC
  0
SECTION
  2
ENTITIES
  0
LINE
  5
6F
  8
MAKE2D$VISIBLE$LINES
 10
365.8892564178145
 20
241.1108542032941
 30
0.0
 11
415.7492564178145
 21
241.1108542032941
 31
0.0
  0
LINE
  5
70
  8
MAKE2D$VISIBLE$LINES
 10
415.7492564178145
 20
241.1108542032941
 30
0.0
 11
415.7492564178145
 21
238.250854203294
 31
0.0
  0
LINE
  5
71
  8
MAKE2D$VISIBLE$LINES
 10
415.7492564178145
 20
238.250854203294
 30
0.0
 11
365.8892564178146
 21
238.250854203294
 31
0.0
  0
LINE
  5
72
  8
MAKE2D$VISIBLE$LINES
 10
365.8892564178146
 20
238.250854203294
 30
0.0
 11
365.8892564178145
 21
241.1108542032941
 31
0.0
  0
LINE
  5
73
  8
MAKE2D$VISIBLE$LINES
 10
403.3192564178146
 20
275.9114149722579
 30
0.0
 11
378.3192564178146
 21
275.9114149722579
 31
0.0
  0
LINE
  5
74
  8
MAKE2D$VISIBLE$LINES
 10
378.3192564178146
 20
275.9114149722579
 30
0.0
 11
378.3192564178146
 21
278.9114149722579
 31
0.0
  0
LINE
  5
75
  8
MAKE2D$VISIBLE$LINES
 10
378.3192564178146
 20
278.9114149722579
 30
0.0
 11
241.3193903806321
 21
278.9114149722579
 31
0.0
  0
LINE
  5
76
  8
MAKE2D$VISIBLE$LINES
 10
241.3193903806321
 20
278.9114149722579
 30
0.0
 11
241.3193903806321
 21
274.1808542032948
 31
0.0
  0
LINE
  5
77
  8
MAKE2D$VISIBLE$LINES
 10
241.3193903806321
 20
274.1808542032948
 30
0.0
 11
236.3193903806321
 21
274.1808542032948
 31
0.0
  0
LINE
  5
78
  8
MAKE2D$VISIBLE$LINES
 10
236.3193903806321
 20
274.1808542032948
 30
0.0
 11
236.1486848297023
 21
274.1779393151256
 31
0.0
  0
LINE
  5
79
  8
MAKE2D$VISIBLE$LINES
 10
236.1486848297023
 20
274.1779393151256
 30
0.0
 11
235.9781783138088
 21
274.1691980492475
 31
0.0
  0
LINE
  5
7A
  8
MAKE2D$VISIBLE$LINES
 10
235.9781783138088
 20
274.1691980492475
 30
0.0
 11
235.808069635922
 21
274.1546405975852
 31
0.0
  0
LINE
  5
7B
  8
MAKE2D$VISIBLE$LINES
 10
235.808069635922
 20
274.1546405975852
 30
0.0
 11
235.6385571351509
 21
274.1342839334765
 31
0.0
  0
LINE
  5
7C
  8
MAKE2D$VISIBLE$LINES
 10
235.6385571351509
 20
274.1342839334765
 30
0.0
 11
235.4698384554889
 21
274.1081517918808
 31
0.0
  0
LINE
  5
7D
  8
MAKE2D$VISIBLE$LINES
 10
235.4698384554889
 20
274.1081517918808
 30
0.0
 11
235.302110315369
 21
274.0762746417064
 31
0.0
  0
LINE
  5
7E
  8
MAKE2D$VISIBLE$LINES
 10
235.302110315369
 20
274.0762746417064
 30
0.0
 11
235.1355682782999
 21
274.0386896502845
 31
0.0
  0
LINE
  5
7F
  8
MAKE2D$VISIBLE$LINES
 10
235.1355682782999
 20
274.0386896502845
 30
0.0
 11
234.970406524847
 21
273.9954406400338
 31
0.0
  0
LINE
  5
80
  8
MAKE2D$VISIBLE$LINES
 10
234.970406524847
 20
273.9954406400338
 30
0.0
 11
234.8068176262268
 21
273.9465780373656
 31
0.0
  0
LINE
  5
81
  8
MAKE2D$VISIBLE$LINES
 10
234.8068176262268
 20
273.9465780373656
 30
0.0
 11
234.6449923197772
 21
273.8921588138889
 31
0.0
  0
LINE
  5
82
  8
MAKE2D$VISIBLE$LINES
 10
234.6449923197772
 20
273.8921588138889
 30
0.0
 11
234.4851192865669
 21
273.832246419984
 31
0.0
  0
LINE
  5
83
  8
MAKE2D$VISIBLE$LINES
 10
234.4851192865669
 20
273.832246419984
 30
0.0
 11
234.327384931401
 21
273.7669107108221
 31
0.0
  0
LINE
  5
84
  8
MAKE2D$VISIBLE$LINES
 10
234.327384931401
 20
273.7669107108221
 30
0.0
 11
234.1719731654817
 21
273.6962278649175
 31
0.0
  0
LINE
  5
85
  8
MAKE2D$VISIBLE$LINES
 10
234.1719731654817
 20
273.6962278649175
 30
0.0
 11
234.0190651919764
 21
273.6202802953067
 31
0.0
  0
LINE
  5
86
  8
MAKE2D$VISIBLE$LINES
 10
234.0190651919764
 20
273.6202802953067
 30
0.0
 11
233.8688392947421
 21
273.5391565534586
 31
0.0
  0
LINE
  5
87
  8
MAKE2D$VISIBLE$LINES
 10
233.8688392947421
 20
273.5391565534586
 30
0.0
 11
233.721470630455
 21
273.4529512260273
 31
0.0
  0
LINE
  5
88
  8
MAKE2D$VISIBLE$LINES
 10
233.721470630455
 20
273.4529512260273
 30
0.0
 11
233.5771310243856
 21
273.3617648245684
 31
0.0
  0
LINE
  5
89
  8
MAKE2D$VISIBLE$LINES
 10
233.5771310243856
 20
273.3617648245684
 30
0.0
 11
233.4359887700578
 21
273.2657036683471
 31
0.0
  0
LINE
  5
8A
  8
MAKE2D$VISIBLE$LINES
 10
233.4359887700578
 20
273.2657036683471
 30
0.0
 11
233.2982084330267
 21
273.1648797603744
 31
0.0
  0
LINE
  5
8B
  8
MAKE2D$VISIBLE$LINES
 10
233.2982084330267
 20
273.1648797603744
 30
0.0
 11
233.1639506590019
 21
273.059410656817
 31
0.0
  0
LINE
  5
8C
  8
MAKE2D$VISIBLE$LINES
 10
233.1639506590019
 20
273.059410656817
 30
0.0
 11
233.0333719865423
 21
272.9494193299317
 31
0.0
  0
LINE
  5
8D
  8
MAKE2D$VISIBLE$LINES
 10
233.0333719865423
 20
272.9494193299317
 30
0.0
 11
232.9066246645389
 21
272.8350340246855
 31
0.0
  0
LINE
  5
8E
  8
MAKE2D$VISIBLE$LINES
 10
232.9066246645389
 20
272.8350340246855
 30
0.0
 11
232.7838564746994
 21
272.7163881092276
 31
0.0
  0
LINE
  5
8F
  8
MAKE2D$VISIBLE$LINES
 10
232.7838564746994
 20
272.7163881092276
 30
0.0
 11
232.6652105592416
 21
272.5936199193882
 31
0.0
  0
LINE
  5
90
  8
MAKE2D$VISIBLE$LINES
 10
232.6652105592416
 20
272.5936199193882
 30
0.0
 11
232.5508252539954
 21
272.4668725973848
 31
0.0
  0
LINE
  5
91
  8
MAKE2D$VISIBLE$LINES
 10
232.5508252539954
 20
272.4668725973848
 30
0.0
 11
232.4408339271101
 21
272.3362939249251
 31
0.0
  0
LINE
  5
92
  8
MAKE2D$VISIBLE$LINES
 10
232.4408339271101
 20
272.3362939249251
 30
0.0
 11
232.3353648235527
 21
272.2020361509004
 31
0.0
  0
LINE
  5
93
  8
MAKE2D$VISIBLE$LINES
 10
232.3353648235527
 20
272.2020361509004
 30
0.0
 11
232.23454091558
 21
272.0642558138692
 31
0.0
  0
LINE
  5
94
  8
MAKE2D$VISIBLE$LINES
 10
232.23454091558
 20
272.0642558138692
 30
0.0
 11
232.1384797593586
 21
271.9231135595415
 31
0.0
  0
LINE
  5
95
  8
MAKE2D$VISIBLE$LINES
 10
232.1384797593586
 20
271.9231135595415
 30
0.0
 11
232.0472933578997
 21
271.7787739534721
 31
0.0
  0
LINE
  5
96
  8
MAKE2D$VISIBLE$LINES
 10
232.0472933578997
 20
271.7787739534721
 30
0.0
 11
231.9610880304684
 21
271.631405289185
 31
0.0
  0
LINE
  5
97
  8
MAKE2D$VISIBLE$LINES
 10
231.9610880304684
 20
271.631405289185
 30
0.0
 11
231.8799642886203
 21
271.4811793919507
 31
0.0
  0
LINE
  5
98
  8
MAKE2D$VISIBLE$LINES
 10
231.8799642886203
 20
271.4811793919507
 30
0.0
 11
231.8040167190095
 21
271.3282714184454
 31
0.0
  0
LINE
  5
99
  8
MAKE2D$VISIBLE$LINES
 10
231.8040167190095
 20
271.3282714184454
 30
0.0
 11
231.7333338731049
 21
271.1728596525261
 31
0.0
  0
LINE
  5
9A
  8
MAKE2D$VISIBLE$LINES
 10
231.7333338731049
 20
271.1728596525261
 30
0.0
 11
231.667998163943
 21
271.0151252973602
 31
0.0
  0
LINE
  5
9B
  8
MAKE2D$VISIBLE$LINES
 10
231.667998163943
 20
271.0151252973602
 30
0.0
 11
231.6080857700381
 21
270.8552522641499
 31
0.0
  0
LINE
  5
9C
  8
MAKE2D$VISIBLE$LINES
 10
231.6080857700381
 20
270.8552522641499
 30
0.0
 11
231.5536665465614
 21
270.6934269577004
 31
0.0
  0
LINE
  5
9D
  8
MAKE2D$VISIBLE$LINES
 10
231.5536665465614
 20
270.6934269577004
 30
0.0
 11
231.5048039438932
 21
270.5298380590801
 31
0.0
  0
LINE
  5
9E
  8
MAKE2D$VISIBLE$LINES
 10
231.5048039438932
 20
270.5298380590801
 30
0.0
 11
231.4615549336425
 21
270.3646763056272
 31
0.0
  0
LINE
  5
9F
  8
MAKE2D$VISIBLE$LINES
 10
231.4615549336425
 20
270.3646763056272
 30
0.0
 11
231.4239699422206
 21
270.1981342685581
 31
0.0
  0
LINE
  5
A0
  8
MAKE2D$VISIBLE$LINES
 10
231.4239699422206
 20
270.1981342685581
 30
0.0
 11
231.3920927920462
 21
270.0304061284383
 31
0.0
  0
LINE
  5
A1
  8
MAKE2D$VISIBLE$LINES
 10
231.3920927920462
 20
270.0304061284383
 30
0.0
 11
231.3659606504505
 21
269.8616874487762
 31
0.0
  0
LINE
  5
A2
  8
MAKE2D$VISIBLE$LINES
 10
231.3659606504505
 20
269.8616874487762
 30
0.0
 11
231.3456039863417
 21
269.6921749480051
 31
0.0
  0
LINE
  5
A3
  8
MAKE2D$VISIBLE$LINES
 10
231.3456039863417
 20
269.6921749480051
 30
0.0
 11
231.3310465346795
 21
269.5220662701183
 31
0.0
  0
LINE
  5
A4
  8
MAKE2D$VISIBLE$LINES
 10
231.3310465346795
 20
269.5220662701183
 30
0.0
 11
231.3223052688013
 21
269.3515597542249
 31
0.0
  0
LINE
  5
A5
  8
MAKE2D$VISIBLE$LINES
 10
231.3223052688013
 20
269.3515597542249
 30
0.0
 11
231.3193903806322
 21
269.180854203295
 31
0.0
  0
LINE
  5
A6
  8
MAKE2D$VISIBLE$LINES
 10
231.3193903806322
 20
269.180854203295
 30
0.0
 11
231.3193903806321
 21
261.6808542032948
 31
0.0
  0
LINE
  5
A7
  8
MAKE2D$VISIBLE$LINES
 10
231.3193903806321
 20
261.6808542032948
 30
0.0
 11
231.3193903806321
 21
254.1808542032945
 31
0.0
  0
LINE
  5
A8
  8
MAKE2D$VISIBLE$LINES
 10
231.3193903806321
 20
254.1808542032945
 30
0.0
 11
231.3223052688013
 21
254.0101486523647
 31
0.0
  0
LINE
  5
A9
  8
MAKE2D$VISIBLE$LINES
 10
231.3223052688013
 20
254.0101486523647
 30
0.0
 11
231.3310465346795
 21
253.8396421364712
 31
0.0
  0
LINE
  5
AA
  8
MAKE2D$VISIBLE$LINES
 10
231.3310465346795
 20
253.8396421364712
 30
0.0
 11
231.3456039863417
 21
253.6695334585843
 31
0.0
  0
LINE
  5
AB
  8
MAKE2D$VISIBLE$LINES
 10
231.3456039863417
 20
253.6695334585843
 30
0.0
 11
231.3659606504505
 21
253.5000209578133
 31
0.0
  0
LINE
  5
AC
  8
MAKE2D$VISIBLE$LINES
 10
231.3659606504505
 20
253.5000209578133
 30
0.0
 11
231.3920927920462
 21
253.3313022781512
 31
0.0
  0
LINE
  5
AD
  8
MAKE2D$VISIBLE$LINES
 10
231.3920927920462
 20
253.3313022781512
 30
0.0
 11
231.4239699422206
 21
253.1635741380314
 31
0.0
  0
LINE
  5
AE
  8
MAKE2D$VISIBLE$LINES
 10
231.4239699422206
 20
253.1635741380314
 30
0.0
 11
231.4615549336425
 21
252.9970321009623
 31
0.0
  0
LINE
  5
AF
  8
MAKE2D$VISIBLE$LINES
 10
231.4615549336425
 20
252.9970321009623
 30
0.0
 11
231.5048039438932
 21
252.8318703475094
 31
0.0
  0
LINE
  5
B0
  8
MAKE2D$VISIBLE$LINES
 10
231.5048039438932
 20
252.8318703475094
 30
0.0
 11
231.5536665465614
 21
252.6682814488892
 31
0.0
  0
LINE
  5
B1
  8
MAKE2D$VISIBLE$LINES
 10
231.5536665465614
 20
252.6682814488892
 30
0.0
 11
231.6080857700381
 21
252.5064561424396
 31
0.0
  0
LINE
  5
B2
  8
MAKE2D$VISIBLE$LINES
 10
231.6080857700381
 20
252.5064561424396
 30
0.0
 11
231.667998163943
 21
252.3465831092293
 31
0.0
  0
LINE
  5
B3
  8
MAKE2D$VISIBLE$LINES
 10
231.667998163943
 20
252.3465831092293
 30
0.0
 11
231.7333338731049
 21
252.1888487540634
 31
0.0
  0
LINE
  5
B4
  8
MAKE2D$VISIBLE$LINES
 10
231.7333338731049
 20
252.1888487540634
 30
0.0
 11
231.8040167190095
 21
252.0334369881441
 31
0.0
  0
LINE
  5
B5
  8
MAKE2D$VISIBLE$LINES
 10
231.8040167190095
 20
252.0334369881441
 30
0.0
 11
231.8799642886203
 21
251.8805290146388
 31
0.0
  0
LINE
  5
B6
  8
MAKE2D$VISIBLE$LINES
 10
231.8799642886203
 20
251.8805290146388
 30
0.0
 11
231.9610880304684
 21
251.7303031174045
 31
0.0
  0
LINE
  5
B7
  8
MAKE2D$VISIBLE$LINES
 10
231.9610880304684
 20
251.7303031174045
 30
0.0
 11
232.0472933578997
 21
251.5829344531174
 31
0.0
  0
LINE
  5
B8
  8
MAKE2D$VISIBLE$LINES
 10
232.0472933578997
 20
251.5829344531174
 30
0.0
 11
232.1384797593586
 21
251.438594847048
 31
0.0
  0
LINE
  5
B9
  8
MAKE2D$VISIBLE$LINES
 10
232.1384797593586
 20
251.438594847048
 30
0.0
 11
232.23454091558
 21
251.2974525927202
 31
0.0
  0
LINE
  5
BA
  8
MAKE2D$VISIBLE$LINES
 10
232.23454091558
 20
251.2974525927202
 30
0.0
 11
232.3353648235527
 21
251.1596722556891
 31
0.0
  0
LINE
  5
BB
  8
MAKE2D$VISIBLE$LINES
 10
232.3353648235527
 20
251.1596722556891
 30
0.0
 11
232.4408339271101
 21
251.0254144816643
 31
0.0
  0
LINE
  5
BC
  8
MAKE2D$VISIBLE$LINES
 10
232.4408339271101
 20
251.0254144816643
 30
0.0
 11
232.5508252539954
 21
250.8948358092048
 31
0.0
  0
LINE
  5
BD
  8
MAKE2D$VISIBLE$LINES
 10
232.5508252539954
 20
250.8948358092048
 30
0.0
 11
232.6652105592416
 21
250.7680884872014
 31
0.0
  0
LINE
  5
BE
  8
MAKE2D$VISIBLE$LINES
 10
232.6652105592416
 20
250.7680884872014
 30
0.0
 11
232.7838564746995
 21
250.6453202973619
 31
0.0
  0
LINE
  5
BF
  8
MAKE2D$VISIBLE$LINES
 10
232.7838564746995
 20
250.6453202973619
 30
0.0
 11
232.9066246645389
 21
250.5266743819041
 31
0.0
  0
LINE
  5
C0
  8
MAKE2D$VISIBLE$LINES
 10
232.9066246645389
 20
250.5266743819041
 30
0.0
 11
233.0333719865423
 21
250.4122890766579
 31
0.0
  0
LINE
  5
C1
  8
MAKE2D$VISIBLE$LINES
 10
233.0333719865423
 20
250.4122890766579
 30
0.0
 11
233.1639506590019
 21
250.3022977497726
 31
0.0
  0
LINE
  5
C2
  8
MAKE2D$VISIBLE$LINES
 10
233.1639506590019
 20
250.3022977497726
 30
0.0
 11
233.2982084330267
 21
250.1968286462151
 31
0.0
  0
LINE
  5
C3
  8
MAKE2D$VISIBLE$LINES
 10
233.2982084330267
 20
250.1968286462151
 30
0.0
 11
233.4359887700578
 21
250.0960047382424
 31
0.0
  0
LINE
  5
C4
  8
MAKE2D$VISIBLE$LINES
 10
233.4359887700578
 20
250.0960047382424
 30
0.0
 11
233.5771310243856
 21
249.9999435820211
 31
0.0
  0
LINE
  5
C5
  8
MAKE2D$VISIBLE$LINES
 10
233.5771310243856
 20
249.9999435820211
 30
0.0
 11
233.721470630455
 21
249.9087571805622
 31
0.0
  0
LINE
  5
C6
  8
MAKE2D$VISIBLE$LINES
 10
233.721470630455
 20
249.9087571805622
 30
0.0
 11
233.8688392947421
 21
249.8225518531309
 31
0.0
  0
LINE
  5
C7
  8
MAKE2D$VISIBLE$LINES
 10
233.8688392947421
 20
249.8225518531309
 30
0.0
 11
234.0190651919764
 21
249.7414281112828
 31
0.0
  0
LINE
  5
C8
  8
MAKE2D$VISIBLE$LINES
 10
234.0190651919764
 20
249.7414281112828
 30
0.0
 11
234.1719731654818
 21
249.665480541672
 31
0.0
  0
LINE
  5
C9
  8
MAKE2D$VISIBLE$LINES
 10
234.1719731654818
 20
249.665480541672
 30
0.0
 11
234.327384931401
 21
249.5947976957674
 31
0.0
  0
LINE
  5
CA
  8
MAKE2D$VISIBLE$LINES
 10
234.327384931401
 20
249.5947976957674
 30
0.0
 11
234.4851192865669
 21
249.5294619866055
 31
0.0
  0
LINE
  5
CB
  8
MAKE2D$VISIBLE$LINES
 10
234.4851192865669
 20
249.5294619866055
 30
0.0
 11
234.6449923197773
 21
249.4695495927006
 31
0.0
  0
LINE
  5
CC
  8
MAKE2D$VISIBLE$LINES
 10
234.6449923197773
 20
249.4695495927006
 30
0.0
 11
234.8068176262268
 21
249.4151303692239
 31
0.0
  0
LINE
  5
CD
  8
MAKE2D$VISIBLE$LINES
 10
234.8068176262268
 20
249.4151303692239
 30
0.0
 11
234.9704065248471
 21
249.3662677665557
 31
0.0
  0
LINE
  5
CE
  8
MAKE2D$VISIBLE$LINES
 10
234.9704065248471
 20
249.3662677665557
 30
0.0
 11
235.1355682783
 21
249.323018756305
 31
0.0
  0
LINE
  5
CF
  8
MAKE2D$VISIBLE$LINES
 10
235.1355682783
 20
249.323018756305
 30
0.0
 11
235.302110315369
 21
249.2854337648831
 31
0.0
  0
LINE
  5
D0
  8
MAKE2D$VISIBLE$LINES
 10
235.302110315369
 20
249.2854337648831
 30
0.0
 11
235.4698384554888
 21
249.2535566147087
 31
0.0
  0
LINE
  5
D1
  8
MAKE2D$VISIBLE$LINES
 10
235.4698384554888
 20
249.2535566147087
 30
0.0
 11
235.6385571351509
 21
249.2274244731131
 31
0.0
  0
LINE
  5
D2
  8
MAKE2D$VISIBLE$LINES
 10
235.6385571351509
 20
249.2274244731131
 30
0.0
 11
235.808069635922
 21
249.2070678090043
 31
0.0
  0
LINE
  5
D3
  8
MAKE2D$VISIBLE$LINES
 10
235.808069635922
 20
249.2070678090043
 30
0.0
 11
235.9781783138088
 21
249.1925103573421
 31
0.0
  0
LINE
  5
D4
  8
MAKE2D$VISIBLE$LINES
 10
235.9781783138088
 20
249.1925103573421
 30
0.0
 11
236.1486848297023
 21
249.1837690914639
 31
0.0
  0
LINE
  5
D5
  8
MAKE2D$VISIBLE$LINES
 10
236.1486848297023
 20
249.1837690914639
 30
0.0
 11
236.3193903806321
 21
249.1808542032948
 31
0.0
  0
LINE
  5
D6
  8
MAKE2D$VISIBLE$LINES
 10
236.3193903806321
 20
249.1808542032948
 30
0.0
 11
241.3193903806321
 21
249.1808542032948
 31
0.0
  0
LINE
  5
D7
  8
MAKE2D$VISIBLE$LINES
 10
241.3193903806321
 20
249.1808542032948
 30
0.0
 11
241.3193903806321
 21
233.1808542032941
 31
0.0
  0
LINE
  5
D8
  8
MAKE2D$VISIBLE$LINES
 10
241.3193903806321
 20
233.1808542032941
 30
0.0
 11
540.319122454997
 21
233.1808542032941
 31
0.0
  0
LINE
  5
D9
  8
MAKE2D$VISIBLE$LINES
 10
540.319122454997
 20
233.1808542032941
 30
0.0
 11
540.319122454997
 21
249.1808542032941
 31
0.0
  0
LINE
  5
DA
  8
MAKE2D$VISIBLE$LINES
 10
540.319122454997
 20
249.1808542032941
 30
0.0
 11
545.319122454997
 21
249.1808542032941
 31
0.0
  0
LINE
  5
DB
  8
MAKE2D$VISIBLE$LINES
 10
545.319122454997
 20
249.1808542032941
 30
0.0
 11
545.4898280059268
 21
249.1837690914632
 31
0.0
  0
LINE
  5
DC
  8
MAKE2D$VISIBLE$LINES
 10
545.4898280059268
 20
249.1837690914632
 30
0.0
 11
545.6603345218203
 21
249.1925103573414
 31
0.0
  0
LINE
  5
DD
  8
MAKE2D$VISIBLE$LINES
 10
545.6603345218203
 20
249.1925103573414
 30
0.0
 11
545.8304431997072
 21
249.2070678090036
 31
0.0
  0
LINE
  5
DE
  8
MAKE2D$VISIBLE$LINES
 10
545.8304431997072
 20
249.2070678090036
 30
0.0
 11
545.9999557004783
 21
249.2274244731124
 31
0.0
  0
LINE
  5
DF
  8
MAKE2D$VISIBLE$LINES
 10
545.9999557004783
 20
249.2274244731124
 30
0.0
 11
546.1686743801403
 21
249.2535566147081
 31
0.0
  0
LINE
  5
E0
  8
MAKE2D$VISIBLE$LINES
 10
546.1686743801403
 20
249.2535566147081
 30
0.0
 11
546.3364025202601
 21
249.2854337648825
 31
0.0
  0
LINE
  5
E1
  8
MAKE2D$VISIBLE$LINES
 10
546.3364025202601
 20
249.2854337648825
 30
0.0
 11
546.5029445573292
 21
249.3230187563044
 31
0.0
  0
LINE
  5
E2
  8
MAKE2D$VISIBLE$LINES
 10
546.5029445573292
 20
249.3230187563044
 30
0.0
 11
546.6681063107822
 21
249.3662677665551
 31
0.0
  0
LINE
  5
E3
  8
MAKE2D$VISIBLE$LINES
 10
546.6681063107822
 20
249.3662677665551
 30
0.0
 11
546.8316952094024
 21
249.4151303692233
 31
0.0
  0
LINE
  5
E4
  8
MAKE2D$VISIBLE$LINES
 10
546.8316952094024
 20
249.4151303692233
 30
0.0
 11
546.993520515852
 21
249.4695495927
 31
0.0
  0
LINE
  5
E5
  8
MAKE2D$VISIBLE$LINES
 10
546.993520515852
 20
249.4695495927
 30
0.0
 11
547.1533935490622
 21
249.529461986605
 31
0.0
  0
LINE
  5
E6
  8
MAKE2D$VISIBLE$LINES
 10
547.1533935490622
 20
249.529461986605
 30
0.0
 11
547.3111279042281
 21
249.5947976957668
 31
0.0
  0
LINE
  5
E7
  8
MAKE2D$VISIBLE$LINES
 10
547.3111279042281
 20
249.5947976957668
 30
0.0
 11
547.4665396701473
 21
249.6654805416714
 31
0.0
  0
LINE
  5
E8
  8
MAKE2D$VISIBLE$LINES
 10
547.4665396701473
 20
249.6654805416714
 30
0.0
 11
547.6194476436527
 21
249.7414281112822
 31
0.0
  0
LINE
  5
E9
  8
MAKE2D$VISIBLE$LINES
 10
547.6194476436527
 20
249.7414281112822
 30
0.0
 11
547.7696735408871
 21
249.8225518531304
 31
0.0
  0
LINE
  5
EA
  8
MAKE2D$VISIBLE$LINES
 10
547.7696735408871
 20
249.8225518531304
 30
0.0
 11
547.9170422051741
 21
249.9087571805617
 31
0.0
  0
LINE
  5
EB
  8
MAKE2D$VISIBLE$LINES
 10
547.9170422051741
 20
249.9087571805617
 30
0.0
 11
548.0613818112435
 21
249.9999435820205
 31
0.0
  0
LINE
  5
EC
  8
MAKE2D$VISIBLE$LINES
 10
548.0613818112435
 20
249.9999435820205
 30
0.0
 11
548.2025240655713
 21
250.096004738242
 31
0.0
  0
LINE
  5
ED
  8
MAKE2D$VISIBLE$LINES
 10
548.2025240655713
 20
250.096004738242
 30
0.0
 11
548.3403044026024
 21
250.1968286462146
 31
0.0
  0
LINE
  5
EE
  8
MAKE2D$VISIBLE$LINES
 10
548.3403044026024
 20
250.1968286462146
 30
0.0
 11
548.4745621766273
 21
250.302297749772
 31
0.0
  0
LINE
  5
EF
  8
MAKE2D$VISIBLE$LINES
 10
548.4745621766273
 20
250.302297749772
 30
0.0
 11
548.6051408490868
 21
250.4122890766573
 31
0.0
  0
LINE
  5
F0
  8
MAKE2D$VISIBLE$LINES
 10
548.6051408490868
 20
250.4122890766573
 30
0.0
 11
548.7318881710902
 21
250.5266743819035
 31
0.0
  0
LINE
  5
F1
  8
MAKE2D$VISIBLE$LINES
 10
548.7318881710902
 20
250.5266743819035
 30
0.0
 11
548.8546563609297
 21
250.6453202973613
 31
0.0
  0
LINE
  5
F2
  8
MAKE2D$VISIBLE$LINES
 10
548.8546563609297
 20
250.6453202973613
 30
0.0
 11
548.9733022763876
 21
250.7680884872008
 31
0.0
  0
LINE
  5
F3
  8
MAKE2D$VISIBLE$LINES
 10
548.9733022763876
 20
250.7680884872008
 30
0.0
 11
549.0876875816338
 21
250.8948358092043
 31
0.0
  0
LINE
  5
F4
  8
MAKE2D$VISIBLE$LINES
 10
549.0876875816338
 20
250.8948358092043
 30
0.0
 11
549.197678908519
 21
251.0254144816638
 31
0.0
  0
LINE
  5
F5
  8
MAKE2D$VISIBLE$LINES
 10
549.197678908519
 20
251.0254144816638
 30
0.0
 11
549.3031480120765
 21
251.1596722556886
 31
0.0
  0
LINE
  5
F6
  8
MAKE2D$VISIBLE$LINES
 10
549.3031480120765
 20
251.1596722556886
 30
0.0
 11
549.4039719200491
 21
251.2974525927198
 31
0.0
  0
LINE
  5
F7
  8
MAKE2D$VISIBLE$LINES
 10
549.4039719200491
 20
251.2974525927198
 30
0.0
 11
549.5000330762705
 21
251.4385948470475
 31
0.0
  0
LINE
  5
F8
  8
MAKE2D$VISIBLE$LINES
 10
549.5000330762705
 20
251.4385948470475
 30
0.0
 11
549.5912194777294
 21
251.582934453117
 31
0.0
  0
LINE
  5
F9
  8
MAKE2D$VISIBLE$LINES
 10
549.5912194777294
 20
251.582934453117
 30
0.0
 11
549.6774248051607
 21
251.7303031174041
 31
0.0
  0
LINE
  5
FA
  8
MAKE2D$VISIBLE$LINES
 10
549.6774248051607
 20
251.7303031174041
 30
0.0
 11
549.7585485470088
 21
251.8805290146383
 31
0.0
  0
LINE
  5
FB
  8
MAKE2D$VISIBLE$LINES
 10
549.7585485470088
 20
251.8805290146383
 30
0.0
 11
549.8344961166196
 21
252.0334369881436
 31
0.0
  0
LINE
  5
FC
  8
MAKE2D$VISIBLE$LINES
 10
549.8344961166196
 20
252.0334369881436
 30
0.0
 11
549.9051789625241
 21
252.1888487540629
 31
0.0
  0
LINE
  5
FD
  8
MAKE2D$VISIBLE$LINES
 10
549.9051789625241
 20
252.1888487540629
 30
0.0
 11
549.970514671686
 21
252.3465831092288
 31
0.0
  0
LINE
  5
FE
  8
MAKE2D$VISIBLE$LINES
 10
549.970514671686
 20
252.3465831092288
 30
0.0
 11
550.030427065591
 21
252.5064561424392
 31
0.0
  0
LINE
  5
FF
  8
MAKE2D$VISIBLE$LINES
 10
550.030427065591
 20
252.5064561424392
 30
0.0
 11
550.0848462890677
 21
252.6682814488887
 31
0.0
  0
LINE
  5
100
  8
MAKE2D$VISIBLE$LINES
 10
550.0848462890677
 20
252.6682814488887
 30
0.0
 11
550.1337088917359
 21
252.831870347509
 31
0.0
  0
LINE
  5
101
  8
MAKE2D$VISIBLE$LINES
 10
550.1337088917359
 20
252.831870347509
 30
0.0
 11
550.1769579019866
 21
252.9970321009619
 31
0.0
  0
LINE
  5
102
  8
MAKE2D$VISIBLE$LINES
 10
550.1769579019866
 20
252.9970321009619
 30
0.0
 11
550.2145428934085
 21
253.163574138031
 31
0.0
  0
LINE
  5
103
  8
MAKE2D$VISIBLE$LINES
 10
550.2145428934085
 20
253.163574138031
 30
0.0
 11
550.2464200435829
 21
253.3313022781508
 31
0.0
  0
LINE
  5
104
  8
MAKE2D$VISIBLE$LINES
 10
550.2464200435829
 20
253.3313022781508
 30
0.0
 11
550.2725521851786
 21
253.5000209578129
 31
0.0
  0
LINE
  5
105
  8
MAKE2D$VISIBLE$LINES
 10
550.2725521851786
 20
253.5000209578129
 30
0.0
 11
550.2929088492874
 21
253.6695334585839
 31
0.0
  0
LINE
  5
106
  8
MAKE2D$VISIBLE$LINES
 10
550.2929088492874
 20
253.6695334585839
 30
0.0
 11
550.3074663009496
 21
253.8396421364708
 31
0.0
  0
LINE
  5
107
  8
MAKE2D$VISIBLE$LINES
 10
550.3074663009496
 20
253.8396421364708
 30
0.0
 11
550.3162075668278
 21
254.0101486523642
 31
0.0
  0
LINE
  5
108
  8
MAKE2D$VISIBLE$LINES
 10
550.3162075668278
 20
254.0101486523642
 30
0.0
 11
550.3191224549969
 21
254.1808542032941
 31
0.0
  0
LINE
  5
109
  8
MAKE2D$VISIBLE$LINES
 10
550.3191224549969
 20
254.1808542032941
 30
0.0
 11
550.319122454997
 21
261.6808542032941
 31
0.0
  0
LINE
  5
10A
  8
MAKE2D$VISIBLE$LINES
 10
550.319122454997
 20
261.6808542032941
 30
0.0
 11
550.319122454997
 21
269.1808542032941
 31
0.0
  0
LINE
  5
10B
  8
MAKE2D$VISIBLE$LINES
 10
550.319122454997
 20
269.1808542032941
 30
0.0
 11
550.3162075668279
 21
269.351559754224
 31
0.0
  0
LINE
  5
10C
  8
MAKE2D$VISIBLE$LINES
 10
550.3162075668279
 20
269.351559754224
 30
0.0
 11
550.3074663009497
 21
269.5220662701174
 31
0.0
  0
LINE
  5
10D
  8
MAKE2D$VISIBLE$LINES
 10
550.3074663009497
 20
269.5220662701174
 30
0.0
 11
550.2929088492875
 21
269.6921749480043
 31
0.0
  0
LINE
  5
10E
  8
MAKE2D$VISIBLE$LINES
 10
550.2929088492875
 20
269.6921749480043
 30
0.0
 11
550.2725521851787
 21
269.8616874487753
 31
0.0
  0
LINE
  5
10F
  8
MAKE2D$VISIBLE$LINES
 10
550.2725521851787
 20
269.8616874487753
 30
0.0
 11
550.246420043583
 21
270.0304061284374
 31
0.0
  0
LINE
  5
110
  8
MAKE2D$VISIBLE$LINES
 10
550.246420043583
 20
270.0304061284374
 30
0.0
 11
550.2145428934086
 21
270.1981342685572
 31
0.0
  0
LINE
  5
111
  8
MAKE2D$VISIBLE$LINES
 10
550.2145428934086
 20
270.1981342685572
 30
0.0
 11
550.1769579019867
 21
270.3646763056263
 31
0.0
  0
LINE
  5
112
  8
MAKE2D$VISIBLE$LINES
 10
550.1769579019867
 20
270.3646763056263
 30
0.0
 11
550.1337088917361
 21
270.5298380590792
 31
0.0
  0
LINE
  5
113
  8
MAKE2D$VISIBLE$LINES
 10
550.1337088917361
 20
270.5298380590792
 30
0.0
 11
550.0848462890679
 21
270.6934269576994
 31
0.0
  0
LINE
  5
114
  8
MAKE2D$VISIBLE$LINES
 10
550.0848462890679
 20
270.6934269576994
 30
0.0
 11
550.0304270655912
 21
270.855252264149
 31
0.0
  0
LINE
  5
115
  8
MAKE2D$VISIBLE$LINES
 10
550.0304270655912
 20
270.855252264149
 30
0.0
 11
549.9705146716863
 21
271.0151252973594
 31
0.0
  0
LINE
  5
116
  8
MAKE2D$VISIBLE$LINES
 10
549.9705146716863
 20
271.0151252973594
 30
0.0
 11
549.9051789625244
 21
271.1728596525252
 31
0.0
  0
LINE
  5
117
  8
MAKE2D$VISIBLE$LINES
 10
549.9051789625244
 20
271.1728596525252
 30
0.0
 11
549.8344961166198
 21
271.3282714184445
 31
0.0
  0
LINE
  5
118
  8
MAKE2D$VISIBLE$LINES
 10
549.8344961166198
 20
271.3282714184445
 30
0.0
 11
549.758548547009
 21
271.4811793919498
 31
0.0
  0
LINE
  5
119
  8
MAKE2D$VISIBLE$LINES
 10
549.758548547009
 20
271.4811793919498
 30
0.0
 11
549.6774248051609
 21
271.6314052891842
 31
0.0
  0
LINE
  5
11A
  8
MAKE2D$VISIBLE$LINES
 10
549.6774248051609
 20
271.6314052891842
 30
0.0
 11
549.5912194777295
 21
271.7787739534713
 31
0.0
  0
LINE
  5
11B
  8
MAKE2D$VISIBLE$LINES
 10
549.5912194777295
 20
271.7787739534713
 30
0.0
 11
549.5000330762706
 21
271.9231135595407
 31
0.0
  0
LINE
  5
11C
  8
MAKE2D$VISIBLE$LINES
 10
549.5000330762706
 20
271.9231135595407
 30
0.0
 11
549.4039719200493
 21
272.0642558138684
 31
0.0
  0
LINE
  5
11D
  8
MAKE2D$VISIBLE$LINES
 10
549.4039719200493
 20
272.0642558138684
 30
0.0
 11
549.3031480120767
 21
272.2020361508995
 31
0.0
  0
LINE
  5
11E
  8
MAKE2D$VISIBLE$LINES
 10
549.3031480120767
 20
272.2020361508995
 30
0.0
 11
549.1976789085192
 21
272.3362939249244
 31
0.0
  0
LINE
  5
11F
  8
MAKE2D$VISIBLE$LINES
 10
549.1976789085192
 20
272.3362939249244
 30
0.0
 11
549.0876875816339
 21
272.4668725973839
 31
0.0
  0
LINE
  5
120
  8
MAKE2D$VISIBLE$LINES
 10
549.0876875816339
 20
272.4668725973839
 30
0.0
 11
548.9733022763878
 21
272.5936199193873
 31
0.0
  0
LINE
  5
121
  8
MAKE2D$VISIBLE$LINES
 10
548.9733022763878
 20
272.5936199193873
 30
0.0
 11
548.8546563609299
 21
272.7163881092268
 31
0.0
  0
LINE
  5
122
  8
MAKE2D$VISIBLE$LINES
 10
548.8546563609299
 20
272.7163881092268
 30
0.0
 11
548.7318881710904
 21
272.8350340246847
 31
0.0
  0
LINE
  5
123
  8
MAKE2D$VISIBLE$LINES
 10
548.7318881710904
 20
272.8350340246847
 30
0.0
 11
548.6051408490871
 21
272.9494193299308
 31
0.0
  0
LINE
  5
124
  8
MAKE2D$VISIBLE$LINES
 10
548.6051408490871
 20
272.9494193299308
 30
0.0
 11
548.4745621766274
 21
273.0594106568162
 31
0.0
  0
LINE
  5
125
  8
MAKE2D$VISIBLE$LINES
 10
548.4745621766274
 20
273.0594106568162
 30
0.0
 11
548.3403044026026
 21
273.1648797603737
 31
0.0
  0
LINE
  5
126
  8
MAKE2D$VISIBLE$LINES
 10
548.3403044026026
 20
273.1648797603737
 30
0.0
 11
548.2025240655715
 21
273.2657036683462
 31
0.0
  0
LINE
  5
127
  8
MAKE2D$VISIBLE$LINES
 10
548.2025240655715
 20
273.2657036683462
 30
0.0
 11
548.0613818112438
 21
273.3617648245676
 31
0.0
  0
LINE
  5
128
  8
MAKE2D$VISIBLE$LINES
 10
548.0613818112438
 20
273.3617648245676
 30
0.0
 11
547.9170422051744
 21
273.4529512260265
 31
0.0
  0
LINE
  5
129
  8
MAKE2D$VISIBLE$LINES
 10
547.9170422051744
 20
273.4529512260265
 30
0.0
 11
547.7696735408872
 21
273.5391565534578
 31
0.0
  0
LINE
  5
12A
  8
MAKE2D$VISIBLE$LINES
 10
547.7696735408872
 20
273.5391565534578
 30
0.0
 11
547.6194476436528
 21
273.620280295306
 31
0.0
  0
LINE
  5
12B
  8
MAKE2D$VISIBLE$LINES
 10
547.6194476436528
 20
273.620280295306
 30
0.0
 11
547.4665396701477
 21
273.6962278649168
 31
0.0
  0
LINE
  5
12C
  8
MAKE2D$VISIBLE$LINES
 10
547.4665396701477
 20
273.6962278649168
 30
0.0
 11
547.3111279042283
 21
273.7669107108213
 31
0.0
  0
LINE
  5
12D
  8
MAKE2D$VISIBLE$LINES
 10
547.3111279042283
 20
273.7669107108213
 30
0.0
 11
547.1533935490625
 21
273.8322464199832
 31
0.0
  0
LINE
  5
12E
  8
MAKE2D$VISIBLE$LINES
 10
547.1533935490625
 20
273.8322464199832
 30
0.0
 11
546.9935205158522
 21
273.8921588138882
 31
0.0
  0
LINE
  5
12F
  8
MAKE2D$VISIBLE$LINES
 10
546.9935205158522
 20
273.8921588138882
 30
0.0
 11
546.8316952094025
 21
273.9465780373649
 31
0.0
  0
LINE
  5
130
  8
MAKE2D$VISIBLE$LINES
 10
546.8316952094025
 20
273.9465780373649
 30
0.0
 11
546.6681063107824
 21
273.9954406400331
 31
0.0
  0
LINE
  5
131
  8
MAKE2D$VISIBLE$LINES
 10
546.6681063107824
 20
273.9954406400331
 30
0.0
 11
546.5029445573294
 21
274.0386896502838
 31
0.0
  0
LINE
  5
132
  8
MAKE2D$VISIBLE$LINES
 10
546.5029445573294
 20
274.0386896502838
 30
0.0
 11
546.3364025202603
 21
274.0762746417057
 31
0.0
  0
LINE
  5
133
  8
MAKE2D$VISIBLE$LINES
 10
546.3364025202603
 20
274.0762746417057
 30
0.0
 11
546.1686743801405
 21
274.1081517918801
 31
0.0
  0
LINE
  5
134
  8
MAKE2D$VISIBLE$LINES
 10
546.1686743801405
 20
274.1081517918801
 30
0.0
 11
545.9999557004784
 21
274.1342839334757
 31
0.0
  0
LINE
  5
135
  8
MAKE2D$VISIBLE$LINES
 10
545.9999557004784
 20
274.1342839334757
 30
0.0
 11
545.8304431997074
 21
274.1546405975845
 31
0.0
  0
LINE
  5
136
  8
MAKE2D$VISIBLE$LINES
 10
545.8304431997074
 20
274.1546405975845
 30
0.0
 11
545.6603345218206
 21
274.1691980492467
 31
0.0
  0
LINE
  5
137
  8
MAKE2D$VISIBLE$LINES
 10
545.6603345218206
 20
274.1691980492467
 30
0.0
 11
545.489828005927
 21
274.1779393151249
 31
0.0
  0
LINE
  5
138
  8
MAKE2D$VISIBLE$LINES
 10
545.489828005927
 20
274.1779393151249
 30
0.0
 11
545.3191224549972
 21
274.1808542032941
 31
0.0
  0
LINE
  5
139
  8
MAKE2D$VISIBLE$LINES
 10
545.3191224549972
 20
274.1808542032941
 30
0.0
 11
540.319122454997
 21
274.1808542032941
 31
0.0
  0
LINE
  5
13A
  8
MAKE2D$VISIBLE$LINES
 10
540.319122454997
 20
274.1808542032941
 30
0.0
 11
540.319122454997
 21
278.9114149722579
 31
0.0
  0
LINE
  5
13B
  8
MAKE2D$VISIBLE$LINES
 10
540.319122454997
 20
278.9114149722579
 30
0.0
 11
403.3192564178146
 21
278.9114149722579
 31
0.0
  0
LINE
  5
13C
  8
MAKE2D$VISIBLE$LINES
 10
403.3192564178146
 20
278.9114149722579
 30
0.0
 11
403.3192564178146
 21
275.9114149722579
 31
0.0
  0
CIRCLE
  5
13D
  8
MAKE2D$VISIBLE$LINES
 10
532.8191224549632
 20
48.66294664117049
 30
0.0
 40
5.0
  0
CIRCLE
  5
13E
  8
MAKE2D$VISIBLE$LINES
 10
248.8193904656988
 20
48.66294664117049
 30
0.0
 40
5.000000000000028
  0
LINE
  5
13F
  8
MAKE2D$VISIBLE$LINES
 10
378.3192564603312
 20
214.7111604789384
 30
0.0
 11
378.3192564603312
 21
217.6111604830471
 31
0.0
  0
LINE
  5
140
  8
MAKE2D$VISIBLE$LINES
 10
378.3192564603312
 20
217.6111604830471
 30
0.0
 11
365.8192564603312
 21
217.6111604830469
 31
0.0
  0
LINE
  5
141
  8
MAKE2D$VISIBLE$LINES
 10
365.8192564603312
 20
217.6111604830469
 30
0.0
 11
365.8192564603312
 21
219.7110760055684
 31
0.0
  0
LINE
  5
142
  8
MAKE2D$VISIBLE$LINES
 10
365.8192564603312
 20
219.7110760055684
 30
0.0
 11
365.8221713485003
 21
219.8817815564984
 31
0.0
  0
LINE
  5
143
  8
MAKE2D$VISIBLE$LINES
 10
365.8221713485003
 20
219.8817815564984
 30
0.0
 11
365.8309126143785
 21
220.0522880723916
 31
0.0
  0
LINE
  5
144
  8
MAKE2D$VISIBLE$LINES
 10
365.8309126143785
 20
220.0522880723916
 30
0.0
 11
365.8454700660407
 21
220.2223967502786
 31
0.0
  0
LINE
  5
145
  8
MAKE2D$VISIBLE$LINES
 10
365.8454700660407
 20
220.2223967502786
 30
0.0
 11
365.8658267301496
 21
220.3919092510498
 31
0.0
  0
LINE
  5
146
  8
MAKE2D$VISIBLE$LINES
 10
365.8658267301496
 20
220.3919092510498
 30
0.0
 11
365.8919588717453
 21
220.5606279307121
 31
0.0
  0
LINE
  5
147
  8
MAKE2D$VISIBLE$LINES
 10
365.8919588717453
 20
220.5606279307121
 30
0.0
 11
365.9238360219196
 21
220.7283560708316
 31
0.0
  0
LINE
  5
148
  8
MAKE2D$VISIBLE$LINES
 10
365.9238360219196
 20
220.7283560708316
 30
0.0
 11
365.9614210133415
 21
220.8948981079004
 31
0.0
  0
LINE
  5
149
  8
MAKE2D$VISIBLE$LINES
 10
365.9614210133415
 20
220.8948981079004
 30
0.0
 11
366.0046700235922
 21
221.0600598613534
 31
0.0
  0
LINE
  5
14A
  8
MAKE2D$VISIBLE$LINES
 10
366.0046700235922
 20
221.0600598613534
 30
0.0
 11
366.0535326262604
 21
221.2236487599738
 31
0.0
  0
LINE
  5
14B
  8
MAKE2D$VISIBLE$LINES
 10
366.0535326262604
 20
221.2236487599738
 30
0.0
 11
366.107951849737
 21
221.3854740664231
 31
0.0
  0
LINE
  5
14C
  8
MAKE2D$VISIBLE$LINES
 10
366.107951849737
 20
221.3854740664231
 30
0.0
 11
366.167864243642
 21
221.5453470996336
 31
0.0
  0
LINE
  5
14D
  8
MAKE2D$VISIBLE$LINES
 10
366.167864243642
 20
221.5453470996336
 30
0.0
 11
366.233199952804
 21
221.7030814547996
 31
0.0
  0
LINE
  5
14E
  8
MAKE2D$VISIBLE$LINES
 10
366.233199952804
 20
221.7030814547996
 30
0.0
 11
366.3038827987085
 21
221.8584932207186
 31
0.0
  0
LINE
  5
14F
  8
MAKE2D$VISIBLE$LINES
 10
366.3038827987085
 20
221.8584932207186
 30
0.0
 11
366.3798303683193
 21
222.011401194224
 31
0.0
  0
LINE
  5
150
  8
MAKE2D$VISIBLE$LINES
 10
366.3798303683193
 20
222.011401194224
 30
0.0
 11
366.4609541101676
 21
222.1616270914585
 31
0.0
  0
LINE
  5
151
  8
MAKE2D$VISIBLE$LINES
 10
366.4609541101676
 20
222.1616270914585
 30
0.0
 11
366.547159437599
 21
222.3089957557457
 31
0.0
  0
LINE
  5
152
  8
MAKE2D$VISIBLE$LINES
 10
366.547159437599
 20
222.3089957557457
 30
0.0
 11
366.6383458390577
 21
222.4533353618149
 31
0.0
  0
LINE
  5
153
  8
MAKE2D$VISIBLE$LINES
 10
366.6383458390577
 20
222.4533353618149
 30
0.0
 11
366.7344069952791
 21
222.5944776161427
 31
0.0
  0
LINE
  5
154
  8
MAKE2D$VISIBLE$LINES
 10
366.7344069952791
 20
222.5944776161427
 30
0.0
 11
366.8352309032519
 21
222.732257953174
 31
0.0
  0
LINE
  5
155
  8
MAKE2D$VISIBLE$LINES
 10
366.8352309032519
 20
222.732257953174
 30
0.0
 11
366.9407000068092
 21
222.8665157271986
 31
0.0
  0
LINE
  5
156
  8
MAKE2D$VISIBLE$LINES
 10
366.9407000068092
 20
222.8665157271986
 30
0.0
 11
367.0506913336945
 21
222.9970943996583
 31
0.0
  0
LINE
  5
157
  8
MAKE2D$VISIBLE$LINES
 10
367.0506913336945
 20
222.9970943996583
 30
0.0
 11
367.1650766389405
 21
223.1238417216614
 31
0.0
  0
LINE
  5
158
  8
MAKE2D$VISIBLE$LINES
 10
367.1650766389405
 20
223.1238417216614
 30
0.0
 11
367.2837225543985
 21
223.246609911501
 31
0.0
  0
LINE
  5
159
  8
MAKE2D$VISIBLE$LINES
 10
367.2837225543985
 20
223.246609911501
 30
0.0
 11
367.4064907442381
 21
223.365255826959
 31
0.0
  0
LINE
  5
15A
  8
MAKE2D$VISIBLE$LINES
 10
367.4064907442381
 20
223.365255826959
 30
0.0
 11
367.5332380662417
 21
223.4796411322053
 31
0.0
  0
LINE
  5
15B
  8
MAKE2D$VISIBLE$LINES
 10
367.5332380662417
 20
223.4796411322053
 30
0.0
 11
367.663816738701
 21
223.5896324590904
 31
0.0
  0
LINE
  5
15C
  8
MAKE2D$VISIBLE$LINES
 10
367.663816738701
 20
223.5896324590904
 30
0.0
 11
367.7980745127256
 21
223.6951015626476
 31
0.0
  0
LINE
  5
15D
  8
MAKE2D$VISIBLE$LINES
 10
367.7980745127256
 20
223.6951015626476
 30
0.0
 11
367.9358548497568
 21
223.7959254706204
 31
0.0
  0
LINE
  5
15E
  8
MAKE2D$VISIBLE$LINES
 10
367.9358548497568
 20
223.7959254706204
 30
0.0
 11
368.0769971040847
 21
223.8919866268418
 31
0.0
  0
LINE
  5
15F
  8
MAKE2D$VISIBLE$LINES
 10
368.0769971040847
 20
223.8919866268418
 30
0.0
 11
368.2213367101543
 21
223.9831730283008
 31
0.0
  0
LINE
  5
160
  8
MAKE2D$VISIBLE$LINES
 10
368.2213367101543
 20
223.9831730283008
 30
0.0
 11
368.3687053744415
 21
224.0693783557322
 31
0.0
  0
LINE
  5
161
  8
MAKE2D$VISIBLE$LINES
 10
368.3687053744415
 20
224.0693783557322
 30
0.0
 11
368.5189312716756
 21
224.1505020975801
 31
0.0
  0
LINE
  5
162
  8
MAKE2D$VISIBLE$LINES
 10
368.5189312716756
 20
224.1505020975801
 30
0.0
 11
368.671839245181
 21
224.226449667191
 31
0.0
  0
LINE
  5
163
  8
MAKE2D$VISIBLE$LINES
 10
368.671839245181
 20
224.226449667191
 30
0.0
 11
368.8272510111
 21
224.2971325130954
 31
0.0
  0
LINE
  5
164
  8
MAKE2D$VISIBLE$LINES
 10
368.8272510111
 20
224.2971325130954
 30
0.0
 11
368.984985366266
 21
224.3624682222574
 31
0.0
  0
LINE
  5
165
  8
MAKE2D$VISIBLE$LINES
 10
368.984985366266
 20
224.3624682222574
 30
0.0
 11
369.1448583994761
 21
224.4223806161623
 31
0.0
  0
LINE
  5
166
  8
MAKE2D$VISIBLE$LINES
 10
369.1448583994761
 20
224.4223806161623
 30
0.0
 11
369.3066837059262
 21
224.4767998396391
 31
0.0
  0
LINE
  5
167
  8
MAKE2D$VISIBLE$LINES
 10
369.3066837059262
 20
224.4767998396391
 30
0.0
 11
369.4702726045462
 21
224.5256624423072
 31
0.0
  0
LINE
  5
168
  8
MAKE2D$VISIBLE$LINES
 10
369.4702726045462
 20
224.5256624423072
 30
0.0
 11
369.6354343579993
 21
224.568911452558
 31
0.0
  0
LINE
  5
169
  8
MAKE2D$VISIBLE$LINES
 10
369.6354343579993
 20
224.568911452558
 30
0.0
 11
369.801976395068
 21
224.6064964439798
 31
0.0
  0
LINE
  5
16A
  8
MAKE2D$VISIBLE$LINES
 10
369.801976395068
 20
224.6064964439798
 30
0.0
 11
369.969704535188
 21
224.6383735941542
 31
0.0
  0
LINE
  5
16B
  8
MAKE2D$VISIBLE$LINES
 10
369.969704535188
 20
224.6383735941542
 30
0.0
 11
370.1384232148503
 21
224.6645057357499
 31
0.0
  0
LINE
  5
16C
  8
MAKE2D$VISIBLE$LINES
 10
370.1384232148503
 20
224.6645057357499
 30
0.0
 11
370.307935715621
 21
224.6848623998587
 31
0.0
  0
LINE
  5
16D
  8
MAKE2D$VISIBLE$LINES
 10
370.307935715621
 20
224.6848623998587
 30
0.0
 11
370.478044393508
 21
224.6994198515209
 31
0.0
  0
LINE
  5
16E
  8
MAKE2D$VISIBLE$LINES
 10
370.478044393508
 20
224.6994198515209
 30
0.0
 11
370.6485509094012
 21
224.7081611173991
 31
0.0
  0
LINE
  5
16F
  8
MAKE2D$VISIBLE$LINES
 10
370.6485509094012
 20
224.7081611173991
 30
0.0
 11
370.8192564603312
 21
224.7110760055682
 31
0.0
  0
LINE
  5
170
  8
MAKE2D$VISIBLE$LINES
 10
370.8192564603312
 20
224.7110760055682
 30
0.0
 11
390.8192564603312
 21
224.7110760055682
 31
0.0
  0
LINE
  5
171
  8
MAKE2D$VISIBLE$LINES
 10
390.8192564603312
 20
224.7110760055682
 30
0.0
 11
410.8192564603312
 21
224.7110760055682
 31
0.0
  0
LINE
  5
172
  8
MAKE2D$VISIBLE$LINES
 10
410.8192564603312
 20
224.7110760055682
 30
0.0
 11
410.9899620112607
 21
224.7081611173991
 31
0.0
  0
LINE
  5
173
  8
MAKE2D$VISIBLE$LINES
 10
410.9899620112607
 20
224.7081611173991
 30
0.0
 11
411.1604685271544
 21
224.6994198515209
 31
0.0
  0
LINE
  5
174
  8
MAKE2D$VISIBLE$LINES
 10
411.1604685271544
 20
224.6994198515209
 30
0.0
 11
411.3305772050414
 21
224.6848623998587
 31
0.0
  0
LINE
  5
175
  8
MAKE2D$VISIBLE$LINES
 10
411.3305772050414
 20
224.6848623998587
 30
0.0
 11
411.5000897058126
 21
224.6645057357499
 31
0.0
  0
LINE
  5
176
  8
MAKE2D$VISIBLE$LINES
 10
411.5000897058126
 20
224.6645057357499
 30
0.0
 11
411.6688083854748
 21
224.6383735941542
 31
0.0
  0
LINE
  5
177
  8
MAKE2D$VISIBLE$LINES
 10
411.6688083854748
 20
224.6383735941542
 30
0.0
 11
411.8365365255944
 21
224.6064964439798
 31
0.0
  0
LINE
  5
178
  8
MAKE2D$VISIBLE$LINES
 10
411.8365365255944
 20
224.6064964439798
 30
0.0
 11
412.0030785626632
 21
224.568911452558
 31
0.0
  0
LINE
  5
179
  8
MAKE2D$VISIBLE$LINES
 10
412.0030785626632
 20
224.568911452558
 30
0.0
 11
412.1682403161162
 21
224.5256624423072
 31
0.0
  0
LINE
  5
17A
  8
MAKE2D$VISIBLE$LINES
 10
412.1682403161162
 20
224.5256624423072
 30
0.0
 11
412.3318292147367
 21
224.476799839639
 31
0.0
  0
LINE
  5
17B
  8
MAKE2D$VISIBLE$LINES
 10
412.3318292147367
 20
224.476799839639
 30
0.0
 11
412.4936545211863
 21
224.4223806161623
 31
0.0
  0
LINE
  5
17C
  8
MAKE2D$VISIBLE$LINES
 10
412.4936545211863
 20
224.4223806161623
 30
0.0
 11
412.6535275543964
 21
224.3624682222574
 31
0.0
  0
LINE
  5
17D
  8
MAKE2D$VISIBLE$LINES
 10
412.6535275543964
 20
224.3624682222574
 30
0.0
 11
412.8112619095625
 21
224.2971325130955
 31
0.0
  0
LINE
  5
17E
  8
MAKE2D$VISIBLE$LINES
 10
412.8112619095625
 20
224.2971325130955
 30
0.0
 11
412.9666736754818
 21
224.2264496671908
 31
0.0
  0
LINE
  5
17F
  8
MAKE2D$VISIBLE$LINES
 10
412.9666736754818
 20
224.2264496671908
 30
0.0
 11
413.1195816489869
 21
224.1505020975801
 31
0.0
  0
LINE
  5
180
  8
MAKE2D$VISIBLE$LINES
 10
413.1195816489869
 20
224.1505020975801
 30
0.0
 11
413.269807546221
 21
224.0693783557322
 31
0.0
  0
LINE
  5
181
  8
MAKE2D$VISIBLE$LINES
 10
413.269807546221
 20
224.0693783557322
 30
0.0
 11
413.4171762105082
 21
223.9831730283008
 31
0.0
  0
LINE
  5
182
  8
MAKE2D$VISIBLE$LINES
 10
413.4171762105082
 20
223.9831730283008
 30
0.0
 11
413.5615158165778
 21
223.8919866268418
 31
0.0
  0
LINE
  5
183
  8
MAKE2D$VISIBLE$LINES
 10
413.5615158165778
 20
223.8919866268418
 30
0.0
 11
413.7026580709057
 21
223.7959254706204
 31
0.0
  0
LINE
  5
184
  8
MAKE2D$VISIBLE$LINES
 10
413.7026580709057
 20
223.7959254706204
 30
0.0
 11
413.840438407937
 21
223.6951015626476
 31
0.0
  0
LINE
  5
185
  8
MAKE2D$VISIBLE$LINES
 10
413.840438407937
 20
223.6951015626476
 30
0.0
 11
413.9746961819611
 21
223.5896324590906
 31
0.0
  0
LINE
  5
186
  8
MAKE2D$VISIBLE$LINES
 10
413.9746961819611
 20
223.5896324590906
 30
0.0
 11
414.1052748544212
 21
223.479641132205
 31
0.0
  0
LINE
  5
187
  8
MAKE2D$VISIBLE$LINES
 10
414.1052748544212
 20
223.479641132205
 30
0.0
 11
414.2320221764244
 21
223.365255826959
 31
0.0
  0
LINE
  5
188
  8
MAKE2D$VISIBLE$LINES
 10
414.2320221764244
 20
223.365255826959
 30
0.0
 11
414.354790366264
 21
223.246609911501
 31
0.0
  0
LINE
  5
189
  8
MAKE2D$VISIBLE$LINES
 10
414.354790366264
 20
223.246609911501
 30
0.0
 11
414.473436281722
 21
223.1238417216614
 31
0.0
  0
LINE
  5
18A
  8
MAKE2D$VISIBLE$LINES
 10
414.473436281722
 20
223.1238417216614
 30
0.0
 11
414.5878215869683
 21
222.9970943996579
 31
0.0
  0
LINE
  5
18B
  8
MAKE2D$VISIBLE$LINES
 10
414.5878215869683
 20
222.9970943996579
 30
0.0
 11
414.6978129138534
 21
222.8665157271985
 31
0.0
  0
LINE
  5
18C
  8
MAKE2D$VISIBLE$LINES
 10
414.6978129138534
 20
222.8665157271985
 30
0.0
 11
414.8032820174107
 21
222.7322579531739
 31
0.0
  0
LINE
  5
18D
  8
MAKE2D$VISIBLE$LINES
 10
414.8032820174107
 20
222.7322579531739
 30
0.0
 11
414.9041059253834
 21
222.5944776161427
 31
0.0
  0
LINE
  5
18E
  8
MAKE2D$VISIBLE$LINES
 10
414.9041059253834
 20
222.5944776161427
 30
0.0
 11
415.0001670816048
 21
222.4533353618148
 31
0.0
  0
LINE
  5
18F
  8
MAKE2D$VISIBLE$LINES
 10
415.0001670816048
 20
222.4533353618148
 30
0.0
 11
415.0913534830638
 21
222.3089957557452
 31
0.0
  0
LINE
  5
190
  8
MAKE2D$VISIBLE$LINES
 10
415.0913534830638
 20
222.3089957557452
 30
0.0
 11
415.177558810495
 21
222.1616270914584
 31
0.0
  0
LINE
  5
191
  8
MAKE2D$VISIBLE$LINES
 10
415.177558810495
 20
222.1616270914584
 30
0.0
 11
415.2586825523432
 21
222.0114011942239
 31
0.0
  0
LINE
  5
192
  8
MAKE2D$VISIBLE$LINES
 10
415.2586825523432
 20
222.0114011942239
 30
0.0
 11
415.3346301219539
 21
221.8584932207189
 31
0.0
  0
LINE
  5
193
  8
MAKE2D$VISIBLE$LINES
 10
415.3346301219539
 20
221.8584932207189
 30
0.0
 11
415.4053129678585
 21
221.7030814547995
 31
0.0
  0
LINE
  5
194
  8
MAKE2D$VISIBLE$LINES
 10
415.4053129678585
 20
221.7030814547995
 30
0.0
 11
415.4706486770203
 21
221.5453470996339
 31
0.0
  0
LINE
  5
195
  8
MAKE2D$VISIBLE$LINES
 10
415.4706486770203
 20
221.5453470996339
 30
0.0
 11
415.5305610709255
 21
221.3854740664229
 31
0.0
  0
LINE
  5
196
  8
MAKE2D$VISIBLE$LINES
 10
415.5305610709255
 20
221.3854740664229
 30
0.0
 11
415.5849802944021
 21
221.2236487599737
 31
0.0
  0
LINE
  5
197
  8
MAKE2D$VISIBLE$LINES
 10
415.5849802944021
 20
221.2236487599737
 30
0.0
 11
415.6338428970703
 21
221.0600598613532
 31
0.0
  0
LINE
  5
198
  8
MAKE2D$VISIBLE$LINES
 10
415.6338428970703
 20
221.0600598613532
 30
0.0
 11
415.6770919073211
 21
220.8948981079002
 31
0.0
  0
LINE
  5
199
  8
MAKE2D$VISIBLE$LINES
 10
415.6770919073211
 20
220.8948981079002
 30
0.0
 11
415.7146768987429
 21
220.7283560708314
 31
0.0
  0
LINE
  5
19A
  8
MAKE2D$VISIBLE$LINES
 10
415.7146768987429
 20
220.7283560708314
 30
0.0
 11
415.7465540489172
 21
220.5606279307119
 31
0.0
  0
LINE
  5
19B
  8
MAKE2D$VISIBLE$LINES
 10
415.7465540489172
 20
220.5606279307119
 30
0.0
 11
415.772686190513
 21
220.3919092510492
 31
0.0
  0
LINE
  5
19C
  8
MAKE2D$VISIBLE$LINES
 10
415.772686190513
 20
220.3919092510492
 30
0.0
 11
415.7930428546218
 21
220.2223967502784
 31
0.0
  0
LINE
  5
19D
  8
MAKE2D$VISIBLE$LINES
 10
415.7930428546218
 20
220.2223967502784
 30
0.0
 11
415.807600306284
 21
220.0522880723919
 31
0.0
  0
LINE
  5
19E
  8
MAKE2D$VISIBLE$LINES
 10
415.807600306284
 20
220.0522880723919
 30
0.0
 11
415.8163415721622
 21
219.8817815564977
 31
0.0
  0
LINE
  5
19F
  8
MAKE2D$VISIBLE$LINES
 10
415.8163415721622
 20
219.8817815564977
 30
0.0
 11
415.8192564603313
 21
219.7110760055682
 31
0.0
  0
LINE
  5
1A0
  8
MAKE2D$VISIBLE$LINES
 10
415.8192564603313
 20
219.7110760055682
 30
0.0
 11
415.8192564603312
 21
217.6111604830469
 31
0.0
  0
LINE
  5
1A1
  8
MAKE2D$VISIBLE$LINES
 10
415.8192564603312
 20
217.6111604830469
 30
0.0
 11
403.3192564603312
 21
217.6111604830471
 31
0.0
  0
LINE
  5
1A2
  8
MAKE2D$VISIBLE$LINES
 10
403.3192564603312
 20
217.6111604830471
 30
0.0
 11
403.3192564603312
 21
214.711160483047
 31
0.0
  0
LINE
  5
1A3
  8
MAKE2D$VISIBLE$LINES
 10
403.3192564603312
 20
214.711160483047
 30
0.0
 11
540.319122454997
 21
214.7111604830473
 31
0.0
  0
LINE
  5
1A4
  8
MAKE2D$VISIBLE$LINES
 10
540.319122454997
 20
214.7111604830473
 30
0.0
 11
540.319122454997
 21
201.4741070225543
 31
0.0
  0
LINE
  5
1A5
  8
MAKE2D$VISIBLE$LINES
 10
540.319122454997
 20
201.4741070225543
 30
0.0
 11
540.3191224549971
 21
176.4741070225546
 31
0.0
  0
LINE
  5
1A6
  8
MAKE2D$VISIBLE$LINES
 10
540.3191224549971
 20
176.4741070225546
 30
0.0
 11
540.319122454997
 21
163.9741070225546
 31
0.0
  0
LINE
  5
1A7
  8
MAKE2D$VISIBLE$LINES
 10
540.319122454997
 20
163.9741070225546
 30
0.0
 11
543.219122454997
 21
163.9741070225546
 31
0.0
  0
LINE
  5
1A8
  8
MAKE2D$VISIBLE$LINES
 10
543.219122454997
 20
163.9741070225546
 30
0.0
 11
543.2191224549969
 21
176.4741070225546
 31
0.0
  0
LINE
  5
1A9
  8
MAKE2D$VISIBLE$LINES
 10
543.2191224549969
 20
176.4741070225546
 30
0.0
 11
545.3190379775184
 21
176.4741070225546
 31
0.0
  0
LINE
  5
1AA
  8
MAKE2D$VISIBLE$LINES
 10
545.3190379775184
 20
176.4741070225546
 30
0.0
 11
545.4897435284479
 21
176.4711921343854
 31
0.0
  0
LINE
  5
1AB
  8
MAKE2D$VISIBLE$LINES
 10
545.4897435284479
 20
176.4711921343854
 30
0.0
 11
545.6602500443416
 21
176.4624508685073
 31
0.0
  0
LINE
  5
1AC
  8
MAKE2D$VISIBLE$LINES
 10
545.6602500443416
 20
176.4624508685073
 30
0.0
 11
545.8303587222285
 21
176.447893416845
 31
0.0
  0
LINE
  5
1AD
  8
MAKE2D$VISIBLE$LINES
 10
545.8303587222285
 20
176.447893416845
 30
0.0
 11
545.9998712229993
 21
176.4275367527362
 31
0.0
  0
LINE
  5
1AE
  8
MAKE2D$VISIBLE$LINES
 10
545.9998712229993
 20
176.4275367527362
 30
0.0
 11
546.1685899026616
 21
176.4014046111405
 31
0.0
  0
LINE
  5
1AF
  8
MAKE2D$VISIBLE$LINES
 10
546.1685899026616
 20
176.4014046111405
 30
0.0
 11
546.3363180427821
 21
176.369527460966
 31
0.0
  0
LINE
  5
1B0
  8
MAKE2D$VISIBLE$LINES
 10
546.3363180427821
 20
176.369527460966
 30
0.0
 11
546.5028600798508
 21
176.3319424695442
 31
0.0
  0
LINE
  5
1B1
  8
MAKE2D$VISIBLE$LINES
 10
546.5028600798508
 20
176.3319424695442
 30
0.0
 11
546.6680218333034
 21
176.2886934592935
 31
0.0
  0
LINE
  5
1B2
  8
MAKE2D$VISIBLE$LINES
 10
546.6680218333034
 20
176.2886934592935
 30
0.0
 11
546.8316107319238
 21
176.2398308566253
 31
0.0
  0
LINE
  5
1B3
  8
MAKE2D$VISIBLE$LINES
 10
546.8316107319238
 20
176.2398308566253
 30
0.0
 11
546.9934360383735
 21
176.1854116331485
 31
0.0
  0
LINE
  5
1B4
  8
MAKE2D$VISIBLE$LINES
 10
546.9934360383735
 20
176.1854116331485
 30
0.0
 11
547.1533090715835
 21
176.1254992392437
 31
0.0
  0
LINE
  5
1B5
  8
MAKE2D$VISIBLE$LINES
 10
547.1533090715835
 20
176.1254992392437
 30
0.0
 11
547.3110434267496
 21
176.0601635300817
 31
0.0
  0
LINE
  5
1B6
  8
MAKE2D$VISIBLE$LINES
 10
547.3110434267496
 20
176.0601635300817
 30
0.0
 11
547.4664551926685
 21
175.9894806841772
 31
0.0
  0
LINE
  5
1B7
  8
MAKE2D$VISIBLE$LINES
 10
547.4664551926685
 20
175.9894806841772
 30
0.0
 11
547.619363166174
 21
175.9135331145664
 31
0.0
  0
LINE
  5
1B8
  8
MAKE2D$VISIBLE$LINES
 10
547.619363166174
 20
175.9135331145664
 30
0.0
 11
547.7695890634085
 21
175.8324093727182
 31
0.0
  0
LINE
  5
1B9
  8
MAKE2D$VISIBLE$LINES
 10
547.7695890634085
 20
175.8324093727182
 30
0.0
 11
547.9169577276957
 21
175.7462040452868
 31
0.0
  0
LINE
  5
1BA
  8
MAKE2D$VISIBLE$LINES
 10
547.9169577276957
 20
175.7462040452868
 30
0.0
 11
548.0612973337649
 21
175.655017643828
 31
0.0
  0
LINE
  5
1BB
  8
MAKE2D$VISIBLE$LINES
 10
548.0612973337649
 20
175.655017643828
 30
0.0
 11
548.2024395880924
 21
175.5589564876069
 31
0.0
  0
LINE
  5
1BC
  8
MAKE2D$VISIBLE$LINES
 10
548.2024395880924
 20
175.5589564876069
 30
0.0
 11
548.3402199251236
 21
175.4581325796341
 31
0.0
  0
LINE
  5
1BD
  8
MAKE2D$VISIBLE$LINES
 10
548.3402199251236
 20
175.4581325796341
 30
0.0
 11
548.4744776991486
 21
175.3526634760766
 31
0.0
  0
LINE
  5
1BE
  8
MAKE2D$VISIBLE$LINES
 10
548.4744776991486
 20
175.3526634760766
 30
0.0
 11
548.6050563716083
 21
175.2426721491912
 31
0.0
  0
LINE
  5
1BF
  8
MAKE2D$VISIBLE$LINES
 10
548.6050563716083
 20
175.2426721491912
 30
0.0
 11
548.7318036936114
 21
175.1282868439452
 31
0.0
  0
LINE
  5
1C0
  8
MAKE2D$VISIBLE$LINES
 10
548.7318036936114
 20
175.1282868439452
 30
0.0
 11
548.854571883451
 21
175.0096409284872
 31
0.0
  0
LINE
  5
1C1
  8
MAKE2D$VISIBLE$LINES
 10
548.854571883451
 20
175.0096409284872
 30
0.0
 11
548.973217798909
 21
174.8868727386476
 31
0.0
  0
LINE
  5
1C2
  8
MAKE2D$VISIBLE$LINES
 10
548.973217798909
 20
174.8868727386476
 30
0.0
 11
549.0876031041549
 21
174.7601254166445
 31
0.0
  0
LINE
  5
1C3
  8
MAKE2D$VISIBLE$LINES
 10
549.0876031041549
 20
174.7601254166445
 30
0.0
 11
549.1975944310403
 21
174.6295467441847
 31
0.0
  0
LINE
  5
1C4
  8
MAKE2D$VISIBLE$LINES
 10
549.1975944310403
 20
174.6295467441847
 30
0.0
 11
549.3030635345979
 21
174.4952889701598
 31
0.0
  0
LINE
  5
1C5
  8
MAKE2D$VISIBLE$LINES
 10
549.3030635345979
 20
174.4952889701598
 30
0.0
 11
549.4038874425704
 21
174.3575086331289
 31
0.0
  0
LINE
  5
1C6
  8
MAKE2D$VISIBLE$LINES
 10
549.4038874425704
 20
174.3575086331289
 30
0.0
 11
549.4999485987918
 21
174.216366378801
 31
0.0
  0
LINE
  5
1C7
  8
MAKE2D$VISIBLE$LINES
 10
549.4999485987918
 20
174.216366378801
 30
0.0
 11
549.5911350002506
 21
174.0720267727319
 31
0.0
  0
LINE
  5
1C8
  8
MAKE2D$VISIBLE$LINES
 10
549.5911350002506
 20
174.0720267727319
 30
0.0
 11
549.6773403276819
 21
173.9246581084447
 31
0.0
  0
LINE
  5
1C9
  8
MAKE2D$VISIBLE$LINES
 10
549.6773403276819
 20
173.9246581084447
 30
0.0
 11
549.7584640695301
 21
173.7744322112102
 31
0.0
  0
LINE
  5
1CA
  8
MAKE2D$VISIBLE$LINES
 10
549.7584640695301
 20
173.7744322112102
 30
0.0
 11
549.834411639141
 21
173.6215242377047
 31
0.0
  0
LINE
  5
1CB
  8
MAKE2D$VISIBLE$LINES
 10
549.834411639141
 20
173.6215242377047
 30
0.0
 11
549.9050944850454
 21
173.4661124717858
 31
0.0
  0
LINE
  5
1CC
  8
MAKE2D$VISIBLE$LINES
 10
549.9050944850454
 20
173.4661124717858
 30
0.0
 11
549.9704301942072
 21
173.3083781166201
 31
0.0
  0
LINE
  5
1CD
  8
MAKE2D$VISIBLE$LINES
 10
549.9704301942072
 20
173.3083781166201
 30
0.0
 11
550.0303425881123
 21
173.1485050834096
 31
0.0
  0
LINE
  5
1CE
  8
MAKE2D$VISIBLE$LINES
 10
550.0303425881123
 20
173.1485050834096
 30
0.0
 11
550.084761811589
 21
172.98667977696
 31
0.0
  0
LINE
  5
1CF
  8
MAKE2D$VISIBLE$LINES
 10
550.084761811589
 20
172.98667977696
 30
0.0
 11
550.1336244142572
 21
172.8230908783395
 31
0.0
  0
LINE
  5
1D0
  8
MAKE2D$VISIBLE$LINES
 10
550.1336244142572
 20
172.8230908783395
 30
0.0
 11
550.1768734245079
 21
172.6579291248869
 31
0.0
  0
LINE
  5
1D1
  8
MAKE2D$VISIBLE$LINES
 10
550.1768734245079
 20
172.6579291248869
 30
0.0
 11
550.2144584159298
 21
172.4913870878177
 31
0.0
  0
LINE
  5
1D2
  8
MAKE2D$VISIBLE$LINES
 10
550.2144584159298
 20
172.4913870878177
 30
0.0
 11
550.2463355661042
 21
172.3236589476978
 31
0.0
  0
LINE
  5
1D3
  8
MAKE2D$VISIBLE$LINES
 10
550.2463355661042
 20
172.3236589476978
 30
0.0
 11
550.2724677076998
 21
172.1549402680359
 31
0.0
  0
LINE
  5
1D4
  8
MAKE2D$VISIBLE$LINES
 10
550.2724677076998
 20
172.1549402680359
 30
0.0
 11
550.2928243718087
 21
171.9854277672648
 31
0.0
  0
LINE
  5
1D5
  8
MAKE2D$VISIBLE$LINES
 10
550.2928243718087
 20
171.9854277672648
 30
0.0
 11
550.3073818234709
 21
171.8153190893782
 31
0.0
  0
LINE
  5
1D6
  8
MAKE2D$VISIBLE$LINES
 10
550.3073818234709
 20
171.8153190893782
 30
0.0
 11
550.316123089349
 21
171.6448125734841
 31
0.0
  0
LINE
  5
1D7
  8
MAKE2D$VISIBLE$LINES
 10
550.316123089349
 20
171.6448125734841
 30
0.0
 11
550.3190379775182
 21
171.4741070225546
 31
0.0
  0
LINE
  5
1D8
  8
MAKE2D$VISIBLE$LINES
 10
550.3190379775182
 20
171.4741070225546
 30
0.0
 11
550.3190379775182
 21
151.4741070225546
 31
0.0
  0
LINE
  5
1D9
  8
MAKE2D$VISIBLE$LINES
 10
550.3190379775182
 20
151.4741070225546
 30
0.0
 11
550.3190379775182
 21
131.4741070225546
 31
0.0
  0
LINE
  5
1DA
  8
MAKE2D$VISIBLE$LINES
 10
550.3190379775182
 20
131.4741070225546
 30
0.0
 11
550.3161230893493
 21
131.303401471625
 31
0.0
  0
LINE
  5
1DB
  8
MAKE2D$VISIBLE$LINES
 10
550.3161230893493
 20
131.303401471625
 30
0.0
 11
550.3073818234711
 21
131.1328949557313
 31
0.0
  0
LINE
  5
1DC
  8
MAKE2D$VISIBLE$LINES
 10
550.3073818234711
 20
131.1328949557313
 30
0.0
 11
550.2928243718088
 21
130.9627862778443
 31
0.0
  0
LINE
  5
1DD
  8
MAKE2D$VISIBLE$LINES
 10
550.2928243718088
 20
130.9627862778443
 30
0.0
 11
550.2724677077001
 21
130.7932737770736
 31
0.0
  0
LINE
  5
1DE
  8
MAKE2D$VISIBLE$LINES
 10
550.2724677077001
 20
130.7932737770736
 30
0.0
 11
550.2463355661043
 21
130.6245550974108
 31
0.0
  0
LINE
  5
1DF
  8
MAKE2D$VISIBLE$LINES
 10
550.2463355661043
 20
130.6245550974108
 30
0.0
 11
550.21445841593
 21
130.4568269572913
 31
0.0
  0
LINE
  5
1E0
  8
MAKE2D$VISIBLE$LINES
 10
550.21445841593
 20
130.4568269572913
 30
0.0
 11
550.1768734245082
 21
130.2902849202225
 31
0.0
  0
LINE
  5
1E1
  8
MAKE2D$VISIBLE$LINES
 10
550.1768734245082
 20
130.2902849202225
 30
0.0
 11
550.1336244142575
 21
130.1251231667695
 31
0.0
  0
LINE
  5
1E2
  8
MAKE2D$VISIBLE$LINES
 10
550.1336244142575
 20
130.1251231667695
 30
0.0
 11
550.0847618115893
 21
129.9615342681491
 31
0.0
  0
LINE
  5
1E3
  8
MAKE2D$VISIBLE$LINES
 10
550.0847618115893
 20
129.9615342681491
 30
0.0
 11
550.0303425881125
 21
129.7997089616993
 31
0.0
  0
LINE
  5
1E4
  8
MAKE2D$VISIBLE$LINES
 10
550.0303425881125
 20
129.7997089616993
 30
0.0
 11
549.9704301942077
 21
129.6398359284893
 31
0.0
  0
LINE
  5
1E5
  8
MAKE2D$VISIBLE$LINES
 10
549.9704301942077
 20
129.6398359284893
 30
0.0
 11
549.9050944850458
 21
129.4821015733232
 31
0.0
  0
LINE
  5
1E6
  8
MAKE2D$VISIBLE$LINES
 10
549.9050944850458
 20
129.4821015733232
 30
0.0
 11
549.8344116391412
 21
129.3266898074043
 31
0.0
  0
LINE
  5
1E7
  8
MAKE2D$VISIBLE$LINES
 10
549.8344116391412
 20
129.3266898074043
 30
0.0
 11
549.7584640695304
 21
129.1737818338987
 31
0.0
  0
LINE
  5
1E8
  8
MAKE2D$VISIBLE$LINES
 10
549.7584640695304
 20
129.1737818338987
 30
0.0
 11
549.6773403276823
 21
129.0235559366643
 31
0.0
  0
LINE
  5
1E9
  8
MAKE2D$VISIBLE$LINES
 10
549.6773403276823
 20
129.0235559366643
 30
0.0
 11
549.5911350002508
 21
128.8761872723771
 31
0.0
  0
LINE
  5
1EA
  8
MAKE2D$VISIBLE$LINES
 10
549.5911350002508
 20
128.8761872723771
 30
0.0
 11
549.4999485987921
 21
128.7318476663079
 31
0.0
  0
LINE
  5
1EB
  8
MAKE2D$VISIBLE$LINES
 10
549.4999485987921
 20
128.7318476663079
 30
0.0
 11
549.4038874425707
 21
128.59070541198
 31
0.0
  0
LINE
  5
1EC
  8
MAKE2D$VISIBLE$LINES
 10
549.4038874425707
 20
128.59070541198
 30
0.0
 11
549.3030635345981
 21
128.4529250749491
 31
0.0
  0
LINE
  5
1ED
  8
MAKE2D$VISIBLE$LINES
 10
549.3030635345981
 20
128.4529250749491
 30
0.0
 11
549.1975944310406
 21
128.3186673009242
 31
0.0
  0
LINE
  5
1EE
  8
MAKE2D$VISIBLE$LINES
 10
549.1975944310406
 20
128.3186673009242
 30
0.0
 11
549.0876031041552
 21
128.1880886284644
 31
0.0
  0
LINE
  5
1EF
  8
MAKE2D$VISIBLE$LINES
 10
549.0876031041552
 20
128.1880886284644
 30
0.0
 11
548.9732177989089
 21
128.0613413064609
 31
0.0
  0
LINE
  5
1F0
  8
MAKE2D$VISIBLE$LINES
 10
548.9732177989089
 20
128.0613413064609
 30
0.0
 11
548.8545718834513
 21
127.9385731166217
 31
0.0
  0
LINE
  5
1F1
  8
MAKE2D$VISIBLE$LINES
 10
548.8545718834513
 20
127.9385731166217
 30
0.0
 11
548.731803693612
 21
127.819927201164
 31
0.0
  0
LINE
  5
1F2
  8
MAKE2D$VISIBLE$LINES
 10
548.731803693612
 20
127.819927201164
 30
0.0
 11
548.6050563716084
 21
127.7055418959177
 31
0.0
  0
LINE
  5
1F3
  8
MAKE2D$VISIBLE$LINES
 10
548.6050563716084
 20
127.7055418959177
 30
0.0
 11
548.4744776991487
 21
127.5955505690323
 31
0.0
  0
LINE
  5
1F4
  8
MAKE2D$VISIBLE$LINES
 10
548.4744776991487
 20
127.5955505690323
 30
0.0
 11
548.3402199251237
 21
127.4900814654748
 31
0.0
  0
LINE
  5
1F5
  8
MAKE2D$VISIBLE$LINES
 10
548.3402199251237
 20
127.4900814654748
 30
0.0
 11
548.2024395880925
 21
127.389257557502
 31
0.0
  0
LINE
  5
1F6
  8
MAKE2D$VISIBLE$LINES
 10
548.2024395880925
 20
127.389257557502
 30
0.0
 11
548.061297333765
 21
127.2931964012809
 31
0.0
  0
LINE
  5
1F7
  8
MAKE2D$VISIBLE$LINES
 10
548.061297333765
 20
127.2931964012809
 30
0.0
 11
547.9169577276958
 21
127.2020099998221
 31
0.0
  0
LINE
  5
1F8
  8
MAKE2D$VISIBLE$LINES
 10
547.9169577276958
 20
127.2020099998221
 30
0.0
 11
547.7695890634086
 21
127.1158046723907
 31
0.0
  0
LINE
  5
1F9
  8
MAKE2D$VISIBLE$LINES
 10
547.7695890634086
 20
127.1158046723907
 30
0.0
 11
547.6193631661741
 21
127.0346809305425
 31
0.0
  0
LINE
  5
1FA
  8
MAKE2D$VISIBLE$LINES
 10
547.6193631661741
 20
127.0346809305425
 30
0.0
 11
547.4664551926691
 21
126.9587333609319
 31
0.0
  0
LINE
  5
1FB
  8
MAKE2D$VISIBLE$LINES
 10
547.4664551926691
 20
126.9587333609319
 30
0.0
 11
547.3110434267492
 21
126.888050515027
 31
0.0
  0
LINE
  5
1FC
  8
MAKE2D$VISIBLE$LINES
 10
547.3110434267492
 20
126.888050515027
 30
0.0
 11
547.1533090715835
 21
126.8227148058653
 31
0.0
  0
LINE
  5
1FD
  8
MAKE2D$VISIBLE$LINES
 10
547.1533090715835
 20
126.8227148058653
 30
0.0
 11
546.9934360383735
 21
126.7628024119605
 31
0.0
  0
LINE
  5
1FE
  8
MAKE2D$VISIBLE$LINES
 10
546.9934360383735
 20
126.7628024119605
 30
0.0
 11
546.8316107319238
 21
126.7083831884837
 31
0.0
  0
LINE
  5
1FF
  8
MAKE2D$VISIBLE$LINES
 10
546.8316107319238
 20
126.7083831884837
 30
0.0
 11
546.6680218333033
 21
126.6595205858155
 31
0.0
  0
LINE
  5
200
  8
MAKE2D$VISIBLE$LINES
 10
546.6680218333033
 20
126.6595205858155
 30
0.0
 11
546.5028600798503
 21
126.6162715755648
 31
0.0
  0
LINE
  5
201
  8
MAKE2D$VISIBLE$LINES
 10
546.5028600798503
 20
126.6162715755648
 30
0.0
 11
546.3363180427815
 21
126.5786865841429
 31
0.0
  0
LINE
  5
202
  8
MAKE2D$VISIBLE$LINES
 10
546.3363180427815
 20
126.5786865841429
 30
0.0
 11
546.1685899026616
 21
126.5468094339685
 31
0.0
  0
LINE
  5
203
  8
MAKE2D$VISIBLE$LINES
 10
546.1685899026616
 20
126.5468094339685
 30
0.0
 11
545.9998712229997
 21
126.5206772923729
 31
0.0
  0
LINE
  5
204
  8
MAKE2D$VISIBLE$LINES
 10
545.9998712229997
 20
126.5206772923729
 30
0.0
 11
545.8303587222285
 21
126.5003206282641
 31
0.0
  0
LINE
  5
205
  8
MAKE2D$VISIBLE$LINES
 10
545.8303587222285
 20
126.5003206282641
 30
0.0
 11
545.6602500443415
 21
126.4857631766019
 31
0.0
  0
LINE
  5
206
  8
MAKE2D$VISIBLE$LINES
 10
545.6602500443415
 20
126.4857631766019
 30
0.0
 11
545.4897435284483
 21
126.4770219107237
 31
0.0
  0
LINE
  5
207
  8
MAKE2D$VISIBLE$LINES
 10
545.4897435284483
 20
126.4770219107237
 30
0.0
 11
545.3190379775183
 21
126.4741070225546
 31
0.0
  0
LINE
  5
208
  8
MAKE2D$VISIBLE$LINES
 10
545.3190379775183
 20
126.4741070225546
 30
0.0
 11
543.2191224549969
 21
126.4741070225546
 31
0.0
  0
LINE
  5
209
  8
MAKE2D$VISIBLE$LINES
 10
543.2191224549969
 20
126.4741070225546
 30
0.0
 11
543.219122454997
 21
138.9741070225546
 31
0.0
  0
LINE
  5
20A
  8
MAKE2D$VISIBLE$LINES
 10
543.219122454997
 20
138.9741070225546
 30
0.0
 11
540.319122454997
 21
138.9741070225546
 31
0.0
  0
LINE
  5
20B
  8
MAKE2D$VISIBLE$LINES
 10
540.319122454997
 20
138.9741070225546
 30
0.0
 11
540.3191224549972
 21
126.4741070225546
 31
0.0
  0
LINE
  5
20C
  8
MAKE2D$VISIBLE$LINES
 10
540.3191224549972
 20
126.4741070225546
 30
0.0
 11
540.3191224549967
 21
75.00000010157032
 31
0.0
  0
LINE
  5
20D
  8
MAKE2D$VISIBLE$LINES
 10
540.3191224549967
 20
75.00000010157032
 30
0.0
 11
540.319122454997
 21
50.00000010157055
 31
0.0
  0
LINE
  5
20E
  8
MAKE2D$VISIBLE$LINES
 10
540.319122454997
 20
50.00000010157055
 30
0.0
 11
540.3191224549969
 21
37.50000010157055
 31
0.0
  0
LINE
  5
20F
  8
MAKE2D$VISIBLE$LINES
 10
540.3191224549969
 20
37.50000010157055
 30
0.0
 11
543.2191224549969
 21
37.50000010157055
 31
0.0
  0
LINE
  5
210
  8
MAKE2D$VISIBLE$LINES
 10
543.2191224549969
 20
37.50000010157055
 30
0.0
 11
543.2191224549971
 21
50.00000010157055
 31
0.0
  0
LINE
  5
211
  8
MAKE2D$VISIBLE$LINES
 10
543.2191224549971
 20
50.00000010157055
 30
0.0
 11
545.3190379775183
 21
50.00000010157078
 31
0.0
  0
LINE
  5
212
  8
MAKE2D$VISIBLE$LINES
 10
545.3190379775183
 20
50.00000010157078
 30
0.0
 11
545.4897435284478
 21
49.99708521340165
 31
0.0
  0
LINE
  5
213
  8
MAKE2D$VISIBLE$LINES
 10
545.4897435284478
 20
49.99708521340165
 30
0.0
 11
545.660250044342
 21
49.98834394752342
 31
0.0
  0
LINE
  5
214
  8
MAKE2D$VISIBLE$LINES
 10
545.660250044342
 20
49.98834394752342
 30
0.0
 11
545.8303587222284
 21
49.97378649586121
 31
0.0
  0
LINE
  5
215
  8
MAKE2D$VISIBLE$LINES
 10
545.8303587222284
 20
49.97378649586121
 30
0.0
 11
545.9998712229992
 21
49.9534298317524
 31
0.0
  0
LINE
  5
216
  8
MAKE2D$VISIBLE$LINES
 10
545.9998712229992
 20
49.9534298317524
 30
0.0
 11
546.1685899026614
 21
49.92729769015671
 31
0.0
  0
LINE
  5
217
  8
MAKE2D$VISIBLE$LINES
 10
546.1685899026614
 20
49.92729769015671
 30
0.0
 11
546.3363180427815
 21
49.89542053998228
 31
0.0
  0
LINE
  5
218
  8
MAKE2D$VISIBLE$LINES
 10
546.3363180427815
 20
49.89542053998228
 30
0.0
 11
546.5028600798503
 21
49.85783554856044
 31
0.0
  0
LINE
  5
219
  8
MAKE2D$VISIBLE$LINES
 10
546.5028600798503
 20
49.85783554856044
 30
0.0
 11
546.6680218333032
 21
49.81458653830967
 31
0.0
  0
LINE
  5
21A
  8
MAKE2D$VISIBLE$LINES
 10
546.6680218333032
 20
49.81458653830967
 30
0.0
 11
546.8316107319237
 21
49.76572393564143
 31
0.0
  0
LINE
  5
21B
  8
MAKE2D$VISIBLE$LINES
 10
546.8316107319237
 20
49.76572393564143
 30
0.0
 11
546.9934360383729
 21
49.7113047121648
 31
0.0
  0
LINE
  5
21C
  8
MAKE2D$VISIBLE$LINES
 10
546.9934360383729
 20
49.7113047121648
 30
0.0
 11
547.1533090715834
 21
49.65139231825981
 31
0.0
  0
LINE
  5
21D
  8
MAKE2D$VISIBLE$LINES
 10
547.1533090715834
 20
49.65139231825981
 30
0.0
 11
547.3110434267495
 21
49.58605660909783
 31
0.0
  0
LINE
  5
21E
  8
MAKE2D$VISIBLE$LINES
 10
547.3110434267495
 20
49.58605660909783
 30
0.0
 11
547.4664551926684
 21
49.51537376319334
 31
0.0
  0
LINE
  5
21F
  8
MAKE2D$VISIBLE$LINES
 10
547.4664551926684
 20
49.51537376319334
 30
0.0
 11
547.6193631661739
 21
49.43942619358248
 31
0.0
  0
LINE
  5
220
  8
MAKE2D$VISIBLE$LINES
 10
547.6193631661739
 20
49.43942619358248
 30
0.0
 11
547.7695890634084
 21
49.35830245173427
 31
0.0
  0
LINE
  5
221
  8
MAKE2D$VISIBLE$LINES
 10
547.7695890634084
 20
49.35830245173427
 30
0.0
 11
547.9169577276956
 21
49.27209712430287
 31
0.0
  0
LINE
  5
222
  8
MAKE2D$VISIBLE$LINES
 10
547.9169577276956
 20
49.27209712430287
 30
0.0
 11
548.0612973337647
 21
49.18091072284412
 31
0.0
  0
LINE
  5
223
  8
MAKE2D$VISIBLE$LINES
 10
548.0612973337647
 20
49.18091072284412
 30
0.0
 11
548.2024395880926
 21
49.08484956662269
 31
0.0
  0
LINE
  5
224
  8
MAKE2D$VISIBLE$LINES
 10
548.2024395880926
 20
49.08484956662269
 30
0.0
 11
548.3402199251238
 21
48.9840256586499
 31
0.0
  0
LINE
  5
225
  8
MAKE2D$VISIBLE$LINES
 10
548.3402199251238
 20
48.9840256586499
 30
0.0
 11
548.4744776991483
 21
48.87855655509264
 31
0.0
  0
LINE
  5
226
  8
MAKE2D$VISIBLE$LINES
 10
548.4744776991483
 20
48.87855655509264
 30
0.0
 11
548.605056371608
 21
48.76856522820724
 31
0.0
  0
LINE
  5
227
  8
MAKE2D$VISIBLE$LINES
 10
548.605056371608
 20
48.76856522820724
 30
0.0
 11
548.7318036936113
 21
48.65417992296125
 31
0.0
  0
LINE
  5
228
  8
MAKE2D$VISIBLE$LINES
 10
548.7318036936113
 20
48.65417992296125
 30
0.0
 11
548.8545718834508
 21
48.53553400750326
 31
0.0
  0
LINE
  5
229
  8
MAKE2D$VISIBLE$LINES
 10
548.8545718834508
 20
48.53553400750326
 30
0.0
 11
548.9732177989088
 21
48.41276581766367
 31
0.0
  0
LINE
  5
22A
  8
MAKE2D$VISIBLE$LINES
 10
548.9732177989088
 20
48.41276581766367
 30
0.0
 11
549.0876031041548
 21
48.28601849566048
 31
0.0
  0
LINE
  5
22B
  8
MAKE2D$VISIBLE$LINES
 10
549.0876031041548
 20
48.28601849566048
 30
0.0
 11
549.1975944310402
 21
48.15543982320077
 31
0.0
  0
LINE
  5
22C
  8
MAKE2D$VISIBLE$LINES
 10
549.1975944310402
 20
48.15543982320077
 30
0.0
 11
549.3030635345976
 21
48.02118204917584
 31
0.0
  0
LINE
  5
22D
  8
MAKE2D$VISIBLE$LINES
 10
549.3030635345976
 20
48.02118204917584
 30
0.0
 11
549.4038874425702
 21
47.88340171214494
 31
0.0
  0
LINE
  5
22E
  8
MAKE2D$VISIBLE$LINES
 10
549.4038874425702
 20
47.88340171214494
 30
0.0
 11
549.4999485987917
 21
47.74225945781708
 31
0.0
  0
LINE
  5
22F
  8
MAKE2D$VISIBLE$LINES
 10
549.4999485987917
 20
47.74225945781708
 30
0.0
 11
549.5911350002507
 21
47.59791985174751
 31
0.0
  0
LINE
  5
230
  8
MAKE2D$VISIBLE$LINES
 10
549.5911350002507
 20
47.59791985174751
 30
0.0
 11
549.6773403276818
 21
47.45055118746068
 31
0.0
  0
LINE
  5
231
  8
MAKE2D$VISIBLE$LINES
 10
549.6773403276818
 20
47.45055118746068
 30
0.0
 11
549.7584640695301
 21
47.30032529022622
 31
0.0
  0
LINE
  5
232
  8
MAKE2D$VISIBLE$LINES
 10
549.7584640695301
 20
47.30032529022622
 30
0.0
 11
549.8344116391409
 21
47.14741731672073
 31
0.0
  0
LINE
  5
233
  8
MAKE2D$VISIBLE$LINES
 10
549.8344116391409
 20
47.14741731672073
 30
0.0
 11
549.9050944850453
 21
46.9920055508018
 31
0.0
  0
LINE
  5
234
  8
MAKE2D$VISIBLE$LINES
 10
549.9050944850453
 20
46.9920055508018
 30
0.0
 11
549.9704301942071
 21
46.83427119563615
 31
0.0
  0
LINE
  5
235
  8
MAKE2D$VISIBLE$LINES
 10
549.9704301942071
 20
46.83427119563615
 30
0.0
 11
550.0303425881121
 21
46.67439816242565
 31
0.0
  0
LINE
  5
236
  8
MAKE2D$VISIBLE$LINES
 10
550.0303425881121
 20
46.67439816242565
 30
0.0
 11
550.0847618115889
 21
46.51257285597595
 31
0.0
  0
LINE
  5
237
  8
MAKE2D$VISIBLE$LINES
 10
550.0847618115889
 20
46.51257285597595
 30
0.0
 11
550.1336244142572
 21
46.34898395735555
 31
0.0
  0
LINE
  5
238
  8
MAKE2D$VISIBLE$LINES
 10
550.1336244142572
 20
46.34898395735555
 30
0.0
 11
550.1768734245078
 21
46.18382220390296
 31
0.0
  0
LINE
  5
239
  8
MAKE2D$VISIBLE$LINES
 10
550.1768734245078
 20
46.18382220390296
 30
0.0
 11
550.2144584159297
 21
46.01728016683374
 31
0.0
  0
LINE
  5
23A
  8
MAKE2D$VISIBLE$LINES
 10
550.2144584159297
 20
46.01728016683374
 30
0.0
 11
550.2463355661041
 21
45.84955202671375
 31
0.0
  0
LINE
  5
23B
  8
MAKE2D$VISIBLE$LINES
 10
550.2463355661041
 20
45.84955202671375
 30
0.0
 11
550.2724677076997
 21
45.68083334705194
 31
0.0
  0
LINE
  5
23C
  8
MAKE2D$VISIBLE$LINES
 10
550.2724677076997
 20
45.68083334705194
 30
0.0
 11
550.2928243718086
 21
45.51132084628073
 31
0.0
  0
LINE
  5
23D
  8
MAKE2D$VISIBLE$LINES
 10
550.2928243718086
 20
45.51132084628073
 30
0.0
 11
550.3073818234708
 21
45.34121216839421
 31
0.0
  0
LINE
  5
23E
  8
MAKE2D$VISIBLE$LINES
 10
550.3073818234708
 20
45.34121216839421
 30
0.0
 11
550.3161230893489
 21
45.17070565250009
 31
0.0
  0
LINE
  5
23F
  8
MAKE2D$VISIBLE$LINES
 10
550.3161230893489
 20
45.17070565250009
 30
0.0
 11
550.3190379775181
 21
45.00000010157055
 31
0.0
  0
LINE
  5
240
  8
MAKE2D$VISIBLE$LINES
 10
550.3190379775181
 20
45.00000010157055
 30
0.0
 11
550.3190379775181
 21
25.00000010157055
 31
0.0
  0
LINE
  5
241
  8
MAKE2D$VISIBLE$LINES
 10
550.3190379775181
 20
25.00000010157055
 30
0.0
 11
550.3190379775177
 21
5.000000101570553
 31
0.0
  0
LINE
  5
242
  8
MAKE2D$VISIBLE$LINES
 10
550.3190379775177
 20
5.000000101570553
 30
0.0
 11
550.3161230893486
 21
4.829294550641015
 31
0.0
  0
LINE
  5
243
  8
MAKE2D$VISIBLE$LINES
 10
550.3161230893486
 20
4.829294550641015
 30
0.0
 11
550.3073818234703
 21
4.658788034747347
 31
0.0
  0
LINE
  5
244
  8
MAKE2D$VISIBLE$LINES
 10
550.3073818234703
 20
4.658788034747347
 30
0.0
 11
550.2928243718081
 21
4.488679356860832
 31
0.0
  0
LINE
  5
245
  8
MAKE2D$VISIBLE$LINES
 10
550.2928243718081
 20
4.488679356860832
 30
0.0
 11
550.2724677076993
 21
4.31916685608962
 31
0.0
  0
LINE
  5
246
  8
MAKE2D$VISIBLE$LINES
 10
550.2724677076993
 20
4.31916685608962
 30
0.0
 11
550.2463355661035
 21
4.15044817642737
 31
0.0
  0
LINE
  5
247
  8
MAKE2D$VISIBLE$LINES
 10
550.2463355661035
 20
4.15044817642737
 30
0.0
 11
550.2144584159291
 21
3.982720036307386
 31
0.0
  0
LINE
  5
248
  8
MAKE2D$VISIBLE$LINES
 10
550.2144584159291
 20
3.982720036307386
 30
0.0
 11
550.1768734245073
 21
3.816177999238618
 31
0.0
  0
LINE
  5
249
  8
MAKE2D$VISIBLE$LINES
 10
550.1768734245073
 20
3.816177999238618
 30
0.0
 11
550.1336244142565
 21
3.651016245785585
 31
0.0
  0
LINE
  5
24A
  8
MAKE2D$VISIBLE$LINES
 10
550.1336244142565
 20
3.651016245785585
 30
0.0
 11
550.0847618115885
 21
3.487427347165617
 31
0.0
  0
LINE
  5
24B
  8
MAKE2D$VISIBLE$LINES
 10
550.0847618115885
 20
3.487427347165617
 30
0.0
 11
550.0303425881117
 21
3.325602040715921
 31
0.0
  0
LINE
  5
24C
  8
MAKE2D$VISIBLE$LINES
 10
550.0303425881117
 20
3.325602040715921
 30
0.0
 11
549.9704301942069
 21
3.165729007505852
 31
0.0
  0
LINE
  5
24D
  8
MAKE2D$VISIBLE$LINES
 10
549.9704301942069
 20
3.165729007505852
 30
0.0
 11
549.905094485045
 21
3.007994652339784
 31
0.0
  0
LINE
  5
24E
  8
MAKE2D$VISIBLE$LINES
 10
549.905094485045
 20
3.007994652339784
 30
0.0
 11
549.8344116391405
 21
2.852582886420854
 31
0.0
  0
LINE
  5
24F
  8
MAKE2D$VISIBLE$LINES
 10
549.8344116391405
 20
2.852582886420854
 30
0.0
 11
549.7584640695296
 21
2.699674912915361
 31
0.0
  0
LINE
  5
250
  8
MAKE2D$VISIBLE$LINES
 10
549.7584640695296
 20
2.699674912915361
 30
0.0
 11
549.6773403276817
 21
2.549449015681294
 31
0.0
  0
LINE
  5
251
  8
MAKE2D$VISIBLE$LINES
 10
549.6773403276817
 20
2.549449015681294
 30
0.0
 11
549.5911350002502
 21
2.402080351394073
 31
0.0
  0
LINE
  5
252
  8
MAKE2D$VISIBLE$LINES
 10
549.5911350002502
 20
2.402080351394073
 30
0.0
 11
549.4999485987913
 21
2.257740745324511
 31
0.0
  0
LINE
  5
253
  8
MAKE2D$VISIBLE$LINES
 10
549.4999485987913
 20
2.257740745324511
 30
0.0
 11
549.40388744257
 21
2.116598490996639
 31
0.0
  0
LINE
  5
254
  8
MAKE2D$VISIBLE$LINES
 10
549.40388744257
 20
2.116598490996639
 30
0.0
 11
549.3030635345974
 21
1.978818153965739
 31
0.0
  0
LINE
  5
255
  8
MAKE2D$VISIBLE$LINES
 10
549.3030635345974
 20
1.978818153965739
 30
0.0
 11
549.1975944310402
 21
1.844560379941172
 31
0.0
  0
LINE
  5
256
  8
MAKE2D$VISIBLE$LINES
 10
549.1975944310402
 20
1.844560379941172
 30
0.0
 11
549.0876031041548
 21
1.71398170748144
 31
0.0
  0
LINE
  5
257
  8
MAKE2D$VISIBLE$LINES
 10
549.0876031041548
 20
1.71398170748144
 30
0.0
 11
548.9732177989085
 21
1.587234385477906
 31
0.0
  0
LINE
  5
258
  8
MAKE2D$VISIBLE$LINES
 10
548.9732177989085
 20
1.587234385477906
 30
0.0
 11
548.8545718834508
 21
1.46446619563864
 31
0.0
  0
LINE
  5
259
  8
MAKE2D$VISIBLE$LINES
 10
548.8545718834508
 20
1.46446619563864
 30
0.0
 11
548.7318036936117
 21
1.345820280180942
 31
0.0
  0
LINE
  5
25A
  8
MAKE2D$VISIBLE$LINES
 10
548.7318036936117
 20
1.345820280180942
 30
0.0
 11
548.6050563716082
 21
1.231434974934627
 31
0.0
  0
LINE
  5
25B
  8
MAKE2D$VISIBLE$LINES
 10
548.6050563716082
 20
1.231434974934627
 30
0.0
 11
548.4744776991485
 21
1.12144364804921
 31
0.0
  0
LINE
  5
25C
  8
MAKE2D$VISIBLE$LINES
 10
548.4744776991485
 20
1.12144364804921
 30
0.0
 11
548.340219925124
 21
1.015974544491945
 31
0.0
  0
LINE
  5
25D
  8
MAKE2D$VISIBLE$LINES
 10
548.340219925124
 20
1.015974544491945
 30
0.0
 11
548.2024395880926
 21
0.915150636519136
 31
0.0
  0
LINE
  5
25E
  8
MAKE2D$VISIBLE$LINES
 10
548.2024395880926
 20
0.915150636519136
 30
0.0
 11
548.0612973337652
 21
0.8190894802979267
 31
0.0
  0
LINE
  5
25F
  8
MAKE2D$VISIBLE$LINES
 10
548.0612973337652
 20
0.8190894802979267
 30
0.0
 11
547.9169577276956
 21
0.7279030788389181
 31
0.0
  0
LINE
  5
260
  8
MAKE2D$VISIBLE$LINES
 10
547.9169577276956
 20
0.7279030788389181
 30
0.0
 11
547.7695890634088
 21
0.6416977514077159
 31
0.0
  0
LINE
  5
261
  8
MAKE2D$VISIBLE$LINES
 10
547.7695890634088
 20
0.6416977514077159
 30
0.0
 11
547.6193631661745
 21
0.5605740095594782
 31
0.0
  0
LINE
  5
262
  8
MAKE2D$VISIBLE$LINES
 10
547.6193631661745
 20
0.5605740095594782
 30
0.0
 11
547.4664551926694
 21
0.4846264399487761
 31
0.0
  0
LINE
  5
263
  8
MAKE2D$VISIBLE$LINES
 10
547.4664551926694
 20
0.4846264399487761
 30
0.0
 11
547.3110434267501
 21
0.4139435940440589
 31
0.0
  0
LINE
  5
264
  8
MAKE2D$VISIBLE$LINES
 10
547.3110434267501
 20
0.4139435940440589
 30
0.0
 11
547.1533090715841
 21
0.3486078848820507
 31
0.0
  0
LINE
  5
265
  8
MAKE2D$VISIBLE$LINES
 10
547.1533090715841
 20
0.3486078848820507
 30
0.0
 11
546.9934360383736
 21
0.2886954909770146
 31
0.0
  0
LINE
  5
266
  8
MAKE2D$VISIBLE$LINES
 10
546.9934360383736
 20
0.2886954909770146
 30
0.0
 11
546.8316107319242
 21
0.2342762675003604
 31
0.0
  0
LINE
  5
267
  8
MAKE2D$VISIBLE$LINES
 10
546.8316107319242
 20
0.2342762675003604
 30
0.0
 11
546.6680218333039
 21
0.1854136648320714
 31
0.0
  0
LINE
  5
268
  8
MAKE2D$VISIBLE$LINES
 10
546.6680218333039
 20
0.1854136648320714
 30
0.0
 11
546.5028600798513
 21
0.1421646545813814
 31
0.0
  0
LINE
  5
269
  8
MAKE2D$VISIBLE$LINES
 10
546.5028600798513
 20
0.1421646545813814
 30
0.0
 11
546.3363180427822
 21
0.1045796631593808
 31
0.0
  0
LINE
  5
26A
  8
MAKE2D$VISIBLE$LINES
 10
546.3363180427822
 20
0.1045796631593808
 30
0.0
 11
546.1685899026626
 21
0.0727025129850043
 31
0.0
  0
LINE
  5
26B
  8
MAKE2D$VISIBLE$LINES
 10
546.1685899026626
 20
0.0727025129850043
 30
0.0
 11
545.9998712230008
 21
0.0465703713893074
 31
0.0
  0
LINE
  5
26C
  8
MAKE2D$VISIBLE$LINES
 10
545.9998712230008
 20
0.0465703713893074
 30
0.0
 11
545.8303587222296
 21
0.0262137072803908
 31
0.0
  0
LINE
  5
26D
  8
MAKE2D$VISIBLE$LINES
 10
545.8303587222296
 20
0.0262137072803908
 30
0.0
 11
545.6602500443427
 21
0.0116562556180823
 31
0.0
  0
LINE
  5
26E
  8
MAKE2D$VISIBLE$LINES
 10
545.6602500443427
 20
0.0116562556180823
 30
0.0
 11
545.4897435284494
 21
0.0029149897398465
 31
0.0
  0
LINE
  5
26F
  8
MAKE2D$VISIBLE$LINES
 10
545.4897435284494
 20
0.0029149897398465
 30
0.0
 11
545.3190379775194
 21
0.0000001015706346
 31
0.0
  0
LINE
  5
270
  8
MAKE2D$VISIBLE$LINES
 10
545.3190379775194
 20
0.0000001015706346
 30
0.0
 11
543.2191224549968
 21
0.0000001015705529
 31
0.0
  0
LINE
  5
271
  8
MAKE2D$VISIBLE$LINES
 10
543.2191224549968
 20
0.0000001015705529
 30
0.0
 11
543.2191224549969
 21
12.50000010157055
 31
0.0
  0
LINE
  5
272
  8
MAKE2D$VISIBLE$LINES
 10
543.2191224549969
 20
12.50000010157055
 30
0.0
 11
540.3191224549969
 21
12.50000010157055
 31
0.0
  0
LINE
  5
273
  8
MAKE2D$VISIBLE$LINES
 10
540.3191224549969
 20
12.50000010157055
 30
0.0
 11
540.3191224549969
 21
5.990215578403426
 31
0.0
  0
LINE
  5
274
  8
MAKE2D$VISIBLE$LINES
 10
540.3191224549969
 20
5.990215578403426
 30
0.0
 11
540.3185246084951
 21
5.955641952864389
 31
0.0
  0
LINE
  5
275
  8
MAKE2D$VISIBLE$LINES
 10
540.3185246084951
 20
5.955641952864389
 30
0.0
 11
540.316731783831
 21
5.92110966676751
 31
0.0
  0
LINE
  5
276
  8
MAKE2D$VISIBLE$LINES
 10
540.316731783831
 20
5.92110966676751
 30
0.0
 11
540.3137461246723
 21
5.886660010125666
 31
0.0
  0
LINE
  5
277
  8
MAKE2D$VISIBLE$LINES
 10
540.3137461246723
 20
5.886660010125666
 30
0.0
 11
540.3095712009507
 21
5.852334174151817
 31
0.0
  0
LINE
  5
278
  8
MAKE2D$VISIBLE$LINES
 10
540.3095712009507
 20
5.852334174151817
 30
0.0
 11
540.3042120045934
 21
5.818173202008331
 31
0.0
  0
LINE
  5
279
  8
MAKE2D$VISIBLE$LINES
 10
540.3042120045934
 20
5.818173202008331
 30
0.0
 11
540.2976749435541
 21
5.784217939731475
 31
0.0
  0
LINE
  5
27A
  8
MAKE2D$VISIBLE$LINES
 10
540.2976749435541
 20
5.784217939731475
 30
0.0
 11
540.2899678341506
 21
5.750508987388996
 31
0.0
  0
LINE
  5
27B
  8
MAKE2D$VISIBLE$LINES
 10
540.2899678341506
 20
5.750508987388996
 30
0.0
 11
540.2810998917201
 21
5.717086650541136
 31
0.0
  0
LINE
  5
27C
  8
MAKE2D$VISIBLE$LINES
 10
540.2810998917201
 20
5.717086650541136
 30
0.0
 11
540.271081719599
 21
5.683990892040458
 31
0.0
  0
LINE
  5
27D
  8
MAKE2D$VISIBLE$LINES
 10
540.271081719599
 20
5.683990892040458
 30
0.0
 11
540.2599252964458
 21
5.651261284255156
 31
0.0
  0
LINE
  5
27E
  8
MAKE2D$VISIBLE$LINES
 10
540.2599252964458
 20
5.651261284255156
 30
0.0
 11
540.2476439619174
 21
5.618936961747824
 31
0.0
  0
LINE
  5
27F
  8
MAKE2D$VISIBLE$LINES
 10
540.2476439619174
 20
5.618936961747824
 30
0.0
 11
540.2342524007198
 21
5.587056574484306
 31
0.0
  0
LINE
  5
280
  8
MAKE2D$VISIBLE$LINES
 10
540.2342524007198
 20
5.587056574484306
 30
0.0
 11
540.219766625049
 21
5.555658241621436
 31
0.0
  0
LINE
  5
281
  8
MAKE2D$VISIBLE$LINES
 10
540.219766625049
 20
5.555658241621436
 30
0.0
 11
540.2042039554455
 21
5.524779505925712
 31
0.0
  0
LINE
  5
282
  8
MAKE2D$VISIBLE$LINES
 10
540.2042039554455
 20
5.524779505925712
 30
0.0
 11
540.1875830000846
 21
5.494457288885358
 31
0.0
  0
LINE
  5
283
  8
MAKE2D$VISIBLE$LINES
 10
540.1875830000846
 20
5.494457288885358
 30
0.0
 11
540.1699236325261
 21
5.464727846563136
 31
0.0
  0
LINE
  5
284
  8
MAKE2D$VISIBLE$LINES
 10
540.1699236325261
 20
5.464727846563136
 30
0.0
 11
540.1512469679523
 21
5.435626726244844
 31
0.0
  0
LINE
  5
285
  8
MAKE2D$VISIBLE$LINES
 10
540.1512469679523
 20
5.435626726244844
 30
0.0
 11
540.1315753379206
 21
5.407188723937204
 31
0.0
  0
LINE
  5
286
  8
MAKE2D$VISIBLE$LINES
 10
540.1315753379206
 20
5.407188723937204
 30
0.0
 11
540.1109322636613
 21
5.379447842760217
 31
0.0
  0
LINE
  5
287
  8
MAKE2D$VISIBLE$LINES
 10
540.1109322636613
 20
5.379447842760217
 30
0.0
 11
540.0893424279536
 21
5.352437252291413
 31
0.0
  0
LINE
  5
288
  8
MAKE2D$VISIBLE$LINES
 10
540.0893424279536
 20
5.352437252291413
 30
0.0
 11
540.0668316456134
 21
5.32618924890483
 31
0.0
  0
LINE
  5
289
  8
MAKE2D$VISIBLE$LINES
 10
540.0668316456134
 20
5.32618924890483
 30
0.0
 11
540.043426832625
 21
5.300735217154145
 31
0.0
  0
LINE
  5
28A
  8
MAKE2D$VISIBLE$LINES
 10
540.043426832625
 20
5.300735217154145
 30
0.0
 11
540.0191559739604
 21
5.276105592247694
 31
0.0
  0
LINE
  5
28B
  8
MAKE2D$VISIBLE$LINES
 10
540.0191559739604
 20
5.276105592247694
 30
0.0
 11
539.9940480901147
 21
5.252329823655007
 31
0.0
  0
LINE
  5
28C
  8
MAKE2D$VISIBLE$LINES
 10
539.9940480901147
 20
5.252329823655007
 30
0.0
 11
539.9681332024098
 21
5.229436339897162
 31
0.0
  0
LINE
  5
28D
  8
MAKE2D$VISIBLE$LINES
 10
539.9681332024098
 20
5.229436339897162
 30
0.0
 11
539.9414422970949
 21
5.207452514551589
 31
0.0
  0
LINE
  5
28E
  8
MAKE2D$VISIBLE$LINES
 10
539.9414422970949
 20
5.207452514551589
 30
0.0
 11
539.9140072882986
 21
5.186404633524476
 31
0.0
  0
LINE
  5
28F
  8
MAKE2D$VISIBLE$LINES
 10
539.9140072882986
 20
5.186404633524476
 30
0.0
 11
539.8858609798697
 21
5.166317863620458
 31
0.0
  0
LINE
  5
290
  8
MAKE2D$VISIBLE$LINES
 10
539.8858609798697
 20
5.166317863620458
 30
0.0
 11
539.8570370261519
 21
5.147216222449486
 31
0.0
  0
LINE
  5
291
  8
MAKE2D$VISIBLE$LINES
 10
539.8570370261519
 20
5.147216222449486
 30
0.0
 11
539.8275698917446
 21
5.129122549710027
 31
0.0
  0
LINE
  5
292
  8
MAKE2D$VISIBLE$LINES
 10
539.8275698917446
 20
5.129122549710027
 30
0.0
 11
539.7974948102952
 21
5.112058479880677
 31
0.0
  0
LINE
  5
293
  8
MAKE2D$VISIBLE$LINES
 10
539.7974948102952
 20
5.112058479880677
 30
0.0
 11
539.7668477423668
 21
5.09604441634944
 31
0.0
  0
LINE
  5
294
  8
MAKE2D$VISIBLE$LINES
 10
539.7668477423668
 20
5.09604441634944
 30
0.0
 11
539.7356653324455
 21
5.081099507020691
 31
0.0
  0
LINE
  5
295
  8
MAKE2D$VISIBLE$LINES
 10
539.7356653324455
 20
5.081099507020691
 30
0.0
 11
539.7039848651194
 21
5.067241621417556
 31
0.0
  0
LINE
  5
296
  8
MAKE2D$VISIBLE$LINES
 10
539.7039848651194
 20
5.067241621417556
 30
0.0
 11
539.6718442205032
 21
5.054487329317415
 31
0.0
  0
LINE
  5
297
  8
MAKE2D$VISIBLE$LINES
 10
539.6718442205032
 20
5.054487329317415
 30
0.0
 11
539.6392818289395
 21
5.042851880937573
 31
0.0
  0
LINE
  5
298
  8
MAKE2D$VISIBLE$LINES
 10
539.6392818289395
 20
5.042851880937573
 30
0.0
 11
539.6063366250519
 21
5.032349188702293
 31
0.0
  0
LINE
  5
299
  8
MAKE2D$VISIBLE$LINES
 10
539.6063366250519
 20
5.032349188702293
 30
0.0
 11
539.5730480011906
 21
5.022991810607356
 31
0.0
  0
LINE
  5
29A
  8
MAKE2D$VISIBLE$LINES
 10
539.5730480011906
 20
5.022991810607356
 30
0.0
 11
539.5394557603314
 21
5.01479093520448
 31
0.0
  0
LINE
  5
29B
  8
MAKE2D$VISIBLE$LINES
 10
539.5394557603314
 20
5.01479093520448
 30
0.0
 11
539.5056000684796
 21
5.007756368222577
 31
0.0
  0
LINE
  5
29C
  8
MAKE2D$VISIBLE$LINES
 10
539.5056000684796
 20
5.007756368222577
 30
0.0
 11
539.471521406651
 21
5.001896520844537
 31
0.0
  0
LINE
  5
29D
  8
MAKE2D$VISIBLE$LINES
 10
539.471521406651
 20
5.001896520844537
 30
0.0
 11
539.4372605224613
 21
4.997218399648562
 31
0.0
  0
LINE
  5
29E
  8
MAKE2D$VISIBLE$LINES
 10
539.4372605224613
 20
4.997218399648562
 30
0.0
 11
539.4028583814109
 21
4.993727598231608
 31
0.0
  0
LINE
  5
29F
  8
MAKE2D$VISIBLE$LINES
 10
539.4028583814109
 20
4.993727598231608
 30
0.0
 11
539.3683561179
 21
4.991428290520546
 31
0.0
  0
LINE
  5
2A0
  8
MAKE2D$VISIBLE$LINES
 10
539.3683561179
 20
4.991428290520546
 30
0.0
 11
539.3337949860421
 21
4.990323225781401
 31
0.0
  0
LINE
  5
2A1
  8
MAKE2D$VISIBLE$LINES
 10
539.3337949860421
 20
4.990323225781401
 30
0.0
 11
539.2992163103418
 21
4.990413725332415
 31
0.0
  0
LINE
  5
2A2
  8
MAKE2D$VISIBLE$LINES
 10
539.2992163103418
 20
4.990413725332415
 30
0.0
 11
539.2646614362794
 21
4.991699680963887
 31
0.0
  0
LINE
  5
2A3
  8
MAKE2D$VISIBLE$LINES
 10
539.2646614362794
 20
4.991699680963887
 30
0.0
 11
539.2301716808756
 21
4.994179555067704
 31
0.0
  0
LINE
  5
2A4
  8
MAKE2D$VISIBLE$LINES
 10
539.2301716808756
 20
4.994179555067704
 30
0.0
 11
539.195788283291
 21
4.997850382475633
 31
0.0
  0
LINE
  5
2A5
  8
MAKE2D$VISIBLE$LINES
 10
539.195788283291
 20
4.997850382475633
 30
0.0
 11
539.1615523555116
 21
5.002707774005215
 31
0.0
  0
LINE
  5
2A6
  8
MAKE2D$VISIBLE$LINES
 10
539.1615523555116
 20
5.002707774005215
 30
0.0
 11
539.1275048331981
 21
5.008745921707219
 31
0.0
  0
LINE
  5
2A7
  8
MAKE2D$VISIBLE$LINES
 10
539.1275048331981
 20
5.008745921707219
 30
0.0
 11
539.0936864267345
 21
5.015957605810739
 31
0.0
  0
LINE
  5
2A8
  8
MAKE2D$VISIBLE$LINES
 10
539.0936864267345
 20
5.015957605810739
 30
0.0
 11
539.0601375725521
 21
5.024334203355667
 31
0.0
  0
LINE
  5
2A9
  8
MAKE2D$VISIBLE$LINES
 10
539.0601375725521
 20
5.024334203355667
 30
0.0
 11
539.026898384782
 21
5.033865698502708
 31
0.0
  0
LINE
  5
2AA
  8
MAKE2D$VISIBLE$LINES
 10
539.026898384782
 20
5.033865698502708
 30
0.0
 11
538.9940086072882
 21
5.044540694509903
 31
0.0
  0
LINE
  5
2AB
  8
MAKE2D$VISIBLE$LINES
 10
538.9940086072882
 20
5.044540694509903
 30
0.0
 11
538.9615075661471
 21
5.056346427359218
 31
0.0
  0
LINE
  5
2AC
  8
MAKE2D$VISIBLE$LINES
 10
538.9615075661471
 20
5.056346427359218
 30
0.0
 11
538.9294341226267
 21
5.069268781018485
 31
0.0
  0
LINE
  5
2AD
  8
MAKE2D$VISIBLE$LINES
 10
538.9294341226267
 20
5.069268781018485
 30
0.0
 11
538.8978266267184
 21
5.083292304320038
 31
0.0
  0
LINE
  5
2AE
  8
MAKE2D$VISIBLE$LINES
 10
538.8978266267184
 20
5.083292304320038
 30
0.0
 11
538.8667228712848
 21
5.098400229434813
 31
0.0
  0
LINE
  5
2AF
  8
MAKE2D$VISIBLE$LINES
 10
538.8667228712848
 20
5.098400229434813
 30
0.0
 11
538.836160046868
 21
5.114574491922634
 31
0.0
  0
LINE
  5
2B0
  8
MAKE2D$VISIBLE$LINES
 10
538.836160046868
 20
5.114574491922634
 30
0.0
 11
538.8061746972236
 21
5.13179575233101
 31
0.0
  0
LINE
  5
2B1
  8
MAKE2D$VISIBLE$LINES
 10
538.8061746972236
 20
5.13179575233101
 30
0.0
 11
538.7768026756241
 21
5.150043419319361
 31
0.0
  0
LINE
  5
2B2
  8
MAKE2D$VISIBLE$LINES
 10
538.7768026756241
 20
5.150043419319361
 30
0.0
 11
538.7480791019901
 21
5.169295674280201
 31
0.0
  0
LINE
  5
2B3
  8
MAKE2D$VISIBLE$LINES
 10
538.7480791019901
 20
5.169295674280201
 30
0.0
 11
538.7200383208983
 21
5.189529497426468
 31
0.0
  0
LINE
  5
2B4
  8
MAKE2D$VISIBLE$LINES
 10
538.7200383208983
 20
5.189529497426468
 30
0.0
 11
538.6927138605141
 21
5.210720695317643
 31
0.0
  0
LINE
  5
2B5
  8
MAKE2D$VISIBLE$LINES
 10
538.6927138605141
 20
5.210720695317643
 30
0.0
 11
538.6661383925035
 21
5.232843929786673
 31
0.0
  0
LINE
  5
2B6
  8
MAKE2D$VISIBLE$LINES
 10
538.6661383925035
 20
5.232843929786673
 30
0.0
 11
538.6403436929675
 21
5.255872748237203
 31
0.0
  0
LINE
  5
2B7
  8
MAKE2D$VISIBLE$LINES
 10
538.6403436929675
 20
5.255872748237203
 30
0.0
 11
538.6153606044483
 21
5.279779615271528
 31
0.0
  0
LINE
  5
2B8
  8
MAKE2D$VISIBLE$LINES
 10
538.6153606044483
 20
5.279779615271528
 30
0.0
 11
538.5912189990498
 21
5.3045359456163
 31
0.0
  0
LINE
  5
2B9
  8
MAKE2D$VISIBLE$LINES
 10
538.5912189990498
 20
5.3045359456163
 30
0.0
 11
538.5679477427208
 21
5.33011213830054
 31
0.0
  0
LINE
  5
2BA
  8
MAKE2D$VISIBLE$LINES
 10
538.5679477427208
 20
5.33011213830054
 30
0.0
 11
538.5455746607395
 21
5.356477612049598
 31
0.0
  0
LINE
  5
2BB
  8
MAKE2D$VISIBLE$LINES
 10
538.5455746607395
 20
5.356477612049598
 30
0.0
 11
538.5241265044436
 21
5.383600841850987
 31
0.0
  0
LINE
  5
2BC
  8
MAKE2D$VISIBLE$LINES
 10
538.5241265044436
 20
5.383600841850987
 30
0.0
 11
538.5036289192432
 21
5.411449396648973
 31
0.0
  0
LINE
  5
2BD
  8
MAKE2D$VISIBLE$LINES
 10
538.5036289192432
 20
5.411449396648973
 30
0.0
 11
538.4841064139583
 21
5.43998997812032
 31
0.0
  0
LINE
  5
2BE
  8
MAKE2D$VISIBLE$LINES
 10
538.4841064139583
 20
5.43998997812032
 30
0.0
 11
538.4655823315109
 21
5.469188460492952
 31
0.0
  0
LINE
  5
2BF
  8
MAKE2D$VISIBLE$LINES
 10
538.4655823315109
 20
5.469188460492952
 30
0.0
 11
538.4480788210171
 21
5.499009931345042
 31
0.0
  0
LINE
  5
2C0
  8
MAKE2D$VISIBLE$LINES
 10
538.4480788210171
 20
5.499009931345042
 30
0.0
 11
538.4316168113024
 21
5.52941873335214
 31
0.0
  0
LINE
  5
2C1
  8
MAKE2D$VISIBLE$LINES
 10
538.4316168113024
 20
5.52941873335214
 30
0.0
 11
538.4162159858764
 21
5.560378506922834
 31
0.0
  0
LINE
  5
2C2
  8
MAKE2D$VISIBLE$LINES
 10
538.4162159858764
 20
5.560378506922834
 30
0.0
 11
538.4018947593981
 21
5.591852233672478
 31
0.0
  0
LINE
  5
2C3
  8
MAKE2D$VISIBLE$LINES
 10
538.4018947593981
 20
5.591852233672478
 30
0.0
 11
537.7907335456312
 21
7.546619205311147
 31
0.0
  0
LINE
  5
2C4
  8
MAKE2D$VISIBLE$LINES
 10
537.7907335456312
 20
7.546619205311147
 30
0.0
 11
537.1257686014228
 21
9.470421704130189
 31
0.0
  0
LINE
  5
2C5
  8
MAKE2D$VISIBLE$LINES
 10
537.1257686014228
 20
9.470421704130189
 30
0.0
 11
536.4069999267731
 21
11.3632597301296
 31
0.0
  0
LINE
  5
2C6
  8
MAKE2D$VISIBLE$LINES
 10
536.4069999267731
 20
11.3632597301296
 30
0.0
 11
535.634427521682
 21
13.22513328330938
 31
0.0
  0
LINE
  5
2C7
  8
MAKE2D$VISIBLE$LINES
 10
535.634427521682
 20
13.22513328330938
 30
0.0
 11
534.8080513861495
 21
15.05604236366954
 31
0.0
  0
LINE
  5
2C8
  8
MAKE2D$VISIBLE$LINES
 10
534.8080513861495
 20
15.05604236366954
 30
0.0
 11
533.9278715201756
 21
16.85598697121006
 31
0.0
  0
LINE
  5
2C9
  8
MAKE2D$VISIBLE$LINES
 10
533.9278715201756
 20
16.85598697121006
 30
0.0
 11
532.9938879237602
 21
18.62496710593096
 31
0.0
  0
LINE
  5
2CA
  8
MAKE2D$VISIBLE$LINES
 10
532.9938879237602
 20
18.62496710593096
 30
0.0
 11
532.0061005969035
 21
20.36298276783224
 31
0.0
  0
LINE
  5
2CB
  8
MAKE2D$VISIBLE$LINES
 10
532.0061005969035
 20
20.36298276783224
 30
0.0
 11
530.9645095396054
 21
22.07003395691387
 31
0.0
  0
LINE
  5
2CC
  8
MAKE2D$VISIBLE$LINES
 10
530.9645095396054
 20
22.07003395691387
 30
0.0
 11
529.8691147518659
 21
23.74612067317589
 31
0.0
  0
LINE
  5
2CD
  8
MAKE2D$VISIBLE$LINES
 10
529.8691147518659
 20
23.74612067317589
 30
0.0
 11
528.719916233685
 21
25.39124291661828
 31
0.0
  0
LINE
  5
2CE
  8
MAKE2D$VISIBLE$LINES
 10
528.719916233685
 20
25.39124291661828
 30
0.0
 11
527.5169139850627
 21
27.00540068724104
 31
0.0
  0
LINE
  5
2CF
  8
MAKE2D$VISIBLE$LINES
 10
527.5169139850627
 20
27.00540068724104
 30
0.0
 11
526.2601080059991
 21
28.58859398504416
 31
0.0
  0
LINE
  5
2D0
  8
MAKE2D$VISIBLE$LINES
 10
526.2601080059991
 20
28.58859398504416
 30
0.0
 11
524.9494982964941
 21
30.14082281002766
 31
0.0
  0
LINE
  5
2D1
  8
MAKE2D$VISIBLE$LINES
 10
524.9494982964941
 20
30.14082281002766
 30
0.0
 11
523.5850848565476
 21
31.66208716219153
 31
0.0
  0
LINE
  5
2D2
  8
MAKE2D$VISIBLE$LINES
 10
523.5850848565476
 20
31.66208716219153
 30
0.0
 11
522.1668676861597
 21
33.15238704153578
 31
0.0
  0
LINE
  5
2D3
  8
MAKE2D$VISIBLE$LINES
 10
522.1668676861597
 20
33.15238704153578
 30
0.0
 11
520.6948467853304
 21
34.61172244806041
 31
0.0
  0
LINE
  5
2D4
  8
MAKE2D$VISIBLE$LINES
 10
520.6948467853304
 20
34.61172244806041
 30
0.0
 11
519.1690221540598
 21
36.04009338176539
 31
0.0
  0
LINE
  5
2D5
  8
MAKE2D$VISIBLE$LINES
 10
519.1690221540598
 20
36.04009338176539
 30
0.0
 11
517.5893937923478
 21
37.43749984265075
 31
0.0
  0
LINE
  5
2D6
  8
MAKE2D$VISIBLE$LINES
 10
517.5893937923478
 20
37.43749984265075
 30
0.0
 11
515.9559617001944
 21
38.80394183071648
 31
0.0
  0
LINE
  5
2D7
  8
MAKE2D$VISIBLE$LINES
 10
515.9559617001944
 20
38.80394183071648
 30
0.0
 11
514.2687258775995
 21
40.13941934596257
 31
0.0
  0
LINE
  5
2D8
  8
MAKE2D$VISIBLE$LINES
 10
514.2687258775995
 20
40.13941934596257
 30
0.0
 11
512.5276863245633
 21
41.44393238838905
 31
0.0
  0
LINE
  5
2D9
  8
MAKE2D$VISIBLE$LINES
 10
512.5276863245633
 20
41.44393238838905
 30
0.0
 11
510.7328430410857
 21
42.7174809579959
 31
0.0
  0
LINE
  5
2DA
  8
MAKE2D$VISIBLE$LINES
 10
510.7328430410857
 20
42.7174809579959
 30
0.0
 11
508.8841960271668
 21
43.96006505478312
 31
0.0
  0
LINE
  5
2DB
  8
MAKE2D$VISIBLE$LINES
 10
508.8841960271668
 20
43.96006505478312
 30
0.0
 11
506.9817452828065
 21
45.17168467875072
 31
0.0
  0
LINE
  5
2DC
  8
MAKE2D$VISIBLE$LINES
 10
506.9817452828065
 20
45.17168467875072
 30
0.0
 11
505.0254908080047
 21
46.35233982989868
 31
0.0
  0
LINE
  5
2DD
  8
MAKE2D$VISIBLE$LINES
 10
505.0254908080047
 20
46.35233982989868
 30
0.0
 11
503.0154326027616
 21
47.50203050822702
 31
0.0
  0
LINE
  5
2DE
  8
MAKE2D$VISIBLE$LINES
 10
503.0154326027616
 20
47.50203050822702
 30
0.0
 11
500.951570667077
 21
48.62075671373572
 31
0.0
  0
LINE
  5
2DF
  8
MAKE2D$VISIBLE$LINES
 10
500.951570667077
 20
48.62075671373572
 30
0.0
 11
498.8339050009511
 21
49.70851844642479
 31
0.0
  0
LINE
  5
2E0
  8
MAKE2D$VISIBLE$LINES
 10
498.8339050009511
 20
49.70851844642479
 30
0.0
 11
496.6624356043837
 21
50.76531570629425
 31
0.0
  0
LINE
  5
2E1
  8
MAKE2D$VISIBLE$LINES
 10
496.6624356043837
 20
50.76531570629425
 30
0.0
 11
494.4371624773751
 21
51.79114849334407
 31
0.0
  0
LINE
  5
2E2
  8
MAKE2D$VISIBLE$LINES
 10
494.4371624773751
 20
51.79114849334407
 30
0.0
 11
492.1580856199249
 21
52.78601680757425
 31
0.0
  0
LINE
  5
2E3
  8
MAKE2D$VISIBLE$LINES
 10
492.1580856199249
 20
52.78601680757425
 30
0.0
 11
489.8252050320334
 21
53.74992064898481
 31
0.0
  0
LINE
  5
2E4
  8
MAKE2D$VISIBLE$LINES
 10
489.8252050320334
 20
53.74992064898481
 30
0.0
 11
487.4385207137005
 21
54.68286001757575
 31
0.0
  0
LINE
  5
2E5
  8
MAKE2D$VISIBLE$LINES
 10
487.4385207137005
 20
54.68286001757575
 30
0.0
 11
484.9980326649263
 21
55.58483491334705
 31
0.0
  0
LINE
  5
2E6
  8
MAKE2D$VISIBLE$LINES
 10
484.9980326649263
 20
55.58483491334705
 30
0.0
 11
482.5037408857106
 21
56.45584533629874
 31
0.0
  0
LINE
  5
2E7
  8
MAKE2D$VISIBLE$LINES
 10
482.5037408857106
 20
56.45584533629874
 30
0.0
 11
477.3537461359551
 21
58.10497276374321
 31
0.0
  0
LINE
  5
2E8
  8
MAKE2D$VISIBLE$LINES
 10
477.3537461359551
 20
58.10497276374321
 30
0.0
 11
471.9885364644339
 21
59.63024229990917
 31
0.0
  0
LINE
  5
2E9
  8
MAKE2D$VISIBLE$LINES
 10
471.9885364644339
 20
59.63024229990917
 30
0.0
 11
466.4081118711472
 21
61.03165394479662
 31
0.0
  0
LINE
  5
2EA
  8
MAKE2D$VISIBLE$LINES
 10
466.4081118711472
 20
61.03165394479662
 30
0.0
 11
460.612472356095
 21
62.30920769840556
 31
0.0
  0
LINE
  5
2EB
  8
MAKE2D$VISIBLE$LINES
 10
460.612472356095
 20
62.30920769840556
 30
0.0
 11
454.6016179192771
 21
63.46290356073597
 31
0.0
  0
LINE
  5
2EC
  8
MAKE2D$VISIBLE$LINES
 10
454.6016179192771
 20
63.46290356073597
 30
0.0
 11
448.3755485606938
 21
64.49274153178789
 31
0.0
  0
LINE
  5
2ED
  8
MAKE2D$VISIBLE$LINES
 10
448.3755485606938
 20
64.49274153178789
 30
0.0
 11
441.9342642803448
 21
65.39872161156129
 31
0.0
  0
LINE
  5
2EE
  8
MAKE2D$VISIBLE$LINES
 10
441.9342642803448
 20
65.39872161156129
 30
0.0
 11
435.2777650782303
 21
66.18084380005615
 31
0.0
  0
LINE
  5
2EF
  8
MAKE2D$VISIBLE$LINES
 10
435.2777650782303
 20
66.18084380005615
 30
0.0
 11
428.4060509543503
 21
66.83910809727251
 31
0.0
  0
LINE
  5
2F0
  8
MAKE2D$VISIBLE$LINES
 10
428.4060509543503
 20
66.83910809727251
 30
0.0
 11
421.3191219087047
 21
67.37351450321039
 31
0.0
  0
LINE
  5
2F1
  8
MAKE2D$VISIBLE$LINES
 10
421.3191219087047
 20
67.37351450321039
 30
0.0
 11
414.0169779412935
 21
67.78406301786974
 31
0.0
  0
LINE
  5
2F2
  8
MAKE2D$VISIBLE$LINES
 10
414.0169779412935
 20
67.78406301786974
 30
0.0
 11
406.4996190521167
 21
68.07075364125056
 31
0.0
  0
LINE
  5
2F3
  8
MAKE2D$VISIBLE$LINES
 10
406.4996190521167
 20
68.07075364125056
 30
0.0
 11
390.8192565084664
 21
68.27256121417668
 31
0.0
  0
LINE
  5
2F4
  8
MAKE2D$VISIBLE$LINES
 10
390.8192565084664
 20
68.27256121417668
 30
0.0
 11
375.1388903639053
 21
68.07075364120331
 31
0.0
  0
LINE
  5
2F5
  8
MAKE2D$VISIBLE$LINES
 10
375.1388903639053
 20
68.07075364120331
 30
0.0
 11
367.6215298544473
 21
67.78406301749803
 31
0.0
  0
LINE
  5
2F6
  8
MAKE2D$VISIBLE$LINES
 10
367.6215298544473
 20
67.78406301749803
 30
0.0
 11
360.3193843868712
 21
67.37351450231368
 31
0.0
  0
LINE
  5
2F7
  8
MAKE2D$VISIBLE$LINES
 10
360.3193843868712
 20
67.37351450231368
 30
0.0
 11
353.2324539611768
 21
66.83910809565026
 31
0.0
  0
LINE
  5
2F8
  8
MAKE2D$VISIBLE$LINES
 10
353.2324539611768
 20
66.83910809565026
 30
0.0
 11
346.3607385773643
 21
66.18084379750776
 31
0.0
  0
LINE
  5
2F9
  8
MAKE2D$VISIBLE$LINES
 10
346.3607385773643
 20
66.18084379750776
 30
0.0
 11
339.7042382354335
 21
65.39872160788619
 31
0.0
  0
LINE
  5
2FA
  8
MAKE2D$VISIBLE$LINES
 10
339.7042382354335
 20
65.39872160788619
 30
0.0
 11
333.2629529353845
 21
64.49274152678557
 31
0.0
  0
LINE
  5
2FB
  8
MAKE2D$VISIBLE$LINES
 10
333.2629529353845
 20
64.49274152678557
 30
0.0
 11
327.0368826772172
 21
63.46290355420585
 31
0.0
  0
LINE
  5
2FC
  8
MAKE2D$VISIBLE$LINES
 10
327.0368826772172
 20
63.46290355420585
 30
0.0
 11
321.0260274609319
 21
62.30920769014708
 31
0.0
  0
LINE
  5
2FD
  8
MAKE2D$VISIBLE$LINES
 10
321.0260274609319
 20
62.30920769014708
 30
0.0
 11
315.2303872865282
 21
61.03165393460922
 31
0.0
  0
LINE
  5
2FE
  8
MAKE2D$VISIBLE$LINES
 10
315.2303872865282
 20
61.03165393460922
 30
0.0
 11
309.6499621540063
 21
59.63024228759231
 31
0.0
  0
LINE
  5
2FF
  8
MAKE2D$VISIBLE$LINES
 10
309.6499621540063
 20
59.63024228759231
 30
0.0
 11
304.2847520633662
 21
58.10497274909632
 31
0.0
  0
LINE
  5
300
  8
MAKE2D$VISIBLE$LINES
 10
304.2847520633662
 20
58.10497274909632
 30
0.0
 11
299.1347570146079
 21
56.45584531912127
 31
0.0
  0
LINE
  5
301
  8
MAKE2D$VISIBLE$LINES
 10
299.1347570146079
 20
56.45584531912127
 30
0.0
 11
296.6404651309344
 21
55.58483489482909
 31
0.0
  0
LINE
  5
302
  8
MAKE2D$VISIBLE$LINES
 10
296.6404651309344
 20
55.58483489482909
 30
0.0
 11
294.1999770077313
 21
54.68285999766713
 31
0.0
  0
LINE
  5
303
  8
MAKE2D$VISIBLE$LINES
 10
294.1999770077313
 20
54.68285999766713
 30
0.0
 11
291.8132926449987
 21
53.74992062763541
 31
0.0
  0
LINE
  5
304
  8
MAKE2D$VISIBLE$LINES
 10
291.8132926449987
 20
53.74992062763541
 30
0.0
 11
289.4804120427366
 21
52.78601678473393
 31
0.0
  0
LINE
  5
305
  8
MAKE2D$VISIBLE$LINES
 10
289.4804120427366
 20
52.78601678473393
 30
0.0
 11
287.2013352009449
 21
51.79114846896268
 31
0.0
  0
LINE
  5
306
  8
MAKE2D$VISIBLE$LINES
 10
287.2013352009449
 20
51.79114846896268
 30
0.0
 11
284.9760621196236
 21
50.76531568032166
 31
0.0
  0
LINE
  5
307
  8
MAKE2D$VISIBLE$LINES
 10
284.9760621196236
 20
50.76531568032166
 30
0.0
 11
282.8045927987728
 21
49.70851841881088
 31
0.0
  0
LINE
  5
308
  8
MAKE2D$VISIBLE$LINES
 10
282.8045927987728
 20
49.70851841881088
 30
0.0
 11
280.6869272383924
 21
48.62075668443032
 31
0.0
  0
LINE
  5
309
  8
MAKE2D$VISIBLE$LINES
 10
280.6869272383924
 20
48.62075668443032
 30
0.0
 11
278.6230654384824
 21
47.50203047717999
 31
0.0
  0
LINE
  5
30A
  8
MAKE2D$VISIBLE$LINES
 10
278.6230654384824
 20
47.50203047717999
 30
0.0
 11
276.6130073990429
 21
46.3523397970599
 31
0.0
  0
LINE
  5
30B
  8
MAKE2D$VISIBLE$LINES
 10
276.6130073990429
 20
46.3523397970599
 30
0.0
 11
274.6567531200739
 21
45.17168464407004
 31
0.0
  0
LINE
  5
30C
  8
MAKE2D$VISIBLE$LINES
 10
274.6567531200739
 20
45.17168464407004
 30
0.0
 11
272.7543026015753
 21
43.96006501821041
 31
0.0
  0
LINE
  5
30D
  8
MAKE2D$VISIBLE$LINES
 10
272.7543026015753
 20
43.96006501821041
 30
0.0
 11
270.9056558435472
 21
42.71748091948102
 31
0.0
  0
LINE
  5
30E
  8
MAKE2D$VISIBLE$LINES
 10
270.9056558435472
 20
42.71748091948102
 30
0.0
 11
269.1108128459895
 21
41.44393234788186
 31
0.0
  0
LINE
  5
30F
  8
MAKE2D$VISIBLE$LINES
 10
269.1108128459895
 20
41.44393234788186
 30
0.0
 11
267.3697736089022
 21
40.13941930341293
 31
0.0
  0
LINE
  5
310
  8
MAKE2D$VISIBLE$LINES
 10
267.3697736089022
 20
40.13941930341293
 30
0.0
 11
265.6825381322854
 21
38.80394178607423
 31
0.0
  0
LINE
  5
311
  8
MAKE2D$VISIBLE$LINES
 10
265.6825381322854
 20
38.80394178607423
 30
0.0
 11
264.0491064161391
 21
37.43749979586577
 31
0.0
  0
LINE
  5
312
  8
MAKE2D$VISIBLE$LINES
 10
264.0491064161391
 20
37.43749979586577
 30
0.0
 11
262.4694784604631
 21
36.04009333278754
 31
0.0
  0
LINE
  5
313
  8
MAKE2D$VISIBLE$LINES
 10
262.4694784604631
 20
36.04009333278754
 30
0.0
 11
260.9436542652576
 21
34.61172239683954
 31
0.0
  0
LINE
  5
314
  8
MAKE2D$VISIBLE$LINES
 10
260.9436542652576
 20
34.61172239683954
 30
0.0
 11
259.4716338305226
 21
33.15238698802177
 31
0.0
  0
LINE
  5
315
  8
MAKE2D$VISIBLE$LINES
 10
259.4716338305226
 20
33.15238698802177
 30
0.0
 11
258.053417156258
 21
31.66208710633424
 31
0.0
  0
LINE
  5
316
  8
MAKE2D$VISIBLE$LINES
 10
258.053417156258
 20
31.66208710633424
 30
0.0
 11
256.6890042424639
 21
30.14082275177694
 31
0.0
  0
LINE
  5
317
  8
MAKE2D$VISIBLE$LINES
 10
256.6890042424639
 20
30.14082275177694
 30
0.0
 11
255.3783950891402
 21
28.58859392434987
 31
0.0
  0
LINE
  5
318
  8
MAKE2D$VISIBLE$LINES
 10
255.3783950891402
 20
28.58859392434987
 30
0.0
 11
254.1215896962869
 21
27.00540062405303
 31
0.0
  0
LINE
  5
319
  8
MAKE2D$VISIBLE$LINES
 10
254.1215896962869
 20
27.00540062405303
 30
0.0
 11
252.9185880639041
 21
25.39124285088642
 31
0.0
  0
LINE
  5
31A
  8
MAKE2D$VISIBLE$LINES
 10
252.9185880639041
 20
25.39124285088642
 30
0.0
 11
251.7693901919917
 21
23.74612060485005
 31
0.0
  0
LINE
  5
31B
  8
MAKE2D$VISIBLE$LINES
 10
251.7693901919917
 20
23.74612060485005
 30
0.0
 11
250.6739960805498
 21
22.07003388594391
 31
0.0
  0
LINE
  5
31C
  8
MAKE2D$VISIBLE$LINES
 10
250.6739960805498
 20
22.07003388594391
 30
0.0
 11
249.6324057295784
 21
20.362982694168
 31
0.0
  0
LINE
  5
31D
  8
MAKE2D$VISIBLE$LINES
 10
249.6324057295784
 20
20.362982694168
 30
0.0
 11
248.6446191390773
 21
18.62496702952232
 31
0.0
  0
LINE
  5
31E
  8
MAKE2D$VISIBLE$LINES
 10
248.6446191390773
 20
18.62496702952232
 30
0.0
 11
247.7106363090467
 21
16.85598689200688
 31
0.0
  0
LINE
  5
31F
  8
MAKE2D$VISIBLE$LINES
 10
247.7106363090467
 20
16.85598689200688
 30
0.0
 11
246.8304572394866
 21
15.05604228162167
 31
0.0
  0
LINE
  5
320
  8
MAKE2D$VISIBLE$LINES
 10
246.8304572394866
 20
15.05604228162167
 30
0.0
 11
246.0040819303969
 21
13.22513319836669
 31
0.0
  0
LINE
  5
321
  8
MAKE2D$VISIBLE$LINES
 10
246.0040819303969
 20
13.22513319836669
 30
0.0
 11
245.2315103817777
 21
11.36325964224194
 31
0.0
  0
LINE
  5
322
  8
MAKE2D$VISIBLE$LINES
 10
245.2315103817777
 20
11.36325964224194
 30
0.0
 11
244.5127425936289
 21
9.470421613247431
 31
0.0
  0
LINE
  5
323
  8
MAKE2D$VISIBLE$LINES
 10
244.5127425936289
 20
9.470421613247431
 30
0.0
 11
243.8477785659505
 21
7.546619111383149
 31
0.0
  0
LINE
  5
324
  8
MAKE2D$VISIBLE$LINES
 10
243.8477785659505
 20
7.546619111383149
 30
0.0
 11
243.2366182987426
 21
5.591852136649099
 31
0.0
  0
LINE
  5
325
  8
MAKE2D$VISIBLE$LINES
 10
243.2366182987426
 20
5.591852136649099
 30
0.0
 11
243.2222970722851
 21
5.560378409889999
 31
0.0
  0
LINE
  5
326
  8
MAKE2D$VISIBLE$LINES
 10
243.2222970722851
 20
5.560378409889999
 30
0.0
 11
243.2068962468792
 21
5.529418636308748
 31
0.0
  0
LINE
  5
327
  8
MAKE2D$VISIBLE$LINES
 10
243.2068962468792
 20
5.529418636308748
 30
0.0
 11
243.1904342371846
 21
5.499009834291003
 31
0.0
  0
LINE
  5
328
  8
MAKE2D$VISIBLE$LINES
 10
243.1904342371846
 20
5.499009834291003
 30
0.0
 11
243.1729307267106
 21
5.469188363427573
 31
0.0
  0
LINE
  5
329
  8
MAKE2D$VISIBLE$LINES
 10
243.1729307267106
 20
5.469188363427573
 30
0.0
 11
243.1544066442826
 21
5.439989881043115
 31
0.0
  0
LINE
  5
32A
  8
MAKE2D$VISIBLE$LINES
 10
243.1544066442826
 20
5.439989881043115
 30
0.0
 11
243.1348841390161
 21
5.411449299558338
 31
0.0
  0
LINE
  5
32B
  8
MAKE2D$VISIBLE$LINES
 10
243.1348841390161
 20
5.411449299558338
 30
0.0
 11
243.1143865538343
 21
5.383600744747213
 31
0.0
  0
LINE
  5
32C
  8
MAKE2D$VISIBLE$LINES
 10
243.1143865538343
 20
5.383600744747213
 30
0.0
 11
243.0929383975562
 21
5.35647751493169
 31
0.0
  0
LINE
  5
32D
  8
MAKE2D$VISIBLE$LINES
 10
243.0929383975562
 20
5.35647751493169
 30
0.0
 11
243.0705653155921
 21
5.330112041167718
 31
0.0
  0
LINE
  5
32E
  8
MAKE2D$VISIBLE$LINES
 10
243.0705653155921
 20
5.330112041167718
 30
0.0
 11
243.0472940592797
 21
5.304535848467986
 31
0.0
  0
LINE
  5
32F
  8
MAKE2D$VISIBLE$LINES
 10
243.0472940592797
 20
5.304535848467986
 30
0.0
 11
243.0231524538977
 21
5.27977951810748
 31
0.0
  0
LINE
  5
330
  8
MAKE2D$VISIBLE$LINES
 10
243.0231524538977
 20
5.27977951810748
 30
0.0
 11
242.9981693653941
 21
5.25587265105655
 31
0.0
  0
LINE
  5
331
  8
MAKE2D$VISIBLE$LINES
 10
242.9981693653941
 20
5.25587265105655
 30
0.0
 11
242.9723746658733
 21
5.23284383258919
 31
0.0
  0
LINE
  5
332
  8
MAKE2D$VISIBLE$LINES
 10
242.9723746658733
 20
5.23284383258919
 30
0.0
 11
242.9457991978771
 21
5.210720598102521
 31
0.0
  0
LINE
  5
333
  8
MAKE2D$VISIBLE$LINES
 10
242.9457991978771
 20
5.210720598102521
 30
0.0
 11
242.918474737507
 21
5.189529400193501
 31
0.0
  0
LINE
  5
334
  8
MAKE2D$VISIBLE$LINES
 10
242.918474737507
 20
5.189529400193501
 30
0.0
 11
242.8904339564284
 21
5.169295577028774
 31
0.0
  0
LINE
  5
335
  8
MAKE2D$VISIBLE$LINES
 10
242.8904339564284
 20
5.169295577028774
 30
0.0
 11
242.8617103828071
 21
5.150043322049028
 31
0.0
  0
LINE
  5
336
  8
MAKE2D$VISIBLE$LINES
 10
242.8617103828071
 20
5.150043322049028
 30
0.0
 11
242.8323383612197
 21
5.131795655041345
 31
0.0
  0
LINE
  5
337
  8
MAKE2D$VISIBLE$LINES
 10
242.8323383612197
 20
5.131795655041345
 30
0.0
 11
242.8023530115867
 21
5.114574394613344
 31
0.0
  0
LINE
  5
338
  8
MAKE2D$VISIBLE$LINES
 10
242.8023530115867
 20
5.114574394613344
 30
0.0
 11
242.7717901871804
 21
5.098400132105301
 31
0.0
  0
LINE
  5
339
  8
MAKE2D$VISIBLE$LINES
 10
242.7717901871804
 20
5.098400132105301
 30
0.0
 11
242.7406864317564
 21
5.083292206969961
 31
0.0
  0
LINE
  5
33A
  8
MAKE2D$VISIBLE$LINES
 10
242.7406864317564
 20
5.083292206969961
 30
0.0
 11
242.7090789358575
 21
5.069268683647707
 31
0.0
  0
LINE
  5
33B
  8
MAKE2D$VISIBLE$LINES
 10
242.7090789358575
 20
5.069268683647707
 30
0.0
 11
242.6770054923455
 21
5.056346329967338
 31
0.0
  0
LINE
  5
33C
  8
MAKE2D$VISIBLE$LINES
 10
242.6770054923455
 20
5.056346329967338
 30
0.0
 11
242.6445044512124
 21
5.044540597096641
 31
0.0
  0
LINE
  5
33D
  8
MAKE2D$VISIBLE$LINES
 10
242.6445044512124
 20
5.044540597096641
 30
0.0
 11
242.6116146737252
 21
5.033865601067742
 31
0.0
  0
LINE
  5
33E
  8
MAKE2D$VISIBLE$LINES
 10
242.6116146737252
 20
5.033865601067742
 30
0.0
 11
242.5783754859612
 21
5.024334105898784
 31
0.0
  0
LINE
  5
33F
  8
MAKE2D$VISIBLE$LINES
 10
242.5783754859612
 20
5.024334105898784
 30
0.0
 11
242.5448266317846
 21
5.015957508331907
 31
0.0
  0
LINE
  5
340
  8
MAKE2D$VISIBLE$LINES
 10
242.5448266317846
 20
5.015957508331907
 30
0.0
 11
242.5110082253257
 21
5.008745824206144
 31
0.0
  0
LINE
  5
341
  8
MAKE2D$VISIBLE$LINES
 10
242.5110082253257
 20
5.008745824206144
 30
0.0
 11
242.4769607030162
 21
5.002707676481747
 31
0.0
  0
LINE
  5
342
  8
MAKE2D$VISIBLE$LINES
 10
242.4769607030162
 20
5.002707676481747
 30
0.0
 11
242.44272477524
 21
4.997850284929648
 31
0.0
  0
LINE
  5
343
  8
MAKE2D$VISIBLE$LINES
 10
242.44272477524
 20
4.997850284929648
 30
0.0
 11
242.4083413776573
 21
4.994179457499069
 31
0.0
  0
LINE
  5
344
  8
MAKE2D$VISIBLE$LINES
 10
242.4083413776573
 20
4.994179457499069
 30
0.0
 11
242.3738516222558
 21
4.991699583372624
 31
0.0
  0
LINE
  5
345
  8
MAKE2D$VISIBLE$LINES
 10
242.3738516222558
 20
4.991699583372624
 30
0.0
 11
242.339296748194
 21
4.99041362771842
 31
0.0
  0
LINE
  5
346
  8
MAKE2D$VISIBLE$LINES
 10
242.339296748194
 20
4.99041362771842
 30
0.0
 11
242.3047180724934
 21
4.990323128144676
 31
0.0
  0
LINE
  5
347
  8
MAKE2D$VISIBLE$LINES
 10
242.3047180724934
 20
4.990323128144676
 30
0.0
 11
242.2701569406353
 21
4.991428192861082
 31
0.0
  0
LINE
  5
348
  8
MAKE2D$VISIBLE$LINES
 10
242.2701569406353
 20
4.991428192861082
 30
0.0
 11
242.2356546771225
 21
4.993727500549491
 31
0.0
  0
LINE
  5
349
  8
MAKE2D$VISIBLE$LINES
 10
242.2356546771225
 20
4.993727500549491
 30
0.0
 11
242.2012525360699
 21
4.997218301943811
 31
0.0
  0
LINE
  5
34A
  8
MAKE2D$VISIBLE$LINES
 10
242.2012525360699
 20
4.997218301943811
 30
0.0
 11
242.1669916518776
 21
5.001896423117196
 31
0.0
  0
LINE
  5
34B
  8
MAKE2D$VISIBLE$LINES
 10
242.1669916518776
 20
5.001896423117196
 30
0.0
 11
242.1329129900447
 21
5.007756270472905
 31
0.0
  0
LINE
  5
34C
  8
MAKE2D$VISIBLE$LINES
 10
242.1329129900447
 20
5.007756270472905
 30
0.0
 11
242.0990572981883
 21
5.014790837432556
 31
0.0
  0
LINE
  5
34D
  8
MAKE2D$VISIBLE$LINES
 10
242.0990572981883
 20
5.014790837432556
 30
0.0
 11
242.0654650573231
 21
5.02299171281347
 31
0.0
  0
LINE
  5
34E
  8
MAKE2D$VISIBLE$LINES
 10
242.0654650573231
 20
5.02299171281347
 30
0.0
 11
242.0321764334562
 21
5.032349090886415
 31
0.0
  0
LINE
  5
34F
  8
MAKE2D$VISIBLE$LINES
 10
242.0321764334562
 20
5.032349090886415
 30
0.0
 11
241.9992312295621
 21
5.042851783099901
 31
0.0
  0
LINE
  5
350
  8
MAKE2D$VISIBLE$LINES
 10
241.9992312295621
 20
5.042851783099901
 30
0.0
 11
241.9666688379902
 21
5.054487231458491
 31
0.0
  0
LINE
  5
351
  8
MAKE2D$VISIBLE$LINES
 10
241.9666688379902
 20
5.054487231458491
 30
0.0
 11
241.9345281933654
 21
5.067241523537602
 31
0.0
  0
LINE
  5
352
  8
MAKE2D$VISIBLE$LINES
 10
241.9345281933654
 20
5.067241523537602
 30
0.0
 11
241.9028477260304
 21
5.081099409119835
 31
0.0
  0
LINE
  5
353
  8
MAKE2D$VISIBLE$LINES
 10
241.9028477260304
 20
5.081099409119835
 30
0.0
 11
241.8716653160992
 21
5.096044318428099
 31
0.0
  0
LINE
  5
354
  8
MAKE2D$VISIBLE$LINES
 10
241.8716653160992
 20
5.096044318428099
 30
0.0
 11
241.8410182481607
 21
5.112058381938985
 31
0.0
  0
LINE
  5
355
  8
MAKE2D$VISIBLE$LINES
 10
241.8410182481607
 20
5.112058381938985
 30
0.0
 11
241.8109431666996
 21
5.129122451748914
 31
0.0
  0
LINE
  5
356
  8
MAKE2D$VISIBLE$LINES
 10
241.8109431666996
 20
5.129122451748914
 30
0.0
 11
241.7814760322805
 21
5.147216124468901
 31
0.0
  0
LINE
  5
357
  8
MAKE2D$VISIBLE$LINES
 10
241.7814760322805
 20
5.147216124468901
 30
0.0
 11
241.7526520785501
 21
5.166317765620944
 31
0.0
  0
LINE
  5
358
  8
MAKE2D$VISIBLE$LINES
 10
241.7526520785501
 20
5.166317765620944
 30
0.0
 11
241.724505770108
 21
5.186404535506477
 31
0.0
  0
LINE
  5
359
  8
MAKE2D$VISIBLE$LINES
 10
241.724505770108
 20
5.186404535506477
 30
0.0
 11
241.697070761298
 21
5.207452416515433
 31
0.0
  0
LINE
  5
35A
  8
MAKE2D$VISIBLE$LINES
 10
241.697070761298
 20
5.207452416515433
 30
0.0
 11
241.6703798559686
 21
5.229436241843475
 31
0.0
  0
LINE
  5
35B
  8
MAKE2D$VISIBLE$LINES
 10
241.6703798559686
 20
5.229436241843475
 30
0.0
 11
241.6444649682483
 21
5.252329725584759
 31
0.0
  0
LINE
  5
35C
  8
MAKE2D$VISIBLE$LINES
 10
241.6444649682483
 20
5.252329725584759
 30
0.0
 11
241.6193570843872
 21
5.276105494160656
 31
0.0
  0
LINE
  5
35D
  8
MAKE2D$VISIBLE$LINES
 10
241.6193570843872
 20
5.276105494160656
 30
0.0
 11
241.5950862257064
 21
5.300735119051174
 31
0.0
  0
LINE
  5
35E
  8
MAKE2D$VISIBLE$LINES
 10
241.5950862257064
 20
5.300735119051174
 30
0.0
 11
241.5716814127014
 21
5.326189150786328
 31
0.0
  0
LINE
  5
35F
  8
MAKE2D$VISIBLE$LINES
 10
241.5716814127014
 20
5.326189150786328
 30
0.0
 11
241.5491706303438
 21
5.352437154158306
 31
0.0
  0
LINE
  5
360
  8
MAKE2D$VISIBLE$LINES
 10
241.5491706303438
 20
5.352437154158306
 30
0.0
 11
241.5275807946184
 21
5.379447744612942
 31
0.0
  0
LINE
  5
361
  8
MAKE2D$VISIBLE$LINES
 10
241.5275807946184
 20
5.379447744612942
 30
0.0
 11
241.5069377203408
 21
5.407188625776385
 31
0.0
  0
LINE
  5
362
  8
MAKE2D$VISIBLE$LINES
 10
241.5069377203408
 20
5.407188625776385
 30
0.0
 11
241.4872660902903
 21
5.435626628071309
 31
0.0
  0
LINE
  5
363
  8
MAKE2D$VISIBLE$LINES
 10
241.4872660902903
 20
5.435626628071309
 30
0.0
 11
241.4685894256975
 21
5.464727748376965
 31
0.0
  0
LINE
  5
364
  8
MAKE2D$VISIBLE$LINES
 10
241.4685894256975
 20
5.464727748376965
 30
0.0
 11
241.4509300581195
 21
5.494457190687799
 31
0.0
  0
LINE
  5
365
  8
MAKE2D$VISIBLE$LINES
 10
241.4509300581195
 20
5.494457190687799
 30
0.0
 11
241.4343091027386
 21
5.524779407717253
 31
0.0
  0
LINE
  5
366
  8
MAKE2D$VISIBLE$LINES
 10
241.4343091027386
 20
5.524779407717253
 30
0.0
 11
241.4187464331148
 21
5.555658143402774
 31
0.0
  0
LINE
  5
367
  8
MAKE2D$VISIBLE$LINES
 10
241.4187464331148
 20
5.555658143402774
 30
0.0
 11
241.4042606574232
 21
5.587056476256357
 31
0.0
  0
LINE
  5
368
  8
MAKE2D$VISIBLE$LINES
 10
241.4042606574232
 20
5.587056476256357
 30
0.0
 11
241.3908690962047
 21
5.618936863510891
 31
0.0
  0
LINE
  5
369
  8
MAKE2D$VISIBLE$LINES
 10
241.3908690962047
 20
5.618936863510891
 30
0.0
 11
241.3785877616552
 21
5.651261186009962
 31
0.0
  0
LINE
  5
36A
  8
MAKE2D$VISIBLE$LINES
 10
241.3785877616552
 20
5.651261186009962
 30
0.0
 11
241.3674313384805
 21
5.683990793788172
 31
0.0
  0
LINE
  5
36B
  8
MAKE2D$VISIBLE$LINES
 10
241.3674313384805
 20
5.683990793788172
 30
0.0
 11
241.3574131663376
 21
5.717086552282072
 31
0.0
  0
LINE
  5
36C
  8
MAKE2D$VISIBLE$LINES
 10
241.3574131663376
 20
5.717086552282072
 30
0.0
 11
241.3485452238851
 21
5.75050888912457
 31
0.0
  0
LINE
  5
36D
  8
MAKE2D$VISIBLE$LINES
 10
241.3485452238851
 20
5.75050888912457
 30
0.0
 11
241.3408381144596
 21
5.784217841461564
 31
0.0
  0
LINE
  5
36E
  8
MAKE2D$VISIBLE$LINES
 10
241.3408381144596
 20
5.784217841461564
 30
0.0
 11
241.3343010533978
 21
5.818173103734821
 31
0.0
  0
LINE
  5
36F
  8
MAKE2D$VISIBLE$LINES
 10
241.3343010533978
 20
5.818173103734821
 30
0.0
 11
241.3289418570181
 21
5.852334075874362
 31
0.0
  0
LINE
  5
370
  8
MAKE2D$VISIBLE$LINES
 10
241.3289418570181
 20
5.852334075874362
 30
0.0
 11
241.324766933274
 21
5.886659911845265
 31
0.0
  0
LINE
  5
371
  8
MAKE2D$VISIBLE$LINES
 10
241.324766933274
 20
5.886659911845265
 30
0.0
 11
241.3217812740927
 21
5.921109568485399
 31
0.0
  0
LINE
  5
372
  8
MAKE2D$VISIBLE$LINES
 10
241.3217812740927
 20
5.921109568485399
 30
0.0
 11
241.3199884494058
 21
5.955641854580896
 31
0.0
  0
LINE
  5
373
  8
MAKE2D$VISIBLE$LINES
 10
241.3199884494058
 20
5.955641854580896
 30
0.0
 11
241.3193906028814
 21
5.99021548011979
 31
0.0
  0
LINE
  5
374
  8
MAKE2D$VISIBLE$LINES
 10
241.3193906028814
 20
5.99021548011979
 30
0.0
 11
241.3193905986019
 21
12.50000000328692
 31
0.0
  0
LINE
  5
375
  8
MAKE2D$VISIBLE$LINES
 10
241.3193905986019
 20
12.50000000328692
 30
0.0
 11
238.419390598602
 21
12.50000000138039
 31
0.0
  0
LINE
  5
376
  8
MAKE2D$VISIBLE$LINES
 10
238.419390598602
 20
12.50000000138039
 30
0.0
 11
238.4193906068197
 21
0.0000000013803891
 31
0.0
  0
LINE
  5
377
  8
MAKE2D$VISIBLE$LINES
 10
238.4193906068197
 20
0.0000000013803891
 30
0.0
 11
236.3194750842971
 21
0.0000000000000036
 31
0.0
  0
LINE
  5
378
  8
MAKE2D$VISIBLE$LINES
 10
236.3194750842971
 20
0.0000000000000036
 30
0.0
 11
236.1487695333654
 21
0.0029148880569441
 31
0.0
  0
LINE
  5
379
  8
MAKE2D$VISIBLE$LINES
 10
236.1487695333654
 20
0.0029148880569441
 30
0.0
 11
235.9782630174662
 21
0.0116561538230666
 31
0.0
  0
LINE
  5
37A
  8
MAKE2D$VISIBLE$LINES
 10
235.9782630174662
 20
0.0116561538230666
 30
0.0
 11
235.8081543395699
 21
0.0262136053734956
 31
0.0
  0
LINE
  5
37B
  8
MAKE2D$VISIBLE$LINES
 10
235.8081543395699
 20
0.0262136053734956
 30
0.0
 11
235.6386418387855
 21
0.0465702693709105
 31
0.0
  0
LINE
  5
37C
  8
MAKE2D$VISIBLE$LINES
 10
235.6386418387855
 20
0.0465702693709105
 30
0.0
 11
235.4699231591061
 21
0.0727024108557295
 31
0.0
  0
LINE
  5
37D
  8
MAKE2D$VISIBLE$LINES
 10
235.4699231591061
 20
0.0727024108557295
 30
0.0
 11
235.3021950189651
 21
0.1045795609199116
 31
0.0
  0
LINE
  5
37E
  8
MAKE2D$VISIBLE$LINES
 10
235.3021950189651
 20
0.1045795609199116
 30
0.0
 11
235.1356529818716
 21
0.1421645522323134
 31
0.0
  0
LINE
  5
37F
  8
MAKE2D$VISIBLE$LINES
 10
235.1356529818716
 20
0.1421645522323134
 30
0.0
 11
234.9704912283904
 21
0.1854135623744702
 31
0.0
  0
LINE
  5
380
  8
MAKE2D$VISIBLE$LINES
 10
234.9704912283904
 20
0.1854135623744702
 30
0.0
 11
234.8069023297381
 21
0.2342761649351353
 31
0.0
  0
LINE
  5
381
  8
MAKE2D$VISIBLE$LINES
 10
234.8069023297381
 20
0.2342761649351353
 30
0.0
 11
234.6450770232528
 21
0.2886953883054666
 31
0.0
  0
LINE
  5
382
  8
MAKE2D$VISIBLE$LINES
 10
234.6450770232528
 20
0.2886953883054666
 30
0.0
 11
234.4852039900031
 21
0.3486077821053115
 31
0.0
  0
LINE
  5
383
  8
MAKE2D$VISIBLE$LINES
 10
234.4852039900031
 20
0.3486077821053115
 30
0.0
 11
234.3274696347941
 21
0.4139434911636117
 31
0.0
  0
LINE
  5
384
  8
MAKE2D$VISIBLE$LINES
 10
234.3274696347941
 20
0.4139434911636117
 30
0.0
 11
234.1720578688287
 21
0.4846263369659551
 31
0.0
  0
LINE
  5
385
  8
MAKE2D$VISIBLE$LINES
 10
234.1720578688287
 20
0.4846263369659551
 30
0.0
 11
234.0191498952733
 21
0.5605739064763213
 31
0.0
  0
LINE
  5
386
  8
MAKE2D$VISIBLE$LINES
 10
234.0191498952733
 20
0.5605739064763213
 30
0.0
 11
233.8689239979859
 21
0.6416976482255707
 31
0.0
  0
LINE
  5
387
  8
MAKE2D$VISIBLE$LINES
 10
233.8689239979859
 20
0.6416976482255707
 30
0.0
 11
233.7215553336421
 21
0.7279029755601094
 31
0.0
  0
LINE
  5
388
  8
MAKE2D$VISIBLE$LINES
 10
233.7215553336421
 20
0.7279029755601094
 30
0.0
 11
233.577215727513
 21
0.8190893769239738
 31
0.0
  0
LINE
  5
389
  8
MAKE2D$VISIBLE$LINES
 10
233.577215727513
 20
0.8190893769239738
 30
0.0
 11
233.4360734731218
 21
0.915150533052774
 31
0.0
  0
LINE
  5
38A
  8
MAKE2D$VISIBLE$LINES
 10
233.4360734731218
 20
0.915150533052774
 30
0.0
 11
233.2982931360244
 21
1.015974440934873
 31
0.0
  0
LINE
  5
38B
  8
MAKE2D$VISIBLE$LINES
 10
233.2982931360244
 20
1.015974440934873
 30
0.0
 11
233.1640353619305
 21
1.121443544403876
 31
0.0
  0
LINE
  5
38C
  8
MAKE2D$VISIBLE$LINES
 10
233.1640353619305
 20
1.121443544403876
 30
0.0
 11
233.0334566893985
 21
1.231434871203451
 31
0.0
  0
LINE
  5
38D
  8
MAKE2D$VISIBLE$LINES
 10
233.0334566893985
 20
1.231434871203451
 30
0.0
 11
232.90670936732
 21
1.345820176366289
 31
0.0
  0
LINE
  5
38E
  8
MAKE2D$VISIBLE$LINES
 10
232.90670936732
 20
1.345820176366289
 30
0.0
 11
232.7839411774026
 21
1.464466091743438
 31
0.0
  0
LINE
  5
38F
  8
MAKE2D$VISIBLE$LINES
 10
232.7839411774026
 20
1.464466091743438
 30
0.0
 11
232.665295261864
 21
1.587234281504876
 31
0.0
  0
LINE
  5
390
  8
MAKE2D$VISIBLE$LINES
 10
232.665295261864
 20
1.587234281504876
 30
0.0
 11
232.5509099565346
 21
1.713981603433054
 31
0.0
  0
LINE
  5
391
  8
MAKE2D$VISIBLE$LINES
 10
232.5509099565346
 20
1.713981603433054
 30
0.0
 11
232.4409186295634
 21
1.844560275820483
 31
0.0
  0
LINE
  5
392
  8
MAKE2D$VISIBLE$LINES
 10
232.4409186295634
 20
1.844560275820483
 30
0.0
 11
232.3354495259179
 21
1.978818049775723
 31
0.0
  0
LINE
  5
393
  8
MAKE2D$VISIBLE$LINES
 10
232.3354495259179
 20
1.978818049775723
 30
0.0
 11
232.2346256178545
 21
2.116598386740721
 31
0.0
  0
LINE
  5
394
  8
MAKE2D$VISIBLE$LINES
 10
232.2346256178545
 20
2.116598386740721
 30
0.0
 11
232.1385644615405
 21
2.25774064100508
 31
0.0
  0
LINE
  5
395
  8
MAKE2D$VISIBLE$LINES
 10
232.1385644615405
 20
2.25774064100508
 30
0.0
 11
232.0473780599867
 21
2.402080247014707
 31
0.0
  0
LINE
  5
396
  8
MAKE2D$VISIBLE$LINES
 10
232.0473780599867
 20
2.402080247014707
 30
0.0
 11
231.9611727324587
 21
2.549448911244871
 31
0.0
  0
LINE
  5
397
  8
MAKE2D$VISIBLE$LINES
 10
231.9611727324587
 20
2.549448911244871
 30
0.0
 11
231.8800489905117
 21
2.699674808426015
 31
0.0
  0
LINE
  5
398
  8
MAKE2D$VISIBLE$LINES
 10
231.8800489905117
 20
2.699674808426015
 30
0.0
 11
231.8041014208004
 21
2.852582781881387
 31
0.0
  0
LINE
  5
399
  8
MAKE2D$VISIBLE$LINES
 10
231.8041014208004
 20
2.852582781881387
 30
0.0
 11
231.7334185747937
 21
3.007994547754068
 31
0.0
  0
LINE
  5
39A
  8
MAKE2D$VISIBLE$LINES
 10
231.7334185747937
 20
3.007994547754068
 30
0.0
 11
231.6680828655281
 21
3.165728902876984
 31
0.0
  0
LINE
  5
39B
  8
MAKE2D$VISIBLE$LINES
 10
231.6680828655281
 20
3.165728902876984
 30
0.0
 11
231.6081704715181
 21
3.325601936048107
 31
0.0
  0
LINE
  5
39C
  8
MAKE2D$VISIBLE$LINES
 10
231.6081704715181
 20
3.325601936048107
 30
0.0
 11
231.553751247935
 21
3.487427242461826
 31
0.0
  0
LINE
  5
39D
  8
MAKE2D$VISIBLE$LINES
 10
231.553751247935
 20
3.487427242461826
 30
0.0
 11
231.5048886451593
 21
3.651016141049904
 31
0.0
  0
LINE
  5
39E
  8
MAKE2D$VISIBLE$LINES
 10
231.5048886451593
 20
3.651016141049904
 30
0.0
 11
231.4616396348
 21
3.8161778944743
 31
0.0
  0
LINE
  5
39F
  8
MAKE2D$VISIBLE$LINES
 10
231.4616396348
 20
3.8161778944743
 30
0.0
 11
231.4240546432686
 21
3.982719931518818
 31
0.0
  0
LINE
  5
3A0
  8
MAKE2D$VISIBLE$LINES
 10
231.4240546432686
 20
3.982719931518818
 30
0.0
 11
231.392177492984
 21
4.150448071617636
 31
0.0
  0
LINE
  5
3A1
  8
MAKE2D$VISIBLE$LINES
 10
231.392177492984
 20
4.150448071617636
 30
0.0
 11
231.3660453512774
 21
4.319166751262497
 31
0.0
  0
LINE
  5
3A2
  8
MAKE2D$VISIBLE$LINES
 10
231.3660453512774
 20
4.319166751262497
 30
0.0
 11
231.3456886870572
 21
4.488679252020114
 31
0.0
  0
LINE
  5
3A3
  8
MAKE2D$VISIBLE$LINES
 10
231.3456886870572
 20
4.488679252020114
 30
0.0
 11
231.3311312352832
 21
4.658787929897297
 31
0.0
  0
LINE
  5
3A4
  8
MAKE2D$VISIBLE$LINES
 10
231.3311312352832
 20
4.658787929897297
 30
0.0
 11
231.3223899692929
 21
4.829294445785004
 31
0.0
  0
LINE
  5
3A5
  8
MAKE2D$VISIBLE$LINES
 10
231.3223899692929
 20
4.829294445785004
 30
0.0
 11
231.3194750810115
 21
4.999999996712862
 31
0.0
  0
LINE
  5
3A6
  8
MAKE2D$VISIBLE$LINES
 10
231.3194750810115
 20
4.999999996712862
 30
0.0
 11
231.319475067863
 21
24.99999999671286
 31
0.0
  0
LINE
  5
3A7
  8
MAKE2D$VISIBLE$LINES
 10
231.319475067863
 20
24.99999999671286
 30
0.0
 11
231.3194750547146
 21
44.99999999671286
 31
0.0
  0
LINE
  5
3A8
  8
MAKE2D$VISIBLE$LINES
 10
231.3194750547146
 20
44.99999999671286
 30
0.0
 11
231.3223899427715
 21
45.17070554764454
 31
0.0
  0
LINE
  5
3A9
  8
MAKE2D$VISIBLE$LINES
 10
231.3223899427715
 20
45.17070554764454
 30
0.0
 11
231.3311312085376
 21
45.34121206354373
 31
0.0
  0
LINE
  5
3AA
  8
MAKE2D$VISIBLE$LINES
 10
231.3311312085376
 20
45.34121206354373
 30
0.0
 11
231.345688660088
 21
45.51132074144003
 31
0.0
  0
LINE
  5
3AB
  8
MAKE2D$VISIBLE$LINES
 10
231.345688660088
 20
45.51132074144003
 30
0.0
 11
231.3660453240854
 21
45.68083324222463
 31
0.0
  0
LINE
  5
3AC
  8
MAKE2D$VISIBLE$LINES
 10
231.3660453240854
 20
45.68083324222463
 30
0.0
 11
231.3921774655702
 21
45.84955192190405
 31
0.0
  0
LINE
  5
3AD
  8
MAKE2D$VISIBLE$LINES
 10
231.3921774655702
 20
45.84955192190405
 30
0.0
 11
231.4240546156343
 21
46.01728006204477
 31
0.0
  0
LINE
  5
3AE
  8
MAKE2D$VISIBLE$LINES
 10
231.4240546156343
 20
46.01728006204477
 30
0.0
 11
231.4616396069467
 21
46.18382209913846
 31
0.0
  0
LINE
  5
3AF
  8
MAKE2D$VISIBLE$LINES
 10
231.4616396069467
 20
46.18382209913846
 30
0.0
 11
231.5048886170889
 21
46.34898385261971
 31
0.0
  0
LINE
  5
3B0
  8
MAKE2D$VISIBLE$LINES
 10
231.5048886170889
 20
46.34898385261971
 30
0.0
 11
231.5537512196496
 21
46.51257275127223
 31
0.0
  0
LINE
  5
3B1
  8
MAKE2D$VISIBLE$LINES
 10
231.5537512196496
 20
46.51257275127223
 30
0.0
 11
231.6081704430198
 21
46.67439805775727
 31
0.0
  0
LINE
  5
3B2
  8
MAKE2D$VISIBLE$LINES
 10
231.6081704430198
 20
46.67439805775727
 30
0.0
 11
231.6680828368197
 21
46.83427109100715
 31
0.0
  0
LINE
  5
3B3
  8
MAKE2D$VISIBLE$LINES
 10
231.6680828368197
 20
46.83427109100715
 30
0.0
 11
231.733418545878
 21
46.99200544621616
 31
0.0
  0
LINE
  5
3B4
  8
MAKE2D$VISIBLE$LINES
 10
231.733418545878
 20
46.99200544621616
 30
0.0
 11
231.8041013916803
 21
47.14741721218176
 31
0.0
  0
LINE
  5
3B5
  8
MAKE2D$VISIBLE$LINES
 10
231.8041013916803
 20
47.14741721218176
 30
0.0
 11
231.8800489611906
 21
47.30032518573697
 31
0.0
  0
LINE
  5
3B6
  8
MAKE2D$VISIBLE$LINES
 10
231.8800489611906
 20
47.30032518573697
 30
0.0
 11
231.96117270294
 21
47.45055108302475
 31
0.0
  0
LINE
  5
3B7
  8
MAKE2D$VISIBLE$LINES
 10
231.96117270294
 20
47.45055108302475
 30
0.0
 11
232.0473780302744
 21
47.59791974736844
 31
0.0
  0
LINE
  5
3B8
  8
MAKE2D$VISIBLE$LINES
 10
232.0473780302744
 20
47.59791974736844
 30
0.0
 11
232.1385644316384
 21
47.74225935349774
 31
0.0
  0
LINE
  5
3B9
  8
MAKE2D$VISIBLE$LINES
 10
232.1385644316384
 20
47.74225935349774
 30
0.0
 11
232.2346255877669
 21
47.88340160788858
 31
0.0
  0
LINE
  5
3BA
  8
MAKE2D$VISIBLE$LINES
 10
232.2346255877669
 20
47.88340160788858
 30
0.0
 11
232.3354494956491
 21
48.02118194498611
 31
0.0
  0
LINE
  5
3BB
  8
MAKE2D$VISIBLE$LINES
 10
232.3354494956491
 20
48.02118194498611
 30
0.0
 11
232.4409185991182
 21
48.15543971908019
 31
0.0
  0
LINE
  5
3BC
  8
MAKE2D$VISIBLE$LINES
 10
232.4409185991182
 20
48.15543971908019
 30
0.0
 11
232.5509099259178
 21
48.28601839161221
 31
0.0
  0
LINE
  5
3BD
  8
MAKE2D$VISIBLE$LINES
 10
232.5509099259178
 20
48.28601839161221
 30
0.0
 11
232.6652952310806
 21
48.41276571369076
 31
0.0
  0
LINE
  5
3BE
  8
MAKE2D$VISIBLE$LINES
 10
232.6652952310806
 20
48.41276571369076
 30
0.0
 11
232.7839411464577
 21
48.53553390360817
 31
0.0
  0
LINE
  5
3BF
  8
MAKE2D$VISIBLE$LINES
 10
232.7839411464577
 20
48.53553390360817
 30
0.0
 11
232.9067093362191
 21
48.65417981914671
 31
0.0
  0
LINE
  5
3C0
  8
MAKE2D$VISIBLE$LINES
 10
232.9067093362191
 20
48.65417981914671
 30
0.0
 11
233.0334566581473
 21
48.76856512447618
 31
0.0
  0
LINE
  5
3C1
  8
MAKE2D$VISIBLE$LINES
 10
233.0334566581473
 20
48.76856512447618
 30
0.0
 11
233.1640353305347
 21
48.87855645144742
 31
0.0
  0
LINE
  5
3C2
  8
MAKE2D$VISIBLE$LINES
 10
233.1640353305347
 20
48.87855645144742
 30
0.0
 11
233.2982931044901
 21
48.98402555509306
 31
0.0
  0
LINE
  5
3C3
  8
MAKE2D$VISIBLE$LINES
 10
233.2982931044901
 20
48.98402555509306
 30
0.0
 11
233.4360734414549
 21
49.08484946315629
 31
0.0
  0
LINE
  5
3C4
  8
MAKE2D$VISIBLE$LINES
 10
233.4360734414549
 20
49.08484946315629
 30
0.0
 11
233.5772156957195
 21
49.18091061947051
 31
0.0
  0
LINE
  5
3C5
  8
MAKE2D$VISIBLE$LINES
 10
233.5772156957195
 20
49.18091061947051
 30
0.0
 11
233.721555301729
 21
49.27209702102426
 31
0.0
  0
LINE
  5
3C6
  8
MAKE2D$VISIBLE$LINES
 10
233.721555301729
 20
49.27209702102426
 30
0.0
 11
233.8689239659595
 21
49.35830234855254
 31
0.0
  0
LINE
  5
3C7
  8
MAKE2D$VISIBLE$LINES
 10
233.8689239659595
 20
49.35830234855254
 30
0.0
 11
234.0191498631404
 21
49.4394260904994
 31
0.0
  0
LINE
  5
3C8
  8
MAKE2D$VISIBLE$LINES
 10
234.0191498631404
 20
49.4394260904994
 30
0.0
 11
234.172057836596
 21
49.51537366021078
 31
0.0
  0
LINE
  5
3C9
  8
MAKE2D$VISIBLE$LINES
 10
234.172057836596
 20
49.51537366021078
 30
0.0
 11
234.3274696024684
 21
49.58605650621743
 31
0.0
  0
LINE
  5
3CA
  8
MAKE2D$VISIBLE$LINES
 10
234.3274696024684
 20
49.58605650621743
 30
0.0
 11
234.4852039575915
 21
49.6513922154831
 31
0.0
  0
LINE
  5
3CB
  8
MAKE2D$VISIBLE$LINES
 10
234.4852039575915
 20
49.6513922154831
 30
0.0
 11
234.6450769907624
 21
49.71130460949313
 31
0.0
  0
LINE
  5
3CC
  8
MAKE2D$VISIBLE$LINES
 10
234.6450769907624
 20
49.71130460949313
 30
0.0
 11
234.8069022971761
 21
49.7657238330762
 31
0.0
  0
LINE
  5
3CD
  8
MAKE2D$VISIBLE$LINES
 10
234.8069022971761
 20
49.7657238330762
 30
0.0
 11
234.9704911957642
 21
49.81458643585194
 31
0.0
  0
LINE
  5
3CE
  8
MAKE2D$VISIBLE$LINES
 10
234.9704911957642
 20
49.81458643585194
 30
0.0
 11
235.1356529491888
 21
49.85783544621129
 31
0.0
  0
LINE
  5
3CF
  8
MAKE2D$VISIBLE$LINES
 10
235.1356529491888
 20
49.85783544621129
 30
0.0
 11
235.3021949862333
 21
49.89542043774274
 31
0.0
  0
LINE
  5
3D0
  8
MAKE2D$VISIBLE$LINES
 10
235.3021949862333
 20
49.89542043774274
 30
0.0
 11
235.4699231263318
 21
49.92729758802733
 31
0.0
  0
LINE
  5
3D1
  8
MAKE2D$VISIBLE$LINES
 10
235.4699231263318
 20
49.92729758802733
 30
0.0
 11
235.6386418059769
 21
49.95342972973396
 31
0.0
  0
LINE
  5
3D2
  8
MAKE2D$VISIBLE$LINES
 10
235.6386418059769
 20
49.95342972973396
 30
0.0
 11
235.8081543067345
 21
49.97378639395424
 31
0.0
  0
LINE
  5
3D3
  8
MAKE2D$VISIBLE$LINES
 10
235.8081543067345
 20
49.97378639395424
 30
0.0
 11
235.9782629846119
 21
49.98834384572832
 31
0.0
  0
LINE
  5
3D4
  8
MAKE2D$VISIBLE$LINES
 10
235.9782629846119
 20
49.98834384572832
 30
0.0
 11
236.1487695004994
 21
49.9970851117186
 31
0.0
  0
LINE
  5
3D5
  8
MAKE2D$VISIBLE$LINES
 10
236.1487695004994
 20
49.9970851117186
 30
0.0
 11
236.3194750514274
 21
49.99999999999999
 31
0.0
  0
LINE
  5
3D6
  8
MAKE2D$VISIBLE$LINES
 10
236.3194750514274
 20
49.99999999999999
 30
0.0
 11
238.4193905739486
 21
50.00000000138039
 31
0.0
  0
LINE
  5
3D7
  8
MAKE2D$VISIBLE$LINES
 10
238.4193905739486
 20
50.00000000138039
 30
0.0
 11
238.4193905821665
 21
37.50000000138039
 31
0.0
  0
LINE
  5
3D8
  8
MAKE2D$VISIBLE$LINES
 10
238.4193905821665
 20
37.50000000138039
 30
0.0
 11
241.3193905821666
 21
37.50000000328691
 31
0.0
  0
LINE
  5
3D9
  8
MAKE2D$VISIBLE$LINES
 10
241.3193905821666
 20
37.50000000328691
 30
0.0
 11
241.3193905739487
 21
50.00000000328691
 31
0.0
  0
LINE
  5
3DA
  8
MAKE2D$VISIBLE$LINES
 10
241.3193905739487
 20
50.00000000328691
 30
0.0
 11
241.3193905575136
 21
75.00000000328669
 31
0.0
  0
LINE
  5
3DB
  8
MAKE2D$VISIBLE$LINES
 10
241.3193905575136
 20
75.00000000328669
 30
0.0
 11
241.3193905236731
 21
126.4741069242709
 31
0.0
  0
LINE
  5
3DC
  8
MAKE2D$VISIBLE$LINES
 10
241.3193905236731
 20
126.4741069242709
 30
0.0
 11
241.3193905154556
 21
138.9741069242709
 31
0.0
  0
LINE
  5
3DD
  8
MAKE2D$VISIBLE$LINES
 10
241.3193905154556
 20
138.9741069242709
 30
0.0
 11
238.4193905154558
 21
138.9741069223644
 31
0.0
  0
LINE
  5
3DE
  8
MAKE2D$VISIBLE$LINES
 10
238.4193905154558
 20
138.9741069223644
 30
0.0
 11
238.4193905236735
 21
126.4741069223644
 31
0.0
  0
LINE
  5
3DF
  8
MAKE2D$VISIBLE$LINES
 10
238.4193905236735
 20
126.4741069223644
 30
0.0
 11
236.319475001152
 21
126.474106920984
 31
0.0
  0
LINE
  5
3E0
  8
MAKE2D$VISIBLE$LINES
 10
236.319475001152
 20
126.474106920984
 30
0.0
 11
236.1487694502203
 21
126.4770218090409
 31
0.0
  0
LINE
  5
3E1
  8
MAKE2D$VISIBLE$LINES
 10
236.1487694502203
 20
126.4770218090409
 30
0.0
 11
235.9782629343211
 21
126.485763074807
 31
0.0
  0
LINE
  5
3E2
  8
MAKE2D$VISIBLE$LINES
 10
235.9782629343211
 20
126.485763074807
 30
0.0
 11
235.8081542564245
 21
126.5003205263574
 31
0.0
  0
LINE
  5
3E3
  8
MAKE2D$VISIBLE$LINES
 10
235.8081542564245
 20
126.5003205263574
 30
0.0
 11
235.6386417556402
 21
126.5206771903547
 31
0.0
  0
LINE
  5
3E4
  8
MAKE2D$VISIBLE$LINES
 10
235.6386417556402
 20
126.5206771903547
 30
0.0
 11
235.4699230759607
 21
126.5468093318395
 31
0.0
  0
LINE
  5
3E5
  8
MAKE2D$VISIBLE$LINES
 10
235.4699230759607
 20
126.5468093318395
 30
0.0
 11
235.30219493582
 21
126.5786864819035
 31
0.0
  0
LINE
  5
3E6
  8
MAKE2D$VISIBLE$LINES
 10
235.30219493582
 20
126.5786864819035
 30
0.0
 11
235.1356528987263
 21
126.6162714732159
 31
0.0
  0
LINE
  5
3E7
  8
MAKE2D$VISIBLE$LINES
 10
235.1356528987263
 20
126.6162714732159
 30
0.0
 11
234.970491145245
 21
126.6595204833581
 31
0.0
  0
LINE
  5
3E8
  8
MAKE2D$VISIBLE$LINES
 10
234.970491145245
 20
126.6595204833581
 30
0.0
 11
234.8069022465925
 21
126.7083830859188
 31
0.0
  0
LINE
  5
3E9
  8
MAKE2D$VISIBLE$LINES
 10
234.8069022465925
 20
126.7083830859188
 30
0.0
 11
234.6450769401072
 21
126.762802309289
 31
0.0
  0
LINE
  5
3EA
  8
MAKE2D$VISIBLE$LINES
 10
234.6450769401072
 20
126.762802309289
 30
0.0
 11
234.4852039068575
 21
126.8227147030888
 31
0.0
  0
LINE
  5
3EB
  8
MAKE2D$VISIBLE$LINES
 10
234.4852039068575
 20
126.8227147030888
 30
0.0
 11
234.3274695516485
 21
126.8880504121471
 31
0.0
  0
LINE
  5
3EC
  8
MAKE2D$VISIBLE$LINES
 10
234.3274695516485
 20
126.8880504121471
 30
0.0
 11
234.1720577856831
 21
126.9587332579494
 31
0.0
  0
LINE
  5
3ED
  8
MAKE2D$VISIBLE$LINES
 10
234.1720577856831
 20
126.9587332579494
 30
0.0
 11
234.0191498121276
 21
127.0346808274597
 31
0.0
  0
LINE
  5
3EE
  8
MAKE2D$VISIBLE$LINES
 10
234.0191498121276
 20
127.0346808274597
 30
0.0
 11
233.8689239148399
 21
127.1158045692091
 31
0.0
  0
LINE
  5
3EF
  8
MAKE2D$VISIBLE$LINES
 10
233.8689239148399
 20
127.1158045692091
 30
0.0
 11
233.7215552504962
 21
127.2020098965435
 31
0.0
  0
LINE
  5
3F0
  8
MAKE2D$VISIBLE$LINES
 10
233.7215552504962
 20
127.2020098965435
 30
0.0
 11
233.5772156443668
 21
127.2931962979075
 31
0.0
  0
LINE
  5
3F1
  8
MAKE2D$VISIBLE$LINES
 10
233.5772156443668
 20
127.2931962979075
 30
0.0
 11
233.4360733899758
 21
127.3892574540361
 31
0.0
  0
LINE
  5
3F2
  8
MAKE2D$VISIBLE$LINES
 10
233.4360733899758
 20
127.3892574540361
 30
0.0
 11
233.2982930528784
 21
127.4900813619182
 31
0.0
  0
LINE
  5
3F3
  8
MAKE2D$VISIBLE$LINES
 10
233.2982930528784
 20
127.4900813619182
 30
0.0
 11
233.1640352787844
 21
127.5955504653873
 31
0.0
  0
LINE
  5
3F4
  8
MAKE2D$VISIBLE$LINES
 10
233.1640352787844
 20
127.5955504653873
 30
0.0
 11
233.0334566062523
 21
127.7055417921869
 31
0.0
  0
LINE
  5
3F5
  8
MAKE2D$VISIBLE$LINES
 10
233.0334566062523
 20
127.7055417921869
 30
0.0
 11
232.9067092841738
 21
127.8199270973497
 31
0.0
  0
LINE
  5
3F6
  8
MAKE2D$VISIBLE$LINES
 10
232.9067092841738
 20
127.8199270973497
 30
0.0
 11
232.7839410942563
 21
127.9385730127268
 31
0.0
  0
LINE
  5
3F7
  8
MAKE2D$VISIBLE$LINES
 10
232.7839410942563
 20
127.9385730127268
 30
0.0
 11
232.6652951787178
 21
128.0613412024882
 31
0.0
  0
LINE
  5
3F8
  8
MAKE2D$VISIBLE$LINES
 10
232.6652951787178
 20
128.0613412024882
 30
0.0
 11
232.5509098733883
 21
128.1880885244164
 31
0.0
  0
LINE
  5
3F9
  8
MAKE2D$VISIBLE$LINES
 10
232.5509098733883
 20
128.1880885244164
 30
0.0
 11
232.4409185464171
 21
128.3186671968038
 31
0.0
  0
LINE
  5
3FA
  8
MAKE2D$VISIBLE$LINES
 10
232.4409185464171
 20
128.3186671968038
 30
0.0
 11
232.3354494427713
 21
128.4529249707594
 31
0.0
  0
LINE
  5
3FB
  8
MAKE2D$VISIBLE$LINES
 10
232.3354494427713
 20
128.4529249707594
 30
0.0
 11
232.2346255347081
 21
128.5907053077242
 31
0.0
  0
LINE
  5
3FC
  8
MAKE2D$VISIBLE$LINES
 10
232.2346255347081
 20
128.5907053077242
 30
0.0
 11
232.138564378394
 21
128.7318475619887
 31
0.0
  0
LINE
  5
3FD
  8
MAKE2D$VISIBLE$LINES
 10
232.138564378394
 20
128.7318475619887
 30
0.0
 11
232.0473779768402
 21
128.8761871679982
 31
0.0
  0
LINE
  5
3FE
  8
MAKE2D$VISIBLE$LINES
 10
232.0473779768402
 20
128.8761871679982
 30
0.0
 11
231.9611726493121
 21
129.0235558322285
 31
0.0
  0
LINE
  5
3FF
  8
MAKE2D$VISIBLE$LINES
 10
231.9611726493121
 20
129.0235558322285
 30
0.0
 11
231.8800489073651
 21
129.1737817294097
 31
0.0
  0
LINE
  5
400
  8
MAKE2D$VISIBLE$LINES
 10
231.8800489073651
 20
129.1737817294097
 30
0.0
 11
231.8041013376538
 21
129.326689702865
 31
0.0
  0
LINE
  5
401
  8
MAKE2D$VISIBLE$LINES
 10
231.8041013376538
 20
129.326689702865
 30
0.0
 11
231.7334184916471
 21
129.4821014687377
 31
0.0
  0
LINE
  5
402
  8
MAKE2D$VISIBLE$LINES
 10
231.7334184916471
 20
129.4821014687377
 30
0.0
 11
231.6680827823815
 21
129.6398358238606
 31
0.0
  0
LINE
  5
403
  8
MAKE2D$VISIBLE$LINES
 10
231.6680827823815
 20
129.6398358238606
 30
0.0
 11
231.6081703883714
 21
129.7997088570317
 31
0.0
  0
LINE
  5
404
  8
MAKE2D$VISIBLE$LINES
 10
231.6081703883714
 20
129.7997088570317
 30
0.0
 11
231.5537511647883
 21
129.9615341634454
 31
0.0
  0
LINE
  5
405
  8
MAKE2D$VISIBLE$LINES
 10
231.5537511647883
 20
129.9615341634454
 30
0.0
 11
231.5048885620126
 21
130.1251230620337
 31
0.0
  0
LINE
  5
406
  8
MAKE2D$VISIBLE$LINES
 10
231.5048885620126
 20
130.1251230620337
 30
0.0
 11
231.4616395516533
 21
130.2902848154581
 31
0.0
  0
LINE
  5
407
  8
MAKE2D$VISIBLE$LINES
 10
231.4616395516533
 20
130.2902848154581
 30
0.0
 11
231.4240545601219
 21
130.4568268525024
 31
0.0
  0
LINE
  5
408
  8
MAKE2D$VISIBLE$LINES
 10
231.4240545601219
 20
130.4568268525024
 30
0.0
 11
231.3921774098373
 21
130.6245549926012
 31
0.0
  0
LINE
  5
409
  8
MAKE2D$VISIBLE$LINES
 10
231.3921774098373
 20
130.6245549926012
 30
0.0
 11
231.3660452681307
 21
130.7932736722461
 31
0.0
  0
LINE
  5
40A
  8
MAKE2D$VISIBLE$LINES
 10
231.3660452681307
 20
130.7932736722461
 30
0.0
 11
231.3456886039104
 21
130.9627861730041
 31
0.0
  0
LINE
  5
40B
  8
MAKE2D$VISIBLE$LINES
 10
231.3456886039104
 20
130.9627861730041
 30
0.0
 11
231.3311311521364
 21
131.1328948508813
 31
0.0
  0
LINE
  5
40C
  8
MAKE2D$VISIBLE$LINES
 10
231.3311311521364
 20
131.1328948508813
 30
0.0
 11
231.3223898861461
 21
131.303401366769
 31
0.0
  0
LINE
  5
40D
  8
MAKE2D$VISIBLE$LINES
 10
231.3223898861461
 20
131.303401366769
 30
0.0
 11
231.3194749978648
 21
131.4741069176969
 31
0.0
  0
LINE
  5
40E
  8
MAKE2D$VISIBLE$LINES
 10
231.3194749978648
 20
131.4741069176969
 30
0.0
 11
231.3194749847169
 21
151.4741069176969
 31
0.0
  0
LINE
  5
40F
  8
MAKE2D$VISIBLE$LINES
 10
231.3194749847169
 20
151.4741069176969
 30
0.0
 11
231.3194749715686
 21
171.4741069176969
 31
0.0
  0
LINE
  5
410
  8
MAKE2D$VISIBLE$LINES
 10
231.3194749715686
 20
171.4741069176969
 30
0.0
 11
231.3223898596255
 21
171.6448124686288
 31
0.0
  0
LINE
  5
411
  8
MAKE2D$VISIBLE$LINES
 10
231.3223898596255
 20
171.6448124686288
 30
0.0
 11
231.3311311253916
 21
171.8153189845277
 31
0.0
  0
LINE
  5
412
  8
MAKE2D$VISIBLE$LINES
 10
231.3311311253916
 20
171.8153189845277
 30
0.0
 11
231.345688576942
 21
171.9854276624243
 31
0.0
  0
LINE
  5
413
  8
MAKE2D$VISIBLE$LINES
 10
231.345688576942
 20
171.9854276624243
 30
0.0
 11
231.3660452409394
 21
172.1549401632086
 31
0.0
  0
LINE
  5
414
  8
MAKE2D$VISIBLE$LINES
 10
231.3660452409394
 20
172.1549401632086
 30
0.0
 11
231.3921773824242
 21
172.3236588428881
 31
0.0
  0
LINE
  5
415
  8
MAKE2D$VISIBLE$LINES
 10
231.3921773824242
 20
172.3236588428881
 30
0.0
 11
231.4240545324882
 21
172.4913869830288
 31
0.0
  0
LINE
  5
416
  8
MAKE2D$VISIBLE$LINES
 10
231.4240545324882
 20
172.4913869830288
 30
0.0
 11
231.4616395238007
 21
172.6579290201227
 31
0.0
  0
LINE
  5
417
  8
MAKE2D$VISIBLE$LINES
 10
231.4616395238007
 20
172.6579290201227
 30
0.0
 11
231.5048885339428
 21
172.8230907736038
 31
0.0
  0
LINE
  5
418
  8
MAKE2D$VISIBLE$LINES
 10
231.5048885339428
 20
172.8230907736038
 30
0.0
 11
231.5537511365035
 21
172.9866796722563
 31
0.0
  0
LINE
  5
419
  8
MAKE2D$VISIBLE$LINES
 10
231.5537511365035
 20
172.9866796722563
 30
0.0
 11
231.6081703598738
 21
173.1485049787415
 31
0.0
  0
LINE
  5
41A
  8
MAKE2D$VISIBLE$LINES
 10
231.6081703598738
 20
173.1485049787415
 30
0.0
 11
231.6680827536736
 21
173.3083780119912
 31
0.0
  0
LINE
  5
41B
  8
MAKE2D$VISIBLE$LINES
 10
231.6680827536736
 20
173.3083780119912
 30
0.0
 11
231.7334184627318
 21
173.4661123672002
 31
0.0
  0
LINE
  5
41C
  8
MAKE2D$VISIBLE$LINES
 10
231.7334184627318
 20
173.4661123672002
 30
0.0
 11
231.8041013085343
 21
173.6215241331658
 31
0.0
  0
LINE
  5
41D
  8
MAKE2D$VISIBLE$LINES
 10
231.8041013085343
 20
173.6215241331658
 30
0.0
 11
231.8800488780444
 21
173.774432106721
 31
0.0
  0
LINE
  5
41E
  8
MAKE2D$VISIBLE$LINES
 10
231.8800488780444
 20
173.774432106721
 30
0.0
 11
231.9611726197939
 21
173.9246580040088
 31
0.0
  0
LINE
  5
41F
  8
MAKE2D$VISIBLE$LINES
 10
231.9611726197939
 20
173.9246580040088
 30
0.0
 11
232.0473779471282
 21
174.0720266683523
 31
0.0
  0
LINE
  5
420
  8
MAKE2D$VISIBLE$LINES
 10
232.0473779471282
 20
174.0720266683523
 30
0.0
 11
232.1385643484923
 21
174.2163662744818
 31
0.0
  0
LINE
  5
421
  8
MAKE2D$VISIBLE$LINES
 10
232.1385643484923
 20
174.2163662744818
 30
0.0
 11
232.2346255046209
 21
174.3575085288728
 31
0.0
  0
LINE
  5
422
  8
MAKE2D$VISIBLE$LINES
 10
232.2346255046209
 20
174.3575085288728
 30
0.0
 11
232.3354494125031
 21
174.4952888659704
 31
0.0
  0
LINE
  5
423
  8
MAKE2D$VISIBLE$LINES
 10
232.3354494125031
 20
174.4952888659704
 30
0.0
 11
232.440918515972
 21
174.6295466400643
 31
0.0
  0
LINE
  5
424
  8
MAKE2D$VISIBLE$LINES
 10
232.440918515972
 20
174.6295466400643
 30
0.0
 11
232.5509098427716
 21
174.7601253125963
 31
0.0
  0
LINE
  5
425
  8
MAKE2D$VISIBLE$LINES
 10
232.5509098427716
 20
174.7601253125963
 30
0.0
 11
232.6652951479344
 21
174.8868726346748
 31
0.0
  0
LINE
  5
426
  8
MAKE2D$VISIBLE$LINES
 10
232.6652951479344
 20
174.8868726346748
 30
0.0
 11
232.7839410633115
 21
175.0096408245922
 31
0.0
  0
LINE
  5
427
  8
MAKE2D$VISIBLE$LINES
 10
232.7839410633115
 20
175.0096408245922
 30
0.0
 11
232.9067092530729
 21
175.1282867401308
 31
0.0
  0
LINE
  5
428
  8
MAKE2D$VISIBLE$LINES
 10
232.9067092530729
 20
175.1282867401308
 30
0.0
 11
233.0334565750012
 21
175.2426720454604
 31
0.0
  0
LINE
  5
429
  8
MAKE2D$VISIBLE$LINES
 10
233.0334565750012
 20
175.2426720454604
 30
0.0
 11
233.1640352473885
 21
175.3526633724315
 31
0.0
  0
LINE
  5
42A
  8
MAKE2D$VISIBLE$LINES
 10
233.1640352473885
 20
175.3526633724315
 30
0.0
 11
233.2982930213439
 21
175.4581324760771
 31
0.0
  0
LINE
  5
42B
  8
MAKE2D$VISIBLE$LINES
 10
233.2982930213439
 20
175.4581324760771
 30
0.0
 11
233.4360733583086
 21
175.5589563841404
 31
0.0
  0
LINE
  5
42C
  8
MAKE2D$VISIBLE$LINES
 10
233.4360733583086
 20
175.5589563841404
 30
0.0
 11
233.5772156125734
 21
175.6550175404546
 31
0.0
  0
LINE
  5
42D
  8
MAKE2D$VISIBLE$LINES
 10
233.5772156125734
 20
175.6550175404546
 30
0.0
 11
233.7215552185829
 21
175.7462039420085
 31
0.0
  0
LINE
  5
42E
  8
MAKE2D$VISIBLE$LINES
 10
233.7215552185829
 20
175.7462039420085
 30
0.0
 11
233.8689238828131
 21
175.8324092695365
 31
0.0
  0
LINE
  5
42F
  8
MAKE2D$VISIBLE$LINES
 10
233.8689238828131
 20
175.8324092695365
 30
0.0
 11
234.0191497799942
 21
175.9135330114835
 31
0.0
  0
LINE
  5
430
  8
MAKE2D$VISIBLE$LINES
 10
234.0191497799942
 20
175.9135330114835
 30
0.0
 11
234.1720577534494
 21
175.9894805811947
 31
0.0
  0
LINE
  5
431
  8
MAKE2D$VISIBLE$LINES
 10
234.1720577534494
 20
175.9894805811947
 30
0.0
 11
234.3274695193222
 21
176.0601634272015
 31
0.0
  0
LINE
  5
432
  8
MAKE2D$VISIBLE$LINES
 10
234.3274695193222
 20
176.0601634272015
 30
0.0
 11
234.4852038744453
 21
176.1254991364672
 31
0.0
  0
LINE
  5
433
  8
MAKE2D$VISIBLE$LINES
 10
234.4852038744453
 20
176.1254991364672
 30
0.0
 11
234.645076907616
 21
176.1854115304772
 31
0.0
  0
LINE
  5
434
  8
MAKE2D$VISIBLE$LINES
 10
234.645076907616
 20
176.1854115304772
 30
0.0
 11
234.8069022140299
 21
176.2398307540603
 31
0.0
  0
LINE
  5
435
  8
MAKE2D$VISIBLE$LINES
 10
234.8069022140299
 20
176.2398307540603
 30
0.0
 11
234.9704911126182
 21
176.2886933568361
 31
0.0
  0
LINE
  5
436
  8
MAKE2D$VISIBLE$LINES
 10
234.9704911126182
 20
176.2886933568361
 30
0.0
 11
235.1356528660423
 21
176.3319423671953
 31
0.0
  0
LINE
  5
437
  8
MAKE2D$VISIBLE$LINES
 10
235.1356528660423
 20
176.3319423671953
 30
0.0
 11
235.3021949030868
 21
176.3695273587268
 31
0.0
  0
LINE
  5
438
  8
MAKE2D$VISIBLE$LINES
 10
235.3021949030868
 20
176.3695273587268
 30
0.0
 11
235.4699230431859
 21
176.4014045090115
 31
0.0
  0
LINE
  5
439
  8
MAKE2D$VISIBLE$LINES
 10
235.4699230431859
 20
176.4014045090115
 30
0.0
 11
235.6386417228305
 21
176.427536650718
 31
0.0
  0
LINE
  5
43A
  8
MAKE2D$VISIBLE$LINES
 10
235.6386417228305
 20
176.427536650718
 30
0.0
 11
235.8081542235883
 21
176.4478933149383
 31
0.0
  0
LINE
  5
43B
  8
MAKE2D$VISIBLE$LINES
 10
235.8081542235883
 20
176.4478933149383
 30
0.0
 11
235.9782629014657
 21
176.4624507667124
 31
0.0
  0
LINE
  5
43C
  8
MAKE2D$VISIBLE$LINES
 10
235.9782629014657
 20
176.4624507667124
 30
0.0
 11
236.1487694173532
 21
176.4711920327027
 31
0.0
  0
LINE
  5
43D
  8
MAKE2D$VISIBLE$LINES
 10
236.1487694173532
 20
176.4711920327027
 30
0.0
 11
236.3194749682812
 21
176.474106920984
 31
0.0
  0
LINE
  5
43E
  8
MAKE2D$VISIBLE$LINES
 10
236.3194749682812
 20
176.474106920984
 30
0.0
 11
238.4193904908028
 21
176.4741069223644
 31
0.0
  0
LINE
  5
43F
  8
MAKE2D$VISIBLE$LINES
 10
238.4193904908028
 20
176.4741069223644
 30
0.0
 11
238.4193904990205
 21
163.9741069223644
 31
0.0
  0
LINE
  5
440
  8
MAKE2D$VISIBLE$LINES
 10
238.4193904990205
 20
163.9741069223644
 30
0.0
 11
241.3193904990204
 21
163.9741069242709
 31
0.0
  0
LINE
  5
441
  8
MAKE2D$VISIBLE$LINES
 10
241.3193904990204
 20
163.9741069242709
 30
0.0
 11
241.3193904908024
 21
176.4741069242709
 31
0.0
  0
LINE
  5
442
  8
MAKE2D$VISIBLE$LINES
 10
241.3193904908024
 20
176.4741069242709
 30
0.0
 11
241.3193904743674
 21
201.4741069242707
 31
0.0
  0
LINE
  5
443
  8
MAKE2D$VISIBLE$LINES
 10
241.3193904743674
 20
201.4741069242707
 30
0.0
 11
241.3193904656649
 21
214.7111603847636
 31
0.0
  0
LINE
  5
444
  8
MAKE2D$VISIBLE$LINES
 10
241.3193904656649
 20
214.7111603847636
 30
0.0
 11
378.3192564603312
 21
214.7111604789384
 31
0.0
  0
ENDSEC
  0
EOF
