  0
SECTION
  2
HEADER
  9
$ACADVER
  1
AC1009
  9
$DWGCODEPAGE
  3
mac-roman
  9
$INSBASE
 10
0.0
 20
0.0
 30
0.0
  9
$EXTMIN
 10
820.6547643171923
 20
-1507.953129432841
 30
0.0
  9
$EXTMAX
 10
1173.254832258575
 20
-1356.645119155305
 30
0.0
  9
$LIMMIN
 10
0.0
 20
0.0
  9
$LIMMAX
 10
12.0
 20
9.0
  9
$ORTHOMODE
 70
     0
  9
$REGENMODE
 70
     1
  9
$FILLMODE
 70
     1
  9
$QTEXTMODE
 70
     0
  9
$MIRRTEXT
 70
     1
  9
$DRAGMODE
 70
     2
  9
$LTSCALE
 40
1.0
  9
$OSMODE
 70
    37
  9
$ATTMODE
 70
     1
  9
$TEXTSIZE
 40
0.2
  9
$TRACEWID
 40
0.05
  9
$TEXTSTYLE
  7
STANDARD
  9
$CLAYER
  8
0
  9
$CELTYPE
  6
BYLAYER
  9
$CECOLOR
 62
   256
  9
$DIMSCALE
 40
1.0
  9
$DIMASZ
 40
0.18
  9
$DIMEXO
 40
0.0625
  9
$DIMDLI
 40
0.38
  9
$DIMRND
 40
0.0
  9
$DIMDLE
 40
0.0
  9
$DIMEXE
 40
0.18
  9
$DIMTP
 40
0.0
  9
$DIMTM
 40
0.0
  9
$DIMTXT
 40
0.18
  9
$DIMCEN
 40
0.09
  9
$DIMTSZ
 40
0.0
  9
$DIMTOL
 70
     0
  9
$DIMLIM
 70
     0
  9
$DIMTIH
 70
     1
  9
$DIMTOH
 70
     1
  9
$DIMSE1
 70
     0
  9
$DIMSE2
 70
     0
  9
$DIMTAD
 70
     0
  9
$DIMZIN
 70
     0
  9
$DIMBLK
  1

  9
$DIMASO
 70
     1
  9
$DIMSHO
 70
     1
  9
$DIMPOST
  1

  9
$DIMAPOST
  1

  9
$DIMALT
 70
     0
  9
$DIMALTD
 70
     2
  9
$DIMALTF
 40
25.4
  9
$DIMLFAC
 40
1.0
  9
$DIMTOFL
 70
     0
  9
$DIMTVP
 40
0.0
  9
$DIMTIX
 70
     0
  9
$DIMSOXD
 70
     0
  9
$DIMSAH
 70
     0
  9
$DIMBLK1
  1

  9
$DIMBLK2
  1

  9
$DIMSTYLE
  2
STANDARD
  9
$DIMCLRD
 70
     0
  9
$DIMCLRE
 70
     0
  9
$DIMCLRT
 70
     0
  9
$DIMTFAC
 40
1.0
  9
$DIMGAP
 40
0.09
  9
$LUNITS
 70
     2
  9
$LUPREC
 70
     3
  9
$SKETCHINC
 40
0.1
  9
$FILLETRAD
 40
0.5
  9
$AUNITS
 70
     0
  9
$AUPREC
 70
     0
  9
$MENU
  1
.
  9
$ELEVATION
 40
0.0
  9
$PELEVATION
 40
0.0
  9
$THICKNESS
 40
0.0
  9
$LIMCHECK
 70
     0
  9
$CHAMFERA
 40
0.0
  9
$CHAMFERB
 40
0.0
  9
$SKPOLY
 70
     0
  9
$TDCREATE
 40
2457967.868877315
  9
$TDUPDATE
 40
2457967.868888889
  9
$TDINDWG
 40
0.0000000116
  9
$TDUSRTIMER
 40
0.0000000116
  9
$USRTIMER
 70
     1
  9
$ANGBASE
 50
0.0
  9
$ANGDIR
 70
     0
  9
$PDMODE
 70
     0
  9
$PDSIZE
 40
0.0
  9
$PLINEWID
 40
0.0
  9
$COORDS
 70
     1
  9
$SPLFRAME
 70
     0
  9
$SPLINETYPE
 70
     6
  9
$SPLINESEGS
 70
     8
  9
$ATTDIA
 70
     0
  9
$ATTREQ
 70
     1
  9
$HANDLING
 70
     1
  9
$HANDSEED
  5
2AB
  9
$SURFTAB1
 70
     6
  9
$SURFTAB2
 70
     6
  9
$SURFTYPE
 70
     6
  9
$SURFU
 70
     6
  9
$SURFV
 70
     6
  9
$UCSNAME
  2

  9
$UCSORG
 10
0.0
 20
0.0
 30
0.0
  9
$UCSXDIR
 10
1.0
 20
0.0
 30
0.0
  9
$UCSYDIR
 10
0.0
 20
1.0
 30
0.0
  9
$PUCSNAME
  2

  9
$PUCSORG
 10
0.0
 20
0.0
 30
0.0
  9
$PUCSXDIR
 10
1.0
 20
0.0
 30
0.0
  9
$PUCSYDIR
 10
0.0
 20
1.0
 30
0.0
  9
$USERI1
 70
     0
  9
$USERI2
 70
     0
  9
$USERI3
 70
     0
  9
$USERI4
 70
     0
  9
$USERI5
 70
     0
  9
$USERR1
 40
0.0
  9
$USERR2
 40
0.0
  9
$USERR3
 40
0.0
  9
$USERR4
 40
0.0
  9
$USERR5
 40
0.0
  9
$WORLDVIEW
 70
     1
  9
$SHADEDGE
 70
     3
  9
$SHADEDIF
 70
    70
  9
$TILEMODE
 70
     1
  9
$MAXACTVP
 70
    64
  9
$PLIMCHECK
 70
     0
  9
$PEXTMIN
 10
1.000000000000000E+20
 20
1.000000000000000E+20
 30
1.000000000000000E+20
  9
$PEXTMAX
 10
-1.000000000000000E+20
 20
-1.000000000000000E+20
 30
-1.000000000000000E+20
  9
$PLIMMIN
 10
0.0
 20
0.0
  9
$PLIMMAX
 10
12.0
 20
9.0
  9
$UNITMODE
 70
     0
  9
$VISRETAIN
 70
     1
  9
$PLINEGEN
 70
     0
  9
$PSLTSCALE
 70
     1
  0
ENDSEC
  0
SECTION
  2
TABLES
  0
TABLE
  2
VPORT
 70
     1
  0
VPORT
  2
*ACTIVE
 70
     0
 10
0.0
 20
0.0
 11
1.0
 21
1.0
 12
996.9547982878838
 22
-1432.299124294073
 13
0.0
 23
0.0
 14
0.5
 24
0.5
 15
0.5
 25
0.5
 16
0.0
 26
0.0
 36
1.0
 17
0.0
 27
0.0
 37
0.0
 40
154.3341704830873
 41
2.330346339857531
 42
50.0
 43
0.0
 44
0.0
 50
0.0
 51
0.0
 71
     0
 72
   100
 73
     1
 74
     3
 75
     0
 76
     0
 77
     0
 78
     0
  0
ENDTAB
  0
TABLE
  2
LTYPE
 70
     1
  0
LTYPE
  2
CONTINUOUS
 70
     0
  3
Solid line
 72
    65
 73
     0
 40
0.0
  0
ENDTAB
  0
TABLE
  2
LAYER
 70
     2
  0
LAYER
  2
0
 70
     0
 62
     7
  6
CONTINUOUS
  0
LAYER
  2
MAKE2D$VISIBLE$LINES
 70
     0
 62
     7
  6
CONTINUOUS
  0
ENDTAB
  0
TABLE
  2
STYLE
 70
     1
  0
STYLE
  2
STANDARD
 70
     0
 40
0.0
 41
1.0
 50
0.0
 71
     0
 42
0.2
  3
txt
  4

  0
ENDTAB
  0
TABLE
  2
VIEW
 70
     0
  0
ENDTAB
  0
TABLE
  2
UCS
 70
     0
  0
ENDTAB
  0
TABLE
  2
APPID
 70
     1
  0
APPID
  2
ACAD
 70
     0
  0
ENDTAB
  0
TABLE
  2
DIMSTYLE
 70
     1
  0
DIMSTYLE
  2
STANDARD
 70
     0
  3

  4

  5

  6

  7

 40
1.0
 41
0.18
 42
0.0625
 43
0.38
 44
0.18
 45
0.0
 46
0.0
 47
0.0
 48
0.0
140
0.18
141
0.09
142
0.0
143
25.4
144
1.0
145
0.0
146
1.0
147
0.09
 71
     0
 72
     0
 73
     1
 74
     1
 75
     0
 76
     0
 77
     0
 78
     0
170
     0
171
     2
172
     0
173
     0
174
     0
175
     0
176
     0
177
     0
178
     0
  0
ENDTAB
  0
ENDSEC
  0
SECTION
  2
BLOCKS
  0
BLOCK
  8
0
  2
$MODEL_SPACE
 70
     0
 10
0.0
 20
0.0
 30
0.0
  3
$MODEL_SPACE
  1

  0
ENDBLK
  5
21
  8
0
  0
BLOCK
 67
     1
  8
0
  2
$PAPER_SPACE
 70
     0
 10
0.0
 20
0.0
 30
0.0
  3
$PAPER_SPACE
  1

  0
ENDBLK
  5
1D
 67
     1
  8
0
  0
ENDSEC
  0
SECTION
  2
ENTITIES
  0
CIRCLE
  5
6F
  8
MAKE2D$VISIBLE$LINES
 10
907.5495977284706
 20
-1452.742352036159
 30
0.0
 40
1.75
  0
CIRCLE
  5
70
  8
MAKE2D$VISIBLE$LINES
 10
907.5495977284704
 20
-1432.29235203616
 30
0.0
 40
1.750000000000227
  0
CIRCLE
  5
71
  8
MAKE2D$VISIBLE$LINES
 10
1119.96006678868
 20
-1432.292352036159
 30
0.0
 40
1.75
  0
CIRCLE
  5
72
  8
MAKE2D$VISIBLE$LINES
 10
1119.960066788679
 20
-1452.742352036158
 30
0.0
 40
1.749999999999773
  0
LINE
  5
73
  8
MAKE2D$VISIBLE$LINES
 10
1061.653607258575
 20
-1469.209850299785
 30
0.0
 11
1071.241907258575
 21
-1469.209850299785
 31
0.0
  0
LINE
  5
74
  8
MAKE2D$VISIBLE$LINES
 10
1071.241907258575
 20
-1469.209850299785
 30
0.0
 11
1071.241907258575
 21
-1466.526396825364
 31
0.0
  0
LINE
  5
75
  8
MAKE2D$VISIBLE$LINES
 10
1071.241907258575
 20
-1466.526396825364
 30
0.0
 11
1061.653607258575
 21
-1466.526396825364
 31
0.0
  0
LINE
  5
76
  8
MAKE2D$VISIBLE$LINES
 10
1061.653607258575
 20
-1466.526396825364
 30
0.0
 11
1061.653607258575
 21
-1469.209850299785
 31
0.0
  0
LINE
  5
77
  8
MAKE2D$VISIBLE$LINES
 10
970.2136072585747
 20
-1469.209850299786
 30
0.0
 11
979.8019072585748
 21
-1469.209850299786
 31
0.0
  0
LINE
  5
78
  8
MAKE2D$VISIBLE$LINES
 10
979.8019072585748
 20
-1469.209850299786
 30
0.0
 11
979.8019072585748
 21
-1466.526396825365
 31
0.0
  0
LINE
  5
79
  8
MAKE2D$VISIBLE$LINES
 10
979.8019072585748
 20
-1466.526396825365
 30
0.0
 11
970.2136072585747
 21
-1466.526396825365
 31
0.0
  0
LINE
  5
7A
  8
MAKE2D$VISIBLE$LINES
 10
970.2136072585747
 20
-1466.526396825365
 30
0.0
 11
970.2136072585747
 21
-1469.209850299786
 31
0.0
  0
CIRCLE
  5
7B
  8
MAKE2D$VISIBLE$LINES
 10
1081.941757258575
 20
-1469.394630765269
 30
0.0
 40
2.095429411838801
  0
LINE
  5
7C
  8
MAKE2D$VISIBLE$LINES
 10
1016.580682258575
 20
-1391.812723073887
 30
0.0
 11
1026.168982258575
 21
-1391.812723073887
 31
0.0
  0
LINE
  5
7D
  8
MAKE2D$VISIBLE$LINES
 10
1026.168982258575
 20
-1391.812723073887
 30
0.0
 11
1026.168982258575
 21
-1382.224523073887
 31
0.0
  0
LINE
  5
7E
  8
MAKE2D$VISIBLE$LINES
 10
1026.168982258575
 20
-1382.224523073887
 30
0.0
 11
1016.580682258575
 21
-1382.224523073887
 31
0.0
  0
LINE
  5
7F
  8
MAKE2D$VISIBLE$LINES
 10
1016.580682258575
 20
-1382.224523073887
 30
0.0
 11
1016.580682258575
 21
-1391.812723073887
 31
0.0
  0
LINE
  5
80
  8
MAKE2D$VISIBLE$LINES
 10
1001.340682258575
 20
-1391.812723073887
 30
0.0
 11
1010.928982258575
 21
-1391.812723073887
 31
0.0
  0
LINE
  5
81
  8
MAKE2D$VISIBLE$LINES
 10
1010.928982258575
 20
-1391.812723073887
 30
0.0
 11
1010.928982258575
 21
-1382.224523073887
 31
0.0
  0
LINE
  5
82
  8
MAKE2D$VISIBLE$LINES
 10
1010.928982258575
 20
-1382.224523073887
 30
0.0
 11
1001.340682258575
 21
-1382.224523073887
 31
0.0
  0
LINE
  5
83
  8
MAKE2D$VISIBLE$LINES
 10
1001.340682258575
 20
-1382.224523073887
 30
0.0
 11
1001.340682258575
 21
-1391.812723073887
 31
0.0
  0
CIRCLE
  5
84
  8
MAKE2D$VISIBLE$LINES
 10
1013.754832258575
 20
-1395.908623073887
 30
0.0
 40
2.095429411839309
  0
CIRCLE
  5
85
  8
MAKE2D$VISIBLE$LINES
 10
1031.534832258575
 20
-1398.448623073887
 30
0.0
 40
3.500000000000227
  0
CIRCLE
  5
86
  8
MAKE2D$VISIBLE$LINES
 10
995.9748322585749
 20
-1398.448623073886
 30
0.0
 40
3.5
  0
LINE
  5
87
  8
MAKE2D$VISIBLE$LINES
 10
1061.653607258575
 20
-1480.155223562575
 30
0.0
 11
1071.241907258575
 21
-1480.155223562575
 31
0.0
  0
LINE
  5
88
  8
MAKE2D$VISIBLE$LINES
 10
1071.241907258575
 20
-1480.155223562575
 30
0.0
 11
1071.241907258575
 21
-1470.567023562575
 31
0.0
  0
LINE
  5
89
  8
MAKE2D$VISIBLE$LINES
 10
1071.241907258575
 20
-1470.567023562575
 30
0.0
 11
1061.653607258575
 21
-1470.567023562575
 31
0.0
  0
LINE
  5
8A
  8
MAKE2D$VISIBLE$LINES
 10
1061.653607258575
 20
-1470.567023562575
 30
0.0
 11
1061.653607258575
 21
-1480.155223562575
 31
0.0
  0
LINE
  5
8B
  8
MAKE2D$VISIBLE$LINES
 10
1031.173607258575
 20
-1480.155223562575
 30
0.0
 11
1040.761907258575
 21
-1480.155223562575
 31
0.0
  0
LINE
  5
8C
  8
MAKE2D$VISIBLE$LINES
 10
1040.761907258575
 20
-1480.155223562575
 30
0.0
 11
1040.761907258575
 21
-1470.567023562575
 31
0.0
  0
LINE
  5
8D
  8
MAKE2D$VISIBLE$LINES
 10
1040.761907258575
 20
-1470.567023562575
 30
0.0
 11
1031.173607258575
 21
-1470.567023562575
 31
0.0
  0
LINE
  5
8E
  8
MAKE2D$VISIBLE$LINES
 10
1031.173607258575
 20
-1470.567023562575
 30
0.0
 11
1031.173607258575
 21
-1480.155223562575
 31
0.0
  0
LINE
  5
8F
  8
MAKE2D$VISIBLE$LINES
 10
1000.693607258575
 20
-1480.155223562575
 30
0.0
 11
1010.281907258575
 21
-1480.155223562576
 31
0.0
  0
LINE
  5
90
  8
MAKE2D$VISIBLE$LINES
 10
1010.281907258575
 20
-1480.155223562576
 30
0.0
 11
1010.281907258575
 21
-1470.567023562576
 31
0.0
  0
LINE
  5
91
  8
MAKE2D$VISIBLE$LINES
 10
1010.281907258575
 20
-1470.567023562576
 30
0.0
 11
1000.693607258575
 21
-1470.567023562575
 31
0.0
  0
LINE
  5
92
  8
MAKE2D$VISIBLE$LINES
 10
1000.693607258575
 20
-1470.567023562575
 30
0.0
 11
1000.693607258575
 21
-1480.155223562575
 31
0.0
  0
LINE
  5
93
  8
MAKE2D$VISIBLE$LINES
 10
970.2136072585752
 20
-1480.155223562575
 30
0.0
 11
979.801907258575
 21
-1480.155223562575
 31
0.0
  0
LINE
  5
94
  8
MAKE2D$VISIBLE$LINES
 10
979.801907258575
 20
-1480.155223562575
 30
0.0
 11
979.801907258575
 21
-1470.567023562575
 31
0.0
  0
LINE
  5
95
  8
MAKE2D$VISIBLE$LINES
 10
979.801907258575
 20
-1470.567023562575
 30
0.0
 11
970.2136072585752
 21
-1470.567023562575
 31
0.0
  0
LINE
  5
96
  8
MAKE2D$VISIBLE$LINES
 10
970.2136072585752
 20
-1470.567023562575
 30
0.0
 11
970.2136072585752
 21
-1480.155223562575
 31
0.0
  0
CIRCLE
  5
97
  8
MAKE2D$VISIBLE$LINES
 10
1051.080757258575
 20
-1475.361123562575
 30
0.0
 40
3.5
  0
CIRCLE
  5
98
  8
MAKE2D$VISIBLE$LINES
 10
1020.727757258575
 20
-1475.361123562575
 30
0.0
 40
3.499999999999886
  0
CIRCLE
  5
99
  8
MAKE2D$VISIBLE$LINES
 10
990.2477572585749
 20
-1475.361123562575
 30
0.0
 40
3.500000000000227
  0
CIRCLE
  5
9A
  8
MAKE2D$VISIBLE$LINES
 10
959.7677572585749
 20
-1475.361123562576
 30
0.0
 40
3.500000000000227
  0
CIRCLE
  5
9B
  8
MAKE2D$VISIBLE$LINES
 10
915.1748322585748
 20
-1398.448623073887
 30
0.0
 40
3.500000000000114
  0
CIRCLE
  5
9C
  8
MAKE2D$VISIBLE$LINES
 10
950.7348322585749
 20
-1398.448623073887
 30
0.0
 40
3.5
  0
CIRCLE
  5
9D
  8
MAKE2D$VISIBLE$LINES
 10
932.9548322585752
 20
-1395.908623073887
 30
0.0
 40
2.095429411838801
  0
LINE
  5
9E
  8
MAKE2D$VISIBLE$LINES
 10
920.5406822585751
 20
-1391.812723073887
 30
0.0
 11
930.128982258575
 21
-1391.812723073887
 31
0.0
  0
LINE
  5
9F
  8
MAKE2D$VISIBLE$LINES
 10
930.128982258575
 20
-1391.812723073887
 30
0.0
 11
930.128982258575
 21
-1382.224523073887
 31
0.0
  0
LINE
  5
A0
  8
MAKE2D$VISIBLE$LINES
 10
930.128982258575
 20
-1382.224523073887
 30
0.0
 11
920.5406822585751
 21
-1382.224523073887
 31
0.0
  0
LINE
  5
A1
  8
MAKE2D$VISIBLE$LINES
 10
920.5406822585751
 20
-1382.224523073887
 30
0.0
 11
920.5406822585751
 21
-1391.812723073887
 31
0.0
  0
LINE
  5
A2
  8
MAKE2D$VISIBLE$LINES
 10
935.7806822585751
 20
-1391.812723073887
 30
0.0
 11
945.368982258575
 21
-1391.812723073887
 31
0.0
  0
LINE
  5
A3
  8
MAKE2D$VISIBLE$LINES
 10
945.368982258575
 20
-1391.812723073887
 30
0.0
 11
945.368982258575
 21
-1382.224523073887
 31
0.0
  0
LINE
  5
A4
  8
MAKE2D$VISIBLE$LINES
 10
945.368982258575
 20
-1382.224523073887
 30
0.0
 11
935.7806822585751
 21
-1382.224523073887
 31
0.0
  0
LINE
  5
A5
  8
MAKE2D$VISIBLE$LINES
 10
935.7806822585751
 20
-1382.224523073887
 30
0.0
 11
935.7806822585751
 21
-1391.812723073887
 31
0.0
  0
CIRCLE
  5
A6
  8
MAKE2D$VISIBLE$LINES
 10
1076.774832258575
 20
-1398.448623073887
 30
0.0
 40
3.500000000000227
  0
CIRCLE
  5
A7
  8
MAKE2D$VISIBLE$LINES
 10
1112.334832258575
 20
-1398.448623073887
 30
0.0
 40
3.5
  0
CIRCLE
  5
A8
  8
MAKE2D$VISIBLE$LINES
 10
1094.554832258575
 20
-1395.908623073887
 30
0.0
 40
2.095429411839202
  0
LINE
  5
A9
  8
MAKE2D$VISIBLE$LINES
 10
1082.140682258575
 20
-1391.812723073887
 30
0.0
 11
1091.728982258575
 21
-1391.812723073887
 31
0.0
  0
LINE
  5
AA
  8
MAKE2D$VISIBLE$LINES
 10
1091.728982258575
 20
-1391.812723073887
 30
0.0
 11
1091.728982258575
 21
-1382.224523073887
 31
0.0
  0
LINE
  5
AB
  8
MAKE2D$VISIBLE$LINES
 10
1091.728982258575
 20
-1382.224523073887
 30
0.0
 11
1082.140682258575
 21
-1382.224523073887
 31
0.0
  0
LINE
  5
AC
  8
MAKE2D$VISIBLE$LINES
 10
1082.140682258575
 20
-1382.224523073887
 30
0.0
 11
1082.140682258575
 21
-1391.812723073887
 31
0.0
  0
LINE
  5
AD
  8
MAKE2D$VISIBLE$LINES
 10
1097.380682258575
 20
-1391.812723073887
 30
0.0
 11
1106.968982258575
 21
-1391.812723073887
 31
0.0
  0
LINE
  5
AE
  8
MAKE2D$VISIBLE$LINES
 10
1106.968982258575
 20
-1391.812723073887
 30
0.0
 11
1106.968982258575
 21
-1382.224523073887
 31
0.0
  0
LINE
  5
AF
  8
MAKE2D$VISIBLE$LINES
 10
1106.968982258575
 20
-1382.224523073887
 30
0.0
 11
1097.380682258575
 21
-1382.224523073887
 31
0.0
  0
LINE
  5
B0
  8
MAKE2D$VISIBLE$LINES
 10
1097.380682258575
 20
-1382.224523073887
 30
0.0
 11
1097.380682258575
 21
-1391.812723073887
 31
0.0
  0
CIRCLE
  5
B1
  8
MAKE2D$VISIBLE$LINES
 10
881.3295977286325
 20
-1432.29235203616
 30
0.0
 40
1.750000000000227
  0
CIRCLE
  5
B2
  8
MAKE2D$VISIBLE$LINES
 10
881.3295977286328
 20
-1452.742352036159
 30
0.0
 40
1.749999999999886
  0
CIRCLE
  5
B3
  8
MAKE2D$VISIBLE$LINES
 10
1146.180066788517
 20
-1452.742352036158
 30
0.0
 40
1.75
  0
CIRCLE
  5
B4
  8
MAKE2D$VISIBLE$LINES
 10
1146.180066788517
 20
-1432.292352036158
 30
0.0
 40
1.750000000000227
  0
LINE
  5
B5
  8
MAKE2D$VISIBLE$LINES
 10
1072.776757258575
 20
-1476.639123562575
 30
0.0
 11
1078.406757258575
 21
-1476.639123562575
 31
0.0
  0
LINE
  5
B6
  8
MAKE2D$VISIBLE$LINES
 10
1078.406757258575
 20
-1476.639123562575
 30
0.0
 11
1078.406757258575
 21
-1468.749123562575
 31
0.0
  0
LINE
  5
B7
  8
MAKE2D$VISIBLE$LINES
 10
1078.406757258575
 20
-1468.749123562575
 30
0.0
 11
1072.776757258575
 21
-1468.749123562575
 31
0.0
  0
LINE
  5
B8
  8
MAKE2D$VISIBLE$LINES
 10
1072.776757258575
 20
-1468.749123562575
 30
0.0
 11
1072.776757258575
 21
-1476.639123562575
 31
0.0
  0
CIRCLE
  5
B9
  8
MAKE2D$VISIBLE$LINES
 10
846.524791795263
 20
-1382.515146633375
 30
0.0
 40
3.150000000000205
  0
ARC
  5
BA
  8
MAKE2D$VISIBLE$LINES
 10
846.5247968042552
 20
-1382.515142825474
 30
0.0
 40
25.87003248706311
 50
180.0000084335683
 51
254.4851362561208
  0
ARC
  5
BB
  8
MAKE2D$VISIBLE$LINES
 10
846.5247918036367
 20
-1382.515146641749
 30
0.0
 40
25.87002748644443
 50
90.0000000569135
 51
179.9999999814548
  0
LINE
  5
BC
  8
MAKE2D$VISIBLE$LINES
 10
846.5247917779393
 20
-1356.645119155305
 30
0.0
 11
864.2555600078485
 21
-1356.64512312888
 31
0.0
  0
ARC
  5
BD
  8
MAKE2D$VISIBLE$LINES
 10
879.2551959516043
 20
-1356.478460695622
 30
0.0
 40
15.00056181654089
 50
180.6365928566322
 51
269.9996342092011
  0
LINE
  5
BE
  8
MAKE2D$VISIBLE$LINES
 10
879.25510018421
 20
-1371.479022511858
 30
0.0
 11
1013.754966221392
 21
-1371.479022511857
 31
0.0
  0
LINE
  5
BF
  8
MAKE2D$VISIBLE$LINES
 10
1013.754966221393
 20
-1371.479022511857
 30
0.0
 11
1148.254832258575
 21
-1371.479022511857
 31
0.0
  0
ARC
  5
C0
  8
MAKE2D$VISIBLE$LINES
 10
1148.254736496097
 20
-1356.478460700593
 30
0.0
 40
15.00056181157
 50
270.0003657720226
 51
359.3634071997507
  0
LINE
  5
C1
  8
MAKE2D$VISIBLE$LINES
 10
1163.254372435046
 20
-1356.645123119035
 30
0.0
 11
1166.754832258575
 21
-1356.645123119034
 31
0.0
  0
LINE
  5
C2
  8
MAKE2D$VISIBLE$LINES
 10
1166.754832258574
 20
-1356.645123119034
 30
0.0
 11
1166.899099946208
 21
-1356.647586722099
 31
0.0
  0
LINE
  5
C3
  8
MAKE2D$VISIBLE$LINES
 10
1166.899099946208
 20
-1356.647586722099
 30
0.0
 11
1167.044591901442
 21
-1356.655065051978
 31
0.0
  0
LINE
  5
C4
  8
MAKE2D$VISIBLE$LINES
 10
1167.044591901442
 20
-1356.655065051978
 30
0.0
 11
1167.191212826688
 21
-1356.66768628981
 31
0.0
  0
LINE
  5
C5
  8
MAKE2D$VISIBLE$LINES
 10
1167.191212826688
 20
-1356.66768628981
 30
0.0
 11
1167.338862030786
 21
-1356.685574032906
 31
0.0
  0
LINE
  5
C6
  8
MAKE2D$VISIBLE$LINES
 10
1167.338862030786
 20
-1356.685574032906
 30
0.0
 11
1167.487433492124
 21
-1356.708846723747
 31
0.0
  0
LINE
  5
C7
  8
MAKE2D$VISIBLE$LINES
 10
1167.487433492124
 20
-1356.708846723747
 30
0.0
 11
1167.636815949129
 21
-1356.737617072352
 31
0.0
  0
LINE
  5
C8
  8
MAKE2D$VISIBLE$LINES
 10
1167.636815949129
 20
-1356.737617072352
 30
0.0
 11
1167.786893019206
 21
-1356.77199147529
 31
0.0
  0
LINE
  5
C9
  8
MAKE2D$VISIBLE$LINES
 10
1167.786893019206
 20
-1356.77199147529
 30
0.0
 11
1167.93754334706
 21
-1356.812069434869
 31
0.0
  0
LINE
  5
CA
  8
MAKE2D$VISIBLE$LINES
 10
1167.93754334706
 20
-1356.812069434869
 30
0.0
 11
1168.088640783073
 21
-1356.857942982273
 31
0.0
  0
LINE
  5
CB
  8
MAKE2D$VISIBLE$LINES
 10
1168.088640783073
 20
-1356.857942982273
 30
0.0
 11
1168.240054592294
 21
-1356.909696108607
 31
0.0
  0
LINE
  5
CC
  8
MAKE2D$VISIBLE$LINES
 10
1168.240054592294
 20
-1356.909696108607
 30
0.0
 11
1168.391649694259
 21
-1356.967404208017
 31
0.0
  0
LINE
  5
CD
  8
MAKE2D$VISIBLE$LINES
 10
1168.391649694259
 20
-1356.967404208017
 30
0.0
 11
1168.543286933693
 21
-1357.031133537165
 31
0.0
  0
LINE
  5
CE
  8
MAKE2D$VISIBLE$LINES
 10
1168.543286933693
 20
-1357.031133537165
 30
0.0
 11
1168.694823381807
 21
-1357.100940695477
 31
0.0
  0
LINE
  5
CF
  8
MAKE2D$VISIBLE$LINES
 10
1168.694823381807
 20
-1357.100940695477
 30
0.0
 11
1168.846112667655
 21
-1357.176872130618
 31
0.0
  0
LINE
  5
D0
  8
MAKE2D$VISIBLE$LINES
 10
1168.846112667655
 20
-1357.176872130618
 30
0.0
 11
1168.997005338705
 21
-1357.258963673661
 31
0.0
  0
LINE
  5
D1
  8
MAKE2D$VISIBLE$LINES
 10
1168.997005338705
 20
-1357.258963673661
 30
0.0
 11
1169.147349249471
 21
-1357.34724010841
 31
0.0
  0
LINE
  5
D2
  8
MAKE2D$VISIBLE$LINES
 10
1169.147349249471
 20
-1357.34724010841
 30
0.0
 11
1169.29698997674
 21
-1357.441714779215
 31
0.0
  0
LINE
  5
D3
  8
MAKE2D$VISIBLE$LINES
 10
1169.29698997674
 20
-1357.441714779215
 30
0.0
 11
1169.445771259627
 21
-1357.542389241467
 31
0.0
  0
LINE
  5
D4
  8
MAKE2D$VISIBLE$LINES
 10
1169.445771259627
 20
-1357.542389241467
 30
0.0
 11
1169.593535462386
 21
-1357.649252958805
 31
0.0
  0
LINE
  5
D5
  8
MAKE2D$VISIBLE$LINES
 10
1169.593535462386
 20
-1357.649252958805
 30
0.0
 11
1169.740124057583
 21
-1357.762283050737
 31
0.0
  0
LINE
  5
D6
  8
MAKE2D$VISIBLE$LINES
 10
1169.740124057583
 20
-1357.762283050737
 30
0.0
 11
1169.88537812701
 21
-1357.881444094123
 31
0.0
  0
LINE
  5
D7
  8
MAKE2D$VISIBLE$LINES
 10
1169.88537812701
 20
-1357.881444094123
 30
0.0
 11
1170.029138877396
 21
-1358.00668798156
 31
0.0
  0
LINE
  5
D8
  8
MAKE2D$VISIBLE$LINES
 10
1170.029138877396
 20
-1358.00668798156
 30
0.0
 11
1170.17124816778
 21
-1358.137953839297
 31
0.0
  0
LINE
  5
D9
  8
MAKE2D$VISIBLE$LINES
 10
1170.17124816778
 20
-1358.137953839297
 30
0.0
 11
1170.311549045177
 21
-1358.275168006848
 31
0.0
  0
LINE
  5
DA
  8
MAKE2D$VISIBLE$LINES
 10
1170.311549045177
 20
-1358.275168006848
 30
0.0
 11
1170.449886285005
 21
-1358.418244079947
 31
0.0
  0
LINE
  5
DB
  8
MAKE2D$VISIBLE$LINES
 10
1170.449886285005
 20
-1358.418244079947
 30
0.0
 11
1170.5861069326
 21
-1358.567083017945
 31
0.0
  0
LINE
  5
DC
  8
MAKE2D$VISIBLE$LINES
 10
1170.5861069326
 20
-1358.567083017945
 30
0.0
 11
1170.720060842036
 21
-1358.721573316187
 31
0.0
  0
LINE
  5
DD
  8
MAKE2D$VISIBLE$LINES
 10
1170.720060842036
 20
-1358.721573316187
 30
0.0
 11
1170.851601208433
 21
-1358.881591243286
 31
0.0
  0
LINE
  5
DE
  8
MAKE2D$VISIBLE$LINES
 10
1170.851601208433
 20
-1358.881591243286
 30
0.0
 11
1170.980585089909
 21
-1359.047001142623
 31
0.0
  0
LINE
  5
DF
  8
MAKE2D$VISIBLE$LINES
 10
1170.980585089909
 20
-1359.047001142623
 30
0.0
 11
1171.106873915365
 21
-1359.217655796777
 31
0.0
  0
LINE
  5
E0
  8
MAKE2D$VISIBLE$LINES
 10
1171.106873915365
 20
-1359.217655796777
 30
0.0
 11
1171.230333974392
 21
-1359.39339685299
 31
0.0
  0
LINE
  5
E1
  8
MAKE2D$VISIBLE$LINES
 10
1171.230333974392
 20
-1359.39339685299
 30
0.0
 11
1171.350836885701
 21
-1359.574055307169
 31
0.0
  0
LINE
  5
E2
  8
MAKE2D$VISIBLE$LINES
 10
1171.350836885701
 20
-1359.574055307169
 30
0.0
 11
1171.46826004065
 21
-1359.759452043361
 31
0.0
  0
LINE
  5
E3
  8
MAKE2D$VISIBLE$LINES
 10
1171.46826004065
 20
-1359.759452043361
 30
0.0
 11
1171.582487018672
 21
-1359.949398425113
 31
0.0
  0
LINE
  5
E4
  8
MAKE2D$VISIBLE$LINES
 10
1171.582487018672
 20
-1359.949398425113
 30
0.0
 11
1171.693407971631
 21
-1360.143696934606
 31
0.0
  0
LINE
  5
E5
  8
MAKE2D$VISIBLE$LINES
 10
1171.693407971631
 20
-1360.143696934606
 30
0.0
 11
1171.800919974479
 21
-1360.342141855043
 31
0.0
  0
LINE
  5
E6
  8
MAKE2D$VISIBLE$LINES
 10
1171.800919974479
 20
-1360.342141855043
 30
0.0
 11
1171.904927339836
 21
-1360.544519991328
 31
0.0
  0
LINE
  5
E7
  8
MAKE2D$VISIBLE$LINES
 10
1171.904927339836
 20
-1360.544519991328
 30
0.0
 11
1172.005341894534
 21
-1360.750611423807
 31
0.0
  0
LINE
  5
E8
  8
MAKE2D$VISIBLE$LINES
 10
1172.005341894534
 20
-1360.750611423807
 30
0.0
 11
1172.102083216486
 21
-1360.96019028951
 31
0.0
  0
LINE
  5
E9
  8
MAKE2D$VISIBLE$LINES
 10
1172.102083216486
 20
-1360.96019028951
 30
0.0
 11
1172.195078830654
 21
-1361.173025585184
 31
0.0
  0
LINE
  5
EA
  8
MAKE2D$VISIBLE$LINES
 10
1172.195078830654
 20
-1361.173025585184
 30
0.0
 11
1172.284264363271
 21
-1361.388881986259
 31
0.0
  0
LINE
  5
EB
  8
MAKE2D$VISIBLE$LINES
 10
1172.284264363271
 20
-1361.388881986259
 30
0.0
 11
1172.369583653878
 21
-1361.607520675843
 31
0.0
  0
LINE
  5
EC
  8
MAKE2D$VISIBLE$LINES
 10
1172.369583653878
 20
-1361.607520675843
 30
0.0
 11
1172.450988825133
 21
-1361.828700177854
 31
0.0
  0
LINE
  5
ED
  8
MAKE2D$VISIBLE$LINES
 10
1172.450988825133
 20
-1361.828700177854
 30
0.0
 11
1172.528440310729
 21
-1362.052177188475
 31
0.0
  0
LINE
  5
EE
  8
MAKE2D$VISIBLE$LINES
 10
1172.528440310729
 20
-1362.052177188475
 30
0.0
 11
1172.601906842142
 21
-1362.277707400296
 31
0.0
  0
LINE
  5
EF
  8
MAKE2D$VISIBLE$LINES
 10
1172.601906842142
 20
-1362.277707400296
 30
0.0
 11
1172.671365395281
 21
-1362.505046313687
 31
0.0
  0
LINE
  5
F0
  8
MAKE2D$VISIBLE$LINES
 10
1172.671365395281
 20
-1362.505046313687
 30
0.0
 11
1172.736801098438
 21
-1362.733950030238
 31
0.0
  0
LINE
  5
F1
  8
MAKE2D$VISIBLE$LINES
 10
1172.736801098438
 20
-1362.733950030238
 30
0.0
 11
1172.798207103262
 21
-1362.964176023416
 31
0.0
  0
LINE
  5
F2
  8
MAKE2D$VISIBLE$LINES
 10
1172.798207103262
 20
-1362.964176023416
 30
0.0
 11
1172.908941724267
 21
-1363.427636021883
 31
0.0
  0
LINE
  5
F3
  8
MAKE2D$VISIBLE$LINES
 10
1172.908941724267
 20
-1363.427636021883
 30
0.0
 11
1173.003667905331
 21
-1363.893540970582
 31
0.0
  0
LINE
  5
F4
  8
MAKE2D$VISIBLE$LINES
 10
1173.003667905331
 20
-1363.893540970582
 30
0.0
 11
1173.082598980298
 21
-1364.36007149497
 31
0.0
  0
LINE
  5
F5
  8
MAKE2D$VISIBLE$LINES
 10
1173.082598980298
 20
-1364.36007149497
 30
0.0
 11
1173.146053702579
 21
-1364.825492594913
 31
0.0
  0
LINE
  5
F6
  8
MAKE2D$VISIBLE$LINES
 10
1173.146053702579
 20
-1364.825492594913
 30
0.0
 11
1173.19444574346
 21
-1365.288169201265
 31
0.0
  0
LINE
  5
F7
  8
MAKE2D$VISIBLE$LINES
 10
1173.19444574346
 20
-1365.288169201265
 30
0.0
 11
1173.228272324745
 21
-1365.746578740057
 31
0.0
  0
LINE
  5
F8
  8
MAKE2D$VISIBLE$LINES
 10
1173.228272324745
 20
-1365.746578740057
 30
0.0
 11
1173.24810234494
 21
-1366.199320677548
 31
0.0
  0
LINE
  5
F9
  8
MAKE2D$VISIBLE$LINES
 10
1173.24810234494
 20
-1366.199320677548
 30
0.0
 11
1173.254564334985
 21
-1366.645123119035
 31
0.0
  0
LINE
  5
FA
  8
MAKE2D$VISIBLE$LINES
 10
1173.254564334986
 20
-1366.645123119035
 30
0.0
 11
1173.254564334986
 21
-1371.479022511857
 31
0.0
  0
LINE
  5
FB
  8
MAKE2D$VISIBLE$LINES
 10
1173.254564334985
 20
-1371.479022511858
 30
0.0
 11
1173.254832258575
 21
-1420.7053892194
 31
0.0
  0
ARC
  5
FC
  8
MAKE2D$VISIBLE$LINES
 10
834.2551001842089
 20
-1426.713722273419
 30
0.0
 40
20.00000000000091
 50
0.0000000000013028
 51
74.48514468968831
  0
LINE
  5
FD
  8
MAKE2D$VISIBLE$LINES
 10
854.2551001842105
 20
-1497.953129432835
 30
0.0
 11
854.2551001842098
 21
-1426.713722273418
 31
0.0
  0
LINE
  5
FE
  8
MAKE2D$VISIBLE$LINES
 10
1013.754966221393
 20
-1507.953129432841
 30
0.0
 11
864.2551001842112
 21
-1507.953129432841
 31
0.0
  0
ARC
  5
FF
  8
MAKE2D$VISIBLE$LINES
 10
864.2551001842102
 20
-1497.953129432835
 30
0.0
 40
9.999999999999432
 50
180.0
 51
270.0000000000059
  0
LINE
  5
100
  8
MAKE2D$VISIBLE$LINES
 10
1163.254832258575
 20
-1507.953129432841
 30
0.0
 11
1013.754966221393
 21
-1507.953129432841
 31
0.0
  0
LINE
  5
101
  8
MAKE2D$VISIBLE$LINES
 10
1173.254832258575
 20
-1420.7053892194
 30
0.0
 11
1173.254832258575
 21
-1497.953129432885
 31
0.0
  0
ARC
  5
102
  8
MAKE2D$VISIBLE$LINES
 10
1163.254832258574
 20
-1497.95312943284
 30
0.0
 40
10.00000000000114
 50
270.0000000000052
 51
359.9999999997408
  0
LINE
  5
103
  8
MAKE2D$VISIBLE$LINES
 10
1013.754966221393
 20
-1500.903129432842
 30
0.0
 11
988.8049662213928
 21
-1500.903129432841
 31
0.0
  0
LINE
  5
104
  8
MAKE2D$VISIBLE$LINES
 10
988.8049662213928
 20
-1500.903129432841
 30
0.0
 11
988.8049662213928
 21
-1498.003129432841
 31
0.0
  0
LINE
  5
105
  8
MAKE2D$VISIBLE$LINES
 10
988.8049662213928
 20
-1498.003129432841
 30
0.0
 11
1038.704966221393
 21
-1498.003129432841
 31
0.0
  0
LINE
  5
106
  8
MAKE2D$VISIBLE$LINES
 10
1038.704966221393
 20
-1498.003129432841
 30
0.0
 11
1038.704966221393
 21
-1500.903129432842
 31
0.0
  0
LINE
  5
107
  8
MAKE2D$VISIBLE$LINES
 10
1038.704966221393
 20
-1500.903129432842
 30
0.0
 11
1013.754966221393
 21
-1500.903129432842
 31
0.0
  0
LINE
  5
108
  8
MAKE2D$VISIBLE$LINES
 10
1166.204832258575
 20
-1434.716075972349
 30
0.0
 11
1166.204832258575
 21
-1459.666075972349
 31
0.0
  0
LINE
  5
109
  8
MAKE2D$VISIBLE$LINES
 10
1166.204832258575
 20
-1459.666075972349
 30
0.0
 11
1163.304832258575
 21
-1459.666075972349
 31
0.0
  0
LINE
  5
10A
  8
MAKE2D$VISIBLE$LINES
 10
1163.304832258575
 20
-1459.666075972349
 30
0.0
 11
1163.304832258575
 21
-1409.766075972349
 31
0.0
  0
LINE
  5
10B
  8
MAKE2D$VISIBLE$LINES
 10
1163.304832258575
 20
-1409.766075972349
 30
0.0
 11
1166.204832258575
 21
-1409.766075972349
 31
0.0
  0
LINE
  5
10C
  8
MAKE2D$VISIBLE$LINES
 10
1166.204832258575
 20
-1409.766075972349
 30
0.0
 11
1166.204832258575
 21
-1434.716075972349
 31
0.0
  0
LINE
  5
10D
  8
MAKE2D$VISIBLE$LINES
 10
861.30510018421
 20
-1434.716075972349
 30
0.0
 11
861.30510018421
 21
-1409.766075972349
 31
0.0
  0
LINE
  5
10E
  8
MAKE2D$VISIBLE$LINES
 10
861.30510018421
 20
-1409.766075972349
 30
0.0
 11
864.2051001842101
 21
-1409.766075972349
 31
0.0
  0
LINE
  5
10F
  8
MAKE2D$VISIBLE$LINES
 10
864.2051001842101
 20
-1409.766075972349
 30
0.0
 11
864.2051001842101
 21
-1459.666075972349
 31
0.0
  0
LINE
  5
110
  8
MAKE2D$VISIBLE$LINES
 10
864.2051001842101
 20
-1459.666075972349
 30
0.0
 11
861.30510018421
 21
-1459.666075972349
 31
0.0
  0
LINE
  5
111
  8
MAKE2D$VISIBLE$LINES
 10
861.30510018421
 20
-1459.666075972349
 30
0.0
 11
861.30510018421
 21
-1434.716075972349
 31
0.0
  0
LINE
  5
112
  8
MAKE2D$VISIBLE$LINES
 10
1070.273757258575
 20
-1434.209672053637
 30
0.0
 11
1077.861757258575
 21
-1434.209672053637
 31
0.0
  0
LINE
  5
113
  8
MAKE2D$VISIBLE$LINES
 10
1077.861757258575
 20
-1434.209672053637
 30
0.0
 11
1077.861757258575
 21
-1431.787130081304
 31
0.0
  0
LINE
  5
114
  8
MAKE2D$VISIBLE$LINES
 10
1077.861757258575
 20
-1431.787130081304
 30
0.0
 11
1070.273757258575
 21
-1431.787130081304
 31
0.0
  0
LINE
  5
115
  8
MAKE2D$VISIBLE$LINES
 10
1070.273757258575
 20
-1431.787130081304
 30
0.0
 11
1070.273757258575
 21
-1434.209672053637
 31
0.0
  0
LINE
  5
116
  8
MAKE2D$VISIBLE$LINES
 10
1070.273757258575
 20
-1436.663123652411
 30
0.0
 11
1077.861757258575
 21
-1436.663123652411
 31
0.0
  0
LINE
  5
117
  8
MAKE2D$VISIBLE$LINES
 10
1077.861757258575
 20
-1436.663123652411
 30
0.0
 11
1077.861757258575
 21
-1434.240581680078
 31
0.0
  0
LINE
  5
118
  8
MAKE2D$VISIBLE$LINES
 10
1077.861757258575
 20
-1434.240581680078
 30
0.0
 11
1070.273757258575
 21
-1434.240581680078
 31
0.0
  0
LINE
  5
119
  8
MAKE2D$VISIBLE$LINES
 10
1070.273757258575
 20
-1434.240581680078
 30
0.0
 11
1070.273757258575
 21
-1436.663123652411
 31
0.0
  0
LINE
  5
11A
  8
MAKE2D$VISIBLE$LINES
 10
888.3239410282489
 20
-1433.964017572763
 30
0.0
 11
888.0454608346281
 21
-1434.189162522064
 31
0.0
  0
LINE
  5
11B
  8
MAKE2D$VISIBLE$LINES
 10
888.0454608346281
 20
-1434.189162522064
 30
0.0
 11
887.773580687927
 21
-1434.422281142102
 31
0.0
  0
LINE
  5
11C
  8
MAKE2D$VISIBLE$LINES
 10
887.773580687927
 20
-1434.422281142102
 30
0.0
 11
887.5086633030849
 21
-1434.663097819308
 31
0.0
  0
LINE
  5
11D
  8
MAKE2D$VISIBLE$LINES
 10
887.5086633030849
 20
-1434.663097819308
 30
0.0
 11
887.2510546423551
 21
-1434.91131664963
 31
0.0
  0
LINE
  5
11E
  8
MAKE2D$VISIBLE$LINES
 10
887.2510546423551
 20
-1434.91131664963
 30
0.0
 11
887.0010824130763
 21
-1435.166622646986
 31
0.0
  0
LINE
  5
11F
  8
MAKE2D$VISIBLE$LINES
 10
887.0010824130763
 20
-1435.166622646986
 30
0.0
 11
886.7590546792514
 21
-1435.428683074507
 31
0.0
  0
LINE
  5
120
  8
MAKE2D$VISIBLE$LINES
 10
886.7590546792514
 20
-1435.428683074507
 30
0.0
 11
886.5252585992716
 21
-1435.69714888678
 31
0.0
  0
LINE
  5
121
  8
MAKE2D$VISIBLE$LINES
 10
886.5252585992716
 20
-1435.69714888678
 30
0.0
 11
886.2999593006143
 21
-1435.971656269973
 31
0.0
  0
LINE
  5
122
  8
MAKE2D$VISIBLE$LINES
 10
886.2999593006143
 20
-1435.971656269973
 30
0.0
 11
886.0833989006728
 21
-1436.251828265686
 31
0.0
  0
LINE
  5
123
  8
MAKE2D$VISIBLE$LINES
 10
886.0833989006728
 20
-1436.251828265686
 30
0.0
 11
885.875795681087
 21
-1436.53727646346
 31
0.0
  0
LINE
  5
124
  8
MAKE2D$VISIBLE$LINES
 10
885.875795681087
 20
-1436.53727646346
 30
0.0
 11
885.677343421051
 21
-1436.827602746267
 31
0.0
  0
LINE
  5
125
  8
MAKE2D$VISIBLE$LINES
 10
885.677343421051
 20
-1436.827602746267
 30
0.0
 11
885.4882108931424
 21
-1437.122401072913
 31
0.0
  0
LINE
  5
126
  8
MAKE2D$VISIBLE$LINES
 10
885.4882108931424
 20
-1437.122401072913
 30
0.0
 11
885.3085415232555
 21
-1437.421259281163
 31
0.0
  0
LINE
  5
127
  8
MAKE2D$VISIBLE$LINES
 10
885.3085415232555
 20
-1437.421259281163
 30
0.0
 11
885.1384532142864
 21
-1437.723760895452
 31
0.0
  0
LINE
  5
128
  8
MAKE2D$VISIBLE$LINES
 10
885.1384532142864
 20
-1437.723760895452
 30
0.0
 11
884.9780383313371
 21
-1438.029486923478
 31
0.0
  0
LINE
  5
129
  8
MAKE2D$VISIBLE$LINES
 10
884.9780383313371
 20
-1438.029486923478
 30
0.0
 11
884.8273638444085
 21
-1438.338017626437
 31
0.0
  0
LINE
  5
12A
  8
MAKE2D$VISIBLE$LINES
 10
884.8273638444085
 20
-1438.338017626437
 30
0.0
 11
884.6864716228831
 21
-1438.648934248517
 31
0.0
  0
LINE
  5
12B
  8
MAKE2D$VISIBLE$LINES
 10
884.6864716228831
 20
-1438.648934248517
 30
0.0
 11
884.5553788745634
 21
-1438.961820692153
 31
0.0
  0
LINE
  5
12C
  8
MAKE2D$VISIBLE$LINES
 10
884.5553788745634
 20
-1438.961820692153
 30
0.0
 11
884.434078720664
 21
-1439.276265126714
 31
0.0
  0
LINE
  5
12D
  8
MAKE2D$VISIBLE$LINES
 10
884.434078720664
 20
-1439.276265126714
 30
0.0
 11
884.322540896984
 21
-1439.591861519478
 31
0.0
  0
LINE
  5
12E
  8
MAKE2D$VISIBLE$LINES
 10
884.322540896984
 20
-1439.591861519478
 30
0.0
 11
884.2207125704849
 21
-1439.908211079137
 31
0.0
  0
LINE
  5
12F
  8
MAKE2D$VISIBLE$LINES
 10
884.2207125704849
 20
-1439.908211079137
 30
0.0
 11
884.1285192597279
 21
-1440.224923603467
 31
0.0
  0
LINE
  5
130
  8
MAKE2D$VISIBLE$LINES
 10
884.1285192597279
 20
-1440.224923603467
 30
0.0
 11
884.0458658470329
 21
-1440.541618724259
 31
0.0
  0
LINE
  5
131
  8
MAKE2D$VISIBLE$LINES
 10
884.0458658470329
 20
-1440.541618724259
 30
0.0
 11
883.9726376698527
 21
-1440.857927044089
 31
0.0
  0
LINE
  5
132
  8
MAKE2D$VISIBLE$LINES
 10
883.9726376698527
 20
-1440.857927044089
 30
0.0
 11
883.9087016786671
 21
-1441.173491160941
 31
0.0
  0
LINE
  5
133
  8
MAKE2D$VISIBLE$LINES
 10
883.9087016786671
 20
-1441.173491160941
 30
0.0
 11
883.8539076487116
 21
-1441.487966578178
 31
0.0
  0
LINE
  5
134
  8
MAKE2D$VISIBLE$LINES
 10
883.8539076487116
 20
-1441.487966578178
 30
0.0
 11
883.8080894330272
 21
-1441.801022498644
 31
0.0
  0
LINE
  5
135
  8
MAKE2D$VISIBLE$LINES
 10
883.8080894330272
 20
-1441.801022498644
 30
0.0
 11
883.7710662446603
 21
-1442.112342503059
 31
0.0
  0
LINE
  5
136
  8
MAKE2D$VISIBLE$LINES
 10
883.7710662446603
 20
-1442.112342503059
 30
0.0
 11
883.7426439563075
 21
-1442.421625113999
 31
0.0
  0
LINE
  5
137
  8
MAKE2D$VISIBLE$LINES
 10
883.7426439563075
 20
-1442.421625113999
 30
0.0
 11
883.7226164063013
 21
-1442.728584247878
 31
0.0
  0
LINE
  5
138
  8
MAKE2D$VISIBLE$LINES
 10
883.7226164063013
 20
-1442.728584247878
 30
0.0
 11
883.7107667005303
 21
-1443.032949558346
 31
0.0
  0
LINE
  5
139
  8
MAKE2D$VISIBLE$LINES
 10
883.7107667005303
 20
-1443.032949558346
 30
0.0
 11
883.7068685006592
 21
-1443.334466675326
 31
0.0
  0
LINE
  5
13A
  8
MAKE2D$VISIBLE$LINES
 10
883.7068685006592
 20
-1443.334466675326
 30
0.0
 11
883.7099480044895
 21
-1443.602462116804
 31
0.0
  0
LINE
  5
13B
  8
MAKE2D$VISIBLE$LINES
 10
883.7099480044895
 20
-1443.602462116804
 30
0.0
 11
883.7192959168382
 21
-1443.872731789894
 31
0.0
  0
LINE
  5
13C
  8
MAKE2D$VISIBLE$LINES
 10
883.7192959168382
 20
-1443.872731789894
 30
0.0
 11
883.7350724641284
 21
-1444.145098667298
 31
0.0
  0
LINE
  5
13D
  8
MAKE2D$VISIBLE$LINES
 10
883.7350724641284
 20
-1444.145098667298
 30
0.0
 11
883.7574321429983
 21
-1444.419375702477
 31
0.0
  0
LINE
  5
13E
  8
MAKE2D$VISIBLE$LINES
 10
883.7574321429983
 20
-1444.419375702477
 30
0.0
 11
883.7865230065497
 21
-1444.6953659469
 31
0.0
  0
LINE
  5
13F
  8
MAKE2D$VISIBLE$LINES
 10
883.7865230065497
 20
-1444.6953659469
 30
0.0
 11
883.8224859423061
 21
-1444.972862718148
 31
0.0
  0
LINE
  5
140
  8
MAKE2D$VISIBLE$LINES
 10
883.8224859423061
 20
-1444.972862718148
 30
0.0
 11
883.865453945978
 21
-1445.251649820866
 31
0.0
  0
LINE
  5
141
  8
MAKE2D$VISIBLE$LINES
 10
883.865453945978
 20
-1445.251649820866
 30
0.0
 11
883.9155513954521
 21
-1445.531501822267
 31
0.0
  0
LINE
  5
142
  8
MAKE2D$VISIBLE$LINES
 10
883.9155513954521
 20
-1445.531501822267
 30
0.0
 11
883.972893329707
 21
-1445.812184383517
 31
0.0
  0
LINE
  5
143
  8
MAKE2D$VISIBLE$LINES
 10
883.972893329707
 20
-1445.812184383517
 30
0.0
 11
884.037584737625
 21
-1446.093454647936
 31
0.0
  0
LINE
  5
144
  8
MAKE2D$VISIBLE$LINES
 10
884.037584737625
 20
-1446.093454647936
 30
0.0
 11
884.1097198618869
 21
-1446.375061686514
 31
0.0
  0
LINE
  5
145
  8
MAKE2D$VISIBLE$LINES
 10
884.1097198618869
 20
-1446.375061686514
 30
0.0
 11
884.1893815233215
 21
-1446.65674700076
 31
0.0
  0
LINE
  5
146
  8
MAKE2D$VISIBLE$LINES
 10
884.1893815233215
 20
-1446.65674700076
 30
0.0
 11
884.2766404712125
 21
-1446.938245082405
 31
0.0
  0
LINE
  5
147
  8
MAKE2D$VISIBLE$LINES
 10
884.2766404712125
 20
-1446.938245082405
 30
0.0
 11
884.3715547651383
 21
-1447.21928402894
 31
0.0
  0
LINE
  5
148
  8
MAKE2D$VISIBLE$LINES
 10
884.3715547651383
 20
-1447.21928402894
 30
0.0
 11
884.4741691939416
 21
-1447.499586213423
 31
0.0
  0
LINE
  5
149
  8
MAKE2D$VISIBLE$LINES
 10
884.4741691939416
 20
-1447.499586213423
 30
0.0
 11
884.5845147373791
 21
-1447.778869006404
 31
0.0
  0
LINE
  5
14A
  8
MAKE2D$VISIBLE$LINES
 10
884.5845147373791
 20
-1447.778869006404
 30
0.0
 11
884.7026080758843
 21
-1448.056845547271
 31
0.0
  0
LINE
  5
14B
  8
MAKE2D$VISIBLE$LINES
 10
884.7026080758843
 20
-1448.056845547271
 30
0.0
 11
884.8284511537
 21
-1448.333225561709
 31
0.0
  0
LINE
  5
14C
  8
MAKE2D$VISIBLE$LINES
 10
884.8284511537
 20
-1448.333225561709
 30
0.0
 11
884.9620308003724
 21
-1448.607716221415
 31
0.0
  0
LINE
  5
14D
  8
MAKE2D$VISIBLE$LINES
 10
884.9620308003724
 20
-1448.607716221415
 30
0.0
 11
885.1033184152875
 21
-1448.880023041673
 31
0.0
  0
LINE
  5
14E
  8
MAKE2D$VISIBLE$LINES
 10
885.1033184152875
 20
-1448.880023041673
 30
0.0
 11
885.2522697195205
 21
-1449.149850811849
 31
0.0
  0
LINE
  5
14F
  8
MAKE2D$VISIBLE$LINES
 10
885.2522697195205
 20
-1449.149850811849
 30
0.0
 11
885.4088245788165
 21
-1449.416904553396
 31
0.0
  0
LINE
  5
150
  8
MAKE2D$VISIBLE$LINES
 10
885.4088245788165
 20
-1449.416904553396
 30
0.0
 11
885.5729069009875
 21
-1449.680890499516
 31
0.0
  0
LINE
  5
151
  8
MAKE2D$VISIBLE$LINES
 10
885.5729069009875
 20
-1449.680890499516
 30
0.0
 11
885.744424610426
 21
-1449.941517090226
 31
0.0
  0
LINE
  5
152
  8
MAKE2D$VISIBLE$LINES
 10
885.744424610426
 20
-1449.941517090226
 30
0.0
 11
885.923269701799
 21
-1450.198495976272
 31
0.0
  0
LINE
  5
153
  8
MAKE2D$VISIBLE$LINES
 10
885.923269701799
 20
-1450.198495976272
 30
0.0
 11
886.1093183742965
 21
-1450.451543025056
 31
0.0
  0
LINE
  5
154
  8
MAKE2D$VISIBLE$LINES
 10
886.1093183742965
 20
-1450.451543025056
 30
0.0
 11
886.3024312470997
 21
-1450.700379321567
 31
0.0
  0
LINE
  5
155
  8
MAKE2D$VISIBLE$LINES
 10
886.3024312470997
 20
-1450.700379321567
 30
0.0
 11
886.5024536559739
 21
-1450.944732157209
 31
0.0
  0
LINE
  5
156
  8
MAKE2D$VISIBLE$LINES
 10
886.5024536559739
 20
-1450.944732157209
 30
0.0
 11
886.709216030145
 21
-1451.18433599939
 31
0.0
  0
LINE
  5
157
  8
MAKE2D$VISIBLE$LINES
 10
886.709216030145
 20
-1451.18433599939
 30
0.0
 11
886.9225343478374
 21
-1451.418933434802
 31
0.0
  0
LINE
  5
158
  8
MAKE2D$VISIBLE$LINES
 10
886.9225343478374
 20
-1451.418933434802
 30
0.0
 11
887.1422106681041
 21
-1451.648276079482
 31
0.0
  0
LINE
  5
159
  8
MAKE2D$VISIBLE$LINES
 10
887.1422106681041
 20
-1451.648276079482
 30
0.0
 11
887.3680337358275
 21
-1451.872125448979
 31
0.0
  0
LINE
  5
15A
  8
MAKE2D$VISIBLE$LINES
 10
887.3680337358275
 20
-1451.872125448979
 30
0.0
 11
887.5997796560677
 21
-1452.090253782265
 31
0.0
  0
LINE
  5
15B
  8
MAKE2D$VISIBLE$LINES
 10
887.5997796560677
 20
-1452.090253782265
 30
0.0
 11
887.837212633257
 21
-1452.302444813434
 31
0.0
  0
LINE
  5
15C
  8
MAKE2D$VISIBLE$LINES
 10
887.837212633257
 20
-1452.302444813434
 30
0.0
 11
888.080085770124
 21
-1452.508494485714
 31
0.0
  0
LINE
  5
15D
  8
MAKE2D$VISIBLE$LINES
 10
888.080085770124
 20
-1452.508494485714
 30
0.0
 11
888.328141920669
 21
-1452.708211602831
 31
0.0
  0
LINE
  5
15E
  8
MAKE2D$VISIBLE$LINES
 10
888.328141920669
 20
-1452.708211602831
 30
0.0
 11
888.5811145910253
 21
-1452.901418413399
 31
0.0
  0
LINE
  5
15F
  8
MAKE2D$VISIBLE$LINES
 10
888.5811145910253
 20
-1452.901418413399
 30
0.0
 11
888.8387288816241
 21
-1453.087951124628
 31
0.0
  0
LINE
  5
160
  8
MAKE2D$VISIBLE$LINES
 10
888.8387288816241
 20
-1453.087951124628
 30
0.0
 11
889.1007024637529
 21
-1453.26766034234
 31
0.0
  0
LINE
  5
161
  8
MAKE2D$VISIBLE$LINES
 10
889.1007024637529
 20
-1453.26766034234
 30
0.0
 11
889.3667465833449
 21
-1453.440411435002
 31
0.0
  0
LINE
  5
162
  8
MAKE2D$VISIBLE$LINES
 10
889.3667465833449
 20
-1453.440411435002
 30
0.0
 11
889.6365670846889
 21
-1453.606084820216
 31
0.0
  0
LINE
  5
163
  8
MAKE2D$VISIBLE$LINES
 10
889.6365670846889
 20
-1453.606084820216
 30
0.0
 11
889.90986544667
 21
-1453.764576172838
 31
0.0
  0
LINE
  5
164
  8
MAKE2D$VISIBLE$LINES
 10
889.90986544667
 20
-1453.764576172838
 30
0.0
 11
890.1863398241836
 21
-1453.915796554663
 31
0.0
  0
LINE
  5
165
  8
MAKE2D$VISIBLE$LINES
 10
890.1863398241836
 20
-1453.915796554663
 30
0.0
 11
890.4656860874594
 21
-1454.059672466281
 31
0.0
  0
LINE
  5
166
  8
MAKE2D$VISIBLE$LINES
 10
890.4656860874594
 20
-1454.059672466281
 30
0.0
 11
890.7475988522352
 21
-1454.196145822463
 31
0.0
  0
LINE
  5
167
  8
MAKE2D$VISIBLE$LINES
 10
890.7475988522352
 20
-1454.196145822463
 30
0.0
 11
891.0317724939738
 21
-1454.32517385305
 31
0.0
  0
LINE
  5
168
  8
MAKE2D$VISIBLE$LINES
 10
891.0317724939738
 20
-1454.32517385305
 30
0.0
 11
891.3179021396628
 21
-1454.446728931971
 31
0.0
  0
LINE
  5
169
  8
MAKE2D$VISIBLE$LINES
 10
891.3179021396628
 20
-1454.446728931971
 30
0.0
 11
891.605684631136
 21
-1454.560798337547
 31
0.0
  0
LINE
  5
16A
  8
MAKE2D$VISIBLE$LINES
 10
891.605684631136
 20
-1454.560798337547
 30
0.0
 11
891.8948194543073
 21
-1454.667383947768
 31
0.0
  0
LINE
  5
16B
  8
MAKE2D$VISIBLE$LINES
 10
891.8948194543073
 20
-1454.667383947768
 30
0.0
 11
892.1850096292183
 21
-1454.7665018747
 31
0.0
  0
LINE
  5
16C
  8
MAKE2D$VISIBLE$LINES
 10
892.1850096292183
 20
-1454.7665018747
 30
0.0
 11
892.4759625563338
 21
-1454.858182042487
 31
0.0
  0
LINE
  5
16D
  8
MAKE2D$VISIBLE$LINES
 10
892.4759625563338
 20
-1454.858182042487
 30
0.0
 11
892.7673908150922
 21
-1454.94246771383
 31
0.0
  0
LINE
  5
16E
  8
MAKE2D$VISIBLE$LINES
 10
892.7673908150922
 20
-1454.94246771383
 30
0.0
 11
893.059012911303
 21
-1455.019414969975
 31
0.0
  0
LINE
  5
16F
  8
MAKE2D$VISIBLE$LINES
 10
893.059012911303
 20
-1455.019414969975
 30
0.0
 11
893.3505539705787
 21
-1455.089092149481
 31
0.0
  0
LINE
  5
170
  8
MAKE2D$VISIBLE$LINES
 10
893.3505539705787
 20
-1455.089092149481
 30
0.0
 11
893.6417463755894
 21
-1455.151579251128
 31
0.0
  0
LINE
  5
171
  8
MAKE2D$VISIBLE$LINES
 10
893.6417463755894
 20
-1455.151579251128
 30
0.0
 11
893.9323303455075
 21
-1455.206967306354
 31
0.0
  0
LINE
  5
172
  8
MAKE2D$VISIBLE$LINES
 10
893.9323303455075
 20
-1455.206967306354
 30
0.0
 11
894.2220544565974
 21
-1455.255357726632
 31
0.0
  0
LINE
  5
173
  8
MAKE2D$VISIBLE$LINES
 10
894.2220544565974
 20
-1455.255357726632
 30
0.0
 11
894.5106761034468
 21
-1455.296861631083
 31
0.0
  0
LINE
  5
174
  8
MAKE2D$VISIBLE$LINES
 10
894.5106761034468
 20
-1455.296861631083
 30
0.0
 11
894.7979619008607
 21
-1455.33159915952
 31
0.0
  0
LINE
  5
175
  8
MAKE2D$VISIBLE$LINES
 10
894.7979619008607
 20
-1455.33159915952
 30
0.0
 11
895.0836880269379
 21
-1455.359698775933
 31
0.0
  0
LINE
  5
176
  8
MAKE2D$VISIBLE$LINES
 10
895.0836880269379
 20
-1455.359698775933
 30
0.0
 11
895.3676405082916
 21
-1455.381296567221
 31
0.0
  0
LINE
  5
177
  8
MAKE2D$VISIBLE$LINES
 10
895.3676405082916
 20
-1455.381296567221
 30
0.0
 11
895.6496154488008
 21
-1455.396535541698
 31
0.0
  0
LINE
  5
178
  8
MAKE2D$VISIBLE$LINES
 10
895.6496154488008
 20
-1455.396535541698
 30
0.0
 11
895.9294192036391
 21
-1455.405564931657
 31
0.0
  0
LINE
  5
179
  8
MAKE2D$VISIBLE$LINES
 10
895.9294192036391
 20
-1455.405564931657
 30
0.0
 11
896.2068685006592
 21
-1455.408539503939
 31
0.0
  0
LINE
  5
17A
  8
MAKE2D$VISIBLE$LINES
 10
896.2068685006592
 20
-1455.408539503939
 30
0.0
 11
896.4843177976793
 21
-1455.405564931657
 31
0.0
  0
LINE
  5
17B
  8
MAKE2D$VISIBLE$LINES
 10
896.4843177976793
 20
-1455.405564931657
 30
0.0
 11
896.7641215525173
 21
-1455.396535541698
 31
0.0
  0
LINE
  5
17C
  8
MAKE2D$VISIBLE$LINES
 10
896.7641215525173
 20
-1455.396535541698
 30
0.0
 11
897.0460964930268
 21
-1455.381296567221
 31
0.0
  0
LINE
  5
17D
  8
MAKE2D$VISIBLE$LINES
 10
897.0460964930268
 20
-1455.381296567221
 30
0.0
 11
897.3300489743805
 21
-1455.359698775933
 31
0.0
  0
LINE
  5
17E
  8
MAKE2D$VISIBLE$LINES
 10
897.3300489743805
 20
-1455.359698775933
 30
0.0
 11
897.6157751004575
 21
-1455.33159915952
 31
0.0
  0
LINE
  5
17F
  8
MAKE2D$VISIBLE$LINES
 10
897.6157751004575
 20
-1455.33159915952
 30
0.0
 11
897.9030608978716
 21
-1455.296861631083
 31
0.0
  0
LINE
  5
180
  8
MAKE2D$VISIBLE$LINES
 10
897.9030608978716
 20
-1455.296861631083
 30
0.0
 11
898.1916825447208
 21
-1455.255357726632
 31
0.0
  0
LINE
  5
181
  8
MAKE2D$VISIBLE$LINES
 10
898.1916825447208
 20
-1455.255357726632
 30
0.0
 11
898.481406655811
 21
-1455.206967306354
 31
0.0
  0
LINE
  5
182
  8
MAKE2D$VISIBLE$LINES
 10
898.481406655811
 20
-1455.206967306354
 30
0.0
 11
898.7719906257291
 21
-1455.151579251128
 31
0.0
  0
LINE
  5
183
  8
MAKE2D$VISIBLE$LINES
 10
898.7719906257291
 20
-1455.151579251128
 30
0.0
 11
899.06318303074
 21
-1455.089092149481
 31
0.0
  0
LINE
  5
184
  8
MAKE2D$VISIBLE$LINES
 10
899.06318303074
 20
-1455.089092149481
 30
0.0
 11
899.354724090016
 21
-1455.019414969975
 31
0.0
  0
LINE
  5
185
  8
MAKE2D$VISIBLE$LINES
 10
899.354724090016
 20
-1455.019414969975
 30
0.0
 11
899.6463461862265
 21
-1454.94246771383
 31
0.0
  0
LINE
  5
186
  8
MAKE2D$VISIBLE$LINES
 10
899.6463461862265
 20
-1454.94246771383
 30
0.0
 11
899.9377744449847
 21
-1454.858182042487
 31
0.0
  0
LINE
  5
187
  8
MAKE2D$VISIBLE$LINES
 10
899.9377744449847
 20
-1454.858182042487
 30
0.0
 11
900.2287273721003
 21
-1454.7665018747
 31
0.0
  0
LINE
  5
188
  8
MAKE2D$VISIBLE$LINES
 10
900.2287273721003
 20
-1454.7665018747
 30
0.0
 11
900.5189175470114
 21
-1454.667383947768
 31
0.0
  0
LINE
  5
189
  8
MAKE2D$VISIBLE$LINES
 10
900.5189175470114
 20
-1454.667383947768
 30
0.0
 11
900.8080523701828
 21
-1454.560798337547
 31
0.0
  0
LINE
  5
18A
  8
MAKE2D$VISIBLE$LINES
 10
900.8080523701828
 20
-1454.560798337547
 30
0.0
 11
901.0958348616558
 21
-1454.446728931971
 31
0.0
  0
LINE
  5
18B
  8
MAKE2D$VISIBLE$LINES
 10
901.0958348616558
 20
-1454.446728931971
 30
0.0
 11
901.381964507345
 21
-1454.32517385305
 31
0.0
  0
LINE
  5
18C
  8
MAKE2D$VISIBLE$LINES
 10
901.381964507345
 20
-1454.32517385305
 30
0.0
 11
901.6661381490835
 21
-1454.196145822463
 31
0.0
  0
LINE
  5
18D
  8
MAKE2D$VISIBLE$LINES
 10
901.6661381490835
 20
-1454.196145822463
 30
0.0
 11
901.9480509138594
 21
-1454.059672466281
 31
0.0
  0
LINE
  5
18E
  8
MAKE2D$VISIBLE$LINES
 10
901.9480509138594
 20
-1454.059672466281
 30
0.0
 11
902.2273971771355
 21
-1453.915796554663
 31
0.0
  0
LINE
  5
18F
  8
MAKE2D$VISIBLE$LINES
 10
902.2273971771355
 20
-1453.915796554663
 30
0.0
 11
902.5038715546488
 21
-1453.764576172838
 31
0.0
  0
LINE
  5
190
  8
MAKE2D$VISIBLE$LINES
 10
902.5038715546488
 20
-1453.764576172838
 30
0.0
 11
902.77716991663
 21
-1453.606084820216
 31
0.0
  0
LINE
  5
191
  8
MAKE2D$VISIBLE$LINES
 10
902.77716991663
 20
-1453.606084820216
 30
0.0
 11
903.0469904179736
 21
-1453.440411435002
 31
0.0
  0
LINE
  5
192
  8
MAKE2D$VISIBLE$LINES
 10
903.0469904179736
 20
-1453.440411435002
 30
0.0
 11
903.3130345375656
 21
-1453.26766034234
 31
0.0
  0
LINE
  5
193
  8
MAKE2D$VISIBLE$LINES
 10
903.3130345375656
 20
-1453.26766034234
 30
0.0
 11
903.5750081196943
 21
-1453.087951124628
 31
0.0
  0
LINE
  5
194
  8
MAKE2D$VISIBLE$LINES
 10
903.5750081196943
 20
-1453.087951124628
 30
0.0
 11
903.8326224102932
 21
-1452.901418413399
 31
0.0
  0
LINE
  5
195
  8
MAKE2D$VISIBLE$LINES
 10
903.8326224102932
 20
-1452.901418413399
 30
0.0
 11
904.0855950806497
 21
-1452.708211602831
 31
0.0
  0
LINE
  5
196
  8
MAKE2D$VISIBLE$LINES
 10
904.0855950806497
 20
-1452.708211602831
 30
0.0
 11
904.3336512311948
 21
-1452.508494485714
 31
0.0
  0
LINE
  5
197
  8
MAKE2D$VISIBLE$LINES
 10
904.3336512311948
 20
-1452.508494485714
 30
0.0
 11
904.5765243680619
 21
-1452.302444813434
 31
0.0
  0
LINE
  5
198
  8
MAKE2D$VISIBLE$LINES
 10
904.5765243680619
 20
-1452.302444813434
 30
0.0
 11
904.8139573452511
 21
-1452.090253782265
 31
0.0
  0
LINE
  5
199
  8
MAKE2D$VISIBLE$LINES
 10
904.8139573452511
 20
-1452.090253782265
 30
0.0
 11
905.0457032654912
 21
-1451.872125448979
 31
0.0
  0
LINE
  5
19A
  8
MAKE2D$VISIBLE$LINES
 10
905.0457032654912
 20
-1451.872125448979
 30
0.0
 11
905.2715263332146
 21
-1451.648276079482
 31
0.0
  0
LINE
  5
19B
  8
MAKE2D$VISIBLE$LINES
 10
905.2715263332146
 20
-1451.648276079482
 30
0.0
 11
905.4912026534814
 21
-1451.418933434802
 31
0.0
  0
LINE
  5
19C
  8
MAKE2D$VISIBLE$LINES
 10
905.4912026534814
 20
-1451.418933434802
 30
0.0
 11
905.7045209711739
 21
-1451.18433599939
 31
0.0
  0
LINE
  5
19D
  8
MAKE2D$VISIBLE$LINES
 10
905.7045209711739
 20
-1451.18433599939
 30
0.0
 11
905.9112833453449
 21
-1450.944732157209
 31
0.0
  0
LINE
  5
19E
  8
MAKE2D$VISIBLE$LINES
 10
905.9112833453449
 20
-1450.944732157209
 30
0.0
 11
906.1113057542188
 21
-1450.700379321567
 31
0.0
  0
LINE
  5
19F
  8
MAKE2D$VISIBLE$LINES
 10
906.1113057542188
 20
-1450.700379321567
 30
0.0
 11
906.3044186270218
 21
-1450.451543025056
 31
0.0
  0
LINE
  5
1A0
  8
MAKE2D$VISIBLE$LINES
 10
906.3044186270218
 20
-1450.451543025056
 30
0.0
 11
906.4904672995195
 21
-1450.198495976272
 31
0.0
  0
LINE
  5
1A1
  8
MAKE2D$VISIBLE$LINES
 10
906.4904672995195
 20
-1450.198495976272
 30
0.0
 11
906.6693123908924
 21
-1449.941517090226
 31
0.0
  0
LINE
  5
1A2
  8
MAKE2D$VISIBLE$LINES
 10
906.6693123908924
 20
-1449.941517090226
 30
0.0
 11
906.8408301003313
 21
-1449.680890499516
 31
0.0
  0
LINE
  5
1A3
  8
MAKE2D$VISIBLE$LINES
 10
906.8408301003313
 20
-1449.680890499516
 30
0.0
 11
907.0049124225022
 21
-1449.416904553396
 31
0.0
  0
LINE
  5
1A4
  8
MAKE2D$VISIBLE$LINES
 10
907.0049124225022
 20
-1449.416904553396
 30
0.0
 11
907.1614672817984
 21
-1449.149850811849
 31
0.0
  0
LINE
  5
1A5
  8
MAKE2D$VISIBLE$LINES
 10
907.1614672817984
 20
-1449.149850811849
 30
0.0
 11
907.3104185860313
 21
-1448.880023041673
 31
0.0
  0
LINE
  5
1A6
  8
MAKE2D$VISIBLE$LINES
 10
907.3104185860313
 20
-1448.880023041673
 30
0.0
 11
907.4517062009463
 21
-1448.607716221415
 31
0.0
  0
LINE
  5
1A7
  8
MAKE2D$VISIBLE$LINES
 10
907.4517062009463
 20
-1448.607716221415
 30
0.0
 11
907.5852858476188
 21
-1448.333225561709
 31
0.0
  0
LINE
  5
1A8
  8
MAKE2D$VISIBLE$LINES
 10
907.5852858476188
 20
-1448.333225561709
 30
0.0
 11
907.7111289254343
 21
-1448.056845547271
 31
0.0
  0
LINE
  5
1A9
  8
MAKE2D$VISIBLE$LINES
 10
907.7111289254343
 20
-1448.056845547271
 30
0.0
 11
907.8292222639399
 21
-1447.778869006404
 31
0.0
  0
LINE
  5
1AA
  8
MAKE2D$VISIBLE$LINES
 10
907.8292222639399
 20
-1447.778869006404
 30
0.0
 11
907.939567807377
 21
-1447.499586213423
 31
0.0
  0
LINE
  5
1AB
  8
MAKE2D$VISIBLE$LINES
 10
907.939567807377
 20
-1447.499586213423
 30
0.0
 11
908.0421822361803
 21
-1447.21928402894
 31
0.0
  0
LINE
  5
1AC
  8
MAKE2D$VISIBLE$LINES
 10
908.0421822361803
 20
-1447.21928402894
 30
0.0
 11
908.1370965301061
 21
-1446.938245082405
 31
0.0
  0
LINE
  5
1AD
  8
MAKE2D$VISIBLE$LINES
 10
908.1370965301061
 20
-1446.938245082405
 30
0.0
 11
908.2243554779973
 21
-1446.65674700076
 31
0.0
  0
LINE
  5
1AE
  8
MAKE2D$VISIBLE$LINES
 10
908.2243554779973
 20
-1446.65674700076
 30
0.0
 11
908.3040171394322
 21
-1446.375061686514
 31
0.0
  0
LINE
  5
1AF
  8
MAKE2D$VISIBLE$LINES
 10
908.3040171394322
 20
-1446.375061686514
 30
0.0
 11
908.3761522636937
 21
-1446.093454647936
 31
0.0
  0
LINE
  5
1B0
  8
MAKE2D$VISIBLE$LINES
 10
908.3761522636937
 20
-1446.093454647936
 30
0.0
 11
908.4408436716116
 21
-1445.812184383517
 31
0.0
  0
LINE
  5
1B1
  8
MAKE2D$VISIBLE$LINES
 10
908.4408436716116
 20
-1445.812184383517
 30
0.0
 11
908.4981856058665
 21
-1445.531501822267
 31
0.0
  0
LINE
  5
1B2
  8
MAKE2D$VISIBLE$LINES
 10
908.4981856058665
 20
-1445.531501822267
 30
0.0
 11
908.5482830553403
 21
-1445.251649820866
 31
0.0
  0
LINE
  5
1B3
  8
MAKE2D$VISIBLE$LINES
 10
908.5482830553403
 20
-1445.251649820866
 30
0.0
 11
908.5912510590123
 21
-1444.972862718148
 31
0.0
  0
LINE
  5
1B4
  8
MAKE2D$VISIBLE$LINES
 10
908.5912510590123
 20
-1444.972862718148
 30
0.0
 11
908.6272139947687
 21
-1444.6953659469
 31
0.0
  0
LINE
  5
1B5
  8
MAKE2D$VISIBLE$LINES
 10
908.6272139947687
 20
-1444.6953659469
 30
0.0
 11
908.6563048583201
 21
-1444.419375702477
 31
0.0
  0
LINE
  5
1B6
  8
MAKE2D$VISIBLE$LINES
 10
908.6563048583201
 20
-1444.419375702477
 30
0.0
 11
908.67866453719
 21
-1444.145098667298
 31
0.0
  0
LINE
  5
1B7
  8
MAKE2D$VISIBLE$LINES
 10
908.67866453719
 20
-1444.145098667298
 30
0.0
 11
908.6944410844799
 21
-1443.872731789894
 31
0.0
  0
LINE
  5
1B8
  8
MAKE2D$VISIBLE$LINES
 10
908.6944410844799
 20
-1443.872731789894
 30
0.0
 11
908.7037889968288
 21
-1443.602462116804
 31
0.0
  0
LINE
  5
1B9
  8
MAKE2D$VISIBLE$LINES
 10
908.7037889968288
 20
-1443.602462116804
 30
0.0
 11
908.7068685006592
 21
-1443.334466675326
 31
0.0
  0
LINE
  5
1BA
  8
MAKE2D$VISIBLE$LINES
 10
908.7068685006592
 20
-1443.334466675326
 30
0.0
 11
908.7029703007881
 21
-1443.032949558346
 31
0.0
  0
LINE
  5
1BB
  8
MAKE2D$VISIBLE$LINES
 10
908.7029703007881
 20
-1443.032949558346
 30
0.0
 11
908.6911205950174
 21
-1442.728584247878
 31
0.0
  0
LINE
  5
1BC
  8
MAKE2D$VISIBLE$LINES
 10
908.6911205950174
 20
-1442.728584247878
 30
0.0
 11
908.6710930450109
 21
-1442.421625113999
 31
0.0
  0
LINE
  5
1BD
  8
MAKE2D$VISIBLE$LINES
 10
908.6710930450109
 20
-1442.421625113999
 30
0.0
 11
908.6426707566578
 21
-1442.112342503059
 31
0.0
  0
LINE
  5
1BE
  8
MAKE2D$VISIBLE$LINES
 10
908.6426707566578
 20
-1442.112342503059
 30
0.0
 11
908.6056475682909
 21
-1441.801022498644
 31
0.0
  0
LINE
  5
1BF
  8
MAKE2D$VISIBLE$LINES
 10
908.6056475682909
 20
-1441.801022498644
 30
0.0
 11
908.5598293526067
 21
-1441.487966578178
 31
0.0
  0
LINE
  5
1C0
  8
MAKE2D$VISIBLE$LINES
 10
908.5598293526067
 20
-1441.487966578178
 30
0.0
 11
908.5050353226511
 21
-1441.173491160941
 31
0.0
  0
LINE
  5
1C1
  8
MAKE2D$VISIBLE$LINES
 10
908.5050353226511
 20
-1441.173491160941
 30
0.0
 11
908.4410993314657
 21
-1440.857927044089
 31
0.0
  0
LINE
  5
1C2
  8
MAKE2D$VISIBLE$LINES
 10
908.4410993314657
 20
-1440.857927044089
 30
0.0
 11
908.3678711542855
 21
-1440.541618724259
 31
0.0
  0
LINE
  5
1C3
  8
MAKE2D$VISIBLE$LINES
 10
908.3678711542855
 20
-1440.541618724259
 30
0.0
 11
908.2852177415904
 21
-1440.224923603466
 31
0.0
  0
LINE
  5
1C4
  8
MAKE2D$VISIBLE$LINES
 10
908.2852177415904
 20
-1440.224923603466
 30
0.0
 11
908.1930244308335
 21
-1439.908211079137
 31
0.0
  0
LINE
  5
1C5
  8
MAKE2D$VISIBLE$LINES
 10
908.1930244308335
 20
-1439.908211079137
 30
0.0
 11
908.0911961043341
 21
-1439.591861519478
 31
0.0
  0
LINE
  5
1C6
  8
MAKE2D$VISIBLE$LINES
 10
908.0911961043341
 20
-1439.591861519478
 30
0.0
 11
907.9796582806539
 21
-1439.276265126714
 31
0.0
  0
LINE
  5
1C7
  8
MAKE2D$VISIBLE$LINES
 10
907.9796582806539
 20
-1439.276265126714
 30
0.0
 11
907.8583581267546
 21
-1438.961820692153
 31
0.0
  0
LINE
  5
1C8
  8
MAKE2D$VISIBLE$LINES
 10
907.8583581267546
 20
-1438.961820692153
 30
0.0
 11
907.7272653784349
 21
-1438.648934248516
 31
0.0
  0
LINE
  5
1C9
  8
MAKE2D$VISIBLE$LINES
 10
907.7272653784349
 20
-1438.648934248516
 30
0.0
 11
907.5863731569099
 21
-1438.338017626437
 31
0.0
  0
LINE
  5
1CA
  8
MAKE2D$VISIBLE$LINES
 10
907.5863731569099
 20
-1438.338017626437
 30
0.0
 11
907.4356986699814
 21
-1438.029486923478
 31
0.0
  0
LINE
  5
1CB
  8
MAKE2D$VISIBLE$LINES
 10
907.4356986699814
 20
-1438.029486923478
 30
0.0
 11
907.275283787032
 21
-1437.723760895452
 31
0.0
  0
LINE
  5
1CC
  8
MAKE2D$VISIBLE$LINES
 10
907.275283787032
 20
-1437.723760895452
 30
0.0
 11
907.1051954780628
 21
-1437.421259281162
 31
0.0
  0
LINE
  5
1CD
  8
MAKE2D$VISIBLE$LINES
 10
907.1051954780628
 20
-1437.421259281162
 30
0.0
 11
906.9255261081759
 21
-1437.122401072913
 31
0.0
  0
LINE
  5
1CE
  8
MAKE2D$VISIBLE$LINES
 10
906.9255261081759
 20
-1437.122401072913
 30
0.0
 11
906.7363935802671
 21
-1436.827602746266
 31
0.0
  0
LINE
  5
1CF
  8
MAKE2D$VISIBLE$LINES
 10
906.7363935802671
 20
-1436.827602746266
 30
0.0
 11
906.5379413202311
 21
-1436.53727646346
 31
0.0
  0
LINE
  5
1D0
  8
MAKE2D$VISIBLE$LINES
 10
906.5379413202311
 20
-1436.53727646346
 30
0.0
 11
906.3303381006452
 21
-1436.251828265686
 31
0.0
  0
LINE
  5
1D1
  8
MAKE2D$VISIBLE$LINES
 10
906.3303381006452
 20
-1436.251828265686
 30
0.0
 11
906.1137777007038
 21
-1435.971656269973
 31
0.0
  0
LINE
  5
1D2
  8
MAKE2D$VISIBLE$LINES
 10
906.1137777007038
 20
-1435.971656269973
 30
0.0
 11
905.8884784020464
 21
-1435.69714888678
 31
0.0
  0
LINE
  5
1D3
  8
MAKE2D$VISIBLE$LINES
 10
905.8884784020464
 20
-1435.69714888678
 30
0.0
 11
905.6546823220667
 21
-1435.428683074507
 31
0.0
  0
LINE
  5
1D4
  8
MAKE2D$VISIBLE$LINES
 10
905.6546823220667
 20
-1435.428683074507
 30
0.0
 11
905.4126545882416
 21
-1435.166622646985
 31
0.0
  0
LINE
  5
1D5
  8
MAKE2D$VISIBLE$LINES
 10
905.4126545882416
 20
-1435.166622646985
 30
0.0
 11
905.1626823589629
 21
-1434.91131664963
 31
0.0
  0
LINE
  5
1D6
  8
MAKE2D$VISIBLE$LINES
 10
905.1626823589629
 20
-1434.91131664963
 30
0.0
 11
904.9050736982331
 21
-1434.663097819307
 31
0.0
  0
LINE
  5
1D7
  8
MAKE2D$VISIBLE$LINES
 10
904.9050736982331
 20
-1434.663097819307
 30
0.0
 11
904.6401563133911
 21
-1434.422281142101
 31
0.0
  0
LINE
  5
1D8
  8
MAKE2D$VISIBLE$LINES
 10
904.6401563133911
 20
-1434.422281142101
 30
0.0
 11
904.3682761666898
 21
-1434.189162522064
 31
0.0
  0
LINE
  5
1D9
  8
MAKE2D$VISIBLE$LINES
 10
904.3682761666898
 20
-1434.189162522064
 30
0.0
 11
904.0897959730694
 21
-1433.964017572763
 31
0.0
  0
LINE
  5
1DA
  8
MAKE2D$VISIBLE$LINES
 10
904.0897959730694
 20
-1433.964017572763
 30
0.0
 11
904.0897959730692
 21
-1431.260393846713
 31
0.0
  0
LINE
  5
1DB
  8
MAKE2D$VISIBLE$LINES
 10
904.0897959730692
 20
-1431.260393846713
 30
0.0
 11
904.0897959730692
 21
-1427.590841376124
 31
0.0
  0
LINE
  5
1DC
  8
MAKE2D$VISIBLE$LINES
 10
904.0897959730692
 20
-1427.590841376124
 30
0.0
 11
896.2068685006592
 21
-1427.590841376124
 31
0.0
  0
LINE
  5
1DD
  8
MAKE2D$VISIBLE$LINES
 10
896.2068685006592
 20
-1427.590841376124
 30
0.0
 11
888.323941028249
 21
-1427.590841376124
 31
0.0
  0
LINE
  5
1DE
  8
MAKE2D$VISIBLE$LINES
 10
888.323941028249
 20
-1427.590841376124
 30
0.0
 11
888.323941028249
 21
-1433.964017572763
 31
0.0
  0
LINE
  5
1DF
  8
MAKE2D$VISIBLE$LINES
 10
1139.185723488902
 20
-1452.982225259807
 30
0.0
 11
1139.464203682522
 21
-1452.757080310506
 31
0.0
  0
LINE
  5
1E0
  8
MAKE2D$VISIBLE$LINES
 10
1139.464203682522
 20
-1452.757080310506
 30
0.0
 11
1139.736083829224
 21
-1452.523961690468
 31
0.0
  0
LINE
  5
1E1
  8
MAKE2D$VISIBLE$LINES
 10
1139.736083829224
 20
-1452.523961690468
 30
0.0
 11
1140.001001214066
 21
-1452.283145013262
 31
0.0
  0
LINE
  5
1E2
  8
MAKE2D$VISIBLE$LINES
 10
1140.001001214066
 20
-1452.283145013262
 30
0.0
 11
1140.258609874795
 21
-1452.03492618294
 31
0.0
  0
LINE
  5
1E3
  8
MAKE2D$VISIBLE$LINES
 10
1140.258609874795
 20
-1452.03492618294
 30
0.0
 11
1140.508582104074
 21
-1451.779620185585
 31
0.0
  0
LINE
  5
1E4
  8
MAKE2D$VISIBLE$LINES
 10
1140.508582104074
 20
-1451.779620185585
 30
0.0
 11
1140.750609837899
 21
-1451.517559758063
 31
0.0
  0
LINE
  5
1E5
  8
MAKE2D$VISIBLE$LINES
 10
1140.750609837899
 20
-1451.517559758063
 30
0.0
 11
1140.984405917879
 21
-1451.24909394579
 31
0.0
  0
LINE
  5
1E6
  8
MAKE2D$VISIBLE$LINES
 10
1140.984405917879
 20
-1451.24909394579
 30
0.0
 11
1141.209705216536
 21
-1450.974586562597
 31
0.0
  0
LINE
  5
1E7
  8
MAKE2D$VISIBLE$LINES
 10
1141.209705216536
 20
-1450.974586562597
 30
0.0
 11
1141.426265616478
 21
-1450.694414566884
 31
0.0
  0
LINE
  5
1E8
  8
MAKE2D$VISIBLE$LINES
 10
1141.426265616478
 20
-1450.694414566884
 30
0.0
 11
1141.633868836064
 21
-1450.40896636911
 31
0.0
  0
LINE
  5
1E9
  8
MAKE2D$VISIBLE$LINES
 10
1141.633868836064
 20
-1450.40896636911
 30
0.0
 11
1141.8323210961
 21
-1450.118640086304
 31
0.0
  0
LINE
  5
1EA
  8
MAKE2D$VISIBLE$LINES
 10
1141.8323210961
 20
-1450.118640086304
 30
0.0
 11
1142.021453624008
 21
-1449.823841759657
 31
0.0
  0
LINE
  5
1EB
  8
MAKE2D$VISIBLE$LINES
 10
1142.021453624008
 20
-1449.823841759657
 30
0.0
 11
1142.201122993895
 21
-1449.524983551408
 31
0.0
  0
LINE
  5
1EC
  8
MAKE2D$VISIBLE$LINES
 10
1142.201122993895
 20
-1449.524983551408
 30
0.0
 11
1142.371211302864
 21
-1449.222481937118
 31
0.0
  0
LINE
  5
1ED
  8
MAKE2D$VISIBLE$LINES
 10
1142.371211302864
 20
-1449.222481937118
 30
0.0
 11
1142.531626185814
 21
-1448.916755909092
 31
0.0
  0
LINE
  5
1EE
  8
MAKE2D$VISIBLE$LINES
 10
1142.531626185814
 20
-1448.916755909092
 30
0.0
 11
1142.682300672742
 21
-1448.608225206133
 31
0.0
  0
LINE
  5
1EF
  8
MAKE2D$VISIBLE$LINES
 10
1142.682300672742
 20
-1448.608225206133
 30
0.0
 11
1142.823192894267
 21
-1448.297308584053
 31
0.0
  0
LINE
  5
1F0
  8
MAKE2D$VISIBLE$LINES
 10
1142.823192894267
 20
-1448.297308584053
 30
0.0
 11
1142.954285642587
 21
-1447.984422140417
 31
0.0
  0
LINE
  5
1F1
  8
MAKE2D$VISIBLE$LINES
 10
1142.954285642587
 20
-1447.984422140417
 30
0.0
 11
1143.075585796486
 21
-1447.669977705856
 31
0.0
  0
LINE
  5
1F2
  8
MAKE2D$VISIBLE$LINES
 10
1143.075585796486
 20
-1447.669977705856
 30
0.0
 11
1143.187123620167
 21
-1447.354381313092
 31
0.0
  0
LINE
  5
1F3
  8
MAKE2D$VISIBLE$LINES
 10
1143.187123620167
 20
-1447.354381313092
 30
0.0
 11
1143.288951946666
 21
-1447.038031753433
 31
0.0
  0
LINE
  5
1F4
  8
MAKE2D$VISIBLE$LINES
 10
1143.288951946666
 20
-1447.038031753433
 30
0.0
 11
1143.381145257423
 21
-1446.721319229103
 31
0.0
  0
LINE
  5
1F5
  8
MAKE2D$VISIBLE$LINES
 10
1143.381145257423
 20
-1446.721319229103
 30
0.0
 11
1143.463798670118
 21
-1446.40462410831
 31
0.0
  0
LINE
  5
1F6
  8
MAKE2D$VISIBLE$LINES
 10
1143.463798670118
 20
-1446.40462410831
 30
0.0
 11
1143.537026847298
 21
-1446.088315788481
 31
0.0
  0
LINE
  5
1F7
  8
MAKE2D$VISIBLE$LINES
 10
1143.537026847298
 20
-1446.088315788481
 30
0.0
 11
1143.600962838483
 21
-1445.772751671628
 31
0.0
  0
LINE
  5
1F8
  8
MAKE2D$VISIBLE$LINES
 10
1143.600962838483
 20
-1445.772751671628
 30
0.0
 11
1143.655756868439
 21
-1445.458276254392
 31
0.0
  0
LINE
  5
1F9
  8
MAKE2D$VISIBLE$LINES
 10
1143.655756868439
 20
-1445.458276254392
 30
0.0
 11
1143.701575084123
 21
-1445.145220333927
 31
0.0
  0
LINE
  5
1FA
  8
MAKE2D$VISIBLE$LINES
 10
1143.701575084123
 20
-1445.145220333927
 30
0.0
 11
1143.73859827249
 21
-1444.83390032951
 31
0.0
  0
LINE
  5
1FB
  8
MAKE2D$VISIBLE$LINES
 10
1143.73859827249
 20
-1444.83390032951
 30
0.0
 11
1143.767020560843
 21
-1444.524617718571
 31
0.0
  0
LINE
  5
1FC
  8
MAKE2D$VISIBLE$LINES
 10
1143.767020560843
 20
-1444.524617718571
 30
0.0
 11
1143.78704811085
 21
-1444.217658584692
 31
0.0
  0
LINE
  5
1FD
  8
MAKE2D$VISIBLE$LINES
 10
1143.78704811085
 20
-1444.217658584692
 30
0.0
 11
1143.79889781662
 21
-1443.913293274225
 31
0.0
  0
LINE
  5
1FE
  8
MAKE2D$VISIBLE$LINES
 10
1143.79889781662
 20
-1443.913293274225
 30
0.0
 11
1143.802796016491
 21
-1443.611776157244
 31
0.0
  0
LINE
  5
1FF
  8
MAKE2D$VISIBLE$LINES
 10
1143.802796016491
 20
-1443.611776157244
 30
0.0
 11
1143.799716512661
 21
-1443.343780715767
 31
0.0
  0
LINE
  5
200
  8
MAKE2D$VISIBLE$LINES
 10
1143.799716512661
 20
-1443.343780715767
 30
0.0
 11
1143.790368600312
 21
-1443.073511042676
 31
0.0
  0
LINE
  5
201
  8
MAKE2D$VISIBLE$LINES
 10
1143.790368600312
 20
-1443.073511042676
 30
0.0
 11
1143.774592053022
 21
-1442.801144165272
 31
0.0
  0
LINE
  5
202
  8
MAKE2D$VISIBLE$LINES
 10
1143.774592053022
 20
-1442.801144165272
 30
0.0
 11
1143.752232374152
 21
-1442.526867130093
 31
0.0
  0
LINE
  5
203
  8
MAKE2D$VISIBLE$LINES
 10
1143.752232374152
 20
-1442.526867130093
 30
0.0
 11
1143.723141510601
 21
-1442.25087688567
 31
0.0
  0
LINE
  5
204
  8
MAKE2D$VISIBLE$LINES
 10
1143.723141510601
 20
-1442.25087688567
 30
0.0
 11
1143.687178574844
 21
-1441.973380114421
 31
0.0
  0
LINE
  5
205
  8
MAKE2D$VISIBLE$LINES
 10
1143.687178574844
 20
-1441.973380114421
 30
0.0
 11
1143.644210571172
 21
-1441.694593011703
 31
0.0
  0
LINE
  5
206
  8
MAKE2D$VISIBLE$LINES
 10
1143.644210571172
 20
-1441.694593011703
 30
0.0
 11
1143.594113121699
 21
-1441.414741010303
 31
0.0
  0
LINE
  5
207
  8
MAKE2D$VISIBLE$LINES
 10
1143.594113121699
 20
-1441.414741010303
 30
0.0
 11
1143.536771187444
 21
-1441.134058449053
 31
0.0
  0
LINE
  5
208
  8
MAKE2D$VISIBLE$LINES
 10
1143.536771187444
 20
-1441.134058449053
 30
0.0
 11
1143.472079779526
 21
-1440.852788184634
 31
0.0
  0
LINE
  5
209
  8
MAKE2D$VISIBLE$LINES
 10
1143.472079779526
 20
-1440.852788184634
 30
0.0
 11
1143.399944655264
 21
-1440.571181146057
 31
0.0
  0
LINE
  5
20A
  8
MAKE2D$VISIBLE$LINES
 10
1143.399944655264
 20
-1440.571181146057
 30
0.0
 11
1143.320282993829
 21
-1440.28949583181
 31
0.0
  0
LINE
  5
20B
  8
MAKE2D$VISIBLE$LINES
 10
1143.320282993829
 20
-1440.28949583181
 30
0.0
 11
1143.233024045938
 21
-1440.007997750165
 31
0.0
  0
LINE
  5
20C
  8
MAKE2D$VISIBLE$LINES
 10
1143.233024045938
 20
-1440.007997750165
 30
0.0
 11
1143.138109752012
 21
-1439.72695880363
 31
0.0
  0
LINE
  5
20D
  8
MAKE2D$VISIBLE$LINES
 10
1143.138109752012
 20
-1439.72695880363
 30
0.0
 11
1143.035495323209
 21
-1439.446656619148
 31
0.0
  0
LINE
  5
20E
  8
MAKE2D$VISIBLE$LINES
 10
1143.035495323209
 20
-1439.446656619148
 30
0.0
 11
1142.925149779772
 21
-1439.167373826167
 31
0.0
  0
LINE
  5
20F
  8
MAKE2D$VISIBLE$LINES
 10
1142.925149779772
 20
-1439.167373826167
 30
0.0
 11
1142.807056441266
 21
-1438.889397285299
 31
0.0
  0
LINE
  5
210
  8
MAKE2D$VISIBLE$LINES
 10
1142.807056441266
 20
-1438.889397285299
 30
0.0
 11
1142.681213363451
 21
-1438.613017270861
 31
0.0
  0
LINE
  5
211
  8
MAKE2D$VISIBLE$LINES
 10
1142.681213363451
 20
-1438.613017270861
 30
0.0
 11
1142.547633716779
 21
-1438.338526611155
 31
0.0
  0
LINE
  5
212
  8
MAKE2D$VISIBLE$LINES
 10
1142.547633716779
 20
-1438.338526611155
 30
0.0
 11
1142.406346101863
 21
-1438.066219790898
 31
0.0
  0
LINE
  5
213
  8
MAKE2D$VISIBLE$LINES
 10
1142.406346101863
 20
-1438.066219790898
 30
0.0
 11
1142.25739479763
 21
-1437.796392020722
 31
0.0
  0
LINE
  5
214
  8
MAKE2D$VISIBLE$LINES
 10
1142.25739479763
 20
-1437.796392020722
 30
0.0
 11
1142.100839938334
 21
-1437.529338279174
 31
0.0
  0
LINE
  5
215
  8
MAKE2D$VISIBLE$LINES
 10
1142.100839938334
 20
-1437.529338279174
 30
0.0
 11
1141.936757616164
 21
-1437.265352333055
 31
0.0
  0
LINE
  5
216
  8
MAKE2D$VISIBLE$LINES
 10
1141.936757616164
 20
-1437.265352333055
 30
0.0
 11
1141.765239906724
 21
-1437.004725742344
 31
0.0
  0
LINE
  5
217
  8
MAKE2D$VISIBLE$LINES
 10
1141.765239906724
 20
-1437.004725742344
 30
0.0
 11
1141.586394815351
 21
-1436.747746856298
 31
0.0
  0
LINE
  5
218
  8
MAKE2D$VISIBLE$LINES
 10
1141.586394815351
 20
-1436.747746856298
 30
0.0
 11
1141.400346142854
 21
-1436.494699807515
 31
0.0
  0
LINE
  5
219
  8
MAKE2D$VISIBLE$LINES
 10
1141.400346142854
 20
-1436.494699807515
 30
0.0
 11
1141.207233270051
 21
-1436.245863511004
 31
0.0
  0
LINE
  5
21A
  8
MAKE2D$VISIBLE$LINES
 10
1141.207233270051
 20
-1436.245863511004
 30
0.0
 11
1141.007210861177
 21
-1436.001510675361
 31
0.0
  0
LINE
  5
21B
  8
MAKE2D$VISIBLE$LINES
 10
1141.007210861177
 20
-1436.001510675361
 30
0.0
 11
1140.800448487006
 21
-1435.76190683318
 31
0.0
  0
LINE
  5
21C
  8
MAKE2D$VISIBLE$LINES
 10
1140.800448487006
 20
-1435.76190683318
 30
0.0
 11
1140.587130169313
 21
-1435.527309397768
 31
0.0
  0
LINE
  5
21D
  8
MAKE2D$VISIBLE$LINES
 10
1140.587130169313
 20
-1435.527309397768
 30
0.0
 11
1140.367453849047
 21
-1435.297966753089
 31
0.0
  0
LINE
  5
21E
  8
MAKE2D$VISIBLE$LINES
 10
1140.367453849047
 20
-1435.297966753089
 30
0.0
 11
1140.141630781323
 21
-1435.074117383592
 31
0.0
  0
LINE
  5
21F
  8
MAKE2D$VISIBLE$LINES
 10
1140.141630781323
 20
-1435.074117383592
 30
0.0
 11
1139.909884861083
 21
-1434.855989050306
 31
0.0
  0
LINE
  5
220
  8
MAKE2D$VISIBLE$LINES
 10
1139.909884861083
 20
-1434.855989050306
 30
0.0
 11
1139.672451883894
 21
-1434.643798019136
 31
0.0
  0
LINE
  5
221
  8
MAKE2D$VISIBLE$LINES
 10
1139.672451883894
 20
-1434.643798019136
 30
0.0
 11
1139.429578747027
 21
-1434.437748346856
 31
0.0
  0
LINE
  5
222
  8
MAKE2D$VISIBLE$LINES
 10
1139.429578747027
 20
-1434.437748346856
 30
0.0
 11
1139.181522596482
 21
-1434.23803122974
 31
0.0
  0
LINE
  5
223
  8
MAKE2D$VISIBLE$LINES
 10
1139.181522596482
 20
-1434.23803122974
 30
0.0
 11
1138.928549926125
 21
-1434.044824419171
 31
0.0
  0
LINE
  5
224
  8
MAKE2D$VISIBLE$LINES
 10
1138.928549926125
 20
-1434.044824419171
 30
0.0
 11
1138.670935635526
 21
-1433.858291707942
 31
0.0
  0
LINE
  5
225
  8
MAKE2D$VISIBLE$LINES
 10
1138.670935635526
 20
-1433.858291707942
 30
0.0
 11
1138.408962053398
 21
-1433.67858249023
 31
0.0
  0
LINE
  5
226
  8
MAKE2D$VISIBLE$LINES
 10
1138.408962053398
 20
-1433.67858249023
 30
0.0
 11
1138.142917933805
 21
-1433.505831397567
 31
0.0
  0
LINE
  5
227
  8
MAKE2D$VISIBLE$LINES
 10
1138.142917933805
 20
-1433.505831397567
 30
0.0
 11
1137.873097432462
 21
-1433.340158012355
 31
0.0
  0
LINE
  5
228
  8
MAKE2D$VISIBLE$LINES
 10
1137.873097432462
 20
-1433.340158012355
 30
0.0
 11
1137.599799070481
 21
-1433.181666659732
 31
0.0
  0
LINE
  5
229
  8
MAKE2D$VISIBLE$LINES
 10
1137.599799070481
 20
-1433.181666659732
 30
0.0
 11
1137.323324692968
 21
-1433.030446277907
 31
0.0
  0
LINE
  5
22A
  8
MAKE2D$VISIBLE$LINES
 10
1137.323324692968
 20
-1433.030446277907
 30
0.0
 11
1137.043978429692
 21
-1432.886570366289
 31
0.0
  0
LINE
  5
22B
  8
MAKE2D$VISIBLE$LINES
 10
1137.043978429692
 20
-1432.886570366289
 30
0.0
 11
1136.762065664916
 21
-1432.750097010108
 31
0.0
  0
LINE
  5
22C
  8
MAKE2D$VISIBLE$LINES
 10
1136.762065664916
 20
-1432.750097010108
 30
0.0
 11
1136.477892023177
 21
-1432.62106897952
 31
0.0
  0
LINE
  5
22D
  8
MAKE2D$VISIBLE$LINES
 10
1136.477892023177
 20
-1432.62106897952
 30
0.0
 11
1136.191762377488
 21
-1432.499513900598
 31
0.0
  0
LINE
  5
22E
  8
MAKE2D$VISIBLE$LINES
 10
1136.191762377488
 20
-1432.499513900598
 30
0.0
 11
1135.903979886015
 21
-1432.385444495024
 31
0.0
  0
LINE
  5
22F
  8
MAKE2D$VISIBLE$LINES
 10
1135.903979886015
 20
-1432.385444495024
 30
0.0
 11
1135.614845062844
 21
-1432.278858884802
 31
0.0
  0
LINE
  5
230
  8
MAKE2D$VISIBLE$LINES
 10
1135.614845062844
 20
-1432.278858884802
 30
0.0
 11
1135.324654887932
 21
-1432.179740957871
 31
0.0
  0
LINE
  5
231
  8
MAKE2D$VISIBLE$LINES
 10
1135.324654887932
 20
-1432.179740957871
 30
0.0
 11
1135.033701960817
 21
-1432.088060790084
 31
0.0
  0
LINE
  5
232
  8
MAKE2D$VISIBLE$LINES
 10
1135.033701960817
 20
-1432.088060790084
 30
0.0
 11
1134.742273702059
 21
-1432.003775118741
 31
0.0
  0
LINE
  5
233
  8
MAKE2D$VISIBLE$LINES
 10
1134.742273702059
 20
-1432.003775118741
 30
0.0
 11
1134.450651605848
 21
-1431.926827862596
 31
0.0
  0
LINE
  5
234
  8
MAKE2D$VISIBLE$LINES
 10
1134.450651605848
 20
-1431.926827862596
 30
0.0
 11
1134.159110546572
 21
-1431.857150683089
 31
0.0
  0
LINE
  5
235
  8
MAKE2D$VISIBLE$LINES
 10
1134.159110546572
 20
-1431.857150683089
 30
0.0
 11
1133.867918141561
 21
-1431.794663581442
 31
0.0
  0
LINE
  5
236
  8
MAKE2D$VISIBLE$LINES
 10
1133.867918141561
 20
-1431.794663581442
 30
0.0
 11
1133.577334171643
 21
-1431.739275526216
 31
0.0
  0
LINE
  5
237
  8
MAKE2D$VISIBLE$LINES
 10
1133.577334171643
 20
-1431.739275526216
 30
0.0
 11
1133.287610060553
 21
-1431.690885105938
 31
0.0
  0
LINE
  5
238
  8
MAKE2D$VISIBLE$LINES
 10
1133.287610060553
 20
-1431.690885105938
 30
0.0
 11
1132.998988413704
 21
-1431.649381201487
 31
0.0
  0
LINE
  5
239
  8
MAKE2D$VISIBLE$LINES
 10
1132.998988413704
 20
-1431.649381201487
 30
0.0
 11
1132.71170261629
 21
-1431.61464367305
 31
0.0
  0
LINE
  5
23A
  8
MAKE2D$VISIBLE$LINES
 10
1132.71170261629
 20
-1431.61464367305
 30
0.0
 11
1132.425976490213
 21
-1431.586544056637
 31
0.0
  0
LINE
  5
23B
  8
MAKE2D$VISIBLE$LINES
 10
1132.425976490213
 20
-1431.586544056637
 30
0.0
 11
1132.142024008859
 21
-1431.564946265349
 31
0.0
  0
LINE
  5
23C
  8
MAKE2D$VISIBLE$LINES
 10
1132.142024008859
 20
-1431.564946265349
 30
0.0
 11
1131.86004906835
 21
-1431.549707290872
 31
0.0
  0
LINE
  5
23D
  8
MAKE2D$VISIBLE$LINES
 10
1131.86004906835
 20
-1431.549707290872
 30
0.0
 11
1131.580245313512
 21
-1431.540677900913
 31
0.0
  0
LINE
  5
23E
  8
MAKE2D$VISIBLE$LINES
 10
1131.580245313512
 20
-1431.540677900913
 30
0.0
 11
1131.302796016491
 21
-1431.537703328631
 31
0.0
  0
LINE
  5
23F
  8
MAKE2D$VISIBLE$LINES
 10
1131.302796016491
 20
-1431.537703328631
 30
0.0
 11
1131.025346719471
 21
-1431.540677900913
 31
0.0
  0
LINE
  5
240
  8
MAKE2D$VISIBLE$LINES
 10
1131.025346719471
 20
-1431.540677900913
 30
0.0
 11
1130.745542964633
 21
-1431.549707290872
 31
0.0
  0
LINE
  5
241
  8
MAKE2D$VISIBLE$LINES
 10
1130.745542964633
 20
-1431.549707290872
 30
0.0
 11
1130.463568024124
 21
-1431.564946265349
 31
0.0
  0
LINE
  5
242
  8
MAKE2D$VISIBLE$LINES
 10
1130.463568024124
 20
-1431.564946265349
 30
0.0
 11
1130.17961554277
 21
-1431.586544056637
 31
0.0
  0
LINE
  5
243
  8
MAKE2D$VISIBLE$LINES
 10
1130.17961554277
 20
-1431.586544056637
 30
0.0
 11
1129.893889416693
 21
-1431.61464367305
 31
0.0
  0
LINE
  5
244
  8
MAKE2D$VISIBLE$LINES
 10
1129.893889416693
 20
-1431.61464367305
 30
0.0
 11
1129.606603619279
 21
-1431.649381201487
 31
0.0
  0
LINE
  5
245
  8
MAKE2D$VISIBLE$LINES
 10
1129.606603619279
 20
-1431.649381201487
 30
0.0
 11
1129.31798197243
 21
-1431.690885105938
 31
0.0
  0
LINE
  5
246
  8
MAKE2D$VISIBLE$LINES
 10
1129.31798197243
 20
-1431.690885105938
 30
0.0
 11
1129.02825786134
 21
-1431.739275526216
 31
0.0
  0
LINE
  5
247
  8
MAKE2D$VISIBLE$LINES
 10
1129.02825786134
 20
-1431.739275526216
 30
0.0
 11
1128.737673891422
 21
-1431.794663581442
 31
0.0
  0
LINE
  5
248
  8
MAKE2D$VISIBLE$LINES
 10
1128.737673891422
 20
-1431.794663581442
 30
0.0
 11
1128.446481486411
 21
-1431.857150683089
 31
0.0
  0
LINE
  5
249
  8
MAKE2D$VISIBLE$LINES
 10
1128.446481486411
 20
-1431.857150683089
 30
0.0
 11
1128.154940427135
 21
-1431.926827862596
 31
0.0
  0
LINE
  5
24A
  8
MAKE2D$VISIBLE$LINES
 10
1128.154940427135
 20
-1431.926827862596
 30
0.0
 11
1127.863318330925
 21
-1432.003775118741
 31
0.0
  0
LINE
  5
24B
  8
MAKE2D$VISIBLE$LINES
 10
1127.863318330925
 20
-1432.003775118741
 30
0.0
 11
1127.571890072166
 21
-1432.088060790084
 31
0.0
  0
LINE
  5
24C
  8
MAKE2D$VISIBLE$LINES
 10
1127.571890072166
 20
-1432.088060790084
 30
0.0
 11
1127.28093714505
 21
-1432.179740957871
 31
0.0
  0
LINE
  5
24D
  8
MAKE2D$VISIBLE$LINES
 10
1127.28093714505
 20
-1432.179740957871
 30
0.0
 11
1126.99074697014
 21
-1432.278858884802
 31
0.0
  0
LINE
  5
24E
  8
MAKE2D$VISIBLE$LINES
 10
1126.99074697014
 20
-1432.278858884802
 30
0.0
 11
1126.701612146968
 21
-1432.385444495024
 31
0.0
  0
LINE
  5
24F
  8
MAKE2D$VISIBLE$LINES
 10
1126.701612146968
 20
-1432.385444495024
 30
0.0
 11
1126.413829655495
 21
-1432.499513900598
 31
0.0
  0
LINE
  5
250
  8
MAKE2D$VISIBLE$LINES
 10
1126.413829655495
 20
-1432.499513900598
 30
0.0
 11
1126.127700009806
 21
-1432.62106897952
 31
0.0
  0
LINE
  5
251
  8
MAKE2D$VISIBLE$LINES
 10
1126.127700009806
 20
-1432.62106897952
 30
0.0
 11
1125.843526368068
 21
-1432.750097010108
 31
0.0
  0
LINE
  5
252
  8
MAKE2D$VISIBLE$LINES
 10
1125.843526368068
 20
-1432.750097010108
 30
0.0
 11
1125.561613603292
 21
-1432.886570366289
 31
0.0
  0
LINE
  5
253
  8
MAKE2D$VISIBLE$LINES
 10
1125.561613603292
 20
-1432.886570366289
 30
0.0
 11
1125.282267340016
 21
-1433.030446277907
 31
0.0
  0
LINE
  5
254
  8
MAKE2D$VISIBLE$LINES
 10
1125.282267340016
 20
-1433.030446277907
 30
0.0
 11
1125.005792962502
 21
-1433.181666659732
 31
0.0
  0
LINE
  5
255
  8
MAKE2D$VISIBLE$LINES
 10
1125.005792962502
 20
-1433.181666659732
 30
0.0
 11
1124.732494600521
 21
-1433.340158012355
 31
0.0
  0
LINE
  5
256
  8
MAKE2D$VISIBLE$LINES
 10
1124.732494600521
 20
-1433.340158012355
 30
0.0
 11
1124.462674099177
 21
-1433.505831397567
 31
0.0
  0
LINE
  5
257
  8
MAKE2D$VISIBLE$LINES
 10
1124.462674099177
 20
-1433.505831397567
 30
0.0
 11
1124.196629979585
 21
-1433.67858249023
 31
0.0
  0
LINE
  5
258
  8
MAKE2D$VISIBLE$LINES
 10
1124.196629979585
 20
-1433.67858249023
 30
0.0
 11
1123.934656397456
 21
-1433.858291707942
 31
0.0
  0
LINE
  5
259
  8
MAKE2D$VISIBLE$LINES
 10
1123.934656397456
 20
-1433.858291707942
 30
0.0
 11
1123.677042106857
 21
-1434.044824419171
 31
0.0
  0
LINE
  5
25A
  8
MAKE2D$VISIBLE$LINES
 10
1123.677042106857
 20
-1434.044824419171
 30
0.0
 11
1123.424069436501
 21
-1434.23803122974
 31
0.0
  0
LINE
  5
25B
  8
MAKE2D$VISIBLE$LINES
 10
1123.424069436501
 20
-1434.23803122974
 30
0.0
 11
1123.176013285956
 21
-1434.437748346856
 31
0.0
  0
LINE
  5
25C
  8
MAKE2D$VISIBLE$LINES
 10
1123.176013285956
 20
-1434.437748346856
 30
0.0
 11
1122.933140149089
 21
-1434.643798019136
 31
0.0
  0
LINE
  5
25D
  8
MAKE2D$VISIBLE$LINES
 10
1122.933140149089
 20
-1434.643798019136
 30
0.0
 11
1122.6957071719
 21
-1434.855989050306
 31
0.0
  0
LINE
  5
25E
  8
MAKE2D$VISIBLE$LINES
 10
1122.6957071719
 20
-1434.855989050306
 30
0.0
 11
1122.46396125166
 21
-1435.074117383592
 31
0.0
  0
LINE
  5
25F
  8
MAKE2D$VISIBLE$LINES
 10
1122.46396125166
 20
-1435.074117383592
 30
0.0
 11
1122.238138183936
 21
-1435.297966753089
 31
0.0
  0
LINE
  5
260
  8
MAKE2D$VISIBLE$LINES
 10
1122.238138183936
 20
-1435.297966753089
 30
0.0
 11
1122.01846186367
 21
-1435.527309397768
 31
0.0
  0
LINE
  5
261
  8
MAKE2D$VISIBLE$LINES
 10
1122.01846186367
 20
-1435.527309397768
 30
0.0
 11
1121.805143545977
 21
-1435.76190683318
 31
0.0
  0
LINE
  5
262
  8
MAKE2D$VISIBLE$LINES
 10
1121.805143545977
 20
-1435.76190683318
 30
0.0
 11
1121.598381171806
 21
-1436.001510675361
 31
0.0
  0
LINE
  5
263
  8
MAKE2D$VISIBLE$LINES
 10
1121.598381171806
 20
-1436.001510675361
 30
0.0
 11
1121.398358762932
 21
-1436.245863511004
 31
0.0
  0
LINE
  5
264
  8
MAKE2D$VISIBLE$LINES
 10
1121.398358762932
 20
-1436.245863511004
 30
0.0
 11
1121.205245890129
 21
-1436.494699807515
 31
0.0
  0
LINE
  5
265
  8
MAKE2D$VISIBLE$LINES
 10
1121.205245890129
 20
-1436.494699807515
 30
0.0
 11
1121.019197217631
 21
-1436.747746856298
 31
0.0
  0
LINE
  5
266
  8
MAKE2D$VISIBLE$LINES
 10
1121.019197217631
 20
-1436.747746856298
 30
0.0
 11
1120.840352126258
 21
-1437.004725742344
 31
0.0
  0
LINE
  5
267
  8
MAKE2D$VISIBLE$LINES
 10
1120.840352126258
 20
-1437.004725742344
 30
0.0
 11
1120.66883441682
 21
-1437.265352333055
 31
0.0
  0
LINE
  5
268
  8
MAKE2D$VISIBLE$LINES
 10
1120.66883441682
 20
-1437.265352333055
 30
0.0
 11
1120.504752094649
 21
-1437.529338279174
 31
0.0
  0
LINE
  5
269
  8
MAKE2D$VISIBLE$LINES
 10
1120.504752094649
 20
-1437.529338279174
 30
0.0
 11
1120.348197235353
 21
-1437.796392020722
 31
0.0
  0
LINE
  5
26A
  8
MAKE2D$VISIBLE$LINES
 10
1120.348197235353
 20
-1437.796392020722
 30
0.0
 11
1120.19924593112
 21
-1438.066219790898
 31
0.0
  0
LINE
  5
26B
  8
MAKE2D$VISIBLE$LINES
 10
1120.19924593112
 20
-1438.066219790898
 30
0.0
 11
1120.057958316205
 21
-1438.338526611155
 31
0.0
  0
LINE
  5
26C
  8
MAKE2D$VISIBLE$LINES
 10
1120.057958316205
 20
-1438.338526611155
 30
0.0
 11
1119.924378669532
 21
-1438.613017270861
 31
0.0
  0
LINE
  5
26D
  8
MAKE2D$VISIBLE$LINES
 10
1119.924378669532
 20
-1438.613017270861
 30
0.0
 11
1119.798535591716
 21
-1438.889397285299
 31
0.0
  0
LINE
  5
26E
  8
MAKE2D$VISIBLE$LINES
 10
1119.798535591716
 20
-1438.889397285299
 30
0.0
 11
1119.680442253211
 21
-1439.167373826167
 31
0.0
  0
LINE
  5
26F
  8
MAKE2D$VISIBLE$LINES
 10
1119.680442253211
 20
-1439.167373826167
 30
0.0
 11
1119.570096709774
 21
-1439.446656619148
 31
0.0
  0
LINE
  5
270
  8
MAKE2D$VISIBLE$LINES
 10
1119.570096709774
 20
-1439.446656619148
 30
0.0
 11
1119.46748228097
 21
-1439.72695880363
 31
0.0
  0
LINE
  5
271
  8
MAKE2D$VISIBLE$LINES
 10
1119.46748228097
 20
-1439.72695880363
 30
0.0
 11
1119.372567987045
 21
-1440.007997750165
 31
0.0
  0
LINE
  5
272
  8
MAKE2D$VISIBLE$LINES
 10
1119.372567987045
 20
-1440.007997750165
 30
0.0
 11
1119.285309039154
 21
-1440.28949583181
 31
0.0
  0
LINE
  5
273
  8
MAKE2D$VISIBLE$LINES
 10
1119.285309039154
 20
-1440.28949583181
 30
0.0
 11
1119.205647377719
 21
-1440.571181146057
 31
0.0
  0
LINE
  5
274
  8
MAKE2D$VISIBLE$LINES
 10
1119.205647377719
 20
-1440.571181146057
 30
0.0
 11
1119.133512253457
 21
-1440.852788184634
 31
0.0
  0
LINE
  5
275
  8
MAKE2D$VISIBLE$LINES
 10
1119.133512253457
 20
-1440.852788184634
 30
0.0
 11
1119.068820845539
 21
-1441.134058449053
 31
0.0
  0
LINE
  5
276
  8
MAKE2D$VISIBLE$LINES
 10
1119.068820845539
 20
-1441.134058449053
 30
0.0
 11
1119.011478911284
 21
-1441.414741010303
 31
0.0
  0
LINE
  5
277
  8
MAKE2D$VISIBLE$LINES
 10
1119.011478911284
 20
-1441.414741010303
 30
0.0
 11
1118.96138146181
 21
-1441.694593011703
 31
0.0
  0
LINE
  5
278
  8
MAKE2D$VISIBLE$LINES
 10
1118.96138146181
 20
-1441.694593011703
 30
0.0
 11
1118.918413458139
 21
-1441.973380114421
 31
0.0
  0
LINE
  5
279
  8
MAKE2D$VISIBLE$LINES
 10
1118.918413458139
 20
-1441.973380114421
 30
0.0
 11
1118.882450522382
 21
-1442.25087688567
 31
0.0
  0
LINE
  5
27A
  8
MAKE2D$VISIBLE$LINES
 10
1118.882450522382
 20
-1442.25087688567
 30
0.0
 11
1118.85335965883
 21
-1442.526867130093
 31
0.0
  0
LINE
  5
27B
  8
MAKE2D$VISIBLE$LINES
 10
1118.85335965883
 20
-1442.526867130093
 30
0.0
 11
1118.830999979961
 21
-1442.801144165272
 31
0.0
  0
LINE
  5
27C
  8
MAKE2D$VISIBLE$LINES
 10
1118.830999979961
 20
-1442.801144165272
 30
0.0
 11
1118.81522343267
 21
-1443.073511042676
 31
0.0
  0
LINE
  5
27D
  8
MAKE2D$VISIBLE$LINES
 10
1118.81522343267
 20
-1443.073511042676
 30
0.0
 11
1118.805875520322
 21
-1443.343780715767
 31
0.0
  0
LINE
  5
27E
  8
MAKE2D$VISIBLE$LINES
 10
1118.805875520322
 20
-1443.343780715767
 30
0.0
 11
1118.802796016491
 21
-1443.611776157244
 31
0.0
  0
LINE
  5
27F
  8
MAKE2D$VISIBLE$LINES
 10
1118.802796016491
 20
-1443.611776157244
 30
0.0
 11
1118.806694216363
 21
-1443.913293274224
 31
0.0
  0
LINE
  5
280
  8
MAKE2D$VISIBLE$LINES
 10
1118.806694216363
 20
-1443.913293274224
 30
0.0
 11
1118.818543922134
 21
-1444.217658584692
 31
0.0
  0
LINE
  5
281
  8
MAKE2D$VISIBLE$LINES
 10
1118.818543922134
 20
-1444.217658584692
 30
0.0
 11
1118.83857147214
 21
-1444.524617718571
 31
0.0
  0
LINE
  5
282
  8
MAKE2D$VISIBLE$LINES
 10
1118.83857147214
 20
-1444.524617718571
 30
0.0
 11
1118.866993760493
 21
-1444.833900329511
 31
0.0
  0
LINE
  5
283
  8
MAKE2D$VISIBLE$LINES
 10
1118.866993760493
 20
-1444.833900329511
 30
0.0
 11
1118.904016948859
 21
-1445.145220333927
 31
0.0
  0
LINE
  5
284
  8
MAKE2D$VISIBLE$LINES
 10
1118.904016948859
 20
-1445.145220333927
 30
0.0
 11
1118.949835164544
 21
-1445.458276254393
 31
0.0
  0
LINE
  5
285
  8
MAKE2D$VISIBLE$LINES
 10
1118.949835164544
 20
-1445.458276254393
 30
0.0
 11
1119.004629194499
 21
-1445.772751671629
 31
0.0
  0
LINE
  5
286
  8
MAKE2D$VISIBLE$LINES
 10
1119.004629194499
 20
-1445.772751671629
 30
0.0
 11
1119.068565185685
 21
-1446.088315788481
 31
0.0
  0
LINE
  5
287
  8
MAKE2D$VISIBLE$LINES
 10
1119.068565185685
 20
-1446.088315788481
 30
0.0
 11
1119.141793362865
 21
-1446.404624108311
 31
0.0
  0
LINE
  5
288
  8
MAKE2D$VISIBLE$LINES
 10
1119.141793362865
 20
-1446.404624108311
 30
0.0
 11
1119.22444677556
 21
-1446.721319229104
 31
0.0
  0
LINE
  5
289
  8
MAKE2D$VISIBLE$LINES
 10
1119.22444677556
 20
-1446.721319229104
 30
0.0
 11
1119.316640086317
 21
-1447.038031753434
 31
0.0
  0
LINE
  5
28A
  8
MAKE2D$VISIBLE$LINES
 10
1119.316640086317
 20
-1447.038031753434
 30
0.0
 11
1119.418468412816
 21
-1447.354381313092
 31
0.0
  0
LINE
  5
28B
  8
MAKE2D$VISIBLE$LINES
 10
1119.418468412816
 20
-1447.354381313092
 30
0.0
 11
1119.530006236496
 21
-1447.669977705856
 31
0.0
  0
LINE
  5
28C
  8
MAKE2D$VISIBLE$LINES
 10
1119.530006236496
 20
-1447.669977705856
 30
0.0
 11
1119.651306390395
 21
-1447.984422140417
 31
0.0
  0
LINE
  5
28D
  8
MAKE2D$VISIBLE$LINES
 10
1119.651306390395
 20
-1447.984422140417
 30
0.0
 11
1119.782399138715
 21
-1448.297308584054
 31
0.0
  0
LINE
  5
28E
  8
MAKE2D$VISIBLE$LINES
 10
1119.782399138715
 20
-1448.297308584054
 30
0.0
 11
1119.923291360241
 21
-1448.608225206133
 31
0.0
  0
LINE
  5
28F
  8
MAKE2D$VISIBLE$LINES
 10
1119.923291360241
 20
-1448.608225206133
 30
0.0
 11
1120.073965847169
 21
-1448.916755909093
 31
0.0
  0
LINE
  5
290
  8
MAKE2D$VISIBLE$LINES
 10
1120.073965847169
 20
-1448.916755909093
 30
0.0
 11
1120.234380730119
 21
-1449.222481937119
 31
0.0
  0
LINE
  5
291
  8
MAKE2D$VISIBLE$LINES
 10
1120.234380730119
 20
-1449.222481937119
 30
0.0
 11
1120.404469039088
 21
-1449.524983551408
 31
0.0
  0
LINE
  5
292
  8
MAKE2D$VISIBLE$LINES
 10
1120.404469039088
 20
-1449.524983551408
 30
0.0
 11
1120.584138408975
 21
-1449.823841759657
 31
0.0
  0
LINE
  5
293
  8
MAKE2D$VISIBLE$LINES
 10
1120.584138408975
 20
-1449.823841759657
 30
0.0
 11
1120.773270936883
 21
-1450.118640086304
 31
0.0
  0
LINE
  5
294
  8
MAKE2D$VISIBLE$LINES
 10
1120.773270936883
 20
-1450.118640086304
 30
0.0
 11
1120.971723196919
 21
-1450.40896636911
 31
0.0
  0
LINE
  5
295
  8
MAKE2D$VISIBLE$LINES
 10
1120.971723196919
 20
-1450.40896636911
 30
0.0
 11
1121.179326416505
 21
-1450.694414566884
 31
0.0
  0
LINE
  5
296
  8
MAKE2D$VISIBLE$LINES
 10
1121.179326416505
 20
-1450.694414566884
 30
0.0
 11
1121.395886816446
 21
-1450.974586562597
 31
0.0
  0
LINE
  5
297
  8
MAKE2D$VISIBLE$LINES
 10
1121.395886816446
 20
-1450.974586562597
 30
0.0
 11
1121.621186115104
 21
-1451.249093945791
 31
0.0
  0
LINE
  5
298
  8
MAKE2D$VISIBLE$LINES
 10
1121.621186115104
 20
-1451.249093945791
 30
0.0
 11
1121.854982195084
 21
-1451.517559758063
 31
0.0
  0
LINE
  5
299
  8
MAKE2D$VISIBLE$LINES
 10
1121.854982195084
 20
-1451.517559758063
 30
0.0
 11
1122.097009928908
 21
-1451.779620185585
 31
0.0
  0
LINE
  5
29A
  8
MAKE2D$VISIBLE$LINES
 10
1122.097009928908
 20
-1451.779620185585
 30
0.0
 11
1122.346982158187
 21
-1452.03492618294
 31
0.0
  0
LINE
  5
29B
  8
MAKE2D$VISIBLE$LINES
 10
1122.346982158187
 20
-1452.03492618294
 30
0.0
 11
1122.604590818917
 21
-1452.283145013262
 31
0.0
  0
LINE
  5
29C
  8
MAKE2D$VISIBLE$LINES
 10
1122.604590818917
 20
-1452.283145013262
 30
0.0
 11
1122.86950820376
 21
-1452.523961690469
 31
0.0
  0
LINE
  5
29D
  8
MAKE2D$VISIBLE$LINES
 10
1122.86950820376
 20
-1452.523961690469
 30
0.0
 11
1123.141388350461
 21
-1452.757080310507
 31
0.0
  0
LINE
  5
29E
  8
MAKE2D$VISIBLE$LINES
 10
1123.141388350461
 20
-1452.757080310507
 30
0.0
 11
1123.419868544081
 21
-1452.982225259808
 31
0.0
  0
LINE
  5
29F
  8
MAKE2D$VISIBLE$LINES
 10
1123.419868544081
 20
-1452.982225259808
 30
0.0
 11
1123.419868544082
 21
-1455.685848985858
 31
0.0
  0
LINE
  5
2A0
  8
MAKE2D$VISIBLE$LINES
 10
1123.419868544082
 20
-1455.685848985858
 30
0.0
 11
1123.419868544082
 21
-1459.355401456446
 31
0.0
  0
LINE
  5
2A1
  8
MAKE2D$VISIBLE$LINES
 10
1123.419868544082
 20
-1459.355401456446
 30
0.0
 11
1131.302796016491
 21
-1459.355401456446
 31
0.0
  0
LINE
  5
2A2
  8
MAKE2D$VISIBLE$LINES
 10
1131.302796016491
 20
-1459.355401456446
 30
0.0
 11
1139.185723488902
 21
-1459.355401456446
 31
0.0
  0
LINE
  5
2A3
  8
MAKE2D$VISIBLE$LINES
 10
1139.185723488902
 20
-1459.355401456446
 30
0.0
 11
1139.185723488902
 21
-1452.982225259807
 31
0.0
  0
ENDSEC
  0
EOF
