  0
SECTION
  2
HEADER
  9
$ACADVER
  1
AC1009
  9
$DWGCODEPAGE
  3
mac-roman
  9
$INSBASE
 10
0.0
 20
0.0
 30
0.0
  9
$EXTMIN
 10
817.3869609778164
 20
-1520.243774298292
 30
0.0
  9
$EXTMAX
 10
1169.987028919199
 20
-1368.935764020755
 30
10.53217968955457
  9
$LIMMIN
 10
0.0
 20
0.0
  9
$LIMMAX
 10
12.0
 20
9.0
  9
$ORTHOMODE
 70
     0
  9
$REGENMODE
 70
     1
  9
$FILLMODE
 70
     1
  9
$QTEXTMODE
 70
     0
  9
$MIRRTEXT
 70
     1
  9
$DRAGMODE
 70
     2
  9
$LTSCALE
 40
1.0
  9
$OSMODE
 70
    37
  9
$ATTMODE
 70
     1
  9
$TEXTSIZE
 40
0.2
  9
$TRACEWID
 40
0.05
  9
$TEXTSTYLE
  7
STANDARD
  9
$CLAYER
  8
FAB_4$CUT_ALL
  9
$CELTYPE
  6
BYLAYER
  9
$CECOLOR
 62
   256
  9
$DIMSCALE
 40
1.0
  9
$DIMASZ
 40
0.18
  9
$DIMEXO
 40
0.0625
  9
$DIMDLI
 40
0.38
  9
$DIMRND
 40
0.0
  9
$DIMDLE
 40
0.0
  9
$DIMEXE
 40
0.18
  9
$DIMTP
 40
0.0
  9
$DIMTM
 40
0.0
  9
$DIMTXT
 40
0.18
  9
$DIMCEN
 40
0.09
  9
$DIMTSZ
 40
0.0
  9
$DIMTOL
 70
     0
  9
$DIMLIM
 70
     0
  9
$DIMTIH
 70
     1
  9
$DIMTOH
 70
     1
  9
$DIMSE1
 70
     0
  9
$DIMSE2
 70
     0
  9
$DIMTAD
 70
     0
  9
$DIMZIN
 70
     0
  9
$DIMBLK
  1

  9
$DIMASO
 70
     1
  9
$DIMSHO
 70
     1
  9
$DIMPOST
  1

  9
$DIMAPOST
  1

  9
$DIMALT
 70
     0
  9
$DIMALTD
 70
     2
  9
$DIMALTF
 40
25.4
  9
$DIMLFAC
 40
1.0
  9
$DIMTOFL
 70
     0
  9
$DIMTVP
 40
0.0
  9
$DIMTIX
 70
     0
  9
$DIMSOXD
 70
     0
  9
$DIMSAH
 70
     0
  9
$DIMBLK1
  1

  9
$DIMBLK2
  1

  9
$DIMSTYLE
  2
STANDARD
  9
$DIMCLRD
 70
     0
  9
$DIMCLRE
 70
     0
  9
$DIMCLRT
 70
     0
  9
$DIMTFAC
 40
1.0
  9
$DIMGAP
 40
0.09
  9
$LUNITS
 70
     2
  9
$LUPREC
 70
     3
  9
$SKETCHINC
 40
0.1
  9
$FILLETRAD
 40
0.5
  9
$AUNITS
 70
     0
  9
$AUPREC
 70
     0
  9
$MENU
  1
.
  9
$ELEVATION
 40
0.0
  9
$PELEVATION
 40
0.0
  9
$THICKNESS
 40
0.0
  9
$LIMCHECK
 70
     0
  9
$CHAMFERA
 40
0.0
  9
$CHAMFERB
 40
0.0
  9
$SKPOLY
 70
     0
  9
$TDCREATE
 40
2457967.864097222
  9
$TDUPDATE
 40
2457967.864108796
  9
$TDINDWG
 40
0.0000000116
  9
$TDUSRTIMER
 40
0.0000000116
  9
$USRTIMER
 70
     1
  9
$ANGBASE
 50
0.0
  9
$ANGDIR
 70
     0
  9
$PDMODE
 70
     0
  9
$PDSIZE
 40
0.0
  9
$PLINEWID
 40
0.0
  9
$COORDS
 70
     1
  9
$SPLFRAME
 70
     0
  9
$SPLINETYPE
 70
     6
  9
$SPLINESEGS
 70
     8
  9
$ATTDIA
 70
     0
  9
$ATTREQ
 70
     1
  9
$HANDLING
 70
     1
  9
$HANDSEED
  5
123
  9
$SURFTAB1
 70
     6
  9
$SURFTAB2
 70
     6
  9
$SURFTYPE
 70
     6
  9
$SURFU
 70
     6
  9
$SURFV
 70
     6
  9
$UCSNAME
  2

  9
$UCSORG
 10
0.0
 20
0.0
 30
0.0
  9
$UCSXDIR
 10
1.0
 20
0.0
 30
0.0
  9
$UCSYDIR
 10
0.0
 20
1.0
 30
0.0
  9
$PUCSNAME
  2

  9
$PUCSORG
 10
0.0
 20
0.0
 30
0.0
  9
$PUCSXDIR
 10
1.0
 20
0.0
 30
0.0
  9
$PUCSYDIR
 10
0.0
 20
1.0
 30
0.0
  9
$USERI1
 70
     0
  9
$USERI2
 70
     0
  9
$USERI3
 70
     0
  9
$USERI4
 70
     0
  9
$USERI5
 70
     0
  9
$USERR1
 40
0.0
  9
$USERR2
 40
0.0
  9
$USERR3
 40
0.0
  9
$USERR4
 40
0.0
  9
$USERR5
 40
0.0
  9
$WORLDVIEW
 70
     1
  9
$SHADEDGE
 70
     3
  9
$SHADEDIF
 70
    70
  9
$TILEMODE
 70
     1
  9
$MAXACTVP
 70
    64
  9
$PLIMCHECK
 70
     0
  9
$PEXTMIN
 10
1.000000000000000E+20
 20
1.000000000000000E+20
 30
1.000000000000000E+20
  9
$PEXTMAX
 10
-1.000000000000000E+20
 20
-1.000000000000000E+20
 30
-1.000000000000000E+20
  9
$PLIMMIN
 10
0.0
 20
0.0
  9
$PLIMMAX
 10
12.0
 20
9.0
  9
$UNITMODE
 70
     0
  9
$VISRETAIN
 70
     1
  9
$PLINEGEN
 70
     0
  9
$PSLTSCALE
 70
     1
  0
ENDSEC
  0
SECTION
  2
TABLES
  0
TABLE
  2
VPORT
 70
     1
  0
VPORT
  2
*ACTIVE
 70
     0
 10
0.0
 20
0.0
 11
1.0
 21
1.0
 12
993.6869949485078
 22
-1444.589769159523
 13
0.0
 23
0.0
 14
0.5
 24
0.5
 15
0.5
 25
0.5
 16
0.0
 26
0.0
 36
1.0
 17
0.0
 27
0.0
 37
0.0
 40
154.3341704830873
 41
2.330346339857529
 42
50.0
 43
0.0
 44
0.0
 50
0.0
 51
0.0
 71
     0
 72
   100
 73
     1
 74
     3
 75
     0
 76
     0
 77
     0
 78
     0
  0
ENDTAB
  0
TABLE
  2
LTYPE
 70
     1
  0
LTYPE
  2
CONTINUOUS
 70
     0
  3
Solid line
 72
    65
 73
     0
 40
0.0
  0
ENDTAB
  0
TABLE
  2
LAYER
 70
     2
  0
LAYER
  2
0
 70
     0
 62
     7
  6
CONTINUOUS
  0
LAYER
  2
FAB_4$CUT_ALL
 70
     0
 62
     7
  6
CONTINUOUS
  0
ENDTAB
  0
TABLE
  2
STYLE
 70
     1
  0
STYLE
  2
STANDARD
 70
     0
 40
0.0
 41
1.0
 50
0.0
 71
     0
 42
0.2
  3
txt
  4

  0
ENDTAB
  0
TABLE
  2
VIEW
 70
     0
  0
ENDTAB
  0
TABLE
  2
UCS
 70
     0
  0
ENDTAB
  0
TABLE
  2
APPID
 70
     1
  0
APPID
  2
ACAD
 70
     0
  0
ENDTAB
  0
TABLE
  2
DIMSTYLE
 70
     1
  0
DIMSTYLE
  2
STANDARD
 70
     0
  3

  4

  5

  6

  7

 40
1.0
 41
0.18
 42
0.0625
 43
0.38
 44
0.18
 45
0.0
 46
0.0
 47
0.0
 48
0.0
140
0.18
141
0.09
142
0.0
143
25.4
144
1.0
145
0.0
146
1.0
147
0.09
 71
     0
 72
     0
 73
     1
 74
     1
 75
     0
 76
     0
 77
     0
 78
     0
170
     0
171
     2
172
     0
173
     0
174
     0
175
     0
176
     0
177
     0
178
     0
  0
ENDTAB
  0
ENDSEC
  0
SECTION
  2
BLOCKS
  0
BLOCK
  8
0
  2
$MODEL_SPACE
 70
     0
 10
0.0
 20
0.0
 30
0.0
  3
$MODEL_SPACE
  1

  0
ENDBLK
  5
21
  8
0
  0
BLOCK
 67
     1
  8
0
  2
$PAPER_SPACE
 70
     0
 10
0.0
 20
0.0
 30
0.0
  3
$PAPER_SPACE
  1

  0
ENDBLK
  5
1D
 67
     1
  8
0
  0
ENDSEC
  0
SECTION
  2
ENTITIES
  0
LINE
  5
6F
  8
FAB_4$CUT_ALL
 10
1067.005953919199
 20
-1448.953768517862
 30
9.084522601194124
 11
1074.593953919199
 21
-1448.953768517862
 31
9.084522601194124
  0
LINE
  5
70
  8
FAB_4$CUT_ALL
 10
1074.593953919199
 20
-1448.953768517862
 30
9.084522601194124
 11
1074.593953919199
 21
-1446.531226545529
 31
9.733640766311225
  0
LINE
  5
71
  8
FAB_4$CUT_ALL
 10
1074.593953919199
 20
-1446.531226545529
 30
9.733640766311225
 11
1067.005953919199
 21
-1446.531226545529
 31
9.733640766311225
  0
LINE
  5
72
  8
FAB_4$CUT_ALL
 10
1067.005953919199
 20
-1446.531226545529
 30
9.733640766311225
 11
1067.005953919199
 21
-1448.953768517862
 31
9.084522601194124
  0
LINE
  5
73
  8
FAB_4$CUT_ALL
 10
1067.005953919199
 20
-1446.500316919087
 30
9.741922975754505
 11
1074.593953919199
 21
-1446.500316919087
 31
9.741922975754505
  0
LINE
  5
74
  8
FAB_4$CUT_ALL
 10
1074.593953919199
 20
-1446.500316919087
 30
9.741922975754505
 11
1074.593953919199
 21
-1444.077774946755
 31
10.39104114087161
  0
LINE
  5
75
  8
FAB_4$CUT_ALL
 10
1074.593953919199
 20
-1444.077774946755
 30
10.39104114087161
 11
1067.005953919199
 21
-1444.077774946755
 31
10.39104114087161
  0
LINE
  5
76
  8
FAB_4$CUT_ALL
 10
1067.005953919199
 20
-1444.077774946755
 30
10.39104114087161
 11
1067.005953919199
 21
-1446.500316919087
 31
9.741922975754505
  0
CIRCLE
  5
77
  8
FAB_4$CUT_ALL
 10
892.9390651612833
 20
-1404.13730116839
 30
383.791805765492
 40
12.5
210
0.0
220
-0.2588190451025208
230
0.9659258262890684
  0
CIRCLE
  5
78
  8
FAB_4$CUT_ALL
 10
1128.034992677115
 20
-1404.424393069621
 30
383.791805765492
 40
12.5
210
0.0
220
-0.2588190451025208
230
0.9659258262890684
  0
LINE
  5
79
  8
FAB_4$CUT_ALL
 10
858.0372968448341
 20
-1447.0067208378
 30
0.0
 11
858.0372968448341
 21
-1422.0567208378
 31
0.0
  0
LINE
  5
7A
  8
FAB_4$CUT_ALL
 10
858.0372968448341
 20
-1422.0567208378
 30
0.0
 11
860.9372968448342
 21
-1422.0567208378
 31
0.0
  0
LINE
  5
7B
  8
FAB_4$CUT_ALL
 10
860.9372968448342
 20
-1422.0567208378
 30
0.0
 11
860.9372968448342
 21
-1471.9567208378
 31
0.0
  0
LINE
  5
7C
  8
FAB_4$CUT_ALL
 10
860.9372968448342
 20
-1471.9567208378
 30
0.0
 11
858.0372968448341
 21
-1471.9567208378
 31
0.0
  0
LINE
  5
7D
  8
FAB_4$CUT_ALL
 10
858.0372968448341
 20
-1471.9567208378
 30
0.0
 11
858.0372968448341
 21
-1447.0067208378
 31
0.0
  0
LINE
  5
7E
  8
FAB_4$CUT_ALL
 10
1162.937028919199
 20
-1447.006720837799
 30
0.0
 11
1162.937028919199
 21
-1471.956720837799
 31
0.0
  0
LINE
  5
7F
  8
FAB_4$CUT_ALL
 10
1162.937028919199
 20
-1471.956720837799
 30
0.0
 11
1160.037028919199
 21
-1471.956720837799
 31
0.0
  0
LINE
  5
80
  8
FAB_4$CUT_ALL
 10
1160.037028919199
 20
-1471.956720837799
 30
0.0
 11
1160.037028919199
 21
-1422.056720837799
 31
0.0
  0
LINE
  5
81
  8
FAB_4$CUT_ALL
 10
1160.037028919199
 20
-1422.056720837799
 30
0.0
 11
1162.937028919199
 21
-1422.056720837799
 31
0.0
  0
LINE
  5
82
  8
FAB_4$CUT_ALL
 10
1162.937028919199
 20
-1422.056720837799
 30
0.0
 11
1162.937028919199
 21
-1447.006720837799
 31
0.0
  0
LINE
  5
83
  8
FAB_4$CUT_ALL
 10
1010.487162882017
 20
-1513.193774298292
 30
0.0
 11
985.5371628820169
 21
-1513.193774298292
 31
0.0
  0
LINE
  5
84
  8
FAB_4$CUT_ALL
 10
985.5371628820169
 20
-1513.193774298292
 30
0.0
 11
985.5371628820169
 21
-1510.293774298292
 31
0.0
  0
LINE
  5
85
  8
FAB_4$CUT_ALL
 10
985.5371628820169
 20
-1510.293774298292
 30
0.0
 11
1035.437162882017
 21
-1510.293774298292
 31
0.0
  0
LINE
  5
86
  8
FAB_4$CUT_ALL
 10
1035.437162882017
 20
-1510.293774298292
 30
0.0
 11
1035.437162882017
 21
-1513.193774298292
 31
0.0
  0
LINE
  5
87
  8
FAB_4$CUT_ALL
 10
1035.437162882017
 20
-1513.193774298292
 30
0.0
 11
1010.487162882017
 21
-1513.193774298292
 31
0.0
  0
ARC
  5
88
  8
FAB_4$CUT_ALL
 10
1159.987028919199
 20
-1510.243774298291
 30
0.0
 40
10.00000000000023
 50
270.0000000000013
 51
359.999999999746
  0
LINE
  5
89
  8
FAB_4$CUT_ALL
 10
1169.987028919199
 20
-1432.99603408485
 30
0.0
 11
1169.987028919199
 21
-1510.243774298335
 31
0.0
  0
LINE
  5
8A
  8
FAB_4$CUT_ALL
 10
1159.987028919199
 20
-1520.243774298292
 30
0.0
 11
1010.487162882017
 21
-1520.243774298292
 31
0.0
  0
ARC
  5
8B
  8
FAB_4$CUT_ALL
 10
860.9872968448341
 20
-1510.243774298286
 30
0.0
 40
9.999999999999204
 50
179.9999999999974
 51
270.0000000000072
  0
LINE
  5
8C
  8
FAB_4$CUT_ALL
 10
1010.487162882017
 20
-1520.243774298292
 30
0.0
 11
860.9872968448353
 21
-1520.243774298292
 31
0.0
  0
LINE
  5
8D
  8
FAB_4$CUT_ALL
 10
850.9872968448346
 20
-1510.243774298286
 30
0.0
 11
850.987296844834
 21
-1439.004367138869
 31
0.0
  0
ARC
  5
8E
  8
FAB_4$CUT_ALL
 10
830.9872968448327
 20
-1439.00436713887
 30
0.0
 40
20.00000000000125
 50
0.0000000000019541
 51
74.48514468968756
  0
LINE
  5
8F
  8
FAB_4$CUT_ALL
 10
1169.98676099561
 20
-1383.769667377308
 30
0.0
 11
1169.987028919199
 21
-1432.99603408485
 31
0.0
  0
LINE
  5
90
  8
FAB_4$CUT_ALL
 10
1169.98676099561
 20
-1378.935767984485
 30
0.0
 11
1169.98676099561
 21
-1383.769667377308
 31
0.0
  0
LINE
  5
91
  8
FAB_4$CUT_ALL
 10
1163.487028919199
 20
-1368.935767984485
 30
0.0
 11
1163.631296606832
 21
-1368.938231587549
 31
0.0
  0
LINE
  5
92
  8
FAB_4$CUT_ALL
 10
1163.631296606832
 20
-1368.938231587549
 30
0.0
 11
1163.776788562066
 21
-1368.945709917428
 31
0.0
  0
LINE
  5
93
  8
FAB_4$CUT_ALL
 10
1163.776788562066
 20
-1368.945709917428
 30
0.0
 11
1163.923409487312
 21
-1368.958331155261
 31
0.0
  0
LINE
  5
94
  8
FAB_4$CUT_ALL
 10
1163.923409487312
 20
-1368.958331155261
 30
0.0
 11
1164.07105869141
 21
-1368.976218898356
 31
0.0
  0
LINE
  5
95
  8
FAB_4$CUT_ALL
 10
1164.07105869141
 20
-1368.976218898356
 30
0.0
 11
1164.219630152749
 21
-1368.999491589198
 31
0.0
  0
LINE
  5
96
  8
FAB_4$CUT_ALL
 10
1164.219630152749
 20
-1368.999491589198
 30
0.0
 11
1164.369012609753
 21
-1369.028261937803
 31
0.0
  0
LINE
  5
97
  8
FAB_4$CUT_ALL
 10
1164.369012609753
 20
-1369.028261937803
 30
0.0
 11
1164.519089679831
 21
-1369.06263634074
 31
0.0
  0
LINE
  5
98
  8
FAB_4$CUT_ALL
 10
1164.519089679831
 20
-1369.06263634074
 30
0.0
 11
1164.669740007684
 21
-1369.10271430032
 31
0.0
  0
LINE
  5
99
  8
FAB_4$CUT_ALL
 10
1164.669740007684
 20
-1369.10271430032
 30
0.0
 11
1164.820837443697
 21
-1369.148587847723
 31
0.0
  0
LINE
  5
9A
  8
FAB_4$CUT_ALL
 10
1164.820837443697
 20
-1369.148587847723
 30
0.0
 11
1164.972251252917
 21
-1369.200340974058
 31
0.0
  0
LINE
  5
9B
  8
FAB_4$CUT_ALL
 10
1164.972251252917
 20
-1369.200340974058
 30
0.0
 11
1165.123846354883
 21
-1369.258049073467
 31
0.0
  0
LINE
  5
9C
  8
FAB_4$CUT_ALL
 10
1165.123846354883
 20
-1369.258049073467
 30
0.0
 11
1165.275483594317
 21
-1369.321778402615
 31
0.0
  0
LINE
  5
9D
  8
FAB_4$CUT_ALL
 10
1165.275483594317
 20
-1369.321778402615
 30
0.0
 11
1165.427020042431
 21
-1369.391585560928
 31
0.0
  0
LINE
  5
9E
  8
FAB_4$CUT_ALL
 10
1165.427020042431
 20
-1369.391585560928
 30
0.0
 11
1165.578309328279
 21
-1369.467516996069
 31
0.0
  0
LINE
  5
9F
  8
FAB_4$CUT_ALL
 10
1165.578309328279
 20
-1369.467516996069
 30
0.0
 11
1165.72920199933
 21
-1369.549608539111
 31
0.0
  0
LINE
  5
A0
  8
FAB_4$CUT_ALL
 10
1165.72920199933
 20
-1369.549608539111
 30
0.0
 11
1165.879545910095
 21
-1369.637884973861
 31
0.0
  0
LINE
  5
A1
  8
FAB_4$CUT_ALL
 10
1165.879545910095
 20
-1369.637884973861
 30
0.0
 11
1166.029186637364
 21
-1369.732359644666
 31
0.0
  0
LINE
  5
A2
  8
FAB_4$CUT_ALL
 10
1166.029186637364
 20
-1369.732359644666
 30
0.0
 11
1166.177967920252
 21
-1369.833034106918
 31
0.0
  0
LINE
  5
A3
  8
FAB_4$CUT_ALL
 10
1166.177967920252
 20
-1369.833034106918
 30
0.0
 11
1166.32573212301
 21
-1369.939897824256
 31
0.0
  0
LINE
  5
A4
  8
FAB_4$CUT_ALL
 10
1166.32573212301
 20
-1369.939897824256
 30
0.0
 11
1166.472320718207
 21
-1370.052927916188
 31
0.0
  0
LINE
  5
A5
  8
FAB_4$CUT_ALL
 10
1166.472320718207
 20
-1370.052927916188
 30
0.0
 11
1166.617574787634
 21
-1370.172088959574
 31
0.0
  0
LINE
  5
A6
  8
FAB_4$CUT_ALL
 10
1166.617574787634
 20
-1370.172088959574
 30
0.0
 11
1166.761335538021
 21
-1370.297332847011
 31
0.0
  0
LINE
  5
A7
  8
FAB_4$CUT_ALL
 10
1166.761335538021
 20
-1370.297332847011
 30
0.0
 11
1166.903444828404
 21
-1370.428598704748
 31
0.0
  0
LINE
  5
A8
  8
FAB_4$CUT_ALL
 10
1166.903444828404
 20
-1370.428598704748
 30
0.0
 11
1167.043745705801
 21
-1370.565812872299
 31
0.0
  0
LINE
  5
A9
  8
FAB_4$CUT_ALL
 10
1167.043745705801
 20
-1370.565812872299
 30
0.0
 11
1167.182082945629
 21
-1370.708888945397
 31
0.0
  0
LINE
  5
AA
  8
FAB_4$CUT_ALL
 10
1167.182082945629
 20
-1370.708888945397
 30
0.0
 11
1167.318303593224
 21
-1370.857727883395
 31
0.0
  0
LINE
  5
AB
  8
FAB_4$CUT_ALL
 10
1167.318303593224
 20
-1370.857727883395
 30
0.0
 11
1167.45225750266
 21
-1371.012218181638
 31
0.0
  0
LINE
  5
AC
  8
FAB_4$CUT_ALL
 10
1167.45225750266
 20
-1371.012218181638
 30
0.0
 11
1167.583797869057
 21
-1371.172236108737
 31
0.0
  0
LINE
  5
AD
  8
FAB_4$CUT_ALL
 10
1167.583797869057
 20
-1371.172236108737
 30
0.0
 11
1167.712781750533
 21
-1371.337646008074
 31
0.0
  0
LINE
  5
AE
  8
FAB_4$CUT_ALL
 10
1167.712781750533
 20
-1371.337646008074
 30
0.0
 11
1167.839070575989
 21
-1371.508300662228
 31
0.0
  0
LINE
  5
AF
  8
FAB_4$CUT_ALL
 10
1167.839070575989
 20
-1371.508300662228
 30
0.0
 11
1167.962530635016
 21
-1371.684041718441
 31
0.0
  0
LINE
  5
B0
  8
FAB_4$CUT_ALL
 10
1167.962530635016
 20
-1371.684041718441
 30
0.0
 11
1168.083033546324
 21
-1371.86470017262
 31
0.0
  0
LINE
  5
B1
  8
FAB_4$CUT_ALL
 10
1168.083033546324
 20
-1371.86470017262
 30
0.0
 11
1168.200456701275
 21
-1372.050096908812
 31
0.0
  0
LINE
  5
B2
  8
FAB_4$CUT_ALL
 10
1168.200456701275
 20
-1372.050096908812
 30
0.0
 11
1168.314683679296
 21
-1372.240043290563
 31
0.0
  0
LINE
  5
B3
  8
FAB_4$CUT_ALL
 10
1168.314683679296
 20
-1372.240043290563
 30
0.0
 11
1168.425604632255
 21
-1372.434341800057
 31
0.0
  0
LINE
  5
B4
  8
FAB_4$CUT_ALL
 10
1168.425604632255
 20
-1372.434341800057
 30
0.0
 11
1168.533116635103
 21
-1372.632786720493
 31
0.0
  0
LINE
  5
B5
  8
FAB_4$CUT_ALL
 10
1168.533116635103
 20
-1372.632786720493
 30
0.0
 11
1168.63712400046
 21
-1372.835164856779
 31
0.0
  0
LINE
  5
B6
  8
FAB_4$CUT_ALL
 10
1168.63712400046
 20
-1372.835164856779
 30
0.0
 11
1168.737538555158
 21
-1373.041256289257
 31
0.0
  0
LINE
  5
B7
  8
FAB_4$CUT_ALL
 10
1168.737538555158
 20
-1373.041256289257
 30
0.0
 11
1168.83427987711
 21
-1373.25083515496
 31
0.0
  0
LINE
  5
B8
  8
FAB_4$CUT_ALL
 10
1168.83427987711
 20
-1373.25083515496
 30
0.0
 11
1168.927275491279
 21
-1373.463670450634
 31
0.0
  0
LINE
  5
B9
  8
FAB_4$CUT_ALL
 10
1168.927275491279
 20
-1373.463670450634
 30
0.0
 11
1169.016461023896
 21
-1373.679526851709
 31
0.0
  0
LINE
  5
BA
  8
FAB_4$CUT_ALL
 10
1169.016461023896
 20
-1373.679526851709
 30
0.0
 11
1169.101780314503
 21
-1373.898165541294
 31
0.0
  0
LINE
  5
BB
  8
FAB_4$CUT_ALL
 10
1169.101780314503
 20
-1373.898165541294
 30
0.0
 11
1169.183185485757
 21
-1374.119345043305
 31
0.0
  0
LINE
  5
BC
  8
FAB_4$CUT_ALL
 10
1169.183185485757
 20
-1374.119345043305
 30
0.0
 11
1169.260636971353
 21
-1374.342822053925
 31
0.0
  0
LINE
  5
BD
  8
FAB_4$CUT_ALL
 10
1169.260636971353
 20
-1374.342822053925
 30
0.0
 11
1169.334103502766
 21
-1374.568352265746
 31
0.0
  0
LINE
  5
BE
  8
FAB_4$CUT_ALL
 10
1169.334103502766
 20
-1374.568352265746
 30
0.0
 11
1169.403562055905
 21
-1374.795691179137
 31
0.0
  0
LINE
  5
BF
  8
FAB_4$CUT_ALL
 10
1169.403562055905
 20
-1374.795691179137
 30
0.0
 11
1169.468997759062
 21
-1375.024594895689
 31
0.0
  0
LINE
  5
C0
  8
FAB_4$CUT_ALL
 10
1169.468997759062
 20
-1375.024594895689
 30
0.0
 11
1169.530403763886
 21
-1375.254820888867
 31
0.0
  0
LINE
  5
C1
  8
FAB_4$CUT_ALL
 10
1169.530403763886
 20
-1375.254820888867
 30
0.0
 11
1169.641138384891
 21
-1375.718280887333
 31
0.0
  0
LINE
  5
C2
  8
FAB_4$CUT_ALL
 10
1169.641138384891
 20
-1375.718280887333
 30
0.0
 11
1169.735864565955
 21
-1376.184185836032
 31
0.0
  0
LINE
  5
C3
  8
FAB_4$CUT_ALL
 10
1169.735864565955
 20
-1376.184185836032
 30
0.0
 11
1169.814795640922
 21
-1376.650716360421
 31
0.0
  0
LINE
  5
C4
  8
FAB_4$CUT_ALL
 10
1169.814795640922
 20
-1376.650716360421
 30
0.0
 11
1169.878250363203
 21
-1377.116137460364
 31
0.0
  0
LINE
  5
C5
  8
FAB_4$CUT_ALL
 10
1169.878250363203
 20
-1377.116137460364
 30
0.0
 11
1169.926642404084
 21
-1377.578814066715
 31
0.0
  0
LINE
  5
C6
  8
FAB_4$CUT_ALL
 10
1169.926642404084
 20
-1377.578814066715
 30
0.0
 11
1169.960468985369
 21
-1378.037223605508
 31
0.0
  0
LINE
  5
C7
  8
FAB_4$CUT_ALL
 10
1169.960468985369
 20
-1378.037223605508
 30
0.0
 11
1169.980299005564
 21
-1378.489965542999
 31
0.0
  0
LINE
  5
C8
  8
FAB_4$CUT_ALL
 10
1169.980299005564
 20
-1378.489965542999
 30
0.0
 11
1169.98676099561
 21
-1378.935767984485
 31
0.0
  0
LINE
  5
C9
  8
FAB_4$CUT_ALL
 10
1159.98656909567
 20
-1368.935767984485
 30
0.0
 11
1163.487028919199
 21
-1368.935767984485
 31
0.0
  0
ARC
  5
CA
  8
FAB_4$CUT_ALL
 10
1144.986933156721
 20
-1368.769105566043
 30
0.0
 40
15.00056181157
 50
270.0003657720226
 51
359.3634071997499
  0
LINE
  5
CB
  8
FAB_4$CUT_ALL
 10
1010.487162882017
 20
-1383.769667377308
 30
0.0
 11
1144.987028919199
 21
-1383.769667377308
 31
0.0
  0
LINE
  5
CC
  8
FAB_4$CUT_ALL
 10
875.9872968448342
 20
-1383.769667377308
 30
0.0
 11
1010.487162882016
 21
-1383.769667377308
 31
0.0
  0
ARC
  5
CD
  8
FAB_4$CUT_ALL
 10
875.9873926122287
 20
-1368.769105561073
 30
0.0
 40
15.00056181654112
 50
180.6365928566322
 51
269.9996342091998
  0
LINE
  5
CE
  8
FAB_4$CUT_ALL
 10
843.2569884385634
 20
-1368.935764020755
 30
0.0
 11
860.9877566684727
 21
-1368.935767994331
 31
0.0
  0
ARC
  5
CF
  8
FAB_4$CUT_ALL
 10
843.2569884642617
 20
-1394.805791507201
 30
0.0
 40
25.87002748644522
 50
90.0000000569153
 51
179.9999999814522
  0
ARC
  5
D0
  8
FAB_4$CUT_ALL
 10
843.2569934648784
 20
-1394.805787690926
 30
0.0
 40
25.87003248706177
 50
180.0000084335658
 51
254.4851362561221
  0
CIRCLE
  5
D1
  8
FAB_4$CUT_ALL
 10
843.2569884558872
 20
-1394.805791498826
 30
0.0
 40
3.150000000000205
  0
LINE
  5
D2
  8
FAB_4$CUT_ALL
 10
1069.508953919199
 20
-1488.929768428025
 30
0.0
 11
1075.138953919199
 21
-1488.929768428025
 31
0.0
  0
LINE
  5
D3
  8
FAB_4$CUT_ALL
 10
1075.138953919199
 20
-1488.929768428025
 30
0.0
 11
1075.138953919199
 21
-1481.039768428025
 31
0.0
  0
LINE
  5
D4
  8
FAB_4$CUT_ALL
 10
1075.138953919199
 20
-1481.039768428025
 30
0.0
 11
1069.508953919199
 21
-1481.039768428025
 31
0.0
  0
LINE
  5
D5
  8
FAB_4$CUT_ALL
 10
1069.508953919199
 20
-1481.039768428025
 30
0.0
 11
1069.508953919199
 21
-1488.929768428025
 31
0.0
  0
CIRCLE
  5
D6
  8
FAB_4$CUT_ALL
 10
1142.912263449141
 20
-1444.582996901609
 30
0.0
 40
1.749999999999773
  0
CIRCLE
  5
D7
  8
FAB_4$CUT_ALL
 10
1142.912263449141
 20
-1465.032996901609
 30
0.0
 40
1.749999999999773
  0
CIRCLE
  5
D8
  8
FAB_4$CUT_ALL
 10
878.0617943892569
 20
-1465.03299690161
 30
0.0
 40
1.75
  0
CIRCLE
  5
D9
  8
FAB_4$CUT_ALL
 10
878.061794389257
 20
-1444.58299690161
 30
0.0
 40
1.749999999999886
  0
LINE
  5
DA
  8
FAB_4$CUT_ALL
 10
1094.112878919199
 20
-1404.103367939337
 30
0.0
 11
1103.701178919199
 21
-1404.103367939337
 31
0.0
  0
LINE
  5
DB
  8
FAB_4$CUT_ALL
 10
1103.701178919199
 20
-1404.103367939337
 30
0.0
 11
1103.701178919199
 21
-1394.515167939337
 31
0.0
  0
LINE
  5
DC
  8
FAB_4$CUT_ALL
 10
1103.701178919199
 20
-1394.515167939337
 30
0.0
 11
1094.112878919199
 21
-1394.515167939337
 31
0.0
  0
LINE
  5
DD
  8
FAB_4$CUT_ALL
 10
1094.112878919199
 20
-1394.515167939337
 30
0.0
 11
1094.112878919199
 21
-1404.103367939337
 31
0.0
  0
LINE
  5
DE
  8
FAB_4$CUT_ALL
 10
1078.872878919199
 20
-1404.103367939337
 30
0.0
 11
1088.461178919199
 21
-1404.103367939337
 31
0.0
  0
LINE
  5
DF
  8
FAB_4$CUT_ALL
 10
1088.461178919199
 20
-1404.103367939337
 30
0.0
 11
1088.461178919199
 21
-1394.515167939337
 31
0.0
  0
LINE
  5
E0
  8
FAB_4$CUT_ALL
 10
1088.461178919199
 20
-1394.515167939337
 30
0.0
 11
1078.872878919199
 21
-1394.515167939337
 31
0.0
  0
LINE
  5
E1
  8
FAB_4$CUT_ALL
 10
1078.872878919199
 20
-1394.515167939337
 30
0.0
 11
1078.872878919199
 21
-1404.103367939337
 31
0.0
  0
CIRCLE
  5
E2
  8
FAB_4$CUT_ALL
 10
1091.287028919199
 20
-1408.199267939337
 30
0.0
 40
2.095429411839309
  0
CIRCLE
  5
E3
  8
FAB_4$CUT_ALL
 10
1109.067028919199
 20
-1410.739267939337
 30
0.0
 40
3.500000000000455
  0
CIRCLE
  5
E4
  8
FAB_4$CUT_ALL
 10
1073.507028919199
 20
-1410.739267939338
 30
0.0
 40
3.500000000000455
  0
LINE
  5
E5
  8
FAB_4$CUT_ALL
 10
932.5128789191992
 20
-1404.103367939337
 30
0.0
 11
942.1011789191991
 21
-1404.103367939337
 31
0.0
  0
LINE
  5
E6
  8
FAB_4$CUT_ALL
 10
942.1011789191991
 20
-1404.103367939337
 30
0.0
 11
942.1011789191991
 21
-1394.515167939337
 31
0.0
  0
LINE
  5
E7
  8
FAB_4$CUT_ALL
 10
942.1011789191991
 20
-1394.515167939337
 30
0.0
 11
932.5128789191992
 21
-1394.515167939337
 31
0.0
  0
LINE
  5
E8
  8
FAB_4$CUT_ALL
 10
932.5128789191992
 20
-1394.515167939337
 30
0.0
 11
932.5128789191992
 21
-1404.103367939337
 31
0.0
  0
LINE
  5
E9
  8
FAB_4$CUT_ALL
 10
917.2728789191992
 20
-1404.103367939337
 30
0.0
 11
926.8611789191991
 21
-1404.103367939337
 31
0.0
  0
LINE
  5
EA
  8
FAB_4$CUT_ALL
 10
926.8611789191991
 20
-1404.103367939337
 30
0.0
 11
926.8611789191991
 21
-1394.515167939337
 31
0.0
  0
LINE
  5
EB
  8
FAB_4$CUT_ALL
 10
926.8611789191991
 20
-1394.515167939337
 30
0.0
 11
917.2728789191992
 21
-1394.515167939337
 31
0.0
  0
LINE
  5
EC
  8
FAB_4$CUT_ALL
 10
917.2728789191992
 20
-1394.515167939337
 30
0.0
 11
917.2728789191992
 21
-1404.103367939337
 31
0.0
  0
CIRCLE
  5
ED
  8
FAB_4$CUT_ALL
 10
929.6870289191991
 20
-1408.199267939337
 30
0.0
 40
2.095429411839108
  0
CIRCLE
  5
EE
  8
FAB_4$CUT_ALL
 10
947.4670289191989
 20
-1410.739267939337
 30
0.0
 40
3.500000000000114
  0
CIRCLE
  5
EF
  8
FAB_4$CUT_ALL
 10
911.9070289191989
 20
-1410.739267939337
 30
0.0
 40
3.500000000000227
  0
CIRCLE
  5
F0
  8
FAB_4$CUT_ALL
 10
956.4999539191992
 20
-1487.651768428026
 30
0.0
 40
3.5
  0
CIRCLE
  5
F1
  8
FAB_4$CUT_ALL
 10
986.979953919199
 20
-1487.651768428026
 30
0.0
 40
3.500000000000227
  0
CIRCLE
  5
F2
  8
FAB_4$CUT_ALL
 10
1017.459953919199
 20
-1487.651768428026
 30
0.0
 40
3.500000000000114
  0
CIRCLE
  5
F3
  8
FAB_4$CUT_ALL
 10
1047.812953919199
 20
-1487.651768428026
 30
0.0
 40
3.5
  0
LINE
  5
F4
  8
FAB_4$CUT_ALL
 10
966.9458039191993
 20
-1492.445868428026
 30
0.0
 11
976.5341039191992
 21
-1492.445868428026
 31
0.0
  0
LINE
  5
F5
  8
FAB_4$CUT_ALL
 10
976.5341039191992
 20
-1492.445868428026
 30
0.0
 11
976.5341039191992
 21
-1482.857668428026
 31
0.0
  0
LINE
  5
F6
  8
FAB_4$CUT_ALL
 10
976.5341039191992
 20
-1482.857668428026
 30
0.0
 11
966.9458039191993
 21
-1482.857668428026
 31
0.0
  0
LINE
  5
F7
  8
FAB_4$CUT_ALL
 10
966.9458039191993
 20
-1482.857668428026
 30
0.0
 11
966.9458039191993
 21
-1492.445868428026
 31
0.0
  0
LINE
  5
F8
  8
FAB_4$CUT_ALL
 10
997.4258039191993
 20
-1492.445868428026
 30
0.0
 11
1007.014103919199
 21
-1492.445868428026
 31
0.0
  0
LINE
  5
F9
  8
FAB_4$CUT_ALL
 10
1007.014103919199
 20
-1492.445868428026
 30
0.0
 11
1007.014103919199
 21
-1482.857668428026
 31
0.0
  0
LINE
  5
FA
  8
FAB_4$CUT_ALL
 10
1007.014103919199
 20
-1482.857668428026
 30
0.0
 11
997.4258039191991
 21
-1482.857668428026
 31
0.0
  0
LINE
  5
FB
  8
FAB_4$CUT_ALL
 10
997.4258039191991
 20
-1482.857668428026
 30
0.0
 11
997.4258039191993
 21
-1492.445868428026
 31
0.0
  0
LINE
  5
FC
  8
FAB_4$CUT_ALL
 10
1027.905803919199
 20
-1492.445868428026
 30
0.0
 11
1037.494103919199
 21
-1492.445868428026
 31
0.0
  0
LINE
  5
FD
  8
FAB_4$CUT_ALL
 10
1037.494103919199
 20
-1492.445868428026
 30
0.0
 11
1037.494103919199
 21
-1482.857668428026
 31
0.0
  0
LINE
  5
FE
  8
FAB_4$CUT_ALL
 10
1037.494103919199
 20
-1482.857668428026
 30
0.0
 11
1027.905803919199
 21
-1482.857668428026
 31
0.0
  0
LINE
  5
FF
  8
FAB_4$CUT_ALL
 10
1027.905803919199
 20
-1482.857668428026
 30
0.0
 11
1027.905803919199
 21
-1492.445868428026
 31
0.0
  0
LINE
  5
100
  8
FAB_4$CUT_ALL
 10
1058.385803919199
 20
-1492.445868428026
 30
0.0
 11
1067.974103919199
 21
-1492.445868428026
 31
0.0
  0
LINE
  5
101
  8
FAB_4$CUT_ALL
 10
1067.974103919199
 20
-1492.445868428026
 30
0.0
 11
1067.974103919199
 21
-1482.857668428025
 31
0.0
  0
LINE
  5
102
  8
FAB_4$CUT_ALL
 10
1067.974103919199
 20
-1482.857668428025
 30
0.0
 11
1058.385803919199
 21
-1482.857668428025
 31
0.0
  0
LINE
  5
103
  8
FAB_4$CUT_ALL
 10
1058.385803919199
 20
-1482.857668428025
 30
0.0
 11
1058.385803919199
 21
-1492.445868428026
 31
0.0
  0
CIRCLE
  5
104
  8
FAB_4$CUT_ALL
 10
992.707028919199
 20
-1410.739267939337
 30
0.0
 40
3.5
  0
CIRCLE
  5
105
  8
FAB_4$CUT_ALL
 10
1028.267028919199
 20
-1410.739267939337
 30
0.0
 40
3.499999999999773
  0
CIRCLE
  5
106
  8
FAB_4$CUT_ALL
 10
1010.487028919199
 20
-1408.199267939338
 30
0.0
 40
2.095429411838801
  0
LINE
  5
107
  8
FAB_4$CUT_ALL
 10
998.0728789191992
 20
-1404.103367939337
 30
0.0
 11
1007.661178919199
 21
-1404.103367939337
 31
0.0
  0
LINE
  5
108
  8
FAB_4$CUT_ALL
 10
1007.661178919199
 20
-1404.103367939337
 30
0.0
 11
1007.661178919199
 21
-1394.515167939337
 31
0.0
  0
LINE
  5
109
  8
FAB_4$CUT_ALL
 10
1007.661178919199
 20
-1394.515167939337
 30
0.0
 11
998.0728789191992
 21
-1394.515167939337
 31
0.0
  0
LINE
  5
10A
  8
FAB_4$CUT_ALL
 10
998.0728789191992
 20
-1394.515167939337
 30
0.0
 11
998.0728789191992
 21
-1404.103367939337
 31
0.0
  0
LINE
  5
10B
  8
FAB_4$CUT_ALL
 10
1013.312878919199
 20
-1404.103367939337
 30
0.0
 11
1022.901178919199
 21
-1404.103367939337
 31
0.0
  0
LINE
  5
10C
  8
FAB_4$CUT_ALL
 10
1022.901178919199
 20
-1404.103367939337
 30
0.0
 11
1022.901178919199
 21
-1394.515167939337
 31
0.0
  0
LINE
  5
10D
  8
FAB_4$CUT_ALL
 10
1022.901178919199
 20
-1394.515167939337
 30
0.0
 11
1013.312878919199
 21
-1394.515167939337
 31
0.0
  0
LINE
  5
10E
  8
FAB_4$CUT_ALL
 10
1013.312878919199
 20
-1394.515167939337
 30
0.0
 11
1013.312878919199
 21
-1404.103367939337
 31
0.0
  0
CIRCLE
  5
10F
  8
FAB_4$CUT_ALL
 10
1078.673953919199
 20
-1481.685275630719
 30
0.0
 40
2.095429411838814
  0
LINE
  5
110
  8
FAB_4$CUT_ALL
 10
966.9458039191989
 20
-1481.500495165236
 30
0.0
 11
976.534103919199
 21
-1481.500495165236
 31
0.0
  0
LINE
  5
111
  8
FAB_4$CUT_ALL
 10
976.534103919199
 20
-1481.500495165236
 30
0.0
 11
976.534103919199
 21
-1478.817041690815
 31
0.0
  0
LINE
  5
112
  8
FAB_4$CUT_ALL
 10
976.534103919199
 20
-1478.817041690815
 30
0.0
 11
966.9458039191989
 21
-1478.817041690815
 31
0.0
  0
LINE
  5
113
  8
FAB_4$CUT_ALL
 10
966.9458039191989
 20
-1478.817041690815
 30
0.0
 11
966.9458039191989
 21
-1481.500495165236
 31
0.0
  0
LINE
  5
114
  8
FAB_4$CUT_ALL
 10
1058.385803919199
 20
-1481.500495165236
 30
0.0
 11
1067.974103919199
 21
-1481.500495165236
 31
0.0
  0
LINE
  5
115
  8
FAB_4$CUT_ALL
 10
1067.974103919199
 20
-1481.500495165236
 30
0.0
 11
1067.974103919199
 21
-1478.817041690815
 31
0.0
  0
LINE
  5
116
  8
FAB_4$CUT_ALL
 10
1067.974103919199
 20
-1478.817041690815
 30
0.0
 11
1058.385803919199
 21
-1478.817041690815
 31
0.0
  0
LINE
  5
117
  8
FAB_4$CUT_ALL
 10
1058.385803919199
 20
-1478.817041690815
 30
0.0
 11
1058.385803919199
 21
-1481.500495165236
 31
0.0
  0
CIRCLE
  5
118
  8
FAB_4$CUT_ALL
 10
1116.692263449304
 20
-1465.032996901609
 30
0.0
 40
1.75
  0
CIRCLE
  5
119
  8
FAB_4$CUT_ALL
 10
1116.692263449304
 20
-1444.582996901609
 30
0.0
 40
1.75
  0
CIRCLE
  5
11A
  8
FAB_4$CUT_ALL
 10
904.2817943890948
 20
-1444.58299690161
 30
0.0
 40
1.75
  0
CIRCLE
  5
11B
  8
FAB_4$CUT_ALL
 10
904.2817943890948
 20
-1465.03299690161
 30
0.0
 40
1.75
  0
ENDSEC
  0
EOF
