  0
SECTION
  2
HEADER
  9
$ACADVER
  1
AC1009
  9
$DWGCODEPAGE
  3
mac-roman
  9
$INSBASE
 10
0.0
 20
0.0
 30
0.0
  9
$EXTMIN
 10
80.69321020378655
 20
-1687.485510148432
 30
0.0
  9
$EXTMAX
 10
147.6932102037862
 20
-1368.485778074067
 30
0.0
  9
$LIMMIN
 10
0.0
 20
0.0
  9
$LIMMAX
 10
12.0
 20
9.0
  9
$ORTHOMODE
 70
     0
  9
$REGENMODE
 70
     1
  9
$FILLMODE
 70
     1
  9
$QTEXTMODE
 70
     0
  9
$MIRRTEXT
 70
     1
  9
$DRAGMODE
 70
     2
  9
$LTSCALE
 40
1.0
  9
$OSMODE
 70
    37
  9
$ATTMODE
 70
     1
  9
$TEXTSIZE
 40
0.2
  9
$TRACEWID
 40
0.05
  9
$TEXTSTYLE
  7
STANDARD
  9
$CLAYER
  8
0
  9
$CELTYPE
  6
BYLAYER
  9
$CECOLOR
 62
   256
  9
$DIMSCALE
 40
1.0
  9
$DIMASZ
 40
0.18
  9
$DIMEXO
 40
0.0625
  9
$DIMDLI
 40
0.38
  9
$DIMRND
 40
0.0
  9
$DIMDLE
 40
0.0
  9
$DIMEXE
 40
0.18
  9
$DIMTP
 40
0.0
  9
$DIMTM
 40
0.0
  9
$DIMTXT
 40
0.18
  9
$DIMCEN
 40
0.09
  9
$DIMTSZ
 40
0.0
  9
$DIMTOL
 70
     0
  9
$DIMLIM
 70
     0
  9
$DIMTIH
 70
     1
  9
$DIMTOH
 70
     1
  9
$DIMSE1
 70
     0
  9
$DIMSE2
 70
     0
  9
$DIMTAD
 70
     0
  9
$DIMZIN
 70
     0
  9
$DIMBLK
  1

  9
$DIMASO
 70
     1
  9
$DIMSHO
 70
     1
  9
$DIMPOST
  1

  9
$DIMAPOST
  1

  9
$DIMALT
 70
     0
  9
$DIMALTD
 70
     2
  9
$DIMALTF
 40
25.4
  9
$DIMLFAC
 40
1.0
  9
$DIMTOFL
 70
     0
  9
$DIMTVP
 40
0.0
  9
$DIMTIX
 70
     0
  9
$DIMSOXD
 70
     0
  9
$DIMSAH
 70
     0
  9
$DIMBLK1
  1

  9
$DIMBLK2
  1

  9
$DIMSTYLE
  2
STANDARD
  9
$DIMCLRD
 70
     0
  9
$DIMCLRE
 70
     0
  9
$DIMCLRT
 70
     0
  9
$DIMTFAC
 40
1.0
  9
$DIMGAP
 40
0.09
  9
$LUNITS
 70
     2
  9
$LUPREC
 70
     3
  9
$SKETCHINC
 40
0.1
  9
$FILLETRAD
 40
0.5
  9
$AUNITS
 70
     0
  9
$AUPREC
 70
     0
  9
$MENU
  1
.
  9
$ELEVATION
 40
0.0
  9
$PELEVATION
 40
0.0
  9
$THICKNESS
 40
0.0
  9
$LIMCHECK
 70
     0
  9
$CHAMFERA
 40
0.0
  9
$CHAMFERB
 40
0.0
  9
$SKPOLY
 70
     0
  9
$TDCREATE
 40
2457967.901712963
  9
$TDUPDATE
 40
2457967.901724537
  9
$TDINDWG
 40
0.0000000116
  9
$TDUSRTIMER
 40
0.0000000116
  9
$USRTIMER
 70
     1
  9
$ANGBASE
 50
0.0
  9
$ANGDIR
 70
     0
  9
$PDMODE
 70
     0
  9
$PDSIZE
 40
0.0
  9
$PLINEWID
 40
0.0
  9
$COORDS
 70
     1
  9
$SPLFRAME
 70
     0
  9
$SPLINETYPE
 70
     6
  9
$SPLINESEGS
 70
     8
  9
$ATTDIA
 70
     0
  9
$ATTREQ
 70
     1
  9
$HANDLING
 70
     1
  9
$HANDSEED
  5
165
  9
$SURFTAB1
 70
     6
  9
$SURFTAB2
 70
     6
  9
$SURFTYPE
 70
     6
  9
$SURFU
 70
     6
  9
$SURFV
 70
     6
  9
$UCSNAME
  2

  9
$UCSORG
 10
0.0
 20
0.0
 30
0.0
  9
$UCSXDIR
 10
1.0
 20
0.0
 30
0.0
  9
$UCSYDIR
 10
0.0
 20
1.0
 30
0.0
  9
$PUCSNAME
  2

  9
$PUCSORG
 10
0.0
 20
0.0
 30
0.0
  9
$PUCSXDIR
 10
1.0
 20
0.0
 30
0.0
  9
$PUCSYDIR
 10
0.0
 20
1.0
 30
0.0
  9
$USERI1
 70
     0
  9
$USERI2
 70
     0
  9
$USERI3
 70
     0
  9
$USERI4
 70
     0
  9
$USERI5
 70
     0
  9
$USERR1
 40
0.0
  9
$USERR2
 40
0.0
  9
$USERR3
 40
0.0
  9
$USERR4
 40
0.0
  9
$USERR5
 40
0.0
  9
$WORLDVIEW
 70
     1
  9
$SHADEDGE
 70
     3
  9
$SHADEDIF
 70
    70
  9
$TILEMODE
 70
     1
  9
$MAXACTVP
 70
    64
  9
$PLIMCHECK
 70
     0
  9
$PEXTMIN
 10
1.000000000000000E+20
 20
1.000000000000000E+20
 30
1.000000000000000E+20
  9
$PEXTMAX
 10
-1.000000000000000E+20
 20
-1.000000000000000E+20
 30
-1.000000000000000E+20
  9
$PLIMMIN
 10
0.0
 20
0.0
  9
$PLIMMAX
 10
12.0
 20
9.0
  9
$UNITMODE
 70
     0
  9
$VISRETAIN
 70
     1
  9
$PLINEGEN
 70
     0
  9
$PSLTSCALE
 70
     1
  0
ENDSEC
  0
SECTION
  2
TABLES
  0
TABLE
  2
VPORT
 70
     1
  0
VPORT
  2
*ACTIVE
 70
     0
 10
0.0
 20
0.0
 11
1.0
 21
1.0
 12
114.1932102037864
 22
-1527.985644111249
 13
0.0
 23
0.0
 14
0.5
 24
0.5
 15
0.5
 25
0.5
 16
0.0
 26
0.0
 36
1.0
 17
0.0
 27
0.0
 37
0.0
 40
325.3797267158524
 41
0.2100315243662358
 42
50.0
 43
0.0
 44
0.0
 50
0.0
 51
0.0
 71
     0
 72
   100
 73
     1
 74
     3
 75
     0
 76
     0
 77
     0
 78
     0
  0
ENDTAB
  0
TABLE
  2
LTYPE
 70
     1
  0
LTYPE
  2
CONTINUOUS
 70
     0
  3
Solid line
 72
    65
 73
     0
 40
0.0
  0
ENDTAB
  0
TABLE
  2
LAYER
 70
     2
  0
LAYER
  2
0
 70
     0
 62
     7
  6
CONTINUOUS
  0
LAYER
  2
FAB_4$CUT_ALL
 70
     0
 62
     7
  6
CONTINUOUS
  0
ENDTAB
  0
TABLE
  2
STYLE
 70
     1
  0
STYLE
  2
STANDARD
 70
     0
 40
0.0
 41
1.0
 50
0.0
 71
     0
 42
0.2
  3
txt
  4

  0
ENDTAB
  0
TABLE
  2
VIEW
 70
     0
  0
ENDTAB
  0
TABLE
  2
UCS
 70
     0
  0
ENDTAB
  0
TABLE
  2
APPID
 70
     1
  0
APPID
  2
ACAD
 70
     0
  0
ENDTAB
  0
TABLE
  2
DIMSTYLE
 70
     1
  0
DIMSTYLE
  2
STANDARD
 70
     0
  3

  4

  5

  6

  7

 40
1.0
 41
0.18
 42
0.0625
 43
0.38
 44
0.18
 45
0.0
 46
0.0
 47
0.0
 48
0.0
140
0.18
141
0.09
142
0.0
143
25.4
144
1.0
145
0.0
146
1.0
147
0.09
 71
     0
 72
     0
 73
     1
 74
     1
 75
     0
 76
     0
 77
     0
 78
     0
170
     0
171
     2
172
     0
173
     0
174
     0
175
     0
176
     0
177
     0
178
     0
  0
ENDTAB
  0
ENDSEC
  0
SECTION
  2
BLOCKS
  0
BLOCK
  8
0
  2
$MODEL_SPACE
 70
     0
 10
0.0
 20
0.0
 30
0.0
  3
$MODEL_SPACE
  1

  0
ENDBLK
  5
21
  8
0
  0
BLOCK
 67
     1
  8
0
  2
$PAPER_SPACE
 70
     0
 10
0.0
 20
0.0
 30
0.0
  3
$PAPER_SPACE
  1

  0
ENDBLK
  5
1D
 67
     1
  8
0
  0
ENDSEC
  0
SECTION
  2
ENTITIES
  0
LINE
  5
6F
  8
FAB_4$CUT_ALL
 10
85.74321020378655
 20
-1552.935644111249
 30
0.0
 11
85.74321020378655
 21
-1503.035644111249
 31
0.0
  0
LINE
  5
70
  8
FAB_4$CUT_ALL
 10
85.74321020378655
 20
-1503.035644111249
 30
0.0
 11
88.64321020378655
 21
-1503.035644111249
 31
0.0
  0
LINE
  5
71
  8
FAB_4$CUT_ALL
 10
88.64321020378655
 20
-1503.035644111249
 30
0.0
 11
88.64321020378655
 21
-1552.935644111249
 31
0.0
  0
LINE
  5
72
  8
FAB_4$CUT_ALL
 10
88.64321020378655
 20
-1552.935644111249
 30
0.0
 11
85.74321020378655
 21
-1552.935644111249
 31
0.0
  0
LINE
  5
73
  8
FAB_4$CUT_ALL
 10
140.6932102037863
 20
-1502.985644111249
 30
0.0
 11
137.6932102037865
 21
-1502.985644111249
 31
0.0
  0
LINE
  5
74
  8
FAB_4$CUT_ALL
 10
137.6932102037865
 20
-1502.985644111249
 30
0.0
 11
137.6932102037868
 21
-1378.485778074067
 31
0.0
  0
LINE
  5
75
  8
FAB_4$CUT_ALL
 10
137.6932102037868
 20
-1378.485778074067
 30
0.0
 11
121.6932102037868
 21
-1378.485778074067
 31
0.0
  0
LINE
  5
76
  8
FAB_4$CUT_ALL
 10
121.6932102037868
 20
-1378.485778074067
 30
0.0
 11
121.6932102037868
 21
-1373.485778074066
 31
0.0
  0
LINE
  5
77
  8
FAB_4$CUT_ALL
 10
121.6932102037868
 20
-1373.485778074066
 30
0.0
 11
121.6902953156176
 21
-1373.315072523136
 31
0.0
  0
LINE
  5
78
  8
FAB_4$CUT_ALL
 10
121.6902953156176
 20
-1373.315072523136
 30
0.0
 11
121.6815540497393
 21
-1373.144566007242
 31
0.0
  0
LINE
  5
79
  8
FAB_4$CUT_ALL
 10
121.6815540497393
 20
-1373.144566007242
 30
0.0
 11
121.6669965980771
 21
-1372.974457329356
 31
0.0
  0
LINE
  5
7A
  8
FAB_4$CUT_ALL
 10
121.6669965980771
 20
-1372.974457329356
 30
0.0
 11
121.6466399339683
 21
-1372.804944828585
 31
0.0
  0
LINE
  5
7B
  8
FAB_4$CUT_ALL
 10
121.6466399339683
 20
-1372.804944828585
 30
0.0
 11
121.6205077923726
 21
-1372.636226148923
 31
0.0
  0
LINE
  5
7C
  8
FAB_4$CUT_ALL
 10
121.6205077923726
 20
-1372.636226148923
 30
0.0
 11
121.5886306421981
 21
-1372.468498008802
 31
0.0
  0
LINE
  5
7D
  8
FAB_4$CUT_ALL
 10
121.5886306421981
 20
-1372.468498008802
 30
0.0
 11
121.5510456507762
 21
-1372.301955971734
 31
0.0
  0
LINE
  5
7E
  8
FAB_4$CUT_ALL
 10
121.5510456507762
 20
-1372.301955971734
 30
0.0
 11
121.5077966405255
 21
-1372.136794218281
 31
0.0
  0
LINE
  5
7F
  8
FAB_4$CUT_ALL
 10
121.5077966405255
 20
-1372.136794218281
 30
0.0
 11
121.4589340378572
 21
-1371.97320531966
 31
0.0
  0
LINE
  5
80
  8
FAB_4$CUT_ALL
 10
121.4589340378572
 20
-1371.97320531966
 30
0.0
 11
121.4045148143805
 21
-1371.811380013211
 31
0.0
  0
LINE
  5
81
  8
FAB_4$CUT_ALL
 10
121.4045148143805
 20
-1371.811380013211
 30
0.0
 11
121.3446024204755
 21
-1371.65150698
 31
0.0
  0
LINE
  5
82
  8
FAB_4$CUT_ALL
 10
121.3446024204755
 20
-1371.65150698
 30
0.0
 11
121.2792667113137
 21
-1371.493772624835
 31
0.0
  0
LINE
  5
83
  8
FAB_4$CUT_ALL
 10
121.2792667113137
 20
-1371.493772624835
 30
0.0
 11
121.208583865409
 21
-1371.338360858916
 31
0.0
  0
LINE
  5
84
  8
FAB_4$CUT_ALL
 10
121.208583865409
 20
-1371.338360858916
 30
0.0
 11
121.1326362957982
 21
-1371.18545288541
 31
0.0
  0
LINE
  5
85
  8
FAB_4$CUT_ALL
 10
121.1326362957982
 20
-1371.18545288541
 30
0.0
 11
121.05151255395
 21
-1371.035226988176
 31
0.0
  0
LINE
  5
86
  8
FAB_4$CUT_ALL
 10
121.05151255395
 20
-1371.035226988176
 30
0.0
 11
120.9653072265187
 21
-1370.887858323889
 31
0.0
  0
LINE
  5
87
  8
FAB_4$CUT_ALL
 10
120.9653072265187
 20
-1370.887858323889
 30
0.0
 11
120.8741208250598
 21
-1370.743518717819
 31
0.0
  0
LINE
  5
88
  8
FAB_4$CUT_ALL
 10
120.8741208250598
 20
-1370.743518717819
 30
0.0
 11
120.7780596688383
 21
-1370.602376463492
 31
0.0
  0
LINE
  5
89
  8
FAB_4$CUT_ALL
 10
120.7780596688383
 20
-1370.602376463492
 30
0.0
 11
120.6772357608658
 21
-1370.464596126461
 31
0.0
  0
LINE
  5
8A
  8
FAB_4$CUT_ALL
 10
120.6772357608658
 20
-1370.464596126461
 30
0.0
 11
120.5717666573083
 21
-1370.330338352436
 31
0.0
  0
LINE
  5
8B
  8
FAB_4$CUT_ALL
 10
120.5717666573083
 20
-1370.330338352436
 30
0.0
 11
120.461775330423
 21
-1370.199759679976
 31
0.0
  0
LINE
  5
8C
  8
FAB_4$CUT_ALL
 10
120.461775330423
 20
-1370.199759679976
 30
0.0
 11
120.3473900251767
 21
-1370.073012357973
 31
0.0
  0
LINE
  5
8D
  8
FAB_4$CUT_ALL
 10
120.3473900251767
 20
-1370.073012357973
 30
0.0
 11
120.2287441097188
 21
-1369.950244168133
 31
0.0
  0
LINE
  5
8E
  8
FAB_4$CUT_ALL
 10
120.2287441097188
 20
-1369.950244168133
 30
0.0
 11
120.1059759198794
 21
-1369.831598252675
 31
0.0
  0
LINE
  5
8F
  8
FAB_4$CUT_ALL
 10
120.1059759198794
 20
-1369.831598252675
 30
0.0
 11
119.9792285978759
 21
-1369.717212947429
 31
0.0
  0
LINE
  5
90
  8
FAB_4$CUT_ALL
 10
119.9792285978759
 20
-1369.717212947429
 30
0.0
 11
119.8486499254163
 21
-1369.607221620544
 31
0.0
  0
LINE
  5
91
  8
FAB_4$CUT_ALL
 10
119.8486499254163
 20
-1369.607221620544
 30
0.0
 11
119.7143921513915
 21
-1369.501752516987
 31
0.0
  0
LINE
  5
92
  8
FAB_4$CUT_ALL
 10
119.7143921513915
 20
-1369.501752516987
 30
0.0
 11
119.5766118143602
 21
-1369.400928609014
 31
0.0
  0
LINE
  5
93
  8
FAB_4$CUT_ALL
 10
119.5766118143602
 20
-1369.400928609014
 30
0.0
 11
119.4354695600326
 21
-1369.304867452793
 31
0.0
  0
LINE
  5
94
  8
FAB_4$CUT_ALL
 10
119.4354695600326
 20
-1369.304867452793
 30
0.0
 11
119.2911299539632
 21
-1369.213681051334
 31
0.0
  0
LINE
  5
95
  8
FAB_4$CUT_ALL
 10
119.2911299539632
 20
-1369.213681051334
 30
0.0
 11
119.1437612896761
 21
-1369.127475723903
 31
0.0
  0
LINE
  5
96
  8
FAB_4$CUT_ALL
 10
119.1437612896761
 20
-1369.127475723903
 30
0.0
 11
118.9935353924417
 21
-1369.046351982054
 31
0.0
  0
LINE
  5
97
  8
FAB_4$CUT_ALL
 10
118.9935353924417
 20
-1369.046351982054
 30
0.0
 11
118.8406274189364
 21
-1368.970404412444
 31
0.0
  0
LINE
  5
98
  8
FAB_4$CUT_ALL
 10
118.8406274189364
 20
-1368.970404412444
 30
0.0
 11
118.6852156530172
 21
-1368.899721566539
 31
0.0
  0
LINE
  5
99
  8
FAB_4$CUT_ALL
 10
118.6852156530172
 20
-1368.899721566539
 30
0.0
 11
118.5274812978511
 21
-1368.834385857377
 31
0.0
  0
LINE
  5
9A
  8
FAB_4$CUT_ALL
 10
118.5274812978511
 20
-1368.834385857377
 30
0.0
 11
118.3676082646408
 21
-1368.774473463472
 31
0.0
  0
LINE
  5
9B
  8
FAB_4$CUT_ALL
 10
118.3676082646408
 20
-1368.774473463472
 30
0.0
 11
118.2057829581913
 21
-1368.720054239996
 31
0.0
  0
LINE
  5
9C
  8
FAB_4$CUT_ALL
 10
118.2057829581913
 20
-1368.720054239996
 30
0.0
 11
118.0421940595709
 21
-1368.671191637327
 31
0.0
  0
LINE
  5
9D
  8
FAB_4$CUT_ALL
 10
118.0421940595709
 20
-1368.671191637327
 30
0.0
 11
117.8770323061181
 21
-1368.627942627077
 31
0.0
  0
LINE
  5
9E
  8
FAB_4$CUT_ALL
 10
117.8770323061181
 20
-1368.627942627077
 30
0.0
 11
117.7104902690491
 21
-1368.590357635655
 31
0.0
  0
LINE
  5
9F
  8
FAB_4$CUT_ALL
 10
117.7104902690491
 20
-1368.590357635655
 30
0.0
 11
117.5427621289293
 21
-1368.55848048548
 31
0.0
  0
LINE
  5
A0
  8
FAB_4$CUT_ALL
 10
117.5427621289293
 20
-1368.55848048548
 30
0.0
 11
117.3740434492671
 21
-1368.532348343885
 31
0.0
  0
LINE
  5
A1
  8
FAB_4$CUT_ALL
 10
117.3740434492671
 20
-1368.532348343885
 30
0.0
 11
117.2045309484961
 21
-1368.511991679776
 31
0.0
  0
LINE
  5
A2
  8
FAB_4$CUT_ALL
 10
117.2045309484961
 20
-1368.511991679776
 30
0.0
 11
117.0344222706093
 21
-1368.497434228114
 31
0.0
  0
LINE
  5
A3
  8
FAB_4$CUT_ALL
 10
117.0344222706093
 20
-1368.497434228114
 30
0.0
 11
116.8639157547156
 21
-1368.488692962236
 31
0.0
  0
LINE
  5
A4
  8
FAB_4$CUT_ALL
 10
116.8639157547156
 20
-1368.488692962236
 30
0.0
 11
116.6932102037859
 21
-1368.485778074067
 31
0.0
  0
LINE
  5
A5
  8
FAB_4$CUT_ALL
 10
116.6932102037859
 20
-1368.485778074067
 30
0.0
 11
109.1932102037868
 21
-1368.485778074067
 31
0.0
  0
LINE
  5
A6
  8
FAB_4$CUT_ALL
 10
109.1932102037868
 20
-1368.485778074067
 30
0.0
 11
101.6932102037859
 21
-1368.485778074067
 31
0.0
  0
LINE
  5
A7
  8
FAB_4$CUT_ALL
 10
101.6932102037859
 20
-1368.485778074067
 30
0.0
 11
101.5225046528561
 21
-1368.488692962236
 31
0.0
  0
LINE
  5
A8
  8
FAB_4$CUT_ALL
 10
101.5225046528561
 20
-1368.488692962236
 30
0.0
 11
101.3519981369627
 21
-1368.497434228114
 31
0.0
  0
LINE
  5
A9
  8
FAB_4$CUT_ALL
 10
101.3519981369627
 20
-1368.497434228114
 30
0.0
 11
101.1818894590757
 21
-1368.511991679776
 31
0.0
  0
LINE
  5
AA
  8
FAB_4$CUT_ALL
 10
101.1818894590757
 20
-1368.511991679776
 30
0.0
 11
101.0123769583045
 21
-1368.532348343885
 31
0.0
  0
LINE
  5
AB
  8
FAB_4$CUT_ALL
 10
101.0123769583045
 20
-1368.532348343885
 30
0.0
 11
100.8436582786427
 21
-1368.558480485481
 31
0.0
  0
LINE
  5
AC
  8
FAB_4$CUT_ALL
 10
100.8436582786427
 20
-1368.558480485481
 30
0.0
 11
100.6759301385227
 21
-1368.590357635655
 31
0.0
  0
LINE
  5
AD
  8
FAB_4$CUT_ALL
 10
100.6759301385227
 20
-1368.590357635655
 30
0.0
 11
100.5093881014537
 21
-1368.627942627077
 31
0.0
  0
LINE
  5
AE
  8
FAB_4$CUT_ALL
 10
100.5093881014537
 20
-1368.627942627077
 30
0.0
 11
100.3442263480009
 21
-1368.671191637328
 31
0.0
  0
LINE
  5
AF
  8
FAB_4$CUT_ALL
 10
100.3442263480009
 20
-1368.671191637328
 30
0.0
 11
100.1806374493805
 21
-1368.720054239996
 31
0.0
  0
LINE
  5
B0
  8
FAB_4$CUT_ALL
 10
100.1806374493805
 20
-1368.720054239996
 30
0.0
 11
100.0188121429311
 21
-1368.774473463473
 31
0.0
  0
LINE
  5
B1
  8
FAB_4$CUT_ALL
 10
100.0188121429311
 20
-1368.774473463473
 30
0.0
 11
99.85893910972078
 21
-1368.834385857378
 31
0.0
  0
LINE
  5
B2
  8
FAB_4$CUT_ALL
 10
99.85893910972078
 20
-1368.834385857378
 30
0.0
 11
99.70120475455474
 21
-1368.89972156654
 31
0.0
  0
LINE
  5
B3
  8
FAB_4$CUT_ALL
 10
99.70120475455474
 20
-1368.89972156654
 30
0.0
 11
99.54579298863541
 21
-1368.970404412445
 31
0.0
  0
LINE
  5
B4
  8
FAB_4$CUT_ALL
 10
99.54579298863541
 20
-1368.970404412445
 30
0.0
 11
99.39288501513035
 21
-1369.046351982056
 31
0.0
  0
LINE
  5
B5
  8
FAB_4$CUT_ALL
 10
99.39288501513035
 20
-1369.046351982056
 30
0.0
 11
99.2426591178959
 21
-1369.127475723904
 31
0.0
  0
LINE
  5
B6
  8
FAB_4$CUT_ALL
 10
99.2426591178959
 20
-1369.127475723904
 30
0.0
 11
99.0952904536089
 21
-1369.213681051335
 31
0.0
  0
LINE
  5
B7
  8
FAB_4$CUT_ALL
 10
99.0952904536089
 20
-1369.213681051335
 30
0.0
 11
98.95095084753954
 21
-1369.304867452794
 31
0.0
  0
LINE
  5
B8
  8
FAB_4$CUT_ALL
 10
98.95095084753954
 20
-1369.304867452794
 30
0.0
 11
98.80980859321188
 21
-1369.400928609015
 31
0.0
  0
LINE
  5
B9
  8
FAB_4$CUT_ALL
 10
98.80980859321188
 20
-1369.400928609015
 30
0.0
 11
98.67202825618082
 21
-1369.501752516988
 31
0.0
  0
LINE
  5
BA
  8
FAB_4$CUT_ALL
 10
98.67202825618082
 20
-1369.501752516988
 30
0.0
 11
98.53777048215593
 21
-1369.607221620545
 31
0.0
  0
LINE
  5
BB
  8
FAB_4$CUT_ALL
 10
98.53777048215593
 20
-1369.607221620545
 30
0.0
 11
98.40719180969623
 21
-1369.717212947431
 31
0.0
  0
LINE
  5
BC
  8
FAB_4$CUT_ALL
 10
98.40719180969623
 20
-1369.717212947431
 30
0.0
 11
98.28044448769306
 21
-1369.831598252677
 31
0.0
  0
LINE
  5
BD
  8
FAB_4$CUT_ALL
 10
98.28044448769306
 20
-1369.831598252677
 30
0.0
 11
98.1576762978535
 21
-1369.950244168135
 31
0.0
  0
LINE
  5
BE
  8
FAB_4$CUT_ALL
 10
98.1576762978535
 20
-1369.950244168135
 30
0.0
 11
98.0390303823957
 21
-1370.073012357974
 31
0.0
  0
LINE
  5
BF
  8
FAB_4$CUT_ALL
 10
98.0390303823957
 20
-1370.073012357974
 30
0.0
 11
97.92464507714942
 21
-1370.199759679978
 31
0.0
  0
LINE
  5
C0
  8
FAB_4$CUT_ALL
 10
97.92464507714942
 20
-1370.199759679978
 30
0.0
 11
97.8146537502642
 21
-1370.330338352437
 31
0.0
  0
LINE
  5
C1
  8
FAB_4$CUT_ALL
 10
97.8146537502642
 20
-1370.330338352437
 30
0.0
 11
97.70918464670683
 21
-1370.464596126462
 31
0.0
  0
LINE
  5
C2
  8
FAB_4$CUT_ALL
 10
97.70918464670683
 20
-1370.464596126462
 30
0.0
 11
97.6083607387342
 21
-1370.602376463493
 31
0.0
  0
LINE
  5
C3
  8
FAB_4$CUT_ALL
 10
97.6083607387342
 20
-1370.602376463493
 30
0.0
 11
97.51229958251278
 21
-1370.743518717821
 31
0.0
  0
LINE
  5
C4
  8
FAB_4$CUT_ALL
 10
97.51229958251278
 20
-1370.743518717821
 30
0.0
 11
97.42111318105395
 21
-1370.88785832389
 31
0.0
  0
LINE
  5
C5
  8
FAB_4$CUT_ALL
 10
97.42111318105395
 20
-1370.88785832389
 30
0.0
 11
97.3349078536227
 21
-1371.035226988178
 31
0.0
  0
LINE
  5
C6
  8
FAB_4$CUT_ALL
 10
97.3349078536227
 20
-1371.035226988178
 30
0.0
 11
97.25378411177451
 21
-1371.185452885412
 31
0.0
  0
LINE
  5
C7
  8
FAB_4$CUT_ALL
 10
97.25378411177451
 20
-1371.185452885412
 30
0.0
 11
97.17783654216377
 21
-1371.338360858917
 31
0.0
  0
LINE
  5
C8
  8
FAB_4$CUT_ALL
 10
97.17783654216377
 20
-1371.338360858917
 30
0.0
 11
97.10715369625922
 21
-1371.493772624836
 31
0.0
  0
LINE
  5
C9
  8
FAB_4$CUT_ALL
 10
97.10715369625922
 20
-1371.493772624836
 30
0.0
 11
97.04181798709726
 21
-1371.651506980003
 31
0.0
  0
LINE
  5
CA
  8
FAB_4$CUT_ALL
 10
97.04181798709726
 20
-1371.651506980003
 30
0.0
 11
96.98190559319237
 21
-1371.811380013213
 31
0.0
  0
LINE
  5
CB
  8
FAB_4$CUT_ALL
 10
96.98190559319237
 20
-1371.811380013213
 30
0.0
 11
96.9274863697157
 21
-1371.973205319662
 31
0.0
  0
LINE
  5
CC
  8
FAB_4$CUT_ALL
 10
96.9274863697157
 20
-1371.973205319662
 30
0.0
 11
96.87862376704747
 21
-1372.136794218283
 31
0.0
  0
LINE
  5
CD
  8
FAB_4$CUT_ALL
 10
96.87862376704747
 20
-1372.136794218283
 30
0.0
 11
96.8353747567968
 21
-1372.301955971735
 31
0.0
  0
LINE
  5
CE
  8
FAB_4$CUT_ALL
 10
96.8353747567968
 20
-1372.301955971735
 30
0.0
 11
96.7977897653749
 21
-1372.468498008805
 31
0.0
  0
LINE
  5
CF
  8
FAB_4$CUT_ALL
 10
96.7977897653749
 20
-1372.468498008805
 30
0.0
 11
96.76591261520052
 21
-1372.636226148924
 31
0.0
  0
LINE
  5
D0
  8
FAB_4$CUT_ALL
 10
96.76591261520052
 20
-1372.636226148924
 30
0.0
 11
96.73978047360487
 21
-1372.804944828586
 31
0.0
  0
LINE
  5
D1
  8
FAB_4$CUT_ALL
 10
96.73978047360487
 20
-1372.804944828586
 30
0.0
 11
96.71942380949605
 21
-1372.974457329357
 31
0.0
  0
LINE
  5
D2
  8
FAB_4$CUT_ALL
 10
96.71942380949605
 20
-1372.974457329357
 30
0.0
 11
96.70486635783384
 21
-1373.144566007244
 31
0.0
  0
LINE
  5
D3
  8
FAB_4$CUT_ALL
 10
96.70486635783384
 20
-1373.144566007244
 30
0.0
 11
96.69612509195566
 21
-1373.315072523138
 31
0.0
  0
LINE
  5
D4
  8
FAB_4$CUT_ALL
 10
96.69612509195566
 20
-1373.315072523138
 30
0.0
 11
96.69321020378653
 21
-1373.485778074068
 31
0.0
  0
LINE
  5
D5
  8
FAB_4$CUT_ALL
 10
96.69321020378653
 20
-1373.485778074068
 30
0.0
 11
96.69321020378678
 21
-1378.485778074067
 31
0.0
  0
LINE
  5
D6
  8
FAB_4$CUT_ALL
 10
96.69321020378678
 20
-1378.485778074067
 30
0.0
 11
80.69321020378678
 21
-1378.485778074067
 31
0.0
  0
LINE
  5
D7
  8
FAB_4$CUT_ALL
 10
80.69321020378678
 20
-1378.485778074067
 30
0.0
 11
80.69321020378655
 21
-1677.485510148432
 31
0.0
  0
LINE
  5
D8
  8
FAB_4$CUT_ALL
 10
80.69321020378655
 20
-1677.485510148432
 30
0.0
 11
96.69321020378723
 21
-1677.485510148432
 31
0.0
  0
LINE
  5
D9
  8
FAB_4$CUT_ALL
 10
96.69321020378723
 20
-1677.485510148432
 30
0.0
 11
96.69321020378723
 21
-1682.485510148431
 31
0.0
  0
LINE
  5
DA
  8
FAB_4$CUT_ALL
 10
96.69321020378723
 20
-1682.485510148431
 30
0.0
 11
96.69612509195616
 21
-1682.656215699361
 31
0.0
  0
LINE
  5
DB
  8
FAB_4$CUT_ALL
 10
96.69612509195616
 20
-1682.656215699361
 30
0.0
 11
96.70486635783436
 21
-1682.826722215255
 31
0.0
  0
LINE
  5
DC
  8
FAB_4$CUT_ALL
 10
96.70486635783436
 20
-1682.826722215255
 30
0.0
 11
96.71942380949658
 21
-1682.996830893142
 31
0.0
  0
LINE
  5
DD
  8
FAB_4$CUT_ALL
 10
96.71942380949658
 20
-1682.996830893142
 30
0.0
 11
96.7397804736054
 21
-1683.166343393912
 31
0.0
  0
LINE
  5
DE
  8
FAB_4$CUT_ALL
 10
96.7397804736054
 20
-1683.166343393912
 30
0.0
 11
96.76591261520112
 21
-1683.335062073575
 31
0.0
  0
LINE
  5
DF
  8
FAB_4$CUT_ALL
 10
96.76591261520112
 20
-1683.335062073575
 30
0.0
 11
96.79778976537548
 21
-1683.502790213694
 31
0.0
  0
LINE
  5
E0
  8
FAB_4$CUT_ALL
 10
96.79778976537548
 20
-1683.502790213694
 30
0.0
 11
96.83537475679739
 21
-1683.669332250764
 31
0.0
  0
LINE
  5
E1
  8
FAB_4$CUT_ALL
 10
96.83537475679739
 20
-1683.669332250764
 30
0.0
 11
96.87862376704814
 21
-1683.834494004217
 31
0.0
  0
LINE
  5
E2
  8
FAB_4$CUT_ALL
 10
96.87862376704814
 20
-1683.834494004217
 30
0.0
 11
96.92748636971632
 21
-1683.998082902837
 31
0.0
  0
LINE
  5
E3
  8
FAB_4$CUT_ALL
 10
96.92748636971632
 20
-1683.998082902837
 30
0.0
 11
96.981905593193
 21
-1684.159908209286
 31
0.0
  0
LINE
  5
E4
  8
FAB_4$CUT_ALL
 10
96.981905593193
 20
-1684.159908209286
 30
0.0
 11
97.041817987098
 21
-1684.319781242497
 31
0.0
  0
LINE
  5
E5
  8
FAB_4$CUT_ALL
 10
97.041817987098
 20
-1684.319781242497
 30
0.0
 11
97.10715369625979
 21
-1684.477515597662
 31
0.0
  0
LINE
  5
E6
  8
FAB_4$CUT_ALL
 10
97.10715369625979
 20
-1684.477515597662
 30
0.0
 11
97.17783654216446
 21
-1684.632927363582
 31
0.0
  0
LINE
  5
E7
  8
FAB_4$CUT_ALL
 10
97.17783654216446
 20
-1684.632927363582
 30
0.0
 11
97.2537841117753
 21
-1684.785835337087
 31
0.0
  0
LINE
  5
E8
  8
FAB_4$CUT_ALL
 10
97.2537841117753
 20
-1684.785835337087
 30
0.0
 11
97.3349078536234
 21
-1684.936061234321
 31
0.0
  0
LINE
  5
E9
  8
FAB_4$CUT_ALL
 10
97.3349078536234
 20
-1684.936061234321
 30
0.0
 11
97.42111318105468
 21
-1685.083429898609
 31
0.0
  0
LINE
  5
EA
  8
FAB_4$CUT_ALL
 10
97.42111318105468
 20
-1685.083429898609
 30
0.0
 11
97.51229958251365
 21
-1685.227769504678
 31
0.0
  0
LINE
  5
EB
  8
FAB_4$CUT_ALL
 10
97.51229958251365
 20
-1685.227769504678
 30
0.0
 11
97.60836073873483
 21
-1685.368911759005
 31
0.0
  0
LINE
  5
EC
  8
FAB_4$CUT_ALL
 10
97.60836073873483
 20
-1685.368911759005
 30
0.0
 11
97.70918464670746
 21
-1685.506692096037
 31
0.0
  0
LINE
  5
ED
  8
FAB_4$CUT_ALL
 10
97.70918464670746
 20
-1685.506692096037
 30
0.0
 11
97.81465375026511
 21
-1685.640949870062
 31
0.0
  0
LINE
  5
EE
  8
FAB_4$CUT_ALL
 10
97.81465375026511
 20
-1685.640949870062
 30
0.0
 11
97.9246450771502
 21
-1685.771528542521
 31
0.0
  0
LINE
  5
EF
  8
FAB_4$CUT_ALL
 10
97.9246450771502
 20
-1685.771528542521
 30
0.0
 11
98.03903038239649
 21
-1685.898275864525
 31
0.0
  0
LINE
  5
F0
  8
FAB_4$CUT_ALL
 10
98.03903038239649
 20
-1685.898275864525
 30
0.0
 11
98.15767629785431
 21
-1686.021044054364
 31
0.0
  0
LINE
  5
F1
  8
FAB_4$CUT_ALL
 10
98.15767629785431
 20
-1686.021044054364
 30
0.0
 11
98.28044448769371
 21
-1686.139689969822
 31
0.0
  0
LINE
  5
F2
  8
FAB_4$CUT_ALL
 10
98.28044448769371
 20
-1686.139689969822
 30
0.0
 11
98.40719180969724
 21
-1686.254075275068
 31
0.0
  0
LINE
  5
F3
  8
FAB_4$CUT_ALL
 10
98.40719180969724
 20
-1686.254075275068
 30
0.0
 11
98.5377704821566
 21
-1686.364066601953
 31
0.0
  0
LINE
  5
F4
  8
FAB_4$CUT_ALL
 10
98.5377704821566
 20
-1686.364066601953
 30
0.0
 11
98.67202825618149
 21
-1686.469535705511
 31
0.0
  0
LINE
  5
F5
  8
FAB_4$CUT_ALL
 10
98.67202825618149
 20
-1686.469535705511
 30
0.0
 11
98.80980859321275
 21
-1686.570359613484
 31
0.0
  0
LINE
  5
F6
  8
FAB_4$CUT_ALL
 10
98.80980859321275
 20
-1686.570359613484
 30
0.0
 11
98.95095084754023
 21
-1686.666420769705
 31
0.0
  0
LINE
  5
F7
  8
FAB_4$CUT_ALL
 10
98.95095084754023
 20
-1686.666420769705
 30
0.0
 11
99.09529045360976
 21
-1686.757607171164
 31
0.0
  0
LINE
  5
F8
  8
FAB_4$CUT_ALL
 10
99.09529045360976
 20
-1686.757607171164
 30
0.0
 11
99.24265911789678
 21
-1686.843812498595
 31
0.0
  0
LINE
  5
F9
  8
FAB_4$CUT_ALL
 10
99.24265911789678
 20
-1686.843812498595
 30
0.0
 11
99.39288501513103
 21
-1686.924936240443
 31
0.0
  0
LINE
  5
FA
  8
FAB_4$CUT_ALL
 10
99.39288501513103
 20
-1686.924936240443
 30
0.0
 11
99.5457929886365
 21
-1687.000883810054
 31
0.0
  0
LINE
  5
FB
  8
FAB_4$CUT_ALL
 10
99.5457929886365
 20
-1687.000883810054
 30
0.0
 11
99.70120475455583
 21
-1687.071566655959
 31
0.0
  0
LINE
  5
FC
  8
FAB_4$CUT_ALL
 10
99.70120475455583
 20
-1687.071566655959
 30
0.0
 11
99.85893910972169
 21
-1687.136902365121
 31
0.0
  0
LINE
  5
FD
  8
FAB_4$CUT_ALL
 10
99.85893910972169
 20
-1687.136902365121
 30
0.0
 11
100.018812142932
 21
-1687.196814759026
 31
0.0
  0
LINE
  5
FE
  8
FAB_4$CUT_ALL
 10
100.018812142932
 20
-1687.196814759026
 30
0.0
 11
100.1806374493814
 21
-1687.251233982502
 31
0.0
  0
LINE
  5
FF
  8
FAB_4$CUT_ALL
 10
100.1806374493814
 20
-1687.251233982502
 30
0.0
 11
100.3442263480016
 21
-1687.30009658517
 31
0.0
  0
LINE
  5
100
  8
FAB_4$CUT_ALL
 10
100.3442263480016
 20
-1687.30009658517
 30
0.0
 11
100.5093881014546
 21
-1687.343345595421
 31
0.0
  0
LINE
  5
101
  8
FAB_4$CUT_ALL
 10
100.5093881014546
 20
-1687.343345595421
 30
0.0
 11
100.6759301385236
 21
-1687.380930586843
 31
0.0
  0
LINE
  5
102
  8
FAB_4$CUT_ALL
 10
100.6759301385236
 20
-1687.380930586843
 30
0.0
 11
100.8436582786434
 21
-1687.412807737017
 31
0.0
  0
LINE
  5
103
  8
FAB_4$CUT_ALL
 10
100.8436582786434
 20
-1687.412807737017
 30
0.0
 11
101.0123769583056
 21
-1687.438939878613
 31
0.0
  0
LINE
  5
104
  8
FAB_4$CUT_ALL
 10
101.0123769583056
 20
-1687.438939878613
 30
0.0
 11
101.1818894590768
 21
-1687.459296542722
 31
0.0
  0
LINE
  5
105
  8
FAB_4$CUT_ALL
 10
101.1818894590768
 20
-1687.459296542722
 30
0.0
 11
101.3519981369636
 21
-1687.473853994384
 31
0.0
  0
LINE
  5
106
  8
FAB_4$CUT_ALL
 10
101.3519981369636
 20
-1687.473853994384
 30
0.0
 11
101.522504652857
 21
-1687.482595260263
 31
0.0
  0
LINE
  5
107
  8
FAB_4$CUT_ALL
 10
101.522504652857
 20
-1687.482595260263
 30
0.0
 11
101.6932102037868
 21
-1687.485510148432
 31
0.0
  0
LINE
  5
108
  8
FAB_4$CUT_ALL
 10
101.6932102037868
 20
-1687.485510148432
 30
0.0
 11
109.1932102037872
 21
-1687.485510148432
 31
0.0
  0
LINE
  5
109
  8
FAB_4$CUT_ALL
 10
109.1932102037872
 20
-1687.485510148432
 30
0.0
 11
116.6932102037868
 21
-1687.485510148432
 31
0.0
  0
LINE
  5
10A
  8
FAB_4$CUT_ALL
 10
116.6932102037868
 20
-1687.485510148432
 30
0.0
 11
116.8639157547168
 21
-1687.482595260262
 31
0.0
  0
LINE
  5
10B
  8
FAB_4$CUT_ALL
 10
116.8639157547168
 20
-1687.482595260262
 30
0.0
 11
117.0344222706102
 21
-1687.473853994384
 31
0.0
  0
LINE
  5
10C
  8
FAB_4$CUT_ALL
 10
117.0344222706102
 20
-1687.473853994384
 30
0.0
 11
117.2045309484972
 21
-1687.459296542722
 31
0.0
  0
LINE
  5
10D
  8
FAB_4$CUT_ALL
 10
117.2045309484972
 20
-1687.459296542722
 30
0.0
 11
117.374043449268
 21
-1687.438939878613
 31
0.0
  0
LINE
  5
10E
  8
FAB_4$CUT_ALL
 10
117.374043449268
 20
-1687.438939878613
 30
0.0
 11
117.5427621289302
 21
-1687.412807737018
 31
0.0
  0
LINE
  5
10F
  8
FAB_4$CUT_ALL
 10
117.5427621289302
 20
-1687.412807737018
 30
0.0
 11
117.7104902690498
 21
-1687.380930586843
 31
0.0
  0
LINE
  5
110
  8
FAB_4$CUT_ALL
 10
117.7104902690498
 20
-1687.380930586843
 30
0.0
 11
117.877032306119
 21
-1687.343345595421
 31
0.0
  0
LINE
  5
111
  8
FAB_4$CUT_ALL
 10
117.877032306119
 20
-1687.343345595421
 30
0.0
 11
118.0421940595718
 21
-1687.30009658517
 31
0.0
  0
LINE
  5
112
  8
FAB_4$CUT_ALL
 10
118.0421940595718
 20
-1687.30009658517
 30
0.0
 11
118.205782958192
 21
-1687.251233982503
 31
0.0
  0
LINE
  5
113
  8
FAB_4$CUT_ALL
 10
118.205782958192
 20
-1687.251233982503
 30
0.0
 11
118.3676082646417
 21
-1687.196814759026
 31
0.0
  0
LINE
  5
114
  8
FAB_4$CUT_ALL
 10
118.3676082646417
 20
-1687.196814759026
 30
0.0
 11
118.5274812978522
 21
-1687.136902365121
 31
0.0
  0
LINE
  5
115
  8
FAB_4$CUT_ALL
 10
118.5274812978522
 20
-1687.136902365121
 30
0.0
 11
118.6852156530178
 21
-1687.071566655959
 31
0.0
  0
LINE
  5
116
  8
FAB_4$CUT_ALL
 10
118.6852156530178
 20
-1687.071566655959
 30
0.0
 11
118.8406274189372
 21
-1687.000883810054
 31
0.0
  0
LINE
  5
117
  8
FAB_4$CUT_ALL
 10
118.8406274189372
 20
-1687.000883810054
 30
0.0
 11
118.9935353924427
 21
-1686.924936240443
 31
0.0
  0
LINE
  5
118
  8
FAB_4$CUT_ALL
 10
118.9935353924427
 20
-1686.924936240443
 30
0.0
 11
119.1437612896767
 21
-1686.843812498595
 31
0.0
  0
LINE
  5
119
  8
FAB_4$CUT_ALL
 10
119.1437612896767
 20
-1686.843812498595
 30
0.0
 11
119.291129953964
 21
-1686.757607171164
 31
0.0
  0
LINE
  5
11A
  8
FAB_4$CUT_ALL
 10
119.291129953964
 20
-1686.757607171164
 30
0.0
 11
119.4354695600332
 21
-1686.666420769705
 31
0.0
  0
LINE
  5
11B
  8
FAB_4$CUT_ALL
 10
119.4354695600332
 20
-1686.666420769705
 30
0.0
 11
119.576611814361
 21
-1686.570359613484
 31
0.0
  0
LINE
  5
11C
  8
FAB_4$CUT_ALL
 10
119.576611814361
 20
-1686.570359613484
 30
0.0
 11
119.7143921513921
 21
-1686.469535705511
 31
0.0
  0
LINE
  5
11D
  8
FAB_4$CUT_ALL
 10
119.7143921513921
 20
-1686.469535705511
 30
0.0
 11
119.848649925417
 21
-1686.364066601954
 31
0.0
  0
LINE
  5
11E
  8
FAB_4$CUT_ALL
 10
119.848649925417
 20
-1686.364066601954
 30
0.0
 11
119.9792285978766
 21
-1686.254075275069
 31
0.0
  0
LINE
  5
11F
  8
FAB_4$CUT_ALL
 10
119.9792285978766
 20
-1686.254075275069
 30
0.0
 11
120.10597591988
 21
-1686.139689969822
 31
0.0
  0
LINE
  5
120
  8
FAB_4$CUT_ALL
 10
120.10597591988
 20
-1686.139689969822
 30
0.0
 11
120.2287441097194
 21
-1686.021044054365
 31
0.0
  0
LINE
  5
121
  8
FAB_4$CUT_ALL
 10
120.2287441097194
 20
-1686.021044054365
 30
0.0
 11
120.3473900251774
 21
-1685.898275864525
 31
0.0
  0
LINE
  5
122
  8
FAB_4$CUT_ALL
 10
120.3473900251774
 20
-1685.898275864525
 30
0.0
 11
120.4617753304236
 21
-1685.771528542522
 31
0.0
  0
LINE
  5
123
  8
FAB_4$CUT_ALL
 10
120.4617753304236
 20
-1685.771528542522
 30
0.0
 11
120.5717666573088
 21
-1685.640949870062
 31
0.0
  0
LINE
  5
124
  8
FAB_4$CUT_ALL
 10
120.5717666573088
 20
-1685.640949870062
 30
0.0
 11
120.6772357608664
 21
-1685.506692096037
 31
0.0
  0
LINE
  5
125
  8
FAB_4$CUT_ALL
 10
120.6772357608664
 20
-1685.506692096037
 30
0.0
 11
120.778059668839
 21
-1685.368911759006
 31
0.0
  0
LINE
  5
126
  8
FAB_4$CUT_ALL
 10
120.778059668839
 20
-1685.368911759006
 30
0.0
 11
120.8741208250604
 21
-1685.227769504678
 31
0.0
  0
LINE
  5
127
  8
FAB_4$CUT_ALL
 10
120.8741208250604
 20
-1685.227769504678
 30
0.0
 11
120.9653072265193
 21
-1685.083429898609
 31
0.0
  0
LINE
  5
128
  8
FAB_4$CUT_ALL
 10
120.9653072265193
 20
-1685.083429898609
 30
0.0
 11
121.0515125539505
 21
-1684.936061234322
 31
0.0
  0
LINE
  5
129
  8
FAB_4$CUT_ALL
 10
121.0515125539505
 20
-1684.936061234322
 30
0.0
 11
121.1326362957988
 21
-1684.785835337088
 31
0.0
  0
LINE
  5
12A
  8
FAB_4$CUT_ALL
 10
121.1326362957988
 20
-1684.785835337088
 30
0.0
 11
121.2085838654096
 21
-1684.632927363583
 31
0.0
  0
LINE
  5
12B
  8
FAB_4$CUT_ALL
 10
121.2085838654096
 20
-1684.632927363583
 30
0.0
 11
121.2792667113141
 21
-1684.477515597664
 31
0.0
  0
LINE
  5
12C
  8
FAB_4$CUT_ALL
 10
121.2792667113141
 20
-1684.477515597664
 30
0.0
 11
121.3446024204761
 21
-1684.319781242497
 31
0.0
  0
LINE
  5
12D
  8
FAB_4$CUT_ALL
 10
121.3446024204761
 20
-1684.319781242497
 30
0.0
 11
121.4045148143811
 21
-1684.159908209287
 31
0.0
  0
LINE
  5
12E
  8
FAB_4$CUT_ALL
 10
121.4045148143811
 20
-1684.159908209287
 30
0.0
 11
121.4589340378578
 21
-1683.998082902838
 31
0.0
  0
LINE
  5
12F
  8
FAB_4$CUT_ALL
 10
121.4589340378578
 20
-1683.998082902838
 30
0.0
 11
121.5077966405261
 21
-1683.834494004217
 31
0.0
  0
LINE
  5
130
  8
FAB_4$CUT_ALL
 10
121.5077966405261
 20
-1683.834494004217
 30
0.0
 11
121.5510456507768
 21
-1683.669332250764
 31
0.0
  0
LINE
  5
131
  8
FAB_4$CUT_ALL
 10
121.5510456507768
 20
-1683.669332250764
 30
0.0
 11
121.5886306421988
 21
-1683.502790213695
 31
0.0
  0
LINE
  5
132
  8
FAB_4$CUT_ALL
 10
121.5886306421988
 20
-1683.502790213695
 30
0.0
 11
121.6205077923731
 21
-1683.335062073576
 31
0.0
  0
LINE
  5
133
  8
FAB_4$CUT_ALL
 10
121.6205077923731
 20
-1683.335062073576
 30
0.0
 11
121.6466399339688
 21
-1683.166343393913
 31
0.0
  0
LINE
  5
134
  8
FAB_4$CUT_ALL
 10
121.6466399339688
 20
-1683.166343393913
 30
0.0
 11
121.6669965980777
 21
-1682.996830893142
 31
0.0
  0
LINE
  5
135
  8
FAB_4$CUT_ALL
 10
121.6669965980777
 20
-1682.996830893142
 30
0.0
 11
121.6815540497399
 21
-1682.826722215256
 31
0.0
  0
LINE
  5
136
  8
FAB_4$CUT_ALL
 10
121.6815540497399
 20
-1682.826722215256
 30
0.0
 11
121.6902953156181
 21
-1682.656215699362
 31
0.0
  0
LINE
  5
137
  8
FAB_4$CUT_ALL
 10
121.6902953156181
 20
-1682.656215699362
 30
0.0
 11
121.6932102037873
 21
-1682.485510148432
 31
0.0
  0
LINE
  5
138
  8
FAB_4$CUT_ALL
 10
121.6932102037873
 20
-1682.485510148432
 30
0.0
 11
121.6932102037872
 21
-1677.485510148432
 31
0.0
  0
LINE
  5
139
  8
FAB_4$CUT_ALL
 10
121.6932102037872
 20
-1677.485510148432
 30
0.0
 11
137.6932102037865
 21
-1677.485510148432
 31
0.0
  0
LINE
  5
13A
  8
FAB_4$CUT_ALL
 10
137.6932102037865
 20
-1677.485510148432
 30
0.0
 11
137.6932102037865
 21
-1552.985644111249
 31
0.0
  0
LINE
  5
13B
  8
FAB_4$CUT_ALL
 10
137.6932102037865
 20
-1552.985644111249
 30
0.0
 11
140.6932102037863
 21
-1552.985644111249
 31
0.0
  0
LINE
  5
13C
  8
FAB_4$CUT_ALL
 10
140.6932102037865
 20
-1552.985644111249
 30
0.0
 11
141.5408664537865
 21
-1551.423144111249
 31
0.0
  0
LINE
  5
13D
  8
FAB_4$CUT_ALL
 10
141.5408664537865
 20
-1551.423144111249
 30
0.0
 11
142.3338352037865
 21
-1549.860644111249
 31
0.0
  0
LINE
  5
13E
  8
FAB_4$CUT_ALL
 10
142.3338352037865
 20
-1549.860644111249
 30
0.0
 11
143.0721164537864
 21
-1548.298144111249
 31
0.0
  0
LINE
  5
13F
  8
FAB_4$CUT_ALL
 10
143.0721164537864
 20
-1548.298144111249
 30
0.0
 11
143.7557102037864
 21
-1546.735644111249
 31
0.0
  0
LINE
  5
140
  8
FAB_4$CUT_ALL
 10
143.7557102037864
 20
-1546.735644111249
 30
0.0
 11
144.3846164537864
 21
-1545.173144111249
 31
0.0
  0
LINE
  5
141
  8
FAB_4$CUT_ALL
 10
144.3846164537864
 20
-1545.173144111249
 30
0.0
 11
144.9588352037864
 21
-1543.610644111249
 31
0.0
  0
LINE
  5
142
  8
FAB_4$CUT_ALL
 10
144.9588352037864
 20
-1543.610644111249
 30
0.0
 11
145.4783664537864
 21
-1542.048144111249
 31
0.0
  0
LINE
  5
143
  8
FAB_4$CUT_ALL
 10
145.4783664537864
 20
-1542.048144111249
 30
0.0
 11
145.9432102037864
 21
-1540.485644111249
 31
0.0
  0
LINE
  5
144
  8
FAB_4$CUT_ALL
 10
145.9432102037864
 20
-1540.485644111249
 30
0.0
 11
146.3533664537863
 21
-1538.923144111249
 31
0.0
  0
LINE
  5
145
  8
FAB_4$CUT_ALL
 10
146.3533664537863
 20
-1538.923144111249
 30
0.0
 11
146.7088352037863
 21
-1537.360644111249
 31
0.0
  0
LINE
  5
146
  8
FAB_4$CUT_ALL
 10
146.7088352037863
 20
-1537.360644111249
 30
0.0
 11
147.0096164537863
 21
-1535.798144111249
 31
0.0
  0
LINE
  5
147
  8
FAB_4$CUT_ALL
 10
147.0096164537863
 20
-1535.798144111249
 30
0.0
 11
147.2557102037863
 21
-1534.235644111249
 31
0.0
  0
LINE
  5
148
  8
FAB_4$CUT_ALL
 10
147.2557102037863
 20
-1534.235644111249
 30
0.0
 11
147.4471164537862
 21
-1532.673144111249
 31
0.0
  0
LINE
  5
149
  8
FAB_4$CUT_ALL
 10
147.4471164537862
 20
-1532.673144111249
 30
0.0
 11
147.5838352037862
 21
-1531.110644111249
 31
0.0
  0
LINE
  5
14A
  8
FAB_4$CUT_ALL
 10
147.5838352037862
 20
-1531.110644111249
 30
0.0
 11
147.6658664537862
 21
-1529.548144111249
 31
0.0
  0
LINE
  5
14B
  8
FAB_4$CUT_ALL
 10
147.6658664537862
 20
-1529.548144111249
 30
0.0
 11
147.6863742662862
 21
-1528.766894111249
 31
0.0
  0
LINE
  5
14C
  8
FAB_4$CUT_ALL
 10
147.6863742662862
 20
-1528.766894111249
 30
0.0
 11
147.6932102037862
 21
-1527.985644111249
 31
0.0
  0
LINE
  5
14D
  8
FAB_4$CUT_ALL
 10
147.6932102037862
 20
-1527.985644111249
 30
0.0
 11
147.6863742662862
 21
-1527.204394111249
 31
0.0
  0
LINE
  5
14E
  8
FAB_4$CUT_ALL
 10
147.6863742662862
 20
-1527.204394111249
 30
0.0
 11
147.6658664537862
 21
-1526.423144111249
 31
0.0
  0
LINE
  5
14F
  8
FAB_4$CUT_ALL
 10
147.6658664537862
 20
-1526.423144111249
 30
0.0
 11
147.5838352037862
 21
-1524.860644111249
 31
0.0
  0
LINE
  5
150
  8
FAB_4$CUT_ALL
 10
147.5838352037862
 20
-1524.860644111249
 30
0.0
 11
147.4471164537862
 21
-1523.298144111249
 31
0.0
  0
LINE
  5
151
  8
FAB_4$CUT_ALL
 10
147.4471164537862
 20
-1523.298144111249
 30
0.0
 11
147.2557102037862
 21
-1521.735644111249
 31
0.0
  0
LINE
  5
152
  8
FAB_4$CUT_ALL
 10
147.2557102037862
 20
-1521.735644111249
 30
0.0
 11
147.0096164537862
 21
-1520.173144111249
 31
0.0
  0
LINE
  5
153
  8
FAB_4$CUT_ALL
 10
147.0096164537862
 20
-1520.173144111249
 30
0.0
 11
146.7088352037862
 21
-1518.610644111249
 31
0.0
  0
LINE
  5
154
  8
FAB_4$CUT_ALL
 10
146.7088352037862
 20
-1518.610644111249
 30
0.0
 11
146.3533664537862
 21
-1517.048144111249
 31
0.0
  0
LINE
  5
155
  8
FAB_4$CUT_ALL
 10
146.3533664537862
 20
-1517.048144111249
 30
0.0
 11
145.9432102037862
 21
-1515.485644111249
 31
0.0
  0
LINE
  5
156
  8
FAB_4$CUT_ALL
 10
145.9432102037862
 20
-1515.485644111249
 30
0.0
 11
145.4783664537862
 21
-1513.923144111249
 31
0.0
  0
LINE
  5
157
  8
FAB_4$CUT_ALL
 10
145.4783664537862
 20
-1513.923144111249
 30
0.0
 11
144.9588352037862
 21
-1512.360644111249
 31
0.0
  0
LINE
  5
158
  8
FAB_4$CUT_ALL
 10
144.9588352037862
 20
-1512.360644111249
 30
0.0
 11
144.3846164537862
 21
-1510.798144111249
 31
0.0
  0
LINE
  5
159
  8
FAB_4$CUT_ALL
 10
144.3846164537862
 20
-1510.798144111249
 30
0.0
 11
143.7557102037862
 21
-1509.235644111249
 31
0.0
  0
LINE
  5
15A
  8
FAB_4$CUT_ALL
 10
143.7557102037862
 20
-1509.235644111249
 30
0.0
 11
143.0721164537862
 21
-1507.673144111249
 31
0.0
  0
LINE
  5
15B
  8
FAB_4$CUT_ALL
 10
143.0721164537862
 20
-1507.673144111249
 30
0.0
 11
142.3338352037863
 21
-1506.110644111249
 31
0.0
  0
LINE
  5
15C
  8
FAB_4$CUT_ALL
 10
142.3338352037863
 20
-1506.110644111249
 30
0.0
 11
141.5408664537863
 21
-1504.548144111249
 31
0.0
  0
LINE
  5
15D
  8
FAB_4$CUT_ALL
 10
141.5408664537863
 20
-1504.548144111249
 30
0.0
 11
140.6932102037863
 21
-1502.985644111249
 31
0.0
  0
ENDSEC
  0
EOF
