  0
SECTION
  2
HEADER
  9
$ACADVER
  1
AC1009
  9
$DWGCODEPAGE
  3
mac-roman
  9
$INSBASE
 10
0.0
 20
0.0
 30
0.0
  9
$EXTMIN
 10
0.0
 20
497.3816049443044
 30
0.0
  9
$EXTMAX
 10
767.1320464674683
 20
715.9356692875696
 30
0.0
  9
$LIMMIN
 10
0.0
 20
0.0
  9
$LIMMAX
 10
12.0
 20
9.0
  9
$ORTHOMODE
 70
     0
  9
$REGENMODE
 70
     1
  9
$FILLMODE
 70
     1
  9
$QTEXTMODE
 70
     0
  9
$MIRRTEXT
 70
     1
  9
$DRAGMODE
 70
     2
  9
$LTSCALE
 40
1.0
  9
$OSMODE
 70
    37
  9
$ATTMODE
 70
     1
  9
$TEXTSIZE
 40
0.2
  9
$TRACEWID
 40
0.05
  9
$TEXTSTYLE
  7
STANDARD
  9
$CLAYER
  8
MAKE2D$VISIBLE$LINES
  9
$CELTYPE
  6
BYLAYER
  9
$CECOLOR
 62
   256
  9
$DIMSCALE
 40
1.0
  9
$DIMASZ
 40
0.18
  9
$DIMEXO
 40
0.0625
  9
$DIMDLI
 40
0.38
  9
$DIMRND
 40
0.0
  9
$DIMDLE
 40
0.0
  9
$DIMEXE
 40
0.18
  9
$DIMTP
 40
0.0
  9
$DIMTM
 40
0.0
  9
$DIMTXT
 40
0.18
  9
$DIMCEN
 40
0.09
  9
$DIMTSZ
 40
0.0
  9
$DIMTOL
 70
     0
  9
$DIMLIM
 70
     0
  9
$DIMTIH
 70
     1
  9
$DIMTOH
 70
     1
  9
$DIMSE1
 70
     0
  9
$DIMSE2
 70
     0
  9
$DIMTAD
 70
     0
  9
$DIMZIN
 70
     0
  9
$DIMBLK
  1

  9
$DIMASO
 70
     1
  9
$DIMSHO
 70
     1
  9
$DIMPOST
  1

  9
$DIMAPOST
  1

  9
$DIMALT
 70
     0
  9
$DIMALTD
 70
     2
  9
$DIMALTF
 40
25.4
  9
$DIMLFAC
 40
1.0
  9
$DIMTOFL
 70
     0
  9
$DIMTVP
 40
0.0
  9
$DIMTIX
 70
     0
  9
$DIMSOXD
 70
     0
  9
$DIMSAH
 70
     0
  9
$DIMBLK1
  1

  9
$DIMBLK2
  1

  9
$DIMSTYLE
  2
STANDARD
  9
$DIMCLRD
 70
     0
  9
$DIMCLRE
 70
     0
  9
$DIMCLRT
 70
     0
  9
$DIMTFAC
 40
1.0
  9
$DIMGAP
 40
0.09
  9
$LUNITS
 70
     2
  9
$LUPREC
 70
     3
  9
$SKETCHINC
 40
0.1
  9
$FILLETRAD
 40
0.5
  9
$AUNITS
 70
     0
  9
$AUPREC
 70
     0
  9
$MENU
  1
.
  9
$ELEVATION
 40
0.0
  9
$PELEVATION
 40
0.0
  9
$THICKNESS
 40
0.0
  9
$LIMCHECK
 70
     0
  9
$CHAMFERA
 40
0.0
  9
$CHAMFERB
 40
0.0
  9
$SKPOLY
 70
     0
  9
$TDCREATE
 40
2457965.694664352
  9
$TDUPDATE
 40
2457965.6946875
  9
$TDINDWG
 40
0.0000000116
  9
$TDUSRTIMER
 40
0.0000000116
  9
$USRTIMER
 70
     1
  9
$ANGBASE
 50
0.0
  9
$ANGDIR
 70
     0
  9
$PDMODE
 70
     0
  9
$PDSIZE
 40
0.0
  9
$PLINEWID
 40
0.0
  9
$COORDS
 70
     1
  9
$SPLFRAME
 70
     0
  9
$SPLINETYPE
 70
     6
  9
$SPLINESEGS
 70
     8
  9
$ATTDIA
 70
     0
  9
$ATTREQ
 70
     1
  9
$HANDLING
 70
     1
  9
$HANDSEED
  5
461
  9
$SURFTAB1
 70
     6
  9
$SURFTAB2
 70
     6
  9
$SURFTYPE
 70
     6
  9
$SURFU
 70
     6
  9
$SURFV
 70
     6
  9
$UCSNAME
  2

  9
$UCSORG
 10
0.0
 20
0.0
 30
0.0
  9
$UCSXDIR
 10
1.0
 20
0.0
 30
0.0
  9
$UCSYDIR
 10
0.0
 20
1.0
 30
0.0
  9
$PUCSNAME
  2

  9
$PUCSORG
 10
0.0
 20
0.0
 30
0.0
  9
$PUCSXDIR
 10
1.0
 20
0.0
 30
0.0
  9
$PUCSYDIR
 10
0.0
 20
1.0
 30
0.0
  9
$USERI1
 70
     0
  9
$USERI2
 70
     0
  9
$USERI3
 70
     0
  9
$USERI4
 70
     0
  9
$USERI5
 70
     0
  9
$USERR1
 40
0.0
  9
$USERR2
 40
0.0
  9
$USERR3
 40
0.0
  9
$USERR4
 40
0.0
  9
$USERR5
 40
0.0
  9
$WORLDVIEW
 70
     1
  9
$SHADEDGE
 70
     3
  9
$SHADEDIF
 70
    70
  9
$TILEMODE
 70
     1
  9
$MAXACTVP
 70
    64
  9
$PLIMCHECK
 70
     0
  9
$PEXTMIN
 10
1.000000000000000E+20
 20
1.000000000000000E+20
 30
1.000000000000000E+20
  9
$PEXTMAX
 10
-1.000000000000000E+20
 20
-1.000000000000000E+20
 30
-1.000000000000000E+20
  9
$PLIMMIN
 10
0.0
 20
0.0
  9
$PLIMMAX
 10
12.0
 20
9.0
  9
$UNITMODE
 70
     0
  9
$VISRETAIN
 70
     1
  9
$PLINEGEN
 70
     0
  9
$PSLTSCALE
 70
     1
  0
ENDSEC
  0
SECTION
  2
TABLES
  0
TABLE
  2
VPORT
 70
     1
  0
VPORT
  2
*ACTIVE
 70
     0
 10
0.0
 20
0.0
 11
1.0
 21
1.0
 12
383.5660232337341
 22
606.6586371159369
 13
0.0
 23
0.0
 14
0.5
 24
0.5
 15
0.5
 25
0.5
 16
0.0
 26
0.0
 36
1.0
 17
0.0
 27
0.0
 37
0.0
 40
222.9251456301304
 41
3.510033312684573
 42
50.0
 43
0.0
 44
0.0
 50
0.0
 51
0.0
 71
     0
 72
   100
 73
     1
 74
     3
 75
     0
 76
     0
 77
     0
 78
     0
  0
ENDTAB
  0
TABLE
  2
LTYPE
 70
     1
  0
LTYPE
  2
CONTINUOUS
 70
     0
  3
Solid line
 72
    65
 73
     0
 40
0.0
  0
ENDTAB
  0
TABLE
  2
LAYER
 70
     2
  0
LAYER
  2
0
 70
     0
 62
     7
  6
CONTINUOUS
  0
LAYER
  2
MAKE2D$VISIBLE$LINES
 70
     0
 62
     7
  6
CONTINUOUS
  0
ENDTAB
  0
TABLE
  2
STYLE
 70
     1
  0
STYLE
  2
STANDARD
 70
     0
 40
0.0
 41
1.0
 50
0.0
 71
     0
 42
0.2
  3
txt
  4

  0
ENDTAB
  0
TABLE
  2
VIEW
 70
     0
  0
ENDTAB
  0
TABLE
  2
UCS
 70
     0
  0
ENDTAB
  0
TABLE
  2
APPID
 70
     1
  0
APPID
  2
ACAD
 70
     0
  0
ENDTAB
  0
TABLE
  2
DIMSTYLE
 70
     1
  0
DIMSTYLE
  2
STANDARD
 70
     0
  3

  4

  5

  6

  7

 40
1.0
 41
0.18
 42
0.0625
 43
0.38
 44
0.18
 45
0.0
 46
0.0
 47
0.0
 48
0.0
140
0.18
141
0.09
142
0.0
143
25.4
144
1.0
145
0.0
146
1.0
147
0.09
 71
     0
 72
     0
 73
     1
 74
     1
 75
     0
 76
     0
 77
     0
 78
     0
170
     0
171
     2
172
     0
173
     0
174
     0
175
     0
176
     0
177
     0
178
     0
  0
ENDTAB
  0
ENDSEC
  0
SECTION
  2
BLOCKS
  0
BLOCK
  8
0
  2
$MODEL_SPACE
 70
     0
 10
0.0
 20
0.0
 30
0.0
  3
$MODEL_SPACE
  1

  0
ENDBLK
  5
21
  8
0
  0
BLOCK
 67
     1
  8
0
  2
$PAPER_SPACE
 70
     0
 10
0.0
 20
0.0
 30
0.0
  3
$PAPER_SPACE
  1

  0
ENDBLK
  5
1D
 67
     1
  8
0
  0
ENDSEC
  0
SECTION
  2
ENTITIES
  0
LINE
  5
6F
  8
MAKE2D$VISIBLE$LINES
 10
693.3602809174333
 20
532.1426699253958
 30
0.0
 11
723.2602809174332
 21
532.1426699253958
 31
0.0
  0
LINE
  5
70
  8
MAKE2D$VISIBLE$LINES
 10
723.2602809174332
 20
532.1426699253958
 30
0.0
 11
723.2602809174332
 21
529.3426699253959
 31
0.0
  0
LINE
  5
71
  8
MAKE2D$VISIBLE$LINES
 10
723.2602809174332
 20
529.3426699253959
 30
0.0
 11
663.4602809174332
 21
529.3426699253959
 31
0.0
  0
LINE
  5
72
  8
MAKE2D$VISIBLE$LINES
 10
663.4602809174332
 20
529.3426699253959
 30
0.0
 11
663.4602809174332
 21
532.1426699253958
 31
0.0
  0
LINE
  5
73
  8
MAKE2D$VISIBLE$LINES
 10
663.4602809174332
 20
532.1426699253958
 30
0.0
 11
693.3602809174333
 21
532.1426699253958
 31
0.0
  0
ARC
  5
74
  8
MAKE2D$VISIBLE$LINES
 10
661.6367679423778
 20
604.9749768188218
 30
0.0
 40
10.00000000000057
 50
0.000000000005211
 51
89.99999999999675
  0
LINE
  5
75
  8
MAKE2D$VISIBLE$LINES
 10
656.6370796202582
 20
614.9749768188224
 30
0.0
 11
661.6367679423784
 21
614.9749768188224
 31
0.0
  0
LINE
  5
76
  8
MAKE2D$VISIBLE$LINES
 10
671.6367679423784
 20
579.2426699253953
 30
0.0
 11
671.6367679423781
 21
604.9749768188228
 31
0.0
  0
ARC
  5
77
  8
MAKE2D$VISIBLE$LINES
 10
656.6370796202577
 20
594.9749768188228
 30
0.0
 40
19.99999999999971
 50
89.99999999999804
 51
180.0001772151867
  0
LINE
  5
78
  8
MAKE2D$VISIBLE$LINES
 10
636.6372277693863
 20
547.0765690055407
 30
0.0
 11
636.6370796203539
 21
594.974914959053
 31
0.0
  0
LINE
  5
79
  8
MAKE2D$VISIBLE$LINES
 10
762.5671143274401
 20
529.2426699253954
 30
0.0
 11
762.5671143274399
 21
559.2426699253955
 31
0.0
  0
LINE
  5
7A
  8
MAKE2D$VISIBLE$LINES
 10
762.5671143274399
 20
559.2426699253955
 30
0.0
 11
762.5602117636491
 21
559.6876215943356
 31
0.0
  0
LINE
  5
7B
  8
MAKE2D$VISIBLE$LINES
 10
762.5602117636491
 20
559.6876215943356
 30
0.0
 11
762.539022070719
 21
560.1379158817125
 31
0.0
  0
LINE
  5
7C
  8
MAKE2D$VISIBLE$LINES
 10
762.539022070719
 20
560.1379158817125
 30
0.0
 11
762.5028493772644
 21
560.5924582883154
 31
0.0
  0
LINE
  5
7D
  8
MAKE2D$VISIBLE$LINES
 10
762.5028493772644
 20
560.5924582883154
 30
0.0
 11
762.4510422942253
 21
561.0500512041963
 31
0.0
  0
LINE
  5
7E
  8
MAKE2D$VISIBLE$LINES
 10
762.4510422942253
 20
561.0500512041963
 30
0.0
 11
762.3830046099622
 21
561.5093976222911
 31
0.0
  0
LINE
  5
7F
  8
MAKE2D$VISIBLE$LINES
 10
762.3830046099622
 20
561.5093976222911
 30
0.0
 11
762.3427307455395
 21
561.7392972576348
 31
0.0
  0
LINE
  5
80
  8
MAKE2D$VISIBLE$LINES
 10
762.3427307455395
 20
561.7392972576348
 30
0.0
 11
762.2982061902287
 21
561.9691068221861
 31
0.0
  0
LINE
  5
81
  8
MAKE2D$VISIBLE$LINES
 10
762.2982061902287
 20
561.9691068221861
 30
0.0
 11
762.24937678778
 21
562.1986391053
 31
0.0
  0
LINE
  5
82
  8
MAKE2D$VISIBLE$LINES
 10
762.24937678778
 20
562.1986391053
 30
0.0
 11
762.1961938591966
 21
562.4277021245152
 31
0.0
  0
LINE
  5
83
  8
MAKE2D$VISIBLE$LINES
 10
762.1961938591966
 20
562.4277021245152
 30
0.0
 11
762.1386145237237
 21
562.656099484054
 31
0.0
  0
LINE
  5
84
  8
MAKE2D$VISIBLE$LINES
 10
762.1386145237237
 20
562.656099484054
 30
0.0
 11
762.07660200908
 21
562.8836307660547
 31
0.0
  0
LINE
  5
85
  8
MAKE2D$VISIBLE$LINES
 10
762.07660200908
 20
562.8836307660547
 30
0.0
 11
762.0101259486402
 21
563.1100919538028
 31
0.0
  0
LINE
  5
86
  8
MAKE2D$VISIBLE$LINES
 10
762.0101259486402
 20
563.1100919538028
 30
0.0
 11
761.9391626632445
 21
563.335275885944
 31
0.0
  0
LINE
  5
87
  8
MAKE2D$VISIBLE$LINES
 10
761.9391626632445
 20
563.335275885944
 30
0.0
 11
761.863695425325
 21
563.5589727403683
 31
0.0
  0
LINE
  5
88
  8
MAKE2D$VISIBLE$LINES
 10
761.863695425325
 20
563.5589727403683
 30
0.0
 11
761.7837147030515
 21
563.7809705461539
 31
0.0
  0
LINE
  5
89
  8
MAKE2D$VISIBLE$LINES
 10
761.7837147030515
 20
563.7809705461539
 30
0.0
 11
761.6992183822631
 21
564.0010557216721
 31
0.0
  0
LINE
  5
8A
  8
MAKE2D$VISIBLE$LINES
 10
761.6992183822631
 20
564.0010557216721
 30
0.0
 11
761.610211964017
 21
564.2190136366535
 31
0.0
  0
LINE
  5
8B
  8
MAKE2D$VISIBLE$LINES
 10
761.610211964017
 20
564.2190136366535
 30
0.0
 11
761.5167087356924
 21
564.4346291957345
 31
0.0
  0
LINE
  5
8C
  8
MAKE2D$VISIBLE$LINES
 10
761.5167087356924
 20
564.4346291957345
 30
0.0
 11
761.4187299137149
 21
564.6476874407334
 31
0.0
  0
LINE
  5
8D
  8
MAKE2D$VISIBLE$LINES
 10
761.4187299137149
 20
564.6476874407334
 30
0.0
 11
761.3163047561181
 21
564.8579741686485
 31
0.0
  0
LINE
  5
8E
  8
MAKE2D$VISIBLE$LINES
 10
761.3163047561181
 20
564.8579741686485
 30
0.0
 11
761.2094706433372
 21
565.0652765621325
 31
0.0
  0
LINE
  5
8F
  8
MAKE2D$VISIBLE$LINES
 10
761.2094706433372
 20
565.0652765621325
 30
0.0
 11
761.0982731258324
 21
565.2693838289902
 31
0.0
  0
LINE
  5
90
  8
MAKE2D$VISIBLE$LINES
 10
761.0982731258324
 20
565.2693838289902
 30
0.0
 11
760.9827659373628
 21
565.4700878470629
 31
0.0
  0
LINE
  5
91
  8
MAKE2D$VISIBLE$LINES
 10
760.9827659373628
 20
565.4700878470629
 30
0.0
 11
760.8630109729746
 21
565.6671838107077
 31
0.0
  0
LINE
  5
92
  8
MAKE2D$VISIBLE$LINES
 10
760.8630109729746
 20
565.6671838107077
 30
0.0
 11
760.7390782310272
 21
565.8604708749689
 31
0.0
  0
LINE
  5
93
  8
MAKE2D$VISIBLE$LINES
 10
760.7390782310272
 20
565.8604708749689
 30
0.0
 11
760.6110457188645
 21
566.0497527934557
 31
0.0
  0
LINE
  5
94
  8
MAKE2D$VISIBLE$LINES
 10
760.6110457188645
 20
566.0497527934557
 30
0.0
 11
760.478999322013
 21
566.2348385459027
 31
0.0
  0
LINE
  5
95
  8
MAKE2D$VISIBLE$LINES
 10
760.478999322013
 20
566.2348385459027
 30
0.0
 11
760.3430326370988
 21
566.4155429513896
 31
0.0
  0
LINE
  5
96
  8
MAKE2D$VISIBLE$LINES
 10
760.3430326370988
 20
566.4155429513896
 30
0.0
 11
760.2032467689639
 21
566.5916872632445
 31
0.0
  0
LINE
  5
97
  8
MAKE2D$VISIBLE$LINES
 10
760.2032467689639
 20
566.5916872632445
 30
0.0
 11
760.059750092773
 21
566.7630997417359
 31
0.0
  0
LINE
  5
98
  8
MAKE2D$VISIBLE$LINES
 10
760.059750092773
 20
566.7630997417359
 30
0.0
 11
759.91265798219
 21
566.9296162007971
 31
0.0
  0
LINE
  5
99
  8
MAKE2D$VISIBLE$LINES
 10
759.91265798219
 20
566.9296162007971
 30
0.0
 11
759.7620925050024
 21
567.0910805251866
 31
0.0
  0
LINE
  5
9A
  8
MAKE2D$VISIBLE$LINES
 10
759.7620925050024
 20
567.0910805251866
 30
0.0
 11
759.6081820878468
 21
567.2473451547098
 31
0.0
  0
LINE
  5
9B
  8
MAKE2D$VISIBLE$LINES
 10
759.6081820878468
 20
567.2473451547098
 30
0.0
 11
759.4510611519527
 21
567.3982715323662
 31
0.0
  0
LINE
  5
9C
  8
MAKE2D$VISIBLE$LINES
 10
759.4510611519527
 20
567.3982715323662
 30
0.0
 11
759.2908697220681
 21
567.5437305135741
 31
0.0
  0
LINE
  5
9D
  8
MAKE2D$VISIBLE$LINES
 10
759.2908697220681
 20
567.5437305135741
 30
0.0
 11
759.1277530109543
 21
567.6836027339391
 31
0.0
  0
LINE
  5
9E
  8
MAKE2D$VISIBLE$LINES
 10
759.1277530109543
 20
567.6836027339391
 30
0.0
 11
758.9618609820355
 21
567.8177789333689
 31
0.0
  0
LINE
  5
9F
  8
MAKE2D$VISIBLE$LINES
 10
758.9618609820355
 20
567.8177789333689
 30
0.0
 11
758.7933478929599
 21
567.9461602347022
 31
0.0
  0
LINE
  5
A0
  8
MAKE2D$VISIBLE$LINES
 10
758.7933478929599
 20
567.9461602347022
 30
0.0
 11
758.6223718229702
 21
568.0686583754032
 31
0.0
  0
LINE
  5
A1
  8
MAKE2D$VISIBLE$LINES
 10
758.6223718229702
 20
568.0686583754032
 30
0.0
 11
758.4490941870918
 21
568.1851958912576
 31
0.0
  0
LINE
  5
A2
  8
MAKE2D$VISIBLE$LINES
 10
758.4490941870918
 20
568.1851958912576
 30
0.0
 11
758.273679240224
 21
568.2957062514182
 31
0.0
  0
LINE
  5
A3
  8
MAKE2D$VISIBLE$LINES
 10
758.273679240224
 20
568.2957062514182
 30
0.0
 11
758.096293574267
 21
568.400133944536
 31
0.0
  0
LINE
  5
A4
  8
MAKE2D$VISIBLE$LINES
 10
758.096293574267
 20
568.400133944536
 30
0.0
 11
757.9171056114201
 21
568.4984345161275
 31
0.0
  0
LINE
  5
A5
  8
MAKE2D$VISIBLE$LINES
 10
757.9171056114201
 20
568.4984345161275
 30
0.0
 11
757.7362850967799
 21
568.5905745577037
 31
0.0
  0
LINE
  5
A6
  8
MAKE2D$VISIBLE$LINES
 10
757.7362850967799
 20
568.5905745577037
 30
0.0
 11
757.5540025932962
 21
568.6765316485745
 31
0.0
  0
LINE
  5
A7
  8
MAKE2D$VISIBLE$LINES
 10
757.5540025932962
 20
568.6765316485745
 30
0.0
 11
757.370428982078
 21
568.7562942515984
 31
0.0
  0
LINE
  5
A8
  8
MAKE2D$VISIBLE$LINES
 10
757.370428982078
 20
568.7562942515984
 30
0.0
 11
757.1857349709121
 21
568.829861564481
 31
0.0
  0
LINE
  5
A9
  8
MAKE2D$VISIBLE$LINES
 10
757.1857349709121
 20
568.829861564481
 30
0.0
 11
757.0000906137348
 21
568.897243328543
 31
0.0
  0
LINE
  5
AA
  8
MAKE2D$VISIBLE$LINES
 10
757.0000906137348
 20
568.897243328543
 30
0.0
 11
756.8136648436237
 21
568.9584595971585
 31
0.0
  0
LINE
  5
AB
  8
MAKE2D$VISIBLE$LINES
 10
756.8136648436237
 20
568.9584595971585
 30
0.0
 11
756.6266250216997
 21
569.0135404663158
 31
0.0
  0
LINE
  5
AC
  8
MAKE2D$VISIBLE$LINES
 10
756.6266250216997
 20
569.0135404663158
 30
0.0
 11
756.4391365041264
 21
569.062525769973
 31
0.0
  0
LINE
  5
AD
  8
MAKE2D$VISIBLE$LINES
 10
756.4391365041264
 20
569.062525769973
 30
0.0
 11
756.2513622291831
 21
569.1054647430628
 31
0.0
  0
LINE
  5
AE
  8
MAKE2D$VISIBLE$LINES
 10
756.2513622291831
 20
569.1054647430628
 30
0.0
 11
756.0634623261525
 21
569.1424156551486
 31
0.0
  0
LINE
  5
AF
  8
MAKE2D$VISIBLE$LINES
 10
756.0634623261525
 20
569.1424156551486
 30
0.0
 11
755.8755937475448
 21
569.1734454178468
 31
0.0
  0
LINE
  5
B0
  8
MAKE2D$VISIBLE$LINES
 10
755.8755937475448
 20
569.1734454178468
 30
0.0
 11
755.687909925925
 21
569.1986291692089
 31
0.0
  0
LINE
  5
B1
  8
MAKE2D$VISIBLE$LINES
 10
755.687909925925
 20
569.1986291692089
 30
0.0
 11
755.500560456381
 21
569.2180498382924
 31
0.0
  0
LINE
  5
B2
  8
MAKE2D$VISIBLE$LINES
 10
755.500560456381
 20
569.2180498382924
 30
0.0
 11
755.3136908054285
 21
569.2317976931677
 31
0.0
  0
LINE
  5
B3
  8
MAKE2D$VISIBLE$LINES
 10
755.3136908054285
 20
569.2317976931677
 30
0.0
 11
755.1274420469111
 21
569.2399698755743
 31
0.0
  0
LINE
  5
B4
  8
MAKE2D$VISIBLE$LINES
 10
755.1274420469111
 20
569.2399698755743
 30
0.0
 11
754.9419506252316
 21
569.2426699253956
 31
0.0
  0
LINE
  5
B5
  8
MAKE2D$VISIBLE$LINES
 10
762.5671143274401
 20
529.2426699253954
 30
0.0
 11
762.5628916585076
 21
528.9776005784039
 31
0.0
  0
LINE
  5
B6
  8
MAKE2D$VISIBLE$LINES
 10
762.5628916585076
 20
528.9776005784039
 30
0.0
 11
762.5502236517102
 21
528.7146102066829
 31
0.0
  0
LINE
  5
B7
  8
MAKE2D$VISIBLE$LINES
 10
762.5502236517102
 20
528.7146102066829
 30
0.0
 11
762.5291103070479
 21
528.4536988102324
 31
0.0
  0
LINE
  5
B8
  8
MAKE2D$VISIBLE$LINES
 10
762.5291103070479
 20
528.4536988102324
 30
0.0
 11
762.4995516245207
 21
528.1948663890524
 31
0.0
  0
LINE
  5
B9
  8
MAKE2D$VISIBLE$LINES
 10
762.4995516245207
 20
528.1948663890524
 30
0.0
 11
762.4615476041286
 21
527.9381129431431
 31
0.0
  0
LINE
  5
BA
  8
MAKE2D$VISIBLE$LINES
 10
762.4615476041286
 20
527.9381129431431
 30
0.0
 11
762.4150982458714
 21
527.6834384725041
 31
0.0
  0
LINE
  5
BB
  8
MAKE2D$VISIBLE$LINES
 10
762.4150982458714
 20
527.6834384725041
 30
0.0
 11
762.3602035497493
 21
527.4308429771357
 31
0.0
  0
LINE
  5
BC
  8
MAKE2D$VISIBLE$LINES
 10
762.3602035497493
 20
527.4308429771357
 30
0.0
 11
762.2968635157623
 21
527.1803264570378
 31
0.0
  0
LINE
  5
BD
  8
MAKE2D$VISIBLE$LINES
 10
762.2968635157623
 20
527.1803264570378
 30
0.0
 11
762.2250781439104
 21
526.9318889122105
 31
0.0
  0
LINE
  5
BE
  8
MAKE2D$VISIBLE$LINES
 10
762.2250781439104
 20
526.9318889122105
 30
0.0
 11
762.1448474341935
 21
526.6855303426537
 31
0.0
  0
LINE
  5
BF
  8
MAKE2D$VISIBLE$LINES
 10
762.1448474341935
 20
526.6855303426537
 30
0.0
 11
762.0561713866117
 21
526.4412507483675
 31
0.0
  0
LINE
  5
C0
  8
MAKE2D$VISIBLE$LINES
 10
762.0561713866117
 20
526.4412507483675
 30
0.0
 11
761.959050001165
 21
526.1990501293517
 31
0.0
  0
LINE
  5
C1
  8
MAKE2D$VISIBLE$LINES
 10
761.959050001165
 20
526.1990501293517
 30
0.0
 11
761.8534832778533
 21
525.9589284856064
 31
0.0
  0
LINE
  5
C2
  8
MAKE2D$VISIBLE$LINES
 10
761.8534832778533
 20
525.9589284856064
 30
0.0
 11
761.7394712166767
 21
525.7208858171317
 31
0.0
  0
LINE
  5
C3
  8
MAKE2D$VISIBLE$LINES
 10
761.7394712166767
 20
525.7208858171317
 30
0.0
 11
761.6170138176353
 21
525.4849221239275
 31
0.0
  0
LINE
  5
C4
  8
MAKE2D$VISIBLE$LINES
 10
761.6170138176353
 20
525.4849221239275
 30
0.0
 11
761.4861110807288
 21
525.2510374059938
 31
0.0
  0
LINE
  5
C5
  8
MAKE2D$VISIBLE$LINES
 10
761.4861110807288
 20
525.2510374059938
 30
0.0
 11
761.3467630059574
 21
525.0192316633306
 31
0.0
  0
LINE
  5
C6
  8
MAKE2D$VISIBLE$LINES
 10
761.3467630059574
 20
525.0192316633306
 30
0.0
 11
761.1989695933212
 21
524.7895048959379
 31
0.0
  0
LINE
  5
C7
  8
MAKE2D$VISIBLE$LINES
 10
761.1989695933212
 20
524.7895048959379
 30
0.0
 11
761.04273084282
 21
524.5618571038158
 31
0.0
  0
LINE
  5
C8
  8
MAKE2D$VISIBLE$LINES
 10
761.04273084282
 20
524.5618571038158
 30
0.0
 11
760.8780467544537
 21
524.3362882869642
 31
0.0
  0
LINE
  5
C9
  8
MAKE2D$VISIBLE$LINES
 10
760.8780467544537
 20
524.3362882869642
 30
0.0
 11
760.7049173282226
 21
524.1127984453832
 31
0.0
  0
LINE
  5
CA
  8
MAKE2D$VISIBLE$LINES
 10
760.7049173282226
 20
524.1127984453832
 30
0.0
 11
760.5233425641266
 21
523.8913875790727
 31
0.0
  0
LINE
  5
CB
  8
MAKE2D$VISIBLE$LINES
 10
760.5233425641266
 20
523.8913875790727
 30
0.0
 11
760.3333224621656
 21
523.6720556880326
 31
0.0
  0
LINE
  5
CC
  8
MAKE2D$VISIBLE$LINES
 10
760.3333224621656
 20
523.6720556880326
 30
0.0
 11
760.1348570223397
 21
523.4548027722631
 31
0.0
  0
LINE
  5
CD
  8
MAKE2D$VISIBLE$LINES
 10
760.1348570223397
 20
523.4548027722631
 30
0.0
 11
759.9279462446489
 21
523.2396288317641
 31
0.0
  0
LINE
  5
CE
  8
MAKE2D$VISIBLE$LINES
 10
759.9279462446489
 20
523.2396288317641
 30
0.0
 11
759.7125901290931
 21
523.0265338665356
 31
0.0
  0
LINE
  5
CF
  8
MAKE2D$VISIBLE$LINES
 10
759.7125901290931
 20
523.0265338665356
 30
0.0
 11
759.4887886756724
 21
522.8155178765777
 31
0.0
  0
LINE
  5
D0
  8
MAKE2D$VISIBLE$LINES
 10
759.4887886756724
 20
522.8155178765777
 30
0.0
 11
759.2565418843868
 21
522.6065808618903
 31
0.0
  0
LINE
  5
D1
  8
MAKE2D$VISIBLE$LINES
 10
759.2565418843868
 20
522.6065808618903
 30
0.0
 11
759.0158497552363
 21
522.3997228224734
 31
0.0
  0
LINE
  5
D2
  8
MAKE2D$VISIBLE$LINES
 10
759.0158497552363
 20
522.3997228224734
 30
0.0
 11
758.7667122882208
 21
522.194943758327
 31
0.0
  0
LINE
  5
D3
  8
MAKE2D$VISIBLE$LINES
 10
758.7667122882208
 20
522.194943758327
 30
0.0
 11
758.5091294833404
 21
521.9922436694511
 31
0.0
  0
LINE
  5
D4
  8
MAKE2D$VISIBLE$LINES
 10
758.5091294833404
 20
521.9922436694511
 30
0.0
 11
758.2431013405951
 21
521.7916225558458
 31
0.0
  0
LINE
  5
D5
  8
MAKE2D$VISIBLE$LINES
 10
758.2431013405951
 20
521.7916225558458
 30
0.0
 11
757.9686278599848
 21
521.593080417511
 31
0.0
  0
LINE
  5
D6
  8
MAKE2D$VISIBLE$LINES
 10
757.9686278599848
 20
521.593080417511
 30
0.0
 11
757.6857090415097
 21
521.3966172544467
 31
0.0
  0
LINE
  5
D7
  8
MAKE2D$VISIBLE$LINES
 10
757.6857090415097
 20
521.3966172544467
 30
0.0
 11
757.3943448851695
 21
521.202233066653
 31
0.0
  0
LINE
  5
D8
  8
MAKE2D$VISIBLE$LINES
 10
757.3943448851695
 20
521.202233066653
 30
0.0
 11
757.0945353909644
 21
521.0099278541297
 31
0.0
  0
LINE
  5
D9
  8
MAKE2D$VISIBLE$LINES
 10
757.0945353909644
 20
521.0099278541297
 30
0.0
 11
756.4695803889595
 21
520.6315543548947
 31
0.0
  0
LINE
  5
DA
  8
MAKE2D$VISIBLE$LINES
 10
756.4695803889595
 20
520.6315543548947
 30
0.0
 11
755.8108440354947
 21
520.2614967567418
 31
0.0
  0
LINE
  5
DB
  8
MAKE2D$VISIBLE$LINES
 10
755.8108440354947
 20
520.2614967567418
 30
0.0
 11
755.1183263305703
 21
519.8997550596711
 31
0.0
  0
LINE
  5
DC
  8
MAKE2D$VISIBLE$LINES
 10
755.1183263305703
 20
519.8997550596711
 30
0.0
 11
754.3920272741861
 21
519.5463292636823
 31
0.0
  0
LINE
  5
DD
  8
MAKE2D$VISIBLE$LINES
 10
754.3920272741861
 20
519.5463292636823
 30
0.0
 11
753.6319468663423
 21
519.2012193687757
 31
0.0
  0
LINE
  5
DE
  8
MAKE2D$VISIBLE$LINES
 10
753.6319468663423
 20
519.2012193687757
 30
0.0
 11
752.8380851070388
 21
518.8644253749512
 31
0.0
  0
LINE
  5
DF
  8
MAKE2D$VISIBLE$LINES
 10
752.8380851070388
 20
518.8644253749512
 30
0.0
 11
752.0104419962754
 21
518.5359472822088
 31
0.0
  0
LINE
  5
E0
  8
MAKE2D$VISIBLE$LINES
 10
752.0104419962754
 20
518.5359472822088
 30
0.0
 11
751.1490175340523
 21
518.2157850905485
 31
0.0
  0
LINE
  5
E1
  8
MAKE2D$VISIBLE$LINES
 10
751.1490175340523
 20
518.2157850905485
 30
0.0
 11
750.2538117203695
 21
517.9039387999702
 31
0.0
  0
LINE
  5
E2
  8
MAKE2D$VISIBLE$LINES
 10
750.2538117203695
 20
517.9039387999702
 30
0.0
 11
749.324824555227
 21
517.6004084104741
 31
0.0
  0
LINE
  5
E3
  8
MAKE2D$VISIBLE$LINES
 10
749.324824555227
 20
517.6004084104741
 30
0.0
 11
747.3655061705629
 21
517.0182953347281
 31
0.0
  0
LINE
  5
E4
  8
MAKE2D$VISIBLE$LINES
 10
747.3655061705629
 20
517.0182953347281
 30
0.0
 11
745.2710623800597
 21
516.4694458633104
 31
0.0
  0
LINE
  5
E5
  8
MAKE2D$VISIBLE$LINES
 10
745.2710623800597
 20
516.4694458633104
 30
0.0
 11
743.0414931837176
 21
515.953859996221
 31
0.0
  0
LINE
  5
E6
  8
MAKE2D$VISIBLE$LINES
 10
743.0414931837176
 20
515.953859996221
 30
0.0
 11
740.6767985815368
 21
515.4715377334601
 31
0.0
  0
LINE
  5
E7
  8
MAKE2D$VISIBLE$LINES
 10
740.6767985815368
 20
515.4715377334601
 30
0.0
 11
738.1769785735169
 21
515.0224790750274
 31
0.0
  0
LINE
  5
E8
  8
MAKE2D$VISIBLE$LINES
 10
738.1769785735169
 20
515.0224790750274
 30
0.0
 11
735.5420331596581
 21
514.606684020923
 31
0.0
  0
LINE
  5
E9
  8
MAKE2D$VISIBLE$LINES
 10
735.5420331596581
 20
514.606684020923
 30
0.0
 11
732.7719623399605
 21
514.2241525711471
 31
0.0
  0
LINE
  5
EA
  8
MAKE2D$VISIBLE$LINES
 10
732.7719623399605
 20
514.2241525711471
 30
0.0
 11
729.8667661144239
 21
513.8748847256994
 31
0.0
  0
LINE
  5
EB
  8
MAKE2D$VISIBLE$LINES
 10
729.8667661144239
 20
513.8748847256994
 30
0.0
 11
723.6509974458339
 21
513.2761398477892
 31
0.0
  0
LINE
  5
EC
  8
MAKE2D$VISIBLE$LINES
 10
723.6509974458339
 20
513.2761398477892
 30
0.0
 11
716.8947271538882
 21
512.8104493871923
 31
0.0
  0
LINE
  5
ED
  8
MAKE2D$VISIBLE$LINES
 10
716.8947271538882
 20
512.8104493871923
 30
0.0
 11
709.597955238587
 21
512.4778133439088
 31
0.0
  0
LINE
  5
EE
  8
MAKE2D$VISIBLE$LINES
 10
709.597955238587
 20
512.4778133439088
 30
0.0
 11
701.7606816999303
 21
512.2782317179388
 31
0.0
  0
LINE
  5
EF
  8
MAKE2D$VISIBLE$LINES
 10
701.7606816999303
 20
512.2782317179388
 30
0.0
 11
693.3829065379177
 21
512.2117045092821
 31
0.0
  0
ARC
  5
F0
  8
MAKE2D$VISIBLE$LINES
 10
681.63676794238
 20
579.2426699253969
 30
0.0
 40
10.00000000000159
 50
180.0000000000097
 51
269.9999999999948
  0
LINE
  5
F1
  8
MAKE2D$VISIBLE$LINES
 10
754.9419506252314
 20
569.2426699253953
 30
0.0
 11
681.636767942379
 21
569.2426699253953
 31
0.0
  0
LINE
  5
F2
  8
MAKE2D$VISIBLE$LINES
 10
693.3829065379177
 20
512.2117045092821
 30
0.0
 11
689.891717316807
 21
512.2457522285167
 31
0.0
  0
LINE
  5
F3
  8
MAKE2D$VISIBLE$LINES
 10
689.891717316807
 20
512.2457522285167
 30
0.0
 11
686.511359499541
 21
512.3478953862206
 31
0.0
  0
LINE
  5
F4
  8
MAKE2D$VISIBLE$LINES
 10
686.511359499541
 20
512.3478953862206
 30
0.0
 11
683.2418330861196
 21
512.5181339823937
 31
0.0
  0
LINE
  5
F5
  8
MAKE2D$VISIBLE$LINES
 10
683.2418330861196
 20
512.5181339823937
 30
0.0
 11
680.0831380765432
 21
512.7564680170361
 31
0.0
  0
LINE
  5
F6
  8
MAKE2D$VISIBLE$LINES
 10
680.0831380765432
 20
512.7564680170361
 30
0.0
 11
677.0352744708115
 21
513.0628974901479
 31
0.0
  0
LINE
  5
F7
  8
MAKE2D$VISIBLE$LINES
 10
677.0352744708115
 20
513.0628974901479
 30
0.0
 11
674.0982422689245
 21
513.4374224017288
 31
0.0
  0
LINE
  5
F8
  8
MAKE2D$VISIBLE$LINES
 10
674.0982422689245
 20
513.4374224017288
 30
0.0
 11
671.2720414708824
 21
513.8800427517789
 31
0.0
  0
LINE
  5
F9
  8
MAKE2D$VISIBLE$LINES
 10
671.2720414708824
 20
513.8800427517789
 30
0.0
 11
668.5566720766851
 21
514.3907585402983
 31
0.0
  0
LINE
  5
FA
  8
MAKE2D$VISIBLE$LINES
 10
668.5566720766851
 20
514.3907585402983
 30
0.0
 11
665.9521340863325
 21
514.9695697672869
 31
0.0
  0
LINE
  5
FB
  8
MAKE2D$VISIBLE$LINES
 10
665.9521340863325
 20
514.9695697672869
 30
0.0
 11
664.6914268675981
 21
515.2845111702072
 31
0.0
  0
LINE
  5
FC
  8
MAKE2D$VISIBLE$LINES
 10
664.6914268675981
 20
515.2845111702072
 30
0.0
 11
663.4584274998249
 21
515.6164764327449
 31
0.0
  0
LINE
  5
FD
  8
MAKE2D$VISIBLE$LINES
 10
663.4584274998249
 20
515.6164764327449
 30
0.0
 11
662.2531359830127
 21
515.9654655548998
 31
0.0
  0
LINE
  5
FE
  8
MAKE2D$VISIBLE$LINES
 10
662.2531359830127
 20
515.9654655548998
 30
0.0
 11
661.0755523171619
 21
516.331478536672
 31
0.0
  0
LINE
  5
FF
  8
MAKE2D$VISIBLE$LINES
 10
661.0755523171619
 20
516.331478536672
 30
0.0
 11
659.9256765022722
 21
516.7145153780616
 31
0.0
  0
LINE
  5
100
  8
MAKE2D$VISIBLE$LINES
 10
659.9256765022722
 20
516.7145153780616
 30
0.0
 11
658.8035085383437
 21
517.1145760790685
 31
0.0
  0
LINE
  5
101
  8
MAKE2D$VISIBLE$LINES
 10
658.8035085383437
 20
517.1145760790685
 30
0.0
 11
657.7090484253765
 21
517.5316606396927
 31
0.0
  0
LINE
  5
102
  8
MAKE2D$VISIBLE$LINES
 10
657.7090484253765
 20
517.5316606396927
 30
0.0
 11
656.6422961633705
 21
517.9657690599341
 31
0.0
  0
LINE
  5
103
  8
MAKE2D$VISIBLE$LINES
 10
656.6422961633705
 20
517.9657690599341
 30
0.0
 11
655.6032517523256
 21
518.416901339793
 31
0.0
  0
LINE
  5
104
  8
MAKE2D$VISIBLE$LINES
 10
655.6032517523256
 20
518.416901339793
 30
0.0
 11
654.5919151922419
 21
518.8850574792691
 31
0.0
  0
LINE
  5
105
  8
MAKE2D$VISIBLE$LINES
 10
654.5919151922419
 20
518.8850574792691
 30
0.0
 11
653.6082864831194
 21
519.3702374783625
 31
0.0
  0
LINE
  5
106
  8
MAKE2D$VISIBLE$LINES
 10
653.6082864831194
 20
519.3702374783625
 30
0.0
 11
652.6523656249581
 21
519.8724413370733
 31
0.0
  0
LINE
  5
107
  8
MAKE2D$VISIBLE$LINES
 10
652.6523656249581
 20
519.8724413370733
 30
0.0
 11
651.7241526177579
 21
520.3916690554014
 31
0.0
  0
LINE
  5
108
  8
MAKE2D$VISIBLE$LINES
 10
651.7241526177579
 20
520.3916690554014
 30
0.0
 11
650.823647461519
 21
520.9279206333467
 31
0.0
  0
LINE
  5
109
  8
MAKE2D$VISIBLE$LINES
 10
650.823647461519
 20
520.9279206333467
 30
0.0
 11
649.9508501562414
 21
521.4811960709094
 31
0.0
  0
LINE
  5
10A
  8
MAKE2D$VISIBLE$LINES
 10
649.9508501562414
 20
521.4811960709094
 30
0.0
 11
649.1057607019249
 21
522.0514953680895
 31
0.0
  0
LINE
  5
10B
  8
MAKE2D$VISIBLE$LINES
 10
649.1057607019249
 20
522.0514953680895
 30
0.0
 11
648.2883790985695
 21
522.6388185248868
 31
0.0
  0
LINE
  5
10C
  8
MAKE2D$VISIBLE$LINES
 10
648.2883790985695
 20
522.6388185248868
 30
0.0
 11
647.4987053461754
 21
523.2431655413014
 31
0.0
  0
LINE
  5
10D
  8
MAKE2D$VISIBLE$LINES
 10
647.4987053461754
 20
523.2431655413014
 30
0.0
 11
646.7367394447424
 21
523.8645364173335
 31
0.0
  0
LINE
  5
10E
  8
MAKE2D$VISIBLE$LINES
 10
646.7367394447424
 20
523.8645364173335
 30
0.0
 11
646.0024813942707
 21
524.5029311529827
 31
0.0
  0
LINE
  5
10F
  8
MAKE2D$VISIBLE$LINES
 10
646.0024813942707
 20
524.5029311529827
 30
0.0
 11
645.2959311947602
 21
525.1583497482493
 31
0.0
  0
LINE
  5
110
  8
MAKE2D$VISIBLE$LINES
 10
645.2959311947602
 20
525.1583497482493
 30
0.0
 11
644.6170888462109
 21
525.8307922031331
 31
0.0
  0
LINE
  5
111
  8
MAKE2D$VISIBLE$LINES
 10
644.6170888462109
 20
525.8307922031331
 30
0.0
 11
643.9659543486227
 21
526.5202585176344
 31
0.0
  0
LINE
  5
112
  8
MAKE2D$VISIBLE$LINES
 10
643.9659543486227
 20
526.5202585176344
 30
0.0
 11
643.3425277019958
 21
527.2267486917528
 31
0.0
  0
LINE
  5
113
  8
MAKE2D$VISIBLE$LINES
 10
643.3425277019958
 20
527.2267486917528
 30
0.0
 11
642.7468089063301
 21
527.9502627254888
 31
0.0
  0
LINE
  5
114
  8
MAKE2D$VISIBLE$LINES
 10
642.7468089063301
 20
527.9502627254888
 30
0.0
 11
642.1787979616256
 21
528.6908006188419
 31
0.0
  0
LINE
  5
115
  8
MAKE2D$VISIBLE$LINES
 10
642.1787979616256
 20
528.6908006188419
 30
0.0
 11
641.6384948678822
 21
529.4483623718123
 31
0.0
  0
LINE
  5
116
  8
MAKE2D$VISIBLE$LINES
 10
641.6384948678822
 20
529.4483623718123
 30
0.0
 11
641.378733765121
 21
529.833527195654
 31
0.0
  0
LINE
  5
117
  8
MAKE2D$VISIBLE$LINES
 10
641.378733765121
 20
529.833527195654
 30
0.0
 11
641.1258996251
 21
530.2229479844001
 31
0.0
  0
LINE
  5
118
  8
MAKE2D$VISIBLE$LINES
 10
641.1258996251
 20
530.2229479844001
 30
0.0
 11
640.8799924478194
 21
530.6166247380504
 31
0.0
  0
LINE
  5
119
  8
MAKE2D$VISIBLE$LINES
 10
640.8799924478194
 20
530.6166247380504
 30
0.0
 11
640.6410122332791
 21
531.0145574566052
 31
0.0
  0
LINE
  5
11A
  8
MAKE2D$VISIBLE$LINES
 10
640.6410122332791
 20
531.0145574566052
 30
0.0
 11
640.408958981479
 21
531.4167461400642
 31
0.0
  0
LINE
  5
11B
  8
MAKE2D$VISIBLE$LINES
 10
640.408958981479
 20
531.4167461400642
 30
0.0
 11
640.1838326924194
 21
531.8231907884276
 31
0.0
  0
LINE
  5
11C
  8
MAKE2D$VISIBLE$LINES
 10
640.1838326924194
 20
531.8231907884276
 30
0.0
 11
639.7543610025209
 21
532.6488479798674
 31
0.0
  0
LINE
  5
11D
  8
MAKE2D$VISIBLE$LINES
 10
639.7543610025209
 20
532.6488479798674
 30
0.0
 11
639.3525971635836
 21
533.4915290309243
 31
0.0
  0
LINE
  5
11E
  8
MAKE2D$VISIBLE$LINES
 10
639.3525971635836
 20
533.4915290309243
 30
0.0
 11
638.9785411756075
 21
534.3512339415986
 31
0.0
  0
LINE
  5
11F
  8
MAKE2D$VISIBLE$LINES
 10
638.9785411756075
 20
534.3512339415986
 30
0.0
 11
638.6321930385925
 21
535.2279627118903
 31
0.0
  0
LINE
  5
120
  8
MAKE2D$VISIBLE$LINES
 10
638.6321930385925
 20
535.2279627118903
 30
0.0
 11
638.3135527525387
 21
536.1217153417994
 31
0.0
  0
LINE
  5
121
  8
MAKE2D$VISIBLE$LINES
 10
638.3135527525387
 20
536.1217153417994
 30
0.0
 11
638.0226203174461
 21
537.0324918313256
 31
0.0
  0
LINE
  5
122
  8
MAKE2D$VISIBLE$LINES
 10
638.0226203174461
 20
537.0324918313256
 30
0.0
 11
637.7593957333147
 21
537.9602921804692
 31
0.0
  0
LINE
  5
123
  8
MAKE2D$VISIBLE$LINES
 10
637.7593957333147
 20
537.9602921804692
 30
0.0
 11
637.5238790001446
 21
538.9051163892301
 31
0.0
  0
LINE
  5
124
  8
MAKE2D$VISIBLE$LINES
 10
637.5238790001446
 20
538.9051163892301
 30
0.0
 11
637.3160701179356
 21
539.8669644576083
 31
0.0
  0
LINE
  5
125
  8
MAKE2D$VISIBLE$LINES
 10
637.3160701179356
 20
539.8669644576083
 30
0.0
 11
637.1359690866879
 21
540.8458363856039
 31
0.0
  0
LINE
  5
126
  8
MAKE2D$VISIBLE$LINES
 10
637.1359690866879
 20
540.8458363856039
 30
0.0
 11
636.9835759064013
 21
541.8417321732168
 31
0.0
  0
LINE
  5
127
  8
MAKE2D$VISIBLE$LINES
 10
636.9835759064013
 20
541.8417321732168
 30
0.0
 11
636.8588905770758
 21
542.8546518204469
 31
0.0
  0
LINE
  5
128
  8
MAKE2D$VISIBLE$LINES
 10
636.8588905770758
 20
542.8546518204469
 30
0.0
 11
636.7619130987116
 21
543.8845953272944
 31
0.0
  0
LINE
  5
129
  8
MAKE2D$VISIBLE$LINES
 10
636.7619130987116
 20
543.8845953272944
 30
0.0
 11
636.6926434713087
 21
544.9315626937591
 31
0.0
  0
LINE
  5
12A
  8
MAKE2D$VISIBLE$LINES
 10
636.6926434713087
 20
544.9315626937591
 30
0.0
 11
636.6510816948669
 21
545.9955539198413
 31
0.0
  0
LINE
  5
12B
  8
MAKE2D$VISIBLE$LINES
 10
636.6510816948669
 20
545.9955539198413
 30
0.0
 11
636.6372277693863
 21
547.0765690055407
 31
0.0
  0
CIRCLE
  5
12C
  8
MAKE2D$VISIBLE$LINES
 10
723.5367679424387
 20
539.7426699254297
 30
0.0
 40
1.777999999999973
  0
CIRCLE
  5
12D
  8
MAKE2D$VISIBLE$LINES
 10
644.1367679423472
 20
601.0426699253803
 30
0.0
 40
1.777999999999973
  0
LINE
  5
12E
  8
MAKE2D$VISIBLE$LINES
 10
747.2010810513548
 20
659.2124336113428
 30
0.0
 11
747.2010810513548
 21
629.3124336113428
 31
0.0
  0
LINE
  5
12F
  8
MAKE2D$VISIBLE$LINES
 10
747.2010810513548
 20
629.3124336113428
 30
0.0
 11
750.0010810513547
 21
629.3124336113428
 31
0.0
  0
LINE
  5
130
  8
MAKE2D$VISIBLE$LINES
 10
750.0010810513547
 20
629.3124336113428
 30
0.0
 11
750.0010810513547
 21
689.1124336113428
 31
0.0
  0
LINE
  5
131
  8
MAKE2D$VISIBLE$LINES
 10
750.0010810513547
 20
689.1124336113428
 30
0.0
 11
747.2010810513548
 21
689.1124336113428
 31
0.0
  0
LINE
  5
132
  8
MAKE2D$VISIBLE$LINES
 10
747.2010810513548
 20
689.1124336113428
 30
0.0
 11
747.2010810513548
 21
659.2124336113428
 31
0.0
  0
ARC
  5
133
  8
MAKE2D$VISIBLE$LINES
 10
674.3687741579276
 20
690.9359465863972
 30
0.0
 40
9.999999999999659
 50
179.999999999998
 51
270.0000000000039
  0
LINE
  5
134
  8
MAKE2D$VISIBLE$LINES
 10
700.101081051355
 20
680.9359465863978
 30
0.0
 11
674.3687741579283
 21
680.935946586398
 31
0.0
  0
LINE
  5
135
  8
MAKE2D$VISIBLE$LINES
 10
664.368774157928
 20
695.9356692875698
 30
0.0
 11
664.368774157928
 21
690.9359465863976
 31
0.0
  0
ARC
  5
136
  8
MAKE2D$VISIBLE$LINES
 10
684.3687741579278
 20
695.9356692875698
 30
0.0
 40
19.99999999999977
 50
89.99978166074453
 51
180.0
  0
LINE
  5
137
  8
MAKE2D$VISIBLE$LINES
 10
732.2671819712097
 20
715.9354867593898
 30
0.0
 11
684.3688503727057
 21
715.9356692874243
 31
0.0
  0
CIRCLE
  5
138
  8
MAKE2D$VISIBLE$LINES
 10
693.827122298499
 20
691.4359865935239
 30
0.0
 40
7.500000000000114
  0
LINE
  5
139
  8
MAKE2D$VISIBLE$LINES
 10
750.101081051355
 20
590.005600201336
 30
0.0
 11
720.1010810513549
 21
590.0056002013363
 31
0.0
  0
LINE
  5
13A
  8
MAKE2D$VISIBLE$LINES
 10
720.1010810513549
 20
590.0056002013363
 30
0.0
 11
719.6561293824144
 21
590.0125027651268
 31
0.0
  0
LINE
  5
13B
  8
MAKE2D$VISIBLE$LINES
 10
719.6561293824144
 20
590.0125027651268
 30
0.0
 11
719.2058350950377
 21
590.0336924580571
 31
0.0
  0
LINE
  5
13C
  8
MAKE2D$VISIBLE$LINES
 10
719.2058350950377
 20
590.0336924580571
 30
0.0
 11
718.7512926884349
 21
590.0698651515121
 31
0.0
  0
LINE
  5
13D
  8
MAKE2D$VISIBLE$LINES
 10
718.7512926884349
 20
590.0698651515121
 30
0.0
 11
718.2936997725542
 21
590.1216722345512
 31
0.0
  0
LINE
  5
13E
  8
MAKE2D$VISIBLE$LINES
 10
718.2936997725542
 20
590.1216722345512
 30
0.0
 11
717.8343533544594
 21
590.1897099188141
 31
0.0
  0
LINE
  5
13F
  8
MAKE2D$VISIBLE$LINES
 10
717.8343533544594
 20
590.1897099188141
 30
0.0
 11
717.6044537191156
 21
590.2299837832367
 31
0.0
  0
LINE
  5
140
  8
MAKE2D$VISIBLE$LINES
 10
717.6044537191156
 20
590.2299837832367
 30
0.0
 11
717.3746441545643
 21
590.2745083385474
 31
0.0
  0
LINE
  5
141
  8
MAKE2D$VISIBLE$LINES
 10
717.3746441545643
 20
590.2745083385474
 30
0.0
 11
717.1451118714505
 21
590.3233377409963
 31
0.0
  0
LINE
  5
142
  8
MAKE2D$VISIBLE$LINES
 10
717.1451118714505
 20
590.3233377409963
 30
0.0
 11
716.9160488522352
 21
590.3765206695797
 31
0.0
  0
LINE
  5
143
  8
MAKE2D$VISIBLE$LINES
 10
716.9160488522352
 20
590.3765206695797
 30
0.0
 11
716.6876514926965
 21
590.4341000050526
 31
0.0
  0
LINE
  5
144
  8
MAKE2D$VISIBLE$LINES
 10
716.6876514926965
 20
590.4341000050526
 30
0.0
 11
716.4601202106957
 21
590.4961125196961
 31
0.0
  0
LINE
  5
145
  8
MAKE2D$VISIBLE$LINES
 10
716.4601202106957
 20
590.4961125196961
 30
0.0
 11
716.2336590229474
 21
590.562588580136
 31
0.0
  0
LINE
  5
146
  8
MAKE2D$VISIBLE$LINES
 10
716.2336590229474
 20
590.562588580136
 30
0.0
 11
716.0084750908059
 21
590.6335518655313
 31
0.0
  0
LINE
  5
147
  8
MAKE2D$VISIBLE$LINES
 10
716.0084750908059
 20
590.6335518655313
 30
0.0
 11
715.7847782363817
 21
590.7090191034509
 31
0.0
  0
LINE
  5
148
  8
MAKE2D$VISIBLE$LINES
 10
715.7847782363817
 20
590.7090191034509
 30
0.0
 11
715.5627804305965
 21
590.7889998257245
 31
0.0
  0
LINE
  5
149
  8
MAKE2D$VISIBLE$LINES
 10
715.5627804305965
 20
590.7889998257245
 30
0.0
 11
715.3426952550781
 21
590.8734961465128
 31
0.0
  0
LINE
  5
14A
  8
MAKE2D$VISIBLE$LINES
 10
715.3426952550781
 20
590.8734961465128
 30
0.0
 11
715.1247373400965
 21
590.962502564759
 31
0.0
  0
LINE
  5
14B
  8
MAKE2D$VISIBLE$LINES
 10
715.1247373400965
 20
590.962502564759
 30
0.0
 11
714.9091217810156
 21
591.0560057930836
 31
0.0
  0
LINE
  5
14C
  8
MAKE2D$VISIBLE$LINES
 10
714.9091217810156
 20
591.0560057930836
 30
0.0
 11
714.6960635360168
 21
591.1539846150612
 31
0.0
  0
LINE
  5
14D
  8
MAKE2D$VISIBLE$LINES
 10
714.6960635360168
 20
591.1539846150612
 30
0.0
 11
714.4857768081018
 21
591.256409772658
 31
0.0
  0
LINE
  5
14E
  8
MAKE2D$VISIBLE$LINES
 10
714.4857768081018
 20
591.256409772658
 30
0.0
 11
714.2784744146179
 21
591.3632438854391
 31
0.0
  0
LINE
  5
14F
  8
MAKE2D$VISIBLE$LINES
 10
714.2784744146179
 20
591.3632438854391
 30
0.0
 11
714.0743671477601
 21
591.4744414029439
 31
0.0
  0
LINE
  5
150
  8
MAKE2D$VISIBLE$LINES
 10
714.0743671477601
 20
591.4744414029439
 30
0.0
 11
713.8736631296874
 21
591.5899485914134
 31
0.0
  0
LINE
  5
151
  8
MAKE2D$VISIBLE$LINES
 10
713.8736631296874
 20
591.5899485914134
 30
0.0
 11
713.6765671660427
 21
591.7097035558016
 31
0.0
  0
LINE
  5
152
  8
MAKE2D$VISIBLE$LINES
 10
713.6765671660427
 20
591.7097035558016
 30
0.0
 11
713.4832801017815
 21
591.8336362977489
 31
0.0
  0
LINE
  5
153
  8
MAKE2D$VISIBLE$LINES
 10
713.4832801017815
 20
591.8336362977489
 30
0.0
 11
713.2939981832947
 21
591.9616688099115
 31
0.0
  0
LINE
  5
154
  8
MAKE2D$VISIBLE$LINES
 10
713.2939981832947
 20
591.9616688099115
 30
0.0
 11
713.1089124308477
 21
592.0937152067631
 31
0.0
  0
LINE
  5
155
  8
MAKE2D$VISIBLE$LINES
 10
713.1089124308477
 20
592.0937152067631
 30
0.0
 11
712.9282080253604
 21
592.2296818916773
 31
0.0
  0
LINE
  5
156
  8
MAKE2D$VISIBLE$LINES
 10
712.9282080253604
 20
592.2296818916773
 30
0.0
 11
712.7520637135055
 21
592.3694677598121
 31
0.0
  0
LINE
  5
157
  8
MAKE2D$VISIBLE$LINES
 10
712.7520637135055
 20
592.3694677598121
 30
0.0
 11
712.5806512350142
 21
592.512964436003
 31
0.0
  0
LINE
  5
158
  8
MAKE2D$VISIBLE$LINES
 10
712.5806512350142
 20
592.512964436003
 30
0.0
 11
712.4141347759531
 21
592.6600565465861
 31
0.0
  0
LINE
  5
159
  8
MAKE2D$VISIBLE$LINES
 10
712.4141347759531
 20
592.6600565465861
 30
0.0
 11
712.2526704515636
 21
592.8106220237739
 31
0.0
  0
LINE
  5
15A
  8
MAKE2D$VISIBLE$LINES
 10
712.2526704515636
 20
592.8106220237739
 30
0.0
 11
712.0964058220404
 21
592.9645324409295
 31
0.0
  0
LINE
  5
15B
  8
MAKE2D$VISIBLE$LINES
 10
712.0964058220404
 20
592.9645324409295
 30
0.0
 11
711.9454794443842
 21
593.1216533768235
 31
0.0
  0
LINE
  5
15C
  8
MAKE2D$VISIBLE$LINES
 10
711.9454794443842
 20
593.1216533768235
 30
0.0
 11
711.8000204631765
 21
593.2818448067084
 31
0.0
  0
LINE
  5
15D
  8
MAKE2D$VISIBLE$LINES
 10
711.8000204631765
 20
593.2818448067084
 30
0.0
 11
711.6601482428113
 21
593.4449615178221
 31
0.0
  0
LINE
  5
15E
  8
MAKE2D$VISIBLE$LINES
 10
711.6601482428113
 20
593.4449615178221
 30
0.0
 11
711.5259720433814
 21
593.6108535467408
 31
0.0
  0
LINE
  5
15F
  8
MAKE2D$VISIBLE$LINES
 10
711.5259720433814
 20
593.6108535467408
 30
0.0
 11
711.3975907420481
 21
593.7793666358162
 31
0.0
  0
LINE
  5
160
  8
MAKE2D$VISIBLE$LINES
 10
711.3975907420481
 20
593.7793666358162
 30
0.0
 11
711.2750926013473
 21
593.9503427058061
 31
0.0
  0
LINE
  5
161
  8
MAKE2D$VISIBLE$LINES
 10
711.2750926013473
 20
593.9503427058061
 30
0.0
 11
711.1585550854927
 21
594.1236203416845
 31
0.0
  0
LINE
  5
162
  8
MAKE2D$VISIBLE$LINES
 10
711.1585550854927
 20
594.1236203416845
 30
0.0
 11
711.0480447253323
 21
594.2990352885522
 31
0.0
  0
LINE
  5
163
  8
MAKE2D$VISIBLE$LINES
 10
711.0480447253323
 20
594.2990352885522
 30
0.0
 11
710.9436170322143
 21
594.4764209545094
 31
0.0
  0
LINE
  5
164
  8
MAKE2D$VISIBLE$LINES
 10
710.9436170322143
 20
594.4764209545094
 30
0.0
 11
710.8453164606229
 21
594.6556089173563
 31
0.0
  0
LINE
  5
165
  8
MAKE2D$VISIBLE$LINES
 10
710.8453164606229
 20
594.6556089173563
 30
0.0
 11
710.7531764190469
 21
594.8364294319966
 31
0.0
  0
LINE
  5
166
  8
MAKE2D$VISIBLE$LINES
 10
710.7531764190469
 20
594.8364294319966
 30
0.0
 11
710.6672193281761
 21
595.0187119354802
 31
0.0
  0
LINE
  5
167
  8
MAKE2D$VISIBLE$LINES
 10
710.6672193281761
 20
595.0187119354802
 30
0.0
 11
710.5874567251522
 21
595.2022855466984
 31
0.0
  0
LINE
  5
168
  8
MAKE2D$VISIBLE$LINES
 10
710.5874567251522
 20
595.2022855466984
 30
0.0
 11
710.5138894122696
 21
595.3869795578644
 31
0.0
  0
LINE
  5
169
  8
MAKE2D$VISIBLE$LINES
 10
710.5138894122696
 20
595.3869795578644
 30
0.0
 11
710.4465076482073
 21
595.5726239150415
 31
0.0
  0
LINE
  5
16A
  8
MAKE2D$VISIBLE$LINES
 10
710.4465076482073
 20
595.5726239150415
 30
0.0
 11
710.385291379592
 21
595.7590496851526
 31
0.0
  0
LINE
  5
16B
  8
MAKE2D$VISIBLE$LINES
 10
710.385291379592
 20
595.7590496851526
 30
0.0
 11
710.3302105104348
 21
595.9460895070767
 31
0.0
  0
LINE
  5
16C
  8
MAKE2D$VISIBLE$LINES
 10
710.3302105104348
 20
595.9460895070767
 30
0.0
 11
710.2812252067774
 21
596.1335780246498
 31
0.0
  0
LINE
  5
16D
  8
MAKE2D$VISIBLE$LINES
 10
710.2812252067774
 20
596.1335780246498
 30
0.0
 11
710.2382862336875
 21
596.3213522995933
 31
0.0
  0
LINE
  5
16E
  8
MAKE2D$VISIBLE$LINES
 10
710.2382862336875
 20
596.3213522995933
 30
0.0
 11
710.2013353216018
 21
596.5092522026238
 31
0.0
  0
LINE
  5
16F
  8
MAKE2D$VISIBLE$LINES
 10
710.2013353216018
 20
596.5092522026238
 30
0.0
 11
710.1703055589036
 21
596.6971207812311
 31
0.0
  0
LINE
  5
170
  8
MAKE2D$VISIBLE$LINES
 10
710.1703055589036
 20
596.6971207812311
 30
0.0
 11
710.1451218075416
 21
596.884804602851
 31
0.0
  0
LINE
  5
171
  8
MAKE2D$VISIBLE$LINES
 10
710.1451218075416
 20
596.884804602851
 30
0.0
 11
710.1257011384579
 21
597.0721540723949
 31
0.0
  0
LINE
  5
172
  8
MAKE2D$VISIBLE$LINES
 10
710.1257011384579
 20
597.0721540723949
 30
0.0
 11
710.1119532835826
 21
597.2590237233476
 31
0.0
  0
LINE
  5
173
  8
MAKE2D$VISIBLE$LINES
 10
710.1119532835826
 20
597.2590237233476
 30
0.0
 11
710.1037811011763
 21
597.4452724818651
 31
0.0
  0
LINE
  5
174
  8
MAKE2D$VISIBLE$LINES
 10
710.1037811011763
 20
597.4452724818651
 30
0.0
 11
710.101081051355
 21
597.6307639035447
 31
0.0
  0
LINE
  5
175
  8
MAKE2D$VISIBLE$LINES
 10
750.101081051355
 20
590.005600201336
 30
0.0
 11
750.3661503983466
 21
590.0098228702684
 31
0.0
  0
LINE
  5
176
  8
MAKE2D$VISIBLE$LINES
 10
750.3661503983466
 20
590.0098228702684
 30
0.0
 11
750.6291407700676
 21
590.0224908770658
 31
0.0
  0
LINE
  5
177
  8
MAKE2D$VISIBLE$LINES
 10
750.6291407700676
 20
590.0224908770658
 30
0.0
 11
750.890052166518
 21
590.0436042217282
 31
0.0
  0
LINE
  5
178
  8
MAKE2D$VISIBLE$LINES
 10
750.890052166518
 20
590.0436042217282
 30
0.0
 11
751.1488845876979
 21
590.0731629042554
 31
0.0
  0
LINE
  5
179
  8
MAKE2D$VISIBLE$LINES
 10
751.1488845876979
 20
590.0731629042554
 30
0.0
 11
751.4056380336073
 21
590.1111669246475
 31
0.0
  0
LINE
  5
17A
  8
MAKE2D$VISIBLE$LINES
 10
751.4056380336073
 20
590.1111669246475
 30
0.0
 11
751.6603125042461
 21
590.1576162829047
 31
0.0
  0
LINE
  5
17B
  8
MAKE2D$VISIBLE$LINES
 10
751.6603125042461
 20
590.1576162829047
 30
0.0
 11
751.9129079996145
 21
590.2125109790268
 31
0.0
  0
LINE
  5
17C
  8
MAKE2D$VISIBLE$LINES
 10
751.9129079996145
 20
590.2125109790268
 30
0.0
 11
752.1634245197124
 21
590.2758510130137
 31
0.0
  0
LINE
  5
17D
  8
MAKE2D$VISIBLE$LINES
 10
752.1634245197124
 20
590.2758510130137
 30
0.0
 11
752.4118620645397
 21
590.3476363848656
 31
0.0
  0
LINE
  5
17E
  8
MAKE2D$VISIBLE$LINES
 10
752.4118620645397
 20
590.3476363848656
 30
0.0
 11
752.6582206340966
 21
590.4278670945826
 31
0.0
  0
LINE
  5
17F
  8
MAKE2D$VISIBLE$LINES
 10
752.6582206340966
 20
590.4278670945826
 30
0.0
 11
752.9025002283828
 21
590.5165431421643
 31
0.0
  0
LINE
  5
180
  8
MAKE2D$VISIBLE$LINES
 10
752.9025002283828
 20
590.5165431421643
 30
0.0
 11
753.1447008473986
 21
590.613664527611
 31
0.0
  0
LINE
  5
181
  8
MAKE2D$VISIBLE$LINES
 10
753.1447008473986
 20
590.613664527611
 30
0.0
 11
753.3848224911438
 21
590.7192312509227
 31
0.0
  0
LINE
  5
182
  8
MAKE2D$VISIBLE$LINES
 10
753.3848224911438
 20
590.7192312509227
 30
0.0
 11
753.6228651596185
 21
590.8332433120993
 31
0.0
  0
LINE
  5
183
  8
MAKE2D$VISIBLE$LINES
 10
753.6228651596185
 20
590.8332433120993
 30
0.0
 11
753.8588288528227
 21
590.9557007111407
 31
0.0
  0
LINE
  5
184
  8
MAKE2D$VISIBLE$LINES
 10
753.8588288528227
 20
590.9557007111407
 30
0.0
 11
754.0927135707565
 21
591.0866034480472
 31
0.0
  0
LINE
  5
185
  8
MAKE2D$VISIBLE$LINES
 10
754.0927135707565
 20
591.0866034480472
 30
0.0
 11
754.3245193134196
 21
591.2259515228186
 31
0.0
  0
LINE
  5
186
  8
MAKE2D$VISIBLE$LINES
 10
754.3245193134196
 20
591.2259515228186
 30
0.0
 11
754.5542460808124
 21
591.3737449354549
 31
0.0
  0
LINE
  5
187
  8
MAKE2D$VISIBLE$LINES
 10
754.5542460808124
 20
591.3737449354549
 30
0.0
 11
754.7818938729345
 21
591.529983685956
 31
0.0
  0
LINE
  5
188
  8
MAKE2D$VISIBLE$LINES
 10
754.7818938729345
 20
591.529983685956
 30
0.0
 11
755.007462689786
 21
591.6946677743223
 31
0.0
  0
LINE
  5
189
  8
MAKE2D$VISIBLE$LINES
 10
755.007462689786
 20
591.6946677743223
 30
0.0
 11
755.230952531367
 21
591.8677972005535
 31
0.0
  0
LINE
  5
18A
  8
MAKE2D$VISIBLE$LINES
 10
755.230952531367
 20
591.8677972005535
 30
0.0
 11
755.4523633976776
 21
592.0493719646495
 31
0.0
  0
LINE
  5
18B
  8
MAKE2D$VISIBLE$LINES
 10
755.4523633976776
 20
592.0493719646495
 30
0.0
 11
755.6716952887176
 21
592.2393920666104
 31
0.0
  0
LINE
  5
18C
  8
MAKE2D$VISIBLE$LINES
 10
755.6716952887176
 20
592.2393920666104
 30
0.0
 11
755.8889482044872
 21
592.4378575064363
 31
0.0
  0
LINE
  5
18D
  8
MAKE2D$VISIBLE$LINES
 10
755.8889482044872
 20
592.4378575064363
 30
0.0
 11
756.1041221449861
 21
592.6447682841272
 31
0.0
  0
LINE
  5
18E
  8
MAKE2D$VISIBLE$LINES
 10
756.1041221449861
 20
592.6447682841272
 30
0.0
 11
756.3172171102146
 21
592.860124399683
 31
0.0
  0
LINE
  5
18F
  8
MAKE2D$VISIBLE$LINES
 10
756.3172171102146
 20
592.860124399683
 30
0.0
 11
756.5282331001725
 21
593.0839258531037
 31
0.0
  0
LINE
  5
190
  8
MAKE2D$VISIBLE$LINES
 10
756.5282331001725
 20
593.0839258531037
 30
0.0
 11
756.73717011486
 21
593.3161726443892
 31
0.0
  0
LINE
  5
191
  8
MAKE2D$VISIBLE$LINES
 10
756.73717011486
 20
593.3161726443892
 30
0.0
 11
756.9440281542768
 21
593.5568647735397
 31
0.0
  0
LINE
  5
192
  8
MAKE2D$VISIBLE$LINES
 10
756.9440281542768
 20
593.5568647735397
 30
0.0
 11
757.1488072184233
 21
593.8060022405552
 31
0.0
  0
LINE
  5
193
  8
MAKE2D$VISIBLE$LINES
 10
757.1488072184233
 20
593.8060022405552
 30
0.0
 11
757.3515073072991
 21
594.0635850454357
 31
0.0
  0
LINE
  5
194
  8
MAKE2D$VISIBLE$LINES
 10
757.3515073072991
 20
594.0635850454357
 30
0.0
 11
757.5521284209045
 21
594.329613188181
 31
0.0
  0
LINE
  5
195
  8
MAKE2D$VISIBLE$LINES
 10
757.5521284209045
 20
594.329613188181
 30
0.0
 11
757.7506705592394
 21
594.6040866687913
 31
0.0
  0
LINE
  5
196
  8
MAKE2D$VISIBLE$LINES
 10
757.7506705592394
 20
594.6040866687913
 30
0.0
 11
757.9471337223038
 21
594.8870054872666
 31
0.0
  0
LINE
  5
197
  8
MAKE2D$VISIBLE$LINES
 10
757.9471337223038
 20
594.8870054872666
 30
0.0
 11
758.1415179100975
 21
595.1783696436067
 31
0.0
  0
LINE
  5
198
  8
MAKE2D$VISIBLE$LINES
 10
758.1415179100975
 20
595.1783696436067
 30
0.0
 11
758.3338231226207
 21
595.4781791378118
 31
0.0
  0
LINE
  5
199
  8
MAKE2D$VISIBLE$LINES
 10
758.3338231226207
 20
595.4781791378118
 30
0.0
 11
758.7121966218556
 21
596.1031341398168
 31
0.0
  0
LINE
  5
19A
  8
MAKE2D$VISIBLE$LINES
 10
758.7121966218556
 20
596.1031341398168
 30
0.0
 11
759.0822542200085
 21
596.7618704932814
 31
0.0
  0
LINE
  5
19B
  8
MAKE2D$VISIBLE$LINES
 10
759.0822542200085
 20
596.7618704932814
 30
0.0
 11
759.4439959170793
 21
597.4543881982058
 31
0.0
  0
LINE
  5
19C
  8
MAKE2D$VISIBLE$LINES
 10
759.4439959170793
 20
597.4543881982058
 30
0.0
 11
759.7974217130679
 21
598.18068725459
 31
0.0
  0
LINE
  5
19D
  8
MAKE2D$VISIBLE$LINES
 10
759.7974217130679
 20
598.18068725459
 30
0.0
 11
760.1425316079745
 21
598.9407676624339
 31
0.0
  0
LINE
  5
19E
  8
MAKE2D$VISIBLE$LINES
 10
760.1425316079745
 20
598.9407676624339
 30
0.0
 11
760.479325601799
 21
599.7346294217375
 31
0.0
  0
LINE
  5
19F
  8
MAKE2D$VISIBLE$LINES
 10
760.479325601799
 20
599.7346294217375
 30
0.0
 11
760.8078036945415
 21
600.5622725325009
 31
0.0
  0
LINE
  5
1A0
  8
MAKE2D$VISIBLE$LINES
 10
760.8078036945415
 20
600.5622725325009
 30
0.0
 11
761.1279658862018
 21
601.4236969947239
 31
0.0
  0
LINE
  5
1A1
  8
MAKE2D$VISIBLE$LINES
 10
761.1279658862018
 20
601.4236969947239
 30
0.0
 11
761.43981217678
 21
602.3189028084066
 31
0.0
  0
LINE
  5
1A2
  8
MAKE2D$VISIBLE$LINES
 10
761.43981217678
 20
602.3189028084066
 30
0.0
 11
761.7433425662762
 21
603.2478899735491
 31
0.0
  0
LINE
  5
1A3
  8
MAKE2D$VISIBLE$LINES
 10
761.7433425662762
 20
603.2478899735491
 30
0.0
 11
762.3254556420222
 21
605.2072083582134
 31
0.0
  0
LINE
  5
1A4
  8
MAKE2D$VISIBLE$LINES
 10
762.3254556420222
 20
605.2072083582134
 30
0.0
 11
762.87430511344
 21
607.3016521487164
 31
0.0
  0
LINE
  5
1A5
  8
MAKE2D$VISIBLE$LINES
 10
762.87430511344
 20
607.3016521487164
 30
0.0
 11
763.3898909805293
 21
609.5312213450585
 31
0.0
  0
LINE
  5
1A6
  8
MAKE2D$VISIBLE$LINES
 10
763.3898909805293
 20
609.5312213450585
 30
0.0
 11
763.8722132432904
 21
611.8959159472395
 31
0.0
  0
LINE
  5
1A7
  8
MAKE2D$VISIBLE$LINES
 10
763.8722132432904
 20
611.8959159472395
 30
0.0
 11
764.3212719017231
 21
614.3957359552593
 31
0.0
  0
LINE
  5
1A8
  8
MAKE2D$VISIBLE$LINES
 10
764.3212719017231
 20
614.3957359552593
 30
0.0
 11
764.7370669558275
 21
617.030681369118
 31
0.0
  0
LINE
  5
1A9
  8
MAKE2D$VISIBLE$LINES
 10
764.7370669558275
 20
617.030681369118
 30
0.0
 11
765.1195984056034
 21
619.8007521888157
 31
0.0
  0
LINE
  5
1AA
  8
MAKE2D$VISIBLE$LINES
 10
765.1195984056034
 20
619.8007521888157
 30
0.0
 11
765.468866251051
 21
622.7059484143523
 31
0.0
  0
LINE
  5
1AB
  8
MAKE2D$VISIBLE$LINES
 10
765.468866251051
 20
622.7059484143523
 30
0.0
 11
766.0676111289613
 21
628.9217170829422
 31
0.0
  0
LINE
  5
1AC
  8
MAKE2D$VISIBLE$LINES
 10
766.0676111289613
 20
628.9217170829422
 30
0.0
 11
766.533301589558
 21
635.6779873748878
 31
0.0
  0
LINE
  5
1AD
  8
MAKE2D$VISIBLE$LINES
 10
766.533301589558
 20
635.6779873748878
 30
0.0
 11
766.8659376328415
 21
642.974759290189
 31
0.0
  0
LINE
  5
1AE
  8
MAKE2D$VISIBLE$LINES
 10
766.8659376328415
 20
642.974759290189
 30
0.0
 11
767.0655192588115
 21
650.812032828846
 31
0.0
  0
LINE
  5
1AF
  8
MAKE2D$VISIBLE$LINES
 10
767.0655192588115
 20
650.812032828846
 30
0.0
 11
767.1320464674683
 21
659.1898079908584
 31
0.0
  0
ARC
  5
1B0
  8
MAKE2D$VISIBLE$LINES
 10
700.1010810513536
 20
670.9359465863965
 30
0.0
 40
10.00000000000125
 50
0.0000000000032569
 51
89.99999999999284
  0
LINE
  5
1B1
  8
MAKE2D$VISIBLE$LINES
 10
710.1010810513549
 20
597.6307639035448
 30
0.0
 11
710.1010810513549
 21
670.9359465863971
 31
0.0
  0
LINE
  5
1B2
  8
MAKE2D$VISIBLE$LINES
 10
767.1320464674683
 20
659.1898079908584
 30
0.0
 11
767.0979987482337
 21
662.6809972119693
 31
0.0
  0
LINE
  5
1B3
  8
MAKE2D$VISIBLE$LINES
 10
767.0979987482337
 20
662.6809972119693
 30
0.0
 11
766.9958555905298
 21
666.0613550292353
 31
0.0
  0
LINE
  5
1B4
  8
MAKE2D$VISIBLE$LINES
 10
766.9958555905298
 20
666.0613550292353
 30
0.0
 11
766.8256169943566
 21
669.3308814426566
 31
0.0
  0
LINE
  5
1B5
  8
MAKE2D$VISIBLE$LINES
 10
766.8256169943566
 20
669.3308814426566
 30
0.0
 11
766.5872829597142
 21
672.4895764522331
 31
0.0
  0
LINE
  5
1B6
  8
MAKE2D$VISIBLE$LINES
 10
766.5872829597142
 20
672.4895764522331
 30
0.0
 11
766.2808534866026
 21
675.5374400579648
 31
0.0
  0
LINE
  5
1B7
  8
MAKE2D$VISIBLE$LINES
 10
766.2808534866026
 20
675.5374400579648
 30
0.0
 11
765.9063285750217
 21
678.4744722598517
 31
0.0
  0
LINE
  5
1B8
  8
MAKE2D$VISIBLE$LINES
 10
765.9063285750217
 20
678.4744722598517
 30
0.0
 11
765.4637082249716
 21
681.3006730578938
 31
0.0
  0
LINE
  5
1B9
  8
MAKE2D$VISIBLE$LINES
 10
765.4637082249716
 20
681.3006730578938
 30
0.0
 11
764.9529924364522
 21
684.016042452091
 31
0.0
  0
LINE
  5
1BA
  8
MAKE2D$VISIBLE$LINES
 10
764.9529924364522
 20
684.016042452091
 30
0.0
 11
764.3741812094635
 21
686.6205804424435
 31
0.0
  0
LINE
  5
1BB
  8
MAKE2D$VISIBLE$LINES
 10
764.3741812094635
 20
686.6205804424435
 30
0.0
 11
764.059239806543
 21
687.8812876611779
 31
0.0
  0
LINE
  5
1BC
  8
MAKE2D$VISIBLE$LINES
 10
764.059239806543
 20
687.8812876611779
 30
0.0
 11
763.7272745440055
 21
689.1142870289511
 31
0.0
  0
LINE
  5
1BD
  8
MAKE2D$VISIBLE$LINES
 10
763.7272745440055
 20
689.1142870289511
 30
0.0
 11
763.3782854218505
 21
690.3195785457633
 31
0.0
  0
LINE
  5
1BE
  8
MAKE2D$VISIBLE$LINES
 10
763.3782854218505
 20
690.3195785457633
 30
0.0
 11
763.0122724400783
 21
691.4971622116142
 31
0.0
  0
LINE
  5
1BF
  8
MAKE2D$VISIBLE$LINES
 10
763.0122724400783
 20
691.4971622116142
 30
0.0
 11
762.6292355986888
 21
692.6470380265039
 31
0.0
  0
LINE
  5
1C0
  8
MAKE2D$VISIBLE$LINES
 10
762.6292355986888
 20
692.6470380265039
 30
0.0
 11
762.2291748976819
 21
693.7692059904323
 31
0.0
  0
LINE
  5
1C1
  8
MAKE2D$VISIBLE$LINES
 10
762.2291748976819
 20
693.7692059904323
 30
0.0
 11
761.8120903370577
 21
694.8636661033996
 31
0.0
  0
LINE
  5
1C2
  8
MAKE2D$VISIBLE$LINES
 10
761.8120903370577
 20
694.8636661033996
 30
0.0
 11
761.3779819168162
 21
695.9304183654058
 31
0.0
  0
LINE
  5
1C3
  8
MAKE2D$VISIBLE$LINES
 10
761.3779819168162
 20
695.9304183654058
 30
0.0
 11
760.9268496369574
 21
696.9694627764507
 31
0.0
  0
LINE
  5
1C4
  8
MAKE2D$VISIBLE$LINES
 10
760.9268496369574
 20
696.9694627764507
 30
0.0
 11
760.4586934974812
 21
697.9807993365343
 31
0.0
  0
LINE
  5
1C5
  8
MAKE2D$VISIBLE$LINES
 10
760.4586934974812
 20
697.9807993365343
 30
0.0
 11
759.9735134983878
 21
698.9644280456569
 31
0.0
  0
LINE
  5
1C6
  8
MAKE2D$VISIBLE$LINES
 10
759.9735134983878
 20
698.9644280456569
 30
0.0
 11
759.4713096396771
 21
699.9203489038182
 31
0.0
  0
LINE
  5
1C7
  8
MAKE2D$VISIBLE$LINES
 10
759.4713096396771
 20
699.9203489038182
 30
0.0
 11
758.9520819213491
 21
700.8485619110182
 31
0.0
  0
LINE
  5
1C8
  8
MAKE2D$VISIBLE$LINES
 10
758.9520819213491
 20
700.8485619110182
 30
0.0
 11
758.4158303434036
 21
701.7490670672571
 31
0.0
  0
LINE
  5
1C9
  8
MAKE2D$VISIBLE$LINES
 10
758.4158303434036
 20
701.7490670672571
 30
0.0
 11
757.8625549058409
 21
702.6218643725348
 31
0.0
  0
LINE
  5
1CA
  8
MAKE2D$VISIBLE$LINES
 10
757.8625549058409
 20
702.6218643725348
 30
0.0
 11
757.292255608661
 21
703.4669538268513
 31
0.0
  0
LINE
  5
1CB
  8
MAKE2D$VISIBLE$LINES
 10
757.292255608661
 20
703.4669538268513
 30
0.0
 11
756.7049324518637
 21
704.2843354302065
 31
0.0
  0
LINE
  5
1CC
  8
MAKE2D$VISIBLE$LINES
 10
756.7049324518637
 20
704.2843354302065
 30
0.0
 11
756.100585435449
 21
705.0740091826007
 31
0.0
  0
LINE
  5
1CD
  8
MAKE2D$VISIBLE$LINES
 10
756.100585435449
 20
705.0740091826007
 30
0.0
 11
755.479214559417
 21
705.8359750840336
 31
0.0
  0
LINE
  5
1CE
  8
MAKE2D$VISIBLE$LINES
 10
755.479214559417
 20
705.8359750840336
 30
0.0
 11
754.8408198237678
 21
706.5702331345053
 31
0.0
  0
LINE
  5
1CF
  8
MAKE2D$VISIBLE$LINES
 10
754.8408198237678
 20
706.5702331345053
 30
0.0
 11
754.1854012285012
 21
707.2767833340158
 31
0.0
  0
LINE
  5
1D0
  8
MAKE2D$VISIBLE$LINES
 10
754.1854012285012
 20
707.2767833340158
 30
0.0
 11
753.5129587736174
 21
707.9556256825651
 31
0.0
  0
LINE
  5
1D1
  8
MAKE2D$VISIBLE$LINES
 10
753.5129587736174
 20
707.9556256825651
 30
0.0
 11
752.8234924591161
 21
708.6067601801533
 31
0.0
  0
LINE
  5
1D2
  8
MAKE2D$VISIBLE$LINES
 10
752.8234924591161
 20
708.6067601801533
 30
0.0
 11
752.1170022849976
 21
709.2301868267803
 31
0.0
  0
LINE
  5
1D3
  8
MAKE2D$VISIBLE$LINES
 10
752.1170022849976
 20
709.2301868267803
 30
0.0
 11
751.3934882512617
 21
709.825905622446
 31
0.0
  0
LINE
  5
1D4
  8
MAKE2D$VISIBLE$LINES
 10
751.3934882512617
 20
709.825905622446
 30
0.0
 11
750.6529503579086
 21
710.3939165671505
 31
0.0
  0
LINE
  5
1D5
  8
MAKE2D$VISIBLE$LINES
 10
750.6529503579086
 20
710.3939165671505
 30
0.0
 11
749.895388604938
 21
710.9342196608939
 31
0.0
  0
LINE
  5
1D6
  8
MAKE2D$VISIBLE$LINES
 10
749.895388604938
 20
710.9342196608939
 30
0.0
 11
749.5102237810963
 21
711.1939807636551
 31
0.0
  0
LINE
  5
1D7
  8
MAKE2D$VISIBLE$LINES
 10
749.5102237810963
 20
711.1939807636551
 30
0.0
 11
749.1208029923503
 21
711.446814903676
 31
0.0
  0
LINE
  5
1D8
  8
MAKE2D$VISIBLE$LINES
 10
749.1208029923503
 20
711.446814903676
 30
0.0
 11
748.7271262387
 21
711.6927220809566
 31
0.0
  0
LINE
  5
1D9
  8
MAKE2D$VISIBLE$LINES
 10
748.7271262387
 20
711.6927220809566
 30
0.0
 11
748.3291935201453
 21
711.931702295497
 31
0.0
  0
LINE
  5
1DA
  8
MAKE2D$VISIBLE$LINES
 10
748.3291935201453
 20
711.931702295497
 30
0.0
 11
747.9270048366863
 21
712.163755547297
 31
0.0
  0
LINE
  5
1DB
  8
MAKE2D$VISIBLE$LINES
 10
747.9270048366863
 20
712.163755547297
 30
0.0
 11
747.5205601883229
 21
712.3888818363567
 31
0.0
  0
LINE
  5
1DC
  8
MAKE2D$VISIBLE$LINES
 10
747.5205601883229
 20
712.3888818363567
 30
0.0
 11
746.6949029968831
 21
712.8183535262554
 31
0.0
  0
LINE
  5
1DD
  8
MAKE2D$VISIBLE$LINES
 10
746.6949029968831
 20
712.8183535262554
 30
0.0
 11
745.852221945826
 21
713.2201173651927
 31
0.0
  0
LINE
  5
1DE
  8
MAKE2D$VISIBLE$LINES
 10
745.852221945826
 20
713.2201173651927
 30
0.0
 11
744.9925170351516
 21
713.5941733531688
 31
0.0
  0
LINE
  5
1DF
  8
MAKE2D$VISIBLE$LINES
 10
744.9925170351516
 20
713.5941733531688
 30
0.0
 11
744.11578826486
 21
713.9405214901838
 31
0.0
  0
LINE
  5
1E0
  8
MAKE2D$VISIBLE$LINES
 10
744.11578826486
 20
713.9405214901838
 30
0.0
 11
743.2220356349511
 21
714.2591617762375
 31
0.0
  0
LINE
  5
1E1
  8
MAKE2D$VISIBLE$LINES
 10
743.2220356349511
 20
714.2591617762375
 30
0.0
 11
742.3112591454247
 21
714.5500942113301
 31
0.0
  0
LINE
  5
1E2
  8
MAKE2D$VISIBLE$LINES
 10
742.3112591454247
 20
714.5500942113301
 30
0.0
 11
741.383458796281
 21
714.8133187954616
 31
0.0
  0
LINE
  5
1E3
  8
MAKE2D$VISIBLE$LINES
 10
741.383458796281
 20
714.8133187954616
 30
0.0
 11
740.4386345875203
 21
715.0488355286317
 31
0.0
  0
LINE
  5
1E4
  8
MAKE2D$VISIBLE$LINES
 10
740.4386345875203
 20
715.0488355286317
 30
0.0
 11
739.476786519142
 21
715.2566444108406
 31
0.0
  0
LINE
  5
1E5
  8
MAKE2D$VISIBLE$LINES
 10
739.476786519142
 20
715.2566444108406
 30
0.0
 11
738.4979145911465
 21
715.4367454420884
 31
0.0
  0
LINE
  5
1E6
  8
MAKE2D$VISIBLE$LINES
 10
738.4979145911465
 20
715.4367454420884
 30
0.0
 11
737.5020188035335
 21
715.589138622375
 31
0.0
  0
LINE
  5
1E7
  8
MAKE2D$VISIBLE$LINES
 10
737.5020188035335
 20
715.589138622375
 30
0.0
 11
736.4890991563034
 21
715.7138239517004
 31
0.0
  0
LINE
  5
1E8
  8
MAKE2D$VISIBLE$LINES
 10
736.4890991563034
 20
715.7138239517004
 30
0.0
 11
735.4591556494559
 21
715.8108014300647
 31
0.0
  0
LINE
  5
1E9
  8
MAKE2D$VISIBLE$LINES
 10
735.4591556494559
 20
715.8108014300647
 30
0.0
 11
734.4121882829911
 21
715.8800710574676
 31
0.0
  0
LINE
  5
1EA
  8
MAKE2D$VISIBLE$LINES
 10
734.4121882829911
 20
715.8800710574676
 30
0.0
 11
733.348197056909
 21
715.9216328339094
 31
0.0
  0
LINE
  5
1EB
  8
MAKE2D$VISIBLE$LINES
 10
733.348197056909
 20
715.9216328339094
 30
0.0
 11
732.2671819712097
 21
715.9354867593898
 31
0.0
  0
CIRCLE
  5
1EC
  8
MAKE2D$VISIBLE$LINES
 10
739.6010810513205
 20
629.0359465863374
 30
0.0
 40
1.778000000000086
  0
CIRCLE
  5
1ED
  8
MAKE2D$VISIBLE$LINES
 10
678.3010810512924
 20
708.4359465864289
 30
0.0
 40
1.77799999999986
  0
LINE
  5
1EE
  8
MAKE2D$VISIBLE$LINES
 10
653.078978554953
 20
679.1624379499311
 30
0.0
 11
662.9317674506584
 21
715.9335467049547
 31
0.0
  0
LINE
  5
1EF
  8
MAKE2D$VISIBLE$LINES
 10
662.9317674506584
 20
715.9335467049547
 30
0.0
 11
498.7811410226327
 21
715.933546704955
 31
0.0
  0
LINE
  5
1F0
  8
MAKE2D$VISIBLE$LINES
 10
498.7811410226327
 20
715.933546704955
 30
0.0
 11
498.7811410226324
 21
502.1198139896997
 31
0.0
  0
LINE
  5
1F1
  8
MAKE2D$VISIBLE$LINES
 10
498.7811410226324
 20
502.1198139896997
 30
0.0
 11
605.6405504389214
 21
502.1198139896994
 31
0.0
  0
LINE
  5
1F2
  8
MAKE2D$VISIBLE$LINES
 10
605.6405504389214
 20
502.1198139896994
 30
0.0
 11
645.3144072018772
 21
650.1846631612588
 31
0.0
  0
LINE
  5
1F3
  8
MAKE2D$VISIBLE$LINES
 10
645.3144072018772
 20
650.1846631612588
 30
0.0
 11
647.8337320403754
 21
649.5096121053115
 31
0.0
  0
LINE
  5
1F4
  8
MAKE2D$VISIBLE$LINES
 10
647.8337320403754
 20
649.5096121053115
 30
0.0
 11
640.061832551081
 21
620.504488339947
 31
0.0
  0
LINE
  5
1F5
  8
MAKE2D$VISIBLE$LINES
 10
640.061832551081
 20
620.504488339947
 30
0.0
 11
640.6869871871451
 21
620.3369786600691
 31
0.0
  0
LINE
  5
1F6
  8
MAKE2D$VISIBLE$LINES
 10
640.6869871871451
 20
620.3369786600691
 30
0.0
 11
640.734908139643
 21
620.3246969220551
 31
0.0
  0
LINE
  5
1F7
  8
MAKE2D$VISIBLE$LINES
 10
640.734908139643
 20
620.3246969220551
 30
0.0
 11
640.7833920213968
 21
620.3133953662742
 31
0.0
  0
LINE
  5
1F8
  8
MAKE2D$VISIBLE$LINES
 10
640.7833920213968
 20
620.3133953662742
 30
0.0
 11
640.832419788809
 21
620.3030990463039
 31
0.0
  0
LINE
  5
1F9
  8
MAKE2D$VISIBLE$LINES
 10
640.832419788809
 20
620.3030990463039
 30
0.0
 11
640.8819712669844
 21
620.2938323989546
 31
0.0
  0
LINE
  5
1FA
  8
MAKE2D$VISIBLE$LINES
 10
640.8819712669844
 20
620.2938323989546
 30
0.0
 11
640.9320251568805
 21
620.2856191755101
 31
0.0
  0
LINE
  5
1FB
  8
MAKE2D$VISIBLE$LINES
 10
640.9320251568805
 20
620.2856191755101
 30
0.0
 11
640.9825590461952
 21
620.2784823726238
 31
0.0
  0
LINE
  5
1FC
  8
MAKE2D$VISIBLE$LINES
 10
640.9825590461952
 20
620.2784823726238
 30
0.0
 11
641.0335494240896
 21
620.2724441631526
 31
0.0
  0
LINE
  5
1FD
  8
MAKE2D$VISIBLE$LINES
 10
641.0335494240896
 20
620.2724441631526
 30
0.0
 11
641.0849716998439
 21
620.2675258272318
 31
0.0
  0
LINE
  5
1FE
  8
MAKE2D$VISIBLE$LINES
 10
641.0849716998439
 20
620.2675258272318
 30
0.0
 11
641.136800225511
 21
620.2637476839016
 31
0.0
  0
LINE
  5
1FF
  8
MAKE2D$VISIBLE$LINES
 10
641.136800225511
 20
620.2637476839016
 30
0.0
 11
641.1890083226222
 21
620.2611290236098
 31
0.0
  0
LINE
  5
200
  8
MAKE2D$VISIBLE$LINES
 10
641.1890083226222
 20
620.2611290236098
 30
0.0
 11
641.2415683129683
 21
620.2596880419196
 31
0.0
  0
LINE
  5
201
  8
MAKE2D$VISIBLE$LINES
 10
641.2415683129683
 20
620.2596880419196
 30
0.0
 11
641.2944515534684
 21
620.2594417747625
 31
0.0
  0
LINE
  5
202
  8
MAKE2D$VISIBLE$LINES
 10
641.2944515534684
 20
620.2594417747625
 30
0.0
 11
641.3476284750996
 21
620.2604060355741
 31
0.0
  0
LINE
  5
203
  8
MAKE2D$VISIBLE$LINES
 10
641.3476284750996
 20
620.2604060355741
 30
0.0
 11
641.4010686258487
 21
620.2625953546612
 31
0.0
  0
LINE
  5
204
  8
MAKE2D$VISIBLE$LINES
 10
641.4010686258487
 20
620.2625953546612
 30
0.0
 11
641.4547407176157
 21
620.2660229211374
 31
0.0
  0
LINE
  5
205
  8
MAKE2D$VISIBLE$LINES
 10
641.4547407176157
 20
620.2660229211374
 30
0.0
 11
641.5086126769693
 21
620.2707005277674
 31
0.0
  0
LINE
  5
206
  8
MAKE2D$VISIBLE$LINES
 10
641.5086126769693
 20
620.2707005277674
 30
0.0
 11
641.5626516996381
 21
620.2766385190539
 31
0.0
  0
LINE
  5
207
  8
MAKE2D$VISIBLE$LINES
 10
641.5626516996381
 20
620.2766385190539
 30
0.0
 11
641.6168243085823
 21
620.2838457428855
 31
0.0
  0
LINE
  5
208
  8
MAKE2D$VISIBLE$LINES
 10
641.6168243085823
 20
620.2838457428855
 30
0.0
 11
641.6710964154739
 21
620.2923295060598
 31
0.0
  0
LINE
  5
209
  8
MAKE2D$VISIBLE$LINES
 10
641.6710964154739
 20
620.2923295060598
 30
0.0
 11
641.7254333853849
 21
620.3020955339748
 31
0.0
  0
LINE
  5
20A
  8
MAKE2D$VISIBLE$LINES
 10
641.7254333853849
 20
620.3020955339748
 30
0.0
 11
641.779800104455
 21
620.3131479347668
 31
0.0
  0
LINE
  5
20B
  8
MAKE2D$VISIBLE$LINES
 10
641.779800104455
 20
620.3131479347668
 30
0.0
 11
641.8341610502924
 21
620.3254891681536
 31
0.0
  0
LINE
  5
20C
  8
MAKE2D$VISIBLE$LINES
 10
641.8341610502924
 20
620.3254891681536
 30
0.0
 11
641.8884803648322
 21
620.3391200192136
 31
0.0
  0
LINE
  5
20D
  8
MAKE2D$VISIBLE$LINES
 10
641.8884803648322
 20
620.3391200192136
 30
0.0
 11
641.942721929362
 21
620.3540395773133
 31
0.0
  0
LINE
  5
20E
  8
MAKE2D$VISIBLE$LINES
 10
641.942721929362
 20
620.3540395773133
 30
0.0
 11
641.9968494414006
 21
620.3702452203605
 31
0.0
  0
LINE
  5
20F
  8
MAKE2D$VISIBLE$LINES
 10
641.9968494414006
 20
620.3702452203605
 30
0.0
 11
642.0508264931017
 21
620.3877326045382
 31
0.0
  0
LINE
  5
210
  8
MAKE2D$VISIBLE$LINES
 10
642.0508264931017
 20
620.3877326045382
 30
0.0
 11
642.1046166508387
 21
620.4064956596352
 31
0.0
  0
LINE
  5
211
  8
MAKE2D$VISIBLE$LINES
 10
642.1046166508387
 20
620.4064956596352
 30
0.0
 11
642.1581835356153
 21
620.426526590063
 31
0.0
  0
LINE
  5
212
  8
MAKE2D$VISIBLE$LINES
 10
642.1581835356153
 20
620.426526590063
 30
0.0
 11
642.2114909039326
 21
620.4478158816087
 31
0.0
  0
LINE
  5
213
  8
MAKE2D$VISIBLE$LINES
 10
642.2114909039326
 20
620.4478158816087
 30
0.0
 11
642.264502728747
 21
620.4703523139451
 31
0.0
  0
LINE
  5
214
  8
MAKE2D$VISIBLE$LINES
 10
642.264502728747
 20
620.4703523139451
 30
0.0
 11
642.3171832801365
 21
620.4941229788762
 31
0.0
  0
LINE
  5
215
  8
MAKE2D$VISIBLE$LINES
 10
642.3171832801365
 20
620.4941229788762
 30
0.0
 11
642.3694972053041
 21
620.5191133042672
 31
0.0
  0
LINE
  5
216
  8
MAKE2D$VISIBLE$LINES
 10
642.3694972053041
 20
620.5191133042672
 30
0.0
 11
642.4214096075358
 21
620.5453070835672
 31
0.0
  0
LINE
  5
217
  8
MAKE2D$VISIBLE$LINES
 10
642.4214096075358
 20
620.5453070835672
 30
0.0
 11
642.4728861237528
 21
620.5726865108034
 31
0.0
  0
LINE
  5
218
  8
MAKE2D$VISIBLE$LINES
 10
642.4728861237528
 20
620.5726865108034
 30
0.0
 11
642.5238930002894
 21
620.6012322208838
 31
0.0
  0
LINE
  5
219
  8
MAKE2D$VISIBLE$LINES
 10
642.5238930002894
 20
620.6012322208838
 30
0.0
 11
642.5743971665486
 21
620.6309233350238
 31
0.0
  0
LINE
  5
21A
  8
MAKE2D$VISIBLE$LINES
 10
642.5743971665486
 20
620.6309233350238
 30
0.0
 11
642.6243663061979
 21
620.6617375110656
 31
0.0
  0
LINE
  5
21B
  8
MAKE2D$VISIBLE$LINES
 10
642.6243663061979
 20
620.6617375110656
 30
0.0
 11
642.6737689255856
 21
620.6936509984462
 31
0.0
  0
LINE
  5
21C
  8
MAKE2D$VISIBLE$LINES
 10
642.6737689255856
 20
620.6936509984462
 30
0.0
 11
642.7225744190739
 21
620.7266386975291
 31
0.0
  0
LINE
  5
21D
  8
MAKE2D$VISIBLE$LINES
 10
642.7225744190739
 20
620.7266386975291
 30
0.0
 11
642.7707531310116
 21
620.760674222997
 31
0.0
  0
LINE
  5
21E
  8
MAKE2D$VISIBLE$LINES
 10
642.7707531310116
 20
620.760674222997
 30
0.0
 11
642.8182764140865
 21
620.7957299709806
 31
0.0
  0
LINE
  5
21F
  8
MAKE2D$VISIBLE$LINES
 10
642.8182764140865
 20
620.7957299709806
 30
0.0
 11
642.8651166838247
 21
620.8317771895735
 31
0.0
  0
LINE
  5
220
  8
MAKE2D$VISIBLE$LINES
 10
642.8651166838247
 20
620.8317771895735
 30
0.0
 11
642.911247469032
 21
620.8687860523739
 31
0.0
  0
LINE
  5
221
  8
MAKE2D$VISIBLE$LINES
 10
642.911247469032
 20
620.8687860523739
 30
0.0
 11
642.9566434579998
 21
620.9067257346758
 31
0.0
  0
LINE
  5
222
  8
MAKE2D$VISIBLE$LINES
 10
642.9566434579998
 20
620.9067257346758
 30
0.0
 11
643.0012805403237
 21
620.9455644919213
 31
0.0
  0
LINE
  5
223
  8
MAKE2D$VISIBLE$LINES
 10
643.0012805403237
 20
620.9455644919213
 30
0.0
 11
643.0451358442149
 21
620.9852697400258
 31
0.0
  0
LINE
  5
224
  8
MAKE2D$VISIBLE$LINES
 10
643.0451358442149
 20
620.9852697400258
 30
0.0
 11
643.0881877692146
 21
621.0258081371724
 31
0.0
  0
LINE
  5
225
  8
MAKE2D$VISIBLE$LINES
 10
643.0881877692146
 20
621.0258081371724
 30
0.0
 11
643.1304160142479
 21
621.0671456666818
 31
0.0
  0
LINE
  5
226
  8
MAKE2D$VISIBLE$LINES
 10
643.1304160142479
 20
621.0671456666818
 30
0.0
 11
643.1718016009879
 21
621.1092477205614
 31
0.0
  0
LINE
  5
227
  8
MAKE2D$VISIBLE$LINES
 10
643.1718016009879
 20
621.1092477205614
 30
0.0
 11
643.2123268925245
 21
621.1520791833435
 31
0.0
  0
LINE
  5
228
  8
MAKE2D$VISIBLE$LINES
 10
643.2123268925245
 20
621.1520791833435
 30
0.0
 11
643.2519756073646
 21
621.1956045158306
 31
0.0
  0
LINE
  5
229
  8
MAKE2D$VISIBLE$LINES
 10
643.2519756073646
 20
621.1956045158306
 30
0.0
 11
643.2907328288138
 21
621.2397878383749
 31
0.0
  0
LINE
  5
22A
  8
MAKE2D$VISIBLE$LINES
 10
643.2907328288138
 20
621.2397878383749
 30
0.0
 11
643.3285850098207
 21
621.2845930133388
 31
0.0
  0
LINE
  5
22B
  8
MAKE2D$VISIBLE$LINES
 10
643.3285850098207
 20
621.2845930133388
 30
0.0
 11
643.3655199733818
 21
621.3299837263918
 31
0.0
  0
LINE
  5
22C
  8
MAKE2D$VISIBLE$LINES
 10
643.3655199733818
 20
621.3299837263918
 30
0.0
 11
643.4015269086358
 21
621.3759235663183
 31
0.0
  0
LINE
  5
22D
  8
MAKE2D$VISIBLE$LINES
 10
643.4015269086358
 20
621.3759235663183
 30
0.0
 11
643.436596362792
 21
621.422376103036
 31
0.0
  0
LINE
  5
22E
  8
MAKE2D$VISIBLE$LINES
 10
643.436596362792
 20
621.422376103036
 30
0.0
 11
643.4707202290555
 21
621.4693049635357
 31
0.0
  0
LINE
  5
22F
  8
MAKE2D$VISIBLE$LINES
 10
643.4707202290555
 20
621.4693049635357
 30
0.0
 11
643.503891730736
 21
621.5166739054876
 31
0.0
  0
LINE
  5
230
  8
MAKE2D$VISIBLE$LINES
 10
643.503891730736
 20
621.5166739054876
 30
0.0
 11
643.5361054017341
 21
621.5644468882689
 31
0.0
  0
LINE
  5
231
  8
MAKE2D$VISIBLE$LINES
 10
643.5361054017341
 20
621.5644468882689
 30
0.0
 11
643.5673570636151
 21
621.6125881412046
 31
0.0
  0
LINE
  5
232
  8
MAKE2D$VISIBLE$LINES
 10
643.5673570636151
 20
621.6125881412046
 30
0.0
 11
643.6269639249564
 21
621.709834112999
 31
0.0
  0
LINE
  5
233
  8
MAKE2D$VISIBLE$LINES
 10
643.6269639249564
 20
621.709834112999
 30
0.0
 11
643.6827035760649
 21
621.8081334546604
 31
0.0
  0
LINE
  5
234
  8
MAKE2D$VISIBLE$LINES
 10
643.6827035760649
 20
621.8081334546604
 30
0.0
 11
645.3429759574962
 21
624.9613186646586
 31
0.0
  0
LINE
  5
235
  8
MAKE2D$VISIBLE$LINES
 10
645.3429759574962
 20
624.9613186646586
 30
0.0
 11
646.9018138165304
 21
628.1416831730178
 31
0.0
  0
LINE
  5
236
  8
MAKE2D$VISIBLE$LINES
 10
646.9018138165304
 20
628.1416831730178
 30
0.0
 11
648.3592171531678
 21
631.3492269797378
 31
0.0
  0
LINE
  5
237
  8
MAKE2D$VISIBLE$LINES
 10
648.3592171531678
 20
631.3492269797378
 30
0.0
 11
649.7151859674084
 21
634.5839500848186
 31
0.0
  0
LINE
  5
238
  8
MAKE2D$VISIBLE$LINES
 10
649.7151859674084
 20
634.5839500848186
 30
0.0
 11
650.9697202592521
 21
637.8458524882603
 31
0.0
  0
LINE
  5
239
  8
MAKE2D$VISIBLE$LINES
 10
650.9697202592521
 20
637.8458524882603
 30
0.0
 11
652.1228200286988
 21
641.1349341900631
 31
0.0
  0
LINE
  5
23A
  8
MAKE2D$VISIBLE$LINES
 10
652.1228200286988
 20
641.1349341900631
 30
0.0
 11
653.1744852757487
 21
644.4511951902266
 31
0.0
  0
LINE
  5
23B
  8
MAKE2D$VISIBLE$LINES
 10
653.1744852757487
 20
644.4511951902266
 30
0.0
 11
654.1247160004018
 21
647.794635488751
 31
0.0
  0
LINE
  5
23C
  8
MAKE2D$VISIBLE$LINES
 10
654.1247160004018
 20
647.794635488751
 30
0.0
 11
654.973512202658
 21
651.1652550856363
 31
0.0
  0
LINE
  5
23D
  8
MAKE2D$VISIBLE$LINES
 10
654.973512202658
 20
651.1652550856363
 30
0.0
 11
655.7208738825173
 21
654.5630539808825
 31
0.0
  0
LINE
  5
23E
  8
MAKE2D$VISIBLE$LINES
 10
655.7208738825173
 20
654.5630539808825
 30
0.0
 11
656.3668010399797
 21
657.9880321744895
 31
0.0
  0
LINE
  5
23F
  8
MAKE2D$VISIBLE$LINES
 10
656.3668010399797
 20
657.9880321744895
 30
0.0
 11
656.9112936750453
 21
661.4401896664575
 31
0.0
  0
LINE
  5
240
  8
MAKE2D$VISIBLE$LINES
 10
656.9112936750453
 20
661.4401896664575
 30
0.0
 11
657.354351787714
 21
664.9195264567863
 31
0.0
  0
LINE
  5
241
  8
MAKE2D$VISIBLE$LINES
 10
657.354351787714
 20
664.9195264567863
 30
0.0
 11
657.6959753779859
 21
668.4260425454761
 31
0.0
  0
LINE
  5
242
  8
MAKE2D$VISIBLE$LINES
 10
657.6959753779859
 20
668.4260425454761
 30
0.0
 11
657.9361644458609
 21
671.9597379325267
 31
0.0
  0
LINE
  5
243
  8
MAKE2D$VISIBLE$LINES
 10
657.9361644458609
 20
671.9597379325267
 30
0.0
 11
658.0749189913389
 21
675.5206126179381
 31
0.0
  0
LINE
  5
244
  8
MAKE2D$VISIBLE$LINES
 10
658.0749189913389
 20
675.5206126179381
 30
0.0
 11
658.0757967083116
 21
675.6336121705461
 31
0.0
  0
LINE
  5
245
  8
MAKE2D$VISIBLE$LINES
 10
658.0757967083116
 20
675.6336121705461
 30
0.0
 11
658.0727986380473
 21
675.7476330832067
 31
0.0
  0
LINE
  5
246
  8
MAKE2D$VISIBLE$LINES
 10
658.0727986380473
 20
675.7476330832067
 30
0.0
 11
658.0698045314159
 21
675.8049504621594
 31
0.0
  0
LINE
  5
247
  8
MAKE2D$VISIBLE$LINES
 10
658.0698045314159
 20
675.8049504621594
 30
0.0
 11
658.0657931653731
 21
675.8624299143618
 31
0.0
  0
LINE
  5
248
  8
MAKE2D$VISIBLE$LINES
 10
658.0657931653731
 20
675.8624299143618
 30
0.0
 11
658.0607502732117
 21
675.9200383722826
 31
0.0
  0
LINE
  5
249
  8
MAKE2D$VISIBLE$LINES
 10
658.0607502732117
 20
675.9200383722826
 30
0.0
 11
658.0546625684021
 21
675.977741890778
 31
0.0
  0
LINE
  5
24A
  8
MAKE2D$VISIBLE$LINES
 10
658.0546625684021
 20
675.977741890778
 30
0.0
 11
658.0475177985649
 21
676.0355056947237
 31
0.0
  0
LINE
  5
24B
  8
MAKE2D$VISIBLE$LINES
 10
658.0475177985649
 20
676.0355056947237
 30
0.0
 11
658.0393047978855
 21
676.0932942307728
 31
0.0
  0
LINE
  5
24C
  8
MAKE2D$VISIBLE$LINES
 10
658.0393047978855
 20
676.0932942307728
 30
0.0
 11
658.0300135376804
 21
676.1510712231532
 31
0.0
  0
LINE
  5
24D
  8
MAKE2D$VISIBLE$LINES
 10
658.0300135376804
 20
676.1510712231532
 30
0.0
 11
658.0196351748216
 21
676.2087997333963
 31
0.0
  0
LINE
  5
24E
  8
MAKE2D$VISIBLE$LINES
 10
658.0196351748216
 20
676.2087997333963
 30
0.0
 11
658.0081620977387
 21
676.2664422238677
 31
0.0
  0
LINE
  5
24F
  8
MAKE2D$VISIBLE$LINES
 10
658.0081620977387
 20
676.2664422238677
 30
0.0
 11
657.9955879697034
 21
676.3239606249297
 31
0.0
  0
LINE
  5
250
  8
MAKE2D$VISIBLE$LINES
 10
657.9955879697034
 20
676.3239606249297
 30
0.0
 11
657.9819077691279
 21
676.3813164055489
 31
0.0
  0
LINE
  5
251
  8
MAKE2D$VISIBLE$LINES
 10
657.9819077691279
 20
676.3813164055489
 30
0.0
 11
657.9671178266004
 21
676.43847064713
 31
0.0
  0
LINE
  5
252
  8
MAKE2D$VISIBLE$LINES
 10
657.9671178266004
 20
676.43847064713
 30
0.0
 11
657.951215858399
 21
676.4953841203312
 31
0.0
  0
LINE
  5
253
  8
MAKE2D$VISIBLE$LINES
 10
657.951215858399
 20
676.4953841203312
 30
0.0
 11
657.9342009962407
 21
676.5520173645886
 31
0.0
  0
LINE
  5
254
  8
MAKE2D$VISIBLE$LINES
 10
657.9342009962407
 20
676.5520173645886
 30
0.0
 11
657.9160738130325
 21
676.6083307700563
 31
0.0
  0
LINE
  5
255
  8
MAKE2D$VISIBLE$LINES
 10
657.9160738130325
 20
676.6083307700563
 30
0.0
 11
657.8968363444119
 21
676.6642846616445
 31
0.0
  0
LINE
  5
256
  8
MAKE2D$VISIBLE$LINES
 10
657.8968363444119
 20
676.6642846616445
 30
0.0
 11
657.8764921058868
 21
676.7198393848133
 31
0.0
  0
LINE
  5
257
  8
MAKE2D$VISIBLE$LINES
 10
657.8764921058868
 20
676.7198393848133
 30
0.0
 11
657.8550461054009
 21
676.7749553927673
 31
0.0
  0
LINE
  5
258
  8
MAKE2D$VISIBLE$LINES
 10
657.8550461054009
 20
676.7749553927673
 30
0.0
 11
657.8325048511841
 21
676.8295933346734
 31
0.0
  0
LINE
  5
259
  8
MAKE2D$VISIBLE$LINES
 10
657.8325048511841
 20
676.8295933346734
 30
0.0
 11
657.8088763547618
 21
676.8837141445135
 31
0.0
  0
LINE
  5
25A
  8
MAKE2D$VISIBLE$LINES
 10
657.8088763547618
 20
676.8837141445135
 30
0.0
 11
657.7841701290362
 21
676.937279130169
 31
0.0
  0
LINE
  5
25B
  8
MAKE2D$VISIBLE$LINES
 10
657.7841701290362
 20
676.937279130169
 30
0.0
 11
657.7583971813724
 21
676.990250062331
 31
0.0
  0
LINE
  5
25C
  8
MAKE2D$VISIBLE$LINES
 10
657.7583971813724
 20
676.990250062331
 30
0.0
 11
657.7315700016595
 21
677.0425892628197
 31
0.0
  0
LINE
  5
25D
  8
MAKE2D$VISIBLE$LINES
 10
657.7315700016595
 20
677.0425892628197
 30
0.0
 11
657.7037025453388
 21
677.0942596918934
 31
0.0
  0
LINE
  5
25E
  8
MAKE2D$VISIBLE$LINES
 10
657.7037025453388
 20
677.0942596918934
 30
0.0
 11
657.6748102114312
 21
677.1452250341349
 31
0.0
  0
LINE
  5
25F
  8
MAKE2D$VISIBLE$LINES
 10
657.6748102114312
 20
677.1452250341349
 30
0.0
 11
657.6449098156232
 21
677.195449782502
 31
0.0
  0
LINE
  5
260
  8
MAKE2D$VISIBLE$LINES
 10
657.6449098156232
 20
677.195449782502
 30
0.0
 11
657.6140195584992
 21
677.244899320138
 31
0.0
  0
LINE
  5
261
  8
MAKE2D$VISIBLE$LINES
 10
657.6140195584992
 20
677.244899320138
 30
0.0
 11
657.5821589890451
 21
677.2935399995489
 31
0.0
  0
LINE
  5
262
  8
MAKE2D$VISIBLE$LINES
 10
657.5821589890451
 20
677.2935399995489
 30
0.0
 11
657.5493489635742
 21
677.3413392187701
 31
0.0
  0
LINE
  5
263
  8
MAKE2D$VISIBLE$LINES
 10
657.5493489635742
 20
677.3413392187701
 30
0.0
 11
657.5156116002507
 21
677.3882654941604
 31
0.0
  0
LINE
  5
264
  8
MAKE2D$VISIBLE$LINES
 10
657.5156116002507
 20
677.3882654941604
 30
0.0
 11
657.4809702294287
 21
677.4342885294815
 31
0.0
  0
LINE
  5
265
  8
MAKE2D$VISIBLE$LINES
 10
657.4809702294287
 20
677.4342885294815
 30
0.0
 11
657.44544934003
 21
677.4793792809471
 31
0.0
  0
LINE
  5
266
  8
MAKE2D$VISIBLE$LINES
 10
657.44544934003
 20
677.4793792809471
 30
0.0
 11
657.4090745222259
 21
677.523510017947
 31
0.0
  0
LINE
  5
267
  8
MAKE2D$VISIBLE$LINES
 10
657.4090745222259
 20
677.523510017947
 30
0.0
 11
657.3718724067004
 21
677.5666543791824
 31
0.0
  0
LINE
  5
268
  8
MAKE2D$VISIBLE$LINES
 10
657.3718724067004
 20
677.5666543791824
 30
0.0
 11
657.333870600795
 21
677.6087874239767
 31
0.0
  0
LINE
  5
269
  8
MAKE2D$VISIBLE$LINES
 10
657.333870600795
 20
677.6087874239767
 30
0.0
 11
657.2950976218493
 21
677.6498856785594
 31
0.0
  0
LINE
  5
26A
  8
MAKE2D$VISIBLE$LINES
 10
657.2950976218493
 20
677.6498856785594
 30
0.0
 11
657.2555828280753
 21
677.6899271771516
 31
0.0
  0
LINE
  5
26B
  8
MAKE2D$VISIBLE$LINES
 10
657.2555828280753
 20
677.6899271771516
 30
0.0
 11
657.2153563472976
 21
677.728891497715
 31
0.0
  0
LINE
  5
26C
  8
MAKE2D$VISIBLE$LINES
 10
657.2153563472976
 20
677.728891497715
 30
0.0
 11
657.1744490039222
 21
677.7667597922606
 31
0.0
  0
LINE
  5
26D
  8
MAKE2D$VISIBLE$LINES
 10
657.1744490039222
 20
677.7667597922606
 30
0.0
 11
657.132892244483
 21
677.8035148116543
 31
0.0
  0
LINE
  5
26E
  8
MAKE2D$VISIBLE$LINES
 10
657.132892244483
 20
677.8035148116543
 30
0.0
 11
657.090718062133
 21
677.839140924878
 31
0.0
  0
LINE
  5
26F
  8
MAKE2D$VISIBLE$LINES
 10
657.090718062133
 20
677.839140924878
 30
0.0
 11
657.047958920435
 21
677.8736241327525
 31
0.0
  0
LINE
  5
270
  8
MAKE2D$VISIBLE$LINES
 10
657.047958920435
 20
677.8736241327525
 30
0.0
 11
657.0046476768159
 21
677.9069520761536
 31
0.0
  0
LINE
  5
271
  8
MAKE2D$VISIBLE$LINES
 10
657.0046476768159
 20
677.9069520761536
 30
0.0
 11
656.9608175060322
 21
677.9391140387897
 31
0.0
  0
LINE
  5
272
  8
MAKE2D$VISIBLE$LINES
 10
656.9608175060322
 20
677.9391140387897
 30
0.0
 11
656.9165018239953
 21
677.9701009446371
 31
0.0
  0
LINE
  5
273
  8
MAKE2D$VISIBLE$LINES
 10
656.9165018239953
 20
677.9701009446371
 30
0.0
 11
656.8717342122891
 21
677.999905350162
 31
0.0
  0
LINE
  5
274
  8
MAKE2D$VISIBLE$LINES
 10
656.8717342122891
 20
677.999905350162
 30
0.0
 11
656.8265483437018
 21
678.028521431483
 31
0.0
  0
LINE
  5
275
  8
MAKE2D$VISIBLE$LINES
 10
656.8265483437018
 20
678.028521431483
 30
0.0
 11
656.78097790908
 21
678.0559449666574
 31
0.0
  0
LINE
  5
276
  8
MAKE2D$VISIBLE$LINES
 10
656.78097790908
 20
678.0559449666574
 30
0.0
 11
656.735056545794
 21
678.0821733132934
 31
0.0
  0
LINE
  5
277
  8
MAKE2D$VISIBLE$LINES
 10
656.735056545794
 20
678.0821733132934
 30
0.0
 11
656.6888177680863
 21
678.1072053817163
 31
0.0
  0
LINE
  5
278
  8
MAKE2D$VISIBLE$LINES
 10
656.6888177680863
 20
678.1072053817163
 30
0.0
 11
656.642294899559
 21
678.1310416039353
 31
0.0
  0
LINE
  5
279
  8
MAKE2D$VISIBLE$LINES
 10
656.642294899559
 20
678.1310416039353
 30
0.0
 11
656.5955210080255
 21
678.1536838986658
 31
0.0
  0
LINE
  5
27A
  8
MAKE2D$VISIBLE$LINES
 10
656.5955210080255
 20
678.1536838986658
 30
0.0
 11
656.5485288429413
 21
678.1751356326909
 31
0.0
  0
LINE
  5
27B
  8
MAKE2D$VISIBLE$LINES
 10
656.5485288429413
 20
678.1751356326909
 30
0.0
 11
656.5013507756007
 21
678.1954015788427
 31
0.0
  0
LINE
  5
27C
  8
MAKE2D$VISIBLE$LINES
 10
656.5013507756007
 20
678.1954015788427
 30
0.0
 11
656.454018742259
 21
678.2144878708989
 31
0.0
  0
LINE
  5
27D
  8
MAKE2D$VISIBLE$LINES
 10
656.454018742259
 20
678.2144878708989
 30
0.0
 11
656.4065641903284
 21
678.232401955697
 31
0.0
  0
LINE
  5
27E
  8
MAKE2D$VISIBLE$LINES
 10
656.4065641903284
 20
678.232401955697
 30
0.0
 11
656.3590180277589
 21
678.249152542772
 31
0.0
  0
LINE
  5
27F
  8
MAKE2D$VISIBLE$LINES
 10
656.3590180277589
 20
678.249152542772
 30
0.0
 11
656.3114105757039
 21
678.2647495518183
 31
0.0
  0
LINE
  5
280
  8
MAKE2D$VISIBLE$LINES
 10
656.3114105757039
 20
678.2647495518183
 30
0.0
 11
656.2637715245406
 21
678.2792040582867
 31
0.0
  0
LINE
  5
281
  8
MAKE2D$VISIBLE$LINES
 10
656.2637715245406
 20
678.2792040582867
 30
0.0
 11
656.2161298932967
 21
678.2925282374132
 31
0.0
  0
LINE
  5
282
  8
MAKE2D$VISIBLE$LINES
 10
656.2161298932967
 20
678.2925282374132
 30
0.0
 11
653.0716504187344
 21
679.1350889732383
 31
0.0
  0
LINE
  5
283
  8
MAKE2D$VISIBLE$LINES
 10
622.0855408309795
 20
608.6643336841831
 30
0.0
 11
614.3468513824141
 21
579.7831514781396
 31
0.0
  0
LINE
  5
284
  8
MAKE2D$VISIBLE$LINES
 10
614.3468513824141
 20
579.7831514781396
 30
0.0
 11
611.6422590688046
 21
580.5078448044268
 31
0.0
  0
LINE
  5
285
  8
MAKE2D$VISIBLE$LINES
 10
611.6422590688046
 20
580.5078448044268
 30
0.0
 11
627.1196379659356
 21
638.2702092165132
 31
0.0
  0
LINE
  5
286
  8
MAKE2D$VISIBLE$LINES
 10
627.1196379659356
 20
638.2702092165132
 30
0.0
 11
629.824230279545
 21
637.5455158902262
 31
0.0
  0
LINE
  5
287
  8
MAKE2D$VISIBLE$LINES
 10
629.824230279545
 20
637.5455158902262
 30
0.0
 11
622.0855408309795
 21
608.6643336841831
 31
0.0
  0
LINE
  5
288
  8
MAKE2D$VISIBLE$LINES
 10
511.6811410226326
 20
609.0266803473273
 30
0.0
 11
511.6811410226326
 21
579.1266803473274
 31
0.0
  0
LINE
  5
289
  8
MAKE2D$VISIBLE$LINES
 10
511.6811410226326
 20
579.1266803473274
 30
0.0
 11
508.8811410226326
 21
579.1266803473274
 31
0.0
  0
LINE
  5
28A
  8
MAKE2D$VISIBLE$LINES
 10
508.8811410226326
 20
579.1266803473274
 30
0.0
 11
508.8811410226327
 21
638.9266803473273
 31
0.0
  0
LINE
  5
28B
  8
MAKE2D$VISIBLE$LINES
 10
508.8811410226327
 20
638.9266803473273
 30
0.0
 11
511.6811410226327
 21
638.9266803473273
 31
0.0
  0
LINE
  5
28C
  8
MAKE2D$VISIBLE$LINES
 10
511.6811410226327
 20
638.9266803473273
 30
0.0
 11
511.6811410226326
 21
609.0266803473273
 31
0.0
  0
LINE
  5
28D
  8
MAKE2D$VISIBLE$LINES
 10
337.8510408087612
 20
609.0266803473273
 30
0.0
 11
337.8510408087612
 21
638.9266803473273
 31
0.0
  0
LINE
  5
28E
  8
MAKE2D$VISIBLE$LINES
 10
337.8510408087612
 20
638.9266803473273
 30
0.0
 11
335.0510408087613
 21
638.9266803473273
 31
0.0
  0
LINE
  5
28F
  8
MAKE2D$VISIBLE$LINES
 10
335.0510408087613
 20
638.9266803473273
 30
0.0
 11
335.0510408087613
 21
579.1266803473274
 31
0.0
  0
LINE
  5
290
  8
MAKE2D$VISIBLE$LINES
 10
335.0510408087613
 20
579.1266803473274
 30
0.0
 11
337.8510408087612
 21
579.1266803473274
 31
0.0
  0
LINE
  5
291
  8
MAKE2D$VISIBLE$LINES
 10
337.8510408087612
 20
579.1266803473274
 30
0.0
 11
337.8510408087612
 21
609.0266803473273
 31
0.0
  0
LINE
  5
292
  8
MAKE2D$VISIBLE$LINES
 10
448.2554406171082
 20
609.3890270104712
 30
0.0
 11
440.5167511685428
 21
638.2702092165147
 31
0.0
  0
LINE
  5
293
  8
MAKE2D$VISIBLE$LINES
 10
440.5167511685428
 20
638.2702092165147
 30
0.0
 11
437.8121588549333
 21
637.5455158902276
 31
0.0
  0
LINE
  5
294
  8
MAKE2D$VISIBLE$LINES
 10
437.8121588549333
 20
637.5455158902276
 30
0.0
 11
453.2895377520641
 21
579.7831514781411
 31
0.0
  0
LINE
  5
295
  8
MAKE2D$VISIBLE$LINES
 10
453.2895377520641
 20
579.7831514781411
 30
0.0
 11
455.9941300656735
 21
580.5078448044281
 31
0.0
  0
LINE
  5
296
  8
MAKE2D$VISIBLE$LINES
 10
455.9941300656735
 20
580.5078448044281
 30
0.0
 11
448.2554406171082
 21
609.3890270104712
 31
0.0
  0
LINE
  5
297
  8
MAKE2D$VISIBLE$LINES
 10
479.2488783410814
 20
538.8909227447232
 30
0.0
 11
489.1016672367869
 21
502.1198139896997
 31
0.0
  0
LINE
  5
298
  8
MAKE2D$VISIBLE$LINES
 10
489.1016672367869
 20
502.1198139896997
 30
0.0
 11
324.9510408087611
 21
502.1198139896997
 31
0.0
  0
LINE
  5
299
  8
MAKE2D$VISIBLE$LINES
 10
324.9510408087611
 20
502.1198139896997
 30
0.0
 11
324.9510408087613
 21
715.933546704955
 31
0.0
  0
LINE
  5
29A
  8
MAKE2D$VISIBLE$LINES
 10
324.9510408087613
 20
715.933546704955
 30
0.0
 11
431.8104502250503
 21
715.933546704955
 31
0.0
  0
LINE
  5
29B
  8
MAKE2D$VISIBLE$LINES
 10
431.8104502250503
 20
715.933546704955
 30
0.0
 11
471.4843069880058
 21
567.8686975333956
 31
0.0
  0
LINE
  5
29C
  8
MAKE2D$VISIBLE$LINES
 10
471.4843069880058
 20
567.8686975333956
 30
0.0
 11
474.0036318265039
 21
568.5437485893428
 31
0.0
  0
LINE
  5
29D
  8
MAKE2D$VISIBLE$LINES
 10
474.0036318265039
 20
568.5437485893428
 30
0.0
 11
466.2317323372097
 21
597.5488723547073
 31
0.0
  0
LINE
  5
29E
  8
MAKE2D$VISIBLE$LINES
 10
466.2317323372097
 20
597.5488723547073
 30
0.0
 11
466.8568869732737
 21
597.7163820345852
 31
0.0
  0
LINE
  5
29F
  8
MAKE2D$VISIBLE$LINES
 10
466.8568869732737
 20
597.7163820345852
 30
0.0
 11
466.9048079257718
 21
597.7286637725991
 31
0.0
  0
LINE
  5
2A0
  8
MAKE2D$VISIBLE$LINES
 10
466.9048079257718
 20
597.7286637725991
 30
0.0
 11
466.9532918075256
 21
597.73996532838
 31
0.0
  0
LINE
  5
2A1
  8
MAKE2D$VISIBLE$LINES
 10
466.9532918075256
 20
597.73996532838
 30
0.0
 11
467.0023195749379
 21
597.7502616483503
 31
0.0
  0
LINE
  5
2A2
  8
MAKE2D$VISIBLE$LINES
 10
467.0023195749379
 20
597.7502616483503
 30
0.0
 11
467.0518710531131
 21
597.7595282956999
 31
0.0
  0
LINE
  5
2A3
  8
MAKE2D$VISIBLE$LINES
 10
467.0518710531131
 20
597.7595282956999
 30
0.0
 11
467.1019249430094
 21
597.7677415191444
 31
0.0
  0
LINE
  5
2A4
  8
MAKE2D$VISIBLE$LINES
 10
467.1019249430094
 20
597.7677415191444
 30
0.0
 11
467.152458832324
 21
597.7748783220304
 31
0.0
  0
LINE
  5
2A5
  8
MAKE2D$VISIBLE$LINES
 10
467.152458832324
 20
597.7748783220304
 30
0.0
 11
467.2034492102184
 21
597.7809165315016
 31
0.0
  0
LINE
  5
2A6
  8
MAKE2D$VISIBLE$LINES
 10
467.2034492102184
 20
597.7809165315016
 30
0.0
 11
467.2548714859727
 21
597.7858348674225
 31
0.0
  0
LINE
  5
2A7
  8
MAKE2D$VISIBLE$LINES
 10
467.2548714859727
 20
597.7858348674225
 30
0.0
 11
467.3067000116399
 21
597.7896130107526
 31
0.0
  0
LINE
  5
2A8
  8
MAKE2D$VISIBLE$LINES
 10
467.3067000116399
 20
597.7896130107526
 30
0.0
 11
467.3589081087509
 21
597.7922316710445
 31
0.0
  0
LINE
  5
2A9
  8
MAKE2D$VISIBLE$LINES
 10
467.3589081087509
 20
597.7922316710445
 30
0.0
 11
467.4114680990971
 21
597.7936726527346
 31
0.0
  0
LINE
  5
2AA
  8
MAKE2D$VISIBLE$LINES
 10
467.4114680990971
 20
597.7936726527346
 30
0.0
 11
467.4643513395973
 21
597.7939189198918
 31
0.0
  0
LINE
  5
2AB
  8
MAKE2D$VISIBLE$LINES
 10
467.4643513395973
 20
597.7939189198918
 30
0.0
 11
467.5175282612284
 21
597.79295465908
 31
0.0
  0
LINE
  5
2AC
  8
MAKE2D$VISIBLE$LINES
 10
467.5175282612284
 20
597.79295465908
 30
0.0
 11
467.5709684119776
 21
597.7907653399928
 31
0.0
  0
LINE
  5
2AD
  8
MAKE2D$VISIBLE$LINES
 10
467.5709684119776
 20
597.7907653399928
 30
0.0
 11
467.6246405037444
 21
597.7873377735169
 31
0.0
  0
LINE
  5
2AE
  8
MAKE2D$VISIBLE$LINES
 10
467.6246405037444
 20
597.7873377735169
 30
0.0
 11
467.6785124630981
 21
597.7826601668868
 31
0.0
  0
LINE
  5
2AF
  8
MAKE2D$VISIBLE$LINES
 10
467.6785124630981
 20
597.7826601668868
 30
0.0
 11
467.732551485767
 21
597.7767221756002
 31
0.0
  0
LINE
  5
2B0
  8
MAKE2D$VISIBLE$LINES
 10
467.732551485767
 20
597.7767221756002
 30
0.0
 11
467.7867240947112
 21
597.7695149517687
 31
0.0
  0
LINE
  5
2B1
  8
MAKE2D$VISIBLE$LINES
 10
467.7867240947112
 20
597.7695149517687
 30
0.0
 11
467.8409962016029
 21
597.7610311885943
 31
0.0
  0
LINE
  5
2B2
  8
MAKE2D$VISIBLE$LINES
 10
467.8409962016029
 20
597.7610311885943
 30
0.0
 11
467.8953331715138
 21
597.7512651606795
 31
0.0
  0
LINE
  5
2B3
  8
MAKE2D$VISIBLE$LINES
 10
467.8953331715138
 20
597.7512651606795
 30
0.0
 11
467.9496998905838
 21
597.7402127598875
 31
0.0
  0
LINE
  5
2B4
  8
MAKE2D$VISIBLE$LINES
 10
467.9496998905838
 20
597.7402127598875
 30
0.0
 11
468.0040608364212
 21
597.7278715265006
 31
0.0
  0
LINE
  5
2B5
  8
MAKE2D$VISIBLE$LINES
 10
468.0040608364212
 20
597.7278715265006
 30
0.0
 11
468.0583801509611
 21
597.7142406754405
 31
0.0
  0
LINE
  5
2B6
  8
MAKE2D$VISIBLE$LINES
 10
468.0583801509611
 20
597.7142406754405
 30
0.0
 11
468.1126217154909
 21
597.6993211173409
 31
0.0
  0
LINE
  5
2B7
  8
MAKE2D$VISIBLE$LINES
 10
468.1126217154909
 20
597.6993211173409
 30
0.0
 11
468.1667492275295
 21
597.6831154742938
 31
0.0
  0
LINE
  5
2B8
  8
MAKE2D$VISIBLE$LINES
 10
468.1667492275295
 20
597.6831154742938
 30
0.0
 11
468.2207262792305
 21
597.6656280901161
 31
0.0
  0
LINE
  5
2B9
  8
MAKE2D$VISIBLE$LINES
 10
468.2207262792305
 20
597.6656280901161
 30
0.0
 11
468.2745164369678
 21
597.6468650350189
 31
0.0
  0
LINE
  5
2BA
  8
MAKE2D$VISIBLE$LINES
 10
468.2745164369678
 20
597.6468650350189
 30
0.0
 11
468.3280833217443
 21
597.6268341045914
 31
0.0
  0
LINE
  5
2BB
  8
MAKE2D$VISIBLE$LINES
 10
468.3280833217443
 20
597.6268341045914
 30
0.0
 11
468.3813906900616
 21
597.6055448130458
 31
0.0
  0
LINE
  5
2BC
  8
MAKE2D$VISIBLE$LINES
 10
468.3813906900616
 20
597.6055448130458
 30
0.0
 11
468.4344025148758
 21
597.5830083807094
 31
0.0
  0
LINE
  5
2BD
  8
MAKE2D$VISIBLE$LINES
 10
468.4344025148758
 20
597.5830083807094
 30
0.0
 11
468.4870830662654
 21
597.559237715778
 31
0.0
  0
LINE
  5
2BE
  8
MAKE2D$VISIBLE$LINES
 10
468.4870830662654
 20
597.559237715778
 30
0.0
 11
468.5393969914329
 21
597.5342473903871
 31
0.0
  0
LINE
  5
2BF
  8
MAKE2D$VISIBLE$LINES
 10
468.5393969914329
 20
597.5342473903871
 30
0.0
 11
468.5913093936644
 21
597.508053611087
 31
0.0
  0
LINE
  5
2C0
  8
MAKE2D$VISIBLE$LINES
 10
468.5913093936644
 20
597.508053611087
 30
0.0
 11
468.6427859098815
 21
597.4806741838512
 31
0.0
  0
LINE
  5
2C1
  8
MAKE2D$VISIBLE$LINES
 10
468.6427859098815
 20
597.4806741838512
 30
0.0
 11
468.6937927864181
 21
597.4521284737706
 31
0.0
  0
LINE
  5
2C2
  8
MAKE2D$VISIBLE$LINES
 10
468.6937927864181
 20
597.4521284737706
 30
0.0
 11
468.7442969526774
 21
597.4224373596305
 31
0.0
  0
LINE
  5
2C3
  8
MAKE2D$VISIBLE$LINES
 10
468.7442969526774
 20
597.4224373596305
 30
0.0
 11
468.7942660923267
 21
597.3916231835885
 31
0.0
  0
LINE
  5
2C4
  8
MAKE2D$VISIBLE$LINES
 10
468.7942660923267
 20
597.3916231835885
 30
0.0
 11
468.8436687117142
 21
597.359709696208
 31
0.0
  0
LINE
  5
2C5
  8
MAKE2D$VISIBLE$LINES
 10
468.8436687117142
 20
597.359709696208
 30
0.0
 11
468.8924742052025
 21
597.3267219971252
 31
0.0
  0
LINE
  5
2C6
  8
MAKE2D$VISIBLE$LINES
 10
468.8924742052025
 20
597.3267219971252
 30
0.0
 11
468.9406529171403
 21
597.2926864716571
 31
0.0
  0
LINE
  5
2C7
  8
MAKE2D$VISIBLE$LINES
 10
468.9406529171403
 20
597.2926864716571
 30
0.0
 11
468.9881762002153
 21
597.2576307236735
 31
0.0
  0
LINE
  5
2C8
  8
MAKE2D$VISIBLE$LINES
 10
468.9881762002153
 20
597.2576307236735
 30
0.0
 11
469.0350164699534
 21
597.2215835050807
 31
0.0
  0
LINE
  5
2C9
  8
MAKE2D$VISIBLE$LINES
 10
469.0350164699534
 20
597.2215835050807
 30
0.0
 11
469.0811472551607
 21
597.1845746422803
 31
0.0
  0
LINE
  5
2CA
  8
MAKE2D$VISIBLE$LINES
 10
469.0811472551607
 20
597.1845746422803
 30
0.0
 11
469.1265432441286
 21
597.1466349599784
 31
0.0
  0
LINE
  5
2CB
  8
MAKE2D$VISIBLE$LINES
 10
469.1265432441286
 20
597.1466349599784
 30
0.0
 11
469.1711803264525
 21
597.1077962027326
 31
0.0
  0
LINE
  5
2CC
  8
MAKE2D$VISIBLE$LINES
 10
469.1711803264525
 20
597.1077962027326
 30
0.0
 11
469.2150356303437
 21
597.068090954628
 31
0.0
  0
LINE
  5
2CD
  8
MAKE2D$VISIBLE$LINES
 10
469.2150356303437
 20
597.068090954628
 30
0.0
 11
469.2580875553433
 21
597.0275525574816
 31
0.0
  0
LINE
  5
2CE
  8
MAKE2D$VISIBLE$LINES
 10
469.2580875553433
 20
597.0275525574816
 30
0.0
 11
469.3003158003766
 21
596.9862150279725
 31
0.0
  0
LINE
  5
2CF
  8
MAKE2D$VISIBLE$LINES
 10
469.3003158003766
 20
596.9862150279725
 30
0.0
 11
469.3417013871166
 21
596.9441129740931
 31
0.0
  0
LINE
  5
2D0
  8
MAKE2D$VISIBLE$LINES
 10
469.3417013871166
 20
596.9441129740931
 30
0.0
 11
469.3822266786531
 21
596.9012815113108
 31
0.0
  0
LINE
  5
2D1
  8
MAKE2D$VISIBLE$LINES
 10
469.3822266786531
 20
596.9012815113108
 30
0.0
 11
469.4218753934932
 21
596.8577561788237
 31
0.0
  0
LINE
  5
2D2
  8
MAKE2D$VISIBLE$LINES
 10
469.4218753934932
 20
596.8577561788237
 30
0.0
 11
469.4606326149425
 21
596.8135728562795
 31
0.0
  0
LINE
  5
2D3
  8
MAKE2D$VISIBLE$LINES
 10
469.4606326149425
 20
596.8135728562795
 30
0.0
 11
469.4984847959493
 21
596.7687676813155
 31
0.0
  0
LINE
  5
2D4
  8
MAKE2D$VISIBLE$LINES
 10
469.4984847959493
 20
596.7687676813155
 30
0.0
 11
469.5354197595104
 21
596.7233769682625
 31
0.0
  0
LINE
  5
2D5
  8
MAKE2D$VISIBLE$LINES
 10
469.5354197595104
 20
596.7233769682625
 30
0.0
 11
469.5714266947645
 21
596.6774371283359
 31
0.0
  0
LINE
  5
2D6
  8
MAKE2D$VISIBLE$LINES
 10
469.5714266947645
 20
596.6774371283359
 30
0.0
 11
469.6064961489206
 21
596.6309845916185
 31
0.0
  0
LINE
  5
2D7
  8
MAKE2D$VISIBLE$LINES
 10
469.6064961489206
 20
596.6309845916185
 30
0.0
 11
469.640620015184
 21
596.5840557311185
 31
0.0
  0
LINE
  5
2D8
  8
MAKE2D$VISIBLE$LINES
 10
469.640620015184
 20
596.5840557311185
 30
0.0
 11
469.6737915168646
 21
596.5366867891667
 31
0.0
  0
LINE
  5
2D9
  8
MAKE2D$VISIBLE$LINES
 10
469.6737915168646
 20
596.5366867891667
 30
0.0
 11
469.7060051878629
 21
596.4889138063854
 31
0.0
  0
LINE
  5
2DA
  8
MAKE2D$VISIBLE$LINES
 10
469.7060051878629
 20
596.4889138063854
 30
0.0
 11
469.7372568497437
 21
596.4407725534498
 31
0.0
  0
LINE
  5
2DB
  8
MAKE2D$VISIBLE$LINES
 10
469.7372568497437
 20
596.4407725534498
 30
0.0
 11
469.7968637110852
 21
596.343526581655
 31
0.0
  0
LINE
  5
2DC
  8
MAKE2D$VISIBLE$LINES
 10
469.7968637110852
 20
596.343526581655
 30
0.0
 11
469.8526033621936
 21
596.2452272399939
 31
0.0
  0
LINE
  5
2DD
  8
MAKE2D$VISIBLE$LINES
 10
469.8526033621936
 20
596.2452272399939
 30
0.0
 11
471.5128757436247
 21
593.0920420299957
 31
0.0
  0
LINE
  5
2DE
  8
MAKE2D$VISIBLE$LINES
 10
471.5128757436247
 20
593.0920420299957
 30
0.0
 11
473.071713602659
 21
589.9116775216365
 31
0.0
  0
LINE
  5
2DF
  8
MAKE2D$VISIBLE$LINES
 10
473.071713602659
 20
589.9116775216365
 30
0.0
 11
474.5291169392964
 21
586.7041337149166
 31
0.0
  0
LINE
  5
2E0
  8
MAKE2D$VISIBLE$LINES
 10
474.5291169392964
 20
586.7041337149166
 30
0.0
 11
475.8850857535369
 21
583.4694106098357
 31
0.0
  0
LINE
  5
2E1
  8
MAKE2D$VISIBLE$LINES
 10
475.8850857535369
 20
583.4694106098357
 30
0.0
 11
477.1396200453805
 21
580.2075082063939
 31
0.0
  0
LINE
  5
2E2
  8
MAKE2D$VISIBLE$LINES
 10
477.1396200453805
 20
580.2075082063939
 30
0.0
 11
478.2927198148273
 21
576.9184265045913
 31
0.0
  0
LINE
  5
2E3
  8
MAKE2D$VISIBLE$LINES
 10
478.2927198148273
 20
576.9184265045913
 30
0.0
 11
479.3443850618772
 21
573.6021655044277
 31
0.0
  0
LINE
  5
2E4
  8
MAKE2D$VISIBLE$LINES
 10
479.3443850618772
 20
573.6021655044277
 30
0.0
 11
480.2946157865303
 21
570.2587252059033
 31
0.0
  0
LINE
  5
2E5
  8
MAKE2D$VISIBLE$LINES
 10
480.2946157865303
 20
570.2587252059033
 30
0.0
 11
481.1434119887865
 21
566.888105609018
 31
0.0
  0
LINE
  5
2E6
  8
MAKE2D$VISIBLE$LINES
 10
481.1434119887865
 20
566.888105609018
 30
0.0
 11
481.8907736686458
 21
563.4903067137718
 31
0.0
  0
LINE
  5
2E7
  8
MAKE2D$VISIBLE$LINES
 10
481.8907736686458
 20
563.4903067137718
 30
0.0
 11
482.5367008261082
 21
560.0653285201647
 31
0.0
  0
LINE
  5
2E8
  8
MAKE2D$VISIBLE$LINES
 10
482.5367008261082
 20
560.0653285201647
 30
0.0
 11
483.0811934611738
 21
556.6131710281968
 31
0.0
  0
LINE
  5
2E9
  8
MAKE2D$VISIBLE$LINES
 10
483.0811934611738
 20
556.6131710281968
 30
0.0
 11
483.5242515738424
 21
553.133834237868
 31
0.0
  0
LINE
  5
2EA
  8
MAKE2D$VISIBLE$LINES
 10
483.5242515738424
 20
553.133834237868
 30
0.0
 11
483.8658751641143
 21
549.6273181491782
 31
0.0
  0
LINE
  5
2EB
  8
MAKE2D$VISIBLE$LINES
 10
483.8658751641143
 20
549.6273181491782
 30
0.0
 11
484.1060642319893
 21
546.0936227621277
 31
0.0
  0
LINE
  5
2EC
  8
MAKE2D$VISIBLE$LINES
 10
484.1060642319893
 20
546.0936227621277
 30
0.0
 11
484.2448187774673
 21
542.5327480767162
 31
0.0
  0
LINE
  5
2ED
  8
MAKE2D$VISIBLE$LINES
 10
484.2448187774673
 20
542.5327480767162
 30
0.0
 11
484.24569649444
 21
542.4197485241082
 31
0.0
  0
LINE
  5
2EE
  8
MAKE2D$VISIBLE$LINES
 10
484.24569649444
 20
542.4197485241082
 30
0.0
 11
484.2426984241758
 21
542.3057276114474
 31
0.0
  0
LINE
  5
2EF
  8
MAKE2D$VISIBLE$LINES
 10
484.2426984241758
 20
542.3057276114474
 30
0.0
 11
484.2397043175443
 21
542.2484102324947
 31
0.0
  0
LINE
  5
2F0
  8
MAKE2D$VISIBLE$LINES
 10
484.2397043175443
 20
542.2484102324947
 30
0.0
 11
484.2356929515014
 21
542.1909307802925
 31
0.0
  0
LINE
  5
2F1
  8
MAKE2D$VISIBLE$LINES
 10
484.2356929515014
 20
542.1909307802925
 30
0.0
 11
484.2306500593401
 21
542.1333223223714
 31
0.0
  0
LINE
  5
2F2
  8
MAKE2D$VISIBLE$LINES
 10
484.2306500593401
 20
542.1333223223714
 30
0.0
 11
484.2245623545306
 21
542.0756188038763
 31
0.0
  0
LINE
  5
2F3
  8
MAKE2D$VISIBLE$LINES
 10
484.2245623545306
 20
542.0756188038763
 30
0.0
 11
484.2174175846934
 21
542.0178549999306
 31
0.0
  0
LINE
  5
2F4
  8
MAKE2D$VISIBLE$LINES
 10
484.2174175846934
 20
542.0178549999306
 30
0.0
 11
484.2092045840141
 21
541.9600664638814
 31
0.0
  0
LINE
  5
2F5
  8
MAKE2D$VISIBLE$LINES
 10
484.2092045840141
 20
541.9600664638814
 30
0.0
 11
484.1999133238089
 21
541.9022894715011
 31
0.0
  0
LINE
  5
2F6
  8
MAKE2D$VISIBLE$LINES
 10
484.1999133238089
 20
541.9022894715011
 30
0.0
 11
484.1895349609502
 21
541.8445609612578
 31
0.0
  0
LINE
  5
2F7
  8
MAKE2D$VISIBLE$LINES
 10
484.1895349609502
 20
541.8445609612578
 30
0.0
 11
484.1780618838672
 21
541.7869184707863
 31
0.0
  0
LINE
  5
2F8
  8
MAKE2D$VISIBLE$LINES
 10
484.1780618838672
 20
541.7869184707863
 30
0.0
 11
484.1654877558319
 21
541.7294000697244
 31
0.0
  0
LINE
  5
2F9
  8
MAKE2D$VISIBLE$LINES
 10
484.1654877558319
 20
541.7294000697244
 30
0.0
 11
484.1518075552565
 21
541.6720442891053
 31
0.0
  0
LINE
  5
2FA
  8
MAKE2D$VISIBLE$LINES
 10
484.1518075552565
 20
541.6720442891053
 30
0.0
 11
484.1370176127289
 21
541.6148900475242
 31
0.0
  0
LINE
  5
2FB
  8
MAKE2D$VISIBLE$LINES
 10
484.1370176127289
 20
541.6148900475242
 30
0.0
 11
484.1211156445274
 21
541.557976574323
 31
0.0
  0
LINE
  5
2FC
  8
MAKE2D$VISIBLE$LINES
 10
484.1211156445274
 20
541.557976574323
 30
0.0
 11
484.1041007823692
 21
541.5013433300657
 31
0.0
  0
LINE
  5
2FD
  8
MAKE2D$VISIBLE$LINES
 10
484.1041007823692
 20
541.5013433300657
 30
0.0
 11
484.0859735991611
 21
541.4450299245979
 31
0.0
  0
LINE
  5
2FE
  8
MAKE2D$VISIBLE$LINES
 10
484.0859735991611
 20
541.4450299245979
 30
0.0
 11
484.0667361305405
 21
541.3890760330097
 31
0.0
  0
LINE
  5
2FF
  8
MAKE2D$VISIBLE$LINES
 10
484.0667361305405
 20
541.3890760330097
 30
0.0
 11
484.0463918920154
 21
541.333521309841
 31
0.0
  0
LINE
  5
300
  8
MAKE2D$VISIBLE$LINES
 10
484.0463918920154
 20
541.333521309841
 30
0.0
 11
484.0249458915296
 21
541.2784053018869
 31
0.0
  0
LINE
  5
301
  8
MAKE2D$VISIBLE$LINES
 10
484.0249458915296
 20
541.2784053018869
 30
0.0
 11
484.0024046373127
 21
541.2237673599806
 31
0.0
  0
LINE
  5
302
  8
MAKE2D$VISIBLE$LINES
 10
484.0024046373127
 20
541.2237673599806
 30
0.0
 11
483.9787761408903
 21
541.1696465501408
 31
0.0
  0
LINE
  5
303
  8
MAKE2D$VISIBLE$LINES
 10
483.9787761408903
 20
541.1696465501408
 30
0.0
 11
483.9540699151646
 21
541.1160815644854
 31
0.0
  0
LINE
  5
304
  8
MAKE2D$VISIBLE$LINES
 10
483.9540699151646
 20
541.1160815644854
 30
0.0
 11
483.9282969675009
 21
541.0631106323232
 31
0.0
  0
LINE
  5
305
  8
MAKE2D$VISIBLE$LINES
 10
483.9282969675009
 20
541.0631106323232
 30
0.0
 11
483.9014697877881
 21
541.0107714318343
 31
0.0
  0
LINE
  5
306
  8
MAKE2D$VISIBLE$LINES
 10
483.9014697877881
 20
541.0107714318343
 30
0.0
 11
483.8736023314674
 21
540.9591010027608
 31
0.0
  0
LINE
  5
307
  8
MAKE2D$VISIBLE$LINES
 10
483.8736023314674
 20
540.9591010027608
 30
0.0
 11
483.8447099975599
 21
540.9081356605193
 31
0.0
  0
LINE
  5
308
  8
MAKE2D$VISIBLE$LINES
 10
483.8447099975599
 20
540.9081356605193
 30
0.0
 11
483.8148096017517
 21
540.8579109121522
 31
0.0
  0
LINE
  5
309
  8
MAKE2D$VISIBLE$LINES
 10
483.8148096017517
 20
540.8579109121522
 30
0.0
 11
483.7839193446276
 21
540.8084613745162
 31
0.0
  0
LINE
  5
30A
  8
MAKE2D$VISIBLE$LINES
 10
483.7839193446276
 20
540.8084613745162
 30
0.0
 11
483.7520587751736
 21
540.7598206951054
 31
0.0
  0
LINE
  5
30B
  8
MAKE2D$VISIBLE$LINES
 10
483.7520587751736
 20
540.7598206951054
 30
0.0
 11
483.7192487497026
 21
540.7120214758843
 31
0.0
  0
LINE
  5
30C
  8
MAKE2D$VISIBLE$LINES
 10
483.7192487497026
 20
540.7120214758843
 30
0.0
 11
483.6855113863792
 21
540.6650952004941
 31
0.0
  0
LINE
  5
30D
  8
MAKE2D$VISIBLE$LINES
 10
483.6855113863792
 20
540.6650952004941
 30
0.0
 11
483.6508700155573
 21
540.619072165173
 31
0.0
  0
LINE
  5
30E
  8
MAKE2D$VISIBLE$LINES
 10
483.6508700155573
 20
540.619072165173
 30
0.0
 11
483.6153491261585
 21
540.5739814137072
 31
0.0
  0
LINE
  5
30F
  8
MAKE2D$VISIBLE$LINES
 10
483.6153491261585
 20
540.5739814137072
 30
0.0
 11
483.5789743083542
 21
540.5298506767072
 31
0.0
  0
LINE
  5
310
  8
MAKE2D$VISIBLE$LINES
 10
483.5789743083542
 20
540.5298506767072
 30
0.0
 11
483.5417721928288
 21
540.4867063154719
 31
0.0
  0
LINE
  5
311
  8
MAKE2D$VISIBLE$LINES
 10
483.5417721928288
 20
540.4867063154719
 30
0.0
 11
483.5037703869232
 21
540.4445732706778
 31
0.0
  0
LINE
  5
312
  8
MAKE2D$VISIBLE$LINES
 10
483.5037703869232
 20
540.4445732706778
 30
0.0
 11
483.4649974079777
 21
540.403475016095
 31
0.0
  0
LINE
  5
313
  8
MAKE2D$VISIBLE$LINES
 10
483.4649974079777
 20
540.403475016095
 30
0.0
 11
483.4254826142037
 21
540.3634335175025
 31
0.0
  0
LINE
  5
314
  8
MAKE2D$VISIBLE$LINES
 10
483.4254826142037
 20
540.3634335175025
 30
0.0
 11
483.3852561334261
 21
540.3244691969394
 31
0.0
  0
LINE
  5
315
  8
MAKE2D$VISIBLE$LINES
 10
483.3852561334261
 20
540.3244691969394
 30
0.0
 11
483.3443487900506
 21
540.2866009023937
 31
0.0
  0
LINE
  5
316
  8
MAKE2D$VISIBLE$LINES
 10
483.3443487900506
 20
540.2866009023937
 30
0.0
 11
483.3027920306114
 21
540.2498458829998
 31
0.0
  0
LINE
  5
317
  8
MAKE2D$VISIBLE$LINES
 10
483.3027920306114
 20
540.2498458829998
 30
0.0
 11
483.2606178482614
 21
540.214219769776
 31
0.0
  0
LINE
  5
318
  8
MAKE2D$VISIBLE$LINES
 10
483.2606178482614
 20
540.214219769776
 30
0.0
 11
483.2178587065634
 21
540.1797365619017
 31
0.0
  0
LINE
  5
319
  8
MAKE2D$VISIBLE$LINES
 10
483.2178587065634
 20
540.1797365619017
 30
0.0
 11
483.1745474629444
 21
540.1464086185006
 31
0.0
  0
LINE
  5
31A
  8
MAKE2D$VISIBLE$LINES
 10
483.1745474629444
 20
540.1464086185006
 30
0.0
 11
483.1307172921606
 21
540.1142466558646
 31
0.0
  0
LINE
  5
31B
  8
MAKE2D$VISIBLE$LINES
 10
483.1307172921606
 20
540.1142466558646
 30
0.0
 11
483.0864016101237
 21
540.0832597500173
 31
0.0
  0
LINE
  5
31C
  8
MAKE2D$VISIBLE$LINES
 10
483.0864016101237
 20
540.0832597500173
 30
0.0
 11
483.0416339984175
 21
540.0534553444924
 31
0.0
  0
LINE
  5
31D
  8
MAKE2D$VISIBLE$LINES
 10
483.0416339984175
 20
540.0534553444924
 30
0.0
 11
482.9964481298302
 21
540.0248392631712
 31
0.0
  0
LINE
  5
31E
  8
MAKE2D$VISIBLE$LINES
 10
482.9964481298302
 20
540.0248392631712
 30
0.0
 11
482.9508776952084
 21
539.9974157279969
 31
0.0
  0
LINE
  5
31F
  8
MAKE2D$VISIBLE$LINES
 10
482.9508776952084
 20
539.9974157279969
 30
0.0
 11
482.9049563319222
 21
539.9711873813611
 31
0.0
  0
LINE
  5
320
  8
MAKE2D$VISIBLE$LINES
 10
482.9049563319222
 20
539.9711873813611
 30
0.0
 11
482.8587175542146
 21
539.946155312938
 31
0.0
  0
LINE
  5
321
  8
MAKE2D$VISIBLE$LINES
 10
482.8587175542146
 20
539.946155312938
 30
0.0
 11
482.8121946856875
 21
539.9223190907193
 31
0.0
  0
LINE
  5
322
  8
MAKE2D$VISIBLE$LINES
 10
482.8121946856875
 20
539.9223190907193
 30
0.0
 11
482.7654207941538
 21
539.8996767959887
 31
0.0
  0
LINE
  5
323
  8
MAKE2D$VISIBLE$LINES
 10
482.7654207941538
 20
539.8996767959887
 30
0.0
 11
482.7184286290698
 21
539.8782250619633
 31
0.0
  0
LINE
  5
324
  8
MAKE2D$VISIBLE$LINES
 10
482.7184286290698
 20
539.8782250619633
 30
0.0
 11
482.6712505617292
 21
539.8579591158115
 31
0.0
  0
LINE
  5
325
  8
MAKE2D$VISIBLE$LINES
 10
482.6712505617292
 20
539.8579591158115
 30
0.0
 11
482.6239185283875
 21
539.8388728237554
 31
0.0
  0
LINE
  5
326
  8
MAKE2D$VISIBLE$LINES
 10
482.6239185283875
 20
539.8388728237554
 30
0.0
 11
482.5764639764569
 21
539.8209587389573
 31
0.0
  0
LINE
  5
327
  8
MAKE2D$VISIBLE$LINES
 10
482.5764639764569
 20
539.8209587389573
 30
0.0
 11
482.5289178138874
 21
539.8042081518823
 31
0.0
  0
LINE
  5
328
  8
MAKE2D$VISIBLE$LINES
 10
482.5289178138874
 20
539.8042081518823
 30
0.0
 11
482.4813103618324
 21
539.788611142836
 31
0.0
  0
LINE
  5
329
  8
MAKE2D$VISIBLE$LINES
 10
482.4813103618324
 20
539.788611142836
 30
0.0
 11
482.4336713106691
 21
539.7741566363675
 31
0.0
  0
LINE
  5
32A
  8
MAKE2D$VISIBLE$LINES
 10
482.4336713106691
 20
539.7741566363675
 30
0.0
 11
482.3860296794252
 21
539.7608324572411
 31
0.0
  0
LINE
  5
32B
  8
MAKE2D$VISIBLE$LINES
 10
482.3860296794252
 20
539.7608324572411
 30
0.0
 11
479.2415502048628
 21
538.918271721416
 31
0.0
  0
LINE
  5
32C
  8
MAKE2D$VISIBLE$LINES
 10
10.49999999999989
 20
606.3294258753294
 30
0.0
 11
6.755568841487161
 21
606.3294258753294
 31
0.0
  0
LINE
  5
32D
  8
MAKE2D$VISIBLE$LINES
 10
6.755568841487161
 20
606.3294258753294
 30
0.0
 11
6.698671107053467
 21
606.3288862681028
 31
0.0
  0
LINE
  5
32E
  8
MAKE2D$VISIBLE$LINES
 10
6.698671107053467
 20
606.3288862681028
 30
0.0
 11
6.641439742057442
 21
606.3272541807303
 31
0.0
  0
LINE
  5
32F
  8
MAKE2D$VISIBLE$LINES
 10
6.641439742057442
 20
606.3272541807303
 30
0.0
 11
6.583903362871271
 21
606.3245103421602
 31
0.0
  0
LINE
  5
330
  8
MAKE2D$VISIBLE$LINES
 10
6.583903362871271
 20
606.3245103421602
 30
0.0
 11
6.52609165915948
 21
606.3206363698935
 31
0.0
  0
LINE
  5
331
  8
MAKE2D$VISIBLE$LINES
 10
6.52609165915948
 20
606.3206363698935
 30
0.0
 11
6.468035365463155
 21
606.3156148345491
 31
0.0
  0
LINE
  5
332
  8
MAKE2D$VISIBLE$LINES
 10
6.468035365463155
 20
606.3156148345491
 30
0.0
 11
6.409766228533656
 21
606.3094293237963
 31
0.0
  0
LINE
  5
333
  8
MAKE2D$VISIBLE$LINES
 10
6.409766228533656
 20
606.3094293237963
 30
0.0
 11
6.351316970382235
 21
606.3020645053529
 31
0.0
  0
LINE
  5
334
  8
MAKE2D$VISIBLE$LINES
 10
6.351316970382235
 20
606.3020645053529
 30
0.0
 11
6.292721247035415
 21
606.2935061887337
 31
0.0
  0
LINE
  5
335
  8
MAKE2D$VISIBLE$LINES
 10
6.292721247035415
 20
606.2935061887337
 30
0.0
 11
6.234013603010686
 21
606.2837413854295
 31
0.0
  0
LINE
  5
336
  8
MAKE2D$VISIBLE$LINES
 10
6.234013603010686
 20
606.2837413854295
 30
0.0
 11
6.175229421552912
 21
606.2727583671947
 31
0.0
  0
LINE
  5
337
  8
MAKE2D$VISIBLE$LINES
 10
6.175229421552912
 20
606.2727583671947
 30
0.0
 11
6.116404870698664
 21
606.2605467221124
 31
0.0
  0
LINE
  5
338
  8
MAKE2D$VISIBLE$LINES
 10
6.116404870698664
 20
606.2605467221124
 30
0.0
 11
6.057576845263132
 21
606.2470974081114
 31
0.0
  0
LINE
  5
339
  8
MAKE2D$VISIBLE$LINES
 10
6.057576845263132
 20
606.2470974081114
 30
0.0
 11
5.998782904872456
 21
606.2324028036121
 31
0.0
  0
LINE
  5
33A
  8
MAKE2D$VISIBLE$LINES
 10
5.998782904872456
 20
606.2324028036121
 30
0.0
 11
5.940061208192443
 21
606.2164567549769
 31
0.0
  0
LINE
  5
33B
  8
MAKE2D$VISIBLE$LINES
 10
5.940061208192443
 20
606.2164567549769
 30
0.0
 11
5.88145044353312
 21
606.1992546204566
 31
0.0
  0
LINE
  5
33C
  8
MAKE2D$VISIBLE$LINES
 10
5.88145044353312
 20
606.1992546204566
 30
0.0
 11
5.822989756036518
 21
606.1807933103296
 31
0.0
  0
LINE
  5
33D
  8
MAKE2D$VISIBLE$LINES
 10
5.822989756036518
 20
606.1807933103296
 30
0.0
 11
5.764718671682645
 21
606.1610713229443
 31
0.0
  0
LINE
  5
33E
  8
MAKE2D$VISIBLE$LINES
 10
5.764718671682645
 20
606.1610713229443
 30
0.0
 11
5.706677018375208
 21
606.1400887763917
 31
0.0
  0
LINE
  5
33F
  8
MAKE2D$VISIBLE$LINES
 10
5.706677018375208
 20
606.1400887763917
 30
0.0
 11
5.648904844394241
 21
606.1178474355562
 31
0.0
  0
LINE
  5
340
  8
MAKE2D$VISIBLE$LINES
 10
5.648904844394241
 20
606.1178474355562
 30
0.0
 11
5.591442334526827
 21
606.0943507343068
 31
0.0
  0
LINE
  5
341
  8
MAKE2D$VISIBLE$LINES
 10
5.591442334526827
 20
606.0943507343068
 30
0.0
 11
5.534329724209546
 21
606.0696037926242
 31
0.0
  0
LINE
  5
342
  8
MAKE2D$VISIBLE$LINES
 10
5.534329724209546
 20
606.0696037926242
 30
0.0
 11
5.477607212036597
 21
606.0436134284752
 31
0.0
  0
LINE
  5
343
  8
MAKE2D$VISIBLE$LINES
 10
5.477607212036597
 20
606.0436134284752
 30
0.0
 11
5.421314871005761
 21
606.016388164282
 31
0.0
  0
LINE
  5
344
  8
MAKE2D$VISIBLE$LINES
 10
5.421314871005761
 20
606.016388164282
 30
0.0
 11
5.365492558889967
 21
605.9879382278604
 31
0.0
  0
LINE
  5
345
  8
MAKE2D$VISIBLE$LINES
 10
5.365492558889967
 20
605.9879382278604
 30
0.0
 11
5.310179828135102
 21
605.9582755477301
 31
0.0
  0
LINE
  5
346
  8
MAKE2D$VISIBLE$LINES
 10
5.310179828135102
 20
605.9582755477301
 30
0.0
 11
5.255415835694807
 21
605.9274137427398
 31
0.0
  0
LINE
  5
347
  8
MAKE2D$VISIBLE$LINES
 10
5.255415835694807
 20
605.9274137427398
 30
0.0
 11
5.201239253219827
 21
605.89536810598
 31
0.0
  0
LINE
  5
348
  8
MAKE2D$VISIBLE$LINES
 10
5.201239253219827
 20
605.89536810598
 30
0.0
 11
5.147688178023267
 21
605.8621555829883
 31
0.0
  0
LINE
  5
349
  8
MAKE2D$VISIBLE$LINES
 10
5.147688178023267
 20
605.8621555829883
 30
0.0
 11
5.09480004524347
 21
605.8277947442962
 31
0.0
  0
LINE
  5
34A
  8
MAKE2D$VISIBLE$LINES
 10
5.09480004524347
 20
605.8277947442962
 30
0.0
 11
5.042611541623333
 21
605.7923057523924
 31
0.0
  0
LINE
  5
34B
  8
MAKE2D$VISIBLE$LINES
 10
5.042611541623333
 20
605.7923057523924
 30
0.0
 11
4.991158521318537
 21
605.7557103232211
 31
0.0
  0
LINE
  5
34C
  8
MAKE2D$VISIBLE$LINES
 10
4.991158521318537
 20
605.7557103232211
 30
0.0
 11
4.940475924137492
 21
605.7180316823611
 31
0.0
  0
LINE
  5
34D
  8
MAKE2D$VISIBLE$LINES
 10
4.940475924137492
 20
605.7180316823611
 30
0.0
 11
4.890597696602883
 21
605.6792945160724
 31
0.0
  0
LINE
  5
34E
  8
MAKE2D$VISIBLE$LINES
 10
4.890597696602883
 20
605.6792945160724
 30
0.0
 11
4.84155671620856
 21
605.6395249174237
 31
0.0
  0
LINE
  5
34F
  8
MAKE2D$VISIBLE$LINES
 10
4.84155671620856
 20
605.6395249174237
 30
0.0
 11
4.793384719226391
 21
605.5987503277483
 31
0.0
  0
LINE
  5
350
  8
MAKE2D$VISIBLE$LINES
 10
4.793384719226391
 20
605.5987503277483
 30
0.0
 11
4.746112232395669
 21
605.5569994737043
 31
0.0
  0
LINE
  5
351
  8
MAKE2D$VISIBLE$LINES
 10
4.746112232395669
 20
605.5569994737043
 30
0.0
 11
4.699768508803124
 21
605.5143023002411
 31
0.0
  0
LINE
  5
352
  8
MAKE2D$VISIBLE$LINES
 10
4.699768508803124
 20
605.5143023002411
 30
0.0
 11
4.654381468234511
 21
605.4706898997975
 31
0.0
  0
LINE
  5
353
  8
MAKE2D$VISIBLE$LINES
 10
4.654381468234511
 20
605.4706898997975
 30
0.0
 11
4.609977642249752
 21
605.4261944380834
 31
0.0
  0
LINE
  5
354
  8
MAKE2D$VISIBLE$LINES
 10
4.609977642249752
 20
605.4261944380834
 30
0.0
 11
4.566582124202674
 21
605.3808490768045
 31
0.0
  0
LINE
  5
355
  8
MAKE2D$VISIBLE$LINES
 10
4.566582124202674
 20
605.3808490768045
 30
0.0
 11
4.524218524394049
 21
605.3346878937216
 31
0.0
  0
LINE
  5
356
  8
MAKE2D$VISIBLE$LINES
 10
4.524218524394049
 20
605.3346878937216
 30
0.0
 11
4.48290893051318
 21
605.287745800431
 31
0.0
  0
LINE
  5
357
  8
MAKE2D$VISIBLE$LINES
 10
4.48290893051318
 20
605.287745800431
 30
0.0
 11
4.442673873488949
 21
605.2400584582733
 31
0.0
  0
LINE
  5
358
  8
MAKE2D$VISIBLE$LINES
 10
4.442673873488949
 20
605.2400584582733
 30
0.0
 11
4.403532298836575
 21
605.1916621927805
 31
0.0
  0
LINE
  5
359
  8
MAKE2D$VISIBLE$LINES
 10
4.403532298836575
 20
605.1916621927805
 30
0.0
 11
4.365501543551444
 21
605.1425939070728
 31
0.0
  0
LINE
  5
35A
  8
MAKE2D$VISIBLE$LINES
 10
4.365501543551444
 20
605.1425939070728
 30
0.0
 11
4.328597318566834
 21
605.0928909946134
 31
0.0
  0
LINE
  5
35B
  8
MAKE2D$VISIBLE$LINES
 10
4.328597318566834
 20
605.0928909946134
 30
0.0
 11
4.292833696758359
 21
605.0425912517352
 31
0.0
  0
LINE
  5
35C
  8
MAKE2D$VISIBLE$LINES
 10
4.292833696758359
 20
605.0425912517352
 30
0.0
 11
4.258223106444817
 21
604.9917327903314
 31
0.0
  0
LINE
  5
35D
  8
MAKE2D$VISIBLE$LINES
 10
4.258223106444817
 20
604.9917327903314
 30
0.0
 11
4.224776330303201
 21
604.9403539511085
 31
0.0
  0
LINE
  5
35E
  8
MAKE2D$VISIBLE$LINES
 10
4.224776330303201
 20
604.9403539511085
 30
0.0
 11
4.192502509585235
 21
604.8884932177712
 31
0.0
  0
LINE
  5
35F
  8
MAKE2D$VISIBLE$LINES
 10
4.192502509585235
 20
604.8884932177712
 30
0.0
 11
4.161409153493946
 21
604.8361891325097
 31
0.0
  0
LINE
  5
360
  8
MAKE2D$VISIBLE$LINES
 10
4.161409153493946
 20
604.8361891325097
 30
0.0
 11
4.131502153552067
 21
604.7834802131265
 31
0.0
  0
LINE
  5
361
  8
MAKE2D$VISIBLE$LINES
 10
4.131502153552067
 20
604.7834802131265
 30
0.0
 11
4.102785802769286
 21
604.7304048721343
 31
0.0
  0
LINE
  5
362
  8
MAKE2D$VISIBLE$LINES
 10
4.102785802769286
 20
604.7304048721343
 30
0.0
 11
4.075262819393011
 21
604.677001338123
 31
0.0
  0
LINE
  5
363
  8
MAKE2D$VISIBLE$LINES
 10
4.075262819393011
 20
604.677001338123
 30
0.0
 11
4.048934375007257
 21
604.6233075796829
 31
0.0
  0
LINE
  5
364
  8
MAKE2D$VISIBLE$LINES
 10
4.048934375007257
 20
604.6233075796829
 30
0.0
 11
4.023800126726756
 21
604.5693612321339
 31
0.0
  0
LINE
  5
365
  8
MAKE2D$VISIBLE$LINES
 10
4.023800126726756
 20
604.5693612321339
 30
0.0
 11
3.999858253218451
 21
604.5151995272971
 31
0.0
  0
LINE
  5
366
  8
MAKE2D$VISIBLE$LINES
 10
3.999858253218451
 20
604.5151995272971
 30
0.0
 11
3.977105494270146
 21
604.4608592265123
 31
0.0
  0
LINE
  5
367
  8
MAKE2D$VISIBLE$LINES
 10
3.977105494270146
 20
604.4608592265123
 30
0.0
 11
3.955537193616279
 21
604.406376557078
 31
0.0
  0
LINE
  5
368
  8
MAKE2D$VISIBLE$LINES
 10
3.955537193616279
 20
604.406376557078
 30
0.0
 11
3.935147344723579
 21
604.3517871522716
 31
0.0
  0
LINE
  5
369
  8
MAKE2D$VISIBLE$LINES
 10
3.935147344723579
 20
604.3517871522716
 30
0.0
 11
3.915928639234574
 21
604.2971259950712
 31
0.0
  0
LINE
  5
36A
  8
MAKE2D$VISIBLE$LINES
 10
3.915928639234574
 20
604.2971259950712
 30
0.0
 11
3.897872517764625
 21
604.2424273656786
 31
0.0
  0
LINE
  5
36B
  8
MAKE2D$VISIBLE$LINES
 10
3.897872517764625
 20
604.2424273656786
 30
0.0
 11
3.880969222748088
 21
604.187724792923
 31
0.0
  0
LINE
  5
36C
  8
MAKE2D$VISIBLE$LINES
 10
3.880969222748088
 20
604.187724792923
 30
0.0
 11
3.865207853031393
 21
604.1330510095868
 31
0.0
  0
LINE
  5
36D
  8
MAKE2D$VISIBLE$LINES
 10
3.865207853031393
 20
604.1330510095868
 30
0.0
 11
2.95929976247716
 21
600.6575978678046
 31
0.0
  0
LINE
  5
36E
  8
MAKE2D$VISIBLE$LINES
 10
2.95929976247716
 20
600.6575978678046
 30
0.0
 11
2.174179417330159
 21
597.1821447260224
 31
0.0
  0
LINE
  5
36F
  8
MAKE2D$VISIBLE$LINES
 10
2.174179417330159
 20
597.1821447260224
 30
0.0
 11
1.509846817590388
 21
593.7066915842403
 31
0.0
  0
LINE
  5
370
  8
MAKE2D$VISIBLE$LINES
 10
1.509846817590388
 20
593.7066915842403
 30
0.0
 11
0.9663019632578482
 21
590.2312384424581
 31
0.0
  0
LINE
  5
371
  8
MAKE2D$VISIBLE$LINES
 10
0.9663019632578482
 20
590.2312384424581
 30
0.0
 11
0.5435448543325396
 21
586.7557853006759
 31
0.0
  0
LINE
  5
372
  8
MAKE2D$VISIBLE$LINES
 10
0.5435448543325396
 20
586.7557853006759
 30
0.0
 11
0.2415754908144621
 21
583.2803321588938
 31
0.0
  0
LINE
  5
373
  8
MAKE2D$VISIBLE$LINES
 10
0.2415754908144621
 20
583.2803321588938
 30
0.0
 11
0.0603938727036155
 21
579.8048790171116
 31
0.0
  0
LINE
  5
374
  8
MAKE2D$VISIBLE$LINES
 10
0.0603938727036155
 20
579.8048790171116
 30
0.0
 11
0.0
 21
576.3294258753294
 31
0.0
  0
LINE
  5
375
  8
MAKE2D$VISIBLE$LINES
 10
0.0
 20
576.3294258753294
 30
0.0
 11
0.0603938727036155
 21
572.8539727335473
 31
0.0
  0
LINE
  5
376
  8
MAKE2D$VISIBLE$LINES
 10
0.0603938727036155
 20
572.8539727335473
 30
0.0
 11
0.2415754908144621
 21
569.3785195917651
 31
0.0
  0
LINE
  5
377
  8
MAKE2D$VISIBLE$LINES
 10
0.2415754908144621
 20
569.3785195917651
 30
0.0
 11
0.5435448543325396
 21
565.9030664499829
 31
0.0
  0
LINE
  5
378
  8
MAKE2D$VISIBLE$LINES
 10
0.5435448543325396
 20
565.9030664499829
 30
0.0
 11
0.9663019632578482
 21
562.4276133082008
 31
0.0
  0
LINE
  5
379
  8
MAKE2D$VISIBLE$LINES
 10
0.9663019632578482
 20
562.4276133082008
 30
0.0
 11
1.509846817590388
 21
558.9521601664187
 31
0.0
  0
LINE
  5
37A
  8
MAKE2D$VISIBLE$LINES
 10
1.509846817590388
 20
558.9521601664187
 30
0.0
 11
2.174179417330159
 21
555.4767070246365
 31
0.0
  0
LINE
  5
37B
  8
MAKE2D$VISIBLE$LINES
 10
2.174179417330159
 20
555.4767070246365
 30
0.0
 11
2.95929976247716
 21
552.0012538828544
 31
0.0
  0
LINE
  5
37C
  8
MAKE2D$VISIBLE$LINES
 10
2.95929976247716
 20
552.0012538828544
 30
0.0
 11
3.865207853031393
 21
548.5258007410723
 31
0.0
  0
LINE
  5
37D
  8
MAKE2D$VISIBLE$LINES
 10
3.865207853031393
 20
548.5258007410723
 30
0.0
 11
3.880969222748088
 21
548.471126957736
 31
0.0
  0
LINE
  5
37E
  8
MAKE2D$VISIBLE$LINES
 10
3.880969222748088
 20
548.471126957736
 30
0.0
 11
3.897872517764623
 21
548.4164243849804
 31
0.0
  0
LINE
  5
37F
  8
MAKE2D$VISIBLE$LINES
 10
3.897872517764623
 20
548.4164243849804
 30
0.0
 11
3.915928639234572
 21
548.3617257555878
 31
0.0
  0
LINE
  5
380
  8
MAKE2D$VISIBLE$LINES
 10
3.915928639234572
 20
548.3617257555878
 30
0.0
 11
3.935147344723577
 21
548.3070645983873
 31
0.0
  0
LINE
  5
381
  8
MAKE2D$VISIBLE$LINES
 10
3.935147344723577
 20
548.3070645983873
 30
0.0
 11
3.955537193616277
 21
548.2524751935811
 31
0.0
  0
LINE
  5
382
  8
MAKE2D$VISIBLE$LINES
 10
3.955537193616277
 20
548.2524751935811
 30
0.0
 11
3.977105494270144
 21
548.1979925241466
 31
0.0
  0
LINE
  5
383
  8
MAKE2D$VISIBLE$LINES
 10
3.977105494270144
 20
548.1979925241466
 30
0.0
 11
3.99985825321845
 21
548.1436522233618
 31
0.0
  0
LINE
  5
384
  8
MAKE2D$VISIBLE$LINES
 10
3.99985825321845
 20
548.1436522233618
 30
0.0
 11
4.023800126726757
 21
548.0894905185252
 31
0.0
  0
LINE
  5
385
  8
MAKE2D$VISIBLE$LINES
 10
4.023800126726757
 20
548.0894905185252
 30
0.0
 11
4.048934375007259
 21
548.0355441709761
 31
0.0
  0
LINE
  5
386
  8
MAKE2D$VISIBLE$LINES
 10
4.048934375007259
 20
548.0355441709761
 30
0.0
 11
4.075262819393015
 21
547.9818504125359
 31
0.0
  0
LINE
  5
387
  8
MAKE2D$VISIBLE$LINES
 10
4.075262819393015
 20
547.9818504125359
 30
0.0
 11
4.102785802769291
 21
547.9284468785246
 31
0.0
  0
LINE
  5
388
  8
MAKE2D$VISIBLE$LINES
 10
4.102785802769291
 20
547.9284468785246
 30
0.0
 11
4.131502153552076
 21
547.8753715375323
 31
0.0
  0
LINE
  5
389
  8
MAKE2D$VISIBLE$LINES
 10
4.131502153552076
 20
547.8753715375323
 30
0.0
 11
4.161409153493959
 21
547.8226626181491
 31
0.0
  0
LINE
  5
38A
  8
MAKE2D$VISIBLE$LINES
 10
4.161409153493959
 20
547.8226626181491
 30
0.0
 11
4.192502509585249
 21
547.7703585328877
 31
0.0
  0
LINE
  5
38B
  8
MAKE2D$VISIBLE$LINES
 10
4.192502509585249
 20
547.7703585328877
 30
0.0
 11
4.22477633030322
 21
547.7184977995506
 31
0.0
  0
LINE
  5
38C
  8
MAKE2D$VISIBLE$LINES
 10
4.22477633030322
 20
547.7184977995506
 30
0.0
 11
4.258223106444839
 21
547.6671189603275
 31
0.0
  0
LINE
  5
38D
  8
MAKE2D$VISIBLE$LINES
 10
4.258223106444839
 20
547.6671189603275
 30
0.0
 11
4.292833696758386
 21
547.6162604989237
 31
0.0
  0
LINE
  5
38E
  8
MAKE2D$VISIBLE$LINES
 10
4.292833696758386
 20
547.6162604989237
 30
0.0
 11
4.328597318566865
 21
547.5659607560453
 31
0.0
  0
LINE
  5
38F
  8
MAKE2D$VISIBLE$LINES
 10
4.328597318566865
 20
547.5659607560453
 30
0.0
 11
4.36550154355148
 21
547.5162578435861
 31
0.0
  0
LINE
  5
390
  8
MAKE2D$VISIBLE$LINES
 10
4.36550154355148
 20
547.5162578435861
 30
0.0
 11
4.403532298836618
 21
547.4671895578782
 31
0.0
  0
LINE
  5
391
  8
MAKE2D$VISIBLE$LINES
 10
4.403532298836618
 20
547.4671895578782
 30
0.0
 11
4.442673873488997
 21
547.4187932923857
 31
0.0
  0
LINE
  5
392
  8
MAKE2D$VISIBLE$LINES
 10
4.442673873488997
 20
547.4187932923857
 30
0.0
 11
4.482908930513234
 21
547.3711059502278
 31
0.0
  0
LINE
  5
393
  8
MAKE2D$VISIBLE$LINES
 10
4.482908930513234
 20
547.3711059502278
 30
0.0
 11
4.52421852439411
 21
547.3241638569372
 31
0.0
  0
LINE
  5
394
  8
MAKE2D$VISIBLE$LINES
 10
4.52421852439411
 20
547.3241638569372
 30
0.0
 11
4.566582124202741
 21
547.2780026738543
 31
0.0
  0
LINE
  5
395
  8
MAKE2D$VISIBLE$LINES
 10
4.566582124202741
 20
547.2780026738543
 30
0.0
 11
4.609977642249826
 21
547.2326573125756
 31
0.0
  0
LINE
  5
396
  8
MAKE2D$VISIBLE$LINES
 10
4.609977642249826
 20
547.2326573125756
 30
0.0
 11
4.654381468234591
 21
547.1881618508612
 31
0.0
  0
LINE
  5
397
  8
MAKE2D$VISIBLE$LINES
 10
4.654381468234591
 20
547.1881618508612
 30
0.0
 11
4.699768508803211
 21
547.1445494504177
 31
0.0
  0
LINE
  5
398
  8
MAKE2D$VISIBLE$LINES
 10
4.699768508803211
 20
547.1445494504177
 30
0.0
 11
4.746112232395765
 21
547.1018522769544
 31
0.0
  0
LINE
  5
399
  8
MAKE2D$VISIBLE$LINES
 10
4.746112232395765
 20
547.1018522769544
 30
0.0
 11
4.793384719226495
 21
547.0601014229105
 31
0.0
  0
LINE
  5
39A
  8
MAKE2D$VISIBLE$LINES
 10
4.793384719226495
 20
547.0601014229105
 30
0.0
 11
4.841556716208674
 21
547.0193268332351
 31
0.0
  0
LINE
  5
39B
  8
MAKE2D$VISIBLE$LINES
 10
4.841556716208674
 20
547.0193268332351
 30
0.0
 11
4.890597696603003
 21
546.9795572345862
 31
0.0
  0
LINE
  5
39C
  8
MAKE2D$VISIBLE$LINES
 10
4.890597696603003
 20
546.9795572345862
 30
0.0
 11
4.940475924137623
 21
546.9408200682977
 31
0.0
  0
LINE
  5
39D
  8
MAKE2D$VISIBLE$LINES
 10
4.940475924137623
 20
546.9408200682977
 30
0.0
 11
4.991158521318676
 21
546.9031414274377
 31
0.0
  0
LINE
  5
39E
  8
MAKE2D$VISIBLE$LINES
 10
4.991158521318676
 20
546.9031414274377
 30
0.0
 11
5.042611541623483
 21
546.8665459982665
 31
0.0
  0
LINE
  5
39F
  8
MAKE2D$VISIBLE$LINES
 10
5.042611541623483
 20
546.8665459982665
 30
0.0
 11
5.094800045243628
 21
546.8310570063627
 31
0.0
  0
LINE
  5
3A0
  8
MAKE2D$VISIBLE$LINES
 10
5.094800045243628
 20
546.8310570063627
 30
0.0
 11
5.147688178023436
 21
546.7966961676706
 31
0.0
  0
LINE
  5
3A1
  8
MAKE2D$VISIBLE$LINES
 10
5.147688178023436
 20
546.7966961676706
 30
0.0
 11
5.201239253220005
 21
546.7634836446789
 31
0.0
  0
LINE
  5
3A2
  8
MAKE2D$VISIBLE$LINES
 10
5.201239253220005
 20
546.7634836446789
 30
0.0
 11
5.255415835694995
 21
546.7314380079191
 31
0.0
  0
LINE
  5
3A3
  8
MAKE2D$VISIBLE$LINES
 10
5.255415835694995
 20
546.7314380079191
 30
0.0
 11
5.310179828135301
 21
546.7005762029289
 31
0.0
  0
LINE
  5
3A4
  8
MAKE2D$VISIBLE$LINES
 10
5.310179828135301
 20
546.7005762029289
 30
0.0
 11
5.365492558890177
 21
546.6709135227984
 31
0.0
  0
LINE
  5
3A5
  8
MAKE2D$VISIBLE$LINES
 10
5.365492558890177
 20
546.6709135227984
 30
0.0
 11
5.421314871005981
 21
546.6424635863766
 31
0.0
  0
LINE
  5
3A6
  8
MAKE2D$VISIBLE$LINES
 10
5.421314871005981
 20
546.6424635863766
 30
0.0
 11
5.477607212036827
 21
546.6152383221837
 31
0.0
  0
LINE
  5
3A7
  8
MAKE2D$VISIBLE$LINES
 10
5.477607212036827
 20
546.6152383221837
 30
0.0
 11
5.534329724209788
 21
546.5892479580344
 31
0.0
  0
LINE
  5
3A8
  8
MAKE2D$VISIBLE$LINES
 10
5.534329724209788
 20
546.5892479580344
 30
0.0
 11
5.591442334527081
 21
546.5645010163519
 31
0.0
  0
LINE
  5
3A9
  8
MAKE2D$VISIBLE$LINES
 10
5.591442334527081
 20
546.5645010163519
 30
0.0
 11
5.648904844394503
 21
546.5410043151026
 31
0.0
  0
LINE
  5
3AA
  8
MAKE2D$VISIBLE$LINES
 10
5.648904844394503
 20
546.5410043151026
 30
0.0
 11
5.706677018375482
 21
546.5187629742669
 31
0.0
  0
LINE
  5
3AB
  8
MAKE2D$VISIBLE$LINES
 10
5.706677018375482
 20
546.5187629742669
 30
0.0
 11
5.764718671682929
 21
546.4977804277144
 31
0.0
  0
LINE
  5
3AC
  8
MAKE2D$VISIBLE$LINES
 10
5.764718671682929
 20
546.4977804277144
 30
0.0
 11
5.822989756036813
 21
546.4780584403292
 31
0.0
  0
LINE
  5
3AD
  8
MAKE2D$VISIBLE$LINES
 10
5.822989756036813
 20
546.4780584403292
 30
0.0
 11
5.881450443533425
 21
546.4595971302024
 31
0.0
  0
LINE
  5
3AE
  8
MAKE2D$VISIBLE$LINES
 10
5.881450443533425
 20
546.4595971302024
 30
0.0
 11
5.940061208192759
 21
546.4423949956819
 31
0.0
  0
LINE
  5
3AF
  8
MAKE2D$VISIBLE$LINES
 10
5.940061208192759
 20
546.4423949956819
 30
0.0
 11
5.998782904872785
 21
546.4264489470465
 31
0.0
  0
LINE
  5
3B0
  8
MAKE2D$VISIBLE$LINES
 10
5.998782904872785
 20
546.4264489470465
 30
0.0
 11
6.057576845263471
 21
546.4117543425473
 31
0.0
  0
LINE
  5
3B1
  8
MAKE2D$VISIBLE$LINES
 10
6.057576845263471
 20
546.4117543425473
 30
0.0
 11
6.116404870699012
 21
546.3983050285465
 31
0.0
  0
LINE
  5
3B2
  8
MAKE2D$VISIBLE$LINES
 10
6.116404870699012
 20
546.3983050285465
 30
0.0
 11
6.175229421553272
 21
546.3860933834642
 31
0.0
  0
LINE
  5
3B3
  8
MAKE2D$VISIBLE$LINES
 10
6.175229421553272
 20
546.3860933834642
 30
0.0
 11
6.234013603011054
 21
546.3751103652294
 31
0.0
  0
LINE
  5
3B4
  8
MAKE2D$VISIBLE$LINES
 10
6.234013603011054
 20
546.3751103652294
 30
0.0
 11
6.292721247035795
 21
546.3653455619253
 31
0.0
  0
LINE
  5
3B5
  8
MAKE2D$VISIBLE$LINES
 10
6.292721247035795
 20
546.3653455619253
 30
0.0
 11
6.351316970382624
 21
546.3567872453059
 31
0.0
  0
LINE
  5
3B6
  8
MAKE2D$VISIBLE$LINES
 10
6.351316970382624
 20
546.3567872453059
 30
0.0
 11
6.409766228534054
 21
546.3494224268626
 31
0.0
  0
LINE
  5
3B7
  8
MAKE2D$VISIBLE$LINES
 10
6.409766228534054
 20
546.3494224268626
 30
0.0
 11
6.468035365463563
 21
546.3432369161098
 31
0.0
  0
LINE
  5
3B8
  8
MAKE2D$VISIBLE$LINES
 10
6.468035365463563
 20
546.3432369161098
 30
0.0
 11
6.526091659159899
 21
546.3382153807654
 31
0.0
  0
LINE
  5
3B9
  8
MAKE2D$VISIBLE$LINES
 10
6.526091659159899
 20
546.3382153807654
 30
0.0
 11
6.583903362871697
 21
546.3343414084985
 31
0.0
  0
LINE
  5
3BA
  8
MAKE2D$VISIBLE$LINES
 10
6.583903362871697
 20
546.3343414084985
 30
0.0
 11
6.641439742057877
 21
546.3315975699284
 31
0.0
  0
LINE
  5
3BB
  8
MAKE2D$VISIBLE$LINES
 10
6.641439742057877
 20
546.3315975699284
 30
0.0
 11
6.698671107053913
 21
546.3299654825561
 31
0.0
  0
LINE
  5
3BC
  8
MAKE2D$VISIBLE$LINES
 10
6.698671107053913
 20
546.3299654825561
 30
0.0
 11
6.755568841487616
 21
546.3294258753294
 31
0.0
  0
LINE
  5
3BD
  8
MAKE2D$VISIBLE$LINES
 10
6.755568841487616
 20
546.3294258753294
 30
0.0
 11
7.499999999999886
 21
546.3294258753294
 31
0.0
  0
LINE
  5
3BE
  8
MAKE2D$VISIBLE$LINES
 10
7.499999999999886
 20
546.3294258753294
 30
0.0
 11
7.499999999999886
 21
576.3577396194578
 31
0.0
  0
LINE
  5
3BF
  8
MAKE2D$VISIBLE$LINES
 10
7.499999999999886
 20
576.3577396194578
 30
0.0
 11
10.49999999999989
 21
576.3577396194578
 31
0.0
  0
LINE
  5
3C0
  8
MAKE2D$VISIBLE$LINES
 10
10.49999999999989
 20
576.3577396194578
 30
0.0
 11
10.49999999999989
 21
497.3816049443044
 31
0.0
  0
LINE
  5
3C1
  8
MAKE2D$VISIBLE$LINES
 10
10.49999999999989
 20
497.3816049443044
 30
0.0
 11
309.499999999999
 21
497.3816049443044
 31
0.0
  0
LINE
  5
3C2
  8
MAKE2D$VISIBLE$LINES
 10
309.499999999999
 20
497.3816049443044
 30
0.0
 11
309.499999999999
 21
576.3577396194578
 31
0.0
  0
LINE
  5
3C3
  8
MAKE2D$VISIBLE$LINES
 10
309.499999999999
 20
576.3577396194578
 30
0.0
 11
312.499999999999
 21
576.3577396194578
 31
0.0
  0
LINE
  5
3C4
  8
MAKE2D$VISIBLE$LINES
 10
312.499999999999
 20
576.3577396194578
 30
0.0
 11
312.499999999999
 21
546.3294258753294
 31
0.0
  0
LINE
  5
3C5
  8
MAKE2D$VISIBLE$LINES
 10
312.499999999999
 20
546.3294258753294
 30
0.0
 11
313.2444311585112
 21
546.3294258753294
 31
0.0
  0
LINE
  5
3C6
  8
MAKE2D$VISIBLE$LINES
 10
313.2444311585112
 20
546.3294258753294
 30
0.0
 11
313.301328892945
 21
546.3299654825561
 31
0.0
  0
LINE
  5
3C7
  8
MAKE2D$VISIBLE$LINES
 10
313.301328892945
 20
546.3299654825561
 30
0.0
 11
313.358560257941
 21
546.3315975699284
 31
0.0
  0
LINE
  5
3C8
  8
MAKE2D$VISIBLE$LINES
 10
313.358560257941
 20
546.3315975699284
 30
0.0
 11
313.4160966371272
 21
546.3343414084985
 31
0.0
  0
LINE
  5
3C9
  8
MAKE2D$VISIBLE$LINES
 10
313.4160966371272
 20
546.3343414084985
 30
0.0
 11
313.473908340839
 21
546.3382153807654
 31
0.0
  0
LINE
  5
3CA
  8
MAKE2D$VISIBLE$LINES
 10
313.473908340839
 20
546.3382153807654
 30
0.0
 11
313.5319646345353
 21
546.3432369161098
 31
0.0
  0
LINE
  5
3CB
  8
MAKE2D$VISIBLE$LINES
 10
313.5319646345353
 20
546.3432369161098
 30
0.0
 11
313.5902337714648
 21
546.3494224268626
 31
0.0
  0
LINE
  5
3CC
  8
MAKE2D$VISIBLE$LINES
 10
313.5902337714648
 20
546.3494224268626
 30
0.0
 11
313.6486830296163
 21
546.3567872453059
 31
0.0
  0
LINE
  5
3CD
  8
MAKE2D$VISIBLE$LINES
 10
313.6486830296163
 20
546.3567872453059
 30
0.0
 11
313.7072787529631
 21
546.3653455619253
 31
0.0
  0
LINE
  5
3CE
  8
MAKE2D$VISIBLE$LINES
 10
313.7072787529631
 20
546.3653455619253
 30
0.0
 11
313.7659863969879
 21
546.3751103652294
 31
0.0
  0
LINE
  5
3CF
  8
MAKE2D$VISIBLE$LINES
 10
313.7659863969879
 20
546.3751103652294
 30
0.0
 11
313.8247705784457
 21
546.3860933834642
 31
0.0
  0
LINE
  5
3D0
  8
MAKE2D$VISIBLE$LINES
 10
313.8247705784457
 20
546.3860933834642
 30
0.0
 11
313.8835951293
 21
546.3983050285465
 31
0.0
  0
LINE
  5
3D1
  8
MAKE2D$VISIBLE$LINES
 10
313.8835951293
 20
546.3983050285465
 30
0.0
 11
313.9424231547355
 21
546.4117543425473
 31
0.0
  0
LINE
  5
3D2
  8
MAKE2D$VISIBLE$LINES
 10
313.9424231547355
 20
546.4117543425473
 30
0.0
 11
314.0012170951262
 21
546.4264489470465
 31
0.0
  0
LINE
  5
3D3
  8
MAKE2D$VISIBLE$LINES
 10
314.0012170951262
 20
546.4264489470465
 30
0.0
 11
314.0599387918061
 21
546.4423949956819
 31
0.0
  0
LINE
  5
3D4
  8
MAKE2D$VISIBLE$LINES
 10
314.0599387918061
 20
546.4423949956819
 30
0.0
 11
314.1185495564655
 21
546.4595971302024
 31
0.0
  0
LINE
  5
3D5
  8
MAKE2D$VISIBLE$LINES
 10
314.1185495564655
 20
546.4595971302024
 30
0.0
 11
314.1770102439621
 21
546.4780584403292
 31
0.0
  0
LINE
  5
3D6
  8
MAKE2D$VISIBLE$LINES
 10
314.1770102439621
 20
546.4780584403292
 30
0.0
 11
314.2352813283159
 21
546.4977804277144
 31
0.0
  0
LINE
  5
3D7
  8
MAKE2D$VISIBLE$LINES
 10
314.2352813283159
 20
546.4977804277144
 30
0.0
 11
314.2933229816234
 21
546.5187629742669
 31
0.0
  0
LINE
  5
3D8
  8
MAKE2D$VISIBLE$LINES
 10
314.2933229816234
 20
546.5187629742669
 30
0.0
 11
314.3510951556045
 21
546.5410043151026
 31
0.0
  0
LINE
  5
3D9
  8
MAKE2D$VISIBLE$LINES
 10
314.3510951556045
 20
546.5410043151026
 30
0.0
 11
314.4085576654719
 21
546.5645010163519
 31
0.0
  0
LINE
  5
3DA
  8
MAKE2D$VISIBLE$LINES
 10
314.4085576654719
 20
546.5645010163519
 30
0.0
 11
314.4656702757893
 21
546.5892479580344
 31
0.0
  0
LINE
  5
3DB
  8
MAKE2D$VISIBLE$LINES
 10
314.4656702757893
 20
546.5892479580344
 30
0.0
 11
314.5223927879622
 21
546.6152383221837
 31
0.0
  0
LINE
  5
3DC
  8
MAKE2D$VISIBLE$LINES
 10
314.5223927879622
 20
546.6152383221837
 30
0.0
 11
314.578685128993
 21
546.6424635863766
 31
0.0
  0
LINE
  5
3DD
  8
MAKE2D$VISIBLE$LINES
 10
314.578685128993
 20
546.6424635863766
 30
0.0
 11
314.6345074411088
 21
546.6709135227984
 31
0.0
  0
LINE
  5
3DE
  8
MAKE2D$VISIBLE$LINES
 10
314.6345074411088
 20
546.6709135227984
 30
0.0
 11
314.6898201718637
 21
546.7005762029289
 31
0.0
  0
LINE
  5
3DF
  8
MAKE2D$VISIBLE$LINES
 10
314.6898201718637
 20
546.7005762029289
 30
0.0
 11
314.744584164304
 21
546.7314380079191
 31
0.0
  0
LINE
  5
3E0
  8
MAKE2D$VISIBLE$LINES
 10
314.744584164304
 20
546.7314380079191
 30
0.0
 11
314.798760746779
 21
546.7634836446789
 31
0.0
  0
LINE
  5
3E1
  8
MAKE2D$VISIBLE$LINES
 10
314.798760746779
 20
546.7634836446789
 30
0.0
 11
314.8523118219755
 21
546.7966961676706
 31
0.0
  0
LINE
  5
3E2
  8
MAKE2D$VISIBLE$LINES
 10
314.8523118219755
 20
546.7966961676706
 30
0.0
 11
314.9051999547553
 21
546.8310570063627
 31
0.0
  0
LINE
  5
3E3
  8
MAKE2D$VISIBLE$LINES
 10
314.9051999547553
 20
546.8310570063627
 30
0.0
 11
314.9573884583755
 21
546.8665459982665
 31
0.0
  0
LINE
  5
3E4
  8
MAKE2D$VISIBLE$LINES
 10
314.9573884583755
 20
546.8665459982665
 30
0.0
 11
315.0088414786803
 21
546.9031414274377
 31
0.0
  0
LINE
  5
3E5
  8
MAKE2D$VISIBLE$LINES
 10
315.0088414786803
 20
546.9031414274377
 30
0.0
 11
315.0595240758613
 21
546.9408200682977
 31
0.0
  0
LINE
  5
3E6
  8
MAKE2D$VISIBLE$LINES
 10
315.0595240758613
 20
546.9408200682977
 30
0.0
 11
315.1094023033959
 21
546.9795572345862
 31
0.0
  0
LINE
  5
3E7
  8
MAKE2D$VISIBLE$LINES
 10
315.1094023033959
 20
546.9795572345862
 30
0.0
 11
315.1584432837903
 21
547.0193268332351
 31
0.0
  0
LINE
  5
3E8
  8
MAKE2D$VISIBLE$LINES
 10
315.1584432837903
 20
547.0193268332351
 30
0.0
 11
315.2066152807724
 21
547.0601014229105
 31
0.0
  0
LINE
  5
3E9
  8
MAKE2D$VISIBLE$LINES
 10
315.2066152807724
 20
547.0601014229105
 30
0.0
 11
315.2538877676031
 21
547.1018522769544
 31
0.0
  0
LINE
  5
3EA
  8
MAKE2D$VISIBLE$LINES
 10
315.2538877676031
 20
547.1018522769544
 30
0.0
 11
315.3002314911957
 21
547.1445494504177
 31
0.0
  0
LINE
  5
3EB
  8
MAKE2D$VISIBLE$LINES
 10
315.3002314911957
 20
547.1445494504177
 30
0.0
 11
315.3456185317643
 21
547.1881618508612
 31
0.0
  0
LINE
  5
3EC
  8
MAKE2D$VISIBLE$LINES
 10
315.3456185317643
 20
547.1881618508612
 30
0.0
 11
315.3900223577491
 21
547.2326573125756
 31
0.0
  0
LINE
  5
3ED
  8
MAKE2D$VISIBLE$LINES
 10
315.3900223577491
 20
547.2326573125756
 30
0.0
 11
315.4334178757962
 21
547.2780026738543
 31
0.0
  0
LINE
  5
3EE
  8
MAKE2D$VISIBLE$LINES
 10
315.4334178757962
 20
547.2780026738543
 30
0.0
 11
315.4757814756048
 21
547.3241638569372
 31
0.0
  0
LINE
  5
3EF
  8
MAKE2D$VISIBLE$LINES
 10
315.4757814756048
 20
547.3241638569372
 30
0.0
 11
315.5170910694857
 21
547.3711059502278
 31
0.0
  0
LINE
  5
3F0
  8
MAKE2D$VISIBLE$LINES
 10
315.5170910694857
 20
547.3711059502278
 30
0.0
 11
315.5573261265099
 21
547.4187932923857
 31
0.0
  0
LINE
  5
3F1
  8
MAKE2D$VISIBLE$LINES
 10
315.5573261265099
 20
547.4187932923857
 30
0.0
 11
315.5964677011623
 21
547.4671895578782
 31
0.0
  0
LINE
  5
3F2
  8
MAKE2D$VISIBLE$LINES
 10
315.5964677011623
 20
547.4671895578782
 30
0.0
 11
315.6344984564474
 21
547.5162578435861
 31
0.0
  0
LINE
  5
3F3
  8
MAKE2D$VISIBLE$LINES
 10
315.6344984564474
 20
547.5162578435861
 30
0.0
 11
315.671402681432
 21
547.5659607560453
 31
0.0
  0
LINE
  5
3F4
  8
MAKE2D$VISIBLE$LINES
 10
315.671402681432
 20
547.5659607560453
 30
0.0
 11
315.7071663032405
 21
547.6162604989237
 31
0.0
  0
LINE
  5
3F5
  8
MAKE2D$VISIBLE$LINES
 10
315.7071663032405
 20
547.6162604989237
 30
0.0
 11
315.7417768935541
 21
547.6671189603275
 31
0.0
  0
LINE
  5
3F6
  8
MAKE2D$VISIBLE$LINES
 10
315.7417768935541
 20
547.6671189603275
 30
0.0
 11
315.7752236696957
 21
547.7184977995506
 31
0.0
  0
LINE
  5
3F7
  8
MAKE2D$VISIBLE$LINES
 10
315.7752236696957
 20
547.7184977995506
 30
0.0
 11
315.8074974904136
 21
547.7703585328877
 31
0.0
  0
LINE
  5
3F8
  8
MAKE2D$VISIBLE$LINES
 10
315.8074974904136
 20
547.7703585328877
 30
0.0
 11
315.8385908465049
 21
547.8226626181491
 31
0.0
  0
LINE
  5
3F9
  8
MAKE2D$VISIBLE$LINES
 10
315.8385908465049
 20
547.8226626181491
 30
0.0
 11
315.8684978464468
 21
547.8753715375323
 31
0.0
  0
LINE
  5
3FA
  8
MAKE2D$VISIBLE$LINES
 10
315.8684978464468
 20
547.8753715375323
 30
0.0
 11
315.8972141972296
 21
547.9284468785246
 31
0.0
  0
LINE
  5
3FB
  8
MAKE2D$VISIBLE$LINES
 10
315.8972141972296
 20
547.9284468785246
 30
0.0
 11
315.9247371806059
 21
547.9818504125359
 31
0.0
  0
LINE
  5
3FC
  8
MAKE2D$VISIBLE$LINES
 10
315.9247371806059
 20
547.9818504125359
 30
0.0
 11
315.9510656249917
 21
548.0355441709761
 31
0.0
  0
LINE
  5
3FD
  8
MAKE2D$VISIBLE$LINES
 10
315.9510656249917
 20
548.0355441709761
 30
0.0
 11
315.9761998732722
 21
548.0894905185252
 31
0.0
  0
LINE
  5
3FE
  8
MAKE2D$VISIBLE$LINES
 10
315.9761998732722
 20
548.0894905185252
 30
0.0
 11
316.0001417467805
 21
548.1436522233618
 31
0.0
  0
LINE
  5
3FF
  8
MAKE2D$VISIBLE$LINES
 10
316.0001417467805
 20
548.1436522233618
 30
0.0
 11
316.0228945057287
 21
548.1979925241466
 31
0.0
  0
LINE
  5
400
  8
MAKE2D$VISIBLE$LINES
 10
316.0228945057287
 20
548.1979925241466
 30
0.0
 11
316.0444628063826
 21
548.2524751935811
 31
0.0
  0
LINE
  5
401
  8
MAKE2D$VISIBLE$LINES
 10
316.0444628063826
 20
548.2524751935811
 30
0.0
 11
316.0648526552753
 21
548.3070645983873
 31
0.0
  0
LINE
  5
402
  8
MAKE2D$VISIBLE$LINES
 10
316.0648526552753
 20
548.3070645983873
 30
0.0
 11
316.0840713607643
 21
548.3617257555878
 31
0.0
  0
LINE
  5
403
  8
MAKE2D$VISIBLE$LINES
 10
316.0840713607643
 20
548.3617257555878
 30
0.0
 11
316.1021274822342
 21
548.4164243849804
 31
0.0
  0
LINE
  5
404
  8
MAKE2D$VISIBLE$LINES
 10
316.1021274822342
 20
548.4164243849804
 30
0.0
 11
316.1190307772508
 21
548.471126957736
 31
0.0
  0
LINE
  5
405
  8
MAKE2D$VISIBLE$LINES
 10
316.1190307772508
 20
548.471126957736
 30
0.0
 11
316.1347921469675
 21
548.5258007410723
 31
0.0
  0
LINE
  5
406
  8
MAKE2D$VISIBLE$LINES
 10
316.1347921469675
 20
548.5258007410723
 30
0.0
 11
317.0407002375217
 21
552.0012538828544
 31
0.0
  0
LINE
  5
407
  8
MAKE2D$VISIBLE$LINES
 10
317.0407002375217
 20
552.0012538828544
 30
0.0
 11
317.8258205826687
 21
555.4767070246365
 31
0.0
  0
LINE
  5
408
  8
MAKE2D$VISIBLE$LINES
 10
317.8258205826687
 20
555.4767070246365
 30
0.0
 11
318.4901531824085
 21
558.9521601664187
 31
0.0
  0
LINE
  5
409
  8
MAKE2D$VISIBLE$LINES
 10
318.4901531824085
 20
558.9521601664187
 30
0.0
 11
319.033698036741
 21
562.4276133082008
 31
0.0
  0
LINE
  5
40A
  8
MAKE2D$VISIBLE$LINES
 10
319.033698036741
 20
562.4276133082008
 30
0.0
 11
319.4564551456664
 21
565.9030664499829
 31
0.0
  0
LINE
  5
40B
  8
MAKE2D$VISIBLE$LINES
 10
319.4564551456664
 20
565.9030664499829
 30
0.0
 11
319.7584245091845
 21
569.3785195917651
 31
0.0
  0
LINE
  5
40C
  8
MAKE2D$VISIBLE$LINES
 10
319.7584245091845
 20
569.3785195917651
 30
0.0
 11
319.9396061272953
 21
572.8539727335473
 31
0.0
  0
LINE
  5
40D
  8
MAKE2D$VISIBLE$LINES
 10
319.9396061272953
 20
572.8539727335473
 30
0.0
 11
319.9999999999989
 21
576.3294258753294
 31
0.0
  0
LINE
  5
40E
  8
MAKE2D$VISIBLE$LINES
 10
319.9999999999989
 20
576.3294258753294
 30
0.0
 11
319.9396061272953
 21
579.8048790171116
 31
0.0
  0
LINE
  5
40F
  8
MAKE2D$VISIBLE$LINES
 10
319.9396061272953
 20
579.8048790171116
 30
0.0
 11
319.7584245091845
 21
583.2803321588938
 31
0.0
  0
LINE
  5
410
  8
MAKE2D$VISIBLE$LINES
 10
319.7584245091845
 20
583.2803321588938
 30
0.0
 11
319.4564551456664
 21
586.7557853006759
 31
0.0
  0
LINE
  5
411
  8
MAKE2D$VISIBLE$LINES
 10
319.4564551456664
 20
586.7557853006759
 30
0.0
 11
319.033698036741
 21
590.2312384424581
 31
0.0
  0
LINE
  5
412
  8
MAKE2D$VISIBLE$LINES
 10
319.033698036741
 20
590.2312384424581
 30
0.0
 11
318.4901531824085
 21
593.7066915842403
 31
0.0
  0
LINE
  5
413
  8
MAKE2D$VISIBLE$LINES
 10
318.4901531824085
 20
593.7066915842403
 30
0.0
 11
317.8258205826687
 21
597.1821447260224
 31
0.0
  0
LINE
  5
414
  8
MAKE2D$VISIBLE$LINES
 10
317.8258205826687
 20
597.1821447260224
 30
0.0
 11
317.0407002375217
 21
600.6575978678046
 31
0.0
  0
LINE
  5
415
  8
MAKE2D$VISIBLE$LINES
 10
317.0407002375217
 20
600.6575978678046
 30
0.0
 11
316.1347921469675
 21
604.1330510095868
 31
0.0
  0
LINE
  5
416
  8
MAKE2D$VISIBLE$LINES
 10
316.1347921469675
 20
604.1330510095868
 30
0.0
 11
316.1190307772508
 21
604.187724792923
 31
0.0
  0
LINE
  5
417
  8
MAKE2D$VISIBLE$LINES
 10
316.1190307772508
 20
604.187724792923
 30
0.0
 11
316.1021274822343
 21
604.2424273656786
 31
0.0
  0
LINE
  5
418
  8
MAKE2D$VISIBLE$LINES
 10
316.1021274822343
 20
604.2424273656786
 30
0.0
 11
316.0840713607643
 21
604.2971259950712
 31
0.0
  0
LINE
  5
419
  8
MAKE2D$VISIBLE$LINES
 10
316.0840713607643
 20
604.2971259950712
 30
0.0
 11
316.0648526552752
 21
604.3517871522716
 31
0.0
  0
LINE
  5
41A
  8
MAKE2D$VISIBLE$LINES
 10
316.0648526552752
 20
604.3517871522716
 30
0.0
 11
316.0444628063825
 21
604.406376557078
 31
0.0
  0
LINE
  5
41B
  8
MAKE2D$VISIBLE$LINES
 10
316.0444628063825
 20
604.406376557078
 30
0.0
 11
316.0228945057287
 21
604.4608592265123
 31
0.0
  0
LINE
  5
41C
  8
MAKE2D$VISIBLE$LINES
 10
316.0228945057287
 20
604.4608592265123
 30
0.0
 11
316.0001417467804
 21
604.5151995272971
 31
0.0
  0
LINE
  5
41D
  8
MAKE2D$VISIBLE$LINES
 10
316.0001417467804
 20
604.5151995272971
 30
0.0
 11
315.9761998732722
 21
604.5693612321339
 31
0.0
  0
LINE
  5
41E
  8
MAKE2D$VISIBLE$LINES
 10
315.9761998732722
 20
604.5693612321339
 30
0.0
 11
315.9510656249917
 21
604.6233075796829
 31
0.0
  0
LINE
  5
41F
  8
MAKE2D$VISIBLE$LINES
 10
315.9510656249917
 20
604.6233075796829
 30
0.0
 11
315.9247371806059
 21
604.677001338123
 31
0.0
  0
LINE
  5
420
  8
MAKE2D$VISIBLE$LINES
 10
315.9247371806059
 20
604.677001338123
 30
0.0
 11
315.8972141972296
 21
604.7304048721343
 31
0.0
  0
LINE
  5
421
  8
MAKE2D$VISIBLE$LINES
 10
315.8972141972296
 20
604.7304048721343
 30
0.0
 11
315.8684978464468
 21
604.7834802131265
 31
0.0
  0
LINE
  5
422
  8
MAKE2D$VISIBLE$LINES
 10
315.8684978464468
 20
604.7834802131265
 30
0.0
 11
315.838590846505
 21
604.8361891325097
 31
0.0
  0
LINE
  5
423
  8
MAKE2D$VISIBLE$LINES
 10
315.838590846505
 20
604.8361891325097
 30
0.0
 11
315.8074974904137
 21
604.8884932177712
 31
0.0
  0
LINE
  5
424
  8
MAKE2D$VISIBLE$LINES
 10
315.8074974904137
 20
604.8884932177712
 30
0.0
 11
315.7752236696957
 21
604.9403539511085
 31
0.0
  0
LINE
  5
425
  8
MAKE2D$VISIBLE$LINES
 10
315.7752236696957
 20
604.9403539511085
 30
0.0
 11
315.7417768935541
 21
604.9917327903314
 31
0.0
  0
LINE
  5
426
  8
MAKE2D$VISIBLE$LINES
 10
315.7417768935541
 20
604.9917327903314
 30
0.0
 11
315.7071663032406
 21
605.0425912517352
 31
0.0
  0
LINE
  5
427
  8
MAKE2D$VISIBLE$LINES
 10
315.7071663032406
 20
605.0425912517352
 30
0.0
 11
315.6714026814321
 21
605.0928909946134
 31
0.0
  0
LINE
  5
428
  8
MAKE2D$VISIBLE$LINES
 10
315.6714026814321
 20
605.0928909946134
 30
0.0
 11
315.6344984564475
 21
605.1425939070728
 31
0.0
  0
LINE
  5
429
  8
MAKE2D$VISIBLE$LINES
 10
315.6344984564475
 20
605.1425939070728
 30
0.0
 11
315.5964677011623
 21
605.1916621927805
 31
0.0
  0
LINE
  5
42A
  8
MAKE2D$VISIBLE$LINES
 10
315.5964677011623
 20
605.1916621927805
 30
0.0
 11
315.5573261265101
 21
605.2400584582733
 31
0.0
  0
LINE
  5
42B
  8
MAKE2D$VISIBLE$LINES
 10
315.5573261265101
 20
605.2400584582733
 30
0.0
 11
315.5170910694858
 21
605.287745800431
 31
0.0
  0
LINE
  5
42C
  8
MAKE2D$VISIBLE$LINES
 10
315.5170910694858
 20
605.287745800431
 30
0.0
 11
315.4757814756048
 21
605.3346878937216
 31
0.0
  0
LINE
  5
42D
  8
MAKE2D$VISIBLE$LINES
 10
315.4757814756048
 20
605.3346878937216
 30
0.0
 11
315.4334178757962
 21
605.3808490768045
 31
0.0
  0
LINE
  5
42E
  8
MAKE2D$VISIBLE$LINES
 10
315.4334178757962
 20
605.3808490768045
 30
0.0
 11
315.3900223577492
 21
605.4261944380834
 31
0.0
  0
LINE
  5
42F
  8
MAKE2D$VISIBLE$LINES
 10
315.3900223577492
 20
605.4261944380834
 30
0.0
 11
315.3456185317644
 21
605.4706898997975
 31
0.0
  0
LINE
  5
430
  8
MAKE2D$VISIBLE$LINES
 10
315.3456185317644
 20
605.4706898997975
 30
0.0
 11
315.3002314911958
 21
605.5143023002411
 31
0.0
  0
LINE
  5
431
  8
MAKE2D$VISIBLE$LINES
 10
315.3002314911958
 20
605.5143023002411
 30
0.0
 11
315.2538877676033
 21
605.5569994737043
 31
0.0
  0
LINE
  5
432
  8
MAKE2D$VISIBLE$LINES
 10
315.2538877676033
 20
605.5569994737043
 30
0.0
 11
315.2066152807726
 21
605.5987503277483
 31
0.0
  0
LINE
  5
433
  8
MAKE2D$VISIBLE$LINES
 10
315.2066152807726
 20
605.5987503277483
 30
0.0
 11
315.1584432837903
 21
605.6395249174237
 31
0.0
  0
LINE
  5
434
  8
MAKE2D$VISIBLE$LINES
 10
315.1584432837903
 20
605.6395249174237
 30
0.0
 11
315.109402303396
 21
605.6792945160724
 31
0.0
  0
LINE
  5
435
  8
MAKE2D$VISIBLE$LINES
 10
315.109402303396
 20
605.6792945160724
 30
0.0
 11
315.0595240758614
 21
605.7180316823611
 31
0.0
  0
LINE
  5
436
  8
MAKE2D$VISIBLE$LINES
 10
315.0595240758614
 20
605.7180316823611
 30
0.0
 11
315.0088414786803
 21
605.7557103232211
 31
0.0
  0
LINE
  5
437
  8
MAKE2D$VISIBLE$LINES
 10
315.0088414786803
 20
605.7557103232211
 30
0.0
 11
314.9573884583756
 21
605.7923057523924
 31
0.0
  0
LINE
  5
438
  8
MAKE2D$VISIBLE$LINES
 10
314.9573884583756
 20
605.7923057523924
 30
0.0
 11
314.9051999547555
 21
605.8277947442962
 31
0.0
  0
LINE
  5
439
  8
MAKE2D$VISIBLE$LINES
 10
314.9051999547555
 20
605.8277947442962
 30
0.0
 11
314.8523118219756
 21
605.8621555829883
 31
0.0
  0
LINE
  5
43A
  8
MAKE2D$VISIBLE$LINES
 10
314.8523118219756
 20
605.8621555829883
 30
0.0
 11
314.798760746779
 21
605.89536810598
 31
0.0
  0
LINE
  5
43B
  8
MAKE2D$VISIBLE$LINES
 10
314.798760746779
 20
605.89536810598
 30
0.0
 11
314.7445841643041
 21
605.9274137427398
 31
0.0
  0
LINE
  5
43C
  8
MAKE2D$VISIBLE$LINES
 10
314.7445841643041
 20
605.9274137427398
 30
0.0
 11
314.6898201718639
 21
605.9582755477301
 31
0.0
  0
LINE
  5
43D
  8
MAKE2D$VISIBLE$LINES
 10
314.6898201718639
 20
605.9582755477301
 30
0.0
 11
314.6345074411089
 21
605.9879382278604
 31
0.0
  0
LINE
  5
43E
  8
MAKE2D$VISIBLE$LINES
 10
314.6345074411089
 20
605.9879382278604
 30
0.0
 11
314.5786851289931
 21
606.016388164282
 31
0.0
  0
LINE
  5
43F
  8
MAKE2D$VISIBLE$LINES
 10
314.5786851289931
 20
606.016388164282
 30
0.0
 11
314.5223927879622
 21
606.0436134284752
 31
0.0
  0
LINE
  5
440
  8
MAKE2D$VISIBLE$LINES
 10
314.5223927879622
 20
606.0436134284752
 30
0.0
 11
314.4656702757894
 21
606.0696037926242
 31
0.0
  0
LINE
  5
441
  8
MAKE2D$VISIBLE$LINES
 10
314.4656702757894
 20
606.0696037926242
 30
0.0
 11
314.4085576654721
 21
606.0943507343068
 31
0.0
  0
LINE
  5
442
  8
MAKE2D$VISIBLE$LINES
 10
314.4085576654721
 20
606.0943507343068
 30
0.0
 11
314.3510951556046
 21
606.1178474355562
 31
0.0
  0
LINE
  5
443
  8
MAKE2D$VISIBLE$LINES
 10
314.3510951556046
 20
606.1178474355562
 30
0.0
 11
314.2933229816237
 21
606.1400887763917
 31
0.0
  0
LINE
  5
444
  8
MAKE2D$VISIBLE$LINES
 10
314.2933229816237
 20
606.1400887763917
 30
0.0
 11
314.2352813283163
 21
606.1610713229443
 31
0.0
  0
LINE
  5
445
  8
MAKE2D$VISIBLE$LINES
 10
314.2352813283163
 20
606.1610713229443
 30
0.0
 11
314.1770102439623
 21
606.1807933103296
 31
0.0
  0
LINE
  5
446
  8
MAKE2D$VISIBLE$LINES
 10
314.1770102439623
 20
606.1807933103296
 30
0.0
 11
314.1185495564657
 21
606.1992546204566
 31
0.0
  0
LINE
  5
447
  8
MAKE2D$VISIBLE$LINES
 10
314.1185495564657
 20
606.1992546204566
 30
0.0
 11
314.0599387918064
 21
606.2164567549769
 31
0.0
  0
LINE
  5
448
  8
MAKE2D$VISIBLE$LINES
 10
314.0599387918064
 20
606.2164567549769
 30
0.0
 11
314.0012170951263
 21
606.2324028036121
 31
0.0
  0
LINE
  5
449
  8
MAKE2D$VISIBLE$LINES
 10
314.0012170951263
 20
606.2324028036121
 30
0.0
 11
313.9424231547356
 21
606.2470974081114
 31
0.0
  0
LINE
  5
44A
  8
MAKE2D$VISIBLE$LINES
 10
313.9424231547356
 20
606.2470974081114
 30
0.0
 11
313.8835951293002
 21
606.2605467221124
 31
0.0
  0
LINE
  5
44B
  8
MAKE2D$VISIBLE$LINES
 10
313.8835951293002
 20
606.2605467221124
 30
0.0
 11
313.8247705784459
 21
606.2727583671947
 31
0.0
  0
LINE
  5
44C
  8
MAKE2D$VISIBLE$LINES
 10
313.8247705784459
 20
606.2727583671947
 30
0.0
 11
313.7659863969881
 21
606.2837413854295
 31
0.0
  0
LINE
  5
44D
  8
MAKE2D$VISIBLE$LINES
 10
313.7659863969881
 20
606.2837413854295
 30
0.0
 11
313.7072787529634
 21
606.2935061887337
 31
0.0
  0
LINE
  5
44E
  8
MAKE2D$VISIBLE$LINES
 10
313.7072787529634
 20
606.2935061887337
 30
0.0
 11
313.6486830296166
 21
606.3020645053529
 31
0.0
  0
LINE
  5
44F
  8
MAKE2D$VISIBLE$LINES
 10
313.6486830296166
 20
606.3020645053529
 30
0.0
 11
313.5902337714652
 21
606.3094293237963
 31
0.0
  0
LINE
  5
450
  8
MAKE2D$VISIBLE$LINES
 10
313.5902337714652
 20
606.3094293237963
 30
0.0
 11
313.5319646345357
 21
606.3156148345491
 31
0.0
  0
LINE
  5
451
  8
MAKE2D$VISIBLE$LINES
 10
313.5319646345357
 20
606.3156148345491
 30
0.0
 11
313.4739083408393
 21
606.3206363698935
 31
0.0
  0
LINE
  5
452
  8
MAKE2D$VISIBLE$LINES
 10
313.4739083408393
 20
606.3206363698935
 30
0.0
 11
313.4160966371276
 21
606.3245103421602
 31
0.0
  0
LINE
  5
453
  8
MAKE2D$VISIBLE$LINES
 10
313.4160966371276
 20
606.3245103421602
 30
0.0
 11
313.3585602579413
 21
606.3272541807303
 31
0.0
  0
LINE
  5
454
  8
MAKE2D$VISIBLE$LINES
 10
313.3585602579413
 20
606.3272541807303
 30
0.0
 11
313.3013288929453
 21
606.3288862681028
 31
0.0
  0
LINE
  5
455
  8
MAKE2D$VISIBLE$LINES
 10
313.3013288929453
 20
606.3288862681028
 30
0.0
 11
313.2444311585116
 21
606.3294258753294
 31
0.0
  0
LINE
  5
456
  8
MAKE2D$VISIBLE$LINES
 10
313.2444311585116
 20
606.3294258753294
 30
0.0
 11
309.499999999999
 21
606.3294258753294
 31
0.0
  0
LINE
  5
457
  8
MAKE2D$VISIBLE$LINES
 10
309.499999999999
 20
606.3294258753294
 30
0.0
 11
309.499999999999
 21
715.2772468063545
 31
0.0
  0
LINE
  5
458
  8
MAKE2D$VISIBLE$LINES
 10
309.499999999999
 20
715.2772468063545
 30
0.0
 11
10.49999999999989
 21
715.2772468063545
 31
0.0
  0
LINE
  5
459
  8
MAKE2D$VISIBLE$LINES
 10
10.49999999999989
 20
715.2772468063545
 30
0.0
 11
10.49999999999989
 21
606.3294258753294
 31
0.0
  0
ENDSEC
  0
EOF
