  0
SECTION
  2
HEADER
  9
$ACADVER
  1
AC1009
  9
$DWGCODEPAGE
  3
mac-roman
  9
$INSBASE
 10
0.0
 20
0.0
 30
0.0
  9
$EXTMIN
 10
-1053.798312050016
 20
-1624.532148997237
 30
0.0
  9
$EXTMAX
 10
-733.7984756211405
 20
-1406.636507135142
 30
0.0000000000000568
  9
$LIMMIN
 10
0.0
 20
0.0
  9
$LIMMAX
 10
12.0
 20
9.0
  9
$ORTHOMODE
 70
     0
  9
$REGENMODE
 70
     1
  9
$FILLMODE
 70
     1
  9
$QTEXTMODE
 70
     0
  9
$MIRRTEXT
 70
     1
  9
$DRAGMODE
 70
     2
  9
$LTSCALE
 40
1.0
  9
$OSMODE
 70
    37
  9
$ATTMODE
 70
     1
  9
$TEXTSIZE
 40
0.2
  9
$TRACEWID
 40
0.05
  9
$TEXTSTYLE
  7
STANDARD
  9
$CLAYER
  8
FAB_3$PI_PROJECTOR$PANEL-P
  9
$CELTYPE
  6
BYLAYER
  9
$CECOLOR
 62
   256
  9
$DIMSCALE
 40
1.0
  9
$DIMASZ
 40
0.18
  9
$DIMEXO
 40
0.0625
  9
$DIMDLI
 40
0.38
  9
$DIMRND
 40
0.0
  9
$DIMDLE
 40
0.0
  9
$DIMEXE
 40
0.18
  9
$DIMTP
 40
0.0
  9
$DIMTM
 40
0.0
  9
$DIMTXT
 40
0.18
  9
$DIMCEN
 40
0.09
  9
$DIMTSZ
 40
0.0
  9
$DIMTOL
 70
     0
  9
$DIMLIM
 70
     0
  9
$DIMTIH
 70
     1
  9
$DIMTOH
 70
     1
  9
$DIMSE1
 70
     0
  9
$DIMSE2
 70
     0
  9
$DIMTAD
 70
     0
  9
$DIMZIN
 70
     0
  9
$DIMBLK
  1

  9
$DIMASO
 70
     1
  9
$DIMSHO
 70
     1
  9
$DIMPOST
  1

  9
$DIMAPOST
  1

  9
$DIMALT
 70
     0
  9
$DIMALTD
 70
     2
  9
$DIMALTF
 40
25.4
  9
$DIMLFAC
 40
1.0
  9
$DIMTOFL
 70
     0
  9
$DIMTVP
 40
0.0
  9
$DIMTIX
 70
     0
  9
$DIMSOXD
 70
     0
  9
$DIMSAH
 70
     0
  9
$DIMBLK1
  1

  9
$DIMBLK2
  1

  9
$DIMSTYLE
  2
STANDARD
  9
$DIMCLRD
 70
     0
  9
$DIMCLRE
 70
     0
  9
$DIMCLRT
 70
     0
  9
$DIMTFAC
 40
1.0
  9
$DIMGAP
 40
0.09
  9
$LUNITS
 70
     2
  9
$LUPREC
 70
     3
  9
$SKETCHINC
 40
0.1
  9
$FILLETRAD
 40
0.5
  9
$AUNITS
 70
     0
  9
$AUPREC
 70
     0
  9
$MENU
  1
.
  9
$ELEVATION
 40
0.0
  9
$PELEVATION
 40
0.0
  9
$THICKNESS
 40
0.0
  9
$LIMCHECK
 70
     0
  9
$CHAMFERA
 40
0.0
  9
$CHAMFERB
 40
0.0
  9
$SKPOLY
 70
     0
  9
$TDCREATE
 40
2457965.744097222
  9
$TDUPDATE
 40
2457965.744108796
  9
$TDINDWG
 40
0.0000000116
  9
$TDUSRTIMER
 40
0.0000000116
  9
$USRTIMER
 70
     1
  9
$ANGBASE
 50
0.0
  9
$ANGDIR
 70
     0
  9
$PDMODE
 70
     0
  9
$PDSIZE
 40
0.0
  9
$PLINEWID
 40
0.0
  9
$COORDS
 70
     1
  9
$SPLFRAME
 70
     0
  9
$SPLINETYPE
 70
     6
  9
$SPLINESEGS
 70
     8
  9
$ATTDIA
 70
     0
  9
$ATTREQ
 70
     1
  9
$HANDLING
 70
     1
  9
$HANDSEED
  5
17F
  9
$SURFTAB1
 70
     6
  9
$SURFTAB2
 70
     6
  9
$SURFTYPE
 70
     6
  9
$SURFU
 70
     6
  9
$SURFV
 70
     6
  9
$UCSNAME
  2

  9
$UCSORG
 10
0.0
 20
0.0
 30
0.0
  9
$UCSXDIR
 10
1.0
 20
0.0
 30
0.0
  9
$UCSYDIR
 10
0.0
 20
1.0
 30
0.0
  9
$PUCSNAME
  2

  9
$PUCSORG
 10
0.0
 20
0.0
 30
0.0
  9
$PUCSXDIR
 10
1.0
 20
0.0
 30
0.0
  9
$PUCSYDIR
 10
0.0
 20
1.0
 30
0.0
  9
$USERI1
 70
     0
  9
$USERI2
 70
     0
  9
$USERI3
 70
     0
  9
$USERI4
 70
     0
  9
$USERI5
 70
     0
  9
$USERR1
 40
0.0
  9
$USERR2
 40
0.0
  9
$USERR3
 40
0.0
  9
$USERR4
 40
0.0
  9
$USERR5
 40
0.0
  9
$WORLDVIEW
 70
     1
  9
$SHADEDGE
 70
     3
  9
$SHADEDIF
 70
    70
  9
$TILEMODE
 70
     1
  9
$MAXACTVP
 70
    64
  9
$PLIMCHECK
 70
     0
  9
$PEXTMIN
 10
1.000000000000000E+20
 20
1.000000000000000E+20
 30
1.000000000000000E+20
  9
$PEXTMAX
 10
-1.000000000000000E+20
 20
-1.000000000000000E+20
 30
-1.000000000000000E+20
  9
$PLIMMIN
 10
0.0
 20
0.0
  9
$PLIMMAX
 10
12.0
 20
9.0
  9
$UNITMODE
 70
     0
  9
$VISRETAIN
 70
     1
  9
$PLINEGEN
 70
     0
  9
$PSLTSCALE
 70
     1
  0
ENDSEC
  0
SECTION
  2
TABLES
  0
TABLE
  2
VPORT
 70
     1
  0
VPORT
  2
*ACTIVE
 70
     0
 10
0.0
 20
0.0
 11
1.0
 21
1.0
 12
-893.7983938355785
 22
-1515.58432806619
 13
0.0
 23
0.0
 14
0.5
 24
0.5
 15
0.5
 25
0.5
 16
0.0
 26
0.0
 36
1.0
 17
0.0
 27
0.0
 37
0.0
 40
222.2535546993365
 41
1.46859218336915
 42
50.0
 43
0.0
 44
0.0
 50
0.0
 51
0.0
 71
     0
 72
   100
 73
     1
 74
     3
 75
     0
 76
     0
 77
     0
 78
     0
  0
ENDTAB
  0
TABLE
  2
LTYPE
 70
     1
  0
LTYPE
  2
CONTINUOUS
 70
     0
  3
Solid line
 72
    65
 73
     0
 40
0.0
  0
ENDTAB
  0
TABLE
  2
LAYER
 70
     2
  0
LAYER
  2
0
 70
     0
 62
     7
  6
CONTINUOUS
  0
LAYER
  2
FAB_3$PI_PROJECTOR$PANEL-P
 70
     0
 62
   216
  6
CONTINUOUS
  0
ENDTAB
  0
TABLE
  2
STYLE
 70
     1
  0
STYLE
  2
STANDARD
 70
     0
 40
0.0
 41
1.0
 50
0.0
 71
     0
 42
0.2
  3
txt
  4

  0
ENDTAB
  0
TABLE
  2
VIEW
 70
     0
  0
ENDTAB
  0
TABLE
  2
UCS
 70
     0
  0
ENDTAB
  0
TABLE
  2
APPID
 70
     1
  0
APPID
  2
ACAD
 70
     0
  0
ENDTAB
  0
TABLE
  2
DIMSTYLE
 70
     1
  0
DIMSTYLE
  2
STANDARD
 70
     0
  3

  4

  5

  6

  7

 40
1.0
 41
0.18
 42
0.0625
 43
0.38
 44
0.18
 45
0.0
 46
0.0
 47
0.0
 48
0.0
140
0.18
141
0.09
142
0.0
143
25.4
144
1.0
145
0.0
146
1.0
147
0.09
 71
     0
 72
     0
 73
     1
 74
     1
 75
     0
 76
     0
 77
     0
 78
     0
170
     0
171
     2
172
     0
173
     0
174
     0
175
     0
176
     0
177
     0
178
     0
  0
ENDTAB
  0
ENDSEC
  0
SECTION
  2
BLOCKS
  0
BLOCK
  8
0
  2
$MODEL_SPACE
 70
     0
 10
0.0
 20
0.0
 30
0.0
  3
$MODEL_SPACE
  1

  0
ENDBLK
  5
21
  8
0
  0
BLOCK
 67
     1
  8
0
  2
$PAPER_SPACE
 70
     0
 10
0.0
 20
0.0
 30
0.0
  3
$PAPER_SPACE
  1

  0
ENDBLK
  5
1D
 67
     1
  8
0
  0
ENDSEC
  0
SECTION
  2
ENTITIES
  0
LINE
  5
6F
  8
FAB_3$PI_PROJECTOR$PANEL-P
 10
-744.2983938355792
 20
-1545.556014322039
 30
0.0000000000000323
 11
-741.2983938355792
 21
-1545.556014322039
 31
0.0000000000000284
  0
LINE
  5
70
  8
FAB_3$PI_PROJECTOR$PANEL-P
 10
-741.2983938355792
 20
-1545.556014322039
 30
0.0000000000000284
 11
-741.2983938355792
 21
-1571.780535614721
 31
0.0000000000000284
  0
ARC
  5
71
  8
FAB_3$PI_PROJECTOR$PANEL-P
 10
-739.2983938355792
 20
-1571.780535614721
 30
0.0000000000000284
 40
2.0
 50
180.0
 51
345.0441449483486
  0
ARC
  5
72
  8
FAB_3$PI_PROJECTOR$PANEL-P
 10
-835.6603790818597
 20
-1545.574209317015
 30
0.0000000000000284
 40
101.8619034607192
 50
344.7910311043117
 51
15.83421325066839
  0
ARC
  5
73
  8
FAB_3$PI_PROJECTOR$PANEL-P
 10
-740.5539626770669
 20
-1518.584328066167
 30
0.0000000000000284
 40
3.0
 50
15.53785867606812
 51
89.99999999999349
  0
LINE
  5
74
  8
FAB_3$PI_PROJECTOR$PANEL-P
 10
-740.5539626770666
 20
-1515.584328066167
 30
0.0000000000000284
 11
-744.2983938355792
 21
-1515.584328066167
 31
0.0000000000000284
  0
LINE
  5
75
  8
FAB_3$PI_PROJECTOR$PANEL-P
 10
-744.2983938355792
 20
-1515.584328066167
 30
0.0000000000000284
 11
-744.2983938355792
 21
-1406.636507135142
 31
0.0
  0
LINE
  5
76
  8
FAB_3$PI_PROJECTOR$PANEL-P
 10
-744.2983938355792
 20
-1406.636507135142
 30
0.0
 11
-1043.298393835578
 21
-1406.636507135142
 31
0.0
  0
LINE
  5
77
  8
FAB_3$PI_PROJECTOR$PANEL-P
 10
-1043.298393835578
 20
-1406.636507135142
 30
0.0
 11
-1043.298393835578
 21
-1515.584328066167
 31
0.0000000000000284
  0
LINE
  5
78
  8
FAB_3$PI_PROJECTOR$PANEL-P
 10
-1043.298393835578
 20
-1515.584328066167
 30
0.0000000000000284
 11
-1047.042824994091
 21
-1515.584328066167
 31
0.0000000000000284
  0
ARC
  5
79
  8
FAB_3$PI_PROJECTOR$PANEL-P
 10
-1047.042824994091
 20
-1518.584328066167
 30
0.0000000000000284
 40
3.0
 50
90.0000000000087
 51
164.4621413239319
  0
ARC
  5
7A
  8
FAB_3$PI_PROJECTOR$PANEL-P
 10
-951.9364085893015
 20
-1545.574209317013
 30
0.0000000000000284
 40
101.861903460715
 50
164.1657867493323
 51
195.2089688956904
  0
ARC
  5
7B
  8
FAB_3$PI_PROJECTOR$PANEL-P
 10
-1048.298393835577
 20
-1571.780535614722
 30
0.0000000000000284
 40
2.0
 50
194.9558550516443
 51
359.9999999999935
  0
LINE
  5
7C
  8
FAB_3$PI_PROJECTOR$PANEL-P
 10
-1046.298393835577
 20
-1571.780535614722
 30
0.0000000000000284
 11
-1046.298393835578
 21
-1545.556014322039
 31
0.0000000000000284
  0
LINE
  5
7D
  8
FAB_3$PI_PROJECTOR$PANEL-P
 10
-1046.298393835578
 20
-1545.556014322039
 30
0.0000000000000284
 11
-1043.298393835578
 21
-1545.556014322039
 31
0.0000000000000323
  0
LINE
  5
7E
  8
FAB_3$PI_PROJECTOR$PANEL-P
 10
-1043.298393835578
 20
-1545.556014322039
 30
0.0000000000000323
 11
-1043.298393835578
 21
-1571.525486997353
 31
0.0000000000000404
  0
ARC
  5
7F
  8
FAB_3$PI_PROJECTOR$PANEL-P
 10
-1040.298393835578
 20
-1571.525486997353
 30
0.000000000000041
 40
3.0
 50
180.0
 51
269.8223814704007
  0
LINE
  5
80
  8
FAB_3$PI_PROJECTOR$PANEL-P
 10
-1040.307693905145
 20
-1574.525472582103
 30
0.0000000000000568
 11
-1035.394401779632
 21
-1574.600500036732
 31
0.0000000000000568
  0
LINE
  5
81
  8
FAB_3$PI_PROJECTOR$PANEL-P
 10
-1035.394401779632
 20
-1574.600500036732
 30
0.0000000000000568
 11
-1032.860701290361
 21
-1574.697434786897
 31
0.0000000000000568
  0
LINE
  5
82
  8
FAB_3$PI_PROJECTOR$PANEL-P
 10
-1032.860701290361
 20
-1574.697434786897
 30
0.0000000000000568
 11
-1030.296771555287
 21
-1574.846660331708
 31
0.0000000000000568
  0
LINE
  5
83
  8
FAB_3$PI_PROJECTOR$PANEL-P
 10
-1030.296771555287
 20
-1574.846660331708
 30
0.0000000000000568
 11
-1027.718467853311
 21
-1575.057684255725
 31
0.0000000000000568
  0
LINE
  5
84
  8
FAB_3$PI_PROJECTOR$PANEL-P
 10
-1027.718467853311
 20
-1575.057684255725
 30
0.0000000000000568
 11
-1025.141645463339
 21
-1575.340014143506
 31
0.0000000000000568
  0
LINE
  5
85
  8
FAB_3$PI_PROJECTOR$PANEL-P
 10
-1025.141645463339
 20
-1575.340014143506
 30
0.0000000000000568
 11
-1022.582159664273
 21
-1575.703157579613
 31
0.0000000000000568
  0
LINE
  5
86
  8
FAB_3$PI_PROJECTOR$PANEL-P
 10
-1022.582159664273
 20
-1575.703157579613
 30
0.0000000000000568
 11
-1021.313872760988
 21
-1575.918005498463
 31
0.0000000000000568
  0
LINE
  5
87
  8
FAB_3$PI_PROJECTOR$PANEL-P
 10
-1021.313872760988
 20
-1575.918005498463
 30
0.0000000000000568
 11
-1020.055865735018
 21
-1576.156622148603
 31
0.0000000000000568
  0
LINE
  5
88
  8
FAB_3$PI_PROJECTOR$PANEL-P
 10
-1020.055865735018
 20
-1576.156622148603
 30
0.0000000000000568
 11
-1018.810120496227
 21
-1576.420195978105
 31
0.0000000000000568
  0
LINE
  5
89
  8
FAB_3$PI_PROJECTOR$PANEL-P
 10
-1018.810120496227
 20
-1576.420195978105
 30
0.0000000000000568
 11
-1017.578618954478
 21
-1576.709915435038
 31
0.0000000000000568
  0
LINE
  5
8A
  8
FAB_3$PI_PROJECTOR$PANEL-P
 10
-1017.578618954478
 20
-1576.709915435038
 30
0.0000000000000568
 11
-1016.363343019632
 21
-1577.026968967471
 31
0.0000000000000568
  0
LINE
  5
8B
  8
FAB_3$PI_PROJECTOR$PANEL-P
 10
-1016.363343019632
 20
-1577.026968967471
 30
0.0000000000000568
 11
-1015.166274601555
 21
-1577.372545023476
 31
0.0000000000000568
  0
LINE
  5
8C
  8
FAB_3$PI_PROJECTOR$PANEL-P
 10
-1015.166274601555
 20
-1577.372545023476
 30
0.0000000000000568
 11
-1013.989395610108
 21
-1577.747832051121
 31
0.0000000000000568
  0
LINE
  5
8D
  8
FAB_3$PI_PROJECTOR$PANEL-P
 10
-1013.989395610108
 20
-1577.747832051121
 30
0.0000000000000568
 11
-1012.834687955154
 21
-1578.154018498477
 31
0.0000000000000568
  0
LINE
  5
8E
  8
FAB_3$PI_PROJECTOR$PANEL-P
 10
-1012.834687955154
 20
-1578.154018498477
 30
0.0000000000000568
 11
-1011.704133546556
 21
-1578.592292813614
 31
0.0000000000000568
  0
LINE
  5
8F
  8
FAB_3$PI_PROJECTOR$PANEL-P
 10
-1011.704133546556
 20
-1578.592292813614
 30
0.0000000000000568
 11
-1010.599714294178
 21
-1579.063843444601
 31
0.0000000000000568
  0
LINE
  5
90
  8
FAB_3$PI_PROJECTOR$PANEL-P
 10
-1010.599714294178
 20
-1579.063843444601
 30
0.0000000000000568
 11
-1010.057924698403
 21
-1579.31246876856
 31
0.0000000000000568
  0
LINE
  5
91
  8
FAB_3$PI_PROJECTOR$PANEL-P
 10
-1010.057924698403
 20
-1579.31246876856
 30
0.0000000000000568
 11
-1009.523412107882
 21
-1579.569858839509
 31
0.0000000000000568
  0
LINE
  5
92
  8
FAB_3$PI_PROJECTOR$PANEL-P
 10
-1009.523412107882
 20
-1579.569858839509
 30
0.0000000000000568
 11
-1008.996424261347
 21
-1579.836162213455
 31
0.0000000000000568
  0
LINE
  5
93
  8
FAB_3$PI_PROJECTOR$PANEL-P
 10
-1008.996424261347
 20
-1579.836162213455
 30
0.0000000000000568
 11
-1008.477208897531
 21
-1580.111527446407
 31
0.0000000000000568
  0
LINE
  5
94
  8
FAB_3$PI_PROJECTOR$PANEL-P
 10
-1008.477208897531
 20
-1580.111527446407
 30
0.0000000000000568
 11
-1007.966013755168
 21
-1580.396103094374
 31
0.0000000000000568
  0
LINE
  5
95
  8
FAB_3$PI_PROJECTOR$PANEL-P
 10
-1007.966013755168
 20
-1580.396103094374
 30
0.0000000000000568
 11
-1007.463086572989
 21
-1580.690037713366
 31
0.0000000000000568
  0
LINE
  5
96
  8
FAB_3$PI_PROJECTOR$PANEL-P
 10
-1007.463086572989
 20
-1580.690037713366
 30
0.0000000000000568
 11
-1006.968675089728
 21
-1580.993479859389
 31
0.0000000000000568
  0
LINE
  5
97
  8
FAB_3$PI_PROJECTOR$PANEL-P
 10
-1006.968675089728
 20
-1580.993479859389
 30
0.0000000000000568
 11
-1006.483027044118
 21
-1581.306578088454
 31
0.0000000000000568
  0
LINE
  5
98
  8
FAB_3$PI_PROJECTOR$PANEL-P
 10
-1006.483027044118
 20
-1581.306578088454
 30
0.0000000000000568
 11
-1006.006390174891
 21
-1581.62948095657
 31
0.0000000000000568
  0
LINE
  5
99
  8
FAB_3$PI_PROJECTOR$PANEL-P
 10
-1006.006390174891
 20
-1581.62948095657
 30
0.0000000000000568
 11
-1005.53901222078
 21
-1581.962337019744
 31
0.0000000000000568
  0
LINE
  5
9A
  8
FAB_3$PI_PROJECTOR$PANEL-P
 10
-1005.53901222078
 20
-1581.962337019744
 30
0.0000000000000568
 11
-1005.081140920519
 21
-1582.305294833985
 31
0.0000000000000568
  0
LINE
  5
9B
  8
FAB_3$PI_PROJECTOR$PANEL-P
 10
-1005.081140920519
 20
-1582.305294833985
 30
0.0000000000000568
 11
-1004.63302401284
 21
-1582.658502955303
 31
0.0000000000000568
  0
LINE
  5
9C
  8
FAB_3$PI_PROJECTOR$PANEL-P
 10
-1004.63302401284
 20
-1582.658502955303
 30
0.0000000000000568
 11
-1004.194909236476
 21
-1583.022109939706
 31
0.0000000000000568
  0
LINE
  5
9D
  8
FAB_3$PI_PROJECTOR$PANEL-P
 10
-1004.194909236476
 20
-1583.022109939706
 30
0.0000000000000568
 11
-1003.76704433016
 21
-1583.396264343203
 31
0.0000000000000568
  0
LINE
  5
9E
  8
FAB_3$PI_PROJECTOR$PANEL-P
 10
-1003.76704433016
 20
-1583.396264343203
 30
0.0000000000000568
 11
-1003.349677032625
 21
-1583.781114721803
 31
0.0000000000000568
  0
LINE
  5
9F
  8
FAB_3$PI_PROJECTOR$PANEL-P
 10
-1003.349677032625
 20
-1583.781114721803
 30
0.0000000000000568
 11
-1002.943055082603
 21
-1584.176809631513
 31
0.0000000000000568
  0
LINE
  5
A0
  8
FAB_3$PI_PROJECTOR$PANEL-P
 10
-1002.943055082603
 20
-1584.176809631513
 30
0.0000000000000568
 11
-1002.440496100039
 21
-1584.697099161019
 31
0.0000000000000568
  0
LINE
  5
A1
  8
FAB_3$PI_PROJECTOR$PANEL-P
 10
-1002.440496100039
 20
-1584.697099161019
 30
0.0000000000000568
 11
-1001.955496703862
 21
-1585.234742760623
 31
0.0000000000000568
  0
LINE
  5
A2
  8
FAB_3$PI_PROJECTOR$PANEL-P
 10
-1001.955496703862
 20
-1585.234742760623
 30
0.0000000000000568
 11
-1001.487749069619
 21
-1585.789227088164
 31
0.0000000000000568
  0
LINE
  5
A3
  8
FAB_3$PI_PROJECTOR$PANEL-P
 10
-1001.487749069619
 20
-1585.789227088164
 30
0.0000000000000568
 11
-1001.036945372858
 21
-1586.36003880148
 31
0.0000000000000568
  0
LINE
  5
A4
  8
FAB_3$PI_PROJECTOR$PANEL-P
 10
-1001.036945372858
 20
-1586.36003880148
 30
0.0000000000000568
 11
-1000.602777789125
 21
-1586.946664558409
 31
0.0000000000000568
  0
LINE
  5
A5
  8
FAB_3$PI_PROJECTOR$PANEL-P
 10
-1000.602777789125
 20
-1586.946664558409
 30
0.0000000000000568
 11
-1000.184938493966
 21
-1587.548591016788
 31
0.0000000000000568
  0
LINE
  5
A6
  8
FAB_3$PI_PROJECTOR$PANEL-P
 10
-1000.184938493966
 20
-1587.548591016788
 30
0.0000000000000568
 11
-999.7831196629284
 21
-1588.165304834456
 31
0.0000000000000568
  0
LINE
  5
A7
  8
FAB_3$PI_PROJECTOR$PANEL-P
 10
-999.7831196629284
 20
-1588.165304834456
 30
0.0000000000000568
 11
-999.3970134715585
 21
-1588.796292669249
 31
0.0000000000000568
  0
LINE
  5
A8
  8
FAB_3$PI_PROJECTOR$PANEL-P
 10
-999.3970134715585
 20
-1588.796292669249
 30
0.0000000000000568
 11
-999.0263120954031
 21
-1589.441041179008
 31
0.0000000000000568
  0
LINE
  5
A9
  8
FAB_3$PI_PROJECTOR$PANEL-P
 10
-999.0263120954031
 20
-1589.441041179008
 30
0.0000000000000568
 11
-998.6707077100089
 21
-1590.099037021568
 31
0.0000000000000568
  0
LINE
  5
AA
  8
FAB_3$PI_PROJECTOR$PANEL-P
 10
-998.6707077100089
 20
-1590.099037021568
 30
0.0000000000000568
 11
-998.3298924909225
 21
-1590.769766854769
 31
0.0000000000000568
  0
LINE
  5
AB
  8
FAB_3$PI_PROJECTOR$PANEL-P
 10
-998.3298924909225
 20
-1590.769766854769
 30
0.0000000000000568
 11
-998.0035586136906
 21
-1591.452717336448
 31
0.0000000000000568
  0
LINE
  5
AC
  8
FAB_3$PI_PROJECTOR$PANEL-P
 10
-998.0035586136906
 20
-1591.452717336448
 30
0.0000000000000568
 11
-997.6913982538599
 21
-1592.147375124443
 31
0.0000000000000568
  0
LINE
  5
AD
  8
FAB_3$PI_PROJECTOR$PANEL-P
 10
-997.6913982538599
 20
-1592.147375124443
 30
0.0000000000000568
 11
-997.3931035869768
 21
-1592.853226876593
 31
0.0000000000000568
  0
LINE
  5
AE
  8
FAB_3$PI_PROJECTOR$PANEL-P
 10
-997.3931035869768
 20
-1592.853226876593
 30
0.0000000000000568
 11
-997.1083667885885
 21
-1593.569759250733
 31
0.0000000000000568
  0
LINE
  5
AF
  8
FAB_3$PI_PROJECTOR$PANEL-P
 10
-997.1083667885885
 20
-1593.569759250733
 30
0.0000000000000568
 11
-996.8368800342412
 21
-1594.296458904704
 31
0.0000000000000568
  0
LINE
  5
B0
  8
FAB_3$PI_PROJECTOR$PANEL-P
 10
-996.8368800342412
 20
-1594.296458904704
 30
0.0000000000000568
 11
-996.5783354994817
 21
-1595.032812496342
 31
0.0000000000000568
  0
LINE
  5
B1
  8
FAB_3$PI_PROJECTOR$PANEL-P
 10
-996.5783354994817
 20
-1595.032812496342
 30
0.0000000000000568
 11
-996.3324253598566
 21
-1595.778306683486
 31
0.0000000000000568
  0
LINE
  5
B2
  8
FAB_3$PI_PROJECTOR$PANEL-P
 10
-996.3324253598566
 20
-1595.778306683486
 30
0.0000000000000568
 11
-996.0988417909127
 21
-1596.532428123974
 31
0.0000000000000568
  0
LINE
  5
B3
  8
FAB_3$PI_PROJECTOR$PANEL-P
 10
-996.0988417909127
 20
-1596.532428123974
 30
0.0000000000000568
 11
-995.8772769681967
 21
-1597.294663475644
 31
0.0000000000000568
  0
LINE
  5
B4
  8
FAB_3$PI_PROJECTOR$PANEL-P
 10
-995.8772769681967
 20
-1597.294663475644
 30
0.0000000000000568
 11
-995.4689722636347
 21
-1598.841422543878
 31
0.0000000000000568
  0
LINE
  5
B5
  8
FAB_3$PI_PROJECTOR$PANEL-P
 10
-995.4689722636347
 20
-1598.841422543878
 30
0.0000000000000568
 11
-995.105048650544
 21
-1600.414477150895
 31
0.0000000000000568
  0
LINE
  5
B6
  8
FAB_3$PI_PROJECTOR$PANEL-P
 10
-995.105048650544
 20
-1600.414477150895
 30
0.0000000000000568
 11
-994.7830435332978
 21
-1602.009720559395
 31
0.0000000000000568
  0
LINE
  5
B7
  8
FAB_3$PI_PROJECTOR$PANEL-P
 10
-994.7830435332978
 20
-1602.009720559395
 30
0.0000000000000568
 11
-994.5004943162694
 21
-1603.623046032084
 31
0.0000000000000568
  0
LINE
  5
B8
  8
FAB_3$PI_PROJECTOR$PANEL-P
 10
-994.5004943162694
 20
-1603.623046032084
 30
0.0000000000000568
 11
-994.2549384038323
 21
-1605.250346831665
 31
0.0000000000000568
  0
LINE
  5
B9
  8
FAB_3$PI_PROJECTOR$PANEL-P
 10
-994.2549384038323
 20
-1605.250346831665
 30
0.0000000000000568
 11
-994.0439132003596
 21
-1606.887516220839
 31
0.0000000000000568
  0
ARC
  5
BA
  8
FAB_3$PI_PROJECTOR$PANEL-P
 10
-974.1830913331261
 20
-1604.532148997237
 30
0.0000000000000568
 40
20.0
 50
186.763325797104
 51
269.9999999999837
  0
LINE
  5
BB
  8
FAB_3$PI_PROJECTOR$PANEL-P
 10
-974.1830913331319
 20
-1624.532148997193
 30
0.0000000000000568
 11
-961.5888315012794
 21
-1624.532148997191
 31
0.0000000000000568
  0
ARC
  5
BC
  8
FAB_3$PI_PROJECTOR$PANEL-P
 10
-961.5888315012795
 20
-1604.532148997191
 30
0.0000000000000568
 40
20.0
 50
270.0000000000003
 51
347.3393689442815
  0
LINE
  5
BD
  8
FAB_3$PI_PROJECTOR$PANEL-P
 10
-942.0751240240294
 20
-1608.915665906285
 30
0.0000000000000568
 11
-941.5167694997651
 21
-1606.614072766015
 31
0.0000000000000568
  0
LINE
  5
BE
  8
FAB_3$PI_PROJECTOR$PANEL-P
 10
-941.5167694997651
 20
-1606.614072766015
 30
0.0000000000000568
 11
-940.8755756920173
 21
-1604.318689897784
 31
0.0000000000000568
  0
LINE
  5
BF
  8
FAB_3$PI_PROJECTOR$PANEL-P
 10
-940.8755756920173
 20
-1604.318689897784
 30
0.0000000000000568
 11
-940.5236745967859
 21
-1603.175250171528
 31
0.0000000000000568
  0
LINE
  5
C0
  8
FAB_3$PI_PROJECTOR$PANEL-P
 10
-940.5236745967859
 20
-1603.175250171528
 30
0.0000000000000568
 11
-940.1508271597146
 21
-1602.035692628331
 31
0.0000000000000568
  0
LINE
  5
C1
  8
FAB_3$PI_PROJECTOR$PANEL-P
 10
-940.1508271597146
 20
-1602.035692628331
 30
0.0000000000000568
 11
-939.7570087596569
 21
-1600.900814371583
 31
0.0000000000000568
  0
LINE
  5
C2
  8
FAB_3$PI_PROJECTOR$PANEL-P
 10
-939.7570087596569
 20
-1600.900814371583
 30
0.0000000000000568
 11
-939.3422219711063
 21
-1599.771419701477
 31
0.0000000000000568
  0
LINE
  5
C3
  8
FAB_3$PI_PROJECTOR$PANEL-P
 10
-939.3422219711063
 20
-1599.771419701477
 30
0.0000000000000568
 11
-938.9064971152834
 21
-1598.648318491131
 31
0.0000000000000568
  0
LINE
  5
C4
  8
FAB_3$PI_PROJECTOR$PANEL-P
 10
-938.9064971152834
 20
-1598.648318491131
 30
0.0000000000000568
 11
-938.4498927324724
 21
-1597.53232450528
 31
0.0000000000000568
  0
LINE
  5
C5
  8
FAB_3$PI_PROJECTOR$PANEL-P
 10
-938.4498927324724
 20
-1597.53232450528
 30
0.0000000000000568
 11
-937.9724959712559
 21
-1596.424253667805
 31
0.0000000000000568
  0
LINE
  5
C6
  8
FAB_3$PI_PROJECTOR$PANEL-P
 10
-937.9724959712559
 20
-1596.424253667805
 30
0.0000000000000568
 11
-937.4744228906866
 21
-1595.324922284862
 31
0.0000000000000568
  0
LINE
  5
C7
  8
FAB_3$PI_PROJECTOR$PANEL-P
 10
-937.4744228906866
 20
-1595.324922284862
 30
0.0000000000000568
 11
-936.9558186718623
 21
-1594.235145230852
 31
0.0000000000000568
  0
LINE
  5
C8
  8
FAB_3$PI_PROJECTOR$PANEL-P
 10
-936.9558186718623
 20
-1594.235145230852
 30
0.0000000000000568
 11
-936.4168577358384
 21
-1593.1557341049
 31
0.0000000000000568
  0
LINE
  5
C9
  8
FAB_3$PI_PROJECTOR$PANEL-P
 10
-936.4168577358384
 20
-1593.1557341049
 30
0.0000000000000568
 11
-935.8577437653316
 21
-1592.087495365894
 31
0.0000000000000568
  0
LINE
  5
CA
  8
FAB_3$PI_PROJECTOR$PANEL-P
 10
-935.8577437653316
 20
-1592.087495365894
 30
0.0000000000000568
 11
-935.2787096282017
 21
-1591.031228454442
 31
0.0000000000000568
  0
LINE
  5
CB
  8
FAB_3$PI_PROJECTOR$PANEL-P
 10
-935.2787096282017
 20
-1591.031228454442
 30
0.0000000000000568
 11
-934.6800172012835
 21
-1589.987723910403
 31
0.0000000000000568
  0
LINE
  5
CC
  8
FAB_3$PI_PROJECTOR$PANEL-P
 10
-934.6800172012835
 20
-1589.987723910403
 30
0.0000000000000568
 11
-934.0619570937369
 21
-1588.957761494806
 31
0.0000000000000568
  0
LINE
  5
CD
  8
FAB_3$PI_PROJECTOR$PANEL-P
 10
-934.0619570937369
 20
-1588.957761494806
 30
0.0000000000000568
 11
-933.4248482697018
 21
-1587.94210832515
 31
0.0000000000000568
  0
LINE
  5
CE
  8
FAB_3$PI_PROJECTOR$PANEL-P
 10
-933.4248482697018
 20
-1587.94210832515
 30
0.0000000000000568
 11
-932.7690375706824
 21
-1586.941517033087
 31
0.0000000000000568
  0
LINE
  5
CF
  8
FAB_3$PI_PROJECTOR$PANEL-P
 10
-932.7690375706824
 20
-1586.941517033087
 30
0.0000000000000568
 11
-932.0948991387205
 21
-1585.956723953545
 31
0.0000000000000568
  0
LINE
  5
D0
  8
FAB_3$PI_PROJECTOR$PANEL-P
 10
-932.0948991387205
 20
-1585.956723953545
 30
0.0000000000000568
 11
-931.4028337420689
 21
-1584.988447354204
 31
0.0000000000000568
  0
LINE
  5
D1
  8
FAB_3$PI_PROJECTOR$PANEL-P
 10
-931.4028337420689
 20
-1584.988447354204
 30
0.0000000000000568
 11
-930.6932680057056
 21
-1584.037385714122
 31
0.0000000000000568
  0
LINE
  5
D2
  8
FAB_3$PI_PROJECTOR$PANEL-P
 10
-930.6932680057056
 20
-1584.037385714122
 30
0.0000000000000568
 11
-929.9666535496568
 21
-1583.104216060049
 31
0.0000000000000568
  0
LINE
  5
D3
  8
FAB_3$PI_PROJECTOR$PANEL-P
 10
-929.9666535496568
 20
-1583.104216060049
 30
0.0000000000000568
 11
-929.2234660387082
 21
-1582.189592368699
 31
0.0000000000000568
  0
LINE
  5
D4
  8
FAB_3$PI_PROJECTOR$PANEL-P
 10
-929.2234660387082
 20
-1582.189592368699
 30
0.0000000000000568
 11
-928.4642041476611
 21
-1581.294144042827
 31
0.0000000000000568
  0
LINE
  5
D5
  8
FAB_3$PI_PROJECTOR$PANEL-P
 10
-928.4642041476611
 20
-1581.294144042827
 30
0.0000000000000568
 11
-927.689388446844
 21
-1580.418474468579
 31
0.0000000000000568
  0
LINE
  5
D6
  8
FAB_3$PI_PROJECTOR$PANEL-P
 10
-927.689388446844
 20
-1580.418474468579
 30
0.0000000000000568
 11
-926.899560213106
 21
-1579.563159661028
 31
0.0000000000000568
  0
LINE
  5
D7
  8
FAB_3$PI_PROJECTOR$PANEL-P
 10
-926.899560213106
 20
-1579.563159661028
 30
0.0000000000000568
 11
-926.0952801719883
 21
-1578.728747004291
 31
0.0000000000000568
  0
LINE
  5
D8
  8
FAB_3$PI_PROJECTOR$PANEL-P
 10
-926.0952801719883
 20
-1578.728747004291
 30
0.0000000000000568
 11
-925.2771271772016
 21
-1577.915754091989
 31
0.0000000000000568
  0
LINE
  5
D9
  8
FAB_3$PI_PROJECTOR$PANEL-P
 10
-925.2771271772016
 20
-1577.915754091989
 30
0.0000000000000568
 11
-924.4456968339051
 21
-1577.124667673176
 31
0.0000000000000568
  0
LINE
  5
DA
  8
FAB_3$PI_PROJECTOR$PANEL-P
 10
-924.4456968339051
 20
-1577.124667673176
 30
0.0000000000000568
 11
-923.6016000726116
 21
-1576.355942708142
 31
0.0000000000000568
  0
LINE
  5
DB
  8
FAB_3$PI_PROJECTOR$PANEL-P
 10
-923.6016000726116
 20
-1576.355942708142
 30
0.0000000000000568
 11
-922.7454616808005
 21
-1575.610001537811
 31
0.0000000000000568
  0
LINE
  5
DC
  8
FAB_3$PI_PROJECTOR$PANEL-P
 10
-922.7454616808005
 20
-1575.610001537811
 30
0.0000000000000568
 11
-921.8779187995262
 21
-1574.88723316968
 31
0.0000000000000568
  0
LINE
  5
DD
  8
FAB_3$PI_PROJECTOR$PANEL-P
 10
-921.8779187995262
 20
-1574.88723316968
 30
0.0000000000000568
 11
-920.999619392452
 21
-1574.187992682477
 31
0.0000000000000568
  0
LINE
  5
DE
  8
FAB_3$PI_PROJECTOR$PANEL-P
 10
-920.999619392452
 20
-1574.187992682477
 30
0.0000000000000568
 11
-920.1112206948209
 21
-1573.512600750978
 31
0.0000000000000568
  0
LINE
  5
DF
  8
FAB_3$PI_PROJECTOR$PANEL-P
 10
-920.1112206948209
 20
-1573.512600750978
 30
0.0000000000000568
 11
-919.2133876498905
 21
-1572.86134329161
 31
0.0000000000000568
  0
LINE
  5
E0
  8
FAB_3$PI_PROJECTOR$PANEL-P
 10
-919.2133876498905
 20
-1572.86134329161
 30
0.0000000000000568
 11
-918.3067913403253
 21
-1572.234471228745
 31
0.0000000000000568
  0
LINE
  5
E1
  8
FAB_3$PI_PROJECTOR$PANEL-P
 10
-918.3067913403253
 20
-1572.234471228745
 30
0.0000000000000568
 11
-917.3921074219307
 21
-1571.632200380814
 31
0.0000000000000568
  0
LINE
  5
E2
  8
FAB_3$PI_PROJECTOR$PANEL-P
 10
-917.3921074219307
 20
-1571.632200380814
 30
0.0000000000000568
 11
-916.4700145669632
 21
-1571.054711464653
 31
0.0000000000000568
  0
LINE
  5
E3
  8
FAB_3$PI_PROJECTOR$PANEL-P
 10
-916.4700145669632
 20
-1571.054711464653
 30
0.0000000000000568
 11
-915.5411929240347
 21
-1570.502150215802
 31
0.0000000000000568
  0
LINE
  5
E4
  8
FAB_3$PI_PROJECTOR$PANEL-P
 10
-915.5411929240347
 20
-1570.502150215802
 30
0.0000000000000568
 11
-914.6063226013713
 21
-1569.974627621813
 31
0.0000000000000568
  0
LINE
  5
E5
  8
FAB_3$PI_PROJECTOR$PANEL-P
 10
-914.6063226013713
 20
-1569.974627621813
 30
0.0000000000000568
 11
-913.6660821798788
 21
-1569.472220264998
 31
0.0000000000000568
  0
LINE
  5
E6
  8
FAB_3$PI_PROJECTOR$PANEL-P
 10
-913.6660821798788
 20
-1569.472220264998
 30
0.0000000000000568
 11
-912.7211472621182
 21
-1568.994970770483
 31
0.0000000000000568
  0
LINE
  5
E7
  8
FAB_3$PI_PROJECTOR$PANEL-P
 10
-912.7211472621182
 20
-1568.994970770483
 30
0.0000000000000568
 11
-911.7721890629027
 21
-1568.542888354901
 31
0.0000000000000568
  0
LINE
  5
E8
  8
FAB_3$PI_PROJECTOR$PANEL-P
 10
-911.7721890629027
 20
-1568.542888354901
 30
0.0000000000000568
 11
-910.8198730468188
 21
-1568.115949470583
 31
0.0000000000000568
  0
LINE
  5
E9
  8
FAB_3$PI_PROJECTOR$PANEL-P
 10
-910.8198730468188
 20
-1568.115949470583
 30
0.0000000000000568
 11
-909.8648576175185
 21
-1567.7140985397
 31
0.0000000000000568
  0
LINE
  5
EA
  8
FAB_3$PI_PROJECTOR$PANEL-P
 10
-909.8648576175185
 20
-1567.7140985397
 30
0.0000000000000568
 11
-908.9077928631704
 21
-1567.337248772441
 31
0.0000000000000568
  0
LINE
  5
EB
  8
FAB_3$PI_PROJECTOR$PANEL-P
 10
-908.9077928631704
 20
-1567.337248772441
 30
0.0000000000000568
 11
-907.9493193619667
 21
-1566.985283063005
 31
0.0000000000000568
  0
LINE
  5
EC
  8
FAB_3$PI_PROJECTOR$PANEL-P
 10
-907.9493193619667
 20
-1566.985283063005
 30
0.0000000000000568
 11
-906.9900670510973
 21
-1566.658054956966
 31
0.0000000000000568
  0
LINE
  5
ED
  8
FAB_3$PI_PROJECTOR$PANEL-P
 10
-906.9900670510973
 20
-1566.658054956966
 30
0.0000000000000568
 11
-906.0306541620929
 21
-1566.355389683365
 31
0.0000000000000568
  0
LINE
  5
EE
  8
FAB_3$PI_PROJECTOR$PANEL-P
 10
-906.0306541620929
 20
-1566.355389683365
 30
0.0000000000000568
 11
-905.0716862249457
 21
-1566.077085244767
 31
0.0000000000000568
  0
LINE
  5
EF
  8
FAB_3$PI_PROJECTOR$PANEL-P
 10
-905.0716862249457
 20
-1566.077085244767
 30
0.0000000000000568
 11
-904.1137551429155
 21
-1565.822913558454
 31
0.0000000000000568
  0
LINE
  5
F0
  8
FAB_3$PI_PROJECTOR$PANEL-P
 10
-904.1137551429155
 20
-1565.822913558454
 30
0.0000000000000568
 11
-903.1574383394404
 21
-1565.59262164191
 31
0.0000000000000568
  0
LINE
  5
F1
  8
FAB_3$PI_PROJECTOR$PANEL-P
 10
-903.1574383394404
 20
-1565.59262164191
 30
0.0000000000000568
 11
-902.2032979780972
 21
-1565.385932835784
 31
0.0000000000000568
  0
LINE
  5
F2
  8
FAB_3$PI_PROJECTOR$PANEL-P
 10
-902.2032979780972
 20
-1565.385932835784
 30
0.0000000000000568
 11
-901.2518802560948
 21
-1565.20254805761
 31
0.0000000000000568
  0
LINE
  5
F3
  8
FAB_3$PI_PROJECTOR$PANEL-P
 10
-901.2518802560948
 20
-1565.20254805761
 30
0.0000000000000568
 11
-900.3037147713434
 21
-1565.042147079695
 31
0.0000000000000568
  0
LINE
  5
F4
  8
FAB_3$PI_PROJECTOR$PANEL-P
 10
-900.3037147713434
 20
-1565.042147079695
 30
0.0000000000000568
 11
-899.3593139627283
 21
-1564.904389824744
 31
0.0000000000000568
  0
LINE
  5
F5
  8
FAB_3$PI_PROJECTOR$PANEL-P
 10
-899.3593139627283
 20
-1564.904389824744
 30
0.0000000000000568
 11
-898.4191726228154
 21
-1564.788917673009
 31
0.0000000000000568
  0
LINE
  5
F6
  8
FAB_3$PI_PROJECTOR$PANEL-P
 10
-898.4191726228154
 20
-1564.788917673009
 30
0.0000000000000568
 11
-897.483767481861
 21
-1564.695354775002
 31
0.0000000000000568
  0
LINE
  5
F7
  8
FAB_3$PI_PROJECTOR$PANEL-P
 10
-897.483767481861
 20
-1564.695354775002
 30
0.0000000000000568
 11
-896.5535568616503
 21
-1564.623309364059
 31
0.0000000000000568
  0
LINE
  5
F8
  8
FAB_3$PI_PROJECTOR$PANEL-P
 10
-896.5535568616503
 20
-1564.623309364059
 30
0.0000000000000568
 11
-895.6289803973848
 21
-1564.57237506334
 31
0.0000000000000568
  0
LINE
  5
F9
  8
FAB_3$PI_PROJECTOR$PANEL-P
 10
-895.6289803973848
 20
-1564.57237506334
 30
0.0000000000000568
 11
-894.710458825568
 21
-1564.542132182209
 31
0.0000000000000568
  0
LINE
  5
FA
  8
FAB_3$PI_PROJECTOR$PANEL-P
 10
-894.710458825568
 20
-1564.542132182209
 30
0.0000000000000568
 11
-893.7983938355787
 21
-1564.532148997193
 31
0.0000000000000568
  0
LINE
  5
FB
  8
FAB_3$PI_PROJECTOR$PANEL-P
 10
-893.7983938355787
 20
-1564.532148997193
 30
0.0000000000000568
 11
-892.8863286282385
 21
-1564.542132183035
 31
0.0000000000000568
  0
LINE
  5
FC
  8
FAB_3$PI_PROJECTOR$PANEL-P
 10
-892.8863286282385
 20
-1564.542132183035
 30
0.0000000000000568
 11
-891.9678068378877
 21
-1564.572375066738
 31
0.0000000000000568
  0
LINE
  5
FD
  8
FAB_3$PI_PROJECTOR$PANEL-P
 10
-891.9678068378877
 20
-1564.572375066738
 30
0.0000000000000568
 11
-891.043230154238
 21
-1564.623309371907
 31
0.0000000000000568
  0
LINE
  5
FE
  8
FAB_3$PI_PROJECTOR$PANEL-P
 10
-891.043230154238
 20
-1564.623309371907
 30
0.0000000000000568
 11
-890.1130193141416
 21
-1564.695354789306
 31
0.0000000000000568
  0
LINE
  5
FF
  8
FAB_3$PI_PROJECTOR$PANEL-P
 10
-890.1130193141416
 20
-1564.695354789306
 30
0.0000000000000568
 11
-889.1776139531675
 21
-1564.788917695892
 31
0.0000000000000568
  0
LINE
  5
100
  8
FAB_3$PI_PROJECTOR$PANEL-P
 10
-889.1776139531675
 20
-1564.788917695892
 30
0.0000000000000568
 11
-888.2374723934823
 21
-1564.904389858438
 31
0.0000000000000568
  0
LINE
  5
101
  8
FAB_3$PI_PROJECTOR$PANEL-P
 10
-888.2374723934823
 20
-1564.904389858438
 30
0.0000000000000568
 11
-887.2930713657411
 21
-1565.042147126531
 31
0.0000000000000568
  0
LINE
  5
102
  8
FAB_3$PI_PROJECTOR$PANEL-P
 10
-887.2930713657411
 20
-1565.042147126531
 30
0.0000000000000568
 11
-886.344905662923
 21
-1565.202548120004
 31
0.0000000000000568
  0
LINE
  5
103
  8
FAB_3$PI_PROJECTOR$PANEL-P
 10
-886.344905662923
 20
-1565.202548120004
 30
0.0000000000000568
 11
-885.3934877243415
 21
-1565.385932916227
 31
0.0000000000000568
  0
LINE
  5
104
  8
FAB_3$PI_PROJECTOR$PANEL-P
 10
-885.3934877243415
 20
-1565.385932916227
 30
0.0000000000000568
 11
-884.4393471483485
 21
-1565.592621742955
 31
0.0000000000000568
  0
LINE
  5
105
  8
FAB_3$PI_PROJECTOR$PANEL-P
 10
-884.4393471483485
 20
-1565.592621742955
 30
0.0000000000000568
 11
-883.4830301326065
 21
-1565.822913682699
 31
0.0000000000000568
  0
LINE
  5
106
  8
FAB_3$PI_PROJECTOR$PANEL-P
 10
-883.4830301326065
 20
-1565.822913682699
 30
0.0000000000000568
 11
-882.5250988411581
 21
-1566.07708539484
 31
0.0000000000000568
  0
LINE
  5
107
  8
FAB_3$PI_PROJECTOR$PANEL-P
 10
-882.5250988411581
 20
-1566.07708539484
 30
0.0000000000000568
 11
-881.5661306979179
 21
-1566.35538986191
 31
0.0000000000000568
  0
LINE
  5
108
  8
FAB_3$PI_PROJECTOR$PANEL-P
 10
-881.5661306979179
 20
-1566.35538986191
 30
0.0000000000000568
 11
-880.606717606631
 21
-1566.658055166622
 31
0.0000000000000568
  0
LINE
  5
109
  8
FAB_3$PI_PROJECTOR$PANEL-P
 10
-880.606717606631
 20
-1566.658055166622
 30
0.0000000000000568
 11
-879.6474650977832
 21
-1566.98528330639
 31
0.0000000000000568
  0
LINE
  5
10A
  8
FAB_3$PI_PROJECTOR$PANEL-P
 10
-879.6474650977832
 20
-1566.98528330639
 30
0.0000000000000568
 11
-878.6889914034051
 21
-1567.337249052132
 31
0.0000000000000568
  0
LINE
  5
10B
  8
FAB_3$PI_PROJECTOR$PANEL-P
 10
-878.6889914034051
 20
-1567.337249052132
 30
0.0000000000000568
 11
-877.7319264611914
 21
-1567.714098858216
 31
0.0000000000000568
  0
LINE
  5
10C
  8
FAB_3$PI_PROJECTOR$PANEL-P
 10
-877.7319264611914
 20
-1567.714098858216
 30
0.0000000000000568
 11
-876.7769108498428
 21
-1568.115949830362
 31
0.0000000000000568
  0
LINE
  5
10D
  8
FAB_3$PI_PROJECTOR$PANEL-P
 10
-876.7769108498428
 20
-1568.115949830362
 30
0.0000000000000568
 11
-875.8245946580372
 21
-1568.542888758281
 31
0.0000000000000568
  0
LINE
  5
10E
  8
FAB_3$PI_PROJECTOR$PANEL-P
 10
-875.8245946580372
 20
-1568.542888758281
 30
0.0000000000000568
 11
-874.8756362899364
 21
-1568.994971219679
 31
0.0000000000000568
  0
LINE
  5
10F
  8
FAB_3$PI_PROJECTOR$PANEL-P
 10
-874.8756362899364
 20
-1568.994971219679
 30
0.0000000000000568
 11
-873.9307012106353
 21
-1569.472220762082
 31
0.0000000000000568
  0
LINE
  5
110
  8
FAB_3$PI_PROJECTOR$PANEL-P
 10
-873.9307012106353
 20
-1569.472220762082
 30
0.0000000000000568
 11
-872.9904606354506
 21
-1569.974628168693
 31
0.0000000000000568
  0
LINE
  5
111
  8
FAB_3$PI_PROJECTOR$PANEL-P
 10
-872.9904606354506
 20
-1569.974628168693
 30
0.0000000000000568
 11
-872.0555901674416
 21
-1570.502150814198
 31
0.0000000000000568
  0
LINE
  5
112
  8
FAB_3$PI_PROJECTOR$PANEL-P
 10
-872.0555901674416
 20
-1570.502150814198
 30
0.0000000000000568
 11
-871.1267683880047
 21
-1571.054712116079
 31
0.0000000000000568
  0
LINE
  5
113
  8
FAB_3$PI_PROJECTOR$PANEL-P
 10
-871.1267683880047
 20
-1571.054712116079
 30
0.0000000000000568
 11
-870.2046754058474
 21
-1571.632201086553
 31
0.0000000000000568
  0
LINE
  5
114
  8
FAB_3$PI_PROJECTOR$PANEL-P
 10
-870.2046754058474
 20
-1571.632201086553
 30
0.0000000000000568
 11
-869.2899913700503
 21
-1572.234471989831
 31
0.0000000000000568
  0
LINE
  5
115
  8
FAB_3$PI_PROJECTOR$PANEL-P
 10
-869.2899913700503
 20
-1572.234471989831
 30
0.0000000000000568
 11
-868.3833949533256
 21
-1572.861344108805
 31
0.0000000000000568
  0
LINE
  5
116
  8
FAB_3$PI_PROJECTOR$PANEL-P
 10
-868.3833949533256
 20
-1572.861344108805
 30
0.0000000000000568
 11
-867.485561811919
 21
-1573.512601624755
 31
0.0000000000000568
  0
LINE
  5
117
  8
FAB_3$PI_PROJECTOR$PANEL-P
 10
-867.485561811919
 20
-1573.512601624755
 30
0.0000000000000568
 11
-866.5971630289172
 21
-1574.187993612998
 31
0.0000000000000568
  0
LINE
  5
118
  8
FAB_3$PI_PROJECTOR$PANEL-P
 10
-866.5971630289172
 20
-1574.187993612998
 30
0.0000000000000568
 11
-865.7188635479812
 21
-1574.887234156776
 31
0.0000000000000568
  0
LINE
  5
119
  8
FAB_3$PI_PROJECTOR$PANEL-P
 10
-865.7188635479812
 20
-1574.887234156776
 30
0.0000000000000568
 11
-864.851320604735
 21
-1575.610002580971
 31
0.0000000000000568
  0
LINE
  5
11A
  8
FAB_3$PI_PROJECTOR$PANEL-P
 10
-864.851320604735
 20
-1575.610002580971
 30
0.0000000000000568
 11
-863.9951821632012
 21
-1576.355943806491
 31
0.0000000000000568
  0
LINE
  5
11B
  8
FAB_3$PI_PROJECTOR$PANEL-P
 10
-863.9951821632012
 20
-1576.355943806491
 30
0.0000000000000568
 11
-863.1510853647682
 21
-1577.124668825464
 31
0.0000000000000568
  0
LINE
  5
11C
  8
FAB_3$PI_PROJECTOR$PANEL-P
 10
-863.1510853647682
 20
-1577.124668825464
 30
0.0000000000000568
 11
-862.3196549972228
 21
-1577.915755296573
 31
0.0000000000000568
  0
LINE
  5
11D
  8
FAB_3$PI_PROJECTOR$PANEL-P
 10
-862.3196549972228
 20
-1577.915755296573
 30
0.0000000000000568
 11
-861.5015019913578
 21
-1578.728748259125
 31
0.0000000000000568
  0
LINE
  5
11E
  8
FAB_3$PI_PROJECTOR$PANEL-P
 10
-861.5015019913578
 20
-1578.728748259125
 30
0.0000000000000568
 11
-860.6972219525836
 21
-1579.563160963656
 31
0.0000000000000568
  0
LINE
  5
11F
  8
FAB_3$PI_PROJECTOR$PANEL-P
 10
-860.6972219525836
 20
-1579.563160963656
 30
0.0000000000000568
 11
-859.9073937348302
 21
-1580.418475816121
 31
0.0000000000000568
  0
LINE
  5
120
  8
FAB_3$PI_PROJECTOR$PANEL-P
 10
-859.9073937348302
 20
-1580.418475816121
 30
0.0000000000000568
 11
-859.132578063828
 21
-1581.294145431974
 31
0.0000000000000568
  0
LINE
  5
121
  8
FAB_3$PI_PROJECTOR$PANEL-P
 10
-859.132578063828
 20
-1581.294145431974
 30
0.0000000000000568
 11
-858.3733162165821
 21
-1582.189593795707
 31
0.0000000000000568
  0
LINE
  5
122
  8
FAB_3$PI_PROJECTOR$PANEL-P
 10
-858.3733162165821
 20
-1582.189593795707
 30
0.0000000000000568
 11
-857.6301287635441
 21
-1583.104217520738
 31
0.0000000000000568
  0
LINE
  5
123
  8
FAB_3$PI_PROJECTOR$PANEL-P
 10
-857.6301287635441
 20
-1583.104217520738
 30
0.0000000000000568
 11
-856.9035143796045
 21
-1584.037387203869
 31
0.0000000000000568
  0
LINE
  5
124
  8
FAB_3$PI_PROJECTOR$PANEL-P
 10
-856.9035143796045
 20
-1584.037387203869
 30
0.0000000000000568
 11
-856.1939487296038
 21
-1584.988448867952
 31
0.0000000000000568
  0
LINE
  5
125
  8
FAB_3$PI_PROJECTOR$PANEL-P
 10
-856.1939487296038
 20
-1584.988448867952
 30
0.0000000000000568
 11
-855.501883433588
 21
-1585.956725485797
 31
0.0000000000000568
  0
LINE
  5
126
  8
FAB_3$PI_PROJECTOR$PANEL-P
 10
-855.501883433588
 20
-1585.956725485797
 30
0.0000000000000568
 11
-854.82774511652
 21
-1586.941518577915
 31
0.0000000000000568
  0
LINE
  5
127
  8
FAB_3$PI_PROJECTOR$PANEL-P
 10
-854.82774511652
 20
-1586.941518577915
 30
0.0000000000000568
 11
-854.1719345466036
 21
-1587.942109876201
 31
0.0000000000000568
  0
LINE
  5
128
  8
FAB_3$PI_PROJECTOR$PANEL-P
 10
-854.1719345466036
 20
-1587.942109876201
 30
0.0000000000000568
 11
-853.5348258657963
 21
-1588.95776304531
 31
0.0000000000000568
  0
LINE
  5
129
  8
FAB_3$PI_PROJECTOR$PANEL-P
 10
-853.5348258657963
 20
-1588.95776304531
 30
0.0000000000000568
 11
-852.9167659154837
 21
-1589.987725453179
 31
0.0000000000000568
  0
LINE
  5
12A
  8
FAB_3$PI_PROJECTOR$PANEL-P
 10
-852.9167659154837
 20
-1589.987725453179
 30
0.0000000000000568
 11
-852.3180736596537
 21
-1591.031229981918
 31
0.0000000000000568
  0
LINE
  5
12B
  8
FAB_3$PI_PROJECTOR$PANEL-P
 10
-852.3180736596537
 20
-1591.031229981918
 30
0.0000000000000568
 11
-851.7390397072817
 21
-1592.087496870114
 31
0.0000000000000568
  0
LINE
  5
12C
  8
FAB_3$PI_PROJECTOR$PANEL-P
 10
-851.7390397072817
 20
-1592.087496870114
 30
0.0000000000000568
 11
-851.1799259349852
 21
-1593.155735577542
 31
0.0000000000000568
  0
LINE
  5
12D
  8
FAB_3$PI_PROJECTOR$PANEL-P
 10
-851.1799259349852
 20
-1593.155735577542
 30
0.0000000000000568
 11
-850.6409652103762
 21
-1594.235146663245
 31
0.0000000000000568
  0
LINE
  5
12E
  8
FAB_3$PI_PROJECTOR$PANEL-P
 10
-850.6409652103762
 20
-1594.235146663245
 30
0.0000000000000568
 11
-850.1223612158924
 21
-1595.324923668006
 31
0.0000000000000568
  0
LINE
  5
12F
  8
FAB_3$PI_PROJECTOR$PANEL-P
 10
-850.1223612158924
 20
-1595.324923668006
 30
0.0000000000000568
 11
-849.6242883722831
 21
-1596.424254992386
 31
0.0000000000000568
  0
LINE
  5
130
  8
FAB_3$PI_PROJECTOR$PANEL-P
 10
-849.6242883722831
 20
-1596.424254992386
 30
0.0000000000000568
 11
-849.1468918603123
 21
-1597.532325761697
 31
0.0000000000000568
  0
LINE
  5
131
  8
FAB_3$PI_PROJECTOR$PANEL-P
 10
-849.1468918603123
 20
-1597.532325761697
 30
0.0000000000000568
 11
-848.6902877386723
 21
-1598.648319669515
 31
0.0000000000000568
  0
LINE
  5
132
  8
FAB_3$PI_PROJECTOR$PANEL-P
 10
-848.6902877386723
 20
-1598.648319669515
 30
0.0000000000000568
 11
-848.2545631555619
 21
-1599.771420791715
 31
0.0000000000000568
  0
LINE
  5
133
  8
FAB_3$PI_PROJECTOR$PANEL-P
 10
-848.2545631555619
 20
-1599.771420791715
 30
0.0000000000000568
 11
-847.8397766508581
 21
-1600.900815363341
 31
0.0000000000000568
  0
LINE
  5
134
  8
FAB_3$PI_PROJECTOR$PANEL-P
 10
-847.8397766508581
 20
-1600.900815363341
 30
0.0000000000000568
 11
-847.4459585453549
 21
-1602.035693511083
 31
0.0000000000000568
  0
LINE
  5
135
  8
FAB_3$PI_PROJECTOR$PANEL-P
 10
-847.4459585453549
 20
-1602.035693511083
 30
0.0000000000000568
 11
-847.0731114130994
 21
-1603.175250934577
 31
0.0000000000000568
  0
LINE
  5
136
  8
FAB_3$PI_PROJECTOR$PANEL-P
 10
-847.0731114130994
 20
-1603.175250934577
 30
0.0000000000000568
 11
-846.7212106324806
 21
-1604.318690530289
 31
0.0000000000000568
  0
LINE
  5
137
  8
FAB_3$PI_PROJECTOR$PANEL-P
 10
-846.7212106324806
 20
-1604.318690530289
 30
0.0000000000000568
 11
-846.0800174814219
 21
-1606.614073104474
 31
0.0000000000000568
  0
LINE
  5
138
  8
FAB_3$PI_PROJECTOR$PANEL-P
 10
-846.0800174814219
 20
-1606.614073104474
 30
0.0000000000000568
 11
-845.5216636471281
 21
-1608.915665906284
 31
0.0000000000000568
  0
ARC
  5
139
  8
FAB_3$PI_PROJECTOR$PANEL-P
 10
-826.0079561698777
 20
-1604.532148997191
 30
0.0000000000000568
 40
20.0
 50
192.6606310557164
 51
269.9999999999984
  0
LINE
  5
13A
  8
FAB_3$PI_PROJECTOR$PANEL-P
 10
-826.0079561698783
 20
-1624.532148997191
 30
0.0000000000000568
 11
-813.4136963380258
 21
-1624.532148997193
 31
0.0000000000000568
  0
ARC
  5
13B
  8
FAB_3$PI_PROJECTOR$PANEL-P
 10
-813.4136963380258
 20
-1604.532148997193
 30
0.0000000000000568
 40
20.0
 50
270.0
 51
353.2366742027667
  0
LINE
  5
13C
  8
FAB_3$PI_PROJECTOR$PANEL-P
 10
-793.5528744707976
 20
-1606.887516220839
 30
0.0000000000000568
 11
-793.341849063971
 21
-1605.250346149069
 31
0.0000000000000568
  0
LINE
  5
13D
  8
FAB_3$PI_PROJECTOR$PANEL-P
 10
-793.341849063971
 20
-1605.250346149069
 30
0.0000000000000568
 11
-793.0962929721479
 21
-1603.6230448144
 31
0.0000000000000568
  0
LINE
  5
13E
  8
FAB_3$PI_PROJECTOR$PANEL-P
 10
-793.0962929721479
 20
-1603.6230448144
 30
0.0000000000000568
 11
-792.813743600376
 21
-1602.009718942022
 31
0.0000000000000568
  0
LINE
  5
13F
  8
FAB_3$PI_PROJECTOR$PANEL-P
 10
-792.813743600376
 20
-1602.009718942022
 30
0.0000000000000568
 11
-792.4917383537024
 21
-1600.414475257126
 31
0.0000000000000568
  0
LINE
  5
140
  8
FAB_3$PI_PROJECTOR$PANEL-P
 10
-792.4917383537024
 20
-1600.414475257126
 30
0.0000000000000568
 11
-792.1278146371747
 21
-1598.841420484904
 31
0.0000000000000568
  0
LINE
  5
141
  8
FAB_3$PI_PROJECTOR$PANEL-P
 10
-792.1278146371747
 20
-1598.841420484904
 30
0.0000000000000568
 11
-791.7195098558404
 21
-1597.294661350547
 31
0.0000000000000568
  0
LINE
  5
142
  8
FAB_3$PI_PROJECTOR$PANEL-P
 10
-791.7195098558404
 20
-1597.294661350547
 30
0.0000000000000568
 11
-791.497945004948
 21
-1596.532425999189
 31
0.0000000000000568
  0
LINE
  5
143
  8
FAB_3$PI_PROJECTOR$PANEL-P
 10
-791.497945004948
 20
-1596.532425999189
 30
0.0000000000000568
 11
-791.2643614147466
 21
-1595.778304579245
 31
0.0000000000000568
  0
LINE
  5
144
  8
FAB_3$PI_PROJECTOR$PANEL-P
 10
-791.2643614147466
 20
-1595.778304579245
 30
0.0000000000000568
 11
-791.0184512608674
 21
-1595.032810431362
 31
0.0000000000000568
  0
LINE
  5
145
  8
FAB_3$PI_PROJECTOR$PANEL-P
 10
-791.0184512608674
 20
-1595.032810431362
 30
0.0000000000000568
 11
-790.759906718941
 21
-1594.296456896189
 31
0.0000000000000568
  0
LINE
  5
146
  8
FAB_3$PI_PROJECTOR$PANEL-P
 10
-790.759906718941
 20
-1594.296456896189
 30
0.0000000000000568
 11
-790.4884199645985
 21
-1593.569757314375
 31
0.0000000000000568
  0
LINE
  5
147
  8
FAB_3$PI_PROJECTOR$PANEL-P
 10
-790.4884199645985
 20
-1593.569757314375
 30
0.0000000000000568
 11
-790.2036831734708
 21
-1592.85322502657
 31
0.0000000000000568
  0
LINE
  5
148
  8
FAB_3$PI_PROJECTOR$PANEL-P
 10
-790.2036831734708
 20
-1592.85322502657
 30
0.0000000000000568
 11
-789.9053885211888
 21
-1592.147373373422
 31
0.0000000000000568
  0
LINE
  5
149
  8
FAB_3$PI_PROJECTOR$PANEL-P
 10
-789.9053885211888
 20
-1592.147373373422
 30
0.0000000000000568
 11
-789.5932281833835
 21
-1591.452715695579
 31
0.0000000000000568
  0
LINE
  5
14A
  8
FAB_3$PI_PROJECTOR$PANEL-P
 10
-789.5932281833835
 20
-1591.452715695579
 30
0.0000000000000568
 11
-789.2668943356857
 21
-1590.769765333692
 31
0.0000000000000568
  0
LINE
  5
14B
  8
FAB_3$PI_PROJECTOR$PANEL-P
 10
-789.2668943356857
 20
-1590.769765333692
 30
0.0000000000000568
 11
-788.9260791537265
 21
-1590.099035628407
 31
0.0000000000000568
  0
LINE
  5
14C
  8
FAB_3$PI_PROJECTOR$PANEL-P
 10
-788.9260791537265
 20
-1590.099035628407
 30
0.0000000000000568
 11
-788.5704748131366
 21
-1589.441039920376
 31
0.0000000000000568
  0
LINE
  5
14D
  8
FAB_3$PI_PROJECTOR$PANEL-P
 10
-788.5704748131366
 20
-1589.441039920376
 30
0.0000000000000568
 11
-788.199773489547
 21
-1588.796291550245
 31
0.0000000000000568
  0
LINE
  5
14E
  8
FAB_3$PI_PROJECTOR$PANEL-P
 10
-788.199773489547
 20
-1588.796291550245
 30
0.0000000000000568
 11
-787.8136673585889
 21
-1588.165303858665
 31
0.0000000000000568
  0
LINE
  5
14F
  8
FAB_3$PI_PROJECTOR$PANEL-P
 10
-787.8136673585889
 20
-1588.165303858665
 30
0.0000000000000568
 11
-787.4118485958927
 21
-1587.548590186284
 31
0.0000000000000568
  0
LINE
  5
150
  8
FAB_3$PI_PROJECTOR$PANEL-P
 10
-787.4118485958927
 20
-1587.548590186284
 30
0.0000000000000568
 11
-786.9940093770897
 21
-1586.946663873751
 31
0.0000000000000568
  0
LINE
  5
151
  8
FAB_3$PI_PROJECTOR$PANEL-P
 10
-786.9940093770897
 20
-1586.946663873751
 30
0.0000000000000568
 11
-786.5598418778109
 21
-1586.360038261715
 31
0.0000000000000568
  0
LINE
  5
152
  8
FAB_3$PI_PROJECTOR$PANEL-P
 10
-786.5598418778109
 20
-1586.360038261715
 30
0.0000000000000568
 11
-786.109038273687
 21
-1585.789226690824
 31
0.0000000000000568
  0
LINE
  5
153
  8
FAB_3$PI_PROJECTOR$PANEL-P
 10
-786.109038273687
 20
-1585.789226690824
 30
0.0000000000000568
 11
-785.641290740349
 21
-1585.234742501728
 31
0.0000000000000568
  0
LINE
  5
154
  8
FAB_3$PI_PROJECTOR$PANEL-P
 10
-785.641290740349
 20
-1585.234742501728
 30
0.0000000000000568
 11
-785.1562914534277
 21
-1584.697099035075
 31
0.0000000000000568
  0
LINE
  5
155
  8
FAB_3$PI_PROJECTOR$PANEL-P
 10
-785.1562914534277
 20
-1584.697099035075
 30
0.0000000000000568
 11
-784.6537325885542
 21
-1584.176809631514
 31
0.0000000000000568
  0
LINE
  5
156
  8
FAB_3$PI_PROJECTOR$PANEL-P
 10
-784.6537325885542
 20
-1584.176809631514
 30
0.0000000000000568
 11
-784.2471107367348
 21
-1583.781114814845
 31
0.0000000000000568
  0
LINE
  5
157
  8
FAB_3$PI_PROJECTOR$PANEL-P
 10
-784.2471107367348
 20
-1583.781114814845
 30
0.0000000000000568
 11
-783.8297435422579
 21
-1583.396264524152
 31
0.0000000000000568
  0
LINE
  5
158
  8
FAB_3$PI_PROJECTOR$PANEL-P
 10
-783.8297435422579
 20
-1583.396264524152
 30
0.0000000000000568
 11
-783.4018787434704
 21
-1583.02211020353
 31
0.0000000000000568
  0
LINE
  5
159
  8
FAB_3$PI_PROJECTOR$PANEL-P
 10
-783.4018787434704
 20
-1583.02211020353
 30
0.0000000000000568
 11
-782.9637640787196
 21
-1582.658503297077
 31
0.0000000000000568
  0
LINE
  5
15A
  8
FAB_3$PI_PROJECTOR$PANEL-P
 10
-782.9637640787196
 20
-1582.658503297077
 30
0.0000000000000568
 11
-782.5156472863522
 21
-1582.30529524889
 31
0.0000000000000568
  0
LINE
  5
15B
  8
FAB_3$PI_PROJECTOR$PANEL-P
 10
-782.5156472863522
 20
-1582.30529524889
 30
0.0000000000000568
 11
-782.0577761047156
 21
-1581.962337503065
 31
0.0000000000000568
  0
LINE
  5
15C
  8
FAB_3$PI_PROJECTOR$PANEL-P
 10
-782.0577761047156
 20
-1581.962337503065
 30
0.0000000000000568
 11
-781.5903982721568
 21
-1581.629481503699
 31
0.0000000000000568
  0
LINE
  5
15D
  8
FAB_3$PI_PROJECTOR$PANEL-P
 10
-781.5903982721568
 20
-1581.629481503699
 30
0.0000000000000568
 11
-781.1137615270226
 21
-1581.30657869489
 31
0.0000000000000568
  0
LINE
  5
15E
  8
FAB_3$PI_PROJECTOR$PANEL-P
 10
-781.1137615270226
 20
-1581.30657869489
 30
0.0000000000000568
 11
-780.6281136076602
 21
-1580.993480520734
 31
0.0000000000000568
  0
LINE
  5
15F
  8
FAB_3$PI_PROJECTOR$PANEL-P
 10
-780.6281136076602
 20
-1580.993480520734
 30
0.0000000000000568
 11
-780.1337022524168
 21
-1580.690038425328
 31
0.0000000000000568
  0
LINE
  5
160
  8
FAB_3$PI_PROJECTOR$PANEL-P
 10
-780.1337022524168
 20
-1580.690038425328
 30
0.0000000000000568
 11
-779.6307751996394
 21
-1580.396103852768
 31
0.0000000000000568
  0
LINE
  5
161
  8
FAB_3$PI_PROJECTOR$PANEL-P
 10
-779.6307751996394
 20
-1580.396103852768
 30
0.0000000000000568
 11
-779.1195801876747
 21
-1580.111528247152
 31
0.0000000000000568
  0
LINE
  5
162
  8
FAB_3$PI_PROJECTOR$PANEL-P
 10
-779.1195801876747
 20
-1580.111528247152
 30
0.0000000000000568
 11
-778.6003649548702
 21
-1579.836163052576
 31
0.0000000000000568
  0
LINE
  5
163
  8
FAB_3$PI_PROJECTOR$PANEL-P
 10
-778.6003649548702
 20
-1579.836163052576
 30
0.0000000000000568
 11
-778.0733772395727
 21
-1579.569859713138
 31
0.0000000000000568
  0
LINE
  5
164
  8
FAB_3$PI_PROJECTOR$PANEL-P
 10
-778.0733772395727
 20
-1579.569859713138
 30
0.0000000000000568
 11
-777.5388647801293
 21
-1579.312469672934
 31
0.0000000000000568
  0
LINE
  5
165
  8
FAB_3$PI_PROJECTOR$PANEL-P
 10
-777.5388647801293
 20
-1579.312469672934
 30
0.0000000000000568
 11
-776.9970753148871
 21
-1579.063844376062
 31
0.0000000000000568
  0
LINE
  5
166
  8
FAB_3$PI_PROJECTOR$PANEL-P
 10
-776.9970753148871
 20
-1579.063844376062
 30
0.0000000000000568
 11
-775.8926563203943
 21
-1578.592293788697
 31
0.0000000000000568
  0
LINE
  5
167
  8
FAB_3$PI_PROJECTOR$PANEL-P
 10
-775.8926563203943
 20
-1578.592293788697
 30
0.0000000000000568
 11
-774.7621021628709
 21
-1578.154019503819
 31
0.0000000000000568
  0
LINE
  5
168
  8
FAB_3$PI_PROJECTOR$PANEL-P
 10
-774.7621021628709
 20
-1578.154019503819
 30
0.0000000000000568
 11
-773.607394749093
 21
-1577.747833074202
 31
0.0000000000000568
  0
LINE
  5
169
  8
FAB_3$PI_PROJECTOR$PANEL-P
 10
-773.607394749093
 20
-1577.747833074202
 30
0.0000000000000568
 11
-772.4305159858372
 21
-1577.372546052623
 31
0.0000000000000568
  0
LINE
  5
16A
  8
FAB_3$PI_PROJECTOR$PANEL-P
 10
-772.4305159858372
 20
-1577.372546052623
 30
0.0000000000000568
 11
-771.23344777988
 21
-1577.026969991854
 31
0.0000000000000568
  0
LINE
  5
16B
  8
FAB_3$PI_PROJECTOR$PANEL-P
 10
-771.23344777988
 20
-1577.026969991854
 30
0.0000000000000568
 11
-770.0181720379974
 21
-1576.709916444673
 31
0.0000000000000568
  0
LINE
  5
16C
  8
FAB_3$PI_PROJECTOR$PANEL-P
 10
-770.0181720379974
 20
-1576.709916444673
 30
0.0000000000000568
 11
-768.7866706669662
 21
-1576.420196963853
 31
0.0000000000000568
  0
LINE
  5
16D
  8
FAB_3$PI_PROJECTOR$PANEL-P
 10
-768.7866706669662
 20
-1576.420196963853
 30
0.0000000000000568
 11
-767.5409255735626
 21
-1576.156623102168
 31
0.0000000000000568
  0
LINE
  5
16E
  8
FAB_3$PI_PROJECTOR$PANEL-P
 10
-767.5409255735626
 20
-1576.156623102168
 30
0.0000000000000568
 11
-766.2829186645633
 21
-1575.918006412395
 31
0.0000000000000568
  0
LINE
  5
16F
  8
FAB_3$PI_PROJECTOR$PANEL-P
 10
-766.2829186645633
 20
-1575.918006412395
 30
0.0000000000000568
 11
-765.0146318467444
 21
-1575.703158447309
 31
0.0000000000000568
  0
LINE
  5
170
  8
FAB_3$PI_PROJECTOR$PANEL-P
 10
-765.0146318467444
 20
-1575.703158447309
 30
0.0000000000000568
 11
-762.4551461117535
 21
-1575.340014902294
 31
0.0000000000000568
  0
LINE
  5
171
  8
FAB_3$PI_PROJECTOR$PANEL-P
 10
-762.4551461117535
 20
-1575.340014902294
 30
0.0000000000000568
 11
-759.8783236228012
 21
-1575.057684889323
 31
0.0000000000000568
  0
LINE
  5
172
  8
FAB_3$PI_PROJECTOR$PANEL-P
 10
-759.8783236228012
 20
-1575.057684889323
 30
0.0000000000000568
 11
-757.3000196340988
 21
-1574.846660830595
 31
0.0000000000000568
  0
LINE
  5
173
  8
FAB_3$PI_PROJECTOR$PANEL-P
 10
-757.3000196340988
 20
-1574.846660830595
 30
0.0000000000000568
 11
-754.7360893998577
 21
-1574.69743514831
 31
0.0000000000000568
  0
LINE
  5
174
  8
FAB_3$PI_PROJECTOR$PANEL-P
 10
-754.7360893998577
 20
-1574.69743514831
 30
0.0000000000000568
 11
-752.2023881742889
 21
-1574.600500264666
 31
0.0000000000000568
  0
LINE
  5
175
  8
FAB_3$PI_PROJECTOR$PANEL-P
 10
-752.2023881742889
 20
-1574.600500264666
 30
0.0000000000000568
 11
-747.2890937660129
 21
-1574.525472582103
 31
0.0000000000000568
  0
ARC
  5
176
  8
FAB_3$PI_PROJECTOR$PANEL-P
 10
-747.2983938355792
 20
-1571.525486997353
 30
0.0000000000000545
 40
3.0
 50
270.1776185295993
 51
0.0
  0
LINE
  5
177
  8
FAB_3$PI_PROJECTOR$PANEL-P
 10
-744.2983938355792
 20
-1571.525486997353
 30
0.0000000000000404
 11
-744.2983938355792
 21
-1545.556014322039
 31
0.0000000000000323
  0
ENDSEC
  0
EOF
