  0
SECTION
  2
HEADER
  9
$ACADVER
  1
AC1009
  9
$DWGCODEPAGE
  3
mac-roman
  9
$INSBASE
 10
0.0
 20
0.0
 30
0.0
  9
$EXTMIN
 10
0.0
 20
0.0
 30
0.0
  9
$EXTMAX
 10
339.0619308322275
 20
162.3610954127822
 30
0.0
  9
$LIMMIN
 10
0.0
 20
0.0
  9
$LIMMAX
 10
12.0
 20
9.0
  9
$ORTHOMODE
 70
     0
  9
$REGENMODE
 70
     1
  9
$FILLMODE
 70
     1
  9
$QTEXTMODE
 70
     0
  9
$MIRRTEXT
 70
     1
  9
$DRAGMODE
 70
     2
  9
$LTSCALE
 40
1.0
  9
$OSMODE
 70
    37
  9
$ATTMODE
 70
     1
  9
$TEXTSIZE
 40
0.2
  9
$TRACEWID
 40
0.05
  9
$TEXTSTYLE
  7
STANDARD
  9
$CLAYER
  8
0
  9
$CELTYPE
  6
BYLAYER
  9
$CECOLOR
 62
   256
  9
$DIMSCALE
 40
1.0
  9
$DIMASZ
 40
0.18
  9
$DIMEXO
 40
0.0625
  9
$DIMDLI
 40
0.38
  9
$DIMRND
 40
0.0
  9
$DIMDLE
 40
0.0
  9
$DIMEXE
 40
0.18
  9
$DIMTP
 40
0.0
  9
$DIMTM
 40
0.0
  9
$DIMTXT
 40
0.18
  9
$DIMCEN
 40
0.09
  9
$DIMTSZ
 40
0.0
  9
$DIMTOL
 70
     0
  9
$DIMLIM
 70
     0
  9
$DIMTIH
 70
     1
  9
$DIMTOH
 70
     1
  9
$DIMSE1
 70
     0
  9
$DIMSE2
 70
     0
  9
$DIMTAD
 70
     0
  9
$DIMZIN
 70
     0
  9
$DIMBLK
  1

  9
$DIMASO
 70
     1
  9
$DIMSHO
 70
     1
  9
$DIMPOST
  1

  9
$DIMAPOST
  1

  9
$DIMALT
 70
     0
  9
$DIMALTD
 70
     2
  9
$DIMALTF
 40
25.4
  9
$DIMLFAC
 40
1.0
  9
$DIMTOFL
 70
     0
  9
$DIMTVP
 40
0.0
  9
$DIMTIX
 70
     0
  9
$DIMSOXD
 70
     0
  9
$DIMSAH
 70
     0
  9
$DIMBLK1
  1

  9
$DIMBLK2
  1

  9
$DIMSTYLE
  2
STANDARD
  9
$DIMCLRD
 70
     0
  9
$DIMCLRE
 70
     0
  9
$DIMCLRT
 70
     0
  9
$DIMTFAC
 40
1.0
  9
$DIMGAP
 40
0.09
  9
$LUNITS
 70
     2
  9
$LUPREC
 70
     3
  9
$SKETCHINC
 40
0.1
  9
$FILLETRAD
 40
0.5
  9
$AUNITS
 70
     0
  9
$AUPREC
 70
     0
  9
$MENU
  1
.
  9
$ELEVATION
 40
0.0
  9
$PELEVATION
 40
0.0
  9
$THICKNESS
 40
0.0
  9
$LIMCHECK
 70
     0
  9
$CHAMFERA
 40
0.0
  9
$CHAMFERB
 40
0.0
  9
$SKPOLY
 70
     0
  9
$TDCREATE
 40
2457965.650752315
  9
$TDUPDATE
 40
2457965.650902778
  9
$TDINDWG
 40
0.0000000116
  9
$TDUSRTIMER
 40
0.0000000116
  9
$USRTIMER
 70
     1
  9
$ANGBASE
 50
0.0
  9
$ANGDIR
 70
     0
  9
$PDMODE
 70
     0
  9
$PDSIZE
 40
0.0
  9
$PLINEWID
 40
0.0
  9
$COORDS
 70
     1
  9
$SPLFRAME
 70
     0
  9
$SPLINETYPE
 70
     6
  9
$SPLINESEGS
 70
     8
  9
$ATTDIA
 70
     0
  9
$ATTREQ
 70
     1
  9
$HANDLING
 70
     1
  9
$HANDSEED
  5
1F5
  9
$SURFTAB1
 70
     6
  9
$SURFTAB2
 70
     6
  9
$SURFTYPE
 70
     6
  9
$SURFU
 70
     6
  9
$SURFV
 70
     6
  9
$UCSNAME
  2

  9
$UCSORG
 10
0.0
 20
0.0
 30
0.0
  9
$UCSXDIR
 10
1.0
 20
0.0
 30
0.0
  9
$UCSYDIR
 10
0.0
 20
1.0
 30
0.0
  9
$PUCSNAME
  2

  9
$PUCSORG
 10
0.0
 20
0.0
 30
0.0
  9
$PUCSXDIR
 10
1.0
 20
0.0
 30
0.0
  9
$PUCSYDIR
 10
0.0
 20
1.0
 30
0.0
  9
$USERI1
 70
     0
  9
$USERI2
 70
     0
  9
$USERI3
 70
     0
  9
$USERI4
 70
     0
  9
$USERI5
 70
     0
  9
$USERR1
 40
0.0
  9
$USERR2
 40
0.0
  9
$USERR3
 40
0.0
  9
$USERR4
 40
0.0
  9
$USERR5
 40
0.0
  9
$WORLDVIEW
 70
     1
  9
$SHADEDGE
 70
     3
  9
$SHADEDIF
 70
    70
  9
$TILEMODE
 70
     1
  9
$MAXACTVP
 70
    64
  9
$PLIMCHECK
 70
     0
  9
$PEXTMIN
 10
1.000000000000000E+20
 20
1.000000000000000E+20
 30
1.000000000000000E+20
  9
$PEXTMAX
 10
-1.000000000000000E+20
 20
-1.000000000000000E+20
 30
-1.000000000000000E+20
  9
$PLIMMIN
 10
0.0
 20
0.0
  9
$PLIMMAX
 10
12.0
 20
9.0
  9
$UNITMODE
 70
     0
  9
$VISRETAIN
 70
     1
  9
$PLINEGEN
 70
     0
  9
$PSLTSCALE
 70
     1
  0
ENDSEC
  0
SECTION
  2
TABLES
  0
TABLE
  2
VPORT
 70
     1
  0
VPORT
  2
*ACTIVE
 70
     0
 10
0.0
 20
0.0
 11
1.0
 21
1.0
 12
169.5309654161138
 22
81.1805477063911
 13
0.0
 23
0.0
 14
0.5
 24
0.5
 15
0.5
 25
0.5
 16
0.0
 26
0.0
 36
1.0
 17
0.0
 27
0.0
 37
0.0
 40
165.6083173210378
 41
2.08832004964124
 42
50.0
 43
0.0
 44
0.0
 50
0.0
 51
0.0
 71
     0
 72
   100
 73
     1
 74
     3
 75
     0
 76
     0
 77
     0
 78
     0
  0
ENDTAB
  0
TABLE
  2
LTYPE
 70
     1
  0
LTYPE
  2
CONTINUOUS
 70
     0
  3
Solid line
 72
    65
 73
     0
 40
0.0
  0
ENDTAB
  0
TABLE
  2
LAYER
 70
     2
  0
LAYER
  2
0
 70
     0
 62
     7
  6
CONTINUOUS
  0
LAYER
  2
MAKE2D$VISIBLE$LINES
 70
     0
 62
     7
  6
CONTINUOUS
  0
ENDTAB
  0
TABLE
  2
STYLE
 70
     1
  0
STYLE
  2
STANDARD
 70
     0
 40
0.0
 41
1.0
 50
0.0
 71
     0
 42
0.2
  3
txt
  4

  0
ENDTAB
  0
TABLE
  2
VIEW
 70
     0
  0
ENDTAB
  0
TABLE
  2
UCS
 70
     0
  0
ENDTAB
  0
TABLE
  2
APPID
 70
     1
  0
APPID
  2
ACAD
 70
     0
  0
ENDTAB
  0
TABLE
  2
DIMSTYLE
 70
     1
  0
DIMSTYLE
  2
STANDARD
 70
     0
  3

  4

  5

  6

  7

 40
1.0
 41
0.18
 42
0.0625
 43
0.38
 44
0.18
 45
0.0
 46
0.0
 47
0.0
 48
0.0
140
0.18
141
0.09
142
0.0
143
25.4
144
1.0
145
0.0
146
1.0
147
0.09
 71
     0
 72
     0
 73
     1
 74
     1
 75
     0
 76
     0
 77
     0
 78
     0
170
     0
171
     2
172
     0
173
     0
174
     0
175
     0
176
     0
177
     0
178
     0
  0
ENDTAB
  0
ENDSEC
  0
SECTION
  2
BLOCKS
  0
BLOCK
  8
0
  2
$MODEL_SPACE
 70
     0
 10
0.0
 20
0.0
 30
0.0
  3
$MODEL_SPACE
  1

  0
ENDBLK
  5
21
  8
0
  0
BLOCK
 67
     1
  8
0
  2
$PAPER_SPACE
 70
     0
 10
0.0
 20
0.0
 30
0.0
  3
$PAPER_SPACE
  1

  0
ENDBLK
  5
1D
 67
     1
  8
0
  0
ENDSEC
  0
SECTION
  2
ENTITIES
  0
CIRCLE
  5
6F
  8
MAKE2D$VISIBLE$LINES
 10
250.2309654160515
 20
118.4303463850929
 30
0.0
 40
1.777999999999973
  0
CIRCLE
  5
70
  8
MAKE2D$VISIBLE$LINES
 10
88.83096541609825
 20
118.4303463850929
 30
0.0
 40
1.777999999999973
  0
CIRCLE
  5
71
  8
MAKE2D$VISIBLE$LINES
 10
311.5309654160799
 20
39.03034638500138
 30
0.0
 40
1.777999999999974
  0
CIRCLE
  5
72
  8
MAKE2D$VISIBLE$LINES
 10
27.53096541614763
 20
39.0303463850014
 30
0.0
 40
1.777999999999968
  0
LINE
  5
73
  8
MAKE2D$VISIBLE$LINES
 10
0.0
 20
69.18420778952236
 30
0.0
 11
0.0340477192346276
 21
72.67539701063319
 31
0.0
  0
LINE
  5
74
  8
MAKE2D$VISIBLE$LINES
 10
0.0340477192346276
 20
72.67539701063319
 30
0.0
 11
0.1361908769385103
 21
76.05575482789925
 31
0.0
  0
LINE
  5
75
  8
MAKE2D$VISIBLE$LINES
 10
0.1361908769385103
 20
76.05575482789925
 30
0.0
 11
0.3064294731116481
 21
79.32528124132051
 31
0.0
  0
LINE
  5
76
  8
MAKE2D$VISIBLE$LINES
 10
0.3064294731116481
 20
79.32528124132051
 30
0.0
 11
0.5447635077540411
 21
82.48397625089697
 31
0.0
  0
LINE
  5
77
  8
MAKE2D$VISIBLE$LINES
 10
0.5447635077540411
 20
82.48397625089697
 30
0.0
 11
0.8511929808656893
 21
85.53183985662865
 31
0.0
  0
LINE
  5
78
  8
MAKE2D$VISIBLE$LINES
 10
0.8511929808656893
 20
85.53183985662865
 30
0.0
 11
1.225717892446593
 21
88.46887205851554
 31
0.0
  0
LINE
  5
79
  8
MAKE2D$VISIBLE$LINES
 10
1.225717892446593
 20
88.46887205851554
 30
0.0
 11
1.668338242496751
 21
91.29507285655765
 31
0.0
  0
LINE
  5
7A
  8
MAKE2D$VISIBLE$LINES
 10
1.668338242496751
 20
91.29507285655765
 30
0.0
 11
2.179054031016165
 21
94.01044225075495
 31
0.0
  0
LINE
  5
7B
  8
MAKE2D$VISIBLE$LINES
 10
2.179054031016165
 20
94.01044225075495
 30
0.0
 11
2.757865258004833
 21
96.61498024110747
 31
0.0
  0
LINE
  5
7C
  8
MAKE2D$VISIBLE$LINES
 10
2.757865258004833
 20
96.61498024110747
 30
0.0
 11
3.072806660925139
 21
97.87568745984194
 31
0.0
  0
LINE
  5
7D
  8
MAKE2D$VISIBLE$LINES
 10
3.072806660925139
 20
97.87568745984194
 30
0.0
 11
3.404771923462757
 21
99.1086868276152
 31
0.0
  0
LINE
  5
7E
  8
MAKE2D$VISIBLE$LINES
 10
3.404771923462757
 20
99.1086868276152
 30
0.0
 11
3.75376104561769
 21
100.3139783444273
 31
0.0
  0
LINE
  5
7F
  8
MAKE2D$VISIBLE$LINES
 10
3.75376104561769
 20
100.3139783444273
 30
0.0
 11
4.119774027389936
 21
101.4915620102782
 31
0.0
  0
LINE
  5
80
  8
MAKE2D$VISIBLE$LINES
 10
4.119774027389936
 20
101.4915620102782
 30
0.0
 11
4.502810868779497
 21
102.6414378251678
 31
0.0
  0
LINE
  5
81
  8
MAKE2D$VISIBLE$LINES
 10
4.502810868779497
 20
102.6414378251678
 30
0.0
 11
4.90287156978637
 21
103.7636057890963
 31
0.0
  0
LINE
  5
82
  8
MAKE2D$VISIBLE$LINES
 10
4.90287156978637
 20
103.7636057890963
 30
0.0
 11
5.319956130410558
 21
104.8580659020636
 31
0.0
  0
LINE
  5
83
  8
MAKE2D$VISIBLE$LINES
 10
5.319956130410558
 20
104.8580659020636
 30
0.0
 11
5.75406455065206
 21
105.9248181640697
 31
0.0
  0
LINE
  5
84
  8
MAKE2D$VISIBLE$LINES
 10
5.75406455065206
 20
105.9248181640697
 30
0.0
 11
6.205196830510875
 21
106.9638625751146
 31
0.0
  0
LINE
  5
85
  8
MAKE2D$VISIBLE$LINES
 10
6.205196830510875
 20
106.9638625751146
 30
0.0
 11
6.673352969987004
 21
107.9751991351983
 31
0.0
  0
LINE
  5
86
  8
MAKE2D$VISIBLE$LINES
 10
6.673352969987004
 20
107.9751991351983
 30
0.0
 11
7.158532969080447
 21
108.9588278443208
 31
0.0
  0
LINE
  5
87
  8
MAKE2D$VISIBLE$LINES
 10
7.158532969080447
 20
108.9588278443208
 30
0.0
 11
7.660736827791204
 21
109.9147487024821
 31
0.0
  0
LINE
  5
88
  8
MAKE2D$VISIBLE$LINES
 10
7.660736827791204
 20
109.9147487024821
 30
0.0
 11
8.179964546119274
 21
110.8429617096822
 31
0.0
  0
LINE
  5
89
  8
MAKE2D$VISIBLE$LINES
 10
8.179964546119274
 20
110.8429617096822
 30
0.0
 11
8.716216124064658
 21
111.7434668659211
 31
0.0
  0
LINE
  5
8A
  8
MAKE2D$VISIBLE$LINES
 10
8.716216124064658
 20
111.7434668659211
 30
0.0
 11
9.269491561627357
 21
112.6162641711988
 31
0.0
  0
LINE
  5
8B
  8
MAKE2D$VISIBLE$LINES
 10
9.269491561627357
 20
112.6162641711988
 30
0.0
 11
9.839790858807369
 21
113.4613536255153
 31
0.0
  0
LINE
  5
8C
  8
MAKE2D$VISIBLE$LINES
 10
9.839790858807369
 20
113.4613536255153
 30
0.0
 11
10.42711401560469
 21
114.2787352288706
 31
0.0
  0
LINE
  5
8D
  8
MAKE2D$VISIBLE$LINES
 10
10.42711401560469
 20
114.2787352288706
 30
0.0
 11
11.03146103201933
 21
115.0684089812647
 31
0.0
  0
LINE
  5
8E
  8
MAKE2D$VISIBLE$LINES
 10
11.03146103201933
 20
115.0684089812647
 30
0.0
 11
11.65283190805129
 21
115.8303748826976
 31
0.0
  0
LINE
  5
8F
  8
MAKE2D$VISIBLE$LINES
 10
11.65283190805129
 20
115.8303748826976
 30
0.0
 11
12.29122664370055
 21
116.5646329331693
 31
0.0
  0
LINE
  5
90
  8
MAKE2D$VISIBLE$LINES
 10
12.29122664370055
 20
116.5646329331693
 30
0.0
 11
12.94664523896713
 21
117.2711831326799
 31
0.0
  0
LINE
  5
91
  8
MAKE2D$VISIBLE$LINES
 10
12.94664523896713
 20
117.2711831326799
 30
0.0
 11
13.61908769385103
 21
117.9500254812292
 31
0.0
  0
LINE
  5
92
  8
MAKE2D$VISIBLE$LINES
 10
13.61908769385103
 20
117.9500254812292
 30
0.0
 11
14.30855400835224
 21
118.6011599788173
 31
0.0
  0
LINE
  5
93
  8
MAKE2D$VISIBLE$LINES
 10
14.30855400835224
 20
118.6011599788173
 30
0.0
 11
15.01504418247076
 21
119.2245866254442
 31
0.0
  0
LINE
  5
94
  8
MAKE2D$VISIBLE$LINES
 10
15.01504418247076
 20
119.2245866254442
 30
0.0
 11
15.7385582162066
 21
119.82030542111
 31
0.0
  0
LINE
  5
95
  8
MAKE2D$VISIBLE$LINES
 10
15.7385582162066
 20
119.82030542111
 30
0.0
 11
16.47909610955974
 21
120.3883163658145
 31
0.0
  0
LINE
  5
96
  8
MAKE2D$VISIBLE$LINES
 10
16.47909610955974
 20
120.3883163658145
 30
0.0
 11
17.23665786253021
 21
120.9286194595578
 31
0.0
  0
LINE
  5
97
  8
MAKE2D$VISIBLE$LINES
 10
17.23665786253021
 20
120.9286194595578
 30
0.0
 11
17.62182268637194
 21
121.1883805623191
 31
0.0
  0
LINE
  5
98
  8
MAKE2D$VISIBLE$LINES
 10
17.62182268637194
 20
121.1883805623191
 30
0.0
 11
18.01124347511799
 21
121.44121470234
 31
0.0
  0
LINE
  5
99
  8
MAKE2D$VISIBLE$LINES
 10
18.01124347511799
 20
121.44121470234
 30
0.0
 11
18.40492022876837
 21
121.6871218796206
 31
0.0
  0
LINE
  5
9A
  8
MAKE2D$VISIBLE$LINES
 10
18.40492022876837
 20
121.6871218796206
 30
0.0
 11
18.80285294732307
 21
121.9261020941609
 31
0.0
  0
LINE
  5
9B
  8
MAKE2D$VISIBLE$LINES
 10
18.80285294732307
 20
121.9261020941609
 30
0.0
 11
19.20504163078212
 21
122.1581553459609
 31
0.0
  0
LINE
  5
9C
  8
MAKE2D$VISIBLE$LINES
 10
19.20504163078212
 20
122.1581553459609
 30
0.0
 11
19.61148627914548
 21
122.3832816350207
 31
0.0
  0
LINE
  5
9D
  8
MAKE2D$VISIBLE$LINES
 10
19.61148627914548
 20
122.3832816350207
 30
0.0
 11
20.4371434705852
 21
122.8127533249192
 31
0.0
  0
LINE
  5
9E
  8
MAKE2D$VISIBLE$LINES
 10
20.4371434705852
 20
122.8127533249192
 30
0.0
 11
21.27982452164223
 21
123.2145171638566
 31
0.0
  0
LINE
  5
9F
  8
MAKE2D$VISIBLE$LINES
 10
21.27982452164223
 20
123.2145171638566
 30
0.0
 11
22.13952943231658
 21
123.5885731518327
 31
0.0
  0
LINE
  5
A0
  8
MAKE2D$VISIBLE$LINES
 10
22.13952943231658
 20
123.5885731518327
 30
0.0
 11
23.01625820260824
 21
123.9349212888477
 31
0.0
  0
LINE
  5
A1
  8
MAKE2D$VISIBLE$LINES
 10
23.01625820260824
 20
123.9349212888477
 30
0.0
 11
23.91001083251721
 21
124.2535615749014
 31
0.0
  0
LINE
  5
A2
  8
MAKE2D$VISIBLE$LINES
 10
23.91001083251721
 20
124.2535615749014
 30
0.0
 11
24.8207873220435
 21
124.544494009994
 31
0.0
  0
LINE
  5
A3
  8
MAKE2D$VISIBLE$LINES
 10
24.8207873220435
 20
124.544494009994
 30
0.0
 11
25.7485876711871
 21
124.8077185941254
 31
0.0
  0
LINE
  5
A4
  8
MAKE2D$VISIBLE$LINES
 10
25.7485876711871
 20
124.8077185941254
 30
0.0
 11
26.69341187994802
 21
125.0432353272955
 31
0.0
  0
LINE
  5
A5
  8
MAKE2D$VISIBLE$LINES
 10
26.69341187994802
 20
125.0432353272955
 30
0.0
 11
27.65525994832624
 21
125.2510442095045
 31
0.0
  0
LINE
  5
A6
  8
MAKE2D$VISIBLE$LINES
 10
27.65525994832624
 20
125.2510442095045
 30
0.0
 11
28.63413187632179
 21
125.4311452407523
 31
0.0
  0
LINE
  5
A7
  8
MAKE2D$VISIBLE$LINES
 10
28.63413187632179
 20
125.4311452407523
 30
0.0
 11
29.63002766393464
 21
125.5835384210389
 31
0.0
  0
LINE
  5
A8
  8
MAKE2D$VISIBLE$LINES
 10
29.63002766393464
 20
125.5835384210389
 30
0.0
 11
30.64294731116481
 21
125.7082237503643
 31
0.0
  0
LINE
  5
A9
  8
MAKE2D$VISIBLE$LINES
 10
30.64294731116481
 20
125.7082237503643
 30
0.0
 11
31.6728908180123
 21
125.8052012287284
 31
0.0
  0
LINE
  5
AA
  8
MAKE2D$VISIBLE$LINES
 10
31.6728908180123
 20
125.8052012287284
 30
0.0
 11
32.7198581844771
 21
125.8744708561314
 31
0.0
  0
LINE
  5
AB
  8
MAKE2D$VISIBLE$LINES
 10
32.7198581844771
 20
125.8744708561314
 30
0.0
 11
33.78384941055921
 21
125.9160326325732
 31
0.0
  0
LINE
  5
AC
  8
MAKE2D$VISIBLE$LINES
 10
33.78384941055921
 20
125.9160326325732
 30
0.0
 11
34.86486449625863
 21
125.9298865580538
 31
0.0
  0
CIRCLE
  5
AD
  8
MAKE2D$VISIBLE$LINES
 10
183.5309654161161
 20
125.9303463850619
 30
0.0
 40
26.43074902772005
  0
LINE
  5
AE
  8
MAKE2D$VISIBLE$LINES
 10
339.0619308322275
 20
69.18420778952236
 30
0.0
 11
339.0278831129929
 21
72.67539701063319
 31
0.0
  0
LINE
  5
AF
  8
MAKE2D$VISIBLE$LINES
 10
339.0278831129929
 20
72.67539701063319
 30
0.0
 11
338.925739955289
 21
76.05575482789925
 31
0.0
  0
LINE
  5
B0
  8
MAKE2D$VISIBLE$LINES
 10
338.925739955289
 20
76.05575482789925
 30
0.0
 11
338.7555013591158
 21
79.32528124132051
 31
0.0
  0
LINE
  5
B1
  8
MAKE2D$VISIBLE$LINES
 10
338.7555013591158
 20
79.32528124132051
 30
0.0
 11
338.5171673244735
 21
82.48397625089697
 31
0.0
  0
LINE
  5
B2
  8
MAKE2D$VISIBLE$LINES
 10
338.5171673244735
 20
82.48397625089697
 30
0.0
 11
338.2107378513618
 21
85.53183985662865
 31
0.0
  0
LINE
  5
B3
  8
MAKE2D$VISIBLE$LINES
 10
338.2107378513618
 20
85.53183985662865
 30
0.0
 11
337.8362129397809
 21
88.46887205851554
 31
0.0
  0
LINE
  5
B4
  8
MAKE2D$VISIBLE$LINES
 10
337.8362129397809
 20
88.46887205851554
 30
0.0
 11
337.3935925897308
 21
91.29507285655765
 31
0.0
  0
LINE
  5
B5
  8
MAKE2D$VISIBLE$LINES
 10
337.3935925897308
 20
91.29507285655765
 30
0.0
 11
336.8828768012114
 21
94.01044225075495
 31
0.0
  0
LINE
  5
B6
  8
MAKE2D$VISIBLE$LINES
 10
336.8828768012114
 20
94.01044225075495
 30
0.0
 11
336.3040655742227
 21
96.61498024110747
 31
0.0
  0
LINE
  5
B7
  8
MAKE2D$VISIBLE$LINES
 10
336.3040655742227
 20
96.61498024110747
 30
0.0
 11
335.9891241713024
 21
97.87568745984194
 31
0.0
  0
LINE
  5
B8
  8
MAKE2D$VISIBLE$LINES
 10
335.9891241713024
 20
97.87568745984194
 30
0.0
 11
335.6571589087648
 21
99.1086868276152
 31
0.0
  0
LINE
  5
B9
  8
MAKE2D$VISIBLE$LINES
 10
335.6571589087648
 20
99.1086868276152
 30
0.0
 11
335.3081697866099
 21
100.3139783444273
 31
0.0
  0
LINE
  5
BA
  8
MAKE2D$VISIBLE$LINES
 10
335.3081697866099
 20
100.3139783444273
 30
0.0
 11
334.9421568048376
 21
101.4915620102782
 31
0.0
  0
LINE
  5
BB
  8
MAKE2D$VISIBLE$LINES
 10
334.9421568048376
 20
101.4915620102782
 30
0.0
 11
334.559119963448
 21
102.6414378251678
 31
0.0
  0
LINE
  5
BC
  8
MAKE2D$VISIBLE$LINES
 10
334.559119963448
 20
102.6414378251678
 30
0.0
 11
334.1590592624411
 21
103.7636057890963
 31
0.0
  0
LINE
  5
BD
  8
MAKE2D$VISIBLE$LINES
 10
334.1590592624411
 20
103.7636057890963
 30
0.0
 11
333.741974701817
 21
104.8580659020636
 31
0.0
  0
LINE
  5
BE
  8
MAKE2D$VISIBLE$LINES
 10
333.741974701817
 20
104.8580659020636
 30
0.0
 11
333.3078662815755
 21
105.9248181640697
 31
0.0
  0
LINE
  5
BF
  8
MAKE2D$VISIBLE$LINES
 10
333.3078662815755
 20
105.9248181640697
 30
0.0
 11
332.8567340017166
 21
106.9638625751146
 31
0.0
  0
LINE
  5
C0
  8
MAKE2D$VISIBLE$LINES
 10
332.8567340017166
 20
106.9638625751146
 30
0.0
 11
332.3885778622405
 21
107.9751991351983
 31
0.0
  0
LINE
  5
C1
  8
MAKE2D$VISIBLE$LINES
 10
332.3885778622405
 20
107.9751991351983
 30
0.0
 11
331.9033978631471
 21
108.9588278443208
 31
0.0
  0
LINE
  5
C2
  8
MAKE2D$VISIBLE$LINES
 10
331.9033978631471
 20
108.9588278443208
 30
0.0
 11
331.4011940044363
 21
109.9147487024821
 31
0.0
  0
LINE
  5
C3
  8
MAKE2D$VISIBLE$LINES
 10
331.4011940044363
 20
109.9147487024821
 30
0.0
 11
330.8819662861083
 21
110.8429617096822
 31
0.0
  0
LINE
  5
C4
  8
MAKE2D$VISIBLE$LINES
 10
330.8819662861083
 20
110.8429617096822
 30
0.0
 11
330.3457147081629
 21
111.7434668659211
 31
0.0
  0
LINE
  5
C5
  8
MAKE2D$VISIBLE$LINES
 10
330.3457147081629
 20
111.7434668659211
 30
0.0
 11
329.7924392706001
 21
112.6162641711988
 31
0.0
  0
LINE
  5
C6
  8
MAKE2D$VISIBLE$LINES
 10
329.7924392706001
 20
112.6162641711988
 30
0.0
 11
329.2221399734201
 21
113.4613536255153
 31
0.0
  0
LINE
  5
C7
  8
MAKE2D$VISIBLE$LINES
 10
329.2221399734201
 20
113.4613536255153
 30
0.0
 11
328.6348168166228
 21
114.2787352288706
 31
0.0
  0
LINE
  5
C8
  8
MAKE2D$VISIBLE$LINES
 10
328.6348168166228
 20
114.2787352288706
 30
0.0
 11
328.0304698002082
 21
115.0684089812647
 31
0.0
  0
LINE
  5
C9
  8
MAKE2D$VISIBLE$LINES
 10
328.0304698002082
 20
115.0684089812647
 30
0.0
 11
327.4090989241762
 21
115.8303748826976
 31
0.0
  0
LINE
  5
CA
  8
MAKE2D$VISIBLE$LINES
 10
327.4090989241762
 20
115.8303748826976
 30
0.0
 11
326.7707041885269
 21
116.5646329331693
 31
0.0
  0
LINE
  5
CB
  8
MAKE2D$VISIBLE$LINES
 10
326.7707041885269
 20
116.5646329331693
 30
0.0
 11
326.1152855932604
 21
117.2711831326799
 31
0.0
  0
LINE
  5
CC
  8
MAKE2D$VISIBLE$LINES
 10
326.1152855932604
 20
117.2711831326799
 30
0.0
 11
325.4428431383765
 21
117.9500254812292
 31
0.0
  0
LINE
  5
CD
  8
MAKE2D$VISIBLE$LINES
 10
325.4428431383765
 20
117.9500254812292
 30
0.0
 11
324.7533768238753
 21
118.6011599788173
 31
0.0
  0
LINE
  5
CE
  8
MAKE2D$VISIBLE$LINES
 10
324.7533768238753
 20
118.6011599788173
 30
0.0
 11
324.0468866497567
 21
119.2245866254442
 31
0.0
  0
LINE
  5
CF
  8
MAKE2D$VISIBLE$LINES
 10
324.0468866497567
 20
119.2245866254442
 30
0.0
 11
323.3233726160209
 21
119.82030542111
 31
0.0
  0
LINE
  5
D0
  8
MAKE2D$VISIBLE$LINES
 10
323.3233726160209
 20
119.82030542111
 30
0.0
 11
322.5828347226678
 21
120.3883163658145
 31
0.0
  0
LINE
  5
D1
  8
MAKE2D$VISIBLE$LINES
 10
322.5828347226678
 20
120.3883163658145
 30
0.0
 11
321.8252729696973
 21
120.9286194595578
 31
0.0
  0
LINE
  5
D2
  8
MAKE2D$VISIBLE$LINES
 10
321.8252729696973
 20
120.9286194595578
 30
0.0
 11
321.4401081458556
 21
121.1883805623191
 31
0.0
  0
LINE
  5
D3
  8
MAKE2D$VISIBLE$LINES
 10
321.4401081458556
 20
121.1883805623191
 30
0.0
 11
321.0506873571096
 21
121.44121470234
 31
0.0
  0
LINE
  5
D4
  8
MAKE2D$VISIBLE$LINES
 10
321.0506873571096
 20
121.44121470234
 30
0.0
 11
320.6570106034592
 21
121.6871218796206
 31
0.0
  0
LINE
  5
D5
  8
MAKE2D$VISIBLE$LINES
 10
320.6570106034592
 20
121.6871218796206
 30
0.0
 11
320.2590778849045
 21
121.9261020941609
 31
0.0
  0
LINE
  5
D6
  8
MAKE2D$VISIBLE$LINES
 10
320.2590778849045
 20
121.9261020941609
 30
0.0
 11
319.8568892014454
 21
122.1581553459609
 31
0.0
  0
LINE
  5
D7
  8
MAKE2D$VISIBLE$LINES
 10
319.8568892014454
 20
122.1581553459609
 30
0.0
 11
319.450444553082
 21
122.3832816350207
 31
0.0
  0
LINE
  5
D8
  8
MAKE2D$VISIBLE$LINES
 10
319.450444553082
 20
122.3832816350207
 30
0.0
 11
318.6247873616423
 21
122.8127533249192
 31
0.0
  0
LINE
  5
D9
  8
MAKE2D$VISIBLE$LINES
 10
318.6247873616423
 20
122.8127533249192
 30
0.0
 11
317.7821063105853
 21
123.2145171638566
 31
0.0
  0
LINE
  5
DA
  8
MAKE2D$VISIBLE$LINES
 10
317.7821063105853
 20
123.2145171638566
 30
0.0
 11
316.9224013999109
 21
123.5885731518327
 31
0.0
  0
LINE
  5
DB
  8
MAKE2D$VISIBLE$LINES
 10
316.9224013999109
 20
123.5885731518327
 30
0.0
 11
316.0456726296193
 21
123.9349212888477
 31
0.0
  0
LINE
  5
DC
  8
MAKE2D$VISIBLE$LINES
 10
316.0456726296193
 20
123.9349212888477
 30
0.0
 11
315.1519199997103
 21
124.2535615749014
 31
0.0
  0
LINE
  5
DD
  8
MAKE2D$VISIBLE$LINES
 10
315.1519199997103
 20
124.2535615749014
 30
0.0
 11
314.241143510184
 21
124.544494009994
 31
0.0
  0
LINE
  5
DE
  8
MAKE2D$VISIBLE$LINES
 10
314.241143510184
 20
124.544494009994
 30
0.0
 11
313.3133431610404
 21
124.8077185941254
 31
0.0
  0
LINE
  5
DF
  8
MAKE2D$VISIBLE$LINES
 10
313.3133431610404
 20
124.8077185941254
 30
0.0
 11
312.3685189522795
 21
125.0432353272955
 31
0.0
  0
LINE
  5
E0
  8
MAKE2D$VISIBLE$LINES
 10
312.3685189522795
 20
125.0432353272955
 30
0.0
 11
311.4066708839013
 21
125.2510442095045
 31
0.0
  0
LINE
  5
E1
  8
MAKE2D$VISIBLE$LINES
 10
311.4066708839013
 20
125.2510442095045
 30
0.0
 11
310.4277989559057
 21
125.4311452407523
 31
0.0
  0
LINE
  5
E2
  8
MAKE2D$VISIBLE$LINES
 10
310.4277989559057
 20
125.4311452407523
 30
0.0
 11
309.4319031682929
 21
125.5835384210389
 31
0.0
  0
LINE
  5
E3
  8
MAKE2D$VISIBLE$LINES
 10
309.4319031682929
 20
125.5835384210389
 30
0.0
 11
308.4189835210627
 21
125.7082237503643
 31
0.0
  0
LINE
  5
E4
  8
MAKE2D$VISIBLE$LINES
 10
308.4189835210627
 20
125.7082237503643
 30
0.0
 11
307.3890400142153
 21
125.8052012287284
 31
0.0
  0
LINE
  5
E5
  8
MAKE2D$VISIBLE$LINES
 10
307.3890400142153
 20
125.8052012287284
 30
0.0
 11
306.3420726477505
 21
125.8744708561314
 31
0.0
  0
LINE
  5
E6
  8
MAKE2D$VISIBLE$LINES
 10
306.3420726477505
 20
125.8744708561314
 30
0.0
 11
305.2780814216683
 21
125.9160326325732
 31
0.0
  0
LINE
  5
E7
  8
MAKE2D$VISIBLE$LINES
 10
305.2780814216683
 20
125.9160326325732
 30
0.0
 11
304.1970663359689
 21
125.9298865580538
 31
0.0
  0
LINE
  5
E8
  8
MAKE2D$VISIBLE$LINES
 10
34.86486449625863
 20
125.9298865580538
 30
0.0
 11
130.7632723077231
 21
125.9301831707248
 31
0.0
  0
ARC
  5
E9
  8
MAKE2D$VISIBLE$LINES
 10
130.7632104479532
 20
145.9301831706296
 30
0.0
 40
20.00000000000065
 50
270.000177215187
 51
339.2424775430258
  0
ARC
  5
EA
  8
MAKE2D$VISIBLE$LINES
 10
183.5309654161161
 20
125.9303463850622
 30
0.0
 40
36.43074902771995
 50
20.75748133775016
 51
159.2424775430293
  0
LINE
  5
EB
  8
MAKE2D$VISIBLE$LINES
 10
304.1970663359689
 20
125.9298865580538
 30
0.0
 11
236.2986585226872
 21
125.9301453011565
 31
0.0
  0
ARC
  5
EC
  8
MAKE2D$VISIBLE$LINES
 10
236.2987347374651
 20
145.9301453010112
 30
0.0
 40
19.99999999999992
 50
200.75748133775
 51
269.9997816607447
  0
LINE
  5
ED
  8
MAKE2D$VISIBLE$LINES
 10
20.03096541611376
 20
69.20683341000677
 30
0.0
 11
20.03096541611376
 21
39.20683341000677
 31
0.0
  0
LINE
  5
EE
  8
MAKE2D$VISIBLE$LINES
 10
20.03096541611376
 20
39.20683341000677
 30
0.0
 11
17.03096541611376
 21
39.20683341000677
 31
0.0
  0
LINE
  5
EF
  8
MAKE2D$VISIBLE$LINES
 10
17.03096541611376
 20
39.20683341000677
 30
0.0
 11
17.03096541611376
 21
69.20683341000677
 31
0.0
  0
LINE
  5
F0
  8
MAKE2D$VISIBLE$LINES
 10
17.03096541611376
 20
69.20683341000677
 30
0.0
 11
17.03096541611376
 21
99.20683341000677
 31
0.0
  0
LINE
  5
F1
  8
MAKE2D$VISIBLE$LINES
 10
17.03096541611376
 20
99.20683341000677
 30
0.0
 11
20.03096541611376
 21
99.20683341000677
 31
0.0
  0
LINE
  5
F2
  8
MAKE2D$VISIBLE$LINES
 10
20.03096541611376
 20
99.20683341000677
 30
0.0
 11
20.03096541611376
 21
69.20683341000677
 31
0.0
  0
LINE
  5
F3
  8
MAKE2D$VISIBLE$LINES
 10
319.030965416114
 20
69.20683341000677
 30
0.0
 11
319.030965416114
 21
39.20683341000677
 31
0.0
  0
LINE
  5
F4
  8
MAKE2D$VISIBLE$LINES
 10
319.030965416114
 20
39.20683341000677
 30
0.0
 11
322.030965416114
 21
39.20683341000677
 31
0.0
  0
LINE
  5
F5
  8
MAKE2D$VISIBLE$LINES
 10
322.030965416114
 20
39.20683341000677
 30
0.0
 11
322.030965416114
 21
69.20683341000677
 31
0.0
  0
LINE
  5
F6
  8
MAKE2D$VISIBLE$LINES
 10
322.030965416114
 20
69.20683341000677
 30
0.0
 11
322.030965416114
 21
99.20683341000677
 31
0.0
  0
LINE
  5
F7
  8
MAKE2D$VISIBLE$LINES
 10
322.030965416114
 20
99.20683341000677
 30
0.0
 11
319.030965416114
 21
99.20683341000677
 31
0.0
  0
LINE
  5
F8
  8
MAKE2D$VISIBLE$LINES
 10
319.030965416114
 20
99.20683341000677
 30
0.0
 11
319.030965416114
 21
69.20683341000677
 31
0.0
  0
LINE
  5
F9
  8
MAKE2D$VISIBLE$LINES
 10
17.0309654161133
 20
0.0
 30
0.0
 11
47.03096541611342
 21
0.0000000000002274
 31
0.0
  0
LINE
  5
FA
  8
MAKE2D$VISIBLE$LINES
 10
47.03096541611342
 20
0.0000000000002274
 30
0.0
 11
47.47591708505366
 21
0.0069025637908603
 31
0.0
  0
LINE
  5
FB
  8
MAKE2D$VISIBLE$LINES
 10
47.47591708505366
 20
0.0069025637908603
 30
0.0
 11
47.92621137243051
 21
0.028092256721132
 31
0.0
  0
LINE
  5
FC
  8
MAKE2D$VISIBLE$LINES
 10
47.92621137243051
 20
0.028092256721132
 30
0.0
 11
48.38075377903331
 21
0.064264950175992
 31
0.0
  0
LINE
  5
FD
  8
MAKE2D$VISIBLE$LINES
 10
48.38075377903331
 20
0.064264950175992
 30
0.0
 11
48.8383466949142
 21
0.1160720332150935
 31
0.0
  0
LINE
  5
FE
  8
MAKE2D$VISIBLE$LINES
 10
48.8383466949142
 20
0.1160720332150935
 30
0.0
 11
49.29769311300889
 21
0.1841097174780758
 31
0.0
  0
LINE
  5
FF
  8
MAKE2D$VISIBLE$LINES
 10
49.29769311300889
 20
0.1841097174780758
 30
0.0
 11
49.52759274835271
 21
0.2243835819008003
 31
0.0
  0
LINE
  5
100
  8
MAKE2D$VISIBLE$LINES
 10
49.52759274835271
 20
0.2243835819008003
 30
0.0
 11
49.75740231290396
 21
0.2689081372115438
 31
0.0
  0
LINE
  5
101
  8
MAKE2D$VISIBLE$LINES
 10
49.75740231290396
 20
0.2689081372115438
 30
0.0
 11
49.98693459601795
 21
0.317737539660491
 31
0.0
  0
LINE
  5
102
  8
MAKE2D$VISIBLE$LINES
 10
49.98693459601795
 20
0.317737539660491
 30
0.0
 11
50.21599761523311
 21
0.3709204682437601
 31
0.0
  0
LINE
  5
103
  8
MAKE2D$VISIBLE$LINES
 10
50.21599761523311
 20
0.3709204682437601
 30
0.0
 11
50.4443949747719
 21
0.4284998037166062
 31
0.0
  0
LINE
  5
104
  8
MAKE2D$VISIBLE$LINES
 10
50.4443949747719
 20
0.4284998037166062
 30
0.0
 11
50.67192625677258
 21
0.4905123183601402
 31
0.0
  0
LINE
  5
105
  8
MAKE2D$VISIBLE$LINES
 10
50.67192625677258
 20
0.4905123183601402
 30
0.0
 11
50.89838744452073
 21
0.556988378800037
 31
0.0
  0
LINE
  5
106
  8
MAKE2D$VISIBLE$LINES
 10
50.89838744452073
 20
0.556988378800037
 30
0.0
 11
51.12357137666218
 21
0.6279516641955765
 31
0.0
  0
LINE
  5
107
  8
MAKE2D$VISIBLE$LINES
 10
51.12357137666218
 20
0.6279516641955765
 30
0.0
 11
51.34726823108634
 21
0.7034189021151478
 31
0.0
  0
LINE
  5
108
  8
MAKE2D$VISIBLE$LINES
 10
51.34726823108634
 20
0.7034189021151478
 30
0.0
 11
51.56926603687177
 21
0.7833996243886548
 31
0.0
  0
LINE
  5
109
  8
MAKE2D$VISIBLE$LINES
 10
51.56926603687177
 20
0.7833996243886548
 30
0.0
 11
51.78935121239007
 21
0.8678959451769976
 31
0.0
  0
LINE
  5
10A
  8
MAKE2D$VISIBLE$LINES
 10
51.78935121239007
 20
0.8678959451769976
 30
0.0
 11
52.00730912737155
 21
0.9569023634231432
 31
0.0
  0
LINE
  5
10B
  8
MAKE2D$VISIBLE$LINES
 10
52.00730912737155
 20
0.9569023634231432
 30
0.0
 11
52.22292468645249
 21
1.0504055917478
 31
0.0
  0
LINE
  5
10C
  8
MAKE2D$VISIBLE$LINES
 10
52.22292468645249
 20
1.0504055917478
 30
0.0
 11
52.43598293145141
 21
1.148384413725286
 31
0.0
  0
LINE
  5
10D
  8
MAKE2D$VISIBLE$LINES
 10
52.43598293145141
 20
1.148384413725286
 30
0.0
 11
52.64626965936646
 21
1.250809571322147
 31
0.0
  0
LINE
  5
10E
  8
MAKE2D$VISIBLE$LINES
 10
52.64626965936646
 20
1.250809571322147
 30
0.0
 11
52.85357205285031
 21
1.357643684103183
 31
0.0
  0
LINE
  5
10F
  8
MAKE2D$VISIBLE$LINES
 10
52.85357205285031
 20
1.357643684103183
 30
0.0
 11
53.05767931970809
 21
1.468841201607984
 31
0.0
  0
LINE
  5
110
  8
MAKE2D$VISIBLE$LINES
 10
53.05767931970809
 20
1.468841201607984
 30
0.0
 11
53.25838333778081
 21
1.584348390077403
 31
0.0
  0
LINE
  5
111
  8
MAKE2D$VISIBLE$LINES
 10
53.25838333778081
 20
1.584348390077403
 30
0.0
 11
53.45547930142558
 21
1.704103354465716
 31
0.0
  0
LINE
  5
112
  8
MAKE2D$VISIBLE$LINES
 10
53.45547930142558
 20
1.704103354465716
 30
0.0
 11
53.64876636568668
 21
1.828036096412934
 31
0.0
  0
LINE
  5
113
  8
MAKE2D$VISIBLE$LINES
 10
53.64876636568668
 20
1.828036096412934
 30
0.0
 11
53.83804828417349
 21
1.956068608575656
 31
0.0
  0
LINE
  5
114
  8
MAKE2D$VISIBLE$LINES
 10
53.83804828417349
 20
1.956068608575656
 30
0.0
 11
54.02313403662048
 21
2.088115005427147
 31
0.0
  0
LINE
  5
115
  8
MAKE2D$VISIBLE$LINES
 10
54.02313403662048
 20
2.088115005427147
 30
0.0
 11
54.20383844210757
 21
2.224081690341483
 31
0.0
  0
LINE
  5
116
  8
MAKE2D$VISIBLE$LINES
 10
54.20383844210757
 20
2.224081690341483
 30
0.0
 11
54.37998275396239
 21
2.363867558476216
 31
0.0
  0
LINE
  5
117
  8
MAKE2D$VISIBLE$LINES
 10
54.37998275396239
 20
2.363867558476216
 30
0.0
 11
54.55139523245386
 21
2.507364234667029
 31
0.0
  0
LINE
  5
118
  8
MAKE2D$VISIBLE$LINES
 10
54.55139523245386
 20
2.507364234667029
 30
0.0
 11
54.71791169151491
 21
2.654456345250145
 31
0.0
  0
LINE
  5
119
  8
MAKE2D$VISIBLE$LINES
 10
54.71791169151491
 20
2.654456345250145
 30
0.0
 11
54.87937601590446
 21
2.805021822437876
 31
0.0
  0
LINE
  5
11A
  8
MAKE2D$VISIBLE$LINES
 10
54.87937601590446
 20
2.805021822437876
 30
0.0
 11
55.03564064542773
 21
2.95893223959351
 31
0.0
  0
LINE
  5
11B
  8
MAKE2D$VISIBLE$LINES
 10
55.03564064542773
 20
2.95893223959351
 30
0.0
 11
55.186567023084
 21
3.116053175487602
 31
0.0
  0
LINE
  5
11C
  8
MAKE2D$VISIBLE$LINES
 10
55.186567023084
 20
3.116053175487602
 30
0.0
 11
55.33202600429187
 21
3.276244605372204
 31
0.0
  0
LINE
  5
11D
  8
MAKE2D$VISIBLE$LINES
 10
55.33202600429187
 20
3.276244605372204
 30
0.0
 11
55.47189822465695
 21
3.439361316486003
 31
0.0
  0
LINE
  5
11E
  8
MAKE2D$VISIBLE$LINES
 10
55.47189822465695
 20
3.439361316486003
 30
0.0
 11
55.60607442408669
 21
3.605253345404764
 31
0.0
  0
LINE
  5
11F
  8
MAKE2D$VISIBLE$LINES
 10
55.60607442408669
 20
3.605253345404764
 30
0.0
 11
55.7344557254201
 21
3.773766434480322
 31
0.0
  0
LINE
  5
120
  8
MAKE2D$VISIBLE$LINES
 10
55.7344557254201
 20
3.773766434480322
 30
0.0
 11
55.856953866121
 21
3.94474250447005
 31
0.0
  0
LINE
  5
121
  8
MAKE2D$VISIBLE$LINES
 10
55.856953866121
 20
3.94474250447005
 30
0.0
 11
55.97349138197556
 21
4.118020140348607
 31
0.0
  0
LINE
  5
122
  8
MAKE2D$VISIBLE$LINES
 10
55.97349138197556
 20
4.118020140348607
 30
0.0
 11
56.08400174213598
 21
4.29343508721624
 31
0.0
  0
LINE
  5
123
  8
MAKE2D$VISIBLE$LINES
 10
56.08400174213598
 20
4.29343508721624
 30
0.0
 11
56.18842943525387
 21
4.470820753173415
 31
0.0
  0
LINE
  5
124
  8
MAKE2D$VISIBLE$LINES
 10
56.18842943525387
 20
4.470820753173415
 30
0.0
 11
56.28673000684542
 21
4.650008716020245
 31
0.0
  0
LINE
  5
125
  8
MAKE2D$VISIBLE$LINES
 10
56.28673000684542
 20
4.650008716020245
 30
0.0
 11
56.3788700484215
 21
4.830829230660616
 31
0.0
  0
LINE
  5
126
  8
MAKE2D$VISIBLE$LINES
 10
56.3788700484215
 20
4.830829230660616
 30
0.0
 11
56.46482713929233
 21
5.013111734144102
 31
0.0
  0
LINE
  5
127
  8
MAKE2D$VISIBLE$LINES
 10
56.46482713929233
 20
5.013111734144102
 30
0.0
 11
56.54458974231628
 21
5.196685345362289
 31
0.0
  0
LINE
  5
128
  8
MAKE2D$VISIBLE$LINES
 10
56.54458974231628
 20
5.196685345362289
 30
0.0
 11
56.6181570551989
 21
5.381379356528166
 31
0.0
  0
LINE
  5
129
  8
MAKE2D$VISIBLE$LINES
 10
56.6181570551989
 20
5.381379356528166
 30
0.0
 11
56.68553881926093
 21
5.567023713705425
 31
0.0
  0
LINE
  5
12A
  8
MAKE2D$VISIBLE$LINES
 10
56.68553881926093
 20
5.567023713705425
 30
0.0
 11
56.74675508787637
 21
5.753449483816483
 31
0.0
  0
LINE
  5
12B
  8
MAKE2D$VISIBLE$LINES
 10
56.74675508787637
 20
5.753449483816483
 30
0.0
 11
56.8018359570336
 21
5.940489305740554
 31
0.0
  0
LINE
  5
12C
  8
MAKE2D$VISIBLE$LINES
 10
56.8018359570336
 20
5.940489305740554
 30
0.0
 11
56.85082126069086
 21
6.127977823313665
 31
0.0
  0
LINE
  5
12D
  8
MAKE2D$VISIBLE$LINES
 10
56.85082126069086
 20
6.127977823313665
 30
0.0
 11
56.89376023378074
 21
6.315752098257181
 31
0.0
  0
LINE
  5
12E
  8
MAKE2D$VISIBLE$LINES
 10
56.89376023378074
 20
6.315752098257181
 30
0.0
 11
56.93071114586643
 21
6.503652001287723
 31
0.0
  0
LINE
  5
12F
  8
MAKE2D$VISIBLE$LINES
 10
56.93071114586643
 20
6.503652001287723
 30
0.0
 11
56.96174090856469
 21
6.691520579895266
 31
0.0
  0
LINE
  5
130
  8
MAKE2D$VISIBLE$LINES
 10
56.96174090856469
 20
6.691520579895266
 30
0.0
 11
56.98692465992666
 21
6.879204401515037
 31
0.0
  0
LINE
  5
131
  8
MAKE2D$VISIBLE$LINES
 10
56.98692465992666
 20
6.879204401515037
 30
0.0
 11
57.00634532901027
 21
7.066553871058993
 31
0.0
  0
LINE
  5
132
  8
MAKE2D$VISIBLE$LINES
 10
57.00634532901027
 20
7.066553871058993
 30
0.0
 11
57.02009318388554
 21
7.253423522011602
 31
0.0
  0
LINE
  5
133
  8
MAKE2D$VISIBLE$LINES
 10
57.02009318388554
 20
7.253423522011602
 30
0.0
 11
57.02826536629198
 21
7.43967228052902
 31
0.0
  0
LINE
  5
134
  8
MAKE2D$VISIBLE$LINES
 10
57.02826536629198
 20
7.43967228052902
 30
0.0
 11
57.03096541611333
 21
7.625163702208628
 31
0.0
  0
LINE
  5
135
  8
MAKE2D$VISIBLE$LINES
 10
57.03096541611319
 20
7.625163702208738
 30
0.0
 11
57.03096541611319
 21
80.93034638506106
 31
0.0
  0
ARC
  5
136
  8
MAKE2D$VISIBLE$LINES
 10
67.03096541611453
 20
80.9303463850604
 30
0.0
 40
10.00000000000134
 50
90.00000000000831
 51
179.9999999999963
  0
LINE
  5
137
  8
MAKE2D$VISIBLE$LINES
 10
67.03096541611322
 20
90.93034638506172
 30
0.0
 11
169.5309654161138
 21
90.93034638506197
 31
0.0
  0
LINE
  5
138
  8
MAKE2D$VISIBLE$LINES
 10
322.0309654161142
 20
0.0
 30
0.0
 11
292.030965416114
 21
0.0000000000002274
 31
0.0
  0
LINE
  5
139
  8
MAKE2D$VISIBLE$LINES
 10
292.030965416114
 20
0.0000000000002274
 30
0.0
 11
291.5860137471736
 21
0.0069025637908603
 31
0.0
  0
LINE
  5
13A
  8
MAKE2D$VISIBLE$LINES
 10
291.5860137471736
 20
0.0069025637908603
 30
0.0
 11
291.1357194597969
 21
0.028092256721132
 31
0.0
  0
LINE
  5
13B
  8
MAKE2D$VISIBLE$LINES
 10
291.1357194597969
 20
0.028092256721132
 30
0.0
 11
290.6811770531941
 21
0.064264950175992
 31
0.0
  0
LINE
  5
13C
  8
MAKE2D$VISIBLE$LINES
 10
290.6811770531941
 20
0.064264950175992
 30
0.0
 11
290.2235841373133
 21
0.1160720332150935
 31
0.0
  0
LINE
  5
13D
  8
MAKE2D$VISIBLE$LINES
 10
290.2235841373133
 20
0.1160720332150935
 30
0.0
 11
289.7642377192185
 21
0.1841097174780758
 31
0.0
  0
LINE
  5
13E
  8
MAKE2D$VISIBLE$LINES
 10
289.7642377192185
 20
0.1841097174780758
 30
0.0
 11
289.5343380838746
 21
0.2243835819008003
 31
0.0
  0
LINE
  5
13F
  8
MAKE2D$VISIBLE$LINES
 10
289.5343380838746
 20
0.2243835819008003
 30
0.0
 11
289.3045285193235
 21
0.2689081372115438
 31
0.0
  0
LINE
  5
140
  8
MAKE2D$VISIBLE$LINES
 10
289.3045285193235
 20
0.2689081372115438
 30
0.0
 11
289.0749962362094
 21
0.317737539660491
 31
0.0
  0
LINE
  5
141
  8
MAKE2D$VISIBLE$LINES
 10
289.0749962362094
 20
0.317737539660491
 30
0.0
 11
288.8459332169942
 21
0.3709204682437601
 31
0.0
  0
LINE
  5
142
  8
MAKE2D$VISIBLE$LINES
 10
288.8459332169942
 20
0.3709204682437601
 30
0.0
 11
288.6175358574554
 21
0.4284998037166062
 31
0.0
  0
LINE
  5
143
  8
MAKE2D$VISIBLE$LINES
 10
288.6175358574554
 20
0.4284998037166062
 30
0.0
 11
288.3900045754548
 21
0.4905123183601402
 31
0.0
  0
LINE
  5
144
  8
MAKE2D$VISIBLE$LINES
 10
288.3900045754548
 20
0.4905123183601402
 30
0.0
 11
288.1635433877066
 21
0.556988378800037
 31
0.0
  0
LINE
  5
145
  8
MAKE2D$VISIBLE$LINES
 10
288.1635433877066
 20
0.556988378800037
 30
0.0
 11
287.9383594555651
 21
0.6279516641955765
 31
0.0
  0
LINE
  5
146
  8
MAKE2D$VISIBLE$LINES
 10
287.9383594555651
 20
0.6279516641955765
 30
0.0
 11
287.714662601141
 21
0.7034189021151478
 31
0.0
  0
LINE
  5
147
  8
MAKE2D$VISIBLE$LINES
 10
287.714662601141
 20
0.7034189021151478
 30
0.0
 11
287.4926647953556
 21
0.7833996243886548
 31
0.0
  0
LINE
  5
148
  8
MAKE2D$VISIBLE$LINES
 10
287.4926647953556
 20
0.7833996243886548
 30
0.0
 11
287.2725796198372
 21
0.8678959451769976
 31
0.0
  0
LINE
  5
149
  8
MAKE2D$VISIBLE$LINES
 10
287.2725796198372
 20
0.8678959451769976
 30
0.0
 11
287.0546217048558
 21
0.9569023634231432
 31
0.0
  0
LINE
  5
14A
  8
MAKE2D$VISIBLE$LINES
 10
287.0546217048558
 20
0.9569023634231432
 30
0.0
 11
286.8390061457749
 21
1.0504055917478
 31
0.0
  0
LINE
  5
14B
  8
MAKE2D$VISIBLE$LINES
 10
286.8390061457749
 20
1.0504055917478
 30
0.0
 11
286.6259479007759
 21
1.148384413725286
 31
0.0
  0
LINE
  5
14C
  8
MAKE2D$VISIBLE$LINES
 10
286.6259479007759
 20
1.148384413725286
 30
0.0
 11
286.4156611728609
 21
1.250809571322147
 31
0.0
  0
LINE
  5
14D
  8
MAKE2D$VISIBLE$LINES
 10
286.4156611728609
 20
1.250809571322147
 30
0.0
 11
286.2083587793771
 21
1.357643684103183
 31
0.0
  0
LINE
  5
14E
  8
MAKE2D$VISIBLE$LINES
 10
286.2083587793771
 20
1.357643684103183
 30
0.0
 11
286.0042515125193
 21
1.468841201607984
 31
0.0
  0
LINE
  5
14F
  8
MAKE2D$VISIBLE$LINES
 10
286.0042515125193
 20
1.468841201607984
 30
0.0
 11
285.8035474944465
 21
1.584348390077403
 31
0.0
  0
LINE
  5
150
  8
MAKE2D$VISIBLE$LINES
 10
285.8035474944465
 20
1.584348390077403
 30
0.0
 11
285.6064515308017
 21
1.704103354465716
 31
0.0
  0
LINE
  5
151
  8
MAKE2D$VISIBLE$LINES
 10
285.6064515308017
 20
1.704103354465716
 30
0.0
 11
285.4131644665406
 21
1.828036096412934
 31
0.0
  0
LINE
  5
152
  8
MAKE2D$VISIBLE$LINES
 10
285.4131644665406
 20
1.828036096412934
 30
0.0
 11
285.2238825480538
 21
1.956068608575656
 31
0.0
  0
LINE
  5
153
  8
MAKE2D$VISIBLE$LINES
 10
285.2238825480538
 20
1.956068608575656
 30
0.0
 11
285.0387967956069
 21
2.088115005427147
 31
0.0
  0
LINE
  5
154
  8
MAKE2D$VISIBLE$LINES
 10
285.0387967956069
 20
2.088115005427147
 30
0.0
 11
284.8580923901197
 21
2.224081690341483
 31
0.0
  0
LINE
  5
155
  8
MAKE2D$VISIBLE$LINES
 10
284.8580923901197
 20
2.224081690341483
 30
0.0
 11
284.681948078265
 21
2.363867558476216
 31
0.0
  0
LINE
  5
156
  8
MAKE2D$VISIBLE$LINES
 10
284.681948078265
 20
2.363867558476216
 30
0.0
 11
284.5105355997735
 21
2.507364234667029
 31
0.0
  0
LINE
  5
157
  8
MAKE2D$VISIBLE$LINES
 10
284.5105355997735
 20
2.507364234667029
 30
0.0
 11
284.3440191407124
 21
2.654456345250145
 31
0.0
  0
LINE
  5
158
  8
MAKE2D$VISIBLE$LINES
 10
284.3440191407124
 20
2.654456345250145
 30
0.0
 11
284.1825548163229
 21
2.805021822437876
 31
0.0
  0
LINE
  5
159
  8
MAKE2D$VISIBLE$LINES
 10
284.1825548163229
 20
2.805021822437876
 30
0.0
 11
284.0262901867997
 21
2.95893223959351
 31
0.0
  0
LINE
  5
15A
  8
MAKE2D$VISIBLE$LINES
 10
284.0262901867997
 20
2.95893223959351
 30
0.0
 11
283.8753638091434
 21
3.116053175487602
 31
0.0
  0
LINE
  5
15B
  8
MAKE2D$VISIBLE$LINES
 10
283.8753638091434
 20
3.116053175487602
 30
0.0
 11
283.7299048279356
 21
3.276244605372204
 31
0.0
  0
LINE
  5
15C
  8
MAKE2D$VISIBLE$LINES
 10
283.7299048279356
 20
3.276244605372204
 30
0.0
 11
283.5900326075705
 21
3.439361316486003
 31
0.0
  0
LINE
  5
15D
  8
MAKE2D$VISIBLE$LINES
 10
283.5900326075705
 20
3.439361316486003
 30
0.0
 11
283.4558564081407
 21
3.605253345404764
 31
0.0
  0
LINE
  5
15E
  8
MAKE2D$VISIBLE$LINES
 10
283.4558564081407
 20
3.605253345404764
 30
0.0
 11
283.3274751068072
 21
3.773766434480322
 31
0.0
  0
LINE
  5
15F
  8
MAKE2D$VISIBLE$LINES
 10
283.3274751068072
 20
3.773766434480322
 30
0.0
 11
283.2049769661064
 21
3.94474250447005
 31
0.0
  0
LINE
  5
160
  8
MAKE2D$VISIBLE$LINES
 10
283.2049769661064
 20
3.94474250447005
 30
0.0
 11
283.0884394502519
 21
4.118020140348607
 31
0.0
  0
LINE
  5
161
  8
MAKE2D$VISIBLE$LINES
 10
283.0884394502519
 20
4.118020140348607
 30
0.0
 11
282.9779290900914
 21
4.29343508721624
 31
0.0
  0
LINE
  5
162
  8
MAKE2D$VISIBLE$LINES
 10
282.9779290900914
 20
4.29343508721624
 30
0.0
 11
282.8735013969736
 21
4.470820753173415
 31
0.0
  0
LINE
  5
163
  8
MAKE2D$VISIBLE$LINES
 10
282.8735013969736
 20
4.470820753173415
 30
0.0
 11
282.775200825382
 21
4.650008716020245
 31
0.0
  0
LINE
  5
164
  8
MAKE2D$VISIBLE$LINES
 10
282.775200825382
 20
4.650008716020245
 30
0.0
 11
282.683060783806
 21
4.830829230660616
 31
0.0
  0
LINE
  5
165
  8
MAKE2D$VISIBLE$LINES
 10
282.683060783806
 20
4.830829230660616
 30
0.0
 11
282.5971036929351
 21
5.013111734144102
 31
0.0
  0
LINE
  5
166
  8
MAKE2D$VISIBLE$LINES
 10
282.5971036929351
 20
5.013111734144102
 30
0.0
 11
282.5173410899112
 21
5.196685345362289
 31
0.0
  0
LINE
  5
167
  8
MAKE2D$VISIBLE$LINES
 10
282.5173410899112
 20
5.196685345362289
 30
0.0
 11
282.4437737770285
 21
5.381379356528166
 31
0.0
  0
LINE
  5
168
  8
MAKE2D$VISIBLE$LINES
 10
282.4437737770285
 20
5.381379356528166
 30
0.0
 11
282.3763920129664
 21
5.567023713705425
 31
0.0
  0
LINE
  5
169
  8
MAKE2D$VISIBLE$LINES
 10
282.3763920129664
 20
5.567023713705425
 30
0.0
 11
282.3151757443511
 21
5.753449483816483
 31
0.0
  0
LINE
  5
16A
  8
MAKE2D$VISIBLE$LINES
 10
282.3151757443511
 20
5.753449483816483
 30
0.0
 11
282.2600948751939
 21
5.940489305740554
 31
0.0
  0
LINE
  5
16B
  8
MAKE2D$VISIBLE$LINES
 10
282.2600948751939
 20
5.940489305740554
 30
0.0
 11
282.2111095715366
 21
6.127977823313665
 31
0.0
  0
LINE
  5
16C
  8
MAKE2D$VISIBLE$LINES
 10
282.2111095715366
 20
6.127977823313665
 30
0.0
 11
282.1681705984467
 21
6.315752098257181
 31
0.0
  0
LINE
  5
16D
  8
MAKE2D$VISIBLE$LINES
 10
282.1681705984467
 20
6.315752098257181
 30
0.0
 11
282.1312196863611
 21
6.503652001287723
 31
0.0
  0
LINE
  5
16E
  8
MAKE2D$VISIBLE$LINES
 10
282.1312196863611
 20
6.503652001287723
 30
0.0
 11
282.1001899236628
 21
6.691520579895266
 31
0.0
  0
LINE
  5
16F
  8
MAKE2D$VISIBLE$LINES
 10
282.1001899236628
 20
6.691520579895266
 30
0.0
 11
282.0750061723008
 21
6.879204401515037
 31
0.0
  0
LINE
  5
170
  8
MAKE2D$VISIBLE$LINES
 10
282.0750061723008
 20
6.879204401515037
 30
0.0
 11
282.0555855032171
 21
7.066553871058993
 31
0.0
  0
LINE
  5
171
  8
MAKE2D$VISIBLE$LINES
 10
282.0555855032171
 20
7.066553871058993
 30
0.0
 11
282.0418376483419
 21
7.253423522011602
 31
0.0
  0
LINE
  5
172
  8
MAKE2D$VISIBLE$LINES
 10
282.0418376483419
 20
7.253423522011602
 30
0.0
 11
282.0336654659355
 21
7.43967228052902
 31
0.0
  0
LINE
  5
173
  8
MAKE2D$VISIBLE$LINES
 10
282.0336654659355
 20
7.43967228052902
 30
0.0
 11
282.0309654161142
 21
7.625163702208628
 31
0.0
  0
LINE
  5
174
  8
MAKE2D$VISIBLE$LINES
 10
282.030965416114
 20
7.625163702208738
 30
0.0
 11
282.030965416114
 21
80.93034638506106
 31
0.0
  0
ARC
  5
175
  8
MAKE2D$VISIBLE$LINES
 10
272.0309654161128
 20
80.93034638506057
 30
0.0
 40
10.00000000000114
 50
0.0000000000027684
 51
89.99999999999349
  0
LINE
  5
176
  8
MAKE2D$VISIBLE$LINES
 10
272.0309654161142
 20
90.93034638506172
 30
0.0
 11
169.5309654161139
 21
90.93034638506197
 31
0.0
  0
LINE
  5
177
  8
MAKE2D$VISIBLE$LINES
 10
322.0309654161142
 20
0.0
 30
0.0
 11
322.2960347631057
 21
0.0042226689324589
 31
0.0
  0
LINE
  5
178
  8
MAKE2D$VISIBLE$LINES
 10
322.2960347631057
 20
0.0042226689324589
 30
0.0
 11
322.5590251348267
 21
0.0168906757298499
 31
0.0
  0
LINE
  5
179
  8
MAKE2D$VISIBLE$LINES
 10
322.5590251348267
 20
0.0168906757298499
 30
0.0
 11
322.8199365312772
 21
0.0380040203921729
 31
0.0
  0
LINE
  5
17A
  8
MAKE2D$VISIBLE$LINES
 10
322.8199365312772
 20
0.0380040203921729
 30
0.0
 11
323.0787689524572
 21
0.0675627029194279
 31
0.0
  0
LINE
  5
17B
  8
MAKE2D$VISIBLE$LINES
 10
323.0787689524572
 20
0.0675627029194279
 30
0.0
 11
323.3355223983666
 21
0.105566723311615
 31
0.0
  0
LINE
  5
17C
  8
MAKE2D$VISIBLE$LINES
 10
323.3355223983666
 20
0.105566723311615
 30
0.0
 11
323.5901968690055
 21
0.1520160815687341
 31
0.0
  0
LINE
  5
17D
  8
MAKE2D$VISIBLE$LINES
 10
323.5901968690055
 20
0.1520160815687341
 30
0.0
 11
323.8427923643738
 21
0.2069107776907853
 31
0.0
  0
LINE
  5
17E
  8
MAKE2D$VISIBLE$LINES
 10
323.8427923643738
 20
0.2069107776907853
 30
0.0
 11
324.0933088844717
 21
0.2702508116777684
 31
0.0
  0
LINE
  5
17F
  8
MAKE2D$VISIBLE$LINES
 10
324.0933088844717
 20
0.2702508116777684
 30
0.0
 11
324.341746429299
 21
0.3420361835296837
 31
0.0
  0
LINE
  5
180
  8
MAKE2D$VISIBLE$LINES
 10
324.341746429299
 20
0.3420361835296837
 30
0.0
 11
324.5881049988558
 21
0.4222668932465309
 31
0.0
  0
LINE
  5
181
  8
MAKE2D$VISIBLE$LINES
 10
324.5881049988558
 20
0.4222668932465309
 30
0.0
 11
324.8323845931421
 21
0.5109429408283103
 31
0.0
  0
LINE
  5
182
  8
MAKE2D$VISIBLE$LINES
 10
324.8323845931421
 20
0.5109429408283103
 30
0.0
 11
325.0745852121579
 21
0.6080643262750216
 31
0.0
  0
LINE
  5
183
  8
MAKE2D$VISIBLE$LINES
 10
325.0745852121579
 20
0.6080643262750216
 30
0.0
 11
325.3147068559032
 21
0.713631049586665
 31
0.0
  0
LINE
  5
184
  8
MAKE2D$VISIBLE$LINES
 10
325.3147068559032
 20
0.713631049586665
 30
0.0
 11
325.5527495243779
 21
0.8276431107632405
 31
0.0
  0
LINE
  5
185
  8
MAKE2D$VISIBLE$LINES
 10
325.5527495243779
 20
0.8276431107632405
 30
0.0
 11
325.7887132175821
 21
0.9501005098047479
 31
0.0
  0
LINE
  5
186
  8
MAKE2D$VISIBLE$LINES
 10
325.7887132175821
 20
0.9501005098047479
 30
0.0
 11
326.0225979355158
 21
1.081003246711187
 31
0.0
  0
LINE
  5
187
  8
MAKE2D$VISIBLE$LINES
 10
326.0225979355158
 20
1.081003246711187
 30
0.0
 11
326.254403678179
 21
1.220351321482559
 31
0.0
  0
LINE
  5
188
  8
MAKE2D$VISIBLE$LINES
 10
326.254403678179
 20
1.220351321482559
 30
0.0
 11
326.4841304455716
 21
1.368144734118863
 31
0.0
  0
LINE
  5
189
  8
MAKE2D$VISIBLE$LINES
 10
326.4841304455716
 20
1.368144734118863
 30
0.0
 11
326.7117782376937
 21
1.524383484620098
 31
0.0
  0
LINE
  5
18A
  8
MAKE2D$VISIBLE$LINES
 10
326.7117782376937
 20
1.524383484620098
 30
0.0
 11
326.9373470545453
 21
1.689067572986266
 31
0.0
  0
LINE
  5
18B
  8
MAKE2D$VISIBLE$LINES
 10
326.9373470545453
 20
1.689067572986266
 30
0.0
 11
327.1608368961264
 21
1.862196999217366
 31
0.0
  0
LINE
  5
18C
  8
MAKE2D$VISIBLE$LINES
 10
327.1608368961264
 20
1.862196999217366
 30
0.0
 11
327.3822477624369
 21
2.043771763313397
 31
0.0
  0
LINE
  5
18D
  8
MAKE2D$VISIBLE$LINES
 10
327.3822477624369
 20
2.043771763313397
 30
0.0
 11
327.601579653477
 21
2.233791865274362
 31
0.0
  0
LINE
  5
18E
  8
MAKE2D$VISIBLE$LINES
 10
327.601579653477
 20
2.233791865274362
 30
0.0
 11
327.8188325692465
 21
2.432257305100257
 31
0.0
  0
LINE
  5
18F
  8
MAKE2D$VISIBLE$LINES
 10
327.8188325692465
 20
2.432257305100257
 30
0.0
 11
328.0340065097454
 21
2.639168082791085
 31
0.0
  0
LINE
  5
190
  8
MAKE2D$VISIBLE$LINES
 10
328.0340065097454
 20
2.639168082791085
 30
0.0
 11
328.2471014749739
 21
2.854524198346845
 31
0.0
  0
LINE
  5
191
  8
MAKE2D$VISIBLE$LINES
 10
328.2471014749739
 20
2.854524198346845
 30
0.0
 11
328.4581174649319
 21
3.078325651767537
 31
0.0
  0
LINE
  5
192
  8
MAKE2D$VISIBLE$LINES
 10
328.4581174649319
 20
3.078325651767537
 30
0.0
 11
328.6670544796193
 21
3.310572443053161
 31
0.0
  0
LINE
  5
193
  8
MAKE2D$VISIBLE$LINES
 10
328.6670544796193
 20
3.310572443053161
 30
0.0
 11
328.8739125190363
 21
3.551264572203717
 31
0.0
  0
LINE
  5
194
  8
MAKE2D$VISIBLE$LINES
 10
328.8739125190363
 20
3.551264572203717
 30
0.0
 11
329.0786915831826
 21
3.800402039219205
 31
0.0
  0
LINE
  5
195
  8
MAKE2D$VISIBLE$LINES
 10
329.0786915831826
 20
3.800402039219205
 30
0.0
 11
329.2813916720585
 21
4.057984844099625
 31
0.0
  0
LINE
  5
196
  8
MAKE2D$VISIBLE$LINES
 10
329.2813916720585
 20
4.057984844099625
 30
0.0
 11
329.4820127856638
 21
4.324012986844977
 31
0.0
  0
LINE
  5
197
  8
MAKE2D$VISIBLE$LINES
 10
329.4820127856638
 20
4.324012986844977
 30
0.0
 11
329.6805549239986
 21
4.598486467455261
 31
0.0
  0
LINE
  5
198
  8
MAKE2D$VISIBLE$LINES
 10
329.6805549239986
 20
4.598486467455261
 30
0.0
 11
329.8770180870629
 21
4.881405285930478
 31
0.0
  0
LINE
  5
199
  8
MAKE2D$VISIBLE$LINES
 10
329.8770180870629
 20
4.881405285930478
 30
0.0
 11
330.0714022748567
 21
5.172769442270626
 31
0.0
  0
LINE
  5
19A
  8
MAKE2D$VISIBLE$LINES
 10
330.0714022748567
 20
5.172769442270626
 30
0.0
 11
330.2637074873799
 21
5.472578936475706
 31
0.0
  0
LINE
  5
19B
  8
MAKE2D$VISIBLE$LINES
 10
330.2637074873799
 20
5.472578936475706
 30
0.0
 11
330.6420809866148
 21
6.097533938480662
 31
0.0
  0
LINE
  5
19C
  8
MAKE2D$VISIBLE$LINES
 10
330.6420809866148
 20
6.097533938480662
 30
0.0
 11
331.0121385847677
 21
6.756270291945348
 31
0.0
  0
LINE
  5
19D
  8
MAKE2D$VISIBLE$LINES
 10
331.0121385847677
 20
6.756270291945348
 30
0.0
 11
331.3738802818385
 21
7.448787996869761
 31
0.0
  0
LINE
  5
19E
  8
MAKE2D$VISIBLE$LINES
 10
331.3738802818385
 20
7.448787996869761
 30
0.0
 11
331.7273060778272
 21
8.175087053253902
 31
0.0
  0
LINE
  5
19F
  8
MAKE2D$VISIBLE$LINES
 10
331.7273060778272
 20
8.175087053253902
 30
0.0
 11
332.0724159727338
 21
8.935167461097773
 31
0.0
  0
LINE
  5
1A0
  8
MAKE2D$VISIBLE$LINES
 10
332.0724159727338
 20
8.935167461097773
 30
0.0
 11
332.4092099665583
 21
9.729029220401369
 31
0.0
  0
LINE
  5
1A1
  8
MAKE2D$VISIBLE$LINES
 10
332.4092099665583
 20
9.729029220401369
 30
0.0
 11
332.7376880593006
 21
10.55667233116469
 31
0.0
  0
LINE
  5
1A2
  8
MAKE2D$VISIBLE$LINES
 10
332.7376880593006
 20
10.55667233116469
 30
0.0
 11
333.057850250961
 21
11.41809679338775
 31
0.0
  0
LINE
  5
1A3
  8
MAKE2D$VISIBLE$LINES
 10
333.057850250961
 20
11.41809679338775
 30
0.0
 11
333.3696965415393
 21
12.31330260707053
 31
0.0
  0
LINE
  5
1A4
  8
MAKE2D$VISIBLE$LINES
 10
333.3696965415393
 20
12.31330260707053
 30
0.0
 11
333.6732269310354
 21
13.24228977221304
 31
0.0
  0
LINE
  5
1A5
  8
MAKE2D$VISIBLE$LINES
 10
333.6732269310354
 20
13.24228977221304
 30
0.0
 11
334.2553400067815
 21
15.20160815687725
 31
0.0
  0
LINE
  5
1A6
  8
MAKE2D$VISIBLE$LINES
 10
334.2553400067815
 20
15.20160815687725
 30
0.0
 11
334.8041894781992
 21
17.29605194738036
 31
0.0
  0
LINE
  5
1A7
  8
MAKE2D$VISIBLE$LINES
 10
334.8041894781992
 20
17.29605194738036
 30
0.0
 11
335.3197753452886
 21
19.52562114372239
 31
0.0
  0
LINE
  5
1A8
  8
MAKE2D$VISIBLE$LINES
 10
335.3197753452886
 20
19.52562114372239
 30
0.0
 11
335.8020976080496
 21
21.89031574590334
 31
0.0
  0
LINE
  5
1A9
  8
MAKE2D$VISIBLE$LINES
 10
335.8020976080496
 20
21.89031574590334
 30
0.0
 11
336.2511562664823
 21
24.39013575392319
 31
0.0
  0
LINE
  5
1AA
  8
MAKE2D$VISIBLE$LINES
 10
336.2511562664823
 20
24.39013575392319
 30
0.0
 11
336.6669513205866
 21
27.02508116778196
 31
0.0
  0
LINE
  5
1AB
  8
MAKE2D$VISIBLE$LINES
 10
336.6669513205866
 20
27.02508116778196
 30
0.0
 11
337.0494827703625
 21
29.79515198747964
 31
0.0
  0
LINE
  5
1AC
  8
MAKE2D$VISIBLE$LINES
 10
337.0494827703625
 20
29.79515198747964
 30
0.0
 11
337.3987506158102
 21
32.70034821301623
 31
0.0
  0
LINE
  5
1AD
  8
MAKE2D$VISIBLE$LINES
 10
337.3987506158102
 20
32.70034821301623
 30
0.0
 11
337.9974954937204
 21
38.91611688160616
 31
0.0
  0
LINE
  5
1AE
  8
MAKE2D$VISIBLE$LINES
 10
337.9974954937204
 20
38.91611688160616
 30
0.0
 11
338.4631859543173
 21
45.67238717355173
 31
0.0
  0
LINE
  5
1AF
  8
MAKE2D$VISIBLE$LINES
 10
338.4631859543173
 20
45.67238717355173
 30
0.0
 11
338.7958219976007
 21
52.96915908885296
 31
0.0
  0
LINE
  5
1B0
  8
MAKE2D$VISIBLE$LINES
 10
338.7958219976007
 20
52.96915908885296
 30
0.0
 11
338.9954036235708
 21
60.80643262750984
 31
0.0
  0
LINE
  5
1B1
  8
MAKE2D$VISIBLE$LINES
 10
338.9954036235708
 20
60.80643262750984
 30
0.0
 11
339.0619308322275
 21
69.18420778952236
 31
0.0
  0
LINE
  5
1B2
  8
MAKE2D$VISIBLE$LINES
 10
17.0309654161133
 20
0.0
 30
0.0
 11
16.76589606912179
 21
0.0042226689324589
 31
0.0
  0
LINE
  5
1B3
  8
MAKE2D$VISIBLE$LINES
 10
16.76589606912179
 20
0.0042226689324589
 30
0.0
 11
16.50290569740081
 21
0.0168906757298499
 31
0.0
  0
LINE
  5
1B4
  8
MAKE2D$VISIBLE$LINES
 10
16.50290569740081
 20
0.0168906757298499
 30
0.0
 11
16.24199430095034
 21
0.0380040203921729
 31
0.0
  0
LINE
  5
1B5
  8
MAKE2D$VISIBLE$LINES
 10
16.24199430095034
 20
0.0380040203921729
 30
0.0
 11
15.9831618797704
 21
0.0675627029194279
 31
0.0
  0
LINE
  5
1B6
  8
MAKE2D$VISIBLE$LINES
 10
15.9831618797704
 20
0.0675627029194279
 30
0.0
 11
15.72640843386097
 21
0.105566723311615
 31
0.0
  0
LINE
  5
1B7
  8
MAKE2D$VISIBLE$LINES
 10
15.72640843386097
 20
0.105566723311615
 30
0.0
 11
15.47173396322207
 21
0.1520160815687341
 31
0.0
  0
LINE
  5
1B8
  8
MAKE2D$VISIBLE$LINES
 10
15.47173396322207
 20
0.1520160815687341
 30
0.0
 11
15.21913846785369
 21
0.2069107776907853
 31
0.0
  0
LINE
  5
1B9
  8
MAKE2D$VISIBLE$LINES
 10
15.21913846785369
 20
0.2069107776907853
 30
0.0
 11
14.96862194775583
 21
0.2702508116777684
 31
0.0
  0
LINE
  5
1BA
  8
MAKE2D$VISIBLE$LINES
 10
14.96862194775583
 20
0.2702508116777684
 30
0.0
 11
14.7201844029285
 21
0.3420361835296837
 31
0.0
  0
LINE
  5
1BB
  8
MAKE2D$VISIBLE$LINES
 10
14.7201844029285
 20
0.3420361835296837
 30
0.0
 11
14.47382583337168
 21
0.4222668932465309
 31
0.0
  0
LINE
  5
1BC
  8
MAKE2D$VISIBLE$LINES
 10
14.47382583337168
 20
0.4222668932465309
 30
0.0
 11
14.22954623908539
 21
0.5109429408283103
 31
0.0
  0
LINE
  5
1BD
  8
MAKE2D$VISIBLE$LINES
 10
14.22954623908539
 20
0.5109429408283103
 30
0.0
 11
13.98734562006962
 21
0.6080643262750216
 31
0.0
  0
LINE
  5
1BE
  8
MAKE2D$VISIBLE$LINES
 10
13.98734562006962
 20
0.6080643262750216
 30
0.0
 11
13.74722397632437
 21
0.713631049586665
 31
0.0
  0
LINE
  5
1BF
  8
MAKE2D$VISIBLE$LINES
 10
13.74722397632437
 20
0.713631049586665
 30
0.0
 11
13.50918130784964
 21
0.8276431107632405
 31
0.0
  0
LINE
  5
1C0
  8
MAKE2D$VISIBLE$LINES
 10
13.50918130784964
 20
0.8276431107632405
 30
0.0
 11
13.27321761464543
 21
0.9501005098047479
 31
0.0
  0
LINE
  5
1C1
  8
MAKE2D$VISIBLE$LINES
 10
13.27321761464543
 20
0.9501005098047479
 30
0.0
 11
13.03933289671175
 21
1.081003246711187
 31
0.0
  0
LINE
  5
1C2
  8
MAKE2D$VISIBLE$LINES
 10
13.03933289671175
 20
1.081003246711187
 30
0.0
 11
12.80752715404859
 21
1.220351321482559
 31
0.0
  0
LINE
  5
1C3
  8
MAKE2D$VISIBLE$LINES
 10
12.80752715404859
 20
1.220351321482559
 30
0.0
 11
12.57780038665594
 21
1.368144734118863
 31
0.0
  0
LINE
  5
1C4
  8
MAKE2D$VISIBLE$LINES
 10
12.57780038665594
 20
1.368144734118863
 30
0.0
 11
12.35015259453382
 21
1.524383484620098
 31
0.0
  0
LINE
  5
1C5
  8
MAKE2D$VISIBLE$LINES
 10
12.35015259453382
 20
1.524383484620098
 30
0.0
 11
12.12458377768223
 21
1.689067572986266
 31
0.0
  0
LINE
  5
1C6
  8
MAKE2D$VISIBLE$LINES
 10
12.12458377768223
 20
1.689067572986266
 30
0.0
 11
11.90109393610115
 21
1.862196999217366
 31
0.0
  0
LINE
  5
1C7
  8
MAKE2D$VISIBLE$LINES
 10
11.90109393610115
 20
1.862196999217366
 30
0.0
 11
11.67968306979059
 21
2.043771763313397
 31
0.0
  0
LINE
  5
1C8
  8
MAKE2D$VISIBLE$LINES
 10
11.67968306979059
 20
2.043771763313397
 30
0.0
 11
11.46035117875056
 21
2.233791865274362
 31
0.0
  0
LINE
  5
1C9
  8
MAKE2D$VISIBLE$LINES
 10
11.46035117875056
 20
2.233791865274362
 30
0.0
 11
11.24309826298105
 21
2.432257305100257
 31
0.0
  0
LINE
  5
1CA
  8
MAKE2D$VISIBLE$LINES
 10
11.24309826298105
 20
2.432257305100257
 30
0.0
 11
11.02792432248206
 21
2.639168082791085
 31
0.0
  0
LINE
  5
1CB
  8
MAKE2D$VISIBLE$LINES
 10
11.02792432248206
 20
2.639168082791085
 30
0.0
 11
10.81482935725359
 21
2.854524198346845
 31
0.0
  0
LINE
  5
1CC
  8
MAKE2D$VISIBLE$LINES
 10
10.81482935725359
 20
2.854524198346845
 30
0.0
 11
10.60381336729564
 21
3.078325651767537
 31
0.0
  0
LINE
  5
1CD
  8
MAKE2D$VISIBLE$LINES
 10
10.60381336729564
 20
3.078325651767537
 30
0.0
 11
10.39487635260822
 21
3.310572443053161
 31
0.0
  0
LINE
  5
1CE
  8
MAKE2D$VISIBLE$LINES
 10
10.39487635260822
 20
3.310572443053161
 30
0.0
 11
10.18801831319131
 21
3.551264572203717
 31
0.0
  0
LINE
  5
1CF
  8
MAKE2D$VISIBLE$LINES
 10
10.18801831319131
 20
3.551264572203717
 30
0.0
 11
9.983239249044932
 21
3.800402039219205
 31
0.0
  0
LINE
  5
1D0
  8
MAKE2D$VISIBLE$LINES
 10
9.983239249044932
 20
3.800402039219205
 30
0.0
 11
9.780539160169072
 21
4.057984844099625
 31
0.0
  0
LINE
  5
1D1
  8
MAKE2D$VISIBLE$LINES
 10
9.780539160169072
 20
4.057984844099625
 30
0.0
 11
9.579918046563733
 21
4.324012986844977
 31
0.0
  0
LINE
  5
1D2
  8
MAKE2D$VISIBLE$LINES
 10
9.579918046563733
 20
4.324012986844977
 30
0.0
 11
9.381375908228916
 21
4.598486467455261
 31
0.0
  0
LINE
  5
1D3
  8
MAKE2D$VISIBLE$LINES
 10
9.381375908228916
 20
4.598486467455261
 30
0.0
 11
9.18491274516462
 21
4.881405285930478
 31
0.0
  0
LINE
  5
1D4
  8
MAKE2D$VISIBLE$LINES
 10
9.18491274516462
 20
4.881405285930478
 30
0.0
 11
8.990528557370848
 21
5.172769442270626
 31
0.0
  0
LINE
  5
1D5
  8
MAKE2D$VISIBLE$LINES
 10
8.990528557370848
 20
5.172769442270626
 30
0.0
 11
8.798223344847596
 21
5.472578936475706
 31
0.0
  0
LINE
  5
1D6
  8
MAKE2D$VISIBLE$LINES
 10
8.798223344847596
 20
5.472578936475706
 30
0.0
 11
8.419849845612656
 21
6.097533938480662
 31
0.0
  0
LINE
  5
1D7
  8
MAKE2D$VISIBLE$LINES
 10
8.419849845612656
 20
6.097533938480662
 30
0.0
 11
8.049792247459804
 21
6.756270291945348
 31
0.0
  0
LINE
  5
1D8
  8
MAKE2D$VISIBLE$LINES
 10
8.049792247459804
 20
6.756270291945348
 30
0.0
 11
7.688050550389038
 21
7.448787996869761
 31
0.0
  0
LINE
  5
1D9
  8
MAKE2D$VISIBLE$LINES
 10
7.688050550389038
 20
7.448787996869761
 30
0.0
 11
7.334624754400359
 21
8.175087053253902
 31
0.0
  0
LINE
  5
1DA
  8
MAKE2D$VISIBLE$LINES
 10
7.334624754400359
 20
8.175087053253902
 30
0.0
 11
6.989514859493766
 21
8.935167461097773
 31
0.0
  0
LINE
  5
1DB
  8
MAKE2D$VISIBLE$LINES
 10
6.989514859493766
 20
8.935167461097773
 30
0.0
 11
6.652720865669259
 21
9.729029220401369
 31
0.0
  0
LINE
  5
1DC
  8
MAKE2D$VISIBLE$LINES
 10
6.652720865669259
 20
9.729029220401369
 30
0.0
 11
6.32424277292684
 21
10.55667233116469
 31
0.0
  0
LINE
  5
1DD
  8
MAKE2D$VISIBLE$LINES
 10
6.32424277292684
 20
10.55667233116469
 30
0.0
 11
6.004080581266507
 21
11.41809679338775
 31
0.0
  0
LINE
  5
1DE
  8
MAKE2D$VISIBLE$LINES
 10
6.004080581266507
 20
11.41809679338775
 30
0.0
 11
5.69223429068826
 21
12.31330260707053
 31
0.0
  0
LINE
  5
1DF
  8
MAKE2D$VISIBLE$LINES
 10
5.69223429068826
 20
12.31330260707053
 30
0.0
 11
5.3887039011921
 21
13.24228977221304
 31
0.0
  0
LINE
  5
1E0
  8
MAKE2D$VISIBLE$LINES
 10
5.3887039011921
 20
13.24228977221304
 30
0.0
 11
4.80659082544604
 21
15.20160815687725
 31
0.0
  0
LINE
  5
1E1
  8
MAKE2D$VISIBLE$LINES
 10
4.80659082544604
 20
15.20160815687725
 30
0.0
 11
4.257741354028326
 21
17.29605194738036
 31
0.0
  0
LINE
  5
1E2
  8
MAKE2D$VISIBLE$LINES
 10
4.257741354028326
 20
17.29605194738036
 30
0.0
 11
3.742155486938958
 21
19.52562114372239
 31
0.0
  0
LINE
  5
1E3
  8
MAKE2D$VISIBLE$LINES
 10
3.742155486938958
 20
19.52562114372239
 30
0.0
 11
3.259833224177937
 21
21.89031574590334
 31
0.0
  0
LINE
  5
1E4
  8
MAKE2D$VISIBLE$LINES
 10
3.259833224177937
 20
21.89031574590334
 30
0.0
 11
2.810774565745262
 21
24.39013575392319
 31
0.0
  0
LINE
  5
1E5
  8
MAKE2D$VISIBLE$LINES
 10
2.810774565745262
 20
24.39013575392319
 30
0.0
 11
2.394979511640933
 21
27.02508116778196
 31
0.0
  0
LINE
  5
1E6
  8
MAKE2D$VISIBLE$LINES
 10
2.394979511640933
 20
27.02508116778196
 30
0.0
 11
2.012448061864951
 21
29.79515198747964
 31
0.0
  0
LINE
  5
1E7
  8
MAKE2D$VISIBLE$LINES
 10
2.012448061864951
 20
29.79515198747964
 30
0.0
 11
1.663180216417315
 21
32.70034821301623
 31
0.0
  0
LINE
  5
1E8
  8
MAKE2D$VISIBLE$LINES
 10
1.663180216417315
 20
32.70034821301623
 30
0.0
 11
1.064435338507081
 21
38.91611688160616
 31
0.0
  0
LINE
  5
1E9
  8
MAKE2D$VISIBLE$LINES
 10
1.064435338507081
 20
38.91611688160616
 30
0.0
 11
0.5987448779102333
 21
45.67238717355173
 31
0.0
  0
LINE
  5
1EA
  8
MAKE2D$VISIBLE$LINES
 10
0.5987448779102333
 20
45.67238717355173
 30
0.0
 11
0.2661088346267704
 21
52.96915908885296
 31
0.0
  0
LINE
  5
1EB
  8
MAKE2D$VISIBLE$LINES
 10
0.2661088346267704
 20
52.96915908885296
 30
0.0
 11
0.0665272086566926
 21
60.80643262750984
 31
0.0
  0
LINE
  5
1EC
  8
MAKE2D$VISIBLE$LINES
 10
0.0665272086566926
 20
60.80643262750984
 30
0.0
 11
0.0
 21
69.18420778952236
 31
0.0
  0
CIRCLE
  5
1ED
  8
MAKE2D$VISIBLE$LINES
 10
266.5001845460647
 20
101.1611272550795
 30
0.0
 40
8.499999999999773
  0
ENDSEC
  0
EOF
