G75*
%MOIN*%
%OFA0B0*%
%FSLAX25Y25*%
%IPPOS*%
%LPD*%
%AMOC8*
5,1,8,0,0,1.08239X$1,22.5*
%
%ADD10C,0.16548*%
%ADD11C,0.08200*%
%ADD12C,0.07400*%
%ADD13C,0.09461*%
%ADD14C,0.04934*%
%ADD15C,0.06800*%
%ADD16OC8,0.06000*%
%ADD17C,0.07800*%
%ADD18C,0.12611*%
%ADD19C,0.03778*%
D10*
X0017961Y0017191D03*
X0017961Y0107742D03*
X0191189Y0107742D03*
X0191189Y0017191D03*
D11*
X0124575Y0095942D03*
X0114575Y0095942D03*
X0104575Y0095942D03*
X0094575Y0095942D03*
X0084575Y0095942D03*
X0084575Y0106942D03*
X0094575Y0106942D03*
X0104575Y0106942D03*
X0114575Y0106942D03*
X0124575Y0106942D03*
D12*
X0122134Y0031128D03*
X0132134Y0031128D03*
X0142134Y0031128D03*
X0142134Y0011128D03*
X0132134Y0011128D03*
X0122134Y0011128D03*
X0087016Y0011128D03*
X0077016Y0011128D03*
X0067016Y0011128D03*
X0067016Y0031128D03*
X0077016Y0031128D03*
X0087016Y0031128D03*
D13*
X0086976Y0021324D03*
X0142094Y0021324D03*
D14*
X0125205Y0025458D03*
X0125205Y0016836D03*
X0070087Y0016836D03*
X0070087Y0025458D03*
D15*
X0010087Y0036876D03*
X0010087Y0046876D03*
X0010087Y0056876D03*
X0010087Y0068372D03*
X0010087Y0078372D03*
X0010087Y0088372D03*
X0038827Y0106167D03*
X0048827Y0106167D03*
X0058827Y0106167D03*
X0058906Y0115734D03*
X0048906Y0115734D03*
X0038906Y0115734D03*
X0150480Y0115734D03*
X0160480Y0115734D03*
X0170480Y0115734D03*
X0170638Y0106167D03*
X0160638Y0106167D03*
X0150638Y0106167D03*
X0199063Y0088057D03*
X0199063Y0078057D03*
X0199063Y0068057D03*
X0199063Y0056561D03*
X0199063Y0046561D03*
X0199063Y0036561D03*
D16*
X0124260Y0045498D03*
X0104575Y0040065D03*
X0084890Y0045498D03*
X0099575Y0062466D03*
X0109575Y0062466D03*
X0124260Y0075498D03*
X0084890Y0075498D03*
X0104575Y0010065D03*
D17*
X0157567Y0034907D03*
X0167567Y0034907D03*
X0177567Y0034907D03*
X0051583Y0034907D03*
X0041583Y0034907D03*
X0031583Y0034907D03*
D18*
X0022685Y0064435D03*
X0060480Y0064435D03*
X0148669Y0064435D03*
X0186465Y0064435D03*
D19*
X0179378Y0056561D03*
X0137055Y0111679D03*
X0078984Y0085104D03*
M02*
