G75*
%MOIN*%
%OFA0B0*%
%FSLAX25Y25*%
%IPPOS*%
%LPD*%
%AMOC8*
5,1,8,0,0,1.08239X$1,22.5*
%
%ADD10C,0.00800*%
%ADD11C,0.01200*%
%ADD12C,0.00500*%
%ADD13C,0.01300*%
%ADD14C,0.00600*%
%ADD15C,0.01000*%
%ADD16C,0.00300*%
D10*
X0072016Y0021128D02*
X0072018Y0021269D01*
X0072024Y0021410D01*
X0072034Y0021550D01*
X0072048Y0021690D01*
X0072066Y0021830D01*
X0072087Y0021969D01*
X0072113Y0022108D01*
X0072142Y0022246D01*
X0072176Y0022382D01*
X0072213Y0022518D01*
X0072254Y0022653D01*
X0072299Y0022787D01*
X0072348Y0022919D01*
X0072400Y0023050D01*
X0072456Y0023179D01*
X0072516Y0023306D01*
X0072579Y0023432D01*
X0072645Y0023556D01*
X0072716Y0023679D01*
X0072789Y0023799D01*
X0072866Y0023917D01*
X0072946Y0024033D01*
X0073030Y0024146D01*
X0073116Y0024257D01*
X0073206Y0024366D01*
X0073299Y0024472D01*
X0073394Y0024575D01*
X0073493Y0024676D01*
X0073594Y0024774D01*
X0073698Y0024869D01*
X0073805Y0024961D01*
X0073914Y0025050D01*
X0074026Y0025135D01*
X0074140Y0025218D01*
X0074256Y0025298D01*
X0074375Y0025374D01*
X0074496Y0025446D01*
X0074618Y0025516D01*
X0074743Y0025581D01*
X0074869Y0025644D01*
X0074997Y0025702D01*
X0075127Y0025757D01*
X0075258Y0025809D01*
X0075391Y0025856D01*
X0075525Y0025900D01*
X0075660Y0025941D01*
X0075796Y0025977D01*
X0075933Y0026009D01*
X0076071Y0026038D01*
X0076209Y0026063D01*
X0076349Y0026083D01*
X0076489Y0026100D01*
X0076629Y0026113D01*
X0076770Y0026122D01*
X0076910Y0026127D01*
X0077051Y0026128D01*
X0077192Y0026125D01*
X0077333Y0026118D01*
X0077473Y0026107D01*
X0077613Y0026092D01*
X0077753Y0026073D01*
X0077892Y0026051D01*
X0078030Y0026024D01*
X0078168Y0025994D01*
X0078304Y0025959D01*
X0078440Y0025921D01*
X0078574Y0025879D01*
X0078708Y0025833D01*
X0078840Y0025784D01*
X0078970Y0025730D01*
X0079099Y0025673D01*
X0079226Y0025613D01*
X0079352Y0025549D01*
X0079475Y0025481D01*
X0079597Y0025410D01*
X0079717Y0025336D01*
X0079834Y0025258D01*
X0079949Y0025177D01*
X0080062Y0025093D01*
X0080173Y0025006D01*
X0080281Y0024915D01*
X0080386Y0024822D01*
X0080489Y0024725D01*
X0080589Y0024626D01*
X0080686Y0024524D01*
X0080780Y0024419D01*
X0080871Y0024312D01*
X0080959Y0024202D01*
X0081044Y0024090D01*
X0081126Y0023975D01*
X0081205Y0023858D01*
X0081280Y0023739D01*
X0081352Y0023618D01*
X0081420Y0023495D01*
X0081485Y0023370D01*
X0081547Y0023243D01*
X0081604Y0023114D01*
X0081659Y0022984D01*
X0081709Y0022853D01*
X0081756Y0022720D01*
X0081799Y0022586D01*
X0081838Y0022450D01*
X0081873Y0022314D01*
X0081905Y0022177D01*
X0081932Y0022039D01*
X0081956Y0021900D01*
X0081976Y0021760D01*
X0081992Y0021620D01*
X0082004Y0021480D01*
X0082012Y0021339D01*
X0082016Y0021198D01*
X0082016Y0021058D01*
X0082012Y0020917D01*
X0082004Y0020776D01*
X0081992Y0020636D01*
X0081976Y0020496D01*
X0081956Y0020356D01*
X0081932Y0020217D01*
X0081905Y0020079D01*
X0081873Y0019942D01*
X0081838Y0019806D01*
X0081799Y0019670D01*
X0081756Y0019536D01*
X0081709Y0019403D01*
X0081659Y0019272D01*
X0081604Y0019142D01*
X0081547Y0019013D01*
X0081485Y0018886D01*
X0081420Y0018761D01*
X0081352Y0018638D01*
X0081280Y0018517D01*
X0081205Y0018398D01*
X0081126Y0018281D01*
X0081044Y0018166D01*
X0080959Y0018054D01*
X0080871Y0017944D01*
X0080780Y0017837D01*
X0080686Y0017732D01*
X0080589Y0017630D01*
X0080489Y0017531D01*
X0080386Y0017434D01*
X0080281Y0017341D01*
X0080173Y0017250D01*
X0080062Y0017163D01*
X0079949Y0017079D01*
X0079834Y0016998D01*
X0079717Y0016920D01*
X0079597Y0016846D01*
X0079475Y0016775D01*
X0079352Y0016707D01*
X0079226Y0016643D01*
X0079099Y0016583D01*
X0078970Y0016526D01*
X0078840Y0016472D01*
X0078708Y0016423D01*
X0078574Y0016377D01*
X0078440Y0016335D01*
X0078304Y0016297D01*
X0078168Y0016262D01*
X0078030Y0016232D01*
X0077892Y0016205D01*
X0077753Y0016183D01*
X0077613Y0016164D01*
X0077473Y0016149D01*
X0077333Y0016138D01*
X0077192Y0016131D01*
X0077051Y0016128D01*
X0076910Y0016129D01*
X0076770Y0016134D01*
X0076629Y0016143D01*
X0076489Y0016156D01*
X0076349Y0016173D01*
X0076209Y0016193D01*
X0076071Y0016218D01*
X0075933Y0016247D01*
X0075796Y0016279D01*
X0075660Y0016315D01*
X0075525Y0016356D01*
X0075391Y0016400D01*
X0075258Y0016447D01*
X0075127Y0016499D01*
X0074997Y0016554D01*
X0074869Y0016612D01*
X0074743Y0016675D01*
X0074618Y0016740D01*
X0074496Y0016810D01*
X0074375Y0016882D01*
X0074256Y0016958D01*
X0074140Y0017038D01*
X0074026Y0017121D01*
X0073914Y0017206D01*
X0073805Y0017295D01*
X0073698Y0017387D01*
X0073594Y0017482D01*
X0073493Y0017580D01*
X0073394Y0017681D01*
X0073299Y0017784D01*
X0073206Y0017890D01*
X0073116Y0017999D01*
X0073030Y0018110D01*
X0072946Y0018223D01*
X0072866Y0018339D01*
X0072789Y0018457D01*
X0072716Y0018577D01*
X0072645Y0018700D01*
X0072579Y0018824D01*
X0072516Y0018950D01*
X0072456Y0019077D01*
X0072400Y0019206D01*
X0072348Y0019337D01*
X0072299Y0019469D01*
X0072254Y0019603D01*
X0072213Y0019738D01*
X0072176Y0019874D01*
X0072142Y0020010D01*
X0072113Y0020148D01*
X0072087Y0020287D01*
X0072066Y0020426D01*
X0072048Y0020566D01*
X0072034Y0020706D01*
X0072024Y0020846D01*
X0072018Y0020987D01*
X0072016Y0021128D01*
X0127134Y0021128D02*
X0127136Y0021269D01*
X0127142Y0021410D01*
X0127152Y0021550D01*
X0127166Y0021690D01*
X0127184Y0021830D01*
X0127205Y0021969D01*
X0127231Y0022108D01*
X0127260Y0022246D01*
X0127294Y0022382D01*
X0127331Y0022518D01*
X0127372Y0022653D01*
X0127417Y0022787D01*
X0127466Y0022919D01*
X0127518Y0023050D01*
X0127574Y0023179D01*
X0127634Y0023306D01*
X0127697Y0023432D01*
X0127763Y0023556D01*
X0127834Y0023679D01*
X0127907Y0023799D01*
X0127984Y0023917D01*
X0128064Y0024033D01*
X0128148Y0024146D01*
X0128234Y0024257D01*
X0128324Y0024366D01*
X0128417Y0024472D01*
X0128512Y0024575D01*
X0128611Y0024676D01*
X0128712Y0024774D01*
X0128816Y0024869D01*
X0128923Y0024961D01*
X0129032Y0025050D01*
X0129144Y0025135D01*
X0129258Y0025218D01*
X0129374Y0025298D01*
X0129493Y0025374D01*
X0129614Y0025446D01*
X0129736Y0025516D01*
X0129861Y0025581D01*
X0129987Y0025644D01*
X0130115Y0025702D01*
X0130245Y0025757D01*
X0130376Y0025809D01*
X0130509Y0025856D01*
X0130643Y0025900D01*
X0130778Y0025941D01*
X0130914Y0025977D01*
X0131051Y0026009D01*
X0131189Y0026038D01*
X0131327Y0026063D01*
X0131467Y0026083D01*
X0131607Y0026100D01*
X0131747Y0026113D01*
X0131888Y0026122D01*
X0132028Y0026127D01*
X0132169Y0026128D01*
X0132310Y0026125D01*
X0132451Y0026118D01*
X0132591Y0026107D01*
X0132731Y0026092D01*
X0132871Y0026073D01*
X0133010Y0026051D01*
X0133148Y0026024D01*
X0133286Y0025994D01*
X0133422Y0025959D01*
X0133558Y0025921D01*
X0133692Y0025879D01*
X0133826Y0025833D01*
X0133958Y0025784D01*
X0134088Y0025730D01*
X0134217Y0025673D01*
X0134344Y0025613D01*
X0134470Y0025549D01*
X0134593Y0025481D01*
X0134715Y0025410D01*
X0134835Y0025336D01*
X0134952Y0025258D01*
X0135067Y0025177D01*
X0135180Y0025093D01*
X0135291Y0025006D01*
X0135399Y0024915D01*
X0135504Y0024822D01*
X0135607Y0024725D01*
X0135707Y0024626D01*
X0135804Y0024524D01*
X0135898Y0024419D01*
X0135989Y0024312D01*
X0136077Y0024202D01*
X0136162Y0024090D01*
X0136244Y0023975D01*
X0136323Y0023858D01*
X0136398Y0023739D01*
X0136470Y0023618D01*
X0136538Y0023495D01*
X0136603Y0023370D01*
X0136665Y0023243D01*
X0136722Y0023114D01*
X0136777Y0022984D01*
X0136827Y0022853D01*
X0136874Y0022720D01*
X0136917Y0022586D01*
X0136956Y0022450D01*
X0136991Y0022314D01*
X0137023Y0022177D01*
X0137050Y0022039D01*
X0137074Y0021900D01*
X0137094Y0021760D01*
X0137110Y0021620D01*
X0137122Y0021480D01*
X0137130Y0021339D01*
X0137134Y0021198D01*
X0137134Y0021058D01*
X0137130Y0020917D01*
X0137122Y0020776D01*
X0137110Y0020636D01*
X0137094Y0020496D01*
X0137074Y0020356D01*
X0137050Y0020217D01*
X0137023Y0020079D01*
X0136991Y0019942D01*
X0136956Y0019806D01*
X0136917Y0019670D01*
X0136874Y0019536D01*
X0136827Y0019403D01*
X0136777Y0019272D01*
X0136722Y0019142D01*
X0136665Y0019013D01*
X0136603Y0018886D01*
X0136538Y0018761D01*
X0136470Y0018638D01*
X0136398Y0018517D01*
X0136323Y0018398D01*
X0136244Y0018281D01*
X0136162Y0018166D01*
X0136077Y0018054D01*
X0135989Y0017944D01*
X0135898Y0017837D01*
X0135804Y0017732D01*
X0135707Y0017630D01*
X0135607Y0017531D01*
X0135504Y0017434D01*
X0135399Y0017341D01*
X0135291Y0017250D01*
X0135180Y0017163D01*
X0135067Y0017079D01*
X0134952Y0016998D01*
X0134835Y0016920D01*
X0134715Y0016846D01*
X0134593Y0016775D01*
X0134470Y0016707D01*
X0134344Y0016643D01*
X0134217Y0016583D01*
X0134088Y0016526D01*
X0133958Y0016472D01*
X0133826Y0016423D01*
X0133692Y0016377D01*
X0133558Y0016335D01*
X0133422Y0016297D01*
X0133286Y0016262D01*
X0133148Y0016232D01*
X0133010Y0016205D01*
X0132871Y0016183D01*
X0132731Y0016164D01*
X0132591Y0016149D01*
X0132451Y0016138D01*
X0132310Y0016131D01*
X0132169Y0016128D01*
X0132028Y0016129D01*
X0131888Y0016134D01*
X0131747Y0016143D01*
X0131607Y0016156D01*
X0131467Y0016173D01*
X0131327Y0016193D01*
X0131189Y0016218D01*
X0131051Y0016247D01*
X0130914Y0016279D01*
X0130778Y0016315D01*
X0130643Y0016356D01*
X0130509Y0016400D01*
X0130376Y0016447D01*
X0130245Y0016499D01*
X0130115Y0016554D01*
X0129987Y0016612D01*
X0129861Y0016675D01*
X0129736Y0016740D01*
X0129614Y0016810D01*
X0129493Y0016882D01*
X0129374Y0016958D01*
X0129258Y0017038D01*
X0129144Y0017121D01*
X0129032Y0017206D01*
X0128923Y0017295D01*
X0128816Y0017387D01*
X0128712Y0017482D01*
X0128611Y0017580D01*
X0128512Y0017681D01*
X0128417Y0017784D01*
X0128324Y0017890D01*
X0128234Y0017999D01*
X0128148Y0018110D01*
X0128064Y0018223D01*
X0127984Y0018339D01*
X0127907Y0018457D01*
X0127834Y0018577D01*
X0127763Y0018700D01*
X0127697Y0018824D01*
X0127634Y0018950D01*
X0127574Y0019077D01*
X0127518Y0019206D01*
X0127466Y0019337D01*
X0127417Y0019469D01*
X0127372Y0019603D01*
X0127331Y0019738D01*
X0127294Y0019874D01*
X0127260Y0020010D01*
X0127231Y0020148D01*
X0127205Y0020287D01*
X0127184Y0020426D01*
X0127166Y0020566D01*
X0127152Y0020706D01*
X0127142Y0020846D01*
X0127136Y0020987D01*
X0127134Y0021128D01*
X0148947Y0085835D02*
X0148947Y0090038D01*
X0148947Y0087236D02*
X0151750Y0090038D01*
X0153551Y0090038D02*
X0156354Y0085835D01*
X0156354Y0090038D01*
X0158155Y0089338D02*
X0158155Y0086535D01*
X0158856Y0085835D01*
X0160257Y0085835D01*
X0160957Y0086535D01*
X0160957Y0089338D01*
X0160257Y0090038D01*
X0158856Y0090038D01*
X0158155Y0089338D01*
X0153551Y0090038D02*
X0153551Y0085835D01*
X0151750Y0085835D02*
X0149648Y0087936D01*
X0162759Y0087936D02*
X0164861Y0087936D01*
X0165561Y0087236D01*
X0165561Y0086535D01*
X0164861Y0085835D01*
X0162759Y0085835D01*
X0162759Y0090038D01*
X0164861Y0090038D01*
X0165561Y0089338D01*
X0165561Y0088637D01*
X0164861Y0087936D01*
X0167363Y0089338D02*
X0168064Y0090038D01*
X0169465Y0090038D01*
X0170165Y0089338D01*
X0170165Y0088637D01*
X0167363Y0085835D01*
X0170165Y0085835D01*
X0127075Y0090368D02*
X0122075Y0090368D01*
X0059181Y0086335D02*
X0056379Y0086335D01*
X0057780Y0086335D02*
X0057780Y0090538D01*
X0056379Y0089137D01*
X0054577Y0089137D02*
X0053877Y0088436D01*
X0051775Y0088436D01*
X0053877Y0088436D02*
X0054577Y0087736D01*
X0054577Y0087035D01*
X0053877Y0086335D01*
X0051775Y0086335D01*
X0051775Y0090538D01*
X0053877Y0090538D01*
X0054577Y0089838D01*
X0054577Y0089137D01*
X0049973Y0089838D02*
X0049973Y0087035D01*
X0049273Y0086335D01*
X0047871Y0086335D01*
X0047171Y0087035D01*
X0047171Y0089838D01*
X0047871Y0090538D01*
X0049273Y0090538D01*
X0049973Y0089838D01*
X0045369Y0090538D02*
X0045369Y0086335D01*
X0042567Y0090538D01*
X0042567Y0086335D01*
X0040765Y0086335D02*
X0038664Y0088436D01*
X0037963Y0087736D02*
X0040765Y0090538D01*
X0037963Y0090538D02*
X0037963Y0086335D01*
D11*
X0074516Y0023628D02*
X0077016Y0018628D01*
X0074516Y0018628D01*
X0077016Y0018628D02*
X0079516Y0018628D01*
X0077016Y0018628D02*
X0079516Y0023628D01*
X0074516Y0023628D01*
X0129634Y0023628D02*
X0132134Y0018628D01*
X0129634Y0018628D01*
X0132134Y0018628D02*
X0134634Y0018628D01*
X0132134Y0018628D02*
X0134634Y0023628D01*
X0129634Y0023628D01*
D12*
X0121634Y0026128D02*
X0121636Y0026172D01*
X0121642Y0026216D01*
X0121652Y0026259D01*
X0121665Y0026301D01*
X0121682Y0026342D01*
X0121703Y0026381D01*
X0121727Y0026418D01*
X0121754Y0026453D01*
X0121784Y0026485D01*
X0121817Y0026515D01*
X0121853Y0026541D01*
X0121890Y0026565D01*
X0121930Y0026584D01*
X0121971Y0026601D01*
X0122014Y0026613D01*
X0122057Y0026622D01*
X0122101Y0026627D01*
X0122145Y0026628D01*
X0122189Y0026625D01*
X0122233Y0026618D01*
X0122276Y0026607D01*
X0122318Y0026593D01*
X0122358Y0026575D01*
X0122397Y0026553D01*
X0122433Y0026529D01*
X0122467Y0026501D01*
X0122499Y0026470D01*
X0122528Y0026436D01*
X0122554Y0026400D01*
X0122576Y0026362D01*
X0122595Y0026322D01*
X0122610Y0026280D01*
X0122622Y0026238D01*
X0122630Y0026194D01*
X0122634Y0026150D01*
X0122634Y0026106D01*
X0122630Y0026062D01*
X0122622Y0026018D01*
X0122610Y0025976D01*
X0122595Y0025934D01*
X0122576Y0025894D01*
X0122554Y0025856D01*
X0122528Y0025820D01*
X0122499Y0025786D01*
X0122467Y0025755D01*
X0122433Y0025727D01*
X0122397Y0025703D01*
X0122358Y0025681D01*
X0122318Y0025663D01*
X0122276Y0025649D01*
X0122233Y0025638D01*
X0122189Y0025631D01*
X0122145Y0025628D01*
X0122101Y0025629D01*
X0122057Y0025634D01*
X0122014Y0025643D01*
X0121971Y0025655D01*
X0121930Y0025672D01*
X0121890Y0025691D01*
X0121853Y0025715D01*
X0121817Y0025741D01*
X0121784Y0025771D01*
X0121754Y0025803D01*
X0121727Y0025838D01*
X0121703Y0025875D01*
X0121682Y0025914D01*
X0121665Y0025955D01*
X0121652Y0025997D01*
X0121642Y0026040D01*
X0121636Y0026084D01*
X0121634Y0026128D01*
X0122134Y0026128D02*
X0122134Y0016128D01*
X0121634Y0016128D02*
X0121636Y0016172D01*
X0121642Y0016216D01*
X0121652Y0016259D01*
X0121665Y0016301D01*
X0121682Y0016342D01*
X0121703Y0016381D01*
X0121727Y0016418D01*
X0121754Y0016453D01*
X0121784Y0016485D01*
X0121817Y0016515D01*
X0121853Y0016541D01*
X0121890Y0016565D01*
X0121930Y0016584D01*
X0121971Y0016601D01*
X0122014Y0016613D01*
X0122057Y0016622D01*
X0122101Y0016627D01*
X0122145Y0016628D01*
X0122189Y0016625D01*
X0122233Y0016618D01*
X0122276Y0016607D01*
X0122318Y0016593D01*
X0122358Y0016575D01*
X0122397Y0016553D01*
X0122433Y0016529D01*
X0122467Y0016501D01*
X0122499Y0016470D01*
X0122528Y0016436D01*
X0122554Y0016400D01*
X0122576Y0016362D01*
X0122595Y0016322D01*
X0122610Y0016280D01*
X0122622Y0016238D01*
X0122630Y0016194D01*
X0122634Y0016150D01*
X0122634Y0016106D01*
X0122630Y0016062D01*
X0122622Y0016018D01*
X0122610Y0015976D01*
X0122595Y0015934D01*
X0122576Y0015894D01*
X0122554Y0015856D01*
X0122528Y0015820D01*
X0122499Y0015786D01*
X0122467Y0015755D01*
X0122433Y0015727D01*
X0122397Y0015703D01*
X0122358Y0015681D01*
X0122318Y0015663D01*
X0122276Y0015649D01*
X0122233Y0015638D01*
X0122189Y0015631D01*
X0122145Y0015628D01*
X0122101Y0015629D01*
X0122057Y0015634D01*
X0122014Y0015643D01*
X0121971Y0015655D01*
X0121930Y0015672D01*
X0121890Y0015691D01*
X0121853Y0015715D01*
X0121817Y0015741D01*
X0121784Y0015771D01*
X0121754Y0015803D01*
X0121727Y0015838D01*
X0121703Y0015875D01*
X0121682Y0015914D01*
X0121665Y0015955D01*
X0121652Y0015997D01*
X0121642Y0016040D01*
X0121636Y0016084D01*
X0121634Y0016128D01*
X0117134Y0006128D02*
X0147134Y0006128D01*
X0147134Y0036128D01*
X0137134Y0036128D01*
X0137134Y0041128D02*
X0127134Y0036128D01*
X0117134Y0036128D01*
X0117134Y0006128D01*
X0141634Y0016128D02*
X0141636Y0016172D01*
X0141642Y0016216D01*
X0141652Y0016259D01*
X0141665Y0016301D01*
X0141682Y0016342D01*
X0141703Y0016381D01*
X0141727Y0016418D01*
X0141754Y0016453D01*
X0141784Y0016485D01*
X0141817Y0016515D01*
X0141853Y0016541D01*
X0141890Y0016565D01*
X0141930Y0016584D01*
X0141971Y0016601D01*
X0142014Y0016613D01*
X0142057Y0016622D01*
X0142101Y0016627D01*
X0142145Y0016628D01*
X0142189Y0016625D01*
X0142233Y0016618D01*
X0142276Y0016607D01*
X0142318Y0016593D01*
X0142358Y0016575D01*
X0142397Y0016553D01*
X0142433Y0016529D01*
X0142467Y0016501D01*
X0142499Y0016470D01*
X0142528Y0016436D01*
X0142554Y0016400D01*
X0142576Y0016362D01*
X0142595Y0016322D01*
X0142610Y0016280D01*
X0142622Y0016238D01*
X0142630Y0016194D01*
X0142634Y0016150D01*
X0142634Y0016106D01*
X0142630Y0016062D01*
X0142622Y0016018D01*
X0142610Y0015976D01*
X0142595Y0015934D01*
X0142576Y0015894D01*
X0142554Y0015856D01*
X0142528Y0015820D01*
X0142499Y0015786D01*
X0142467Y0015755D01*
X0142433Y0015727D01*
X0142397Y0015703D01*
X0142358Y0015681D01*
X0142318Y0015663D01*
X0142276Y0015649D01*
X0142233Y0015638D01*
X0142189Y0015631D01*
X0142145Y0015628D01*
X0142101Y0015629D01*
X0142057Y0015634D01*
X0142014Y0015643D01*
X0141971Y0015655D01*
X0141930Y0015672D01*
X0141890Y0015691D01*
X0141853Y0015715D01*
X0141817Y0015741D01*
X0141784Y0015771D01*
X0141754Y0015803D01*
X0141727Y0015838D01*
X0141703Y0015875D01*
X0141682Y0015914D01*
X0141665Y0015955D01*
X0141652Y0015997D01*
X0141642Y0016040D01*
X0141636Y0016084D01*
X0141634Y0016128D01*
X0142134Y0016128D02*
X0142134Y0026128D01*
X0141634Y0026128D02*
X0141636Y0026172D01*
X0141642Y0026216D01*
X0141652Y0026259D01*
X0141665Y0026301D01*
X0141682Y0026342D01*
X0141703Y0026381D01*
X0141727Y0026418D01*
X0141754Y0026453D01*
X0141784Y0026485D01*
X0141817Y0026515D01*
X0141853Y0026541D01*
X0141890Y0026565D01*
X0141930Y0026584D01*
X0141971Y0026601D01*
X0142014Y0026613D01*
X0142057Y0026622D01*
X0142101Y0026627D01*
X0142145Y0026628D01*
X0142189Y0026625D01*
X0142233Y0026618D01*
X0142276Y0026607D01*
X0142318Y0026593D01*
X0142358Y0026575D01*
X0142397Y0026553D01*
X0142433Y0026529D01*
X0142467Y0026501D01*
X0142499Y0026470D01*
X0142528Y0026436D01*
X0142554Y0026400D01*
X0142576Y0026362D01*
X0142595Y0026322D01*
X0142610Y0026280D01*
X0142622Y0026238D01*
X0142630Y0026194D01*
X0142634Y0026150D01*
X0142634Y0026106D01*
X0142630Y0026062D01*
X0142622Y0026018D01*
X0142610Y0025976D01*
X0142595Y0025934D01*
X0142576Y0025894D01*
X0142554Y0025856D01*
X0142528Y0025820D01*
X0142499Y0025786D01*
X0142467Y0025755D01*
X0142433Y0025727D01*
X0142397Y0025703D01*
X0142358Y0025681D01*
X0142318Y0025663D01*
X0142276Y0025649D01*
X0142233Y0025638D01*
X0142189Y0025631D01*
X0142145Y0025628D01*
X0142101Y0025629D01*
X0142057Y0025634D01*
X0142014Y0025643D01*
X0141971Y0025655D01*
X0141930Y0025672D01*
X0141890Y0025691D01*
X0141853Y0025715D01*
X0141817Y0025741D01*
X0141784Y0025771D01*
X0141754Y0025803D01*
X0141727Y0025838D01*
X0141703Y0025875D01*
X0141682Y0025914D01*
X0141665Y0025955D01*
X0141652Y0025997D01*
X0141642Y0026040D01*
X0141636Y0026084D01*
X0141634Y0026128D01*
X0148817Y0039935D02*
X0148817Y0054435D01*
X0159567Y0064435D02*
X0159569Y0064631D01*
X0159577Y0064828D01*
X0159589Y0065024D01*
X0159606Y0065219D01*
X0159627Y0065414D01*
X0159654Y0065609D01*
X0159685Y0065803D01*
X0159721Y0065996D01*
X0159761Y0066188D01*
X0159807Y0066379D01*
X0159857Y0066569D01*
X0159911Y0066757D01*
X0159971Y0066944D01*
X0160035Y0067130D01*
X0160103Y0067314D01*
X0160176Y0067496D01*
X0160253Y0067677D01*
X0160335Y0067855D01*
X0160421Y0068032D01*
X0160512Y0068206D01*
X0160606Y0068378D01*
X0160705Y0068548D01*
X0160808Y0068715D01*
X0160915Y0068880D01*
X0161026Y0069041D01*
X0161141Y0069201D01*
X0161260Y0069357D01*
X0161383Y0069510D01*
X0161509Y0069660D01*
X0161639Y0069807D01*
X0161773Y0069951D01*
X0161910Y0070092D01*
X0162051Y0070229D01*
X0162195Y0070363D01*
X0162342Y0070493D01*
X0162492Y0070619D01*
X0162645Y0070742D01*
X0162801Y0070861D01*
X0162961Y0070976D01*
X0163122Y0071087D01*
X0163287Y0071194D01*
X0163454Y0071297D01*
X0163624Y0071396D01*
X0163796Y0071490D01*
X0163970Y0071581D01*
X0164147Y0071667D01*
X0164325Y0071749D01*
X0164506Y0071826D01*
X0164688Y0071899D01*
X0164872Y0071967D01*
X0165058Y0072031D01*
X0165245Y0072091D01*
X0165433Y0072145D01*
X0165623Y0072195D01*
X0165814Y0072241D01*
X0166006Y0072281D01*
X0166199Y0072317D01*
X0166393Y0072348D01*
X0166588Y0072375D01*
X0166783Y0072396D01*
X0166978Y0072413D01*
X0167174Y0072425D01*
X0167371Y0072433D01*
X0167567Y0072435D01*
X0167763Y0072433D01*
X0167960Y0072425D01*
X0168156Y0072413D01*
X0168351Y0072396D01*
X0168546Y0072375D01*
X0168741Y0072348D01*
X0168935Y0072317D01*
X0169128Y0072281D01*
X0169320Y0072241D01*
X0169511Y0072195D01*
X0169701Y0072145D01*
X0169889Y0072091D01*
X0170076Y0072031D01*
X0170262Y0071967D01*
X0170446Y0071899D01*
X0170628Y0071826D01*
X0170809Y0071749D01*
X0170987Y0071667D01*
X0171164Y0071581D01*
X0171338Y0071490D01*
X0171510Y0071396D01*
X0171680Y0071297D01*
X0171847Y0071194D01*
X0172012Y0071087D01*
X0172173Y0070976D01*
X0172333Y0070861D01*
X0172489Y0070742D01*
X0172642Y0070619D01*
X0172792Y0070493D01*
X0172939Y0070363D01*
X0173083Y0070229D01*
X0173224Y0070092D01*
X0173361Y0069951D01*
X0173495Y0069807D01*
X0173625Y0069660D01*
X0173751Y0069510D01*
X0173874Y0069357D01*
X0173993Y0069201D01*
X0174108Y0069041D01*
X0174219Y0068880D01*
X0174326Y0068715D01*
X0174429Y0068548D01*
X0174528Y0068378D01*
X0174622Y0068206D01*
X0174713Y0068032D01*
X0174799Y0067855D01*
X0174881Y0067677D01*
X0174958Y0067496D01*
X0175031Y0067314D01*
X0175099Y0067130D01*
X0175163Y0066944D01*
X0175223Y0066757D01*
X0175277Y0066569D01*
X0175327Y0066379D01*
X0175373Y0066188D01*
X0175413Y0065996D01*
X0175449Y0065803D01*
X0175480Y0065609D01*
X0175507Y0065414D01*
X0175528Y0065219D01*
X0175545Y0065024D01*
X0175557Y0064828D01*
X0175565Y0064631D01*
X0175567Y0064435D01*
X0175565Y0064239D01*
X0175557Y0064042D01*
X0175545Y0063846D01*
X0175528Y0063651D01*
X0175507Y0063456D01*
X0175480Y0063261D01*
X0175449Y0063067D01*
X0175413Y0062874D01*
X0175373Y0062682D01*
X0175327Y0062491D01*
X0175277Y0062301D01*
X0175223Y0062113D01*
X0175163Y0061926D01*
X0175099Y0061740D01*
X0175031Y0061556D01*
X0174958Y0061374D01*
X0174881Y0061193D01*
X0174799Y0061015D01*
X0174713Y0060838D01*
X0174622Y0060664D01*
X0174528Y0060492D01*
X0174429Y0060322D01*
X0174326Y0060155D01*
X0174219Y0059990D01*
X0174108Y0059829D01*
X0173993Y0059669D01*
X0173874Y0059513D01*
X0173751Y0059360D01*
X0173625Y0059210D01*
X0173495Y0059063D01*
X0173361Y0058919D01*
X0173224Y0058778D01*
X0173083Y0058641D01*
X0172939Y0058507D01*
X0172792Y0058377D01*
X0172642Y0058251D01*
X0172489Y0058128D01*
X0172333Y0058009D01*
X0172173Y0057894D01*
X0172012Y0057783D01*
X0171847Y0057676D01*
X0171680Y0057573D01*
X0171510Y0057474D01*
X0171338Y0057380D01*
X0171164Y0057289D01*
X0170987Y0057203D01*
X0170809Y0057121D01*
X0170628Y0057044D01*
X0170446Y0056971D01*
X0170262Y0056903D01*
X0170076Y0056839D01*
X0169889Y0056779D01*
X0169701Y0056725D01*
X0169511Y0056675D01*
X0169320Y0056629D01*
X0169128Y0056589D01*
X0168935Y0056553D01*
X0168741Y0056522D01*
X0168546Y0056495D01*
X0168351Y0056474D01*
X0168156Y0056457D01*
X0167960Y0056445D01*
X0167763Y0056437D01*
X0167567Y0056435D01*
X0167371Y0056437D01*
X0167174Y0056445D01*
X0166978Y0056457D01*
X0166783Y0056474D01*
X0166588Y0056495D01*
X0166393Y0056522D01*
X0166199Y0056553D01*
X0166006Y0056589D01*
X0165814Y0056629D01*
X0165623Y0056675D01*
X0165433Y0056725D01*
X0165245Y0056779D01*
X0165058Y0056839D01*
X0164872Y0056903D01*
X0164688Y0056971D01*
X0164506Y0057044D01*
X0164325Y0057121D01*
X0164147Y0057203D01*
X0163970Y0057289D01*
X0163796Y0057380D01*
X0163624Y0057474D01*
X0163454Y0057573D01*
X0163287Y0057676D01*
X0163122Y0057783D01*
X0162961Y0057894D01*
X0162801Y0058009D01*
X0162645Y0058128D01*
X0162492Y0058251D01*
X0162342Y0058377D01*
X0162195Y0058507D01*
X0162051Y0058641D01*
X0161910Y0058778D01*
X0161773Y0058919D01*
X0161639Y0059063D01*
X0161509Y0059210D01*
X0161383Y0059360D01*
X0161260Y0059513D01*
X0161141Y0059669D01*
X0161026Y0059829D01*
X0160915Y0059990D01*
X0160808Y0060155D01*
X0160705Y0060322D01*
X0160606Y0060492D01*
X0160512Y0060664D01*
X0160421Y0060838D01*
X0160335Y0061015D01*
X0160253Y0061193D01*
X0160176Y0061374D01*
X0160103Y0061556D01*
X0160035Y0061740D01*
X0159971Y0061926D01*
X0159911Y0062113D01*
X0159857Y0062301D01*
X0159807Y0062491D01*
X0159761Y0062682D01*
X0159721Y0062874D01*
X0159685Y0063067D01*
X0159654Y0063261D01*
X0159627Y0063456D01*
X0159606Y0063651D01*
X0159589Y0063846D01*
X0159577Y0064042D01*
X0159569Y0064239D01*
X0159567Y0064435D01*
X0148817Y0074435D02*
X0148817Y0083185D01*
X0148817Y0083435D02*
X0186317Y0083435D01*
X0186317Y0083185D02*
X0186317Y0074435D01*
X0186317Y0054435D02*
X0186317Y0039935D01*
X0148817Y0039935D01*
X0092016Y0036128D02*
X0092016Y0006128D01*
X0062016Y0006128D01*
X0062016Y0036128D01*
X0072016Y0036128D01*
X0082016Y0041128D01*
X0082016Y0036128D02*
X0092016Y0036128D01*
X0086516Y0026128D02*
X0086518Y0026172D01*
X0086524Y0026216D01*
X0086534Y0026259D01*
X0086547Y0026301D01*
X0086564Y0026342D01*
X0086585Y0026381D01*
X0086609Y0026418D01*
X0086636Y0026453D01*
X0086666Y0026485D01*
X0086699Y0026515D01*
X0086735Y0026541D01*
X0086772Y0026565D01*
X0086812Y0026584D01*
X0086853Y0026601D01*
X0086896Y0026613D01*
X0086939Y0026622D01*
X0086983Y0026627D01*
X0087027Y0026628D01*
X0087071Y0026625D01*
X0087115Y0026618D01*
X0087158Y0026607D01*
X0087200Y0026593D01*
X0087240Y0026575D01*
X0087279Y0026553D01*
X0087315Y0026529D01*
X0087349Y0026501D01*
X0087381Y0026470D01*
X0087410Y0026436D01*
X0087436Y0026400D01*
X0087458Y0026362D01*
X0087477Y0026322D01*
X0087492Y0026280D01*
X0087504Y0026238D01*
X0087512Y0026194D01*
X0087516Y0026150D01*
X0087516Y0026106D01*
X0087512Y0026062D01*
X0087504Y0026018D01*
X0087492Y0025976D01*
X0087477Y0025934D01*
X0087458Y0025894D01*
X0087436Y0025856D01*
X0087410Y0025820D01*
X0087381Y0025786D01*
X0087349Y0025755D01*
X0087315Y0025727D01*
X0087279Y0025703D01*
X0087240Y0025681D01*
X0087200Y0025663D01*
X0087158Y0025649D01*
X0087115Y0025638D01*
X0087071Y0025631D01*
X0087027Y0025628D01*
X0086983Y0025629D01*
X0086939Y0025634D01*
X0086896Y0025643D01*
X0086853Y0025655D01*
X0086812Y0025672D01*
X0086772Y0025691D01*
X0086735Y0025715D01*
X0086699Y0025741D01*
X0086666Y0025771D01*
X0086636Y0025803D01*
X0086609Y0025838D01*
X0086585Y0025875D01*
X0086564Y0025914D01*
X0086547Y0025955D01*
X0086534Y0025997D01*
X0086524Y0026040D01*
X0086518Y0026084D01*
X0086516Y0026128D01*
X0087016Y0026128D02*
X0087016Y0016128D01*
X0086516Y0016128D02*
X0086518Y0016172D01*
X0086524Y0016216D01*
X0086534Y0016259D01*
X0086547Y0016301D01*
X0086564Y0016342D01*
X0086585Y0016381D01*
X0086609Y0016418D01*
X0086636Y0016453D01*
X0086666Y0016485D01*
X0086699Y0016515D01*
X0086735Y0016541D01*
X0086772Y0016565D01*
X0086812Y0016584D01*
X0086853Y0016601D01*
X0086896Y0016613D01*
X0086939Y0016622D01*
X0086983Y0016627D01*
X0087027Y0016628D01*
X0087071Y0016625D01*
X0087115Y0016618D01*
X0087158Y0016607D01*
X0087200Y0016593D01*
X0087240Y0016575D01*
X0087279Y0016553D01*
X0087315Y0016529D01*
X0087349Y0016501D01*
X0087381Y0016470D01*
X0087410Y0016436D01*
X0087436Y0016400D01*
X0087458Y0016362D01*
X0087477Y0016322D01*
X0087492Y0016280D01*
X0087504Y0016238D01*
X0087512Y0016194D01*
X0087516Y0016150D01*
X0087516Y0016106D01*
X0087512Y0016062D01*
X0087504Y0016018D01*
X0087492Y0015976D01*
X0087477Y0015934D01*
X0087458Y0015894D01*
X0087436Y0015856D01*
X0087410Y0015820D01*
X0087381Y0015786D01*
X0087349Y0015755D01*
X0087315Y0015727D01*
X0087279Y0015703D01*
X0087240Y0015681D01*
X0087200Y0015663D01*
X0087158Y0015649D01*
X0087115Y0015638D01*
X0087071Y0015631D01*
X0087027Y0015628D01*
X0086983Y0015629D01*
X0086939Y0015634D01*
X0086896Y0015643D01*
X0086853Y0015655D01*
X0086812Y0015672D01*
X0086772Y0015691D01*
X0086735Y0015715D01*
X0086699Y0015741D01*
X0086666Y0015771D01*
X0086636Y0015803D01*
X0086609Y0015838D01*
X0086585Y0015875D01*
X0086564Y0015914D01*
X0086547Y0015955D01*
X0086534Y0015997D01*
X0086524Y0016040D01*
X0086518Y0016084D01*
X0086516Y0016128D01*
X0066516Y0016128D02*
X0066518Y0016172D01*
X0066524Y0016216D01*
X0066534Y0016259D01*
X0066547Y0016301D01*
X0066564Y0016342D01*
X0066585Y0016381D01*
X0066609Y0016418D01*
X0066636Y0016453D01*
X0066666Y0016485D01*
X0066699Y0016515D01*
X0066735Y0016541D01*
X0066772Y0016565D01*
X0066812Y0016584D01*
X0066853Y0016601D01*
X0066896Y0016613D01*
X0066939Y0016622D01*
X0066983Y0016627D01*
X0067027Y0016628D01*
X0067071Y0016625D01*
X0067115Y0016618D01*
X0067158Y0016607D01*
X0067200Y0016593D01*
X0067240Y0016575D01*
X0067279Y0016553D01*
X0067315Y0016529D01*
X0067349Y0016501D01*
X0067381Y0016470D01*
X0067410Y0016436D01*
X0067436Y0016400D01*
X0067458Y0016362D01*
X0067477Y0016322D01*
X0067492Y0016280D01*
X0067504Y0016238D01*
X0067512Y0016194D01*
X0067516Y0016150D01*
X0067516Y0016106D01*
X0067512Y0016062D01*
X0067504Y0016018D01*
X0067492Y0015976D01*
X0067477Y0015934D01*
X0067458Y0015894D01*
X0067436Y0015856D01*
X0067410Y0015820D01*
X0067381Y0015786D01*
X0067349Y0015755D01*
X0067315Y0015727D01*
X0067279Y0015703D01*
X0067240Y0015681D01*
X0067200Y0015663D01*
X0067158Y0015649D01*
X0067115Y0015638D01*
X0067071Y0015631D01*
X0067027Y0015628D01*
X0066983Y0015629D01*
X0066939Y0015634D01*
X0066896Y0015643D01*
X0066853Y0015655D01*
X0066812Y0015672D01*
X0066772Y0015691D01*
X0066735Y0015715D01*
X0066699Y0015741D01*
X0066666Y0015771D01*
X0066636Y0015803D01*
X0066609Y0015838D01*
X0066585Y0015875D01*
X0066564Y0015914D01*
X0066547Y0015955D01*
X0066534Y0015997D01*
X0066524Y0016040D01*
X0066518Y0016084D01*
X0066516Y0016128D01*
X0067016Y0016128D02*
X0067016Y0026128D01*
X0066516Y0026128D02*
X0066518Y0026172D01*
X0066524Y0026216D01*
X0066534Y0026259D01*
X0066547Y0026301D01*
X0066564Y0026342D01*
X0066585Y0026381D01*
X0066609Y0026418D01*
X0066636Y0026453D01*
X0066666Y0026485D01*
X0066699Y0026515D01*
X0066735Y0026541D01*
X0066772Y0026565D01*
X0066812Y0026584D01*
X0066853Y0026601D01*
X0066896Y0026613D01*
X0066939Y0026622D01*
X0066983Y0026627D01*
X0067027Y0026628D01*
X0067071Y0026625D01*
X0067115Y0026618D01*
X0067158Y0026607D01*
X0067200Y0026593D01*
X0067240Y0026575D01*
X0067279Y0026553D01*
X0067315Y0026529D01*
X0067349Y0026501D01*
X0067381Y0026470D01*
X0067410Y0026436D01*
X0067436Y0026400D01*
X0067458Y0026362D01*
X0067477Y0026322D01*
X0067492Y0026280D01*
X0067504Y0026238D01*
X0067512Y0026194D01*
X0067516Y0026150D01*
X0067516Y0026106D01*
X0067512Y0026062D01*
X0067504Y0026018D01*
X0067492Y0025976D01*
X0067477Y0025934D01*
X0067458Y0025894D01*
X0067436Y0025856D01*
X0067410Y0025820D01*
X0067381Y0025786D01*
X0067349Y0025755D01*
X0067315Y0025727D01*
X0067279Y0025703D01*
X0067240Y0025681D01*
X0067200Y0025663D01*
X0067158Y0025649D01*
X0067115Y0025638D01*
X0067071Y0025631D01*
X0067027Y0025628D01*
X0066983Y0025629D01*
X0066939Y0025634D01*
X0066896Y0025643D01*
X0066853Y0025655D01*
X0066812Y0025672D01*
X0066772Y0025691D01*
X0066735Y0025715D01*
X0066699Y0025741D01*
X0066666Y0025771D01*
X0066636Y0025803D01*
X0066609Y0025838D01*
X0066585Y0025875D01*
X0066564Y0025914D01*
X0066547Y0025955D01*
X0066534Y0025997D01*
X0066524Y0026040D01*
X0066518Y0026084D01*
X0066516Y0026128D01*
X0060333Y0039935D02*
X0060333Y0054435D01*
X0033583Y0064435D02*
X0033585Y0064631D01*
X0033593Y0064828D01*
X0033605Y0065024D01*
X0033622Y0065219D01*
X0033643Y0065414D01*
X0033670Y0065609D01*
X0033701Y0065803D01*
X0033737Y0065996D01*
X0033777Y0066188D01*
X0033823Y0066379D01*
X0033873Y0066569D01*
X0033927Y0066757D01*
X0033987Y0066944D01*
X0034051Y0067130D01*
X0034119Y0067314D01*
X0034192Y0067496D01*
X0034269Y0067677D01*
X0034351Y0067855D01*
X0034437Y0068032D01*
X0034528Y0068206D01*
X0034622Y0068378D01*
X0034721Y0068548D01*
X0034824Y0068715D01*
X0034931Y0068880D01*
X0035042Y0069041D01*
X0035157Y0069201D01*
X0035276Y0069357D01*
X0035399Y0069510D01*
X0035525Y0069660D01*
X0035655Y0069807D01*
X0035789Y0069951D01*
X0035926Y0070092D01*
X0036067Y0070229D01*
X0036211Y0070363D01*
X0036358Y0070493D01*
X0036508Y0070619D01*
X0036661Y0070742D01*
X0036817Y0070861D01*
X0036977Y0070976D01*
X0037138Y0071087D01*
X0037303Y0071194D01*
X0037470Y0071297D01*
X0037640Y0071396D01*
X0037812Y0071490D01*
X0037986Y0071581D01*
X0038163Y0071667D01*
X0038341Y0071749D01*
X0038522Y0071826D01*
X0038704Y0071899D01*
X0038888Y0071967D01*
X0039074Y0072031D01*
X0039261Y0072091D01*
X0039449Y0072145D01*
X0039639Y0072195D01*
X0039830Y0072241D01*
X0040022Y0072281D01*
X0040215Y0072317D01*
X0040409Y0072348D01*
X0040604Y0072375D01*
X0040799Y0072396D01*
X0040994Y0072413D01*
X0041190Y0072425D01*
X0041387Y0072433D01*
X0041583Y0072435D01*
X0041779Y0072433D01*
X0041976Y0072425D01*
X0042172Y0072413D01*
X0042367Y0072396D01*
X0042562Y0072375D01*
X0042757Y0072348D01*
X0042951Y0072317D01*
X0043144Y0072281D01*
X0043336Y0072241D01*
X0043527Y0072195D01*
X0043717Y0072145D01*
X0043905Y0072091D01*
X0044092Y0072031D01*
X0044278Y0071967D01*
X0044462Y0071899D01*
X0044644Y0071826D01*
X0044825Y0071749D01*
X0045003Y0071667D01*
X0045180Y0071581D01*
X0045354Y0071490D01*
X0045526Y0071396D01*
X0045696Y0071297D01*
X0045863Y0071194D01*
X0046028Y0071087D01*
X0046189Y0070976D01*
X0046349Y0070861D01*
X0046505Y0070742D01*
X0046658Y0070619D01*
X0046808Y0070493D01*
X0046955Y0070363D01*
X0047099Y0070229D01*
X0047240Y0070092D01*
X0047377Y0069951D01*
X0047511Y0069807D01*
X0047641Y0069660D01*
X0047767Y0069510D01*
X0047890Y0069357D01*
X0048009Y0069201D01*
X0048124Y0069041D01*
X0048235Y0068880D01*
X0048342Y0068715D01*
X0048445Y0068548D01*
X0048544Y0068378D01*
X0048638Y0068206D01*
X0048729Y0068032D01*
X0048815Y0067855D01*
X0048897Y0067677D01*
X0048974Y0067496D01*
X0049047Y0067314D01*
X0049115Y0067130D01*
X0049179Y0066944D01*
X0049239Y0066757D01*
X0049293Y0066569D01*
X0049343Y0066379D01*
X0049389Y0066188D01*
X0049429Y0065996D01*
X0049465Y0065803D01*
X0049496Y0065609D01*
X0049523Y0065414D01*
X0049544Y0065219D01*
X0049561Y0065024D01*
X0049573Y0064828D01*
X0049581Y0064631D01*
X0049583Y0064435D01*
X0049581Y0064239D01*
X0049573Y0064042D01*
X0049561Y0063846D01*
X0049544Y0063651D01*
X0049523Y0063456D01*
X0049496Y0063261D01*
X0049465Y0063067D01*
X0049429Y0062874D01*
X0049389Y0062682D01*
X0049343Y0062491D01*
X0049293Y0062301D01*
X0049239Y0062113D01*
X0049179Y0061926D01*
X0049115Y0061740D01*
X0049047Y0061556D01*
X0048974Y0061374D01*
X0048897Y0061193D01*
X0048815Y0061015D01*
X0048729Y0060838D01*
X0048638Y0060664D01*
X0048544Y0060492D01*
X0048445Y0060322D01*
X0048342Y0060155D01*
X0048235Y0059990D01*
X0048124Y0059829D01*
X0048009Y0059669D01*
X0047890Y0059513D01*
X0047767Y0059360D01*
X0047641Y0059210D01*
X0047511Y0059063D01*
X0047377Y0058919D01*
X0047240Y0058778D01*
X0047099Y0058641D01*
X0046955Y0058507D01*
X0046808Y0058377D01*
X0046658Y0058251D01*
X0046505Y0058128D01*
X0046349Y0058009D01*
X0046189Y0057894D01*
X0046028Y0057783D01*
X0045863Y0057676D01*
X0045696Y0057573D01*
X0045526Y0057474D01*
X0045354Y0057380D01*
X0045180Y0057289D01*
X0045003Y0057203D01*
X0044825Y0057121D01*
X0044644Y0057044D01*
X0044462Y0056971D01*
X0044278Y0056903D01*
X0044092Y0056839D01*
X0043905Y0056779D01*
X0043717Y0056725D01*
X0043527Y0056675D01*
X0043336Y0056629D01*
X0043144Y0056589D01*
X0042951Y0056553D01*
X0042757Y0056522D01*
X0042562Y0056495D01*
X0042367Y0056474D01*
X0042172Y0056457D01*
X0041976Y0056445D01*
X0041779Y0056437D01*
X0041583Y0056435D01*
X0041387Y0056437D01*
X0041190Y0056445D01*
X0040994Y0056457D01*
X0040799Y0056474D01*
X0040604Y0056495D01*
X0040409Y0056522D01*
X0040215Y0056553D01*
X0040022Y0056589D01*
X0039830Y0056629D01*
X0039639Y0056675D01*
X0039449Y0056725D01*
X0039261Y0056779D01*
X0039074Y0056839D01*
X0038888Y0056903D01*
X0038704Y0056971D01*
X0038522Y0057044D01*
X0038341Y0057121D01*
X0038163Y0057203D01*
X0037986Y0057289D01*
X0037812Y0057380D01*
X0037640Y0057474D01*
X0037470Y0057573D01*
X0037303Y0057676D01*
X0037138Y0057783D01*
X0036977Y0057894D01*
X0036817Y0058009D01*
X0036661Y0058128D01*
X0036508Y0058251D01*
X0036358Y0058377D01*
X0036211Y0058507D01*
X0036067Y0058641D01*
X0035926Y0058778D01*
X0035789Y0058919D01*
X0035655Y0059063D01*
X0035525Y0059210D01*
X0035399Y0059360D01*
X0035276Y0059513D01*
X0035157Y0059669D01*
X0035042Y0059829D01*
X0034931Y0059990D01*
X0034824Y0060155D01*
X0034721Y0060322D01*
X0034622Y0060492D01*
X0034528Y0060664D01*
X0034437Y0060838D01*
X0034351Y0061015D01*
X0034269Y0061193D01*
X0034192Y0061374D01*
X0034119Y0061556D01*
X0034051Y0061740D01*
X0033987Y0061926D01*
X0033927Y0062113D01*
X0033873Y0062301D01*
X0033823Y0062491D01*
X0033777Y0062682D01*
X0033737Y0062874D01*
X0033701Y0063067D01*
X0033670Y0063261D01*
X0033643Y0063456D01*
X0033622Y0063651D01*
X0033605Y0063846D01*
X0033593Y0064042D01*
X0033585Y0064239D01*
X0033583Y0064435D01*
X0022833Y0074435D02*
X0022833Y0083185D01*
X0022833Y0083435D02*
X0060333Y0083435D01*
X0060333Y0083185D02*
X0060333Y0074435D01*
X0022833Y0054435D02*
X0022833Y0039935D01*
X0060333Y0039935D01*
D13*
X0071668Y0036376D02*
X0071670Y0036425D01*
X0071676Y0036473D01*
X0071686Y0036521D01*
X0071700Y0036568D01*
X0071717Y0036614D01*
X0071738Y0036658D01*
X0071763Y0036700D01*
X0071791Y0036740D01*
X0071823Y0036778D01*
X0071857Y0036813D01*
X0071894Y0036845D01*
X0071933Y0036874D01*
X0071975Y0036900D01*
X0072019Y0036922D01*
X0072064Y0036940D01*
X0072111Y0036955D01*
X0072158Y0036966D01*
X0072207Y0036973D01*
X0072256Y0036976D01*
X0072305Y0036975D01*
X0072353Y0036970D01*
X0072402Y0036961D01*
X0072449Y0036948D01*
X0072495Y0036931D01*
X0072539Y0036911D01*
X0072582Y0036887D01*
X0072623Y0036860D01*
X0072661Y0036829D01*
X0072697Y0036796D01*
X0072729Y0036760D01*
X0072759Y0036721D01*
X0072786Y0036680D01*
X0072809Y0036636D01*
X0072828Y0036591D01*
X0072844Y0036545D01*
X0072856Y0036498D01*
X0072864Y0036449D01*
X0072868Y0036400D01*
X0072868Y0036352D01*
X0072864Y0036303D01*
X0072856Y0036254D01*
X0072844Y0036207D01*
X0072828Y0036161D01*
X0072809Y0036116D01*
X0072786Y0036072D01*
X0072759Y0036031D01*
X0072729Y0035992D01*
X0072697Y0035956D01*
X0072661Y0035923D01*
X0072623Y0035892D01*
X0072582Y0035865D01*
X0072539Y0035841D01*
X0072495Y0035821D01*
X0072449Y0035804D01*
X0072402Y0035791D01*
X0072353Y0035782D01*
X0072305Y0035777D01*
X0072256Y0035776D01*
X0072207Y0035779D01*
X0072158Y0035786D01*
X0072111Y0035797D01*
X0072064Y0035812D01*
X0072019Y0035830D01*
X0071975Y0035852D01*
X0071933Y0035878D01*
X0071894Y0035907D01*
X0071857Y0035939D01*
X0071823Y0035974D01*
X0071791Y0036012D01*
X0071763Y0036052D01*
X0071738Y0036094D01*
X0071717Y0036138D01*
X0071700Y0036184D01*
X0071686Y0036231D01*
X0071676Y0036279D01*
X0071670Y0036327D01*
X0071668Y0036376D01*
X0081668Y0036376D02*
X0081670Y0036425D01*
X0081676Y0036473D01*
X0081686Y0036521D01*
X0081700Y0036568D01*
X0081717Y0036614D01*
X0081738Y0036658D01*
X0081763Y0036700D01*
X0081791Y0036740D01*
X0081823Y0036778D01*
X0081857Y0036813D01*
X0081894Y0036845D01*
X0081933Y0036874D01*
X0081975Y0036900D01*
X0082019Y0036922D01*
X0082064Y0036940D01*
X0082111Y0036955D01*
X0082158Y0036966D01*
X0082207Y0036973D01*
X0082256Y0036976D01*
X0082305Y0036975D01*
X0082353Y0036970D01*
X0082402Y0036961D01*
X0082449Y0036948D01*
X0082495Y0036931D01*
X0082539Y0036911D01*
X0082582Y0036887D01*
X0082623Y0036860D01*
X0082661Y0036829D01*
X0082697Y0036796D01*
X0082729Y0036760D01*
X0082759Y0036721D01*
X0082786Y0036680D01*
X0082809Y0036636D01*
X0082828Y0036591D01*
X0082844Y0036545D01*
X0082856Y0036498D01*
X0082864Y0036449D01*
X0082868Y0036400D01*
X0082868Y0036352D01*
X0082864Y0036303D01*
X0082856Y0036254D01*
X0082844Y0036207D01*
X0082828Y0036161D01*
X0082809Y0036116D01*
X0082786Y0036072D01*
X0082759Y0036031D01*
X0082729Y0035992D01*
X0082697Y0035956D01*
X0082661Y0035923D01*
X0082623Y0035892D01*
X0082582Y0035865D01*
X0082539Y0035841D01*
X0082495Y0035821D01*
X0082449Y0035804D01*
X0082402Y0035791D01*
X0082353Y0035782D01*
X0082305Y0035777D01*
X0082256Y0035776D01*
X0082207Y0035779D01*
X0082158Y0035786D01*
X0082111Y0035797D01*
X0082064Y0035812D01*
X0082019Y0035830D01*
X0081975Y0035852D01*
X0081933Y0035878D01*
X0081894Y0035907D01*
X0081857Y0035939D01*
X0081823Y0035974D01*
X0081791Y0036012D01*
X0081763Y0036052D01*
X0081738Y0036094D01*
X0081717Y0036138D01*
X0081700Y0036184D01*
X0081686Y0036231D01*
X0081676Y0036279D01*
X0081670Y0036327D01*
X0081668Y0036376D01*
X0126786Y0036376D02*
X0126788Y0036425D01*
X0126794Y0036473D01*
X0126804Y0036521D01*
X0126818Y0036568D01*
X0126835Y0036614D01*
X0126856Y0036658D01*
X0126881Y0036700D01*
X0126909Y0036740D01*
X0126941Y0036778D01*
X0126975Y0036813D01*
X0127012Y0036845D01*
X0127051Y0036874D01*
X0127093Y0036900D01*
X0127137Y0036922D01*
X0127182Y0036940D01*
X0127229Y0036955D01*
X0127276Y0036966D01*
X0127325Y0036973D01*
X0127374Y0036976D01*
X0127423Y0036975D01*
X0127471Y0036970D01*
X0127520Y0036961D01*
X0127567Y0036948D01*
X0127613Y0036931D01*
X0127657Y0036911D01*
X0127700Y0036887D01*
X0127741Y0036860D01*
X0127779Y0036829D01*
X0127815Y0036796D01*
X0127847Y0036760D01*
X0127877Y0036721D01*
X0127904Y0036680D01*
X0127927Y0036636D01*
X0127946Y0036591D01*
X0127962Y0036545D01*
X0127974Y0036498D01*
X0127982Y0036449D01*
X0127986Y0036400D01*
X0127986Y0036352D01*
X0127982Y0036303D01*
X0127974Y0036254D01*
X0127962Y0036207D01*
X0127946Y0036161D01*
X0127927Y0036116D01*
X0127904Y0036072D01*
X0127877Y0036031D01*
X0127847Y0035992D01*
X0127815Y0035956D01*
X0127779Y0035923D01*
X0127741Y0035892D01*
X0127700Y0035865D01*
X0127657Y0035841D01*
X0127613Y0035821D01*
X0127567Y0035804D01*
X0127520Y0035791D01*
X0127471Y0035782D01*
X0127423Y0035777D01*
X0127374Y0035776D01*
X0127325Y0035779D01*
X0127276Y0035786D01*
X0127229Y0035797D01*
X0127182Y0035812D01*
X0127137Y0035830D01*
X0127093Y0035852D01*
X0127051Y0035878D01*
X0127012Y0035907D01*
X0126975Y0035939D01*
X0126941Y0035974D01*
X0126909Y0036012D01*
X0126881Y0036052D01*
X0126856Y0036094D01*
X0126835Y0036138D01*
X0126818Y0036184D01*
X0126804Y0036231D01*
X0126794Y0036279D01*
X0126788Y0036327D01*
X0126786Y0036376D01*
X0136786Y0036376D02*
X0136788Y0036425D01*
X0136794Y0036473D01*
X0136804Y0036521D01*
X0136818Y0036568D01*
X0136835Y0036614D01*
X0136856Y0036658D01*
X0136881Y0036700D01*
X0136909Y0036740D01*
X0136941Y0036778D01*
X0136975Y0036813D01*
X0137012Y0036845D01*
X0137051Y0036874D01*
X0137093Y0036900D01*
X0137137Y0036922D01*
X0137182Y0036940D01*
X0137229Y0036955D01*
X0137276Y0036966D01*
X0137325Y0036973D01*
X0137374Y0036976D01*
X0137423Y0036975D01*
X0137471Y0036970D01*
X0137520Y0036961D01*
X0137567Y0036948D01*
X0137613Y0036931D01*
X0137657Y0036911D01*
X0137700Y0036887D01*
X0137741Y0036860D01*
X0137779Y0036829D01*
X0137815Y0036796D01*
X0137847Y0036760D01*
X0137877Y0036721D01*
X0137904Y0036680D01*
X0137927Y0036636D01*
X0137946Y0036591D01*
X0137962Y0036545D01*
X0137974Y0036498D01*
X0137982Y0036449D01*
X0137986Y0036400D01*
X0137986Y0036352D01*
X0137982Y0036303D01*
X0137974Y0036254D01*
X0137962Y0036207D01*
X0137946Y0036161D01*
X0137927Y0036116D01*
X0137904Y0036072D01*
X0137877Y0036031D01*
X0137847Y0035992D01*
X0137815Y0035956D01*
X0137779Y0035923D01*
X0137741Y0035892D01*
X0137700Y0035865D01*
X0137657Y0035841D01*
X0137613Y0035821D01*
X0137567Y0035804D01*
X0137520Y0035791D01*
X0137471Y0035782D01*
X0137423Y0035777D01*
X0137374Y0035776D01*
X0137325Y0035779D01*
X0137276Y0035786D01*
X0137229Y0035797D01*
X0137182Y0035812D01*
X0137137Y0035830D01*
X0137093Y0035852D01*
X0137051Y0035878D01*
X0137012Y0035907D01*
X0136975Y0035939D01*
X0136941Y0035974D01*
X0136909Y0036012D01*
X0136881Y0036052D01*
X0136856Y0036094D01*
X0136835Y0036138D01*
X0136818Y0036184D01*
X0136804Y0036231D01*
X0136794Y0036279D01*
X0136788Y0036327D01*
X0136786Y0036376D01*
D14*
X0055383Y0032428D02*
X0054816Y0032995D01*
X0055383Y0032428D02*
X0056517Y0032428D01*
X0057084Y0032995D01*
X0057084Y0033562D01*
X0056517Y0034129D01*
X0055383Y0034129D01*
X0054816Y0034696D01*
X0054816Y0035263D01*
X0055383Y0035830D01*
X0056517Y0035830D01*
X0057084Y0035263D01*
X0058499Y0034696D02*
X0059633Y0035830D01*
X0059633Y0032428D01*
X0058499Y0032428D02*
X0060767Y0032428D01*
X0104575Y0068466D02*
X0104729Y0068464D01*
X0104883Y0068458D01*
X0105037Y0068448D01*
X0105191Y0068434D01*
X0105344Y0068417D01*
X0105496Y0068395D01*
X0105648Y0068369D01*
X0105800Y0068340D01*
X0105950Y0068306D01*
X0106100Y0068269D01*
X0106248Y0068228D01*
X0106396Y0068183D01*
X0106542Y0068134D01*
X0106687Y0068082D01*
X0106830Y0068026D01*
X0106973Y0067966D01*
X0107113Y0067903D01*
X0107252Y0067836D01*
X0107389Y0067765D01*
X0107524Y0067691D01*
X0107657Y0067614D01*
X0107789Y0067533D01*
X0107918Y0067449D01*
X0108045Y0067361D01*
X0108169Y0067270D01*
X0108291Y0067177D01*
X0108411Y0067079D01*
X0108528Y0066979D01*
X0108643Y0066876D01*
X0108755Y0066770D01*
X0108864Y0066662D01*
X0108970Y0066550D01*
X0109074Y0066436D01*
X0109174Y0066319D01*
X0109272Y0066200D01*
X0109366Y0066078D01*
X0109457Y0065953D01*
X0104575Y0056466D02*
X0104423Y0056468D01*
X0104272Y0056474D01*
X0104121Y0056483D01*
X0103969Y0056497D01*
X0103819Y0056514D01*
X0103669Y0056535D01*
X0103519Y0056560D01*
X0103370Y0056588D01*
X0103222Y0056621D01*
X0103075Y0056657D01*
X0102928Y0056696D01*
X0102783Y0056740D01*
X0102639Y0056787D01*
X0102496Y0056838D01*
X0102355Y0056892D01*
X0102214Y0056950D01*
X0102076Y0057011D01*
X0101939Y0057076D01*
X0101803Y0057145D01*
X0101670Y0057216D01*
X0101538Y0057291D01*
X0101408Y0057370D01*
X0101281Y0057451D01*
X0101155Y0057536D01*
X0101031Y0057624D01*
X0100910Y0057715D01*
X0100791Y0057809D01*
X0100675Y0057907D01*
X0100561Y0058007D01*
X0100449Y0058109D01*
X0100341Y0058215D01*
X0100235Y0058323D01*
X0100131Y0058434D01*
X0100031Y0058548D01*
X0099933Y0058664D01*
X0099839Y0058783D01*
X0104575Y0056466D02*
X0104727Y0056468D01*
X0104878Y0056474D01*
X0105029Y0056483D01*
X0105181Y0056497D01*
X0105331Y0056514D01*
X0105481Y0056535D01*
X0105631Y0056560D01*
X0105780Y0056588D01*
X0105928Y0056621D01*
X0106075Y0056657D01*
X0106222Y0056696D01*
X0106367Y0056740D01*
X0106511Y0056787D01*
X0106654Y0056838D01*
X0106795Y0056892D01*
X0106936Y0056950D01*
X0107074Y0057011D01*
X0107211Y0057076D01*
X0107347Y0057145D01*
X0107480Y0057216D01*
X0107612Y0057291D01*
X0107742Y0057370D01*
X0107869Y0057451D01*
X0107995Y0057536D01*
X0108119Y0057624D01*
X0108240Y0057715D01*
X0108359Y0057809D01*
X0108475Y0057907D01*
X0108589Y0058007D01*
X0108701Y0058109D01*
X0108809Y0058215D01*
X0108915Y0058323D01*
X0109019Y0058434D01*
X0109119Y0058548D01*
X0109217Y0058664D01*
X0109311Y0058783D01*
X0104575Y0068466D02*
X0104425Y0068464D01*
X0104274Y0068458D01*
X0104124Y0068449D01*
X0103975Y0068436D01*
X0103825Y0068419D01*
X0103676Y0068398D01*
X0103528Y0068374D01*
X0103380Y0068346D01*
X0103233Y0068314D01*
X0103087Y0068279D01*
X0102942Y0068239D01*
X0102798Y0068197D01*
X0102655Y0068150D01*
X0102513Y0068100D01*
X0102372Y0068047D01*
X0102233Y0067990D01*
X0102095Y0067930D01*
X0101959Y0067866D01*
X0101825Y0067799D01*
X0101692Y0067728D01*
X0101561Y0067654D01*
X0101432Y0067577D01*
X0101305Y0067496D01*
X0101180Y0067413D01*
X0101057Y0067326D01*
X0100936Y0067237D01*
X0100818Y0067144D01*
X0100702Y0067048D01*
X0100588Y0066950D01*
X0100477Y0066849D01*
X0100368Y0066744D01*
X0100263Y0066638D01*
X0100159Y0066528D01*
X0100059Y0066416D01*
X0099961Y0066302D01*
X0099867Y0066185D01*
X0099775Y0066066D01*
X0100143Y0071766D02*
X0097875Y0071766D01*
X0097875Y0075169D01*
X0101558Y0075169D02*
X0101558Y0071766D01*
X0103827Y0071766D01*
X0105241Y0071766D02*
X0106943Y0071766D01*
X0107510Y0072333D01*
X0107510Y0074602D01*
X0106943Y0075169D01*
X0105241Y0075169D01*
X0105241Y0071766D01*
X0102692Y0073468D02*
X0101558Y0073468D01*
X0101558Y0075169D02*
X0103827Y0075169D01*
X0108924Y0074035D02*
X0110059Y0075169D01*
X0110059Y0071766D01*
X0111193Y0071766D02*
X0108924Y0071766D01*
X0148434Y0034263D02*
X0148434Y0033696D01*
X0149001Y0033129D01*
X0150135Y0033129D01*
X0150702Y0032562D01*
X0150702Y0031995D01*
X0150135Y0031428D01*
X0149001Y0031428D01*
X0148434Y0031995D01*
X0148434Y0034263D02*
X0149001Y0034830D01*
X0150135Y0034830D01*
X0150702Y0034263D01*
X0152117Y0034263D02*
X0152684Y0034830D01*
X0153818Y0034830D01*
X0154386Y0034263D01*
X0154386Y0033696D01*
X0152117Y0031428D01*
X0154386Y0031428D01*
D15*
X0104575Y0070466D02*
X0104383Y0070464D01*
X0104191Y0070457D01*
X0103999Y0070445D01*
X0103807Y0070429D01*
X0103616Y0070408D01*
X0103426Y0070383D01*
X0103236Y0070353D01*
X0103047Y0070319D01*
X0102859Y0070280D01*
X0102672Y0070236D01*
X0102486Y0070188D01*
X0102301Y0070136D01*
X0102117Y0070079D01*
X0101935Y0070018D01*
X0101755Y0069952D01*
X0101576Y0069882D01*
X0101398Y0069808D01*
X0101223Y0069730D01*
X0101049Y0069647D01*
X0100878Y0069560D01*
X0100709Y0069470D01*
X0100542Y0069375D01*
X0100377Y0069276D01*
X0100214Y0069173D01*
X0100055Y0069066D01*
X0099897Y0068956D01*
X0099743Y0068842D01*
X0099591Y0068724D01*
X0099442Y0068602D01*
X0099296Y0068477D01*
X0099154Y0068349D01*
X0099014Y0068217D01*
X0098877Y0068082D01*
X0098744Y0067943D01*
X0098614Y0067802D01*
X0098488Y0067657D01*
X0098365Y0067509D01*
X0098246Y0067359D01*
X0098130Y0067205D01*
X0098018Y0067049D01*
X0097910Y0066890D01*
X0097805Y0066729D01*
X0097705Y0066565D01*
X0097609Y0066399D01*
X0097516Y0066231D01*
X0097629Y0058497D02*
X0097728Y0058328D01*
X0097832Y0058162D01*
X0097939Y0057998D01*
X0098050Y0057837D01*
X0098165Y0057679D01*
X0098284Y0057524D01*
X0098407Y0057371D01*
X0098533Y0057222D01*
X0098663Y0057076D01*
X0098797Y0056933D01*
X0098934Y0056793D01*
X0099074Y0056657D01*
X0099218Y0056524D01*
X0099365Y0056395D01*
X0099515Y0056269D01*
X0099668Y0056148D01*
X0099824Y0056029D01*
X0099983Y0055915D01*
X0100144Y0055805D01*
X0100309Y0055699D01*
X0100475Y0055596D01*
X0100645Y0055498D01*
X0100816Y0055404D01*
X0100990Y0055314D01*
X0101166Y0055229D01*
X0101344Y0055147D01*
X0101524Y0055071D01*
X0101706Y0054998D01*
X0101889Y0054930D01*
X0102074Y0054867D01*
X0102261Y0054808D01*
X0102449Y0054754D01*
X0102638Y0054704D01*
X0102828Y0054659D01*
X0103020Y0054619D01*
X0103212Y0054583D01*
X0103405Y0054552D01*
X0103599Y0054526D01*
X0103794Y0054504D01*
X0103989Y0054488D01*
X0104184Y0054476D01*
X0104380Y0054468D01*
X0104575Y0054466D01*
X0104768Y0054468D01*
X0104961Y0054475D01*
X0105153Y0054487D01*
X0105346Y0054503D01*
X0105538Y0054524D01*
X0105729Y0054550D01*
X0105919Y0054580D01*
X0106109Y0054615D01*
X0106298Y0054654D01*
X0106486Y0054698D01*
X0106673Y0054746D01*
X0106859Y0054799D01*
X0107043Y0054856D01*
X0107226Y0054918D01*
X0107407Y0054984D01*
X0107587Y0055055D01*
X0107765Y0055129D01*
X0107941Y0055208D01*
X0108115Y0055292D01*
X0108287Y0055379D01*
X0108457Y0055471D01*
X0108624Y0055567D01*
X0108790Y0055666D01*
X0108953Y0055770D01*
X0109113Y0055877D01*
X0109270Y0055989D01*
X0109425Y0056104D01*
X0109577Y0056223D01*
X0109726Y0056345D01*
X0109873Y0056471D01*
X0110016Y0056601D01*
X0110156Y0056734D01*
X0110292Y0056870D01*
X0110426Y0057010D01*
X0110555Y0057152D01*
X0110682Y0057298D01*
X0110721Y0067588D02*
X0110594Y0067736D01*
X0110464Y0067881D01*
X0110331Y0068022D01*
X0110194Y0068161D01*
X0110054Y0068296D01*
X0109910Y0068427D01*
X0109763Y0068555D01*
X0109614Y0068680D01*
X0109461Y0068801D01*
X0109306Y0068918D01*
X0109147Y0069031D01*
X0108986Y0069140D01*
X0108822Y0069245D01*
X0108656Y0069347D01*
X0108487Y0069444D01*
X0108317Y0069537D01*
X0108143Y0069626D01*
X0107968Y0069711D01*
X0107791Y0069791D01*
X0107612Y0069867D01*
X0107431Y0069939D01*
X0107248Y0070006D01*
X0107064Y0070069D01*
X0106878Y0070127D01*
X0106691Y0070181D01*
X0106503Y0070230D01*
X0106313Y0070275D01*
X0106123Y0070315D01*
X0105931Y0070350D01*
X0105739Y0070381D01*
X0105546Y0070407D01*
X0105352Y0070428D01*
X0105158Y0070445D01*
X0104964Y0070457D01*
X0104770Y0070464D01*
X0104575Y0070466D01*
D16*
X0096598Y0063585D02*
X0095363Y0064819D01*
X0096598Y0063585D02*
X0096598Y0062350D01*
X0095363Y0061116D01*
X0092915Y0061733D02*
X0092915Y0064202D01*
X0091680Y0062968D02*
X0094149Y0062968D01*
X0090459Y0064819D02*
X0089225Y0063585D01*
X0089225Y0062350D01*
X0090459Y0061116D01*
X0112725Y0061850D02*
X0112725Y0063085D01*
X0113959Y0064319D01*
X0115180Y0062468D02*
X0117649Y0062468D01*
X0118863Y0064319D02*
X0120098Y0063085D01*
X0120098Y0061850D01*
X0118863Y0060616D01*
X0113959Y0060616D02*
X0112725Y0061850D01*
M02*
