%
M48
M72
T01C0.0138
T02C0.0315
T03C0.0320
T04C0.0354
T05C0.0400
T06C0.0413
T07C0.0709
T08C0.0866
T09C0.1575
%
T01
X7898Y8510
X13706Y11168
X17938Y5656
T02
X14213Y3113
X13213Y3113
X12213Y3113
X12213Y1113
X13213Y1113
X14213Y1113
X8702Y1113
X7702Y1113
X6702Y1113
X6702Y3113
X7702Y3113
X8702Y3113
T03
X10457Y4006
X8489Y4550
X9957Y6247
X10957Y6247
X12426Y7550
X8489Y7550
X12426Y4550
X10457Y1006
T04
X5158Y3491
X4158Y3491
X3158Y3491
X15757Y3491
X16757Y3491
X17757Y3491
T05
X19906Y3656
X19906Y4656
X19906Y5656
X19906Y6806
X19906Y7806
X19906Y8806
X17064Y10617
X16064Y10617
X15064Y10617
X15048Y11573
X16048Y11573
X17048Y11573
X12457Y10694
X11457Y10694
X10457Y10694
X9457Y10694
X8457Y10694
X8457Y9594
X9457Y9594
X10457Y9594
X11457Y9594
X12457Y9594
X5883Y10617
X4883Y10617
X3883Y10617
X3891Y11573
X4891Y11573
X5891Y11573
X1009Y8837
X1009Y7837
X1009Y6837
X1009Y5688
X1009Y4688
X1009Y3688
T06
X7009Y2546
X7009Y1684
X12520Y1684
X12520Y2546
T07
X14867Y6443
X18646Y6443
X6048Y6443
X2269Y6443
T08
X8698Y2132
X14209Y2132
T09
X1796Y1719
X1796Y10774
X19119Y10774
X19119Y1719
M30
