  0
SECTION
  2
HEADER
  9
$ACADVER
  1
AC1009
  9
$DWGCODEPAGE
  3
mac-roman
  9
$INSBASE
 10
0.0
 20
0.0
 30
0.0
  9
$EXTMIN
 10
-1043.298393835579
 20
-453.5000000000002
 30
0.0
  9
$EXTMAX
 10
-744.2983938355792
 20
-63.99999999999994
 30
0.0
  9
$LIMMIN
 10
0.0
 20
0.0
  9
$LIMMAX
 10
12.0
 20
9.0
  9
$ORTHOMODE
 70
     0
  9
$REGENMODE
 70
     1
  9
$FILLMODE
 70
     1
  9
$QTEXTMODE
 70
     0
  9
$MIRRTEXT
 70
     1
  9
$DRAGMODE
 70
     2
  9
$LTSCALE
 40
1.0
  9
$OSMODE
 70
    37
  9
$ATTMODE
 70
     1
  9
$TEXTSIZE
 40
0.2
  9
$TRACEWID
 40
0.05
  9
$TEXTSTYLE
  7
STANDARD
  9
$CLAYER
  8
0
  9
$CELTYPE
  6
BYLAYER
  9
$CECOLOR
 62
   256
  9
$DIMSCALE
 40
1.0
  9
$DIMASZ
 40
0.18
  9
$DIMEXO
 40
0.0625
  9
$DIMDLI
 40
0.38
  9
$DIMRND
 40
0.0
  9
$DIMDLE
 40
0.0
  9
$DIMEXE
 40
0.18
  9
$DIMTP
 40
0.0
  9
$DIMTM
 40
0.0
  9
$DIMTXT
 40
0.18
  9
$DIMCEN
 40
0.09
  9
$DIMTSZ
 40
0.0
  9
$DIMTOL
 70
     0
  9
$DIMLIM
 70
     0
  9
$DIMTIH
 70
     1
  9
$DIMTOH
 70
     1
  9
$DIMSE1
 70
     0
  9
$DIMSE2
 70
     0
  9
$DIMTAD
 70
     0
  9
$DIMZIN
 70
     0
  9
$DIMBLK
  1

  9
$DIMASO
 70
     1
  9
$DIMSHO
 70
     1
  9
$DIMPOST
  1

  9
$DIMAPOST
  1

  9
$DIMALT
 70
     0
  9
$DIMALTD
 70
     2
  9
$DIMALTF
 40
25.4
  9
$DIMLFAC
 40
1.0
  9
$DIMTOFL
 70
     0
  9
$DIMTVP
 40
0.0
  9
$DIMTIX
 70
     0
  9
$DIMSOXD
 70
     0
  9
$DIMSAH
 70
     0
  9
$DIMBLK1
  1

  9
$DIMBLK2
  1

  9
$DIMSTYLE
  2
STANDARD
  9
$DIMCLRD
 70
     0
  9
$DIMCLRE
 70
     0
  9
$DIMCLRT
 70
     0
  9
$DIMTFAC
 40
1.0
  9
$DIMGAP
 40
0.09
  9
$LUNITS
 70
     2
  9
$LUPREC
 70
     3
  9
$SKETCHINC
 40
0.1
  9
$FILLETRAD
 40
0.5
  9
$AUNITS
 70
     0
  9
$AUPREC
 70
     0
  9
$MENU
  1
.
  9
$ELEVATION
 40
0.0
  9
$PELEVATION
 40
0.0
  9
$THICKNESS
 40
0.0
  9
$LIMCHECK
 70
     0
  9
$CHAMFERA
 40
0.0
  9
$CHAMFERB
 40
0.0
  9
$SKPOLY
 70
     0
  9
$TDCREATE
 40
2457967.721539352
  9
$TDUPDATE
 40
2457967.7215625
  9
$TDINDWG
 40
0.0000000116
  9
$TDUSRTIMER
 40
0.0000000116
  9
$USRTIMER
 70
     1
  9
$ANGBASE
 50
0.0
  9
$ANGDIR
 70
     0
  9
$PDMODE
 70
     0
  9
$PDSIZE
 40
0.0
  9
$PLINEWID
 40
0.0
  9
$COORDS
 70
     1
  9
$SPLFRAME
 70
     0
  9
$SPLINETYPE
 70
     6
  9
$SPLINESEGS
 70
     8
  9
$ATTDIA
 70
     0
  9
$ATTREQ
 70
     1
  9
$HANDLING
 70
     1
  9
$HANDSEED
  5
E8
  9
$SURFTAB1
 70
     6
  9
$SURFTAB2
 70
     6
  9
$SURFTYPE
 70
     6
  9
$SURFU
 70
     6
  9
$SURFV
 70
     6
  9
$UCSNAME
  2

  9
$UCSORG
 10
0.0
 20
0.0
 30
0.0
  9
$UCSXDIR
 10
1.0
 20
0.0
 30
0.0
  9
$UCSYDIR
 10
0.0
 20
1.0
 30
0.0
  9
$PUCSNAME
  2

  9
$PUCSORG
 10
0.0
 20
0.0
 30
0.0
  9
$PUCSXDIR
 10
1.0
 20
0.0
 30
0.0
  9
$PUCSYDIR
 10
0.0
 20
1.0
 30
0.0
  9
$USERI1
 70
     0
  9
$USERI2
 70
     0
  9
$USERI3
 70
     0
  9
$USERI4
 70
     0
  9
$USERI5
 70
     0
  9
$USERR1
 40
0.0
  9
$USERR2
 40
0.0
  9
$USERR3
 40
0.0
  9
$USERR4
 40
0.0
  9
$USERR5
 40
0.0
  9
$WORLDVIEW
 70
     1
  9
$SHADEDGE
 70
     3
  9
$SHADEDIF
 70
    70
  9
$TILEMODE
 70
     1
  9
$MAXACTVP
 70
    64
  9
$PLIMCHECK
 70
     0
  9
$PEXTMIN
 10
1.000000000000000E+20
 20
1.000000000000000E+20
 30
1.000000000000000E+20
  9
$PEXTMAX
 10
-1.000000000000000E+20
 20
-1.000000000000000E+20
 30
-1.000000000000000E+20
  9
$PLIMMIN
 10
0.0
 20
0.0
  9
$PLIMMAX
 10
12.0
 20
9.0
  9
$UNITMODE
 70
     0
  9
$VISRETAIN
 70
     1
  9
$PLINEGEN
 70
     0
  9
$PSLTSCALE
 70
     1
  0
ENDSEC
  0
SECTION
  2
TABLES
  0
TABLE
  2
VPORT
 70
     1
  0
VPORT
  2
*ACTIVE
 70
     0
 10
0.0
 20
0.0
 11
1.0
 21
1.0
 12
-893.7983938355792
 22
-258.7500000000001
 13
0.0
 23
0.0
 14
0.5
 24
0.5
 15
0.5
 25
0.5
 16
0.0
 26
0.0
 36
1.0
 17
0.0
 27
0.0
 37
0.0
 40
397.2900000000002
 41
0.7676508344030805
 42
50.0
 43
0.0
 44
0.0
 50
0.0
 51
0.0
 71
     0
 72
   100
 73
     1
 74
     3
 75
     0
 76
     0
 77
     0
 78
     0
  0
ENDTAB
  0
TABLE
  2
LTYPE
 70
     1
  0
LTYPE
  2
CONTINUOUS
 70
     0
  3
Solid line
 72
    65
 73
     0
 40
0.0
  0
ENDTAB
  0
TABLE
  2
LAYER
 70
     2
  0
LAYER
  2
0
 70
     0
 62
     7
  6
CONTINUOUS
  0
LAYER
  2
FAB_2$BOTTOM
 70
     0
 62
    30
  6
CONTINUOUS
  0
ENDTAB
  0
TABLE
  2
STYLE
 70
     1
  0
STYLE
  2
STANDARD
 70
     0
 40
0.0
 41
1.0
 50
0.0
 71
     0
 42
0.2
  3
txt
  4

  0
ENDTAB
  0
TABLE
  2
VIEW
 70
     0
  0
ENDTAB
  0
TABLE
  2
UCS
 70
     0
  0
ENDTAB
  0
TABLE
  2
APPID
 70
     1
  0
APPID
  2
ACAD
 70
     0
  0
ENDTAB
  0
TABLE
  2
DIMSTYLE
 70
     1
  0
DIMSTYLE
  2
STANDARD
 70
     0
  3

  4

  5

  6

  7

 40
1.0
 41
0.18
 42
0.0625
 43
0.38
 44
0.18
 45
0.0
 46
0.0
 47
0.0
 48
0.0
140
0.18
141
0.09
142
0.0
143
25.4
144
1.0
145
0.0
146
1.0
147
0.09
 71
     0
 72
     0
 73
     1
 74
     1
 75
     0
 76
     0
 77
     0
 78
     0
170
     0
171
     2
172
     0
173
     0
174
     0
175
     0
176
     0
177
     0
178
     0
  0
ENDTAB
  0
ENDSEC
  0
SECTION
  2
BLOCKS
  0
BLOCK
  8
0
  2
$MODEL_SPACE
 70
     0
 10
0.0
 20
0.0
 30
0.0
  3
$MODEL_SPACE
  1

  0
ENDBLK
  5
21
  8
0
  0
BLOCK
 67
     1
  8
0
  2
$PAPER_SPACE
 70
     0
 10
0.0
 20
0.0
 30
0.0
  3
$PAPER_SPACE
  1

  0
ENDBLK
  5
1D
 67
     1
  8
0
  0
ENDSEC
  0
SECTION
  2
ENTITIES
  0
CIRCLE
  5
6F
  8
FAB_2$BOTTOM
 10
-813.0983938356414
 20
-71.49999999996908
 30
0.0
 40
1.777999999999967
  0
CIRCLE
  5
70
  8
FAB_2$BOTTOM
 10
-974.4983938355947
 20
-71.4999999999693
 30
0.0
 40
1.777999999999967
  0
CIRCLE
  5
71
  8
FAB_2$BOTTOM
 10
-1035.798393835545
 20
-150.9000000000608
 30
0.0
 40
1.777999999999967
  0
CIRCLE
  5
72
  8
FAB_2$BOTTOM
 10
-1035.798393835545
 20
-366.5999999999083
 30
0.0
 40
1.777999999999967
  0
CIRCLE
  5
73
  8
FAB_2$BOTTOM
 10
-751.7983938356131
 20
-366.5999999999083
 30
0.0
 40
1.777999999999967
  0
CIRCLE
  5
74
  8
FAB_2$BOTTOM
 10
-751.7983938356131
 20
-150.9000000000608
 30
0.0
 40
1.777999999999967
  0
CIRCLE
  5
75
  8
FAB_2$BOTTOM
 10
-974.4983938355947
 20
-445.9999999999998
 30
0.0
 40
1.777999999999967
  0
CIRCLE
  5
76
  8
FAB_2$BOTTOM
 10
-813.0983938356414
 20
-446.0
 30
0.0
 40
1.777999999999967
  0
LINE
  5
77
  8
FAB_2$BOTTOM
 10
-1043.298393835579
 20
-362.6019930760266
 30
0.0
 11
-1043.298393835579
 21
-438.5000000000002
 31
0.0
  0
ARC
  5
78
  8
FAB_2$BOTTOM
 10
-1028.298393835579
 20
-438.5000000000002
 30
0.0
 40
15.0
 50
179.9999999999998
 51
270.0
  0
LINE
  5
79
  8
FAB_2$BOTTOM
 10
-1028.298393835579
 20
-453.5000000000002
 30
0.0
 11
-759.2983938355794
 21
-453.5
 31
0.0
  0
ARC
  5
7A
  8
FAB_2$BOTTOM
 10
-759.2983938355792
 20
-438.5
 30
0.0
 40
15.0
 50
269.9999999999991
 51
359.9999999999998
  0
LINE
  5
7B
  8
FAB_2$BOTTOM
 10
-744.2983938355792
 20
-438.5000000000001
 30
0.0
 11
-744.2983938355792
 21
-362.6019930760264
 31
0.0
  0
LINE
  5
7C
  8
FAB_2$BOTTOM
 10
-744.2983938355792
 20
-362.6019930760264
 30
0.0
 11
-744.2983938355792
 21
-79.0
 31
0.0
  0
LINE
  5
7D
  8
FAB_2$BOTTOM
 10
-744.2983938355792
 20
-79.0
 30
0.0
 11
-744.3074062173972
 21
-78.48019157205651
 31
0.0
  0
LINE
  5
7E
  8
FAB_2$BOTTOM
 10
-744.3074062173972
 20
-78.48019157205651
 30
0.0
 11
-744.3344259006707
 21
-77.9610076340315
 31
0.0
  0
LINE
  5
7F
  8
FAB_2$BOTTOM
 10
-744.3344259006707
 20
-77.9610076340315
 30
0.0
 11
-744.3794204303433
 21
-77.4430718107032
 31
0.0
  0
LINE
  5
80
  8
FAB_2$BOTTOM
 10
-744.3794204303433
 20
-77.4430718107032
 30
0.0
 11
-744.4423357606299
 21
-76.9270062276597
 31
0.0
  0
LINE
  5
81
  8
FAB_2$BOTTOM
 10
-744.4423357606299
 20
-76.9270062276597
 30
0.0
 11
-744.5230963199346
 21
-76.41343076402457
 31
0.0
  0
LINE
  5
82
  8
FAB_2$BOTTOM
 10
-744.5230963199346
 20
-76.41343076402457
 30
0.0
 11
-744.6216051016239
 21
-75.90296230788115
 31
0.0
  0
LINE
  5
83
  8
FAB_2$BOTTOM
 10
-744.6216051016239
 20
-75.90296230788115
 30
0.0
 11
-744.7377437805483
 21
-75.39621401528925
 31
0.0
  0
LINE
  5
84
  8
FAB_2$BOTTOM
 10
-744.7377437805483
 20
-75.39621401528925
 30
0.0
 11
-744.8713728551699
 21
-74.89379457378342
 31
0.0
  0
LINE
  5
85
  8
FAB_2$BOTTOM
 10
-744.8713728551699
 20
-74.89379457378342
 30
0.0
 11
-745.0223318151263
 21
-74.39630747124096
 31
0.0
  0
LINE
  5
86
  8
FAB_2$BOTTOM
 10
-745.0223318151263
 20
-74.39630747124096
 30
0.0
 11
-745.1904393340302
 21
-73.90435027099375
 31
0.0
  0
LINE
  5
87
  8
FAB_2$BOTTOM
 10
-745.1904393340302
 20
-73.90435027099375
 30
0.0
 11
-745.3754934872718
 21
-73.41851389405676
 31
0.0
  0
LINE
  5
88
  8
FAB_2$BOTTOM
 10
-745.3754934872718
 20
-73.41851389405676
 30
0.0
 11
-745.5772719945633
 21
-72.93938190933585
 31
0.0
  0
LINE
  5
89
  8
FAB_2$BOTTOM
 10
-745.5772719945633
 20
-72.93938190933585
 30
0.0
 11
-745.7955324869333
 21
-72.4675298326662
 31
0.0
  0
LINE
  5
8A
  8
FAB_2$BOTTOM
 10
-745.7955324869333
 20
-72.4675298326662
 30
0.0
 11
-746.0300127978531
 21
-72.00352443552279
 31
0.0
  0
LINE
  5
8B
  8
FAB_2$BOTTOM
 10
-746.0300127978531
 20
-72.00352443552279
 30
0.0
 11
-746.2804312781398
 21
-71.54792306423626
 31
0.0
  0
LINE
  5
8C
  8
FAB_2$BOTTOM
 10
-746.2804312781398
 20
-71.54792306423626
 30
0.0
 11
-746.5464871342638
 21
-71.1012729705283
 31
0.0
  0
LINE
  5
8D
  8
FAB_2$BOTTOM
 10
-746.5464871342638
 20
-71.1012729705283
 30
0.0
 11
-746.8278607896513
 21
-70.66411065417304
 31
0.0
  0
LINE
  5
8E
  8
FAB_2$BOTTOM
 10
-746.8278607896513
 20
-70.66411065417304
 30
0.0
 11
-747.1242142685475
 21
-70.23696121857307
 31
0.0
  0
LINE
  5
8F
  8
FAB_2$BOTTOM
 10
-747.1242142685475
 20
-70.23696121857307
 30
0.0
 11
-747.4351916019807
 21
-69.82033774002456
 31
0.0
  0
LINE
  5
90
  8
FAB_2$BOTTOM
 10
-747.4351916019807
 20
-69.82033774002456
 30
0.0
 11
-747.7604192553399
 21
-69.41474065142822
 31
0.0
  0
LINE
  5
91
  8
FAB_2$BOTTOM
 10
-747.7604192553399
 20
-69.41474065142822
 30
0.0
 11
-748.0995065770499
 21
-69.02065714118868
 31
0.0
  0
LINE
  5
92
  8
FAB_2$BOTTOM
 10
-748.0995065770499
 20
-69.02065714118868
 30
0.0
 11
-748.4520462678084
 21
-68.63856056802027
 31
0.0
  0
LINE
  5
93
  8
FAB_2$BOTTOM
 10
-748.4520462678084
 20
-68.63856056802027
 30
0.0
 11
-748.8176148698193
 21
-68.26890989236678
 31
0.0
  0
LINE
  5
94
  8
FAB_2$BOTTOM
 10
-748.8176148698193
 20
-68.26890989236678
 30
0.0
 11
-749.1957732754337
 21
-67.91214912511457
 31
0.0
  0
LINE
  5
95
  8
FAB_2$BOTTOM
 10
-749.1957732754337
 20
-67.91214912511457
 30
0.0
 11
-749.586067254591
 21
-67.56870679426292
 31
0.0
  0
LINE
  5
96
  8
FAB_2$BOTTOM
 10
-749.586067254591
 20
-67.56870679426292
 30
0.0
 11
-749.9880280004228
 21
-67.238995430192
 31
0.0
  0
LINE
  5
97
  8
FAB_2$BOTTOM
 10
-749.9880280004228
 20
-67.238995430192
 30
0.0
 11
-750.401172692367
 21
-66.92341107014613
 31
0.0
  0
LINE
  5
98
  8
FAB_2$BOTTOM
 10
-750.401172692367
 20
-66.92341107014613
 30
0.0
 11
-750.8250050761138
 21
-66.62233278252873
 31
0.0
  0
LINE
  5
99
  8
FAB_2$BOTTOM
 10
-750.8250050761138
 20
-66.62233278252873
 30
0.0
 11
-751.2590160596889
 21
-66.33612221157892
 31
0.0
  0
LINE
  5
9A
  8
FAB_2$BOTTOM
 10
-751.2590160596889
 20
-66.33612221157892
 30
0.0
 11
-751.7026843249554
 21
-66.0651231429778
 31
0.0
  0
LINE
  5
9B
  8
FAB_2$BOTTOM
 10
-751.7026843249554
 20
-66.0651231429778
 30
0.0
 11
-752.1554769538026
 21
-65.80966109090554
 31
0.0
  0
LINE
  5
9C
  8
FAB_2$BOTTOM
 10
-752.1554769538026
 20
-65.80966109090554
 30
0.0
 11
-752.6168500682674
 21
-65.57004290704573
 31
0.0
  0
LINE
  5
9D
  8
FAB_2$BOTTOM
 10
-752.6168500682674
 20
-65.57004290704573
 30
0.0
 11
-753.0862494838211
 21
-65.34655641200638
 31
0.0
  0
LINE
  5
9E
  8
FAB_2$BOTTOM
 10
-753.0862494838211
 20
-65.34655641200638
 30
0.0
 11
-753.5631113750354
 21
-65.13947004960019
 31
0.0
  0
LINE
  5
9F
  8
FAB_2$BOTTOM
 10
-753.5631113750354
 20
-65.13947004960019
 30
0.0
 11
-754.0468629528291
 21
-64.94903256439967
 31
0.0
  0
LINE
  5
A0
  8
FAB_2$BOTTOM
 10
-754.0468629528291
 20
-64.94903256439967
 30
0.0
 11
-754.5369231524804
 21
-64.77547270295449
 31
0.0
  0
LINE
  5
A1
  8
FAB_2$BOTTOM
 10
-754.5369231524804
 20
-64.77547270295449
 30
0.0
 11
-755.0327033315823
 21
-64.61899893902904
 31
0.0
  0
LINE
  5
A2
  8
FAB_2$BOTTOM
 10
-755.0327033315823
 20
-64.61899893902904
 30
0.0
 11
-755.5336079770968
 21
-64.47979922319192
 31
0.0
  0
LINE
  5
A3
  8
FAB_2$BOTTOM
 10
-755.5336079770968
 20
-64.47979922319192
 30
0.0
 11
-756.0390354206645
 21
-64.35804075705595
 31
0.0
  0
LINE
  5
A4
  8
FAB_2$BOTTOM
 10
-756.0390354206645
 20
-64.35804075705595
 30
0.0
 11
-756.5483785613061
 21
-64.25386979244229
 31
0.0
  0
LINE
  5
A5
  8
FAB_2$BOTTOM
 10
-756.5483785613061
 20
-64.25386979244229
 30
0.0
 11
-757.06102559465
 21
-64.16741145570764
 31
0.0
  0
LINE
  5
A6
  8
FAB_2$BOTTOM
 10
-757.06102559465
 20
-64.16741145570764
 30
0.0
 11
-757.5763607478093
 21
-64.09876959744737
 31
0.0
  0
LINE
  5
A7
  8
FAB_2$BOTTOM
 10
-757.5763607478093
 20
-64.09876959744737
 30
0.0
 11
-758.0937650190261
 21
-64.04802666775377
 31
0.0
  0
LINE
  5
A8
  8
FAB_2$BOTTOM
 10
-758.0937650190261
 20
-64.04802666775377
 30
0.0
 11
-758.6126169211932
 21
-64.0152436171801
 31
0.0
  0
LINE
  5
A9
  8
FAB_2$BOTTOM
 10
-758.6126169211932
 20
-64.0152436171801
 30
0.0
 11
-759.1322932283618
 21
-64.00045982352894
 31
0.0
  0
LINE
  5
AA
  8
FAB_2$BOTTOM
 10
-759.132293228362
 20
-64.0004598235289
 30
0.0
 11
-861.7983938355768
 21
-63.99999999999994
 31
0.0
  0
LINE
  5
AB
  8
FAB_2$BOTTOM
 10
-861.7983938355768
 20
-63.99999999999994
 30
0.0
 11
-861.7983938355768
 21
-73.99999999999994
 31
0.0
  0
LINE
  5
AC
  8
FAB_2$BOTTOM
 10
-861.7983938355768
 20
-73.99999999999994
 30
0.0
 11
-865.7983938355768
 21
-73.99999999999994
 31
0.0
  0
LINE
  5
AD
  8
FAB_2$BOTTOM
 10
-865.7983938355768
 20
-73.99999999999994
 30
0.0
 11
-865.7983938355768
 21
-63.99999999999994
 31
0.0
  0
LINE
  5
AE
  8
FAB_2$BOTTOM
 10
-865.7983938355768
 20
-63.99999999999994
 30
0.0
 11
-893.7983938355768
 21
-63.99999999999994
 31
0.0
  0
LINE
  5
AF
  8
FAB_2$BOTTOM
 10
-893.7983938355768
 20
-63.99999999999994
 30
0.0
 11
-893.7983938355768
 21
-73.99999999999994
 31
0.0
  0
LINE
  5
B0
  8
FAB_2$BOTTOM
 10
-893.7983938355768
 20
-73.99999999999994
 30
0.0
 11
-897.7983938355768
 21
-73.99999999999994
 31
0.0
  0
LINE
  5
B1
  8
FAB_2$BOTTOM
 10
-897.7983938355768
 20
-73.99999999999994
 30
0.0
 11
-897.7983938355768
 21
-63.99999999999994
 31
0.0
  0
LINE
  5
B2
  8
FAB_2$BOTTOM
 10
-897.7983938355768
 20
-63.99999999999994
 30
0.0
 11
-1028.464494755434
 21
-64.00045982700817
 31
0.0
  0
LINE
  5
B3
  8
FAB_2$BOTTOM
 10
-1028.464494755434
 20
-64.00045982700816
 30
0.0
 11
-1028.984171053722
 21
-64.01524363647158
 31
0.0
  0
LINE
  5
B4
  8
FAB_2$BOTTOM
 10
-1028.984171053722
 20
-64.01524363647158
 30
0.0
 11
-1029.503022946496
 21
-64.0480267020576
 31
0.0
  0
LINE
  5
B5
  8
FAB_2$BOTTOM
 10
-1029.503022946496
 20
-64.0480267020576
 30
0.0
 11
-1030.020427207852
 21
-64.09876964594766
 31
0.0
  0
LINE
  5
B6
  8
FAB_2$BOTTOM
 10
-1030.020427207852
 20
-64.09876964594766
 30
0.0
 11
-1030.535762350728
 21
-64.16741151757472
 31
0.0
  0
LINE
  5
B7
  8
FAB_2$BOTTOM
 10
-1030.535762350728
 20
-64.16741151757472
 30
0.0
 11
-1031.048409373413
 21
-64.25386986683488
 31
0.0
  0
LINE
  5
B8
  8
FAB_2$BOTTOM
 10
-1031.048409373413
 20
-64.25386986683488
 30
0.0
 11
-1031.557752503065
 21
-64.35804084312339
 31
0.0
  0
LINE
  5
B9
  8
FAB_2$BOTTOM
 10
-1031.557752503065
 20
-64.35804084312339
 30
0.0
 11
-1032.063179935358
 21
-64.47979932007607
 31
0.0
  0
LINE
  5
BA
  8
FAB_2$BOTTOM
 10
-1032.063179935358
 20
-64.47979932007607
 30
0.0
 11
-1032.564084569359
 21
-64.61899904586676
 31
0.0
  0
LINE
  5
BB
  8
FAB_2$BOTTOM
 10
-1032.564084569359
 20
-64.61899904586676
 30
0.0
 11
-1033.059864736755
 21
-64.77547281887958
 31
0.0
  0
LINE
  5
BC
  8
FAB_2$BOTTOM
 10
-1033.059864736755
 20
-64.77547281887958
 30
0.0
 11
-1033.549924924554
 21
-64.9490326885451
 31
0.0
  0
LINE
  5
BD
  8
FAB_2$BOTTOM
 10
-1033.549924924554
 20
-64.9490326885451
 30
0.0
 11
-1034.033676490395
 21
-65.13947018110028
 31
0.0
  0
LINE
  5
BE
  8
FAB_2$BOTTOM
 10
-1034.033676490395
 20
-65.13947018110028
 30
0.0
 11
-1034.510538369602
 21
-65.34655654999894
 31
0.0
  0
LINE
  5
BF
  8
FAB_2$BOTTOM
 10
-1034.510538369602
 20
-65.34655654999894
 30
0.0
 11
-1034.979937773138
 21
-65.57004305067397
 31
0.0
  0
LINE
  5
C0
  8
FAB_2$BOTTOM
 10
-1034.979937773138
 20
-65.57004305067397
 30
0.0
 11
-1035.44131087562
 21
-65.80966123932053
 31
0.0
  0
LINE
  5
C1
  8
FAB_2$BOTTOM
 10
-1035.44131087562
 20
-65.80966123932053
 30
0.0
 11
-1035.894103492563
 21
-66.0651232953401
 31
0.0
  0
LINE
  5
C2
  8
FAB_2$BOTTOM
 10
-1035.894103492563
 20
-66.0651232953401
 30
0.0
 11
-1036.337771746048
 21
-66.33612236706092
 31
0.0
  0
LINE
  5
C3
  8
FAB_2$BOTTOM
 10
-1036.337771746048
 20
-66.33612236706092
 30
0.0
 11
-1036.771782718008
 21
-66.62233294031658
 31
0.0
  0
LINE
  5
C4
  8
FAB_2$BOTTOM
 10
-1036.771782718008
 20
-66.62233294031658
 30
0.0
 11
-1037.195615090345
 21
-66.92341122944163
 31
0.0
  0
LINE
  5
C5
  8
FAB_2$BOTTOM
 10
-1037.195615090345
 20
-66.92341122944163
 30
0.0
 11
-1037.608759771129
 21
-67.23899559021447
 31
0.0
  0
LINE
  5
C6
  8
FAB_2$BOTTOM
 10
-1037.608759771129
 20
-67.23899559021447
 30
0.0
 11
-1038.010720506089
 21
-67.56870695425144
 31
0.0
  0
LINE
  5
C7
  8
FAB_2$BOTTOM
 10
-1038.010720506089
 20
-67.56870695425144
 30
0.0
 11
-1038.401014474701
 21
-67.91214928432908
 31
0.0
  0
LINE
  5
C8
  8
FAB_2$BOTTOM
 10
-1038.401014474701
 20
-67.91214928432908
 30
0.0
 11
-1038.779172870135
 21
-68.26891005009053
 31
0.0
  0
LINE
  5
C9
  8
FAB_2$BOTTOM
 10
-1038.779172870135
 20
-68.26891005009053
 30
0.0
 11
-1039.144741462367
 21
-68.63856072356127
 31
0.0
  0
LINE
  5
CA
  8
FAB_2$BOTTOM
 10
-1039.144741462367
 20
-68.63856072356127
 30
0.0
 11
-1039.497281143784
 21
-69.02065729388143
 31
0.0
  0
LINE
  5
CB
  8
FAB_2$BOTTOM
 10
-1039.497281143784
 20
-69.02065729388143
 30
0.0
 11
-1039.836368456624
 21
-69.41474080063543
 31
0.0
  0
LINE
  5
CC
  8
FAB_2$BOTTOM
 10
-1039.836368456624
 20
-69.41474080063543
 30
0.0
 11
-1040.161596101616
 21
-69.82033788513819
 31
0.0
  0
LINE
  5
CD
  8
FAB_2$BOTTOM
 10
-1040.161596101616
 20
-69.82033788513819
 30
0.0
 11
-1040.472573427216
 21
-70.23696135901645
 31
0.0
  0
LINE
  5
CE
  8
FAB_2$BOTTOM
 10
-1040.472573427216
 20
-70.23696135901645
 30
0.0
 11
-1040.768926898844
 21
-70.66411078940182
 31
0.0
  0
LINE
  5
CF
  8
FAB_2$BOTTOM
 10
-1040.768926898844
 20
-70.66411078940182
 30
0.0
 11
-1041.050300547554
 21
-71.10127310003197
 31
0.0
  0
LINE
  5
D0
  8
FAB_2$BOTTOM
 10
-1041.050300547554
 20
-71.10127310003197
 30
0.0
 11
-1041.31635639762
 21
-71.54792318753928
 31
0.0
  0
LINE
  5
D1
  8
FAB_2$BOTTOM
 10
-1041.31635639762
 20
-71.54792318753928
 30
0.0
 11
-1041.566774872489
 21
-72.00352455218605
 31
0.0
  0
LINE
  5
D2
  8
FAB_2$BOTTOM
 10
-1041.566774872489
 20
-72.00352455218605
 30
0.0
 11
-1041.801255178657
 21
-72.46752994228764
 31
0.0
  0
LINE
  5
D3
  8
FAB_2$BOTTOM
 10
-1041.801255178657
 20
-72.46752994228764
 30
0.0
 11
-1042.019515666962
 21
-72.9393820115524
 31
0.0
  0
LINE
  5
D4
  8
FAB_2$BOTTOM
 10
-1042.019515666962
 20
-72.9393820115524
 30
0.0
 11
-1042.221294170892
 21
-73.41851398854384
 31
0.0
  0
LINE
  5
D5
  8
FAB_2$BOTTOM
 10
-1042.221294170892
 20
-73.41851398854384
 30
0.0
 11
-1042.406348321494
 21
-73.90435035746748
 31
0.0
  0
LINE
  5
D6
  8
FAB_2$BOTTOM
 10
-1042.406348321494
 20
-73.90435035746748
 30
0.0
 11
-1042.574455838496
 21
-74.39630754945853
 31
0.0
  0
LINE
  5
D7
  8
FAB_2$BOTTOM
 10
-1042.574455838496
 20
-74.39630754945853
 30
0.0
 11
-1042.7254147973
 21
-74.8937946435433
 31
0.0
  0
LINE
  5
D8
  8
FAB_2$BOTTOM
 10
-1042.7254147973
 20
-74.8937946435433
 30
0.0
 11
-1042.859043871531
 21
-75.39621407643216
 31
0.0
  0
LINE
  5
D9
  8
FAB_2$BOTTOM
 10
-1042.859043871531
 20
-75.39621407643216
 30
0.0
 11
-1042.975182550835
 21
-75.90296236029093
 31
0.0
  0
LINE
  5
DA
  8
FAB_2$BOTTOM
 10
-1042.975182550835
 20
-75.90296236029093
 30
0.0
 11
-1043.07369133368
 21
-76.4134308076277
 31
0.0
  0
LINE
  5
DB
  8
FAB_2$BOTTOM
 10
-1043.07369133368
 20
-76.4134308076277
 30
0.0
 11
-1043.154451894924
 21
-76.92700626242633
 31
0.0
  0
LINE
  5
DC
  8
FAB_2$BOTTOM
 10
-1043.154451894924
 20
-76.92700626242633
 30
0.0
 11
-1043.217367227935
 21
-77.44307183664765
 31
0.0
  0
LINE
  5
DD
  8
FAB_2$BOTTOM
 10
-1043.217367227935
 20
-77.44307183664765
 30
0.0
 11
-1043.262361761117
 21
-77.96100765121146
 31
0.0
  0
LINE
  5
DE
  8
FAB_2$BOTTOM
 10
-1043.262361761117
 20
-77.96100765121146
 30
0.0
 11
-1043.289381448685
 21
-78.48019158057349
 31
0.0
  0
LINE
  5
DF
  8
FAB_2$BOTTOM
 10
-1043.289381448685
 20
-78.48019158057349
 30
0.0
 11
-1043.298393835579
 21
-79.0
 31
0.0
  0
LINE
  5
E0
  8
FAB_2$BOTTOM
 10
-1043.298393835579
 20
-79.0
 30
0.0
 11
-1043.298393835579
 21
-362.6019930760266
 31
0.0
  0
ENDSEC
  0
EOF
