G75*
%MOIN*%
%OFA0B0*%
%FSLAX25Y25*%
%IPPOS*%
%LPD*%
%AMOC8*
5,1,8,0,0,1.08239X$1,22.5*
%
%ADD10R,0.06737X0.06737*%
%ADD11C,0.06737*%
%ADD12C,0.08062*%
%ADD13C,0.08246*%
%ADD14C,0.07800*%
%ADD15C,0.17398*%
%ADD16C,0.15824*%
%ADD17C,0.08280*%
%ADD18R,0.02965X0.05524*%
%ADD19C,0.10800*%
%ADD20C,0.07800*%
%ADD21C,0.08200*%
%ADD22C,0.06000*%
%ADD23OC8,0.06000*%
%ADD24R,0.08200X0.08200*%
%ADD25C,0.07400*%
%ADD26C,0.16548*%
%ADD27C,0.06800*%
%ADD28C,0.03900*%
D10*
X0037595Y0081256D03*
D11*
X0037595Y0021256D03*
X0047595Y0021256D03*
X0057595Y0021256D03*
X0067595Y0021256D03*
X0077595Y0021256D03*
X0087595Y0021256D03*
X0097595Y0021256D03*
X0107595Y0021256D03*
X0117595Y0021256D03*
X0127595Y0021256D03*
X0137595Y0021256D03*
X0147595Y0021256D03*
X0157595Y0021256D03*
X0167595Y0021256D03*
X0177595Y0021256D03*
X0187595Y0021256D03*
X0197595Y0021256D03*
X0207595Y0021256D03*
X0217595Y0021256D03*
X0227595Y0021256D03*
X0237595Y0021256D03*
X0247595Y0021256D03*
X0257595Y0021256D03*
X0267595Y0021256D03*
X0267595Y0041256D03*
X0257595Y0041256D03*
X0247595Y0041256D03*
X0237595Y0041256D03*
X0227595Y0041256D03*
X0217595Y0041256D03*
X0207595Y0041256D03*
X0197595Y0041256D03*
X0187595Y0041256D03*
X0187595Y0051256D03*
X0197595Y0051256D03*
X0207595Y0051256D03*
X0217595Y0051256D03*
X0227595Y0051256D03*
X0237595Y0051256D03*
X0247595Y0051256D03*
X0257595Y0051256D03*
X0267595Y0051256D03*
X0217595Y0061256D03*
X0217595Y0071256D03*
X0217595Y0081256D03*
X0207595Y0081256D03*
X0197595Y0081256D03*
X0187595Y0081256D03*
X0177595Y0081256D03*
X0167595Y0081256D03*
X0157595Y0081256D03*
X0147595Y0081256D03*
X0137595Y0081256D03*
X0127595Y0081256D03*
X0117595Y0081256D03*
X0107595Y0081256D03*
X0097595Y0081256D03*
X0087595Y0081256D03*
X0077595Y0081256D03*
X0067595Y0081256D03*
X0057595Y0081256D03*
X0047595Y0081256D03*
X0062595Y0068756D03*
X0072595Y0068756D03*
X0082595Y0068756D03*
X0092595Y0068756D03*
X0102595Y0068756D03*
X0097595Y0051256D03*
X0107595Y0051256D03*
X0117595Y0051256D03*
X0127595Y0051256D03*
X0127595Y0041256D03*
X0117595Y0041256D03*
X0107595Y0041256D03*
X0097595Y0041256D03*
X0087595Y0031256D03*
X0077595Y0031256D03*
X0067595Y0031256D03*
X0047595Y0031256D03*
X0217595Y0031256D03*
X0227595Y0081256D03*
X0237595Y0081256D03*
X0247595Y0081256D03*
X0257595Y0081256D03*
X0267595Y0081256D03*
D12*
X0305095Y0088756D03*
X0315095Y0088756D03*
X0325095Y0088756D03*
X0335095Y0088756D03*
X0350095Y0088756D03*
X0360095Y0088756D03*
X0370095Y0088756D03*
X0380095Y0088756D03*
X0357595Y0044756D03*
X0347595Y0044756D03*
X0337595Y0044756D03*
X0327595Y0044756D03*
X0481595Y0032256D03*
X0481595Y0023256D03*
X0138595Y0125256D03*
X0118595Y0125256D03*
X0098095Y0125256D03*
X0079095Y0125256D03*
D13*
X0079095Y0095256D03*
X0098095Y0095256D03*
X0118595Y0095256D03*
X0138595Y0095256D03*
X0305095Y0058756D03*
X0315095Y0058756D03*
X0325095Y0058756D03*
X0335095Y0058756D03*
X0350095Y0058756D03*
X0360095Y0058756D03*
X0370095Y0058756D03*
X0380095Y0058756D03*
X0357595Y0014756D03*
X0347595Y0014756D03*
X0337595Y0014756D03*
X0327595Y0014756D03*
X0511595Y0023256D03*
X0511595Y0032256D03*
D14*
X0562595Y0091256D03*
X0562595Y0101256D03*
X0562595Y0111256D03*
X0562595Y0121256D03*
X0562595Y0131256D03*
X0562595Y0141256D03*
X0562595Y0151256D03*
X0562595Y0161256D03*
X0521095Y0191228D03*
X0511095Y0191228D03*
X0501095Y0191228D03*
X0461095Y0191228D03*
X0451095Y0191228D03*
X0441095Y0191228D03*
X0396095Y0191228D03*
X0386095Y0191228D03*
X0376095Y0191228D03*
X0336095Y0191228D03*
X0326095Y0191228D03*
X0316095Y0191228D03*
X0271095Y0191228D03*
X0261095Y0191228D03*
X0251095Y0191228D03*
X0211095Y0191228D03*
X0201095Y0191228D03*
X0191095Y0191228D03*
X0122595Y0196256D03*
X0112595Y0196256D03*
X0102595Y0196256D03*
X0072595Y0226256D03*
X0072595Y0236256D03*
X0072595Y0246256D03*
X0191095Y0251228D03*
X0201095Y0251228D03*
X0211095Y0251228D03*
X0251095Y0251228D03*
X0261095Y0251228D03*
X0271095Y0251228D03*
X0316095Y0251228D03*
X0326095Y0251228D03*
X0336095Y0251228D03*
X0376095Y0251228D03*
X0386095Y0251228D03*
X0396095Y0251228D03*
X0441095Y0251228D03*
X0451095Y0251228D03*
X0461095Y0251228D03*
X0501095Y0251228D03*
X0511095Y0251228D03*
X0521095Y0251228D03*
X0557595Y0246256D03*
X0557595Y0236256D03*
X0557595Y0226256D03*
X0587595Y0196256D03*
X0597595Y0196256D03*
X0607595Y0196256D03*
X0622595Y0161256D03*
X0622595Y0151256D03*
X0622595Y0141256D03*
X0622595Y0131256D03*
X0622595Y0121256D03*
X0622595Y0111256D03*
X0622595Y0101256D03*
X0622595Y0091256D03*
D15*
X0629052Y0031256D03*
D16*
X0653658Y0031256D03*
X0640272Y0012358D03*
D17*
X0642595Y0111256D03*
X0642595Y0121256D03*
X0642595Y0131256D03*
X0642595Y0141256D03*
X0662595Y0141256D03*
X0662595Y0131256D03*
X0662595Y0121256D03*
X0662595Y0111256D03*
D18*
X0546335Y0126137D03*
X0542595Y0126137D03*
X0538855Y0126137D03*
X0538855Y0136374D03*
X0542595Y0136374D03*
X0546335Y0136374D03*
D19*
X0567595Y0210006D03*
X0627595Y0210006D03*
X0627595Y0262506D03*
X0567595Y0262506D03*
X0142595Y0262506D03*
X0082595Y0262506D03*
X0082595Y0210006D03*
X0142595Y0210006D03*
D20*
X0128595Y0266256D02*
X0121595Y0266256D01*
X0103595Y0266256D02*
X0096595Y0266256D01*
X0096595Y0283972D02*
X0103595Y0283972D01*
X0121595Y0283972D02*
X0128595Y0283972D01*
X0581595Y0283972D02*
X0588595Y0283972D01*
X0606595Y0283972D02*
X0613595Y0283972D01*
X0613595Y0266256D02*
X0606595Y0266256D01*
X0588595Y0266256D02*
X0581595Y0266256D01*
D21*
X0672095Y0226256D03*
X0673095Y0216256D03*
X0672095Y0206256D03*
X0672095Y0191256D03*
X0673095Y0181256D03*
X0672095Y0171256D03*
X0658295Y0071256D03*
X0646895Y0071256D03*
X0598295Y0011256D03*
X0586895Y0011256D03*
X0573295Y0011256D03*
X0561895Y0011256D03*
X0532595Y0010756D03*
X0522595Y0011756D03*
X0512595Y0010756D03*
D22*
X0507595Y0043656D02*
X0507595Y0048856D01*
X0517595Y0048856D02*
X0517595Y0043656D01*
X0527595Y0043656D02*
X0527595Y0048856D01*
X0537595Y0048856D02*
X0537595Y0043656D01*
X0547595Y0043656D02*
X0547595Y0048856D01*
X0557595Y0048856D02*
X0557595Y0043656D01*
X0567595Y0043656D02*
X0567595Y0048856D01*
X0577595Y0048856D02*
X0577595Y0043656D01*
X0587595Y0043656D02*
X0587595Y0048856D01*
X0587595Y0073656D02*
X0587595Y0078856D01*
X0577595Y0078856D02*
X0577595Y0073656D01*
X0567595Y0073656D02*
X0567595Y0078856D01*
X0557595Y0078856D02*
X0557595Y0073656D01*
X0547595Y0073656D02*
X0547595Y0078856D01*
X0537595Y0078856D02*
X0537595Y0073656D01*
X0527595Y0073656D02*
X0527595Y0078856D01*
X0517595Y0078856D02*
X0517595Y0073656D01*
X0507595Y0073656D02*
X0507595Y0078856D01*
X0482595Y0078856D02*
X0482595Y0073656D01*
X0472595Y0073656D02*
X0472595Y0078856D01*
X0462595Y0078856D02*
X0462595Y0073656D01*
X0452595Y0073656D02*
X0452595Y0078856D01*
X0442595Y0078856D02*
X0442595Y0073656D01*
X0432595Y0073656D02*
X0432595Y0078856D01*
X0422595Y0078856D02*
X0422595Y0073656D01*
X0412595Y0073656D02*
X0412595Y0078856D01*
X0402595Y0078856D02*
X0402595Y0073656D01*
X0402595Y0048856D02*
X0402595Y0043656D01*
X0412595Y0043656D02*
X0412595Y0048856D01*
X0422595Y0048856D02*
X0422595Y0043656D01*
X0432595Y0043656D02*
X0432595Y0048856D01*
X0442595Y0048856D02*
X0442595Y0043656D01*
X0452595Y0043656D02*
X0452595Y0048856D01*
X0462595Y0048856D02*
X0462595Y0043656D01*
X0472595Y0043656D02*
X0472595Y0048856D01*
X0482595Y0048856D02*
X0482595Y0043656D01*
D23*
X0138595Y0135756D03*
X0138595Y0145756D03*
X0118595Y0145756D03*
X0118595Y0135756D03*
X0098595Y0135756D03*
X0098595Y0145756D03*
X0078595Y0145756D03*
X0078595Y0135756D03*
D24*
X0542595Y0011756D03*
D25*
X0521095Y0107256D03*
X0511095Y0107256D03*
X0501095Y0107256D03*
X0461595Y0106756D03*
X0451595Y0106756D03*
X0441595Y0106756D03*
X0441595Y0126756D03*
X0451595Y0126756D03*
X0461595Y0126756D03*
X0501095Y0127256D03*
X0511095Y0127256D03*
X0521095Y0127256D03*
X0521095Y0147256D03*
X0511095Y0147256D03*
X0501095Y0147256D03*
X0461595Y0146756D03*
X0451595Y0146756D03*
X0441595Y0146756D03*
X0441595Y0166756D03*
X0451595Y0166756D03*
X0461595Y0166756D03*
X0501095Y0167256D03*
X0511095Y0167256D03*
X0521095Y0167256D03*
X0396595Y0167756D03*
X0386595Y0167756D03*
X0376595Y0167756D03*
X0376595Y0147756D03*
X0386595Y0147756D03*
X0396595Y0147756D03*
X0396595Y0127756D03*
X0386595Y0127756D03*
X0376595Y0127756D03*
X0376595Y0107756D03*
X0386595Y0107756D03*
X0396595Y0107756D03*
X0336095Y0107256D03*
X0326095Y0107256D03*
X0316095Y0107256D03*
X0316095Y0127256D03*
X0326095Y0127256D03*
X0336095Y0127256D03*
X0336095Y0147256D03*
X0326095Y0147256D03*
X0316095Y0147256D03*
X0316095Y0167256D03*
X0326095Y0167256D03*
X0336095Y0167256D03*
X0271095Y0167756D03*
X0261095Y0167756D03*
X0251095Y0167756D03*
X0251095Y0147756D03*
X0261095Y0147756D03*
X0271095Y0147756D03*
X0271095Y0127756D03*
X0261095Y0127756D03*
X0251095Y0127756D03*
X0251095Y0107756D03*
X0261095Y0107756D03*
X0271095Y0107756D03*
X0211095Y0107756D03*
X0201095Y0107756D03*
X0191095Y0107756D03*
X0191095Y0127756D03*
X0201095Y0127756D03*
X0211095Y0127756D03*
X0211095Y0147756D03*
X0201095Y0147756D03*
X0191095Y0147756D03*
X0191095Y0167756D03*
X0201095Y0167756D03*
X0211095Y0167756D03*
D26*
X0219993Y0220756D03*
X0242198Y0220756D03*
X0279993Y0220756D03*
X0307198Y0220756D03*
X0344993Y0220756D03*
X0367198Y0220756D03*
X0404993Y0220756D03*
X0432198Y0220756D03*
X0469993Y0220756D03*
X0492198Y0220756D03*
X0529993Y0220756D03*
X0529993Y0280756D03*
X0492198Y0280756D03*
X0469993Y0280756D03*
X0432198Y0280756D03*
X0404993Y0280756D03*
X0367198Y0280756D03*
X0344993Y0280756D03*
X0307198Y0280756D03*
X0279993Y0280756D03*
X0242198Y0280756D03*
X0219993Y0280756D03*
X0182198Y0280756D03*
X0182198Y0220756D03*
D27*
X0191095Y0305756D03*
X0201095Y0305756D03*
X0211095Y0305756D03*
X0251095Y0306256D03*
X0261095Y0306256D03*
X0271095Y0306256D03*
X0316095Y0306256D03*
X0326095Y0306256D03*
X0336095Y0306256D03*
X0376095Y0306256D03*
X0386095Y0306256D03*
X0396095Y0306256D03*
X0441095Y0306256D03*
X0451095Y0306256D03*
X0461095Y0306256D03*
X0501095Y0306256D03*
X0511095Y0306256D03*
X0521095Y0306256D03*
D28*
X0480095Y0268756D03*
X0521345Y0260006D03*
X0550095Y0265006D03*
X0461345Y0211256D03*
X0425095Y0203756D03*
X0421345Y0206256D03*
X0396345Y0203756D03*
X0380095Y0205006D03*
X0428845Y0183756D03*
X0411345Y0176256D03*
X0425095Y0170006D03*
X0405095Y0160006D03*
X0383845Y0141256D03*
X0397595Y0137506D03*
X0415095Y0121256D03*
X0411345Y0111256D03*
X0387595Y0088756D03*
X0375095Y0085006D03*
X0386345Y0072506D03*
X0393845Y0078756D03*
X0423845Y0068756D03*
X0448845Y0040006D03*
X0437595Y0032506D03*
X0417595Y0030006D03*
X0391345Y0025006D03*
X0320095Y0007506D03*
X0315095Y0007506D03*
X0310095Y0018756D03*
X0306345Y0022506D03*
X0302595Y0020006D03*
X0295095Y0022506D03*
X0295095Y0016256D03*
X0291345Y0012506D03*
X0280095Y0033756D03*
X0268845Y0032506D03*
X0306345Y0037506D03*
X0313845Y0050006D03*
X0268845Y0070006D03*
X0272595Y0072506D03*
X0255095Y0072506D03*
X0246345Y0087506D03*
X0236345Y0091256D03*
X0228845Y0103756D03*
X0206345Y0111256D03*
X0192595Y0116256D03*
X0186345Y0120006D03*
X0218845Y0136256D03*
X0222595Y0141256D03*
X0232595Y0145006D03*
X0241345Y0135006D03*
X0276345Y0125006D03*
X0276345Y0111256D03*
X0276345Y0097506D03*
X0268845Y0091256D03*
X0298845Y0097506D03*
X0306345Y0096256D03*
X0342595Y0096256D03*
X0342595Y0100006D03*
X0342595Y0103756D03*
X0328845Y0115006D03*
X0326345Y0121256D03*
X0310095Y0121256D03*
X0356345Y0118756D03*
X0276345Y0163756D03*
X0295095Y0177506D03*
X0295095Y0182506D03*
X0280095Y0188756D03*
X0295095Y0193756D03*
X0283845Y0201256D03*
X0312595Y0200006D03*
X0321345Y0180006D03*
X0302595Y0171256D03*
X0371345Y0176256D03*
X0292595Y0233756D03*
X0338845Y0243756D03*
X0307595Y0261256D03*
X0296345Y0283756D03*
X0402595Y0252506D03*
X0536345Y0143756D03*
X0540095Y0141256D03*
X0541345Y0131256D03*
X0550095Y0121256D03*
X0591345Y0100006D03*
X0555095Y0062506D03*
X0503845Y0062506D03*
X0488845Y0056256D03*
X0487595Y0042506D03*
X0495095Y0025006D03*
X0500095Y0015006D03*
X0532595Y0033756D03*
X0555095Y0020006D03*
X0552595Y0011256D03*
X0503845Y0083756D03*
X0232595Y0065006D03*
X0207595Y0075006D03*
X0192595Y0067506D03*
X0202595Y0063756D03*
X0188845Y0073756D03*
X0176345Y0071256D03*
X0132595Y0077506D03*
X0126345Y0093756D03*
X0072595Y0085006D03*
X0067595Y0103756D03*
X0103845Y0145006D03*
X0062595Y0167506D03*
X0106345Y0175006D03*
X0128845Y0182506D03*
X0150095Y0178756D03*
X0152595Y0195006D03*
X0143845Y0201256D03*
X0167595Y0236256D03*
X0148845Y0257506D03*
X0118845Y0250006D03*
X0115095Y0253756D03*
X0050095Y0203756D03*
X0160095Y0160006D03*
X0172595Y0160006D03*
X0161345Y0036256D03*
M02*
