%
M48
M72
T01C0.01500
T02C0.03150
T03C0.03200
T04C0.03500
T05C0.03543
T06C0.03937
T07C0.04000
T08C0.04331
T09C0.05500
T10C0.11024
T11C0.11200
T12C0.12598
%
T01
X132595Y77506
X126345Y93756
X176345Y71256
X188845Y73756
X192595Y67506
X202595Y63756
X207595Y75006
X232595Y65006
X255095Y72506
X268845Y70006
X272595Y72506
X246345Y87506
X236345Y91256
X228845Y103756
X206345Y111256
X192595Y116256
X186345Y120006
X218845Y136256
X222595Y141256
X232595Y145006
X241345Y135006
X276345Y125006
X276345Y111256
X276345Y97506
X268845Y91256
X298845Y97506
X306345Y96256
X342595Y96256
X342595Y100006
X342595Y103756
X328845Y115006
X326345Y121256
X310095Y121256
X356345Y118756
X397595Y137506
X383845Y141256
X405095Y160006
X425095Y170006
X411345Y176256
X428845Y183756
X425095Y203756
X421345Y206256
X396345Y203756
X380095Y205006
X371345Y176256
X321345Y180006
X302595Y171256
X295095Y177506
X295095Y182506
X280095Y188756
X295095Y193756
X283845Y201256
X312595Y200006
X292595Y233756
X338845Y243756
X307595Y261256
X296345Y283756
X402595Y252506
X480095Y268756
X521345Y260006
X550095Y265006
X461345Y211256
X536345Y143756
X540095Y141256
X541345Y131256
X550095Y121256
X591345Y100006
X555095Y62506
X503845Y62506
X488845Y56256
X487595Y42506
X495095Y25006
X500095Y15006
X532595Y33756
X555095Y20006
X552595Y11256
X448845Y40006
X437595Y32506
X417595Y30006
X391345Y25006
X320095Y7506
X315095Y7506
X310095Y18756
X306345Y22506
X302595Y20006
X295095Y22506
X295095Y16256
X291345Y12506
X280095Y33756
X268845Y32506
X306345Y37506
X313845Y50006
X375095Y85006
X387595Y88756
X393845Y78756
X386345Y72506
X423845Y68756
X503845Y83756
X415095Y121256
X411345Y111256
X276345Y163756
X172595Y160006
X160095Y160006
X150095Y178756
X128845Y182506
X106345Y175006
X62595Y167506
X103845Y145006
X67595Y103756
X72595Y85006
X161345Y36256
X152595Y195006
X143845Y201256
X167595Y236256
X148845Y257506
X118845Y250006
X115095Y253756
X50095Y203756
T02
X191095Y167756
X201095Y167756
X211095Y167756
X211095Y147756
X201095Y147756
X191095Y147756
X191095Y127756
X201095Y127756
X211095Y127756
X211095Y107756
X201095Y107756
X191095Y107756
X251095Y107756
X261095Y107756
X271095Y107756
X271095Y127756
X261095Y127756
X251095Y127756
X251095Y147756
X261095Y147756
X271095Y147756
X271095Y167756
X261095Y167756
X251095Y167756
X316095Y167256
X326095Y167256
X336095Y167256
X336095Y147256
X326095Y147256
X316095Y147256
X316095Y127256
X326095Y127256
X336095Y127256
X336095Y107256
X326095Y107256
X316095Y107256
X376595Y107756
X386595Y107756
X396595Y107756
X396595Y127756
X386595Y127756
X376595Y127756
X376595Y147756
X386595Y147756
X396595Y147756
X396595Y167756
X386595Y167756
X376595Y167756
X441595Y166756
X451595Y166756
X461595Y166756
X501095Y167256
X511095Y167256
X521095Y167256
X521095Y147256
X511095Y147256
X501095Y147256
X501095Y127256
X511095Y127256
X521095Y127256
X521095Y107256
X511095Y107256
X501095Y107256
X461595Y106756
X451595Y106756
X441595Y106756
X441595Y126756
X451595Y126756
X461595Y126756
X461595Y146756
X451595Y146756
X441595Y146756
X562595Y151256
X562595Y141256
X562595Y131256
X562595Y121256
X562595Y111256
X562595Y101256
X562595Y91256
X622595Y91256
X622595Y101256
X622595Y111256
X622595Y121256
X622595Y131256
X622595Y141256
X622595Y151256
X622595Y161256
X562595Y161256
T03
X557595Y76256
X567595Y76256
X577595Y76256
X587595Y76256
X547595Y76256
X537595Y76256
X527595Y76256
X517595Y76256
X507595Y76256
X482595Y76256
X472595Y76256
X462595Y76256
X452595Y76256
X442595Y76256
X432595Y76256
X422595Y76256
X412595Y76256
X402595Y76256
X402595Y46256
X412595Y46256
X422595Y46256
X432595Y46256
X442595Y46256
X452595Y46256
X462595Y46256
X472595Y46256
X482595Y46256
X507595Y46256
X517595Y46256
X527595Y46256
X537595Y46256
X547595Y46256
X557595Y46256
X567595Y46256
X577595Y46256
X587595Y46256
X138595Y135756
X138595Y145756
X118595Y145756
X118595Y135756
X98595Y135756
X98595Y145756
X78595Y145756
X78595Y135756
T04
X102595Y196256
X112595Y196256
X122595Y196256
X72595Y226256
X72595Y236256
X72595Y246256
X557595Y246256
X557595Y236256
X557595Y226256
X587595Y196256
X597595Y196256
X607595Y196256
T05
X521095Y191228
X511095Y191228
X501095Y191228
X461095Y191228
X451095Y191228
X441095Y191228
X396095Y191228
X386095Y191228
X376095Y191228
X336095Y191228
X326095Y191228
X316095Y191228
X271095Y191228
X261095Y191228
X251095Y191228
X211095Y191228
X201095Y191228
X191095Y191228
X191095Y251228
X201095Y251228
X211095Y251228
X251095Y251228
X261095Y251228
X271095Y251228
X316095Y251228
X326095Y251228
X336095Y251228
X376095Y251228
X386095Y251228
X396095Y251228
X441095Y251228
X451095Y251228
X461095Y251228
X501095Y251228
X511095Y251228
X521095Y251228
X380095Y88756
X370095Y88756
X360095Y88756
X350095Y88756
X335095Y88756
X325095Y88756
X315095Y88756
X305095Y88756
X305095Y58756
X315095Y58756
X325095Y58756
X335095Y58756
X350095Y58756
X360095Y58756
X370095Y58756
X380095Y58756
X357595Y44756
X347595Y44756
X337595Y44756
X327595Y44756
X327595Y14756
X337595Y14756
X347595Y14756
X357595Y14756
X481595Y23256
X481595Y32256
X511595Y32256
X511595Y23256
X138595Y95256
X118595Y95256
X98095Y95256
X79095Y95256
X79095Y125256
X98095Y125256
X118595Y125256
X138595Y125256
T06
X37595Y21256
X47595Y21256
X57595Y21256
X67595Y21256
X77595Y21256
X87595Y21256
X97595Y21256
X107595Y21256
X117595Y21256
X127595Y21256
X137595Y21256
X147595Y21256
X157595Y21256
X167595Y21256
X177595Y21256
X187595Y21256
X197595Y21256
X207595Y21256
X217595Y21256
X227595Y21256
X237595Y21256
X247595Y21256
X257595Y21256
X267595Y21256
X267595Y41256
X257595Y41256
X247595Y41256
X237595Y41256
X227595Y41256
X217595Y41256
X207595Y41256
X197595Y41256
X187595Y41256
X187595Y51256
X197595Y51256
X207595Y51256
X217595Y51256
X227595Y51256
X237595Y51256
X247595Y51256
X257595Y51256
X267595Y51256
X217595Y61256
X217595Y71256
X217595Y81256
X207595Y81256
X197595Y81256
X187595Y81256
X177595Y81256
X167595Y81256
X157595Y81256
X147595Y81256
X137595Y81256
X127595Y81256
X117595Y81256
X107595Y81256
X97595Y81256
X87595Y81256
X77595Y81256
X67595Y81256
X57595Y81256
X47595Y81256
X37595Y81256
X62595Y68756
X72595Y68756
X82595Y68756
X92595Y68756
X102595Y68756
X97595Y51256
X107595Y51256
X117595Y51256
X127595Y51256
X127595Y41256
X117595Y41256
X107595Y41256
X97595Y41256
X87595Y31256
X77595Y31256
X67595Y31256
X47595Y31256
X217595Y31256
X227595Y81256
X237595Y81256
X247595Y81256
X257595Y81256
X267595Y81256
T07
X512595Y10756
X522595Y11756
X532595Y10756
X542595Y11756
X561895Y11256
X573295Y11256
X586895Y11256
X598295Y11256
X646895Y71256
X658295Y71256
X672095Y171256
X673095Y181256
X672095Y191256
X672095Y206256
X673095Y216256
X672095Y226256
X521095Y306256
X511095Y306256
X501095Y306256
X461095Y306256
X451095Y306256
X441095Y306256
X396095Y306256
X386095Y306256
X376095Y306256
X336095Y306256
X326095Y306256
X316095Y306256
X271095Y306256
X261095Y306256
X251095Y306256
X211095Y305756
X201095Y305756
X191095Y305756
T08
X125095Y283972
X100095Y283972
X100095Y266256
X125095Y266256
X585095Y266256
X610095Y266256
X610095Y283972
X585095Y283972
X642595Y141256
X642595Y131256
X642595Y121256
X642595Y111256
X662595Y111256
X662595Y121256
X662595Y131256
X662595Y141256
T09
X627595Y210006
X567595Y210006
X567595Y262506
X627595Y262506
X142595Y262506
X82595Y262506
X82595Y210006
X142595Y210006
T10
X640272Y12358
X653658Y31256
T11
X529993Y220756
X492198Y220756
X469993Y220756
X432198Y220756
X404993Y220756
X367198Y220756
X344993Y220756
X307198Y220756
X279993Y220756
X242198Y220756
X219993Y220756
X182198Y220756
X182198Y280756
X219993Y280756
X242198Y280756
X279993Y280756
X307198Y280756
X344993Y280756
X367198Y280756
X404993Y280756
X432198Y280756
X469993Y280756
X492198Y280756
X529993Y280756
T12
X629052Y31256
M30
