  0
SECTION
  2
HEADER
  9
$ACADVER
  1
AC1009
  9
$FILLMODE
 70
0
  9
$EXTMIN
 10
-4.4450
 20
-5.5880
 30
0.0000
  9
$EXTMAX
 10
67.9450
 20
67.8180
 30
0.0000
  0
ENDSEC
  0
SECTION
  2
TABLES
  0
TABLE
  2
LTYPE
 70
1
  0
LTYPE
  2
CONTINUOUS
 70
64
  3
Solid line
 72
65
 73
0
 40
0
  0
ENDTAB
  0
TABLE
  2
LAYER
 70
255
  0
LAYER
  2
19
 70
64
 62
53
  6
CONTINUOUS
  0
LAYER
  2
20
 70
64
 62
30
  6
CONTINUOUS
  0
LAYER
  2
21
 70
64
 62
253
  6
CONTINUOUS
  0
LAYER
  2
22
 70
64
 62
253
  6
CONTINUOUS
  0
LAYER
  2
23
 70
64
 62
7
  6
CONTINUOUS
  0
LAYER
  2
24
 70
64
 62
7
  6
CONTINUOUS
  0
LAYER
  2
25
 70
64
 62
253
  6
CONTINUOUS
  0
LAYER
  2
26
 70
64
 62
253
  6
CONTINUOUS
  0
LAYER
  2
27
 70
64
 62
253
  6
CONTINUOUS
  0
LAYER
  2
28
 70
64
 62
253
  6
CONTINUOUS
  0
LAYER
  2
39
 70
64
 62
22
  6
CONTINUOUS
  0
LAYER
  2
40
 70
64
 62
175
  6
CONTINUOUS
  0
LAYER
  2
41
 70
64
 62
22
  6
CONTINUOUS
  0
LAYER
  2
42
 70
64
 62
175
  6
CONTINUOUS
  0
LAYER
  2
43
 70
64
 62
82
  6
CONTINUOUS
  0
LAYER
  2
45
 70
64
 62
253
  6
CONTINUOUS
  0
LAYER
  2
48
 70
64
 62
253
  6
CONTINUOUS
  0
LAYER
  2
49
 70
64
 62
253
  6
CONTINUOUS
  0
LAYER
  2
51
 70
64
 62
253
  6
CONTINUOUS
  0
LAYER
  2
52
 70
64
 62
253
  6
CONTINUOUS
  0
LAYER
  2
101
 70
64
 62
1
  6
CONTINUOUS
  0
LAYER
  2
102
 70
64
 62
253
  6
CONTINUOUS
  0
LAYER
  2
103
 70
64
 62
253
  6
CONTINUOUS
  0
LAYER
  2
104
 70
64
 62
32
  6
CONTINUOUS
  0
LAYER
  2
105
 70
64
 62
253
  6
CONTINUOUS
  0
LAYER
  2
106
 70
64
 62
253
  6
CONTINUOUS
  0
LAYER
  2
107
 70
64
 62
253
  6
CONTINUOUS
  0
LAYER
  2
108
 70
64
 62
3
  6
CONTINUOUS
  0
LAYER
  2
109
 70
64
 62
4
  6
CONTINUOUS
  0
LAYER
  2
110
 70
64
 62
253
  6
CONTINUOUS
  0
LAYER
  2
111
 70
64
 62
253
  6
CONTINUOUS
  0
LAYER
  2
112
 70
64
 62
253
  6
CONTINUOUS
  0
LAYER
  2
113
 70
64
 62
22
  6
CONTINUOUS
  0
LAYER
  2
114
 70
64
 62
253
  6
CONTINUOUS
  0
LAYER
  2
115
 70
64
 62
253
  6
CONTINUOUS
  0
LAYER
  2
116
 70
64
 62
5
  6
CONTINUOUS
  0
LAYER
  2
118
 70
64
 62
253
  6
CONTINUOUS
  0
LAYER
  2
121
 70
64
 62
253
  6
CONTINUOUS
  0
LAYER
  2
122
 70
64
 62
253
  6
CONTINUOUS
  0
LAYER
  2
123
 70
64
 62
253
  6
CONTINUOUS
  0
LAYER
  2
124
 70
64
 62
253
  6
CONTINUOUS
  0
LAYER
  2
125
 70
64
 62
253
  6
CONTINUOUS
  0
LAYER
  2
126
 70
64
 62
253
  6
CONTINUOUS
  0
LAYER
  2
127
 70
64
 62
253
  6
CONTINUOUS
  0
LAYER
  2
128
 70
64
 62
253
  6
CONTINUOUS
  0
LAYER
  2
129
 70
64
 62
253
  6
CONTINUOUS
  0
LAYER
  2
131
 70
64
 62
253
  6
CONTINUOUS
  0
LAYER
  2
132
 70
64
 62
253
  6
CONTINUOUS
  0
LAYER
  2
144
 70
64
 62
253
  6
CONTINUOUS
  0
LAYER
  2
145
 70
64
 62
253
  6
CONTINUOUS
  0
LAYER
  2
146
 70
64
 62
253
  6
CONTINUOUS
  0
LAYER
  2
150
 70
64
 62
253
  6
CONTINUOUS
  0
LAYER
  2
151
 70
64
 62
253
  6
CONTINUOUS
  0
LAYER
  2
152
 70
64
 62
253
  6
CONTINUOUS
  0
LAYER
  2
153
 70
64
 62
253
  6
CONTINUOUS
  0
LAYER
  2
154
 70
64
 62
253
  6
CONTINUOUS
  0
LAYER
  2
155
 70
64
 62
253
  6
CONTINUOUS
  0
LAYER
  2
199
 70
64
 62
253
  6
CONTINUOUS
  0
LAYER
  2
200
 70
64
 62
175
  6
CONTINUOUS
  0
LAYER
  2
201
 70
64
 62
82
  6
CONTINUOUS
  0
LAYER
  2
202
 70
64
 62
140
  6
CONTINUOUS
  0
LAYER
  2
203
 70
64
 62
22
  6
CONTINUOUS
  0
LAYER
  2
204
 70
64
 62
213
  6
CONTINUOUS
  0
LAYER
  2
205
 70
64
 62
53
  6
CONTINUOUS
  0
LAYER
  2
206
 70
64
 62
253
  6
CONTINUOUS
  0
LAYER
  2
207
 70
64
 62
251
  6
CONTINUOUS
  0
LAYER
  2
208
 70
64
 62
5
  6
CONTINUOUS
  0
LAYER
  2
209
 70
64
 62
253
  6
CONTINUOUS
  0
LAYER
  2
210
 70
64
 62
253
  6
CONTINUOUS
  0
LAYER
  2
211
 70
64
 62
253
  6
CONTINUOUS
  0
LAYER
  2
212
 70
64
 62
253
  6
CONTINUOUS
  0
LAYER
  2
213
 70
64
 62
253
  6
CONTINUOUS
  0
LAYER
  2
214
 70
64
 62
253
  6
CONTINUOUS
  0
LAYER
  2
215
 70
64
 62
253
  6
CONTINUOUS
  0
LAYER
  2
216
 70
64
 62
253
  6
CONTINUOUS
  0
LAYER
  2
225
 70
64
 62
253
  6
CONTINUOUS
  0
LAYER
  2
226
 70
64
 62
253
  6
CONTINUOUS
  0
LAYER
  2
227
 70
64
 62
253
  6
CONTINUOUS
  0
LAYER
  2
228
 70
64
 62
253
  6
CONTINUOUS
  0
LAYER
  2
229
 70
64
 62
253
  6
CONTINUOUS
  0
LAYER
  2
230
 70
64
 62
253
  6
CONTINUOUS
  0
LAYER
  2
231
 70
64
 62
253
  6
CONTINUOUS
  0
LAYER
  2
232
 70
64
 62
253
  6
CONTINUOUS
  0
LAYER
  2
233
 70
64
 62
253
  6
CONTINUOUS
  0
LAYER
  2
248
 70
64
 62
253
  6
CONTINUOUS
  0
LAYER
  2
249
 70
64
 62
253
  6
CONTINUOUS
  0
LAYER
  2
254
 70
64
 62
253
  6
CONTINUOUS
  0
LAYER
  2
255
 70
64
 62
253
  6
CONTINUOUS
  0
ENDTAB
  0
ENDSEC
  0
SECTION
  2
BLOCKS
  0
BLOCK
  8
0
  2
RECT
 70
64
 10
0.0000
 20
0.0000
 30
0.0000
  3
RECT
  0
SOLID
  8
0
 10
-0.5000
 20
-0.5000
 30
0.0000
 11
0.5000
 21
-0.5000
 31
0.0000
 12
-0.5000
 22
0.5000
 32
0.0000
 13
0.5000
 23
0.5000
 33
0.0000
  0
ENDBLK
  8
0
  0
BLOCK
  8
0
  2
PIE
 70
64
 10
0.0000
 20
0.0000
 30
0.0000
  3
PIE
  0
CIRCLE
  8
0
 10
0.0000
 20
0.0000
 30
0.0000
 40
0.5000
  0
ENDBLK
  8
0
  0
BLOCK
  8
0
  2
OCTAGONP
 70
64
 10
0.0000
 20
0.0000
 30
0.0000
  3
OCTAGONP
  0
POLYLINE
  8
0
 66
1
 10
0.0000
 20
0.0000
 30
0.0000
 40
0.0000
 41
0.0000
 70
1
  0
VERTEX
  8
0
 10
-0.5000
 20
-0.2071
 30
0.0000
  0
VERTEX
  8
0
 10
-0.5000
 20
0.2071
 30
0.0000
  0
VERTEX
  8
0
 10
-0.2071
 20
0.5000
 30
0.0000
  0
VERTEX
  8
0
 10
0.2071
 20
0.5000
 30
0.0000
  0
VERTEX
  8
0
 10
0.5000
 20
0.2071
 30
0.0000
  0
VERTEX
  8
0
 10
0.5000
 20
-0.2071
 30
0.0000
  0
VERTEX
  8
0
 10
0.2071
 20
-0.5000
 30
0.0000
  0
VERTEX
  8
0
 10
-0.2071
 20
-0.5000
 30
0.0000
  0
SEQEND
  8
0
  0
ENDBLK
  8
0
  0
BLOCK
  8
0
  2
SQUAREP
 70
64
 10
0.0000
 20
0.0000
 30
0.0000
  3
SQUAREP
  0
SOLID
  8
0
 10
-0.5000
 20
-0.5000
 30
0.0000
 11
0.5000
 21
-0.5000
 31
0.0000
 12
-0.5000
 22
0.5000
 32
0.0000
 13
0.5000
 23
0.5000
 33
0.0000
  0
ENDBLK
  8
0
  0
BLOCK
  8
0
  2
ROUNDP
 70
64
 10
0.0000
 20
0.0000
 30
0.0000
  3
ROUNDP
  0
CIRCLE
  8
0
 10
0.0000
 20
0.0000
 30
0.0000
 40
0.5000
  0
ENDBLK
  8
0
  0
BLOCK
  8
0
  2
ANNULUSP
 70
64
 10
0.0000
 20
0.0000
 30
0.0000
  3
ANNULUSP
  0
CIRCLE
  8
0
 10
0.0000
 20
0.0000
 30
0.0000
 40
0.5000
  0
ENDBLK
  8
0
  0
BLOCK
  8
0
  2
THERMALP
 70
64
 10
0.0000
 20
0.0000
 30
0.0000
  3
THERMALP
  0
LINE
  8
0
 10
-0.2379
 20
0.4500
 30
0.0000
 11
0.2379
 21
0.4500
 31
0.0000
  0
LINE
  8
0
 10
0.4500
 20
0.2379
 30
0.0000
 11
0.4500
 21
-0.2379
 31
0.0000
  0
LINE
  8
0
 10
0.2379
 20
-0.4500
 30
0.0000
 11
-0.2379
 21
-0.4500
 31
0.0000
  0
LINE
  8
0
 10
-0.4500
 20
-0.2379
 30
0.0000
 11
-0.4500
 21
0.2379
 31
0.0000
  0
ENDBLK
  8
0
  0
BLOCK
  8
0
  2
OCTAGONV
 70
64
 10
0.0000
 20
0.0000
 30
0.0000
  3
OCTAGONV
  0
POLYLINE
  8
0
 66
1
 10
0.0000
 20
0.0000
 30
0.0000
 40
0.0000
 41
0.0000
 70
1
  0
VERTEX
  8
0
 10
-0.5000
 20
-0.2071
 30
0.0000
  0
VERTEX
  8
0
 10
-0.5000
 20
0.2071
 30
0.0000
  0
VERTEX
  8
0
 10
-0.2071
 20
0.5000
 30
0.0000
  0
VERTEX
  8
0
 10
0.2071
 20
0.5000
 30
0.0000
  0
VERTEX
  8
0
 10
0.5000
 20
0.2071
 30
0.0000
  0
VERTEX
  8
0
 10
0.5000
 20
-0.2071
 30
0.0000
  0
VERTEX
  8
0
 10
0.2071
 20
-0.5000
 30
0.0000
  0
VERTEX
  8
0
 10
-0.2071
 20
-0.5000
 30
0.0000
  0
SEQEND
  8
0
  0
ENDBLK
  8
0
  0
BLOCK
  8
0
  2
SQUAREV
 70
64
 10
0.0000
 20
0.0000
 30
0.0000
  3
SQUAREV
  0
SOLID
  8
0
 10
-0.5000
 20
-0.5000
 30
0.0000
 11
0.5000
 21
-0.5000
 31
0.0000
 12
-0.5000
 22
0.5000
 32
0.0000
 13
0.5000
 23
0.5000
 33
0.0000
  0
ENDBLK
  8
0
  0
BLOCK
  8
0
  2
ROUNDV
 70
64
 10
0.0000
 20
0.0000
 30
0.0000
  3
ROUNDV
  0
CIRCLE
  8
0
 10
0.0000
 20
0.0000
 30
0.0000
 40
0.5000
  0
ENDBLK
  8
0
  0
BLOCK
  8
0
  2
ANNULUSV
 70
64
 10
0.0000
 20
0.0000
 30
0.0000
  3
ANNULUSV
  0
CIRCLE
  8
0
 10
0.0000
 20
0.0000
 30
0.0000
 40
0.5000
  0
ENDBLK
  8
0
  0
BLOCK
  8
0
  2
THERMALV
 70
64
 10
0.0000
 20
0.0000
 30
0.0000
  3
THERMALV
  0
LINE
  8
0
 10
-0.2379
 20
0.4500
 30
0.0000
 11
0.2379
 21
0.4500
 31
0.0000
  0
LINE
  8
0
 10
0.4500
 20
0.2379
 30
0.0000
 11
0.4500
 21
-0.2379
 31
0.0000
  0
LINE
  8
0
 10
0.2379
 20
-0.4500
 30
0.0000
 11
-0.2379
 21
-0.4500
 31
0.0000
  0
LINE
  8
0
 10
-0.4500
 20
-0.2379
 30
0.0000
 11
-0.4500
 21
0.2379
 31
0.0000
  0
ENDBLK
  8
0
  0
BLOCK
  8
0
  2
LONGP100
 70
64
 10
0.0000
 20
0.0000
 30
0.0000
  3
LONGP100
  0
POLYLINE
  8
0
 66
1
 10
0.0000
 20
0.0000
 30
0.0000
 40
0.0000
 41
0.0000
 70
1
  0
VERTEX
  8
0
 10
-0.5000
 20
-0.5000
 30
0.0000
  0
VERTEX
  8
0
 10
0.5000
 20
-0.5000
 30
0.0000
 42
1.0000
  0
VERTEX
  8
0
 10
0.5000
 20
0.5000
 30
0.0000
  0
VERTEX
  8
0
 10
-0.5000
 20
0.5000
 30
0.0000
 42
1.0000
  0
SEQEND
  8
0
  0
ENDBLK
  8
0
  0
ENDSEC
  0
SECTION
  2
ENTITIES
  0
ARC
  8
20
 10
2.5400
 20
2.5400
 30
0.0000
 40
2.5400
 50
180.0000
 51
270.0000
  0
LINE
  8
20
 10
2.5400
 20
0.0000
 30
0.0000
 11
60.9600
 21
0.0000
 31
0.0000
  0
ARC
  8
20
 10
60.9600
 20
2.5400
 30
0.0000
 40
2.5400
 50
270.0000
 51
0.0000
  0
LINE
  8
20
 10
63.5000
 20
2.5400
 30
0.0000
 11
63.5000
 21
60.9600
 31
0.0000
  0
ARC
  8
20
 10
60.9600
 20
60.9600
 30
0.0000
 40
2.5400
 50
0.0000
 51
90.0000
  0
LINE
  8
20
 10
60.9600
 20
63.5000
 30
0.0000
 11
2.5400
 21
63.5000
 31
0.0000
  0
ARC
  8
20
 10
2.5400
 20
60.9600
 30
0.0000
 40
2.5400
 50
90.0000
 51
180.0000
  0
LINE
  8
20
 10
0.0000
 20
60.9600
 30
0.0000
 11
0.0000
 21
2.5400
 31
0.0000
  0
CIRCLE
  8
20
 10
10.1600
 20
6.3500
 30
0.0000
 40
0.4064
  0
CIRCLE
  8
20
 10
53.3400
 20
6.3500
 30
0.0000
 40
0.4064
  0
CIRCLE
  8
20
 10
9.9060
 20
57.1500
 30
0.0000
 40
0.4064
  0
CIRCLE
  8
20
 10
53.3400
 20
57.1500
 30
0.0000
 40
0.4064
  0
POINT
  8
23
 10
5.0800
 20
53.3400
 30
0.0000
  0
LINE
  8
21
 10
4.4450
 20
57.1500
 30
0.0000
 11
3.8100
 21
57.7850
 31
0.0000
  0
LINE
  8
21
 10
3.8100
 20
57.7850
 30
0.0000
 11
3.8100
 21
59.0550
 31
0.0000
  0
LINE
  8
21
 10
3.8100
 20
59.0550
 30
0.0000
 11
4.4450
 21
59.6900
 31
0.0000
  0
LINE
  8
21
 10
5.7150
 20
59.6900
 30
0.0000
 11
6.3500
 21
59.0550
 31
0.0000
  0
LINE
  8
21
 10
6.3500
 20
59.0550
 30
0.0000
 11
6.3500
 21
57.7850
 31
0.0000
  0
LINE
  8
21
 10
6.3500
 20
57.7850
 30
0.0000
 11
5.7150
 21
57.1500
 31
0.0000
  0
LINE
  8
21
 10
3.8100
 20
52.7050
 30
0.0000
 11
3.8100
 21
53.9750
 31
0.0000
  0
LINE
  8
21
 10
3.8100
 20
53.9750
 30
0.0000
 11
4.4450
 21
54.6100
 31
0.0000
  0
LINE
  8
21
 10
5.7150
 20
54.6100
 30
0.0000
 11
6.3500
 21
53.9750
 31
0.0000
  0
LINE
  8
21
 10
4.4450
 20
54.6100
 30
0.0000
 11
3.8100
 21
55.2450
 31
0.0000
  0
LINE
  8
21
 10
3.8100
 20
55.2450
 30
0.0000
 11
3.8100
 21
56.5150
 31
0.0000
  0
LINE
  8
21
 10
3.8100
 20
56.5150
 30
0.0000
 11
4.4450
 21
57.1500
 31
0.0000
  0
LINE
  8
21
 10
5.7150
 20
57.1500
 30
0.0000
 11
6.3500
 21
56.5150
 31
0.0000
  0
LINE
  8
21
 10
6.3500
 20
56.5150
 30
0.0000
 11
6.3500
 21
55.2450
 31
0.0000
  0
LINE
  8
21
 10
6.3500
 20
55.2450
 30
0.0000
 11
5.7150
 21
54.6100
 31
0.0000
  0
LINE
  8
21
 10
4.4450
 20
52.0700
 30
0.0000
 11
5.7150
 21
52.0700
 31
0.0000
  0
LINE
  8
21
 10
3.8100
 20
52.7050
 30
0.0000
 11
4.4450
 21
52.0700
 31
0.0000
  0
LINE
  8
21
 10
5.7150
 20
52.0700
 30
0.0000
 11
6.3500
 21
52.7050
 31
0.0000
  0
LINE
  8
21
 10
6.3500
 20
53.9750
 30
0.0000
 11
6.3500
 21
52.7050
 31
0.0000
  0
LINE
  8
21
 10
4.4450
 20
59.6900
 30
0.0000
 11
5.7150
 21
59.6900
 31
0.0000
  0
LINE
  8
25
 10
3.1369
 20
52.2944
 30
0.0000
 11
3.5123
 21
52.2944
 31
0.0000
  0
ARC
  8
25
 10
3.5123
 20
52.1871
 30
0.0000
 40
0.1072
 50
0.0000
 51
90.0000
  0
LINE
  8
25
 10
3.6195
 20
52.1871
 30
0.0000
 11
3.6195
 21
52.1335
 31
0.0000
  0
LINE
  8
25
 10
3.2441
 20
52.5892
 30
0.0000
 11
3.1369
 21
52.7232
 31
0.0000
  0
LINE
  8
25
 10
3.1369
 20
52.7232
 30
0.0000
 11
3.6195
 21
52.7232
 31
0.0000
  0
LINE
  8
25
 10
3.6195
 20
52.5892
 30
0.0000
 11
3.6195
 21
52.8573
 31
0.0000
  0
INSERT
  8
51
  2
RECT
 10
5.0800
 20
58.4200
 30
0.0000
 41
0.5080
 42
0.5080
 43
1.0000
 50
90.0000
  0
INSERT
  8
51
  2
RECT
 10
5.0800
 20
55.8800
 30
0.0000
 41
0.5080
 42
0.5080
 43
1.0000
 50
90.0000
  0
INSERT
  8
51
  2
RECT
 10
5.0800
 20
53.3400
 30
0.0000
 41
0.5080
 42
0.5080
 43
1.0000
 50
90.0000
  0
POINT
  8
23
 10
58.4200
 20
58.4200
 30
0.0000
  0
LINE
  8
21
 10
59.0550
 20
54.6100
 30
0.0000
 11
59.6900
 21
53.9750
 31
0.0000
  0
LINE
  8
21
 10
59.6900
 20
53.9750
 30
0.0000
 11
59.6900
 21
52.7050
 31
0.0000
  0
LINE
  8
21
 10
59.6900
 20
52.7050
 30
0.0000
 11
59.0550
 21
52.0700
 31
0.0000
  0
LINE
  8
21
 10
57.7850
 20
52.0700
 30
0.0000
 11
57.1500
 21
52.7050
 31
0.0000
  0
LINE
  8
21
 10
57.1500
 20
52.7050
 30
0.0000
 11
57.1500
 21
53.9750
 31
0.0000
  0
LINE
  8
21
 10
57.1500
 20
53.9750
 30
0.0000
 11
57.7850
 21
54.6100
 31
0.0000
  0
LINE
  8
21
 10
59.6900
 20
59.0550
 30
0.0000
 11
59.6900
 21
57.7850
 31
0.0000
  0
LINE
  8
21
 10
59.6900
 20
57.7850
 30
0.0000
 11
59.0550
 21
57.1500
 31
0.0000
  0
LINE
  8
21
 10
57.7850
 20
57.1500
 30
0.0000
 11
57.1500
 21
57.7850
 31
0.0000
  0
LINE
  8
21
 10
59.0550
 20
57.1500
 30
0.0000
 11
59.6900
 21
56.5150
 31
0.0000
  0
LINE
  8
21
 10
59.6900
 20
56.5150
 30
0.0000
 11
59.6900
 21
55.2450
 31
0.0000
  0
LINE
  8
21
 10
59.6900
 20
55.2450
 30
0.0000
 11
59.0550
 21
54.6100
 31
0.0000
  0
LINE
  8
21
 10
57.7850
 20
54.6100
 30
0.0000
 11
57.1500
 21
55.2450
 31
0.0000
  0
LINE
  8
21
 10
57.1500
 20
55.2450
 30
0.0000
 11
57.1500
 21
56.5150
 31
0.0000
  0
LINE
  8
21
 10
57.1500
 20
56.5150
 30
0.0000
 11
57.7850
 21
57.1500
 31
0.0000
  0
LINE
  8
21
 10
59.0550
 20
59.6900
 30
0.0000
 11
57.7850
 21
59.6900
 31
0.0000
  0
LINE
  8
21
 10
59.6900
 20
59.0550
 30
0.0000
 11
59.0550
 21
59.6900
 31
0.0000
  0
LINE
  8
21
 10
57.7850
 20
59.6900
 30
0.0000
 11
57.1500
 21
59.0550
 31
0.0000
  0
LINE
  8
21
 10
57.1500
 20
57.7850
 30
0.0000
 11
57.1500
 21
59.0550
 31
0.0000
  0
LINE
  8
21
 10
59.0550
 20
52.0700
 30
0.0000
 11
57.7850
 21
52.0700
 31
0.0000
  0
LINE
  8
25
 10
59.8805
 20
59.0636
 30
0.0000
 11
60.2559
 21
59.0636
 31
0.0000
  0
ARC
  8
25
 10
60.2559
 20
58.9564
 30
0.0000
 40
0.1072
 50
0.0000
 51
90.0000
  0
LINE
  8
25
 10
60.3631
 20
58.9564
 30
0.0000
 11
60.3631
 21
58.9027
 31
0.0000
  0
ARC
  8
25
 10
60.0012
 20
59.5058
 30
0.0000
 40
0.1207
 50
90.0000
 51
179.9970
  0
ARC
  8
25
 10
60.0355
 20
59.5058
 30
0.0000
 40
0.1550
 50
179.9969
 51
252.0597
  0
ARC
  8
25
 10
60.0012
 20
59.4969
 30
0.0000
 40
0.1296
 50
43.6035
 51
89.9998
  0
LINE
  8
25
 10
60.0950
 20
59.5863
 30
0.0000
 11
60.3631
 21
59.3584
 31
0.0000
  0
LINE
  8
25
 10
60.3631
 20
59.3584
 30
0.0000
 11
60.3631
 21
59.6265
 31
0.0000
  0
INSERT
  8
51
  2
RECT
 10
58.4200
 20
53.3400
 30
0.0000
 41
0.5080
 42
0.5080
 43
1.0000
 50
270.0000
  0
INSERT
  8
51
  2
RECT
 10
58.4200
 20
55.8800
 30
0.0000
 41
0.5080
 42
0.5080
 43
1.0000
 50
270.0000
  0
INSERT
  8
51
  2
RECT
 10
58.4200
 20
58.4200
 30
0.0000
 41
0.5080
 42
0.5080
 43
1.0000
 50
270.0000
  0
POINT
  8
23
 10
58.4200
 20
10.1600
 30
0.0000
  0
LINE
  8
21
 10
59.0550
 20
6.3500
 30
0.0000
 11
59.6900
 21
5.7150
 31
0.0000
  0
LINE
  8
21
 10
59.6900
 20
5.7150
 30
0.0000
 11
59.6900
 21
4.4450
 31
0.0000
  0
LINE
  8
21
 10
59.6900
 20
4.4450
 30
0.0000
 11
59.0550
 21
3.8100
 31
0.0000
  0
LINE
  8
21
 10
57.7850
 20
3.8100
 30
0.0000
 11
57.1500
 21
4.4450
 31
0.0000
  0
LINE
  8
21
 10
57.1500
 20
4.4450
 30
0.0000
 11
57.1500
 21
5.7150
 31
0.0000
  0
LINE
  8
21
 10
57.1500
 20
5.7150
 30
0.0000
 11
57.7850
 21
6.3500
 31
0.0000
  0
LINE
  8
21
 10
59.6900
 20
10.7950
 30
0.0000
 11
59.6900
 21
9.5250
 31
0.0000
  0
LINE
  8
21
 10
59.6900
 20
9.5250
 30
0.0000
 11
59.0550
 21
8.8900
 31
0.0000
  0
LINE
  8
21
 10
57.7850
 20
8.8900
 30
0.0000
 11
57.1500
 21
9.5250
 31
0.0000
  0
LINE
  8
21
 10
59.0550
 20
8.8900
 30
0.0000
 11
59.6900
 21
8.2550
 31
0.0000
  0
LINE
  8
21
 10
59.6900
 20
8.2550
 30
0.0000
 11
59.6900
 21
6.9850
 31
0.0000
  0
LINE
  8
21
 10
59.6900
 20
6.9850
 30
0.0000
 11
59.0550
 21
6.3500
 31
0.0000
  0
LINE
  8
21
 10
57.7850
 20
6.3500
 30
0.0000
 11
57.1500
 21
6.9850
 31
0.0000
  0
LINE
  8
21
 10
57.1500
 20
6.9850
 30
0.0000
 11
57.1500
 21
8.2550
 31
0.0000
  0
LINE
  8
21
 10
57.1500
 20
8.2550
 30
0.0000
 11
57.7850
 21
8.8900
 31
0.0000
  0
LINE
  8
21
 10
59.0550
 20
11.4300
 30
0.0000
 11
57.7850
 21
11.4300
 31
0.0000
  0
LINE
  8
21
 10
59.6900
 20
10.7950
 30
0.0000
 11
59.0550
 21
11.4300
 31
0.0000
  0
LINE
  8
21
 10
57.7850
 20
11.4300
 30
0.0000
 11
57.1500
 21
10.7950
 31
0.0000
  0
LINE
  8
21
 10
57.1500
 20
9.5250
 30
0.0000
 11
57.1500
 21
10.7950
 31
0.0000
  0
LINE
  8
21
 10
59.0550
 20
3.8100
 30
0.0000
 11
57.7850
 21
3.8100
 31
0.0000
  0
LINE
  8
25
 10
59.8805
 20
10.8036
 30
0.0000
 11
60.2559
 21
10.8036
 31
0.0000
  0
ARC
  8
25
 10
60.2559
 20
10.6964
 30
0.0000
 40
0.1072
 50
0.0000
 51
90.0000
  0
LINE
  8
25
 10
60.3631
 20
10.6964
 30
0.0000
 11
60.3631
 21
10.6427
 31
0.0000
  0
LINE
  8
25
 10
60.3631
 20
11.0984
 30
0.0000
 11
60.3631
 21
11.2324
 31
0.0000
  0
ARC
  8
25
 10
60.2290
 20
11.2324
 30
0.0000
 40
0.1341
 50
0.0000
 51
180.0000
  0
LINE
  8
25
 10
59.8805
 20
11.0984
 30
0.0000
 11
59.8805
 21
11.2593
 31
0.0000
  0
ARC
  8
25
 10
59.9877
 20
11.2593
 30
0.0000
 40
0.1072
 50
0.0000
 51
180.0000
  0
LINE
  8
25
 10
60.0950
 20
11.2593
 30
0.0000
 11
60.0950
 21
11.1520
 31
0.0000
  0
INSERT
  8
51
  2
RECT
 10
58.4200
 20
5.0800
 30
0.0000
 41
0.5080
 42
0.5080
 43
1.0000
 50
270.0000
  0
INSERT
  8
51
  2
RECT
 10
58.4200
 20
7.6200
 30
0.0000
 41
0.5080
 42
0.5080
 43
1.0000
 50
270.0000
  0
INSERT
  8
51
  2
RECT
 10
58.4200
 20
10.1600
 30
0.0000
 41
0.5080
 42
0.5080
 43
1.0000
 50
270.0000
  0
POINT
  8
23
 10
5.0800
 20
3.8100
 30
0.0000
  0
LINE
  8
21
 10
4.4450
 20
7.6200
 30
0.0000
 11
3.8100
 21
8.2550
 31
0.0000
  0
LINE
  8
21
 10
3.8100
 20
8.2550
 30
0.0000
 11
3.8100
 21
9.5250
 31
0.0000
  0
LINE
  8
21
 10
3.8100
 20
9.5250
 30
0.0000
 11
4.4450
 21
10.1600
 31
0.0000
  0
LINE
  8
21
 10
5.7150
 20
10.1600
 30
0.0000
 11
6.3500
 21
9.5250
 31
0.0000
  0
LINE
  8
21
 10
6.3500
 20
9.5250
 30
0.0000
 11
6.3500
 21
8.2550
 31
0.0000
  0
LINE
  8
21
 10
6.3500
 20
8.2550
 30
0.0000
 11
5.7150
 21
7.6200
 31
0.0000
  0
LINE
  8
21
 10
3.8100
 20
3.1750
 30
0.0000
 11
3.8100
 21
4.4450
 31
0.0000
  0
LINE
  8
21
 10
3.8100
 20
4.4450
 30
0.0000
 11
4.4450
 21
5.0800
 31
0.0000
  0
LINE
  8
21
 10
5.7150
 20
5.0800
 30
0.0000
 11
6.3500
 21
4.4450
 31
0.0000
  0
LINE
  8
21
 10
4.4450
 20
5.0800
 30
0.0000
 11
3.8100
 21
5.7150
 31
0.0000
  0
LINE
  8
21
 10
3.8100
 20
5.7150
 30
0.0000
 11
3.8100
 21
6.9850
 31
0.0000
  0
LINE
  8
21
 10
3.8100
 20
6.9850
 30
0.0000
 11
4.4450
 21
7.6200
 31
0.0000
  0
LINE
  8
21
 10
5.7150
 20
7.6200
 30
0.0000
 11
6.3500
 21
6.9850
 31
0.0000
  0
LINE
  8
21
 10
6.3500
 20
6.9850
 30
0.0000
 11
6.3500
 21
5.7150
 31
0.0000
  0
LINE
  8
21
 10
6.3500
 20
5.7150
 30
0.0000
 11
5.7150
 21
5.0800
 31
0.0000
  0
LINE
  8
21
 10
4.4450
 20
2.5400
 30
0.0000
 11
5.7150
 21
2.5400
 31
0.0000
  0
LINE
  8
21
 10
3.8100
 20
3.1750
 30
0.0000
 11
4.4450
 21
2.5400
 31
0.0000
  0
LINE
  8
21
 10
5.7150
 20
2.5400
 30
0.0000
 11
6.3500
 21
3.1750
 31
0.0000
  0
LINE
  8
21
 10
6.3500
 20
4.4450
 30
0.0000
 11
6.3500
 21
3.1750
 31
0.0000
  0
LINE
  8
21
 10
4.4450
 20
10.1600
 30
0.0000
 11
5.7150
 21
10.1600
 31
0.0000
  0
INSERT
  8
51
  2
RECT
 10
5.0800
 20
8.8900
 30
0.0000
 41
0.5080
 42
0.5080
 43
1.0000
 50
90.0000
  0
INSERT
  8
51
  2
RECT
 10
5.0800
 20
6.3500
 30
0.0000
 41
0.5080
 42
0.5080
 43
1.0000
 50
90.0000
  0
INSERT
  8
51
  2
RECT
 10
5.0800
 20
3.8100
 30
0.0000
 41
0.5080
 42
0.5080
 43
1.0000
 50
90.0000
  0
LINE
  8
25
 10
3.1369
 20
2.7644
 30
0.0000
 11
3.5123
 21
2.7644
 31
0.0000
  0
ARC
  8
25
 10
3.5123
 20
2.6571
 30
0.0000
 40
0.1072
 50
0.0000
 51
90.0000
  0
LINE
  8
25
 10
3.6195
 20
2.6571
 30
0.0000
 11
3.6195
 21
2.6035
 31
0.0000
  0
LINE
  8
25
 10
3.1369
 20
3.1664
 30
0.0000
 11
3.5123
 21
3.0592
 31
0.0000
  0
LINE
  8
25
 10
3.5123
 20
3.0592
 30
0.0000
 11
3.5123
 21
3.3273
 31
0.0000
  0
LINE
  8
25
 10
3.4050
 20
3.2468
 30
0.0000
 11
3.6195
 21
3.2468
 31
0.0000
  0
POINT
  8
23
 10
32.0040
 20
55.6260
 30
0.0000
  0
LINE
  8
21
 10
26.2890
 20
52.8510
 30
0.0000
 11
27.5590
 21
52.8510
 31
0.0000
  0
LINE
  8
21
 10
21.9040
 20
60.1260
 30
0.0000
 11
42.1040
 21
60.1260
 31
0.0000
  0
LINE
  8
21
 10
42.1040
 20
51.1260
 30
0.0000
 11
34.2040
 21
51.1260
 31
0.0000
  0
LINE
  8
21
 10
34.2040
 20
51.1260
 30
0.0000
 11
29.8040
 21
51.1260
 31
0.0000
  0
LINE
  8
21
 10
29.8040
 20
51.1260
 30
0.0000
 11
21.9040
 21
51.1260
 31
0.0000
  0
LINE
  8
21
 10
21.9040
 20
51.1260
 30
0.0000
 11
21.9040
 21
60.0260
 31
0.0000
  0
LINE
  8
21
 10
42.1040
 20
60.1260
 30
0.0000
 11
42.1040
 21
51.1260
 31
0.0000
  0
LINE
  8
51
 10
23.0040
 20
52.2260
 30
0.0000
 11
23.0040
 21
59.0260
 31
0.0000
  0
LINE
  8
51
 10
23.0040
 20
59.0260
 30
0.0000
 11
41.0040
 21
59.0260
 31
0.0000
  0
LINE
  8
51
 10
41.0040
 20
52.2260
 30
0.0000
 11
41.0040
 21
59.0260
 31
0.0000
  0
LINE
  8
21
 10
29.8040
 20
51.1260
 30
0.0000
 11
29.8040
 21
52.6260
 31
0.0000
  0
LINE
  8
21
 10
29.8040
 20
52.6260
 30
0.0000
 11
34.2040
 21
52.6260
 31
0.0000
  0
LINE
  8
21
 10
34.2040
 20
52.6260
 30
0.0000
 11
34.2040
 21
51.1260
 31
0.0000
  0
LINE
  8
51
 10
23.0040
 20
52.2260
 30
0.0000
 11
29.8040
 21
52.2260
 31
0.0000
  0
LINE
  8
51
 10
41.0040
 20
52.2260
 30
0.0000
 11
34.2040
 21
52.2260
 31
0.0000
  0
LINE
  8
22
 10
26.2890
 20
52.8130
 30
0.0000
 11
27.5590
 21
52.8130
 31
0.0000
  0
LINE
  8
25
 10
20.9169
 20
51.6594
 30
0.0000
 11
21.2923
 21
51.6594
 31
0.0000
  0
ARC
  8
25
 10
21.2923
 20
51.5521
 30
0.0000
 40
0.1072
 50
0.0000
 51
90.0000
  0
LINE
  8
25
 10
21.3995
 20
51.5521
 30
0.0000
 11
21.3995
 21
51.4985
 31
0.0000
  0
LINE
  8
25
 10
21.3995
 20
51.9542
 30
0.0000
 11
21.3995
 21
52.1150
 31
0.0000
  0
ARC
  8
25
 10
21.2923
 20
52.1150
 30
0.0000
 40
0.1072
 50
0.0000
 51
90.0000
  0
LINE
  8
25
 10
21.2923
 20
52.2223
 30
0.0000
 11
21.2386
 21
52.2223
 31
0.0000
  0
ARC
  8
25
 10
21.2386
 20
52.1150
 30
0.0000
 40
0.1072
 50
90.0000
 51
180.0000
  0
LINE
  8
25
 10
21.1314
 20
52.1150
 30
0.0000
 11
21.1314
 21
51.9542
 31
0.0000
  0
LINE
  8
25
 10
21.1314
 20
51.9542
 30
0.0000
 11
20.9169
 21
51.9542
 31
0.0000
  0
LINE
  8
25
 10
20.9169
 20
51.9542
 30
0.0000
 11
20.9169
 21
52.2223
 31
0.0000
  0
INSERT
  8
51
  2
RECT
 10
26.9240
 20
54.3560
 30
0.0000
 41
0.5080
 42
0.5080
 43
1.0000
 50
0.0000
  0
INSERT
  8
51
  2
RECT
 10
26.9240
 20
56.8960
 30
0.0000
 41
0.5080
 42
0.5080
 43
1.0000
 50
0.0000
  0
INSERT
  8
51
  2
RECT
 10
29.4640
 20
56.8960
 30
0.0000
 41
0.5080
 42
0.5080
 43
1.0000
 50
0.0000
  0
INSERT
  8
51
  2
RECT
 10
29.4640
 20
54.3560
 30
0.0000
 41
0.5080
 42
0.5080
 43
1.0000
 50
0.0000
  0
INSERT
  8
51
  2
RECT
 10
32.0040
 20
56.8960
 30
0.0000
 41
0.5080
 42
0.5080
 43
1.0000
 50
0.0000
  0
INSERT
  8
51
  2
RECT
 10
32.0040
 20
54.3560
 30
0.0000
 41
0.5080
 42
0.5080
 43
1.0000
 50
0.0000
  0
INSERT
  8
51
  2
RECT
 10
34.5440
 20
56.8960
 30
0.0000
 41
0.5080
 42
0.5080
 43
1.0000
 50
0.0000
  0
INSERT
  8
51
  2
RECT
 10
34.5440
 20
54.3560
 30
0.0000
 41
0.5080
 42
0.5080
 43
1.0000
 50
0.0000
  0
INSERT
  8
51
  2
RECT
 10
37.0840
 20
56.8960
 30
0.0000
 41
0.5080
 42
0.5080
 43
1.0000
 50
0.0000
  0
INSERT
  8
51
  2
RECT
 10
37.0840
 20
54.3560
 30
0.0000
 41
0.5080
 42
0.5080
 43
1.0000
 50
0.0000
  0
INSERT
  8
51
  2
RECT
 10
34.5440
 20
54.3560
 30
0.0000
 41
0.5080
 42
0.5080
 43
1.0000
 50
0.0000
  0
INSERT
  8
51
  2
RECT
 10
34.5440
 20
56.8960
 30
0.0000
 41
0.5080
 42
0.5080
 43
1.0000
 50
0.0000
  0
POINT
  8
23
 10
58.4200
 20
23.8760
 30
0.0000
  0
LINE
  8
21
 10
57.1500
 20
30.8610
 30
0.0000
 11
57.1500
 21
32.1310
 31
0.0000
  0
LINE
  8
21
 10
57.1500
 20
32.1310
 30
0.0000
 11
57.7850
 21
32.7660
 31
0.0000
  0
LINE
  8
21
 10
59.0550
 20
32.7660
 30
0.0000
 11
59.6900
 21
32.1310
 31
0.0000
  0
LINE
  8
21
 10
57.7850
 20
32.7660
 30
0.0000
 11
57.1500
 21
33.4010
 31
0.0000
  0
LINE
  8
21
 10
57.1500
 20
33.4010
 30
0.0000
 11
57.1500
 21
34.6710
 31
0.0000
  0
LINE
  8
21
 10
57.1500
 20
34.6710
 30
0.0000
 11
57.7850
 21
35.3060
 31
0.0000
  0
LINE
  8
21
 10
59.0550
 20
35.3060
 30
0.0000
 11
59.6900
 21
34.6710
 31
0.0000
  0
LINE
  8
21
 10
59.6900
 20
34.6710
 30
0.0000
 11
59.6900
 21
33.4010
 31
0.0000
  0
LINE
  8
21
 10
59.6900
 20
33.4010
 30
0.0000
 11
59.0550
 21
32.7660
 31
0.0000
  0
LINE
  8
21
 10
57.7850
 20
27.6860
 30
0.0000
 11
57.1500
 21
28.3210
 31
0.0000
  0
LINE
  8
21
 10
57.1500
 20
28.3210
 30
0.0000
 11
57.1500
 21
29.5910
 31
0.0000
  0
LINE
  8
21
 10
57.1500
 20
29.5910
 30
0.0000
 11
57.7850
 21
30.2260
 31
0.0000
  0
LINE
  8
21
 10
59.0550
 20
30.2260
 30
0.0000
 11
59.6900
 21
29.5910
 31
0.0000
  0
LINE
  8
21
 10
59.6900
 20
29.5910
 30
0.0000
 11
59.6900
 21
28.3210
 31
0.0000
  0
LINE
  8
21
 10
59.6900
 20
28.3210
 30
0.0000
 11
59.0550
 21
27.6860
 31
0.0000
  0
LINE
  8
21
 10
57.1500
 20
30.8610
 30
0.0000
 11
57.7850
 21
30.2260
 31
0.0000
  0
LINE
  8
21
 10
59.0550
 20
30.2260
 30
0.0000
 11
59.6900
 21
30.8610
 31
0.0000
  0
LINE
  8
21
 10
59.6900
 20
32.1310
 30
0.0000
 11
59.6900
 21
30.8610
 31
0.0000
  0
LINE
  8
21
 10
57.1500
 20
23.2410
 30
0.0000
 11
57.1500
 21
24.5110
 31
0.0000
  0
LINE
  8
21
 10
57.1500
 20
24.5110
 30
0.0000
 11
57.7850
 21
25.1460
 31
0.0000
  0
LINE
  8
21
 10
59.0550
 20
25.1460
 30
0.0000
 11
59.6900
 21
24.5110
 31
0.0000
  0
LINE
  8
21
 10
57.7850
 20
25.1460
 30
0.0000
 11
57.1500
 21
25.7810
 31
0.0000
  0
LINE
  8
21
 10
57.1500
 20
25.7810
 30
0.0000
 11
57.1500
 21
27.0510
 31
0.0000
  0
LINE
  8
21
 10
57.1500
 20
27.0510
 30
0.0000
 11
57.7850
 21
27.6860
 31
0.0000
  0
LINE
  8
21
 10
59.0550
 20
27.6860
 30
0.0000
 11
59.6900
 21
27.0510
 31
0.0000
  0
LINE
  8
21
 10
59.6900
 20
27.0510
 30
0.0000
 11
59.6900
 21
25.7810
 31
0.0000
  0
LINE
  8
21
 10
59.6900
 20
25.7810
 30
0.0000
 11
59.0550
 21
25.1460
 31
0.0000
  0
LINE
  8
21
 10
57.7850
 20
22.6060
 30
0.0000
 11
59.0550
 21
22.6060
 31
0.0000
  0
LINE
  8
21
 10
57.1500
 20
23.2410
 30
0.0000
 11
57.7850
 21
22.6060
 31
0.0000
  0
LINE
  8
21
 10
59.0550
 20
22.6060
 30
0.0000
 11
59.6900
 21
23.2410
 31
0.0000
  0
LINE
  8
21
 10
59.6900
 20
24.5110
 30
0.0000
 11
59.6900
 21
23.2410
 31
0.0000
  0
LINE
  8
21
 10
57.7850
 20
35.3060
 30
0.0000
 11
59.0550
 21
35.3060
 31
0.0000
  0
LINE
  8
25
 10
56.4769
 20
22.8304
 30
0.0000
 11
56.8523
 21
22.8304
 31
0.0000
  0
ARC
  8
25
 10
56.8523
 20
22.7231
 30
0.0000
 40
0.1072
 50
0.0000
 51
90.0000
  0
LINE
  8
25
 10
56.9595
 20
22.7231
 30
0.0000
 11
56.9595
 21
22.6695
 31
0.0000
  0
LINE
  8
25
 10
56.6914
 20
23.1252
 30
0.0000
 11
56.6914
 21
23.2860
 31
0.0000
  0
ARC
  8
25
 10
56.7986
 20
23.2860
 30
0.0000
 40
0.1072
 50
90.0000
 51
180.0000
  0
LINE
  8
25
 10
56.7986
 20
23.3933
 30
0.0000
 11
56.8254
 21
23.3933
 31
0.0000
  0
ARC
  8
25
 10
56.8254
 20
23.2592
 30
0.0000
 40
0.1341
 50
270.0000
 51
90.0000
  0
LINE
  8
25
 10
56.8254
 20
23.1252
 30
0.0000
 11
56.6914
 21
23.1252
 31
0.0000
  0
ARC
  8
25
 10
56.6914
 20
23.3397
 30
0.0000
 40
0.2145
 50
180.0017
 51
270.0000
  0
INSERT
  8
51
  2
RECT
 10
58.4200
 20
34.0360
 30
0.0000
 41
0.5080
 42
0.5080
 43
1.0000
 50
90.0000
  0
INSERT
  8
51
  2
RECT
 10
58.4200
 20
31.4960
 30
0.0000
 41
0.5080
 42
0.5080
 43
1.0000
 50
90.0000
  0
INSERT
  8
51
  2
RECT
 10
58.4200
 20
28.9560
 30
0.0000
 41
0.5080
 42
0.5080
 43
1.0000
 50
90.0000
  0
INSERT
  8
51
  2
RECT
 10
58.4200
 20
26.4160
 30
0.0000
 41
0.5080
 42
0.5080
 43
1.0000
 50
90.0000
  0
INSERT
  8
51
  2
RECT
 10
58.4200
 20
23.8760
 30
0.0000
 41
0.5080
 42
0.5080
 43
1.0000
 50
90.0000
  0
POINT
  8
23
 10
14.4780
 20
58.4200
 30
0.0000
  0
LINE
  8
21
 10
13.8430
 20
59.6900
 30
0.0000
 11
15.1130
 21
59.6900
 31
0.0000
  0
LINE
  8
21
 10
15.1130
 20
59.6900
 30
0.0000
 11
15.7480
 21
59.0550
 31
0.0000
  0
LINE
  8
21
 10
15.7480
 20
57.7850
 30
0.0000
 11
15.1130
 21
57.1500
 31
0.0000
  0
LINE
  8
21
 10
15.7480
 20
59.0550
 30
0.0000
 11
16.3830
 21
59.6900
 31
0.0000
  0
LINE
  8
21
 10
16.3830
 20
59.6900
 30
0.0000
 11
17.6530
 21
59.6900
 31
0.0000
  0
LINE
  8
21
 10
17.6530
 20
59.6900
 30
0.0000
 11
18.2880
 21
59.0550
 31
0.0000
  0
LINE
  8
21
 10
18.2880
 20
57.7850
 30
0.0000
 11
17.6530
 21
57.1500
 31
0.0000
  0
LINE
  8
21
 10
17.6530
 20
57.1500
 30
0.0000
 11
16.3830
 21
57.1500
 31
0.0000
  0
LINE
  8
21
 10
16.3830
 20
57.1500
 30
0.0000
 11
15.7480
 21
57.7850
 31
0.0000
  0
LINE
  8
21
 10
13.2080
 20
59.0550
 30
0.0000
 11
13.2080
 21
57.7850
 31
0.0000
  0
LINE
  8
21
 10
13.8430
 20
59.6900
 30
0.0000
 11
13.2080
 21
59.0550
 31
0.0000
  0
LINE
  8
21
 10
13.2080
 20
57.7850
 30
0.0000
 11
13.8430
 21
57.1500
 31
0.0000
  0
LINE
  8
21
 10
15.1130
 20
57.1500
 30
0.0000
 11
13.8430
 21
57.1500
 31
0.0000
  0
LINE
  8
21
 10
18.2880
 20
59.0550
 30
0.0000
 11
18.2880
 21
57.7850
 31
0.0000
  0
LINE
  8
25
 10
13.2715
 20
59.8805
 30
0.0000
 11
13.2715
 21
60.3631
 31
0.0000
  0
LINE
  8
25
 10
13.2715
 20
60.3631
 30
0.0000
 11
13.4056
 21
60.3631
 31
0.0000
  0
ARC
  8
25
 10
13.4056
 20
60.2290
 30
0.0000
 40
0.1341
 50
270.0000
 51
90.0000
  0
LINE
  8
25
 10
13.4056
 20
60.0950
 30
0.0000
 11
13.2715
 21
60.0950
 31
0.0000
  0
LINE
  8
25
 10
13.7872
 20
60.0146
 30
0.0000
 11
13.7872
 21
60.2290
 31
0.0000
  0
ARC
  8
25
 10
13.9213
 20
60.2290
 30
0.0000
 40
0.1341
 50
0.0000
 51
180.0000
  0
LINE
  8
25
 10
14.0553
 20
60.2290
 30
0.0000
 11
14.0553
 21
60.0146
 31
0.0000
  0
ARC
  8
25
 10
13.9213
 20
60.0146
 30
0.0000
 40
0.1341
 50
180.0000
 51
0.0000
  0
LINE
  8
25
 10
14.3286
 20
60.3631
 30
0.0000
 11
14.4358
 21
59.8805
 31
0.0000
  0
LINE
  8
25
 10
14.4358
 20
59.8805
 30
0.0000
 11
14.5430
 21
60.2022
 31
0.0000
  0
LINE
  8
25
 10
14.5430
 20
60.2022
 30
0.0000
 11
14.6503
 21
59.8805
 31
0.0000
  0
LINE
  8
25
 10
14.6503
 20
59.8805
 30
0.0000
 11
14.7575
 21
60.3631
 31
0.0000
  0
LINE
  8
25
 10
15.2655
 20
59.8805
 30
0.0000
 11
15.0510
 21
59.8805
 31
0.0000
  0
LINE
  8
25
 10
15.0510
 20
59.8805
 30
0.0000
 11
15.0510
 21
60.3631
 31
0.0000
  0
LINE
  8
25
 10
15.0510
 20
60.3631
 30
0.0000
 11
15.2655
 21
60.3631
 31
0.0000
  0
LINE
  8
25
 10
15.0510
 20
60.1486
 30
0.0000
 11
15.2119
 21
60.1486
 31
0.0000
  0
LINE
  8
25
 10
15.5309
 20
59.8805
 30
0.0000
 11
15.5309
 21
60.3631
 31
0.0000
  0
LINE
  8
25
 10
15.5309
 20
60.3631
 30
0.0000
 11
15.6650
 21
60.3631
 31
0.0000
  0
ARC
  8
25
 10
15.6650
 20
60.2290
 30
0.0000
 40
0.1341
 50
270.0000
 51
90.0000
  0
LINE
  8
25
 10
15.6650
 20
60.0950
 30
0.0000
 11
15.5309
 21
60.0950
 31
0.0000
  0
LINE
  8
25
 10
15.7990
 20
59.8805
 30
0.0000
 11
15.6918
 21
60.0950
 31
0.0000
  0
LINE
  8
25
 10
16.0732
 20
60.2559
 30
0.0000
 11
16.2072
 21
60.3631
 31
0.0000
  0
LINE
  8
25
 10
16.2072
 20
60.3631
 30
0.0000
 11
16.2072
 21
59.8805
 31
0.0000
  0
LINE
  8
25
 10
16.0732
 20
59.8805
 30
0.0000
 11
16.3413
 21
59.8805
 31
0.0000
  0
INSERT
  8
51
  2
RECT
 10
14.4780
 20
58.4200
 30
0.0000
 41
0.5842
 42
0.5842
 43
1.0000
 50
0.0000
  0
INSERT
  8
51
  2
RECT
 10
17.0180
 20
58.4200
 30
0.0000
 41
0.5842
 42
0.5842
 43
1.0000
 50
0.0000
  0
POINT
  8
23
 10
58.4200
 20
38.8620
 30
0.0000
  0
LINE
  8
21
 10
57.1500
 20
38.2270
 30
0.0000
 11
57.1500
 21
39.4970
 31
0.0000
  0
LINE
  8
21
 10
57.1500
 20
39.4970
 30
0.0000
 11
57.7850
 21
40.1320
 31
0.0000
  0
LINE
  8
21
 10
59.0550
 20
40.1320
 30
0.0000
 11
59.6900
 21
39.4970
 31
0.0000
  0
LINE
  8
21
 10
57.7850
 20
40.1320
 30
0.0000
 11
57.1500
 21
40.7670
 31
0.0000
  0
LINE
  8
21
 10
57.1500
 20
40.7670
 30
0.0000
 11
57.1500
 21
42.0370
 31
0.0000
  0
LINE
  8
21
 10
57.1500
 20
42.0370
 30
0.0000
 11
57.7850
 21
42.6720
 31
0.0000
  0
LINE
  8
21
 10
59.0550
 20
42.6720
 30
0.0000
 11
59.6900
 21
42.0370
 31
0.0000
  0
LINE
  8
21
 10
59.6900
 20
42.0370
 30
0.0000
 11
59.6900
 21
40.7670
 31
0.0000
  0
LINE
  8
21
 10
59.6900
 20
40.7670
 30
0.0000
 11
59.0550
 21
40.1320
 31
0.0000
  0
LINE
  8
21
 10
57.7850
 20
37.5920
 30
0.0000
 11
59.0550
 21
37.5920
 31
0.0000
  0
LINE
  8
21
 10
57.1500
 20
38.2270
 30
0.0000
 11
57.7850
 21
37.5920
 31
0.0000
  0
LINE
  8
21
 10
59.0550
 20
37.5920
 30
0.0000
 11
59.6900
 21
38.2270
 31
0.0000
  0
LINE
  8
21
 10
59.6900
 20
39.4970
 30
0.0000
 11
59.6900
 21
38.2270
 31
0.0000
  0
LINE
  8
21
 10
57.7850
 20
42.6720
 30
0.0000
 11
59.0550
 21
42.6720
 31
0.0000
  0
LINE
  8
25
 10
56.9595
 20
37.6555
 30
0.0000
 11
56.4769
 21
37.6555
 31
0.0000
  0
LINE
  8
25
 10
56.4769
 20
37.6555
 30
0.0000
 11
56.4769
 21
37.7896
 31
0.0000
  0
ARC
  8
25
 10
56.6110
 20
37.7896
 30
0.0000
 40
0.1341
 50
0.0000
 51
180.0000
  0
LINE
  8
25
 10
56.7450
 20
37.7896
 30
0.0000
 11
56.7450
 21
37.6555
 31
0.0000
  0
LINE
  8
25
 10
56.8254
 20
38.1712
 30
0.0000
 11
56.6110
 21
38.1712
 31
0.0000
  0
ARC
  8
25
 10
56.6110
 20
38.3053
 30
0.0000
 40
0.1341
 50
90.0000
 51
270.0000
  0
LINE
  8
25
 10
56.6110
 20
38.4393
 30
0.0000
 11
56.8254
 21
38.4393
 31
0.0000
  0
ARC
  8
25
 10
56.8254
 20
38.3053
 30
0.0000
 40
0.1341
 50
270.0000
 51
90.0000
  0
LINE
  8
25
 10
56.4769
 20
38.7126
 30
0.0000
 11
56.9595
 21
38.8198
 31
0.0000
  0
LINE
  8
25
 10
56.9595
 20
38.8198
 30
0.0000
 11
56.6378
 21
38.9270
 31
0.0000
  0
LINE
  8
25
 10
56.6378
 20
38.9270
 30
0.0000
 11
56.9595
 21
39.0343
 31
0.0000
  0
LINE
  8
25
 10
56.9595
 20
39.0343
 30
0.0000
 11
56.4769
 21
39.1415
 31
0.0000
  0
LINE
  8
25
 10
56.9595
 20
39.6495
 30
0.0000
 11
56.9595
 21
39.4350
 31
0.0000
  0
LINE
  8
25
 10
56.9595
 20
39.4350
 30
0.0000
 11
56.4769
 21
39.4350
 31
0.0000
  0
LINE
  8
25
 10
56.4769
 20
39.4350
 30
0.0000
 11
56.4769
 21
39.6495
 31
0.0000
  0
LINE
  8
25
 10
56.6914
 20
39.4350
 30
0.0000
 11
56.6914
 21
39.5959
 31
0.0000
  0
LINE
  8
25
 10
56.9595
 20
39.9149
 30
0.0000
 11
56.4769
 21
39.9149
 31
0.0000
  0
LINE
  8
25
 10
56.4769
 20
39.9149
 30
0.0000
 11
56.4769
 21
40.0490
 31
0.0000
  0
ARC
  8
25
 10
56.6110
 20
40.0490
 30
0.0000
 40
0.1341
 50
0.0000
 51
180.0000
  0
LINE
  8
25
 10
56.7450
 20
40.0490
 30
0.0000
 11
56.7450
 21
39.9149
 31
0.0000
  0
LINE
  8
25
 10
56.9595
 20
40.1830
 30
0.0000
 11
56.7450
 21
40.0758
 31
0.0000
  0
LINE
  8
25
 10
56.8254
 20
40.4572
 30
0.0000
 11
56.6110
 21
40.4572
 31
0.0000
  0
ARC
  8
25
 10
56.6110
 20
40.5912
 30
0.0000
 40
0.1341
 50
90.0000
 51
270.0000
  0
LINE
  8
25
 10
56.6110
 20
40.7253
 30
0.0000
 11
56.8254
 21
40.7253
 31
0.0000
  0
ARC
  8
25
 10
56.8254
 20
40.5912
 30
0.0000
 40
0.1341
 50
270.0000
 51
90.0000
  0
LINE
  8
25
 10
56.4769
 20
41.0241
 30
0.0000
 11
56.8254
 21
41.0241
 31
0.0000
  0
ARC
  8
25
 10
56.8254
 20
41.1582
 30
0.0000
 40
0.1341
 50
270.0000
 51
90.0000
  0
LINE
  8
25
 10
56.8254
 20
41.2922
 30
0.0000
 11
56.4769
 21
41.2922
 31
0.0000
  0
LINE
  8
25
 10
56.9595
 20
41.6885
 30
0.0000
 11
56.4769
 21
41.6885
 31
0.0000
  0
LINE
  8
25
 10
56.4769
 20
41.5545
 30
0.0000
 11
56.4769
 21
41.8226
 31
0.0000
  0
LINE
  8
25
 10
56.5841
 20
42.0665
 30
0.0000
 11
56.4769
 21
42.2006
 31
0.0000
  0
LINE
  8
25
 10
56.4769
 20
42.2006
 30
0.0000
 11
56.9595
 21
42.2006
 31
0.0000
  0
LINE
  8
25
 10
56.9595
 20
42.0665
 30
0.0000
 11
56.9595
 21
42.3346
 31
0.0000
  0
INSERT
  8
51
  2
RECT
 10
58.4200
 20
38.8620
 30
0.0000
 41
0.5842
 42
0.5842
 43
1.0000
 50
90.0000
  0
INSERT
  8
51
  2
RECT
 10
58.4200
 20
41.4020
 30
0.0000
 41
0.5842
 42
0.5842
 43
1.0000
 50
90.0000
  0
POINT
  8
23
 10
12.7000
 20
45.7200
 30
0.0000
  0
TEXT
  7
ISOCP
  8
21
 10
8.8900
 20
48.2600
 30
0.0000
 40
1.2700
  1
U$1
  0
TEXT
  7
ISOCP
  8
21
 10
8.8900
 20
41.9100
 30
0.0000
 40
1.2700
  1
BRIDGE
  0
POINT
  8
23
 10
50.8000
 20
45.7200
 30
0.0000
  0
TEXT
  7
ISOCP
  8
21
 10
54.6100
 20
43.1800
 30
0.0000
 40
1.2700
  1
U$2
 72
2
 73
3
 11
54.6100
 21
43.1800
 31
0.0000
  0
TEXT
  7
ISOCP
  8
21
 10
54.6100
 20
49.5300
 30
0.0000
 40
1.2700
  1
BRIDGE
 72
2
 73
3
 11
54.6100
 21
49.5300
 31
0.0000
  0
POINT
  8
23
 10
50.8000
 20
17.7800
 30
0.0000
  0
TEXT
  7
ISOCP
  8
21
 10
54.6100
 20
15.2400
 30
0.0000
 40
1.2700
  1
U$3
 72
2
 73
3
 11
54.6100
 21
15.2400
 31
0.0000
  0
TEXT
  7
ISOCP
  8
21
 10
54.6100
 20
21.5900
 30
0.0000
 40
1.2700
  1
BRIDGE
 72
2
 73
3
 11
54.6100
 21
21.5900
 31
0.0000
  0
POINT
  8
23
 10
12.7000
 20
17.7800
 30
0.0000
  0
TEXT
  7
ISOCP
  8
21
 10
8.8900
 20
20.3200
 30
0.0000
 40
1.2700
  1
U$4
  0
TEXT
  7
ISOCP
  8
21
 10
8.8900
 20
13.9700
 30
0.0000
 40
1.2700
  1
BRIDGE
  0
POINT
  8
23
 10
22.6822
 20
37.9222
 30
0.0000
  0
TEXT
  7
ISOCP
  8
21
 10
20.1422
 20
34.1122
 30
0.0000
 40
1.2700
  1
U$12
 50
90.0000
  0
TEXT
  7
ISOCP
  8
21
 10
26.4922
 20
34.1122
 30
0.0000
 40
1.2700
  1
BRIDGE
 50
90.0000
  0
POINT
  8
23
 10
29.7180
 20
37.8460
 30
0.0000
  0
TEXT
  7
ISOCP
  8
21
 10
27.1780
 20
34.0360
 30
0.0000
 40
1.2700
  1
U$13
 50
90.0000
  0
TEXT
  7
ISOCP
  8
21
 10
33.5280
 20
34.0360
 30
0.0000
 40
1.2700
  1
BRIDGE
 50
90.0000
  0
POINT
  8
23
 10
35.4838
 20
37.7698
 30
0.0000
  0
TEXT
  7
ISOCP
  8
21
 10
32.9438
 20
33.9598
 30
0.0000
 40
1.2700
  1
U$14
 50
90.0000
  0
TEXT
  7
ISOCP
  8
21
 10
39.2938
 20
33.9598
 30
0.0000
 40
1.2700
  1
BRIDGE
 50
90.0000
  0
POINT
  8
23
 10
40.8940
 20
37.7444
 30
0.0000
  0
TEXT
  7
ISOCP
  8
21
 10
38.3540
 20
33.9344
 30
0.0000
 40
1.2700
  1
U$15
 50
90.0000
  0
TEXT
  7
ISOCP
  8
21
 10
44.7040
 20
33.9344
 30
0.0000
 40
1.2700
  1
BRIDGE
 50
90.0000
  0
ENDSEC
  0
EOF
