G75*
%MOIN*%
%OFA0B0*%
%FSLAX25Y25*%
%IPPOS*%
%LPD*%
%AMOC8*
5,1,8,0,0,1.08239X$1,22.5*
%
%ADD10C,0.00000*%
%ADD11C,0.00600*%
D10*
X0010087Y0017563D02*
X0010089Y0017756D01*
X0010096Y0017949D01*
X0010108Y0018142D01*
X0010125Y0018335D01*
X0010146Y0018527D01*
X0010172Y0018718D01*
X0010203Y0018909D01*
X0010238Y0019099D01*
X0010278Y0019288D01*
X0010323Y0019476D01*
X0010372Y0019663D01*
X0010426Y0019849D01*
X0010484Y0020033D01*
X0010547Y0020216D01*
X0010615Y0020397D01*
X0010686Y0020576D01*
X0010763Y0020754D01*
X0010843Y0020930D01*
X0010928Y0021103D01*
X0011017Y0021275D01*
X0011110Y0021444D01*
X0011207Y0021611D01*
X0011309Y0021776D01*
X0011414Y0021938D01*
X0011523Y0022097D01*
X0011637Y0022254D01*
X0011754Y0022407D01*
X0011874Y0022558D01*
X0011999Y0022706D01*
X0012127Y0022851D01*
X0012258Y0022992D01*
X0012393Y0023131D01*
X0012532Y0023266D01*
X0012673Y0023397D01*
X0012818Y0023525D01*
X0012966Y0023650D01*
X0013117Y0023770D01*
X0013270Y0023887D01*
X0013427Y0024001D01*
X0013586Y0024110D01*
X0013748Y0024215D01*
X0013913Y0024317D01*
X0014080Y0024414D01*
X0014249Y0024507D01*
X0014421Y0024596D01*
X0014594Y0024681D01*
X0014770Y0024761D01*
X0014948Y0024838D01*
X0015127Y0024909D01*
X0015308Y0024977D01*
X0015491Y0025040D01*
X0015675Y0025098D01*
X0015861Y0025152D01*
X0016048Y0025201D01*
X0016236Y0025246D01*
X0016425Y0025286D01*
X0016615Y0025321D01*
X0016806Y0025352D01*
X0016997Y0025378D01*
X0017189Y0025399D01*
X0017382Y0025416D01*
X0017575Y0025428D01*
X0017768Y0025435D01*
X0017961Y0025437D01*
X0018154Y0025435D01*
X0018347Y0025428D01*
X0018540Y0025416D01*
X0018733Y0025399D01*
X0018925Y0025378D01*
X0019116Y0025352D01*
X0019307Y0025321D01*
X0019497Y0025286D01*
X0019686Y0025246D01*
X0019874Y0025201D01*
X0020061Y0025152D01*
X0020247Y0025098D01*
X0020431Y0025040D01*
X0020614Y0024977D01*
X0020795Y0024909D01*
X0020974Y0024838D01*
X0021152Y0024761D01*
X0021328Y0024681D01*
X0021501Y0024596D01*
X0021673Y0024507D01*
X0021842Y0024414D01*
X0022009Y0024317D01*
X0022174Y0024215D01*
X0022336Y0024110D01*
X0022495Y0024001D01*
X0022652Y0023887D01*
X0022805Y0023770D01*
X0022956Y0023650D01*
X0023104Y0023525D01*
X0023249Y0023397D01*
X0023390Y0023266D01*
X0023529Y0023131D01*
X0023664Y0022992D01*
X0023795Y0022851D01*
X0023923Y0022706D01*
X0024048Y0022558D01*
X0024168Y0022407D01*
X0024285Y0022254D01*
X0024399Y0022097D01*
X0024508Y0021938D01*
X0024613Y0021776D01*
X0024715Y0021611D01*
X0024812Y0021444D01*
X0024905Y0021275D01*
X0024994Y0021103D01*
X0025079Y0020930D01*
X0025159Y0020754D01*
X0025236Y0020576D01*
X0025307Y0020397D01*
X0025375Y0020216D01*
X0025438Y0020033D01*
X0025496Y0019849D01*
X0025550Y0019663D01*
X0025599Y0019476D01*
X0025644Y0019288D01*
X0025684Y0019099D01*
X0025719Y0018909D01*
X0025750Y0018718D01*
X0025776Y0018527D01*
X0025797Y0018335D01*
X0025814Y0018142D01*
X0025826Y0017949D01*
X0025833Y0017756D01*
X0025835Y0017563D01*
X0025833Y0017370D01*
X0025826Y0017177D01*
X0025814Y0016984D01*
X0025797Y0016791D01*
X0025776Y0016599D01*
X0025750Y0016408D01*
X0025719Y0016217D01*
X0025684Y0016027D01*
X0025644Y0015838D01*
X0025599Y0015650D01*
X0025550Y0015463D01*
X0025496Y0015277D01*
X0025438Y0015093D01*
X0025375Y0014910D01*
X0025307Y0014729D01*
X0025236Y0014550D01*
X0025159Y0014372D01*
X0025079Y0014196D01*
X0024994Y0014023D01*
X0024905Y0013851D01*
X0024812Y0013682D01*
X0024715Y0013515D01*
X0024613Y0013350D01*
X0024508Y0013188D01*
X0024399Y0013029D01*
X0024285Y0012872D01*
X0024168Y0012719D01*
X0024048Y0012568D01*
X0023923Y0012420D01*
X0023795Y0012275D01*
X0023664Y0012134D01*
X0023529Y0011995D01*
X0023390Y0011860D01*
X0023249Y0011729D01*
X0023104Y0011601D01*
X0022956Y0011476D01*
X0022805Y0011356D01*
X0022652Y0011239D01*
X0022495Y0011125D01*
X0022336Y0011016D01*
X0022174Y0010911D01*
X0022009Y0010809D01*
X0021842Y0010712D01*
X0021673Y0010619D01*
X0021501Y0010530D01*
X0021328Y0010445D01*
X0021152Y0010365D01*
X0020974Y0010288D01*
X0020795Y0010217D01*
X0020614Y0010149D01*
X0020431Y0010086D01*
X0020247Y0010028D01*
X0020061Y0009974D01*
X0019874Y0009925D01*
X0019686Y0009880D01*
X0019497Y0009840D01*
X0019307Y0009805D01*
X0019116Y0009774D01*
X0018925Y0009748D01*
X0018733Y0009727D01*
X0018540Y0009710D01*
X0018347Y0009698D01*
X0018154Y0009691D01*
X0017961Y0009689D01*
X0017768Y0009691D01*
X0017575Y0009698D01*
X0017382Y0009710D01*
X0017189Y0009727D01*
X0016997Y0009748D01*
X0016806Y0009774D01*
X0016615Y0009805D01*
X0016425Y0009840D01*
X0016236Y0009880D01*
X0016048Y0009925D01*
X0015861Y0009974D01*
X0015675Y0010028D01*
X0015491Y0010086D01*
X0015308Y0010149D01*
X0015127Y0010217D01*
X0014948Y0010288D01*
X0014770Y0010365D01*
X0014594Y0010445D01*
X0014421Y0010530D01*
X0014249Y0010619D01*
X0014080Y0010712D01*
X0013913Y0010809D01*
X0013748Y0010911D01*
X0013586Y0011016D01*
X0013427Y0011125D01*
X0013270Y0011239D01*
X0013117Y0011356D01*
X0012966Y0011476D01*
X0012818Y0011601D01*
X0012673Y0011729D01*
X0012532Y0011860D01*
X0012393Y0011995D01*
X0012258Y0012134D01*
X0012127Y0012275D01*
X0011999Y0012420D01*
X0011874Y0012568D01*
X0011754Y0012719D01*
X0011637Y0012872D01*
X0011523Y0013029D01*
X0011414Y0013188D01*
X0011309Y0013350D01*
X0011207Y0013515D01*
X0011110Y0013682D01*
X0011017Y0013851D01*
X0010928Y0014023D01*
X0010843Y0014196D01*
X0010763Y0014372D01*
X0010686Y0014550D01*
X0010615Y0014729D01*
X0010547Y0014910D01*
X0010484Y0015093D01*
X0010426Y0015277D01*
X0010372Y0015463D01*
X0010323Y0015650D01*
X0010278Y0015838D01*
X0010238Y0016027D01*
X0010203Y0016217D01*
X0010172Y0016408D01*
X0010146Y0016599D01*
X0010125Y0016791D01*
X0010108Y0016984D01*
X0010096Y0017177D01*
X0010089Y0017370D01*
X0010087Y0017563D01*
X0068020Y0017209D02*
X0068022Y0017300D01*
X0068028Y0017390D01*
X0068038Y0017481D01*
X0068052Y0017570D01*
X0068070Y0017659D01*
X0068091Y0017748D01*
X0068117Y0017835D01*
X0068146Y0017921D01*
X0068180Y0018005D01*
X0068216Y0018088D01*
X0068257Y0018170D01*
X0068301Y0018249D01*
X0068348Y0018327D01*
X0068399Y0018402D01*
X0068453Y0018475D01*
X0068510Y0018545D01*
X0068570Y0018613D01*
X0068633Y0018679D01*
X0068699Y0018741D01*
X0068768Y0018800D01*
X0068839Y0018857D01*
X0068913Y0018910D01*
X0068989Y0018960D01*
X0069067Y0019007D01*
X0069147Y0019050D01*
X0069228Y0019089D01*
X0069312Y0019125D01*
X0069397Y0019157D01*
X0069483Y0019186D01*
X0069570Y0019210D01*
X0069659Y0019231D01*
X0069748Y0019248D01*
X0069838Y0019261D01*
X0069928Y0019270D01*
X0070019Y0019275D01*
X0070110Y0019276D01*
X0070200Y0019273D01*
X0070291Y0019266D01*
X0070381Y0019255D01*
X0070471Y0019240D01*
X0070560Y0019221D01*
X0070648Y0019199D01*
X0070734Y0019172D01*
X0070820Y0019142D01*
X0070904Y0019108D01*
X0070987Y0019070D01*
X0071068Y0019029D01*
X0071147Y0018984D01*
X0071224Y0018935D01*
X0071298Y0018884D01*
X0071371Y0018829D01*
X0071441Y0018771D01*
X0071508Y0018710D01*
X0071572Y0018646D01*
X0071634Y0018580D01*
X0071693Y0018510D01*
X0071748Y0018439D01*
X0071801Y0018364D01*
X0071850Y0018288D01*
X0071896Y0018210D01*
X0071938Y0018129D01*
X0071977Y0018047D01*
X0072012Y0017963D01*
X0072043Y0017878D01*
X0072070Y0017791D01*
X0072094Y0017704D01*
X0072114Y0017615D01*
X0072130Y0017526D01*
X0072142Y0017436D01*
X0072150Y0017345D01*
X0072154Y0017254D01*
X0072154Y0017164D01*
X0072150Y0017073D01*
X0072142Y0016982D01*
X0072130Y0016892D01*
X0072114Y0016803D01*
X0072094Y0016714D01*
X0072070Y0016627D01*
X0072043Y0016540D01*
X0072012Y0016455D01*
X0071977Y0016371D01*
X0071938Y0016289D01*
X0071896Y0016208D01*
X0071850Y0016130D01*
X0071801Y0016054D01*
X0071748Y0015979D01*
X0071693Y0015908D01*
X0071634Y0015838D01*
X0071572Y0015772D01*
X0071508Y0015708D01*
X0071441Y0015647D01*
X0071371Y0015589D01*
X0071298Y0015534D01*
X0071224Y0015483D01*
X0071147Y0015434D01*
X0071068Y0015389D01*
X0070987Y0015348D01*
X0070904Y0015310D01*
X0070820Y0015276D01*
X0070734Y0015246D01*
X0070648Y0015219D01*
X0070560Y0015197D01*
X0070471Y0015178D01*
X0070381Y0015163D01*
X0070291Y0015152D01*
X0070200Y0015145D01*
X0070110Y0015142D01*
X0070019Y0015143D01*
X0069928Y0015148D01*
X0069838Y0015157D01*
X0069748Y0015170D01*
X0069659Y0015187D01*
X0069570Y0015208D01*
X0069483Y0015232D01*
X0069397Y0015261D01*
X0069312Y0015293D01*
X0069228Y0015329D01*
X0069147Y0015368D01*
X0069067Y0015411D01*
X0068989Y0015458D01*
X0068913Y0015508D01*
X0068839Y0015561D01*
X0068768Y0015618D01*
X0068699Y0015677D01*
X0068633Y0015739D01*
X0068570Y0015805D01*
X0068510Y0015873D01*
X0068453Y0015943D01*
X0068399Y0016016D01*
X0068348Y0016091D01*
X0068301Y0016169D01*
X0068257Y0016248D01*
X0068216Y0016330D01*
X0068180Y0016413D01*
X0068146Y0016497D01*
X0068117Y0016583D01*
X0068091Y0016670D01*
X0068070Y0016759D01*
X0068052Y0016848D01*
X0068038Y0016937D01*
X0068028Y0017028D01*
X0068022Y0017118D01*
X0068020Y0017209D01*
X0068020Y0025831D02*
X0068022Y0025922D01*
X0068028Y0026012D01*
X0068038Y0026103D01*
X0068052Y0026192D01*
X0068070Y0026281D01*
X0068091Y0026370D01*
X0068117Y0026457D01*
X0068146Y0026543D01*
X0068180Y0026627D01*
X0068216Y0026710D01*
X0068257Y0026792D01*
X0068301Y0026871D01*
X0068348Y0026949D01*
X0068399Y0027024D01*
X0068453Y0027097D01*
X0068510Y0027167D01*
X0068570Y0027235D01*
X0068633Y0027301D01*
X0068699Y0027363D01*
X0068768Y0027422D01*
X0068839Y0027479D01*
X0068913Y0027532D01*
X0068989Y0027582D01*
X0069067Y0027629D01*
X0069147Y0027672D01*
X0069228Y0027711D01*
X0069312Y0027747D01*
X0069397Y0027779D01*
X0069483Y0027808D01*
X0069570Y0027832D01*
X0069659Y0027853D01*
X0069748Y0027870D01*
X0069838Y0027883D01*
X0069928Y0027892D01*
X0070019Y0027897D01*
X0070110Y0027898D01*
X0070200Y0027895D01*
X0070291Y0027888D01*
X0070381Y0027877D01*
X0070471Y0027862D01*
X0070560Y0027843D01*
X0070648Y0027821D01*
X0070734Y0027794D01*
X0070820Y0027764D01*
X0070904Y0027730D01*
X0070987Y0027692D01*
X0071068Y0027651D01*
X0071147Y0027606D01*
X0071224Y0027557D01*
X0071298Y0027506D01*
X0071371Y0027451D01*
X0071441Y0027393D01*
X0071508Y0027332D01*
X0071572Y0027268D01*
X0071634Y0027202D01*
X0071693Y0027132D01*
X0071748Y0027061D01*
X0071801Y0026986D01*
X0071850Y0026910D01*
X0071896Y0026832D01*
X0071938Y0026751D01*
X0071977Y0026669D01*
X0072012Y0026585D01*
X0072043Y0026500D01*
X0072070Y0026413D01*
X0072094Y0026326D01*
X0072114Y0026237D01*
X0072130Y0026148D01*
X0072142Y0026058D01*
X0072150Y0025967D01*
X0072154Y0025876D01*
X0072154Y0025786D01*
X0072150Y0025695D01*
X0072142Y0025604D01*
X0072130Y0025514D01*
X0072114Y0025425D01*
X0072094Y0025336D01*
X0072070Y0025249D01*
X0072043Y0025162D01*
X0072012Y0025077D01*
X0071977Y0024993D01*
X0071938Y0024911D01*
X0071896Y0024830D01*
X0071850Y0024752D01*
X0071801Y0024676D01*
X0071748Y0024601D01*
X0071693Y0024530D01*
X0071634Y0024460D01*
X0071572Y0024394D01*
X0071508Y0024330D01*
X0071441Y0024269D01*
X0071371Y0024211D01*
X0071298Y0024156D01*
X0071224Y0024105D01*
X0071147Y0024056D01*
X0071068Y0024011D01*
X0070987Y0023970D01*
X0070904Y0023932D01*
X0070820Y0023898D01*
X0070734Y0023868D01*
X0070648Y0023841D01*
X0070560Y0023819D01*
X0070471Y0023800D01*
X0070381Y0023785D01*
X0070291Y0023774D01*
X0070200Y0023767D01*
X0070110Y0023764D01*
X0070019Y0023765D01*
X0069928Y0023770D01*
X0069838Y0023779D01*
X0069748Y0023792D01*
X0069659Y0023809D01*
X0069570Y0023830D01*
X0069483Y0023854D01*
X0069397Y0023883D01*
X0069312Y0023915D01*
X0069228Y0023951D01*
X0069147Y0023990D01*
X0069067Y0024033D01*
X0068989Y0024080D01*
X0068913Y0024130D01*
X0068839Y0024183D01*
X0068768Y0024240D01*
X0068699Y0024299D01*
X0068633Y0024361D01*
X0068570Y0024427D01*
X0068510Y0024495D01*
X0068453Y0024565D01*
X0068399Y0024638D01*
X0068348Y0024713D01*
X0068301Y0024791D01*
X0068257Y0024870D01*
X0068216Y0024952D01*
X0068180Y0025035D01*
X0068146Y0025119D01*
X0068117Y0025205D01*
X0068091Y0025292D01*
X0068070Y0025381D01*
X0068052Y0025470D01*
X0068038Y0025559D01*
X0068028Y0025650D01*
X0068022Y0025740D01*
X0068020Y0025831D01*
X0082645Y0021697D02*
X0082647Y0021828D01*
X0082653Y0021960D01*
X0082663Y0022091D01*
X0082677Y0022222D01*
X0082695Y0022352D01*
X0082717Y0022481D01*
X0082742Y0022610D01*
X0082772Y0022738D01*
X0082806Y0022865D01*
X0082843Y0022992D01*
X0082884Y0023116D01*
X0082929Y0023240D01*
X0082978Y0023362D01*
X0083030Y0023483D01*
X0083086Y0023601D01*
X0083146Y0023719D01*
X0083209Y0023834D01*
X0083276Y0023947D01*
X0083346Y0024059D01*
X0083419Y0024168D01*
X0083495Y0024274D01*
X0083575Y0024379D01*
X0083658Y0024481D01*
X0083744Y0024580D01*
X0083833Y0024677D01*
X0083925Y0024771D01*
X0084020Y0024862D01*
X0084117Y0024951D01*
X0084217Y0025036D01*
X0084320Y0025118D01*
X0084425Y0025197D01*
X0084532Y0025273D01*
X0084642Y0025345D01*
X0084754Y0025414D01*
X0084868Y0025480D01*
X0084983Y0025542D01*
X0085101Y0025601D01*
X0085220Y0025656D01*
X0085341Y0025708D01*
X0085464Y0025755D01*
X0085588Y0025799D01*
X0085713Y0025840D01*
X0085839Y0025876D01*
X0085967Y0025909D01*
X0086095Y0025937D01*
X0086224Y0025962D01*
X0086354Y0025983D01*
X0086484Y0026000D01*
X0086615Y0026013D01*
X0086746Y0026022D01*
X0086877Y0026027D01*
X0087009Y0026028D01*
X0087140Y0026025D01*
X0087272Y0026018D01*
X0087403Y0026007D01*
X0087533Y0025992D01*
X0087663Y0025973D01*
X0087793Y0025950D01*
X0087921Y0025924D01*
X0088049Y0025893D01*
X0088176Y0025858D01*
X0088302Y0025820D01*
X0088426Y0025778D01*
X0088550Y0025732D01*
X0088671Y0025682D01*
X0088791Y0025629D01*
X0088910Y0025572D01*
X0089027Y0025512D01*
X0089141Y0025448D01*
X0089254Y0025380D01*
X0089365Y0025309D01*
X0089474Y0025235D01*
X0089580Y0025158D01*
X0089684Y0025077D01*
X0089785Y0024994D01*
X0089884Y0024907D01*
X0089980Y0024817D01*
X0090073Y0024724D01*
X0090164Y0024629D01*
X0090251Y0024531D01*
X0090336Y0024430D01*
X0090417Y0024327D01*
X0090495Y0024221D01*
X0090570Y0024113D01*
X0090642Y0024003D01*
X0090710Y0023891D01*
X0090775Y0023777D01*
X0090836Y0023660D01*
X0090894Y0023542D01*
X0090948Y0023422D01*
X0090999Y0023301D01*
X0091046Y0023178D01*
X0091089Y0023054D01*
X0091128Y0022929D01*
X0091164Y0022802D01*
X0091195Y0022674D01*
X0091223Y0022546D01*
X0091247Y0022417D01*
X0091267Y0022287D01*
X0091283Y0022156D01*
X0091295Y0022025D01*
X0091303Y0021894D01*
X0091307Y0021763D01*
X0091307Y0021631D01*
X0091303Y0021500D01*
X0091295Y0021369D01*
X0091283Y0021238D01*
X0091267Y0021107D01*
X0091247Y0020977D01*
X0091223Y0020848D01*
X0091195Y0020720D01*
X0091164Y0020592D01*
X0091128Y0020465D01*
X0091089Y0020340D01*
X0091046Y0020216D01*
X0090999Y0020093D01*
X0090948Y0019972D01*
X0090894Y0019852D01*
X0090836Y0019734D01*
X0090775Y0019617D01*
X0090710Y0019503D01*
X0090642Y0019391D01*
X0090570Y0019281D01*
X0090495Y0019173D01*
X0090417Y0019067D01*
X0090336Y0018964D01*
X0090251Y0018863D01*
X0090164Y0018765D01*
X0090073Y0018670D01*
X0089980Y0018577D01*
X0089884Y0018487D01*
X0089785Y0018400D01*
X0089684Y0018317D01*
X0089580Y0018236D01*
X0089474Y0018159D01*
X0089365Y0018085D01*
X0089254Y0018014D01*
X0089142Y0017946D01*
X0089027Y0017882D01*
X0088910Y0017822D01*
X0088791Y0017765D01*
X0088671Y0017712D01*
X0088550Y0017662D01*
X0088426Y0017616D01*
X0088302Y0017574D01*
X0088176Y0017536D01*
X0088049Y0017501D01*
X0087921Y0017470D01*
X0087793Y0017444D01*
X0087663Y0017421D01*
X0087533Y0017402D01*
X0087403Y0017387D01*
X0087272Y0017376D01*
X0087140Y0017369D01*
X0087009Y0017366D01*
X0086877Y0017367D01*
X0086746Y0017372D01*
X0086615Y0017381D01*
X0086484Y0017394D01*
X0086354Y0017411D01*
X0086224Y0017432D01*
X0086095Y0017457D01*
X0085967Y0017485D01*
X0085839Y0017518D01*
X0085713Y0017554D01*
X0085588Y0017595D01*
X0085464Y0017639D01*
X0085341Y0017686D01*
X0085220Y0017738D01*
X0085101Y0017793D01*
X0084983Y0017852D01*
X0084868Y0017914D01*
X0084754Y0017980D01*
X0084642Y0018049D01*
X0084532Y0018121D01*
X0084425Y0018197D01*
X0084320Y0018276D01*
X0084217Y0018358D01*
X0084117Y0018443D01*
X0084020Y0018532D01*
X0083925Y0018623D01*
X0083833Y0018717D01*
X0083744Y0018814D01*
X0083658Y0018913D01*
X0083575Y0019015D01*
X0083495Y0019120D01*
X0083419Y0019226D01*
X0083346Y0019335D01*
X0083276Y0019447D01*
X0083209Y0019560D01*
X0083146Y0019675D01*
X0083086Y0019793D01*
X0083030Y0019911D01*
X0082978Y0020032D01*
X0082929Y0020154D01*
X0082884Y0020278D01*
X0082843Y0020402D01*
X0082806Y0020529D01*
X0082772Y0020656D01*
X0082742Y0020784D01*
X0082717Y0020913D01*
X0082695Y0021042D01*
X0082677Y0021172D01*
X0082663Y0021303D01*
X0082653Y0021434D01*
X0082647Y0021566D01*
X0082645Y0021697D01*
X0123138Y0025831D02*
X0123140Y0025922D01*
X0123146Y0026012D01*
X0123156Y0026103D01*
X0123170Y0026192D01*
X0123188Y0026281D01*
X0123209Y0026370D01*
X0123235Y0026457D01*
X0123264Y0026543D01*
X0123298Y0026627D01*
X0123334Y0026710D01*
X0123375Y0026792D01*
X0123419Y0026871D01*
X0123466Y0026949D01*
X0123517Y0027024D01*
X0123571Y0027097D01*
X0123628Y0027167D01*
X0123688Y0027235D01*
X0123751Y0027301D01*
X0123817Y0027363D01*
X0123886Y0027422D01*
X0123957Y0027479D01*
X0124031Y0027532D01*
X0124107Y0027582D01*
X0124185Y0027629D01*
X0124265Y0027672D01*
X0124346Y0027711D01*
X0124430Y0027747D01*
X0124515Y0027779D01*
X0124601Y0027808D01*
X0124688Y0027832D01*
X0124777Y0027853D01*
X0124866Y0027870D01*
X0124956Y0027883D01*
X0125046Y0027892D01*
X0125137Y0027897D01*
X0125228Y0027898D01*
X0125318Y0027895D01*
X0125409Y0027888D01*
X0125499Y0027877D01*
X0125589Y0027862D01*
X0125678Y0027843D01*
X0125766Y0027821D01*
X0125852Y0027794D01*
X0125938Y0027764D01*
X0126022Y0027730D01*
X0126105Y0027692D01*
X0126186Y0027651D01*
X0126265Y0027606D01*
X0126342Y0027557D01*
X0126416Y0027506D01*
X0126489Y0027451D01*
X0126559Y0027393D01*
X0126626Y0027332D01*
X0126690Y0027268D01*
X0126752Y0027202D01*
X0126811Y0027132D01*
X0126866Y0027061D01*
X0126919Y0026986D01*
X0126968Y0026910D01*
X0127014Y0026832D01*
X0127056Y0026751D01*
X0127095Y0026669D01*
X0127130Y0026585D01*
X0127161Y0026500D01*
X0127188Y0026413D01*
X0127212Y0026326D01*
X0127232Y0026237D01*
X0127248Y0026148D01*
X0127260Y0026058D01*
X0127268Y0025967D01*
X0127272Y0025876D01*
X0127272Y0025786D01*
X0127268Y0025695D01*
X0127260Y0025604D01*
X0127248Y0025514D01*
X0127232Y0025425D01*
X0127212Y0025336D01*
X0127188Y0025249D01*
X0127161Y0025162D01*
X0127130Y0025077D01*
X0127095Y0024993D01*
X0127056Y0024911D01*
X0127014Y0024830D01*
X0126968Y0024752D01*
X0126919Y0024676D01*
X0126866Y0024601D01*
X0126811Y0024530D01*
X0126752Y0024460D01*
X0126690Y0024394D01*
X0126626Y0024330D01*
X0126559Y0024269D01*
X0126489Y0024211D01*
X0126416Y0024156D01*
X0126342Y0024105D01*
X0126265Y0024056D01*
X0126186Y0024011D01*
X0126105Y0023970D01*
X0126022Y0023932D01*
X0125938Y0023898D01*
X0125852Y0023868D01*
X0125766Y0023841D01*
X0125678Y0023819D01*
X0125589Y0023800D01*
X0125499Y0023785D01*
X0125409Y0023774D01*
X0125318Y0023767D01*
X0125228Y0023764D01*
X0125137Y0023765D01*
X0125046Y0023770D01*
X0124956Y0023779D01*
X0124866Y0023792D01*
X0124777Y0023809D01*
X0124688Y0023830D01*
X0124601Y0023854D01*
X0124515Y0023883D01*
X0124430Y0023915D01*
X0124346Y0023951D01*
X0124265Y0023990D01*
X0124185Y0024033D01*
X0124107Y0024080D01*
X0124031Y0024130D01*
X0123957Y0024183D01*
X0123886Y0024240D01*
X0123817Y0024299D01*
X0123751Y0024361D01*
X0123688Y0024427D01*
X0123628Y0024495D01*
X0123571Y0024565D01*
X0123517Y0024638D01*
X0123466Y0024713D01*
X0123419Y0024791D01*
X0123375Y0024870D01*
X0123334Y0024952D01*
X0123298Y0025035D01*
X0123264Y0025119D01*
X0123235Y0025205D01*
X0123209Y0025292D01*
X0123188Y0025381D01*
X0123170Y0025470D01*
X0123156Y0025559D01*
X0123146Y0025650D01*
X0123140Y0025740D01*
X0123138Y0025831D01*
X0123138Y0017209D02*
X0123140Y0017300D01*
X0123146Y0017390D01*
X0123156Y0017481D01*
X0123170Y0017570D01*
X0123188Y0017659D01*
X0123209Y0017748D01*
X0123235Y0017835D01*
X0123264Y0017921D01*
X0123298Y0018005D01*
X0123334Y0018088D01*
X0123375Y0018170D01*
X0123419Y0018249D01*
X0123466Y0018327D01*
X0123517Y0018402D01*
X0123571Y0018475D01*
X0123628Y0018545D01*
X0123688Y0018613D01*
X0123751Y0018679D01*
X0123817Y0018741D01*
X0123886Y0018800D01*
X0123957Y0018857D01*
X0124031Y0018910D01*
X0124107Y0018960D01*
X0124185Y0019007D01*
X0124265Y0019050D01*
X0124346Y0019089D01*
X0124430Y0019125D01*
X0124515Y0019157D01*
X0124601Y0019186D01*
X0124688Y0019210D01*
X0124777Y0019231D01*
X0124866Y0019248D01*
X0124956Y0019261D01*
X0125046Y0019270D01*
X0125137Y0019275D01*
X0125228Y0019276D01*
X0125318Y0019273D01*
X0125409Y0019266D01*
X0125499Y0019255D01*
X0125589Y0019240D01*
X0125678Y0019221D01*
X0125766Y0019199D01*
X0125852Y0019172D01*
X0125938Y0019142D01*
X0126022Y0019108D01*
X0126105Y0019070D01*
X0126186Y0019029D01*
X0126265Y0018984D01*
X0126342Y0018935D01*
X0126416Y0018884D01*
X0126489Y0018829D01*
X0126559Y0018771D01*
X0126626Y0018710D01*
X0126690Y0018646D01*
X0126752Y0018580D01*
X0126811Y0018510D01*
X0126866Y0018439D01*
X0126919Y0018364D01*
X0126968Y0018288D01*
X0127014Y0018210D01*
X0127056Y0018129D01*
X0127095Y0018047D01*
X0127130Y0017963D01*
X0127161Y0017878D01*
X0127188Y0017791D01*
X0127212Y0017704D01*
X0127232Y0017615D01*
X0127248Y0017526D01*
X0127260Y0017436D01*
X0127268Y0017345D01*
X0127272Y0017254D01*
X0127272Y0017164D01*
X0127268Y0017073D01*
X0127260Y0016982D01*
X0127248Y0016892D01*
X0127232Y0016803D01*
X0127212Y0016714D01*
X0127188Y0016627D01*
X0127161Y0016540D01*
X0127130Y0016455D01*
X0127095Y0016371D01*
X0127056Y0016289D01*
X0127014Y0016208D01*
X0126968Y0016130D01*
X0126919Y0016054D01*
X0126866Y0015979D01*
X0126811Y0015908D01*
X0126752Y0015838D01*
X0126690Y0015772D01*
X0126626Y0015708D01*
X0126559Y0015647D01*
X0126489Y0015589D01*
X0126416Y0015534D01*
X0126342Y0015483D01*
X0126265Y0015434D01*
X0126186Y0015389D01*
X0126105Y0015348D01*
X0126022Y0015310D01*
X0125938Y0015276D01*
X0125852Y0015246D01*
X0125766Y0015219D01*
X0125678Y0015197D01*
X0125589Y0015178D01*
X0125499Y0015163D01*
X0125409Y0015152D01*
X0125318Y0015145D01*
X0125228Y0015142D01*
X0125137Y0015143D01*
X0125046Y0015148D01*
X0124956Y0015157D01*
X0124866Y0015170D01*
X0124777Y0015187D01*
X0124688Y0015208D01*
X0124601Y0015232D01*
X0124515Y0015261D01*
X0124430Y0015293D01*
X0124346Y0015329D01*
X0124265Y0015368D01*
X0124185Y0015411D01*
X0124107Y0015458D01*
X0124031Y0015508D01*
X0123957Y0015561D01*
X0123886Y0015618D01*
X0123817Y0015677D01*
X0123751Y0015739D01*
X0123688Y0015805D01*
X0123628Y0015873D01*
X0123571Y0015943D01*
X0123517Y0016016D01*
X0123466Y0016091D01*
X0123419Y0016169D01*
X0123375Y0016248D01*
X0123334Y0016330D01*
X0123298Y0016413D01*
X0123264Y0016497D01*
X0123235Y0016583D01*
X0123209Y0016670D01*
X0123188Y0016759D01*
X0123170Y0016848D01*
X0123156Y0016937D01*
X0123146Y0017028D01*
X0123140Y0017118D01*
X0123138Y0017209D01*
X0137763Y0021697D02*
X0137765Y0021828D01*
X0137771Y0021960D01*
X0137781Y0022091D01*
X0137795Y0022222D01*
X0137813Y0022352D01*
X0137835Y0022481D01*
X0137860Y0022610D01*
X0137890Y0022738D01*
X0137924Y0022865D01*
X0137961Y0022992D01*
X0138002Y0023116D01*
X0138047Y0023240D01*
X0138096Y0023362D01*
X0138148Y0023483D01*
X0138204Y0023601D01*
X0138264Y0023719D01*
X0138327Y0023834D01*
X0138394Y0023947D01*
X0138464Y0024059D01*
X0138537Y0024168D01*
X0138613Y0024274D01*
X0138693Y0024379D01*
X0138776Y0024481D01*
X0138862Y0024580D01*
X0138951Y0024677D01*
X0139043Y0024771D01*
X0139138Y0024862D01*
X0139235Y0024951D01*
X0139335Y0025036D01*
X0139438Y0025118D01*
X0139543Y0025197D01*
X0139650Y0025273D01*
X0139760Y0025345D01*
X0139872Y0025414D01*
X0139986Y0025480D01*
X0140101Y0025542D01*
X0140219Y0025601D01*
X0140338Y0025656D01*
X0140459Y0025708D01*
X0140582Y0025755D01*
X0140706Y0025799D01*
X0140831Y0025840D01*
X0140957Y0025876D01*
X0141085Y0025909D01*
X0141213Y0025937D01*
X0141342Y0025962D01*
X0141472Y0025983D01*
X0141602Y0026000D01*
X0141733Y0026013D01*
X0141864Y0026022D01*
X0141995Y0026027D01*
X0142127Y0026028D01*
X0142258Y0026025D01*
X0142390Y0026018D01*
X0142521Y0026007D01*
X0142651Y0025992D01*
X0142781Y0025973D01*
X0142911Y0025950D01*
X0143039Y0025924D01*
X0143167Y0025893D01*
X0143294Y0025858D01*
X0143420Y0025820D01*
X0143544Y0025778D01*
X0143668Y0025732D01*
X0143789Y0025682D01*
X0143909Y0025629D01*
X0144028Y0025572D01*
X0144145Y0025512D01*
X0144259Y0025448D01*
X0144372Y0025380D01*
X0144483Y0025309D01*
X0144592Y0025235D01*
X0144698Y0025158D01*
X0144802Y0025077D01*
X0144903Y0024994D01*
X0145002Y0024907D01*
X0145098Y0024817D01*
X0145191Y0024724D01*
X0145282Y0024629D01*
X0145369Y0024531D01*
X0145454Y0024430D01*
X0145535Y0024327D01*
X0145613Y0024221D01*
X0145688Y0024113D01*
X0145760Y0024003D01*
X0145828Y0023891D01*
X0145893Y0023777D01*
X0145954Y0023660D01*
X0146012Y0023542D01*
X0146066Y0023422D01*
X0146117Y0023301D01*
X0146164Y0023178D01*
X0146207Y0023054D01*
X0146246Y0022929D01*
X0146282Y0022802D01*
X0146313Y0022674D01*
X0146341Y0022546D01*
X0146365Y0022417D01*
X0146385Y0022287D01*
X0146401Y0022156D01*
X0146413Y0022025D01*
X0146421Y0021894D01*
X0146425Y0021763D01*
X0146425Y0021631D01*
X0146421Y0021500D01*
X0146413Y0021369D01*
X0146401Y0021238D01*
X0146385Y0021107D01*
X0146365Y0020977D01*
X0146341Y0020848D01*
X0146313Y0020720D01*
X0146282Y0020592D01*
X0146246Y0020465D01*
X0146207Y0020340D01*
X0146164Y0020216D01*
X0146117Y0020093D01*
X0146066Y0019972D01*
X0146012Y0019852D01*
X0145954Y0019734D01*
X0145893Y0019617D01*
X0145828Y0019503D01*
X0145760Y0019391D01*
X0145688Y0019281D01*
X0145613Y0019173D01*
X0145535Y0019067D01*
X0145454Y0018964D01*
X0145369Y0018863D01*
X0145282Y0018765D01*
X0145191Y0018670D01*
X0145098Y0018577D01*
X0145002Y0018487D01*
X0144903Y0018400D01*
X0144802Y0018317D01*
X0144698Y0018236D01*
X0144592Y0018159D01*
X0144483Y0018085D01*
X0144372Y0018014D01*
X0144260Y0017946D01*
X0144145Y0017882D01*
X0144028Y0017822D01*
X0143909Y0017765D01*
X0143789Y0017712D01*
X0143668Y0017662D01*
X0143544Y0017616D01*
X0143420Y0017574D01*
X0143294Y0017536D01*
X0143167Y0017501D01*
X0143039Y0017470D01*
X0142911Y0017444D01*
X0142781Y0017421D01*
X0142651Y0017402D01*
X0142521Y0017387D01*
X0142390Y0017376D01*
X0142258Y0017369D01*
X0142127Y0017366D01*
X0141995Y0017367D01*
X0141864Y0017372D01*
X0141733Y0017381D01*
X0141602Y0017394D01*
X0141472Y0017411D01*
X0141342Y0017432D01*
X0141213Y0017457D01*
X0141085Y0017485D01*
X0140957Y0017518D01*
X0140831Y0017554D01*
X0140706Y0017595D01*
X0140582Y0017639D01*
X0140459Y0017686D01*
X0140338Y0017738D01*
X0140219Y0017793D01*
X0140101Y0017852D01*
X0139986Y0017914D01*
X0139872Y0017980D01*
X0139760Y0018049D01*
X0139650Y0018121D01*
X0139543Y0018197D01*
X0139438Y0018276D01*
X0139335Y0018358D01*
X0139235Y0018443D01*
X0139138Y0018532D01*
X0139043Y0018623D01*
X0138951Y0018717D01*
X0138862Y0018814D01*
X0138776Y0018913D01*
X0138693Y0019015D01*
X0138613Y0019120D01*
X0138537Y0019226D01*
X0138464Y0019335D01*
X0138394Y0019447D01*
X0138327Y0019560D01*
X0138264Y0019675D01*
X0138204Y0019793D01*
X0138148Y0019911D01*
X0138096Y0020032D01*
X0138047Y0020154D01*
X0138002Y0020278D01*
X0137961Y0020402D01*
X0137924Y0020529D01*
X0137890Y0020656D01*
X0137860Y0020784D01*
X0137835Y0020913D01*
X0137813Y0021042D01*
X0137795Y0021172D01*
X0137781Y0021303D01*
X0137771Y0021434D01*
X0137765Y0021566D01*
X0137763Y0021697D01*
X0183315Y0017563D02*
X0183317Y0017756D01*
X0183324Y0017949D01*
X0183336Y0018142D01*
X0183353Y0018335D01*
X0183374Y0018527D01*
X0183400Y0018718D01*
X0183431Y0018909D01*
X0183466Y0019099D01*
X0183506Y0019288D01*
X0183551Y0019476D01*
X0183600Y0019663D01*
X0183654Y0019849D01*
X0183712Y0020033D01*
X0183775Y0020216D01*
X0183843Y0020397D01*
X0183914Y0020576D01*
X0183991Y0020754D01*
X0184071Y0020930D01*
X0184156Y0021103D01*
X0184245Y0021275D01*
X0184338Y0021444D01*
X0184435Y0021611D01*
X0184537Y0021776D01*
X0184642Y0021938D01*
X0184751Y0022097D01*
X0184865Y0022254D01*
X0184982Y0022407D01*
X0185102Y0022558D01*
X0185227Y0022706D01*
X0185355Y0022851D01*
X0185486Y0022992D01*
X0185621Y0023131D01*
X0185760Y0023266D01*
X0185901Y0023397D01*
X0186046Y0023525D01*
X0186194Y0023650D01*
X0186345Y0023770D01*
X0186498Y0023887D01*
X0186655Y0024001D01*
X0186814Y0024110D01*
X0186976Y0024215D01*
X0187141Y0024317D01*
X0187308Y0024414D01*
X0187477Y0024507D01*
X0187649Y0024596D01*
X0187822Y0024681D01*
X0187998Y0024761D01*
X0188176Y0024838D01*
X0188355Y0024909D01*
X0188536Y0024977D01*
X0188719Y0025040D01*
X0188903Y0025098D01*
X0189089Y0025152D01*
X0189276Y0025201D01*
X0189464Y0025246D01*
X0189653Y0025286D01*
X0189843Y0025321D01*
X0190034Y0025352D01*
X0190225Y0025378D01*
X0190417Y0025399D01*
X0190610Y0025416D01*
X0190803Y0025428D01*
X0190996Y0025435D01*
X0191189Y0025437D01*
X0191382Y0025435D01*
X0191575Y0025428D01*
X0191768Y0025416D01*
X0191961Y0025399D01*
X0192153Y0025378D01*
X0192344Y0025352D01*
X0192535Y0025321D01*
X0192725Y0025286D01*
X0192914Y0025246D01*
X0193102Y0025201D01*
X0193289Y0025152D01*
X0193475Y0025098D01*
X0193659Y0025040D01*
X0193842Y0024977D01*
X0194023Y0024909D01*
X0194202Y0024838D01*
X0194380Y0024761D01*
X0194556Y0024681D01*
X0194729Y0024596D01*
X0194901Y0024507D01*
X0195070Y0024414D01*
X0195237Y0024317D01*
X0195402Y0024215D01*
X0195564Y0024110D01*
X0195723Y0024001D01*
X0195880Y0023887D01*
X0196033Y0023770D01*
X0196184Y0023650D01*
X0196332Y0023525D01*
X0196477Y0023397D01*
X0196618Y0023266D01*
X0196757Y0023131D01*
X0196892Y0022992D01*
X0197023Y0022851D01*
X0197151Y0022706D01*
X0197276Y0022558D01*
X0197396Y0022407D01*
X0197513Y0022254D01*
X0197627Y0022097D01*
X0197736Y0021938D01*
X0197841Y0021776D01*
X0197943Y0021611D01*
X0198040Y0021444D01*
X0198133Y0021275D01*
X0198222Y0021103D01*
X0198307Y0020930D01*
X0198387Y0020754D01*
X0198464Y0020576D01*
X0198535Y0020397D01*
X0198603Y0020216D01*
X0198666Y0020033D01*
X0198724Y0019849D01*
X0198778Y0019663D01*
X0198827Y0019476D01*
X0198872Y0019288D01*
X0198912Y0019099D01*
X0198947Y0018909D01*
X0198978Y0018718D01*
X0199004Y0018527D01*
X0199025Y0018335D01*
X0199042Y0018142D01*
X0199054Y0017949D01*
X0199061Y0017756D01*
X0199063Y0017563D01*
X0199061Y0017370D01*
X0199054Y0017177D01*
X0199042Y0016984D01*
X0199025Y0016791D01*
X0199004Y0016599D01*
X0198978Y0016408D01*
X0198947Y0016217D01*
X0198912Y0016027D01*
X0198872Y0015838D01*
X0198827Y0015650D01*
X0198778Y0015463D01*
X0198724Y0015277D01*
X0198666Y0015093D01*
X0198603Y0014910D01*
X0198535Y0014729D01*
X0198464Y0014550D01*
X0198387Y0014372D01*
X0198307Y0014196D01*
X0198222Y0014023D01*
X0198133Y0013851D01*
X0198040Y0013682D01*
X0197943Y0013515D01*
X0197841Y0013350D01*
X0197736Y0013188D01*
X0197627Y0013029D01*
X0197513Y0012872D01*
X0197396Y0012719D01*
X0197276Y0012568D01*
X0197151Y0012420D01*
X0197023Y0012275D01*
X0196892Y0012134D01*
X0196757Y0011995D01*
X0196618Y0011860D01*
X0196477Y0011729D01*
X0196332Y0011601D01*
X0196184Y0011476D01*
X0196033Y0011356D01*
X0195880Y0011239D01*
X0195723Y0011125D01*
X0195564Y0011016D01*
X0195402Y0010911D01*
X0195237Y0010809D01*
X0195070Y0010712D01*
X0194901Y0010619D01*
X0194729Y0010530D01*
X0194556Y0010445D01*
X0194380Y0010365D01*
X0194202Y0010288D01*
X0194023Y0010217D01*
X0193842Y0010149D01*
X0193659Y0010086D01*
X0193475Y0010028D01*
X0193289Y0009974D01*
X0193102Y0009925D01*
X0192914Y0009880D01*
X0192725Y0009840D01*
X0192535Y0009805D01*
X0192344Y0009774D01*
X0192153Y0009748D01*
X0191961Y0009727D01*
X0191768Y0009710D01*
X0191575Y0009698D01*
X0191382Y0009691D01*
X0191189Y0009689D01*
X0190996Y0009691D01*
X0190803Y0009698D01*
X0190610Y0009710D01*
X0190417Y0009727D01*
X0190225Y0009748D01*
X0190034Y0009774D01*
X0189843Y0009805D01*
X0189653Y0009840D01*
X0189464Y0009880D01*
X0189276Y0009925D01*
X0189089Y0009974D01*
X0188903Y0010028D01*
X0188719Y0010086D01*
X0188536Y0010149D01*
X0188355Y0010217D01*
X0188176Y0010288D01*
X0187998Y0010365D01*
X0187822Y0010445D01*
X0187649Y0010530D01*
X0187477Y0010619D01*
X0187308Y0010712D01*
X0187141Y0010809D01*
X0186976Y0010911D01*
X0186814Y0011016D01*
X0186655Y0011125D01*
X0186498Y0011239D01*
X0186345Y0011356D01*
X0186194Y0011476D01*
X0186046Y0011601D01*
X0185901Y0011729D01*
X0185760Y0011860D01*
X0185621Y0011995D01*
X0185486Y0012134D01*
X0185355Y0012275D01*
X0185227Y0012420D01*
X0185102Y0012568D01*
X0184982Y0012719D01*
X0184865Y0012872D01*
X0184751Y0013029D01*
X0184642Y0013188D01*
X0184537Y0013350D01*
X0184435Y0013515D01*
X0184338Y0013682D01*
X0184245Y0013851D01*
X0184156Y0014023D01*
X0184071Y0014196D01*
X0183991Y0014372D01*
X0183914Y0014550D01*
X0183843Y0014729D01*
X0183775Y0014910D01*
X0183712Y0015093D01*
X0183654Y0015277D01*
X0183600Y0015463D01*
X0183551Y0015650D01*
X0183506Y0015838D01*
X0183466Y0016027D01*
X0183431Y0016217D01*
X0183400Y0016408D01*
X0183374Y0016599D01*
X0183353Y0016791D01*
X0183336Y0016984D01*
X0183324Y0017177D01*
X0183317Y0017370D01*
X0183315Y0017563D01*
X0183315Y0108114D02*
X0183317Y0108307D01*
X0183324Y0108500D01*
X0183336Y0108693D01*
X0183353Y0108886D01*
X0183374Y0109078D01*
X0183400Y0109269D01*
X0183431Y0109460D01*
X0183466Y0109650D01*
X0183506Y0109839D01*
X0183551Y0110027D01*
X0183600Y0110214D01*
X0183654Y0110400D01*
X0183712Y0110584D01*
X0183775Y0110767D01*
X0183843Y0110948D01*
X0183914Y0111127D01*
X0183991Y0111305D01*
X0184071Y0111481D01*
X0184156Y0111654D01*
X0184245Y0111826D01*
X0184338Y0111995D01*
X0184435Y0112162D01*
X0184537Y0112327D01*
X0184642Y0112489D01*
X0184751Y0112648D01*
X0184865Y0112805D01*
X0184982Y0112958D01*
X0185102Y0113109D01*
X0185227Y0113257D01*
X0185355Y0113402D01*
X0185486Y0113543D01*
X0185621Y0113682D01*
X0185760Y0113817D01*
X0185901Y0113948D01*
X0186046Y0114076D01*
X0186194Y0114201D01*
X0186345Y0114321D01*
X0186498Y0114438D01*
X0186655Y0114552D01*
X0186814Y0114661D01*
X0186976Y0114766D01*
X0187141Y0114868D01*
X0187308Y0114965D01*
X0187477Y0115058D01*
X0187649Y0115147D01*
X0187822Y0115232D01*
X0187998Y0115312D01*
X0188176Y0115389D01*
X0188355Y0115460D01*
X0188536Y0115528D01*
X0188719Y0115591D01*
X0188903Y0115649D01*
X0189089Y0115703D01*
X0189276Y0115752D01*
X0189464Y0115797D01*
X0189653Y0115837D01*
X0189843Y0115872D01*
X0190034Y0115903D01*
X0190225Y0115929D01*
X0190417Y0115950D01*
X0190610Y0115967D01*
X0190803Y0115979D01*
X0190996Y0115986D01*
X0191189Y0115988D01*
X0191382Y0115986D01*
X0191575Y0115979D01*
X0191768Y0115967D01*
X0191961Y0115950D01*
X0192153Y0115929D01*
X0192344Y0115903D01*
X0192535Y0115872D01*
X0192725Y0115837D01*
X0192914Y0115797D01*
X0193102Y0115752D01*
X0193289Y0115703D01*
X0193475Y0115649D01*
X0193659Y0115591D01*
X0193842Y0115528D01*
X0194023Y0115460D01*
X0194202Y0115389D01*
X0194380Y0115312D01*
X0194556Y0115232D01*
X0194729Y0115147D01*
X0194901Y0115058D01*
X0195070Y0114965D01*
X0195237Y0114868D01*
X0195402Y0114766D01*
X0195564Y0114661D01*
X0195723Y0114552D01*
X0195880Y0114438D01*
X0196033Y0114321D01*
X0196184Y0114201D01*
X0196332Y0114076D01*
X0196477Y0113948D01*
X0196618Y0113817D01*
X0196757Y0113682D01*
X0196892Y0113543D01*
X0197023Y0113402D01*
X0197151Y0113257D01*
X0197276Y0113109D01*
X0197396Y0112958D01*
X0197513Y0112805D01*
X0197627Y0112648D01*
X0197736Y0112489D01*
X0197841Y0112327D01*
X0197943Y0112162D01*
X0198040Y0111995D01*
X0198133Y0111826D01*
X0198222Y0111654D01*
X0198307Y0111481D01*
X0198387Y0111305D01*
X0198464Y0111127D01*
X0198535Y0110948D01*
X0198603Y0110767D01*
X0198666Y0110584D01*
X0198724Y0110400D01*
X0198778Y0110214D01*
X0198827Y0110027D01*
X0198872Y0109839D01*
X0198912Y0109650D01*
X0198947Y0109460D01*
X0198978Y0109269D01*
X0199004Y0109078D01*
X0199025Y0108886D01*
X0199042Y0108693D01*
X0199054Y0108500D01*
X0199061Y0108307D01*
X0199063Y0108114D01*
X0199061Y0107921D01*
X0199054Y0107728D01*
X0199042Y0107535D01*
X0199025Y0107342D01*
X0199004Y0107150D01*
X0198978Y0106959D01*
X0198947Y0106768D01*
X0198912Y0106578D01*
X0198872Y0106389D01*
X0198827Y0106201D01*
X0198778Y0106014D01*
X0198724Y0105828D01*
X0198666Y0105644D01*
X0198603Y0105461D01*
X0198535Y0105280D01*
X0198464Y0105101D01*
X0198387Y0104923D01*
X0198307Y0104747D01*
X0198222Y0104574D01*
X0198133Y0104402D01*
X0198040Y0104233D01*
X0197943Y0104066D01*
X0197841Y0103901D01*
X0197736Y0103739D01*
X0197627Y0103580D01*
X0197513Y0103423D01*
X0197396Y0103270D01*
X0197276Y0103119D01*
X0197151Y0102971D01*
X0197023Y0102826D01*
X0196892Y0102685D01*
X0196757Y0102546D01*
X0196618Y0102411D01*
X0196477Y0102280D01*
X0196332Y0102152D01*
X0196184Y0102027D01*
X0196033Y0101907D01*
X0195880Y0101790D01*
X0195723Y0101676D01*
X0195564Y0101567D01*
X0195402Y0101462D01*
X0195237Y0101360D01*
X0195070Y0101263D01*
X0194901Y0101170D01*
X0194729Y0101081D01*
X0194556Y0100996D01*
X0194380Y0100916D01*
X0194202Y0100839D01*
X0194023Y0100768D01*
X0193842Y0100700D01*
X0193659Y0100637D01*
X0193475Y0100579D01*
X0193289Y0100525D01*
X0193102Y0100476D01*
X0192914Y0100431D01*
X0192725Y0100391D01*
X0192535Y0100356D01*
X0192344Y0100325D01*
X0192153Y0100299D01*
X0191961Y0100278D01*
X0191768Y0100261D01*
X0191575Y0100249D01*
X0191382Y0100242D01*
X0191189Y0100240D01*
X0190996Y0100242D01*
X0190803Y0100249D01*
X0190610Y0100261D01*
X0190417Y0100278D01*
X0190225Y0100299D01*
X0190034Y0100325D01*
X0189843Y0100356D01*
X0189653Y0100391D01*
X0189464Y0100431D01*
X0189276Y0100476D01*
X0189089Y0100525D01*
X0188903Y0100579D01*
X0188719Y0100637D01*
X0188536Y0100700D01*
X0188355Y0100768D01*
X0188176Y0100839D01*
X0187998Y0100916D01*
X0187822Y0100996D01*
X0187649Y0101081D01*
X0187477Y0101170D01*
X0187308Y0101263D01*
X0187141Y0101360D01*
X0186976Y0101462D01*
X0186814Y0101567D01*
X0186655Y0101676D01*
X0186498Y0101790D01*
X0186345Y0101907D01*
X0186194Y0102027D01*
X0186046Y0102152D01*
X0185901Y0102280D01*
X0185760Y0102411D01*
X0185621Y0102546D01*
X0185486Y0102685D01*
X0185355Y0102826D01*
X0185227Y0102971D01*
X0185102Y0103119D01*
X0184982Y0103270D01*
X0184865Y0103423D01*
X0184751Y0103580D01*
X0184642Y0103739D01*
X0184537Y0103901D01*
X0184435Y0104066D01*
X0184338Y0104233D01*
X0184245Y0104402D01*
X0184156Y0104574D01*
X0184071Y0104747D01*
X0183991Y0104923D01*
X0183914Y0105101D01*
X0183843Y0105280D01*
X0183775Y0105461D01*
X0183712Y0105644D01*
X0183654Y0105828D01*
X0183600Y0106014D01*
X0183551Y0106201D01*
X0183506Y0106389D01*
X0183466Y0106578D01*
X0183431Y0106768D01*
X0183400Y0106959D01*
X0183374Y0107150D01*
X0183353Y0107342D01*
X0183336Y0107535D01*
X0183324Y0107728D01*
X0183317Y0107921D01*
X0183315Y0108114D01*
X0010087Y0108114D02*
X0010089Y0108307D01*
X0010096Y0108500D01*
X0010108Y0108693D01*
X0010125Y0108886D01*
X0010146Y0109078D01*
X0010172Y0109269D01*
X0010203Y0109460D01*
X0010238Y0109650D01*
X0010278Y0109839D01*
X0010323Y0110027D01*
X0010372Y0110214D01*
X0010426Y0110400D01*
X0010484Y0110584D01*
X0010547Y0110767D01*
X0010615Y0110948D01*
X0010686Y0111127D01*
X0010763Y0111305D01*
X0010843Y0111481D01*
X0010928Y0111654D01*
X0011017Y0111826D01*
X0011110Y0111995D01*
X0011207Y0112162D01*
X0011309Y0112327D01*
X0011414Y0112489D01*
X0011523Y0112648D01*
X0011637Y0112805D01*
X0011754Y0112958D01*
X0011874Y0113109D01*
X0011999Y0113257D01*
X0012127Y0113402D01*
X0012258Y0113543D01*
X0012393Y0113682D01*
X0012532Y0113817D01*
X0012673Y0113948D01*
X0012818Y0114076D01*
X0012966Y0114201D01*
X0013117Y0114321D01*
X0013270Y0114438D01*
X0013427Y0114552D01*
X0013586Y0114661D01*
X0013748Y0114766D01*
X0013913Y0114868D01*
X0014080Y0114965D01*
X0014249Y0115058D01*
X0014421Y0115147D01*
X0014594Y0115232D01*
X0014770Y0115312D01*
X0014948Y0115389D01*
X0015127Y0115460D01*
X0015308Y0115528D01*
X0015491Y0115591D01*
X0015675Y0115649D01*
X0015861Y0115703D01*
X0016048Y0115752D01*
X0016236Y0115797D01*
X0016425Y0115837D01*
X0016615Y0115872D01*
X0016806Y0115903D01*
X0016997Y0115929D01*
X0017189Y0115950D01*
X0017382Y0115967D01*
X0017575Y0115979D01*
X0017768Y0115986D01*
X0017961Y0115988D01*
X0018154Y0115986D01*
X0018347Y0115979D01*
X0018540Y0115967D01*
X0018733Y0115950D01*
X0018925Y0115929D01*
X0019116Y0115903D01*
X0019307Y0115872D01*
X0019497Y0115837D01*
X0019686Y0115797D01*
X0019874Y0115752D01*
X0020061Y0115703D01*
X0020247Y0115649D01*
X0020431Y0115591D01*
X0020614Y0115528D01*
X0020795Y0115460D01*
X0020974Y0115389D01*
X0021152Y0115312D01*
X0021328Y0115232D01*
X0021501Y0115147D01*
X0021673Y0115058D01*
X0021842Y0114965D01*
X0022009Y0114868D01*
X0022174Y0114766D01*
X0022336Y0114661D01*
X0022495Y0114552D01*
X0022652Y0114438D01*
X0022805Y0114321D01*
X0022956Y0114201D01*
X0023104Y0114076D01*
X0023249Y0113948D01*
X0023390Y0113817D01*
X0023529Y0113682D01*
X0023664Y0113543D01*
X0023795Y0113402D01*
X0023923Y0113257D01*
X0024048Y0113109D01*
X0024168Y0112958D01*
X0024285Y0112805D01*
X0024399Y0112648D01*
X0024508Y0112489D01*
X0024613Y0112327D01*
X0024715Y0112162D01*
X0024812Y0111995D01*
X0024905Y0111826D01*
X0024994Y0111654D01*
X0025079Y0111481D01*
X0025159Y0111305D01*
X0025236Y0111127D01*
X0025307Y0110948D01*
X0025375Y0110767D01*
X0025438Y0110584D01*
X0025496Y0110400D01*
X0025550Y0110214D01*
X0025599Y0110027D01*
X0025644Y0109839D01*
X0025684Y0109650D01*
X0025719Y0109460D01*
X0025750Y0109269D01*
X0025776Y0109078D01*
X0025797Y0108886D01*
X0025814Y0108693D01*
X0025826Y0108500D01*
X0025833Y0108307D01*
X0025835Y0108114D01*
X0025833Y0107921D01*
X0025826Y0107728D01*
X0025814Y0107535D01*
X0025797Y0107342D01*
X0025776Y0107150D01*
X0025750Y0106959D01*
X0025719Y0106768D01*
X0025684Y0106578D01*
X0025644Y0106389D01*
X0025599Y0106201D01*
X0025550Y0106014D01*
X0025496Y0105828D01*
X0025438Y0105644D01*
X0025375Y0105461D01*
X0025307Y0105280D01*
X0025236Y0105101D01*
X0025159Y0104923D01*
X0025079Y0104747D01*
X0024994Y0104574D01*
X0024905Y0104402D01*
X0024812Y0104233D01*
X0024715Y0104066D01*
X0024613Y0103901D01*
X0024508Y0103739D01*
X0024399Y0103580D01*
X0024285Y0103423D01*
X0024168Y0103270D01*
X0024048Y0103119D01*
X0023923Y0102971D01*
X0023795Y0102826D01*
X0023664Y0102685D01*
X0023529Y0102546D01*
X0023390Y0102411D01*
X0023249Y0102280D01*
X0023104Y0102152D01*
X0022956Y0102027D01*
X0022805Y0101907D01*
X0022652Y0101790D01*
X0022495Y0101676D01*
X0022336Y0101567D01*
X0022174Y0101462D01*
X0022009Y0101360D01*
X0021842Y0101263D01*
X0021673Y0101170D01*
X0021501Y0101081D01*
X0021328Y0100996D01*
X0021152Y0100916D01*
X0020974Y0100839D01*
X0020795Y0100768D01*
X0020614Y0100700D01*
X0020431Y0100637D01*
X0020247Y0100579D01*
X0020061Y0100525D01*
X0019874Y0100476D01*
X0019686Y0100431D01*
X0019497Y0100391D01*
X0019307Y0100356D01*
X0019116Y0100325D01*
X0018925Y0100299D01*
X0018733Y0100278D01*
X0018540Y0100261D01*
X0018347Y0100249D01*
X0018154Y0100242D01*
X0017961Y0100240D01*
X0017768Y0100242D01*
X0017575Y0100249D01*
X0017382Y0100261D01*
X0017189Y0100278D01*
X0016997Y0100299D01*
X0016806Y0100325D01*
X0016615Y0100356D01*
X0016425Y0100391D01*
X0016236Y0100431D01*
X0016048Y0100476D01*
X0015861Y0100525D01*
X0015675Y0100579D01*
X0015491Y0100637D01*
X0015308Y0100700D01*
X0015127Y0100768D01*
X0014948Y0100839D01*
X0014770Y0100916D01*
X0014594Y0100996D01*
X0014421Y0101081D01*
X0014249Y0101170D01*
X0014080Y0101263D01*
X0013913Y0101360D01*
X0013748Y0101462D01*
X0013586Y0101567D01*
X0013427Y0101676D01*
X0013270Y0101790D01*
X0013117Y0101907D01*
X0012966Y0102027D01*
X0012818Y0102152D01*
X0012673Y0102280D01*
X0012532Y0102411D01*
X0012393Y0102546D01*
X0012258Y0102685D01*
X0012127Y0102826D01*
X0011999Y0102971D01*
X0011874Y0103119D01*
X0011754Y0103270D01*
X0011637Y0103423D01*
X0011523Y0103580D01*
X0011414Y0103739D01*
X0011309Y0103901D01*
X0011207Y0104066D01*
X0011110Y0104233D01*
X0011017Y0104402D01*
X0010928Y0104574D01*
X0010843Y0104747D01*
X0010763Y0104923D01*
X0010686Y0105101D01*
X0010615Y0105280D01*
X0010547Y0105461D01*
X0010484Y0105644D01*
X0010426Y0105828D01*
X0010372Y0106014D01*
X0010323Y0106201D01*
X0010278Y0106389D01*
X0010238Y0106578D01*
X0010203Y0106768D01*
X0010172Y0106959D01*
X0010146Y0107150D01*
X0010125Y0107342D01*
X0010108Y0107535D01*
X0010096Y0107728D01*
X0010089Y0107921D01*
X0010087Y0108114D01*
D11*
X0017213Y0001815D02*
X0191150Y0001815D01*
X0206937Y0013626D02*
X0206937Y0112051D01*
X0206937Y0112052D02*
X0206933Y0112342D01*
X0206922Y0112632D01*
X0206903Y0112922D01*
X0206878Y0113211D01*
X0206846Y0113500D01*
X0206806Y0113787D01*
X0206759Y0114074D01*
X0206706Y0114359D01*
X0206645Y0114643D01*
X0206578Y0114926D01*
X0206503Y0115206D01*
X0206422Y0115485D01*
X0206334Y0115762D01*
X0206239Y0116036D01*
X0206137Y0116308D01*
X0206029Y0116578D01*
X0205914Y0116844D01*
X0205793Y0117108D01*
X0205665Y0117369D01*
X0205531Y0117626D01*
X0205390Y0117881D01*
X0205244Y0118131D01*
X0205091Y0118378D01*
X0204932Y0118621D01*
X0204767Y0118860D01*
X0204597Y0119096D01*
X0204421Y0119326D01*
X0204239Y0119553D01*
X0204052Y0119775D01*
X0203859Y0119992D01*
X0203661Y0120204D01*
X0203458Y0120412D01*
X0203250Y0120614D01*
X0203037Y0120811D01*
X0202819Y0121003D01*
X0202596Y0121190D01*
X0202369Y0121371D01*
X0202138Y0121546D01*
X0201902Y0121716D01*
X0201663Y0121880D01*
X0201419Y0122038D01*
X0201171Y0122190D01*
X0200920Y0122336D01*
X0200666Y0122475D01*
X0200408Y0122609D01*
X0200147Y0122735D01*
X0199882Y0122856D01*
X0199615Y0122970D01*
X0199346Y0123077D01*
X0199073Y0123178D01*
X0198798Y0123272D01*
X0198522Y0123359D01*
X0198243Y0123440D01*
X0197962Y0123513D01*
X0197679Y0123580D01*
X0197395Y0123639D01*
X0197109Y0123692D01*
X0196822Y0123738D01*
X0196535Y0123776D01*
X0196246Y0123808D01*
X0195957Y0123832D01*
X0195667Y0123850D01*
X0195377Y0123860D01*
X0195086Y0123863D01*
X0195087Y0123862D02*
X0017213Y0123862D01*
X0002213Y0112051D02*
X0002213Y0013626D01*
X0002212Y0013627D02*
X0002256Y0013298D01*
X0002307Y0012971D01*
X0002366Y0012645D01*
X0002433Y0012320D01*
X0002508Y0011998D01*
X0002592Y0011677D01*
X0002682Y0011358D01*
X0002781Y0011042D01*
X0002888Y0010728D01*
X0003002Y0010417D01*
X0003123Y0010109D01*
X0003253Y0009804D01*
X0003389Y0009502D01*
X0003533Y0009204D01*
X0003685Y0008909D01*
X0003843Y0008618D01*
X0004009Y0008331D01*
X0004181Y0008048D01*
X0004361Y0007769D01*
X0004547Y0007495D01*
X0004740Y0007226D01*
X0004939Y0006962D01*
X0005145Y0006702D01*
X0005358Y0006448D01*
X0005576Y0006198D01*
X0005800Y0005955D01*
X0006031Y0005717D01*
X0006267Y0005484D01*
X0006509Y0005258D01*
X0006756Y0005037D01*
X0007009Y0004823D01*
X0007266Y0004614D01*
X0007529Y0004413D01*
X0007797Y0004217D01*
X0008069Y0004029D01*
X0008346Y0003847D01*
X0008628Y0003672D01*
X0008913Y0003504D01*
X0009203Y0003343D01*
X0009496Y0003189D01*
X0009793Y0003042D01*
X0010094Y0002903D01*
X0010398Y0002771D01*
X0010705Y0002647D01*
X0011015Y0002530D01*
X0011328Y0002421D01*
X0011643Y0002319D01*
X0011961Y0002226D01*
X0012281Y0002140D01*
X0012603Y0002062D01*
X0012927Y0001992D01*
X0013252Y0001930D01*
X0013579Y0001876D01*
X0013907Y0001830D01*
X0014237Y0001792D01*
X0014567Y0001762D01*
X0014897Y0001740D01*
X0015228Y0001727D01*
X0015560Y0001721D01*
X0015891Y0001724D01*
X0016222Y0001735D01*
X0016553Y0001753D01*
X0016883Y0001780D01*
X0017212Y0001815D01*
X0191150Y0001814D02*
X0191484Y0001770D01*
X0191819Y0001735D01*
X0192155Y0001707D01*
X0192491Y0001687D01*
X0192828Y0001675D01*
X0193165Y0001672D01*
X0193501Y0001677D01*
X0193838Y0001690D01*
X0194174Y0001711D01*
X0194510Y0001740D01*
X0194845Y0001777D01*
X0195179Y0001822D01*
X0195511Y0001875D01*
X0195843Y0001937D01*
X0196172Y0002006D01*
X0196500Y0002083D01*
X0196826Y0002169D01*
X0197150Y0002262D01*
X0197472Y0002363D01*
X0197790Y0002471D01*
X0198107Y0002587D01*
X0198420Y0002711D01*
X0198730Y0002843D01*
X0199037Y0002982D01*
X0199341Y0003128D01*
X0199641Y0003281D01*
X0199937Y0003442D01*
X0200229Y0003610D01*
X0200517Y0003785D01*
X0200801Y0003966D01*
X0201080Y0004155D01*
X0201354Y0004350D01*
X0201624Y0004552D01*
X0201889Y0004760D01*
X0202149Y0004975D01*
X0202403Y0005196D01*
X0202652Y0005423D01*
X0202896Y0005656D01*
X0203133Y0005894D01*
X0203365Y0006139D01*
X0203591Y0006389D01*
X0203811Y0006644D01*
X0204025Y0006904D01*
X0204232Y0007170D01*
X0204433Y0007441D01*
X0204627Y0007716D01*
X0204815Y0007996D01*
X0204995Y0008280D01*
X0205169Y0008569D01*
X0205336Y0008862D01*
X0205495Y0009158D01*
X0205648Y0009459D01*
X0205793Y0009763D01*
X0205930Y0010070D01*
X0206061Y0010381D01*
X0206183Y0010695D01*
X0206298Y0011012D01*
X0206406Y0011331D01*
X0206505Y0011653D01*
X0206597Y0011977D01*
X0206681Y0012303D01*
X0206757Y0012631D01*
X0206825Y0012961D01*
X0206885Y0013293D01*
X0206938Y0013626D01*
X0017212Y0123863D02*
X0016888Y0123897D01*
X0016563Y0123924D01*
X0016237Y0123943D01*
X0015911Y0123954D01*
X0015585Y0123957D01*
X0015259Y0123952D01*
X0014933Y0123940D01*
X0014607Y0123919D01*
X0014282Y0123891D01*
X0013958Y0123855D01*
X0013635Y0123811D01*
X0013313Y0123759D01*
X0012992Y0123699D01*
X0012673Y0123632D01*
X0012355Y0123557D01*
X0012040Y0123474D01*
X0011726Y0123384D01*
X0011415Y0123286D01*
X0011106Y0123181D01*
X0010800Y0123068D01*
X0010497Y0122948D01*
X0010196Y0122820D01*
X0009899Y0122686D01*
X0009605Y0122544D01*
X0009315Y0122395D01*
X0009028Y0122239D01*
X0008746Y0122077D01*
X0008467Y0121907D01*
X0008192Y0121731D01*
X0007922Y0121549D01*
X0007656Y0121359D01*
X0007395Y0121164D01*
X0007139Y0120962D01*
X0006887Y0120754D01*
X0006641Y0120540D01*
X0006400Y0120320D01*
X0006165Y0120095D01*
X0005934Y0119863D01*
X0005710Y0119627D01*
X0005491Y0119384D01*
X0005278Y0119137D01*
X0005072Y0118885D01*
X0004871Y0118627D01*
X0004677Y0118365D01*
X0004489Y0118099D01*
X0004308Y0117828D01*
X0004133Y0117552D01*
X0003965Y0117272D01*
X0003803Y0116989D01*
X0003649Y0116702D01*
X0003502Y0116410D01*
X0003361Y0116116D01*
X0003228Y0115818D01*
X0003102Y0115517D01*
X0002984Y0115213D01*
X0002872Y0114907D01*
X0002769Y0114597D01*
X0002672Y0114286D01*
X0002584Y0113972D01*
X0002502Y0113656D01*
X0002429Y0113338D01*
X0002363Y0113018D01*
X0002305Y0112697D01*
X0002255Y0112375D01*
X0002212Y0112051D01*
M02*
