G75*
%MOIN*%
%OFA0B0*%
%FSLAX25Y25*%
%IPPOS*%
%LPD*%
%AMOC8*
5,1,8,0,0,1.08239X$1,22.5*
%
%ADD10C,0.01000*%
%ADD11C,0.00300*%
%ADD12C,0.00800*%
%ADD13C,0.00600*%
%ADD14C,0.00500*%
%ADD15R,0.02000X0.01500*%
D10*
X0149809Y0015392D02*
X0150476Y0014725D01*
X0152478Y0014725D01*
X0152478Y0013391D02*
X0152478Y0017394D01*
X0150476Y0017394D01*
X0149809Y0016727D01*
X0149809Y0015392D01*
X0154213Y0014725D02*
X0155547Y0014725D01*
X0154880Y0014725D02*
X0154880Y0017394D01*
X0155547Y0017394D01*
X0154880Y0018728D02*
X0154880Y0019396D01*
X0157382Y0017394D02*
X0158049Y0017394D01*
X0159384Y0016060D01*
X0159384Y0017394D02*
X0159384Y0014725D01*
X0161118Y0014725D02*
X0161786Y0015392D01*
X0161786Y0018061D01*
X0162453Y0017394D02*
X0161118Y0017394D01*
X0164388Y0018061D02*
X0165055Y0018728D01*
X0166390Y0018728D01*
X0167057Y0018061D01*
X0167057Y0017394D01*
X0166390Y0016727D01*
X0165055Y0016727D01*
X0164388Y0016060D01*
X0164388Y0015392D01*
X0165055Y0014725D01*
X0166390Y0014725D01*
X0167057Y0015392D01*
X0173596Y0015392D02*
X0174263Y0014725D01*
X0175598Y0014725D01*
X0176265Y0015392D01*
X0176265Y0018061D01*
X0175598Y0018728D01*
X0174263Y0018728D01*
X0173596Y0018061D01*
X0173596Y0015392D01*
X0178200Y0014725D02*
X0178200Y0018728D01*
X0179534Y0017394D01*
X0180869Y0018728D01*
X0180869Y0014725D01*
D11*
X0180493Y0011824D02*
X0180493Y0011513D01*
X0180493Y0010891D02*
X0180493Y0009646D01*
X0180804Y0009646D02*
X0180182Y0009646D01*
X0180493Y0010891D02*
X0180804Y0010891D01*
X0181822Y0011513D02*
X0181822Y0009646D01*
X0182133Y0009646D02*
X0181511Y0009646D01*
X0182882Y0009646D02*
X0182882Y0010891D01*
X0183505Y0011513D01*
X0184127Y0010891D01*
X0184127Y0009646D01*
X0184127Y0010580D02*
X0182882Y0010580D01*
X0182133Y0011513D02*
X0181822Y0011513D01*
X0177481Y0011513D02*
X0177481Y0009646D01*
X0177834Y0008576D02*
X0177834Y0008265D01*
X0177834Y0007643D02*
X0177834Y0006398D01*
X0178145Y0006398D02*
X0177523Y0006398D01*
X0176505Y0006709D02*
X0176194Y0006398D01*
X0176505Y0006709D02*
X0176505Y0007954D01*
X0176816Y0007643D02*
X0176194Y0007643D01*
X0175487Y0007643D02*
X0174865Y0007643D01*
X0175176Y0007954D02*
X0175176Y0006709D01*
X0174865Y0006398D01*
X0174158Y0006398D02*
X0173224Y0006398D01*
X0172913Y0006709D01*
X0173224Y0007020D01*
X0173847Y0007020D01*
X0174158Y0007331D01*
X0173847Y0007643D01*
X0172913Y0007643D01*
X0172164Y0007643D02*
X0171231Y0007643D01*
X0170919Y0007331D01*
X0170919Y0006709D01*
X0171231Y0006398D01*
X0172164Y0006398D01*
X0172164Y0008265D01*
X0172249Y0009646D02*
X0172249Y0010580D01*
X0172560Y0010891D01*
X0172871Y0010580D01*
X0172871Y0009646D01*
X0173493Y0009646D02*
X0173493Y0010891D01*
X0173182Y0010891D01*
X0172871Y0010580D01*
X0174242Y0010580D02*
X0174242Y0009957D01*
X0174554Y0009646D01*
X0175176Y0009646D01*
X0175487Y0009957D01*
X0175487Y0010580D01*
X0175176Y0010891D01*
X0174554Y0010891D01*
X0174242Y0010580D01*
X0176236Y0011513D02*
X0176236Y0009646D01*
X0176859Y0010891D02*
X0176236Y0011513D01*
X0176859Y0010891D02*
X0177481Y0011513D01*
X0179206Y0008265D02*
X0178895Y0007954D01*
X0178895Y0007331D01*
X0179206Y0007020D01*
X0180139Y0007020D01*
X0180139Y0006398D02*
X0180139Y0008265D01*
X0179206Y0008265D01*
X0178145Y0007643D02*
X0177834Y0007643D01*
X0182882Y0007954D02*
X0182882Y0007331D01*
X0183193Y0007020D01*
X0183193Y0007643D01*
X0183816Y0007643D01*
X0183816Y0007020D01*
X0183193Y0007020D01*
X0182882Y0006709D02*
X0183193Y0006398D01*
X0183816Y0006398D01*
X0184127Y0006709D01*
X0184127Y0007954D01*
X0183816Y0008265D01*
X0183193Y0008265D01*
X0182882Y0007954D01*
X0182882Y0004395D02*
X0183505Y0003150D01*
X0184127Y0004395D01*
X0180139Y0004706D02*
X0179828Y0005017D01*
X0179206Y0005017D01*
X0178895Y0004706D01*
X0178895Y0004395D01*
X0180139Y0003150D01*
X0178895Y0003150D01*
X0178145Y0004083D02*
X0176901Y0004083D01*
X0176152Y0004083D02*
X0175529Y0004395D01*
X0175218Y0004395D01*
X0174907Y0004083D01*
X0174907Y0003461D01*
X0175218Y0003150D01*
X0175840Y0003150D01*
X0176152Y0003461D01*
X0176152Y0004083D02*
X0176152Y0005017D01*
X0174907Y0005017D01*
X0170170Y0006709D02*
X0169859Y0006398D01*
X0168926Y0006398D01*
X0168926Y0007643D01*
X0168176Y0007643D02*
X0168176Y0006398D01*
X0168176Y0007020D02*
X0167554Y0007643D01*
X0167243Y0007643D01*
X0166515Y0007331D02*
X0166204Y0007643D01*
X0165270Y0007643D01*
X0165270Y0006087D01*
X0165581Y0005776D01*
X0165893Y0005776D01*
X0166204Y0006398D02*
X0165270Y0006398D01*
X0164521Y0006398D02*
X0164521Y0008265D01*
X0164210Y0007643D02*
X0163588Y0007643D01*
X0163276Y0007331D01*
X0163276Y0006398D01*
X0164521Y0007331D02*
X0164210Y0007643D01*
X0164189Y0009646D02*
X0162944Y0009646D01*
X0162195Y0009957D02*
X0160950Y0011202D01*
X0160950Y0009957D01*
X0161261Y0009646D01*
X0161884Y0009646D01*
X0162195Y0009957D01*
X0162195Y0011202D01*
X0161884Y0011513D01*
X0161261Y0011513D01*
X0160950Y0011202D01*
X0160201Y0010891D02*
X0159579Y0011513D01*
X0159579Y0009646D01*
X0160201Y0009646D02*
X0158956Y0009646D01*
X0158207Y0009646D02*
X0158207Y0009957D01*
X0156963Y0011202D01*
X0156963Y0011513D01*
X0158207Y0011513D01*
X0162944Y0011202D02*
X0163255Y0011513D01*
X0163878Y0011513D01*
X0164189Y0011202D01*
X0162944Y0011202D02*
X0162944Y0010891D01*
X0164189Y0009646D01*
X0166889Y0009646D02*
X0167512Y0009646D01*
X0167201Y0009646D02*
X0167201Y0010891D01*
X0167512Y0010891D01*
X0167201Y0011513D02*
X0167201Y0011824D01*
X0168261Y0010580D02*
X0168261Y0009646D01*
X0168261Y0010580D02*
X0168572Y0010891D01*
X0169506Y0010891D01*
X0169506Y0009646D01*
X0170255Y0010268D02*
X0171499Y0010268D01*
X0171499Y0009957D02*
X0171499Y0010580D01*
X0171188Y0010891D01*
X0170566Y0010891D01*
X0170255Y0010580D01*
X0170255Y0010268D01*
X0170566Y0009646D02*
X0171188Y0009646D01*
X0171499Y0009957D01*
X0170170Y0007643D02*
X0170170Y0006709D01*
X0166515Y0006709D02*
X0166204Y0006398D01*
X0166515Y0006709D02*
X0166515Y0007331D01*
D12*
X0144339Y0084098D02*
X0113236Y0084098D01*
X0113236Y0090004D01*
X0095913Y0090004D01*
X0095913Y0084098D01*
X0113236Y0084098D01*
X0122075Y0090890D02*
X0127075Y0090890D01*
X0144339Y0084098D02*
X0144339Y0119138D01*
X0144339Y0119532D02*
X0064811Y0119532D01*
X0064811Y0084098D01*
X0095913Y0084098D01*
D13*
X0096725Y0082062D02*
X0096725Y0078659D01*
X0098427Y0078659D01*
X0098994Y0079227D01*
X0098994Y0080361D01*
X0098427Y0080928D01*
X0096725Y0080928D01*
X0097860Y0080928D02*
X0098994Y0082062D01*
X0100408Y0082062D02*
X0101543Y0082062D01*
X0100976Y0082062D02*
X0100976Y0078659D01*
X0101543Y0078659D02*
X0100408Y0078659D01*
X0102864Y0078659D02*
X0104565Y0078659D01*
X0105133Y0079227D01*
X0105133Y0080361D01*
X0104565Y0080928D01*
X0102864Y0080928D01*
X0102864Y0082062D02*
X0102864Y0078659D01*
X0106547Y0080361D02*
X0108816Y0080361D01*
X0110230Y0082062D02*
X0110230Y0078659D01*
X0111365Y0079794D01*
X0112499Y0078659D01*
X0112499Y0082062D01*
X0113913Y0081495D02*
X0114480Y0082062D01*
X0115615Y0082062D01*
X0116182Y0081495D01*
X0116182Y0079227D01*
X0115615Y0078659D01*
X0114480Y0078659D01*
X0113913Y0079227D01*
X0113913Y0081495D01*
X0117596Y0082062D02*
X0117596Y0078659D01*
X0119298Y0078659D01*
X0119865Y0079227D01*
X0119865Y0081495D01*
X0119298Y0082062D01*
X0117596Y0082062D01*
X0121260Y0070870D02*
X0127260Y0070870D01*
X0127320Y0070868D01*
X0127381Y0070863D01*
X0127440Y0070854D01*
X0127499Y0070841D01*
X0127558Y0070825D01*
X0127615Y0070805D01*
X0127670Y0070782D01*
X0127725Y0070755D01*
X0127777Y0070726D01*
X0127828Y0070693D01*
X0127877Y0070657D01*
X0127923Y0070619D01*
X0127967Y0070577D01*
X0128009Y0070533D01*
X0128047Y0070487D01*
X0128083Y0070438D01*
X0128116Y0070387D01*
X0128145Y0070335D01*
X0128172Y0070280D01*
X0128195Y0070225D01*
X0128215Y0070168D01*
X0128231Y0070109D01*
X0128244Y0070050D01*
X0128253Y0069991D01*
X0128258Y0069930D01*
X0128260Y0069870D01*
X0128260Y0068370D01*
X0127760Y0067870D01*
X0127760Y0053870D01*
X0128260Y0053370D01*
X0128260Y0051870D01*
X0128258Y0051810D01*
X0128253Y0051749D01*
X0128244Y0051690D01*
X0128231Y0051631D01*
X0128215Y0051572D01*
X0128195Y0051515D01*
X0128172Y0051460D01*
X0128145Y0051405D01*
X0128116Y0051353D01*
X0128083Y0051302D01*
X0128047Y0051253D01*
X0128009Y0051207D01*
X0127967Y0051163D01*
X0127923Y0051121D01*
X0127877Y0051083D01*
X0127828Y0051047D01*
X0127777Y0051014D01*
X0127725Y0050985D01*
X0127670Y0050958D01*
X0127615Y0050935D01*
X0127558Y0050915D01*
X0127499Y0050899D01*
X0127440Y0050886D01*
X0127381Y0050877D01*
X0127320Y0050872D01*
X0127260Y0050870D01*
X0121260Y0050870D01*
X0121200Y0050872D01*
X0121139Y0050877D01*
X0121080Y0050886D01*
X0121021Y0050899D01*
X0120962Y0050915D01*
X0120905Y0050935D01*
X0120850Y0050958D01*
X0120795Y0050985D01*
X0120743Y0051014D01*
X0120692Y0051047D01*
X0120643Y0051083D01*
X0120597Y0051121D01*
X0120553Y0051163D01*
X0120511Y0051207D01*
X0120473Y0051253D01*
X0120437Y0051302D01*
X0120404Y0051353D01*
X0120375Y0051405D01*
X0120348Y0051460D01*
X0120325Y0051515D01*
X0120305Y0051572D01*
X0120289Y0051631D01*
X0120276Y0051690D01*
X0120267Y0051749D01*
X0120262Y0051810D01*
X0120260Y0051870D01*
X0120260Y0053370D01*
X0120760Y0053870D01*
X0120760Y0067870D01*
X0120260Y0068370D01*
X0120260Y0069870D01*
X0120262Y0069930D01*
X0120267Y0069991D01*
X0120276Y0070050D01*
X0120289Y0070109D01*
X0120305Y0070168D01*
X0120325Y0070225D01*
X0120348Y0070280D01*
X0120375Y0070335D01*
X0120404Y0070387D01*
X0120437Y0070438D01*
X0120473Y0070487D01*
X0120511Y0070533D01*
X0120553Y0070577D01*
X0120597Y0070619D01*
X0120643Y0070657D01*
X0120692Y0070693D01*
X0120743Y0070726D01*
X0120795Y0070755D01*
X0120850Y0070782D01*
X0120905Y0070805D01*
X0120962Y0070825D01*
X0121021Y0070841D01*
X0121080Y0070854D01*
X0121139Y0070863D01*
X0121200Y0070868D01*
X0121260Y0070870D01*
X0123010Y0064654D02*
X0122460Y0064104D01*
X0122460Y0063003D01*
X0123010Y0062452D01*
X0125212Y0064654D01*
X0123010Y0064654D01*
X0125212Y0064654D02*
X0125763Y0064104D01*
X0125763Y0063003D01*
X0125212Y0062452D01*
X0123010Y0062452D01*
X0123010Y0061063D02*
X0122460Y0060513D01*
X0122460Y0059412D01*
X0123010Y0058861D01*
X0123010Y0057472D02*
X0122460Y0056922D01*
X0122460Y0055821D01*
X0123010Y0055270D01*
X0124111Y0056371D02*
X0124111Y0056922D01*
X0123561Y0057472D01*
X0123010Y0057472D01*
X0124111Y0056922D02*
X0124662Y0057472D01*
X0125212Y0057472D01*
X0125763Y0056922D01*
X0125763Y0055821D01*
X0125212Y0055270D01*
X0119471Y0056813D02*
X0119471Y0058465D01*
X0118920Y0059015D01*
X0117819Y0059015D01*
X0117269Y0058465D01*
X0117269Y0056813D01*
X0116168Y0056813D02*
X0119471Y0056813D01*
X0117269Y0057914D02*
X0116168Y0059015D01*
X0116168Y0060405D02*
X0118370Y0062606D01*
X0118920Y0062606D01*
X0119471Y0062056D01*
X0119471Y0060955D01*
X0118920Y0060405D01*
X0116168Y0060405D02*
X0116168Y0062606D01*
X0123010Y0061063D02*
X0123561Y0061063D01*
X0124111Y0060513D01*
X0124111Y0059962D01*
X0124111Y0060513D02*
X0124662Y0061063D01*
X0125212Y0061063D01*
X0125763Y0060513D01*
X0125763Y0059412D01*
X0125212Y0058861D01*
X0095311Y0078659D02*
X0093042Y0078659D01*
X0094177Y0078659D02*
X0094177Y0082062D01*
X0091628Y0081495D02*
X0091061Y0082062D01*
X0089926Y0082062D01*
X0089359Y0081495D01*
X0089926Y0080361D02*
X0091061Y0080361D01*
X0091628Y0080928D01*
X0091628Y0081495D01*
X0089926Y0080361D02*
X0089359Y0079794D01*
X0089359Y0079227D01*
X0089926Y0078659D01*
X0091061Y0078659D01*
X0091628Y0079227D01*
X0087890Y0070870D02*
X0081890Y0070870D01*
X0081830Y0070868D01*
X0081769Y0070863D01*
X0081710Y0070854D01*
X0081651Y0070841D01*
X0081592Y0070825D01*
X0081535Y0070805D01*
X0081480Y0070782D01*
X0081425Y0070755D01*
X0081373Y0070726D01*
X0081322Y0070693D01*
X0081273Y0070657D01*
X0081227Y0070619D01*
X0081183Y0070577D01*
X0081141Y0070533D01*
X0081103Y0070487D01*
X0081067Y0070438D01*
X0081034Y0070387D01*
X0081005Y0070335D01*
X0080978Y0070280D01*
X0080955Y0070225D01*
X0080935Y0070168D01*
X0080919Y0070109D01*
X0080906Y0070050D01*
X0080897Y0069991D01*
X0080892Y0069930D01*
X0080890Y0069870D01*
X0080890Y0068370D01*
X0081390Y0067870D01*
X0081390Y0053870D01*
X0080890Y0053370D01*
X0080890Y0051870D01*
X0080892Y0051810D01*
X0080897Y0051749D01*
X0080906Y0051690D01*
X0080919Y0051631D01*
X0080935Y0051572D01*
X0080955Y0051515D01*
X0080978Y0051460D01*
X0081005Y0051405D01*
X0081034Y0051353D01*
X0081067Y0051302D01*
X0081103Y0051253D01*
X0081141Y0051207D01*
X0081183Y0051163D01*
X0081227Y0051121D01*
X0081273Y0051083D01*
X0081322Y0051047D01*
X0081373Y0051014D01*
X0081425Y0050985D01*
X0081480Y0050958D01*
X0081535Y0050935D01*
X0081592Y0050915D01*
X0081651Y0050899D01*
X0081710Y0050886D01*
X0081769Y0050877D01*
X0081830Y0050872D01*
X0081890Y0050870D01*
X0087890Y0050870D01*
X0087950Y0050872D01*
X0088011Y0050877D01*
X0088070Y0050886D01*
X0088129Y0050899D01*
X0088188Y0050915D01*
X0088245Y0050935D01*
X0088300Y0050958D01*
X0088355Y0050985D01*
X0088407Y0051014D01*
X0088458Y0051047D01*
X0088507Y0051083D01*
X0088553Y0051121D01*
X0088597Y0051163D01*
X0088639Y0051207D01*
X0088677Y0051253D01*
X0088713Y0051302D01*
X0088746Y0051353D01*
X0088775Y0051405D01*
X0088802Y0051460D01*
X0088825Y0051515D01*
X0088845Y0051572D01*
X0088861Y0051631D01*
X0088874Y0051690D01*
X0088883Y0051749D01*
X0088888Y0051810D01*
X0088890Y0051870D01*
X0088890Y0053370D01*
X0088390Y0053870D01*
X0088390Y0067870D01*
X0088890Y0068370D01*
X0088890Y0069870D01*
X0088888Y0069930D01*
X0088883Y0069991D01*
X0088874Y0070050D01*
X0088861Y0070109D01*
X0088845Y0070168D01*
X0088825Y0070225D01*
X0088802Y0070280D01*
X0088775Y0070335D01*
X0088746Y0070387D01*
X0088713Y0070438D01*
X0088677Y0070487D01*
X0088639Y0070533D01*
X0088597Y0070577D01*
X0088553Y0070619D01*
X0088507Y0070657D01*
X0088458Y0070693D01*
X0088407Y0070726D01*
X0088355Y0070755D01*
X0088300Y0070782D01*
X0088245Y0070805D01*
X0088188Y0070825D01*
X0088129Y0070841D01*
X0088070Y0070854D01*
X0088011Y0070863D01*
X0087950Y0070868D01*
X0087890Y0070870D01*
X0085842Y0065154D02*
X0083640Y0065154D01*
X0083090Y0064604D01*
X0083090Y0063503D01*
X0083640Y0062952D01*
X0085842Y0065154D01*
X0086393Y0064604D01*
X0086393Y0063503D01*
X0085842Y0062952D01*
X0083640Y0062952D01*
X0083640Y0061563D02*
X0083090Y0061013D01*
X0083090Y0059912D01*
X0083640Y0059361D01*
X0084741Y0060462D02*
X0084741Y0061013D01*
X0084191Y0061563D01*
X0083640Y0061563D01*
X0084741Y0061013D02*
X0085292Y0061563D01*
X0085842Y0061563D01*
X0086393Y0061013D01*
X0086393Y0059912D01*
X0085842Y0059361D01*
X0085842Y0057972D02*
X0085292Y0057972D01*
X0084741Y0057422D01*
X0084191Y0057972D01*
X0083640Y0057972D01*
X0083090Y0057422D01*
X0083090Y0056321D01*
X0083640Y0055770D01*
X0084741Y0056871D02*
X0084741Y0057422D01*
X0085842Y0057972D02*
X0086393Y0057422D01*
X0086393Y0056321D01*
X0085842Y0055770D01*
X0079956Y0058558D02*
X0079956Y0060210D01*
X0079405Y0060760D01*
X0078304Y0060760D01*
X0077754Y0060210D01*
X0077754Y0058558D01*
X0076653Y0058558D02*
X0079956Y0058558D01*
X0077754Y0059659D02*
X0076653Y0060760D01*
X0076653Y0062149D02*
X0076653Y0064351D01*
X0076653Y0063250D02*
X0079956Y0063250D01*
X0078855Y0062149D01*
X0101575Y0035437D02*
X0107575Y0035437D01*
X0107635Y0035435D01*
X0107696Y0035430D01*
X0107755Y0035421D01*
X0107814Y0035408D01*
X0107873Y0035392D01*
X0107930Y0035372D01*
X0107985Y0035349D01*
X0108040Y0035322D01*
X0108092Y0035293D01*
X0108143Y0035260D01*
X0108192Y0035224D01*
X0108238Y0035186D01*
X0108282Y0035144D01*
X0108324Y0035100D01*
X0108362Y0035054D01*
X0108398Y0035005D01*
X0108431Y0034954D01*
X0108460Y0034902D01*
X0108487Y0034847D01*
X0108510Y0034792D01*
X0108530Y0034735D01*
X0108546Y0034676D01*
X0108559Y0034617D01*
X0108568Y0034558D01*
X0108573Y0034497D01*
X0108575Y0034437D01*
X0108575Y0032937D01*
X0108075Y0032437D01*
X0108075Y0018437D01*
X0108575Y0017937D01*
X0108575Y0016437D01*
X0108573Y0016377D01*
X0108568Y0016316D01*
X0108559Y0016257D01*
X0108546Y0016198D01*
X0108530Y0016139D01*
X0108510Y0016082D01*
X0108487Y0016027D01*
X0108460Y0015972D01*
X0108431Y0015920D01*
X0108398Y0015869D01*
X0108362Y0015820D01*
X0108324Y0015774D01*
X0108282Y0015730D01*
X0108238Y0015688D01*
X0108192Y0015650D01*
X0108143Y0015614D01*
X0108092Y0015581D01*
X0108040Y0015552D01*
X0107985Y0015525D01*
X0107930Y0015502D01*
X0107873Y0015482D01*
X0107814Y0015466D01*
X0107755Y0015453D01*
X0107696Y0015444D01*
X0107635Y0015439D01*
X0107575Y0015437D01*
X0101575Y0015437D01*
X0101515Y0015439D01*
X0101454Y0015444D01*
X0101395Y0015453D01*
X0101336Y0015466D01*
X0101277Y0015482D01*
X0101220Y0015502D01*
X0101165Y0015525D01*
X0101110Y0015552D01*
X0101058Y0015581D01*
X0101007Y0015614D01*
X0100958Y0015650D01*
X0100912Y0015688D01*
X0100868Y0015730D01*
X0100826Y0015774D01*
X0100788Y0015820D01*
X0100752Y0015869D01*
X0100719Y0015920D01*
X0100690Y0015972D01*
X0100663Y0016027D01*
X0100640Y0016082D01*
X0100620Y0016139D01*
X0100604Y0016198D01*
X0100591Y0016257D01*
X0100582Y0016316D01*
X0100577Y0016377D01*
X0100575Y0016437D01*
X0100575Y0017937D01*
X0101075Y0018437D01*
X0101075Y0032437D01*
X0100575Y0032937D01*
X0100575Y0034437D01*
X0100577Y0034497D01*
X0100582Y0034558D01*
X0100591Y0034617D01*
X0100604Y0034676D01*
X0100620Y0034735D01*
X0100640Y0034792D01*
X0100663Y0034847D01*
X0100690Y0034902D01*
X0100719Y0034954D01*
X0100752Y0035005D01*
X0100788Y0035054D01*
X0100826Y0035100D01*
X0100868Y0035144D01*
X0100912Y0035186D01*
X0100958Y0035224D01*
X0101007Y0035260D01*
X0101058Y0035293D01*
X0101110Y0035322D01*
X0101165Y0035349D01*
X0101220Y0035372D01*
X0101277Y0035392D01*
X0101336Y0035408D01*
X0101395Y0035421D01*
X0101454Y0035430D01*
X0101515Y0035435D01*
X0101575Y0035437D01*
X0103542Y0028972D02*
X0102975Y0028405D01*
X0102975Y0027271D01*
X0103542Y0026703D01*
X0105811Y0028972D01*
X0103542Y0028972D01*
X0105811Y0028972D02*
X0106378Y0028405D01*
X0106378Y0027271D01*
X0105811Y0026703D01*
X0103542Y0026703D01*
X0102975Y0025289D02*
X0102975Y0023020D01*
X0105243Y0025289D01*
X0105811Y0025289D01*
X0106378Y0024722D01*
X0106378Y0023587D01*
X0105811Y0023020D01*
X0105811Y0021606D02*
X0106378Y0021039D01*
X0106378Y0019904D01*
X0105811Y0019337D01*
X0105243Y0021606D02*
X0102975Y0019337D01*
X0102975Y0021606D01*
X0105243Y0021606D02*
X0105811Y0021606D01*
X0109581Y0022036D02*
X0112984Y0022036D01*
X0112984Y0023738D01*
X0112417Y0024305D01*
X0111283Y0024305D01*
X0110715Y0023738D01*
X0110715Y0022036D01*
X0110715Y0023171D02*
X0109581Y0024305D01*
X0111283Y0025719D02*
X0111283Y0027988D01*
X0109581Y0027421D02*
X0112984Y0027421D01*
X0111283Y0025719D01*
D14*
X0004151Y0033167D02*
X0003250Y0034068D01*
X0004151Y0034969D01*
X0005952Y0034969D01*
X0005502Y0036114D02*
X0003700Y0036114D01*
X0003250Y0036564D01*
X0003250Y0037465D01*
X0003700Y0037915D01*
X0003700Y0039060D02*
X0003250Y0039511D01*
X0003250Y0040412D01*
X0003700Y0040862D01*
X0005502Y0040862D02*
X0005952Y0040412D01*
X0005952Y0039511D01*
X0005502Y0039060D01*
X0003700Y0039060D01*
X0005502Y0037915D02*
X0005952Y0037465D01*
X0005952Y0036564D01*
X0005502Y0036114D01*
X0005952Y0033167D02*
X0004151Y0033167D01*
X0003700Y0043404D02*
X0003250Y0043854D01*
X0003250Y0044755D01*
X0003700Y0045205D01*
X0004601Y0045205D01*
X0004601Y0044304D01*
X0005502Y0043404D02*
X0003700Y0043404D01*
X0005502Y0043404D02*
X0005952Y0043854D01*
X0005952Y0044755D01*
X0005502Y0045205D01*
X0005952Y0046350D02*
X0003250Y0046350D01*
X0003250Y0048152D02*
X0005952Y0046350D01*
X0005952Y0048152D02*
X0003250Y0048152D01*
X0003250Y0049297D02*
X0003250Y0050648D01*
X0003700Y0051098D01*
X0005502Y0051098D01*
X0005952Y0050648D01*
X0005952Y0049297D01*
X0003250Y0049297D01*
X0003250Y0054034D02*
X0005052Y0054034D01*
X0005952Y0054934D01*
X0005052Y0055835D01*
X0003250Y0055835D01*
X0003250Y0056980D02*
X0005952Y0056980D01*
X0003250Y0058782D01*
X0005952Y0058782D01*
X0005052Y0059927D02*
X0005952Y0060827D01*
X0003250Y0060827D01*
X0003250Y0059927D02*
X0003250Y0061728D01*
X0004094Y0063876D02*
X0003644Y0064326D01*
X0003644Y0065227D01*
X0004094Y0065678D01*
X0004995Y0065678D01*
X0004995Y0064777D01*
X0005896Y0065678D02*
X0006346Y0065227D01*
X0006346Y0064326D01*
X0005896Y0063876D01*
X0004094Y0063876D01*
X0003644Y0066823D02*
X0006346Y0066823D01*
X0003644Y0068624D01*
X0006346Y0068624D01*
X0006346Y0069769D02*
X0006346Y0071120D01*
X0005896Y0071571D01*
X0004094Y0071571D01*
X0003644Y0071120D01*
X0003644Y0069769D01*
X0006346Y0069769D01*
X0006346Y0074506D02*
X0004544Y0074506D01*
X0003644Y0075407D01*
X0004544Y0076308D01*
X0006346Y0076308D01*
X0005896Y0077452D02*
X0004094Y0077452D01*
X0003644Y0077903D01*
X0003644Y0078804D01*
X0004094Y0079254D01*
X0004094Y0080399D02*
X0003644Y0080849D01*
X0003644Y0081750D01*
X0004094Y0082201D01*
X0005896Y0082201D02*
X0006346Y0081750D01*
X0006346Y0080849D01*
X0005896Y0080399D01*
X0004094Y0080399D01*
X0005896Y0079254D02*
X0006346Y0078804D01*
X0006346Y0077903D01*
X0005896Y0077452D01*
X0005445Y0085136D02*
X0003644Y0085136D01*
X0004995Y0085136D02*
X0004995Y0086937D01*
X0005445Y0086937D02*
X0003644Y0086937D01*
X0003644Y0088082D02*
X0006346Y0088082D01*
X0003644Y0089884D01*
X0006346Y0089884D01*
X0005445Y0091029D02*
X0006346Y0091930D01*
X0003644Y0091930D01*
X0003644Y0092830D02*
X0003644Y0091029D01*
X0005445Y0086937D02*
X0006346Y0086037D01*
X0005445Y0085136D01*
X0035533Y0099313D02*
X0035533Y0101115D01*
X0035984Y0101565D01*
X0036885Y0101565D01*
X0037335Y0101115D01*
X0037335Y0100214D01*
X0036434Y0100214D01*
X0035533Y0099313D02*
X0035984Y0098863D01*
X0036885Y0098863D01*
X0037335Y0099313D01*
X0038480Y0098863D02*
X0040282Y0101565D01*
X0040282Y0098863D01*
X0041427Y0098863D02*
X0042778Y0098863D01*
X0043228Y0099313D01*
X0043228Y0101115D01*
X0042778Y0101565D01*
X0041427Y0101565D01*
X0041427Y0098863D01*
X0038480Y0098863D02*
X0038480Y0101565D01*
X0045770Y0100664D02*
X0045770Y0098863D01*
X0047571Y0098863D02*
X0047571Y0100664D01*
X0046670Y0101565D01*
X0045770Y0100664D01*
X0048716Y0101115D02*
X0048716Y0099313D01*
X0049167Y0098863D01*
X0050067Y0098863D01*
X0050518Y0099313D01*
X0051663Y0099313D02*
X0051663Y0101115D01*
X0052113Y0101565D01*
X0053014Y0101565D01*
X0053464Y0101115D01*
X0056006Y0101565D02*
X0056006Y0099763D01*
X0056907Y0098863D01*
X0057807Y0099763D01*
X0057807Y0101565D01*
X0058952Y0101565D02*
X0058952Y0098863D01*
X0060754Y0101565D01*
X0060754Y0098863D01*
X0061899Y0099763D02*
X0062800Y0098863D01*
X0062800Y0101565D01*
X0063700Y0101565D02*
X0061899Y0101565D01*
X0057807Y0100214D02*
X0056006Y0100214D01*
X0053464Y0099313D02*
X0053014Y0098863D01*
X0052113Y0098863D01*
X0051663Y0099313D01*
X0050518Y0101115D02*
X0050067Y0101565D01*
X0049167Y0101565D01*
X0048716Y0101115D01*
X0061325Y0088543D02*
X0061325Y0087275D01*
X0061325Y0087909D02*
X0063226Y0087909D01*
X0062593Y0087275D01*
X0063226Y0086333D02*
X0063226Y0085699D01*
X0063226Y0086016D02*
X0061642Y0086016D01*
X0061325Y0085699D01*
X0061325Y0085382D01*
X0061642Y0085065D01*
X0004601Y0055835D02*
X0004601Y0054034D01*
X0034656Y0120154D02*
X0034656Y0121956D01*
X0035556Y0122856D01*
X0036457Y0121956D01*
X0036457Y0120154D01*
X0037602Y0120604D02*
X0037602Y0122406D01*
X0038052Y0122856D01*
X0038953Y0122856D01*
X0039404Y0122406D01*
X0040549Y0122406D02*
X0040999Y0122856D01*
X0041900Y0122856D01*
X0042350Y0122406D01*
X0040549Y0122406D02*
X0040549Y0120604D01*
X0040999Y0120154D01*
X0041900Y0120154D01*
X0042350Y0120604D01*
X0045313Y0120604D02*
X0045313Y0122406D01*
X0045763Y0122856D01*
X0046664Y0122856D01*
X0047115Y0122406D01*
X0047115Y0121505D01*
X0046214Y0121505D01*
X0047115Y0120604D02*
X0046664Y0120154D01*
X0045763Y0120154D01*
X0045313Y0120604D01*
X0048260Y0120154D02*
X0050061Y0122856D01*
X0050061Y0120154D01*
X0051206Y0120154D02*
X0052557Y0120154D01*
X0053008Y0120604D01*
X0053008Y0122406D01*
X0052557Y0122856D01*
X0051206Y0122856D01*
X0051206Y0120154D01*
X0048260Y0120154D02*
X0048260Y0122856D01*
X0055785Y0122856D02*
X0055785Y0121055D01*
X0056686Y0120154D01*
X0057587Y0121055D01*
X0057587Y0122856D01*
X0058732Y0122856D02*
X0058732Y0120154D01*
X0060533Y0122856D01*
X0060533Y0120154D01*
X0061678Y0121055D02*
X0062579Y0120154D01*
X0062579Y0122856D01*
X0061678Y0122856D02*
X0063480Y0122856D01*
X0057587Y0121505D02*
X0055785Y0121505D01*
X0039404Y0120604D02*
X0038953Y0120154D01*
X0038052Y0120154D01*
X0037602Y0120604D01*
X0146230Y0120154D02*
X0146230Y0121956D01*
X0147131Y0122856D01*
X0148032Y0121956D01*
X0148032Y0120154D01*
X0149177Y0120604D02*
X0149177Y0122406D01*
X0149627Y0122856D01*
X0150528Y0122856D01*
X0150978Y0122406D01*
X0152123Y0122406D02*
X0152574Y0122856D01*
X0153474Y0122856D01*
X0153925Y0122406D01*
X0152123Y0122406D02*
X0152123Y0120604D01*
X0152574Y0120154D01*
X0153474Y0120154D01*
X0153925Y0120604D01*
X0156600Y0120604D02*
X0156600Y0122406D01*
X0157051Y0122856D01*
X0157952Y0122856D01*
X0158402Y0122406D01*
X0158402Y0121505D01*
X0157501Y0121505D01*
X0156600Y0120604D02*
X0157051Y0120154D01*
X0157952Y0120154D01*
X0158402Y0120604D01*
X0159547Y0120154D02*
X0161348Y0122856D01*
X0161348Y0120154D01*
X0162493Y0120154D02*
X0163845Y0120154D01*
X0164295Y0120604D01*
X0164295Y0122406D01*
X0163845Y0122856D01*
X0162493Y0122856D01*
X0162493Y0120154D01*
X0159547Y0120154D02*
X0159547Y0122856D01*
X0167360Y0122856D02*
X0167360Y0121055D01*
X0168261Y0120154D01*
X0169162Y0121055D01*
X0169162Y0122856D01*
X0170307Y0122856D02*
X0170307Y0120154D01*
X0172108Y0122856D01*
X0172108Y0120154D01*
X0173253Y0120604D02*
X0173704Y0120154D01*
X0174604Y0120154D01*
X0175055Y0120604D01*
X0175055Y0121055D01*
X0173253Y0122856D01*
X0175055Y0122856D01*
X0169162Y0121505D02*
X0167360Y0121505D01*
X0150978Y0120604D02*
X0150528Y0120154D01*
X0149627Y0120154D01*
X0149177Y0120604D01*
X0149110Y0101959D02*
X0149110Y0099256D01*
X0150911Y0101959D01*
X0150911Y0099256D01*
X0152056Y0099256D02*
X0153408Y0099256D01*
X0153858Y0099707D01*
X0153858Y0101508D01*
X0153408Y0101959D01*
X0152056Y0101959D01*
X0152056Y0099256D01*
X0147965Y0099707D02*
X0147515Y0099256D01*
X0146614Y0099256D01*
X0146163Y0099707D01*
X0146163Y0101508D01*
X0146614Y0101959D01*
X0147515Y0101959D01*
X0147965Y0101508D01*
X0147965Y0100608D01*
X0147064Y0100608D01*
X0156793Y0101058D02*
X0156793Y0099256D01*
X0158595Y0099256D02*
X0158595Y0101058D01*
X0157694Y0101959D01*
X0156793Y0101058D01*
X0159740Y0101508D02*
X0159740Y0099707D01*
X0160190Y0099256D01*
X0161091Y0099256D01*
X0161541Y0099707D01*
X0162686Y0099707D02*
X0162686Y0101508D01*
X0163137Y0101959D01*
X0164037Y0101959D01*
X0164488Y0101508D01*
X0164488Y0099707D02*
X0164037Y0099256D01*
X0163137Y0099256D01*
X0162686Y0099707D01*
X0161541Y0101508D02*
X0161091Y0101959D01*
X0160190Y0101959D01*
X0159740Y0101508D01*
X0167817Y0101959D02*
X0167817Y0100157D01*
X0168718Y0099256D01*
X0169618Y0100157D01*
X0169618Y0101959D01*
X0170763Y0101959D02*
X0170763Y0099256D01*
X0172565Y0101959D01*
X0172565Y0099256D01*
X0173710Y0099707D02*
X0174160Y0099256D01*
X0175061Y0099256D01*
X0175512Y0099707D01*
X0175512Y0100157D01*
X0173710Y0101959D01*
X0175512Y0101959D01*
X0169618Y0100608D02*
X0167817Y0100608D01*
X0203197Y0092060D02*
X0203197Y0091159D01*
X0203648Y0090708D01*
X0204548Y0090708D02*
X0204548Y0091609D01*
X0204548Y0090708D02*
X0205449Y0090708D01*
X0205900Y0091159D01*
X0205900Y0092060D01*
X0205449Y0092510D01*
X0203648Y0092510D01*
X0203197Y0092060D01*
X0203197Y0089563D02*
X0205900Y0087762D01*
X0203197Y0087762D01*
X0203197Y0086617D02*
X0203197Y0085266D01*
X0203648Y0084815D01*
X0205449Y0084815D01*
X0205900Y0085266D01*
X0205900Y0086617D01*
X0203197Y0086617D01*
X0203197Y0089563D02*
X0205900Y0089563D01*
X0204999Y0081880D02*
X0203197Y0081880D01*
X0203197Y0080078D02*
X0204999Y0080078D01*
X0205900Y0080979D01*
X0204999Y0081880D01*
X0205449Y0078933D02*
X0203648Y0078933D01*
X0203197Y0078483D01*
X0203197Y0077582D01*
X0203648Y0077132D01*
X0203648Y0075987D02*
X0205449Y0075987D01*
X0205900Y0075537D01*
X0205900Y0074636D01*
X0205449Y0074185D01*
X0203648Y0074185D02*
X0203197Y0074636D01*
X0203197Y0075537D01*
X0203648Y0075987D01*
X0205449Y0077132D02*
X0205900Y0077582D01*
X0205900Y0078483D01*
X0205449Y0078933D01*
X0205506Y0071644D02*
X0203704Y0071644D01*
X0202804Y0070743D01*
X0203704Y0069842D01*
X0205506Y0069842D01*
X0205506Y0068697D02*
X0202804Y0068697D01*
X0205506Y0066896D01*
X0202804Y0066896D01*
X0203254Y0065751D02*
X0202804Y0065300D01*
X0202804Y0064400D01*
X0203254Y0063949D01*
X0203704Y0063949D01*
X0205506Y0065751D01*
X0205506Y0063949D01*
X0204999Y0061014D02*
X0203197Y0061014D01*
X0204999Y0061014D02*
X0205900Y0060113D01*
X0204999Y0059212D01*
X0203197Y0059212D01*
X0203648Y0058067D02*
X0205449Y0058067D01*
X0205900Y0057617D01*
X0205900Y0056716D01*
X0205449Y0056266D01*
X0205449Y0055121D02*
X0203648Y0055121D01*
X0203197Y0054670D01*
X0203197Y0053770D01*
X0203648Y0053319D01*
X0205449Y0053319D02*
X0205900Y0053770D01*
X0205900Y0054670D01*
X0205449Y0055121D01*
X0203648Y0056266D02*
X0203197Y0056716D01*
X0203197Y0057617D01*
X0203648Y0058067D01*
X0203648Y0050384D02*
X0205449Y0050384D01*
X0205900Y0049934D01*
X0205900Y0049033D01*
X0205449Y0048582D01*
X0204548Y0048582D01*
X0204548Y0049483D01*
X0203648Y0048582D02*
X0203197Y0049033D01*
X0203197Y0049934D01*
X0203648Y0050384D01*
X0203197Y0047437D02*
X0205900Y0045636D01*
X0203197Y0045636D01*
X0203197Y0044491D02*
X0203197Y0043140D01*
X0203648Y0042689D01*
X0205449Y0042689D01*
X0205900Y0043140D01*
X0205900Y0044491D01*
X0203197Y0044491D01*
X0203197Y0047437D02*
X0205900Y0047437D01*
X0205900Y0040148D02*
X0204098Y0040148D01*
X0203197Y0039247D01*
X0204098Y0038346D01*
X0205900Y0038346D01*
X0205900Y0037201D02*
X0203197Y0037201D01*
X0205900Y0035400D01*
X0203197Y0035400D01*
X0203648Y0034255D02*
X0203197Y0033804D01*
X0203197Y0032904D01*
X0203648Y0032453D01*
X0204098Y0032453D01*
X0205900Y0034255D01*
X0205900Y0032453D01*
X0204548Y0038346D02*
X0204548Y0040148D01*
X0204155Y0069842D02*
X0204155Y0071644D01*
D15*
X0124260Y0071620D03*
X0124260Y0050120D03*
X0104575Y0036187D03*
X0084890Y0050120D03*
X0084890Y0071620D03*
X0104575Y0014687D03*
M02*
