G75*
%MOIN*%
%OFA0B0*%
%FSLAX25Y25*%
%IPPOS*%
%LPD*%
%AMOC8*
5,1,8,0,0,1.08239X$1,22.5*
%
%ADD10C,0.01500*%
%ADD11C,0.00600*%
%ADD12C,0.01000*%
%ADD13C,0.00800*%
%ADD14C,0.00500*%
D10*
X0006547Y0032550D02*
X0007715Y0033718D01*
X0006547Y0034885D01*
X0010050Y0034885D01*
X0009466Y0037154D02*
X0010050Y0037738D01*
X0010050Y0038905D01*
X0009466Y0039489D01*
X0007131Y0039489D01*
X0006547Y0038905D01*
X0006547Y0037738D01*
X0007131Y0037154D01*
X0009466Y0037154D01*
X0010050Y0032550D02*
X0006547Y0032550D01*
X0008299Y0041758D02*
X0008299Y0044093D01*
X0007715Y0046362D02*
X0010050Y0047529D01*
X0007715Y0048697D01*
X0007131Y0050966D02*
X0006547Y0051550D01*
X0006547Y0052717D01*
X0007131Y0053301D01*
X0007715Y0053301D01*
X0010050Y0050966D01*
X0010050Y0053301D01*
X0008299Y0055570D02*
X0008299Y0057905D01*
X0007131Y0060174D02*
X0006547Y0060757D01*
X0006547Y0061925D01*
X0007131Y0062509D01*
X0007715Y0062509D01*
X0010050Y0060174D01*
X0010050Y0062509D01*
X0010050Y0069381D02*
X0007715Y0069381D01*
X0006547Y0070549D01*
X0007715Y0071717D01*
X0010050Y0071717D01*
X0008299Y0071717D02*
X0008299Y0069381D01*
X0008299Y0073985D02*
X0009466Y0073985D01*
X0010050Y0074569D01*
X0010050Y0076321D01*
X0009466Y0079173D02*
X0010050Y0079757D01*
X0009466Y0079173D02*
X0007131Y0079173D01*
X0007715Y0078589D02*
X0007715Y0079757D01*
X0007715Y0081659D02*
X0009466Y0081659D01*
X0010050Y0082242D01*
X0010050Y0083994D01*
X0007715Y0083994D01*
X0007715Y0086846D02*
X0007715Y0088014D01*
X0008299Y0088598D01*
X0010050Y0088598D01*
X0010050Y0086846D01*
X0009466Y0086262D01*
X0008882Y0086846D01*
X0008882Y0088598D01*
X0007715Y0090866D02*
X0007715Y0092034D01*
X0007131Y0091450D02*
X0009466Y0091450D01*
X0010050Y0092034D01*
X0009466Y0093936D02*
X0008299Y0093936D01*
X0007715Y0094519D01*
X0007715Y0095687D01*
X0008299Y0096271D01*
X0009466Y0096271D01*
X0010050Y0095687D01*
X0010050Y0094519D01*
X0009466Y0093936D01*
X0008882Y0098540D02*
X0007715Y0099707D01*
X0007715Y0100291D01*
X0007715Y0098540D02*
X0010050Y0098540D01*
X0010050Y0102376D02*
X0010050Y0104128D01*
X0009466Y0104712D01*
X0008882Y0104128D01*
X0008882Y0102960D01*
X0008299Y0102376D01*
X0007715Y0102960D01*
X0007715Y0104712D01*
X0006547Y0111584D02*
X0007715Y0112752D01*
X0006547Y0113919D01*
X0010050Y0113919D01*
X0009466Y0116188D02*
X0008299Y0116188D01*
X0007715Y0116772D01*
X0007715Y0117939D01*
X0008299Y0118523D01*
X0009466Y0118523D01*
X0010050Y0117939D01*
X0010050Y0116772D01*
X0009466Y0116188D01*
X0009466Y0120792D02*
X0008299Y0120792D01*
X0007715Y0121376D01*
X0007715Y0123127D01*
X0006547Y0123127D02*
X0010050Y0123127D01*
X0010050Y0121376D01*
X0009466Y0120792D01*
X0009466Y0125396D02*
X0007715Y0125396D01*
X0009466Y0125396D02*
X0010050Y0125980D01*
X0010050Y0127731D01*
X0007715Y0127731D01*
X0006547Y0130000D02*
X0006547Y0130584D01*
X0010050Y0130584D01*
X0010050Y0131167D02*
X0010050Y0130000D01*
X0009466Y0133069D02*
X0008299Y0133069D01*
X0007715Y0133653D01*
X0007715Y0134820D01*
X0008299Y0135404D01*
X0008882Y0135404D01*
X0008882Y0133069D01*
X0009466Y0133069D02*
X0010050Y0133653D01*
X0010050Y0134820D01*
X0010050Y0111584D02*
X0006547Y0111584D01*
X0007715Y0076321D02*
X0007715Y0074569D01*
X0008299Y0073985D01*
D11*
X0124030Y0062221D02*
X0124597Y0062221D01*
X0125731Y0062221D02*
X0125731Y0061654D01*
X0125731Y0062221D02*
X0128000Y0062221D01*
X0128000Y0061654D02*
X0128000Y0062789D01*
X0128000Y0060333D02*
X0128000Y0059199D01*
X0128000Y0059766D02*
X0124597Y0059766D01*
X0124597Y0059199D01*
X0125731Y0057784D02*
X0128000Y0057784D01*
X0126299Y0057784D02*
X0126299Y0055516D01*
X0125731Y0055516D02*
X0124597Y0056650D01*
X0125731Y0057784D01*
X0125731Y0055516D02*
X0128000Y0055516D01*
X0125164Y0050418D02*
X0124597Y0050418D01*
X0124597Y0048149D01*
X0124597Y0045601D02*
X0128000Y0045601D01*
X0128000Y0046735D02*
X0128000Y0044466D01*
X0127433Y0043052D02*
X0128000Y0042485D01*
X0128000Y0041350D01*
X0127433Y0040783D01*
X0125164Y0043052D01*
X0127433Y0043052D01*
X0127433Y0040783D02*
X0125164Y0040783D01*
X0124597Y0041350D01*
X0124597Y0042485D01*
X0125164Y0043052D01*
X0125731Y0044466D02*
X0124597Y0045601D01*
X0127433Y0048149D02*
X0125164Y0050418D01*
X0127433Y0048149D02*
X0128000Y0048149D01*
X0128000Y0039369D02*
X0128000Y0037100D01*
X0125731Y0039369D01*
X0125164Y0039369D01*
X0124597Y0038801D01*
X0124597Y0037667D01*
X0125164Y0037100D01*
X0124597Y0067793D02*
X0125731Y0068927D01*
X0124597Y0070061D01*
X0128000Y0070061D01*
X0127433Y0071476D02*
X0126299Y0071476D01*
X0125731Y0072043D01*
X0125731Y0073177D01*
X0126299Y0073745D01*
X0127433Y0073745D01*
X0128000Y0073177D01*
X0128000Y0072043D01*
X0127433Y0071476D01*
X0128000Y0067793D02*
X0124597Y0067793D01*
X0125731Y0075159D02*
X0125731Y0075726D01*
X0126299Y0076293D01*
X0125731Y0076861D01*
X0126299Y0077428D01*
X0128000Y0077428D01*
X0128000Y0076293D02*
X0126299Y0076293D01*
X0125731Y0075159D02*
X0128000Y0075159D01*
X0127433Y0078842D02*
X0126299Y0078842D01*
X0125731Y0079409D01*
X0125731Y0080544D01*
X0126299Y0081111D01*
X0126866Y0081111D01*
X0126866Y0078842D01*
X0127433Y0078842D02*
X0128000Y0079409D01*
X0128000Y0080544D01*
X0128000Y0082525D02*
X0125731Y0082525D01*
X0125731Y0084227D01*
X0126299Y0084794D01*
X0128000Y0084794D01*
X0128000Y0086209D02*
X0128000Y0087343D01*
X0128000Y0086776D02*
X0125731Y0086776D01*
X0125731Y0086209D01*
X0124597Y0086776D02*
X0124030Y0086776D01*
X0125164Y0092347D02*
X0124597Y0092914D01*
X0124597Y0094049D01*
X0125164Y0094616D01*
X0126299Y0094616D01*
X0126866Y0094049D01*
X0125731Y0094049D01*
X0125731Y0092914D01*
X0126866Y0092914D01*
X0126866Y0094049D01*
X0127433Y0094616D02*
X0128000Y0094049D01*
X0128000Y0092914D01*
X0127433Y0092347D01*
X0125164Y0092347D01*
X0124597Y0099713D02*
X0124597Y0101415D01*
X0125164Y0101982D01*
X0126299Y0101982D01*
X0126866Y0101415D01*
X0126866Y0099713D01*
X0128000Y0099713D02*
X0124597Y0099713D01*
X0125731Y0103397D02*
X0125731Y0103964D01*
X0128000Y0103964D01*
X0128000Y0103397D02*
X0128000Y0104531D01*
X0127433Y0106419D02*
X0128000Y0106986D01*
X0127433Y0106419D02*
X0125164Y0106419D01*
X0125731Y0105852D02*
X0125731Y0106986D01*
X0125731Y0108307D02*
X0125731Y0109442D01*
X0125164Y0108875D02*
X0127433Y0108875D01*
X0128000Y0109442D01*
X0128000Y0110763D02*
X0128000Y0112464D01*
X0127433Y0113031D01*
X0126866Y0112464D01*
X0126866Y0111330D01*
X0126299Y0110763D01*
X0125731Y0111330D01*
X0125731Y0113031D01*
X0125731Y0114446D02*
X0125731Y0116147D01*
X0126299Y0116715D01*
X0127433Y0116715D01*
X0128000Y0116147D01*
X0128000Y0114446D01*
X0124597Y0114446D01*
X0125731Y0118129D02*
X0127433Y0118129D01*
X0128000Y0118696D01*
X0128000Y0120398D01*
X0125731Y0120398D01*
X0125731Y0121812D02*
X0128000Y0121812D01*
X0126866Y0121812D02*
X0125731Y0122947D01*
X0125731Y0123514D01*
X0126299Y0124882D02*
X0125731Y0125449D01*
X0125731Y0127150D01*
X0128567Y0127150D01*
X0129134Y0126583D01*
X0129134Y0126016D01*
X0128000Y0125449D02*
X0128000Y0127150D01*
X0128000Y0128565D02*
X0124597Y0128565D01*
X0125731Y0129132D02*
X0125731Y0130266D01*
X0126299Y0130833D01*
X0128000Y0130833D01*
X0126299Y0128565D02*
X0125731Y0129132D01*
X0126299Y0124882D02*
X0127433Y0124882D01*
X0128000Y0125449D01*
X0124597Y0103964D02*
X0124030Y0103964D01*
D12*
X0082843Y0052324D02*
X0082843Y0044922D01*
X0082843Y0052324D02*
X0032765Y0052324D01*
X0032765Y0010276D01*
X0082843Y0010276D01*
X0082843Y0017757D01*
X0082843Y0025237D02*
X0082843Y0037048D01*
D13*
X0086300Y0038800D02*
X0086300Y0033800D01*
X0088800Y0031300D01*
X0093800Y0031300D01*
X0096300Y0033800D01*
X0098800Y0031300D01*
X0103800Y0031300D01*
X0106300Y0033800D01*
X0108800Y0031300D01*
X0113800Y0031300D01*
X0116300Y0033800D01*
X0116300Y0038800D01*
X0113800Y0041300D01*
X0108800Y0041300D01*
X0106300Y0038800D01*
X0103800Y0041300D01*
X0098800Y0041300D01*
X0096300Y0038800D01*
X0093800Y0041300D01*
X0088800Y0041300D01*
X0086300Y0038800D01*
X0088800Y0041300D02*
X0093800Y0041300D01*
X0096300Y0043800D01*
X0098800Y0041300D01*
X0103800Y0041300D01*
X0106300Y0043800D01*
X0108800Y0041300D01*
X0113800Y0041300D01*
X0116300Y0043800D01*
X0116300Y0048800D01*
X0113800Y0051300D01*
X0108800Y0051300D01*
X0106300Y0048800D01*
X0103800Y0051300D01*
X0098800Y0051300D01*
X0096300Y0048800D01*
X0093800Y0051300D01*
X0088800Y0051300D01*
X0086300Y0048800D01*
X0086300Y0043800D01*
X0088800Y0041300D01*
X0048800Y0162375D02*
X0043800Y0162375D01*
D14*
X0086867Y0054452D02*
X0086550Y0054135D01*
X0086550Y0053818D01*
X0086867Y0053501D01*
X0087501Y0053501D01*
X0087818Y0053184D01*
X0087818Y0052867D01*
X0087501Y0052550D01*
X0086867Y0052550D01*
X0086550Y0052867D01*
X0086867Y0054452D02*
X0087501Y0054452D01*
X0087818Y0054135D01*
X0088760Y0054452D02*
X0088760Y0052550D01*
X0090028Y0052550D01*
X0090970Y0052550D02*
X0090970Y0054452D01*
X0091921Y0054452D01*
X0092237Y0054135D01*
X0092237Y0053501D01*
X0091921Y0053184D01*
X0090970Y0053184D01*
X0091604Y0053184D02*
X0092237Y0052550D01*
X0093180Y0053184D02*
X0093180Y0054452D01*
X0094447Y0054452D02*
X0094447Y0053184D01*
X0093814Y0052550D01*
X0093180Y0053184D01*
X0095390Y0052867D02*
X0095390Y0054135D01*
X0095706Y0054452D01*
X0096340Y0054452D01*
X0096657Y0054135D01*
X0096657Y0052867D01*
X0096340Y0052550D01*
X0095706Y0052550D01*
X0095390Y0052867D01*
X0099809Y0052550D02*
X0101077Y0052550D01*
X0100443Y0052550D02*
X0100443Y0054452D01*
X0099809Y0053818D01*
X0090028Y0054452D02*
X0088760Y0054452D01*
X0088760Y0053501D02*
X0089394Y0053501D01*
X0090028Y0030452D02*
X0088760Y0030452D01*
X0088760Y0028550D01*
X0090028Y0028550D01*
X0090970Y0028550D02*
X0090970Y0030452D01*
X0091921Y0030452D01*
X0092237Y0030135D01*
X0092237Y0029501D01*
X0091921Y0029184D01*
X0090970Y0029184D01*
X0091604Y0029184D02*
X0092237Y0028550D01*
X0093180Y0029184D02*
X0093180Y0030452D01*
X0094447Y0030452D02*
X0094447Y0029184D01*
X0093814Y0028550D01*
X0093180Y0029184D01*
X0095390Y0028867D02*
X0095390Y0030135D01*
X0095706Y0030452D01*
X0096340Y0030452D01*
X0096657Y0030135D01*
X0096657Y0028867D01*
X0096340Y0028550D01*
X0095706Y0028550D01*
X0095390Y0028867D01*
X0099809Y0028550D02*
X0101077Y0029818D01*
X0101077Y0030135D01*
X0100760Y0030452D01*
X0100126Y0030452D01*
X0099809Y0030135D01*
X0099809Y0028550D02*
X0101077Y0028550D01*
X0089394Y0029501D02*
X0088760Y0029501D01*
X0087818Y0029184D02*
X0087818Y0028867D01*
X0087501Y0028550D01*
X0086867Y0028550D01*
X0086550Y0028867D01*
X0086867Y0029501D02*
X0087501Y0029501D01*
X0087818Y0029184D01*
X0087818Y0030135D02*
X0087501Y0030452D01*
X0086867Y0030452D01*
X0086550Y0030135D01*
X0086550Y0029818D01*
X0086867Y0029501D01*
X0117550Y0035867D02*
X0117867Y0035550D01*
X0118184Y0035550D01*
X0118501Y0035867D01*
X0118501Y0037452D01*
X0118184Y0037452D02*
X0118818Y0037452D01*
X0119760Y0037452D02*
X0119760Y0036501D01*
X0120394Y0036818D01*
X0120711Y0036818D01*
X0121028Y0036501D01*
X0121028Y0035867D01*
X0120711Y0035550D01*
X0120077Y0035550D01*
X0119760Y0035867D01*
X0119760Y0037452D02*
X0121028Y0037452D01*
X0120711Y0046050D02*
X0120711Y0047952D01*
X0119760Y0047001D01*
X0121028Y0047001D01*
X0118818Y0047952D02*
X0118184Y0047952D01*
X0118501Y0047952D02*
X0118501Y0046367D01*
X0118184Y0046050D01*
X0117867Y0046050D01*
X0117550Y0046367D01*
M02*
