%
M48
M72
T01C0.0138
T02C0.0315
T03C0.0320
T04C0.0354
T05C0.0400
T06C0.0413
T07C0.0709
T08C0.0866
T09C0.1575
%
T01
X7898Y8548
X13706Y11205
X17938Y5693
T02
X14213Y3150
X13213Y3150
X12213Y3150
X12213Y1150
X13213Y1150
X14213Y1150
X8702Y1150
X7702Y1150
X6702Y1150
X6702Y3150
X7702Y3150
X8702Y3150
T03
X10457Y4044
X8489Y4587
X9957Y6284
X10957Y6284
X12426Y7587
X8489Y7587
X12426Y4587
X10457Y1044
T04
X5158Y3528
X4158Y3528
X3158Y3528
X15757Y3528
X16757Y3528
X17757Y3528
T05
X19906Y3693
X19906Y4693
X19906Y5693
X19906Y6843
X19906Y7843
X19906Y8843
X17064Y10654
X16064Y10654
X15064Y10654
X15048Y11611
X16048Y11611
X17048Y11611
X12457Y10732
X11457Y10732
X10457Y10732
X9457Y10732
X8457Y10732
X8457Y9632
X9457Y9632
X10457Y9632
X11457Y9632
X12457Y9632
X5883Y10654
X4883Y10654
X3883Y10654
X3891Y11611
X4891Y11611
X5891Y11611
X1009Y8874
X1009Y7874
X1009Y6874
X1009Y5725
X1009Y4725
X1009Y3725
T06
X7009Y2583
X7009Y1721
X12520Y1721
X12520Y2583
T07
X14867Y6481
X18646Y6481
X6048Y6481
X2269Y6481
T08
X8698Y2170
X14209Y2170
T09
X1796Y1756
X1796Y10811
X19119Y10811
X19119Y1756
M30
