G75*
%MOIN*%
%OFA0B0*%
%FSLAX25Y25*%
%IPPOS*%
%LPD*%
%AMOC8*
5,1,8,0,0,1.08239X$1,22.5*
%
%ADD10C,0.07400*%
%ADD11C,0.06600*%
%ADD12C,0.06000*%
%ADD13OC8,0.05200*%
%ADD14C,0.07000*%
%ADD15C,0.11811*%
%ADD16C,0.00800*%
%ADD17C,0.02978*%
%ADD18C,0.01600*%
%ADD19C,0.02400*%
D10*
X0084575Y0096315D03*
X0094575Y0096315D03*
X0104575Y0096315D03*
X0114575Y0096315D03*
X0124575Y0096315D03*
X0124575Y0107315D03*
X0114575Y0107315D03*
X0104575Y0107315D03*
X0094575Y0107315D03*
X0084575Y0107315D03*
D11*
X0087016Y0031500D03*
X0077016Y0031500D03*
X0067016Y0031500D03*
X0067016Y0011500D03*
X0077016Y0011500D03*
X0087016Y0011500D03*
X0122134Y0011500D03*
X0132134Y0011500D03*
X0142134Y0011500D03*
X0142134Y0031500D03*
X0132134Y0031500D03*
X0122134Y0031500D03*
D12*
X0199063Y0036933D03*
X0199063Y0046933D03*
X0199063Y0056933D03*
X0199063Y0068429D03*
X0199063Y0078429D03*
X0199063Y0088429D03*
X0170638Y0106539D03*
X0160638Y0106539D03*
X0150638Y0106539D03*
X0150480Y0116106D03*
X0160480Y0116106D03*
X0170480Y0116106D03*
X0058906Y0116106D03*
X0048906Y0116106D03*
X0038906Y0116106D03*
X0038827Y0106539D03*
X0048827Y0106539D03*
X0058827Y0106539D03*
X0010087Y0088744D03*
X0010087Y0078744D03*
X0010087Y0068744D03*
X0010087Y0057248D03*
X0010087Y0047248D03*
X0010087Y0037248D03*
D13*
X0084890Y0045870D03*
X0104575Y0040437D03*
X0124260Y0045870D03*
X0109575Y0062839D03*
X0099575Y0062839D03*
X0084890Y0075870D03*
X0124260Y0075870D03*
X0104575Y0010437D03*
D14*
X0031583Y0035280D03*
X0041583Y0035280D03*
X0051583Y0035280D03*
X0157567Y0035280D03*
X0167567Y0035280D03*
X0177567Y0035280D03*
D15*
X0186465Y0064807D03*
X0148669Y0064807D03*
X0060480Y0064807D03*
X0022685Y0064807D03*
D16*
X0060283Y0053980D02*
X0078984Y0072681D01*
X0078984Y0081539D01*
X0093748Y0096303D01*
X0094575Y0096315D01*
X0083906Y0103193D02*
X0078984Y0098272D01*
X0078984Y0085476D01*
X0083906Y0103193D02*
X0083906Y0107130D01*
X0084575Y0107315D01*
X0114417Y0096303D02*
X0114575Y0096315D01*
X0114417Y0096303D02*
X0062252Y0044138D01*
X0062252Y0015595D01*
X0066189Y0011658D01*
X0067016Y0011500D01*
X0065205Y0006736D02*
X0060283Y0011658D01*
X0060283Y0053980D01*
X0099575Y0062839D02*
X0099654Y0062839D01*
X0104575Y0057917D01*
X0104575Y0040437D01*
X0109496Y0031343D02*
X0102606Y0024453D01*
X0120323Y0006736D01*
X0124260Y0006736D01*
X0128197Y0010673D01*
X0132134Y0010673D01*
X0132134Y0011500D01*
X0122134Y0011500D02*
X0121307Y0011658D01*
X0117370Y0015595D01*
X0117370Y0060870D01*
X0137055Y0080555D01*
X0137055Y0112051D01*
X0144929Y0111067D02*
X0149850Y0115988D01*
X0150480Y0116106D01*
X0144929Y0111067D02*
X0144929Y0105161D01*
X0180362Y0069728D01*
X0188236Y0077602D01*
X0199063Y0077602D01*
X0199063Y0078429D01*
X0180362Y0069728D02*
X0178394Y0067760D01*
X0178394Y0055949D01*
X0179378Y0056933D01*
X0178394Y0055949D02*
X0157724Y0035280D01*
X0157567Y0035280D01*
X0109496Y0031343D02*
X0109496Y0062839D01*
X0109575Y0062839D01*
X0102606Y0024453D02*
X0089811Y0011658D01*
X0087843Y0011658D01*
X0087016Y0011500D01*
X0088827Y0006736D02*
X0091780Y0009689D01*
X0104575Y0009689D01*
X0104575Y0010437D01*
X0088827Y0006736D02*
X0065205Y0006736D01*
D17*
X0179378Y0056933D03*
X0137055Y0112051D03*
X0078984Y0085476D03*
D18*
X0051425Y0083508D02*
X0081937Y0114020D01*
X0087843Y0114020D01*
X0093748Y0108114D01*
X0094575Y0107315D01*
X0059299Y0106146D02*
X0058827Y0106539D01*
X0059299Y0106146D02*
X0026327Y0073173D01*
X0025835Y0073665D01*
X0024850Y0073665D01*
X0010087Y0088429D01*
X0010087Y0088744D01*
X0026327Y0073173D02*
X0031740Y0067760D01*
X0031740Y0061854D01*
X0022390Y0052504D01*
X0017961Y0056933D01*
X0010087Y0056933D01*
X0010087Y0057248D01*
X0022390Y0052504D02*
X0033709Y0041185D01*
X0035677Y0041185D01*
X0041583Y0035280D01*
X0041583Y0035280D01*
X0051425Y0035280D02*
X0051583Y0035280D01*
X0051425Y0035280D02*
X0051425Y0083508D01*
X0038827Y0106539D02*
X0039614Y0107130D01*
X0048472Y0115988D01*
X0048906Y0116106D01*
X0150638Y0106539D02*
X0151819Y0107130D01*
X0170520Y0088429D01*
X0199063Y0088429D01*
X0199063Y0068429D02*
X0199063Y0064807D01*
X0193157Y0058902D01*
X0193157Y0037248D01*
X0199063Y0037248D01*
X0199063Y0036933D01*
X0193157Y0037248D02*
X0184299Y0037248D01*
X0180362Y0041185D01*
X0173472Y0041185D01*
X0167567Y0035280D01*
X0167567Y0035280D01*
X0150638Y0106539D02*
X0150835Y0107130D01*
X0159693Y0115988D01*
X0160480Y0116106D01*
D19*
X0132134Y0110083D02*
X0127213Y0115004D01*
X0111465Y0115004D01*
X0104575Y0108114D01*
X0104575Y0107315D01*
X0104575Y0096315D02*
X0104575Y0095319D01*
X0097685Y0088429D01*
X0096701Y0088429D01*
X0084890Y0076618D01*
X0084890Y0075870D01*
X0124260Y0075870D02*
X0124260Y0085476D01*
X0132134Y0093350D01*
X0132134Y0110083D01*
M02*
