G75*
%MOIN*%
%OFA0B0*%
%FSLAX25Y25*%
%IPPOS*%
%LPD*%
%AMOC8*
5,1,8,0,0,1.08239X$1,22.5*
%
%ADD10C,0.00600*%
%ADD11C,0.00000*%
D10*
X0001898Y0013111D02*
X0001898Y0383190D01*
X0001901Y0383475D01*
X0001912Y0383761D01*
X0001929Y0384046D01*
X0001953Y0384330D01*
X0001984Y0384614D01*
X0002022Y0384897D01*
X0002067Y0385178D01*
X0002118Y0385459D01*
X0002176Y0385739D01*
X0002241Y0386017D01*
X0002313Y0386293D01*
X0002391Y0386567D01*
X0002476Y0386840D01*
X0002568Y0387110D01*
X0002666Y0387378D01*
X0002770Y0387644D01*
X0002881Y0387907D01*
X0002998Y0388167D01*
X0003121Y0388425D01*
X0003251Y0388679D01*
X0003387Y0388930D01*
X0003528Y0389178D01*
X0003676Y0389422D01*
X0003829Y0389663D01*
X0003989Y0389899D01*
X0004154Y0390132D01*
X0004324Y0390361D01*
X0004500Y0390586D01*
X0004682Y0390806D01*
X0004868Y0391022D01*
X0005060Y0391233D01*
X0005257Y0391440D01*
X0005459Y0391642D01*
X0005666Y0391839D01*
X0005877Y0392031D01*
X0006093Y0392217D01*
X0006313Y0392399D01*
X0006538Y0392575D01*
X0006767Y0392745D01*
X0007000Y0392910D01*
X0007236Y0393070D01*
X0007477Y0393223D01*
X0007721Y0393371D01*
X0007969Y0393512D01*
X0008220Y0393648D01*
X0008474Y0393778D01*
X0008732Y0393901D01*
X0008992Y0394018D01*
X0009255Y0394129D01*
X0009521Y0394233D01*
X0009789Y0394331D01*
X0010059Y0394423D01*
X0010332Y0394508D01*
X0010606Y0394586D01*
X0010882Y0394658D01*
X0011160Y0394723D01*
X0011440Y0394781D01*
X0011721Y0394832D01*
X0012002Y0394877D01*
X0012285Y0394915D01*
X0012569Y0394946D01*
X0012853Y0394970D01*
X0013138Y0394987D01*
X0013424Y0394998D01*
X0013709Y0395001D01*
X0383787Y0395001D01*
X0383787Y0395000D02*
X0384121Y0394948D01*
X0384454Y0394888D01*
X0384785Y0394820D01*
X0385114Y0394744D01*
X0385442Y0394660D01*
X0385767Y0394568D01*
X0386090Y0394469D01*
X0386410Y0394361D01*
X0386728Y0394246D01*
X0387043Y0394123D01*
X0387355Y0393992D01*
X0387663Y0393854D01*
X0387968Y0393708D01*
X0388269Y0393555D01*
X0388567Y0393395D01*
X0388861Y0393227D01*
X0389150Y0393053D01*
X0389435Y0392871D01*
X0389716Y0392683D01*
X0389992Y0392488D01*
X0390263Y0392286D01*
X0390529Y0392078D01*
X0390790Y0391863D01*
X0391046Y0391642D01*
X0391296Y0391415D01*
X0391541Y0391182D01*
X0391780Y0390943D01*
X0392013Y0390698D01*
X0392240Y0390448D01*
X0392461Y0390192D01*
X0392676Y0389931D01*
X0392884Y0389665D01*
X0393086Y0389394D01*
X0393281Y0389118D01*
X0393469Y0388837D01*
X0393651Y0388552D01*
X0393825Y0388263D01*
X0393993Y0387969D01*
X0394153Y0387671D01*
X0394306Y0387370D01*
X0394452Y0387065D01*
X0394590Y0386757D01*
X0394721Y0386445D01*
X0394844Y0386130D01*
X0394959Y0385812D01*
X0395067Y0385492D01*
X0395166Y0385169D01*
X0395258Y0384844D01*
X0395342Y0384516D01*
X0395418Y0384187D01*
X0395486Y0383856D01*
X0395546Y0383523D01*
X0395598Y0383189D01*
X0395598Y0383190D02*
X0395598Y0013111D01*
X0395595Y0012826D01*
X0395584Y0012540D01*
X0395567Y0012255D01*
X0395543Y0011971D01*
X0395512Y0011687D01*
X0395474Y0011404D01*
X0395429Y0011123D01*
X0395378Y0010842D01*
X0395320Y0010562D01*
X0395255Y0010284D01*
X0395183Y0010008D01*
X0395105Y0009734D01*
X0395020Y0009461D01*
X0394928Y0009191D01*
X0394830Y0008923D01*
X0394726Y0008657D01*
X0394615Y0008394D01*
X0394498Y0008134D01*
X0394375Y0007876D01*
X0394245Y0007622D01*
X0394109Y0007371D01*
X0393968Y0007123D01*
X0393820Y0006879D01*
X0393667Y0006638D01*
X0393507Y0006402D01*
X0393342Y0006169D01*
X0393172Y0005940D01*
X0392996Y0005715D01*
X0392814Y0005495D01*
X0392628Y0005279D01*
X0392436Y0005068D01*
X0392239Y0004861D01*
X0392037Y0004659D01*
X0391830Y0004462D01*
X0391619Y0004270D01*
X0391403Y0004084D01*
X0391183Y0003902D01*
X0390958Y0003726D01*
X0390729Y0003556D01*
X0390496Y0003391D01*
X0390260Y0003231D01*
X0390019Y0003078D01*
X0389775Y0002930D01*
X0389527Y0002789D01*
X0389276Y0002653D01*
X0389022Y0002523D01*
X0388764Y0002400D01*
X0388504Y0002283D01*
X0388241Y0002172D01*
X0387975Y0002068D01*
X0387707Y0001970D01*
X0387437Y0001878D01*
X0387164Y0001793D01*
X0386890Y0001715D01*
X0386614Y0001643D01*
X0386336Y0001578D01*
X0386056Y0001520D01*
X0385775Y0001469D01*
X0385494Y0001424D01*
X0385211Y0001386D01*
X0384927Y0001355D01*
X0384643Y0001331D01*
X0384358Y0001314D01*
X0384072Y0001303D01*
X0383787Y0001300D01*
X0013709Y0001300D01*
X0013424Y0001303D01*
X0013138Y0001314D01*
X0012853Y0001331D01*
X0012569Y0001355D01*
X0012285Y0001386D01*
X0012002Y0001424D01*
X0011721Y0001469D01*
X0011440Y0001520D01*
X0011160Y0001578D01*
X0010882Y0001643D01*
X0010606Y0001715D01*
X0010332Y0001793D01*
X0010059Y0001878D01*
X0009789Y0001970D01*
X0009521Y0002068D01*
X0009255Y0002172D01*
X0008992Y0002283D01*
X0008732Y0002400D01*
X0008474Y0002523D01*
X0008220Y0002653D01*
X0007969Y0002789D01*
X0007721Y0002930D01*
X0007477Y0003078D01*
X0007236Y0003231D01*
X0007000Y0003391D01*
X0006767Y0003556D01*
X0006538Y0003726D01*
X0006313Y0003902D01*
X0006093Y0004084D01*
X0005877Y0004270D01*
X0005666Y0004462D01*
X0005459Y0004659D01*
X0005257Y0004861D01*
X0005060Y0005068D01*
X0004868Y0005279D01*
X0004682Y0005495D01*
X0004500Y0005715D01*
X0004324Y0005940D01*
X0004154Y0006169D01*
X0003989Y0006402D01*
X0003829Y0006638D01*
X0003676Y0006879D01*
X0003528Y0007123D01*
X0003387Y0007371D01*
X0003251Y0007622D01*
X0003121Y0007876D01*
X0002998Y0008134D01*
X0002881Y0008394D01*
X0002770Y0008657D01*
X0002666Y0008923D01*
X0002568Y0009191D01*
X0002476Y0009461D01*
X0002391Y0009734D01*
X0002313Y0010008D01*
X0002241Y0010284D01*
X0002176Y0010562D01*
X0002118Y0010842D01*
X0002067Y0011123D01*
X0002022Y0011404D01*
X0001984Y0011687D01*
X0001953Y0011971D01*
X0001929Y0012255D01*
X0001912Y0012540D01*
X0001901Y0012826D01*
X0001898Y0013111D01*
D11*
X0013709Y0020985D02*
X0013711Y0021178D01*
X0013718Y0021371D01*
X0013730Y0021564D01*
X0013747Y0021757D01*
X0013768Y0021949D01*
X0013794Y0022140D01*
X0013825Y0022331D01*
X0013860Y0022521D01*
X0013900Y0022710D01*
X0013945Y0022898D01*
X0013994Y0023085D01*
X0014048Y0023271D01*
X0014106Y0023455D01*
X0014169Y0023638D01*
X0014237Y0023819D01*
X0014308Y0023998D01*
X0014385Y0024176D01*
X0014465Y0024352D01*
X0014550Y0024525D01*
X0014639Y0024697D01*
X0014732Y0024866D01*
X0014829Y0025033D01*
X0014931Y0025198D01*
X0015036Y0025360D01*
X0015145Y0025519D01*
X0015259Y0025676D01*
X0015376Y0025829D01*
X0015496Y0025980D01*
X0015621Y0026128D01*
X0015749Y0026273D01*
X0015880Y0026414D01*
X0016015Y0026553D01*
X0016154Y0026688D01*
X0016295Y0026819D01*
X0016440Y0026947D01*
X0016588Y0027072D01*
X0016739Y0027192D01*
X0016892Y0027309D01*
X0017049Y0027423D01*
X0017208Y0027532D01*
X0017370Y0027637D01*
X0017535Y0027739D01*
X0017702Y0027836D01*
X0017871Y0027929D01*
X0018043Y0028018D01*
X0018216Y0028103D01*
X0018392Y0028183D01*
X0018570Y0028260D01*
X0018749Y0028331D01*
X0018930Y0028399D01*
X0019113Y0028462D01*
X0019297Y0028520D01*
X0019483Y0028574D01*
X0019670Y0028623D01*
X0019858Y0028668D01*
X0020047Y0028708D01*
X0020237Y0028743D01*
X0020428Y0028774D01*
X0020619Y0028800D01*
X0020811Y0028821D01*
X0021004Y0028838D01*
X0021197Y0028850D01*
X0021390Y0028857D01*
X0021583Y0028859D01*
X0021776Y0028857D01*
X0021969Y0028850D01*
X0022162Y0028838D01*
X0022355Y0028821D01*
X0022547Y0028800D01*
X0022738Y0028774D01*
X0022929Y0028743D01*
X0023119Y0028708D01*
X0023308Y0028668D01*
X0023496Y0028623D01*
X0023683Y0028574D01*
X0023869Y0028520D01*
X0024053Y0028462D01*
X0024236Y0028399D01*
X0024417Y0028331D01*
X0024596Y0028260D01*
X0024774Y0028183D01*
X0024950Y0028103D01*
X0025123Y0028018D01*
X0025295Y0027929D01*
X0025464Y0027836D01*
X0025631Y0027739D01*
X0025796Y0027637D01*
X0025958Y0027532D01*
X0026117Y0027423D01*
X0026274Y0027309D01*
X0026427Y0027192D01*
X0026578Y0027072D01*
X0026726Y0026947D01*
X0026871Y0026819D01*
X0027012Y0026688D01*
X0027151Y0026553D01*
X0027286Y0026414D01*
X0027417Y0026273D01*
X0027545Y0026128D01*
X0027670Y0025980D01*
X0027790Y0025829D01*
X0027907Y0025676D01*
X0028021Y0025519D01*
X0028130Y0025360D01*
X0028235Y0025198D01*
X0028337Y0025033D01*
X0028434Y0024866D01*
X0028527Y0024697D01*
X0028616Y0024525D01*
X0028701Y0024352D01*
X0028781Y0024176D01*
X0028858Y0023998D01*
X0028929Y0023819D01*
X0028997Y0023638D01*
X0029060Y0023455D01*
X0029118Y0023271D01*
X0029172Y0023085D01*
X0029221Y0022898D01*
X0029266Y0022710D01*
X0029306Y0022521D01*
X0029341Y0022331D01*
X0029372Y0022140D01*
X0029398Y0021949D01*
X0029419Y0021757D01*
X0029436Y0021564D01*
X0029448Y0021371D01*
X0029455Y0021178D01*
X0029457Y0020985D01*
X0029455Y0020792D01*
X0029448Y0020599D01*
X0029436Y0020406D01*
X0029419Y0020213D01*
X0029398Y0020021D01*
X0029372Y0019830D01*
X0029341Y0019639D01*
X0029306Y0019449D01*
X0029266Y0019260D01*
X0029221Y0019072D01*
X0029172Y0018885D01*
X0029118Y0018699D01*
X0029060Y0018515D01*
X0028997Y0018332D01*
X0028929Y0018151D01*
X0028858Y0017972D01*
X0028781Y0017794D01*
X0028701Y0017618D01*
X0028616Y0017445D01*
X0028527Y0017273D01*
X0028434Y0017104D01*
X0028337Y0016937D01*
X0028235Y0016772D01*
X0028130Y0016610D01*
X0028021Y0016451D01*
X0027907Y0016294D01*
X0027790Y0016141D01*
X0027670Y0015990D01*
X0027545Y0015842D01*
X0027417Y0015697D01*
X0027286Y0015556D01*
X0027151Y0015417D01*
X0027012Y0015282D01*
X0026871Y0015151D01*
X0026726Y0015023D01*
X0026578Y0014898D01*
X0026427Y0014778D01*
X0026274Y0014661D01*
X0026117Y0014547D01*
X0025958Y0014438D01*
X0025796Y0014333D01*
X0025631Y0014231D01*
X0025464Y0014134D01*
X0025295Y0014041D01*
X0025123Y0013952D01*
X0024950Y0013867D01*
X0024774Y0013787D01*
X0024596Y0013710D01*
X0024417Y0013639D01*
X0024236Y0013571D01*
X0024053Y0013508D01*
X0023869Y0013450D01*
X0023683Y0013396D01*
X0023496Y0013347D01*
X0023308Y0013302D01*
X0023119Y0013262D01*
X0022929Y0013227D01*
X0022738Y0013196D01*
X0022547Y0013170D01*
X0022355Y0013149D01*
X0022162Y0013132D01*
X0021969Y0013120D01*
X0021776Y0013113D01*
X0021583Y0013111D01*
X0021390Y0013113D01*
X0021197Y0013120D01*
X0021004Y0013132D01*
X0020811Y0013149D01*
X0020619Y0013170D01*
X0020428Y0013196D01*
X0020237Y0013227D01*
X0020047Y0013262D01*
X0019858Y0013302D01*
X0019670Y0013347D01*
X0019483Y0013396D01*
X0019297Y0013450D01*
X0019113Y0013508D01*
X0018930Y0013571D01*
X0018749Y0013639D01*
X0018570Y0013710D01*
X0018392Y0013787D01*
X0018216Y0013867D01*
X0018043Y0013952D01*
X0017871Y0014041D01*
X0017702Y0014134D01*
X0017535Y0014231D01*
X0017370Y0014333D01*
X0017208Y0014438D01*
X0017049Y0014547D01*
X0016892Y0014661D01*
X0016739Y0014778D01*
X0016588Y0014898D01*
X0016440Y0015023D01*
X0016295Y0015151D01*
X0016154Y0015282D01*
X0016015Y0015417D01*
X0015880Y0015556D01*
X0015749Y0015697D01*
X0015621Y0015842D01*
X0015496Y0015990D01*
X0015376Y0016141D01*
X0015259Y0016294D01*
X0015145Y0016451D01*
X0015036Y0016610D01*
X0014931Y0016772D01*
X0014829Y0016937D01*
X0014732Y0017104D01*
X0014639Y0017273D01*
X0014550Y0017445D01*
X0014465Y0017618D01*
X0014385Y0017794D01*
X0014308Y0017972D01*
X0014237Y0018151D01*
X0014169Y0018332D01*
X0014106Y0018515D01*
X0014048Y0018699D01*
X0013994Y0018885D01*
X0013945Y0019072D01*
X0013900Y0019260D01*
X0013860Y0019449D01*
X0013825Y0019639D01*
X0013794Y0019830D01*
X0013768Y0020021D01*
X0013747Y0020213D01*
X0013730Y0020406D01*
X0013718Y0020599D01*
X0013711Y0020792D01*
X0013709Y0020985D01*
X0044083Y0126930D02*
X0044085Y0127021D01*
X0044091Y0127111D01*
X0044101Y0127202D01*
X0044115Y0127291D01*
X0044133Y0127380D01*
X0044154Y0127469D01*
X0044180Y0127556D01*
X0044209Y0127642D01*
X0044243Y0127726D01*
X0044279Y0127809D01*
X0044320Y0127891D01*
X0044364Y0127970D01*
X0044411Y0128048D01*
X0044462Y0128123D01*
X0044516Y0128196D01*
X0044573Y0128266D01*
X0044633Y0128334D01*
X0044696Y0128400D01*
X0044762Y0128462D01*
X0044831Y0128521D01*
X0044902Y0128578D01*
X0044976Y0128631D01*
X0045052Y0128681D01*
X0045130Y0128728D01*
X0045210Y0128771D01*
X0045291Y0128810D01*
X0045375Y0128846D01*
X0045460Y0128878D01*
X0045546Y0128907D01*
X0045633Y0128931D01*
X0045722Y0128952D01*
X0045811Y0128969D01*
X0045901Y0128982D01*
X0045991Y0128991D01*
X0046082Y0128996D01*
X0046173Y0128997D01*
X0046263Y0128994D01*
X0046354Y0128987D01*
X0046444Y0128976D01*
X0046534Y0128961D01*
X0046623Y0128942D01*
X0046711Y0128920D01*
X0046797Y0128893D01*
X0046883Y0128863D01*
X0046967Y0128829D01*
X0047050Y0128791D01*
X0047131Y0128750D01*
X0047210Y0128705D01*
X0047287Y0128656D01*
X0047361Y0128605D01*
X0047434Y0128550D01*
X0047504Y0128492D01*
X0047571Y0128431D01*
X0047635Y0128367D01*
X0047697Y0128301D01*
X0047756Y0128231D01*
X0047811Y0128160D01*
X0047864Y0128085D01*
X0047913Y0128009D01*
X0047959Y0127931D01*
X0048001Y0127850D01*
X0048040Y0127768D01*
X0048075Y0127684D01*
X0048106Y0127599D01*
X0048133Y0127512D01*
X0048157Y0127425D01*
X0048177Y0127336D01*
X0048193Y0127247D01*
X0048205Y0127157D01*
X0048213Y0127066D01*
X0048217Y0126975D01*
X0048217Y0126885D01*
X0048213Y0126794D01*
X0048205Y0126703D01*
X0048193Y0126613D01*
X0048177Y0126524D01*
X0048157Y0126435D01*
X0048133Y0126348D01*
X0048106Y0126261D01*
X0048075Y0126176D01*
X0048040Y0126092D01*
X0048001Y0126010D01*
X0047959Y0125929D01*
X0047913Y0125851D01*
X0047864Y0125775D01*
X0047811Y0125700D01*
X0047756Y0125629D01*
X0047697Y0125559D01*
X0047635Y0125493D01*
X0047571Y0125429D01*
X0047504Y0125368D01*
X0047434Y0125310D01*
X0047361Y0125255D01*
X0047287Y0125204D01*
X0047210Y0125155D01*
X0047131Y0125110D01*
X0047050Y0125069D01*
X0046967Y0125031D01*
X0046883Y0124997D01*
X0046797Y0124967D01*
X0046711Y0124940D01*
X0046623Y0124918D01*
X0046534Y0124899D01*
X0046444Y0124884D01*
X0046354Y0124873D01*
X0046263Y0124866D01*
X0046173Y0124863D01*
X0046082Y0124864D01*
X0045991Y0124869D01*
X0045901Y0124878D01*
X0045811Y0124891D01*
X0045722Y0124908D01*
X0045633Y0124929D01*
X0045546Y0124953D01*
X0045460Y0124982D01*
X0045375Y0125014D01*
X0045291Y0125050D01*
X0045210Y0125089D01*
X0045130Y0125132D01*
X0045052Y0125179D01*
X0044976Y0125229D01*
X0044902Y0125282D01*
X0044831Y0125339D01*
X0044762Y0125398D01*
X0044696Y0125460D01*
X0044633Y0125526D01*
X0044573Y0125594D01*
X0044516Y0125664D01*
X0044462Y0125737D01*
X0044411Y0125812D01*
X0044364Y0125890D01*
X0044320Y0125969D01*
X0044279Y0126051D01*
X0044243Y0126134D01*
X0044209Y0126218D01*
X0044180Y0126304D01*
X0044154Y0126391D01*
X0044133Y0126480D01*
X0044115Y0126569D01*
X0044101Y0126658D01*
X0044091Y0126749D01*
X0044085Y0126839D01*
X0044083Y0126930D01*
X0044083Y0135552D02*
X0044085Y0135643D01*
X0044091Y0135733D01*
X0044101Y0135824D01*
X0044115Y0135913D01*
X0044133Y0136002D01*
X0044154Y0136091D01*
X0044180Y0136178D01*
X0044209Y0136264D01*
X0044243Y0136348D01*
X0044279Y0136431D01*
X0044320Y0136513D01*
X0044364Y0136592D01*
X0044411Y0136670D01*
X0044462Y0136745D01*
X0044516Y0136818D01*
X0044573Y0136888D01*
X0044633Y0136956D01*
X0044696Y0137022D01*
X0044762Y0137084D01*
X0044831Y0137143D01*
X0044902Y0137200D01*
X0044976Y0137253D01*
X0045052Y0137303D01*
X0045130Y0137350D01*
X0045210Y0137393D01*
X0045291Y0137432D01*
X0045375Y0137468D01*
X0045460Y0137500D01*
X0045546Y0137529D01*
X0045633Y0137553D01*
X0045722Y0137574D01*
X0045811Y0137591D01*
X0045901Y0137604D01*
X0045991Y0137613D01*
X0046082Y0137618D01*
X0046173Y0137619D01*
X0046263Y0137616D01*
X0046354Y0137609D01*
X0046444Y0137598D01*
X0046534Y0137583D01*
X0046623Y0137564D01*
X0046711Y0137542D01*
X0046797Y0137515D01*
X0046883Y0137485D01*
X0046967Y0137451D01*
X0047050Y0137413D01*
X0047131Y0137372D01*
X0047210Y0137327D01*
X0047287Y0137278D01*
X0047361Y0137227D01*
X0047434Y0137172D01*
X0047504Y0137114D01*
X0047571Y0137053D01*
X0047635Y0136989D01*
X0047697Y0136923D01*
X0047756Y0136853D01*
X0047811Y0136782D01*
X0047864Y0136707D01*
X0047913Y0136631D01*
X0047959Y0136553D01*
X0048001Y0136472D01*
X0048040Y0136390D01*
X0048075Y0136306D01*
X0048106Y0136221D01*
X0048133Y0136134D01*
X0048157Y0136047D01*
X0048177Y0135958D01*
X0048193Y0135869D01*
X0048205Y0135779D01*
X0048213Y0135688D01*
X0048217Y0135597D01*
X0048217Y0135507D01*
X0048213Y0135416D01*
X0048205Y0135325D01*
X0048193Y0135235D01*
X0048177Y0135146D01*
X0048157Y0135057D01*
X0048133Y0134970D01*
X0048106Y0134883D01*
X0048075Y0134798D01*
X0048040Y0134714D01*
X0048001Y0134632D01*
X0047959Y0134551D01*
X0047913Y0134473D01*
X0047864Y0134397D01*
X0047811Y0134322D01*
X0047756Y0134251D01*
X0047697Y0134181D01*
X0047635Y0134115D01*
X0047571Y0134051D01*
X0047504Y0133990D01*
X0047434Y0133932D01*
X0047361Y0133877D01*
X0047287Y0133826D01*
X0047210Y0133777D01*
X0047131Y0133732D01*
X0047050Y0133691D01*
X0046967Y0133653D01*
X0046883Y0133619D01*
X0046797Y0133589D01*
X0046711Y0133562D01*
X0046623Y0133540D01*
X0046534Y0133521D01*
X0046444Y0133506D01*
X0046354Y0133495D01*
X0046263Y0133488D01*
X0046173Y0133485D01*
X0046082Y0133486D01*
X0045991Y0133491D01*
X0045901Y0133500D01*
X0045811Y0133513D01*
X0045722Y0133530D01*
X0045633Y0133551D01*
X0045546Y0133575D01*
X0045460Y0133604D01*
X0045375Y0133636D01*
X0045291Y0133672D01*
X0045210Y0133711D01*
X0045130Y0133754D01*
X0045052Y0133801D01*
X0044976Y0133851D01*
X0044902Y0133904D01*
X0044831Y0133961D01*
X0044762Y0134020D01*
X0044696Y0134082D01*
X0044633Y0134148D01*
X0044573Y0134216D01*
X0044516Y0134286D01*
X0044462Y0134359D01*
X0044411Y0134434D01*
X0044364Y0134512D01*
X0044320Y0134591D01*
X0044279Y0134673D01*
X0044243Y0134756D01*
X0044209Y0134840D01*
X0044180Y0134926D01*
X0044154Y0135013D01*
X0044133Y0135102D01*
X0044115Y0135191D01*
X0044101Y0135280D01*
X0044091Y0135371D01*
X0044085Y0135461D01*
X0044083Y0135552D01*
X0058708Y0131418D02*
X0058710Y0131549D01*
X0058716Y0131681D01*
X0058726Y0131812D01*
X0058740Y0131943D01*
X0058758Y0132073D01*
X0058780Y0132202D01*
X0058805Y0132331D01*
X0058835Y0132459D01*
X0058869Y0132586D01*
X0058906Y0132713D01*
X0058947Y0132837D01*
X0058992Y0132961D01*
X0059041Y0133083D01*
X0059093Y0133204D01*
X0059149Y0133322D01*
X0059209Y0133440D01*
X0059272Y0133555D01*
X0059339Y0133668D01*
X0059409Y0133780D01*
X0059482Y0133889D01*
X0059558Y0133995D01*
X0059638Y0134100D01*
X0059721Y0134202D01*
X0059807Y0134301D01*
X0059896Y0134398D01*
X0059988Y0134492D01*
X0060083Y0134583D01*
X0060180Y0134672D01*
X0060280Y0134757D01*
X0060383Y0134839D01*
X0060488Y0134918D01*
X0060595Y0134994D01*
X0060705Y0135066D01*
X0060817Y0135135D01*
X0060931Y0135201D01*
X0061046Y0135263D01*
X0061164Y0135322D01*
X0061283Y0135377D01*
X0061404Y0135429D01*
X0061527Y0135476D01*
X0061651Y0135520D01*
X0061776Y0135561D01*
X0061902Y0135597D01*
X0062030Y0135630D01*
X0062158Y0135658D01*
X0062287Y0135683D01*
X0062417Y0135704D01*
X0062547Y0135721D01*
X0062678Y0135734D01*
X0062809Y0135743D01*
X0062940Y0135748D01*
X0063072Y0135749D01*
X0063203Y0135746D01*
X0063335Y0135739D01*
X0063466Y0135728D01*
X0063596Y0135713D01*
X0063726Y0135694D01*
X0063856Y0135671D01*
X0063984Y0135645D01*
X0064112Y0135614D01*
X0064239Y0135579D01*
X0064365Y0135541D01*
X0064489Y0135499D01*
X0064613Y0135453D01*
X0064734Y0135403D01*
X0064854Y0135350D01*
X0064973Y0135293D01*
X0065090Y0135233D01*
X0065204Y0135169D01*
X0065317Y0135101D01*
X0065428Y0135030D01*
X0065537Y0134956D01*
X0065643Y0134879D01*
X0065747Y0134798D01*
X0065848Y0134715D01*
X0065947Y0134628D01*
X0066043Y0134538D01*
X0066136Y0134445D01*
X0066227Y0134350D01*
X0066314Y0134252D01*
X0066399Y0134151D01*
X0066480Y0134048D01*
X0066558Y0133942D01*
X0066633Y0133834D01*
X0066705Y0133724D01*
X0066773Y0133612D01*
X0066838Y0133498D01*
X0066899Y0133381D01*
X0066957Y0133263D01*
X0067011Y0133143D01*
X0067062Y0133022D01*
X0067109Y0132899D01*
X0067152Y0132775D01*
X0067191Y0132650D01*
X0067227Y0132523D01*
X0067258Y0132395D01*
X0067286Y0132267D01*
X0067310Y0132138D01*
X0067330Y0132008D01*
X0067346Y0131877D01*
X0067358Y0131746D01*
X0067366Y0131615D01*
X0067370Y0131484D01*
X0067370Y0131352D01*
X0067366Y0131221D01*
X0067358Y0131090D01*
X0067346Y0130959D01*
X0067330Y0130828D01*
X0067310Y0130698D01*
X0067286Y0130569D01*
X0067258Y0130441D01*
X0067227Y0130313D01*
X0067191Y0130186D01*
X0067152Y0130061D01*
X0067109Y0129937D01*
X0067062Y0129814D01*
X0067011Y0129693D01*
X0066957Y0129573D01*
X0066899Y0129455D01*
X0066838Y0129338D01*
X0066773Y0129224D01*
X0066705Y0129112D01*
X0066633Y0129002D01*
X0066558Y0128894D01*
X0066480Y0128788D01*
X0066399Y0128685D01*
X0066314Y0128584D01*
X0066227Y0128486D01*
X0066136Y0128391D01*
X0066043Y0128298D01*
X0065947Y0128208D01*
X0065848Y0128121D01*
X0065747Y0128038D01*
X0065643Y0127957D01*
X0065537Y0127880D01*
X0065428Y0127806D01*
X0065317Y0127735D01*
X0065205Y0127667D01*
X0065090Y0127603D01*
X0064973Y0127543D01*
X0064854Y0127486D01*
X0064734Y0127433D01*
X0064613Y0127383D01*
X0064489Y0127337D01*
X0064365Y0127295D01*
X0064239Y0127257D01*
X0064112Y0127222D01*
X0063984Y0127191D01*
X0063856Y0127165D01*
X0063726Y0127142D01*
X0063596Y0127123D01*
X0063466Y0127108D01*
X0063335Y0127097D01*
X0063203Y0127090D01*
X0063072Y0127087D01*
X0062940Y0127088D01*
X0062809Y0127093D01*
X0062678Y0127102D01*
X0062547Y0127115D01*
X0062417Y0127132D01*
X0062287Y0127153D01*
X0062158Y0127178D01*
X0062030Y0127206D01*
X0061902Y0127239D01*
X0061776Y0127275D01*
X0061651Y0127316D01*
X0061527Y0127360D01*
X0061404Y0127407D01*
X0061283Y0127459D01*
X0061164Y0127514D01*
X0061046Y0127573D01*
X0060931Y0127635D01*
X0060817Y0127701D01*
X0060705Y0127770D01*
X0060595Y0127842D01*
X0060488Y0127918D01*
X0060383Y0127997D01*
X0060280Y0128079D01*
X0060180Y0128164D01*
X0060083Y0128253D01*
X0059988Y0128344D01*
X0059896Y0128438D01*
X0059807Y0128535D01*
X0059721Y0128634D01*
X0059638Y0128736D01*
X0059558Y0128841D01*
X0059482Y0128947D01*
X0059409Y0129056D01*
X0059339Y0129168D01*
X0059272Y0129281D01*
X0059209Y0129396D01*
X0059149Y0129514D01*
X0059093Y0129632D01*
X0059041Y0129753D01*
X0058992Y0129875D01*
X0058947Y0129999D01*
X0058906Y0130123D01*
X0058869Y0130250D01*
X0058835Y0130377D01*
X0058805Y0130505D01*
X0058780Y0130634D01*
X0058758Y0130763D01*
X0058740Y0130893D01*
X0058726Y0131024D01*
X0058716Y0131155D01*
X0058710Y0131287D01*
X0058708Y0131418D01*
X0044083Y0292284D02*
X0044085Y0292375D01*
X0044091Y0292465D01*
X0044101Y0292556D01*
X0044115Y0292645D01*
X0044133Y0292734D01*
X0044154Y0292823D01*
X0044180Y0292910D01*
X0044209Y0292996D01*
X0044243Y0293080D01*
X0044279Y0293163D01*
X0044320Y0293245D01*
X0044364Y0293324D01*
X0044411Y0293402D01*
X0044462Y0293477D01*
X0044516Y0293550D01*
X0044573Y0293620D01*
X0044633Y0293688D01*
X0044696Y0293754D01*
X0044762Y0293816D01*
X0044831Y0293875D01*
X0044902Y0293932D01*
X0044976Y0293985D01*
X0045052Y0294035D01*
X0045130Y0294082D01*
X0045210Y0294125D01*
X0045291Y0294164D01*
X0045375Y0294200D01*
X0045460Y0294232D01*
X0045546Y0294261D01*
X0045633Y0294285D01*
X0045722Y0294306D01*
X0045811Y0294323D01*
X0045901Y0294336D01*
X0045991Y0294345D01*
X0046082Y0294350D01*
X0046173Y0294351D01*
X0046263Y0294348D01*
X0046354Y0294341D01*
X0046444Y0294330D01*
X0046534Y0294315D01*
X0046623Y0294296D01*
X0046711Y0294274D01*
X0046797Y0294247D01*
X0046883Y0294217D01*
X0046967Y0294183D01*
X0047050Y0294145D01*
X0047131Y0294104D01*
X0047210Y0294059D01*
X0047287Y0294010D01*
X0047361Y0293959D01*
X0047434Y0293904D01*
X0047504Y0293846D01*
X0047571Y0293785D01*
X0047635Y0293721D01*
X0047697Y0293655D01*
X0047756Y0293585D01*
X0047811Y0293514D01*
X0047864Y0293439D01*
X0047913Y0293363D01*
X0047959Y0293285D01*
X0048001Y0293204D01*
X0048040Y0293122D01*
X0048075Y0293038D01*
X0048106Y0292953D01*
X0048133Y0292866D01*
X0048157Y0292779D01*
X0048177Y0292690D01*
X0048193Y0292601D01*
X0048205Y0292511D01*
X0048213Y0292420D01*
X0048217Y0292329D01*
X0048217Y0292239D01*
X0048213Y0292148D01*
X0048205Y0292057D01*
X0048193Y0291967D01*
X0048177Y0291878D01*
X0048157Y0291789D01*
X0048133Y0291702D01*
X0048106Y0291615D01*
X0048075Y0291530D01*
X0048040Y0291446D01*
X0048001Y0291364D01*
X0047959Y0291283D01*
X0047913Y0291205D01*
X0047864Y0291129D01*
X0047811Y0291054D01*
X0047756Y0290983D01*
X0047697Y0290913D01*
X0047635Y0290847D01*
X0047571Y0290783D01*
X0047504Y0290722D01*
X0047434Y0290664D01*
X0047361Y0290609D01*
X0047287Y0290558D01*
X0047210Y0290509D01*
X0047131Y0290464D01*
X0047050Y0290423D01*
X0046967Y0290385D01*
X0046883Y0290351D01*
X0046797Y0290321D01*
X0046711Y0290294D01*
X0046623Y0290272D01*
X0046534Y0290253D01*
X0046444Y0290238D01*
X0046354Y0290227D01*
X0046263Y0290220D01*
X0046173Y0290217D01*
X0046082Y0290218D01*
X0045991Y0290223D01*
X0045901Y0290232D01*
X0045811Y0290245D01*
X0045722Y0290262D01*
X0045633Y0290283D01*
X0045546Y0290307D01*
X0045460Y0290336D01*
X0045375Y0290368D01*
X0045291Y0290404D01*
X0045210Y0290443D01*
X0045130Y0290486D01*
X0045052Y0290533D01*
X0044976Y0290583D01*
X0044902Y0290636D01*
X0044831Y0290693D01*
X0044762Y0290752D01*
X0044696Y0290814D01*
X0044633Y0290880D01*
X0044573Y0290948D01*
X0044516Y0291018D01*
X0044462Y0291091D01*
X0044411Y0291166D01*
X0044364Y0291244D01*
X0044320Y0291323D01*
X0044279Y0291405D01*
X0044243Y0291488D01*
X0044209Y0291572D01*
X0044180Y0291658D01*
X0044154Y0291745D01*
X0044133Y0291834D01*
X0044115Y0291923D01*
X0044101Y0292012D01*
X0044091Y0292103D01*
X0044085Y0292193D01*
X0044083Y0292284D01*
X0044083Y0300906D02*
X0044085Y0300997D01*
X0044091Y0301087D01*
X0044101Y0301178D01*
X0044115Y0301267D01*
X0044133Y0301356D01*
X0044154Y0301445D01*
X0044180Y0301532D01*
X0044209Y0301618D01*
X0044243Y0301702D01*
X0044279Y0301785D01*
X0044320Y0301867D01*
X0044364Y0301946D01*
X0044411Y0302024D01*
X0044462Y0302099D01*
X0044516Y0302172D01*
X0044573Y0302242D01*
X0044633Y0302310D01*
X0044696Y0302376D01*
X0044762Y0302438D01*
X0044831Y0302497D01*
X0044902Y0302554D01*
X0044976Y0302607D01*
X0045052Y0302657D01*
X0045130Y0302704D01*
X0045210Y0302747D01*
X0045291Y0302786D01*
X0045375Y0302822D01*
X0045460Y0302854D01*
X0045546Y0302883D01*
X0045633Y0302907D01*
X0045722Y0302928D01*
X0045811Y0302945D01*
X0045901Y0302958D01*
X0045991Y0302967D01*
X0046082Y0302972D01*
X0046173Y0302973D01*
X0046263Y0302970D01*
X0046354Y0302963D01*
X0046444Y0302952D01*
X0046534Y0302937D01*
X0046623Y0302918D01*
X0046711Y0302896D01*
X0046797Y0302869D01*
X0046883Y0302839D01*
X0046967Y0302805D01*
X0047050Y0302767D01*
X0047131Y0302726D01*
X0047210Y0302681D01*
X0047287Y0302632D01*
X0047361Y0302581D01*
X0047434Y0302526D01*
X0047504Y0302468D01*
X0047571Y0302407D01*
X0047635Y0302343D01*
X0047697Y0302277D01*
X0047756Y0302207D01*
X0047811Y0302136D01*
X0047864Y0302061D01*
X0047913Y0301985D01*
X0047959Y0301907D01*
X0048001Y0301826D01*
X0048040Y0301744D01*
X0048075Y0301660D01*
X0048106Y0301575D01*
X0048133Y0301488D01*
X0048157Y0301401D01*
X0048177Y0301312D01*
X0048193Y0301223D01*
X0048205Y0301133D01*
X0048213Y0301042D01*
X0048217Y0300951D01*
X0048217Y0300861D01*
X0048213Y0300770D01*
X0048205Y0300679D01*
X0048193Y0300589D01*
X0048177Y0300500D01*
X0048157Y0300411D01*
X0048133Y0300324D01*
X0048106Y0300237D01*
X0048075Y0300152D01*
X0048040Y0300068D01*
X0048001Y0299986D01*
X0047959Y0299905D01*
X0047913Y0299827D01*
X0047864Y0299751D01*
X0047811Y0299676D01*
X0047756Y0299605D01*
X0047697Y0299535D01*
X0047635Y0299469D01*
X0047571Y0299405D01*
X0047504Y0299344D01*
X0047434Y0299286D01*
X0047361Y0299231D01*
X0047287Y0299180D01*
X0047210Y0299131D01*
X0047131Y0299086D01*
X0047050Y0299045D01*
X0046967Y0299007D01*
X0046883Y0298973D01*
X0046797Y0298943D01*
X0046711Y0298916D01*
X0046623Y0298894D01*
X0046534Y0298875D01*
X0046444Y0298860D01*
X0046354Y0298849D01*
X0046263Y0298842D01*
X0046173Y0298839D01*
X0046082Y0298840D01*
X0045991Y0298845D01*
X0045901Y0298854D01*
X0045811Y0298867D01*
X0045722Y0298884D01*
X0045633Y0298905D01*
X0045546Y0298929D01*
X0045460Y0298958D01*
X0045375Y0298990D01*
X0045291Y0299026D01*
X0045210Y0299065D01*
X0045130Y0299108D01*
X0045052Y0299155D01*
X0044976Y0299205D01*
X0044902Y0299258D01*
X0044831Y0299315D01*
X0044762Y0299374D01*
X0044696Y0299436D01*
X0044633Y0299502D01*
X0044573Y0299570D01*
X0044516Y0299640D01*
X0044462Y0299713D01*
X0044411Y0299788D01*
X0044364Y0299866D01*
X0044320Y0299945D01*
X0044279Y0300027D01*
X0044243Y0300110D01*
X0044209Y0300194D01*
X0044180Y0300280D01*
X0044154Y0300367D01*
X0044133Y0300456D01*
X0044115Y0300545D01*
X0044101Y0300634D01*
X0044091Y0300725D01*
X0044085Y0300815D01*
X0044083Y0300906D01*
X0058708Y0296772D02*
X0058710Y0296903D01*
X0058716Y0297035D01*
X0058726Y0297166D01*
X0058740Y0297297D01*
X0058758Y0297427D01*
X0058780Y0297556D01*
X0058805Y0297685D01*
X0058835Y0297813D01*
X0058869Y0297940D01*
X0058906Y0298067D01*
X0058947Y0298191D01*
X0058992Y0298315D01*
X0059041Y0298437D01*
X0059093Y0298558D01*
X0059149Y0298676D01*
X0059209Y0298794D01*
X0059272Y0298909D01*
X0059339Y0299022D01*
X0059409Y0299134D01*
X0059482Y0299243D01*
X0059558Y0299349D01*
X0059638Y0299454D01*
X0059721Y0299556D01*
X0059807Y0299655D01*
X0059896Y0299752D01*
X0059988Y0299846D01*
X0060083Y0299937D01*
X0060180Y0300026D01*
X0060280Y0300111D01*
X0060383Y0300193D01*
X0060488Y0300272D01*
X0060595Y0300348D01*
X0060705Y0300420D01*
X0060817Y0300489D01*
X0060931Y0300555D01*
X0061046Y0300617D01*
X0061164Y0300676D01*
X0061283Y0300731D01*
X0061404Y0300783D01*
X0061527Y0300830D01*
X0061651Y0300874D01*
X0061776Y0300915D01*
X0061902Y0300951D01*
X0062030Y0300984D01*
X0062158Y0301012D01*
X0062287Y0301037D01*
X0062417Y0301058D01*
X0062547Y0301075D01*
X0062678Y0301088D01*
X0062809Y0301097D01*
X0062940Y0301102D01*
X0063072Y0301103D01*
X0063203Y0301100D01*
X0063335Y0301093D01*
X0063466Y0301082D01*
X0063596Y0301067D01*
X0063726Y0301048D01*
X0063856Y0301025D01*
X0063984Y0300999D01*
X0064112Y0300968D01*
X0064239Y0300933D01*
X0064365Y0300895D01*
X0064489Y0300853D01*
X0064613Y0300807D01*
X0064734Y0300757D01*
X0064854Y0300704D01*
X0064973Y0300647D01*
X0065090Y0300587D01*
X0065204Y0300523D01*
X0065317Y0300455D01*
X0065428Y0300384D01*
X0065537Y0300310D01*
X0065643Y0300233D01*
X0065747Y0300152D01*
X0065848Y0300069D01*
X0065947Y0299982D01*
X0066043Y0299892D01*
X0066136Y0299799D01*
X0066227Y0299704D01*
X0066314Y0299606D01*
X0066399Y0299505D01*
X0066480Y0299402D01*
X0066558Y0299296D01*
X0066633Y0299188D01*
X0066705Y0299078D01*
X0066773Y0298966D01*
X0066838Y0298852D01*
X0066899Y0298735D01*
X0066957Y0298617D01*
X0067011Y0298497D01*
X0067062Y0298376D01*
X0067109Y0298253D01*
X0067152Y0298129D01*
X0067191Y0298004D01*
X0067227Y0297877D01*
X0067258Y0297749D01*
X0067286Y0297621D01*
X0067310Y0297492D01*
X0067330Y0297362D01*
X0067346Y0297231D01*
X0067358Y0297100D01*
X0067366Y0296969D01*
X0067370Y0296838D01*
X0067370Y0296706D01*
X0067366Y0296575D01*
X0067358Y0296444D01*
X0067346Y0296313D01*
X0067330Y0296182D01*
X0067310Y0296052D01*
X0067286Y0295923D01*
X0067258Y0295795D01*
X0067227Y0295667D01*
X0067191Y0295540D01*
X0067152Y0295415D01*
X0067109Y0295291D01*
X0067062Y0295168D01*
X0067011Y0295047D01*
X0066957Y0294927D01*
X0066899Y0294809D01*
X0066838Y0294692D01*
X0066773Y0294578D01*
X0066705Y0294466D01*
X0066633Y0294356D01*
X0066558Y0294248D01*
X0066480Y0294142D01*
X0066399Y0294039D01*
X0066314Y0293938D01*
X0066227Y0293840D01*
X0066136Y0293745D01*
X0066043Y0293652D01*
X0065947Y0293562D01*
X0065848Y0293475D01*
X0065747Y0293392D01*
X0065643Y0293311D01*
X0065537Y0293234D01*
X0065428Y0293160D01*
X0065317Y0293089D01*
X0065205Y0293021D01*
X0065090Y0292957D01*
X0064973Y0292897D01*
X0064854Y0292840D01*
X0064734Y0292787D01*
X0064613Y0292737D01*
X0064489Y0292691D01*
X0064365Y0292649D01*
X0064239Y0292611D01*
X0064112Y0292576D01*
X0063984Y0292545D01*
X0063856Y0292519D01*
X0063726Y0292496D01*
X0063596Y0292477D01*
X0063466Y0292462D01*
X0063335Y0292451D01*
X0063203Y0292444D01*
X0063072Y0292441D01*
X0062940Y0292442D01*
X0062809Y0292447D01*
X0062678Y0292456D01*
X0062547Y0292469D01*
X0062417Y0292486D01*
X0062287Y0292507D01*
X0062158Y0292532D01*
X0062030Y0292560D01*
X0061902Y0292593D01*
X0061776Y0292629D01*
X0061651Y0292670D01*
X0061527Y0292714D01*
X0061404Y0292761D01*
X0061283Y0292813D01*
X0061164Y0292868D01*
X0061046Y0292927D01*
X0060931Y0292989D01*
X0060817Y0293055D01*
X0060705Y0293124D01*
X0060595Y0293196D01*
X0060488Y0293272D01*
X0060383Y0293351D01*
X0060280Y0293433D01*
X0060180Y0293518D01*
X0060083Y0293607D01*
X0059988Y0293698D01*
X0059896Y0293792D01*
X0059807Y0293889D01*
X0059721Y0293988D01*
X0059638Y0294090D01*
X0059558Y0294195D01*
X0059482Y0294301D01*
X0059409Y0294410D01*
X0059339Y0294522D01*
X0059272Y0294635D01*
X0059209Y0294750D01*
X0059149Y0294868D01*
X0059093Y0294986D01*
X0059041Y0295107D01*
X0058992Y0295229D01*
X0058947Y0295353D01*
X0058906Y0295477D01*
X0058869Y0295604D01*
X0058835Y0295731D01*
X0058805Y0295859D01*
X0058780Y0295988D01*
X0058758Y0296117D01*
X0058740Y0296247D01*
X0058726Y0296378D01*
X0058716Y0296509D01*
X0058710Y0296641D01*
X0058708Y0296772D01*
X0013709Y0375316D02*
X0013711Y0375509D01*
X0013718Y0375702D01*
X0013730Y0375895D01*
X0013747Y0376088D01*
X0013768Y0376280D01*
X0013794Y0376471D01*
X0013825Y0376662D01*
X0013860Y0376852D01*
X0013900Y0377041D01*
X0013945Y0377229D01*
X0013994Y0377416D01*
X0014048Y0377602D01*
X0014106Y0377786D01*
X0014169Y0377969D01*
X0014237Y0378150D01*
X0014308Y0378329D01*
X0014385Y0378507D01*
X0014465Y0378683D01*
X0014550Y0378856D01*
X0014639Y0379028D01*
X0014732Y0379197D01*
X0014829Y0379364D01*
X0014931Y0379529D01*
X0015036Y0379691D01*
X0015145Y0379850D01*
X0015259Y0380007D01*
X0015376Y0380160D01*
X0015496Y0380311D01*
X0015621Y0380459D01*
X0015749Y0380604D01*
X0015880Y0380745D01*
X0016015Y0380884D01*
X0016154Y0381019D01*
X0016295Y0381150D01*
X0016440Y0381278D01*
X0016588Y0381403D01*
X0016739Y0381523D01*
X0016892Y0381640D01*
X0017049Y0381754D01*
X0017208Y0381863D01*
X0017370Y0381968D01*
X0017535Y0382070D01*
X0017702Y0382167D01*
X0017871Y0382260D01*
X0018043Y0382349D01*
X0018216Y0382434D01*
X0018392Y0382514D01*
X0018570Y0382591D01*
X0018749Y0382662D01*
X0018930Y0382730D01*
X0019113Y0382793D01*
X0019297Y0382851D01*
X0019483Y0382905D01*
X0019670Y0382954D01*
X0019858Y0382999D01*
X0020047Y0383039D01*
X0020237Y0383074D01*
X0020428Y0383105D01*
X0020619Y0383131D01*
X0020811Y0383152D01*
X0021004Y0383169D01*
X0021197Y0383181D01*
X0021390Y0383188D01*
X0021583Y0383190D01*
X0021776Y0383188D01*
X0021969Y0383181D01*
X0022162Y0383169D01*
X0022355Y0383152D01*
X0022547Y0383131D01*
X0022738Y0383105D01*
X0022929Y0383074D01*
X0023119Y0383039D01*
X0023308Y0382999D01*
X0023496Y0382954D01*
X0023683Y0382905D01*
X0023869Y0382851D01*
X0024053Y0382793D01*
X0024236Y0382730D01*
X0024417Y0382662D01*
X0024596Y0382591D01*
X0024774Y0382514D01*
X0024950Y0382434D01*
X0025123Y0382349D01*
X0025295Y0382260D01*
X0025464Y0382167D01*
X0025631Y0382070D01*
X0025796Y0381968D01*
X0025958Y0381863D01*
X0026117Y0381754D01*
X0026274Y0381640D01*
X0026427Y0381523D01*
X0026578Y0381403D01*
X0026726Y0381278D01*
X0026871Y0381150D01*
X0027012Y0381019D01*
X0027151Y0380884D01*
X0027286Y0380745D01*
X0027417Y0380604D01*
X0027545Y0380459D01*
X0027670Y0380311D01*
X0027790Y0380160D01*
X0027907Y0380007D01*
X0028021Y0379850D01*
X0028130Y0379691D01*
X0028235Y0379529D01*
X0028337Y0379364D01*
X0028434Y0379197D01*
X0028527Y0379028D01*
X0028616Y0378856D01*
X0028701Y0378683D01*
X0028781Y0378507D01*
X0028858Y0378329D01*
X0028929Y0378150D01*
X0028997Y0377969D01*
X0029060Y0377786D01*
X0029118Y0377602D01*
X0029172Y0377416D01*
X0029221Y0377229D01*
X0029266Y0377041D01*
X0029306Y0376852D01*
X0029341Y0376662D01*
X0029372Y0376471D01*
X0029398Y0376280D01*
X0029419Y0376088D01*
X0029436Y0375895D01*
X0029448Y0375702D01*
X0029455Y0375509D01*
X0029457Y0375316D01*
X0029455Y0375123D01*
X0029448Y0374930D01*
X0029436Y0374737D01*
X0029419Y0374544D01*
X0029398Y0374352D01*
X0029372Y0374161D01*
X0029341Y0373970D01*
X0029306Y0373780D01*
X0029266Y0373591D01*
X0029221Y0373403D01*
X0029172Y0373216D01*
X0029118Y0373030D01*
X0029060Y0372846D01*
X0028997Y0372663D01*
X0028929Y0372482D01*
X0028858Y0372303D01*
X0028781Y0372125D01*
X0028701Y0371949D01*
X0028616Y0371776D01*
X0028527Y0371604D01*
X0028434Y0371435D01*
X0028337Y0371268D01*
X0028235Y0371103D01*
X0028130Y0370941D01*
X0028021Y0370782D01*
X0027907Y0370625D01*
X0027790Y0370472D01*
X0027670Y0370321D01*
X0027545Y0370173D01*
X0027417Y0370028D01*
X0027286Y0369887D01*
X0027151Y0369748D01*
X0027012Y0369613D01*
X0026871Y0369482D01*
X0026726Y0369354D01*
X0026578Y0369229D01*
X0026427Y0369109D01*
X0026274Y0368992D01*
X0026117Y0368878D01*
X0025958Y0368769D01*
X0025796Y0368664D01*
X0025631Y0368562D01*
X0025464Y0368465D01*
X0025295Y0368372D01*
X0025123Y0368283D01*
X0024950Y0368198D01*
X0024774Y0368118D01*
X0024596Y0368041D01*
X0024417Y0367970D01*
X0024236Y0367902D01*
X0024053Y0367839D01*
X0023869Y0367781D01*
X0023683Y0367727D01*
X0023496Y0367678D01*
X0023308Y0367633D01*
X0023119Y0367593D01*
X0022929Y0367558D01*
X0022738Y0367527D01*
X0022547Y0367501D01*
X0022355Y0367480D01*
X0022162Y0367463D01*
X0021969Y0367451D01*
X0021776Y0367444D01*
X0021583Y0367442D01*
X0021390Y0367444D01*
X0021197Y0367451D01*
X0021004Y0367463D01*
X0020811Y0367480D01*
X0020619Y0367501D01*
X0020428Y0367527D01*
X0020237Y0367558D01*
X0020047Y0367593D01*
X0019858Y0367633D01*
X0019670Y0367678D01*
X0019483Y0367727D01*
X0019297Y0367781D01*
X0019113Y0367839D01*
X0018930Y0367902D01*
X0018749Y0367970D01*
X0018570Y0368041D01*
X0018392Y0368118D01*
X0018216Y0368198D01*
X0018043Y0368283D01*
X0017871Y0368372D01*
X0017702Y0368465D01*
X0017535Y0368562D01*
X0017370Y0368664D01*
X0017208Y0368769D01*
X0017049Y0368878D01*
X0016892Y0368992D01*
X0016739Y0369109D01*
X0016588Y0369229D01*
X0016440Y0369354D01*
X0016295Y0369482D01*
X0016154Y0369613D01*
X0016015Y0369748D01*
X0015880Y0369887D01*
X0015749Y0370028D01*
X0015621Y0370173D01*
X0015496Y0370321D01*
X0015376Y0370472D01*
X0015259Y0370625D01*
X0015145Y0370782D01*
X0015036Y0370941D01*
X0014931Y0371103D01*
X0014829Y0371268D01*
X0014732Y0371435D01*
X0014639Y0371604D01*
X0014550Y0371776D01*
X0014465Y0371949D01*
X0014385Y0372125D01*
X0014308Y0372303D01*
X0014237Y0372482D01*
X0014169Y0372663D01*
X0014106Y0372846D01*
X0014048Y0373030D01*
X0013994Y0373216D01*
X0013945Y0373403D01*
X0013900Y0373591D01*
X0013860Y0373780D01*
X0013825Y0373970D01*
X0013794Y0374161D01*
X0013768Y0374352D01*
X0013747Y0374544D01*
X0013730Y0374737D01*
X0013718Y0374930D01*
X0013711Y0375123D01*
X0013709Y0375316D01*
X0335421Y0300906D02*
X0335423Y0300997D01*
X0335429Y0301087D01*
X0335439Y0301178D01*
X0335453Y0301267D01*
X0335471Y0301356D01*
X0335492Y0301445D01*
X0335518Y0301532D01*
X0335547Y0301618D01*
X0335581Y0301702D01*
X0335617Y0301785D01*
X0335658Y0301867D01*
X0335702Y0301946D01*
X0335749Y0302024D01*
X0335800Y0302099D01*
X0335854Y0302172D01*
X0335911Y0302242D01*
X0335971Y0302310D01*
X0336034Y0302376D01*
X0336100Y0302438D01*
X0336169Y0302497D01*
X0336240Y0302554D01*
X0336314Y0302607D01*
X0336390Y0302657D01*
X0336468Y0302704D01*
X0336548Y0302747D01*
X0336629Y0302786D01*
X0336713Y0302822D01*
X0336798Y0302854D01*
X0336884Y0302883D01*
X0336971Y0302907D01*
X0337060Y0302928D01*
X0337149Y0302945D01*
X0337239Y0302958D01*
X0337329Y0302967D01*
X0337420Y0302972D01*
X0337511Y0302973D01*
X0337601Y0302970D01*
X0337692Y0302963D01*
X0337782Y0302952D01*
X0337872Y0302937D01*
X0337961Y0302918D01*
X0338049Y0302896D01*
X0338135Y0302869D01*
X0338221Y0302839D01*
X0338305Y0302805D01*
X0338388Y0302767D01*
X0338469Y0302726D01*
X0338548Y0302681D01*
X0338625Y0302632D01*
X0338699Y0302581D01*
X0338772Y0302526D01*
X0338842Y0302468D01*
X0338909Y0302407D01*
X0338973Y0302343D01*
X0339035Y0302277D01*
X0339094Y0302207D01*
X0339149Y0302136D01*
X0339202Y0302061D01*
X0339251Y0301985D01*
X0339297Y0301907D01*
X0339339Y0301826D01*
X0339378Y0301744D01*
X0339413Y0301660D01*
X0339444Y0301575D01*
X0339471Y0301488D01*
X0339495Y0301401D01*
X0339515Y0301312D01*
X0339531Y0301223D01*
X0339543Y0301133D01*
X0339551Y0301042D01*
X0339555Y0300951D01*
X0339555Y0300861D01*
X0339551Y0300770D01*
X0339543Y0300679D01*
X0339531Y0300589D01*
X0339515Y0300500D01*
X0339495Y0300411D01*
X0339471Y0300324D01*
X0339444Y0300237D01*
X0339413Y0300152D01*
X0339378Y0300068D01*
X0339339Y0299986D01*
X0339297Y0299905D01*
X0339251Y0299827D01*
X0339202Y0299751D01*
X0339149Y0299676D01*
X0339094Y0299605D01*
X0339035Y0299535D01*
X0338973Y0299469D01*
X0338909Y0299405D01*
X0338842Y0299344D01*
X0338772Y0299286D01*
X0338699Y0299231D01*
X0338625Y0299180D01*
X0338548Y0299131D01*
X0338469Y0299086D01*
X0338388Y0299045D01*
X0338305Y0299007D01*
X0338221Y0298973D01*
X0338135Y0298943D01*
X0338049Y0298916D01*
X0337961Y0298894D01*
X0337872Y0298875D01*
X0337782Y0298860D01*
X0337692Y0298849D01*
X0337601Y0298842D01*
X0337511Y0298839D01*
X0337420Y0298840D01*
X0337329Y0298845D01*
X0337239Y0298854D01*
X0337149Y0298867D01*
X0337060Y0298884D01*
X0336971Y0298905D01*
X0336884Y0298929D01*
X0336798Y0298958D01*
X0336713Y0298990D01*
X0336629Y0299026D01*
X0336548Y0299065D01*
X0336468Y0299108D01*
X0336390Y0299155D01*
X0336314Y0299205D01*
X0336240Y0299258D01*
X0336169Y0299315D01*
X0336100Y0299374D01*
X0336034Y0299436D01*
X0335971Y0299502D01*
X0335911Y0299570D01*
X0335854Y0299640D01*
X0335800Y0299713D01*
X0335749Y0299788D01*
X0335702Y0299866D01*
X0335658Y0299945D01*
X0335617Y0300027D01*
X0335581Y0300110D01*
X0335547Y0300194D01*
X0335518Y0300280D01*
X0335492Y0300367D01*
X0335471Y0300456D01*
X0335453Y0300545D01*
X0335439Y0300634D01*
X0335429Y0300725D01*
X0335423Y0300815D01*
X0335421Y0300906D01*
X0335421Y0292284D02*
X0335423Y0292375D01*
X0335429Y0292465D01*
X0335439Y0292556D01*
X0335453Y0292645D01*
X0335471Y0292734D01*
X0335492Y0292823D01*
X0335518Y0292910D01*
X0335547Y0292996D01*
X0335581Y0293080D01*
X0335617Y0293163D01*
X0335658Y0293245D01*
X0335702Y0293324D01*
X0335749Y0293402D01*
X0335800Y0293477D01*
X0335854Y0293550D01*
X0335911Y0293620D01*
X0335971Y0293688D01*
X0336034Y0293754D01*
X0336100Y0293816D01*
X0336169Y0293875D01*
X0336240Y0293932D01*
X0336314Y0293985D01*
X0336390Y0294035D01*
X0336468Y0294082D01*
X0336548Y0294125D01*
X0336629Y0294164D01*
X0336713Y0294200D01*
X0336798Y0294232D01*
X0336884Y0294261D01*
X0336971Y0294285D01*
X0337060Y0294306D01*
X0337149Y0294323D01*
X0337239Y0294336D01*
X0337329Y0294345D01*
X0337420Y0294350D01*
X0337511Y0294351D01*
X0337601Y0294348D01*
X0337692Y0294341D01*
X0337782Y0294330D01*
X0337872Y0294315D01*
X0337961Y0294296D01*
X0338049Y0294274D01*
X0338135Y0294247D01*
X0338221Y0294217D01*
X0338305Y0294183D01*
X0338388Y0294145D01*
X0338469Y0294104D01*
X0338548Y0294059D01*
X0338625Y0294010D01*
X0338699Y0293959D01*
X0338772Y0293904D01*
X0338842Y0293846D01*
X0338909Y0293785D01*
X0338973Y0293721D01*
X0339035Y0293655D01*
X0339094Y0293585D01*
X0339149Y0293514D01*
X0339202Y0293439D01*
X0339251Y0293363D01*
X0339297Y0293285D01*
X0339339Y0293204D01*
X0339378Y0293122D01*
X0339413Y0293038D01*
X0339444Y0292953D01*
X0339471Y0292866D01*
X0339495Y0292779D01*
X0339515Y0292690D01*
X0339531Y0292601D01*
X0339543Y0292511D01*
X0339551Y0292420D01*
X0339555Y0292329D01*
X0339555Y0292239D01*
X0339551Y0292148D01*
X0339543Y0292057D01*
X0339531Y0291967D01*
X0339515Y0291878D01*
X0339495Y0291789D01*
X0339471Y0291702D01*
X0339444Y0291615D01*
X0339413Y0291530D01*
X0339378Y0291446D01*
X0339339Y0291364D01*
X0339297Y0291283D01*
X0339251Y0291205D01*
X0339202Y0291129D01*
X0339149Y0291054D01*
X0339094Y0290983D01*
X0339035Y0290913D01*
X0338973Y0290847D01*
X0338909Y0290783D01*
X0338842Y0290722D01*
X0338772Y0290664D01*
X0338699Y0290609D01*
X0338625Y0290558D01*
X0338548Y0290509D01*
X0338469Y0290464D01*
X0338388Y0290423D01*
X0338305Y0290385D01*
X0338221Y0290351D01*
X0338135Y0290321D01*
X0338049Y0290294D01*
X0337961Y0290272D01*
X0337872Y0290253D01*
X0337782Y0290238D01*
X0337692Y0290227D01*
X0337601Y0290220D01*
X0337511Y0290217D01*
X0337420Y0290218D01*
X0337329Y0290223D01*
X0337239Y0290232D01*
X0337149Y0290245D01*
X0337060Y0290262D01*
X0336971Y0290283D01*
X0336884Y0290307D01*
X0336798Y0290336D01*
X0336713Y0290368D01*
X0336629Y0290404D01*
X0336548Y0290443D01*
X0336468Y0290486D01*
X0336390Y0290533D01*
X0336314Y0290583D01*
X0336240Y0290636D01*
X0336169Y0290693D01*
X0336100Y0290752D01*
X0336034Y0290814D01*
X0335971Y0290880D01*
X0335911Y0290948D01*
X0335854Y0291018D01*
X0335800Y0291091D01*
X0335749Y0291166D01*
X0335702Y0291244D01*
X0335658Y0291323D01*
X0335617Y0291405D01*
X0335581Y0291488D01*
X0335547Y0291572D01*
X0335518Y0291658D01*
X0335492Y0291745D01*
X0335471Y0291834D01*
X0335453Y0291923D01*
X0335439Y0292012D01*
X0335429Y0292103D01*
X0335423Y0292193D01*
X0335421Y0292284D01*
X0350047Y0296772D02*
X0350049Y0296903D01*
X0350055Y0297035D01*
X0350065Y0297166D01*
X0350079Y0297297D01*
X0350097Y0297427D01*
X0350119Y0297556D01*
X0350144Y0297685D01*
X0350174Y0297813D01*
X0350208Y0297940D01*
X0350245Y0298067D01*
X0350286Y0298191D01*
X0350331Y0298315D01*
X0350380Y0298437D01*
X0350432Y0298558D01*
X0350488Y0298676D01*
X0350548Y0298794D01*
X0350611Y0298909D01*
X0350678Y0299022D01*
X0350748Y0299134D01*
X0350821Y0299243D01*
X0350897Y0299349D01*
X0350977Y0299454D01*
X0351060Y0299556D01*
X0351146Y0299655D01*
X0351235Y0299752D01*
X0351327Y0299846D01*
X0351422Y0299937D01*
X0351519Y0300026D01*
X0351619Y0300111D01*
X0351722Y0300193D01*
X0351827Y0300272D01*
X0351934Y0300348D01*
X0352044Y0300420D01*
X0352156Y0300489D01*
X0352270Y0300555D01*
X0352385Y0300617D01*
X0352503Y0300676D01*
X0352622Y0300731D01*
X0352743Y0300783D01*
X0352866Y0300830D01*
X0352990Y0300874D01*
X0353115Y0300915D01*
X0353241Y0300951D01*
X0353369Y0300984D01*
X0353497Y0301012D01*
X0353626Y0301037D01*
X0353756Y0301058D01*
X0353886Y0301075D01*
X0354017Y0301088D01*
X0354148Y0301097D01*
X0354279Y0301102D01*
X0354411Y0301103D01*
X0354542Y0301100D01*
X0354674Y0301093D01*
X0354805Y0301082D01*
X0354935Y0301067D01*
X0355065Y0301048D01*
X0355195Y0301025D01*
X0355323Y0300999D01*
X0355451Y0300968D01*
X0355578Y0300933D01*
X0355704Y0300895D01*
X0355828Y0300853D01*
X0355952Y0300807D01*
X0356073Y0300757D01*
X0356193Y0300704D01*
X0356312Y0300647D01*
X0356429Y0300587D01*
X0356543Y0300523D01*
X0356656Y0300455D01*
X0356767Y0300384D01*
X0356876Y0300310D01*
X0356982Y0300233D01*
X0357086Y0300152D01*
X0357187Y0300069D01*
X0357286Y0299982D01*
X0357382Y0299892D01*
X0357475Y0299799D01*
X0357566Y0299704D01*
X0357653Y0299606D01*
X0357738Y0299505D01*
X0357819Y0299402D01*
X0357897Y0299296D01*
X0357972Y0299188D01*
X0358044Y0299078D01*
X0358112Y0298966D01*
X0358177Y0298852D01*
X0358238Y0298735D01*
X0358296Y0298617D01*
X0358350Y0298497D01*
X0358401Y0298376D01*
X0358448Y0298253D01*
X0358491Y0298129D01*
X0358530Y0298004D01*
X0358566Y0297877D01*
X0358597Y0297749D01*
X0358625Y0297621D01*
X0358649Y0297492D01*
X0358669Y0297362D01*
X0358685Y0297231D01*
X0358697Y0297100D01*
X0358705Y0296969D01*
X0358709Y0296838D01*
X0358709Y0296706D01*
X0358705Y0296575D01*
X0358697Y0296444D01*
X0358685Y0296313D01*
X0358669Y0296182D01*
X0358649Y0296052D01*
X0358625Y0295923D01*
X0358597Y0295795D01*
X0358566Y0295667D01*
X0358530Y0295540D01*
X0358491Y0295415D01*
X0358448Y0295291D01*
X0358401Y0295168D01*
X0358350Y0295047D01*
X0358296Y0294927D01*
X0358238Y0294809D01*
X0358177Y0294692D01*
X0358112Y0294578D01*
X0358044Y0294466D01*
X0357972Y0294356D01*
X0357897Y0294248D01*
X0357819Y0294142D01*
X0357738Y0294039D01*
X0357653Y0293938D01*
X0357566Y0293840D01*
X0357475Y0293745D01*
X0357382Y0293652D01*
X0357286Y0293562D01*
X0357187Y0293475D01*
X0357086Y0293392D01*
X0356982Y0293311D01*
X0356876Y0293234D01*
X0356767Y0293160D01*
X0356656Y0293089D01*
X0356544Y0293021D01*
X0356429Y0292957D01*
X0356312Y0292897D01*
X0356193Y0292840D01*
X0356073Y0292787D01*
X0355952Y0292737D01*
X0355828Y0292691D01*
X0355704Y0292649D01*
X0355578Y0292611D01*
X0355451Y0292576D01*
X0355323Y0292545D01*
X0355195Y0292519D01*
X0355065Y0292496D01*
X0354935Y0292477D01*
X0354805Y0292462D01*
X0354674Y0292451D01*
X0354542Y0292444D01*
X0354411Y0292441D01*
X0354279Y0292442D01*
X0354148Y0292447D01*
X0354017Y0292456D01*
X0353886Y0292469D01*
X0353756Y0292486D01*
X0353626Y0292507D01*
X0353497Y0292532D01*
X0353369Y0292560D01*
X0353241Y0292593D01*
X0353115Y0292629D01*
X0352990Y0292670D01*
X0352866Y0292714D01*
X0352743Y0292761D01*
X0352622Y0292813D01*
X0352503Y0292868D01*
X0352385Y0292927D01*
X0352270Y0292989D01*
X0352156Y0293055D01*
X0352044Y0293124D01*
X0351934Y0293196D01*
X0351827Y0293272D01*
X0351722Y0293351D01*
X0351619Y0293433D01*
X0351519Y0293518D01*
X0351422Y0293607D01*
X0351327Y0293698D01*
X0351235Y0293792D01*
X0351146Y0293889D01*
X0351060Y0293988D01*
X0350977Y0294090D01*
X0350897Y0294195D01*
X0350821Y0294301D01*
X0350748Y0294410D01*
X0350678Y0294522D01*
X0350611Y0294635D01*
X0350548Y0294750D01*
X0350488Y0294868D01*
X0350432Y0294986D01*
X0350380Y0295107D01*
X0350331Y0295229D01*
X0350286Y0295353D01*
X0350245Y0295477D01*
X0350208Y0295604D01*
X0350174Y0295731D01*
X0350144Y0295859D01*
X0350119Y0295988D01*
X0350097Y0296117D01*
X0350079Y0296247D01*
X0350065Y0296378D01*
X0350055Y0296509D01*
X0350049Y0296641D01*
X0350047Y0296772D01*
X0371976Y0379253D02*
X0371978Y0379446D01*
X0371985Y0379639D01*
X0371997Y0379832D01*
X0372014Y0380025D01*
X0372035Y0380217D01*
X0372061Y0380408D01*
X0372092Y0380599D01*
X0372127Y0380789D01*
X0372167Y0380978D01*
X0372212Y0381166D01*
X0372261Y0381353D01*
X0372315Y0381539D01*
X0372373Y0381723D01*
X0372436Y0381906D01*
X0372504Y0382087D01*
X0372575Y0382266D01*
X0372652Y0382444D01*
X0372732Y0382620D01*
X0372817Y0382793D01*
X0372906Y0382965D01*
X0372999Y0383134D01*
X0373096Y0383301D01*
X0373198Y0383466D01*
X0373303Y0383628D01*
X0373412Y0383787D01*
X0373526Y0383944D01*
X0373643Y0384097D01*
X0373763Y0384248D01*
X0373888Y0384396D01*
X0374016Y0384541D01*
X0374147Y0384682D01*
X0374282Y0384821D01*
X0374421Y0384956D01*
X0374562Y0385087D01*
X0374707Y0385215D01*
X0374855Y0385340D01*
X0375006Y0385460D01*
X0375159Y0385577D01*
X0375316Y0385691D01*
X0375475Y0385800D01*
X0375637Y0385905D01*
X0375802Y0386007D01*
X0375969Y0386104D01*
X0376138Y0386197D01*
X0376310Y0386286D01*
X0376483Y0386371D01*
X0376659Y0386451D01*
X0376837Y0386528D01*
X0377016Y0386599D01*
X0377197Y0386667D01*
X0377380Y0386730D01*
X0377564Y0386788D01*
X0377750Y0386842D01*
X0377937Y0386891D01*
X0378125Y0386936D01*
X0378314Y0386976D01*
X0378504Y0387011D01*
X0378695Y0387042D01*
X0378886Y0387068D01*
X0379078Y0387089D01*
X0379271Y0387106D01*
X0379464Y0387118D01*
X0379657Y0387125D01*
X0379850Y0387127D01*
X0380043Y0387125D01*
X0380236Y0387118D01*
X0380429Y0387106D01*
X0380622Y0387089D01*
X0380814Y0387068D01*
X0381005Y0387042D01*
X0381196Y0387011D01*
X0381386Y0386976D01*
X0381575Y0386936D01*
X0381763Y0386891D01*
X0381950Y0386842D01*
X0382136Y0386788D01*
X0382320Y0386730D01*
X0382503Y0386667D01*
X0382684Y0386599D01*
X0382863Y0386528D01*
X0383041Y0386451D01*
X0383217Y0386371D01*
X0383390Y0386286D01*
X0383562Y0386197D01*
X0383731Y0386104D01*
X0383898Y0386007D01*
X0384063Y0385905D01*
X0384225Y0385800D01*
X0384384Y0385691D01*
X0384541Y0385577D01*
X0384694Y0385460D01*
X0384845Y0385340D01*
X0384993Y0385215D01*
X0385138Y0385087D01*
X0385279Y0384956D01*
X0385418Y0384821D01*
X0385553Y0384682D01*
X0385684Y0384541D01*
X0385812Y0384396D01*
X0385937Y0384248D01*
X0386057Y0384097D01*
X0386174Y0383944D01*
X0386288Y0383787D01*
X0386397Y0383628D01*
X0386502Y0383466D01*
X0386604Y0383301D01*
X0386701Y0383134D01*
X0386794Y0382965D01*
X0386883Y0382793D01*
X0386968Y0382620D01*
X0387048Y0382444D01*
X0387125Y0382266D01*
X0387196Y0382087D01*
X0387264Y0381906D01*
X0387327Y0381723D01*
X0387385Y0381539D01*
X0387439Y0381353D01*
X0387488Y0381166D01*
X0387533Y0380978D01*
X0387573Y0380789D01*
X0387608Y0380599D01*
X0387639Y0380408D01*
X0387665Y0380217D01*
X0387686Y0380025D01*
X0387703Y0379832D01*
X0387715Y0379639D01*
X0387722Y0379446D01*
X0387724Y0379253D01*
X0387722Y0379060D01*
X0387715Y0378867D01*
X0387703Y0378674D01*
X0387686Y0378481D01*
X0387665Y0378289D01*
X0387639Y0378098D01*
X0387608Y0377907D01*
X0387573Y0377717D01*
X0387533Y0377528D01*
X0387488Y0377340D01*
X0387439Y0377153D01*
X0387385Y0376967D01*
X0387327Y0376783D01*
X0387264Y0376600D01*
X0387196Y0376419D01*
X0387125Y0376240D01*
X0387048Y0376062D01*
X0386968Y0375886D01*
X0386883Y0375713D01*
X0386794Y0375541D01*
X0386701Y0375372D01*
X0386604Y0375205D01*
X0386502Y0375040D01*
X0386397Y0374878D01*
X0386288Y0374719D01*
X0386174Y0374562D01*
X0386057Y0374409D01*
X0385937Y0374258D01*
X0385812Y0374110D01*
X0385684Y0373965D01*
X0385553Y0373824D01*
X0385418Y0373685D01*
X0385279Y0373550D01*
X0385138Y0373419D01*
X0384993Y0373291D01*
X0384845Y0373166D01*
X0384694Y0373046D01*
X0384541Y0372929D01*
X0384384Y0372815D01*
X0384225Y0372706D01*
X0384063Y0372601D01*
X0383898Y0372499D01*
X0383731Y0372402D01*
X0383562Y0372309D01*
X0383390Y0372220D01*
X0383217Y0372135D01*
X0383041Y0372055D01*
X0382863Y0371978D01*
X0382684Y0371907D01*
X0382503Y0371839D01*
X0382320Y0371776D01*
X0382136Y0371718D01*
X0381950Y0371664D01*
X0381763Y0371615D01*
X0381575Y0371570D01*
X0381386Y0371530D01*
X0381196Y0371495D01*
X0381005Y0371464D01*
X0380814Y0371438D01*
X0380622Y0371417D01*
X0380429Y0371400D01*
X0380236Y0371388D01*
X0380043Y0371381D01*
X0379850Y0371379D01*
X0379657Y0371381D01*
X0379464Y0371388D01*
X0379271Y0371400D01*
X0379078Y0371417D01*
X0378886Y0371438D01*
X0378695Y0371464D01*
X0378504Y0371495D01*
X0378314Y0371530D01*
X0378125Y0371570D01*
X0377937Y0371615D01*
X0377750Y0371664D01*
X0377564Y0371718D01*
X0377380Y0371776D01*
X0377197Y0371839D01*
X0377016Y0371907D01*
X0376837Y0371978D01*
X0376659Y0372055D01*
X0376483Y0372135D01*
X0376310Y0372220D01*
X0376138Y0372309D01*
X0375969Y0372402D01*
X0375802Y0372499D01*
X0375637Y0372601D01*
X0375475Y0372706D01*
X0375316Y0372815D01*
X0375159Y0372929D01*
X0375006Y0373046D01*
X0374855Y0373166D01*
X0374707Y0373291D01*
X0374562Y0373419D01*
X0374421Y0373550D01*
X0374282Y0373685D01*
X0374147Y0373824D01*
X0374016Y0373965D01*
X0373888Y0374110D01*
X0373763Y0374258D01*
X0373643Y0374409D01*
X0373526Y0374562D01*
X0373412Y0374719D01*
X0373303Y0374878D01*
X0373198Y0375040D01*
X0373096Y0375205D01*
X0372999Y0375372D01*
X0372906Y0375541D01*
X0372817Y0375713D01*
X0372732Y0375886D01*
X0372652Y0376062D01*
X0372575Y0376240D01*
X0372504Y0376419D01*
X0372436Y0376600D01*
X0372373Y0376783D01*
X0372315Y0376967D01*
X0372261Y0377153D01*
X0372212Y0377340D01*
X0372167Y0377528D01*
X0372127Y0377717D01*
X0372092Y0377907D01*
X0372061Y0378098D01*
X0372035Y0378289D01*
X0372014Y0378481D01*
X0371997Y0378674D01*
X0371985Y0378867D01*
X0371978Y0379060D01*
X0371976Y0379253D01*
X0335421Y0135552D02*
X0335423Y0135643D01*
X0335429Y0135733D01*
X0335439Y0135824D01*
X0335453Y0135913D01*
X0335471Y0136002D01*
X0335492Y0136091D01*
X0335518Y0136178D01*
X0335547Y0136264D01*
X0335581Y0136348D01*
X0335617Y0136431D01*
X0335658Y0136513D01*
X0335702Y0136592D01*
X0335749Y0136670D01*
X0335800Y0136745D01*
X0335854Y0136818D01*
X0335911Y0136888D01*
X0335971Y0136956D01*
X0336034Y0137022D01*
X0336100Y0137084D01*
X0336169Y0137143D01*
X0336240Y0137200D01*
X0336314Y0137253D01*
X0336390Y0137303D01*
X0336468Y0137350D01*
X0336548Y0137393D01*
X0336629Y0137432D01*
X0336713Y0137468D01*
X0336798Y0137500D01*
X0336884Y0137529D01*
X0336971Y0137553D01*
X0337060Y0137574D01*
X0337149Y0137591D01*
X0337239Y0137604D01*
X0337329Y0137613D01*
X0337420Y0137618D01*
X0337511Y0137619D01*
X0337601Y0137616D01*
X0337692Y0137609D01*
X0337782Y0137598D01*
X0337872Y0137583D01*
X0337961Y0137564D01*
X0338049Y0137542D01*
X0338135Y0137515D01*
X0338221Y0137485D01*
X0338305Y0137451D01*
X0338388Y0137413D01*
X0338469Y0137372D01*
X0338548Y0137327D01*
X0338625Y0137278D01*
X0338699Y0137227D01*
X0338772Y0137172D01*
X0338842Y0137114D01*
X0338909Y0137053D01*
X0338973Y0136989D01*
X0339035Y0136923D01*
X0339094Y0136853D01*
X0339149Y0136782D01*
X0339202Y0136707D01*
X0339251Y0136631D01*
X0339297Y0136553D01*
X0339339Y0136472D01*
X0339378Y0136390D01*
X0339413Y0136306D01*
X0339444Y0136221D01*
X0339471Y0136134D01*
X0339495Y0136047D01*
X0339515Y0135958D01*
X0339531Y0135869D01*
X0339543Y0135779D01*
X0339551Y0135688D01*
X0339555Y0135597D01*
X0339555Y0135507D01*
X0339551Y0135416D01*
X0339543Y0135325D01*
X0339531Y0135235D01*
X0339515Y0135146D01*
X0339495Y0135057D01*
X0339471Y0134970D01*
X0339444Y0134883D01*
X0339413Y0134798D01*
X0339378Y0134714D01*
X0339339Y0134632D01*
X0339297Y0134551D01*
X0339251Y0134473D01*
X0339202Y0134397D01*
X0339149Y0134322D01*
X0339094Y0134251D01*
X0339035Y0134181D01*
X0338973Y0134115D01*
X0338909Y0134051D01*
X0338842Y0133990D01*
X0338772Y0133932D01*
X0338699Y0133877D01*
X0338625Y0133826D01*
X0338548Y0133777D01*
X0338469Y0133732D01*
X0338388Y0133691D01*
X0338305Y0133653D01*
X0338221Y0133619D01*
X0338135Y0133589D01*
X0338049Y0133562D01*
X0337961Y0133540D01*
X0337872Y0133521D01*
X0337782Y0133506D01*
X0337692Y0133495D01*
X0337601Y0133488D01*
X0337511Y0133485D01*
X0337420Y0133486D01*
X0337329Y0133491D01*
X0337239Y0133500D01*
X0337149Y0133513D01*
X0337060Y0133530D01*
X0336971Y0133551D01*
X0336884Y0133575D01*
X0336798Y0133604D01*
X0336713Y0133636D01*
X0336629Y0133672D01*
X0336548Y0133711D01*
X0336468Y0133754D01*
X0336390Y0133801D01*
X0336314Y0133851D01*
X0336240Y0133904D01*
X0336169Y0133961D01*
X0336100Y0134020D01*
X0336034Y0134082D01*
X0335971Y0134148D01*
X0335911Y0134216D01*
X0335854Y0134286D01*
X0335800Y0134359D01*
X0335749Y0134434D01*
X0335702Y0134512D01*
X0335658Y0134591D01*
X0335617Y0134673D01*
X0335581Y0134756D01*
X0335547Y0134840D01*
X0335518Y0134926D01*
X0335492Y0135013D01*
X0335471Y0135102D01*
X0335453Y0135191D01*
X0335439Y0135280D01*
X0335429Y0135371D01*
X0335423Y0135461D01*
X0335421Y0135552D01*
X0335421Y0126930D02*
X0335423Y0127021D01*
X0335429Y0127111D01*
X0335439Y0127202D01*
X0335453Y0127291D01*
X0335471Y0127380D01*
X0335492Y0127469D01*
X0335518Y0127556D01*
X0335547Y0127642D01*
X0335581Y0127726D01*
X0335617Y0127809D01*
X0335658Y0127891D01*
X0335702Y0127970D01*
X0335749Y0128048D01*
X0335800Y0128123D01*
X0335854Y0128196D01*
X0335911Y0128266D01*
X0335971Y0128334D01*
X0336034Y0128400D01*
X0336100Y0128462D01*
X0336169Y0128521D01*
X0336240Y0128578D01*
X0336314Y0128631D01*
X0336390Y0128681D01*
X0336468Y0128728D01*
X0336548Y0128771D01*
X0336629Y0128810D01*
X0336713Y0128846D01*
X0336798Y0128878D01*
X0336884Y0128907D01*
X0336971Y0128931D01*
X0337060Y0128952D01*
X0337149Y0128969D01*
X0337239Y0128982D01*
X0337329Y0128991D01*
X0337420Y0128996D01*
X0337511Y0128997D01*
X0337601Y0128994D01*
X0337692Y0128987D01*
X0337782Y0128976D01*
X0337872Y0128961D01*
X0337961Y0128942D01*
X0338049Y0128920D01*
X0338135Y0128893D01*
X0338221Y0128863D01*
X0338305Y0128829D01*
X0338388Y0128791D01*
X0338469Y0128750D01*
X0338548Y0128705D01*
X0338625Y0128656D01*
X0338699Y0128605D01*
X0338772Y0128550D01*
X0338842Y0128492D01*
X0338909Y0128431D01*
X0338973Y0128367D01*
X0339035Y0128301D01*
X0339094Y0128231D01*
X0339149Y0128160D01*
X0339202Y0128085D01*
X0339251Y0128009D01*
X0339297Y0127931D01*
X0339339Y0127850D01*
X0339378Y0127768D01*
X0339413Y0127684D01*
X0339444Y0127599D01*
X0339471Y0127512D01*
X0339495Y0127425D01*
X0339515Y0127336D01*
X0339531Y0127247D01*
X0339543Y0127157D01*
X0339551Y0127066D01*
X0339555Y0126975D01*
X0339555Y0126885D01*
X0339551Y0126794D01*
X0339543Y0126703D01*
X0339531Y0126613D01*
X0339515Y0126524D01*
X0339495Y0126435D01*
X0339471Y0126348D01*
X0339444Y0126261D01*
X0339413Y0126176D01*
X0339378Y0126092D01*
X0339339Y0126010D01*
X0339297Y0125929D01*
X0339251Y0125851D01*
X0339202Y0125775D01*
X0339149Y0125700D01*
X0339094Y0125629D01*
X0339035Y0125559D01*
X0338973Y0125493D01*
X0338909Y0125429D01*
X0338842Y0125368D01*
X0338772Y0125310D01*
X0338699Y0125255D01*
X0338625Y0125204D01*
X0338548Y0125155D01*
X0338469Y0125110D01*
X0338388Y0125069D01*
X0338305Y0125031D01*
X0338221Y0124997D01*
X0338135Y0124967D01*
X0338049Y0124940D01*
X0337961Y0124918D01*
X0337872Y0124899D01*
X0337782Y0124884D01*
X0337692Y0124873D01*
X0337601Y0124866D01*
X0337511Y0124863D01*
X0337420Y0124864D01*
X0337329Y0124869D01*
X0337239Y0124878D01*
X0337149Y0124891D01*
X0337060Y0124908D01*
X0336971Y0124929D01*
X0336884Y0124953D01*
X0336798Y0124982D01*
X0336713Y0125014D01*
X0336629Y0125050D01*
X0336548Y0125089D01*
X0336468Y0125132D01*
X0336390Y0125179D01*
X0336314Y0125229D01*
X0336240Y0125282D01*
X0336169Y0125339D01*
X0336100Y0125398D01*
X0336034Y0125460D01*
X0335971Y0125526D01*
X0335911Y0125594D01*
X0335854Y0125664D01*
X0335800Y0125737D01*
X0335749Y0125812D01*
X0335702Y0125890D01*
X0335658Y0125969D01*
X0335617Y0126051D01*
X0335581Y0126134D01*
X0335547Y0126218D01*
X0335518Y0126304D01*
X0335492Y0126391D01*
X0335471Y0126480D01*
X0335453Y0126569D01*
X0335439Y0126658D01*
X0335429Y0126749D01*
X0335423Y0126839D01*
X0335421Y0126930D01*
X0350047Y0131418D02*
X0350049Y0131549D01*
X0350055Y0131681D01*
X0350065Y0131812D01*
X0350079Y0131943D01*
X0350097Y0132073D01*
X0350119Y0132202D01*
X0350144Y0132331D01*
X0350174Y0132459D01*
X0350208Y0132586D01*
X0350245Y0132713D01*
X0350286Y0132837D01*
X0350331Y0132961D01*
X0350380Y0133083D01*
X0350432Y0133204D01*
X0350488Y0133322D01*
X0350548Y0133440D01*
X0350611Y0133555D01*
X0350678Y0133668D01*
X0350748Y0133780D01*
X0350821Y0133889D01*
X0350897Y0133995D01*
X0350977Y0134100D01*
X0351060Y0134202D01*
X0351146Y0134301D01*
X0351235Y0134398D01*
X0351327Y0134492D01*
X0351422Y0134583D01*
X0351519Y0134672D01*
X0351619Y0134757D01*
X0351722Y0134839D01*
X0351827Y0134918D01*
X0351934Y0134994D01*
X0352044Y0135066D01*
X0352156Y0135135D01*
X0352270Y0135201D01*
X0352385Y0135263D01*
X0352503Y0135322D01*
X0352622Y0135377D01*
X0352743Y0135429D01*
X0352866Y0135476D01*
X0352990Y0135520D01*
X0353115Y0135561D01*
X0353241Y0135597D01*
X0353369Y0135630D01*
X0353497Y0135658D01*
X0353626Y0135683D01*
X0353756Y0135704D01*
X0353886Y0135721D01*
X0354017Y0135734D01*
X0354148Y0135743D01*
X0354279Y0135748D01*
X0354411Y0135749D01*
X0354542Y0135746D01*
X0354674Y0135739D01*
X0354805Y0135728D01*
X0354935Y0135713D01*
X0355065Y0135694D01*
X0355195Y0135671D01*
X0355323Y0135645D01*
X0355451Y0135614D01*
X0355578Y0135579D01*
X0355704Y0135541D01*
X0355828Y0135499D01*
X0355952Y0135453D01*
X0356073Y0135403D01*
X0356193Y0135350D01*
X0356312Y0135293D01*
X0356429Y0135233D01*
X0356543Y0135169D01*
X0356656Y0135101D01*
X0356767Y0135030D01*
X0356876Y0134956D01*
X0356982Y0134879D01*
X0357086Y0134798D01*
X0357187Y0134715D01*
X0357286Y0134628D01*
X0357382Y0134538D01*
X0357475Y0134445D01*
X0357566Y0134350D01*
X0357653Y0134252D01*
X0357738Y0134151D01*
X0357819Y0134048D01*
X0357897Y0133942D01*
X0357972Y0133834D01*
X0358044Y0133724D01*
X0358112Y0133612D01*
X0358177Y0133498D01*
X0358238Y0133381D01*
X0358296Y0133263D01*
X0358350Y0133143D01*
X0358401Y0133022D01*
X0358448Y0132899D01*
X0358491Y0132775D01*
X0358530Y0132650D01*
X0358566Y0132523D01*
X0358597Y0132395D01*
X0358625Y0132267D01*
X0358649Y0132138D01*
X0358669Y0132008D01*
X0358685Y0131877D01*
X0358697Y0131746D01*
X0358705Y0131615D01*
X0358709Y0131484D01*
X0358709Y0131352D01*
X0358705Y0131221D01*
X0358697Y0131090D01*
X0358685Y0130959D01*
X0358669Y0130828D01*
X0358649Y0130698D01*
X0358625Y0130569D01*
X0358597Y0130441D01*
X0358566Y0130313D01*
X0358530Y0130186D01*
X0358491Y0130061D01*
X0358448Y0129937D01*
X0358401Y0129814D01*
X0358350Y0129693D01*
X0358296Y0129573D01*
X0358238Y0129455D01*
X0358177Y0129338D01*
X0358112Y0129224D01*
X0358044Y0129112D01*
X0357972Y0129002D01*
X0357897Y0128894D01*
X0357819Y0128788D01*
X0357738Y0128685D01*
X0357653Y0128584D01*
X0357566Y0128486D01*
X0357475Y0128391D01*
X0357382Y0128298D01*
X0357286Y0128208D01*
X0357187Y0128121D01*
X0357086Y0128038D01*
X0356982Y0127957D01*
X0356876Y0127880D01*
X0356767Y0127806D01*
X0356656Y0127735D01*
X0356544Y0127667D01*
X0356429Y0127603D01*
X0356312Y0127543D01*
X0356193Y0127486D01*
X0356073Y0127433D01*
X0355952Y0127383D01*
X0355828Y0127337D01*
X0355704Y0127295D01*
X0355578Y0127257D01*
X0355451Y0127222D01*
X0355323Y0127191D01*
X0355195Y0127165D01*
X0355065Y0127142D01*
X0354935Y0127123D01*
X0354805Y0127108D01*
X0354674Y0127097D01*
X0354542Y0127090D01*
X0354411Y0127087D01*
X0354279Y0127088D01*
X0354148Y0127093D01*
X0354017Y0127102D01*
X0353886Y0127115D01*
X0353756Y0127132D01*
X0353626Y0127153D01*
X0353497Y0127178D01*
X0353369Y0127206D01*
X0353241Y0127239D01*
X0353115Y0127275D01*
X0352990Y0127316D01*
X0352866Y0127360D01*
X0352743Y0127407D01*
X0352622Y0127459D01*
X0352503Y0127514D01*
X0352385Y0127573D01*
X0352270Y0127635D01*
X0352156Y0127701D01*
X0352044Y0127770D01*
X0351934Y0127842D01*
X0351827Y0127918D01*
X0351722Y0127997D01*
X0351619Y0128079D01*
X0351519Y0128164D01*
X0351422Y0128253D01*
X0351327Y0128344D01*
X0351235Y0128438D01*
X0351146Y0128535D01*
X0351060Y0128634D01*
X0350977Y0128736D01*
X0350897Y0128841D01*
X0350821Y0128947D01*
X0350748Y0129056D01*
X0350678Y0129168D01*
X0350611Y0129281D01*
X0350548Y0129396D01*
X0350488Y0129514D01*
X0350432Y0129632D01*
X0350380Y0129753D01*
X0350331Y0129875D01*
X0350286Y0129999D01*
X0350245Y0130123D01*
X0350208Y0130250D01*
X0350174Y0130377D01*
X0350144Y0130505D01*
X0350119Y0130634D01*
X0350097Y0130763D01*
X0350079Y0130893D01*
X0350065Y0131024D01*
X0350055Y0131155D01*
X0350049Y0131287D01*
X0350047Y0131418D01*
X0371976Y0017048D02*
X0371978Y0017241D01*
X0371985Y0017434D01*
X0371997Y0017627D01*
X0372014Y0017820D01*
X0372035Y0018012D01*
X0372061Y0018203D01*
X0372092Y0018394D01*
X0372127Y0018584D01*
X0372167Y0018773D01*
X0372212Y0018961D01*
X0372261Y0019148D01*
X0372315Y0019334D01*
X0372373Y0019518D01*
X0372436Y0019701D01*
X0372504Y0019882D01*
X0372575Y0020061D01*
X0372652Y0020239D01*
X0372732Y0020415D01*
X0372817Y0020588D01*
X0372906Y0020760D01*
X0372999Y0020929D01*
X0373096Y0021096D01*
X0373198Y0021261D01*
X0373303Y0021423D01*
X0373412Y0021582D01*
X0373526Y0021739D01*
X0373643Y0021892D01*
X0373763Y0022043D01*
X0373888Y0022191D01*
X0374016Y0022336D01*
X0374147Y0022477D01*
X0374282Y0022616D01*
X0374421Y0022751D01*
X0374562Y0022882D01*
X0374707Y0023010D01*
X0374855Y0023135D01*
X0375006Y0023255D01*
X0375159Y0023372D01*
X0375316Y0023486D01*
X0375475Y0023595D01*
X0375637Y0023700D01*
X0375802Y0023802D01*
X0375969Y0023899D01*
X0376138Y0023992D01*
X0376310Y0024081D01*
X0376483Y0024166D01*
X0376659Y0024246D01*
X0376837Y0024323D01*
X0377016Y0024394D01*
X0377197Y0024462D01*
X0377380Y0024525D01*
X0377564Y0024583D01*
X0377750Y0024637D01*
X0377937Y0024686D01*
X0378125Y0024731D01*
X0378314Y0024771D01*
X0378504Y0024806D01*
X0378695Y0024837D01*
X0378886Y0024863D01*
X0379078Y0024884D01*
X0379271Y0024901D01*
X0379464Y0024913D01*
X0379657Y0024920D01*
X0379850Y0024922D01*
X0380043Y0024920D01*
X0380236Y0024913D01*
X0380429Y0024901D01*
X0380622Y0024884D01*
X0380814Y0024863D01*
X0381005Y0024837D01*
X0381196Y0024806D01*
X0381386Y0024771D01*
X0381575Y0024731D01*
X0381763Y0024686D01*
X0381950Y0024637D01*
X0382136Y0024583D01*
X0382320Y0024525D01*
X0382503Y0024462D01*
X0382684Y0024394D01*
X0382863Y0024323D01*
X0383041Y0024246D01*
X0383217Y0024166D01*
X0383390Y0024081D01*
X0383562Y0023992D01*
X0383731Y0023899D01*
X0383898Y0023802D01*
X0384063Y0023700D01*
X0384225Y0023595D01*
X0384384Y0023486D01*
X0384541Y0023372D01*
X0384694Y0023255D01*
X0384845Y0023135D01*
X0384993Y0023010D01*
X0385138Y0022882D01*
X0385279Y0022751D01*
X0385418Y0022616D01*
X0385553Y0022477D01*
X0385684Y0022336D01*
X0385812Y0022191D01*
X0385937Y0022043D01*
X0386057Y0021892D01*
X0386174Y0021739D01*
X0386288Y0021582D01*
X0386397Y0021423D01*
X0386502Y0021261D01*
X0386604Y0021096D01*
X0386701Y0020929D01*
X0386794Y0020760D01*
X0386883Y0020588D01*
X0386968Y0020415D01*
X0387048Y0020239D01*
X0387125Y0020061D01*
X0387196Y0019882D01*
X0387264Y0019701D01*
X0387327Y0019518D01*
X0387385Y0019334D01*
X0387439Y0019148D01*
X0387488Y0018961D01*
X0387533Y0018773D01*
X0387573Y0018584D01*
X0387608Y0018394D01*
X0387639Y0018203D01*
X0387665Y0018012D01*
X0387686Y0017820D01*
X0387703Y0017627D01*
X0387715Y0017434D01*
X0387722Y0017241D01*
X0387724Y0017048D01*
X0387722Y0016855D01*
X0387715Y0016662D01*
X0387703Y0016469D01*
X0387686Y0016276D01*
X0387665Y0016084D01*
X0387639Y0015893D01*
X0387608Y0015702D01*
X0387573Y0015512D01*
X0387533Y0015323D01*
X0387488Y0015135D01*
X0387439Y0014948D01*
X0387385Y0014762D01*
X0387327Y0014578D01*
X0387264Y0014395D01*
X0387196Y0014214D01*
X0387125Y0014035D01*
X0387048Y0013857D01*
X0386968Y0013681D01*
X0386883Y0013508D01*
X0386794Y0013336D01*
X0386701Y0013167D01*
X0386604Y0013000D01*
X0386502Y0012835D01*
X0386397Y0012673D01*
X0386288Y0012514D01*
X0386174Y0012357D01*
X0386057Y0012204D01*
X0385937Y0012053D01*
X0385812Y0011905D01*
X0385684Y0011760D01*
X0385553Y0011619D01*
X0385418Y0011480D01*
X0385279Y0011345D01*
X0385138Y0011214D01*
X0384993Y0011086D01*
X0384845Y0010961D01*
X0384694Y0010841D01*
X0384541Y0010724D01*
X0384384Y0010610D01*
X0384225Y0010501D01*
X0384063Y0010396D01*
X0383898Y0010294D01*
X0383731Y0010197D01*
X0383562Y0010104D01*
X0383390Y0010015D01*
X0383217Y0009930D01*
X0383041Y0009850D01*
X0382863Y0009773D01*
X0382684Y0009702D01*
X0382503Y0009634D01*
X0382320Y0009571D01*
X0382136Y0009513D01*
X0381950Y0009459D01*
X0381763Y0009410D01*
X0381575Y0009365D01*
X0381386Y0009325D01*
X0381196Y0009290D01*
X0381005Y0009259D01*
X0380814Y0009233D01*
X0380622Y0009212D01*
X0380429Y0009195D01*
X0380236Y0009183D01*
X0380043Y0009176D01*
X0379850Y0009174D01*
X0379657Y0009176D01*
X0379464Y0009183D01*
X0379271Y0009195D01*
X0379078Y0009212D01*
X0378886Y0009233D01*
X0378695Y0009259D01*
X0378504Y0009290D01*
X0378314Y0009325D01*
X0378125Y0009365D01*
X0377937Y0009410D01*
X0377750Y0009459D01*
X0377564Y0009513D01*
X0377380Y0009571D01*
X0377197Y0009634D01*
X0377016Y0009702D01*
X0376837Y0009773D01*
X0376659Y0009850D01*
X0376483Y0009930D01*
X0376310Y0010015D01*
X0376138Y0010104D01*
X0375969Y0010197D01*
X0375802Y0010294D01*
X0375637Y0010396D01*
X0375475Y0010501D01*
X0375316Y0010610D01*
X0375159Y0010724D01*
X0375006Y0010841D01*
X0374855Y0010961D01*
X0374707Y0011086D01*
X0374562Y0011214D01*
X0374421Y0011345D01*
X0374282Y0011480D01*
X0374147Y0011619D01*
X0374016Y0011760D01*
X0373888Y0011905D01*
X0373763Y0012053D01*
X0373643Y0012204D01*
X0373526Y0012357D01*
X0373412Y0012514D01*
X0373303Y0012673D01*
X0373198Y0012835D01*
X0373096Y0013000D01*
X0372999Y0013167D01*
X0372906Y0013336D01*
X0372817Y0013508D01*
X0372732Y0013681D01*
X0372652Y0013857D01*
X0372575Y0014035D01*
X0372504Y0014214D01*
X0372436Y0014395D01*
X0372373Y0014578D01*
X0372315Y0014762D01*
X0372261Y0014948D01*
X0372212Y0015135D01*
X0372167Y0015323D01*
X0372127Y0015512D01*
X0372092Y0015702D01*
X0372061Y0015893D01*
X0372035Y0016084D01*
X0372014Y0016276D01*
X0371997Y0016469D01*
X0371985Y0016662D01*
X0371978Y0016855D01*
X0371976Y0017048D01*
M02*
