G75*
%MOIN*%
%OFA0B0*%
%FSLAX25Y25*%
%IPPOS*%
%LPD*%
%AMOC8*
5,1,8,0,0,1.08239X$1,22.5*
%
%ADD10C,0.00500*%
%ADD11C,0.00300*%
%ADD12C,0.00400*%
%ADD13C,0.00700*%
%ADD14C,0.01768*%
%ADD15C,0.00800*%
D10*
X0016300Y0061300D02*
X0096300Y0061300D01*
X0096300Y0121300D01*
X0016300Y0121300D01*
X0016300Y0061300D01*
X0022967Y0163630D02*
X0022650Y0163947D01*
X0022650Y0164264D01*
X0022967Y0164581D01*
X0024552Y0164581D01*
X0024552Y0164264D02*
X0024552Y0164898D01*
X0023918Y0165840D02*
X0024552Y0166474D01*
X0022650Y0166474D01*
X0022650Y0165840D02*
X0022650Y0167108D01*
X0107650Y0167291D02*
X0107650Y0166657D01*
X0107967Y0166340D01*
X0108601Y0166657D02*
X0108601Y0167291D01*
X0108284Y0167608D01*
X0107967Y0167608D01*
X0107650Y0167291D01*
X0108601Y0166657D02*
X0108918Y0166340D01*
X0109235Y0166340D01*
X0109552Y0166657D01*
X0109552Y0167291D01*
X0109235Y0167608D01*
X0109235Y0165398D02*
X0108601Y0165398D01*
X0108284Y0165081D01*
X0108284Y0164130D01*
X0107650Y0164130D02*
X0109552Y0164130D01*
X0109552Y0165081D01*
X0109235Y0165398D01*
X0108284Y0164764D02*
X0107650Y0165398D01*
X0107967Y0163188D02*
X0109235Y0163188D01*
X0109552Y0162871D01*
X0109552Y0162237D01*
X0109235Y0161920D01*
X0107967Y0161920D01*
X0107650Y0162237D01*
X0107650Y0162871D01*
X0107967Y0163188D01*
X0109552Y0160978D02*
X0109552Y0159710D01*
X0109552Y0160344D02*
X0107650Y0160344D01*
X0107650Y0158768D02*
X0108918Y0158768D01*
X0109552Y0158134D01*
X0108918Y0157501D01*
X0107650Y0157501D01*
X0108601Y0157501D02*
X0108601Y0158768D01*
X0107967Y0156558D02*
X0109552Y0156558D01*
X0109552Y0155291D02*
X0107967Y0155291D01*
X0107650Y0155608D01*
X0107650Y0156241D01*
X0107967Y0156558D01*
X0109552Y0154349D02*
X0109552Y0153081D01*
X0109552Y0153715D02*
X0107650Y0153715D01*
X0107967Y0152139D02*
X0107650Y0151822D01*
X0107650Y0151188D01*
X0107967Y0150871D01*
X0109235Y0150871D01*
X0109552Y0151188D01*
X0109552Y0151822D01*
X0109235Y0152139D01*
X0108918Y0149929D02*
X0107650Y0149929D01*
X0108601Y0149929D02*
X0108601Y0148661D01*
X0108918Y0148661D02*
X0107650Y0148661D01*
X0108918Y0148661D02*
X0109552Y0149295D01*
X0108918Y0149929D01*
X0123750Y0133081D02*
X0128254Y0133081D01*
X0128254Y0135333D01*
X0127503Y0136084D01*
X0126002Y0136084D01*
X0125251Y0135333D01*
X0125251Y0133081D01*
X0124501Y0131480D02*
X0128254Y0131480D01*
X0128254Y0128477D02*
X0124501Y0128477D01*
X0123750Y0129228D01*
X0123750Y0130729D01*
X0124501Y0131480D01*
X0126002Y0126876D02*
X0125251Y0126125D01*
X0125251Y0123874D01*
X0123750Y0123874D02*
X0128254Y0123874D01*
X0128254Y0126125D01*
X0127503Y0126876D01*
X0126002Y0126876D01*
X0128254Y0122272D02*
X0128254Y0119270D01*
X0123750Y0119270D01*
X0123750Y0122272D01*
X0126002Y0120771D02*
X0126002Y0119270D01*
X0128254Y0117668D02*
X0128254Y0114666D01*
X0128254Y0116167D02*
X0123750Y0116167D01*
X0124501Y0113064D02*
X0123750Y0112314D01*
X0123750Y0110812D01*
X0124501Y0110062D01*
X0126002Y0110812D02*
X0126002Y0112314D01*
X0125251Y0113064D01*
X0124501Y0113064D01*
X0126002Y0110812D02*
X0126753Y0110062D01*
X0127503Y0110062D01*
X0128254Y0110812D01*
X0128254Y0112314D01*
X0127503Y0113064D01*
X0126002Y0108460D02*
X0126002Y0105458D01*
X0127503Y0103856D02*
X0128254Y0103106D01*
X0128254Y0101605D01*
X0127503Y0100854D01*
X0124501Y0100854D01*
X0123750Y0101605D01*
X0123750Y0103106D01*
X0124501Y0103856D01*
X0127503Y0103856D01*
X0128254Y0099253D02*
X0128254Y0096250D01*
X0128254Y0097751D02*
X0123750Y0097751D01*
X0126602Y0085249D02*
X0125851Y0084498D01*
X0125851Y0082246D01*
X0124350Y0082246D02*
X0128854Y0082246D01*
X0128854Y0084498D01*
X0128103Y0085249D01*
X0126602Y0085249D01*
X0125101Y0080645D02*
X0124350Y0079894D01*
X0124350Y0078393D01*
X0125101Y0077642D01*
X0128854Y0077642D01*
X0128103Y0076041D02*
X0128854Y0075290D01*
X0128854Y0073038D01*
X0124350Y0073038D01*
X0125851Y0073038D02*
X0125851Y0075290D01*
X0126602Y0076041D01*
X0128103Y0076041D01*
X0128854Y0080645D02*
X0125101Y0080645D01*
X0124350Y0071437D02*
X0124350Y0068434D01*
X0128854Y0068434D01*
X0128854Y0071437D01*
X0126602Y0069935D02*
X0126602Y0068434D01*
X0128854Y0066833D02*
X0128854Y0063830D01*
X0128854Y0065332D02*
X0124350Y0065332D01*
X0125101Y0062229D02*
X0124350Y0061478D01*
X0124350Y0059977D01*
X0125101Y0059226D01*
X0126602Y0059977D02*
X0126602Y0061478D01*
X0125851Y0062229D01*
X0125101Y0062229D01*
X0126602Y0059977D02*
X0127353Y0059226D01*
X0128103Y0059226D01*
X0128854Y0059977D01*
X0128854Y0061478D01*
X0128103Y0062229D01*
X0126602Y0057625D02*
X0126602Y0054622D01*
X0128854Y0053021D02*
X0127353Y0051520D01*
X0128854Y0050018D01*
X0124350Y0050018D01*
X0125101Y0048417D02*
X0124350Y0047666D01*
X0124350Y0046165D01*
X0125101Y0045415D01*
X0128103Y0045415D01*
X0128854Y0046165D01*
X0128854Y0047666D01*
X0128103Y0048417D01*
X0125101Y0048417D01*
X0124350Y0053021D02*
X0128854Y0053021D01*
X0128103Y0043813D02*
X0126602Y0043813D01*
X0125851Y0043063D01*
X0125851Y0040811D01*
X0125851Y0042312D02*
X0124350Y0043813D01*
X0124350Y0040811D02*
X0128854Y0040811D01*
X0128854Y0043063D01*
X0128103Y0043813D01*
X0128854Y0039209D02*
X0128854Y0036207D01*
X0124350Y0036207D01*
X0126602Y0036207D02*
X0126602Y0037708D01*
D11*
X0104653Y0059217D02*
X0102184Y0059217D01*
X0100950Y0060452D01*
X0102184Y0061686D01*
X0104653Y0061686D01*
X0104653Y0062901D02*
X0103419Y0064135D01*
X0104653Y0065369D01*
X0100950Y0065369D01*
X0101567Y0066584D02*
X0100950Y0067201D01*
X0100950Y0068435D01*
X0101567Y0069052D01*
X0104036Y0069052D01*
X0104653Y0068435D01*
X0104653Y0067201D01*
X0104036Y0066584D01*
X0101567Y0066584D01*
X0100950Y0062901D02*
X0104653Y0062901D01*
X0104653Y0070267D02*
X0104653Y0072736D01*
X0104653Y0071501D02*
X0100950Y0071501D01*
X0101567Y0077901D02*
X0100950Y0078518D01*
X0100950Y0079752D01*
X0101567Y0080369D01*
X0102802Y0080369D01*
X0102802Y0079135D01*
X0104036Y0080369D02*
X0104653Y0079752D01*
X0104653Y0078518D01*
X0104036Y0077901D01*
X0101567Y0077901D01*
X0100950Y0081584D02*
X0104653Y0081584D01*
X0100950Y0084052D01*
X0104653Y0084052D01*
X0104653Y0085267D02*
X0104653Y0087118D01*
X0104036Y0087736D01*
X0101567Y0087736D01*
X0100950Y0087118D01*
X0100950Y0085267D01*
X0104653Y0085267D01*
X0092653Y0080668D02*
X0092653Y0078816D01*
X0088950Y0078816D01*
X0088950Y0080668D01*
X0089567Y0081285D01*
X0092036Y0081285D01*
X0092653Y0080668D01*
X0092653Y0077602D02*
X0088950Y0077602D01*
X0092653Y0075133D01*
X0088950Y0075133D01*
X0089567Y0073919D02*
X0090802Y0073919D01*
X0090802Y0072684D01*
X0092036Y0071450D02*
X0089567Y0071450D01*
X0088950Y0072067D01*
X0088950Y0073302D01*
X0089567Y0073919D01*
X0092036Y0073919D02*
X0092653Y0073302D01*
X0092653Y0072067D01*
X0092036Y0071450D01*
X0082653Y0071450D02*
X0080184Y0071450D01*
X0078950Y0072684D01*
X0080184Y0073919D01*
X0082653Y0073919D01*
X0082036Y0075133D02*
X0079567Y0075133D01*
X0078950Y0075750D01*
X0078950Y0076985D01*
X0079567Y0077602D01*
X0079567Y0078816D02*
X0078950Y0079433D01*
X0078950Y0080668D01*
X0079567Y0081285D01*
X0082036Y0081285D02*
X0082653Y0080668D01*
X0082653Y0079433D01*
X0082036Y0078816D01*
X0079567Y0078816D01*
X0082036Y0077602D02*
X0082653Y0076985D01*
X0082653Y0075750D01*
X0082036Y0075133D01*
X0072653Y0075750D02*
X0072036Y0075133D01*
X0069567Y0075133D01*
X0068950Y0075750D01*
X0068950Y0076985D01*
X0069567Y0077602D01*
X0072036Y0077602D01*
X0072653Y0076985D01*
X0072653Y0075750D01*
X0071419Y0073919D02*
X0068950Y0073919D01*
X0068950Y0071450D02*
X0071419Y0071450D01*
X0072653Y0072684D01*
X0071419Y0073919D01*
X0070802Y0073919D02*
X0070802Y0071450D01*
X0071419Y0078816D02*
X0072653Y0080051D01*
X0068950Y0080051D01*
X0068950Y0081285D02*
X0068950Y0078816D01*
X0062653Y0079433D02*
X0062036Y0078816D01*
X0062653Y0079433D02*
X0062653Y0080668D01*
X0062036Y0081285D01*
X0061419Y0081285D01*
X0058950Y0078816D01*
X0058950Y0081285D01*
X0059567Y0077602D02*
X0062036Y0077602D01*
X0062653Y0076985D01*
X0062653Y0075750D01*
X0062036Y0075133D01*
X0059567Y0075133D01*
X0058950Y0075750D01*
X0058950Y0076985D01*
X0059567Y0077602D01*
X0058950Y0073919D02*
X0061419Y0073919D01*
X0062653Y0072684D01*
X0061419Y0071450D01*
X0058950Y0071450D01*
X0060802Y0071450D02*
X0060802Y0073919D01*
X0052653Y0073302D02*
X0052653Y0071450D01*
X0048950Y0071450D01*
X0048950Y0073302D01*
X0049567Y0073919D01*
X0050184Y0073919D01*
X0050802Y0073302D01*
X0050802Y0071450D01*
X0050802Y0073302D02*
X0051419Y0073919D01*
X0052036Y0073919D01*
X0052653Y0073302D01*
X0052036Y0075133D02*
X0049567Y0075133D01*
X0048950Y0075750D01*
X0048950Y0076985D01*
X0049567Y0077602D01*
X0052036Y0077602D01*
X0052653Y0076985D01*
X0052653Y0075750D01*
X0052036Y0075133D01*
X0052036Y0078816D02*
X0052653Y0079433D01*
X0052653Y0080668D01*
X0052036Y0081285D01*
X0051419Y0081285D01*
X0048950Y0078816D01*
X0048950Y0081285D01*
X0042653Y0080051D02*
X0038950Y0080051D01*
X0038950Y0081285D02*
X0038950Y0078816D01*
X0039567Y0077602D02*
X0042036Y0077602D01*
X0042653Y0076985D01*
X0042653Y0075750D01*
X0042036Y0075133D01*
X0039567Y0075133D01*
X0038950Y0075750D01*
X0038950Y0076985D01*
X0039567Y0077602D01*
X0041419Y0078816D02*
X0042653Y0080051D01*
X0042036Y0073919D02*
X0041419Y0073919D01*
X0040802Y0073302D01*
X0040802Y0071450D01*
X0042653Y0071450D02*
X0038950Y0071450D01*
X0038950Y0073302D01*
X0039567Y0073919D01*
X0040184Y0073919D01*
X0040802Y0073302D01*
X0042036Y0073919D02*
X0042653Y0073302D01*
X0042653Y0071450D01*
X0032653Y0071450D02*
X0030184Y0071450D01*
X0028950Y0072684D01*
X0030184Y0073919D01*
X0032653Y0073919D01*
X0032653Y0075133D02*
X0031419Y0076368D01*
X0032653Y0077602D01*
X0028950Y0077602D01*
X0029567Y0078816D02*
X0028950Y0079433D01*
X0028950Y0080668D01*
X0029567Y0081285D01*
X0032036Y0081285D01*
X0032653Y0080668D01*
X0032653Y0079433D01*
X0032036Y0078816D01*
X0029567Y0078816D01*
X0028950Y0075133D02*
X0032653Y0075133D01*
X0032653Y0082499D02*
X0032653Y0084968D01*
X0032653Y0083734D02*
X0028950Y0083734D01*
X0022653Y0083734D02*
X0018950Y0083734D01*
X0018950Y0084968D02*
X0018950Y0082499D01*
X0019567Y0081285D02*
X0022036Y0081285D01*
X0022653Y0080668D01*
X0022653Y0078816D01*
X0018950Y0078816D01*
X0018950Y0080668D01*
X0019567Y0081285D01*
X0021419Y0082499D02*
X0022653Y0083734D01*
X0022653Y0077602D02*
X0018950Y0077602D01*
X0022653Y0075133D01*
X0018950Y0075133D01*
X0019567Y0073919D02*
X0020802Y0073919D01*
X0020802Y0072684D01*
X0022036Y0071450D02*
X0019567Y0071450D01*
X0018950Y0072067D01*
X0018950Y0073302D01*
X0019567Y0073919D01*
X0022036Y0073919D02*
X0022653Y0073302D01*
X0022653Y0072067D01*
X0022036Y0071450D01*
X0028950Y0093950D02*
X0032653Y0093950D01*
X0032653Y0095802D01*
X0032036Y0096419D01*
X0030802Y0096419D01*
X0030184Y0095802D01*
X0030184Y0093950D01*
X0028950Y0097633D02*
X0030184Y0098868D01*
X0028950Y0100102D01*
X0032653Y0100102D01*
X0032653Y0101316D02*
X0031419Y0102551D01*
X0032653Y0103785D01*
X0028950Y0103785D01*
X0028950Y0104999D02*
X0028950Y0106851D01*
X0029567Y0107468D01*
X0030184Y0107468D01*
X0030802Y0106851D01*
X0030802Y0104999D01*
X0032653Y0104999D02*
X0032653Y0106851D01*
X0032036Y0107468D01*
X0031419Y0107468D01*
X0030802Y0106851D01*
X0032653Y0104999D02*
X0028950Y0104999D01*
X0028950Y0101316D02*
X0032653Y0101316D01*
X0032653Y0097633D02*
X0028950Y0097633D01*
X0022653Y0097067D02*
X0022036Y0096450D01*
X0019567Y0096450D01*
X0018950Y0097067D01*
X0018950Y0098302D01*
X0019567Y0098919D01*
X0020802Y0098919D01*
X0020802Y0097684D01*
X0022036Y0098919D02*
X0022653Y0098302D01*
X0022653Y0097067D01*
X0022653Y0100133D02*
X0018950Y0102602D01*
X0022653Y0102602D01*
X0022653Y0103816D02*
X0022653Y0105668D01*
X0022036Y0106285D01*
X0019567Y0106285D01*
X0018950Y0105668D01*
X0018950Y0103816D01*
X0022653Y0103816D01*
X0022653Y0100133D02*
X0018950Y0100133D01*
X0018950Y0107499D02*
X0021419Y0109968D01*
X0022036Y0109968D01*
X0022653Y0109351D01*
X0022653Y0108117D01*
X0022036Y0107499D01*
X0018950Y0107499D02*
X0018950Y0109968D01*
X0038950Y0109650D02*
X0039917Y0110618D01*
X0041852Y0110618D01*
X0042036Y0111240D02*
X0042653Y0110623D01*
X0042653Y0109389D01*
X0042036Y0108772D01*
X0041852Y0108683D02*
X0039917Y0108683D01*
X0038950Y0109650D01*
X0038950Y0108772D02*
X0041419Y0111240D01*
X0042036Y0111240D01*
X0041369Y0111629D02*
X0039434Y0111629D01*
X0038950Y0112113D01*
X0038950Y0113080D01*
X0039434Y0113564D01*
X0038950Y0114576D02*
X0040885Y0116511D01*
X0041369Y0116511D01*
X0041852Y0116027D01*
X0041852Y0115059D01*
X0041369Y0114576D01*
X0041369Y0113564D02*
X0041852Y0113080D01*
X0041852Y0112113D01*
X0041369Y0111629D01*
X0038950Y0111240D02*
X0038950Y0108772D01*
X0038950Y0107671D02*
X0038950Y0105736D01*
X0041852Y0105736D01*
X0042653Y0105089D02*
X0038950Y0107557D01*
X0042653Y0107557D01*
X0042653Y0105089D02*
X0038950Y0105089D01*
X0038950Y0104241D02*
X0041852Y0104241D01*
X0040401Y0102790D01*
X0040401Y0104725D01*
X0038950Y0103868D02*
X0038950Y0102633D01*
X0038950Y0103250D02*
X0042653Y0103250D01*
X0042653Y0102633D02*
X0042653Y0103868D01*
X0041852Y0101778D02*
X0041369Y0101778D01*
X0039434Y0099843D01*
X0038950Y0099843D01*
X0038950Y0098950D02*
X0038950Y0100802D01*
X0039567Y0101419D01*
X0040184Y0101419D01*
X0040802Y0100802D01*
X0040802Y0098950D01*
X0041852Y0098831D02*
X0038950Y0098831D01*
X0041852Y0096897D01*
X0038950Y0096897D01*
X0039434Y0095885D02*
X0038950Y0095401D01*
X0038950Y0094434D01*
X0039434Y0093950D01*
X0040401Y0094434D02*
X0040401Y0095401D01*
X0039917Y0095885D01*
X0039434Y0095885D01*
X0040401Y0094434D02*
X0040885Y0093950D01*
X0041369Y0093950D01*
X0041852Y0094434D01*
X0041852Y0095401D01*
X0041369Y0095885D01*
X0042653Y0098950D02*
X0038950Y0098950D01*
X0040802Y0100802D02*
X0041419Y0101419D01*
X0042036Y0101419D01*
X0042653Y0100802D01*
X0042653Y0098950D01*
X0041852Y0099843D02*
X0041852Y0101778D01*
X0048950Y0102633D02*
X0048950Y0103868D01*
X0048950Y0103250D02*
X0052653Y0103250D01*
X0052653Y0102633D02*
X0052653Y0103868D01*
X0052653Y0105089D02*
X0048950Y0107557D01*
X0052653Y0107557D01*
X0051419Y0108772D02*
X0052653Y0110006D01*
X0048950Y0110006D01*
X0048950Y0108772D02*
X0048950Y0111240D01*
X0048950Y0105089D02*
X0052653Y0105089D01*
X0052036Y0101419D02*
X0051419Y0101419D01*
X0050802Y0100802D01*
X0050802Y0098950D01*
X0052653Y0098950D02*
X0052653Y0100802D01*
X0052036Y0101419D01*
X0050802Y0100802D02*
X0050184Y0101419D01*
X0049567Y0101419D01*
X0048950Y0100802D01*
X0048950Y0098950D01*
X0052653Y0098950D01*
X0058950Y0098302D02*
X0058950Y0097067D01*
X0059567Y0096450D01*
X0060802Y0097067D02*
X0060802Y0098302D01*
X0060184Y0098919D01*
X0059567Y0098919D01*
X0058950Y0098302D01*
X0060802Y0097067D02*
X0061419Y0096450D01*
X0062036Y0096450D01*
X0062653Y0097067D01*
X0062653Y0098302D01*
X0062036Y0098919D01*
X0062653Y0100133D02*
X0062653Y0102602D01*
X0062653Y0103816D02*
X0062653Y0105668D01*
X0062036Y0106285D01*
X0061419Y0106285D01*
X0060802Y0105668D01*
X0060802Y0103816D01*
X0062653Y0103816D02*
X0058950Y0103816D01*
X0058950Y0105668D01*
X0059567Y0106285D01*
X0060184Y0106285D01*
X0060802Y0105668D01*
X0062036Y0107499D02*
X0060802Y0108734D01*
X0058950Y0108734D01*
X0060802Y0108734D02*
X0062036Y0109968D01*
X0062653Y0109968D01*
X0062653Y0107499D02*
X0062036Y0107499D01*
X0062653Y0101368D02*
X0058950Y0101368D01*
X0068950Y0101419D02*
X0071419Y0101419D01*
X0072653Y0100184D01*
X0071419Y0098950D01*
X0068950Y0098950D01*
X0070802Y0098950D02*
X0070802Y0101419D01*
X0072653Y0102633D02*
X0072653Y0103868D01*
X0072653Y0103250D02*
X0068950Y0103250D01*
X0068950Y0102633D02*
X0068950Y0103868D01*
X0068950Y0105089D02*
X0072653Y0105089D01*
X0068950Y0107557D01*
X0072653Y0107557D01*
X0071419Y0108772D02*
X0072653Y0110006D01*
X0068950Y0110006D01*
X0068950Y0108772D02*
X0068950Y0111240D01*
X0078950Y0111240D02*
X0078950Y0108772D01*
X0081419Y0111240D01*
X0082036Y0111240D01*
X0082653Y0110623D01*
X0082653Y0109389D01*
X0082036Y0108772D01*
X0082653Y0107557D02*
X0078950Y0107557D01*
X0082653Y0105089D01*
X0078950Y0105089D01*
X0078950Y0103868D02*
X0078950Y0102633D01*
X0078950Y0103250D02*
X0082653Y0103250D01*
X0082653Y0102633D02*
X0082653Y0103868D01*
X0081419Y0101419D02*
X0078950Y0101419D01*
X0080802Y0101419D02*
X0080802Y0098950D01*
X0081419Y0098950D02*
X0078950Y0098950D01*
X0081419Y0098950D02*
X0082653Y0100184D01*
X0081419Y0101419D01*
X0088950Y0101316D02*
X0092653Y0101316D01*
X0091419Y0102551D01*
X0092653Y0103785D01*
X0088950Y0103785D01*
X0088950Y0104999D02*
X0091419Y0104999D01*
X0092653Y0106234D01*
X0091419Y0107468D01*
X0088950Y0107468D01*
X0090802Y0107468D02*
X0090802Y0104999D01*
X0088950Y0100102D02*
X0092653Y0100102D01*
X0092653Y0097633D02*
X0088950Y0097633D01*
X0090184Y0098868D01*
X0088950Y0100102D01*
X0090802Y0096419D02*
X0090184Y0095802D01*
X0090184Y0093950D01*
X0088950Y0093950D02*
X0092653Y0093950D01*
X0092653Y0095802D01*
X0092036Y0096419D01*
X0090802Y0096419D01*
X0101450Y0107067D02*
X0102067Y0106450D01*
X0101450Y0107067D02*
X0101450Y0108302D01*
X0102067Y0108919D01*
X0103302Y0108919D01*
X0103919Y0108302D01*
X0103919Y0107684D01*
X0103302Y0106450D01*
X0105153Y0106450D01*
X0105153Y0108919D01*
X0105153Y0110133D02*
X0102684Y0110133D01*
X0101450Y0111368D01*
X0102684Y0112602D01*
X0105153Y0112602D01*
X0104536Y0116450D02*
X0102067Y0116450D01*
X0101450Y0117067D01*
X0101450Y0118302D01*
X0102067Y0118919D01*
X0103302Y0118919D01*
X0103302Y0117684D01*
X0104536Y0116450D02*
X0105153Y0117067D01*
X0105153Y0118302D01*
X0104536Y0118919D01*
X0105153Y0120133D02*
X0101450Y0122602D01*
X0105153Y0122602D01*
X0105153Y0123816D02*
X0105153Y0125668D01*
X0104536Y0126285D01*
X0102067Y0126285D01*
X0101450Y0125668D01*
X0101450Y0123816D01*
X0105153Y0123816D01*
X0105153Y0120133D02*
X0101450Y0120133D01*
X0041852Y0120952D02*
X0041369Y0120469D01*
X0039434Y0120469D01*
X0041369Y0122404D01*
X0039434Y0122404D01*
X0038950Y0121920D01*
X0038950Y0120952D01*
X0039434Y0120469D01*
X0039434Y0119457D02*
X0040401Y0119457D01*
X0040401Y0118490D01*
X0039434Y0119457D02*
X0038950Y0118973D01*
X0038950Y0118006D01*
X0039434Y0117522D01*
X0041369Y0117522D01*
X0041852Y0118006D01*
X0041852Y0118973D01*
X0041369Y0119457D01*
X0041852Y0120952D02*
X0041852Y0121920D01*
X0041369Y0122404D01*
X0040401Y0123415D02*
X0040401Y0125350D01*
X0038950Y0124866D02*
X0041852Y0124866D01*
X0040401Y0123415D01*
X0038950Y0126362D02*
X0038950Y0127813D01*
X0039434Y0128297D01*
X0041369Y0128297D01*
X0041852Y0127813D01*
X0041852Y0126362D01*
X0038950Y0126362D01*
X0038950Y0129308D02*
X0038950Y0130759D01*
X0039434Y0131243D01*
X0039917Y0131243D01*
X0040401Y0130759D01*
X0040401Y0129308D01*
X0038950Y0129308D02*
X0041852Y0129308D01*
X0041852Y0130759D01*
X0041369Y0131243D01*
X0040885Y0131243D01*
X0040401Y0130759D01*
X0039917Y0132255D02*
X0038950Y0133222D01*
X0039917Y0134190D01*
X0041852Y0134190D01*
X0041852Y0132255D02*
X0039917Y0132255D01*
X0038950Y0116511D02*
X0038950Y0114576D01*
D12*
X0040902Y0090604D02*
X0042437Y0090604D01*
X0043204Y0089837D01*
X0043204Y0086767D01*
X0042437Y0086000D01*
X0040902Y0086000D01*
X0040135Y0086767D01*
X0040135Y0088302D01*
X0041669Y0088302D01*
X0040135Y0089837D02*
X0040902Y0090604D01*
X0044739Y0090604D02*
X0044739Y0086000D01*
X0047808Y0090604D01*
X0047808Y0086000D01*
X0050877Y0088302D02*
X0052412Y0088302D01*
X0053947Y0089069D02*
X0053947Y0089837D01*
X0054714Y0090604D01*
X0056248Y0090604D01*
X0057016Y0089837D01*
X0053947Y0089069D02*
X0057016Y0086000D01*
X0053947Y0086000D01*
X0052412Y0086000D02*
X0052412Y0090604D01*
X0049343Y0090604D01*
X0058550Y0086000D02*
X0061620Y0086000D01*
X0060085Y0086000D02*
X0060085Y0090604D01*
X0061620Y0089069D01*
X0063154Y0087535D02*
X0063922Y0088302D01*
X0066224Y0088302D01*
X0066224Y0086767D01*
X0065456Y0086000D01*
X0063922Y0086000D01*
X0063154Y0086767D01*
X0063154Y0087535D01*
X0064689Y0089837D02*
X0063154Y0090604D01*
X0064689Y0089837D02*
X0066224Y0088302D01*
X0067758Y0087535D02*
X0068526Y0088302D01*
X0070828Y0088302D01*
X0070828Y0086767D01*
X0070060Y0086000D01*
X0068526Y0086000D01*
X0067758Y0086767D01*
X0067758Y0087535D01*
X0069293Y0089837D02*
X0067758Y0090604D01*
X0069293Y0089837D02*
X0070828Y0088302D01*
X0072362Y0089069D02*
X0072362Y0089837D01*
X0073130Y0090604D01*
X0075431Y0090604D01*
X0075431Y0086000D01*
X0073130Y0086000D01*
X0072362Y0086767D01*
X0072362Y0087535D01*
X0073130Y0088302D01*
X0075431Y0088302D01*
X0073130Y0088302D02*
X0072362Y0089069D01*
X0076966Y0090604D02*
X0080035Y0090604D01*
X0078501Y0090604D02*
X0078501Y0086000D01*
D13*
X0063703Y0094150D02*
X0063703Y0095251D01*
X0063703Y0094700D02*
X0060400Y0094700D01*
X0060400Y0094150D02*
X0060400Y0095251D01*
X0060950Y0096605D02*
X0060400Y0097156D01*
X0060400Y0098257D01*
X0060950Y0098807D01*
X0060950Y0100289D02*
X0060400Y0100839D01*
X0060400Y0101940D01*
X0060950Y0102490D01*
X0061501Y0102490D01*
X0062051Y0101940D01*
X0062051Y0101390D01*
X0062051Y0101940D02*
X0062602Y0102490D01*
X0063152Y0102490D01*
X0063703Y0101940D01*
X0063703Y0100839D01*
X0063152Y0100289D01*
X0063152Y0098807D02*
X0063703Y0098257D01*
X0063703Y0097156D01*
X0063152Y0096605D01*
X0060950Y0096605D01*
X0054491Y0095503D02*
X0048109Y0095503D01*
X0048109Y0107097D02*
X0054491Y0107097D01*
D14*
X0050247Y0097550D03*
D15*
X0026536Y0133583D02*
X0106064Y0133583D01*
X0106064Y0169017D01*
X0074961Y0169017D01*
X0074961Y0163111D01*
X0057639Y0163111D01*
X0057639Y0169017D01*
X0026536Y0169017D01*
X0026536Y0133977D01*
X0043800Y0162225D02*
X0048800Y0162225D01*
X0057639Y0169017D02*
X0074961Y0169017D01*
X0108800Y0126300D02*
X0106300Y0123800D01*
X0106300Y0118800D01*
X0108800Y0116300D01*
X0106300Y0113800D01*
X0106300Y0108800D01*
X0108800Y0106300D01*
X0113800Y0106300D01*
X0116300Y0108800D01*
X0116300Y0113800D01*
X0113800Y0116300D01*
X0116300Y0118800D01*
X0116300Y0123800D01*
X0113800Y0126300D01*
X0108800Y0126300D01*
X0108800Y0086300D02*
X0106300Y0083800D01*
X0106300Y0078800D01*
X0108800Y0076300D01*
X0106300Y0073800D01*
X0106300Y0068800D01*
X0108800Y0066300D01*
X0113800Y0066300D01*
X0116300Y0068800D01*
X0116300Y0073800D01*
X0113800Y0076300D01*
X0116300Y0078800D01*
X0116300Y0083800D01*
X0113800Y0086300D01*
X0108800Y0086300D01*
M02*
