%
M48
M72
T01C0.0315
T02C0.0400
T03C0.0433
T04C0.1000
%
T01
X2130Y6630
X3130Y6630
X4130Y6630
X5130Y6630
X6130Y6630
X7130Y6630
X8130Y6630
X9130Y6630
X9130Y11630
X8130Y11630
X7130Y11630
X6130Y11630
X5130Y11630
X4130Y11630
X3130Y11630
X2130Y11630
T02
X4630Y14580
X4630Y15680
X5630Y15680
X5630Y14580
X6630Y14580
X6630Y15680
X7630Y15680
X7630Y14580
X8630Y14580
X8630Y15680
X11130Y12200
X11130Y11060
X11130Y8200
X11130Y7060
X11130Y4680
X11130Y3680
X10130Y3580
X10130Y4580
X9130Y4680
X9130Y3680
T03
X7930Y4130
X6930Y4130
X5930Y4130
X4930Y4130
X4930Y2130
X5930Y2130
X6930Y2130
X7930Y2130
T04
X1630Y1630
X11630Y1630
X11630Y15630
X1630Y15630
M30
