G75*
%MOIN*%
%OFA0B0*%
%FSLAX25Y25*%
%IPPOS*%
%LPD*%
%AMOC8*
5,1,8,0,0,1.08239X$1,22.5*
%
%ADD10C,0.10400*%
%ADD11C,0.07400*%
%ADD12C,0.07880*%
%ADD13R,0.05124X0.02565*%
%ADD14C,0.07800*%
D10*
X0016300Y0016300D03*
X0116300Y0016300D03*
X0116300Y0156300D03*
X0016300Y0156300D03*
D11*
X0021300Y0116300D03*
X0031300Y0116300D03*
X0041300Y0116300D03*
X0051300Y0116300D03*
X0061300Y0116300D03*
X0071300Y0116300D03*
X0081300Y0116300D03*
X0091300Y0116300D03*
X0091300Y0066300D03*
X0081300Y0066300D03*
X0071300Y0066300D03*
X0061300Y0066300D03*
X0051300Y0066300D03*
X0041300Y0066300D03*
X0031300Y0066300D03*
X0021300Y0066300D03*
D12*
X0049300Y0041300D03*
X0059300Y0041300D03*
X0069300Y0041300D03*
X0079300Y0041300D03*
X0079300Y0021300D03*
X0069300Y0021300D03*
X0059300Y0021300D03*
X0049300Y0021300D03*
D13*
X0046181Y0097560D03*
X0046181Y0101300D03*
X0046181Y0105040D03*
X0056419Y0105040D03*
X0056419Y0101300D03*
X0056419Y0097560D03*
D14*
X0056300Y0145800D03*
X0056300Y0156800D03*
X0046300Y0156800D03*
X0046300Y0145800D03*
X0066300Y0145800D03*
X0066300Y0156800D03*
X0076300Y0156800D03*
X0076300Y0145800D03*
X0086300Y0145800D03*
X0086300Y0156800D03*
X0111300Y0122000D03*
X0111300Y0110600D03*
X0111300Y0082000D03*
X0111300Y0070600D03*
X0111300Y0046800D03*
X0111300Y0036800D03*
X0101300Y0035800D03*
X0101300Y0045800D03*
X0091300Y0046800D03*
X0091300Y0036800D03*
M02*
