G75*
%MOIN*%
%OFA0B0*%
%FSLAX25Y25*%
%IPPOS*%
%LPD*%
%AMOC8*
5,1,8,0,0,1.08239X$1,22.5*
%
%ADD10C,0.16548*%
%ADD11C,0.08200*%
%ADD12C,0.07400*%
%ADD13C,0.09461*%
%ADD14C,0.04934*%
%ADD15C,0.06800*%
%ADD16OC8,0.06000*%
%ADD17C,0.07800*%
%ADD18C,0.12611*%
%ADD19C,0.03778*%
D10*
X0017961Y0017563D03*
X0017961Y0108114D03*
X0191189Y0108114D03*
X0191189Y0017563D03*
D11*
X0124575Y0096315D03*
X0114575Y0096315D03*
X0104575Y0096315D03*
X0094575Y0096315D03*
X0084575Y0096315D03*
X0084575Y0107315D03*
X0094575Y0107315D03*
X0104575Y0107315D03*
X0114575Y0107315D03*
X0124575Y0107315D03*
D12*
X0122134Y0031500D03*
X0132134Y0031500D03*
X0142134Y0031500D03*
X0142134Y0011500D03*
X0132134Y0011500D03*
X0122134Y0011500D03*
X0087016Y0011500D03*
X0077016Y0011500D03*
X0067016Y0011500D03*
X0067016Y0031500D03*
X0077016Y0031500D03*
X0087016Y0031500D03*
D13*
X0086976Y0021697D03*
X0142094Y0021697D03*
D14*
X0125205Y0025831D03*
X0125205Y0017209D03*
X0070087Y0017209D03*
X0070087Y0025831D03*
D15*
X0010087Y0037248D03*
X0010087Y0047248D03*
X0010087Y0057248D03*
X0010087Y0068744D03*
X0010087Y0078744D03*
X0010087Y0088744D03*
X0038827Y0106539D03*
X0048827Y0106539D03*
X0058827Y0106539D03*
X0058906Y0116106D03*
X0048906Y0116106D03*
X0038906Y0116106D03*
X0150480Y0116106D03*
X0160480Y0116106D03*
X0170480Y0116106D03*
X0170638Y0106539D03*
X0160638Y0106539D03*
X0150638Y0106539D03*
X0199063Y0088429D03*
X0199063Y0078429D03*
X0199063Y0068429D03*
X0199063Y0056933D03*
X0199063Y0046933D03*
X0199063Y0036933D03*
D16*
X0124260Y0045870D03*
X0104575Y0040437D03*
X0084890Y0045870D03*
X0099575Y0062839D03*
X0109575Y0062839D03*
X0124260Y0075870D03*
X0084890Y0075870D03*
X0104575Y0010437D03*
D17*
X0157567Y0035280D03*
X0167567Y0035280D03*
X0177567Y0035280D03*
X0051583Y0035280D03*
X0041583Y0035280D03*
X0031583Y0035280D03*
D18*
X0022685Y0064807D03*
X0060480Y0064807D03*
X0148669Y0064807D03*
X0186465Y0064807D03*
D19*
X0179378Y0056933D03*
X0137055Y0112051D03*
X0078984Y0085476D03*
M02*
