G75*
%MOIN*%
%OFA0B0*%
%FSLAX25Y25*%
%IPPOS*%
%LPD*%
%AMOC8*
5,1,8,0,0,1.08239X$1,22.5*
%
%ADD10C,0.07400*%
%ADD11C,0.06600*%
%ADD12C,0.06000*%
%ADD13OC8,0.05200*%
%ADD14C,0.07000*%
%ADD15C,0.11811*%
%ADD16C,0.00800*%
%ADD17C,0.02978*%
%ADD18C,0.01600*%
D10*
X0084575Y0096315D03*
X0094575Y0096315D03*
X0104575Y0096315D03*
X0114575Y0096315D03*
X0124575Y0096315D03*
X0124575Y0107315D03*
X0114575Y0107315D03*
X0104575Y0107315D03*
X0094575Y0107315D03*
X0084575Y0107315D03*
D11*
X0087016Y0031500D03*
X0077016Y0031500D03*
X0067016Y0031500D03*
X0067016Y0011500D03*
X0077016Y0011500D03*
X0087016Y0011500D03*
X0122134Y0011500D03*
X0132134Y0011500D03*
X0142134Y0011500D03*
X0142134Y0031500D03*
X0132134Y0031500D03*
X0122134Y0031500D03*
D12*
X0199063Y0036933D03*
X0199063Y0046933D03*
X0199063Y0056933D03*
X0199063Y0068429D03*
X0199063Y0078429D03*
X0199063Y0088429D03*
X0170638Y0106539D03*
X0160638Y0106539D03*
X0150638Y0106539D03*
X0150480Y0116106D03*
X0160480Y0116106D03*
X0170480Y0116106D03*
X0058906Y0116106D03*
X0048906Y0116106D03*
X0038906Y0116106D03*
X0038827Y0106539D03*
X0048827Y0106539D03*
X0058827Y0106539D03*
X0010087Y0088744D03*
X0010087Y0078744D03*
X0010087Y0068744D03*
X0010087Y0057248D03*
X0010087Y0047248D03*
X0010087Y0037248D03*
D13*
X0084890Y0045870D03*
X0104575Y0040437D03*
X0124260Y0045870D03*
X0109575Y0062839D03*
X0099575Y0062839D03*
X0084890Y0075870D03*
X0124260Y0075870D03*
X0104575Y0010437D03*
D14*
X0157567Y0035280D03*
X0167567Y0035280D03*
X0177567Y0035280D03*
X0051583Y0035280D03*
X0041583Y0035280D03*
X0031583Y0035280D03*
D15*
X0022685Y0064807D03*
X0060480Y0064807D03*
X0148669Y0064807D03*
X0186465Y0064807D03*
D16*
X0039614Y0029374D02*
X0034693Y0034295D01*
X0031740Y0034295D01*
X0031583Y0035280D01*
X0030756Y0035280D01*
X0028787Y0037248D01*
X0010087Y0037248D01*
X0039614Y0029374D02*
X0054378Y0029374D01*
X0057331Y0032327D01*
X0057331Y0050043D01*
X0141976Y0050043D01*
X0156740Y0035280D01*
X0157567Y0035280D01*
X0132134Y0032327D02*
X0132134Y0031500D01*
X0132134Y0032327D02*
X0124260Y0040201D01*
X0124260Y0045870D01*
X0109575Y0062839D02*
X0109496Y0062839D01*
X0086858Y0085476D01*
X0078984Y0085476D01*
X0084575Y0096315D02*
X0083906Y0097287D01*
X0083906Y0100240D01*
X0078984Y0105161D01*
X0078984Y0109098D01*
X0088827Y0118941D01*
X0147882Y0118941D01*
X0149850Y0116973D01*
X0150480Y0116106D01*
X0150835Y0115988D01*
X0159693Y0107130D01*
X0160638Y0106539D01*
X0137055Y0112051D02*
X0128197Y0112051D01*
X0127213Y0113036D01*
X0120323Y0113036D01*
X0115402Y0108114D01*
X0114575Y0107315D01*
X0049457Y0106146D02*
X0048827Y0106539D01*
X0048472Y0107130D01*
X0039614Y0115988D01*
X0038906Y0116106D01*
X0038630Y0115988D01*
X0033709Y0111067D01*
X0033709Y0105161D01*
X0010087Y0081539D01*
X0010087Y0078744D01*
X0049457Y0064807D02*
X0049457Y0106146D01*
X0049457Y0064807D02*
X0057331Y0056933D01*
X0057331Y0050043D01*
X0077016Y0032327D02*
X0084890Y0040201D01*
X0084890Y0045870D01*
X0077016Y0032327D02*
X0077016Y0031500D01*
X0077016Y0011658D02*
X0077016Y0011500D01*
X0077016Y0011658D02*
X0086858Y0011658D01*
X0087016Y0011500D01*
X0132134Y0011658D02*
X0132134Y0011500D01*
X0132134Y0011658D02*
X0141976Y0011658D01*
X0142134Y0011500D01*
X0179378Y0056933D02*
X0199063Y0056933D01*
D17*
X0179378Y0056933D03*
X0137055Y0112051D03*
X0078984Y0085476D03*
D18*
X0076031Y0089413D02*
X0059299Y0106146D01*
X0058827Y0106539D01*
X0059299Y0107130D01*
X0059299Y0115988D01*
X0058906Y0116106D01*
X0038827Y0106539D02*
X0038630Y0106146D01*
X0038630Y0085476D01*
X0026327Y0073173D01*
X0025835Y0073665D01*
X0018945Y0073665D01*
X0014024Y0068744D01*
X0010087Y0068744D01*
X0026327Y0073173D02*
X0031740Y0067760D01*
X0031740Y0047091D01*
X0010087Y0047091D01*
X0010087Y0047248D01*
X0031740Y0047091D02*
X0039614Y0047091D01*
X0051425Y0035280D01*
X0051583Y0035280D01*
X0076031Y0089413D02*
X0117370Y0089413D01*
X0124260Y0096303D01*
X0124575Y0096315D01*
X0125244Y0107130D02*
X0124575Y0107315D01*
X0125244Y0107130D02*
X0141976Y0107130D01*
X0148866Y0100240D01*
X0164614Y0100240D01*
X0165106Y0100732D01*
X0165598Y0100240D01*
X0165598Y0037248D01*
X0167567Y0035280D01*
X0167567Y0035280D01*
X0177567Y0035280D02*
X0178394Y0035280D01*
X0186760Y0043646D01*
X0175441Y0054965D01*
X0175441Y0065791D01*
X0198079Y0088429D01*
X0199063Y0088429D01*
X0170520Y0106146D02*
X0170638Y0106539D01*
X0170520Y0107130D01*
X0170520Y0115988D01*
X0170480Y0116106D01*
X0170520Y0106146D02*
X0165106Y0100732D01*
X0150638Y0106539D02*
X0149850Y0107130D01*
X0140992Y0115988D01*
X0102606Y0115988D01*
X0094732Y0108114D01*
X0094575Y0107315D01*
X0186760Y0043646D02*
X0189220Y0046106D01*
X0199063Y0046106D01*
X0199063Y0046933D01*
M02*
