G75*
%MOIN*%
%OFA0B0*%
%FSLAX25Y25*%
%IPPOS*%
%LPD*%
%AMOC8*
5,1,8,0,0,1.08239X$1,22.5*
%
%ADD10C,0.01000*%
%ADD11C,0.00300*%
%ADD12C,0.00800*%
%ADD13C,0.01200*%
%ADD14C,0.00500*%
%ADD15C,0.01300*%
%ADD16C,0.00600*%
D10*
X0097629Y0058870D02*
X0097728Y0058701D01*
X0097832Y0058535D01*
X0097939Y0058371D01*
X0098050Y0058210D01*
X0098165Y0058052D01*
X0098284Y0057897D01*
X0098407Y0057744D01*
X0098533Y0057595D01*
X0098663Y0057449D01*
X0098797Y0057306D01*
X0098934Y0057166D01*
X0099074Y0057030D01*
X0099218Y0056897D01*
X0099365Y0056768D01*
X0099515Y0056642D01*
X0099668Y0056521D01*
X0099824Y0056402D01*
X0099983Y0056288D01*
X0100144Y0056178D01*
X0100309Y0056072D01*
X0100475Y0055969D01*
X0100645Y0055871D01*
X0100816Y0055777D01*
X0100990Y0055687D01*
X0101166Y0055602D01*
X0101344Y0055520D01*
X0101524Y0055444D01*
X0101706Y0055371D01*
X0101889Y0055303D01*
X0102074Y0055240D01*
X0102261Y0055181D01*
X0102449Y0055127D01*
X0102638Y0055077D01*
X0102828Y0055032D01*
X0103020Y0054992D01*
X0103212Y0054956D01*
X0103405Y0054925D01*
X0103599Y0054899D01*
X0103794Y0054877D01*
X0103989Y0054861D01*
X0104184Y0054849D01*
X0104380Y0054841D01*
X0104575Y0054839D01*
X0097516Y0066604D02*
X0097609Y0066772D01*
X0097705Y0066938D01*
X0097805Y0067102D01*
X0097910Y0067263D01*
X0098018Y0067422D01*
X0098130Y0067578D01*
X0098246Y0067732D01*
X0098365Y0067882D01*
X0098488Y0068030D01*
X0098614Y0068175D01*
X0098744Y0068316D01*
X0098877Y0068455D01*
X0099014Y0068590D01*
X0099154Y0068722D01*
X0099296Y0068850D01*
X0099442Y0068975D01*
X0099591Y0069097D01*
X0099743Y0069215D01*
X0099897Y0069329D01*
X0100055Y0069439D01*
X0100214Y0069546D01*
X0100377Y0069649D01*
X0100542Y0069748D01*
X0100709Y0069843D01*
X0100878Y0069933D01*
X0101049Y0070020D01*
X0101223Y0070103D01*
X0101398Y0070181D01*
X0101576Y0070255D01*
X0101755Y0070325D01*
X0101935Y0070391D01*
X0102117Y0070452D01*
X0102301Y0070509D01*
X0102486Y0070561D01*
X0102672Y0070609D01*
X0102859Y0070653D01*
X0103047Y0070692D01*
X0103236Y0070726D01*
X0103426Y0070756D01*
X0103616Y0070781D01*
X0103807Y0070802D01*
X0103999Y0070818D01*
X0104191Y0070830D01*
X0104383Y0070837D01*
X0104575Y0070839D01*
X0110682Y0057671D02*
X0110555Y0057525D01*
X0110426Y0057383D01*
X0110292Y0057243D01*
X0110156Y0057107D01*
X0110016Y0056974D01*
X0109873Y0056844D01*
X0109726Y0056718D01*
X0109577Y0056596D01*
X0109425Y0056477D01*
X0109270Y0056362D01*
X0109113Y0056250D01*
X0108953Y0056143D01*
X0108790Y0056039D01*
X0108624Y0055940D01*
X0108457Y0055844D01*
X0108287Y0055752D01*
X0108115Y0055665D01*
X0107941Y0055581D01*
X0107765Y0055502D01*
X0107587Y0055428D01*
X0107407Y0055357D01*
X0107226Y0055291D01*
X0107043Y0055229D01*
X0106859Y0055172D01*
X0106673Y0055119D01*
X0106486Y0055071D01*
X0106298Y0055027D01*
X0106109Y0054988D01*
X0105919Y0054953D01*
X0105729Y0054923D01*
X0105538Y0054897D01*
X0105346Y0054876D01*
X0105153Y0054860D01*
X0104961Y0054848D01*
X0104768Y0054841D01*
X0104575Y0054839D01*
X0110721Y0067961D02*
X0110594Y0068109D01*
X0110464Y0068254D01*
X0110331Y0068395D01*
X0110194Y0068534D01*
X0110054Y0068669D01*
X0109910Y0068800D01*
X0109763Y0068928D01*
X0109614Y0069053D01*
X0109461Y0069174D01*
X0109306Y0069291D01*
X0109147Y0069404D01*
X0108986Y0069513D01*
X0108822Y0069618D01*
X0108656Y0069720D01*
X0108487Y0069817D01*
X0108317Y0069910D01*
X0108143Y0069999D01*
X0107968Y0070084D01*
X0107791Y0070164D01*
X0107612Y0070240D01*
X0107431Y0070312D01*
X0107248Y0070379D01*
X0107064Y0070442D01*
X0106878Y0070500D01*
X0106691Y0070554D01*
X0106503Y0070603D01*
X0106313Y0070648D01*
X0106123Y0070688D01*
X0105931Y0070723D01*
X0105739Y0070754D01*
X0105546Y0070780D01*
X0105352Y0070801D01*
X0105158Y0070818D01*
X0104964Y0070830D01*
X0104770Y0070837D01*
X0104575Y0070839D01*
X0176361Y0019396D02*
X0176361Y0018728D01*
X0176361Y0017394D02*
X0176361Y0014725D01*
X0175694Y0014725D02*
X0177029Y0014725D01*
X0178763Y0014725D02*
X0180765Y0014725D01*
X0181432Y0015392D01*
X0181432Y0016727D01*
X0180765Y0017394D01*
X0178763Y0017394D01*
X0178763Y0013391D01*
X0176361Y0017394D02*
X0175694Y0017394D01*
X0173859Y0017394D02*
X0173192Y0017394D01*
X0171858Y0016060D01*
X0171858Y0017394D02*
X0171858Y0014725D01*
X0170123Y0014725D02*
X0169456Y0015392D01*
X0169456Y0018061D01*
X0168788Y0017394D02*
X0170123Y0017394D01*
X0166853Y0018061D02*
X0166186Y0018728D01*
X0164852Y0018728D01*
X0164184Y0018061D01*
X0164184Y0017394D01*
X0164852Y0016727D01*
X0166186Y0016727D01*
X0166853Y0016060D01*
X0166853Y0015392D01*
X0166186Y0014725D01*
X0164852Y0014725D01*
X0164184Y0015392D01*
X0157645Y0015392D02*
X0156978Y0014725D01*
X0155644Y0014725D01*
X0154977Y0015392D01*
X0154977Y0018061D01*
X0155644Y0018728D01*
X0156978Y0018728D01*
X0157645Y0018061D01*
X0157645Y0015392D01*
X0153042Y0014725D02*
X0153042Y0018728D01*
X0151707Y0017394D01*
X0150373Y0018728D01*
X0150373Y0014725D01*
D11*
X0151081Y0011848D02*
X0151704Y0011226D01*
X0151704Y0009981D01*
X0152453Y0009981D02*
X0153075Y0009981D01*
X0152764Y0009981D02*
X0152764Y0011848D01*
X0152453Y0011848D01*
X0151704Y0010915D02*
X0150459Y0010915D01*
X0150459Y0011226D02*
X0151081Y0011848D01*
X0150459Y0011226D02*
X0150459Y0009981D01*
X0150770Y0008600D02*
X0150459Y0008289D01*
X0150459Y0007044D01*
X0150770Y0006733D01*
X0151392Y0006733D01*
X0151704Y0007044D01*
X0151392Y0007355D02*
X0151392Y0007978D01*
X0150770Y0007978D01*
X0150770Y0007355D01*
X0151392Y0007355D01*
X0151704Y0007667D01*
X0151704Y0008289D01*
X0151392Y0008600D01*
X0150770Y0008600D01*
X0153782Y0009981D02*
X0154404Y0009981D01*
X0154093Y0009981D02*
X0154093Y0011226D01*
X0153782Y0011226D01*
X0154093Y0011848D02*
X0154093Y0012159D01*
X0157105Y0011848D02*
X0157105Y0009981D01*
X0156752Y0008911D02*
X0156752Y0008600D01*
X0156752Y0007978D02*
X0156752Y0006733D01*
X0157063Y0006733D02*
X0156440Y0006733D01*
X0155691Y0007667D02*
X0155380Y0007355D01*
X0154447Y0007355D01*
X0154447Y0006733D02*
X0154447Y0008600D01*
X0155380Y0008600D01*
X0155691Y0008289D01*
X0155691Y0007667D01*
X0156440Y0007978D02*
X0156752Y0007978D01*
X0157770Y0007978D02*
X0158392Y0007978D01*
X0158081Y0008289D02*
X0158081Y0007044D01*
X0158392Y0006733D01*
X0159410Y0007044D02*
X0159410Y0008289D01*
X0159099Y0007978D02*
X0159721Y0007978D01*
X0160428Y0007667D02*
X0160739Y0007978D01*
X0161673Y0007978D01*
X0161361Y0007355D02*
X0160739Y0007355D01*
X0160428Y0007667D01*
X0160428Y0006733D02*
X0161361Y0006733D01*
X0161673Y0007044D01*
X0161361Y0007355D01*
X0162422Y0006733D02*
X0163355Y0006733D01*
X0163666Y0007044D01*
X0163666Y0007667D01*
X0163355Y0007978D01*
X0162422Y0007978D01*
X0162422Y0008600D02*
X0162422Y0006733D01*
X0164416Y0007044D02*
X0164416Y0007978D01*
X0164416Y0007044D02*
X0164727Y0006733D01*
X0165660Y0006733D01*
X0165660Y0007978D01*
X0166409Y0007978D02*
X0166409Y0006733D01*
X0166409Y0007355D02*
X0167032Y0007978D01*
X0167343Y0007978D01*
X0168071Y0007667D02*
X0168071Y0007044D01*
X0168382Y0006733D01*
X0169316Y0006733D01*
X0169316Y0006422D02*
X0169316Y0007978D01*
X0168382Y0007978D01*
X0168071Y0007667D01*
X0169316Y0006422D02*
X0169004Y0006111D01*
X0168693Y0006111D01*
X0170065Y0006733D02*
X0170065Y0008600D01*
X0170376Y0007978D02*
X0170998Y0007978D01*
X0171309Y0007667D01*
X0171309Y0006733D01*
X0170065Y0007667D02*
X0170376Y0007978D01*
X0170397Y0009981D02*
X0171642Y0011226D01*
X0171642Y0011537D01*
X0171331Y0011848D01*
X0170708Y0011848D01*
X0170397Y0011537D01*
X0172391Y0011537D02*
X0172391Y0010292D01*
X0173636Y0011537D01*
X0173636Y0010292D01*
X0173324Y0009981D01*
X0172702Y0009981D01*
X0172391Y0010292D01*
X0171642Y0009981D02*
X0170397Y0009981D01*
X0167696Y0009981D02*
X0167074Y0009981D01*
X0167385Y0009981D02*
X0167385Y0011226D01*
X0167074Y0011226D01*
X0167385Y0011848D02*
X0167385Y0012159D01*
X0166325Y0010915D02*
X0166325Y0009981D01*
X0166325Y0010915D02*
X0166014Y0011226D01*
X0165080Y0011226D01*
X0165080Y0009981D01*
X0164331Y0010603D02*
X0163086Y0010603D01*
X0163086Y0010292D02*
X0163086Y0010915D01*
X0163398Y0011226D01*
X0164020Y0011226D01*
X0164331Y0010915D01*
X0164331Y0010603D01*
X0164020Y0009981D02*
X0163398Y0009981D01*
X0163086Y0010292D01*
X0162337Y0009981D02*
X0162337Y0010915D01*
X0162026Y0011226D01*
X0161715Y0010915D01*
X0161715Y0009981D01*
X0161093Y0009981D02*
X0161093Y0011226D01*
X0161404Y0011226D01*
X0161715Y0010915D01*
X0160343Y0010915D02*
X0160032Y0011226D01*
X0159410Y0011226D01*
X0159099Y0010915D01*
X0159099Y0010292D01*
X0159410Y0009981D01*
X0160032Y0009981D01*
X0160343Y0010292D01*
X0160343Y0010915D01*
X0158350Y0011848D02*
X0158350Y0009981D01*
X0157727Y0011226D02*
X0158350Y0011848D01*
X0157727Y0011226D02*
X0157105Y0011848D01*
X0159410Y0007044D02*
X0159721Y0006733D01*
X0159679Y0005352D02*
X0158434Y0005352D01*
X0158434Y0004419D01*
X0159056Y0004730D01*
X0159368Y0004730D01*
X0159679Y0004419D01*
X0159679Y0003796D01*
X0159368Y0003485D01*
X0158745Y0003485D01*
X0158434Y0003796D01*
X0157685Y0004419D02*
X0156440Y0004419D01*
X0155691Y0004730D02*
X0155691Y0005041D01*
X0155380Y0005352D01*
X0154758Y0005352D01*
X0154447Y0005041D01*
X0155691Y0004730D02*
X0154447Y0003485D01*
X0155691Y0003485D01*
X0151704Y0004730D02*
X0151081Y0003485D01*
X0150459Y0004730D01*
X0172391Y0011537D02*
X0172702Y0011848D01*
X0173324Y0011848D01*
X0173636Y0011537D01*
X0174385Y0011226D02*
X0175007Y0011848D01*
X0175007Y0009981D01*
X0174385Y0009981D02*
X0175629Y0009981D01*
X0176379Y0009981D02*
X0176379Y0010292D01*
X0177623Y0011537D01*
X0177623Y0011848D01*
X0176379Y0011848D01*
X0120098Y0062223D02*
X0118863Y0060989D01*
X0120098Y0062223D02*
X0120098Y0063457D01*
X0118863Y0064692D01*
X0117649Y0062840D02*
X0115180Y0062840D01*
X0113959Y0060989D02*
X0112725Y0062223D01*
X0112725Y0063457D01*
X0113959Y0064692D01*
X0096598Y0063957D02*
X0096598Y0062723D01*
X0095363Y0061489D01*
X0092915Y0062106D02*
X0092915Y0064575D01*
X0094149Y0063340D02*
X0091680Y0063340D01*
X0090459Y0061489D02*
X0089225Y0062723D01*
X0089225Y0063957D01*
X0090459Y0065192D01*
X0095363Y0065192D02*
X0096598Y0063957D01*
D12*
X0059181Y0086707D02*
X0056379Y0086707D01*
X0057780Y0086707D02*
X0057780Y0090911D01*
X0056379Y0089510D01*
X0054577Y0089510D02*
X0053877Y0088809D01*
X0051775Y0088809D01*
X0053877Y0088809D02*
X0054577Y0088108D01*
X0054577Y0087408D01*
X0053877Y0086707D01*
X0051775Y0086707D01*
X0051775Y0090911D01*
X0053877Y0090911D01*
X0054577Y0090210D01*
X0054577Y0089510D01*
X0049973Y0090210D02*
X0049973Y0087408D01*
X0049273Y0086707D01*
X0047871Y0086707D01*
X0047171Y0087408D01*
X0047171Y0090210D01*
X0047871Y0090911D01*
X0049273Y0090911D01*
X0049973Y0090210D01*
X0045369Y0090911D02*
X0045369Y0086707D01*
X0042567Y0090911D01*
X0042567Y0086707D01*
X0040765Y0086707D02*
X0038664Y0088809D01*
X0037963Y0088108D02*
X0040765Y0090911D01*
X0037963Y0090911D02*
X0037963Y0086707D01*
X0122075Y0090740D02*
X0127075Y0090740D01*
X0148947Y0090411D02*
X0148947Y0086207D01*
X0148947Y0087608D02*
X0151750Y0090411D01*
X0153551Y0090411D02*
X0156354Y0086207D01*
X0156354Y0090411D01*
X0158155Y0089710D02*
X0158155Y0086908D01*
X0158856Y0086207D01*
X0160257Y0086207D01*
X0160957Y0086908D01*
X0160957Y0089710D01*
X0160257Y0090411D01*
X0158856Y0090411D01*
X0158155Y0089710D01*
X0153551Y0090411D02*
X0153551Y0086207D01*
X0151750Y0086207D02*
X0149648Y0088309D01*
X0162759Y0088309D02*
X0164861Y0088309D01*
X0165561Y0087608D01*
X0165561Y0086908D01*
X0164861Y0086207D01*
X0162759Y0086207D01*
X0162759Y0090411D01*
X0164861Y0090411D01*
X0165561Y0089710D01*
X0165561Y0089010D01*
X0164861Y0088309D01*
X0167363Y0089710D02*
X0168064Y0090411D01*
X0169465Y0090411D01*
X0170165Y0089710D01*
X0170165Y0089010D01*
X0167363Y0086207D01*
X0170165Y0086207D01*
X0127134Y0021500D02*
X0127136Y0021641D01*
X0127142Y0021782D01*
X0127152Y0021922D01*
X0127166Y0022062D01*
X0127184Y0022202D01*
X0127205Y0022341D01*
X0127231Y0022480D01*
X0127260Y0022618D01*
X0127294Y0022754D01*
X0127331Y0022890D01*
X0127372Y0023025D01*
X0127417Y0023159D01*
X0127466Y0023291D01*
X0127518Y0023422D01*
X0127574Y0023551D01*
X0127634Y0023678D01*
X0127697Y0023804D01*
X0127763Y0023928D01*
X0127834Y0024051D01*
X0127907Y0024171D01*
X0127984Y0024289D01*
X0128064Y0024405D01*
X0128148Y0024518D01*
X0128234Y0024629D01*
X0128324Y0024738D01*
X0128417Y0024844D01*
X0128512Y0024947D01*
X0128611Y0025048D01*
X0128712Y0025146D01*
X0128816Y0025241D01*
X0128923Y0025333D01*
X0129032Y0025422D01*
X0129144Y0025507D01*
X0129258Y0025590D01*
X0129374Y0025670D01*
X0129493Y0025746D01*
X0129614Y0025818D01*
X0129736Y0025888D01*
X0129861Y0025953D01*
X0129987Y0026016D01*
X0130115Y0026074D01*
X0130245Y0026129D01*
X0130376Y0026181D01*
X0130509Y0026228D01*
X0130643Y0026272D01*
X0130778Y0026313D01*
X0130914Y0026349D01*
X0131051Y0026381D01*
X0131189Y0026410D01*
X0131327Y0026435D01*
X0131467Y0026455D01*
X0131607Y0026472D01*
X0131747Y0026485D01*
X0131888Y0026494D01*
X0132028Y0026499D01*
X0132169Y0026500D01*
X0132310Y0026497D01*
X0132451Y0026490D01*
X0132591Y0026479D01*
X0132731Y0026464D01*
X0132871Y0026445D01*
X0133010Y0026423D01*
X0133148Y0026396D01*
X0133286Y0026366D01*
X0133422Y0026331D01*
X0133558Y0026293D01*
X0133692Y0026251D01*
X0133826Y0026205D01*
X0133958Y0026156D01*
X0134088Y0026102D01*
X0134217Y0026045D01*
X0134344Y0025985D01*
X0134470Y0025921D01*
X0134593Y0025853D01*
X0134715Y0025782D01*
X0134835Y0025708D01*
X0134952Y0025630D01*
X0135067Y0025549D01*
X0135180Y0025465D01*
X0135291Y0025378D01*
X0135399Y0025287D01*
X0135504Y0025194D01*
X0135607Y0025097D01*
X0135707Y0024998D01*
X0135804Y0024896D01*
X0135898Y0024791D01*
X0135989Y0024684D01*
X0136077Y0024574D01*
X0136162Y0024462D01*
X0136244Y0024347D01*
X0136323Y0024230D01*
X0136398Y0024111D01*
X0136470Y0023990D01*
X0136538Y0023867D01*
X0136603Y0023742D01*
X0136665Y0023615D01*
X0136722Y0023486D01*
X0136777Y0023356D01*
X0136827Y0023225D01*
X0136874Y0023092D01*
X0136917Y0022958D01*
X0136956Y0022822D01*
X0136991Y0022686D01*
X0137023Y0022549D01*
X0137050Y0022411D01*
X0137074Y0022272D01*
X0137094Y0022132D01*
X0137110Y0021992D01*
X0137122Y0021852D01*
X0137130Y0021711D01*
X0137134Y0021570D01*
X0137134Y0021430D01*
X0137130Y0021289D01*
X0137122Y0021148D01*
X0137110Y0021008D01*
X0137094Y0020868D01*
X0137074Y0020728D01*
X0137050Y0020589D01*
X0137023Y0020451D01*
X0136991Y0020314D01*
X0136956Y0020178D01*
X0136917Y0020042D01*
X0136874Y0019908D01*
X0136827Y0019775D01*
X0136777Y0019644D01*
X0136722Y0019514D01*
X0136665Y0019385D01*
X0136603Y0019258D01*
X0136538Y0019133D01*
X0136470Y0019010D01*
X0136398Y0018889D01*
X0136323Y0018770D01*
X0136244Y0018653D01*
X0136162Y0018538D01*
X0136077Y0018426D01*
X0135989Y0018316D01*
X0135898Y0018209D01*
X0135804Y0018104D01*
X0135707Y0018002D01*
X0135607Y0017903D01*
X0135504Y0017806D01*
X0135399Y0017713D01*
X0135291Y0017622D01*
X0135180Y0017535D01*
X0135067Y0017451D01*
X0134952Y0017370D01*
X0134835Y0017292D01*
X0134715Y0017218D01*
X0134593Y0017147D01*
X0134470Y0017079D01*
X0134344Y0017015D01*
X0134217Y0016955D01*
X0134088Y0016898D01*
X0133958Y0016844D01*
X0133826Y0016795D01*
X0133692Y0016749D01*
X0133558Y0016707D01*
X0133422Y0016669D01*
X0133286Y0016634D01*
X0133148Y0016604D01*
X0133010Y0016577D01*
X0132871Y0016555D01*
X0132731Y0016536D01*
X0132591Y0016521D01*
X0132451Y0016510D01*
X0132310Y0016503D01*
X0132169Y0016500D01*
X0132028Y0016501D01*
X0131888Y0016506D01*
X0131747Y0016515D01*
X0131607Y0016528D01*
X0131467Y0016545D01*
X0131327Y0016565D01*
X0131189Y0016590D01*
X0131051Y0016619D01*
X0130914Y0016651D01*
X0130778Y0016687D01*
X0130643Y0016728D01*
X0130509Y0016772D01*
X0130376Y0016819D01*
X0130245Y0016871D01*
X0130115Y0016926D01*
X0129987Y0016984D01*
X0129861Y0017047D01*
X0129736Y0017112D01*
X0129614Y0017182D01*
X0129493Y0017254D01*
X0129374Y0017330D01*
X0129258Y0017410D01*
X0129144Y0017493D01*
X0129032Y0017578D01*
X0128923Y0017667D01*
X0128816Y0017759D01*
X0128712Y0017854D01*
X0128611Y0017952D01*
X0128512Y0018053D01*
X0128417Y0018156D01*
X0128324Y0018262D01*
X0128234Y0018371D01*
X0128148Y0018482D01*
X0128064Y0018595D01*
X0127984Y0018711D01*
X0127907Y0018829D01*
X0127834Y0018949D01*
X0127763Y0019072D01*
X0127697Y0019196D01*
X0127634Y0019322D01*
X0127574Y0019449D01*
X0127518Y0019578D01*
X0127466Y0019709D01*
X0127417Y0019841D01*
X0127372Y0019975D01*
X0127331Y0020110D01*
X0127294Y0020246D01*
X0127260Y0020382D01*
X0127231Y0020520D01*
X0127205Y0020659D01*
X0127184Y0020798D01*
X0127166Y0020938D01*
X0127152Y0021078D01*
X0127142Y0021218D01*
X0127136Y0021359D01*
X0127134Y0021500D01*
X0072016Y0021500D02*
X0072018Y0021641D01*
X0072024Y0021782D01*
X0072034Y0021922D01*
X0072048Y0022062D01*
X0072066Y0022202D01*
X0072087Y0022341D01*
X0072113Y0022480D01*
X0072142Y0022618D01*
X0072176Y0022754D01*
X0072213Y0022890D01*
X0072254Y0023025D01*
X0072299Y0023159D01*
X0072348Y0023291D01*
X0072400Y0023422D01*
X0072456Y0023551D01*
X0072516Y0023678D01*
X0072579Y0023804D01*
X0072645Y0023928D01*
X0072716Y0024051D01*
X0072789Y0024171D01*
X0072866Y0024289D01*
X0072946Y0024405D01*
X0073030Y0024518D01*
X0073116Y0024629D01*
X0073206Y0024738D01*
X0073299Y0024844D01*
X0073394Y0024947D01*
X0073493Y0025048D01*
X0073594Y0025146D01*
X0073698Y0025241D01*
X0073805Y0025333D01*
X0073914Y0025422D01*
X0074026Y0025507D01*
X0074140Y0025590D01*
X0074256Y0025670D01*
X0074375Y0025746D01*
X0074496Y0025818D01*
X0074618Y0025888D01*
X0074743Y0025953D01*
X0074869Y0026016D01*
X0074997Y0026074D01*
X0075127Y0026129D01*
X0075258Y0026181D01*
X0075391Y0026228D01*
X0075525Y0026272D01*
X0075660Y0026313D01*
X0075796Y0026349D01*
X0075933Y0026381D01*
X0076071Y0026410D01*
X0076209Y0026435D01*
X0076349Y0026455D01*
X0076489Y0026472D01*
X0076629Y0026485D01*
X0076770Y0026494D01*
X0076910Y0026499D01*
X0077051Y0026500D01*
X0077192Y0026497D01*
X0077333Y0026490D01*
X0077473Y0026479D01*
X0077613Y0026464D01*
X0077753Y0026445D01*
X0077892Y0026423D01*
X0078030Y0026396D01*
X0078168Y0026366D01*
X0078304Y0026331D01*
X0078440Y0026293D01*
X0078574Y0026251D01*
X0078708Y0026205D01*
X0078840Y0026156D01*
X0078970Y0026102D01*
X0079099Y0026045D01*
X0079226Y0025985D01*
X0079352Y0025921D01*
X0079475Y0025853D01*
X0079597Y0025782D01*
X0079717Y0025708D01*
X0079834Y0025630D01*
X0079949Y0025549D01*
X0080062Y0025465D01*
X0080173Y0025378D01*
X0080281Y0025287D01*
X0080386Y0025194D01*
X0080489Y0025097D01*
X0080589Y0024998D01*
X0080686Y0024896D01*
X0080780Y0024791D01*
X0080871Y0024684D01*
X0080959Y0024574D01*
X0081044Y0024462D01*
X0081126Y0024347D01*
X0081205Y0024230D01*
X0081280Y0024111D01*
X0081352Y0023990D01*
X0081420Y0023867D01*
X0081485Y0023742D01*
X0081547Y0023615D01*
X0081604Y0023486D01*
X0081659Y0023356D01*
X0081709Y0023225D01*
X0081756Y0023092D01*
X0081799Y0022958D01*
X0081838Y0022822D01*
X0081873Y0022686D01*
X0081905Y0022549D01*
X0081932Y0022411D01*
X0081956Y0022272D01*
X0081976Y0022132D01*
X0081992Y0021992D01*
X0082004Y0021852D01*
X0082012Y0021711D01*
X0082016Y0021570D01*
X0082016Y0021430D01*
X0082012Y0021289D01*
X0082004Y0021148D01*
X0081992Y0021008D01*
X0081976Y0020868D01*
X0081956Y0020728D01*
X0081932Y0020589D01*
X0081905Y0020451D01*
X0081873Y0020314D01*
X0081838Y0020178D01*
X0081799Y0020042D01*
X0081756Y0019908D01*
X0081709Y0019775D01*
X0081659Y0019644D01*
X0081604Y0019514D01*
X0081547Y0019385D01*
X0081485Y0019258D01*
X0081420Y0019133D01*
X0081352Y0019010D01*
X0081280Y0018889D01*
X0081205Y0018770D01*
X0081126Y0018653D01*
X0081044Y0018538D01*
X0080959Y0018426D01*
X0080871Y0018316D01*
X0080780Y0018209D01*
X0080686Y0018104D01*
X0080589Y0018002D01*
X0080489Y0017903D01*
X0080386Y0017806D01*
X0080281Y0017713D01*
X0080173Y0017622D01*
X0080062Y0017535D01*
X0079949Y0017451D01*
X0079834Y0017370D01*
X0079717Y0017292D01*
X0079597Y0017218D01*
X0079475Y0017147D01*
X0079352Y0017079D01*
X0079226Y0017015D01*
X0079099Y0016955D01*
X0078970Y0016898D01*
X0078840Y0016844D01*
X0078708Y0016795D01*
X0078574Y0016749D01*
X0078440Y0016707D01*
X0078304Y0016669D01*
X0078168Y0016634D01*
X0078030Y0016604D01*
X0077892Y0016577D01*
X0077753Y0016555D01*
X0077613Y0016536D01*
X0077473Y0016521D01*
X0077333Y0016510D01*
X0077192Y0016503D01*
X0077051Y0016500D01*
X0076910Y0016501D01*
X0076770Y0016506D01*
X0076629Y0016515D01*
X0076489Y0016528D01*
X0076349Y0016545D01*
X0076209Y0016565D01*
X0076071Y0016590D01*
X0075933Y0016619D01*
X0075796Y0016651D01*
X0075660Y0016687D01*
X0075525Y0016728D01*
X0075391Y0016772D01*
X0075258Y0016819D01*
X0075127Y0016871D01*
X0074997Y0016926D01*
X0074869Y0016984D01*
X0074743Y0017047D01*
X0074618Y0017112D01*
X0074496Y0017182D01*
X0074375Y0017254D01*
X0074256Y0017330D01*
X0074140Y0017410D01*
X0074026Y0017493D01*
X0073914Y0017578D01*
X0073805Y0017667D01*
X0073698Y0017759D01*
X0073594Y0017854D01*
X0073493Y0017952D01*
X0073394Y0018053D01*
X0073299Y0018156D01*
X0073206Y0018262D01*
X0073116Y0018371D01*
X0073030Y0018482D01*
X0072946Y0018595D01*
X0072866Y0018711D01*
X0072789Y0018829D01*
X0072716Y0018949D01*
X0072645Y0019072D01*
X0072579Y0019196D01*
X0072516Y0019322D01*
X0072456Y0019449D01*
X0072400Y0019578D01*
X0072348Y0019709D01*
X0072299Y0019841D01*
X0072254Y0019975D01*
X0072213Y0020110D01*
X0072176Y0020246D01*
X0072142Y0020382D01*
X0072113Y0020520D01*
X0072087Y0020659D01*
X0072066Y0020798D01*
X0072048Y0020938D01*
X0072034Y0021078D01*
X0072024Y0021218D01*
X0072018Y0021359D01*
X0072016Y0021500D01*
D13*
X0074516Y0019000D02*
X0077016Y0019000D01*
X0079516Y0019000D01*
X0077016Y0019000D02*
X0079516Y0024000D01*
X0074516Y0024000D01*
X0077016Y0019000D01*
X0129634Y0019000D02*
X0132134Y0019000D01*
X0134634Y0019000D01*
X0132134Y0019000D02*
X0134634Y0024000D01*
X0129634Y0024000D01*
X0132134Y0019000D01*
D14*
X0141634Y0016500D02*
X0141636Y0016544D01*
X0141642Y0016588D01*
X0141652Y0016631D01*
X0141665Y0016673D01*
X0141682Y0016714D01*
X0141703Y0016753D01*
X0141727Y0016790D01*
X0141754Y0016825D01*
X0141784Y0016857D01*
X0141817Y0016887D01*
X0141853Y0016913D01*
X0141890Y0016937D01*
X0141930Y0016956D01*
X0141971Y0016973D01*
X0142014Y0016985D01*
X0142057Y0016994D01*
X0142101Y0016999D01*
X0142145Y0017000D01*
X0142189Y0016997D01*
X0142233Y0016990D01*
X0142276Y0016979D01*
X0142318Y0016965D01*
X0142358Y0016947D01*
X0142397Y0016925D01*
X0142433Y0016901D01*
X0142467Y0016873D01*
X0142499Y0016842D01*
X0142528Y0016808D01*
X0142554Y0016772D01*
X0142576Y0016734D01*
X0142595Y0016694D01*
X0142610Y0016652D01*
X0142622Y0016610D01*
X0142630Y0016566D01*
X0142634Y0016522D01*
X0142634Y0016478D01*
X0142630Y0016434D01*
X0142622Y0016390D01*
X0142610Y0016348D01*
X0142595Y0016306D01*
X0142576Y0016266D01*
X0142554Y0016228D01*
X0142528Y0016192D01*
X0142499Y0016158D01*
X0142467Y0016127D01*
X0142433Y0016099D01*
X0142397Y0016075D01*
X0142358Y0016053D01*
X0142318Y0016035D01*
X0142276Y0016021D01*
X0142233Y0016010D01*
X0142189Y0016003D01*
X0142145Y0016000D01*
X0142101Y0016001D01*
X0142057Y0016006D01*
X0142014Y0016015D01*
X0141971Y0016027D01*
X0141930Y0016044D01*
X0141890Y0016063D01*
X0141853Y0016087D01*
X0141817Y0016113D01*
X0141784Y0016143D01*
X0141754Y0016175D01*
X0141727Y0016210D01*
X0141703Y0016247D01*
X0141682Y0016286D01*
X0141665Y0016327D01*
X0141652Y0016369D01*
X0141642Y0016412D01*
X0141636Y0016456D01*
X0141634Y0016500D01*
X0142134Y0016500D02*
X0142134Y0026500D01*
X0141634Y0026500D02*
X0141636Y0026544D01*
X0141642Y0026588D01*
X0141652Y0026631D01*
X0141665Y0026673D01*
X0141682Y0026714D01*
X0141703Y0026753D01*
X0141727Y0026790D01*
X0141754Y0026825D01*
X0141784Y0026857D01*
X0141817Y0026887D01*
X0141853Y0026913D01*
X0141890Y0026937D01*
X0141930Y0026956D01*
X0141971Y0026973D01*
X0142014Y0026985D01*
X0142057Y0026994D01*
X0142101Y0026999D01*
X0142145Y0027000D01*
X0142189Y0026997D01*
X0142233Y0026990D01*
X0142276Y0026979D01*
X0142318Y0026965D01*
X0142358Y0026947D01*
X0142397Y0026925D01*
X0142433Y0026901D01*
X0142467Y0026873D01*
X0142499Y0026842D01*
X0142528Y0026808D01*
X0142554Y0026772D01*
X0142576Y0026734D01*
X0142595Y0026694D01*
X0142610Y0026652D01*
X0142622Y0026610D01*
X0142630Y0026566D01*
X0142634Y0026522D01*
X0142634Y0026478D01*
X0142630Y0026434D01*
X0142622Y0026390D01*
X0142610Y0026348D01*
X0142595Y0026306D01*
X0142576Y0026266D01*
X0142554Y0026228D01*
X0142528Y0026192D01*
X0142499Y0026158D01*
X0142467Y0026127D01*
X0142433Y0026099D01*
X0142397Y0026075D01*
X0142358Y0026053D01*
X0142318Y0026035D01*
X0142276Y0026021D01*
X0142233Y0026010D01*
X0142189Y0026003D01*
X0142145Y0026000D01*
X0142101Y0026001D01*
X0142057Y0026006D01*
X0142014Y0026015D01*
X0141971Y0026027D01*
X0141930Y0026044D01*
X0141890Y0026063D01*
X0141853Y0026087D01*
X0141817Y0026113D01*
X0141784Y0026143D01*
X0141754Y0026175D01*
X0141727Y0026210D01*
X0141703Y0026247D01*
X0141682Y0026286D01*
X0141665Y0026327D01*
X0141652Y0026369D01*
X0141642Y0026412D01*
X0141636Y0026456D01*
X0141634Y0026500D01*
X0137134Y0036500D02*
X0147134Y0036500D01*
X0147134Y0006500D01*
X0117134Y0006500D01*
X0117134Y0036500D01*
X0127134Y0036500D01*
X0137134Y0041500D01*
X0148817Y0040307D02*
X0148817Y0054807D01*
X0159567Y0064807D02*
X0159569Y0065003D01*
X0159577Y0065200D01*
X0159589Y0065396D01*
X0159606Y0065591D01*
X0159627Y0065786D01*
X0159654Y0065981D01*
X0159685Y0066175D01*
X0159721Y0066368D01*
X0159761Y0066560D01*
X0159807Y0066751D01*
X0159857Y0066941D01*
X0159911Y0067129D01*
X0159971Y0067316D01*
X0160035Y0067502D01*
X0160103Y0067686D01*
X0160176Y0067868D01*
X0160253Y0068049D01*
X0160335Y0068227D01*
X0160421Y0068404D01*
X0160512Y0068578D01*
X0160606Y0068750D01*
X0160705Y0068920D01*
X0160808Y0069087D01*
X0160915Y0069252D01*
X0161026Y0069413D01*
X0161141Y0069573D01*
X0161260Y0069729D01*
X0161383Y0069882D01*
X0161509Y0070032D01*
X0161639Y0070179D01*
X0161773Y0070323D01*
X0161910Y0070464D01*
X0162051Y0070601D01*
X0162195Y0070735D01*
X0162342Y0070865D01*
X0162492Y0070991D01*
X0162645Y0071114D01*
X0162801Y0071233D01*
X0162961Y0071348D01*
X0163122Y0071459D01*
X0163287Y0071566D01*
X0163454Y0071669D01*
X0163624Y0071768D01*
X0163796Y0071862D01*
X0163970Y0071953D01*
X0164147Y0072039D01*
X0164325Y0072121D01*
X0164506Y0072198D01*
X0164688Y0072271D01*
X0164872Y0072339D01*
X0165058Y0072403D01*
X0165245Y0072463D01*
X0165433Y0072517D01*
X0165623Y0072567D01*
X0165814Y0072613D01*
X0166006Y0072653D01*
X0166199Y0072689D01*
X0166393Y0072720D01*
X0166588Y0072747D01*
X0166783Y0072768D01*
X0166978Y0072785D01*
X0167174Y0072797D01*
X0167371Y0072805D01*
X0167567Y0072807D01*
X0167763Y0072805D01*
X0167960Y0072797D01*
X0168156Y0072785D01*
X0168351Y0072768D01*
X0168546Y0072747D01*
X0168741Y0072720D01*
X0168935Y0072689D01*
X0169128Y0072653D01*
X0169320Y0072613D01*
X0169511Y0072567D01*
X0169701Y0072517D01*
X0169889Y0072463D01*
X0170076Y0072403D01*
X0170262Y0072339D01*
X0170446Y0072271D01*
X0170628Y0072198D01*
X0170809Y0072121D01*
X0170987Y0072039D01*
X0171164Y0071953D01*
X0171338Y0071862D01*
X0171510Y0071768D01*
X0171680Y0071669D01*
X0171847Y0071566D01*
X0172012Y0071459D01*
X0172173Y0071348D01*
X0172333Y0071233D01*
X0172489Y0071114D01*
X0172642Y0070991D01*
X0172792Y0070865D01*
X0172939Y0070735D01*
X0173083Y0070601D01*
X0173224Y0070464D01*
X0173361Y0070323D01*
X0173495Y0070179D01*
X0173625Y0070032D01*
X0173751Y0069882D01*
X0173874Y0069729D01*
X0173993Y0069573D01*
X0174108Y0069413D01*
X0174219Y0069252D01*
X0174326Y0069087D01*
X0174429Y0068920D01*
X0174528Y0068750D01*
X0174622Y0068578D01*
X0174713Y0068404D01*
X0174799Y0068227D01*
X0174881Y0068049D01*
X0174958Y0067868D01*
X0175031Y0067686D01*
X0175099Y0067502D01*
X0175163Y0067316D01*
X0175223Y0067129D01*
X0175277Y0066941D01*
X0175327Y0066751D01*
X0175373Y0066560D01*
X0175413Y0066368D01*
X0175449Y0066175D01*
X0175480Y0065981D01*
X0175507Y0065786D01*
X0175528Y0065591D01*
X0175545Y0065396D01*
X0175557Y0065200D01*
X0175565Y0065003D01*
X0175567Y0064807D01*
X0175565Y0064611D01*
X0175557Y0064414D01*
X0175545Y0064218D01*
X0175528Y0064023D01*
X0175507Y0063828D01*
X0175480Y0063633D01*
X0175449Y0063439D01*
X0175413Y0063246D01*
X0175373Y0063054D01*
X0175327Y0062863D01*
X0175277Y0062673D01*
X0175223Y0062485D01*
X0175163Y0062298D01*
X0175099Y0062112D01*
X0175031Y0061928D01*
X0174958Y0061746D01*
X0174881Y0061565D01*
X0174799Y0061387D01*
X0174713Y0061210D01*
X0174622Y0061036D01*
X0174528Y0060864D01*
X0174429Y0060694D01*
X0174326Y0060527D01*
X0174219Y0060362D01*
X0174108Y0060201D01*
X0173993Y0060041D01*
X0173874Y0059885D01*
X0173751Y0059732D01*
X0173625Y0059582D01*
X0173495Y0059435D01*
X0173361Y0059291D01*
X0173224Y0059150D01*
X0173083Y0059013D01*
X0172939Y0058879D01*
X0172792Y0058749D01*
X0172642Y0058623D01*
X0172489Y0058500D01*
X0172333Y0058381D01*
X0172173Y0058266D01*
X0172012Y0058155D01*
X0171847Y0058048D01*
X0171680Y0057945D01*
X0171510Y0057846D01*
X0171338Y0057752D01*
X0171164Y0057661D01*
X0170987Y0057575D01*
X0170809Y0057493D01*
X0170628Y0057416D01*
X0170446Y0057343D01*
X0170262Y0057275D01*
X0170076Y0057211D01*
X0169889Y0057151D01*
X0169701Y0057097D01*
X0169511Y0057047D01*
X0169320Y0057001D01*
X0169128Y0056961D01*
X0168935Y0056925D01*
X0168741Y0056894D01*
X0168546Y0056867D01*
X0168351Y0056846D01*
X0168156Y0056829D01*
X0167960Y0056817D01*
X0167763Y0056809D01*
X0167567Y0056807D01*
X0167371Y0056809D01*
X0167174Y0056817D01*
X0166978Y0056829D01*
X0166783Y0056846D01*
X0166588Y0056867D01*
X0166393Y0056894D01*
X0166199Y0056925D01*
X0166006Y0056961D01*
X0165814Y0057001D01*
X0165623Y0057047D01*
X0165433Y0057097D01*
X0165245Y0057151D01*
X0165058Y0057211D01*
X0164872Y0057275D01*
X0164688Y0057343D01*
X0164506Y0057416D01*
X0164325Y0057493D01*
X0164147Y0057575D01*
X0163970Y0057661D01*
X0163796Y0057752D01*
X0163624Y0057846D01*
X0163454Y0057945D01*
X0163287Y0058048D01*
X0163122Y0058155D01*
X0162961Y0058266D01*
X0162801Y0058381D01*
X0162645Y0058500D01*
X0162492Y0058623D01*
X0162342Y0058749D01*
X0162195Y0058879D01*
X0162051Y0059013D01*
X0161910Y0059150D01*
X0161773Y0059291D01*
X0161639Y0059435D01*
X0161509Y0059582D01*
X0161383Y0059732D01*
X0161260Y0059885D01*
X0161141Y0060041D01*
X0161026Y0060201D01*
X0160915Y0060362D01*
X0160808Y0060527D01*
X0160705Y0060694D01*
X0160606Y0060864D01*
X0160512Y0061036D01*
X0160421Y0061210D01*
X0160335Y0061387D01*
X0160253Y0061565D01*
X0160176Y0061746D01*
X0160103Y0061928D01*
X0160035Y0062112D01*
X0159971Y0062298D01*
X0159911Y0062485D01*
X0159857Y0062673D01*
X0159807Y0062863D01*
X0159761Y0063054D01*
X0159721Y0063246D01*
X0159685Y0063439D01*
X0159654Y0063633D01*
X0159627Y0063828D01*
X0159606Y0064023D01*
X0159589Y0064218D01*
X0159577Y0064414D01*
X0159569Y0064611D01*
X0159567Y0064807D01*
X0148817Y0074807D02*
X0148817Y0083557D01*
X0148817Y0083807D02*
X0186317Y0083807D01*
X0186317Y0083557D02*
X0186317Y0074807D01*
X0186317Y0054807D02*
X0186317Y0040307D01*
X0148817Y0040307D01*
X0121634Y0026500D02*
X0121636Y0026544D01*
X0121642Y0026588D01*
X0121652Y0026631D01*
X0121665Y0026673D01*
X0121682Y0026714D01*
X0121703Y0026753D01*
X0121727Y0026790D01*
X0121754Y0026825D01*
X0121784Y0026857D01*
X0121817Y0026887D01*
X0121853Y0026913D01*
X0121890Y0026937D01*
X0121930Y0026956D01*
X0121971Y0026973D01*
X0122014Y0026985D01*
X0122057Y0026994D01*
X0122101Y0026999D01*
X0122145Y0027000D01*
X0122189Y0026997D01*
X0122233Y0026990D01*
X0122276Y0026979D01*
X0122318Y0026965D01*
X0122358Y0026947D01*
X0122397Y0026925D01*
X0122433Y0026901D01*
X0122467Y0026873D01*
X0122499Y0026842D01*
X0122528Y0026808D01*
X0122554Y0026772D01*
X0122576Y0026734D01*
X0122595Y0026694D01*
X0122610Y0026652D01*
X0122622Y0026610D01*
X0122630Y0026566D01*
X0122634Y0026522D01*
X0122634Y0026478D01*
X0122630Y0026434D01*
X0122622Y0026390D01*
X0122610Y0026348D01*
X0122595Y0026306D01*
X0122576Y0026266D01*
X0122554Y0026228D01*
X0122528Y0026192D01*
X0122499Y0026158D01*
X0122467Y0026127D01*
X0122433Y0026099D01*
X0122397Y0026075D01*
X0122358Y0026053D01*
X0122318Y0026035D01*
X0122276Y0026021D01*
X0122233Y0026010D01*
X0122189Y0026003D01*
X0122145Y0026000D01*
X0122101Y0026001D01*
X0122057Y0026006D01*
X0122014Y0026015D01*
X0121971Y0026027D01*
X0121930Y0026044D01*
X0121890Y0026063D01*
X0121853Y0026087D01*
X0121817Y0026113D01*
X0121784Y0026143D01*
X0121754Y0026175D01*
X0121727Y0026210D01*
X0121703Y0026247D01*
X0121682Y0026286D01*
X0121665Y0026327D01*
X0121652Y0026369D01*
X0121642Y0026412D01*
X0121636Y0026456D01*
X0121634Y0026500D01*
X0122134Y0026500D02*
X0122134Y0016500D01*
X0121634Y0016500D02*
X0121636Y0016544D01*
X0121642Y0016588D01*
X0121652Y0016631D01*
X0121665Y0016673D01*
X0121682Y0016714D01*
X0121703Y0016753D01*
X0121727Y0016790D01*
X0121754Y0016825D01*
X0121784Y0016857D01*
X0121817Y0016887D01*
X0121853Y0016913D01*
X0121890Y0016937D01*
X0121930Y0016956D01*
X0121971Y0016973D01*
X0122014Y0016985D01*
X0122057Y0016994D01*
X0122101Y0016999D01*
X0122145Y0017000D01*
X0122189Y0016997D01*
X0122233Y0016990D01*
X0122276Y0016979D01*
X0122318Y0016965D01*
X0122358Y0016947D01*
X0122397Y0016925D01*
X0122433Y0016901D01*
X0122467Y0016873D01*
X0122499Y0016842D01*
X0122528Y0016808D01*
X0122554Y0016772D01*
X0122576Y0016734D01*
X0122595Y0016694D01*
X0122610Y0016652D01*
X0122622Y0016610D01*
X0122630Y0016566D01*
X0122634Y0016522D01*
X0122634Y0016478D01*
X0122630Y0016434D01*
X0122622Y0016390D01*
X0122610Y0016348D01*
X0122595Y0016306D01*
X0122576Y0016266D01*
X0122554Y0016228D01*
X0122528Y0016192D01*
X0122499Y0016158D01*
X0122467Y0016127D01*
X0122433Y0016099D01*
X0122397Y0016075D01*
X0122358Y0016053D01*
X0122318Y0016035D01*
X0122276Y0016021D01*
X0122233Y0016010D01*
X0122189Y0016003D01*
X0122145Y0016000D01*
X0122101Y0016001D01*
X0122057Y0016006D01*
X0122014Y0016015D01*
X0121971Y0016027D01*
X0121930Y0016044D01*
X0121890Y0016063D01*
X0121853Y0016087D01*
X0121817Y0016113D01*
X0121784Y0016143D01*
X0121754Y0016175D01*
X0121727Y0016210D01*
X0121703Y0016247D01*
X0121682Y0016286D01*
X0121665Y0016327D01*
X0121652Y0016369D01*
X0121642Y0016412D01*
X0121636Y0016456D01*
X0121634Y0016500D01*
X0092016Y0006500D02*
X0092016Y0036500D01*
X0082016Y0036500D01*
X0082016Y0041500D02*
X0072016Y0036500D01*
X0062016Y0036500D01*
X0062016Y0006500D01*
X0092016Y0006500D01*
X0086516Y0016500D02*
X0086518Y0016544D01*
X0086524Y0016588D01*
X0086534Y0016631D01*
X0086547Y0016673D01*
X0086564Y0016714D01*
X0086585Y0016753D01*
X0086609Y0016790D01*
X0086636Y0016825D01*
X0086666Y0016857D01*
X0086699Y0016887D01*
X0086735Y0016913D01*
X0086772Y0016937D01*
X0086812Y0016956D01*
X0086853Y0016973D01*
X0086896Y0016985D01*
X0086939Y0016994D01*
X0086983Y0016999D01*
X0087027Y0017000D01*
X0087071Y0016997D01*
X0087115Y0016990D01*
X0087158Y0016979D01*
X0087200Y0016965D01*
X0087240Y0016947D01*
X0087279Y0016925D01*
X0087315Y0016901D01*
X0087349Y0016873D01*
X0087381Y0016842D01*
X0087410Y0016808D01*
X0087436Y0016772D01*
X0087458Y0016734D01*
X0087477Y0016694D01*
X0087492Y0016652D01*
X0087504Y0016610D01*
X0087512Y0016566D01*
X0087516Y0016522D01*
X0087516Y0016478D01*
X0087512Y0016434D01*
X0087504Y0016390D01*
X0087492Y0016348D01*
X0087477Y0016306D01*
X0087458Y0016266D01*
X0087436Y0016228D01*
X0087410Y0016192D01*
X0087381Y0016158D01*
X0087349Y0016127D01*
X0087315Y0016099D01*
X0087279Y0016075D01*
X0087240Y0016053D01*
X0087200Y0016035D01*
X0087158Y0016021D01*
X0087115Y0016010D01*
X0087071Y0016003D01*
X0087027Y0016000D01*
X0086983Y0016001D01*
X0086939Y0016006D01*
X0086896Y0016015D01*
X0086853Y0016027D01*
X0086812Y0016044D01*
X0086772Y0016063D01*
X0086735Y0016087D01*
X0086699Y0016113D01*
X0086666Y0016143D01*
X0086636Y0016175D01*
X0086609Y0016210D01*
X0086585Y0016247D01*
X0086564Y0016286D01*
X0086547Y0016327D01*
X0086534Y0016369D01*
X0086524Y0016412D01*
X0086518Y0016456D01*
X0086516Y0016500D01*
X0087016Y0016500D02*
X0087016Y0026500D01*
X0086516Y0026500D02*
X0086518Y0026544D01*
X0086524Y0026588D01*
X0086534Y0026631D01*
X0086547Y0026673D01*
X0086564Y0026714D01*
X0086585Y0026753D01*
X0086609Y0026790D01*
X0086636Y0026825D01*
X0086666Y0026857D01*
X0086699Y0026887D01*
X0086735Y0026913D01*
X0086772Y0026937D01*
X0086812Y0026956D01*
X0086853Y0026973D01*
X0086896Y0026985D01*
X0086939Y0026994D01*
X0086983Y0026999D01*
X0087027Y0027000D01*
X0087071Y0026997D01*
X0087115Y0026990D01*
X0087158Y0026979D01*
X0087200Y0026965D01*
X0087240Y0026947D01*
X0087279Y0026925D01*
X0087315Y0026901D01*
X0087349Y0026873D01*
X0087381Y0026842D01*
X0087410Y0026808D01*
X0087436Y0026772D01*
X0087458Y0026734D01*
X0087477Y0026694D01*
X0087492Y0026652D01*
X0087504Y0026610D01*
X0087512Y0026566D01*
X0087516Y0026522D01*
X0087516Y0026478D01*
X0087512Y0026434D01*
X0087504Y0026390D01*
X0087492Y0026348D01*
X0087477Y0026306D01*
X0087458Y0026266D01*
X0087436Y0026228D01*
X0087410Y0026192D01*
X0087381Y0026158D01*
X0087349Y0026127D01*
X0087315Y0026099D01*
X0087279Y0026075D01*
X0087240Y0026053D01*
X0087200Y0026035D01*
X0087158Y0026021D01*
X0087115Y0026010D01*
X0087071Y0026003D01*
X0087027Y0026000D01*
X0086983Y0026001D01*
X0086939Y0026006D01*
X0086896Y0026015D01*
X0086853Y0026027D01*
X0086812Y0026044D01*
X0086772Y0026063D01*
X0086735Y0026087D01*
X0086699Y0026113D01*
X0086666Y0026143D01*
X0086636Y0026175D01*
X0086609Y0026210D01*
X0086585Y0026247D01*
X0086564Y0026286D01*
X0086547Y0026327D01*
X0086534Y0026369D01*
X0086524Y0026412D01*
X0086518Y0026456D01*
X0086516Y0026500D01*
X0067016Y0026500D02*
X0067016Y0016500D01*
X0066516Y0016500D02*
X0066518Y0016544D01*
X0066524Y0016588D01*
X0066534Y0016631D01*
X0066547Y0016673D01*
X0066564Y0016714D01*
X0066585Y0016753D01*
X0066609Y0016790D01*
X0066636Y0016825D01*
X0066666Y0016857D01*
X0066699Y0016887D01*
X0066735Y0016913D01*
X0066772Y0016937D01*
X0066812Y0016956D01*
X0066853Y0016973D01*
X0066896Y0016985D01*
X0066939Y0016994D01*
X0066983Y0016999D01*
X0067027Y0017000D01*
X0067071Y0016997D01*
X0067115Y0016990D01*
X0067158Y0016979D01*
X0067200Y0016965D01*
X0067240Y0016947D01*
X0067279Y0016925D01*
X0067315Y0016901D01*
X0067349Y0016873D01*
X0067381Y0016842D01*
X0067410Y0016808D01*
X0067436Y0016772D01*
X0067458Y0016734D01*
X0067477Y0016694D01*
X0067492Y0016652D01*
X0067504Y0016610D01*
X0067512Y0016566D01*
X0067516Y0016522D01*
X0067516Y0016478D01*
X0067512Y0016434D01*
X0067504Y0016390D01*
X0067492Y0016348D01*
X0067477Y0016306D01*
X0067458Y0016266D01*
X0067436Y0016228D01*
X0067410Y0016192D01*
X0067381Y0016158D01*
X0067349Y0016127D01*
X0067315Y0016099D01*
X0067279Y0016075D01*
X0067240Y0016053D01*
X0067200Y0016035D01*
X0067158Y0016021D01*
X0067115Y0016010D01*
X0067071Y0016003D01*
X0067027Y0016000D01*
X0066983Y0016001D01*
X0066939Y0016006D01*
X0066896Y0016015D01*
X0066853Y0016027D01*
X0066812Y0016044D01*
X0066772Y0016063D01*
X0066735Y0016087D01*
X0066699Y0016113D01*
X0066666Y0016143D01*
X0066636Y0016175D01*
X0066609Y0016210D01*
X0066585Y0016247D01*
X0066564Y0016286D01*
X0066547Y0016327D01*
X0066534Y0016369D01*
X0066524Y0016412D01*
X0066518Y0016456D01*
X0066516Y0016500D01*
X0066516Y0026500D02*
X0066518Y0026544D01*
X0066524Y0026588D01*
X0066534Y0026631D01*
X0066547Y0026673D01*
X0066564Y0026714D01*
X0066585Y0026753D01*
X0066609Y0026790D01*
X0066636Y0026825D01*
X0066666Y0026857D01*
X0066699Y0026887D01*
X0066735Y0026913D01*
X0066772Y0026937D01*
X0066812Y0026956D01*
X0066853Y0026973D01*
X0066896Y0026985D01*
X0066939Y0026994D01*
X0066983Y0026999D01*
X0067027Y0027000D01*
X0067071Y0026997D01*
X0067115Y0026990D01*
X0067158Y0026979D01*
X0067200Y0026965D01*
X0067240Y0026947D01*
X0067279Y0026925D01*
X0067315Y0026901D01*
X0067349Y0026873D01*
X0067381Y0026842D01*
X0067410Y0026808D01*
X0067436Y0026772D01*
X0067458Y0026734D01*
X0067477Y0026694D01*
X0067492Y0026652D01*
X0067504Y0026610D01*
X0067512Y0026566D01*
X0067516Y0026522D01*
X0067516Y0026478D01*
X0067512Y0026434D01*
X0067504Y0026390D01*
X0067492Y0026348D01*
X0067477Y0026306D01*
X0067458Y0026266D01*
X0067436Y0026228D01*
X0067410Y0026192D01*
X0067381Y0026158D01*
X0067349Y0026127D01*
X0067315Y0026099D01*
X0067279Y0026075D01*
X0067240Y0026053D01*
X0067200Y0026035D01*
X0067158Y0026021D01*
X0067115Y0026010D01*
X0067071Y0026003D01*
X0067027Y0026000D01*
X0066983Y0026001D01*
X0066939Y0026006D01*
X0066896Y0026015D01*
X0066853Y0026027D01*
X0066812Y0026044D01*
X0066772Y0026063D01*
X0066735Y0026087D01*
X0066699Y0026113D01*
X0066666Y0026143D01*
X0066636Y0026175D01*
X0066609Y0026210D01*
X0066585Y0026247D01*
X0066564Y0026286D01*
X0066547Y0026327D01*
X0066534Y0026369D01*
X0066524Y0026412D01*
X0066518Y0026456D01*
X0066516Y0026500D01*
X0060333Y0040307D02*
X0060333Y0054807D01*
X0033583Y0064807D02*
X0033585Y0065003D01*
X0033593Y0065200D01*
X0033605Y0065396D01*
X0033622Y0065591D01*
X0033643Y0065786D01*
X0033670Y0065981D01*
X0033701Y0066175D01*
X0033737Y0066368D01*
X0033777Y0066560D01*
X0033823Y0066751D01*
X0033873Y0066941D01*
X0033927Y0067129D01*
X0033987Y0067316D01*
X0034051Y0067502D01*
X0034119Y0067686D01*
X0034192Y0067868D01*
X0034269Y0068049D01*
X0034351Y0068227D01*
X0034437Y0068404D01*
X0034528Y0068578D01*
X0034622Y0068750D01*
X0034721Y0068920D01*
X0034824Y0069087D01*
X0034931Y0069252D01*
X0035042Y0069413D01*
X0035157Y0069573D01*
X0035276Y0069729D01*
X0035399Y0069882D01*
X0035525Y0070032D01*
X0035655Y0070179D01*
X0035789Y0070323D01*
X0035926Y0070464D01*
X0036067Y0070601D01*
X0036211Y0070735D01*
X0036358Y0070865D01*
X0036508Y0070991D01*
X0036661Y0071114D01*
X0036817Y0071233D01*
X0036977Y0071348D01*
X0037138Y0071459D01*
X0037303Y0071566D01*
X0037470Y0071669D01*
X0037640Y0071768D01*
X0037812Y0071862D01*
X0037986Y0071953D01*
X0038163Y0072039D01*
X0038341Y0072121D01*
X0038522Y0072198D01*
X0038704Y0072271D01*
X0038888Y0072339D01*
X0039074Y0072403D01*
X0039261Y0072463D01*
X0039449Y0072517D01*
X0039639Y0072567D01*
X0039830Y0072613D01*
X0040022Y0072653D01*
X0040215Y0072689D01*
X0040409Y0072720D01*
X0040604Y0072747D01*
X0040799Y0072768D01*
X0040994Y0072785D01*
X0041190Y0072797D01*
X0041387Y0072805D01*
X0041583Y0072807D01*
X0041779Y0072805D01*
X0041976Y0072797D01*
X0042172Y0072785D01*
X0042367Y0072768D01*
X0042562Y0072747D01*
X0042757Y0072720D01*
X0042951Y0072689D01*
X0043144Y0072653D01*
X0043336Y0072613D01*
X0043527Y0072567D01*
X0043717Y0072517D01*
X0043905Y0072463D01*
X0044092Y0072403D01*
X0044278Y0072339D01*
X0044462Y0072271D01*
X0044644Y0072198D01*
X0044825Y0072121D01*
X0045003Y0072039D01*
X0045180Y0071953D01*
X0045354Y0071862D01*
X0045526Y0071768D01*
X0045696Y0071669D01*
X0045863Y0071566D01*
X0046028Y0071459D01*
X0046189Y0071348D01*
X0046349Y0071233D01*
X0046505Y0071114D01*
X0046658Y0070991D01*
X0046808Y0070865D01*
X0046955Y0070735D01*
X0047099Y0070601D01*
X0047240Y0070464D01*
X0047377Y0070323D01*
X0047511Y0070179D01*
X0047641Y0070032D01*
X0047767Y0069882D01*
X0047890Y0069729D01*
X0048009Y0069573D01*
X0048124Y0069413D01*
X0048235Y0069252D01*
X0048342Y0069087D01*
X0048445Y0068920D01*
X0048544Y0068750D01*
X0048638Y0068578D01*
X0048729Y0068404D01*
X0048815Y0068227D01*
X0048897Y0068049D01*
X0048974Y0067868D01*
X0049047Y0067686D01*
X0049115Y0067502D01*
X0049179Y0067316D01*
X0049239Y0067129D01*
X0049293Y0066941D01*
X0049343Y0066751D01*
X0049389Y0066560D01*
X0049429Y0066368D01*
X0049465Y0066175D01*
X0049496Y0065981D01*
X0049523Y0065786D01*
X0049544Y0065591D01*
X0049561Y0065396D01*
X0049573Y0065200D01*
X0049581Y0065003D01*
X0049583Y0064807D01*
X0049581Y0064611D01*
X0049573Y0064414D01*
X0049561Y0064218D01*
X0049544Y0064023D01*
X0049523Y0063828D01*
X0049496Y0063633D01*
X0049465Y0063439D01*
X0049429Y0063246D01*
X0049389Y0063054D01*
X0049343Y0062863D01*
X0049293Y0062673D01*
X0049239Y0062485D01*
X0049179Y0062298D01*
X0049115Y0062112D01*
X0049047Y0061928D01*
X0048974Y0061746D01*
X0048897Y0061565D01*
X0048815Y0061387D01*
X0048729Y0061210D01*
X0048638Y0061036D01*
X0048544Y0060864D01*
X0048445Y0060694D01*
X0048342Y0060527D01*
X0048235Y0060362D01*
X0048124Y0060201D01*
X0048009Y0060041D01*
X0047890Y0059885D01*
X0047767Y0059732D01*
X0047641Y0059582D01*
X0047511Y0059435D01*
X0047377Y0059291D01*
X0047240Y0059150D01*
X0047099Y0059013D01*
X0046955Y0058879D01*
X0046808Y0058749D01*
X0046658Y0058623D01*
X0046505Y0058500D01*
X0046349Y0058381D01*
X0046189Y0058266D01*
X0046028Y0058155D01*
X0045863Y0058048D01*
X0045696Y0057945D01*
X0045526Y0057846D01*
X0045354Y0057752D01*
X0045180Y0057661D01*
X0045003Y0057575D01*
X0044825Y0057493D01*
X0044644Y0057416D01*
X0044462Y0057343D01*
X0044278Y0057275D01*
X0044092Y0057211D01*
X0043905Y0057151D01*
X0043717Y0057097D01*
X0043527Y0057047D01*
X0043336Y0057001D01*
X0043144Y0056961D01*
X0042951Y0056925D01*
X0042757Y0056894D01*
X0042562Y0056867D01*
X0042367Y0056846D01*
X0042172Y0056829D01*
X0041976Y0056817D01*
X0041779Y0056809D01*
X0041583Y0056807D01*
X0041387Y0056809D01*
X0041190Y0056817D01*
X0040994Y0056829D01*
X0040799Y0056846D01*
X0040604Y0056867D01*
X0040409Y0056894D01*
X0040215Y0056925D01*
X0040022Y0056961D01*
X0039830Y0057001D01*
X0039639Y0057047D01*
X0039449Y0057097D01*
X0039261Y0057151D01*
X0039074Y0057211D01*
X0038888Y0057275D01*
X0038704Y0057343D01*
X0038522Y0057416D01*
X0038341Y0057493D01*
X0038163Y0057575D01*
X0037986Y0057661D01*
X0037812Y0057752D01*
X0037640Y0057846D01*
X0037470Y0057945D01*
X0037303Y0058048D01*
X0037138Y0058155D01*
X0036977Y0058266D01*
X0036817Y0058381D01*
X0036661Y0058500D01*
X0036508Y0058623D01*
X0036358Y0058749D01*
X0036211Y0058879D01*
X0036067Y0059013D01*
X0035926Y0059150D01*
X0035789Y0059291D01*
X0035655Y0059435D01*
X0035525Y0059582D01*
X0035399Y0059732D01*
X0035276Y0059885D01*
X0035157Y0060041D01*
X0035042Y0060201D01*
X0034931Y0060362D01*
X0034824Y0060527D01*
X0034721Y0060694D01*
X0034622Y0060864D01*
X0034528Y0061036D01*
X0034437Y0061210D01*
X0034351Y0061387D01*
X0034269Y0061565D01*
X0034192Y0061746D01*
X0034119Y0061928D01*
X0034051Y0062112D01*
X0033987Y0062298D01*
X0033927Y0062485D01*
X0033873Y0062673D01*
X0033823Y0062863D01*
X0033777Y0063054D01*
X0033737Y0063246D01*
X0033701Y0063439D01*
X0033670Y0063633D01*
X0033643Y0063828D01*
X0033622Y0064023D01*
X0033605Y0064218D01*
X0033593Y0064414D01*
X0033585Y0064611D01*
X0033583Y0064807D01*
X0022833Y0054807D02*
X0022833Y0040307D01*
X0060333Y0040307D01*
X0060333Y0074807D02*
X0060333Y0083557D01*
X0060333Y0083807D02*
X0022833Y0083807D01*
X0022833Y0083557D02*
X0022833Y0074807D01*
D15*
X0071668Y0036748D02*
X0071670Y0036797D01*
X0071676Y0036845D01*
X0071686Y0036893D01*
X0071700Y0036940D01*
X0071717Y0036986D01*
X0071738Y0037030D01*
X0071763Y0037072D01*
X0071791Y0037112D01*
X0071823Y0037150D01*
X0071857Y0037185D01*
X0071894Y0037217D01*
X0071933Y0037246D01*
X0071975Y0037272D01*
X0072019Y0037294D01*
X0072064Y0037312D01*
X0072111Y0037327D01*
X0072158Y0037338D01*
X0072207Y0037345D01*
X0072256Y0037348D01*
X0072305Y0037347D01*
X0072353Y0037342D01*
X0072402Y0037333D01*
X0072449Y0037320D01*
X0072495Y0037303D01*
X0072539Y0037283D01*
X0072582Y0037259D01*
X0072623Y0037232D01*
X0072661Y0037201D01*
X0072697Y0037168D01*
X0072729Y0037132D01*
X0072759Y0037093D01*
X0072786Y0037052D01*
X0072809Y0037008D01*
X0072828Y0036963D01*
X0072844Y0036917D01*
X0072856Y0036870D01*
X0072864Y0036821D01*
X0072868Y0036772D01*
X0072868Y0036724D01*
X0072864Y0036675D01*
X0072856Y0036626D01*
X0072844Y0036579D01*
X0072828Y0036533D01*
X0072809Y0036488D01*
X0072786Y0036444D01*
X0072759Y0036403D01*
X0072729Y0036364D01*
X0072697Y0036328D01*
X0072661Y0036295D01*
X0072623Y0036264D01*
X0072582Y0036237D01*
X0072539Y0036213D01*
X0072495Y0036193D01*
X0072449Y0036176D01*
X0072402Y0036163D01*
X0072353Y0036154D01*
X0072305Y0036149D01*
X0072256Y0036148D01*
X0072207Y0036151D01*
X0072158Y0036158D01*
X0072111Y0036169D01*
X0072064Y0036184D01*
X0072019Y0036202D01*
X0071975Y0036224D01*
X0071933Y0036250D01*
X0071894Y0036279D01*
X0071857Y0036311D01*
X0071823Y0036346D01*
X0071791Y0036384D01*
X0071763Y0036424D01*
X0071738Y0036466D01*
X0071717Y0036510D01*
X0071700Y0036556D01*
X0071686Y0036603D01*
X0071676Y0036651D01*
X0071670Y0036699D01*
X0071668Y0036748D01*
X0081668Y0036748D02*
X0081670Y0036797D01*
X0081676Y0036845D01*
X0081686Y0036893D01*
X0081700Y0036940D01*
X0081717Y0036986D01*
X0081738Y0037030D01*
X0081763Y0037072D01*
X0081791Y0037112D01*
X0081823Y0037150D01*
X0081857Y0037185D01*
X0081894Y0037217D01*
X0081933Y0037246D01*
X0081975Y0037272D01*
X0082019Y0037294D01*
X0082064Y0037312D01*
X0082111Y0037327D01*
X0082158Y0037338D01*
X0082207Y0037345D01*
X0082256Y0037348D01*
X0082305Y0037347D01*
X0082353Y0037342D01*
X0082402Y0037333D01*
X0082449Y0037320D01*
X0082495Y0037303D01*
X0082539Y0037283D01*
X0082582Y0037259D01*
X0082623Y0037232D01*
X0082661Y0037201D01*
X0082697Y0037168D01*
X0082729Y0037132D01*
X0082759Y0037093D01*
X0082786Y0037052D01*
X0082809Y0037008D01*
X0082828Y0036963D01*
X0082844Y0036917D01*
X0082856Y0036870D01*
X0082864Y0036821D01*
X0082868Y0036772D01*
X0082868Y0036724D01*
X0082864Y0036675D01*
X0082856Y0036626D01*
X0082844Y0036579D01*
X0082828Y0036533D01*
X0082809Y0036488D01*
X0082786Y0036444D01*
X0082759Y0036403D01*
X0082729Y0036364D01*
X0082697Y0036328D01*
X0082661Y0036295D01*
X0082623Y0036264D01*
X0082582Y0036237D01*
X0082539Y0036213D01*
X0082495Y0036193D01*
X0082449Y0036176D01*
X0082402Y0036163D01*
X0082353Y0036154D01*
X0082305Y0036149D01*
X0082256Y0036148D01*
X0082207Y0036151D01*
X0082158Y0036158D01*
X0082111Y0036169D01*
X0082064Y0036184D01*
X0082019Y0036202D01*
X0081975Y0036224D01*
X0081933Y0036250D01*
X0081894Y0036279D01*
X0081857Y0036311D01*
X0081823Y0036346D01*
X0081791Y0036384D01*
X0081763Y0036424D01*
X0081738Y0036466D01*
X0081717Y0036510D01*
X0081700Y0036556D01*
X0081686Y0036603D01*
X0081676Y0036651D01*
X0081670Y0036699D01*
X0081668Y0036748D01*
X0126786Y0036748D02*
X0126788Y0036797D01*
X0126794Y0036845D01*
X0126804Y0036893D01*
X0126818Y0036940D01*
X0126835Y0036986D01*
X0126856Y0037030D01*
X0126881Y0037072D01*
X0126909Y0037112D01*
X0126941Y0037150D01*
X0126975Y0037185D01*
X0127012Y0037217D01*
X0127051Y0037246D01*
X0127093Y0037272D01*
X0127137Y0037294D01*
X0127182Y0037312D01*
X0127229Y0037327D01*
X0127276Y0037338D01*
X0127325Y0037345D01*
X0127374Y0037348D01*
X0127423Y0037347D01*
X0127471Y0037342D01*
X0127520Y0037333D01*
X0127567Y0037320D01*
X0127613Y0037303D01*
X0127657Y0037283D01*
X0127700Y0037259D01*
X0127741Y0037232D01*
X0127779Y0037201D01*
X0127815Y0037168D01*
X0127847Y0037132D01*
X0127877Y0037093D01*
X0127904Y0037052D01*
X0127927Y0037008D01*
X0127946Y0036963D01*
X0127962Y0036917D01*
X0127974Y0036870D01*
X0127982Y0036821D01*
X0127986Y0036772D01*
X0127986Y0036724D01*
X0127982Y0036675D01*
X0127974Y0036626D01*
X0127962Y0036579D01*
X0127946Y0036533D01*
X0127927Y0036488D01*
X0127904Y0036444D01*
X0127877Y0036403D01*
X0127847Y0036364D01*
X0127815Y0036328D01*
X0127779Y0036295D01*
X0127741Y0036264D01*
X0127700Y0036237D01*
X0127657Y0036213D01*
X0127613Y0036193D01*
X0127567Y0036176D01*
X0127520Y0036163D01*
X0127471Y0036154D01*
X0127423Y0036149D01*
X0127374Y0036148D01*
X0127325Y0036151D01*
X0127276Y0036158D01*
X0127229Y0036169D01*
X0127182Y0036184D01*
X0127137Y0036202D01*
X0127093Y0036224D01*
X0127051Y0036250D01*
X0127012Y0036279D01*
X0126975Y0036311D01*
X0126941Y0036346D01*
X0126909Y0036384D01*
X0126881Y0036424D01*
X0126856Y0036466D01*
X0126835Y0036510D01*
X0126818Y0036556D01*
X0126804Y0036603D01*
X0126794Y0036651D01*
X0126788Y0036699D01*
X0126786Y0036748D01*
X0136786Y0036748D02*
X0136788Y0036797D01*
X0136794Y0036845D01*
X0136804Y0036893D01*
X0136818Y0036940D01*
X0136835Y0036986D01*
X0136856Y0037030D01*
X0136881Y0037072D01*
X0136909Y0037112D01*
X0136941Y0037150D01*
X0136975Y0037185D01*
X0137012Y0037217D01*
X0137051Y0037246D01*
X0137093Y0037272D01*
X0137137Y0037294D01*
X0137182Y0037312D01*
X0137229Y0037327D01*
X0137276Y0037338D01*
X0137325Y0037345D01*
X0137374Y0037348D01*
X0137423Y0037347D01*
X0137471Y0037342D01*
X0137520Y0037333D01*
X0137567Y0037320D01*
X0137613Y0037303D01*
X0137657Y0037283D01*
X0137700Y0037259D01*
X0137741Y0037232D01*
X0137779Y0037201D01*
X0137815Y0037168D01*
X0137847Y0037132D01*
X0137877Y0037093D01*
X0137904Y0037052D01*
X0137927Y0037008D01*
X0137946Y0036963D01*
X0137962Y0036917D01*
X0137974Y0036870D01*
X0137982Y0036821D01*
X0137986Y0036772D01*
X0137986Y0036724D01*
X0137982Y0036675D01*
X0137974Y0036626D01*
X0137962Y0036579D01*
X0137946Y0036533D01*
X0137927Y0036488D01*
X0137904Y0036444D01*
X0137877Y0036403D01*
X0137847Y0036364D01*
X0137815Y0036328D01*
X0137779Y0036295D01*
X0137741Y0036264D01*
X0137700Y0036237D01*
X0137657Y0036213D01*
X0137613Y0036193D01*
X0137567Y0036176D01*
X0137520Y0036163D01*
X0137471Y0036154D01*
X0137423Y0036149D01*
X0137374Y0036148D01*
X0137325Y0036151D01*
X0137276Y0036158D01*
X0137229Y0036169D01*
X0137182Y0036184D01*
X0137137Y0036202D01*
X0137093Y0036224D01*
X0137051Y0036250D01*
X0137012Y0036279D01*
X0136975Y0036311D01*
X0136941Y0036346D01*
X0136909Y0036384D01*
X0136881Y0036424D01*
X0136856Y0036466D01*
X0136835Y0036510D01*
X0136818Y0036556D01*
X0136804Y0036603D01*
X0136794Y0036651D01*
X0136788Y0036699D01*
X0136786Y0036748D01*
D16*
X0055383Y0032800D02*
X0054816Y0033367D01*
X0055383Y0032800D02*
X0056517Y0032800D01*
X0057084Y0033367D01*
X0057084Y0033934D01*
X0056517Y0034502D01*
X0055383Y0034502D01*
X0054816Y0035069D01*
X0054816Y0035636D01*
X0055383Y0036203D01*
X0056517Y0036203D01*
X0057084Y0035636D01*
X0058499Y0035069D02*
X0059633Y0036203D01*
X0059633Y0032800D01*
X0058499Y0032800D02*
X0060767Y0032800D01*
X0104575Y0068839D02*
X0104729Y0068837D01*
X0104883Y0068831D01*
X0105037Y0068821D01*
X0105191Y0068807D01*
X0105344Y0068790D01*
X0105496Y0068768D01*
X0105648Y0068742D01*
X0105800Y0068713D01*
X0105950Y0068679D01*
X0106100Y0068642D01*
X0106248Y0068601D01*
X0106396Y0068556D01*
X0106542Y0068507D01*
X0106687Y0068455D01*
X0106830Y0068399D01*
X0106973Y0068339D01*
X0107113Y0068276D01*
X0107252Y0068209D01*
X0107389Y0068138D01*
X0107524Y0068064D01*
X0107657Y0067987D01*
X0107789Y0067906D01*
X0107918Y0067822D01*
X0108045Y0067734D01*
X0108169Y0067643D01*
X0108291Y0067550D01*
X0108411Y0067452D01*
X0108528Y0067352D01*
X0108643Y0067249D01*
X0108755Y0067143D01*
X0108864Y0067035D01*
X0108970Y0066923D01*
X0109074Y0066809D01*
X0109174Y0066692D01*
X0109272Y0066573D01*
X0109366Y0066451D01*
X0109457Y0066326D01*
X0104575Y0056839D02*
X0104423Y0056841D01*
X0104272Y0056847D01*
X0104121Y0056856D01*
X0103969Y0056870D01*
X0103819Y0056887D01*
X0103669Y0056908D01*
X0103519Y0056933D01*
X0103370Y0056961D01*
X0103222Y0056994D01*
X0103075Y0057030D01*
X0102928Y0057069D01*
X0102783Y0057113D01*
X0102639Y0057160D01*
X0102496Y0057211D01*
X0102355Y0057265D01*
X0102214Y0057323D01*
X0102076Y0057384D01*
X0101939Y0057449D01*
X0101803Y0057518D01*
X0101670Y0057589D01*
X0101538Y0057664D01*
X0101408Y0057743D01*
X0101281Y0057824D01*
X0101155Y0057909D01*
X0101031Y0057997D01*
X0100910Y0058088D01*
X0100791Y0058182D01*
X0100675Y0058280D01*
X0100561Y0058380D01*
X0100449Y0058482D01*
X0100341Y0058588D01*
X0100235Y0058696D01*
X0100131Y0058807D01*
X0100031Y0058921D01*
X0099933Y0059037D01*
X0099839Y0059156D01*
X0104575Y0056839D02*
X0104727Y0056841D01*
X0104878Y0056847D01*
X0105029Y0056856D01*
X0105181Y0056870D01*
X0105331Y0056887D01*
X0105481Y0056908D01*
X0105631Y0056933D01*
X0105780Y0056961D01*
X0105928Y0056994D01*
X0106075Y0057030D01*
X0106222Y0057069D01*
X0106367Y0057113D01*
X0106511Y0057160D01*
X0106654Y0057211D01*
X0106795Y0057265D01*
X0106936Y0057323D01*
X0107074Y0057384D01*
X0107211Y0057449D01*
X0107347Y0057518D01*
X0107480Y0057589D01*
X0107612Y0057664D01*
X0107742Y0057743D01*
X0107869Y0057824D01*
X0107995Y0057909D01*
X0108119Y0057997D01*
X0108240Y0058088D01*
X0108359Y0058182D01*
X0108475Y0058280D01*
X0108589Y0058380D01*
X0108701Y0058482D01*
X0108809Y0058588D01*
X0108915Y0058696D01*
X0109019Y0058807D01*
X0109119Y0058921D01*
X0109217Y0059037D01*
X0109311Y0059156D01*
X0104575Y0068839D02*
X0104425Y0068837D01*
X0104274Y0068831D01*
X0104124Y0068822D01*
X0103975Y0068809D01*
X0103825Y0068792D01*
X0103676Y0068771D01*
X0103528Y0068747D01*
X0103380Y0068719D01*
X0103233Y0068687D01*
X0103087Y0068652D01*
X0102942Y0068612D01*
X0102798Y0068570D01*
X0102655Y0068523D01*
X0102513Y0068473D01*
X0102372Y0068420D01*
X0102233Y0068363D01*
X0102095Y0068303D01*
X0101959Y0068239D01*
X0101825Y0068172D01*
X0101692Y0068101D01*
X0101561Y0068027D01*
X0101432Y0067950D01*
X0101305Y0067869D01*
X0101180Y0067786D01*
X0101057Y0067699D01*
X0100936Y0067610D01*
X0100818Y0067517D01*
X0100702Y0067421D01*
X0100588Y0067323D01*
X0100477Y0067222D01*
X0100368Y0067117D01*
X0100263Y0067011D01*
X0100159Y0066901D01*
X0100059Y0066789D01*
X0099961Y0066675D01*
X0099867Y0066558D01*
X0099775Y0066439D01*
X0100143Y0072139D02*
X0097875Y0072139D01*
X0097875Y0075542D01*
X0101558Y0075542D02*
X0101558Y0072139D01*
X0103827Y0072139D01*
X0105241Y0072139D02*
X0106943Y0072139D01*
X0107510Y0072706D01*
X0107510Y0074974D01*
X0106943Y0075542D01*
X0105241Y0075542D01*
X0105241Y0072139D01*
X0102692Y0073840D02*
X0101558Y0073840D01*
X0101558Y0075542D02*
X0103827Y0075542D01*
X0108924Y0074407D02*
X0110059Y0075542D01*
X0110059Y0072139D01*
X0111193Y0072139D02*
X0108924Y0072139D01*
X0148434Y0034636D02*
X0148434Y0034069D01*
X0149001Y0033502D01*
X0150135Y0033502D01*
X0150702Y0032934D01*
X0150702Y0032367D01*
X0150135Y0031800D01*
X0149001Y0031800D01*
X0148434Y0032367D01*
X0148434Y0034636D02*
X0149001Y0035203D01*
X0150135Y0035203D01*
X0150702Y0034636D01*
X0152117Y0034636D02*
X0152684Y0035203D01*
X0153818Y0035203D01*
X0154386Y0034636D01*
X0154386Y0034069D01*
X0152117Y0031800D01*
X0154386Y0031800D01*
M02*
