%
M48
M72
T01C0.0150
T02C0.0315
T03C0.0320
T04C0.0354
T05C0.0374
T06C0.0394
T07C0.0400
T08C0.0413
T09C0.0650
T10C0.0709
T11C0.0866
T12C0.1102
T13C0.1260
T14C0.1575
%
T01
X4270Y3450
X6110Y5690
X6510Y5330
X4990Y6170
X4270Y8370
X5750Y10330
X5710Y10770
X5750Y11210
X7310Y10770
X8990Y9370
X9550Y10410
X10790Y9050
X11350Y7170
X12230Y5530
X11230Y4250
X8950Y4530
X8910Y4970
X13110Y7930
X13830Y8090
X13630Y9490
X15270Y10130
X15430Y10970
X14790Y11170
X14990Y11890
X16590Y10690
X16310Y9730
X16910Y9050
X17270Y7810
X16150Y6490
X15110Y7330
X14950Y6490
X14190Y6690
X13750Y6610
X17190Y5970
X17630Y6090
X18710Y5250
X21270Y3770
X21510Y5650
X21470Y6090
X21990Y6930
X23310Y4850
X26590Y4530
X26950Y4050
X26550Y7050
X25710Y9930
X23910Y10010
X22310Y10770
X23030Y12050
X22550Y12490
X23150Y13810
X24310Y13810
X24670Y14130
X24670Y16450
X24310Y16850
X23390Y17130
X24870Y18890
X25510Y19210
X24510Y19730
X23390Y19570
X22870Y20010
X21270Y19130
X20590Y17570
X18910Y17290
X18510Y18170
X18110Y18370
X18550Y19610
X18190Y19890
X17870Y20570
X16510Y21490
X16190Y20970
X15030Y20250
X14310Y20930
X13590Y20810
X13350Y21890
X13390Y22410
X13070Y23210
X12510Y23770
X13070Y24930
X11310Y22530
X10150Y20490
X10950Y20170
X11670Y19970
X12190Y19730
X13990Y18730
X14670Y17410
X15110Y17450
X15150Y16370
X16310Y15570
X16630Y14930
X17110Y13530
X19030Y13970
X19710Y11610
X20830Y10610
X18230Y10090
X13590Y14570
X14110Y14970
X13830Y15730
X11990Y16090
X11750Y15490
X11990Y16610
X12430Y17610
X8950Y20530
X9270Y21370
X8710Y22690
X9110Y22890
X8750Y25530
X9790Y26010
X10830Y27330
X7990Y28250
X6950Y30770
X6950Y31290
X10310Y31010
X10670Y33050
X11110Y33130
X13030Y30650
X14390Y30650
X15310Y31010
X14350Y33130
X18430Y31690
X19350Y32090
X20590Y32810
X22110Y33170
X19190Y30450
X20870Y27850
X18790Y27290
X18430Y25930
X20950Y24290
X20950Y22370
X20630Y21810
X16470Y23090
X16310Y22570
X16510Y18250
X17750Y16770
X18510Y16370
X12990Y12970
X11750Y13090
X9150Y13490
X8510Y13890
X5990Y15570
X5270Y15770
X4830Y15850
X6150Y17650
X4430Y19370
X4070Y18570
X3630Y18530
X1990Y18090
X2510Y19850
X3350Y21290
X4950Y21450
X6070Y21090
X6830Y19530
X7710Y19810
X7910Y20490
X2510Y15770
X2510Y12730
X15310Y1890
X16230Y1530
X28710Y11010
X30550Y9650
X30590Y9130
X29110Y8730
X30550Y4850
X32990Y4490
X32790Y2890
X32790Y2170
X33350Y2170
X39190Y8610
X31150Y16970
X33030Y20330
X30670Y21250
X29590Y22370
X29950Y23210
X30710Y24810
X32150Y24810
X33070Y26050
X34430Y26490
X34590Y26050
X36310Y28090
X37110Y27490
X36710Y26530
X37030Y21690
X35990Y20970
X35990Y20090
X29070Y20810
X27070Y22250
X25910Y22210
X25350Y21490
X28190Y23970
X25710Y26610
X28510Y30050
X27430Y30890
X28950Y31250
X29670Y28570
X25190Y32770
X25190Y33250
X25470Y35090
X25070Y35290
X26270Y35450
X27390Y36490
X37670Y34970
X27470Y18090
X26750Y16210
X14310Y28610
X2950Y31930
T02
X4308Y30658
X5308Y30658
X6308Y30658
X6308Y28658
X5308Y28658
X4308Y28658
X4308Y14122
X5308Y14122
X6308Y14122
X6308Y12122
X5308Y12122
X4308Y12122
X26566Y32449
X27566Y32449
X33442Y30658
X34442Y30658
X35442Y30658
X35442Y28658
X34442Y28658
X33442Y28658
X33442Y14122
X34442Y14122
X35442Y14122
X35442Y12122
X34442Y12122
X33442Y12122
T03
X32008Y11685
X32008Y14685
X19875Y18874
X19875Y19874
X20269Y21413
X20269Y24413
X11388Y34241
X11388Y35241
X11388Y36241
X11388Y37241
X12929Y36513
X12929Y38513
X8388Y37241
X8388Y36241
X8388Y35241
X8388Y34241
X6744Y33139
X5343Y33129
X5343Y36129
X6744Y36139
X5749Y25156
X4469Y25079
X4469Y22079
X5749Y22156
X31874Y28406
X31874Y31406
T04
X28749Y26705
X27749Y26705
X26749Y26705
X13001Y26705
X12001Y26705
X11001Y26705
X11001Y10169
X12001Y10169
X13001Y10169
X26749Y10169
X27749Y10169
X28749Y10169
T05
X30566Y32449
X33566Y32449
T06
X21735Y30484
X21735Y29484
X21735Y28484
X21735Y27484
X21735Y26484
X21735Y25484
X21735Y24484
X21735Y23484
X21735Y22484
X21735Y21484
X21735Y20484
X21735Y19484
X21735Y18484
X21735Y17484
X21735Y16484
X21735Y15484
X21735Y14484
X21735Y13484
X21735Y12484
X20735Y12484
X19735Y12484
X18735Y12484
X18735Y13484
X18735Y14484
X18735Y15484
X17735Y15484
X17735Y14484
X17735Y13484
X17735Y12484
X16735Y12484
X15735Y12484
X15735Y13484
X15735Y14484
X15735Y15484
X15735Y16484
X15735Y17484
X15735Y18484
X15735Y19484
X15735Y20484
X15735Y21484
X15735Y22484
X15735Y23484
X15735Y24484
X15735Y25484
X16735Y25484
X17735Y24484
X18735Y24484
X18735Y23484
X18735Y22484
X18735Y21484
X17735Y21484
X17735Y22484
X17735Y23484
X16735Y26484
X16735Y27484
X15735Y27484
X15735Y28484
X15735Y29484
X15735Y30484
X16735Y29484
X15735Y26484
X15735Y11484
X15735Y10484
X15735Y9484
X15735Y8484
X15735Y7484
X17735Y7484
X17735Y8484
X17735Y9484
X18735Y9484
X18735Y8484
X18735Y7484
X21735Y7484
X21735Y8484
X21735Y9484
X21735Y10484
X21735Y11484
X18735Y11484
X18735Y10484
X17735Y10484
X17735Y11484
T07
X10766Y17326
X9766Y17326
X8766Y17326
X7766Y17326
X6766Y17326
X6766Y18426
X7766Y18426
X8766Y18426
X9766Y18426
X10766Y18426
X1289Y17390
X1389Y16390
X1289Y15390
X1297Y14393
X1397Y13393
X1297Y12393
X1310Y9710
X1410Y8710
X1310Y7710
X1310Y6710
X1410Y5710
X1310Y4710
X6545Y3567
X7545Y3567
X8545Y3567
X9545Y3567
X10545Y3567
X10545Y2467
X9545Y2467
X8545Y2467
X7545Y2467
X6545Y2467
X6561Y6980
X7561Y6980
X8561Y6980
X9561Y6980
X10561Y6980
X10561Y8080
X9561Y8080
X8561Y8080
X7561Y8080
X6561Y8080
X1421Y21239
X1321Y22239
X1421Y23239
X1421Y24245
X1321Y25245
X1421Y26245
X1321Y30420
X1421Y31420
X1321Y32420
X1421Y33420
X1321Y34420
X5348Y38090
X6488Y38090
X12911Y35222
X12911Y34082
X30941Y24049
X31941Y24049
X32941Y24049
X33941Y24049
X34941Y24049
X34941Y22949
X33941Y22949
X32941Y22949
X31941Y22949
X30941Y22949
X30867Y19152
X31867Y19152
X32867Y19152
X33867Y19152
X34867Y19152
X34867Y18052
X33867Y18052
X32867Y18052
X31867Y18052
X30867Y18052
X38329Y18315
X38429Y19315
X38433Y20312
X38333Y21312
X38433Y22312
X38445Y23914
X38345Y24914
X38445Y25914
X38435Y26912
X38335Y27912
X38435Y28912
X38454Y30421
X38354Y31421
X38454Y32421
X38354Y33421
X38454Y34421
X38429Y17315
X38329Y15798
X38429Y14798
X38329Y13798
X38329Y12728
X38429Y11728
X38329Y10728
X38329Y9354
X38429Y8354
X38329Y7354
X38329Y6347
X38429Y5347
X38329Y4347
X32111Y3436
X31111Y3436
X30111Y3436
X29111Y3436
X28111Y3436
X28111Y2336
X29111Y2336
X30111Y2336
X31111Y2336
X32111Y2336
X32111Y6667
X31111Y6667
X31111Y7767
X32111Y7767
X30111Y7767
X29111Y7767
X29111Y6667
X30111Y6667
X28111Y6667
X28111Y7767
T08
X33749Y12693
X33749Y13555
X33749Y29228
X33749Y30091
X4615Y30091
X4615Y29228
X4615Y13555
X4615Y12693
T09
X19875Y27413
X19875Y29264
X19875Y31114
T10
X25859Y29658
X29639Y29658
X13891Y29658
X10111Y29658
X10111Y13122
X13891Y13122
X25859Y13122
X29639Y13122
T11
X35438Y13142
X35438Y29677
X6304Y29677
X6304Y13142
T12
X25830Y36585
X23940Y37923
X28496Y37904
X30386Y36565
X33080Y37944
X34970Y36605
T13
X33080Y35483
X28496Y35443
X23940Y35463
T14
X2158Y2099
X2158Y37532
X37985Y37925
X37985Y1705
M30
