G75*
%MOIN*%
%OFA0B0*%
%FSLAX25Y25*%
%IPPOS*%
%LPD*%
%AMOC8*
5,1,8,0,0,1.08239X$1,22.5*
%
%ADD10C,0.07400*%
%ADD11C,0.16598*%
%ADD12C,0.15024*%
%ADD13OC8,0.05200*%
%ADD14C,0.05937*%
%ADD15R,0.05937X0.05937*%
%ADD16R,0.05906X0.02362*%
%ADD17C,0.06600*%
%ADD18OC8,0.06800*%
%ADD19C,0.05150*%
%ADD20C,0.05740*%
%ADD21C,0.09744*%
%ADD22C,0.07000*%
%ADD23C,0.11811*%
%ADD24C,0.02400*%
%ADD25C,0.03100*%
%ADD26C,0.01600*%
%ADD27C,0.01000*%
%ADD28C,0.05000*%
D10*
X0013098Y0047095D03*
X0014098Y0057095D03*
X0013098Y0067095D03*
X0013098Y0077095D03*
X0014098Y0087095D03*
X0013098Y0097095D03*
X0012972Y0123930D03*
X0013972Y0133930D03*
X0012972Y0143930D03*
X0012894Y0153898D03*
X0013894Y0163898D03*
X0012894Y0173898D03*
X0014209Y0212391D03*
X0013209Y0222391D03*
X0014209Y0232391D03*
X0014209Y0242454D03*
X0013209Y0252454D03*
X0014209Y0262454D03*
X0013209Y0304200D03*
X0014209Y0314200D03*
X0013209Y0324200D03*
X0014209Y0334200D03*
X0013209Y0344200D03*
X0053477Y0380902D03*
X0064877Y0380902D03*
X0129106Y0352220D03*
X0129106Y0340820D03*
X0107661Y0184259D03*
X0097661Y0184259D03*
X0087661Y0184259D03*
X0077661Y0184259D03*
X0067661Y0184259D03*
X0067661Y0173259D03*
X0077661Y0173259D03*
X0087661Y0173259D03*
X0097661Y0173259D03*
X0107661Y0173259D03*
X0105614Y0080800D03*
X0095614Y0080800D03*
X0085614Y0080800D03*
X0075614Y0080800D03*
X0065614Y0080800D03*
X0065614Y0069800D03*
X0075614Y0069800D03*
X0085614Y0069800D03*
X0095614Y0069800D03*
X0105614Y0069800D03*
X0105455Y0035669D03*
X0095455Y0035669D03*
X0085455Y0035669D03*
X0075455Y0035669D03*
X0065455Y0035669D03*
X0065455Y0024669D03*
X0075455Y0024669D03*
X0085455Y0024669D03*
X0095455Y0024669D03*
X0105455Y0024669D03*
X0281110Y0023359D03*
X0291110Y0023359D03*
X0301110Y0023359D03*
X0311110Y0023359D03*
X0321110Y0023359D03*
X0321110Y0034359D03*
X0311110Y0034359D03*
X0301110Y0034359D03*
X0291110Y0034359D03*
X0281110Y0034359D03*
X0281110Y0066666D03*
X0281110Y0077666D03*
X0291110Y0077666D03*
X0301110Y0077666D03*
X0301110Y0066666D03*
X0291110Y0066666D03*
X0311110Y0066666D03*
X0321110Y0066666D03*
X0321110Y0077666D03*
X0311110Y0077666D03*
X0383287Y0073536D03*
X0383287Y0063465D03*
X0384287Y0053465D03*
X0383287Y0043465D03*
X0384287Y0083536D03*
X0383287Y0093536D03*
X0383287Y0107284D03*
X0384287Y0117284D03*
X0383287Y0127284D03*
X0383287Y0137981D03*
X0384287Y0147981D03*
X0383287Y0157981D03*
X0384287Y0173146D03*
X0383287Y0183146D03*
X0384287Y0193146D03*
X0384331Y0203119D03*
X0383331Y0213119D03*
X0384331Y0223119D03*
X0384453Y0239139D03*
X0383453Y0249139D03*
X0384453Y0259139D03*
X0384350Y0269119D03*
X0383350Y0279119D03*
X0384350Y0289119D03*
X0384539Y0304214D03*
X0383539Y0314214D03*
X0384539Y0324214D03*
X0383539Y0334214D03*
X0384539Y0344214D03*
X0349409Y0240488D03*
X0339409Y0240488D03*
X0329409Y0240488D03*
X0319409Y0240488D03*
X0309409Y0240488D03*
X0309409Y0229488D03*
X0319409Y0229488D03*
X0329409Y0229488D03*
X0339409Y0229488D03*
X0349409Y0229488D03*
X0348669Y0191524D03*
X0338669Y0191524D03*
X0328669Y0191524D03*
X0318669Y0191524D03*
X0308669Y0191524D03*
X0308669Y0180524D03*
X0318669Y0180524D03*
X0328669Y0180524D03*
X0338669Y0180524D03*
X0348669Y0180524D03*
D11*
X0330800Y0354831D03*
X0284965Y0354431D03*
X0239405Y0354628D03*
D12*
X0258302Y0365849D03*
X0239405Y0379235D03*
X0284965Y0379038D03*
X0303862Y0365652D03*
X0330800Y0379438D03*
X0349698Y0366052D03*
D13*
X0318740Y0314056D03*
X0318740Y0284056D03*
X0202685Y0244135D03*
X0202685Y0214135D03*
X0198748Y0198741D03*
X0198748Y0188741D03*
X0320083Y0146854D03*
X0320083Y0116854D03*
X0129293Y0365133D03*
X0129293Y0385133D03*
X0067437Y0361386D03*
X0053429Y0361286D03*
X0053429Y0331286D03*
X0067437Y0331386D03*
X0057490Y0251559D03*
X0044685Y0250788D03*
X0044685Y0220788D03*
X0057490Y0221559D03*
D14*
X0157346Y0224839D03*
X0157346Y0234839D03*
X0157346Y0244839D03*
X0157346Y0254839D03*
X0157346Y0264839D03*
X0157346Y0274839D03*
X0157346Y0284839D03*
X0157346Y0294839D03*
X0157346Y0304839D03*
X0167346Y0294839D03*
X0167346Y0274839D03*
X0167346Y0264839D03*
X0167346Y0254839D03*
X0177346Y0244839D03*
X0177346Y0234839D03*
X0177346Y0224839D03*
X0177346Y0214839D03*
X0187346Y0214839D03*
X0187346Y0224839D03*
X0187346Y0234839D03*
X0187346Y0244839D03*
X0217346Y0244839D03*
X0217346Y0254839D03*
X0217346Y0264839D03*
X0217346Y0274839D03*
X0217346Y0284839D03*
X0217346Y0294839D03*
X0217346Y0234839D03*
X0217346Y0224839D03*
X0217346Y0214839D03*
X0217346Y0204839D03*
X0217346Y0194839D03*
X0217346Y0184839D03*
X0217346Y0174839D03*
X0217346Y0164839D03*
X0217346Y0154839D03*
X0217346Y0144839D03*
X0217346Y0134839D03*
X0217346Y0124839D03*
X0207346Y0124839D03*
X0197346Y0124839D03*
X0187346Y0124839D03*
X0187346Y0134839D03*
X0177346Y0134839D03*
X0177346Y0124839D03*
X0167346Y0124839D03*
X0157346Y0124839D03*
X0157346Y0134839D03*
X0157346Y0144839D03*
X0157346Y0154839D03*
X0157346Y0164839D03*
X0157346Y0174839D03*
X0157346Y0184839D03*
X0157346Y0194839D03*
X0157346Y0204839D03*
X0157346Y0214839D03*
X0177346Y0154839D03*
X0177346Y0144839D03*
X0187346Y0144839D03*
X0187346Y0154839D03*
X0187346Y0114839D03*
X0187346Y0104839D03*
X0177346Y0104839D03*
X0177346Y0114839D03*
X0157346Y0114839D03*
X0157346Y0104839D03*
X0157346Y0094839D03*
X0157346Y0084839D03*
X0157346Y0074839D03*
X0177346Y0074839D03*
X0177346Y0084839D03*
X0177346Y0094839D03*
X0187346Y0094839D03*
X0187346Y0084839D03*
X0187346Y0074839D03*
X0217346Y0074839D03*
X0217346Y0084839D03*
X0217346Y0094839D03*
X0217346Y0104839D03*
X0217346Y0114839D03*
D15*
X0217346Y0304839D03*
D16*
X0238714Y0257209D03*
X0238714Y0252209D03*
X0238714Y0247209D03*
X0238714Y0242209D03*
X0238714Y0237209D03*
X0238714Y0232209D03*
X0238714Y0227209D03*
X0238714Y0222209D03*
X0238714Y0217209D03*
X0238714Y0212209D03*
X0276509Y0212209D03*
X0276509Y0217209D03*
X0276509Y0222209D03*
X0276509Y0227209D03*
X0276509Y0232209D03*
X0276509Y0237209D03*
X0276509Y0242209D03*
X0276509Y0247209D03*
X0276509Y0252209D03*
X0276509Y0257209D03*
X0119355Y0254143D03*
X0119355Y0249143D03*
X0119355Y0244143D03*
X0119355Y0239143D03*
X0119355Y0234143D03*
X0119355Y0229143D03*
X0119355Y0224143D03*
X0119355Y0219143D03*
X0119355Y0214143D03*
X0119355Y0209143D03*
X0081560Y0209143D03*
X0081560Y0214143D03*
X0081560Y0219143D03*
X0081560Y0224143D03*
X0081560Y0229143D03*
X0081560Y0234143D03*
X0081560Y0239143D03*
X0081560Y0244143D03*
X0081560Y0249143D03*
X0081560Y0254143D03*
D17*
X0063079Y0286576D03*
X0053079Y0286576D03*
X0043079Y0286576D03*
X0043079Y0306576D03*
X0053079Y0306576D03*
X0063079Y0306576D03*
X0063079Y0141221D03*
X0053079Y0141221D03*
X0043079Y0141221D03*
X0043079Y0121221D03*
X0053079Y0121221D03*
X0063079Y0121221D03*
X0334417Y0121221D03*
X0344417Y0121221D03*
X0354417Y0121221D03*
X0354417Y0141221D03*
X0344417Y0141221D03*
X0334417Y0141221D03*
X0334417Y0286576D03*
X0344417Y0286576D03*
X0354417Y0286576D03*
X0354417Y0306576D03*
X0344417Y0306576D03*
X0334417Y0306576D03*
D18*
X0113884Y0342412D03*
X0113884Y0352412D03*
X0113884Y0362412D03*
X0113884Y0372412D03*
X0083884Y0372412D03*
X0083884Y0362412D03*
X0083884Y0352412D03*
X0083884Y0342412D03*
D19*
X0265662Y0324487D03*
X0275662Y0324487D03*
D20*
X0305662Y0324487D03*
X0335662Y0324487D03*
D21*
X0198748Y0311143D03*
X0198748Y0292639D03*
X0198748Y0274135D03*
D22*
X0267488Y0267048D03*
X0277488Y0267048D03*
X0287488Y0267048D03*
X0130008Y0267048D03*
X0120008Y0267048D03*
X0110008Y0267048D03*
X0110008Y0101694D03*
X0120008Y0101694D03*
X0130008Y0101694D03*
X0267488Y0101694D03*
X0277488Y0101694D03*
X0287488Y0101694D03*
D23*
X0296386Y0131221D03*
X0258591Y0131221D03*
X0138905Y0131221D03*
X0101110Y0131221D03*
X0101110Y0296576D03*
X0138905Y0296576D03*
X0258591Y0296576D03*
X0296386Y0296576D03*
D24*
X0025098Y0041300D02*
X0058698Y0007700D01*
X0355498Y0007700D01*
X0385098Y0037300D01*
X0385898Y0037300D01*
X0392298Y0043700D01*
X0392298Y0085700D01*
X0391898Y0086100D01*
X0361498Y0049700D02*
X0333498Y0021700D01*
X0327898Y0021700D02*
X0338298Y0032100D01*
X0338298Y0108900D01*
X0263098Y0184100D01*
X0263098Y0226900D01*
X0273098Y0236900D01*
X0276298Y0236900D01*
X0276509Y0237209D01*
X0276698Y0242100D02*
X0276509Y0242209D01*
X0276698Y0242100D02*
X0279498Y0242100D01*
X0281898Y0239700D01*
X0276509Y0232209D02*
X0276298Y0232100D01*
X0273498Y0232100D01*
X0266698Y0225300D01*
X0266698Y0208500D01*
X0327898Y0147300D01*
X0356698Y0147300D01*
X0361498Y0142500D01*
X0361498Y0049700D01*
X0309498Y0050100D02*
X0309498Y0042500D01*
X0301498Y0034500D01*
X0301110Y0034359D01*
X0301110Y0023359D02*
X0301098Y0023300D01*
X0289098Y0011300D01*
X0060298Y0011300D01*
X0034298Y0037300D01*
X0034298Y0144900D01*
X0039498Y0150100D01*
X0039898Y0150100D01*
X0048298Y0158500D01*
X0025098Y0157700D02*
X0025098Y0198500D01*
X0036298Y0191300D02*
X0042698Y0197700D01*
X0054298Y0197700D01*
X0067498Y0184500D01*
X0067661Y0184259D01*
X0079098Y0204900D02*
X0081098Y0206900D01*
X0081098Y0208100D01*
X0081560Y0209143D01*
X0081498Y0209300D01*
X0081498Y0214100D01*
X0081560Y0214143D01*
X0082698Y0214500D01*
X0084698Y0214500D01*
X0101898Y0231700D01*
X0101898Y0261700D01*
X0085098Y0278500D01*
X0071098Y0278500D01*
X0063098Y0286500D01*
X0063079Y0286576D01*
X0081898Y0254500D02*
X0081560Y0254143D01*
X0081898Y0254500D02*
X0086698Y0254500D01*
X0087498Y0255300D01*
X0087098Y0249300D02*
X0097898Y0260100D01*
X0087098Y0249300D02*
X0081898Y0249300D01*
X0081560Y0249143D01*
X0081498Y0244500D02*
X0081560Y0244143D01*
X0081498Y0244500D02*
X0064298Y0244500D01*
X0057498Y0251300D01*
X0057490Y0251559D01*
X0062698Y0238900D02*
X0044698Y0220900D01*
X0044685Y0220788D01*
X0049498Y0214500D02*
X0057098Y0206900D01*
X0062298Y0206900D01*
X0074298Y0218900D01*
X0081498Y0218900D01*
X0081560Y0219143D01*
X0081560Y0224143D02*
X0081898Y0224500D01*
X0084698Y0224500D01*
X0087098Y0226900D01*
X0091098Y0228900D02*
X0085898Y0234100D01*
X0081898Y0234100D01*
X0081560Y0234143D01*
X0081498Y0238900D02*
X0081560Y0239143D01*
X0081498Y0238900D02*
X0062698Y0238900D01*
X0078698Y0228900D02*
X0060698Y0210900D01*
X0078698Y0228900D02*
X0081498Y0228900D01*
X0081560Y0229143D01*
X0116698Y0199700D02*
X0116698Y0188100D01*
X0124298Y0180500D01*
X0124298Y0176100D01*
X0135898Y0163300D02*
X0138298Y0160900D01*
X0138298Y0157300D01*
X0135898Y0163300D02*
X0135898Y0208100D01*
X0185098Y0181700D02*
X0185098Y0163700D01*
X0198748Y0198741D02*
X0198698Y0198900D01*
X0198698Y0210900D01*
X0193098Y0216500D01*
X0193098Y0238900D01*
X0187498Y0244500D01*
X0187346Y0244839D01*
X0187898Y0245700D01*
X0198698Y0256500D01*
X0198698Y0274100D01*
X0198748Y0274135D01*
X0217346Y0304839D02*
X0217498Y0304900D01*
X0228298Y0315700D01*
X0264298Y0315700D01*
X0272698Y0324100D01*
X0275498Y0324100D01*
X0275662Y0324487D01*
X0273898Y0364900D02*
X0273898Y0368100D01*
X0284698Y0378900D01*
X0284965Y0379038D01*
X0330800Y0379438D02*
X0331098Y0379300D01*
X0331098Y0370500D01*
X0361498Y0340100D01*
X0361498Y0293700D01*
X0354698Y0286900D01*
X0354417Y0286576D01*
X0367098Y0265300D02*
X0367098Y0362900D01*
X0340298Y0389700D01*
X0235498Y0389700D01*
X0225898Y0380100D01*
X0113098Y0380100D01*
X0106698Y0373700D01*
X0106698Y0330500D01*
X0143898Y0306500D02*
X0158298Y0320900D01*
X0193498Y0320900D01*
X0273498Y0246900D02*
X0253498Y0226900D01*
X0253498Y0214900D01*
X0259098Y0222100D02*
X0259098Y0170500D01*
X0267498Y0162100D01*
X0231498Y0138100D02*
X0231498Y0124900D01*
X0257098Y0099300D01*
X0281110Y0077666D02*
X0281498Y0077700D01*
X0291098Y0087300D01*
X0301498Y0092500D02*
X0301498Y0077700D01*
X0301110Y0077666D01*
X0301498Y0092500D02*
X0305498Y0096500D01*
X0307098Y0052500D02*
X0309498Y0050100D01*
X0307098Y0052500D02*
X0219098Y0052500D01*
X0215098Y0056500D01*
X0221498Y0044500D02*
X0265898Y0044500D01*
X0265898Y0045300D01*
X0265898Y0044500D02*
X0271098Y0044500D01*
X0281098Y0034500D01*
X0281110Y0034359D01*
X0223098Y0072500D02*
X0219898Y0069300D01*
X0223098Y0072500D02*
X0223098Y0107700D01*
X0197098Y0116100D02*
X0197098Y0080100D01*
X0191498Y0074500D01*
X0221498Y0044500D01*
X0187098Y0052500D02*
X0145498Y0052500D01*
X0131098Y0066900D01*
X0131098Y0079300D01*
X0141898Y0066900D02*
X0149098Y0059700D01*
X0171898Y0059700D01*
X0161498Y0064900D02*
X0149498Y0064900D01*
X0122298Y0055300D02*
X0162298Y0015300D01*
X0187498Y0074500D02*
X0187346Y0074839D01*
X0187498Y0074500D02*
X0191498Y0074500D01*
X0136298Y0094900D02*
X0136298Y0104100D01*
X0129898Y0110500D01*
X0129898Y0129700D01*
X0117498Y0130900D02*
X0117498Y0154900D01*
X0063098Y0103300D02*
X0085498Y0080900D01*
X0085614Y0080800D01*
X0065614Y0080800D02*
X0065498Y0080900D01*
X0065498Y0089700D01*
X0053098Y0102100D01*
X0053098Y0120900D01*
X0053079Y0121221D01*
X0057498Y0103300D02*
X0063098Y0103300D01*
X0042698Y0083700D02*
X0042698Y0034500D01*
X0025098Y0041300D02*
X0025098Y0127300D01*
X0036298Y0185300D02*
X0036298Y0191300D01*
X0014209Y0212391D02*
X0013898Y0212500D01*
X0007098Y0219300D01*
X0007098Y0235300D01*
X0013898Y0242100D01*
X0014209Y0242454D01*
X0013498Y0243300D01*
X0007098Y0249700D01*
X0007098Y0346900D01*
X0010698Y0350500D01*
X0053498Y0350500D01*
X0053498Y0331300D01*
X0053429Y0331286D01*
X0053498Y0350500D02*
X0053498Y0354100D01*
X0062298Y0362900D01*
X0062298Y0372500D01*
X0083498Y0372500D01*
X0083884Y0372412D01*
X0064877Y0380902D02*
X0064698Y0380900D01*
X0062298Y0378500D01*
X0062298Y0372500D01*
X0273498Y0246900D02*
X0276298Y0246900D01*
X0276509Y0247209D01*
X0276509Y0252209D02*
X0277898Y0252500D01*
X0297098Y0252500D01*
X0309098Y0240500D01*
X0309409Y0240488D01*
X0307898Y0240500D01*
X0299498Y0232100D01*
X0286698Y0226900D02*
X0305098Y0208500D01*
X0308298Y0208500D01*
X0329098Y0229300D01*
X0329409Y0229488D01*
X0321498Y0248100D02*
X0307098Y0248100D01*
X0286698Y0226900D02*
X0276698Y0226900D01*
X0276509Y0227209D01*
X0276298Y0222500D02*
X0270698Y0222500D01*
X0276298Y0222500D02*
X0276509Y0222209D01*
X0276509Y0217209D02*
X0276298Y0216900D01*
X0273498Y0216900D01*
X0271098Y0214500D01*
X0271098Y0209300D01*
X0306298Y0174100D01*
X0321898Y0174100D01*
X0328298Y0180500D01*
X0328669Y0180524D01*
X0328669Y0191524D02*
X0328298Y0191700D01*
X0322298Y0197700D01*
X0310698Y0197700D01*
X0296298Y0212100D01*
X0276698Y0212100D01*
X0276509Y0212209D01*
X0290698Y0208100D02*
X0307098Y0191700D01*
X0308298Y0191700D01*
X0308669Y0191524D01*
X0276509Y0252209D02*
X0276698Y0252500D01*
X0276698Y0256900D01*
X0276509Y0257209D01*
X0065098Y0053300D02*
X0065098Y0035700D01*
X0065455Y0035669D01*
D25*
X0065098Y0053300D03*
X0061098Y0056900D03*
X0049898Y0061700D03*
X0042698Y0083700D03*
X0057498Y0103300D03*
X0057098Y0107700D03*
X0057498Y0112100D03*
X0073098Y0107700D03*
X0089898Y0093700D03*
X0095498Y0104100D03*
X0107898Y0090500D03*
X0113498Y0071700D03*
X0122298Y0055300D03*
X0112298Y0042500D03*
X0089498Y0045300D03*
X0089098Y0049700D03*
X0131098Y0079300D03*
X0138298Y0080900D03*
X0136298Y0094900D03*
X0152698Y0101300D03*
X0154298Y0109700D03*
X0147898Y0111700D03*
X0149898Y0118900D03*
X0165898Y0106900D03*
X0163098Y0097300D03*
X0169098Y0090500D03*
X0172698Y0078100D03*
X0161498Y0064900D03*
X0151098Y0073300D03*
X0149498Y0064900D03*
X0141898Y0066900D03*
X0137498Y0066100D03*
X0171898Y0059700D03*
X0176298Y0060900D03*
X0187098Y0052500D03*
X0212698Y0037700D03*
X0215098Y0056500D03*
X0214698Y0060900D03*
X0219898Y0069300D03*
X0233098Y0048500D03*
X0265898Y0045300D03*
X0269498Y0040500D03*
X0265498Y0070500D03*
X0257098Y0099300D03*
X0239098Y0100100D03*
X0223098Y0107700D03*
X0230298Y0120500D03*
X0225498Y0124900D03*
X0231498Y0138100D03*
X0243098Y0138100D03*
X0246698Y0141300D03*
X0246698Y0164500D03*
X0243098Y0168500D03*
X0233898Y0171300D03*
X0248698Y0188900D03*
X0255098Y0192100D03*
X0245098Y0197300D03*
X0233898Y0195700D03*
X0228698Y0200100D03*
X0212698Y0191300D03*
X0205898Y0175700D03*
X0189098Y0172900D03*
X0185098Y0181700D03*
X0181098Y0183700D03*
X0185498Y0196100D03*
X0181898Y0198900D03*
X0178698Y0205700D03*
X0165098Y0214900D03*
X0161898Y0209700D03*
X0150298Y0202500D03*
X0143098Y0209300D03*
X0135898Y0208100D03*
X0133498Y0218900D03*
X0133898Y0224100D03*
X0130698Y0232100D03*
X0125098Y0237700D03*
X0130698Y0249300D03*
X0113098Y0225300D03*
X0101498Y0204900D03*
X0109498Y0201700D03*
X0116698Y0199700D03*
X0121898Y0197300D03*
X0139898Y0187300D03*
X0146698Y0174100D03*
X0151098Y0174500D03*
X0151498Y0163700D03*
X0163098Y0155700D03*
X0166298Y0149300D03*
X0171098Y0135300D03*
X0190298Y0139700D03*
X0197098Y0116100D03*
X0208298Y0106100D03*
X0182298Y0100900D03*
X0135898Y0145700D03*
X0141098Y0149700D03*
X0138298Y0157300D03*
X0119898Y0160900D03*
X0117498Y0154900D03*
X0119898Y0166100D03*
X0124298Y0176100D03*
X0089498Y0205300D03*
X0092698Y0213700D03*
X0087098Y0226900D03*
X0091098Y0228900D03*
X0087498Y0255300D03*
X0097898Y0260100D03*
X0108298Y0273300D03*
X0079898Y0282500D03*
X0069498Y0307700D03*
X0069498Y0312900D03*
X0103098Y0310100D03*
X0106698Y0330500D03*
X0111098Y0331300D03*
X0130298Y0306500D03*
X0143898Y0306500D03*
X0153098Y0310100D03*
X0143498Y0331300D03*
X0184298Y0316900D03*
X0193498Y0320900D03*
X0205898Y0328100D03*
X0221098Y0331700D03*
X0191898Y0304500D03*
X0208698Y0278500D03*
X0187898Y0272900D03*
X0184298Y0259300D03*
X0209498Y0242900D03*
X0209498Y0223700D03*
X0206298Y0218100D03*
X0164698Y0230900D03*
X0163098Y0225700D03*
X0165098Y0182500D03*
X0177498Y0167700D03*
X0185098Y0163700D03*
X0129898Y0129700D03*
X0117498Y0130900D03*
X0091498Y0134900D03*
X0085098Y0138900D03*
X0059898Y0155700D03*
X0052698Y0157700D03*
X0048298Y0158500D03*
X0061498Y0176500D03*
X0044298Y0193700D03*
X0040698Y0185700D03*
X0036298Y0185300D03*
X0019898Y0180900D03*
X0025098Y0198500D03*
X0033498Y0212900D03*
X0049498Y0214500D03*
X0060698Y0210900D03*
X0068298Y0195300D03*
X0077098Y0198100D03*
X0079098Y0204900D03*
X0025098Y0157700D03*
X0025098Y0127300D03*
X0042698Y0034500D03*
X0153098Y0018900D03*
X0162298Y0015300D03*
X0287098Y0110100D03*
X0305498Y0096500D03*
X0305898Y0091300D03*
X0291098Y0087300D03*
X0305498Y0048500D03*
X0329898Y0044900D03*
X0327898Y0028900D03*
X0327898Y0021700D03*
X0333498Y0021700D03*
X0391898Y0086100D03*
X0311498Y0169700D03*
X0330298Y0203300D03*
X0306698Y0212500D03*
X0295898Y0223700D03*
X0299498Y0232100D03*
X0307098Y0248100D03*
X0321498Y0248100D03*
X0330698Y0260500D03*
X0344298Y0264900D03*
X0345898Y0260500D03*
X0363098Y0280900D03*
X0371098Y0274900D03*
X0367098Y0265300D03*
X0370298Y0216900D03*
X0359898Y0209700D03*
X0359898Y0200900D03*
X0290698Y0208100D03*
X0270698Y0222500D03*
X0259098Y0222100D03*
X0253498Y0214900D03*
X0281898Y0239700D03*
X0257098Y0266100D03*
X0285098Y0300500D03*
X0274298Y0308900D03*
X0289498Y0312500D03*
X0296698Y0285700D03*
X0251898Y0327700D03*
X0251898Y0332500D03*
X0254698Y0350900D03*
X0250698Y0352900D03*
X0262698Y0354500D03*
X0273898Y0364900D03*
X0376698Y0349700D03*
X0274698Y0180900D03*
X0267498Y0162100D03*
X0143098Y0286100D03*
X0029498Y0319300D03*
D26*
X0031898Y0323300D02*
X0031098Y0324100D01*
X0013498Y0324100D01*
X0013209Y0324200D01*
X0031898Y0323300D02*
X0088698Y0323300D01*
X0101898Y0310100D01*
X0103098Y0310100D01*
X0111098Y0331300D02*
X0143498Y0331300D01*
X0162698Y0331700D02*
X0221098Y0331700D01*
X0222698Y0335300D02*
X0230298Y0327700D01*
X0251898Y0327700D01*
X0254298Y0346100D02*
X0269898Y0346100D01*
X0304298Y0311700D01*
X0304298Y0293300D01*
X0296698Y0285700D01*
X0307498Y0269700D02*
X0330698Y0269700D01*
X0355498Y0244900D01*
X0369498Y0258900D01*
X0384298Y0258900D01*
X0384453Y0259139D01*
X0383453Y0249139D02*
X0383098Y0248900D01*
X0383098Y0246100D01*
X0366698Y0229700D01*
X0366698Y0213300D01*
X0358298Y0213300D01*
X0348298Y0203300D01*
X0330298Y0203300D01*
X0348698Y0180900D02*
X0348669Y0180524D01*
X0348698Y0180900D02*
X0371898Y0180900D01*
X0383898Y0192900D01*
X0384287Y0193146D01*
X0383331Y0213119D02*
X0383098Y0213300D01*
X0366698Y0213300D01*
X0359898Y0209700D02*
X0359898Y0200900D01*
X0349409Y0229488D02*
X0349498Y0229700D01*
X0355498Y0235700D01*
X0355498Y0244900D01*
X0345898Y0260500D02*
X0367098Y0260500D01*
X0368298Y0261700D01*
X0368698Y0261700D01*
X0375498Y0268500D01*
X0375498Y0315300D01*
X0384298Y0324100D01*
X0384539Y0324214D01*
X0383498Y0334100D02*
X0383539Y0334214D01*
X0383498Y0334100D02*
X0371098Y0321700D01*
X0371098Y0274900D01*
X0363098Y0280900D02*
X0332298Y0280900D01*
X0329098Y0284100D01*
X0329098Y0294900D01*
X0313898Y0310100D01*
X0313898Y0323300D01*
X0307498Y0329700D01*
X0295098Y0329700D01*
X0270298Y0354500D01*
X0262698Y0354500D01*
X0269098Y0350900D02*
X0326298Y0293700D01*
X0326298Y0282900D01*
X0344298Y0264900D01*
X0334298Y0262100D02*
X0334298Y0255300D01*
X0319498Y0240500D01*
X0319409Y0240488D01*
X0330698Y0260500D02*
X0272698Y0260500D01*
X0249898Y0237700D01*
X0249898Y0212100D01*
X0245098Y0207300D01*
X0245098Y0197300D01*
X0233898Y0195700D02*
X0233898Y0200100D01*
X0247098Y0213300D01*
X0247098Y0249700D01*
X0261898Y0264500D01*
X0261898Y0269300D01*
X0265498Y0272900D01*
X0271498Y0272900D01*
X0277098Y0267300D01*
X0277488Y0267048D01*
X0287488Y0267048D02*
X0287498Y0266900D01*
X0329498Y0266900D01*
X0334298Y0262100D01*
X0307498Y0269700D02*
X0274298Y0302900D01*
X0274298Y0308900D01*
X0254298Y0346100D02*
X0250698Y0349700D01*
X0250698Y0352900D01*
X0254698Y0350900D02*
X0269098Y0350900D01*
X0222698Y0335300D02*
X0162298Y0335300D01*
X0133498Y0306500D01*
X0130298Y0306500D01*
X0130698Y0299700D02*
X0162698Y0331700D01*
X0159498Y0310100D02*
X0153098Y0310100D01*
X0159498Y0310100D02*
X0172698Y0296900D01*
X0172698Y0262900D01*
X0167498Y0257700D01*
X0167498Y0254900D01*
X0167346Y0254839D01*
X0169498Y0249700D02*
X0165098Y0249700D01*
X0160298Y0254500D01*
X0157498Y0254500D01*
X0157346Y0254839D01*
X0157346Y0264839D02*
X0157098Y0264900D01*
X0157098Y0266900D01*
X0130698Y0293300D01*
X0130698Y0299700D01*
X0143098Y0286100D02*
X0154298Y0274900D01*
X0157098Y0274900D01*
X0157346Y0274839D01*
X0181498Y0261700D02*
X0169498Y0249700D01*
X0181498Y0261700D02*
X0181498Y0314100D01*
X0184298Y0316900D01*
X0184298Y0306500D02*
X0205898Y0328100D01*
X0184298Y0306500D02*
X0184298Y0259300D01*
X0130008Y0267048D02*
X0129898Y0267300D01*
X0127898Y0267300D01*
X0109098Y0286100D01*
X0091098Y0286100D01*
X0069498Y0307700D01*
X0104298Y0269300D02*
X0104298Y0264100D01*
X0105098Y0263300D01*
X0105098Y0220900D01*
X0089498Y0205300D01*
X0109498Y0206900D02*
X0113098Y0203300D01*
X0113098Y0186900D01*
X0120698Y0179300D01*
X0120698Y0170500D01*
X0131898Y0159300D01*
X0131898Y0149700D01*
X0135898Y0145700D01*
X0134298Y0139300D02*
X0104298Y0109300D01*
X0104298Y0099300D01*
X0117098Y0086500D01*
X0117098Y0059300D01*
X0108698Y0050900D01*
X0102698Y0056900D01*
X0061098Y0056900D01*
X0046298Y0035700D02*
X0063098Y0018900D01*
X0153098Y0018900D01*
X0147498Y0056100D02*
X0176698Y0056100D01*
X0182698Y0062100D01*
X0169098Y0075700D01*
X0169098Y0090500D01*
X0165498Y0092100D02*
X0165498Y0071700D01*
X0163498Y0069700D01*
X0144298Y0069700D01*
X0134698Y0079300D01*
X0134698Y0082500D01*
X0142698Y0090500D01*
X0142698Y0100500D01*
X0147898Y0105700D01*
X0147898Y0111700D01*
X0149898Y0118900D02*
X0139898Y0108900D01*
X0139898Y0093300D01*
X0119898Y0073300D01*
X0119898Y0058100D01*
X0112298Y0050500D01*
X0112298Y0042500D01*
X0108698Y0040500D02*
X0111498Y0037700D01*
X0111498Y0030900D01*
X0105498Y0024900D01*
X0105455Y0024669D01*
X0105455Y0035669D02*
X0105098Y0035700D01*
X0095498Y0045300D01*
X0089498Y0045300D01*
X0108698Y0040500D02*
X0108698Y0050900D01*
X0105614Y0069800D02*
X0105898Y0070100D01*
X0111498Y0075700D01*
X0111498Y0083300D01*
X0107898Y0086900D01*
X0106298Y0086900D01*
X0091898Y0101300D01*
X0091898Y0134500D01*
X0091498Y0134900D01*
X0091898Y0134500D02*
X0118298Y0160900D01*
X0119898Y0160900D01*
X0119898Y0166100D02*
X0117498Y0166100D01*
X0087898Y0136500D01*
X0087898Y0112100D01*
X0057498Y0112100D01*
X0057098Y0107700D02*
X0073098Y0107700D01*
X0087898Y0112100D02*
X0087898Y0100900D01*
X0105498Y0083300D01*
X0105498Y0080900D01*
X0105614Y0080800D01*
X0108698Y0089700D02*
X0109098Y0089700D01*
X0114298Y0084500D01*
X0114298Y0072500D01*
X0113498Y0071700D01*
X0108698Y0089700D02*
X0107898Y0090500D01*
X0137498Y0066100D02*
X0147498Y0056100D01*
X0165498Y0071700D02*
X0176298Y0060900D01*
X0182698Y0062100D02*
X0207098Y0037700D01*
X0212698Y0037700D01*
X0218298Y0058500D02*
X0313098Y0058500D01*
X0321098Y0066500D01*
X0321110Y0066666D01*
X0329898Y0086500D02*
X0246698Y0169700D01*
X0246698Y0170100D01*
X0244698Y0172100D01*
X0234698Y0172100D01*
X0233898Y0171300D01*
X0246698Y0164500D02*
X0246698Y0141300D01*
X0230298Y0120500D02*
X0230298Y0074500D01*
X0221498Y0065700D01*
X0218298Y0065700D01*
X0212298Y0071700D01*
X0212298Y0076900D01*
X0217098Y0081700D01*
X0217098Y0084500D01*
X0217346Y0084839D01*
X0215898Y0060900D02*
X0218298Y0058500D01*
X0215898Y0060900D02*
X0214698Y0060900D01*
X0233098Y0048500D02*
X0263898Y0048500D01*
X0264298Y0048900D01*
X0275898Y0048900D01*
X0290298Y0034500D01*
X0291110Y0034359D01*
X0291498Y0034500D01*
X0305498Y0048500D01*
X0329898Y0044900D02*
X0329898Y0086500D01*
X0294698Y0088900D02*
X0294698Y0080900D01*
X0291498Y0077700D01*
X0291110Y0077666D01*
X0294698Y0088900D02*
X0287498Y0096100D01*
X0287498Y0101300D01*
X0287488Y0101694D01*
X0277488Y0101694D02*
X0277098Y0101300D01*
X0277098Y0082100D01*
X0265498Y0070500D01*
X0321110Y0023359D02*
X0321498Y0023300D01*
X0324298Y0020500D01*
X0324298Y0020100D01*
X0326298Y0018100D01*
X0357898Y0018100D01*
X0383098Y0043300D01*
X0383287Y0043465D01*
X0384287Y0053465D02*
X0384298Y0053700D01*
X0389098Y0058500D01*
X0389098Y0076100D01*
X0384298Y0080900D01*
X0384298Y0083300D01*
X0384287Y0083536D01*
X0384698Y0084100D01*
X0389098Y0088500D01*
X0389098Y0109700D01*
X0384298Y0114500D01*
X0384298Y0116900D01*
X0384287Y0117284D01*
X0383350Y0279119D02*
X0383098Y0279300D01*
X0378298Y0284100D01*
X0378298Y0306100D01*
X0383498Y0311300D01*
X0383498Y0314100D01*
X0383539Y0314214D01*
X0177346Y0104839D02*
X0177098Y0104500D01*
X0177098Y0103700D01*
X0165498Y0092100D01*
X0157346Y0134839D02*
X0157098Y0134900D01*
X0146698Y0134900D01*
X0142298Y0139300D01*
X0134298Y0139300D01*
X0146698Y0174100D02*
X0146698Y0181300D01*
X0157098Y0191700D01*
X0157098Y0194500D01*
X0157346Y0194839D01*
X0109498Y0206900D02*
X0109498Y0254500D01*
X0119898Y0264900D01*
X0119898Y0266900D01*
X0120008Y0267048D01*
X0108298Y0273300D02*
X0104298Y0269300D01*
X0061898Y0162100D02*
X0046698Y0162100D01*
X0038698Y0154100D01*
X0013098Y0154100D01*
X0012894Y0153898D01*
X0037498Y0143300D02*
X0037498Y0094100D01*
X0046298Y0085300D01*
X0046298Y0035700D01*
X0019098Y0064900D02*
X0019098Y0082100D01*
X0014298Y0086900D01*
X0014098Y0087095D01*
X0019098Y0064900D02*
X0014298Y0060100D01*
X0014298Y0057300D01*
X0014098Y0057095D01*
X0085098Y0138900D02*
X0061898Y0162100D01*
X0052698Y0157700D02*
X0041898Y0146900D01*
X0041098Y0146900D01*
X0037498Y0143300D01*
D27*
X0044698Y0131300D02*
X0041898Y0128500D01*
X0041898Y0122100D01*
X0042698Y0121300D01*
X0043079Y0121221D01*
X0044698Y0131300D02*
X0050298Y0131300D01*
X0057898Y0138900D01*
X0057898Y0142900D01*
X0059898Y0144900D01*
X0059898Y0155700D01*
X0053098Y0173300D02*
X0040698Y0185700D01*
X0044298Y0193700D02*
X0061498Y0176500D01*
X0067498Y0173300D02*
X0067661Y0173259D01*
X0067498Y0173300D02*
X0053098Y0173300D01*
X0069498Y0189700D02*
X0082298Y0189700D01*
X0087498Y0184500D01*
X0087661Y0184259D01*
X0097661Y0184259D02*
X0097898Y0184500D01*
X0109498Y0196100D01*
X0109498Y0201700D01*
X0101498Y0204900D02*
X0093898Y0204900D01*
X0083898Y0194900D01*
X0068698Y0194900D01*
X0068298Y0195300D01*
X0069498Y0189700D02*
X0046298Y0212900D01*
X0033498Y0212900D01*
X0019898Y0180900D02*
X0013098Y0174100D01*
X0012894Y0173898D01*
X0012972Y0143930D02*
X0012698Y0143700D01*
X0007498Y0138500D01*
X0007498Y0121700D01*
X0013098Y0116100D01*
X0013098Y0097300D01*
X0013098Y0097095D01*
X0049898Y0061700D02*
X0057498Y0061700D01*
X0065498Y0069700D01*
X0065614Y0069800D01*
X0057498Y0061700D02*
X0057498Y0035700D01*
X0065098Y0028100D01*
X0065098Y0024900D01*
X0065455Y0024669D01*
X0085898Y0044100D02*
X0094298Y0035700D01*
X0095098Y0035700D01*
X0095455Y0035669D01*
X0085898Y0044100D02*
X0085898Y0046500D01*
X0089098Y0049700D01*
X0095614Y0080800D02*
X0095498Y0080900D01*
X0089898Y0086500D01*
X0089898Y0093700D01*
X0095498Y0104100D02*
X0133498Y0142100D01*
X0137898Y0142100D01*
X0145498Y0149700D01*
X0159098Y0149700D01*
X0159498Y0149300D01*
X0166298Y0149300D01*
X0169498Y0148100D02*
X0169498Y0159300D01*
X0158698Y0170100D01*
X0155498Y0170100D01*
X0151098Y0174500D01*
X0157346Y0174839D02*
X0157498Y0174900D01*
X0165098Y0182500D01*
X0171098Y0187700D02*
X0171098Y0135300D01*
X0177098Y0134500D02*
X0177098Y0131300D01*
X0171898Y0126100D01*
X0171898Y0112900D01*
X0165898Y0106900D01*
X0162698Y0103700D02*
X0159098Y0100100D01*
X0155898Y0100100D01*
X0152698Y0096900D01*
X0152698Y0092900D01*
X0157098Y0088500D01*
X0157098Y0084900D01*
X0157346Y0084839D01*
X0145498Y0088100D02*
X0138298Y0080900D01*
X0145498Y0088100D02*
X0145498Y0099700D01*
X0154298Y0108500D01*
X0154298Y0109700D01*
X0152698Y0101300D02*
X0152698Y0099300D01*
X0151098Y0097700D01*
X0151098Y0073300D01*
X0172698Y0078100D02*
X0172698Y0086900D01*
X0175498Y0089700D01*
X0178698Y0089700D01*
X0182298Y0093300D01*
X0182298Y0100900D01*
X0179098Y0109700D02*
X0175498Y0109700D01*
X0163098Y0097300D01*
X0162698Y0103700D02*
X0162698Y0141300D01*
X0169498Y0148100D01*
X0163098Y0155700D02*
X0158698Y0160100D01*
X0150698Y0160100D01*
X0139898Y0170900D01*
X0139898Y0187300D01*
X0143098Y0188500D02*
X0143098Y0172100D01*
X0151498Y0163700D01*
X0141098Y0149700D02*
X0134698Y0156100D01*
X0134698Y0160100D01*
X0132298Y0162500D01*
X0132298Y0209300D01*
X0137098Y0214100D01*
X0137098Y0225300D01*
X0133498Y0228900D01*
X0119498Y0228900D01*
X0119355Y0229143D01*
X0119355Y0224143D02*
X0119498Y0224100D01*
X0133898Y0224100D01*
X0133498Y0218900D02*
X0119498Y0218900D01*
X0119355Y0219143D01*
X0113098Y0225300D02*
X0113098Y0254500D01*
X0115498Y0256900D01*
X0129898Y0256900D01*
X0151098Y0235700D01*
X0151098Y0234100D01*
X0155098Y0230100D01*
X0158698Y0230100D01*
X0163098Y0225700D01*
X0165098Y0223300D02*
X0167898Y0226100D01*
X0167898Y0240900D01*
X0158698Y0250100D01*
X0155098Y0250100D01*
X0137098Y0268100D01*
X0137098Y0271300D01*
X0092298Y0316100D01*
X0065498Y0316100D01*
X0057898Y0308500D01*
X0057898Y0304500D01*
X0049898Y0296500D01*
X0044298Y0296500D01*
X0041898Y0294100D01*
X0041898Y0287700D01*
X0042698Y0286900D01*
X0043079Y0286576D01*
X0037898Y0284900D02*
X0037898Y0308500D01*
X0041098Y0311700D01*
X0047898Y0311700D01*
X0052698Y0306900D01*
X0053079Y0306576D01*
X0069498Y0312900D02*
X0093498Y0288900D01*
X0115898Y0288900D01*
X0135498Y0269300D01*
X0135498Y0259700D01*
X0155098Y0240100D01*
X0158698Y0240100D01*
X0164698Y0234100D01*
X0164698Y0230900D01*
X0165098Y0223300D02*
X0165098Y0214900D01*
X0161898Y0209700D02*
X0192298Y0179300D01*
X0192298Y0153300D01*
X0187498Y0148500D01*
X0187498Y0144900D01*
X0187346Y0144839D01*
X0190298Y0139700D02*
X0192298Y0137700D01*
X0192298Y0123300D01*
X0193498Y0122100D01*
X0193498Y0092100D01*
X0187498Y0086100D01*
X0187498Y0084900D01*
X0187346Y0084839D01*
X0188698Y0089700D02*
X0185498Y0089700D01*
X0182298Y0086500D01*
X0182298Y0072900D01*
X0237098Y0018100D01*
X0285898Y0018100D01*
X0291098Y0023300D01*
X0291110Y0023359D01*
X0281110Y0023359D02*
X0281098Y0023700D01*
X0281098Y0026500D01*
X0269498Y0038100D01*
X0269498Y0040500D01*
X0285898Y0061300D02*
X0291098Y0066500D01*
X0291110Y0066666D01*
X0285898Y0061300D02*
X0219098Y0061300D01*
X0209498Y0070900D01*
X0209498Y0077700D01*
X0211498Y0079700D01*
X0211498Y0107300D01*
X0211098Y0107700D01*
X0211098Y0109300D01*
X0202698Y0117700D01*
X0202698Y0171300D01*
X0172698Y0201300D01*
X0172698Y0216900D01*
X0177098Y0221300D01*
X0177098Y0224500D01*
X0177346Y0224839D01*
X0181898Y0236900D02*
X0181898Y0198900D01*
X0178698Y0197700D02*
X0212698Y0163700D01*
X0212698Y0109300D01*
X0217098Y0104900D01*
X0217346Y0104839D01*
X0208298Y0106100D02*
X0208298Y0109700D01*
X0197498Y0120500D01*
X0197498Y0124500D01*
X0197346Y0124839D01*
X0191898Y0116900D02*
X0189098Y0119700D01*
X0185498Y0119700D01*
X0182298Y0122900D01*
X0182298Y0156500D01*
X0181098Y0157700D01*
X0181098Y0183700D01*
X0171098Y0187700D02*
X0159098Y0199700D01*
X0155498Y0199700D01*
X0155098Y0199300D01*
X0149098Y0199300D01*
X0143098Y0205300D01*
X0143098Y0209300D01*
X0150298Y0202500D02*
X0150298Y0216900D01*
X0131898Y0235300D01*
X0129498Y0235300D01*
X0128698Y0234500D01*
X0119498Y0234500D01*
X0119355Y0234143D01*
X0119498Y0238900D02*
X0119355Y0239143D01*
X0119498Y0238900D02*
X0123898Y0238900D01*
X0125098Y0237700D01*
X0130698Y0232100D02*
X0132698Y0232100D01*
X0139898Y0224900D01*
X0139898Y0191700D01*
X0143098Y0188500D01*
X0157098Y0204900D02*
X0157346Y0204839D01*
X0157098Y0204900D02*
X0152698Y0209300D01*
X0152698Y0216900D01*
X0125498Y0244100D01*
X0119498Y0244100D01*
X0119355Y0244143D01*
X0119355Y0249143D02*
X0119498Y0249300D01*
X0130698Y0249300D01*
X0130298Y0254100D02*
X0149498Y0234900D01*
X0149498Y0222500D01*
X0157098Y0214900D01*
X0157346Y0214839D01*
X0178698Y0205700D02*
X0178698Y0197700D01*
X0185498Y0196100D02*
X0205898Y0175700D01*
X0209498Y0176100D02*
X0209498Y0223700D01*
X0206298Y0224900D02*
X0209498Y0228100D01*
X0209498Y0242900D01*
X0217346Y0244839D02*
X0217498Y0244500D01*
X0229498Y0232500D01*
X0238698Y0232500D01*
X0238714Y0232209D01*
X0238714Y0237209D02*
X0238698Y0237300D01*
X0234698Y0237300D01*
X0217498Y0254500D01*
X0217346Y0254839D01*
X0217498Y0262100D02*
X0217498Y0264500D01*
X0217346Y0264839D01*
X0217498Y0262100D02*
X0237098Y0242500D01*
X0238698Y0242500D01*
X0238714Y0242209D01*
X0238714Y0247209D02*
X0238698Y0247300D01*
X0236698Y0247300D01*
X0221898Y0262100D01*
X0221898Y0270100D01*
X0217498Y0274500D01*
X0217346Y0274839D01*
X0212698Y0269700D02*
X0212698Y0199300D01*
X0217098Y0194900D01*
X0217346Y0194839D01*
X0214298Y0191300D02*
X0215898Y0189700D01*
X0247898Y0189700D01*
X0248698Y0188900D01*
X0255098Y0192100D02*
X0232698Y0192100D01*
X0228698Y0196100D01*
X0228698Y0200100D01*
X0217498Y0204900D02*
X0224698Y0212100D01*
X0238698Y0212100D01*
X0238714Y0212209D01*
X0238698Y0216900D02*
X0238714Y0217209D01*
X0238698Y0216900D02*
X0219498Y0216900D01*
X0217498Y0214900D01*
X0217346Y0214839D01*
X0219498Y0222500D02*
X0217498Y0224500D01*
X0217346Y0224839D01*
X0219498Y0222500D02*
X0238698Y0222500D01*
X0238714Y0222209D01*
X0238714Y0227209D02*
X0238698Y0227300D01*
X0224698Y0227300D01*
X0217498Y0234500D01*
X0217346Y0234839D01*
X0206298Y0224900D02*
X0206298Y0218100D01*
X0217346Y0204839D02*
X0217498Y0204900D01*
X0214298Y0191300D02*
X0212698Y0191300D01*
X0217346Y0184839D02*
X0217498Y0184500D01*
X0240298Y0184500D01*
X0284298Y0140500D01*
X0302298Y0140500D01*
X0335098Y0107700D01*
X0335098Y0036100D01*
X0327898Y0028900D01*
X0323498Y0028900D02*
X0316698Y0028900D01*
X0311498Y0023700D01*
X0311110Y0023359D01*
X0323498Y0028900D02*
X0333498Y0038900D01*
X0333498Y0086500D01*
X0315898Y0104100D01*
X0315898Y0122500D01*
X0299498Y0138900D01*
X0283498Y0138900D01*
X0247498Y0174900D01*
X0217498Y0174900D01*
X0217346Y0174839D01*
X0217098Y0168500D02*
X0209498Y0176100D01*
X0217098Y0168500D02*
X0217098Y0164900D01*
X0217346Y0164839D01*
X0217346Y0154839D02*
X0217498Y0154500D01*
X0222298Y0154500D01*
X0245898Y0130900D01*
X0245898Y0126900D01*
X0262698Y0110100D01*
X0287098Y0110100D01*
X0305498Y0106900D02*
X0326698Y0085700D01*
X0326698Y0075300D01*
X0323498Y0072100D01*
X0316698Y0072100D01*
X0311498Y0066900D01*
X0311110Y0066666D01*
X0311110Y0077666D02*
X0311098Y0077700D01*
X0305898Y0082900D01*
X0305898Y0091300D01*
X0305498Y0106900D02*
X0263498Y0106900D01*
X0244298Y0126100D01*
X0244298Y0130100D01*
X0229898Y0144500D01*
X0217498Y0144500D01*
X0217346Y0144839D01*
X0217498Y0124900D02*
X0217346Y0124839D01*
X0217498Y0124900D02*
X0225498Y0124900D01*
X0243098Y0138100D02*
X0243098Y0168500D01*
X0274698Y0180900D02*
X0334298Y0121300D01*
X0334417Y0121221D01*
X0377498Y0121300D02*
X0377498Y0105300D01*
X0383098Y0099700D01*
X0383098Y0093700D01*
X0383287Y0093536D01*
X0377498Y0121300D02*
X0383098Y0126900D01*
X0383287Y0127284D01*
X0383098Y0127300D01*
X0383098Y0130500D01*
X0377498Y0136100D01*
X0377498Y0152100D01*
X0383098Y0157700D01*
X0383287Y0157981D01*
X0382298Y0167700D02*
X0386298Y0167700D01*
X0391898Y0173300D01*
X0391898Y0346900D01*
X0385898Y0352900D01*
X0375498Y0352900D01*
X0373498Y0350900D01*
X0373498Y0348500D01*
X0377498Y0344500D01*
X0384298Y0344500D01*
X0384539Y0344214D01*
X0386698Y0349700D02*
X0390298Y0346100D01*
X0390298Y0236900D01*
X0370298Y0216900D01*
X0384331Y0203119D02*
X0383498Y0201700D01*
X0389898Y0195300D01*
X0389898Y0178900D01*
X0384298Y0173300D01*
X0384287Y0173146D01*
X0380298Y0169700D02*
X0382298Y0167700D01*
X0380298Y0169700D02*
X0311498Y0169700D01*
X0308669Y0180524D02*
X0308698Y0180900D01*
X0311498Y0180900D01*
X0316698Y0186100D01*
X0367498Y0186100D01*
X0384298Y0202900D01*
X0384331Y0203119D01*
X0339098Y0240100D02*
X0339409Y0240488D01*
X0339098Y0240100D02*
X0333898Y0234900D01*
X0307098Y0234900D01*
X0295898Y0223700D01*
X0309098Y0229300D02*
X0309098Y0214900D01*
X0306698Y0212500D01*
X0309098Y0229300D02*
X0309409Y0229488D01*
X0246298Y0294900D02*
X0263898Y0312500D01*
X0289498Y0312500D01*
X0251898Y0332500D02*
X0229098Y0332500D01*
X0215098Y0346500D01*
X0119498Y0346500D01*
X0113898Y0352100D01*
X0113884Y0352412D01*
X0091898Y0326100D02*
X0152298Y0265700D01*
X0152298Y0262900D01*
X0155098Y0260100D01*
X0159498Y0260100D01*
X0162298Y0262900D01*
X0162298Y0279700D01*
X0157498Y0284500D01*
X0157346Y0284839D01*
X0130298Y0254100D02*
X0119498Y0254100D01*
X0119355Y0254143D01*
X0110008Y0267048D02*
X0110298Y0267300D01*
X0111898Y0268900D01*
X0111898Y0274500D01*
X0103898Y0282500D01*
X0079898Y0282500D01*
X0044298Y0278500D02*
X0044298Y0250900D01*
X0044685Y0250788D01*
X0044298Y0278500D02*
X0037898Y0284900D01*
X0052298Y0326100D02*
X0091898Y0326100D01*
X0052298Y0326100D02*
X0034298Y0344100D01*
X0013498Y0344100D01*
X0013209Y0344200D01*
X0092698Y0213700D02*
X0077098Y0198100D01*
X0177498Y0167700D02*
X0177498Y0154900D01*
X0177346Y0154839D01*
X0187346Y0154839D02*
X0187498Y0154900D01*
X0187498Y0161300D01*
X0189098Y0162900D01*
X0189098Y0172900D01*
X0177346Y0134839D02*
X0177098Y0134500D01*
X0191898Y0116900D02*
X0191898Y0092900D01*
X0188698Y0089700D01*
X0179098Y0109700D02*
X0183898Y0114500D01*
X0187098Y0114500D01*
X0187346Y0114839D01*
X0239098Y0100100D02*
X0248298Y0100100D01*
X0252698Y0095700D01*
X0267098Y0095700D01*
X0267098Y0101300D01*
X0267488Y0101694D01*
X0267098Y0095700D02*
X0267098Y0076900D01*
X0261898Y0071700D01*
X0261898Y0069300D01*
X0264298Y0066900D01*
X0281098Y0066900D01*
X0281110Y0066666D01*
X0181898Y0236900D02*
X0177498Y0241300D01*
X0177498Y0244500D01*
X0177346Y0244839D01*
X0187898Y0272900D02*
X0195898Y0280900D01*
X0201498Y0280900D01*
X0212698Y0269700D01*
X0208698Y0278500D02*
X0208698Y0292100D01*
X0196298Y0304500D01*
X0191898Y0304500D01*
X0217346Y0294839D02*
X0217498Y0294900D01*
X0246298Y0294900D01*
X0272698Y0361300D02*
X0277498Y0361300D01*
X0281498Y0365300D01*
X0303498Y0365300D01*
X0303862Y0365652D01*
X0272698Y0361300D02*
X0268298Y0365700D01*
X0258698Y0365700D01*
X0258302Y0365849D01*
X0376698Y0349700D02*
X0386698Y0349700D01*
D28*
X0295098Y0314500D02*
X0295098Y0310500D01*
X0285098Y0300500D01*
X0295098Y0314500D02*
X0268298Y0341300D01*
X0257498Y0341300D01*
X0257498Y0325700D01*
X0253898Y0322100D01*
X0223898Y0322100D01*
X0213098Y0311300D01*
X0199098Y0311300D01*
X0198748Y0311143D01*
X0235898Y0352500D02*
X0237098Y0353700D01*
X0239405Y0354628D01*
X0239498Y0354500D01*
X0252698Y0341300D01*
X0257498Y0341300D01*
X0235898Y0352500D02*
X0129498Y0352500D01*
X0129106Y0352220D01*
X0029498Y0319300D02*
X0029498Y0266500D01*
X0016698Y0253700D01*
X0013209Y0252454D01*
X0013498Y0252100D01*
X0015098Y0252100D01*
X0021898Y0245300D01*
X0021898Y0229300D01*
X0015098Y0222500D01*
X0013498Y0222500D01*
X0013209Y0222391D01*
X0016698Y0220900D01*
X0030698Y0206900D01*
X0030698Y0183300D01*
X0047098Y0166900D01*
X0063498Y0166900D01*
X0064698Y0165700D01*
X0070698Y0165700D01*
X0077898Y0172900D01*
X0077661Y0173259D01*
X0121898Y0197300D02*
X0126298Y0201700D01*
X0126298Y0211700D01*
X0123898Y0214100D01*
X0119498Y0214100D01*
X0119355Y0214143D01*
X0238714Y0252209D02*
X0239098Y0252100D01*
X0243098Y0252100D01*
X0257098Y0266100D01*
M02*
