G75*
%MOIN*%
%OFA0B0*%
%FSLAX25Y25*%
%IPPOS*%
%LPD*%
%AMOC8*
5,1,8,0,0,1.08239X$1,22.5*
%
%ADD10C,0.01400*%
%ADD11C,0.00600*%
%ADD12C,0.00800*%
%ADD13C,0.00400*%
%ADD14C,0.00500*%
%ADD15C,0.01000*%
%ADD16C,0.00300*%
%ADD17R,0.02000X0.01500*%
%ADD18C,0.01200*%
D10*
X0135593Y0040957D02*
X0136528Y0041891D01*
X0136528Y0045627D01*
X0137462Y0044693D02*
X0135593Y0044693D01*
X0140171Y0044693D02*
X0140171Y0040957D01*
X0142973Y0040957D01*
X0143907Y0041891D01*
X0143907Y0044693D01*
X0146616Y0043759D02*
X0147550Y0044693D01*
X0149419Y0044693D01*
X0150353Y0043759D01*
X0150353Y0041891D01*
X0149419Y0040957D01*
X0147550Y0040957D01*
X0146616Y0041891D01*
X0146616Y0043759D01*
X0152922Y0044693D02*
X0155724Y0042825D01*
X0152922Y0040957D01*
X0155724Y0040957D02*
X0155724Y0046561D01*
X0158433Y0043759D02*
X0158433Y0040957D01*
X0161235Y0040957D01*
X0162169Y0041891D01*
X0161235Y0042825D01*
X0158433Y0042825D01*
X0158433Y0043759D02*
X0159367Y0044693D01*
X0161235Y0044693D01*
X0164878Y0043759D02*
X0164878Y0042825D01*
X0168615Y0042825D01*
X0168615Y0043759D02*
X0167681Y0044693D01*
X0165813Y0044693D01*
X0164878Y0043759D01*
X0165813Y0040957D02*
X0167681Y0040957D01*
X0168615Y0041891D01*
X0168615Y0043759D01*
X0171184Y0044693D02*
X0172118Y0044693D01*
X0173986Y0042825D01*
X0173986Y0040957D02*
X0173986Y0044693D01*
X0176695Y0044693D02*
X0176695Y0045627D01*
X0177629Y0046561D01*
X0180432Y0046561D01*
X0180432Y0040957D01*
X0177629Y0040957D01*
X0176695Y0041891D01*
X0176695Y0042825D01*
X0177629Y0043759D01*
X0180432Y0043759D01*
X0177629Y0043759D02*
X0176695Y0044693D01*
X0189586Y0044693D02*
X0189586Y0040023D01*
X0190520Y0039088D01*
X0191454Y0039088D01*
X0192389Y0040957D02*
X0189586Y0040957D01*
X0192389Y0040957D02*
X0193323Y0041891D01*
X0193323Y0044693D01*
X0196032Y0044693D02*
X0198834Y0044693D01*
X0199768Y0043759D01*
X0198834Y0042825D01*
X0196966Y0042825D01*
X0196032Y0041891D01*
X0196966Y0040957D01*
X0199768Y0040957D01*
X0202477Y0040957D02*
X0202477Y0043759D01*
X0203411Y0044693D01*
X0206214Y0044693D01*
X0206214Y0040957D01*
X0208923Y0042825D02*
X0212659Y0042825D01*
X0212659Y0043759D02*
X0211725Y0044693D01*
X0209857Y0044693D01*
X0208923Y0043759D01*
X0208923Y0042825D01*
X0209857Y0040957D02*
X0211725Y0040957D01*
X0212659Y0041891D01*
X0212659Y0043759D01*
X0215368Y0043759D02*
X0215368Y0042825D01*
X0219105Y0042825D01*
X0219105Y0043759D02*
X0218170Y0044693D01*
X0216302Y0044693D01*
X0215368Y0043759D01*
X0216302Y0040957D02*
X0218170Y0040957D01*
X0219105Y0041891D01*
X0219105Y0043759D01*
X0221814Y0046561D02*
X0225550Y0046561D01*
X0223682Y0046561D02*
X0223682Y0040957D01*
X0234705Y0041891D02*
X0235639Y0040957D01*
X0237507Y0040957D01*
X0238441Y0041891D01*
X0238441Y0045627D01*
X0237507Y0046561D01*
X0235639Y0046561D01*
X0234705Y0045627D01*
X0234705Y0041891D01*
X0241150Y0040957D02*
X0241150Y0046561D01*
X0243018Y0044693D01*
X0244887Y0046561D01*
X0244887Y0040957D01*
D11*
X0244747Y0037377D02*
X0245314Y0036810D01*
X0244747Y0037377D02*
X0243613Y0037377D01*
X0243046Y0036810D01*
X0243046Y0036243D01*
X0245314Y0033974D01*
X0243046Y0033974D01*
X0241631Y0034541D02*
X0239362Y0036810D01*
X0239362Y0034541D01*
X0239930Y0033974D01*
X0241064Y0033974D01*
X0241631Y0034541D01*
X0241631Y0036810D01*
X0241064Y0037377D01*
X0239930Y0037377D01*
X0239362Y0036810D01*
X0237948Y0036243D02*
X0236814Y0037377D01*
X0236814Y0033974D01*
X0237948Y0033974D02*
X0235679Y0033974D01*
X0234265Y0033974D02*
X0234265Y0034541D01*
X0231996Y0036810D01*
X0231996Y0037377D01*
X0234265Y0037377D01*
X0226898Y0036243D02*
X0225764Y0037377D01*
X0224630Y0036243D01*
X0224630Y0033974D01*
X0223215Y0033974D02*
X0222081Y0033974D01*
X0222648Y0033974D02*
X0222648Y0037377D01*
X0223215Y0037377D01*
X0224630Y0035675D02*
X0226898Y0035675D01*
X0226898Y0036243D02*
X0226898Y0033974D01*
X0226425Y0030243D02*
X0225858Y0029675D01*
X0225858Y0027974D01*
X0224443Y0028541D02*
X0224443Y0029675D01*
X0223876Y0030243D01*
X0222742Y0030243D01*
X0222174Y0029675D01*
X0222174Y0029108D01*
X0224443Y0029108D01*
X0224443Y0028541D02*
X0223876Y0027974D01*
X0222742Y0027974D01*
X0220760Y0028541D02*
X0220760Y0029675D01*
X0220193Y0030243D01*
X0218491Y0030243D01*
X0218491Y0031377D02*
X0218491Y0027974D01*
X0220193Y0027974D01*
X0220760Y0028541D01*
X0226425Y0030243D02*
X0228126Y0030243D01*
X0228126Y0027974D01*
X0229541Y0027974D02*
X0231242Y0027974D01*
X0231809Y0028541D01*
X0231809Y0029675D01*
X0231242Y0030243D01*
X0229541Y0030243D01*
X0229541Y0027407D01*
X0230108Y0026840D01*
X0230675Y0026840D01*
X0233130Y0027974D02*
X0234265Y0027974D01*
X0233698Y0027974D02*
X0233698Y0030243D01*
X0234265Y0030243D01*
X0233698Y0031377D02*
X0233698Y0031944D01*
X0235679Y0030243D02*
X0237381Y0030243D01*
X0237948Y0029675D01*
X0237381Y0029108D01*
X0236246Y0029108D01*
X0235679Y0028541D01*
X0236246Y0027974D01*
X0237948Y0027974D01*
X0239362Y0029108D02*
X0241631Y0029108D01*
X0241631Y0028541D02*
X0241631Y0029675D01*
X0241064Y0030243D01*
X0239930Y0030243D01*
X0239362Y0029675D01*
X0239362Y0029108D01*
X0239930Y0027974D02*
X0241064Y0027974D01*
X0241631Y0028541D01*
X0243046Y0028541D02*
X0243046Y0030810D01*
X0243613Y0031377D01*
X0245314Y0031377D01*
X0245314Y0027974D01*
X0243613Y0027974D01*
X0243046Y0028541D01*
X0240591Y0022322D02*
X0241159Y0021755D01*
X0240591Y0022322D02*
X0239457Y0022322D01*
X0238890Y0021755D01*
X0238890Y0021188D01*
X0241159Y0018919D01*
X0238890Y0018919D01*
X0237475Y0020620D02*
X0235207Y0020620D01*
X0233792Y0020620D02*
X0232658Y0021188D01*
X0232091Y0021188D01*
X0231524Y0020620D01*
X0231524Y0019486D01*
X0232091Y0018919D01*
X0233225Y0018919D01*
X0233792Y0019486D01*
X0233792Y0020620D02*
X0233792Y0022322D01*
X0231524Y0022322D01*
X0242573Y0021188D02*
X0243707Y0018919D01*
X0244842Y0021188D01*
X0220760Y0033974D02*
X0219626Y0033974D01*
X0220193Y0033974D02*
X0220193Y0036243D01*
X0220760Y0036243D01*
X0220193Y0037377D02*
X0220193Y0037944D01*
X0214621Y0037377D02*
X0213487Y0036243D01*
X0212353Y0037377D01*
X0212353Y0033974D01*
X0210938Y0034541D02*
X0210371Y0033974D01*
X0209237Y0033974D01*
X0208670Y0034541D01*
X0208670Y0035675D01*
X0209237Y0036243D01*
X0210371Y0036243D01*
X0210938Y0035675D01*
X0210938Y0034541D01*
X0212826Y0031944D02*
X0212826Y0031377D01*
X0212826Y0030243D02*
X0212826Y0027974D01*
X0212259Y0027974D02*
X0213394Y0027974D01*
X0213394Y0030243D02*
X0212826Y0030243D01*
X0210938Y0030243D02*
X0209237Y0030243D01*
X0208670Y0029675D01*
X0208670Y0027974D01*
X0210938Y0027974D02*
X0210938Y0030243D01*
X0207255Y0033974D02*
X0207255Y0036243D01*
X0206688Y0036243D01*
X0206121Y0035675D01*
X0205554Y0036243D01*
X0204986Y0035675D01*
X0204986Y0033974D01*
X0206121Y0033974D02*
X0206121Y0035675D01*
X0203572Y0035675D02*
X0203005Y0036243D01*
X0201870Y0036243D01*
X0201303Y0035675D01*
X0201303Y0035108D01*
X0203572Y0035108D01*
X0203572Y0034541D02*
X0203572Y0035675D01*
X0203572Y0034541D02*
X0203005Y0033974D01*
X0201870Y0033974D01*
X0199889Y0033974D02*
X0199889Y0036243D01*
X0198187Y0036243D01*
X0197620Y0035675D01*
X0197620Y0033974D01*
X0196206Y0033974D02*
X0195071Y0033974D01*
X0195638Y0033974D02*
X0195638Y0036243D01*
X0196206Y0036243D01*
X0195638Y0037377D02*
X0195638Y0037944D01*
X0199322Y0031944D02*
X0199322Y0031377D01*
X0199322Y0030243D02*
X0199322Y0027974D01*
X0199889Y0027974D02*
X0198754Y0027974D01*
X0196866Y0028541D02*
X0196866Y0030810D01*
X0197433Y0030243D02*
X0196299Y0030243D01*
X0194978Y0030243D02*
X0193844Y0030243D01*
X0194411Y0030810D02*
X0194411Y0028541D01*
X0193844Y0027974D01*
X0192522Y0027974D02*
X0190821Y0027974D01*
X0190254Y0028541D01*
X0190821Y0029108D01*
X0191955Y0029108D01*
X0192522Y0029675D01*
X0191955Y0030243D01*
X0190254Y0030243D01*
X0188839Y0030243D02*
X0187138Y0030243D01*
X0186571Y0029675D01*
X0186571Y0028541D01*
X0187138Y0027974D01*
X0188839Y0027974D01*
X0188839Y0031377D01*
X0185156Y0030243D02*
X0185156Y0028541D01*
X0184589Y0027974D01*
X0182888Y0027974D01*
X0182888Y0030243D01*
X0181473Y0030243D02*
X0181473Y0027974D01*
X0181473Y0029108D02*
X0180339Y0030243D01*
X0179772Y0030243D01*
X0178404Y0029675D02*
X0178404Y0028541D01*
X0177837Y0027974D01*
X0176135Y0027974D01*
X0176135Y0027407D02*
X0176135Y0030243D01*
X0177837Y0030243D01*
X0178404Y0029675D01*
X0177269Y0026840D02*
X0176702Y0026840D01*
X0176135Y0027407D01*
X0174721Y0027974D02*
X0174721Y0031377D01*
X0174153Y0030243D02*
X0173019Y0030243D01*
X0172452Y0029675D01*
X0172452Y0027974D01*
X0174721Y0029675D02*
X0174153Y0030243D01*
X0196299Y0027974D02*
X0196866Y0028541D01*
X0199322Y0030243D02*
X0199889Y0030243D01*
X0201303Y0030810D02*
X0201303Y0029675D01*
X0201870Y0029108D01*
X0203572Y0029108D01*
X0203572Y0027974D02*
X0203572Y0031377D01*
X0201870Y0031377D01*
X0201303Y0030810D01*
X0214621Y0033974D02*
X0214621Y0037377D01*
X0291713Y0048873D02*
X0291713Y0049440D01*
X0292281Y0050007D01*
X0293415Y0050007D01*
X0293982Y0050574D01*
X0293982Y0051142D01*
X0293415Y0051709D01*
X0292281Y0051709D01*
X0291713Y0051142D01*
X0291713Y0048873D02*
X0292281Y0048306D01*
X0293415Y0048306D01*
X0293982Y0048873D01*
X0295397Y0048306D02*
X0297665Y0048306D01*
X0296531Y0048306D02*
X0296531Y0051709D01*
X0299080Y0051709D02*
X0299080Y0048306D01*
X0300781Y0048306D01*
X0301348Y0048873D01*
X0301348Y0050007D01*
X0300781Y0050574D01*
X0299080Y0050574D01*
X0300214Y0050574D02*
X0301348Y0051709D01*
X0302763Y0051709D02*
X0303897Y0051709D01*
X0303330Y0051709D02*
X0303330Y0048306D01*
X0302763Y0048306D02*
X0303897Y0048306D01*
X0305218Y0048306D02*
X0306920Y0048306D01*
X0307487Y0048873D01*
X0307487Y0050007D01*
X0306920Y0050574D01*
X0305218Y0050574D01*
X0305218Y0051709D02*
X0305218Y0048306D01*
X0308901Y0048306D02*
X0308901Y0050007D01*
X0310036Y0049440D01*
X0310603Y0049440D01*
X0311170Y0050007D01*
X0311170Y0051142D01*
X0310603Y0051709D01*
X0309469Y0051709D01*
X0308901Y0051142D01*
X0308901Y0048306D02*
X0311170Y0048306D01*
X0309918Y0008059D02*
X0310485Y0007492D01*
X0310485Y0006925D01*
X0309918Y0006358D01*
X0308216Y0006358D01*
X0308216Y0007492D01*
X0308784Y0008059D01*
X0309918Y0008059D01*
X0308216Y0006358D02*
X0309351Y0005223D01*
X0310485Y0004656D01*
X0306802Y0005223D02*
X0306802Y0006358D01*
X0306235Y0006925D01*
X0304533Y0006925D01*
X0304533Y0008059D02*
X0304533Y0004656D01*
X0306235Y0004656D01*
X0306802Y0005223D01*
X0303212Y0004656D02*
X0302078Y0004656D01*
X0302645Y0004656D02*
X0302645Y0008059D01*
X0302078Y0008059D02*
X0303212Y0008059D01*
X0300663Y0008059D02*
X0299529Y0006925D01*
X0300096Y0006925D02*
X0298395Y0006925D01*
X0298395Y0008059D02*
X0298395Y0004656D01*
X0300096Y0004656D01*
X0300663Y0005223D01*
X0300663Y0006358D01*
X0300096Y0006925D01*
X0296980Y0004656D02*
X0294711Y0004656D01*
X0295846Y0004656D02*
X0295846Y0008059D01*
X0293297Y0007492D02*
X0292730Y0008059D01*
X0291595Y0008059D01*
X0291028Y0007492D01*
X0291595Y0006358D02*
X0292730Y0006358D01*
X0293297Y0006925D01*
X0293297Y0007492D01*
X0291595Y0006358D02*
X0291028Y0005790D01*
X0291028Y0005223D01*
X0291595Y0004656D01*
X0292730Y0004656D01*
X0293297Y0005223D01*
X0375994Y0052542D02*
X0375994Y0054768D01*
X0375656Y0060951D02*
X0375656Y0063177D01*
X0374543Y0062064D02*
X0376769Y0062064D01*
X0390714Y0063503D02*
X0390714Y0064638D01*
X0391281Y0065205D01*
X0391848Y0065205D01*
X0392415Y0064638D01*
X0392415Y0063503D01*
X0392982Y0062936D01*
X0393550Y0062936D01*
X0394117Y0063503D01*
X0394117Y0064638D01*
X0393550Y0065205D01*
X0391281Y0062936D02*
X0390714Y0063503D01*
X0392415Y0061522D02*
X0392415Y0059820D01*
X0392982Y0059253D01*
X0393550Y0059253D01*
X0394117Y0059820D01*
X0394117Y0060955D01*
X0393550Y0061522D01*
X0392415Y0061522D01*
X0391281Y0060387D01*
X0390714Y0059253D01*
X0392415Y0057839D02*
X0392415Y0055570D01*
X0392415Y0054155D02*
X0392415Y0051887D01*
X0391848Y0051887D02*
X0394117Y0051887D01*
X0394117Y0050472D02*
X0390714Y0050472D01*
X0394117Y0048204D01*
X0390714Y0048204D01*
X0391848Y0046789D02*
X0390714Y0045655D01*
X0394117Y0045655D01*
X0394117Y0046789D02*
X0394117Y0044521D01*
X0394117Y0043106D02*
X0394117Y0040837D01*
X0394117Y0041972D02*
X0390714Y0041972D01*
X0391848Y0043106D01*
X0391848Y0051887D02*
X0390714Y0053021D01*
X0391848Y0054155D01*
X0394117Y0054155D01*
X0393731Y0071507D02*
X0393731Y0073776D01*
X0391462Y0071507D01*
X0390895Y0071507D01*
X0390328Y0072074D01*
X0390328Y0073209D01*
X0390895Y0073776D01*
X0390328Y0076325D02*
X0393731Y0076325D01*
X0393731Y0077459D02*
X0393731Y0075190D01*
X0391462Y0077459D02*
X0390328Y0076325D01*
X0390328Y0078873D02*
X0393731Y0078873D01*
X0390328Y0081142D01*
X0393731Y0081142D01*
X0393731Y0082557D02*
X0391462Y0082557D01*
X0390328Y0083691D01*
X0391462Y0084825D01*
X0393731Y0084825D01*
X0392029Y0084825D02*
X0392029Y0082557D01*
X0392029Y0086240D02*
X0392029Y0088508D01*
X0392597Y0089923D02*
X0392029Y0090490D01*
X0392029Y0092191D01*
X0393164Y0092191D01*
X0393731Y0091624D01*
X0393731Y0090490D01*
X0393164Y0089923D01*
X0392597Y0089923D01*
X0390895Y0091057D02*
X0390328Y0089923D01*
X0390895Y0091057D02*
X0392029Y0092191D01*
X0392597Y0093606D02*
X0393164Y0093606D01*
X0393731Y0094173D01*
X0393731Y0095307D01*
X0393164Y0095875D01*
X0392029Y0095307D02*
X0392029Y0094173D01*
X0392597Y0093606D01*
X0390895Y0093606D02*
X0390328Y0094173D01*
X0390328Y0095307D01*
X0390895Y0095875D01*
X0391462Y0095875D01*
X0392029Y0095307D01*
X0392021Y0107963D02*
X0392021Y0109664D01*
X0391454Y0110231D01*
X0390886Y0110231D01*
X0390319Y0109664D01*
X0390319Y0108530D01*
X0390886Y0107963D01*
X0393155Y0107963D01*
X0393722Y0108530D01*
X0393722Y0109664D01*
X0393155Y0110231D01*
X0393722Y0111646D02*
X0390319Y0111646D01*
X0390319Y0113914D02*
X0393722Y0111646D01*
X0393722Y0113914D02*
X0390319Y0113914D01*
X0391454Y0115329D02*
X0393722Y0115329D01*
X0392021Y0115329D02*
X0392021Y0117598D01*
X0391454Y0117598D02*
X0390319Y0116463D01*
X0391454Y0115329D01*
X0391454Y0117598D02*
X0393722Y0117598D01*
X0392021Y0119012D02*
X0392021Y0121281D01*
X0392021Y0122695D02*
X0393155Y0122695D01*
X0393722Y0123262D01*
X0393722Y0124397D01*
X0393155Y0124964D01*
X0392021Y0124964D02*
X0391454Y0123830D01*
X0391454Y0123262D01*
X0392021Y0122695D01*
X0390319Y0122695D02*
X0390319Y0124964D01*
X0392021Y0124964D01*
X0392588Y0126378D02*
X0393155Y0126378D01*
X0393722Y0126946D01*
X0393722Y0128080D01*
X0393155Y0128647D01*
X0392021Y0128080D02*
X0391454Y0128647D01*
X0390886Y0128647D01*
X0390319Y0128080D01*
X0390319Y0126946D01*
X0390886Y0126378D01*
X0392021Y0126946D02*
X0392588Y0126378D01*
X0392021Y0126946D02*
X0392021Y0128080D01*
X0393126Y0135209D02*
X0393694Y0135776D01*
X0393694Y0136911D01*
X0393126Y0137478D01*
X0390858Y0135209D01*
X0393126Y0135209D01*
X0390858Y0135209D02*
X0390291Y0135776D01*
X0390291Y0136911D01*
X0390858Y0137478D01*
X0393126Y0137478D01*
X0393694Y0138892D02*
X0393694Y0141161D01*
X0393694Y0140027D02*
X0390291Y0140027D01*
X0391425Y0141161D01*
X0390291Y0142576D02*
X0393694Y0142576D01*
X0390291Y0144844D01*
X0393694Y0144844D01*
X0393694Y0146259D02*
X0391425Y0146259D01*
X0390291Y0147393D01*
X0391425Y0148527D01*
X0393694Y0148527D01*
X0391992Y0148527D02*
X0391992Y0146259D01*
X0391992Y0149942D02*
X0391992Y0152210D01*
X0391992Y0153625D02*
X0393126Y0153625D01*
X0393694Y0154192D01*
X0393694Y0155326D01*
X0393126Y0155894D01*
X0391992Y0155894D02*
X0391425Y0154759D01*
X0391425Y0154192D01*
X0391992Y0153625D01*
X0390291Y0153625D02*
X0390291Y0155894D01*
X0391992Y0155894D01*
X0392559Y0157308D02*
X0393126Y0157308D01*
X0393694Y0157875D01*
X0393694Y0159010D01*
X0393126Y0159577D01*
X0391992Y0159010D02*
X0391992Y0157875D01*
X0392559Y0157308D01*
X0390858Y0157308D02*
X0390291Y0157875D01*
X0390291Y0159010D01*
X0390858Y0159577D01*
X0391425Y0159577D01*
X0391992Y0159010D01*
X0390889Y0173230D02*
X0393157Y0175498D01*
X0393724Y0175498D01*
X0393724Y0176913D02*
X0390322Y0176913D01*
X0390322Y0175498D02*
X0390322Y0173230D01*
X0390889Y0173230D01*
X0393724Y0176913D02*
X0390322Y0179182D01*
X0393724Y0179182D01*
X0393724Y0180596D02*
X0391456Y0180596D01*
X0390322Y0181730D01*
X0391456Y0182865D01*
X0393724Y0182865D01*
X0392023Y0182865D02*
X0392023Y0180596D01*
X0392023Y0184279D02*
X0392023Y0186548D01*
X0392023Y0187962D02*
X0392023Y0190231D01*
X0390322Y0188530D01*
X0393724Y0188530D01*
X0393157Y0191646D02*
X0393724Y0192213D01*
X0393724Y0193347D01*
X0393157Y0193914D01*
X0392023Y0193347D02*
X0392023Y0192213D01*
X0392590Y0191646D01*
X0393157Y0191646D01*
X0392023Y0193347D02*
X0391456Y0193914D01*
X0390889Y0193914D01*
X0390322Y0193347D01*
X0390322Y0192213D01*
X0390889Y0191646D01*
X0390810Y0203631D02*
X0391377Y0203631D01*
X0391944Y0204199D01*
X0391944Y0205333D01*
X0391377Y0205900D01*
X0390810Y0205900D01*
X0390243Y0205333D01*
X0390243Y0204199D01*
X0390810Y0203631D01*
X0391944Y0204199D02*
X0392511Y0203631D01*
X0393079Y0203631D01*
X0393646Y0204199D01*
X0393646Y0205333D01*
X0393079Y0205900D01*
X0392511Y0205900D01*
X0391944Y0205333D01*
X0390243Y0207315D02*
X0393646Y0207315D01*
X0390243Y0209583D01*
X0393646Y0209583D01*
X0393646Y0210998D02*
X0391377Y0210998D01*
X0390243Y0212132D01*
X0391377Y0213266D01*
X0393646Y0213266D01*
X0391944Y0213266D02*
X0391944Y0210998D01*
X0391944Y0214681D02*
X0391944Y0216949D01*
X0391944Y0218364D02*
X0391944Y0220633D01*
X0390243Y0218931D01*
X0393646Y0218931D01*
X0393079Y0222047D02*
X0393646Y0222614D01*
X0393646Y0223749D01*
X0393079Y0224316D01*
X0391944Y0223749D02*
X0391944Y0222614D01*
X0392511Y0222047D01*
X0393079Y0222047D01*
X0391944Y0223749D02*
X0391377Y0224316D01*
X0390810Y0224316D01*
X0390243Y0223749D01*
X0390243Y0222614D01*
X0390810Y0222047D01*
X0390432Y0239368D02*
X0390432Y0241636D01*
X0392133Y0241636D01*
X0391566Y0240502D01*
X0391566Y0239935D01*
X0392133Y0239368D01*
X0393267Y0239368D01*
X0393835Y0239935D01*
X0393835Y0241069D01*
X0393267Y0241636D01*
X0393835Y0243051D02*
X0390432Y0243051D01*
X0390432Y0245319D02*
X0393835Y0243051D01*
X0393835Y0245319D02*
X0390432Y0245319D01*
X0391566Y0246734D02*
X0393835Y0246734D01*
X0392133Y0246734D02*
X0392133Y0249003D01*
X0391566Y0249003D02*
X0390432Y0247868D01*
X0391566Y0246734D01*
X0391566Y0249003D02*
X0393835Y0249003D01*
X0392133Y0250417D02*
X0392133Y0252686D01*
X0391566Y0254100D02*
X0392133Y0254667D01*
X0392700Y0254100D01*
X0393267Y0254100D01*
X0393835Y0254667D01*
X0393835Y0255802D01*
X0393267Y0256369D01*
X0393267Y0257783D02*
X0393835Y0258351D01*
X0393835Y0259485D01*
X0393267Y0260052D01*
X0392133Y0259485D02*
X0392133Y0258351D01*
X0392700Y0257783D01*
X0393267Y0257783D01*
X0392133Y0259485D02*
X0391566Y0260052D01*
X0390999Y0260052D01*
X0390432Y0259485D01*
X0390432Y0258351D01*
X0390999Y0257783D01*
X0390999Y0256369D02*
X0390432Y0255802D01*
X0390432Y0254667D01*
X0390999Y0254100D01*
X0391566Y0254100D01*
X0392133Y0254667D02*
X0392133Y0255235D01*
X0392610Y0269927D02*
X0392043Y0270494D01*
X0392043Y0272195D01*
X0393177Y0272195D01*
X0393744Y0271628D01*
X0393744Y0270494D01*
X0393177Y0269927D01*
X0392610Y0269927D01*
X0390908Y0271061D02*
X0392043Y0272195D01*
X0390908Y0271061D02*
X0390341Y0269927D01*
X0390341Y0273610D02*
X0393744Y0273610D01*
X0390341Y0275878D01*
X0393744Y0275878D01*
X0393744Y0277293D02*
X0391475Y0277293D01*
X0390341Y0278427D01*
X0391475Y0279562D01*
X0393744Y0279562D01*
X0392043Y0279562D02*
X0392043Y0277293D01*
X0392043Y0280976D02*
X0392043Y0283245D01*
X0392610Y0284659D02*
X0393177Y0284659D01*
X0393744Y0285226D01*
X0393744Y0286361D01*
X0393177Y0286928D01*
X0393177Y0288342D02*
X0393744Y0288910D01*
X0393744Y0290044D01*
X0393177Y0290611D01*
X0392043Y0290044D02*
X0392043Y0288910D01*
X0392610Y0288342D01*
X0393177Y0288342D01*
X0392043Y0290044D02*
X0391475Y0290611D01*
X0390908Y0290611D01*
X0390341Y0290044D01*
X0390341Y0288910D01*
X0390908Y0288342D01*
X0390908Y0286928D02*
X0390341Y0286361D01*
X0390341Y0285226D01*
X0390908Y0284659D01*
X0391475Y0284659D01*
X0392043Y0285226D01*
X0392610Y0284659D01*
X0392043Y0285226D02*
X0392043Y0285794D01*
X0375688Y0280378D02*
X0375688Y0278151D01*
X0375566Y0270358D02*
X0375566Y0268132D01*
X0374452Y0269245D02*
X0376679Y0269245D01*
X0375329Y0250098D02*
X0375329Y0247872D01*
X0375841Y0239752D02*
X0375841Y0237525D01*
X0374728Y0238639D02*
X0376954Y0238639D01*
X0338607Y0213420D02*
X0338040Y0213987D01*
X0336905Y0213987D01*
X0336338Y0213420D01*
X0337473Y0212285D02*
X0338040Y0212285D01*
X0338607Y0212852D01*
X0338607Y0213420D01*
X0338040Y0212285D02*
X0338607Y0211718D01*
X0338607Y0211151D01*
X0338040Y0210584D01*
X0336905Y0210584D01*
X0336338Y0211151D01*
X0334924Y0211151D02*
X0334924Y0212285D01*
X0334357Y0212852D01*
X0332655Y0212852D01*
X0332655Y0213987D02*
X0332655Y0210584D01*
X0334357Y0210584D01*
X0334924Y0211151D01*
X0331334Y0210584D02*
X0330200Y0210584D01*
X0330767Y0210584D02*
X0330767Y0213987D01*
X0330200Y0213987D02*
X0331334Y0213987D01*
X0328785Y0213987D02*
X0327651Y0212852D01*
X0328218Y0212852D02*
X0326517Y0212852D01*
X0326517Y0213987D02*
X0326517Y0210584D01*
X0328218Y0210584D01*
X0328785Y0211151D01*
X0328785Y0212285D01*
X0328218Y0212852D01*
X0325102Y0210584D02*
X0322833Y0210584D01*
X0323968Y0210584D02*
X0323968Y0213987D01*
X0321419Y0213420D02*
X0320852Y0213987D01*
X0319717Y0213987D01*
X0319150Y0213420D01*
X0319717Y0212285D02*
X0320852Y0212285D01*
X0321419Y0212852D01*
X0321419Y0213420D01*
X0319717Y0212285D02*
X0319150Y0211718D01*
X0319150Y0211151D01*
X0319717Y0210584D01*
X0320852Y0210584D01*
X0321419Y0211151D01*
X0320679Y0164839D02*
X0319544Y0164839D01*
X0318977Y0164271D01*
X0319544Y0163137D02*
X0320679Y0163137D01*
X0321246Y0163704D01*
X0321246Y0164271D01*
X0320679Y0164839D01*
X0319544Y0163137D02*
X0318977Y0162570D01*
X0318977Y0162003D01*
X0319544Y0161436D01*
X0320679Y0161436D01*
X0321246Y0162003D01*
X0322660Y0161436D02*
X0324929Y0161436D01*
X0323795Y0161436D02*
X0323795Y0164839D01*
X0326343Y0164839D02*
X0326343Y0161436D01*
X0328045Y0161436D01*
X0328612Y0162003D01*
X0328612Y0163137D01*
X0328045Y0163704D01*
X0326343Y0163704D01*
X0327478Y0163704D02*
X0328612Y0164839D01*
X0330027Y0164839D02*
X0331161Y0164839D01*
X0330594Y0164839D02*
X0330594Y0161436D01*
X0330027Y0161436D02*
X0331161Y0161436D01*
X0332482Y0161436D02*
X0334183Y0161436D01*
X0334751Y0162003D01*
X0334751Y0163137D01*
X0334183Y0163704D01*
X0332482Y0163704D01*
X0332482Y0164839D02*
X0332482Y0161436D01*
X0336165Y0163137D02*
X0338434Y0163137D01*
X0337867Y0161436D02*
X0336165Y0163137D01*
X0337867Y0164839D02*
X0337867Y0161436D01*
X0323083Y0141854D02*
X0317083Y0141854D01*
X0317023Y0141852D01*
X0316962Y0141847D01*
X0316903Y0141838D01*
X0316844Y0141825D01*
X0316785Y0141809D01*
X0316728Y0141789D01*
X0316673Y0141766D01*
X0316618Y0141739D01*
X0316566Y0141710D01*
X0316515Y0141677D01*
X0316466Y0141641D01*
X0316420Y0141603D01*
X0316376Y0141561D01*
X0316334Y0141517D01*
X0316296Y0141471D01*
X0316260Y0141422D01*
X0316227Y0141371D01*
X0316198Y0141319D01*
X0316171Y0141264D01*
X0316148Y0141209D01*
X0316128Y0141152D01*
X0316112Y0141093D01*
X0316099Y0141034D01*
X0316090Y0140975D01*
X0316085Y0140914D01*
X0316083Y0140854D01*
X0316083Y0139354D01*
X0316583Y0138854D01*
X0316583Y0124854D01*
X0316083Y0124354D01*
X0316083Y0122854D01*
X0316085Y0122794D01*
X0316090Y0122733D01*
X0316099Y0122674D01*
X0316112Y0122615D01*
X0316128Y0122556D01*
X0316148Y0122499D01*
X0316171Y0122444D01*
X0316198Y0122389D01*
X0316227Y0122337D01*
X0316260Y0122286D01*
X0316296Y0122237D01*
X0316334Y0122191D01*
X0316376Y0122147D01*
X0316420Y0122105D01*
X0316466Y0122067D01*
X0316515Y0122031D01*
X0316566Y0121998D01*
X0316618Y0121969D01*
X0316673Y0121942D01*
X0316728Y0121919D01*
X0316785Y0121899D01*
X0316844Y0121883D01*
X0316903Y0121870D01*
X0316962Y0121861D01*
X0317023Y0121856D01*
X0317083Y0121854D01*
X0323083Y0121854D01*
X0323143Y0121856D01*
X0323204Y0121861D01*
X0323263Y0121870D01*
X0323322Y0121883D01*
X0323381Y0121899D01*
X0323438Y0121919D01*
X0323493Y0121942D01*
X0323548Y0121969D01*
X0323600Y0121998D01*
X0323651Y0122031D01*
X0323700Y0122067D01*
X0323746Y0122105D01*
X0323790Y0122147D01*
X0323832Y0122191D01*
X0323870Y0122237D01*
X0323906Y0122286D01*
X0323939Y0122337D01*
X0323968Y0122389D01*
X0323995Y0122444D01*
X0324018Y0122499D01*
X0324038Y0122556D01*
X0324054Y0122615D01*
X0324067Y0122674D01*
X0324076Y0122733D01*
X0324081Y0122794D01*
X0324083Y0122854D01*
X0324083Y0124354D01*
X0323583Y0124854D01*
X0323583Y0138854D01*
X0324083Y0139354D01*
X0324083Y0140854D01*
X0324081Y0140914D01*
X0324076Y0140975D01*
X0324067Y0141034D01*
X0324054Y0141093D01*
X0324038Y0141152D01*
X0324018Y0141209D01*
X0323995Y0141264D01*
X0323968Y0141319D01*
X0323939Y0141371D01*
X0323906Y0141422D01*
X0323870Y0141471D01*
X0323832Y0141517D01*
X0323790Y0141561D01*
X0323746Y0141603D01*
X0323700Y0141641D01*
X0323651Y0141677D01*
X0323600Y0141710D01*
X0323548Y0141739D01*
X0323493Y0141766D01*
X0323438Y0141789D01*
X0323381Y0141809D01*
X0323322Y0141825D01*
X0323263Y0141838D01*
X0323204Y0141847D01*
X0323143Y0141852D01*
X0323083Y0141854D01*
X0375983Y0146384D02*
X0375983Y0148610D01*
X0375884Y0156884D02*
X0375884Y0159110D01*
X0374771Y0157997D02*
X0376998Y0157997D01*
X0375916Y0170848D02*
X0375916Y0173075D01*
X0374803Y0171962D02*
X0377029Y0171962D01*
X0375436Y0181726D02*
X0375436Y0183953D01*
X0375920Y0127929D02*
X0375920Y0125703D01*
X0374807Y0126816D02*
X0377033Y0126816D01*
X0375967Y0118433D02*
X0375967Y0116206D01*
X0375810Y0094476D02*
X0375810Y0092250D01*
X0374696Y0093363D02*
X0376923Y0093363D01*
X0375943Y0084913D02*
X0375943Y0082687D01*
X0206685Y0220135D02*
X0206685Y0221635D01*
X0206185Y0222135D01*
X0206185Y0236135D01*
X0206685Y0236635D01*
X0206685Y0238135D01*
X0206683Y0238195D01*
X0206678Y0238256D01*
X0206669Y0238315D01*
X0206656Y0238374D01*
X0206640Y0238433D01*
X0206620Y0238490D01*
X0206597Y0238545D01*
X0206570Y0238600D01*
X0206541Y0238652D01*
X0206508Y0238703D01*
X0206472Y0238752D01*
X0206434Y0238798D01*
X0206392Y0238842D01*
X0206348Y0238884D01*
X0206302Y0238922D01*
X0206253Y0238958D01*
X0206202Y0238991D01*
X0206150Y0239020D01*
X0206095Y0239047D01*
X0206040Y0239070D01*
X0205983Y0239090D01*
X0205924Y0239106D01*
X0205865Y0239119D01*
X0205806Y0239128D01*
X0205745Y0239133D01*
X0205685Y0239135D01*
X0199685Y0239135D01*
X0199625Y0239133D01*
X0199564Y0239128D01*
X0199505Y0239119D01*
X0199446Y0239106D01*
X0199387Y0239090D01*
X0199330Y0239070D01*
X0199275Y0239047D01*
X0199220Y0239020D01*
X0199168Y0238991D01*
X0199117Y0238958D01*
X0199068Y0238922D01*
X0199022Y0238884D01*
X0198978Y0238842D01*
X0198936Y0238798D01*
X0198898Y0238752D01*
X0198862Y0238703D01*
X0198829Y0238652D01*
X0198800Y0238600D01*
X0198773Y0238545D01*
X0198750Y0238490D01*
X0198730Y0238433D01*
X0198714Y0238374D01*
X0198701Y0238315D01*
X0198692Y0238256D01*
X0198687Y0238195D01*
X0198685Y0238135D01*
X0198685Y0236635D01*
X0199185Y0236135D01*
X0199185Y0222135D01*
X0198685Y0221635D01*
X0198685Y0220135D01*
X0198687Y0220075D01*
X0198692Y0220014D01*
X0198701Y0219955D01*
X0198714Y0219896D01*
X0198730Y0219837D01*
X0198750Y0219780D01*
X0198773Y0219725D01*
X0198800Y0219670D01*
X0198829Y0219618D01*
X0198862Y0219567D01*
X0198898Y0219518D01*
X0198936Y0219472D01*
X0198978Y0219428D01*
X0199022Y0219386D01*
X0199068Y0219348D01*
X0199117Y0219312D01*
X0199168Y0219279D01*
X0199220Y0219250D01*
X0199275Y0219223D01*
X0199330Y0219200D01*
X0199387Y0219180D01*
X0199446Y0219164D01*
X0199505Y0219151D01*
X0199564Y0219142D01*
X0199625Y0219137D01*
X0199685Y0219135D01*
X0205685Y0219135D01*
X0205745Y0219137D01*
X0205806Y0219142D01*
X0205865Y0219151D01*
X0205924Y0219164D01*
X0205983Y0219180D01*
X0206040Y0219200D01*
X0206095Y0219223D01*
X0206150Y0219250D01*
X0206202Y0219279D01*
X0206253Y0219312D01*
X0206302Y0219348D01*
X0206348Y0219386D01*
X0206392Y0219428D01*
X0206434Y0219472D01*
X0206472Y0219518D01*
X0206508Y0219567D01*
X0206541Y0219618D01*
X0206570Y0219670D01*
X0206597Y0219725D01*
X0206620Y0219780D01*
X0206640Y0219837D01*
X0206656Y0219896D01*
X0206669Y0219955D01*
X0206678Y0220014D01*
X0206683Y0220075D01*
X0206685Y0220135D01*
X0104938Y0157187D02*
X0104938Y0156620D01*
X0104371Y0156053D01*
X0103237Y0156053D01*
X0102670Y0155486D01*
X0102670Y0154919D01*
X0103237Y0154351D01*
X0104371Y0154351D01*
X0104938Y0154919D01*
X0104938Y0157187D02*
X0104371Y0157754D01*
X0103237Y0157754D01*
X0102670Y0157187D01*
X0101255Y0157754D02*
X0100121Y0156620D01*
X0100688Y0156620D02*
X0098987Y0156620D01*
X0098987Y0157754D02*
X0098987Y0154351D01*
X0100688Y0154351D01*
X0101255Y0154919D01*
X0101255Y0156053D01*
X0100688Y0156620D01*
X0097572Y0157187D02*
X0097572Y0154919D01*
X0097005Y0154351D01*
X0095871Y0154351D01*
X0095304Y0154919D01*
X0095304Y0157187D01*
X0095871Y0157754D01*
X0097005Y0157754D01*
X0097572Y0157187D01*
X0093889Y0154351D02*
X0091620Y0154351D01*
X0092755Y0154351D02*
X0092755Y0157754D01*
X0090206Y0157754D02*
X0090206Y0155486D01*
X0089072Y0154351D01*
X0087937Y0155486D01*
X0087937Y0157754D01*
X0086523Y0157187D02*
X0086523Y0154351D01*
X0087937Y0156053D02*
X0090206Y0156053D01*
X0086523Y0157187D02*
X0085956Y0157754D01*
X0084821Y0157754D01*
X0084254Y0157187D01*
X0084254Y0154351D01*
X0082840Y0154351D02*
X0080571Y0154351D01*
X0081705Y0154351D02*
X0081705Y0157754D01*
X0079156Y0157187D02*
X0078589Y0157754D01*
X0077455Y0157754D01*
X0076888Y0157187D01*
X0076888Y0154919D01*
X0077455Y0154351D01*
X0078589Y0154351D01*
X0079156Y0154919D01*
X0075473Y0155486D02*
X0075473Y0157754D01*
X0075473Y0156053D02*
X0073205Y0156053D01*
X0073205Y0155486D02*
X0074339Y0154351D01*
X0075473Y0155486D01*
X0073205Y0155486D02*
X0073205Y0157754D01*
X0021686Y0162978D02*
X0021686Y0165205D01*
X0021564Y0173116D02*
X0021564Y0175342D01*
X0022678Y0174229D02*
X0020451Y0174229D01*
X0007025Y0172175D02*
X0006458Y0172743D01*
X0005891Y0172743D01*
X0005323Y0172175D01*
X0004756Y0172743D01*
X0004189Y0172743D01*
X0003622Y0172175D01*
X0003622Y0171041D01*
X0004189Y0170474D01*
X0003622Y0169059D02*
X0007025Y0169059D01*
X0006458Y0170474D02*
X0007025Y0171041D01*
X0007025Y0172175D01*
X0005323Y0172175D02*
X0005323Y0171608D01*
X0003622Y0169059D02*
X0007025Y0166791D01*
X0003622Y0166791D01*
X0003622Y0165376D02*
X0005891Y0165376D01*
X0007025Y0164242D01*
X0005891Y0163108D01*
X0003622Y0163108D01*
X0005323Y0163108D02*
X0005323Y0165376D01*
X0005323Y0161693D02*
X0005323Y0159425D01*
X0005891Y0158010D02*
X0006458Y0158010D01*
X0007025Y0157443D01*
X0007025Y0156309D01*
X0006458Y0155741D01*
X0006458Y0154327D02*
X0007025Y0153760D01*
X0007025Y0152625D01*
X0006458Y0152058D01*
X0005891Y0152058D01*
X0005323Y0152625D01*
X0005323Y0153760D01*
X0004756Y0154327D01*
X0004189Y0154327D01*
X0003622Y0153760D01*
X0003622Y0152625D01*
X0004189Y0152058D01*
X0003622Y0155741D02*
X0005891Y0158010D01*
X0003622Y0158010D02*
X0003622Y0155741D01*
X0005342Y0144261D02*
X0005342Y0141993D01*
X0007044Y0143694D01*
X0003641Y0143694D01*
X0003641Y0140578D02*
X0007044Y0140578D01*
X0007044Y0138310D02*
X0003641Y0138310D01*
X0003641Y0136895D02*
X0005910Y0136895D01*
X0007044Y0135761D01*
X0005910Y0134627D01*
X0003641Y0134627D01*
X0005342Y0134627D02*
X0005342Y0136895D01*
X0007044Y0138310D02*
X0003641Y0140578D01*
X0005342Y0133212D02*
X0005342Y0130943D01*
X0005910Y0129529D02*
X0006477Y0129529D01*
X0007044Y0128962D01*
X0007044Y0127827D01*
X0006477Y0127260D01*
X0006477Y0125846D02*
X0007044Y0125279D01*
X0007044Y0124144D01*
X0006477Y0123577D01*
X0005910Y0123577D01*
X0005342Y0124144D01*
X0005342Y0125279D01*
X0004775Y0125846D01*
X0004208Y0125846D01*
X0003641Y0125279D01*
X0003641Y0124144D01*
X0004208Y0123577D01*
X0003641Y0127260D02*
X0005910Y0129529D01*
X0003641Y0129529D02*
X0003641Y0127260D01*
X0021714Y0132718D02*
X0021714Y0134945D01*
X0021675Y0143167D02*
X0021675Y0145394D01*
X0022788Y0144280D02*
X0020561Y0144280D01*
X0021671Y0098438D02*
X0021671Y0096211D01*
X0022784Y0097324D02*
X0020557Y0097324D01*
X0021671Y0088635D02*
X0021671Y0086408D01*
X0007286Y0088500D02*
X0006151Y0089635D01*
X0003883Y0089635D01*
X0003883Y0091049D02*
X0007286Y0091049D01*
X0003883Y0093318D01*
X0007286Y0093318D01*
X0006151Y0094732D02*
X0007286Y0095867D01*
X0003883Y0095867D01*
X0003883Y0097001D02*
X0003883Y0094732D01*
X0005584Y0089635D02*
X0005584Y0087366D01*
X0006151Y0087366D02*
X0007286Y0088500D01*
X0006151Y0087366D02*
X0003883Y0087366D01*
X0005584Y0085951D02*
X0005584Y0083683D01*
X0003883Y0082268D02*
X0003883Y0080000D01*
X0003883Y0081134D02*
X0007286Y0081134D01*
X0006151Y0080000D01*
X0006718Y0078585D02*
X0007286Y0078018D01*
X0007286Y0076884D01*
X0006718Y0076317D01*
X0006151Y0076317D01*
X0005584Y0076884D01*
X0005584Y0078018D01*
X0005017Y0078585D01*
X0004450Y0078585D01*
X0003883Y0078018D01*
X0003883Y0076884D01*
X0004450Y0076317D01*
X0003804Y0067395D02*
X0003804Y0065126D01*
X0006073Y0067395D01*
X0006640Y0067395D01*
X0007207Y0066827D01*
X0007207Y0065693D01*
X0006640Y0065126D01*
X0007207Y0063711D02*
X0003804Y0063711D01*
X0007207Y0061443D01*
X0003804Y0061443D01*
X0003804Y0060028D02*
X0006073Y0060028D01*
X0007207Y0058894D01*
X0006073Y0057760D01*
X0003804Y0057760D01*
X0005505Y0057760D02*
X0005505Y0060028D01*
X0005505Y0056345D02*
X0005505Y0054077D01*
X0003804Y0052662D02*
X0003804Y0050393D01*
X0003804Y0051528D02*
X0007207Y0051528D01*
X0006073Y0050393D01*
X0006640Y0048979D02*
X0007207Y0048412D01*
X0007207Y0047277D01*
X0006640Y0046710D01*
X0006073Y0046710D01*
X0005505Y0047277D01*
X0005505Y0048412D01*
X0004938Y0048979D01*
X0004371Y0048979D01*
X0003804Y0048412D01*
X0003804Y0047277D01*
X0004371Y0046710D01*
X0021592Y0055739D02*
X0021592Y0057965D01*
X0021631Y0066172D02*
X0021631Y0068398D01*
X0022745Y0067285D02*
X0020518Y0067285D01*
X0075867Y0053342D02*
X0076434Y0053910D01*
X0077568Y0053910D01*
X0078135Y0053342D01*
X0078135Y0052775D01*
X0077568Y0052208D01*
X0076434Y0052208D01*
X0075867Y0051641D01*
X0075867Y0051074D01*
X0076434Y0050507D01*
X0077568Y0050507D01*
X0078135Y0051074D01*
X0079550Y0050507D02*
X0081818Y0050507D01*
X0080684Y0050507D02*
X0080684Y0053910D01*
X0083233Y0053910D02*
X0083233Y0050507D01*
X0084934Y0050507D01*
X0085501Y0051074D01*
X0085501Y0052208D01*
X0084934Y0052775D01*
X0083233Y0052775D01*
X0084367Y0052775D02*
X0085501Y0053910D01*
X0086916Y0053910D02*
X0088050Y0053910D01*
X0087483Y0053910D02*
X0087483Y0050507D01*
X0086916Y0050507D02*
X0088050Y0050507D01*
X0089371Y0050507D02*
X0091073Y0050507D01*
X0091640Y0051074D01*
X0091640Y0052208D01*
X0091073Y0052775D01*
X0089371Y0052775D01*
X0089371Y0053910D02*
X0089371Y0050507D01*
X0093055Y0051074D02*
X0093622Y0050507D01*
X0094756Y0050507D01*
X0095323Y0051074D01*
X0095323Y0051641D01*
X0093055Y0053910D01*
X0095323Y0053910D01*
X0095353Y0009212D02*
X0093085Y0009212D01*
X0094219Y0009212D02*
X0094219Y0005809D01*
X0093085Y0006943D01*
X0091670Y0007510D02*
X0091103Y0008077D01*
X0089401Y0008077D01*
X0089401Y0009212D02*
X0089401Y0005809D01*
X0091103Y0005809D01*
X0091670Y0006376D01*
X0091670Y0007510D01*
X0088080Y0005809D02*
X0086946Y0005809D01*
X0087513Y0005809D02*
X0087513Y0009212D01*
X0086946Y0009212D02*
X0088080Y0009212D01*
X0085531Y0009212D02*
X0084397Y0008077D01*
X0084964Y0008077D02*
X0083263Y0008077D01*
X0083263Y0009212D02*
X0083263Y0005809D01*
X0084964Y0005809D01*
X0085531Y0006376D01*
X0085531Y0007510D01*
X0084964Y0008077D01*
X0081848Y0005809D02*
X0079580Y0005809D01*
X0080714Y0005809D02*
X0080714Y0009212D01*
X0078165Y0008644D02*
X0078165Y0008077D01*
X0077598Y0007510D01*
X0076464Y0007510D01*
X0075897Y0006943D01*
X0075897Y0006376D01*
X0076464Y0005809D01*
X0077598Y0005809D01*
X0078165Y0006376D01*
X0078165Y0008644D02*
X0077598Y0009212D01*
X0076464Y0009212D01*
X0075897Y0008644D01*
X0021577Y0211821D02*
X0021577Y0214047D01*
X0021597Y0221506D02*
X0021597Y0223732D01*
X0020484Y0222619D02*
X0022710Y0222619D01*
X0006978Y0223051D02*
X0004710Y0223051D01*
X0003576Y0224185D01*
X0004710Y0225319D01*
X0006978Y0225319D01*
X0006411Y0226734D02*
X0004143Y0226734D01*
X0003576Y0227301D01*
X0003576Y0228435D01*
X0004143Y0229002D01*
X0006411Y0229002D01*
X0006978Y0228435D01*
X0006978Y0227301D01*
X0006411Y0226734D01*
X0006411Y0230417D02*
X0006978Y0230984D01*
X0006978Y0232118D01*
X0006411Y0232685D01*
X0005844Y0232685D01*
X0003576Y0230417D01*
X0003576Y0232685D01*
X0004076Y0242277D02*
X0003509Y0242844D01*
X0003509Y0243978D01*
X0004076Y0244545D01*
X0004643Y0244545D01*
X0005210Y0243978D01*
X0005210Y0242844D01*
X0005777Y0242277D01*
X0006344Y0242277D01*
X0006912Y0242844D01*
X0006912Y0243978D01*
X0006344Y0244545D01*
X0006912Y0245960D02*
X0003509Y0245960D01*
X0003509Y0248228D01*
X0003509Y0249643D02*
X0006912Y0249643D01*
X0006912Y0251344D01*
X0006344Y0251912D01*
X0005210Y0251912D01*
X0004643Y0251344D01*
X0004643Y0249643D01*
X0004643Y0250777D02*
X0003509Y0251912D01*
X0004643Y0253326D02*
X0003509Y0254460D01*
X0004643Y0255595D01*
X0006912Y0255595D01*
X0006344Y0257009D02*
X0004076Y0257009D01*
X0003509Y0257576D01*
X0003509Y0258711D01*
X0004076Y0259278D01*
X0006344Y0259278D01*
X0006912Y0258711D01*
X0006912Y0257576D01*
X0006344Y0257009D01*
X0006912Y0253326D02*
X0004643Y0253326D01*
X0006912Y0248228D02*
X0006912Y0245960D01*
X0005210Y0245960D02*
X0005210Y0247094D01*
X0005777Y0260692D02*
X0006912Y0261827D01*
X0003509Y0261827D01*
X0003509Y0262961D02*
X0003509Y0260692D01*
X0020460Y0252918D02*
X0022687Y0252918D01*
X0021573Y0254031D02*
X0021573Y0251805D01*
X0021656Y0244232D02*
X0021656Y0242006D01*
X0040685Y0243288D02*
X0040685Y0244788D01*
X0040687Y0244848D01*
X0040692Y0244909D01*
X0040701Y0244968D01*
X0040714Y0245027D01*
X0040730Y0245086D01*
X0040750Y0245143D01*
X0040773Y0245198D01*
X0040800Y0245253D01*
X0040829Y0245305D01*
X0040862Y0245356D01*
X0040898Y0245405D01*
X0040936Y0245451D01*
X0040978Y0245495D01*
X0041022Y0245537D01*
X0041068Y0245575D01*
X0041117Y0245611D01*
X0041168Y0245644D01*
X0041220Y0245673D01*
X0041275Y0245700D01*
X0041330Y0245723D01*
X0041387Y0245743D01*
X0041446Y0245759D01*
X0041505Y0245772D01*
X0041564Y0245781D01*
X0041625Y0245786D01*
X0041685Y0245788D01*
X0047685Y0245788D01*
X0047745Y0245786D01*
X0047806Y0245781D01*
X0047865Y0245772D01*
X0047924Y0245759D01*
X0047983Y0245743D01*
X0048040Y0245723D01*
X0048095Y0245700D01*
X0048150Y0245673D01*
X0048202Y0245644D01*
X0048253Y0245611D01*
X0048302Y0245575D01*
X0048348Y0245537D01*
X0048392Y0245495D01*
X0048434Y0245451D01*
X0048472Y0245405D01*
X0048508Y0245356D01*
X0048541Y0245305D01*
X0048570Y0245253D01*
X0048597Y0245198D01*
X0048620Y0245143D01*
X0048640Y0245086D01*
X0048656Y0245027D01*
X0048669Y0244968D01*
X0048678Y0244909D01*
X0048683Y0244848D01*
X0048685Y0244788D01*
X0048685Y0243288D01*
X0048185Y0242788D01*
X0048185Y0228788D01*
X0048685Y0228288D01*
X0048685Y0226788D01*
X0048683Y0226728D01*
X0048678Y0226667D01*
X0048669Y0226608D01*
X0048656Y0226549D01*
X0048640Y0226490D01*
X0048620Y0226433D01*
X0048597Y0226378D01*
X0048570Y0226323D01*
X0048541Y0226271D01*
X0048508Y0226220D01*
X0048472Y0226171D01*
X0048434Y0226125D01*
X0048392Y0226081D01*
X0048348Y0226039D01*
X0048302Y0226001D01*
X0048253Y0225965D01*
X0048202Y0225932D01*
X0048150Y0225903D01*
X0048095Y0225876D01*
X0048040Y0225853D01*
X0047983Y0225833D01*
X0047924Y0225817D01*
X0047865Y0225804D01*
X0047806Y0225795D01*
X0047745Y0225790D01*
X0047685Y0225788D01*
X0041685Y0225788D01*
X0041625Y0225790D01*
X0041564Y0225795D01*
X0041505Y0225804D01*
X0041446Y0225817D01*
X0041387Y0225833D01*
X0041330Y0225853D01*
X0041275Y0225876D01*
X0041220Y0225903D01*
X0041168Y0225932D01*
X0041117Y0225965D01*
X0041068Y0226001D01*
X0041022Y0226039D01*
X0040978Y0226081D01*
X0040936Y0226125D01*
X0040898Y0226171D01*
X0040862Y0226220D01*
X0040829Y0226271D01*
X0040800Y0226323D01*
X0040773Y0226378D01*
X0040750Y0226433D01*
X0040730Y0226490D01*
X0040714Y0226549D01*
X0040701Y0226608D01*
X0040692Y0226667D01*
X0040687Y0226728D01*
X0040685Y0226788D01*
X0040685Y0228288D01*
X0041185Y0228788D01*
X0041185Y0242788D01*
X0040685Y0243288D01*
X0053490Y0244059D02*
X0053990Y0243559D01*
X0053990Y0229559D01*
X0053490Y0229059D01*
X0053490Y0227559D01*
X0053492Y0227499D01*
X0053497Y0227438D01*
X0053506Y0227379D01*
X0053519Y0227320D01*
X0053535Y0227261D01*
X0053555Y0227204D01*
X0053578Y0227149D01*
X0053605Y0227094D01*
X0053634Y0227042D01*
X0053667Y0226991D01*
X0053703Y0226942D01*
X0053741Y0226896D01*
X0053783Y0226852D01*
X0053827Y0226810D01*
X0053873Y0226772D01*
X0053922Y0226736D01*
X0053973Y0226703D01*
X0054025Y0226674D01*
X0054080Y0226647D01*
X0054135Y0226624D01*
X0054192Y0226604D01*
X0054251Y0226588D01*
X0054310Y0226575D01*
X0054369Y0226566D01*
X0054430Y0226561D01*
X0054490Y0226559D01*
X0060490Y0226559D01*
X0060550Y0226561D01*
X0060611Y0226566D01*
X0060670Y0226575D01*
X0060729Y0226588D01*
X0060788Y0226604D01*
X0060845Y0226624D01*
X0060900Y0226647D01*
X0060955Y0226674D01*
X0061007Y0226703D01*
X0061058Y0226736D01*
X0061107Y0226772D01*
X0061153Y0226810D01*
X0061197Y0226852D01*
X0061239Y0226896D01*
X0061277Y0226942D01*
X0061313Y0226991D01*
X0061346Y0227042D01*
X0061375Y0227094D01*
X0061402Y0227149D01*
X0061425Y0227204D01*
X0061445Y0227261D01*
X0061461Y0227320D01*
X0061474Y0227379D01*
X0061483Y0227438D01*
X0061488Y0227499D01*
X0061490Y0227559D01*
X0061490Y0229059D01*
X0060990Y0229559D01*
X0060990Y0243559D01*
X0061490Y0244059D01*
X0061490Y0245559D01*
X0061488Y0245619D01*
X0061483Y0245680D01*
X0061474Y0245739D01*
X0061461Y0245798D01*
X0061445Y0245857D01*
X0061425Y0245914D01*
X0061402Y0245969D01*
X0061375Y0246024D01*
X0061346Y0246076D01*
X0061313Y0246127D01*
X0061277Y0246176D01*
X0061239Y0246222D01*
X0061197Y0246266D01*
X0061153Y0246308D01*
X0061107Y0246346D01*
X0061058Y0246382D01*
X0061007Y0246415D01*
X0060955Y0246444D01*
X0060900Y0246471D01*
X0060845Y0246494D01*
X0060788Y0246514D01*
X0060729Y0246530D01*
X0060670Y0246543D01*
X0060611Y0246552D01*
X0060550Y0246557D01*
X0060490Y0246559D01*
X0054490Y0246559D01*
X0054430Y0246557D01*
X0054369Y0246552D01*
X0054310Y0246543D01*
X0054251Y0246530D01*
X0054192Y0246514D01*
X0054135Y0246494D01*
X0054080Y0246471D01*
X0054025Y0246444D01*
X0053973Y0246415D01*
X0053922Y0246382D01*
X0053873Y0246346D01*
X0053827Y0246308D01*
X0053783Y0246266D01*
X0053741Y0246222D01*
X0053703Y0246176D01*
X0053667Y0246127D01*
X0053634Y0246076D01*
X0053605Y0246024D01*
X0053578Y0245969D01*
X0053555Y0245914D01*
X0053535Y0245857D01*
X0053519Y0245798D01*
X0053506Y0245739D01*
X0053497Y0245680D01*
X0053492Y0245619D01*
X0053490Y0245559D01*
X0053490Y0244059D01*
X0006978Y0221069D02*
X0006411Y0221636D01*
X0005277Y0221636D01*
X0004710Y0221069D01*
X0004710Y0219367D01*
X0003576Y0219367D02*
X0006978Y0219367D01*
X0006978Y0221069D01*
X0004710Y0220502D02*
X0003576Y0221636D01*
X0003576Y0217953D02*
X0003576Y0215684D01*
X0006978Y0215684D01*
X0006978Y0217953D01*
X0005277Y0216819D02*
X0005277Y0215684D01*
X0004710Y0214270D02*
X0004143Y0214270D01*
X0003576Y0213703D01*
X0003576Y0212568D01*
X0004143Y0212001D01*
X0005277Y0212568D02*
X0005277Y0213703D01*
X0004710Y0214270D01*
X0006411Y0214270D02*
X0006978Y0213703D01*
X0006978Y0212568D01*
X0006411Y0212001D01*
X0005844Y0212001D01*
X0005277Y0212568D01*
X0020347Y0303284D02*
X0020347Y0304954D01*
X0020904Y0305511D01*
X0021461Y0305511D01*
X0022017Y0304954D01*
X0022017Y0303284D01*
X0020347Y0303284D02*
X0023687Y0303284D01*
X0023687Y0304954D01*
X0023130Y0305511D01*
X0022574Y0305511D01*
X0022017Y0304954D01*
X0021027Y0312654D02*
X0019914Y0313768D01*
X0021027Y0314881D01*
X0023254Y0314881D01*
X0023254Y0312654D02*
X0021027Y0312654D01*
X0021848Y0322895D02*
X0021848Y0325121D01*
X0023518Y0325121D02*
X0020178Y0325121D01*
X0020178Y0322895D02*
X0023518Y0322895D01*
X0021450Y0332237D02*
X0021450Y0334464D01*
X0021478Y0342859D02*
X0021478Y0345086D01*
X0022591Y0343972D02*
X0020365Y0343972D01*
X0007018Y0333156D02*
X0003615Y0333156D01*
X0003552Y0333172D02*
X0006955Y0333172D01*
X0005821Y0332037D01*
X0005884Y0332022D02*
X0007018Y0333156D01*
X0006955Y0330623D02*
X0006388Y0330623D01*
X0005253Y0329488D01*
X0003552Y0329488D01*
X0003615Y0329473D02*
X0005316Y0329473D01*
X0006451Y0330607D01*
X0007018Y0330607D01*
X0005316Y0329473D02*
X0006451Y0328338D01*
X0007018Y0328338D01*
X0006955Y0328354D02*
X0006388Y0328354D01*
X0005253Y0329488D01*
X0004182Y0326924D02*
X0006451Y0326924D01*
X0007018Y0326357D01*
X0007018Y0325222D01*
X0006451Y0324655D01*
X0004182Y0324655D01*
X0003615Y0325222D01*
X0003615Y0326357D01*
X0004182Y0326924D01*
X0004119Y0326940D02*
X0006388Y0326940D01*
X0006955Y0326372D01*
X0006955Y0325238D01*
X0006388Y0324671D01*
X0004119Y0324671D01*
X0003552Y0325238D01*
X0003552Y0326372D01*
X0004119Y0326940D01*
X0004119Y0322689D02*
X0006955Y0322689D01*
X0007018Y0322674D02*
X0004182Y0322674D01*
X0003615Y0322106D01*
X0003615Y0321539D01*
X0004182Y0320972D01*
X0004119Y0320988D02*
X0003552Y0321555D01*
X0003552Y0322122D01*
X0004119Y0322689D01*
X0006955Y0322122D02*
X0006955Y0323256D01*
X0007018Y0323241D02*
X0007018Y0322106D01*
X0003615Y0332022D02*
X0003615Y0334290D01*
X0003552Y0334306D02*
X0003552Y0332037D01*
X0049429Y0337286D02*
X0049429Y0338786D01*
X0049929Y0339286D01*
X0049929Y0353286D01*
X0049429Y0353786D01*
X0049429Y0355286D01*
X0049431Y0355346D01*
X0049436Y0355407D01*
X0049445Y0355466D01*
X0049458Y0355525D01*
X0049474Y0355584D01*
X0049494Y0355641D01*
X0049517Y0355696D01*
X0049544Y0355751D01*
X0049573Y0355803D01*
X0049606Y0355854D01*
X0049642Y0355903D01*
X0049680Y0355949D01*
X0049722Y0355993D01*
X0049766Y0356035D01*
X0049812Y0356073D01*
X0049861Y0356109D01*
X0049912Y0356142D01*
X0049964Y0356171D01*
X0050019Y0356198D01*
X0050074Y0356221D01*
X0050131Y0356241D01*
X0050190Y0356257D01*
X0050249Y0356270D01*
X0050308Y0356279D01*
X0050369Y0356284D01*
X0050429Y0356286D01*
X0056429Y0356286D01*
X0056489Y0356284D01*
X0056550Y0356279D01*
X0056609Y0356270D01*
X0056668Y0356257D01*
X0056727Y0356241D01*
X0056784Y0356221D01*
X0056839Y0356198D01*
X0056894Y0356171D01*
X0056946Y0356142D01*
X0056997Y0356109D01*
X0057046Y0356073D01*
X0057092Y0356035D01*
X0057136Y0355993D01*
X0057178Y0355949D01*
X0057216Y0355903D01*
X0057252Y0355854D01*
X0057285Y0355803D01*
X0057314Y0355751D01*
X0057341Y0355696D01*
X0057364Y0355641D01*
X0057384Y0355584D01*
X0057400Y0355525D01*
X0057413Y0355466D01*
X0057422Y0355407D01*
X0057427Y0355346D01*
X0057429Y0355286D01*
X0057429Y0353786D01*
X0056929Y0353286D01*
X0056929Y0339286D01*
X0057429Y0338786D01*
X0057429Y0337286D01*
X0057427Y0337226D01*
X0057422Y0337165D01*
X0057413Y0337106D01*
X0057400Y0337047D01*
X0057384Y0336988D01*
X0057364Y0336931D01*
X0057341Y0336876D01*
X0057314Y0336821D01*
X0057285Y0336769D01*
X0057252Y0336718D01*
X0057216Y0336669D01*
X0057178Y0336623D01*
X0057136Y0336579D01*
X0057092Y0336537D01*
X0057046Y0336499D01*
X0056997Y0336463D01*
X0056946Y0336430D01*
X0056894Y0336401D01*
X0056839Y0336374D01*
X0056784Y0336351D01*
X0056727Y0336331D01*
X0056668Y0336315D01*
X0056609Y0336302D01*
X0056550Y0336293D01*
X0056489Y0336288D01*
X0056429Y0336286D01*
X0050429Y0336286D01*
X0050369Y0336288D01*
X0050308Y0336293D01*
X0050249Y0336302D01*
X0050190Y0336315D01*
X0050131Y0336331D01*
X0050074Y0336351D01*
X0050019Y0336374D01*
X0049964Y0336401D01*
X0049912Y0336430D01*
X0049861Y0336463D01*
X0049812Y0336499D01*
X0049766Y0336537D01*
X0049722Y0336579D01*
X0049680Y0336623D01*
X0049642Y0336669D01*
X0049606Y0336718D01*
X0049573Y0336769D01*
X0049544Y0336821D01*
X0049517Y0336876D01*
X0049494Y0336931D01*
X0049474Y0336988D01*
X0049458Y0337047D01*
X0049445Y0337106D01*
X0049436Y0337165D01*
X0049431Y0337226D01*
X0049429Y0337286D01*
X0063437Y0337386D02*
X0063437Y0338886D01*
X0063937Y0339386D01*
X0063937Y0353386D01*
X0063437Y0353886D01*
X0063437Y0355386D01*
X0063439Y0355446D01*
X0063444Y0355507D01*
X0063453Y0355566D01*
X0063466Y0355625D01*
X0063482Y0355684D01*
X0063502Y0355741D01*
X0063525Y0355796D01*
X0063552Y0355851D01*
X0063581Y0355903D01*
X0063614Y0355954D01*
X0063650Y0356003D01*
X0063688Y0356049D01*
X0063730Y0356093D01*
X0063774Y0356135D01*
X0063820Y0356173D01*
X0063869Y0356209D01*
X0063920Y0356242D01*
X0063972Y0356271D01*
X0064027Y0356298D01*
X0064082Y0356321D01*
X0064139Y0356341D01*
X0064198Y0356357D01*
X0064257Y0356370D01*
X0064316Y0356379D01*
X0064377Y0356384D01*
X0064437Y0356386D01*
X0070437Y0356386D01*
X0070497Y0356384D01*
X0070558Y0356379D01*
X0070617Y0356370D01*
X0070676Y0356357D01*
X0070735Y0356341D01*
X0070792Y0356321D01*
X0070847Y0356298D01*
X0070902Y0356271D01*
X0070954Y0356242D01*
X0071005Y0356209D01*
X0071054Y0356173D01*
X0071100Y0356135D01*
X0071144Y0356093D01*
X0071186Y0356049D01*
X0071224Y0356003D01*
X0071260Y0355954D01*
X0071293Y0355903D01*
X0071322Y0355851D01*
X0071349Y0355796D01*
X0071372Y0355741D01*
X0071392Y0355684D01*
X0071408Y0355625D01*
X0071421Y0355566D01*
X0071430Y0355507D01*
X0071435Y0355446D01*
X0071437Y0355386D01*
X0071437Y0353886D01*
X0070937Y0353386D01*
X0070937Y0339386D01*
X0071437Y0338886D01*
X0071437Y0337386D01*
X0071435Y0337326D01*
X0071430Y0337265D01*
X0071421Y0337206D01*
X0071408Y0337147D01*
X0071392Y0337088D01*
X0071372Y0337031D01*
X0071349Y0336976D01*
X0071322Y0336921D01*
X0071293Y0336869D01*
X0071260Y0336818D01*
X0071224Y0336769D01*
X0071186Y0336723D01*
X0071144Y0336679D01*
X0071100Y0336637D01*
X0071054Y0336599D01*
X0071005Y0336563D01*
X0070954Y0336530D01*
X0070902Y0336501D01*
X0070847Y0336474D01*
X0070792Y0336451D01*
X0070735Y0336431D01*
X0070676Y0336415D01*
X0070617Y0336402D01*
X0070558Y0336393D01*
X0070497Y0336388D01*
X0070437Y0336386D01*
X0064437Y0336386D01*
X0064377Y0336388D01*
X0064316Y0336393D01*
X0064257Y0336402D01*
X0064198Y0336415D01*
X0064139Y0336431D01*
X0064082Y0336451D01*
X0064027Y0336474D01*
X0063972Y0336501D01*
X0063920Y0336530D01*
X0063869Y0336563D01*
X0063820Y0336599D01*
X0063774Y0336637D01*
X0063730Y0336679D01*
X0063688Y0336723D01*
X0063650Y0336769D01*
X0063614Y0336818D01*
X0063581Y0336869D01*
X0063552Y0336921D01*
X0063525Y0336976D01*
X0063502Y0337031D01*
X0063482Y0337088D01*
X0063466Y0337147D01*
X0063453Y0337206D01*
X0063444Y0337265D01*
X0063439Y0337326D01*
X0063437Y0337386D01*
X0124793Y0368633D02*
X0124793Y0381633D01*
X0124795Y0381720D01*
X0124801Y0381807D01*
X0124810Y0381894D01*
X0124823Y0381980D01*
X0124840Y0382066D01*
X0124861Y0382151D01*
X0124886Y0382234D01*
X0124914Y0382317D01*
X0124945Y0382398D01*
X0124980Y0382478D01*
X0125019Y0382556D01*
X0125061Y0382633D01*
X0125106Y0382708D01*
X0125155Y0382780D01*
X0125206Y0382851D01*
X0125261Y0382919D01*
X0125318Y0382984D01*
X0125379Y0383047D01*
X0125442Y0383108D01*
X0125507Y0383165D01*
X0125575Y0383220D01*
X0125646Y0383271D01*
X0125718Y0383320D01*
X0125793Y0383365D01*
X0125870Y0383407D01*
X0125948Y0383446D01*
X0126028Y0383481D01*
X0126109Y0383512D01*
X0126192Y0383540D01*
X0126275Y0383565D01*
X0126360Y0383586D01*
X0126446Y0383603D01*
X0126532Y0383616D01*
X0126619Y0383625D01*
X0126706Y0383631D01*
X0126793Y0383633D01*
X0129293Y0380133D02*
X0129293Y0376433D01*
X0129293Y0373933D02*
X0129293Y0370133D01*
X0131793Y0366633D02*
X0131880Y0366635D01*
X0131967Y0366641D01*
X0132054Y0366650D01*
X0132140Y0366663D01*
X0132226Y0366680D01*
X0132311Y0366701D01*
X0132394Y0366726D01*
X0132477Y0366754D01*
X0132558Y0366785D01*
X0132638Y0366820D01*
X0132716Y0366859D01*
X0132793Y0366901D01*
X0132868Y0366946D01*
X0132940Y0366995D01*
X0133011Y0367046D01*
X0133079Y0367101D01*
X0133144Y0367158D01*
X0133207Y0367219D01*
X0133268Y0367282D01*
X0133325Y0367347D01*
X0133380Y0367415D01*
X0133431Y0367486D01*
X0133480Y0367558D01*
X0133525Y0367633D01*
X0133567Y0367710D01*
X0133606Y0367788D01*
X0133641Y0367868D01*
X0133672Y0367949D01*
X0133700Y0368032D01*
X0133725Y0368115D01*
X0133746Y0368200D01*
X0133763Y0368286D01*
X0133776Y0368372D01*
X0133785Y0368459D01*
X0133791Y0368546D01*
X0133793Y0368633D01*
X0133793Y0381633D01*
X0133791Y0381720D01*
X0133785Y0381807D01*
X0133776Y0381894D01*
X0133763Y0381980D01*
X0133746Y0382066D01*
X0133725Y0382151D01*
X0133700Y0382234D01*
X0133672Y0382317D01*
X0133641Y0382398D01*
X0133606Y0382478D01*
X0133567Y0382556D01*
X0133525Y0382633D01*
X0133480Y0382708D01*
X0133431Y0382780D01*
X0133380Y0382851D01*
X0133325Y0382919D01*
X0133268Y0382984D01*
X0133207Y0383047D01*
X0133144Y0383108D01*
X0133079Y0383165D01*
X0133011Y0383220D01*
X0132940Y0383271D01*
X0132868Y0383320D01*
X0132793Y0383365D01*
X0132716Y0383407D01*
X0132638Y0383446D01*
X0132558Y0383481D01*
X0132477Y0383512D01*
X0132394Y0383540D01*
X0132311Y0383565D01*
X0132226Y0383586D01*
X0132140Y0383603D01*
X0132054Y0383616D01*
X0131967Y0383625D01*
X0131880Y0383631D01*
X0131793Y0383633D01*
X0124793Y0368633D02*
X0124795Y0368546D01*
X0124801Y0368459D01*
X0124810Y0368372D01*
X0124823Y0368286D01*
X0124840Y0368200D01*
X0124861Y0368115D01*
X0124886Y0368032D01*
X0124914Y0367949D01*
X0124945Y0367868D01*
X0124980Y0367788D01*
X0125019Y0367710D01*
X0125061Y0367633D01*
X0125106Y0367558D01*
X0125155Y0367486D01*
X0125206Y0367415D01*
X0125261Y0367347D01*
X0125318Y0367282D01*
X0125379Y0367219D01*
X0125442Y0367158D01*
X0125507Y0367101D01*
X0125575Y0367046D01*
X0125646Y0366995D01*
X0125718Y0366946D01*
X0125793Y0366901D01*
X0125870Y0366859D01*
X0125948Y0366820D01*
X0126028Y0366785D01*
X0126109Y0366754D01*
X0126192Y0366726D01*
X0126275Y0366701D01*
X0126360Y0366680D01*
X0126446Y0366663D01*
X0126532Y0366650D01*
X0126619Y0366641D01*
X0126706Y0366635D01*
X0126793Y0366633D01*
X0314740Y0308056D02*
X0314740Y0306556D01*
X0315240Y0306056D01*
X0315240Y0292056D01*
X0314740Y0291556D01*
X0314740Y0290056D01*
X0314742Y0289996D01*
X0314747Y0289935D01*
X0314756Y0289876D01*
X0314769Y0289817D01*
X0314785Y0289758D01*
X0314805Y0289701D01*
X0314828Y0289646D01*
X0314855Y0289591D01*
X0314884Y0289539D01*
X0314917Y0289488D01*
X0314953Y0289439D01*
X0314991Y0289393D01*
X0315033Y0289349D01*
X0315077Y0289307D01*
X0315123Y0289269D01*
X0315172Y0289233D01*
X0315223Y0289200D01*
X0315275Y0289171D01*
X0315330Y0289144D01*
X0315385Y0289121D01*
X0315442Y0289101D01*
X0315501Y0289085D01*
X0315560Y0289072D01*
X0315619Y0289063D01*
X0315680Y0289058D01*
X0315740Y0289056D01*
X0321740Y0289056D01*
X0321800Y0289058D01*
X0321861Y0289063D01*
X0321920Y0289072D01*
X0321979Y0289085D01*
X0322038Y0289101D01*
X0322095Y0289121D01*
X0322150Y0289144D01*
X0322205Y0289171D01*
X0322257Y0289200D01*
X0322308Y0289233D01*
X0322357Y0289269D01*
X0322403Y0289307D01*
X0322447Y0289349D01*
X0322489Y0289393D01*
X0322527Y0289439D01*
X0322563Y0289488D01*
X0322596Y0289539D01*
X0322625Y0289591D01*
X0322652Y0289646D01*
X0322675Y0289701D01*
X0322695Y0289758D01*
X0322711Y0289817D01*
X0322724Y0289876D01*
X0322733Y0289935D01*
X0322738Y0289996D01*
X0322740Y0290056D01*
X0322740Y0291556D01*
X0322240Y0292056D01*
X0322240Y0306056D01*
X0322740Y0306556D01*
X0322740Y0308056D01*
X0322738Y0308116D01*
X0322733Y0308177D01*
X0322724Y0308236D01*
X0322711Y0308295D01*
X0322695Y0308354D01*
X0322675Y0308411D01*
X0322652Y0308466D01*
X0322625Y0308521D01*
X0322596Y0308573D01*
X0322563Y0308624D01*
X0322527Y0308673D01*
X0322489Y0308719D01*
X0322447Y0308763D01*
X0322403Y0308805D01*
X0322357Y0308843D01*
X0322308Y0308879D01*
X0322257Y0308912D01*
X0322205Y0308941D01*
X0322150Y0308968D01*
X0322095Y0308991D01*
X0322038Y0309011D01*
X0321979Y0309027D01*
X0321920Y0309040D01*
X0321861Y0309049D01*
X0321800Y0309054D01*
X0321740Y0309056D01*
X0315740Y0309056D01*
X0315680Y0309054D01*
X0315619Y0309049D01*
X0315560Y0309040D01*
X0315501Y0309027D01*
X0315442Y0309011D01*
X0315385Y0308991D01*
X0315330Y0308968D01*
X0315275Y0308941D01*
X0315223Y0308912D01*
X0315172Y0308879D01*
X0315123Y0308843D01*
X0315077Y0308805D01*
X0315033Y0308763D01*
X0314991Y0308719D01*
X0314953Y0308673D01*
X0314917Y0308624D01*
X0314884Y0308573D01*
X0314855Y0308521D01*
X0314828Y0308466D01*
X0314805Y0308411D01*
X0314785Y0308354D01*
X0314769Y0308295D01*
X0314756Y0308236D01*
X0314747Y0308177D01*
X0314742Y0308116D01*
X0314740Y0308056D01*
X0373423Y0334144D02*
X0375650Y0334144D01*
X0376763Y0335258D01*
X0375650Y0336371D01*
X0373423Y0336371D01*
X0374184Y0343881D02*
X0373628Y0344437D01*
X0373628Y0346107D01*
X0376968Y0346107D01*
X0376968Y0344437D01*
X0376411Y0343881D01*
X0375854Y0343881D01*
X0375298Y0344437D01*
X0375298Y0346107D01*
X0375298Y0344437D02*
X0374741Y0343881D01*
X0374184Y0343881D01*
X0373801Y0325217D02*
X0377141Y0325217D01*
X0375471Y0325217D02*
X0375471Y0322991D01*
X0373801Y0322991D02*
X0377141Y0322991D01*
X0375321Y0315761D02*
X0375321Y0313534D01*
X0375184Y0305457D02*
X0375184Y0303231D01*
X0374070Y0304344D02*
X0376297Y0304344D01*
D12*
X0016098Y0042095D02*
X0011098Y0042095D01*
X0008598Y0044595D01*
X0008598Y0049595D01*
X0011098Y0052095D01*
X0008598Y0054595D01*
X0008598Y0059595D01*
X0011098Y0062095D01*
X0008598Y0064595D01*
X0008598Y0069595D01*
X0011098Y0072095D01*
X0016098Y0072095D01*
X0018598Y0069595D01*
X0018598Y0064595D01*
X0016098Y0062095D01*
X0018598Y0059595D01*
X0018598Y0054595D01*
X0016098Y0052095D01*
X0018598Y0049595D01*
X0018598Y0044595D01*
X0016098Y0042095D01*
X0016098Y0072095D02*
X0011098Y0072095D01*
X0008598Y0074595D01*
X0008598Y0079595D01*
X0011098Y0082095D01*
X0008598Y0084595D01*
X0008598Y0089595D01*
X0011098Y0092095D01*
X0008598Y0094595D01*
X0008598Y0099595D01*
X0011098Y0102095D01*
X0016098Y0102095D01*
X0018598Y0099595D01*
X0018598Y0094595D01*
X0016098Y0092095D01*
X0018598Y0089595D01*
X0018598Y0084595D01*
X0016098Y0082095D01*
X0018598Y0079595D01*
X0018598Y0074595D01*
X0016098Y0072095D01*
X0045850Y0057584D02*
X0045850Y0093017D01*
X0125378Y0093017D01*
X0125378Y0092623D02*
X0125378Y0057584D01*
X0094275Y0057584D01*
X0094275Y0063489D01*
X0076952Y0063489D01*
X0076952Y0057584D01*
X0094275Y0057584D01*
X0103114Y0064375D02*
X0108114Y0064375D01*
X0125219Y0047886D02*
X0045691Y0047886D01*
X0045691Y0012453D01*
X0076793Y0012453D01*
X0076793Y0018358D01*
X0094116Y0018358D01*
X0094116Y0012453D01*
X0125219Y0012453D01*
X0125219Y0047492D01*
X0107955Y0019244D02*
X0102955Y0019244D01*
X0094116Y0012453D02*
X0076793Y0012453D01*
X0076952Y0057584D02*
X0045850Y0057584D01*
X0015972Y0118930D02*
X0010972Y0118930D01*
X0008472Y0121430D01*
X0008472Y0126430D01*
X0010972Y0128930D01*
X0008472Y0131430D01*
X0008472Y0136430D01*
X0010972Y0138930D01*
X0008472Y0141430D01*
X0008472Y0146430D01*
X0010972Y0148930D01*
X0015972Y0148930D01*
X0018472Y0146430D01*
X0018472Y0141430D01*
X0015972Y0138930D01*
X0018472Y0136430D01*
X0018472Y0131430D01*
X0015972Y0128930D01*
X0018472Y0126430D01*
X0018472Y0121430D01*
X0015972Y0118930D01*
X0015894Y0148898D02*
X0010894Y0148898D01*
X0008394Y0151398D01*
X0008394Y0156398D01*
X0010894Y0158898D01*
X0008394Y0161398D01*
X0008394Y0166398D01*
X0010894Y0168898D01*
X0008394Y0171398D01*
X0008394Y0176398D01*
X0010894Y0178898D01*
X0015894Y0178898D01*
X0018394Y0176398D01*
X0018394Y0171398D01*
X0015894Y0168898D01*
X0018394Y0166398D01*
X0018394Y0161398D01*
X0015894Y0158898D01*
X0018394Y0156398D01*
X0018394Y0151398D01*
X0015894Y0148898D01*
X0047897Y0161043D02*
X0047897Y0196476D01*
X0127424Y0196476D01*
X0127424Y0196082D02*
X0127424Y0161043D01*
X0096322Y0161043D01*
X0096322Y0166948D01*
X0078999Y0166948D01*
X0078999Y0161043D01*
X0096322Y0161043D01*
X0105161Y0167834D02*
X0110161Y0167834D01*
X0078999Y0161043D02*
X0047897Y0161043D01*
X0016209Y0207391D02*
X0011209Y0207391D01*
X0008709Y0209891D01*
X0008709Y0214891D01*
X0011209Y0217391D01*
X0008709Y0219891D01*
X0008709Y0224891D01*
X0011209Y0227391D01*
X0008709Y0229891D01*
X0008709Y0234891D01*
X0011209Y0237391D01*
X0016209Y0237391D01*
X0018709Y0234891D01*
X0018709Y0229891D01*
X0016209Y0227391D01*
X0018709Y0224891D01*
X0018709Y0219891D01*
X0016209Y0217391D01*
X0018709Y0214891D01*
X0018709Y0209891D01*
X0016209Y0207391D01*
X0016209Y0237454D02*
X0011209Y0237454D01*
X0008709Y0239954D01*
X0008709Y0244954D01*
X0011209Y0247454D01*
X0008709Y0249954D01*
X0008709Y0254954D01*
X0011209Y0257454D01*
X0008709Y0259954D01*
X0008709Y0264954D01*
X0011209Y0267454D01*
X0016209Y0267454D01*
X0018709Y0264954D01*
X0018709Y0259954D01*
X0016209Y0257454D01*
X0018709Y0254954D01*
X0018709Y0249954D01*
X0016209Y0247454D01*
X0018709Y0244954D01*
X0018709Y0239954D01*
X0016209Y0237454D01*
X0016209Y0299200D02*
X0011209Y0299200D01*
X0008709Y0301700D01*
X0008709Y0306700D01*
X0011209Y0309200D01*
X0008709Y0311700D01*
X0008709Y0316700D01*
X0011209Y0319200D01*
X0008709Y0321700D01*
X0008709Y0326700D01*
X0011209Y0329200D01*
X0008709Y0331700D01*
X0008709Y0336700D01*
X0011209Y0339200D01*
X0008709Y0341700D01*
X0008709Y0346700D01*
X0011209Y0349200D01*
X0016209Y0349200D01*
X0018709Y0346700D01*
X0018709Y0341700D01*
X0016209Y0339200D01*
X0018709Y0336700D01*
X0018709Y0331700D01*
X0016209Y0329200D01*
X0018709Y0326700D01*
X0018709Y0321700D01*
X0016209Y0319200D01*
X0018709Y0316700D01*
X0018709Y0311700D01*
X0016209Y0309200D01*
X0018709Y0306700D01*
X0018709Y0301700D01*
X0016209Y0299200D01*
X0088884Y0337412D02*
X0092884Y0337412D01*
X0094884Y0337412D01*
X0092884Y0337412D02*
X0108884Y0337412D01*
X0108884Y0377412D01*
X0088884Y0377412D01*
X0088884Y0337412D01*
X0124106Y0339020D02*
X0126606Y0336520D01*
X0131606Y0336520D01*
X0134106Y0339020D01*
X0134106Y0344020D01*
X0131606Y0346520D01*
X0134106Y0349020D01*
X0134106Y0354020D01*
X0131606Y0356520D01*
X0126606Y0356520D01*
X0124106Y0354020D01*
X0124106Y0349020D01*
X0126606Y0346520D01*
X0124106Y0344020D01*
X0124106Y0339020D01*
X0069177Y0378402D02*
X0069177Y0383402D01*
X0066677Y0385902D01*
X0061677Y0385902D01*
X0059177Y0383402D01*
X0056677Y0385902D01*
X0051677Y0385902D01*
X0049177Y0383402D01*
X0049177Y0378402D01*
X0051677Y0375902D01*
X0056677Y0375902D01*
X0059177Y0378402D01*
X0061677Y0375902D01*
X0066677Y0375902D01*
X0069177Y0378402D01*
X0221688Y0395180D02*
X0221688Y0352266D01*
X0229169Y0352266D01*
X0229000Y0344601D02*
X0230068Y0343533D01*
X0230068Y0341398D01*
X0227932Y0341398D02*
X0227932Y0343533D01*
X0229000Y0344601D01*
X0226384Y0344067D02*
X0226384Y0342999D01*
X0225851Y0342466D01*
X0225317Y0342466D01*
X0224249Y0342999D01*
X0224249Y0341398D01*
X0226384Y0341398D01*
X0226384Y0344067D02*
X0225851Y0344601D01*
X0224783Y0344601D01*
X0224249Y0344067D01*
X0222701Y0342999D02*
X0220566Y0342999D01*
X0221634Y0341932D02*
X0221634Y0344067D01*
X0235299Y0344601D02*
X0236366Y0344601D01*
X0235833Y0344601D02*
X0235833Y0341398D01*
X0236366Y0341398D02*
X0235299Y0341398D01*
X0237754Y0341398D02*
X0239889Y0344601D01*
X0239889Y0341398D01*
X0237754Y0341398D02*
X0237754Y0344601D01*
X0245120Y0343533D02*
X0245120Y0342466D01*
X0246188Y0341398D01*
X0247576Y0341398D02*
X0247576Y0344601D01*
X0246188Y0344601D02*
X0245120Y0343533D01*
X0247576Y0341398D02*
X0248643Y0342466D01*
X0249711Y0341398D01*
X0249711Y0344601D01*
X0251259Y0344067D02*
X0251793Y0343533D01*
X0253394Y0343533D01*
X0253394Y0342999D02*
X0253394Y0344601D01*
X0251793Y0344601D01*
X0251259Y0344067D01*
X0251793Y0342466D02*
X0252860Y0342466D01*
X0253394Y0342999D01*
X0254942Y0342466D02*
X0255476Y0342466D01*
X0255476Y0344601D01*
X0254942Y0344601D02*
X0256010Y0344601D01*
X0257398Y0344601D02*
X0257398Y0342466D01*
X0258999Y0342466D01*
X0259533Y0342999D01*
X0259533Y0344601D01*
X0261081Y0344601D02*
X0262148Y0343533D01*
X0262148Y0342466D01*
X0261081Y0341398D01*
X0255476Y0341398D02*
X0255476Y0340864D01*
X0257121Y0352266D02*
X0248854Y0352266D01*
X0257121Y0352266D02*
X0257121Y0356597D01*
X0267248Y0352069D02*
X0274728Y0352069D01*
X0274440Y0344701D02*
X0273372Y0344701D01*
X0272838Y0344167D01*
X0272838Y0343099D02*
X0273906Y0342566D01*
X0274440Y0342566D01*
X0274973Y0343099D01*
X0274973Y0344167D01*
X0274440Y0344701D01*
X0272838Y0343099D02*
X0272838Y0341498D01*
X0274973Y0341498D01*
X0276521Y0341498D02*
X0276521Y0343633D01*
X0277589Y0344701D01*
X0278657Y0343633D01*
X0278657Y0341498D01*
X0283888Y0341498D02*
X0284955Y0341498D01*
X0284421Y0341498D02*
X0284421Y0344701D01*
X0283888Y0344701D02*
X0284955Y0344701D01*
X0286343Y0344701D02*
X0286343Y0341498D01*
X0288478Y0344701D01*
X0288478Y0341498D01*
X0293709Y0342566D02*
X0293709Y0343633D01*
X0294777Y0344701D01*
X0296165Y0344701D02*
X0296165Y0341498D01*
X0297766Y0341498D01*
X0298300Y0342032D01*
X0298300Y0343099D01*
X0297766Y0343633D01*
X0296165Y0343633D01*
X0294777Y0341498D02*
X0293709Y0342566D01*
X0299848Y0342566D02*
X0300382Y0342566D01*
X0300382Y0344701D01*
X0299848Y0344701D02*
X0300916Y0344701D01*
X0302303Y0344701D02*
X0303371Y0343633D01*
X0303371Y0342566D01*
X0302303Y0341498D01*
X0300382Y0341498D02*
X0300382Y0340964D01*
X0305069Y0343697D02*
X0307204Y0343697D01*
X0306137Y0344764D02*
X0306137Y0342629D01*
X0308752Y0342096D02*
X0308752Y0343697D01*
X0309820Y0343163D01*
X0310354Y0343163D01*
X0310887Y0343697D01*
X0310887Y0344764D01*
X0310354Y0345298D01*
X0309286Y0345298D01*
X0308752Y0344764D01*
X0308752Y0342096D02*
X0310887Y0342096D01*
X0312435Y0342096D02*
X0312435Y0344231D01*
X0313503Y0345298D01*
X0314570Y0344231D01*
X0314570Y0342096D01*
X0319802Y0342629D02*
X0319802Y0344764D01*
X0320335Y0345298D01*
X0321403Y0345298D01*
X0321937Y0344764D01*
X0321937Y0342629D01*
X0321403Y0342096D01*
X0320335Y0342096D01*
X0319802Y0342629D01*
X0323485Y0342096D02*
X0323485Y0344764D01*
X0324019Y0345298D01*
X0325086Y0345298D01*
X0325620Y0344764D01*
X0325620Y0342096D01*
X0327168Y0342096D02*
X0329303Y0342096D01*
X0328235Y0342096D02*
X0328235Y0345298D01*
X0334534Y0344231D02*
X0334534Y0343163D01*
X0335602Y0342096D01*
X0336990Y0343163D02*
X0338057Y0343163D01*
X0337523Y0342629D02*
X0337523Y0344764D01*
X0338057Y0345298D01*
X0339445Y0344764D02*
X0339979Y0345298D01*
X0341046Y0345298D01*
X0341580Y0344764D01*
X0341580Y0343697D01*
X0341046Y0343163D01*
X0339979Y0343163D01*
X0339445Y0343697D01*
X0339445Y0344764D01*
X0335602Y0345298D02*
X0334534Y0344231D01*
X0340249Y0352469D02*
X0348517Y0352469D01*
X0348517Y0356800D01*
X0346811Y0345298D02*
X0346811Y0342096D01*
X0348413Y0342096D01*
X0348947Y0342629D01*
X0348947Y0343697D01*
X0348413Y0344231D01*
X0346811Y0344231D01*
X0350495Y0345298D02*
X0351562Y0345298D01*
X0351028Y0345298D02*
X0351028Y0343163D01*
X0350495Y0343163D01*
X0351028Y0342096D02*
X0351028Y0341562D01*
X0352950Y0342096D02*
X0354017Y0343163D01*
X0354017Y0344231D01*
X0352950Y0345298D01*
X0379039Y0346714D02*
X0379039Y0341714D01*
X0381539Y0339214D01*
X0379039Y0336714D01*
X0379039Y0331714D01*
X0381539Y0329214D01*
X0379039Y0326714D01*
X0379039Y0321714D01*
X0381539Y0319214D01*
X0379039Y0316714D01*
X0379039Y0311714D01*
X0381539Y0309214D01*
X0379039Y0306714D01*
X0379039Y0301714D01*
X0381539Y0299214D01*
X0386539Y0299214D01*
X0389039Y0301714D01*
X0389039Y0306714D01*
X0386539Y0309214D01*
X0389039Y0311714D01*
X0389039Y0316714D01*
X0386539Y0319214D01*
X0389039Y0321714D01*
X0389039Y0326714D01*
X0386539Y0329214D01*
X0389039Y0331714D01*
X0389039Y0336714D01*
X0386539Y0339214D01*
X0389039Y0341714D01*
X0389039Y0346714D01*
X0386539Y0349214D01*
X0381539Y0349214D01*
X0379039Y0346714D01*
X0390893Y0328987D02*
X0390893Y0327919D01*
X0390893Y0328453D02*
X0393562Y0328453D01*
X0394096Y0328987D01*
X0394096Y0329521D01*
X0393562Y0330054D01*
X0393562Y0326371D02*
X0391427Y0326371D01*
X0390893Y0325837D01*
X0390893Y0324770D01*
X0391427Y0324236D01*
X0393562Y0324236D01*
X0394096Y0324770D01*
X0394096Y0325837D01*
X0393562Y0326371D01*
X0391427Y0322688D02*
X0392495Y0321620D01*
X0394096Y0321620D01*
X0392495Y0321620D02*
X0391427Y0320553D01*
X0390893Y0320553D01*
X0391427Y0319005D02*
X0390893Y0318471D01*
X0390893Y0317404D01*
X0391427Y0316870D01*
X0391961Y0316870D01*
X0394096Y0319005D01*
X0394096Y0316870D01*
X0391427Y0322688D02*
X0390893Y0322688D01*
X0386350Y0294119D02*
X0381350Y0294119D01*
X0378850Y0291619D01*
X0378850Y0286619D01*
X0381350Y0284119D01*
X0378850Y0281619D01*
X0378850Y0276619D01*
X0381350Y0274119D01*
X0378850Y0271619D01*
X0378850Y0266619D01*
X0381350Y0264119D01*
X0386350Y0264119D01*
X0388850Y0266619D01*
X0388850Y0271619D01*
X0386350Y0274119D01*
X0388850Y0276619D01*
X0388850Y0281619D01*
X0386350Y0284119D01*
X0388850Y0286619D01*
X0388850Y0291619D01*
X0386350Y0294119D01*
X0386453Y0264139D02*
X0381453Y0264139D01*
X0378953Y0261639D01*
X0378953Y0256639D01*
X0381453Y0254139D01*
X0378953Y0251639D01*
X0378953Y0246639D01*
X0381453Y0244139D01*
X0378953Y0241639D01*
X0378953Y0236639D01*
X0381453Y0234139D01*
X0386453Y0234139D01*
X0388953Y0236639D01*
X0388953Y0241639D01*
X0386453Y0244139D01*
X0388953Y0246639D01*
X0388953Y0251639D01*
X0386453Y0254139D01*
X0388953Y0256639D01*
X0388953Y0261639D01*
X0386453Y0264139D01*
X0369173Y0252704D02*
X0289646Y0252704D01*
X0289646Y0217271D01*
X0320748Y0217271D01*
X0320748Y0223177D01*
X0338071Y0223177D01*
X0338071Y0217271D01*
X0369173Y0217271D01*
X0369173Y0252310D01*
X0381331Y0228119D02*
X0386331Y0228119D01*
X0388831Y0225619D01*
X0388831Y0220619D01*
X0386331Y0218119D01*
X0388831Y0215619D01*
X0388831Y0210619D01*
X0386331Y0208119D01*
X0388831Y0205619D01*
X0388831Y0200619D01*
X0386331Y0198119D01*
X0381331Y0198119D01*
X0378831Y0200619D01*
X0378831Y0205619D01*
X0381331Y0208119D01*
X0378831Y0210619D01*
X0378831Y0215619D01*
X0381331Y0218119D01*
X0378831Y0220619D01*
X0378831Y0225619D01*
X0381331Y0228119D01*
X0368433Y0203741D02*
X0288906Y0203741D01*
X0288906Y0168308D01*
X0320008Y0168308D01*
X0320008Y0174213D01*
X0337331Y0174213D01*
X0337331Y0168308D01*
X0368433Y0168308D01*
X0368433Y0203347D01*
X0378787Y0195646D02*
X0378787Y0190646D01*
X0381287Y0188146D01*
X0378787Y0185646D01*
X0378787Y0180646D01*
X0381287Y0178146D01*
X0378787Y0175646D01*
X0378787Y0170646D01*
X0381287Y0168146D01*
X0386287Y0168146D01*
X0388787Y0170646D01*
X0388787Y0175646D01*
X0386287Y0178146D01*
X0388787Y0180646D01*
X0388787Y0185646D01*
X0386287Y0188146D01*
X0388787Y0190646D01*
X0388787Y0195646D01*
X0386287Y0198146D01*
X0381287Y0198146D01*
X0378787Y0195646D01*
X0351169Y0175099D02*
X0346169Y0175099D01*
X0337331Y0168308D02*
X0320008Y0168308D01*
X0320748Y0217271D02*
X0338071Y0217271D01*
X0346909Y0224062D02*
X0351909Y0224062D01*
X0381287Y0162981D02*
X0378787Y0160481D01*
X0378787Y0155481D01*
X0381287Y0152981D01*
X0378787Y0150481D01*
X0378787Y0145481D01*
X0381287Y0142981D01*
X0378787Y0140481D01*
X0378787Y0135481D01*
X0381287Y0132981D01*
X0386287Y0132981D01*
X0388787Y0135481D01*
X0388787Y0140481D01*
X0386287Y0142981D01*
X0388787Y0145481D01*
X0388787Y0150481D01*
X0386287Y0152981D01*
X0388787Y0155481D01*
X0388787Y0160481D01*
X0386287Y0162981D01*
X0381287Y0162981D01*
X0381287Y0132284D02*
X0378787Y0129784D01*
X0378787Y0124784D01*
X0381287Y0122284D01*
X0378787Y0119784D01*
X0378787Y0114784D01*
X0381287Y0112284D01*
X0378787Y0109784D01*
X0378787Y0104784D01*
X0381287Y0102284D01*
X0386287Y0102284D01*
X0388787Y0104784D01*
X0388787Y0109784D01*
X0386287Y0112284D01*
X0388787Y0114784D01*
X0388787Y0119784D01*
X0386287Y0122284D01*
X0388787Y0124784D01*
X0388787Y0129784D01*
X0386287Y0132284D01*
X0381287Y0132284D01*
X0381287Y0098536D02*
X0378787Y0096036D01*
X0378787Y0091036D01*
X0381287Y0088536D01*
X0378787Y0086036D01*
X0378787Y0081036D01*
X0381287Y0078536D01*
X0378787Y0076036D01*
X0378787Y0071036D01*
X0381287Y0068536D01*
X0386287Y0068536D01*
X0388787Y0071036D01*
X0388787Y0076036D01*
X0386287Y0078536D01*
X0388787Y0081036D01*
X0388787Y0086036D01*
X0386287Y0088536D01*
X0388787Y0091036D01*
X0388787Y0096036D01*
X0386287Y0098536D01*
X0381287Y0098536D01*
X0381287Y0068465D02*
X0378787Y0065965D01*
X0378787Y0060965D01*
X0381287Y0058465D01*
X0378787Y0055965D01*
X0378787Y0050965D01*
X0381287Y0048465D01*
X0378787Y0045965D01*
X0378787Y0040965D01*
X0381287Y0038465D01*
X0386287Y0038465D01*
X0388787Y0040965D01*
X0388787Y0045965D01*
X0386287Y0048465D01*
X0388787Y0050965D01*
X0388787Y0055965D01*
X0386287Y0058465D01*
X0388787Y0060965D01*
X0388787Y0065965D01*
X0386287Y0068465D01*
X0381287Y0068465D01*
X0340874Y0054450D02*
X0340874Y0089489D01*
X0340874Y0089883D02*
X0261346Y0089883D01*
X0261346Y0054450D01*
X0292449Y0054450D01*
X0292449Y0060355D01*
X0309772Y0060355D01*
X0309772Y0054450D01*
X0340874Y0054450D01*
X0340874Y0046576D02*
X0261346Y0046576D01*
X0261346Y0011143D01*
X0292449Y0011143D01*
X0292449Y0017048D01*
X0309772Y0017048D01*
X0309772Y0011143D01*
X0340874Y0011143D01*
X0340874Y0046182D01*
X0323610Y0061241D02*
X0318610Y0061241D01*
X0309772Y0054450D02*
X0292449Y0054450D01*
X0318610Y0017934D02*
X0323610Y0017934D01*
X0309772Y0011143D02*
X0292449Y0011143D01*
X0270223Y0342032D02*
X0270223Y0344167D01*
X0271290Y0343099D02*
X0269155Y0343099D01*
X0267248Y0352069D02*
X0267248Y0394983D01*
X0302681Y0394983D01*
X0302681Y0374904D01*
X0302681Y0356400D02*
X0302681Y0352069D01*
X0294413Y0352069D01*
X0313083Y0352469D02*
X0320564Y0352469D01*
X0313083Y0352469D02*
X0313083Y0395383D01*
X0348517Y0395383D01*
X0348517Y0375304D01*
X0257121Y0375101D02*
X0257121Y0395180D01*
X0221688Y0395180D01*
D13*
X0097764Y0365938D02*
X0097371Y0366331D01*
X0096978Y0366331D01*
X0096585Y0365938D01*
X0096585Y0365152D01*
X0096978Y0364759D01*
X0097371Y0364759D01*
X0097764Y0365152D01*
X0097764Y0365938D01*
X0096585Y0365938D02*
X0096192Y0366331D01*
X0095799Y0366331D01*
X0095406Y0365938D01*
X0095406Y0365152D01*
X0095799Y0364759D01*
X0096192Y0364759D01*
X0096585Y0365152D01*
X0095799Y0363794D02*
X0095406Y0363401D01*
X0095406Y0362615D01*
X0095799Y0362222D01*
X0097371Y0363794D01*
X0095799Y0363794D01*
X0097371Y0363794D02*
X0097764Y0363401D01*
X0097764Y0362615D01*
X0097371Y0362222D01*
X0095799Y0362222D01*
X0096585Y0361256D02*
X0096192Y0360863D01*
X0096192Y0359684D01*
X0095406Y0359684D02*
X0097764Y0359684D01*
X0097764Y0360863D01*
X0097371Y0361256D01*
X0096585Y0361256D01*
X0095406Y0358778D02*
X0095406Y0357992D01*
X0095406Y0358385D02*
X0097764Y0358385D01*
X0097764Y0357992D02*
X0097764Y0358778D01*
X0097371Y0357027D02*
X0097764Y0356634D01*
X0097764Y0355455D01*
X0095406Y0355455D01*
X0095406Y0356634D01*
X0095799Y0357027D01*
X0097371Y0357027D01*
X0097764Y0354489D02*
X0097764Y0352917D01*
X0096585Y0352917D01*
X0096978Y0353703D01*
X0096978Y0354096D01*
X0096585Y0354489D01*
X0095799Y0354489D01*
X0095406Y0354096D01*
X0095406Y0353310D01*
X0095799Y0352917D01*
X0095799Y0351951D02*
X0095406Y0351558D01*
X0095406Y0350772D01*
X0095799Y0350379D01*
X0096192Y0350379D01*
X0096585Y0350772D01*
X0096585Y0351558D01*
X0096192Y0351951D01*
X0095799Y0351951D01*
X0096585Y0351558D02*
X0096978Y0351951D01*
X0097371Y0351951D01*
X0097764Y0351558D01*
X0097764Y0350772D01*
X0097371Y0350379D01*
X0096978Y0350379D01*
X0096585Y0350772D01*
X0097371Y0349414D02*
X0097764Y0349414D01*
X0097371Y0349414D02*
X0096585Y0348628D01*
X0095406Y0348628D01*
X0096585Y0348628D02*
X0097371Y0347842D01*
X0097764Y0347842D01*
X0097764Y0346876D02*
X0095406Y0346876D01*
X0097764Y0345304D01*
X0095406Y0345304D01*
X0095406Y0344399D02*
X0095406Y0343613D01*
X0095406Y0344006D02*
X0097764Y0344006D01*
X0097764Y0343613D02*
X0097764Y0344399D01*
X0097764Y0342647D02*
X0097764Y0341075D01*
X0097764Y0341861D02*
X0095406Y0341861D01*
X0095406Y0339323D02*
X0097764Y0339323D01*
X0097764Y0338537D02*
X0097764Y0340109D01*
X0096978Y0337572D02*
X0095406Y0337572D01*
X0096585Y0337572D02*
X0096585Y0336000D01*
X0096978Y0336000D02*
X0097764Y0336786D01*
X0096978Y0337572D01*
X0096978Y0336000D02*
X0095406Y0336000D01*
X0103248Y0263447D02*
X0104782Y0263447D01*
X0105550Y0262680D01*
X0107084Y0262680D02*
X0107852Y0263447D01*
X0109386Y0263447D01*
X0110154Y0262680D01*
X0110154Y0261913D01*
X0109386Y0261145D01*
X0107852Y0261145D01*
X0107084Y0260378D01*
X0107084Y0259611D01*
X0107852Y0258843D01*
X0109386Y0258843D01*
X0110154Y0259611D01*
X0111688Y0259611D02*
X0111688Y0263447D01*
X0114757Y0263447D02*
X0114757Y0259611D01*
X0113990Y0258843D01*
X0112456Y0258843D01*
X0111688Y0259611D01*
X0108619Y0258076D02*
X0108619Y0264215D01*
X0105550Y0258843D02*
X0102480Y0261913D01*
X0102480Y0262680D01*
X0103248Y0263447D01*
X0102480Y0258843D02*
X0105550Y0258843D01*
X0102494Y0251809D02*
X0103261Y0251041D01*
X0103261Y0249507D01*
X0102494Y0248739D01*
X0102494Y0247205D02*
X0101727Y0247205D01*
X0100959Y0246437D01*
X0100959Y0244903D01*
X0101727Y0244135D01*
X0102494Y0244135D01*
X0103261Y0244903D01*
X0103261Y0246437D01*
X0102494Y0247205D01*
X0100959Y0246437D02*
X0100192Y0247205D01*
X0099425Y0247205D01*
X0098657Y0246437D01*
X0098657Y0244903D01*
X0099425Y0244135D01*
X0100192Y0244135D01*
X0100959Y0244903D01*
X0100959Y0242601D02*
X0100959Y0240299D01*
X0101727Y0239531D01*
X0102494Y0239531D01*
X0103261Y0240299D01*
X0103261Y0241833D01*
X0102494Y0242601D01*
X0099425Y0242601D01*
X0098657Y0241833D01*
X0098657Y0240299D01*
X0099425Y0239531D01*
X0098657Y0237997D02*
X0098657Y0234928D01*
X0101727Y0237997D01*
X0102494Y0237997D01*
X0103261Y0237230D01*
X0103261Y0235695D01*
X0102494Y0234928D01*
X0101727Y0233393D02*
X0098657Y0233393D01*
X0100959Y0233393D02*
X0100959Y0230324D01*
X0101727Y0230324D02*
X0103261Y0231858D01*
X0101727Y0233393D01*
X0101727Y0230324D02*
X0098657Y0230324D01*
X0098657Y0248739D02*
X0101727Y0251809D01*
X0102494Y0251809D01*
X0098657Y0251809D02*
X0098657Y0248739D01*
X0023202Y0238215D02*
X0022809Y0238608D01*
X0023202Y0238215D02*
X0023202Y0237429D01*
X0022809Y0237036D01*
X0022416Y0237036D01*
X0022023Y0237429D01*
X0022023Y0238215D01*
X0021630Y0238608D01*
X0021237Y0238608D01*
X0020844Y0238215D01*
X0020844Y0237429D01*
X0021237Y0237036D01*
X0020844Y0236070D02*
X0023202Y0236070D01*
X0023202Y0234498D01*
X0023202Y0233533D02*
X0020844Y0233533D01*
X0020844Y0232354D01*
X0021237Y0231961D01*
X0022023Y0231961D01*
X0022416Y0232354D01*
X0022416Y0233533D01*
X0022416Y0232747D02*
X0023202Y0231961D01*
X0022416Y0230995D02*
X0023202Y0230209D01*
X0022416Y0229423D01*
X0020844Y0229423D01*
X0021237Y0228457D02*
X0020844Y0228065D01*
X0020844Y0227279D01*
X0021237Y0226886D01*
X0021630Y0226886D01*
X0023202Y0228457D01*
X0023202Y0226886D01*
X0022416Y0230995D02*
X0020844Y0230995D01*
X0020844Y0234498D02*
X0020844Y0236070D01*
X0022023Y0236070D02*
X0022023Y0235284D01*
X0022942Y0257362D02*
X0022942Y0258934D01*
X0022942Y0258148D02*
X0020584Y0258148D01*
X0021370Y0258934D01*
X0022156Y0259900D02*
X0020584Y0259900D01*
X0020584Y0261471D02*
X0022156Y0261471D01*
X0022942Y0260685D01*
X0022156Y0259900D01*
X0021763Y0262437D02*
X0022156Y0262830D01*
X0022156Y0264009D01*
X0022942Y0264009D02*
X0020584Y0264009D01*
X0020584Y0262830D01*
X0020977Y0262437D01*
X0021763Y0262437D01*
X0022156Y0263223D02*
X0022942Y0262437D01*
X0022942Y0264975D02*
X0022942Y0266547D01*
X0020584Y0266547D01*
X0020584Y0264975D01*
X0021763Y0265761D02*
X0021763Y0266547D01*
X0022156Y0267512D02*
X0022549Y0267512D01*
X0022942Y0267905D01*
X0022942Y0268691D01*
X0022549Y0269084D01*
X0021763Y0268691D02*
X0021370Y0269084D01*
X0020977Y0269084D01*
X0020584Y0268691D01*
X0020584Y0267905D01*
X0020977Y0267512D01*
X0021763Y0267905D02*
X0022156Y0267512D01*
X0021763Y0267905D02*
X0021763Y0268691D01*
X0182546Y0197737D02*
X0183314Y0198505D01*
X0184081Y0198505D01*
X0184848Y0197737D01*
X0184848Y0195435D01*
X0183314Y0195435D01*
X0182546Y0196203D01*
X0182546Y0197737D01*
X0184848Y0195435D02*
X0186383Y0196970D01*
X0187150Y0198505D01*
X0183314Y0193901D02*
X0182546Y0193901D01*
X0182546Y0193133D01*
X0183314Y0193133D01*
X0183314Y0193901D01*
X0183314Y0191599D02*
X0182546Y0190831D01*
X0182546Y0189297D01*
X0183314Y0188529D01*
X0184848Y0190064D02*
X0184848Y0190831D01*
X0184081Y0191599D01*
X0183314Y0191599D01*
X0184848Y0190831D02*
X0185616Y0191599D01*
X0186383Y0191599D01*
X0187150Y0190831D01*
X0187150Y0189297D01*
X0186383Y0188529D01*
X0185616Y0182391D02*
X0181779Y0182391D01*
X0181012Y0181624D01*
X0181012Y0180856D01*
X0182546Y0180089D02*
X0182546Y0182391D01*
X0182546Y0180089D02*
X0183314Y0179322D01*
X0185616Y0179322D01*
X0185616Y0177787D02*
X0185616Y0175485D01*
X0184848Y0174718D01*
X0184081Y0175485D01*
X0184081Y0177020D01*
X0183314Y0177787D01*
X0182546Y0177020D01*
X0182546Y0174718D01*
X0182546Y0173183D02*
X0184848Y0173183D01*
X0185616Y0172416D01*
X0185616Y0170114D01*
X0182546Y0170114D01*
X0184081Y0168579D02*
X0184081Y0165510D01*
X0183314Y0165510D02*
X0184848Y0165510D01*
X0185616Y0166277D01*
X0185616Y0167812D01*
X0184848Y0168579D01*
X0184081Y0168579D01*
X0182546Y0167812D02*
X0182546Y0166277D01*
X0183314Y0165510D01*
X0184081Y0163975D02*
X0184081Y0160906D01*
X0183314Y0160906D02*
X0184848Y0160906D01*
X0185616Y0161673D01*
X0185616Y0163208D01*
X0184848Y0163975D01*
X0184081Y0163975D01*
X0182546Y0163208D02*
X0182546Y0161673D01*
X0183314Y0160906D01*
X0182546Y0157837D02*
X0187150Y0157837D01*
X0187150Y0159371D02*
X0187150Y0156302D01*
X0374533Y0141452D02*
X0375319Y0140666D01*
X0376891Y0140666D01*
X0376891Y0139700D02*
X0374533Y0139700D01*
X0376891Y0138128D01*
X0374533Y0138128D01*
X0375319Y0137163D02*
X0374533Y0136377D01*
X0376891Y0136377D01*
X0376891Y0137163D02*
X0376891Y0135591D01*
X0376498Y0134625D02*
X0374926Y0133053D01*
X0376498Y0133053D01*
X0376891Y0133446D01*
X0376891Y0134232D01*
X0376498Y0134625D01*
X0374926Y0134625D01*
X0374533Y0134232D01*
X0374533Y0133446D01*
X0374926Y0133053D01*
X0375712Y0140666D02*
X0375712Y0142238D01*
X0375319Y0142238D02*
X0374533Y0141452D01*
X0375319Y0142238D02*
X0376891Y0142238D01*
X0376926Y0110517D02*
X0375354Y0110517D01*
X0374568Y0109731D01*
X0375354Y0108945D01*
X0376926Y0108945D01*
X0376926Y0107980D02*
X0374568Y0107980D01*
X0376926Y0106408D01*
X0374568Y0106408D01*
X0374961Y0105442D02*
X0375354Y0105442D01*
X0375747Y0105049D01*
X0375747Y0103870D01*
X0374961Y0103870D02*
X0374568Y0104263D01*
X0374568Y0105049D01*
X0374961Y0105442D01*
X0374961Y0103870D02*
X0376533Y0103870D01*
X0376926Y0104263D01*
X0376926Y0105049D01*
X0376533Y0105442D01*
X0375747Y0108945D02*
X0375747Y0110517D01*
D14*
X0375554Y0078286D02*
X0375554Y0076518D01*
X0375112Y0076518D02*
X0376880Y0076518D01*
X0376880Y0075386D02*
X0374228Y0075386D01*
X0376880Y0073618D01*
X0374228Y0073618D01*
X0375112Y0072486D02*
X0374228Y0071602D01*
X0376880Y0071602D01*
X0376880Y0072486D02*
X0376880Y0070718D01*
X0376880Y0069586D02*
X0375112Y0067818D01*
X0374670Y0067818D01*
X0374228Y0068260D01*
X0374228Y0069144D01*
X0374670Y0069586D01*
X0376880Y0069586D02*
X0376880Y0067818D01*
X0375112Y0076518D02*
X0374228Y0077402D01*
X0375112Y0078286D01*
X0376880Y0078286D01*
X0376632Y0048042D02*
X0374864Y0048042D01*
X0373980Y0047158D01*
X0374864Y0046274D01*
X0376632Y0046274D01*
X0376632Y0045142D02*
X0373980Y0045142D01*
X0376632Y0043374D01*
X0373980Y0043374D01*
X0374864Y0042242D02*
X0373980Y0041358D01*
X0376632Y0041358D01*
X0376632Y0042242D02*
X0376632Y0040474D01*
X0376632Y0039342D02*
X0376632Y0037574D01*
X0376632Y0038458D02*
X0373980Y0038458D01*
X0374864Y0039342D01*
X0375306Y0046274D02*
X0375306Y0048042D01*
X0321285Y0124862D02*
X0321735Y0125312D01*
X0321735Y0126213D01*
X0321285Y0126663D01*
X0320834Y0126663D01*
X0320384Y0126213D01*
X0319933Y0126663D01*
X0319483Y0126663D01*
X0319033Y0126213D01*
X0319033Y0125312D01*
X0319483Y0124862D01*
X0320384Y0125762D02*
X0320384Y0126213D01*
X0321285Y0127808D02*
X0321735Y0128259D01*
X0321735Y0129159D01*
X0321285Y0129610D01*
X0320834Y0129610D01*
X0320384Y0129159D01*
X0319933Y0129610D01*
X0319483Y0129610D01*
X0319033Y0129159D01*
X0319033Y0128259D01*
X0319483Y0127808D01*
X0320384Y0128709D02*
X0320384Y0129159D01*
X0321285Y0130755D02*
X0321735Y0131205D01*
X0321735Y0132106D01*
X0321285Y0132556D01*
X0319483Y0130755D01*
X0319033Y0131205D01*
X0319033Y0132106D01*
X0319483Y0132556D01*
X0321285Y0132556D01*
X0321285Y0130755D02*
X0319483Y0130755D01*
X0319378Y0137639D02*
X0319378Y0138089D01*
X0317576Y0139891D01*
X0317576Y0140341D01*
X0319378Y0140341D01*
X0320523Y0139891D02*
X0320523Y0138990D01*
X0320973Y0138540D01*
X0322324Y0138540D01*
X0321423Y0138540D02*
X0320523Y0137639D01*
X0322324Y0137639D02*
X0322324Y0140341D01*
X0320973Y0140341D01*
X0320523Y0139891D01*
X0374515Y0188513D02*
X0374957Y0188513D01*
X0376725Y0190281D01*
X0377167Y0190281D01*
X0377167Y0191413D02*
X0374515Y0191413D01*
X0374515Y0190281D02*
X0374515Y0188513D01*
X0377167Y0191413D02*
X0374515Y0193181D01*
X0377167Y0193181D01*
X0377167Y0194314D02*
X0375399Y0194314D01*
X0374515Y0195198D01*
X0375399Y0196081D01*
X0377167Y0196081D01*
X0375841Y0196081D02*
X0375841Y0194314D01*
X0375735Y0202260D02*
X0375735Y0204290D01*
X0374720Y0203275D02*
X0376750Y0203275D01*
X0375818Y0211582D02*
X0375818Y0213613D01*
X0375541Y0218317D02*
X0375983Y0218758D01*
X0375983Y0219642D01*
X0375541Y0220084D01*
X0375099Y0220084D01*
X0374657Y0219642D01*
X0374657Y0218758D01*
X0375099Y0218317D01*
X0375541Y0218317D01*
X0375983Y0218758D02*
X0376425Y0218317D01*
X0376867Y0218317D01*
X0377309Y0218758D01*
X0377309Y0219642D01*
X0376867Y0220084D01*
X0376425Y0220084D01*
X0375983Y0219642D01*
X0377309Y0221217D02*
X0374657Y0221217D01*
X0374657Y0222985D02*
X0377309Y0221217D01*
X0377309Y0222985D02*
X0374657Y0222985D01*
X0375541Y0224117D02*
X0377309Y0224117D01*
X0375983Y0224117D02*
X0375983Y0225885D01*
X0375541Y0225885D02*
X0374657Y0225001D01*
X0375541Y0224117D01*
X0375541Y0225885D02*
X0377309Y0225885D01*
X0376686Y0254785D02*
X0377128Y0255227D01*
X0377128Y0256111D01*
X0376686Y0256553D01*
X0375802Y0256553D02*
X0375360Y0255669D01*
X0375360Y0255227D01*
X0375802Y0254785D01*
X0376686Y0254785D01*
X0375802Y0256553D02*
X0374476Y0256553D01*
X0374476Y0254785D01*
X0374476Y0257685D02*
X0377128Y0257685D01*
X0374476Y0259453D01*
X0377128Y0259453D01*
X0377128Y0260585D02*
X0375360Y0260585D01*
X0374476Y0261469D01*
X0375360Y0262353D01*
X0377128Y0262353D01*
X0375802Y0262353D02*
X0375802Y0260585D01*
X0376366Y0284742D02*
X0375924Y0285184D01*
X0375924Y0286510D01*
X0376808Y0286510D01*
X0377250Y0286068D01*
X0377250Y0285184D01*
X0376808Y0284742D01*
X0376366Y0284742D01*
X0375040Y0285626D02*
X0374598Y0284742D01*
X0375040Y0285626D02*
X0375924Y0286510D01*
X0377250Y0287642D02*
X0374598Y0287642D01*
X0374598Y0289410D02*
X0377250Y0287642D01*
X0377250Y0289410D02*
X0374598Y0289410D01*
X0375482Y0290542D02*
X0377250Y0290542D01*
X0375924Y0290542D02*
X0375924Y0292310D01*
X0375482Y0292310D02*
X0374598Y0291426D01*
X0375482Y0290542D01*
X0375482Y0292310D02*
X0377250Y0292310D01*
X0339324Y0319250D02*
X0260583Y0319250D01*
X0260583Y0338935D01*
X0339324Y0338935D01*
X0339324Y0319250D01*
X0321123Y0306732D02*
X0321123Y0304030D01*
X0321123Y0304930D02*
X0319772Y0304930D01*
X0319322Y0305381D01*
X0319322Y0306281D01*
X0319772Y0306732D01*
X0321123Y0306732D01*
X0320223Y0304930D02*
X0319322Y0304030D01*
X0318177Y0304480D02*
X0317726Y0304030D01*
X0316826Y0304030D01*
X0316375Y0304480D01*
X0316375Y0304930D01*
X0316826Y0305381D01*
X0318177Y0305381D01*
X0318177Y0304480D01*
X0318177Y0305381D02*
X0317276Y0306281D01*
X0316375Y0306732D01*
X0317707Y0299246D02*
X0317257Y0298796D01*
X0317257Y0297895D01*
X0317707Y0297444D01*
X0319509Y0299246D01*
X0317707Y0299246D01*
X0317707Y0297444D02*
X0319509Y0297444D01*
X0319959Y0297895D01*
X0319959Y0298796D01*
X0319509Y0299246D01*
X0319509Y0296299D02*
X0319059Y0296299D01*
X0318608Y0295849D01*
X0318158Y0296299D01*
X0317707Y0296299D01*
X0317257Y0295849D01*
X0317257Y0294948D01*
X0317707Y0294498D01*
X0317707Y0293353D02*
X0317257Y0292903D01*
X0317257Y0292002D01*
X0317707Y0291551D01*
X0318608Y0292452D02*
X0318608Y0292903D01*
X0318158Y0293353D01*
X0317707Y0293353D01*
X0318608Y0292903D02*
X0319059Y0293353D01*
X0319509Y0293353D01*
X0319959Y0292903D01*
X0319959Y0292002D01*
X0319509Y0291551D01*
X0319509Y0294498D02*
X0319959Y0294948D01*
X0319959Y0295849D01*
X0319509Y0296299D01*
X0318608Y0295849D02*
X0318608Y0295399D01*
X0343326Y0347630D02*
X0344227Y0347630D01*
X0344678Y0348080D01*
X0343777Y0348981D02*
X0343326Y0348981D01*
X0342876Y0348530D01*
X0342876Y0348080D01*
X0343326Y0347630D01*
X0343326Y0348981D02*
X0342876Y0349431D01*
X0342876Y0349881D01*
X0343326Y0350332D01*
X0344227Y0350332D01*
X0344678Y0349881D01*
X0345823Y0350332D02*
X0346723Y0350332D01*
X0346273Y0350332D02*
X0346273Y0348080D01*
X0346723Y0347630D01*
X0347174Y0347630D01*
X0347624Y0348080D01*
X0301364Y0363038D02*
X0300913Y0362588D01*
X0300463Y0362588D01*
X0300012Y0363038D01*
X0300012Y0365290D01*
X0299562Y0365290D02*
X0300463Y0365290D01*
X0298417Y0365290D02*
X0298417Y0363939D01*
X0297516Y0364389D01*
X0297066Y0364389D01*
X0296615Y0363939D01*
X0296615Y0363038D01*
X0297066Y0362588D01*
X0297967Y0362588D01*
X0298417Y0363038D01*
X0298417Y0365290D02*
X0296615Y0365290D01*
X0257955Y0363467D02*
X0257505Y0363017D01*
X0257054Y0363017D01*
X0256604Y0363467D01*
X0256604Y0365719D01*
X0257054Y0365719D02*
X0256153Y0365719D01*
X0255008Y0364818D02*
X0254108Y0365719D01*
X0254108Y0363017D01*
X0255008Y0363017D02*
X0253207Y0363017D01*
X0252062Y0363017D02*
X0252062Y0363467D01*
X0250260Y0365269D01*
X0250260Y0365719D01*
X0252062Y0365719D01*
X0222346Y0309839D02*
X0197346Y0309839D01*
X0197346Y0314839D01*
X0172346Y0314839D01*
X0172346Y0309839D01*
X0197346Y0309839D01*
X0172346Y0309839D02*
X0152346Y0309839D01*
X0152346Y0069839D01*
X0222346Y0069839D01*
X0222346Y0309839D01*
X0263637Y0241212D02*
X0263637Y0239410D01*
X0265439Y0241212D01*
X0265889Y0241212D01*
X0266340Y0240761D01*
X0266340Y0239860D01*
X0265889Y0239410D01*
X0265889Y0238265D02*
X0265439Y0238265D01*
X0264989Y0237815D01*
X0264989Y0236914D01*
X0265439Y0236464D01*
X0265889Y0236464D01*
X0266340Y0236914D01*
X0266340Y0237815D01*
X0265889Y0238265D01*
X0264989Y0237815D02*
X0264538Y0238265D01*
X0264088Y0238265D01*
X0263637Y0237815D01*
X0263637Y0236914D01*
X0264088Y0236464D01*
X0264538Y0236464D01*
X0264989Y0236914D01*
X0264989Y0235319D02*
X0264989Y0233967D01*
X0265439Y0233517D01*
X0265889Y0233517D01*
X0266340Y0233967D01*
X0266340Y0234868D01*
X0265889Y0235319D01*
X0264088Y0235319D01*
X0263637Y0234868D01*
X0263637Y0233967D01*
X0264088Y0233517D01*
X0263637Y0232372D02*
X0263637Y0230571D01*
X0265439Y0232372D01*
X0265889Y0232372D01*
X0266340Y0231922D01*
X0266340Y0231021D01*
X0265889Y0230571D01*
X0265439Y0229426D02*
X0263637Y0229426D01*
X0264989Y0229426D02*
X0264989Y0227624D01*
X0265439Y0227624D02*
X0266340Y0228525D01*
X0265439Y0229426D01*
X0265439Y0227624D02*
X0263637Y0227624D01*
X0251568Y0231959D02*
X0249316Y0231959D01*
X0248866Y0232409D01*
X0248866Y0233310D01*
X0249316Y0233760D01*
X0251568Y0233760D01*
X0251118Y0234905D02*
X0251568Y0235356D01*
X0251568Y0236256D01*
X0251118Y0236707D01*
X0250667Y0236707D01*
X0248866Y0234905D01*
X0248866Y0236707D01*
X0255250Y0209512D02*
X0255260Y0209608D01*
X0255274Y0209703D01*
X0255292Y0209798D01*
X0255313Y0209893D01*
X0255339Y0209986D01*
X0255368Y0210078D01*
X0255401Y0210169D01*
X0255438Y0210258D01*
X0255478Y0210346D01*
X0255522Y0210432D01*
X0255569Y0210516D01*
X0255620Y0210598D01*
X0255674Y0210678D01*
X0255731Y0210756D01*
X0255791Y0210832D01*
X0255854Y0210905D01*
X0255921Y0210975D01*
X0255990Y0211043D01*
X0256061Y0211107D01*
X0256136Y0211169D01*
X0256212Y0211228D01*
X0256291Y0211283D01*
X0256373Y0211335D01*
X0256456Y0211384D01*
X0256541Y0211429D01*
X0256628Y0211471D01*
X0256717Y0211510D01*
X0256807Y0211544D01*
X0256899Y0211575D01*
X0256991Y0211602D01*
X0257085Y0211626D01*
X0257180Y0211645D01*
X0257275Y0211661D01*
X0257371Y0211673D01*
X0257467Y0211681D01*
X0257564Y0211685D01*
X0257660Y0211685D01*
X0257757Y0211681D01*
X0257853Y0211673D01*
X0257949Y0211661D01*
X0258044Y0211645D01*
X0258139Y0211626D01*
X0258233Y0211602D01*
X0258325Y0211575D01*
X0258417Y0211544D01*
X0258507Y0211510D01*
X0258596Y0211471D01*
X0258683Y0211429D01*
X0258768Y0211384D01*
X0258851Y0211335D01*
X0258933Y0211283D01*
X0259012Y0211228D01*
X0259088Y0211169D01*
X0259163Y0211107D01*
X0259234Y0211043D01*
X0259303Y0210975D01*
X0259370Y0210905D01*
X0259433Y0210832D01*
X0259493Y0210756D01*
X0259550Y0210678D01*
X0259604Y0210598D01*
X0259655Y0210516D01*
X0259702Y0210432D01*
X0259746Y0210346D01*
X0259786Y0210258D01*
X0259823Y0210169D01*
X0259856Y0210078D01*
X0259885Y0209986D01*
X0259911Y0209893D01*
X0259932Y0209798D01*
X0259950Y0209703D01*
X0259964Y0209608D01*
X0259974Y0209512D01*
X0204181Y0224331D02*
X0204181Y0225232D01*
X0203730Y0225682D01*
X0203280Y0225682D01*
X0202829Y0225232D01*
X0202379Y0225682D01*
X0201929Y0225682D01*
X0201478Y0225232D01*
X0201478Y0224331D01*
X0201929Y0223881D01*
X0202829Y0224781D02*
X0202829Y0225232D01*
X0203730Y0223881D02*
X0204181Y0224331D01*
X0203730Y0226827D02*
X0204181Y0227278D01*
X0204181Y0228178D01*
X0203730Y0228629D01*
X0203280Y0228629D01*
X0202829Y0228178D01*
X0202379Y0228629D01*
X0201929Y0228629D01*
X0201478Y0228178D01*
X0201478Y0227278D01*
X0201929Y0226827D01*
X0202829Y0227728D02*
X0202829Y0228178D01*
X0201929Y0229774D02*
X0203730Y0229774D01*
X0204181Y0230224D01*
X0204181Y0231125D01*
X0203730Y0231575D01*
X0201929Y0229774D01*
X0201478Y0230224D01*
X0201478Y0231125D01*
X0201929Y0231575D01*
X0203730Y0231575D01*
X0203027Y0234771D02*
X0203927Y0235672D01*
X0203477Y0235672D02*
X0204828Y0235672D01*
X0204828Y0234771D02*
X0204828Y0237474D01*
X0203477Y0237474D01*
X0203027Y0237023D01*
X0203027Y0236122D01*
X0203477Y0235672D01*
X0201882Y0234771D02*
X0200080Y0234771D01*
X0200981Y0234771D02*
X0200981Y0237474D01*
X0201882Y0236573D01*
X0122077Y0337558D02*
X0122077Y0338826D01*
X0122077Y0338192D02*
X0120175Y0338192D01*
X0120492Y0339768D02*
X0121126Y0339768D01*
X0121443Y0340085D01*
X0121443Y0340719D01*
X0121126Y0341035D01*
X0120809Y0341035D01*
X0120809Y0339768D01*
X0120492Y0339768D02*
X0120175Y0340085D01*
X0120175Y0340719D01*
X0120492Y0341978D02*
X0121126Y0341978D01*
X0121443Y0342295D01*
X0121443Y0342928D01*
X0121126Y0343245D01*
X0120809Y0343245D01*
X0120809Y0341978D01*
X0120492Y0341978D02*
X0120175Y0342295D01*
X0120175Y0342928D01*
X0120175Y0344188D02*
X0121443Y0344188D01*
X0121443Y0345138D01*
X0121126Y0345455D01*
X0120175Y0345455D01*
X0120175Y0346397D02*
X0120175Y0347348D01*
X0120492Y0347665D01*
X0120809Y0347348D01*
X0120809Y0346714D01*
X0121126Y0346397D01*
X0121443Y0346714D01*
X0121443Y0347665D01*
X0121443Y0348607D02*
X0120492Y0348607D01*
X0120175Y0348924D01*
X0120175Y0349875D01*
X0119858Y0349875D02*
X0119541Y0349558D01*
X0119541Y0349241D01*
X0119858Y0349875D02*
X0121443Y0349875D01*
X0121126Y0350817D02*
X0121126Y0352085D01*
X0121126Y0353027D02*
X0121443Y0353661D01*
X0121443Y0353978D01*
X0121126Y0354295D01*
X0120492Y0354295D01*
X0120175Y0353978D01*
X0120175Y0353344D01*
X0120492Y0353027D01*
X0121126Y0353027D02*
X0122077Y0353027D01*
X0122077Y0354295D01*
X0122077Y0355237D02*
X0120809Y0355237D01*
X0120175Y0355871D01*
X0120809Y0356505D01*
X0122077Y0356505D01*
X0126835Y0358412D02*
X0128103Y0358412D01*
X0127469Y0358412D02*
X0127469Y0360314D01*
X0128103Y0359680D01*
X0128400Y0359345D02*
X0128400Y0356643D01*
X0127500Y0356643D02*
X0129301Y0356643D01*
X0130446Y0357093D02*
X0130896Y0356643D01*
X0131797Y0356643D01*
X0132248Y0357093D01*
X0132248Y0358895D01*
X0131797Y0359345D01*
X0130896Y0359345D01*
X0130446Y0358895D01*
X0130313Y0358729D02*
X0129996Y0358412D01*
X0129679Y0358412D01*
X0129362Y0358729D01*
X0129362Y0360314D01*
X0129679Y0360314D02*
X0129045Y0360314D01*
X0128400Y0359345D02*
X0129301Y0358444D01*
X0105120Y0359340D02*
X0102418Y0359340D01*
X0102418Y0358439D02*
X0102418Y0360241D01*
X0104219Y0358439D02*
X0105120Y0359340D01*
X0105120Y0357294D02*
X0102868Y0357294D01*
X0102418Y0356844D01*
X0102418Y0355943D01*
X0102868Y0355493D01*
X0105120Y0355493D01*
X0072460Y0378995D02*
X0072460Y0379629D01*
X0072460Y0379312D02*
X0070876Y0379312D01*
X0070559Y0378995D01*
X0070559Y0378678D01*
X0070876Y0378361D01*
X0070559Y0380571D02*
X0070559Y0381839D01*
X0070559Y0381205D02*
X0072460Y0381205D01*
X0071826Y0380571D01*
X0072143Y0382781D02*
X0072460Y0383098D01*
X0072460Y0383732D01*
X0072143Y0384049D01*
X0071826Y0384049D01*
X0070559Y0382781D01*
X0070559Y0384049D01*
X0070788Y0387837D02*
X0071105Y0388154D01*
X0071105Y0389105D01*
X0069837Y0389105D02*
X0069837Y0387837D01*
X0070788Y0387837D01*
X0068895Y0387837D02*
X0068895Y0388788D01*
X0068578Y0389105D01*
X0068261Y0388788D01*
X0067944Y0389105D01*
X0067628Y0388788D01*
X0067628Y0387837D01*
X0066685Y0388154D02*
X0066685Y0388788D01*
X0066368Y0389105D01*
X0065735Y0389105D01*
X0065418Y0388788D01*
X0065418Y0388154D01*
X0065735Y0387837D01*
X0066368Y0387837D01*
X0066685Y0388154D01*
X0064475Y0387837D02*
X0063525Y0387837D01*
X0063208Y0388154D01*
X0063208Y0388788D01*
X0063525Y0389105D01*
X0064475Y0389105D01*
X0064475Y0387203D01*
X0062368Y0387837D02*
X0061734Y0387837D01*
X0062051Y0387520D02*
X0062051Y0388788D01*
X0062368Y0389105D01*
X0060792Y0389105D02*
X0060792Y0387837D01*
X0059525Y0387837D02*
X0059525Y0388788D01*
X0059842Y0389105D01*
X0060792Y0389105D01*
X0058582Y0389105D02*
X0058582Y0388154D01*
X0058266Y0387837D01*
X0057632Y0387837D01*
X0057315Y0388154D01*
X0057315Y0387203D02*
X0057315Y0389105D01*
X0056373Y0388788D02*
X0056056Y0389105D01*
X0055422Y0389105D01*
X0055105Y0388788D01*
X0055422Y0388154D02*
X0056056Y0388154D01*
X0056373Y0388471D01*
X0056373Y0388788D01*
X0055422Y0388154D02*
X0055105Y0387837D01*
X0055105Y0387520D01*
X0055422Y0387203D01*
X0056056Y0387203D01*
X0056373Y0387520D01*
X0054163Y0388154D02*
X0052895Y0388154D01*
X0051739Y0387837D02*
X0051739Y0389105D01*
X0051422Y0389105D02*
X0052056Y0389105D01*
X0051739Y0387837D02*
X0051422Y0387837D01*
X0051739Y0387203D02*
X0051739Y0386887D01*
X0050480Y0387520D02*
X0050480Y0388154D01*
X0050163Y0388471D01*
X0049212Y0388471D01*
X0049212Y0389105D02*
X0049212Y0387203D01*
X0050163Y0387203D01*
X0050480Y0387520D01*
X0048270Y0387520D02*
X0048270Y0388154D01*
X0047953Y0388471D01*
X0047002Y0388471D01*
X0047636Y0388471D02*
X0048270Y0389105D01*
X0047002Y0389105D02*
X0047002Y0387203D01*
X0047953Y0387203D01*
X0048270Y0387520D01*
X0050755Y0374727D02*
X0050305Y0374277D01*
X0050755Y0374727D02*
X0051656Y0374727D01*
X0052107Y0374277D01*
X0052107Y0373826D01*
X0051656Y0373376D01*
X0050755Y0373376D01*
X0050305Y0372926D01*
X0050305Y0372475D01*
X0050755Y0372025D01*
X0051656Y0372025D01*
X0052107Y0372475D01*
X0053252Y0372025D02*
X0054152Y0372025D01*
X0053702Y0372025D02*
X0053702Y0374727D01*
X0053252Y0374727D02*
X0054152Y0374727D01*
X0055216Y0374277D02*
X0055666Y0374727D01*
X0056567Y0374727D01*
X0057018Y0374277D01*
X0057018Y0373376D01*
X0056117Y0373376D01*
X0057018Y0372475D02*
X0056567Y0372025D01*
X0055666Y0372025D01*
X0055216Y0372475D01*
X0055216Y0374277D01*
X0063439Y0373211D02*
X0065241Y0373211D01*
X0065530Y0354418D02*
X0066431Y0354418D01*
X0066882Y0353967D01*
X0068027Y0353967D02*
X0068027Y0353066D01*
X0068477Y0352616D01*
X0069828Y0352616D01*
X0069828Y0351715D02*
X0069828Y0354418D01*
X0068477Y0354418D01*
X0068027Y0353967D01*
X0068927Y0352616D02*
X0068027Y0351715D01*
X0066882Y0351715D02*
X0065080Y0353517D01*
X0065080Y0353967D01*
X0065530Y0354418D01*
X0065080Y0351715D02*
X0066882Y0351715D01*
X0066376Y0349331D02*
X0067727Y0347980D01*
X0067277Y0347530D02*
X0069078Y0349331D01*
X0069078Y0347530D02*
X0066376Y0347530D01*
X0066376Y0346385D02*
X0066376Y0344583D01*
X0068178Y0346385D01*
X0068628Y0346385D01*
X0069078Y0345934D01*
X0069078Y0345034D01*
X0068628Y0344583D01*
X0066826Y0343560D02*
X0066376Y0343560D01*
X0066376Y0343110D01*
X0066826Y0343110D01*
X0066826Y0343560D01*
X0066376Y0341965D02*
X0066376Y0340163D01*
X0068178Y0341965D01*
X0068628Y0341965D01*
X0069078Y0341515D01*
X0069078Y0340614D01*
X0068628Y0340163D01*
X0055915Y0351340D02*
X0055915Y0354042D01*
X0054564Y0354042D01*
X0054113Y0353592D01*
X0054113Y0352691D01*
X0054564Y0352241D01*
X0055915Y0352241D01*
X0055014Y0352241D02*
X0054113Y0351340D01*
X0052968Y0351790D02*
X0052518Y0351340D01*
X0051617Y0351340D01*
X0051167Y0351790D01*
X0051167Y0352241D01*
X0051617Y0352691D01*
X0052067Y0352691D01*
X0051617Y0352691D02*
X0051167Y0353141D01*
X0051167Y0353592D01*
X0051617Y0354042D01*
X0052518Y0354042D01*
X0052968Y0353592D01*
X0051852Y0348782D02*
X0053204Y0347431D01*
X0052753Y0346981D02*
X0054555Y0348782D01*
X0054555Y0346981D02*
X0051852Y0346981D01*
X0052303Y0345836D02*
X0051852Y0345385D01*
X0051852Y0344485D01*
X0052303Y0344034D01*
X0052303Y0343011D02*
X0051852Y0343011D01*
X0051852Y0342561D01*
X0052303Y0342561D01*
X0052303Y0343011D01*
X0052303Y0341416D02*
X0051852Y0340966D01*
X0051852Y0340065D01*
X0052303Y0339615D01*
X0053204Y0340515D02*
X0053204Y0340966D01*
X0052753Y0341416D01*
X0052303Y0341416D01*
X0053204Y0340966D02*
X0053654Y0341416D01*
X0054104Y0341416D01*
X0054555Y0340966D01*
X0054555Y0340065D01*
X0054104Y0339615D01*
X0054104Y0344034D02*
X0054555Y0344485D01*
X0054555Y0345385D01*
X0054104Y0345836D01*
X0053654Y0345836D01*
X0053204Y0345385D01*
X0052753Y0345836D01*
X0052303Y0345836D01*
X0053204Y0345385D02*
X0053204Y0344935D01*
X0124425Y0391490D02*
X0125325Y0391490D01*
X0126470Y0391941D02*
X0126470Y0390139D01*
X0127822Y0390139D01*
X0128272Y0390589D01*
X0128272Y0391941D01*
X0129417Y0392391D02*
X0131218Y0390589D01*
X0130768Y0390139D01*
X0129867Y0390139D01*
X0129417Y0390589D01*
X0129417Y0392391D01*
X0129867Y0392841D01*
X0130768Y0392841D01*
X0131218Y0392391D01*
X0131218Y0390589D01*
X0132363Y0390139D02*
X0134165Y0390139D01*
X0133264Y0390139D02*
X0133264Y0392841D01*
X0134165Y0391941D01*
X0125325Y0392841D02*
X0125325Y0390139D01*
X0125325Y0392841D02*
X0123524Y0392841D01*
X0102819Y0256840D02*
X0102809Y0256744D01*
X0102795Y0256649D01*
X0102777Y0256554D01*
X0102756Y0256459D01*
X0102730Y0256366D01*
X0102701Y0256274D01*
X0102668Y0256183D01*
X0102631Y0256094D01*
X0102591Y0256006D01*
X0102547Y0255920D01*
X0102500Y0255836D01*
X0102449Y0255754D01*
X0102395Y0255674D01*
X0102338Y0255596D01*
X0102278Y0255520D01*
X0102215Y0255447D01*
X0102148Y0255377D01*
X0102079Y0255309D01*
X0102008Y0255245D01*
X0101933Y0255183D01*
X0101857Y0255124D01*
X0101778Y0255069D01*
X0101696Y0255017D01*
X0101613Y0254968D01*
X0101528Y0254923D01*
X0101441Y0254881D01*
X0101352Y0254842D01*
X0101262Y0254808D01*
X0101170Y0254777D01*
X0101078Y0254750D01*
X0100984Y0254726D01*
X0100889Y0254707D01*
X0100794Y0254691D01*
X0100698Y0254679D01*
X0100602Y0254671D01*
X0100505Y0254667D01*
X0100409Y0254667D01*
X0100312Y0254671D01*
X0100216Y0254679D01*
X0100120Y0254691D01*
X0100025Y0254707D01*
X0099930Y0254726D01*
X0099836Y0254750D01*
X0099744Y0254777D01*
X0099652Y0254808D01*
X0099562Y0254842D01*
X0099473Y0254881D01*
X0099386Y0254923D01*
X0099301Y0254968D01*
X0099218Y0255017D01*
X0099136Y0255069D01*
X0099057Y0255124D01*
X0098981Y0255183D01*
X0098906Y0255245D01*
X0098835Y0255309D01*
X0098766Y0255377D01*
X0098699Y0255447D01*
X0098636Y0255520D01*
X0098576Y0255596D01*
X0098519Y0255674D01*
X0098465Y0255754D01*
X0098414Y0255836D01*
X0098367Y0255920D01*
X0098323Y0256006D01*
X0098283Y0256094D01*
X0098246Y0256183D01*
X0098213Y0256274D01*
X0098184Y0256366D01*
X0098158Y0256459D01*
X0098137Y0256554D01*
X0098119Y0256649D01*
X0098105Y0256744D01*
X0098095Y0256840D01*
X0060771Y0230700D02*
X0059420Y0230700D01*
X0058969Y0230249D01*
X0058969Y0229349D01*
X0059420Y0228898D01*
X0060771Y0228898D01*
X0060771Y0227997D02*
X0060771Y0230700D01*
X0059870Y0228898D02*
X0058969Y0227997D01*
X0057824Y0228448D02*
X0057374Y0227997D01*
X0056473Y0227997D01*
X0056023Y0228448D01*
X0056023Y0229349D01*
X0056473Y0229799D01*
X0056923Y0229799D01*
X0057824Y0229349D01*
X0057824Y0230700D01*
X0056023Y0230700D01*
X0056457Y0235708D02*
X0056007Y0236159D01*
X0056007Y0237059D01*
X0056457Y0237510D01*
X0056908Y0237510D01*
X0057358Y0237059D01*
X0057358Y0236609D01*
X0057358Y0237059D02*
X0057808Y0237510D01*
X0058259Y0237510D01*
X0058709Y0237059D01*
X0058709Y0236159D01*
X0058259Y0235708D01*
X0058259Y0238655D02*
X0058709Y0239105D01*
X0058709Y0240006D01*
X0058259Y0240456D01*
X0057808Y0240456D01*
X0057358Y0240006D01*
X0056908Y0240456D01*
X0056457Y0240456D01*
X0056007Y0240006D01*
X0056007Y0239105D01*
X0056457Y0238655D01*
X0057358Y0239556D02*
X0057358Y0240006D01*
X0058259Y0241601D02*
X0058709Y0242052D01*
X0058709Y0242952D01*
X0058259Y0243403D01*
X0056457Y0241601D01*
X0056007Y0242052D01*
X0056007Y0242952D01*
X0056457Y0243403D01*
X0058259Y0243403D01*
X0058259Y0241601D02*
X0056457Y0241601D01*
X0046052Y0241297D02*
X0046052Y0242197D01*
X0045602Y0242648D01*
X0043800Y0240846D01*
X0043350Y0241297D01*
X0043350Y0242197D01*
X0043800Y0242648D01*
X0045602Y0242648D01*
X0046052Y0241297D02*
X0045602Y0240846D01*
X0043800Y0240846D01*
X0043800Y0239701D02*
X0043350Y0239251D01*
X0043350Y0238350D01*
X0043800Y0237900D01*
X0043800Y0236755D02*
X0043350Y0236304D01*
X0043350Y0235404D01*
X0043800Y0234953D01*
X0044701Y0235854D02*
X0044701Y0236304D01*
X0044251Y0236755D01*
X0043800Y0236755D01*
X0044701Y0236304D02*
X0045152Y0236755D01*
X0045602Y0236755D01*
X0046052Y0236304D01*
X0046052Y0235404D01*
X0045602Y0234953D01*
X0045602Y0237900D02*
X0046052Y0238350D01*
X0046052Y0239251D01*
X0045602Y0239701D01*
X0045152Y0239701D01*
X0044701Y0239251D01*
X0044251Y0239701D01*
X0043800Y0239701D01*
X0044701Y0239251D02*
X0044701Y0238800D01*
X0043728Y0230289D02*
X0045079Y0228938D01*
X0043278Y0228938D01*
X0043728Y0227587D02*
X0043728Y0230289D01*
X0046224Y0229839D02*
X0046224Y0228938D01*
X0046674Y0228488D01*
X0048026Y0228488D01*
X0048026Y0227587D02*
X0048026Y0230289D01*
X0046674Y0230289D01*
X0046224Y0229839D01*
X0047125Y0228488D02*
X0046224Y0227587D01*
X0022566Y0158016D02*
X0022124Y0158016D01*
X0021682Y0157574D01*
X0021240Y0158016D01*
X0020798Y0158016D01*
X0020356Y0157574D01*
X0020356Y0156690D01*
X0020798Y0156248D01*
X0020356Y0155116D02*
X0023008Y0155116D01*
X0022566Y0156248D02*
X0023008Y0156690D01*
X0023008Y0157574D01*
X0022566Y0158016D01*
X0021682Y0157574D02*
X0021682Y0157132D01*
X0020356Y0155116D02*
X0023008Y0153348D01*
X0020356Y0153348D01*
X0020356Y0152216D02*
X0022124Y0152216D01*
X0023008Y0151332D01*
X0022124Y0150448D01*
X0020356Y0150448D01*
X0021682Y0150448D02*
X0021682Y0152216D01*
X0021438Y0128535D02*
X0021438Y0126768D01*
X0022764Y0128093D01*
X0020112Y0128093D01*
X0020112Y0125635D02*
X0022764Y0125635D01*
X0022764Y0123867D02*
X0020112Y0125635D01*
X0020112Y0123867D02*
X0022764Y0123867D01*
X0021880Y0122735D02*
X0020112Y0122735D01*
X0021438Y0122735D02*
X0021438Y0120967D01*
X0021880Y0120967D02*
X0022764Y0121851D01*
X0021880Y0122735D01*
X0021880Y0120967D02*
X0020112Y0120967D01*
X0020998Y0081000D02*
X0020998Y0079232D01*
X0020998Y0080116D02*
X0023650Y0080116D01*
X0022766Y0079232D01*
X0023650Y0078100D02*
X0020998Y0078100D01*
X0023650Y0076332D01*
X0020998Y0076332D01*
X0020998Y0075200D02*
X0022766Y0075200D01*
X0023650Y0074316D01*
X0022766Y0073432D01*
X0020998Y0073432D01*
X0022324Y0073432D02*
X0022324Y0075200D01*
X0022884Y0051472D02*
X0023326Y0051472D01*
X0023768Y0051030D01*
X0023768Y0050147D01*
X0023326Y0049705D01*
X0023768Y0048572D02*
X0021116Y0048572D01*
X0023768Y0046804D01*
X0021116Y0046804D01*
X0021116Y0045672D02*
X0022884Y0045672D01*
X0023768Y0044788D01*
X0022884Y0043904D01*
X0021116Y0043904D01*
X0022442Y0043904D02*
X0022442Y0045672D01*
X0021116Y0049705D02*
X0022884Y0051472D01*
X0021116Y0051472D02*
X0021116Y0049705D01*
D15*
X0091056Y0342412D02*
X0091058Y0342518D01*
X0091064Y0342623D01*
X0091074Y0342729D01*
X0091088Y0342833D01*
X0091105Y0342938D01*
X0091127Y0343041D01*
X0091152Y0343144D01*
X0091182Y0343246D01*
X0091215Y0343346D01*
X0091251Y0343445D01*
X0091292Y0343543D01*
X0091336Y0343639D01*
X0091384Y0343733D01*
X0091435Y0343826D01*
X0091489Y0343917D01*
X0091547Y0344005D01*
X0091609Y0344091D01*
X0091673Y0344175D01*
X0091740Y0344257D01*
X0091811Y0344336D01*
X0091884Y0344412D01*
X0091960Y0344485D01*
X0092039Y0344556D01*
X0092121Y0344623D01*
X0092205Y0344687D01*
X0092291Y0344749D01*
X0092379Y0344807D01*
X0092470Y0344861D01*
X0092563Y0344912D01*
X0092657Y0344960D01*
X0092753Y0345004D01*
X0092851Y0345045D01*
X0092950Y0345081D01*
X0093050Y0345114D01*
X0093152Y0345144D01*
X0093255Y0345169D01*
X0093358Y0345191D01*
X0093463Y0345208D01*
X0093567Y0345222D01*
X0093673Y0345232D01*
X0093778Y0345238D01*
X0093884Y0345240D01*
X0093990Y0345238D01*
X0094095Y0345232D01*
X0094201Y0345222D01*
X0094305Y0345208D01*
X0094410Y0345191D01*
X0094513Y0345169D01*
X0094616Y0345144D01*
X0094718Y0345114D01*
X0094818Y0345081D01*
X0094917Y0345045D01*
X0095015Y0345004D01*
X0095111Y0344960D01*
X0095205Y0344912D01*
X0095298Y0344861D01*
X0095389Y0344807D01*
X0095477Y0344749D01*
X0095563Y0344687D01*
X0095647Y0344623D01*
X0095729Y0344556D01*
X0095808Y0344485D01*
X0095884Y0344412D01*
X0095957Y0344336D01*
X0096028Y0344257D01*
X0096095Y0344175D01*
X0096159Y0344091D01*
X0096221Y0344005D01*
X0096279Y0343917D01*
X0096333Y0343826D01*
X0096384Y0343733D01*
X0096432Y0343639D01*
X0096476Y0343543D01*
X0096517Y0343445D01*
X0096553Y0343346D01*
X0096586Y0343246D01*
X0096616Y0343144D01*
X0096641Y0343041D01*
X0096663Y0342938D01*
X0096680Y0342833D01*
X0096694Y0342729D01*
X0096704Y0342623D01*
X0096710Y0342518D01*
X0096712Y0342412D01*
X0096710Y0342306D01*
X0096704Y0342201D01*
X0096694Y0342095D01*
X0096680Y0341991D01*
X0096663Y0341886D01*
X0096641Y0341783D01*
X0096616Y0341680D01*
X0096586Y0341578D01*
X0096553Y0341478D01*
X0096517Y0341379D01*
X0096476Y0341281D01*
X0096432Y0341185D01*
X0096384Y0341091D01*
X0096333Y0340998D01*
X0096279Y0340907D01*
X0096221Y0340819D01*
X0096159Y0340733D01*
X0096095Y0340649D01*
X0096028Y0340567D01*
X0095957Y0340488D01*
X0095884Y0340412D01*
X0095808Y0340339D01*
X0095729Y0340268D01*
X0095647Y0340201D01*
X0095563Y0340137D01*
X0095477Y0340075D01*
X0095389Y0340017D01*
X0095298Y0339963D01*
X0095205Y0339912D01*
X0095111Y0339864D01*
X0095015Y0339820D01*
X0094917Y0339779D01*
X0094818Y0339743D01*
X0094718Y0339710D01*
X0094616Y0339680D01*
X0094513Y0339655D01*
X0094410Y0339633D01*
X0094305Y0339616D01*
X0094201Y0339602D01*
X0094095Y0339592D01*
X0093990Y0339586D01*
X0093884Y0339584D01*
X0093778Y0339586D01*
X0093673Y0339592D01*
X0093567Y0339602D01*
X0093463Y0339616D01*
X0093358Y0339633D01*
X0093255Y0339655D01*
X0093152Y0339680D01*
X0093050Y0339710D01*
X0092950Y0339743D01*
X0092851Y0339779D01*
X0092753Y0339820D01*
X0092657Y0339864D01*
X0092563Y0339912D01*
X0092470Y0339963D01*
X0092379Y0340017D01*
X0092291Y0340075D01*
X0092205Y0340137D01*
X0092121Y0340201D01*
X0092039Y0340268D01*
X0091960Y0340339D01*
X0091884Y0340412D01*
X0091811Y0340488D01*
X0091740Y0340567D01*
X0091673Y0340649D01*
X0091609Y0340733D01*
X0091547Y0340819D01*
X0091489Y0340907D01*
X0091435Y0340998D01*
X0091384Y0341091D01*
X0091336Y0341185D01*
X0091292Y0341281D01*
X0091251Y0341379D01*
X0091215Y0341478D01*
X0091182Y0341578D01*
X0091152Y0341680D01*
X0091127Y0341783D01*
X0091105Y0341886D01*
X0091088Y0341991D01*
X0091074Y0342095D01*
X0091064Y0342201D01*
X0091058Y0342306D01*
X0091056Y0342412D01*
D16*
X0317144Y0334538D02*
X0319079Y0334538D01*
X0318111Y0334538D02*
X0318111Y0337441D01*
X0319079Y0336473D01*
X0320090Y0336957D02*
X0320090Y0337441D01*
X0320090Y0336957D02*
X0321058Y0335989D01*
X0321058Y0334538D01*
X0321058Y0335989D02*
X0322025Y0336957D01*
X0322025Y0337441D01*
X0323037Y0336473D02*
X0323037Y0334538D01*
X0323037Y0335989D02*
X0324972Y0335989D01*
X0324972Y0336473D02*
X0324004Y0337441D01*
X0323037Y0336473D01*
X0324972Y0336473D02*
X0324972Y0334538D01*
X0325983Y0334538D02*
X0327918Y0334538D01*
X0327918Y0337441D01*
X0328930Y0337441D02*
X0330865Y0337441D01*
X0330865Y0334538D01*
X0328930Y0334538D01*
X0329897Y0335989D02*
X0330865Y0335989D01*
X0331876Y0335989D02*
X0332360Y0335506D01*
X0333811Y0335506D01*
X0332844Y0335506D02*
X0331876Y0334538D01*
X0331876Y0335989D02*
X0331876Y0336957D01*
X0332360Y0337441D01*
X0333811Y0337441D01*
X0333811Y0334538D01*
D17*
X0318740Y0309806D03*
X0318740Y0288306D03*
X0202685Y0239885D03*
X0202685Y0218385D03*
X0320083Y0142604D03*
X0320083Y0121104D03*
X0067437Y0335636D03*
X0053429Y0335536D03*
X0053429Y0357036D03*
X0067437Y0357136D03*
X0057490Y0247309D03*
X0044685Y0246538D03*
X0044685Y0225038D03*
X0057490Y0225809D03*
D18*
X0126293Y0373933D02*
X0129293Y0373933D01*
X0132293Y0373933D01*
X0132293Y0376433D02*
X0129293Y0376433D01*
X0126293Y0376433D01*
M02*
