G75*
%MOIN*%
%OFA0B0*%
%FSLAX25Y25*%
%IPPOS*%
%LPD*%
%AMOC8*
5,1,8,0,0,1.08239X$1,22.5*
%
%ADD10C,0.01400*%
%ADD11C,0.00600*%
%ADD12C,0.00400*%
%ADD13C,0.00800*%
%ADD14C,0.00500*%
%ADD15C,0.01000*%
%ADD16C,0.01200*%
%ADD17C,0.01300*%
D10*
X0136050Y0041350D02*
X0136050Y0046955D01*
X0137919Y0045087D01*
X0139787Y0046955D01*
X0139787Y0041350D01*
X0142496Y0042285D02*
X0143430Y0041350D01*
X0145298Y0041350D01*
X0146232Y0042285D01*
X0146232Y0046021D01*
X0145298Y0046955D01*
X0143430Y0046955D01*
X0142496Y0046021D01*
X0142496Y0042285D01*
X0155387Y0046955D02*
X0159123Y0046955D01*
X0157255Y0046955D02*
X0157255Y0041350D01*
X0161832Y0042285D02*
X0161832Y0044153D01*
X0162767Y0045087D01*
X0164635Y0045087D01*
X0165569Y0044153D01*
X0165569Y0043219D01*
X0161832Y0043219D01*
X0161832Y0042285D02*
X0162767Y0041350D01*
X0164635Y0041350D01*
X0168278Y0042285D02*
X0168278Y0044153D01*
X0169212Y0045087D01*
X0171080Y0045087D01*
X0172014Y0044153D01*
X0172014Y0043219D01*
X0168278Y0043219D01*
X0168278Y0042285D02*
X0169212Y0041350D01*
X0171080Y0041350D01*
X0174723Y0041350D02*
X0174723Y0045087D01*
X0177526Y0045087D01*
X0178460Y0044153D01*
X0178460Y0041350D01*
X0181169Y0041350D02*
X0183971Y0041350D01*
X0184905Y0042285D01*
X0183971Y0043219D01*
X0182103Y0043219D01*
X0181169Y0044153D01*
X0182103Y0045087D01*
X0184905Y0045087D01*
X0187614Y0045087D02*
X0187614Y0042285D01*
X0188548Y0041350D01*
X0191351Y0041350D01*
X0191351Y0040416D02*
X0191351Y0045087D01*
X0191351Y0040416D02*
X0190417Y0039482D01*
X0189483Y0039482D01*
X0200505Y0041350D02*
X0203308Y0041350D01*
X0204242Y0042285D01*
X0204242Y0043219D01*
X0203308Y0044153D01*
X0200505Y0044153D01*
X0200505Y0046955D02*
X0200505Y0041350D01*
X0203308Y0044153D02*
X0204242Y0045087D01*
X0204242Y0046021D01*
X0203308Y0046955D01*
X0200505Y0046955D01*
X0206951Y0045087D02*
X0206951Y0041350D01*
X0206951Y0043219D02*
X0208819Y0045087D01*
X0209753Y0045087D01*
X0212322Y0044153D02*
X0213256Y0045087D01*
X0215124Y0045087D01*
X0216059Y0044153D01*
X0216059Y0043219D01*
X0212322Y0043219D01*
X0212322Y0042285D02*
X0212322Y0044153D01*
X0212322Y0042285D02*
X0213256Y0041350D01*
X0215124Y0041350D01*
X0218768Y0042285D02*
X0219702Y0043219D01*
X0222504Y0043219D01*
X0222504Y0044153D02*
X0222504Y0041350D01*
X0219702Y0041350D01*
X0218768Y0042285D01*
X0219702Y0045087D02*
X0221570Y0045087D01*
X0222504Y0044153D01*
X0225213Y0043219D02*
X0228015Y0045087D01*
X0230584Y0044153D02*
X0230584Y0042285D01*
X0231518Y0041350D01*
X0233387Y0041350D01*
X0234321Y0042285D01*
X0234321Y0044153D01*
X0233387Y0045087D01*
X0231518Y0045087D01*
X0230584Y0044153D01*
X0228015Y0041350D02*
X0225213Y0043219D01*
X0225213Y0041350D02*
X0225213Y0046955D01*
X0237030Y0045087D02*
X0237030Y0042285D01*
X0237964Y0041350D01*
X0240766Y0041350D01*
X0240766Y0045087D01*
X0243475Y0045087D02*
X0245344Y0045087D01*
X0244409Y0046021D02*
X0244409Y0042285D01*
X0245344Y0041350D01*
D11*
X0208540Y0029282D02*
X0208540Y0027580D01*
X0208540Y0029282D02*
X0207973Y0029849D01*
X0206839Y0029849D01*
X0206272Y0029282D01*
X0204857Y0029849D02*
X0203156Y0029849D01*
X0202588Y0029282D01*
X0202588Y0028147D01*
X0203156Y0027580D01*
X0204857Y0027580D01*
X0204857Y0027013D02*
X0204857Y0029849D01*
X0206272Y0030983D02*
X0206272Y0027580D01*
X0204857Y0027013D02*
X0204290Y0026446D01*
X0203723Y0026446D01*
X0201221Y0029849D02*
X0200653Y0029849D01*
X0199519Y0028715D01*
X0199519Y0029849D02*
X0199519Y0027580D01*
X0198105Y0027580D02*
X0198105Y0029849D01*
X0198105Y0027580D02*
X0196403Y0027580D01*
X0195836Y0028147D01*
X0195836Y0029849D01*
X0194421Y0029282D02*
X0194421Y0028147D01*
X0193854Y0027580D01*
X0192153Y0027580D01*
X0192153Y0030983D01*
X0192153Y0029849D02*
X0193854Y0029849D01*
X0194421Y0029282D01*
X0190738Y0029849D02*
X0189037Y0029849D01*
X0188470Y0029282D01*
X0189037Y0028715D01*
X0190171Y0028715D01*
X0190738Y0028147D01*
X0190171Y0027580D01*
X0188470Y0027580D01*
X0187149Y0027580D02*
X0186581Y0028147D01*
X0186581Y0030416D01*
X0186014Y0029849D02*
X0187149Y0029849D01*
X0184693Y0029849D02*
X0183559Y0029849D01*
X0184126Y0030416D02*
X0184126Y0028147D01*
X0184693Y0027580D01*
X0182238Y0027580D02*
X0181103Y0027580D01*
X0181671Y0027580D02*
X0181671Y0029849D01*
X0181103Y0029849D01*
X0181671Y0030983D02*
X0181671Y0031550D01*
X0181103Y0033580D02*
X0181103Y0035849D01*
X0182805Y0035849D01*
X0183372Y0035282D01*
X0183372Y0033580D01*
X0184787Y0033580D02*
X0185921Y0033580D01*
X0185354Y0033580D02*
X0185354Y0035849D01*
X0184787Y0035849D01*
X0185354Y0036983D02*
X0185354Y0037550D01*
X0179689Y0035282D02*
X0179689Y0034715D01*
X0177420Y0034715D01*
X0177420Y0035282D02*
X0177987Y0035849D01*
X0179122Y0035849D01*
X0179689Y0035282D01*
X0179122Y0033580D02*
X0177987Y0033580D01*
X0177420Y0034147D01*
X0177420Y0035282D01*
X0176006Y0035282D02*
X0176006Y0033580D01*
X0174871Y0033580D02*
X0174871Y0035282D01*
X0175439Y0035849D01*
X0176006Y0035282D01*
X0174871Y0035282D02*
X0174304Y0035849D01*
X0173737Y0035849D01*
X0173737Y0033580D01*
X0172323Y0034147D02*
X0172323Y0035282D01*
X0171755Y0035849D01*
X0170621Y0035849D01*
X0170054Y0035282D01*
X0170054Y0034147D01*
X0170621Y0033580D01*
X0171755Y0033580D01*
X0172323Y0034147D01*
X0168639Y0033580D02*
X0168639Y0036983D01*
X0167505Y0035849D01*
X0166371Y0036983D01*
X0166371Y0033580D01*
X0168166Y0031550D02*
X0168166Y0030983D01*
X0168166Y0029849D02*
X0168166Y0027580D01*
X0167599Y0027580D02*
X0168733Y0027580D01*
X0170054Y0027580D02*
X0170054Y0029849D01*
X0171755Y0029849D01*
X0172323Y0029282D01*
X0172323Y0027580D01*
X0168166Y0029849D02*
X0167599Y0029849D01*
X0162501Y0029849D02*
X0160799Y0029849D01*
X0160232Y0029282D01*
X0160232Y0028147D01*
X0160799Y0027580D01*
X0162501Y0027580D01*
X0162501Y0030983D01*
X0161367Y0033580D02*
X0160232Y0033580D01*
X0160799Y0033580D02*
X0160799Y0035849D01*
X0160232Y0035849D01*
X0160799Y0036983D02*
X0160799Y0037550D01*
X0158344Y0036983D02*
X0158344Y0033580D01*
X0157777Y0033580D02*
X0158911Y0033580D01*
X0156362Y0033580D02*
X0156362Y0035849D01*
X0155228Y0036983D01*
X0154094Y0035849D01*
X0154094Y0033580D01*
X0154094Y0035282D02*
X0156362Y0035282D01*
X0157777Y0036983D02*
X0158344Y0036983D01*
X0158251Y0029849D02*
X0158818Y0029282D01*
X0158818Y0028715D01*
X0156549Y0028715D01*
X0156549Y0029282D02*
X0156549Y0028147D01*
X0157116Y0027580D01*
X0158251Y0027580D01*
X0158251Y0029849D02*
X0157116Y0029849D01*
X0156549Y0029282D01*
X0155135Y0029282D02*
X0155135Y0027580D01*
X0155135Y0029282D02*
X0154567Y0029849D01*
X0152866Y0029849D01*
X0152866Y0027580D01*
X0151451Y0027580D02*
X0149750Y0027580D01*
X0149183Y0028147D01*
X0149183Y0029282D01*
X0149750Y0029849D01*
X0151451Y0029849D01*
X0151451Y0027013D01*
X0150884Y0026446D01*
X0150317Y0026446D01*
X0147862Y0027580D02*
X0146727Y0027580D01*
X0147295Y0027580D02*
X0147295Y0029849D01*
X0146727Y0029849D01*
X0147295Y0030983D02*
X0147295Y0031550D01*
X0146727Y0033580D02*
X0146727Y0034147D01*
X0148996Y0036416D01*
X0148996Y0036983D01*
X0146727Y0036983D01*
X0144179Y0036983D02*
X0144179Y0033580D01*
X0145313Y0033580D02*
X0143044Y0033580D01*
X0141630Y0034147D02*
X0141063Y0033580D01*
X0139928Y0033580D01*
X0139361Y0034147D01*
X0141630Y0036416D01*
X0141630Y0034147D01*
X0143044Y0035849D02*
X0144179Y0036983D01*
X0141630Y0036416D02*
X0141063Y0036983D01*
X0139928Y0036983D01*
X0139361Y0036416D01*
X0139361Y0034147D01*
X0137947Y0033580D02*
X0135678Y0033580D01*
X0137947Y0035849D01*
X0137947Y0036416D01*
X0137379Y0036983D01*
X0136245Y0036983D01*
X0135678Y0036416D01*
X0135678Y0030983D02*
X0137379Y0030983D01*
X0137947Y0030416D01*
X0137947Y0028147D01*
X0137379Y0027580D01*
X0135678Y0027580D01*
X0135678Y0030983D01*
X0139361Y0029282D02*
X0139361Y0028147D01*
X0139928Y0027580D01*
X0141063Y0027580D01*
X0141630Y0028715D02*
X0139361Y0028715D01*
X0139361Y0029282D02*
X0139928Y0029849D01*
X0141063Y0029849D01*
X0141630Y0029282D01*
X0141630Y0028715D01*
X0143044Y0029282D02*
X0143611Y0029849D01*
X0145313Y0029849D01*
X0144746Y0028715D02*
X0143611Y0028715D01*
X0143044Y0029282D01*
X0143044Y0027580D02*
X0144746Y0027580D01*
X0145313Y0028147D01*
X0144746Y0028715D01*
X0147515Y0022322D02*
X0147515Y0020620D01*
X0148649Y0021188D01*
X0149216Y0021188D01*
X0149783Y0020620D01*
X0149783Y0019486D01*
X0149216Y0018919D01*
X0148082Y0018919D01*
X0147515Y0019486D01*
X0146100Y0020620D02*
X0143832Y0020620D01*
X0142417Y0021188D02*
X0142417Y0021755D01*
X0141850Y0022322D01*
X0140716Y0022322D01*
X0140148Y0021755D01*
X0138734Y0021188D02*
X0137600Y0018919D01*
X0136465Y0021188D01*
X0140148Y0018919D02*
X0142417Y0021188D01*
X0142417Y0018919D02*
X0140148Y0018919D01*
X0147515Y0022322D02*
X0149783Y0022322D01*
X0177420Y0027580D02*
X0177420Y0030983D01*
X0179122Y0030983D01*
X0179689Y0030416D01*
X0179689Y0029282D01*
X0179122Y0028715D01*
X0177420Y0028715D01*
X0021636Y0055757D02*
X0021636Y0057984D01*
X0021636Y0066151D02*
X0021636Y0068378D01*
X0020523Y0067264D02*
X0022750Y0067264D01*
X0007338Y0066623D02*
X0007338Y0065488D01*
X0006770Y0064921D01*
X0005636Y0065488D02*
X0005069Y0064921D01*
X0004502Y0064921D01*
X0003935Y0065488D01*
X0003935Y0066623D01*
X0004502Y0067190D01*
X0005636Y0066623D02*
X0005636Y0065488D01*
X0005636Y0066623D02*
X0006203Y0067190D01*
X0006770Y0067190D01*
X0007338Y0066623D01*
X0006203Y0063507D02*
X0007338Y0062372D01*
X0003935Y0062372D01*
X0003935Y0061238D02*
X0003935Y0063507D01*
X0005636Y0059823D02*
X0005636Y0057555D01*
X0005636Y0056140D02*
X0005636Y0053872D01*
X0006203Y0053872D02*
X0003935Y0053872D01*
X0003935Y0052457D02*
X0007338Y0052457D01*
X0003935Y0050189D01*
X0007338Y0050189D01*
X0006770Y0048774D02*
X0007338Y0048207D01*
X0007338Y0047073D01*
X0006770Y0046505D01*
X0006203Y0046505D01*
X0003935Y0048774D01*
X0003935Y0046505D01*
X0006203Y0053872D02*
X0007338Y0055006D01*
X0006203Y0056140D01*
X0003935Y0056140D01*
X0003856Y0075537D02*
X0003856Y0077806D01*
X0003856Y0076671D02*
X0007259Y0076671D01*
X0006125Y0077806D01*
X0007259Y0079220D02*
X0003856Y0079220D01*
X0007259Y0081489D01*
X0003856Y0081489D01*
X0003856Y0082903D02*
X0006125Y0082903D01*
X0007259Y0084038D01*
X0006125Y0085172D01*
X0003856Y0085172D01*
X0005557Y0085172D02*
X0005557Y0082903D01*
X0005557Y0086586D02*
X0005557Y0088855D01*
X0003856Y0090270D02*
X0003856Y0092538D01*
X0003856Y0091404D02*
X0007259Y0091404D01*
X0006125Y0092538D01*
X0006692Y0093953D02*
X0007259Y0094520D01*
X0007259Y0095654D01*
X0006692Y0096221D01*
X0006125Y0096221D01*
X0005557Y0095654D01*
X0005557Y0094520D01*
X0004990Y0093953D01*
X0004423Y0093953D01*
X0003856Y0094520D01*
X0003856Y0095654D01*
X0004423Y0096221D01*
X0020523Y0097280D02*
X0022750Y0097280D01*
X0021636Y0096167D02*
X0021636Y0098394D01*
X0021676Y0088653D02*
X0021676Y0086427D01*
X0006605Y0122289D02*
X0007172Y0122856D01*
X0007172Y0123990D01*
X0006605Y0124557D01*
X0006038Y0124557D01*
X0005471Y0123990D01*
X0005471Y0122856D01*
X0004904Y0122289D01*
X0004337Y0122289D01*
X0003770Y0122856D01*
X0003770Y0123990D01*
X0004337Y0124557D01*
X0004337Y0125972D02*
X0003770Y0126539D01*
X0003770Y0127673D01*
X0004337Y0128240D01*
X0004904Y0128240D01*
X0007172Y0125972D01*
X0007172Y0128240D01*
X0005471Y0129655D02*
X0005471Y0131923D01*
X0005471Y0133338D02*
X0005471Y0135607D01*
X0004904Y0135607D02*
X0007172Y0135607D01*
X0007172Y0137021D02*
X0003770Y0137021D01*
X0007172Y0139290D01*
X0003770Y0139290D01*
X0005471Y0140704D02*
X0003770Y0142406D01*
X0007172Y0142406D01*
X0005471Y0142973D02*
X0005471Y0140704D01*
X0004904Y0135607D02*
X0003770Y0134472D01*
X0004904Y0133338D01*
X0007172Y0133338D01*
X0021699Y0132731D02*
X0021699Y0134957D01*
X0021699Y0143124D02*
X0021699Y0145351D01*
X0020586Y0144238D02*
X0022813Y0144238D01*
X0006976Y0151564D02*
X0006408Y0150997D01*
X0006976Y0151564D02*
X0006976Y0152699D01*
X0006408Y0153266D01*
X0005841Y0153266D01*
X0005274Y0152699D01*
X0005274Y0151564D01*
X0004707Y0150997D01*
X0004140Y0150997D01*
X0003573Y0151564D01*
X0003573Y0152699D01*
X0004140Y0153266D01*
X0004140Y0154680D02*
X0003573Y0155247D01*
X0003573Y0156382D01*
X0004140Y0156949D01*
X0004707Y0156949D01*
X0006976Y0154680D01*
X0006976Y0156949D01*
X0005274Y0158363D02*
X0005274Y0160632D01*
X0005274Y0162047D02*
X0005274Y0164315D01*
X0004707Y0164315D02*
X0006976Y0164315D01*
X0006976Y0165730D02*
X0003573Y0165730D01*
X0006976Y0167998D01*
X0003573Y0167998D01*
X0004140Y0169413D02*
X0003573Y0169980D01*
X0003573Y0171114D01*
X0004140Y0171682D01*
X0004707Y0171682D01*
X0005274Y0171114D01*
X0005841Y0171682D01*
X0006408Y0171682D01*
X0006976Y0171114D01*
X0006976Y0169980D01*
X0006408Y0169413D01*
X0005274Y0170547D02*
X0005274Y0171114D01*
X0004707Y0164315D02*
X0003573Y0163181D01*
X0004707Y0162047D01*
X0006976Y0162047D01*
X0021739Y0162975D02*
X0021739Y0165201D01*
X0021621Y0173132D02*
X0021621Y0175359D01*
X0020507Y0174246D02*
X0022734Y0174246D01*
X0021581Y0211746D02*
X0021581Y0213972D01*
X0021621Y0221509D02*
X0021621Y0223736D01*
X0020507Y0222623D02*
X0022734Y0222623D01*
X0006703Y0221695D02*
X0004434Y0221695D01*
X0003300Y0220560D01*
X0004434Y0219426D01*
X0006703Y0219426D01*
X0006136Y0218012D02*
X0003867Y0218012D01*
X0003300Y0217444D01*
X0003300Y0216310D01*
X0003867Y0215743D01*
X0006136Y0215743D01*
X0006703Y0216310D01*
X0006703Y0217444D01*
X0006136Y0218012D01*
X0006136Y0214328D02*
X0006703Y0213761D01*
X0006703Y0212627D01*
X0006136Y0212060D01*
X0005569Y0212060D01*
X0003300Y0214328D01*
X0003300Y0212060D01*
X0003300Y0223109D02*
X0004434Y0224244D01*
X0004434Y0223676D02*
X0004434Y0225378D01*
X0003300Y0225378D02*
X0006703Y0225378D01*
X0006703Y0223676D01*
X0006136Y0223109D01*
X0005001Y0223109D01*
X0004434Y0223676D01*
X0003300Y0226792D02*
X0003300Y0229061D01*
X0006703Y0229061D01*
X0006703Y0226792D01*
X0005001Y0227927D02*
X0005001Y0229061D01*
X0004434Y0230475D02*
X0003867Y0230475D01*
X0003300Y0231043D01*
X0003300Y0232177D01*
X0003867Y0232744D01*
X0005001Y0232177D02*
X0005001Y0231043D01*
X0004434Y0230475D01*
X0006136Y0230475D02*
X0006703Y0231043D01*
X0006703Y0232177D01*
X0006136Y0232744D01*
X0005569Y0232744D01*
X0005001Y0232177D01*
X0003379Y0241918D02*
X0003379Y0244187D01*
X0003379Y0243052D02*
X0006782Y0243052D01*
X0005647Y0244187D01*
X0006214Y0245601D02*
X0006782Y0246168D01*
X0006782Y0247303D01*
X0006214Y0247870D01*
X0003946Y0247870D01*
X0003379Y0247303D01*
X0003379Y0246168D01*
X0003946Y0245601D01*
X0006214Y0245601D01*
X0006782Y0249284D02*
X0004513Y0249284D01*
X0003379Y0250419D01*
X0004513Y0251553D01*
X0006782Y0251553D01*
X0006214Y0252967D02*
X0005080Y0252967D01*
X0004513Y0253535D01*
X0004513Y0255236D01*
X0004513Y0254102D02*
X0003379Y0252967D01*
X0003379Y0255236D02*
X0006782Y0255236D01*
X0006782Y0253535D01*
X0006214Y0252967D01*
X0006782Y0256651D02*
X0006782Y0258919D01*
X0003379Y0258919D01*
X0003379Y0256651D01*
X0005080Y0257785D02*
X0005080Y0258919D01*
X0004513Y0260334D02*
X0003946Y0260334D01*
X0003379Y0260901D01*
X0003379Y0262035D01*
X0003946Y0262602D01*
X0005080Y0262035D02*
X0005080Y0260901D01*
X0004513Y0260334D01*
X0006214Y0260334D02*
X0006782Y0260901D01*
X0006782Y0262035D01*
X0006214Y0262602D01*
X0005647Y0262602D01*
X0005080Y0262035D01*
X0020429Y0252961D02*
X0022655Y0252961D01*
X0021542Y0251848D02*
X0021542Y0254075D01*
X0021660Y0244232D02*
X0021660Y0242006D01*
X0021421Y0303130D02*
X0020865Y0303130D01*
X0020308Y0303687D01*
X0020308Y0305357D01*
X0023648Y0305357D01*
X0023648Y0303687D01*
X0023091Y0303130D01*
X0022534Y0303130D01*
X0021978Y0303687D01*
X0021978Y0305357D01*
X0021978Y0303687D02*
X0021421Y0303130D01*
X0021067Y0312579D02*
X0023293Y0312579D01*
X0021067Y0312579D02*
X0019954Y0313692D01*
X0021067Y0314806D01*
X0023293Y0314806D01*
X0023527Y0322883D02*
X0020187Y0322883D01*
X0021857Y0322883D02*
X0021857Y0325109D01*
X0020187Y0325109D02*
X0023527Y0325109D01*
X0021503Y0332253D02*
X0021503Y0334479D01*
X0021503Y0342804D02*
X0021503Y0345031D01*
X0022616Y0343917D02*
X0020389Y0343917D01*
X0204748Y0193741D02*
X0204746Y0193589D01*
X0204740Y0193438D01*
X0204731Y0193287D01*
X0204717Y0193135D01*
X0204700Y0192985D01*
X0204679Y0192835D01*
X0204654Y0192685D01*
X0204626Y0192536D01*
X0204593Y0192388D01*
X0204557Y0192241D01*
X0204518Y0192094D01*
X0204474Y0191949D01*
X0204427Y0191805D01*
X0204376Y0191662D01*
X0204322Y0191521D01*
X0204264Y0191380D01*
X0204203Y0191242D01*
X0204138Y0191105D01*
X0204069Y0190969D01*
X0203998Y0190836D01*
X0203923Y0190704D01*
X0203844Y0190574D01*
X0203763Y0190447D01*
X0203678Y0190321D01*
X0203590Y0190197D01*
X0203499Y0190076D01*
X0203405Y0189957D01*
X0203307Y0189841D01*
X0203207Y0189727D01*
X0203105Y0189615D01*
X0202999Y0189507D01*
X0202891Y0189401D01*
X0202780Y0189297D01*
X0202666Y0189197D01*
X0202550Y0189099D01*
X0202431Y0189005D01*
X0192748Y0193741D02*
X0192750Y0193895D01*
X0192756Y0194049D01*
X0192766Y0194203D01*
X0192780Y0194357D01*
X0192797Y0194510D01*
X0192819Y0194662D01*
X0192845Y0194814D01*
X0192874Y0194966D01*
X0192908Y0195116D01*
X0192945Y0195266D01*
X0192986Y0195414D01*
X0193031Y0195562D01*
X0193080Y0195708D01*
X0193132Y0195853D01*
X0193188Y0195996D01*
X0193248Y0196139D01*
X0193311Y0196279D01*
X0193378Y0196418D01*
X0193449Y0196555D01*
X0193523Y0196690D01*
X0193600Y0196823D01*
X0193681Y0196955D01*
X0193765Y0197084D01*
X0193853Y0197211D01*
X0193944Y0197335D01*
X0194037Y0197457D01*
X0194135Y0197577D01*
X0194235Y0197694D01*
X0194338Y0197809D01*
X0194444Y0197921D01*
X0194552Y0198030D01*
X0194664Y0198136D01*
X0194778Y0198240D01*
X0194895Y0198340D01*
X0195014Y0198438D01*
X0195136Y0198532D01*
X0195261Y0198623D01*
X0192748Y0193741D02*
X0192750Y0193591D01*
X0192756Y0193440D01*
X0192765Y0193290D01*
X0192778Y0193141D01*
X0192795Y0192991D01*
X0192816Y0192842D01*
X0192840Y0192694D01*
X0192868Y0192546D01*
X0192900Y0192399D01*
X0192935Y0192253D01*
X0192975Y0192108D01*
X0193017Y0191964D01*
X0193064Y0191821D01*
X0193114Y0191679D01*
X0193167Y0191538D01*
X0193224Y0191399D01*
X0193284Y0191261D01*
X0193348Y0191125D01*
X0193415Y0190991D01*
X0193486Y0190858D01*
X0193560Y0190727D01*
X0193637Y0190598D01*
X0193718Y0190471D01*
X0193801Y0190346D01*
X0193888Y0190223D01*
X0193977Y0190102D01*
X0194070Y0189984D01*
X0194166Y0189868D01*
X0194264Y0189754D01*
X0194365Y0189643D01*
X0194470Y0189534D01*
X0194576Y0189429D01*
X0194686Y0189325D01*
X0194798Y0189225D01*
X0194912Y0189127D01*
X0195029Y0189033D01*
X0195148Y0188941D01*
X0204748Y0193741D02*
X0204746Y0193893D01*
X0204740Y0194044D01*
X0204731Y0194195D01*
X0204717Y0194347D01*
X0204700Y0194497D01*
X0204679Y0194647D01*
X0204654Y0194797D01*
X0204626Y0194946D01*
X0204593Y0195094D01*
X0204557Y0195241D01*
X0204518Y0195388D01*
X0204474Y0195533D01*
X0204427Y0195677D01*
X0204376Y0195820D01*
X0204322Y0195961D01*
X0204264Y0196102D01*
X0204203Y0196240D01*
X0204138Y0196377D01*
X0204069Y0196513D01*
X0203998Y0196646D01*
X0203923Y0196778D01*
X0203844Y0196908D01*
X0203763Y0197035D01*
X0203678Y0197161D01*
X0203590Y0197285D01*
X0203499Y0197406D01*
X0203405Y0197525D01*
X0203307Y0197641D01*
X0203207Y0197755D01*
X0203105Y0197867D01*
X0202999Y0197975D01*
X0202891Y0198081D01*
X0202780Y0198185D01*
X0202666Y0198285D01*
X0202550Y0198383D01*
X0202431Y0198477D01*
X0269882Y0340822D02*
X0268748Y0341957D01*
X0268748Y0343091D01*
X0269882Y0344225D01*
X0271204Y0344225D02*
X0272338Y0344225D01*
X0271771Y0344225D02*
X0271771Y0341957D01*
X0272338Y0341957D01*
X0271771Y0340822D02*
X0271771Y0340255D01*
X0273752Y0341389D02*
X0273752Y0342524D01*
X0274320Y0343091D01*
X0276021Y0343091D01*
X0276021Y0344225D02*
X0276021Y0340822D01*
X0274320Y0340822D01*
X0273752Y0341389D01*
X0277342Y0340822D02*
X0278476Y0341957D01*
X0278476Y0343091D01*
X0277342Y0344225D01*
X0283574Y0344225D02*
X0283574Y0340822D01*
X0285843Y0340822D02*
X0283574Y0344225D01*
X0285843Y0344225D02*
X0285843Y0340822D01*
X0287164Y0340822D02*
X0288298Y0340822D01*
X0287731Y0340822D02*
X0287731Y0344225D01*
X0288298Y0344225D02*
X0287164Y0344225D01*
X0293396Y0343091D02*
X0293396Y0340822D01*
X0295664Y0340822D02*
X0295664Y0343091D01*
X0294530Y0344225D01*
X0293396Y0343091D01*
X0297079Y0343658D02*
X0297646Y0344225D01*
X0298780Y0344225D01*
X0299348Y0343658D01*
X0299348Y0342524D02*
X0298213Y0341957D01*
X0297646Y0341957D01*
X0297079Y0342524D01*
X0297079Y0343658D01*
X0299348Y0342524D02*
X0299348Y0340822D01*
X0297079Y0340822D01*
X0300762Y0342524D02*
X0303031Y0342524D01*
X0301896Y0343658D02*
X0301896Y0341389D01*
X0305685Y0343106D02*
X0306819Y0341972D01*
X0305685Y0343106D02*
X0305685Y0344241D01*
X0306819Y0345375D01*
X0308140Y0345375D02*
X0309275Y0345375D01*
X0308707Y0345375D02*
X0308707Y0343106D01*
X0309275Y0343106D01*
X0308707Y0341972D02*
X0308707Y0341405D01*
X0310689Y0342539D02*
X0310689Y0343673D01*
X0311256Y0344241D01*
X0312958Y0344241D01*
X0312958Y0345375D02*
X0312958Y0341972D01*
X0311256Y0341972D01*
X0310689Y0342539D01*
X0318055Y0343673D02*
X0318623Y0343106D01*
X0319757Y0343106D01*
X0320324Y0343673D01*
X0320324Y0344808D01*
X0319757Y0345375D01*
X0318623Y0345375D01*
X0318055Y0344808D01*
X0318055Y0343673D01*
X0321645Y0343106D02*
X0322779Y0343106D01*
X0322212Y0342539D02*
X0322212Y0344808D01*
X0321645Y0345375D01*
X0324101Y0345375D02*
X0325235Y0344241D01*
X0325235Y0343106D01*
X0324101Y0341972D01*
X0330333Y0341972D02*
X0332601Y0341972D01*
X0331467Y0341972D02*
X0331467Y0345375D01*
X0334016Y0344808D02*
X0334016Y0341972D01*
X0336284Y0341972D02*
X0336284Y0344808D01*
X0335717Y0345375D01*
X0334583Y0345375D01*
X0334016Y0344808D01*
X0337699Y0344808D02*
X0337699Y0342539D01*
X0338266Y0341972D01*
X0339400Y0341972D01*
X0339967Y0342539D01*
X0339967Y0344808D01*
X0339400Y0345375D01*
X0338266Y0345375D01*
X0337699Y0344808D01*
X0345065Y0344241D02*
X0345065Y0341972D01*
X0345065Y0344241D02*
X0346199Y0345375D01*
X0347334Y0344241D01*
X0347334Y0341972D01*
X0348748Y0341972D02*
X0351017Y0341972D01*
X0351017Y0343673D01*
X0349883Y0343106D01*
X0349315Y0343106D01*
X0348748Y0343673D01*
X0348748Y0344808D01*
X0349315Y0345375D01*
X0350450Y0345375D01*
X0351017Y0344808D01*
X0352431Y0343673D02*
X0354700Y0343673D01*
X0353566Y0342539D02*
X0353566Y0344808D01*
X0373707Y0345554D02*
X0374263Y0346111D01*
X0374820Y0346111D01*
X0375377Y0345554D01*
X0375377Y0343884D01*
X0377046Y0343884D02*
X0377046Y0345554D01*
X0376490Y0346111D01*
X0375933Y0346111D01*
X0375377Y0345554D01*
X0373707Y0345554D02*
X0373707Y0343884D01*
X0377046Y0343884D01*
X0375933Y0336268D02*
X0373707Y0336268D01*
X0375933Y0336268D02*
X0377046Y0335155D01*
X0375933Y0334042D01*
X0373707Y0334042D01*
X0373707Y0325245D02*
X0377046Y0325245D01*
X0375377Y0325245D02*
X0375377Y0323018D01*
X0377046Y0323018D02*
X0373707Y0323018D01*
X0375180Y0315678D02*
X0375180Y0313451D01*
X0375337Y0305363D02*
X0375337Y0303136D01*
X0374224Y0304250D02*
X0376450Y0304250D01*
X0390147Y0291127D02*
X0390715Y0289993D01*
X0391849Y0288858D01*
X0391849Y0290560D01*
X0392416Y0291127D01*
X0392983Y0291127D01*
X0393550Y0290560D01*
X0393550Y0289425D01*
X0392983Y0288858D01*
X0391849Y0288858D01*
X0393550Y0287444D02*
X0390147Y0287444D01*
X0390147Y0285175D02*
X0393550Y0287444D01*
X0393550Y0285175D02*
X0390147Y0285175D01*
X0391282Y0283761D02*
X0393550Y0283761D01*
X0391849Y0283761D02*
X0391849Y0281492D01*
X0391282Y0281492D02*
X0390147Y0282626D01*
X0391282Y0283761D01*
X0391282Y0281492D02*
X0393550Y0281492D01*
X0391849Y0280077D02*
X0391849Y0277809D01*
X0392416Y0276394D02*
X0392983Y0276394D01*
X0393550Y0275827D01*
X0393550Y0274693D01*
X0392983Y0274126D01*
X0392983Y0272711D02*
X0393550Y0272144D01*
X0393550Y0271010D01*
X0392983Y0270443D01*
X0391849Y0271010D02*
X0391849Y0272144D01*
X0392416Y0272711D01*
X0392983Y0272711D01*
X0391849Y0271010D02*
X0391282Y0270443D01*
X0390715Y0270443D01*
X0390147Y0271010D01*
X0390147Y0272144D01*
X0390715Y0272711D01*
X0390715Y0274126D02*
X0390147Y0274693D01*
X0390147Y0275827D01*
X0390715Y0276394D01*
X0391282Y0276394D01*
X0391849Y0275827D01*
X0392416Y0276394D01*
X0391849Y0275827D02*
X0391849Y0275260D01*
X0392148Y0260556D02*
X0393282Y0260556D01*
X0393850Y0259989D01*
X0393850Y0258855D01*
X0393282Y0258287D01*
X0392148Y0258287D02*
X0391581Y0259422D01*
X0391581Y0259989D01*
X0392148Y0260556D01*
X0390447Y0260556D02*
X0390447Y0258287D01*
X0392148Y0258287D01*
X0390447Y0256873D02*
X0393850Y0256873D01*
X0390447Y0254604D01*
X0393850Y0254604D01*
X0393850Y0253190D02*
X0391581Y0253190D01*
X0390447Y0252055D01*
X0391581Y0250921D01*
X0393850Y0250921D01*
X0392148Y0250921D02*
X0392148Y0253190D01*
X0392148Y0249507D02*
X0392148Y0247238D01*
X0391581Y0245823D02*
X0392148Y0245256D01*
X0392715Y0245823D01*
X0393282Y0245823D01*
X0393850Y0245256D01*
X0393850Y0244122D01*
X0393282Y0243555D01*
X0393282Y0242140D02*
X0393850Y0241573D01*
X0393850Y0240439D01*
X0393282Y0239872D01*
X0392148Y0240439D02*
X0392148Y0241573D01*
X0392715Y0242140D01*
X0393282Y0242140D01*
X0392148Y0240439D02*
X0391581Y0239872D01*
X0391014Y0239872D01*
X0390447Y0240439D01*
X0390447Y0241573D01*
X0391014Y0242140D01*
X0391014Y0243555D02*
X0390447Y0244122D01*
X0390447Y0245256D01*
X0391014Y0245823D01*
X0391581Y0245823D01*
X0392148Y0245256D02*
X0392148Y0244689D01*
X0376836Y0238505D02*
X0374610Y0238505D01*
X0375723Y0237391D02*
X0375723Y0239618D01*
X0375566Y0248061D02*
X0375566Y0250287D01*
X0375542Y0268120D02*
X0375542Y0270346D01*
X0374429Y0269233D02*
X0376655Y0269233D01*
X0375621Y0278198D02*
X0375621Y0280425D01*
X0390931Y0224379D02*
X0391498Y0224379D01*
X0392065Y0223812D01*
X0392065Y0222677D01*
X0391498Y0222110D01*
X0390931Y0222110D01*
X0390364Y0222677D01*
X0390364Y0223812D01*
X0390931Y0224379D01*
X0392065Y0223812D02*
X0392633Y0224379D01*
X0393200Y0224379D01*
X0393767Y0223812D01*
X0393767Y0222677D01*
X0393200Y0222110D01*
X0392633Y0222110D01*
X0392065Y0222677D01*
X0393767Y0220696D02*
X0390364Y0220696D01*
X0390364Y0218427D02*
X0393767Y0220696D01*
X0393767Y0218427D02*
X0390364Y0218427D01*
X0391498Y0217013D02*
X0393767Y0217013D01*
X0392065Y0217013D02*
X0392065Y0214744D01*
X0391498Y0214744D02*
X0390364Y0215878D01*
X0391498Y0217013D01*
X0391498Y0214744D02*
X0393767Y0214744D01*
X0392065Y0213329D02*
X0392065Y0211061D01*
X0392065Y0209646D02*
X0392065Y0207378D01*
X0390364Y0209079D01*
X0393767Y0209079D01*
X0393200Y0205963D02*
X0393767Y0205396D01*
X0393767Y0204262D01*
X0393200Y0203694D01*
X0392065Y0204262D02*
X0392065Y0205396D01*
X0392633Y0205963D01*
X0393200Y0205963D01*
X0392065Y0204262D02*
X0391498Y0203694D01*
X0390931Y0203694D01*
X0390364Y0204262D01*
X0390364Y0205396D01*
X0390931Y0205963D01*
X0390730Y0194406D02*
X0392999Y0192138D01*
X0393566Y0192138D01*
X0393566Y0190723D02*
X0390163Y0190723D01*
X0390163Y0192138D02*
X0390163Y0194406D01*
X0390730Y0194406D01*
X0393566Y0190723D02*
X0390163Y0188455D01*
X0393566Y0188455D01*
X0393566Y0187040D02*
X0391298Y0187040D01*
X0390163Y0185906D01*
X0391298Y0184771D01*
X0393566Y0184771D01*
X0391865Y0184771D02*
X0391865Y0187040D01*
X0391865Y0183357D02*
X0391865Y0181088D01*
X0391865Y0179674D02*
X0391865Y0177405D01*
X0390163Y0179107D01*
X0393566Y0179107D01*
X0392999Y0175991D02*
X0393566Y0175423D01*
X0393566Y0174289D01*
X0392999Y0173722D01*
X0391865Y0174289D02*
X0391865Y0175423D01*
X0392432Y0175991D01*
X0392999Y0175991D01*
X0391865Y0174289D02*
X0391298Y0173722D01*
X0390730Y0173722D01*
X0390163Y0174289D01*
X0390163Y0175423D01*
X0390730Y0175991D01*
X0377025Y0171961D02*
X0374799Y0171961D01*
X0375912Y0170848D02*
X0375912Y0173075D01*
X0375440Y0181675D02*
X0375440Y0183901D01*
X0375873Y0159087D02*
X0375873Y0156861D01*
X0374759Y0157974D02*
X0376986Y0157974D01*
X0375991Y0148575D02*
X0375991Y0146349D01*
X0390111Y0147554D02*
X0391246Y0148688D01*
X0393514Y0148688D01*
X0393514Y0150102D02*
X0390111Y0150102D01*
X0393514Y0152371D01*
X0390111Y0152371D01*
X0391246Y0153786D02*
X0390111Y0154920D01*
X0393514Y0154920D01*
X0393514Y0153786D02*
X0393514Y0156054D01*
X0392947Y0157469D02*
X0390678Y0159737D01*
X0392947Y0159737D01*
X0393514Y0159170D01*
X0393514Y0158036D01*
X0392947Y0157469D01*
X0390678Y0157469D01*
X0390111Y0158036D01*
X0390111Y0159170D01*
X0390678Y0159737D01*
X0391813Y0148688D02*
X0391813Y0146419D01*
X0391246Y0146419D02*
X0390111Y0147554D01*
X0391246Y0146419D02*
X0393514Y0146419D01*
X0391813Y0145005D02*
X0391813Y0142736D01*
X0391813Y0141322D02*
X0392947Y0141322D01*
X0393514Y0140755D01*
X0393514Y0139620D01*
X0392947Y0139053D01*
X0391813Y0139053D02*
X0391246Y0140187D01*
X0391246Y0140755D01*
X0391813Y0141322D01*
X0390111Y0141322D02*
X0390111Y0139053D01*
X0391813Y0139053D01*
X0392380Y0137639D02*
X0392947Y0137639D01*
X0393514Y0137071D01*
X0393514Y0135937D01*
X0392947Y0135370D01*
X0391813Y0135937D02*
X0391813Y0137071D01*
X0392380Y0137639D01*
X0390678Y0137639D02*
X0390111Y0137071D01*
X0390111Y0135937D01*
X0390678Y0135370D01*
X0391246Y0135370D01*
X0391813Y0135937D01*
X0392304Y0128435D02*
X0392304Y0126734D01*
X0391736Y0126167D01*
X0391169Y0126167D01*
X0390602Y0126734D01*
X0390602Y0127868D01*
X0391169Y0128435D01*
X0393438Y0128435D01*
X0394005Y0127868D01*
X0394005Y0126734D01*
X0393438Y0126167D01*
X0394005Y0124752D02*
X0390602Y0124752D01*
X0390602Y0122483D02*
X0394005Y0124752D01*
X0394005Y0122483D02*
X0390602Y0122483D01*
X0391736Y0121069D02*
X0394005Y0121069D01*
X0392304Y0121069D02*
X0392304Y0118800D01*
X0391736Y0118800D02*
X0390602Y0119935D01*
X0391736Y0121069D01*
X0391736Y0118800D02*
X0394005Y0118800D01*
X0392304Y0117386D02*
X0392304Y0115117D01*
X0392304Y0113703D02*
X0393438Y0113703D01*
X0394005Y0113135D01*
X0394005Y0112001D01*
X0393438Y0111434D01*
X0392304Y0111434D02*
X0391736Y0112568D01*
X0391736Y0113135D01*
X0392304Y0113703D01*
X0390602Y0113703D02*
X0390602Y0111434D01*
X0392304Y0111434D01*
X0392871Y0110019D02*
X0393438Y0110019D01*
X0394005Y0109452D01*
X0394005Y0108318D01*
X0393438Y0107751D01*
X0392304Y0108318D02*
X0392304Y0109452D01*
X0392871Y0110019D01*
X0391169Y0110019D02*
X0390602Y0109452D01*
X0390602Y0108318D01*
X0391169Y0107751D01*
X0391736Y0107751D01*
X0392304Y0108318D01*
X0391543Y0096169D02*
X0390976Y0096169D01*
X0390409Y0095602D01*
X0390409Y0094468D01*
X0390976Y0093901D01*
X0391543Y0096169D02*
X0393812Y0093901D01*
X0393812Y0096169D01*
X0393812Y0092486D02*
X0393812Y0090217D01*
X0393812Y0091352D02*
X0390409Y0091352D01*
X0391543Y0090217D01*
X0390409Y0088803D02*
X0393812Y0088803D01*
X0390409Y0086534D01*
X0393812Y0086534D01*
X0393812Y0085120D02*
X0391543Y0085120D01*
X0390409Y0083985D01*
X0391543Y0082851D01*
X0393812Y0082851D01*
X0392110Y0082851D02*
X0392110Y0085120D01*
X0392110Y0081437D02*
X0392110Y0079168D01*
X0392677Y0077753D02*
X0392110Y0077186D01*
X0392110Y0075485D01*
X0393245Y0075485D01*
X0393812Y0076052D01*
X0393812Y0077186D01*
X0393245Y0077753D01*
X0392677Y0077753D01*
X0390976Y0076619D02*
X0392110Y0075485D01*
X0392677Y0074070D02*
X0393245Y0074070D01*
X0393812Y0073503D01*
X0393812Y0072369D01*
X0393245Y0071802D01*
X0392110Y0072369D02*
X0392110Y0073503D01*
X0392677Y0074070D01*
X0390976Y0074070D02*
X0390409Y0073503D01*
X0390409Y0072369D01*
X0390976Y0071802D01*
X0391543Y0071802D01*
X0392110Y0072369D01*
X0390976Y0076619D02*
X0390409Y0077753D01*
X0394078Y0065849D02*
X0394078Y0063581D01*
X0394078Y0064715D02*
X0390675Y0064715D01*
X0391809Y0063581D01*
X0394078Y0062166D02*
X0394078Y0059898D01*
X0394078Y0061032D02*
X0390675Y0061032D01*
X0391809Y0059898D01*
X0390675Y0058483D02*
X0394078Y0058483D01*
X0390675Y0056214D01*
X0394078Y0056214D01*
X0394078Y0054800D02*
X0391809Y0054800D01*
X0390675Y0053666D01*
X0391809Y0052531D01*
X0394078Y0052531D01*
X0392377Y0052531D02*
X0392377Y0054800D01*
X0392377Y0051117D02*
X0392377Y0048848D01*
X0392944Y0047434D02*
X0392377Y0046866D01*
X0392377Y0045165D01*
X0393511Y0045165D01*
X0394078Y0045732D01*
X0394078Y0046866D01*
X0393511Y0047434D01*
X0392944Y0047434D01*
X0391242Y0046299D02*
X0392377Y0045165D01*
X0392944Y0043750D02*
X0393511Y0043750D01*
X0394078Y0043183D01*
X0394078Y0042049D01*
X0393511Y0041482D01*
X0392377Y0042049D02*
X0392377Y0043183D01*
X0392944Y0043750D01*
X0391242Y0043750D02*
X0390675Y0043183D01*
X0390675Y0042049D01*
X0391242Y0041482D01*
X0391809Y0041482D01*
X0392377Y0042049D01*
X0391242Y0046299D02*
X0390675Y0047434D01*
X0375990Y0052581D02*
X0375990Y0054807D01*
X0375597Y0061006D02*
X0375597Y0063233D01*
X0374484Y0062120D02*
X0376710Y0062120D01*
X0375951Y0082652D02*
X0375951Y0084879D01*
X0375873Y0092258D02*
X0375873Y0094485D01*
X0374759Y0093372D02*
X0376986Y0093372D01*
X0375991Y0116085D02*
X0375991Y0118312D01*
X0376030Y0125731D02*
X0376030Y0127957D01*
X0374917Y0126844D02*
X0377143Y0126844D01*
D12*
X0376973Y0133008D02*
X0375401Y0133008D01*
X0374615Y0133794D01*
X0375401Y0134580D01*
X0376973Y0134580D01*
X0376973Y0135545D02*
X0374615Y0135545D01*
X0376973Y0137117D01*
X0374615Y0137117D01*
X0375401Y0138083D02*
X0374615Y0138869D01*
X0376973Y0138869D01*
X0376973Y0138083D02*
X0376973Y0139655D01*
X0376580Y0140621D02*
X0375008Y0142193D01*
X0376580Y0142193D01*
X0376973Y0141800D01*
X0376973Y0141014D01*
X0376580Y0140621D01*
X0375008Y0140621D01*
X0374615Y0141014D01*
X0374615Y0141800D01*
X0375008Y0142193D01*
X0375794Y0134580D02*
X0375794Y0133008D01*
X0375834Y0110588D02*
X0375834Y0109409D01*
X0375441Y0109016D01*
X0375048Y0109016D01*
X0374655Y0109409D01*
X0374655Y0110195D01*
X0375048Y0110588D01*
X0376620Y0110588D01*
X0377013Y0110195D01*
X0377013Y0109409D01*
X0376620Y0109016D01*
X0377013Y0108050D02*
X0374655Y0108050D01*
X0374655Y0106479D02*
X0377013Y0108050D01*
X0377013Y0106479D02*
X0374655Y0106479D01*
X0375441Y0105513D02*
X0377013Y0105513D01*
X0375834Y0105513D02*
X0375834Y0103941D01*
X0375441Y0103941D02*
X0374655Y0104727D01*
X0375441Y0105513D01*
X0375441Y0103941D02*
X0377013Y0103941D01*
X0023274Y0227263D02*
X0023274Y0228049D01*
X0022881Y0228442D01*
X0023274Y0229407D02*
X0021702Y0229407D01*
X0020917Y0230193D01*
X0021702Y0230979D01*
X0023274Y0230979D01*
X0022881Y0231945D02*
X0022095Y0231945D01*
X0021702Y0232338D01*
X0021702Y0233517D01*
X0020917Y0233517D02*
X0023274Y0233517D01*
X0023274Y0232338D01*
X0022881Y0231945D01*
X0021702Y0232731D02*
X0020917Y0231945D01*
X0020917Y0234483D02*
X0020917Y0236055D01*
X0023274Y0236055D01*
X0023274Y0234483D01*
X0022095Y0235269D02*
X0022095Y0236055D01*
X0021702Y0237020D02*
X0021310Y0237020D01*
X0020917Y0237413D01*
X0020917Y0238199D01*
X0021310Y0238592D01*
X0022095Y0238199D02*
X0022095Y0237413D01*
X0021702Y0237020D01*
X0022881Y0237020D02*
X0023274Y0237413D01*
X0023274Y0238199D01*
X0022881Y0238592D01*
X0022488Y0238592D01*
X0022095Y0238199D01*
X0020917Y0228442D02*
X0022488Y0226870D01*
X0022881Y0226870D01*
X0023274Y0227263D01*
X0020917Y0226870D02*
X0020917Y0228442D01*
X0020602Y0257358D02*
X0020602Y0258930D01*
X0020602Y0258144D02*
X0022959Y0258144D01*
X0022174Y0258930D01*
X0022959Y0259896D02*
X0021388Y0259896D01*
X0020602Y0260682D01*
X0021388Y0261468D01*
X0022959Y0261468D01*
X0022566Y0262433D02*
X0021781Y0262433D01*
X0021388Y0262826D01*
X0021388Y0264005D01*
X0021388Y0263219D02*
X0020602Y0262433D01*
X0020602Y0264005D02*
X0022959Y0264005D01*
X0022959Y0262826D01*
X0022566Y0262433D01*
X0022959Y0264971D02*
X0022959Y0266543D01*
X0020602Y0266543D01*
X0020602Y0264971D01*
X0021781Y0265757D02*
X0021781Y0266543D01*
X0021388Y0267508D02*
X0020995Y0267508D01*
X0020602Y0267901D01*
X0020602Y0268687D01*
X0020995Y0269080D01*
X0021781Y0268687D02*
X0022174Y0269080D01*
X0022566Y0269080D01*
X0022959Y0268687D01*
X0022959Y0267901D01*
X0022566Y0267508D01*
X0021781Y0267901D02*
X0021388Y0267508D01*
X0021781Y0267901D02*
X0021781Y0268687D01*
D13*
X0048079Y0296576D02*
X0048081Y0296717D01*
X0048087Y0296858D01*
X0048097Y0296998D01*
X0048111Y0297138D01*
X0048129Y0297278D01*
X0048150Y0297417D01*
X0048176Y0297556D01*
X0048205Y0297694D01*
X0048239Y0297830D01*
X0048276Y0297966D01*
X0048317Y0298101D01*
X0048362Y0298235D01*
X0048411Y0298367D01*
X0048463Y0298498D01*
X0048519Y0298627D01*
X0048579Y0298754D01*
X0048642Y0298880D01*
X0048708Y0299004D01*
X0048779Y0299127D01*
X0048852Y0299247D01*
X0048929Y0299365D01*
X0049009Y0299481D01*
X0049093Y0299594D01*
X0049179Y0299705D01*
X0049269Y0299814D01*
X0049362Y0299920D01*
X0049457Y0300023D01*
X0049556Y0300124D01*
X0049657Y0300222D01*
X0049761Y0300317D01*
X0049868Y0300409D01*
X0049977Y0300498D01*
X0050089Y0300583D01*
X0050203Y0300666D01*
X0050319Y0300746D01*
X0050438Y0300822D01*
X0050559Y0300894D01*
X0050681Y0300964D01*
X0050806Y0301029D01*
X0050932Y0301092D01*
X0051060Y0301150D01*
X0051190Y0301205D01*
X0051321Y0301257D01*
X0051454Y0301304D01*
X0051588Y0301348D01*
X0051723Y0301389D01*
X0051859Y0301425D01*
X0051996Y0301457D01*
X0052134Y0301486D01*
X0052272Y0301511D01*
X0052412Y0301531D01*
X0052552Y0301548D01*
X0052692Y0301561D01*
X0052833Y0301570D01*
X0052973Y0301575D01*
X0053114Y0301576D01*
X0053255Y0301573D01*
X0053396Y0301566D01*
X0053536Y0301555D01*
X0053676Y0301540D01*
X0053816Y0301521D01*
X0053955Y0301499D01*
X0054093Y0301472D01*
X0054231Y0301442D01*
X0054367Y0301407D01*
X0054503Y0301369D01*
X0054637Y0301327D01*
X0054771Y0301281D01*
X0054903Y0301232D01*
X0055033Y0301178D01*
X0055162Y0301121D01*
X0055289Y0301061D01*
X0055415Y0300997D01*
X0055538Y0300929D01*
X0055660Y0300858D01*
X0055780Y0300784D01*
X0055897Y0300706D01*
X0056012Y0300625D01*
X0056125Y0300541D01*
X0056236Y0300454D01*
X0056344Y0300363D01*
X0056449Y0300270D01*
X0056552Y0300173D01*
X0056652Y0300074D01*
X0056749Y0299972D01*
X0056843Y0299867D01*
X0056934Y0299760D01*
X0057022Y0299650D01*
X0057107Y0299538D01*
X0057189Y0299423D01*
X0057268Y0299306D01*
X0057343Y0299187D01*
X0057415Y0299066D01*
X0057483Y0298943D01*
X0057548Y0298818D01*
X0057610Y0298691D01*
X0057667Y0298562D01*
X0057722Y0298432D01*
X0057772Y0298301D01*
X0057819Y0298168D01*
X0057862Y0298034D01*
X0057901Y0297898D01*
X0057936Y0297762D01*
X0057968Y0297625D01*
X0057995Y0297487D01*
X0058019Y0297348D01*
X0058039Y0297208D01*
X0058055Y0297068D01*
X0058067Y0296928D01*
X0058075Y0296787D01*
X0058079Y0296646D01*
X0058079Y0296506D01*
X0058075Y0296365D01*
X0058067Y0296224D01*
X0058055Y0296084D01*
X0058039Y0295944D01*
X0058019Y0295804D01*
X0057995Y0295665D01*
X0057968Y0295527D01*
X0057936Y0295390D01*
X0057901Y0295254D01*
X0057862Y0295118D01*
X0057819Y0294984D01*
X0057772Y0294851D01*
X0057722Y0294720D01*
X0057667Y0294590D01*
X0057610Y0294461D01*
X0057548Y0294334D01*
X0057483Y0294209D01*
X0057415Y0294086D01*
X0057343Y0293965D01*
X0057268Y0293846D01*
X0057189Y0293729D01*
X0057107Y0293614D01*
X0057022Y0293502D01*
X0056934Y0293392D01*
X0056843Y0293285D01*
X0056749Y0293180D01*
X0056652Y0293078D01*
X0056552Y0292979D01*
X0056449Y0292882D01*
X0056344Y0292789D01*
X0056236Y0292698D01*
X0056125Y0292611D01*
X0056012Y0292527D01*
X0055897Y0292446D01*
X0055780Y0292368D01*
X0055660Y0292294D01*
X0055538Y0292223D01*
X0055415Y0292155D01*
X0055289Y0292091D01*
X0055162Y0292031D01*
X0055033Y0291974D01*
X0054903Y0291920D01*
X0054771Y0291871D01*
X0054637Y0291825D01*
X0054503Y0291783D01*
X0054367Y0291745D01*
X0054231Y0291710D01*
X0054093Y0291680D01*
X0053955Y0291653D01*
X0053816Y0291631D01*
X0053676Y0291612D01*
X0053536Y0291597D01*
X0053396Y0291586D01*
X0053255Y0291579D01*
X0053114Y0291576D01*
X0052973Y0291577D01*
X0052833Y0291582D01*
X0052692Y0291591D01*
X0052552Y0291604D01*
X0052412Y0291621D01*
X0052272Y0291641D01*
X0052134Y0291666D01*
X0051996Y0291695D01*
X0051859Y0291727D01*
X0051723Y0291763D01*
X0051588Y0291804D01*
X0051454Y0291848D01*
X0051321Y0291895D01*
X0051190Y0291947D01*
X0051060Y0292002D01*
X0050932Y0292060D01*
X0050806Y0292123D01*
X0050681Y0292188D01*
X0050559Y0292258D01*
X0050438Y0292330D01*
X0050319Y0292406D01*
X0050203Y0292486D01*
X0050089Y0292569D01*
X0049977Y0292654D01*
X0049868Y0292743D01*
X0049761Y0292835D01*
X0049657Y0292930D01*
X0049556Y0293028D01*
X0049457Y0293129D01*
X0049362Y0293232D01*
X0049269Y0293338D01*
X0049179Y0293447D01*
X0049093Y0293558D01*
X0049009Y0293671D01*
X0048929Y0293787D01*
X0048852Y0293905D01*
X0048779Y0294025D01*
X0048708Y0294148D01*
X0048642Y0294272D01*
X0048579Y0294398D01*
X0048519Y0294525D01*
X0048463Y0294654D01*
X0048411Y0294785D01*
X0048362Y0294917D01*
X0048317Y0295051D01*
X0048276Y0295186D01*
X0048239Y0295322D01*
X0048205Y0295458D01*
X0048176Y0295596D01*
X0048150Y0295735D01*
X0048129Y0295874D01*
X0048111Y0296014D01*
X0048097Y0296154D01*
X0048087Y0296294D01*
X0048081Y0296435D01*
X0048079Y0296576D01*
X0105161Y0167684D02*
X0110161Y0167684D01*
X0048079Y0131221D02*
X0048081Y0131362D01*
X0048087Y0131503D01*
X0048097Y0131643D01*
X0048111Y0131783D01*
X0048129Y0131923D01*
X0048150Y0132062D01*
X0048176Y0132201D01*
X0048205Y0132339D01*
X0048239Y0132475D01*
X0048276Y0132611D01*
X0048317Y0132746D01*
X0048362Y0132880D01*
X0048411Y0133012D01*
X0048463Y0133143D01*
X0048519Y0133272D01*
X0048579Y0133399D01*
X0048642Y0133525D01*
X0048708Y0133649D01*
X0048779Y0133772D01*
X0048852Y0133892D01*
X0048929Y0134010D01*
X0049009Y0134126D01*
X0049093Y0134239D01*
X0049179Y0134350D01*
X0049269Y0134459D01*
X0049362Y0134565D01*
X0049457Y0134668D01*
X0049556Y0134769D01*
X0049657Y0134867D01*
X0049761Y0134962D01*
X0049868Y0135054D01*
X0049977Y0135143D01*
X0050089Y0135228D01*
X0050203Y0135311D01*
X0050319Y0135391D01*
X0050438Y0135467D01*
X0050559Y0135539D01*
X0050681Y0135609D01*
X0050806Y0135674D01*
X0050932Y0135737D01*
X0051060Y0135795D01*
X0051190Y0135850D01*
X0051321Y0135902D01*
X0051454Y0135949D01*
X0051588Y0135993D01*
X0051723Y0136034D01*
X0051859Y0136070D01*
X0051996Y0136102D01*
X0052134Y0136131D01*
X0052272Y0136156D01*
X0052412Y0136176D01*
X0052552Y0136193D01*
X0052692Y0136206D01*
X0052833Y0136215D01*
X0052973Y0136220D01*
X0053114Y0136221D01*
X0053255Y0136218D01*
X0053396Y0136211D01*
X0053536Y0136200D01*
X0053676Y0136185D01*
X0053816Y0136166D01*
X0053955Y0136144D01*
X0054093Y0136117D01*
X0054231Y0136087D01*
X0054367Y0136052D01*
X0054503Y0136014D01*
X0054637Y0135972D01*
X0054771Y0135926D01*
X0054903Y0135877D01*
X0055033Y0135823D01*
X0055162Y0135766D01*
X0055289Y0135706D01*
X0055415Y0135642D01*
X0055538Y0135574D01*
X0055660Y0135503D01*
X0055780Y0135429D01*
X0055897Y0135351D01*
X0056012Y0135270D01*
X0056125Y0135186D01*
X0056236Y0135099D01*
X0056344Y0135008D01*
X0056449Y0134915D01*
X0056552Y0134818D01*
X0056652Y0134719D01*
X0056749Y0134617D01*
X0056843Y0134512D01*
X0056934Y0134405D01*
X0057022Y0134295D01*
X0057107Y0134183D01*
X0057189Y0134068D01*
X0057268Y0133951D01*
X0057343Y0133832D01*
X0057415Y0133711D01*
X0057483Y0133588D01*
X0057548Y0133463D01*
X0057610Y0133336D01*
X0057667Y0133207D01*
X0057722Y0133077D01*
X0057772Y0132946D01*
X0057819Y0132813D01*
X0057862Y0132679D01*
X0057901Y0132543D01*
X0057936Y0132407D01*
X0057968Y0132270D01*
X0057995Y0132132D01*
X0058019Y0131993D01*
X0058039Y0131853D01*
X0058055Y0131713D01*
X0058067Y0131573D01*
X0058075Y0131432D01*
X0058079Y0131291D01*
X0058079Y0131151D01*
X0058075Y0131010D01*
X0058067Y0130869D01*
X0058055Y0130729D01*
X0058039Y0130589D01*
X0058019Y0130449D01*
X0057995Y0130310D01*
X0057968Y0130172D01*
X0057936Y0130035D01*
X0057901Y0129899D01*
X0057862Y0129763D01*
X0057819Y0129629D01*
X0057772Y0129496D01*
X0057722Y0129365D01*
X0057667Y0129235D01*
X0057610Y0129106D01*
X0057548Y0128979D01*
X0057483Y0128854D01*
X0057415Y0128731D01*
X0057343Y0128610D01*
X0057268Y0128491D01*
X0057189Y0128374D01*
X0057107Y0128259D01*
X0057022Y0128147D01*
X0056934Y0128037D01*
X0056843Y0127930D01*
X0056749Y0127825D01*
X0056652Y0127723D01*
X0056552Y0127624D01*
X0056449Y0127527D01*
X0056344Y0127434D01*
X0056236Y0127343D01*
X0056125Y0127256D01*
X0056012Y0127172D01*
X0055897Y0127091D01*
X0055780Y0127013D01*
X0055660Y0126939D01*
X0055538Y0126868D01*
X0055415Y0126800D01*
X0055289Y0126736D01*
X0055162Y0126676D01*
X0055033Y0126619D01*
X0054903Y0126565D01*
X0054771Y0126516D01*
X0054637Y0126470D01*
X0054503Y0126428D01*
X0054367Y0126390D01*
X0054231Y0126355D01*
X0054093Y0126325D01*
X0053955Y0126298D01*
X0053816Y0126276D01*
X0053676Y0126257D01*
X0053536Y0126242D01*
X0053396Y0126231D01*
X0053255Y0126224D01*
X0053114Y0126221D01*
X0052973Y0126222D01*
X0052833Y0126227D01*
X0052692Y0126236D01*
X0052552Y0126249D01*
X0052412Y0126266D01*
X0052272Y0126286D01*
X0052134Y0126311D01*
X0051996Y0126340D01*
X0051859Y0126372D01*
X0051723Y0126408D01*
X0051588Y0126449D01*
X0051454Y0126493D01*
X0051321Y0126540D01*
X0051190Y0126592D01*
X0051060Y0126647D01*
X0050932Y0126705D01*
X0050806Y0126768D01*
X0050681Y0126833D01*
X0050559Y0126903D01*
X0050438Y0126975D01*
X0050319Y0127051D01*
X0050203Y0127131D01*
X0050089Y0127214D01*
X0049977Y0127299D01*
X0049868Y0127388D01*
X0049761Y0127480D01*
X0049657Y0127575D01*
X0049556Y0127673D01*
X0049457Y0127774D01*
X0049362Y0127877D01*
X0049269Y0127983D01*
X0049179Y0128092D01*
X0049093Y0128203D01*
X0049009Y0128316D01*
X0048929Y0128432D01*
X0048852Y0128550D01*
X0048779Y0128670D01*
X0048708Y0128793D01*
X0048642Y0128917D01*
X0048579Y0129043D01*
X0048519Y0129170D01*
X0048463Y0129299D01*
X0048411Y0129430D01*
X0048362Y0129562D01*
X0048317Y0129696D01*
X0048276Y0129831D01*
X0048239Y0129967D01*
X0048205Y0130103D01*
X0048176Y0130241D01*
X0048150Y0130380D01*
X0048129Y0130519D01*
X0048111Y0130659D01*
X0048097Y0130799D01*
X0048087Y0130939D01*
X0048081Y0131080D01*
X0048079Y0131221D01*
X0103114Y0064225D02*
X0108114Y0064225D01*
X0107955Y0019094D02*
X0102955Y0019094D01*
X0191361Y0179338D02*
X0194163Y0179338D01*
X0195965Y0179338D02*
X0195965Y0183541D01*
X0198767Y0183541D01*
X0200568Y0183541D02*
X0202670Y0183541D01*
X0203371Y0182841D01*
X0203371Y0180038D01*
X0202670Y0179338D01*
X0200568Y0179338D01*
X0200568Y0183541D01*
X0197366Y0181440D02*
X0195965Y0181440D01*
X0195965Y0179338D02*
X0198767Y0179338D01*
X0205172Y0179338D02*
X0207975Y0179338D01*
X0206574Y0179338D02*
X0206574Y0183541D01*
X0205172Y0182140D01*
X0191361Y0183541D02*
X0191361Y0179338D01*
X0318610Y0061091D02*
X0323610Y0061091D01*
X0323610Y0017784D02*
X0318610Y0017784D01*
X0339417Y0131221D02*
X0339419Y0131362D01*
X0339425Y0131503D01*
X0339435Y0131643D01*
X0339449Y0131783D01*
X0339467Y0131923D01*
X0339488Y0132062D01*
X0339514Y0132201D01*
X0339543Y0132339D01*
X0339577Y0132475D01*
X0339614Y0132611D01*
X0339655Y0132746D01*
X0339700Y0132880D01*
X0339749Y0133012D01*
X0339801Y0133143D01*
X0339857Y0133272D01*
X0339917Y0133399D01*
X0339980Y0133525D01*
X0340046Y0133649D01*
X0340117Y0133772D01*
X0340190Y0133892D01*
X0340267Y0134010D01*
X0340347Y0134126D01*
X0340431Y0134239D01*
X0340517Y0134350D01*
X0340607Y0134459D01*
X0340700Y0134565D01*
X0340795Y0134668D01*
X0340894Y0134769D01*
X0340995Y0134867D01*
X0341099Y0134962D01*
X0341206Y0135054D01*
X0341315Y0135143D01*
X0341427Y0135228D01*
X0341541Y0135311D01*
X0341657Y0135391D01*
X0341776Y0135467D01*
X0341897Y0135539D01*
X0342019Y0135609D01*
X0342144Y0135674D01*
X0342270Y0135737D01*
X0342398Y0135795D01*
X0342528Y0135850D01*
X0342659Y0135902D01*
X0342792Y0135949D01*
X0342926Y0135993D01*
X0343061Y0136034D01*
X0343197Y0136070D01*
X0343334Y0136102D01*
X0343472Y0136131D01*
X0343610Y0136156D01*
X0343750Y0136176D01*
X0343890Y0136193D01*
X0344030Y0136206D01*
X0344171Y0136215D01*
X0344311Y0136220D01*
X0344452Y0136221D01*
X0344593Y0136218D01*
X0344734Y0136211D01*
X0344874Y0136200D01*
X0345014Y0136185D01*
X0345154Y0136166D01*
X0345293Y0136144D01*
X0345431Y0136117D01*
X0345569Y0136087D01*
X0345705Y0136052D01*
X0345841Y0136014D01*
X0345975Y0135972D01*
X0346109Y0135926D01*
X0346241Y0135877D01*
X0346371Y0135823D01*
X0346500Y0135766D01*
X0346627Y0135706D01*
X0346753Y0135642D01*
X0346876Y0135574D01*
X0346998Y0135503D01*
X0347118Y0135429D01*
X0347235Y0135351D01*
X0347350Y0135270D01*
X0347463Y0135186D01*
X0347574Y0135099D01*
X0347682Y0135008D01*
X0347787Y0134915D01*
X0347890Y0134818D01*
X0347990Y0134719D01*
X0348087Y0134617D01*
X0348181Y0134512D01*
X0348272Y0134405D01*
X0348360Y0134295D01*
X0348445Y0134183D01*
X0348527Y0134068D01*
X0348606Y0133951D01*
X0348681Y0133832D01*
X0348753Y0133711D01*
X0348821Y0133588D01*
X0348886Y0133463D01*
X0348948Y0133336D01*
X0349005Y0133207D01*
X0349060Y0133077D01*
X0349110Y0132946D01*
X0349157Y0132813D01*
X0349200Y0132679D01*
X0349239Y0132543D01*
X0349274Y0132407D01*
X0349306Y0132270D01*
X0349333Y0132132D01*
X0349357Y0131993D01*
X0349377Y0131853D01*
X0349393Y0131713D01*
X0349405Y0131573D01*
X0349413Y0131432D01*
X0349417Y0131291D01*
X0349417Y0131151D01*
X0349413Y0131010D01*
X0349405Y0130869D01*
X0349393Y0130729D01*
X0349377Y0130589D01*
X0349357Y0130449D01*
X0349333Y0130310D01*
X0349306Y0130172D01*
X0349274Y0130035D01*
X0349239Y0129899D01*
X0349200Y0129763D01*
X0349157Y0129629D01*
X0349110Y0129496D01*
X0349060Y0129365D01*
X0349005Y0129235D01*
X0348948Y0129106D01*
X0348886Y0128979D01*
X0348821Y0128854D01*
X0348753Y0128731D01*
X0348681Y0128610D01*
X0348606Y0128491D01*
X0348527Y0128374D01*
X0348445Y0128259D01*
X0348360Y0128147D01*
X0348272Y0128037D01*
X0348181Y0127930D01*
X0348087Y0127825D01*
X0347990Y0127723D01*
X0347890Y0127624D01*
X0347787Y0127527D01*
X0347682Y0127434D01*
X0347574Y0127343D01*
X0347463Y0127256D01*
X0347350Y0127172D01*
X0347235Y0127091D01*
X0347118Y0127013D01*
X0346998Y0126939D01*
X0346876Y0126868D01*
X0346753Y0126800D01*
X0346627Y0126736D01*
X0346500Y0126676D01*
X0346371Y0126619D01*
X0346241Y0126565D01*
X0346109Y0126516D01*
X0345975Y0126470D01*
X0345841Y0126428D01*
X0345705Y0126390D01*
X0345569Y0126355D01*
X0345431Y0126325D01*
X0345293Y0126298D01*
X0345154Y0126276D01*
X0345014Y0126257D01*
X0344874Y0126242D01*
X0344734Y0126231D01*
X0344593Y0126224D01*
X0344452Y0126221D01*
X0344311Y0126222D01*
X0344171Y0126227D01*
X0344030Y0126236D01*
X0343890Y0126249D01*
X0343750Y0126266D01*
X0343610Y0126286D01*
X0343472Y0126311D01*
X0343334Y0126340D01*
X0343197Y0126372D01*
X0343061Y0126408D01*
X0342926Y0126449D01*
X0342792Y0126493D01*
X0342659Y0126540D01*
X0342528Y0126592D01*
X0342398Y0126647D01*
X0342270Y0126705D01*
X0342144Y0126768D01*
X0342019Y0126833D01*
X0341897Y0126903D01*
X0341776Y0126975D01*
X0341657Y0127051D01*
X0341541Y0127131D01*
X0341427Y0127214D01*
X0341315Y0127299D01*
X0341206Y0127388D01*
X0341099Y0127480D01*
X0340995Y0127575D01*
X0340894Y0127673D01*
X0340795Y0127774D01*
X0340700Y0127877D01*
X0340607Y0127983D01*
X0340517Y0128092D01*
X0340431Y0128203D01*
X0340347Y0128316D01*
X0340267Y0128432D01*
X0340190Y0128550D01*
X0340117Y0128670D01*
X0340046Y0128793D01*
X0339980Y0128917D01*
X0339917Y0129043D01*
X0339857Y0129170D01*
X0339801Y0129299D01*
X0339749Y0129430D01*
X0339700Y0129562D01*
X0339655Y0129696D01*
X0339614Y0129831D01*
X0339577Y0129967D01*
X0339543Y0130103D01*
X0339514Y0130241D01*
X0339488Y0130380D01*
X0339467Y0130519D01*
X0339449Y0130659D01*
X0339435Y0130799D01*
X0339425Y0130939D01*
X0339419Y0131080D01*
X0339417Y0131221D01*
X0346169Y0174950D02*
X0351169Y0174950D01*
X0351909Y0223913D02*
X0346909Y0223913D01*
X0339417Y0296576D02*
X0339419Y0296717D01*
X0339425Y0296858D01*
X0339435Y0296998D01*
X0339449Y0297138D01*
X0339467Y0297278D01*
X0339488Y0297417D01*
X0339514Y0297556D01*
X0339543Y0297694D01*
X0339577Y0297830D01*
X0339614Y0297966D01*
X0339655Y0298101D01*
X0339700Y0298235D01*
X0339749Y0298367D01*
X0339801Y0298498D01*
X0339857Y0298627D01*
X0339917Y0298754D01*
X0339980Y0298880D01*
X0340046Y0299004D01*
X0340117Y0299127D01*
X0340190Y0299247D01*
X0340267Y0299365D01*
X0340347Y0299481D01*
X0340431Y0299594D01*
X0340517Y0299705D01*
X0340607Y0299814D01*
X0340700Y0299920D01*
X0340795Y0300023D01*
X0340894Y0300124D01*
X0340995Y0300222D01*
X0341099Y0300317D01*
X0341206Y0300409D01*
X0341315Y0300498D01*
X0341427Y0300583D01*
X0341541Y0300666D01*
X0341657Y0300746D01*
X0341776Y0300822D01*
X0341897Y0300894D01*
X0342019Y0300964D01*
X0342144Y0301029D01*
X0342270Y0301092D01*
X0342398Y0301150D01*
X0342528Y0301205D01*
X0342659Y0301257D01*
X0342792Y0301304D01*
X0342926Y0301348D01*
X0343061Y0301389D01*
X0343197Y0301425D01*
X0343334Y0301457D01*
X0343472Y0301486D01*
X0343610Y0301511D01*
X0343750Y0301531D01*
X0343890Y0301548D01*
X0344030Y0301561D01*
X0344171Y0301570D01*
X0344311Y0301575D01*
X0344452Y0301576D01*
X0344593Y0301573D01*
X0344734Y0301566D01*
X0344874Y0301555D01*
X0345014Y0301540D01*
X0345154Y0301521D01*
X0345293Y0301499D01*
X0345431Y0301472D01*
X0345569Y0301442D01*
X0345705Y0301407D01*
X0345841Y0301369D01*
X0345975Y0301327D01*
X0346109Y0301281D01*
X0346241Y0301232D01*
X0346371Y0301178D01*
X0346500Y0301121D01*
X0346627Y0301061D01*
X0346753Y0300997D01*
X0346876Y0300929D01*
X0346998Y0300858D01*
X0347118Y0300784D01*
X0347235Y0300706D01*
X0347350Y0300625D01*
X0347463Y0300541D01*
X0347574Y0300454D01*
X0347682Y0300363D01*
X0347787Y0300270D01*
X0347890Y0300173D01*
X0347990Y0300074D01*
X0348087Y0299972D01*
X0348181Y0299867D01*
X0348272Y0299760D01*
X0348360Y0299650D01*
X0348445Y0299538D01*
X0348527Y0299423D01*
X0348606Y0299306D01*
X0348681Y0299187D01*
X0348753Y0299066D01*
X0348821Y0298943D01*
X0348886Y0298818D01*
X0348948Y0298691D01*
X0349005Y0298562D01*
X0349060Y0298432D01*
X0349110Y0298301D01*
X0349157Y0298168D01*
X0349200Y0298034D01*
X0349239Y0297898D01*
X0349274Y0297762D01*
X0349306Y0297625D01*
X0349333Y0297487D01*
X0349357Y0297348D01*
X0349377Y0297208D01*
X0349393Y0297068D01*
X0349405Y0296928D01*
X0349413Y0296787D01*
X0349417Y0296646D01*
X0349417Y0296506D01*
X0349413Y0296365D01*
X0349405Y0296224D01*
X0349393Y0296084D01*
X0349377Y0295944D01*
X0349357Y0295804D01*
X0349333Y0295665D01*
X0349306Y0295527D01*
X0349274Y0295390D01*
X0349239Y0295254D01*
X0349200Y0295118D01*
X0349157Y0294984D01*
X0349110Y0294851D01*
X0349060Y0294720D01*
X0349005Y0294590D01*
X0348948Y0294461D01*
X0348886Y0294334D01*
X0348821Y0294209D01*
X0348753Y0294086D01*
X0348681Y0293965D01*
X0348606Y0293846D01*
X0348527Y0293729D01*
X0348445Y0293614D01*
X0348360Y0293502D01*
X0348272Y0293392D01*
X0348181Y0293285D01*
X0348087Y0293180D01*
X0347990Y0293078D01*
X0347890Y0292979D01*
X0347787Y0292882D01*
X0347682Y0292789D01*
X0347574Y0292698D01*
X0347463Y0292611D01*
X0347350Y0292527D01*
X0347235Y0292446D01*
X0347118Y0292368D01*
X0346998Y0292294D01*
X0346876Y0292223D01*
X0346753Y0292155D01*
X0346627Y0292091D01*
X0346500Y0292031D01*
X0346371Y0291974D01*
X0346241Y0291920D01*
X0346109Y0291871D01*
X0345975Y0291825D01*
X0345841Y0291783D01*
X0345705Y0291745D01*
X0345569Y0291710D01*
X0345431Y0291680D01*
X0345293Y0291653D01*
X0345154Y0291631D01*
X0345014Y0291612D01*
X0344874Y0291597D01*
X0344734Y0291586D01*
X0344593Y0291579D01*
X0344452Y0291576D01*
X0344311Y0291577D01*
X0344171Y0291582D01*
X0344030Y0291591D01*
X0343890Y0291604D01*
X0343750Y0291621D01*
X0343610Y0291641D01*
X0343472Y0291666D01*
X0343334Y0291695D01*
X0343197Y0291727D01*
X0343061Y0291763D01*
X0342926Y0291804D01*
X0342792Y0291848D01*
X0342659Y0291895D01*
X0342528Y0291947D01*
X0342398Y0292002D01*
X0342270Y0292060D01*
X0342144Y0292123D01*
X0342019Y0292188D01*
X0341897Y0292258D01*
X0341776Y0292330D01*
X0341657Y0292406D01*
X0341541Y0292486D01*
X0341427Y0292569D01*
X0341315Y0292654D01*
X0341206Y0292743D01*
X0341099Y0292835D01*
X0340995Y0292930D01*
X0340894Y0293028D01*
X0340795Y0293129D01*
X0340700Y0293232D01*
X0340607Y0293338D01*
X0340517Y0293447D01*
X0340431Y0293558D01*
X0340347Y0293671D01*
X0340267Y0293787D01*
X0340190Y0293905D01*
X0340117Y0294025D01*
X0340046Y0294148D01*
X0339980Y0294272D01*
X0339917Y0294398D01*
X0339857Y0294525D01*
X0339801Y0294654D01*
X0339749Y0294785D01*
X0339700Y0294917D01*
X0339655Y0295051D01*
X0339614Y0295186D01*
X0339577Y0295322D01*
X0339543Y0295458D01*
X0339514Y0295596D01*
X0339488Y0295735D01*
X0339467Y0295874D01*
X0339449Y0296014D01*
X0339435Y0296154D01*
X0339425Y0296294D01*
X0339419Y0296435D01*
X0339417Y0296576D01*
X0261665Y0343110D02*
X0259529Y0343110D01*
X0260597Y0342043D02*
X0260597Y0344178D01*
X0257981Y0344178D02*
X0257448Y0344712D01*
X0256380Y0344712D01*
X0255846Y0344178D01*
X0255846Y0343110D01*
X0256380Y0342577D01*
X0256914Y0342577D01*
X0257981Y0343110D01*
X0257981Y0341509D01*
X0255846Y0341509D01*
X0254298Y0341509D02*
X0254298Y0343644D01*
X0253231Y0344712D01*
X0252163Y0343644D01*
X0252163Y0341509D01*
X0246932Y0341509D02*
X0245864Y0341509D01*
X0246398Y0341509D02*
X0246398Y0344712D01*
X0246932Y0344712D02*
X0245864Y0344712D01*
X0244477Y0344712D02*
X0244477Y0341509D01*
X0242341Y0344712D01*
X0242341Y0341509D01*
X0237110Y0342577D02*
X0237110Y0343644D01*
X0236043Y0344712D01*
X0234655Y0344712D02*
X0234655Y0341509D01*
X0233587Y0342577D01*
X0232520Y0341509D01*
X0232520Y0344712D01*
X0230972Y0344178D02*
X0230438Y0343644D01*
X0228837Y0343644D01*
X0228837Y0343110D02*
X0228837Y0344712D01*
X0230438Y0344712D01*
X0230972Y0344178D01*
X0230438Y0342577D02*
X0229370Y0342577D01*
X0228837Y0343110D01*
X0227289Y0342577D02*
X0226755Y0342577D01*
X0226755Y0344712D01*
X0227289Y0344712D02*
X0226221Y0344712D01*
X0224833Y0344712D02*
X0224833Y0342577D01*
X0223232Y0342577D01*
X0222698Y0343110D01*
X0222698Y0344712D01*
X0221150Y0344712D02*
X0220082Y0343644D01*
X0220082Y0342577D01*
X0221150Y0341509D01*
X0226755Y0341509D02*
X0226755Y0340975D01*
X0236043Y0341509D02*
X0237110Y0342577D01*
D14*
X0021069Y0044321D02*
X0021069Y0042553D01*
X0021069Y0044321D02*
X0022837Y0042553D01*
X0023279Y0042553D01*
X0023721Y0042995D01*
X0023721Y0043879D01*
X0023279Y0044321D01*
X0023721Y0045453D02*
X0021069Y0045453D01*
X0023721Y0047221D01*
X0021069Y0047221D01*
X0021069Y0048353D02*
X0022837Y0048353D01*
X0023721Y0049237D01*
X0022837Y0050121D01*
X0021069Y0050121D01*
X0022395Y0050121D02*
X0022395Y0048353D01*
X0021069Y0071608D02*
X0021069Y0073376D01*
X0021069Y0072492D02*
X0023721Y0072492D01*
X0022837Y0073376D01*
X0023721Y0074508D02*
X0021069Y0074508D01*
X0023721Y0076276D01*
X0021069Y0076276D01*
X0021069Y0077408D02*
X0022837Y0077408D01*
X0023721Y0078292D01*
X0022837Y0079176D01*
X0021069Y0079176D01*
X0022395Y0079176D02*
X0022395Y0077408D01*
X0022789Y0119220D02*
X0021021Y0119220D01*
X0020138Y0120104D01*
X0021021Y0120988D01*
X0022789Y0120988D01*
X0022789Y0122120D02*
X0020138Y0122120D01*
X0022789Y0123888D01*
X0020138Y0123888D01*
X0021463Y0125020D02*
X0021463Y0126788D01*
X0020138Y0126346D02*
X0021463Y0125020D01*
X0020138Y0126346D02*
X0022789Y0126346D01*
X0021463Y0120988D02*
X0021463Y0119220D01*
X0038079Y0116221D02*
X0068079Y0116221D01*
X0068079Y0146221D01*
X0058079Y0146221D01*
X0058079Y0151221D02*
X0048079Y0146221D01*
X0038079Y0146221D01*
X0038079Y0116221D01*
X0042579Y0126221D02*
X0042581Y0126265D01*
X0042587Y0126309D01*
X0042597Y0126352D01*
X0042610Y0126394D01*
X0042627Y0126435D01*
X0042648Y0126474D01*
X0042672Y0126511D01*
X0042699Y0126546D01*
X0042729Y0126578D01*
X0042762Y0126608D01*
X0042798Y0126634D01*
X0042835Y0126658D01*
X0042875Y0126677D01*
X0042916Y0126694D01*
X0042959Y0126706D01*
X0043002Y0126715D01*
X0043046Y0126720D01*
X0043090Y0126721D01*
X0043134Y0126718D01*
X0043178Y0126711D01*
X0043221Y0126700D01*
X0043263Y0126686D01*
X0043303Y0126668D01*
X0043342Y0126646D01*
X0043378Y0126622D01*
X0043412Y0126594D01*
X0043444Y0126563D01*
X0043473Y0126529D01*
X0043499Y0126493D01*
X0043521Y0126455D01*
X0043540Y0126415D01*
X0043555Y0126373D01*
X0043567Y0126331D01*
X0043575Y0126287D01*
X0043579Y0126243D01*
X0043579Y0126199D01*
X0043575Y0126155D01*
X0043567Y0126111D01*
X0043555Y0126069D01*
X0043540Y0126027D01*
X0043521Y0125987D01*
X0043499Y0125949D01*
X0043473Y0125913D01*
X0043444Y0125879D01*
X0043412Y0125848D01*
X0043378Y0125820D01*
X0043342Y0125796D01*
X0043303Y0125774D01*
X0043263Y0125756D01*
X0043221Y0125742D01*
X0043178Y0125731D01*
X0043134Y0125724D01*
X0043090Y0125721D01*
X0043046Y0125722D01*
X0043002Y0125727D01*
X0042959Y0125736D01*
X0042916Y0125748D01*
X0042875Y0125765D01*
X0042835Y0125784D01*
X0042798Y0125808D01*
X0042762Y0125834D01*
X0042729Y0125864D01*
X0042699Y0125896D01*
X0042672Y0125931D01*
X0042648Y0125968D01*
X0042627Y0126007D01*
X0042610Y0126048D01*
X0042597Y0126090D01*
X0042587Y0126133D01*
X0042581Y0126177D01*
X0042579Y0126221D01*
X0043079Y0126221D02*
X0043079Y0136221D01*
X0042579Y0136221D02*
X0042581Y0136265D01*
X0042587Y0136309D01*
X0042597Y0136352D01*
X0042610Y0136394D01*
X0042627Y0136435D01*
X0042648Y0136474D01*
X0042672Y0136511D01*
X0042699Y0136546D01*
X0042729Y0136578D01*
X0042762Y0136608D01*
X0042798Y0136634D01*
X0042835Y0136658D01*
X0042875Y0136677D01*
X0042916Y0136694D01*
X0042959Y0136706D01*
X0043002Y0136715D01*
X0043046Y0136720D01*
X0043090Y0136721D01*
X0043134Y0136718D01*
X0043178Y0136711D01*
X0043221Y0136700D01*
X0043263Y0136686D01*
X0043303Y0136668D01*
X0043342Y0136646D01*
X0043378Y0136622D01*
X0043412Y0136594D01*
X0043444Y0136563D01*
X0043473Y0136529D01*
X0043499Y0136493D01*
X0043521Y0136455D01*
X0043540Y0136415D01*
X0043555Y0136373D01*
X0043567Y0136331D01*
X0043575Y0136287D01*
X0043579Y0136243D01*
X0043579Y0136199D01*
X0043575Y0136155D01*
X0043567Y0136111D01*
X0043555Y0136069D01*
X0043540Y0136027D01*
X0043521Y0135987D01*
X0043499Y0135949D01*
X0043473Y0135913D01*
X0043444Y0135879D01*
X0043412Y0135848D01*
X0043378Y0135820D01*
X0043342Y0135796D01*
X0043303Y0135774D01*
X0043263Y0135756D01*
X0043221Y0135742D01*
X0043178Y0135731D01*
X0043134Y0135724D01*
X0043090Y0135721D01*
X0043046Y0135722D01*
X0043002Y0135727D01*
X0042959Y0135736D01*
X0042916Y0135748D01*
X0042875Y0135765D01*
X0042835Y0135784D01*
X0042798Y0135808D01*
X0042762Y0135834D01*
X0042729Y0135864D01*
X0042699Y0135896D01*
X0042672Y0135931D01*
X0042648Y0135968D01*
X0042627Y0136007D01*
X0042610Y0136048D01*
X0042597Y0136090D01*
X0042587Y0136133D01*
X0042581Y0136177D01*
X0042579Y0136221D01*
X0043061Y0147774D02*
X0041260Y0147774D01*
X0043061Y0149576D01*
X0043061Y0150026D01*
X0042611Y0150477D01*
X0041710Y0150477D01*
X0041260Y0150026D01*
X0040115Y0150026D02*
X0039664Y0150477D01*
X0038763Y0150477D01*
X0038313Y0150026D01*
X0038313Y0149576D01*
X0038763Y0149126D01*
X0039664Y0149126D01*
X0040115Y0148675D01*
X0040115Y0148225D01*
X0039664Y0147774D01*
X0038763Y0147774D01*
X0038313Y0148225D01*
X0022868Y0150251D02*
X0021100Y0150251D01*
X0020216Y0151135D01*
X0021100Y0152019D01*
X0022868Y0152019D01*
X0022868Y0153151D02*
X0020216Y0153151D01*
X0022868Y0154919D01*
X0020216Y0154919D01*
X0020658Y0156051D02*
X0020216Y0156493D01*
X0020216Y0157377D01*
X0020658Y0157819D01*
X0021100Y0157819D01*
X0021542Y0157377D01*
X0021984Y0157819D01*
X0022426Y0157819D01*
X0022868Y0157377D01*
X0022868Y0156493D01*
X0022426Y0156051D01*
X0021542Y0156935D02*
X0021542Y0157377D01*
X0021542Y0152019D02*
X0021542Y0150251D01*
X0063079Y0136221D02*
X0063079Y0126221D01*
X0062579Y0126221D02*
X0062581Y0126265D01*
X0062587Y0126309D01*
X0062597Y0126352D01*
X0062610Y0126394D01*
X0062627Y0126435D01*
X0062648Y0126474D01*
X0062672Y0126511D01*
X0062699Y0126546D01*
X0062729Y0126578D01*
X0062762Y0126608D01*
X0062798Y0126634D01*
X0062835Y0126658D01*
X0062875Y0126677D01*
X0062916Y0126694D01*
X0062959Y0126706D01*
X0063002Y0126715D01*
X0063046Y0126720D01*
X0063090Y0126721D01*
X0063134Y0126718D01*
X0063178Y0126711D01*
X0063221Y0126700D01*
X0063263Y0126686D01*
X0063303Y0126668D01*
X0063342Y0126646D01*
X0063378Y0126622D01*
X0063412Y0126594D01*
X0063444Y0126563D01*
X0063473Y0126529D01*
X0063499Y0126493D01*
X0063521Y0126455D01*
X0063540Y0126415D01*
X0063555Y0126373D01*
X0063567Y0126331D01*
X0063575Y0126287D01*
X0063579Y0126243D01*
X0063579Y0126199D01*
X0063575Y0126155D01*
X0063567Y0126111D01*
X0063555Y0126069D01*
X0063540Y0126027D01*
X0063521Y0125987D01*
X0063499Y0125949D01*
X0063473Y0125913D01*
X0063444Y0125879D01*
X0063412Y0125848D01*
X0063378Y0125820D01*
X0063342Y0125796D01*
X0063303Y0125774D01*
X0063263Y0125756D01*
X0063221Y0125742D01*
X0063178Y0125731D01*
X0063134Y0125724D01*
X0063090Y0125721D01*
X0063046Y0125722D01*
X0063002Y0125727D01*
X0062959Y0125736D01*
X0062916Y0125748D01*
X0062875Y0125765D01*
X0062835Y0125784D01*
X0062798Y0125808D01*
X0062762Y0125834D01*
X0062729Y0125864D01*
X0062699Y0125896D01*
X0062672Y0125931D01*
X0062648Y0125968D01*
X0062627Y0126007D01*
X0062610Y0126048D01*
X0062597Y0126090D01*
X0062587Y0126133D01*
X0062581Y0126177D01*
X0062579Y0126221D01*
X0062579Y0136221D02*
X0062581Y0136265D01*
X0062587Y0136309D01*
X0062597Y0136352D01*
X0062610Y0136394D01*
X0062627Y0136435D01*
X0062648Y0136474D01*
X0062672Y0136511D01*
X0062699Y0136546D01*
X0062729Y0136578D01*
X0062762Y0136608D01*
X0062798Y0136634D01*
X0062835Y0136658D01*
X0062875Y0136677D01*
X0062916Y0136694D01*
X0062959Y0136706D01*
X0063002Y0136715D01*
X0063046Y0136720D01*
X0063090Y0136721D01*
X0063134Y0136718D01*
X0063178Y0136711D01*
X0063221Y0136700D01*
X0063263Y0136686D01*
X0063303Y0136668D01*
X0063342Y0136646D01*
X0063378Y0136622D01*
X0063412Y0136594D01*
X0063444Y0136563D01*
X0063473Y0136529D01*
X0063499Y0136493D01*
X0063521Y0136455D01*
X0063540Y0136415D01*
X0063555Y0136373D01*
X0063567Y0136331D01*
X0063575Y0136287D01*
X0063579Y0136243D01*
X0063579Y0136199D01*
X0063575Y0136155D01*
X0063567Y0136111D01*
X0063555Y0136069D01*
X0063540Y0136027D01*
X0063521Y0135987D01*
X0063499Y0135949D01*
X0063473Y0135913D01*
X0063444Y0135879D01*
X0063412Y0135848D01*
X0063378Y0135820D01*
X0063342Y0135796D01*
X0063303Y0135774D01*
X0063263Y0135756D01*
X0063221Y0135742D01*
X0063178Y0135731D01*
X0063134Y0135724D01*
X0063090Y0135721D01*
X0063046Y0135722D01*
X0063002Y0135727D01*
X0062959Y0135736D01*
X0062916Y0135748D01*
X0062875Y0135765D01*
X0062835Y0135784D01*
X0062798Y0135808D01*
X0062762Y0135834D01*
X0062729Y0135864D01*
X0062699Y0135896D01*
X0062672Y0135931D01*
X0062648Y0135968D01*
X0062627Y0136007D01*
X0062610Y0136048D01*
X0062597Y0136090D01*
X0062587Y0136133D01*
X0062581Y0136177D01*
X0062579Y0136221D01*
X0096170Y0120605D02*
X0096170Y0119704D01*
X0096620Y0119253D01*
X0096620Y0118108D02*
X0097071Y0118108D01*
X0097521Y0117658D01*
X0097521Y0116307D01*
X0097521Y0117658D02*
X0097971Y0118108D01*
X0098422Y0118108D01*
X0098872Y0117658D01*
X0098872Y0116307D01*
X0096170Y0116307D01*
X0096170Y0117658D01*
X0096620Y0118108D01*
X0098872Y0119253D02*
X0097071Y0121055D01*
X0096620Y0121055D01*
X0096170Y0120605D01*
X0098872Y0121055D02*
X0098872Y0119253D01*
X0101258Y0121221D02*
X0101258Y0106721D01*
X0138758Y0106721D01*
X0138758Y0121221D01*
X0112008Y0131221D02*
X0112010Y0131417D01*
X0112018Y0131614D01*
X0112030Y0131810D01*
X0112047Y0132005D01*
X0112068Y0132200D01*
X0112095Y0132395D01*
X0112126Y0132589D01*
X0112162Y0132782D01*
X0112202Y0132974D01*
X0112248Y0133165D01*
X0112298Y0133355D01*
X0112352Y0133543D01*
X0112412Y0133730D01*
X0112476Y0133916D01*
X0112544Y0134100D01*
X0112617Y0134282D01*
X0112694Y0134463D01*
X0112776Y0134641D01*
X0112862Y0134818D01*
X0112953Y0134992D01*
X0113047Y0135164D01*
X0113146Y0135334D01*
X0113249Y0135501D01*
X0113356Y0135666D01*
X0113467Y0135827D01*
X0113582Y0135987D01*
X0113701Y0136143D01*
X0113824Y0136296D01*
X0113950Y0136446D01*
X0114080Y0136593D01*
X0114214Y0136737D01*
X0114351Y0136878D01*
X0114492Y0137015D01*
X0114636Y0137149D01*
X0114783Y0137279D01*
X0114933Y0137405D01*
X0115086Y0137528D01*
X0115242Y0137647D01*
X0115402Y0137762D01*
X0115563Y0137873D01*
X0115728Y0137980D01*
X0115895Y0138083D01*
X0116065Y0138182D01*
X0116237Y0138276D01*
X0116411Y0138367D01*
X0116588Y0138453D01*
X0116766Y0138535D01*
X0116947Y0138612D01*
X0117129Y0138685D01*
X0117313Y0138753D01*
X0117499Y0138817D01*
X0117686Y0138877D01*
X0117874Y0138931D01*
X0118064Y0138981D01*
X0118255Y0139027D01*
X0118447Y0139067D01*
X0118640Y0139103D01*
X0118834Y0139134D01*
X0119029Y0139161D01*
X0119224Y0139182D01*
X0119419Y0139199D01*
X0119615Y0139211D01*
X0119812Y0139219D01*
X0120008Y0139221D01*
X0120204Y0139219D01*
X0120401Y0139211D01*
X0120597Y0139199D01*
X0120792Y0139182D01*
X0120987Y0139161D01*
X0121182Y0139134D01*
X0121376Y0139103D01*
X0121569Y0139067D01*
X0121761Y0139027D01*
X0121952Y0138981D01*
X0122142Y0138931D01*
X0122330Y0138877D01*
X0122517Y0138817D01*
X0122703Y0138753D01*
X0122887Y0138685D01*
X0123069Y0138612D01*
X0123250Y0138535D01*
X0123428Y0138453D01*
X0123605Y0138367D01*
X0123779Y0138276D01*
X0123951Y0138182D01*
X0124121Y0138083D01*
X0124288Y0137980D01*
X0124453Y0137873D01*
X0124614Y0137762D01*
X0124774Y0137647D01*
X0124930Y0137528D01*
X0125083Y0137405D01*
X0125233Y0137279D01*
X0125380Y0137149D01*
X0125524Y0137015D01*
X0125665Y0136878D01*
X0125802Y0136737D01*
X0125936Y0136593D01*
X0126066Y0136446D01*
X0126192Y0136296D01*
X0126315Y0136143D01*
X0126434Y0135987D01*
X0126549Y0135827D01*
X0126660Y0135666D01*
X0126767Y0135501D01*
X0126870Y0135334D01*
X0126969Y0135164D01*
X0127063Y0134992D01*
X0127154Y0134818D01*
X0127240Y0134641D01*
X0127322Y0134463D01*
X0127399Y0134282D01*
X0127472Y0134100D01*
X0127540Y0133916D01*
X0127604Y0133730D01*
X0127664Y0133543D01*
X0127718Y0133355D01*
X0127768Y0133165D01*
X0127814Y0132974D01*
X0127854Y0132782D01*
X0127890Y0132589D01*
X0127921Y0132395D01*
X0127948Y0132200D01*
X0127969Y0132005D01*
X0127986Y0131810D01*
X0127998Y0131614D01*
X0128006Y0131417D01*
X0128008Y0131221D01*
X0128006Y0131025D01*
X0127998Y0130828D01*
X0127986Y0130632D01*
X0127969Y0130437D01*
X0127948Y0130242D01*
X0127921Y0130047D01*
X0127890Y0129853D01*
X0127854Y0129660D01*
X0127814Y0129468D01*
X0127768Y0129277D01*
X0127718Y0129087D01*
X0127664Y0128899D01*
X0127604Y0128712D01*
X0127540Y0128526D01*
X0127472Y0128342D01*
X0127399Y0128160D01*
X0127322Y0127979D01*
X0127240Y0127801D01*
X0127154Y0127624D01*
X0127063Y0127450D01*
X0126969Y0127278D01*
X0126870Y0127108D01*
X0126767Y0126941D01*
X0126660Y0126776D01*
X0126549Y0126615D01*
X0126434Y0126455D01*
X0126315Y0126299D01*
X0126192Y0126146D01*
X0126066Y0125996D01*
X0125936Y0125849D01*
X0125802Y0125705D01*
X0125665Y0125564D01*
X0125524Y0125427D01*
X0125380Y0125293D01*
X0125233Y0125163D01*
X0125083Y0125037D01*
X0124930Y0124914D01*
X0124774Y0124795D01*
X0124614Y0124680D01*
X0124453Y0124569D01*
X0124288Y0124462D01*
X0124121Y0124359D01*
X0123951Y0124260D01*
X0123779Y0124166D01*
X0123605Y0124075D01*
X0123428Y0123989D01*
X0123250Y0123907D01*
X0123069Y0123830D01*
X0122887Y0123757D01*
X0122703Y0123689D01*
X0122517Y0123625D01*
X0122330Y0123565D01*
X0122142Y0123511D01*
X0121952Y0123461D01*
X0121761Y0123415D01*
X0121569Y0123375D01*
X0121376Y0123339D01*
X0121182Y0123308D01*
X0120987Y0123281D01*
X0120792Y0123260D01*
X0120597Y0123243D01*
X0120401Y0123231D01*
X0120204Y0123223D01*
X0120008Y0123221D01*
X0119812Y0123223D01*
X0119615Y0123231D01*
X0119419Y0123243D01*
X0119224Y0123260D01*
X0119029Y0123281D01*
X0118834Y0123308D01*
X0118640Y0123339D01*
X0118447Y0123375D01*
X0118255Y0123415D01*
X0118064Y0123461D01*
X0117874Y0123511D01*
X0117686Y0123565D01*
X0117499Y0123625D01*
X0117313Y0123689D01*
X0117129Y0123757D01*
X0116947Y0123830D01*
X0116766Y0123907D01*
X0116588Y0123989D01*
X0116411Y0124075D01*
X0116237Y0124166D01*
X0116065Y0124260D01*
X0115895Y0124359D01*
X0115728Y0124462D01*
X0115563Y0124569D01*
X0115402Y0124680D01*
X0115242Y0124795D01*
X0115086Y0124914D01*
X0114933Y0125037D01*
X0114783Y0125163D01*
X0114636Y0125293D01*
X0114492Y0125427D01*
X0114351Y0125564D01*
X0114214Y0125705D01*
X0114080Y0125849D01*
X0113950Y0125996D01*
X0113824Y0126146D01*
X0113701Y0126299D01*
X0113582Y0126455D01*
X0113467Y0126615D01*
X0113356Y0126776D01*
X0113249Y0126941D01*
X0113146Y0127108D01*
X0113047Y0127278D01*
X0112953Y0127450D01*
X0112862Y0127624D01*
X0112776Y0127801D01*
X0112694Y0127979D01*
X0112617Y0128160D01*
X0112544Y0128342D01*
X0112476Y0128526D01*
X0112412Y0128712D01*
X0112352Y0128899D01*
X0112298Y0129087D01*
X0112248Y0129277D01*
X0112202Y0129468D01*
X0112162Y0129660D01*
X0112126Y0129853D01*
X0112095Y0130047D01*
X0112068Y0130242D01*
X0112047Y0130437D01*
X0112030Y0130632D01*
X0112018Y0130828D01*
X0112010Y0131025D01*
X0112008Y0131221D01*
X0101258Y0141221D02*
X0101258Y0149971D01*
X0101258Y0150221D02*
X0138758Y0150221D01*
X0138758Y0149971D02*
X0138758Y0141221D01*
X0098872Y0114712D02*
X0098422Y0115162D01*
X0096620Y0115162D01*
X0096170Y0114712D01*
X0096170Y0113811D01*
X0096620Y0113360D01*
X0098422Y0113360D01*
X0098872Y0113811D01*
X0098872Y0114712D01*
X0098872Y0112215D02*
X0096170Y0112215D01*
X0096170Y0110414D02*
X0098872Y0112215D01*
X0098872Y0110414D02*
X0096170Y0110414D01*
X0096170Y0109269D02*
X0097971Y0107467D01*
X0097521Y0107918D02*
X0098872Y0109269D01*
X0098872Y0107467D02*
X0096170Y0107467D01*
X0206994Y0186781D02*
X0208796Y0186781D01*
X0207895Y0185881D02*
X0207895Y0187682D01*
X0207856Y0198400D02*
X0207856Y0200202D01*
X0258738Y0150221D02*
X0296238Y0150221D01*
X0296238Y0149971D02*
X0296238Y0141221D01*
X0296238Y0121221D02*
X0296238Y0106721D01*
X0258738Y0106721D01*
X0258738Y0121221D01*
X0256545Y0120998D02*
X0253843Y0120998D01*
X0255194Y0119647D01*
X0255194Y0121449D01*
X0254744Y0118502D02*
X0254293Y0118502D01*
X0253843Y0118052D01*
X0253843Y0116701D01*
X0256545Y0116701D01*
X0256545Y0118052D01*
X0256095Y0118502D01*
X0255645Y0118502D01*
X0255194Y0118052D01*
X0255194Y0116701D01*
X0255194Y0118052D02*
X0254744Y0118502D01*
X0254293Y0115556D02*
X0253843Y0115105D01*
X0253843Y0114204D01*
X0254293Y0113754D01*
X0256095Y0113754D01*
X0256545Y0114204D01*
X0256545Y0115105D01*
X0256095Y0115556D01*
X0254293Y0115556D01*
X0253843Y0112609D02*
X0256545Y0112609D01*
X0253843Y0110808D01*
X0256545Y0110808D01*
X0256545Y0109663D02*
X0255194Y0108311D01*
X0255645Y0107861D02*
X0253843Y0109663D01*
X0253843Y0107861D02*
X0256545Y0107861D01*
X0269488Y0131221D02*
X0269490Y0131417D01*
X0269498Y0131614D01*
X0269510Y0131810D01*
X0269527Y0132005D01*
X0269548Y0132200D01*
X0269575Y0132395D01*
X0269606Y0132589D01*
X0269642Y0132782D01*
X0269682Y0132974D01*
X0269728Y0133165D01*
X0269778Y0133355D01*
X0269832Y0133543D01*
X0269892Y0133730D01*
X0269956Y0133916D01*
X0270024Y0134100D01*
X0270097Y0134282D01*
X0270174Y0134463D01*
X0270256Y0134641D01*
X0270342Y0134818D01*
X0270433Y0134992D01*
X0270527Y0135164D01*
X0270626Y0135334D01*
X0270729Y0135501D01*
X0270836Y0135666D01*
X0270947Y0135827D01*
X0271062Y0135987D01*
X0271181Y0136143D01*
X0271304Y0136296D01*
X0271430Y0136446D01*
X0271560Y0136593D01*
X0271694Y0136737D01*
X0271831Y0136878D01*
X0271972Y0137015D01*
X0272116Y0137149D01*
X0272263Y0137279D01*
X0272413Y0137405D01*
X0272566Y0137528D01*
X0272722Y0137647D01*
X0272882Y0137762D01*
X0273043Y0137873D01*
X0273208Y0137980D01*
X0273375Y0138083D01*
X0273545Y0138182D01*
X0273717Y0138276D01*
X0273891Y0138367D01*
X0274068Y0138453D01*
X0274246Y0138535D01*
X0274427Y0138612D01*
X0274609Y0138685D01*
X0274793Y0138753D01*
X0274979Y0138817D01*
X0275166Y0138877D01*
X0275354Y0138931D01*
X0275544Y0138981D01*
X0275735Y0139027D01*
X0275927Y0139067D01*
X0276120Y0139103D01*
X0276314Y0139134D01*
X0276509Y0139161D01*
X0276704Y0139182D01*
X0276899Y0139199D01*
X0277095Y0139211D01*
X0277292Y0139219D01*
X0277488Y0139221D01*
X0277684Y0139219D01*
X0277881Y0139211D01*
X0278077Y0139199D01*
X0278272Y0139182D01*
X0278467Y0139161D01*
X0278662Y0139134D01*
X0278856Y0139103D01*
X0279049Y0139067D01*
X0279241Y0139027D01*
X0279432Y0138981D01*
X0279622Y0138931D01*
X0279810Y0138877D01*
X0279997Y0138817D01*
X0280183Y0138753D01*
X0280367Y0138685D01*
X0280549Y0138612D01*
X0280730Y0138535D01*
X0280908Y0138453D01*
X0281085Y0138367D01*
X0281259Y0138276D01*
X0281431Y0138182D01*
X0281601Y0138083D01*
X0281768Y0137980D01*
X0281933Y0137873D01*
X0282094Y0137762D01*
X0282254Y0137647D01*
X0282410Y0137528D01*
X0282563Y0137405D01*
X0282713Y0137279D01*
X0282860Y0137149D01*
X0283004Y0137015D01*
X0283145Y0136878D01*
X0283282Y0136737D01*
X0283416Y0136593D01*
X0283546Y0136446D01*
X0283672Y0136296D01*
X0283795Y0136143D01*
X0283914Y0135987D01*
X0284029Y0135827D01*
X0284140Y0135666D01*
X0284247Y0135501D01*
X0284350Y0135334D01*
X0284449Y0135164D01*
X0284543Y0134992D01*
X0284634Y0134818D01*
X0284720Y0134641D01*
X0284802Y0134463D01*
X0284879Y0134282D01*
X0284952Y0134100D01*
X0285020Y0133916D01*
X0285084Y0133730D01*
X0285144Y0133543D01*
X0285198Y0133355D01*
X0285248Y0133165D01*
X0285294Y0132974D01*
X0285334Y0132782D01*
X0285370Y0132589D01*
X0285401Y0132395D01*
X0285428Y0132200D01*
X0285449Y0132005D01*
X0285466Y0131810D01*
X0285478Y0131614D01*
X0285486Y0131417D01*
X0285488Y0131221D01*
X0285486Y0131025D01*
X0285478Y0130828D01*
X0285466Y0130632D01*
X0285449Y0130437D01*
X0285428Y0130242D01*
X0285401Y0130047D01*
X0285370Y0129853D01*
X0285334Y0129660D01*
X0285294Y0129468D01*
X0285248Y0129277D01*
X0285198Y0129087D01*
X0285144Y0128899D01*
X0285084Y0128712D01*
X0285020Y0128526D01*
X0284952Y0128342D01*
X0284879Y0128160D01*
X0284802Y0127979D01*
X0284720Y0127801D01*
X0284634Y0127624D01*
X0284543Y0127450D01*
X0284449Y0127278D01*
X0284350Y0127108D01*
X0284247Y0126941D01*
X0284140Y0126776D01*
X0284029Y0126615D01*
X0283914Y0126455D01*
X0283795Y0126299D01*
X0283672Y0126146D01*
X0283546Y0125996D01*
X0283416Y0125849D01*
X0283282Y0125705D01*
X0283145Y0125564D01*
X0283004Y0125427D01*
X0282860Y0125293D01*
X0282713Y0125163D01*
X0282563Y0125037D01*
X0282410Y0124914D01*
X0282254Y0124795D01*
X0282094Y0124680D01*
X0281933Y0124569D01*
X0281768Y0124462D01*
X0281601Y0124359D01*
X0281431Y0124260D01*
X0281259Y0124166D01*
X0281085Y0124075D01*
X0280908Y0123989D01*
X0280730Y0123907D01*
X0280549Y0123830D01*
X0280367Y0123757D01*
X0280183Y0123689D01*
X0279997Y0123625D01*
X0279810Y0123565D01*
X0279622Y0123511D01*
X0279432Y0123461D01*
X0279241Y0123415D01*
X0279049Y0123375D01*
X0278856Y0123339D01*
X0278662Y0123308D01*
X0278467Y0123281D01*
X0278272Y0123260D01*
X0278077Y0123243D01*
X0277881Y0123231D01*
X0277684Y0123223D01*
X0277488Y0123221D01*
X0277292Y0123223D01*
X0277095Y0123231D01*
X0276899Y0123243D01*
X0276704Y0123260D01*
X0276509Y0123281D01*
X0276314Y0123308D01*
X0276120Y0123339D01*
X0275927Y0123375D01*
X0275735Y0123415D01*
X0275544Y0123461D01*
X0275354Y0123511D01*
X0275166Y0123565D01*
X0274979Y0123625D01*
X0274793Y0123689D01*
X0274609Y0123757D01*
X0274427Y0123830D01*
X0274246Y0123907D01*
X0274068Y0123989D01*
X0273891Y0124075D01*
X0273717Y0124166D01*
X0273545Y0124260D01*
X0273375Y0124359D01*
X0273208Y0124462D01*
X0273043Y0124569D01*
X0272882Y0124680D01*
X0272722Y0124795D01*
X0272566Y0124914D01*
X0272413Y0125037D01*
X0272263Y0125163D01*
X0272116Y0125293D01*
X0271972Y0125427D01*
X0271831Y0125564D01*
X0271694Y0125705D01*
X0271560Y0125849D01*
X0271430Y0125996D01*
X0271304Y0126146D01*
X0271181Y0126299D01*
X0271062Y0126455D01*
X0270947Y0126615D01*
X0270836Y0126776D01*
X0270729Y0126941D01*
X0270626Y0127108D01*
X0270527Y0127278D01*
X0270433Y0127450D01*
X0270342Y0127624D01*
X0270256Y0127801D01*
X0270174Y0127979D01*
X0270097Y0128160D01*
X0270024Y0128342D01*
X0269956Y0128526D01*
X0269892Y0128712D01*
X0269832Y0128899D01*
X0269778Y0129087D01*
X0269728Y0129277D01*
X0269682Y0129468D01*
X0269642Y0129660D01*
X0269606Y0129853D01*
X0269575Y0130047D01*
X0269548Y0130242D01*
X0269527Y0130437D01*
X0269510Y0130632D01*
X0269498Y0130828D01*
X0269490Y0131025D01*
X0269488Y0131221D01*
X0258738Y0141221D02*
X0258738Y0149971D01*
X0329417Y0146221D02*
X0329417Y0116221D01*
X0359417Y0116221D01*
X0359417Y0146221D01*
X0349417Y0146221D01*
X0349417Y0151221D02*
X0339417Y0146221D01*
X0329417Y0146221D01*
X0331881Y0148436D02*
X0331431Y0148886D01*
X0331881Y0148436D02*
X0332782Y0148436D01*
X0333233Y0148886D01*
X0333233Y0149337D01*
X0332782Y0149787D01*
X0331881Y0149787D01*
X0331431Y0150237D01*
X0331431Y0150688D01*
X0331881Y0151138D01*
X0332782Y0151138D01*
X0333233Y0150688D01*
X0334378Y0149787D02*
X0336179Y0149787D01*
X0335729Y0151138D02*
X0334378Y0149787D01*
X0335729Y0148436D02*
X0335729Y0151138D01*
X0333917Y0136221D02*
X0333919Y0136265D01*
X0333925Y0136309D01*
X0333935Y0136352D01*
X0333948Y0136394D01*
X0333965Y0136435D01*
X0333986Y0136474D01*
X0334010Y0136511D01*
X0334037Y0136546D01*
X0334067Y0136578D01*
X0334100Y0136608D01*
X0334136Y0136634D01*
X0334173Y0136658D01*
X0334213Y0136677D01*
X0334254Y0136694D01*
X0334297Y0136706D01*
X0334340Y0136715D01*
X0334384Y0136720D01*
X0334428Y0136721D01*
X0334472Y0136718D01*
X0334516Y0136711D01*
X0334559Y0136700D01*
X0334601Y0136686D01*
X0334641Y0136668D01*
X0334680Y0136646D01*
X0334716Y0136622D01*
X0334750Y0136594D01*
X0334782Y0136563D01*
X0334811Y0136529D01*
X0334837Y0136493D01*
X0334859Y0136455D01*
X0334878Y0136415D01*
X0334893Y0136373D01*
X0334905Y0136331D01*
X0334913Y0136287D01*
X0334917Y0136243D01*
X0334917Y0136199D01*
X0334913Y0136155D01*
X0334905Y0136111D01*
X0334893Y0136069D01*
X0334878Y0136027D01*
X0334859Y0135987D01*
X0334837Y0135949D01*
X0334811Y0135913D01*
X0334782Y0135879D01*
X0334750Y0135848D01*
X0334716Y0135820D01*
X0334680Y0135796D01*
X0334641Y0135774D01*
X0334601Y0135756D01*
X0334559Y0135742D01*
X0334516Y0135731D01*
X0334472Y0135724D01*
X0334428Y0135721D01*
X0334384Y0135722D01*
X0334340Y0135727D01*
X0334297Y0135736D01*
X0334254Y0135748D01*
X0334213Y0135765D01*
X0334173Y0135784D01*
X0334136Y0135808D01*
X0334100Y0135834D01*
X0334067Y0135864D01*
X0334037Y0135896D01*
X0334010Y0135931D01*
X0333986Y0135968D01*
X0333965Y0136007D01*
X0333948Y0136048D01*
X0333935Y0136090D01*
X0333925Y0136133D01*
X0333919Y0136177D01*
X0333917Y0136221D01*
X0334417Y0136221D02*
X0334417Y0126221D01*
X0333917Y0126221D02*
X0333919Y0126265D01*
X0333925Y0126309D01*
X0333935Y0126352D01*
X0333948Y0126394D01*
X0333965Y0126435D01*
X0333986Y0126474D01*
X0334010Y0126511D01*
X0334037Y0126546D01*
X0334067Y0126578D01*
X0334100Y0126608D01*
X0334136Y0126634D01*
X0334173Y0126658D01*
X0334213Y0126677D01*
X0334254Y0126694D01*
X0334297Y0126706D01*
X0334340Y0126715D01*
X0334384Y0126720D01*
X0334428Y0126721D01*
X0334472Y0126718D01*
X0334516Y0126711D01*
X0334559Y0126700D01*
X0334601Y0126686D01*
X0334641Y0126668D01*
X0334680Y0126646D01*
X0334716Y0126622D01*
X0334750Y0126594D01*
X0334782Y0126563D01*
X0334811Y0126529D01*
X0334837Y0126493D01*
X0334859Y0126455D01*
X0334878Y0126415D01*
X0334893Y0126373D01*
X0334905Y0126331D01*
X0334913Y0126287D01*
X0334917Y0126243D01*
X0334917Y0126199D01*
X0334913Y0126155D01*
X0334905Y0126111D01*
X0334893Y0126069D01*
X0334878Y0126027D01*
X0334859Y0125987D01*
X0334837Y0125949D01*
X0334811Y0125913D01*
X0334782Y0125879D01*
X0334750Y0125848D01*
X0334716Y0125820D01*
X0334680Y0125796D01*
X0334641Y0125774D01*
X0334601Y0125756D01*
X0334559Y0125742D01*
X0334516Y0125731D01*
X0334472Y0125724D01*
X0334428Y0125721D01*
X0334384Y0125722D01*
X0334340Y0125727D01*
X0334297Y0125736D01*
X0334254Y0125748D01*
X0334213Y0125765D01*
X0334173Y0125784D01*
X0334136Y0125808D01*
X0334100Y0125834D01*
X0334067Y0125864D01*
X0334037Y0125896D01*
X0334010Y0125931D01*
X0333986Y0125968D01*
X0333965Y0126007D01*
X0333948Y0126048D01*
X0333935Y0126090D01*
X0333925Y0126133D01*
X0333919Y0126177D01*
X0333917Y0126221D01*
X0353917Y0126221D02*
X0353919Y0126265D01*
X0353925Y0126309D01*
X0353935Y0126352D01*
X0353948Y0126394D01*
X0353965Y0126435D01*
X0353986Y0126474D01*
X0354010Y0126511D01*
X0354037Y0126546D01*
X0354067Y0126578D01*
X0354100Y0126608D01*
X0354136Y0126634D01*
X0354173Y0126658D01*
X0354213Y0126677D01*
X0354254Y0126694D01*
X0354297Y0126706D01*
X0354340Y0126715D01*
X0354384Y0126720D01*
X0354428Y0126721D01*
X0354472Y0126718D01*
X0354516Y0126711D01*
X0354559Y0126700D01*
X0354601Y0126686D01*
X0354641Y0126668D01*
X0354680Y0126646D01*
X0354716Y0126622D01*
X0354750Y0126594D01*
X0354782Y0126563D01*
X0354811Y0126529D01*
X0354837Y0126493D01*
X0354859Y0126455D01*
X0354878Y0126415D01*
X0354893Y0126373D01*
X0354905Y0126331D01*
X0354913Y0126287D01*
X0354917Y0126243D01*
X0354917Y0126199D01*
X0354913Y0126155D01*
X0354905Y0126111D01*
X0354893Y0126069D01*
X0354878Y0126027D01*
X0354859Y0125987D01*
X0354837Y0125949D01*
X0354811Y0125913D01*
X0354782Y0125879D01*
X0354750Y0125848D01*
X0354716Y0125820D01*
X0354680Y0125796D01*
X0354641Y0125774D01*
X0354601Y0125756D01*
X0354559Y0125742D01*
X0354516Y0125731D01*
X0354472Y0125724D01*
X0354428Y0125721D01*
X0354384Y0125722D01*
X0354340Y0125727D01*
X0354297Y0125736D01*
X0354254Y0125748D01*
X0354213Y0125765D01*
X0354173Y0125784D01*
X0354136Y0125808D01*
X0354100Y0125834D01*
X0354067Y0125864D01*
X0354037Y0125896D01*
X0354010Y0125931D01*
X0353986Y0125968D01*
X0353965Y0126007D01*
X0353948Y0126048D01*
X0353935Y0126090D01*
X0353925Y0126133D01*
X0353919Y0126177D01*
X0353917Y0126221D01*
X0354417Y0126221D02*
X0354417Y0136221D01*
X0353917Y0136221D02*
X0353919Y0136265D01*
X0353925Y0136309D01*
X0353935Y0136352D01*
X0353948Y0136394D01*
X0353965Y0136435D01*
X0353986Y0136474D01*
X0354010Y0136511D01*
X0354037Y0136546D01*
X0354067Y0136578D01*
X0354100Y0136608D01*
X0354136Y0136634D01*
X0354173Y0136658D01*
X0354213Y0136677D01*
X0354254Y0136694D01*
X0354297Y0136706D01*
X0354340Y0136715D01*
X0354384Y0136720D01*
X0354428Y0136721D01*
X0354472Y0136718D01*
X0354516Y0136711D01*
X0354559Y0136700D01*
X0354601Y0136686D01*
X0354641Y0136668D01*
X0354680Y0136646D01*
X0354716Y0136622D01*
X0354750Y0136594D01*
X0354782Y0136563D01*
X0354811Y0136529D01*
X0354837Y0136493D01*
X0354859Y0136455D01*
X0354878Y0136415D01*
X0354893Y0136373D01*
X0354905Y0136331D01*
X0354913Y0136287D01*
X0354917Y0136243D01*
X0354917Y0136199D01*
X0354913Y0136155D01*
X0354905Y0136111D01*
X0354893Y0136069D01*
X0354878Y0136027D01*
X0354859Y0135987D01*
X0354837Y0135949D01*
X0354811Y0135913D01*
X0354782Y0135879D01*
X0354750Y0135848D01*
X0354716Y0135820D01*
X0354680Y0135796D01*
X0354641Y0135774D01*
X0354601Y0135756D01*
X0354559Y0135742D01*
X0354516Y0135731D01*
X0354472Y0135724D01*
X0354428Y0135721D01*
X0354384Y0135722D01*
X0354340Y0135727D01*
X0354297Y0135736D01*
X0354254Y0135748D01*
X0354213Y0135765D01*
X0354173Y0135784D01*
X0354136Y0135808D01*
X0354100Y0135834D01*
X0354067Y0135864D01*
X0354037Y0135896D01*
X0354010Y0135931D01*
X0353986Y0135968D01*
X0353965Y0136007D01*
X0353948Y0136048D01*
X0353935Y0136090D01*
X0353925Y0136133D01*
X0353919Y0136177D01*
X0353917Y0136221D01*
X0375352Y0189774D02*
X0374468Y0190658D01*
X0375352Y0191542D01*
X0377120Y0191542D01*
X0377120Y0192675D02*
X0374468Y0192675D01*
X0377120Y0194442D01*
X0374468Y0194442D01*
X0374468Y0195575D02*
X0374468Y0197343D01*
X0374910Y0197343D01*
X0376678Y0195575D01*
X0377120Y0195575D01*
X0375794Y0191542D02*
X0375794Y0189774D01*
X0375352Y0189774D02*
X0377120Y0189774D01*
X0375837Y0202306D02*
X0375837Y0204337D01*
X0374822Y0203321D02*
X0376853Y0203321D01*
X0375798Y0211637D02*
X0375798Y0213667D01*
X0375877Y0219117D02*
X0375877Y0220885D01*
X0375435Y0220885D02*
X0377203Y0220885D01*
X0377203Y0222017D02*
X0374551Y0222017D01*
X0377203Y0223785D01*
X0374551Y0223785D01*
X0374993Y0224917D02*
X0375435Y0224917D01*
X0375877Y0225359D01*
X0375877Y0226243D01*
X0376319Y0226685D01*
X0376761Y0226685D01*
X0377203Y0226243D01*
X0377203Y0225359D01*
X0376761Y0224917D01*
X0376319Y0224917D01*
X0375877Y0225359D01*
X0375877Y0226243D02*
X0375435Y0226685D01*
X0374993Y0226685D01*
X0374551Y0226243D01*
X0374551Y0225359D01*
X0374993Y0224917D01*
X0375435Y0220885D02*
X0374551Y0220001D01*
X0375435Y0219117D01*
X0377203Y0219117D01*
X0377049Y0255845D02*
X0375281Y0255845D01*
X0374397Y0256729D01*
X0375281Y0257613D01*
X0377049Y0257613D01*
X0377049Y0258745D02*
X0374397Y0258745D01*
X0377049Y0260513D01*
X0374397Y0260513D01*
X0374397Y0261645D02*
X0375723Y0261645D01*
X0375281Y0262529D01*
X0375281Y0262971D01*
X0375723Y0263413D01*
X0376607Y0263413D01*
X0377049Y0262971D01*
X0377049Y0262087D01*
X0376607Y0261645D01*
X0374397Y0261645D02*
X0374397Y0263413D01*
X0375723Y0257613D02*
X0375723Y0255845D01*
X0359417Y0281576D02*
X0359417Y0311576D01*
X0349417Y0311576D01*
X0349417Y0316576D02*
X0339417Y0311576D01*
X0329417Y0311576D01*
X0329417Y0281576D01*
X0359417Y0281576D01*
X0353917Y0291576D02*
X0353919Y0291620D01*
X0353925Y0291664D01*
X0353935Y0291707D01*
X0353948Y0291749D01*
X0353965Y0291790D01*
X0353986Y0291829D01*
X0354010Y0291866D01*
X0354037Y0291901D01*
X0354067Y0291933D01*
X0354100Y0291963D01*
X0354136Y0291989D01*
X0354173Y0292013D01*
X0354213Y0292032D01*
X0354254Y0292049D01*
X0354297Y0292061D01*
X0354340Y0292070D01*
X0354384Y0292075D01*
X0354428Y0292076D01*
X0354472Y0292073D01*
X0354516Y0292066D01*
X0354559Y0292055D01*
X0354601Y0292041D01*
X0354641Y0292023D01*
X0354680Y0292001D01*
X0354716Y0291977D01*
X0354750Y0291949D01*
X0354782Y0291918D01*
X0354811Y0291884D01*
X0354837Y0291848D01*
X0354859Y0291810D01*
X0354878Y0291770D01*
X0354893Y0291728D01*
X0354905Y0291686D01*
X0354913Y0291642D01*
X0354917Y0291598D01*
X0354917Y0291554D01*
X0354913Y0291510D01*
X0354905Y0291466D01*
X0354893Y0291424D01*
X0354878Y0291382D01*
X0354859Y0291342D01*
X0354837Y0291304D01*
X0354811Y0291268D01*
X0354782Y0291234D01*
X0354750Y0291203D01*
X0354716Y0291175D01*
X0354680Y0291151D01*
X0354641Y0291129D01*
X0354601Y0291111D01*
X0354559Y0291097D01*
X0354516Y0291086D01*
X0354472Y0291079D01*
X0354428Y0291076D01*
X0354384Y0291077D01*
X0354340Y0291082D01*
X0354297Y0291091D01*
X0354254Y0291103D01*
X0354213Y0291120D01*
X0354173Y0291139D01*
X0354136Y0291163D01*
X0354100Y0291189D01*
X0354067Y0291219D01*
X0354037Y0291251D01*
X0354010Y0291286D01*
X0353986Y0291323D01*
X0353965Y0291362D01*
X0353948Y0291403D01*
X0353935Y0291445D01*
X0353925Y0291488D01*
X0353919Y0291532D01*
X0353917Y0291576D01*
X0354417Y0291576D02*
X0354417Y0301576D01*
X0353917Y0301576D02*
X0353919Y0301620D01*
X0353925Y0301664D01*
X0353935Y0301707D01*
X0353948Y0301749D01*
X0353965Y0301790D01*
X0353986Y0301829D01*
X0354010Y0301866D01*
X0354037Y0301901D01*
X0354067Y0301933D01*
X0354100Y0301963D01*
X0354136Y0301989D01*
X0354173Y0302013D01*
X0354213Y0302032D01*
X0354254Y0302049D01*
X0354297Y0302061D01*
X0354340Y0302070D01*
X0354384Y0302075D01*
X0354428Y0302076D01*
X0354472Y0302073D01*
X0354516Y0302066D01*
X0354559Y0302055D01*
X0354601Y0302041D01*
X0354641Y0302023D01*
X0354680Y0302001D01*
X0354716Y0301977D01*
X0354750Y0301949D01*
X0354782Y0301918D01*
X0354811Y0301884D01*
X0354837Y0301848D01*
X0354859Y0301810D01*
X0354878Y0301770D01*
X0354893Y0301728D01*
X0354905Y0301686D01*
X0354913Y0301642D01*
X0354917Y0301598D01*
X0354917Y0301554D01*
X0354913Y0301510D01*
X0354905Y0301466D01*
X0354893Y0301424D01*
X0354878Y0301382D01*
X0354859Y0301342D01*
X0354837Y0301304D01*
X0354811Y0301268D01*
X0354782Y0301234D01*
X0354750Y0301203D01*
X0354716Y0301175D01*
X0354680Y0301151D01*
X0354641Y0301129D01*
X0354601Y0301111D01*
X0354559Y0301097D01*
X0354516Y0301086D01*
X0354472Y0301079D01*
X0354428Y0301076D01*
X0354384Y0301077D01*
X0354340Y0301082D01*
X0354297Y0301091D01*
X0354254Y0301103D01*
X0354213Y0301120D01*
X0354173Y0301139D01*
X0354136Y0301163D01*
X0354100Y0301189D01*
X0354067Y0301219D01*
X0354037Y0301251D01*
X0354010Y0301286D01*
X0353986Y0301323D01*
X0353965Y0301362D01*
X0353948Y0301403D01*
X0353935Y0301445D01*
X0353925Y0301488D01*
X0353919Y0301532D01*
X0353917Y0301576D01*
X0334417Y0301576D02*
X0334417Y0291576D01*
X0333917Y0291576D02*
X0333919Y0291620D01*
X0333925Y0291664D01*
X0333935Y0291707D01*
X0333948Y0291749D01*
X0333965Y0291790D01*
X0333986Y0291829D01*
X0334010Y0291866D01*
X0334037Y0291901D01*
X0334067Y0291933D01*
X0334100Y0291963D01*
X0334136Y0291989D01*
X0334173Y0292013D01*
X0334213Y0292032D01*
X0334254Y0292049D01*
X0334297Y0292061D01*
X0334340Y0292070D01*
X0334384Y0292075D01*
X0334428Y0292076D01*
X0334472Y0292073D01*
X0334516Y0292066D01*
X0334559Y0292055D01*
X0334601Y0292041D01*
X0334641Y0292023D01*
X0334680Y0292001D01*
X0334716Y0291977D01*
X0334750Y0291949D01*
X0334782Y0291918D01*
X0334811Y0291884D01*
X0334837Y0291848D01*
X0334859Y0291810D01*
X0334878Y0291770D01*
X0334893Y0291728D01*
X0334905Y0291686D01*
X0334913Y0291642D01*
X0334917Y0291598D01*
X0334917Y0291554D01*
X0334913Y0291510D01*
X0334905Y0291466D01*
X0334893Y0291424D01*
X0334878Y0291382D01*
X0334859Y0291342D01*
X0334837Y0291304D01*
X0334811Y0291268D01*
X0334782Y0291234D01*
X0334750Y0291203D01*
X0334716Y0291175D01*
X0334680Y0291151D01*
X0334641Y0291129D01*
X0334601Y0291111D01*
X0334559Y0291097D01*
X0334516Y0291086D01*
X0334472Y0291079D01*
X0334428Y0291076D01*
X0334384Y0291077D01*
X0334340Y0291082D01*
X0334297Y0291091D01*
X0334254Y0291103D01*
X0334213Y0291120D01*
X0334173Y0291139D01*
X0334136Y0291163D01*
X0334100Y0291189D01*
X0334067Y0291219D01*
X0334037Y0291251D01*
X0334010Y0291286D01*
X0333986Y0291323D01*
X0333965Y0291362D01*
X0333948Y0291403D01*
X0333935Y0291445D01*
X0333925Y0291488D01*
X0333919Y0291532D01*
X0333917Y0291576D01*
X0333917Y0301576D02*
X0333919Y0301620D01*
X0333925Y0301664D01*
X0333935Y0301707D01*
X0333948Y0301749D01*
X0333965Y0301790D01*
X0333986Y0301829D01*
X0334010Y0301866D01*
X0334037Y0301901D01*
X0334067Y0301933D01*
X0334100Y0301963D01*
X0334136Y0301989D01*
X0334173Y0302013D01*
X0334213Y0302032D01*
X0334254Y0302049D01*
X0334297Y0302061D01*
X0334340Y0302070D01*
X0334384Y0302075D01*
X0334428Y0302076D01*
X0334472Y0302073D01*
X0334516Y0302066D01*
X0334559Y0302055D01*
X0334601Y0302041D01*
X0334641Y0302023D01*
X0334680Y0302001D01*
X0334716Y0301977D01*
X0334750Y0301949D01*
X0334782Y0301918D01*
X0334811Y0301884D01*
X0334837Y0301848D01*
X0334859Y0301810D01*
X0334878Y0301770D01*
X0334893Y0301728D01*
X0334905Y0301686D01*
X0334913Y0301642D01*
X0334917Y0301598D01*
X0334917Y0301554D01*
X0334913Y0301510D01*
X0334905Y0301466D01*
X0334893Y0301424D01*
X0334878Y0301382D01*
X0334859Y0301342D01*
X0334837Y0301304D01*
X0334811Y0301268D01*
X0334782Y0301234D01*
X0334750Y0301203D01*
X0334716Y0301175D01*
X0334680Y0301151D01*
X0334641Y0301129D01*
X0334601Y0301111D01*
X0334559Y0301097D01*
X0334516Y0301086D01*
X0334472Y0301079D01*
X0334428Y0301076D01*
X0334384Y0301077D01*
X0334340Y0301082D01*
X0334297Y0301091D01*
X0334254Y0301103D01*
X0334213Y0301120D01*
X0334173Y0301139D01*
X0334136Y0301163D01*
X0334100Y0301189D01*
X0334067Y0301219D01*
X0334037Y0301251D01*
X0334010Y0301286D01*
X0333986Y0301323D01*
X0333965Y0301362D01*
X0333948Y0301403D01*
X0333935Y0301445D01*
X0333925Y0301488D01*
X0333919Y0301532D01*
X0333917Y0301576D01*
X0334016Y0313475D02*
X0333115Y0313475D01*
X0332665Y0313926D01*
X0331520Y0313926D02*
X0331070Y0313475D01*
X0330169Y0313475D01*
X0329719Y0313926D01*
X0330169Y0314826D02*
X0329719Y0315277D01*
X0329719Y0315727D01*
X0330169Y0316177D01*
X0331070Y0316177D01*
X0331520Y0315727D01*
X0331070Y0314826D02*
X0331520Y0314376D01*
X0331520Y0313926D01*
X0331070Y0314826D02*
X0330169Y0314826D01*
X0332665Y0315727D02*
X0333115Y0316177D01*
X0334016Y0316177D01*
X0334467Y0315727D01*
X0334467Y0315277D01*
X0334016Y0314826D01*
X0334467Y0314376D01*
X0334467Y0313926D01*
X0334016Y0313475D01*
X0334016Y0314826D02*
X0333566Y0314826D01*
X0296238Y0315326D02*
X0296238Y0306576D01*
X0296238Y0315576D02*
X0258738Y0315576D01*
X0258738Y0315326D02*
X0258738Y0306576D01*
X0269488Y0296576D02*
X0269490Y0296772D01*
X0269498Y0296969D01*
X0269510Y0297165D01*
X0269527Y0297360D01*
X0269548Y0297555D01*
X0269575Y0297750D01*
X0269606Y0297944D01*
X0269642Y0298137D01*
X0269682Y0298329D01*
X0269728Y0298520D01*
X0269778Y0298710D01*
X0269832Y0298898D01*
X0269892Y0299085D01*
X0269956Y0299271D01*
X0270024Y0299455D01*
X0270097Y0299637D01*
X0270174Y0299818D01*
X0270256Y0299996D01*
X0270342Y0300173D01*
X0270433Y0300347D01*
X0270527Y0300519D01*
X0270626Y0300689D01*
X0270729Y0300856D01*
X0270836Y0301021D01*
X0270947Y0301182D01*
X0271062Y0301342D01*
X0271181Y0301498D01*
X0271304Y0301651D01*
X0271430Y0301801D01*
X0271560Y0301948D01*
X0271694Y0302092D01*
X0271831Y0302233D01*
X0271972Y0302370D01*
X0272116Y0302504D01*
X0272263Y0302634D01*
X0272413Y0302760D01*
X0272566Y0302883D01*
X0272722Y0303002D01*
X0272882Y0303117D01*
X0273043Y0303228D01*
X0273208Y0303335D01*
X0273375Y0303438D01*
X0273545Y0303537D01*
X0273717Y0303631D01*
X0273891Y0303722D01*
X0274068Y0303808D01*
X0274246Y0303890D01*
X0274427Y0303967D01*
X0274609Y0304040D01*
X0274793Y0304108D01*
X0274979Y0304172D01*
X0275166Y0304232D01*
X0275354Y0304286D01*
X0275544Y0304336D01*
X0275735Y0304382D01*
X0275927Y0304422D01*
X0276120Y0304458D01*
X0276314Y0304489D01*
X0276509Y0304516D01*
X0276704Y0304537D01*
X0276899Y0304554D01*
X0277095Y0304566D01*
X0277292Y0304574D01*
X0277488Y0304576D01*
X0277684Y0304574D01*
X0277881Y0304566D01*
X0278077Y0304554D01*
X0278272Y0304537D01*
X0278467Y0304516D01*
X0278662Y0304489D01*
X0278856Y0304458D01*
X0279049Y0304422D01*
X0279241Y0304382D01*
X0279432Y0304336D01*
X0279622Y0304286D01*
X0279810Y0304232D01*
X0279997Y0304172D01*
X0280183Y0304108D01*
X0280367Y0304040D01*
X0280549Y0303967D01*
X0280730Y0303890D01*
X0280908Y0303808D01*
X0281085Y0303722D01*
X0281259Y0303631D01*
X0281431Y0303537D01*
X0281601Y0303438D01*
X0281768Y0303335D01*
X0281933Y0303228D01*
X0282094Y0303117D01*
X0282254Y0303002D01*
X0282410Y0302883D01*
X0282563Y0302760D01*
X0282713Y0302634D01*
X0282860Y0302504D01*
X0283004Y0302370D01*
X0283145Y0302233D01*
X0283282Y0302092D01*
X0283416Y0301948D01*
X0283546Y0301801D01*
X0283672Y0301651D01*
X0283795Y0301498D01*
X0283914Y0301342D01*
X0284029Y0301182D01*
X0284140Y0301021D01*
X0284247Y0300856D01*
X0284350Y0300689D01*
X0284449Y0300519D01*
X0284543Y0300347D01*
X0284634Y0300173D01*
X0284720Y0299996D01*
X0284802Y0299818D01*
X0284879Y0299637D01*
X0284952Y0299455D01*
X0285020Y0299271D01*
X0285084Y0299085D01*
X0285144Y0298898D01*
X0285198Y0298710D01*
X0285248Y0298520D01*
X0285294Y0298329D01*
X0285334Y0298137D01*
X0285370Y0297944D01*
X0285401Y0297750D01*
X0285428Y0297555D01*
X0285449Y0297360D01*
X0285466Y0297165D01*
X0285478Y0296969D01*
X0285486Y0296772D01*
X0285488Y0296576D01*
X0285486Y0296380D01*
X0285478Y0296183D01*
X0285466Y0295987D01*
X0285449Y0295792D01*
X0285428Y0295597D01*
X0285401Y0295402D01*
X0285370Y0295208D01*
X0285334Y0295015D01*
X0285294Y0294823D01*
X0285248Y0294632D01*
X0285198Y0294442D01*
X0285144Y0294254D01*
X0285084Y0294067D01*
X0285020Y0293881D01*
X0284952Y0293697D01*
X0284879Y0293515D01*
X0284802Y0293334D01*
X0284720Y0293156D01*
X0284634Y0292979D01*
X0284543Y0292805D01*
X0284449Y0292633D01*
X0284350Y0292463D01*
X0284247Y0292296D01*
X0284140Y0292131D01*
X0284029Y0291970D01*
X0283914Y0291810D01*
X0283795Y0291654D01*
X0283672Y0291501D01*
X0283546Y0291351D01*
X0283416Y0291204D01*
X0283282Y0291060D01*
X0283145Y0290919D01*
X0283004Y0290782D01*
X0282860Y0290648D01*
X0282713Y0290518D01*
X0282563Y0290392D01*
X0282410Y0290269D01*
X0282254Y0290150D01*
X0282094Y0290035D01*
X0281933Y0289924D01*
X0281768Y0289817D01*
X0281601Y0289714D01*
X0281431Y0289615D01*
X0281259Y0289521D01*
X0281085Y0289430D01*
X0280908Y0289344D01*
X0280730Y0289262D01*
X0280549Y0289185D01*
X0280367Y0289112D01*
X0280183Y0289044D01*
X0279997Y0288980D01*
X0279810Y0288920D01*
X0279622Y0288866D01*
X0279432Y0288816D01*
X0279241Y0288770D01*
X0279049Y0288730D01*
X0278856Y0288694D01*
X0278662Y0288663D01*
X0278467Y0288636D01*
X0278272Y0288615D01*
X0278077Y0288598D01*
X0277881Y0288586D01*
X0277684Y0288578D01*
X0277488Y0288576D01*
X0277292Y0288578D01*
X0277095Y0288586D01*
X0276899Y0288598D01*
X0276704Y0288615D01*
X0276509Y0288636D01*
X0276314Y0288663D01*
X0276120Y0288694D01*
X0275927Y0288730D01*
X0275735Y0288770D01*
X0275544Y0288816D01*
X0275354Y0288866D01*
X0275166Y0288920D01*
X0274979Y0288980D01*
X0274793Y0289044D01*
X0274609Y0289112D01*
X0274427Y0289185D01*
X0274246Y0289262D01*
X0274068Y0289344D01*
X0273891Y0289430D01*
X0273717Y0289521D01*
X0273545Y0289615D01*
X0273375Y0289714D01*
X0273208Y0289817D01*
X0273043Y0289924D01*
X0272882Y0290035D01*
X0272722Y0290150D01*
X0272566Y0290269D01*
X0272413Y0290392D01*
X0272263Y0290518D01*
X0272116Y0290648D01*
X0271972Y0290782D01*
X0271831Y0290919D01*
X0271694Y0291060D01*
X0271560Y0291204D01*
X0271430Y0291351D01*
X0271304Y0291501D01*
X0271181Y0291654D01*
X0271062Y0291810D01*
X0270947Y0291970D01*
X0270836Y0292131D01*
X0270729Y0292296D01*
X0270626Y0292463D01*
X0270527Y0292633D01*
X0270433Y0292805D01*
X0270342Y0292979D01*
X0270256Y0293156D01*
X0270174Y0293334D01*
X0270097Y0293515D01*
X0270024Y0293697D01*
X0269956Y0293881D01*
X0269892Y0294067D01*
X0269832Y0294254D01*
X0269778Y0294442D01*
X0269728Y0294632D01*
X0269682Y0294823D01*
X0269642Y0295015D01*
X0269606Y0295208D01*
X0269575Y0295402D01*
X0269548Y0295597D01*
X0269527Y0295792D01*
X0269510Y0295987D01*
X0269498Y0296183D01*
X0269490Y0296380D01*
X0269488Y0296576D01*
X0258738Y0286576D02*
X0258738Y0272076D01*
X0296238Y0272076D01*
X0296238Y0286576D01*
X0256159Y0286341D02*
X0256159Y0285440D01*
X0255709Y0284990D01*
X0255709Y0283845D02*
X0256159Y0283394D01*
X0256159Y0282043D01*
X0253457Y0282043D01*
X0253457Y0283394D01*
X0253908Y0283845D01*
X0254358Y0283845D01*
X0254808Y0283394D01*
X0254808Y0282043D01*
X0254808Y0283394D02*
X0255259Y0283845D01*
X0255709Y0283845D01*
X0253908Y0284990D02*
X0253457Y0285440D01*
X0253457Y0286341D01*
X0253908Y0286791D01*
X0254358Y0286791D01*
X0254808Y0286341D01*
X0255259Y0286791D01*
X0255709Y0286791D01*
X0256159Y0286341D01*
X0254808Y0286341D02*
X0254808Y0285890D01*
X0253908Y0280898D02*
X0253457Y0280448D01*
X0253457Y0279547D01*
X0253908Y0279097D01*
X0255709Y0279097D01*
X0256159Y0279547D01*
X0256159Y0280448D01*
X0255709Y0280898D01*
X0253908Y0280898D01*
X0253457Y0277952D02*
X0256159Y0277952D01*
X0253457Y0276150D01*
X0256159Y0276150D01*
X0256159Y0275005D02*
X0254808Y0273654D01*
X0255259Y0273204D02*
X0253457Y0275005D01*
X0253457Y0273204D02*
X0256159Y0273204D01*
X0211748Y0267139D02*
X0198748Y0267139D01*
X0198591Y0267127D02*
X0185677Y0267127D01*
X0185677Y0317875D01*
X0198630Y0317875D01*
X0198748Y0317875D02*
X0211780Y0317875D01*
X0211748Y0317639D02*
X0211748Y0267139D01*
X0138758Y0272076D02*
X0138758Y0286576D01*
X0138758Y0272076D02*
X0101258Y0272076D01*
X0101258Y0286576D01*
X0098939Y0286480D02*
X0098939Y0284679D01*
X0098939Y0285579D02*
X0096237Y0285579D01*
X0097137Y0284679D01*
X0097137Y0283534D02*
X0097588Y0283083D01*
X0097588Y0281732D01*
X0098939Y0281732D02*
X0098939Y0283083D01*
X0098489Y0283534D01*
X0098038Y0283534D01*
X0097588Y0283083D01*
X0097137Y0283534D02*
X0096687Y0283534D01*
X0096237Y0283083D01*
X0096237Y0281732D01*
X0098939Y0281732D01*
X0098489Y0280587D02*
X0096687Y0280587D01*
X0096237Y0280137D01*
X0096237Y0279236D01*
X0096687Y0278786D01*
X0098489Y0278786D01*
X0098939Y0279236D01*
X0098939Y0280137D01*
X0098489Y0280587D01*
X0098939Y0277641D02*
X0096237Y0277641D01*
X0096237Y0275839D02*
X0098939Y0277641D01*
X0098939Y0275839D02*
X0096237Y0275839D01*
X0096237Y0274694D02*
X0098038Y0272893D01*
X0097588Y0273343D02*
X0098939Y0274694D01*
X0098939Y0272893D02*
X0096237Y0272893D01*
X0112008Y0296576D02*
X0112010Y0296772D01*
X0112018Y0296969D01*
X0112030Y0297165D01*
X0112047Y0297360D01*
X0112068Y0297555D01*
X0112095Y0297750D01*
X0112126Y0297944D01*
X0112162Y0298137D01*
X0112202Y0298329D01*
X0112248Y0298520D01*
X0112298Y0298710D01*
X0112352Y0298898D01*
X0112412Y0299085D01*
X0112476Y0299271D01*
X0112544Y0299455D01*
X0112617Y0299637D01*
X0112694Y0299818D01*
X0112776Y0299996D01*
X0112862Y0300173D01*
X0112953Y0300347D01*
X0113047Y0300519D01*
X0113146Y0300689D01*
X0113249Y0300856D01*
X0113356Y0301021D01*
X0113467Y0301182D01*
X0113582Y0301342D01*
X0113701Y0301498D01*
X0113824Y0301651D01*
X0113950Y0301801D01*
X0114080Y0301948D01*
X0114214Y0302092D01*
X0114351Y0302233D01*
X0114492Y0302370D01*
X0114636Y0302504D01*
X0114783Y0302634D01*
X0114933Y0302760D01*
X0115086Y0302883D01*
X0115242Y0303002D01*
X0115402Y0303117D01*
X0115563Y0303228D01*
X0115728Y0303335D01*
X0115895Y0303438D01*
X0116065Y0303537D01*
X0116237Y0303631D01*
X0116411Y0303722D01*
X0116588Y0303808D01*
X0116766Y0303890D01*
X0116947Y0303967D01*
X0117129Y0304040D01*
X0117313Y0304108D01*
X0117499Y0304172D01*
X0117686Y0304232D01*
X0117874Y0304286D01*
X0118064Y0304336D01*
X0118255Y0304382D01*
X0118447Y0304422D01*
X0118640Y0304458D01*
X0118834Y0304489D01*
X0119029Y0304516D01*
X0119224Y0304537D01*
X0119419Y0304554D01*
X0119615Y0304566D01*
X0119812Y0304574D01*
X0120008Y0304576D01*
X0120204Y0304574D01*
X0120401Y0304566D01*
X0120597Y0304554D01*
X0120792Y0304537D01*
X0120987Y0304516D01*
X0121182Y0304489D01*
X0121376Y0304458D01*
X0121569Y0304422D01*
X0121761Y0304382D01*
X0121952Y0304336D01*
X0122142Y0304286D01*
X0122330Y0304232D01*
X0122517Y0304172D01*
X0122703Y0304108D01*
X0122887Y0304040D01*
X0123069Y0303967D01*
X0123250Y0303890D01*
X0123428Y0303808D01*
X0123605Y0303722D01*
X0123779Y0303631D01*
X0123951Y0303537D01*
X0124121Y0303438D01*
X0124288Y0303335D01*
X0124453Y0303228D01*
X0124614Y0303117D01*
X0124774Y0303002D01*
X0124930Y0302883D01*
X0125083Y0302760D01*
X0125233Y0302634D01*
X0125380Y0302504D01*
X0125524Y0302370D01*
X0125665Y0302233D01*
X0125802Y0302092D01*
X0125936Y0301948D01*
X0126066Y0301801D01*
X0126192Y0301651D01*
X0126315Y0301498D01*
X0126434Y0301342D01*
X0126549Y0301182D01*
X0126660Y0301021D01*
X0126767Y0300856D01*
X0126870Y0300689D01*
X0126969Y0300519D01*
X0127063Y0300347D01*
X0127154Y0300173D01*
X0127240Y0299996D01*
X0127322Y0299818D01*
X0127399Y0299637D01*
X0127472Y0299455D01*
X0127540Y0299271D01*
X0127604Y0299085D01*
X0127664Y0298898D01*
X0127718Y0298710D01*
X0127768Y0298520D01*
X0127814Y0298329D01*
X0127854Y0298137D01*
X0127890Y0297944D01*
X0127921Y0297750D01*
X0127948Y0297555D01*
X0127969Y0297360D01*
X0127986Y0297165D01*
X0127998Y0296969D01*
X0128006Y0296772D01*
X0128008Y0296576D01*
X0128006Y0296380D01*
X0127998Y0296183D01*
X0127986Y0295987D01*
X0127969Y0295792D01*
X0127948Y0295597D01*
X0127921Y0295402D01*
X0127890Y0295208D01*
X0127854Y0295015D01*
X0127814Y0294823D01*
X0127768Y0294632D01*
X0127718Y0294442D01*
X0127664Y0294254D01*
X0127604Y0294067D01*
X0127540Y0293881D01*
X0127472Y0293697D01*
X0127399Y0293515D01*
X0127322Y0293334D01*
X0127240Y0293156D01*
X0127154Y0292979D01*
X0127063Y0292805D01*
X0126969Y0292633D01*
X0126870Y0292463D01*
X0126767Y0292296D01*
X0126660Y0292131D01*
X0126549Y0291970D01*
X0126434Y0291810D01*
X0126315Y0291654D01*
X0126192Y0291501D01*
X0126066Y0291351D01*
X0125936Y0291204D01*
X0125802Y0291060D01*
X0125665Y0290919D01*
X0125524Y0290782D01*
X0125380Y0290648D01*
X0125233Y0290518D01*
X0125083Y0290392D01*
X0124930Y0290269D01*
X0124774Y0290150D01*
X0124614Y0290035D01*
X0124453Y0289924D01*
X0124288Y0289817D01*
X0124121Y0289714D01*
X0123951Y0289615D01*
X0123779Y0289521D01*
X0123605Y0289430D01*
X0123428Y0289344D01*
X0123250Y0289262D01*
X0123069Y0289185D01*
X0122887Y0289112D01*
X0122703Y0289044D01*
X0122517Y0288980D01*
X0122330Y0288920D01*
X0122142Y0288866D01*
X0121952Y0288816D01*
X0121761Y0288770D01*
X0121569Y0288730D01*
X0121376Y0288694D01*
X0121182Y0288663D01*
X0120987Y0288636D01*
X0120792Y0288615D01*
X0120597Y0288598D01*
X0120401Y0288586D01*
X0120204Y0288578D01*
X0120008Y0288576D01*
X0119812Y0288578D01*
X0119615Y0288586D01*
X0119419Y0288598D01*
X0119224Y0288615D01*
X0119029Y0288636D01*
X0118834Y0288663D01*
X0118640Y0288694D01*
X0118447Y0288730D01*
X0118255Y0288770D01*
X0118064Y0288816D01*
X0117874Y0288866D01*
X0117686Y0288920D01*
X0117499Y0288980D01*
X0117313Y0289044D01*
X0117129Y0289112D01*
X0116947Y0289185D01*
X0116766Y0289262D01*
X0116588Y0289344D01*
X0116411Y0289430D01*
X0116237Y0289521D01*
X0116065Y0289615D01*
X0115895Y0289714D01*
X0115728Y0289817D01*
X0115563Y0289924D01*
X0115402Y0290035D01*
X0115242Y0290150D01*
X0115086Y0290269D01*
X0114933Y0290392D01*
X0114783Y0290518D01*
X0114636Y0290648D01*
X0114492Y0290782D01*
X0114351Y0290919D01*
X0114214Y0291060D01*
X0114080Y0291204D01*
X0113950Y0291351D01*
X0113824Y0291501D01*
X0113701Y0291654D01*
X0113582Y0291810D01*
X0113467Y0291970D01*
X0113356Y0292131D01*
X0113249Y0292296D01*
X0113146Y0292463D01*
X0113047Y0292633D01*
X0112953Y0292805D01*
X0112862Y0292979D01*
X0112776Y0293156D01*
X0112694Y0293334D01*
X0112617Y0293515D01*
X0112544Y0293697D01*
X0112476Y0293881D01*
X0112412Y0294067D01*
X0112352Y0294254D01*
X0112298Y0294442D01*
X0112248Y0294632D01*
X0112202Y0294823D01*
X0112162Y0295015D01*
X0112126Y0295208D01*
X0112095Y0295402D01*
X0112068Y0295597D01*
X0112047Y0295792D01*
X0112030Y0295987D01*
X0112018Y0296183D01*
X0112010Y0296380D01*
X0112008Y0296576D01*
X0101258Y0306576D02*
X0101258Y0315326D01*
X0101258Y0315576D02*
X0138758Y0315576D01*
X0138758Y0315326D02*
X0138758Y0306576D01*
X0121809Y0338310D02*
X0119907Y0338310D01*
X0119907Y0337676D02*
X0119907Y0338944D01*
X0120858Y0339886D02*
X0120541Y0340203D01*
X0120541Y0340837D01*
X0120858Y0341154D01*
X0121175Y0341154D01*
X0121175Y0339886D01*
X0121492Y0339886D02*
X0120858Y0339886D01*
X0121492Y0339886D02*
X0121809Y0340203D01*
X0121809Y0340837D01*
X0121492Y0342096D02*
X0120858Y0342096D01*
X0120541Y0342413D01*
X0120541Y0343047D01*
X0120858Y0343363D01*
X0121175Y0343363D01*
X0121175Y0342096D01*
X0121492Y0342096D02*
X0121809Y0342413D01*
X0121809Y0343047D01*
X0121809Y0344306D02*
X0120541Y0344306D01*
X0120541Y0345256D01*
X0120858Y0345573D01*
X0121809Y0345573D01*
X0121809Y0346516D02*
X0121809Y0347466D01*
X0121492Y0347783D01*
X0121175Y0347466D01*
X0121175Y0346832D01*
X0120858Y0346516D01*
X0120541Y0346832D01*
X0120541Y0347783D01*
X0120541Y0348725D02*
X0121492Y0348725D01*
X0121809Y0349042D01*
X0121809Y0349993D01*
X0122126Y0349993D02*
X0122443Y0349676D01*
X0122443Y0349359D01*
X0122126Y0349993D02*
X0120541Y0349993D01*
X0120858Y0350935D02*
X0120858Y0352203D01*
X0120858Y0353145D02*
X0120541Y0353779D01*
X0120541Y0354096D01*
X0120858Y0354413D01*
X0121492Y0354413D01*
X0121809Y0354096D01*
X0121809Y0353462D01*
X0121492Y0353145D01*
X0120858Y0353145D02*
X0119907Y0353145D01*
X0119907Y0354413D01*
X0119907Y0355355D02*
X0121175Y0355355D01*
X0121809Y0355989D01*
X0121175Y0356623D01*
X0119907Y0356623D01*
X0070974Y0387215D02*
X0070024Y0387215D01*
X0069707Y0387532D01*
X0069707Y0388166D01*
X0070024Y0388483D01*
X0070974Y0388483D01*
X0070341Y0388483D02*
X0069707Y0389117D01*
X0068765Y0389117D02*
X0068765Y0387215D01*
X0067814Y0387215D01*
X0067497Y0387532D01*
X0067497Y0388166D01*
X0067814Y0388483D01*
X0068765Y0388483D01*
X0070974Y0389117D02*
X0070974Y0387215D01*
X0066555Y0387849D02*
X0066238Y0387849D01*
X0066238Y0389117D01*
X0066555Y0389117D02*
X0065921Y0389117D01*
X0065081Y0388166D02*
X0063814Y0388166D01*
X0062872Y0387849D02*
X0062555Y0388166D01*
X0061921Y0388166D01*
X0061604Y0388483D01*
X0061604Y0388800D01*
X0061921Y0389117D01*
X0062555Y0389117D01*
X0062872Y0388800D01*
X0062872Y0387849D02*
X0062872Y0387532D01*
X0062555Y0387215D01*
X0061921Y0387215D01*
X0061604Y0387532D01*
X0060662Y0387215D02*
X0060662Y0389117D01*
X0060662Y0388166D02*
X0060345Y0387849D01*
X0059711Y0387849D01*
X0059394Y0388166D01*
X0059394Y0389117D01*
X0058452Y0388800D02*
X0058135Y0389117D01*
X0057184Y0389117D01*
X0057184Y0387849D01*
X0056242Y0387849D02*
X0055608Y0387849D01*
X0055925Y0387532D02*
X0055925Y0388800D01*
X0055608Y0389117D01*
X0054769Y0388800D02*
X0054769Y0388166D01*
X0054452Y0387849D01*
X0053501Y0387849D01*
X0053501Y0387215D02*
X0053501Y0389117D01*
X0054452Y0389117D01*
X0054769Y0388800D01*
X0052559Y0388800D02*
X0052242Y0389117D01*
X0051608Y0389117D01*
X0051291Y0388800D01*
X0051291Y0388166D01*
X0051608Y0387849D01*
X0052242Y0387849D01*
X0052559Y0388166D01*
X0052559Y0388800D01*
X0050349Y0388800D02*
X0050349Y0387849D01*
X0050349Y0388800D02*
X0050032Y0389117D01*
X0049715Y0388800D01*
X0049398Y0389117D01*
X0049081Y0388800D01*
X0049081Y0387849D01*
X0048139Y0387849D02*
X0047188Y0387849D01*
X0046871Y0388166D01*
X0046871Y0389117D01*
X0048139Y0389117D02*
X0048139Y0387849D01*
X0058452Y0387849D02*
X0058452Y0388800D01*
X0066238Y0387215D02*
X0066238Y0386898D01*
X0065251Y0373162D02*
X0063449Y0373162D01*
X0057062Y0373359D02*
X0056161Y0373359D01*
X0057062Y0373359D02*
X0057062Y0372458D01*
X0056611Y0372007D01*
X0055711Y0372007D01*
X0055260Y0372458D01*
X0055260Y0374259D01*
X0055711Y0374710D01*
X0056611Y0374710D01*
X0057062Y0374259D01*
X0054197Y0374710D02*
X0053296Y0374710D01*
X0053746Y0374710D02*
X0053746Y0372007D01*
X0053296Y0372007D02*
X0054197Y0372007D01*
X0052151Y0372458D02*
X0051700Y0372007D01*
X0050800Y0372007D01*
X0050349Y0372458D01*
X0050800Y0373359D02*
X0051700Y0373359D01*
X0052151Y0372908D01*
X0052151Y0372458D01*
X0050800Y0373359D02*
X0050349Y0373809D01*
X0050349Y0374259D01*
X0050800Y0374710D01*
X0051700Y0374710D01*
X0052151Y0374259D01*
X0058079Y0316576D02*
X0048079Y0311576D01*
X0038079Y0311576D01*
X0038079Y0281576D01*
X0068079Y0281576D01*
X0068079Y0311576D01*
X0058079Y0311576D01*
X0062579Y0301576D02*
X0062581Y0301620D01*
X0062587Y0301664D01*
X0062597Y0301707D01*
X0062610Y0301749D01*
X0062627Y0301790D01*
X0062648Y0301829D01*
X0062672Y0301866D01*
X0062699Y0301901D01*
X0062729Y0301933D01*
X0062762Y0301963D01*
X0062798Y0301989D01*
X0062835Y0302013D01*
X0062875Y0302032D01*
X0062916Y0302049D01*
X0062959Y0302061D01*
X0063002Y0302070D01*
X0063046Y0302075D01*
X0063090Y0302076D01*
X0063134Y0302073D01*
X0063178Y0302066D01*
X0063221Y0302055D01*
X0063263Y0302041D01*
X0063303Y0302023D01*
X0063342Y0302001D01*
X0063378Y0301977D01*
X0063412Y0301949D01*
X0063444Y0301918D01*
X0063473Y0301884D01*
X0063499Y0301848D01*
X0063521Y0301810D01*
X0063540Y0301770D01*
X0063555Y0301728D01*
X0063567Y0301686D01*
X0063575Y0301642D01*
X0063579Y0301598D01*
X0063579Y0301554D01*
X0063575Y0301510D01*
X0063567Y0301466D01*
X0063555Y0301424D01*
X0063540Y0301382D01*
X0063521Y0301342D01*
X0063499Y0301304D01*
X0063473Y0301268D01*
X0063444Y0301234D01*
X0063412Y0301203D01*
X0063378Y0301175D01*
X0063342Y0301151D01*
X0063303Y0301129D01*
X0063263Y0301111D01*
X0063221Y0301097D01*
X0063178Y0301086D01*
X0063134Y0301079D01*
X0063090Y0301076D01*
X0063046Y0301077D01*
X0063002Y0301082D01*
X0062959Y0301091D01*
X0062916Y0301103D01*
X0062875Y0301120D01*
X0062835Y0301139D01*
X0062798Y0301163D01*
X0062762Y0301189D01*
X0062729Y0301219D01*
X0062699Y0301251D01*
X0062672Y0301286D01*
X0062648Y0301323D01*
X0062627Y0301362D01*
X0062610Y0301403D01*
X0062597Y0301445D01*
X0062587Y0301488D01*
X0062581Y0301532D01*
X0062579Y0301576D01*
X0063079Y0301576D02*
X0063079Y0291576D01*
X0062579Y0291576D02*
X0062581Y0291620D01*
X0062587Y0291664D01*
X0062597Y0291707D01*
X0062610Y0291749D01*
X0062627Y0291790D01*
X0062648Y0291829D01*
X0062672Y0291866D01*
X0062699Y0291901D01*
X0062729Y0291933D01*
X0062762Y0291963D01*
X0062798Y0291989D01*
X0062835Y0292013D01*
X0062875Y0292032D01*
X0062916Y0292049D01*
X0062959Y0292061D01*
X0063002Y0292070D01*
X0063046Y0292075D01*
X0063090Y0292076D01*
X0063134Y0292073D01*
X0063178Y0292066D01*
X0063221Y0292055D01*
X0063263Y0292041D01*
X0063303Y0292023D01*
X0063342Y0292001D01*
X0063378Y0291977D01*
X0063412Y0291949D01*
X0063444Y0291918D01*
X0063473Y0291884D01*
X0063499Y0291848D01*
X0063521Y0291810D01*
X0063540Y0291770D01*
X0063555Y0291728D01*
X0063567Y0291686D01*
X0063575Y0291642D01*
X0063579Y0291598D01*
X0063579Y0291554D01*
X0063575Y0291510D01*
X0063567Y0291466D01*
X0063555Y0291424D01*
X0063540Y0291382D01*
X0063521Y0291342D01*
X0063499Y0291304D01*
X0063473Y0291268D01*
X0063444Y0291234D01*
X0063412Y0291203D01*
X0063378Y0291175D01*
X0063342Y0291151D01*
X0063303Y0291129D01*
X0063263Y0291111D01*
X0063221Y0291097D01*
X0063178Y0291086D01*
X0063134Y0291079D01*
X0063090Y0291076D01*
X0063046Y0291077D01*
X0063002Y0291082D01*
X0062959Y0291091D01*
X0062916Y0291103D01*
X0062875Y0291120D01*
X0062835Y0291139D01*
X0062798Y0291163D01*
X0062762Y0291189D01*
X0062729Y0291219D01*
X0062699Y0291251D01*
X0062672Y0291286D01*
X0062648Y0291323D01*
X0062627Y0291362D01*
X0062610Y0291403D01*
X0062597Y0291445D01*
X0062587Y0291488D01*
X0062581Y0291532D01*
X0062579Y0291576D01*
X0042579Y0291576D02*
X0042581Y0291620D01*
X0042587Y0291664D01*
X0042597Y0291707D01*
X0042610Y0291749D01*
X0042627Y0291790D01*
X0042648Y0291829D01*
X0042672Y0291866D01*
X0042699Y0291901D01*
X0042729Y0291933D01*
X0042762Y0291963D01*
X0042798Y0291989D01*
X0042835Y0292013D01*
X0042875Y0292032D01*
X0042916Y0292049D01*
X0042959Y0292061D01*
X0043002Y0292070D01*
X0043046Y0292075D01*
X0043090Y0292076D01*
X0043134Y0292073D01*
X0043178Y0292066D01*
X0043221Y0292055D01*
X0043263Y0292041D01*
X0043303Y0292023D01*
X0043342Y0292001D01*
X0043378Y0291977D01*
X0043412Y0291949D01*
X0043444Y0291918D01*
X0043473Y0291884D01*
X0043499Y0291848D01*
X0043521Y0291810D01*
X0043540Y0291770D01*
X0043555Y0291728D01*
X0043567Y0291686D01*
X0043575Y0291642D01*
X0043579Y0291598D01*
X0043579Y0291554D01*
X0043575Y0291510D01*
X0043567Y0291466D01*
X0043555Y0291424D01*
X0043540Y0291382D01*
X0043521Y0291342D01*
X0043499Y0291304D01*
X0043473Y0291268D01*
X0043444Y0291234D01*
X0043412Y0291203D01*
X0043378Y0291175D01*
X0043342Y0291151D01*
X0043303Y0291129D01*
X0043263Y0291111D01*
X0043221Y0291097D01*
X0043178Y0291086D01*
X0043134Y0291079D01*
X0043090Y0291076D01*
X0043046Y0291077D01*
X0043002Y0291082D01*
X0042959Y0291091D01*
X0042916Y0291103D01*
X0042875Y0291120D01*
X0042835Y0291139D01*
X0042798Y0291163D01*
X0042762Y0291189D01*
X0042729Y0291219D01*
X0042699Y0291251D01*
X0042672Y0291286D01*
X0042648Y0291323D01*
X0042627Y0291362D01*
X0042610Y0291403D01*
X0042597Y0291445D01*
X0042587Y0291488D01*
X0042581Y0291532D01*
X0042579Y0291576D01*
X0043079Y0291576D02*
X0043079Y0301576D01*
X0042579Y0301576D02*
X0042581Y0301620D01*
X0042587Y0301664D01*
X0042597Y0301707D01*
X0042610Y0301749D01*
X0042627Y0301790D01*
X0042648Y0301829D01*
X0042672Y0301866D01*
X0042699Y0301901D01*
X0042729Y0301933D01*
X0042762Y0301963D01*
X0042798Y0301989D01*
X0042835Y0302013D01*
X0042875Y0302032D01*
X0042916Y0302049D01*
X0042959Y0302061D01*
X0043002Y0302070D01*
X0043046Y0302075D01*
X0043090Y0302076D01*
X0043134Y0302073D01*
X0043178Y0302066D01*
X0043221Y0302055D01*
X0043263Y0302041D01*
X0043303Y0302023D01*
X0043342Y0302001D01*
X0043378Y0301977D01*
X0043412Y0301949D01*
X0043444Y0301918D01*
X0043473Y0301884D01*
X0043499Y0301848D01*
X0043521Y0301810D01*
X0043540Y0301770D01*
X0043555Y0301728D01*
X0043567Y0301686D01*
X0043575Y0301642D01*
X0043579Y0301598D01*
X0043579Y0301554D01*
X0043575Y0301510D01*
X0043567Y0301466D01*
X0043555Y0301424D01*
X0043540Y0301382D01*
X0043521Y0301342D01*
X0043499Y0301304D01*
X0043473Y0301268D01*
X0043444Y0301234D01*
X0043412Y0301203D01*
X0043378Y0301175D01*
X0043342Y0301151D01*
X0043303Y0301129D01*
X0043263Y0301111D01*
X0043221Y0301097D01*
X0043178Y0301086D01*
X0043134Y0301079D01*
X0043090Y0301076D01*
X0043046Y0301077D01*
X0043002Y0301082D01*
X0042959Y0301091D01*
X0042916Y0301103D01*
X0042875Y0301120D01*
X0042835Y0301139D01*
X0042798Y0301163D01*
X0042762Y0301189D01*
X0042729Y0301219D01*
X0042699Y0301251D01*
X0042672Y0301286D01*
X0042648Y0301323D01*
X0042627Y0301362D01*
X0042610Y0301403D01*
X0042597Y0301445D01*
X0042587Y0301488D01*
X0042581Y0301532D01*
X0042579Y0301576D01*
X0042609Y0313652D02*
X0042609Y0316355D01*
X0041708Y0315454D01*
X0040563Y0315904D02*
X0040113Y0316355D01*
X0039212Y0316355D01*
X0038762Y0315904D01*
X0038762Y0315454D01*
X0039212Y0315004D01*
X0040113Y0315004D01*
X0040563Y0314553D01*
X0040563Y0314103D01*
X0040113Y0313652D01*
X0039212Y0313652D01*
X0038762Y0314103D01*
X0041708Y0313652D02*
X0043510Y0313652D01*
X0374492Y0293354D02*
X0374934Y0292470D01*
X0375818Y0291586D01*
X0375818Y0292912D01*
X0376260Y0293354D01*
X0376702Y0293354D01*
X0377144Y0292912D01*
X0377144Y0292028D01*
X0376702Y0291586D01*
X0375818Y0291586D01*
X0377144Y0290454D02*
X0374492Y0290454D01*
X0374492Y0288686D02*
X0377144Y0290454D01*
X0377144Y0288686D02*
X0374492Y0288686D01*
X0375376Y0287554D02*
X0377144Y0287554D01*
X0375818Y0287554D02*
X0375818Y0285786D01*
X0375376Y0285786D02*
X0374492Y0286670D01*
X0375376Y0287554D01*
X0375376Y0285786D02*
X0377144Y0285786D01*
X0376923Y0078247D02*
X0376923Y0076479D01*
X0375155Y0078247D01*
X0374713Y0078247D01*
X0374271Y0077805D01*
X0374271Y0076921D01*
X0374713Y0076479D01*
X0374271Y0074463D02*
X0376923Y0074463D01*
X0376923Y0075346D02*
X0376923Y0073579D01*
X0376923Y0072446D02*
X0374271Y0072446D01*
X0375155Y0073579D02*
X0374271Y0074463D01*
X0376923Y0072446D02*
X0374271Y0070678D01*
X0376923Y0070678D01*
X0376923Y0069546D02*
X0375155Y0069546D01*
X0374271Y0068662D01*
X0375155Y0067778D01*
X0376923Y0067778D01*
X0375597Y0067778D02*
X0375597Y0069546D01*
X0376687Y0048514D02*
X0376687Y0046746D01*
X0376687Y0047630D02*
X0374035Y0047630D01*
X0374919Y0046746D01*
X0376687Y0045614D02*
X0376687Y0043846D01*
X0376687Y0044730D02*
X0374035Y0044730D01*
X0374919Y0043846D01*
X0374035Y0042714D02*
X0376687Y0042714D01*
X0374035Y0040946D01*
X0376687Y0040946D01*
X0376687Y0039814D02*
X0374919Y0039814D01*
X0374035Y0038930D01*
X0374919Y0038046D01*
X0376687Y0038046D01*
X0375361Y0038046D02*
X0375361Y0039814D01*
D15*
X0202717Y0186795D02*
X0202886Y0186894D01*
X0203052Y0186998D01*
X0203216Y0187105D01*
X0203377Y0187216D01*
X0203535Y0187331D01*
X0203690Y0187450D01*
X0203843Y0187573D01*
X0203992Y0187699D01*
X0204138Y0187829D01*
X0204281Y0187963D01*
X0204421Y0188100D01*
X0204557Y0188240D01*
X0204690Y0188384D01*
X0204819Y0188531D01*
X0204945Y0188681D01*
X0205066Y0188834D01*
X0205185Y0188990D01*
X0205299Y0189149D01*
X0205409Y0189310D01*
X0205515Y0189475D01*
X0205618Y0189641D01*
X0205716Y0189811D01*
X0205810Y0189982D01*
X0205900Y0190156D01*
X0205985Y0190332D01*
X0206067Y0190510D01*
X0206143Y0190690D01*
X0206216Y0190872D01*
X0206284Y0191055D01*
X0206347Y0191240D01*
X0206406Y0191427D01*
X0206460Y0191615D01*
X0206510Y0191804D01*
X0206555Y0191994D01*
X0206595Y0192186D01*
X0206631Y0192378D01*
X0206662Y0192571D01*
X0206688Y0192765D01*
X0206710Y0192960D01*
X0206726Y0193155D01*
X0206738Y0193350D01*
X0206746Y0193546D01*
X0206748Y0193741D01*
X0194983Y0186682D02*
X0194815Y0186775D01*
X0194649Y0186871D01*
X0194485Y0186971D01*
X0194324Y0187076D01*
X0194165Y0187184D01*
X0194009Y0187296D01*
X0193855Y0187412D01*
X0193705Y0187531D01*
X0193557Y0187654D01*
X0193412Y0187780D01*
X0193271Y0187910D01*
X0193132Y0188043D01*
X0192997Y0188180D01*
X0192865Y0188320D01*
X0192737Y0188462D01*
X0192612Y0188608D01*
X0192490Y0188757D01*
X0192372Y0188909D01*
X0192258Y0189063D01*
X0192148Y0189221D01*
X0192041Y0189380D01*
X0191938Y0189543D01*
X0191839Y0189708D01*
X0191744Y0189875D01*
X0191654Y0190044D01*
X0191567Y0190215D01*
X0191484Y0190389D01*
X0191406Y0190564D01*
X0191332Y0190742D01*
X0191262Y0190921D01*
X0191196Y0191101D01*
X0191135Y0191283D01*
X0191078Y0191467D01*
X0191026Y0191652D01*
X0190978Y0191838D01*
X0190934Y0192025D01*
X0190895Y0192213D01*
X0190861Y0192402D01*
X0190831Y0192592D01*
X0190806Y0192782D01*
X0190785Y0192973D01*
X0190769Y0193165D01*
X0190757Y0193357D01*
X0190750Y0193549D01*
X0190748Y0193741D01*
X0203916Y0199848D02*
X0204062Y0199721D01*
X0204204Y0199592D01*
X0204344Y0199458D01*
X0204480Y0199322D01*
X0204613Y0199182D01*
X0204743Y0199039D01*
X0204869Y0198892D01*
X0204991Y0198743D01*
X0205110Y0198591D01*
X0205225Y0198436D01*
X0205337Y0198279D01*
X0205444Y0198119D01*
X0205548Y0197956D01*
X0205647Y0197790D01*
X0205743Y0197623D01*
X0205835Y0197453D01*
X0205922Y0197281D01*
X0206006Y0197107D01*
X0206085Y0196931D01*
X0206159Y0196753D01*
X0206230Y0196573D01*
X0206296Y0196392D01*
X0206358Y0196209D01*
X0206415Y0196025D01*
X0206468Y0195839D01*
X0206516Y0195652D01*
X0206560Y0195464D01*
X0206599Y0195275D01*
X0206634Y0195085D01*
X0206664Y0194895D01*
X0206690Y0194704D01*
X0206711Y0194512D01*
X0206727Y0194319D01*
X0206739Y0194127D01*
X0206746Y0193934D01*
X0206748Y0193741D01*
X0193626Y0199887D02*
X0193478Y0199760D01*
X0193333Y0199630D01*
X0193192Y0199497D01*
X0193053Y0199360D01*
X0192918Y0199220D01*
X0192787Y0199076D01*
X0192659Y0198929D01*
X0192534Y0198780D01*
X0192413Y0198627D01*
X0192296Y0198472D01*
X0192183Y0198313D01*
X0192074Y0198152D01*
X0191969Y0197988D01*
X0191867Y0197822D01*
X0191770Y0197653D01*
X0191677Y0197483D01*
X0191588Y0197309D01*
X0191503Y0197134D01*
X0191423Y0196957D01*
X0191347Y0196778D01*
X0191275Y0196597D01*
X0191208Y0196414D01*
X0191145Y0196230D01*
X0191087Y0196044D01*
X0191033Y0195857D01*
X0190984Y0195669D01*
X0190939Y0195479D01*
X0190899Y0195289D01*
X0190864Y0195097D01*
X0190833Y0194905D01*
X0190807Y0194712D01*
X0190786Y0194518D01*
X0190769Y0194324D01*
X0190757Y0194130D01*
X0190750Y0193936D01*
X0190748Y0193741D01*
D16*
X0055579Y0133721D02*
X0053079Y0128721D01*
X0050579Y0128721D01*
X0053079Y0128721D02*
X0050579Y0133721D01*
X0055579Y0133721D01*
X0055579Y0128721D02*
X0053079Y0128721D01*
X0053079Y0294076D02*
X0050579Y0294076D01*
X0053079Y0294076D02*
X0050579Y0299076D01*
X0055579Y0299076D01*
X0053079Y0294076D01*
X0055579Y0294076D01*
X0341917Y0294076D02*
X0344417Y0294076D01*
X0346917Y0294076D01*
X0344417Y0294076D02*
X0341917Y0299076D01*
X0346917Y0299076D01*
X0344417Y0294076D01*
X0341917Y0133721D02*
X0344417Y0128721D01*
X0341917Y0128721D01*
X0344417Y0128721D02*
X0346917Y0128721D01*
X0344417Y0128721D02*
X0346917Y0133721D01*
X0341917Y0133721D01*
D17*
X0339069Y0146469D02*
X0339071Y0146518D01*
X0339077Y0146566D01*
X0339087Y0146614D01*
X0339101Y0146661D01*
X0339118Y0146707D01*
X0339139Y0146751D01*
X0339164Y0146793D01*
X0339192Y0146833D01*
X0339224Y0146871D01*
X0339258Y0146906D01*
X0339295Y0146938D01*
X0339334Y0146967D01*
X0339376Y0146993D01*
X0339420Y0147015D01*
X0339465Y0147033D01*
X0339512Y0147048D01*
X0339559Y0147059D01*
X0339608Y0147066D01*
X0339657Y0147069D01*
X0339706Y0147068D01*
X0339754Y0147063D01*
X0339803Y0147054D01*
X0339850Y0147041D01*
X0339896Y0147024D01*
X0339940Y0147004D01*
X0339983Y0146980D01*
X0340024Y0146953D01*
X0340062Y0146922D01*
X0340098Y0146889D01*
X0340130Y0146853D01*
X0340160Y0146814D01*
X0340187Y0146773D01*
X0340210Y0146729D01*
X0340229Y0146684D01*
X0340245Y0146638D01*
X0340257Y0146591D01*
X0340265Y0146542D01*
X0340269Y0146493D01*
X0340269Y0146445D01*
X0340265Y0146396D01*
X0340257Y0146347D01*
X0340245Y0146300D01*
X0340229Y0146254D01*
X0340210Y0146209D01*
X0340187Y0146165D01*
X0340160Y0146124D01*
X0340130Y0146085D01*
X0340098Y0146049D01*
X0340062Y0146016D01*
X0340024Y0145985D01*
X0339983Y0145958D01*
X0339940Y0145934D01*
X0339896Y0145914D01*
X0339850Y0145897D01*
X0339803Y0145884D01*
X0339754Y0145875D01*
X0339706Y0145870D01*
X0339657Y0145869D01*
X0339608Y0145872D01*
X0339559Y0145879D01*
X0339512Y0145890D01*
X0339465Y0145905D01*
X0339420Y0145923D01*
X0339376Y0145945D01*
X0339334Y0145971D01*
X0339295Y0146000D01*
X0339258Y0146032D01*
X0339224Y0146067D01*
X0339192Y0146105D01*
X0339164Y0146145D01*
X0339139Y0146187D01*
X0339118Y0146231D01*
X0339101Y0146277D01*
X0339087Y0146324D01*
X0339077Y0146372D01*
X0339071Y0146420D01*
X0339069Y0146469D01*
X0349069Y0146469D02*
X0349071Y0146518D01*
X0349077Y0146566D01*
X0349087Y0146614D01*
X0349101Y0146661D01*
X0349118Y0146707D01*
X0349139Y0146751D01*
X0349164Y0146793D01*
X0349192Y0146833D01*
X0349224Y0146871D01*
X0349258Y0146906D01*
X0349295Y0146938D01*
X0349334Y0146967D01*
X0349376Y0146993D01*
X0349420Y0147015D01*
X0349465Y0147033D01*
X0349512Y0147048D01*
X0349559Y0147059D01*
X0349608Y0147066D01*
X0349657Y0147069D01*
X0349706Y0147068D01*
X0349754Y0147063D01*
X0349803Y0147054D01*
X0349850Y0147041D01*
X0349896Y0147024D01*
X0349940Y0147004D01*
X0349983Y0146980D01*
X0350024Y0146953D01*
X0350062Y0146922D01*
X0350098Y0146889D01*
X0350130Y0146853D01*
X0350160Y0146814D01*
X0350187Y0146773D01*
X0350210Y0146729D01*
X0350229Y0146684D01*
X0350245Y0146638D01*
X0350257Y0146591D01*
X0350265Y0146542D01*
X0350269Y0146493D01*
X0350269Y0146445D01*
X0350265Y0146396D01*
X0350257Y0146347D01*
X0350245Y0146300D01*
X0350229Y0146254D01*
X0350210Y0146209D01*
X0350187Y0146165D01*
X0350160Y0146124D01*
X0350130Y0146085D01*
X0350098Y0146049D01*
X0350062Y0146016D01*
X0350024Y0145985D01*
X0349983Y0145958D01*
X0349940Y0145934D01*
X0349896Y0145914D01*
X0349850Y0145897D01*
X0349803Y0145884D01*
X0349754Y0145875D01*
X0349706Y0145870D01*
X0349657Y0145869D01*
X0349608Y0145872D01*
X0349559Y0145879D01*
X0349512Y0145890D01*
X0349465Y0145905D01*
X0349420Y0145923D01*
X0349376Y0145945D01*
X0349334Y0145971D01*
X0349295Y0146000D01*
X0349258Y0146032D01*
X0349224Y0146067D01*
X0349192Y0146105D01*
X0349164Y0146145D01*
X0349139Y0146187D01*
X0349118Y0146231D01*
X0349101Y0146277D01*
X0349087Y0146324D01*
X0349077Y0146372D01*
X0349071Y0146420D01*
X0349069Y0146469D01*
X0349069Y0311824D02*
X0349071Y0311873D01*
X0349077Y0311921D01*
X0349087Y0311969D01*
X0349101Y0312016D01*
X0349118Y0312062D01*
X0349139Y0312106D01*
X0349164Y0312148D01*
X0349192Y0312188D01*
X0349224Y0312226D01*
X0349258Y0312261D01*
X0349295Y0312293D01*
X0349334Y0312322D01*
X0349376Y0312348D01*
X0349420Y0312370D01*
X0349465Y0312388D01*
X0349512Y0312403D01*
X0349559Y0312414D01*
X0349608Y0312421D01*
X0349657Y0312424D01*
X0349706Y0312423D01*
X0349754Y0312418D01*
X0349803Y0312409D01*
X0349850Y0312396D01*
X0349896Y0312379D01*
X0349940Y0312359D01*
X0349983Y0312335D01*
X0350024Y0312308D01*
X0350062Y0312277D01*
X0350098Y0312244D01*
X0350130Y0312208D01*
X0350160Y0312169D01*
X0350187Y0312128D01*
X0350210Y0312084D01*
X0350229Y0312039D01*
X0350245Y0311993D01*
X0350257Y0311946D01*
X0350265Y0311897D01*
X0350269Y0311848D01*
X0350269Y0311800D01*
X0350265Y0311751D01*
X0350257Y0311702D01*
X0350245Y0311655D01*
X0350229Y0311609D01*
X0350210Y0311564D01*
X0350187Y0311520D01*
X0350160Y0311479D01*
X0350130Y0311440D01*
X0350098Y0311404D01*
X0350062Y0311371D01*
X0350024Y0311340D01*
X0349983Y0311313D01*
X0349940Y0311289D01*
X0349896Y0311269D01*
X0349850Y0311252D01*
X0349803Y0311239D01*
X0349754Y0311230D01*
X0349706Y0311225D01*
X0349657Y0311224D01*
X0349608Y0311227D01*
X0349559Y0311234D01*
X0349512Y0311245D01*
X0349465Y0311260D01*
X0349420Y0311278D01*
X0349376Y0311300D01*
X0349334Y0311326D01*
X0349295Y0311355D01*
X0349258Y0311387D01*
X0349224Y0311422D01*
X0349192Y0311460D01*
X0349164Y0311500D01*
X0349139Y0311542D01*
X0349118Y0311586D01*
X0349101Y0311632D01*
X0349087Y0311679D01*
X0349077Y0311727D01*
X0349071Y0311775D01*
X0349069Y0311824D01*
X0339069Y0311824D02*
X0339071Y0311873D01*
X0339077Y0311921D01*
X0339087Y0311969D01*
X0339101Y0312016D01*
X0339118Y0312062D01*
X0339139Y0312106D01*
X0339164Y0312148D01*
X0339192Y0312188D01*
X0339224Y0312226D01*
X0339258Y0312261D01*
X0339295Y0312293D01*
X0339334Y0312322D01*
X0339376Y0312348D01*
X0339420Y0312370D01*
X0339465Y0312388D01*
X0339512Y0312403D01*
X0339559Y0312414D01*
X0339608Y0312421D01*
X0339657Y0312424D01*
X0339706Y0312423D01*
X0339754Y0312418D01*
X0339803Y0312409D01*
X0339850Y0312396D01*
X0339896Y0312379D01*
X0339940Y0312359D01*
X0339983Y0312335D01*
X0340024Y0312308D01*
X0340062Y0312277D01*
X0340098Y0312244D01*
X0340130Y0312208D01*
X0340160Y0312169D01*
X0340187Y0312128D01*
X0340210Y0312084D01*
X0340229Y0312039D01*
X0340245Y0311993D01*
X0340257Y0311946D01*
X0340265Y0311897D01*
X0340269Y0311848D01*
X0340269Y0311800D01*
X0340265Y0311751D01*
X0340257Y0311702D01*
X0340245Y0311655D01*
X0340229Y0311609D01*
X0340210Y0311564D01*
X0340187Y0311520D01*
X0340160Y0311479D01*
X0340130Y0311440D01*
X0340098Y0311404D01*
X0340062Y0311371D01*
X0340024Y0311340D01*
X0339983Y0311313D01*
X0339940Y0311289D01*
X0339896Y0311269D01*
X0339850Y0311252D01*
X0339803Y0311239D01*
X0339754Y0311230D01*
X0339706Y0311225D01*
X0339657Y0311224D01*
X0339608Y0311227D01*
X0339559Y0311234D01*
X0339512Y0311245D01*
X0339465Y0311260D01*
X0339420Y0311278D01*
X0339376Y0311300D01*
X0339334Y0311326D01*
X0339295Y0311355D01*
X0339258Y0311387D01*
X0339224Y0311422D01*
X0339192Y0311460D01*
X0339164Y0311500D01*
X0339139Y0311542D01*
X0339118Y0311586D01*
X0339101Y0311632D01*
X0339087Y0311679D01*
X0339077Y0311727D01*
X0339071Y0311775D01*
X0339069Y0311824D01*
X0057731Y0311824D02*
X0057733Y0311873D01*
X0057739Y0311921D01*
X0057749Y0311969D01*
X0057763Y0312016D01*
X0057780Y0312062D01*
X0057801Y0312106D01*
X0057826Y0312148D01*
X0057854Y0312188D01*
X0057886Y0312226D01*
X0057920Y0312261D01*
X0057957Y0312293D01*
X0057996Y0312322D01*
X0058038Y0312348D01*
X0058082Y0312370D01*
X0058127Y0312388D01*
X0058174Y0312403D01*
X0058221Y0312414D01*
X0058270Y0312421D01*
X0058319Y0312424D01*
X0058368Y0312423D01*
X0058416Y0312418D01*
X0058465Y0312409D01*
X0058512Y0312396D01*
X0058558Y0312379D01*
X0058602Y0312359D01*
X0058645Y0312335D01*
X0058686Y0312308D01*
X0058724Y0312277D01*
X0058760Y0312244D01*
X0058792Y0312208D01*
X0058822Y0312169D01*
X0058849Y0312128D01*
X0058872Y0312084D01*
X0058891Y0312039D01*
X0058907Y0311993D01*
X0058919Y0311946D01*
X0058927Y0311897D01*
X0058931Y0311848D01*
X0058931Y0311800D01*
X0058927Y0311751D01*
X0058919Y0311702D01*
X0058907Y0311655D01*
X0058891Y0311609D01*
X0058872Y0311564D01*
X0058849Y0311520D01*
X0058822Y0311479D01*
X0058792Y0311440D01*
X0058760Y0311404D01*
X0058724Y0311371D01*
X0058686Y0311340D01*
X0058645Y0311313D01*
X0058602Y0311289D01*
X0058558Y0311269D01*
X0058512Y0311252D01*
X0058465Y0311239D01*
X0058416Y0311230D01*
X0058368Y0311225D01*
X0058319Y0311224D01*
X0058270Y0311227D01*
X0058221Y0311234D01*
X0058174Y0311245D01*
X0058127Y0311260D01*
X0058082Y0311278D01*
X0058038Y0311300D01*
X0057996Y0311326D01*
X0057957Y0311355D01*
X0057920Y0311387D01*
X0057886Y0311422D01*
X0057854Y0311460D01*
X0057826Y0311500D01*
X0057801Y0311542D01*
X0057780Y0311586D01*
X0057763Y0311632D01*
X0057749Y0311679D01*
X0057739Y0311727D01*
X0057733Y0311775D01*
X0057731Y0311824D01*
X0047731Y0311824D02*
X0047733Y0311873D01*
X0047739Y0311921D01*
X0047749Y0311969D01*
X0047763Y0312016D01*
X0047780Y0312062D01*
X0047801Y0312106D01*
X0047826Y0312148D01*
X0047854Y0312188D01*
X0047886Y0312226D01*
X0047920Y0312261D01*
X0047957Y0312293D01*
X0047996Y0312322D01*
X0048038Y0312348D01*
X0048082Y0312370D01*
X0048127Y0312388D01*
X0048174Y0312403D01*
X0048221Y0312414D01*
X0048270Y0312421D01*
X0048319Y0312424D01*
X0048368Y0312423D01*
X0048416Y0312418D01*
X0048465Y0312409D01*
X0048512Y0312396D01*
X0048558Y0312379D01*
X0048602Y0312359D01*
X0048645Y0312335D01*
X0048686Y0312308D01*
X0048724Y0312277D01*
X0048760Y0312244D01*
X0048792Y0312208D01*
X0048822Y0312169D01*
X0048849Y0312128D01*
X0048872Y0312084D01*
X0048891Y0312039D01*
X0048907Y0311993D01*
X0048919Y0311946D01*
X0048927Y0311897D01*
X0048931Y0311848D01*
X0048931Y0311800D01*
X0048927Y0311751D01*
X0048919Y0311702D01*
X0048907Y0311655D01*
X0048891Y0311609D01*
X0048872Y0311564D01*
X0048849Y0311520D01*
X0048822Y0311479D01*
X0048792Y0311440D01*
X0048760Y0311404D01*
X0048724Y0311371D01*
X0048686Y0311340D01*
X0048645Y0311313D01*
X0048602Y0311289D01*
X0048558Y0311269D01*
X0048512Y0311252D01*
X0048465Y0311239D01*
X0048416Y0311230D01*
X0048368Y0311225D01*
X0048319Y0311224D01*
X0048270Y0311227D01*
X0048221Y0311234D01*
X0048174Y0311245D01*
X0048127Y0311260D01*
X0048082Y0311278D01*
X0048038Y0311300D01*
X0047996Y0311326D01*
X0047957Y0311355D01*
X0047920Y0311387D01*
X0047886Y0311422D01*
X0047854Y0311460D01*
X0047826Y0311500D01*
X0047801Y0311542D01*
X0047780Y0311586D01*
X0047763Y0311632D01*
X0047749Y0311679D01*
X0047739Y0311727D01*
X0047733Y0311775D01*
X0047731Y0311824D01*
X0047731Y0146469D02*
X0047733Y0146518D01*
X0047739Y0146566D01*
X0047749Y0146614D01*
X0047763Y0146661D01*
X0047780Y0146707D01*
X0047801Y0146751D01*
X0047826Y0146793D01*
X0047854Y0146833D01*
X0047886Y0146871D01*
X0047920Y0146906D01*
X0047957Y0146938D01*
X0047996Y0146967D01*
X0048038Y0146993D01*
X0048082Y0147015D01*
X0048127Y0147033D01*
X0048174Y0147048D01*
X0048221Y0147059D01*
X0048270Y0147066D01*
X0048319Y0147069D01*
X0048368Y0147068D01*
X0048416Y0147063D01*
X0048465Y0147054D01*
X0048512Y0147041D01*
X0048558Y0147024D01*
X0048602Y0147004D01*
X0048645Y0146980D01*
X0048686Y0146953D01*
X0048724Y0146922D01*
X0048760Y0146889D01*
X0048792Y0146853D01*
X0048822Y0146814D01*
X0048849Y0146773D01*
X0048872Y0146729D01*
X0048891Y0146684D01*
X0048907Y0146638D01*
X0048919Y0146591D01*
X0048927Y0146542D01*
X0048931Y0146493D01*
X0048931Y0146445D01*
X0048927Y0146396D01*
X0048919Y0146347D01*
X0048907Y0146300D01*
X0048891Y0146254D01*
X0048872Y0146209D01*
X0048849Y0146165D01*
X0048822Y0146124D01*
X0048792Y0146085D01*
X0048760Y0146049D01*
X0048724Y0146016D01*
X0048686Y0145985D01*
X0048645Y0145958D01*
X0048602Y0145934D01*
X0048558Y0145914D01*
X0048512Y0145897D01*
X0048465Y0145884D01*
X0048416Y0145875D01*
X0048368Y0145870D01*
X0048319Y0145869D01*
X0048270Y0145872D01*
X0048221Y0145879D01*
X0048174Y0145890D01*
X0048127Y0145905D01*
X0048082Y0145923D01*
X0048038Y0145945D01*
X0047996Y0145971D01*
X0047957Y0146000D01*
X0047920Y0146032D01*
X0047886Y0146067D01*
X0047854Y0146105D01*
X0047826Y0146145D01*
X0047801Y0146187D01*
X0047780Y0146231D01*
X0047763Y0146277D01*
X0047749Y0146324D01*
X0047739Y0146372D01*
X0047733Y0146420D01*
X0047731Y0146469D01*
X0057731Y0146469D02*
X0057733Y0146518D01*
X0057739Y0146566D01*
X0057749Y0146614D01*
X0057763Y0146661D01*
X0057780Y0146707D01*
X0057801Y0146751D01*
X0057826Y0146793D01*
X0057854Y0146833D01*
X0057886Y0146871D01*
X0057920Y0146906D01*
X0057957Y0146938D01*
X0057996Y0146967D01*
X0058038Y0146993D01*
X0058082Y0147015D01*
X0058127Y0147033D01*
X0058174Y0147048D01*
X0058221Y0147059D01*
X0058270Y0147066D01*
X0058319Y0147069D01*
X0058368Y0147068D01*
X0058416Y0147063D01*
X0058465Y0147054D01*
X0058512Y0147041D01*
X0058558Y0147024D01*
X0058602Y0147004D01*
X0058645Y0146980D01*
X0058686Y0146953D01*
X0058724Y0146922D01*
X0058760Y0146889D01*
X0058792Y0146853D01*
X0058822Y0146814D01*
X0058849Y0146773D01*
X0058872Y0146729D01*
X0058891Y0146684D01*
X0058907Y0146638D01*
X0058919Y0146591D01*
X0058927Y0146542D01*
X0058931Y0146493D01*
X0058931Y0146445D01*
X0058927Y0146396D01*
X0058919Y0146347D01*
X0058907Y0146300D01*
X0058891Y0146254D01*
X0058872Y0146209D01*
X0058849Y0146165D01*
X0058822Y0146124D01*
X0058792Y0146085D01*
X0058760Y0146049D01*
X0058724Y0146016D01*
X0058686Y0145985D01*
X0058645Y0145958D01*
X0058602Y0145934D01*
X0058558Y0145914D01*
X0058512Y0145897D01*
X0058465Y0145884D01*
X0058416Y0145875D01*
X0058368Y0145870D01*
X0058319Y0145869D01*
X0058270Y0145872D01*
X0058221Y0145879D01*
X0058174Y0145890D01*
X0058127Y0145905D01*
X0058082Y0145923D01*
X0058038Y0145945D01*
X0057996Y0145971D01*
X0057957Y0146000D01*
X0057920Y0146032D01*
X0057886Y0146067D01*
X0057854Y0146105D01*
X0057826Y0146145D01*
X0057801Y0146187D01*
X0057780Y0146231D01*
X0057763Y0146277D01*
X0057749Y0146324D01*
X0057739Y0146372D01*
X0057733Y0146420D01*
X0057731Y0146469D01*
M02*
