G75*
%MOIN*%
%OFA0B0*%
%FSLAX25Y25*%
%IPPOS*%
%LPD*%
%AMOC8*
5,1,8,0,0,1.08239X$1,22.5*
%
%ADD10C,0.07400*%
%ADD11C,0.16598*%
%ADD12C,0.15024*%
%ADD13OC8,0.05200*%
%ADD14C,0.05937*%
%ADD15R,0.05937X0.05937*%
%ADD16C,0.06600*%
%ADD17C,0.05200*%
%ADD18C,0.03772*%
%ADD19C,0.05740*%
%ADD20C,0.09744*%
%ADD21C,0.07000*%
%ADD22C,0.11811*%
%ADD23C,0.01000*%
%ADD24C,0.03100*%
%ADD25C,0.01600*%
D10*
X0056530Y0031233D03*
X0066530Y0031233D03*
X0076530Y0031233D03*
X0086530Y0031233D03*
X0096530Y0031233D03*
X0096530Y0042233D03*
X0086530Y0042233D03*
X0076530Y0042233D03*
X0066530Y0042233D03*
X0056530Y0042233D03*
X0014550Y0064910D03*
X0013550Y0074910D03*
X0014550Y0084910D03*
X0014424Y0094973D03*
X0013424Y0104973D03*
X0014424Y0114973D03*
X0012294Y0143509D03*
X0013294Y0153509D03*
X0012294Y0163509D03*
X0013294Y0173509D03*
X0012294Y0183509D03*
X0013557Y0211820D03*
X0012557Y0221820D03*
X0013557Y0231820D03*
X0013380Y0241891D03*
X0012380Y0251891D03*
X0013380Y0261891D03*
X0013026Y0293871D03*
X0012026Y0303871D03*
X0013026Y0313871D03*
X0012829Y0323938D03*
X0011829Y0333938D03*
X0012829Y0343938D03*
X0053700Y0382477D03*
X0065100Y0382477D03*
X0099452Y0320198D03*
X0110852Y0320198D03*
X0097278Y0286328D03*
X0087278Y0286328D03*
X0077278Y0286328D03*
X0067278Y0286328D03*
X0057278Y0286328D03*
X0057278Y0275328D03*
X0067278Y0275328D03*
X0077278Y0275328D03*
X0087278Y0275328D03*
X0097278Y0275328D03*
X0096530Y0207548D03*
X0096530Y0196548D03*
X0086530Y0196548D03*
X0076530Y0196548D03*
X0076530Y0207548D03*
X0086530Y0207548D03*
X0066530Y0207548D03*
X0056530Y0207548D03*
X0056530Y0196548D03*
X0066530Y0196548D03*
X0288813Y0042233D03*
X0298813Y0042233D03*
X0308813Y0042233D03*
X0318813Y0042233D03*
X0328813Y0042233D03*
X0328813Y0031233D03*
X0318813Y0031233D03*
X0308813Y0031233D03*
X0298813Y0031233D03*
X0288813Y0031233D03*
X0384424Y0053434D03*
X0383424Y0063434D03*
X0384424Y0073434D03*
X0384514Y0083485D03*
X0383514Y0093485D03*
X0384514Y0103485D03*
X0384369Y0117501D03*
X0383369Y0127501D03*
X0384369Y0137501D03*
X0383369Y0147501D03*
X0384369Y0157501D03*
X0384431Y0171221D03*
X0383431Y0181221D03*
X0384431Y0191221D03*
X0384353Y0201190D03*
X0383353Y0211190D03*
X0384353Y0221190D03*
X0384282Y0235202D03*
X0383282Y0245202D03*
X0384282Y0255202D03*
X0384180Y0265182D03*
X0383180Y0275182D03*
X0384180Y0285182D03*
X0384117Y0299131D03*
X0383117Y0309131D03*
X0384117Y0319131D03*
X0384160Y0329103D03*
X0383160Y0339103D03*
X0384160Y0349103D03*
X0340624Y0258969D03*
X0330624Y0258969D03*
X0320624Y0258969D03*
X0310624Y0258969D03*
X0300624Y0258969D03*
X0300624Y0247969D03*
X0310624Y0247969D03*
X0320624Y0247969D03*
X0330624Y0247969D03*
X0340624Y0247969D03*
X0340624Y0207430D03*
X0330624Y0207430D03*
X0330624Y0196430D03*
X0340624Y0196430D03*
X0320624Y0196430D03*
X0310624Y0196430D03*
X0310624Y0207430D03*
X0320624Y0207430D03*
X0300624Y0207430D03*
X0300624Y0196430D03*
X0300624Y0156446D03*
X0310624Y0156446D03*
X0320624Y0156446D03*
X0330624Y0156446D03*
X0340624Y0156446D03*
X0340624Y0145446D03*
X0330624Y0145446D03*
X0320624Y0145446D03*
X0310624Y0145446D03*
X0300624Y0145446D03*
D11*
X0338794Y0349331D03*
X0239286Y0349331D03*
X0104325Y0349331D03*
D12*
X0123223Y0360552D03*
X0104325Y0373938D03*
X0239286Y0373938D03*
X0258183Y0360552D03*
X0338794Y0373938D03*
X0357691Y0360552D03*
D13*
X0174955Y0277954D03*
X0174955Y0267954D03*
X0178892Y0087166D03*
X0190703Y0082166D03*
X0190703Y0062166D03*
X0178892Y0057166D03*
X0167081Y0057166D03*
X0155270Y0057166D03*
X0155270Y0087166D03*
X0167081Y0087166D03*
D14*
X0171428Y0159524D03*
X0171428Y0169524D03*
X0171428Y0179524D03*
X0171428Y0189524D03*
X0171428Y0199524D03*
X0171428Y0209524D03*
X0181428Y0209524D03*
X0171428Y0219524D03*
X0171428Y0229524D03*
X0171428Y0239524D03*
X0161428Y0239524D03*
X0161428Y0229524D03*
X0161428Y0219524D03*
X0161428Y0209524D03*
X0151428Y0209524D03*
X0141428Y0209524D03*
X0141428Y0219524D03*
X0141428Y0229524D03*
X0141428Y0239524D03*
X0141428Y0249524D03*
X0141428Y0259524D03*
X0141428Y0269524D03*
X0141428Y0279524D03*
X0141428Y0289524D03*
X0141428Y0299524D03*
X0141428Y0309524D03*
X0141428Y0319524D03*
X0141428Y0329524D03*
X0141428Y0339524D03*
X0141428Y0349524D03*
X0151428Y0349524D03*
X0151428Y0339524D03*
X0161428Y0329524D03*
X0161428Y0319524D03*
X0171428Y0319524D03*
X0171428Y0329524D03*
X0171428Y0309524D03*
X0171428Y0299524D03*
X0161428Y0299524D03*
X0161428Y0309524D03*
X0201428Y0309524D03*
X0201428Y0299524D03*
X0201428Y0289524D03*
X0201428Y0279524D03*
X0201428Y0269524D03*
X0201428Y0259524D03*
X0201428Y0249524D03*
X0201428Y0239524D03*
X0201428Y0229524D03*
X0201428Y0219524D03*
X0201428Y0209524D03*
X0191428Y0209524D03*
X0201428Y0199524D03*
X0201428Y0189524D03*
X0201428Y0179524D03*
X0201428Y0169524D03*
X0201428Y0159524D03*
X0161428Y0159524D03*
X0161428Y0169524D03*
X0161428Y0179524D03*
X0161428Y0189524D03*
X0161428Y0199524D03*
X0141428Y0199524D03*
X0141428Y0189524D03*
X0141428Y0179524D03*
X0141428Y0169524D03*
X0141428Y0159524D03*
X0201428Y0319524D03*
X0201428Y0329524D03*
X0201428Y0339524D03*
X0201428Y0349524D03*
X0201428Y0359524D03*
X0201428Y0369524D03*
X0201428Y0379524D03*
X0151428Y0379524D03*
X0141428Y0379524D03*
X0141428Y0389524D03*
X0141428Y0369524D03*
X0141428Y0359524D03*
X0151428Y0359524D03*
D15*
X0201428Y0389524D03*
D16*
X0224010Y0247520D03*
X0234010Y0247520D03*
X0244010Y0247520D03*
X0244010Y0227520D03*
X0234010Y0227520D03*
X0224010Y0227520D03*
X0125900Y0227520D03*
X0115900Y0227520D03*
X0105900Y0227520D03*
X0105900Y0247520D03*
X0115900Y0247520D03*
X0125900Y0247520D03*
X0125900Y0097914D03*
X0115900Y0097914D03*
X0105900Y0097914D03*
X0105900Y0077914D03*
X0115900Y0077914D03*
X0125900Y0077914D03*
X0224010Y0077914D03*
X0234010Y0077914D03*
X0244010Y0077914D03*
X0244010Y0097914D03*
X0234010Y0097914D03*
X0224010Y0097914D03*
D17*
X0224480Y0146812D02*
X0229680Y0146812D01*
X0229680Y0156812D02*
X0224480Y0156812D01*
X0224480Y0166812D02*
X0229680Y0166812D01*
X0229680Y0176812D02*
X0224480Y0176812D01*
X0259680Y0176812D02*
X0264880Y0176812D01*
X0264880Y0166812D02*
X0259680Y0166812D01*
X0259680Y0156812D02*
X0264880Y0156812D01*
X0264880Y0146812D02*
X0259680Y0146812D01*
D18*
X0285983Y0290513D03*
X0295983Y0290513D03*
D19*
X0325983Y0290513D03*
X0355983Y0290513D03*
D20*
X0174955Y0145788D03*
X0174955Y0127284D03*
X0174955Y0108780D03*
D21*
X0283065Y0074135D03*
X0293065Y0074135D03*
X0303065Y0074135D03*
X0066845Y0074135D03*
X0056845Y0074135D03*
X0046845Y0074135D03*
X0046845Y0318229D03*
X0056845Y0318229D03*
X0066845Y0318229D03*
X0283065Y0318229D03*
X0293065Y0318229D03*
X0303065Y0318229D03*
D22*
X0311963Y0347757D03*
X0274168Y0347757D03*
X0075742Y0347757D03*
X0037947Y0347757D03*
X0037947Y0103662D03*
X0075742Y0103662D03*
X0274168Y0103662D03*
X0311963Y0103662D03*
D23*
X0040527Y0031300D02*
X0005727Y0066100D01*
X0005727Y0176900D01*
X0012127Y0183300D01*
X0012294Y0183509D01*
X0012527Y0183700D01*
X0012527Y0202100D01*
X0024127Y0202100D01*
X0038527Y0187700D01*
X0060927Y0187700D01*
X0062927Y0189700D01*
X0062927Y0192100D01*
X0058527Y0196500D01*
X0056927Y0196500D01*
X0056530Y0196548D01*
X0054527Y0202100D02*
X0061327Y0202100D01*
X0066527Y0196900D01*
X0066530Y0196548D01*
X0059727Y0190900D02*
X0054527Y0190900D01*
X0048127Y0197300D01*
X0048127Y0218100D01*
X0051327Y0214100D02*
X0051327Y0205300D01*
X0054527Y0202100D01*
X0053727Y0225300D02*
X0036527Y0225300D01*
X0013557Y0211820D02*
X0013327Y0212100D01*
X0006927Y0218500D01*
X0006927Y0232900D01*
X0013327Y0239300D01*
X0013327Y0241700D01*
X0013380Y0241891D01*
X0013557Y0211820D02*
X0013327Y0211700D01*
X0012527Y0210900D01*
X0012527Y0202100D01*
X0062927Y0156500D02*
X0049727Y0143300D01*
X0012527Y0143300D01*
X0012294Y0143509D01*
X0014527Y0115300D02*
X0014424Y0114973D01*
X0014527Y0115300D02*
X0024127Y0115300D01*
X0063727Y0154900D01*
X0073727Y0154900D01*
X0078527Y0159700D01*
X0141327Y0159700D01*
X0141428Y0159524D01*
X0142527Y0164100D02*
X0080527Y0164100D01*
X0072927Y0156500D01*
X0062927Y0156500D01*
X0073727Y0166100D02*
X0102127Y0194500D01*
X0102127Y0215700D01*
X0108527Y0213700D02*
X0080927Y0241300D01*
X0078527Y0241300D01*
X0080527Y0234500D02*
X0050127Y0264900D01*
X0050127Y0275700D01*
X0056927Y0282500D01*
X0056927Y0286100D01*
X0057278Y0286328D01*
X0067327Y0275700D02*
X0067278Y0275328D01*
X0067327Y0275700D02*
X0072527Y0280900D01*
X0099727Y0280900D01*
X0112927Y0294100D01*
X0142527Y0294100D01*
X0157727Y0309300D01*
X0161327Y0309300D01*
X0161428Y0309524D01*
X0166127Y0308500D02*
X0166127Y0311300D01*
X0163327Y0314100D01*
X0153327Y0314100D01*
X0143327Y0304100D01*
X0104927Y0304100D01*
X0094127Y0293300D01*
X0087278Y0275328D02*
X0087327Y0275300D01*
X0093727Y0268900D01*
X0118127Y0268900D01*
X0126127Y0264900D02*
X0143327Y0264900D01*
X0151727Y0273300D01*
X0151727Y0279300D01*
X0141727Y0289300D01*
X0141428Y0289524D01*
X0146927Y0294100D02*
X0153327Y0287700D01*
X0153327Y0264900D01*
X0143327Y0254900D01*
X0140127Y0254900D01*
X0135327Y0250100D01*
X0135327Y0229300D01*
X0128927Y0224500D02*
X0126127Y0227300D01*
X0125900Y0227520D01*
X0125727Y0227700D01*
X0116127Y0227700D01*
X0115900Y0227520D01*
X0116927Y0237300D02*
X0116927Y0239700D01*
X0110927Y0245700D01*
X0110927Y0249700D01*
X0126127Y0264900D01*
X0129327Y0259300D02*
X0120927Y0250900D01*
X0129327Y0259300D02*
X0141327Y0259300D01*
X0141428Y0259524D01*
X0141727Y0249700D02*
X0141428Y0249524D01*
X0141727Y0249300D01*
X0146127Y0244900D01*
X0146127Y0226100D01*
X0144927Y0226100D01*
X0143327Y0224500D01*
X0128927Y0224500D01*
X0127327Y0221300D02*
X0128127Y0220500D01*
X0128127Y0198100D01*
X0128927Y0193700D02*
X0140127Y0204900D01*
X0143327Y0204900D01*
X0146927Y0208500D01*
X0146927Y0222500D01*
X0154527Y0230100D01*
X0154527Y0253700D01*
X0173727Y0272900D01*
X0182127Y0272900D01*
X0185327Y0271700D02*
X0166127Y0252500D01*
X0162527Y0252500D01*
X0156127Y0246100D01*
X0156127Y0193300D01*
X0154927Y0192100D01*
X0154927Y0179700D01*
X0160527Y0174100D01*
X0163327Y0174100D01*
X0166127Y0171300D01*
X0166127Y0167700D01*
X0162527Y0164100D01*
X0159327Y0164100D01*
X0154927Y0159700D01*
X0154927Y0154500D01*
X0100927Y0100500D01*
X0100927Y0090900D01*
X0103327Y0088500D01*
X0106927Y0087700D02*
X0088127Y0068900D01*
X0052127Y0068900D01*
X0046927Y0074100D01*
X0046845Y0074135D01*
X0044927Y0085300D02*
X0031727Y0085300D01*
X0031727Y0072500D01*
X0034127Y0070100D01*
X0034527Y0070100D01*
X0044127Y0060500D01*
X0056127Y0060500D01*
X0074127Y0042500D01*
X0076527Y0042500D01*
X0076530Y0042233D01*
X0086530Y0042233D02*
X0086927Y0042500D01*
X0094927Y0050500D01*
X0094927Y0056500D01*
X0098127Y0059700D01*
X0131727Y0059700D01*
X0142527Y0070500D01*
X0142527Y0094100D01*
X0145727Y0098100D02*
X0145727Y0071300D01*
X0132527Y0058100D01*
X0098927Y0058100D01*
X0096927Y0056100D01*
X0096927Y0042500D01*
X0096530Y0042233D01*
X0100127Y0046100D02*
X0102127Y0044100D01*
X0102127Y0040100D01*
X0098527Y0036500D01*
X0092127Y0036500D01*
X0086927Y0031300D01*
X0086530Y0031233D01*
X0096530Y0031233D02*
X0096927Y0031300D01*
X0117727Y0052100D01*
X0117727Y0054500D01*
X0100127Y0054900D02*
X0100127Y0046100D01*
X0091727Y0056900D02*
X0086127Y0062500D01*
X0096927Y0072900D02*
X0110927Y0072900D01*
X0115727Y0077700D01*
X0115900Y0077914D01*
X0116127Y0078100D01*
X0125727Y0078100D01*
X0125900Y0077914D01*
X0132927Y0069700D02*
X0132927Y0116500D01*
X0120927Y0118100D02*
X0120927Y0096100D01*
X0112527Y0087700D01*
X0106927Y0087700D01*
X0100127Y0104100D02*
X0131327Y0135300D01*
X0131327Y0137700D01*
X0130927Y0138100D01*
X0130927Y0139700D01*
X0128127Y0136500D02*
X0122927Y0131300D01*
X0096927Y0131300D01*
X0112527Y0139700D02*
X0112527Y0148500D01*
X0111727Y0152100D02*
X0044927Y0085300D01*
X0031727Y0085300D02*
X0014927Y0085300D01*
X0014550Y0084910D01*
X0014550Y0064910D02*
X0014927Y0064900D01*
X0032527Y0064900D01*
X0054927Y0042500D01*
X0056527Y0042500D01*
X0056530Y0042233D01*
X0056527Y0031300D02*
X0056530Y0031233D01*
X0056927Y0030900D01*
X0058927Y0030900D01*
X0068127Y0021700D01*
X0280127Y0021700D01*
X0283327Y0024900D02*
X0205327Y0024900D01*
X0168927Y0061300D01*
X0146127Y0061300D01*
X0167081Y0087166D02*
X0167327Y0087700D01*
X0167327Y0102500D01*
X0143727Y0126100D01*
X0143727Y0136100D01*
X0146927Y0132900D02*
X0146927Y0125300D01*
X0171727Y0100500D01*
X0219727Y0100500D01*
X0222127Y0102900D01*
X0228927Y0102900D01*
X0233727Y0098100D01*
X0234010Y0097914D01*
X0238527Y0106900D02*
X0223727Y0106900D01*
X0218927Y0102100D01*
X0172527Y0102100D01*
X0165327Y0109300D01*
X0165327Y0145300D01*
X0177727Y0157700D01*
X0177727Y0172100D01*
X0176927Y0172900D01*
X0176927Y0180500D01*
X0173327Y0184100D01*
X0160127Y0184100D01*
X0156527Y0187700D01*
X0156527Y0191300D01*
X0159727Y0194500D01*
X0163327Y0194500D01*
X0166127Y0197300D01*
X0166127Y0210900D01*
X0171327Y0216100D01*
X0171327Y0219300D01*
X0171428Y0219524D01*
X0173327Y0224100D02*
X0169327Y0224100D01*
X0164927Y0219700D01*
X0161727Y0219700D01*
X0161428Y0219524D01*
X0173327Y0224100D02*
X0176927Y0220500D01*
X0176927Y0196500D01*
X0180127Y0193300D01*
X0173327Y0189300D02*
X0189727Y0172900D01*
X0189727Y0152500D01*
X0200927Y0141300D01*
X0215327Y0141300D01*
X0210127Y0127300D02*
X0229327Y0146500D01*
X0229680Y0146812D01*
X0219327Y0158100D02*
X0223727Y0162500D01*
X0233327Y0162500D01*
X0249727Y0178900D01*
X0255327Y0177700D02*
X0248527Y0184500D01*
X0246527Y0184500D01*
X0255327Y0177700D02*
X0255327Y0175300D01*
X0259327Y0171300D01*
X0267327Y0171300D01*
X0274127Y0164500D01*
X0275727Y0158900D02*
X0298127Y0158900D01*
X0300527Y0156500D01*
X0300624Y0156446D01*
X0298527Y0150900D02*
X0325327Y0150900D01*
X0330527Y0145700D01*
X0330624Y0145446D01*
X0330624Y0156446D02*
X0330527Y0156500D01*
X0330527Y0168100D01*
X0324527Y0174100D01*
X0278527Y0174100D01*
X0264927Y0187700D01*
X0234127Y0187700D01*
X0230127Y0191700D02*
X0227727Y0194100D01*
X0200527Y0194100D01*
X0198527Y0196100D01*
X0196927Y0196100D01*
X0201428Y0199524D02*
X0201727Y0199700D01*
X0296527Y0199700D01*
X0298527Y0201700D01*
X0324927Y0201700D01*
X0330527Y0207300D01*
X0330624Y0207430D01*
X0327327Y0221300D02*
X0342527Y0221300D01*
X0357327Y0206500D01*
X0357327Y0186900D01*
X0347727Y0177300D01*
X0347727Y0176900D01*
X0350127Y0174500D01*
X0350127Y0117700D01*
X0330927Y0117700D01*
X0303327Y0145300D01*
X0300927Y0145300D01*
X0300624Y0145446D01*
X0298527Y0150900D02*
X0292127Y0144500D01*
X0276127Y0144500D01*
X0251727Y0120100D01*
X0248527Y0121300D02*
X0251727Y0124500D01*
X0251727Y0144900D01*
X0258127Y0151300D01*
X0265727Y0151300D01*
X0285327Y0170900D01*
X0295727Y0170900D01*
X0296527Y0188500D02*
X0268527Y0188500D01*
X0255327Y0206100D02*
X0293727Y0244500D01*
X0293727Y0259700D01*
X0298527Y0264500D01*
X0325327Y0264500D01*
X0330527Y0259300D01*
X0330624Y0258969D01*
X0330624Y0247969D02*
X0330527Y0247700D01*
X0287327Y0204500D01*
X0247727Y0204500D01*
X0242927Y0209300D01*
X0201727Y0209300D01*
X0201428Y0209524D01*
X0201727Y0219300D02*
X0201428Y0219524D01*
X0201727Y0219300D02*
X0218527Y0219300D01*
X0226927Y0210900D01*
X0243727Y0210900D01*
X0248527Y0206100D01*
X0255327Y0206100D01*
X0249727Y0209300D02*
X0256127Y0215700D01*
X0256127Y0236500D01*
X0285727Y0266100D01*
X0282527Y0258500D02*
X0282527Y0245700D01*
X0295327Y0245700D02*
X0295327Y0253700D01*
X0300527Y0258900D01*
X0300624Y0258969D01*
X0295327Y0245700D02*
X0300527Y0240500D01*
X0300527Y0223300D01*
X0300527Y0196500D02*
X0300624Y0196430D01*
X0300927Y0196100D01*
X0303327Y0196100D01*
X0322527Y0176900D01*
X0347727Y0176900D01*
X0370527Y0151300D02*
X0370527Y0117700D01*
X0350127Y0117700D01*
X0370527Y0117700D02*
X0377727Y0117700D01*
X0377727Y0091300D01*
X0384127Y0084900D01*
X0384127Y0083700D01*
X0384514Y0083485D01*
X0390127Y0051700D02*
X0377727Y0039300D01*
X0344527Y0039300D01*
X0330927Y0025700D01*
X0314127Y0025700D01*
X0308927Y0030900D01*
X0308813Y0031233D01*
X0298527Y0024100D02*
X0340127Y0024100D01*
X0352127Y0036100D01*
X0363327Y0022500D02*
X0290127Y0022500D01*
X0239727Y0072900D01*
X0228927Y0072900D01*
X0224127Y0077700D01*
X0224010Y0077914D01*
X0234010Y0077914D02*
X0234127Y0078100D01*
X0243727Y0078100D01*
X0244010Y0077914D01*
X0244127Y0077700D01*
X0279327Y0042500D01*
X0288527Y0042500D01*
X0288813Y0042233D01*
X0288813Y0031233D02*
X0288927Y0030900D01*
X0291727Y0030900D01*
X0298527Y0024100D01*
X0318527Y0042500D02*
X0318813Y0042233D01*
X0318527Y0042500D02*
X0313327Y0047700D01*
X0302127Y0047700D01*
X0277727Y0072100D01*
X0277727Y0076500D01*
X0235327Y0118900D01*
X0174127Y0118900D01*
X0168527Y0124500D01*
X0168527Y0130100D01*
X0181727Y0143300D01*
X0181727Y0148100D01*
X0180127Y0149700D01*
X0180127Y0178100D01*
X0176127Y0171300D02*
X0176127Y0167700D01*
X0172527Y0164100D01*
X0169327Y0164100D01*
X0166127Y0160900D01*
X0166127Y0148500D01*
X0162127Y0144500D01*
X0162127Y0114500D01*
X0166927Y0123700D02*
X0166927Y0137700D01*
X0174927Y0145700D01*
X0174955Y0145788D01*
X0175327Y0127300D02*
X0174955Y0127284D01*
X0175327Y0127300D02*
X0210127Y0127300D01*
X0200127Y0114100D02*
X0178927Y0114100D01*
X0175727Y0117300D01*
X0173327Y0117300D01*
X0166927Y0123700D01*
X0145727Y0147700D02*
X0153327Y0155300D01*
X0153327Y0162500D01*
X0155727Y0164900D01*
X0161327Y0169300D02*
X0161428Y0169524D01*
X0161327Y0169300D02*
X0147727Y0169300D01*
X0142527Y0164100D01*
X0135327Y0167300D02*
X0135327Y0182900D01*
X0118527Y0199700D01*
X0118527Y0206100D01*
X0054527Y0270100D01*
X0053327Y0270100D01*
X0034527Y0291300D02*
X0019327Y0291300D01*
X0016927Y0293700D01*
X0013327Y0293700D01*
X0013026Y0293871D01*
X0034527Y0314100D02*
X0034527Y0316500D01*
X0038527Y0320500D01*
X0040927Y0323700D02*
X0046527Y0318100D01*
X0046845Y0318229D01*
X0040927Y0323700D02*
X0012927Y0323700D01*
X0012829Y0323938D01*
X0034527Y0314100D02*
X0039727Y0308900D01*
X0039727Y0307700D01*
X0094127Y0325700D02*
X0099327Y0320500D01*
X0099452Y0320198D01*
X0094127Y0325700D02*
X0094127Y0376500D01*
X0106927Y0389300D01*
X0141327Y0389300D01*
X0141428Y0389524D01*
X0104527Y0374100D02*
X0104325Y0373938D01*
X0104527Y0374100D02*
X0186127Y0374100D01*
X0201327Y0389300D01*
X0201428Y0389524D01*
X0201727Y0369700D02*
X0201428Y0369524D01*
X0201727Y0369700D02*
X0215727Y0369700D01*
X0233327Y0387300D01*
X0312527Y0387300D01*
X0338927Y0360900D01*
X0343727Y0360900D01*
X0371727Y0332900D01*
X0371727Y0293700D01*
X0374527Y0290900D01*
X0386127Y0290900D01*
X0391727Y0285300D01*
X0391727Y0050900D01*
X0363327Y0022500D01*
X0390127Y0051700D02*
X0390127Y0223300D01*
X0386527Y0226900D01*
X0372927Y0226900D01*
X0384282Y0235202D02*
X0384527Y0235300D01*
X0389727Y0240500D01*
X0389727Y0257700D01*
X0384527Y0262900D01*
X0384527Y0264900D01*
X0384180Y0265182D01*
X0355983Y0290513D02*
X0355727Y0290900D01*
X0355727Y0346500D01*
X0342927Y0359300D01*
X0302127Y0359300D01*
X0247727Y0304900D01*
X0192527Y0304900D01*
X0173327Y0324100D01*
X0159327Y0324100D01*
X0156127Y0320900D01*
X0156127Y0319300D01*
X0151327Y0314500D01*
X0139327Y0314500D01*
X0104527Y0349300D01*
X0104325Y0349331D01*
X0161428Y0319524D02*
X0161727Y0319300D01*
X0165327Y0319300D01*
X0170527Y0314100D01*
X0173327Y0314100D01*
X0191727Y0295700D01*
X0191727Y0262900D01*
X0200527Y0254100D01*
X0203327Y0254100D01*
X0222927Y0234500D01*
X0222927Y0228500D01*
X0223727Y0227700D01*
X0224010Y0227520D01*
X0216127Y0224100D02*
X0220927Y0219300D01*
X0248527Y0219300D01*
X0249727Y0220500D01*
X0244010Y0227520D02*
X0243727Y0227700D01*
X0234127Y0227700D01*
X0234010Y0227520D01*
X0216127Y0224100D02*
X0200527Y0224100D01*
X0180527Y0244100D01*
X0169327Y0244100D01*
X0164927Y0239700D01*
X0161727Y0239700D01*
X0161428Y0239524D01*
X0171428Y0239524D02*
X0171727Y0239300D01*
X0171727Y0235700D01*
X0186927Y0220500D01*
X0186927Y0206100D01*
X0191327Y0201700D01*
X0173327Y0189300D02*
X0171727Y0189300D01*
X0171428Y0189524D01*
X0171428Y0179524D02*
X0171727Y0179300D01*
X0171727Y0175700D01*
X0176127Y0171300D01*
X0161428Y0159524D02*
X0161327Y0159300D01*
X0161327Y0158500D01*
X0120927Y0118100D01*
X0116927Y0148900D02*
X0133327Y0148900D01*
X0134527Y0147700D01*
X0145727Y0147700D01*
X0135727Y0150900D02*
X0119327Y0150900D01*
X0118127Y0152100D01*
X0111727Y0152100D01*
X0112127Y0167300D02*
X0126927Y0167300D01*
X0130127Y0170500D01*
X0130127Y0183700D01*
X0124127Y0178900D02*
X0124127Y0189700D01*
X0133727Y0190500D02*
X0133727Y0191700D01*
X0141327Y0199300D01*
X0141428Y0199524D01*
X0126927Y0171700D02*
X0108527Y0190100D01*
X0108527Y0213700D01*
X0105327Y0190900D02*
X0115327Y0180900D01*
X0115327Y0178900D01*
X0141727Y0249700D02*
X0169727Y0277700D01*
X0174927Y0277700D01*
X0174955Y0277954D01*
X0175327Y0278100D01*
X0176127Y0278900D01*
X0176127Y0288100D01*
X0177327Y0291300D02*
X0173327Y0291300D01*
X0165327Y0299300D01*
X0161727Y0299300D01*
X0161428Y0299524D01*
X0169727Y0304900D02*
X0166127Y0308500D01*
X0169727Y0304900D02*
X0172527Y0304900D01*
X0186927Y0290500D01*
X0186927Y0257700D01*
X0201327Y0243300D01*
X0201327Y0239700D01*
X0201428Y0239524D01*
X0201727Y0249300D02*
X0201428Y0249524D01*
X0201727Y0249300D02*
X0216927Y0234100D01*
X0229727Y0196500D02*
X0300527Y0196500D01*
X0297727Y0191700D02*
X0301327Y0188100D01*
X0306927Y0188100D01*
X0297727Y0191700D02*
X0230127Y0191700D01*
X0229680Y0176812D02*
X0229327Y0176500D01*
X0215327Y0176500D01*
X0203327Y0164500D01*
X0196927Y0164500D01*
X0229680Y0166812D02*
X0229727Y0166900D01*
X0233327Y0170500D01*
X0236927Y0170500D01*
X0245327Y0151300D02*
X0245327Y0119300D01*
X0282127Y0082500D01*
X0302127Y0082500D01*
X0308527Y0076100D01*
X0308527Y0069700D01*
X0296527Y0057700D01*
X0310127Y0050900D02*
X0310127Y0076900D01*
X0302927Y0084100D01*
X0282927Y0084100D01*
X0248527Y0118500D01*
X0248527Y0121300D01*
X0248527Y0127700D02*
X0248527Y0152100D01*
X0249327Y0152900D01*
X0259727Y0146900D02*
X0259680Y0146812D01*
X0259727Y0146900D02*
X0263727Y0146900D01*
X0275727Y0158900D01*
X0310527Y0133700D02*
X0296927Y0120100D01*
X0256127Y0120100D01*
X0190703Y0062166D02*
X0190527Y0062100D01*
X0185727Y0057300D01*
X0178927Y0057300D01*
X0178892Y0057166D01*
X0178892Y0087166D02*
X0178527Y0087300D01*
X0167327Y0087300D01*
X0167081Y0087166D01*
X0056527Y0031300D02*
X0040527Y0031300D01*
X0265727Y0220900D02*
X0265727Y0232100D01*
X0260927Y0282100D02*
X0304127Y0282100D01*
X0312927Y0290900D01*
X0325983Y0290513D02*
X0326127Y0290900D01*
X0326127Y0336900D01*
X0338527Y0349300D01*
X0338794Y0349331D01*
X0322927Y0327300D02*
X0294527Y0327300D01*
X0285727Y0318500D01*
X0283327Y0318500D01*
X0283065Y0318229D01*
X0277727Y0320100D02*
X0287727Y0330100D01*
X0287727Y0340500D01*
X0277727Y0320100D02*
X0277727Y0308100D01*
X0287327Y0294100D02*
X0250927Y0294100D01*
X0287327Y0294100D02*
X0290527Y0290900D01*
X0295727Y0290900D01*
X0295983Y0290513D01*
X0254127Y0334500D02*
X0254127Y0348900D01*
X0239327Y0363700D01*
X0239327Y0373700D01*
X0239286Y0373938D01*
X0177327Y0291300D02*
X0185327Y0283300D01*
X0185327Y0271700D01*
X0156927Y0270900D02*
X0156527Y0270500D01*
X0156927Y0270900D02*
X0156927Y0288100D01*
X0370527Y0151300D02*
X0384127Y0164900D01*
X0384127Y0170900D01*
X0384431Y0171221D01*
X0384127Y0171300D01*
X0384127Y0172500D01*
X0377727Y0178900D01*
X0377727Y0194500D01*
X0384127Y0200900D01*
X0384353Y0201190D01*
X0384127Y0117700D02*
X0377727Y0117700D01*
X0384127Y0117700D02*
X0384369Y0117501D01*
X0384117Y0299131D02*
X0384127Y0299300D01*
X0384127Y0302500D01*
X0389727Y0308100D01*
X0389727Y0323700D01*
X0384527Y0328900D01*
X0384160Y0329103D01*
D24*
X0352127Y0330900D03*
X0334927Y0315300D03*
X0329727Y0310100D03*
X0340927Y0298900D03*
X0344527Y0282900D03*
X0333327Y0265300D03*
X0309327Y0278100D03*
X0312927Y0290900D03*
X0285727Y0266100D03*
X0278927Y0264500D03*
X0282527Y0258500D03*
X0282527Y0245700D03*
X0265727Y0232100D03*
X0265727Y0220900D03*
X0249727Y0220500D03*
X0238927Y0214500D03*
X0249727Y0209300D03*
X0230127Y0205700D03*
X0229727Y0196500D03*
X0234127Y0187700D03*
X0246527Y0184500D03*
X0249727Y0178900D03*
X0236927Y0170500D03*
X0245327Y0151300D03*
X0249327Y0152900D03*
X0248527Y0127700D03*
X0251727Y0120100D03*
X0256127Y0120100D03*
X0238527Y0106900D03*
X0215327Y0141300D03*
X0216127Y0145700D03*
X0219327Y0158100D03*
X0196927Y0164500D03*
X0193327Y0153700D03*
X0189727Y0130900D03*
X0193327Y0123700D03*
X0200127Y0114100D03*
X0162127Y0114500D03*
X0145727Y0098100D03*
X0142527Y0094100D03*
X0132927Y0116500D03*
X0133727Y0120900D03*
X0124927Y0117300D03*
X0128127Y0136500D03*
X0130927Y0139700D03*
X0135727Y0150900D03*
X0147727Y0154500D03*
X0155727Y0164900D03*
X0135327Y0167300D03*
X0126927Y0171700D03*
X0124127Y0178900D03*
X0130127Y0183700D03*
X0133727Y0190500D03*
X0128927Y0193700D03*
X0128127Y0198100D03*
X0124127Y0189700D03*
X0114927Y0188900D03*
X0105327Y0190900D03*
X0110927Y0179700D03*
X0115327Y0178900D03*
X0112127Y0167300D03*
X0108127Y0153300D03*
X0112527Y0148500D03*
X0116927Y0148900D03*
X0112527Y0139700D03*
X0103327Y0148500D03*
X0096927Y0131300D03*
X0073327Y0151300D03*
X0073727Y0166100D03*
X0059727Y0190900D03*
X0051327Y0214100D03*
X0048127Y0218100D03*
X0040927Y0212900D03*
X0033727Y0210900D03*
X0026527Y0204500D03*
X0022927Y0198500D03*
X0026527Y0183700D03*
X0019327Y0178100D03*
X0020127Y0172100D03*
X0027327Y0164900D03*
X0023727Y0150900D03*
X0021727Y0146900D03*
X0046927Y0149700D03*
X0100127Y0104100D03*
X0103327Y0088500D03*
X0096927Y0072900D03*
X0086127Y0062500D03*
X0091727Y0056900D03*
X0100127Y0054900D03*
X0117727Y0054500D03*
X0132927Y0069700D03*
X0146127Y0061300D03*
X0081327Y0048500D03*
X0146927Y0132900D03*
X0143727Y0136100D03*
X0180127Y0178100D03*
X0180127Y0193300D03*
X0191327Y0201700D03*
X0196927Y0196100D03*
X0216927Y0234100D03*
X0197727Y0264500D03*
X0195327Y0270500D03*
X0182127Y0272900D03*
X0176127Y0288100D03*
X0156927Y0288100D03*
X0146927Y0294100D03*
X0148127Y0274500D03*
X0156527Y0270500D03*
X0163727Y0248900D03*
X0186127Y0247700D03*
X0186527Y0253300D03*
X0195327Y0294500D03*
X0235727Y0338100D03*
X0254127Y0334500D03*
X0274927Y0336900D03*
X0287727Y0340500D03*
X0277727Y0308100D03*
X0250927Y0294100D03*
X0260927Y0282100D03*
X0300527Y0223300D03*
X0311727Y0224100D03*
X0327327Y0221300D03*
X0306927Y0188100D03*
X0296527Y0188500D03*
X0295727Y0170900D03*
X0276927Y0155300D03*
X0281727Y0148100D03*
X0274127Y0164500D03*
X0268527Y0188500D03*
X0324127Y0169700D03*
X0346527Y0173300D03*
X0353727Y0166100D03*
X0350127Y0184500D03*
X0363327Y0212100D03*
X0368927Y0224500D03*
X0372927Y0226900D03*
X0375327Y0294900D03*
X0322927Y0327300D03*
X0234527Y0383700D03*
X0158927Y0344100D03*
X0152527Y0320500D03*
X0131327Y0327300D03*
X0116927Y0324900D03*
X0106527Y0297300D03*
X0099327Y0293700D03*
X0094127Y0293300D03*
X0081327Y0298500D03*
X0085327Y0307700D03*
X0072527Y0314900D03*
X0041327Y0289700D03*
X0034527Y0291300D03*
X0027327Y0298500D03*
X0020527Y0294900D03*
X0039727Y0307700D03*
X0038127Y0315300D03*
X0038527Y0320500D03*
X0049727Y0280100D03*
X0053327Y0270100D03*
X0040927Y0271300D03*
X0033727Y0268100D03*
X0014927Y0268500D03*
X0036527Y0225300D03*
X0026527Y0218100D03*
X0053727Y0225300D03*
X0078527Y0241300D03*
X0080527Y0234500D03*
X0102127Y0215700D03*
X0114927Y0203700D03*
X0127327Y0221300D03*
X0135327Y0229300D03*
X0146127Y0226100D03*
X0120927Y0250900D03*
X0116927Y0237300D03*
X0118127Y0268900D03*
X0110927Y0287300D03*
X0306127Y0085700D03*
X0296527Y0057700D03*
X0310127Y0050900D03*
X0283327Y0024900D03*
X0280127Y0021700D03*
X0272927Y0053700D03*
X0238527Y0069300D03*
X0310527Y0133700D03*
X0374127Y0143300D03*
X0352127Y0036100D03*
D25*
X0328813Y0042233D02*
X0328527Y0042500D01*
X0328527Y0062100D01*
X0339727Y0073300D01*
X0384127Y0073300D01*
X0384424Y0073434D01*
X0328527Y0062100D02*
X0306127Y0084500D01*
X0306127Y0085700D01*
X0292927Y0074500D02*
X0293065Y0074135D01*
X0292927Y0074500D02*
X0287727Y0079700D01*
X0281327Y0079700D01*
X0237327Y0123700D01*
X0193327Y0123700D01*
X0189727Y0130900D02*
X0210127Y0130900D01*
X0219727Y0140500D01*
X0219727Y0148900D01*
X0222527Y0151700D01*
X0231327Y0151700D01*
X0236127Y0156500D01*
X0259327Y0156500D01*
X0259680Y0156812D01*
X0276927Y0155300D02*
X0276927Y0152900D01*
X0281727Y0148100D01*
X0310624Y0156446D02*
X0310927Y0156500D01*
X0324127Y0169700D01*
X0340927Y0148500D02*
X0346527Y0154100D01*
X0346527Y0173300D01*
X0353727Y0179700D02*
X0353727Y0166100D01*
X0353727Y0179700D02*
X0366927Y0192900D01*
X0366927Y0220500D01*
X0367327Y0220900D01*
X0384127Y0220900D01*
X0384353Y0221190D01*
X0368927Y0224500D02*
X0368927Y0239700D01*
X0384127Y0254900D01*
X0384282Y0255202D01*
X0383180Y0275182D02*
X0382927Y0275300D01*
X0380927Y0277300D01*
X0332127Y0277300D01*
X0320327Y0289100D01*
X0309327Y0278100D01*
X0320327Y0289100D02*
X0303327Y0306100D01*
X0303327Y0318100D01*
X0303065Y0318229D01*
X0293065Y0318229D02*
X0292927Y0318100D01*
X0272527Y0297700D01*
X0206927Y0297700D01*
X0203727Y0294500D01*
X0195327Y0294500D01*
X0199327Y0274500D02*
X0337327Y0274500D01*
X0365327Y0246500D01*
X0365327Y0222900D01*
X0367327Y0220900D01*
X0363327Y0212100D02*
X0350527Y0224900D01*
X0325727Y0224900D01*
X0324927Y0224100D01*
X0311727Y0224100D01*
X0318127Y0213300D02*
X0342927Y0213300D01*
X0350127Y0206100D01*
X0350127Y0184500D01*
X0318127Y0213300D02*
X0312527Y0207700D01*
X0310927Y0207700D01*
X0310624Y0207430D01*
X0340624Y0247969D02*
X0340927Y0248100D01*
X0346527Y0253700D01*
X0346527Y0261300D01*
X0342527Y0265300D01*
X0333327Y0265300D01*
X0344527Y0282900D02*
X0382127Y0282900D01*
X0384127Y0284900D01*
X0384180Y0285182D01*
X0375327Y0294900D02*
X0375327Y0356500D01*
X0341727Y0390100D01*
X0232527Y0390100D01*
X0216927Y0374500D01*
X0199327Y0374500D01*
X0196127Y0371300D01*
X0180927Y0371300D01*
X0154127Y0344500D01*
X0139327Y0344500D01*
X0136127Y0341300D01*
X0136127Y0327700D01*
X0141327Y0322500D01*
X0141327Y0319700D01*
X0141428Y0319524D01*
X0141428Y0329524D02*
X0141727Y0329700D01*
X0150527Y0329700D01*
X0162127Y0341300D01*
X0196127Y0341300D01*
X0199327Y0344500D01*
X0229327Y0344500D01*
X0235727Y0338100D01*
X0248927Y0334500D02*
X0252527Y0330900D01*
X0268927Y0330900D01*
X0274927Y0336900D01*
X0248927Y0334500D02*
X0159327Y0334500D01*
X0152527Y0327700D01*
X0152527Y0320500D01*
X0131327Y0327300D02*
X0131327Y0346500D01*
X0141327Y0356500D01*
X0141327Y0359300D01*
X0141428Y0359524D01*
X0158927Y0344100D02*
X0178927Y0344100D01*
X0199327Y0364500D01*
X0215327Y0364500D01*
X0234527Y0383700D01*
X0329727Y0310100D02*
X0334927Y0315300D01*
X0340927Y0319700D02*
X0352127Y0330900D01*
X0340927Y0319700D02*
X0340927Y0298900D01*
X0378127Y0316900D02*
X0378127Y0334100D01*
X0382927Y0338900D01*
X0383160Y0339103D01*
X0378127Y0316900D02*
X0382927Y0312100D01*
X0382927Y0309300D01*
X0383117Y0309131D01*
X0278927Y0264500D02*
X0197727Y0264500D01*
X0195327Y0270500D02*
X0199327Y0274500D01*
X0186527Y0253300D02*
X0182127Y0248900D01*
X0163727Y0248900D01*
X0186127Y0247700D02*
X0199327Y0234500D01*
X0209327Y0234500D01*
X0221727Y0222100D01*
X0246127Y0222100D01*
X0248127Y0224100D01*
X0251327Y0224100D01*
X0253327Y0222100D01*
X0253327Y0218900D01*
X0248927Y0214500D01*
X0238927Y0214500D01*
X0230127Y0205700D02*
X0204927Y0205700D01*
X0203727Y0204500D01*
X0199327Y0204500D01*
X0181527Y0186700D01*
X0173727Y0194500D01*
X0169327Y0194500D01*
X0164527Y0189700D01*
X0161727Y0189700D01*
X0161428Y0189524D01*
X0181527Y0186700D02*
X0193327Y0174900D01*
X0193327Y0153700D01*
X0201428Y0159524D02*
X0201727Y0159300D01*
X0202527Y0159300D01*
X0216127Y0145700D01*
X0162127Y0097700D02*
X0162127Y0085300D01*
X0178127Y0069300D01*
X0238527Y0069300D01*
X0272927Y0053700D02*
X0285727Y0053700D01*
X0296927Y0042500D01*
X0298527Y0042500D01*
X0298813Y0042233D01*
X0340624Y0145446D02*
X0340927Y0145700D01*
X0340927Y0148500D01*
X0374127Y0143300D02*
X0379327Y0143300D01*
X0383327Y0147300D01*
X0383369Y0147501D01*
X0162127Y0097700D02*
X0135327Y0124500D01*
X0132127Y0124500D01*
X0124927Y0117300D01*
X0133727Y0120900D02*
X0154927Y0099700D01*
X0154927Y0087300D01*
X0155270Y0087166D01*
X0154927Y0086500D01*
X0154927Y0076900D01*
X0103327Y0025300D01*
X0074127Y0025300D01*
X0068127Y0031300D01*
X0067327Y0031300D01*
X0066530Y0031233D01*
X0066527Y0031300D01*
X0066527Y0042100D01*
X0066530Y0042233D01*
X0065727Y0042100D01*
X0064927Y0042100D01*
X0049327Y0057700D01*
X0043327Y0057700D01*
X0033327Y0067700D01*
X0020927Y0067700D01*
X0014127Y0074500D01*
X0013550Y0074910D01*
X0013327Y0075300D01*
X0013327Y0077700D01*
X0008527Y0082500D01*
X0008527Y0100100D01*
X0013327Y0104900D01*
X0013424Y0104973D01*
X0041327Y0076500D02*
X0044527Y0079700D01*
X0061327Y0079700D01*
X0066527Y0074500D01*
X0066845Y0074135D01*
X0054127Y0066100D02*
X0046927Y0066100D01*
X0041327Y0071700D01*
X0041327Y0076500D01*
X0054127Y0066100D02*
X0071727Y0048500D01*
X0081327Y0048500D01*
X0048927Y0146100D02*
X0022527Y0146100D01*
X0021727Y0146900D01*
X0023727Y0150900D02*
X0023727Y0173700D01*
X0019327Y0178100D01*
X0020127Y0172100D02*
X0020127Y0171300D01*
X0012527Y0163700D01*
X0012294Y0163509D01*
X0026527Y0165700D02*
X0027327Y0164900D01*
X0026527Y0165700D02*
X0026527Y0183700D01*
X0022927Y0198500D02*
X0060127Y0161300D01*
X0048527Y0149700D01*
X0046927Y0149700D01*
X0048927Y0146100D02*
X0062127Y0159300D01*
X0072127Y0159300D01*
X0092527Y0179700D01*
X0110927Y0179700D01*
X0114927Y0188900D02*
X0114927Y0203700D01*
X0096530Y0207548D02*
X0096527Y0207700D01*
X0072527Y0231700D01*
X0033727Y0231700D01*
X0033727Y0268100D01*
X0040927Y0271300D02*
X0049727Y0280100D01*
X0052527Y0292100D02*
X0012527Y0252100D01*
X0012380Y0251891D01*
X0013380Y0261891D02*
X0013727Y0262100D01*
X0041327Y0289700D01*
X0052527Y0292100D02*
X0059727Y0292100D01*
X0065327Y0286500D01*
X0066927Y0286500D01*
X0067278Y0286328D01*
X0054927Y0298500D02*
X0027327Y0298500D01*
X0020527Y0294900D02*
X0086927Y0294900D01*
X0095327Y0286500D01*
X0096927Y0286500D01*
X0097278Y0286328D01*
X0099327Y0293700D02*
X0102927Y0297300D01*
X0106527Y0297300D01*
X0110927Y0287300D02*
X0111327Y0286900D01*
X0126927Y0286900D01*
X0139327Y0274500D01*
X0148127Y0274500D01*
X0110927Y0287300D02*
X0099327Y0275700D01*
X0097327Y0275700D01*
X0097278Y0275328D01*
X0081327Y0298500D02*
X0089727Y0306900D01*
X0105727Y0306900D01*
X0116927Y0318100D01*
X0116927Y0324900D01*
X0110852Y0320198D02*
X0110527Y0320100D01*
X0107727Y0320100D01*
X0101727Y0314100D01*
X0089327Y0314100D01*
X0063727Y0339700D01*
X0032527Y0339700D01*
X0022527Y0349700D01*
X0010527Y0349700D01*
X0006127Y0345300D01*
X0006127Y0277300D01*
X0014927Y0268500D01*
X0012026Y0303871D02*
X0012127Y0304100D01*
X0050527Y0304100D01*
X0064527Y0318100D01*
X0066527Y0318100D01*
X0066845Y0318229D01*
X0071327Y0314900D02*
X0054927Y0298500D01*
X0050927Y0312500D02*
X0044527Y0312500D01*
X0041727Y0315300D01*
X0038127Y0315300D01*
X0050927Y0312500D02*
X0056527Y0318100D01*
X0056845Y0318229D01*
X0071327Y0314900D02*
X0072527Y0314900D01*
X0085327Y0307700D02*
X0056127Y0336900D01*
X0019727Y0336900D01*
X0012927Y0343700D01*
X0012829Y0343938D01*
X0013557Y0231820D02*
X0013727Y0231700D01*
X0033727Y0231700D01*
X0026527Y0218100D02*
X0033727Y0210900D01*
X0032527Y0204500D02*
X0026527Y0204500D01*
X0032527Y0204500D02*
X0040927Y0212900D01*
X0050527Y0221700D02*
X0012927Y0221700D01*
X0012557Y0221820D01*
X0050527Y0221700D02*
X0064527Y0207700D01*
X0066527Y0207700D01*
X0066530Y0207548D01*
X0095327Y0196500D02*
X0096527Y0196500D01*
X0096530Y0196548D01*
X0095327Y0196500D02*
X0060127Y0161300D01*
X0073327Y0151300D02*
X0073727Y0151300D01*
X0079327Y0156900D01*
X0116527Y0156900D01*
X0118927Y0154500D01*
X0147727Y0154500D01*
X0108127Y0153300D02*
X0103327Y0148500D01*
M02*
