  0
SECTION
  2
HEADER
  9
$ACADVER
  1
AC1009
  9
$DWGCODEPAGE
  3
mac-roman
  9
$INSBASE
 10
0.0
 20
0.0
 30
0.0
  9
$EXTMIN
 10
0.0
 20
-226.7350882913188
 30
0.0
  9
$EXTMAX
 10
356.0663682128178
 20
151.3080102775367
 30
0.0
  9
$LIMMIN
 10
0.0
 20
0.0
  9
$LIMMAX
 10
12.0
 20
9.0
  9
$ORTHOMODE
 70
     0
  9
$REGENMODE
 70
     1
  9
$FILLMODE
 70
     1
  9
$QTEXTMODE
 70
     0
  9
$MIRRTEXT
 70
     1
  9
$DRAGMODE
 70
     2
  9
$LTSCALE
 40
1.0
  9
$OSMODE
 70
    37
  9
$ATTMODE
 70
     1
  9
$TEXTSIZE
 40
0.2
  9
$TRACEWID
 40
0.05
  9
$TEXTSTYLE
  7
STANDARD
  9
$CLAYER
  8
0
  9
$CELTYPE
  6
BYLAYER
  9
$CECOLOR
 62
   256
  9
$DIMSCALE
 40
1.0
  9
$DIMASZ
 40
0.18
  9
$DIMEXO
 40
0.0625
  9
$DIMDLI
 40
0.38
  9
$DIMRND
 40
0.0
  9
$DIMDLE
 40
0.0
  9
$DIMEXE
 40
0.18
  9
$DIMTP
 40
0.0
  9
$DIMTM
 40
0.0
  9
$DIMTXT
 40
0.18
  9
$DIMCEN
 40
0.09
  9
$DIMTSZ
 40
0.0
  9
$DIMTOL
 70
     0
  9
$DIMLIM
 70
     0
  9
$DIMTIH
 70
     1
  9
$DIMTOH
 70
     1
  9
$DIMSE1
 70
     0
  9
$DIMSE2
 70
     0
  9
$DIMTAD
 70
     0
  9
$DIMZIN
 70
     0
  9
$DIMBLK
  1

  9
$DIMASO
 70
     1
  9
$DIMSHO
 70
     1
  9
$DIMPOST
  1

  9
$DIMAPOST
  1

  9
$DIMALT
 70
     0
  9
$DIMALTD
 70
     2
  9
$DIMALTF
 40
25.4
  9
$DIMLFAC
 40
1.0
  9
$DIMTOFL
 70
     0
  9
$DIMTVP
 40
0.0
  9
$DIMTIX
 70
     0
  9
$DIMSOXD
 70
     0
  9
$DIMSAH
 70
     0
  9
$DIMBLK1
  1

  9
$DIMBLK2
  1

  9
$DIMSTYLE
  2
STANDARD
  9
$DIMCLRD
 70
     0
  9
$DIMCLRE
 70
     0
  9
$DIMCLRT
 70
     0
  9
$DIMTFAC
 40
1.0
  9
$DIMGAP
 40
0.09
  9
$LUNITS
 70
     2
  9
$LUPREC
 70
     3
  9
$SKETCHINC
 40
0.1
  9
$FILLETRAD
 40
0.5
  9
$AUNITS
 70
     0
  9
$AUPREC
 70
     0
  9
$MENU
  1
.
  9
$ELEVATION
 40
0.0
  9
$PELEVATION
 40
0.0
  9
$THICKNESS
 40
0.0
  9
$LIMCHECK
 70
     0
  9
$CHAMFERA
 40
0.0
  9
$CHAMFERB
 40
0.0
  9
$SKPOLY
 70
     0
  9
$TDCREATE
 40
2457967.893923611
  9
$TDUPDATE
 40
2457967.893946759
  9
$TDINDWG
 40
0.0000000116
  9
$TDUSRTIMER
 40
0.0000000116
  9
$USRTIMER
 70
     1
  9
$ANGBASE
 50
0.0
  9
$ANGDIR
 70
     0
  9
$PDMODE
 70
     0
  9
$PDSIZE
 40
0.0
  9
$PLINEWID
 40
0.0
  9
$COORDS
 70
     1
  9
$SPLFRAME
 70
     0
  9
$SPLINETYPE
 70
     6
  9
$SPLINESEGS
 70
     8
  9
$ATTDIA
 70
     0
  9
$ATTREQ
 70
     1
  9
$HANDLING
 70
     1
  9
$HANDSEED
  5
4E6
  9
$SURFTAB1
 70
     6
  9
$SURFTAB2
 70
     6
  9
$SURFTYPE
 70
     6
  9
$SURFU
 70
     6
  9
$SURFV
 70
     6
  9
$UCSNAME
  2

  9
$UCSORG
 10
0.0
 20
0.0
 30
0.0
  9
$UCSXDIR
 10
1.0
 20
0.0
 30
0.0
  9
$UCSYDIR
 10
0.0
 20
1.0
 30
0.0
  9
$PUCSNAME
  2

  9
$PUCSORG
 10
0.0
 20
0.0
 30
0.0
  9
$PUCSXDIR
 10
1.0
 20
0.0
 30
0.0
  9
$PUCSYDIR
 10
0.0
 20
1.0
 30
0.0
  9
$USERI1
 70
     0
  9
$USERI2
 70
     0
  9
$USERI3
 70
     0
  9
$USERI4
 70
     0
  9
$USERI5
 70
     0
  9
$USERR1
 40
0.0
  9
$USERR2
 40
0.0
  9
$USERR3
 40
0.0
  9
$USERR4
 40
0.0
  9
$USERR5
 40
0.0
  9
$WORLDVIEW
 70
     1
  9
$SHADEDGE
 70
     3
  9
$SHADEDIF
 70
    70
  9
$TILEMODE
 70
     1
  9
$MAXACTVP
 70
    64
  9
$PLIMCHECK
 70
     0
  9
$PEXTMIN
 10
1.000000000000000E+20
 20
1.000000000000000E+20
 30
1.000000000000000E+20
  9
$PEXTMAX
 10
-1.000000000000000E+20
 20
-1.000000000000000E+20
 30
-1.000000000000000E+20
  9
$PLIMMIN
 10
0.0
 20
0.0
  9
$PLIMMAX
 10
12.0
 20
9.0
  9
$UNITMODE
 70
     0
  9
$VISRETAIN
 70
     1
  9
$PLINEGEN
 70
     0
  9
$PSLTSCALE
 70
     1
  0
ENDSEC
  0
SECTION
  2
TABLES
  0
TABLE
  2
VPORT
 70
     1
  0
VPORT
  2
*ACTIVE
 70
     0
 10
0.0
 20
0.0
 11
1.0
 21
1.0
 12
178.0331841064089
 22
-37.7135390068911
 13
0.0
 23
0.0
 14
0.5
 24
0.5
 15
0.5
 25
0.5
 16
0.0
 26
0.0
 36
1.0
 17
0.0
 27
0.0
 37
0.0
 40
385.6039605402326
 41
0.9418671298610287
 42
50.0
 43
0.0
 44
0.0
 50
0.0
 51
0.0
 71
     0
 72
   100
 73
     1
 74
     3
 75
     0
 76
     0
 77
     0
 78
     0
  0
ENDTAB
  0
TABLE
  2
LTYPE
 70
     1
  0
LTYPE
  2
CONTINUOUS
 70
     0
  3
Solid line
 72
    65
 73
     0
 40
0.0
  0
ENDTAB
  0
TABLE
  2
LAYER
 70
     2
  0
LAYER
  2
0
 70
     0
 62
     7
  6
CONTINUOUS
  0
LAYER
  2
MAKE2D$VISIBLE$LINES
 70
     0
 62
     7
  6
CONTINUOUS
  0
ENDTAB
  0
TABLE
  2
STYLE
 70
     1
  0
STYLE
  2
STANDARD
 70
     0
 40
0.0
 41
1.0
 50
0.0
 71
     0
 42
0.2
  3
txt
  4

  0
ENDTAB
  0
TABLE
  2
VIEW
 70
     0
  0
ENDTAB
  0
TABLE
  2
UCS
 70
     0
  0
ENDTAB
  0
TABLE
  2
APPID
 70
     1
  0
APPID
  2
ACAD
 70
     0
  0
ENDTAB
  0
TABLE
  2
DIMSTYLE
 70
     1
  0
DIMSTYLE
  2
STANDARD
 70
     0
  3

  4

  5

  6

  7

 40
1.0
 41
0.18
 42
0.0625
 43
0.38
 44
0.18
 45
0.0
 46
0.0
 47
0.0
 48
0.0
140
0.18
141
0.09
142
0.0
143
25.4
144
1.0
145
0.0
146
1.0
147
0.09
 71
     0
 72
     0
 73
     1
 74
     1
 75
     0
 76
     0
 77
     0
 78
     0
170
     0
171
     2
172
     0
173
     0
174
     0
175
     0
176
     0
177
     0
178
     0
  0
ENDTAB
  0
ENDSEC
  0
SECTION
  2
BLOCKS
  0
BLOCK
  8
0
  2
$MODEL_SPACE
 70
     0
 10
0.0
 20
0.0
 30
0.0
  3
$MODEL_SPACE
  1

  0
ENDBLK
  5
21
  8
0
  0
BLOCK
 67
     1
  8
0
  2
$PAPER_SPACE
 70
     0
 10
0.0
 20
0.0
 30
0.0
  3
$PAPER_SPACE
  1

  0
ENDBLK
  5
1D
 67
     1
  8
0
  0
ENDSEC
  0
SECTION
  2
ENTITIES
  0
LINE
  5
6F
  8
MAKE2D$VISIBLE$LINES
 10
355.9881472227277
 20
-78.4662035143138
 30
0.0
 11
355.9881472227277
 21
-72.26071981482144
 31
0.0
  0
LINE
  5
70
  8
MAKE2D$VISIBLE$LINES
 10
355.988147222727
 20
-204.7353498152767
 30
0.0
 11
355.988147222727
 21
-198.5298661723713
 31
0.0
  0
LINE
  5
71
  8
MAKE2D$VISIBLE$LINES
 10
36.98858420030538
 20
-204.7353498152767
 30
0.0
 11
36.98858420030538
 21
-198.5298661723713
 31
0.0
  0
LINE
  5
72
  8
MAKE2D$VISIBLE$LINES
 10
36.9885842003047
 20
-78.4662035143138
 30
0.0
 11
36.9885842003047
 21
-72.26071981482144
 31
0.0
  0
LINE
  5
73
  8
MAKE2D$VISIBLE$LINES
 10
288.370742003432
 20
-12.02392790984263
 30
0.0
 11
288.7183133913564
 21
-12.02997002868783
 31
0.0
  0
LINE
  5
74
  8
MAKE2D$VISIBLE$LINES
 10
288.7183133913564
 20
-12.02997002868783
 30
0.0
 11
289.065464765754
 21
-12.04808908378338
 31
0.0
  0
LINE
  5
75
  8
MAKE2D$VISIBLE$LINES
 10
289.065464765754
 20
-12.04808908378338
 30
0.0
 11
289.4117766206532
 21
-12.07826317963247
 31
0.0
  0
LINE
  5
76
  8
MAKE2D$VISIBLE$LINES
 10
289.4117766206532
 20
-12.07826317963247
 30
0.0
 11
289.7568304645762
 21
-12.12045585314041
 31
0.0
  0
LINE
  5
77
  8
MAKE2D$VISIBLE$LINES
 10
289.7568304645762
 20
-12.12045585314041
 30
0.0
 11
290.1002093262567
 21
-12.17461611767764
 31
0.0
  0
LINE
  5
78
  8
MAKE2D$VISIBLE$LINES
 10
290.1002093262567
 20
-12.17461611767764
 30
0.0
 11
290.4414982585168
 21
-12.24067852469327
 31
0.0
  0
LINE
  5
79
  8
MAKE2D$VISIBLE$LINES
 10
290.4414982585168
 20
-12.24067852469327
 30
0.0
 11
290.7802848396981
 21
-12.31856324280426
 31
0.0
  0
LINE
  5
7A
  8
MAKE2D$VISIBLE$LINES
 10
290.7802848396981
 20
-12.31856324280426
 30
0.0
 11
291.1161596720436
 21
-12.40817615426612
 31
0.0
  0
LINE
  5
7B
  8
MAKE2D$VISIBLE$LINES
 10
291.1161596720436
 20
-12.40817615426612
 30
0.0
 11
291.4487168764226
 21
-12.5094089687066
 31
0.0
  0
LINE
  5
7C
  8
MAKE2D$VISIBLE$LINES
 10
291.4487168764226
 20
-12.5094089687066
 30
0.0
 11
291.7775545828042
 21
-12.62213935398643
 31
0.0
  0
LINE
  5
7D
  8
MAKE2D$VISIBLE$LINES
 10
291.7775545828042
 20
-12.62213935398643
 30
0.0
 11
292.1022754158886
 21
-12.74623108402879
 31
0.0
  0
LINE
  5
7E
  8
MAKE2D$VISIBLE$LINES
 10
292.1022754158886
 20
-12.74623108402879
 30
0.0
 11
292.4224869753021
 21
-12.88153420343723
 31
0.0
  0
LINE
  5
7F
  8
MAKE2D$VISIBLE$LINES
 10
292.4224869753021
 20
-12.88153420343723
 30
0.0
 11
292.7378023097858
 21
-13.02788520870647
 31
0.0
  0
LINE
  5
80
  8
MAKE2D$VISIBLE$LINES
 10
292.7378023097858
 20
-13.02788520870647
 30
0.0
 11
293.0478403847944
 21
-13.18510724580306
 31
0.0
  0
LINE
  5
81
  8
MAKE2D$VISIBLE$LINES
 10
293.0478403847944
 20
-13.18510724580306
 30
0.0
 11
293.352226542949
 21
-13.35301032388045
 31
0.0
  0
LINE
  5
82
  8
MAKE2D$VISIBLE$LINES
 10
293.352226542949
 20
-13.35301032388045
 30
0.0
 11
293.6505929567806
 21
-13.53139154486786
 31
0.0
  0
LINE
  5
83
  8
MAKE2D$VISIBLE$LINES
 10
293.6505929567806
 20
-13.53139154486786
 30
0.0
 11
293.9425790732234
 21
-13.72003534865825
 31
0.0
  0
LINE
  5
84
  8
MAKE2D$VISIBLE$LINES
 10
293.9425790732234
 20
-13.72003534865825
 30
0.0
 11
294.2278320493138
 21
-13.91871377359511
 31
0.0
  0
LINE
  5
85
  8
MAKE2D$VISIBLE$LINES
 10
294.2278320493138
 20
-13.91871377359511
 30
0.0
 11
294.5060071785752
 21
-14.12718673194722
 31
0.0
  0
LINE
  5
86
  8
MAKE2D$VISIBLE$LINES
 10
294.5060071785752
 20
-14.12718673194722
 30
0.0
 11
294.77676830757
 21
-14.34520230003693
 31
0.0
  0
LINE
  5
87
  8
MAKE2D$VISIBLE$LINES
 10
294.77676830757
 20
-14.34520230003693
 30
0.0
 11
295.0397882421134
 21
-14.57249702266915
 31
0.0
  0
LINE
  5
88
  8
MAKE2D$VISIBLE$LINES
 10
295.0397882421134
 20
-14.57249702266915
 30
0.0
 11
295.2947491426654
 21
-14.80879623149893
 31
0.0
  0
LINE
  5
89
  8
MAKE2D$VISIBLE$LINES
 10
295.2947491426654
 20
-14.80879623149893
 30
0.0
 11
295.5413429084133
 21
-15.05381437694556
 31
0.0
  0
LINE
  5
8A
  8
MAKE2D$VISIBLE$LINES
 10
295.5413429084133
 20
-15.05381437694556
 30
0.0
 11
295.7792715495893
 21
-15.30725537325824
 31
0.0
  0
LINE
  5
8B
  8
MAKE2D$VISIBLE$LINES
 10
295.7792715495893
 20
-15.30725537325824
 30
0.0
 11
296.0082475475681
 21
-15.56881295631297
 31
0.0
  0
LINE
  5
8C
  8
MAKE2D$VISIBLE$LINES
 10
296.0082475475681
 20
-15.56881295631297
 30
0.0
 11
296.2279942023113
 21
-15.83817105370943
 31
0.0
  0
LINE
  5
8D
  8
MAKE2D$VISIBLE$LINES
 10
296.2279942023113
 20
-15.83817105370943
 30
0.0
 11
296.438245966738
 21
-16.11500416672033
 31
0.0
  0
LINE
  5
8E
  8
MAKE2D$VISIBLE$LINES
 10
296.438245966738
 20
-16.11500416672033
 30
0.0
 11
296.6387487676184
 21
-16.39897776363166
 31
0.0
  0
LINE
  5
8F
  8
MAKE2D$VISIBLE$LINES
 10
296.6387487676184
 20
-16.39897776363166
 30
0.0
 11
296.8292603126027
 21
-16.68974868399971
 31
0.0
  0
LINE
  5
90
  8
MAKE2D$VISIBLE$LINES
 10
296.8292603126027
 20
-16.68974868399971
 30
0.0
 11
297.0095503830112
 21
-16.9869655533322
 31
0.0
  0
LINE
  5
91
  8
MAKE2D$VISIBLE$LINES
 10
297.0095503830112
 20
-16.9869655533322
 30
0.0
 11
297.1794011120378
 21
-17.29026920770044
 31
0.0
  0
LINE
  5
92
  8
MAKE2D$VISIBLE$LINES
 10
297.1794011120378
 20
-17.29026920770044
 30
0.0
 11
297.338607248024
 21
-17.59929312775845
 31
0.0
  0
LINE
  5
93
  8
MAKE2D$VISIBLE$LINES
 10
297.338607248024
 20
-17.59929312775845
 30
0.0
 11
297.4869764024912
 21
-17.91366388165666
 31
0.0
  0
LINE
  5
94
  8
MAKE2D$VISIBLE$LINES
 10
297.4869764024912
 20
-17.91366388165666
 30
0.0
 11
297.6243292826264
 21
-18.23300157630354
 31
0.0
  0
LINE
  5
95
  8
MAKE2D$VISIBLE$LINES
 10
297.6243292826264
 20
-18.23300157630354
 30
0.0
 11
297.7504999079446
 21
-18.55692031643834
 31
0.0
  0
LINE
  5
96
  8
MAKE2D$VISIBLE$LINES
 10
297.7504999079446
 20
-18.55692031643834
 30
0.0
 11
297.8653358108632
 21
-18.88502867095665
 31
0.0
  0
LINE
  5
97
  8
MAKE2D$VISIBLE$LINES
 10
297.8653358108632
 20
-18.88502867095665
 30
0.0
 11
297.9686982209475
 21
-19.21693014592407
 31
0.0
  0
LINE
  5
98
  8
MAKE2D$VISIBLE$LINES
 10
297.9686982209475
 20
-19.21693014592407
 30
0.0
 11
298.0604622326043
 21
-19.55222366370861
 31
0.0
  0
LINE
  5
99
  8
MAKE2D$VISIBLE$LINES
 10
298.0604622326043
 20
-19.55222366370861
 30
0.0
 11
298.140516956021
 21
-19.89050404765442
 31
0.0
  0
LINE
  5
9A
  8
MAKE2D$VISIBLE$LINES
 10
298.140516956021
 20
-19.89050404765442
 30
0.0
 11
298.2087656511666
 21
-20.23136251170452
 31
0.0
  0
LINE
  5
9B
  8
MAKE2D$VISIBLE$LINES
 10
298.2087656511666
 20
-20.23136251170452
 30
0.0
 11
298.2651258446961
 21
-20.57438715438973
 31
0.0
  0
LINE
  5
9C
  8
MAKE2D$VISIBLE$LINES
 10
298.2651258446961
 20
-20.57438715438973
 30
0.0
 11
298.3095294296118
 21
-20.91916345657756
 31
0.0
  0
LINE
  5
9D
  8
MAKE2D$VISIBLE$LINES
 10
298.3095294296118
 20
-20.91916345657756
 30
0.0
 11
298.3419227475663
 21
-21.26527478239014
 31
0.0
  0
LINE
  5
9E
  8
MAKE2D$VISIBLE$LINES
 10
298.3419227475663
 20
-21.26527478239014
 30
0.0
 11
298.3622666537041
 21
-21.61230288267462
 31
0.0
  0
LINE
  5
9F
  8
MAKE2D$VISIBLE$LINES
 10
298.3622666537041
 20
-21.61230288267462
 30
0.0
 11
298.3705365639657
 21
-21.95982840042539
 31
0.0
  0
LINE
  5
A0
  8
MAKE2D$VISIBLE$LINES
 10
298.3705365639657
 20
-21.95982840042539
 30
0.0
 11
298.3667224847948
 21
-22.30743137754716
 31
0.0
  0
LINE
  5
A1
  8
MAKE2D$VISIBLE$LINES
 10
298.3667224847948
 20
-22.30743137754716
 30
0.0
 11
298.3508290252154
 21
-22.65469176234018
 31
0.0
  0
LINE
  5
A2
  8
MAKE2D$VISIBLE$LINES
 10
298.3508290252154
 20
-22.65469176234018
 30
0.0
 11
298.3228753912618
 21
-23.00118991710073
 31
0.0
  0
LINE
  5
A3
  8
MAKE2D$VISIBLE$LINES
 10
298.3228753912618
 20
-23.00118991710073
 30
0.0
 11
298.238317623626
 21
-25.50024398596516
 31
0.0
  0
LINE
  5
A4
  8
MAKE2D$VISIBLE$LINES
 10
298.238317623626
 20
-25.50024398596516
 30
0.0
 11
298.2012899295771
 21
-27.90884660394762
 31
0.0
  0
LINE
  5
A5
  8
MAKE2D$VISIBLE$LINES
 10
298.2012899295771
 20
-27.90884660394762
 30
0.0
 11
298.2112829730839
 21
-30.22153462681208
 31
0.0
  0
LINE
  5
A6
  8
MAKE2D$VISIBLE$LINES
 10
298.2112829730839
 20
-30.22153462681208
 30
0.0
 11
298.267539883576
 21
-32.43347249794667
 31
0.0
  0
LINE
  5
A7
  8
MAKE2D$VISIBLE$LINES
 10
298.267539883576
 20
-32.43347249794667
 30
0.0
 11
298.369069463073
 21
-34.54047989991729
 31
0.0
  0
LINE
  5
A8
  8
MAKE2D$VISIBLE$LINES
 10
298.369069463073
 20
-34.54047989991729
 30
0.0
 11
298.5146621105578
 21
-36.53904965931211
 31
0.0
  0
LINE
  5
A9
  8
MAKE2D$VISIBLE$LINES
 10
298.5146621105578
 20
-36.53904965931211
 30
0.0
 11
298.7029080528242
 21
-38.42635597553584
 31
0.0
  0
LINE
  5
AA
  8
MAKE2D$VISIBLE$LINES
 10
298.7029080528242
 20
-38.42635597553584
 30
0.0
 11
298.9322174348719
 21
-40.20025327958263
 31
0.0
  0
LINE
  5
AB
  8
MAKE2D$VISIBLE$LINES
 10
298.9322174348719
 20
-40.20025327958263
 30
0.0
 11
299.200841802977
 21
-41.85926624037754
 31
0.0
  0
LINE
  5
AC
  8
MAKE2D$VISIBLE$LINES
 10
299.200841802977
 20
-41.85926624037754
 30
0.0
 11
299.3493128504294
 21
-42.64540900730194
 31
0.0
  0
LINE
  5
AD
  8
MAKE2D$VISIBLE$LINES
 10
299.3493128504294
 20
-42.64540900730194
 30
0.0
 11
299.5068965094857
 21
-43.40257161749029
 31
0.0
  0
LINE
  5
AE
  8
MAKE2D$VISIBLE$LINES
 10
299.5068965094857
 20
-43.40257161749029
 30
0.0
 11
299.6733396716306
 21
-44.13074887580374
 31
0.0
  0
LINE
  5
AF
  8
MAKE2D$VISIBLE$LINES
 10
299.6733396716306
 20
-44.13074887580374
 30
0.0
 11
299.8483835790668
 21
-44.8299728053055
 31
0.0
  0
LINE
  5
B0
  8
MAKE2D$VISIBLE$LINES
 10
299.8483835790668
 20
-44.8299728053055
 30
0.0
 11
300.031764534156
 21
-45.50031152000847
 31
0.0
  0
LINE
  5
B1
  8
MAKE2D$VISIBLE$LINES
 10
300.031764534156
 20
-45.50031152000847
 30
0.0
 11
300.2232145999416
 21
-46.14186802253263
 31
0.0
  0
LINE
  5
B2
  8
MAKE2D$VISIBLE$LINES
 10
300.2232145999416
 20
-46.14186802253263
 30
0.0
 11
300.4224622890422
 21
-46.75477893502177
 31
0.0
  0
LINE
  5
B3
  8
MAKE2D$VISIBLE$LINES
 10
300.4224622890422
 20
-46.75477893502177
 30
0.0
 11
300.629233238393
 21
-47.33921317166428
 31
0.0
  0
LINE
  5
B4
  8
MAKE2D$VISIBLE$LINES
 10
300.629233238393
 20
-47.33921317166428
 30
0.0
 11
300.8432508675198
 21
-47.89537056109583
 31
0.0
  0
LINE
  5
B5
  8
MAKE2D$VISIBLE$LINES
 10
300.8432508675198
 20
-47.89537056109583
 30
0.0
 11
301.0642370182409
 21
-48.42348042683694
 31
0.0
  0
LINE
  5
B6
  8
MAKE2D$VISIBLE$LINES
 10
301.0642370182409
 20
-48.42348042683694
 30
0.0
 11
301.291912573902
 21
-48.92380013374193
 31
0.0
  0
LINE
  5
B7
  8
MAKE2D$VISIBLE$LINES
 10
301.291912573902
 20
-48.92380013374193
 30
0.0
 11
301.5259980564701
 21
-49.39661360821048
 31
0.0
  0
LINE
  5
B8
  8
MAKE2D$VISIBLE$LINES
 10
301.5259980564701
 20
-49.39661360821048
 30
0.0
 11
301.6453572262802
 21
-49.62280112968953
 31
0.0
  0
LINE
  5
B9
  8
MAKE2D$VISIBLE$LINES
 10
301.6453572262802
 20
-49.62280112968953
 30
0.0
 11
301.7662142000178
 21
-49.84222983964517
 31
0.0
  0
LINE
  5
BA
  8
MAKE2D$VISIBLE$LINES
 10
301.7662142000178
 20
-49.84222983964517
 30
0.0
 11
301.8885341925957
 21
-50.05494203007368
 31
0.0
  0
LINE
  5
BB
  8
MAKE2D$VISIBLE$LINES
 10
301.8885341925957
 20
-50.05494203007368
 30
0.0
 11
302.012282499352
 21
-50.26098137033438
 31
0.0
  0
LINE
  5
BC
  8
MAKE2D$VISIBLE$LINES
 10
302.012282499352
 20
-50.26098137033438
 30
0.0
 11
302.3173154979801
 21
-50.74569967803098
 31
0.0
  0
LINE
  5
BD
  8
MAKE2D$VISIBLE$LINES
 10
302.3173154979801
 20
-50.74569967803098
 30
0.0
 11
302.6359174317874
 21
-51.2277903450819
 31
0.0
  0
LINE
  5
BE
  8
MAKE2D$VISIBLE$LINES
 10
302.6359174317874
 20
-51.2277903450819
 30
0.0
 11
302.9681722305093
 21
-51.70675796115193
 31
0.0
  0
LINE
  5
BF
  8
MAKE2D$VISIBLE$LINES
 10
302.9681722305093
 20
-51.70675796115193
 30
0.0
 11
303.3141425435704
 21
-52.18209505753227
 31
0.0
  0
LINE
  5
C0
  8
MAKE2D$VISIBLE$LINES
 10
303.3141425435704
 20
-52.18209505753227
 30
0.0
 11
303.6738686156511
 21
-52.65328309143954
 31
0.0
  0
LINE
  5
C1
  8
MAKE2D$VISIBLE$LINES
 10
303.6738686156511
 20
-52.65328309143954
 30
0.0
 11
304.0473672045207
 21
-53.11979353186877
 31
0.0
  0
LINE
  5
C2
  8
MAKE2D$VISIBLE$LINES
 10
304.0473672045207
 20
-53.11979353186877
 30
0.0
 11
304.4346305505915
 21
-53.58108904622964
 31
0.0
  0
LINE
  5
C3
  8
MAKE2D$VISIBLE$LINES
 10
304.4346305505915
 20
-53.58108904622964
 30
0.0
 11
304.8356254078458
 21
-54.03662478607906
 31
0.0
  0
LINE
  5
C4
  8
MAKE2D$VISIBLE$LINES
 10
304.8356254078458
 20
-54.03662478607906
 30
0.0
 11
305.2502921459079
 21
-54.48584976929732
 31
0.0
  0
LINE
  5
C5
  8
MAKE2D$VISIBLE$LINES
 10
305.2502921459079
 20
-54.48584976929732
 30
0.0
 11
305.67854393304
 21
-54.92820835504704
 31
0.0
  0
LINE
  5
C6
  8
MAKE2D$VISIBLE$LINES
 10
305.67854393304
 20
-54.92820835504704
 30
0.0
 11
306.1202660097489
 21
-55.36314180681504
 31
0.0
  0
LINE
  5
C7
  8
MAKE2D$VISIBLE$LINES
 10
306.1202660097489
 20
-55.36314180681504
 30
0.0
 11
306.5753150624716
 21
-55.79008993777875
 31
0.0
  0
LINE
  5
C8
  8
MAKE2D$VISIBLE$LINES
 10
306.5753150624716
 20
-55.79008993777875
 30
0.0
 11
307.0435187064816
 21
-56.20849283167651
 31
0.0
  0
LINE
  5
C9
  8
MAKE2D$VISIBLE$LINES
 10
307.0435187064816
 20
-56.20849283167651
 30
0.0
 11
307.5246750866875
 21
-56.61779263130665
 31
0.0
  0
LINE
  5
CA
  8
MAKE2D$VISIBLE$LINES
 10
307.5246750866875
 20
-56.61779263130665
 30
0.0
 11
308.018552604414
 21
-57.01743538575302
 31
0.0
  0
LINE
  5
CB
  8
MAKE2D$VISIBLE$LINES
 10
308.018552604414
 20
-57.01743538575302
 30
0.0
 11
308.5248897775319
 21
-57.40687294644763
 31
0.0
  0
LINE
  5
CC
  8
MAKE2D$VISIBLE$LINES
 10
308.5248897775319
 20
-57.40687294644763
 30
0.0
 11
309.0433952404653
 21
-57.785564901255
 31
0.0
  0
LINE
  5
CD
  8
MAKE2D$VISIBLE$LINES
 10
309.0433952404653
 20
-57.785564901255
 30
0.0
 11
309.5737478896312
 21
-58.15298053491131
 31
0.0
  0
LINE
  5
CE
  8
MAKE2D$VISIBLE$LINES
 10
309.5737478896312
 20
-58.15298053491131
 30
0.0
 11
310.1155971787953
 21
-58.50860080339469
 31
0.0
  0
LINE
  5
CF
  8
MAKE2D$VISIBLE$LINES
 10
310.1155971787953
 20
-58.50860080339469
 30
0.0
 11
310.6685635676312
 21
-58.85192030915405
 31
0.0
  0
LINE
  5
D0
  8
MAKE2D$VISIBLE$LINES
 10
310.6685635676312
 20
-58.85192030915405
 30
0.0
 11
311.2322391255008
 21
-59.18244926360177
 31
0.0
  0
LINE
  5
D1
  8
MAKE2D$VISIBLE$LINES
 10
311.2322391255008
 20
-59.18244926360177
 30
0.0
 11
311.8061882911104
 21
-59.49971542289035
 31
0.0
  0
LINE
  5
D2
  8
MAKE2D$VISIBLE$LINES
 10
311.8061882911104
 20
-59.49971542289035
 30
0.0
 11
312.3899487872756
 21
-59.80326598276056
 31
0.0
  0
LINE
  5
D3
  8
MAKE2D$VISIBLE$LINES
 10
312.3899487872756
 20
-59.80326598276056
 30
0.0
 11
312.9830326885679
 21
-60.09266941817551
 31
0.0
  0
LINE
  5
D4
  8
MAKE2D$VISIBLE$LINES
 10
312.9830326885679
 20
-60.09266941817551
 30
0.0
 11
313.5849276381261
 21
-60.36751725355147
 31
0.0
  0
LINE
  5
D5
  8
MAKE2D$VISIBLE$LINES
 10
313.5849276381261
 20
-60.36751725355147
 30
0.0
 11
314.1950982084221
 21
-60.62742574966549
 31
0.0
  0
LINE
  5
D6
  8
MAKE2D$VISIBLE$LINES
 10
314.1950982084221
 20
-60.62742574966549
 30
0.0
 11
314.8129873993075
 21
-60.87203749376388
 31
0.0
  0
LINE
  5
D7
  8
MAKE2D$VISIBLE$LINES
 10
314.8129873993075
 20
-60.87203749376388
 30
0.0
 11
315.4380182652318
 21
-61.10102288001288
 31
0.0
  0
LINE
  5
D8
  8
MAKE2D$VISIBLE$LINES
 10
315.4380182652318
 20
-61.10102288001288
 30
0.0
 11
316.0695956621688
 21
-61.31408146822004
 31
0.0
  0
LINE
  5
D9
  8
MAKE2D$VISIBLE$LINES
 10
316.0695956621688
 20
-61.31408146822004
 30
0.0
 11
316.7071081035056
 21
-61.5109432097012
 31
0.0
  0
LINE
  5
DA
  8
MAKE2D$VISIBLE$LINES
 10
316.7071081035056
 20
-61.5109432097012
 30
0.0
 11
317.3499297129897
 21
-61.69136953026626
 31
0.0
  0
LINE
  5
DB
  8
MAKE2D$VISIBLE$LINES
 10
317.3499297129897
 20
-61.69136953026626
 30
0.0
 11
317.9974222617855
 21
-61.85515426152914
 31
0.0
  0
LINE
  5
DC
  8
MAKE2D$VISIBLE$LINES
 10
317.9974222617855
 20
-61.85515426152914
 30
0.0
 11
318.6489372758015
 21
-62.0021244131001
 31
0.0
  0
LINE
  5
DD
  8
MAKE2D$VISIBLE$LINES
 10
318.6489372758015
 20
-62.0021244131001
 30
0.0
 11
319.3038181987151
 21
-62.13214077967042
 31
0.0
  0
LINE
  5
DE
  8
MAKE2D$VISIBLE$LINES
 10
319.3038181987151
 20
-62.13214077967042
 30
0.0
 11
319.9614025955631
 21
-62.24509837853048
 31
0.0
  0
LINE
  5
DF
  8
MAKE2D$VISIBLE$LINES
 10
319.9614025955631
 20
-62.24509837853048
 30
0.0
 11
320.6210243813824
 21
-62.34092671464887
 31
0.0
  0
LINE
  5
E0
  8
MAKE2D$VISIBLE$LINES
 10
320.6210243813824
 20
-62.34092671464887
 30
0.0
 11
321.282016059197
 21
-62.41958987205905
 31
0.0
  0
LINE
  5
E1
  8
MAKE2D$VISIBLE$LINES
 10
321.282016059197
 20
-62.41958987205905
 30
0.0
 11
321.9437109516423
 21
-62.48108643192681
 31
0.0
  0
LINE
  5
E2
  8
MAKE2D$VISIBLE$LINES
 10
321.9437109516423
 20
-62.48108643192681
 30
0.0
 11
322.6054454107011
 21
-62.52544921928199
 31
0.0
  0
LINE
  5
E3
  8
MAKE2D$VISIBLE$LINES
 10
322.6054454107011
 20
-62.52544921928199
 30
0.0
 11
323.2665609903942
 21
-62.55274488196683
 31
0.0
  0
LINE
  5
E4
  8
MAKE2D$VISIBLE$LINES
 10
323.2665609903942
 20
-62.55274488196683
 30
0.0
 11
323.9264065678147
 21
-62.56307330686046
 31
0.0
  0
LINE
  5
E5
  8
MAKE2D$VISIBLE$LINES
 10
323.9264065678147
 20
-62.56307330686046
 30
0.0
 11
324.5843403985971
 21
-62.5565668798595
 31
0.0
  0
LINE
  5
E6
  8
MAKE2D$VISIBLE$LINES
 10
324.5843403985971
 20
-62.5565668798595
 30
0.0
 11
325.2397320937781
 21
-62.53338959741388
 31
0.0
  0
LINE
  5
E7
  8
MAKE2D$VISIBLE$LINES
 10
325.2397320937781
 20
-62.53338959741388
 30
0.0
 11
325.8919645059919
 21
-62.49373603861221
 31
0.0
  0
LINE
  5
E8
  8
MAKE2D$VISIBLE$LINES
 10
325.8919645059919
 20
-62.49373603861221
 30
0.0
 11
326.5404355140611
 21
-62.43783020787355
 31
0.0
  0
LINE
  5
E9
  8
MAKE2D$VISIBLE$LINES
 10
326.5404355140611
 20
-62.43783020787355
 30
0.0
 11
327.1845596962431
 21
-62.36592425921635
 31
0.0
  0
LINE
  5
EA
  8
MAKE2D$VISIBLE$LINES
 10
327.1845596962431
 20
-62.36592425921635
 30
0.0
 11
327.8237698836812
 21
-62.27829711383416
 31
0.0
  0
LINE
  5
EB
  8
MAKE2D$VISIBLE$LINES
 10
327.8237698836812
 20
-62.27829711383416
 30
0.0
 11
328.4575185869472
 21
-62.17525298330659
 31
0.0
  0
LINE
  5
EC
  8
MAKE2D$VISIBLE$LINES
 10
328.4575185869472
 20
-62.17525298330659
 30
0.0
 11
329.0852792899311
 21
-62.05711981120791
 31
0.0
  0
LINE
  5
ED
  8
MAKE2D$VISIBLE$LINES
 10
329.0852792899311
 20
-62.05711981120791
 30
0.0
 11
329.7065476067228
 21
-61.92424764614768
 31
0.0
  0
LINE
  5
EE
  8
MAKE2D$VISIBLE$LINES
 10
329.7065476067228
 20
-61.92424764614768
 30
0.0
 11
330.3208422985065
 21
-61.77700695939099
 31
0.0
  0
LINE
  5
EF
  8
MAKE2D$VISIBLE$LINES
 10
330.3208422985065
 20
-61.77700695939099
 30
0.0
 11
330.9277061488368
 21
-61.61578692016349
 31
0.0
  0
LINE
  5
F0
  8
MAKE2D$VISIBLE$LINES
 10
330.9277061488368
 20
-61.61578692016349
 30
0.0
 11
331.5267066969773
 21
-61.44099364156134
 31
0.0
  0
LINE
  5
F1
  8
MAKE2D$VISIBLE$LINES
 10
331.5267066969773
 20
-61.44099364156134
 30
0.0
 11
332.1174368302239
 21
-61.25304840966311
 31
0.0
  0
LINE
  5
F2
  8
MAKE2D$VISIBLE$LINES
 10
332.1174368302239
 20
-61.25304840966311
 30
0.0
 11
332.6995152373082
 21
-61.05238590799751
 31
0.0
  0
LINE
  5
F3
  8
MAKE2D$VISIBLE$LINES
 10
332.6995152373082
 20
-61.05238590799751
 30
0.0
 11
333.2725867260659
 21
-60.83945244896523
 31
0.0
  0
LINE
  5
F4
  8
MAKE2D$VISIBLE$LINES
 10
333.2725867260659
 20
-60.83945244896523
 30
0.0
 11
333.8363224095414
 21
-60.61470422316371
 31
0.0
  0
LINE
  5
F5
  8
MAKE2D$VISIBLE$LINES
 10
333.8363224095414
 20
-60.61470422316371
 30
0.0
 11
334.3904197655897
 21
-60.378605576832
 31
0.0
  0
LINE
  5
F6
  8
MAKE2D$VISIBLE$LINES
 10
334.3904197655897
 20
-60.378605576832
 30
0.0
 11
334.9346025758168
 21
-60.13162732683733
 31
0.0
  0
LINE
  5
F7
  8
MAKE2D$VISIBLE$LINES
 10
334.9346025758168
 20
-60.13162732683733
 30
0.0
 11
335.4686207503672
 21
-59.87424512177687
 31
0.0
  0
LINE
  5
F8
  8
MAKE2D$VISIBLE$LINES
 10
335.4686207503672
 20
-59.87424512177687
 30
0.0
 11
335.9922500456244
 21
-59.60693785688606
 31
0.0
  0
LINE
  5
F9
  8
MAKE2D$VISIBLE$LINES
 10
335.9922500456244
 20
-59.60693785688606
 30
0.0
 11
336.5052916823345
 21
-59.33018614953945
 31
0.0
  0
LINE
  5
FA
  8
MAKE2D$VISIBLE$LINES
 10
336.5052916823345
 20
-59.33018614953945
 30
0.0
 11
337.0075718720012
 21
-59.04447088121864
 31
0.0
  0
LINE
  5
FB
  8
MAKE2D$VISIBLE$LINES
 10
337.0075718720012
 20
-59.04447088121864
 30
0.0
 11
337.49894125963
 21
-58.75027181091137
 31
0.0
  0
LINE
  5
FC
  8
MAKE2D$VISIBLE$LINES
 10
337.49894125963
 20
-58.75027181091137
 30
0.0
 11
338.0953967961644
 21
-58.37277008860097
 31
0.0
  0
LINE
  5
FD
  8
MAKE2D$VISIBLE$LINES
 10
338.0953967961644
 20
-58.37277008860097
 30
0.0
 11
338.6876960451788
 21
-57.97466714648125
 31
0.0
  0
LINE
  5
FE
  8
MAKE2D$VISIBLE$LINES
 10
338.6876960451788
 20
-57.97466714648125
 30
0.0
 11
339.2749063962376
 21
-57.5558199987623
 31
0.0
  0
LINE
  5
FF
  8
MAKE2D$VISIBLE$LINES
 10
339.2749063962376
 20
-57.5558199987623
 30
0.0
 11
339.8560685634084
 21
-57.11613576507339
 31
0.0
  0
LINE
  5
100
  8
MAKE2D$VISIBLE$LINES
 10
339.8560685634084
 20
-57.11613576507339
 30
0.0
 11
340.430199536668
 21
-56.65557478349764
 31
0.0
  0
LINE
  5
101
  8
MAKE2D$VISIBLE$LINES
 10
340.430199536668
 20
-56.65557478349764
 30
0.0
 11
340.9962958851906
 21
-56.1741535534832
 31
0.0
  0
LINE
  5
102
  8
MAKE2D$VISIBLE$LINES
 10
340.9962958851906
 20
-56.1741535534832
 30
0.0
 11
341.5533374060199
 21
-55.67194746740604
 31
0.0
  0
LINE
  5
103
  8
MAKE2D$VISIBLE$LINES
 10
341.5533374060199
 20
-55.67194746740604
 30
0.0
 11
342.1002911065427
 21
-55.1490932889325
 31
0.0
  0
LINE
  5
104
  8
MAKE2D$VISIBLE$LINES
 10
342.1002911065427
 20
-55.1490932889325
 30
0.0
 11
342.6361155038429
 21
-54.60579133635893
 31
0.0
  0
LINE
  5
105
  8
MAKE2D$VISIBLE$LINES
 10
342.6361155038429
 20
-54.60579133635893
 30
0.0
 11
343.159765218487
 21
-54.04230732985634
 31
0.0
  0
LINE
  5
106
  8
MAKE2D$VISIBLE$LINES
 10
343.159765218487
 20
-54.04230732985634
 30
0.0
 11
343.6701958346958
 21
-53.45897386307157
 31
0.0
  0
LINE
  5
107
  8
MAKE2D$VISIBLE$LINES
 10
343.6701958346958
 20
-53.45897386307157
 30
0.0
 11
344.1663689932894
 21
-52.8561914618722
 31
0.0
  0
LINE
  5
108
  8
MAKE2D$VISIBLE$LINES
 10
344.1663689932894
 20
-52.8561914618722
 30
0.0
 11
344.6472576783943
 21
-52.23442919619004
 31
0.0
  0
LINE
  5
109
  8
MAKE2D$VISIBLE$LINES
 10
344.6472576783943
 20
-52.23442919619004
 30
0.0
 11
345.1118516537989
 21
-51.5942248149164
 31
0.0
  0
LINE
  5
10A
  8
MAKE2D$VISIBLE$LINES
 10
345.1118516537989
 20
-51.5942248149164
 30
0.0
 11
345.5591630001654
 21
-50.9361843786087
 31
0.0
  0
LINE
  5
10B
  8
MAKE2D$VISIBLE$LINES
 10
345.5591630001654
 20
-50.9361843786087
 30
0.0
 11
345.9882317002063
 21
-50.26098137033497
 31
0.0
  0
LINE
  5
10C
  8
MAKE2D$VISIBLE$LINES
 10
345.9882317002063
 20
-50.26098137033497
 30
0.0
 11
350.9881472227272
 21
-50.26098137033497
 31
0.0
  0
LINE
  5
10D
  8
MAKE2D$VISIBLE$LINES
 10
350.9881472227272
 20
-50.26098137033497
 30
0.0
 11
351.6030880457459
 21
-51.8360852340096
 31
0.0
  0
LINE
  5
10E
  8
MAKE2D$VISIBLE$LINES
 10
351.6030880457459
 20
-51.8360852340096
 30
0.0
 11
352.1783552672797
 21
-53.41037594518909
 31
0.0
  0
LINE
  5
10F
  8
MAKE2D$VISIBLE$LINES
 10
352.1783552672797
 20
-53.41037594518909
 30
0.0
 11
352.7139488873283
 21
-54.98385350387343
 31
0.0
  0
LINE
  5
110
  8
MAKE2D$VISIBLE$LINES
 10
352.7139488873283
 20
-54.98385350387343
 30
0.0
 11
353.2098689058919
 21
-56.55651791006264
 31
0.0
  0
LINE
  5
111
  8
MAKE2D$VISIBLE$LINES
 10
353.2098689058919
 20
-56.55651791006264
 30
0.0
 11
353.6661153229703
 21
-58.12836916375672
 31
0.0
  0
LINE
  5
112
  8
MAKE2D$VISIBLE$LINES
 10
353.6661153229703
 20
-58.12836916375672
 30
0.0
 11
354.0826881385638
 21
-59.69940726495565
 31
0.0
  0
LINE
  5
113
  8
MAKE2D$VISIBLE$LINES
 10
354.0826881385638
 20
-59.69940726495565
 30
0.0
 11
354.459587352672
 21
-61.26963221365944
 31
0.0
  0
LINE
  5
114
  8
MAKE2D$VISIBLE$LINES
 10
354.459587352672
 20
-61.26963221365944
 30
0.0
 11
354.7968129652952
 21
-62.8390440098681
 31
0.0
  0
LINE
  5
115
  8
MAKE2D$VISIBLE$LINES
 10
354.7968129652952
 20
-62.8390440098681
 30
0.0
 11
355.0943649764333
 21
-64.4076426535816
 31
0.0
  0
LINE
  5
116
  8
MAKE2D$VISIBLE$LINES
 10
355.0943649764333
 20
-64.4076426535816
 30
0.0
 11
355.3522433860863
 21
-65.97542814479999
 31
0.0
  0
LINE
  5
117
  8
MAKE2D$VISIBLE$LINES
 10
355.3522433860863
 20
-65.97542814479999
 30
0.0
 11
355.5704481942543
 21
-67.54240048352325
 31
0.0
  0
LINE
  5
118
  8
MAKE2D$VISIBLE$LINES
 10
355.5704481942543
 20
-67.54240048352325
 30
0.0
 11
355.7489794009371
 21
-69.10855966975136
 31
0.0
  0
LINE
  5
119
  8
MAKE2D$VISIBLE$LINES
 10
355.7489794009371
 20
-69.10855966975136
 30
0.0
 11
355.8878370061349
 21
-70.67390570348432
 31
0.0
  0
LINE
  5
11A
  8
MAKE2D$VISIBLE$LINES
 10
355.8878370061349
 20
-70.67390570348432
 30
0.0
 11
355.9870210098476
 21
-72.23843858472216
 31
0.0
  0
LINE
  5
11B
  8
MAKE2D$VISIBLE$LINES
 10
355.9870210098476
 20
-72.23843858472216
 30
0.0
 11
356.0465314120752
 21
-73.80215831346486
 31
0.0
  0
LINE
  5
11C
  8
MAKE2D$VISIBLE$LINES
 10
356.0465314120752
 20
-73.80215831346486
 30
0.0
 11
356.0663682128178
 21
-75.36506488971241
 31
0.0
  0
LINE
  5
11D
  8
MAKE2D$VISIBLE$LINES
 10
356.0663682128178
 20
-75.36506488971241
 30
0.0
 11
356.0465314120754
 21
-76.92715831346484
 31
0.0
  0
LINE
  5
11E
  8
MAKE2D$VISIBLE$LINES
 10
356.0465314120754
 20
-76.92715831346484
 30
0.0
 11
355.9870210098478
 21
-78.48843858472213
 31
0.0
  0
LINE
  5
11F
  8
MAKE2D$VISIBLE$LINES
 10
355.9870210098478
 20
-78.48843858472213
 30
0.0
 11
355.887837006135
 21
-80.04890570348428
 31
0.0
  0
LINE
  5
120
  8
MAKE2D$VISIBLE$LINES
 10
355.887837006135
 20
-80.04890570348428
 30
0.0
 11
355.7489794009372
 21
-81.60855966975129
 31
0.0
  0
LINE
  5
121
  8
MAKE2D$VISIBLE$LINES
 10
355.7489794009372
 20
-81.60855966975129
 30
0.0
 11
355.5704481942544
 21
-83.16740048352318
 31
0.0
  0
LINE
  5
122
  8
MAKE2D$VISIBLE$LINES
 10
355.5704481942544
 20
-83.16740048352318
 30
0.0
 11
355.3522433860865
 21
-84.7254281447999
 31
0.0
  0
LINE
  5
123
  8
MAKE2D$VISIBLE$LINES
 10
355.3522433860865
 20
-84.7254281447999
 30
0.0
 11
355.0943649764334
 21
-86.28264265358152
 31
0.0
  0
LINE
  5
124
  8
MAKE2D$VISIBLE$LINES
 10
355.0943649764334
 20
-86.28264265358152
 30
0.0
 11
354.7968129652953
 21
-87.83904400986799
 31
0.0
  0
LINE
  5
125
  8
MAKE2D$VISIBLE$LINES
 10
354.7968129652953
 20
-87.83904400986799
 30
0.0
 11
354.4595873526721
 21
-89.39463221365932
 31
0.0
  0
LINE
  5
126
  8
MAKE2D$VISIBLE$LINES
 10
354.4595873526721
 20
-89.39463221365932
 30
0.0
 11
354.0826881385639
 21
-90.94940726495551
 31
0.0
  0
LINE
  5
127
  8
MAKE2D$VISIBLE$LINES
 10
354.0826881385639
 20
-90.94940726495551
 30
0.0
 11
353.6661153229705
 21
-92.50336916375659
 31
0.0
  0
LINE
  5
128
  8
MAKE2D$VISIBLE$LINES
 10
353.6661153229705
 20
-92.50336916375659
 30
0.0
 11
353.2098689058921
 21
-94.05651791006251
 31
0.0
  0
LINE
  5
129
  8
MAKE2D$VISIBLE$LINES
 10
353.2098689058921
 20
-94.05651791006251
 30
0.0
 11
352.7139488873286
 21
-95.60885350387329
 31
0.0
  0
LINE
  5
12A
  8
MAKE2D$VISIBLE$LINES
 10
352.7139488873286
 20
-95.60885350387329
 30
0.0
 11
352.1783552672801
 21
-97.16037594518895
 31
0.0
  0
LINE
  5
12B
  8
MAKE2D$VISIBLE$LINES
 10
352.1783552672801
 20
-97.16037594518895
 30
0.0
 11
351.6030880457464
 21
-98.71108523400947
 31
0.0
  0
LINE
  5
12C
  8
MAKE2D$VISIBLE$LINES
 10
351.6030880457464
 20
-98.71108523400947
 30
0.0
 11
350.9881472227277
 21
-100.2609813703348
 31
0.0
  0
LINE
  5
12D
  8
MAKE2D$VISIBLE$LINES
 10
350.9881472227277
 20
-100.2609813703348
 30
0.0
 11
345.9882317002068
 21
-100.2609813703348
 31
0.0
  0
LINE
  5
12E
  8
MAKE2D$VISIBLE$LINES
 10
345.9882317002068
 20
-100.2609813703348
 30
0.0
 11
345.988231700206
 21
-176.735088291319
 31
0.0
  0
LINE
  5
12F
  8
MAKE2D$VISIBLE$LINES
 10
345.988231700206
 20
-176.735088291319
 30
0.0
 11
350.988147222727
 21
-176.735088291319
 31
0.0
  0
LINE
  5
130
  8
MAKE2D$VISIBLE$LINES
 10
350.988147222727
 20
-176.735088291319
 30
0.0
 11
351.6030878991324
 21
-178.2849840697618
 31
0.0
  0
LINE
  5
131
  8
MAKE2D$VISIBLE$LINES
 10
351.6030878991324
 20
-178.2849840697618
 30
0.0
 11
352.1783549835118
 21
-179.835693023789
 31
0.0
  0
LINE
  5
132
  8
MAKE2D$VISIBLE$LINES
 10
352.1783549835118
 20
-179.835693023789
 30
0.0
 11
352.7139484758649
 21
-181.3872151534005
 31
0.0
  0
LINE
  5
133
  8
MAKE2D$VISIBLE$LINES
 10
352.7139484758649
 20
-181.3872151534005
 30
0.0
 11
353.2098683761919
 21
-182.9395504585963
 31
0.0
  0
LINE
  5
134
  8
MAKE2D$VISIBLE$LINES
 10
353.2098683761919
 20
-182.9395504585963
 30
0.0
 11
353.6661146844928
 21
-184.4926989393765
 31
0.0
  0
LINE
  5
135
  8
MAKE2D$VISIBLE$LINES
 10
353.6661146844928
 20
-184.4926989393765
 30
0.0
 11
354.0826874007674
 21
-186.0466605957409
 31
0.0
  0
LINE
  5
136
  8
MAKE2D$VISIBLE$LINES
 10
354.0826874007674
 20
-186.0466605957409
 30
0.0
 11
354.4595865250159
 21
-187.6014354276898
 31
0.0
  0
LINE
  5
137
  8
MAKE2D$VISIBLE$LINES
 10
354.4595865250159
 20
-187.6014354276898
 30
0.0
 11
354.7968120572383
 21
-189.1570234352229
 31
0.0
  0
LINE
  5
138
  8
MAKE2D$VISIBLE$LINES
 10
354.7968120572383
 20
-189.1570234352229
 30
0.0
 11
355.0943639974345
 21
-190.7134246183404
 31
0.0
  0
LINE
  5
139
  8
MAKE2D$VISIBLE$LINES
 10
355.0943639974345
 20
-190.7134246183404
 30
0.0
 11
355.3522423456046
 21
-192.2706389770423
 31
0.0
  0
LINE
  5
13A
  8
MAKE2D$VISIBLE$LINES
 10
355.3522423456046
 20
-192.2706389770423
 30
0.0
 11
355.5704471017484
 21
-193.8286665113284
 31
0.0
  0
LINE
  5
13B
  8
MAKE2D$VISIBLE$LINES
 10
355.5704471017484
 20
-193.8286665113284
 30
0.0
 11
355.7489782658662
 21
-195.3875072211989
 31
0.0
  0
LINE
  5
13C
  8
MAKE2D$VISIBLE$LINES
 10
355.7489782658662
 20
-195.3875072211989
 30
0.0
 11
355.8878358379578
 21
-196.9471611066538
 31
0.0
  0
LINE
  5
13D
  8
MAKE2D$VISIBLE$LINES
 10
355.8878358379578
 20
-196.9471611066538
 30
0.0
 11
355.9870198180232
 21
-198.5076281676929
 31
0.0
  0
LINE
  5
13E
  8
MAKE2D$VISIBLE$LINES
 10
355.9870198180232
 20
-198.5076281676929
 30
0.0
 11
356.0465302060625
 21
-200.0689084043164
 31
0.0
  0
LINE
  5
13F
  8
MAKE2D$VISIBLE$LINES
 10
356.0465302060625
 20
-200.0689084043164
 30
0.0
 11
356.0663670020756
 21
-201.6310018165242
 31
0.0
  0
LINE
  5
140
  8
MAKE2D$VISIBLE$LINES
 10
356.0663670020756
 20
-201.6310018165242
 30
0.0
 11
356.0465302060625
 21
-203.1939084043163
 31
0.0
  0
LINE
  5
141
  8
MAKE2D$VISIBLE$LINES
 10
356.0465302060625
 20
-203.1939084043163
 30
0.0
 11
355.9870198180233
 21
-204.7576281676928
 31
0.0
  0
LINE
  5
142
  8
MAKE2D$VISIBLE$LINES
 10
355.9870198180233
 20
-204.7576281676928
 30
0.0
 11
355.8878358379579
 21
-206.3221611066537
 31
0.0
  0
LINE
  5
143
  8
MAKE2D$VISIBLE$LINES
 10
355.8878358379579
 20
-206.3221611066537
 30
0.0
 11
355.7489782658665
 21
-207.8875072211988
 31
0.0
  0
LINE
  5
144
  8
MAKE2D$VISIBLE$LINES
 10
355.7489782658665
 20
-207.8875072211988
 30
0.0
 11
355.5704471017488
 21
-209.4536665113283
 31
0.0
  0
LINE
  5
145
  8
MAKE2D$VISIBLE$LINES
 10
355.5704471017488
 20
-209.4536665113283
 30
0.0
 11
355.352242345605
 21
-211.0206389770421
 31
0.0
  0
LINE
  5
146
  8
MAKE2D$VISIBLE$LINES
 10
355.352242345605
 20
-211.0206389770421
 30
0.0
 11
355.0943639974349
 21
-212.5884246183403
 31
0.0
  0
LINE
  5
147
  8
MAKE2D$VISIBLE$LINES
 10
355.0943639974349
 20
-212.5884246183403
 30
0.0
 11
354.7968120572388
 21
-214.1570234352228
 31
0.0
  0
LINE
  5
148
  8
MAKE2D$VISIBLE$LINES
 10
354.7968120572388
 20
-214.1570234352228
 30
0.0
 11
354.4595865250164
 21
-215.7264354276896
 31
0.0
  0
LINE
  5
149
  8
MAKE2D$VISIBLE$LINES
 10
354.4595865250164
 20
-215.7264354276896
 30
0.0
 11
354.082687400768
 21
-217.2966605957407
 31
0.0
  0
LINE
  5
14A
  8
MAKE2D$VISIBLE$LINES
 10
354.082687400768
 20
-217.2966605957407
 30
0.0
 11
353.6661146844933
 21
-218.8676989393762
 31
0.0
  0
LINE
  5
14B
  8
MAKE2D$VISIBLE$LINES
 10
353.6661146844933
 20
-218.8676989393762
 30
0.0
 11
353.2098683761925
 21
-220.439550458596
 31
0.0
  0
LINE
  5
14C
  8
MAKE2D$VISIBLE$LINES
 10
353.2098683761925
 20
-220.439550458596
 30
0.0
 11
352.7139484758655
 21
-222.0122151534002
 31
0.0
  0
LINE
  5
14D
  8
MAKE2D$VISIBLE$LINES
 10
352.7139484758655
 20
-222.0122151534002
 30
0.0
 11
352.1783549835125
 21
-223.5856930237887
 31
0.0
  0
LINE
  5
14E
  8
MAKE2D$VISIBLE$LINES
 10
352.1783549835125
 20
-223.5856930237887
 30
0.0
 11
351.6030878991332
 21
-225.1599840697615
 31
0.0
  0
LINE
  5
14F
  8
MAKE2D$VISIBLE$LINES
 10
351.6030878991332
 20
-225.1599840697615
 30
0.0
 11
350.9881472227278
 21
-226.7350882913186
 31
0.0
  0
LINE
  5
150
  8
MAKE2D$VISIBLE$LINES
 10
350.9881472227278
 20
-226.7350882913186
 30
0.0
 11
345.9882317002052
 21
-226.7350882913188
 31
0.0
  0
LINE
  5
151
  8
MAKE2D$VISIBLE$LINES
 10
345.9882317002052
 20
-226.7350882913188
 30
0.0
 11
346.0277554932885
 21
-226.0836334003437
 31
0.0
  0
LINE
  5
152
  8
MAKE2D$VISIBLE$LINES
 10
346.0277554932885
 20
-226.0836334003437
 30
0.0
 11
346.0478615966819
 21
-225.4391246504528
 31
0.0
  0
LINE
  5
153
  8
MAKE2D$VISIBLE$LINES
 10
346.0478615966819
 20
-225.4391246504528
 30
0.0
 11
346.0488672883112
 21
-224.8016680595861
 31
0.0
  0
LINE
  5
154
  8
MAKE2D$VISIBLE$LINES
 10
346.0488672883112
 20
-224.8016680595861
 30
0.0
 11
346.0310898461018
 21
-224.1713696456835
 31
0.0
  0
LINE
  5
155
  8
MAKE2D$VISIBLE$LINES
 10
346.0310898461018
 20
-224.1713696456835
 30
0.0
 11
345.9948465479794
 21
-223.5483354266851
 31
0.0
  0
LINE
  5
156
  8
MAKE2D$VISIBLE$LINES
 10
345.9948465479794
 20
-223.5483354266851
 30
0.0
 11
345.9404546718695
 21
-222.9326714205309
 31
0.0
  0
LINE
  5
157
  8
MAKE2D$VISIBLE$LINES
 10
345.9404546718695
 20
-222.9326714205309
 30
0.0
 11
345.8682314956977
 21
-222.3244836451608
 31
0.0
  0
LINE
  5
158
  8
MAKE2D$VISIBLE$LINES
 10
345.8682314956977
 20
-222.3244836451608
 30
0.0
 11
345.7784942973896
 21
-221.7238781185149
 31
0.0
  0
LINE
  5
159
  8
MAKE2D$VISIBLE$LINES
 10
345.7784942973896
 20
-221.7238781185149
 30
0.0
 11
345.6715603548707
 21
-221.1309608585332
 31
0.0
  0
LINE
  5
15A
  8
MAKE2D$VISIBLE$LINES
 10
345.6715603548707
 20
-221.1309608585332
 30
0.0
 11
345.5477469460666
 21
-220.5458378831557
 31
0.0
  0
LINE
  5
15B
  8
MAKE2D$VISIBLE$LINES
 10
345.5477469460666
 20
-220.5458378831557
 30
0.0
 11
345.4073713489029
 21
-219.9686152103223
 31
0.0
  0
LINE
  5
15C
  8
MAKE2D$VISIBLE$LINES
 10
345.4073713489029
 20
-219.9686152103223
 30
0.0
 11
345.2507508413053
 21
-219.3993988579731
 31
0.0
  0
LINE
  5
15D
  8
MAKE2D$VISIBLE$LINES
 10
345.2507508413053
 20
-219.3993988579731
 30
0.0
 11
345.0782027011991
 21
-218.8382948440481
 31
0.0
  0
LINE
  5
15E
  8
MAKE2D$VISIBLE$LINES
 10
345.0782027011991
 20
-218.8382948440481
 30
0.0
 11
344.8900442065101
 21
-218.2854091864872
 31
0.0
  0
LINE
  5
15F
  8
MAKE2D$VISIBLE$LINES
 10
344.8900442065101
 20
-218.2854091864872
 30
0.0
 11
344.6865926351637
 21
-217.7408479032306
 31
0.0
  0
LINE
  5
160
  8
MAKE2D$VISIBLE$LINES
 10
344.6865926351637
 20
-217.7408479032306
 30
0.0
 11
344.4681652650856
 21
-217.2047170122181
 31
0.0
  0
LINE
  5
161
  8
MAKE2D$VISIBLE$LINES
 10
344.4681652650856
 20
-217.2047170122181
 30
0.0
 11
344.2350793742014
 21
-216.6771225313898
 31
0.0
  0
LINE
  5
162
  8
MAKE2D$VISIBLE$LINES
 10
344.2350793742014
 20
-216.6771225313898
 30
0.0
 11
343.9876522404365
 21
-216.1581704786857
 31
0.0
  0
LINE
  5
163
  8
MAKE2D$VISIBLE$LINES
 10
343.9876522404365
 20
-216.1581704786857
 30
0.0
 11
343.7262011417166
 21
-215.6479668720457
 31
0.0
  0
LINE
  5
164
  8
MAKE2D$VISIBLE$LINES
 10
343.7262011417166
 20
-215.6479668720457
 30
0.0
 11
343.4510433559673
 21
-215.1466177294099
 31
0.0
  0
LINE
  5
165
  8
MAKE2D$VISIBLE$LINES
 10
343.4510433559673
 20
-215.1466177294099
 30
0.0
 11
343.1624961611142
 21
-214.6542290687183
 31
0.0
  0
LINE
  5
166
  8
MAKE2D$VISIBLE$LINES
 10
343.1624961611142
 20
-214.6542290687183
 30
0.0
 11
342.8608768350826
 21
-214.1709069079109
 31
0.0
  0
LINE
  5
167
  8
MAKE2D$VISIBLE$LINES
 10
342.8608768350826
 20
-214.1709069079109
 30
0.0
 11
342.5465026557985
 21
-213.6967572649276
 31
0.0
  0
LINE
  5
168
  8
MAKE2D$VISIBLE$LINES
 10
342.5465026557985
 20
-213.6967572649276
 30
0.0
 11
342.2196909011871
 21
-213.2318861577085
 31
0.0
  0
LINE
  5
169
  8
MAKE2D$VISIBLE$LINES
 10
342.2196909011871
 20
-213.2318861577085
 30
0.0
 11
341.8807588491741
 21
-212.7763996041936
 31
0.0
  0
LINE
  5
16A
  8
MAKE2D$VISIBLE$LINES
 10
341.8807588491741
 20
-212.7763996041936
 30
0.0
 11
341.5300237776851
 21
-212.3304036223228
 31
0.0
  0
LINE
  5
16B
  8
MAKE2D$VISIBLE$LINES
 10
341.5300237776851
 20
-212.3304036223228
 30
0.0
 11
341.1678029646457
 21
-211.8940042300363
 31
0.0
  0
LINE
  5
16C
  8
MAKE2D$VISIBLE$LINES
 10
341.1678029646457
 20
-211.8940042300363
 30
0.0
 11
340.7944136879815
 21
-211.4673074452739
 31
0.0
  0
LINE
  5
16D
  8
MAKE2D$VISIBLE$LINES
 10
340.7944136879815
 20
-211.4673074452739
 30
0.0
 11
340.4101732256179
 21
-211.0504192859757
 31
0.0
  0
LINE
  5
16E
  8
MAKE2D$VISIBLE$LINES
 10
340.4101732256179
 20
-211.0504192859757
 30
0.0
 11
340.0153988554807
 21
-210.6434457700817
 31
0.0
  0
LINE
  5
16F
  8
MAKE2D$VISIBLE$LINES
 10
340.0153988554807
 20
-210.6434457700817
 30
0.0
 11
339.6104078554953
 21
-210.2464929155318
 31
0.0
  0
LINE
  5
170
  8
MAKE2D$VISIBLE$LINES
 10
339.6104078554953
 20
-210.2464929155318
 30
0.0
 11
339.1955175035873
 21
-209.8596667402661
 31
0.0
  0
LINE
  5
171
  8
MAKE2D$VISIBLE$LINES
 10
339.1955175035873
 20
-209.8596667402661
 30
0.0
 11
338.7710450776823
 21
-209.4830732622247
 31
0.0
  0
LINE
  5
172
  8
MAKE2D$VISIBLE$LINES
 10
338.7710450776823
 20
-209.4830732622247
 30
0.0
 11
338.3373078557059
 21
-209.1168184993473
 31
0.0
  0
LINE
  5
173
  8
MAKE2D$VISIBLE$LINES
 10
338.3373078557059
 20
-209.1168184993473
 30
0.0
 11
337.8946231155837
 21
-208.7610084695742
 31
0.0
  0
LINE
  5
174
  8
MAKE2D$VISIBLE$LINES
 10
337.8946231155837
 20
-208.7610084695742
 30
0.0
 11
337.4433081352412
 21
-208.4157491908452
 31
0.0
  0
LINE
  5
175
  8
MAKE2D$VISIBLE$LINES
 10
337.4433081352412
 20
-208.4157491908452
 30
0.0
 11
336.983680192604
 21
-208.0811466811004
 31
0.0
  0
LINE
  5
176
  8
MAKE2D$VISIBLE$LINES
 10
336.983680192604
 20
-208.0811466811004
 30
0.0
 11
336.5160565655976
 21
-207.7573069582798
 31
0.0
  0
LINE
  5
177
  8
MAKE2D$VISIBLE$LINES
 10
336.5160565655976
 20
-207.7573069582798
 30
0.0
 11
336.0407545321478
 21
-207.4443360403233
 31
0.0
  0
LINE
  5
178
  8
MAKE2D$VISIBLE$LINES
 10
336.0407545321478
 20
-207.4443360403233
 30
0.0
 11
335.55809137018
 21
-207.1423399451711
 31
0.0
  0
LINE
  5
179
  8
MAKE2D$VISIBLE$LINES
 10
335.55809137018
 20
-207.1423399451711
 30
0.0
 11
335.0683843576197
 21
-206.851424690763
 31
0.0
  0
LINE
  5
17A
  8
MAKE2D$VISIBLE$LINES
 10
335.0683843576197
 20
-206.851424690763
 30
0.0
 11
334.5719507723926
 21
-206.5716962950391
 31
0.0
  0
LINE
  5
17B
  8
MAKE2D$VISIBLE$LINES
 10
334.5719507723926
 20
-206.5716962950391
 30
0.0
 11
334.0691078924243
 21
-206.3032607759394
 31
0.0
  0
LINE
  5
17C
  8
MAKE2D$VISIBLE$LINES
 10
334.0691078924243
 20
-206.3032607759394
 30
0.0
 11
333.5601729956402
 21
-206.0462241514038
 31
0.0
  0
LINE
  5
17D
  8
MAKE2D$VISIBLE$LINES
 10
333.5601729956402
 20
-206.0462241514038
 30
0.0
 11
333.0454633599661
 21
-205.8006924393724
 31
0.0
  0
LINE
  5
17E
  8
MAKE2D$VISIBLE$LINES
 10
333.0454633599661
 20
-205.8006924393724
 30
0.0
 11
332.5252962633274
 21
-205.5667716577852
 31
0.0
  0
LINE
  5
17F
  8
MAKE2D$VISIBLE$LINES
 10
332.5252962633274
 20
-205.5667716577852
 30
0.0
 11
331.9999889836498
 21
-205.3445678245822
 31
0.0
  0
LINE
  5
180
  8
MAKE2D$VISIBLE$LINES
 10
331.9999889836498
 20
-205.3445678245822
 30
0.0
 11
331.4698587988588
 21
-205.1341869577034
 31
0.0
  0
LINE
  5
181
  8
MAKE2D$VISIBLE$LINES
 10
331.4698587988588
 20
-205.1341869577034
 30
0.0
 11
330.9352229868799
 21
-204.9357350750887
 31
0.0
  0
LINE
  5
182
  8
MAKE2D$VISIBLE$LINES
 10
330.9352229868799
 20
-204.9357350750887
 30
0.0
 11
330.3963988256388
 21
-204.7493181946782
 31
0.0
  0
LINE
  5
183
  8
MAKE2D$VISIBLE$LINES
 10
330.3963988256388
 20
-204.7493181946782
 30
0.0
 11
329.853703593061
 21
-204.5750423344119
 31
0.0
  0
LINE
  5
184
  8
MAKE2D$VISIBLE$LINES
 10
329.853703593061
 20
-204.5750423344119
 30
0.0
 11
329.3074545670721
 21
-204.4130135122298
 31
0.0
  0
LINE
  5
185
  8
MAKE2D$VISIBLE$LINES
 10
329.3074545670721
 20
-204.4130135122298
 30
0.0
 11
328.7579690255977
 21
-204.2633377460718
 31
0.0
  0
LINE
  5
186
  8
MAKE2D$VISIBLE$LINES
 10
328.7579690255977
 20
-204.2633377460718
 30
0.0
 11
328.2055642465634
 21
-204.1261210538781
 31
0.0
  0
LINE
  5
187
  8
MAKE2D$VISIBLE$LINES
 10
328.2055642465634
 20
-204.1261210538781
 30
0.0
 11
327.6505575078946
 21
-204.0014694535885
 31
0.0
  0
LINE
  5
188
  8
MAKE2D$VISIBLE$LINES
 10
327.6505575078946
 20
-204.0014694535885
 30
0.0
 11
327.0932660875171
 21
-203.8894889631431
 31
0.0
  0
LINE
  5
189
  8
MAKE2D$VISIBLE$LINES
 10
327.0932660875171
 20
-203.8894889631431
 30
0.0
 11
326.5340072633564
 21
-203.7902856004819
 31
0.0
  0
LINE
  5
18A
  8
MAKE2D$VISIBLE$LINES
 10
326.5340072633564
 20
-203.7902856004819
 30
0.0
 11
325.973098313338
 21
-203.7039653835448
 31
0.0
  0
LINE
  5
18B
  8
MAKE2D$VISIBLE$LINES
 10
325.973098313338
 20
-203.7039653835448
 30
0.0
 11
325.4108565153875
 21
-203.6306343302719
 31
0.0
  0
LINE
  5
18C
  8
MAKE2D$VISIBLE$LINES
 10
325.4108565153875
 20
-203.6306343302719
 30
0.0
 11
324.8475991474305
 21
-203.5703984586032
 31
0.0
  0
LINE
  5
18D
  8
MAKE2D$VISIBLE$LINES
 10
324.8475991474305
 20
-203.5703984586032
 30
0.0
 11
324.2836434873925
 21
-203.5233637864787
 31
0.0
  0
LINE
  5
18E
  8
MAKE2D$VISIBLE$LINES
 10
324.2836434873925
 20
-203.5233637864787
 30
0.0
 11
323.7193068131992
 21
-203.4896363318384
 31
0.0
  0
LINE
  5
18F
  8
MAKE2D$VISIBLE$LINES
 10
323.7193068131992
 20
-203.4896363318384
 30
0.0
 11
323.1549064027761
 21
-203.4693221126223
 31
0.0
  0
LINE
  5
190
  8
MAKE2D$VISIBLE$LINES
 10
323.1549064027761
 20
-203.4693221126223
 30
0.0
 11
322.5907595340487
 21
-203.4625271467703
 31
0.0
  0
LINE
  5
191
  8
MAKE2D$VISIBLE$LINES
 10
322.5907595340487
 20
-203.4625271467703
 30
0.0
 11
196.4883657115162
 21
-203.4625271787127
 31
0.0
  0
LINE
  5
192
  8
MAKE2D$VISIBLE$LINES
 10
196.4883657115162
 20
-203.4625271787127
 30
0.0
 11
70.38597188898356
 21
-203.4625271467703
 31
0.0
  0
LINE
  5
193
  8
MAKE2D$VISIBLE$LINES
 10
70.38597188898356
 20
-203.4625271467703
 30
0.0
 11
69.82182502025623
 21
-203.4693221126223
 31
0.0
  0
LINE
  5
194
  8
MAKE2D$VISIBLE$LINES
 10
69.82182502025623
 20
-203.4693221126223
 30
0.0
 11
69.25742460983311
 21
-203.4896363318384
 31
0.0
  0
LINE
  5
195
  8
MAKE2D$VISIBLE$LINES
 10
69.25742460983311
 20
-203.4896363318384
 30
0.0
 11
68.69308793563978
 21
-203.5233637864787
 31
0.0
  0
LINE
  5
196
  8
MAKE2D$VISIBLE$LINES
 10
68.69308793563978
 20
-203.5233637864787
 30
0.0
 11
68.12913227560182
 21
-203.5703984586032
 31
0.0
  0
LINE
  5
197
  8
MAKE2D$VISIBLE$LINES
 10
68.12913227560182
 20
-203.5703984586032
 30
0.0
 11
67.56587490764478
 21
-203.6306343302719
 31
0.0
  0
LINE
  5
198
  8
MAKE2D$VISIBLE$LINES
 10
67.56587490764478
 20
-203.6306343302719
 30
0.0
 11
67.00363310969426
 21
-203.7039653835448
 31
0.0
  0
LINE
  5
199
  8
MAKE2D$VISIBLE$LINES
 10
67.00363310969426
 20
-203.7039653835448
 30
0.0
 11
66.44272415967583
 21
-203.7902856004819
 31
0.0
  0
LINE
  5
19A
  8
MAKE2D$VISIBLE$LINES
 10
66.44272415967583
 20
-203.7902856004819
 30
0.0
 11
65.88346533551507
 21
-203.8894889631431
 31
0.0
  0
LINE
  5
19B
  8
MAKE2D$VISIBLE$LINES
 10
65.88346533551507
 20
-203.8894889631431
 30
0.0
 11
65.32617391513753
 21
-204.0014694535885
 31
0.0
  0
LINE
  5
19C
  8
MAKE2D$VISIBLE$LINES
 10
65.32617391513753
 20
-204.0014694535885
 30
0.0
 11
64.7711671764688
 21
-204.1261210538781
 31
0.0
  0
LINE
  5
19D
  8
MAKE2D$VISIBLE$LINES
 10
64.7711671764688
 20
-204.1261210538781
 30
0.0
 11
64.21876239743443
 21
-204.2633377460718
 31
0.0
  0
LINE
  5
19E
  8
MAKE2D$VISIBLE$LINES
 10
64.21876239743443
 20
-204.2633377460718
 30
0.0
 11
63.66927685596004
 21
-204.4130135122298
 31
0.0
  0
LINE
  5
19F
  8
MAKE2D$VISIBLE$LINES
 10
63.66927685596004
 20
-204.4130135122298
 30
0.0
 11
63.12302782997116
 21
-204.5750423344119
 31
0.0
  0
LINE
  5
1A0
  8
MAKE2D$VISIBLE$LINES
 10
63.12302782997116
 20
-204.5750423344119
 30
0.0
 11
62.58033259739338
 21
-204.7493181946782
 31
0.0
  0
LINE
  5
1A1
  8
MAKE2D$VISIBLE$LINES
 10
62.58033259739338
 20
-204.7493181946782
 30
0.0
 11
62.04150843615227
 21
-204.9357350750887
 31
0.0
  0
LINE
  5
1A2
  8
MAKE2D$VISIBLE$LINES
 10
62.04150843615227
 20
-204.9357350750887
 30
0.0
 11
61.50687262417341
 21
-205.1341869577034
 31
0.0
  0
LINE
  5
1A3
  8
MAKE2D$VISIBLE$LINES
 10
61.50687262417341
 20
-205.1341869577034
 30
0.0
 11
60.97674243938238
 21
-205.3445678245822
 31
0.0
  0
LINE
  5
1A4
  8
MAKE2D$VISIBLE$LINES
 10
60.97674243938238
 20
-205.3445678245822
 30
0.0
 11
60.45143515970472
 21
-205.5667716577852
 31
0.0
  0
LINE
  5
1A5
  8
MAKE2D$VISIBLE$LINES
 10
60.45143515970472
 20
-205.5667716577852
 30
0.0
 11
59.93126806306604
 21
-205.8006924393724
 31
0.0
  0
LINE
  5
1A6
  8
MAKE2D$VISIBLE$LINES
 10
59.93126806306604
 20
-205.8006924393724
 30
0.0
 11
59.41655842739189
 21
-206.0462241514038
 31
0.0
  0
LINE
  5
1A7
  8
MAKE2D$VISIBLE$LINES
 10
59.41655842739189
 20
-206.0462241514038
 30
0.0
 11
58.90762353060786
 21
-206.3032607759394
 31
0.0
  0
LINE
  5
1A8
  8
MAKE2D$VISIBLE$LINES
 10
58.90762353060786
 20
-206.3032607759394
 30
0.0
 11
58.4047806506395
 21
-206.5716962950391
 31
0.0
  0
LINE
  5
1A9
  8
MAKE2D$VISIBLE$LINES
 10
58.4047806506395
 20
-206.5716962950391
 30
0.0
 11
57.90834706541241
 21
-206.851424690763
 31
0.0
  0
LINE
  5
1AA
  8
MAKE2D$VISIBLE$LINES
 10
57.90834706541241
 20
-206.851424690763
 30
0.0
 11
57.41864005285215
 21
-207.1423399451711
 31
0.0
  0
LINE
  5
1AB
  8
MAKE2D$VISIBLE$LINES
 10
57.41864005285215
 20
-207.1423399451711
 30
0.0
 11
56.93597689088431
 21
-207.4443360403233
 31
0.0
  0
LINE
  5
1AC
  8
MAKE2D$VISIBLE$LINES
 10
56.93597689088431
 20
-207.4443360403233
 30
0.0
 11
56.46067485743443
 21
-207.7573069582798
 31
0.0
  0
LINE
  5
1AD
  8
MAKE2D$VISIBLE$LINES
 10
56.46067485743443
 20
-207.7573069582798
 30
0.0
 11
55.99305123042812
 21
-208.0811466811004
 31
0.0
  0
LINE
  5
1AE
  8
MAKE2D$VISIBLE$LINES
 10
55.99305123042812
 20
-208.0811466811004
 30
0.0
 11
55.53342328779092
 21
-208.4157491908452
 31
0.0
  0
LINE
  5
1AF
  8
MAKE2D$VISIBLE$LINES
 10
55.53342328779092
 20
-208.4157491908452
 30
0.0
 11
55.08210830744844
 21
-208.7610084695742
 31
0.0
  0
LINE
  5
1B0
  8
MAKE2D$VISIBLE$LINES
 10
55.08210830744844
 20
-208.7610084695742
 30
0.0
 11
54.63942356732622
 21
-209.1168184993473
 31
0.0
  0
LINE
  5
1B1
  8
MAKE2D$VISIBLE$LINES
 10
54.63942356732622
 20
-209.1168184993473
 30
0.0
 11
54.20568634534985
 21
-209.4830732622247
 31
0.0
  0
LINE
  5
1B2
  8
MAKE2D$VISIBLE$LINES
 10
54.20568634534985
 20
-209.4830732622247
 30
0.0
 11
53.78121391944489
 21
-209.8596667402661
 31
0.0
  0
LINE
  5
1B3
  8
MAKE2D$VISIBLE$LINES
 10
53.78121391944489
 20
-209.8596667402661
 30
0.0
 11
53.36632356753694
 21
-210.2464929155318
 31
0.0
  0
LINE
  5
1B4
  8
MAKE2D$VISIBLE$LINES
 10
53.36632356753694
 20
-210.2464929155318
 30
0.0
 11
52.96133256755154
 21
-210.6434457700817
 31
0.0
  0
LINE
  5
1B5
  8
MAKE2D$VISIBLE$LINES
 10
52.96133256755154
 20
-210.6434457700817
 30
0.0
 11
52.5665581974143
 21
-211.0504192859757
 31
0.0
  0
LINE
  5
1B6
  8
MAKE2D$VISIBLE$LINES
 10
52.5665581974143
 20
-211.0504192859757
 30
0.0
 11
52.18231773505075
 21
-211.4673074452739
 31
0.0
  0
LINE
  5
1B7
  8
MAKE2D$VISIBLE$LINES
 10
52.18231773505075
 20
-211.4673074452739
 30
0.0
 11
51.8089284583865
 21
-211.8940042300363
 31
0.0
  0
LINE
  5
1B8
  8
MAKE2D$VISIBLE$LINES
 10
51.8089284583865
 20
-211.8940042300363
 30
0.0
 11
51.4467076453471
 21
-212.3304036223228
 31
0.0
  0
LINE
  5
1B9
  8
MAKE2D$VISIBLE$LINES
 10
51.4467076453471
 20
-212.3304036223228
 30
0.0
 11
51.09597257385815
 21
-212.7763996041936
 31
0.0
  0
LINE
  5
1BA
  8
MAKE2D$VISIBLE$LINES
 10
51.09597257385815
 20
-212.7763996041936
 30
0.0
 11
50.7570405218452
 21
-213.2318861577085
 31
0.0
  0
LINE
  5
1BB
  8
MAKE2D$VISIBLE$LINES
 10
50.7570405218452
 20
-213.2318861577085
 30
0.0
 11
50.43022876723383
 21
-213.6967572649276
 31
0.0
  0
LINE
  5
1BC
  8
MAKE2D$VISIBLE$LINES
 10
50.43022876723383
 20
-213.6967572649276
 30
0.0
 11
50.11585458794961
 21
-214.1709069079109
 31
0.0
  0
LINE
  5
1BD
  8
MAKE2D$VISIBLE$LINES
 10
50.11585458794961
 20
-214.1709069079109
 30
0.0
 11
49.81423526191812
 21
-214.6542290687183
 31
0.0
  0
LINE
  5
1BE
  8
MAKE2D$VISIBLE$LINES
 10
49.81423526191812
 20
-214.6542290687183
 30
0.0
 11
49.52568806706493
 21
-215.1466177294099
 31
0.0
  0
LINE
  5
1BF
  8
MAKE2D$VISIBLE$LINES
 10
49.52568806706493
 20
-215.1466177294099
 30
0.0
 11
49.2505302813156
 21
-215.6479668720457
 31
0.0
  0
LINE
  5
1C0
  8
MAKE2D$VISIBLE$LINES
 10
49.2505302813156
 20
-215.6479668720457
 30
0.0
 11
48.98907918259574
 21
-216.1581704786857
 31
0.0
  0
LINE
  5
1C1
  8
MAKE2D$VISIBLE$LINES
 10
48.98907918259574
 20
-216.1581704786857
 30
0.0
 11
48.74165204883089
 21
-216.6771225313898
 31
0.0
  0
LINE
  5
1C2
  8
MAKE2D$VISIBLE$LINES
 10
48.74165204883089
 20
-216.6771225313898
 30
0.0
 11
48.50856615794663
 21
-217.2047170122181
 31
0.0
  0
LINE
  5
1C3
  8
MAKE2D$VISIBLE$LINES
 10
48.50856615794663
 20
-217.2047170122181
 30
0.0
 11
48.29013878786854
 21
-217.7408479032306
 31
0.0
  0
LINE
  5
1C4
  8
MAKE2D$VISIBLE$LINES
 10
48.29013878786854
 20
-217.7408479032306
 30
0.0
 11
48.08668721652219
 21
-218.2854091864872
 31
0.0
  0
LINE
  5
1C5
  8
MAKE2D$VISIBLE$LINES
 10
48.08668721652219
 20
-218.2854091864872
 30
0.0
 11
47.89852872183316
 21
-218.8382948440481
 31
0.0
  0
LINE
  5
1C6
  8
MAKE2D$VISIBLE$LINES
 10
47.89852872183316
 20
-218.8382948440481
 30
0.0
 11
47.72598058172701
 21
-219.3993988579731
 31
0.0
  0
LINE
  5
1C7
  8
MAKE2D$VISIBLE$LINES
 10
47.72598058172701
 20
-219.3993988579731
 30
0.0
 11
47.56936007412932
 21
-219.9686152103223
 31
0.0
  0
LINE
  5
1C8
  8
MAKE2D$VISIBLE$LINES
 10
47.56936007412932
 20
-219.9686152103223
 30
0.0
 11
47.42898447696568
 21
-220.5458378831557
 31
0.0
  0
LINE
  5
1C9
  8
MAKE2D$VISIBLE$LINES
 10
47.42898447696568
 20
-220.5458378831557
 30
0.0
 11
47.30517106816164
 21
-221.1309608585332
 31
0.0
  0
LINE
  5
1CA
  8
MAKE2D$VISIBLE$LINES
 10
47.30517106816164
 20
-221.1309608585332
 30
0.0
 11
47.19823712564278
 21
-221.7238781185149
 31
0.0
  0
LINE
  5
1CB
  8
MAKE2D$VISIBLE$LINES
 10
47.19823712564278
 20
-221.7238781185149
 30
0.0
 11
47.10849992733466
 21
-222.3244836451608
 31
0.0
  0
LINE
  5
1CC
  8
MAKE2D$VISIBLE$LINES
 10
47.10849992733466
 20
-222.3244836451608
 30
0.0
 11
47.03627675116289
 21
-222.9326714205309
 31
0.0
  0
LINE
  5
1CD
  8
MAKE2D$VISIBLE$LINES
 10
47.03627675116289
 20
-222.9326714205309
 30
0.0
 11
46.981884875053
 21
-223.5483354266851
 31
0.0
  0
LINE
  5
1CE
  8
MAKE2D$VISIBLE$LINES
 10
46.981884875053
 20
-223.5483354266851
 30
0.0
 11
46.9456415769306
 21
-224.1713696456835
 31
0.0
  0
LINE
  5
1CF
  8
MAKE2D$VISIBLE$LINES
 10
46.9456415769306
 20
-224.1713696456835
 30
0.0
 11
46.92786413472124
 21
-224.8016680595861
 31
0.0
  0
LINE
  5
1D0
  8
MAKE2D$VISIBLE$LINES
 10
46.92786413472124
 20
-224.8016680595861
 30
0.0
 11
46.92886982635051
 21
-225.4391246504528
 31
0.0
  0
LINE
  5
1D1
  8
MAKE2D$VISIBLE$LINES
 10
46.92886982635051
 20
-225.4391246504528
 30
0.0
 11
46.94897592974397
 21
-226.0836334003437
 31
0.0
  0
LINE
  5
1D2
  8
MAKE2D$VISIBLE$LINES
 10
46.94897592974397
 20
-226.0836334003437
 30
0.0
 11
46.9884997228272
 21
-226.7350882913188
 31
0.0
  0
LINE
  5
1D3
  8
MAKE2D$VISIBLE$LINES
 10
46.9884997228272
 20
-226.7350882913188
 30
0.0
 11
41.98858420030431
 21
-226.7350882913184
 31
0.0
  0
LINE
  5
1D4
  8
MAKE2D$VISIBLE$LINES
 10
41.98858420030431
 20
-226.7350882913184
 30
0.0
 11
41.37364352389889
 21
-225.1599840697613
 31
0.0
  0
LINE
  5
1D5
  8
MAKE2D$VISIBLE$LINES
 10
41.37364352389889
 20
-225.1599840697613
 30
0.0
 11
40.79837643951964
 21
-223.5856930237885
 31
0.0
  0
LINE
  5
1D6
  8
MAKE2D$VISIBLE$LINES
 10
40.79837643951964
 20
-223.5856930237885
 30
0.0
 11
40.26278294716654
 21
-222.0122151534001
 31
0.0
  0
LINE
  5
1D7
  8
MAKE2D$VISIBLE$LINES
 10
40.26278294716654
 20
-222.0122151534001
 30
0.0
 11
39.76686304683959
 21
-220.4395504585959
 31
0.0
  0
LINE
  5
1D8
  8
MAKE2D$VISIBLE$LINES
 10
39.76686304683959
 20
-220.4395504585959
 30
0.0
 11
39.3106167385388
 21
-218.8676989393761
 31
0.0
  0
LINE
  5
1D9
  8
MAKE2D$VISIBLE$LINES
 10
39.3106167385388
 20
-218.8676989393761
 30
0.0
 11
38.89404402226417
 21
-217.2966605957407
 31
0.0
  0
LINE
  5
1DA
  8
MAKE2D$VISIBLE$LINES
 10
38.89404402226417
 20
-217.2966605957407
 30
0.0
 11
38.51714489801569
 21
-215.7264354276895
 31
0.0
  0
LINE
  5
1DB
  8
MAKE2D$VISIBLE$LINES
 10
38.51714489801569
 20
-215.7264354276895
 30
0.0
 11
38.17991936579338
 21
-214.1570234352227
 31
0.0
  0
LINE
  5
1DC
  8
MAKE2D$VISIBLE$LINES
 10
38.17991936579338
 20
-214.1570234352227
 30
0.0
 11
37.88236742559723
 21
-212.5884246183403
 31
0.0
  0
LINE
  5
1DD
  8
MAKE2D$VISIBLE$LINES
 10
37.88236742559723
 20
-212.5884246183403
 30
0.0
 11
37.62448907742723
 21
-211.0206389770422
 31
0.0
  0
LINE
  5
1DE
  8
MAKE2D$VISIBLE$LINES
 10
37.62448907742723
 20
-211.0206389770422
 30
0.0
 11
37.40628432128339
 21
-209.4536665113284
 31
0.0
  0
LINE
  5
1DF
  8
MAKE2D$VISIBLE$LINES
 10
37.40628432128339
 20
-209.4536665113284
 30
0.0
 11
37.22775315716571
 21
-207.8875072211989
 31
0.0
  0
LINE
  5
1E0
  8
MAKE2D$VISIBLE$LINES
 10
37.22775315716571
 20
-207.8875072211989
 30
0.0
 11
37.08889558507418
 21
-206.3221611066537
 31
0.0
  0
LINE
  5
1E1
  8
MAKE2D$VISIBLE$LINES
 10
37.08889558507418
 20
-206.3221611066537
 30
0.0
 11
36.98971160500882
 21
-204.7576281676929
 31
0.0
  0
LINE
  5
1E2
  8
MAKE2D$VISIBLE$LINES
 10
36.98971160500882
 20
-204.7576281676929
 30
0.0
 11
36.93020121696962
 21
-203.1939084043165
 31
0.0
  0
LINE
  5
1E3
  8
MAKE2D$VISIBLE$LINES
 10
36.93020121696962
 20
-203.1939084043165
 30
0.0
 11
36.91036442095657
 21
-201.6310018165243
 31
0.0
  0
LINE
  5
1E4
  8
MAKE2D$VISIBLE$LINES
 10
36.91036442095657
 20
-201.6310018165243
 30
0.0
 11
36.93020121696968
 21
-200.0689084043165
 31
0.0
  0
LINE
  5
1E5
  8
MAKE2D$VISIBLE$LINES
 10
36.93020121696968
 20
-200.0689084043165
 30
0.0
 11
36.98971160500895
 21
-198.507628167693
 31
0.0
  0
LINE
  5
1E6
  8
MAKE2D$VISIBLE$LINES
 10
36.98971160500895
 20
-198.507628167693
 30
0.0
 11
37.08889558507438
 21
-196.9471611066539
 31
0.0
  0
LINE
  5
1E7
  8
MAKE2D$VISIBLE$LINES
 10
37.08889558507438
 20
-196.9471611066539
 30
0.0
 11
37.22775315716596
 21
-195.3875072211991
 31
0.0
  0
LINE
  5
1E8
  8
MAKE2D$VISIBLE$LINES
 10
37.22775315716596
 20
-195.3875072211991
 30
0.0
 11
37.40628432128371
 21
-193.8286665113286
 31
0.0
  0
LINE
  5
1E9
  8
MAKE2D$VISIBLE$LINES
 10
37.40628432128371
 20
-193.8286665113286
 30
0.0
 11
37.62448907742762
 21
-192.2706389770424
 31
0.0
  0
LINE
  5
1EA
  8
MAKE2D$VISIBLE$LINES
 10
37.62448907742762
 20
-192.2706389770424
 30
0.0
 11
37.88236742559768
 21
-190.7134246183406
 31
0.0
  0
LINE
  5
1EB
  8
MAKE2D$VISIBLE$LINES
 10
37.88236742559768
 20
-190.7134246183406
 30
0.0
 11
38.17991936579391
 21
-189.1570234352231
 31
0.0
  0
LINE
  5
1EC
  8
MAKE2D$VISIBLE$LINES
 10
38.17991936579391
 20
-189.1570234352231
 30
0.0
 11
38.51714489801628
 21
-187.6014354276899
 31
0.0
  0
LINE
  5
1ED
  8
MAKE2D$VISIBLE$LINES
 10
38.51714489801628
 20
-187.6014354276899
 30
0.0
 11
38.89404402226482
 21
-186.0466605957411
 31
0.0
  0
LINE
  5
1EE
  8
MAKE2D$VISIBLE$LINES
 10
38.89404402226482
 20
-186.0466605957411
 30
0.0
 11
39.31061673853952
 21
-184.4926989393766
 31
0.0
  0
LINE
  5
1EF
  8
MAKE2D$VISIBLE$LINES
 10
39.31061673853952
 20
-184.4926989393766
 30
0.0
 11
39.76686304684038
 21
-182.9395504585964
 31
0.0
  0
LINE
  5
1F0
  8
MAKE2D$VISIBLE$LINES
 10
39.76686304684038
 20
-182.9395504585964
 30
0.0
 11
40.26278294716741
 21
-181.3872151534005
 31
0.0
  0
LINE
  5
1F1
  8
MAKE2D$VISIBLE$LINES
 10
40.26278294716741
 20
-181.3872151534005
 30
0.0
 11
40.79837643952059
 21
-179.835693023789
 31
0.0
  0
LINE
  5
1F2
  8
MAKE2D$VISIBLE$LINES
 10
40.79837643952059
 20
-179.835693023789
 30
0.0
 11
41.37364352389993
 21
-178.2849840697618
 31
0.0
  0
LINE
  5
1F3
  8
MAKE2D$VISIBLE$LINES
 10
41.37364352389993
 20
-178.2849840697618
 30
0.0
 11
41.98858420030543
 21
-176.735088291319
 31
0.0
  0
LINE
  5
1F4
  8
MAKE2D$VISIBLE$LINES
 10
41.98858420030543
 20
-176.735088291319
 30
0.0
 11
46.98849972282631
 21
-176.735088291319
 31
0.0
  0
LINE
  5
1F5
  8
MAKE2D$VISIBLE$LINES
 10
46.98849972282631
 20
-176.735088291319
 30
0.0
 11
46.98849972282564
 21
-100.2609813703348
 31
0.0
  0
LINE
  5
1F6
  8
MAKE2D$VISIBLE$LINES
 10
46.98849972282564
 20
-100.2609813703348
 30
0.0
 11
41.98858420030454
 21
-100.2609813703348
 31
0.0
  0
LINE
  5
1F7
  8
MAKE2D$VISIBLE$LINES
 10
41.98858420030454
 20
-100.2609813703348
 30
0.0
 11
41.37364337728579
 21
-98.71108523400949
 31
0.0
  0
LINE
  5
1F8
  8
MAKE2D$VISIBLE$LINES
 10
41.37364337728579
 20
-98.71108523400949
 30
0.0
 11
40.79837615575213
 21
-97.160375945189
 31
0.0
  0
LINE
  5
1F9
  8
MAKE2D$VISIBLE$LINES
 10
40.79837615575213
 20
-97.160375945189
 30
0.0
 11
40.26278253570355
 21
-95.60885350387335
 31
0.0
  0
LINE
  5
1FA
  8
MAKE2D$VISIBLE$LINES
 10
40.26278253570355
 20
-95.60885350387335
 30
0.0
 11
39.76686251714005
 21
-94.05651791006258
 31
0.0
  0
LINE
  5
1FB
  8
MAKE2D$VISIBLE$LINES
 10
39.76686251714005
 20
-94.05651791006258
 30
0.0
 11
39.31061610006164
 21
-92.50336916375667
 31
0.0
  0
LINE
  5
1FC
  8
MAKE2D$VISIBLE$LINES
 10
39.31061610006164
 20
-92.50336916375667
 30
0.0
 11
38.8940432844683
 21
-90.94940726495562
 31
0.0
  0
LINE
  5
1FD
  8
MAKE2D$VISIBLE$LINES
 10
38.8940432844683
 20
-90.94940726495562
 30
0.0
 11
38.51714407036005
 21
-89.39463221365943
 31
0.0
  0
LINE
  5
1FE
  8
MAKE2D$VISIBLE$LINES
 10
38.51714407036005
 20
-89.39463221365943
 30
0.0
 11
38.17991845773687
 21
-87.83904400986812
 31
0.0
  0
LINE
  5
1FF
  8
MAKE2D$VISIBLE$LINES
 10
38.17991845773687
 20
-87.83904400986812
 30
0.0
 11
37.88236644659878
 21
-86.28264265358166
 31
0.0
  0
LINE
  5
200
  8
MAKE2D$VISIBLE$LINES
 10
37.88236644659878
 20
-86.28264265358166
 30
0.0
 11
37.62448803694577
 21
-84.72542814480006
 31
0.0
  0
LINE
  5
201
  8
MAKE2D$VISIBLE$LINES
 10
37.62448803694577
 20
-84.72542814480006
 30
0.0
 11
37.40628322877784
 21
-83.16740048352332
 31
0.0
  0
LINE
  5
202
  8
MAKE2D$VISIBLE$LINES
 10
37.40628322877784
 20
-83.16740048352332
 30
0.0
 11
37.22775202209499
 21
-81.60855966975146
 31
0.0
  0
LINE
  5
203
  8
MAKE2D$VISIBLE$LINES
 10
37.22775202209499
 20
-81.60855966975146
 30
0.0
 11
37.08889441689723
 21
-80.04890570348445
 31
0.0
  0
LINE
  5
204
  8
MAKE2D$VISIBLE$LINES
 10
37.08889441689723
 20
-80.04890570348445
 30
0.0
 11
36.98971041318455
 21
-78.4884385847223
 31
0.0
  0
LINE
  5
205
  8
MAKE2D$VISIBLE$LINES
 10
36.98971041318455
 20
-78.4884385847223
 30
0.0
 11
36.93020001095694
 21
-76.92715831346501
 31
0.0
  0
LINE
  5
206
  8
MAKE2D$VISIBLE$LINES
 10
36.93020001095694
 20
-76.92715831346501
 30
0.0
 11
36.91036321021443
 21
-75.36506488971258
 31
0.0
  0
LINE
  5
207
  8
MAKE2D$VISIBLE$LINES
 10
36.91036321021443
 20
-75.36506488971258
 30
0.0
 11
36.93020001095699
 21
-73.80215831346503
 31
0.0
  0
LINE
  5
208
  8
MAKE2D$VISIBLE$LINES
 10
36.93020001095699
 20
-73.80215831346503
 30
0.0
 11
36.98971041318463
 21
-72.23843858472233
 31
0.0
  0
LINE
  5
209
  8
MAKE2D$VISIBLE$LINES
 10
36.98971041318463
 20
-72.23843858472233
 30
0.0
 11
37.08889441689735
 21
-70.6739057034845
 31
0.0
  0
LINE
  5
20A
  8
MAKE2D$VISIBLE$LINES
 10
37.08889441689735
 20
-70.6739057034845
 30
0.0
 11
37.22775202209516
 21
-69.10855966975151
 31
0.0
  0
LINE
  5
20B
  8
MAKE2D$VISIBLE$LINES
 10
37.22775202209516
 20
-69.10855966975151
 30
0.0
 11
37.40628322877805
 21
-67.5424004835234
 31
0.0
  0
LINE
  5
20C
  8
MAKE2D$VISIBLE$LINES
 10
37.40628322877805
 20
-67.5424004835234
 30
0.0
 11
37.62448803694602
 21
-65.97542814480013
 31
0.0
  0
LINE
  5
20D
  8
MAKE2D$VISIBLE$LINES
 10
37.62448803694602
 20
-65.97542814480013
 30
0.0
 11
37.88236644659907
 21
-64.40764265358175
 31
0.0
  0
LINE
  5
20E
  8
MAKE2D$VISIBLE$LINES
 10
37.88236644659907
 20
-64.40764265358175
 30
0.0
 11
38.17991845773721
 21
-62.83904400986822
 31
0.0
  0
LINE
  5
20F
  8
MAKE2D$VISIBLE$LINES
 10
38.17991845773721
 20
-62.83904400986822
 30
0.0
 11
38.51714407036042
 21
-61.26963221365956
 31
0.0
  0
LINE
  5
210
  8
MAKE2D$VISIBLE$LINES
 10
38.51714407036042
 20
-61.26963221365956
 30
0.0
 11
38.89404328446872
 21
-59.69940726495575
 31
0.0
  0
LINE
  5
211
  8
MAKE2D$VISIBLE$LINES
 10
38.89404328446872
 20
-59.69940726495575
 30
0.0
 11
39.31061610006209
 21
-58.1283691637568
 31
0.0
  0
LINE
  5
212
  8
MAKE2D$VISIBLE$LINES
 10
39.31061610006209
 20
-58.1283691637568
 30
0.0
 11
39.76686251714055
 21
-56.55651791006271
 31
0.0
  0
LINE
  5
213
  8
MAKE2D$VISIBLE$LINES
 10
39.76686251714055
 20
-56.55651791006271
 30
0.0
 11
40.2627825357041
 21
-54.98385350387348
 31
0.0
  0
LINE
  5
214
  8
MAKE2D$VISIBLE$LINES
 10
40.2627825357041
 20
-54.98385350387348
 30
0.0
 11
40.79837615575272
 21
-53.41037594518912
 31
0.0
  0
LINE
  5
215
  8
MAKE2D$VISIBLE$LINES
 10
40.79837615575272
 20
-53.41037594518912
 30
0.0
 11
41.37364337728642
 21
-51.83608523400962
 31
0.0
  0
LINE
  5
216
  8
MAKE2D$VISIBLE$LINES
 10
41.37364337728642
 20
-51.83608523400962
 30
0.0
 11
41.9885842003052
 21
-50.26098137033497
 31
0.0
  0
LINE
  5
217
  8
MAKE2D$VISIBLE$LINES
 10
41.9885842003052
 20
-50.26098137033497
 30
0.0
 11
46.98849972282586
 21
-50.26098137033475
 31
0.0
  0
LINE
  5
218
  8
MAKE2D$VISIBLE$LINES
 10
46.98849972282586
 20
-50.26098137033475
 30
0.0
 11
47.41756842286669
 21
-50.93618437860849
 31
0.0
  0
LINE
  5
219
  8
MAKE2D$VISIBLE$LINES
 10
47.41756842286669
 20
-50.93618437860849
 30
0.0
 11
47.8648797692332
 21
-51.59422481491621
 31
0.0
  0
LINE
  5
21A
  8
MAKE2D$VISIBLE$LINES
 10
47.8648797692332
 20
-51.59422481491621
 30
0.0
 11
48.32947374463781
 21
-52.23442919618986
 31
0.0
  0
LINE
  5
21B
  8
MAKE2D$VISIBLE$LINES
 10
48.32947374463781
 20
-52.23442919618986
 30
0.0
 11
48.81036242974267
 21
-52.85619146187204
 31
0.0
  0
LINE
  5
21C
  8
MAKE2D$VISIBLE$LINES
 10
48.81036242974267
 20
-52.85619146187204
 30
0.0
 11
49.30653558833614
 21
-53.45897386307143
 31
0.0
  0
LINE
  5
21D
  8
MAKE2D$VISIBLE$LINES
 10
49.30653558833614
 20
-53.45897386307143
 30
0.0
 11
49.81696620454506
 21
-54.04230732985621
 31
0.0
  0
LINE
  5
21E
  8
MAKE2D$VISIBLE$LINES
 10
49.81696620454506
 20
-54.04230732985621
 30
0.0
 11
50.34061591918925
 21
-54.60579133635881
 31
0.0
  0
LINE
  5
21F
  8
MAKE2D$VISIBLE$LINES
 10
50.34061591918925
 20
-54.60579133635881
 30
0.0
 11
50.87644031648941
 21
-55.14909328893238
 31
0.0
  0
LINE
  5
220
  8
MAKE2D$VISIBLE$LINES
 10
50.87644031648941
 20
-55.14909328893238
 30
0.0
 11
51.42339401701228
 21
-55.67194746740593
 31
0.0
  0
LINE
  5
221
  8
MAKE2D$VISIBLE$LINES
 10
51.42339401701228
 20
-55.67194746740593
 30
0.0
 11
51.98043553784158
 21
-56.17415355348309
 31
0.0
  0
LINE
  5
222
  8
MAKE2D$VISIBLE$LINES
 10
51.98043553784158
 20
-56.17415355348309
 30
0.0
 11
52.54653188636416
 21
-56.65557478349752
 31
0.0
  0
LINE
  5
223
  8
MAKE2D$VISIBLE$LINES
 10
52.54653188636416
 20
-56.65557478349752
 30
0.0
 11
53.12066285962371
 21
-57.11613576507328
 31
0.0
  0
LINE
  5
224
  8
MAKE2D$VISIBLE$LINES
 10
53.12066285962371
 20
-57.11613576507328
 30
0.0
 11
53.70182502679456
 21
-57.55581999876217
 31
0.0
  0
LINE
  5
225
  8
MAKE2D$VISIBLE$LINES
 10
53.70182502679456
 20
-57.55581999876217
 30
0.0
 11
54.28903537785319
 21
-57.97466714648112
 31
0.0
  0
LINE
  5
226
  8
MAKE2D$VISIBLE$LINES
 10
54.28903537785319
 20
-57.97466714648112
 30
0.0
 11
54.88133462686764
 21
-58.3727700886008
 31
0.0
  0
LINE
  5
227
  8
MAKE2D$VISIBLE$LINES
 10
54.88133462686764
 20
-58.3727700886008
 30
0.0
 11
55.47779016340214
 21
-58.75027181091118
 31
0.0
  0
LINE
  5
228
  8
MAKE2D$VISIBLE$LINES
 10
55.47779016340214
 20
-58.75027181091118
 30
0.0
 11
55.96915955103092
 21
-59.04447088121845
 31
0.0
  0
LINE
  5
229
  8
MAKE2D$VISIBLE$LINES
 10
55.96915955103092
 20
-59.04447088121845
 30
0.0
 11
56.47143974069771
 21
-59.33018614953927
 31
0.0
  0
LINE
  5
22A
  8
MAKE2D$VISIBLE$LINES
 10
56.47143974069771
 20
-59.33018614953927
 30
0.0
 11
56.98448137740788
 21
-59.60693785688589
 31
0.0
  0
LINE
  5
22B
  8
MAKE2D$VISIBLE$LINES
 10
56.98448137740788
 20
-59.60693785688589
 30
0.0
 11
57.50811067266506
 21
-59.87424512177674
 31
0.0
  0
LINE
  5
22C
  8
MAKE2D$VISIBLE$LINES
 10
57.50811067266506
 20
-59.87424512177674
 30
0.0
 11
58.04212884721547
 21
-60.1316273268372
 31
0.0
  0
LINE
  5
22D
  8
MAKE2D$VISIBLE$LINES
 10
58.04212884721547
 20
-60.1316273268372
 30
0.0
 11
58.58631165744258
 21
-60.37860557683188
 31
0.0
  0
LINE
  5
22E
  8
MAKE2D$VISIBLE$LINES
 10
58.58631165744258
 20
-60.37860557683188
 30
0.0
 11
59.14040901349087
 21
-60.61470422316361
 31
0.0
  0
LINE
  5
22F
  8
MAKE2D$VISIBLE$LINES
 10
59.14040901349087
 20
-60.61470422316361
 30
0.0
 11
59.70414469696639
 21
-60.83945244896514
 31
0.0
  0
LINE
  5
230
  8
MAKE2D$VISIBLE$LINES
 10
59.70414469696639
 20
-60.83945244896514
 30
0.0
 11
60.27721618572412
 21
-61.0523859079974
 31
0.0
  0
LINE
  5
231
  8
MAKE2D$VISIBLE$LINES
 10
60.27721618572412
 20
-61.0523859079974
 30
0.0
 11
60.85929459280839
 21
-61.25304840966304
 31
0.0
  0
LINE
  5
232
  8
MAKE2D$VISIBLE$LINES
 10
60.85929459280839
 20
-61.25304840966304
 30
0.0
 11
61.45002472605493
 21
-61.44099364156128
 31
0.0
  0
LINE
  5
233
  8
MAKE2D$VISIBLE$LINES
 10
61.45002472605493
 20
-61.44099364156128
 30
0.0
 11
62.04902527419558
 21
-61.61578692016345
 31
0.0
  0
LINE
  5
234
  8
MAKE2D$VISIBLE$LINES
 10
62.04902527419558
 20
-61.61578692016345
 30
0.0
 11
62.65588912452588
 21
-61.77700695939096
 31
0.0
  0
LINE
  5
235
  8
MAKE2D$VISIBLE$LINES
 10
62.65588912452588
 20
-61.77700695939096
 30
0.0
 11
63.27018381630953
 21
-61.92424764614765
 31
0.0
  0
LINE
  5
236
  8
MAKE2D$VISIBLE$LINES
 10
63.27018381630953
 20
-61.92424764614765
 30
0.0
 11
63.89145213310129
 21
-62.05711981120788
 31
0.0
  0
LINE
  5
237
  8
MAKE2D$VISIBLE$LINES
 10
63.89145213310129
 20
-62.05711981120788
 30
0.0
 11
64.51921283608515
 21
-62.17525298330658
 31
0.0
  0
LINE
  5
238
  8
MAKE2D$VISIBLE$LINES
 10
64.51921283608515
 20
-62.17525298330658
 30
0.0
 11
65.15296153935112
 21
-62.27829711383416
 31
0.0
  0
LINE
  5
239
  8
MAKE2D$VISIBLE$LINES
 10
65.15296153935112
 20
-62.27829711383416
 30
0.0
 11
65.79217172678923
 21
-62.36592425921636
 31
0.0
  0
LINE
  5
23A
  8
MAKE2D$VISIBLE$LINES
 10
65.79217172678923
 20
-62.36592425921636
 30
0.0
 11
66.43629590897115
 21
-62.43783020787357
 31
0.0
  0
LINE
  5
23B
  8
MAKE2D$VISIBLE$LINES
 10
66.43629590897115
 20
-62.43783020787357
 30
0.0
 11
67.08476691704045
 21
-62.49373603861221
 31
0.0
  0
LINE
  5
23C
  8
MAKE2D$VISIBLE$LINES
 10
67.08476691704045
 20
-62.49373603861221
 30
0.0
 11
67.73699932925435
 21
-62.53338959741389
 31
0.0
  0
LINE
  5
23D
  8
MAKE2D$VISIBLE$LINES
 10
67.73699932925435
 20
-62.53338959741389
 30
0.0
 11
68.39239102443528
 21
-62.55656687985951
 31
0.0
  0
LINE
  5
23E
  8
MAKE2D$VISIBLE$LINES
 10
68.39239102443528
 20
-62.55656687985951
 30
0.0
 11
69.05032485521777
 21
-62.56307330686047
 31
0.0
  0
LINE
  5
23F
  8
MAKE2D$VISIBLE$LINES
 10
69.05032485521777
 20
-62.56307330686047
 30
0.0
 11
69.71017043263821
 21
-62.55274488196685
 31
0.0
  0
LINE
  5
240
  8
MAKE2D$VISIBLE$LINES
 10
69.71017043263821
 20
-62.55274488196685
 30
0.0
 11
70.37128601233135
 21
-62.52544921928202
 31
0.0
  0
LINE
  5
241
  8
MAKE2D$VISIBLE$LINES
 10
70.37128601233135
 20
-62.52544921928202
 30
0.0
 11
71.0330204713901
 21
-62.48108643192684
 31
0.0
  0
LINE
  5
242
  8
MAKE2D$VISIBLE$LINES
 10
71.0330204713901
 20
-62.48108643192684
 30
0.0
 11
71.69471536383547
 21
-62.41958987205908
 31
0.0
  0
LINE
  5
243
  8
MAKE2D$VISIBLE$LINES
 10
71.69471536383547
 20
-62.41958987205908
 30
0.0
 11
72.35570704165002
 21
-62.3409267146489
 31
0.0
  0
LINE
  5
244
  8
MAKE2D$VISIBLE$LINES
 10
72.35570704165002
 20
-62.3409267146489
 30
0.0
 11
73.0153288274692
 21
-62.24509837853051
 31
0.0
  0
LINE
  5
245
  8
MAKE2D$VISIBLE$LINES
 10
73.0153288274692
 20
-62.24509837853051
 30
0.0
 11
73.67291322431724
 21
-62.13214077967045
 31
0.0
  0
LINE
  5
246
  8
MAKE2D$VISIBLE$LINES
 10
73.67291322431724
 20
-62.13214077967045
 30
0.0
 11
74.32779414723089
 21
-62.00212441310013
 31
0.0
  0
LINE
  5
247
  8
MAKE2D$VISIBLE$LINES
 10
74.32779414723089
 20
-62.00212441310013
 30
0.0
 11
74.9793091612468
 21
-61.85515426152917
 31
0.0
  0
LINE
  5
248
  8
MAKE2D$VISIBLE$LINES
 10
74.9793091612468
 20
-61.85515426152917
 30
0.0
 11
75.62680171004261
 21
-61.69136953026628
 31
0.0
  0
LINE
  5
249
  8
MAKE2D$VISIBLE$LINES
 10
75.62680171004261
 20
-61.69136953026628
 30
0.0
 11
76.26962331952676
 21
-61.51094320970122
 31
0.0
  0
LINE
  5
24A
  8
MAKE2D$VISIBLE$LINES
 10
76.26962331952676
 20
-61.51094320970122
 30
0.0
 11
76.90713576086353
 21
-61.31408146822005
 31
0.0
  0
LINE
  5
24B
  8
MAKE2D$VISIBLE$LINES
 10
76.90713576086353
 20
-61.31408146822005
 30
0.0
 11
77.53871315780052
 21
-61.1010228800129
 31
0.0
  0
LINE
  5
24C
  8
MAKE2D$VISIBLE$LINES
 10
77.53871315780052
 20
-61.1010228800129
 30
0.0
 11
78.16374402372495
 21
-60.87203749376388
 31
0.0
  0
LINE
  5
24D
  8
MAKE2D$VISIBLE$LINES
 10
78.16374402372495
 20
-60.87203749376388
 30
0.0
 11
78.78163321461032
 21
-60.62742574966549
 31
0.0
  0
LINE
  5
24E
  8
MAKE2D$VISIBLE$LINES
 10
78.78163321461032
 20
-60.62742574966549
 30
0.0
 11
79.39180378490639
 21
-60.36751725355146
 31
0.0
  0
LINE
  5
24F
  8
MAKE2D$VISIBLE$LINES
 10
79.39180378490639
 20
-60.36751725355146
 30
0.0
 11
79.99369873446449
 21
-60.0926694181755
 31
0.0
  0
LINE
  5
250
  8
MAKE2D$VISIBLE$LINES
 10
79.99369873446449
 20
-60.0926694181755
 30
0.0
 11
80.5867826357568
 21
-59.80326598276055
 31
0.0
  0
LINE
  5
251
  8
MAKE2D$VISIBLE$LINES
 10
80.5867826357568
 20
-59.80326598276055
 30
0.0
 11
81.1705431319219
 21
-59.49971542289032
 31
0.0
  0
LINE
  5
252
  8
MAKE2D$VISIBLE$LINES
 10
81.1705431319219
 20
-59.49971542289032
 30
0.0
 11
81.74449229753151
 21
-59.18244926360173
 31
0.0
  0
LINE
  5
253
  8
MAKE2D$VISIBLE$LINES
 10
81.74449229753151
 20
-59.18244926360173
 30
0.0
 11
82.30816785540118
 21
-58.85192030915401
 31
0.0
  0
LINE
  5
254
  8
MAKE2D$VISIBLE$LINES
 10
82.30816785540118
 20
-58.85192030915401
 30
0.0
 11
82.86113424423695
 21
-58.50860080339464
 31
0.0
  0
LINE
  5
255
  8
MAKE2D$VISIBLE$LINES
 10
82.86113424423695
 20
-58.50860080339464
 30
0.0
 11
83.40298353340106
 21
-58.15298053491126
 31
0.0
  0
LINE
  5
256
  8
MAKE2D$VISIBLE$LINES
 10
83.40298353340106
 20
-58.15298053491126
 30
0.0
 11
83.93333618256707
 21
-57.78556490125494
 31
0.0
  0
LINE
  5
257
  8
MAKE2D$VISIBLE$LINES
 10
83.93333618256707
 20
-57.78556490125494
 30
0.0
 11
84.45184164550038
 21
-57.40687294644756
 31
0.0
  0
LINE
  5
258
  8
MAKE2D$VISIBLE$LINES
 10
84.45184164550038
 20
-57.40687294644756
 30
0.0
 11
84.95817881861835
 21
-57.01743538575294
 31
0.0
  0
LINE
  5
259
  8
MAKE2D$VISIBLE$LINES
 10
84.95817881861835
 20
-57.01743538575294
 30
0.0
 11
85.45205633634475
 21
-56.61779263130656
 31
0.0
  0
LINE
  5
25A
  8
MAKE2D$VISIBLE$LINES
 10
85.45205633634475
 20
-56.61779263130656
 30
0.0
 11
85.93321271655067
 21
-56.2084928316764
 31
0.0
  0
LINE
  5
25B
  8
MAKE2D$VISIBLE$LINES
 10
85.93321271655067
 20
-56.2084928316764
 30
0.0
 11
86.40141636056062
 21
-55.79008993777865
 31
0.0
  0
LINE
  5
25C
  8
MAKE2D$VISIBLE$LINES
 10
86.40141636056062
 20
-55.79008993777865
 30
0.0
 11
86.8564654132833
 21
-55.36314180681493
 31
0.0
  0
LINE
  5
25D
  8
MAKE2D$VISIBLE$LINES
 10
86.8564654132833
 20
-55.36314180681493
 30
0.0
 11
87.29818748999215
 21
-54.92820835504692
 31
0.0
  0
LINE
  5
25E
  8
MAKE2D$VISIBLE$LINES
 10
87.29818748999215
 20
-54.92820835504692
 30
0.0
 11
87.72643927712437
 21
-54.48584976929719
 31
0.0
  0
LINE
  5
25F
  8
MAKE2D$VISIBLE$LINES
 10
87.72643927712437
 20
-54.48584976929719
 30
0.0
 11
88.14110601518642
 21
-54.03662478607892
 31
0.0
  0
LINE
  5
260
  8
MAKE2D$VISIBLE$LINES
 10
88.14110601518642
 20
-54.03662478607892
 30
0.0
 11
88.54210087244073
 21
-53.5810890462295
 31
0.0
  0
LINE
  5
261
  8
MAKE2D$VISIBLE$LINES
 10
88.54210087244073
 20
-53.5810890462295
 30
0.0
 11
88.9293642185115
 21
-53.11979353186862
 31
0.0
  0
LINE
  5
262
  8
MAKE2D$VISIBLE$LINES
 10
88.9293642185115
 20
-53.11979353186862
 30
0.0
 11
89.3028628073811
 21
-52.65328309143938
 31
0.0
  0
LINE
  5
263
  8
MAKE2D$VISIBLE$LINES
 10
89.3028628073811
 20
-52.65328309143938
 30
0.0
 11
89.6625888794617
 21
-52.1820950575321
 31
0.0
  0
LINE
  5
264
  8
MAKE2D$VISIBLE$LINES
 10
89.6625888794617
 20
-52.1820950575321
 30
0.0
 11
90.00855919252288
 21
-51.70675796115176
 31
0.0
  0
LINE
  5
265
  8
MAKE2D$VISIBLE$LINES
 10
90.00855919252288
 20
-51.70675796115176
 30
0.0
 11
90.34081399124476
 21
-51.22779034508173
 31
0.0
  0
LINE
  5
266
  8
MAKE2D$VISIBLE$LINES
 10
90.34081399124476
 20
-51.22779034508173
 30
0.0
 11
90.659415925052
 21
-50.7456996780308
 31
0.0
  0
LINE
  5
267
  8
MAKE2D$VISIBLE$LINES
 10
90.659415925052
 20
-50.7456996780308
 30
0.0
 11
90.96444892368015
 21
-50.26098137033419
 31
0.0
  0
LINE
  5
268
  8
MAKE2D$VISIBLE$LINES
 10
90.96444892368015
 20
-50.26098137033419
 30
0.0
 11
91.08819723043648
 21
-50.05494203007349
 31
0.0
  0
LINE
  5
269
  8
MAKE2D$VISIBLE$LINES
 10
91.08819723043648
 20
-50.05494203007349
 30
0.0
 11
91.21051722301432
 21
-49.84222983964499
 31
0.0
  0
LINE
  5
26A
  8
MAKE2D$VISIBLE$LINES
 10
91.21051722301432
 20
-49.84222983964499
 30
0.0
 11
91.33137419675192
 21
-49.62280112968936
 31
0.0
  0
LINE
  5
26B
  8
MAKE2D$VISIBLE$LINES
 10
91.33137419675192
 20
-49.62280112968936
 30
0.0
 11
91.45073336656205
 21
-49.39661360821032
 31
0.0
  0
LINE
  5
26C
  8
MAKE2D$VISIBLE$LINES
 10
91.45073336656205
 20
-49.39661360821032
 30
0.0
 11
91.68481884913004
 21
-48.92380013374178
 31
0.0
  0
LINE
  5
26D
  8
MAKE2D$VISIBLE$LINES
 10
91.68481884913004
 20
-48.92380013374178
 30
0.0
 11
91.9124944047913
 21
-48.42348042683681
 31
0.0
  0
LINE
  5
26E
  8
MAKE2D$VISIBLE$LINES
 10
91.9124944047913
 20
-48.42348042683681
 30
0.0
 11
92.13348055551228
 21
-47.89537056109572
 31
0.0
  0
LINE
  5
26F
  8
MAKE2D$VISIBLE$LINES
 10
92.13348055551228
 20
-47.89537056109572
 30
0.0
 11
92.34749818463911
 21
-47.33921317166421
 31
0.0
  0
LINE
  5
270
  8
MAKE2D$VISIBLE$LINES
 10
92.34749818463911
 20
-47.33921317166421
 30
0.0
 11
92.55426913398989
 21
-46.7547789350217
 31
0.0
  0
LINE
  5
271
  8
MAKE2D$VISIBLE$LINES
 10
92.55426913398989
 20
-46.7547789350217
 30
0.0
 11
92.75351682309055
 21
-46.1418680225326
 31
0.0
  0
LINE
  5
272
  8
MAKE2D$VISIBLE$LINES
 10
92.75351682309055
 20
-46.1418680225326
 30
0.0
 11
92.94496688887614
 21
-45.50031152000845
 31
0.0
  0
LINE
  5
273
  8
MAKE2D$VISIBLE$LINES
 10
92.94496688887614
 20
-45.50031152000845
 30
0.0
 11
93.12834784396529
 21
-44.82997280530551
 31
0.0
  0
LINE
  5
274
  8
MAKE2D$VISIBLE$LINES
 10
93.12834784396529
 20
-44.82997280530551
 30
0.0
 11
93.30339175140156
 21
-44.13074887580377
 31
0.0
  0
LINE
  5
275
  8
MAKE2D$VISIBLE$LINES
 10
93.30339175140156
 20
-44.13074887580377
 30
0.0
 11
93.46983491354636
 21
-43.40257161749034
 31
0.0
  0
LINE
  5
276
  8
MAKE2D$VISIBLE$LINES
 10
93.46983491354636
 20
-43.40257161749034
 30
0.0
 11
93.62741857260276
 21
-42.645409007302
 31
0.0
  0
LINE
  5
277
  8
MAKE2D$VISIBLE$LINES
 10
93.62741857260276
 20
-42.645409007302
 30
0.0
 11
93.77588962005512
 21
-41.85926624037762
 31
0.0
  0
LINE
  5
278
  8
MAKE2D$VISIBLE$LINES
 10
93.77588962005512
 20
-41.85926624037762
 30
0.0
 11
94.04451398816012
 21
-40.20025327958273
 31
0.0
  0
LINE
  5
279
  8
MAKE2D$VISIBLE$LINES
 10
94.04451398816012
 20
-40.20025327958273
 30
0.0
 11
94.27382337020785
 21
-38.42635597553598
 31
0.0
  0
LINE
  5
27A
  8
MAKE2D$VISIBLE$LINES
 10
94.27382337020785
 20
-38.42635597553598
 30
0.0
 11
94.46206931247436
 21
-36.53904965931225
 31
0.0
  0
LINE
  5
27B
  8
MAKE2D$VISIBLE$LINES
 10
94.46206931247436
 20
-36.53904965931225
 30
0.0
 11
94.60766195995916
 21
-34.54047989991745
 31
0.0
  0
LINE
  5
27C
  8
MAKE2D$VISIBLE$LINES
 10
94.60766195995916
 20
-34.54047989991745
 30
0.0
 11
94.70919153945623
 21
-32.43347249794684
 31
0.0
  0
LINE
  5
27D
  8
MAKE2D$VISIBLE$LINES
 10
94.70919153945623
 20
-32.43347249794684
 30
0.0
 11
94.76544844994825
 21
-30.22153462681221
 31
0.0
  0
LINE
  5
27E
  8
MAKE2D$VISIBLE$LINES
 10
94.76544844994825
 20
-30.22153462681221
 30
0.0
 11
94.77544149345525
 21
-27.90884660394774
 31
0.0
  0
LINE
  5
27F
  8
MAKE2D$VISIBLE$LINES
 10
94.77544149345525
 20
-27.90884660394774
 30
0.0
 11
94.73841379940646
 21
-25.50024398596524
 31
0.0
  0
LINE
  5
280
  8
MAKE2D$VISIBLE$LINES
 10
94.73841379940646
 20
-25.50024398596524
 30
0.0
 11
94.65385603177074
 21
-23.00118991710073
 31
0.0
  0
LINE
  5
281
  8
MAKE2D$VISIBLE$LINES
 10
94.65385603177074
 20
-23.00118991710073
 30
0.0
 11
94.62590239781713
 21
-22.65469176233995
 31
0.0
  0
LINE
  5
282
  8
MAKE2D$VISIBLE$LINES
 10
94.62590239781713
 20
-22.65469176233995
 30
0.0
 11
94.61000893823771
 21
-22.30743137754716
 31
0.0
  0
LINE
  5
283
  8
MAKE2D$VISIBLE$LINES
 10
94.61000893823771
 20
-22.30743137754716
 30
0.0
 11
94.60619485906682
 21
-21.95982840042551
 31
0.0
  0
LINE
  5
284
  8
MAKE2D$VISIBLE$LINES
 10
94.60619485906682
 20
-21.95982840042551
 30
0.0
 11
94.61446476932836
 21
-21.61230288267451
 31
0.0
  0
LINE
  5
285
  8
MAKE2D$VISIBLE$LINES
 10
94.61446476932836
 20
-21.61230288267451
 30
0.0
 11
94.63480867546622
 21
-21.26527478239038
 31
0.0
  0
LINE
  5
286
  8
MAKE2D$VISIBLE$LINES
 10
94.63480867546622
 20
-21.26527478239038
 30
0.0
 11
94.66720199342069
 21
-20.9191634565778
 31
0.0
  0
LINE
  5
287
  8
MAKE2D$VISIBLE$LINES
 10
94.66720199342069
 20
-20.9191634565778
 30
0.0
 11
94.71160557833636
 21
-20.57438715438974
 31
0.0
  0
LINE
  5
288
  8
MAKE2D$VISIBLE$LINES
 10
94.71160557833636
 20
-20.57438715438974
 30
0.0
 11
94.7679657718658
 21
-20.23136251170475
 31
0.0
  0
LINE
  5
289
  8
MAKE2D$VISIBLE$LINES
 10
94.7679657718658
 20
-20.23136251170475
 30
0.0
 11
94.83621446701154
 21
-19.89050404765444
 31
0.0
  0
LINE
  5
28A
  8
MAKE2D$VISIBLE$LINES
 10
94.83621446701154
 20
-19.89050404765444
 30
0.0
 11
94.91626919042815
 21
-19.55222366370862
 31
0.0
  0
LINE
  5
28B
  8
MAKE2D$VISIBLE$LINES
 10
94.91626919042815
 20
-19.55222366370862
 30
0.0
 11
95.00803320208499
 21
-19.21693014592397
 31
0.0
  0
LINE
  5
28C
  8
MAKE2D$VISIBLE$LINES
 10
95.00803320208499
 20
-19.21693014592397
 30
0.0
 11
95.11139561216928
 21
-18.88502867095677
 31
0.0
  0
LINE
  5
28D
  8
MAKE2D$VISIBLE$LINES
 10
95.11139561216928
 20
-18.88502867095677
 30
0.0
 11
95.2262315150878
 21
-18.55692031643856
 31
0.0
  0
LINE
  5
28E
  8
MAKE2D$VISIBLE$LINES
 10
95.2262315150878
 20
-18.55692031643856
 30
0.0
 11
95.35240214040604
 21
-18.23300157630345
 31
0.0
  0
LINE
  5
28F
  8
MAKE2D$VISIBLE$LINES
 10
95.35240214040604
 20
-18.23300157630345
 30
0.0
 11
95.48975502054125
 21
-17.91366388165666
 31
0.0
  0
LINE
  5
290
  8
MAKE2D$VISIBLE$LINES
 10
95.48975502054125
 20
-17.91366388165666
 30
0.0
 11
95.63812417500846
 21
-17.59929312775846
 31
0.0
  0
LINE
  5
291
  8
MAKE2D$VISIBLE$LINES
 10
95.63812417500846
 20
-17.59929312775846
 30
0.0
 11
95.79733031099475
 21
-17.29026920770024
 31
0.0
  0
LINE
  5
292
  8
MAKE2D$VISIBLE$LINES
 10
95.79733031099475
 20
-17.29026920770024
 30
0.0
 11
95.96718104002126
 21
-16.9869655533322
 31
0.0
  0
LINE
  5
293
  8
MAKE2D$VISIBLE$LINES
 10
95.96718104002126
 20
-16.9869655533322
 30
0.0
 11
96.14747111042975
 21
-16.68974868399962
 31
0.0
  0
LINE
  5
294
  8
MAKE2D$VISIBLE$LINES
 10
96.14747111042975
 20
-16.68974868399962
 30
0.0
 11
96.33798265541394
 21
-16.39897776363176
 31
0.0
  0
LINE
  5
295
  8
MAKE2D$VISIBLE$LINES
 10
96.33798265541394
 20
-16.39897776363176
 30
0.0
 11
96.53848545629448
 21
-16.11500416672033
 31
0.0
  0
LINE
  5
296
  8
MAKE2D$VISIBLE$LINES
 10
96.53848545629448
 20
-16.11500416672033
 30
0.0
 11
96.74873722072115
 21
-15.83817105370943
 31
0.0
  0
LINE
  5
297
  8
MAKE2D$VISIBLE$LINES
 10
96.74873722072115
 20
-15.83817105370943
 30
0.0
 11
96.9684838754643
 21
-15.56881295631297
 31
0.0
  0
LINE
  5
298
  8
MAKE2D$VISIBLE$LINES
 10
96.9684838754643
 20
-15.56881295631297
 30
0.0
 11
97.19745987344314
 21
-15.30725537325824
 31
0.0
  0
LINE
  5
299
  8
MAKE2D$VISIBLE$LINES
 10
97.19745987344314
 20
-15.30725537325824
 30
0.0
 11
97.43538851461916
 21
-15.05381437694556
 31
0.0
  0
LINE
  5
29A
  8
MAKE2D$VISIBLE$LINES
 10
97.43538851461916
 20
-15.05381437694556
 30
0.0
 11
97.68198228036707
 21
-14.80879623149893
 31
0.0
  0
LINE
  5
29B
  8
MAKE2D$VISIBLE$LINES
 10
97.68198228036707
 20
-14.80879623149893
 30
0.0
 11
97.93694318091902
 21
-14.57249702266915
 31
0.0
  0
LINE
  5
29C
  8
MAKE2D$VISIBLE$LINES
 10
97.93694318091902
 20
-14.57249702266915
 30
0.0
 11
98.19996311546251
 21
-14.34520230003685
 31
0.0
  0
LINE
  5
29D
  8
MAKE2D$VISIBLE$LINES
 10
98.19996311546251
 20
-14.34520230003685
 30
0.0
 11
98.47072424445709
 21
-14.12718673194729
 31
0.0
  0
LINE
  5
29E
  8
MAKE2D$VISIBLE$LINES
 10
98.47072424445709
 20
-14.12718673194729
 30
0.0
 11
98.74889937371859
 21
-13.91871377359511
 31
0.0
  0
LINE
  5
29F
  8
MAKE2D$VISIBLE$LINES
 10
98.74889937371859
 20
-13.91871377359511
 30
0.0
 11
99.034152349809
 21
-13.72003534865824
 31
0.0
  0
LINE
  5
2A0
  8
MAKE2D$VISIBLE$LINES
 10
99.034152349809
 20
-13.72003534865824
 30
0.0
 11
99.32613846625179
 21
-13.53139154486786
 31
0.0
  0
LINE
  5
2A1
  8
MAKE2D$VISIBLE$LINES
 10
99.32613846625179
 20
-13.53139154486786
 30
0.0
 11
99.62450488008356
 21
-13.35301032388033
 31
0.0
  0
LINE
  5
2A2
  8
MAKE2D$VISIBLE$LINES
 10
99.62450488008356
 20
-13.35301032388033
 30
0.0
 11
99.92889103823798
 21
-13.18510724580305
 31
0.0
  0
LINE
  5
2A3
  8
MAKE2D$VISIBLE$LINES
 10
99.92889103823798
 20
-13.18510724580305
 30
0.0
 11
100.2389291132465
 21
-13.02788520870651
 31
0.0
  0
LINE
  5
2A4
  8
MAKE2D$VISIBLE$LINES
 10
100.2389291132465
 20
-13.02788520870651
 30
0.0
 11
100.5542444477301
 21
-12.88153420343726
 31
0.0
  0
LINE
  5
2A5
  8
MAKE2D$VISIBLE$LINES
 10
100.5542444477301
 20
-12.88153420343726
 30
0.0
 11
100.8744560071438
 21
-12.74623108402874
 31
0.0
  0
LINE
  5
2A6
  8
MAKE2D$VISIBLE$LINES
 10
100.8744560071438
 20
-12.74623108402874
 30
0.0
 11
101.1991768402281
 21
-12.62213935398646
 31
0.0
  0
LINE
  5
2A7
  8
MAKE2D$VISIBLE$LINES
 10
101.1991768402281
 20
-12.62213935398646
 30
0.0
 11
101.5280145466099
 21
-12.50940896870659
 31
0.0
  0
LINE
  5
2A8
  8
MAKE2D$VISIBLE$LINES
 10
101.5280145466099
 20
-12.50940896870659
 30
0.0
 11
101.8605717509887
 21
-12.40817615426611
 31
0.0
  0
LINE
  5
2A9
  8
MAKE2D$VISIBLE$LINES
 10
101.8605717509887
 20
-12.40817615426611
 30
0.0
 11
102.1964465833342
 21
-12.31856324280428
 31
0.0
  0
LINE
  5
2AA
  8
MAKE2D$VISIBLE$LINES
 10
102.1964465833342
 20
-12.31856324280428
 30
0.0
 11
102.5352331645156
 21
-12.24067852469324
 31
0.0
  0
LINE
  5
2AB
  8
MAKE2D$VISIBLE$LINES
 10
102.5352331645156
 20
-12.24067852469324
 30
0.0
 11
102.8765220967756
 21
-12.17461611767765
 31
0.0
  0
LINE
  5
2AC
  8
MAKE2D$VISIBLE$LINES
 10
102.8765220967756
 20
-12.17461611767765
 30
0.0
 11
103.2199009584562
 21
-12.12045585314039
 31
0.0
  0
LINE
  5
2AD
  8
MAKE2D$VISIBLE$LINES
 10
103.2199009584562
 20
-12.12045585314039
 30
0.0
 11
103.5649548023792
 21
-12.07826317963246
 31
0.0
  0
LINE
  5
2AE
  8
MAKE2D$VISIBLE$LINES
 10
103.5649548023792
 20
-12.07826317963246
 30
0.0
 11
103.9112666572781
 21
-12.04808908378339
 31
0.0
  0
LINE
  5
2AF
  8
MAKE2D$VISIBLE$LINES
 10
103.9112666572781
 20
-12.04808908378339
 30
0.0
 11
104.2584180316759
 21
-12.02997002868783
 31
0.0
  0
LINE
  5
2B0
  8
MAKE2D$VISIBLE$LINES
 10
104.2584180316759
 20
-12.02997002868783
 30
0.0
 11
104.6059894196003
 21
-12.02392790984262
 31
0.0
  0
LINE
  5
2B1
  8
MAKE2D$VISIBLE$LINES
 10
104.6059894196003
 20
-12.02392790984262
 30
0.0
 11
288.370742003432
 21
-12.02392790984263
 31
0.0
  0
LINE
  5
2B2
  8
MAKE2D$VISIBLE$LINES
 10
67.66917671105661
 20
73.98911186007834
 30
0.0
 11
67.39069651743598
 21
73.76396691077726
 31
0.0
  0
LINE
  5
2B3
  8
MAKE2D$VISIBLE$LINES
 10
67.39069651743598
 20
73.76396691077726
 30
0.0
 11
67.1188163707348
 21
73.53084829073956
 31
0.0
  0
LINE
  5
2B4
  8
MAKE2D$VISIBLE$LINES
 10
67.1188163707348
 20
73.53084829073956
 30
0.0
 11
66.85389898589263
 21
73.29003161353323
 31
0.0
  0
LINE
  5
2B5
  8
MAKE2D$VISIBLE$LINES
 10
66.85389898589263
 20
73.29003161353323
 30
0.0
 11
66.59629032516287
 21
73.04181278321111
 31
0.0
  0
LINE
  5
2B6
  8
MAKE2D$VISIBLE$LINES
 10
66.59629032516287
 20
73.04181278321111
 30
0.0
 11
66.34631809588416
 21
72.7865067858558
 31
0.0
  0
LINE
  5
2B7
  8
MAKE2D$VISIBLE$LINES
 10
66.34631809588416
 20
72.7865067858558
 30
0.0
 11
66.10429036205926
 21
72.52444635833416
 31
0.0
  0
LINE
  5
2B8
  8
MAKE2D$VISIBLE$LINES
 10
66.10429036205926
 20
72.52444635833416
 30
0.0
 11
65.87049428207948
 21
72.25598054606138
 31
0.0
  0
LINE
  5
2B9
  8
MAKE2D$VISIBLE$LINES
 10
65.87049428207948
 20
72.25598054606138
 30
0.0
 11
65.64519498342202
 21
71.9814731628683
 31
0.0
  0
LINE
  5
2BA
  8
MAKE2D$VISIBLE$LINES
 10
65.64519498342202
 20
71.9814731628683
 30
0.0
 11
65.42863458348059
 21
71.70130116715494
 31
0.0
  0
LINE
  5
2BB
  8
MAKE2D$VISIBLE$LINES
 10
65.42863458348059
 20
71.70130116715494
 30
0.0
 11
65.2210313638948
 21
71.41585296938109
 31
0.0
  0
LINE
  5
2BC
  8
MAKE2D$VISIBLE$LINES
 10
65.2210313638948
 20
71.41585296938109
 30
0.0
 11
65.0225791038588
 21
71.12552668657504
 31
0.0
  0
LINE
  5
2BD
  8
MAKE2D$VISIBLE$LINES
 10
65.0225791038588
 20
71.12552668657504
 30
0.0
 11
64.83344657595013
 21
70.83072835992795
 31
0.0
  0
LINE
  5
2BE
  8
MAKE2D$VISIBLE$LINES
 10
64.83344657595013
 20
70.83072835992795
 30
0.0
 11
64.65377720606311
 21
70.53187015167887
 31
0.0
  0
LINE
  5
2BF
  8
MAKE2D$VISIBLE$LINES
 10
64.65377720606311
 20
70.53187015167887
 30
0.0
 11
64.48368889709407
 21
70.22936853738938
 31
0.0
  0
LINE
  5
2C0
  8
MAKE2D$VISIBLE$LINES
 10
64.48368889709407
 20
70.22936853738938
 30
0.0
 11
64.3232740141447
 21
69.92364250936355
 31
0.0
  0
LINE
  5
2C1
  8
MAKE2D$VISIBLE$LINES
 10
64.3232740141447
 20
69.92364250936355
 30
0.0
 11
64.1725995272161
 21
69.61511180640397
 31
0.0
  0
LINE
  5
2C2
  8
MAKE2D$VISIBLE$LINES
 10
64.1725995272161
 20
69.61511180640397
 30
0.0
 11
64.031707305691
 21
69.30419518432454
 31
0.0
  0
LINE
  5
2C3
  8
MAKE2D$VISIBLE$LINES
 10
64.031707305691
 20
69.30419518432454
 30
0.0
 11
63.90061455737127
 21
68.99130874068814
 31
0.0
  0
LINE
  5
2C4
  8
MAKE2D$VISIBLE$LINES
 10
63.90061455737127
 20
68.99130874068814
 30
0.0
 11
63.77931440347198
 21
68.67686430612704
 31
0.0
  0
LINE
  5
2C5
  8
MAKE2D$VISIBLE$LINES
 10
63.77931440347198
 20
68.67686430612704
 30
0.0
 11
63.66777657979184
 21
68.36126791336336
 31
0.0
  0
LINE
  5
2C6
  8
MAKE2D$VISIBLE$LINES
 10
63.66777657979184
 20
68.36126791336336
 30
0.0
 11
63.56594825329271
 21
68.04491835370467
 31
0.0
  0
LINE
  5
2C7
  8
MAKE2D$VISIBLE$LINES
 10
63.56594825329271
 20
68.04491835370467
 30
0.0
 11
63.47375494253558
 21
67.72820582937473
 31
0.0
  0
LINE
  5
2C8
  8
MAKE2D$VISIBLE$LINES
 10
63.47375494253558
 20
67.72820582937473
 30
0.0
 11
63.39110152984059
 21
67.4115107085817
 31
0.0
  0
LINE
  5
2C9
  8
MAKE2D$VISIBLE$LINES
 10
63.39110152984059
 20
67.4115107085817
 30
0.0
 11
63.31787335266044
 21
67.09520238875244
 31
0.0
  0
LINE
  5
2CA
  8
MAKE2D$VISIBLE$LINES
 10
63.31787335266044
 20
67.09520238875244
 30
0.0
 11
63.25393736147502
 21
66.7796382718998
 31
0.0
  0
LINE
  5
2CB
  8
MAKE2D$VISIBLE$LINES
 10
63.25393736147502
 20
66.7796382718998
 30
0.0
 11
63.19914333151945
 21
66.46516285466366
 31
0.0
  0
LINE
  5
2CC
  8
MAKE2D$VISIBLE$LINES
 10
63.19914333151945
 20
66.46516285466366
 30
0.0
 11
63.15332511583512
 21
66.15210693419762
 31
0.0
  0
LINE
  5
2CD
  8
MAKE2D$VISIBLE$LINES
 10
63.15332511583512
 20
66.15210693419762
 30
0.0
 11
63.11630192746823
 21
65.84078692978187
 31
0.0
  0
LINE
  5
2CE
  8
MAKE2D$VISIBLE$LINES
 10
63.11630192746823
 20
65.84078692978187
 30
0.0
 11
63.08787963911519
 21
65.53150431884241
 31
0.0
  0
LINE
  5
2CF
  8
MAKE2D$VISIBLE$LINES
 10
63.08787963911519
 20
65.53150431884241
 30
0.0
 11
63.067852089109
 21
65.224545184963
 31
0.0
  0
LINE
  5
2D0
  8
MAKE2D$VISIBLE$LINES
 10
63.067852089109
 20
65.224545184963
 30
0.0
 11
63.05600238333817
 21
64.92017987449559
 31
0.0
  0
LINE
  5
2D1
  8
MAKE2D$VISIBLE$LINES
 10
63.05600238333817
 20
64.92017987449559
 30
0.0
 11
63.05210418346701
 21
64.61866275751527
 31
0.0
  0
LINE
  5
2D2
  8
MAKE2D$VISIBLE$LINES
 10
63.05210418346701
 20
64.61866275751527
 30
0.0
 11
63.05518368729744
 21
64.35066731603786
 31
0.0
  0
LINE
  5
2D3
  8
MAKE2D$VISIBLE$LINES
 10
63.05518368729744
 20
64.35066731603786
 30
0.0
 11
63.06453159964614
 21
64.08039764294702
 31
0.0
  0
LINE
  5
2D4
  8
MAKE2D$VISIBLE$LINES
 10
63.06453159964614
 20
64.08039764294702
 30
0.0
 11
63.08030814693616
 21
63.80803076554274
 31
0.0
  0
LINE
  5
2D5
  8
MAKE2D$VISIBLE$LINES
 10
63.08030814693616
 20
63.80803076554274
 30
0.0
 11
63.10266782580603
 21
63.53375373036428
 31
0.0
  0
LINE
  5
2D6
  8
MAKE2D$VISIBLE$LINES
 10
63.10266782580603
 20
63.53375373036428
 30
0.0
 11
63.13175868935758
 21
63.25776348594095
 31
0.0
  0
LINE
  5
2D7
  8
MAKE2D$VISIBLE$LINES
 10
63.13175868935758
 20
63.25776348594095
 30
0.0
 11
63.16772162511398
 21
62.98026671469275
 31
0.0
  0
LINE
  5
2D8
  8
MAKE2D$VISIBLE$LINES
 10
63.16772162511398
 20
62.98026671469275
 30
0.0
 11
63.21068962878588
 21
62.70147961197486
 31
0.0
  0
LINE
  5
2D9
  8
MAKE2D$VISIBLE$LINES
 10
63.21068962878588
 20
62.70147961197486
 30
0.0
 11
63.26078707825985
 21
62.42162761057428
 31
0.0
  0
LINE
  5
2DA
  8
MAKE2D$VISIBLE$LINES
 10
63.26078707825985
 20
62.42162761057428
 30
0.0
 11
63.31812901251475
 21
62.14094504932481
 31
0.0
  0
LINE
  5
2DB
  8
MAKE2D$VISIBLE$LINES
 10
63.31812901251475
 20
62.14094504932481
 30
0.0
 11
63.38282042043272
 21
61.85967478490577
 31
0.0
  0
LINE
  5
2DC
  8
MAKE2D$VISIBLE$LINES
 10
63.38282042043272
 20
61.85967478490577
 30
0.0
 11
63.45495554469448
 21
61.57806774632748
 31
0.0
  0
LINE
  5
2DD
  8
MAKE2D$VISIBLE$LINES
 10
63.45495554469448
 20
61.57806774632748
 30
0.0
 11
63.53461720612914
 21
61.29638243208109
 31
0.0
  0
LINE
  5
2DE
  8
MAKE2D$VISIBLE$LINES
 10
63.53461720612914
 20
61.29638243208109
 30
0.0
 11
63.62187615402028
 21
61.01488435043595
 31
0.0
  0
LINE
  5
2DF
  8
MAKE2D$VISIBLE$LINES
 10
63.62187615402028
 20
61.01488435043595
 30
0.0
 11
63.71679044794607
 21
60.73384540390067
 31
0.0
  0
LINE
  5
2E0
  8
MAKE2D$VISIBLE$LINES
 10
63.71679044794607
 20
60.73384540390067
 30
0.0
 11
63.81940487674935
 21
60.45354321941871
 31
0.0
  0
LINE
  5
2E1
  8
MAKE2D$VISIBLE$LINES
 10
63.81940487674935
 20
60.45354321941871
 30
0.0
 11
63.92975042018668
 21
60.174260426438
 31
0.0
  0
LINE
  5
2E2
  8
MAKE2D$VISIBLE$LINES
 10
63.92975042018668
 20
60.174260426438
 30
0.0
 11
64.04784375869204
 21
59.89628388557032
 31
0.0
  0
LINE
  5
2E3
  8
MAKE2D$VISIBLE$LINES
 10
64.04784375869204
 20
59.89628388557032
 30
0.0
 11
64.17368683650764
 21
59.61990387113232
 31
0.0
  0
LINE
  5
2E4
  8
MAKE2D$VISIBLE$LINES
 10
64.17368683650764
 20
59.61990387113232
 30
0.0
 11
64.3072664831801
 21
59.34541321142644
 31
0.0
  0
LINE
  5
2E5
  8
MAKE2D$VISIBLE$LINES
 10
64.3072664831801
 20
59.34541321142644
 30
0.0
 11
64.44855409809516
 21
59.07310639116883
 31
0.0
  0
LINE
  5
2E6
  8
MAKE2D$VISIBLE$LINES
 10
64.44855409809516
 20
59.07310639116883
 30
0.0
 11
64.59750540232814
 21
58.80327862099328
 31
0.0
  0
LINE
  5
2E7
  8
MAKE2D$VISIBLE$LINES
 10
64.59750540232814
 20
58.80327862099328
 30
0.0
 11
64.75406026162416
 21
58.53622487944585
 31
0.0
  0
LINE
  5
2E8
  8
MAKE2D$VISIBLE$LINES
 10
64.75406026162416
 20
58.53622487944585
 30
0.0
 11
64.9181425837952
 21
58.2722389333258
 31
0.0
  0
LINE
  5
2E9
  8
MAKE2D$VISIBLE$LINES
 10
64.9181425837952
 20
58.2722389333258
 30
0.0
 11
65.08966029323392
 21
58.01161234261557
 31
0.0
  0
LINE
  5
2EA
  8
MAKE2D$VISIBLE$LINES
 10
65.08966029323392
 20
58.01161234261557
 30
0.0
 11
65.26850538460683
 21
57.75463345656933
 31
0.0
  0
LINE
  5
2EB
  8
MAKE2D$VISIBLE$LINES
 10
65.26850538460683
 20
57.75463345656933
 30
0.0
 11
65.4545540571044
 21
57.50158640778571
 31
0.0
  0
LINE
  5
2EC
  8
MAKE2D$VISIBLE$LINES
 10
65.4545540571044
 20
57.50158640778571
 30
0.0
 11
65.64766692990737
 21
57.25275011127498
 31
0.0
  0
LINE
  5
2ED
  8
MAKE2D$VISIBLE$LINES
 10
65.64766692990737
 20
57.25275011127498
 30
0.0
 11
65.84768933878154
 21
57.00839727563249
 31
0.0
  0
LINE
  5
2EE
  8
MAKE2D$VISIBLE$LINES
 10
65.84768933878154
 20
57.00839727563249
 30
0.0
 11
66.05445171295254
 21
56.76879343345117
 31
0.0
  0
LINE
  5
2EF
  8
MAKE2D$VISIBLE$LINES
 10
66.05445171295254
 20
56.76879343345117
 30
0.0
 11
66.26777003064512
 21
56.53419599803951
 31
0.0
  0
LINE
  5
2F0
  8
MAKE2D$VISIBLE$LINES
 10
66.26777003064512
 20
56.53419599803951
 30
0.0
 11
66.48744635091184
 21
56.30485335335967
 31
0.0
  0
LINE
  5
2F1
  8
MAKE2D$VISIBLE$LINES
 10
66.48744635091184
 20
56.30485335335967
 30
0.0
 11
66.71326941863522
 21
56.08100398386259
 31
0.0
  0
LINE
  5
2F2
  8
MAKE2D$VISIBLE$LINES
 10
66.71326941863522
 20
56.08100398386259
 30
0.0
 11
66.94501533887535
 21
55.86287565057675
 31
0.0
  0
LINE
  5
2F3
  8
MAKE2D$VISIBLE$LINES
 10
66.94501533887535
 20
55.86287565057675
 30
0.0
 11
67.18244831606465
 21
55.65068461940697
 31
0.0
  0
LINE
  5
2F4
  8
MAKE2D$VISIBLE$LINES
 10
67.18244831606465
 20
55.65068461940697
 30
0.0
 11
67.42532145293163
 21
55.44463494712717
 31
0.0
  0
LINE
  5
2F5
  8
MAKE2D$VISIBLE$LINES
 10
67.42532145293163
 20
55.44463494712717
 30
0.0
 11
67.67337760347668
 21
55.24491783001055
 31
0.0
  0
LINE
  5
2F6
  8
MAKE2D$VISIBLE$LINES
 10
67.67337760347668
 20
55.24491783001055
 30
0.0
 11
67.92635027383302
 21
55.05171101944246
 31
0.0
  0
LINE
  5
2F7
  8
MAKE2D$VISIBLE$LINES
 10
67.92635027383302
 20
55.05171101944246
 30
0.0
 11
68.18396456443205
 21
54.86517830821319
 31
0.0
  0
LINE
  5
2F8
  8
MAKE2D$VISIBLE$LINES
 10
68.18396456443205
 20
54.86517830821319
 30
0.0
 11
68.44593814656079
 21
54.68546909050097
 31
0.0
  0
LINE
  5
2F9
  8
MAKE2D$VISIBLE$LINES
 10
68.44593814656079
 20
54.68546909050097
 30
0.0
 11
68.71198226615277
 21
54.51271799783885
 31
0.0
  0
LINE
  5
2FA
  8
MAKE2D$VISIBLE$LINES
 10
68.71198226615277
 20
54.51271799783885
 30
0.0
 11
68.98180276749656
 21
54.34704461262606
 31
0.0
  0
LINE
  5
2FB
  8
MAKE2D$VISIBLE$LINES
 10
68.98180276749656
 20
54.34704461262606
 30
0.0
 11
69.25510112947767
 21
54.18855326000356
 31
0.0
  0
LINE
  5
2FC
  8
MAKE2D$VISIBLE$LINES
 10
69.25510112947767
 20
54.18855326000356
 30
0.0
 11
69.53157550699112
 21
54.03733287817847
 31
0.0
  0
LINE
  5
2FD
  8
MAKE2D$VISIBLE$LINES
 10
69.53157550699112
 20
54.03733287817847
 30
0.0
 11
69.81092177026703
 21
53.89345696656039
 31
0.0
  0
LINE
  5
2FE
  8
MAKE2D$VISIBLE$LINES
 10
69.81092177026703
 20
53.89345696656039
 30
0.0
 11
70.09283453504294
 21
53.75698361037914
 31
0.0
  0
LINE
  5
2FF
  8
MAKE2D$VISIBLE$LINES
 10
70.09283453504294
 20
53.75698361037914
 30
0.0
 11
70.37700817678149
 21
53.62795557979165
 31
0.0
  0
LINE
  5
300
  8
MAKE2D$VISIBLE$LINES
 10
70.37700817678149
 20
53.62795557979165
 30
0.0
 11
70.66313782247053
 21
53.50640050086986
 31
0.0
  0
LINE
  5
301
  8
MAKE2D$VISIBLE$LINES
 10
70.66313782247053
 20
53.50640050086986
 30
0.0
 11
70.95092031394366
 21
53.39233109529482
 31
0.0
  0
LINE
  5
302
  8
MAKE2D$VISIBLE$LINES
 10
70.95092031394366
 20
53.39233109529482
 30
0.0
 11
71.24005513711498
 21
53.28574548507279
 31
0.0
  0
LINE
  5
303
  8
MAKE2D$VISIBLE$LINES
 10
71.24005513711498
 20
53.28574548507279
 30
0.0
 11
71.53024531202605
 21
53.18662755814181
 31
0.0
  0
LINE
  5
304
  8
MAKE2D$VISIBLE$LINES
 10
71.53024531202605
 20
53.18662755814181
 30
0.0
 11
71.82119823914158
 21
53.0949473903549
 31
0.0
  0
LINE
  5
305
  8
MAKE2D$VISIBLE$LINES
 10
71.82119823914158
 20
53.0949473903549
 30
0.0
 11
72.11262649789992
 21
53.01066171901203
 31
0.0
  0
LINE
  5
306
  8
MAKE2D$VISIBLE$LINES
 10
72.11262649789992
 20
53.01066171901203
 30
0.0
 11
72.40424859411053
 21
52.93371446286719
 31
0.0
  0
LINE
  5
307
  8
MAKE2D$VISIBLE$LINES
 10
72.40424859411053
 20
52.93371446286719
 30
0.0
 11
72.69578965338646
 21
52.86403728336018
 31
0.0
  0
LINE
  5
308
  8
MAKE2D$VISIBLE$LINES
 10
72.69578965338646
 20
52.86403728336018
 30
0.0
 11
72.98698205839715
 21
52.8015501817132
 31
0.0
  0
LINE
  5
309
  8
MAKE2D$VISIBLE$LINES
 10
72.98698205839715
 20
52.8015501817132
 30
0.0
 11
73.27756602831522
 21
52.74616212648702
 31
0.0
  0
LINE
  5
30A
  8
MAKE2D$VISIBLE$LINES
 10
73.27756602831522
 20
52.74616212648702
 30
0.0
 11
73.56729013940533
 21
52.6977717062089
 31
0.0
  0
LINE
  5
30B
  8
MAKE2D$VISIBLE$LINES
 10
73.56729013940533
 20
52.6977717062089
 30
0.0
 11
73.85591178625471
 21
52.65626780175813
 31
0.0
  0
LINE
  5
30C
  8
MAKE2D$VISIBLE$LINES
 10
73.85591178625471
 20
52.65626780175813
 30
0.0
 11
74.14319758366867
 21
52.62153027332183
 31
0.0
  0
LINE
  5
30D
  8
MAKE2D$VISIBLE$LINES
 10
74.14319758366867
 20
52.62153027332183
 30
0.0
 11
74.4289237097457
 21
52.59343065690834
 31
0.0
  0
LINE
  5
30E
  8
MAKE2D$VISIBLE$LINES
 10
74.4289237097457
 20
52.59343065690834
 30
0.0
 11
74.71287619109947
 21
52.5718328656204
 31
0.0
  0
LINE
  5
30F
  8
MAKE2D$VISIBLE$LINES
 10
74.71287619109947
 20
52.5718328656204
 30
0.0
 11
74.99485113160878
 21
52.55659389114329
 31
0.0
  0
LINE
  5
310
  8
MAKE2D$VISIBLE$LINES
 10
74.99485113160878
 20
52.55659389114329
 30
0.0
 11
75.27465488644695
 21
52.5475645011838
 31
0.0
  0
LINE
  5
311
  8
MAKE2D$VISIBLE$LINES
 10
75.27465488644695
 20
52.5475645011838
 30
0.0
 11
75.55210418346701
 21
52.54458992890181
 31
0.0
  0
LINE
  5
312
  8
MAKE2D$VISIBLE$LINES
 10
75.55210418346701
 20
52.54458992890181
 30
0.0
 11
75.82955348048708
 21
52.5475645011838
 31
0.0
  0
LINE
  5
313
  8
MAKE2D$VISIBLE$LINES
 10
75.82955348048708
 20
52.5475645011838
 30
0.0
 11
76.10935723532523
 21
52.55659389114329
 31
0.0
  0
LINE
  5
314
  8
MAKE2D$VISIBLE$LINES
 10
76.10935723532523
 20
52.55659389114329
 30
0.0
 11
76.39133217583456
 21
52.5718328656204
 31
0.0
  0
LINE
  5
315
  8
MAKE2D$VISIBLE$LINES
 10
76.39133217583456
 20
52.5718328656204
 30
0.0
 11
76.67528465718831
 21
52.59343065690834
 31
0.0
  0
LINE
  5
316
  8
MAKE2D$VISIBLE$LINES
 10
76.67528465718831
 20
52.59343065690834
 30
0.0
 11
76.96101078326537
 21
52.62153027332183
 31
0.0
  0
LINE
  5
317
  8
MAKE2D$VISIBLE$LINES
 10
76.96101078326537
 20
52.62153027332183
 30
0.0
 11
77.24829658067935
 21
52.65626780175813
 31
0.0
  0
LINE
  5
318
  8
MAKE2D$VISIBLE$LINES
 10
77.24829658067935
 20
52.65626780175813
 30
0.0
 11
77.5369182275287
 21
52.6977717062089
 31
0.0
  0
LINE
  5
319
  8
MAKE2D$VISIBLE$LINES
 10
77.5369182275287
 20
52.6977717062089
 30
0.0
 11
77.82664233861884
 21
52.74616212648702
 31
0.0
  0
LINE
  5
31A
  8
MAKE2D$VISIBLE$LINES
 10
77.82664233861884
 20
52.74616212648702
 30
0.0
 11
78.11722630853691
 21
52.8015501817132
 31
0.0
  0
LINE
  5
31B
  8
MAKE2D$VISIBLE$LINES
 10
78.11722630853691
 20
52.8015501817132
 30
0.0
 11
78.40841871354762
 21
52.86403728336018
 31
0.0
  0
LINE
  5
31C
  8
MAKE2D$VISIBLE$LINES
 10
78.40841871354762
 20
52.86403728336018
 30
0.0
 11
78.69995977282358
 21
52.93371446286719
 31
0.0
  0
LINE
  5
31D
  8
MAKE2D$VISIBLE$LINES
 10
78.69995977282358
 20
52.93371446286719
 30
0.0
 11
78.99158186903416
 21
53.01066171901203
 31
0.0
  0
LINE
  5
31E
  8
MAKE2D$VISIBLE$LINES
 10
78.99158186903416
 20
53.01066171901203
 30
0.0
 11
79.28301012779251
 21
53.0949473903549
 31
0.0
  0
LINE
  5
31F
  8
MAKE2D$VISIBLE$LINES
 10
79.28301012779251
 20
53.0949473903549
 30
0.0
 11
79.57396305490805
 21
53.18662755814181
 31
0.0
  0
LINE
  5
320
  8
MAKE2D$VISIBLE$LINES
 10
79.57396305490805
 20
53.18662755814181
 30
0.0
 11
79.86415322981914
 21
53.28574548507279
 31
0.0
  0
LINE
  5
321
  8
MAKE2D$VISIBLE$LINES
 10
79.86415322981914
 20
53.28574548507279
 30
0.0
 11
80.15328805299049
 21
53.39233109529482
 31
0.0
  0
LINE
  5
322
  8
MAKE2D$VISIBLE$LINES
 10
80.15328805299049
 20
53.39233109529482
 30
0.0
 11
80.44107054446359
 21
53.50640050086986
 31
0.0
  0
LINE
  5
323
  8
MAKE2D$VISIBLE$LINES
 10
80.44107054446359
 20
53.50640050086986
 30
0.0
 11
80.72720019015266
 21
53.62795557979165
 31
0.0
  0
LINE
  5
324
  8
MAKE2D$VISIBLE$LINES
 10
80.72720019015266
 20
53.62795557979165
 30
0.0
 11
81.0113738318912
 21
53.75698361037914
 31
0.0
  0
LINE
  5
325
  8
MAKE2D$VISIBLE$LINES
 10
81.0113738318912
 20
53.75698361037914
 30
0.0
 11
81.29328659666713
 21
53.89345696656039
 31
0.0
  0
LINE
  5
326
  8
MAKE2D$VISIBLE$LINES
 10
81.29328659666713
 20
53.89345696656039
 30
0.0
 11
81.57263285994306
 21
54.03733287817847
 31
0.0
  0
LINE
  5
327
  8
MAKE2D$VISIBLE$LINES
 10
81.57263285994306
 20
54.03733287817847
 30
0.0
 11
81.8491072374565
 21
54.18855326000356
 31
0.0
  0
LINE
  5
328
  8
MAKE2D$VISIBLE$LINES
 10
81.8491072374565
 20
54.18855326000356
 30
0.0
 11
82.12240559943763
 21
54.34704461262606
 31
0.0
  0
LINE
  5
329
  8
MAKE2D$VISIBLE$LINES
 10
82.12240559943763
 20
54.34704461262606
 30
0.0
 11
82.39222610078136
 21
54.51271799783885
 31
0.0
  0
LINE
  5
32A
  8
MAKE2D$VISIBLE$LINES
 10
82.39222610078136
 20
54.51271799783885
 30
0.0
 11
82.65827022037337
 21
54.68546909050097
 31
0.0
  0
LINE
  5
32B
  8
MAKE2D$VISIBLE$LINES
 10
82.65827022037337
 20
54.68546909050097
 30
0.0
 11
82.9202438025021
 21
54.86517830821319
 31
0.0
  0
LINE
  5
32C
  8
MAKE2D$VISIBLE$LINES
 10
82.9202438025021
 20
54.86517830821319
 30
0.0
 11
83.17785809310112
 21
55.05171101944246
 31
0.0
  0
LINE
  5
32D
  8
MAKE2D$VISIBLE$LINES
 10
83.17785809310112
 20
55.05171101944246
 30
0.0
 11
83.43083076345748
 21
55.24491783001055
 31
0.0
  0
LINE
  5
32E
  8
MAKE2D$VISIBLE$LINES
 10
83.43083076345748
 20
55.24491783001055
 30
0.0
 11
83.67888691400253
 21
55.44463494712717
 31
0.0
  0
LINE
  5
32F
  8
MAKE2D$VISIBLE$LINES
 10
83.67888691400253
 20
55.44463494712717
 30
0.0
 11
83.92176005086952
 21
55.65068461940697
 31
0.0
  0
LINE
  5
330
  8
MAKE2D$VISIBLE$LINES
 10
83.92176005086952
 20
55.65068461940697
 30
0.0
 11
84.15919302805881
 21
55.86287565057675
 31
0.0
  0
LINE
  5
331
  8
MAKE2D$VISIBLE$LINES
 10
84.15919302805881
 20
55.86287565057675
 30
0.0
 11
84.39093894829892
 21
56.08100398386259
 31
0.0
  0
LINE
  5
332
  8
MAKE2D$VISIBLE$LINES
 10
84.39093894829892
 20
56.08100398386259
 30
0.0
 11
84.61676201602232
 21
56.30485335335967
 31
0.0
  0
LINE
  5
333
  8
MAKE2D$VISIBLE$LINES
 10
84.61676201602232
 20
56.30485335335967
 30
0.0
 11
84.83643833628905
 21
56.53419599803951
 31
0.0
  0
LINE
  5
334
  8
MAKE2D$VISIBLE$LINES
 10
84.83643833628905
 20
56.53419599803951
 30
0.0
 11
85.04975665398162
 21
56.76879343345117
 31
0.0
  0
LINE
  5
335
  8
MAKE2D$VISIBLE$LINES
 10
85.04975665398162
 20
56.76879343345117
 30
0.0
 11
85.25651902815264
 21
57.00839727563249
 31
0.0
  0
LINE
  5
336
  8
MAKE2D$VISIBLE$LINES
 10
85.25651902815264
 20
57.00839727563249
 30
0.0
 11
85.45654143702677
 21
57.25275011127498
 31
0.0
  0
LINE
  5
337
  8
MAKE2D$VISIBLE$LINES
 10
85.45654143702677
 20
57.25275011127498
 30
0.0
 11
85.64965430982974
 21
57.50158640778571
 31
0.0
  0
LINE
  5
338
  8
MAKE2D$VISIBLE$LINES
 10
85.64965430982974
 20
57.50158640778571
 30
0.0
 11
85.83570298232733
 21
57.75463345656933
 31
0.0
  0
LINE
  5
339
  8
MAKE2D$VISIBLE$LINES
 10
85.83570298232733
 20
57.75463345656933
 30
0.0
 11
86.01454807370023
 21
58.01161234261557
 31
0.0
  0
LINE
  5
33A
  8
MAKE2D$VISIBLE$LINES
 10
86.01454807370023
 20
58.01161234261557
 30
0.0
 11
86.18606578313897
 21
58.2722389333258
 31
0.0
  0
LINE
  5
33B
  8
MAKE2D$VISIBLE$LINES
 10
86.18606578313897
 20
58.2722389333258
 30
0.0
 11
86.35014810531
 21
58.53622487944585
 31
0.0
  0
LINE
  5
33C
  8
MAKE2D$VISIBLE$LINES
 10
86.35014810531
 20
58.53622487944585
 30
0.0
 11
86.50670296460603
 21
58.80327862099328
 31
0.0
  0
LINE
  5
33D
  8
MAKE2D$VISIBLE$LINES
 10
86.50670296460603
 20
58.80327862099328
 30
0.0
 11
86.655654268839
 21
59.07310639116883
 31
0.0
  0
LINE
  5
33E
  8
MAKE2D$VISIBLE$LINES
 10
86.655654268839
 20
59.07310639116883
 30
0.0
 11
86.79694188375404
 21
59.34541321142644
 31
0.0
  0
LINE
  5
33F
  8
MAKE2D$VISIBLE$LINES
 10
86.79694188375404
 20
59.34541321142644
 30
0.0
 11
86.93052153042649
 21
59.61990387113232
 31
0.0
  0
LINE
  5
340
  8
MAKE2D$VISIBLE$LINES
 10
86.93052153042649
 20
59.61990387113232
 30
0.0
 11
87.05636460824208
 21
59.89628388557032
 31
0.0
  0
LINE
  5
341
  8
MAKE2D$VISIBLE$LINES
 10
87.05636460824208
 20
59.89628388557032
 30
0.0
 11
87.17445794674747
 21
60.174260426438
 31
0.0
  0
LINE
  5
342
  8
MAKE2D$VISIBLE$LINES
 10
87.17445794674747
 20
60.174260426438
 30
0.0
 11
87.28480349018477
 21
60.45354321941871
 31
0.0
  0
LINE
  5
343
  8
MAKE2D$VISIBLE$LINES
 10
87.28480349018477
 20
60.45354321941871
 30
0.0
 11
87.38741791898804
 21
60.73384540390067
 31
0.0
  0
LINE
  5
344
  8
MAKE2D$VISIBLE$LINES
 10
87.38741791898804
 20
60.73384540390067
 30
0.0
 11
87.4823322129138
 21
61.01488435043595
 31
0.0
  0
LINE
  5
345
  8
MAKE2D$VISIBLE$LINES
 10
87.4823322129138
 20
61.01488435043595
 30
0.0
 11
87.56959116080495
 21
61.29638243208109
 31
0.0
  0
LINE
  5
346
  8
MAKE2D$VISIBLE$LINES
 10
87.56959116080495
 20
61.29638243208109
 30
0.0
 11
87.64925282223962
 21
61.57806774632748
 31
0.0
  0
LINE
  5
347
  8
MAKE2D$VISIBLE$LINES
 10
87.64925282223962
 20
61.57806774632748
 30
0.0
 11
87.72138794650135
 21
61.85967478490577
 31
0.0
  0
LINE
  5
348
  8
MAKE2D$VISIBLE$LINES
 10
87.72138794650135
 20
61.85967478490577
 30
0.0
 11
87.78607935441931
 21
62.14094504932481
 31
0.0
  0
LINE
  5
349
  8
MAKE2D$VISIBLE$LINES
 10
87.78607935441931
 20
62.14094504932481
 30
0.0
 11
87.84342128867421
 21
62.42162761057428
 31
0.0
  0
LINE
  5
34A
  8
MAKE2D$VISIBLE$LINES
 10
87.84342128867421
 20
62.42162761057428
 30
0.0
 11
87.89351873814816
 21
62.70147961197486
 31
0.0
  0
LINE
  5
34B
  8
MAKE2D$VISIBLE$LINES
 10
87.89351873814816
 20
62.70147961197486
 30
0.0
 11
87.93648674182006
 21
62.98026671469275
 31
0.0
  0
LINE
  5
34C
  8
MAKE2D$VISIBLE$LINES
 10
87.93648674182006
 20
62.98026671469275
 30
0.0
 11
87.97244967757645
 21
63.25776348594095
 31
0.0
  0
LINE
  5
34D
  8
MAKE2D$VISIBLE$LINES
 10
87.97244967757645
 20
63.25776348594095
 30
0.0
 11
88.001540541128
 21
63.53375373036428
 31
0.0
  0
LINE
  5
34E
  8
MAKE2D$VISIBLE$LINES
 10
88.001540541128
 20
63.53375373036428
 30
0.0
 11
88.02390021999787
 21
63.80803076554274
 31
0.0
  0
LINE
  5
34F
  8
MAKE2D$VISIBLE$LINES
 10
88.02390021999787
 20
63.80803076554274
 30
0.0
 11
88.03967676728787
 21
64.08039764294702
 31
0.0
  0
LINE
  5
350
  8
MAKE2D$VISIBLE$LINES
 10
88.03967676728787
 20
64.08039764294702
 30
0.0
 11
88.04902467963657
 21
64.35066731603786
 31
0.0
  0
LINE
  5
351
  8
MAKE2D$VISIBLE$LINES
 10
88.04902467963657
 20
64.35066731603786
 30
0.0
 11
88.05210418346701
 21
64.61866275751527
 31
0.0
  0
LINE
  5
352
  8
MAKE2D$VISIBLE$LINES
 10
88.05210418346701
 20
64.61866275751527
 30
0.0
 11
88.04820598359584
 21
64.9201798744956
 31
0.0
  0
LINE
  5
353
  8
MAKE2D$VISIBLE$LINES
 10
88.04820598359584
 20
64.9201798744956
 30
0.0
 11
88.036356277825
 21
65.22454518496305
 31
0.0
  0
LINE
  5
354
  8
MAKE2D$VISIBLE$LINES
 10
88.036356277825
 20
65.22454518496305
 30
0.0
 11
88.01632872781877
 21
65.53150431884245
 31
0.0
  0
LINE
  5
355
  8
MAKE2D$VISIBLE$LINES
 10
88.01632872781877
 20
65.53150431884245
 30
0.0
 11
87.9879064394657
 21
65.84078692978194
 31
0.0
  0
LINE
  5
356
  8
MAKE2D$VISIBLE$LINES
 10
87.9879064394657
 20
65.84078692978194
 30
0.0
 11
87.95088325109883
 21
66.15210693419772
 31
0.0
  0
LINE
  5
357
  8
MAKE2D$VISIBLE$LINES
 10
87.95088325109883
 20
66.15210693419772
 30
0.0
 11
87.90506503541448
 21
66.46516285466377
 31
0.0
  0
LINE
  5
358
  8
MAKE2D$VISIBLE$LINES
 10
87.90506503541448
 20
66.46516285466377
 30
0.0
 11
87.85027100545888
 21
66.77963827189993
 31
0.0
  0
LINE
  5
359
  8
MAKE2D$VISIBLE$LINES
 10
87.85027100545888
 20
66.77963827189993
 30
0.0
 11
87.78633501427345
 21
67.09520238875257
 31
0.0
  0
LINE
  5
35A
  8
MAKE2D$VISIBLE$LINES
 10
87.78633501427345
 20
67.09520238875257
 30
0.0
 11
87.71310683709329
 21
67.41151070858183
 31
0.0
  0
LINE
  5
35B
  8
MAKE2D$VISIBLE$LINES
 10
87.71310683709329
 20
67.41151070858183
 30
0.0
 11
87.6304534243983
 21
67.72820582937487
 31
0.0
  0
LINE
  5
35C
  8
MAKE2D$VISIBLE$LINES
 10
87.6304534243983
 20
67.72820582937487
 30
0.0
 11
87.53826011364116
 21
68.04491835370484
 31
0.0
  0
LINE
  5
35D
  8
MAKE2D$VISIBLE$LINES
 10
87.53826011364116
 20
68.04491835370484
 30
0.0
 11
87.43643178714198
 21
68.36126791336353
 31
0.0
  0
LINE
  5
35E
  8
MAKE2D$VISIBLE$LINES
 10
87.43643178714198
 20
68.36126791336353
 30
0.0
 11
87.32489396346183
 21
68.67686430612721
 31
0.0
  0
LINE
  5
35F
  8
MAKE2D$VISIBLE$LINES
 10
87.32489396346183
 20
68.67686430612721
 30
0.0
 11
87.20359380956252
 21
68.99130874068832
 31
0.0
  0
LINE
  5
360
  8
MAKE2D$VISIBLE$LINES
 10
87.20359380956252
 20
68.99130874068832
 30
0.0
 11
87.07250106124278
 21
69.30419518432473
 31
0.0
  0
LINE
  5
361
  8
MAKE2D$VISIBLE$LINES
 10
87.07250106124278
 20
69.30419518432473
 30
0.0
 11
86.93160883971768
 21
69.61511180640416
 31
0.0
  0
LINE
  5
362
  8
MAKE2D$VISIBLE$LINES
 10
86.93160883971768
 20
69.61511180640416
 30
0.0
 11
86.78093435278906
 21
69.92364250936376
 31
0.0
  0
LINE
  5
363
  8
MAKE2D$VISIBLE$LINES
 10
86.78093435278906
 20
69.92364250936376
 30
0.0
 11
86.62051946983968
 21
70.22936853738959
 31
0.0
  0
LINE
  5
364
  8
MAKE2D$VISIBLE$LINES
 10
86.62051946983968
 20
70.22936853738959
 30
0.0
 11
86.45043116087061
 21
70.53187015167907
 31
0.0
  0
LINE
  5
365
  8
MAKE2D$VISIBLE$LINES
 10
86.45043116087061
 20
70.53187015167907
 30
0.0
 11
86.27076179098358
 21
70.83072835992814
 31
0.0
  0
LINE
  5
366
  8
MAKE2D$VISIBLE$LINES
 10
86.27076179098358
 20
70.83072835992814
 30
0.0
 11
86.08162926307492
 21
71.12552668657524
 31
0.0
  0
LINE
  5
367
  8
MAKE2D$VISIBLE$LINES
 10
86.08162926307492
 20
71.12552668657524
 30
0.0
 11
85.8831770030389
 21
71.41585296938129
 31
0.0
  0
LINE
  5
368
  8
MAKE2D$VISIBLE$LINES
 10
85.8831770030389
 20
71.41585296938129
 30
0.0
 11
85.67557378345309
 21
71.70130116715512
 31
0.0
  0
LINE
  5
369
  8
MAKE2D$VISIBLE$LINES
 10
85.67557378345309
 20
71.70130116715512
 30
0.0
 11
85.45901338351166
 21
71.98147316286847
 31
0.0
  0
LINE
  5
36A
  8
MAKE2D$VISIBLE$LINES
 10
85.45901338351166
 20
71.98147316286847
 30
0.0
 11
85.23371408485421
 21
72.25598054606156
 31
0.0
  0
LINE
  5
36B
  8
MAKE2D$VISIBLE$LINES
 10
85.23371408485421
 20
72.25598054606156
 30
0.0
 11
84.99991800487443
 21
72.52444635833434
 31
0.0
  0
LINE
  5
36C
  8
MAKE2D$VISIBLE$LINES
 10
84.99991800487443
 20
72.52444635833434
 30
0.0
 11
84.75789027104952
 21
72.78650678585596
 31
0.0
  0
LINE
  5
36D
  8
MAKE2D$VISIBLE$LINES
 10
84.75789027104952
 20
72.78650678585596
 30
0.0
 11
84.50791804177078
 21
73.04181278321124
 31
0.0
  0
LINE
  5
36E
  8
MAKE2D$VISIBLE$LINES
 10
84.50791804177078
 20
73.04181278321124
 30
0.0
 11
84.25030938104103
 21
73.29003161353334
 31
0.0
  0
LINE
  5
36F
  8
MAKE2D$VISIBLE$LINES
 10
84.25030938104103
 20
73.29003161353334
 30
0.0
 11
83.98539199619887
 21
73.53084829073967
 31
0.0
  0
LINE
  5
370
  8
MAKE2D$VISIBLE$LINES
 10
83.98539199619887
 20
73.53084829073967
 30
0.0
 11
83.71351184949768
 21
73.76396691077736
 31
0.0
  0
LINE
  5
371
  8
MAKE2D$VISIBLE$LINES
 10
83.71351184949768
 20
73.76396691077736
 30
0.0
 11
83.43503165587704
 21
73.98911186007841
 31
0.0
  0
LINE
  5
372
  8
MAKE2D$VISIBLE$LINES
 10
83.43503165587704
 20
73.98911186007841
 30
0.0
 11
83.43503165587691
 21
76.69273558612842
 31
0.0
  0
LINE
  5
373
  8
MAKE2D$VISIBLE$LINES
 10
83.43503165587691
 20
76.69273558612842
 30
0.0
 11
83.43503165587691
 21
80.36228805671738
 31
0.0
  0
LINE
  5
374
  8
MAKE2D$VISIBLE$LINES
 10
83.43503165587691
 20
80.36228805671738
 30
0.0
 11
75.55210418346687
 21
80.36228805671738
 31
0.0
  0
LINE
  5
375
  8
MAKE2D$VISIBLE$LINES
 10
75.55210418346687
 20
80.36228805671738
 30
0.0
 11
67.66917671105669
 21
80.36228805671738
 31
0.0
  0
LINE
  5
376
  8
MAKE2D$VISIBLE$LINES
 10
67.66917671105669
 20
80.36228805671738
 30
0.0
 11
67.66917671105669
 21
73.98911186007814
 31
0.0
  0
LINE
  5
377
  8
MAKE2D$VISIBLE$LINES
 10
249.6189929413827
 20
71.29000578043019
 30
0.0
 11
257.2069929413826
 21
71.29000578043019
 31
0.0
  0
LINE
  5
378
  8
MAKE2D$VISIBLE$LINES
 10
257.2069929413826
 20
71.29000578043019
 30
0.0
 11
257.2069929413826
 21
73.71254775276293
 31
0.0
  0
LINE
  5
379
  8
MAKE2D$VISIBLE$LINES
 10
257.2069929413826
 20
73.71254775276293
 30
0.0
 11
249.6189929413827
 21
73.71254775276293
 31
0.0
  0
LINE
  5
37A
  8
MAKE2D$VISIBLE$LINES
 10
249.6189929413827
 20
73.71254775276293
 30
0.0
 11
249.6189929413827
 21
71.29000578043019
 31
0.0
  0
LINE
  5
37B
  8
MAKE2D$VISIBLE$LINES
 10
249.6189929413827
 20
73.7434573792043
 30
0.0
 11
257.2069929413826
 21
73.7434573792043
 31
0.0
  0
LINE
  5
37C
  8
MAKE2D$VISIBLE$LINES
 10
257.2069929413826
 20
73.7434573792043
 30
0.0
 11
257.2069929413826
 21
76.16599935153727
 31
0.0
  0
LINE
  5
37D
  8
MAKE2D$VISIBLE$LINES
 10
257.2069929413826
 20
76.16599935153727
 30
0.0
 11
249.6189929413827
 21
76.16599935153727
 31
0.0
  0
LINE
  5
37E
  8
MAKE2D$VISIBLE$LINES
 10
249.6189929413827
 20
76.16599935153727
 30
0.0
 11
249.6189929413827
 21
73.7434573792043
 31
0.0
  0
LINE
  5
37F
  8
MAKE2D$VISIBLE$LINES
 10
40.6503358670177
 20
73.237053460492
 30
0.0
 11
40.6503358670177
 21
98.18705346049205
 31
0.0
  0
LINE
  5
380
  8
MAKE2D$VISIBLE$LINES
 10
40.6503358670177
 20
98.18705346049205
 30
0.0
 11
43.55033586701779
 21
98.18705346049205
 31
0.0
  0
LINE
  5
381
  8
MAKE2D$VISIBLE$LINES
 10
43.55033586701779
 20
98.18705346049205
 30
0.0
 11
43.55033586701779
 21
48.28705346049196
 31
0.0
  0
LINE
  5
382
  8
MAKE2D$VISIBLE$LINES
 10
43.55033586701779
 20
48.28705346049196
 30
0.0
 11
40.6503358670177
 21
48.28705346049196
 31
0.0
  0
LINE
  5
383
  8
MAKE2D$VISIBLE$LINES
 10
40.6503358670177
 20
48.28705346049196
 30
0.0
 11
40.6503358670177
 21
73.237053460492
 31
0.0
  0
LINE
  5
384
  8
MAKE2D$VISIBLE$LINES
 10
345.5500679413828
 20
73.23705346049246
 30
0.0
 11
345.5500679413828
 21
48.28705346049242
 31
0.0
  0
LINE
  5
385
  8
MAKE2D$VISIBLE$LINES
 10
345.5500679413828
 20
48.28705346049242
 30
0.0
 11
342.6500679413828
 21
48.28705346049242
 31
0.0
  0
LINE
  5
386
  8
MAKE2D$VISIBLE$LINES
 10
342.6500679413828
 20
48.28705346049242
 30
0.0
 11
342.6500679413828
 21
98.1870534604925
 31
0.0
  0
LINE
  5
387
  8
MAKE2D$VISIBLE$LINES
 10
342.6500679413828
 20
98.1870534604925
 30
0.0
 11
345.5500679413828
 21
98.1870534604925
 31
0.0
  0
LINE
  5
388
  8
MAKE2D$VISIBLE$LINES
 10
345.5500679413828
 20
98.1870534604925
 30
0.0
 11
345.5500679413828
 21
73.23705346049246
 31
0.0
  0
LINE
  5
389
  8
MAKE2D$VISIBLE$LINES
 10
193.1002019042005
 20
7.049999999999727
 30
0.0
 11
168.1502019042005
 21
7.049999999999955
 31
0.0
  0
LINE
  5
38A
  8
MAKE2D$VISIBLE$LINES
 10
168.1502019042005
 20
7.049999999999955
 30
0.0
 11
168.1502019042005
 21
9.950000000000045
 31
0.0
  0
LINE
  5
38B
  8
MAKE2D$VISIBLE$LINES
 10
168.1502019042005
 20
9.950000000000045
 30
0.0
 11
218.0502019042005
 21
9.949999999999818
 31
0.0
  0
LINE
  5
38C
  8
MAKE2D$VISIBLE$LINES
 10
218.0502019042005
 20
9.949999999999818
 30
0.0
 11
218.0502019042005
 21
7.049999999999727
 31
0.0
  0
LINE
  5
38D
  8
MAKE2D$VISIBLE$LINES
 10
218.0502019042005
 20
7.049999999999727
 30
0.0
 11
193.1002019042005
 21
7.049999999999727
 31
0.0
  0
ARC
  5
38E
  8
MAKE2D$VISIBLE$LINES
 10
342.6000679413823
 20
10.00000000000073
 30
0.0
 40
10.0000000000005
 50
270.000000000003
 51
359.9999999997444
  0
LINE
  5
38F
  8
MAKE2D$VISIBLE$LINES
 10
352.6000679413828
 20
87.24774021344138
 30
0.0
 11
352.6000679413828
 21
9.999999999956344
 31
0.0
  0
LINE
  5
390
  8
MAKE2D$VISIBLE$LINES
 10
342.6000679413828
 20
0.0000000000002274
 30
0.0
 11
193.1002019042005
 21
0.0
 31
0.0
  0
ARC
  5
391
  8
MAKE2D$VISIBLE$LINES
 10
43.60033586701843
 20
10.00000000000636
 30
0.0
 40
10.0
 50
180.0000000000026
 51
270.0000000000026
  0
LINE
  5
392
  8
MAKE2D$VISIBLE$LINES
 10
193.1002019042005
 20
0.0
 30
0.0
 11
43.60033586701888
 21
0.0
 31
0.0
  0
LINE
  5
393
  8
MAKE2D$VISIBLE$LINES
 10
33.6003358670182
 20
10.00000000000591
 30
0.0
 11
33.60033586701752
 21
81.23940715942308
 31
0.0
  0
ARC
  5
394
  8
MAKE2D$VISIBLE$LINES
 10
13.60033586701669
 20
81.23940715942217
 30
0.0
 40
20.00000000000083
 50
0.0000000000013028
 51
74.48514468968837
  0
LINE
  5
395
  8
MAKE2D$VISIBLE$LINES
 10
352.5998000177933
 20
136.4741069209834
 30
0.0
 11
352.6000679413829
 21
87.24774021344116
 31
0.0
  0
LINE
  5
396
  8
MAKE2D$VISIBLE$LINES
 10
352.5998000177933
 20
141.3080063138066
 30
0.0
 11
352.5998000177933
 21
136.4741069209838
 31
0.0
  0
LINE
  5
397
  8
MAKE2D$VISIBLE$LINES
 10
346.1000679413823
 20
151.3080063138064
 30
0.0
 11
346.2443356290158
 21
151.3055427107421
 31
0.0
  0
LINE
  5
398
  8
MAKE2D$VISIBLE$LINES
 10
346.2443356290158
 20
151.3055427107421
 30
0.0
 11
346.3898275842496
 21
151.2980643808631
 31
0.0
  0
LINE
  5
399
  8
MAKE2D$VISIBLE$LINES
 10
346.3898275842496
 20
151.2980643808631
 30
0.0
 11
346.5364485094954
 21
151.2854431430311
 31
0.0
  0
LINE
  5
39A
  8
MAKE2D$VISIBLE$LINES
 10
346.5364485094954
 20
151.2854431430311
 30
0.0
 11
346.6840977135939
 21
151.2675553999352
 31
0.0
  0
LINE
  5
39B
  8
MAKE2D$VISIBLE$LINES
 10
346.6840977135939
 20
151.2675553999352
 30
0.0
 11
346.8326691749324
 21
151.2442827090939
 31
0.0
  0
LINE
  5
39C
  8
MAKE2D$VISIBLE$LINES
 10
346.8326691749324
 20
151.2442827090939
 30
0.0
 11
346.9820516319364
 21
151.2155123604888
 31
0.0
  0
LINE
  5
39D
  8
MAKE2D$VISIBLE$LINES
 10
346.9820516319364
 20
151.2155123604888
 30
0.0
 11
347.1321287020143
 21
151.1811379575513
 31
0.0
  0
LINE
  5
39E
  8
MAKE2D$VISIBLE$LINES
 10
347.1321287020143
 20
151.1811379575513
 30
0.0
 11
347.2827790298672
 21
151.1410599979721
 31
0.0
  0
LINE
  5
39F
  8
MAKE2D$VISIBLE$LINES
 10
347.2827790298672
 20
151.1410599979721
 30
0.0
 11
347.4338764658806
 21
151.0951864505682
 31
0.0
  0
LINE
  5
3A0
  8
MAKE2D$VISIBLE$LINES
 10
347.4338764658806
 20
151.0951864505682
 30
0.0
 11
347.585290275101
 21
151.0434333242338
 31
0.0
  0
LINE
  5
3A1
  8
MAKE2D$VISIBLE$LINES
 10
347.585290275101
 20
151.0434333242338
 30
0.0
 11
347.7368853770663
 21
150.9857252248244
 31
0.0
  0
LINE
  5
3A2
  8
MAKE2D$VISIBLE$LINES
 10
347.7368853770663
 20
150.9857252248244
 30
0.0
 11
347.8885226165008
 21
150.9219958956766
 31
0.0
  0
LINE
  5
3A3
  8
MAKE2D$VISIBLE$LINES
 10
347.8885226165008
 20
150.9219958956766
 30
0.0
 11
348.0400590646147
 21
150.8521887373637
 31
0.0
  0
LINE
  5
3A4
  8
MAKE2D$VISIBLE$LINES
 10
348.0400590646147
 20
150.8521887373637
 30
0.0
 11
348.1913483504627
 21
150.7762573022231
 31
0.0
  0
LINE
  5
3A5
  8
MAKE2D$VISIBLE$LINES
 10
348.1913483504627
 20
150.7762573022231
 30
0.0
 11
348.342241021513
 21
150.6941657591805
 31
0.0
  0
LINE
  5
3A6
  8
MAKE2D$VISIBLE$LINES
 10
348.342241021513
 20
150.6941657591805
 30
0.0
 11
348.4925849322789
 21
150.6058893244306
 31
0.0
  0
LINE
  5
3A7
  8
MAKE2D$VISIBLE$LINES
 10
348.4925849322789
 20
150.6058893244306
 30
0.0
 11
348.6422256595475
 21
150.5114146536263
 31
0.0
  0
LINE
  5
3A8
  8
MAKE2D$VISIBLE$LINES
 10
348.6422256595475
 20
150.5114146536263
 30
0.0
 11
348.7910069424352
 21
150.4107401913738
 31
0.0
  0
LINE
  5
3A9
  8
MAKE2D$VISIBLE$LINES
 10
348.7910069424352
 20
150.4107401913738
 30
0.0
 11
348.9387711451934
 21
150.3038764740358
 31
0.0
  0
LINE
  5
3AA
  8
MAKE2D$VISIBLE$LINES
 10
348.9387711451934
 20
150.3038764740358
 30
0.0
 11
349.0853597403905
 21
150.1908463821038
 31
0.0
  0
LINE
  5
3AB
  8
MAKE2D$VISIBLE$LINES
 10
349.0853597403905
 20
150.1908463821038
 30
0.0
 11
349.2306138098177
 21
150.0716853387174
 31
0.0
  0
LINE
  5
3AC
  8
MAKE2D$VISIBLE$LINES
 10
349.2306138098177
 20
150.0716853387174
 30
0.0
 11
349.3743745602042
 21
149.9464414512805
 31
0.0
  0
LINE
  5
3AD
  8
MAKE2D$VISIBLE$LINES
 10
349.3743745602042
 20
149.9464414512805
 30
0.0
 11
349.516483850588
 21
149.8151755935437
 31
0.0
  0
LINE
  5
3AE
  8
MAKE2D$VISIBLE$LINES
 10
349.516483850588
 20
149.8151755935437
 30
0.0
 11
349.6567847279848
 21
149.6779614259927
 31
0.0
  0
LINE
  5
3AF
  8
MAKE2D$VISIBLE$LINES
 10
349.6567847279848
 20
149.6779614259927
 30
0.0
 11
349.7951219678129
 21
149.5348853528944
 31
0.0
  0
LINE
  5
3B0
  8
MAKE2D$VISIBLE$LINES
 10
349.7951219678129
 20
149.5348853528944
 30
0.0
 11
349.9313426154077
 21
149.3860464148964
 31
0.0
  0
LINE
  5
3B1
  8
MAKE2D$VISIBLE$LINES
 10
349.9313426154077
 20
149.3860464148964
 30
0.0
 11
350.0652965248435
 21
149.231556116654
 31
0.0
  0
LINE
  5
3B2
  8
MAKE2D$VISIBLE$LINES
 10
350.0652965248435
 20
149.231556116654
 30
0.0
 11
350.1968368912411
 21
149.0715381895547
 31
0.0
  0
LINE
  5
3B3
  8
MAKE2D$VISIBLE$LINES
 10
350.1968368912411
 20
149.0715381895547
 30
0.0
 11
350.325820772717
 21
148.9061282902179
 31
0.0
  0
LINE
  5
3B4
  8
MAKE2D$VISIBLE$LINES
 10
350.325820772717
 20
148.9061282902179
 30
0.0
 11
350.4521095981725
 21
148.7354736360638
 31
0.0
  0
LINE
  5
3B5
  8
MAKE2D$VISIBLE$LINES
 10
350.4521095981725
 20
148.7354736360638
 30
0.0
 11
350.5755696571993
 21
148.5597325798504
 31
0.0
  0
LINE
  5
3B6
  8
MAKE2D$VISIBLE$LINES
 10
350.5755696571993
 20
148.5597325798504
 30
0.0
 11
350.6960725685083
 21
148.3790741256717
 31
0.0
  0
LINE
  5
3B7
  8
MAKE2D$VISIBLE$LINES
 10
350.6960725685083
 20
148.3790741256717
 30
0.0
 11
350.8134957234582
 21
148.1936773894796
 31
0.0
  0
LINE
  5
3B8
  8
MAKE2D$VISIBLE$LINES
 10
350.8134957234582
 20
148.1936773894796
 30
0.0
 11
350.9277227014796
 21
148.0037310077282
 31
0.0
  0
LINE
  5
3B9
  8
MAKE2D$VISIBLE$LINES
 10
350.9277227014796
 20
148.0037310077282
 30
0.0
 11
351.0386436544389
 21
147.8094324982345
 31
0.0
  0
LINE
  5
3BA
  8
MAKE2D$VISIBLE$LINES
 10
351.0386436544389
 20
147.8094324982345
 30
0.0
 11
351.1461556572865
 21
147.6109875777985
 31
0.0
  0
LINE
  5
3BB
  8
MAKE2D$VISIBLE$LINES
 10
351.1461556572865
 20
147.6109875777985
 30
0.0
 11
351.2501630226433
 21
147.4086094415134
 31
0.0
  0
LINE
  5
3BC
  8
MAKE2D$VISIBLE$LINES
 10
351.2501630226433
 20
147.4086094415134
 30
0.0
 11
351.3505775773413
 21
147.2025180090342
 31
0.0
  0
LINE
  5
3BD
  8
MAKE2D$VISIBLE$LINES
 10
351.3505775773413
 20
147.2025180090342
 30
0.0
 11
351.4473188992938
 21
146.9929391433312
 31
0.0
  0
LINE
  5
3BE
  8
MAKE2D$VISIBLE$LINES
 10
351.4473188992938
 20
146.9929391433312
 30
0.0
 11
351.5403145134622
 21
146.7801038476576
 31
0.0
  0
LINE
  5
3BF
  8
MAKE2D$VISIBLE$LINES
 10
351.5403145134622
 20
146.7801038476576
 30
0.0
 11
351.6295000460791
 21
146.5642474465826
 31
0.0
  0
LINE
  5
3C0
  8
MAKE2D$VISIBLE$LINES
 10
351.6295000460791
 20
146.5642474465826
 30
0.0
 11
351.7148193366861
 21
146.3456087569977
 31
0.0
  0
LINE
  5
3C1
  8
MAKE2D$VISIBLE$LINES
 10
351.7148193366861
 20
146.3456087569977
 30
0.0
 11
351.7962245079408
 21
146.1244292549869
 31
0.0
  0
LINE
  5
3C2
  8
MAKE2D$VISIBLE$LINES
 10
351.7962245079408
 20
146.1244292549869
 30
0.0
 11
351.8736759935366
 21
145.9009522443662
 31
0.0
  0
LINE
  5
3C3
  8
MAKE2D$VISIBLE$LINES
 10
351.8736759935366
 20
145.9009522443662
 30
0.0
 11
351.9471425249496
 21
145.6754220325455
 31
0.0
  0
LINE
  5
3C4
  8
MAKE2D$VISIBLE$LINES
 10
351.9471425249496
 20
145.6754220325455
 30
0.0
 11
352.0166010780882
 21
145.4480831191546
 31
0.0
  0
LINE
  5
3C5
  8
MAKE2D$VISIBLE$LINES
 10
352.0166010780882
 20
145.4480831191546
 30
0.0
 11
352.082036781246
 21
145.2191794026034
 31
0.0
  0
LINE
  5
3C6
  8
MAKE2D$VISIBLE$LINES
 10
352.082036781246
 20
145.2191794026034
 30
0.0
 11
352.1434427860695
 21
144.9889534094249
 31
0.0
  0
LINE
  5
3C7
  8
MAKE2D$VISIBLE$LINES
 10
352.1434427860695
 20
144.9889534094249
 30
0.0
 11
352.2541774070746
 21
144.525493410959
 31
0.0
  0
LINE
  5
3C8
  8
MAKE2D$VISIBLE$LINES
 10
352.2541774070746
 20
144.525493410959
 30
0.0
 11
352.3489035881387
 21
144.0595884622599
 31
0.0
  0
LINE
  5
3C9
  8
MAKE2D$VISIBLE$LINES
 10
352.3489035881387
 20
144.0595884622599
 30
0.0
 11
352.4278346631056
 21
143.5930579378706
 31
0.0
  0
LINE
  5
3CA
  8
MAKE2D$VISIBLE$LINES
 10
352.4278346631056
 20
143.5930579378706
 30
0.0
 11
352.4912893853867
 21
143.1276368379276
 31
0.0
  0
LINE
  5
3CB
  8
MAKE2D$VISIBLE$LINES
 10
352.4912893853867
 20
143.1276368379276
 30
0.0
 11
352.5396814262681
 21
142.6649602315761
 31
0.0
  0
LINE
  5
3CC
  8
MAKE2D$VISIBLE$LINES
 10
352.5396814262681
 20
142.6649602315761
 30
0.0
 11
352.5735080075524
 21
142.2065506927833
 31
0.0
  0
LINE
  5
3CD
  8
MAKE2D$VISIBLE$LINES
 10
352.5735080075524
 20
142.2065506927833
 30
0.0
 11
352.593338027748
 21
141.7538087552928
 31
0.0
  0
LINE
  5
3CE
  8
MAKE2D$VISIBLE$LINES
 10
352.593338027748
 20
141.7538087552928
 30
0.0
 11
352.5998000177933
 21
141.3080063138062
 31
0.0
  0
LINE
  5
3CF
  8
MAKE2D$VISIBLE$LINES
 10
342.5996081178537
 20
151.3080063138066
 30
0.0
 11
346.1000679413823
 21
151.3080063138068
 31
0.0
  0
ARC
  5
3D0
  8
MAKE2D$VISIBLE$LINES
 10
327.5999721789044
 20
151.474668732249
 30
0.0
 40
15.00056181157032
 50
270.0003657720224
 51
359.3634071997478
  0
LINE
  5
3D1
  8
MAKE2D$VISIBLE$LINES
 10
193.1002019042003
 20
136.4741069209838
 30
0.0
 11
327.6000679413826
 21
136.474106920984
 31
0.0
  0
LINE
  5
3D2
  8
MAKE2D$VISIBLE$LINES
 10
58.60033586701775
 20
136.4741069209836
 30
0.0
 11
193.1002019042
 21
136.4741069209838
 31
0.0
  0
ARC
  5
3D3
  8
MAKE2D$VISIBLE$LINES
 10
58.6004316344119
 20
151.4746687372188
 30
0.0
 40
15.00056181654069
 50
180.6365928566314
 51
269.9996342092018
  0
LINE
  5
3D4
  8
MAKE2D$VISIBLE$LINES
 10
25.870027460747
 20
151.3080102775366
 30
0.0
 11
43.60079569065624
 21
151.3080063039611
 31
0.0
  0
ARC
  5
3D5
  8
MAKE2D$VISIBLE$LINES
 10
25.87002748644552
 20
125.4379827910912
 30
0.0
 40
25.87002748644552
 50
90.00000005691565
 51
179.9999999814523
  0
ARC
  5
3D6
  8
MAKE2D$VISIBLE$LINES
 10
25.87003248706238
 20
125.4379866073669
 30
0.0
 40
25.87003248706266
 50
180.0000084335673
 51
254.4851362561216
  0
CIRCLE
  5
3D7
  8
MAKE2D$VISIBLE$LINES
 10
25.87002747807081
 20
125.4379827994658
 30
0.0
 40
3.150000000000102
  0
LINE
  5
3D8
  8
MAKE2D$VISIBLE$LINES
 10
252.1219929413828
 20
31.31400587026656
 30
0.0
 11
257.7519929413827
 21
31.31400587026633
 31
0.0
  0
LINE
  5
3D9
  8
MAKE2D$VISIBLE$LINES
 10
257.7519929413827
 20
31.31400587026633
 30
0.0
 11
257.7519929413827
 21
39.20400587026643
 31
0.0
  0
LINE
  5
3DA
  8
MAKE2D$VISIBLE$LINES
 10
257.7519929413827
 20
39.20400587026643
 30
0.0
 11
252.1219929413826
 21
39.20400587026643
 31
0.0
  0
LINE
  5
3DB
  8
MAKE2D$VISIBLE$LINES
 10
252.1219929413826
 20
39.20400587026643
 30
0.0
 11
252.1219929413828
 21
31.31400587026656
 31
0.0
  0
CIRCLE
  5
3DC
  8
MAKE2D$VISIBLE$LINES
 10
325.5253024713249
 20
75.66077739668253
 30
0.0
 40
1.75
  0
CIRCLE
  5
3DD
  8
MAKE2D$VISIBLE$LINES
 10
325.5253024713249
 20
55.21077739668317
 30
0.0
 40
1.75
  0
CIRCLE
  5
3DE
  8
MAKE2D$VISIBLE$LINES
 10
60.67483341144043
 20
55.21077739668181
 30
0.0
 40
1.75
  0
CIRCLE
  5
3DF
  8
MAKE2D$VISIBLE$LINES
 10
60.67483341144043
 20
75.66077739668117
 30
0.0
 40
1.75
  0
LINE
  5
3E0
  8
MAKE2D$VISIBLE$LINES
 10
276.7259179413827
 20
116.1404063589546
 30
0.0
 11
286.3142179413826
 21
116.1404063589546
 31
0.0
  0
LINE
  5
3E1
  8
MAKE2D$VISIBLE$LINES
 10
286.3142179413826
 20
116.1404063589546
 30
0.0
 11
286.3142179413826
 21
125.7286063589547
 31
0.0
  0
LINE
  5
3E2
  8
MAKE2D$VISIBLE$LINES
 10
286.3142179413826
 20
125.7286063589547
 30
0.0
 11
276.7259179413827
 21
125.7286063589547
 31
0.0
  0
LINE
  5
3E3
  8
MAKE2D$VISIBLE$LINES
 10
276.7259179413827
 20
125.7286063589547
 30
0.0
 11
276.7259179413827
 21
116.1404063589546
 31
0.0
  0
LINE
  5
3E4
  8
MAKE2D$VISIBLE$LINES
 10
261.4859179413827
 20
116.1404063589546
 30
0.0
 11
271.0742179413826
 21
116.1404063589546
 31
0.0
  0
LINE
  5
3E5
  8
MAKE2D$VISIBLE$LINES
 10
271.0742179413826
 20
116.1404063589546
 30
0.0
 11
271.0742179413826
 21
125.7286063589547
 31
0.0
  0
LINE
  5
3E6
  8
MAKE2D$VISIBLE$LINES
 10
271.0742179413826
 20
125.7286063589547
 30
0.0
 11
261.4859179413827
 21
125.7286063589547
 31
0.0
  0
LINE
  5
3E7
  8
MAKE2D$VISIBLE$LINES
 10
261.4859179413827
 20
125.7286063589547
 30
0.0
 11
261.4859179413827
 21
116.1404063589546
 31
0.0
  0
CIRCLE
  5
3E8
  8
MAKE2D$VISIBLE$LINES
 10
273.9000679413825
 20
112.0445063589544
 30
0.0
 40
2.095429411839042
  0
CIRCLE
  5
3E9
  8
MAKE2D$VISIBLE$LINES
 10
291.6800679413827
 20
109.5045063589546
 30
0.0
 40
3.5
  0
CIRCLE
  5
3EA
  8
MAKE2D$VISIBLE$LINES
 10
256.1200679413827
 20
109.5045063589545
 30
0.0
 40
3.500000000000114
  0
LINE
  5
3EB
  8
MAKE2D$VISIBLE$LINES
 10
115.1259179413828
 20
116.1404063589544
 30
0.0
 11
124.7142179413827
 21
116.1404063589544
 31
0.0
  0
LINE
  5
3EC
  8
MAKE2D$VISIBLE$LINES
 10
124.7142179413827
 20
116.1404063589544
 30
0.0
 11
124.7142179413827
 21
125.7286063589545
 31
0.0
  0
LINE
  5
3ED
  8
MAKE2D$VISIBLE$LINES
 10
124.7142179413827
 20
125.7286063589545
 30
0.0
 11
115.1259179413828
 21
125.7286063589545
 31
0.0
  0
LINE
  5
3EE
  8
MAKE2D$VISIBLE$LINES
 10
115.1259179413828
 20
125.7286063589545
 30
0.0
 11
115.1259179413828
 21
116.1404063589544
 31
0.0
  0
LINE
  5
3EF
  8
MAKE2D$VISIBLE$LINES
 10
99.88591794138279
 20
116.1404063589544
 30
0.0
 11
109.4742179413827
 21
116.1404063589544
 31
0.0
  0
LINE
  5
3F0
  8
MAKE2D$VISIBLE$LINES
 10
109.4742179413827
 20
116.1404063589544
 30
0.0
 11
109.4742179413827
 21
125.7286063589545
 31
0.0
  0
LINE
  5
3F1
  8
MAKE2D$VISIBLE$LINES
 10
109.4742179413827
 20
125.7286063589545
 30
0.0
 11
99.88591794138279
 21
125.7286063589545
 31
0.0
  0
LINE
  5
3F2
  8
MAKE2D$VISIBLE$LINES
 10
99.88591794138279
 20
125.7286063589545
 30
0.0
 11
99.88591794138279
 21
116.1404063589544
 31
0.0
  0
CIRCLE
  5
3F3
  8
MAKE2D$VISIBLE$LINES
 10
112.3000679413827
 20
112.0445063589544
 30
0.0
 40
2.095429411839028
  0
CIRCLE
  5
3F4
  8
MAKE2D$VISIBLE$LINES
 10
130.0800679413826
 20
109.5045063589546
 30
0.0
 40
3.5
  0
CIRCLE
  5
3F5
  8
MAKE2D$VISIBLE$LINES
 10
94.52006794138264
 20
109.5045063589546
 30
0.0
 40
3.500000000000014
  0
CIRCLE
  5
3F6
  8
MAKE2D$VISIBLE$LINES
 10
139.1129929413828
 20
32.59200587026544
 30
0.0
 40
3.5
  0
CIRCLE
  5
3F7
  8
MAKE2D$VISIBLE$LINES
 10
169.5929929413828
 20
32.59200587026589
 30
0.0
 40
3.5
  0
CIRCLE
  5
3F8
  8
MAKE2D$VISIBLE$LINES
 10
200.0729929413826
 20
32.59200587026589
 30
0.0
 40
3.500000000000028
  0
CIRCLE
  5
3F9
  8
MAKE2D$VISIBLE$LINES
 10
230.4259929413827
 20
32.59200587026615
 30
0.0
 40
3.5
  0
LINE
  5
3FA
  8
MAKE2D$VISIBLE$LINES
 10
149.5588429413829
 20
27.79790587026582
 30
0.0
 11
159.1471429413828
 21
27.79790587026582
 31
0.0
  0
LINE
  5
3FB
  8
MAKE2D$VISIBLE$LINES
 10
159.1471429413828
 20
27.79790587026582
 30
0.0
 11
159.1471429413828
 21
37.38610587026596
 31
0.0
  0
LINE
  5
3FC
  8
MAKE2D$VISIBLE$LINES
 10
159.1471429413828
 20
37.38610587026596
 30
0.0
 11
149.5588429413829
 21
37.38610587026596
 31
0.0
  0
LINE
  5
3FD
  8
MAKE2D$VISIBLE$LINES
 10
149.5588429413829
 20
37.38610587026596
 30
0.0
 11
149.5588429413829
 21
27.79790587026582
 31
0.0
  0
LINE
  5
3FE
  8
MAKE2D$VISIBLE$LINES
 10
180.0388429413829
 20
27.79790587026582
 30
0.0
 11
189.6271429413828
 21
27.79790587026559
 31
0.0
  0
LINE
  5
3FF
  8
MAKE2D$VISIBLE$LINES
 10
189.6271429413828
 20
27.79790587026559
 30
0.0
 11
189.6271429413825
 21
37.38610587026574
 31
0.0
  0
LINE
  5
400
  8
MAKE2D$VISIBLE$LINES
 10
189.6271429413825
 20
37.38610587026574
 30
0.0
 11
180.0388429413827
 21
37.38610587026596
 31
0.0
  0
LINE
  5
401
  8
MAKE2D$VISIBLE$LINES
 10
180.0388429413827
 20
37.38610587026596
 30
0.0
 11
180.0388429413829
 21
27.79790587026582
 31
0.0
  0
LINE
  5
402
  8
MAKE2D$VISIBLE$LINES
 10
210.5188429413829
 20
27.79790587026582
 30
0.0
 11
220.1071429413828
 21
27.79790587026605
 31
0.0
  0
LINE
  5
403
  8
MAKE2D$VISIBLE$LINES
 10
220.1071429413828
 20
27.79790587026605
 30
0.0
 11
220.1071429413826
 21
37.38610587026619
 31
0.0
  0
LINE
  5
404
  8
MAKE2D$VISIBLE$LINES
 10
220.1071429413826
 20
37.38610587026619
 30
0.0
 11
210.5188429413827
 21
37.38610587026596
 31
0.0
  0
LINE
  5
405
  8
MAKE2D$VISIBLE$LINES
 10
210.5188429413827
 20
37.38610587026596
 30
0.0
 11
210.5188429413829
 21
27.79790587026582
 31
0.0
  0
LINE
  5
406
  8
MAKE2D$VISIBLE$LINES
 10
240.9988429413829
 20
27.79790587026628
 30
0.0
 11
250.5871429413828
 21
27.79790587026628
 31
0.0
  0
LINE
  5
407
  8
MAKE2D$VISIBLE$LINES
 10
250.5871429413828
 20
27.79790587026628
 30
0.0
 11
250.5871429413826
 21
37.38610587026642
 31
0.0
  0
LINE
  5
408
  8
MAKE2D$VISIBLE$LINES
 10
250.5871429413826
 20
37.38610587026642
 30
0.0
 11
240.9988429413827
 21
37.38610587026642
 31
0.0
  0
LINE
  5
409
  8
MAKE2D$VISIBLE$LINES
 10
240.9988429413827
 20
37.38610587026642
 30
0.0
 11
240.9988429413829
 21
27.79790587026628
 31
0.0
  0
CIRCLE
  5
40A
  8
MAKE2D$VISIBLE$LINES
 10
175.3200679413826
 20
109.5045063589546
 30
0.0
 40
3.5
  0
CIRCLE
  5
40B
  8
MAKE2D$VISIBLE$LINES
 10
210.8800679413825
 20
109.5045063589544
 30
0.0
 40
3.5
  0
CIRCLE
  5
40C
  8
MAKE2D$VISIBLE$LINES
 10
193.1000679413826
 20
112.0445063589542
 30
0.0
 40
2.095429411838998
  0
LINE
  5
40D
  8
MAKE2D$VISIBLE$LINES
 10
180.6859179413827
 20
116.1404063589544
 30
0.0
 11
190.2742179413826
 21
116.1404063589544
 31
0.0
  0
LINE
  5
40E
  8
MAKE2D$VISIBLE$LINES
 10
190.2742179413826
 20
116.1404063589544
 30
0.0
 11
190.2742179413826
 21
125.7286063589545
 31
0.0
  0
LINE
  5
40F
  8
MAKE2D$VISIBLE$LINES
 10
190.2742179413826
 20
125.7286063589545
 30
0.0
 11
180.6859179413827
 21
125.7286063589545
 31
0.0
  0
LINE
  5
410
  8
MAKE2D$VISIBLE$LINES
 10
180.6859179413827
 20
125.7286063589545
 30
0.0
 11
180.6859179413827
 21
116.1404063589544
 31
0.0
  0
LINE
  5
411
  8
MAKE2D$VISIBLE$LINES
 10
195.9259179413827
 20
116.1404063589544
 30
0.0
 11
205.5142179413826
 21
116.1404063589544
 31
0.0
  0
LINE
  5
412
  8
MAKE2D$VISIBLE$LINES
 10
205.5142179413826
 20
116.1404063589544
 30
0.0
 11
205.5142179413826
 21
125.7286063589545
 31
0.0
  0
LINE
  5
413
  8
MAKE2D$VISIBLE$LINES
 10
205.5142179413826
 20
125.7286063589545
 30
0.0
 11
195.9259179413827
 21
125.7286063589545
 31
0.0
  0
LINE
  5
414
  8
MAKE2D$VISIBLE$LINES
 10
195.9259179413827
 20
125.7286063589545
 30
0.0
 11
195.9259179413827
 21
116.1404063589544
 31
0.0
  0
CIRCLE
  5
415
  8
MAKE2D$VISIBLE$LINES
 10
261.2869929413827
 20
38.55849866757243
 30
0.0
 40
2.095429411839025
  0
CIRCLE
  5
416
  8
MAKE2D$VISIBLE$LINES
 10
299.3053024714873
 20
55.2107773966832
 30
0.0
 40
1.75
  0
CIRCLE
  5
417
  8
MAKE2D$VISIBLE$LINES
 10
299.3053024714873
 20
75.66077739668253
 30
0.0
 40
1.75
  0
CIRCLE
  5
418
  8
MAKE2D$VISIBLE$LINES
 10
86.89483341127834
 20
75.66077739668162
 30
0.0
 40
1.75
  0
CIRCLE
  5
419
  8
MAKE2D$VISIBLE$LINES
 10
86.89483341127834
 20
55.21077739668226
 30
0.0
 40
1.75
  0
LINE
  5
41A
  8
MAKE2D$VISIBLE$LINES
 10
318.5309591717094
 20
56.21124403040549
 30
0.0
 11
318.80943936533
 21
56.43638897970652
 31
0.0
  0
LINE
  5
41B
  8
MAKE2D$VISIBLE$LINES
 10
318.80943936533
 20
56.43638897970652
 30
0.0
 11
319.0813195120313
 21
56.66950759974421
 31
0.0
  0
LINE
  5
41C
  8
MAKE2D$VISIBLE$LINES
 10
319.0813195120313
 20
56.66950759974421
 30
0.0
 11
319.3462368968734
 21
56.9103242769505
 31
0.0
  0
LINE
  5
41D
  8
MAKE2D$VISIBLE$LINES
 10
319.3462368968734
 20
56.9103242769505
 30
0.0
 11
319.6038455576032
 21
57.15854310727261
 31
0.0
  0
LINE
  5
41E
  8
MAKE2D$VISIBLE$LINES
 10
319.6038455576032
 20
57.15854310727261
 30
0.0
 11
319.8538177868818
 21
57.41384910462788
 31
0.0
  0
LINE
  5
41F
  8
MAKE2D$VISIBLE$LINES
 10
319.8538177868818
 20
57.41384910462788
 30
0.0
 11
320.0958455207067
 21
57.6759095321495
 31
0.0
  0
LINE
  5
420
  8
MAKE2D$VISIBLE$LINES
 10
320.0958455207067
 20
57.6759095321495
 30
0.0
 11
320.3296416006866
 21
57.94437534442226
 31
0.0
  0
LINE
  5
421
  8
MAKE2D$VISIBLE$LINES
 10
320.3296416006866
 20
57.94437534442226
 30
0.0
 11
320.554940899344
 21
58.21888272761533
 31
0.0
  0
LINE
  5
422
  8
MAKE2D$VISIBLE$LINES
 10
320.554940899344
 20
58.21888272761533
 30
0.0
 11
320.7715012992854
 21
58.49905472332866
 31
0.0
  0
LINE
  5
423
  8
MAKE2D$VISIBLE$LINES
 10
320.7715012992854
 20
58.49905472332866
 30
0.0
 11
320.9791045188713
 21
58.78450292110249
 31
0.0
  0
LINE
  5
424
  8
MAKE2D$VISIBLE$LINES
 10
320.9791045188713
 20
58.78450292110249
 30
0.0
 11
321.1775567789074
 21
59.07482920390852
 31
0.0
  0
LINE
  5
425
  8
MAKE2D$VISIBLE$LINES
 10
321.1775567789074
 20
59.07482920390852
 30
0.0
 11
321.366689306816
 21
59.3696275305556
 31
0.0
  0
LINE
  5
426
  8
MAKE2D$VISIBLE$LINES
 10
321.366689306816
 20
59.3696275305556
 30
0.0
 11
321.546358676703
 21
59.66848573880466
 31
0.0
  0
LINE
  5
427
  8
MAKE2D$VISIBLE$LINES
 10
321.546358676703
 20
59.66848573880466
 30
0.0
 11
321.7164469856721
 21
59.97098735309415
 31
0.0
  0
LINE
  5
428
  8
MAKE2D$VISIBLE$LINES
 10
321.7164469856721
 20
59.97098735309415
 30
0.0
 11
321.8768618686215
 21
60.27671338111995
 31
0.0
  0
LINE
  5
429
  8
MAKE2D$VISIBLE$LINES
 10
321.8768618686215
 20
60.27671338111995
 30
0.0
 11
322.0275363555501
 21
60.58524408407953
 31
0.0
  0
LINE
  5
42A
  8
MAKE2D$VISIBLE$LINES
 10
322.0275363555501
 20
60.58524408407953
 30
0.0
 11
322.1684285770751
 21
60.89616070615894
 31
0.0
  0
LINE
  5
42B
  8
MAKE2D$VISIBLE$LINES
 10
322.1684285770751
 20
60.89616070615894
 30
0.0
 11
322.2995213253948
 21
61.20904714979532
 31
0.0
  0
LINE
  5
42C
  8
MAKE2D$VISIBLE$LINES
 10
322.2995213253948
 20
61.20904714979532
 30
0.0
 11
322.4208214792941
 21
61.52349158435642
 31
0.0
  0
LINE
  5
42D
  8
MAKE2D$VISIBLE$LINES
 10
322.4208214792941
 20
61.52349158435642
 30
0.0
 11
322.5323593029743
 21
61.8390879771201
 31
0.0
  0
LINE
  5
42E
  8
MAKE2D$VISIBLE$LINES
 10
322.5323593029743
 20
61.8390879771201
 30
0.0
 11
322.6341876294734
 21
62.15543753677881
 31
0.0
  0
LINE
  5
42F
  8
MAKE2D$VISIBLE$LINES
 10
322.6341876294734
 20
62.15543753677881
 30
0.0
 11
322.7263809402306
 21
62.47215006110875
 31
0.0
  0
LINE
  5
430
  8
MAKE2D$VISIBLE$LINES
 10
322.7263809402306
 20
62.47215006110875
 30
0.0
 11
322.8090343529256
 21
62.78884518190177
 31
0.0
  0
LINE
  5
431
  8
MAKE2D$VISIBLE$LINES
 10
322.8090343529256
 20
62.78884518190177
 30
0.0
 11
322.8822625301057
 21
63.10515350173103
 31
0.0
  0
LINE
  5
432
  8
MAKE2D$VISIBLE$LINES
 10
322.8822625301057
 20
63.10515350173103
 30
0.0
 11
322.9461985212911
 21
63.42071761858364
 31
0.0
  0
LINE
  5
433
  8
MAKE2D$VISIBLE$LINES
 10
322.9461985212911
 20
63.42071761858364
 30
0.0
 11
323.0009925512467
 21
63.73519303581979
 31
0.0
  0
LINE
  5
434
  8
MAKE2D$VISIBLE$LINES
 10
323.0009925512467
 20
63.73519303581979
 30
0.0
 11
323.046810766931
 21
64.04824895628583
 31
0.0
  0
LINE
  5
435
  8
MAKE2D$VISIBLE$LINES
 10
323.046810766931
 20
64.04824895628583
 30
0.0
 11
323.0838339552978
 21
64.35956896070158
 31
0.0
  0
LINE
  5
436
  8
MAKE2D$VISIBLE$LINES
 10
323.0838339552978
 20
64.35956896070158
 30
0.0
 11
323.112256243651
 21
64.66885157164106
 31
0.0
  0
LINE
  5
437
  8
MAKE2D$VISIBLE$LINES
 10
323.112256243651
 20
64.66885157164106
 30
0.0
 11
323.1322837936572
 21
64.97581070552047
 31
0.0
  0
LINE
  5
438
  8
MAKE2D$VISIBLE$LINES
 10
323.1322837936572
 20
64.97581070552047
 30
0.0
 11
323.1441334994279
 21
65.28017601598789
 31
0.0
  0
LINE
  5
439
  8
MAKE2D$VISIBLE$LINES
 10
323.1441334994279
 20
65.28017601598789
 30
0.0
 11
323.1480316992991
 21
65.58169313296821
 31
0.0
  0
LINE
  5
43A
  8
MAKE2D$VISIBLE$LINES
 10
323.1480316992991
 20
65.58169313296821
 30
0.0
 11
323.1449521954686
 21
65.84968857444564
 31
0.0
  0
LINE
  5
43B
  8
MAKE2D$VISIBLE$LINES
 10
323.1449521954686
 20
65.84968857444564
 30
0.0
 11
323.13560428312
 21
66.11995824753645
 31
0.0
  0
LINE
  5
43C
  8
MAKE2D$VISIBLE$LINES
 10
323.13560428312
 20
66.11995824753645
 30
0.0
 11
323.1198277358299
 21
66.39232512494074
 31
0.0
  0
LINE
  5
43D
  8
MAKE2D$VISIBLE$LINES
 10
323.1198277358299
 20
66.39232512494074
 30
0.0
 11
323.09746805696
 21
66.66660216011918
 31
0.0
  0
LINE
  5
43E
  8
MAKE2D$VISIBLE$LINES
 10
323.09746805696
 20
66.66660216011918
 30
0.0
 11
323.0683771934085
 21
66.94259240454251
 31
0.0
  0
LINE
  5
43F
  8
MAKE2D$VISIBLE$LINES
 10
323.0683771934085
 20
66.94259240454251
 30
0.0
 11
323.0324142576521
 21
67.22008917579073
 31
0.0
  0
LINE
  5
440
  8
MAKE2D$VISIBLE$LINES
 10
323.0324142576521
 20
67.22008917579073
 30
0.0
 11
322.9894462539802
 21
67.49887627850862
 31
0.0
  0
LINE
  5
441
  8
MAKE2D$VISIBLE$LINES
 10
322.9894462539802
 20
67.49887627850862
 30
0.0
 11
322.9393488045063
 21
67.7787282799092
 31
0.0
  0
LINE
  5
442
  8
MAKE2D$VISIBLE$LINES
 10
322.9393488045063
 20
67.7787282799092
 30
0.0
 11
322.8820068702514
 21
68.05941084115868
 31
0.0
  0
LINE
  5
443
  8
MAKE2D$VISIBLE$LINES
 10
322.8820068702514
 20
68.05941084115868
 30
0.0
 11
322.8173154623335
 21
68.34068110557773
 31
0.0
  0
LINE
  5
444
  8
MAKE2D$VISIBLE$LINES
 10
322.8173154623335
 20
68.34068110557773
 30
0.0
 11
322.7451803380717
 21
68.62228814415604
 31
0.0
  0
LINE
  5
445
  8
MAKE2D$VISIBLE$LINES
 10
322.7451803380717
 20
68.62228814415604
 30
0.0
 11
322.665518676637
 21
68.9039734584024
 31
0.0
  0
LINE
  5
446
  8
MAKE2D$VISIBLE$LINES
 10
322.665518676637
 20
68.9039734584024
 30
0.0
 11
322.5782597287458
 21
69.18547154004753
 31
0.0
  0
LINE
  5
447
  8
MAKE2D$VISIBLE$LINES
 10
322.5782597287458
 20
69.18547154004753
 30
0.0
 11
322.48334543482
 21
69.46651048658282
 31
0.0
  0
LINE
  5
448
  8
MAKE2D$VISIBLE$LINES
 10
322.48334543482
 20
69.46651048658282
 30
0.0
 11
322.3807310060168
 21
69.74681267106477
 31
0.0
  0
LINE
  5
449
  8
MAKE2D$VISIBLE$LINES
 10
322.3807310060168
 20
69.74681267106477
 30
0.0
 11
322.2703854625795
 21
70.0260954640455
 31
0.0
  0
LINE
  5
44A
  8
MAKE2D$VISIBLE$LINES
 10
322.2703854625795
 20
70.0260954640455
 30
0.0
 11
322.1522921240741
 21
70.30407200491318
 31
0.0
  0
LINE
  5
44B
  8
MAKE2D$VISIBLE$LINES
 10
322.1522921240741
 20
70.30407200491318
 30
0.0
 11
322.0264490462586
 21
70.58045201935118
 31
0.0
  0
LINE
  5
44C
  8
MAKE2D$VISIBLE$LINES
 10
322.0264490462586
 20
70.58045201935118
 30
0.0
 11
321.8928693995861
 21
70.85494267905707
 31
0.0
  0
LINE
  5
44D
  8
MAKE2D$VISIBLE$LINES
 10
321.8928693995861
 20
70.85494267905707
 30
0.0
 11
321.751581784671
 21
71.12724949931469
 31
0.0
  0
LINE
  5
44E
  8
MAKE2D$VISIBLE$LINES
 10
321.751581784671
 20
71.12724949931469
 30
0.0
 11
321.6026304804381
 21
71.39707726949024
 31
0.0
  0
LINE
  5
44F
  8
MAKE2D$VISIBLE$LINES
 10
321.6026304804381
 20
71.39707726949024
 30
0.0
 11
321.446075621142
 21
71.66413101103765
 31
0.0
  0
LINE
  5
450
  8
MAKE2D$VISIBLE$LINES
 10
321.446075621142
 20
71.66413101103765
 30
0.0
 11
321.281993298971
 21
71.92811695715773
 31
0.0
  0
LINE
  5
451
  8
MAKE2D$VISIBLE$LINES
 10
321.281993298971
 20
71.92811695715773
 30
0.0
 11
321.1104755895322
 21
72.18874354786792
 31
0.0
  0
LINE
  5
452
  8
MAKE2D$VISIBLE$LINES
 10
321.1104755895322
 20
72.18874354786792
 30
0.0
 11
320.9316304981593
 21
72.44572243391416
 31
0.0
  0
LINE
  5
453
  8
MAKE2D$VISIBLE$LINES
 10
320.9316304981593
 20
72.44572243391416
 30
0.0
 11
320.7455818256617
 21
72.69876948269777
 31
0.0
  0
LINE
  5
454
  8
MAKE2D$VISIBLE$LINES
 10
320.7455818256617
 20
72.69876948269777
 30
0.0
 11
320.5524689528588
 21
72.94760577920852
 31
0.0
  0
LINE
  5
455
  8
MAKE2D$VISIBLE$LINES
 10
320.5524689528588
 20
72.94760577920852
 30
0.0
 11
320.3524465439847
 21
73.19195861485102
 31
0.0
  0
LINE
  5
456
  8
MAKE2D$VISIBLE$LINES
 10
320.3524465439847
 20
73.19195861485102
 30
0.0
 11
320.1456841698137
 21
73.43156245703234
 31
0.0
  0
LINE
  5
457
  8
MAKE2D$VISIBLE$LINES
 10
320.1456841698137
 20
73.43156245703234
 30
0.0
 11
319.9323658521211
 21
73.666159892444
 31
0.0
  0
LINE
  5
458
  8
MAKE2D$VISIBLE$LINES
 10
319.9323658521211
 20
73.666159892444
 30
0.0
 11
319.7126895318543
 21
73.89550253712383
 31
0.0
  0
LINE
  5
459
  8
MAKE2D$VISIBLE$LINES
 10
319.7126895318543
 20
73.89550253712383
 30
0.0
 11
319.486866464131
 21
74.1193519066209
 31
0.0
  0
LINE
  5
45A
  8
MAKE2D$VISIBLE$LINES
 10
319.486866464131
 20
74.1193519066209
 30
0.0
 11
319.2551205438908
 21
74.33748023990674
 31
0.0
  0
LINE
  5
45B
  8
MAKE2D$VISIBLE$LINES
 10
319.2551205438908
 20
74.33748023990674
 30
0.0
 11
319.0176875667016
 21
74.54967127107655
 31
0.0
  0
LINE
  5
45C
  8
MAKE2D$VISIBLE$LINES
 10
319.0176875667016
 20
74.54967127107655
 30
0.0
 11
318.7748144298346
 21
74.75572094335635
 31
0.0
  0
LINE
  5
45D
  8
MAKE2D$VISIBLE$LINES
 10
318.7748144298346
 20
74.75572094335635
 30
0.0
 11
318.5267582792895
 21
74.95543806047297
 31
0.0
  0
LINE
  5
45E
  8
MAKE2D$VISIBLE$LINES
 10
318.5267582792895
 20
74.95543806047297
 30
0.0
 11
318.2737856089331
 21
75.14864487104106
 31
0.0
  0
LINE
  5
45F
  8
MAKE2D$VISIBLE$LINES
 10
318.2737856089331
 20
75.14864487104106
 30
0.0
 11
318.0161713183341
 21
75.3351775822703
 31
0.0
  0
LINE
  5
460
  8
MAKE2D$VISIBLE$LINES
 10
318.0161713183341
 20
75.3351775822703
 30
0.0
 11
317.7541977362054
 21
75.51488679998252
 31
0.0
  0
LINE
  5
461
  8
MAKE2D$VISIBLE$LINES
 10
317.7541977362054
 20
75.51488679998252
 30
0.0
 11
317.4881536166133
 21
75.68763789264464
 31
0.0
  0
LINE
  5
462
  8
MAKE2D$VISIBLE$LINES
 10
317.4881536166133
 20
75.68763789264464
 30
0.0
 11
317.2183331152696
 21
75.85331127785746
 31
0.0
  0
LINE
  5
463
  8
MAKE2D$VISIBLE$LINES
 10
317.2183331152696
 20
75.85331127785746
 30
0.0
 11
316.9450347532885
 21
76.01180263047993
 31
0.0
  0
LINE
  5
464
  8
MAKE2D$VISIBLE$LINES
 10
316.9450347532885
 20
76.01180263047993
 30
0.0
 11
316.6685603757751
 21
76.16302301230505
 31
0.0
  0
LINE
  5
465
  8
MAKE2D$VISIBLE$LINES
 10
316.6685603757751
 20
76.16302301230505
 30
0.0
 11
316.3892141124991
 21
76.30689892392313
 31
0.0
  0
LINE
  5
466
  8
MAKE2D$VISIBLE$LINES
 10
316.3892141124991
 20
76.30689892392313
 30
0.0
 11
316.1073013477233
 21
76.44337228010437
 31
0.0
  0
LINE
  5
467
  8
MAKE2D$VISIBLE$LINES
 10
316.1073013477233
 20
76.44337228010437
 30
0.0
 11
315.8231277059847
 21
76.57240031069186
 31
0.0
  0
LINE
  5
468
  8
MAKE2D$VISIBLE$LINES
 10
315.8231277059847
 20
76.57240031069186
 30
0.0
 11
315.5369980602956
 21
76.69395538961365
 31
0.0
  0
LINE
  5
469
  8
MAKE2D$VISIBLE$LINES
 10
315.5369980602956
 20
76.69395538961365
 30
0.0
 11
315.2492155688225
 21
76.80802479518869
 31
0.0
  0
LINE
  5
46A
  8
MAKE2D$VISIBLE$LINES
 10
315.2492155688225
 20
76.80802479518869
 30
0.0
 11
314.9600807456512
 21
76.9146104054107
 31
0.0
  0
LINE
  5
46B
  8
MAKE2D$VISIBLE$LINES
 10
314.9600807456512
 20
76.9146104054107
 30
0.0
 11
314.6698905707401
 21
77.01372833234167
 31
0.0
  0
LINE
  5
46C
  8
MAKE2D$VISIBLE$LINES
 10
314.6698905707401
 20
77.01372833234167
 30
0.0
 11
314.3789376436246
 21
77.10540850012858
 31
0.0
  0
LINE
  5
46D
  8
MAKE2D$VISIBLE$LINES
 10
314.3789376436246
 20
77.10540850012858
 30
0.0
 11
314.0875093848662
 21
77.18969417147146
 31
0.0
  0
LINE
  5
46E
  8
MAKE2D$VISIBLE$LINES
 10
314.0875093848662
 20
77.18969417147146
 30
0.0
 11
313.7958872886556
 21
77.26664142761632
 31
0.0
  0
LINE
  5
46F
  8
MAKE2D$VISIBLE$LINES
 10
313.7958872886556
 20
77.26664142761632
 30
0.0
 11
313.5043462293797
 21
77.3363186071233
 31
0.0
  0
LINE
  5
470
  8
MAKE2D$VISIBLE$LINES
 10
313.5043462293797
 20
77.3363186071233
 30
0.0
 11
313.213153824369
 21
77.39880570877028
 31
0.0
  0
LINE
  5
471
  8
MAKE2D$VISIBLE$LINES
 10
313.213153824369
 20
77.39880570877028
 30
0.0
 11
312.9225698544509
 21
77.45419376399647
 31
0.0
  0
LINE
  5
472
  8
MAKE2D$VISIBLE$LINES
 10
312.9225698544509
 20
77.45419376399647
 30
0.0
 11
312.6328457433607
 21
77.50258418427457
 31
0.0
  0
LINE
  5
473
  8
MAKE2D$VISIBLE$LINES
 10
312.6328457433607
 20
77.50258418427457
 30
0.0
 11
312.3442240965114
 21
77.54408808872536
 31
0.0
  0
LINE
  5
474
  8
MAKE2D$VISIBLE$LINES
 10
312.3442240965114
 20
77.54408808872536
 30
0.0
 11
312.0569382990973
 21
77.57882561716164
 31
0.0
  0
LINE
  5
475
  8
MAKE2D$VISIBLE$LINES
 10
312.0569382990973
 20
77.57882561716164
 30
0.0
 11
311.7712121730203
 21
77.60692523357513
 31
0.0
  0
LINE
  5
476
  8
MAKE2D$VISIBLE$LINES
 10
311.7712121730203
 20
77.60692523357513
 30
0.0
 11
311.4872596916666
 21
77.62852302486309
 31
0.0
  0
LINE
  5
477
  8
MAKE2D$VISIBLE$LINES
 10
311.4872596916666
 20
77.62852302486309
 30
0.0
 11
311.2052847511573
 21
77.64376199934019
 31
0.0
  0
LINE
  5
478
  8
MAKE2D$VISIBLE$LINES
 10
311.2052847511573
 20
77.64376199934019
 30
0.0
 11
310.9254809963191
 21
77.6527913892997
 31
0.0
  0
LINE
  5
479
  8
MAKE2D$VISIBLE$LINES
 10
310.9254809963191
 20
77.6527913892997
 30
0.0
 11
310.6480316992991
 21
77.65576596158166
 31
0.0
  0
LINE
  5
47A
  8
MAKE2D$VISIBLE$LINES
 10
310.6480316992991
 20
77.65576596158166
 30
0.0
 11
310.370582402279
 21
77.6527913892997
 31
0.0
  0
LINE
  5
47B
  8
MAKE2D$VISIBLE$LINES
 10
310.370582402279
 20
77.6527913892997
 30
0.0
 11
310.0907786474408
 21
77.64376199934019
 31
0.0
  0
LINE
  5
47C
  8
MAKE2D$VISIBLE$LINES
 10
310.0907786474408
 20
77.64376199934019
 30
0.0
 11
309.8088037069315
 21
77.62852302486309
 31
0.0
  0
LINE
  5
47D
  8
MAKE2D$VISIBLE$LINES
 10
309.8088037069315
 20
77.62852302486309
 30
0.0
 11
309.5248512255778
 21
77.60692523357513
 31
0.0
  0
LINE
  5
47E
  8
MAKE2D$VISIBLE$LINES
 10
309.5248512255778
 20
77.60692523357513
 30
0.0
 11
309.2391250995007
 21
77.57882561716164
 31
0.0
  0
LINE
  5
47F
  8
MAKE2D$VISIBLE$LINES
 10
309.2391250995007
 20
77.57882561716164
 30
0.0
 11
308.9518393020867
 21
77.54408808872536
 31
0.0
  0
LINE
  5
480
  8
MAKE2D$VISIBLE$LINES
 10
308.9518393020867
 20
77.54408808872536
 30
0.0
 11
308.6632176552374
 21
77.50258418427457
 31
0.0
  0
LINE
  5
481
  8
MAKE2D$VISIBLE$LINES
 10
308.6632176552374
 20
77.50258418427457
 30
0.0
 11
308.3734935441473
 21
77.45419376399647
 31
0.0
  0
LINE
  5
482
  8
MAKE2D$VISIBLE$LINES
 10
308.3734935441473
 20
77.45419376399647
 30
0.0
 11
308.0829095742292
 21
77.39880570877028
 31
0.0
  0
LINE
  5
483
  8
MAKE2D$VISIBLE$LINES
 10
308.0829095742292
 20
77.39880570877028
 30
0.0
 11
307.7917171692185
 21
77.3363186071233
 31
0.0
  0
LINE
  5
484
  8
MAKE2D$VISIBLE$LINES
 10
307.7917171692185
 20
77.3363186071233
 30
0.0
 11
307.5001761099426
 21
77.26664142761632
 31
0.0
  0
LINE
  5
485
  8
MAKE2D$VISIBLE$LINES
 10
307.5001761099426
 20
77.26664142761632
 30
0.0
 11
307.208554013732
 21
77.18969417147146
 31
0.0
  0
LINE
  5
486
  8
MAKE2D$VISIBLE$LINES
 10
307.208554013732
 20
77.18969417147146
 30
0.0
 11
306.9171257549737
 21
77.10540850012858
 31
0.0
  0
LINE
  5
487
  8
MAKE2D$VISIBLE$LINES
 10
306.9171257549737
 20
77.10540850012858
 30
0.0
 11
306.6261728278581
 21
77.01372833234167
 31
0.0
  0
LINE
  5
488
  8
MAKE2D$VISIBLE$LINES
 10
306.6261728278581
 20
77.01372833234167
 30
0.0
 11
306.335982652947
 21
76.9146104054107
 31
0.0
  0
LINE
  5
489
  8
MAKE2D$VISIBLE$LINES
 10
306.335982652947
 20
76.9146104054107
 30
0.0
 11
306.0468478297757
 21
76.80802479518869
 31
0.0
  0
LINE
  5
48A
  8
MAKE2D$VISIBLE$LINES
 10
306.0468478297757
 20
76.80802479518869
 30
0.0
 11
305.7590653383025
 21
76.69395538961365
 31
0.0
  0
LINE
  5
48B
  8
MAKE2D$VISIBLE$LINES
 10
305.7590653383025
 20
76.69395538961365
 30
0.0
 11
305.4729356926135
 21
76.57240031069186
 31
0.0
  0
LINE
  5
48C
  8
MAKE2D$VISIBLE$LINES
 10
305.4729356926135
 20
76.57240031069186
 30
0.0
 11
305.188762050875
 21
76.44337228010437
 31
0.0
  0
LINE
  5
48D
  8
MAKE2D$VISIBLE$LINES
 10
305.188762050875
 20
76.44337228010437
 30
0.0
 11
304.9068492860991
 21
76.30689892392313
 31
0.0
  0
LINE
  5
48E
  8
MAKE2D$VISIBLE$LINES
 10
304.9068492860991
 20
76.30689892392313
 30
0.0
 11
304.6275030228232
 21
76.16302301230505
 31
0.0
  0
LINE
  5
48F
  8
MAKE2D$VISIBLE$LINES
 10
304.6275030228232
 20
76.16302301230505
 30
0.0
 11
304.3510286453097
 21
76.01180263047993
 31
0.0
  0
LINE
  5
490
  8
MAKE2D$VISIBLE$LINES
 10
304.3510286453097
 20
76.01180263047993
 30
0.0
 11
304.0777302833286
 21
75.85331127785746
 31
0.0
  0
LINE
  5
491
  8
MAKE2D$VISIBLE$LINES
 10
304.0777302833286
 20
75.85331127785746
 30
0.0
 11
303.8079097819847
 21
75.68763789264464
 31
0.0
  0
LINE
  5
492
  8
MAKE2D$VISIBLE$LINES
 10
303.8079097819847
 20
75.68763789264464
 30
0.0
 11
303.5418656623928
 21
75.51488679998252
 31
0.0
  0
LINE
  5
493
  8
MAKE2D$VISIBLE$LINES
 10
303.5418656623928
 20
75.51488679998252
 30
0.0
 11
303.279892080264
 21
75.3351775822703
 31
0.0
  0
LINE
  5
494
  8
MAKE2D$VISIBLE$LINES
 10
303.279892080264
 20
75.3351775822703
 30
0.0
 11
303.0222777896651
 21
75.14864487104106
 31
0.0
  0
LINE
  5
495
  8
MAKE2D$VISIBLE$LINES
 10
303.0222777896651
 20
75.14864487104106
 30
0.0
 11
302.7693051193087
 21
74.95543806047297
 31
0.0
  0
LINE
  5
496
  8
MAKE2D$VISIBLE$LINES
 10
302.7693051193087
 20
74.95543806047297
 30
0.0
 11
302.5212489687638
 21
74.75572094335635
 31
0.0
  0
LINE
  5
497
  8
MAKE2D$VISIBLE$LINES
 10
302.5212489687638
 20
74.75572094335635
 30
0.0
 11
302.2783758318967
 21
74.54967127107655
 31
0.0
  0
LINE
  5
498
  8
MAKE2D$VISIBLE$LINES
 10
302.2783758318967
 20
74.54967127107655
 30
0.0
 11
302.0409428547073
 21
74.33748023990674
 31
0.0
  0
LINE
  5
499
  8
MAKE2D$VISIBLE$LINES
 10
302.0409428547073
 20
74.33748023990674
 30
0.0
 11
301.8091969344673
 21
74.1193519066209
 31
0.0
  0
LINE
  5
49A
  8
MAKE2D$VISIBLE$LINES
 10
301.8091969344673
 20
74.1193519066209
 30
0.0
 11
301.5833738667438
 21
73.89550253712383
 31
0.0
  0
LINE
  5
49B
  8
MAKE2D$VISIBLE$LINES
 10
301.5833738667438
 20
73.89550253712383
 30
0.0
 11
301.3636975464772
 21
73.666159892444
 31
0.0
  0
LINE
  5
49C
  8
MAKE2D$VISIBLE$LINES
 10
301.3636975464772
 20
73.666159892444
 30
0.0
 11
301.1503792287846
 21
73.43156245703234
 31
0.0
  0
LINE
  5
49D
  8
MAKE2D$VISIBLE$LINES
 10
301.1503792287846
 20
73.43156245703234
 30
0.0
 11
300.9436168546136
 21
73.19195861485102
 31
0.0
  0
LINE
  5
49E
  8
MAKE2D$VISIBLE$LINES
 10
300.9436168546136
 20
73.19195861485102
 30
0.0
 11
300.7435944457394
 21
72.94760577920852
 31
0.0
  0
LINE
  5
49F
  8
MAKE2D$VISIBLE$LINES
 10
300.7435944457394
 20
72.94760577920852
 30
0.0
 11
300.5504815729364
 21
72.69876948269777
 31
0.0
  0
LINE
  5
4A0
  8
MAKE2D$VISIBLE$LINES
 10
300.5504815729364
 20
72.69876948269777
 30
0.0
 11
300.3644329004388
 21
72.44572243391416
 31
0.0
  0
LINE
  5
4A1
  8
MAKE2D$VISIBLE$LINES
 10
300.3644329004388
 20
72.44572243391416
 30
0.0
 11
300.1855878090659
 21
72.18874354786792
 31
0.0
  0
LINE
  5
4A2
  8
MAKE2D$VISIBLE$LINES
 10
300.1855878090659
 20
72.18874354786792
 30
0.0
 11
300.0140700996272
 21
71.92811695715773
 31
0.0
  0
LINE
  5
4A3
  8
MAKE2D$VISIBLE$LINES
 10
300.0140700996272
 20
71.92811695715773
 30
0.0
 11
299.8499877774562
 21
71.66413101103765
 31
0.0
  0
LINE
  5
4A4
  8
MAKE2D$VISIBLE$LINES
 10
299.8499877774562
 20
71.66413101103765
 30
0.0
 11
299.6934329181602
 21
71.39707726949024
 31
0.0
  0
LINE
  5
4A5
  8
MAKE2D$VISIBLE$LINES
 10
299.6934329181602
 20
71.39707726949024
 30
0.0
 11
299.5444816139272
 21
71.12724949931469
 31
0.0
  0
LINE
  5
4A6
  8
MAKE2D$VISIBLE$LINES
 10
299.5444816139272
 20
71.12724949931469
 30
0.0
 11
299.4031939990122
 21
70.85494267905707
 31
0.0
  0
LINE
  5
4A7
  8
MAKE2D$VISIBLE$LINES
 10
299.4031939990122
 20
70.85494267905707
 30
0.0
 11
299.2696143523397
 21
70.58045201935118
 31
0.0
  0
LINE
  5
4A8
  8
MAKE2D$VISIBLE$LINES
 10
299.2696143523397
 20
70.58045201935118
 30
0.0
 11
299.1437712745241
 21
70.30407200491318
 31
0.0
  0
LINE
  5
4A9
  8
MAKE2D$VISIBLE$LINES
 10
299.1437712745241
 20
70.30407200491318
 30
0.0
 11
299.0256779360187
 21
70.0260954640455
 31
0.0
  0
LINE
  5
4AA
  8
MAKE2D$VISIBLE$LINES
 10
299.0256779360187
 20
70.0260954640455
 30
0.0
 11
298.9153323925814
 21
69.74681267106477
 31
0.0
  0
LINE
  5
4AB
  8
MAKE2D$VISIBLE$LINES
 10
298.9153323925814
 20
69.74681267106477
 30
0.0
 11
298.8127179637781
 21
69.46651048658282
 31
0.0
  0
LINE
  5
4AC
  8
MAKE2D$VISIBLE$LINES
 10
298.8127179637781
 20
69.46651048658282
 30
0.0
 11
298.7178036698523
 21
69.18547154004753
 31
0.0
  0
LINE
  5
4AD
  8
MAKE2D$VISIBLE$LINES
 10
298.7178036698523
 20
69.18547154004753
 30
0.0
 11
298.6305447219612
 21
68.9039734584024
 31
0.0
  0
LINE
  5
4AE
  8
MAKE2D$VISIBLE$LINES
 10
298.6305447219612
 20
68.9039734584024
 30
0.0
 11
298.5508830605266
 21
68.62228814415604
 31
0.0
  0
LINE
  5
4AF
  8
MAKE2D$VISIBLE$LINES
 10
298.5508830605266
 20
68.62228814415604
 30
0.0
 11
298.4787479362648
 21
68.34068110557773
 31
0.0
  0
LINE
  5
4B0
  8
MAKE2D$VISIBLE$LINES
 10
298.4787479362648
 20
68.34068110557773
 30
0.0
 11
298.4140565283467
 21
68.05941084115868
 31
0.0
  0
LINE
  5
4B1
  8
MAKE2D$VISIBLE$LINES
 10
298.4140565283467
 20
68.05941084115868
 30
0.0
 11
298.3567145940919
 21
67.7787282799092
 31
0.0
  0
LINE
  5
4B2
  8
MAKE2D$VISIBLE$LINES
 10
298.3567145940919
 20
67.7787282799092
 30
0.0
 11
298.3066171446179
 21
67.49887627850862
 31
0.0
  0
LINE
  5
4B3
  8
MAKE2D$VISIBLE$LINES
 10
298.3066171446179
 20
67.49887627850862
 30
0.0
 11
298.263649140946
 21
67.22008917579073
 31
0.0
  0
LINE
  5
4B4
  8
MAKE2D$VISIBLE$LINES
 10
298.263649140946
 20
67.22008917579073
 30
0.0
 11
298.2276862051896
 21
66.94259240454251
 31
0.0
  0
LINE
  5
4B5
  8
MAKE2D$VISIBLE$LINES
 10
298.2276862051896
 20
66.94259240454251
 30
0.0
 11
298.1985953416381
 21
66.66660216011918
 31
0.0
  0
LINE
  5
4B6
  8
MAKE2D$VISIBLE$LINES
 10
298.1985953416381
 20
66.66660216011918
 30
0.0
 11
298.1762356627682
 21
66.39232512494074
 31
0.0
  0
LINE
  5
4B7
  8
MAKE2D$VISIBLE$LINES
 10
298.1762356627682
 20
66.39232512494074
 30
0.0
 11
298.1604591154781
 21
66.11995824753645
 31
0.0
  0
LINE
  5
4B8
  8
MAKE2D$VISIBLE$LINES
 10
298.1604591154781
 20
66.11995824753645
 30
0.0
 11
298.1511112031295
 21
65.84968857444564
 31
0.0
  0
LINE
  5
4B9
  8
MAKE2D$VISIBLE$LINES
 10
298.1511112031295
 20
65.84968857444564
 30
0.0
 11
298.1480316992991
 21
65.58169313296821
 31
0.0
  0
LINE
  5
4BA
  8
MAKE2D$VISIBLE$LINES
 10
298.1480316992991
 20
65.58169313296821
 30
0.0
 11
298.1519298991702
 21
65.28017601598789
 31
0.0
  0
LINE
  5
4BB
  8
MAKE2D$VISIBLE$LINES
 10
298.1519298991702
 20
65.28017601598789
 30
0.0
 11
298.1637796049411
 21
64.97581070552046
 31
0.0
  0
LINE
  5
4BC
  8
MAKE2D$VISIBLE$LINES
 10
298.1637796049411
 20
64.97581070552046
 30
0.0
 11
298.1838071549473
 21
64.66885157164101
 31
0.0
  0
LINE
  5
4BD
  8
MAKE2D$VISIBLE$LINES
 10
298.1838071549473
 20
64.66885157164101
 30
0.0
 11
298.2122294433003
 21
64.35956896070152
 31
0.0
  0
LINE
  5
4BE
  8
MAKE2D$VISIBLE$LINES
 10
298.2122294433003
 20
64.35956896070152
 30
0.0
 11
298.2492526316672
 21
64.04824895628576
 31
0.0
  0
LINE
  5
4BF
  8
MAKE2D$VISIBLE$LINES
 10
298.2492526316672
 20
64.04824895628576
 30
0.0
 11
298.2950708473516
 21
63.73519303581972
 31
0.0
  0
LINE
  5
4C0
  8
MAKE2D$VISIBLE$LINES
 10
298.2950708473516
 20
63.73519303581972
 30
0.0
 11
298.3498648773071
 21
63.42071761858355
 31
0.0
  0
LINE
  5
4C1
  8
MAKE2D$VISIBLE$LINES
 10
298.3498648773071
 20
63.42071761858355
 30
0.0
 11
298.4138008684926
 21
63.10515350173091
 31
0.0
  0
LINE
  5
4C2
  8
MAKE2D$VISIBLE$LINES
 10
298.4138008684926
 20
63.10515350173091
 30
0.0
 11
298.4870290456727
 21
62.78884518190163
 31
0.0
  0
LINE
  5
4C3
  8
MAKE2D$VISIBLE$LINES
 10
298.4870290456727
 20
62.78884518190163
 30
0.0
 11
298.5696824583678
 21
62.47215006110858
 31
0.0
  0
LINE
  5
4C4
  8
MAKE2D$VISIBLE$LINES
 10
298.5696824583678
 20
62.47215006110858
 30
0.0
 11
298.6618757691249
 21
62.15543753677862
 31
0.0
  0
LINE
  5
4C5
  8
MAKE2D$VISIBLE$LINES
 10
298.6618757691249
 20
62.15543753677862
 30
0.0
 11
298.763704095624
 21
61.83908797711989
 31
0.0
  0
LINE
  5
4C6
  8
MAKE2D$VISIBLE$LINES
 10
298.763704095624
 20
61.83908797711989
 30
0.0
 11
298.8752419193041
 21
61.52349158435618
 31
0.0
  0
LINE
  5
4C7
  8
MAKE2D$VISIBLE$LINES
 10
298.8752419193041
 20
61.52349158435618
 30
0.0
 11
298.9965420732034
 21
61.20904714979505
 31
0.0
  0
LINE
  5
4C8
  8
MAKE2D$VISIBLE$LINES
 10
298.9965420732034
 20
61.20904714979505
 30
0.0
 11
299.1276348215231
 21
60.89616070615865
 31
0.0
  0
LINE
  5
4C9
  8
MAKE2D$VISIBLE$LINES
 10
299.1276348215231
 20
60.89616070615865
 30
0.0
 11
299.2685270430482
 21
60.58524408407921
 31
0.0
  0
LINE
  5
4CA
  8
MAKE2D$VISIBLE$LINES
 10
299.2685270430482
 20
60.58524408407921
 30
0.0
 11
299.4192015299769
 21
60.27671338111961
 31
0.0
  0
LINE
  5
4CB
  8
MAKE2D$VISIBLE$LINES
 10
299.4192015299769
 20
60.27671338111961
 30
0.0
 11
299.5796164129263
 21
59.97098735309375
 31
0.0
  0
LINE
  5
4CC
  8
MAKE2D$VISIBLE$LINES
 10
299.5796164129263
 20
59.97098735309375
 30
0.0
 11
299.7497047218953
 21
59.66848573880424
 31
0.0
  0
LINE
  5
4CD
  8
MAKE2D$VISIBLE$LINES
 10
299.7497047218953
 20
59.66848573880424
 30
0.0
 11
299.9293740917823
 21
59.36962753055514
 31
0.0
  0
LINE
  5
4CE
  8
MAKE2D$VISIBLE$LINES
 10
299.9293740917823
 20
59.36962753055514
 30
0.0
 11
300.118506619691
 21
59.07482920390802
 31
0.0
  0
LINE
  5
4CF
  8
MAKE2D$VISIBLE$LINES
 10
300.118506619691
 20
59.07482920390802
 30
0.0
 11
300.316958879727
 21
58.78450292110195
 31
0.0
  0
LINE
  5
4D0
  8
MAKE2D$VISIBLE$LINES
 10
300.316958879727
 20
58.78450292110195
 30
0.0
 11
300.5245620993128
 21
58.49905472332809
 31
0.0
  0
LINE
  5
4D1
  8
MAKE2D$VISIBLE$LINES
 10
300.5245620993128
 20
58.49905472332809
 30
0.0
 11
300.7411224992542
 21
58.21888272761471
 31
0.0
  0
LINE
  5
4D2
  8
MAKE2D$VISIBLE$LINES
 10
300.7411224992542
 20
58.21888272761471
 30
0.0
 11
300.9664217979117
 21
57.9443753444216
 31
0.0
  0
LINE
  5
4D3
  8
MAKE2D$VISIBLE$LINES
 10
300.9664217979117
 20
57.9443753444216
 30
0.0
 11
301.2002178778915
 21
57.67590953214879
 31
0.0
  0
LINE
  5
4D4
  8
MAKE2D$VISIBLE$LINES
 10
301.2002178778915
 20
57.67590953214879
 30
0.0
 11
301.4422456117164
 21
57.41384910462712
 31
0.0
  0
LINE
  5
4D5
  8
MAKE2D$VISIBLE$LINES
 10
301.4422456117164
 20
57.41384910462712
 30
0.0
 11
301.6922178409952
 21
57.1585431072718
 31
0.0
  0
LINE
  5
4D6
  8
MAKE2D$VISIBLE$LINES
 10
301.6922178409952
 20
57.1585431072718
 30
0.0
 11
301.9498265017249
 21
56.91032427694966
 31
0.0
  0
LINE
  5
4D7
  8
MAKE2D$VISIBLE$LINES
 10
301.9498265017249
 20
56.91032427694966
 30
0.0
 11
302.2147438865671
 21
56.66950759974333
 31
0.0
  0
LINE
  5
4D8
  8
MAKE2D$VISIBLE$LINES
 10
302.2147438865671
 20
56.66950759974333
 30
0.0
 11
302.4866240332683
 21
56.4363889797056
 31
0.0
  0
LINE
  5
4D9
  8
MAKE2D$VISIBLE$LINES
 10
302.4866240332683
 20
56.4363889797056
 30
0.0
 11
302.7651042268889
 21
56.21124403040452
 31
0.0
  0
LINE
  5
4DA
  8
MAKE2D$VISIBLE$LINES
 10
302.7651042268889
 20
56.21124403040452
 30
0.0
 11
302.7651042268892
 21
53.50762030435451
 31
0.0
  0
LINE
  5
4DB
  8
MAKE2D$VISIBLE$LINES
 10
302.7651042268892
 20
53.50762030435451
 30
0.0
 11
302.7651042268892
 21
49.83806783376581
 31
0.0
  0
LINE
  5
4DC
  8
MAKE2D$VISIBLE$LINES
 10
302.7651042268892
 20
49.83806783376581
 30
0.0
 11
310.6480316992991
 21
49.83806783376581
 31
0.0
  0
LINE
  5
4DD
  8
MAKE2D$VISIBLE$LINES
 10
310.6480316992991
 20
49.83806783376581
 30
0.0
 11
318.5309591717093
 21
49.83806783376581
 31
0.0
  0
LINE
  5
4DE
  8
MAKE2D$VISIBLE$LINES
 10
318.5309591717093
 20
49.83806783376581
 30
0.0
 11
318.5309591717093
 21
56.21124403040505
 31
0.0
  0
ENDSEC
  0
EOF
