  0
SECTION
  2
HEADER
  9
$ACADVER
  1
AC1009
  9
$DWGCODEPAGE
  3
mac-roman
  9
$INSBASE
 10
0.0
 20
0.0
 30
0.0
  9
$EXTMIN
 10
-1053.798312050016
 20
-1574.525472582103
 30
0.0
  9
$EXTMAX
 10
-733.7984756211405
 20
-1406.636507135142
 30
0.0000000000000568
  9
$LIMMIN
 10
0.0
 20
0.0
  9
$LIMMAX
 10
12.0
 20
9.0
  9
$ORTHOMODE
 70
     0
  9
$REGENMODE
 70
     1
  9
$FILLMODE
 70
     1
  9
$QTEXTMODE
 70
     0
  9
$MIRRTEXT
 70
     1
  9
$DRAGMODE
 70
     2
  9
$LTSCALE
 40
1.0
  9
$OSMODE
 70
    37
  9
$ATTMODE
 70
     1
  9
$TEXTSIZE
 40
0.2
  9
$TRACEWID
 40
0.05
  9
$TEXTSTYLE
  7
STANDARD
  9
$CLAYER
  8
FAB_3$PI_PROJECTOR$PANEL-P
  9
$CELTYPE
  6
BYLAYER
  9
$CECOLOR
 62
   256
  9
$DIMSCALE
 40
1.0
  9
$DIMASZ
 40
0.18
  9
$DIMEXO
 40
0.0625
  9
$DIMDLI
 40
0.38
  9
$DIMRND
 40
0.0
  9
$DIMDLE
 40
0.0
  9
$DIMEXE
 40
0.18
  9
$DIMTP
 40
0.0
  9
$DIMTM
 40
0.0
  9
$DIMTXT
 40
0.18
  9
$DIMCEN
 40
0.09
  9
$DIMTSZ
 40
0.0
  9
$DIMTOL
 70
     0
  9
$DIMLIM
 70
     0
  9
$DIMTIH
 70
     1
  9
$DIMTOH
 70
     1
  9
$DIMSE1
 70
     0
  9
$DIMSE2
 70
     0
  9
$DIMTAD
 70
     0
  9
$DIMZIN
 70
     0
  9
$DIMBLK
  1

  9
$DIMASO
 70
     1
  9
$DIMSHO
 70
     1
  9
$DIMPOST
  1

  9
$DIMAPOST
  1

  9
$DIMALT
 70
     0
  9
$DIMALTD
 70
     2
  9
$DIMALTF
 40
25.4
  9
$DIMLFAC
 40
1.0
  9
$DIMTOFL
 70
     0
  9
$DIMTVP
 40
0.0
  9
$DIMTIX
 70
     0
  9
$DIMSOXD
 70
     0
  9
$DIMSAH
 70
     0
  9
$DIMBLK1
  1

  9
$DIMBLK2
  1

  9
$DIMSTYLE
  2
STANDARD
  9
$DIMCLRD
 70
     0
  9
$DIMCLRE
 70
     0
  9
$DIMCLRT
 70
     0
  9
$DIMTFAC
 40
1.0
  9
$DIMGAP
 40
0.09
  9
$LUNITS
 70
     2
  9
$LUPREC
 70
     3
  9
$SKETCHINC
 40
0.1
  9
$FILLETRAD
 40
0.5
  9
$AUNITS
 70
     0
  9
$AUPREC
 70
     0
  9
$MENU
  1
.
  9
$ELEVATION
 40
0.0
  9
$PELEVATION
 40
0.0
  9
$THICKNESS
 40
0.0
  9
$LIMCHECK
 70
     0
  9
$CHAMFERA
 40
0.0
  9
$CHAMFERB
 40
0.0
  9
$SKPOLY
 70
     0
  9
$TDCREATE
 40
2457965.754837963
  9
$TDUPDATE
 40
2457965.754849537
  9
$TDINDWG
 40
0.0000000116
  9
$TDUSRTIMER
 40
0.0000000116
  9
$USRTIMER
 70
     1
  9
$ANGBASE
 50
0.0
  9
$ANGDIR
 70
     0
  9
$PDMODE
 70
     0
  9
$PDSIZE
 40
0.0
  9
$PLINEWID
 40
0.0
  9
$COORDS
 70
     1
  9
$SPLFRAME
 70
     0
  9
$SPLINETYPE
 70
     6
  9
$SPLINESEGS
 70
     8
  9
$ATTDIA
 70
     0
  9
$ATTREQ
 70
     1
  9
$HANDLING
 70
     1
  9
$HANDSEED
  5
2B1
  9
$SURFTAB1
 70
     6
  9
$SURFTAB2
 70
     6
  9
$SURFTYPE
 70
     6
  9
$SURFU
 70
     6
  9
$SURFV
 70
     6
  9
$UCSNAME
  2

  9
$UCSORG
 10
0.0
 20
0.0
 30
0.0
  9
$UCSXDIR
 10
1.0
 20
0.0
 30
0.0
  9
$UCSYDIR
 10
0.0
 20
1.0
 30
0.0
  9
$PUCSNAME
  2

  9
$PUCSORG
 10
0.0
 20
0.0
 30
0.0
  9
$PUCSXDIR
 10
1.0
 20
0.0
 30
0.0
  9
$PUCSYDIR
 10
0.0
 20
1.0
 30
0.0
  9
$USERI1
 70
     0
  9
$USERI2
 70
     0
  9
$USERI3
 70
     0
  9
$USERI4
 70
     0
  9
$USERI5
 70
     0
  9
$USERR1
 40
0.0
  9
$USERR2
 40
0.0
  9
$USERR3
 40
0.0
  9
$USERR4
 40
0.0
  9
$USERR5
 40
0.0
  9
$WORLDVIEW
 70
     1
  9
$SHADEDGE
 70
     3
  9
$SHADEDIF
 70
    70
  9
$TILEMODE
 70
     1
  9
$MAXACTVP
 70
    64
  9
$PLIMCHECK
 70
     0
  9
$PEXTMIN
 10
1.000000000000000E+20
 20
1.000000000000000E+20
 30
1.000000000000000E+20
  9
$PEXTMAX
 10
-1.000000000000000E+20
 20
-1.000000000000000E+20
 30
-1.000000000000000E+20
  9
$PLIMMIN
 10
0.0
 20
0.0
  9
$PLIMMAX
 10
12.0
 20
9.0
  9
$UNITMODE
 70
     0
  9
$VISRETAIN
 70
     1
  9
$PLINEGEN
 70
     0
  9
$PSLTSCALE
 70
     1
  0
ENDSEC
  0
SECTION
  2
TABLES
  0
TABLE
  2
VPORT
 70
     1
  0
VPORT
  2
*ACTIVE
 70
     0
 10
0.0
 20
0.0
 11
1.0
 21
1.0
 12
-893.7983938355785
 22
-1490.580989858623
 13
0.0
 23
0.0
 14
0.5
 24
0.5
 15
0.5
 25
0.5
 16
0.0
 26
0.0
 36
1.0
 17
0.0
 27
0.0
 37
0.0
 40
171.2467447558996
 41
1.906020658218723
 42
50.0
 43
0.0
 44
0.0
 50
0.0
 51
0.0
 71
     0
 72
   100
 73
     1
 74
     3
 75
     0
 76
     0
 77
     0
 78
     0
  0
ENDTAB
  0
TABLE
  2
LTYPE
 70
     1
  0
LTYPE
  2
CONTINUOUS
 70
     0
  3
Solid line
 72
    65
 73
     0
 40
0.0
  0
ENDTAB
  0
TABLE
  2
LAYER
 70
     2
  0
LAYER
  2
0
 70
     0
 62
     7
  6
CONTINUOUS
  0
LAYER
  2
FAB_3$PI_PROJECTOR$PANEL-P
 70
     0
 62
   216
  6
CONTINUOUS
  0
ENDTAB
  0
TABLE
  2
STYLE
 70
     1
  0
STYLE
  2
STANDARD
 70
     0
 40
0.0
 41
1.0
 50
0.0
 71
     0
 42
0.2
  3
txt
  4

  0
ENDTAB
  0
TABLE
  2
VIEW
 70
     0
  0
ENDTAB
  0
TABLE
  2
UCS
 70
     0
  0
ENDTAB
  0
TABLE
  2
APPID
 70
     1
  0
APPID
  2
ACAD
 70
     0
  0
ENDTAB
  0
TABLE
  2
DIMSTYLE
 70
     1
  0
DIMSTYLE
  2
STANDARD
 70
     0
  3

  4

  5

  6

  7

 40
1.0
 41
0.18
 42
0.0625
 43
0.38
 44
0.18
 45
0.0
 46
0.0
 47
0.0
 48
0.0
140
0.18
141
0.09
142
0.0
143
25.4
144
1.0
145
0.0
146
1.0
147
0.09
 71
     0
 72
     0
 73
     1
 74
     1
 75
     0
 76
     0
 77
     0
 78
     0
170
     0
171
     2
172
     0
173
     0
174
     0
175
     0
176
     0
177
     0
178
     0
  0
ENDTAB
  0
ENDSEC
  0
SECTION
  2
BLOCKS
  0
BLOCK
  8
0
  2
$MODEL_SPACE
 70
     0
 10
0.0
 20
0.0
 30
0.0
  3
$MODEL_SPACE
  1

  0
ENDBLK
  5
21
  8
0
  0
BLOCK
 67
     1
  8
0
  2
$PAPER_SPACE
 70
     0
 10
0.0
 20
0.0
 30
0.0
  3
$PAPER_SPACE
  1

  0
ENDBLK
  5
1D
 67
     1
  8
0
  0
ENDSEC
  0
SECTION
  2
ENTITIES
  0
LINE
  5
6F
  8
FAB_3$PI_PROJECTOR$PANEL-P
 10
-1039.242942217334
 20
-1546.165380799895
 30
0.0000000000000235
 11
-1039.236977057575
 21
-1545.627304575294
 31
0.0000000000000237
  0
LINE
  5
70
  8
FAB_3$PI_PROJECTOR$PANEL-P
 10
-1039.236977057575
 20
-1545.627304575294
 30
0.0000000000000237
 11
-1039.218671669025
 21
-1545.080852492998
 31
0.0000000000000238
  0
LINE
  5
71
  8
FAB_3$PI_PROJECTOR$PANEL-P
 10
-1039.218671669025
 20
-1545.080852492998
 30
0.0000000000000238
 11
-1039.187445845364
 21
-1544.52755970902
 31
0.0000000000000239
  0
LINE
  5
72
  8
FAB_3$PI_PROJECTOR$PANEL-P
 10
-1039.187445845364
 20
-1544.52755970902
 30
0.0000000000000239
 11
-1039.142774427861
 21
-1543.969116644586
 31
0.0000000000000241
  0
LINE
  5
73
  8
FAB_3$PI_PROJECTOR$PANEL-P
 10
-1039.142774427861
 20
-1543.969116644586
 30
0.0000000000000241
 11
-1039.084198423624
 21
-1543.407361021465
 31
0.0000000000000242
  0
LINE
  5
74
  8
FAB_3$PI_PROJECTOR$PANEL-P
 10
-1039.084198423624
 20
-1543.407361021465
 30
0.0000000000000242
 11
-1039.011335966497
 21
-1542.84426634126
 31
0.0000000000000243
  0
LINE
  5
75
  8
FAB_3$PI_PROJECTOR$PANEL-P
 10
-1039.011335966497
 20
-1542.84426634126
 30
0.0000000000000243
 11
-1038.923892810432
 21
-1542.281926720638
 31
0.0000000000000244
  0
LINE
  5
76
  8
FAB_3$PI_PROJECTOR$PANEL-P
 10
-1038.923892810432
 20
-1542.281926720638
 30
0.0000000000000244
 11
-1038.821672023763
 21
-1541.722538114791
 31
0.0000000000000246
  0
LINE
  5
77
  8
FAB_3$PI_PROJECTOR$PANEL-P
 10
-1038.821672023763
 20
-1541.722538114791
 30
0.0000000000000246
 11
-1038.704582543936
 21
-1541.168376096323
 31
0.0000000000000247
  0
LINE
  5
78
  8
FAB_3$PI_PROJECTOR$PANEL-P
 10
-1038.704582543936
 20
-1541.168376096323
 30
0.0000000000000247
 11
-1038.572646258381
 21
-1540.621770500539
 31
0.0000000000000248
  0
LINE
  5
79
  8
FAB_3$PI_PROJECTOR$PANEL-P
 10
-1038.572646258381
 20
-1540.621770500539
 30
0.0000000000000248
 11
-1038.426003299893
 21
-1540.085077393249
 31
0.0000000000000249
  0
LINE
  5
7A
  8
FAB_3$PI_PROJECTOR$PANEL-P
 10
-1038.426003299893
 20
-1540.085077393249
 30
0.0000000000000249
 11
-1038.264915284727
 21
-1539.560648955377
 31
0.0000000000000251
  0
LINE
  5
7B
  8
FAB_3$PI_PROJECTOR$PANEL-P
 10
-1038.264915284727
 20
-1539.560648955377
 30
0.0000000000000251
 11
-1038.089766278075
 21
-1539.050802000723
 31
0.0000000000000252
  0
LINE
  5
7C
  8
FAB_3$PI_PROJECTOR$PANEL-P
 10
-1038.089766278075
 20
-1539.050802000723
 30
0.0000000000000252
 11
-1037.997072099133
 21
-1538.802053026761
 31
0.0000000000000252
  0
LINE
  5
7D
  8
FAB_3$PI_PROJECTOR$PANEL-P
 10
-1037.997072099133
 20
-1538.802053026761
 30
0.0000000000000252
 11
-1037.901061342876
 21
-1538.557785940314
 31
0.0000000000000253
  0
LINE
  5
7E
  8
FAB_3$PI_PROJECTOR$PANEL-P
 10
-1037.901061342876
 20
-1538.557785940314
 30
0.0000000000000253
 11
-1037.801815403277
 21
-1538.318266180794
 31
0.0000000000000254
  0
LINE
  5
7F
  8
FAB_3$PI_PROJECTOR$PANEL-P
 10
-1037.801815403277
 20
-1538.318266180794
 30
0.0000000000000254
 11
-1037.699422610787
 21
-1538.083751071177
 31
0.0000000000000254
  0
LINE
  5
80
  8
FAB_3$PI_PROJECTOR$PANEL-P
 10
-1037.699422610787
 20
-1538.083751071177
 30
0.0000000000000254
 11
-1037.593977977062
 21
-1537.854488908262
 31
0.0000000000000255
  0
LINE
  5
81
  8
FAB_3$PI_PROJECTOR$PANEL-P
 10
-1037.593977977062
 20
-1537.854488908262
 30
0.0000000000000255
 11
-1037.485582904558
 21
-1537.630718092809
 31
0.0000000000000255
  0
LINE
  5
82
  8
FAB_3$PI_PROJECTOR$PANEL-P
 10
-1037.485582904558
 20
-1537.630718092809
 30
0.0000000000000255
 11
-1037.374344862845
 21
-1537.412666305921
 31
0.0000000000000256
  0
LINE
  5
83
  8
FAB_3$PI_PROJECTOR$PANEL-P
 10
-1037.374344862845
 20
-1537.412666305921
 30
0.0000000000000256
 11
-1037.260377033797
 21
-1537.200549737609
 31
0.0000000000000256
  0
LINE
  5
84
  8
FAB_3$PI_PROJECTOR$PANEL-P
 10
-1037.260377033797
 20
-1537.200549737609
 30
0.0000000000000256
 11
-1037.143797928103
 21
-1536.994572373039
 31
0.0000000000000257
  0
LINE
  5
85
  8
FAB_3$PI_PROJECTOR$PANEL-P
 10
-1037.143797928103
 20
-1536.994572373039
 30
0.0000000000000257
 11
-1037.024730975844
 21
-1536.794925341388
 31
0.0000000000000257
  0
LINE
  5
86
  8
FAB_3$PI_PROJECTOR$PANEL-P
 10
-1037.024730975844
 20
-1536.794925341388
 30
0.0000000000000257
 11
-1036.903304094075
 21
-1536.601786331665
 31
0.0000000000000257
  0
LINE
  5
87
  8
FAB_3$PI_PROJECTOR$PANEL-P
 10
-1036.903304094075
 20
-1536.601786331665
 30
0.0000000000000257
 11
-1036.77964923459
 21
-1536.415319079182
 31
0.0000000000000258
  0
LINE
  5
88
  8
FAB_3$PI_PROJECTOR$PANEL-P
 10
-1036.77964923459
 20
-1536.415319079182
 30
0.0000000000000258
 11
-1036.65390191517
 21
-1536.235672925691
 31
0.0000000000000258
  0
LINE
  5
89
  8
FAB_3$PI_PROJECTOR$PANEL-P
 10
-1036.65390191517
 20
-1536.235672925691
 30
0.0000000000000258
 11
-1036.526200737768
 21
-1536.062982455479
 31
0.0000000000000259
  0
LINE
  5
8A
  8
FAB_3$PI_PROJECTOR$PANEL-P
 10
-1036.526200737768
 20
-1536.062982455479
 30
0.0000000000000259
 11
-1036.396686897125
 21
-1535.897367208981
 31
0.0000000000000259
  0
LINE
  5
8B
  8
FAB_3$PI_PROJECTOR$PANEL-P
 10
-1036.396686897125
 20
-1535.897367208981
 30
0.0000000000000259
 11
-1036.265503683376
 21
-1535.738931474729
 31
0.0000000000000259
  0
LINE
  5
8C
  8
FAB_3$PI_PROJECTOR$PANEL-P
 10
-1036.265503683376
 20
-1535.738931474729
 30
0.0000000000000259
 11
-1036.132795982172
 21
-1535.587764159718
 31
0.000000000000026
  0
LINE
  5
8D
  8
FAB_3$PI_PROJECTOR$PANEL-P
 10
-1036.132795982172
 20
-1535.587764159718
 30
0.000000000000026
 11
-1035.998709775801
 21
-1535.443938737566
 31
0.000000000000026
  0
LINE
  5
8E
  8
FAB_3$PI_PROJECTOR$PANEL-P
 10
-1035.998709775801
 20
-1535.443938737566
 30
0.000000000000026
 11
-1035.86339164871
 21
-1535.307513273119
 31
0.000000000000026
  0
LINE
  5
8F
  8
FAB_3$PI_PROJECTOR$PANEL-P
 10
-1035.86339164871
 20
-1535.307513273119
 30
0.000000000000026
 11
-1035.726988300677
 21
-1535.178530521524
 31
0.0000000000000261
  0
LINE
  5
90
  8
FAB_3$PI_PROJECTOR$PANEL-P
 10
-1035.726988300677
 20
-1535.178530521524
 30
0.0000000000000261
 11
-1035.589646070748
 21
-1535.05701809916
 31
0.0000000000000261
  0
LINE
  5
91
  8
FAB_3$PI_PROJECTOR$PANEL-P
 10
-1035.589646070748
 20
-1535.05701809916
 30
0.0000000000000261
 11
-1035.451510474843
 21
-1534.942988723243
 31
0.0000000000000261
  0
LINE
  5
92
  8
FAB_3$PI_PROJECTOR$PANEL-P
 10
-1035.451510474843
 20
-1534.942988723243
 30
0.0000000000000261
 11
-1035.382190303158
 21
-1534.888780151537
 31
0.0000000000000261
  0
LINE
  5
93
  8
FAB_3$PI_PROJECTOR$PANEL-P
 10
-1035.382190303158
 20
-1534.888780151537
 30
0.0000000000000261
 11
-1035.312725759722
 21
-1534.836440516437
 31
0.0000000000000262
  0
LINE
  5
94
  8
FAB_3$PI_PROJECTOR$PANEL-P
 10
-1035.312725759722
 20
-1534.836440516437
 30
0.0000000000000262
 11
-1035.243134606974
 21
-1534.785967362852
 31
0.0000000000000262
  0
LINE
  5
95
  8
FAB_3$PI_PROJECTOR$PANEL-P
 10
-1035.243134606974
 20
-1534.785967362852
 30
0.0000000000000262
 11
-1035.173434475765
 21
-1534.737357372336
 31
0.0000000000000262
  0
LINE
  5
96
  8
FAB_3$PI_PROJECTOR$PANEL-P
 10
-1035.173434475765
 20
-1534.737357372336
 30
0.0000000000000262
 11
-1035.103642853182
 21
-1534.690606377517
 31
0.0000000000000262
  0
LINE
  5
97
  8
FAB_3$PI_PROJECTOR$PANEL-P
 10
-1035.103642853182
 20
-1534.690606377517
 30
0.0000000000000262
 11
-1035.033777070751
 21
-1534.645709377293
 31
0.0000000000000262
  0
LINE
  5
98
  8
FAB_3$PI_PROJECTOR$PANEL-P
 10
-1035.033777070751
 20
-1534.645709377293
 30
0.0000000000000262
 11
-1034.963854293021
 21
-1534.602660552755
 31
0.0000000000000262
  0
LINE
  5
99
  8
FAB_3$PI_PROJECTOR$PANEL-P
 10
-1034.963854293021
 20
-1534.602660552755
 30
0.0000000000000262
 11
-1034.893891506548
 21
-1534.561453283791
 31
0.0000000000000262
  0
LINE
  5
9A
  8
FAB_3$PI_PROJECTOR$PANEL-P
 10
-1034.893891506548
 20
-1534.561453283791
 30
0.0000000000000262
 11
-1034.823905509282
 21
-1534.522080166345
 31
0.0000000000000262
  0
LINE
  5
9B
  8
FAB_3$PI_PROJECTOR$PANEL-P
 10
-1034.823905509282
 20
-1534.522080166345
 30
0.0000000000000262
 11
-1034.753912900368
 21
-1534.484533030263
 31
0.0000000000000262
  0
LINE
  5
9C
  8
FAB_3$PI_PROJECTOR$PANEL-P
 10
-1034.753912900368
 20
-1534.484533030263
 30
0.0000000000000262
 11
-1034.683930070368
 21
-1534.448802957717
 31
0.0000000000000262
  0
LINE
  5
9D
  8
FAB_3$PI_PROJECTOR$PANEL-P
 10
-1034.683930070368
 20
-1534.448802957717
 30
0.0000000000000262
 11
-1034.613973191916
 21
-1534.414880302131
 31
0.0000000000000263
  0
LINE
  5
9E
  8
FAB_3$PI_PROJECTOR$PANEL-P
 10
-1034.613973191916
 20
-1534.414880302131
 30
0.0000000000000263
 11
-1034.544058210806
 21
-1534.382754707592
 31
0.0000000000000263
  0
LINE
  5
9F
  8
FAB_3$PI_PROJECTOR$PANEL-P
 10
-1034.544058210806
 20
-1534.382754707592
 30
0.0000000000000263
 11
-1034.474200837512
 21
-1534.35241512869
 31
0.0000000000000263
  0
LINE
  5
A0
  8
FAB_3$PI_PROJECTOR$PANEL-P
 10
-1034.474200837512
 20
-1534.35241512869
 30
0.0000000000000263
 11
-1034.404416539163
 21
-1534.323849850759
 31
0.0000000000000263
  0
LINE
  5
A1
  8
FAB_3$PI_PROJECTOR$PANEL-P
 10
-1034.404416539163
 20
-1534.323849850759
 30
0.0000000000000263
 11
-1034.334720531952
 21
-1534.297046510447
 31
0.0000000000000263
  0
LINE
  5
A2
  8
FAB_3$PI_PROJECTOR$PANEL-P
 10
-1034.334720531952
 20
-1534.297046510447
 30
0.0000000000000263
 11
-1034.265127773993
 21
-1534.271992116622
 31
0.0000000000000263
  0
LINE
  5
A3
  8
FAB_3$PI_PROJECTOR$PANEL-P
 10
-1034.265127773993
 20
-1534.271992116622
 30
0.0000000000000263
 11
-1034.195652958629
 21
-1534.248673071517
 31
0.0000000000000263
  0
LINE
  5
A4
  8
FAB_3$PI_PROJECTOR$PANEL-P
 10
-1034.195652958629
 20
-1534.248673071517
 30
0.0000000000000263
 11
-1034.126310508181
 21
-1534.227075192126
 31
0.0000000000000263
  0
LINE
  5
A5
  8
FAB_3$PI_PROJECTOR$PANEL-P
 10
-1034.126310508181
 20
-1534.227075192126
 30
0.0000000000000263
 11
-1034.057114568142
 21
-1534.207183731772
 31
0.0000000000000263
  0
LINE
  5
A6
  8
FAB_3$PI_PROJECTOR$PANEL-P
 10
-1034.057114568142
 20
-1534.207183731772
 30
0.0000000000000263
 11
-1033.988079001814
 21
-1534.18898340183
 31
0.0000000000000263
  0
LINE
  5
A7
  8
FAB_3$PI_PROJECTOR$PANEL-P
 10
-1033.988079001814
 20
-1534.18898340183
 30
0.0000000000000263
 11
-1033.919217385384
 21
-1534.17245839356
 31
0.0000000000000263
  0
LINE
  5
A8
  8
FAB_3$PI_PROJECTOR$PANEL-P
 10
-1033.919217385384
 20
-1534.17245839356
 30
0.0000000000000263
 11
-1033.850543003431
 21
-1534.157592400012
 31
0.0000000000000263
  0
LINE
  5
A9
  8
FAB_3$PI_PROJECTOR$PANEL-P
 10
-1033.850543003431
 20
-1534.157592400012
 30
0.0000000000000263
 11
-1033.782068844867
 21
-1534.14436863797
 31
0.0000000000000263
  0
LINE
  5
AA
  8
FAB_3$PI_PROJECTOR$PANEL-P
 10
-1033.782068844867
 20
-1534.14436863797
 30
0.0000000000000263
 11
-1033.713807599301
 21
-1534.1327698699
 31
0.0000000000000263
  0
LINE
  5
AB
  8
FAB_3$PI_PROJECTOR$PANEL-P
 10
-1033.713807599301
 20
-1534.1327698699
 30
0.0000000000000263
 11
-1033.645771653818
 21
-1534.122778425862
 31
0.0000000000000263
  0
LINE
  5
AC
  8
FAB_3$PI_PROJECTOR$PANEL-P
 10
-1033.645771653818
 20
-1534.122778425862
 30
0.0000000000000263
 11
-1033.577973090169
 21
-1534.114376225361
 31
0.0000000000000263
  0
LINE
  5
AD
  8
FAB_3$PI_PROJECTOR$PANEL-P
 10
-1033.577973090169
 20
-1534.114376225361
 30
0.0000000000000263
 11
-1033.510423682373
 21
-1534.107544799105
 31
0.0000000000000263
  0
LINE
  5
AE
  8
FAB_3$PI_PROJECTOR$PANEL-P
 10
-1033.510423682373
 20
-1534.107544799105
 30
0.0000000000000263
 11
-1033.4431348947
 21
-1534.10226531063
 31
0.0000000000000263
  0
LINE
  5
AF
  8
FAB_3$PI_PROJECTOR$PANEL-P
 10
-1033.4431348947
 20
-1534.10226531063
 30
0.0000000000000263
 11
-1033.376117880051
 21
-1534.098518577776
 31
0.0000000000000263
  0
LINE
  5
B0
  8
FAB_3$PI_PROJECTOR$PANEL-P
 10
-1033.376117880051
 20
-1534.098518577776
 30
0.0000000000000263
 11
-1033.309383478713
 21
-1534.096285093977
 31
0.0000000000000263
  0
LINE
  5
B1
  8
FAB_3$PI_PROJECTOR$PANEL-P
 10
-1033.309383478713
 20
-1534.096285093977
 30
0.0000000000000263
 11
-1033.242942217481
 21
-1534.095545049345
 31
0.0000000000000263
  0
LINE
  5
B2
  8
FAB_3$PI_PROJECTOR$PANEL-P
 10
-1033.242942217481
 20
-1534.095545049345
 30
0.0000000000000263
 11
-1033.17650095625
 21
-1534.096285093981
 31
0.0000000000000263
  0
LINE
  5
B3
  8
FAB_3$PI_PROJECTOR$PANEL-P
 10
-1033.17650095625
 20
-1534.096285093981
 30
0.0000000000000263
 11
-1033.109766554912
 21
-1534.098518577783
 31
0.0000000000000263
  0
LINE
  5
B4
  8
FAB_3$PI_PROJECTOR$PANEL-P
 10
-1033.109766554912
 20
-1534.098518577783
 30
0.0000000000000263
 11
-1033.042749540263
 21
-1534.102265310641
 31
0.0000000000000263
  0
LINE
  5
B5
  8
FAB_3$PI_PROJECTOR$PANEL-P
 10
-1033.042749540263
 20
-1534.102265310641
 30
0.0000000000000263
 11
-1032.975460752589
 21
-1534.107544799119
 31
0.0000000000000263
  0
LINE
  5
B6
  8
FAB_3$PI_PROJECTOR$PANEL-P
 10
-1032.975460752589
 20
-1534.107544799119
 30
0.0000000000000263
 11
-1032.907911344793
 21
-1534.114376225379
 31
0.0000000000000263
  0
LINE
  5
B7
  8
FAB_3$PI_PROJECTOR$PANEL-P
 10
-1032.907911344793
 20
-1534.114376225379
 30
0.0000000000000263
 11
-1032.840112781145
 21
-1534.122778425883
 31
0.0000000000000263
  0
LINE
  5
B8
  8
FAB_3$PI_PROJECTOR$PANEL-P
 10
-1032.840112781145
 20
-1534.122778425883
 30
0.0000000000000263
 11
-1032.772076835661
 21
-1534.132769869925
 31
0.0000000000000263
  0
LINE
  5
B9
  8
FAB_3$PI_PROJECTOR$PANEL-P
 10
-1032.772076835661
 20
-1534.132769869925
 30
0.0000000000000263
 11
-1032.703815590095
 21
-1534.144368637998
 31
0.0000000000000263
  0
LINE
  5
BA
  8
FAB_3$PI_PROJECTOR$PANEL-P
 10
-1032.703815590095
 20
-1534.144368637998
 30
0.0000000000000263
 11
-1032.635341431531
 21
-1534.157592400044
 31
0.0000000000000263
  0
LINE
  5
BB
  8
FAB_3$PI_PROJECTOR$PANEL-P
 10
-1032.635341431531
 20
-1534.157592400044
 30
0.0000000000000263
 11
-1032.566667049577
 21
-1534.172458393595
 31
0.0000000000000263
  0
LINE
  5
BC
  8
FAB_3$PI_PROJECTOR$PANEL-P
 10
-1032.566667049577
 20
-1534.172458393595
 30
0.0000000000000263
 11
-1032.497805433146
 21
-1534.188983401869
 31
0.0000000000000263
  0
LINE
  5
BD
  8
FAB_3$PI_PROJECTOR$PANEL-P
 10
-1032.497805433146
 20
-1534.188983401869
 30
0.0000000000000263
 11
-1032.428769866818
 21
-1534.207183731814
 31
0.0000000000000263
  0
LINE
  5
BE
  8
FAB_3$PI_PROJECTOR$PANEL-P
 10
-1032.428769866818
 20
-1534.207183731814
 30
0.0000000000000263
 11
-1032.359573926778
 21
-1534.227075192171
 31
0.0000000000000263
  0
LINE
  5
BF
  8
FAB_3$PI_PROJECTOR$PANEL-P
 10
-1032.359573926778
 20
-1534.227075192171
 30
0.0000000000000263
 11
-1032.29023147633
 21
-1534.248673071566
 31
0.0000000000000263
  0
LINE
  5
C0
  8
FAB_3$PI_PROJECTOR$PANEL-P
 10
-1032.29023147633
 20
-1534.248673071566
 30
0.0000000000000263
 11
-1032.220756660966
 21
-1534.271992116674
 31
0.0000000000000263
  0
LINE
  5
C1
  8
FAB_3$PI_PROJECTOR$PANEL-P
 10
-1032.220756660966
 20
-1534.271992116674
 30
0.0000000000000263
 11
-1032.151163903006
 21
-1534.297046510504
 31
0.0000000000000263
  0
LINE
  5
C2
  8
FAB_3$PI_PROJECTOR$PANEL-P
 10
-1032.151163903006
 20
-1534.297046510504
 30
0.0000000000000263
 11
-1032.081467895794
 21
-1534.323849850819
 31
0.0000000000000263
  0
LINE
  5
C3
  8
FAB_3$PI_PROJECTOR$PANEL-P
 10
-1032.081467895794
 20
-1534.323849850819
 30
0.0000000000000263
 11
-1032.011683597445
 21
-1534.352415128754
 31
0.0000000000000263
  0
LINE
  5
C4
  8
FAB_3$PI_PROJECTOR$PANEL-P
 10
-1032.011683597445
 20
-1534.352415128754
 30
0.0000000000000263
 11
-1031.94182622415
 21
-1534.382754707659
 31
0.0000000000000263
  0
LINE
  5
C5
  8
FAB_3$PI_PROJECTOR$PANEL-P
 10
-1031.94182622415
 20
-1534.382754707659
 30
0.0000000000000263
 11
-1031.871911243039
 21
-1534.414880302203
 31
0.0000000000000263
  0
LINE
  5
C6
  8
FAB_3$PI_PROJECTOR$PANEL-P
 10
-1031.871911243039
 20
-1534.414880302203
 30
0.0000000000000263
 11
-1031.801954364587
 21
-1534.448802957793
 31
0.0000000000000262
  0
LINE
  5
C7
  8
FAB_3$PI_PROJECTOR$PANEL-P
 10
-1031.801954364587
 20
-1534.448802957793
 30
0.0000000000000262
 11
-1031.731971534586
 21
-1534.484533030342
 31
0.0000000000000262
  0
LINE
  5
C8
  8
FAB_3$PI_PROJECTOR$PANEL-P
 10
-1031.731971534586
 20
-1534.484533030342
 30
0.0000000000000262
 11
-1031.66197892567
 21
-1534.522080166427
 31
0.0000000000000262
  0
LINE
  5
C9
  8
FAB_3$PI_PROJECTOR$PANEL-P
 10
-1031.66197892567
 20
-1534.522080166427
 30
0.0000000000000262
 11
-1031.591992928404
 21
-1534.561453283877
 31
0.0000000000000262
  0
LINE
  5
CA
  8
FAB_3$PI_PROJECTOR$PANEL-P
 10
-1031.591992928404
 20
-1534.561453283877
 30
0.0000000000000262
 11
-1031.52203014193
 21
-1534.602660552845
 31
0.0000000000000262
  0
LINE
  5
CB
  8
FAB_3$PI_PROJECTOR$PANEL-P
 10
-1031.52203014193
 20
-1534.602660552845
 30
0.0000000000000262
 11
-1031.452107364199
 21
-1534.645709377386
 31
0.0000000000000262
  0
LINE
  5
CC
  8
FAB_3$PI_PROJECTOR$PANEL-P
 10
-1031.452107364199
 20
-1534.645709377386
 30
0.0000000000000262
 11
-1031.382241581766
 21
-1534.690606377614
 31
0.0000000000000262
  0
LINE
  5
CD
  8
FAB_3$PI_PROJECTOR$PANEL-P
 10
-1031.382241581766
 20
-1534.690606377614
 30
0.0000000000000262
 11
-1031.312449959182
 21
-1534.737357372436
 31
0.0000000000000262
  0
LINE
  5
CE
  8
FAB_3$PI_PROJECTOR$PANEL-P
 10
-1031.312449959182
 20
-1534.737357372436
 30
0.0000000000000262
 11
-1031.242749827972
 21
-1534.785967362957
 31
0.0000000000000262
  0
LINE
  5
CF
  8
FAB_3$PI_PROJECTOR$PANEL-P
 10
-1031.242749827972
 20
-1534.785967362957
 30
0.0000000000000262
 11
-1031.173158675223
 21
-1534.836440516545
 31
0.0000000000000262
  0
LINE
  5
D0
  8
FAB_3$PI_PROJECTOR$PANEL-P
 10
-1031.173158675223
 20
-1534.836440516545
 30
0.0000000000000262
 11
-1031.103694131785
 21
-1534.888780151648
 31
0.0000000000000261
  0
LINE
  5
D1
  8
FAB_3$PI_PROJECTOR$PANEL-P
 10
-1031.103694131785
 20
-1534.888780151648
 30
0.0000000000000261
 11
-1031.0343739601
 21
-1534.942988723357
 31
0.0000000000000261
  0
LINE
  5
D2
  8
FAB_3$PI_PROJECTOR$PANEL-P
 10
-1031.0343739601
 20
-1534.942988723357
 30
0.0000000000000261
 11
-1030.896238364192
 21
-1535.057018099282
 31
0.0000000000000261
  0
LINE
  5
D3
  8
FAB_3$PI_PROJECTOR$PANEL-P
 10
-1030.896238364192
 20
-1535.057018099282
 30
0.0000000000000261
 11
-1030.758896134259
 21
-1535.178530521653
 31
0.0000000000000261
  0
LINE
  5
D4
  8
FAB_3$PI_PROJECTOR$PANEL-P
 10
-1030.758896134259
 20
-1535.178530521653
 30
0.0000000000000261
 11
-1030.622492786223
 21
-1535.307513273255
 31
0.000000000000026
  0
LINE
  5
D5
  8
FAB_3$PI_PROJECTOR$PANEL-P
 10
-1030.622492786223
 20
-1535.307513273255
 30
0.000000000000026
 11
-1030.487174659129
 21
-1535.443938737709
 31
0.000000000000026
  0
LINE
  5
D6
  8
FAB_3$PI_PROJECTOR$PANEL-P
 10
-1030.487174659129
 20
-1535.443938737709
 30
0.000000000000026
 11
-1030.353088452755
 21
-1535.587764159868
 31
0.000000000000026
  0
LINE
  5
D7
  8
FAB_3$PI_PROJECTOR$PANEL-P
 10
-1030.353088452755
 20
-1535.587764159868
 30
0.000000000000026
 11
-1030.220380751547
 21
-1535.738931474885
 31
0.0000000000000259
  0
LINE
  5
D8
  8
FAB_3$PI_PROJECTOR$PANEL-P
 10
-1030.220380751547
 20
-1535.738931474885
 30
0.0000000000000259
 11
-1030.089197537794
 21
-1535.897367209145
 31
0.0000000000000259
  0
LINE
  5
D9
  8
FAB_3$PI_PROJECTOR$PANEL-P
 10
-1030.089197537794
 20
-1535.897367209145
 30
0.0000000000000259
 11
-1029.959683697146
 21
-1536.062982455649
 31
0.0000000000000259
  0
LINE
  5
DA
  8
FAB_3$PI_PROJECTOR$PANEL-P
 10
-1029.959683697146
 20
-1536.062982455649
 30
0.0000000000000259
 11
-1029.83198251974
 21
-1536.235672925868
 31
0.0000000000000258
  0
LINE
  5
DB
  8
FAB_3$PI_PROJECTOR$PANEL-P
 10
-1029.83198251974
 20
-1536.235672925868
 30
0.0000000000000258
 11
-1029.706235200316
 21
-1536.415319079366
 31
0.0000000000000258
  0
LINE
  5
DC
  8
FAB_3$PI_PROJECTOR$PANEL-P
 10
-1029.706235200316
 20
-1536.415319079366
 30
0.0000000000000258
 11
-1029.582580340827
 21
-1536.601786331855
 31
0.0000000000000257
  0
LINE
  5
DD
  8
FAB_3$PI_PROJECTOR$PANEL-P
 10
-1029.582580340827
 20
-1536.601786331855
 30
0.0000000000000257
 11
-1029.461153459053
 21
-1536.794925341584
 31
0.0000000000000257
  0
LINE
  5
DE
  8
FAB_3$PI_PROJECTOR$PANEL-P
 10
-1029.461153459053
 20
-1536.794925341584
 30
0.0000000000000257
 11
-1029.342086506789
 21
-1536.994572373241
 31
0.0000000000000257
  0
LINE
  5
DF
  8
FAB_3$PI_PROJECTOR$PANEL-P
 10
-1029.342086506789
 20
-1536.994572373241
 30
0.0000000000000257
 11
-1029.22550740109
 21
-1537.200549737817
 31
0.0000000000000256
  0
LINE
  5
E0
  8
FAB_3$PI_PROJECTOR$PANEL-P
 10
-1029.22550740109
 20
-1537.200549737817
 30
0.0000000000000256
 11
-1029.111539572037
 21
-1537.412666306135
 31
0.0000000000000256
  0
LINE
  5
E1
  8
FAB_3$PI_PROJECTOR$PANEL-P
 10
-1029.111539572037
 20
-1537.412666306135
 30
0.0000000000000256
 11
-1029.000301530319
 21
-1537.630718093029
 31
0.0000000000000255
  0
LINE
  5
E2
  8
FAB_3$PI_PROJECTOR$PANEL-P
 10
-1029.000301530319
 20
-1537.630718093029
 30
0.0000000000000255
 11
-1028.891906457809
 21
-1537.854488908488
 31
0.0000000000000255
  0
LINE
  5
E3
  8
FAB_3$PI_PROJECTOR$PANEL-P
 10
-1028.891906457809
 20
-1537.854488908488
 30
0.0000000000000255
 11
-1028.786461824079
 21
-1538.083751071409
 31
0.0000000000000254
  0
LINE
  5
E4
  8
FAB_3$PI_PROJECTOR$PANEL-P
 10
-1028.786461824079
 20
-1538.083751071409
 30
0.0000000000000254
 11
-1028.684069031583
 21
-1538.318266181031
 31
0.0000000000000254
  0
LINE
  5
E5
  8
FAB_3$PI_PROJECTOR$PANEL-P
 10
-1028.684069031583
 20
-1538.318266181031
 30
0.0000000000000254
 11
-1028.584823091978
 21
-1538.557785940556
 31
0.0000000000000253
  0
LINE
  5
E6
  8
FAB_3$PI_PROJECTOR$PANEL-P
 10
-1028.584823091978
 20
-1538.557785940556
 30
0.0000000000000253
 11
-1028.488812335715
 21
-1538.802053027007
 31
0.0000000000000252
  0
LINE
  5
E7
  8
FAB_3$PI_PROJECTOR$PANEL-P
 10
-1028.488812335715
 20
-1538.802053027007
 30
0.0000000000000252
 11
-1028.396118156767
 21
-1539.050802000975
 31
0.0000000000000252
  0
LINE
  5
E8
  8
FAB_3$PI_PROJECTOR$PANEL-P
 10
-1028.396118156767
 20
-1539.050802000975
 30
0.0000000000000252
 11
-1028.220969150103
 21
-1539.560648955638
 31
0.0000000000000251
  0
LINE
  5
E9
  8
FAB_3$PI_PROJECTOR$PANEL-P
 10
-1028.220969150103
 20
-1539.560648955638
 30
0.0000000000000251
 11
-1028.059881134924
 21
-1540.085077393518
 31
0.0000000000000249
  0
LINE
  5
EA
  8
FAB_3$PI_PROJECTOR$PANEL-P
 10
-1028.059881134924
 20
-1540.085077393518
 30
0.0000000000000249
 11
-1027.913238176423
 21
-1540.621770500816
 31
0.0000000000000248
  0
LINE
  5
EB
  8
FAB_3$PI_PROJECTOR$PANEL-P
 10
-1027.913238176423
 20
-1540.621770500816
 30
0.0000000000000248
 11
-1027.781301890855
 21
-1541.168376096607
 31
0.0000000000000247
  0
LINE
  5
EC
  8
FAB_3$PI_PROJECTOR$PANEL-P
 10
-1027.781301890855
 20
-1541.168376096607
 30
0.0000000000000247
 11
-1027.664212411014
 21
-1541.722538115081
 31
0.0000000000000246
  0
LINE
  5
ED
  8
FAB_3$PI_PROJECTOR$PANEL-P
 10
-1027.664212411014
 20
-1541.722538115081
 30
0.0000000000000246
 11
-1027.561991624332
 21
-1542.281926720933
 31
0.0000000000000244
  0
LINE
  5
EE
  8
FAB_3$PI_PROJECTOR$PANEL-P
 10
-1027.561991624332
 20
-1542.281926720933
 30
0.0000000000000244
 11
-1027.474548468253
 21
-1542.84426634156
 31
0.0000000000000243
  0
LINE
  5
EF
  8
FAB_3$PI_PROJECTOR$PANEL-P
 10
-1027.474548468253
 20
-1542.84426634156
 30
0.0000000000000243
 11
-1027.401686011111
 21
-1543.407361021769
 31
0.0000000000000242
  0
LINE
  5
F0
  8
FAB_3$PI_PROJECTOR$PANEL-P
 10
-1027.401686011111
 20
-1543.407361021769
 30
0.0000000000000242
 11
-1027.343110006861
 21
-1543.969116644892
 31
0.0000000000000241
  0
LINE
  5
F1
  8
FAB_3$PI_PROJECTOR$PANEL-P
 10
-1027.343110006861
 20
-1543.969116644892
 30
0.0000000000000241
 11
-1027.298438589345
 21
-1544.527559709329
 31
0.0000000000000239
  0
LINE
  5
F2
  8
FAB_3$PI_PROJECTOR$PANEL-P
 10
-1027.298438589345
 20
-1544.527559709329
 30
0.0000000000000239
 11
-1027.26721276567
 21
-1545.080852493309
 31
0.0000000000000238
  0
LINE
  5
F3
  8
FAB_3$PI_PROJECTOR$PANEL-P
 10
-1027.26721276567
 20
-1545.080852493309
 30
0.0000000000000238
 11
-1027.248907377107
 21
-1545.627304575606
 31
0.0000000000000237
  0
LINE
  5
F4
  8
FAB_3$PI_PROJECTOR$PANEL-P
 10
-1027.248907377107
 20
-1545.627304575606
 30
0.0000000000000237
 11
-1027.242942217334
 21
-1546.165380800207
 31
0.0000000000000235
  0
LINE
  5
F5
  8
FAB_3$PI_PROJECTOR$PANEL-P
 10
-1027.242942217334
 20
-1546.165380800207
 30
0.0000000000000235
 11
-1027.248907377093
 21
-1546.703457024807
 31
0.0000000000000234
  0
LINE
  5
F6
  8
FAB_3$PI_PROJECTOR$PANEL-P
 10
-1027.248907377093
 20
-1546.703457024807
 30
0.0000000000000234
 11
-1027.267212765644
 21
-1547.249909107103
 31
0.0000000000000233
  0
LINE
  5
F7
  8
FAB_3$PI_PROJECTOR$PANEL-P
 10
-1027.267212765644
 20
-1547.249909107103
 30
0.0000000000000233
 11
-1027.298438589305
 21
-1547.803201891081
 31
0.0000000000000232
  0
LINE
  5
F8
  8
FAB_3$PI_PROJECTOR$PANEL-P
 10
-1027.298438589305
 20
-1547.803201891081
 30
0.0000000000000232
 11
-1027.343110006808
 21
-1548.361644955515
 31
0.000000000000023
  0
LINE
  5
F9
  8
FAB_3$PI_PROJECTOR$PANEL-P
 10
-1027.343110006808
 20
-1548.361644955515
 30
0.000000000000023
 11
-1027.401686011044
 21
-1548.923400578637
 31
0.0000000000000229
  0
LINE
  5
FA
  8
FAB_3$PI_PROJECTOR$PANEL-P
 10
-1027.401686011044
 20
-1548.923400578637
 30
0.0000000000000229
 11
-1027.474548468172
 21
-1549.486495258841
 31
0.0000000000000228
  0
LINE
  5
FB
  8
FAB_3$PI_PROJECTOR$PANEL-P
 10
-1027.474548468172
 20
-1549.486495258841
 30
0.0000000000000228
 11
-1027.561991624237
 21
-1550.048834879463
 31
0.0000000000000227
  0
LINE
  5
FC
  8
FAB_3$PI_PROJECTOR$PANEL-P
 10
-1027.561991624237
 20
-1550.048834879463
 30
0.0000000000000227
 11
-1027.664212410906
 21
-1550.608223485311
 31
0.0000000000000225
  0
LINE
  5
FD
  8
FAB_3$PI_PROJECTOR$PANEL-P
 10
-1027.664212410906
 20
-1550.608223485311
 30
0.0000000000000225
 11
-1027.781301890733
 21
-1551.162385503779
 31
0.0000000000000224
  0
LINE
  5
FE
  8
FAB_3$PI_PROJECTOR$PANEL-P
 10
-1027.781301890733
 20
-1551.162385503779
 30
0.0000000000000224
 11
-1027.913238176288
 21
-1551.708991099562
 31
0.0000000000000223
  0
LINE
  5
FF
  8
FAB_3$PI_PROJECTOR$PANEL-P
 10
-1027.913238176288
 20
-1551.708991099562
 30
0.0000000000000223
 11
-1028.059881134775
 21
-1552.245684206852
 31
0.0000000000000221
  0
LINE
  5
100
  8
FAB_3$PI_PROJECTOR$PANEL-P
 10
-1028.059881134775
 20
-1552.245684206852
 30
0.0000000000000221
 11
-1028.220969149942
 21
-1552.770112644723
 31
0.000000000000022
  0
LINE
  5
101
  8
FAB_3$PI_PROJECTOR$PANEL-P
 10
-1028.220969149942
 20
-1552.770112644723
 30
0.000000000000022
 11
-1028.396118156593
 21
-1553.279959599378
 31
0.0000000000000219
  0
LINE
  5
102
  8
FAB_3$PI_PROJECTOR$PANEL-P
 10
-1028.396118156593
 20
-1553.279959599378
 30
0.0000000000000219
 11
-1028.488812335536
 21
-1553.528708573341
 31
0.0000000000000219
  0
LINE
  5
103
  8
FAB_3$PI_PROJECTOR$PANEL-P
 10
-1028.488812335536
 20
-1553.528708573341
 30
0.0000000000000219
 11
-1028.584823091792
 21
-1553.772975659788
 31
0.0000000000000218
  0
LINE
  5
104
  8
FAB_3$PI_PROJECTOR$PANEL-P
 10
-1028.584823091792
 20
-1553.772975659788
 30
0.0000000000000218
 11
-1028.684069031392
 21
-1554.012495419308
 31
0.0000000000000217
  0
LINE
  5
105
  8
FAB_3$PI_PROJECTOR$PANEL-P
 10
-1028.684069031392
 20
-1554.012495419308
 30
0.0000000000000217
 11
-1028.786461823881
 21
-1554.247010528924
 31
0.0000000000000217
  0
LINE
  5
106
  8
FAB_3$PI_PROJECTOR$PANEL-P
 10
-1028.786461823881
 20
-1554.247010528924
 30
0.0000000000000217
 11
-1028.891906457606
 21
-1554.476272691839
 31
0.0000000000000216
  0
LINE
  5
107
  8
FAB_3$PI_PROJECTOR$PANEL-P
 10
-1028.891906457606
 20
-1554.476272691839
 30
0.0000000000000216
 11
-1029.000301530111
 21
-1554.700043507292
 31
0.0000000000000216
  0
LINE
  5
108
  8
FAB_3$PI_PROJECTOR$PANEL-P
 10
-1029.000301530111
 20
-1554.700043507292
 30
0.0000000000000216
 11
-1029.111539571824
 21
-1554.91809529418
 31
0.0000000000000215
  0
LINE
  5
109
  8
FAB_3$PI_PROJECTOR$PANEL-P
 10
-1029.111539571824
 20
-1554.91809529418
 30
0.0000000000000215
 11
-1029.225507400872
 21
-1555.130211862492
 31
0.0000000000000215
  0
LINE
  5
10A
  8
FAB_3$PI_PROJECTOR$PANEL-P
 10
-1029.225507400872
 20
-1555.130211862492
 30
0.0000000000000215
 11
-1029.342086506566
 21
-1555.336189227063
 31
0.0000000000000214
  0
LINE
  5
10B
  8
FAB_3$PI_PROJECTOR$PANEL-P
 10
-1029.342086506566
 20
-1555.336189227063
 30
0.0000000000000214
 11
-1029.461153458825
 21
-1555.535836258713
 31
0.0000000000000214
  0
LINE
  5
10C
  8
FAB_3$PI_PROJECTOR$PANEL-P
 10
-1029.461153458825
 20
-1555.535836258713
 30
0.0000000000000214
 11
-1029.582580340593
 21
-1555.728975268436
 31
0.0000000000000213
  0
LINE
  5
10D
  8
FAB_3$PI_PROJECTOR$PANEL-P
 10
-1029.582580340593
 20
-1555.728975268436
 30
0.0000000000000213
 11
-1029.706235200078
 21
-1555.915442520919
 31
0.0000000000000213
  0
LINE
  5
10E
  8
FAB_3$PI_PROJECTOR$PANEL-P
 10
-1029.706235200078
 20
-1555.915442520919
 30
0.0000000000000213
 11
-1029.831982519498
 21
-1556.09508867441
 31
0.0000000000000213
  0
LINE
  5
10F
  8
FAB_3$PI_PROJECTOR$PANEL-P
 10
-1029.831982519498
 20
-1556.09508867441
 30
0.0000000000000213
 11
-1029.9596836969
 21
-1556.267779144622
 31
0.0000000000000212
  0
LINE
  5
110
  8
FAB_3$PI_PROJECTOR$PANEL-P
 10
-1029.9596836969
 20
-1556.267779144622
 30
0.0000000000000212
 11
-1030.089197537543
 21
-1556.43339439112
 31
0.0000000000000212
  0
LINE
  5
111
  8
FAB_3$PI_PROJECTOR$PANEL-P
 10
-1030.089197537543
 20
-1556.43339439112
 30
0.0000000000000212
 11
-1030.220380751292
 21
-1556.591830125372
 31
0.0000000000000211
  0
LINE
  5
112
  8
FAB_3$PI_PROJECTOR$PANEL-P
 10
-1030.220380751292
 20
-1556.591830125372
 30
0.0000000000000211
 11
-1030.353088452497
 21
-1556.742997440384
 31
0.0000000000000211
  0
LINE
  5
113
  8
FAB_3$PI_PROJECTOR$PANEL-P
 10
-1030.353088452497
 20
-1556.742997440384
 30
0.0000000000000211
 11
-1030.487174658868
 21
-1556.886822862535
 31
0.0000000000000211
  0
LINE
  5
114
  8
FAB_3$PI_PROJECTOR$PANEL-P
 10
-1030.487174658868
 20
-1556.886822862535
 30
0.0000000000000211
 11
-1030.622492785958
 21
-1557.023248326983
 31
0.000000000000021
  0
LINE
  5
115
  8
FAB_3$PI_PROJECTOR$PANEL-P
 10
-1030.622492785958
 20
-1557.023248326983
 30
0.000000000000021
 11
-1030.758896133991
 21
-1557.152231078577
 31
0.000000000000021
  0
LINE
  5
116
  8
FAB_3$PI_PROJECTOR$PANEL-P
 10
-1030.758896133991
 20
-1557.152231078577
 30
0.000000000000021
 11
-1030.896238363921
 21
-1557.273743500941
 31
0.000000000000021
  0
LINE
  5
117
  8
FAB_3$PI_PROJECTOR$PANEL-P
 10
-1030.896238363921
 20
-1557.273743500941
 30
0.000000000000021
 11
-1031.034373959826
 21
-1557.387772876859
 31
0.000000000000021
  0
LINE
  5
118
  8
FAB_3$PI_PROJECTOR$PANEL-P
 10
-1031.034373959826
 20
-1557.387772876859
 30
0.000000000000021
 11
-1031.10369413151
 21
-1557.441981448564
 31
0.000000000000021
  0
LINE
  5
119
  8
FAB_3$PI_PROJECTOR$PANEL-P
 10
-1031.10369413151
 20
-1557.441981448564
 30
0.000000000000021
 11
-1031.173158674947
 21
-1557.494321083664
 31
0.0000000000000209
  0
LINE
  5
11A
  8
FAB_3$PI_PROJECTOR$PANEL-P
 10
-1031.173158674947
 20
-1557.494321083664
 30
0.0000000000000209
 11
-1031.242749827695
 21
-1557.544794237249
 31
0.0000000000000209
  0
LINE
  5
11B
  8
FAB_3$PI_PROJECTOR$PANEL-P
 10
-1031.242749827695
 20
-1557.544794237249
 30
0.0000000000000209
 11
-1031.312449958903
 21
-1557.593404227764
 31
0.0000000000000209
  0
LINE
  5
11C
  8
FAB_3$PI_PROJECTOR$PANEL-P
 10
-1031.312449958903
 20
-1557.593404227764
 30
0.0000000000000209
 11
-1031.382241581486
 21
-1557.640155222583
 31
0.0000000000000209
  0
LINE
  5
11D
  8
FAB_3$PI_PROJECTOR$PANEL-P
 10
-1031.382241581486
 20
-1557.640155222583
 30
0.0000000000000209
 11
-1031.452107363918
 21
-1557.685052222807
 31
0.0000000000000209
  0
LINE
  5
11E
  8
FAB_3$PI_PROJECTOR$PANEL-P
 10
-1031.452107363918
 20
-1557.685052222807
 30
0.0000000000000209
 11
-1031.522030141648
 21
-1557.728101047346
 31
0.0000000000000209
  0
LINE
  5
11F
  8
FAB_3$PI_PROJECTOR$PANEL-P
 10
-1031.522030141648
 20
-1557.728101047346
 30
0.0000000000000209
 11
-1031.591992928121
 21
-1557.769308316309
 31
0.0000000000000209
  0
LINE
  5
120
  8
FAB_3$PI_PROJECTOR$PANEL-P
 10
-1031.591992928121
 20
-1557.769308316309
 30
0.0000000000000209
 11
-1031.661978925386
 21
-1557.808681433756
 31
0.0000000000000209
  0
LINE
  5
121
  8
FAB_3$PI_PROJECTOR$PANEL-P
 10
-1031.661978925386
 20
-1557.808681433756
 30
0.0000000000000209
 11
-1031.731971534301
 21
-1557.846228569838
 31
0.0000000000000209
  0
LINE
  5
122
  8
FAB_3$PI_PROJECTOR$PANEL-P
 10
-1031.731971534301
 20
-1557.846228569838
 30
0.0000000000000209
 11
-1031.801954364301
 21
-1557.881958642384
 31
0.0000000000000209
  0
LINE
  5
123
  8
FAB_3$PI_PROJECTOR$PANEL-P
 10
-1031.801954364301
 20
-1557.881958642384
 30
0.0000000000000209
 11
-1031.871911242752
 21
-1557.915881297969
 31
0.0000000000000208
  0
LINE
  5
124
  8
FAB_3$PI_PROJECTOR$PANEL-P
 10
-1031.871911242752
 20
-1557.915881297969
 30
0.0000000000000208
 11
-1031.941826223863
 21
-1557.948006892509
 31
0.0000000000000208
  0
LINE
  5
125
  8
FAB_3$PI_PROJECTOR$PANEL-P
 10
-1031.941826223863
 20
-1557.948006892509
 30
0.0000000000000208
 11
-1032.011683597157
 21
-1557.97834647141
 31
0.0000000000000208
  0
LINE
  5
126
  8
FAB_3$PI_PROJECTOR$PANEL-P
 10
-1032.011683597157
 20
-1557.97834647141
 30
0.0000000000000208
 11
-1032.081467895506
 21
-1558.006911749342
 31
0.0000000000000208
  0
LINE
  5
127
  8
FAB_3$PI_PROJECTOR$PANEL-P
 10
-1032.081467895506
 20
-1558.006911749342
 30
0.0000000000000208
 11
-1032.151163902717
 21
-1558.033715089653
 31
0.0000000000000208
  0
LINE
  5
128
  8
FAB_3$PI_PROJECTOR$PANEL-P
 10
-1032.151163902717
 20
-1558.033715089653
 30
0.0000000000000208
 11
-1032.220756660675
 21
-1558.058769483479
 31
0.0000000000000208
  0
LINE
  5
129
  8
FAB_3$PI_PROJECTOR$PANEL-P
 10
-1032.220756660675
 20
-1558.058769483479
 30
0.0000000000000208
 11
-1032.290231476039
 21
-1558.082088528584
 31
0.0000000000000208
  0
LINE
  5
12A
  8
FAB_3$PI_PROJECTOR$PANEL-P
 10
-1032.290231476039
 20
-1558.082088528584
 30
0.0000000000000208
 11
-1032.359573926487
 21
-1558.103686407975
 31
0.0000000000000208
  0
LINE
  5
12B
  8
FAB_3$PI_PROJECTOR$PANEL-P
 10
-1032.359573926487
 20
-1558.103686407975
 30
0.0000000000000208
 11
-1032.428769866527
 21
-1558.123577868329
 31
0.0000000000000208
  0
LINE
  5
12C
  8
FAB_3$PI_PROJECTOR$PANEL-P
 10
-1032.428769866527
 20
-1558.123577868329
 30
0.0000000000000208
 11
-1032.497805432854
 21
-1558.14177819827
 31
0.0000000000000208
  0
LINE
  5
12D
  8
FAB_3$PI_PROJECTOR$PANEL-P
 10
-1032.497805432854
 20
-1558.14177819827
 30
0.0000000000000208
 11
-1032.566667049285
 21
-1558.15830320654
 31
0.0000000000000208
  0
LINE
  5
12E
  8
FAB_3$PI_PROJECTOR$PANEL-P
 10
-1032.566667049285
 20
-1558.15830320654
 30
0.0000000000000208
 11
-1032.635341431238
 21
-1558.173169200089
 31
0.0000000000000208
  0
LINE
  5
12F
  8
FAB_3$PI_PROJECTOR$PANEL-P
 10
-1032.635341431238
 20
-1558.173169200089
 30
0.0000000000000208
 11
-1032.703815589801
 21
-1558.18639296213
 31
0.0000000000000208
  0
LINE
  5
130
  8
FAB_3$PI_PROJECTOR$PANEL-P
 10
-1032.703815589801
 20
-1558.18639296213
 30
0.0000000000000208
 11
-1032.772076835367
 21
-1558.1979917302
 31
0.0000000000000208
  0
LINE
  5
131
  8
FAB_3$PI_PROJECTOR$PANEL-P
 10
-1032.772076835367
 20
-1558.1979917302
 30
0.0000000000000208
 11
-1032.840112780851
 21
-1558.207983174238
 31
0.0000000000000208
  0
LINE
  5
132
  8
FAB_3$PI_PROJECTOR$PANEL-P
 10
-1032.840112780851
 20
-1558.207983174238
 30
0.0000000000000208
 11
-1032.907911344499
 21
-1558.216385374738
 31
0.0000000000000208
  0
LINE
  5
133
  8
FAB_3$PI_PROJECTOR$PANEL-P
 10
-1032.907911344499
 20
-1558.216385374738
 30
0.0000000000000208
 11
-1032.975460752295
 21
-1558.223216800995
 31
0.0000000000000208
  0
LINE
  5
134
  8
FAB_3$PI_PROJECTOR$PANEL-P
 10
-1032.975460752295
 20
-1558.223216800995
 30
0.0000000000000208
 11
-1033.042749539969
 21
-1558.22849628947
 31
0.0000000000000208
  0
LINE
  5
135
  8
FAB_3$PI_PROJECTOR$PANEL-P
 10
-1033.042749539969
 20
-1558.22849628947
 30
0.0000000000000208
 11
-1033.109766554618
 21
-1558.232243022324
 31
0.0000000000000208
  0
LINE
  5
136
  8
FAB_3$PI_PROJECTOR$PANEL-P
 10
-1033.109766554618
 20
-1558.232243022324
 30
0.0000000000000208
 11
-1033.176500955955
 21
-1558.234476506123
 31
0.0000000000000208
  0
LINE
  5
137
  8
FAB_3$PI_PROJECTOR$PANEL-P
 10
-1033.176500955955
 20
-1558.234476506123
 30
0.0000000000000208
 11
-1033.242942217187
 21
-1558.235216550755
 31
0.0000000000000208
  0
LINE
  5
138
  8
FAB_3$PI_PROJECTOR$PANEL-P
 10
-1033.242942217187
 20
-1558.235216550755
 30
0.0000000000000208
 11
-1033.309383478419
 21
-1558.234476506119
 31
0.0000000000000208
  0
LINE
  5
139
  8
FAB_3$PI_PROJECTOR$PANEL-P
 10
-1033.309383478419
 20
-1558.234476506119
 30
0.0000000000000208
 11
-1033.376117879757
 21
-1558.232243022318
 31
0.0000000000000208
  0
LINE
  5
13A
  8
FAB_3$PI_PROJECTOR$PANEL-P
 10
-1033.376117879757
 20
-1558.232243022318
 30
0.0000000000000208
 11
-1033.443134894406
 21
-1558.22849628946
 31
0.0000000000000208
  0
LINE
  5
13B
  8
FAB_3$PI_PROJECTOR$PANEL-P
 10
-1033.443134894406
 20
-1558.22849628946
 30
0.0000000000000208
 11
-1033.510423682079
 21
-1558.223216800981
 31
0.0000000000000208
  0
LINE
  5
13C
  8
FAB_3$PI_PROJECTOR$PANEL-P
 10
-1033.510423682079
 20
-1558.223216800981
 30
0.0000000000000208
 11
-1033.577973089876
 21
-1558.216385374721
 31
0.0000000000000208
  0
LINE
  5
13D
  8
FAB_3$PI_PROJECTOR$PANEL-P
 10
-1033.577973089876
 20
-1558.216385374721
 30
0.0000000000000208
 11
-1033.645771653524
 21
-1558.207983174218
 31
0.0000000000000208
  0
LINE
  5
13E
  8
FAB_3$PI_PROJECTOR$PANEL-P
 10
-1033.645771653524
 20
-1558.207983174218
 30
0.0000000000000208
 11
-1033.713807599008
 21
-1558.197991730176
 31
0.0000000000000208
  0
LINE
  5
13F
  8
FAB_3$PI_PROJECTOR$PANEL-P
 10
-1033.713807599008
 20
-1558.197991730176
 30
0.0000000000000208
 11
-1033.782068844574
 21
-1558.186392962102
 31
0.0000000000000208
  0
LINE
  5
140
  8
FAB_3$PI_PROJECTOR$PANEL-P
 10
-1033.782068844574
 20
-1558.186392962102
 30
0.0000000000000208
 11
-1033.850543003138
 21
-1558.173169200057
 31
0.0000000000000208
  0
LINE
  5
141
  8
FAB_3$PI_PROJECTOR$PANEL-P
 10
-1033.850543003138
 20
-1558.173169200057
 30
0.0000000000000208
 11
-1033.919217385091
 21
-1558.158303206506
 31
0.0000000000000208
  0
LINE
  5
142
  8
FAB_3$PI_PROJECTOR$PANEL-P
 10
-1033.919217385091
 20
-1558.158303206506
 30
0.0000000000000208
 11
-1033.988079001522
 21
-1558.141778198232
 31
0.0000000000000208
  0
LINE
  5
143
  8
FAB_3$PI_PROJECTOR$PANEL-P
 10
-1033.988079001522
 20
-1558.141778198232
 30
0.0000000000000208
 11
-1034.05711456785
 21
-1558.123577868287
 31
0.0000000000000208
  0
LINE
  5
144
  8
FAB_3$PI_PROJECTOR$PANEL-P
 10
-1034.05711456785
 20
-1558.123577868287
 30
0.0000000000000208
 11
-1034.12631050789
 21
-1558.103686407929
 31
0.0000000000000208
  0
LINE
  5
145
  8
FAB_3$PI_PROJECTOR$PANEL-P
 10
-1034.12631050789
 20
-1558.103686407929
 30
0.0000000000000208
 11
-1034.195652958339
 21
-1558.082088528534
 31
0.0000000000000208
  0
LINE
  5
146
  8
FAB_3$PI_PROJECTOR$PANEL-P
 10
-1034.195652958339
 20
-1558.082088528534
 30
0.0000000000000208
 11
-1034.265127773703
 21
-1558.058769483426
 31
0.0000000000000208
  0
LINE
  5
147
  8
FAB_3$PI_PROJECTOR$PANEL-P
 10
-1034.265127773703
 20
-1558.058769483426
 30
0.0000000000000208
 11
-1034.334720531663
 21
-1558.033715089597
 31
0.0000000000000208
  0
LINE
  5
148
  8
FAB_3$PI_PROJECTOR$PANEL-P
 10
-1034.334720531663
 20
-1558.033715089597
 30
0.0000000000000208
 11
-1034.404416538875
 21
-1558.006911749282
 31
0.0000000000000208
  0
LINE
  5
149
  8
FAB_3$PI_PROJECTOR$PANEL-P
 10
-1034.404416538875
 20
-1558.006911749282
 30
0.0000000000000208
 11
-1034.474200837224
 21
-1557.978346471346
 31
0.0000000000000208
  0
LINE
  5
14A
  8
FAB_3$PI_PROJECTOR$PANEL-P
 10
-1034.474200837224
 20
-1557.978346471346
 30
0.0000000000000208
 11
-1034.544058210518
 21
-1557.948006892442
 31
0.0000000000000208
  0
LINE
  5
14B
  8
FAB_3$PI_PROJECTOR$PANEL-P
 10
-1034.544058210518
 20
-1557.948006892442
 30
0.0000000000000208
 11
-1034.61397319163
 21
-1557.915881297899
 31
0.0000000000000208
  0
LINE
  5
14C
  8
FAB_3$PI_PROJECTOR$PANEL-P
 10
-1034.61397319163
 20
-1557.915881297899
 30
0.0000000000000208
 11
-1034.683930070082
 21
-1557.881958642309
 31
0.0000000000000209
  0
LINE
  5
14D
  8
FAB_3$PI_PROJECTOR$PANEL-P
 10
-1034.683930070082
 20
-1557.881958642309
 30
0.0000000000000209
 11
-1034.753912900083
 21
-1557.846228569759
 31
0.0000000000000209
  0
LINE
  5
14E
  8
FAB_3$PI_PROJECTOR$PANEL-P
 10
-1034.753912900083
 20
-1557.846228569759
 30
0.0000000000000209
 11
-1034.823905508999
 21
-1557.808681433675
 31
0.0000000000000209
  0
LINE
  5
14F
  8
FAB_3$PI_PROJECTOR$PANEL-P
 10
-1034.823905508999
 20
-1557.808681433675
 30
0.0000000000000209
 11
-1034.893891506265
 21
-1557.769308316224
 31
0.0000000000000209
  0
LINE
  5
150
  8
FAB_3$PI_PROJECTOR$PANEL-P
 10
-1034.893891506265
 20
-1557.769308316224
 30
0.0000000000000209
 11
-1034.963854292739
 21
-1557.728101047257
 31
0.0000000000000209
  0
LINE
  5
151
  8
FAB_3$PI_PROJECTOR$PANEL-P
 10
-1034.963854292739
 20
-1557.728101047257
 30
0.0000000000000209
 11
-1035.03377707047
 21
-1557.685052222714
 31
0.0000000000000209
  0
LINE
  5
152
  8
FAB_3$PI_PROJECTOR$PANEL-P
 10
-1035.03377707047
 20
-1557.685052222714
 30
0.0000000000000209
 11
-1035.103642852903
 21
-1557.640155222487
 31
0.0000000000000209
  0
LINE
  5
153
  8
FAB_3$PI_PROJECTOR$PANEL-P
 10
-1035.103642852903
 20
-1557.640155222487
 30
0.0000000000000209
 11
-1035.173434475487
 21
-1557.593404227664
 31
0.0000000000000209
  0
LINE
  5
154
  8
FAB_3$PI_PROJECTOR$PANEL-P
 10
-1035.173434475487
 20
-1557.593404227664
 30
0.0000000000000209
 11
-1035.243134606697
 21
-1557.544794237145
 31
0.0000000000000209
  0
LINE
  5
155
  8
FAB_3$PI_PROJECTOR$PANEL-P
 10
-1035.243134606697
 20
-1557.544794237145
 30
0.0000000000000209
 11
-1035.312725759445
 21
-1557.494321083556
 31
0.0000000000000209
  0
LINE
  5
156
  8
FAB_3$PI_PROJECTOR$PANEL-P
 10
-1035.312725759445
 20
-1557.494321083556
 30
0.0000000000000209
 11
-1035.382190302883
 21
-1557.441981448452
 31
0.000000000000021
  0
LINE
  5
157
  8
FAB_3$PI_PROJECTOR$PANEL-P
 10
-1035.382190302883
 20
-1557.441981448452
 30
0.000000000000021
 11
-1035.451510474569
 21
-1557.387772876744
 31
0.000000000000021
  0
LINE
  5
158
  8
FAB_3$PI_PROJECTOR$PANEL-P
 10
-1035.451510474569
 20
-1557.387772876744
 30
0.000000000000021
 11
-1035.589646070477
 21
-1557.273743500819
 31
0.000000000000021
  0
LINE
  5
159
  8
FAB_3$PI_PROJECTOR$PANEL-P
 10
-1035.589646070477
 20
-1557.273743500819
 30
0.000000000000021
 11
-1035.72698830041
 21
-1557.152231078448
 31
0.000000000000021
  0
LINE
  5
15A
  8
FAB_3$PI_PROJECTOR$PANEL-P
 10
-1035.72698830041
 20
-1557.152231078448
 30
0.000000000000021
 11
-1035.863391648446
 21
-1557.023248326846
 31
0.000000000000021
  0
LINE
  5
15B
  8
FAB_3$PI_PROJECTOR$PANEL-P
 10
-1035.863391648446
 20
-1557.023248326846
 30
0.000000000000021
 11
-1035.99870977554
 21
-1556.886822862392
 31
0.0000000000000211
  0
LINE
  5
15C
  8
FAB_3$PI_PROJECTOR$PANEL-P
 10
-1035.99870977554
 20
-1556.886822862392
 30
0.0000000000000211
 11
-1036.132795981914
 21
-1556.742997440234
 31
0.0000000000000211
  0
LINE
  5
15D
  8
FAB_3$PI_PROJECTOR$PANEL-P
 10
-1036.132795981914
 20
-1556.742997440234
 30
0.0000000000000211
 11
-1036.265503683122
 21
-1556.591830125215
 31
0.0000000000000211
  0
LINE
  5
15E
  8
FAB_3$PI_PROJECTOR$PANEL-P
 10
-1036.265503683122
 20
-1556.591830125215
 30
0.0000000000000211
 11
-1036.396686896875
 21
-1556.433394390956
 31
0.0000000000000212
  0
LINE
  5
15F
  8
FAB_3$PI_PROJECTOR$PANEL-P
 10
-1036.396686896875
 20
-1556.433394390956
 30
0.0000000000000212
 11
-1036.526200737522
 21
-1556.267779144452
 31
0.0000000000000212
  0
LINE
  5
160
  8
FAB_3$PI_PROJECTOR$PANEL-P
 10
-1036.526200737522
 20
-1556.267779144452
 30
0.0000000000000212
 11
-1036.653901914928
 21
-1556.095088674233
 31
0.0000000000000213
  0
LINE
  5
161
  8
FAB_3$PI_PROJECTOR$PANEL-P
 10
-1036.653901914928
 20
-1556.095088674233
 30
0.0000000000000213
 11
-1036.779649234352
 21
-1555.915442520735
 31
0.0000000000000213
  0
LINE
  5
162
  8
FAB_3$PI_PROJECTOR$PANEL-P
 10
-1036.779649234352
 20
-1555.915442520735
 30
0.0000000000000213
 11
-1036.903304093842
 21
-1555.728975268246
 31
0.0000000000000213
  0
LINE
  5
163
  8
FAB_3$PI_PROJECTOR$PANEL-P
 10
-1036.903304093842
 20
-1555.728975268246
 30
0.0000000000000213
 11
-1037.024730975616
 21
-1555.535836258517
 31
0.0000000000000214
  0
LINE
  5
164
  8
FAB_3$PI_PROJECTOR$PANEL-P
 10
-1037.024730975616
 20
-1555.535836258517
 30
0.0000000000000214
 11
-1037.14379792788
 21
-1555.336189226861
 31
0.0000000000000214
  0
LINE
  5
165
  8
FAB_3$PI_PROJECTOR$PANEL-P
 10
-1037.14379792788
 20
-1555.336189226861
 30
0.0000000000000214
 11
-1037.260377033578
 21
-1555.130211862284
 31
0.0000000000000215
  0
LINE
  5
166
  8
FAB_3$PI_PROJECTOR$PANEL-P
 10
-1037.260377033578
 20
-1555.130211862284
 30
0.0000000000000215
 11
-1037.374344862632
 21
-1554.918095293966
 31
0.0000000000000215
  0
LINE
  5
167
  8
FAB_3$PI_PROJECTOR$PANEL-P
 10
-1037.374344862632
 20
-1554.918095293966
 30
0.0000000000000215
 11
-1037.485582904349
 21
-1554.700043507072
 31
0.0000000000000216
  0
LINE
  5
168
  8
FAB_3$PI_PROJECTOR$PANEL-P
 10
-1037.485582904349
 20
-1554.700043507072
 30
0.0000000000000216
 11
-1037.59397797686
 21
-1554.476272691614
 31
0.0000000000000216
  0
LINE
  5
169
  8
FAB_3$PI_PROJECTOR$PANEL-P
 10
-1037.59397797686
 20
-1554.476272691614
 30
0.0000000000000216
 11
-1037.69942261059
 21
-1554.247010528693
 31
0.0000000000000217
  0
LINE
  5
16A
  8
FAB_3$PI_PROJECTOR$PANEL-P
 10
-1037.69942261059
 20
-1554.247010528693
 30
0.0000000000000217
 11
-1037.801815403086
 21
-1554.012495419071
 31
0.0000000000000217
  0
LINE
  5
16B
  8
FAB_3$PI_PROJECTOR$PANEL-P
 10
-1037.801815403086
 20
-1554.012495419071
 30
0.0000000000000217
 11
-1037.901061342691
 21
-1553.772975659546
 31
0.0000000000000218
  0
LINE
  5
16C
  8
FAB_3$PI_PROJECTOR$PANEL-P
 10
-1037.901061342691
 20
-1553.772975659546
 30
0.0000000000000218
 11
-1037.997072098953
 21
-1553.528708573094
 31
0.0000000000000219
  0
LINE
  5
16D
  8
FAB_3$PI_PROJECTOR$PANEL-P
 10
-1037.997072098953
 20
-1553.528708573094
 30
0.0000000000000219
 11
-1038.089766277902
 21
-1553.279959599126
 31
0.0000000000000219
  0
LINE
  5
16E
  8
FAB_3$PI_PROJECTOR$PANEL-P
 10
-1038.089766277902
 20
-1553.279959599126
 30
0.0000000000000219
 11
-1038.264915284566
 21
-1552.770112644463
 31
0.000000000000022
  0
LINE
  5
16F
  8
FAB_3$PI_PROJECTOR$PANEL-P
 10
-1038.264915284566
 20
-1552.770112644463
 30
0.000000000000022
 11
-1038.426003299745
 21
-1552.245684206583
 31
0.0000000000000221
  0
LINE
  5
170
  8
FAB_3$PI_PROJECTOR$PANEL-P
 10
-1038.426003299745
 20
-1552.245684206583
 30
0.0000000000000221
 11
-1038.572646258245
 21
-1551.708991099285
 31
0.0000000000000223
  0
LINE
  5
171
  8
FAB_3$PI_PROJECTOR$PANEL-P
 10
-1038.572646258245
 20
-1551.708991099285
 30
0.0000000000000223
 11
-1038.704582543814
 21
-1551.162385503495
 31
0.0000000000000224
  0
LINE
  5
172
  8
FAB_3$PI_PROJECTOR$PANEL-P
 10
-1038.704582543814
 20
-1551.162385503495
 30
0.0000000000000224
 11
-1038.821672023655
 21
-1550.608223485021
 31
0.0000000000000225
  0
LINE
  5
173
  8
FAB_3$PI_PROJECTOR$PANEL-P
 10
-1038.821672023655
 20
-1550.608223485021
 30
0.0000000000000225
 11
-1038.923892810337
 21
-1550.048834879168
 31
0.0000000000000227
  0
LINE
  5
174
  8
FAB_3$PI_PROJECTOR$PANEL-P
 10
-1038.923892810337
 20
-1550.048834879168
 30
0.0000000000000227
 11
-1039.011335966416
 21
-1549.486495258542
 31
0.0000000000000228
  0
LINE
  5
175
  8
FAB_3$PI_PROJECTOR$PANEL-P
 10
-1039.011335966416
 20
-1549.486495258542
 30
0.0000000000000228
 11
-1039.084198423557
 21
-1548.923400578333
 31
0.0000000000000229
  0
LINE
  5
176
  8
FAB_3$PI_PROJECTOR$PANEL-P
 10
-1039.084198423557
 20
-1548.923400578333
 30
0.0000000000000229
 11
-1039.142774427807
 21
-1548.361644955209
 31
0.000000000000023
  0
LINE
  5
177
  8
FAB_3$PI_PROJECTOR$PANEL-P
 10
-1039.142774427807
 20
-1548.361644955209
 30
0.000000000000023
 11
-1039.187445845324
 21
-1547.803201890772
 31
0.0000000000000232
  0
LINE
  5
178
  8
FAB_3$PI_PROJECTOR$PANEL-P
 10
-1039.187445845324
 20
-1547.803201890772
 30
0.0000000000000232
 11
-1039.218671668998
 21
-1547.249909106793
 31
0.0000000000000233
  0
LINE
  5
179
  8
FAB_3$PI_PROJECTOR$PANEL-P
 10
-1039.218671668998
 20
-1547.249909106793
 30
0.0000000000000233
 11
-1039.236977057561
 21
-1546.703457024495
 31
0.0000000000000234
  0
LINE
  5
17A
  8
FAB_3$PI_PROJECTOR$PANEL-P
 10
-1039.236977057561
 20
-1546.703457024495
 30
0.0000000000000234
 11
-1039.242942217334
 21
-1546.165380799895
 31
0.0000000000000235
  0
LINE
  5
17B
  8
FAB_3$PI_PROJECTOR$PANEL-P
 10
-748.3538455379528
 20
-1546.165380799895
 30
0.0000000000000235
 11
-748.3598106977121
 21
-1545.627304575294
 31
0.0000000000000237
  0
LINE
  5
17C
  8
FAB_3$PI_PROJECTOR$PANEL-P
 10
-748.3598106977121
 20
-1545.627304575294
 30
0.0000000000000237
 11
-748.3781160862621
 21
-1545.080852492998
 31
0.0000000000000238
  0
LINE
  5
17D
  8
FAB_3$PI_PROJECTOR$PANEL-P
 10
-748.3781160862621
 20
-1545.080852492998
 30
0.0000000000000238
 11
-748.4093419099233
 21
-1544.52755970902
 31
0.0000000000000239
  0
LINE
  5
17E
  8
FAB_3$PI_PROJECTOR$PANEL-P
 10
-748.4093419099233
 20
-1544.52755970902
 30
0.0000000000000239
 11
-748.4540133274267
 21
-1543.969116644586
 31
0.0000000000000241
  0
LINE
  5
17F
  8
FAB_3$PI_PROJECTOR$PANEL-P
 10
-748.4540133274267
 20
-1543.969116644586
 30
0.0000000000000241
 11
-748.5125893316628
 21
-1543.407361021465
 31
0.0000000000000242
  0
LINE
  5
180
  8
FAB_3$PI_PROJECTOR$PANEL-P
 10
-748.5125893316628
 20
-1543.407361021465
 30
0.0000000000000242
 11
-748.5854517887902
 21
-1542.84426634126
 31
0.0000000000000243
  0
LINE
  5
181
  8
FAB_3$PI_PROJECTOR$PANEL-P
 10
-748.5854517887902
 20
-1542.84426634126
 30
0.0000000000000243
 11
-748.6728949448554
 21
-1542.281926720638
 31
0.0000000000000244
  0
LINE
  5
182
  8
FAB_3$PI_PROJECTOR$PANEL-P
 10
-748.6728949448554
 20
-1542.281926720638
 30
0.0000000000000244
 11
-748.7751157315242
 21
-1541.722538114791
 31
0.0000000000000246
  0
LINE
  5
183
  8
FAB_3$PI_PROJECTOR$PANEL-P
 10
-748.7751157315242
 20
-1541.722538114791
 30
0.0000000000000246
 11
-748.8922052113514
 21
-1541.168376096323
 31
0.0000000000000247
  0
LINE
  5
184
  8
FAB_3$PI_PROJECTOR$PANEL-P
 10
-748.8922052113514
 20
-1541.168376096323
 30
0.0000000000000247
 11
-749.0241414969069
 21
-1540.621770500539
 31
0.0000000000000248
  0
LINE
  5
185
  8
FAB_3$PI_PROJECTOR$PANEL-P
 10
-749.0241414969069
 20
-1540.621770500539
 30
0.0000000000000248
 11
-749.1707844553943
 21
-1540.085077393249
 31
0.0000000000000249
  0
LINE
  5
186
  8
FAB_3$PI_PROJECTOR$PANEL-P
 10
-749.1707844553943
 20
-1540.085077393249
 30
0.0000000000000249
 11
-749.3318724705604
 21
-1539.560648955377
 31
0.0000000000000251
  0
LINE
  5
187
  8
FAB_3$PI_PROJECTOR$PANEL-P
 10
-749.3318724705604
 20
-1539.560648955377
 30
0.0000000000000251
 11
-749.5070214772121
 21
-1539.050802000723
 31
0.0000000000000252
  0
LINE
  5
188
  8
FAB_3$PI_PROJECTOR$PANEL-P
 10
-749.5070214772121
 20
-1539.050802000723
 30
0.0000000000000252
 11
-749.5997156561547
 21
-1538.802053026761
 31
0.0000000000000252
  0
LINE
  5
189
  8
FAB_3$PI_PROJECTOR$PANEL-P
 10
-749.5997156561547
 20
-1538.802053026761
 30
0.0000000000000252
 11
-749.6957264124113
 21
-1538.557785940314
 31
0.0000000000000253
  0
LINE
  5
18A
  8
FAB_3$PI_PROJECTOR$PANEL-P
 10
-749.6957264124113
 20
-1538.557785940314
 30
0.0000000000000253
 11
-749.7949723520105
 21
-1538.318266180794
 31
0.0000000000000254
  0
LINE
  5
18B
  8
FAB_3$PI_PROJECTOR$PANEL-P
 10
-749.7949723520105
 20
-1538.318266180794
 30
0.0000000000000254
 11
-749.8973651445
 21
-1538.083751071177
 31
0.0000000000000254
  0
LINE
  5
18C
  8
FAB_3$PI_PROJECTOR$PANEL-P
 10
-749.8973651445
 20
-1538.083751071177
 30
0.0000000000000254
 11
-750.0028097782252
 21
-1537.854488908262
 31
0.0000000000000255
  0
LINE
  5
18D
  8
FAB_3$PI_PROJECTOR$PANEL-P
 10
-750.0028097782252
 20
-1537.854488908262
 30
0.0000000000000255
 11
-750.1112048507296
 21
-1537.630718092809
 31
0.0000000000000255
  0
LINE
  5
18E
  8
FAB_3$PI_PROJECTOR$PANEL-P
 10
-750.1112048507296
 20
-1537.630718092809
 30
0.0000000000000255
 11
-750.2224428924421
 21
-1537.412666305921
 31
0.0000000000000256
  0
LINE
  5
18F
  8
FAB_3$PI_PROJECTOR$PANEL-P
 10
-750.2224428924421
 20
-1537.412666305921
 30
0.0000000000000256
 11
-750.3364107214904
 21
-1537.200549737609
 31
0.0000000000000256
  0
LINE
  5
190
  8
FAB_3$PI_PROJECTOR$PANEL-P
 10
-750.3364107214904
 20
-1537.200549737609
 30
0.0000000000000256
 11
-750.4529898271841
 21
-1536.994572373039
 31
0.0000000000000257
  0
LINE
  5
191
  8
FAB_3$PI_PROJECTOR$PANEL-P
 10
-750.4529898271841
 20
-1536.994572373039
 30
0.0000000000000257
 11
-750.5720567794433
 21
-1536.794925341388
 31
0.0000000000000257
  0
LINE
  5
192
  8
FAB_3$PI_PROJECTOR$PANEL-P
 10
-750.5720567794433
 20
-1536.794925341388
 30
0.0000000000000257
 11
-750.6934836612119
 21
-1536.601786331665
 31
0.0000000000000257
  0
LINE
  5
193
  8
FAB_3$PI_PROJECTOR$PANEL-P
 10
-750.6934836612119
 20
-1536.601786331665
 30
0.0000000000000257
 11
-750.8171385206972
 21
-1536.415319079182
 31
0.0000000000000258
  0
LINE
  5
194
  8
FAB_3$PI_PROJECTOR$PANEL-P
 10
-750.8171385206972
 20
-1536.415319079182
 30
0.0000000000000258
 11
-750.9428858401169
 21
-1536.235672925691
 31
0.0000000000000258
  0
LINE
  5
195
  8
FAB_3$PI_PROJECTOR$PANEL-P
 10
-750.9428858401169
 20
-1536.235672925691
 30
0.0000000000000258
 11
-751.0705870175188
 21
-1536.062982455479
 31
0.0000000000000259
  0
LINE
  5
196
  8
FAB_3$PI_PROJECTOR$PANEL-P
 10
-751.0705870175188
 20
-1536.062982455479
 30
0.0000000000000259
 11
-751.200100858162
 21
-1535.897367208981
 31
0.0000000000000259
  0
LINE
  5
197
  8
FAB_3$PI_PROJECTOR$PANEL-P
 10
-751.200100858162
 20
-1535.897367208981
 30
0.0000000000000259
 11
-751.331284071911
 21
-1535.738931474729
 31
0.0000000000000259
  0
LINE
  5
198
  8
FAB_3$PI_PROJECTOR$PANEL-P
 10
-751.331284071911
 20
-1535.738931474729
 30
0.0000000000000259
 11
-751.4639917731158
 21
-1535.587764159718
 31
0.000000000000026
  0
LINE
  5
199
  8
FAB_3$PI_PROJECTOR$PANEL-P
 10
-751.4639917731158
 20
-1535.587764159718
 30
0.000000000000026
 11
-751.5980779794864
 21
-1535.443938737566
 31
0.000000000000026
  0
LINE
  5
19A
  8
FAB_3$PI_PROJECTOR$PANEL-P
 10
-751.5980779794864
 20
-1535.443938737566
 30
0.000000000000026
 11
-751.7333961065772
 21
-1535.307513273119
 31
0.000000000000026
  0
LINE
  5
19B
  8
FAB_3$PI_PROJECTOR$PANEL-P
 10
-751.7333961065772
 20
-1535.307513273119
 30
0.000000000000026
 11
-751.8697994546101
 21
-1535.178530521524
 31
0.0000000000000261
  0
LINE
  5
19C
  8
FAB_3$PI_PROJECTOR$PANEL-P
 10
-751.8697994546101
 20
-1535.178530521524
 30
0.0000000000000261
 11
-752.0071416845393
 21
-1535.05701809916
 31
0.0000000000000261
  0
LINE
  5
19D
  8
FAB_3$PI_PROJECTOR$PANEL-P
 10
-752.0071416845393
 20
-1535.05701809916
 30
0.0000000000000261
 11
-752.145277280445
 21
-1534.942988723243
 31
0.0000000000000261
  0
LINE
  5
19E
  8
FAB_3$PI_PROJECTOR$PANEL-P
 10
-752.145277280445
 20
-1534.942988723243
 30
0.0000000000000261
 11
-752.2145974521292
 21
-1534.888780151537
 31
0.0000000000000261
  0
LINE
  5
19F
  8
FAB_3$PI_PROJECTOR$PANEL-P
 10
-752.2145974521292
 20
-1534.888780151537
 30
0.0000000000000261
 11
-752.2840619955658
 21
-1534.836440516437
 31
0.0000000000000262
  0
LINE
  5
1A0
  8
FAB_3$PI_PROJECTOR$PANEL-P
 10
-752.2840619955658
 20
-1534.836440516437
 30
0.0000000000000262
 11
-752.3536531483135
 21
-1534.785967362852
 31
0.0000000000000262
  0
LINE
  5
1A1
  8
FAB_3$PI_PROJECTOR$PANEL-P
 10
-752.3536531483135
 20
-1534.785967362852
 30
0.0000000000000262
 11
-752.423353279522
 21
-1534.737357372336
 31
0.0000000000000262
  0
LINE
  5
1A2
  8
FAB_3$PI_PROJECTOR$PANEL-P
 10
-752.423353279522
 20
-1534.737357372336
 30
0.0000000000000262
 11
-752.4931449021047
 21
-1534.690606377517
 31
0.0000000000000262
  0
LINE
  5
1A3
  8
FAB_3$PI_PROJECTOR$PANEL-P
 10
-752.4931449021047
 20
-1534.690606377517
 30
0.0000000000000262
 11
-752.5630106845364
 21
-1534.645709377293
 31
0.0000000000000262
  0
LINE
  5
1A4
  8
FAB_3$PI_PROJECTOR$PANEL-P
 10
-752.5630106845364
 20
-1534.645709377293
 30
0.0000000000000262
 11
-752.6329334622667
 21
-1534.602660552755
 31
0.0000000000000262
  0
LINE
  5
1A5
  8
FAB_3$PI_PROJECTOR$PANEL-P
 10
-752.6329334622667
 20
-1534.602660552755
 30
0.0000000000000262
 11
-752.7028962487393
 21
-1534.561453283791
 31
0.0000000000000262
  0
LINE
  5
1A6
  8
FAB_3$PI_PROJECTOR$PANEL-P
 10
-752.7028962487393
 20
-1534.561453283791
 30
0.0000000000000262
 11
-752.7728822460051
 21
-1534.522080166345
 31
0.0000000000000262
  0
LINE
  5
1A7
  8
FAB_3$PI_PROJECTOR$PANEL-P
 10
-752.7728822460051
 20
-1534.522080166345
 30
0.0000000000000262
 11
-752.8428748549196
 21
-1534.484533030263
 31
0.0000000000000262
  0
LINE
  5
1A8
  8
FAB_3$PI_PROJECTOR$PANEL-P
 10
-752.8428748549196
 20
-1534.484533030263
 30
0.0000000000000262
 11
-752.9128576849197
 21
-1534.448802957717
 31
0.0000000000000262
  0
LINE
  5
1A9
  8
FAB_3$PI_PROJECTOR$PANEL-P
 10
-752.9128576849197
 20
-1534.448802957717
 30
0.0000000000000262
 11
-752.9828145633711
 21
-1534.414880302131
 31
0.0000000000000263
  0
LINE
  5
1AA
  8
FAB_3$PI_PROJECTOR$PANEL-P
 10
-752.9828145633711
 20
-1534.414880302131
 30
0.0000000000000263
 11
-753.0527295444817
 21
-1534.382754707592
 31
0.0000000000000263
  0
LINE
  5
1AB
  8
FAB_3$PI_PROJECTOR$PANEL-P
 10
-753.0527295444817
 20
-1534.382754707592
 30
0.0000000000000263
 11
-753.1225869177754
 21
-1534.35241512869
 31
0.0000000000000263
  0
LINE
  5
1AC
  8
FAB_3$PI_PROJECTOR$PANEL-P
 10
-753.1225869177754
 20
-1534.35241512869
 30
0.0000000000000263
 11
-753.1923712161241
 21
-1534.323849850759
 31
0.0000000000000263
  0
LINE
  5
1AD
  8
FAB_3$PI_PROJECTOR$PANEL-P
 10
-753.1923712161241
 20
-1534.323849850759
 30
0.0000000000000263
 11
-753.2620672233354
 21
-1534.297046510447
 31
0.0000000000000263
  0
LINE
  5
1AE
  8
FAB_3$PI_PROJECTOR$PANEL-P
 10
-753.2620672233354
 20
-1534.297046510447
 30
0.0000000000000263
 11
-753.3316599812943
 21
-1534.271992116622
 31
0.0000000000000263
  0
LINE
  5
1AF
  8
FAB_3$PI_PROJECTOR$PANEL-P
 10
-753.3316599812943
 20
-1534.271992116622
 30
0.0000000000000263
 11
-753.401134796658
 21
-1534.248673071517
 31
0.0000000000000263
  0
LINE
  5
1B0
  8
FAB_3$PI_PROJECTOR$PANEL-P
 10
-753.401134796658
 20
-1534.248673071517
 30
0.0000000000000263
 11
-753.4704772471061
 21
-1534.227075192126
 31
0.0000000000000263
  0
LINE
  5
1B1
  8
FAB_3$PI_PROJECTOR$PANEL-P
 10
-753.4704772471061
 20
-1534.227075192126
 30
0.0000000000000263
 11
-753.5396731871452
 21
-1534.207183731772
 31
0.0000000000000263
  0
LINE
  5
1B2
  8
FAB_3$PI_PROJECTOR$PANEL-P
 10
-753.5396731871452
 20
-1534.207183731772
 30
0.0000000000000263
 11
-753.608708753473
 21
-1534.18898340183
 31
0.0000000000000263
  0
LINE
  5
1B3
  8
FAB_3$PI_PROJECTOR$PANEL-P
 10
-753.608708753473
 20
-1534.18898340183
 30
0.0000000000000263
 11
-753.6775703699036
 21
-1534.17245839356
 31
0.0000000000000263
  0
LINE
  5
1B4
  8
FAB_3$PI_PROJECTOR$PANEL-P
 10
-753.6775703699036
 20
-1534.17245839356
 30
0.0000000000000263
 11
-753.7462447518566
 21
-1534.157592400012
 31
0.0000000000000263
  0
LINE
  5
1B5
  8
FAB_3$PI_PROJECTOR$PANEL-P
 10
-753.7462447518566
 20
-1534.157592400012
 30
0.0000000000000263
 11
-753.8147189104201
 21
-1534.14436863797
 31
0.0000000000000263
  0
LINE
  5
1B6
  8
FAB_3$PI_PROJECTOR$PANEL-P
 10
-753.8147189104201
 20
-1534.14436863797
 30
0.0000000000000263
 11
-753.882980155986
 21
-1534.1327698699
 31
0.0000000000000263
  0
LINE
  5
1B7
  8
FAB_3$PI_PROJECTOR$PANEL-P
 10
-753.882980155986
 20
-1534.1327698699
 30
0.0000000000000263
 11
-753.9510161014697
 21
-1534.122778425862
 31
0.0000000000000263
  0
LINE
  5
1B8
  8
FAB_3$PI_PROJECTOR$PANEL-P
 10
-753.9510161014697
 20
-1534.122778425862
 30
0.0000000000000263
 11
-754.0188146651177
 21
-1534.114376225361
 31
0.0000000000000263
  0
LINE
  5
1B9
  8
FAB_3$PI_PROJECTOR$PANEL-P
 10
-754.0188146651177
 20
-1534.114376225361
 30
0.0000000000000263
 11
-754.0863640729139
 21
-1534.107544799105
 31
0.0000000000000263
  0
LINE
  5
1BA
  8
FAB_3$PI_PROJECTOR$PANEL-P
 10
-754.0863640729139
 20
-1534.107544799105
 30
0.0000000000000263
 11
-754.1536528605873
 21
-1534.10226531063
 31
0.0000000000000263
  0
LINE
  5
1BB
  8
FAB_3$PI_PROJECTOR$PANEL-P
 10
-754.1536528605873
 20
-1534.10226531063
 30
0.0000000000000263
 11
-754.2206698752361
 21
-1534.098518577776
 31
0.0000000000000263
  0
LINE
  5
1BC
  8
FAB_3$PI_PROJECTOR$PANEL-P
 10
-754.2206698752361
 20
-1534.098518577776
 30
0.0000000000000263
 11
-754.2874042765739
 21
-1534.096285093977
 31
0.0000000000000263
  0
LINE
  5
1BD
  8
FAB_3$PI_PROJECTOR$PANEL-P
 10
-754.2874042765739
 20
-1534.096285093977
 30
0.0000000000000263
 11
-754.3538455378058
 21
-1534.095545049345
 31
0.0000000000000263
  0
LINE
  5
1BE
  8
FAB_3$PI_PROJECTOR$PANEL-P
 10
-754.3538455378058
 20
-1534.095545049345
 30
0.0000000000000263
 11
-754.4202867990376
 21
-1534.096285093981
 31
0.0000000000000263
  0
LINE
  5
1BF
  8
FAB_3$PI_PROJECTOR$PANEL-P
 10
-754.4202867990376
 20
-1534.096285093981
 30
0.0000000000000263
 11
-754.4870212003756
 21
-1534.098518577783
 31
0.0000000000000263
  0
LINE
  5
1C0
  8
FAB_3$PI_PROJECTOR$PANEL-P
 10
-754.4870212003756
 20
-1534.098518577783
 30
0.0000000000000263
 11
-754.5540382150247
 21
-1534.102265310641
 31
0.0000000000000263
  0
LINE
  5
1C1
  8
FAB_3$PI_PROJECTOR$PANEL-P
 10
-754.5540382150247
 20
-1534.102265310641
 30
0.0000000000000263
 11
-754.6213270026979
 21
-1534.107544799119
 31
0.0000000000000263
  0
LINE
  5
1C2
  8
FAB_3$PI_PROJECTOR$PANEL-P
 10
-754.6213270026979
 20
-1534.107544799119
 30
0.0000000000000263
 11
-754.6888764104941
 21
-1534.114376225379
 31
0.0000000000000263
  0
LINE
  5
1C3
  8
FAB_3$PI_PROJECTOR$PANEL-P
 10
-754.6888764104941
 20
-1534.114376225379
 30
0.0000000000000263
 11
-754.7566749741426
 21
-1534.122778425883
 31
0.0000000000000263
  0
LINE
  5
1C4
  8
FAB_3$PI_PROJECTOR$PANEL-P
 10
-754.7566749741426
 20
-1534.122778425883
 30
0.0000000000000263
 11
-754.8247109196263
 21
-1534.132769869925
 31
0.0000000000000263
  0
LINE
  5
1C5
  8
FAB_3$PI_PROJECTOR$PANEL-P
 10
-754.8247109196263
 20
-1534.132769869925
 30
0.0000000000000263
 11
-754.8929721651925
 21
-1534.144368637998
 31
0.0000000000000263
  0
LINE
  5
1C6
  8
FAB_3$PI_PROJECTOR$PANEL-P
 10
-754.8929721651925
 20
-1534.144368637998
 30
0.0000000000000263
 11
-754.9614463237565
 21
-1534.157592400044
 31
0.0000000000000263
  0
LINE
  5
1C7
  8
FAB_3$PI_PROJECTOR$PANEL-P
 10
-754.9614463237565
 20
-1534.157592400044
 30
0.0000000000000263
 11
-755.0301207057098
 21
-1534.172458393595
 31
0.0000000000000263
  0
LINE
  5
1C8
  8
FAB_3$PI_PROJECTOR$PANEL-P
 10
-755.0301207057098
 20
-1534.172458393595
 30
0.0000000000000263
 11
-755.0989823221407
 21
-1534.188983401869
 31
0.0000000000000263
  0
LINE
  5
1C9
  8
FAB_3$PI_PROJECTOR$PANEL-P
 10
-755.0989823221407
 20
-1534.188983401869
 30
0.0000000000000263
 11
-755.1680178884691
 21
-1534.207183731814
 31
0.0000000000000263
  0
LINE
  5
1CA
  8
FAB_3$PI_PROJECTOR$PANEL-P
 10
-755.1680178884691
 20
-1534.207183731814
 30
0.0000000000000263
 11
-755.2372138285086
 21
-1534.227075192171
 31
0.0000000000000263
  0
LINE
  5
1CB
  8
FAB_3$PI_PROJECTOR$PANEL-P
 10
-755.2372138285086
 20
-1534.227075192171
 30
0.0000000000000263
 11
-755.3065562789574
 21
-1534.248673071566
 31
0.0000000000000263
  0
LINE
  5
1CC
  8
FAB_3$PI_PROJECTOR$PANEL-P
 10
-755.3065562789574
 20
-1534.248673071566
 30
0.0000000000000263
 11
-755.3760310943217
 21
-1534.271992116674
 31
0.0000000000000263
  0
LINE
  5
1CD
  8
FAB_3$PI_PROJECTOR$PANEL-P
 10
-755.3760310943217
 20
-1534.271992116674
 30
0.0000000000000263
 11
-755.4456238522812
 21
-1534.297046510504
 31
0.0000000000000263
  0
LINE
  5
1CE
  8
FAB_3$PI_PROJECTOR$PANEL-P
 10
-755.4456238522812
 20
-1534.297046510504
 30
0.0000000000000263
 11
-755.5153198594933
 21
-1534.323849850819
 31
0.0000000000000263
  0
LINE
  5
1CF
  8
FAB_3$PI_PROJECTOR$PANEL-P
 10
-755.5153198594933
 20
-1534.323849850819
 30
0.0000000000000263
 11
-755.5851041578425
 21
-1534.352415128754
 31
0.0000000000000263
  0
LINE
  5
1D0
  8
FAB_3$PI_PROJECTOR$PANEL-P
 10
-755.5851041578425
 20
-1534.352415128754
 30
0.0000000000000263
 11
-755.654961531137
 21
-1534.382754707659
 31
0.0000000000000263
  0
LINE
  5
1D1
  8
FAB_3$PI_PROJECTOR$PANEL-P
 10
-755.654961531137
 20
-1534.382754707659
 30
0.0000000000000263
 11
-755.7248765122484
 21
-1534.414880302203
 31
0.0000000000000263
  0
LINE
  5
1D2
  8
FAB_3$PI_PROJECTOR$PANEL-P
 10
-755.7248765122484
 20
-1534.414880302203
 30
0.0000000000000263
 11
-755.7948333907009
 21
-1534.448802957793
 31
0.0000000000000262
  0
LINE
  5
1D3
  8
FAB_3$PI_PROJECTOR$PANEL-P
 10
-755.7948333907009
 20
-1534.448802957793
 30
0.0000000000000262
 11
-755.8648162207019
 21
-1534.484533030342
 31
0.0000000000000262
  0
LINE
  5
1D4
  8
FAB_3$PI_PROJECTOR$PANEL-P
 10
-755.8648162207019
 20
-1534.484533030342
 30
0.0000000000000262
 11
-755.9348088296172
 21
-1534.522080166427
 31
0.0000000000000262
  0
LINE
  5
1D5
  8
FAB_3$PI_PROJECTOR$PANEL-P
 10
-755.9348088296172
 20
-1534.522080166427
 30
0.0000000000000262
 11
-756.0047948268838
 21
-1534.561453283877
 31
0.0000000000000262
  0
LINE
  5
1D6
  8
FAB_3$PI_PROJECTOR$PANEL-P
 10
-756.0047948268838
 20
-1534.561453283877
 30
0.0000000000000262
 11
-756.0747576133575
 21
-1534.602660552845
 31
0.0000000000000262
  0
LINE
  5
1D7
  8
FAB_3$PI_PROJECTOR$PANEL-P
 10
-756.0747576133575
 20
-1534.602660552845
 30
0.0000000000000262
 11
-756.1446803910889
 21
-1534.645709377386
 31
0.0000000000000262
  0
LINE
  5
1D8
  8
FAB_3$PI_PROJECTOR$PANEL-P
 10
-756.1446803910889
 20
-1534.645709377386
 30
0.0000000000000262
 11
-756.2145461735215
 21
-1534.690606377614
 31
0.0000000000000262
  0
LINE
  5
1D9
  8
FAB_3$PI_PROJECTOR$PANEL-P
 10
-756.2145461735215
 20
-1534.690606377614
 30
0.0000000000000262
 11
-756.2843377961054
 21
-1534.737357372436
 31
0.0000000000000262
  0
LINE
  5
1DA
  8
FAB_3$PI_PROJECTOR$PANEL-P
 10
-756.2843377961054
 20
-1534.737357372436
 30
0.0000000000000262
 11
-756.3540379273154
 21
-1534.785967362957
 31
0.0000000000000262
  0
LINE
  5
1DB
  8
FAB_3$PI_PROJECTOR$PANEL-P
 10
-756.3540379273154
 20
-1534.785967362957
 30
0.0000000000000262
 11
-756.423629080064
 21
-1534.836440516545
 31
0.0000000000000262
  0
LINE
  5
1DC
  8
FAB_3$PI_PROJECTOR$PANEL-P
 10
-756.423629080064
 20
-1534.836440516545
 30
0.0000000000000262
 11
-756.4930936235021
 21
-1534.888780151648
 31
0.0000000000000261
  0
LINE
  5
1DD
  8
FAB_3$PI_PROJECTOR$PANEL-P
 10
-756.4930936235021
 20
-1534.888780151648
 30
0.0000000000000261
 11
-756.5624137951876
 21
-1534.942988723357
 31
0.0000000000000261
  0
LINE
  5
1DE
  8
FAB_3$PI_PROJECTOR$PANEL-P
 10
-756.5624137951876
 20
-1534.942988723357
 30
0.0000000000000261
 11
-756.7005493910959
 21
-1535.057018099282
 31
0.0000000000000261
  0
LINE
  5
1DF
  8
FAB_3$PI_PROJECTOR$PANEL-P
 10
-756.7005493910959
 20
-1535.057018099282
 30
0.0000000000000261
 11
-756.8378916210282
 21
-1535.178530521653
 31
0.0000000000000261
  0
LINE
  5
1E0
  8
FAB_3$PI_PROJECTOR$PANEL-P
 10
-756.8378916210282
 20
-1535.178530521653
 30
0.0000000000000261
 11
-756.9742949690643
 21
-1535.307513273255
 31
0.000000000000026
  0
LINE
  5
1E1
  8
FAB_3$PI_PROJECTOR$PANEL-P
 10
-756.9742949690643
 20
-1535.307513273255
 30
0.000000000000026
 11
-757.1096130961585
 21
-1535.443938737709
 31
0.000000000000026
  0
LINE
  5
1E2
  8
FAB_3$PI_PROJECTOR$PANEL-P
 10
-757.1096130961585
 20
-1535.443938737709
 30
0.000000000000026
 11
-757.2436993025328
 21
-1535.587764159868
 31
0.000000000000026
  0
LINE
  5
1E3
  8
FAB_3$PI_PROJECTOR$PANEL-P
 10
-757.2436993025328
 20
-1535.587764159868
 30
0.000000000000026
 11
-757.376407003741
 21
-1535.738931474885
 31
0.0000000000000259
  0
LINE
  5
1E4
  8
FAB_3$PI_PROJECTOR$PANEL-P
 10
-757.376407003741
 20
-1535.738931474885
 30
0.0000000000000259
 11
-757.5075902174939
 21
-1535.897367209145
 31
0.0000000000000259
  0
LINE
  5
1E5
  8
FAB_3$PI_PROJECTOR$PANEL-P
 10
-757.5075902174939
 20
-1535.897367209145
 30
0.0000000000000259
 11
-757.6371040581407
 21
-1536.062982455649
 31
0.0000000000000259
  0
LINE
  5
1E6
  8
FAB_3$PI_PROJECTOR$PANEL-P
 10
-757.6371040581407
 20
-1536.062982455649
 30
0.0000000000000259
 11
-757.764805235547
 21
-1536.235672925868
 31
0.0000000000000258
  0
LINE
  5
1E7
  8
FAB_3$PI_PROJECTOR$PANEL-P
 10
-757.764805235547
 20
-1536.235672925868
 30
0.0000000000000258
 11
-757.8905525549709
 21
-1536.415319079366
 31
0.0000000000000258
  0
LINE
  5
1E8
  8
FAB_3$PI_PROJECTOR$PANEL-P
 10
-757.8905525549709
 20
-1536.415319079366
 30
0.0000000000000258
 11
-758.0142074144608
 21
-1536.601786331855
 31
0.0000000000000257
  0
LINE
  5
1E9
  8
FAB_3$PI_PROJECTOR$PANEL-P
 10
-758.0142074144608
 20
-1536.601786331855
 30
0.0000000000000257
 11
-758.1356342962342
 21
-1536.794925341584
 31
0.0000000000000257
  0
LINE
  5
1EA
  8
FAB_3$PI_PROJECTOR$PANEL-P
 10
-758.1356342962342
 20
-1536.794925341584
 30
0.0000000000000257
 11
-758.2547012484982
 21
-1536.994572373241
 31
0.0000000000000257
  0
LINE
  5
1EB
  8
FAB_3$PI_PROJECTOR$PANEL-P
 10
-758.2547012484982
 20
-1536.994572373241
 30
0.0000000000000257
 11
-758.3712803541969
 21
-1537.200549737817
 31
0.0000000000000256
  0
LINE
  5
1EC
  8
FAB_3$PI_PROJECTOR$PANEL-P
 10
-758.3712803541969
 20
-1537.200549737817
 30
0.0000000000000256
 11
-758.4852481832502
 21
-1537.412666306135
 31
0.0000000000000256
  0
LINE
  5
1ED
  8
FAB_3$PI_PROJECTOR$PANEL-P
 10
-758.4852481832502
 20
-1537.412666306135
 30
0.0000000000000256
 11
-758.5964862249682
 21
-1537.630718093029
 31
0.0000000000000255
  0
LINE
  5
1EE
  8
FAB_3$PI_PROJECTOR$PANEL-P
 10
-758.5964862249682
 20
-1537.630718093029
 30
0.0000000000000255
 11
-758.7048812974782
 21
-1537.854488908488
 31
0.0000000000000255
  0
LINE
  5
1EF
  8
FAB_3$PI_PROJECTOR$PANEL-P
 10
-758.7048812974782
 20
-1537.854488908488
 30
0.0000000000000255
 11
-758.8103259312091
 21
-1538.083751071409
 31
0.0000000000000254
  0
LINE
  5
1F0
  8
FAB_3$PI_PROJECTOR$PANEL-P
 10
-758.8103259312091
 20
-1538.083751071409
 30
0.0000000000000254
 11
-758.9127187237044
 21
-1538.318266181031
 31
0.0000000000000254
  0
LINE
  5
1F1
  8
FAB_3$PI_PROJECTOR$PANEL-P
 10
-758.9127187237044
 20
-1538.318266181031
 30
0.0000000000000254
 11
-759.0119646633094
 21
-1538.557785940556
 31
0.0000000000000253
  0
LINE
  5
1F2
  8
FAB_3$PI_PROJECTOR$PANEL-P
 10
-759.0119646633094
 20
-1538.557785940556
 30
0.0000000000000253
 11
-759.1079754195719
 21
-1538.802053027007
 31
0.0000000000000252
  0
LINE
  5
1F3
  8
FAB_3$PI_PROJECTOR$PANEL-P
 10
-759.1079754195719
 20
-1538.802053027007
 30
0.0000000000000252
 11
-759.2006695985202
 21
-1539.050802000975
 31
0.0000000000000252
  0
LINE
  5
1F4
  8
FAB_3$PI_PROJECTOR$PANEL-P
 10
-759.2006695985202
 20
-1539.050802000975
 30
0.0000000000000252
 11
-759.3758186051841
 21
-1539.560648955638
 31
0.0000000000000251
  0
LINE
  5
1F5
  8
FAB_3$PI_PROJECTOR$PANEL-P
 10
-759.3758186051841
 20
-1539.560648955638
 30
0.0000000000000251
 11
-759.5369066203633
 21
-1540.085077393518
 31
0.0000000000000249
  0
LINE
  5
1F6
  8
FAB_3$PI_PROJECTOR$PANEL-P
 10
-759.5369066203633
 20
-1540.085077393518
 30
0.0000000000000249
 11
-759.6835495788639
 21
-1540.621770500816
 31
0.0000000000000248
  0
LINE
  5
1F7
  8
FAB_3$PI_PROJECTOR$PANEL-P
 10
-759.6835495788639
 20
-1540.621770500816
 30
0.0000000000000248
 11
-759.8154858644326
 21
-1541.168376096607
 31
0.0000000000000247
  0
LINE
  5
1F8
  8
FAB_3$PI_PROJECTOR$PANEL-P
 10
-759.8154858644326
 20
-1541.168376096607
 30
0.0000000000000247
 11
-759.9325753442735
 21
-1541.722538115081
 31
0.0000000000000246
  0
LINE
  5
1F9
  8
FAB_3$PI_PROJECTOR$PANEL-P
 10
-759.9325753442735
 20
-1541.722538115081
 30
0.0000000000000246
 11
-760.0347961309556
 21
-1542.281926720933
 31
0.0000000000000244
  0
LINE
  5
1FA
  8
FAB_3$PI_PROJECTOR$PANEL-P
 10
-760.0347961309556
 20
-1542.281926720933
 30
0.0000000000000244
 11
-760.1222392870345
 21
-1542.84426634156
 31
0.0000000000000243
  0
LINE
  5
1FB
  8
FAB_3$PI_PROJECTOR$PANEL-P
 10
-760.1222392870345
 20
-1542.84426634156
 30
0.0000000000000243
 11
-760.1951017441756
 21
-1543.407361021769
 31
0.0000000000000242
  0
LINE
  5
1FC
  8
FAB_3$PI_PROJECTOR$PANEL-P
 10
-760.1951017441756
 20
-1543.407361021769
 30
0.0000000000000242
 11
-760.2536777484255
 21
-1543.969116644892
 31
0.0000000000000241
  0
LINE
  5
1FD
  8
FAB_3$PI_PROJECTOR$PANEL-P
 10
-760.2536777484255
 20
-1543.969116644892
 30
0.0000000000000241
 11
-760.2983491659423
 21
-1544.527559709329
 31
0.0000000000000239
  0
LINE
  5
1FE
  8
FAB_3$PI_PROJECTOR$PANEL-P
 10
-760.2983491659423
 20
-1544.527559709329
 30
0.0000000000000239
 11
-760.3295749896168
 21
-1545.080852493309
 31
0.0000000000000238
  0
LINE
  5
1FF
  8
FAB_3$PI_PROJECTOR$PANEL-P
 10
-760.3295749896168
 20
-1545.080852493309
 30
0.0000000000000238
 11
-760.3478803781802
 21
-1545.627304575606
 31
0.0000000000000237
  0
LINE
  5
200
  8
FAB_3$PI_PROJECTOR$PANEL-P
 10
-760.3478803781802
 20
-1545.627304575606
 30
0.0000000000000237
 11
-760.3538455379528
 21
-1546.165380800207
 31
0.0000000000000235
  0
LINE
  5
201
  8
FAB_3$PI_PROJECTOR$PANEL-P
 10
-760.3538455379528
 20
-1546.165380800207
 30
0.0000000000000235
 11
-760.3478803781933
 21
-1546.703457024807
 31
0.0000000000000234
  0
LINE
  5
202
  8
FAB_3$PI_PROJECTOR$PANEL-P
 10
-760.3478803781933
 20
-1546.703457024807
 30
0.0000000000000234
 11
-760.3295749896432
 21
-1547.249909107103
 31
0.0000000000000233
  0
LINE
  5
203
  8
FAB_3$PI_PROJECTOR$PANEL-P
 10
-760.3295749896432
 20
-1547.249909107103
 30
0.0000000000000233
 11
-760.2983491659821
 21
-1547.803201891081
 31
0.0000000000000232
  0
LINE
  5
204
  8
FAB_3$PI_PROJECTOR$PANEL-P
 10
-760.2983491659821
 20
-1547.803201891081
 30
0.0000000000000232
 11
-760.2536777484789
 21
-1548.361644955515
 31
0.000000000000023
  0
LINE
  5
205
  8
FAB_3$PI_PROJECTOR$PANEL-P
 10
-760.2536777484789
 20
-1548.361644955515
 30
0.000000000000023
 11
-760.195101744243
 21
-1548.923400578637
 31
0.0000000000000229
  0
LINE
  5
206
  8
FAB_3$PI_PROJECTOR$PANEL-P
 10
-760.195101744243
 20
-1548.923400578637
 30
0.0000000000000229
 11
-760.1222392871155
 21
-1549.486495258841
 31
0.0000000000000228
  0
LINE
  5
207
  8
FAB_3$PI_PROJECTOR$PANEL-P
 10
-760.1222392871155
 20
-1549.486495258841
 30
0.0000000000000228
 11
-760.03479613105
 21
-1550.048834879463
 31
0.0000000000000227
  0
LINE
  5
208
  8
FAB_3$PI_PROJECTOR$PANEL-P
 10
-760.03479613105
 20
-1550.048834879463
 30
0.0000000000000227
 11
-759.9325753443816
 21
-1550.608223485311
 31
0.0000000000000225
  0
LINE
  5
209
  8
FAB_3$PI_PROJECTOR$PANEL-P
 10
-759.9325753443816
 20
-1550.608223485311
 30
0.0000000000000225
 11
-759.8154858645544
 21
-1551.162385503779
 31
0.0000000000000224
  0
LINE
  5
20A
  8
FAB_3$PI_PROJECTOR$PANEL-P
 10
-759.8154858645544
 20
-1551.162385503779
 30
0.0000000000000224
 11
-759.683549578999
 21
-1551.708991099562
 31
0.0000000000000223
  0
LINE
  5
20B
  8
FAB_3$PI_PROJECTOR$PANEL-P
 10
-759.683549578999
 20
-1551.708991099562
 30
0.0000000000000223
 11
-759.5369066205116
 21
-1552.245684206852
 31
0.0000000000000221
  0
LINE
  5
20C
  8
FAB_3$PI_PROJECTOR$PANEL-P
 10
-759.5369066205116
 20
-1552.245684206852
 30
0.0000000000000221
 11
-759.3758186053452
 21
-1552.770112644723
 31
0.000000000000022
  0
LINE
  5
20D
  8
FAB_3$PI_PROJECTOR$PANEL-P
 10
-759.3758186053452
 20
-1552.770112644723
 30
0.000000000000022
 11
-759.2006695986935
 21
-1553.279959599378
 31
0.0000000000000219
  0
LINE
  5
20E
  8
FAB_3$PI_PROJECTOR$PANEL-P
 10
-759.2006695986935
 20
-1553.279959599378
 30
0.0000000000000219
 11
-759.1079754197511
 21
-1553.528708573341
 31
0.0000000000000219
  0
LINE
  5
20F
  8
FAB_3$PI_PROJECTOR$PANEL-P
 10
-759.1079754197511
 20
-1553.528708573341
 30
0.0000000000000219
 11
-759.0119646634947
 21
-1553.772975659788
 31
0.0000000000000218
  0
LINE
  5
210
  8
FAB_3$PI_PROJECTOR$PANEL-P
 10
-759.0119646634947
 20
-1553.772975659788
 30
0.0000000000000218
 11
-758.9127187238955
 21
-1554.012495419308
 31
0.0000000000000217
  0
LINE
  5
211
  8
FAB_3$PI_PROJECTOR$PANEL-P
 10
-758.9127187238955
 20
-1554.012495419308
 30
0.0000000000000217
 11
-758.8103259314059
 21
-1554.247010528924
 31
0.0000000000000217
  0
LINE
  5
212
  8
FAB_3$PI_PROJECTOR$PANEL-P
 10
-758.8103259314059
 20
-1554.247010528924
 30
0.0000000000000217
 11
-758.7048812976807
 21
-1554.476272691839
 31
0.0000000000000216
  0
LINE
  5
213
  8
FAB_3$PI_PROJECTOR$PANEL-P
 10
-758.7048812976807
 20
-1554.476272691839
 30
0.0000000000000216
 11
-758.5964862251761
 21
-1554.700043507292
 31
0.0000000000000216
  0
LINE
  5
214
  8
FAB_3$PI_PROJECTOR$PANEL-P
 10
-758.5964862251761
 20
-1554.700043507292
 30
0.0000000000000216
 11
-758.4852481834636
 21
-1554.91809529418
 31
0.0000000000000215
  0
LINE
  5
215
  8
FAB_3$PI_PROJECTOR$PANEL-P
 10
-758.4852481834636
 20
-1554.91809529418
 30
0.0000000000000215
 11
-758.3712803544153
 21
-1555.130211862492
 31
0.0000000000000215
  0
LINE
  5
216
  8
FAB_3$PI_PROJECTOR$PANEL-P
 10
-758.3712803544153
 20
-1555.130211862492
 30
0.0000000000000215
 11
-758.2547012487216
 21
-1555.336189227063
 31
0.0000000000000214
  0
LINE
  5
217
  8
FAB_3$PI_PROJECTOR$PANEL-P
 10
-758.2547012487216
 20
-1555.336189227063
 30
0.0000000000000214
 11
-758.1356342964624
 21
-1555.535836258713
 31
0.0000000000000214
  0
LINE
  5
218
  8
FAB_3$PI_PROJECTOR$PANEL-P
 10
-758.1356342964624
 20
-1555.535836258713
 30
0.0000000000000214
 11
-758.0142074146937
 21
-1555.728975268436
 31
0.0000000000000213
  0
LINE
  5
219
  8
FAB_3$PI_PROJECTOR$PANEL-P
 10
-758.0142074146937
 20
-1555.728975268436
 30
0.0000000000000213
 11
-757.8905525552084
 21
-1555.915442520919
 31
0.0000000000000213
  0
LINE
  5
21A
  8
FAB_3$PI_PROJECTOR$PANEL-P
 10
-757.8905525552084
 20
-1555.915442520919
 30
0.0000000000000213
 11
-757.7648052357887
 21
-1556.09508867441
 31
0.0000000000000213
  0
LINE
  5
21B
  8
FAB_3$PI_PROJECTOR$PANEL-P
 10
-757.7648052357887
 20
-1556.09508867441
 30
0.0000000000000213
 11
-757.6371040583867
 21
-1556.267779144622
 31
0.0000000000000212
  0
LINE
  5
21C
  8
FAB_3$PI_PROJECTOR$PANEL-P
 10
-757.6371040583867
 20
-1556.267779144622
 30
0.0000000000000212
 11
-757.5075902177439
 21
-1556.43339439112
 31
0.0000000000000212
  0
LINE
  5
21D
  8
FAB_3$PI_PROJECTOR$PANEL-P
 10
-757.5075902177439
 20
-1556.43339439112
 30
0.0000000000000212
 11
-757.3764070039948
 21
-1556.591830125372
 31
0.0000000000000211
  0
LINE
  5
21E
  8
FAB_3$PI_PROJECTOR$PANEL-P
 10
-757.3764070039948
 20
-1556.591830125372
 30
0.0000000000000211
 11
-757.2436993027903
 21
-1556.742997440384
 31
0.0000000000000211
  0
LINE
  5
21F
  8
FAB_3$PI_PROJECTOR$PANEL-P
 10
-757.2436993027903
 20
-1556.742997440384
 30
0.0000000000000211
 11
-757.1096130964195
 21
-1556.886822862535
 31
0.0000000000000211
  0
LINE
  5
220
  8
FAB_3$PI_PROJECTOR$PANEL-P
 10
-757.1096130964195
 20
-1556.886822862535
 30
0.0000000000000211
 11
-756.9742949693288
 21
-1557.023248326983
 31
0.000000000000021
  0
LINE
  5
221
  8
FAB_3$PI_PROJECTOR$PANEL-P
 10
-756.9742949693288
 20
-1557.023248326983
 30
0.000000000000021
 11
-756.8378916212957
 21
-1557.152231078577
 31
0.000000000000021
  0
LINE
  5
222
  8
FAB_3$PI_PROJECTOR$PANEL-P
 10
-756.8378916212957
 20
-1557.152231078577
 30
0.000000000000021
 11
-756.7005493913665
 21
-1557.273743500941
 31
0.000000000000021
  0
LINE
  5
223
  8
FAB_3$PI_PROJECTOR$PANEL-P
 10
-756.7005493913665
 20
-1557.273743500941
 30
0.000000000000021
 11
-756.5624137954609
 21
-1557.387772876859
 31
0.000000000000021
  0
LINE
  5
224
  8
FAB_3$PI_PROJECTOR$PANEL-P
 10
-756.5624137954609
 20
-1557.387772876859
 30
0.000000000000021
 11
-756.4930936237766
 21
-1557.441981448564
 31
0.000000000000021
  0
LINE
  5
225
  8
FAB_3$PI_PROJECTOR$PANEL-P
 10
-756.4930936237766
 20
-1557.441981448564
 30
0.000000000000021
 11
-756.42362908034
 21
-1557.494321083664
 31
0.0000000000000209
  0
LINE
  5
226
  8
FAB_3$PI_PROJECTOR$PANEL-P
 10
-756.42362908034
 20
-1557.494321083664
 30
0.0000000000000209
 11
-756.3540379275925
 21
-1557.544794237249
 31
0.0000000000000209
  0
LINE
  5
227
  8
FAB_3$PI_PROJECTOR$PANEL-P
 10
-756.3540379275925
 20
-1557.544794237249
 30
0.0000000000000209
 11
-756.2843377963837
 21
-1557.593404227764
 31
0.0000000000000209
  0
LINE
  5
228
  8
FAB_3$PI_PROJECTOR$PANEL-P
 10
-756.2843377963837
 20
-1557.593404227764
 30
0.0000000000000209
 11
-756.214546173801
 21
-1557.640155222583
 31
0.0000000000000209
  0
LINE
  5
229
  8
FAB_3$PI_PROJECTOR$PANEL-P
 10
-756.214546173801
 20
-1557.640155222583
 30
0.0000000000000209
 11
-756.1446803913693
 21
-1557.685052222807
 31
0.0000000000000209
  0
LINE
  5
22A
  8
FAB_3$PI_PROJECTOR$PANEL-P
 10
-756.1446803913693
 20
-1557.685052222807
 30
0.0000000000000209
 11
-756.0747576136392
 21
-1557.728101047346
 31
0.0000000000000209
  0
LINE
  5
22B
  8
FAB_3$PI_PROJECTOR$PANEL-P
 10
-756.0747576136392
 20
-1557.728101047346
 30
0.0000000000000209
 11
-756.0047948271664
 21
-1557.769308316309
 31
0.0000000000000209
  0
LINE
  5
22C
  8
FAB_3$PI_PROJECTOR$PANEL-P
 10
-756.0047948271664
 20
-1557.769308316309
 30
0.0000000000000209
 11
-755.9348088299008
 21
-1557.808681433756
 31
0.0000000000000209
  0
LINE
  5
22D
  8
FAB_3$PI_PROJECTOR$PANEL-P
 10
-755.9348088299008
 20
-1557.808681433756
 30
0.0000000000000209
 11
-755.8648162209863
 21
-1557.846228569838
 31
0.0000000000000209
  0
LINE
  5
22E
  8
FAB_3$PI_PROJECTOR$PANEL-P
 10
-755.8648162209863
 20
-1557.846228569838
 30
0.0000000000000209
 11
-755.7948333909861
 21
-1557.881958642384
 31
0.0000000000000209
  0
LINE
  5
22F
  8
FAB_3$PI_PROJECTOR$PANEL-P
 10
-755.7948333909861
 20
-1557.881958642384
 30
0.0000000000000209
 11
-755.7248765125346
 21
-1557.915881297969
 31
0.0000000000000208
  0
LINE
  5
230
  8
FAB_3$PI_PROJECTOR$PANEL-P
 10
-755.7248765125346
 20
-1557.915881297969
 30
0.0000000000000208
 11
-755.6549615314241
 21
-1557.948006892509
 31
0.0000000000000208
  0
LINE
  5
231
  8
FAB_3$PI_PROJECTOR$PANEL-P
 10
-755.6549615314241
 20
-1557.948006892509
 30
0.0000000000000208
 11
-755.5851041581303
 21
-1557.97834647141
 31
0.0000000000000208
  0
LINE
  5
232
  8
FAB_3$PI_PROJECTOR$PANEL-P
 10
-755.5851041581303
 20
-1557.97834647141
 30
0.0000000000000208
 11
-755.5153198597817
 21
-1558.006911749342
 31
0.0000000000000208
  0
LINE
  5
233
  8
FAB_3$PI_PROJECTOR$PANEL-P
 10
-755.5153198597817
 20
-1558.006911749342
 30
0.0000000000000208
 11
-755.4456238525703
 21
-1558.033715089653
 31
0.0000000000000208
  0
LINE
  5
234
  8
FAB_3$PI_PROJECTOR$PANEL-P
 10
-755.4456238525703
 20
-1558.033715089653
 30
0.0000000000000208
 11
-755.3760310946113
 21
-1558.058769483479
 31
0.0000000000000208
  0
LINE
  5
235
  8
FAB_3$PI_PROJECTOR$PANEL-P
 10
-755.3760310946113
 20
-1558.058769483479
 30
0.0000000000000208
 11
-755.3065562792476
 21
-1558.082088528584
 31
0.0000000000000208
  0
LINE
  5
236
  8
FAB_3$PI_PROJECTOR$PANEL-P
 10
-755.3065562792476
 20
-1558.082088528584
 30
0.0000000000000208
 11
-755.2372138287996
 21
-1558.103686407975
 31
0.0000000000000208
  0
LINE
  5
237
  8
FAB_3$PI_PROJECTOR$PANEL-P
 10
-755.2372138287996
 20
-1558.103686407975
 30
0.0000000000000208
 11
-755.1680178887605
 21
-1558.123577868329
 31
0.0000000000000208
  0
LINE
  5
238
  8
FAB_3$PI_PROJECTOR$PANEL-P
 10
-755.1680178887605
 20
-1558.123577868329
 30
0.0000000000000208
 11
-755.0989823224324
 21
-1558.14177819827
 31
0.0000000000000208
  0
LINE
  5
239
  8
FAB_3$PI_PROJECTOR$PANEL-P
 10
-755.0989823224324
 20
-1558.14177819827
 30
0.0000000000000208
 11
-755.0301207060021
 21
-1558.15830320654
 31
0.0000000000000208
  0
LINE
  5
23A
  8
FAB_3$PI_PROJECTOR$PANEL-P
 10
-755.0301207060021
 20
-1558.15830320654
 30
0.0000000000000208
 11
-754.961446324049
 21
-1558.173169200089
 31
0.0000000000000208
  0
LINE
  5
23B
  8
FAB_3$PI_PROJECTOR$PANEL-P
 10
-754.961446324049
 20
-1558.173169200089
 30
0.0000000000000208
 11
-754.8929721654854
 21
-1558.18639296213
 31
0.0000000000000208
  0
LINE
  5
23C
  8
FAB_3$PI_PROJECTOR$PANEL-P
 10
-754.8929721654854
 20
-1558.18639296213
 30
0.0000000000000208
 11
-754.8247109199195
 21
-1558.1979917302
 31
0.0000000000000208
  0
LINE
  5
23D
  8
FAB_3$PI_PROJECTOR$PANEL-P
 10
-754.8247109199195
 20
-1558.1979917302
 30
0.0000000000000208
 11
-754.756674974436
 21
-1558.207983174238
 31
0.0000000000000208
  0
LINE
  5
23E
  8
FAB_3$PI_PROJECTOR$PANEL-P
 10
-754.756674974436
 20
-1558.207983174238
 30
0.0000000000000208
 11
-754.6888764107875
 21
-1558.216385374738
 31
0.0000000000000208
  0
LINE
  5
23F
  8
FAB_3$PI_PROJECTOR$PANEL-P
 10
-754.6888764107875
 20
-1558.216385374738
 30
0.0000000000000208
 11
-754.6213270029916
 21
-1558.223216800995
 31
0.0000000000000208
  0
LINE
  5
240
  8
FAB_3$PI_PROJECTOR$PANEL-P
 10
-754.6213270029916
 20
-1558.223216800995
 30
0.0000000000000208
 11
-754.5540382153184
 21
-1558.22849628947
 31
0.0000000000000208
  0
LINE
  5
241
  8
FAB_3$PI_PROJECTOR$PANEL-P
 10
-754.5540382153184
 20
-1558.22849628947
 30
0.0000000000000208
 11
-754.4870212006695
 21
-1558.232243022324
 31
0.0000000000000208
  0
LINE
  5
242
  8
FAB_3$PI_PROJECTOR$PANEL-P
 10
-754.4870212006695
 20
-1558.232243022324
 30
0.0000000000000208
 11
-754.4202867993316
 21
-1558.234476506123
 31
0.0000000000000208
  0
LINE
  5
243
  8
FAB_3$PI_PROJECTOR$PANEL-P
 10
-754.4202867993316
 20
-1558.234476506123
 30
0.0000000000000208
 11
-754.3538455380998
 21
-1558.235216550755
 31
0.0000000000000208
  0
LINE
  5
244
  8
FAB_3$PI_PROJECTOR$PANEL-P
 10
-754.3538455380998
 20
-1558.235216550755
 30
0.0000000000000208
 11
-754.2874042768677
 21
-1558.234476506119
 31
0.0000000000000208
  0
LINE
  5
245
  8
FAB_3$PI_PROJECTOR$PANEL-P
 10
-754.2874042768677
 20
-1558.234476506119
 30
0.0000000000000208
 11
-754.2206698755301
 21
-1558.232243022318
 31
0.0000000000000208
  0
LINE
  5
246
  8
FAB_3$PI_PROJECTOR$PANEL-P
 10
-754.2206698755301
 20
-1558.232243022318
 30
0.0000000000000208
 11
-754.1536528608812
 21
-1558.22849628946
 31
0.0000000000000208
  0
LINE
  5
247
  8
FAB_3$PI_PROJECTOR$PANEL-P
 10
-754.1536528608812
 20
-1558.22849628946
 30
0.0000000000000208
 11
-754.0863640732076
 21
-1558.223216800981
 31
0.0000000000000208
  0
LINE
  5
248
  8
FAB_3$PI_PROJECTOR$PANEL-P
 10
-754.0863640732076
 20
-1558.223216800981
 30
0.0000000000000208
 11
-754.0188146654114
 21
-1558.216385374721
 31
0.0000000000000208
  0
LINE
  5
249
  8
FAB_3$PI_PROJECTOR$PANEL-P
 10
-754.0188146654114
 20
-1558.216385374721
 30
0.0000000000000208
 11
-753.9510161017631
 21
-1558.207983174218
 31
0.0000000000000208
  0
LINE
  5
24A
  8
FAB_3$PI_PROJECTOR$PANEL-P
 10
-753.9510161017631
 20
-1558.207983174218
 30
0.0000000000000208
 11
-753.8829801562791
 21
-1558.197991730176
 31
0.0000000000000208
  0
LINE
  5
24B
  8
FAB_3$PI_PROJECTOR$PANEL-P
 10
-753.8829801562791
 20
-1558.197991730176
 30
0.0000000000000208
 11
-753.8147189107129
 21
-1558.186392962102
 31
0.0000000000000208
  0
LINE
  5
24C
  8
FAB_3$PI_PROJECTOR$PANEL-P
 10
-753.8147189107129
 20
-1558.186392962102
 30
0.0000000000000208
 11
-753.7462447521492
 21
-1558.173169200057
 31
0.0000000000000208
  0
LINE
  5
24D
  8
FAB_3$PI_PROJECTOR$PANEL-P
 10
-753.7462447521492
 20
-1558.173169200057
 30
0.0000000000000208
 11
-753.6775703701957
 21
-1558.158303206506
 31
0.0000000000000208
  0
LINE
  5
24E
  8
FAB_3$PI_PROJECTOR$PANEL-P
 10
-753.6775703701957
 20
-1558.158303206506
 30
0.0000000000000208
 11
-753.6087087537649
 21
-1558.141778198232
 31
0.0000000000000208
  0
LINE
  5
24F
  8
FAB_3$PI_PROJECTOR$PANEL-P
 10
-753.6087087537649
 20
-1558.141778198232
 30
0.0000000000000208
 11
-753.5396731874366
 21
-1558.123577868287
 31
0.0000000000000208
  0
LINE
  5
250
  8
FAB_3$PI_PROJECTOR$PANEL-P
 10
-753.5396731874366
 20
-1558.123577868287
 30
0.0000000000000208
 11
-753.470477247397
 21
-1558.103686407929
 31
0.0000000000000208
  0
LINE
  5
251
  8
FAB_3$PI_PROJECTOR$PANEL-P
 10
-753.470477247397
 20
-1558.103686407929
 30
0.0000000000000208
 11
-753.4011347969483
 21
-1558.082088528534
 31
0.0000000000000208
  0
LINE
  5
252
  8
FAB_3$PI_PROJECTOR$PANEL-P
 10
-753.4011347969483
 20
-1558.082088528534
 30
0.0000000000000208
 11
-753.331659981584
 21
-1558.058769483426
 31
0.0000000000000208
  0
LINE
  5
253
  8
FAB_3$PI_PROJECTOR$PANEL-P
 10
-753.331659981584
 20
-1558.058769483426
 30
0.0000000000000208
 11
-753.2620672236246
 21
-1558.033715089597
 31
0.0000000000000208
  0
LINE
  5
254
  8
FAB_3$PI_PROJECTOR$PANEL-P
 10
-753.2620672236246
 20
-1558.033715089597
 30
0.0000000000000208
 11
-753.1923712164127
 21
-1558.006911749282
 31
0.0000000000000208
  0
LINE
  5
255
  8
FAB_3$PI_PROJECTOR$PANEL-P
 10
-753.1923712164127
 20
-1558.006911749282
 30
0.0000000000000208
 11
-753.1225869180632
 21
-1557.978346471346
 31
0.0000000000000208
  0
LINE
  5
256
  8
FAB_3$PI_PROJECTOR$PANEL-P
 10
-753.1225869180632
 20
-1557.978346471346
 30
0.0000000000000208
 11
-753.0527295447689
 21
-1557.948006892442
 31
0.0000000000000208
  0
LINE
  5
257
  8
FAB_3$PI_PROJECTOR$PANEL-P
 10
-753.0527295447689
 20
-1557.948006892442
 30
0.0000000000000208
 11
-752.9828145636575
 21
-1557.915881297899
 31
0.0000000000000208
  0
LINE
  5
258
  8
FAB_3$PI_PROJECTOR$PANEL-P
 10
-752.9828145636575
 20
-1557.915881297899
 30
0.0000000000000208
 11
-752.9128576852052
 21
-1557.881958642309
 31
0.0000000000000209
  0
LINE
  5
259
  8
FAB_3$PI_PROJECTOR$PANEL-P
 10
-752.9128576852052
 20
-1557.881958642309
 30
0.0000000000000209
 11
-752.8428748552043
 21
-1557.846228569759
 31
0.0000000000000209
  0
LINE
  5
25A
  8
FAB_3$PI_PROJECTOR$PANEL-P
 10
-752.8428748552043
 20
-1557.846228569759
 30
0.0000000000000209
 11
-752.7728822462889
 21
-1557.808681433675
 31
0.0000000000000209
  0
LINE
  5
25B
  8
FAB_3$PI_PROJECTOR$PANEL-P
 10
-752.7728822462889
 20
-1557.808681433675
 30
0.0000000000000209
 11
-752.702896249022
 21
-1557.769308316224
 31
0.0000000000000209
  0
LINE
  5
25C
  8
FAB_3$PI_PROJECTOR$PANEL-P
 10
-752.702896249022
 20
-1557.769308316224
 30
0.0000000000000209
 11
-752.6329334625484
 21
-1557.728101047257
 31
0.0000000000000209
  0
LINE
  5
25D
  8
FAB_3$PI_PROJECTOR$PANEL-P
 10
-752.6329334625484
 20
-1557.728101047257
 30
0.0000000000000209
 11
-752.563010684817
 21
-1557.685052222714
 31
0.0000000000000209
  0
LINE
  5
25E
  8
FAB_3$PI_PROJECTOR$PANEL-P
 10
-752.563010684817
 20
-1557.685052222714
 30
0.0000000000000209
 11
-752.4931449023843
 21
-1557.640155222487
 31
0.0000000000000209
  0
LINE
  5
25F
  8
FAB_3$PI_PROJECTOR$PANEL-P
 10
-752.4931449023843
 20
-1557.640155222487
 30
0.0000000000000209
 11
-752.4233532798004
 21
-1557.593404227664
 31
0.0000000000000209
  0
LINE
  5
260
  8
FAB_3$PI_PROJECTOR$PANEL-P
 10
-752.4233532798004
 20
-1557.593404227664
 30
0.0000000000000209
 11
-752.3536531485909
 21
-1557.544794237145
 31
0.0000000000000209
  0
LINE
  5
261
  8
FAB_3$PI_PROJECTOR$PANEL-P
 10
-752.3536531485909
 20
-1557.544794237145
 30
0.0000000000000209
 11
-752.284061995842
 21
-1557.494321083556
 31
0.0000000000000209
  0
LINE
  5
262
  8
FAB_3$PI_PROJECTOR$PANEL-P
 10
-752.284061995842
 20
-1557.494321083556
 30
0.0000000000000209
 11
-752.2145974524038
 21
-1557.441981448452
 31
0.000000000000021
  0
LINE
  5
263
  8
FAB_3$PI_PROJECTOR$PANEL-P
 10
-752.2145974524038
 20
-1557.441981448452
 30
0.000000000000021
 11
-752.1452772807185
 21
-1557.387772876744
 31
0.000000000000021
  0
LINE
  5
264
  8
FAB_3$PI_PROJECTOR$PANEL-P
 10
-752.1452772807185
 20
-1557.387772876744
 30
0.000000000000021
 11
-752.0071416848099
 21
-1557.273743500819
 31
0.000000000000021
  0
LINE
  5
265
  8
FAB_3$PI_PROJECTOR$PANEL-P
 10
-752.0071416848099
 20
-1557.273743500819
 30
0.000000000000021
 11
-751.8697994548778
 21
-1557.152231078448
 31
0.000000000000021
  0
LINE
  5
266
  8
FAB_3$PI_PROJECTOR$PANEL-P
 10
-751.8697994548778
 20
-1557.152231078448
 30
0.000000000000021
 11
-751.7333961068417
 21
-1557.023248326846
 31
0.000000000000021
  0
LINE
  5
267
  8
FAB_3$PI_PROJECTOR$PANEL-P
 10
-751.7333961068417
 20
-1557.023248326846
 30
0.000000000000021
 11
-751.5980779797476
 21
-1556.886822862392
 31
0.0000000000000211
  0
LINE
  5
268
  8
FAB_3$PI_PROJECTOR$PANEL-P
 10
-751.5980779797476
 20
-1556.886822862392
 30
0.0000000000000211
 11
-751.4639917733734
 21
-1556.742997440234
 31
0.0000000000000211
  0
LINE
  5
269
  8
FAB_3$PI_PROJECTOR$PANEL-P
 10
-751.4639917733734
 20
-1556.742997440234
 30
0.0000000000000211
 11
-751.331284072165
 21
-1556.591830125215
 31
0.0000000000000211
  0
LINE
  5
26A
  8
FAB_3$PI_PROJECTOR$PANEL-P
 10
-751.331284072165
 20
-1556.591830125215
 30
0.0000000000000211
 11
-751.2001008584122
 21
-1556.433394390956
 31
0.0000000000000212
  0
LINE
  5
26B
  8
FAB_3$PI_PROJECTOR$PANEL-P
 10
-751.2001008584122
 20
-1556.433394390956
 30
0.0000000000000212
 11
-751.0705870177649
 21
-1556.267779144452
 31
0.0000000000000212
  0
LINE
  5
26C
  8
FAB_3$PI_PROJECTOR$PANEL-P
 10
-751.0705870177649
 20
-1556.267779144452
 30
0.0000000000000212
 11
-750.9428858403587
 21
-1556.095088674233
 31
0.0000000000000213
  0
LINE
  5
26D
  8
FAB_3$PI_PROJECTOR$PANEL-P
 10
-750.9428858403587
 20
-1556.095088674233
 30
0.0000000000000213
 11
-750.8171385209348
 21
-1555.915442520735
 31
0.0000000000000213
  0
LINE
  5
26E
  8
FAB_3$PI_PROJECTOR$PANEL-P
 10
-750.8171385209348
 20
-1555.915442520735
 30
0.0000000000000213
 11
-750.693483661445
 21
-1555.728975268246
 31
0.0000000000000213
  0
LINE
  5
26F
  8
FAB_3$PI_PROJECTOR$PANEL-P
 10
-750.693483661445
 20
-1555.728975268246
 30
0.0000000000000213
 11
-750.5720567796717
 21
-1555.535836258517
 31
0.0000000000000214
  0
LINE
  5
270
  8
FAB_3$PI_PROJECTOR$PANEL-P
 10
-750.5720567796717
 20
-1555.535836258517
 30
0.0000000000000214
 11
-750.4529898274077
 21
-1555.336189226861
 31
0.0000000000000214
  0
LINE
  5
271
  8
FAB_3$PI_PROJECTOR$PANEL-P
 10
-750.4529898274077
 20
-1555.336189226861
 30
0.0000000000000214
 11
-750.336410721709
 21
-1555.130211862284
 31
0.0000000000000215
  0
LINE
  5
272
  8
FAB_3$PI_PROJECTOR$PANEL-P
 10
-750.336410721709
 20
-1555.130211862284
 30
0.0000000000000215
 11
-750.2224428926555
 21
-1554.918095293966
 31
0.0000000000000215
  0
LINE
  5
273
  8
FAB_3$PI_PROJECTOR$PANEL-P
 10
-750.2224428926555
 20
-1554.918095293966
 30
0.0000000000000215
 11
-750.1112048509375
 21
-1554.700043507072
 31
0.0000000000000216
  0
LINE
  5
274
  8
FAB_3$PI_PROJECTOR$PANEL-P
 10
-750.1112048509375
 20
-1554.700043507072
 30
0.0000000000000216
 11
-750.0028097784277
 21
-1554.476272691614
 31
0.0000000000000216
  0
LINE
  5
275
  8
FAB_3$PI_PROJECTOR$PANEL-P
 10
-750.0028097784277
 20
-1554.476272691614
 30
0.0000000000000216
 11
-749.8973651446969
 21
-1554.247010528693
 31
0.0000000000000217
  0
LINE
  5
276
  8
FAB_3$PI_PROJECTOR$PANEL-P
 10
-749.8973651446969
 20
-1554.247010528693
 30
0.0000000000000217
 11
-749.7949723522015
 21
-1554.012495419071
 31
0.0000000000000217
  0
LINE
  5
277
  8
FAB_3$PI_PROJECTOR$PANEL-P
 10
-749.7949723522015
 20
-1554.012495419071
 30
0.0000000000000217
 11
-749.6957264125965
 21
-1553.772975659546
 31
0.0000000000000218
  0
LINE
  5
278
  8
FAB_3$PI_PROJECTOR$PANEL-P
 10
-749.6957264125965
 20
-1553.772975659546
 30
0.0000000000000218
 11
-749.5997156563338
 21
-1553.528708573094
 31
0.0000000000000219
  0
LINE
  5
279
  8
FAB_3$PI_PROJECTOR$PANEL-P
 10
-749.5997156563338
 20
-1553.528708573094
 30
0.0000000000000219
 11
-749.5070214773854
 21
-1553.279959599126
 31
0.0000000000000219
  0
LINE
  5
27A
  8
FAB_3$PI_PROJECTOR$PANEL-P
 10
-749.5070214773854
 20
-1553.279959599126
 30
0.0000000000000219
 11
-749.3318724707212
 21
-1552.770112644463
 31
0.000000000000022
  0
LINE
  5
27B
  8
FAB_3$PI_PROJECTOR$PANEL-P
 10
-749.3318724707212
 20
-1552.770112644463
 30
0.000000000000022
 11
-749.1707844555424
 21
-1552.245684206583
 31
0.0000000000000221
  0
LINE
  5
27C
  8
FAB_3$PI_PROJECTOR$PANEL-P
 10
-749.1707844555424
 20
-1552.245684206583
 30
0.0000000000000221
 11
-749.0241414970419
 21
-1551.708991099285
 31
0.0000000000000223
  0
LINE
  5
27D
  8
FAB_3$PI_PROJECTOR$PANEL-P
 10
-749.0241414970419
 20
-1551.708991099285
 30
0.0000000000000223
 11
-748.8922052114733
 21
-1551.162385503495
 31
0.0000000000000224
  0
LINE
  5
27E
  8
FAB_3$PI_PROJECTOR$PANEL-P
 10
-748.8922052114733
 20
-1551.162385503495
 30
0.0000000000000224
 11
-748.7751157316325
 21
-1550.608223485021
 31
0.0000000000000225
  0
LINE
  5
27F
  8
FAB_3$PI_PROJECTOR$PANEL-P
 10
-748.7751157316325
 20
-1550.608223485021
 30
0.0000000000000225
 11
-748.67289494495
 21
-1550.048834879168
 31
0.0000000000000227
  0
LINE
  5
280
  8
FAB_3$PI_PROJECTOR$PANEL-P
 10
-748.67289494495
 20
-1550.048834879168
 30
0.0000000000000227
 11
-748.5854517888711
 21
-1549.486495258542
 31
0.0000000000000228
  0
LINE
  5
281
  8
FAB_3$PI_PROJECTOR$PANEL-P
 10
-748.5854517888711
 20
-1549.486495258542
 30
0.0000000000000228
 11
-748.51258933173
 21
-1548.923400578333
 31
0.0000000000000229
  0
LINE
  5
282
  8
FAB_3$PI_PROJECTOR$PANEL-P
 10
-748.51258933173
 20
-1548.923400578333
 30
0.0000000000000229
 11
-748.4540133274801
 21
-1548.361644955209
 31
0.000000000000023
  0
LINE
  5
283
  8
FAB_3$PI_PROJECTOR$PANEL-P
 10
-748.4540133274801
 20
-1548.361644955209
 30
0.000000000000023
 11
-748.4093419099634
 21
-1547.803201890772
 31
0.0000000000000232
  0
LINE
  5
284
  8
FAB_3$PI_PROJECTOR$PANEL-P
 10
-748.4093419099634
 20
-1547.803201890772
 30
0.0000000000000232
 11
-748.3781160862886
 21
-1547.249909106793
 31
0.0000000000000233
  0
LINE
  5
285
  8
FAB_3$PI_PROJECTOR$PANEL-P
 10
-748.3781160862886
 20
-1547.249909106793
 30
0.0000000000000233
 11
-748.3598106977253
 21
-1546.703457024495
 31
0.0000000000000234
  0
LINE
  5
286
  8
FAB_3$PI_PROJECTOR$PANEL-P
 10
-748.3598106977253
 20
-1546.703457024495
 30
0.0000000000000234
 11
-748.3538455379528
 21
-1546.165380799895
 31
0.0000000000000235
  0
ARC
  5
287
  8
FAB_3$PI_PROJECTOR$PANEL-P
 10
-1040.298393835578
 20
-1571.525486997353
 30
0.000000000000041
 40
3.0
 50
180.0
 51
269.8223814704007
  0
LINE
  5
288
  8
FAB_3$PI_PROJECTOR$PANEL-P
 10
-1040.307693905145
 20
-1574.525472582103
 30
0.0000000000000568
 11
-1021.994031249238
 21
-1570.085024124975
 31
0.0000000000000568
  0
LINE
  5
289
  8
FAB_3$PI_PROJECTOR$PANEL-P
 10
-1021.994031249238
 20
-1570.085024124975
 30
0.0000000000000568
 11
-1003.68036861296
 21
-1566.236635462131
 31
0.0000000000000568
  0
LINE
  5
28A
  8
FAB_3$PI_PROJECTOR$PANEL-P
 10
-1003.68036861296
 20
-1566.236635462131
 30
0.0000000000000568
 11
-985.3667059963097
 21
-1562.980306593571
 31
0.0000000000000568
  0
LINE
  5
28B
  8
FAB_3$PI_PROJECTOR$PANEL-P
 10
-985.3667059963097
 20
-1562.980306593571
 30
0.0000000000000568
 11
-967.0530433992876
 21
-1560.316037519294
 31
0.0000000000000568
  0
LINE
  5
28C
  8
FAB_3$PI_PROJECTOR$PANEL-P
 10
-967.0530433992876
 20
-1560.316037519294
 30
0.0000000000000568
 11
-948.7393808218936
 21
-1558.243828239301
 31
0.0000000000000568
  0
LINE
  5
28D
  8
FAB_3$PI_PROJECTOR$PANEL-P
 10
-948.7393808218936
 20
-1558.243828239301
 30
0.0000000000000568
 11
-930.4257182641277
 21
-1556.763678753592
 31
0.0000000000000568
  0
LINE
  5
28E
  8
FAB_3$PI_PROJECTOR$PANEL-P
 10
-930.4257182641277
 20
-1556.763678753592
 30
0.0000000000000568
 11
-912.1120557259898
 21
-1555.875589062166
 31
0.0000000000000568
  0
LINE
  5
28F
  8
FAB_3$PI_PROJECTOR$PANEL-P
 10
-912.1120557259898
 20
-1555.875589062166
 30
0.0000000000000568
 11
-893.79839320748
 21
-1555.579559165024
 31
0.0000000000000568
  0
LINE
  5
290
  8
FAB_3$PI_PROJECTOR$PANEL-P
 10
-893.79839320748
 20
-1555.579559165024
 30
0.0000000000000568
 11
-875.4847307085984
 21
-1555.875589062166
 31
0.0000000000000568
  0
LINE
  5
291
  8
FAB_3$PI_PROJECTOR$PANEL-P
 10
-875.4847307085984
 20
-1555.875589062166
 30
0.0000000000000568
 11
-857.1710682293447
 21
-1556.763678753592
 31
0.0000000000000568
  0
LINE
  5
292
  8
FAB_3$PI_PROJECTOR$PANEL-P
 10
-857.1710682293447
 20
-1556.763678753592
 30
0.0000000000000568
 11
-838.8574057697192
 21
-1558.243828239301
 31
0.0000000000000568
  0
LINE
  5
293
  8
FAB_3$PI_PROJECTOR$PANEL-P
 10
-838.8574057697192
 20
-1558.243828239301
 30
0.0000000000000568
 11
-820.5437433297218
 21
-1560.316037519294
 31
0.0000000000000568
  0
LINE
  5
294
  8
FAB_3$PI_PROJECTOR$PANEL-P
 10
-820.5437433297218
 20
-1560.316037519294
 30
0.0000000000000568
 11
-802.2300809093524
 21
-1562.980306593571
 31
0.0000000000000568
  0
LINE
  5
295
  8
FAB_3$PI_PROJECTOR$PANEL-P
 10
-802.2300809093524
 20
-1562.980306593571
 30
0.0000000000000568
 11
-783.9164185086112
 21
-1566.236635462131
 31
0.0000000000000568
  0
LINE
  5
296
  8
FAB_3$PI_PROJECTOR$PANEL-P
 10
-783.9164185086112
 20
-1566.236635462131
 30
0.0000000000000568
 11
-765.602756127498
 21
-1570.085024124975
 31
0.0000000000000568
  0
LINE
  5
297
  8
FAB_3$PI_PROJECTOR$PANEL-P
 10
-765.602756127498
 20
-1570.085024124975
 30
0.0000000000000568
 11
-747.2890937660129
 21
-1574.525472582103
 31
0.0000000000000568
  0
ARC
  5
298
  8
FAB_3$PI_PROJECTOR$PANEL-P
 10
-747.2983938355792
 20
-1571.525486997353
 30
0.0000000000000545
 40
3.0
 50
270.1776185295993
 51
0.0
  0
LINE
  5
299
  8
FAB_3$PI_PROJECTOR$PANEL-P
 10
-1043.298393835578
 20
-1545.556014322039
 30
0.0000000000000323
 11
-1043.298393835578
 21
-1571.525486997353
 31
0.0000000000000404
  0
LINE
  5
29A
  8
FAB_3$PI_PROJECTOR$PANEL-P
 10
-1046.298393835578
 20
-1545.556014322039
 30
0.0000000000000284
 11
-1043.298393835578
 21
-1545.556014322039
 31
0.0000000000000323
  0
LINE
  5
29B
  8
FAB_3$PI_PROJECTOR$PANEL-P
 10
-1046.298393835577
 20
-1571.780535614722
 30
0.0000000000000284
 11
-1046.298393835578
 21
-1545.556014322039
 31
0.0000000000000284
  0
ARC
  5
29C
  8
FAB_3$PI_PROJECTOR$PANEL-P
 10
-1048.298393835577
 20
-1571.780535614722
 30
0.0000000000000284
 40
2.0
 50
194.9558550516443
 51
359.9999999999935
  0
ARC
  5
29D
  8
FAB_3$PI_PROJECTOR$PANEL-P
 10
-951.9364085893015
 20
-1545.574209317013
 30
0.0000000000000284
 40
101.861903460715
 50
164.1657867493323
 51
195.2089688956904
  0
ARC
  5
29E
  8
FAB_3$PI_PROJECTOR$PANEL-P
 10
-1047.042824994091
 20
-1518.584328066167
 30
0.0000000000000284
 40
3.0
 50
90.0000000000087
 51
164.4621413239319
  0
LINE
  5
29F
  8
FAB_3$PI_PROJECTOR$PANEL-P
 10
-1043.298393835578
 20
-1515.584328066167
 30
0.0000000000000284
 11
-1047.042824994091
 21
-1515.584328066167
 31
0.0000000000000284
  0
LINE
  5
2A0
  8
FAB_3$PI_PROJECTOR$PANEL-P
 10
-1043.298393835578
 20
-1406.636507135142
 30
0.0
 11
-1043.298393835578
 21
-1515.584328066167
 31
0.0000000000000284
  0
LINE
  5
2A1
  8
FAB_3$PI_PROJECTOR$PANEL-P
 10
-744.2983938355792
 20
-1406.636507135142
 30
0.0
 11
-1043.298393835578
 21
-1406.636507135142
 31
0.0
  0
LINE
  5
2A2
  8
FAB_3$PI_PROJECTOR$PANEL-P
 10
-744.2983938355792
 20
-1515.584328066167
 30
0.0000000000000284
 11
-744.2983938355792
 21
-1406.636507135142
 31
0.0
  0
LINE
  5
2A3
  8
FAB_3$PI_PROJECTOR$PANEL-P
 10
-740.5539626770666
 20
-1515.584328066167
 30
0.0000000000000284
 11
-744.2983938355792
 21
-1515.584328066167
 31
0.0000000000000284
  0
ARC
  5
2A4
  8
FAB_3$PI_PROJECTOR$PANEL-P
 10
-740.5539626770669
 20
-1518.584328066167
 30
0.0000000000000284
 40
3.0
 50
15.53785867606812
 51
89.99999999999349
  0
ARC
  5
2A5
  8
FAB_3$PI_PROJECTOR$PANEL-P
 10
-835.6603790818597
 20
-1545.574209317015
 30
0.0000000000000284
 40
101.8619034607192
 50
344.7910311043117
 51
15.83421325066839
  0
ARC
  5
2A6
  8
FAB_3$PI_PROJECTOR$PANEL-P
 10
-739.2983938355792
 20
-1571.780535614721
 30
0.0000000000000284
 40
2.0
 50
180.0
 51
345.0441449483486
  0
LINE
  5
2A7
  8
FAB_3$PI_PROJECTOR$PANEL-P
 10
-741.2983938355792
 20
-1545.556014322039
 30
0.0000000000000284
 11
-741.2983938355792
 21
-1571.780535614721
 31
0.0000000000000284
  0
LINE
  5
2A8
  8
FAB_3$PI_PROJECTOR$PANEL-P
 10
-744.2983938355792
 20
-1545.556014322039
 30
0.0000000000000323
 11
-741.2983938355792
 21
-1545.556014322039
 31
0.0000000000000284
  0
LINE
  5
2A9
  8
FAB_3$PI_PROJECTOR$PANEL-P
 10
-744.2983938355792
 20
-1571.525486997353
 30
0.0000000000000404
 11
-744.2983938355792
 21
-1545.556014322039
 31
0.0000000000000323
  0
ENDSEC
  0
EOF
