G75*
%MOIN*%
%OFA0B0*%
%FSLAX25Y25*%
%IPPOS*%
%LPD*%
%AMOC8*
5,1,8,0,0,1.08239X$1,22.5*
%
%ADD10C,0.16548*%
%ADD11C,0.08200*%
%ADD12C,0.17398*%
%ADD13C,0.15824*%
%ADD14OC8,0.06000*%
%ADD15C,0.06737*%
%ADD16R,0.06737X0.06737*%
%ADD17R,0.06706X0.03162*%
%ADD18C,0.07400*%
%ADD19C,0.09461*%
%ADD20C,0.04934*%
%ADD21C,0.06000*%
%ADD22C,0.04572*%
%ADD23C,0.06540*%
%ADD24C,0.10544*%
%ADD25C,0.07800*%
%ADD26C,0.12611*%
%ADD27C,0.03900*%
%ADD28C,0.03778*%
D10*
X0021412Y0020985D03*
X0021412Y0375316D03*
X0379680Y0379253D03*
X0379680Y0017048D03*
D11*
X0384424Y0053434D03*
X0383424Y0063434D03*
X0384424Y0073434D03*
X0384514Y0083485D03*
X0383514Y0093485D03*
X0384514Y0103485D03*
X0384369Y0117501D03*
X0383369Y0127501D03*
X0384369Y0137501D03*
X0383369Y0147501D03*
X0384369Y0157501D03*
X0384431Y0171221D03*
X0383431Y0181221D03*
X0384431Y0191221D03*
X0384353Y0201190D03*
X0383353Y0211190D03*
X0384353Y0221190D03*
X0384282Y0235202D03*
X0383282Y0245202D03*
X0384282Y0255202D03*
X0384180Y0265182D03*
X0383180Y0275182D03*
X0384180Y0285182D03*
X0384117Y0299131D03*
X0383117Y0309131D03*
X0384117Y0319131D03*
X0384160Y0329103D03*
X0383160Y0339103D03*
X0384160Y0349103D03*
X0344561Y0247158D03*
X0334561Y0247158D03*
X0324561Y0247158D03*
X0314561Y0247158D03*
X0304561Y0247158D03*
X0304561Y0236158D03*
X0314561Y0236158D03*
X0324561Y0236158D03*
X0334561Y0236158D03*
X0344561Y0236158D03*
X0344561Y0191682D03*
X0334561Y0191682D03*
X0334561Y0180682D03*
X0344561Y0180682D03*
X0324561Y0180682D03*
X0314561Y0180682D03*
X0314561Y0191682D03*
X0324561Y0191682D03*
X0304561Y0191682D03*
X0304561Y0180682D03*
X0304561Y0136761D03*
X0314561Y0136761D03*
X0324561Y0136761D03*
X0334561Y0136761D03*
X0344561Y0136761D03*
X0344561Y0125761D03*
X0334561Y0125761D03*
X0324561Y0125761D03*
X0314561Y0125761D03*
X0304561Y0125761D03*
X0308813Y0038296D03*
X0298813Y0038296D03*
X0288813Y0038296D03*
X0288813Y0027296D03*
X0298813Y0027296D03*
X0308813Y0027296D03*
X0318813Y0027296D03*
X0328813Y0027296D03*
X0328813Y0038296D03*
X0318813Y0038296D03*
X0100467Y0038296D03*
X0090467Y0038296D03*
X0080467Y0038296D03*
X0070467Y0038296D03*
X0060467Y0038296D03*
X0060467Y0027296D03*
X0070467Y0027296D03*
X0080467Y0027296D03*
X0090467Y0027296D03*
X0100467Y0027296D03*
X0014550Y0064910D03*
X0013550Y0074910D03*
X0014550Y0084910D03*
X0014424Y0094973D03*
X0013424Y0104973D03*
X0014424Y0114973D03*
X0012294Y0143509D03*
X0013294Y0153509D03*
X0012294Y0163509D03*
X0013294Y0173509D03*
X0012294Y0183509D03*
X0013557Y0211820D03*
X0012557Y0221820D03*
X0013557Y0231820D03*
X0013380Y0241891D03*
X0012380Y0251891D03*
X0013380Y0261891D03*
X0012829Y0280631D03*
X0011829Y0290631D03*
X0012829Y0300631D03*
X0013026Y0310800D03*
X0012026Y0320800D03*
X0013026Y0330800D03*
X0053700Y0382477D03*
X0065100Y0382477D03*
X0101263Y0312324D03*
X0112663Y0312324D03*
X0097278Y0278454D03*
X0087278Y0278454D03*
X0077278Y0278454D03*
X0067278Y0278454D03*
X0057278Y0278454D03*
X0057278Y0267454D03*
X0067278Y0267454D03*
X0077278Y0267454D03*
X0087278Y0267454D03*
X0097278Y0267454D03*
X0096530Y0140619D03*
X0086530Y0140619D03*
X0076530Y0140619D03*
X0066530Y0140619D03*
X0056530Y0140619D03*
X0056530Y0129619D03*
X0066530Y0129619D03*
X0076530Y0129619D03*
X0086530Y0129619D03*
X0096530Y0129619D03*
D12*
X0104325Y0349331D03*
X0243223Y0349331D03*
X0342731Y0349331D03*
D13*
X0361628Y0360552D03*
X0342731Y0373938D03*
X0262120Y0360552D03*
X0243223Y0373938D03*
X0123223Y0360552D03*
X0104325Y0373938D03*
D14*
X0174955Y0370631D03*
X0174955Y0340631D03*
X0174955Y0325198D03*
X0174955Y0315198D03*
X0147396Y0102914D03*
X0147396Y0072914D03*
X0202514Y0072914D03*
X0202514Y0102914D03*
X0257632Y0097914D03*
X0257632Y0077914D03*
D15*
X0201428Y0131965D03*
X0201428Y0141965D03*
X0201428Y0151965D03*
X0201428Y0161965D03*
X0201428Y0171965D03*
X0201428Y0181965D03*
X0191428Y0181965D03*
X0181428Y0181965D03*
X0171428Y0181965D03*
X0171428Y0171965D03*
X0171428Y0161965D03*
X0171428Y0151965D03*
X0171428Y0141965D03*
X0171428Y0131965D03*
X0161428Y0131965D03*
X0161428Y0141965D03*
X0161428Y0151965D03*
X0161428Y0161965D03*
X0161428Y0171965D03*
X0161428Y0181965D03*
X0151428Y0181965D03*
X0141428Y0181965D03*
X0141428Y0171965D03*
X0141428Y0161965D03*
X0141428Y0151965D03*
X0141428Y0141965D03*
X0141428Y0131965D03*
X0141428Y0191965D03*
X0141428Y0201965D03*
X0141428Y0211965D03*
X0141428Y0221965D03*
X0141428Y0231965D03*
X0141428Y0241965D03*
X0141428Y0251965D03*
X0141428Y0261965D03*
X0141428Y0271965D03*
X0141428Y0281965D03*
X0141428Y0291965D03*
X0141428Y0301965D03*
X0141428Y0311965D03*
X0141428Y0321965D03*
X0151428Y0321965D03*
X0151428Y0311965D03*
X0161428Y0301965D03*
X0171428Y0301965D03*
X0171428Y0291965D03*
X0171428Y0281965D03*
X0171428Y0271965D03*
X0161428Y0271965D03*
X0161428Y0281965D03*
X0161428Y0291965D03*
X0201428Y0291965D03*
X0201428Y0281965D03*
X0201428Y0271965D03*
X0201428Y0261965D03*
X0201428Y0251965D03*
X0201428Y0241965D03*
X0201428Y0231965D03*
X0201428Y0221965D03*
X0201428Y0211965D03*
X0201428Y0201965D03*
X0201428Y0191965D03*
X0171428Y0191965D03*
X0171428Y0201965D03*
X0171428Y0211965D03*
X0161428Y0211965D03*
X0161428Y0201965D03*
X0161428Y0191965D03*
X0201428Y0301965D03*
X0201428Y0311965D03*
X0201428Y0321965D03*
X0201428Y0331965D03*
X0201428Y0341965D03*
X0201428Y0351965D03*
X0151428Y0351965D03*
X0141428Y0351965D03*
X0141428Y0361965D03*
X0141428Y0341965D03*
X0141428Y0331965D03*
X0151428Y0331965D03*
D16*
X0201428Y0361965D03*
D17*
X0220258Y0319127D03*
X0220258Y0314127D03*
X0220258Y0309127D03*
X0220258Y0304127D03*
X0220258Y0299127D03*
X0220258Y0294127D03*
X0220258Y0289127D03*
X0220258Y0284127D03*
X0220258Y0279127D03*
X0220258Y0274127D03*
X0258054Y0274127D03*
X0258054Y0279127D03*
X0258054Y0284127D03*
X0258054Y0289127D03*
X0258054Y0294127D03*
X0258054Y0299127D03*
X0258054Y0304127D03*
X0258054Y0309127D03*
X0258054Y0314127D03*
X0258054Y0319127D03*
X0090782Y0209587D03*
X0090782Y0204587D03*
X0090782Y0199587D03*
X0090782Y0194587D03*
X0090782Y0189587D03*
X0090782Y0184587D03*
X0090782Y0179587D03*
X0090782Y0174587D03*
X0090782Y0169587D03*
X0090782Y0164587D03*
X0052987Y0164587D03*
X0052987Y0169587D03*
X0052987Y0174587D03*
X0052987Y0179587D03*
X0052987Y0184587D03*
X0052987Y0189587D03*
X0052987Y0194587D03*
X0052987Y0199587D03*
X0052987Y0204587D03*
X0052987Y0209587D03*
D18*
X0105900Y0207835D03*
X0115900Y0207835D03*
X0125900Y0207835D03*
X0125900Y0227835D03*
X0115900Y0227835D03*
X0105900Y0227835D03*
X0224010Y0227835D03*
X0234010Y0227835D03*
X0244010Y0227835D03*
X0244010Y0207835D03*
X0234010Y0207835D03*
X0224010Y0207835D03*
X0224010Y0097914D03*
X0234010Y0097914D03*
X0244010Y0097914D03*
X0244010Y0077914D03*
X0234010Y0077914D03*
X0224010Y0077914D03*
X0125900Y0077914D03*
X0115900Y0077914D03*
X0105900Y0077914D03*
X0105900Y0097914D03*
X0115900Y0097914D03*
X0125900Y0097914D03*
D19*
X0125861Y0088111D03*
X0243971Y0088111D03*
X0243971Y0218032D03*
X0125861Y0218032D03*
D20*
X0108971Y0222166D03*
X0108971Y0213544D03*
X0227081Y0213544D03*
X0227081Y0222166D03*
X0227081Y0092245D03*
X0227081Y0083623D03*
X0108971Y0083623D03*
X0108971Y0092245D03*
D21*
X0224480Y0135001D02*
X0229680Y0135001D01*
X0229680Y0145001D02*
X0224480Y0145001D01*
X0224480Y0155001D02*
X0229680Y0155001D01*
X0229680Y0165001D02*
X0224480Y0165001D01*
X0259680Y0165001D02*
X0264880Y0165001D01*
X0264880Y0155001D02*
X0259680Y0155001D01*
X0259680Y0145001D02*
X0264880Y0145001D01*
X0264880Y0135001D02*
X0259680Y0135001D01*
D22*
X0349203Y0282954D03*
X0359203Y0282954D03*
D23*
X0319203Y0282954D03*
X0289203Y0282954D03*
D24*
X0174955Y0110355D03*
X0174955Y0091851D03*
X0174955Y0073347D03*
D25*
X0283065Y0062324D03*
X0293065Y0062324D03*
X0303065Y0062324D03*
X0066845Y0062324D03*
X0056845Y0062324D03*
X0046845Y0062324D03*
X0046845Y0306418D03*
X0056845Y0306418D03*
X0066845Y0306418D03*
X0287002Y0306418D03*
X0297002Y0306418D03*
X0307002Y0306418D03*
D26*
X0315900Y0335946D03*
X0278105Y0335946D03*
X0075742Y0335946D03*
X0037947Y0335946D03*
X0037947Y0091851D03*
X0075742Y0091851D03*
X0274168Y0091851D03*
X0311963Y0091851D03*
D27*
X0313735Y0076103D03*
X0299955Y0068229D03*
X0293065Y0084961D03*
X0268459Y0064292D03*
X0260585Y0046576D03*
X0264522Y0036733D03*
X0241884Y0054450D03*
X0219246Y0084961D03*
X0206451Y0081024D03*
X0195624Y0068229D03*
X0186766Y0074135D03*
X0182829Y0081024D03*
X0182829Y0057402D03*
X0168065Y0044607D03*
X0164128Y0046576D03*
X0161176Y0028859D03*
X0190703Y0024922D03*
X0202514Y0036733D03*
X0211372Y0024922D03*
X0218262Y0101694D03*
X0226136Y0116457D03*
X0216294Y0124331D03*
X0237947Y0126300D03*
X0243853Y0112520D03*
X0257632Y0110552D03*
X0254680Y0121379D03*
X0249758Y0140080D03*
X0239916Y0154843D03*
X0223183Y0171576D03*
X0228105Y0178465D03*
X0223183Y0187324D03*
X0221215Y0197166D03*
X0221215Y0202087D03*
X0234994Y0188308D03*
X0243853Y0194213D03*
X0247790Y0190276D03*
X0238931Y0199135D03*
X0259601Y0176497D03*
X0263538Y0182402D03*
X0273380Y0177481D03*
X0283223Y0169607D03*
X0300939Y0166654D03*
X0309798Y0161733D03*
X0319640Y0157796D03*
X0331451Y0162717D03*
X0352120Y0151891D03*
X0354089Y0155828D03*
X0362947Y0141064D03*
X0367869Y0139095D03*
X0376727Y0136143D03*
X0352120Y0120394D03*
X0347199Y0066261D03*
X0297987Y0123347D03*
X0286176Y0110552D03*
X0278302Y0111536D03*
X0283223Y0149922D03*
X0273380Y0190276D03*
X0274365Y0204056D03*
X0265506Y0204056D03*
X0274365Y0217835D03*
X0288144Y0226694D03*
X0278302Y0248347D03*
X0273380Y0247363D03*
X0259601Y0232599D03*
X0247790Y0253269D03*
X0239916Y0266064D03*
X0233026Y0259174D03*
X0219246Y0251300D03*
X0208420Y0251300D03*
X0195624Y0243426D03*
X0183813Y0252284D03*
X0173971Y0248347D03*
X0170034Y0259174D03*
X0187750Y0265080D03*
X0208420Y0267048D03*
X0247790Y0282796D03*
X0268459Y0282796D03*
X0268459Y0271969D03*
X0283223Y0288702D03*
X0290113Y0289686D03*
X0270428Y0309371D03*
X0267475Y0304450D03*
X0266491Y0299528D03*
X0266491Y0314292D03*
X0260585Y0328072D03*
X0244837Y0308387D03*
X0237947Y0336930D03*
X0215309Y0352678D03*
X0229089Y0361536D03*
X0221215Y0376300D03*
X0211372Y0371379D03*
X0194640Y0386143D03*
X0187750Y0385158D03*
X0167081Y0363505D03*
X0161176Y0362520D03*
X0172002Y0350709D03*
X0178892Y0345788D03*
X0192672Y0339883D03*
X0192672Y0354646D03*
X0166097Y0325119D03*
X0157239Y0311339D03*
X0175939Y0306418D03*
X0189719Y0320198D03*
X0208026Y0310355D03*
X0137554Y0276891D03*
X0138538Y0267048D03*
X0127711Y0260158D03*
X0123774Y0252284D03*
X0112947Y0264095D03*
X0101136Y0260158D03*
X0100152Y0251300D03*
X0101136Y0246379D03*
X0103105Y0240473D03*
X0099168Y0234568D03*
X0096215Y0230631D03*
X0087357Y0219804D03*
X0082435Y0219804D03*
X0082435Y0224725D03*
X0077514Y0210946D03*
X0071609Y0206024D03*
X0067672Y0194213D03*
X0081451Y0184371D03*
X0084404Y0191261D03*
X0084404Y0199135D03*
X0084404Y0205040D03*
X0103105Y0192245D03*
X0103105Y0186339D03*
X0105073Y0201103D03*
X0129680Y0186339D03*
X0126727Y0170591D03*
X0118853Y0170591D03*
X0113931Y0170591D03*
X0116884Y0158780D03*
X0116884Y0153859D03*
X0115900Y0146969D03*
X0126727Y0161733D03*
X0137554Y0156812D03*
X0146412Y0158780D03*
X0154286Y0161733D03*
X0154286Y0170591D03*
X0166097Y0175513D03*
X0190703Y0170591D03*
X0194640Y0166654D03*
X0181845Y0137127D03*
X0186766Y0132206D03*
X0168065Y0114489D03*
X0154286Y0099725D03*
X0150349Y0115473D03*
X0150349Y0129253D03*
X0158223Y0137127D03*
X0129680Y0106615D03*
X0120821Y0106615D03*
X0110979Y0121379D03*
X0106057Y0120394D03*
X0120821Y0124331D03*
X0092278Y0147954D03*
X0103105Y0157796D03*
X0081451Y0157796D03*
X0071609Y0153859D03*
X0061766Y0152875D03*
X0052908Y0160749D03*
X0048971Y0151891D03*
X0040113Y0142048D03*
X0035191Y0131221D03*
X0030270Y0130237D03*
X0021412Y0135158D03*
X0031254Y0146969D03*
X0041097Y0168623D03*
X0041097Y0177481D03*
X0036176Y0185355D03*
X0029286Y0171576D03*
X0021412Y0185355D03*
X0047002Y0205040D03*
X0047002Y0220788D03*
X0041097Y0220788D03*
X0041097Y0231615D03*
X0026333Y0227678D03*
X0037160Y0248347D03*
X0047002Y0252284D03*
X0037160Y0262127D03*
X0033223Y0271969D03*
X0026333Y0262127D03*
X0018459Y0266064D03*
X0018459Y0273938D03*
X0005664Y0267048D03*
X0033223Y0294607D03*
X0038144Y0314292D03*
X0035191Y0318229D03*
X0027317Y0322166D03*
X0059798Y0329056D03*
X0081451Y0342835D03*
X0096215Y0340867D03*
X0104089Y0332993D03*
X0121806Y0336930D03*
X0127711Y0339883D03*
X0132632Y0329056D03*
X0127711Y0314292D03*
X0117869Y0302481D03*
X0127711Y0295591D03*
X0116884Y0275906D03*
X0093262Y0252284D03*
X0072593Y0246379D03*
X0066687Y0246379D03*
X0061766Y0236536D03*
X0045034Y0276891D03*
X0062750Y0295591D03*
X0077514Y0303465D03*
X0059798Y0360552D03*
X0081451Y0381221D03*
X0084404Y0385158D03*
X0090309Y0390080D03*
X0096215Y0381221D03*
X0100152Y0384174D03*
X0117869Y0383190D03*
X0128695Y0370394D03*
X0134601Y0373347D03*
X0156254Y0390080D03*
X0038144Y0364489D03*
X0134601Y0236536D03*
X0146412Y0215867D03*
X0150349Y0204056D03*
X0164128Y0228662D03*
X0178892Y0221772D03*
X0194640Y0212914D03*
X0183813Y0207009D03*
X0081451Y0175513D03*
X0067672Y0179450D03*
X0067672Y0169607D03*
X0050939Y0110552D03*
X0083420Y0097757D03*
X0087357Y0083977D03*
X0087357Y0078072D03*
X0109994Y0068229D03*
X0115900Y0050513D03*
X0133617Y0057402D03*
X0137554Y0073150D03*
X0106057Y0032796D03*
X0058813Y0052481D03*
X0294050Y0198150D03*
X0298971Y0199135D03*
X0329483Y0210946D03*
X0329483Y0218820D03*
X0324561Y0225709D03*
X0350152Y0218820D03*
X0360979Y0203072D03*
X0368853Y0203072D03*
X0368853Y0175513D03*
X0369837Y0235552D03*
X0352120Y0237520D03*
X0349168Y0256221D03*
X0373774Y0265080D03*
X0363931Y0290670D03*
X0347199Y0313308D03*
X0353105Y0319213D03*
X0335388Y0326103D03*
X0307829Y0294607D03*
X0341294Y0289686D03*
X0318656Y0261143D03*
X0369837Y0343820D03*
X0377711Y0351694D03*
X0323577Y0379253D03*
D28*
X0212227Y0314800D03*
M02*
