G75*
%MOIN*%
%OFA0B0*%
%FSLAX25Y25*%
%IPPOS*%
%LPD*%
%AMOC8*
5,1,8,0,0,1.08239X$1,22.5*
%
%ADD10C,0.00000*%
%ADD11C,0.00600*%
%ADD12C,0.00500*%
%ADD13C,0.00800*%
%ADD14C,0.00400*%
%ADD15R,0.02000X0.01500*%
D10*
X0019000Y0021300D02*
X0019002Y0021441D01*
X0019008Y0021582D01*
X0019018Y0021722D01*
X0019032Y0021862D01*
X0019050Y0022002D01*
X0019071Y0022141D01*
X0019097Y0022280D01*
X0019126Y0022418D01*
X0019160Y0022554D01*
X0019197Y0022690D01*
X0019238Y0022825D01*
X0019283Y0022959D01*
X0019332Y0023091D01*
X0019384Y0023222D01*
X0019440Y0023351D01*
X0019500Y0023478D01*
X0019563Y0023604D01*
X0019629Y0023728D01*
X0019700Y0023851D01*
X0019773Y0023971D01*
X0019850Y0024089D01*
X0019930Y0024205D01*
X0020014Y0024318D01*
X0020100Y0024429D01*
X0020190Y0024538D01*
X0020283Y0024644D01*
X0020378Y0024747D01*
X0020477Y0024848D01*
X0020578Y0024946D01*
X0020682Y0025041D01*
X0020789Y0025133D01*
X0020898Y0025222D01*
X0021010Y0025307D01*
X0021124Y0025390D01*
X0021240Y0025470D01*
X0021359Y0025546D01*
X0021480Y0025618D01*
X0021602Y0025688D01*
X0021727Y0025753D01*
X0021853Y0025816D01*
X0021981Y0025874D01*
X0022111Y0025929D01*
X0022242Y0025981D01*
X0022375Y0026028D01*
X0022509Y0026072D01*
X0022644Y0026113D01*
X0022780Y0026149D01*
X0022917Y0026181D01*
X0023055Y0026210D01*
X0023193Y0026235D01*
X0023333Y0026255D01*
X0023473Y0026272D01*
X0023613Y0026285D01*
X0023754Y0026294D01*
X0023894Y0026299D01*
X0024035Y0026300D01*
X0024176Y0026297D01*
X0024317Y0026290D01*
X0024457Y0026279D01*
X0024597Y0026264D01*
X0024737Y0026245D01*
X0024876Y0026223D01*
X0025014Y0026196D01*
X0025152Y0026166D01*
X0025288Y0026131D01*
X0025424Y0026093D01*
X0025558Y0026051D01*
X0025692Y0026005D01*
X0025824Y0025956D01*
X0025954Y0025902D01*
X0026083Y0025845D01*
X0026210Y0025785D01*
X0026336Y0025721D01*
X0026459Y0025653D01*
X0026581Y0025582D01*
X0026701Y0025508D01*
X0026818Y0025430D01*
X0026933Y0025349D01*
X0027046Y0025265D01*
X0027157Y0025178D01*
X0027265Y0025087D01*
X0027370Y0024994D01*
X0027473Y0024897D01*
X0027573Y0024798D01*
X0027670Y0024696D01*
X0027764Y0024591D01*
X0027855Y0024484D01*
X0027943Y0024374D01*
X0028028Y0024262D01*
X0028110Y0024147D01*
X0028189Y0024030D01*
X0028264Y0023911D01*
X0028336Y0023790D01*
X0028404Y0023667D01*
X0028469Y0023542D01*
X0028531Y0023415D01*
X0028588Y0023286D01*
X0028643Y0023156D01*
X0028693Y0023025D01*
X0028740Y0022892D01*
X0028783Y0022758D01*
X0028822Y0022622D01*
X0028857Y0022486D01*
X0028889Y0022349D01*
X0028916Y0022211D01*
X0028940Y0022072D01*
X0028960Y0021932D01*
X0028976Y0021792D01*
X0028988Y0021652D01*
X0028996Y0021511D01*
X0029000Y0021370D01*
X0029000Y0021230D01*
X0028996Y0021089D01*
X0028988Y0020948D01*
X0028976Y0020808D01*
X0028960Y0020668D01*
X0028940Y0020528D01*
X0028916Y0020389D01*
X0028889Y0020251D01*
X0028857Y0020114D01*
X0028822Y0019978D01*
X0028783Y0019842D01*
X0028740Y0019708D01*
X0028693Y0019575D01*
X0028643Y0019444D01*
X0028588Y0019314D01*
X0028531Y0019185D01*
X0028469Y0019058D01*
X0028404Y0018933D01*
X0028336Y0018810D01*
X0028264Y0018689D01*
X0028189Y0018570D01*
X0028110Y0018453D01*
X0028028Y0018338D01*
X0027943Y0018226D01*
X0027855Y0018116D01*
X0027764Y0018009D01*
X0027670Y0017904D01*
X0027573Y0017802D01*
X0027473Y0017703D01*
X0027370Y0017606D01*
X0027265Y0017513D01*
X0027157Y0017422D01*
X0027046Y0017335D01*
X0026933Y0017251D01*
X0026818Y0017170D01*
X0026701Y0017092D01*
X0026581Y0017018D01*
X0026459Y0016947D01*
X0026336Y0016879D01*
X0026210Y0016815D01*
X0026083Y0016755D01*
X0025954Y0016698D01*
X0025824Y0016644D01*
X0025692Y0016595D01*
X0025558Y0016549D01*
X0025424Y0016507D01*
X0025288Y0016469D01*
X0025152Y0016434D01*
X0025014Y0016404D01*
X0024876Y0016377D01*
X0024737Y0016355D01*
X0024597Y0016336D01*
X0024457Y0016321D01*
X0024317Y0016310D01*
X0024176Y0016303D01*
X0024035Y0016300D01*
X0023894Y0016301D01*
X0023754Y0016306D01*
X0023613Y0016315D01*
X0023473Y0016328D01*
X0023333Y0016345D01*
X0023193Y0016365D01*
X0023055Y0016390D01*
X0022917Y0016419D01*
X0022780Y0016451D01*
X0022644Y0016487D01*
X0022509Y0016528D01*
X0022375Y0016572D01*
X0022242Y0016619D01*
X0022111Y0016671D01*
X0021981Y0016726D01*
X0021853Y0016784D01*
X0021727Y0016847D01*
X0021602Y0016912D01*
X0021480Y0016982D01*
X0021359Y0017054D01*
X0021240Y0017130D01*
X0021124Y0017210D01*
X0021010Y0017293D01*
X0020898Y0017378D01*
X0020789Y0017467D01*
X0020682Y0017559D01*
X0020578Y0017654D01*
X0020477Y0017752D01*
X0020378Y0017853D01*
X0020283Y0017956D01*
X0020190Y0018062D01*
X0020100Y0018171D01*
X0020014Y0018282D01*
X0019930Y0018395D01*
X0019850Y0018511D01*
X0019773Y0018629D01*
X0019700Y0018749D01*
X0019629Y0018872D01*
X0019563Y0018996D01*
X0019500Y0019122D01*
X0019440Y0019249D01*
X0019384Y0019378D01*
X0019332Y0019509D01*
X0019283Y0019641D01*
X0019238Y0019775D01*
X0019197Y0019910D01*
X0019160Y0020046D01*
X0019126Y0020182D01*
X0019097Y0020320D01*
X0019071Y0020459D01*
X0019050Y0020598D01*
X0019032Y0020738D01*
X0019018Y0020878D01*
X0019008Y0021018D01*
X0019002Y0021159D01*
X0019000Y0021300D01*
X0019000Y0191300D02*
X0019002Y0191441D01*
X0019008Y0191582D01*
X0019018Y0191722D01*
X0019032Y0191862D01*
X0019050Y0192002D01*
X0019071Y0192141D01*
X0019097Y0192280D01*
X0019126Y0192418D01*
X0019160Y0192554D01*
X0019197Y0192690D01*
X0019238Y0192825D01*
X0019283Y0192959D01*
X0019332Y0193091D01*
X0019384Y0193222D01*
X0019440Y0193351D01*
X0019500Y0193478D01*
X0019563Y0193604D01*
X0019629Y0193728D01*
X0019700Y0193851D01*
X0019773Y0193971D01*
X0019850Y0194089D01*
X0019930Y0194205D01*
X0020014Y0194318D01*
X0020100Y0194429D01*
X0020190Y0194538D01*
X0020283Y0194644D01*
X0020378Y0194747D01*
X0020477Y0194848D01*
X0020578Y0194946D01*
X0020682Y0195041D01*
X0020789Y0195133D01*
X0020898Y0195222D01*
X0021010Y0195307D01*
X0021124Y0195390D01*
X0021240Y0195470D01*
X0021359Y0195546D01*
X0021480Y0195618D01*
X0021602Y0195688D01*
X0021727Y0195753D01*
X0021853Y0195816D01*
X0021981Y0195874D01*
X0022111Y0195929D01*
X0022242Y0195981D01*
X0022375Y0196028D01*
X0022509Y0196072D01*
X0022644Y0196113D01*
X0022780Y0196149D01*
X0022917Y0196181D01*
X0023055Y0196210D01*
X0023193Y0196235D01*
X0023333Y0196255D01*
X0023473Y0196272D01*
X0023613Y0196285D01*
X0023754Y0196294D01*
X0023894Y0196299D01*
X0024035Y0196300D01*
X0024176Y0196297D01*
X0024317Y0196290D01*
X0024457Y0196279D01*
X0024597Y0196264D01*
X0024737Y0196245D01*
X0024876Y0196223D01*
X0025014Y0196196D01*
X0025152Y0196166D01*
X0025288Y0196131D01*
X0025424Y0196093D01*
X0025558Y0196051D01*
X0025692Y0196005D01*
X0025824Y0195956D01*
X0025954Y0195902D01*
X0026083Y0195845D01*
X0026210Y0195785D01*
X0026336Y0195721D01*
X0026459Y0195653D01*
X0026581Y0195582D01*
X0026701Y0195508D01*
X0026818Y0195430D01*
X0026933Y0195349D01*
X0027046Y0195265D01*
X0027157Y0195178D01*
X0027265Y0195087D01*
X0027370Y0194994D01*
X0027473Y0194897D01*
X0027573Y0194798D01*
X0027670Y0194696D01*
X0027764Y0194591D01*
X0027855Y0194484D01*
X0027943Y0194374D01*
X0028028Y0194262D01*
X0028110Y0194147D01*
X0028189Y0194030D01*
X0028264Y0193911D01*
X0028336Y0193790D01*
X0028404Y0193667D01*
X0028469Y0193542D01*
X0028531Y0193415D01*
X0028588Y0193286D01*
X0028643Y0193156D01*
X0028693Y0193025D01*
X0028740Y0192892D01*
X0028783Y0192758D01*
X0028822Y0192622D01*
X0028857Y0192486D01*
X0028889Y0192349D01*
X0028916Y0192211D01*
X0028940Y0192072D01*
X0028960Y0191932D01*
X0028976Y0191792D01*
X0028988Y0191652D01*
X0028996Y0191511D01*
X0029000Y0191370D01*
X0029000Y0191230D01*
X0028996Y0191089D01*
X0028988Y0190948D01*
X0028976Y0190808D01*
X0028960Y0190668D01*
X0028940Y0190528D01*
X0028916Y0190389D01*
X0028889Y0190251D01*
X0028857Y0190114D01*
X0028822Y0189978D01*
X0028783Y0189842D01*
X0028740Y0189708D01*
X0028693Y0189575D01*
X0028643Y0189444D01*
X0028588Y0189314D01*
X0028531Y0189185D01*
X0028469Y0189058D01*
X0028404Y0188933D01*
X0028336Y0188810D01*
X0028264Y0188689D01*
X0028189Y0188570D01*
X0028110Y0188453D01*
X0028028Y0188338D01*
X0027943Y0188226D01*
X0027855Y0188116D01*
X0027764Y0188009D01*
X0027670Y0187904D01*
X0027573Y0187802D01*
X0027473Y0187703D01*
X0027370Y0187606D01*
X0027265Y0187513D01*
X0027157Y0187422D01*
X0027046Y0187335D01*
X0026933Y0187251D01*
X0026818Y0187170D01*
X0026701Y0187092D01*
X0026581Y0187018D01*
X0026459Y0186947D01*
X0026336Y0186879D01*
X0026210Y0186815D01*
X0026083Y0186755D01*
X0025954Y0186698D01*
X0025824Y0186644D01*
X0025692Y0186595D01*
X0025558Y0186549D01*
X0025424Y0186507D01*
X0025288Y0186469D01*
X0025152Y0186434D01*
X0025014Y0186404D01*
X0024876Y0186377D01*
X0024737Y0186355D01*
X0024597Y0186336D01*
X0024457Y0186321D01*
X0024317Y0186310D01*
X0024176Y0186303D01*
X0024035Y0186300D01*
X0023894Y0186301D01*
X0023754Y0186306D01*
X0023613Y0186315D01*
X0023473Y0186328D01*
X0023333Y0186345D01*
X0023193Y0186365D01*
X0023055Y0186390D01*
X0022917Y0186419D01*
X0022780Y0186451D01*
X0022644Y0186487D01*
X0022509Y0186528D01*
X0022375Y0186572D01*
X0022242Y0186619D01*
X0022111Y0186671D01*
X0021981Y0186726D01*
X0021853Y0186784D01*
X0021727Y0186847D01*
X0021602Y0186912D01*
X0021480Y0186982D01*
X0021359Y0187054D01*
X0021240Y0187130D01*
X0021124Y0187210D01*
X0021010Y0187293D01*
X0020898Y0187378D01*
X0020789Y0187467D01*
X0020682Y0187559D01*
X0020578Y0187654D01*
X0020477Y0187752D01*
X0020378Y0187853D01*
X0020283Y0187956D01*
X0020190Y0188062D01*
X0020100Y0188171D01*
X0020014Y0188282D01*
X0019930Y0188395D01*
X0019850Y0188511D01*
X0019773Y0188629D01*
X0019700Y0188749D01*
X0019629Y0188872D01*
X0019563Y0188996D01*
X0019500Y0189122D01*
X0019440Y0189249D01*
X0019384Y0189378D01*
X0019332Y0189509D01*
X0019283Y0189641D01*
X0019238Y0189775D01*
X0019197Y0189910D01*
X0019160Y0190046D01*
X0019126Y0190182D01*
X0019097Y0190320D01*
X0019071Y0190459D01*
X0019050Y0190598D01*
X0019032Y0190738D01*
X0019018Y0190878D01*
X0019008Y0191018D01*
X0019002Y0191159D01*
X0019000Y0191300D01*
X0534000Y0191300D02*
X0534002Y0191441D01*
X0534008Y0191582D01*
X0534018Y0191722D01*
X0534032Y0191862D01*
X0534050Y0192002D01*
X0534071Y0192141D01*
X0534097Y0192280D01*
X0534126Y0192418D01*
X0534160Y0192554D01*
X0534197Y0192690D01*
X0534238Y0192825D01*
X0534283Y0192959D01*
X0534332Y0193091D01*
X0534384Y0193222D01*
X0534440Y0193351D01*
X0534500Y0193478D01*
X0534563Y0193604D01*
X0534629Y0193728D01*
X0534700Y0193851D01*
X0534773Y0193971D01*
X0534850Y0194089D01*
X0534930Y0194205D01*
X0535014Y0194318D01*
X0535100Y0194429D01*
X0535190Y0194538D01*
X0535283Y0194644D01*
X0535378Y0194747D01*
X0535477Y0194848D01*
X0535578Y0194946D01*
X0535682Y0195041D01*
X0535789Y0195133D01*
X0535898Y0195222D01*
X0536010Y0195307D01*
X0536124Y0195390D01*
X0536240Y0195470D01*
X0536359Y0195546D01*
X0536480Y0195618D01*
X0536602Y0195688D01*
X0536727Y0195753D01*
X0536853Y0195816D01*
X0536981Y0195874D01*
X0537111Y0195929D01*
X0537242Y0195981D01*
X0537375Y0196028D01*
X0537509Y0196072D01*
X0537644Y0196113D01*
X0537780Y0196149D01*
X0537917Y0196181D01*
X0538055Y0196210D01*
X0538193Y0196235D01*
X0538333Y0196255D01*
X0538473Y0196272D01*
X0538613Y0196285D01*
X0538754Y0196294D01*
X0538894Y0196299D01*
X0539035Y0196300D01*
X0539176Y0196297D01*
X0539317Y0196290D01*
X0539457Y0196279D01*
X0539597Y0196264D01*
X0539737Y0196245D01*
X0539876Y0196223D01*
X0540014Y0196196D01*
X0540152Y0196166D01*
X0540288Y0196131D01*
X0540424Y0196093D01*
X0540558Y0196051D01*
X0540692Y0196005D01*
X0540824Y0195956D01*
X0540954Y0195902D01*
X0541083Y0195845D01*
X0541210Y0195785D01*
X0541336Y0195721D01*
X0541459Y0195653D01*
X0541581Y0195582D01*
X0541701Y0195508D01*
X0541818Y0195430D01*
X0541933Y0195349D01*
X0542046Y0195265D01*
X0542157Y0195178D01*
X0542265Y0195087D01*
X0542370Y0194994D01*
X0542473Y0194897D01*
X0542573Y0194798D01*
X0542670Y0194696D01*
X0542764Y0194591D01*
X0542855Y0194484D01*
X0542943Y0194374D01*
X0543028Y0194262D01*
X0543110Y0194147D01*
X0543189Y0194030D01*
X0543264Y0193911D01*
X0543336Y0193790D01*
X0543404Y0193667D01*
X0543469Y0193542D01*
X0543531Y0193415D01*
X0543588Y0193286D01*
X0543643Y0193156D01*
X0543693Y0193025D01*
X0543740Y0192892D01*
X0543783Y0192758D01*
X0543822Y0192622D01*
X0543857Y0192486D01*
X0543889Y0192349D01*
X0543916Y0192211D01*
X0543940Y0192072D01*
X0543960Y0191932D01*
X0543976Y0191792D01*
X0543988Y0191652D01*
X0543996Y0191511D01*
X0544000Y0191370D01*
X0544000Y0191230D01*
X0543996Y0191089D01*
X0543988Y0190948D01*
X0543976Y0190808D01*
X0543960Y0190668D01*
X0543940Y0190528D01*
X0543916Y0190389D01*
X0543889Y0190251D01*
X0543857Y0190114D01*
X0543822Y0189978D01*
X0543783Y0189842D01*
X0543740Y0189708D01*
X0543693Y0189575D01*
X0543643Y0189444D01*
X0543588Y0189314D01*
X0543531Y0189185D01*
X0543469Y0189058D01*
X0543404Y0188933D01*
X0543336Y0188810D01*
X0543264Y0188689D01*
X0543189Y0188570D01*
X0543110Y0188453D01*
X0543028Y0188338D01*
X0542943Y0188226D01*
X0542855Y0188116D01*
X0542764Y0188009D01*
X0542670Y0187904D01*
X0542573Y0187802D01*
X0542473Y0187703D01*
X0542370Y0187606D01*
X0542265Y0187513D01*
X0542157Y0187422D01*
X0542046Y0187335D01*
X0541933Y0187251D01*
X0541818Y0187170D01*
X0541701Y0187092D01*
X0541581Y0187018D01*
X0541459Y0186947D01*
X0541336Y0186879D01*
X0541210Y0186815D01*
X0541083Y0186755D01*
X0540954Y0186698D01*
X0540824Y0186644D01*
X0540692Y0186595D01*
X0540558Y0186549D01*
X0540424Y0186507D01*
X0540288Y0186469D01*
X0540152Y0186434D01*
X0540014Y0186404D01*
X0539876Y0186377D01*
X0539737Y0186355D01*
X0539597Y0186336D01*
X0539457Y0186321D01*
X0539317Y0186310D01*
X0539176Y0186303D01*
X0539035Y0186300D01*
X0538894Y0186301D01*
X0538754Y0186306D01*
X0538613Y0186315D01*
X0538473Y0186328D01*
X0538333Y0186345D01*
X0538193Y0186365D01*
X0538055Y0186390D01*
X0537917Y0186419D01*
X0537780Y0186451D01*
X0537644Y0186487D01*
X0537509Y0186528D01*
X0537375Y0186572D01*
X0537242Y0186619D01*
X0537111Y0186671D01*
X0536981Y0186726D01*
X0536853Y0186784D01*
X0536727Y0186847D01*
X0536602Y0186912D01*
X0536480Y0186982D01*
X0536359Y0187054D01*
X0536240Y0187130D01*
X0536124Y0187210D01*
X0536010Y0187293D01*
X0535898Y0187378D01*
X0535789Y0187467D01*
X0535682Y0187559D01*
X0535578Y0187654D01*
X0535477Y0187752D01*
X0535378Y0187853D01*
X0535283Y0187956D01*
X0535190Y0188062D01*
X0535100Y0188171D01*
X0535014Y0188282D01*
X0534930Y0188395D01*
X0534850Y0188511D01*
X0534773Y0188629D01*
X0534700Y0188749D01*
X0534629Y0188872D01*
X0534563Y0188996D01*
X0534500Y0189122D01*
X0534440Y0189249D01*
X0534384Y0189378D01*
X0534332Y0189509D01*
X0534283Y0189641D01*
X0534238Y0189775D01*
X0534197Y0189910D01*
X0534160Y0190046D01*
X0534126Y0190182D01*
X0534097Y0190320D01*
X0534071Y0190459D01*
X0534050Y0190598D01*
X0534032Y0190738D01*
X0534018Y0190878D01*
X0534008Y0191018D01*
X0534002Y0191159D01*
X0534000Y0191300D01*
X0534000Y0021300D02*
X0534002Y0021441D01*
X0534008Y0021582D01*
X0534018Y0021722D01*
X0534032Y0021862D01*
X0534050Y0022002D01*
X0534071Y0022141D01*
X0534097Y0022280D01*
X0534126Y0022418D01*
X0534160Y0022554D01*
X0534197Y0022690D01*
X0534238Y0022825D01*
X0534283Y0022959D01*
X0534332Y0023091D01*
X0534384Y0023222D01*
X0534440Y0023351D01*
X0534500Y0023478D01*
X0534563Y0023604D01*
X0534629Y0023728D01*
X0534700Y0023851D01*
X0534773Y0023971D01*
X0534850Y0024089D01*
X0534930Y0024205D01*
X0535014Y0024318D01*
X0535100Y0024429D01*
X0535190Y0024538D01*
X0535283Y0024644D01*
X0535378Y0024747D01*
X0535477Y0024848D01*
X0535578Y0024946D01*
X0535682Y0025041D01*
X0535789Y0025133D01*
X0535898Y0025222D01*
X0536010Y0025307D01*
X0536124Y0025390D01*
X0536240Y0025470D01*
X0536359Y0025546D01*
X0536480Y0025618D01*
X0536602Y0025688D01*
X0536727Y0025753D01*
X0536853Y0025816D01*
X0536981Y0025874D01*
X0537111Y0025929D01*
X0537242Y0025981D01*
X0537375Y0026028D01*
X0537509Y0026072D01*
X0537644Y0026113D01*
X0537780Y0026149D01*
X0537917Y0026181D01*
X0538055Y0026210D01*
X0538193Y0026235D01*
X0538333Y0026255D01*
X0538473Y0026272D01*
X0538613Y0026285D01*
X0538754Y0026294D01*
X0538894Y0026299D01*
X0539035Y0026300D01*
X0539176Y0026297D01*
X0539317Y0026290D01*
X0539457Y0026279D01*
X0539597Y0026264D01*
X0539737Y0026245D01*
X0539876Y0026223D01*
X0540014Y0026196D01*
X0540152Y0026166D01*
X0540288Y0026131D01*
X0540424Y0026093D01*
X0540558Y0026051D01*
X0540692Y0026005D01*
X0540824Y0025956D01*
X0540954Y0025902D01*
X0541083Y0025845D01*
X0541210Y0025785D01*
X0541336Y0025721D01*
X0541459Y0025653D01*
X0541581Y0025582D01*
X0541701Y0025508D01*
X0541818Y0025430D01*
X0541933Y0025349D01*
X0542046Y0025265D01*
X0542157Y0025178D01*
X0542265Y0025087D01*
X0542370Y0024994D01*
X0542473Y0024897D01*
X0542573Y0024798D01*
X0542670Y0024696D01*
X0542764Y0024591D01*
X0542855Y0024484D01*
X0542943Y0024374D01*
X0543028Y0024262D01*
X0543110Y0024147D01*
X0543189Y0024030D01*
X0543264Y0023911D01*
X0543336Y0023790D01*
X0543404Y0023667D01*
X0543469Y0023542D01*
X0543531Y0023415D01*
X0543588Y0023286D01*
X0543643Y0023156D01*
X0543693Y0023025D01*
X0543740Y0022892D01*
X0543783Y0022758D01*
X0543822Y0022622D01*
X0543857Y0022486D01*
X0543889Y0022349D01*
X0543916Y0022211D01*
X0543940Y0022072D01*
X0543960Y0021932D01*
X0543976Y0021792D01*
X0543988Y0021652D01*
X0543996Y0021511D01*
X0544000Y0021370D01*
X0544000Y0021230D01*
X0543996Y0021089D01*
X0543988Y0020948D01*
X0543976Y0020808D01*
X0543960Y0020668D01*
X0543940Y0020528D01*
X0543916Y0020389D01*
X0543889Y0020251D01*
X0543857Y0020114D01*
X0543822Y0019978D01*
X0543783Y0019842D01*
X0543740Y0019708D01*
X0543693Y0019575D01*
X0543643Y0019444D01*
X0543588Y0019314D01*
X0543531Y0019185D01*
X0543469Y0019058D01*
X0543404Y0018933D01*
X0543336Y0018810D01*
X0543264Y0018689D01*
X0543189Y0018570D01*
X0543110Y0018453D01*
X0543028Y0018338D01*
X0542943Y0018226D01*
X0542855Y0018116D01*
X0542764Y0018009D01*
X0542670Y0017904D01*
X0542573Y0017802D01*
X0542473Y0017703D01*
X0542370Y0017606D01*
X0542265Y0017513D01*
X0542157Y0017422D01*
X0542046Y0017335D01*
X0541933Y0017251D01*
X0541818Y0017170D01*
X0541701Y0017092D01*
X0541581Y0017018D01*
X0541459Y0016947D01*
X0541336Y0016879D01*
X0541210Y0016815D01*
X0541083Y0016755D01*
X0540954Y0016698D01*
X0540824Y0016644D01*
X0540692Y0016595D01*
X0540558Y0016549D01*
X0540424Y0016507D01*
X0540288Y0016469D01*
X0540152Y0016434D01*
X0540014Y0016404D01*
X0539876Y0016377D01*
X0539737Y0016355D01*
X0539597Y0016336D01*
X0539457Y0016321D01*
X0539317Y0016310D01*
X0539176Y0016303D01*
X0539035Y0016300D01*
X0538894Y0016301D01*
X0538754Y0016306D01*
X0538613Y0016315D01*
X0538473Y0016328D01*
X0538333Y0016345D01*
X0538193Y0016365D01*
X0538055Y0016390D01*
X0537917Y0016419D01*
X0537780Y0016451D01*
X0537644Y0016487D01*
X0537509Y0016528D01*
X0537375Y0016572D01*
X0537242Y0016619D01*
X0537111Y0016671D01*
X0536981Y0016726D01*
X0536853Y0016784D01*
X0536727Y0016847D01*
X0536602Y0016912D01*
X0536480Y0016982D01*
X0536359Y0017054D01*
X0536240Y0017130D01*
X0536124Y0017210D01*
X0536010Y0017293D01*
X0535898Y0017378D01*
X0535789Y0017467D01*
X0535682Y0017559D01*
X0535578Y0017654D01*
X0535477Y0017752D01*
X0535378Y0017853D01*
X0535283Y0017956D01*
X0535190Y0018062D01*
X0535100Y0018171D01*
X0535014Y0018282D01*
X0534930Y0018395D01*
X0534850Y0018511D01*
X0534773Y0018629D01*
X0534700Y0018749D01*
X0534629Y0018872D01*
X0534563Y0018996D01*
X0534500Y0019122D01*
X0534440Y0019249D01*
X0534384Y0019378D01*
X0534332Y0019509D01*
X0534283Y0019641D01*
X0534238Y0019775D01*
X0534197Y0019910D01*
X0534160Y0020046D01*
X0534126Y0020182D01*
X0534097Y0020320D01*
X0534071Y0020459D01*
X0534050Y0020598D01*
X0534032Y0020738D01*
X0534018Y0020878D01*
X0534008Y0021018D01*
X0534002Y0021159D01*
X0534000Y0021300D01*
D11*
X0544000Y0001300D02*
X0019000Y0001300D01*
X0018638Y0001304D01*
X0018275Y0001318D01*
X0017913Y0001339D01*
X0017552Y0001370D01*
X0017192Y0001409D01*
X0016833Y0001457D01*
X0016475Y0001514D01*
X0016118Y0001579D01*
X0015763Y0001653D01*
X0015410Y0001736D01*
X0015059Y0001827D01*
X0014711Y0001926D01*
X0014365Y0002034D01*
X0014021Y0002150D01*
X0013681Y0002275D01*
X0013344Y0002407D01*
X0013010Y0002548D01*
X0012679Y0002697D01*
X0012352Y0002854D01*
X0012029Y0003018D01*
X0011710Y0003190D01*
X0011396Y0003370D01*
X0011085Y0003558D01*
X0010780Y0003753D01*
X0010479Y0003955D01*
X0010183Y0004165D01*
X0009893Y0004381D01*
X0009607Y0004605D01*
X0009327Y0004835D01*
X0009053Y0005072D01*
X0008785Y0005316D01*
X0008522Y0005566D01*
X0008266Y0005822D01*
X0008016Y0006085D01*
X0007772Y0006353D01*
X0007535Y0006627D01*
X0007305Y0006907D01*
X0007081Y0007193D01*
X0006865Y0007483D01*
X0006655Y0007779D01*
X0006453Y0008080D01*
X0006258Y0008385D01*
X0006070Y0008696D01*
X0005890Y0009010D01*
X0005718Y0009329D01*
X0005554Y0009652D01*
X0005397Y0009979D01*
X0005248Y0010310D01*
X0005107Y0010644D01*
X0004975Y0010981D01*
X0004850Y0011321D01*
X0004734Y0011665D01*
X0004626Y0012011D01*
X0004527Y0012359D01*
X0004436Y0012710D01*
X0004353Y0013063D01*
X0004279Y0013418D01*
X0004214Y0013775D01*
X0004157Y0014133D01*
X0004109Y0014492D01*
X0004070Y0014852D01*
X0004039Y0015213D01*
X0004018Y0015575D01*
X0004004Y0015938D01*
X0004000Y0016300D01*
X0004000Y0196300D01*
X0004004Y0196662D01*
X0004018Y0197025D01*
X0004039Y0197387D01*
X0004070Y0197748D01*
X0004109Y0198108D01*
X0004157Y0198467D01*
X0004214Y0198825D01*
X0004279Y0199182D01*
X0004353Y0199537D01*
X0004436Y0199890D01*
X0004527Y0200241D01*
X0004626Y0200589D01*
X0004734Y0200935D01*
X0004850Y0201279D01*
X0004975Y0201619D01*
X0005107Y0201956D01*
X0005248Y0202290D01*
X0005397Y0202621D01*
X0005554Y0202948D01*
X0005718Y0203271D01*
X0005890Y0203590D01*
X0006070Y0203904D01*
X0006258Y0204215D01*
X0006453Y0204520D01*
X0006655Y0204821D01*
X0006865Y0205117D01*
X0007081Y0205407D01*
X0007305Y0205693D01*
X0007535Y0205973D01*
X0007772Y0206247D01*
X0008016Y0206515D01*
X0008266Y0206778D01*
X0008522Y0207034D01*
X0008785Y0207284D01*
X0009053Y0207528D01*
X0009327Y0207765D01*
X0009607Y0207995D01*
X0009893Y0208219D01*
X0010183Y0208435D01*
X0010479Y0208645D01*
X0010780Y0208847D01*
X0011085Y0209042D01*
X0011396Y0209230D01*
X0011710Y0209410D01*
X0012029Y0209582D01*
X0012352Y0209746D01*
X0012679Y0209903D01*
X0013010Y0210052D01*
X0013344Y0210193D01*
X0013681Y0210325D01*
X0014021Y0210450D01*
X0014365Y0210566D01*
X0014711Y0210674D01*
X0015059Y0210773D01*
X0015410Y0210864D01*
X0015763Y0210947D01*
X0016118Y0211021D01*
X0016475Y0211086D01*
X0016833Y0211143D01*
X0017192Y0211191D01*
X0017552Y0211230D01*
X0017913Y0211261D01*
X0018275Y0211282D01*
X0018638Y0211296D01*
X0019000Y0211300D01*
X0544000Y0211300D01*
X0544484Y0211152D01*
X0544964Y0210993D01*
X0545440Y0210822D01*
X0545912Y0210640D01*
X0546380Y0210446D01*
X0546842Y0210241D01*
X0547299Y0210025D01*
X0547751Y0209797D01*
X0548198Y0209559D01*
X0548638Y0209310D01*
X0549072Y0209051D01*
X0549500Y0208781D01*
X0549921Y0208500D01*
X0550335Y0208210D01*
X0550742Y0207909D01*
X0551142Y0207599D01*
X0551534Y0207279D01*
X0551918Y0206950D01*
X0552294Y0206612D01*
X0552661Y0206264D01*
X0553021Y0205908D01*
X0553371Y0205543D01*
X0553712Y0205169D01*
X0554044Y0204788D01*
X0554367Y0204398D01*
X0554680Y0204001D01*
X0554984Y0203597D01*
X0555278Y0203185D01*
X0555561Y0202766D01*
X0555834Y0202340D01*
X0556097Y0201908D01*
X0556349Y0201469D01*
X0556591Y0201025D01*
X0556822Y0200574D01*
X0557041Y0200119D01*
X0557250Y0199658D01*
X0557447Y0199192D01*
X0557633Y0198722D01*
X0557808Y0198247D01*
X0557971Y0197768D01*
X0558122Y0197285D01*
X0558261Y0196799D01*
X0558389Y0196309D01*
X0558504Y0195817D01*
X0558608Y0195322D01*
X0558700Y0194824D01*
X0558779Y0194325D01*
X0558847Y0193823D01*
X0558902Y0193320D01*
X0558945Y0192816D01*
X0558975Y0192311D01*
X0558994Y0191806D01*
X0559000Y0191300D01*
X0559000Y0016300D01*
X0558996Y0015938D01*
X0558982Y0015575D01*
X0558961Y0015213D01*
X0558930Y0014852D01*
X0558891Y0014492D01*
X0558843Y0014133D01*
X0558786Y0013775D01*
X0558721Y0013418D01*
X0558647Y0013063D01*
X0558564Y0012710D01*
X0558473Y0012359D01*
X0558374Y0012011D01*
X0558266Y0011665D01*
X0558150Y0011321D01*
X0558025Y0010981D01*
X0557893Y0010644D01*
X0557752Y0010310D01*
X0557603Y0009979D01*
X0557446Y0009652D01*
X0557282Y0009329D01*
X0557110Y0009010D01*
X0556930Y0008696D01*
X0556742Y0008385D01*
X0556547Y0008080D01*
X0556345Y0007779D01*
X0556135Y0007483D01*
X0555919Y0007193D01*
X0555695Y0006907D01*
X0555465Y0006627D01*
X0555228Y0006353D01*
X0554984Y0006085D01*
X0554734Y0005822D01*
X0554478Y0005566D01*
X0554215Y0005316D01*
X0553947Y0005072D01*
X0553673Y0004835D01*
X0553393Y0004605D01*
X0553107Y0004381D01*
X0552817Y0004165D01*
X0552521Y0003955D01*
X0552220Y0003753D01*
X0551915Y0003558D01*
X0551604Y0003370D01*
X0551290Y0003190D01*
X0550971Y0003018D01*
X0550648Y0002854D01*
X0550321Y0002697D01*
X0549990Y0002548D01*
X0549656Y0002407D01*
X0549319Y0002275D01*
X0548979Y0002150D01*
X0548635Y0002034D01*
X0548289Y0001926D01*
X0547941Y0001827D01*
X0547590Y0001736D01*
X0547237Y0001653D01*
X0546882Y0001579D01*
X0546525Y0001514D01*
X0546167Y0001457D01*
X0545808Y0001409D01*
X0545448Y0001370D01*
X0545087Y0001339D01*
X0544725Y0001318D01*
X0544362Y0001304D01*
X0544000Y0001300D01*
X0488700Y0043100D02*
X0488700Y0045369D01*
X0487566Y0046503D01*
X0486431Y0045369D01*
X0486431Y0043100D01*
X0485017Y0043100D02*
X0485017Y0046503D01*
X0482748Y0043100D01*
X0482748Y0046503D01*
X0481334Y0044801D02*
X0479065Y0044801D01*
X0477651Y0043100D02*
X0476516Y0043100D01*
X0477083Y0043100D02*
X0477083Y0046503D01*
X0476516Y0046503D02*
X0477651Y0046503D01*
X0475195Y0046503D02*
X0472927Y0043100D01*
X0472927Y0046503D01*
X0471512Y0044801D02*
X0469243Y0044801D01*
X0467829Y0045369D02*
X0466695Y0046503D01*
X0466695Y0043100D01*
X0467829Y0043100D02*
X0465560Y0043100D01*
X0475195Y0043100D02*
X0475195Y0046503D01*
X0486431Y0044801D02*
X0488700Y0044801D01*
X0494000Y0074800D02*
X0404000Y0074800D01*
X0404000Y0097800D01*
X0494000Y0097800D01*
X0494000Y0090300D01*
X0486200Y0087503D02*
X0486200Y0084667D01*
X0485633Y0084100D01*
X0484499Y0084100D01*
X0483931Y0084667D01*
X0483931Y0087503D01*
X0482517Y0087503D02*
X0482517Y0084100D01*
X0480248Y0084100D01*
X0478834Y0084100D02*
X0478834Y0087503D01*
X0476565Y0084100D01*
X0476565Y0087503D01*
X0475151Y0086936D02*
X0474583Y0087503D01*
X0473449Y0087503D01*
X0472882Y0086936D01*
X0472882Y0086369D01*
X0475151Y0084100D01*
X0472882Y0084100D01*
X0471467Y0084667D02*
X0471467Y0085234D01*
X0470900Y0085801D01*
X0469766Y0085801D01*
X0469199Y0085234D01*
X0469199Y0084667D01*
X0469766Y0084100D01*
X0470900Y0084100D01*
X0471467Y0084667D01*
X0470900Y0085801D02*
X0471467Y0086369D01*
X0471467Y0086936D01*
X0470900Y0087503D01*
X0469766Y0087503D01*
X0469199Y0086936D01*
X0469199Y0086369D01*
X0469766Y0085801D01*
X0467784Y0084667D02*
X0467784Y0086936D01*
X0467217Y0087503D01*
X0466083Y0087503D01*
X0465516Y0086936D01*
X0467784Y0084667D01*
X0467217Y0084100D01*
X0466083Y0084100D01*
X0465516Y0084667D01*
X0465516Y0086936D01*
X0464101Y0086936D02*
X0463534Y0087503D01*
X0462400Y0087503D01*
X0461833Y0086936D01*
X0461833Y0086369D01*
X0462400Y0085801D01*
X0461833Y0085234D01*
X0461833Y0084667D01*
X0462400Y0084100D01*
X0463534Y0084100D01*
X0464101Y0084667D01*
X0462967Y0085801D02*
X0462400Y0085801D01*
X0494000Y0082300D02*
X0493874Y0082302D01*
X0493749Y0082308D01*
X0493624Y0082318D01*
X0493499Y0082332D01*
X0493374Y0082349D01*
X0493250Y0082371D01*
X0493127Y0082396D01*
X0493005Y0082426D01*
X0492884Y0082459D01*
X0492764Y0082496D01*
X0492645Y0082536D01*
X0492528Y0082581D01*
X0492411Y0082629D01*
X0492297Y0082681D01*
X0492184Y0082736D01*
X0492073Y0082795D01*
X0491964Y0082857D01*
X0491857Y0082923D01*
X0491752Y0082992D01*
X0491649Y0083064D01*
X0491548Y0083139D01*
X0491450Y0083218D01*
X0491355Y0083300D01*
X0491262Y0083384D01*
X0491172Y0083472D01*
X0491084Y0083562D01*
X0491000Y0083655D01*
X0490918Y0083750D01*
X0490839Y0083848D01*
X0490764Y0083949D01*
X0490692Y0084052D01*
X0490623Y0084157D01*
X0490557Y0084264D01*
X0490495Y0084373D01*
X0490436Y0084484D01*
X0490381Y0084597D01*
X0490329Y0084711D01*
X0490281Y0084828D01*
X0490236Y0084945D01*
X0490196Y0085064D01*
X0490159Y0085184D01*
X0490126Y0085305D01*
X0490096Y0085427D01*
X0490071Y0085550D01*
X0490049Y0085674D01*
X0490032Y0085799D01*
X0490018Y0085924D01*
X0490008Y0086049D01*
X0490002Y0086174D01*
X0490000Y0086300D01*
X0490002Y0086426D01*
X0490008Y0086551D01*
X0490018Y0086676D01*
X0490032Y0086801D01*
X0490049Y0086926D01*
X0490071Y0087050D01*
X0490096Y0087173D01*
X0490126Y0087295D01*
X0490159Y0087416D01*
X0490196Y0087536D01*
X0490236Y0087655D01*
X0490281Y0087772D01*
X0490329Y0087889D01*
X0490381Y0088003D01*
X0490436Y0088116D01*
X0490495Y0088227D01*
X0490557Y0088336D01*
X0490623Y0088443D01*
X0490692Y0088548D01*
X0490764Y0088651D01*
X0490839Y0088752D01*
X0490918Y0088850D01*
X0491000Y0088945D01*
X0491084Y0089038D01*
X0491172Y0089128D01*
X0491262Y0089216D01*
X0491355Y0089300D01*
X0491450Y0089382D01*
X0491548Y0089461D01*
X0491649Y0089536D01*
X0491752Y0089608D01*
X0491857Y0089677D01*
X0491964Y0089743D01*
X0492073Y0089805D01*
X0492184Y0089864D01*
X0492297Y0089919D01*
X0492411Y0089971D01*
X0492528Y0090019D01*
X0492645Y0090064D01*
X0492764Y0090104D01*
X0492884Y0090141D01*
X0493005Y0090174D01*
X0493127Y0090204D01*
X0493250Y0090229D01*
X0493374Y0090251D01*
X0493499Y0090268D01*
X0493624Y0090282D01*
X0493749Y0090292D01*
X0493874Y0090298D01*
X0494000Y0090300D01*
X0495300Y0083007D02*
X0495300Y0080739D01*
X0497569Y0083007D01*
X0498136Y0083007D01*
X0498703Y0082440D01*
X0498703Y0081306D01*
X0498136Y0080739D01*
X0498136Y0079324D02*
X0498703Y0078757D01*
X0498703Y0077623D01*
X0498136Y0077055D01*
X0495867Y0077055D01*
X0495300Y0077623D01*
X0495300Y0078757D01*
X0495867Y0079324D01*
X0494000Y0082300D02*
X0494000Y0074800D01*
X0495300Y0074600D02*
X0495300Y0075734D01*
X0495300Y0075167D02*
X0498703Y0075167D01*
X0498703Y0074600D02*
X0498703Y0075734D01*
X0514500Y0082800D02*
X0514500Y0084300D01*
X0515000Y0084800D01*
X0515000Y0098800D01*
X0514500Y0099300D01*
X0514500Y0100800D01*
X0514502Y0100860D01*
X0514507Y0100921D01*
X0514516Y0100980D01*
X0514529Y0101039D01*
X0514545Y0101098D01*
X0514565Y0101155D01*
X0514588Y0101210D01*
X0514615Y0101265D01*
X0514644Y0101317D01*
X0514677Y0101368D01*
X0514713Y0101417D01*
X0514751Y0101463D01*
X0514793Y0101507D01*
X0514837Y0101549D01*
X0514883Y0101587D01*
X0514932Y0101623D01*
X0514983Y0101656D01*
X0515035Y0101685D01*
X0515090Y0101712D01*
X0515145Y0101735D01*
X0515202Y0101755D01*
X0515261Y0101771D01*
X0515320Y0101784D01*
X0515379Y0101793D01*
X0515440Y0101798D01*
X0515500Y0101800D01*
X0521500Y0101800D01*
X0521560Y0101798D01*
X0521621Y0101793D01*
X0521680Y0101784D01*
X0521739Y0101771D01*
X0521798Y0101755D01*
X0521855Y0101735D01*
X0521910Y0101712D01*
X0521965Y0101685D01*
X0522017Y0101656D01*
X0522068Y0101623D01*
X0522117Y0101587D01*
X0522163Y0101549D01*
X0522207Y0101507D01*
X0522249Y0101463D01*
X0522287Y0101417D01*
X0522323Y0101368D01*
X0522356Y0101317D01*
X0522385Y0101265D01*
X0522412Y0101210D01*
X0522435Y0101155D01*
X0522455Y0101098D01*
X0522471Y0101039D01*
X0522484Y0100980D01*
X0522493Y0100921D01*
X0522498Y0100860D01*
X0522500Y0100800D01*
X0522500Y0099300D01*
X0522000Y0098800D01*
X0522000Y0084800D01*
X0522500Y0084300D01*
X0522500Y0082800D01*
X0522498Y0082740D01*
X0522493Y0082679D01*
X0522484Y0082620D01*
X0522471Y0082561D01*
X0522455Y0082502D01*
X0522435Y0082445D01*
X0522412Y0082390D01*
X0522385Y0082335D01*
X0522356Y0082283D01*
X0522323Y0082232D01*
X0522287Y0082183D01*
X0522249Y0082137D01*
X0522207Y0082093D01*
X0522163Y0082051D01*
X0522117Y0082013D01*
X0522068Y0081977D01*
X0522017Y0081944D01*
X0521965Y0081915D01*
X0521910Y0081888D01*
X0521855Y0081865D01*
X0521798Y0081845D01*
X0521739Y0081829D01*
X0521680Y0081816D01*
X0521621Y0081807D01*
X0521560Y0081802D01*
X0521500Y0081800D01*
X0515500Y0081800D01*
X0515440Y0081802D01*
X0515379Y0081807D01*
X0515320Y0081816D01*
X0515261Y0081829D01*
X0515202Y0081845D01*
X0515145Y0081865D01*
X0515090Y0081888D01*
X0515035Y0081915D01*
X0514983Y0081944D01*
X0514932Y0081977D01*
X0514883Y0082013D01*
X0514837Y0082051D01*
X0514793Y0082093D01*
X0514751Y0082137D01*
X0514713Y0082183D01*
X0514677Y0082232D01*
X0514644Y0082283D01*
X0514615Y0082335D01*
X0514588Y0082390D01*
X0514565Y0082445D01*
X0514545Y0082502D01*
X0514529Y0082561D01*
X0514516Y0082620D01*
X0514507Y0082679D01*
X0514502Y0082740D01*
X0514500Y0082800D01*
X0499203Y0120100D02*
X0495800Y0120100D01*
X0496934Y0120100D02*
X0496934Y0121801D01*
X0497501Y0122369D01*
X0498636Y0122369D01*
X0499203Y0121801D01*
X0499203Y0120100D01*
X0496934Y0121234D02*
X0495800Y0122369D01*
X0495800Y0123783D02*
X0499203Y0123783D01*
X0495800Y0126052D01*
X0499203Y0126052D01*
X0498636Y0127466D02*
X0499203Y0128033D01*
X0499203Y0129168D01*
X0498636Y0129735D01*
X0498069Y0129735D01*
X0495800Y0127466D01*
X0495800Y0129735D01*
X0494000Y0129300D02*
X0494000Y0119800D01*
X0414000Y0119800D01*
X0414000Y0142800D01*
X0494000Y0142800D01*
X0494000Y0133800D01*
X0493907Y0133798D01*
X0493814Y0133792D01*
X0493722Y0133783D01*
X0493630Y0133769D01*
X0493538Y0133752D01*
X0493448Y0133731D01*
X0493358Y0133706D01*
X0493269Y0133678D01*
X0493182Y0133646D01*
X0493096Y0133610D01*
X0493012Y0133571D01*
X0492929Y0133529D01*
X0492848Y0133483D01*
X0492769Y0133434D01*
X0492693Y0133381D01*
X0492618Y0133326D01*
X0492546Y0133267D01*
X0492476Y0133205D01*
X0492409Y0133141D01*
X0492345Y0133074D01*
X0492283Y0133004D01*
X0492224Y0132932D01*
X0492169Y0132857D01*
X0492116Y0132781D01*
X0492067Y0132702D01*
X0492021Y0132621D01*
X0491979Y0132538D01*
X0491940Y0132454D01*
X0491904Y0132368D01*
X0491872Y0132281D01*
X0491844Y0132192D01*
X0491819Y0132102D01*
X0491798Y0132012D01*
X0491781Y0131920D01*
X0491767Y0131828D01*
X0491758Y0131736D01*
X0491752Y0131643D01*
X0491750Y0131550D01*
X0491752Y0131457D01*
X0491758Y0131364D01*
X0491767Y0131272D01*
X0491781Y0131180D01*
X0491798Y0131088D01*
X0491819Y0130998D01*
X0491844Y0130908D01*
X0491872Y0130819D01*
X0491904Y0130732D01*
X0491940Y0130646D01*
X0491979Y0130562D01*
X0492021Y0130479D01*
X0492067Y0130398D01*
X0492116Y0130319D01*
X0492169Y0130243D01*
X0492224Y0130168D01*
X0492283Y0130096D01*
X0492345Y0130026D01*
X0492409Y0129959D01*
X0492476Y0129895D01*
X0492546Y0129833D01*
X0492618Y0129774D01*
X0492693Y0129719D01*
X0492769Y0129666D01*
X0492848Y0129617D01*
X0492929Y0129571D01*
X0493012Y0129529D01*
X0493096Y0129490D01*
X0493182Y0129454D01*
X0493269Y0129422D01*
X0493358Y0129394D01*
X0493448Y0129369D01*
X0493538Y0129348D01*
X0493630Y0129331D01*
X0493722Y0129317D01*
X0493814Y0129308D01*
X0493907Y0129302D01*
X0494000Y0129300D01*
X0410703Y0127168D02*
X0410136Y0127735D01*
X0407867Y0125466D01*
X0407300Y0126033D01*
X0407300Y0127168D01*
X0407867Y0127735D01*
X0410136Y0127735D01*
X0410703Y0127168D02*
X0410703Y0126033D01*
X0410136Y0125466D01*
X0407867Y0125466D01*
X0407867Y0124052D02*
X0407300Y0123485D01*
X0407300Y0122350D01*
X0407867Y0121783D01*
X0407867Y0120369D02*
X0407300Y0119801D01*
X0407300Y0118667D01*
X0407867Y0118100D01*
X0409001Y0119234D02*
X0409001Y0119801D01*
X0408434Y0120369D01*
X0407867Y0120369D01*
X0409001Y0119801D02*
X0409569Y0120369D01*
X0410136Y0120369D01*
X0410703Y0119801D01*
X0410703Y0118667D01*
X0410136Y0118100D01*
X0410136Y0121783D02*
X0410703Y0122350D01*
X0410703Y0123485D01*
X0410136Y0124052D01*
X0409569Y0124052D01*
X0409001Y0123485D01*
X0408434Y0124052D01*
X0407867Y0124052D01*
X0409001Y0123485D02*
X0409001Y0122917D01*
X0515748Y0172667D02*
X0516315Y0172100D01*
X0517450Y0172100D01*
X0518017Y0172667D01*
X0518017Y0173801D02*
X0516883Y0174369D01*
X0516315Y0174369D01*
X0515748Y0173801D01*
X0515748Y0172667D01*
X0518017Y0173801D02*
X0518017Y0175503D01*
X0515748Y0175503D01*
X0519431Y0175503D02*
X0520566Y0175503D01*
X0519999Y0175503D02*
X0519999Y0172667D01*
X0520566Y0172100D01*
X0521133Y0172100D01*
X0521700Y0172667D01*
X0526649Y0173234D02*
X0527784Y0172100D01*
X0528918Y0173234D01*
X0528918Y0175503D01*
X0530333Y0175503D02*
X0532601Y0175503D01*
X0532601Y0173801D01*
X0531467Y0174369D01*
X0530900Y0174369D01*
X0530333Y0173801D01*
X0530333Y0172667D01*
X0530900Y0172100D01*
X0532034Y0172100D01*
X0532601Y0172667D01*
X0534016Y0173801D02*
X0536284Y0173801D01*
X0537699Y0173801D02*
X0537699Y0174936D01*
X0538266Y0175503D01*
X0539967Y0175503D01*
X0539967Y0172100D01*
X0539967Y0173234D02*
X0538266Y0173234D01*
X0537699Y0173801D01*
X0538833Y0173234D02*
X0537699Y0172100D01*
X0541382Y0172100D02*
X0543651Y0172100D01*
X0543651Y0175503D01*
X0541382Y0175503D01*
X0542516Y0173801D02*
X0543651Y0173801D01*
X0545065Y0172100D02*
X0546199Y0173234D01*
X0547334Y0172100D01*
X0547334Y0175503D01*
X0548748Y0174936D02*
X0548748Y0172667D01*
X0549315Y0172100D01*
X0550450Y0172100D01*
X0551017Y0172667D01*
X0551017Y0174936D01*
X0550450Y0175503D01*
X0549315Y0175503D01*
X0548748Y0174936D01*
X0552431Y0174936D02*
X0552431Y0173801D01*
X0552999Y0173234D01*
X0554700Y0173234D01*
X0554700Y0172100D02*
X0554700Y0175503D01*
X0552999Y0175503D01*
X0552431Y0174936D01*
X0545065Y0175503D02*
X0545065Y0172100D01*
X0526649Y0173234D02*
X0526649Y0175503D01*
X0368366Y0060703D02*
X0367231Y0060703D01*
X0367799Y0060703D02*
X0367799Y0057867D01*
X0368366Y0057300D01*
X0368933Y0057300D01*
X0369500Y0057867D01*
X0365817Y0057867D02*
X0365817Y0057300D01*
X0365817Y0057867D02*
X0363548Y0060136D01*
X0363548Y0060703D01*
X0365817Y0060703D01*
X0365517Y0046003D02*
X0363248Y0042600D01*
X0363248Y0046003D01*
X0361834Y0044301D02*
X0359565Y0044301D01*
X0358151Y0042600D02*
X0357016Y0042600D01*
X0357583Y0042600D02*
X0357583Y0046003D01*
X0357016Y0046003D02*
X0358151Y0046003D01*
X0355695Y0046003D02*
X0353427Y0042600D01*
X0353427Y0046003D01*
X0352012Y0044301D02*
X0349743Y0044301D01*
X0348329Y0045436D02*
X0347762Y0046003D01*
X0346627Y0046003D01*
X0346060Y0045436D01*
X0346060Y0044869D01*
X0348329Y0042600D01*
X0346060Y0042600D01*
X0355695Y0042600D02*
X0355695Y0046003D01*
X0365517Y0046003D02*
X0365517Y0042600D01*
X0366931Y0042600D02*
X0366931Y0044869D01*
X0368066Y0046003D01*
X0369200Y0044869D01*
X0369200Y0042600D01*
X0369200Y0044301D02*
X0366931Y0044301D01*
X0250200Y0043869D02*
X0250200Y0041600D01*
X0250200Y0043301D02*
X0247931Y0043301D01*
X0247931Y0043869D02*
X0247931Y0041600D01*
X0246517Y0041600D02*
X0246517Y0045003D01*
X0244248Y0041600D01*
X0244248Y0045003D01*
X0242834Y0043301D02*
X0240565Y0043301D01*
X0239151Y0041600D02*
X0238016Y0041600D01*
X0238583Y0041600D02*
X0238583Y0045003D01*
X0238016Y0045003D02*
X0239151Y0045003D01*
X0236695Y0045003D02*
X0234427Y0041600D01*
X0234427Y0045003D01*
X0233012Y0043301D02*
X0230743Y0043301D01*
X0229329Y0042167D02*
X0228762Y0041600D01*
X0227627Y0041600D01*
X0227060Y0042167D01*
X0227060Y0042734D01*
X0227627Y0043301D01*
X0228195Y0043301D01*
X0227627Y0043301D02*
X0227060Y0043869D01*
X0227060Y0044436D01*
X0227627Y0045003D01*
X0228762Y0045003D01*
X0229329Y0044436D01*
X0236695Y0045003D02*
X0236695Y0041600D01*
X0247931Y0043869D02*
X0249066Y0045003D01*
X0250200Y0043869D01*
X0249433Y0057300D02*
X0248866Y0057300D01*
X0248299Y0057867D01*
X0248299Y0060703D01*
X0248866Y0060703D02*
X0247731Y0060703D01*
X0246317Y0060136D02*
X0246317Y0059569D01*
X0245750Y0059001D01*
X0244615Y0059001D01*
X0244048Y0058434D01*
X0244048Y0057867D01*
X0244615Y0057300D01*
X0245750Y0057300D01*
X0246317Y0057867D01*
X0246317Y0058434D01*
X0245750Y0059001D01*
X0244615Y0059001D02*
X0244048Y0059569D01*
X0244048Y0060136D01*
X0244615Y0060703D01*
X0245750Y0060703D01*
X0246317Y0060136D01*
X0249433Y0057300D02*
X0250000Y0057867D01*
X0131200Y0044869D02*
X0131200Y0042600D01*
X0131200Y0044301D02*
X0128931Y0044301D01*
X0128931Y0044869D02*
X0128931Y0042600D01*
X0127517Y0042600D02*
X0127517Y0046003D01*
X0125248Y0042600D01*
X0125248Y0046003D01*
X0123834Y0044301D02*
X0121565Y0044301D01*
X0120151Y0042600D02*
X0119016Y0042600D01*
X0119583Y0042600D02*
X0119583Y0046003D01*
X0119016Y0046003D02*
X0120151Y0046003D01*
X0117695Y0046003D02*
X0115427Y0042600D01*
X0115427Y0046003D01*
X0114012Y0044301D02*
X0111743Y0044301D01*
X0110329Y0044301D02*
X0108060Y0044301D01*
X0108627Y0042600D02*
X0108627Y0046003D01*
X0110329Y0044301D01*
X0117695Y0042600D02*
X0117695Y0046003D01*
X0128931Y0044869D02*
X0130066Y0046003D01*
X0131200Y0044869D01*
X0129433Y0056800D02*
X0128866Y0056800D01*
X0128299Y0057367D01*
X0128299Y0060203D01*
X0128866Y0060203D02*
X0127731Y0060203D01*
X0126317Y0059636D02*
X0126317Y0059069D01*
X0125750Y0058501D01*
X0124048Y0058501D01*
X0124048Y0057367D02*
X0124048Y0059636D01*
X0124615Y0060203D01*
X0125750Y0060203D01*
X0126317Y0059636D01*
X0126317Y0057367D02*
X0125750Y0056800D01*
X0124615Y0056800D01*
X0124048Y0057367D01*
X0129433Y0056800D02*
X0130000Y0057367D01*
X0123703Y0074600D02*
X0123703Y0075734D01*
X0123703Y0075167D02*
X0120300Y0075167D01*
X0120300Y0074600D02*
X0120300Y0075734D01*
X0120867Y0077055D02*
X0120300Y0077623D01*
X0120300Y0078757D01*
X0120867Y0079324D01*
X0120300Y0080739D02*
X0120300Y0083007D01*
X0120300Y0081873D02*
X0123703Y0081873D01*
X0122569Y0080739D01*
X0123136Y0079324D02*
X0123703Y0078757D01*
X0123703Y0077623D01*
X0123136Y0077055D01*
X0120867Y0077055D01*
X0119000Y0074800D02*
X0119000Y0082300D01*
X0111200Y0084667D02*
X0110633Y0084100D01*
X0109499Y0084100D01*
X0108931Y0084667D01*
X0108931Y0087503D01*
X0107517Y0087503D02*
X0107517Y0084100D01*
X0105248Y0084100D01*
X0103834Y0084100D02*
X0103834Y0087503D01*
X0101565Y0084100D01*
X0101565Y0087503D01*
X0100151Y0086936D02*
X0099583Y0087503D01*
X0098449Y0087503D01*
X0097882Y0086936D01*
X0097882Y0086369D01*
X0100151Y0084100D01*
X0097882Y0084100D01*
X0096467Y0084667D02*
X0096467Y0085234D01*
X0095900Y0085801D01*
X0094766Y0085801D01*
X0094199Y0085234D01*
X0094199Y0084667D01*
X0094766Y0084100D01*
X0095900Y0084100D01*
X0096467Y0084667D01*
X0095900Y0085801D02*
X0096467Y0086369D01*
X0096467Y0086936D01*
X0095900Y0087503D01*
X0094766Y0087503D01*
X0094199Y0086936D01*
X0094199Y0086369D01*
X0094766Y0085801D01*
X0092784Y0084667D02*
X0092784Y0086936D01*
X0092217Y0087503D01*
X0091083Y0087503D01*
X0090516Y0086936D01*
X0092784Y0084667D01*
X0092217Y0084100D01*
X0091083Y0084100D01*
X0090516Y0084667D01*
X0090516Y0086936D01*
X0089101Y0086936D02*
X0088534Y0087503D01*
X0087400Y0087503D01*
X0086833Y0086936D01*
X0086833Y0086369D01*
X0087400Y0085801D01*
X0086833Y0085234D01*
X0086833Y0084667D01*
X0087400Y0084100D01*
X0088534Y0084100D01*
X0089101Y0084667D01*
X0087967Y0085801D02*
X0087400Y0085801D01*
X0111200Y0084667D02*
X0111200Y0087503D01*
X0119000Y0090300D02*
X0118874Y0090298D01*
X0118749Y0090292D01*
X0118624Y0090282D01*
X0118499Y0090268D01*
X0118374Y0090251D01*
X0118250Y0090229D01*
X0118127Y0090204D01*
X0118005Y0090174D01*
X0117884Y0090141D01*
X0117764Y0090104D01*
X0117645Y0090064D01*
X0117528Y0090019D01*
X0117411Y0089971D01*
X0117297Y0089919D01*
X0117184Y0089864D01*
X0117073Y0089805D01*
X0116964Y0089743D01*
X0116857Y0089677D01*
X0116752Y0089608D01*
X0116649Y0089536D01*
X0116548Y0089461D01*
X0116450Y0089382D01*
X0116355Y0089300D01*
X0116262Y0089216D01*
X0116172Y0089128D01*
X0116084Y0089038D01*
X0116000Y0088945D01*
X0115918Y0088850D01*
X0115839Y0088752D01*
X0115764Y0088651D01*
X0115692Y0088548D01*
X0115623Y0088443D01*
X0115557Y0088336D01*
X0115495Y0088227D01*
X0115436Y0088116D01*
X0115381Y0088003D01*
X0115329Y0087889D01*
X0115281Y0087772D01*
X0115236Y0087655D01*
X0115196Y0087536D01*
X0115159Y0087416D01*
X0115126Y0087295D01*
X0115096Y0087173D01*
X0115071Y0087050D01*
X0115049Y0086926D01*
X0115032Y0086801D01*
X0115018Y0086676D01*
X0115008Y0086551D01*
X0115002Y0086426D01*
X0115000Y0086300D01*
X0115002Y0086174D01*
X0115008Y0086049D01*
X0115018Y0085924D01*
X0115032Y0085799D01*
X0115049Y0085674D01*
X0115071Y0085550D01*
X0115096Y0085427D01*
X0115126Y0085305D01*
X0115159Y0085184D01*
X0115196Y0085064D01*
X0115236Y0084945D01*
X0115281Y0084828D01*
X0115329Y0084711D01*
X0115381Y0084597D01*
X0115436Y0084484D01*
X0115495Y0084373D01*
X0115557Y0084264D01*
X0115623Y0084157D01*
X0115692Y0084052D01*
X0115764Y0083949D01*
X0115839Y0083848D01*
X0115918Y0083750D01*
X0116000Y0083655D01*
X0116084Y0083562D01*
X0116172Y0083472D01*
X0116262Y0083384D01*
X0116355Y0083300D01*
X0116450Y0083218D01*
X0116548Y0083139D01*
X0116649Y0083064D01*
X0116752Y0082992D01*
X0116857Y0082923D01*
X0116964Y0082857D01*
X0117073Y0082795D01*
X0117184Y0082736D01*
X0117297Y0082681D01*
X0117411Y0082629D01*
X0117528Y0082581D01*
X0117645Y0082536D01*
X0117764Y0082496D01*
X0117884Y0082459D01*
X0118005Y0082426D01*
X0118127Y0082396D01*
X0118250Y0082371D01*
X0118374Y0082349D01*
X0118499Y0082332D01*
X0118624Y0082318D01*
X0118749Y0082308D01*
X0118874Y0082302D01*
X0119000Y0082300D01*
X0119000Y0074800D02*
X0029000Y0074800D01*
X0029000Y0097800D01*
X0119000Y0097800D01*
X0119000Y0090300D01*
X0114203Y0120100D02*
X0114203Y0121801D01*
X0113636Y0122369D01*
X0112501Y0122369D01*
X0111934Y0121801D01*
X0111934Y0120100D01*
X0110800Y0120100D02*
X0114203Y0120100D01*
X0111934Y0121234D02*
X0110800Y0122369D01*
X0110800Y0123783D02*
X0114203Y0123783D01*
X0110800Y0126052D01*
X0114203Y0126052D01*
X0113069Y0127466D02*
X0114203Y0128601D01*
X0110800Y0128601D01*
X0110800Y0129735D02*
X0110800Y0127466D01*
X0109000Y0129300D02*
X0109000Y0119800D01*
X0029000Y0119800D01*
X0029000Y0142800D01*
X0109000Y0142800D01*
X0109000Y0133800D01*
X0108907Y0133798D01*
X0108814Y0133792D01*
X0108722Y0133783D01*
X0108630Y0133769D01*
X0108538Y0133752D01*
X0108448Y0133731D01*
X0108358Y0133706D01*
X0108269Y0133678D01*
X0108182Y0133646D01*
X0108096Y0133610D01*
X0108012Y0133571D01*
X0107929Y0133529D01*
X0107848Y0133483D01*
X0107769Y0133434D01*
X0107693Y0133381D01*
X0107618Y0133326D01*
X0107546Y0133267D01*
X0107476Y0133205D01*
X0107409Y0133141D01*
X0107345Y0133074D01*
X0107283Y0133004D01*
X0107224Y0132932D01*
X0107169Y0132857D01*
X0107116Y0132781D01*
X0107067Y0132702D01*
X0107021Y0132621D01*
X0106979Y0132538D01*
X0106940Y0132454D01*
X0106904Y0132368D01*
X0106872Y0132281D01*
X0106844Y0132192D01*
X0106819Y0132102D01*
X0106798Y0132012D01*
X0106781Y0131920D01*
X0106767Y0131828D01*
X0106758Y0131736D01*
X0106752Y0131643D01*
X0106750Y0131550D01*
X0106752Y0131457D01*
X0106758Y0131364D01*
X0106767Y0131272D01*
X0106781Y0131180D01*
X0106798Y0131088D01*
X0106819Y0130998D01*
X0106844Y0130908D01*
X0106872Y0130819D01*
X0106904Y0130732D01*
X0106940Y0130646D01*
X0106979Y0130562D01*
X0107021Y0130479D01*
X0107067Y0130398D01*
X0107116Y0130319D01*
X0107169Y0130243D01*
X0107224Y0130168D01*
X0107283Y0130096D01*
X0107345Y0130026D01*
X0107409Y0129959D01*
X0107476Y0129895D01*
X0107546Y0129833D01*
X0107618Y0129774D01*
X0107693Y0129719D01*
X0107769Y0129666D01*
X0107848Y0129617D01*
X0107929Y0129571D01*
X0108012Y0129529D01*
X0108096Y0129490D01*
X0108182Y0129454D01*
X0108269Y0129422D01*
X0108358Y0129394D01*
X0108448Y0129369D01*
X0108538Y0129348D01*
X0108630Y0129331D01*
X0108722Y0129317D01*
X0108814Y0129308D01*
X0108907Y0129302D01*
X0109000Y0129300D01*
X0025703Y0127168D02*
X0025136Y0127735D01*
X0022867Y0125466D01*
X0022300Y0126033D01*
X0022300Y0127168D01*
X0022867Y0127735D01*
X0025136Y0127735D01*
X0025703Y0127168D02*
X0025703Y0126033D01*
X0025136Y0125466D01*
X0022867Y0125466D01*
X0022367Y0125685D02*
X0021800Y0125118D01*
X0021800Y0123984D01*
X0022367Y0123417D01*
X0024636Y0125685D01*
X0022367Y0125685D01*
X0022867Y0124052D02*
X0022300Y0123485D01*
X0022300Y0122350D01*
X0022867Y0121783D01*
X0021800Y0122002D02*
X0021800Y0119734D01*
X0022300Y0119801D02*
X0022300Y0118667D01*
X0022867Y0118100D01*
X0022367Y0117752D02*
X0025203Y0117752D01*
X0025136Y0118100D02*
X0025703Y0118667D01*
X0025703Y0119801D01*
X0025136Y0120369D01*
X0024569Y0120369D01*
X0024001Y0119801D01*
X0023434Y0120369D01*
X0022867Y0120369D01*
X0022300Y0119801D01*
X0021800Y0120868D02*
X0025203Y0120868D01*
X0024069Y0119734D01*
X0024001Y0119801D02*
X0024001Y0119234D01*
X0025203Y0118319D02*
X0025203Y0117185D01*
X0022367Y0117752D02*
X0021800Y0117185D01*
X0021800Y0116618D01*
X0022367Y0116051D01*
X0025136Y0121783D02*
X0025703Y0122350D01*
X0025703Y0123485D01*
X0025136Y0124052D01*
X0024569Y0124052D01*
X0024001Y0123485D01*
X0023434Y0124052D01*
X0022867Y0124052D01*
X0022367Y0123417D02*
X0024636Y0123417D01*
X0025203Y0123984D01*
X0025203Y0125118D01*
X0024636Y0125685D01*
X0024001Y0123485D02*
X0024001Y0122917D01*
X0208115Y0203667D02*
X0208682Y0203100D01*
X0209816Y0203100D01*
X0210383Y0203667D01*
X0209249Y0204801D02*
X0208682Y0204801D01*
X0208115Y0204234D01*
X0208115Y0203667D01*
X0208682Y0204801D02*
X0208115Y0205369D01*
X0208115Y0205936D01*
X0208682Y0206503D01*
X0209816Y0206503D01*
X0210383Y0205936D01*
X0211798Y0206503D02*
X0212932Y0206503D01*
X0212365Y0206503D02*
X0212365Y0203667D01*
X0212932Y0203100D01*
X0213499Y0203100D01*
X0214066Y0203667D01*
D12*
X0143000Y0146300D02*
X0383000Y0146300D01*
X0383000Y0076300D01*
X0143000Y0076300D01*
X0143000Y0096300D01*
X0138000Y0096300D01*
X0138000Y0121300D01*
X0143000Y0121300D01*
X0143000Y0146300D01*
X0105500Y0136300D02*
X0104000Y0137300D01*
X0104000Y0141300D01*
X0105500Y0136300D02*
X0102500Y0134800D01*
X0105500Y0133800D01*
X0102500Y0132800D01*
X0105500Y0131300D01*
X0102500Y0129800D01*
X0105500Y0128800D01*
X0102500Y0127800D01*
X0105500Y0126300D01*
X0104000Y0125300D01*
X0104000Y0121300D01*
X0095500Y0126300D02*
X0094000Y0125300D01*
X0094000Y0121300D01*
X0095500Y0126300D02*
X0092500Y0127800D01*
X0095500Y0128800D01*
X0092500Y0129800D01*
X0095500Y0131300D01*
X0092500Y0132800D01*
X0095500Y0133800D01*
X0092500Y0134800D01*
X0095500Y0136300D01*
X0094000Y0137300D01*
X0094000Y0141300D01*
X0085500Y0136300D02*
X0084000Y0137300D01*
X0084000Y0141300D01*
X0085500Y0136300D02*
X0082500Y0134800D01*
X0085500Y0133800D01*
X0082500Y0132800D01*
X0085500Y0131300D01*
X0082500Y0129800D01*
X0085500Y0128800D01*
X0082500Y0127800D01*
X0085500Y0126300D01*
X0084000Y0125300D01*
X0084000Y0121300D01*
X0075500Y0126300D02*
X0074000Y0125300D01*
X0074000Y0121300D01*
X0065500Y0126300D02*
X0064000Y0125300D01*
X0064000Y0121300D01*
X0065500Y0126300D02*
X0062500Y0127800D01*
X0065500Y0128800D01*
X0062500Y0129800D01*
X0065500Y0131300D01*
X0062500Y0132800D01*
X0065500Y0133800D01*
X0062500Y0134800D01*
X0065500Y0136300D01*
X0064000Y0137300D01*
X0064000Y0141300D01*
X0074000Y0141300D02*
X0074000Y0137300D01*
X0075500Y0136300D01*
X0072500Y0134800D01*
X0075500Y0133800D01*
X0072500Y0132800D01*
X0075500Y0131300D01*
X0072500Y0129800D01*
X0075500Y0128800D01*
X0072500Y0127800D01*
X0075500Y0126300D01*
X0055500Y0126300D02*
X0054000Y0125300D01*
X0054000Y0121300D01*
X0055500Y0126300D02*
X0052500Y0127800D01*
X0055500Y0128800D01*
X0052500Y0129800D01*
X0055500Y0131300D01*
X0052500Y0132800D01*
X0055500Y0133800D01*
X0052500Y0134800D01*
X0055500Y0136300D01*
X0054000Y0137300D01*
X0054000Y0141300D01*
X0045500Y0136300D02*
X0044000Y0137300D01*
X0044000Y0141300D01*
X0045500Y0136300D02*
X0042500Y0134800D01*
X0045500Y0133800D01*
X0042500Y0132800D01*
X0045500Y0131300D01*
X0042500Y0129800D01*
X0045500Y0128800D01*
X0042500Y0127800D01*
X0045500Y0126300D01*
X0044000Y0125300D01*
X0044000Y0121300D01*
X0035500Y0126300D02*
X0034000Y0125300D01*
X0034000Y0121300D01*
X0035500Y0126300D02*
X0032500Y0127800D01*
X0035500Y0128800D01*
X0032500Y0129800D01*
X0035500Y0131300D01*
X0032500Y0132800D01*
X0035500Y0133800D01*
X0032500Y0134800D01*
X0035500Y0136300D01*
X0034000Y0137300D01*
X0034000Y0141300D01*
X0143000Y0121300D02*
X0143000Y0096300D01*
X0417500Y0127800D02*
X0420500Y0126300D01*
X0419000Y0125300D01*
X0419000Y0121300D01*
X0429000Y0121300D02*
X0429000Y0125300D01*
X0430500Y0126300D01*
X0427500Y0127800D01*
X0430500Y0128800D01*
X0427500Y0129800D01*
X0430500Y0131300D01*
X0427500Y0132800D01*
X0430500Y0133800D01*
X0427500Y0134800D01*
X0430500Y0136300D01*
X0429000Y0137300D01*
X0429000Y0141300D01*
X0420500Y0136300D02*
X0419000Y0137300D01*
X0419000Y0141300D01*
X0420500Y0136300D02*
X0417500Y0134800D01*
X0420500Y0133800D01*
X0417500Y0132800D01*
X0420500Y0131300D01*
X0417500Y0129800D01*
X0420500Y0128800D01*
X0417500Y0127800D01*
X0437500Y0127800D02*
X0440500Y0126300D01*
X0439000Y0125300D01*
X0439000Y0121300D01*
X0449000Y0121300D02*
X0449000Y0125300D01*
X0450500Y0126300D01*
X0447500Y0127800D01*
X0450500Y0128800D01*
X0447500Y0129800D01*
X0450500Y0131300D01*
X0447500Y0132800D01*
X0450500Y0133800D01*
X0447500Y0134800D01*
X0450500Y0136300D01*
X0449000Y0137300D01*
X0449000Y0141300D01*
X0439000Y0141300D02*
X0439000Y0137300D01*
X0440500Y0136300D01*
X0437500Y0134800D01*
X0440500Y0133800D01*
X0437500Y0132800D01*
X0440500Y0131300D01*
X0437500Y0129800D01*
X0440500Y0128800D01*
X0437500Y0127800D01*
X0457500Y0127800D02*
X0460500Y0126300D01*
X0459000Y0125300D01*
X0459000Y0121300D01*
X0469000Y0121300D02*
X0469000Y0125300D01*
X0470500Y0126300D01*
X0467500Y0127800D01*
X0470500Y0128800D01*
X0467500Y0129800D01*
X0470500Y0131300D01*
X0467500Y0132800D01*
X0470500Y0133800D01*
X0467500Y0134800D01*
X0470500Y0136300D01*
X0469000Y0137300D01*
X0469000Y0141300D01*
X0460500Y0136300D02*
X0459000Y0137300D01*
X0459000Y0141300D01*
X0460500Y0136300D02*
X0457500Y0134800D01*
X0460500Y0133800D01*
X0457500Y0132800D01*
X0460500Y0131300D01*
X0457500Y0129800D01*
X0460500Y0128800D01*
X0457500Y0127800D01*
X0477500Y0127800D02*
X0480500Y0126300D01*
X0479000Y0125300D01*
X0479000Y0121300D01*
X0489000Y0121300D02*
X0489000Y0125300D01*
X0490500Y0126300D01*
X0487500Y0127800D01*
X0490500Y0128800D01*
X0487500Y0129800D01*
X0490500Y0131300D01*
X0487500Y0132800D01*
X0490500Y0133800D01*
X0487500Y0134800D01*
X0490500Y0136300D01*
X0489000Y0137300D01*
X0489000Y0141300D01*
X0479000Y0141300D02*
X0479000Y0137300D01*
X0480500Y0136300D01*
X0477500Y0134800D01*
X0480500Y0133800D01*
X0477500Y0132800D01*
X0480500Y0131300D01*
X0477500Y0129800D01*
X0480500Y0128800D01*
X0477500Y0127800D01*
D13*
X0516094Y0134583D02*
X0516094Y0142851D01*
X0516094Y0134583D02*
X0520425Y0134583D01*
X0538929Y0134583D02*
X0559008Y0134583D01*
X0559008Y0170017D01*
X0516094Y0170017D01*
X0516094Y0162536D01*
X0473264Y0163583D02*
X0473264Y0199017D01*
X0442161Y0199017D01*
X0442161Y0193111D01*
X0424839Y0193111D01*
X0424839Y0199017D01*
X0393736Y0199017D01*
X0393736Y0163977D01*
X0393736Y0163583D02*
X0473264Y0163583D01*
X0416000Y0192225D02*
X0411000Y0192225D01*
X0424839Y0199017D02*
X0442161Y0199017D01*
X0393764Y0199017D02*
X0393764Y0163583D01*
X0064236Y0163583D01*
X0064236Y0163977D02*
X0064236Y0199017D01*
X0220339Y0199017D01*
X0220339Y0193111D01*
X0237661Y0193111D01*
X0237661Y0199017D01*
X0220339Y0199017D01*
X0237661Y0199017D02*
X0393764Y0199017D01*
X0544000Y0123800D02*
X0546500Y0126300D01*
X0551500Y0126300D01*
X0554000Y0123800D01*
X0554000Y0118800D01*
X0551500Y0116300D01*
X0554000Y0113800D01*
X0554000Y0108800D01*
X0551500Y0106300D01*
X0554000Y0103800D01*
X0554000Y0098800D01*
X0551500Y0096300D01*
X0554000Y0093800D01*
X0554000Y0088800D01*
X0551500Y0086300D01*
X0554000Y0083800D01*
X0554000Y0078800D01*
X0551500Y0076300D01*
X0546500Y0076300D01*
X0544000Y0078800D01*
X0544000Y0083800D01*
X0546500Y0086300D01*
X0544000Y0088800D01*
X0544000Y0093800D01*
X0546500Y0096300D01*
X0544000Y0098800D01*
X0544000Y0103800D01*
X0546500Y0106300D01*
X0544000Y0108800D01*
X0544000Y0113800D01*
X0546500Y0116300D01*
X0544000Y0118800D01*
X0544000Y0123800D01*
X0556900Y0107152D02*
X0556900Y0105017D01*
X0559035Y0107152D01*
X0559569Y0107152D01*
X0560103Y0106618D01*
X0560103Y0105551D01*
X0559569Y0105017D01*
X0559569Y0103469D02*
X0560103Y0103469D01*
X0559569Y0103469D02*
X0558501Y0102401D01*
X0556900Y0102401D01*
X0558501Y0102401D02*
X0559569Y0101334D01*
X0560103Y0101334D01*
X0559569Y0099786D02*
X0560103Y0099252D01*
X0560103Y0098184D01*
X0559569Y0097651D01*
X0557434Y0097651D01*
X0556900Y0098184D01*
X0556900Y0099252D01*
X0557434Y0099786D01*
X0559569Y0099786D01*
X0560103Y0096103D02*
X0560103Y0095035D01*
X0560103Y0095569D02*
X0557434Y0095569D01*
X0556900Y0095035D01*
X0556900Y0094501D01*
X0557434Y0093967D01*
X0541603Y0074584D02*
X0538400Y0074584D01*
X0538400Y0073517D02*
X0538400Y0075652D01*
X0540535Y0073517D02*
X0541603Y0074584D01*
X0541603Y0070901D02*
X0538400Y0070901D01*
X0538400Y0069834D02*
X0538400Y0071969D01*
X0540535Y0069834D02*
X0541603Y0070901D01*
X0541603Y0068286D02*
X0541603Y0067218D01*
X0541603Y0067752D02*
X0538934Y0067752D01*
X0538400Y0067218D01*
X0538400Y0066684D01*
X0538934Y0066151D01*
X0086500Y0192225D02*
X0081500Y0192225D01*
X0016500Y0126300D02*
X0011500Y0126300D01*
X0009000Y0123800D01*
X0009000Y0118800D01*
X0011500Y0116300D01*
X0009000Y0113800D01*
X0009000Y0108800D01*
X0011500Y0106300D01*
X0009000Y0103800D01*
X0009000Y0098800D01*
X0011500Y0096300D01*
X0009000Y0093800D01*
X0009000Y0088800D01*
X0011500Y0086300D01*
X0009000Y0083800D01*
X0009000Y0078800D01*
X0011500Y0076300D01*
X0016500Y0076300D01*
X0019000Y0078800D01*
X0019000Y0083800D01*
X0016500Y0086300D01*
X0019000Y0088800D01*
X0019000Y0093800D01*
X0016500Y0096300D01*
X0019000Y0098800D01*
X0019000Y0103800D01*
X0016500Y0106300D01*
X0019000Y0108800D01*
X0019000Y0113800D01*
X0016500Y0116300D01*
X0019000Y0118800D01*
X0019000Y0123800D01*
X0016500Y0126300D01*
X0006603Y0104317D02*
X0003400Y0104317D01*
X0003400Y0103249D02*
X0003400Y0105385D01*
X0005535Y0103249D02*
X0006603Y0104317D01*
X0006603Y0101701D02*
X0006069Y0101701D01*
X0005001Y0100634D01*
X0003400Y0100634D01*
X0005001Y0100634D02*
X0006069Y0099566D01*
X0006603Y0099566D01*
X0006069Y0098018D02*
X0006603Y0097485D01*
X0006603Y0096417D01*
X0006069Y0095883D01*
X0003934Y0095883D01*
X0003400Y0096417D01*
X0003400Y0097485D01*
X0003934Y0098018D01*
X0006069Y0098018D01*
X0006603Y0094335D02*
X0006603Y0093268D01*
X0006603Y0093801D02*
X0003934Y0093801D01*
X0003400Y0093268D01*
X0003400Y0092734D01*
X0003934Y0092200D01*
D14*
X0254335Y0107267D02*
X0254335Y0108035D01*
X0255102Y0108802D01*
X0257404Y0108802D01*
X0257404Y0107267D01*
X0256637Y0106500D01*
X0255102Y0106500D01*
X0254335Y0107267D01*
X0255869Y0110337D02*
X0257404Y0108802D01*
X0255869Y0110337D02*
X0254335Y0111104D01*
X0261241Y0110337D02*
X0261241Y0109569D01*
X0262008Y0108802D01*
X0261241Y0108035D01*
X0261241Y0107267D01*
X0262008Y0106500D01*
X0263543Y0106500D01*
X0264310Y0107267D01*
X0262775Y0108802D02*
X0262008Y0108802D01*
X0261241Y0110337D02*
X0262008Y0111104D01*
X0263543Y0111104D01*
X0264310Y0110337D01*
X0259706Y0107267D02*
X0258939Y0107267D01*
X0258939Y0106500D01*
X0259706Y0106500D01*
X0259706Y0107267D01*
X0270448Y0106500D02*
X0272750Y0106500D01*
X0273518Y0107267D01*
X0273518Y0109569D01*
X0275052Y0109569D02*
X0277354Y0109569D01*
X0278122Y0108802D01*
X0277354Y0108035D01*
X0275820Y0108035D01*
X0275052Y0107267D01*
X0275820Y0106500D01*
X0278122Y0106500D01*
X0279656Y0106500D02*
X0279656Y0108802D01*
X0280424Y0109569D01*
X0282726Y0109569D01*
X0282726Y0106500D01*
X0284260Y0108035D02*
X0284260Y0108802D01*
X0285028Y0109569D01*
X0286562Y0109569D01*
X0287330Y0108802D01*
X0287330Y0107267D01*
X0286562Y0106500D01*
X0285028Y0106500D01*
X0284260Y0108035D02*
X0287330Y0108035D01*
X0288864Y0108035D02*
X0288864Y0108802D01*
X0289631Y0109569D01*
X0291166Y0109569D01*
X0291933Y0108802D01*
X0291933Y0107267D01*
X0291166Y0106500D01*
X0289631Y0106500D01*
X0288864Y0108035D02*
X0291933Y0108035D01*
X0295003Y0106500D02*
X0295003Y0111104D01*
X0296537Y0111104D02*
X0293468Y0111104D01*
X0271983Y0104965D02*
X0271216Y0104965D01*
X0270448Y0105733D01*
X0270448Y0109569D01*
X0485515Y0061303D02*
X0486716Y0060703D01*
X0487917Y0059502D01*
X0486115Y0059502D01*
X0485515Y0058901D01*
X0485515Y0058301D01*
X0486115Y0057700D01*
X0487316Y0057700D01*
X0487917Y0058301D01*
X0487917Y0059502D01*
X0489198Y0061303D02*
X0490399Y0061303D01*
X0489798Y0061303D02*
X0489798Y0058301D01*
X0490399Y0057700D01*
X0490999Y0057700D01*
X0491600Y0058301D01*
X0508993Y0080676D02*
X0512496Y0080676D01*
X0512496Y0082427D01*
X0511912Y0083011D01*
X0510744Y0083011D01*
X0510161Y0082427D01*
X0510161Y0080676D01*
X0510161Y0081843D02*
X0508993Y0083011D01*
X0508993Y0084267D02*
X0508993Y0086602D01*
X0508993Y0085434D02*
X0512496Y0085434D01*
X0511328Y0084267D01*
X0516700Y0088211D02*
X0517284Y0087627D01*
X0516700Y0088211D02*
X0516700Y0089378D01*
X0517284Y0089962D01*
X0517868Y0089962D01*
X0518451Y0089378D01*
X0518451Y0088794D01*
X0518451Y0089378D02*
X0519035Y0089962D01*
X0519619Y0089962D01*
X0520203Y0089378D01*
X0520203Y0088211D01*
X0519619Y0087627D01*
X0519619Y0091218D02*
X0520203Y0091802D01*
X0520203Y0092969D01*
X0519619Y0093553D01*
X0519035Y0093553D01*
X0518451Y0092969D01*
X0517868Y0093553D01*
X0517284Y0093553D01*
X0516700Y0092969D01*
X0516700Y0091802D01*
X0517284Y0091218D01*
X0518451Y0092386D02*
X0518451Y0092969D01*
X0517284Y0094809D02*
X0519619Y0097144D01*
X0517284Y0097144D01*
X0516700Y0096560D01*
X0516700Y0095393D01*
X0517284Y0094809D01*
X0519619Y0094809D01*
X0520203Y0095393D01*
X0520203Y0096560D01*
X0519619Y0097144D01*
D15*
X0518500Y0102550D03*
X0518500Y0081050D03*
M02*
